<svg xmlns="http://www.w3.org/2000/svg" xmlns:xlink="http://www.w3.org/1999/xlink" width="600" height="400" viewBox="0 0 2400 1600">
<defs>
  <clipPath id="clip560">
    <rect x="0" y="0" width="2400" height="1600"></rect>
  </clipPath>
</defs>
<path clip-path="url(#clip560)" d="M0 1600 L2400 1600 L2400 0 L0 0  Z" fill="#ffffff" fill-rule="evenodd" fill-opacity="1"></path>
<defs>
  <clipPath id="clip561">
    <rect x="480" y="0" width="1681" height="1600"></rect>
  </clipPath>
</defs>
<path clip-path="url(#clip560)" d="M221.637 1410.9 L2352.76 1410.9 L2352.76 123.472 L221.637 123.472  Z" fill="#ffffff" fill-rule="evenodd" fill-opacity="1"></path>
<defs>
  <clipPath id="clip562">
    <rect x="221" y="123" width="2132" height="1288"></rect>
  </clipPath>
</defs>
<polyline clip-path="url(#clip562)" style="stroke:#000000; stroke-linecap:round; stroke-linejoin:round; stroke-width:2; stroke-opacity:0.1; fill:none" points="281.952,1410.9 281.952,123.472 "></polyline>
<polyline clip-path="url(#clip562)" style="stroke:#000000; stroke-linecap:round; stroke-linejoin:round; stroke-width:2; stroke-opacity:0.1; fill:none" points="784.574,1410.9 784.574,123.472 "></polyline>
<polyline clip-path="url(#clip562)" style="stroke:#000000; stroke-linecap:round; stroke-linejoin:round; stroke-width:2; stroke-opacity:0.1; fill:none" points="1287.2,1410.9 1287.2,123.472 "></polyline>
<polyline clip-path="url(#clip562)" style="stroke:#000000; stroke-linecap:round; stroke-linejoin:round; stroke-width:2; stroke-opacity:0.1; fill:none" points="1789.82,1410.9 1789.82,123.472 "></polyline>
<polyline clip-path="url(#clip562)" style="stroke:#000000; stroke-linecap:round; stroke-linejoin:round; stroke-width:2; stroke-opacity:0.1; fill:none" points="2292.44,1410.9 2292.44,123.472 "></polyline>
<polyline clip-path="url(#clip560)" style="stroke:#000000; stroke-linecap:round; stroke-linejoin:round; stroke-width:4; stroke-opacity:1; fill:none" points="221.637,1410.9 2352.76,1410.9 "></polyline>
<polyline clip-path="url(#clip560)" style="stroke:#000000; stroke-linecap:round; stroke-linejoin:round; stroke-width:4; stroke-opacity:1; fill:none" points="281.952,1410.9 281.952,1392 "></polyline>
<polyline clip-path="url(#clip560)" style="stroke:#000000; stroke-linecap:round; stroke-linejoin:round; stroke-width:4; stroke-opacity:1; fill:none" points="784.574,1410.9 784.574,1392 "></polyline>
<polyline clip-path="url(#clip560)" style="stroke:#000000; stroke-linecap:round; stroke-linejoin:round; stroke-width:4; stroke-opacity:1; fill:none" points="1287.2,1410.9 1287.2,1392 "></polyline>
<polyline clip-path="url(#clip560)" style="stroke:#000000; stroke-linecap:round; stroke-linejoin:round; stroke-width:4; stroke-opacity:1; fill:none" points="1789.82,1410.9 1789.82,1392 "></polyline>
<polyline clip-path="url(#clip560)" style="stroke:#000000; stroke-linecap:round; stroke-linejoin:round; stroke-width:4; stroke-opacity:1; fill:none" points="2292.44,1410.9 2292.44,1392 "></polyline>
<path clip-path="url(#clip560)" d="M248.279 1485.02 L255.918 1485.02 L255.918 1458.66 L247.608 1460.32 L247.608 1456.06 L255.872 1454.4 L260.548 1454.4 L260.548 1485.02 L268.187 1485.02 L268.187 1488.96 L248.279 1488.96 L248.279 1485.02 Z" fill="#000000" fill-rule="nonzero" fill-opacity="1"></path><path clip-path="url(#clip560)" d="M287.631 1457.48 Q284.02 1457.48 282.191 1461.04 Q280.386 1464.58 280.386 1471.71 Q280.386 1478.82 282.191 1482.38 Q284.02 1485.92 287.631 1485.92 Q291.265 1485.92 293.071 1482.38 Q294.899 1478.82 294.899 1471.71 Q294.899 1464.58 293.071 1461.04 Q291.265 1457.48 287.631 1457.48 M287.631 1453.77 Q293.441 1453.77 296.497 1458.38 Q299.575 1462.96 299.575 1471.71 Q299.575 1480.44 296.497 1485.04 Q293.441 1489.63 287.631 1489.63 Q281.821 1489.63 278.742 1485.04 Q275.687 1480.44 275.687 1471.71 Q275.687 1462.96 278.742 1458.38 Q281.821 1453.77 287.631 1453.77 Z" fill="#000000" fill-rule="nonzero" fill-opacity="1"></path><path clip-path="url(#clip560)" d="M300.121 1458.35 L306.327 1458.35 L306.327 1436.93 L299.575 1438.28 L299.575 1434.82 L306.29 1433.47 L310.089 1433.47 L310.089 1458.35 L316.295 1458.35 L316.295 1461.55 L300.121 1461.55 L300.121 1458.35 Z" fill="#000000" fill-rule="nonzero" fill-opacity="1"></path><path clip-path="url(#clip560)" d="M750.347 1485.02 L757.986 1485.02 L757.986 1458.66 L749.676 1460.32 L749.676 1456.06 L757.939 1454.4 L762.615 1454.4 L762.615 1485.02 L770.254 1485.02 L770.254 1488.96 L750.347 1488.96 L750.347 1485.02 Z" fill="#000000" fill-rule="nonzero" fill-opacity="1"></path><path clip-path="url(#clip560)" d="M789.699 1457.48 Q786.087 1457.48 784.259 1461.04 Q782.453 1464.58 782.453 1471.71 Q782.453 1478.82 784.259 1482.38 Q786.087 1485.92 789.699 1485.92 Q793.333 1485.92 795.138 1482.38 Q796.967 1478.82 796.967 1471.71 Q796.967 1464.58 795.138 1461.04 Q793.333 1457.48 789.699 1457.48 M789.699 1453.77 Q795.509 1453.77 798.564 1458.38 Q801.643 1462.96 801.643 1471.71 Q801.643 1480.44 798.564 1485.04 Q795.509 1489.63 789.699 1489.63 Q783.888 1489.63 780.81 1485.04 Q777.754 1480.44 777.754 1471.71 Q777.754 1462.96 780.81 1458.38 Q783.888 1453.77 789.699 1453.77 Z" fill="#000000" fill-rule="nonzero" fill-opacity="1"></path><path clip-path="url(#clip560)" d="M806.213 1458.35 L819.473 1458.35 L819.473 1461.55 L801.643 1461.55 L801.643 1458.35 Q803.806 1456.11 807.53 1452.35 Q811.272 1448.57 812.232 1447.48 Q814.056 1445.43 814.771 1444.02 Q815.504 1442.59 815.504 1441.22 Q815.504 1438.98 813.924 1437.57 Q812.363 1436.16 809.843 1436.16 Q808.056 1436.16 806.063 1436.78 Q804.088 1437.4 801.831 1438.66 L801.831 1434.82 Q804.126 1433.9 806.119 1433.43 Q808.113 1432.96 809.768 1432.96 Q814.131 1432.96 816.727 1435.14 Q819.322 1437.32 819.322 1440.97 Q819.322 1442.7 818.664 1444.26 Q818.024 1445.8 816.313 1447.91 Q815.843 1448.46 813.323 1451.07 Q810.802 1453.67 806.213 1458.35 Z" fill="#000000" fill-rule="nonzero" fill-opacity="1"></path><path clip-path="url(#clip560)" d="M1252.64 1485.02 L1260.28 1485.02 L1260.28 1458.66 L1251.97 1460.32 L1251.97 1456.06 L1260.23 1454.4 L1264.91 1454.4 L1264.91 1485.02 L1272.55 1485.02 L1272.55 1488.96 L1252.64 1488.96 L1252.64 1485.02 Z" fill="#000000" fill-rule="nonzero" fill-opacity="1"></path><path clip-path="url(#clip560)" d="M1291.99 1457.48 Q1288.38 1457.48 1286.55 1461.04 Q1284.75 1464.58 1284.75 1471.71 Q1284.75 1478.82 1286.55 1482.38 Q1288.38 1485.92 1291.99 1485.92 Q1295.63 1485.92 1297.43 1482.38 Q1299.26 1478.82 1299.26 1471.71 Q1299.26 1464.58 1297.43 1461.04 Q1295.63 1457.48 1291.99 1457.48 M1291.99 1453.77 Q1297.8 1453.77 1300.86 1458.38 Q1303.94 1462.96 1303.94 1471.71 Q1303.94 1480.44 1300.86 1485.04 Q1297.8 1489.63 1291.99 1489.63 Q1286.18 1489.63 1283.1 1485.04 Q1280.05 1480.44 1280.05 1471.71 Q1280.05 1462.96 1283.1 1458.38 Q1286.18 1453.77 1291.99 1453.77 Z" fill="#000000" fill-rule="nonzero" fill-opacity="1"></path><path clip-path="url(#clip560)" d="M1316.63 1446.41 Q1319.36 1446.99 1320.88 1448.83 Q1322.42 1450.68 1322.42 1453.38 Q1322.42 1457.54 1319.57 1459.82 Q1316.71 1462.09 1311.44 1462.09 Q1309.67 1462.09 1307.79 1461.73 Q1305.93 1461.4 1303.94 1460.7 L1303.94 1457.03 Q1305.52 1457.95 1307.4 1458.42 Q1309.28 1458.89 1311.33 1458.89 Q1314.9 1458.89 1316.76 1457.48 Q1318.64 1456.07 1318.64 1453.38 Q1318.64 1450.9 1316.89 1449.51 Q1315.16 1448.1 1312.06 1448.1 L1308.79 1448.1 L1308.79 1444.98 L1312.21 1444.98 Q1315.01 1444.98 1316.5 1443.87 Q1317.99 1442.74 1317.99 1440.63 Q1317.99 1438.47 1316.44 1437.32 Q1314.92 1436.16 1312.06 1436.16 Q1310.5 1436.16 1308.71 1436.49 Q1306.93 1436.83 1304.78 1437.55 L1304.78 1434.16 Q1306.95 1433.56 1308.83 1433.26 Q1310.73 1432.96 1312.4 1432.96 Q1316.73 1432.96 1319.25 1434.93 Q1321.77 1436.89 1321.77 1440.24 Q1321.77 1442.57 1320.43 1444.19 Q1319.1 1445.79 1316.63 1446.41 Z" fill="#000000" fill-rule="nonzero" fill-opacity="1"></path><path clip-path="url(#clip560)" d="M1754.28 1485.02 L1761.91 1485.02 L1761.91 1458.66 L1753.6 1460.32 L1753.6 1456.06 L1761.87 1454.4 L1766.54 1454.4 L1766.54 1485.02 L1774.18 1485.02 L1774.18 1488.96 L1754.28 1488.96 L1754.28 1485.02 Z" fill="#000000" fill-rule="nonzero" fill-opacity="1"></path><path clip-path="url(#clip560)" d="M1793.63 1457.48 Q1790.02 1457.48 1788.19 1461.04 Q1786.38 1464.58 1786.38 1471.71 Q1786.38 1478.82 1788.19 1482.38 Q1790.02 1485.92 1793.63 1485.92 Q1797.26 1485.92 1799.07 1482.38 Q1800.9 1478.82 1800.9 1471.71 Q1800.9 1464.58 1799.07 1461.04 Q1797.26 1457.48 1793.63 1457.48 M1793.63 1453.77 Q1799.44 1453.77 1802.49 1458.38 Q1805.57 1462.96 1805.57 1471.71 Q1805.57 1480.44 1802.49 1485.04 Q1799.44 1489.63 1793.63 1489.63 Q1787.82 1489.63 1784.74 1485.04 Q1781.68 1480.44 1781.68 1471.71 Q1781.68 1462.96 1784.74 1458.38 Q1787.82 1453.77 1793.63 1453.77 Z" fill="#000000" fill-rule="nonzero" fill-opacity="1"></path><path clip-path="url(#clip560)" d="M1818.25 1436.78 L1808.66 1451.77 L1818.25 1451.77 L1818.25 1436.78 M1817.25 1433.47 L1822.03 1433.47 L1822.03 1451.77 L1826.03 1451.77 L1826.03 1454.93 L1822.03 1454.93 L1822.03 1461.55 L1818.25 1461.55 L1818.25 1454.93 L1805.57 1454.93 L1805.57 1451.26 L1817.25 1433.47 Z" fill="#000000" fill-rule="nonzero" fill-opacity="1"></path><path clip-path="url(#clip560)" d="M2258.04 1485.02 L2265.68 1485.02 L2265.68 1458.66 L2257.37 1460.32 L2257.37 1456.06 L2265.64 1454.4 L2270.31 1454.4 L2270.31 1485.02 L2277.95 1485.02 L2277.95 1488.96 L2258.04 1488.96 L2258.04 1485.02 Z" fill="#000000" fill-rule="nonzero" fill-opacity="1"></path><path clip-path="url(#clip560)" d="M2297.4 1457.48 Q2293.79 1457.48 2291.96 1461.04 Q2290.15 1464.58 2290.15 1471.71 Q2290.15 1478.82 2291.96 1482.38 Q2293.79 1485.92 2297.4 1485.92 Q2301.03 1485.92 2302.84 1482.38 Q2304.66 1478.82 2304.66 1471.71 Q2304.66 1464.58 2302.84 1461.04 Q2301.03 1457.48 2297.4 1457.48 M2297.4 1453.77 Q2303.21 1453.77 2306.26 1458.38 Q2309.34 1462.96 2309.34 1471.71 Q2309.34 1480.44 2306.26 1485.04 Q2303.21 1489.63 2297.4 1489.63 Q2291.59 1489.63 2288.51 1485.04 Q2285.45 1480.44 2285.45 1471.71 Q2285.45 1462.96 2288.51 1458.38 Q2291.59 1453.77 2297.4 1453.77 Z" fill="#000000" fill-rule="nonzero" fill-opacity="1"></path><path clip-path="url(#clip560)" d="M2310.53 1433.47 L2325.44 1433.47 L2325.44 1436.66 L2314.01 1436.66 L2314.01 1443.55 Q2314.83 1443.27 2315.66 1443.13 Q2316.49 1442.98 2317.32 1442.98 Q2322.02 1442.98 2324.76 1445.56 Q2327.51 1448.14 2327.51 1452.54 Q2327.51 1457.07 2324.69 1459.59 Q2321.87 1462.09 2316.73 1462.09 Q2314.96 1462.09 2313.12 1461.79 Q2311.3 1461.49 2309.34 1460.89 L2309.34 1457.07 Q2311.03 1457.99 2312.84 1458.44 Q2314.64 1458.89 2316.66 1458.89 Q2319.91 1458.89 2321.81 1457.18 Q2323.71 1455.47 2323.71 1452.54 Q2323.71 1449.6 2321.81 1447.89 Q2319.91 1446.18 2316.66 1446.18 Q2315.13 1446.18 2313.61 1446.52 Q2312.11 1446.86 2310.53 1447.57 L2310.53 1433.47 Z" fill="#000000" fill-rule="nonzero" fill-opacity="1"></path><path clip-path="url(#clip560)" d="M1025.34 1526.67 L1034 1526.67 L1055.07 1566.42 L1055.07 1526.67 L1061.31 1526.67 L1061.31 1574.19 L1052.65 1574.19 L1031.58 1534.43 L1031.58 1574.19 L1025.34 1574.19 L1025.34 1526.67 Z" fill="#000000" fill-rule="nonzero" fill-opacity="1"></path><path clip-path="url(#clip560)" d="M1073.25 1560.12 L1073.25 1538.54 L1079.1 1538.54 L1079.1 1559.89 Q1079.1 1564.96 1081.07 1567.5 Q1083.05 1570.02 1087 1570.02 Q1091.74 1570.02 1094.47 1566.99 Q1097.24 1563.97 1097.24 1558.75 L1097.24 1538.54 L1103.1 1538.54 L1103.1 1574.19 L1097.24 1574.19 L1097.24 1568.71 Q1095.11 1571.96 1092.28 1573.55 Q1089.48 1575.11 1085.75 1575.11 Q1079.61 1575.11 1076.43 1571.29 Q1073.25 1567.47 1073.25 1560.12 M1087.98 1537.68 L1087.98 1537.68 Z" fill="#000000" fill-rule="nonzero" fill-opacity="1"></path><path clip-path="url(#clip560)" d="M1142.92 1545.38 Q1145.11 1541.43 1148.17 1539.56 Q1151.23 1537.68 1155.36 1537.68 Q1160.93 1537.68 1163.96 1541.59 Q1166.98 1545.48 1166.98 1552.67 L1166.98 1574.19 L1161.09 1574.19 L1161.09 1552.86 Q1161.09 1547.74 1159.28 1545.25 Q1157.46 1542.77 1153.74 1542.77 Q1149.19 1542.77 1146.55 1545.79 Q1143.9 1548.82 1143.9 1554.04 L1143.9 1574.19 L1138.02 1574.19 L1138.02 1552.86 Q1138.02 1547.7 1136.2 1545.25 Q1134.39 1542.77 1130.6 1542.77 Q1126.11 1542.77 1123.47 1545.83 Q1120.83 1548.85 1120.83 1554.04 L1120.83 1574.19 L1114.94 1574.19 L1114.94 1538.54 L1120.83 1538.54 L1120.83 1544.08 Q1122.83 1540.8 1125.63 1539.24 Q1128.44 1537.68 1132.29 1537.68 Q1136.17 1537.68 1138.88 1539.65 Q1141.61 1541.62 1142.92 1545.38 Z" fill="#000000" fill-rule="nonzero" fill-opacity="1"></path><path clip-path="url(#clip560)" d="M1204.25 1556.39 Q1204.25 1549.93 1201.58 1546.27 Q1198.94 1542.58 1194.29 1542.58 Q1189.64 1542.58 1186.97 1546.27 Q1184.33 1549.93 1184.33 1556.39 Q1184.33 1562.85 1186.97 1566.55 Q1189.64 1570.21 1194.29 1570.21 Q1198.94 1570.21 1201.58 1566.55 Q1204.25 1562.85 1204.25 1556.39 M1184.33 1543.95 Q1186.17 1540.77 1188.97 1539.24 Q1191.81 1537.68 1195.72 1537.68 Q1202.21 1537.68 1206.26 1542.83 Q1210.33 1547.99 1210.33 1556.39 Q1210.33 1564.8 1206.26 1569.95 Q1202.21 1575.11 1195.72 1575.11 Q1191.81 1575.11 1188.97 1573.58 Q1186.17 1572.02 1184.33 1568.84 L1184.33 1574.19 L1178.44 1574.19 L1178.44 1524.66 L1184.33 1524.66 L1184.33 1543.95 Z" fill="#000000" fill-rule="nonzero" fill-opacity="1"></path><path clip-path="url(#clip560)" d="M1250.53 1554.9 L1250.53 1557.76 L1223.6 1557.76 Q1223.99 1563.81 1227.23 1566.99 Q1230.51 1570.14 1236.33 1570.14 Q1239.71 1570.14 1242.86 1569.32 Q1246.04 1568.49 1249.16 1566.83 L1249.16 1572.37 Q1246.01 1573.71 1242.7 1574.41 Q1239.39 1575.11 1235.98 1575.11 Q1227.45 1575.11 1222.46 1570.14 Q1217.49 1565.18 1217.49 1556.71 Q1217.49 1547.96 1222.2 1542.83 Q1226.95 1537.68 1234.97 1537.68 Q1242.16 1537.68 1246.33 1542.33 Q1250.53 1546.94 1250.53 1554.9 M1244.67 1553.18 Q1244.61 1548.37 1241.97 1545.51 Q1239.36 1542.64 1235.03 1542.64 Q1230.13 1542.64 1227.17 1545.41 Q1224.24 1548.18 1223.79 1553.21 L1244.67 1553.18 Z" fill="#000000" fill-rule="nonzero" fill-opacity="1"></path><path clip-path="url(#clip560)" d="M1280.8 1544.01 Q1279.81 1543.44 1278.63 1543.18 Q1277.49 1542.9 1276.09 1542.9 Q1271.12 1542.9 1268.45 1546.14 Q1265.81 1549.36 1265.81 1555.41 L1265.81 1574.19 L1259.92 1574.19 L1259.92 1538.54 L1265.81 1538.54 L1265.81 1544.08 Q1267.65 1540.83 1270.61 1539.27 Q1273.57 1537.68 1277.81 1537.68 Q1278.41 1537.68 1279.14 1537.77 Q1279.88 1537.84 1280.77 1538 L1280.8 1544.01 Z" fill="#000000" fill-rule="nonzero" fill-opacity="1"></path><path clip-path="url(#clip560)" d="M1321.48 1542.64 Q1316.77 1542.64 1314.03 1546.34 Q1311.29 1550 1311.29 1556.39 Q1311.29 1562.79 1314 1566.48 Q1316.73 1570.14 1321.48 1570.14 Q1326.15 1570.14 1328.89 1566.45 Q1331.63 1562.76 1331.63 1556.39 Q1331.63 1550.06 1328.89 1546.37 Q1326.15 1542.64 1321.48 1542.64 M1321.48 1537.68 Q1329.11 1537.68 1333.48 1542.64 Q1337.84 1547.61 1337.84 1556.39 Q1337.84 1565.15 1333.48 1570.14 Q1329.11 1575.11 1321.48 1575.11 Q1313.81 1575.11 1309.44 1570.14 Q1305.12 1565.15 1305.12 1556.39 Q1305.12 1547.61 1309.44 1542.64 Q1313.81 1537.68 1321.48 1537.68 Z" fill="#000000" fill-rule="nonzero" fill-opacity="1"></path><path clip-path="url(#clip560)" d="M1365.59 1524.66 L1365.59 1529.53 L1359.99 1529.53 Q1356.84 1529.53 1355.6 1530.8 Q1354.39 1532.08 1354.39 1535.39 L1354.39 1538.54 L1364.03 1538.54 L1364.03 1543.09 L1354.39 1543.09 L1354.39 1574.19 L1348.5 1574.19 L1348.5 1543.09 L1342.9 1543.09 L1342.9 1538.54 L1348.5 1538.54 L1348.5 1536.05 Q1348.5 1530.1 1351.27 1527.4 Q1354.04 1524.66 1360.05 1524.66 L1365.59 1524.66 Z" fill="#000000" fill-rule="nonzero" fill-opacity="1"></path><path clip-path="url(#clip560)" d="M1384.88 1526.67 L1425.08 1526.67 L1425.08 1532.08 L1408.21 1532.08 L1408.21 1574.19 L1401.75 1574.19 L1401.75 1532.08 L1384.88 1532.08 L1384.88 1526.67 Z" fill="#000000" fill-rule="nonzero" fill-opacity="1"></path><path clip-path="url(#clip560)" d="M1442.11 1544.01 Q1441.12 1543.44 1439.94 1543.18 Q1438.8 1542.9 1437.4 1542.9 Q1432.43 1542.9 1429.76 1546.14 Q1427.11 1549.36 1427.11 1555.41 L1427.11 1574.19 L1421.23 1574.19 L1421.23 1538.54 L1427.11 1538.54 L1427.11 1544.08 Q1428.96 1540.83 1431.92 1539.27 Q1434.88 1537.68 1439.11 1537.68 Q1439.72 1537.68 1440.45 1537.77 Q1441.18 1537.84 1442.07 1538 L1442.11 1544.01 Z" fill="#000000" fill-rule="nonzero" fill-opacity="1"></path><path clip-path="url(#clip560)" d="M1448.25 1538.54 L1454.11 1538.54 L1454.11 1574.19 L1448.25 1574.19 L1448.25 1538.54 M1448.25 1524.66 L1454.11 1524.66 L1454.11 1532.08 L1448.25 1532.08 L1448.25 1524.66 Z" fill="#000000" fill-rule="nonzero" fill-opacity="1"></path><path clip-path="url(#clip560)" d="M1482.56 1556.27 Q1475.46 1556.27 1472.73 1557.89 Q1469.99 1559.51 1469.99 1563.43 Q1469.99 1566.55 1472.02 1568.39 Q1474.09 1570.21 1477.63 1570.21 Q1482.5 1570.21 1485.42 1566.77 Q1488.38 1563.3 1488.38 1557.57 L1488.38 1556.27 L1482.56 1556.27 M1494.24 1553.85 L1494.24 1574.19 L1488.38 1574.19 L1488.38 1568.77 Q1486.38 1572.02 1483.39 1573.58 Q1480.4 1575.11 1476.07 1575.11 Q1470.59 1575.11 1467.35 1572.05 Q1464.13 1568.97 1464.13 1563.81 Q1464.13 1557.79 1468.14 1554.74 Q1472.18 1551.68 1480.17 1551.68 L1488.38 1551.68 L1488.38 1551.11 Q1488.38 1547.07 1485.71 1544.87 Q1483.07 1542.64 1478.26 1542.64 Q1475.21 1542.64 1472.31 1543.38 Q1469.41 1544.11 1466.74 1545.57 L1466.74 1540.16 Q1469.96 1538.92 1472.98 1538.31 Q1476 1537.68 1478.87 1537.68 Q1486.6 1537.68 1490.42 1541.69 Q1494.24 1545.7 1494.24 1553.85 Z" fill="#000000" fill-rule="nonzero" fill-opacity="1"></path><path clip-path="url(#clip560)" d="M1506.3 1524.66 L1512.16 1524.66 L1512.16 1574.19 L1506.3 1574.19 L1506.3 1524.66 Z" fill="#000000" fill-rule="nonzero" fill-opacity="1"></path><path clip-path="url(#clip560)" d="M1547.14 1539.59 L1547.14 1545.13 Q1544.66 1543.85 1541.98 1543.22 Q1539.31 1542.58 1536.45 1542.58 Q1532.09 1542.58 1529.89 1543.92 Q1527.72 1545.25 1527.72 1547.93 Q1527.72 1549.96 1529.28 1551.14 Q1530.84 1552.29 1535.55 1553.34 L1537.56 1553.78 Q1543.8 1555.12 1546.41 1557.57 Q1549.05 1559.99 1549.05 1564.35 Q1549.05 1569.32 1545.1 1572.21 Q1541.19 1575.11 1534.31 1575.11 Q1531.45 1575.11 1528.33 1574.54 Q1525.24 1573.99 1521.8 1572.88 L1521.8 1566.83 Q1525.05 1568.52 1528.2 1569.38 Q1531.35 1570.21 1534.44 1570.21 Q1538.58 1570.21 1540.81 1568.81 Q1543.03 1567.37 1543.03 1564.8 Q1543.03 1562.41 1541.41 1561.14 Q1539.82 1559.86 1534.38 1558.68 L1532.34 1558.21 Q1526.9 1557.06 1524.48 1554.71 Q1522.06 1552.32 1522.06 1548.18 Q1522.06 1543.15 1525.62 1540.42 Q1529.19 1537.68 1535.75 1537.68 Q1538.99 1537.68 1541.86 1538.16 Q1544.72 1538.63 1547.14 1539.59 Z" fill="#000000" fill-rule="nonzero" fill-opacity="1"></path><polyline clip-path="url(#clip562)" style="stroke:#000000; stroke-linecap:round; stroke-linejoin:round; stroke-width:2; stroke-opacity:0.1; fill:none" points="221.637,1135.63 2352.76,1135.63 "></polyline>
<polyline clip-path="url(#clip562)" style="stroke:#000000; stroke-linecap:round; stroke-linejoin:round; stroke-width:2; stroke-opacity:0.1; fill:none" points="221.637,819.146 2352.76,819.146 "></polyline>
<polyline clip-path="url(#clip562)" style="stroke:#000000; stroke-linecap:round; stroke-linejoin:round; stroke-width:2; stroke-opacity:0.1; fill:none" points="221.637,502.661 2352.76,502.661 "></polyline>
<polyline clip-path="url(#clip562)" style="stroke:#000000; stroke-linecap:round; stroke-linejoin:round; stroke-width:2; stroke-opacity:0.1; fill:none" points="221.637,186.176 2352.76,186.176 "></polyline>
<polyline clip-path="url(#clip560)" style="stroke:#000000; stroke-linecap:round; stroke-linejoin:round; stroke-width:4; stroke-opacity:1; fill:none" points="221.637,1410.9 221.637,123.472 "></polyline>
<polyline clip-path="url(#clip560)" style="stroke:#000000; stroke-linecap:round; stroke-linejoin:round; stroke-width:4; stroke-opacity:1; fill:none" points="221.637,1135.63 240.535,1135.63 "></polyline>
<polyline clip-path="url(#clip560)" style="stroke:#000000; stroke-linecap:round; stroke-linejoin:round; stroke-width:4; stroke-opacity:1; fill:none" points="221.637,819.146 240.535,819.146 "></polyline>
<polyline clip-path="url(#clip560)" style="stroke:#000000; stroke-linecap:round; stroke-linejoin:round; stroke-width:4; stroke-opacity:1; fill:none" points="221.637,502.661 240.535,502.661 "></polyline>
<polyline clip-path="url(#clip560)" style="stroke:#000000; stroke-linecap:round; stroke-linejoin:round; stroke-width:4; stroke-opacity:1; fill:none" points="221.637,186.176 240.535,186.176 "></polyline>
<path clip-path="url(#clip560)" d="M114.931 1155.42 L122.57 1155.42 L122.57 1129.06 L114.26 1130.73 L114.26 1126.47 L122.524 1124.8 L127.2 1124.8 L127.2 1155.42 L134.839 1155.42 L134.839 1159.36 L114.931 1159.36 L114.931 1155.42 Z" fill="#000000" fill-rule="nonzero" fill-opacity="1"></path><path clip-path="url(#clip560)" d="M154.283 1127.88 Q150.672 1127.88 148.843 1131.44 Q147.038 1134.98 147.038 1142.11 Q147.038 1149.22 148.843 1152.79 Q150.672 1156.33 154.283 1156.33 Q157.917 1156.33 159.723 1152.79 Q161.552 1149.22 161.552 1142.11 Q161.552 1134.98 159.723 1131.44 Q157.917 1127.88 154.283 1127.88 M154.283 1124.17 Q160.093 1124.17 163.149 1128.78 Q166.227 1133.36 166.227 1142.11 Q166.227 1150.84 163.149 1155.45 Q160.093 1160.03 154.283 1160.03 Q148.473 1160.03 145.394 1155.45 Q142.339 1150.84 142.339 1142.11 Q142.339 1133.36 145.394 1128.78 Q148.473 1124.17 154.283 1124.17 Z" fill="#000000" fill-rule="nonzero" fill-opacity="1"></path><path clip-path="url(#clip560)" d="M175.932 1106.37 Q172.998 1106.37 171.512 1109.27 Q170.045 1112.14 170.045 1117.94 Q170.045 1123.71 171.512 1126.61 Q172.998 1129.48 175.932 1129.48 Q178.885 1129.48 180.352 1126.61 Q181.838 1123.71 181.838 1117.94 Q181.838 1112.14 180.352 1109.27 Q178.885 1106.37 175.932 1106.37 M175.932 1103.36 Q180.653 1103.36 183.136 1107.1 Q185.637 1110.83 185.637 1117.94 Q185.637 1125.03 183.136 1128.77 Q180.653 1132.49 175.932 1132.49 Q171.212 1132.49 168.71 1128.77 Q166.227 1125.03 166.227 1117.94 Q166.227 1110.83 168.71 1107.1 Q171.212 1103.36 175.932 1103.36 Z" fill="#000000" fill-rule="nonzero" fill-opacity="1"></path><path clip-path="url(#clip560)" d="M117.621 838.939 L125.26 838.939 L125.26 812.573 L116.95 814.24 L116.95 809.981 L125.214 808.314 L129.889 808.314 L129.889 838.939 L137.528 838.939 L137.528 842.874 L117.621 842.874 L117.621 838.939 Z" fill="#000000" fill-rule="nonzero" fill-opacity="1"></path><path clip-path="url(#clip560)" d="M156.973 811.393 Q153.362 811.393 151.533 814.957 Q149.727 818.499 149.727 825.629 Q149.727 832.735 151.533 836.3 Q153.362 839.842 156.973 839.842 Q160.607 839.842 162.412 836.3 Q164.241 832.735 164.241 825.629 Q164.241 818.499 162.412 814.957 Q160.607 811.393 156.973 811.393 M156.973 807.689 Q162.783 807.689 165.838 812.295 Q168.917 816.879 168.917 825.629 Q168.917 834.356 165.838 838.962 Q162.783 843.545 156.973 843.545 Q151.162 843.545 148.084 838.962 Q145.028 834.356 145.028 825.629 Q145.028 816.879 148.084 812.295 Q151.162 807.689 156.973 807.689 Z" fill="#000000" fill-rule="nonzero" fill-opacity="1"></path><path clip-path="url(#clip560)" d="M169.462 812.266 L175.669 812.266 L175.669 790.844 L168.917 792.198 L168.917 788.738 L175.631 787.384 L179.431 787.384 L179.431 812.266 L185.637 812.266 L185.637 815.464 L169.462 815.464 L169.462 812.266 Z" fill="#000000" fill-rule="nonzero" fill-opacity="1"></path><path clip-path="url(#clip560)" d="M116.511 522.454 L124.15 522.454 L124.15 496.088 L115.84 497.755 L115.84 493.496 L124.104 491.829 L128.78 491.829 L128.78 522.454 L136.419 522.454 L136.419 526.389 L116.511 526.389 L116.511 522.454 Z" fill="#000000" fill-rule="nonzero" fill-opacity="1"></path><path clip-path="url(#clip560)" d="M155.863 494.908 Q152.252 494.908 150.423 498.472 Q148.618 502.014 148.618 509.144 Q148.618 516.25 150.423 519.815 Q152.252 523.356 155.863 523.356 Q159.497 523.356 161.303 519.815 Q163.131 516.25 163.131 509.144 Q163.131 502.014 161.303 498.472 Q159.497 494.908 155.863 494.908 M155.863 491.204 Q161.673 491.204 164.729 495.81 Q167.807 500.394 167.807 509.144 Q167.807 517.87 164.729 522.477 Q161.673 527.06 155.863 527.06 Q150.053 527.06 146.974 522.477 Q143.919 517.87 143.919 509.144 Q143.919 500.394 146.974 495.81 Q150.053 491.204 155.863 491.204 Z" fill="#000000" fill-rule="nonzero" fill-opacity="1"></path><path clip-path="url(#clip560)" d="M172.378 495.781 L185.637 495.781 L185.637 498.978 L167.807 498.978 L167.807 495.781 Q169.97 493.543 173.694 489.781 Q177.437 486.001 178.396 484.91 Q180.22 482.86 180.935 481.45 Q181.669 480.02 181.669 478.647 Q181.669 476.409 180.089 474.999 Q178.528 473.588 176.008 473.588 Q174.221 473.588 172.227 474.209 Q170.252 474.829 167.995 476.089 L167.995 472.253 Q170.29 471.331 172.284 470.861 Q174.277 470.391 175.932 470.391 Q180.296 470.391 182.891 472.572 Q185.487 474.754 185.487 478.403 Q185.487 480.133 184.828 481.694 Q184.189 483.236 182.477 485.343 Q182.007 485.888 179.487 488.503 Q176.967 491.098 172.378 495.781 Z" fill="#000000" fill-rule="nonzero" fill-opacity="1"></path><path clip-path="url(#clip560)" d="M115.853 205.969 L123.492 205.969 L123.492 179.603 L115.182 181.27 L115.182 177.01 L123.446 175.344 L128.121 175.344 L128.121 205.969 L135.76 205.969 L135.76 209.904 L115.853 209.904 L115.853 205.969 Z" fill="#000000" fill-rule="nonzero" fill-opacity="1"></path><path clip-path="url(#clip560)" d="M155.205 178.422 Q151.594 178.422 149.765 181.987 Q147.959 185.529 147.959 192.658 Q147.959 199.765 149.765 203.33 Q151.594 206.871 155.205 206.871 Q158.839 206.871 160.644 203.33 Q162.473 199.765 162.473 192.658 Q162.473 185.529 160.644 181.987 Q158.839 178.422 155.205 178.422 M155.205 174.719 Q161.015 174.719 164.07 179.325 Q167.149 183.909 167.149 192.658 Q167.149 201.385 164.07 205.992 Q161.015 210.575 155.205 210.575 Q149.395 210.575 146.316 205.992 Q143.26 201.385 143.26 192.658 Q143.26 183.909 146.316 179.325 Q149.395 174.719 155.205 174.719 Z" fill="#000000" fill-rule="nonzero" fill-opacity="1"></path><path clip-path="url(#clip560)" d="M179.844 167.353 Q182.571 167.936 184.095 169.779 Q185.637 171.622 185.637 174.331 Q185.637 178.487 182.778 180.763 Q179.92 183.039 174.653 183.039 Q172.885 183.039 171.005 182.681 Q169.143 182.343 167.149 181.647 L167.149 177.979 Q168.729 178.901 170.61 179.371 Q172.49 179.841 174.541 179.841 Q178.114 179.841 179.976 178.431 Q181.857 177.02 181.857 174.331 Q181.857 171.848 180.108 170.456 Q178.377 169.046 175.274 169.046 L172.001 169.046 L172.001 165.924 L175.424 165.924 Q178.227 165.924 179.713 164.814 Q181.198 163.686 181.198 161.579 Q181.198 159.416 179.656 158.269 Q178.133 157.103 175.274 157.103 Q173.713 157.103 171.926 157.441 Q170.139 157.78 167.995 158.495 L167.995 155.109 Q170.158 154.507 172.039 154.206 Q173.939 153.906 175.613 153.906 Q179.938 153.906 182.459 155.88 Q184.979 157.836 184.979 161.184 Q184.979 163.516 183.643 165.134 Q182.308 166.732 179.844 167.353 Z" fill="#000000" fill-rule="nonzero" fill-opacity="1"></path><path clip-path="url(#clip560)" d="M16.4842 1064.02 L16.4842 1033.97 L21.895 1033.97 L21.895 1057.59 L35.9632 1057.59 L35.9632 1034.96 L41.3741 1034.96 L41.3741 1057.59 L58.5933 1057.59 L58.5933 1033.4 L64.0042 1033.4 L64.0042 1064.02 L16.4842 1064.02 Z" fill="#000000" fill-rule="nonzero" fill-opacity="1"></path><path clip-path="url(#clip560)" d="M28.3562 993.453 L45.7028 1006.34 L64.0042 992.785 L64.0042 999.692 L49.9996 1010.07 L64.0042 1020.44 L64.0042 1027.35 L45.3526 1013.51 L28.3562 1026.17 L28.3562 1019.27 L41.0558 1009.81 L28.3562 1000.36 L28.3562 993.453 Z" fill="#000000" fill-rule="nonzero" fill-opacity="1"></path><path clip-path="url(#clip560)" d="M44.7161 956.023 L47.5806 956.023 L47.5806 982.95 Q53.6281 982.568 56.8109 979.322 Q59.9619 976.043 59.9619 970.219 Q59.9619 966.845 59.1344 963.694 Q58.3069 960.511 56.6518 957.392 L62.1899 957.392 Q63.5267 960.543 64.227 963.853 Q64.9272 967.163 64.9272 970.569 Q64.9272 979.099 59.9619 984.096 Q54.9967 989.061 46.5303 989.061 Q37.7774 989.061 32.6531 984.35 Q27.4968 979.608 27.4968 971.587 Q27.4968 964.394 32.1438 960.224 Q36.7589 956.023 44.7161 956.023 M42.9973 961.88 Q38.1912 961.943 35.3266 964.585 Q32.4621 967.195 32.4621 971.524 Q32.4621 976.425 35.2312 979.385 Q38.0002 982.313 43.0292 982.759 L42.9973 961.88 Z" fill="#000000" fill-rule="nonzero" fill-opacity="1"></path><path clip-path="url(#clip560)" d="M29.7248 920.757 L35.1993 920.757 Q33.8307 923.24 33.1623 925.754 Q32.4621 928.237 32.4621 930.783 Q32.4621 936.48 36.0905 939.631 Q39.6872 942.782 46.212 942.782 Q52.7369 942.782 56.3653 939.631 Q59.9619 936.48 59.9619 930.783 Q59.9619 928.237 59.2935 925.754 Q58.5933 923.24 57.2247 920.757 L62.6355 920.757 Q63.7814 923.208 64.3543 925.85 Q64.9272 928.46 64.9272 931.42 Q64.9272 939.472 59.8664 944.215 Q54.8057 948.957 46.212 948.957 Q37.491 948.957 32.4939 944.183 Q27.4968 939.377 27.4968 931.038 Q27.4968 928.332 28.0697 925.754 Q28.6108 923.176 29.7248 920.757 Z" fill="#000000" fill-rule="nonzero" fill-opacity="1"></path><path clip-path="url(#clip560)" d="M49.9359 911.177 L28.3562 911.177 L28.3562 905.32 L49.7131 905.32 Q54.7739 905.32 57.3202 903.347 Q59.8346 901.373 59.8346 897.427 Q59.8346 892.684 56.8109 889.947 Q53.7872 887.178 48.5673 887.178 L28.3562 887.178 L28.3562 881.322 L64.0042 881.322 L64.0042 887.178 L58.5296 887.178 Q61.7762 889.31 63.3676 892.143 Q64.9272 894.944 64.9272 898.668 Q64.9272 904.811 61.1078 907.994 Q57.2883 911.177 49.9359 911.177 M27.4968 896.44 L27.4968 896.44 Z" fill="#000000" fill-rule="nonzero" fill-opacity="1"></path><path clip-path="url(#clip560)" d="M18.2347 863.466 L28.3562 863.466 L28.3562 851.403 L32.9077 851.403 L32.9077 863.466 L52.2594 863.466 Q56.6199 863.466 57.8613 862.288 Q59.1026 861.079 59.1026 857.418 L59.1026 851.403 L64.0042 851.403 L64.0042 857.418 Q64.0042 864.198 61.4897 866.776 Q58.9434 869.354 52.2594 869.354 L32.9077 869.354 L32.9077 873.651 L28.3562 873.651 L28.3562 869.354 L18.2347 869.354 L18.2347 863.466 Z" fill="#000000" fill-rule="nonzero" fill-opacity="1"></path><path clip-path="url(#clip560)" d="M28.3562 843.7 L28.3562 837.844 L64.0042 837.844 L64.0042 843.7 L28.3562 843.7 M14.479 843.7 L14.479 837.844 L21.895 837.844 L21.895 843.7 L14.479 843.7 Z" fill="#000000" fill-rule="nonzero" fill-opacity="1"></path><path clip-path="url(#clip560)" d="M32.4621 811.776 Q32.4621 816.487 36.1542 819.224 Q39.8145 821.961 46.212 821.961 Q52.6095 821.961 56.3017 819.256 Q59.9619 816.519 59.9619 811.776 Q59.9619 807.097 56.2698 804.36 Q52.5777 801.623 46.212 801.623 Q39.8781 801.623 36.186 804.36 Q32.4621 807.097 32.4621 811.776 M27.4968 811.776 Q27.4968 804.137 32.4621 799.777 Q37.4273 795.416 46.212 795.416 Q54.9649 795.416 59.9619 799.777 Q64.9272 804.137 64.9272 811.776 Q64.9272 819.447 59.9619 823.807 Q54.9649 828.136 46.212 828.136 Q37.4273 828.136 32.4621 823.807 Q27.4968 819.447 27.4968 811.776 Z" fill="#000000" fill-rule="nonzero" fill-opacity="1"></path><path clip-path="url(#clip560)" d="M42.4881 756.076 L64.0042 756.076 L64.0042 761.933 L42.679 761.933 Q37.6183 761.933 35.1038 763.906 Q32.5894 765.879 32.5894 769.826 Q32.5894 774.569 35.6131 777.306 Q38.6368 780.043 43.8567 780.043 L64.0042 780.043 L64.0042 785.931 L28.3562 785.931 L28.3562 780.043 L33.8944 780.043 Q30.6797 777.942 29.0883 775.11 Q27.4968 772.245 27.4968 768.521 Q27.4968 762.378 31.3163 759.227 Q35.1038 756.076 42.4881 756.076 Z" fill="#000000" fill-rule="nonzero" fill-opacity="1"></path><path clip-path="url(#clip560)" d="M16.4842 730.009 L16.4842 689.809 L21.895 689.809 L21.895 706.678 L64.0042 706.678 L64.0042 713.14 L21.895 713.14 L21.895 730.009 L16.4842 730.009 Z" fill="#000000" fill-rule="nonzero" fill-opacity="1"></path><path clip-path="url(#clip560)" d="M28.3562 685.862 L28.3562 680.006 L64.0042 680.006 L64.0042 685.862 L28.3562 685.862 M14.479 685.862 L14.479 680.006 L21.895 680.006 L21.895 685.862 L14.479 685.862 Z" fill="#000000" fill-rule="nonzero" fill-opacity="1"></path><path clip-path="url(#clip560)" d="M35.1993 639.998 Q31.2526 637.801 29.3747 634.746 Q27.4968 631.69 27.4968 627.553 Q27.4968 621.983 31.4117 618.959 Q35.2948 615.935 42.4881 615.935 L64.0042 615.935 L64.0042 621.823 L42.679 621.823 Q37.5546 621.823 35.072 623.638 Q32.5894 625.452 32.5894 629.176 Q32.5894 633.727 35.6131 636.369 Q38.6368 639.011 43.8567 639.011 L64.0042 639.011 L64.0042 644.899 L42.679 644.899 Q37.5228 644.899 35.072 646.713 Q32.5894 648.528 32.5894 652.315 Q32.5894 656.803 35.6449 659.445 Q38.6686 662.087 43.8567 662.087 L64.0042 662.087 L64.0042 667.975 L28.3562 667.975 L28.3562 662.087 L33.8944 662.087 Q30.616 660.081 29.0564 657.28 Q27.4968 654.48 27.4968 650.628 Q27.4968 646.745 29.4702 644.04 Q31.4436 641.303 35.1993 639.998 Z" fill="#000000" fill-rule="nonzero" fill-opacity="1"></path><path clip-path="url(#clip560)" d="M44.7161 573.762 L47.5806 573.762 L47.5806 600.689 Q53.6281 600.307 56.8109 597.061 Q59.9619 593.783 59.9619 587.958 Q59.9619 584.584 59.1344 581.433 Q58.3069 578.25 56.6518 575.131 L62.1899 575.131 Q63.5267 578.282 64.227 581.592 Q64.9272 584.902 64.9272 588.308 Q64.9272 596.838 59.9619 601.835 Q54.9967 606.8 46.5303 606.8 Q37.7774 606.8 32.6531 602.09 Q27.4968 597.347 27.4968 589.327 Q27.4968 582.133 32.1438 577.964 Q36.7589 573.762 44.7161 573.762 M42.9973 579.619 Q38.1912 579.682 35.3266 582.324 Q32.4621 584.934 32.4621 589.263 Q32.4621 594.164 35.2312 597.125 Q38.0002 600.053 43.0292 600.498 L42.9973 579.619 Z" fill="#000000" fill-rule="nonzero" fill-opacity="1"></path><path clip-path="url(#clip560)" d="M14.5426 529.362 Q21.8632 533.627 29.0246 535.695 Q36.186 537.764 43.5384 537.764 Q50.8908 537.764 58.1159 535.695 Q65.3091 533.595 72.5979 529.362 L72.5979 534.454 Q65.1182 539.228 57.8931 541.616 Q50.668 543.971 43.5384 543.971 Q36.4406 543.971 29.2474 541.616 Q22.0542 539.26 14.5426 534.454 L14.5426 529.362 Z" fill="#000000" fill-rule="nonzero" fill-opacity="1"></path><path clip-path="url(#clip560)" d="M29.4065 495.273 L34.9447 495.273 Q33.6716 497.756 33.035 500.429 Q32.3984 503.103 32.3984 505.968 Q32.3984 510.328 33.7352 512.524 Q35.072 514.689 37.7456 514.689 Q39.7826 514.689 40.9603 513.129 Q42.1061 511.569 43.1565 506.859 L43.6021 504.854 Q44.9389 498.615 47.3897 496.005 Q49.8086 493.364 54.1691 493.364 Q59.1344 493.364 62.0308 497.31 Q64.9272 501.225 64.9272 508.1 Q64.9272 510.965 64.3543 514.084 Q63.8132 517.171 62.6992 520.609 L56.6518 520.609 Q58.3387 517.362 59.198 514.211 Q60.0256 511.06 60.0256 507.973 Q60.0256 503.835 58.6251 501.607 Q57.1929 499.379 54.6147 499.379 Q52.2276 499.379 50.9545 501.002 Q49.6813 502.594 48.5037 508.036 L48.0262 510.073 Q46.8804 515.516 44.5251 517.935 Q42.138 520.354 38.0002 520.354 Q32.9713 520.354 30.2341 516.789 Q27.4968 513.225 27.4968 506.668 Q27.4968 503.421 27.9743 500.557 Q28.4517 497.692 29.4065 495.273 Z" fill="#000000" fill-rule="nonzero" fill-opacity="1"></path><path clip-path="url(#clip560)" d="M14.5426 484.961 L14.5426 479.868 Q22.0542 475.094 29.2474 472.739 Q36.4406 470.351 43.5384 470.351 Q50.668 470.351 57.8931 472.739 Q65.1182 475.094 72.5979 479.868 L72.5979 484.961 Q65.3091 480.728 58.1159 478.659 Q50.8908 476.558 43.5384 476.558 Q36.186 476.558 29.0246 478.659 Q21.8632 480.728 14.5426 484.961 Z" fill="#000000" fill-rule="nonzero" fill-opacity="1"></path><path clip-path="url(#clip560)" d="M563.138 12.096 L601.378 12.096 L601.378 18.9825 L571.321 18.9825 L571.321 36.8875 L600.123 36.8875 L600.123 43.7741 L571.321 43.7741 L571.321 65.6895 L602.108 65.6895 L602.108 72.576 L563.138 72.576 L563.138 12.096 Z" fill="#000000" fill-rule="nonzero" fill-opacity="1"></path><path clip-path="url(#clip560)" d="M652.946 27.2059 L636.54 49.2833 L653.797 72.576 L645.007 72.576 L631.801 54.752 L618.595 72.576 L609.804 72.576 L627.426 48.8377 L611.303 27.2059 L620.094 27.2059 L632.125 43.369 L644.156 27.2059 L652.946 27.2059 Z" fill="#000000" fill-rule="nonzero" fill-opacity="1"></path><path clip-path="url(#clip560)" d="M700.585 48.0275 L700.585 51.6733 L666.314 51.6733 Q666.801 59.3701 670.932 63.421 Q675.105 67.4314 682.518 67.4314 Q686.812 67.4314 690.822 66.3781 Q694.873 65.3249 698.843 63.2184 L698.843 70.267 Q694.833 71.9684 690.62 72.8596 Q686.407 73.7508 682.072 73.7508 Q671.216 73.7508 664.856 67.4314 Q658.537 61.1119 658.537 50.3365 Q658.537 39.1965 664.532 32.6746 Q670.568 26.1121 680.776 26.1121 Q689.931 26.1121 695.238 32.0264 Q700.585 37.9003 700.585 48.0275 M693.131 45.84 Q693.05 39.7232 689.688 36.0774 Q686.366 32.4315 680.857 32.4315 Q674.619 32.4315 670.851 35.9558 Q667.125 39.4801 666.557 45.8805 L693.131 45.84 Z" fill="#000000" fill-rule="nonzero" fill-opacity="1"></path><path clip-path="url(#clip560)" d="M745.469 28.9478 L745.469 35.9153 Q742.309 34.1734 739.109 33.3227 Q735.949 32.4315 732.709 32.4315 Q725.458 32.4315 721.447 37.0496 Q717.437 41.6271 717.437 49.9314 Q717.437 58.2358 721.447 62.8538 Q725.458 67.4314 732.709 67.4314 Q735.949 67.4314 739.109 66.5807 Q742.309 65.6895 745.469 63.9476 L745.469 70.8341 Q742.35 72.2924 738.988 73.0216 Q735.666 73.7508 731.899 73.7508 Q721.65 73.7508 715.614 67.3098 Q709.578 60.8689 709.578 49.9314 Q709.578 38.832 715.654 32.472 Q721.771 26.1121 732.385 26.1121 Q735.828 26.1121 739.109 26.8413 Q742.39 27.5299 745.469 28.9478 Z" fill="#000000" fill-rule="nonzero" fill-opacity="1"></path><path clip-path="url(#clip560)" d="M757.662 54.671 L757.662 27.2059 L765.116 27.2059 L765.116 54.3874 Q765.116 60.8284 767.628 64.0691 Q770.139 67.2693 775.162 67.2693 Q781.198 67.2693 784.682 63.421 Q788.206 59.5726 788.206 52.9291 L788.206 27.2059 L795.66 27.2059 L795.66 72.576 L788.206 72.576 L788.206 65.6084 Q785.492 69.7404 781.887 71.7658 Q778.322 73.7508 773.582 73.7508 Q765.764 73.7508 761.713 68.8897 Q757.662 64.0286 757.662 54.671 M776.418 26.1121 L776.418 26.1121 Z" fill="#000000" fill-rule="nonzero" fill-opacity="1"></path><path clip-path="url(#clip560)" d="M818.385 14.324 L818.385 27.2059 L833.738 27.2059 L833.738 32.9987 L818.385 32.9987 L818.385 57.6282 Q818.385 63.1779 819.884 64.7578 Q821.424 66.3376 826.082 66.3376 L833.738 66.3376 L833.738 72.576 L826.082 72.576 Q817.454 72.576 814.172 69.3758 Q810.891 66.1351 810.891 57.6282 L810.891 32.9987 L805.422 32.9987 L805.422 27.2059 L810.891 27.2059 L810.891 14.324 L818.385 14.324 Z" fill="#000000" fill-rule="nonzero" fill-opacity="1"></path><path clip-path="url(#clip560)" d="M843.541 27.2059 L850.995 27.2059 L850.995 72.576 L843.541 72.576 L843.541 27.2059 M843.541 9.54393 L850.995 9.54393 L850.995 18.9825 L843.541 18.9825 L843.541 9.54393 Z" fill="#000000" fill-rule="nonzero" fill-opacity="1"></path><path clip-path="url(#clip560)" d="M884.172 32.4315 Q878.177 32.4315 874.693 37.1306 Q871.209 41.7891 871.209 49.9314 Q871.209 58.0738 874.652 62.7728 Q878.136 67.4314 884.172 67.4314 Q890.127 67.4314 893.611 62.7323 Q897.094 58.0333 897.094 49.9314 Q897.094 41.8701 893.611 37.1711 Q890.127 32.4315 884.172 32.4315 M884.172 26.1121 Q893.894 26.1121 899.444 32.4315 Q904.994 38.7509 904.994 49.9314 Q904.994 61.0714 899.444 67.4314 Q893.894 73.7508 884.172 73.7508 Q874.409 73.7508 868.86 67.4314 Q863.35 61.0714 863.35 49.9314 Q863.35 38.7509 868.86 32.4315 Q874.409 26.1121 884.172 26.1121 Z" fill="#000000" fill-rule="nonzero" fill-opacity="1"></path><path clip-path="url(#clip560)" d="M955.063 45.1919 L955.063 72.576 L947.609 72.576 L947.609 45.4349 Q947.609 38.994 945.098 35.7938 Q942.586 32.5936 937.563 32.5936 Q931.527 32.5936 928.043 36.4419 Q924.56 40.2903 924.56 46.9338 L924.56 72.576 L917.065 72.576 L917.065 27.2059 L924.56 27.2059 L924.56 34.2544 Q927.233 30.163 930.838 28.1376 Q934.484 26.1121 939.224 26.1121 Q947.042 26.1121 951.052 30.9732 Q955.063 35.7938 955.063 45.1919 Z" fill="#000000" fill-rule="nonzero" fill-opacity="1"></path><path clip-path="url(#clip560)" d="M988.24 12.096 L1039.4 12.096 L1039.4 18.9825 L1017.93 18.9825 L1017.93 72.576 L1009.71 72.576 L1009.71 18.9825 L988.24 18.9825 L988.24 12.096 Z" fill="#000000" fill-rule="nonzero" fill-opacity="1"></path><path clip-path="url(#clip560)" d="M1044.43 27.2059 L1051.88 27.2059 L1051.88 72.576 L1044.43 72.576 L1044.43 27.2059 M1044.43 9.54393 L1051.88 9.54393 L1051.88 18.9825 L1044.43 18.9825 L1044.43 9.54393 Z" fill="#000000" fill-rule="nonzero" fill-opacity="1"></path><path clip-path="url(#clip560)" d="M1102.8 35.9153 Q1105.59 30.8922 1109.48 28.5022 Q1113.37 26.1121 1118.64 26.1121 Q1125.73 26.1121 1129.58 31.0947 Q1133.42 36.0368 1133.42 45.1919 L1133.42 72.576 L1125.93 72.576 L1125.93 45.4349 Q1125.93 38.913 1123.62 35.7533 Q1121.31 32.5936 1116.57 32.5936 Q1110.78 32.5936 1107.42 36.4419 Q1104.06 40.2903 1104.06 46.9338 L1104.06 72.576 L1096.56 72.576 L1096.56 45.4349 Q1096.56 38.8725 1094.25 35.7533 Q1091.94 32.5936 1087.12 32.5936 Q1081.41 32.5936 1078.05 36.4824 Q1074.69 40.3308 1074.69 46.9338 L1074.69 72.576 L1067.19 72.576 L1067.19 27.2059 L1074.69 27.2059 L1074.69 34.2544 Q1077.24 30.082 1080.8 28.0971 Q1084.37 26.1121 1089.27 26.1121 Q1094.21 26.1121 1097.65 28.6237 Q1101.14 31.1352 1102.8 35.9153 Z" fill="#000000" fill-rule="nonzero" fill-opacity="1"></path><path clip-path="url(#clip560)" d="M1187.1 48.0275 L1187.1 51.6733 L1152.83 51.6733 Q1153.31 59.3701 1157.45 63.421 Q1161.62 67.4314 1169.03 67.4314 Q1173.33 67.4314 1177.34 66.3781 Q1181.39 65.3249 1185.36 63.2184 L1185.36 70.267 Q1181.35 71.9684 1177.13 72.8596 Q1172.92 73.7508 1168.59 73.7508 Q1157.73 73.7508 1151.37 67.4314 Q1145.05 61.1119 1145.05 50.3365 Q1145.05 39.1965 1151.05 32.6746 Q1157.08 26.1121 1167.29 26.1121 Q1176.44 26.1121 1181.75 32.0264 Q1187.1 37.9003 1187.1 48.0275 M1179.64 45.84 Q1179.56 39.7232 1176.2 36.0774 Q1172.88 32.4315 1167.37 32.4315 Q1161.13 32.4315 1157.37 35.9558 Q1153.64 39.4801 1153.07 45.8805 L1179.64 45.84 Z" fill="#000000" fill-rule="nonzero" fill-opacity="1"></path><path clip-path="url(#clip560)" d="M1220.36 27.2059 L1228.26 27.2059 L1242.43 65.2844 L1256.61 27.2059 L1264.51 27.2059 L1247.5 72.576 L1237.37 72.576 L1220.36 27.2059 Z" fill="#000000" fill-rule="nonzero" fill-opacity="1"></path><path clip-path="url(#clip560)" d="M1303.72 28.5427 L1303.72 35.5912 Q1300.56 33.9709 1297.16 33.1607 Q1293.76 32.3505 1290.11 32.3505 Q1284.56 32.3505 1281.77 34.0519 Q1279.01 35.7533 1279.01 39.156 Q1279.01 41.7486 1281 43.2475 Q1282.98 44.7058 1288.98 46.0426 L1291.53 46.6097 Q1299.47 48.3111 1302.79 51.4303 Q1306.15 54.509 1306.15 60.0587 Q1306.15 66.3781 1301.13 70.0644 Q1296.15 73.7508 1287.4 73.7508 Q1283.75 73.7508 1279.78 73.0216 Q1275.85 72.3329 1271.48 70.9151 L1271.48 63.2184 Q1275.61 65.3654 1279.62 66.4591 Q1283.63 67.5124 1287.56 67.5124 Q1292.83 67.5124 1295.66 65.73 Q1298.5 63.9071 1298.5 60.6258 Q1298.5 57.5877 1296.43 55.9673 Q1294.41 54.3469 1287.48 52.8481 L1284.89 52.2405 Q1277.96 50.7821 1274.88 47.7845 Q1271.8 44.7463 1271.8 39.4801 Q1271.8 33.0797 1276.34 29.5959 Q1280.88 26.1121 1289.22 26.1121 Q1293.35 26.1121 1297 26.7198 Q1300.65 27.3274 1303.72 28.5427 Z" fill="#000000" fill-rule="nonzero" fill-opacity="1"></path><path clip-path="url(#clip560)" d="M1344.72 12.096 L1355.74 12.096 L1382.55 62.6918 L1382.55 12.096 L1390.49 12.096 L1390.49 72.576 L1379.48 72.576 L1352.66 21.9802 L1352.66 72.576 L1344.72 72.576 L1344.72 12.096 Z" fill="#000000" fill-rule="nonzero" fill-opacity="1"></path><path clip-path="url(#clip560)" d="M1405.69 54.671 L1405.69 27.2059 L1413.14 27.2059 L1413.14 54.3874 Q1413.14 60.8284 1415.65 64.0691 Q1418.16 67.2693 1423.19 67.2693 Q1429.22 67.2693 1432.7 63.421 Q1436.23 59.5726 1436.23 52.9291 L1436.23 27.2059 L1443.68 27.2059 L1443.68 72.576 L1436.23 72.576 L1436.23 65.6084 Q1433.52 69.7404 1429.91 71.7658 Q1426.35 73.7508 1421.61 73.7508 Q1413.79 73.7508 1409.74 68.8897 Q1405.69 64.0286 1405.69 54.671 M1424.44 26.1121 L1424.44 26.1121 Z" fill="#000000" fill-rule="nonzero" fill-opacity="1"></path><path clip-path="url(#clip560)" d="M1494.36 35.9153 Q1497.15 30.8922 1501.04 28.5022 Q1504.93 26.1121 1510.2 26.1121 Q1517.29 26.1121 1521.14 31.0947 Q1524.98 36.0368 1524.98 45.1919 L1524.98 72.576 L1517.49 72.576 L1517.49 45.4349 Q1517.49 38.913 1515.18 35.7533 Q1512.87 32.5936 1508.13 32.5936 Q1502.34 32.5936 1498.98 36.4419 Q1495.62 40.2903 1495.62 46.9338 L1495.62 72.576 L1488.12 72.576 L1488.12 45.4349 Q1488.12 38.8725 1485.81 35.7533 Q1483.5 32.5936 1478.68 32.5936 Q1472.97 32.5936 1469.61 36.4824 Q1466.25 40.3308 1466.25 46.9338 L1466.25 72.576 L1458.75 72.576 L1458.75 27.2059 L1466.25 27.2059 L1466.25 34.2544 Q1468.8 30.082 1472.36 28.0971 Q1475.93 26.1121 1480.83 26.1121 Q1485.77 26.1121 1489.22 28.6237 Q1492.7 31.1352 1494.36 35.9153 Z" fill="#000000" fill-rule="nonzero" fill-opacity="1"></path><path clip-path="url(#clip560)" d="M1572.42 49.9314 Q1572.42 41.7081 1569.02 37.0496 Q1565.66 32.3505 1559.74 32.3505 Q1553.83 32.3505 1550.42 37.0496 Q1547.06 41.7081 1547.06 49.9314 Q1547.06 58.1548 1550.42 62.8538 Q1553.83 67.5124 1559.74 67.5124 Q1565.66 67.5124 1569.02 62.8538 Q1572.42 58.1548 1572.42 49.9314 M1547.06 34.0924 Q1549.41 30.0415 1552.98 28.0971 Q1556.58 26.1121 1561.56 26.1121 Q1569.83 26.1121 1574.97 32.6746 Q1580.16 39.2371 1580.16 49.9314 Q1580.16 60.6258 1574.97 67.1883 Q1569.83 73.7508 1561.56 73.7508 Q1556.58 73.7508 1552.98 71.8063 Q1549.41 69.8214 1547.06 65.7705 L1547.06 72.576 L1539.57 72.576 L1539.57 9.54393 L1547.06 9.54393 L1547.06 34.0924 Z" fill="#000000" fill-rule="nonzero" fill-opacity="1"></path><path clip-path="url(#clip560)" d="M1631.32 48.0275 L1631.32 51.6733 L1597.05 51.6733 Q1597.54 59.3701 1601.67 63.421 Q1605.84 67.4314 1613.25 67.4314 Q1617.55 67.4314 1621.56 66.3781 Q1625.61 65.3249 1629.58 63.2184 L1629.58 70.267 Q1625.57 71.9684 1621.36 72.8596 Q1617.14 73.7508 1612.81 73.7508 Q1601.95 73.7508 1595.59 67.4314 Q1589.27 61.1119 1589.27 50.3365 Q1589.27 39.1965 1595.27 32.6746 Q1601.3 26.1121 1611.51 26.1121 Q1620.67 26.1121 1625.97 32.0264 Q1631.32 37.9003 1631.32 48.0275 M1623.87 45.84 Q1623.79 39.7232 1620.42 36.0774 Q1617.1 32.4315 1611.59 32.4315 Q1605.35 32.4315 1601.59 35.9558 Q1597.86 39.4801 1597.29 45.8805 L1623.87 45.84 Z" fill="#000000" fill-rule="nonzero" fill-opacity="1"></path><path clip-path="url(#clip560)" d="M1669.84 34.1734 Q1668.59 33.4443 1667.09 33.1202 Q1665.63 32.7556 1663.85 32.7556 Q1657.53 32.7556 1654.13 36.8875 Q1650.77 40.9789 1650.77 48.6757 L1650.77 72.576 L1643.27 72.576 L1643.27 27.2059 L1650.77 27.2059 L1650.77 34.2544 Q1653.11 30.1225 1656.88 28.1376 Q1660.65 26.1121 1666.04 26.1121 Q1666.81 26.1121 1667.74 26.2337 Q1668.67 26.3147 1669.8 26.5172 L1669.84 34.1734 Z" fill="#000000" fill-rule="nonzero" fill-opacity="1"></path><path clip-path="url(#clip560)" d="M1721.62 32.4315 Q1715.62 32.4315 1712.14 37.1306 Q1708.65 41.7891 1708.65 49.9314 Q1708.65 58.0738 1712.1 62.7728 Q1715.58 67.4314 1721.62 67.4314 Q1727.57 67.4314 1731.05 62.7323 Q1734.54 58.0333 1734.54 49.9314 Q1734.54 41.8701 1731.05 37.1711 Q1727.57 32.4315 1721.62 32.4315 M1721.62 26.1121 Q1731.34 26.1121 1736.89 32.4315 Q1742.44 38.7509 1742.44 49.9314 Q1742.44 61.0714 1736.89 67.4314 Q1731.34 73.7508 1721.62 73.7508 Q1711.85 73.7508 1706.3 67.4314 Q1700.79 61.0714 1700.79 49.9314 Q1700.79 38.7509 1706.3 32.4315 Q1711.85 26.1121 1721.62 26.1121 Z" fill="#000000" fill-rule="nonzero" fill-opacity="1"></path><path clip-path="url(#clip560)" d="M1777.76 9.54393 L1777.76 15.7418 L1770.63 15.7418 Q1766.62 15.7418 1765.04 17.3622 Q1763.5 18.9825 1763.5 23.1955 L1763.5 27.2059 L1775.78 27.2059 L1775.78 32.9987 L1763.5 32.9987 L1763.5 72.576 L1756.01 72.576 L1756.01 32.9987 L1748.88 32.9987 L1748.88 27.2059 L1756.01 27.2059 L1756.01 24.0462 Q1756.01 16.471 1759.53 13.0277 Q1763.06 9.54393 1770.71 9.54393 L1777.76 9.54393 Z" fill="#000000" fill-rule="nonzero" fill-opacity="1"></path><path clip-path="url(#clip560)" d="M1802.31 12.096 L1853.47 12.096 L1853.47 18.9825 L1832 18.9825 L1832 72.576 L1823.78 72.576 L1823.78 18.9825 L1802.31 18.9825 L1802.31 12.096 Z" fill="#000000" fill-rule="nonzero" fill-opacity="1"></path><path clip-path="url(#clip560)" d="M1875.14 34.1734 Q1873.89 33.4443 1872.39 33.1202 Q1870.93 32.7556 1869.15 32.7556 Q1862.83 32.7556 1859.43 36.8875 Q1856.06 40.9789 1856.06 48.6757 L1856.06 72.576 L1848.57 72.576 L1848.57 27.2059 L1856.06 27.2059 L1856.06 34.2544 Q1858.41 30.1225 1862.18 28.1376 Q1865.95 26.1121 1871.34 26.1121 Q1872.11 26.1121 1873.04 26.2337 Q1873.97 26.3147 1875.1 26.5172 L1875.14 34.1734 Z" fill="#000000" fill-rule="nonzero" fill-opacity="1"></path><path clip-path="url(#clip560)" d="M1882.96 27.2059 L1890.42 27.2059 L1890.42 72.576 L1882.96 72.576 L1882.96 27.2059 M1882.96 9.54393 L1890.42 9.54393 L1890.42 18.9825 L1882.96 18.9825 L1882.96 9.54393 Z" fill="#000000" fill-rule="nonzero" fill-opacity="1"></path><path clip-path="url(#clip560)" d="M1926.63 49.7694 Q1917.6 49.7694 1914.11 51.8354 Q1910.63 53.9013 1910.63 58.8839 Q1910.63 62.8538 1913.22 65.2034 Q1915.86 67.5124 1920.35 67.5124 Q1926.55 67.5124 1930.28 63.1374 Q1934.04 58.7219 1934.04 51.4303 L1934.04 49.7694 L1926.63 49.7694 M1941.5 46.6907 L1941.5 72.576 L1934.04 72.576 L1934.04 65.6895 Q1931.49 69.8214 1927.68 71.8063 Q1923.88 73.7508 1918.37 73.7508 Q1911.4 73.7508 1907.27 69.8619 Q1903.18 65.9325 1903.18 59.3701 Q1903.18 51.7138 1908.28 47.825 Q1913.43 43.9361 1923.59 43.9361 L1934.04 43.9361 L1934.04 43.2069 Q1934.04 38.0623 1930.64 35.2672 Q1927.28 32.4315 1921.16 32.4315 Q1917.27 32.4315 1913.59 33.3632 Q1909.9 34.295 1906.5 36.1584 L1906.5 29.2718 Q1910.59 27.692 1914.44 26.9223 Q1918.29 26.1121 1921.93 26.1121 Q1931.78 26.1121 1936.64 31.2163 Q1941.5 36.3204 1941.5 46.6907 Z" fill="#000000" fill-rule="nonzero" fill-opacity="1"></path><path clip-path="url(#clip560)" d="M1956.85 9.54393 L1964.31 9.54393 L1964.31 72.576 L1956.85 72.576 L1956.85 9.54393 Z" fill="#000000" fill-rule="nonzero" fill-opacity="1"></path><path clip-path="url(#clip560)" d="M2008.82 28.5427 L2008.82 35.5912 Q2005.66 33.9709 2002.26 33.1607 Q1998.86 32.3505 1995.21 32.3505 Q1989.66 32.3505 1986.87 34.0519 Q1984.11 35.7533 1984.11 39.156 Q1984.11 41.7486 1986.1 43.2475 Q1988.08 44.7058 1994.08 46.0426 L1996.63 46.6097 Q2004.57 48.3111 2007.89 51.4303 Q2011.26 54.509 2011.26 60.0587 Q2011.26 66.3781 2006.23 70.0644 Q2001.25 73.7508 1992.5 73.7508 Q1988.85 73.7508 1984.88 73.0216 Q1980.95 72.3329 1976.58 70.9151 L1976.58 63.2184 Q1980.71 65.3654 1984.72 66.4591 Q1988.73 67.5124 1992.66 67.5124 Q1997.93 67.5124 2000.76 65.73 Q2003.6 63.9071 2003.6 60.6258 Q2003.6 57.5877 2001.53 55.9673 Q1999.51 54.3469 1992.58 52.8481 L1989.99 52.2405 Q1983.06 50.7821 1979.98 47.7845 Q1976.9 44.7463 1976.9 39.4801 Q1976.9 33.0797 1981.44 29.5959 Q1985.98 26.1121 1994.32 26.1121 Q1998.45 26.1121 2002.1 26.7198 Q2005.75 27.3274 2008.82 28.5427 Z" fill="#000000" fill-rule="nonzero" fill-opacity="1"></path><polyline clip-path="url(#clip562)" style="stroke:#0000ff; stroke-linecap:round; stroke-linejoin:round; stroke-width:12; stroke-opacity:1; fill:none" points="281.952,1374.46 784.574,1091.56 1287.2,772.389 1789.82,461.543 2292.44,159.909 "></polyline>
<circle clip-path="url(#clip562)" cx="281.952" cy="1374.46" r="14.4" fill="#0000ff" fill-rule="evenodd" fill-opacity="1" stroke="#000000" stroke-opacity="1" stroke-width="3.2"></circle>
<circle clip-path="url(#clip562)" cx="784.574" cy="1091.56" r="14.4" fill="#0000ff" fill-rule="evenodd" fill-opacity="1" stroke="#000000" stroke-opacity="1" stroke-width="3.2"></circle>
<circle clip-path="url(#clip562)" cx="1287.2" cy="772.389" r="14.4" fill="#0000ff" fill-rule="evenodd" fill-opacity="1" stroke="#000000" stroke-opacity="1" stroke-width="3.2"></circle>
<circle clip-path="url(#clip562)" cx="1789.82" cy="461.543" r="14.4" fill="#0000ff" fill-rule="evenodd" fill-opacity="1" stroke="#000000" stroke-opacity="1" stroke-width="3.2"></circle>
<circle clip-path="url(#clip562)" cx="2292.44" cy="159.909" r="14.4" fill="#0000ff" fill-rule="evenodd" fill-opacity="1" stroke="#000000" stroke-opacity="1" stroke-width="3.2"></circle>
<circle clip-path="url(#clip562)" cx="281.952" cy="1374.46" r="10.8" fill="#0000ff" fill-rule="evenodd" fill-opacity="1" stroke="#000000" stroke-opacity="1" stroke-width="3.2"></circle>
<circle clip-path="url(#clip562)" cx="784.574" cy="1091.56" r="10.8" fill="#0000ff" fill-rule="evenodd" fill-opacity="1" stroke="#000000" stroke-opacity="1" stroke-width="3.2"></circle>
<circle clip-path="url(#clip562)" cx="1287.2" cy="772.389" r="10.8" fill="#0000ff" fill-rule="evenodd" fill-opacity="1" stroke="#000000" stroke-opacity="1" stroke-width="3.2"></circle>
<circle clip-path="url(#clip562)" cx="1789.82" cy="461.543" r="10.8" fill="#0000ff" fill-rule="evenodd" fill-opacity="1" stroke="#000000" stroke-opacity="1" stroke-width="3.2"></circle>
<circle clip-path="url(#clip562)" cx="2292.44" cy="159.909" r="10.8" fill="#0000ff" fill-rule="evenodd" fill-opacity="1" stroke="#000000" stroke-opacity="1" stroke-width="3.2"></circle>
</svg>