<?xml version="1.0" encoding="utf-8"?>
<svg xmlns="http://www.w3.org/2000/svg" xmlns:xlink="http://www.w3.org/1999/xlink" width="600" height="400" viewBox="0 0 2400 1600">
<defs>
  <clipPath id="clip060">
    <rect x="0" y="0" width="2400" height="1600"/>
  </clipPath>
</defs>
<path clip-path="url(#clip060)" d="M0 1600 L2400 1600 L2400 8.88178e-14 L0 8.88178e-14  Z" fill="#ffffff" fill-rule="evenodd" fill-opacity="1"/>
<defs>
  <clipPath id="clip061">
    <rect x="480" y="0" width="1681" height="1600"/>
  </clipPath>
</defs>
<path clip-path="url(#clip060)" d="M249.542 1423.18 L2352.76 1423.18 L2352.76 123.472 L249.542 123.472  Z" fill="#ffffff" fill-rule="evenodd" fill-opacity="1"/>
<defs>
  <clipPath id="clip062">
    <rect x="249" y="123" width="2104" height="1301"/>
  </clipPath>
</defs>
<polyline clip-path="url(#clip062)" style="stroke:#000000; stroke-linecap:round; stroke-linejoin:round; stroke-width:2; stroke-opacity:0.1; fill:none" points="288.181,1423.18 288.181,123.472 "/>
<polyline clip-path="url(#clip062)" style="stroke:#000000; stroke-linecap:round; stroke-linejoin:round; stroke-width:2; stroke-opacity:0.1; fill:none" points="705.9,1423.18 705.9,123.472 "/>
<polyline clip-path="url(#clip062)" style="stroke:#000000; stroke-linecap:round; stroke-linejoin:round; stroke-width:2; stroke-opacity:0.1; fill:none" points="1123.62,1423.18 1123.62,123.472 "/>
<polyline clip-path="url(#clip062)" style="stroke:#000000; stroke-linecap:round; stroke-linejoin:round; stroke-width:2; stroke-opacity:0.1; fill:none" points="1541.34,1423.18 1541.34,123.472 "/>
<polyline clip-path="url(#clip062)" style="stroke:#000000; stroke-linecap:round; stroke-linejoin:round; stroke-width:2; stroke-opacity:0.1; fill:none" points="1959.06,1423.18 1959.06,123.472 "/>
<polyline clip-path="url(#clip060)" style="stroke:#000000; stroke-linecap:round; stroke-linejoin:round; stroke-width:4; stroke-opacity:1; fill:none" points="249.542,1423.18 2352.76,1423.18 "/>
<polyline clip-path="url(#clip060)" style="stroke:#000000; stroke-linecap:round; stroke-linejoin:round; stroke-width:4; stroke-opacity:1; fill:none" points="288.181,1423.18 288.181,1404.28 "/>
<polyline clip-path="url(#clip060)" style="stroke:#000000; stroke-linecap:round; stroke-linejoin:round; stroke-width:4; stroke-opacity:1; fill:none" points="705.9,1423.18 705.9,1404.28 "/>
<polyline clip-path="url(#clip060)" style="stroke:#000000; stroke-linecap:round; stroke-linejoin:round; stroke-width:4; stroke-opacity:1; fill:none" points="1123.62,1423.18 1123.62,1404.28 "/>
<polyline clip-path="url(#clip060)" style="stroke:#000000; stroke-linecap:round; stroke-linejoin:round; stroke-width:4; stroke-opacity:1; fill:none" points="1541.34,1423.18 1541.34,1404.28 "/>
<polyline clip-path="url(#clip060)" style="stroke:#000000; stroke-linecap:round; stroke-linejoin:round; stroke-width:4; stroke-opacity:1; fill:none" points="1959.06,1423.18 1959.06,1404.28 "/>
<path clip-path="url(#clip060)" d="M288.181 1454.1 Q284.57 1454.1 282.741 1457.66 Q280.936 1461.2 280.936 1468.33 Q280.936 1475.44 282.741 1479.01 Q284.57 1482.55 288.181 1482.55 Q291.815 1482.55 293.621 1479.01 Q295.449 1475.44 295.449 1468.33 Q295.449 1461.2 293.621 1457.66 Q291.815 1454.1 288.181 1454.1 M288.181 1450.39 Q293.991 1450.39 297.047 1455 Q300.125 1459.58 300.125 1468.33 Q300.125 1477.06 297.047 1481.67 Q293.991 1486.25 288.181 1486.25 Q282.371 1486.25 279.292 1481.67 Q276.237 1477.06 276.237 1468.33 Q276.237 1459.58 279.292 1455 Q282.371 1450.39 288.181 1450.39 Z" fill="#000000" fill-rule="nonzero" fill-opacity="1" /><path clip-path="url(#clip060)" d="M684.673 1481.64 L700.992 1481.64 L700.992 1485.58 L679.048 1485.58 L679.048 1481.64 Q681.71 1478.89 686.293 1474.26 Q690.9 1469.61 692.08 1468.27 Q694.326 1465.74 695.205 1464.01 Q696.108 1462.25 696.108 1460.56 Q696.108 1457.8 694.164 1456.07 Q692.242 1454.33 689.141 1454.33 Q686.942 1454.33 684.488 1455.09 Q682.057 1455.86 679.28 1457.41 L679.28 1452.69 Q682.104 1451.55 684.557 1450.97 Q687.011 1450.39 689.048 1450.39 Q694.418 1450.39 697.613 1453.08 Q700.807 1455.77 700.807 1460.26 Q700.807 1462.39 699.997 1464.31 Q699.21 1466.2 697.104 1468.8 Q696.525 1469.47 693.423 1472.69 Q690.321 1475.88 684.673 1481.64 Z" fill="#000000" fill-rule="nonzero" fill-opacity="1" /><path clip-path="url(#clip060)" d="M720.807 1454.1 Q717.196 1454.1 715.367 1457.66 Q713.562 1461.2 713.562 1468.33 Q713.562 1475.44 715.367 1479.01 Q717.196 1482.55 720.807 1482.55 Q724.441 1482.55 726.247 1479.01 Q728.076 1475.44 728.076 1468.33 Q728.076 1461.2 726.247 1457.66 Q724.441 1454.1 720.807 1454.1 M720.807 1450.39 Q726.617 1450.39 729.673 1455 Q732.751 1459.58 732.751 1468.33 Q732.751 1477.06 729.673 1481.67 Q726.617 1486.25 720.807 1486.25 Q714.997 1486.25 711.918 1481.67 Q708.863 1477.06 708.863 1468.33 Q708.863 1459.58 711.918 1455 Q714.997 1450.39 720.807 1450.39 Z" fill="#000000" fill-rule="nonzero" fill-opacity="1" /><path clip-path="url(#clip060)" d="M1111.79 1455.09 L1099.98 1473.54 L1111.79 1473.54 L1111.79 1455.09 M1110.56 1451.02 L1116.44 1451.02 L1116.44 1473.54 L1121.37 1473.54 L1121.37 1477.43 L1116.44 1477.43 L1116.44 1485.58 L1111.79 1485.58 L1111.79 1477.43 L1096.19 1477.43 L1096.19 1472.92 L1110.56 1451.02 Z" fill="#000000" fill-rule="nonzero" fill-opacity="1" /><path clip-path="url(#clip060)" d="M1139.1 1454.1 Q1135.49 1454.1 1133.66 1457.66 Q1131.86 1461.2 1131.86 1468.33 Q1131.86 1475.44 1133.66 1479.01 Q1135.49 1482.55 1139.1 1482.55 Q1142.74 1482.55 1144.54 1479.01 Q1146.37 1475.44 1146.37 1468.33 Q1146.37 1461.2 1144.54 1457.66 Q1142.74 1454.1 1139.1 1454.1 M1139.1 1450.39 Q1144.91 1450.39 1147.97 1455 Q1151.05 1459.58 1151.05 1468.33 Q1151.05 1477.06 1147.97 1481.67 Q1144.91 1486.25 1139.1 1486.25 Q1133.29 1486.25 1130.22 1481.67 Q1127.16 1477.06 1127.16 1468.33 Q1127.16 1459.58 1130.22 1455 Q1133.29 1450.39 1139.1 1450.39 Z" fill="#000000" fill-rule="nonzero" fill-opacity="1" /><path clip-path="url(#clip060)" d="M1526.74 1466.44 Q1523.59 1466.44 1521.74 1468.59 Q1519.91 1470.74 1519.91 1474.49 Q1519.91 1478.22 1521.74 1480.39 Q1523.59 1482.55 1526.74 1482.55 Q1529.89 1482.55 1531.72 1480.39 Q1533.57 1478.22 1533.57 1474.49 Q1533.57 1470.74 1531.72 1468.59 Q1529.89 1466.44 1526.74 1466.44 M1536.02 1451.78 L1536.02 1456.04 Q1534.27 1455.21 1532.46 1454.77 Q1530.68 1454.33 1528.92 1454.33 Q1524.29 1454.33 1521.84 1457.45 Q1519.4 1460.58 1519.06 1466.9 Q1520.42 1464.89 1522.48 1463.82 Q1524.54 1462.73 1527.02 1462.73 Q1532.23 1462.73 1535.24 1465.9 Q1538.27 1469.05 1538.27 1474.49 Q1538.27 1479.82 1535.12 1483.03 Q1531.97 1486.25 1526.74 1486.25 Q1520.75 1486.25 1517.58 1481.67 Q1514.4 1477.06 1514.4 1468.33 Q1514.4 1460.14 1518.29 1455.28 Q1522.18 1450.39 1528.73 1450.39 Q1530.49 1450.39 1532.27 1450.74 Q1534.08 1451.09 1536.02 1451.78 Z" fill="#000000" fill-rule="nonzero" fill-opacity="1" /><path clip-path="url(#clip060)" d="M1556.33 1454.1 Q1552.71 1454.1 1550.89 1457.66 Q1549.08 1461.2 1549.08 1468.33 Q1549.08 1475.44 1550.89 1479.01 Q1552.71 1482.55 1556.33 1482.55 Q1559.96 1482.55 1561.77 1479.01 Q1563.59 1475.44 1563.59 1468.33 Q1563.59 1461.2 1561.77 1457.66 Q1559.96 1454.1 1556.33 1454.1 M1556.33 1450.39 Q1562.14 1450.39 1565.19 1455 Q1568.27 1459.58 1568.27 1468.33 Q1568.27 1477.06 1565.19 1481.67 Q1562.14 1486.25 1556.33 1486.25 Q1550.52 1486.25 1547.44 1481.67 Q1544.38 1477.06 1544.38 1468.33 Q1544.38 1459.58 1547.44 1455 Q1550.52 1450.39 1556.33 1450.39 Z" fill="#000000" fill-rule="nonzero" fill-opacity="1" /><path clip-path="url(#clip060)" d="M1943.93 1469.17 Q1940.6 1469.17 1938.67 1470.95 Q1936.78 1472.73 1936.78 1475.86 Q1936.78 1478.98 1938.67 1480.77 Q1940.6 1482.55 1943.93 1482.55 Q1947.26 1482.55 1949.18 1480.77 Q1951.1 1478.96 1951.1 1475.86 Q1951.1 1472.73 1949.18 1470.95 Q1947.29 1469.17 1943.93 1469.17 M1939.25 1467.18 Q1936.24 1466.44 1934.55 1464.38 Q1932.89 1462.32 1932.89 1459.35 Q1932.89 1455.21 1935.83 1452.8 Q1938.79 1450.39 1943.93 1450.39 Q1949.09 1450.39 1952.03 1452.8 Q1954.97 1455.21 1954.97 1459.35 Q1954.97 1462.32 1953.28 1464.38 Q1951.61 1466.44 1948.63 1467.18 Q1952.01 1467.96 1953.88 1470.26 Q1955.78 1472.55 1955.78 1475.86 Q1955.78 1480.88 1952.7 1483.57 Q1949.65 1486.25 1943.93 1486.25 Q1938.21 1486.25 1935.13 1483.57 Q1932.08 1480.88 1932.08 1475.86 Q1932.08 1472.55 1933.98 1470.26 Q1935.87 1467.96 1939.25 1467.18 M1937.54 1459.79 Q1937.54 1462.48 1939.21 1463.98 Q1940.9 1465.49 1943.93 1465.49 Q1946.94 1465.49 1948.63 1463.98 Q1950.34 1462.48 1950.34 1459.79 Q1950.34 1457.11 1948.63 1455.6 Q1946.94 1454.1 1943.93 1454.1 Q1940.9 1454.1 1939.21 1455.6 Q1937.54 1457.11 1937.54 1459.79 Z" fill="#000000" fill-rule="nonzero" fill-opacity="1" /><path clip-path="url(#clip060)" d="M1974.09 1454.1 Q1970.48 1454.1 1968.65 1457.66 Q1966.85 1461.2 1966.85 1468.33 Q1966.85 1475.44 1968.65 1479.01 Q1970.48 1482.55 1974.09 1482.55 Q1977.72 1482.55 1979.53 1479.01 Q1981.36 1475.44 1981.36 1468.33 Q1981.36 1461.2 1979.53 1457.66 Q1977.72 1454.1 1974.09 1454.1 M1974.09 1450.39 Q1979.9 1450.39 1982.96 1455 Q1986.04 1459.58 1986.04 1468.33 Q1986.04 1477.06 1982.96 1481.67 Q1979.9 1486.25 1974.09 1486.25 Q1968.28 1486.25 1965.2 1481.67 Q1962.15 1477.06 1962.15 1468.33 Q1962.15 1459.58 1965.2 1455 Q1968.28 1450.39 1974.09 1450.39 Z" fill="#000000" fill-rule="nonzero" fill-opacity="1" /><path clip-path="url(#clip060)" d="M1300.21 1522.27 L1300.21 1532.4 L1312.27 1532.4 L1312.27 1536.95 L1300.21 1536.95 L1300.21 1556.3 Q1300.21 1560.66 1301.39 1561.9 Q1302.6 1563.14 1306.26 1563.14 L1312.27 1563.14 L1312.27 1568.04 L1306.26 1568.04 Q1299.48 1568.04 1296.9 1565.53 Q1294.32 1562.98 1294.32 1556.3 L1294.32 1536.95 L1290.02 1536.95 L1290.02 1532.4 L1294.32 1532.4 L1294.32 1522.27 L1300.21 1522.27 Z" fill="#000000" fill-rule="nonzero" fill-opacity="1" /><polyline clip-path="url(#clip062)" style="stroke:#000000; stroke-linecap:round; stroke-linejoin:round; stroke-width:2; stroke-opacity:0.1; fill:none" points="249.542,1354.23 2352.76,1354.23 "/>
<polyline clip-path="url(#clip062)" style="stroke:#000000; stroke-linecap:round; stroke-linejoin:round; stroke-width:2; stroke-opacity:0.1; fill:none" points="249.542,1098.05 2352.76,1098.05 "/>
<polyline clip-path="url(#clip062)" style="stroke:#000000; stroke-linecap:round; stroke-linejoin:round; stroke-width:2; stroke-opacity:0.1; fill:none" points="249.542,841.878 2352.76,841.878 "/>
<polyline clip-path="url(#clip062)" style="stroke:#000000; stroke-linecap:round; stroke-linejoin:round; stroke-width:2; stroke-opacity:0.1; fill:none" points="249.542,585.704 2352.76,585.704 "/>
<polyline clip-path="url(#clip062)" style="stroke:#000000; stroke-linecap:round; stroke-linejoin:round; stroke-width:2; stroke-opacity:0.1; fill:none" points="249.542,329.531 2352.76,329.531 "/>
<polyline clip-path="url(#clip060)" style="stroke:#000000; stroke-linecap:round; stroke-linejoin:round; stroke-width:4; stroke-opacity:1; fill:none" points="249.542,1423.18 249.542,123.472 "/>
<polyline clip-path="url(#clip060)" style="stroke:#000000; stroke-linecap:round; stroke-linejoin:round; stroke-width:4; stroke-opacity:1; fill:none" points="249.542,1354.23 268.44,1354.23 "/>
<polyline clip-path="url(#clip060)" style="stroke:#000000; stroke-linecap:round; stroke-linejoin:round; stroke-width:4; stroke-opacity:1; fill:none" points="249.542,1098.05 268.44,1098.05 "/>
<polyline clip-path="url(#clip060)" style="stroke:#000000; stroke-linecap:round; stroke-linejoin:round; stroke-width:4; stroke-opacity:1; fill:none" points="249.542,841.878 268.44,841.878 "/>
<polyline clip-path="url(#clip060)" style="stroke:#000000; stroke-linecap:round; stroke-linejoin:round; stroke-width:4; stroke-opacity:1; fill:none" points="249.542,585.704 268.44,585.704 "/>
<polyline clip-path="url(#clip060)" style="stroke:#000000; stroke-linecap:round; stroke-linejoin:round; stroke-width:4; stroke-opacity:1; fill:none" points="249.542,329.531 268.44,329.531 "/>
<path clip-path="url(#clip060)" d="M126.205 1340.02 Q122.593 1340.02 120.765 1343.59 Q118.959 1347.13 118.959 1354.26 Q118.959 1361.37 120.765 1364.93 Q122.593 1368.47 126.205 1368.47 Q129.839 1368.47 131.644 1364.93 Q133.473 1361.37 133.473 1354.26 Q133.473 1347.13 131.644 1343.59 Q129.839 1340.02 126.205 1340.02 M126.205 1336.32 Q132.015 1336.32 135.07 1340.93 Q138.149 1345.51 138.149 1354.26 Q138.149 1362.99 135.07 1367.59 Q132.015 1372.18 126.205 1372.18 Q120.394 1372.18 117.316 1367.59 Q114.26 1362.99 114.26 1354.26 Q114.26 1345.51 117.316 1340.93 Q120.394 1336.32 126.205 1336.32 Z" fill="#000000" fill-rule="nonzero" fill-opacity="1" /><path clip-path="url(#clip060)" d="M146.366 1365.63 L151.251 1365.63 L151.251 1371.51 L146.366 1371.51 L146.366 1365.63 Z" fill="#000000" fill-rule="nonzero" fill-opacity="1" /><path clip-path="url(#clip060)" d="M171.436 1340.02 Q167.825 1340.02 165.996 1343.59 Q164.19 1347.13 164.19 1354.26 Q164.19 1361.37 165.996 1364.93 Q167.825 1368.47 171.436 1368.47 Q175.07 1368.47 176.876 1364.93 Q178.704 1361.37 178.704 1354.26 Q178.704 1347.13 176.876 1343.59 Q175.07 1340.02 171.436 1340.02 M171.436 1336.32 Q177.246 1336.32 180.301 1340.93 Q183.38 1345.51 183.38 1354.26 Q183.38 1362.99 180.301 1367.59 Q177.246 1372.18 171.436 1372.18 Q165.626 1372.18 162.547 1367.59 Q159.491 1362.99 159.491 1354.26 Q159.491 1345.51 162.547 1340.93 Q165.626 1336.32 171.436 1336.32 Z" fill="#000000" fill-rule="nonzero" fill-opacity="1" /><path clip-path="url(#clip060)" d="M201.598 1340.02 Q197.987 1340.02 196.158 1343.59 Q194.352 1347.13 194.352 1354.26 Q194.352 1361.37 196.158 1364.93 Q197.987 1368.47 201.598 1368.47 Q205.232 1368.47 207.037 1364.93 Q208.866 1361.37 208.866 1354.26 Q208.866 1347.13 207.037 1343.59 Q205.232 1340.02 201.598 1340.02 M201.598 1336.32 Q207.408 1336.32 210.463 1340.93 Q213.542 1345.51 213.542 1354.26 Q213.542 1362.99 210.463 1367.59 Q207.408 1372.18 201.598 1372.18 Q195.787 1372.18 192.709 1367.59 Q189.653 1362.99 189.653 1354.26 Q189.653 1345.51 192.709 1340.93 Q195.787 1336.32 201.598 1336.32 Z" fill="#000000" fill-rule="nonzero" fill-opacity="1" /><path clip-path="url(#clip060)" d="M127.2 1083.85 Q123.589 1083.85 121.76 1087.42 Q119.955 1090.96 119.955 1098.09 Q119.955 1105.19 121.76 1108.76 Q123.589 1112.3 127.2 1112.3 Q130.834 1112.3 132.64 1108.76 Q134.468 1105.19 134.468 1098.09 Q134.468 1090.96 132.64 1087.42 Q130.834 1083.85 127.2 1083.85 M127.2 1080.15 Q133.01 1080.15 136.066 1084.75 Q139.144 1089.34 139.144 1098.09 Q139.144 1106.81 136.066 1111.42 Q133.01 1116 127.2 1116 Q121.39 1116 118.311 1111.42 Q115.256 1106.81 115.256 1098.09 Q115.256 1089.34 118.311 1084.75 Q121.39 1080.15 127.2 1080.15 Z" fill="#000000" fill-rule="nonzero" fill-opacity="1" /><path clip-path="url(#clip060)" d="M147.362 1109.45 L152.246 1109.45 L152.246 1115.33 L147.362 1115.33 L147.362 1109.45 Z" fill="#000000" fill-rule="nonzero" fill-opacity="1" /><path clip-path="url(#clip060)" d="M166.459 1111.4 L182.778 1111.4 L182.778 1115.33 L160.834 1115.33 L160.834 1111.4 Q163.496 1108.64 168.079 1104.01 Q172.686 1099.36 173.866 1098.02 Q176.112 1095.49 176.991 1093.76 Q177.894 1092 177.894 1090.31 Q177.894 1087.55 175.95 1085.82 Q174.028 1084.08 170.927 1084.08 Q168.727 1084.08 166.274 1084.85 Q163.843 1085.61 161.065 1087.16 L161.065 1082.44 Q163.89 1081.3 166.343 1080.73 Q168.797 1080.15 170.834 1080.15 Q176.204 1080.15 179.399 1082.83 Q182.593 1085.52 182.593 1090.01 Q182.593 1092.14 181.783 1094.06 Q180.996 1095.96 178.889 1098.55 Q178.311 1099.22 175.209 1102.44 Q172.107 1105.63 166.459 1111.4 Z" fill="#000000" fill-rule="nonzero" fill-opacity="1" /><path clip-path="url(#clip060)" d="M192.639 1080.77 L210.996 1080.77 L210.996 1084.71 L196.922 1084.71 L196.922 1093.18 Q197.94 1092.83 198.959 1092.67 Q199.977 1092.48 200.996 1092.48 Q206.783 1092.48 210.162 1095.66 Q213.542 1098.83 213.542 1104.24 Q213.542 1109.82 210.07 1112.92 Q206.598 1116 200.278 1116 Q198.102 1116 195.834 1115.63 Q193.588 1115.26 191.181 1114.52 L191.181 1109.82 Q193.264 1110.96 195.487 1111.51 Q197.709 1112.07 200.186 1112.07 Q204.19 1112.07 206.528 1109.96 Q208.866 1107.85 208.866 1104.24 Q208.866 1100.63 206.528 1098.53 Q204.19 1096.42 200.186 1096.42 Q198.311 1096.42 196.436 1096.84 Q194.584 1097.25 192.639 1098.13 L192.639 1080.77 Z" fill="#000000" fill-rule="nonzero" fill-opacity="1" /><path clip-path="url(#clip060)" d="M126.205 827.677 Q122.593 827.677 120.765 831.242 Q118.959 834.783 118.959 841.913 Q118.959 849.019 120.765 852.584 Q122.593 856.126 126.205 856.126 Q129.839 856.126 131.644 852.584 Q133.473 849.019 133.473 841.913 Q133.473 834.783 131.644 831.242 Q129.839 827.677 126.205 827.677 M126.205 823.973 Q132.015 823.973 135.07 828.58 Q138.149 833.163 138.149 841.913 Q138.149 850.64 135.07 855.246 Q132.015 859.829 126.205 859.829 Q120.394 859.829 117.316 855.246 Q114.26 850.64 114.26 841.913 Q114.26 833.163 117.316 828.58 Q120.394 823.973 126.205 823.973 Z" fill="#000000" fill-rule="nonzero" fill-opacity="1" /><path clip-path="url(#clip060)" d="M146.366 853.278 L151.251 853.278 L151.251 859.158 L146.366 859.158 L146.366 853.278 Z" fill="#000000" fill-rule="nonzero" fill-opacity="1" /><path clip-path="url(#clip060)" d="M161.482 824.598 L179.839 824.598 L179.839 828.533 L165.765 828.533 L165.765 837.005 Q166.783 836.658 167.802 836.496 Q168.82 836.311 169.839 836.311 Q175.626 836.311 179.005 839.482 Q182.385 842.654 182.385 848.07 Q182.385 853.649 178.913 856.751 Q175.44 859.829 169.121 859.829 Q166.945 859.829 164.677 859.459 Q162.431 859.089 160.024 858.348 L160.024 853.649 Q162.107 854.783 164.329 855.339 Q166.552 855.894 169.028 855.894 Q173.033 855.894 175.371 853.788 Q177.709 851.681 177.709 848.07 Q177.709 844.459 175.371 842.353 Q173.033 840.246 169.028 840.246 Q167.153 840.246 165.278 840.663 Q163.427 841.079 161.482 841.959 L161.482 824.598 Z" fill="#000000" fill-rule="nonzero" fill-opacity="1" /><path clip-path="url(#clip060)" d="M201.598 827.677 Q197.987 827.677 196.158 831.242 Q194.352 834.783 194.352 841.913 Q194.352 849.019 196.158 852.584 Q197.987 856.126 201.598 856.126 Q205.232 856.126 207.037 852.584 Q208.866 849.019 208.866 841.913 Q208.866 834.783 207.037 831.242 Q205.232 827.677 201.598 827.677 M201.598 823.973 Q207.408 823.973 210.463 828.58 Q213.542 833.163 213.542 841.913 Q213.542 850.64 210.463 855.246 Q207.408 859.829 201.598 859.829 Q195.787 859.829 192.709 855.246 Q189.653 850.64 189.653 841.913 Q189.653 833.163 192.709 828.58 Q195.787 823.973 201.598 823.973 Z" fill="#000000" fill-rule="nonzero" fill-opacity="1" /><path clip-path="url(#clip060)" d="M127.2 571.503 Q123.589 571.503 121.76 575.068 Q119.955 578.61 119.955 585.739 Q119.955 592.846 121.76 596.41 Q123.589 599.952 127.2 599.952 Q130.834 599.952 132.64 596.41 Q134.468 592.846 134.468 585.739 Q134.468 578.61 132.64 575.068 Q130.834 571.503 127.2 571.503 M127.2 567.799 Q133.01 567.799 136.066 572.406 Q139.144 576.989 139.144 585.739 Q139.144 594.466 136.066 599.072 Q133.01 603.656 127.2 603.656 Q121.39 603.656 118.311 599.072 Q115.256 594.466 115.256 585.739 Q115.256 576.989 118.311 572.406 Q121.39 567.799 127.2 567.799 Z" fill="#000000" fill-rule="nonzero" fill-opacity="1" /><path clip-path="url(#clip060)" d="M147.362 597.105 L152.246 597.105 L152.246 602.984 L147.362 602.984 L147.362 597.105 Z" fill="#000000" fill-rule="nonzero" fill-opacity="1" /><path clip-path="url(#clip060)" d="M161.251 568.424 L183.473 568.424 L183.473 570.415 L170.927 602.984 L166.042 602.984 L177.848 572.36 L161.251 572.36 L161.251 568.424 Z" fill="#000000" fill-rule="nonzero" fill-opacity="1" /><path clip-path="url(#clip060)" d="M192.639 568.424 L210.996 568.424 L210.996 572.36 L196.922 572.36 L196.922 580.832 Q197.94 580.485 198.959 580.322 Q199.977 580.137 200.996 580.137 Q206.783 580.137 210.162 583.309 Q213.542 586.48 213.542 591.896 Q213.542 597.475 210.07 600.577 Q206.598 603.656 200.278 603.656 Q198.102 603.656 195.834 603.285 Q193.588 602.915 191.181 602.174 L191.181 597.475 Q193.264 598.609 195.487 599.165 Q197.709 599.721 200.186 599.721 Q204.19 599.721 206.528 597.614 Q208.866 595.508 208.866 591.896 Q208.866 588.285 206.528 586.179 Q204.19 584.072 200.186 584.072 Q198.311 584.072 196.436 584.489 Q194.584 584.906 192.639 585.785 L192.639 568.424 Z" fill="#000000" fill-rule="nonzero" fill-opacity="1" /><path clip-path="url(#clip060)" d="M117.015 342.876 L124.654 342.876 L124.654 316.51 L116.343 318.177 L116.343 313.917 L124.607 312.251 L129.283 312.251 L129.283 342.876 L136.922 342.876 L136.922 346.811 L117.015 346.811 L117.015 342.876 Z" fill="#000000" fill-rule="nonzero" fill-opacity="1" /><path clip-path="url(#clip060)" d="M146.366 340.931 L151.251 340.931 L151.251 346.811 L146.366 346.811 L146.366 340.931 Z" fill="#000000" fill-rule="nonzero" fill-opacity="1" /><path clip-path="url(#clip060)" d="M171.436 315.329 Q167.825 315.329 165.996 318.894 Q164.19 322.436 164.19 329.565 Q164.19 336.672 165.996 340.237 Q167.825 343.778 171.436 343.778 Q175.07 343.778 176.876 340.237 Q178.704 336.672 178.704 329.565 Q178.704 322.436 176.876 318.894 Q175.07 315.329 171.436 315.329 M171.436 311.626 Q177.246 311.626 180.301 316.232 Q183.38 320.815 183.38 329.565 Q183.38 338.292 180.301 342.899 Q177.246 347.482 171.436 347.482 Q165.626 347.482 162.547 342.899 Q159.491 338.292 159.491 329.565 Q159.491 320.815 162.547 316.232 Q165.626 311.626 171.436 311.626 Z" fill="#000000" fill-rule="nonzero" fill-opacity="1" /><path clip-path="url(#clip060)" d="M201.598 315.329 Q197.987 315.329 196.158 318.894 Q194.352 322.436 194.352 329.565 Q194.352 336.672 196.158 340.237 Q197.987 343.778 201.598 343.778 Q205.232 343.778 207.037 340.237 Q208.866 336.672 208.866 329.565 Q208.866 322.436 207.037 318.894 Q205.232 315.329 201.598 315.329 M201.598 311.626 Q207.408 311.626 210.463 316.232 Q213.542 320.815 213.542 329.565 Q213.542 338.292 210.463 342.899 Q207.408 347.482 201.598 347.482 Q195.787 347.482 192.709 342.899 Q189.653 338.292 189.653 329.565 Q189.653 320.815 192.709 316.232 Q195.787 311.626 201.598 311.626 Z" fill="#000000" fill-rule="nonzero" fill-opacity="1" /><path clip-path="url(#clip060)" d="M28.3562 756.711 L45.7028 769.602 L64.0042 756.043 L64.0042 762.95 L49.9996 773.326 L64.0042 783.702 L64.0042 790.609 L45.3526 776.763 L28.3562 789.431 L28.3562 782.524 L41.0558 773.071 L28.3562 763.618 L28.3562 756.711 Z" fill="#000000" fill-rule="nonzero" fill-opacity="1" /><path clip-path="url(#clip060)" d="M222.798 12.096 L273.961 12.096 L273.961 18.9825 L252.491 18.9825 L252.491 72.576 L244.268 72.576 L244.268 18.9825 L222.798 18.9825 L222.798 12.096 Z" fill="#000000" fill-rule="nonzero" fill-opacity="1" /><path clip-path="url(#clip060)" d="M306.247 48.0275 L306.247 51.6733 L271.976 51.6733 Q272.462 59.3701 276.594 63.421 Q280.767 67.4314 288.18 67.4314 Q292.474 67.4314 296.484 66.3781 Q300.535 65.3249 304.505 63.2184 L304.505 70.267 Q300.495 71.9684 296.282 72.8596 Q292.069 73.7508 287.734 73.7508 Q276.878 73.7508 270.518 67.4314 Q264.199 61.1119 264.199 50.3365 Q264.199 39.1965 270.194 32.6746 Q276.23 26.1121 286.438 26.1121 Q295.593 26.1121 300.9 32.0264 Q306.247 37.9003 306.247 48.0275 M298.793 45.84 Q298.712 39.7232 295.35 36.0774 Q292.028 32.4315 286.519 32.4315 Q280.281 32.4315 276.513 35.9558 Q272.786 39.4801 272.219 45.8805 L298.793 45.84 Z" fill="#000000" fill-rule="nonzero" fill-opacity="1" /><path clip-path="url(#clip060)" d="M347.404 28.5427 L347.404 35.5912 Q344.244 33.9709 340.842 33.1607 Q337.439 32.3505 333.793 32.3505 Q328.243 32.3505 325.448 34.0519 Q322.694 35.7533 322.694 39.156 Q322.694 41.7486 324.679 43.2475 Q326.663 44.7058 332.659 46.0426 L335.211 46.6097 Q343.151 48.3111 346.472 51.4303 Q349.835 54.509 349.835 60.0587 Q349.835 66.3781 344.812 70.0644 Q339.829 73.7508 331.079 73.7508 Q327.433 73.7508 323.463 73.0216 Q319.534 72.3329 315.159 70.9151 L315.159 63.2184 Q319.291 65.3654 323.301 66.4591 Q327.312 67.5124 331.241 67.5124 Q336.507 67.5124 339.343 65.73 Q342.178 63.9071 342.178 60.6258 Q342.178 57.5877 340.112 55.9673 Q338.087 54.3469 331.16 52.8481 L328.567 52.2405 Q321.64 50.7821 318.562 47.7845 Q315.483 44.7463 315.483 39.4801 Q315.483 33.0797 320.02 29.5959 Q324.557 26.1121 332.902 26.1121 Q337.034 26.1121 340.68 26.7198 Q344.325 27.3274 347.404 28.5427 Z" fill="#000000" fill-rule="nonzero" fill-opacity="1" /><path clip-path="url(#clip060)" d="M369.076 14.324 L369.076 27.2059 L384.429 27.2059 L384.429 32.9987 L369.076 32.9987 L369.076 57.6282 Q369.076 63.1779 370.575 64.7578 Q372.115 66.3376 376.773 66.3376 L384.429 66.3376 L384.429 72.576 L376.773 72.576 Q368.145 72.576 364.863 69.3758 Q361.582 66.1351 361.582 57.6282 L361.582 32.9987 L356.114 32.9987 L356.114 27.2059 L361.582 27.2059 L361.582 14.324 L369.076 14.324 Z" fill="#000000" fill-rule="nonzero" fill-opacity="1" /><path clip-path="url(#clip060)" d="M394.233 27.2059 L401.686 27.2059 L401.686 72.576 L394.233 72.576 L394.233 27.2059 M394.233 9.54393 L401.686 9.54393 L401.686 18.9825 L394.233 18.9825 L394.233 9.54393 Z" fill="#000000" fill-rule="nonzero" fill-opacity="1" /><path clip-path="url(#clip060)" d="M454.996 45.1919 L454.996 72.576 L447.542 72.576 L447.542 45.4349 Q447.542 38.994 445.031 35.7938 Q442.519 32.5936 437.496 32.5936 Q431.46 32.5936 427.977 36.4419 Q424.493 40.2903 424.493 46.9338 L424.493 72.576 L416.999 72.576 L416.999 27.2059 L424.493 27.2059 L424.493 34.2544 Q427.166 30.163 430.772 28.1376 Q434.418 26.1121 439.157 26.1121 Q446.975 26.1121 450.986 30.9732 Q454.996 35.7938 454.996 45.1919 Z" fill="#000000" fill-rule="nonzero" fill-opacity="1" /><path clip-path="url(#clip060)" d="M499.718 49.3643 Q499.718 41.2625 496.356 36.8065 Q493.034 32.3505 486.998 32.3505 Q481.003 32.3505 477.641 36.8065 Q474.319 41.2625 474.319 49.3643 Q474.319 57.4256 477.641 61.8816 Q481.003 66.3376 486.998 66.3376 Q493.034 66.3376 496.356 61.8816 Q499.718 57.4256 499.718 49.3643 M507.172 66.9452 Q507.172 78.5308 502.027 84.1616 Q496.882 89.8329 486.269 89.8329 Q482.34 89.8329 478.856 89.2252 Q475.372 88.6581 472.091 87.4428 L472.091 80.1917 Q475.372 81.9741 478.572 82.8248 Q481.773 83.6755 485.094 83.6755 Q492.426 83.6755 496.072 79.8271 Q499.718 76.0193 499.718 68.282 L499.718 64.5957 Q497.409 68.6061 493.804 70.5911 Q490.198 72.576 485.175 72.576 Q476.83 72.576 471.726 66.2161 Q466.622 59.8562 466.622 49.3643 Q466.622 38.832 471.726 32.472 Q476.83 26.1121 485.175 26.1121 Q490.198 26.1121 493.804 28.0971 Q497.409 30.082 499.718 34.0924 L499.718 27.2059 L507.172 27.2059 L507.172 66.9452 Z" fill="#000000" fill-rule="nonzero" fill-opacity="1" /><path clip-path="url(#clip060)" d="M585.476 14.0809 L585.476 22.0612 Q580.817 19.8332 576.685 18.7395 Q572.553 17.6457 568.705 17.6457 Q562.021 17.6457 558.375 20.2383 Q554.77 22.8309 554.77 27.611 Q554.77 31.6214 557.16 33.6873 Q559.59 35.7128 566.315 36.9686 L571.257 37.9813 Q580.412 39.7232 584.747 44.1387 Q589.122 48.5136 589.122 55.8863 Q589.122 64.6767 583.207 69.2137 Q577.333 73.7508 565.95 73.7508 Q561.656 73.7508 556.795 72.7785 Q551.975 71.8063 546.79 69.9024 L546.79 61.4765 Q551.772 64.2716 556.552 65.6895 Q561.332 67.1073 565.95 67.1073 Q572.958 67.1073 576.766 64.3527 Q580.574 61.598 580.574 56.4939 Q580.574 52.0379 577.82 49.5264 Q575.105 47.0148 568.867 45.759 L563.884 44.7868 Q554.729 42.9639 550.638 39.075 Q546.547 35.1862 546.547 28.2591 Q546.547 20.2383 552.177 15.6203 Q557.849 11.0023 567.773 11.0023 Q572.027 11.0023 576.442 11.7719 Q580.858 12.5416 585.476 14.0809 Z" fill="#000000" fill-rule="nonzero" fill-opacity="1" /><path clip-path="url(#clip060)" d="M622.177 49.7694 Q613.143 49.7694 609.66 51.8354 Q606.176 53.9013 606.176 58.8839 Q606.176 62.8538 608.768 65.2034 Q611.402 67.5124 615.898 67.5124 Q622.096 67.5124 625.823 63.1374 Q629.59 58.7219 629.59 51.4303 L629.59 49.7694 L622.177 49.7694 M637.044 46.6907 L637.044 72.576 L629.59 72.576 L629.59 65.6895 Q627.038 69.8214 623.23 71.8063 Q619.422 73.7508 613.913 73.7508 Q606.946 73.7508 602.814 69.8619 Q598.722 65.9325 598.722 59.3701 Q598.722 51.7138 603.826 47.825 Q608.971 43.9361 619.139 43.9361 L629.59 43.9361 L629.59 43.2069 Q629.59 38.0623 626.187 35.2672 Q622.825 32.4315 616.708 32.4315 Q612.819 32.4315 609.133 33.3632 Q605.447 34.295 602.044 36.1584 L602.044 29.2718 Q606.135 27.692 609.984 26.9223 Q613.832 26.1121 617.478 26.1121 Q627.322 26.1121 632.183 31.2163 Q637.044 36.3204 637.044 46.6907 Z" fill="#000000" fill-rule="nonzero" fill-opacity="1" /><path clip-path="url(#clip060)" d="M687.721 35.9153 Q690.516 30.8922 694.405 28.5022 Q698.293 26.1121 703.56 26.1121 Q710.649 26.1121 714.497 31.0947 Q718.345 36.0368 718.345 45.1919 L718.345 72.576 L710.851 72.576 L710.851 45.4349 Q710.851 38.913 708.542 35.7533 Q706.233 32.5936 701.494 32.5936 Q695.701 32.5936 692.339 36.4419 Q688.976 40.2903 688.976 46.9338 L688.976 72.576 L681.482 72.576 L681.482 45.4349 Q681.482 38.8725 679.173 35.7533 Q676.864 32.5936 672.044 32.5936 Q666.332 32.5936 662.97 36.4824 Q659.607 40.3308 659.607 46.9338 L659.607 72.576 L652.113 72.576 L652.113 27.2059 L659.607 27.2059 L659.607 34.2544 Q662.159 30.082 665.724 28.0971 Q669.289 26.1121 674.191 26.1121 Q679.133 26.1121 682.576 28.6237 Q686.06 31.1352 687.721 35.9153 Z" fill="#000000" fill-rule="nonzero" fill-opacity="1" /><path clip-path="url(#clip060)" d="M740.423 65.7705 L740.423 89.8329 L732.929 89.8329 L732.929 27.2059 L740.423 27.2059 L740.423 34.0924 Q742.772 30.0415 746.337 28.0971 Q749.942 26.1121 754.925 26.1121 Q763.189 26.1121 768.334 32.6746 Q773.519 39.2371 773.519 49.9314 Q773.519 60.6258 768.334 67.1883 Q763.189 73.7508 754.925 73.7508 Q749.942 73.7508 746.337 71.8063 Q742.772 69.8214 740.423 65.7705 M765.781 49.9314 Q765.781 41.7081 762.379 37.0496 Q759.016 32.3505 753.102 32.3505 Q747.188 32.3505 743.785 37.0496 Q740.423 41.7081 740.423 49.9314 Q740.423 58.1548 743.785 62.8538 Q747.188 67.5124 753.102 67.5124 Q759.016 67.5124 762.379 62.8538 Q765.781 58.1548 765.781 49.9314 Z" fill="#000000" fill-rule="nonzero" fill-opacity="1" /><path clip-path="url(#clip060)" d="M785.874 9.54393 L793.328 9.54393 L793.328 72.576 L785.874 72.576 L785.874 9.54393 Z" fill="#000000" fill-rule="nonzero" fill-opacity="1" /><path clip-path="url(#clip060)" d="M847.731 48.0275 L847.731 51.6733 L813.461 51.6733 Q813.947 59.3701 818.079 63.421 Q822.251 67.4314 829.664 67.4314 Q833.958 67.4314 837.969 66.3781 Q842.019 65.3249 845.989 63.2184 L845.989 70.267 Q841.979 71.9684 837.766 72.8596 Q833.553 73.7508 829.219 73.7508 Q818.362 73.7508 812.002 67.4314 Q805.683 61.1119 805.683 50.3365 Q805.683 39.1965 811.678 32.6746 Q817.714 26.1121 827.922 26.1121 Q837.077 26.1121 842.384 32.0264 Q847.731 37.9003 847.731 48.0275 M840.278 45.84 Q840.197 39.7232 836.834 36.0774 Q833.513 32.4315 828.003 32.4315 Q821.765 32.4315 817.998 35.9558 Q814.271 39.4801 813.704 45.8805 L840.278 45.84 Z" fill="#000000" fill-rule="nonzero" fill-opacity="1" /><path clip-path="url(#clip060)" d="M912.181 39.9662 Q918.055 41.222 921.336 45.1919 Q924.658 49.1618 924.658 54.9951 Q924.658 63.9476 918.501 68.8492 Q912.343 73.7508 901.001 73.7508 Q897.193 73.7508 893.142 72.9811 Q889.132 72.2519 884.838 70.7531 L884.838 62.8538 Q888.24 64.8388 892.291 65.8515 Q896.342 66.8642 900.758 66.8642 Q908.454 66.8642 912.465 63.826 Q916.516 60.7879 916.516 54.9951 Q916.516 49.6479 912.748 46.6502 Q909.021 43.612 902.337 43.612 L895.289 43.612 L895.289 36.8875 L902.662 36.8875 Q908.697 36.8875 911.898 34.4975 Q915.098 32.067 915.098 27.5299 Q915.098 22.8714 911.776 20.4004 Q908.495 17.8888 902.337 17.8888 Q898.975 17.8888 895.127 18.618 Q891.278 19.3471 886.66 20.8865 L886.66 13.5948 Q891.319 12.2985 895.37 11.6504 Q899.461 11.0023 903.067 11.0023 Q912.384 11.0023 917.812 15.2557 Q923.24 19.4686 923.24 26.6793 Q923.24 31.7024 920.364 35.1862 Q917.488 38.6294 912.181 39.9662 Z" fill="#000000" fill-rule="nonzero" fill-opacity="1" /><path clip-path="url(#clip060)" d="M957.673 43.8551 Q951.839 43.8551 948.477 46.9743 Q945.156 50.0935 945.156 55.5622 Q945.156 61.0309 948.477 64.1501 Q951.839 67.2693 957.673 67.2693 Q963.506 67.2693 966.868 64.1501 Q970.231 60.9904 970.231 55.5622 Q970.231 50.0935 966.868 46.9743 Q963.547 43.8551 957.673 43.8551 M949.49 40.3713 Q944.224 39.075 941.267 35.4697 Q938.35 31.8644 938.35 26.6793 Q938.35 19.4281 943.495 15.2152 Q948.68 11.0023 957.673 11.0023 Q966.706 11.0023 971.851 15.2152 Q976.996 19.4281 976.996 26.6793 Q976.996 31.8644 974.038 35.4697 Q971.122 39.075 965.896 40.3713 Q971.81 41.7486 975.092 45.759 Q978.413 49.7694 978.413 55.5622 Q978.413 64.3527 973.026 69.0517 Q967.679 73.7508 957.673 73.7508 Q947.667 73.7508 942.279 69.0517 Q936.932 64.3527 936.932 55.5622 Q936.932 49.7694 940.254 45.759 Q943.576 41.7486 949.49 40.3713 M946.492 27.4489 Q946.492 32.148 949.409 34.7811 Q952.366 37.4142 957.673 37.4142 Q962.939 37.4142 965.896 34.7811 Q968.894 32.148 968.894 27.4489 Q968.894 22.7499 965.896 20.1168 Q962.939 17.4837 957.673 17.4837 Q952.366 17.4837 949.409 20.1168 Q946.492 22.7499 946.492 27.4489 Z" fill="#000000" fill-rule="nonzero" fill-opacity="1" /><path clip-path="url(#clip060)" d="M993.807 62.2867 L1002.35 62.2867 L1002.35 69.2543 L995.711 82.2172 L990.485 82.2172 L993.807 69.2543 L993.807 62.2867 Z" fill="#000000" fill-rule="nonzero" fill-opacity="1" /><path clip-path="url(#clip060)" d="M1045.78 12.096 L1077.9 12.096 L1077.9 18.9825 L1053.27 18.9825 L1053.27 33.8088 Q1055.06 33.2012 1056.84 32.9176 Q1058.62 32.5936 1060.4 32.5936 Q1070.53 32.5936 1076.45 38.1433 Q1082.36 43.6931 1082.36 53.1722 Q1082.36 62.9348 1076.28 68.3631 Q1070.21 73.7508 1059.15 73.7508 Q1055.34 73.7508 1051.37 73.1026 Q1047.44 72.4545 1043.23 71.1582 L1043.23 62.9348 Q1046.87 64.9198 1050.76 65.892 Q1054.65 66.8642 1058.99 66.8642 Q1065.99 66.8642 1070.09 63.1779 Q1074.18 59.4916 1074.18 53.1722 Q1074.18 46.8528 1070.09 43.1664 Q1065.99 39.4801 1058.99 39.4801 Q1055.7 39.4801 1052.42 40.2093 Q1049.18 40.9384 1045.78 42.4778 L1045.78 12.096 Z" fill="#000000" fill-rule="nonzero" fill-opacity="1" /><path clip-path="url(#clip060)" d="M1115.98 17.4837 Q1109.66 17.4837 1106.46 23.7221 Q1103.3 29.92 1103.3 42.3968 Q1103.3 54.833 1106.46 61.0714 Q1109.66 67.2693 1115.98 67.2693 Q1122.34 67.2693 1125.5 61.0714 Q1128.7 54.833 1128.7 42.3968 Q1128.7 29.92 1125.5 23.7221 Q1122.34 17.4837 1115.98 17.4837 M1115.98 11.0023 Q1126.15 11.0023 1131.5 19.0636 Q1136.88 27.0843 1136.88 42.3968 Q1136.88 57.6687 1131.5 65.73 Q1126.15 73.7508 1115.98 73.7508 Q1105.81 73.7508 1100.43 65.73 Q1095.08 57.6687 1095.08 42.3968 Q1095.08 27.0843 1100.43 19.0636 Q1105.81 11.0023 1115.98 11.0023 Z" fill="#000000" fill-rule="nonzero" fill-opacity="1" /><path clip-path="url(#clip060)" d="M1168.77 17.4837 Q1162.45 17.4837 1159.25 23.7221 Q1156.09 29.92 1156.09 42.3968 Q1156.09 54.833 1159.25 61.0714 Q1162.45 67.2693 1168.77 67.2693 Q1175.13 67.2693 1178.29 61.0714 Q1181.49 54.833 1181.49 42.3968 Q1181.49 29.92 1178.29 23.7221 Q1175.13 17.4837 1168.77 17.4837 M1168.77 11.0023 Q1178.93 11.0023 1184.28 19.0636 Q1189.67 27.0843 1189.67 42.3968 Q1189.67 57.6687 1184.28 65.73 Q1178.93 73.7508 1168.77 73.7508 Q1158.6 73.7508 1153.21 65.73 Q1147.86 57.6687 1147.86 42.3968 Q1147.86 27.0843 1153.21 19.0636 Q1158.6 11.0023 1168.77 11.0023 Z" fill="#000000" fill-rule="nonzero" fill-opacity="1" /><path clip-path="url(#clip060)" d="M1221.55 17.4837 Q1215.23 17.4837 1212.03 23.7221 Q1208.87 29.92 1208.87 42.3968 Q1208.87 54.833 1212.03 61.0714 Q1215.23 67.2693 1221.55 67.2693 Q1227.91 67.2693 1231.07 61.0714 Q1234.27 54.833 1234.27 42.3968 Q1234.27 29.92 1231.07 23.7221 Q1227.91 17.4837 1221.55 17.4837 M1221.55 11.0023 Q1231.72 11.0023 1237.06 19.0636 Q1242.45 27.0843 1242.45 42.3968 Q1242.45 57.6687 1237.06 65.73 Q1231.72 73.7508 1221.55 73.7508 Q1211.38 73.7508 1205.99 65.73 Q1200.65 57.6687 1200.65 42.3968 Q1200.65 27.0843 1205.99 19.0636 Q1211.38 11.0023 1221.55 11.0023 Z" fill="#000000" fill-rule="nonzero" fill-opacity="1" /><path clip-path="url(#clip060)" d="M1318.73 14.0809 L1318.73 22.0612 Q1314.07 19.8332 1309.94 18.7395 Q1305.81 17.6457 1301.96 17.6457 Q1295.28 17.6457 1291.63 20.2383 Q1288.02 22.8309 1288.02 27.611 Q1288.02 31.6214 1290.41 33.6873 Q1292.84 35.7128 1299.57 36.9686 L1304.51 37.9813 Q1313.67 39.7232 1318 44.1387 Q1322.38 48.5136 1322.38 55.8863 Q1322.38 64.6767 1316.46 69.2137 Q1310.59 73.7508 1299.2 73.7508 Q1294.91 73.7508 1290.05 72.7785 Q1285.23 71.8063 1280.04 69.9024 L1280.04 61.4765 Q1285.03 64.2716 1289.81 65.6895 Q1294.59 67.1073 1299.2 67.1073 Q1306.21 67.1073 1310.02 64.3527 Q1313.83 61.598 1313.83 56.4939 Q1313.83 52.0379 1311.07 49.5264 Q1308.36 47.0148 1302.12 45.759 L1297.14 44.7868 Q1287.98 42.9639 1283.89 39.075 Q1279.8 35.1862 1279.8 28.2591 Q1279.8 20.2383 1285.43 15.6203 Q1291.1 11.0023 1301.03 11.0023 Q1305.28 11.0023 1309.7 11.7719 Q1314.11 12.5416 1318.73 14.0809 Z" fill="#000000" fill-rule="nonzero" fill-opacity="1" /><path clip-path="url(#clip060)" d="M1355.43 49.7694 Q1346.4 49.7694 1342.91 51.8354 Q1339.43 53.9013 1339.43 58.8839 Q1339.43 62.8538 1342.02 65.2034 Q1344.66 67.5124 1349.15 67.5124 Q1355.35 67.5124 1359.08 63.1374 Q1362.84 58.7219 1362.84 51.4303 L1362.84 49.7694 L1355.43 49.7694 M1370.3 46.6907 L1370.3 72.576 L1362.84 72.576 L1362.84 65.6895 Q1360.29 69.8214 1356.48 71.8063 Q1352.68 73.7508 1347.17 73.7508 Q1340.2 73.7508 1336.07 69.8619 Q1331.98 65.9325 1331.98 59.3701 Q1331.98 51.7138 1337.08 47.825 Q1342.23 43.9361 1352.39 43.9361 L1362.84 43.9361 L1362.84 43.2069 Q1362.84 38.0623 1359.44 35.2672 Q1356.08 32.4315 1349.96 32.4315 Q1346.07 32.4315 1342.39 33.3632 Q1338.7 34.295 1335.3 36.1584 L1335.3 29.2718 Q1339.39 27.692 1343.24 26.9223 Q1347.09 26.1121 1350.73 26.1121 Q1360.58 26.1121 1365.44 31.2163 Q1370.3 36.3204 1370.3 46.6907 Z" fill="#000000" fill-rule="nonzero" fill-opacity="1" /><path clip-path="url(#clip060)" d="M1420.97 35.9153 Q1423.77 30.8922 1427.66 28.5022 Q1431.55 26.1121 1436.81 26.1121 Q1443.9 26.1121 1447.75 31.0947 Q1451.6 36.0368 1451.6 45.1919 L1451.6 72.576 L1444.11 72.576 L1444.11 45.4349 Q1444.11 38.913 1441.8 35.7533 Q1439.49 32.5936 1434.75 32.5936 Q1428.95 32.5936 1425.59 36.4419 Q1422.23 40.2903 1422.23 46.9338 L1422.23 72.576 L1414.74 72.576 L1414.74 45.4349 Q1414.74 38.8725 1412.43 35.7533 Q1410.12 32.5936 1405.3 32.5936 Q1399.59 32.5936 1396.22 36.4824 Q1392.86 40.3308 1392.86 46.9338 L1392.86 72.576 L1385.37 72.576 L1385.37 27.2059 L1392.86 27.2059 L1392.86 34.2544 Q1395.41 30.082 1398.98 28.0971 Q1402.54 26.1121 1407.44 26.1121 Q1412.39 26.1121 1415.83 28.6237 Q1419.31 31.1352 1420.97 35.9153 Z" fill="#000000" fill-rule="nonzero" fill-opacity="1" /><path clip-path="url(#clip060)" d="M1473.68 65.7705 L1473.68 89.8329 L1466.18 89.8329 L1466.18 27.2059 L1473.68 27.2059 L1473.68 34.0924 Q1476.03 30.0415 1479.59 28.0971 Q1483.2 26.1121 1488.18 26.1121 Q1496.44 26.1121 1501.59 32.6746 Q1506.77 39.2371 1506.77 49.9314 Q1506.77 60.6258 1501.59 67.1883 Q1496.44 73.7508 1488.18 73.7508 Q1483.2 73.7508 1479.59 71.8063 Q1476.03 69.8214 1473.68 65.7705 M1499.04 49.9314 Q1499.04 41.7081 1495.63 37.0496 Q1492.27 32.3505 1486.36 32.3505 Q1480.44 32.3505 1477.04 37.0496 Q1473.68 41.7081 1473.68 49.9314 Q1473.68 58.1548 1477.04 62.8538 Q1480.44 67.5124 1486.36 67.5124 Q1492.27 67.5124 1495.63 62.8538 Q1499.04 58.1548 1499.04 49.9314 Z" fill="#000000" fill-rule="nonzero" fill-opacity="1" /><path clip-path="url(#clip060)" d="M1519.13 9.54393 L1526.58 9.54393 L1526.58 72.576 L1519.13 72.576 L1519.13 9.54393 Z" fill="#000000" fill-rule="nonzero" fill-opacity="1" /><path clip-path="url(#clip060)" d="M1580.99 48.0275 L1580.99 51.6733 L1546.71 51.6733 Q1547.2 59.3701 1551.33 63.421 Q1555.51 67.4314 1562.92 67.4314 Q1567.21 67.4314 1571.22 66.3781 Q1575.27 65.3249 1579.24 63.2184 L1579.24 70.267 Q1575.23 71.9684 1571.02 72.8596 Q1566.81 73.7508 1562.47 73.7508 Q1551.62 73.7508 1545.26 67.4314 Q1538.94 61.1119 1538.94 50.3365 Q1538.94 39.1965 1544.93 32.6746 Q1550.97 26.1121 1561.18 26.1121 Q1570.33 26.1121 1575.64 32.0264 Q1580.99 37.9003 1580.99 48.0275 M1573.53 45.84 Q1573.45 39.7232 1570.09 36.0774 Q1566.77 32.4315 1561.26 32.4315 Q1555.02 32.4315 1551.25 35.9558 Q1547.52 39.4801 1546.96 45.8805 L1573.53 45.84 Z" fill="#000000" fill-rule="nonzero" fill-opacity="1" /><path clip-path="url(#clip060)" d="M1619.91 12.096 L1658.16 12.096 L1658.16 18.9825 L1628.1 18.9825 L1628.1 36.8875 L1656.9 36.8875 L1656.9 43.7741 L1628.1 43.7741 L1628.1 65.6895 L1658.88 65.6895 L1658.88 72.576 L1619.91 72.576 L1619.91 12.096 Z" fill="#000000" fill-rule="nonzero" fill-opacity="1" /><path clip-path="url(#clip060)" d="M1700.93 28.5427 L1700.93 35.5912 Q1697.77 33.9709 1694.37 33.1607 Q1690.97 32.3505 1687.32 32.3505 Q1681.77 32.3505 1678.98 34.0519 Q1676.22 35.7533 1676.22 39.156 Q1676.22 41.7486 1678.21 43.2475 Q1680.19 44.7058 1686.19 46.0426 L1688.74 46.6097 Q1696.68 48.3111 1700 51.4303 Q1703.36 54.509 1703.36 60.0587 Q1703.36 66.3781 1698.34 70.0644 Q1693.36 73.7508 1684.61 73.7508 Q1680.96 73.7508 1676.99 73.0216 Q1673.06 72.3329 1668.69 70.9151 L1668.69 63.2184 Q1672.82 65.3654 1676.83 66.4591 Q1680.84 67.5124 1684.77 67.5124 Q1690.04 67.5124 1692.87 65.73 Q1695.71 63.9071 1695.71 60.6258 Q1695.71 57.5877 1693.64 55.9673 Q1691.62 54.3469 1684.69 52.8481 L1682.1 52.2405 Q1675.17 50.7821 1672.09 47.7845 Q1669.01 44.7463 1669.01 39.4801 Q1669.01 33.0797 1673.55 29.5959 Q1678.09 26.1121 1686.43 26.1121 Q1690.56 26.1121 1694.21 26.7198 Q1697.85 27.3274 1700.93 28.5427 Z" fill="#000000" fill-rule="nonzero" fill-opacity="1" /><path clip-path="url(#clip060)" d="M1722.61 14.324 L1722.61 27.2059 L1737.96 27.2059 L1737.96 32.9987 L1722.61 32.9987 L1722.61 57.6282 Q1722.61 63.1779 1724.1 64.7578 Q1725.64 66.3376 1730.3 66.3376 L1737.96 66.3376 L1737.96 72.576 L1730.3 72.576 Q1721.67 72.576 1718.39 69.3758 Q1715.11 66.1351 1715.11 57.6282 L1715.11 32.9987 L1709.64 32.9987 L1709.64 27.2059 L1715.11 27.2059 L1715.11 14.324 L1722.61 14.324 Z" fill="#000000" fill-rule="nonzero" fill-opacity="1" /><path clip-path="url(#clip060)" d="M1747.76 27.2059 L1755.21 27.2059 L1755.21 72.576 L1747.76 72.576 L1747.76 27.2059 M1747.76 9.54393 L1755.21 9.54393 L1755.21 18.9825 L1747.76 18.9825 L1747.76 9.54393 Z" fill="#000000" fill-rule="nonzero" fill-opacity="1" /><path clip-path="url(#clip060)" d="M1806.13 35.9153 Q1808.93 30.8922 1812.82 28.5022 Q1816.71 26.1121 1821.97 26.1121 Q1829.06 26.1121 1832.91 31.0947 Q1836.76 36.0368 1836.76 45.1919 L1836.76 72.576 L1829.27 72.576 L1829.27 45.4349 Q1829.27 38.913 1826.96 35.7533 Q1824.65 32.5936 1819.91 32.5936 Q1814.11 32.5936 1810.75 36.4419 Q1807.39 40.2903 1807.39 46.9338 L1807.39 72.576 L1799.9 72.576 L1799.9 45.4349 Q1799.9 38.8725 1797.59 35.7533 Q1795.28 32.5936 1790.46 32.5936 Q1784.75 32.5936 1781.38 36.4824 Q1778.02 40.3308 1778.02 46.9338 L1778.02 72.576 L1770.53 72.576 L1770.53 27.2059 L1778.02 27.2059 L1778.02 34.2544 Q1780.57 30.082 1784.14 28.0971 Q1787.7 26.1121 1792.6 26.1121 Q1797.55 26.1121 1800.99 28.6237 Q1804.47 31.1352 1806.13 35.9153 Z" fill="#000000" fill-rule="nonzero" fill-opacity="1" /><path clip-path="url(#clip060)" d="M1872.25 49.7694 Q1863.21 49.7694 1859.73 51.8354 Q1856.24 53.9013 1856.24 58.8839 Q1856.24 62.8538 1858.84 65.2034 Q1861.47 67.5124 1865.97 67.5124 Q1872.16 67.5124 1875.89 63.1374 Q1879.66 58.7219 1879.66 51.4303 L1879.66 49.7694 L1872.25 49.7694 M1887.11 46.6907 L1887.11 72.576 L1879.66 72.576 L1879.66 65.6895 Q1877.11 69.8214 1873.3 71.8063 Q1869.49 73.7508 1863.98 73.7508 Q1857.01 73.7508 1852.88 69.8619 Q1848.79 65.9325 1848.79 59.3701 Q1848.79 51.7138 1853.89 47.825 Q1859.04 43.9361 1869.21 43.9361 L1879.66 43.9361 L1879.66 43.2069 Q1879.66 38.0623 1876.26 35.2672 Q1872.89 32.4315 1866.78 32.4315 Q1862.89 32.4315 1859.2 33.3632 Q1855.52 34.295 1852.11 36.1584 L1852.11 29.2718 Q1856.2 27.692 1860.05 26.9223 Q1863.9 26.1121 1867.55 26.1121 Q1877.39 26.1121 1882.25 31.2163 Q1887.11 36.3204 1887.11 46.6907 Z" fill="#000000" fill-rule="nonzero" fill-opacity="1" /><path clip-path="url(#clip060)" d="M1909.84 14.324 L1909.84 27.2059 L1925.19 27.2059 L1925.19 32.9987 L1909.84 32.9987 L1909.84 57.6282 Q1909.84 63.1779 1911.34 64.7578 Q1912.88 66.3376 1917.53 66.3376 L1925.19 66.3376 L1925.19 72.576 L1917.53 72.576 Q1908.91 72.576 1905.62 69.3758 Q1902.34 66.1351 1902.34 57.6282 L1902.34 32.9987 L1896.87 32.9987 L1896.87 27.2059 L1902.34 27.2059 L1902.34 14.324 L1909.84 14.324 Z" fill="#000000" fill-rule="nonzero" fill-opacity="1" /><path clip-path="url(#clip060)" d="M1973.8 48.0275 L1973.8 51.6733 L1939.53 51.6733 Q1940.02 59.3701 1944.15 63.421 Q1948.32 67.4314 1955.73 67.4314 Q1960.03 67.4314 1964.04 66.3781 Q1968.09 65.3249 1972.06 63.2184 L1972.06 70.267 Q1968.05 71.9684 1963.84 72.8596 Q1959.62 73.7508 1955.29 73.7508 Q1944.43 73.7508 1938.07 67.4314 Q1931.75 61.1119 1931.75 50.3365 Q1931.75 39.1965 1937.75 32.6746 Q1943.78 26.1121 1953.99 26.1121 Q1963.15 26.1121 1968.45 32.0264 Q1973.8 37.9003 1973.8 48.0275 M1966.35 45.84 Q1966.27 39.7232 1962.9 36.0774 Q1959.58 32.4315 1954.07 32.4315 Q1947.84 32.4315 1944.07 35.9558 Q1940.34 39.4801 1939.77 45.8805 L1966.35 45.84 Z" fill="#000000" fill-rule="nonzero" fill-opacity="1" /><path clip-path="url(#clip060)" d="M1987.94 62.2867 L1996.49 62.2867 L1996.49 69.2543 L1989.84 82.2172 L1984.62 82.2172 L1987.94 69.2543 L1987.94 62.2867 Z" fill="#000000" fill-rule="nonzero" fill-opacity="1" /><path clip-path="url(#clip060)" d="M2071.63 20.0358 Q2067.5 17.2001 2057.82 17.2001 Q2047.57 17.2001 2047.57 21.9397 Q2047.57 25.6665 2058.26 27.611 Q2066.69 29.1098 2071.43 33.6468 Q2077.18 39.1155 2077.18 50.3365 Q2077.18 61.0714 2071.63 67.3908 Q2066.08 73.7508 2056.36 73.7508 Q2046.68 73.7508 2041.09 67.3908 Q2035.54 61.0714 2035.54 49.9314 Q2035.54 41.6676 2041.09 34.9836 Q2043.23 32.391 2046.27 30.9327 Q2039.95 27.7325 2039.95 22.0207 Q2039.95 11.0023 2057.82 11.0023 Q2066.77 11.0023 2071.63 13.8379 L2071.63 20.0358 M2051.86 32.9582 Q2049.11 34.1329 2046.88 37.0901 Q2043.4 41.6676 2043.4 49.9314 Q2043.4 58.1548 2046.84 62.7728 Q2050.32 67.4314 2056.36 67.4314 Q2062.31 67.4314 2065.8 62.7323 Q2069.28 58.0333 2069.28 50.3365 Q2069.28 42.2752 2065.6 38.3864 Q2061.67 34.2139 2056.56 33.7683 Q2053.97 33.5253 2051.86 32.9582 Z" fill="#000000" fill-rule="nonzero" fill-opacity="1" /><path clip-path="url(#clip060)" d="M2127.25 27.2059 L2110.84 49.2833 L2128.1 72.576 L2119.31 72.576 L2106.1 54.752 L2092.9 72.576 L2084.11 72.576 L2101.73 48.8377 L2085.61 27.2059 L2094.4 27.2059 L2106.43 43.369 L2118.46 27.2059 L2127.25 27.2059 Z" fill="#000000" fill-rule="nonzero" fill-opacity="1" /><path clip-path="url(#clip060)" d="M2165.98 34.9026 L2217.91 34.9026 L2217.91 41.7081 L2165.98 41.7081 L2165.98 34.9026 M2165.98 51.4303 L2217.91 51.4303 L2217.91 58.3168 L2165.98 58.3168 L2165.98 51.4303 Z" fill="#000000" fill-rule="nonzero" fill-opacity="1" /><path clip-path="url(#clip060)" d="M2263.36 65.6895 L2276.73 65.6895 L2276.73 19.5497 L2262.19 22.4663 L2262.19 15.0127 L2276.65 12.096 L2284.83 12.096 L2284.83 65.6895 L2298.2 65.6895 L2298.2 72.576 L2263.36 72.576 L2263.36 65.6895 Z" fill="#000000" fill-rule="nonzero" fill-opacity="1" /><path clip-path="url(#clip060)" d="M2314.73 62.2867 L2323.27 62.2867 L2323.27 72.576 L2314.73 72.576 L2314.73 62.2867 Z" fill="#000000" fill-rule="nonzero" fill-opacity="1" /><path clip-path="url(#clip060)" d="M2358.6 17.4837 Q2352.28 17.4837 2349.08 23.7221 Q2345.92 29.92 2345.92 42.3968 Q2345.92 54.833 2349.08 61.0714 Q2352.28 67.2693 2358.6 67.2693 Q2364.96 67.2693 2368.12 61.0714 Q2371.32 54.833 2371.32 42.3968 Q2371.32 29.92 2368.12 23.7221 Q2364.96 17.4837 2358.6 17.4837 M2358.6 11.0023 Q2368.76 11.0023 2374.11 19.0636 Q2379.5 27.0843 2379.5 42.3968 Q2379.5 57.6687 2374.11 65.73 Q2368.76 73.7508 2358.6 73.7508 Q2348.43 73.7508 2343.04 65.73 Q2337.69 57.6687 2337.69 42.3968 Q2337.69 27.0843 2343.04 19.0636 Q2348.43 11.0023 2358.6 11.0023 Z" fill="#000000" fill-rule="nonzero" fill-opacity="1" /><polyline clip-path="url(#clip062)" style="stroke:#009af9; stroke-linecap:round; stroke-linejoin:round; stroke-width:8; stroke-opacity:1; fill:none" points="309.067,804.718 329.953,549.629 350.839,381.883 371.725,369.119 392.611,483.743 413.497,847.289 434.383,1193.7 455.269,1059.44 476.154,976.267 497.04,1123.54 517.926,1065.91 538.812,1130.44 559.698,1053.99 580.584,1053.22 601.47,1084.43 622.356,1104.87 643.242,1124.91 664.128,1087.09 685.014,1094.05 705.9,1125.36 726.786,1150.13 747.672,1133.09 768.558,1161.23 789.444,1205.36 810.329,1191.78 831.215,1206.11 852.101,1217.77 872.987,1229.36 893.873,1231.1 914.759,1236.94 935.645,1240.13 956.531,1236.26 977.417,1223.79 998.303,1211.47 1019.19,1198.84 1040.07,1131.92 1060.96,1070.93 1081.85,989.246 1102.73,898.543 1123.62,852.347 1144.5,735.405 1165.39,709.912 1186.28,680.87 1207.16,647.516 1228.05,607.512 1248.93,591.138 1269.82,620.526 1290.71,637.29 1311.59,635.609 1332.48,649.988 "/>
<path clip-path="url(#clip062)" d="M1353.36 1087.8 L1374.25 1102.97 L1395.14 1106.24 L1416.02 1147.85 L1436.91 1131.66 L1457.79 1129.4 L1478.68 1137.39 L1499.57 1127.56 L1520.45 1183.71 L1541.34 1140.06 L1562.22 1144.98 L1583.11 1176.13 L1604 1183.71 L1624.88 1211.17 L1645.77 1207.69 L1666.65 1234.33 L1687.54 1234.54 L1708.42 1211.38 L1729.31 1275.11 L1750.2 1295.61 L1771.08 1268.97 L1791.97 1264.87 L1812.85 1279.21 L1833.74 1186.79 L1854.63 1110.55 L1875.51 1134.32 L1896.4 1155.63 L1917.28 1185.56 L1938.17 1230.44 L1959.06 1259.74 L1979.94 1338.03 L2000.83 1346.02 L2021.71 1328.4 L2042.6 1386.4 L2063.49 1344.79 L2084.37 1323.89 L2105.26 1346.43 L2126.14 1351.97 L2147.03 1349.51 L2167.92 1368.98 L2188.8 1350.12 L2209.69 1350.94 L2230.57 1373.89 L2251.46 1360.16 L2272.35 1314.67 L2293.23 1281.47 L2293.23 353.924 L2272.35 387.124 L2251.46 432.62 L2230.57 446.351 L2209.69 423.398 L2188.8 422.578 L2167.92 441.433 L2147.03 421.963 L2126.14 424.423 L2105.26 418.889 L2084.37 396.346 L2063.49 417.25 L2042.6 458.852 L2021.71 400.855 L2000.83 418.479 L1979.94 410.487 L1959.06 332.2 L1938.17 302.894 L1917.28 258.012 L1896.4 228.091 L1875.51 206.777 L1854.63 183.005 L1833.74 259.242 L1812.85 351.669 L1791.97 337.324 L1771.08 341.422 L1750.2 368.064 L1729.31 347.57 L1708.42 283.834 L1687.54 306.993 L1666.65 306.788 L1645.77 280.146 L1624.88 283.63 L1604 256.168 L1583.11 248.585 L1562.22 217.434 L1541.34 212.516 L1520.45 256.168 L1499.57 200.014 L1478.68 209.852 L1457.79 201.859 L1436.91 204.113 L1416.02 220.303 L1395.14 178.701 L1374.25 175.422 L1353.36 160.256  Z" fill="#e26f46" fill-rule="evenodd" fill-opacity="0.5"/>
<polyline clip-path="url(#clip062)" style="stroke:#e26f46; stroke-linecap:round; stroke-linejoin:round; stroke-width:8; stroke-opacity:1; fill:none" stroke-dasharray="32, 16, 4, 16" points="1353.36,624.028 1374.25,639.193 1395.14,642.472 1416.02,684.075 1436.91,667.885 1457.79,665.631 1478.68,673.623 1499.57,663.786 1520.45,719.939 1541.34,676.287 1562.22,681.206 1583.11,712.357 1604,719.939 1624.88,747.401 1645.77,743.917 1666.65,770.559 1687.54,770.764 1708.42,747.606 1729.31,811.342 1750.2,831.836 1771.08,805.194 1791.97,801.095 1812.85,815.441 1833.74,723.013 1854.63,646.776 1875.51,670.549 1896.4,691.863 1917.28,721.784 1938.17,766.665 1959.06,795.972 1979.94,874.258 2000.83,882.251 2021.71,864.626 2042.6,922.624 2063.49,881.021 2084.37,860.118 2105.26,882.661 2126.14,888.194 2147.03,885.735 2167.92,905.204 2188.8,886.35 2209.69,887.17 2230.57,910.123 2251.46,896.392 2272.35,850.895 2293.23,817.695 "/>
<polyline clip-path="url(#clip062)" style="stroke:#3da44d; stroke-linecap:round; stroke-linejoin:round; stroke-width:8; stroke-opacity:1; fill:none" points="1353.36,676.541 1374.25,691.877 1395.14,671.2 1416.02,678.561 1436.91,716.082 1457.79,695.099 1478.68,687.154 1499.57,674.014 1520.45,702.647 1541.34,695.398 1562.22,693.266 1583.11,699.017 1604,714.03 1624.88,749.417 1645.77,720.144 1666.65,744.246 1687.54,782.863 1708.42,787.492 1729.31,812.313 1750.2,798.631 1771.08,814.57 1791.97,829.687 1812.85,804.406 1833.74,751.972 1854.63,723.603 1875.51,726.469 1896.4,769.749 1917.28,845.081 1938.17,852.311 1959.06,822.501 1979.94,861.403 2000.83,934.331 2021.71,943.496 2042.6,932.362 2063.49,932.419 2084.37,917.203 2105.26,954.225 2126.14,940.991 2147.03,943.82 2167.92,951.262 2188.8,952.6 2209.69,975.092 2230.57,953.581 2251.46,955.553 2272.35,953.282 2293.23,930.162 "/>
<path clip-path="url(#clip060)" d="M319.649 1379.86 L936.751 1379.86 L936.751 1172.5 L319.649 1172.5  Z" fill="#ffffff" fill-rule="evenodd" fill-opacity="1"/>
<polyline clip-path="url(#clip060)" style="stroke:#000000; stroke-linecap:round; stroke-linejoin:round; stroke-width:4; stroke-opacity:1; fill:none" points="319.649,1379.86 936.751,1379.86 936.751,1172.5 319.649,1172.5 319.649,1379.86 "/>
<polyline clip-path="url(#clip060)" style="stroke:#009af9; stroke-linecap:round; stroke-linejoin:round; stroke-width:8; stroke-opacity:1; fill:none" points="343.018,1224.34 483.232,1224.34 "/>
<path clip-path="url(#clip060)" d="M534.472 1209.72 L534.472 1214.65 Q532.111 1212.45 529.425 1211.36 Q526.763 1210.27 523.754 1210.27 Q517.828 1210.27 514.68 1213.91 Q511.532 1217.52 511.532 1224.37 Q511.532 1231.2 514.68 1234.83 Q517.828 1238.44 523.754 1238.44 Q526.763 1238.44 529.425 1237.36 Q532.111 1236.27 534.472 1234.07 L534.472 1238.95 Q532.018 1240.62 529.263 1241.45 Q526.532 1242.29 523.476 1242.29 Q515.629 1242.29 511.115 1237.5 Q506.602 1232.68 506.602 1224.37 Q506.602 1216.04 511.115 1211.25 Q515.629 1206.43 523.476 1206.43 Q526.578 1206.43 529.31 1207.26 Q532.064 1208.07 534.472 1209.72 Z" fill="#000000" fill-rule="nonzero" fill-opacity="1" /><path clip-path="url(#clip060)" d="M551.555 1218.68 Q548.129 1218.68 546.138 1221.36 Q544.148 1224.02 544.148 1228.68 Q544.148 1233.33 546.115 1236.01 Q548.106 1238.68 551.555 1238.68 Q554.958 1238.68 556.948 1235.99 Q558.939 1233.31 558.939 1228.68 Q558.939 1224.07 556.948 1221.38 Q554.958 1218.68 551.555 1218.68 M551.555 1215.07 Q557.11 1215.07 560.282 1218.68 Q563.453 1222.29 563.453 1228.68 Q563.453 1235.04 560.282 1238.68 Q557.11 1242.29 551.555 1242.29 Q545.976 1242.29 542.805 1238.68 Q539.657 1235.04 539.657 1228.68 Q539.657 1222.29 542.805 1218.68 Q545.976 1215.07 551.555 1215.07 Z" fill="#000000" fill-rule="nonzero" fill-opacity="1" /><path clip-path="url(#clip060)" d="M592.064 1225.97 L592.064 1241.62 L587.805 1241.62 L587.805 1226.11 Q587.805 1222.43 586.37 1220.6 Q584.934 1218.77 582.064 1218.77 Q578.615 1218.77 576.624 1220.97 Q574.634 1223.17 574.634 1226.96 L574.634 1241.62 L570.351 1241.62 L570.351 1215.69 L574.634 1215.69 L574.634 1219.72 Q576.161 1217.38 578.221 1216.22 Q580.305 1215.07 583.013 1215.07 Q587.481 1215.07 589.772 1217.84 Q592.064 1220.6 592.064 1225.97 Z" fill="#000000" fill-rule="nonzero" fill-opacity="1" /><path clip-path="url(#clip060)" d="M617.619 1219.63 L617.619 1205.6 L621.879 1205.6 L621.879 1241.62 L617.619 1241.62 L617.619 1237.73 Q616.277 1240.04 614.217 1241.18 Q612.18 1242.29 609.309 1242.29 Q604.61 1242.29 601.647 1238.54 Q598.707 1234.79 598.707 1228.68 Q598.707 1222.57 601.647 1218.82 Q604.61 1215.07 609.309 1215.07 Q612.18 1215.07 614.217 1216.2 Q616.277 1217.31 617.619 1219.63 M603.106 1228.68 Q603.106 1233.38 605.027 1236.06 Q606.971 1238.72 610.351 1238.72 Q613.731 1238.72 615.675 1236.06 Q617.619 1233.38 617.619 1228.68 Q617.619 1223.98 615.675 1221.32 Q613.731 1218.63 610.351 1218.63 Q606.971 1218.63 605.027 1221.32 Q603.106 1223.98 603.106 1228.68 Z" fill="#000000" fill-rule="nonzero" fill-opacity="1" /><path clip-path="url(#clip060)" d="M630.652 1215.69 L634.911 1215.69 L634.911 1241.62 L630.652 1241.62 L630.652 1215.69 M630.652 1205.6 L634.911 1205.6 L634.911 1210.99 L630.652 1210.99 L630.652 1205.6 Z" fill="#000000" fill-rule="nonzero" fill-opacity="1" /><path clip-path="url(#clip060)" d="M648.036 1208.33 L648.036 1215.69 L656.809 1215.69 L656.809 1219 L648.036 1219 L648.036 1233.07 Q648.036 1236.25 648.892 1237.15 Q649.772 1238.05 652.434 1238.05 L656.809 1238.05 L656.809 1241.62 L652.434 1241.62 Q647.504 1241.62 645.629 1239.79 Q643.754 1237.94 643.754 1233.07 L643.754 1219 L640.629 1219 L640.629 1215.69 L643.754 1215.69 L643.754 1208.33 L648.036 1208.33 Z" fill="#000000" fill-rule="nonzero" fill-opacity="1" /><path clip-path="url(#clip060)" d="M662.411 1215.69 L666.67 1215.69 L666.67 1241.62 L662.411 1241.62 L662.411 1215.69 M662.411 1205.6 L666.67 1205.6 L666.67 1210.99 L662.411 1210.99 L662.411 1205.6 Z" fill="#000000" fill-rule="nonzero" fill-opacity="1" /><path clip-path="url(#clip060)" d="M685.628 1218.68 Q682.202 1218.68 680.212 1221.36 Q678.221 1224.02 678.221 1228.68 Q678.221 1233.33 680.189 1236.01 Q682.179 1238.68 685.628 1238.68 Q689.031 1238.68 691.022 1235.99 Q693.013 1233.31 693.013 1228.68 Q693.013 1224.07 691.022 1221.38 Q689.031 1218.68 685.628 1218.68 M685.628 1215.07 Q691.184 1215.07 694.355 1218.68 Q697.526 1222.29 697.526 1228.68 Q697.526 1235.04 694.355 1238.68 Q691.184 1242.29 685.628 1242.29 Q680.05 1242.29 676.878 1238.68 Q673.73 1235.04 673.73 1228.68 Q673.73 1222.29 676.878 1218.68 Q680.05 1215.07 685.628 1215.07 Z" fill="#000000" fill-rule="nonzero" fill-opacity="1" /><path clip-path="url(#clip060)" d="M726.137 1225.97 L726.137 1241.62 L721.878 1241.62 L721.878 1226.11 Q721.878 1222.43 720.443 1220.6 Q719.008 1218.77 716.137 1218.77 Q712.688 1218.77 710.698 1220.97 Q708.707 1223.17 708.707 1226.96 L708.707 1241.62 L704.425 1241.62 L704.425 1215.69 L708.707 1215.69 L708.707 1219.72 Q710.235 1217.38 712.295 1216.22 Q714.378 1215.07 717.086 1215.07 Q721.554 1215.07 723.846 1217.84 Q726.137 1220.6 726.137 1225.97 Z" fill="#000000" fill-rule="nonzero" fill-opacity="1" /><path clip-path="url(#clip060)" d="M756.808 1227.59 L756.808 1229.67 L737.225 1229.67 Q737.503 1234.07 739.864 1236.38 Q742.248 1238.68 746.484 1238.68 Q748.938 1238.68 751.23 1238.07 Q753.545 1237.47 755.813 1236.27 L755.813 1240.3 Q753.521 1241.27 751.114 1241.78 Q748.707 1242.29 746.23 1242.29 Q740.026 1242.29 736.392 1238.68 Q732.781 1235.07 732.781 1228.91 Q732.781 1222.54 736.207 1218.82 Q739.656 1215.07 745.489 1215.07 Q750.721 1215.07 753.753 1218.45 Q756.808 1221.8 756.808 1227.59 M752.549 1226.34 Q752.503 1222.84 750.582 1220.76 Q748.684 1218.68 745.535 1218.68 Q741.971 1218.68 739.818 1220.69 Q737.688 1222.7 737.364 1226.36 L752.549 1226.34 Z" fill="#000000" fill-rule="nonzero" fill-opacity="1" /><path clip-path="url(#clip060)" d="M780.859 1219.63 L780.859 1205.6 L785.119 1205.6 L785.119 1241.62 L780.859 1241.62 L780.859 1237.73 Q779.517 1240.04 777.457 1241.18 Q775.42 1242.29 772.549 1242.29 Q767.85 1242.29 764.887 1238.54 Q761.947 1234.79 761.947 1228.68 Q761.947 1222.57 764.887 1218.82 Q767.85 1215.07 772.549 1215.07 Q775.42 1215.07 777.457 1216.2 Q779.517 1217.31 780.859 1219.63 M766.345 1228.68 Q766.345 1233.38 768.267 1236.06 Q770.211 1238.72 773.591 1238.72 Q776.97 1238.72 778.915 1236.06 Q780.859 1233.38 780.859 1228.68 Q780.859 1223.98 778.915 1221.32 Q776.97 1218.63 773.591 1218.63 Q770.211 1218.63 768.267 1221.32 Q766.345 1223.98 766.345 1228.68 Z" fill="#000000" fill-rule="nonzero" fill-opacity="1" /><path clip-path="url(#clip060)" d="M813.822 1210.9 L813.822 1237.77 L819.47 1237.77 Q826.623 1237.77 829.933 1234.53 Q833.266 1231.29 833.266 1224.3 Q833.266 1217.36 829.933 1214.14 Q826.623 1210.9 819.47 1210.9 L813.822 1210.9 M809.146 1207.06 L818.753 1207.06 Q828.799 1207.06 833.498 1211.25 Q838.197 1215.41 838.197 1224.3 Q838.197 1233.24 833.475 1237.43 Q828.753 1241.62 818.753 1241.62 L809.146 1241.62 L809.146 1207.06 Z" fill="#000000" fill-rule="nonzero" fill-opacity="1" /><path clip-path="url(#clip060)" d="M857.248 1228.58 Q852.086 1228.58 850.095 1229.76 Q848.104 1230.95 848.104 1233.79 Q848.104 1236.06 849.586 1237.4 Q851.09 1238.72 853.66 1238.72 Q857.201 1238.72 859.331 1236.22 Q861.484 1233.7 861.484 1229.53 L861.484 1228.58 L857.248 1228.58 M865.743 1226.82 L865.743 1241.62 L861.484 1241.62 L861.484 1237.68 Q860.026 1240.04 857.85 1241.18 Q855.674 1242.29 852.526 1242.29 Q848.544 1242.29 846.183 1240.07 Q843.845 1237.82 843.845 1234.07 Q843.845 1229.7 846.762 1227.47 Q849.702 1225.25 855.512 1225.25 L861.484 1225.25 L861.484 1224.83 Q861.484 1221.89 859.539 1220.3 Q857.618 1218.68 854.123 1218.68 Q851.901 1218.68 849.794 1219.21 Q847.688 1219.74 845.743 1220.81 L845.743 1216.87 Q848.081 1215.97 850.28 1215.53 Q852.479 1215.07 854.563 1215.07 Q860.188 1215.07 862.965 1217.98 Q865.743 1220.9 865.743 1226.82 Z" fill="#000000" fill-rule="nonzero" fill-opacity="1" /><path clip-path="url(#clip060)" d="M878.729 1208.33 L878.729 1215.69 L887.502 1215.69 L887.502 1219 L878.729 1219 L878.729 1233.07 Q878.729 1236.25 879.586 1237.15 Q880.465 1238.05 883.127 1238.05 L887.502 1238.05 L887.502 1241.62 L883.127 1241.62 Q878.197 1241.62 876.322 1239.79 Q874.447 1237.94 874.447 1233.07 L874.447 1219 L871.322 1219 L871.322 1215.69 L874.447 1215.69 L874.447 1208.33 L878.729 1208.33 Z" fill="#000000" fill-rule="nonzero" fill-opacity="1" /><path clip-path="url(#clip060)" d="M904.886 1228.58 Q899.724 1228.58 897.734 1229.76 Q895.743 1230.95 895.743 1233.79 Q895.743 1236.06 897.224 1237.4 Q898.729 1238.72 901.298 1238.72 Q904.84 1238.72 906.97 1236.22 Q909.122 1233.7 909.122 1229.53 L909.122 1228.58 L904.886 1228.58 M913.382 1226.82 L913.382 1241.62 L909.122 1241.62 L909.122 1237.68 Q907.664 1240.04 905.488 1241.18 Q903.312 1242.29 900.164 1242.29 Q896.183 1242.29 893.822 1240.07 Q891.484 1237.82 891.484 1234.07 Q891.484 1229.7 894.4 1227.47 Q897.34 1225.25 903.15 1225.25 L909.122 1225.25 L909.122 1224.83 Q909.122 1221.89 907.178 1220.3 Q905.257 1218.68 901.761 1218.68 Q899.539 1218.68 897.433 1219.21 Q895.326 1219.74 893.382 1220.81 L893.382 1216.87 Q895.72 1215.97 897.919 1215.53 Q900.118 1215.07 902.201 1215.07 Q907.826 1215.07 910.604 1217.98 Q913.382 1220.9 913.382 1226.82 Z" fill="#000000" fill-rule="nonzero" fill-opacity="1" /><polyline clip-path="url(#clip060)" style="stroke:#e26f46; stroke-linecap:round; stroke-linejoin:round; stroke-width:8; stroke-opacity:1; fill:none" stroke-dasharray="32, 16, 4, 16" points="343.018,1276.18 483.232,1276.18 "/>
<path clip-path="url(#clip060)" d="M511.277 1262.74 L511.277 1275.72 L517.157 1275.72 Q520.421 1275.72 522.203 1274.04 Q523.986 1272.35 523.986 1269.22 Q523.986 1266.12 522.203 1264.43 Q520.421 1262.74 517.157 1262.74 L511.277 1262.74 M506.602 1258.9 L517.157 1258.9 Q522.967 1258.9 525.93 1261.54 Q528.916 1264.15 528.916 1269.22 Q528.916 1274.34 525.93 1276.95 Q522.967 1279.57 517.157 1279.57 L511.277 1279.57 L511.277 1293.46 L506.602 1293.46 L506.602 1258.9 Z" fill="#000000" fill-rule="nonzero" fill-opacity="1" /><path clip-path="url(#clip060)" d="M549.194 1271.51 Q548.476 1271.1 547.62 1270.91 Q546.786 1270.7 545.768 1270.7 Q542.157 1270.7 540.212 1273.06 Q538.291 1275.4 538.291 1279.8 L538.291 1293.46 L534.009 1293.46 L534.009 1267.53 L538.291 1267.53 L538.291 1271.56 Q539.634 1269.2 541.787 1268.06 Q543.939 1266.91 547.018 1266.91 Q547.458 1266.91 547.99 1266.97 Q548.523 1267.02 549.171 1267.14 L549.194 1271.51 Z" fill="#000000" fill-rule="nonzero" fill-opacity="1" /><path clip-path="url(#clip060)" d="M574.796 1279.43 L574.796 1281.51 L555.212 1281.51 Q555.49 1285.91 557.851 1288.22 Q560.235 1290.52 564.472 1290.52 Q566.925 1290.52 569.217 1289.91 Q571.532 1289.31 573.8 1288.11 L573.8 1292.14 Q571.509 1293.11 569.101 1293.62 Q566.694 1294.13 564.217 1294.13 Q558.013 1294.13 554.379 1290.52 Q550.768 1286.91 550.768 1280.75 Q550.768 1274.38 554.194 1270.66 Q557.643 1266.91 563.476 1266.91 Q568.708 1266.91 571.74 1270.29 Q574.796 1273.64 574.796 1279.43 M570.536 1278.18 Q570.49 1274.68 568.569 1272.6 Q566.671 1270.52 563.522 1270.52 Q559.958 1270.52 557.805 1272.53 Q555.675 1274.54 555.351 1278.2 L570.536 1278.18 Z" fill="#000000" fill-rule="nonzero" fill-opacity="1" /><path clip-path="url(#clip060)" d="M598.846 1271.47 L598.846 1257.44 L603.106 1257.44 L603.106 1293.46 L598.846 1293.46 L598.846 1289.57 Q597.504 1291.88 595.444 1293.02 Q593.407 1294.13 590.536 1294.13 Q585.837 1294.13 582.874 1290.38 Q579.934 1286.63 579.934 1280.52 Q579.934 1274.41 582.874 1270.66 Q585.837 1266.91 590.536 1266.91 Q593.407 1266.91 595.444 1268.04 Q597.504 1269.15 598.846 1271.47 M584.333 1280.52 Q584.333 1285.22 586.254 1287.9 Q588.198 1290.56 591.578 1290.56 Q594.958 1290.56 596.902 1287.9 Q598.846 1285.22 598.846 1280.52 Q598.846 1275.82 596.902 1273.16 Q594.958 1270.47 591.578 1270.47 Q588.198 1270.47 586.254 1273.16 Q584.333 1275.82 584.333 1280.52 Z" fill="#000000" fill-rule="nonzero" fill-opacity="1" /><path clip-path="url(#clip060)" d="M611.879 1267.53 L616.138 1267.53 L616.138 1293.46 L611.879 1293.46 L611.879 1267.53 M611.879 1257.44 L616.138 1257.44 L616.138 1262.83 L611.879 1262.83 L611.879 1257.44 Z" fill="#000000" fill-rule="nonzero" fill-opacity="1" /><path clip-path="url(#clip060)" d="M643.707 1268.53 L643.707 1272.51 Q641.902 1271.51 640.073 1271.03 Q638.267 1270.52 636.416 1270.52 Q632.272 1270.52 629.98 1273.16 Q627.689 1275.77 627.689 1280.52 Q627.689 1285.26 629.98 1287.9 Q632.272 1290.52 636.416 1290.52 Q638.267 1290.52 640.073 1290.03 Q641.902 1289.52 643.707 1288.53 L643.707 1292.46 Q641.925 1293.29 640.004 1293.71 Q638.105 1294.13 635.953 1294.13 Q630.096 1294.13 626.647 1290.45 Q623.198 1286.77 623.198 1280.52 Q623.198 1274.17 626.67 1270.54 Q630.166 1266.91 636.23 1266.91 Q638.198 1266.91 640.073 1267.32 Q641.948 1267.72 643.707 1268.53 Z" fill="#000000" fill-rule="nonzero" fill-opacity="1" /><path clip-path="url(#clip060)" d="M655.328 1260.17 L655.328 1267.53 L664.101 1267.53 L664.101 1270.84 L655.328 1270.84 L655.328 1284.91 Q655.328 1288.09 656.184 1288.99 Q657.064 1289.89 659.726 1289.89 L664.101 1289.89 L664.101 1293.46 L659.726 1293.46 Q654.795 1293.46 652.92 1291.63 Q651.045 1289.78 651.045 1284.91 L651.045 1270.84 L647.92 1270.84 L647.92 1267.53 L651.045 1267.53 L651.045 1260.17 L655.328 1260.17 Z" fill="#000000" fill-rule="nonzero" fill-opacity="1" /><path clip-path="url(#clip060)" d="M691.878 1279.43 L691.878 1281.51 L672.295 1281.51 Q672.573 1285.91 674.934 1288.22 Q677.318 1290.52 681.554 1290.52 Q684.008 1290.52 686.3 1289.91 Q688.614 1289.31 690.883 1288.11 L690.883 1292.14 Q688.591 1293.11 686.184 1293.62 Q683.776 1294.13 681.3 1294.13 Q675.096 1294.13 671.462 1290.52 Q667.851 1286.91 667.851 1280.75 Q667.851 1274.38 671.277 1270.66 Q674.726 1266.91 680.559 1266.91 Q685.79 1266.91 688.823 1270.29 Q691.878 1273.64 691.878 1279.43 M687.619 1278.18 Q687.573 1274.68 685.651 1272.6 Q683.753 1270.52 680.605 1270.52 Q677.04 1270.52 674.888 1272.53 Q672.758 1274.54 672.434 1278.2 L687.619 1278.18 Z" fill="#000000" fill-rule="nonzero" fill-opacity="1" /><path clip-path="url(#clip060)" d="M715.929 1271.47 L715.929 1257.44 L720.188 1257.44 L720.188 1293.46 L715.929 1293.46 L715.929 1289.57 Q714.587 1291.88 712.526 1293.02 Q710.489 1294.13 707.619 1294.13 Q702.92 1294.13 699.957 1290.38 Q697.017 1286.63 697.017 1280.52 Q697.017 1274.41 699.957 1270.66 Q702.92 1266.91 707.619 1266.91 Q710.489 1266.91 712.526 1268.04 Q714.587 1269.15 715.929 1271.47 M701.415 1280.52 Q701.415 1285.22 703.337 1287.9 Q705.281 1290.56 708.661 1290.56 Q712.04 1290.56 713.985 1287.9 Q715.929 1285.22 715.929 1280.52 Q715.929 1275.82 713.985 1273.16 Q712.04 1270.47 708.661 1270.47 Q705.281 1270.47 703.337 1273.16 Q701.415 1275.82 701.415 1280.52 Z" fill="#000000" fill-rule="nonzero" fill-opacity="1" /><path clip-path="url(#clip060)" d="M748.892 1262.74 L748.892 1275.72 L754.771 1275.72 Q758.035 1275.72 759.818 1274.04 Q761.6 1272.35 761.6 1269.22 Q761.6 1266.12 759.818 1264.43 Q758.035 1262.74 754.771 1262.74 L748.892 1262.74 M744.216 1258.9 L754.771 1258.9 Q760.582 1258.9 763.545 1261.54 Q766.531 1264.15 766.531 1269.22 Q766.531 1274.34 763.545 1276.95 Q760.582 1279.57 754.771 1279.57 L748.892 1279.57 L748.892 1293.46 L744.216 1293.46 L744.216 1258.9 Z" fill="#000000" fill-rule="nonzero" fill-opacity="1" /><path clip-path="url(#clip060)" d="M780.975 1270.52 Q777.549 1270.52 775.558 1273.2 Q773.568 1275.86 773.568 1280.52 Q773.568 1285.17 775.535 1287.85 Q777.526 1290.52 780.975 1290.52 Q784.378 1290.52 786.369 1287.83 Q788.359 1285.15 788.359 1280.52 Q788.359 1275.91 786.369 1273.22 Q784.378 1270.52 780.975 1270.52 M780.975 1266.91 Q786.531 1266.91 789.702 1270.52 Q792.873 1274.13 792.873 1280.52 Q792.873 1286.88 789.702 1290.52 Q786.531 1294.13 780.975 1294.13 Q775.396 1294.13 772.225 1290.52 Q769.077 1286.88 769.077 1280.52 Q769.077 1274.13 772.225 1270.52 Q775.396 1266.91 780.975 1266.91 Z" fill="#000000" fill-rule="nonzero" fill-opacity="1" /><path clip-path="url(#clip060)" d="M799.933 1267.53 L804.193 1267.53 L804.193 1293.46 L799.933 1293.46 L799.933 1267.53 M799.933 1257.44 L804.193 1257.44 L804.193 1262.83 L799.933 1262.83 L799.933 1257.44 Z" fill="#000000" fill-rule="nonzero" fill-opacity="1" /><path clip-path="url(#clip060)" d="M834.655 1277.81 L834.655 1293.46 L830.396 1293.46 L830.396 1277.95 Q830.396 1274.27 828.961 1272.44 Q827.526 1270.61 824.655 1270.61 Q821.206 1270.61 819.216 1272.81 Q817.225 1275.01 817.225 1278.8 L817.225 1293.46 L812.942 1293.46 L812.942 1267.53 L817.225 1267.53 L817.225 1271.56 Q818.753 1269.22 820.813 1268.06 Q822.896 1266.91 825.604 1266.91 Q830.072 1266.91 832.364 1269.68 Q834.655 1272.44 834.655 1277.81 Z" fill="#000000" fill-rule="nonzero" fill-opacity="1" /><path clip-path="url(#clip060)" d="M847.364 1260.17 L847.364 1267.53 L856.137 1267.53 L856.137 1270.84 L847.364 1270.84 L847.364 1284.91 Q847.364 1288.09 848.22 1288.99 Q849.1 1289.89 851.762 1289.89 L856.137 1289.89 L856.137 1293.46 L851.762 1293.46 Q846.831 1293.46 844.956 1291.63 Q843.081 1289.78 843.081 1284.91 L843.081 1270.84 L839.956 1270.84 L839.956 1267.53 L843.081 1267.53 L843.081 1260.17 L847.364 1260.17 Z" fill="#000000" fill-rule="nonzero" fill-opacity="1" /><path clip-path="url(#clip060)" d="M878.266 1268.29 L878.266 1272.32 Q876.461 1271.4 874.516 1270.93 Q872.572 1270.47 870.488 1270.47 Q867.317 1270.47 865.72 1271.44 Q864.146 1272.41 864.146 1274.36 Q864.146 1275.84 865.28 1276.7 Q866.414 1277.53 869.84 1278.29 L871.299 1278.62 Q875.836 1279.59 877.734 1281.37 Q879.655 1283.13 879.655 1286.3 Q879.655 1289.91 876.785 1292.02 Q873.938 1294.13 868.938 1294.13 Q866.854 1294.13 864.586 1293.71 Q862.34 1293.32 859.84 1292.51 L859.84 1288.11 Q862.201 1289.34 864.493 1289.96 Q866.785 1290.56 869.03 1290.56 Q872.039 1290.56 873.66 1289.54 Q875.28 1288.5 875.28 1286.63 Q875.28 1284.89 874.1 1283.97 Q872.942 1283.04 868.984 1282.18 L867.502 1281.84 Q863.544 1281 861.785 1279.29 Q860.026 1277.55 860.026 1274.54 Q860.026 1270.89 862.618 1268.9 Q865.211 1266.91 869.979 1266.91 Q872.34 1266.91 874.424 1267.25 Q876.507 1267.6 878.266 1268.29 Z" fill="#000000" fill-rule="nonzero" fill-opacity="1" /><polyline clip-path="url(#clip060)" style="stroke:#3da44d; stroke-linecap:round; stroke-linejoin:round; stroke-width:8; stroke-opacity:1; fill:none" points="343.018,1328.02 483.232,1328.02 "/>
<path clip-path="url(#clip060)" d="M522.435 1315.34 L516.092 1332.54 L528.8 1332.54 L522.435 1315.34 M519.796 1310.74 L525.097 1310.74 L538.268 1345.3 L533.407 1345.3 L530.259 1336.43 L514.68 1336.43 L511.532 1345.3 L506.602 1345.3 L519.796 1310.74 Z" fill="#000000" fill-rule="nonzero" fill-opacity="1" /><path clip-path="url(#clip060)" d="M560.953 1320.37 L560.953 1324.35 Q559.148 1323.35 557.319 1322.87 Q555.513 1322.36 553.661 1322.36 Q549.518 1322.36 547.226 1325 Q544.935 1327.61 544.935 1332.36 Q544.935 1337.1 547.226 1339.74 Q549.518 1342.36 553.661 1342.36 Q555.513 1342.36 557.319 1341.87 Q559.148 1341.36 560.953 1340.37 L560.953 1344.3 Q559.171 1345.13 557.249 1345.55 Q555.351 1345.97 553.198 1345.97 Q547.342 1345.97 543.893 1342.29 Q540.444 1338.61 540.444 1332.36 Q540.444 1326.01 543.916 1322.38 Q547.411 1318.75 553.476 1318.75 Q555.444 1318.75 557.319 1319.16 Q559.194 1319.56 560.953 1320.37 Z" fill="#000000" fill-rule="nonzero" fill-opacity="1" /><path clip-path="url(#clip060)" d="M572.573 1312.01 L572.573 1319.37 L581.346 1319.37 L581.346 1322.68 L572.573 1322.68 L572.573 1336.75 Q572.573 1339.93 573.43 1340.83 Q574.309 1341.73 576.971 1341.73 L581.346 1341.73 L581.346 1345.3 L576.971 1345.3 Q572.041 1345.3 570.166 1343.47 Q568.291 1341.62 568.291 1336.75 L568.291 1322.68 L565.166 1322.68 L565.166 1319.37 L568.291 1319.37 L568.291 1312.01 L572.573 1312.01 Z" fill="#000000" fill-rule="nonzero" fill-opacity="1" /><path clip-path="url(#clip060)" d="M586.508 1335.06 L586.508 1319.37 L590.768 1319.37 L590.768 1334.9 Q590.768 1338.58 592.203 1340.44 Q593.638 1342.26 596.508 1342.26 Q599.957 1342.26 601.948 1340.06 Q603.962 1337.87 603.962 1334.07 L603.962 1319.37 L608.221 1319.37 L608.221 1345.3 L603.962 1345.3 L603.962 1341.31 Q602.411 1343.68 600.351 1344.83 Q598.314 1345.97 595.606 1345.97 Q591.138 1345.97 588.823 1343.19 Q586.508 1340.41 586.508 1335.06 M597.226 1318.75 L597.226 1318.75 Z" fill="#000000" fill-rule="nonzero" fill-opacity="1" /><path clip-path="url(#clip060)" d="M628.777 1332.26 Q623.615 1332.26 621.624 1333.44 Q619.633 1334.63 619.633 1337.47 Q619.633 1339.74 621.115 1341.08 Q622.619 1342.4 625.189 1342.4 Q628.73 1342.4 630.86 1339.9 Q633.013 1337.38 633.013 1333.21 L633.013 1332.26 L628.777 1332.26 M637.272 1330.5 L637.272 1345.3 L633.013 1345.3 L633.013 1341.36 Q631.555 1343.72 629.379 1344.86 Q627.203 1345.97 624.055 1345.97 Q620.073 1345.97 617.712 1343.75 Q615.374 1341.5 615.374 1337.75 Q615.374 1333.38 618.291 1331.15 Q621.231 1328.93 627.041 1328.93 L633.013 1328.93 L633.013 1328.51 Q633.013 1325.57 631.068 1323.98 Q629.147 1322.36 625.652 1322.36 Q623.43 1322.36 621.323 1322.89 Q619.217 1323.42 617.272 1324.49 L617.272 1320.55 Q619.61 1319.65 621.809 1319.21 Q624.008 1318.75 626.092 1318.75 Q631.717 1318.75 634.494 1321.66 Q637.272 1324.58 637.272 1330.5 Z" fill="#000000" fill-rule="nonzero" fill-opacity="1" /><path clip-path="url(#clip060)" d="M646.045 1309.28 L650.304 1309.28 L650.304 1345.3 L646.045 1345.3 L646.045 1309.28 Z" fill="#000000" fill-rule="nonzero" fill-opacity="1" /><path clip-path="url(#clip060)" d="M679.147 1314.58 L679.147 1341.45 L684.795 1341.45 Q691.948 1341.45 695.258 1338.21 Q698.591 1334.97 698.591 1327.98 Q698.591 1321.04 695.258 1317.82 Q691.948 1314.58 684.795 1314.58 L679.147 1314.58 M674.471 1310.74 L684.077 1310.74 Q694.124 1310.74 698.823 1314.93 Q703.522 1319.09 703.522 1327.98 Q703.522 1336.92 698.8 1341.11 Q694.077 1345.3 684.077 1345.3 L674.471 1345.3 L674.471 1310.74 Z" fill="#000000" fill-rule="nonzero" fill-opacity="1" /><path clip-path="url(#clip060)" d="M722.573 1332.26 Q717.411 1332.26 715.42 1333.44 Q713.429 1334.63 713.429 1337.47 Q713.429 1339.74 714.911 1341.08 Q716.415 1342.4 718.985 1342.4 Q722.526 1342.4 724.656 1339.9 Q726.809 1337.38 726.809 1333.21 L726.809 1332.26 L722.573 1332.26 M731.068 1330.5 L731.068 1345.3 L726.809 1345.3 L726.809 1341.36 Q725.35 1343.72 723.174 1344.86 Q720.999 1345.97 717.85 1345.97 Q713.869 1345.97 711.508 1343.75 Q709.17 1341.5 709.17 1337.75 Q709.17 1333.38 712.087 1331.15 Q715.026 1328.93 720.836 1328.93 L726.809 1328.93 L726.809 1328.51 Q726.809 1325.57 724.864 1323.98 Q722.943 1322.36 719.448 1322.36 Q717.225 1322.36 715.119 1322.89 Q713.012 1323.42 711.068 1324.49 L711.068 1320.55 Q713.406 1319.65 715.605 1319.21 Q717.804 1318.75 719.887 1318.75 Q725.512 1318.75 728.29 1321.66 Q731.068 1324.58 731.068 1330.5 Z" fill="#000000" fill-rule="nonzero" fill-opacity="1" /><path clip-path="url(#clip060)" d="M744.054 1312.01 L744.054 1319.37 L752.827 1319.37 L752.827 1322.68 L744.054 1322.68 L744.054 1336.75 Q744.054 1339.93 744.91 1340.83 Q745.79 1341.73 748.452 1341.73 L752.827 1341.73 L752.827 1345.3 L748.452 1345.3 Q743.522 1345.3 741.647 1343.47 Q739.772 1341.62 739.772 1336.75 L739.772 1322.68 L736.647 1322.68 L736.647 1319.37 L739.772 1319.37 L739.772 1312.01 L744.054 1312.01 Z" fill="#000000" fill-rule="nonzero" fill-opacity="1" /><path clip-path="url(#clip060)" d="M770.211 1332.26 Q765.049 1332.26 763.058 1333.44 Q761.068 1334.63 761.068 1337.47 Q761.068 1339.74 762.549 1341.08 Q764.054 1342.4 766.623 1342.4 Q770.165 1342.4 772.295 1339.9 Q774.447 1337.38 774.447 1333.21 L774.447 1332.26 L770.211 1332.26 M778.707 1330.5 L778.707 1345.3 L774.447 1345.3 L774.447 1341.36 Q772.989 1343.72 770.813 1344.86 Q768.637 1345.97 765.489 1345.97 Q761.508 1345.97 759.146 1343.75 Q756.808 1341.5 756.808 1337.75 Q756.808 1333.38 759.725 1331.15 Q762.665 1328.93 768.475 1328.93 L774.447 1328.93 L774.447 1328.51 Q774.447 1325.57 772.503 1323.98 Q770.582 1322.36 767.086 1322.36 Q764.864 1322.36 762.758 1322.89 Q760.651 1323.42 758.707 1324.49 L758.707 1320.55 Q761.045 1319.65 763.244 1319.21 Q765.443 1318.75 767.526 1318.75 Q773.151 1318.75 775.929 1321.66 Q778.707 1324.58 778.707 1330.5 Z" fill="#000000" fill-rule="nonzero" fill-opacity="1" /></svg>
