<?xml version="1.0" encoding="utf-8"?>
<svg xmlns="http://www.w3.org/2000/svg" xmlns:xlink="http://www.w3.org/1999/xlink" width="600" height="400" viewBox="0 0 2400 1600">
<defs>
  <clipPath id="clip950">
    <rect x="0" y="0" width="2400" height="1600"/>
  </clipPath>
</defs>
<path clip-path="url(#clip950)" d="M0 1600 L2400 1600 L2400 8.88178e-14 L0 8.88178e-14  Z" fill="#ffffff" fill-rule="evenodd" fill-opacity="1"/>
<defs>
  <clipPath id="clip951">
    <rect x="480" y="0" width="1681" height="1600"/>
  </clipPath>
</defs>
<path clip-path="url(#clip950)" d="M249.542 1423.18 L2352.76 1423.18 L2352.76 123.472 L249.542 123.472  Z" fill="#ffffff" fill-rule="evenodd" fill-opacity="1"/>
<defs>
  <clipPath id="clip952">
    <rect x="249" y="123" width="2104" height="1301"/>
  </clipPath>
</defs>
<polyline clip-path="url(#clip952)" style="stroke:#000000; stroke-linecap:round; stroke-linejoin:round; stroke-width:2; stroke-opacity:0.1; fill:none" points="288.181,1423.18 288.181,123.472 "/>
<polyline clip-path="url(#clip952)" style="stroke:#000000; stroke-linecap:round; stroke-linejoin:round; stroke-width:2; stroke-opacity:0.1; fill:none" points="705.9,1423.18 705.9,123.472 "/>
<polyline clip-path="url(#clip952)" style="stroke:#000000; stroke-linecap:round; stroke-linejoin:round; stroke-width:2; stroke-opacity:0.1; fill:none" points="1123.62,1423.18 1123.62,123.472 "/>
<polyline clip-path="url(#clip952)" style="stroke:#000000; stroke-linecap:round; stroke-linejoin:round; stroke-width:2; stroke-opacity:0.1; fill:none" points="1541.34,1423.18 1541.34,123.472 "/>
<polyline clip-path="url(#clip952)" style="stroke:#000000; stroke-linecap:round; stroke-linejoin:round; stroke-width:2; stroke-opacity:0.1; fill:none" points="1959.06,1423.18 1959.06,123.472 "/>
<polyline clip-path="url(#clip950)" style="stroke:#000000; stroke-linecap:round; stroke-linejoin:round; stroke-width:4; stroke-opacity:1; fill:none" points="249.542,1423.18 2352.76,1423.18 "/>
<polyline clip-path="url(#clip950)" style="stroke:#000000; stroke-linecap:round; stroke-linejoin:round; stroke-width:4; stroke-opacity:1; fill:none" points="288.181,1423.18 288.181,1404.28 "/>
<polyline clip-path="url(#clip950)" style="stroke:#000000; stroke-linecap:round; stroke-linejoin:round; stroke-width:4; stroke-opacity:1; fill:none" points="705.9,1423.18 705.9,1404.28 "/>
<polyline clip-path="url(#clip950)" style="stroke:#000000; stroke-linecap:round; stroke-linejoin:round; stroke-width:4; stroke-opacity:1; fill:none" points="1123.62,1423.18 1123.62,1404.28 "/>
<polyline clip-path="url(#clip950)" style="stroke:#000000; stroke-linecap:round; stroke-linejoin:round; stroke-width:4; stroke-opacity:1; fill:none" points="1541.34,1423.18 1541.34,1404.28 "/>
<polyline clip-path="url(#clip950)" style="stroke:#000000; stroke-linecap:round; stroke-linejoin:round; stroke-width:4; stroke-opacity:1; fill:none" points="1959.06,1423.18 1959.06,1404.28 "/>
<path clip-path="url(#clip950)" d="M288.181 1454.1 Q284.57 1454.1 282.741 1457.66 Q280.936 1461.2 280.936 1468.33 Q280.936 1475.44 282.741 1479.01 Q284.57 1482.55 288.181 1482.55 Q291.815 1482.55 293.621 1479.01 Q295.449 1475.44 295.449 1468.33 Q295.449 1461.2 293.621 1457.66 Q291.815 1454.1 288.181 1454.1 M288.181 1450.39 Q293.991 1450.39 297.047 1455 Q300.125 1459.58 300.125 1468.33 Q300.125 1477.06 297.047 1481.67 Q293.991 1486.25 288.181 1486.25 Q282.371 1486.25 279.292 1481.67 Q276.237 1477.06 276.237 1468.33 Q276.237 1459.58 279.292 1455 Q282.371 1450.39 288.181 1450.39 Z" fill="#000000" fill-rule="nonzero" fill-opacity="1" /><path clip-path="url(#clip950)" d="M684.673 1481.64 L700.992 1481.64 L700.992 1485.58 L679.048 1485.58 L679.048 1481.64 Q681.71 1478.89 686.293 1474.26 Q690.9 1469.61 692.08 1468.27 Q694.326 1465.74 695.205 1464.01 Q696.108 1462.25 696.108 1460.56 Q696.108 1457.8 694.164 1456.07 Q692.242 1454.33 689.141 1454.33 Q686.942 1454.33 684.488 1455.09 Q682.057 1455.86 679.28 1457.41 L679.28 1452.69 Q682.104 1451.55 684.557 1450.97 Q687.011 1450.39 689.048 1450.39 Q694.418 1450.39 697.613 1453.08 Q700.807 1455.77 700.807 1460.26 Q700.807 1462.39 699.997 1464.31 Q699.21 1466.2 697.104 1468.8 Q696.525 1469.47 693.423 1472.69 Q690.321 1475.88 684.673 1481.64 Z" fill="#000000" fill-rule="nonzero" fill-opacity="1" /><path clip-path="url(#clip950)" d="M720.807 1454.1 Q717.196 1454.1 715.367 1457.66 Q713.562 1461.2 713.562 1468.33 Q713.562 1475.44 715.367 1479.01 Q717.196 1482.55 720.807 1482.55 Q724.441 1482.55 726.247 1479.01 Q728.076 1475.44 728.076 1468.33 Q728.076 1461.2 726.247 1457.66 Q724.441 1454.1 720.807 1454.1 M720.807 1450.39 Q726.617 1450.39 729.673 1455 Q732.751 1459.58 732.751 1468.33 Q732.751 1477.06 729.673 1481.67 Q726.617 1486.25 720.807 1486.25 Q714.997 1486.25 711.918 1481.67 Q708.863 1477.06 708.863 1468.33 Q708.863 1459.58 711.918 1455 Q714.997 1450.39 720.807 1450.39 Z" fill="#000000" fill-rule="nonzero" fill-opacity="1" /><path clip-path="url(#clip950)" d="M1111.79 1455.09 L1099.98 1473.54 L1111.79 1473.54 L1111.79 1455.09 M1110.56 1451.02 L1116.44 1451.02 L1116.44 1473.54 L1121.37 1473.54 L1121.37 1477.43 L1116.44 1477.43 L1116.44 1485.58 L1111.79 1485.58 L1111.79 1477.43 L1096.19 1477.43 L1096.19 1472.92 L1110.56 1451.02 Z" fill="#000000" fill-rule="nonzero" fill-opacity="1" /><path clip-path="url(#clip950)" d="M1139.1 1454.1 Q1135.49 1454.1 1133.66 1457.66 Q1131.86 1461.2 1131.86 1468.33 Q1131.86 1475.44 1133.66 1479.01 Q1135.49 1482.55 1139.1 1482.55 Q1142.74 1482.55 1144.54 1479.01 Q1146.37 1475.44 1146.37 1468.33 Q1146.37 1461.2 1144.54 1457.66 Q1142.74 1454.1 1139.1 1454.1 M1139.1 1450.39 Q1144.91 1450.39 1147.97 1455 Q1151.05 1459.58 1151.05 1468.33 Q1151.05 1477.06 1147.97 1481.67 Q1144.91 1486.25 1139.1 1486.25 Q1133.29 1486.25 1130.22 1481.67 Q1127.16 1477.06 1127.16 1468.33 Q1127.16 1459.58 1130.22 1455 Q1133.29 1450.39 1139.1 1450.39 Z" fill="#000000" fill-rule="nonzero" fill-opacity="1" /><path clip-path="url(#clip950)" d="M1526.74 1466.44 Q1523.59 1466.44 1521.74 1468.59 Q1519.91 1470.74 1519.91 1474.49 Q1519.91 1478.22 1521.74 1480.39 Q1523.59 1482.55 1526.74 1482.55 Q1529.89 1482.55 1531.72 1480.39 Q1533.57 1478.22 1533.57 1474.49 Q1533.57 1470.74 1531.72 1468.59 Q1529.89 1466.44 1526.74 1466.44 M1536.02 1451.78 L1536.02 1456.04 Q1534.27 1455.21 1532.46 1454.77 Q1530.68 1454.33 1528.92 1454.33 Q1524.29 1454.33 1521.84 1457.45 Q1519.4 1460.58 1519.06 1466.9 Q1520.42 1464.89 1522.48 1463.82 Q1524.54 1462.73 1527.02 1462.73 Q1532.23 1462.73 1535.24 1465.9 Q1538.27 1469.05 1538.27 1474.49 Q1538.27 1479.82 1535.12 1483.03 Q1531.97 1486.25 1526.74 1486.25 Q1520.75 1486.25 1517.58 1481.67 Q1514.4 1477.06 1514.4 1468.33 Q1514.4 1460.14 1518.29 1455.28 Q1522.18 1450.39 1528.73 1450.39 Q1530.49 1450.39 1532.27 1450.74 Q1534.08 1451.09 1536.02 1451.78 Z" fill="#000000" fill-rule="nonzero" fill-opacity="1" /><path clip-path="url(#clip950)" d="M1556.33 1454.1 Q1552.71 1454.1 1550.89 1457.66 Q1549.08 1461.2 1549.08 1468.33 Q1549.08 1475.44 1550.89 1479.01 Q1552.71 1482.55 1556.33 1482.55 Q1559.96 1482.55 1561.77 1479.01 Q1563.59 1475.44 1563.59 1468.33 Q1563.59 1461.2 1561.77 1457.66 Q1559.96 1454.1 1556.33 1454.1 M1556.33 1450.39 Q1562.14 1450.39 1565.19 1455 Q1568.27 1459.58 1568.27 1468.33 Q1568.27 1477.06 1565.19 1481.67 Q1562.14 1486.25 1556.33 1486.25 Q1550.52 1486.25 1547.44 1481.67 Q1544.38 1477.06 1544.38 1468.33 Q1544.38 1459.58 1547.44 1455 Q1550.52 1450.39 1556.33 1450.39 Z" fill="#000000" fill-rule="nonzero" fill-opacity="1" /><path clip-path="url(#clip950)" d="M1943.93 1469.17 Q1940.6 1469.17 1938.67 1470.95 Q1936.78 1472.73 1936.78 1475.86 Q1936.78 1478.98 1938.67 1480.77 Q1940.6 1482.55 1943.93 1482.55 Q1947.26 1482.55 1949.18 1480.77 Q1951.1 1478.96 1951.1 1475.86 Q1951.1 1472.73 1949.18 1470.95 Q1947.29 1469.17 1943.93 1469.17 M1939.25 1467.18 Q1936.24 1466.44 1934.55 1464.38 Q1932.89 1462.32 1932.89 1459.35 Q1932.89 1455.21 1935.83 1452.8 Q1938.79 1450.39 1943.93 1450.39 Q1949.09 1450.39 1952.03 1452.8 Q1954.97 1455.21 1954.97 1459.35 Q1954.97 1462.32 1953.28 1464.38 Q1951.61 1466.44 1948.63 1467.18 Q1952.01 1467.96 1953.88 1470.26 Q1955.78 1472.55 1955.78 1475.86 Q1955.78 1480.88 1952.7 1483.57 Q1949.65 1486.25 1943.93 1486.25 Q1938.21 1486.25 1935.13 1483.57 Q1932.08 1480.88 1932.08 1475.86 Q1932.08 1472.55 1933.98 1470.26 Q1935.87 1467.96 1939.25 1467.18 M1937.54 1459.79 Q1937.54 1462.48 1939.21 1463.98 Q1940.9 1465.49 1943.93 1465.49 Q1946.94 1465.49 1948.63 1463.98 Q1950.34 1462.48 1950.34 1459.79 Q1950.34 1457.11 1948.63 1455.6 Q1946.94 1454.1 1943.93 1454.1 Q1940.9 1454.1 1939.21 1455.6 Q1937.54 1457.11 1937.54 1459.79 Z" fill="#000000" fill-rule="nonzero" fill-opacity="1" /><path clip-path="url(#clip950)" d="M1974.09 1454.1 Q1970.48 1454.1 1968.65 1457.66 Q1966.85 1461.2 1966.85 1468.33 Q1966.85 1475.44 1968.65 1479.01 Q1970.48 1482.55 1974.09 1482.55 Q1977.72 1482.55 1979.53 1479.01 Q1981.36 1475.44 1981.36 1468.33 Q1981.36 1461.2 1979.53 1457.66 Q1977.72 1454.1 1974.09 1454.1 M1974.09 1450.39 Q1979.9 1450.39 1982.96 1455 Q1986.04 1459.58 1986.04 1468.33 Q1986.04 1477.06 1982.96 1481.67 Q1979.9 1486.25 1974.09 1486.25 Q1968.28 1486.25 1965.2 1481.67 Q1962.15 1477.06 1962.15 1468.33 Q1962.15 1459.58 1965.2 1455 Q1968.28 1450.39 1974.09 1450.39 Z" fill="#000000" fill-rule="nonzero" fill-opacity="1" /><path clip-path="url(#clip950)" d="M1300.21 1522.27 L1300.21 1532.4 L1312.27 1532.4 L1312.27 1536.95 L1300.21 1536.95 L1300.21 1556.3 Q1300.21 1560.66 1301.39 1561.9 Q1302.6 1563.14 1306.26 1563.14 L1312.27 1563.14 L1312.27 1568.04 L1306.26 1568.04 Q1299.48 1568.04 1296.9 1565.53 Q1294.32 1562.98 1294.32 1556.3 L1294.32 1536.95 L1290.02 1536.95 L1290.02 1532.4 L1294.32 1532.4 L1294.32 1522.27 L1300.21 1522.27 Z" fill="#000000" fill-rule="nonzero" fill-opacity="1" /><polyline clip-path="url(#clip952)" style="stroke:#000000; stroke-linecap:round; stroke-linejoin:round; stroke-width:2; stroke-opacity:0.1; fill:none" points="249.542,1266.17 2352.76,1266.17 "/>
<polyline clip-path="url(#clip952)" style="stroke:#000000; stroke-linecap:round; stroke-linejoin:round; stroke-width:2; stroke-opacity:0.1; fill:none" points="249.542,1033.3 2352.76,1033.3 "/>
<polyline clip-path="url(#clip952)" style="stroke:#000000; stroke-linecap:round; stroke-linejoin:round; stroke-width:2; stroke-opacity:0.1; fill:none" points="249.542,800.432 2352.76,800.432 "/>
<polyline clip-path="url(#clip952)" style="stroke:#000000; stroke-linecap:round; stroke-linejoin:round; stroke-width:2; stroke-opacity:0.1; fill:none" points="249.542,567.561 2352.76,567.561 "/>
<polyline clip-path="url(#clip952)" style="stroke:#000000; stroke-linecap:round; stroke-linejoin:round; stroke-width:2; stroke-opacity:0.1; fill:none" points="249.542,334.689 2352.76,334.689 "/>
<polyline clip-path="url(#clip950)" style="stroke:#000000; stroke-linecap:round; stroke-linejoin:round; stroke-width:4; stroke-opacity:1; fill:none" points="249.542,1423.18 249.542,123.472 "/>
<polyline clip-path="url(#clip950)" style="stroke:#000000; stroke-linecap:round; stroke-linejoin:round; stroke-width:4; stroke-opacity:1; fill:none" points="249.542,1266.17 268.44,1266.17 "/>
<polyline clip-path="url(#clip950)" style="stroke:#000000; stroke-linecap:round; stroke-linejoin:round; stroke-width:4; stroke-opacity:1; fill:none" points="249.542,1033.3 268.44,1033.3 "/>
<polyline clip-path="url(#clip950)" style="stroke:#000000; stroke-linecap:round; stroke-linejoin:round; stroke-width:4; stroke-opacity:1; fill:none" points="249.542,800.432 268.44,800.432 "/>
<polyline clip-path="url(#clip950)" style="stroke:#000000; stroke-linecap:round; stroke-linejoin:round; stroke-width:4; stroke-opacity:1; fill:none" points="249.542,567.561 268.44,567.561 "/>
<polyline clip-path="url(#clip950)" style="stroke:#000000; stroke-linecap:round; stroke-linejoin:round; stroke-width:4; stroke-opacity:1; fill:none" points="249.542,334.689 268.44,334.689 "/>
<path clip-path="url(#clip950)" d="M126.205 1251.97 Q122.593 1251.97 120.765 1255.54 Q118.959 1259.08 118.959 1266.21 Q118.959 1273.32 120.765 1276.88 Q122.593 1280.42 126.205 1280.42 Q129.839 1280.42 131.644 1276.88 Q133.473 1273.32 133.473 1266.21 Q133.473 1259.08 131.644 1255.54 Q129.839 1251.97 126.205 1251.97 M126.205 1248.27 Q132.015 1248.27 135.07 1252.88 Q138.149 1257.46 138.149 1266.21 Q138.149 1274.94 135.07 1279.54 Q132.015 1284.13 126.205 1284.13 Q120.394 1284.13 117.316 1279.54 Q114.26 1274.94 114.26 1266.21 Q114.26 1257.46 117.316 1252.88 Q120.394 1248.27 126.205 1248.27 Z" fill="#000000" fill-rule="nonzero" fill-opacity="1" /><path clip-path="url(#clip950)" d="M146.366 1277.58 L151.251 1277.58 L151.251 1283.45 L146.366 1283.45 L146.366 1277.58 Z" fill="#000000" fill-rule="nonzero" fill-opacity="1" /><path clip-path="url(#clip950)" d="M171.436 1251.97 Q167.825 1251.97 165.996 1255.54 Q164.19 1259.08 164.19 1266.21 Q164.19 1273.32 165.996 1276.88 Q167.825 1280.42 171.436 1280.42 Q175.07 1280.42 176.876 1276.88 Q178.704 1273.32 178.704 1266.21 Q178.704 1259.08 176.876 1255.54 Q175.07 1251.97 171.436 1251.97 M171.436 1248.27 Q177.246 1248.27 180.301 1252.88 Q183.38 1257.46 183.38 1266.21 Q183.38 1274.94 180.301 1279.54 Q177.246 1284.13 171.436 1284.13 Q165.626 1284.13 162.547 1279.54 Q159.491 1274.94 159.491 1266.21 Q159.491 1257.46 162.547 1252.88 Q165.626 1248.27 171.436 1248.27 Z" fill="#000000" fill-rule="nonzero" fill-opacity="1" /><path clip-path="url(#clip950)" d="M201.598 1251.97 Q197.987 1251.97 196.158 1255.54 Q194.352 1259.08 194.352 1266.21 Q194.352 1273.32 196.158 1276.88 Q197.987 1280.42 201.598 1280.42 Q205.232 1280.42 207.037 1276.88 Q208.866 1273.32 208.866 1266.21 Q208.866 1259.08 207.037 1255.54 Q205.232 1251.97 201.598 1251.97 M201.598 1248.27 Q207.408 1248.27 210.463 1252.88 Q213.542 1257.46 213.542 1266.21 Q213.542 1274.94 210.463 1279.54 Q207.408 1284.13 201.598 1284.13 Q195.787 1284.13 192.709 1279.54 Q189.653 1274.94 189.653 1266.21 Q189.653 1257.46 192.709 1252.88 Q195.787 1248.27 201.598 1248.27 Z" fill="#000000" fill-rule="nonzero" fill-opacity="1" /><path clip-path="url(#clip950)" d="M127.2 1019.1 Q123.589 1019.1 121.76 1022.67 Q119.955 1026.21 119.955 1033.34 Q119.955 1040.44 121.76 1044.01 Q123.589 1047.55 127.2 1047.55 Q130.834 1047.55 132.64 1044.01 Q134.468 1040.44 134.468 1033.34 Q134.468 1026.21 132.64 1022.67 Q130.834 1019.1 127.2 1019.1 M127.2 1015.4 Q133.01 1015.4 136.066 1020.01 Q139.144 1024.59 139.144 1033.34 Q139.144 1042.07 136.066 1046.67 Q133.01 1051.25 127.2 1051.25 Q121.39 1051.25 118.311 1046.67 Q115.256 1042.07 115.256 1033.34 Q115.256 1024.59 118.311 1020.01 Q121.39 1015.4 127.2 1015.4 Z" fill="#000000" fill-rule="nonzero" fill-opacity="1" /><path clip-path="url(#clip950)" d="M147.362 1044.7 L152.246 1044.7 L152.246 1050.58 L147.362 1050.58 L147.362 1044.7 Z" fill="#000000" fill-rule="nonzero" fill-opacity="1" /><path clip-path="url(#clip950)" d="M166.459 1046.65 L182.778 1046.65 L182.778 1050.58 L160.834 1050.58 L160.834 1046.65 Q163.496 1043.89 168.079 1039.26 Q172.686 1034.61 173.866 1033.27 Q176.112 1030.75 176.991 1029.01 Q177.894 1027.25 177.894 1025.56 Q177.894 1022.81 175.95 1021.07 Q174.028 1019.33 170.927 1019.33 Q168.727 1019.33 166.274 1020.1 Q163.843 1020.86 161.065 1022.41 L161.065 1017.69 Q163.89 1016.56 166.343 1015.98 Q168.797 1015.4 170.834 1015.4 Q176.204 1015.4 179.399 1018.08 Q182.593 1020.77 182.593 1025.26 Q182.593 1027.39 181.783 1029.31 Q180.996 1031.21 178.889 1033.8 Q178.311 1034.47 175.209 1037.69 Q172.107 1040.88 166.459 1046.65 Z" fill="#000000" fill-rule="nonzero" fill-opacity="1" /><path clip-path="url(#clip950)" d="M192.639 1016.02 L210.996 1016.02 L210.996 1019.96 L196.922 1019.96 L196.922 1028.43 Q197.94 1028.08 198.959 1027.92 Q199.977 1027.74 200.996 1027.74 Q206.783 1027.74 210.162 1030.91 Q213.542 1034.08 213.542 1039.5 Q213.542 1045.07 210.07 1048.18 Q206.598 1051.25 200.278 1051.25 Q198.102 1051.25 195.834 1050.88 Q193.588 1050.51 191.181 1049.77 L191.181 1045.07 Q193.264 1046.21 195.487 1046.76 Q197.709 1047.32 200.186 1047.32 Q204.19 1047.32 206.528 1045.21 Q208.866 1043.11 208.866 1039.5 Q208.866 1035.88 206.528 1033.78 Q204.19 1031.67 200.186 1031.67 Q198.311 1031.67 196.436 1032.09 Q194.584 1032.51 192.639 1033.38 L192.639 1016.02 Z" fill="#000000" fill-rule="nonzero" fill-opacity="1" /><path clip-path="url(#clip950)" d="M126.205 786.231 Q122.593 786.231 120.765 789.796 Q118.959 793.337 118.959 800.467 Q118.959 807.573 120.765 811.138 Q122.593 814.68 126.205 814.68 Q129.839 814.68 131.644 811.138 Q133.473 807.573 133.473 800.467 Q133.473 793.337 131.644 789.796 Q129.839 786.231 126.205 786.231 M126.205 782.527 Q132.015 782.527 135.07 787.134 Q138.149 791.717 138.149 800.467 Q138.149 809.194 135.07 813.8 Q132.015 818.384 126.205 818.384 Q120.394 818.384 117.316 813.8 Q114.26 809.194 114.26 800.467 Q114.26 791.717 117.316 787.134 Q120.394 782.527 126.205 782.527 Z" fill="#000000" fill-rule="nonzero" fill-opacity="1" /><path clip-path="url(#clip950)" d="M146.366 811.833 L151.251 811.833 L151.251 817.712 L146.366 817.712 L146.366 811.833 Z" fill="#000000" fill-rule="nonzero" fill-opacity="1" /><path clip-path="url(#clip950)" d="M161.482 783.152 L179.839 783.152 L179.839 787.087 L165.765 787.087 L165.765 795.56 Q166.783 795.212 167.802 795.05 Q168.82 794.865 169.839 794.865 Q175.626 794.865 179.005 798.036 Q182.385 801.208 182.385 806.624 Q182.385 812.203 178.913 815.305 Q175.44 818.384 169.121 818.384 Q166.945 818.384 164.677 818.013 Q162.431 817.643 160.024 816.902 L160.024 812.203 Q162.107 813.337 164.329 813.893 Q166.552 814.448 169.028 814.448 Q173.033 814.448 175.371 812.342 Q177.709 810.235 177.709 806.624 Q177.709 803.013 175.371 800.907 Q173.033 798.8 169.028 798.8 Q167.153 798.8 165.278 799.217 Q163.427 799.634 161.482 800.513 L161.482 783.152 Z" fill="#000000" fill-rule="nonzero" fill-opacity="1" /><path clip-path="url(#clip950)" d="M201.598 786.231 Q197.987 786.231 196.158 789.796 Q194.352 793.337 194.352 800.467 Q194.352 807.573 196.158 811.138 Q197.987 814.68 201.598 814.68 Q205.232 814.68 207.037 811.138 Q208.866 807.573 208.866 800.467 Q208.866 793.337 207.037 789.796 Q205.232 786.231 201.598 786.231 M201.598 782.527 Q207.408 782.527 210.463 787.134 Q213.542 791.717 213.542 800.467 Q213.542 809.194 210.463 813.8 Q207.408 818.384 201.598 818.384 Q195.787 818.384 192.709 813.8 Q189.653 809.194 189.653 800.467 Q189.653 791.717 192.709 787.134 Q195.787 782.527 201.598 782.527 Z" fill="#000000" fill-rule="nonzero" fill-opacity="1" /><path clip-path="url(#clip950)" d="M127.2 553.36 Q123.589 553.36 121.76 556.924 Q119.955 560.466 119.955 567.596 Q119.955 574.702 121.76 578.267 Q123.589 581.808 127.2 581.808 Q130.834 581.808 132.64 578.267 Q134.468 574.702 134.468 567.596 Q134.468 560.466 132.64 556.924 Q130.834 553.36 127.2 553.36 M127.2 549.656 Q133.01 549.656 136.066 554.262 Q139.144 558.846 139.144 567.596 Q139.144 576.322 136.066 580.929 Q133.01 585.512 127.2 585.512 Q121.39 585.512 118.311 580.929 Q115.256 576.322 115.256 567.596 Q115.256 558.846 118.311 554.262 Q121.39 549.656 127.2 549.656 Z" fill="#000000" fill-rule="nonzero" fill-opacity="1" /><path clip-path="url(#clip950)" d="M147.362 578.961 L152.246 578.961 L152.246 584.841 L147.362 584.841 L147.362 578.961 Z" fill="#000000" fill-rule="nonzero" fill-opacity="1" /><path clip-path="url(#clip950)" d="M161.251 550.281 L183.473 550.281 L183.473 552.272 L170.927 584.841 L166.042 584.841 L177.848 554.216 L161.251 554.216 L161.251 550.281 Z" fill="#000000" fill-rule="nonzero" fill-opacity="1" /><path clip-path="url(#clip950)" d="M192.639 550.281 L210.996 550.281 L210.996 554.216 L196.922 554.216 L196.922 562.688 Q197.94 562.341 198.959 562.179 Q199.977 561.994 200.996 561.994 Q206.783 561.994 210.162 565.165 Q213.542 568.336 213.542 573.753 Q213.542 579.332 210.07 582.433 Q206.598 585.512 200.278 585.512 Q198.102 585.512 195.834 585.142 Q193.588 584.771 191.181 584.031 L191.181 579.332 Q193.264 580.466 195.487 581.021 Q197.709 581.577 200.186 581.577 Q204.19 581.577 206.528 579.47 Q208.866 577.364 208.866 573.753 Q208.866 570.142 206.528 568.035 Q204.19 565.929 200.186 565.929 Q198.311 565.929 196.436 566.346 Q194.584 566.762 192.639 567.642 L192.639 550.281 Z" fill="#000000" fill-rule="nonzero" fill-opacity="1" /><path clip-path="url(#clip950)" d="M117.015 348.034 L124.654 348.034 L124.654 321.669 L116.343 323.335 L116.343 319.076 L124.607 317.409 L129.283 317.409 L129.283 348.034 L136.922 348.034 L136.922 351.969 L117.015 351.969 L117.015 348.034 Z" fill="#000000" fill-rule="nonzero" fill-opacity="1" /><path clip-path="url(#clip950)" d="M146.366 346.09 L151.251 346.09 L151.251 351.969 L146.366 351.969 L146.366 346.09 Z" fill="#000000" fill-rule="nonzero" fill-opacity="1" /><path clip-path="url(#clip950)" d="M171.436 320.488 Q167.825 320.488 165.996 324.053 Q164.19 327.595 164.19 334.724 Q164.19 341.831 165.996 345.395 Q167.825 348.937 171.436 348.937 Q175.07 348.937 176.876 345.395 Q178.704 341.831 178.704 334.724 Q178.704 327.595 176.876 324.053 Q175.07 320.488 171.436 320.488 M171.436 316.784 Q177.246 316.784 180.301 321.391 Q183.38 325.974 183.38 334.724 Q183.38 343.451 180.301 348.057 Q177.246 352.641 171.436 352.641 Q165.626 352.641 162.547 348.057 Q159.491 343.451 159.491 334.724 Q159.491 325.974 162.547 321.391 Q165.626 316.784 171.436 316.784 Z" fill="#000000" fill-rule="nonzero" fill-opacity="1" /><path clip-path="url(#clip950)" d="M201.598 320.488 Q197.987 320.488 196.158 324.053 Q194.352 327.595 194.352 334.724 Q194.352 341.831 196.158 345.395 Q197.987 348.937 201.598 348.937 Q205.232 348.937 207.037 345.395 Q208.866 341.831 208.866 334.724 Q208.866 327.595 207.037 324.053 Q205.232 320.488 201.598 320.488 M201.598 316.784 Q207.408 316.784 210.463 321.391 Q213.542 325.974 213.542 334.724 Q213.542 343.451 210.463 348.057 Q207.408 352.641 201.598 352.641 Q195.787 352.641 192.709 348.057 Q189.653 343.451 189.653 334.724 Q189.653 325.974 192.709 321.391 Q195.787 316.784 201.598 316.784 Z" fill="#000000" fill-rule="nonzero" fill-opacity="1" /><path clip-path="url(#clip950)" d="M28.3562 756.711 L45.7028 769.602 L64.0042 756.043 L64.0042 762.95 L49.9996 773.326 L64.0042 783.702 L64.0042 790.609 L45.3526 776.763 L28.3562 789.431 L28.3562 782.524 L41.0558 773.071 L28.3562 763.618 L28.3562 756.711 Z" fill="#000000" fill-rule="nonzero" fill-opacity="1" /><path clip-path="url(#clip950)" d="M249.19 12.096 L300.353 12.096 L300.353 18.9825 L278.883 18.9825 L278.883 72.576 L270.66 72.576 L270.66 18.9825 L249.19 18.9825 L249.19 12.096 Z" fill="#000000" fill-rule="nonzero" fill-opacity="1" /><path clip-path="url(#clip950)" d="M332.639 48.0275 L332.639 51.6733 L298.368 51.6733 Q298.854 59.3701 302.986 63.421 Q307.158 67.4314 314.572 67.4314 Q318.865 67.4314 322.876 66.3781 Q326.927 65.3249 330.897 63.2184 L330.897 70.267 Q326.886 71.9684 322.673 72.8596 Q318.46 73.7508 314.126 73.7508 Q303.269 73.7508 296.91 67.4314 Q290.59 61.1119 290.59 50.3365 Q290.59 39.1965 296.585 32.6746 Q302.621 26.1121 312.83 26.1121 Q321.985 26.1121 327.291 32.0264 Q332.639 37.9003 332.639 48.0275 M325.185 45.84 Q325.104 39.7232 321.742 36.0774 Q318.42 32.4315 312.911 32.4315 Q306.672 32.4315 302.905 35.9558 Q299.178 39.4801 298.611 45.8805 L325.185 45.84 Z" fill="#000000" fill-rule="nonzero" fill-opacity="1" /><path clip-path="url(#clip950)" d="M373.796 28.5427 L373.796 35.5912 Q370.636 33.9709 367.233 33.1607 Q363.83 32.3505 360.185 32.3505 Q354.635 32.3505 351.84 34.0519 Q349.085 35.7533 349.085 39.156 Q349.085 41.7486 351.07 43.2475 Q353.055 44.7058 359.05 46.0426 L361.602 46.6097 Q369.542 48.3111 372.864 51.4303 Q376.226 54.509 376.226 60.0587 Q376.226 66.3781 371.203 70.0644 Q366.221 73.7508 357.471 73.7508 Q353.825 73.7508 349.855 73.0216 Q345.925 72.3329 341.551 70.9151 L341.551 63.2184 Q345.682 65.3654 349.693 66.4591 Q353.703 67.5124 357.633 67.5124 Q362.899 67.5124 365.734 65.73 Q368.57 63.9071 368.57 60.6258 Q368.57 57.5877 366.504 55.9673 Q364.479 54.3469 357.552 52.8481 L354.959 52.2405 Q348.032 50.7821 344.953 47.7845 Q341.875 44.7463 341.875 39.4801 Q341.875 33.0797 346.412 29.5959 Q350.949 26.1121 359.293 26.1121 Q363.425 26.1121 367.071 26.7198 Q370.717 27.3274 373.796 28.5427 Z" fill="#000000" fill-rule="nonzero" fill-opacity="1" /><path clip-path="url(#clip950)" d="M395.468 14.324 L395.468 27.2059 L410.821 27.2059 L410.821 32.9987 L395.468 32.9987 L395.468 57.6282 Q395.468 63.1779 396.967 64.7578 Q398.506 66.3376 403.165 66.3376 L410.821 66.3376 L410.821 72.576 L403.165 72.576 Q394.536 72.576 391.255 69.3758 Q387.974 66.1351 387.974 57.6282 L387.974 32.9987 L382.505 32.9987 L382.505 27.2059 L387.974 27.2059 L387.974 14.324 L395.468 14.324 Z" fill="#000000" fill-rule="nonzero" fill-opacity="1" /><path clip-path="url(#clip950)" d="M420.624 27.2059 L428.078 27.2059 L428.078 72.576 L420.624 72.576 L420.624 27.2059 M420.624 9.54393 L428.078 9.54393 L428.078 18.9825 L420.624 18.9825 L420.624 9.54393 Z" fill="#000000" fill-rule="nonzero" fill-opacity="1" /><path clip-path="url(#clip950)" d="M481.388 45.1919 L481.388 72.576 L473.934 72.576 L473.934 45.4349 Q473.934 38.994 471.423 35.7938 Q468.911 32.5936 463.888 32.5936 Q457.852 32.5936 454.368 36.4419 Q450.884 40.2903 450.884 46.9338 L450.884 72.576 L443.39 72.576 L443.39 27.2059 L450.884 27.2059 L450.884 34.2544 Q453.558 30.163 457.163 28.1376 Q460.809 26.1121 465.549 26.1121 Q473.367 26.1121 477.377 30.9732 Q481.388 35.7938 481.388 45.1919 Z" fill="#000000" fill-rule="nonzero" fill-opacity="1" /><path clip-path="url(#clip950)" d="M526.11 49.3643 Q526.11 41.2625 522.747 36.8065 Q519.426 32.3505 513.39 32.3505 Q507.395 32.3505 504.032 36.8065 Q500.711 41.2625 500.711 49.3643 Q500.711 57.4256 504.032 61.8816 Q507.395 66.3376 513.39 66.3376 Q519.426 66.3376 522.747 61.8816 Q526.11 57.4256 526.11 49.3643 M533.563 66.9452 Q533.563 78.5308 528.419 84.1616 Q523.274 89.8329 512.661 89.8329 Q508.731 89.8329 505.248 89.2252 Q501.764 88.6581 498.483 87.4428 L498.483 80.1917 Q501.764 81.9741 504.964 82.8248 Q508.164 83.6755 511.486 83.6755 Q518.818 83.6755 522.464 79.8271 Q526.11 76.0193 526.11 68.282 L526.11 64.5957 Q523.801 68.6061 520.195 70.5911 Q516.59 72.576 511.567 72.576 Q503.222 72.576 498.118 66.2161 Q493.014 59.8562 493.014 49.3643 Q493.014 38.832 498.118 32.472 Q503.222 26.1121 511.567 26.1121 Q516.59 26.1121 520.195 28.0971 Q523.801 30.082 526.11 34.0924 L526.11 27.2059 L533.563 27.2059 L533.563 66.9452 Z" fill="#000000" fill-rule="nonzero" fill-opacity="1" /><path clip-path="url(#clip950)" d="M611.867 14.0809 L611.867 22.0612 Q607.209 19.8332 603.077 18.7395 Q598.945 17.6457 595.097 17.6457 Q588.413 17.6457 584.767 20.2383 Q581.162 22.8309 581.162 27.611 Q581.162 31.6214 583.552 33.6873 Q585.982 35.7128 592.707 36.9686 L597.649 37.9813 Q606.804 39.7232 611.138 44.1387 Q615.513 48.5136 615.513 55.8863 Q615.513 64.6767 609.599 69.2137 Q603.725 73.7508 592.342 73.7508 Q588.048 73.7508 583.187 72.7785 Q578.366 71.8063 573.181 69.9024 L573.181 61.4765 Q578.164 64.2716 582.944 65.6895 Q587.724 67.1073 592.342 67.1073 Q599.35 67.1073 603.158 64.3527 Q606.966 61.598 606.966 56.4939 Q606.966 52.0379 604.211 49.5264 Q601.497 47.0148 595.259 45.759 L590.276 44.7868 Q581.121 42.9639 577.03 39.075 Q572.938 35.1862 572.938 28.2591 Q572.938 20.2383 578.569 15.6203 Q584.24 11.0023 594.165 11.0023 Q598.418 11.0023 602.834 11.7719 Q607.249 12.5416 611.867 14.0809 Z" fill="#000000" fill-rule="nonzero" fill-opacity="1" /><path clip-path="url(#clip950)" d="M648.569 49.7694 Q639.535 49.7694 636.051 51.8354 Q632.567 53.9013 632.567 58.8839 Q632.567 62.8538 635.16 65.2034 Q637.793 67.5124 642.29 67.5124 Q648.488 67.5124 652.214 63.1374 Q655.982 58.7219 655.982 51.4303 L655.982 49.7694 L648.569 49.7694 M663.435 46.6907 L663.435 72.576 L655.982 72.576 L655.982 65.6895 Q653.43 69.8214 649.622 71.8063 Q645.814 73.7508 640.305 73.7508 Q633.337 73.7508 629.205 69.8619 Q625.114 65.9325 625.114 59.3701 Q625.114 51.7138 630.218 47.825 Q635.363 43.9361 645.53 43.9361 L655.982 43.9361 L655.982 43.2069 Q655.982 38.0623 652.579 35.2672 Q649.217 32.4315 643.1 32.4315 Q639.211 32.4315 635.525 33.3632 Q631.838 34.295 628.436 36.1584 L628.436 29.2718 Q632.527 27.692 636.375 26.9223 Q640.224 26.1121 643.87 26.1121 Q653.713 26.1121 658.574 31.2163 Q663.435 36.3204 663.435 46.6907 Z" fill="#000000" fill-rule="nonzero" fill-opacity="1" /><path clip-path="url(#clip950)" d="M714.112 35.9153 Q716.907 30.8922 720.796 28.5022 Q724.685 26.1121 729.951 26.1121 Q737.04 26.1121 740.889 31.0947 Q744.737 36.0368 744.737 45.1919 L744.737 72.576 L737.243 72.576 L737.243 45.4349 Q737.243 38.913 734.934 35.7533 Q732.625 32.5936 727.885 32.5936 Q722.092 32.5936 718.73 36.4419 Q715.368 40.2903 715.368 46.9338 L715.368 72.576 L707.874 72.576 L707.874 45.4349 Q707.874 38.8725 705.565 35.7533 Q703.256 32.5936 698.435 32.5936 Q692.723 32.5936 689.361 36.4824 Q685.999 40.3308 685.999 46.9338 L685.999 72.576 L678.505 72.576 L678.505 27.2059 L685.999 27.2059 L685.999 34.2544 Q688.551 30.082 692.116 28.0971 Q695.681 26.1121 700.582 26.1121 Q705.524 26.1121 708.968 28.6237 Q712.451 31.1352 714.112 35.9153 Z" fill="#000000" fill-rule="nonzero" fill-opacity="1" /><path clip-path="url(#clip950)" d="M766.814 65.7705 L766.814 89.8329 L759.32 89.8329 L759.32 27.2059 L766.814 27.2059 L766.814 34.0924 Q769.164 30.0415 772.729 28.0971 Q776.334 26.1121 781.317 26.1121 Q789.581 26.1121 794.725 32.6746 Q799.91 39.2371 799.91 49.9314 Q799.91 60.6258 794.725 67.1883 Q789.581 73.7508 781.317 73.7508 Q776.334 73.7508 772.729 71.8063 Q769.164 69.8214 766.814 65.7705 M792.173 49.9314 Q792.173 41.7081 788.77 37.0496 Q785.408 32.3505 779.494 32.3505 Q773.579 32.3505 770.177 37.0496 Q766.814 41.7081 766.814 49.9314 Q766.814 58.1548 770.177 62.8538 Q773.579 67.5124 779.494 67.5124 Q785.408 67.5124 788.77 62.8538 Q792.173 58.1548 792.173 49.9314 Z" fill="#000000" fill-rule="nonzero" fill-opacity="1" /><path clip-path="url(#clip950)" d="M812.266 9.54393 L819.719 9.54393 L819.719 72.576 L812.266 72.576 L812.266 9.54393 Z" fill="#000000" fill-rule="nonzero" fill-opacity="1" /><path clip-path="url(#clip950)" d="M874.123 48.0275 L874.123 51.6733 L839.852 51.6733 Q840.338 59.3701 844.47 63.421 Q848.643 67.4314 856.056 67.4314 Q860.35 67.4314 864.36 66.3781 Q868.411 65.3249 872.381 63.2184 L872.381 70.267 Q868.371 71.9684 864.158 72.8596 Q859.945 73.7508 855.61 73.7508 Q844.754 73.7508 838.394 67.4314 Q832.075 61.1119 832.075 50.3365 Q832.075 39.1965 838.07 32.6746 Q844.106 26.1121 854.314 26.1121 Q863.469 26.1121 868.776 32.0264 Q874.123 37.9003 874.123 48.0275 M866.669 45.84 Q866.588 39.7232 863.226 36.0774 Q859.904 32.4315 854.395 32.4315 Q848.157 32.4315 844.389 35.9558 Q840.662 39.4801 840.095 45.8805 L866.669 45.84 Z" fill="#000000" fill-rule="nonzero" fill-opacity="1" /><path clip-path="url(#clip950)" d="M914.024 71.3202 L914.024 63.8666 Q917.103 65.3249 920.263 66.0946 Q923.422 66.8642 926.461 66.8642 Q934.562 66.8642 938.816 61.436 Q943.11 55.9673 943.717 44.8678 Q941.368 48.3516 937.763 50.215 Q934.157 52.0784 929.782 52.0784 Q920.708 52.0784 915.402 46.6097 Q910.135 41.1005 910.135 31.5808 Q910.135 22.2638 915.645 16.633 Q921.154 11.0023 930.309 11.0023 Q940.801 11.0023 946.31 19.0636 Q951.86 27.0843 951.86 42.3968 Q951.86 56.6965 945.054 65.2439 Q938.289 73.7508 926.825 73.7508 Q923.746 73.7508 920.587 73.1431 Q917.427 72.5355 914.024 71.3202 M930.309 45.678 Q935.818 45.678 939.018 41.9107 Q942.259 38.1433 942.259 31.5808 Q942.259 25.0589 939.018 21.2916 Q935.818 17.4837 930.309 17.4837 Q924.8 17.4837 921.559 21.2916 Q918.359 25.0589 918.359 31.5808 Q918.359 38.1433 921.559 41.9107 Q924.8 45.678 930.309 45.678 Z" fill="#000000" fill-rule="nonzero" fill-opacity="1" /><path clip-path="url(#clip950)" d="M967.415 62.2867 L975.963 62.2867 L975.963 69.2543 L969.319 82.2172 L964.093 82.2172 L967.415 69.2543 L967.415 62.2867 Z" fill="#000000" fill-rule="nonzero" fill-opacity="1" /><path clip-path="url(#clip950)" d="M1019.39 12.096 L1051.51 12.096 L1051.51 18.9825 L1026.88 18.9825 L1026.88 33.8088 Q1028.66 33.2012 1030.45 32.9176 Q1032.23 32.5936 1034.01 32.5936 Q1044.14 32.5936 1050.05 38.1433 Q1055.97 43.6931 1055.97 53.1722 Q1055.97 62.9348 1049.89 68.3631 Q1043.82 73.7508 1032.76 73.7508 Q1028.95 73.7508 1024.98 73.1026 Q1021.05 72.4545 1016.84 71.1582 L1016.84 62.9348 Q1020.48 64.9198 1024.37 65.892 Q1028.26 66.8642 1032.59 66.8642 Q1039.6 66.8642 1043.69 63.1779 Q1047.79 59.4916 1047.79 53.1722 Q1047.79 46.8528 1043.69 43.1664 Q1039.6 39.4801 1032.59 39.4801 Q1029.31 39.4801 1026.03 40.2093 Q1022.79 40.9384 1019.39 42.4778 L1019.39 12.096 Z" fill="#000000" fill-rule="nonzero" fill-opacity="1" /><path clip-path="url(#clip950)" d="M1089.59 17.4837 Q1083.27 17.4837 1080.07 23.7221 Q1076.91 29.92 1076.91 42.3968 Q1076.91 54.833 1080.07 61.0714 Q1083.27 67.2693 1089.59 67.2693 Q1095.95 67.2693 1099.11 61.0714 Q1102.31 54.833 1102.31 42.3968 Q1102.31 29.92 1099.11 23.7221 Q1095.95 17.4837 1089.59 17.4837 M1089.59 11.0023 Q1099.76 11.0023 1105.11 19.0636 Q1110.49 27.0843 1110.49 42.3968 Q1110.49 57.6687 1105.11 65.73 Q1099.76 73.7508 1089.59 73.7508 Q1079.42 73.7508 1074.04 65.73 Q1068.69 57.6687 1068.69 42.3968 Q1068.69 27.0843 1074.04 19.0636 Q1079.42 11.0023 1089.59 11.0023 Z" fill="#000000" fill-rule="nonzero" fill-opacity="1" /><path clip-path="url(#clip950)" d="M1142.37 17.4837 Q1136.05 17.4837 1132.85 23.7221 Q1129.69 29.92 1129.69 42.3968 Q1129.69 54.833 1132.85 61.0714 Q1136.05 67.2693 1142.37 67.2693 Q1148.73 67.2693 1151.89 61.0714 Q1155.09 54.833 1155.09 42.3968 Q1155.09 29.92 1151.89 23.7221 Q1148.73 17.4837 1142.37 17.4837 M1142.37 11.0023 Q1152.54 11.0023 1157.89 19.0636 Q1163.28 27.0843 1163.28 42.3968 Q1163.28 57.6687 1157.89 65.73 Q1152.54 73.7508 1142.37 73.7508 Q1132.21 73.7508 1126.82 65.73 Q1121.47 57.6687 1121.47 42.3968 Q1121.47 27.0843 1126.82 19.0636 Q1132.21 11.0023 1142.37 11.0023 Z" fill="#000000" fill-rule="nonzero" fill-opacity="1" /><path clip-path="url(#clip950)" d="M1195.16 17.4837 Q1188.84 17.4837 1185.64 23.7221 Q1182.48 29.92 1182.48 42.3968 Q1182.48 54.833 1185.64 61.0714 Q1188.84 67.2693 1195.16 67.2693 Q1201.52 67.2693 1204.68 61.0714 Q1207.88 54.833 1207.88 42.3968 Q1207.88 29.92 1204.68 23.7221 Q1201.52 17.4837 1195.16 17.4837 M1195.16 11.0023 Q1205.32 11.0023 1210.67 19.0636 Q1216.06 27.0843 1216.06 42.3968 Q1216.06 57.6687 1210.67 65.73 Q1205.32 73.7508 1195.16 73.7508 Q1184.99 73.7508 1179.6 65.73 Q1174.25 57.6687 1174.25 42.3968 Q1174.25 27.0843 1179.6 19.0636 Q1184.99 11.0023 1195.16 11.0023 Z" fill="#000000" fill-rule="nonzero" fill-opacity="1" /><path clip-path="url(#clip950)" d="M1292.34 14.0809 L1292.34 22.0612 Q1287.68 19.8332 1283.55 18.7395 Q1279.42 17.6457 1275.57 17.6457 Q1268.88 17.6457 1265.24 20.2383 Q1261.63 22.8309 1261.63 27.611 Q1261.63 31.6214 1264.02 33.6873 Q1266.45 35.7128 1273.18 36.9686 L1278.12 37.9813 Q1287.27 39.7232 1291.61 44.1387 Q1295.98 48.5136 1295.98 55.8863 Q1295.98 64.6767 1290.07 69.2137 Q1284.2 73.7508 1272.81 73.7508 Q1268.52 73.7508 1263.66 72.7785 Q1258.84 71.8063 1253.65 69.9024 L1253.65 61.4765 Q1258.63 64.2716 1263.41 65.6895 Q1268.19 67.1073 1272.81 67.1073 Q1279.82 67.1073 1283.63 64.3527 Q1287.44 61.598 1287.44 56.4939 Q1287.44 52.0379 1284.68 49.5264 Q1281.97 47.0148 1275.73 45.759 L1270.75 44.7868 Q1261.59 42.9639 1257.5 39.075 Q1253.41 35.1862 1253.41 28.2591 Q1253.41 20.2383 1259.04 15.6203 Q1264.71 11.0023 1274.64 11.0023 Q1278.89 11.0023 1283.3 11.7719 Q1287.72 12.5416 1292.34 14.0809 Z" fill="#000000" fill-rule="nonzero" fill-opacity="1" /><path clip-path="url(#clip950)" d="M1329.04 49.7694 Q1320.01 49.7694 1316.52 51.8354 Q1313.04 53.9013 1313.04 58.8839 Q1313.04 62.8538 1315.63 65.2034 Q1318.26 67.5124 1322.76 67.5124 Q1328.96 67.5124 1332.69 63.1374 Q1336.45 58.7219 1336.45 51.4303 L1336.45 49.7694 L1329.04 49.7694 M1343.91 46.6907 L1343.91 72.576 L1336.45 72.576 L1336.45 65.6895 Q1333.9 69.8214 1330.09 71.8063 Q1326.28 73.7508 1320.78 73.7508 Q1313.81 73.7508 1309.68 69.8619 Q1305.58 65.9325 1305.58 59.3701 Q1305.58 51.7138 1310.69 47.825 Q1315.83 43.9361 1326 43.9361 L1336.45 43.9361 L1336.45 43.2069 Q1336.45 38.0623 1333.05 35.2672 Q1329.69 32.4315 1323.57 32.4315 Q1319.68 32.4315 1316 33.3632 Q1312.31 34.295 1308.91 36.1584 L1308.91 29.2718 Q1313 27.692 1316.85 26.9223 Q1320.69 26.1121 1324.34 26.1121 Q1334.18 26.1121 1339.05 31.2163 Q1343.91 36.3204 1343.91 46.6907 Z" fill="#000000" fill-rule="nonzero" fill-opacity="1" /><path clip-path="url(#clip950)" d="M1394.58 35.9153 Q1397.38 30.8922 1401.27 28.5022 Q1405.16 26.1121 1410.42 26.1121 Q1417.51 26.1121 1421.36 31.0947 Q1425.21 36.0368 1425.21 45.1919 L1425.21 72.576 L1417.71 72.576 L1417.71 45.4349 Q1417.71 38.913 1415.4 35.7533 Q1413.1 32.5936 1408.36 32.5936 Q1402.56 32.5936 1399.2 36.4419 Q1395.84 40.2903 1395.84 46.9338 L1395.84 72.576 L1388.34 72.576 L1388.34 45.4349 Q1388.34 38.8725 1386.04 35.7533 Q1383.73 32.5936 1378.91 32.5936 Q1373.19 32.5936 1369.83 36.4824 Q1366.47 40.3308 1366.47 46.9338 L1366.47 72.576 L1358.98 72.576 L1358.98 27.2059 L1366.47 27.2059 L1366.47 34.2544 Q1369.02 30.082 1372.59 28.0971 Q1376.15 26.1121 1381.05 26.1121 Q1386 26.1121 1389.44 28.6237 Q1392.92 31.1352 1394.58 35.9153 Z" fill="#000000" fill-rule="nonzero" fill-opacity="1" /><path clip-path="url(#clip950)" d="M1447.29 65.7705 L1447.29 89.8329 L1439.79 89.8329 L1439.79 27.2059 L1447.29 27.2059 L1447.29 34.0924 Q1449.63 30.0415 1453.2 28.0971 Q1456.8 26.1121 1461.79 26.1121 Q1470.05 26.1121 1475.2 32.6746 Q1480.38 39.2371 1480.38 49.9314 Q1480.38 60.6258 1475.2 67.1883 Q1470.05 73.7508 1461.79 73.7508 Q1456.8 73.7508 1453.2 71.8063 Q1449.63 69.8214 1447.29 65.7705 M1472.64 49.9314 Q1472.64 41.7081 1469.24 37.0496 Q1465.88 32.3505 1459.96 32.3505 Q1454.05 32.3505 1450.65 37.0496 Q1447.29 41.7081 1447.29 49.9314 Q1447.29 58.1548 1450.65 62.8538 Q1454.05 67.5124 1459.96 67.5124 Q1465.88 67.5124 1469.24 62.8538 Q1472.64 58.1548 1472.64 49.9314 Z" fill="#000000" fill-rule="nonzero" fill-opacity="1" /><path clip-path="url(#clip950)" d="M1492.74 9.54393 L1500.19 9.54393 L1500.19 72.576 L1492.74 72.576 L1492.74 9.54393 Z" fill="#000000" fill-rule="nonzero" fill-opacity="1" /><path clip-path="url(#clip950)" d="M1554.59 48.0275 L1554.59 51.6733 L1520.32 51.6733 Q1520.81 59.3701 1524.94 63.421 Q1529.11 67.4314 1536.53 67.4314 Q1540.82 67.4314 1544.83 66.3781 Q1548.88 65.3249 1552.85 63.2184 L1552.85 70.267 Q1548.84 71.9684 1544.63 72.8596 Q1540.42 73.7508 1536.08 73.7508 Q1525.22 73.7508 1518.86 67.4314 Q1512.55 61.1119 1512.55 50.3365 Q1512.55 39.1965 1518.54 32.6746 Q1524.58 26.1121 1534.78 26.1121 Q1543.94 26.1121 1549.25 32.0264 Q1554.59 37.9003 1554.59 48.0275 M1547.14 45.84 Q1547.06 39.7232 1543.7 36.0774 Q1540.38 32.4315 1534.87 32.4315 Q1528.63 32.4315 1524.86 35.9558 Q1521.13 39.4801 1520.57 45.8805 L1547.14 45.84 Z" fill="#000000" fill-rule="nonzero" fill-opacity="1" /><path clip-path="url(#clip950)" d="M1593.52 12.096 L1631.76 12.096 L1631.76 18.9825 L1601.71 18.9825 L1601.71 36.8875 L1630.51 36.8875 L1630.51 43.7741 L1601.71 43.7741 L1601.71 65.6895 L1632.49 65.6895 L1632.49 72.576 L1593.52 72.576 L1593.52 12.096 Z" fill="#000000" fill-rule="nonzero" fill-opacity="1" /><path clip-path="url(#clip950)" d="M1674.54 28.5427 L1674.54 35.5912 Q1671.38 33.9709 1667.98 33.1607 Q1664.58 32.3505 1660.93 32.3505 Q1655.38 32.3505 1652.59 34.0519 Q1649.83 35.7533 1649.83 39.156 Q1649.83 41.7486 1651.82 43.2475 Q1653.8 44.7058 1659.8 46.0426 L1662.35 46.6097 Q1670.29 48.3111 1673.61 51.4303 Q1676.97 54.509 1676.97 60.0587 Q1676.97 66.3781 1671.95 70.0644 Q1666.97 73.7508 1658.22 73.7508 Q1654.57 73.7508 1650.6 73.0216 Q1646.67 72.3329 1642.3 70.9151 L1642.3 63.2184 Q1646.43 65.3654 1650.44 66.4591 Q1654.45 67.5124 1658.38 67.5124 Q1663.64 67.5124 1666.48 65.73 Q1669.32 63.9071 1669.32 60.6258 Q1669.32 57.5877 1667.25 55.9673 Q1665.22 54.3469 1658.3 52.8481 L1655.7 52.2405 Q1648.78 50.7821 1645.7 47.7845 Q1642.62 44.7463 1642.62 39.4801 Q1642.62 33.0797 1647.16 29.5959 Q1651.69 26.1121 1660.04 26.1121 Q1664.17 26.1121 1667.82 26.7198 Q1671.46 27.3274 1674.54 28.5427 Z" fill="#000000" fill-rule="nonzero" fill-opacity="1" /><path clip-path="url(#clip950)" d="M1696.21 14.324 L1696.21 27.2059 L1711.57 27.2059 L1711.57 32.9987 L1696.21 32.9987 L1696.21 57.6282 Q1696.21 63.1779 1697.71 64.7578 Q1699.25 66.3376 1703.91 66.3376 L1711.57 66.3376 L1711.57 72.576 L1703.91 72.576 Q1695.28 72.576 1692 69.3758 Q1688.72 66.1351 1688.72 57.6282 L1688.72 32.9987 L1683.25 32.9987 L1683.25 27.2059 L1688.72 27.2059 L1688.72 14.324 L1696.21 14.324 Z" fill="#000000" fill-rule="nonzero" fill-opacity="1" /><path clip-path="url(#clip950)" d="M1721.37 27.2059 L1728.82 27.2059 L1728.82 72.576 L1721.37 72.576 L1721.37 27.2059 M1721.37 9.54393 L1728.82 9.54393 L1728.82 18.9825 L1721.37 18.9825 L1721.37 9.54393 Z" fill="#000000" fill-rule="nonzero" fill-opacity="1" /><path clip-path="url(#clip950)" d="M1779.74 35.9153 Q1782.54 30.8922 1786.43 28.5022 Q1790.32 26.1121 1795.58 26.1121 Q1802.67 26.1121 1806.52 31.0947 Q1810.37 36.0368 1810.37 45.1919 L1810.37 72.576 L1802.87 72.576 L1802.87 45.4349 Q1802.87 38.913 1800.56 35.7533 Q1798.26 32.5936 1793.52 32.5936 Q1787.72 32.5936 1784.36 36.4419 Q1781 40.2903 1781 46.9338 L1781 72.576 L1773.5 72.576 L1773.5 45.4349 Q1773.5 38.8725 1771.2 35.7533 Q1768.89 32.5936 1764.07 32.5936 Q1758.35 32.5936 1754.99 36.4824 Q1751.63 40.3308 1751.63 46.9338 L1751.63 72.576 L1744.14 72.576 L1744.14 27.2059 L1751.63 27.2059 L1751.63 34.2544 Q1754.18 30.082 1757.75 28.0971 Q1761.31 26.1121 1766.21 26.1121 Q1771.16 26.1121 1774.6 28.6237 Q1778.08 31.1352 1779.74 35.9153 Z" fill="#000000" fill-rule="nonzero" fill-opacity="1" /><path clip-path="url(#clip950)" d="M1845.85 49.7694 Q1836.82 49.7694 1833.34 51.8354 Q1829.85 53.9013 1829.85 58.8839 Q1829.85 62.8538 1832.45 65.2034 Q1835.08 67.5124 1839.57 67.5124 Q1845.77 67.5124 1849.5 63.1374 Q1853.27 58.7219 1853.27 51.4303 L1853.27 49.7694 L1845.85 49.7694 M1860.72 46.6907 L1860.72 72.576 L1853.27 72.576 L1853.27 65.6895 Q1850.71 69.8214 1846.91 71.8063 Q1843.1 73.7508 1837.59 73.7508 Q1830.62 73.7508 1826.49 69.8619 Q1822.4 65.9325 1822.4 59.3701 Q1822.4 51.7138 1827.5 47.825 Q1832.65 43.9361 1842.82 43.9361 L1853.27 43.9361 L1853.27 43.2069 Q1853.27 38.0623 1849.86 35.2672 Q1846.5 32.4315 1840.39 32.4315 Q1836.5 32.4315 1832.81 33.3632 Q1829.12 34.295 1825.72 36.1584 L1825.72 29.2718 Q1829.81 27.692 1833.66 26.9223 Q1837.51 26.1121 1841.15 26.1121 Q1851 26.1121 1855.86 31.2163 Q1860.72 36.3204 1860.72 46.6907 Z" fill="#000000" fill-rule="nonzero" fill-opacity="1" /><path clip-path="url(#clip950)" d="M1883.45 14.324 L1883.45 27.2059 L1898.8 27.2059 L1898.8 32.9987 L1883.45 32.9987 L1883.45 57.6282 Q1883.45 63.1779 1884.95 64.7578 Q1886.48 66.3376 1891.14 66.3376 L1898.8 66.3376 L1898.8 72.576 L1891.14 72.576 Q1882.51 72.576 1879.23 69.3758 Q1875.95 66.1351 1875.95 57.6282 L1875.95 32.9987 L1870.48 32.9987 L1870.48 27.2059 L1875.95 27.2059 L1875.95 14.324 L1883.45 14.324 Z" fill="#000000" fill-rule="nonzero" fill-opacity="1" /><path clip-path="url(#clip950)" d="M1947.41 48.0275 L1947.41 51.6733 L1913.14 51.6733 Q1913.63 59.3701 1917.76 63.421 Q1921.93 67.4314 1929.34 67.4314 Q1933.64 67.4314 1937.65 66.3781 Q1941.7 65.3249 1945.67 63.2184 L1945.67 70.267 Q1941.66 71.9684 1937.44 72.8596 Q1933.23 73.7508 1928.9 73.7508 Q1918.04 73.7508 1911.68 67.4314 Q1905.36 61.1119 1905.36 50.3365 Q1905.36 39.1965 1911.36 32.6746 Q1917.39 26.1121 1927.6 26.1121 Q1936.76 26.1121 1942.06 32.0264 Q1947.41 37.9003 1947.41 48.0275 M1939.96 45.84 Q1939.88 39.7232 1936.51 36.0774 Q1933.19 32.4315 1927.68 32.4315 Q1921.44 32.4315 1917.68 35.9558 Q1913.95 39.4801 1913.38 45.8805 L1939.96 45.84 Z" fill="#000000" fill-rule="nonzero" fill-opacity="1" /><path clip-path="url(#clip950)" d="M1961.55 62.2867 L1970.1 62.2867 L1970.1 69.2543 L1963.45 82.2172 L1958.23 82.2172 L1961.55 69.2543 L1961.55 62.2867 Z" fill="#000000" fill-rule="nonzero" fill-opacity="1" /><path clip-path="url(#clip950)" d="M2045.24 20.0358 Q2041.11 17.2001 2031.43 17.2001 Q2021.18 17.2001 2021.18 21.9397 Q2021.18 25.6665 2031.87 27.611 Q2040.3 29.1098 2045.04 33.6468 Q2050.79 39.1155 2050.79 50.3365 Q2050.79 61.0714 2045.24 67.3908 Q2039.69 73.7508 2029.97 73.7508 Q2020.29 73.7508 2014.7 67.3908 Q2009.15 61.0714 2009.15 49.9314 Q2009.15 41.6676 2014.7 34.9836 Q2016.84 32.391 2019.88 30.9327 Q2013.56 27.7325 2013.56 22.0207 Q2013.56 11.0023 2031.43 11.0023 Q2040.38 11.0023 2045.24 13.8379 L2045.24 20.0358 M2025.47 32.9582 Q2022.72 34.1329 2020.49 37.0901 Q2017 41.6676 2017 49.9314 Q2017 58.1548 2020.45 62.7728 Q2023.93 67.4314 2029.97 67.4314 Q2035.92 67.4314 2039.41 62.7323 Q2042.89 58.0333 2042.89 50.3365 Q2042.89 42.2752 2039.2 38.3864 Q2035.27 34.2139 2030.17 33.7683 Q2027.58 33.5253 2025.47 32.9582 Z" fill="#000000" fill-rule="nonzero" fill-opacity="1" /><path clip-path="url(#clip950)" d="M2100.86 27.2059 L2084.45 49.2833 L2101.71 72.576 L2092.92 72.576 L2079.71 54.752 L2066.51 72.576 L2057.72 72.576 L2075.34 48.8377 L2059.21 27.2059 L2068.01 27.2059 L2080.04 43.369 L2092.07 27.2059 L2100.86 27.2059 Z" fill="#000000" fill-rule="nonzero" fill-opacity="1" /><path clip-path="url(#clip950)" d="M2139.58 34.9026 L2191.52 34.9026 L2191.52 41.7081 L2139.58 41.7081 L2139.58 34.9026 M2139.58 51.4303 L2191.52 51.4303 L2191.52 58.3168 L2139.58 58.3168 L2139.58 51.4303 Z" fill="#000000" fill-rule="nonzero" fill-opacity="1" /><path clip-path="url(#clip950)" d="M2236.97 65.6895 L2250.34 65.6895 L2250.34 19.5497 L2235.79 22.4663 L2235.79 15.0127 L2250.26 12.096 L2258.44 12.096 L2258.44 65.6895 L2271.81 65.6895 L2271.81 72.576 L2236.97 72.576 L2236.97 65.6895 Z" fill="#000000" fill-rule="nonzero" fill-opacity="1" /><path clip-path="url(#clip950)" d="M2288.33 62.2867 L2296.88 62.2867 L2296.88 72.576 L2288.33 72.576 L2288.33 62.2867 Z" fill="#000000" fill-rule="nonzero" fill-opacity="1" /><path clip-path="url(#clip950)" d="M2332.21 17.4837 Q2325.89 17.4837 2322.69 23.7221 Q2319.53 29.92 2319.53 42.3968 Q2319.53 54.833 2322.69 61.0714 Q2325.89 67.2693 2332.21 67.2693 Q2338.57 67.2693 2341.72 61.0714 Q2344.93 54.833 2344.93 42.3968 Q2344.93 29.92 2341.72 23.7221 Q2338.57 17.4837 2332.21 17.4837 M2332.21 11.0023 Q2342.37 11.0023 2347.72 19.0636 Q2353.11 27.0843 2353.11 42.3968 Q2353.11 57.6687 2347.72 65.73 Q2342.37 73.7508 2332.21 73.7508 Q2322.04 73.7508 2316.65 65.73 Q2311.3 57.6687 2311.3 42.3968 Q2311.3 27.0843 2316.65 19.0636 Q2322.04 11.0023 2332.21 11.0023 Z" fill="#000000" fill-rule="nonzero" fill-opacity="1" /><polyline clip-path="url(#clip952)" style="stroke:#009af9; stroke-linecap:round; stroke-linejoin:round; stroke-width:8; stroke-opacity:1; fill:none" points="309.067,709.159 329.953,630.284 350.839,519.25 371.725,462.68 392.611,489.82 413.497,505.44 434.383,501.072 455.269,583.135 476.154,724.63 497.04,834.008 517.926,906.944 538.812,895.175 559.698,876.269 580.584,941.337 601.47,985.095 622.356,976.128 643.242,966.309 664.128,957.482 685.014,976.92 705.9,1019.85 726.786,1028 747.672,1029.06 768.558,1061.06 789.444,1071.25 810.329,1045.08 831.215,1049.61 852.101,1087.45 872.987,1097.12 893.873,1095.11 914.759,1116.21 935.645,1131.58 956.531,1141.04 977.417,1162.75 998.303,1169.94 1019.19,1160.35 1040.07,1168.75 1060.96,1183.56 1081.85,1176.93 1102.73,1161.94 1123.62,1157.58 1144.5,1145.42 1165.39,1120.85 1186.28,1117.38 1207.16,1120.79 1228.05,1080 1248.93,1006.85 1269.82,973.711 1290.71,952.983 1311.59,892.401 1332.48,855.526 "/>
<path clip-path="url(#clip952)" d="M1353.36 1386.4 L1374.25 1290.83 L1395.14 1287.1 L1416.02 1230.84 L1436.91 1167.68 L1457.79 1206.06 L1478.68 1196.19 L1499.57 1148.49 L1520.45 1160.98 L1541.34 1225.25 L1562.22 1164.89 L1583.11 1100.99 L1604 1156.88 L1624.88 1188.18 L1645.77 1132.1 L1666.65 1068.76 L1687.54 1113.47 L1708.42 1135.83 L1729.31 1108.25 L1750.2 1113.84 L1771.08 1096.14 L1791.97 1073.98 L1812.85 1104.53 L1833.74 1098.19 L1854.63 1083.1 L1875.51 1092.23 L1896.4 1116.26 L1917.28 1105.83 L1938.17 1111.79 L1959.06 1090 L1979.94 1070.25 L2000.83 1061.68 L2021.71 1070.44 L2042.6 1047.15 L2063.49 1054.79 L2084.37 1143.46 L2105.26 1134.71 L2126.14 1077.52 L2147.03 1119.43 L2167.92 1134.15 L2188.8 1083.29 L2209.69 1094.28 L2230.57 1190.22 L2251.46 1181.28 L2272.35 1164.33 L2293.23 1246.3 L2293.23 359.408 L2272.35 277.437 L2251.46 294.39 L2230.57 303.332 L2209.69 207.389 L2188.8 196.398 L2167.92 247.257 L2147.03 232.54 L2126.14 190.623 L2105.26 247.816 L2084.37 256.572 L2063.49 167.894 L2042.6 160.256 L2021.71 183.543 L2000.83 174.787 L1979.94 183.357 L1959.06 203.105 L1938.17 224.901 L1917.28 218.94 L1896.4 229.373 L1875.51 205.34 L1854.63 196.212 L1833.74 211.302 L1812.85 217.636 L1791.97 187.083 L1771.08 209.252 L1750.2 226.951 L1729.31 221.362 L1708.42 248.934 L1687.54 226.578 L1666.65 181.867 L1645.77 245.208 L1624.88 301.283 L1604 269.985 L1583.11 214.096 L1562.22 277.996 L1541.34 338.356 L1520.45 274.084 L1499.57 261.602 L1478.68 309.294 L1457.79 319.168 L1436.91 280.791 L1416.02 343.945 L1395.14 400.207 L1374.25 403.933 L1353.36 499.503  Z" fill="#e26f46" fill-rule="evenodd" fill-opacity="0.5"/>
<polyline clip-path="url(#clip952)" style="stroke:#e26f46; stroke-linecap:round; stroke-linejoin:round; stroke-width:8; stroke-opacity:1; fill:none" stroke-dasharray="32, 16, 4, 16" points="1353.36,942.95 1374.25,847.379 1395.14,843.653 1416.02,787.391 1436.91,724.237 1457.79,762.614 1478.68,752.74 1499.57,705.048 1520.45,717.53 1541.34,781.803 1562.22,721.442 1583.11,657.542 1604,713.431 1624.88,744.729 1645.77,688.654 1666.65,625.313 1687.54,670.024 1708.42,692.38 1729.31,664.808 1750.2,670.397 1771.08,652.699 1791.97,630.529 1812.85,661.082 1833.74,654.748 1854.63,639.658 1875.51,648.786 1896.4,672.819 1917.28,662.386 1938.17,668.348 1959.06,646.551 1979.94,626.803 2000.83,618.234 2021.71,626.99 2042.6,603.702 2063.49,611.341 2084.37,700.018 2105.26,691.262 2126.14,634.069 2147.03,675.986 2167.92,690.703 2188.8,639.844 2209.69,650.836 2230.57,746.779 2251.46,737.836 2272.35,720.883 2293.23,802.854 "/>
<polyline clip-path="url(#clip952)" style="stroke:#3da44d; stroke-linecap:round; stroke-linejoin:round; stroke-width:8; stroke-opacity:1; fill:none" points="1353.36,869.199 1374.25,849.87 1395.14,796.318 1416.02,780.465 1436.91,791.007 1457.79,780.284 1478.68,745.326 1499.57,722.638 1520.45,738.687 1541.34,745.314 1562.22,714.881 1583.11,710.075 1604,723.591 1624.88,701.788 1645.77,686.661 1666.65,697.993 1687.54,702.841 1708.42,714.243 1729.31,713.525 1750.2,675.43 1771.08,655.472 1791.97,659.439 1812.85,656.273 1833.74,658.983 1854.63,640.9 1875.51,616.077 1896.4,649.451 1917.28,678.605 1938.17,653.426 1959.06,651.059 1979.94,646.233 2000.83,622.465 2021.71,639.511 2042.6,635.503 2063.49,611.198 2084.37,674.121 2105.26,740.579 2126.14,713.595 2147.03,710.777 2167.92,734.571 2188.8,714.363 2209.69,708.011 2230.57,720.6 2251.46,696.462 2272.35,693.273 2293.23,773.349 "/>
<path clip-path="url(#clip950)" d="M319.649 1379.86 L936.751 1379.86 L936.751 1172.5 L319.649 1172.5  Z" fill="#ffffff" fill-rule="evenodd" fill-opacity="1"/>
<polyline clip-path="url(#clip950)" style="stroke:#000000; stroke-linecap:round; stroke-linejoin:round; stroke-width:4; stroke-opacity:1; fill:none" points="319.649,1379.86 936.751,1379.86 936.751,1172.5 319.649,1172.5 319.649,1379.86 "/>
<polyline clip-path="url(#clip950)" style="stroke:#009af9; stroke-linecap:round; stroke-linejoin:round; stroke-width:8; stroke-opacity:1; fill:none" points="343.018,1224.34 483.232,1224.34 "/>
<path clip-path="url(#clip950)" d="M534.472 1209.72 L534.472 1214.65 Q532.111 1212.45 529.425 1211.36 Q526.763 1210.27 523.754 1210.27 Q517.828 1210.27 514.68 1213.91 Q511.532 1217.52 511.532 1224.37 Q511.532 1231.2 514.68 1234.83 Q517.828 1238.44 523.754 1238.44 Q526.763 1238.44 529.425 1237.36 Q532.111 1236.27 534.472 1234.07 L534.472 1238.95 Q532.018 1240.62 529.263 1241.45 Q526.532 1242.29 523.476 1242.29 Q515.629 1242.29 511.115 1237.5 Q506.602 1232.68 506.602 1224.37 Q506.602 1216.04 511.115 1211.25 Q515.629 1206.43 523.476 1206.43 Q526.578 1206.43 529.31 1207.26 Q532.064 1208.07 534.472 1209.72 Z" fill="#000000" fill-rule="nonzero" fill-opacity="1" /><path clip-path="url(#clip950)" d="M551.555 1218.68 Q548.129 1218.68 546.138 1221.36 Q544.148 1224.02 544.148 1228.68 Q544.148 1233.33 546.115 1236.01 Q548.106 1238.68 551.555 1238.68 Q554.958 1238.68 556.948 1235.99 Q558.939 1233.31 558.939 1228.68 Q558.939 1224.07 556.948 1221.38 Q554.958 1218.68 551.555 1218.68 M551.555 1215.07 Q557.11 1215.07 560.282 1218.68 Q563.453 1222.29 563.453 1228.68 Q563.453 1235.04 560.282 1238.68 Q557.11 1242.29 551.555 1242.29 Q545.976 1242.29 542.805 1238.68 Q539.657 1235.04 539.657 1228.68 Q539.657 1222.29 542.805 1218.68 Q545.976 1215.07 551.555 1215.07 Z" fill="#000000" fill-rule="nonzero" fill-opacity="1" /><path clip-path="url(#clip950)" d="M592.064 1225.97 L592.064 1241.62 L587.805 1241.62 L587.805 1226.11 Q587.805 1222.43 586.37 1220.6 Q584.934 1218.77 582.064 1218.77 Q578.615 1218.77 576.624 1220.97 Q574.634 1223.17 574.634 1226.96 L574.634 1241.62 L570.351 1241.62 L570.351 1215.69 L574.634 1215.69 L574.634 1219.72 Q576.161 1217.38 578.221 1216.22 Q580.305 1215.07 583.013 1215.07 Q587.481 1215.07 589.772 1217.84 Q592.064 1220.6 592.064 1225.97 Z" fill="#000000" fill-rule="nonzero" fill-opacity="1" /><path clip-path="url(#clip950)" d="M617.619 1219.63 L617.619 1205.6 L621.879 1205.6 L621.879 1241.62 L617.619 1241.62 L617.619 1237.73 Q616.277 1240.04 614.217 1241.18 Q612.18 1242.29 609.309 1242.29 Q604.61 1242.29 601.647 1238.54 Q598.707 1234.79 598.707 1228.68 Q598.707 1222.57 601.647 1218.82 Q604.61 1215.07 609.309 1215.07 Q612.18 1215.07 614.217 1216.2 Q616.277 1217.31 617.619 1219.63 M603.106 1228.68 Q603.106 1233.38 605.027 1236.06 Q606.971 1238.72 610.351 1238.72 Q613.731 1238.72 615.675 1236.06 Q617.619 1233.38 617.619 1228.68 Q617.619 1223.98 615.675 1221.32 Q613.731 1218.63 610.351 1218.63 Q606.971 1218.63 605.027 1221.32 Q603.106 1223.98 603.106 1228.68 Z" fill="#000000" fill-rule="nonzero" fill-opacity="1" /><path clip-path="url(#clip950)" d="M630.652 1215.69 L634.911 1215.69 L634.911 1241.62 L630.652 1241.62 L630.652 1215.69 M630.652 1205.6 L634.911 1205.6 L634.911 1210.99 L630.652 1210.99 L630.652 1205.6 Z" fill="#000000" fill-rule="nonzero" fill-opacity="1" /><path clip-path="url(#clip950)" d="M648.036 1208.33 L648.036 1215.69 L656.809 1215.69 L656.809 1219 L648.036 1219 L648.036 1233.07 Q648.036 1236.25 648.892 1237.15 Q649.772 1238.05 652.434 1238.05 L656.809 1238.05 L656.809 1241.62 L652.434 1241.62 Q647.504 1241.62 645.629 1239.79 Q643.754 1237.94 643.754 1233.07 L643.754 1219 L640.629 1219 L640.629 1215.69 L643.754 1215.69 L643.754 1208.33 L648.036 1208.33 Z" fill="#000000" fill-rule="nonzero" fill-opacity="1" /><path clip-path="url(#clip950)" d="M662.411 1215.69 L666.67 1215.69 L666.67 1241.62 L662.411 1241.62 L662.411 1215.69 M662.411 1205.6 L666.67 1205.6 L666.67 1210.99 L662.411 1210.99 L662.411 1205.6 Z" fill="#000000" fill-rule="nonzero" fill-opacity="1" /><path clip-path="url(#clip950)" d="M685.628 1218.68 Q682.202 1218.68 680.212 1221.36 Q678.221 1224.02 678.221 1228.68 Q678.221 1233.33 680.189 1236.01 Q682.179 1238.68 685.628 1238.68 Q689.031 1238.68 691.022 1235.99 Q693.013 1233.31 693.013 1228.68 Q693.013 1224.07 691.022 1221.38 Q689.031 1218.68 685.628 1218.68 M685.628 1215.07 Q691.184 1215.07 694.355 1218.68 Q697.526 1222.29 697.526 1228.68 Q697.526 1235.04 694.355 1238.68 Q691.184 1242.29 685.628 1242.29 Q680.05 1242.29 676.878 1238.68 Q673.73 1235.04 673.73 1228.68 Q673.73 1222.29 676.878 1218.68 Q680.05 1215.07 685.628 1215.07 Z" fill="#000000" fill-rule="nonzero" fill-opacity="1" /><path clip-path="url(#clip950)" d="M726.137 1225.97 L726.137 1241.62 L721.878 1241.62 L721.878 1226.11 Q721.878 1222.43 720.443 1220.6 Q719.008 1218.77 716.137 1218.77 Q712.688 1218.77 710.698 1220.97 Q708.707 1223.17 708.707 1226.96 L708.707 1241.62 L704.425 1241.62 L704.425 1215.69 L708.707 1215.69 L708.707 1219.72 Q710.235 1217.38 712.295 1216.22 Q714.378 1215.07 717.086 1215.07 Q721.554 1215.07 723.846 1217.84 Q726.137 1220.6 726.137 1225.97 Z" fill="#000000" fill-rule="nonzero" fill-opacity="1" /><path clip-path="url(#clip950)" d="M756.808 1227.59 L756.808 1229.67 L737.225 1229.67 Q737.503 1234.07 739.864 1236.38 Q742.248 1238.68 746.484 1238.68 Q748.938 1238.68 751.23 1238.07 Q753.545 1237.47 755.813 1236.27 L755.813 1240.3 Q753.521 1241.27 751.114 1241.78 Q748.707 1242.29 746.23 1242.29 Q740.026 1242.29 736.392 1238.68 Q732.781 1235.07 732.781 1228.91 Q732.781 1222.54 736.207 1218.82 Q739.656 1215.07 745.489 1215.07 Q750.721 1215.07 753.753 1218.45 Q756.808 1221.8 756.808 1227.59 M752.549 1226.34 Q752.503 1222.84 750.582 1220.76 Q748.684 1218.68 745.535 1218.68 Q741.971 1218.68 739.818 1220.69 Q737.688 1222.7 737.364 1226.36 L752.549 1226.34 Z" fill="#000000" fill-rule="nonzero" fill-opacity="1" /><path clip-path="url(#clip950)" d="M780.859 1219.63 L780.859 1205.6 L785.119 1205.6 L785.119 1241.62 L780.859 1241.62 L780.859 1237.73 Q779.517 1240.04 777.457 1241.18 Q775.42 1242.29 772.549 1242.29 Q767.85 1242.29 764.887 1238.54 Q761.947 1234.79 761.947 1228.68 Q761.947 1222.57 764.887 1218.82 Q767.85 1215.07 772.549 1215.07 Q775.42 1215.07 777.457 1216.2 Q779.517 1217.31 780.859 1219.63 M766.345 1228.68 Q766.345 1233.38 768.267 1236.06 Q770.211 1238.72 773.591 1238.72 Q776.97 1238.72 778.915 1236.06 Q780.859 1233.38 780.859 1228.68 Q780.859 1223.98 778.915 1221.32 Q776.97 1218.63 773.591 1218.63 Q770.211 1218.63 768.267 1221.32 Q766.345 1223.98 766.345 1228.68 Z" fill="#000000" fill-rule="nonzero" fill-opacity="1" /><path clip-path="url(#clip950)" d="M813.822 1210.9 L813.822 1237.77 L819.47 1237.77 Q826.623 1237.77 829.933 1234.53 Q833.266 1231.29 833.266 1224.3 Q833.266 1217.36 829.933 1214.14 Q826.623 1210.9 819.47 1210.9 L813.822 1210.9 M809.146 1207.06 L818.753 1207.06 Q828.799 1207.06 833.498 1211.25 Q838.197 1215.41 838.197 1224.3 Q838.197 1233.24 833.475 1237.43 Q828.753 1241.62 818.753 1241.62 L809.146 1241.62 L809.146 1207.06 Z" fill="#000000" fill-rule="nonzero" fill-opacity="1" /><path clip-path="url(#clip950)" d="M857.248 1228.58 Q852.086 1228.58 850.095 1229.76 Q848.104 1230.95 848.104 1233.79 Q848.104 1236.06 849.586 1237.4 Q851.09 1238.72 853.66 1238.72 Q857.201 1238.72 859.331 1236.22 Q861.484 1233.7 861.484 1229.53 L861.484 1228.58 L857.248 1228.58 M865.743 1226.82 L865.743 1241.62 L861.484 1241.62 L861.484 1237.68 Q860.026 1240.04 857.85 1241.18 Q855.674 1242.29 852.526 1242.29 Q848.544 1242.29 846.183 1240.07 Q843.845 1237.82 843.845 1234.07 Q843.845 1229.7 846.762 1227.47 Q849.702 1225.25 855.512 1225.25 L861.484 1225.25 L861.484 1224.83 Q861.484 1221.89 859.539 1220.3 Q857.618 1218.68 854.123 1218.68 Q851.901 1218.68 849.794 1219.21 Q847.688 1219.74 845.743 1220.81 L845.743 1216.87 Q848.081 1215.97 850.28 1215.53 Q852.479 1215.07 854.563 1215.07 Q860.188 1215.07 862.965 1217.98 Q865.743 1220.9 865.743 1226.82 Z" fill="#000000" fill-rule="nonzero" fill-opacity="1" /><path clip-path="url(#clip950)" d="M878.729 1208.33 L878.729 1215.69 L887.502 1215.69 L887.502 1219 L878.729 1219 L878.729 1233.07 Q878.729 1236.25 879.586 1237.15 Q880.465 1238.05 883.127 1238.05 L887.502 1238.05 L887.502 1241.62 L883.127 1241.62 Q878.197 1241.62 876.322 1239.79 Q874.447 1237.94 874.447 1233.07 L874.447 1219 L871.322 1219 L871.322 1215.69 L874.447 1215.69 L874.447 1208.33 L878.729 1208.33 Z" fill="#000000" fill-rule="nonzero" fill-opacity="1" /><path clip-path="url(#clip950)" d="M904.886 1228.58 Q899.724 1228.58 897.734 1229.76 Q895.743 1230.95 895.743 1233.79 Q895.743 1236.06 897.224 1237.4 Q898.729 1238.72 901.298 1238.72 Q904.84 1238.72 906.97 1236.22 Q909.122 1233.7 909.122 1229.53 L909.122 1228.58 L904.886 1228.58 M913.382 1226.82 L913.382 1241.62 L909.122 1241.62 L909.122 1237.68 Q907.664 1240.04 905.488 1241.18 Q903.312 1242.29 900.164 1242.29 Q896.183 1242.29 893.822 1240.07 Q891.484 1237.82 891.484 1234.07 Q891.484 1229.7 894.4 1227.47 Q897.34 1225.25 903.15 1225.25 L909.122 1225.25 L909.122 1224.83 Q909.122 1221.89 907.178 1220.3 Q905.257 1218.68 901.761 1218.68 Q899.539 1218.68 897.433 1219.21 Q895.326 1219.74 893.382 1220.81 L893.382 1216.87 Q895.72 1215.97 897.919 1215.53 Q900.118 1215.07 902.201 1215.07 Q907.826 1215.07 910.604 1217.98 Q913.382 1220.9 913.382 1226.82 Z" fill="#000000" fill-rule="nonzero" fill-opacity="1" /><polyline clip-path="url(#clip950)" style="stroke:#e26f46; stroke-linecap:round; stroke-linejoin:round; stroke-width:8; stroke-opacity:1; fill:none" stroke-dasharray="32, 16, 4, 16" points="343.018,1276.18 483.232,1276.18 "/>
<path clip-path="url(#clip950)" d="M511.277 1262.74 L511.277 1275.72 L517.157 1275.72 Q520.421 1275.72 522.203 1274.04 Q523.986 1272.35 523.986 1269.22 Q523.986 1266.12 522.203 1264.43 Q520.421 1262.74 517.157 1262.74 L511.277 1262.74 M506.602 1258.9 L517.157 1258.9 Q522.967 1258.9 525.93 1261.54 Q528.916 1264.15 528.916 1269.22 Q528.916 1274.34 525.93 1276.95 Q522.967 1279.57 517.157 1279.57 L511.277 1279.57 L511.277 1293.46 L506.602 1293.46 L506.602 1258.9 Z" fill="#000000" fill-rule="nonzero" fill-opacity="1" /><path clip-path="url(#clip950)" d="M549.194 1271.51 Q548.476 1271.1 547.62 1270.91 Q546.786 1270.7 545.768 1270.7 Q542.157 1270.7 540.212 1273.06 Q538.291 1275.4 538.291 1279.8 L538.291 1293.46 L534.009 1293.46 L534.009 1267.53 L538.291 1267.53 L538.291 1271.56 Q539.634 1269.2 541.787 1268.06 Q543.939 1266.91 547.018 1266.91 Q547.458 1266.91 547.99 1266.97 Q548.523 1267.02 549.171 1267.14 L549.194 1271.51 Z" fill="#000000" fill-rule="nonzero" fill-opacity="1" /><path clip-path="url(#clip950)" d="M574.796 1279.43 L574.796 1281.51 L555.212 1281.51 Q555.49 1285.91 557.851 1288.22 Q560.235 1290.52 564.472 1290.52 Q566.925 1290.52 569.217 1289.91 Q571.532 1289.31 573.8 1288.11 L573.8 1292.14 Q571.509 1293.11 569.101 1293.62 Q566.694 1294.13 564.217 1294.13 Q558.013 1294.13 554.379 1290.52 Q550.768 1286.91 550.768 1280.75 Q550.768 1274.38 554.194 1270.66 Q557.643 1266.91 563.476 1266.91 Q568.708 1266.91 571.74 1270.29 Q574.796 1273.64 574.796 1279.43 M570.536 1278.18 Q570.49 1274.68 568.569 1272.6 Q566.671 1270.52 563.522 1270.52 Q559.958 1270.52 557.805 1272.53 Q555.675 1274.54 555.351 1278.2 L570.536 1278.18 Z" fill="#000000" fill-rule="nonzero" fill-opacity="1" /><path clip-path="url(#clip950)" d="M598.846 1271.47 L598.846 1257.44 L603.106 1257.44 L603.106 1293.46 L598.846 1293.46 L598.846 1289.57 Q597.504 1291.88 595.444 1293.02 Q593.407 1294.13 590.536 1294.13 Q585.837 1294.13 582.874 1290.38 Q579.934 1286.63 579.934 1280.52 Q579.934 1274.41 582.874 1270.66 Q585.837 1266.91 590.536 1266.91 Q593.407 1266.91 595.444 1268.04 Q597.504 1269.15 598.846 1271.47 M584.333 1280.52 Q584.333 1285.22 586.254 1287.9 Q588.198 1290.56 591.578 1290.56 Q594.958 1290.56 596.902 1287.9 Q598.846 1285.22 598.846 1280.52 Q598.846 1275.82 596.902 1273.16 Q594.958 1270.47 591.578 1270.47 Q588.198 1270.47 586.254 1273.16 Q584.333 1275.82 584.333 1280.52 Z" fill="#000000" fill-rule="nonzero" fill-opacity="1" /><path clip-path="url(#clip950)" d="M611.879 1267.53 L616.138 1267.53 L616.138 1293.46 L611.879 1293.46 L611.879 1267.53 M611.879 1257.44 L616.138 1257.44 L616.138 1262.83 L611.879 1262.83 L611.879 1257.44 Z" fill="#000000" fill-rule="nonzero" fill-opacity="1" /><path clip-path="url(#clip950)" d="M643.707 1268.53 L643.707 1272.51 Q641.902 1271.51 640.073 1271.03 Q638.267 1270.52 636.416 1270.52 Q632.272 1270.52 629.98 1273.16 Q627.689 1275.77 627.689 1280.52 Q627.689 1285.26 629.98 1287.9 Q632.272 1290.52 636.416 1290.52 Q638.267 1290.52 640.073 1290.03 Q641.902 1289.52 643.707 1288.53 L643.707 1292.46 Q641.925 1293.29 640.004 1293.71 Q638.105 1294.13 635.953 1294.13 Q630.096 1294.13 626.647 1290.45 Q623.198 1286.77 623.198 1280.52 Q623.198 1274.17 626.67 1270.54 Q630.166 1266.91 636.23 1266.91 Q638.198 1266.91 640.073 1267.32 Q641.948 1267.72 643.707 1268.53 Z" fill="#000000" fill-rule="nonzero" fill-opacity="1" /><path clip-path="url(#clip950)" d="M655.328 1260.17 L655.328 1267.53 L664.101 1267.53 L664.101 1270.84 L655.328 1270.84 L655.328 1284.91 Q655.328 1288.09 656.184 1288.99 Q657.064 1289.89 659.726 1289.89 L664.101 1289.89 L664.101 1293.46 L659.726 1293.46 Q654.795 1293.46 652.92 1291.63 Q651.045 1289.78 651.045 1284.91 L651.045 1270.84 L647.92 1270.84 L647.92 1267.53 L651.045 1267.53 L651.045 1260.17 L655.328 1260.17 Z" fill="#000000" fill-rule="nonzero" fill-opacity="1" /><path clip-path="url(#clip950)" d="M691.878 1279.43 L691.878 1281.51 L672.295 1281.51 Q672.573 1285.91 674.934 1288.22 Q677.318 1290.52 681.554 1290.52 Q684.008 1290.52 686.3 1289.91 Q688.614 1289.31 690.883 1288.11 L690.883 1292.14 Q688.591 1293.11 686.184 1293.62 Q683.776 1294.13 681.3 1294.13 Q675.096 1294.13 671.462 1290.52 Q667.851 1286.91 667.851 1280.75 Q667.851 1274.38 671.277 1270.66 Q674.726 1266.91 680.559 1266.91 Q685.79 1266.91 688.823 1270.29 Q691.878 1273.64 691.878 1279.43 M687.619 1278.18 Q687.573 1274.68 685.651 1272.6 Q683.753 1270.52 680.605 1270.52 Q677.04 1270.52 674.888 1272.53 Q672.758 1274.54 672.434 1278.2 L687.619 1278.18 Z" fill="#000000" fill-rule="nonzero" fill-opacity="1" /><path clip-path="url(#clip950)" d="M715.929 1271.47 L715.929 1257.44 L720.188 1257.44 L720.188 1293.46 L715.929 1293.46 L715.929 1289.57 Q714.587 1291.88 712.526 1293.02 Q710.489 1294.13 707.619 1294.13 Q702.92 1294.13 699.957 1290.38 Q697.017 1286.63 697.017 1280.52 Q697.017 1274.41 699.957 1270.66 Q702.92 1266.91 707.619 1266.91 Q710.489 1266.91 712.526 1268.04 Q714.587 1269.15 715.929 1271.47 M701.415 1280.52 Q701.415 1285.22 703.337 1287.9 Q705.281 1290.56 708.661 1290.56 Q712.04 1290.56 713.985 1287.9 Q715.929 1285.22 715.929 1280.52 Q715.929 1275.82 713.985 1273.16 Q712.04 1270.47 708.661 1270.47 Q705.281 1270.47 703.337 1273.16 Q701.415 1275.82 701.415 1280.52 Z" fill="#000000" fill-rule="nonzero" fill-opacity="1" /><path clip-path="url(#clip950)" d="M748.892 1262.74 L748.892 1275.72 L754.771 1275.72 Q758.035 1275.72 759.818 1274.04 Q761.6 1272.35 761.6 1269.22 Q761.6 1266.12 759.818 1264.43 Q758.035 1262.74 754.771 1262.74 L748.892 1262.74 M744.216 1258.9 L754.771 1258.9 Q760.582 1258.9 763.545 1261.54 Q766.531 1264.15 766.531 1269.22 Q766.531 1274.34 763.545 1276.95 Q760.582 1279.57 754.771 1279.57 L748.892 1279.57 L748.892 1293.46 L744.216 1293.46 L744.216 1258.9 Z" fill="#000000" fill-rule="nonzero" fill-opacity="1" /><path clip-path="url(#clip950)" d="M780.975 1270.52 Q777.549 1270.52 775.558 1273.2 Q773.568 1275.86 773.568 1280.52 Q773.568 1285.17 775.535 1287.85 Q777.526 1290.52 780.975 1290.52 Q784.378 1290.52 786.369 1287.83 Q788.359 1285.15 788.359 1280.52 Q788.359 1275.91 786.369 1273.22 Q784.378 1270.52 780.975 1270.52 M780.975 1266.91 Q786.531 1266.91 789.702 1270.52 Q792.873 1274.13 792.873 1280.52 Q792.873 1286.88 789.702 1290.52 Q786.531 1294.13 780.975 1294.13 Q775.396 1294.13 772.225 1290.52 Q769.077 1286.88 769.077 1280.52 Q769.077 1274.13 772.225 1270.52 Q775.396 1266.91 780.975 1266.91 Z" fill="#000000" fill-rule="nonzero" fill-opacity="1" /><path clip-path="url(#clip950)" d="M799.933 1267.53 L804.193 1267.53 L804.193 1293.46 L799.933 1293.46 L799.933 1267.53 M799.933 1257.44 L804.193 1257.44 L804.193 1262.83 L799.933 1262.83 L799.933 1257.44 Z" fill="#000000" fill-rule="nonzero" fill-opacity="1" /><path clip-path="url(#clip950)" d="M834.655 1277.81 L834.655 1293.46 L830.396 1293.46 L830.396 1277.95 Q830.396 1274.27 828.961 1272.44 Q827.526 1270.61 824.655 1270.61 Q821.206 1270.61 819.216 1272.81 Q817.225 1275.01 817.225 1278.8 L817.225 1293.46 L812.942 1293.46 L812.942 1267.53 L817.225 1267.53 L817.225 1271.56 Q818.753 1269.22 820.813 1268.06 Q822.896 1266.91 825.604 1266.91 Q830.072 1266.91 832.364 1269.68 Q834.655 1272.44 834.655 1277.81 Z" fill="#000000" fill-rule="nonzero" fill-opacity="1" /><path clip-path="url(#clip950)" d="M847.364 1260.17 L847.364 1267.53 L856.137 1267.53 L856.137 1270.84 L847.364 1270.84 L847.364 1284.91 Q847.364 1288.09 848.22 1288.99 Q849.1 1289.89 851.762 1289.89 L856.137 1289.89 L856.137 1293.46 L851.762 1293.46 Q846.831 1293.46 844.956 1291.63 Q843.081 1289.78 843.081 1284.91 L843.081 1270.84 L839.956 1270.84 L839.956 1267.53 L843.081 1267.53 L843.081 1260.17 L847.364 1260.17 Z" fill="#000000" fill-rule="nonzero" fill-opacity="1" /><path clip-path="url(#clip950)" d="M878.266 1268.29 L878.266 1272.32 Q876.461 1271.4 874.516 1270.93 Q872.572 1270.47 870.488 1270.47 Q867.317 1270.47 865.72 1271.44 Q864.146 1272.41 864.146 1274.36 Q864.146 1275.84 865.28 1276.7 Q866.414 1277.53 869.84 1278.29 L871.299 1278.62 Q875.836 1279.59 877.734 1281.37 Q879.655 1283.13 879.655 1286.3 Q879.655 1289.91 876.785 1292.02 Q873.938 1294.13 868.938 1294.13 Q866.854 1294.13 864.586 1293.71 Q862.34 1293.32 859.84 1292.51 L859.84 1288.11 Q862.201 1289.34 864.493 1289.96 Q866.785 1290.56 869.03 1290.56 Q872.039 1290.56 873.66 1289.54 Q875.28 1288.5 875.28 1286.63 Q875.28 1284.89 874.1 1283.97 Q872.942 1283.04 868.984 1282.18 L867.502 1281.84 Q863.544 1281 861.785 1279.29 Q860.026 1277.55 860.026 1274.54 Q860.026 1270.89 862.618 1268.9 Q865.211 1266.91 869.979 1266.91 Q872.34 1266.91 874.424 1267.25 Q876.507 1267.6 878.266 1268.29 Z" fill="#000000" fill-rule="nonzero" fill-opacity="1" /><polyline clip-path="url(#clip950)" style="stroke:#3da44d; stroke-linecap:round; stroke-linejoin:round; stroke-width:8; stroke-opacity:1; fill:none" points="343.018,1328.02 483.232,1328.02 "/>
<path clip-path="url(#clip950)" d="M522.435 1315.34 L516.092 1332.54 L528.8 1332.54 L522.435 1315.34 M519.796 1310.74 L525.097 1310.74 L538.268 1345.3 L533.407 1345.3 L530.259 1336.43 L514.68 1336.43 L511.532 1345.3 L506.602 1345.3 L519.796 1310.74 Z" fill="#000000" fill-rule="nonzero" fill-opacity="1" /><path clip-path="url(#clip950)" d="M560.953 1320.37 L560.953 1324.35 Q559.148 1323.35 557.319 1322.87 Q555.513 1322.36 553.661 1322.36 Q549.518 1322.36 547.226 1325 Q544.935 1327.61 544.935 1332.36 Q544.935 1337.1 547.226 1339.74 Q549.518 1342.36 553.661 1342.36 Q555.513 1342.36 557.319 1341.87 Q559.148 1341.36 560.953 1340.37 L560.953 1344.3 Q559.171 1345.13 557.249 1345.55 Q555.351 1345.97 553.198 1345.97 Q547.342 1345.97 543.893 1342.29 Q540.444 1338.61 540.444 1332.36 Q540.444 1326.01 543.916 1322.38 Q547.411 1318.75 553.476 1318.75 Q555.444 1318.75 557.319 1319.16 Q559.194 1319.56 560.953 1320.37 Z" fill="#000000" fill-rule="nonzero" fill-opacity="1" /><path clip-path="url(#clip950)" d="M572.573 1312.01 L572.573 1319.37 L581.346 1319.37 L581.346 1322.68 L572.573 1322.68 L572.573 1336.75 Q572.573 1339.93 573.43 1340.83 Q574.309 1341.73 576.971 1341.73 L581.346 1341.73 L581.346 1345.3 L576.971 1345.3 Q572.041 1345.3 570.166 1343.47 Q568.291 1341.62 568.291 1336.75 L568.291 1322.68 L565.166 1322.68 L565.166 1319.37 L568.291 1319.37 L568.291 1312.01 L572.573 1312.01 Z" fill="#000000" fill-rule="nonzero" fill-opacity="1" /><path clip-path="url(#clip950)" d="M586.508 1335.06 L586.508 1319.37 L590.768 1319.37 L590.768 1334.9 Q590.768 1338.58 592.203 1340.44 Q593.638 1342.26 596.508 1342.26 Q599.957 1342.26 601.948 1340.06 Q603.962 1337.87 603.962 1334.07 L603.962 1319.37 L608.221 1319.37 L608.221 1345.3 L603.962 1345.3 L603.962 1341.31 Q602.411 1343.68 600.351 1344.83 Q598.314 1345.97 595.606 1345.97 Q591.138 1345.97 588.823 1343.19 Q586.508 1340.41 586.508 1335.06 M597.226 1318.75 L597.226 1318.75 Z" fill="#000000" fill-rule="nonzero" fill-opacity="1" /><path clip-path="url(#clip950)" d="M628.777 1332.26 Q623.615 1332.26 621.624 1333.44 Q619.633 1334.63 619.633 1337.47 Q619.633 1339.74 621.115 1341.08 Q622.619 1342.4 625.189 1342.4 Q628.73 1342.4 630.86 1339.9 Q633.013 1337.38 633.013 1333.21 L633.013 1332.26 L628.777 1332.26 M637.272 1330.5 L637.272 1345.3 L633.013 1345.3 L633.013 1341.36 Q631.555 1343.72 629.379 1344.86 Q627.203 1345.97 624.055 1345.97 Q620.073 1345.97 617.712 1343.75 Q615.374 1341.5 615.374 1337.75 Q615.374 1333.38 618.291 1331.15 Q621.231 1328.93 627.041 1328.93 L633.013 1328.93 L633.013 1328.51 Q633.013 1325.57 631.068 1323.98 Q629.147 1322.36 625.652 1322.36 Q623.43 1322.36 621.323 1322.89 Q619.217 1323.42 617.272 1324.49 L617.272 1320.55 Q619.61 1319.65 621.809 1319.21 Q624.008 1318.75 626.092 1318.75 Q631.717 1318.75 634.494 1321.66 Q637.272 1324.58 637.272 1330.5 Z" fill="#000000" fill-rule="nonzero" fill-opacity="1" /><path clip-path="url(#clip950)" d="M646.045 1309.28 L650.304 1309.28 L650.304 1345.3 L646.045 1345.3 L646.045 1309.28 Z" fill="#000000" fill-rule="nonzero" fill-opacity="1" /><path clip-path="url(#clip950)" d="M679.147 1314.58 L679.147 1341.45 L684.795 1341.45 Q691.948 1341.45 695.258 1338.21 Q698.591 1334.97 698.591 1327.98 Q698.591 1321.04 695.258 1317.82 Q691.948 1314.58 684.795 1314.58 L679.147 1314.58 M674.471 1310.74 L684.077 1310.74 Q694.124 1310.74 698.823 1314.93 Q703.522 1319.09 703.522 1327.98 Q703.522 1336.92 698.8 1341.11 Q694.077 1345.3 684.077 1345.3 L674.471 1345.3 L674.471 1310.74 Z" fill="#000000" fill-rule="nonzero" fill-opacity="1" /><path clip-path="url(#clip950)" d="M722.573 1332.26 Q717.411 1332.26 715.42 1333.44 Q713.429 1334.63 713.429 1337.47 Q713.429 1339.74 714.911 1341.08 Q716.415 1342.4 718.985 1342.4 Q722.526 1342.4 724.656 1339.9 Q726.809 1337.38 726.809 1333.21 L726.809 1332.26 L722.573 1332.26 M731.068 1330.5 L731.068 1345.3 L726.809 1345.3 L726.809 1341.36 Q725.35 1343.72 723.174 1344.86 Q720.999 1345.97 717.85 1345.97 Q713.869 1345.97 711.508 1343.75 Q709.17 1341.5 709.17 1337.75 Q709.17 1333.38 712.087 1331.15 Q715.026 1328.93 720.836 1328.93 L726.809 1328.93 L726.809 1328.51 Q726.809 1325.57 724.864 1323.98 Q722.943 1322.36 719.448 1322.36 Q717.225 1322.36 715.119 1322.89 Q713.012 1323.42 711.068 1324.49 L711.068 1320.55 Q713.406 1319.65 715.605 1319.21 Q717.804 1318.75 719.887 1318.75 Q725.512 1318.75 728.29 1321.66 Q731.068 1324.58 731.068 1330.5 Z" fill="#000000" fill-rule="nonzero" fill-opacity="1" /><path clip-path="url(#clip950)" d="M744.054 1312.01 L744.054 1319.37 L752.827 1319.37 L752.827 1322.68 L744.054 1322.68 L744.054 1336.75 Q744.054 1339.93 744.91 1340.83 Q745.79 1341.73 748.452 1341.73 L752.827 1341.73 L752.827 1345.3 L748.452 1345.3 Q743.522 1345.3 741.647 1343.47 Q739.772 1341.62 739.772 1336.75 L739.772 1322.68 L736.647 1322.68 L736.647 1319.37 L739.772 1319.37 L739.772 1312.01 L744.054 1312.01 Z" fill="#000000" fill-rule="nonzero" fill-opacity="1" /><path clip-path="url(#clip950)" d="M770.211 1332.26 Q765.049 1332.26 763.058 1333.44 Q761.068 1334.63 761.068 1337.47 Q761.068 1339.74 762.549 1341.08 Q764.054 1342.4 766.623 1342.4 Q770.165 1342.4 772.295 1339.9 Q774.447 1337.38 774.447 1333.21 L774.447 1332.26 L770.211 1332.26 M778.707 1330.5 L778.707 1345.3 L774.447 1345.3 L774.447 1341.36 Q772.989 1343.72 770.813 1344.86 Q768.637 1345.97 765.489 1345.97 Q761.508 1345.97 759.146 1343.75 Q756.808 1341.5 756.808 1337.75 Q756.808 1333.38 759.725 1331.15 Q762.665 1328.93 768.475 1328.93 L774.447 1328.93 L774.447 1328.51 Q774.447 1325.57 772.503 1323.98 Q770.582 1322.36 767.086 1322.36 Q764.864 1322.36 762.758 1322.89 Q760.651 1323.42 758.707 1324.49 L758.707 1320.55 Q761.045 1319.65 763.244 1319.21 Q765.443 1318.75 767.526 1318.75 Q773.151 1318.75 775.929 1321.66 Q778.707 1324.58 778.707 1330.5 Z" fill="#000000" fill-rule="nonzero" fill-opacity="1" /></svg>
