<?xml version="1.0" encoding="utf-8"?>
<svg xmlns="http://www.w3.org/2000/svg" xmlns:xlink="http://www.w3.org/1999/xlink" width="600" height="400" viewBox="0 0 2400 1600">
<defs>
  <clipPath id="clip280">
    <rect x="0" y="0" width="2400" height="1600"/>
  </clipPath>
</defs>
<path clip-path="url(#clip280)" d="M0 1600 L2400 1600 L2400 8.88178e-14 L0 8.88178e-14  Z" fill="#ffffff" fill-rule="evenodd" fill-opacity="1"/>
<defs>
  <clipPath id="clip281">
    <rect x="480" y="0" width="1681" height="1600"/>
  </clipPath>
</defs>
<path clip-path="url(#clip280)" d="M219.866 1423.18 L2352.76 1423.18 L2352.76 123.472 L219.866 123.472  Z" fill="#ffffff" fill-rule="evenodd" fill-opacity="1"/>
<defs>
  <clipPath id="clip282">
    <rect x="219" y="123" width="2134" height="1301"/>
  </clipPath>
</defs>
<polyline clip-path="url(#clip282)" style="stroke:#000000; stroke-linecap:round; stroke-linejoin:round; stroke-width:2; stroke-opacity:0.1; fill:none" points="259.05,1423.18 259.05,123.472 "/>
<polyline clip-path="url(#clip282)" style="stroke:#000000; stroke-linecap:round; stroke-linejoin:round; stroke-width:2; stroke-opacity:0.1; fill:none" points="682.663,1423.18 682.663,123.472 "/>
<polyline clip-path="url(#clip282)" style="stroke:#000000; stroke-linecap:round; stroke-linejoin:round; stroke-width:2; stroke-opacity:0.1; fill:none" points="1106.28,1423.18 1106.28,123.472 "/>
<polyline clip-path="url(#clip282)" style="stroke:#000000; stroke-linecap:round; stroke-linejoin:round; stroke-width:2; stroke-opacity:0.1; fill:none" points="1529.89,1423.18 1529.89,123.472 "/>
<polyline clip-path="url(#clip282)" style="stroke:#000000; stroke-linecap:round; stroke-linejoin:round; stroke-width:2; stroke-opacity:0.1; fill:none" points="1953.5,1423.18 1953.5,123.472 "/>
<polyline clip-path="url(#clip280)" style="stroke:#000000; stroke-linecap:round; stroke-linejoin:round; stroke-width:4; stroke-opacity:1; fill:none" points="219.866,1423.18 2352.76,1423.18 "/>
<polyline clip-path="url(#clip280)" style="stroke:#000000; stroke-linecap:round; stroke-linejoin:round; stroke-width:4; stroke-opacity:1; fill:none" points="259.05,1423.18 259.05,1404.28 "/>
<polyline clip-path="url(#clip280)" style="stroke:#000000; stroke-linecap:round; stroke-linejoin:round; stroke-width:4; stroke-opacity:1; fill:none" points="682.663,1423.18 682.663,1404.28 "/>
<polyline clip-path="url(#clip280)" style="stroke:#000000; stroke-linecap:round; stroke-linejoin:round; stroke-width:4; stroke-opacity:1; fill:none" points="1106.28,1423.18 1106.28,1404.28 "/>
<polyline clip-path="url(#clip280)" style="stroke:#000000; stroke-linecap:round; stroke-linejoin:round; stroke-width:4; stroke-opacity:1; fill:none" points="1529.89,1423.18 1529.89,1404.28 "/>
<polyline clip-path="url(#clip280)" style="stroke:#000000; stroke-linecap:round; stroke-linejoin:round; stroke-width:4; stroke-opacity:1; fill:none" points="1953.5,1423.18 1953.5,1404.28 "/>
<path clip-path="url(#clip280)" d="M259.05 1454.1 Q255.439 1454.1 253.611 1457.66 Q251.805 1461.2 251.805 1468.33 Q251.805 1475.44 253.611 1479.01 Q255.439 1482.55 259.05 1482.55 Q262.685 1482.55 264.49 1479.01 Q266.319 1475.44 266.319 1468.33 Q266.319 1461.2 264.49 1457.66 Q262.685 1454.1 259.05 1454.1 M259.05 1450.39 Q264.861 1450.39 267.916 1455 Q270.995 1459.58 270.995 1468.33 Q270.995 1477.06 267.916 1481.67 Q264.861 1486.25 259.05 1486.25 Q253.24 1486.25 250.162 1481.67 Q247.106 1477.06 247.106 1468.33 Q247.106 1459.58 250.162 1455 Q253.24 1450.39 259.05 1450.39 Z" fill="#000000" fill-rule="nonzero" fill-opacity="1" /><path clip-path="url(#clip280)" d="M661.436 1481.64 L677.756 1481.64 L677.756 1485.58 L655.811 1485.58 L655.811 1481.64 Q658.473 1478.89 663.057 1474.26 Q667.663 1469.61 668.844 1468.27 Q671.089 1465.74 671.969 1464.01 Q672.871 1462.25 672.871 1460.56 Q672.871 1457.8 670.927 1456.07 Q669.006 1454.33 665.904 1454.33 Q663.705 1454.33 661.251 1455.09 Q658.821 1455.86 656.043 1457.41 L656.043 1452.69 Q658.867 1451.55 661.321 1450.97 Q663.774 1450.39 665.811 1450.39 Q671.182 1450.39 674.376 1453.08 Q677.571 1455.77 677.571 1460.26 Q677.571 1462.39 676.76 1464.31 Q675.973 1466.2 673.867 1468.8 Q673.288 1469.47 670.186 1472.69 Q667.084 1475.88 661.436 1481.64 Z" fill="#000000" fill-rule="nonzero" fill-opacity="1" /><path clip-path="url(#clip280)" d="M697.57 1454.1 Q693.959 1454.1 692.131 1457.66 Q690.325 1461.2 690.325 1468.33 Q690.325 1475.44 692.131 1479.01 Q693.959 1482.55 697.57 1482.55 Q701.205 1482.55 703.01 1479.01 Q704.839 1475.44 704.839 1468.33 Q704.839 1461.2 703.01 1457.66 Q701.205 1454.1 697.57 1454.1 M697.57 1450.39 Q703.381 1450.39 706.436 1455 Q709.515 1459.58 709.515 1468.33 Q709.515 1477.06 706.436 1481.67 Q703.381 1486.25 697.57 1486.25 Q691.76 1486.25 688.682 1481.67 Q685.626 1477.06 685.626 1468.33 Q685.626 1459.58 688.682 1455 Q691.76 1450.39 697.57 1450.39 Z" fill="#000000" fill-rule="nonzero" fill-opacity="1" /><path clip-path="url(#clip280)" d="M1094.45 1455.09 L1082.64 1473.54 L1094.45 1473.54 L1094.45 1455.09 M1093.22 1451.02 L1099.1 1451.02 L1099.1 1473.54 L1104.03 1473.54 L1104.03 1477.43 L1099.1 1477.43 L1099.1 1485.58 L1094.45 1485.58 L1094.45 1477.43 L1078.85 1477.43 L1078.85 1472.92 L1093.22 1451.02 Z" fill="#000000" fill-rule="nonzero" fill-opacity="1" /><path clip-path="url(#clip280)" d="M1121.76 1454.1 Q1118.15 1454.1 1116.32 1457.66 Q1114.52 1461.2 1114.52 1468.33 Q1114.52 1475.44 1116.32 1479.01 Q1118.15 1482.55 1121.76 1482.55 Q1125.4 1482.55 1127.2 1479.01 Q1129.03 1475.44 1129.03 1468.33 Q1129.03 1461.2 1127.2 1457.66 Q1125.4 1454.1 1121.76 1454.1 M1121.76 1450.39 Q1127.57 1450.39 1130.63 1455 Q1133.71 1459.58 1133.71 1468.33 Q1133.71 1477.06 1130.63 1481.67 Q1127.57 1486.25 1121.76 1486.25 Q1115.95 1486.25 1112.87 1481.67 Q1109.82 1477.06 1109.82 1468.33 Q1109.82 1459.58 1112.87 1455 Q1115.95 1450.39 1121.76 1450.39 Z" fill="#000000" fill-rule="nonzero" fill-opacity="1" /><path clip-path="url(#clip280)" d="M1515.29 1466.44 Q1512.15 1466.44 1510.29 1468.59 Q1508.46 1470.74 1508.46 1474.49 Q1508.46 1478.22 1510.29 1480.39 Q1512.15 1482.55 1515.29 1482.55 Q1518.44 1482.55 1520.27 1480.39 Q1522.12 1478.22 1522.12 1474.49 Q1522.12 1470.74 1520.27 1468.59 Q1518.44 1466.44 1515.29 1466.44 M1524.58 1451.78 L1524.58 1456.04 Q1522.82 1455.21 1521.01 1454.77 Q1519.23 1454.33 1517.47 1454.33 Q1512.84 1454.33 1510.39 1457.45 Q1507.96 1460.58 1507.61 1466.9 Q1508.97 1464.89 1511.03 1463.82 Q1513.09 1462.73 1515.57 1462.73 Q1520.78 1462.73 1523.79 1465.9 Q1526.82 1469.05 1526.82 1474.49 Q1526.82 1479.82 1523.67 1483.03 Q1520.52 1486.25 1515.29 1486.25 Q1509.3 1486.25 1506.13 1481.67 Q1502.96 1477.06 1502.96 1468.33 Q1502.96 1460.14 1506.84 1455.28 Q1510.73 1450.39 1517.28 1450.39 Q1519.04 1450.39 1520.83 1450.74 Q1522.63 1451.09 1524.58 1451.78 Z" fill="#000000" fill-rule="nonzero" fill-opacity="1" /><path clip-path="url(#clip280)" d="M1544.88 1454.1 Q1541.27 1454.1 1539.44 1457.66 Q1537.63 1461.2 1537.63 1468.33 Q1537.63 1475.44 1539.44 1479.01 Q1541.27 1482.55 1544.88 1482.55 Q1548.51 1482.55 1550.32 1479.01 Q1552.15 1475.44 1552.15 1468.33 Q1552.15 1461.2 1550.32 1457.66 Q1548.51 1454.1 1544.88 1454.1 M1544.88 1450.39 Q1550.69 1450.39 1553.74 1455 Q1556.82 1459.58 1556.82 1468.33 Q1556.82 1477.06 1553.74 1481.67 Q1550.69 1486.25 1544.88 1486.25 Q1539.07 1486.25 1535.99 1481.67 Q1532.93 1477.06 1532.93 1468.33 Q1532.93 1459.58 1535.99 1455 Q1539.07 1450.39 1544.88 1450.39 Z" fill="#000000" fill-rule="nonzero" fill-opacity="1" /><path clip-path="url(#clip280)" d="M1938.37 1469.17 Q1935.04 1469.17 1933.12 1470.95 Q1931.22 1472.73 1931.22 1475.86 Q1931.22 1478.98 1933.12 1480.77 Q1935.04 1482.55 1938.37 1482.55 Q1941.71 1482.55 1943.63 1480.77 Q1945.55 1478.96 1945.55 1475.86 Q1945.55 1472.73 1943.63 1470.95 Q1941.73 1469.17 1938.37 1469.17 M1933.7 1467.18 Q1930.69 1466.44 1929 1464.38 Q1927.33 1462.32 1927.33 1459.35 Q1927.33 1455.21 1930.27 1452.8 Q1933.23 1450.39 1938.37 1450.39 Q1943.54 1450.39 1946.48 1452.8 Q1949.42 1455.21 1949.42 1459.35 Q1949.42 1462.32 1947.73 1464.38 Q1946.06 1466.44 1943.07 1467.18 Q1946.45 1467.96 1948.33 1470.26 Q1950.23 1472.55 1950.23 1475.86 Q1950.23 1480.88 1947.15 1483.57 Q1944.09 1486.25 1938.37 1486.25 Q1932.66 1486.25 1929.58 1483.57 Q1926.52 1480.88 1926.52 1475.86 Q1926.52 1472.55 1928.42 1470.26 Q1930.32 1467.96 1933.7 1467.18 M1931.98 1459.79 Q1931.98 1462.48 1933.65 1463.98 Q1935.34 1465.49 1938.37 1465.49 Q1941.38 1465.49 1943.07 1463.98 Q1944.79 1462.48 1944.79 1459.79 Q1944.79 1457.11 1943.07 1455.6 Q1941.38 1454.1 1938.37 1454.1 Q1935.34 1454.1 1933.65 1455.6 Q1931.98 1457.11 1931.98 1459.79 Z" fill="#000000" fill-rule="nonzero" fill-opacity="1" /><path clip-path="url(#clip280)" d="M1968.54 1454.1 Q1964.92 1454.1 1963.1 1457.66 Q1961.29 1461.2 1961.29 1468.33 Q1961.29 1475.44 1963.1 1479.01 Q1964.92 1482.55 1968.54 1482.55 Q1972.17 1482.55 1973.98 1479.01 Q1975.8 1475.44 1975.8 1468.33 Q1975.8 1461.2 1973.98 1457.66 Q1972.17 1454.1 1968.54 1454.1 M1968.54 1450.39 Q1974.35 1450.39 1977.4 1455 Q1980.48 1459.58 1980.48 1468.33 Q1980.48 1477.06 1977.4 1481.67 Q1974.35 1486.25 1968.54 1486.25 Q1962.73 1486.25 1959.65 1481.67 Q1956.59 1477.06 1956.59 1468.33 Q1956.59 1459.58 1959.65 1455 Q1962.73 1450.39 1968.54 1450.39 Z" fill="#000000" fill-rule="nonzero" fill-opacity="1" /><path clip-path="url(#clip280)" d="M1285.37 1522.27 L1285.37 1532.4 L1297.44 1532.4 L1297.44 1536.95 L1285.37 1536.95 L1285.37 1556.3 Q1285.37 1560.66 1286.55 1561.9 Q1287.76 1563.14 1291.42 1563.14 L1297.44 1563.14 L1297.44 1568.04 L1291.42 1568.04 Q1284.64 1568.04 1282.06 1565.53 Q1279.48 1562.98 1279.48 1556.3 L1279.48 1536.95 L1275.19 1536.95 L1275.19 1532.4 L1279.48 1532.4 L1279.48 1522.27 L1285.37 1522.27 Z" fill="#000000" fill-rule="nonzero" fill-opacity="1" /><polyline clip-path="url(#clip282)" style="stroke:#000000; stroke-linecap:round; stroke-linejoin:round; stroke-width:2; stroke-opacity:0.1; fill:none" points="219.866,1308.76 2352.76,1308.76 "/>
<polyline clip-path="url(#clip282)" style="stroke:#000000; stroke-linecap:round; stroke-linejoin:round; stroke-width:2; stroke-opacity:0.1; fill:none" points="219.866,1124.92 2352.76,1124.92 "/>
<polyline clip-path="url(#clip282)" style="stroke:#000000; stroke-linecap:round; stroke-linejoin:round; stroke-width:2; stroke-opacity:0.1; fill:none" points="219.866,941.08 2352.76,941.08 "/>
<polyline clip-path="url(#clip282)" style="stroke:#000000; stroke-linecap:round; stroke-linejoin:round; stroke-width:2; stroke-opacity:0.1; fill:none" points="219.866,757.24 2352.76,757.24 "/>
<polyline clip-path="url(#clip282)" style="stroke:#000000; stroke-linecap:round; stroke-linejoin:round; stroke-width:2; stroke-opacity:0.1; fill:none" points="219.866,573.4 2352.76,573.4 "/>
<polyline clip-path="url(#clip282)" style="stroke:#000000; stroke-linecap:round; stroke-linejoin:round; stroke-width:2; stroke-opacity:0.1; fill:none" points="219.866,389.559 2352.76,389.559 "/>
<polyline clip-path="url(#clip282)" style="stroke:#000000; stroke-linecap:round; stroke-linejoin:round; stroke-width:2; stroke-opacity:0.1; fill:none" points="219.866,205.719 2352.76,205.719 "/>
<polyline clip-path="url(#clip280)" style="stroke:#000000; stroke-linecap:round; stroke-linejoin:round; stroke-width:4; stroke-opacity:1; fill:none" points="219.866,1423.18 219.866,123.472 "/>
<polyline clip-path="url(#clip280)" style="stroke:#000000; stroke-linecap:round; stroke-linejoin:round; stroke-width:4; stroke-opacity:1; fill:none" points="219.866,1308.76 238.764,1308.76 "/>
<polyline clip-path="url(#clip280)" style="stroke:#000000; stroke-linecap:round; stroke-linejoin:round; stroke-width:4; stroke-opacity:1; fill:none" points="219.866,1124.92 238.764,1124.92 "/>
<polyline clip-path="url(#clip280)" style="stroke:#000000; stroke-linecap:round; stroke-linejoin:round; stroke-width:4; stroke-opacity:1; fill:none" points="219.866,941.08 238.764,941.08 "/>
<polyline clip-path="url(#clip280)" style="stroke:#000000; stroke-linecap:round; stroke-linejoin:round; stroke-width:4; stroke-opacity:1; fill:none" points="219.866,757.24 238.764,757.24 "/>
<polyline clip-path="url(#clip280)" style="stroke:#000000; stroke-linecap:round; stroke-linejoin:round; stroke-width:4; stroke-opacity:1; fill:none" points="219.866,573.4 238.764,573.4 "/>
<polyline clip-path="url(#clip280)" style="stroke:#000000; stroke-linecap:round; stroke-linejoin:round; stroke-width:4; stroke-opacity:1; fill:none" points="219.866,389.559 238.764,389.559 "/>
<polyline clip-path="url(#clip280)" style="stroke:#000000; stroke-linecap:round; stroke-linejoin:round; stroke-width:4; stroke-opacity:1; fill:none" points="219.866,205.719 238.764,205.719 "/>
<path clip-path="url(#clip280)" d="M126.691 1294.56 Q123.08 1294.56 121.251 1298.12 Q119.445 1301.67 119.445 1308.8 Q119.445 1315.9 121.251 1319.47 Q123.08 1323.01 126.691 1323.01 Q130.325 1323.01 132.13 1319.47 Q133.959 1315.9 133.959 1308.8 Q133.959 1301.67 132.13 1298.12 Q130.325 1294.56 126.691 1294.56 M126.691 1290.86 Q132.501 1290.86 135.556 1295.46 Q138.635 1300.05 138.635 1308.8 Q138.635 1317.52 135.556 1322.13 Q132.501 1326.71 126.691 1326.71 Q120.88 1326.71 117.802 1322.13 Q114.746 1317.52 114.746 1308.8 Q114.746 1300.05 117.802 1295.46 Q120.88 1290.86 126.691 1290.86 Z" fill="#000000" fill-rule="nonzero" fill-opacity="1" /><path clip-path="url(#clip280)" d="M146.853 1320.16 L151.737 1320.16 L151.737 1326.04 L146.853 1326.04 L146.853 1320.16 Z" fill="#000000" fill-rule="nonzero" fill-opacity="1" /><path clip-path="url(#clip280)" d="M171.922 1294.56 Q168.311 1294.56 166.482 1298.12 Q164.677 1301.67 164.677 1308.8 Q164.677 1315.9 166.482 1319.47 Q168.311 1323.01 171.922 1323.01 Q175.556 1323.01 177.362 1319.47 Q179.19 1315.9 179.19 1308.8 Q179.19 1301.67 177.362 1298.12 Q175.556 1294.56 171.922 1294.56 M171.922 1290.86 Q177.732 1290.86 180.788 1295.46 Q183.866 1300.05 183.866 1308.8 Q183.866 1317.52 180.788 1322.13 Q177.732 1326.71 171.922 1326.71 Q166.112 1326.71 163.033 1322.13 Q159.978 1317.52 159.978 1308.8 Q159.978 1300.05 163.033 1295.46 Q166.112 1290.86 171.922 1290.86 Z" fill="#000000" fill-rule="nonzero" fill-opacity="1" /><path clip-path="url(#clip280)" d="M128.288 1110.72 Q124.677 1110.72 122.848 1114.28 Q121.043 1117.83 121.043 1124.96 Q121.043 1132.06 122.848 1135.63 Q124.677 1139.17 128.288 1139.17 Q131.922 1139.17 133.728 1135.63 Q135.556 1132.06 135.556 1124.96 Q135.556 1117.83 133.728 1114.28 Q131.922 1110.72 128.288 1110.72 M128.288 1107.02 Q134.098 1107.02 137.154 1111.62 Q140.232 1116.21 140.232 1124.96 Q140.232 1133.68 137.154 1138.29 Q134.098 1142.87 128.288 1142.87 Q122.478 1142.87 119.399 1138.29 Q116.343 1133.68 116.343 1124.96 Q116.343 1116.21 119.399 1111.62 Q122.478 1107.02 128.288 1107.02 Z" fill="#000000" fill-rule="nonzero" fill-opacity="1" /><path clip-path="url(#clip280)" d="M148.45 1136.32 L153.334 1136.32 L153.334 1142.2 L148.45 1142.2 L148.45 1136.32 Z" fill="#000000" fill-rule="nonzero" fill-opacity="1" /><path clip-path="url(#clip280)" d="M167.547 1138.27 L183.866 1138.27 L183.866 1142.2 L161.922 1142.2 L161.922 1138.27 Q164.584 1135.51 169.167 1130.88 Q173.774 1126.23 174.954 1124.89 Q177.2 1122.36 178.079 1120.63 Q178.982 1118.87 178.982 1117.18 Q178.982 1114.42 177.038 1112.69 Q175.116 1110.95 172.014 1110.95 Q169.815 1110.95 167.362 1111.71 Q164.931 1112.48 162.153 1114.03 L162.153 1109.31 Q164.977 1108.17 167.431 1107.59 Q169.885 1107.02 171.922 1107.02 Q177.292 1107.02 180.487 1109.7 Q183.681 1112.39 183.681 1116.88 Q183.681 1119.01 182.871 1120.93 Q182.084 1122.83 179.977 1125.42 Q179.399 1126.09 176.297 1129.31 Q173.195 1132.5 167.547 1138.27 Z" fill="#000000" fill-rule="nonzero" fill-opacity="1" /><path clip-path="url(#clip280)" d="M126.205 926.879 Q122.593 926.879 120.765 930.444 Q118.959 933.985 118.959 941.115 Q118.959 948.222 120.765 951.786 Q122.593 955.328 126.205 955.328 Q129.839 955.328 131.644 951.786 Q133.473 948.222 133.473 941.115 Q133.473 933.985 131.644 930.444 Q129.839 926.879 126.205 926.879 M126.205 923.175 Q132.015 923.175 135.07 927.782 Q138.149 932.365 138.149 941.115 Q138.149 949.842 135.07 954.448 Q132.015 959.032 126.205 959.032 Q120.394 959.032 117.316 954.448 Q114.26 949.842 114.26 941.115 Q114.26 932.365 117.316 927.782 Q120.394 923.175 126.205 923.175 Z" fill="#000000" fill-rule="nonzero" fill-opacity="1" /><path clip-path="url(#clip280)" d="M146.366 952.481 L151.251 952.481 L151.251 958.36 L146.366 958.36 L146.366 952.481 Z" fill="#000000" fill-rule="nonzero" fill-opacity="1" /><path clip-path="url(#clip280)" d="M174.283 927.874 L162.477 946.323 L174.283 946.323 L174.283 927.874 M173.056 923.8 L178.936 923.8 L178.936 946.323 L183.866 946.323 L183.866 950.212 L178.936 950.212 L178.936 958.36 L174.283 958.36 L174.283 950.212 L158.681 950.212 L158.681 945.698 L173.056 923.8 Z" fill="#000000" fill-rule="nonzero" fill-opacity="1" /><path clip-path="url(#clip280)" d="M126.529 743.039 Q122.918 743.039 121.089 746.603 Q119.283 750.145 119.283 757.275 Q119.283 764.381 121.089 767.946 Q122.918 771.488 126.529 771.488 Q130.163 771.488 131.968 767.946 Q133.797 764.381 133.797 757.275 Q133.797 750.145 131.968 746.603 Q130.163 743.039 126.529 743.039 M126.529 739.335 Q132.339 739.335 135.394 743.941 Q138.473 748.525 138.473 757.275 Q138.473 766.001 135.394 770.608 Q132.339 775.191 126.529 775.191 Q120.718 775.191 117.64 770.608 Q114.584 766.001 114.584 757.275 Q114.584 748.525 117.64 743.941 Q120.718 739.335 126.529 739.335 Z" fill="#000000" fill-rule="nonzero" fill-opacity="1" /><path clip-path="url(#clip280)" d="M146.691 768.64 L151.575 768.64 L151.575 774.52 L146.691 774.52 L146.691 768.64 Z" fill="#000000" fill-rule="nonzero" fill-opacity="1" /><path clip-path="url(#clip280)" d="M172.339 755.377 Q169.19 755.377 167.339 757.529 Q165.51 759.682 165.51 763.432 Q165.51 767.159 167.339 769.335 Q169.19 771.488 172.339 771.488 Q175.487 771.488 177.315 769.335 Q179.167 767.159 179.167 763.432 Q179.167 759.682 177.315 757.529 Q175.487 755.377 172.339 755.377 M181.621 740.724 L181.621 744.983 Q179.862 744.15 178.056 743.71 Q176.274 743.27 174.514 743.27 Q169.885 743.27 167.431 746.395 Q165.001 749.52 164.653 755.839 Q166.019 753.826 168.079 752.761 Q170.139 751.673 172.616 751.673 Q177.825 751.673 180.834 754.844 Q183.866 757.992 183.866 763.432 Q183.866 768.756 180.718 771.974 Q177.57 775.191 172.339 775.191 Q166.343 775.191 163.172 770.608 Q160.001 766.001 160.001 757.275 Q160.001 749.08 163.89 744.219 Q167.778 739.335 174.329 739.335 Q176.089 739.335 177.871 739.682 Q179.676 740.029 181.621 740.724 Z" fill="#000000" fill-rule="nonzero" fill-opacity="1" /><path clip-path="url(#clip280)" d="M126.783 559.198 Q123.172 559.198 121.343 562.763 Q119.538 566.305 119.538 573.434 Q119.538 580.541 121.343 584.105 Q123.172 587.647 126.783 587.647 Q130.417 587.647 132.223 584.105 Q134.052 580.541 134.052 573.434 Q134.052 566.305 132.223 562.763 Q130.417 559.198 126.783 559.198 M126.783 555.495 Q132.593 555.495 135.649 560.101 Q138.728 564.684 138.728 573.434 Q138.728 582.161 135.649 586.768 Q132.593 591.351 126.783 591.351 Q120.973 591.351 117.894 586.768 Q114.839 582.161 114.839 573.434 Q114.839 564.684 117.894 560.101 Q120.973 555.495 126.783 555.495 Z" fill="#000000" fill-rule="nonzero" fill-opacity="1" /><path clip-path="url(#clip280)" d="M146.945 584.8 L151.829 584.8 L151.829 590.68 L146.945 590.68 L146.945 584.8 Z" fill="#000000" fill-rule="nonzero" fill-opacity="1" /><path clip-path="url(#clip280)" d="M172.014 574.268 Q168.681 574.268 166.76 576.05 Q164.862 577.832 164.862 580.957 Q164.862 584.082 166.76 585.865 Q168.681 587.647 172.014 587.647 Q175.348 587.647 177.269 585.865 Q179.19 584.059 179.19 580.957 Q179.19 577.832 177.269 576.05 Q175.371 574.268 172.014 574.268 M167.339 572.277 Q164.329 571.536 162.64 569.476 Q160.973 567.416 160.973 564.453 Q160.973 560.309 163.913 557.902 Q166.876 555.495 172.014 555.495 Q177.176 555.495 180.116 557.902 Q183.056 560.309 183.056 564.453 Q183.056 567.416 181.366 569.476 Q179.7 571.536 176.714 572.277 Q180.093 573.064 181.968 575.356 Q183.866 577.647 183.866 580.957 Q183.866 585.98 180.788 588.666 Q177.732 591.351 172.014 591.351 Q166.297 591.351 163.218 588.666 Q160.163 585.98 160.163 580.957 Q160.163 577.647 162.061 575.356 Q163.959 573.064 167.339 572.277 M165.626 564.893 Q165.626 567.578 167.292 569.082 Q168.982 570.587 172.014 570.587 Q175.024 570.587 176.714 569.082 Q178.426 567.578 178.426 564.893 Q178.426 562.207 176.714 560.703 Q175.024 559.198 172.014 559.198 Q168.982 559.198 167.292 560.703 Q165.626 562.207 165.626 564.893 Z" fill="#000000" fill-rule="nonzero" fill-opacity="1" /><path clip-path="url(#clip280)" d="M117.501 402.904 L125.14 402.904 L125.14 376.538 L116.83 378.205 L116.83 373.946 L125.093 372.279 L129.769 372.279 L129.769 402.904 L137.408 402.904 L137.408 406.839 L117.501 406.839 L117.501 402.904 Z" fill="#000000" fill-rule="nonzero" fill-opacity="1" /><path clip-path="url(#clip280)" d="M146.853 400.96 L151.737 400.96 L151.737 406.839 L146.853 406.839 L146.853 400.96 Z" fill="#000000" fill-rule="nonzero" fill-opacity="1" /><path clip-path="url(#clip280)" d="M171.922 375.358 Q168.311 375.358 166.482 378.923 Q164.677 382.464 164.677 389.594 Q164.677 396.7 166.482 400.265 Q168.311 403.807 171.922 403.807 Q175.556 403.807 177.362 400.265 Q179.19 396.7 179.19 389.594 Q179.19 382.464 177.362 378.923 Q175.556 375.358 171.922 375.358 M171.922 371.654 Q177.732 371.654 180.788 376.261 Q183.866 380.844 183.866 389.594 Q183.866 398.321 180.788 402.927 Q177.732 407.51 171.922 407.51 Q166.112 407.51 163.033 402.927 Q159.978 398.321 159.978 389.594 Q159.978 380.844 163.033 376.261 Q166.112 371.654 171.922 371.654 Z" fill="#000000" fill-rule="nonzero" fill-opacity="1" /><path clip-path="url(#clip280)" d="M119.098 219.064 L126.737 219.064 L126.737 192.698 L118.427 194.365 L118.427 190.105 L126.691 188.439 L131.367 188.439 L131.367 219.064 L139.005 219.064 L139.005 222.999 L119.098 222.999 L119.098 219.064 Z" fill="#000000" fill-rule="nonzero" fill-opacity="1" /><path clip-path="url(#clip280)" d="M148.45 217.119 L153.334 217.119 L153.334 222.999 L148.45 222.999 L148.45 217.119 Z" fill="#000000" fill-rule="nonzero" fill-opacity="1" /><path clip-path="url(#clip280)" d="M167.547 219.064 L183.866 219.064 L183.866 222.999 L161.922 222.999 L161.922 219.064 Q164.584 216.309 169.167 211.679 Q173.774 207.027 174.954 205.684 Q177.2 203.161 178.079 201.425 Q178.982 199.665 178.982 197.976 Q178.982 195.221 177.038 193.485 Q175.116 191.749 172.014 191.749 Q169.815 191.749 167.362 192.513 Q164.931 193.277 162.153 194.828 L162.153 190.105 Q164.977 188.971 167.431 188.392 Q169.885 187.814 171.922 187.814 Q177.292 187.814 180.487 190.499 Q183.681 193.184 183.681 197.675 Q183.681 199.804 182.871 201.726 Q182.084 203.624 179.977 206.216 Q179.399 206.888 176.297 210.105 Q173.195 213.3 167.547 219.064 Z" fill="#000000" fill-rule="nonzero" fill-opacity="1" /><path clip-path="url(#clip280)" d="M28.3562 756.711 L45.7028 769.602 L64.0042 756.043 L64.0042 762.95 L49.9996 773.326 L64.0042 783.702 L64.0042 790.609 L45.3526 776.763 L28.3562 789.431 L28.3562 782.524 L41.0558 773.071 L28.3562 763.618 L28.3562 756.711 Z" fill="#000000" fill-rule="nonzero" fill-opacity="1" /><path clip-path="url(#clip280)" d="M207.96 12.096 L259.123 12.096 L259.123 18.9825 L237.654 18.9825 L237.654 72.576 L229.43 72.576 L229.43 18.9825 L207.96 18.9825 L207.96 12.096 Z" fill="#000000" fill-rule="nonzero" fill-opacity="1" /><path clip-path="url(#clip280)" d="M291.409 48.0275 L291.409 51.6733 L257.138 51.6733 Q257.624 59.3701 261.756 63.421 Q265.929 67.4314 273.342 67.4314 Q277.636 67.4314 281.646 66.3781 Q285.697 65.3249 289.667 63.2184 L289.667 70.267 Q285.657 71.9684 281.444 72.8596 Q277.231 73.7508 272.896 73.7508 Q262.04 73.7508 255.68 67.4314 Q249.361 61.1119 249.361 50.3365 Q249.361 39.1965 255.356 32.6746 Q261.392 26.1121 271.6 26.1121 Q280.755 26.1121 286.062 32.0264 Q291.409 37.9003 291.409 48.0275 M283.955 45.84 Q283.874 39.7232 280.512 36.0774 Q277.19 32.4315 271.681 32.4315 Q265.443 32.4315 261.675 35.9558 Q257.949 39.4801 257.381 45.8805 L283.955 45.84 Z" fill="#000000" fill-rule="nonzero" fill-opacity="1" /><path clip-path="url(#clip280)" d="M332.566 28.5427 L332.566 35.5912 Q329.406 33.9709 326.004 33.1607 Q322.601 32.3505 318.955 32.3505 Q313.405 32.3505 310.61 34.0519 Q307.856 35.7533 307.856 39.156 Q307.856 41.7486 309.841 43.2475 Q311.826 44.7058 317.821 46.0426 L320.373 46.6097 Q328.313 48.3111 331.634 51.4303 Q334.997 54.509 334.997 60.0587 Q334.997 66.3781 329.974 70.0644 Q324.991 73.7508 316.241 73.7508 Q312.595 73.7508 308.625 73.0216 Q304.696 72.3329 300.321 70.9151 L300.321 63.2184 Q304.453 65.3654 308.463 66.4591 Q312.474 67.5124 316.403 67.5124 Q321.669 67.5124 324.505 65.73 Q327.341 63.9071 327.341 60.6258 Q327.341 57.5877 325.275 55.9673 Q323.249 54.3469 316.322 52.8481 L313.729 52.2405 Q306.802 50.7821 303.724 47.7845 Q300.645 44.7463 300.645 39.4801 Q300.645 33.0797 305.182 29.5959 Q309.719 26.1121 318.064 26.1121 Q322.196 26.1121 325.842 26.7198 Q329.488 27.3274 332.566 28.5427 Z" fill="#000000" fill-rule="nonzero" fill-opacity="1" /><path clip-path="url(#clip280)" d="M354.239 14.324 L354.239 27.2059 L369.591 27.2059 L369.591 32.9987 L354.239 32.9987 L354.239 57.6282 Q354.239 63.1779 355.737 64.7578 Q357.277 66.3376 361.935 66.3376 L369.591 66.3376 L369.591 72.576 L361.935 72.576 Q353.307 72.576 350.026 69.3758 Q346.744 66.1351 346.744 57.6282 L346.744 32.9987 L341.276 32.9987 L341.276 27.2059 L346.744 27.2059 L346.744 14.324 L354.239 14.324 Z" fill="#000000" fill-rule="nonzero" fill-opacity="1" /><path clip-path="url(#clip280)" d="M379.395 27.2059 L386.848 27.2059 L386.848 72.576 L379.395 72.576 L379.395 27.2059 M379.395 9.54393 L386.848 9.54393 L386.848 18.9825 L379.395 18.9825 L379.395 9.54393 Z" fill="#000000" fill-rule="nonzero" fill-opacity="1" /><path clip-path="url(#clip280)" d="M440.158 45.1919 L440.158 72.576 L432.705 72.576 L432.705 45.4349 Q432.705 38.994 430.193 35.7938 Q427.681 32.5936 422.658 32.5936 Q416.622 32.5936 413.139 36.4419 Q409.655 40.2903 409.655 46.9338 L409.655 72.576 L402.161 72.576 L402.161 27.2059 L409.655 27.2059 L409.655 34.2544 Q412.329 30.163 415.934 28.1376 Q419.58 26.1121 424.319 26.1121 Q432.137 26.1121 436.148 30.9732 Q440.158 35.7938 440.158 45.1919 Z" fill="#000000" fill-rule="nonzero" fill-opacity="1" /><path clip-path="url(#clip280)" d="M484.88 49.3643 Q484.88 41.2625 481.518 36.8065 Q478.196 32.3505 472.16 32.3505 Q466.165 32.3505 462.803 36.8065 Q459.481 41.2625 459.481 49.3643 Q459.481 57.4256 462.803 61.8816 Q466.165 66.3376 472.16 66.3376 Q478.196 66.3376 481.518 61.8816 Q484.88 57.4256 484.88 49.3643 M492.334 66.9452 Q492.334 78.5308 487.189 84.1616 Q482.045 89.8329 471.431 89.8329 Q467.502 89.8329 464.018 89.2252 Q460.534 88.6581 457.253 87.4428 L457.253 80.1917 Q460.534 81.9741 463.734 82.8248 Q466.935 83.6755 470.256 83.6755 Q477.589 83.6755 481.234 79.8271 Q484.88 76.0193 484.88 68.282 L484.88 64.5957 Q482.571 68.6061 478.966 70.5911 Q475.361 72.576 470.337 72.576 Q461.993 72.576 456.888 66.2161 Q451.784 59.8562 451.784 49.3643 Q451.784 38.832 456.888 32.472 Q461.993 26.1121 470.337 26.1121 Q475.361 26.1121 478.966 28.0971 Q482.571 30.082 484.88 34.0924 L484.88 27.2059 L492.334 27.2059 L492.334 66.9452 Z" fill="#000000" fill-rule="nonzero" fill-opacity="1" /><path clip-path="url(#clip280)" d="M570.638 14.0809 L570.638 22.0612 Q565.979 19.8332 561.847 18.7395 Q557.715 17.6457 553.867 17.6457 Q547.183 17.6457 543.537 20.2383 Q539.932 22.8309 539.932 27.611 Q539.932 31.6214 542.322 33.6873 Q544.753 35.7128 551.477 36.9686 L556.419 37.9813 Q565.574 39.7232 569.909 44.1387 Q574.284 48.5136 574.284 55.8863 Q574.284 64.6767 568.369 69.2137 Q562.496 73.7508 551.112 73.7508 Q546.819 73.7508 541.957 72.7785 Q537.137 71.8063 531.952 69.9024 L531.952 61.4765 Q536.934 64.2716 541.714 65.6895 Q546.494 67.1073 551.112 67.1073 Q558.121 67.1073 561.928 64.3527 Q565.736 61.598 565.736 56.4939 Q565.736 52.0379 562.982 49.5264 Q560.268 47.0148 554.029 45.759 L549.047 44.7868 Q539.891 42.9639 535.8 39.075 Q531.709 35.1862 531.709 28.2591 Q531.709 20.2383 537.339 15.6203 Q543.011 11.0023 552.935 11.0023 Q557.189 11.0023 561.604 11.7719 Q566.02 12.5416 570.638 14.0809 Z" fill="#000000" fill-rule="nonzero" fill-opacity="1" /><path clip-path="url(#clip280)" d="M607.339 49.7694 Q598.306 49.7694 594.822 51.8354 Q591.338 53.9013 591.338 58.8839 Q591.338 62.8538 593.931 65.2034 Q596.564 67.5124 601.06 67.5124 Q607.258 67.5124 610.985 63.1374 Q614.752 58.7219 614.752 51.4303 L614.752 49.7694 L607.339 49.7694 M622.206 46.6907 L622.206 72.576 L614.752 72.576 L614.752 65.6895 Q612.2 69.8214 608.392 71.8063 Q604.584 73.7508 599.075 73.7508 Q592.108 73.7508 587.976 69.8619 Q583.884 65.9325 583.884 59.3701 Q583.884 51.7138 588.988 47.825 Q594.133 43.9361 604.301 43.9361 L614.752 43.9361 L614.752 43.2069 Q614.752 38.0623 611.349 35.2672 Q607.987 32.4315 601.87 32.4315 Q597.981 32.4315 594.295 33.3632 Q590.609 34.295 587.206 36.1584 L587.206 29.2718 Q591.297 27.692 595.146 26.9223 Q598.994 26.1121 602.64 26.1121 Q612.484 26.1121 617.345 31.2163 Q622.206 36.3204 622.206 46.6907 Z" fill="#000000" fill-rule="nonzero" fill-opacity="1" /><path clip-path="url(#clip280)" d="M672.883 35.9153 Q675.678 30.8922 679.567 28.5022 Q683.456 26.1121 688.722 26.1121 Q695.811 26.1121 699.659 31.0947 Q703.507 36.0368 703.507 45.1919 L703.507 72.576 L696.013 72.576 L696.013 45.4349 Q696.013 38.913 693.704 35.7533 Q691.395 32.5936 686.656 32.5936 Q680.863 32.5936 677.501 36.4419 Q674.138 40.2903 674.138 46.9338 L674.138 72.576 L666.644 72.576 L666.644 45.4349 Q666.644 38.8725 664.335 35.7533 Q662.026 32.5936 657.206 32.5936 Q651.494 32.5936 648.132 36.4824 Q644.769 40.3308 644.769 46.9338 L644.769 72.576 L637.275 72.576 L637.275 27.2059 L644.769 27.2059 L644.769 34.2544 Q647.321 30.082 650.886 28.0971 Q654.451 26.1121 659.353 26.1121 Q664.295 26.1121 667.738 28.6237 Q671.222 31.1352 672.883 35.9153 Z" fill="#000000" fill-rule="nonzero" fill-opacity="1" /><path clip-path="url(#clip280)" d="M725.585 65.7705 L725.585 89.8329 L718.091 89.8329 L718.091 27.2059 L725.585 27.2059 L725.585 34.0924 Q727.934 30.0415 731.499 28.0971 Q735.105 26.1121 740.087 26.1121 Q748.351 26.1121 753.496 32.6746 Q758.681 39.2371 758.681 49.9314 Q758.681 60.6258 753.496 67.1883 Q748.351 73.7508 740.087 73.7508 Q735.105 73.7508 731.499 71.8063 Q727.934 69.8214 725.585 65.7705 M750.944 49.9314 Q750.944 41.7081 747.541 37.0496 Q744.179 32.3505 738.264 32.3505 Q732.35 32.3505 728.947 37.0496 Q725.585 41.7081 725.585 49.9314 Q725.585 58.1548 728.947 62.8538 Q732.35 67.5124 738.264 67.5124 Q744.179 67.5124 747.541 62.8538 Q750.944 58.1548 750.944 49.9314 Z" fill="#000000" fill-rule="nonzero" fill-opacity="1" /><path clip-path="url(#clip280)" d="M771.036 9.54393 L778.49 9.54393 L778.49 72.576 L771.036 72.576 L771.036 9.54393 Z" fill="#000000" fill-rule="nonzero" fill-opacity="1" /><path clip-path="url(#clip280)" d="M832.893 48.0275 L832.893 51.6733 L798.623 51.6733 Q799.109 59.3701 803.241 63.421 Q807.413 67.4314 814.826 67.4314 Q819.12 67.4314 823.131 66.3781 Q827.182 65.3249 831.151 63.2184 L831.151 70.267 Q827.141 71.9684 822.928 72.8596 Q818.715 73.7508 814.381 73.7508 Q803.524 73.7508 797.164 67.4314 Q790.845 61.1119 790.845 50.3365 Q790.845 39.1965 796.84 32.6746 Q802.876 26.1121 813.084 26.1121 Q822.239 26.1121 827.546 32.0264 Q832.893 37.9003 832.893 48.0275 M825.44 45.84 Q825.359 39.7232 821.996 36.0774 Q818.675 32.4315 813.165 32.4315 Q806.927 32.4315 803.16 35.9558 Q799.433 39.4801 798.866 45.8805 L825.44 45.84 Z" fill="#000000" fill-rule="nonzero" fill-opacity="1" /><path clip-path="url(#clip280)" d="M897.343 39.9662 Q903.217 41.222 906.498 45.1919 Q909.82 49.1618 909.82 54.9951 Q909.82 63.9476 903.663 68.8492 Q897.505 73.7508 886.163 73.7508 Q882.355 73.7508 878.304 72.9811 Q874.294 72.2519 870 70.7531 L870 62.8538 Q873.402 64.8388 877.453 65.8515 Q881.504 66.8642 885.92 66.8642 Q893.616 66.8642 897.627 63.826 Q901.678 60.7879 901.678 54.9951 Q901.678 49.6479 897.91 46.6502 Q894.184 43.612 887.5 43.612 L880.451 43.612 L880.451 36.8875 L887.824 36.8875 Q893.859 36.8875 897.06 34.4975 Q900.26 32.067 900.26 27.5299 Q900.26 22.8714 896.938 20.4004 Q893.657 17.8888 887.5 17.8888 Q884.137 17.8888 880.289 18.618 Q876.441 19.3471 871.823 20.8865 L871.823 13.5948 Q876.481 12.2985 880.532 11.6504 Q884.623 11.0023 888.229 11.0023 Q897.546 11.0023 902.974 15.2557 Q908.402 19.4686 908.402 26.6793 Q908.402 31.7024 905.526 35.1862 Q902.65 38.6294 897.343 39.9662 Z" fill="#000000" fill-rule="nonzero" fill-opacity="1" /><path clip-path="url(#clip280)" d="M950.127 39.9662 Q956 41.222 959.282 45.1919 Q962.603 49.1618 962.603 54.9951 Q962.603 63.9476 956.446 68.8492 Q950.289 73.7508 938.946 73.7508 Q935.138 73.7508 931.087 72.9811 Q927.077 72.2519 922.783 70.7531 L922.783 62.8538 Q926.186 64.8388 930.237 65.8515 Q934.288 66.8642 938.703 66.8642 Q946.4 66.8642 950.41 63.826 Q954.461 60.7879 954.461 54.9951 Q954.461 49.6479 950.694 46.6502 Q946.967 43.612 940.283 43.612 L933.234 43.612 L933.234 36.8875 L940.607 36.8875 Q946.643 36.8875 949.843 34.4975 Q953.043 32.067 953.043 27.5299 Q953.043 22.8714 949.721 20.4004 Q946.44 17.8888 940.283 17.8888 Q936.921 17.8888 933.072 18.618 Q929.224 19.3471 924.606 20.8865 L924.606 13.5948 Q929.264 12.2985 933.315 11.6504 Q937.407 11.0023 941.012 11.0023 Q950.329 11.0023 955.757 15.2557 Q961.186 19.4686 961.186 26.6793 Q961.186 31.7024 958.309 35.1862 Q955.433 38.6294 950.127 39.9662 Z" fill="#000000" fill-rule="nonzero" fill-opacity="1" /><path clip-path="url(#clip280)" d="M978.969 62.2867 L987.516 62.2867 L987.516 69.2543 L980.873 82.2172 L975.647 82.2172 L978.969 69.2543 L978.969 62.2867 Z" fill="#000000" fill-rule="nonzero" fill-opacity="1" /><path clip-path="url(#clip280)" d="M1030.94 12.096 L1063.07 12.096 L1063.07 18.9825 L1038.44 18.9825 L1038.44 33.8088 Q1040.22 33.2012 1042 32.9176 Q1043.78 32.5936 1045.57 32.5936 Q1055.69 32.5936 1061.61 38.1433 Q1067.52 43.6931 1067.52 53.1722 Q1067.52 62.9348 1061.45 68.3631 Q1055.37 73.7508 1044.31 73.7508 Q1040.5 73.7508 1036.53 73.1026 Q1032.6 72.4545 1028.39 71.1582 L1028.39 62.9348 Q1032.04 64.9198 1035.92 65.892 Q1039.81 66.8642 1044.15 66.8642 Q1051.16 66.8642 1055.25 63.1779 Q1059.34 59.4916 1059.34 53.1722 Q1059.34 46.8528 1055.25 43.1664 Q1051.16 39.4801 1044.15 39.4801 Q1040.87 39.4801 1037.59 40.2093 Q1034.34 40.9384 1030.94 42.4778 L1030.94 12.096 Z" fill="#000000" fill-rule="nonzero" fill-opacity="1" /><path clip-path="url(#clip280)" d="M1101.14 17.4837 Q1094.82 17.4837 1091.62 23.7221 Q1088.46 29.92 1088.46 42.3968 Q1088.46 54.833 1091.62 61.0714 Q1094.82 67.2693 1101.14 67.2693 Q1107.5 67.2693 1110.66 61.0714 Q1113.86 54.833 1113.86 42.3968 Q1113.86 29.92 1110.66 23.7221 Q1107.5 17.4837 1101.14 17.4837 M1101.14 11.0023 Q1111.31 11.0023 1116.66 19.0636 Q1122.05 27.0843 1122.05 42.3968 Q1122.05 57.6687 1116.66 65.73 Q1111.31 73.7508 1101.14 73.7508 Q1090.98 73.7508 1085.59 65.73 Q1080.24 57.6687 1080.24 42.3968 Q1080.24 27.0843 1085.59 19.0636 Q1090.98 11.0023 1101.14 11.0023 Z" fill="#000000" fill-rule="nonzero" fill-opacity="1" /><path clip-path="url(#clip280)" d="M1153.93 17.4837 Q1147.61 17.4837 1144.41 23.7221 Q1141.25 29.92 1141.25 42.3968 Q1141.25 54.833 1144.41 61.0714 Q1147.61 67.2693 1153.93 67.2693 Q1160.29 67.2693 1163.45 61.0714 Q1166.65 54.833 1166.65 42.3968 Q1166.65 29.92 1163.45 23.7221 Q1160.29 17.4837 1153.93 17.4837 M1153.93 11.0023 Q1164.1 11.0023 1169.44 19.0636 Q1174.83 27.0843 1174.83 42.3968 Q1174.83 57.6687 1169.44 65.73 Q1164.1 73.7508 1153.93 73.7508 Q1143.76 73.7508 1138.37 65.73 Q1133.02 57.6687 1133.02 42.3968 Q1133.02 27.0843 1138.37 19.0636 Q1143.76 11.0023 1153.93 11.0023 Z" fill="#000000" fill-rule="nonzero" fill-opacity="1" /><path clip-path="url(#clip280)" d="M1206.71 17.4837 Q1200.39 17.4837 1197.19 23.7221 Q1194.03 29.92 1194.03 42.3968 Q1194.03 54.833 1197.19 61.0714 Q1200.39 67.2693 1206.71 67.2693 Q1213.07 67.2693 1216.23 61.0714 Q1219.43 54.833 1219.43 42.3968 Q1219.43 29.92 1216.23 23.7221 Q1213.07 17.4837 1206.71 17.4837 M1206.71 11.0023 Q1216.88 11.0023 1222.23 19.0636 Q1227.61 27.0843 1227.61 42.3968 Q1227.61 57.6687 1222.23 65.73 Q1216.88 73.7508 1206.71 73.7508 Q1196.54 73.7508 1191.16 65.73 Q1185.81 57.6687 1185.81 42.3968 Q1185.81 27.0843 1191.16 19.0636 Q1196.54 11.0023 1206.71 11.0023 Z" fill="#000000" fill-rule="nonzero" fill-opacity="1" /><path clip-path="url(#clip280)" d="M1303.89 14.0809 L1303.89 22.0612 Q1299.23 19.8332 1295.1 18.7395 Q1290.97 17.6457 1287.12 17.6457 Q1280.44 17.6457 1276.79 20.2383 Q1273.19 22.8309 1273.19 27.611 Q1273.19 31.6214 1275.58 33.6873 Q1278.01 35.7128 1284.73 36.9686 L1289.67 37.9813 Q1298.83 39.7232 1303.16 44.1387 Q1307.54 48.5136 1307.54 55.8863 Q1307.54 64.6767 1301.62 69.2137 Q1295.75 73.7508 1284.37 73.7508 Q1280.07 73.7508 1275.21 72.7785 Q1270.39 71.8063 1265.21 69.9024 L1265.21 61.4765 Q1270.19 64.2716 1274.97 65.6895 Q1279.75 67.1073 1284.37 67.1073 Q1291.37 67.1073 1295.18 64.3527 Q1298.99 61.598 1298.99 56.4939 Q1298.99 52.0379 1296.24 49.5264 Q1293.52 47.0148 1287.28 45.759 L1282.3 44.7868 Q1273.15 42.9639 1269.05 39.075 Q1264.96 35.1862 1264.96 28.2591 Q1264.96 20.2383 1270.59 15.6203 Q1276.26 11.0023 1286.19 11.0023 Q1290.44 11.0023 1294.86 11.7719 Q1299.27 12.5416 1303.89 14.0809 Z" fill="#000000" fill-rule="nonzero" fill-opacity="1" /><path clip-path="url(#clip280)" d="M1340.59 49.7694 Q1331.56 49.7694 1328.08 51.8354 Q1324.59 53.9013 1324.59 58.8839 Q1324.59 62.8538 1327.18 65.2034 Q1329.82 67.5124 1334.31 67.5124 Q1340.51 67.5124 1344.24 63.1374 Q1348.01 58.7219 1348.01 51.4303 L1348.01 49.7694 L1340.59 49.7694 M1355.46 46.6907 L1355.46 72.576 L1348.01 72.576 L1348.01 65.6895 Q1345.45 69.8214 1341.65 71.8063 Q1337.84 73.7508 1332.33 73.7508 Q1325.36 73.7508 1321.23 69.8619 Q1317.14 65.9325 1317.14 59.3701 Q1317.14 51.7138 1322.24 47.825 Q1327.39 43.9361 1337.56 43.9361 L1348.01 43.9361 L1348.01 43.2069 Q1348.01 38.0623 1344.6 35.2672 Q1341.24 32.4315 1335.12 32.4315 Q1331.24 32.4315 1327.55 33.3632 Q1323.86 34.295 1320.46 36.1584 L1320.46 29.2718 Q1324.55 27.692 1328.4 26.9223 Q1332.25 26.1121 1335.89 26.1121 Q1345.74 26.1121 1350.6 31.2163 Q1355.46 36.3204 1355.46 46.6907 Z" fill="#000000" fill-rule="nonzero" fill-opacity="1" /><path clip-path="url(#clip280)" d="M1406.14 35.9153 Q1408.93 30.8922 1412.82 28.5022 Q1416.71 26.1121 1421.98 26.1121 Q1429.06 26.1121 1432.91 31.0947 Q1436.76 36.0368 1436.76 45.1919 L1436.76 72.576 L1429.27 72.576 L1429.27 45.4349 Q1429.27 38.913 1426.96 35.7533 Q1424.65 32.5936 1419.91 32.5936 Q1414.12 32.5936 1410.75 36.4419 Q1407.39 40.2903 1407.39 46.9338 L1407.39 72.576 L1399.9 72.576 L1399.9 45.4349 Q1399.9 38.8725 1397.59 35.7533 Q1395.28 32.5936 1390.46 32.5936 Q1384.75 32.5936 1381.39 36.4824 Q1378.02 40.3308 1378.02 46.9338 L1378.02 72.576 L1370.53 72.576 L1370.53 27.2059 L1378.02 27.2059 L1378.02 34.2544 Q1380.58 30.082 1384.14 28.0971 Q1387.71 26.1121 1392.61 26.1121 Q1397.55 26.1121 1400.99 28.6237 Q1404.48 31.1352 1406.14 35.9153 Z" fill="#000000" fill-rule="nonzero" fill-opacity="1" /><path clip-path="url(#clip280)" d="M1458.84 65.7705 L1458.84 89.8329 L1451.34 89.8329 L1451.34 27.2059 L1458.84 27.2059 L1458.84 34.0924 Q1461.19 30.0415 1464.75 28.0971 Q1468.36 26.1121 1473.34 26.1121 Q1481.61 26.1121 1486.75 32.6746 Q1491.93 39.2371 1491.93 49.9314 Q1491.93 60.6258 1486.75 67.1883 Q1481.61 73.7508 1473.34 73.7508 Q1468.36 73.7508 1464.75 71.8063 Q1461.19 69.8214 1458.84 65.7705 M1484.2 49.9314 Q1484.2 41.7081 1480.79 37.0496 Q1477.43 32.3505 1471.52 32.3505 Q1465.6 32.3505 1462.2 37.0496 Q1458.84 41.7081 1458.84 49.9314 Q1458.84 58.1548 1462.2 62.8538 Q1465.6 67.5124 1471.52 67.5124 Q1477.43 67.5124 1480.79 62.8538 Q1484.2 58.1548 1484.2 49.9314 Z" fill="#000000" fill-rule="nonzero" fill-opacity="1" /><path clip-path="url(#clip280)" d="M1504.29 9.54393 L1511.74 9.54393 L1511.74 72.576 L1504.29 72.576 L1504.29 9.54393 Z" fill="#000000" fill-rule="nonzero" fill-opacity="1" /><path clip-path="url(#clip280)" d="M1566.15 48.0275 L1566.15 51.6733 L1531.88 51.6733 Q1532.36 59.3701 1536.49 63.421 Q1540.67 67.4314 1548.08 67.4314 Q1552.37 67.4314 1556.38 66.3781 Q1560.44 65.3249 1564.41 63.2184 L1564.41 70.267 Q1560.4 71.9684 1556.18 72.8596 Q1551.97 73.7508 1547.63 73.7508 Q1536.78 73.7508 1530.42 67.4314 Q1524.1 61.1119 1524.1 50.3365 Q1524.1 39.1965 1530.09 32.6746 Q1536.13 26.1121 1546.34 26.1121 Q1555.49 26.1121 1560.8 32.0264 Q1566.15 37.9003 1566.15 48.0275 M1558.69 45.84 Q1558.61 39.7232 1555.25 36.0774 Q1551.93 32.4315 1546.42 32.4315 Q1540.18 32.4315 1536.41 35.9558 Q1532.69 39.4801 1532.12 45.8805 L1558.69 45.84 Z" fill="#000000" fill-rule="nonzero" fill-opacity="1" /><path clip-path="url(#clip280)" d="M1605.08 12.096 L1643.32 12.096 L1643.32 18.9825 L1613.26 18.9825 L1613.26 36.8875 L1642.06 36.8875 L1642.06 43.7741 L1613.26 43.7741 L1613.26 65.6895 L1644.05 65.6895 L1644.05 72.576 L1605.08 72.576 L1605.08 12.096 Z" fill="#000000" fill-rule="nonzero" fill-opacity="1" /><path clip-path="url(#clip280)" d="M1686.09 28.5427 L1686.09 35.5912 Q1682.94 33.9709 1679.53 33.1607 Q1676.13 32.3505 1672.48 32.3505 Q1666.93 32.3505 1664.14 34.0519 Q1661.38 35.7533 1661.38 39.156 Q1661.38 41.7486 1663.37 43.2475 Q1665.35 44.7058 1671.35 46.0426 L1673.9 46.6097 Q1681.84 48.3111 1685.16 51.4303 Q1688.53 54.509 1688.53 60.0587 Q1688.53 66.3781 1683.5 70.0644 Q1678.52 73.7508 1669.77 73.7508 Q1666.12 73.7508 1662.15 73.0216 Q1658.22 72.3329 1653.85 70.9151 L1653.85 63.2184 Q1657.98 65.3654 1661.99 66.4591 Q1666 67.5124 1669.93 67.5124 Q1675.2 67.5124 1678.03 65.73 Q1680.87 63.9071 1680.87 60.6258 Q1680.87 57.5877 1678.8 55.9673 Q1676.78 54.3469 1669.85 52.8481 L1667.26 52.2405 Q1660.33 50.7821 1657.25 47.7845 Q1654.17 44.7463 1654.17 39.4801 Q1654.17 33.0797 1658.71 29.5959 Q1663.25 26.1121 1671.59 26.1121 Q1675.72 26.1121 1679.37 26.7198 Q1683.02 27.3274 1686.09 28.5427 Z" fill="#000000" fill-rule="nonzero" fill-opacity="1" /><path clip-path="url(#clip280)" d="M1707.77 14.324 L1707.77 27.2059 L1723.12 27.2059 L1723.12 32.9987 L1707.77 32.9987 L1707.77 57.6282 Q1707.77 63.1779 1709.27 64.7578 Q1710.81 66.3376 1715.46 66.3376 L1723.12 66.3376 L1723.12 72.576 L1715.46 72.576 Q1706.84 72.576 1703.55 69.3758 Q1700.27 66.1351 1700.27 57.6282 L1700.27 32.9987 L1694.8 32.9987 L1694.8 27.2059 L1700.27 27.2059 L1700.27 14.324 L1707.77 14.324 Z" fill="#000000" fill-rule="nonzero" fill-opacity="1" /><path clip-path="url(#clip280)" d="M1732.92 27.2059 L1740.38 27.2059 L1740.38 72.576 L1732.92 72.576 L1732.92 27.2059 M1732.92 9.54393 L1740.38 9.54393 L1740.38 18.9825 L1732.92 18.9825 L1732.92 9.54393 Z" fill="#000000" fill-rule="nonzero" fill-opacity="1" /><path clip-path="url(#clip280)" d="M1791.3 35.9153 Q1794.09 30.8922 1797.98 28.5022 Q1801.87 26.1121 1807.14 26.1121 Q1814.22 26.1121 1818.07 31.0947 Q1821.92 36.0368 1821.92 45.1919 L1821.92 72.576 L1814.43 72.576 L1814.43 45.4349 Q1814.43 38.913 1812.12 35.7533 Q1809.81 32.5936 1805.07 32.5936 Q1799.28 32.5936 1795.91 36.4419 Q1792.55 40.2903 1792.55 46.9338 L1792.55 72.576 L1785.06 72.576 L1785.06 45.4349 Q1785.06 38.8725 1782.75 35.7533 Q1780.44 32.5936 1775.62 32.5936 Q1769.91 32.5936 1766.55 36.4824 Q1763.18 40.3308 1763.18 46.9338 L1763.18 72.576 L1755.69 72.576 L1755.69 27.2059 L1763.18 27.2059 L1763.18 34.2544 Q1765.74 30.082 1769.3 28.0971 Q1772.87 26.1121 1777.77 26.1121 Q1782.71 26.1121 1786.15 28.6237 Q1789.64 31.1352 1791.3 35.9153 Z" fill="#000000" fill-rule="nonzero" fill-opacity="1" /><path clip-path="url(#clip280)" d="M1857.41 49.7694 Q1848.37 49.7694 1844.89 51.8354 Q1841.41 53.9013 1841.41 58.8839 Q1841.41 62.8538 1844 65.2034 Q1846.63 67.5124 1851.13 67.5124 Q1857.33 67.5124 1861.05 63.1374 Q1864.82 58.7219 1864.82 51.4303 L1864.82 49.7694 L1857.41 49.7694 M1872.27 46.6907 L1872.27 72.576 L1864.82 72.576 L1864.82 65.6895 Q1862.27 69.8214 1858.46 71.8063 Q1854.65 73.7508 1849.14 73.7508 Q1842.18 73.7508 1838.04 69.8619 Q1833.95 65.9325 1833.95 59.3701 Q1833.95 51.7138 1839.06 47.825 Q1844.2 43.9361 1854.37 43.9361 L1864.82 43.9361 L1864.82 43.2069 Q1864.82 38.0623 1861.42 35.2672 Q1858.06 32.4315 1851.94 32.4315 Q1848.05 32.4315 1844.36 33.3632 Q1840.68 34.295 1837.27 36.1584 L1837.27 29.2718 Q1841.37 27.692 1845.21 26.9223 Q1849.06 26.1121 1852.71 26.1121 Q1862.55 26.1121 1867.41 31.2163 Q1872.27 36.3204 1872.27 46.6907 Z" fill="#000000" fill-rule="nonzero" fill-opacity="1" /><path clip-path="url(#clip280)" d="M1895 14.324 L1895 27.2059 L1910.35 27.2059 L1910.35 32.9987 L1895 32.9987 L1895 57.6282 Q1895 63.1779 1896.5 64.7578 Q1898.04 66.3376 1902.7 66.3376 L1910.35 66.3376 L1910.35 72.576 L1902.7 72.576 Q1894.07 72.576 1890.79 69.3758 Q1887.51 66.1351 1887.51 57.6282 L1887.51 32.9987 L1882.04 32.9987 L1882.04 27.2059 L1887.51 27.2059 L1887.51 14.324 L1895 14.324 Z" fill="#000000" fill-rule="nonzero" fill-opacity="1" /><path clip-path="url(#clip280)" d="M1958.96 48.0275 L1958.96 51.6733 L1924.69 51.6733 Q1925.18 59.3701 1929.31 63.421 Q1933.48 67.4314 1940.9 67.4314 Q1945.19 67.4314 1949.2 66.3781 Q1953.25 65.3249 1957.22 63.2184 L1957.22 70.267 Q1953.21 71.9684 1949 72.8596 Q1944.79 73.7508 1940.45 73.7508 Q1929.59 73.7508 1923.23 67.4314 Q1916.92 61.1119 1916.92 50.3365 Q1916.92 39.1965 1922.91 32.6746 Q1928.95 26.1121 1939.15 26.1121 Q1948.31 26.1121 1953.62 32.0264 Q1958.96 37.9003 1958.96 48.0275 M1951.51 45.84 Q1951.43 39.7232 1948.07 36.0774 Q1944.75 32.4315 1939.24 32.4315 Q1933 32.4315 1929.23 35.9558 Q1925.5 39.4801 1924.94 45.8805 L1951.51 45.84 Z" fill="#000000" fill-rule="nonzero" fill-opacity="1" /><path clip-path="url(#clip280)" d="M1973.1 62.2867 L1981.65 62.2867 L1981.65 69.2543 L1975.01 82.2172 L1969.78 82.2172 L1973.1 69.2543 L1973.1 62.2867 Z" fill="#000000" fill-rule="nonzero" fill-opacity="1" /><path clip-path="url(#clip280)" d="M2056.79 20.0358 Q2052.66 17.2001 2042.98 17.2001 Q2032.73 17.2001 2032.73 21.9397 Q2032.73 25.6665 2043.43 27.611 Q2051.85 29.1098 2056.59 33.6468 Q2062.34 39.1155 2062.34 50.3365 Q2062.34 61.0714 2056.79 67.3908 Q2051.24 73.7508 2041.52 73.7508 Q2031.84 73.7508 2026.25 67.3908 Q2020.7 61.0714 2020.7 49.9314 Q2020.7 41.6676 2026.25 34.9836 Q2028.4 32.391 2031.43 30.9327 Q2025.11 27.7325 2025.11 22.0207 Q2025.11 11.0023 2042.98 11.0023 Q2051.93 11.0023 2056.79 13.8379 L2056.79 20.0358 M2037.02 32.9582 Q2034.27 34.1329 2032.04 37.0901 Q2028.56 41.6676 2028.56 49.9314 Q2028.56 58.1548 2032 62.7728 Q2035.49 67.4314 2041.52 67.4314 Q2047.48 67.4314 2050.96 62.7323 Q2054.44 58.0333 2054.44 50.3365 Q2054.44 42.2752 2050.76 38.3864 Q2046.83 34.2139 2041.72 33.7683 Q2039.13 33.5253 2037.02 32.9582 Z" fill="#000000" fill-rule="nonzero" fill-opacity="1" /><path clip-path="url(#clip280)" d="M2112.41 27.2059 L2096.01 49.2833 L2113.26 72.576 L2104.47 72.576 L2091.27 54.752 L2078.06 72.576 L2069.27 72.576 L2086.89 48.8377 L2070.77 27.2059 L2079.56 27.2059 L2091.59 43.369 L2103.62 27.2059 L2112.41 27.2059 Z" fill="#000000" fill-rule="nonzero" fill-opacity="1" /><path clip-path="url(#clip280)" d="M2151.14 34.9026 L2203.07 34.9026 L2203.07 41.7081 L2151.14 41.7081 L2151.14 34.9026 M2151.14 51.4303 L2203.07 51.4303 L2203.07 58.3168 L2151.14 58.3168 L2151.14 51.4303 Z" fill="#000000" fill-rule="nonzero" fill-opacity="1" /><path clip-path="url(#clip280)" d="M2248.52 65.6895 L2261.89 65.6895 L2261.89 19.5497 L2247.35 22.4663 L2247.35 15.0127 L2261.81 12.096 L2269.99 12.096 L2269.99 65.6895 L2283.36 65.6895 L2283.36 72.576 L2248.52 72.576 L2248.52 65.6895 Z" fill="#000000" fill-rule="nonzero" fill-opacity="1" /><path clip-path="url(#clip280)" d="M2299.89 62.2867 L2308.44 62.2867 L2308.44 72.576 L2299.89 72.576 L2299.89 62.2867 Z" fill="#000000" fill-rule="nonzero" fill-opacity="1" /><path clip-path="url(#clip280)" d="M2343.76 17.4837 Q2337.44 17.4837 2334.24 23.7221 Q2331.08 29.92 2331.08 42.3968 Q2331.08 54.833 2334.24 61.0714 Q2337.44 67.2693 2343.76 67.2693 Q2350.12 67.2693 2353.28 61.0714 Q2356.48 54.833 2356.48 42.3968 Q2356.48 29.92 2353.28 23.7221 Q2350.12 17.4837 2343.76 17.4837 M2343.76 11.0023 Q2353.93 11.0023 2359.27 19.0636 Q2364.66 27.0843 2364.66 42.3968 Q2364.66 57.6687 2359.27 65.73 Q2353.93 73.7508 2343.76 73.7508 Q2333.59 73.7508 2328.2 65.73 Q2322.86 57.6687 2322.86 42.3968 Q2322.86 27.0843 2328.2 19.0636 Q2333.59 11.0023 2343.76 11.0023 Z" fill="#000000" fill-rule="nonzero" fill-opacity="1" /><polyline clip-path="url(#clip282)" style="stroke:#009af9; stroke-linecap:round; stroke-linejoin:round; stroke-width:8; stroke-opacity:1; fill:none" points="280.231,575.826 301.412,493.569 322.592,514.908 343.773,574.406 364.954,683.28 386.134,815.698 407.315,938.932 428.495,957.28 449.676,905.84 470.857,929.875 492.037,993.089 513.218,968.491 534.399,933.388 555.579,950.71 576.76,974.363 597.941,1032.92 619.121,1094.97 640.302,1094.33 661.482,1077.48 682.663,1100.95 703.844,1115.4 725.024,1095.99 746.205,1093.13 767.386,1118.72 788.566,1126.15 809.747,1118.56 830.927,1132.11 852.108,1159.55 873.289,1175.93 894.469,1178.32 915.65,1175.67 936.831,1180.42 958.011,1194.21 979.192,1202.12 1000.37,1201.43 1021.55,1205.65 1042.73,1210.85 1063.91,1204.86 1085.1,1194.2 1106.28,1186.34 1127.46,1174.59 1148.64,1155.03 1169.82,1131.53 1191,1106.4 1212.18,1072.91 1233.36,1024.01 1254.54,973.057 1275.72,940.645 1296.9,907.072 1318.08,849.396 "/>
<path clip-path="url(#clip282)" d="M1339.26 1357.72 L1360.44 1329.96 L1381.62 1308.08 L1402.8 1263.41 L1423.99 1245.39 L1445.17 1222.96 L1466.35 1203.11 L1487.53 1236.38 L1508.71 1231.05 L1529.89 1208.07 L1551.07 1209.54 L1572.25 1208.25 L1593.43 1216.89 L1614.61 1216.16 L1635.79 1225.17 L1656.97 1208.62 L1678.15 1192.63 L1699.33 1198.33 L1720.51 1202.56 L1741.69 1185.46 L1762.88 1184.36 L1784.06 1155.49 L1805.24 1129.39 L1826.42 1105.86 L1847.6 1113.94 L1868.78 1105.49 L1889.96 1089.31 L1911.14 1073.68 L1932.32 1078.83 L1953.5 1089.49 L1974.68 1114.13 L1995.86 1106.96 L2017.04 1099.6 L2038.22 1102.36 L2059.4 1099.24 L2080.58 1100.16 L2101.77 1126.81 L2122.95 1129.39 L2144.13 1133.43 L2165.31 1152.18 L2186.49 1161.56 L2207.67 1144.28 L2228.85 1159.54 L2250.03 1201.08 L2271.21 1331.98 L2292.39 1386.4 L2292.39 472.969 L2271.21 418.552 L2250.03 287.658 L2228.85 246.11 L2207.67 230.851 L2186.49 248.132 L2165.31 238.756 L2144.13 220.004 L2122.95 215.96 L2101.77 213.386 L2080.58 186.729 L2059.4 185.81 L2038.22 188.935 L2017.04 186.178 L1995.86 193.531 L1974.68 200.701 L1953.5 176.067 L1932.32 165.404 L1911.14 160.256 L1889.96 175.883 L1868.78 192.061 L1847.6 200.517 L1826.42 192.428 L1805.24 215.96 L1784.06 242.065 L1762.88 270.928 L1741.69 272.031 L1720.51 289.128 L1699.33 284.9 L1678.15 279.201 L1656.97 295.195 L1635.79 311.741 L1614.61 302.733 L1593.43 303.468 L1572.25 294.827 L1551.07 296.114 L1529.89 294.644 L1508.71 317.624 L1487.53 322.955 L1466.35 289.68 L1445.17 309.535 L1423.99 331.963 L1402.8 349.98 L1381.62 394.653 L1360.44 416.53 L1339.26 444.29  Z" fill="#e26f46" fill-rule="evenodd" fill-opacity="0.5"/>
<polyline clip-path="url(#clip282)" style="stroke:#e26f46; stroke-linecap:round; stroke-linejoin:round; stroke-width:8; stroke-opacity:1; fill:none" stroke-dasharray="32, 16, 4, 16" points="1339.26,901.003 1360.44,873.243 1381.62,851.366 1402.8,806.693 1423.99,788.677 1445.17,766.248 1466.35,746.393 1487.53,779.668 1508.71,774.337 1529.89,751.357 1551.07,752.828 1572.25,751.541 1593.43,760.181 1614.61,759.446 1635.79,768.454 1656.97,751.909 1678.15,735.914 1699.33,741.614 1720.51,745.842 1741.69,728.745 1762.88,727.642 1784.06,698.779 1805.24,672.673 1826.42,649.142 1847.6,657.231 1868.78,648.774 1889.96,632.596 1911.14,616.97 1932.32,622.117 1953.5,632.78 1974.68,657.415 1995.86,650.245 2017.04,642.891 2038.22,645.649 2059.4,642.524 2080.58,643.443 2101.77,670.1 2122.95,672.673 2144.13,676.718 2165.31,695.47 2186.49,704.845 2207.67,687.564 2228.85,702.823 2250.03,744.371 2271.21,875.265 2292.39,929.682 "/>
<polyline clip-path="url(#clip282)" style="stroke:#3da44d; stroke-linecap:round; stroke-linejoin:round; stroke-width:8; stroke-opacity:1; fill:none" points="1339.26,816.591 1360.44,836.695 1381.62,838.51 1402.8,793.714 1423.99,767.802 1445.17,772.034 1466.35,764.433 1487.53,763.095 1508.71,784.903 1529.89,783.142 1551.07,770.643 1572.25,790.065 1593.43,790.631 1614.61,766.605 1635.79,783.913 1656.97,806.095 1678.15,784.602 1699.33,771.443 1720.51,787.409 1741.69,796.738 1762.88,791.945 1784.06,781.003 1805.24,762.443 1826.42,751.594 1847.6,755.125 1868.78,749.014 1889.96,730.104 1911.14,711.586 1932.32,685.236 1953.5,662.846 1974.68,664.264 1995.86,657.538 2017.04,624.151 2038.22,616.657 2059.4,647.489 2080.58,654.982 2101.77,637.561 2122.95,653.974 2144.13,680.942 2165.31,670.287 2186.49,673.296 2207.67,698.757 2228.85,669.826 2250.03,657.825 2271.21,770.402 2292.39,889.329 "/>
<path clip-path="url(#clip280)" d="M290.963 1379.86 L911.032 1379.86 L911.032 1172.5 L290.963 1172.5  Z" fill="#ffffff" fill-rule="evenodd" fill-opacity="1"/>
<polyline clip-path="url(#clip280)" style="stroke:#000000; stroke-linecap:round; stroke-linejoin:round; stroke-width:4; stroke-opacity:1; fill:none" points="290.963,1379.86 911.032,1379.86 911.032,1172.5 290.963,1172.5 290.963,1379.86 "/>
<polyline clip-path="url(#clip280)" style="stroke:#009af9; stroke-linecap:round; stroke-linejoin:round; stroke-width:8; stroke-opacity:1; fill:none" points="314.661,1224.34 456.854,1224.34 "/>
<path clip-path="url(#clip280)" d="M508.423 1209.72 L508.423 1214.65 Q506.062 1212.45 503.377 1211.36 Q500.715 1210.27 497.705 1210.27 Q491.78 1210.27 488.631 1213.91 Q485.483 1217.52 485.483 1224.37 Q485.483 1231.2 488.631 1234.83 Q491.78 1238.44 497.705 1238.44 Q500.715 1238.44 503.377 1237.36 Q506.062 1236.27 508.423 1234.07 L508.423 1238.95 Q505.969 1240.62 503.215 1241.45 Q500.483 1242.29 497.428 1242.29 Q489.581 1242.29 485.067 1237.5 Q480.553 1232.68 480.553 1224.37 Q480.553 1216.04 485.067 1211.25 Q489.581 1206.43 497.428 1206.43 Q500.53 1206.43 503.261 1207.26 Q506.016 1208.07 508.423 1209.72 Z" fill="#000000" fill-rule="nonzero" fill-opacity="1" /><path clip-path="url(#clip280)" d="M525.506 1218.68 Q522.08 1218.68 520.09 1221.36 Q518.099 1224.02 518.099 1228.68 Q518.099 1233.33 520.066 1236.01 Q522.057 1238.68 525.506 1238.68 Q528.909 1238.68 530.9 1235.99 Q532.89 1233.31 532.89 1228.68 Q532.89 1224.07 530.9 1221.38 Q528.909 1218.68 525.506 1218.68 M525.506 1215.07 Q531.062 1215.07 534.233 1218.68 Q537.404 1222.29 537.404 1228.68 Q537.404 1235.04 534.233 1238.68 Q531.062 1242.29 525.506 1242.29 Q519.928 1242.29 516.756 1238.68 Q513.608 1235.04 513.608 1228.68 Q513.608 1222.29 516.756 1218.68 Q519.928 1215.07 525.506 1215.07 Z" fill="#000000" fill-rule="nonzero" fill-opacity="1" /><path clip-path="url(#clip280)" d="M566.015 1225.97 L566.015 1241.62 L561.756 1241.62 L561.756 1226.11 Q561.756 1222.43 560.321 1220.6 Q558.886 1218.77 556.015 1218.77 Q552.566 1218.77 550.576 1220.97 Q548.585 1223.17 548.585 1226.96 L548.585 1241.62 L544.302 1241.62 L544.302 1215.69 L548.585 1215.69 L548.585 1219.72 Q550.113 1217.38 552.173 1216.22 Q554.256 1215.07 556.964 1215.07 Q561.432 1215.07 563.724 1217.84 Q566.015 1220.6 566.015 1225.97 Z" fill="#000000" fill-rule="nonzero" fill-opacity="1" /><path clip-path="url(#clip280)" d="M591.571 1219.63 L591.571 1205.6 L595.83 1205.6 L595.83 1241.62 L591.571 1241.62 L591.571 1237.73 Q590.228 1240.04 588.168 1241.18 Q586.131 1242.29 583.261 1242.29 Q578.562 1242.29 575.599 1238.54 Q572.659 1234.79 572.659 1228.68 Q572.659 1222.57 575.599 1218.82 Q578.562 1215.07 583.261 1215.07 Q586.131 1215.07 588.168 1216.2 Q590.228 1217.31 591.571 1219.63 M577.057 1228.68 Q577.057 1233.38 578.978 1236.06 Q580.923 1238.72 584.302 1238.72 Q587.682 1238.72 589.626 1236.06 Q591.571 1233.38 591.571 1228.68 Q591.571 1223.98 589.626 1221.32 Q587.682 1218.63 584.302 1218.63 Q580.923 1218.63 578.978 1221.32 Q577.057 1223.98 577.057 1228.68 Z" fill="#000000" fill-rule="nonzero" fill-opacity="1" /><path clip-path="url(#clip280)" d="M604.603 1215.69 L608.862 1215.69 L608.862 1241.62 L604.603 1241.62 L604.603 1215.69 M604.603 1205.6 L608.862 1205.6 L608.862 1210.99 L604.603 1210.99 L604.603 1205.6 Z" fill="#000000" fill-rule="nonzero" fill-opacity="1" /><path clip-path="url(#clip280)" d="M621.987 1208.33 L621.987 1215.69 L630.76 1215.69 L630.76 1219 L621.987 1219 L621.987 1233.07 Q621.987 1236.25 622.844 1237.15 Q623.723 1238.05 626.385 1238.05 L630.76 1238.05 L630.76 1241.62 L626.385 1241.62 Q621.455 1241.62 619.58 1239.79 Q617.705 1237.94 617.705 1233.07 L617.705 1219 L614.58 1219 L614.58 1215.69 L617.705 1215.69 L617.705 1208.33 L621.987 1208.33 Z" fill="#000000" fill-rule="nonzero" fill-opacity="1" /><path clip-path="url(#clip280)" d="M636.362 1215.69 L640.621 1215.69 L640.621 1241.62 L636.362 1241.62 L636.362 1215.69 M636.362 1205.6 L640.621 1205.6 L640.621 1210.99 L636.362 1210.99 L636.362 1205.6 Z" fill="#000000" fill-rule="nonzero" fill-opacity="1" /><path clip-path="url(#clip280)" d="M659.58 1218.68 Q656.154 1218.68 654.163 1221.36 Q652.172 1224.02 652.172 1228.68 Q652.172 1233.33 654.14 1236.01 Q656.131 1238.68 659.58 1238.68 Q662.982 1238.68 664.973 1235.99 Q666.964 1233.31 666.964 1228.68 Q666.964 1224.07 664.973 1221.38 Q662.982 1218.68 659.58 1218.68 M659.58 1215.07 Q665.135 1215.07 668.306 1218.68 Q671.478 1222.29 671.478 1228.68 Q671.478 1235.04 668.306 1238.68 Q665.135 1242.29 659.58 1242.29 Q654.001 1242.29 650.83 1238.68 Q647.682 1235.04 647.682 1228.68 Q647.682 1222.29 650.83 1218.68 Q654.001 1215.07 659.58 1215.07 Z" fill="#000000" fill-rule="nonzero" fill-opacity="1" /><path clip-path="url(#clip280)" d="M700.089 1225.97 L700.089 1241.62 L695.829 1241.62 L695.829 1226.11 Q695.829 1222.43 694.394 1220.6 Q692.959 1218.77 690.089 1218.77 Q686.64 1218.77 684.649 1220.97 Q682.658 1223.17 682.658 1226.96 L682.658 1241.62 L678.376 1241.62 L678.376 1215.69 L682.658 1215.69 L682.658 1219.72 Q684.186 1217.38 686.246 1216.22 Q688.329 1215.07 691.038 1215.07 Q695.505 1215.07 697.797 1217.84 Q700.089 1220.6 700.089 1225.97 Z" fill="#000000" fill-rule="nonzero" fill-opacity="1" /><path clip-path="url(#clip280)" d="M730.76 1227.59 L730.76 1229.67 L711.177 1229.67 Q711.454 1234.07 713.815 1236.38 Q716.2 1238.68 720.436 1238.68 Q722.889 1238.68 725.181 1238.07 Q727.496 1237.47 729.764 1236.27 L729.764 1240.3 Q727.473 1241.27 725.065 1241.78 Q722.658 1242.29 720.181 1242.29 Q713.977 1242.29 710.343 1238.68 Q706.732 1235.07 706.732 1228.91 Q706.732 1222.54 710.158 1218.82 Q713.607 1215.07 719.44 1215.07 Q724.672 1215.07 727.704 1218.45 Q730.76 1221.8 730.76 1227.59 M726.501 1226.34 Q726.454 1222.84 724.533 1220.76 Q722.635 1218.68 719.487 1218.68 Q715.922 1218.68 713.769 1220.69 Q711.64 1222.7 711.315 1226.36 L726.501 1226.34 Z" fill="#000000" fill-rule="nonzero" fill-opacity="1" /><path clip-path="url(#clip280)" d="M754.811 1219.63 L754.811 1205.6 L759.07 1205.6 L759.07 1241.62 L754.811 1241.62 L754.811 1237.73 Q753.468 1240.04 751.408 1241.18 Q749.371 1242.29 746.5 1242.29 Q741.801 1242.29 738.838 1238.54 Q735.899 1234.79 735.899 1228.68 Q735.899 1222.57 738.838 1218.82 Q741.801 1215.07 746.5 1215.07 Q749.371 1215.07 751.408 1216.2 Q753.468 1217.31 754.811 1219.63 M740.297 1228.68 Q740.297 1233.38 742.218 1236.06 Q744.162 1238.72 747.542 1238.72 Q750.922 1238.72 752.866 1236.06 Q754.811 1233.38 754.811 1228.68 Q754.811 1223.98 752.866 1221.32 Q750.922 1218.63 747.542 1218.63 Q744.162 1218.63 742.218 1221.32 Q740.297 1223.98 740.297 1228.68 Z" fill="#000000" fill-rule="nonzero" fill-opacity="1" /><path clip-path="url(#clip280)" d="M787.773 1210.9 L787.773 1237.77 L793.421 1237.77 Q800.574 1237.77 803.884 1234.53 Q807.218 1231.29 807.218 1224.3 Q807.218 1217.36 803.884 1214.14 Q800.574 1210.9 793.421 1210.9 L787.773 1210.9 M783.097 1207.06 L792.704 1207.06 Q802.75 1207.06 807.449 1211.25 Q812.148 1215.41 812.148 1224.3 Q812.148 1233.24 807.426 1237.43 Q802.704 1241.62 792.704 1241.62 L783.097 1241.62 L783.097 1207.06 Z" fill="#000000" fill-rule="nonzero" fill-opacity="1" /><path clip-path="url(#clip280)" d="M831.199 1228.58 Q826.037 1228.58 824.046 1229.76 Q822.056 1230.95 822.056 1233.79 Q822.056 1236.06 823.537 1237.4 Q825.042 1238.72 827.611 1238.72 Q831.153 1238.72 833.282 1236.22 Q835.435 1233.7 835.435 1229.53 L835.435 1228.58 L831.199 1228.58 M839.694 1226.82 L839.694 1241.62 L835.435 1241.62 L835.435 1237.68 Q833.977 1240.04 831.801 1241.18 Q829.625 1242.29 826.477 1242.29 Q822.495 1242.29 820.134 1240.07 Q817.796 1237.82 817.796 1234.07 Q817.796 1229.7 820.713 1227.47 Q823.653 1225.25 829.463 1225.25 L835.435 1225.25 L835.435 1224.83 Q835.435 1221.89 833.491 1220.3 Q831.569 1218.68 828.074 1218.68 Q825.852 1218.68 823.745 1219.21 Q821.639 1219.74 819.694 1220.81 L819.694 1216.87 Q822.032 1215.97 824.231 1215.53 Q826.431 1215.07 828.514 1215.07 Q834.139 1215.07 836.917 1217.98 Q839.694 1220.9 839.694 1226.82 Z" fill="#000000" fill-rule="nonzero" fill-opacity="1" /><path clip-path="url(#clip280)" d="M852.68 1208.33 L852.68 1215.69 L861.454 1215.69 L861.454 1219 L852.68 1219 L852.68 1233.07 Q852.68 1236.25 853.537 1237.15 Q854.417 1238.05 857.079 1238.05 L861.454 1238.05 L861.454 1241.62 L857.079 1241.62 Q852.148 1241.62 850.273 1239.79 Q848.398 1237.94 848.398 1233.07 L848.398 1219 L845.273 1219 L845.273 1215.69 L848.398 1215.69 L848.398 1208.33 L852.68 1208.33 Z" fill="#000000" fill-rule="nonzero" fill-opacity="1" /><path clip-path="url(#clip280)" d="M878.838 1228.58 Q873.676 1228.58 871.685 1229.76 Q869.694 1230.95 869.694 1233.79 Q869.694 1236.06 871.176 1237.4 Q872.68 1238.72 875.25 1238.72 Q878.791 1238.72 880.921 1236.22 Q883.074 1233.7 883.074 1229.53 L883.074 1228.58 L878.838 1228.58 M887.333 1226.82 L887.333 1241.62 L883.074 1241.62 L883.074 1237.68 Q881.615 1240.04 879.44 1241.18 Q877.264 1242.29 874.115 1242.29 Q870.134 1242.29 867.773 1240.07 Q865.435 1237.82 865.435 1234.07 Q865.435 1229.7 868.352 1227.47 Q871.291 1225.25 877.102 1225.25 L883.074 1225.25 L883.074 1224.83 Q883.074 1221.89 881.129 1220.3 Q879.208 1218.68 875.713 1218.68 Q873.49 1218.68 871.384 1219.21 Q869.278 1219.74 867.333 1220.81 L867.333 1216.87 Q869.671 1215.97 871.87 1215.53 Q874.069 1215.07 876.153 1215.07 Q881.777 1215.07 884.555 1217.98 Q887.333 1220.9 887.333 1226.82 Z" fill="#000000" fill-rule="nonzero" fill-opacity="1" /><polyline clip-path="url(#clip280)" style="stroke:#e26f46; stroke-linecap:round; stroke-linejoin:round; stroke-width:8; stroke-opacity:1; fill:none" stroke-dasharray="32, 16, 4, 16" points="314.661,1276.18 456.854,1276.18 "/>
<path clip-path="url(#clip280)" d="M485.229 1262.74 L485.229 1275.72 L491.108 1275.72 Q494.372 1275.72 496.155 1274.04 Q497.937 1272.35 497.937 1269.22 Q497.937 1266.12 496.155 1264.43 Q494.372 1262.74 491.108 1262.74 L485.229 1262.74 M480.553 1258.9 L491.108 1258.9 Q496.918 1258.9 499.881 1261.54 Q502.867 1264.15 502.867 1269.22 Q502.867 1274.34 499.881 1276.95 Q496.918 1279.57 491.108 1279.57 L485.229 1279.57 L485.229 1293.46 L480.553 1293.46 L480.553 1258.9 Z" fill="#000000" fill-rule="nonzero" fill-opacity="1" /><path clip-path="url(#clip280)" d="M523.145 1271.51 Q522.428 1271.1 521.571 1270.91 Q520.738 1270.7 519.719 1270.7 Q516.108 1270.7 514.164 1273.06 Q512.242 1275.4 512.242 1279.8 L512.242 1293.46 L507.96 1293.46 L507.96 1267.53 L512.242 1267.53 L512.242 1271.56 Q513.585 1269.2 515.738 1268.06 Q517.891 1266.91 520.969 1266.91 Q521.409 1266.91 521.941 1266.97 Q522.474 1267.02 523.122 1267.14 L523.145 1271.51 Z" fill="#000000" fill-rule="nonzero" fill-opacity="1" /><path clip-path="url(#clip280)" d="M548.747 1279.43 L548.747 1281.51 L529.164 1281.51 Q529.441 1285.91 531.803 1288.22 Q534.187 1290.52 538.423 1290.52 Q540.877 1290.52 543.168 1289.91 Q545.483 1289.31 547.751 1288.11 L547.751 1292.14 Q545.46 1293.11 543.052 1293.62 Q540.645 1294.13 538.168 1294.13 Q531.965 1294.13 528.33 1290.52 Q524.719 1286.91 524.719 1280.75 Q524.719 1274.38 528.145 1270.66 Q531.594 1266.91 537.427 1266.91 Q542.659 1266.91 545.691 1270.29 Q548.747 1273.64 548.747 1279.43 M544.488 1278.18 Q544.441 1274.68 542.52 1272.6 Q540.622 1270.52 537.474 1270.52 Q533.909 1270.52 531.756 1272.53 Q529.627 1274.54 529.303 1278.2 L544.488 1278.18 Z" fill="#000000" fill-rule="nonzero" fill-opacity="1" /><path clip-path="url(#clip280)" d="M572.798 1271.47 L572.798 1257.44 L577.057 1257.44 L577.057 1293.46 L572.798 1293.46 L572.798 1289.57 Q571.455 1291.88 569.395 1293.02 Q567.358 1294.13 564.488 1294.13 Q559.788 1294.13 556.826 1290.38 Q553.886 1286.63 553.886 1280.52 Q553.886 1274.41 556.826 1270.66 Q559.788 1266.91 564.488 1266.91 Q567.358 1266.91 569.395 1268.04 Q571.455 1269.15 572.798 1271.47 M558.284 1280.52 Q558.284 1285.22 560.205 1287.9 Q562.15 1290.56 565.529 1290.56 Q568.909 1290.56 570.853 1287.9 Q572.798 1285.22 572.798 1280.52 Q572.798 1275.82 570.853 1273.16 Q568.909 1270.47 565.529 1270.47 Q562.15 1270.47 560.205 1273.16 Q558.284 1275.82 558.284 1280.52 Z" fill="#000000" fill-rule="nonzero" fill-opacity="1" /><path clip-path="url(#clip280)" d="M585.83 1267.53 L590.089 1267.53 L590.089 1293.46 L585.83 1293.46 L585.83 1267.53 M585.83 1257.44 L590.089 1257.44 L590.089 1262.83 L585.83 1262.83 L585.83 1257.44 Z" fill="#000000" fill-rule="nonzero" fill-opacity="1" /><path clip-path="url(#clip280)" d="M617.659 1268.53 L617.659 1272.51 Q615.853 1271.51 614.024 1271.03 Q612.219 1270.52 610.367 1270.52 Q606.223 1270.52 603.932 1273.16 Q601.64 1275.77 601.64 1280.52 Q601.64 1285.26 603.932 1287.9 Q606.223 1290.52 610.367 1290.52 Q612.219 1290.52 614.024 1290.03 Q615.853 1289.52 617.659 1288.53 L617.659 1292.46 Q615.876 1293.29 613.955 1293.71 Q612.057 1294.13 609.904 1294.13 Q604.047 1294.13 600.598 1290.45 Q597.149 1286.77 597.149 1280.52 Q597.149 1274.17 600.622 1270.54 Q604.117 1266.91 610.182 1266.91 Q612.149 1266.91 614.024 1267.32 Q615.899 1267.72 617.659 1268.53 Z" fill="#000000" fill-rule="nonzero" fill-opacity="1" /><path clip-path="url(#clip280)" d="M629.279 1260.17 L629.279 1267.53 L638.052 1267.53 L638.052 1270.84 L629.279 1270.84 L629.279 1284.91 Q629.279 1288.09 630.135 1288.99 Q631.015 1289.89 633.677 1289.89 L638.052 1289.89 L638.052 1293.46 L633.677 1293.46 Q628.746 1293.46 626.871 1291.63 Q624.996 1289.78 624.996 1284.91 L624.996 1270.84 L621.871 1270.84 L621.871 1267.53 L624.996 1267.53 L624.996 1260.17 L629.279 1260.17 Z" fill="#000000" fill-rule="nonzero" fill-opacity="1" /><path clip-path="url(#clip280)" d="M665.83 1279.43 L665.83 1281.51 L646.246 1281.51 Q646.524 1285.91 648.885 1288.22 Q651.269 1290.52 655.506 1290.52 Q657.959 1290.52 660.251 1289.91 Q662.566 1289.31 664.834 1288.11 L664.834 1292.14 Q662.543 1293.11 660.135 1293.62 Q657.728 1294.13 655.251 1294.13 Q649.047 1294.13 645.413 1290.52 Q641.802 1286.91 641.802 1280.75 Q641.802 1274.38 645.228 1270.66 Q648.677 1266.91 654.51 1266.91 Q659.742 1266.91 662.774 1270.29 Q665.83 1273.64 665.83 1279.43 M661.57 1278.18 Q661.524 1274.68 659.603 1272.6 Q657.705 1270.52 654.556 1270.52 Q650.992 1270.52 648.839 1272.53 Q646.709 1274.54 646.385 1278.2 L661.57 1278.18 Z" fill="#000000" fill-rule="nonzero" fill-opacity="1" /><path clip-path="url(#clip280)" d="M689.88 1271.47 L689.88 1257.44 L694.14 1257.44 L694.14 1293.46 L689.88 1293.46 L689.88 1289.57 Q688.538 1291.88 686.478 1293.02 Q684.441 1294.13 681.57 1294.13 Q676.871 1294.13 673.908 1290.38 Q670.968 1286.63 670.968 1280.52 Q670.968 1274.41 673.908 1270.66 Q676.871 1266.91 681.57 1266.91 Q684.441 1266.91 686.478 1268.04 Q688.538 1269.15 689.88 1271.47 M675.367 1280.52 Q675.367 1285.22 677.288 1287.9 Q679.232 1290.56 682.612 1290.56 Q685.991 1290.56 687.936 1287.9 Q689.88 1285.22 689.88 1280.52 Q689.88 1275.82 687.936 1273.16 Q685.991 1270.47 682.612 1270.47 Q679.232 1270.47 677.288 1273.16 Q675.367 1275.82 675.367 1280.52 Z" fill="#000000" fill-rule="nonzero" fill-opacity="1" /><path clip-path="url(#clip280)" d="M722.843 1262.74 L722.843 1275.72 L728.723 1275.72 Q731.987 1275.72 733.769 1274.04 Q735.551 1272.35 735.551 1269.22 Q735.551 1266.12 733.769 1264.43 Q731.987 1262.74 728.723 1262.74 L722.843 1262.74 M718.167 1258.9 L728.723 1258.9 Q734.533 1258.9 737.496 1261.54 Q740.482 1264.15 740.482 1269.22 Q740.482 1274.34 737.496 1276.95 Q734.533 1279.57 728.723 1279.57 L722.843 1279.57 L722.843 1293.46 L718.167 1293.46 L718.167 1258.9 Z" fill="#000000" fill-rule="nonzero" fill-opacity="1" /><path clip-path="url(#clip280)" d="M754.926 1270.52 Q751.5 1270.52 749.51 1273.2 Q747.519 1275.86 747.519 1280.52 Q747.519 1285.17 749.487 1287.85 Q751.477 1290.52 754.926 1290.52 Q758.329 1290.52 760.32 1287.83 Q762.311 1285.15 762.311 1280.52 Q762.311 1275.91 760.32 1273.22 Q758.329 1270.52 754.926 1270.52 M754.926 1266.91 Q760.482 1266.91 763.653 1270.52 Q766.824 1274.13 766.824 1280.52 Q766.824 1286.88 763.653 1290.52 Q760.482 1294.13 754.926 1294.13 Q749.348 1294.13 746.176 1290.52 Q743.028 1286.88 743.028 1280.52 Q743.028 1274.13 746.176 1270.52 Q749.348 1266.91 754.926 1266.91 Z" fill="#000000" fill-rule="nonzero" fill-opacity="1" /><path clip-path="url(#clip280)" d="M773.885 1267.53 L778.144 1267.53 L778.144 1293.46 L773.885 1293.46 L773.885 1267.53 M773.885 1257.44 L778.144 1257.44 L778.144 1262.83 L773.885 1262.83 L773.885 1257.44 Z" fill="#000000" fill-rule="nonzero" fill-opacity="1" /><path clip-path="url(#clip280)" d="M808.607 1277.81 L808.607 1293.46 L804.347 1293.46 L804.347 1277.95 Q804.347 1274.27 802.912 1272.44 Q801.477 1270.61 798.607 1270.61 Q795.158 1270.61 793.167 1272.81 Q791.176 1275.01 791.176 1278.8 L791.176 1293.46 L786.894 1293.46 L786.894 1267.53 L791.176 1267.53 L791.176 1271.56 Q792.704 1269.22 794.764 1268.06 Q796.847 1266.91 799.556 1266.91 Q804.023 1266.91 806.315 1269.68 Q808.607 1272.44 808.607 1277.81 Z" fill="#000000" fill-rule="nonzero" fill-opacity="1" /><path clip-path="url(#clip280)" d="M821.315 1260.17 L821.315 1267.53 L830.088 1267.53 L830.088 1270.84 L821.315 1270.84 L821.315 1284.91 Q821.315 1288.09 822.171 1288.99 Q823.051 1289.89 825.713 1289.89 L830.088 1289.89 L830.088 1293.46 L825.713 1293.46 Q820.782 1293.46 818.907 1291.63 Q817.032 1289.78 817.032 1284.91 L817.032 1270.84 L813.907 1270.84 L813.907 1267.53 L817.032 1267.53 L817.032 1260.17 L821.315 1260.17 Z" fill="#000000" fill-rule="nonzero" fill-opacity="1" /><path clip-path="url(#clip280)" d="M852.217 1268.29 L852.217 1272.32 Q850.412 1271.4 848.467 1270.93 Q846.523 1270.47 844.44 1270.47 Q841.268 1270.47 839.671 1271.44 Q838.097 1272.41 838.097 1274.36 Q838.097 1275.84 839.231 1276.7 Q840.366 1277.53 843.792 1278.29 L845.25 1278.62 Q849.787 1279.59 851.685 1281.37 Q853.606 1283.13 853.606 1286.3 Q853.606 1289.91 850.736 1292.02 Q847.889 1294.13 842.889 1294.13 Q840.805 1294.13 838.537 1293.71 Q836.292 1293.32 833.792 1292.51 L833.792 1288.11 Q836.153 1289.34 838.444 1289.96 Q840.736 1290.56 842.981 1290.56 Q845.991 1290.56 847.611 1289.54 Q849.231 1288.5 849.231 1286.63 Q849.231 1284.89 848.051 1283.97 Q846.893 1283.04 842.935 1282.18 L841.454 1281.84 Q837.495 1281 835.736 1279.29 Q833.977 1277.55 833.977 1274.54 Q833.977 1270.89 836.569 1268.9 Q839.162 1266.91 843.93 1266.91 Q846.292 1266.91 848.375 1267.25 Q850.458 1267.6 852.217 1268.29 Z" fill="#000000" fill-rule="nonzero" fill-opacity="1" /><polyline clip-path="url(#clip280)" style="stroke:#3da44d; stroke-linecap:round; stroke-linejoin:round; stroke-width:8; stroke-opacity:1; fill:none" points="314.661,1328.02 456.854,1328.02 "/>
<path clip-path="url(#clip280)" d="M496.386 1315.34 L490.043 1332.54 L502.752 1332.54 L496.386 1315.34 M493.747 1310.74 L499.048 1310.74 L512.219 1345.3 L507.358 1345.3 L504.21 1336.43 L488.631 1336.43 L485.483 1345.3 L480.553 1345.3 L493.747 1310.74 Z" fill="#000000" fill-rule="nonzero" fill-opacity="1" /><path clip-path="url(#clip280)" d="M534.904 1320.37 L534.904 1324.35 Q533.099 1323.35 531.27 1322.87 Q529.465 1322.36 527.613 1322.36 Q523.469 1322.36 521.178 1325 Q518.886 1327.61 518.886 1332.36 Q518.886 1337.1 521.178 1339.74 Q523.469 1342.36 527.613 1342.36 Q529.465 1342.36 531.27 1341.87 Q533.099 1341.36 534.904 1340.37 L534.904 1344.3 Q533.122 1345.13 531.201 1345.55 Q529.303 1345.97 527.15 1345.97 Q521.293 1345.97 517.844 1342.29 Q514.395 1338.61 514.395 1332.36 Q514.395 1326.01 517.867 1322.38 Q521.363 1318.75 527.428 1318.75 Q529.395 1318.75 531.27 1319.16 Q533.145 1319.56 534.904 1320.37 Z" fill="#000000" fill-rule="nonzero" fill-opacity="1" /><path clip-path="url(#clip280)" d="M546.525 1312.01 L546.525 1319.37 L555.298 1319.37 L555.298 1322.68 L546.525 1322.68 L546.525 1336.75 Q546.525 1339.93 547.381 1340.83 Q548.261 1341.73 550.923 1341.73 L555.298 1341.73 L555.298 1345.3 L550.923 1345.3 Q545.992 1345.3 544.117 1343.47 Q542.242 1341.62 542.242 1336.75 L542.242 1322.68 L539.117 1322.68 L539.117 1319.37 L542.242 1319.37 L542.242 1312.01 L546.525 1312.01 Z" fill="#000000" fill-rule="nonzero" fill-opacity="1" /><path clip-path="url(#clip280)" d="M560.46 1335.06 L560.46 1319.37 L564.719 1319.37 L564.719 1334.9 Q564.719 1338.58 566.154 1340.44 Q567.589 1342.26 570.46 1342.26 Q573.909 1342.26 575.899 1340.06 Q577.913 1337.87 577.913 1334.07 L577.913 1319.37 L582.173 1319.37 L582.173 1345.3 L577.913 1345.3 L577.913 1341.31 Q576.362 1343.68 574.302 1344.83 Q572.265 1345.97 569.557 1345.97 Q565.089 1345.97 562.775 1343.19 Q560.46 1340.41 560.46 1335.06 M571.177 1318.75 L571.177 1318.75 Z" fill="#000000" fill-rule="nonzero" fill-opacity="1" /><path clip-path="url(#clip280)" d="M602.728 1332.26 Q597.566 1332.26 595.575 1333.44 Q593.585 1334.63 593.585 1337.47 Q593.585 1339.74 595.066 1341.08 Q596.571 1342.4 599.14 1342.4 Q602.682 1342.4 604.811 1339.9 Q606.964 1337.38 606.964 1333.21 L606.964 1332.26 L602.728 1332.26 M611.223 1330.5 L611.223 1345.3 L606.964 1345.3 L606.964 1341.36 Q605.506 1343.72 603.33 1344.86 Q601.154 1345.97 598.006 1345.97 Q594.024 1345.97 591.663 1343.75 Q589.325 1341.5 589.325 1337.75 Q589.325 1333.38 592.242 1331.15 Q595.182 1328.93 600.992 1328.93 L606.964 1328.93 L606.964 1328.51 Q606.964 1325.57 605.02 1323.98 Q603.098 1322.36 599.603 1322.36 Q597.381 1322.36 595.274 1322.89 Q593.168 1323.42 591.223 1324.49 L591.223 1320.55 Q593.561 1319.65 595.76 1319.21 Q597.96 1318.75 600.043 1318.75 Q605.668 1318.75 608.446 1321.66 Q611.223 1324.58 611.223 1330.5 Z" fill="#000000" fill-rule="nonzero" fill-opacity="1" /><path clip-path="url(#clip280)" d="M619.996 1309.28 L624.256 1309.28 L624.256 1345.3 L619.996 1345.3 L619.996 1309.28 Z" fill="#000000" fill-rule="nonzero" fill-opacity="1" /><path clip-path="url(#clip280)" d="M653.098 1314.58 L653.098 1341.45 L658.746 1341.45 Q665.899 1341.45 669.209 1338.21 Q672.542 1334.97 672.542 1327.98 Q672.542 1321.04 669.209 1317.82 Q665.899 1314.58 658.746 1314.58 L653.098 1314.58 M648.422 1310.74 L658.029 1310.74 Q668.075 1310.74 672.774 1314.93 Q677.473 1319.09 677.473 1327.98 Q677.473 1336.92 672.751 1341.11 Q668.029 1345.3 658.029 1345.3 L648.422 1345.3 L648.422 1310.74 Z" fill="#000000" fill-rule="nonzero" fill-opacity="1" /><path clip-path="url(#clip280)" d="M696.524 1332.26 Q691.362 1332.26 689.371 1333.44 Q687.38 1334.63 687.38 1337.47 Q687.38 1339.74 688.862 1341.08 Q690.366 1342.4 692.936 1342.4 Q696.478 1342.4 698.607 1339.9 Q700.76 1337.38 700.76 1333.21 L700.76 1332.26 L696.524 1332.26 M705.019 1330.5 L705.019 1345.3 L700.76 1345.3 L700.76 1341.36 Q699.302 1343.72 697.126 1344.86 Q694.95 1345.97 691.802 1345.97 Q687.82 1345.97 685.459 1343.75 Q683.121 1341.5 683.121 1337.75 Q683.121 1333.38 686.038 1331.15 Q688.978 1328.93 694.788 1328.93 L700.76 1328.93 L700.76 1328.51 Q700.76 1325.57 698.815 1323.98 Q696.894 1322.36 693.399 1322.36 Q691.177 1322.36 689.07 1322.89 Q686.964 1323.42 685.019 1324.49 L685.019 1320.55 Q687.357 1319.65 689.556 1319.21 Q691.755 1318.75 693.839 1318.75 Q699.464 1318.75 702.241 1321.66 Q705.019 1324.58 705.019 1330.5 Z" fill="#000000" fill-rule="nonzero" fill-opacity="1" /><path clip-path="url(#clip280)" d="M718.005 1312.01 L718.005 1319.37 L726.778 1319.37 L726.778 1322.68 L718.005 1322.68 L718.005 1336.75 Q718.005 1339.93 718.862 1340.83 Q719.741 1341.73 722.403 1341.73 L726.778 1341.73 L726.778 1345.3 L722.403 1345.3 Q717.473 1345.3 715.598 1343.47 Q713.723 1341.62 713.723 1336.75 L713.723 1322.68 L710.598 1322.68 L710.598 1319.37 L713.723 1319.37 L713.723 1312.01 L718.005 1312.01 Z" fill="#000000" fill-rule="nonzero" fill-opacity="1" /><path clip-path="url(#clip280)" d="M744.162 1332.26 Q739 1332.26 737.01 1333.44 Q735.019 1334.63 735.019 1337.47 Q735.019 1339.74 736.5 1341.08 Q738.005 1342.4 740.575 1342.4 Q744.116 1342.4 746.246 1339.9 Q748.399 1337.38 748.399 1333.21 L748.399 1332.26 L744.162 1332.26 M752.658 1330.5 L752.658 1345.3 L748.399 1345.3 L748.399 1341.36 Q746.94 1343.72 744.764 1344.86 Q742.588 1345.97 739.44 1345.97 Q735.459 1345.97 733.098 1343.75 Q730.76 1341.5 730.76 1337.75 Q730.76 1333.38 733.676 1331.15 Q736.616 1328.93 742.426 1328.93 L748.399 1328.93 L748.399 1328.51 Q748.399 1325.57 746.454 1323.98 Q744.533 1322.36 741.037 1322.36 Q738.815 1322.36 736.709 1322.89 Q734.602 1323.42 732.658 1324.49 L732.658 1320.55 Q734.996 1319.65 737.195 1319.21 Q739.394 1318.75 741.477 1318.75 Q747.102 1318.75 749.88 1321.66 Q752.658 1324.58 752.658 1330.5 Z" fill="#000000" fill-rule="nonzero" fill-opacity="1" /></svg>
