<?xml version="1.0" encoding="utf-8"?>
<svg xmlns="http://www.w3.org/2000/svg" xmlns:xlink="http://www.w3.org/1999/xlink" width="600" height="400" viewBox="0 0 2400 1600">
<defs>
  <clipPath id="clip640">
    <rect x="0" y="0" width="2400" height="1600"/>
  </clipPath>
</defs>
<path clip-path="url(#clip640)" d="M0 1600 L2400 1600 L2400 8.88178e-14 L0 8.88178e-14  Z" fill="#ffffff" fill-rule="evenodd" fill-opacity="1"/>
<defs>
  <clipPath id="clip641">
    <rect x="480" y="0" width="1681" height="1600"/>
  </clipPath>
</defs>
<path clip-path="url(#clip640)" d="M219.866 1486.45 L2352.76 1486.45 L2352.76 123.472 L219.866 123.472  Z" fill="#ffffff" fill-rule="evenodd" fill-opacity="1"/>
<defs>
  <clipPath id="clip642">
    <rect x="219" y="123" width="2134" height="1364"/>
  </clipPath>
</defs>
<polyline clip-path="url(#clip642)" style="stroke:#000000; stroke-linecap:round; stroke-linejoin:round; stroke-width:2; stroke-opacity:0.1; fill:none" points="727.378,1486.45 727.378,123.472 "/>
<polyline clip-path="url(#clip642)" style="stroke:#000000; stroke-linecap:round; stroke-linejoin:round; stroke-width:2; stroke-opacity:0.1; fill:none" points="1845.24,1486.45 1845.24,123.472 "/>
<polyline clip-path="url(#clip640)" style="stroke:#000000; stroke-linecap:round; stroke-linejoin:round; stroke-width:4; stroke-opacity:1; fill:none" points="219.866,1486.45 2352.76,1486.45 "/>
<polyline clip-path="url(#clip640)" style="stroke:#000000; stroke-linecap:round; stroke-linejoin:round; stroke-width:4; stroke-opacity:1; fill:none" points="727.378,1486.45 727.378,1467.55 "/>
<polyline clip-path="url(#clip640)" style="stroke:#000000; stroke-linecap:round; stroke-linejoin:round; stroke-width:4; stroke-opacity:1; fill:none" points="1845.24,1486.45 1845.24,1467.55 "/>
<path clip-path="url(#clip640)" d="M673.177 1516.95 L673.177 1521.88 Q670.816 1519.68 668.13 1518.59 Q665.468 1517.51 662.459 1517.51 Q656.533 1517.51 653.385 1521.14 Q650.237 1524.75 650.237 1531.6 Q650.237 1538.43 653.385 1542.07 Q656.533 1545.68 662.459 1545.68 Q665.468 1545.68 668.13 1544.59 Q670.816 1543.5 673.177 1541.3 L673.177 1546.19 Q670.723 1547.85 667.968 1548.69 Q665.237 1549.52 662.181 1549.52 Q654.334 1549.52 649.82 1544.73 Q645.306 1539.91 645.306 1531.6 Q645.306 1523.27 649.82 1518.48 Q654.334 1513.66 662.181 1513.66 Q665.283 1513.66 668.015 1514.5 Q670.769 1515.31 673.177 1516.95 Z" fill="#000000" fill-rule="nonzero" fill-opacity="1" /><path clip-path="url(#clip640)" d="M680.214 1512.83 L684.473 1512.83 L684.473 1548.85 L680.214 1548.85 L680.214 1512.83 Z" fill="#000000" fill-rule="nonzero" fill-opacity="1" /><path clip-path="url(#clip640)" d="M705.167 1535.82 Q700.005 1535.82 698.014 1537 Q696.024 1538.18 696.024 1541.02 Q696.024 1543.29 697.505 1544.63 Q699.01 1545.95 701.579 1545.95 Q705.121 1545.95 707.251 1543.45 Q709.403 1540.93 709.403 1536.76 L709.403 1535.82 L705.167 1535.82 M713.663 1534.06 L713.663 1548.85 L709.403 1548.85 L709.403 1544.91 Q707.945 1547.27 705.769 1548.41 Q703.593 1549.52 700.445 1549.52 Q696.464 1549.52 694.102 1547.3 Q691.765 1545.05 691.765 1541.3 Q691.765 1536.93 694.681 1534.7 Q697.621 1532.48 703.431 1532.48 L709.403 1532.48 L709.403 1532.07 Q709.403 1529.13 707.459 1527.53 Q705.538 1525.91 702.042 1525.91 Q699.82 1525.91 697.714 1526.44 Q695.607 1526.97 693.663 1528.04 L693.663 1524.1 Q696.001 1523.2 698.2 1522.76 Q700.399 1522.3 702.482 1522.3 Q708.107 1522.3 710.885 1525.21 Q713.663 1528.13 713.663 1534.06 Z" fill="#000000" fill-rule="nonzero" fill-opacity="1" /><path clip-path="url(#clip640)" d="M738.963 1523.69 L738.963 1527.71 Q737.158 1526.79 735.213 1526.32 Q733.269 1525.86 731.186 1525.86 Q728.014 1525.86 726.417 1526.83 Q724.843 1527.81 724.843 1529.75 Q724.843 1531.23 725.977 1532.09 Q727.112 1532.92 730.537 1533.69 L731.996 1534.01 Q736.533 1534.98 738.431 1536.76 Q740.352 1538.52 740.352 1541.7 Q740.352 1545.31 737.482 1547.41 Q734.635 1549.52 729.635 1549.52 Q727.551 1549.52 725.283 1549.1 Q723.037 1548.71 720.538 1547.9 L720.538 1543.5 Q722.899 1544.73 725.19 1545.35 Q727.482 1545.95 729.727 1545.95 Q732.737 1545.95 734.357 1544.94 Q735.977 1543.89 735.977 1542.02 Q735.977 1540.28 734.797 1539.36 Q733.639 1538.43 729.681 1537.57 L728.199 1537.23 Q724.241 1536.39 722.482 1534.68 Q720.723 1532.95 720.723 1529.94 Q720.723 1526.28 723.315 1524.29 Q725.908 1522.3 730.676 1522.3 Q733.037 1522.3 735.121 1522.64 Q737.204 1522.99 738.963 1523.69 Z" fill="#000000" fill-rule="nonzero" fill-opacity="1" /><path clip-path="url(#clip640)" d="M763.662 1523.69 L763.662 1527.71 Q761.857 1526.79 759.912 1526.32 Q757.968 1525.86 755.885 1525.86 Q752.713 1525.86 751.116 1526.83 Q749.542 1527.81 749.542 1529.75 Q749.542 1531.23 750.676 1532.09 Q751.81 1532.92 755.236 1533.69 L756.695 1534.01 Q761.232 1534.98 763.13 1536.76 Q765.051 1538.52 765.051 1541.7 Q765.051 1545.31 762.181 1547.41 Q759.334 1549.52 754.334 1549.52 Q752.25 1549.52 749.982 1549.1 Q747.736 1548.71 745.236 1547.9 L745.236 1543.5 Q747.598 1544.73 749.889 1545.35 Q752.181 1545.95 754.426 1545.95 Q757.435 1545.95 759.056 1544.94 Q760.676 1543.89 760.676 1542.02 Q760.676 1540.28 759.496 1539.36 Q758.338 1538.43 754.38 1537.57 L752.898 1537.23 Q748.94 1536.39 747.181 1534.68 Q745.422 1532.95 745.422 1529.94 Q745.422 1526.28 748.014 1524.29 Q750.607 1522.3 755.375 1522.3 Q757.736 1522.3 759.82 1522.64 Q761.903 1522.99 763.662 1523.69 Z" fill="#000000" fill-rule="nonzero" fill-opacity="1" /><path clip-path="url(#clip640)" d="M797.505 1517.37 Q793.894 1517.37 792.065 1520.93 Q790.259 1524.47 790.259 1531.6 Q790.259 1538.71 792.065 1542.27 Q793.894 1545.82 797.505 1545.82 Q801.139 1545.82 802.944 1542.27 Q804.773 1538.71 804.773 1531.6 Q804.773 1524.47 802.944 1520.93 Q801.139 1517.37 797.505 1517.37 M797.505 1513.66 Q803.315 1513.66 806.37 1518.27 Q809.449 1522.85 809.449 1531.6 Q809.449 1540.33 806.37 1544.94 Q803.315 1549.52 797.505 1549.52 Q791.695 1549.52 788.616 1544.94 Q785.56 1540.33 785.56 1531.6 Q785.56 1522.85 788.616 1518.27 Q791.695 1513.66 797.505 1513.66 Z" fill="#000000" fill-rule="nonzero" fill-opacity="1" /><path clip-path="url(#clip640)" d="M1791.66 1516.95 L1791.66 1521.88 Q1789.3 1519.68 1786.61 1518.59 Q1783.95 1517.51 1780.94 1517.51 Q1775.01 1517.51 1771.87 1521.14 Q1768.72 1524.75 1768.72 1531.6 Q1768.72 1538.43 1771.87 1542.07 Q1775.01 1545.68 1780.94 1545.68 Q1783.95 1545.68 1786.61 1544.59 Q1789.3 1543.5 1791.66 1541.3 L1791.66 1546.19 Q1789.2 1547.85 1786.45 1548.69 Q1783.72 1549.52 1780.66 1549.52 Q1772.81 1549.52 1768.3 1544.73 Q1763.79 1539.91 1763.79 1531.6 Q1763.79 1523.27 1768.3 1518.48 Q1772.81 1513.66 1780.66 1513.66 Q1783.76 1513.66 1786.49 1514.5 Q1789.25 1515.31 1791.66 1516.95 Z" fill="#000000" fill-rule="nonzero" fill-opacity="1" /><path clip-path="url(#clip640)" d="M1798.69 1512.83 L1802.95 1512.83 L1802.95 1548.85 L1798.69 1548.85 L1798.69 1512.83 Z" fill="#000000" fill-rule="nonzero" fill-opacity="1" /><path clip-path="url(#clip640)" d="M1823.65 1535.82 Q1818.49 1535.82 1816.49 1537 Q1814.5 1538.18 1814.5 1541.02 Q1814.5 1543.29 1815.99 1544.63 Q1817.49 1545.95 1820.06 1545.95 Q1823.6 1545.95 1825.73 1543.45 Q1827.88 1540.93 1827.88 1536.76 L1827.88 1535.82 L1823.65 1535.82 M1832.14 1534.06 L1832.14 1548.85 L1827.88 1548.85 L1827.88 1544.91 Q1826.43 1547.27 1824.25 1548.41 Q1822.07 1549.52 1818.93 1549.52 Q1814.94 1549.52 1812.58 1547.3 Q1810.24 1545.05 1810.24 1541.3 Q1810.24 1536.93 1813.16 1534.7 Q1816.1 1532.48 1821.91 1532.48 L1827.88 1532.48 L1827.88 1532.07 Q1827.88 1529.13 1825.94 1527.53 Q1824.02 1525.91 1820.52 1525.91 Q1818.3 1525.91 1816.19 1526.44 Q1814.09 1526.97 1812.14 1528.04 L1812.14 1524.1 Q1814.48 1523.2 1816.68 1522.76 Q1818.88 1522.3 1820.96 1522.3 Q1826.59 1522.3 1829.36 1525.21 Q1832.14 1528.13 1832.14 1534.06 Z" fill="#000000" fill-rule="nonzero" fill-opacity="1" /><path clip-path="url(#clip640)" d="M1857.44 1523.69 L1857.44 1527.71 Q1855.64 1526.79 1853.69 1526.32 Q1851.75 1525.86 1849.67 1525.86 Q1846.49 1525.86 1844.9 1526.83 Q1843.32 1527.81 1843.32 1529.75 Q1843.32 1531.23 1844.46 1532.09 Q1845.59 1532.92 1849.02 1533.69 L1850.48 1534.01 Q1855.01 1534.98 1856.91 1536.76 Q1858.83 1538.52 1858.83 1541.7 Q1858.83 1545.31 1855.96 1547.41 Q1853.11 1549.52 1848.11 1549.52 Q1846.03 1549.52 1843.76 1549.1 Q1841.52 1548.71 1839.02 1547.9 L1839.02 1543.5 Q1841.38 1544.73 1843.67 1545.35 Q1845.96 1545.95 1848.21 1545.95 Q1851.22 1545.95 1852.84 1544.94 Q1854.46 1543.89 1854.46 1542.02 Q1854.46 1540.28 1853.28 1539.36 Q1852.12 1538.43 1848.16 1537.57 L1846.68 1537.23 Q1842.72 1536.39 1840.96 1534.68 Q1839.2 1532.95 1839.2 1529.94 Q1839.2 1526.28 1841.8 1524.29 Q1844.39 1522.3 1849.16 1522.3 Q1851.52 1522.3 1853.6 1522.64 Q1855.68 1522.99 1857.44 1523.69 Z" fill="#000000" fill-rule="nonzero" fill-opacity="1" /><path clip-path="url(#clip640)" d="M1882.14 1523.69 L1882.14 1527.71 Q1880.34 1526.79 1878.39 1526.32 Q1876.45 1525.86 1874.36 1525.86 Q1871.19 1525.86 1869.6 1526.83 Q1868.02 1527.81 1868.02 1529.75 Q1868.02 1531.23 1869.16 1532.09 Q1870.29 1532.92 1873.72 1533.69 L1875.17 1534.01 Q1879.71 1534.98 1881.61 1536.76 Q1883.53 1538.52 1883.53 1541.7 Q1883.53 1545.31 1880.66 1547.41 Q1877.81 1549.52 1872.81 1549.52 Q1870.73 1549.52 1868.46 1549.1 Q1866.22 1548.71 1863.72 1547.9 L1863.72 1543.5 Q1866.08 1544.73 1868.37 1545.35 Q1870.66 1545.95 1872.91 1545.95 Q1875.92 1545.95 1877.54 1544.94 Q1879.16 1543.89 1879.16 1542.02 Q1879.16 1540.28 1877.98 1539.36 Q1876.82 1538.43 1872.86 1537.57 L1871.38 1537.23 Q1867.42 1536.39 1865.66 1534.68 Q1863.9 1532.95 1863.9 1529.94 Q1863.9 1526.28 1866.49 1524.29 Q1869.09 1522.3 1873.86 1522.3 Q1876.22 1522.3 1878.3 1522.64 Q1880.38 1522.99 1882.14 1523.69 Z" fill="#000000" fill-rule="nonzero" fill-opacity="1" /><path clip-path="url(#clip640)" d="M1906.8 1544.91 L1914.43 1544.91 L1914.43 1518.55 L1906.12 1520.21 L1906.12 1515.95 L1914.39 1514.29 L1919.06 1514.29 L1919.06 1544.91 L1926.7 1544.91 L1926.7 1548.85 L1906.8 1548.85 L1906.8 1544.91 Z" fill="#000000" fill-rule="nonzero" fill-opacity="1" /><polyline clip-path="url(#clip642)" style="stroke:#000000; stroke-linecap:round; stroke-linejoin:round; stroke-width:2; stroke-opacity:0.1; fill:none" points="219.866,1486.45 2352.76,1486.45 "/>
<polyline clip-path="url(#clip642)" style="stroke:#000000; stroke-linecap:round; stroke-linejoin:round; stroke-width:2; stroke-opacity:0.1; fill:none" points="219.866,1213.85 2352.76,1213.85 "/>
<polyline clip-path="url(#clip642)" style="stroke:#000000; stroke-linecap:round; stroke-linejoin:round; stroke-width:2; stroke-opacity:0.1; fill:none" points="219.866,941.258 2352.76,941.258 "/>
<polyline clip-path="url(#clip642)" style="stroke:#000000; stroke-linecap:round; stroke-linejoin:round; stroke-width:2; stroke-opacity:0.1; fill:none" points="219.866,668.662 2352.76,668.662 "/>
<polyline clip-path="url(#clip642)" style="stroke:#000000; stroke-linecap:round; stroke-linejoin:round; stroke-width:2; stroke-opacity:0.1; fill:none" points="219.866,396.067 2352.76,396.067 "/>
<polyline clip-path="url(#clip642)" style="stroke:#000000; stroke-linecap:round; stroke-linejoin:round; stroke-width:2; stroke-opacity:0.1; fill:none" points="219.866,123.472 2352.76,123.472 "/>
<polyline clip-path="url(#clip640)" style="stroke:#000000; stroke-linecap:round; stroke-linejoin:round; stroke-width:4; stroke-opacity:1; fill:none" points="219.866,1486.45 219.866,123.472 "/>
<polyline clip-path="url(#clip640)" style="stroke:#000000; stroke-linecap:round; stroke-linejoin:round; stroke-width:4; stroke-opacity:1; fill:none" points="219.866,1486.45 238.764,1486.45 "/>
<polyline clip-path="url(#clip640)" style="stroke:#000000; stroke-linecap:round; stroke-linejoin:round; stroke-width:4; stroke-opacity:1; fill:none" points="219.866,1213.85 238.764,1213.85 "/>
<polyline clip-path="url(#clip640)" style="stroke:#000000; stroke-linecap:round; stroke-linejoin:round; stroke-width:4; stroke-opacity:1; fill:none" points="219.866,941.258 238.764,941.258 "/>
<polyline clip-path="url(#clip640)" style="stroke:#000000; stroke-linecap:round; stroke-linejoin:round; stroke-width:4; stroke-opacity:1; fill:none" points="219.866,668.662 238.764,668.662 "/>
<polyline clip-path="url(#clip640)" style="stroke:#000000; stroke-linecap:round; stroke-linejoin:round; stroke-width:4; stroke-opacity:1; fill:none" points="219.866,396.067 238.764,396.067 "/>
<polyline clip-path="url(#clip640)" style="stroke:#000000; stroke-linecap:round; stroke-linejoin:round; stroke-width:4; stroke-opacity:1; fill:none" points="219.866,123.472 238.764,123.472 "/>
<path clip-path="url(#clip640)" d="M126.691 1472.25 Q123.08 1472.25 121.251 1475.81 Q119.445 1479.35 119.445 1486.48 Q119.445 1493.59 121.251 1497.15 Q123.08 1500.7 126.691 1500.7 Q130.325 1500.7 132.13 1497.15 Q133.959 1493.59 133.959 1486.48 Q133.959 1479.35 132.13 1475.81 Q130.325 1472.25 126.691 1472.25 M126.691 1468.54 Q132.501 1468.54 135.556 1473.15 Q138.635 1477.73 138.635 1486.48 Q138.635 1495.21 135.556 1499.82 Q132.501 1504.4 126.691 1504.4 Q120.88 1504.4 117.802 1499.82 Q114.746 1495.21 114.746 1486.48 Q114.746 1477.73 117.802 1473.15 Q120.88 1468.54 126.691 1468.54 Z" fill="#000000" fill-rule="nonzero" fill-opacity="1" /><path clip-path="url(#clip640)" d="M146.853 1497.85 L151.737 1497.85 L151.737 1503.73 L146.853 1503.73 L146.853 1497.85 Z" fill="#000000" fill-rule="nonzero" fill-opacity="1" /><path clip-path="url(#clip640)" d="M171.922 1472.25 Q168.311 1472.25 166.482 1475.81 Q164.677 1479.35 164.677 1486.48 Q164.677 1493.59 166.482 1497.15 Q168.311 1500.7 171.922 1500.7 Q175.556 1500.7 177.362 1497.15 Q179.19 1493.59 179.19 1486.48 Q179.19 1479.35 177.362 1475.81 Q175.556 1472.25 171.922 1472.25 M171.922 1468.54 Q177.732 1468.54 180.788 1473.15 Q183.866 1477.73 183.866 1486.48 Q183.866 1495.21 180.788 1499.82 Q177.732 1504.4 171.922 1504.4 Q166.112 1504.4 163.033 1499.82 Q159.978 1495.21 159.978 1486.48 Q159.978 1477.73 163.033 1473.15 Q166.112 1468.54 171.922 1468.54 Z" fill="#000000" fill-rule="nonzero" fill-opacity="1" /><path clip-path="url(#clip640)" d="M128.288 1199.65 Q124.677 1199.65 122.848 1203.22 Q121.043 1206.76 121.043 1213.89 Q121.043 1220.99 122.848 1224.56 Q124.677 1228.1 128.288 1228.1 Q131.922 1228.1 133.728 1224.56 Q135.556 1220.99 135.556 1213.89 Q135.556 1206.76 133.728 1203.22 Q131.922 1199.65 128.288 1199.65 M128.288 1195.95 Q134.098 1195.95 137.154 1200.55 Q140.232 1205.14 140.232 1213.89 Q140.232 1222.61 137.154 1227.22 Q134.098 1231.8 128.288 1231.8 Q122.478 1231.8 119.399 1227.22 Q116.343 1222.61 116.343 1213.89 Q116.343 1205.14 119.399 1200.55 Q122.478 1195.95 128.288 1195.95 Z" fill="#000000" fill-rule="nonzero" fill-opacity="1" /><path clip-path="url(#clip640)" d="M148.45 1225.25 L153.334 1225.25 L153.334 1231.13 L148.45 1231.13 L148.45 1225.25 Z" fill="#000000" fill-rule="nonzero" fill-opacity="1" /><path clip-path="url(#clip640)" d="M167.547 1227.2 L183.866 1227.2 L183.866 1231.13 L161.922 1231.13 L161.922 1227.2 Q164.584 1224.44 169.167 1219.81 Q173.774 1215.16 174.954 1213.82 Q177.2 1211.29 178.079 1209.56 Q178.982 1207.8 178.982 1206.11 Q178.982 1203.36 177.038 1201.62 Q175.116 1199.88 172.014 1199.88 Q169.815 1199.88 167.362 1200.65 Q164.931 1201.41 162.153 1202.96 L162.153 1198.24 Q164.977 1197.11 167.431 1196.53 Q169.885 1195.95 171.922 1195.95 Q177.292 1195.95 180.487 1198.63 Q183.681 1201.32 183.681 1205.81 Q183.681 1207.94 182.871 1209.86 Q182.084 1211.76 179.977 1214.35 Q179.399 1215.02 176.297 1218.24 Q173.195 1221.43 167.547 1227.2 Z" fill="#000000" fill-rule="nonzero" fill-opacity="1" /><path clip-path="url(#clip640)" d="M126.205 927.056 Q122.593 927.056 120.765 930.621 Q118.959 934.163 118.959 941.292 Q118.959 948.399 120.765 951.964 Q122.593 955.505 126.205 955.505 Q129.839 955.505 131.644 951.964 Q133.473 948.399 133.473 941.292 Q133.473 934.163 131.644 930.621 Q129.839 927.056 126.205 927.056 M126.205 923.353 Q132.015 923.353 135.07 927.959 Q138.149 932.542 138.149 941.292 Q138.149 950.019 135.07 954.626 Q132.015 959.209 126.205 959.209 Q120.394 959.209 117.316 954.626 Q114.26 950.019 114.26 941.292 Q114.26 932.542 117.316 927.959 Q120.394 923.353 126.205 923.353 Z" fill="#000000" fill-rule="nonzero" fill-opacity="1" /><path clip-path="url(#clip640)" d="M146.366 952.658 L151.251 952.658 L151.251 958.538 L146.366 958.538 L146.366 952.658 Z" fill="#000000" fill-rule="nonzero" fill-opacity="1" /><path clip-path="url(#clip640)" d="M174.283 928.052 L162.477 946.501 L174.283 946.501 L174.283 928.052 M173.056 923.978 L178.936 923.978 L178.936 946.501 L183.866 946.501 L183.866 950.389 L178.936 950.389 L178.936 958.538 L174.283 958.538 L174.283 950.389 L158.681 950.389 L158.681 945.876 L173.056 923.978 Z" fill="#000000" fill-rule="nonzero" fill-opacity="1" /><path clip-path="url(#clip640)" d="M126.529 654.461 Q122.918 654.461 121.089 658.026 Q119.283 661.568 119.283 668.697 Q119.283 675.804 121.089 679.368 Q122.918 682.91 126.529 682.91 Q130.163 682.91 131.968 679.368 Q133.797 675.804 133.797 668.697 Q133.797 661.568 131.968 658.026 Q130.163 654.461 126.529 654.461 M126.529 650.757 Q132.339 650.757 135.394 655.364 Q138.473 659.947 138.473 668.697 Q138.473 677.424 135.394 682.03 Q132.339 686.614 126.529 686.614 Q120.718 686.614 117.64 682.03 Q114.584 677.424 114.584 668.697 Q114.584 659.947 117.64 655.364 Q120.718 650.757 126.529 650.757 Z" fill="#000000" fill-rule="nonzero" fill-opacity="1" /><path clip-path="url(#clip640)" d="M146.691 680.063 L151.575 680.063 L151.575 685.942 L146.691 685.942 L146.691 680.063 Z" fill="#000000" fill-rule="nonzero" fill-opacity="1" /><path clip-path="url(#clip640)" d="M172.339 666.799 Q169.19 666.799 167.339 668.952 Q165.51 671.105 165.51 674.855 Q165.51 678.581 167.339 680.757 Q169.19 682.91 172.339 682.91 Q175.487 682.91 177.315 680.757 Q179.167 678.581 179.167 674.855 Q179.167 671.105 177.315 668.952 Q175.487 666.799 172.339 666.799 M181.621 652.146 L181.621 656.406 Q179.862 655.572 178.056 655.132 Q176.274 654.693 174.514 654.693 Q169.885 654.693 167.431 657.818 Q165.001 660.943 164.653 667.262 Q166.019 665.248 168.079 664.183 Q170.139 663.095 172.616 663.095 Q177.825 663.095 180.834 666.267 Q183.866 669.415 183.866 674.855 Q183.866 680.179 180.718 683.396 Q177.57 686.614 172.339 686.614 Q166.343 686.614 163.172 682.03 Q160.001 677.424 160.001 668.697 Q160.001 660.503 163.89 655.642 Q167.778 650.757 174.329 650.757 Q176.089 650.757 177.871 651.105 Q179.676 651.452 181.621 652.146 Z" fill="#000000" fill-rule="nonzero" fill-opacity="1" /><path clip-path="url(#clip640)" d="M126.783 381.866 Q123.172 381.866 121.343 385.431 Q119.538 388.972 119.538 396.102 Q119.538 403.208 121.343 406.773 Q123.172 410.315 126.783 410.315 Q130.417 410.315 132.223 406.773 Q134.052 403.208 134.052 396.102 Q134.052 388.972 132.223 385.431 Q130.417 381.866 126.783 381.866 M126.783 378.162 Q132.593 378.162 135.649 382.769 Q138.728 387.352 138.728 396.102 Q138.728 404.829 135.649 409.435 Q132.593 414.019 126.783 414.019 Q120.973 414.019 117.894 409.435 Q114.839 404.829 114.839 396.102 Q114.839 387.352 117.894 382.769 Q120.973 378.162 126.783 378.162 Z" fill="#000000" fill-rule="nonzero" fill-opacity="1" /><path clip-path="url(#clip640)" d="M146.945 407.468 L151.829 407.468 L151.829 413.347 L146.945 413.347 L146.945 407.468 Z" fill="#000000" fill-rule="nonzero" fill-opacity="1" /><path clip-path="url(#clip640)" d="M172.014 396.935 Q168.681 396.935 166.76 398.718 Q164.862 400.5 164.862 403.625 Q164.862 406.75 166.76 408.532 Q168.681 410.315 172.014 410.315 Q175.348 410.315 177.269 408.532 Q179.19 406.727 179.19 403.625 Q179.19 400.5 177.269 398.718 Q175.371 396.935 172.014 396.935 M167.339 394.945 Q164.329 394.204 162.64 392.144 Q160.973 390.084 160.973 387.121 Q160.973 382.977 163.913 380.57 Q166.876 378.162 172.014 378.162 Q177.176 378.162 180.116 380.57 Q183.056 382.977 183.056 387.121 Q183.056 390.084 181.366 392.144 Q179.7 394.204 176.714 394.945 Q180.093 395.732 181.968 398.023 Q183.866 400.315 183.866 403.625 Q183.866 408.648 180.788 411.333 Q177.732 414.019 172.014 414.019 Q166.297 414.019 163.218 411.333 Q160.163 408.648 160.163 403.625 Q160.163 400.315 162.061 398.023 Q163.959 395.732 167.339 394.945 M165.626 387.56 Q165.626 390.246 167.292 391.75 Q168.982 393.255 172.014 393.255 Q175.024 393.255 176.714 391.75 Q178.426 390.246 178.426 387.56 Q178.426 384.875 176.714 383.371 Q175.024 381.866 172.014 381.866 Q168.982 381.866 167.292 383.371 Q165.626 384.875 165.626 387.56 Z" fill="#000000" fill-rule="nonzero" fill-opacity="1" /><path clip-path="url(#clip640)" d="M117.501 136.817 L125.14 136.817 L125.14 110.451 L116.83 112.118 L116.83 107.859 L125.093 106.192 L129.769 106.192 L129.769 136.817 L137.408 136.817 L137.408 140.752 L117.501 140.752 L117.501 136.817 Z" fill="#000000" fill-rule="nonzero" fill-opacity="1" /><path clip-path="url(#clip640)" d="M146.853 134.873 L151.737 134.873 L151.737 140.752 L146.853 140.752 L146.853 134.873 Z" fill="#000000" fill-rule="nonzero" fill-opacity="1" /><path clip-path="url(#clip640)" d="M171.922 109.271 Q168.311 109.271 166.482 112.836 Q164.677 116.377 164.677 123.507 Q164.677 130.613 166.482 134.178 Q168.311 137.72 171.922 137.72 Q175.556 137.72 177.362 134.178 Q179.19 130.613 179.19 123.507 Q179.19 116.377 177.362 112.836 Q175.556 109.271 171.922 109.271 M171.922 105.567 Q177.732 105.567 180.788 110.174 Q183.866 114.757 183.866 123.507 Q183.866 132.234 180.788 136.84 Q177.732 141.423 171.922 141.423 Q166.112 141.423 163.033 136.84 Q159.978 132.234 159.978 123.507 Q159.978 114.757 163.033 110.174 Q166.112 105.567 171.922 105.567 Z" fill="#000000" fill-rule="nonzero" fill-opacity="1" /><path clip-path="url(#clip640)" d="M29.4065 883.417 L34.9447 883.417 Q33.6716 885.9 33.035 888.574 Q32.3984 891.247 32.3984 894.112 Q32.3984 898.472 33.7352 900.668 Q35.072 902.833 37.7456 902.833 Q39.7826 902.833 40.9603 901.273 Q42.1061 899.714 43.1565 895.003 L43.6021 892.998 Q44.9389 886.759 47.3897 884.149 Q49.8086 881.508 54.1691 881.508 Q59.1344 881.508 62.0308 885.454 Q64.9272 889.369 64.9272 896.244 Q64.9272 899.109 64.3543 902.228 Q63.8132 905.315 62.6992 908.753 L56.6518 908.753 Q58.3387 905.506 59.198 902.355 Q60.0256 899.204 60.0256 896.117 Q60.0256 891.979 58.6251 889.751 Q57.1929 887.523 54.6147 887.523 Q52.2276 887.523 50.9545 889.146 Q49.6813 890.738 48.5037 896.181 L48.0262 898.218 Q46.8804 903.66 44.5251 906.079 Q42.138 908.498 38.0002 908.498 Q32.9713 908.498 30.2341 904.933 Q27.4968 901.369 27.4968 894.812 Q27.4968 891.565 27.9743 888.701 Q28.4517 885.836 29.4065 883.417 Z" fill="#000000" fill-rule="nonzero" fill-opacity="1" /><path clip-path="url(#clip640)" d="M16.4842 871.927 L16.4842 862.347 L48.8219 850.22 L16.4842 838.03 L16.4842 828.449 L64.0042 828.449 L64.0042 834.72 L22.277 834.72 L54.8694 846.974 L54.8694 853.435 L22.277 865.689 L64.0042 865.689 L64.0042 871.927 L16.4842 871.927 Z" fill="#000000" fill-rule="nonzero" fill-opacity="1" /><path clip-path="url(#clip640)" d="M22.818 799.804 L46.4666 808.525 L46.4666 791.051 L22.818 799.804 M16.4842 803.432 L16.4842 796.143 L64.0042 778.033 L64.0042 784.717 L51.8138 789.046 L51.8138 810.466 L64.0042 814.795 L64.0042 821.574 L16.4842 803.432 Z" fill="#000000" fill-rule="nonzero" fill-opacity="1" /><path clip-path="url(#clip640)" d="M21.7677 764.665 L39.6235 764.665 L39.6235 756.581 Q39.6235 752.093 37.3 749.642 Q34.9765 747.191 30.6797 747.191 Q26.4147 747.191 24.0912 749.642 Q21.7677 752.093 21.7677 756.581 L21.7677 764.665 M16.4842 771.094 L16.4842 756.581 Q16.4842 748.592 20.1126 744.518 Q23.7092 740.412 30.6797 740.412 Q37.7138 740.412 41.3104 744.518 Q44.907 748.592 44.907 756.581 L44.907 764.665 L64.0042 764.665 L64.0042 771.094 L16.4842 771.094 Z" fill="#000000" fill-rule="nonzero" fill-opacity="1" /><path clip-path="url(#clip640)" d="M16.4842 731.786 L16.4842 701.74 L21.895 701.74 L21.895 725.357 L35.9632 725.357 L35.9632 702.727 L41.3741 702.727 L41.3741 725.357 L58.5933 725.357 L58.5933 701.167 L64.0042 701.167 L64.0042 731.786 L16.4842 731.786 Z" fill="#000000" fill-rule="nonzero" fill-opacity="1" /><path clip-path="url(#clip640)" d="M377.855 12.096 L409.979 12.096 L409.979 18.9825 L385.349 18.9825 L385.349 33.8088 Q387.132 33.2012 388.914 32.9176 Q390.697 32.5936 392.479 32.5936 Q402.606 32.5936 408.521 38.1433 Q414.435 43.6931 414.435 53.1722 Q414.435 62.9348 408.359 68.3631 Q402.282 73.7508 391.223 73.7508 Q387.415 73.7508 383.446 73.1026 Q379.516 72.4545 375.303 71.1582 L375.303 62.9348 Q378.949 64.9198 382.838 65.892 Q386.727 66.8642 391.061 66.8642 Q398.069 66.8642 402.161 63.1779 Q406.252 59.4916 406.252 53.1722 Q406.252 46.8528 402.161 43.1664 Q398.069 39.4801 391.061 39.4801 Q387.78 39.4801 384.499 40.2093 Q381.258 40.9384 377.855 42.4778 L377.855 12.096 Z" fill="#000000" fill-rule="nonzero" fill-opacity="1" /><path clip-path="url(#clip640)" d="M448.057 17.4837 Q441.738 17.4837 438.538 23.7221 Q435.378 29.92 435.378 42.3968 Q435.378 54.833 438.538 61.0714 Q441.738 67.2693 448.057 67.2693 Q454.417 67.2693 457.577 61.0714 Q460.777 54.833 460.777 42.3968 Q460.777 29.92 457.577 23.7221 Q454.417 17.4837 448.057 17.4837 M448.057 11.0023 Q458.225 11.0023 463.572 19.0636 Q468.96 27.0843 468.96 42.3968 Q468.96 57.6687 463.572 65.73 Q458.225 73.7508 448.057 73.7508 Q437.89 73.7508 432.502 65.73 Q427.155 57.6687 427.155 42.3968 Q427.155 27.0843 432.502 19.0636 Q437.89 11.0023 448.057 11.0023 Z" fill="#000000" fill-rule="nonzero" fill-opacity="1" /><path clip-path="url(#clip640)" d="M500.598 12.096 L551.761 12.096 L551.761 18.9825 L530.291 18.9825 L530.291 72.576 L522.067 72.576 L522.067 18.9825 L500.598 18.9825 L500.598 12.096 Z" fill="#000000" fill-rule="nonzero" fill-opacity="1" /><path clip-path="url(#clip640)" d="M556.784 27.2059 L564.237 27.2059 L564.237 72.576 L556.784 72.576 L556.784 27.2059 M556.784 9.54393 L564.237 9.54393 L564.237 18.9825 L556.784 18.9825 L556.784 9.54393 Z" fill="#000000" fill-rule="nonzero" fill-opacity="1" /><path clip-path="url(#clip640)" d="M615.157 35.9153 Q617.952 30.8922 621.841 28.5022 Q625.73 26.1121 630.996 26.1121 Q638.085 26.1121 641.934 31.0947 Q645.782 36.0368 645.782 45.1919 L645.782 72.576 L638.288 72.576 L638.288 45.4349 Q638.288 38.913 635.979 35.7533 Q633.67 32.5936 628.93 32.5936 Q623.138 32.5936 619.775 36.4419 Q616.413 40.2903 616.413 46.9338 L616.413 72.576 L608.919 72.576 L608.919 45.4349 Q608.919 38.8725 606.61 35.7533 Q604.301 32.5936 599.48 32.5936 Q593.769 32.5936 590.406 36.4824 Q587.044 40.3308 587.044 46.9338 L587.044 72.576 L579.55 72.576 L579.55 27.2059 L587.044 27.2059 L587.044 34.2544 Q589.596 30.082 593.161 28.0971 Q596.726 26.1121 601.627 26.1121 Q606.569 26.1121 610.013 28.6237 Q613.496 31.1352 615.157 35.9153 Z" fill="#000000" fill-rule="nonzero" fill-opacity="1" /><path clip-path="url(#clip640)" d="M699.457 48.0275 L699.457 51.6733 L665.186 51.6733 Q665.672 59.3701 669.804 63.421 Q673.976 67.4314 681.39 67.4314 Q685.684 67.4314 689.694 66.3781 Q693.745 65.3249 697.715 63.2184 L697.715 70.267 Q693.704 71.9684 689.491 72.8596 Q685.278 73.7508 680.944 73.7508 Q670.088 73.7508 663.728 67.4314 Q657.408 61.1119 657.408 50.3365 Q657.408 39.1965 663.404 32.6746 Q669.439 26.1121 679.648 26.1121 Q688.803 26.1121 694.109 32.0264 Q699.457 37.9003 699.457 48.0275 M692.003 45.84 Q691.922 39.7232 688.56 36.0774 Q685.238 32.4315 679.729 32.4315 Q673.49 32.4315 669.723 35.9558 Q665.996 39.4801 665.429 45.8805 L692.003 45.84 Z" fill="#000000" fill-rule="nonzero" fill-opacity="1" /><path clip-path="url(#clip640)" d="M707.923 46.5287 L729.757 46.5287 L729.757 53.1722 L707.923 53.1722 L707.923 46.5287 Z" fill="#000000" fill-rule="nonzero" fill-opacity="1" /><path clip-path="url(#clip640)" d="M750.133 18.8205 L750.133 41.5461 L760.423 41.5461 Q766.134 41.5461 769.254 38.5889 Q772.373 35.6318 772.373 30.163 Q772.373 24.7348 769.254 21.7777 Q766.134 18.8205 760.423 18.8205 L750.133 18.8205 M741.951 12.096 L760.423 12.096 Q770.59 12.096 775.776 16.714 Q781.001 21.2916 781.001 30.163 Q781.001 39.1155 775.776 43.6931 Q770.59 48.2706 760.423 48.2706 L750.133 48.2706 L750.133 72.576 L741.951 72.576 L741.951 12.096 Z" fill="#000000" fill-rule="nonzero" fill-opacity="1" /><path clip-path="url(#clip640)" d="M806.279 32.4315 Q800.284 32.4315 796.8 37.1306 Q793.316 41.7891 793.316 49.9314 Q793.316 58.0738 796.759 62.7728 Q800.243 67.4314 806.279 67.4314 Q812.234 67.4314 815.718 62.7323 Q819.201 58.0333 819.201 49.9314 Q819.201 41.8701 815.718 37.1711 Q812.234 32.4315 806.279 32.4315 M806.279 26.1121 Q816.001 26.1121 821.551 32.4315 Q827.101 38.7509 827.101 49.9314 Q827.101 61.0714 821.551 67.4314 Q816.001 73.7508 806.279 73.7508 Q796.516 73.7508 790.967 67.4314 Q785.457 61.0714 785.457 49.9314 Q785.457 38.7509 790.967 32.4315 Q796.516 26.1121 806.279 26.1121 Z" fill="#000000" fill-rule="nonzero" fill-opacity="1" /><path clip-path="url(#clip640)" d="M839.456 27.2059 L846.91 27.2059 L846.91 72.576 L839.456 72.576 L839.456 27.2059 M839.456 9.54393 L846.91 9.54393 L846.91 18.9825 L839.456 18.9825 L839.456 9.54393 Z" fill="#000000" fill-rule="nonzero" fill-opacity="1" /><path clip-path="url(#clip640)" d="M900.219 45.1919 L900.219 72.576 L892.766 72.576 L892.766 45.4349 Q892.766 38.994 890.254 35.7938 Q887.743 32.5936 882.719 32.5936 Q876.684 32.5936 873.2 36.4419 Q869.716 40.2903 869.716 46.9338 L869.716 72.576 L862.222 72.576 L862.222 27.2059 L869.716 27.2059 L869.716 34.2544 Q872.39 30.163 875.995 28.1376 Q879.641 26.1121 884.38 26.1121 Q892.199 26.1121 896.209 30.9732 Q900.219 35.7938 900.219 45.1919 Z" fill="#000000" fill-rule="nonzero" fill-opacity="1" /><path clip-path="url(#clip640)" d="M922.459 14.324 L922.459 27.2059 L937.812 27.2059 L937.812 32.9987 L922.459 32.9987 L922.459 57.6282 Q922.459 63.1779 923.958 64.7578 Q925.497 66.3376 930.156 66.3376 L937.812 66.3376 L937.812 72.576 L930.156 72.576 Q921.527 72.576 918.246 69.3758 Q914.965 66.1351 914.965 57.6282 L914.965 32.9987 L909.496 32.9987 L909.496 27.2059 L914.965 27.2059 L914.965 14.324 L922.459 14.324 Z" fill="#000000" fill-rule="nonzero" fill-opacity="1" /><path clip-path="url(#clip640)" d="M1019.6 16.7545 L1019.6 25.383 Q1015.47 21.5346 1010.77 19.6307 Q1006.11 17.7268 1000.84 17.7268 Q990.474 17.7268 984.964 24.0867 Q979.455 30.4061 979.455 42.3968 Q979.455 54.3469 984.964 60.7069 Q990.474 67.0263 1000.84 67.0263 Q1006.11 67.0263 1010.77 65.1223 Q1015.47 63.2184 1019.6 59.3701 L1019.6 67.9175 Q1015.31 70.8341 1010.49 72.2924 Q1005.7 73.7508 1000.36 73.7508 Q986.625 73.7508 978.726 65.3654 Q970.827 56.9395 970.827 42.3968 Q970.827 27.8135 978.726 19.4281 Q986.625 11.0023 1000.36 11.0023 Q1005.79 11.0023 1010.57 12.4606 Q1015.39 13.8784 1019.6 16.7545 Z" fill="#000000" fill-rule="nonzero" fill-opacity="1" /><path clip-path="url(#clip640)" d="M1049.5 32.4315 Q1043.5 32.4315 1040.02 37.1306 Q1036.53 41.7891 1036.53 49.9314 Q1036.53 58.0738 1039.98 62.7728 Q1043.46 67.4314 1049.5 67.4314 Q1055.45 67.4314 1058.93 62.7323 Q1062.42 58.0333 1062.42 49.9314 Q1062.42 41.8701 1058.93 37.1711 Q1055.45 32.4315 1049.5 32.4315 M1049.5 26.1121 Q1059.22 26.1121 1064.77 32.4315 Q1070.32 38.7509 1070.32 49.9314 Q1070.32 61.0714 1064.77 67.4314 Q1059.22 73.7508 1049.5 73.7508 Q1039.73 73.7508 1034.18 67.4314 Q1028.67 61.0714 1028.67 49.9314 Q1028.67 38.7509 1034.18 32.4315 Q1039.73 26.1121 1049.5 26.1121 Z" fill="#000000" fill-rule="nonzero" fill-opacity="1" /><path clip-path="url(#clip640)" d="M1120.39 45.1919 L1120.39 72.576 L1112.93 72.576 L1112.93 45.4349 Q1112.93 38.994 1110.42 35.7938 Q1107.91 32.5936 1102.89 32.5936 Q1096.85 32.5936 1093.37 36.4419 Q1089.88 40.2903 1089.88 46.9338 L1089.88 72.576 L1082.39 72.576 L1082.39 27.2059 L1089.88 27.2059 L1089.88 34.2544 Q1092.56 30.163 1096.16 28.1376 Q1099.81 26.1121 1104.55 26.1121 Q1112.37 26.1121 1116.38 30.9732 Q1120.39 35.7938 1120.39 45.1919 Z" fill="#000000" fill-rule="nonzero" fill-opacity="1" /><path clip-path="url(#clip640)" d="M1165.11 34.0924 L1165.11 9.54393 L1172.56 9.54393 L1172.56 72.576 L1165.11 72.576 L1165.11 65.7705 Q1162.76 69.8214 1159.15 71.8063 Q1155.59 73.7508 1150.57 73.7508 Q1142.34 73.7508 1137.16 67.1883 Q1132.01 60.6258 1132.01 49.9314 Q1132.01 39.2371 1137.16 32.6746 Q1142.34 26.1121 1150.57 26.1121 Q1155.59 26.1121 1159.15 28.0971 Q1162.76 30.0415 1165.11 34.0924 M1139.71 49.9314 Q1139.71 58.1548 1143.07 62.8538 Q1146.47 67.5124 1152.39 67.5124 Q1158.3 67.5124 1161.71 62.8538 Q1165.11 58.1548 1165.11 49.9314 Q1165.11 41.7081 1161.71 37.0496 Q1158.3 32.3505 1152.39 32.3505 Q1146.47 32.3505 1143.07 37.0496 Q1139.71 41.7081 1139.71 49.9314 Z" fill="#000000" fill-rule="nonzero" fill-opacity="1" /><path clip-path="url(#clip640)" d="M1187.91 27.2059 L1195.37 27.2059 L1195.37 72.576 L1187.91 72.576 L1187.91 27.2059 M1187.91 9.54393 L1195.37 9.54393 L1195.37 18.9825 L1187.91 18.9825 L1187.91 9.54393 Z" fill="#000000" fill-rule="nonzero" fill-opacity="1" /><path clip-path="url(#clip640)" d="M1218.34 14.324 L1218.34 27.2059 L1233.69 27.2059 L1233.69 32.9987 L1218.34 32.9987 L1218.34 57.6282 Q1218.34 63.1779 1219.84 64.7578 Q1221.38 66.3376 1226.03 66.3376 L1233.69 66.3376 L1233.69 72.576 L1226.03 72.576 Q1217.41 72.576 1214.12 69.3758 Q1210.84 66.1351 1210.84 57.6282 L1210.84 32.9987 L1205.37 32.9987 L1205.37 27.2059 L1210.84 27.2059 L1210.84 14.324 L1218.34 14.324 Z" fill="#000000" fill-rule="nonzero" fill-opacity="1" /><path clip-path="url(#clip640)" d="M1243.49 27.2059 L1250.95 27.2059 L1250.95 72.576 L1243.49 72.576 L1243.49 27.2059 M1243.49 9.54393 L1250.95 9.54393 L1250.95 18.9825 L1243.49 18.9825 L1243.49 9.54393 Z" fill="#000000" fill-rule="nonzero" fill-opacity="1" /><path clip-path="url(#clip640)" d="M1284.12 32.4315 Q1278.13 32.4315 1274.64 37.1306 Q1271.16 41.7891 1271.16 49.9314 Q1271.16 58.0738 1274.6 62.7728 Q1278.09 67.4314 1284.12 67.4314 Q1290.08 67.4314 1293.56 62.7323 Q1297.05 58.0333 1297.05 49.9314 Q1297.05 41.8701 1293.56 37.1711 Q1290.08 32.4315 1284.12 32.4315 M1284.12 26.1121 Q1293.85 26.1121 1299.4 32.4315 Q1304.95 38.7509 1304.95 49.9314 Q1304.95 61.0714 1299.4 67.4314 Q1293.85 73.7508 1284.12 73.7508 Q1274.36 73.7508 1268.81 67.4314 Q1263.3 61.0714 1263.3 49.9314 Q1263.3 38.7509 1268.81 32.4315 Q1274.36 26.1121 1284.12 26.1121 Z" fill="#000000" fill-rule="nonzero" fill-opacity="1" /><path clip-path="url(#clip640)" d="M1355.01 45.1919 L1355.01 72.576 L1347.56 72.576 L1347.56 45.4349 Q1347.56 38.994 1345.05 35.7938 Q1342.54 32.5936 1337.51 32.5936 Q1331.48 32.5936 1327.99 36.4419 Q1324.51 40.2903 1324.51 46.9338 L1324.51 72.576 L1317.02 72.576 L1317.02 27.2059 L1324.51 27.2059 L1324.51 34.2544 Q1327.18 30.163 1330.79 28.1376 Q1334.44 26.1121 1339.18 26.1121 Q1346.99 26.1121 1351 30.9732 Q1355.01 35.7938 1355.01 45.1919 Z" fill="#000000" fill-rule="nonzero" fill-opacity="1" /><path clip-path="url(#clip640)" d="M1369.88 27.2059 L1377.33 27.2059 L1377.33 72.576 L1369.88 72.576 L1369.88 27.2059 M1369.88 9.54393 L1377.33 9.54393 L1377.33 18.9825 L1369.88 18.9825 L1369.88 9.54393 Z" fill="#000000" fill-rule="nonzero" fill-opacity="1" /><path clip-path="url(#clip640)" d="M1430.64 45.1919 L1430.64 72.576 L1423.19 72.576 L1423.19 45.4349 Q1423.19 38.994 1420.68 35.7938 Q1418.17 32.5936 1413.14 32.5936 Q1407.11 32.5936 1403.63 36.4419 Q1400.14 40.2903 1400.14 46.9338 L1400.14 72.576 L1392.65 72.576 L1392.65 27.2059 L1400.14 27.2059 L1400.14 34.2544 Q1402.82 30.163 1406.42 28.1376 Q1410.07 26.1121 1414.81 26.1121 Q1422.62 26.1121 1426.63 30.9732 Q1430.64 35.7938 1430.64 45.1919 Z" fill="#000000" fill-rule="nonzero" fill-opacity="1" /><path clip-path="url(#clip640)" d="M1475.37 49.3643 Q1475.37 41.2625 1472 36.8065 Q1468.68 32.3505 1462.65 32.3505 Q1456.65 32.3505 1453.29 36.8065 Q1449.97 41.2625 1449.97 49.3643 Q1449.97 57.4256 1453.29 61.8816 Q1456.65 66.3376 1462.65 66.3376 Q1468.68 66.3376 1472 61.8816 Q1475.37 57.4256 1475.37 49.3643 M1482.82 66.9452 Q1482.82 78.5308 1477.68 84.1616 Q1472.53 89.8329 1461.92 89.8329 Q1457.99 89.8329 1454.5 89.2252 Q1451.02 88.6581 1447.74 87.4428 L1447.74 80.1917 Q1451.02 81.9741 1454.22 82.8248 Q1457.42 83.6755 1460.74 83.6755 Q1468.08 83.6755 1471.72 79.8271 Q1475.37 76.0193 1475.37 68.282 L1475.37 64.5957 Q1473.06 68.6061 1469.45 70.5911 Q1465.85 72.576 1460.82 72.576 Q1452.48 72.576 1447.38 66.2161 Q1442.27 59.8562 1442.27 49.3643 Q1442.27 38.832 1447.38 32.472 Q1452.48 26.1121 1460.82 26.1121 Q1465.85 26.1121 1469.45 28.0971 Q1473.06 30.082 1475.37 34.0924 L1475.37 27.2059 L1482.82 27.2059 L1482.82 66.9452 Z" fill="#000000" fill-rule="nonzero" fill-opacity="1" /><path clip-path="url(#clip640)" d="M1500.08 62.2867 L1508.62 62.2867 L1508.62 69.2543 L1501.98 82.2172 L1496.76 82.2172 L1500.08 69.2543 L1500.08 62.2867 Z" fill="#000000" fill-rule="nonzero" fill-opacity="1" /><path clip-path="url(#clip640)" d="M1551.24 12.096 L1589.48 12.096 L1589.48 18.9825 L1559.42 18.9825 L1559.42 36.8875 L1588.22 36.8875 L1588.22 43.7741 L1559.42 43.7741 L1559.42 65.6895 L1590.21 65.6895 L1590.21 72.576 L1551.24 72.576 L1551.24 12.096 Z" fill="#000000" fill-rule="nonzero" fill-opacity="1" /><path clip-path="url(#clip640)" d="M1648.95 16.7545 L1648.95 25.383 Q1644.82 21.5346 1640.12 19.6307 Q1635.46 17.7268 1630.19 17.7268 Q1619.82 17.7268 1614.31 24.0867 Q1608.8 30.4061 1608.8 42.3968 Q1608.8 54.3469 1614.31 60.7069 Q1619.82 67.0263 1630.19 67.0263 Q1635.46 67.0263 1640.12 65.1223 Q1644.82 63.2184 1648.95 59.3701 L1648.95 67.9175 Q1644.65 70.8341 1639.83 72.2924 Q1635.05 73.7508 1629.71 73.7508 Q1615.97 73.7508 1608.07 65.3654 Q1600.18 56.9395 1600.18 42.3968 Q1600.18 27.8135 1608.07 19.4281 Q1615.97 11.0023 1629.71 11.0023 Q1635.13 11.0023 1639.91 12.4606 Q1644.74 13.8784 1648.95 16.7545 Z" fill="#000000" fill-rule="nonzero" fill-opacity="1" /><path clip-path="url(#clip640)" d="M1702.83 63.9476 L1702.83 47.7034 L1689.46 47.7034 L1689.46 40.9789 L1710.93 40.9789 L1710.93 66.9452 Q1706.19 70.3075 1700.48 72.0494 Q1694.76 73.7508 1688.28 73.7508 Q1674.1 73.7508 1666.08 65.4869 Q1658.1 57.1826 1658.1 42.3968 Q1658.1 27.5705 1666.08 19.3066 Q1674.1 11.0023 1688.28 11.0023 Q1694.2 11.0023 1699.5 12.4606 Q1704.85 13.9189 1709.35 16.7545 L1709.35 25.464 Q1704.81 21.6156 1699.71 19.6712 Q1694.6 17.7268 1688.97 17.7268 Q1677.87 17.7268 1672.28 23.9246 Q1666.73 30.1225 1666.73 42.3968 Q1666.73 54.6305 1672.28 60.8284 Q1677.87 67.0263 1688.97 67.0263 Q1693.31 67.0263 1696.71 66.2971 Q1700.11 65.5274 1702.83 63.9476 Z" fill="#000000" fill-rule="nonzero" fill-opacity="1" /><path clip-path="url(#clip640)" d="M1733.65 65.6895 L1762.21 65.6895 L1762.21 72.576 L1723.81 72.576 L1723.81 65.6895 Q1728.47 60.8689 1736.49 52.7671 Q1744.55 44.6248 1746.62 42.2752 Q1750.54 37.8598 1752.08 34.8216 Q1753.66 31.7429 1753.66 28.7857 Q1753.66 23.9651 1750.26 20.927 Q1746.9 17.8888 1741.47 17.8888 Q1737.62 17.8888 1733.33 19.2256 Q1729.07 20.5624 1724.21 23.2765 L1724.21 15.0127 Q1729.16 13.0277 1733.45 12.015 Q1737.74 11.0023 1741.31 11.0023 Q1750.71 11.0023 1756.3 15.7013 Q1761.89 20.4004 1761.89 28.2591 Q1761.89 31.9859 1760.47 35.3482 Q1759.09 38.6699 1755.41 43.2069 Q1754.39 44.3817 1748.96 50.0125 Q1743.54 55.6027 1733.65 65.6895 Z" fill="#000000" fill-rule="nonzero" fill-opacity="1" /><path clip-path="url(#clip640)" d="M1796.89 17.4837 Q1790.57 17.4837 1787.37 23.7221 Q1784.21 29.92 1784.21 42.3968 Q1784.21 54.833 1787.37 61.0714 Q1790.57 67.2693 1796.89 67.2693 Q1803.25 67.2693 1806.41 61.0714 Q1809.61 54.833 1809.61 42.3968 Q1809.61 29.92 1806.41 23.7221 Q1803.25 17.4837 1796.89 17.4837 M1796.89 11.0023 Q1807.05 11.0023 1812.4 19.0636 Q1817.79 27.0843 1817.79 42.3968 Q1817.79 57.6687 1812.4 65.73 Q1807.05 73.7508 1796.89 73.7508 Q1786.72 73.7508 1781.33 65.73 Q1775.98 57.6687 1775.98 42.3968 Q1775.98 27.0843 1781.33 19.0636 Q1786.72 11.0023 1796.89 11.0023 Z" fill="#000000" fill-rule="nonzero" fill-opacity="1" /><path clip-path="url(#clip640)" d="M1849.67 17.4837 Q1843.35 17.4837 1840.15 23.7221 Q1836.99 29.92 1836.99 42.3968 Q1836.99 54.833 1840.15 61.0714 Q1843.35 67.2693 1849.67 67.2693 Q1856.03 67.2693 1859.19 61.0714 Q1862.39 54.833 1862.39 42.3968 Q1862.39 29.92 1859.19 23.7221 Q1856.03 17.4837 1849.67 17.4837 M1849.67 11.0023 Q1859.84 11.0023 1865.19 19.0636 Q1870.57 27.0843 1870.57 42.3968 Q1870.57 57.6687 1865.19 65.73 Q1859.84 73.7508 1849.67 73.7508 Q1839.5 73.7508 1834.11 65.73 Q1828.77 57.6687 1828.77 42.3968 Q1828.77 27.0843 1834.11 19.0636 Q1839.5 11.0023 1849.67 11.0023 Z" fill="#000000" fill-rule="nonzero" fill-opacity="1" /><path clip-path="url(#clip640)" d="M1885.8 62.2867 L1894.35 62.2867 L1894.35 69.2543 L1887.71 82.2172 L1882.48 82.2172 L1885.8 69.2543 L1885.8 62.2867 Z" fill="#000000" fill-rule="nonzero" fill-opacity="1" /><path clip-path="url(#clip640)" d="M1958.48 82.7033 L1952.44 67.1883 L1940.01 89.8734 L1931.22 89.8734 L1948.8 57.7902 L1941.42 38.7104 Q1939.44 33.6063 1933.2 33.6063 L1931.22 33.6063 L1931.22 27.2059 L1934.05 27.2869 Q1944.5 27.5705 1947.14 34.3355 L1953.13 49.8504 L1965.57 27.1654 L1974.36 27.1654 L1956.78 59.2485 L1964.15 78.3283 Q1966.13 83.4324 1972.37 83.4324 L1974.36 83.4324 L1974.36 89.8329 L1971.52 89.7518 Q1961.07 89.4683 1958.48 82.7033 Z" fill="#000000" fill-rule="nonzero" fill-opacity="1" /><path clip-path="url(#clip640)" d="M2011.91 34.9026 L2063.84 34.9026 L2063.84 41.7081 L2011.91 41.7081 L2011.91 34.9026 M2011.91 51.4303 L2063.84 51.4303 L2063.84 58.3168 L2011.91 58.3168 L2011.91 51.4303 Z" fill="#000000" fill-rule="nonzero" fill-opacity="1" /><path clip-path="url(#clip640)" d="M2109.29 65.6895 L2122.66 65.6895 L2122.66 19.5497 L2108.12 22.4663 L2108.12 15.0127 L2122.58 12.096 L2130.76 12.096 L2130.76 65.6895 L2144.13 65.6895 L2144.13 72.576 L2109.29 72.576 L2109.29 65.6895 Z" fill="#000000" fill-rule="nonzero" fill-opacity="1" /><path clip-path="url(#clip640)" d="M2160.74 12.096 L2192.86 12.096 L2192.86 18.9825 L2168.23 18.9825 L2168.23 33.8088 Q2170.02 33.2012 2171.8 32.9176 Q2173.58 32.5936 2175.36 32.5936 Q2185.49 32.5936 2191.4 38.1433 Q2197.32 43.6931 2197.32 53.1722 Q2197.32 62.9348 2191.24 68.3631 Q2185.17 73.7508 2174.11 73.7508 Q2170.3 73.7508 2166.33 73.1026 Q2162.4 72.4545 2158.19 71.1582 L2158.19 62.9348 Q2161.83 64.9198 2165.72 65.892 Q2169.61 66.8642 2173.95 66.8642 Q2180.95 66.8642 2185.04 63.1779 Q2189.14 59.4916 2189.14 53.1722 Q2189.14 46.8528 2185.04 43.1664 Q2180.95 39.4801 2173.95 39.4801 Q2170.66 39.4801 2167.38 40.2093 Q2164.14 40.9384 2160.74 42.4778 L2160.74 12.096 Z" fill="#000000" fill-rule="nonzero" fill-opacity="1" /><path clip-path="url(#clip642)" d="M917.958 1337.93 L932.489 1327.67 L947.199 1317.41 L962.003 1307.15 L976.812 1296.89 L991.54 1286.63 L1006.1 1276.37 L1020.42 1266.11 L1034.4 1255.85 L1047.99 1245.59 L1061.12 1235.33 L1073.72 1225.07 L1085.73 1214.81 L1097.1 1204.54 L1107.8 1194.28 L1117.78 1184.02 L1127 1173.76 L1135.43 1163.5 L1143.06 1153.24 L1149.86 1142.98 L1155.82 1132.72 L1160.94 1122.46 L1165.22 1112.2 L1168.65 1101.94 L1171.27 1091.68 L1173.1 1081.42 L1174.17 1071.16 L1174.52 1060.9 L1174.21 1050.63 L1173.3 1040.37 L1171.85 1030.11 L1169.93 1019.85 L1167.62 1009.59 L1165.01 999.331 L1162.16 989.07 L1159.15 978.809 L1156.06 968.549 L1152.96 958.288 L1149.89 948.027 L1146.92 937.767 L1144.06 927.506 L1141.36 917.245 L1138.81 906.985 L1136.41 896.724 L1134.16 886.463 L1132.02 876.203 L1129.95 865.942 L1127.91 855.681 L1125.85 845.42 L1123.71 835.16 L1121.42 824.899 L1118.94 814.638 L1116.21 804.378 L1113.18 794.117 L1109.8 783.856 L1106.05 773.596 L1101.9 763.335 L1097.34 753.074 L1092.36 742.814 L1086.99 732.553 L1081.24 722.292 L1075.13 712.031 L1068.72 701.771 L1062.03 691.51 L1055.12 681.249 L1048.03 670.989 L1040.83 660.728 L1033.54 650.467 L1026.23 640.207 L1018.92 629.946 L1011.64 619.685 L1004.43 609.425 L997.302 599.164 L990.257 588.903 L983.3 578.642 L976.425 568.382 L969.62 558.121 L962.866 547.86 L956.144 537.6 L949.432 527.339 L942.709 517.078 L935.954 506.818 L929.152 496.557 L922.29 486.296 L915.364 476.036 L908.372 465.775 L901.322 455.514 L894.229 445.253 L887.11 434.993 L879.991 424.732 L872.902 414.471 L865.873 404.211 L858.938 393.95 L852.13 383.689 L845.481 373.429 L839.018 363.168 L832.767 352.907 L826.747 342.647 L820.973 332.386 L815.453 322.125 L810.189 311.864 L805.181 301.604 L800.42 291.343 L795.896 281.082 L791.597 270.822 L787.505 260.561 L667.25 260.561 L663.159 270.822 L658.859 281.082 L654.336 291.343 L649.575 301.604 L644.566 311.864 L639.303 322.125 L633.782 332.386 L628.008 342.647 L621.988 352.907 L615.737 363.168 L609.275 373.429 L602.625 383.689 L595.817 393.95 L588.882 404.211 L581.854 414.471 L574.764 424.732 L567.645 434.993 L560.527 445.253 L553.433 455.514 L546.384 465.775 L539.392 476.036 L532.465 486.296 L525.604 496.557 L518.801 506.818 L512.047 517.078 L505.323 527.339 L498.612 537.6 L491.89 547.86 L485.136 558.121 L478.33 568.382 L471.455 578.642 L464.498 588.903 L457.454 599.164 L450.322 609.425 L443.112 619.685 L435.839 629.946 L428.528 640.207 L421.212 650.467 L413.928 660.728 L406.721 670.989 L399.637 681.249 L392.727 691.51 L386.039 701.771 L379.622 712.031 L373.518 722.292 L367.765 732.553 L362.392 742.814 L357.42 753.074 L352.859 763.335 L348.708 773.596 L344.956 783.856 L341.579 794.117 L338.545 804.378 L335.813 814.638 L333.332 824.899 L331.049 835.16 L328.905 845.42 L326.842 855.681 L324.804 865.942 L322.737 876.203 L320.595 886.463 L318.341 896.724 L315.947 906.985 L313.399 917.245 L310.693 927.506 L307.839 937.767 L304.862 948.027 L301.797 958.288 L298.692 968.549 L295.603 978.809 L292.598 989.07 L289.749 999.331 L287.131 1009.59 L284.824 1019.85 L282.907 1030.11 L281.455 1040.37 L280.541 1050.63 L280.231 1060.9 L280.585 1071.16 L281.654 1081.42 L283.482 1091.68 L286.102 1101.94 L289.54 1112.2 L293.814 1122.46 L298.931 1132.72 L304.893 1142.98 L311.694 1153.24 L319.322 1163.5 L327.758 1173.76 L336.979 1184.02 L346.955 1194.28 L357.651 1204.54 L369.028 1214.81 L381.04 1225.07 L393.636 1235.33 L406.761 1245.59 L420.351 1255.85 L434.339 1266.11 L448.653 1276.37 L463.215 1286.63 L477.943 1296.89 L492.752 1307.15 L507.556 1317.41 L522.267 1327.67 L536.798 1337.93 L917.958 1337.93  Z" fill="#009af9" fill-rule="evenodd" fill-opacity="1"/>
<polyline clip-path="url(#clip642)" style="stroke:#000000; stroke-linecap:round; stroke-linejoin:round; stroke-width:4; stroke-opacity:1; fill:none" points="917.958,1337.93 932.489,1327.67 947.199,1317.41 962.003,1307.15 976.812,1296.89 991.54,1286.63 1006.1,1276.37 1020.42,1266.11 1034.4,1255.85 1047.99,1245.59 1061.12,1235.33 1073.72,1225.07 1085.73,1214.81 1097.1,1204.54 1107.8,1194.28 1117.78,1184.02 1127,1173.76 1135.43,1163.5 1143.06,1153.24 1149.86,1142.98 1155.82,1132.72 1160.94,1122.46 1165.22,1112.2 1168.65,1101.94 1171.27,1091.68 1173.1,1081.42 1174.17,1071.16 1174.52,1060.9 1174.21,1050.63 1173.3,1040.37 1171.85,1030.11 1169.93,1019.85 1167.62,1009.59 1165.01,999.331 1162.16,989.07 1159.15,978.809 1156.06,968.549 1152.96,958.288 1149.89,948.027 1146.92,937.767 1144.06,927.506 1141.36,917.245 1138.81,906.985 1136.41,896.724 1134.16,886.463 1132.02,876.203 1129.95,865.942 1127.91,855.681 1125.85,845.42 1123.71,835.16 1121.42,824.899 1118.94,814.638 1116.21,804.378 1113.18,794.117 1109.8,783.856 1106.05,773.596 1101.9,763.335 1097.34,753.074 1092.36,742.814 1086.99,732.553 1081.24,722.292 1075.13,712.031 1068.72,701.771 1062.03,691.51 1055.12,681.249 1048.03,670.989 1040.83,660.728 1033.54,650.467 1026.23,640.207 1018.92,629.946 1011.64,619.685 1004.43,609.425 997.302,599.164 990.257,588.903 983.3,578.642 976.425,568.382 969.62,558.121 962.866,547.86 956.144,537.6 949.432,527.339 942.709,517.078 935.954,506.818 929.152,496.557 922.29,486.296 915.364,476.036 908.372,465.775 901.322,455.514 894.229,445.253 887.11,434.993 879.991,424.732 872.902,414.471 865.873,404.211 858.938,393.95 852.13,383.689 845.481,373.429 839.018,363.168 832.767,352.907 826.747,342.647 820.973,332.386 815.453,322.125 810.189,311.864 805.181,301.604 800.42,291.343 795.896,281.082 791.597,270.822 787.505,260.561 667.25,260.561 663.159,270.822 658.859,281.082 654.336,291.343 649.575,301.604 644.566,311.864 639.303,322.125 633.782,332.386 628.008,342.647 621.988,352.907 615.737,363.168 609.275,373.429 602.625,383.689 595.817,393.95 588.882,404.211 581.854,414.471 574.764,424.732 567.645,434.993 560.527,445.253 553.433,455.514 546.384,465.775 539.392,476.036 532.465,486.296 525.604,496.557 518.801,506.818 512.047,517.078 505.323,527.339 498.612,537.6 491.89,547.86 485.136,558.121 478.33,568.382 471.455,578.642 464.498,588.903 457.454,599.164 450.322,609.425 443.112,619.685 435.839,629.946 428.528,640.207 421.212,650.467 413.928,660.728 406.721,670.989 399.637,681.249 392.727,691.51 386.039,701.771 379.622,712.031 373.518,722.292 367.765,732.553 362.392,742.814 357.42,753.074 352.859,763.335 348.708,773.596 344.956,783.856 341.579,794.117 338.545,804.378 335.813,814.638 333.332,824.899 331.049,835.16 328.905,845.42 326.842,855.681 324.804,865.942 322.737,876.203 320.595,886.463 318.341,896.724 315.947,906.985 313.399,917.245 310.693,927.506 307.839,937.767 304.862,948.027 301.797,958.288 298.692,968.549 295.603,978.809 292.598,989.07 289.749,999.331 287.131,1009.59 284.824,1019.85 282.907,1030.11 281.455,1040.37 280.541,1050.63 280.231,1060.9 280.585,1071.16 281.654,1081.42 283.482,1091.68 286.102,1101.94 289.54,1112.2 293.814,1122.46 298.931,1132.72 304.893,1142.98 311.694,1153.24 319.322,1163.5 327.758,1173.76 336.979,1184.02 346.955,1194.28 357.651,1204.54 369.028,1214.81 381.04,1225.07 393.636,1235.33 406.761,1245.59 420.351,1255.85 434.339,1266.11 448.653,1276.37 463.215,1286.63 477.943,1296.89 492.752,1307.15 507.556,1317.41 522.267,1327.67 536.798,1337.93 917.958,1337.93 "/>
<path clip-path="url(#clip642)" d="M2100.36 1280.87 L2116.09 1272.37 L2131.33 1263.88 L2145.93 1255.38 L2159.75 1246.88 L2172.64 1238.38 L2184.49 1229.88 L2195.21 1221.39 L2204.71 1212.89 L2212.94 1204.39 L2219.86 1195.89 L2225.47 1187.4 L2229.79 1178.9 L2232.85 1170.4 L2234.72 1161.9 L2235.48 1153.4 L2235.25 1144.91 L2234.13 1136.41 L2232.28 1127.91 L2229.83 1119.41 L2226.95 1110.92 L2223.78 1102.42 L2220.49 1093.92 L2217.25 1085.42 L2214.19 1076.92 L2211.46 1068.43 L2209.19 1059.93 L2207.5 1051.43 L2206.49 1042.93 L2206.22 1034.43 L2206.77 1025.94 L2208.15 1017.44 L2210.39 1008.94 L2213.47 1000.44 L2217.34 991.946 L2221.96 983.448 L2227.23 974.95 L2233.04 966.453 L2239.29 957.955 L2245.82 949.457 L2252.49 940.959 L2259.13 932.461 L2265.58 923.964 L2271.68 915.466 L2277.26 906.968 L2282.16 898.47 L2286.24 889.972 L2289.38 881.475 L2291.46 872.977 L2292.39 864.479 L2292.11 855.981 L2290.58 847.483 L2287.78 838.986 L2283.72 830.488 L2278.44 821.99 L2271.98 813.492 L2264.44 804.994 L2255.89 796.497 L2246.44 787.999 L2236.22 779.501 L2225.34 771.003 L2213.92 762.505 L2202.09 754.008 L2189.98 745.51 L2177.69 737.012 L2165.33 728.514 L2153 720.017 L2140.79 711.519 L2128.77 703.021 L2117.01 694.523 L2105.57 686.025 L2094.5 677.528 L2083.84 669.03 L2073.63 660.532 L2063.89 652.034 L2054.65 643.536 L2045.94 635.039 L2037.78 626.541 L2030.18 618.043 L2023.16 609.545 L2016.73 601.047 L2010.89 592.55 L2005.64 584.052 L2001 575.554 L1996.93 567.056 L1993.43 558.558 L1990.46 550.061 L1988 541.563 L1986 533.065 L1984.4 524.567 L1983.14 516.069 L1982.17 507.572 L1981.39 499.074 L1980.74 490.576 L1980.14 482.078 L1979.49 473.58 L1978.74 465.083 L1977.8 456.585 L1976.6 448.087 L1975.08 439.589 L1973.2 431.091 L1970.92 422.594 L1968.2 414.096 L1965.05 405.598 L1961.46 397.1 L1957.44 388.602 L1953.02 380.105 L1948.24 371.607 L1742.25 371.607 L1737.47 380.105 L1733.05 388.602 L1729.03 397.1 L1725.44 405.598 L1722.28 414.096 L1719.57 422.594 L1717.29 431.091 L1715.41 439.589 L1713.89 448.087 L1712.69 456.585 L1711.75 465.083 L1710.99 473.58 L1710.35 482.078 L1709.75 490.576 L1709.1 499.074 L1708.32 507.572 L1707.35 516.069 L1706.09 524.567 L1704.49 533.065 L1702.49 541.563 L1700.03 550.061 L1697.06 558.558 L1693.56 567.056 L1689.49 575.554 L1684.84 584.052 L1679.6 592.55 L1673.76 601.047 L1667.33 609.545 L1660.31 618.043 L1652.71 626.541 L1644.54 635.039 L1635.84 643.536 L1626.6 652.034 L1616.86 660.532 L1606.65 669.03 L1595.99 677.528 L1584.92 686.025 L1573.48 694.523 L1561.72 703.021 L1549.7 711.519 L1537.49 720.017 L1525.16 728.514 L1512.8 737.012 L1500.51 745.51 L1488.39 754.008 L1476.57 762.505 L1465.15 771.003 L1454.27 779.501 L1444.05 787.999 L1434.6 796.497 L1426.05 804.994 L1418.51 813.492 L1412.05 821.99 L1406.77 830.488 L1402.71 838.986 L1399.91 847.483 L1398.38 855.981 L1398.1 864.479 L1399.03 872.977 L1401.11 881.475 L1404.25 889.972 L1408.33 898.47 L1413.23 906.968 L1418.81 915.466 L1424.91 923.964 L1431.36 932.461 L1438 940.959 L1444.67 949.457 L1451.2 957.955 L1457.44 966.453 L1463.26 974.95 L1468.53 983.448 L1473.14 991.946 L1477.02 1000.44 L1480.1 1008.94 L1482.34 1017.44 L1483.72 1025.94 L1484.27 1034.43 L1484 1042.93 L1482.99 1051.43 L1481.3 1059.93 L1479.03 1068.43 L1476.3 1076.92 L1473.24 1085.42 L1470 1093.92 L1466.71 1102.42 L1463.54 1110.92 L1460.66 1119.41 L1458.21 1127.91 L1456.36 1136.41 L1455.24 1144.91 L1455.01 1153.4 L1455.77 1161.9 L1457.64 1170.4 L1460.7 1178.9 L1465.02 1187.4 L1470.63 1195.89 L1477.55 1204.39 L1485.78 1212.89 L1495.28 1221.39 L1506 1229.88 L1517.85 1238.38 L1530.74 1246.88 L1544.56 1255.38 L1559.15 1263.88 L1574.4 1272.37 L1590.13 1280.87 L2100.36 1280.87  Z" fill="#e26f46" fill-rule="evenodd" fill-opacity="1"/>
<polyline clip-path="url(#clip642)" style="stroke:#000000; stroke-linecap:round; stroke-linejoin:round; stroke-width:4; stroke-opacity:1; fill:none" points="2100.36,1280.87 2116.09,1272.37 2131.33,1263.88 2145.93,1255.38 2159.75,1246.88 2172.64,1238.38 2184.49,1229.88 2195.21,1221.39 2204.71,1212.89 2212.94,1204.39 2219.86,1195.89 2225.47,1187.4 2229.79,1178.9 2232.85,1170.4 2234.72,1161.9 2235.48,1153.4 2235.25,1144.91 2234.13,1136.41 2232.28,1127.91 2229.83,1119.41 2226.95,1110.92 2223.78,1102.42 2220.49,1093.92 2217.25,1085.42 2214.19,1076.92 2211.46,1068.43 2209.19,1059.93 2207.5,1051.43 2206.49,1042.93 2206.22,1034.43 2206.77,1025.94 2208.15,1017.44 2210.39,1008.94 2213.47,1000.44 2217.34,991.946 2221.96,983.448 2227.23,974.95 2233.04,966.453 2239.29,957.955 2245.82,949.457 2252.49,940.959 2259.13,932.461 2265.58,923.964 2271.68,915.466 2277.26,906.968 2282.16,898.47 2286.24,889.972 2289.38,881.475 2291.46,872.977 2292.39,864.479 2292.11,855.981 2290.58,847.483 2287.78,838.986 2283.72,830.488 2278.44,821.99 2271.98,813.492 2264.44,804.994 2255.89,796.497 2246.44,787.999 2236.22,779.501 2225.34,771.003 2213.92,762.505 2202.09,754.008 2189.98,745.51 2177.69,737.012 2165.33,728.514 2153,720.017 2140.79,711.519 2128.77,703.021 2117.01,694.523 2105.57,686.025 2094.5,677.528 2083.84,669.03 2073.63,660.532 2063.89,652.034 2054.65,643.536 2045.94,635.039 2037.78,626.541 2030.18,618.043 2023.16,609.545 2016.73,601.047 2010.89,592.55 2005.64,584.052 2001,575.554 1996.93,567.056 1993.43,558.558 1990.46,550.061 1988,541.563 1986,533.065 1984.4,524.567 1983.14,516.069 1982.17,507.572 1981.39,499.074 1980.74,490.576 1980.14,482.078 1979.49,473.58 1978.74,465.083 1977.8,456.585 1976.6,448.087 1975.08,439.589 1973.2,431.091 1970.92,422.594 1968.2,414.096 1965.05,405.598 1961.46,397.1 1957.44,388.602 1953.02,380.105 1948.24,371.607 1742.25,371.607 1737.47,380.105 1733.05,388.602 1729.03,397.1 1725.44,405.598 1722.28,414.096 1719.57,422.594 1717.29,431.091 1715.41,439.589 1713.89,448.087 1712.69,456.585 1711.75,465.083 1710.99,473.58 1710.35,482.078 1709.75,490.576 1709.1,499.074 1708.32,507.572 1707.35,516.069 1706.09,524.567 1704.49,533.065 1702.49,541.563 1700.03,550.061 1697.06,558.558 1693.56,567.056 1689.49,575.554 1684.84,584.052 1679.6,592.55 1673.76,601.047 1667.33,609.545 1660.31,618.043 1652.71,626.541 1644.54,635.039 1635.84,643.536 1626.6,652.034 1616.86,660.532 1606.65,669.03 1595.99,677.528 1584.92,686.025 1573.48,694.523 1561.72,703.021 1549.7,711.519 1537.49,720.017 1525.16,728.514 1512.8,737.012 1500.51,745.51 1488.39,754.008 1476.57,762.505 1465.15,771.003 1454.27,779.501 1444.05,787.999 1434.6,796.497 1426.05,804.994 1418.51,813.492 1412.05,821.99 1406.77,830.488 1402.71,838.986 1399.91,847.483 1398.38,855.981 1398.1,864.479 1399.03,872.977 1401.11,881.475 1404.25,889.972 1408.33,898.47 1413.23,906.968 1418.81,915.466 1424.91,923.964 1431.36,932.461 1438,940.959 1444.67,949.457 1451.2,957.955 1457.44,966.453 1463.26,974.95 1468.53,983.448 1473.14,991.946 1477.02,1000.44 1480.1,1008.94 1482.34,1017.44 1483.72,1025.94 1484.27,1034.43 1484,1042.93 1482.99,1051.43 1481.3,1059.93 1479.03,1068.43 1476.3,1076.92 1473.24,1085.42 1470,1093.92 1466.71,1102.42 1463.54,1110.92 1460.66,1119.41 1458.21,1127.91 1456.36,1136.41 1455.24,1144.91 1455.01,1153.4 1455.77,1161.9 1457.64,1170.4 1460.7,1178.9 1465.02,1187.4 1470.63,1195.89 1477.55,1204.39 1485.78,1212.89 1495.28,1221.39 1506,1229.88 1517.85,1238.38 1530.74,1246.88 1544.56,1255.38 1559.15,1263.88 1574.4,1272.37 1590.13,1280.87 2100.36,1280.87 "/>
</svg>
