<svg xmlns="http://www.w3.org/2000/svg" xmlns:xlink="http://www.w3.org/1999/xlink" width="1200" height="500" viewBox="0 0 4800 2000">
<defs>
  <clipPath id="clip060">
    <rect x="0" y="0" width="4800" height="2000"></rect>
  </clipPath>
</defs>
<path clip-path="url(#clip060)" d="M0 2000 L4800 2000 L4800 -8.88178e-14 L0 -8.88178e-14  Z" fill="#ffffff" fill-rule="evenodd" fill-opacity="1"></path>
<defs>
  <clipPath id="clip061">
    <rect x="960" y="0" width="3361" height="2000"></rect>
  </clipPath>
</defs>
<path clip-path="url(#clip060)" d="M279.918 1786.97 L2352.76 1786.97 L2352.76 100.792 L279.918 100.792  Z" fill="#ffffff" fill-rule="evenodd" fill-opacity="1"></path>
<defs>
  <clipPath id="clip062">
    <rect x="279" y="100" width="2074" height="1687"></rect>
  </clipPath>
</defs>
<polyline clip-path="url(#clip062)" style="stroke:#000000; stroke-linecap:round; stroke-linejoin:round; stroke-width:2; stroke-opacity:0.1; fill:none" points="318.831,1786.97 318.831,100.792 "></polyline>
<polyline clip-path="url(#clip062)" style="stroke:#000000; stroke-linecap:round; stroke-linejoin:round; stroke-width:2; stroke-opacity:0.1; fill:none" points="812.646,1786.97 812.646,100.792 "></polyline>
<polyline clip-path="url(#clip062)" style="stroke:#000000; stroke-linecap:round; stroke-linejoin:round; stroke-width:2; stroke-opacity:0.1; fill:none" points="1306.46,1786.97 1306.46,100.792 "></polyline>
<polyline clip-path="url(#clip062)" style="stroke:#000000; stroke-linecap:round; stroke-linejoin:round; stroke-width:2; stroke-opacity:0.1; fill:none" points="1800.28,1786.97 1800.28,100.792 "></polyline>
<polyline clip-path="url(#clip062)" style="stroke:#000000; stroke-linecap:round; stroke-linejoin:round; stroke-width:2; stroke-opacity:0.1; fill:none" points="2294.09,1786.97 2294.09,100.792 "></polyline>
<polyline clip-path="url(#clip060)" style="stroke:#000000; stroke-linecap:round; stroke-linejoin:round; stroke-width:4; stroke-opacity:1; fill:none" points="279.918,1786.97 2352.76,1786.97 "></polyline>
<polyline clip-path="url(#clip060)" style="stroke:#000000; stroke-linecap:round; stroke-linejoin:round; stroke-width:4; stroke-opacity:1; fill:none" points="318.831,1786.97 318.831,1768.07 "></polyline>
<polyline clip-path="url(#clip060)" style="stroke:#000000; stroke-linecap:round; stroke-linejoin:round; stroke-width:4; stroke-opacity:1; fill:none" points="812.646,1786.97 812.646,1768.07 "></polyline>
<polyline clip-path="url(#clip060)" style="stroke:#000000; stroke-linecap:round; stroke-linejoin:round; stroke-width:4; stroke-opacity:1; fill:none" points="1306.46,1786.97 1306.46,1768.07 "></polyline>
<polyline clip-path="url(#clip060)" style="stroke:#000000; stroke-linecap:round; stroke-linejoin:round; stroke-width:4; stroke-opacity:1; fill:none" points="1800.28,1786.97 1800.28,1768.07 "></polyline>
<polyline clip-path="url(#clip060)" style="stroke:#000000; stroke-linecap:round; stroke-linejoin:round; stroke-width:4; stroke-opacity:1; fill:none" points="2294.09,1786.97 2294.09,1768.07 "></polyline>
<path clip-path="url(#clip060)" d="M318.831 1837.09 Q315.22 1837.09 313.391 1840.65 Q311.585 1844.19 311.585 1851.32 Q311.585 1858.43 313.391 1861.99 Q315.22 1865.54 318.831 1865.54 Q322.465 1865.54 324.27 1861.99 Q326.099 1858.43 326.099 1851.32 Q326.099 1844.19 324.27 1840.65 Q322.465 1837.09 318.831 1837.09 M318.831 1833.38 Q324.641 1833.38 327.696 1837.99 Q330.775 1842.57 330.775 1851.32 Q330.775 1860.05 327.696 1864.66 Q324.641 1869.24 318.831 1869.24 Q313.021 1869.24 309.942 1864.66 Q306.886 1860.05 306.886 1851.32 Q306.886 1842.57 309.942 1837.99 Q313.021 1833.38 318.831 1833.38 Z" fill="#000000" fill-rule="nonzero" fill-opacity="1"></path><path clip-path="url(#clip060)" d="M791.917 1864.63 L808.236 1864.63 L808.236 1868.57 L786.292 1868.57 L786.292 1864.63 Q788.954 1861.88 793.537 1857.25 Q798.143 1852.6 799.324 1851.25 Q801.569 1848.73 802.449 1846.99 Q803.352 1845.23 803.352 1843.54 Q803.352 1840.79 801.407 1839.05 Q799.486 1837.32 796.384 1837.32 Q794.185 1837.32 791.731 1838.08 Q789.301 1838.85 786.523 1840.4 L786.523 1835.67 Q789.347 1834.54 791.801 1833.96 Q794.255 1833.38 796.292 1833.38 Q801.662 1833.38 804.856 1836.07 Q808.051 1838.75 808.051 1843.24 Q808.051 1845.37 807.241 1847.29 Q806.454 1849.19 804.347 1851.79 Q803.768 1852.46 800.667 1855.67 Q797.565 1858.87 791.917 1864.63 Z" fill="#000000" fill-rule="nonzero" fill-opacity="1"></path><path clip-path="url(#clip060)" d="M818.097 1834.01 L836.453 1834.01 L836.453 1837.94 L822.379 1837.94 L822.379 1846.42 Q823.398 1846.07 824.416 1845.91 Q825.435 1845.72 826.453 1845.72 Q832.24 1845.72 835.62 1848.89 Q839 1852.06 839 1857.48 Q839 1863.06 835.528 1866.16 Q832.055 1869.24 825.736 1869.24 Q823.56 1869.24 821.291 1868.87 Q819.046 1868.5 816.639 1867.76 L816.639 1863.06 Q818.722 1864.19 820.944 1864.75 Q823.166 1865.3 825.643 1865.3 Q829.648 1865.3 831.986 1863.2 Q834.324 1861.09 834.324 1857.48 Q834.324 1853.87 831.986 1851.76 Q829.648 1849.66 825.643 1849.66 Q823.768 1849.66 821.893 1850.07 Q820.041 1850.49 818.097 1851.37 L818.097 1834.01 Z" fill="#000000" fill-rule="nonzero" fill-opacity="1"></path><path clip-path="url(#clip060)" d="M1281.16 1834.01 L1299.52 1834.01 L1299.52 1837.94 L1285.44 1837.94 L1285.44 1846.42 Q1286.46 1846.07 1287.48 1845.91 Q1288.5 1845.72 1289.52 1845.72 Q1295.3 1845.72 1298.68 1848.89 Q1302.06 1852.06 1302.06 1857.48 Q1302.06 1863.06 1298.59 1866.16 Q1295.12 1869.24 1288.8 1869.24 Q1286.62 1869.24 1284.35 1868.87 Q1282.11 1868.5 1279.7 1867.76 L1279.7 1863.06 Q1281.78 1864.19 1284.01 1864.75 Q1286.23 1865.3 1288.71 1865.3 Q1292.71 1865.3 1295.05 1863.2 Q1297.39 1861.09 1297.39 1857.48 Q1297.39 1853.87 1295.05 1851.76 Q1292.71 1849.66 1288.71 1849.66 Q1286.83 1849.66 1284.96 1850.07 Q1283.1 1850.49 1281.16 1851.37 L1281.16 1834.01 Z" fill="#000000" fill-rule="nonzero" fill-opacity="1"></path><path clip-path="url(#clip060)" d="M1321.28 1837.09 Q1317.66 1837.09 1315.84 1840.65 Q1314.03 1844.19 1314.03 1851.32 Q1314.03 1858.43 1315.84 1861.99 Q1317.66 1865.54 1321.28 1865.54 Q1324.91 1865.54 1326.72 1861.99 Q1328.54 1858.43 1328.54 1851.32 Q1328.54 1844.19 1326.72 1840.65 Q1324.91 1837.09 1321.28 1837.09 M1321.28 1833.38 Q1327.09 1833.38 1330.14 1837.99 Q1333.22 1842.57 1333.22 1851.32 Q1333.22 1860.05 1330.14 1864.66 Q1327.09 1869.24 1321.28 1869.24 Q1315.47 1869.24 1312.39 1864.66 Q1309.33 1860.05 1309.33 1851.32 Q1309.33 1842.57 1312.39 1837.99 Q1315.47 1833.38 1321.28 1833.38 Z" fill="#000000" fill-rule="nonzero" fill-opacity="1"></path><path clip-path="url(#clip060)" d="M1774.13 1834.01 L1796.35 1834.01 L1796.35 1836 L1783.81 1868.57 L1778.92 1868.57 L1790.73 1837.94 L1774.13 1837.94 L1774.13 1834.01 Z" fill="#000000" fill-rule="nonzero" fill-opacity="1"></path><path clip-path="url(#clip060)" d="M1805.52 1834.01 L1823.88 1834.01 L1823.88 1837.94 L1809.8 1837.94 L1809.8 1846.42 Q1810.82 1846.07 1811.84 1845.91 Q1812.86 1845.72 1813.88 1845.72 Q1819.66 1845.72 1823.04 1848.89 Q1826.42 1852.06 1826.42 1857.48 Q1826.42 1863.06 1822.95 1866.16 Q1819.48 1869.24 1813.16 1869.24 Q1810.98 1869.24 1808.71 1868.87 Q1806.47 1868.5 1804.06 1867.76 L1804.06 1863.06 Q1806.14 1864.19 1808.37 1864.75 Q1810.59 1865.3 1813.06 1865.3 Q1817.07 1865.3 1819.41 1863.2 Q1821.75 1861.09 1821.75 1857.48 Q1821.75 1853.87 1819.41 1851.76 Q1817.07 1849.66 1813.06 1849.66 Q1811.19 1849.66 1809.31 1850.07 Q1807.46 1850.49 1805.52 1851.37 L1805.52 1834.01 Z" fill="#000000" fill-rule="nonzero" fill-opacity="1"></path><path clip-path="url(#clip060)" d="M2253.7 1864.63 L2261.34 1864.63 L2261.34 1838.27 L2253.03 1839.93 L2253.03 1835.67 L2261.29 1834.01 L2265.97 1834.01 L2265.97 1864.63 L2273.6 1864.63 L2273.6 1868.57 L2253.7 1868.57 L2253.7 1864.63 Z" fill="#000000" fill-rule="nonzero" fill-opacity="1"></path><path clip-path="url(#clip060)" d="M2293.05 1837.09 Q2289.44 1837.09 2287.61 1840.65 Q2285.8 1844.19 2285.8 1851.32 Q2285.8 1858.43 2287.61 1861.99 Q2289.44 1865.54 2293.05 1865.54 Q2296.68 1865.54 2298.49 1861.99 Q2300.32 1858.43 2300.32 1851.32 Q2300.32 1844.19 2298.49 1840.65 Q2296.68 1837.09 2293.05 1837.09 M2293.05 1833.38 Q2298.86 1833.38 2301.91 1837.99 Q2304.99 1842.57 2304.99 1851.32 Q2304.99 1860.05 2301.91 1864.66 Q2298.86 1869.24 2293.05 1869.24 Q2287.24 1869.24 2284.16 1864.66 Q2281.1 1860.05 2281.1 1851.32 Q2281.1 1842.57 2284.16 1837.99 Q2287.24 1833.38 2293.05 1833.38 Z" fill="#000000" fill-rule="nonzero" fill-opacity="1"></path><path clip-path="url(#clip060)" d="M2323.21 1837.09 Q2319.6 1837.09 2317.77 1840.65 Q2315.97 1844.19 2315.97 1851.32 Q2315.97 1858.43 2317.77 1861.99 Q2319.6 1865.54 2323.21 1865.54 Q2326.85 1865.54 2328.65 1861.99 Q2330.48 1858.43 2330.48 1851.32 Q2330.48 1844.19 2328.65 1840.65 Q2326.85 1837.09 2323.21 1837.09 M2323.21 1833.38 Q2329.02 1833.38 2332.08 1837.99 Q2335.16 1842.57 2335.16 1851.32 Q2335.16 1860.05 2332.08 1864.66 Q2329.02 1869.24 2323.21 1869.24 Q2317.4 1869.24 2314.32 1864.66 Q2311.27 1860.05 2311.27 1851.32 Q2311.27 1842.57 2314.32 1837.99 Q2317.4 1833.38 2323.21 1833.38 Z" fill="#000000" fill-rule="nonzero" fill-opacity="1"></path><path clip-path="url(#clip060)" d="M1238.21 1920.31 L1278.41 1920.31 L1278.41 1925.72 L1261.54 1925.72 L1261.54 1967.83 L1255.08 1967.83 L1255.08 1925.72 L1238.21 1925.72 L1238.21 1920.31 Z" fill="#000000" fill-rule="nonzero" fill-opacity="1"></path><path clip-path="url(#clip060)" d="M1282.36 1932.18 L1288.22 1932.18 L1288.22 1967.83 L1282.36 1967.83 L1282.36 1932.18 M1282.36 1918.31 L1288.22 1918.31 L1288.22 1925.72 L1282.36 1925.72 L1282.36 1918.31 Z" fill="#000000" fill-rule="nonzero" fill-opacity="1"></path><path clip-path="url(#clip060)" d="M1328.22 1939.03 Q1330.42 1935.08 1333.48 1933.2 Q1336.53 1931.32 1340.67 1931.32 Q1346.24 1931.32 1349.26 1935.24 Q1352.29 1939.12 1352.29 1946.32 L1352.29 1967.83 L1346.4 1967.83 L1346.4 1946.51 Q1346.4 1941.38 1344.58 1938.9 Q1342.77 1936.42 1339.05 1936.42 Q1334.5 1936.42 1331.85 1939.44 Q1329.21 1942.46 1329.21 1947.68 L1329.21 1967.83 L1323.32 1967.83 L1323.32 1946.51 Q1323.32 1941.35 1321.51 1938.9 Q1319.69 1936.42 1315.91 1936.42 Q1311.42 1936.42 1308.78 1939.47 Q1306.14 1942.5 1306.14 1947.68 L1306.14 1967.83 L1300.25 1967.83 L1300.25 1932.18 L1306.14 1932.18 L1306.14 1937.72 Q1308.14 1934.44 1310.94 1932.88 Q1313.74 1931.32 1317.59 1931.32 Q1321.48 1931.32 1324.18 1933.3 Q1326.92 1935.27 1328.22 1939.03 Z" fill="#000000" fill-rule="nonzero" fill-opacity="1"></path><path clip-path="url(#clip060)" d="M1394.46 1948.54 L1394.46 1951.41 L1367.53 1951.41 Q1367.92 1957.46 1371.16 1960.64 Q1374.44 1963.79 1380.26 1963.79 Q1383.64 1963.79 1386.79 1962.96 Q1389.97 1962.13 1393.09 1960.48 L1393.09 1966.02 Q1389.94 1967.35 1386.63 1968.05 Q1383.32 1968.75 1379.91 1968.75 Q1371.38 1968.75 1366.39 1963.79 Q1361.42 1958.82 1361.42 1950.36 Q1361.42 1941.61 1366.13 1936.48 Q1370.88 1931.32 1378.9 1931.32 Q1386.09 1931.32 1390.26 1935.97 Q1394.46 1940.59 1394.46 1948.54 M1388.6 1946.82 Q1388.54 1942.02 1385.9 1939.15 Q1383.29 1936.29 1378.96 1936.29 Q1374.06 1936.29 1371.1 1939.06 Q1368.17 1941.83 1367.72 1946.86 L1388.6 1946.82 Z" fill="#000000" fill-rule="nonzero" fill-opacity="1"></path><polyline clip-path="url(#clip062)" style="stroke:#000000; stroke-linecap:round; stroke-linejoin:round; stroke-width:2; stroke-opacity:0.1; fill:none" points="279.918,1589.76 2352.76,1589.76 "></polyline>
<polyline clip-path="url(#clip062)" style="stroke:#000000; stroke-linecap:round; stroke-linejoin:round; stroke-width:2; stroke-opacity:0.1; fill:none" points="279.918,1268.1 2352.76,1268.1 "></polyline>
<polyline clip-path="url(#clip062)" style="stroke:#000000; stroke-linecap:round; stroke-linejoin:round; stroke-width:2; stroke-opacity:0.1; fill:none" points="279.918,946.442 2352.76,946.442 "></polyline>
<polyline clip-path="url(#clip062)" style="stroke:#000000; stroke-linecap:round; stroke-linejoin:round; stroke-width:2; stroke-opacity:0.1; fill:none" points="279.918,624.784 2352.76,624.784 "></polyline>
<polyline clip-path="url(#clip062)" style="stroke:#000000; stroke-linecap:round; stroke-linejoin:round; stroke-width:2; stroke-opacity:0.1; fill:none" points="279.918,303.127 2352.76,303.127 "></polyline>
<polyline clip-path="url(#clip060)" style="stroke:#000000; stroke-linecap:round; stroke-linejoin:round; stroke-width:4; stroke-opacity:1; fill:none" points="279.918,1786.97 279.918,100.792 "></polyline>
<polyline clip-path="url(#clip060)" style="stroke:#000000; stroke-linecap:round; stroke-linejoin:round; stroke-width:4; stroke-opacity:1; fill:none" points="279.918,1589.76 298.816,1589.76 "></polyline>
<polyline clip-path="url(#clip060)" style="stroke:#000000; stroke-linecap:round; stroke-linejoin:round; stroke-width:4; stroke-opacity:1; fill:none" points="279.918,1268.1 298.816,1268.1 "></polyline>
<polyline clip-path="url(#clip060)" style="stroke:#000000; stroke-linecap:round; stroke-linejoin:round; stroke-width:4; stroke-opacity:1; fill:none" points="279.918,946.442 298.816,946.442 "></polyline>
<polyline clip-path="url(#clip060)" style="stroke:#000000; stroke-linecap:round; stroke-linejoin:round; stroke-width:4; stroke-opacity:1; fill:none" points="279.918,624.784 298.816,624.784 "></polyline>
<polyline clip-path="url(#clip060)" style="stroke:#000000; stroke-linecap:round; stroke-linejoin:round; stroke-width:4; stroke-opacity:1; fill:none" points="279.918,303.127 298.816,303.127 "></polyline>
<path clip-path="url(#clip060)" d="M147.803 1590.21 L177.478 1590.21 L177.478 1594.14 L147.803 1594.14 L147.803 1590.21 Z" fill="#000000" fill-rule="nonzero" fill-opacity="1"></path><path clip-path="url(#clip060)" d="M191.599 1603.1 L207.918 1603.1 L207.918 1607.04 L185.974 1607.04 L185.974 1603.1 Q188.636 1600.35 193.219 1595.72 Q197.826 1591.06 199.006 1589.72 Q201.251 1587.2 202.131 1585.46 Q203.034 1583.7 203.034 1582.01 Q203.034 1579.26 201.089 1577.52 Q199.168 1575.79 196.066 1575.79 Q193.867 1575.79 191.414 1576.55 Q188.983 1577.31 186.205 1578.87 L186.205 1574.14 Q189.029 1573.01 191.483 1572.43 Q193.937 1571.85 195.974 1571.85 Q201.344 1571.85 204.538 1574.54 Q207.733 1577.22 207.733 1581.71 Q207.733 1583.84 206.923 1585.76 Q206.136 1587.66 204.029 1590.25 Q203.451 1590.93 200.349 1594.14 Q197.247 1597.34 191.599 1603.1 Z" fill="#000000" fill-rule="nonzero" fill-opacity="1"></path><path clip-path="url(#clip060)" d="M147.432 1268.55 L177.108 1268.55 L177.108 1272.49 L147.432 1272.49 L147.432 1268.55 Z" fill="#000000" fill-rule="nonzero" fill-opacity="1"></path><path clip-path="url(#clip060)" d="M188.011 1281.44 L195.65 1281.44 L195.65 1255.08 L187.339 1256.75 L187.339 1252.49 L195.603 1250.82 L200.279 1250.82 L200.279 1281.44 L207.918 1281.44 L207.918 1285.38 L188.011 1285.38 L188.011 1281.44 Z" fill="#000000" fill-rule="nonzero" fill-opacity="1"></path><path clip-path="url(#clip060)" d="M195.974 932.24 Q192.363 932.24 190.534 935.805 Q188.728 939.347 188.728 946.476 Q188.728 953.583 190.534 957.148 Q192.363 960.689 195.974 960.689 Q199.608 960.689 201.413 957.148 Q203.242 953.583 203.242 946.476 Q203.242 939.347 201.413 935.805 Q199.608 932.24 195.974 932.24 M195.974 928.537 Q201.784 928.537 204.839 933.143 Q207.918 937.726 207.918 946.476 Q207.918 955.203 204.839 959.81 Q201.784 964.393 195.974 964.393 Q190.164 964.393 187.085 959.81 Q184.029 955.203 184.029 946.476 Q184.029 937.726 187.085 933.143 Q190.164 928.537 195.974 928.537 Z" fill="#000000" fill-rule="nonzero" fill-opacity="1"></path><path clip-path="url(#clip060)" d="M188.011 638.129 L195.65 638.129 L195.65 611.763 L187.339 613.43 L187.339 609.171 L195.603 607.504 L200.279 607.504 L200.279 638.129 L207.918 638.129 L207.918 642.064 L188.011 642.064 L188.011 638.129 Z" fill="#000000" fill-rule="nonzero" fill-opacity="1"></path><path clip-path="url(#clip060)" d="M191.599 316.471 L207.918 316.471 L207.918 320.407 L185.974 320.407 L185.974 316.471 Q188.636 313.717 193.219 309.087 Q197.826 304.435 199.006 303.092 Q201.251 300.569 202.131 298.833 Q203.034 297.073 203.034 295.384 Q203.034 292.629 201.089 290.893 Q199.168 289.157 196.066 289.157 Q193.867 289.157 191.414 289.921 Q188.983 290.685 186.205 292.236 L186.205 287.513 Q189.029 286.379 191.483 285.8 Q193.937 285.222 195.974 285.222 Q201.344 285.222 204.538 287.907 Q207.733 290.592 207.733 295.083 Q207.733 297.212 206.923 299.134 Q206.136 301.032 204.029 303.624 Q203.451 304.296 200.349 307.513 Q197.247 310.708 191.599 316.471 Z" fill="#000000" fill-rule="nonzero" fill-opacity="1"></path><path clip-path="url(#clip060)" d="M25.5283 927.265 L42.8749 940.156 L61.1763 926.597 L61.1763 933.504 L47.1717 943.88 L61.1763 954.256 L61.1763 961.163 L42.5248 947.317 L25.5283 959.985 L25.5283 953.078 L38.2279 943.625 L25.5283 934.172 L25.5283 927.265 Z" fill="#000000" fill-rule="nonzero" fill-opacity="1"></path><path clip-path="url(#clip060)" d="M796.545 16.7545 L796.545 25.383 Q792.413 21.5346 787.714 19.6307 Q783.056 17.7268 777.79 17.7268 Q767.419 17.7268 761.91 24.0867 Q756.401 30.4061 756.401 42.3968 Q756.401 54.3469 761.91 60.7069 Q767.419 67.0263 777.79 67.0263 Q783.056 67.0263 787.714 65.1223 Q792.413 63.2184 796.545 59.3701 L796.545 67.9175 Q792.251 70.8341 787.431 72.2924 Q782.651 73.7508 777.303 73.7508 Q763.571 73.7508 755.672 65.3654 Q747.772 56.9395 747.772 42.3968 Q747.772 27.8135 755.672 19.4281 Q763.571 11.0023 777.303 11.0023 Q782.732 11.0023 787.512 12.4606 Q792.332 13.8784 796.545 16.7545 Z" fill="#000000" fill-rule="nonzero" fill-opacity="1"></path><path clip-path="url(#clip060)" d="M808.86 9.54393 L816.314 9.54393 L816.314 72.576 L808.86 72.576 L808.86 9.54393 Z" fill="#000000" fill-rule="nonzero" fill-opacity="1"></path><path clip-path="url(#clip060)" d="M852.529 49.7694 Q843.495 49.7694 840.011 51.8354 Q836.528 53.9013 836.528 58.8839 Q836.528 62.8538 839.12 65.2034 Q841.753 67.5124 846.25 67.5124 Q852.448 67.5124 856.175 63.1374 Q859.942 58.7219 859.942 51.4303 L859.942 49.7694 L852.529 49.7694 M867.396 46.6907 L867.396 72.576 L859.942 72.576 L859.942 65.6895 Q857.39 69.8214 853.582 71.8063 Q849.774 73.7508 844.265 73.7508 Q837.297 73.7508 833.165 69.8619 Q829.074 65.9325 829.074 59.3701 Q829.074 51.7138 834.178 47.825 Q839.323 43.9361 849.491 43.9361 L859.942 43.9361 L859.942 43.2069 Q859.942 38.0623 856.539 35.2672 Q853.177 32.4315 847.06 32.4315 Q843.171 32.4315 839.485 33.3632 Q835.798 34.295 832.396 36.1584 L832.396 29.2718 Q836.487 27.692 840.335 26.9223 Q844.184 26.1121 847.83 26.1121 Q857.673 26.1121 862.534 31.2163 Q867.396 36.3204 867.396 46.6907 Z" fill="#000000" fill-rule="nonzero" fill-opacity="1"></path><path clip-path="url(#clip060)" d="M911.672 28.5427 L911.672 35.5912 Q908.512 33.9709 905.109 33.1607 Q901.707 32.3505 898.061 32.3505 Q892.511 32.3505 889.716 34.0519 Q886.961 35.7533 886.961 39.156 Q886.961 41.7486 888.946 43.2475 Q890.931 44.7058 896.927 46.0426 L899.479 46.6097 Q907.418 48.3111 910.74 51.4303 Q914.102 54.509 914.102 60.0587 Q914.102 66.3781 909.079 70.0644 Q904.097 73.7508 895.347 73.7508 Q891.701 73.7508 887.731 73.0216 Q883.802 72.3329 879.427 70.9151 L879.427 63.2184 Q883.559 65.3654 887.569 66.4591 Q891.579 67.5124 895.509 67.5124 Q900.775 67.5124 903.611 65.73 Q906.446 63.9071 906.446 60.6258 Q906.446 57.5877 904.38 55.9673 Q902.355 54.3469 895.428 52.8481 L892.835 52.2405 Q885.908 50.7821 882.829 47.7845 Q879.751 44.7463 879.751 39.4801 Q879.751 33.0797 884.288 29.5959 Q888.825 26.1121 897.17 26.1121 Q901.302 26.1121 904.947 26.7198 Q908.593 27.3274 911.672 28.5427 Z" fill="#000000" fill-rule="nonzero" fill-opacity="1"></path><path clip-path="url(#clip060)" d="M954.895 28.5427 L954.895 35.5912 Q951.735 33.9709 948.333 33.1607 Q944.93 32.3505 941.284 32.3505 Q935.734 32.3505 932.939 34.0519 Q930.185 35.7533 930.185 39.156 Q930.185 41.7486 932.169 43.2475 Q934.154 44.7058 940.15 46.0426 L942.702 46.6097 Q950.642 48.3111 953.963 51.4303 Q957.326 54.509 957.326 60.0587 Q957.326 66.3781 952.302 70.0644 Q947.32 73.7508 938.57 73.7508 Q934.924 73.7508 930.954 73.0216 Q927.025 72.3329 922.65 70.9151 L922.65 63.2184 Q926.782 65.3654 930.792 66.4591 Q934.803 67.5124 938.732 67.5124 Q943.998 67.5124 946.834 65.73 Q949.669 63.9071 949.669 60.6258 Q949.669 57.5877 947.603 55.9673 Q945.578 54.3469 938.651 52.8481 L936.058 52.2405 Q929.131 50.7821 926.053 47.7845 Q922.974 44.7463 922.974 39.4801 Q922.974 33.0797 927.511 29.5959 Q932.048 26.1121 940.393 26.1121 Q944.525 26.1121 948.171 26.7198 Q951.816 27.3274 954.895 28.5427 Z" fill="#000000" fill-rule="nonzero" fill-opacity="1"></path><path clip-path="url(#clip060)" d="M1014.12 17.4837 Q1007.8 17.4837 1004.6 23.7221 Q1001.44 29.92 1001.44 42.3968 Q1001.44 54.833 1004.6 61.0714 Q1007.8 67.2693 1014.12 67.2693 Q1020.48 67.2693 1023.64 61.0714 Q1026.84 54.833 1026.84 42.3968 Q1026.84 29.92 1023.64 23.7221 Q1020.48 17.4837 1014.12 17.4837 M1014.12 11.0023 Q1024.29 11.0023 1029.63 19.0636 Q1035.02 27.0843 1035.02 42.3968 Q1035.02 57.6687 1029.63 65.73 Q1024.29 73.7508 1014.12 73.7508 Q1003.95 73.7508 998.564 65.73 Q993.217 57.6687 993.217 42.3968 Q993.217 27.0843 998.564 19.0636 Q1003.95 11.0023 1014.12 11.0023 Z" fill="#000000" fill-rule="nonzero" fill-opacity="1"></path><path clip-path="url(#clip060)" d="M1111.3 14.0809 L1111.3 22.0612 Q1106.64 19.8332 1102.51 18.7395 Q1098.38 17.6457 1094.53 17.6457 Q1087.85 17.6457 1084.2 20.2383 Q1080.59 22.8309 1080.59 27.611 Q1080.59 31.6214 1082.98 33.6873 Q1085.42 35.7128 1092.14 36.9686 L1097.08 37.9813 Q1106.24 39.7232 1110.57 44.1387 Q1114.95 48.5136 1114.95 55.8863 Q1114.95 64.6767 1109.03 69.2137 Q1103.16 73.7508 1091.78 73.7508 Q1087.48 73.7508 1082.62 72.7785 Q1077.8 71.8063 1072.61 69.9024 L1072.61 61.4765 Q1077.6 64.2716 1082.38 65.6895 Q1087.16 67.1073 1091.78 67.1073 Q1098.78 67.1073 1102.59 64.3527 Q1106.4 61.598 1106.4 56.4939 Q1106.4 52.0379 1103.64 49.5264 Q1100.93 47.0148 1094.69 45.759 L1089.71 44.7868 Q1080.55 42.9639 1076.46 39.075 Q1072.37 35.1862 1072.37 28.2591 Q1072.37 20.2383 1078 15.6203 Q1083.67 11.0023 1093.6 11.0023 Q1097.85 11.0023 1102.27 11.7719 Q1106.68 12.5416 1111.3 14.0809 Z" fill="#000000" fill-rule="nonzero" fill-opacity="1"></path><path clip-path="url(#clip060)" d="M1148 49.7694 Q1138.97 49.7694 1135.48 51.8354 Q1132 53.9013 1132 58.8839 Q1132 62.8538 1134.59 65.2034 Q1137.23 67.5124 1141.72 67.5124 Q1147.92 67.5124 1151.65 63.1374 Q1155.41 58.7219 1155.41 51.4303 L1155.41 49.7694 L1148 49.7694 M1162.87 46.6907 L1162.87 72.576 L1155.41 72.576 L1155.41 65.6895 Q1152.86 69.8214 1149.05 71.8063 Q1145.25 73.7508 1139.74 73.7508 Q1132.77 73.7508 1128.64 69.8619 Q1124.55 65.9325 1124.55 59.3701 Q1124.55 51.7138 1129.65 47.825 Q1134.8 43.9361 1144.96 43.9361 L1155.41 43.9361 L1155.41 43.2069 Q1155.41 38.0623 1152.01 35.2672 Q1148.65 32.4315 1142.53 32.4315 Q1138.64 32.4315 1134.96 33.3632 Q1131.27 34.295 1127.87 36.1584 L1127.87 29.2718 Q1131.96 27.692 1135.81 26.9223 Q1139.66 26.1121 1143.3 26.1121 Q1153.15 26.1121 1158.01 31.2163 Q1162.87 36.3204 1162.87 46.6907 Z" fill="#000000" fill-rule="nonzero" fill-opacity="1"></path><path clip-path="url(#clip060)" d="M1213.55 35.9153 Q1216.34 30.8922 1220.23 28.5022 Q1224.12 26.1121 1229.38 26.1121 Q1236.47 26.1121 1240.32 31.0947 Q1244.17 36.0368 1244.17 45.1919 L1244.17 72.576 L1236.68 72.576 L1236.68 45.4349 Q1236.68 38.913 1234.37 35.7533 Q1232.06 32.5936 1227.32 32.5936 Q1221.53 32.5936 1218.16 36.4419 Q1214.8 40.2903 1214.8 46.9338 L1214.8 72.576 L1207.31 72.576 L1207.31 45.4349 Q1207.31 38.8725 1205 35.7533 Q1202.69 32.5936 1197.87 32.5936 Q1192.16 32.5936 1188.79 36.4824 Q1185.43 40.3308 1185.43 46.9338 L1185.43 72.576 L1177.94 72.576 L1177.94 27.2059 L1185.43 27.2059 L1185.43 34.2544 Q1187.98 30.082 1191.55 28.0971 Q1195.11 26.1121 1200.02 26.1121 Q1204.96 26.1121 1208.4 28.6237 Q1211.88 31.1352 1213.55 35.9153 Z" fill="#000000" fill-rule="nonzero" fill-opacity="1"></path><path clip-path="url(#clip060)" d="M1266.25 65.7705 L1266.25 89.8329 L1258.75 89.8329 L1258.75 27.2059 L1266.25 27.2059 L1266.25 34.0924 Q1268.6 30.0415 1272.16 28.0971 Q1275.77 26.1121 1280.75 26.1121 Q1289.01 26.1121 1294.16 32.6746 Q1299.34 39.2371 1299.34 49.9314 Q1299.34 60.6258 1294.16 67.1883 Q1289.01 73.7508 1280.75 73.7508 Q1275.77 73.7508 1272.16 71.8063 Q1268.6 69.8214 1266.25 65.7705 M1291.61 49.9314 Q1291.61 41.7081 1288.2 37.0496 Q1284.84 32.3505 1278.93 32.3505 Q1273.01 32.3505 1269.61 37.0496 Q1266.25 41.7081 1266.25 49.9314 Q1266.25 58.1548 1269.61 62.8538 Q1273.01 67.5124 1278.93 67.5124 Q1284.84 67.5124 1288.2 62.8538 Q1291.61 58.1548 1291.61 49.9314 Z" fill="#000000" fill-rule="nonzero" fill-opacity="1"></path><path clip-path="url(#clip060)" d="M1311.7 9.54393 L1319.15 9.54393 L1319.15 72.576 L1311.7 72.576 L1311.7 9.54393 Z" fill="#000000" fill-rule="nonzero" fill-opacity="1"></path><path clip-path="url(#clip060)" d="M1373.56 48.0275 L1373.56 51.6733 L1339.29 51.6733 Q1339.77 59.3701 1343.9 63.421 Q1348.08 67.4314 1355.49 67.4314 Q1359.78 67.4314 1363.79 66.3781 Q1367.84 65.3249 1371.81 63.2184 L1371.81 70.267 Q1367.8 71.9684 1363.59 72.8596 Q1359.38 73.7508 1355.04 73.7508 Q1344.19 73.7508 1337.83 67.4314 Q1331.51 61.1119 1331.51 50.3365 Q1331.51 39.1965 1337.5 32.6746 Q1343.54 26.1121 1353.75 26.1121 Q1362.9 26.1121 1368.21 32.0264 Q1373.56 37.9003 1373.56 48.0275 M1366.1 45.84 Q1366.02 39.7232 1362.66 36.0774 Q1359.34 32.4315 1353.83 32.4315 Q1347.59 32.4315 1343.82 35.9558 Q1340.1 39.4801 1339.53 45.8805 L1366.1 45.84 Z" fill="#000000" fill-rule="nonzero" fill-opacity="1"></path><path clip-path="url(#clip060)" d="M1414.71 28.5427 L1414.71 35.5912 Q1411.55 33.9709 1408.15 33.1607 Q1404.75 32.3505 1401.1 32.3505 Q1395.55 32.3505 1392.76 34.0519 Q1390 35.7533 1390 39.156 Q1390 41.7486 1391.99 43.2475 Q1393.97 44.7058 1399.97 46.0426 L1402.52 46.6097 Q1410.46 48.3111 1413.78 51.4303 Q1417.14 54.509 1417.14 60.0587 Q1417.14 66.3781 1412.12 70.0644 Q1407.14 73.7508 1398.39 73.7508 Q1394.74 73.7508 1390.77 73.0216 Q1386.84 72.3329 1382.47 70.9151 L1382.47 63.2184 Q1386.6 65.3654 1390.61 66.4591 Q1394.62 67.5124 1398.55 67.5124 Q1403.82 67.5124 1406.65 65.73 Q1409.49 63.9071 1409.49 60.6258 Q1409.49 57.5877 1407.42 55.9673 Q1405.4 54.3469 1398.47 52.8481 L1395.88 52.2405 Q1388.95 50.7821 1385.87 47.7845 Q1382.79 44.7463 1382.79 39.4801 Q1382.79 33.0797 1387.33 29.5959 Q1391.87 26.1121 1400.21 26.1121 Q1404.34 26.1121 1407.99 26.7198 Q1411.63 27.3274 1414.71 28.5427 Z" fill="#000000" fill-rule="nonzero" fill-opacity="1"></path><path clip-path="url(#clip060)" d="M1473.29 9.62495 Q1467.86 18.942 1465.23 28.0566 Q1462.59 37.1711 1462.59 46.5287 Q1462.59 55.8863 1465.23 65.0818 Q1467.9 74.2369 1473.29 83.5134 L1466.81 83.5134 Q1460.73 73.9938 1457.69 64.7983 Q1454.7 55.6027 1454.7 46.5287 Q1454.7 37.4952 1457.69 28.3401 Q1460.69 19.1851 1466.81 9.62495 L1473.29 9.62495 Z" fill="#000000" fill-rule="nonzero" fill-opacity="1"></path><path clip-path="url(#clip060)" d="M1487.14 12.096 L1495.37 12.096 L1495.37 48.8377 Q1495.37 58.5599 1498.89 62.8538 Q1502.42 67.1073 1510.31 67.1073 Q1518.17 67.1073 1521.7 62.8538 Q1525.22 58.5599 1525.22 48.8377 L1525.22 12.096 L1533.45 12.096 L1533.45 49.8504 Q1533.45 61.6791 1527.57 67.7149 Q1521.74 73.7508 1510.31 73.7508 Q1498.85 73.7508 1492.98 67.7149 Q1487.14 61.6791 1487.14 49.8504 L1487.14 12.096 Z" fill="#000000" fill-rule="nonzero" fill-opacity="1"></path><path clip-path="url(#clip060)" d="M1586.19 45.1919 L1586.19 72.576 L1578.73 72.576 L1578.73 45.4349 Q1578.73 38.994 1576.22 35.7938 Q1573.71 32.5936 1568.69 32.5936 Q1562.65 32.5936 1559.17 36.4419 Q1555.68 40.2903 1555.68 46.9338 L1555.68 72.576 L1548.19 72.576 L1548.19 27.2059 L1555.68 27.2059 L1555.68 34.2544 Q1558.36 30.163 1561.96 28.1376 Q1565.61 26.1121 1570.35 26.1121 Q1578.17 26.1121 1582.18 30.9732 Q1586.19 35.7938 1586.19 45.1919 Z" fill="#000000" fill-rule="nonzero" fill-opacity="1"></path><path clip-path="url(#clip060)" d="M1629.98 28.5427 L1629.98 35.5912 Q1626.82 33.9709 1623.42 33.1607 Q1620.01 32.3505 1616.37 32.3505 Q1610.82 32.3505 1608.02 34.0519 Q1605.27 35.7533 1605.27 39.156 Q1605.27 41.7486 1607.25 43.2475 Q1609.24 44.7058 1615.23 46.0426 L1617.79 46.6097 Q1625.72 48.3111 1629.05 51.4303 Q1632.41 54.509 1632.41 60.0587 Q1632.41 66.3781 1627.39 70.0644 Q1622.4 73.7508 1613.65 73.7508 Q1610.01 73.7508 1606.04 73.0216 Q1602.11 72.3329 1597.73 70.9151 L1597.73 63.2184 Q1601.86 65.3654 1605.88 66.4591 Q1609.89 67.5124 1613.82 67.5124 Q1619.08 67.5124 1621.92 65.73 Q1624.75 63.9071 1624.75 60.6258 Q1624.75 57.5877 1622.69 55.9673 Q1620.66 54.3469 1613.73 52.8481 L1611.14 52.2405 Q1604.21 50.7821 1601.14 47.7845 Q1598.06 44.7463 1598.06 39.4801 Q1598.06 33.0797 1602.59 29.5959 Q1607.13 26.1121 1615.48 26.1121 Q1619.61 26.1121 1623.25 26.7198 Q1626.9 27.3274 1629.98 28.5427 Z" fill="#000000" fill-rule="nonzero" fill-opacity="1"></path><path clip-path="url(#clip060)" d="M1676.93 28.9478 L1676.93 35.9153 Q1673.77 34.1734 1670.57 33.3227 Q1667.41 32.4315 1664.17 32.4315 Q1656.92 32.4315 1652.91 37.0496 Q1648.9 41.6271 1648.9 49.9314 Q1648.9 58.2358 1652.91 62.8538 Q1656.92 67.4314 1664.17 67.4314 Q1667.41 67.4314 1670.57 66.5807 Q1673.77 65.6895 1676.93 63.9476 L1676.93 70.8341 Q1673.81 72.2924 1670.45 73.0216 Q1667.13 73.7508 1663.36 73.7508 Q1653.11 73.7508 1647.07 67.3098 Q1641.04 60.8689 1641.04 49.9314 Q1641.04 38.832 1647.11 32.472 Q1653.23 26.1121 1663.84 26.1121 Q1667.29 26.1121 1670.57 26.8413 Q1673.85 27.5299 1676.93 28.9478 Z" fill="#000000" fill-rule="nonzero" fill-opacity="1"></path><path clip-path="url(#clip060)" d="M1710.51 49.7694 Q1701.48 49.7694 1697.99 51.8354 Q1694.51 53.9013 1694.51 58.8839 Q1694.51 62.8538 1697.1 65.2034 Q1699.73 67.5124 1704.23 67.5124 Q1710.43 67.5124 1714.16 63.1374 Q1717.92 58.7219 1717.92 51.4303 L1717.92 49.7694 L1710.51 49.7694 M1725.38 46.6907 L1725.38 72.576 L1717.92 72.576 L1717.92 65.6895 Q1715.37 69.8214 1711.56 71.8063 Q1707.76 73.7508 1702.25 73.7508 Q1695.28 73.7508 1691.15 69.8619 Q1687.06 65.9325 1687.06 59.3701 Q1687.06 51.7138 1692.16 47.825 Q1697.3 43.9361 1707.47 43.9361 L1717.92 43.9361 L1717.92 43.2069 Q1717.92 38.0623 1714.52 35.2672 Q1711.16 32.4315 1705.04 32.4315 Q1701.15 32.4315 1697.47 33.3632 Q1693.78 34.295 1690.38 36.1584 L1690.38 29.2718 Q1694.47 27.692 1698.32 26.9223 Q1702.17 26.1121 1705.81 26.1121 Q1715.65 26.1121 1720.52 31.2163 Q1725.38 36.3204 1725.38 46.6907 Z" fill="#000000" fill-rule="nonzero" fill-opacity="1"></path><path clip-path="url(#clip060)" d="M1740.73 9.54393 L1748.18 9.54393 L1748.18 72.576 L1740.73 72.576 L1740.73 9.54393 Z" fill="#000000" fill-rule="nonzero" fill-opacity="1"></path><path clip-path="url(#clip060)" d="M1802.59 48.0275 L1802.59 51.6733 L1768.32 51.6733 Q1768.8 59.3701 1772.93 63.421 Q1777.11 67.4314 1784.52 67.4314 Q1788.81 67.4314 1792.82 66.3781 Q1796.88 65.3249 1800.85 63.2184 L1800.85 70.267 Q1796.83 71.9684 1792.62 72.8596 Q1788.41 73.7508 1784.07 73.7508 Q1773.22 73.7508 1766.86 67.4314 Q1760.54 61.1119 1760.54 50.3365 Q1760.54 39.1965 1766.53 32.6746 Q1772.57 26.1121 1782.78 26.1121 Q1791.93 26.1121 1797.24 32.0264 Q1802.59 37.9003 1802.59 48.0275 M1795.13 45.84 Q1795.05 39.7232 1791.69 36.0774 Q1788.37 32.4315 1782.86 32.4315 Q1776.62 32.4315 1772.85 35.9558 Q1769.13 39.4801 1768.56 45.8805 L1795.13 45.84 Z" fill="#000000" fill-rule="nonzero" fill-opacity="1"></path><path clip-path="url(#clip060)" d="M1844.68 34.0924 L1844.68 9.54393 L1852.13 9.54393 L1852.13 72.576 L1844.68 72.576 L1844.68 65.7705 Q1842.33 69.8214 1838.72 71.8063 Q1835.16 73.7508 1830.13 73.7508 Q1821.91 73.7508 1816.72 67.1883 Q1811.58 60.6258 1811.58 49.9314 Q1811.58 39.2371 1816.72 32.6746 Q1821.91 26.1121 1830.13 26.1121 Q1835.16 26.1121 1838.72 28.0971 Q1842.33 30.0415 1844.68 34.0924 M1819.28 49.9314 Q1819.28 58.1548 1822.64 62.8538 Q1826.04 67.5124 1831.96 67.5124 Q1837.87 67.5124 1841.27 62.8538 Q1844.68 58.1548 1844.68 49.9314 Q1844.68 41.7081 1841.27 37.0496 Q1837.87 32.3505 1831.96 32.3505 Q1826.04 32.3505 1822.64 37.0496 Q1819.28 41.7081 1819.28 49.9314 Z" fill="#000000" fill-rule="nonzero" fill-opacity="1"></path><path clip-path="url(#clip060)" d="M1866.31 9.62495 L1872.79 9.62495 Q1878.87 19.1851 1881.86 28.3401 Q1884.9 37.4952 1884.9 46.5287 Q1884.9 55.6027 1881.86 64.7983 Q1878.87 73.9938 1872.79 83.5134 L1866.31 83.5134 Q1871.7 74.2369 1874.33 65.0818 Q1877 55.8863 1877 46.5287 Q1877 37.1711 1874.33 28.0566 Q1871.7 18.942 1866.31 9.62495 Z" fill="#000000" fill-rule="nonzero" fill-opacity="1"></path><polyline clip-path="url(#clip062)" style="stroke:#ff0000; stroke-linecap:round; stroke-linejoin:round; stroke-width:4; stroke-opacity:0.4; fill:none" points="338.583,951.179 358.336,738.914 378.088,1057.81 397.841,843.35 417.594,595.725 437.346,1173.82 457.099,640.764 476.851,548.664 496.604,785.85 516.357,742.795 536.109,739.511 555.862,617.99 575.614,1148.17 595.367,1169.72 615.12,606.469 634.872,1142.72 654.625,439.957 674.377,497.113 694.13,662.505 713.883,892.292 733.635,345.244 753.388,235.898 773.14,514.89 792.893,471.307 812.646,787.154 832.398,635.346 852.151,305.074 871.903,978.556 891.656,660.112 911.409,690.893 931.161,768.144 950.914,967.075 970.666,461.647 990.419,733.511 1010.17,684.821 1029.92,843.961 1049.68,645.947 1069.43,859.337 1089.18,803.829 1108.93,800.09 1128.69,1092.27 1148.44,771.715 1168.19,1017.38 1187.95,878.64 1207.7,1161.92 1227.45,1326.05 1247.2,1459.08 1266.96,1068.83 1286.71,1165.51 1306.46,1124.59 1326.21,1468.58 1345.97,937.519 1365.72,1272.7 1385.47,1188.96 1405.22,1450.21 1424.98,1034.55 1444.73,1243.72 1464.48,979.564 1484.23,924.685 1503.99,1087.29 1523.74,1516.5 1543.49,1016.17 1563.24,1204.31 1583,845.494 1602.75,1107.21 1622.5,1072.19 1642.25,1338.61 1662.01,1739.25 1681.76,1207.85 1701.51,1124.98 1721.27,1493.25 1741.02,1616.95 1760.77,1340.24 1780.52,1240.76 1800.28,911.202 1820.03,1077.14 1839.78,1340.97 1859.53,1327.61 1879.29,1560.58 1899.04,1379.09 1918.79,1253.63 1938.54,1007.25 1958.3,1297.45 1978.05,839.631 1997.8,1136.6 2017.55,977.12 2037.31,1024.88 2057.06,550.723 2076.81,1556.66 2096.56,723.142 2116.32,975.057 2136.07,505.305 2155.82,893.443 2175.58,1136.9 2195.33,726.062 2215.08,900.169 2234.83,722.596 2254.59,998.226 2274.34,867.931 2294.09,875.959 "></polyline>
<polyline clip-path="url(#clip062)" style="stroke:#ff0000; stroke-linecap:round; stroke-linejoin:round; stroke-width:4; stroke-opacity:0.4; fill:none" points="338.583,1257.51 358.336,1058.38 378.088,994.712 397.841,1233.26 417.594,1473.28 437.346,1048.32 457.099,1068.33 476.851,762.712 496.604,1572.34 516.357,1176.75 536.109,1165.51 555.862,1338.28 575.614,1486.83 595.367,1419.13 615.12,1222.37 634.872,1574 654.625,1010.13 674.377,1556.53 694.13,1367.89 713.883,1308.45 733.635,1351.5 753.388,1356.47 773.14,1115.05 792.893,1227.91 812.646,1114.67 832.398,721.581 852.151,1364.7 871.903,1236.36 891.656,1157.71 911.409,998.759 931.161,612.459 950.914,1297.01 970.666,1195.24 990.419,1328.08 1010.17,864.42 1029.92,1254.2 1049.68,1380.91 1069.43,1132.41 1089.18,1148.87 1108.93,902.759 1128.69,931.116 1148.44,878.758 1168.19,1097.82 1187.95,811.15 1207.7,926.56 1227.45,951.797 1247.2,816.181 1266.96,496.633 1286.71,1065.93 1306.46,647.32 1326.21,1014.46 1345.97,895.623 1365.72,751.385 1385.47,1061.39 1405.22,167.117 1424.98,681.362 1444.73,720.272 1464.48,894.88 1484.23,539.051 1503.99,763.021 1523.74,706.759 1543.49,1001.64 1563.24,595.123 1583,403.993 1602.75,448.402 1622.5,709.104 1642.25,785.942 1662.01,1074.5 1681.76,256.593 1701.51,456.127 1721.27,148.514 1741.02,846.612 1760.77,583.314 1780.52,707.14 1800.28,632.438 1820.03,523.272 1839.78,611.032 1859.53,552.704 1879.29,822.498 1899.04,330.11 1918.79,587.739 1938.54,703.402 1958.3,667.568 1978.05,847.844 1997.8,845.01 2017.55,1129.04 2037.31,971.667 2057.06,1083.86 2076.81,566.989 2096.56,1000.81 2116.32,704.628 2136.07,1031.46 2155.82,612.2 2175.58,708.028 2195.33,801.662 2215.08,831.548 2234.83,817.894 2254.59,1031.33 2274.34,1294.41 2294.09,1039.83 "></polyline>
<polyline clip-path="url(#clip062)" style="stroke:#ff0000; stroke-linecap:round; stroke-linejoin:round; stroke-width:4; stroke-opacity:0.4; fill:none" points="338.583,790.259 358.336,747.154 378.088,817.157 397.841,1000.89 417.594,1325.9 437.346,851.561 457.099,970.01 476.851,1133.89 496.604,703.203 516.357,764.434 536.109,1113.51 555.862,942.252 575.614,1123.39 595.367,747.619 615.12,1039.97 634.872,1216.65 654.625,987.374 674.377,1542.93 694.13,1301.48 713.883,1178.72 733.635,1483.19 753.388,1367.84 773.14,1442.82 792.893,1132.56 812.646,1331.01 832.398,1114.96 852.151,1207.37 871.903,971.077 891.656,1115.93 911.409,1422.65 931.161,1147.04 950.914,1037.92 970.666,1477.13 990.419,1464.85 1010.17,1003.41 1029.92,1094.83 1049.68,1219.77 1069.43,736.843 1089.18,1393.95 1108.93,1214.12 1128.69,1093.89 1148.44,1230.22 1168.19,1050.01 1187.95,1180.88 1207.7,1265.22 1227.45,1403.93 1247.2,1319.79 1266.96,1104.6 1286.71,1028.14 1306.46,1048.83 1326.21,955.985 1345.97,1161.99 1365.72,1015.7 1385.47,886.288 1405.22,989.617 1424.98,680.288 1444.73,902.564 1464.48,1234.82 1484.23,768.197 1503.99,888.448 1523.74,922.043 1543.49,591.355 1563.24,767.104 1583,661.326 1602.75,374.683 1622.5,375.321 1642.25,935.516 1662.01,641.592 1681.76,354.46 1701.51,899.644 1721.27,334.616 1741.02,532.895 1760.77,601.866 1780.52,712.512 1800.28,821.415 1820.03,854.542 1839.78,559.44 1859.53,838.168 1879.29,662.874 1899.04,501.375 1918.79,870.951 1938.54,673.938 1958.3,737.599 1978.05,866.626 1997.8,608.597 2017.55,500.81 2037.31,660.945 2057.06,692.107 2076.81,724.932 2096.56,677.175 2116.32,854.884 2136.07,692.838 2155.82,492.234 2175.58,813.486 2195.33,753.107 2215.08,661.828 2234.83,880.328 2254.59,682.477 2274.34,443.173 2294.09,1111.41 "></polyline>
<path clip-path="url(#clip060)" d="M2679.92 1786.97 L4752.76 1786.97 L4752.76 100.792 L2679.92 100.792  Z" fill="#ffffff" fill-rule="evenodd" fill-opacity="1"></path>
<defs>
  <clipPath id="clip063">
    <rect x="2679" y="100" width="2074" height="1687"></rect>
  </clipPath>
</defs>
<polyline clip-path="url(#clip063)" style="stroke:#000000; stroke-linecap:round; stroke-linejoin:round; stroke-width:2; stroke-opacity:0.1; fill:none" points="2718.83,1786.97 2718.83,100.792 "></polyline>
<polyline clip-path="url(#clip063)" style="stroke:#000000; stroke-linecap:round; stroke-linejoin:round; stroke-width:2; stroke-opacity:0.1; fill:none" points="3212.65,1786.97 3212.65,100.792 "></polyline>
<polyline clip-path="url(#clip063)" style="stroke:#000000; stroke-linecap:round; stroke-linejoin:round; stroke-width:2; stroke-opacity:0.1; fill:none" points="3706.46,1786.97 3706.46,100.792 "></polyline>
<polyline clip-path="url(#clip063)" style="stroke:#000000; stroke-linecap:round; stroke-linejoin:round; stroke-width:2; stroke-opacity:0.1; fill:none" points="4200.28,1786.97 4200.28,100.792 "></polyline>
<polyline clip-path="url(#clip063)" style="stroke:#000000; stroke-linecap:round; stroke-linejoin:round; stroke-width:2; stroke-opacity:0.1; fill:none" points="4694.09,1786.97 4694.09,100.792 "></polyline>
<polyline clip-path="url(#clip060)" style="stroke:#000000; stroke-linecap:round; stroke-linejoin:round; stroke-width:4; stroke-opacity:1; fill:none" points="2679.92,1786.97 4752.76,1786.97 "></polyline>
<polyline clip-path="url(#clip060)" style="stroke:#000000; stroke-linecap:round; stroke-linejoin:round; stroke-width:4; stroke-opacity:1; fill:none" points="2718.83,1786.97 2718.83,1768.07 "></polyline>
<polyline clip-path="url(#clip060)" style="stroke:#000000; stroke-linecap:round; stroke-linejoin:round; stroke-width:4; stroke-opacity:1; fill:none" points="3212.65,1786.97 3212.65,1768.07 "></polyline>
<polyline clip-path="url(#clip060)" style="stroke:#000000; stroke-linecap:round; stroke-linejoin:round; stroke-width:4; stroke-opacity:1; fill:none" points="3706.46,1786.97 3706.46,1768.07 "></polyline>
<polyline clip-path="url(#clip060)" style="stroke:#000000; stroke-linecap:round; stroke-linejoin:round; stroke-width:4; stroke-opacity:1; fill:none" points="4200.28,1786.97 4200.28,1768.07 "></polyline>
<polyline clip-path="url(#clip060)" style="stroke:#000000; stroke-linecap:round; stroke-linejoin:round; stroke-width:4; stroke-opacity:1; fill:none" points="4694.09,1786.97 4694.09,1768.07 "></polyline>
<path clip-path="url(#clip060)" d="M2718.83 1837.09 Q2715.22 1837.09 2713.39 1840.65 Q2711.59 1844.19 2711.59 1851.32 Q2711.59 1858.43 2713.39 1861.99 Q2715.22 1865.54 2718.83 1865.54 Q2722.46 1865.54 2724.27 1861.99 Q2726.1 1858.43 2726.1 1851.32 Q2726.1 1844.19 2724.27 1840.65 Q2722.46 1837.09 2718.83 1837.09 M2718.83 1833.38 Q2724.64 1833.38 2727.7 1837.99 Q2730.78 1842.57 2730.78 1851.32 Q2730.78 1860.05 2727.7 1864.66 Q2724.64 1869.24 2718.83 1869.24 Q2713.02 1869.24 2709.94 1864.66 Q2706.89 1860.05 2706.89 1851.32 Q2706.89 1842.57 2709.94 1837.99 Q2713.02 1833.38 2718.83 1833.38 Z" fill="#000000" fill-rule="nonzero" fill-opacity="1"></path><path clip-path="url(#clip060)" d="M3191.92 1864.63 L3208.24 1864.63 L3208.24 1868.57 L3186.29 1868.57 L3186.29 1864.63 Q3188.95 1861.88 3193.54 1857.25 Q3198.14 1852.6 3199.32 1851.25 Q3201.57 1848.73 3202.45 1846.99 Q3203.35 1845.23 3203.35 1843.54 Q3203.35 1840.79 3201.41 1839.05 Q3199.49 1837.32 3196.38 1837.32 Q3194.19 1837.32 3191.73 1838.08 Q3189.3 1838.85 3186.52 1840.4 L3186.52 1835.67 Q3189.35 1834.54 3191.8 1833.96 Q3194.25 1833.38 3196.29 1833.38 Q3201.66 1833.38 3204.86 1836.07 Q3208.05 1838.75 3208.05 1843.24 Q3208.05 1845.37 3207.24 1847.29 Q3206.45 1849.19 3204.35 1851.79 Q3203.77 1852.46 3200.67 1855.67 Q3197.56 1858.87 3191.92 1864.63 Z" fill="#000000" fill-rule="nonzero" fill-opacity="1"></path><path clip-path="url(#clip060)" d="M3218.1 1834.01 L3236.45 1834.01 L3236.45 1837.94 L3222.38 1837.94 L3222.38 1846.42 Q3223.4 1846.07 3224.42 1845.91 Q3225.43 1845.72 3226.45 1845.72 Q3232.24 1845.72 3235.62 1848.89 Q3239 1852.06 3239 1857.48 Q3239 1863.06 3235.53 1866.16 Q3232.06 1869.24 3225.74 1869.24 Q3223.56 1869.24 3221.29 1868.87 Q3219.05 1868.5 3216.64 1867.76 L3216.64 1863.06 Q3218.72 1864.19 3220.94 1864.75 Q3223.17 1865.3 3225.64 1865.3 Q3229.65 1865.3 3231.99 1863.2 Q3234.32 1861.09 3234.32 1857.48 Q3234.32 1853.87 3231.99 1851.76 Q3229.65 1849.66 3225.64 1849.66 Q3223.77 1849.66 3221.89 1850.07 Q3220.04 1850.49 3218.1 1851.37 L3218.1 1834.01 Z" fill="#000000" fill-rule="nonzero" fill-opacity="1"></path><path clip-path="url(#clip060)" d="M3681.16 1834.01 L3699.52 1834.01 L3699.52 1837.94 L3685.44 1837.94 L3685.44 1846.42 Q3686.46 1846.07 3687.48 1845.91 Q3688.5 1845.72 3689.52 1845.72 Q3695.3 1845.72 3698.68 1848.89 Q3702.06 1852.06 3702.06 1857.48 Q3702.06 1863.06 3698.59 1866.16 Q3695.12 1869.24 3688.8 1869.24 Q3686.62 1869.24 3684.35 1868.87 Q3682.11 1868.5 3679.7 1867.76 L3679.7 1863.06 Q3681.78 1864.19 3684.01 1864.75 Q3686.23 1865.3 3688.71 1865.3 Q3692.71 1865.3 3695.05 1863.2 Q3697.39 1861.09 3697.39 1857.48 Q3697.39 1853.87 3695.05 1851.76 Q3692.71 1849.66 3688.71 1849.66 Q3686.83 1849.66 3684.96 1850.07 Q3683.1 1850.49 3681.16 1851.37 L3681.16 1834.01 Z" fill="#000000" fill-rule="nonzero" fill-opacity="1"></path><path clip-path="url(#clip060)" d="M3721.28 1837.09 Q3717.66 1837.09 3715.84 1840.65 Q3714.03 1844.19 3714.03 1851.32 Q3714.03 1858.43 3715.84 1861.99 Q3717.66 1865.54 3721.28 1865.54 Q3724.91 1865.54 3726.72 1861.99 Q3728.54 1858.43 3728.54 1851.32 Q3728.54 1844.19 3726.72 1840.65 Q3724.91 1837.09 3721.28 1837.09 M3721.28 1833.38 Q3727.09 1833.38 3730.14 1837.99 Q3733.22 1842.57 3733.22 1851.32 Q3733.22 1860.05 3730.14 1864.66 Q3727.09 1869.24 3721.28 1869.24 Q3715.47 1869.24 3712.39 1864.66 Q3709.33 1860.05 3709.33 1851.32 Q3709.33 1842.57 3712.39 1837.99 Q3715.47 1833.38 3721.28 1833.38 Z" fill="#000000" fill-rule="nonzero" fill-opacity="1"></path><path clip-path="url(#clip060)" d="M4174.13 1834.01 L4196.35 1834.01 L4196.35 1836 L4183.81 1868.57 L4178.92 1868.57 L4190.73 1837.94 L4174.13 1837.94 L4174.13 1834.01 Z" fill="#000000" fill-rule="nonzero" fill-opacity="1"></path><path clip-path="url(#clip060)" d="M4205.52 1834.01 L4223.88 1834.01 L4223.88 1837.94 L4209.8 1837.94 L4209.8 1846.42 Q4210.82 1846.07 4211.84 1845.91 Q4212.86 1845.72 4213.88 1845.72 Q4219.66 1845.72 4223.04 1848.89 Q4226.42 1852.06 4226.42 1857.48 Q4226.42 1863.06 4222.95 1866.16 Q4219.48 1869.24 4213.16 1869.24 Q4210.98 1869.24 4208.71 1868.87 Q4206.47 1868.5 4204.06 1867.76 L4204.06 1863.06 Q4206.14 1864.19 4208.37 1864.75 Q4210.59 1865.3 4213.06 1865.3 Q4217.07 1865.3 4219.41 1863.2 Q4221.75 1861.09 4221.75 1857.48 Q4221.75 1853.87 4219.41 1851.76 Q4217.07 1849.66 4213.06 1849.66 Q4211.19 1849.66 4209.31 1850.07 Q4207.46 1850.49 4205.52 1851.37 L4205.52 1834.01 Z" fill="#000000" fill-rule="nonzero" fill-opacity="1"></path><path clip-path="url(#clip060)" d="M4653.7 1864.63 L4661.34 1864.63 L4661.34 1838.27 L4653.03 1839.93 L4653.03 1835.67 L4661.29 1834.01 L4665.97 1834.01 L4665.97 1864.63 L4673.6 1864.63 L4673.6 1868.57 L4653.7 1868.57 L4653.7 1864.63 Z" fill="#000000" fill-rule="nonzero" fill-opacity="1"></path><path clip-path="url(#clip060)" d="M4693.05 1837.09 Q4689.44 1837.09 4687.61 1840.65 Q4685.8 1844.19 4685.8 1851.32 Q4685.8 1858.43 4687.61 1861.99 Q4689.44 1865.54 4693.05 1865.54 Q4696.68 1865.54 4698.49 1861.99 Q4700.32 1858.43 4700.32 1851.32 Q4700.32 1844.19 4698.49 1840.65 Q4696.68 1837.09 4693.05 1837.09 M4693.05 1833.38 Q4698.86 1833.38 4701.91 1837.99 Q4704.99 1842.57 4704.99 1851.32 Q4704.99 1860.05 4701.91 1864.66 Q4698.86 1869.24 4693.05 1869.24 Q4687.24 1869.24 4684.16 1864.66 Q4681.1 1860.05 4681.1 1851.32 Q4681.1 1842.57 4684.16 1837.99 Q4687.24 1833.38 4693.05 1833.38 Z" fill="#000000" fill-rule="nonzero" fill-opacity="1"></path><path clip-path="url(#clip060)" d="M4723.21 1837.09 Q4719.6 1837.09 4717.77 1840.65 Q4715.97 1844.19 4715.97 1851.32 Q4715.97 1858.43 4717.77 1861.99 Q4719.6 1865.54 4723.21 1865.54 Q4726.85 1865.54 4728.65 1861.99 Q4730.48 1858.43 4730.48 1851.32 Q4730.48 1844.19 4728.65 1840.65 Q4726.85 1837.09 4723.21 1837.09 M4723.21 1833.38 Q4729.02 1833.38 4732.08 1837.99 Q4735.16 1842.57 4735.16 1851.32 Q4735.16 1860.05 4732.08 1864.66 Q4729.02 1869.24 4723.21 1869.24 Q4717.4 1869.24 4714.32 1864.66 Q4711.27 1860.05 4711.27 1851.32 Q4711.27 1842.57 4714.32 1837.99 Q4717.4 1833.38 4723.21 1833.38 Z" fill="#000000" fill-rule="nonzero" fill-opacity="1"></path><path clip-path="url(#clip060)" d="M3638.21 1920.31 L3678.41 1920.31 L3678.41 1925.72 L3661.54 1925.72 L3661.54 1967.83 L3655.08 1967.83 L3655.08 1925.72 L3638.21 1925.72 L3638.21 1920.31 Z" fill="#000000" fill-rule="nonzero" fill-opacity="1"></path><path clip-path="url(#clip060)" d="M3682.36 1932.18 L3688.22 1932.18 L3688.22 1967.83 L3682.36 1967.83 L3682.36 1932.18 M3682.36 1918.31 L3688.22 1918.31 L3688.22 1925.72 L3682.36 1925.72 L3682.36 1918.31 Z" fill="#000000" fill-rule="nonzero" fill-opacity="1"></path><path clip-path="url(#clip060)" d="M3728.22 1939.03 Q3730.42 1935.08 3733.48 1933.2 Q3736.53 1931.32 3740.67 1931.32 Q3746.24 1931.32 3749.26 1935.24 Q3752.29 1939.12 3752.29 1946.32 L3752.29 1967.83 L3746.4 1967.83 L3746.4 1946.51 Q3746.4 1941.38 3744.58 1938.9 Q3742.77 1936.42 3739.05 1936.42 Q3734.5 1936.42 3731.85 1939.44 Q3729.21 1942.46 3729.21 1947.68 L3729.21 1967.83 L3723.32 1967.83 L3723.32 1946.51 Q3723.32 1941.35 3721.51 1938.9 Q3719.69 1936.42 3715.91 1936.42 Q3711.42 1936.42 3708.78 1939.47 Q3706.14 1942.5 3706.14 1947.68 L3706.14 1967.83 L3700.25 1967.83 L3700.25 1932.18 L3706.14 1932.18 L3706.14 1937.72 Q3708.14 1934.44 3710.94 1932.88 Q3713.74 1931.32 3717.59 1931.32 Q3721.48 1931.32 3724.18 1933.3 Q3726.92 1935.27 3728.22 1939.03 Z" fill="#000000" fill-rule="nonzero" fill-opacity="1"></path><path clip-path="url(#clip060)" d="M3794.46 1948.54 L3794.46 1951.41 L3767.53 1951.41 Q3767.92 1957.46 3771.16 1960.64 Q3774.44 1963.79 3780.26 1963.79 Q3783.64 1963.79 3786.79 1962.96 Q3789.97 1962.13 3793.09 1960.48 L3793.09 1966.02 Q3789.94 1967.35 3786.63 1968.05 Q3783.32 1968.75 3779.91 1968.75 Q3771.38 1968.75 3766.39 1963.79 Q3761.42 1958.82 3761.42 1950.36 Q3761.42 1941.61 3766.13 1936.48 Q3770.88 1931.32 3778.9 1931.32 Q3786.09 1931.32 3790.26 1935.97 Q3794.46 1940.59 3794.46 1948.54 M3788.6 1946.82 Q3788.54 1942.02 3785.9 1939.15 Q3783.29 1936.29 3778.96 1936.29 Q3774.06 1936.29 3771.1 1939.06 Q3768.17 1941.83 3767.72 1946.86 L3788.6 1946.82 Z" fill="#000000" fill-rule="nonzero" fill-opacity="1"></path><polyline clip-path="url(#clip063)" style="stroke:#000000; stroke-linecap:round; stroke-linejoin:round; stroke-width:2; stroke-opacity:0.1; fill:none" points="2679.92,1569.35 4752.76,1569.35 "></polyline>
<polyline clip-path="url(#clip063)" style="stroke:#000000; stroke-linecap:round; stroke-linejoin:round; stroke-width:2; stroke-opacity:0.1; fill:none" points="2679.92,1218.34 4752.76,1218.34 "></polyline>
<polyline clip-path="url(#clip063)" style="stroke:#000000; stroke-linecap:round; stroke-linejoin:round; stroke-width:2; stroke-opacity:0.1; fill:none" points="2679.92,867.335 4752.76,867.335 "></polyline>
<polyline clip-path="url(#clip063)" style="stroke:#000000; stroke-linecap:round; stroke-linejoin:round; stroke-width:2; stroke-opacity:0.1; fill:none" points="2679.92,516.325 4752.76,516.325 "></polyline>
<polyline clip-path="url(#clip063)" style="stroke:#000000; stroke-linecap:round; stroke-linejoin:round; stroke-width:2; stroke-opacity:0.1; fill:none" points="2679.92,165.315 4752.76,165.315 "></polyline>
<polyline clip-path="url(#clip060)" style="stroke:#000000; stroke-linecap:round; stroke-linejoin:round; stroke-width:4; stroke-opacity:1; fill:none" points="2679.92,1786.97 2679.92,100.792 "></polyline>
<polyline clip-path="url(#clip060)" style="stroke:#000000; stroke-linecap:round; stroke-linejoin:round; stroke-width:4; stroke-opacity:1; fill:none" points="2679.92,1569.35 2698.82,1569.35 "></polyline>
<polyline clip-path="url(#clip060)" style="stroke:#000000; stroke-linecap:round; stroke-linejoin:round; stroke-width:4; stroke-opacity:1; fill:none" points="2679.92,1218.34 2698.82,1218.34 "></polyline>
<polyline clip-path="url(#clip060)" style="stroke:#000000; stroke-linecap:round; stroke-linejoin:round; stroke-width:4; stroke-opacity:1; fill:none" points="2679.92,867.335 2698.82,867.335 "></polyline>
<polyline clip-path="url(#clip060)" style="stroke:#000000; stroke-linecap:round; stroke-linejoin:round; stroke-width:4; stroke-opacity:1; fill:none" points="2679.92,516.325 2698.82,516.325 "></polyline>
<polyline clip-path="url(#clip060)" style="stroke:#000000; stroke-linecap:round; stroke-linejoin:round; stroke-width:4; stroke-opacity:1; fill:none" points="2679.92,165.315 2698.82,165.315 "></polyline>
<path clip-path="url(#clip060)" d="M2547.8 1569.81 L2577.48 1569.81 L2577.48 1573.74 L2547.8 1573.74 L2547.8 1569.81 Z" fill="#000000" fill-rule="nonzero" fill-opacity="1"></path><path clip-path="url(#clip060)" d="M2591.6 1582.7 L2607.92 1582.7 L2607.92 1586.63 L2585.97 1586.63 L2585.97 1582.7 Q2588.64 1579.94 2593.22 1575.31 Q2597.83 1570.66 2599.01 1569.32 Q2601.25 1566.8 2602.13 1565.06 Q2603.03 1563.3 2603.03 1561.61 Q2603.03 1558.86 2601.09 1557.12 Q2599.17 1555.38 2596.07 1555.38 Q2593.87 1555.38 2591.41 1556.15 Q2588.98 1556.91 2586.21 1558.46 L2586.21 1553.74 Q2589.03 1552.61 2591.48 1552.03 Q2593.94 1551.45 2595.97 1551.45 Q2601.34 1551.45 2604.54 1554.13 Q2607.73 1556.82 2607.73 1561.31 Q2607.73 1563.44 2606.92 1565.36 Q2606.14 1567.26 2604.03 1569.85 Q2603.45 1570.52 2600.35 1573.74 Q2597.25 1576.94 2591.6 1582.7 Z" fill="#000000" fill-rule="nonzero" fill-opacity="1"></path><path clip-path="url(#clip060)" d="M2547.43 1218.8 L2577.11 1218.8 L2577.11 1222.73 L2547.43 1222.73 L2547.43 1218.8 Z" fill="#000000" fill-rule="nonzero" fill-opacity="1"></path><path clip-path="url(#clip060)" d="M2588.01 1231.69 L2595.65 1231.69 L2595.65 1205.32 L2587.34 1206.99 L2587.34 1202.73 L2595.6 1201.06 L2600.28 1201.06 L2600.28 1231.69 L2607.92 1231.69 L2607.92 1235.62 L2588.01 1235.62 L2588.01 1231.69 Z" fill="#000000" fill-rule="nonzero" fill-opacity="1"></path><path clip-path="url(#clip060)" d="M2595.97 853.133 Q2592.36 853.133 2590.53 856.698 Q2588.73 860.24 2588.73 867.369 Q2588.73 874.476 2590.53 878.041 Q2592.36 881.582 2595.97 881.582 Q2599.61 881.582 2601.41 878.041 Q2603.24 874.476 2603.24 867.369 Q2603.24 860.24 2601.41 856.698 Q2599.61 853.133 2595.97 853.133 M2595.97 849.43 Q2601.78 849.43 2604.84 854.036 Q2607.92 858.619 2607.92 867.369 Q2607.92 876.096 2604.84 880.703 Q2601.78 885.286 2595.97 885.286 Q2590.16 885.286 2587.08 880.703 Q2584.03 876.096 2584.03 867.369 Q2584.03 858.619 2587.08 854.036 Q2590.16 849.43 2595.97 849.43 Z" fill="#000000" fill-rule="nonzero" fill-opacity="1"></path><path clip-path="url(#clip060)" d="M2588.01 529.67 L2595.65 529.67 L2595.65 503.304 L2587.34 504.971 L2587.34 500.712 L2595.6 499.045 L2600.28 499.045 L2600.28 529.67 L2607.92 529.67 L2607.92 533.605 L2588.01 533.605 L2588.01 529.67 Z" fill="#000000" fill-rule="nonzero" fill-opacity="1"></path><path clip-path="url(#clip060)" d="M2591.6 178.66 L2607.92 178.66 L2607.92 182.595 L2585.97 182.595 L2585.97 178.66 Q2588.64 175.905 2593.22 171.276 Q2597.83 166.623 2599.01 165.28 Q2601.25 162.757 2602.13 161.021 Q2603.03 159.262 2603.03 157.572 Q2603.03 154.818 2601.09 153.081 Q2599.17 151.345 2596.07 151.345 Q2593.87 151.345 2591.41 152.109 Q2588.98 152.873 2586.21 154.424 L2586.21 149.702 Q2589.03 148.568 2591.48 147.989 Q2593.94 147.41 2595.97 147.41 Q2601.34 147.41 2604.54 150.095 Q2607.73 152.78 2607.73 157.271 Q2607.73 159.401 2606.92 161.322 Q2606.14 163.22 2604.03 165.813 Q2603.45 166.484 2600.35 169.702 Q2597.25 172.896 2591.6 178.66 Z" fill="#000000" fill-rule="nonzero" fill-opacity="1"></path><path clip-path="url(#clip060)" d="M2425.53 927.265 L2442.87 940.156 L2461.18 926.597 L2461.18 933.504 L2447.17 943.88 L2461.18 954.256 L2461.18 961.163 L2442.52 947.317 L2425.53 959.985 L2425.53 953.078 L2438.23 943.625 L2425.53 934.172 L2425.53 927.265 Z" fill="#000000" fill-rule="nonzero" fill-opacity="1"></path><path clip-path="url(#clip060)" d="M3196.55 16.7545 L3196.55 25.383 Q3192.41 21.5346 3187.71 19.6307 Q3183.06 17.7268 3177.79 17.7268 Q3167.42 17.7268 3161.91 24.0867 Q3156.4 30.4061 3156.4 42.3968 Q3156.4 54.3469 3161.91 60.7069 Q3167.42 67.0263 3177.79 67.0263 Q3183.06 67.0263 3187.71 65.1223 Q3192.41 63.2184 3196.55 59.3701 L3196.55 67.9175 Q3192.25 70.8341 3187.43 72.2924 Q3182.65 73.7508 3177.3 73.7508 Q3163.57 73.7508 3155.67 65.3654 Q3147.77 56.9395 3147.77 42.3968 Q3147.77 27.8135 3155.67 19.4281 Q3163.57 11.0023 3177.3 11.0023 Q3182.73 11.0023 3187.51 12.4606 Q3192.33 13.8784 3196.55 16.7545 Z" fill="#000000" fill-rule="nonzero" fill-opacity="1"></path><path clip-path="url(#clip060)" d="M3208.86 9.54393 L3216.31 9.54393 L3216.31 72.576 L3208.86 72.576 L3208.86 9.54393 Z" fill="#000000" fill-rule="nonzero" fill-opacity="1"></path><path clip-path="url(#clip060)" d="M3252.53 49.7694 Q3243.5 49.7694 3240.01 51.8354 Q3236.53 53.9013 3236.53 58.8839 Q3236.53 62.8538 3239.12 65.2034 Q3241.75 67.5124 3246.25 67.5124 Q3252.45 67.5124 3256.17 63.1374 Q3259.94 58.7219 3259.94 51.4303 L3259.94 49.7694 L3252.53 49.7694 M3267.4 46.6907 L3267.4 72.576 L3259.94 72.576 L3259.94 65.6895 Q3257.39 69.8214 3253.58 71.8063 Q3249.77 73.7508 3244.26 73.7508 Q3237.3 73.7508 3233.17 69.8619 Q3229.07 65.9325 3229.07 59.3701 Q3229.07 51.7138 3234.18 47.825 Q3239.32 43.9361 3249.49 43.9361 L3259.94 43.9361 L3259.94 43.2069 Q3259.94 38.0623 3256.54 35.2672 Q3253.18 32.4315 3247.06 32.4315 Q3243.17 32.4315 3239.48 33.3632 Q3235.8 34.295 3232.4 36.1584 L3232.4 29.2718 Q3236.49 27.692 3240.34 26.9223 Q3244.18 26.1121 3247.83 26.1121 Q3257.67 26.1121 3262.53 31.2163 Q3267.4 36.3204 3267.4 46.6907 Z" fill="#000000" fill-rule="nonzero" fill-opacity="1"></path><path clip-path="url(#clip060)" d="M3311.67 28.5427 L3311.67 35.5912 Q3308.51 33.9709 3305.11 33.1607 Q3301.71 32.3505 3298.06 32.3505 Q3292.51 32.3505 3289.72 34.0519 Q3286.96 35.7533 3286.96 39.156 Q3286.96 41.7486 3288.95 43.2475 Q3290.93 44.7058 3296.93 46.0426 L3299.48 46.6097 Q3307.42 48.3111 3310.74 51.4303 Q3314.1 54.509 3314.1 60.0587 Q3314.1 66.3781 3309.08 70.0644 Q3304.1 73.7508 3295.35 73.7508 Q3291.7 73.7508 3287.73 73.0216 Q3283.8 72.3329 3279.43 70.9151 L3279.43 63.2184 Q3283.56 65.3654 3287.57 66.4591 Q3291.58 67.5124 3295.51 67.5124 Q3300.77 67.5124 3303.61 65.73 Q3306.45 63.9071 3306.45 60.6258 Q3306.45 57.5877 3304.38 55.9673 Q3302.35 54.3469 3295.43 52.8481 L3292.84 52.2405 Q3285.91 50.7821 3282.83 47.7845 Q3279.75 44.7463 3279.75 39.4801 Q3279.75 33.0797 3284.29 29.5959 Q3288.82 26.1121 3297.17 26.1121 Q3301.3 26.1121 3304.95 26.7198 Q3308.59 27.3274 3311.67 28.5427 Z" fill="#000000" fill-rule="nonzero" fill-opacity="1"></path><path clip-path="url(#clip060)" d="M3354.9 28.5427 L3354.9 35.5912 Q3351.74 33.9709 3348.33 33.1607 Q3344.93 32.3505 3341.28 32.3505 Q3335.73 32.3505 3332.94 34.0519 Q3330.18 35.7533 3330.18 39.156 Q3330.18 41.7486 3332.17 43.2475 Q3334.15 44.7058 3340.15 46.0426 L3342.7 46.6097 Q3350.64 48.3111 3353.96 51.4303 Q3357.33 54.509 3357.33 60.0587 Q3357.33 66.3781 3352.3 70.0644 Q3347.32 73.7508 3338.57 73.7508 Q3334.92 73.7508 3330.95 73.0216 Q3327.02 72.3329 3322.65 70.9151 L3322.65 63.2184 Q3326.78 65.3654 3330.79 66.4591 Q3334.8 67.5124 3338.73 67.5124 Q3344 67.5124 3346.83 65.73 Q3349.67 63.9071 3349.67 60.6258 Q3349.67 57.5877 3347.6 55.9673 Q3345.58 54.3469 3338.65 52.8481 L3336.06 52.2405 Q3329.13 50.7821 3326.05 47.7845 Q3322.97 44.7463 3322.97 39.4801 Q3322.97 33.0797 3327.51 29.5959 Q3332.05 26.1121 3340.39 26.1121 Q3344.52 26.1121 3348.17 26.7198 Q3351.82 27.3274 3354.9 28.5427 Z" fill="#000000" fill-rule="nonzero" fill-opacity="1"></path><path clip-path="url(#clip060)" d="M3398.04 65.6895 L3411.41 65.6895 L3411.41 19.5497 L3396.86 22.4663 L3396.86 15.0127 L3411.32 12.096 L3419.51 12.096 L3419.51 65.6895 L3432.87 65.6895 L3432.87 72.576 L3398.04 72.576 L3398.04 65.6895 Z" fill="#000000" fill-rule="nonzero" fill-opacity="1"></path><path clip-path="url(#clip060)" d="M3511.3 14.0809 L3511.3 22.0612 Q3506.64 19.8332 3502.51 18.7395 Q3498.38 17.6457 3494.53 17.6457 Q3487.85 17.6457 3484.2 20.2383 Q3480.59 22.8309 3480.59 27.611 Q3480.59 31.6214 3482.98 33.6873 Q3485.42 35.7128 3492.14 36.9686 L3497.08 37.9813 Q3506.24 39.7232 3510.57 44.1387 Q3514.95 48.5136 3514.95 55.8863 Q3514.95 64.6767 3509.03 69.2137 Q3503.16 73.7508 3491.78 73.7508 Q3487.48 73.7508 3482.62 72.7785 Q3477.8 71.8063 3472.61 69.9024 L3472.61 61.4765 Q3477.6 64.2716 3482.38 65.6895 Q3487.16 67.1073 3491.78 67.1073 Q3498.78 67.1073 3502.59 64.3527 Q3506.4 61.598 3506.4 56.4939 Q3506.4 52.0379 3503.64 49.5264 Q3500.93 47.0148 3494.69 45.759 L3489.71 44.7868 Q3480.55 42.9639 3476.46 39.075 Q3472.37 35.1862 3472.37 28.2591 Q3472.37 20.2383 3478 15.6203 Q3483.67 11.0023 3493.6 11.0023 Q3497.85 11.0023 3502.27 11.7719 Q3506.68 12.5416 3511.3 14.0809 Z" fill="#000000" fill-rule="nonzero" fill-opacity="1"></path><path clip-path="url(#clip060)" d="M3548 49.7694 Q3538.97 49.7694 3535.48 51.8354 Q3532 53.9013 3532 58.8839 Q3532 62.8538 3534.59 65.2034 Q3537.23 67.5124 3541.72 67.5124 Q3547.92 67.5124 3551.65 63.1374 Q3555.41 58.7219 3555.41 51.4303 L3555.41 49.7694 L3548 49.7694 M3562.87 46.6907 L3562.87 72.576 L3555.41 72.576 L3555.41 65.6895 Q3552.86 69.8214 3549.05 71.8063 Q3545.25 73.7508 3539.74 73.7508 Q3532.77 73.7508 3528.64 69.8619 Q3524.55 65.9325 3524.55 59.3701 Q3524.55 51.7138 3529.65 47.825 Q3534.8 43.9361 3544.96 43.9361 L3555.41 43.9361 L3555.41 43.2069 Q3555.41 38.0623 3552.01 35.2672 Q3548.65 32.4315 3542.53 32.4315 Q3538.64 32.4315 3534.96 33.3632 Q3531.27 34.295 3527.87 36.1584 L3527.87 29.2718 Q3531.96 27.692 3535.81 26.9223 Q3539.66 26.1121 3543.3 26.1121 Q3553.15 26.1121 3558.01 31.2163 Q3562.87 36.3204 3562.87 46.6907 Z" fill="#000000" fill-rule="nonzero" fill-opacity="1"></path><path clip-path="url(#clip060)" d="M3613.55 35.9153 Q3616.34 30.8922 3620.23 28.5022 Q3624.12 26.1121 3629.38 26.1121 Q3636.47 26.1121 3640.32 31.0947 Q3644.17 36.0368 3644.17 45.1919 L3644.17 72.576 L3636.68 72.576 L3636.68 45.4349 Q3636.68 38.913 3634.37 35.7533 Q3632.06 32.5936 3627.32 32.5936 Q3621.53 32.5936 3618.16 36.4419 Q3614.8 40.2903 3614.8 46.9338 L3614.8 72.576 L3607.31 72.576 L3607.31 45.4349 Q3607.31 38.8725 3605 35.7533 Q3602.69 32.5936 3597.87 32.5936 Q3592.16 32.5936 3588.79 36.4824 Q3585.43 40.3308 3585.43 46.9338 L3585.43 72.576 L3577.94 72.576 L3577.94 27.2059 L3585.43 27.2059 L3585.43 34.2544 Q3587.98 30.082 3591.55 28.0971 Q3595.11 26.1121 3600.02 26.1121 Q3604.96 26.1121 3608.4 28.6237 Q3611.88 31.1352 3613.55 35.9153 Z" fill="#000000" fill-rule="nonzero" fill-opacity="1"></path><path clip-path="url(#clip060)" d="M3666.25 65.7705 L3666.25 89.8329 L3658.75 89.8329 L3658.75 27.2059 L3666.25 27.2059 L3666.25 34.0924 Q3668.6 30.0415 3672.16 28.0971 Q3675.77 26.1121 3680.75 26.1121 Q3689.01 26.1121 3694.16 32.6746 Q3699.34 39.2371 3699.34 49.9314 Q3699.34 60.6258 3694.16 67.1883 Q3689.01 73.7508 3680.75 73.7508 Q3675.77 73.7508 3672.16 71.8063 Q3668.6 69.8214 3666.25 65.7705 M3691.61 49.9314 Q3691.61 41.7081 3688.2 37.0496 Q3684.84 32.3505 3678.93 32.3505 Q3673.01 32.3505 3669.61 37.0496 Q3666.25 41.7081 3666.25 49.9314 Q3666.25 58.1548 3669.61 62.8538 Q3673.01 67.5124 3678.93 67.5124 Q3684.84 67.5124 3688.2 62.8538 Q3691.61 58.1548 3691.61 49.9314 Z" fill="#000000" fill-rule="nonzero" fill-opacity="1"></path><path clip-path="url(#clip060)" d="M3711.7 9.54393 L3719.15 9.54393 L3719.15 72.576 L3711.7 72.576 L3711.7 9.54393 Z" fill="#000000" fill-rule="nonzero" fill-opacity="1"></path><path clip-path="url(#clip060)" d="M3773.56 48.0275 L3773.56 51.6733 L3739.29 51.6733 Q3739.77 59.3701 3743.9 63.421 Q3748.08 67.4314 3755.49 67.4314 Q3759.78 67.4314 3763.79 66.3781 Q3767.84 65.3249 3771.81 63.2184 L3771.81 70.267 Q3767.8 71.9684 3763.59 72.8596 Q3759.38 73.7508 3755.04 73.7508 Q3744.19 73.7508 3737.83 67.4314 Q3731.51 61.1119 3731.51 50.3365 Q3731.51 39.1965 3737.5 32.6746 Q3743.54 26.1121 3753.75 26.1121 Q3762.9 26.1121 3768.21 32.0264 Q3773.56 37.9003 3773.56 48.0275 M3766.1 45.84 Q3766.02 39.7232 3762.66 36.0774 Q3759.34 32.4315 3753.83 32.4315 Q3747.59 32.4315 3743.82 35.9558 Q3740.1 39.4801 3739.53 45.8805 L3766.1 45.84 Z" fill="#000000" fill-rule="nonzero" fill-opacity="1"></path><path clip-path="url(#clip060)" d="M3814.71 28.5427 L3814.71 35.5912 Q3811.55 33.9709 3808.15 33.1607 Q3804.75 32.3505 3801.1 32.3505 Q3795.55 32.3505 3792.76 34.0519 Q3790 35.7533 3790 39.156 Q3790 41.7486 3791.99 43.2475 Q3793.97 44.7058 3799.97 46.0426 L3802.52 46.6097 Q3810.46 48.3111 3813.78 51.4303 Q3817.14 54.509 3817.14 60.0587 Q3817.14 66.3781 3812.12 70.0644 Q3807.14 73.7508 3798.39 73.7508 Q3794.74 73.7508 3790.77 73.0216 Q3786.84 72.3329 3782.47 70.9151 L3782.47 63.2184 Q3786.6 65.3654 3790.61 66.4591 Q3794.62 67.5124 3798.55 67.5124 Q3803.82 67.5124 3806.65 65.73 Q3809.49 63.9071 3809.49 60.6258 Q3809.49 57.5877 3807.42 55.9673 Q3805.4 54.3469 3798.47 52.8481 L3795.88 52.2405 Q3788.95 50.7821 3785.87 47.7845 Q3782.79 44.7463 3782.79 39.4801 Q3782.79 33.0797 3787.33 29.5959 Q3791.87 26.1121 3800.21 26.1121 Q3804.34 26.1121 3807.99 26.7198 Q3811.63 27.3274 3814.71 28.5427 Z" fill="#000000" fill-rule="nonzero" fill-opacity="1"></path><path clip-path="url(#clip060)" d="M3873.29 9.62495 Q3867.86 18.942 3865.23 28.0566 Q3862.59 37.1711 3862.59 46.5287 Q3862.59 55.8863 3865.23 65.0818 Q3867.9 74.2369 3873.29 83.5134 L3866.81 83.5134 Q3860.73 73.9938 3857.69 64.7983 Q3854.7 55.6027 3854.7 46.5287 Q3854.7 37.4952 3857.69 28.3401 Q3860.69 19.1851 3866.81 9.62495 L3873.29 9.62495 Z" fill="#000000" fill-rule="nonzero" fill-opacity="1"></path><path clip-path="url(#clip060)" d="M3887.14 12.096 L3895.37 12.096 L3895.37 48.8377 Q3895.37 58.5599 3898.89 62.8538 Q3902.42 67.1073 3910.31 67.1073 Q3918.17 67.1073 3921.7 62.8538 Q3925.22 58.5599 3925.22 48.8377 L3925.22 12.096 L3933.45 12.096 L3933.45 49.8504 Q3933.45 61.6791 3927.57 67.7149 Q3921.74 73.7508 3910.31 73.7508 Q3898.85 73.7508 3892.98 67.7149 Q3887.14 61.6791 3887.14 49.8504 L3887.14 12.096 Z" fill="#000000" fill-rule="nonzero" fill-opacity="1"></path><path clip-path="url(#clip060)" d="M3986.19 45.1919 L3986.19 72.576 L3978.73 72.576 L3978.73 45.4349 Q3978.73 38.994 3976.22 35.7938 Q3973.71 32.5936 3968.69 32.5936 Q3962.65 32.5936 3959.17 36.4419 Q3955.68 40.2903 3955.68 46.9338 L3955.68 72.576 L3948.19 72.576 L3948.19 27.2059 L3955.68 27.2059 L3955.68 34.2544 Q3958.36 30.163 3961.96 28.1376 Q3965.61 26.1121 3970.35 26.1121 Q3978.17 26.1121 3982.18 30.9732 Q3986.19 35.7938 3986.19 45.1919 Z" fill="#000000" fill-rule="nonzero" fill-opacity="1"></path><path clip-path="url(#clip060)" d="M4029.98 28.5427 L4029.98 35.5912 Q4026.82 33.9709 4023.42 33.1607 Q4020.01 32.3505 4016.37 32.3505 Q4010.82 32.3505 4008.02 34.0519 Q4005.27 35.7533 4005.27 39.156 Q4005.27 41.7486 4007.25 43.2475 Q4009.24 44.7058 4015.23 46.0426 L4017.79 46.6097 Q4025.72 48.3111 4029.05 51.4303 Q4032.41 54.509 4032.41 60.0587 Q4032.41 66.3781 4027.39 70.0644 Q4022.4 73.7508 4013.65 73.7508 Q4010.01 73.7508 4006.04 73.0216 Q4002.11 72.3329 3997.73 70.9151 L3997.73 63.2184 Q4001.86 65.3654 4005.88 66.4591 Q4009.89 67.5124 4013.82 67.5124 Q4019.08 67.5124 4021.92 65.73 Q4024.75 63.9071 4024.75 60.6258 Q4024.75 57.5877 4022.69 55.9673 Q4020.66 54.3469 4013.73 52.8481 L4011.14 52.2405 Q4004.21 50.7821 4001.14 47.7845 Q3998.06 44.7463 3998.06 39.4801 Q3998.06 33.0797 4002.59 29.5959 Q4007.13 26.1121 4015.48 26.1121 Q4019.61 26.1121 4023.25 26.7198 Q4026.9 27.3274 4029.98 28.5427 Z" fill="#000000" fill-rule="nonzero" fill-opacity="1"></path><path clip-path="url(#clip060)" d="M4076.93 28.9478 L4076.93 35.9153 Q4073.77 34.1734 4070.57 33.3227 Q4067.41 32.4315 4064.17 32.4315 Q4056.92 32.4315 4052.91 37.0496 Q4048.9 41.6271 4048.9 49.9314 Q4048.9 58.2358 4052.91 62.8538 Q4056.92 67.4314 4064.17 67.4314 Q4067.41 67.4314 4070.57 66.5807 Q4073.77 65.6895 4076.93 63.9476 L4076.93 70.8341 Q4073.81 72.2924 4070.45 73.0216 Q4067.13 73.7508 4063.36 73.7508 Q4053.11 73.7508 4047.07 67.3098 Q4041.04 60.8689 4041.04 49.9314 Q4041.04 38.832 4047.11 32.472 Q4053.23 26.1121 4063.84 26.1121 Q4067.29 26.1121 4070.57 26.8413 Q4073.85 27.5299 4076.93 28.9478 Z" fill="#000000" fill-rule="nonzero" fill-opacity="1"></path><path clip-path="url(#clip060)" d="M4110.51 49.7694 Q4101.48 49.7694 4097.99 51.8354 Q4094.51 53.9013 4094.51 58.8839 Q4094.51 62.8538 4097.1 65.2034 Q4099.73 67.5124 4104.23 67.5124 Q4110.43 67.5124 4114.16 63.1374 Q4117.92 58.7219 4117.92 51.4303 L4117.92 49.7694 L4110.51 49.7694 M4125.38 46.6907 L4125.38 72.576 L4117.92 72.576 L4117.92 65.6895 Q4115.37 69.8214 4111.56 71.8063 Q4107.76 73.7508 4102.25 73.7508 Q4095.28 73.7508 4091.15 69.8619 Q4087.06 65.9325 4087.06 59.3701 Q4087.06 51.7138 4092.16 47.825 Q4097.3 43.9361 4107.47 43.9361 L4117.92 43.9361 L4117.92 43.2069 Q4117.92 38.0623 4114.52 35.2672 Q4111.16 32.4315 4105.04 32.4315 Q4101.15 32.4315 4097.47 33.3632 Q4093.78 34.295 4090.38 36.1584 L4090.38 29.2718 Q4094.47 27.692 4098.32 26.9223 Q4102.17 26.1121 4105.81 26.1121 Q4115.65 26.1121 4120.52 31.2163 Q4125.38 36.3204 4125.38 46.6907 Z" fill="#000000" fill-rule="nonzero" fill-opacity="1"></path><path clip-path="url(#clip060)" d="M4140.73 9.54393 L4148.18 9.54393 L4148.18 72.576 L4140.73 72.576 L4140.73 9.54393 Z" fill="#000000" fill-rule="nonzero" fill-opacity="1"></path><path clip-path="url(#clip060)" d="M4202.59 48.0275 L4202.59 51.6733 L4168.32 51.6733 Q4168.8 59.3701 4172.93 63.421 Q4177.11 67.4314 4184.52 67.4314 Q4188.81 67.4314 4192.82 66.3781 Q4196.88 65.3249 4200.85 63.2184 L4200.85 70.267 Q4196.83 71.9684 4192.62 72.8596 Q4188.41 73.7508 4184.07 73.7508 Q4173.22 73.7508 4166.86 67.4314 Q4160.54 61.1119 4160.54 50.3365 Q4160.54 39.1965 4166.53 32.6746 Q4172.57 26.1121 4182.78 26.1121 Q4191.93 26.1121 4197.24 32.0264 Q4202.59 37.9003 4202.59 48.0275 M4195.13 45.84 Q4195.05 39.7232 4191.69 36.0774 Q4188.37 32.4315 4182.86 32.4315 Q4176.62 32.4315 4172.85 35.9558 Q4169.13 39.4801 4168.56 45.8805 L4195.13 45.84 Z" fill="#000000" fill-rule="nonzero" fill-opacity="1"></path><path clip-path="url(#clip060)" d="M4244.68 34.0924 L4244.68 9.54393 L4252.13 9.54393 L4252.13 72.576 L4244.68 72.576 L4244.68 65.7705 Q4242.33 69.8214 4238.72 71.8063 Q4235.16 73.7508 4230.13 73.7508 Q4221.91 73.7508 4216.72 67.1883 Q4211.58 60.6258 4211.58 49.9314 Q4211.58 39.2371 4216.72 32.6746 Q4221.91 26.1121 4230.13 26.1121 Q4235.16 26.1121 4238.72 28.0971 Q4242.33 30.0415 4244.68 34.0924 M4219.28 49.9314 Q4219.28 58.1548 4222.64 62.8538 Q4226.04 67.5124 4231.96 67.5124 Q4237.87 67.5124 4241.27 62.8538 Q4244.68 58.1548 4244.68 49.9314 Q4244.68 41.7081 4241.27 37.0496 Q4237.87 32.3505 4231.96 32.3505 Q4226.04 32.3505 4222.64 37.0496 Q4219.28 41.7081 4219.28 49.9314 Z" fill="#000000" fill-rule="nonzero" fill-opacity="1"></path><path clip-path="url(#clip060)" d="M4266.31 9.62495 L4272.79 9.62495 Q4278.87 19.1851 4281.86 28.3401 Q4284.9 37.4952 4284.9 46.5287 Q4284.9 55.6027 4281.86 64.7983 Q4278.87 73.9938 4272.79 83.5134 L4266.31 83.5134 Q4271.7 74.2369 4274.33 65.0818 Q4277 55.8863 4277 46.5287 Q4277 37.1711 4274.33 28.0566 Q4271.7 18.942 4266.31 9.62495 Z" fill="#000000" fill-rule="nonzero" fill-opacity="1"></path><polyline clip-path="url(#clip063)" style="stroke:#ff00ff; stroke-linecap:round; stroke-linejoin:round; stroke-width:4; stroke-opacity:0.4; fill:none" points="2738.58,836.973 2758.34,879.211 2778.09,646.358 2797.84,774.316 2817.59,1146.79 2837.35,1339.64 2857.1,1420.17 2876.85,718.528 2896.6,1297.17 2916.36,919.978 2936.11,1047.73 2955.86,1274.77 2975.61,1068.83 2995.37,853.291 3015.12,1625.68 3034.87,1124.49 3054.62,1115.19 3074.38,1228.88 3094.13,1530.13 3113.88,1529.72 3133.64,825.866 3153.39,559.348 3173.14,1027.11 3192.89,984.763 3212.65,785.235 3232.4,894.619 3252.15,649.797 3271.9,713.49 3291.66,790.034 3311.41,513.017 3331.16,657.209 3350.91,753.909 3370.67,761.508 3390.42,739.952 3410.17,446.077 3429.92,591.172 3449.68,743.394 3469.43,750.939 3489.18,181.4 3508.93,333.754 3528.69,818.811 3548.44,562.585 3568.19,574.718 3587.95,749.102 3607.7,791.328 3627.45,643.5 3647.2,511.343 3666.96,913.067 3686.71,850.57 3706.46,582.41 3726.21,898.583 3745.97,580.343 3765.72,788.03 3785.47,820.864 3805.22,1212.17 3824.98,389.127 3844.73,469.352 3864.48,1071.06 3884.23,809.839 3903.99,820.446 3923.74,1274.69 3943.49,1624.74 3963.24,1093.94 3983,1347.11 4002.75,1084.97 4022.5,1739.25 4042.25,1331.16 4062.01,1332.18 4081.76,1439.25 4101.51,1334.45 4121.27,1380.91 4141.02,873.85 4160.77,1283.91 4180.52,801.753 4200.28,1377.69 4220.03,1054.41 4239.78,887.802 4259.53,1049.01 4279.29,935.498 4299.04,489.676 4318.79,1028.29 4338.54,716.223 4358.3,841.936 4378.05,716.142 4397.8,1011.18 4417.55,425.547 4437.31,404.417 4457.06,933.01 4476.81,268.565 4496.56,516.575 4516.32,887.45 4536.07,462.061 4555.82,800.832 4575.58,304.164 4595.33,400.794 4615.08,495.274 4634.83,653.084 4654.59,653.39 4674.34,955.383 4694.09,522.308 "></polyline>
<polyline clip-path="url(#clip063)" style="stroke:#ff00ff; stroke-linecap:round; stroke-linejoin:round; stroke-width:4; stroke-opacity:0.4; fill:none" points="2738.58,1072.07 2758.34,1075.34 2778.09,1373.22 2797.84,1133.42 2817.59,1093.42 2837.35,1096.09 2857.1,819.624 2876.85,1148.66 2896.6,982.814 2916.36,1268.03 2936.11,1054.34 2955.86,1099.36 2975.61,1165.02 2995.37,1280.99 3015.12,1122.71 3034.87,1147.5 3054.62,551.133 3074.38,1447.72 3094.13,887.444 3113.88,1233.9 3133.64,482.516 3153.39,891.57 3173.14,1283.7 3192.89,612.426 3212.65,595.438 3232.4,148.514 3252.15,512.115 3271.9,417.285 3291.66,234.341 3311.41,812.93 3331.16,745.599 3350.91,372.01 3370.67,655.429 3390.42,407.665 3410.17,638.966 3429.92,844.342 3449.68,276.927 3469.43,516.912 3489.18,426.112 3508.93,823.931 3528.69,769.299 3548.44,498.156 3568.19,1097.03 3587.95,468.513 3607.7,1039.13 3627.45,1223.9 3647.2,505.868 3666.96,1038.63 3686.71,654.741 3706.46,957.714 3726.21,883.472 3745.97,988.976 3765.72,1169.97 3785.47,1085.92 3805.22,1408.46 3824.98,1322.89 3844.73,1480.53 3864.48,1136.79 3884.23,1684.44 3903.99,1256.37 3923.74,1255.25 3943.49,1322.48 3963.24,1237.57 3983,1127.37 4002.75,764.092 4022.5,1303.15 4042.25,1330.18 4062.01,1192.26 4081.76,685.794 4101.51,621.038 4121.27,1045.94 4141.02,704.427 4160.77,1136.94 4180.52,728.901 4200.28,763.681 4220.03,865.538 4239.78,584.118 4259.53,150.825 4279.29,849.832 4299.04,609.331 4318.79,586.941 4338.54,302.716 4358.3,649.277 4378.05,1011.68 4397.8,420.502 4417.55,373.401 4437.31,698.206 4457.06,601.112 4476.81,569.711 4496.56,624.505 4516.32,870.806 4536.07,1350.34 4555.82,804.061 4575.58,557.972 4595.33,1072.21 4615.08,790.313 4634.83,558.343 4654.59,850.294 4674.34,1387.67 4694.09,936.494 "></polyline>
<polyline clip-path="url(#clip063)" style="stroke:#ff00ff; stroke-linecap:round; stroke-linejoin:round; stroke-width:4; stroke-opacity:0.4; fill:none" points="2738.58,1292.79 2758.34,975.896 2778.09,941.528 2797.84,1232.45 2817.59,1257.28 2837.35,637.163 2857.1,1249.81 2876.85,713.997 2896.6,1367.25 2916.36,1199.13 2936.11,691.984 2955.86,1074.87 2975.61,1155.96 2995.37,579.31 3015.12,852.905 3034.87,536.616 3054.62,303.01 3074.38,406.361 3094.13,658.501 3113.88,1061.16 3133.64,893.814 3153.39,250.567 3173.14,197.086 3192.89,201.654 3212.65,295.906 3232.4,443.26 3252.15,453.038 3271.9,424.012 3291.66,883.928 3311.41,808.277 3331.16,1058.84 3350.91,462.705 3370.67,627.738 3390.42,641.813 3410.17,590.107 3429.92,1180.62 3449.68,802.468 3469.43,945.609 3489.18,1180.51 3508.93,1339.58 3528.69,1169.54 3548.44,1602.74 3568.19,1419.01 3587.95,1210.37 3607.7,1330.65 3627.45,1269 3647.2,1353.3 3666.96,1640.74 3686.71,1010.81 3706.46,977.151 3726.21,1232.62 3745.97,494.238 3765.72,1537.57 3785.47,976.967 3805.22,1564.01 3824.98,1247.3 3844.73,680.442 3864.48,732.755 3884.23,658.867 3903.99,1035.41 3923.74,977.479 3943.49,749.212 3963.24,807.185 3983,310.196 4002.75,1069.65 4022.5,986.562 4042.25,637.282 4062.01,941.687 4081.76,455.175 4101.51,496.913 4121.27,485.617 4141.02,790.744 4160.77,465.849 4180.52,561.758 4200.28,661.973 4220.03,333.064 4239.78,269.02 4259.53,868.392 4279.29,412.446 4299.04,158.856 4318.79,384.036 4338.54,1015.91 4358.3,1177.87 4378.05,589.206 4397.8,290.454 4417.55,389.964 4437.31,896.33 4457.06,354.534 4476.81,1009.25 4496.56,1171.44 4516.32,1036.66 4536.07,1042.28 4555.82,1117.72 4575.58,717.508 4595.33,914.758 4615.08,1033.1 4634.83,1444.68 4654.59,1154 4674.34,1112.83 4694.09,1057.01 "></polyline>
</svg>