<?xml version="1.0" encoding="utf-8"?>
<svg xmlns="http://www.w3.org/2000/svg" xmlns:xlink="http://www.w3.org/1999/xlink" width="600" height="400" viewBox="0 0 2400 1600">
<defs>
  <clipPath id="clip910">
    <rect x="0" y="0" width="2400" height="1600"/>
  </clipPath>
</defs>
<path clip-path="url(#clip910)" d="M0 1600 L2400 1600 L2400 8.88178e-14 L0 8.88178e-14  Z" fill="#ffffff" fill-rule="evenodd" fill-opacity="1"/>
<defs>
  <clipPath id="clip911">
    <rect x="480" y="0" width="1681" height="1600"/>
  </clipPath>
</defs>
<path clip-path="url(#clip910)" d="M282.858 1423.18 L2352.76 1423.18 L2352.76 47.2441 L282.858 47.2441  Z" fill="#ffffff" fill-rule="evenodd" fill-opacity="1"/>
<defs>
  <clipPath id="clip912">
    <rect x="282" y="47" width="2071" height="1377"/>
  </clipPath>
</defs>
<polyline clip-path="url(#clip912)" style="stroke:#000000; stroke-linecap:round; stroke-linejoin:round; stroke-width:2; stroke-opacity:0.1; fill:none" points="321.515,1423.18 321.515,47.2441 "/>
<polyline clip-path="url(#clip912)" style="stroke:#000000; stroke-linecap:round; stroke-linejoin:round; stroke-width:2; stroke-opacity:0.1; fill:none" points="819.661,1423.18 819.661,47.2441 "/>
<polyline clip-path="url(#clip912)" style="stroke:#000000; stroke-linecap:round; stroke-linejoin:round; stroke-width:2; stroke-opacity:0.1; fill:none" points="1317.81,1423.18 1317.81,47.2441 "/>
<polyline clip-path="url(#clip912)" style="stroke:#000000; stroke-linecap:round; stroke-linejoin:round; stroke-width:2; stroke-opacity:0.1; fill:none" points="1815.95,1423.18 1815.95,47.2441 "/>
<polyline clip-path="url(#clip912)" style="stroke:#000000; stroke-linecap:round; stroke-linejoin:round; stroke-width:2; stroke-opacity:0.1; fill:none" points="2314.1,1423.18 2314.1,47.2441 "/>
<polyline clip-path="url(#clip910)" style="stroke:#000000; stroke-linecap:round; stroke-linejoin:round; stroke-width:4; stroke-opacity:1; fill:none" points="282.858,1423.18 2352.76,1423.18 "/>
<polyline clip-path="url(#clip910)" style="stroke:#000000; stroke-linecap:round; stroke-linejoin:round; stroke-width:4; stroke-opacity:1; fill:none" points="321.515,1423.18 321.515,1404.28 "/>
<polyline clip-path="url(#clip910)" style="stroke:#000000; stroke-linecap:round; stroke-linejoin:round; stroke-width:4; stroke-opacity:1; fill:none" points="819.661,1423.18 819.661,1404.28 "/>
<polyline clip-path="url(#clip910)" style="stroke:#000000; stroke-linecap:round; stroke-linejoin:round; stroke-width:4; stroke-opacity:1; fill:none" points="1317.81,1423.18 1317.81,1404.28 "/>
<polyline clip-path="url(#clip910)" style="stroke:#000000; stroke-linecap:round; stroke-linejoin:round; stroke-width:4; stroke-opacity:1; fill:none" points="1815.95,1423.18 1815.95,1404.28 "/>
<polyline clip-path="url(#clip910)" style="stroke:#000000; stroke-linecap:round; stroke-linejoin:round; stroke-width:4; stroke-opacity:1; fill:none" points="2314.1,1423.18 2314.1,1404.28 "/>
<path clip-path="url(#clip910)" d="M321.515 1454.1 Q317.903 1454.1 316.075 1457.66 Q314.269 1461.2 314.269 1468.33 Q314.269 1475.44 316.075 1479.01 Q317.903 1482.55 321.515 1482.55 Q325.149 1482.55 326.954 1479.01 Q328.783 1475.44 328.783 1468.33 Q328.783 1461.2 326.954 1457.66 Q325.149 1454.1 321.515 1454.1 M321.515 1450.39 Q327.325 1450.39 330.38 1455 Q333.459 1459.58 333.459 1468.33 Q333.459 1477.06 330.38 1481.67 Q327.325 1486.25 321.515 1486.25 Q315.704 1486.25 312.626 1481.67 Q309.57 1477.06 309.57 1468.33 Q309.57 1459.58 312.626 1455 Q315.704 1450.39 321.515 1450.39 Z" fill="#000000" fill-rule="nonzero" fill-opacity="1" /><path clip-path="url(#clip910)" d="M798.932 1481.64 L815.251 1481.64 L815.251 1485.58 L793.307 1485.58 L793.307 1481.64 Q795.969 1478.89 800.552 1474.26 Q805.159 1469.61 806.339 1468.27 Q808.585 1465.74 809.464 1464.01 Q810.367 1462.25 810.367 1460.56 Q810.367 1457.8 808.422 1456.07 Q806.501 1454.33 803.399 1454.33 Q801.2 1454.33 798.747 1455.09 Q796.316 1455.86 793.538 1457.41 L793.538 1452.69 Q796.362 1451.55 798.816 1450.97 Q801.27 1450.39 803.307 1450.39 Q808.677 1450.39 811.872 1453.08 Q815.066 1455.77 815.066 1460.26 Q815.066 1462.39 814.256 1464.31 Q813.469 1466.2 811.362 1468.8 Q810.784 1469.47 807.682 1472.69 Q804.58 1475.88 798.932 1481.64 Z" fill="#000000" fill-rule="nonzero" fill-opacity="1" /><path clip-path="url(#clip910)" d="M825.112 1451.02 L843.469 1451.02 L843.469 1454.96 L829.395 1454.96 L829.395 1463.43 Q830.413 1463.08 831.432 1462.92 Q832.45 1462.73 833.469 1462.73 Q839.256 1462.73 842.635 1465.9 Q846.015 1469.08 846.015 1474.49 Q846.015 1480.07 842.543 1483.17 Q839.07 1486.25 832.751 1486.25 Q830.575 1486.25 828.307 1485.88 Q826.061 1485.51 823.654 1484.77 L823.654 1480.07 Q825.737 1481.2 827.959 1481.76 Q830.182 1482.32 832.658 1482.32 Q836.663 1482.32 839.001 1480.21 Q841.339 1478.1 841.339 1474.49 Q841.339 1470.88 839.001 1468.77 Q836.663 1466.67 832.658 1466.67 Q830.783 1466.67 828.908 1467.08 Q827.057 1467.5 825.112 1468.38 L825.112 1451.02 Z" fill="#000000" fill-rule="nonzero" fill-opacity="1" /><path clip-path="url(#clip910)" d="M1292.51 1451.02 L1310.86 1451.02 L1310.86 1454.96 L1296.79 1454.96 L1296.79 1463.43 Q1297.81 1463.08 1298.83 1462.92 Q1299.84 1462.73 1300.86 1462.73 Q1306.65 1462.73 1310.03 1465.9 Q1313.41 1469.08 1313.41 1474.49 Q1313.41 1480.07 1309.94 1483.17 Q1306.46 1486.25 1300.15 1486.25 Q1297.97 1486.25 1295.7 1485.88 Q1293.46 1485.51 1291.05 1484.77 L1291.05 1480.07 Q1293.13 1481.2 1295.35 1481.76 Q1297.58 1482.32 1300.05 1482.32 Q1304.06 1482.32 1306.4 1480.21 Q1308.73 1478.1 1308.73 1474.49 Q1308.73 1470.88 1306.4 1468.77 Q1304.06 1466.67 1300.05 1466.67 Q1298.18 1466.67 1296.3 1467.08 Q1294.45 1467.5 1292.51 1468.38 L1292.51 1451.02 Z" fill="#000000" fill-rule="nonzero" fill-opacity="1" /><path clip-path="url(#clip910)" d="M1332.62 1454.1 Q1329.01 1454.1 1327.18 1457.66 Q1325.38 1461.2 1325.38 1468.33 Q1325.38 1475.44 1327.18 1479.01 Q1329.01 1482.55 1332.62 1482.55 Q1336.26 1482.55 1338.06 1479.01 Q1339.89 1475.44 1339.89 1468.33 Q1339.89 1461.2 1338.06 1457.66 Q1336.26 1454.1 1332.62 1454.1 M1332.62 1450.39 Q1338.43 1450.39 1341.49 1455 Q1344.57 1459.58 1344.57 1468.33 Q1344.57 1477.06 1341.49 1481.67 Q1338.43 1486.25 1332.62 1486.25 Q1326.81 1486.25 1323.73 1481.67 Q1320.68 1477.06 1320.68 1468.33 Q1320.68 1459.58 1323.73 1455 Q1326.81 1450.39 1332.62 1450.39 Z" fill="#000000" fill-rule="nonzero" fill-opacity="1" /><path clip-path="url(#clip910)" d="M1789.81 1451.02 L1812.03 1451.02 L1812.03 1453.01 L1799.48 1485.58 L1794.6 1485.58 L1806.4 1454.96 L1789.81 1454.96 L1789.81 1451.02 Z" fill="#000000" fill-rule="nonzero" fill-opacity="1" /><path clip-path="url(#clip910)" d="M1821.2 1451.02 L1839.55 1451.02 L1839.55 1454.96 L1825.48 1454.96 L1825.48 1463.43 Q1826.5 1463.08 1827.52 1462.92 Q1828.53 1462.73 1829.55 1462.73 Q1835.34 1462.73 1838.72 1465.9 Q1842.1 1469.08 1842.1 1474.49 Q1842.1 1480.07 1838.63 1483.17 Q1835.15 1486.25 1828.84 1486.25 Q1826.66 1486.25 1824.39 1485.88 Q1822.15 1485.51 1819.74 1484.77 L1819.74 1480.07 Q1821.82 1481.2 1824.04 1481.76 Q1826.27 1482.32 1828.74 1482.32 Q1832.75 1482.32 1835.09 1480.21 Q1837.42 1478.1 1837.42 1474.49 Q1837.42 1470.88 1835.09 1468.77 Q1832.75 1466.67 1828.74 1466.67 Q1826.87 1466.67 1824.99 1467.08 Q1823.14 1467.5 1821.2 1468.38 L1821.2 1451.02 Z" fill="#000000" fill-rule="nonzero" fill-opacity="1" /><path clip-path="url(#clip910)" d="M2273.71 1481.64 L2281.35 1481.64 L2281.35 1455.28 L2273.04 1456.95 L2273.04 1452.69 L2281.3 1451.02 L2285.97 1451.02 L2285.97 1481.64 L2293.61 1481.64 L2293.61 1485.58 L2273.71 1485.58 L2273.71 1481.64 Z" fill="#000000" fill-rule="nonzero" fill-opacity="1" /><path clip-path="url(#clip910)" d="M2313.06 1454.1 Q2309.45 1454.1 2307.62 1457.66 Q2305.81 1461.2 2305.81 1468.33 Q2305.81 1475.44 2307.62 1479.01 Q2309.45 1482.55 2313.06 1482.55 Q2316.69 1482.55 2318.5 1479.01 Q2320.33 1475.44 2320.33 1468.33 Q2320.33 1461.2 2318.5 1457.66 Q2316.69 1454.1 2313.06 1454.1 M2313.06 1450.39 Q2318.87 1450.39 2321.92 1455 Q2325 1459.58 2325 1468.33 Q2325 1477.06 2321.92 1481.67 Q2318.87 1486.25 2313.06 1486.25 Q2307.25 1486.25 2304.17 1481.67 Q2301.11 1477.06 2301.11 1468.33 Q2301.11 1459.58 2304.17 1455 Q2307.25 1450.39 2313.06 1450.39 Z" fill="#000000" fill-rule="nonzero" fill-opacity="1" /><path clip-path="url(#clip910)" d="M2343.22 1454.1 Q2339.61 1454.1 2337.78 1457.66 Q2335.97 1461.2 2335.97 1468.33 Q2335.97 1475.44 2337.78 1479.01 Q2339.61 1482.55 2343.22 1482.55 Q2346.85 1482.55 2348.66 1479.01 Q2350.49 1475.44 2350.49 1468.33 Q2350.49 1461.2 2348.66 1457.66 Q2346.85 1454.1 2343.22 1454.1 M2343.22 1450.39 Q2349.03 1450.39 2352.09 1455 Q2355.16 1459.58 2355.16 1468.33 Q2355.16 1477.06 2352.09 1481.67 Q2349.03 1486.25 2343.22 1486.25 Q2337.41 1486.25 2334.33 1481.67 Q2331.28 1477.06 2331.28 1468.33 Q2331.28 1459.58 2334.33 1455 Q2337.41 1450.39 2343.22 1450.39 Z" fill="#000000" fill-rule="nonzero" fill-opacity="1" /><path clip-path="url(#clip910)" d="M1045.35 1524.18 L1045.35 1530.96 Q1042.11 1527.94 1038.42 1526.44 Q1034.76 1524.95 1030.62 1524.95 Q1022.47 1524.95 1018.14 1529.95 Q1013.81 1534.91 1013.81 1544.33 Q1013.81 1553.72 1018.14 1558.72 Q1022.47 1563.68 1030.62 1563.68 Q1034.76 1563.68 1038.42 1562.19 Q1042.11 1560.69 1045.35 1557.67 L1045.35 1564.38 Q1041.98 1566.68 1038.19 1567.82 Q1034.44 1568.97 1030.24 1568.97 Q1019.45 1568.97 1013.24 1562.38 Q1007.03 1555.76 1007.03 1544.33 Q1007.03 1532.87 1013.24 1526.28 Q1019.45 1519.66 1030.24 1519.66 Q1034.5 1519.66 1038.26 1520.81 Q1042.04 1521.92 1045.35 1524.18 Z" fill="#000000" fill-rule="nonzero" fill-opacity="1" /><path clip-path="url(#clip910)" d="M1068.84 1536.5 Q1064.13 1536.5 1061.4 1540.19 Q1058.66 1543.85 1058.66 1550.25 Q1058.66 1556.65 1061.36 1560.34 Q1064.1 1564 1068.84 1564 Q1073.52 1564 1076.26 1560.31 Q1079 1556.62 1079 1550.25 Q1079 1543.92 1076.26 1540.23 Q1073.52 1536.5 1068.84 1536.5 M1068.84 1531.54 Q1076.48 1531.54 1080.84 1536.5 Q1085.2 1541.47 1085.2 1550.25 Q1085.2 1559 1080.84 1564 Q1076.48 1568.97 1068.84 1568.97 Q1061.17 1568.97 1056.81 1564 Q1052.48 1559 1052.48 1550.25 Q1052.48 1541.47 1056.81 1536.5 Q1061.17 1531.54 1068.84 1531.54 Z" fill="#000000" fill-rule="nonzero" fill-opacity="1" /><path clip-path="url(#clip910)" d="M1124.54 1546.53 L1124.54 1568.04 L1118.69 1568.04 L1118.69 1546.72 Q1118.69 1541.66 1116.71 1539.14 Q1114.74 1536.63 1110.79 1536.63 Q1106.05 1536.63 1103.31 1539.65 Q1100.58 1542.68 1100.58 1547.9 L1100.58 1568.04 L1094.69 1568.04 L1094.69 1532.4 L1100.58 1532.4 L1100.58 1537.93 Q1102.68 1534.72 1105.51 1533.13 Q1108.38 1531.54 1112.1 1531.54 Q1118.24 1531.54 1121.39 1535.36 Q1124.54 1539.14 1124.54 1546.53 Z" fill="#000000" fill-rule="nonzero" fill-opacity="1" /><path clip-path="url(#clip910)" d="M1159.68 1537.81 L1159.68 1518.52 L1165.54 1518.52 L1165.54 1568.04 L1159.68 1568.04 L1159.68 1562.7 Q1157.84 1565.88 1155 1567.44 Q1152.2 1568.97 1148.26 1568.97 Q1141.8 1568.97 1137.72 1563.81 Q1133.68 1558.65 1133.68 1550.25 Q1133.68 1541.85 1137.72 1536.69 Q1141.8 1531.54 1148.26 1531.54 Q1152.2 1531.54 1155 1533.1 Q1157.84 1534.62 1159.68 1537.81 M1139.73 1550.25 Q1139.73 1556.71 1142.37 1560.4 Q1145.04 1564.07 1149.69 1564.07 Q1154.34 1564.07 1157.01 1560.4 Q1159.68 1556.71 1159.68 1550.25 Q1159.68 1543.79 1157.01 1540.13 Q1154.34 1536.44 1149.69 1536.44 Q1145.04 1536.44 1142.37 1540.13 Q1139.73 1543.79 1139.73 1550.25 Z" fill="#000000" fill-rule="nonzero" fill-opacity="1" /><path clip-path="url(#clip910)" d="M1177.6 1532.4 L1183.46 1532.4 L1183.46 1568.04 L1177.6 1568.04 L1177.6 1532.4 M1177.6 1518.52 L1183.46 1518.52 L1183.46 1525.93 L1177.6 1525.93 L1177.6 1518.52 Z" fill="#000000" fill-rule="nonzero" fill-opacity="1" /><path clip-path="url(#clip910)" d="M1201.51 1522.27 L1201.51 1532.4 L1213.57 1532.4 L1213.57 1536.95 L1201.51 1536.95 L1201.51 1556.3 Q1201.51 1560.66 1202.68 1561.9 Q1203.89 1563.14 1207.55 1563.14 L1213.57 1563.14 L1213.57 1568.04 L1207.55 1568.04 Q1200.77 1568.04 1198.2 1565.53 Q1195.62 1562.98 1195.62 1556.3 L1195.62 1536.95 L1191.32 1536.95 L1191.32 1532.4 L1195.62 1532.4 L1195.62 1522.27 L1201.51 1522.27 Z" fill="#000000" fill-rule="nonzero" fill-opacity="1" /><path clip-path="url(#clip910)" d="M1221.27 1532.4 L1227.13 1532.4 L1227.13 1568.04 L1221.27 1568.04 L1221.27 1532.4 M1221.27 1518.52 L1227.13 1518.52 L1227.13 1525.93 L1221.27 1525.93 L1221.27 1518.52 Z" fill="#000000" fill-rule="nonzero" fill-opacity="1" /><path clip-path="url(#clip910)" d="M1253.2 1536.5 Q1248.48 1536.5 1245.75 1540.19 Q1243.01 1543.85 1243.01 1550.25 Q1243.01 1556.65 1245.72 1560.34 Q1248.45 1564 1253.2 1564 Q1257.87 1564 1260.61 1560.31 Q1263.35 1556.62 1263.35 1550.25 Q1263.35 1543.92 1260.61 1540.23 Q1257.87 1536.5 1253.2 1536.5 M1253.2 1531.54 Q1260.83 1531.54 1265.19 1536.5 Q1269.56 1541.47 1269.56 1550.25 Q1269.56 1559 1265.19 1564 Q1260.83 1568.97 1253.2 1568.97 Q1245.52 1568.97 1241.16 1564 Q1236.84 1559 1236.84 1550.25 Q1236.84 1541.47 1241.16 1536.5 Q1245.52 1531.54 1253.2 1531.54 Z" fill="#000000" fill-rule="nonzero" fill-opacity="1" /><path clip-path="url(#clip910)" d="M1308.9 1546.53 L1308.9 1568.04 L1303.04 1568.04 L1303.04 1546.72 Q1303.04 1541.66 1301.07 1539.14 Q1299.09 1536.63 1295.15 1536.63 Q1290.4 1536.63 1287.67 1539.65 Q1284.93 1542.68 1284.93 1547.9 L1284.93 1568.04 L1279.04 1568.04 L1279.04 1532.4 L1284.93 1532.4 L1284.93 1537.93 Q1287.03 1534.72 1289.86 1533.13 Q1292.73 1531.54 1296.45 1531.54 Q1302.59 1531.54 1305.74 1535.36 Q1308.9 1539.14 1308.9 1546.53 Z" fill="#000000" fill-rule="nonzero" fill-opacity="1" /><path clip-path="url(#clip910)" d="M1320.58 1532.4 L1326.43 1532.4 L1326.43 1568.04 L1320.58 1568.04 L1320.58 1532.4 M1320.58 1518.52 L1326.43 1518.52 L1326.43 1525.93 L1320.58 1525.93 L1320.58 1518.52 Z" fill="#000000" fill-rule="nonzero" fill-opacity="1" /><path clip-path="url(#clip910)" d="M1368.32 1546.53 L1368.32 1568.04 L1362.46 1568.04 L1362.46 1546.72 Q1362.46 1541.66 1360.49 1539.14 Q1358.52 1536.63 1354.57 1536.63 Q1349.83 1536.63 1347.09 1539.65 Q1344.35 1542.68 1344.35 1547.9 L1344.35 1568.04 L1338.46 1568.04 L1338.46 1532.4 L1344.35 1532.4 L1344.35 1537.93 Q1346.45 1534.72 1349.29 1533.13 Q1352.15 1531.54 1355.87 1531.54 Q1362.02 1531.54 1365.17 1535.36 Q1368.32 1539.14 1368.32 1546.53 Z" fill="#000000" fill-rule="nonzero" fill-opacity="1" /><path clip-path="url(#clip910)" d="M1403.46 1549.81 Q1403.46 1543.44 1400.82 1539.94 Q1398.21 1536.44 1393.46 1536.44 Q1388.75 1536.44 1386.11 1539.94 Q1383.5 1543.44 1383.5 1549.81 Q1383.5 1556.14 1386.11 1559.64 Q1388.75 1563.14 1393.46 1563.14 Q1398.21 1563.14 1400.82 1559.64 Q1403.46 1556.14 1403.46 1549.81 M1409.31 1563.62 Q1409.31 1572.72 1405.27 1577.15 Q1401.23 1581.6 1392.89 1581.6 Q1389.8 1581.6 1387.07 1581.13 Q1384.33 1580.68 1381.75 1579.72 L1381.75 1574.03 Q1384.33 1575.43 1386.84 1576.1 Q1389.36 1576.76 1391.97 1576.76 Q1397.73 1576.76 1400.59 1573.74 Q1403.46 1570.75 1403.46 1564.67 L1403.46 1561.77 Q1401.64 1564.92 1398.81 1566.48 Q1395.98 1568.04 1392.03 1568.04 Q1385.47 1568.04 1381.46 1563.05 Q1377.45 1558.05 1377.45 1549.81 Q1377.45 1541.53 1381.46 1536.53 Q1385.47 1531.54 1392.03 1531.54 Q1395.98 1531.54 1398.81 1533.1 Q1401.64 1534.66 1403.46 1537.81 L1403.46 1532.4 L1409.31 1532.4 L1409.31 1563.62 Z" fill="#000000" fill-rule="nonzero" fill-opacity="1" /><path clip-path="url(#clip910)" d="M1448.78 1525.81 L1448.78 1543.66 L1456.87 1543.66 Q1461.35 1543.66 1463.8 1541.34 Q1466.26 1539.02 1466.26 1534.72 Q1466.26 1530.45 1463.8 1528.13 Q1461.35 1525.81 1456.87 1525.81 L1448.78 1525.81 M1442.35 1520.52 L1456.87 1520.52 Q1464.85 1520.52 1468.93 1524.15 Q1473.03 1527.75 1473.03 1534.72 Q1473.03 1541.75 1468.93 1545.35 Q1464.85 1548.95 1456.87 1548.95 L1448.78 1548.95 L1448.78 1568.04 L1442.35 1568.04 L1442.35 1520.52 Z" fill="#000000" fill-rule="nonzero" fill-opacity="1" /><path clip-path="url(#clip910)" d="M1492.9 1536.5 Q1488.19 1536.5 1485.45 1540.19 Q1482.71 1543.85 1482.71 1550.25 Q1482.71 1556.65 1485.42 1560.34 Q1488.15 1564 1492.9 1564 Q1497.57 1564 1500.31 1560.31 Q1503.05 1556.62 1503.05 1550.25 Q1503.05 1543.92 1500.31 1540.23 Q1497.57 1536.5 1492.9 1536.5 M1492.9 1531.54 Q1500.53 1531.54 1504.9 1536.5 Q1509.26 1541.47 1509.26 1550.25 Q1509.26 1559 1504.9 1564 Q1500.53 1568.97 1492.9 1568.97 Q1485.23 1568.97 1480.86 1564 Q1476.54 1559 1476.54 1550.25 Q1476.54 1541.47 1480.86 1536.5 Q1485.23 1531.54 1492.9 1531.54 Z" fill="#000000" fill-rule="nonzero" fill-opacity="1" /><path clip-path="url(#clip910)" d="M1518.96 1532.4 L1524.82 1532.4 L1524.82 1568.04 L1518.96 1568.04 L1518.96 1532.4 M1518.96 1518.52 L1524.82 1518.52 L1524.82 1525.93 L1518.96 1525.93 L1518.96 1518.52 Z" fill="#000000" fill-rule="nonzero" fill-opacity="1" /><path clip-path="url(#clip910)" d="M1566.71 1546.53 L1566.71 1568.04 L1560.85 1568.04 L1560.85 1546.72 Q1560.85 1541.66 1558.88 1539.14 Q1556.9 1536.63 1552.96 1536.63 Q1548.21 1536.63 1545.48 1539.65 Q1542.74 1542.68 1542.74 1547.9 L1542.74 1568.04 L1536.85 1568.04 L1536.85 1532.4 L1542.74 1532.4 L1542.74 1537.93 Q1544.84 1534.72 1547.67 1533.13 Q1550.54 1531.54 1554.26 1531.54 Q1560.4 1531.54 1563.56 1535.36 Q1566.71 1539.14 1566.71 1546.53 Z" fill="#000000" fill-rule="nonzero" fill-opacity="1" /><path clip-path="url(#clip910)" d="M1584.18 1522.27 L1584.18 1532.4 L1596.24 1532.4 L1596.24 1536.95 L1584.18 1536.95 L1584.18 1556.3 Q1584.18 1560.66 1585.36 1561.9 Q1586.57 1563.14 1590.23 1563.14 L1596.24 1563.14 L1596.24 1568.04 L1590.23 1568.04 Q1583.45 1568.04 1580.87 1565.53 Q1578.29 1562.98 1578.29 1556.3 L1578.29 1536.95 L1574 1536.95 L1574 1532.4 L1578.29 1532.4 L1578.29 1522.27 L1584.18 1522.27 Z" fill="#000000" fill-rule="nonzero" fill-opacity="1" /><path clip-path="url(#clip910)" d="M1626.67 1533.45 L1626.67 1538.98 Q1624.19 1537.71 1621.52 1537.07 Q1618.84 1536.44 1615.98 1536.44 Q1611.62 1536.44 1609.42 1537.77 Q1607.26 1539.11 1607.26 1541.79 Q1607.26 1543.82 1608.82 1545 Q1610.38 1546.15 1615.09 1547.2 L1617.09 1547.64 Q1623.33 1548.98 1625.94 1551.43 Q1628.58 1553.85 1628.58 1558.21 Q1628.58 1563.17 1624.63 1566.07 Q1620.72 1568.97 1613.84 1568.97 Q1610.98 1568.97 1607.86 1568.39 Q1604.77 1567.85 1601.34 1566.74 L1601.34 1560.69 Q1604.58 1562.38 1607.73 1563.24 Q1610.88 1564.07 1613.97 1564.07 Q1618.11 1564.07 1620.34 1562.66 Q1622.57 1561.23 1622.57 1558.65 Q1622.57 1556.27 1620.94 1554.99 Q1619.35 1553.72 1613.91 1552.54 L1611.87 1552.07 Q1606.43 1550.92 1604.01 1548.56 Q1601.59 1546.18 1601.59 1542.04 Q1601.59 1537.01 1605.16 1534.27 Q1608.72 1531.54 1615.28 1531.54 Q1618.52 1531.54 1621.39 1532.01 Q1624.25 1532.49 1626.67 1533.45 Z" fill="#000000" fill-rule="nonzero" fill-opacity="1" /><polyline clip-path="url(#clip912)" style="stroke:#000000; stroke-linecap:round; stroke-linejoin:round; stroke-width:2; stroke-opacity:0.1; fill:none" points="282.858,1257.92 2352.76,1257.92 "/>
<polyline clip-path="url(#clip912)" style="stroke:#000000; stroke-linecap:round; stroke-linejoin:round; stroke-width:2; stroke-opacity:0.1; fill:none" points="282.858,925.282 2352.76,925.282 "/>
<polyline clip-path="url(#clip912)" style="stroke:#000000; stroke-linecap:round; stroke-linejoin:round; stroke-width:2; stroke-opacity:0.1; fill:none" points="282.858,592.642 2352.76,592.642 "/>
<polyline clip-path="url(#clip912)" style="stroke:#000000; stroke-linecap:round; stroke-linejoin:round; stroke-width:2; stroke-opacity:0.1; fill:none" points="282.858,260.002 2352.76,260.002 "/>
<polyline clip-path="url(#clip910)" style="stroke:#000000; stroke-linecap:round; stroke-linejoin:round; stroke-width:4; stroke-opacity:1; fill:none" points="282.858,1423.18 282.858,47.2441 "/>
<polyline clip-path="url(#clip910)" style="stroke:#000000; stroke-linecap:round; stroke-linejoin:round; stroke-width:4; stroke-opacity:1; fill:none" points="282.858,1257.92 301.756,1257.92 "/>
<polyline clip-path="url(#clip910)" style="stroke:#000000; stroke-linecap:round; stroke-linejoin:round; stroke-width:4; stroke-opacity:1; fill:none" points="282.858,925.282 301.756,925.282 "/>
<polyline clip-path="url(#clip910)" style="stroke:#000000; stroke-linecap:round; stroke-linejoin:round; stroke-width:4; stroke-opacity:1; fill:none" points="282.858,592.642 301.756,592.642 "/>
<polyline clip-path="url(#clip910)" style="stroke:#000000; stroke-linecap:round; stroke-linejoin:round; stroke-width:4; stroke-opacity:1; fill:none" points="282.858,260.002 301.756,260.002 "/>
<path clip-path="url(#clip910)" d="M190.91 1243.72 Q187.299 1243.72 185.47 1247.29 Q183.664 1250.83 183.664 1257.96 Q183.664 1265.06 185.47 1268.63 Q187.299 1272.17 190.91 1272.17 Q194.544 1272.17 196.349 1268.63 Q198.178 1265.06 198.178 1257.96 Q198.178 1250.83 196.349 1247.29 Q194.544 1243.72 190.91 1243.72 M190.91 1240.02 Q196.72 1240.02 199.775 1244.62 Q202.854 1249.21 202.854 1257.96 Q202.854 1266.68 199.775 1271.29 Q196.72 1275.87 190.91 1275.87 Q185.099 1275.87 182.021 1271.29 Q178.965 1266.68 178.965 1257.96 Q178.965 1249.21 182.021 1244.62 Q185.099 1240.02 190.91 1240.02 Z" fill="#000000" fill-rule="nonzero" fill-opacity="1" /><path clip-path="url(#clip910)" d="M211.072 1269.32 L215.956 1269.32 L215.956 1275.2 L211.072 1275.2 L211.072 1269.32 Z" fill="#000000" fill-rule="nonzero" fill-opacity="1" /><path clip-path="url(#clip910)" d="M226.951 1271.27 L234.59 1271.27 L234.59 1244.9 L226.28 1246.57 L226.28 1242.31 L234.544 1240.64 L239.22 1240.64 L239.22 1271.27 L246.858 1271.27 L246.858 1275.2 L226.951 1275.2 L226.951 1271.27 Z" fill="#000000" fill-rule="nonzero" fill-opacity="1" /><path clip-path="url(#clip910)" d="M191.28 911.081 Q187.669 911.081 185.84 914.646 Q184.035 918.188 184.035 925.317 Q184.035 932.424 185.84 935.988 Q187.669 939.53 191.28 939.53 Q194.914 939.53 196.72 935.988 Q198.548 932.424 198.548 925.317 Q198.548 918.188 196.72 914.646 Q194.914 911.081 191.28 911.081 M191.28 907.377 Q197.09 907.377 200.146 911.984 Q203.224 916.567 203.224 925.317 Q203.224 934.044 200.146 938.65 Q197.09 943.234 191.28 943.234 Q185.47 943.234 182.391 938.65 Q179.336 934.044 179.336 925.317 Q179.336 916.567 182.391 911.984 Q185.47 907.377 191.28 907.377 Z" fill="#000000" fill-rule="nonzero" fill-opacity="1" /><path clip-path="url(#clip910)" d="M211.442 936.683 L216.326 936.683 L216.326 942.562 L211.442 942.562 L211.442 936.683 Z" fill="#000000" fill-rule="nonzero" fill-opacity="1" /><path clip-path="url(#clip910)" d="M230.539 938.627 L246.858 938.627 L246.858 942.562 L224.914 942.562 L224.914 938.627 Q227.576 935.873 232.159 931.243 Q236.766 926.59 237.946 925.248 Q240.192 922.725 241.071 920.988 Q241.974 919.229 241.974 917.539 Q241.974 914.785 240.03 913.049 Q238.108 911.313 235.007 911.313 Q232.808 911.313 230.354 912.076 Q227.923 912.84 225.146 914.391 L225.146 909.669 Q227.97 908.535 230.423 907.956 Q232.877 907.377 234.914 907.377 Q240.284 907.377 243.479 910.063 Q246.673 912.748 246.673 917.238 Q246.673 919.368 245.863 921.289 Q245.076 923.187 242.97 925.78 Q242.391 926.451 239.289 929.669 Q236.187 932.863 230.539 938.627 Z" fill="#000000" fill-rule="nonzero" fill-opacity="1" /><path clip-path="url(#clip910)" d="M190.331 578.441 Q186.72 578.441 184.891 582.006 Q183.086 585.547 183.086 592.677 Q183.086 599.783 184.891 603.348 Q186.72 606.89 190.331 606.89 Q193.965 606.89 195.771 603.348 Q197.599 599.783 197.599 592.677 Q197.599 585.547 195.771 582.006 Q193.965 578.441 190.331 578.441 M190.331 574.737 Q196.141 574.737 199.197 579.344 Q202.275 583.927 202.275 592.677 Q202.275 601.404 199.197 606.01 Q196.141 610.594 190.331 610.594 Q184.521 610.594 181.442 606.01 Q178.387 601.404 178.387 592.677 Q178.387 583.927 181.442 579.344 Q184.521 574.737 190.331 574.737 Z" fill="#000000" fill-rule="nonzero" fill-opacity="1" /><path clip-path="url(#clip910)" d="M210.493 604.043 L215.377 604.043 L215.377 609.922 L210.493 609.922 L210.493 604.043 Z" fill="#000000" fill-rule="nonzero" fill-opacity="1" /><path clip-path="url(#clip910)" d="M239.729 591.288 Q243.085 592.006 244.96 594.274 Q246.858 596.543 246.858 599.876 Q246.858 604.992 243.34 607.793 Q239.821 610.594 233.34 610.594 Q231.164 610.594 228.849 610.154 Q226.558 609.737 224.104 608.881 L224.104 604.367 Q226.048 605.501 228.363 606.08 Q230.678 606.658 233.201 606.658 Q237.599 606.658 239.891 604.922 Q242.206 603.186 242.206 599.876 Q242.206 596.821 240.053 595.108 Q237.923 593.371 234.104 593.371 L230.076 593.371 L230.076 589.529 L234.289 589.529 Q237.738 589.529 239.567 588.163 Q241.395 586.774 241.395 584.182 Q241.395 581.52 239.497 580.108 Q237.622 578.672 234.104 578.672 Q232.183 578.672 229.983 579.089 Q227.784 579.506 225.146 580.385 L225.146 576.219 Q227.808 575.478 230.122 575.108 Q232.46 574.737 234.52 574.737 Q239.845 574.737 242.946 577.168 Q246.048 579.575 246.048 583.696 Q246.048 586.566 244.405 588.557 Q242.761 590.524 239.729 591.288 Z" fill="#000000" fill-rule="nonzero" fill-opacity="1" /><path clip-path="url(#clip910)" d="M189.197 245.801 Q185.586 245.801 183.757 249.366 Q181.951 252.907 181.951 260.037 Q181.951 267.143 183.757 270.708 Q185.586 274.25 189.197 274.25 Q192.831 274.25 194.636 270.708 Q196.465 267.143 196.465 260.037 Q196.465 252.907 194.636 249.366 Q192.831 245.801 189.197 245.801 M189.197 242.097 Q195.007 242.097 198.062 246.704 Q201.141 251.287 201.141 260.037 Q201.141 268.764 198.062 273.37 Q195.007 277.954 189.197 277.954 Q183.387 277.954 180.308 273.37 Q177.252 268.764 177.252 260.037 Q177.252 251.287 180.308 246.704 Q183.387 242.097 189.197 242.097 Z" fill="#000000" fill-rule="nonzero" fill-opacity="1" /><path clip-path="url(#clip910)" d="M209.359 271.403 L214.243 271.403 L214.243 277.282 L209.359 277.282 L209.359 271.403 Z" fill="#000000" fill-rule="nonzero" fill-opacity="1" /><path clip-path="url(#clip910)" d="M237.275 246.796 L225.47 265.245 L237.275 265.245 L237.275 246.796 M236.048 242.722 L241.928 242.722 L241.928 265.245 L246.858 265.245 L246.858 269.134 L241.928 269.134 L241.928 277.282 L237.275 277.282 L237.275 269.134 L221.673 269.134 L221.673 264.62 L236.048 242.722 Z" fill="#000000" fill-rule="nonzero" fill-opacity="1" /><path clip-path="url(#clip910)" d="M79.4763 800.938 L79.4763 791.358 L111.814 779.231 L79.4763 767.041 L79.4763 757.46 L126.996 757.46 L126.996 763.73 L85.2691 763.73 L117.861 775.984 L117.861 782.446 L85.2691 794.699 L126.996 794.699 L126.996 800.938 L79.4763 800.938 Z" fill="#000000" fill-rule="nonzero" fill-opacity="1" /><path clip-path="url(#clip910)" d="M85.8102 728.814 L109.459 737.535 L109.459 720.062 L85.8102 728.814 M79.4763 732.443 L79.4763 725.154 L126.996 707.044 L126.996 713.728 L114.806 718.056 L114.806 739.477 L126.996 743.806 L126.996 750.585 L79.4763 732.443 Z" fill="#000000" fill-rule="nonzero" fill-opacity="1" /><path clip-path="url(#clip910)" d="M79.4763 700.105 L79.4763 670.059 L84.8871 670.059 L84.8871 693.676 L98.9553 693.676 L98.9553 671.046 L104.366 671.046 L104.366 693.676 L121.585 693.676 L121.585 669.486 L126.996 669.486 L126.996 700.105 L79.4763 700.105 Z" fill="#000000" fill-rule="nonzero" fill-opacity="1" /><polyline clip-path="url(#clip912)" style="stroke:#009af9; stroke-linecap:round; stroke-linejoin:round; stroke-width:8; stroke-opacity:1; fill:none" points="341.44,195.427 381.292,222.322 421.144,254.007 460.996,279.961 500.847,309.331 540.699,312.243 580.551,302.265 620.402,351.132 660.254,366.932 700.106,370.422 739.957,345.086 779.809,363.252 819.661,380.258 859.513,361.681 899.364,398.386 939.216,376.69 979.068,368.71 1018.92,369.4 1058.77,355.963 1098.62,321.36 1138.47,340.508 1178.33,367.656 1218.18,346.939 1258.03,346.944 1297.88,364.959 1337.73,387.791 1377.58,414.327 1417.44,465.261 1457.29,442.362 1497.14,460.772 1536.99,446.716 1576.84,483.601 1616.69,463.926 1656.55,508.98 1696.4,478.998 1736.25,512.561 1776.1,448.709 1815.95,503.25 1855.81,557.951 1895.66,575.6 1935.51,633.001 1975.36,697.271 2015.21,731.182 2055.06,731.529 2094.92,809.697 2134.77,843.272 2174.62,907.834 2214.47,1051.06 2254.32,1167.85 2294.17,1327.24 "/>
<polyline clip-path="url(#clip912)" style="stroke:#e26f46; stroke-linecap:round; stroke-linejoin:round; stroke-width:8; stroke-opacity:1; fill:none" points="341.44,86.1857 381.292,163.266 421.144,203.899 460.996,234.272 500.847,293.637 540.699,322.638 580.551,326.157 620.402,370.215 660.254,333.362 700.106,314.043 739.957,307.001 779.809,302.966 819.661,335.234 859.513,337.111 899.364,338.778 939.216,333.477 979.068,313.473 1018.92,350.767 1058.77,373.57 1098.62,434.204 1138.47,436.203 1178.33,453.44 1218.18,436.716 1258.03,464.416 1297.88,496.166 1337.73,543.762 1377.58,549.384 1417.44,534.958 1457.29,586.331 1497.14,650.674 1536.99,666.433 1576.84,689.965 1616.69,765.42 1656.55,802.807 1696.4,831.606 1736.25,845.548 1776.1,931.843 1815.95,981.984 1855.81,955.156 1895.66,998.162 1935.51,1023.1 1975.36,1080.98 2015.21,1097.93 2055.06,1141.67 2094.92,1175.02 2134.77,1187.99 2174.62,1226.56 2214.47,1256.68 2254.32,1303.56 2294.17,1364.59 "/>
<polyline clip-path="url(#clip912)" style="stroke:#3da44d; stroke-linecap:round; stroke-linejoin:round; stroke-width:8; stroke-opacity:1; fill:none" points="341.44,606.754 381.292,1297.59 421.144,1344.09 460.996,1352.1 500.847,1348.89 540.699,1354.1 580.551,1356.77 620.402,1353.1 660.254,1355.14 700.106,1355.61 739.957,1356.06 779.809,1356.61 819.661,1358.37 859.513,1359.92 899.364,1361.99 939.216,1360.21 979.068,1362.63 1018.92,1359.54 1058.77,1359.59 1098.62,1361.09 1138.47,1360.45 1178.33,1356.08 1218.18,1360.74 1258.03,1359.07 1297.88,1359.74 1337.73,1356.99 1377.58,1356.89 1417.44,1360.32 1457.29,1356.47 1497.14,1360.91 1536.99,1362.11 1576.84,1361.92 1616.69,1361.69 1656.55,1362.44 1696.4,1359.23 1736.25,1358.58 1776.1,1358.02 1815.95,1353.92 1855.81,1359.7 1895.66,1357.25 1935.51,1359.24 1975.36,1356.26 2015.21,1353.69 2055.06,1349.13 2094.92,1349.92 2134.77,1352.23 2174.62,1349.07 2214.47,1346.77 2254.32,1353.3 2294.17,1368.89 "/>
<polyline clip-path="url(#clip912)" style="stroke:#c271d2; stroke-linecap:round; stroke-linejoin:round; stroke-width:8; stroke-opacity:1; fill:none" points="341.44,372.27 381.292,766.531 421.144,794.521 460.996,773.116 500.847,745.085 540.699,742.038 580.551,751.948 620.402,760.625 660.254,758.981 700.106,782.578 739.957,759.414 779.809,769.576 819.661,759.268 859.513,749.595 899.364,745.734 939.216,733.665 979.068,715.853 1018.92,690.286 1058.77,670.033 1098.62,686.182 1138.47,645.393 1178.33,690.448 1218.18,681.381 1258.03,645.949 1297.88,645.644 1337.73,657.988 1377.58,677.189 1417.44,716.718 1457.29,695.767 1497.14,707.674 1536.99,699.466 1576.84,719.305 1616.69,717.924 1656.55,696.631 1696.4,720.621 1736.25,727.307 1776.1,712.485 1815.95,715.549 1855.81,731.193 1895.66,714.008 1935.51,716.634 1975.36,755.232 2015.21,758.929 2055.06,756.093 2094.92,866.335 2134.77,874.043 2174.62,984.766 2214.47,1125.33 2254.32,1294.78 2294.17,1384.24 "/>
<path clip-path="url(#clip910)" d="M1626.63 352.309 L2283.76 352.309 L2283.76 93.1086 L1626.63 93.1086  Z" fill="#ffffff" fill-rule="evenodd" fill-opacity="1"/>
<polyline clip-path="url(#clip910)" style="stroke:#000000; stroke-linecap:round; stroke-linejoin:round; stroke-width:4; stroke-opacity:1; fill:none" points="1626.63,352.309 2283.76,352.309 2283.76,93.1086 1626.63,93.1086 1626.63,352.309 "/>
<polyline clip-path="url(#clip910)" style="stroke:#009af9; stroke-linecap:round; stroke-linejoin:round; stroke-width:8; stroke-opacity:1; fill:none" points="1649.63,144.949 1787.63,144.949 "/>
<path clip-path="url(#clip910)" d="M1826.46 132.275 L1820.11 149.474 L1832.82 149.474 L1826.46 132.275 M1823.82 127.669 L1829.12 127.669 L1842.29 162.229 L1837.43 162.229 L1834.28 153.363 L1818.7 153.363 L1815.55 162.229 L1810.62 162.229 L1823.82 127.669 Z" fill="#000000" fill-rule="nonzero" fill-opacity="1" /><path clip-path="url(#clip910)" d="M1847.15 126.21 L1851.41 126.21 L1851.41 162.229 L1847.15 162.229 L1847.15 126.21 Z" fill="#000000" fill-rule="nonzero" fill-opacity="1" /><path clip-path="url(#clip910)" d="M1860.32 126.21 L1864.58 126.21 L1864.58 162.229 L1860.32 162.229 L1860.32 126.21 Z" fill="#000000" fill-rule="nonzero" fill-opacity="1" /><path clip-path="url(#clip910)" d="M1897.66 162.229 L1884.47 127.669 L1889.35 127.669 L1900.3 156.766 L1911.27 127.669 L1916.13 127.669 L1902.96 162.229 L1897.66 162.229 Z" fill="#000000" fill-rule="nonzero" fill-opacity="1" /><path clip-path="url(#clip910)" d="M1929.1 149.196 Q1923.93 149.196 1921.94 150.377 Q1919.95 151.557 1919.95 154.405 Q1919.95 156.673 1921.43 158.016 Q1922.94 159.335 1925.51 159.335 Q1929.05 159.335 1931.18 156.835 Q1933.33 154.312 1933.33 150.145 L1933.33 149.196 L1929.1 149.196 M1937.59 147.437 L1937.59 162.229 L1933.33 162.229 L1933.33 158.293 Q1931.87 160.655 1929.7 161.789 Q1927.52 162.9 1924.37 162.9 Q1920.39 162.9 1918.03 160.678 Q1915.69 158.432 1915.69 154.682 Q1915.69 150.307 1918.61 148.085 Q1921.55 145.863 1927.36 145.863 L1933.33 145.863 L1933.33 145.446 Q1933.33 142.507 1931.39 140.909 Q1929.47 139.289 1925.97 139.289 Q1923.75 139.289 1921.64 139.821 Q1919.54 140.354 1917.59 141.419 L1917.59 137.483 Q1919.93 136.581 1922.13 136.141 Q1924.33 135.678 1926.41 135.678 Q1932.04 135.678 1934.81 138.594 Q1937.59 141.511 1937.59 147.437 Z" fill="#000000" fill-rule="nonzero" fill-opacity="1" /><path clip-path="url(#clip910)" d="M1961.39 140.284 Q1960.67 139.868 1959.81 139.682 Q1958.98 139.474 1957.96 139.474 Q1954.35 139.474 1952.41 141.835 Q1950.48 144.173 1950.48 148.571 L1950.48 162.229 L1946.2 162.229 L1946.2 136.303 L1950.48 136.303 L1950.48 140.331 Q1951.83 137.969 1953.98 136.835 Q1956.13 135.678 1959.21 135.678 Q1959.65 135.678 1960.18 135.747 Q1960.72 135.794 1961.36 135.909 L1961.39 140.284 Z" fill="#000000" fill-rule="nonzero" fill-opacity="1" /><path clip-path="url(#clip910)" d="M1965.85 136.303 L1970.11 136.303 L1970.11 162.229 L1965.85 162.229 L1965.85 136.303 M1965.85 126.21 L1970.11 126.21 L1970.11 131.604 L1965.85 131.604 L1965.85 126.21 Z" fill="#000000" fill-rule="nonzero" fill-opacity="1" /><path clip-path="url(#clip910)" d="M1990.81 149.196 Q1985.65 149.196 1983.66 150.377 Q1981.66 151.557 1981.66 154.405 Q1981.66 156.673 1983.15 158.016 Q1984.65 159.335 1987.22 159.335 Q1990.76 159.335 1992.89 156.835 Q1995.04 154.312 1995.04 150.145 L1995.04 149.196 L1990.81 149.196 M1999.3 147.437 L1999.3 162.229 L1995.04 162.229 L1995.04 158.293 Q1993.59 160.655 1991.41 161.789 Q1989.23 162.9 1986.09 162.9 Q1982.1 162.9 1979.74 160.678 Q1977.41 158.432 1977.41 154.682 Q1977.41 150.307 1980.32 148.085 Q1983.26 145.863 1989.07 145.863 L1995.04 145.863 L1995.04 145.446 Q1995.04 142.507 1993.1 140.909 Q1991.18 139.289 1987.68 139.289 Q1985.46 139.289 1983.35 139.821 Q1981.25 140.354 1979.3 141.419 L1979.3 137.483 Q1981.64 136.581 1983.84 136.141 Q1986.04 135.678 1988.12 135.678 Q1993.75 135.678 1996.53 138.594 Q1999.3 141.511 1999.3 147.437 Z" fill="#000000" fill-rule="nonzero" fill-opacity="1" /><path clip-path="url(#clip910)" d="M2026.69 149.289 Q2026.69 144.59 2024.74 141.928 Q2022.82 139.243 2019.44 139.243 Q2016.06 139.243 2014.12 141.928 Q2012.2 144.59 2012.2 149.289 Q2012.2 153.988 2014.12 156.673 Q2016.06 159.335 2019.44 159.335 Q2022.82 159.335 2024.74 156.673 Q2026.69 153.988 2026.69 149.289 M2012.2 140.238 Q2013.54 137.923 2015.58 136.812 Q2017.64 135.678 2020.48 135.678 Q2025.21 135.678 2028.15 139.428 Q2031.11 143.178 2031.11 149.289 Q2031.11 155.4 2028.15 159.15 Q2025.21 162.9 2020.48 162.9 Q2017.64 162.9 2015.58 161.789 Q2013.54 160.655 2012.2 158.34 L2012.2 162.229 L2007.91 162.229 L2007.91 126.21 L2012.2 126.21 L2012.2 140.238 Z" fill="#000000" fill-rule="nonzero" fill-opacity="1" /><path clip-path="url(#clip910)" d="M2038.17 126.21 L2042.43 126.21 L2042.43 162.229 L2038.17 162.229 L2038.17 126.21 Z" fill="#000000" fill-rule="nonzero" fill-opacity="1" /><path clip-path="url(#clip910)" d="M2073.52 148.201 L2073.52 150.284 L2053.93 150.284 Q2054.21 154.682 2056.57 156.997 Q2058.96 159.289 2063.19 159.289 Q2065.65 159.289 2067.94 158.687 Q2070.25 158.085 2072.52 156.881 L2072.52 160.909 Q2070.23 161.881 2067.82 162.391 Q2065.41 162.9 2062.94 162.9 Q2056.73 162.9 2053.1 159.289 Q2049.49 155.678 2049.49 149.52 Q2049.49 143.155 2052.91 139.428 Q2056.36 135.678 2062.2 135.678 Q2067.43 135.678 2070.46 139.057 Q2073.52 142.414 2073.52 148.201 M2069.26 146.951 Q2069.21 143.456 2067.29 141.372 Q2065.39 139.289 2062.24 139.289 Q2058.68 139.289 2056.53 141.303 Q2054.4 143.317 2054.07 146.974 L2069.26 146.951 Z" fill="#000000" fill-rule="nonzero" fill-opacity="1" /><polyline clip-path="url(#clip910)" style="stroke:#e26f46; stroke-linecap:round; stroke-linejoin:round; stroke-width:8; stroke-opacity:1; fill:none" points="1649.63,196.789 1787.63,196.789 "/>
<path clip-path="url(#clip910)" d="M1823.82 214.069 L1810.62 179.509 L1815.51 179.509 L1826.46 208.606 L1837.43 179.509 L1842.29 179.509 L1829.12 214.069 L1823.82 214.069 Z" fill="#000000" fill-rule="nonzero" fill-opacity="1" /><path clip-path="url(#clip910)" d="M1855.25 201.036 Q1850.09 201.036 1848.1 202.217 Q1846.11 203.397 1846.11 206.245 Q1846.11 208.513 1847.59 209.856 Q1849.1 211.175 1851.67 211.175 Q1855.21 211.175 1857.34 208.675 Q1859.49 206.152 1859.49 201.985 L1859.49 201.036 L1855.25 201.036 M1863.75 199.277 L1863.75 214.069 L1859.49 214.069 L1859.49 210.133 Q1858.03 212.495 1855.86 213.629 Q1853.68 214.74 1850.53 214.74 Q1846.55 214.74 1844.19 212.518 Q1841.85 210.272 1841.85 206.522 Q1841.85 202.147 1844.77 199.925 Q1847.71 197.703 1853.52 197.703 L1859.49 197.703 L1859.49 197.286 Q1859.49 194.347 1857.55 192.749 Q1855.62 191.129 1852.13 191.129 Q1849.91 191.129 1847.8 191.661 Q1845.69 192.194 1843.75 193.259 L1843.75 189.323 Q1846.09 188.421 1848.29 187.981 Q1850.48 187.518 1852.57 187.518 Q1858.19 187.518 1860.97 190.434 Q1863.75 193.351 1863.75 199.277 Z" fill="#000000" fill-rule="nonzero" fill-opacity="1" /><path clip-path="url(#clip910)" d="M1887.54 192.124 Q1886.83 191.708 1885.97 191.522 Q1885.14 191.314 1884.12 191.314 Q1880.51 191.314 1878.56 193.675 Q1876.64 196.013 1876.64 200.411 L1876.64 214.069 L1872.36 214.069 L1872.36 188.143 L1876.64 188.143 L1876.64 192.171 Q1877.98 189.809 1880.14 188.675 Q1882.29 187.518 1885.37 187.518 Q1885.81 187.518 1886.34 187.587 Q1886.87 187.634 1887.52 187.749 L1887.54 192.124 Z" fill="#000000" fill-rule="nonzero" fill-opacity="1" /><path clip-path="url(#clip910)" d="M1892.01 188.143 L1896.27 188.143 L1896.27 214.069 L1892.01 214.069 L1892.01 188.143 M1892.01 178.05 L1896.27 178.05 L1896.27 183.444 L1892.01 183.444 L1892.01 178.05 Z" fill="#000000" fill-rule="nonzero" fill-opacity="1" /><path clip-path="url(#clip910)" d="M1916.97 201.036 Q1911.8 201.036 1909.81 202.217 Q1907.82 203.397 1907.82 206.245 Q1907.82 208.513 1909.3 209.856 Q1910.81 211.175 1913.38 211.175 Q1916.92 211.175 1919.05 208.675 Q1921.2 206.152 1921.2 201.985 L1921.2 201.036 L1916.97 201.036 M1925.46 199.277 L1925.46 214.069 L1921.2 214.069 L1921.2 210.133 Q1919.74 212.495 1917.57 213.629 Q1915.39 214.74 1912.24 214.74 Q1908.26 214.74 1905.9 212.518 Q1903.56 210.272 1903.56 206.522 Q1903.56 202.147 1906.48 199.925 Q1909.42 197.703 1915.23 197.703 L1921.2 197.703 L1921.2 197.286 Q1921.2 194.347 1919.26 192.749 Q1917.34 191.129 1913.84 191.129 Q1911.62 191.129 1909.51 191.661 Q1907.41 192.194 1905.46 193.259 L1905.46 189.323 Q1907.8 188.421 1910 187.981 Q1912.2 187.518 1914.28 187.518 Q1919.91 187.518 1922.68 190.434 Q1925.46 193.351 1925.46 199.277 Z" fill="#000000" fill-rule="nonzero" fill-opacity="1" /><path clip-path="url(#clip910)" d="M1952.85 201.129 Q1952.85 196.43 1950.9 193.768 Q1948.98 191.083 1945.6 191.083 Q1942.22 191.083 1940.28 193.768 Q1938.35 196.43 1938.35 201.129 Q1938.35 205.828 1940.28 208.513 Q1942.22 211.175 1945.6 211.175 Q1948.98 211.175 1950.9 208.513 Q1952.85 205.828 1952.85 201.129 M1938.35 192.078 Q1939.7 189.763 1941.73 188.652 Q1943.79 187.518 1946.64 187.518 Q1951.36 187.518 1954.3 191.268 Q1957.27 195.018 1957.27 201.129 Q1957.27 207.24 1954.3 210.99 Q1951.36 214.74 1946.64 214.74 Q1943.79 214.74 1941.73 213.629 Q1939.7 212.495 1938.35 210.18 L1938.35 214.069 L1934.07 214.069 L1934.07 178.05 L1938.35 178.05 L1938.35 192.078 Z" fill="#000000" fill-rule="nonzero" fill-opacity="1" /><path clip-path="url(#clip910)" d="M1964.33 178.05 L1968.59 178.05 L1968.59 214.069 L1964.33 214.069 L1964.33 178.05 Z" fill="#000000" fill-rule="nonzero" fill-opacity="1" /><path clip-path="url(#clip910)" d="M1999.67 200.041 L1999.67 202.124 L1980.09 202.124 Q1980.37 206.522 1982.73 208.837 Q1985.11 211.129 1989.35 211.129 Q1991.8 211.129 1994.1 210.527 Q1996.41 209.925 1998.68 208.721 L1998.68 212.749 Q1996.39 213.721 1993.98 214.231 Q1991.57 214.74 1989.1 214.74 Q1982.89 214.74 1979.26 211.129 Q1975.65 207.518 1975.65 201.36 Q1975.65 194.995 1979.07 191.268 Q1982.52 187.518 1988.35 187.518 Q1993.59 187.518 1996.62 190.897 Q1999.67 194.254 1999.67 200.041 M1995.41 198.791 Q1995.37 195.296 1993.45 193.212 Q1991.55 191.129 1988.4 191.129 Q1984.84 191.129 1982.68 193.143 Q1980.55 195.157 1980.23 198.814 L1995.41 198.791 Z" fill="#000000" fill-rule="nonzero" fill-opacity="1" /><path clip-path="url(#clip910)" d="M2021.92 179.509 L2041.78 179.509 L2041.78 183.444 L2026.6 183.444 L2026.6 193.629 L2040.3 193.629 L2040.3 197.564 L2026.6 197.564 L2026.6 214.069 L2021.92 214.069 L2021.92 179.509 Z" fill="#000000" fill-rule="nonzero" fill-opacity="1" /><path clip-path="url(#clip910)" d="M2060.58 192.124 Q2059.86 191.708 2059 191.522 Q2058.17 191.314 2057.15 191.314 Q2053.54 191.314 2051.59 193.675 Q2049.67 196.013 2049.67 200.411 L2049.67 214.069 L2045.39 214.069 L2045.39 188.143 L2049.67 188.143 L2049.67 192.171 Q2051.02 189.809 2053.17 188.675 Q2055.32 187.518 2058.4 187.518 Q2058.84 187.518 2059.37 187.587 Q2059.91 187.634 2060.55 187.749 L2060.58 192.124 Z" fill="#000000" fill-rule="nonzero" fill-opacity="1" /><path clip-path="url(#clip910)" d="M2086.18 200.041 L2086.18 202.124 L2066.59 202.124 Q2066.87 206.522 2069.23 208.837 Q2071.62 211.129 2075.85 211.129 Q2078.31 211.129 2080.6 210.527 Q2082.91 209.925 2085.18 208.721 L2085.18 212.749 Q2082.89 213.721 2080.48 214.231 Q2078.08 214.74 2075.6 214.74 Q2069.4 214.74 2065.76 211.129 Q2062.15 207.518 2062.15 201.36 Q2062.15 194.995 2065.58 191.268 Q2069.03 187.518 2074.86 187.518 Q2080.09 187.518 2083.12 190.897 Q2086.18 194.254 2086.18 200.041 M2081.92 198.791 Q2081.87 195.296 2079.95 193.212 Q2078.05 191.129 2074.9 191.129 Q2071.34 191.129 2069.19 193.143 Q2067.06 195.157 2066.73 198.814 L2081.92 198.791 Z" fill="#000000" fill-rule="nonzero" fill-opacity="1" /><path clip-path="url(#clip910)" d="M2095.72 201.129 Q2095.72 205.828 2097.64 208.513 Q2099.58 211.175 2102.96 211.175 Q2106.34 211.175 2108.28 208.513 Q2110.23 205.828 2110.23 201.129 Q2110.23 196.43 2108.28 193.768 Q2106.34 191.083 2102.96 191.083 Q2099.58 191.083 2097.64 193.768 Q2095.72 196.43 2095.72 201.129 M2110.23 210.18 Q2108.89 212.495 2106.83 213.629 Q2104.79 214.74 2101.92 214.74 Q2097.22 214.74 2094.26 210.99 Q2091.32 207.24 2091.32 201.129 Q2091.32 195.018 2094.26 191.268 Q2097.22 187.518 2101.92 187.518 Q2104.79 187.518 2106.83 188.652 Q2108.89 189.763 2110.23 192.078 L2110.23 188.143 L2114.49 188.143 L2114.49 223.93 L2110.23 223.93 L2110.23 210.18 Z" fill="#000000" fill-rule="nonzero" fill-opacity="1" /><path clip-path="url(#clip910)" d="M2122.82 203.837 L2122.82 188.143 L2127.08 188.143 L2127.08 203.675 Q2127.08 207.356 2128.52 209.208 Q2129.95 211.036 2132.82 211.036 Q2136.27 211.036 2138.26 208.837 Q2140.27 206.638 2140.27 202.842 L2140.27 188.143 L2144.53 188.143 L2144.53 214.069 L2140.27 214.069 L2140.27 210.087 Q2138.72 212.448 2136.66 213.606 Q2134.63 214.74 2131.92 214.74 Q2127.45 214.74 2125.14 211.962 Q2122.82 209.184 2122.82 203.837 M2133.54 187.518 L2133.54 187.518 Z" fill="#000000" fill-rule="nonzero" fill-opacity="1" /><path clip-path="url(#clip910)" d="M2175.48 200.041 L2175.48 202.124 L2155.9 202.124 Q2156.18 206.522 2158.54 208.837 Q2160.92 211.129 2165.16 211.129 Q2167.61 211.129 2169.9 210.527 Q2172.22 209.925 2174.49 208.721 L2174.49 212.749 Q2172.2 213.721 2169.79 214.231 Q2167.38 214.74 2164.9 214.74 Q2158.7 214.74 2155.07 211.129 Q2151.46 207.518 2151.46 201.36 Q2151.46 194.995 2154.88 191.268 Q2158.33 187.518 2164.16 187.518 Q2169.4 187.518 2172.43 190.897 Q2175.48 194.254 2175.48 200.041 M2171.22 198.791 Q2171.18 195.296 2169.26 193.212 Q2167.36 191.129 2164.21 191.129 Q2160.65 191.129 2158.49 193.143 Q2156.36 195.157 2156.04 198.814 L2171.22 198.791 Z" fill="#000000" fill-rule="nonzero" fill-opacity="1" /><path clip-path="url(#clip910)" d="M2204.02 198.421 L2204.02 214.069 L2199.77 214.069 L2199.77 198.559 Q2199.77 194.879 2198.33 193.05 Q2196.9 191.222 2194.02 191.222 Q2190.58 191.222 2188.58 193.421 Q2186.59 195.62 2186.59 199.416 L2186.59 214.069 L2182.31 214.069 L2182.31 188.143 L2186.59 188.143 L2186.59 192.171 Q2188.12 189.833 2190.18 188.675 Q2192.27 187.518 2194.97 187.518 Q2199.44 187.518 2201.73 190.296 Q2204.02 193.05 2204.02 198.421 Z" fill="#000000" fill-rule="nonzero" fill-opacity="1" /><path clip-path="url(#clip910)" d="M2231.18 189.138 L2231.18 193.12 Q2229.37 192.124 2227.54 191.638 Q2225.74 191.129 2223.89 191.129 Q2219.74 191.129 2217.45 193.768 Q2215.16 196.384 2215.16 201.129 Q2215.16 205.874 2217.45 208.513 Q2219.74 211.129 2223.89 211.129 Q2225.74 211.129 2227.54 210.643 Q2229.37 210.133 2231.18 209.138 L2231.18 213.073 Q2229.39 213.907 2227.47 214.323 Q2225.58 214.74 2223.42 214.74 Q2217.57 214.74 2214.12 211.059 Q2210.67 207.379 2210.67 201.129 Q2210.67 194.786 2214.14 191.152 Q2217.64 187.518 2223.7 187.518 Q2225.67 187.518 2227.54 187.935 Q2229.42 188.328 2231.18 189.138 Z" fill="#000000" fill-rule="nonzero" fill-opacity="1" /><path clip-path="url(#clip910)" d="M2249.37 216.476 Q2247.57 221.106 2245.85 222.518 Q2244.14 223.93 2241.27 223.93 L2237.87 223.93 L2237.87 220.365 L2240.37 220.365 Q2242.13 220.365 2243.1 219.532 Q2244.07 218.698 2245.25 215.596 L2246.02 213.652 L2235.53 188.143 L2240.04 188.143 L2248.14 208.421 L2256.25 188.143 L2260.76 188.143 L2249.37 216.476 Z" fill="#000000" fill-rule="nonzero" fill-opacity="1" /><polyline clip-path="url(#clip910)" style="stroke:#3da44d; stroke-linecap:round; stroke-linejoin:round; stroke-width:8; stroke-opacity:1; fill:none" points="1649.63,248.629 1787.63,248.629 "/>
<path clip-path="url(#clip910)" d="M1823.82 265.909 L1810.62 231.349 L1815.51 231.349 L1826.46 260.446 L1837.43 231.349 L1842.29 231.349 L1829.12 265.909 L1823.82 265.909 Z" fill="#000000" fill-rule="nonzero" fill-opacity="1" /><path clip-path="url(#clip910)" d="M1855.25 252.876 Q1850.09 252.876 1848.1 254.057 Q1846.11 255.237 1846.11 258.085 Q1846.11 260.353 1847.59 261.696 Q1849.1 263.015 1851.67 263.015 Q1855.21 263.015 1857.34 260.515 Q1859.49 257.992 1859.49 253.825 L1859.49 252.876 L1855.25 252.876 M1863.75 251.117 L1863.75 265.909 L1859.49 265.909 L1859.49 261.973 Q1858.03 264.335 1855.86 265.469 Q1853.68 266.58 1850.53 266.58 Q1846.55 266.58 1844.19 264.358 Q1841.85 262.112 1841.85 258.362 Q1841.85 253.987 1844.77 251.765 Q1847.71 249.543 1853.52 249.543 L1859.49 249.543 L1859.49 249.126 Q1859.49 246.187 1857.55 244.589 Q1855.62 242.969 1852.13 242.969 Q1849.91 242.969 1847.8 243.501 Q1845.69 244.034 1843.75 245.099 L1843.75 241.163 Q1846.09 240.261 1848.29 239.821 Q1850.48 239.358 1852.57 239.358 Q1858.19 239.358 1860.97 242.274 Q1863.75 245.191 1863.75 251.117 Z" fill="#000000" fill-rule="nonzero" fill-opacity="1" /><path clip-path="url(#clip910)" d="M1887.54 243.964 Q1886.83 243.548 1885.97 243.362 Q1885.14 243.154 1884.12 243.154 Q1880.51 243.154 1878.56 245.515 Q1876.64 247.853 1876.64 252.251 L1876.64 265.909 L1872.36 265.909 L1872.36 239.983 L1876.64 239.983 L1876.64 244.011 Q1877.98 241.649 1880.14 240.515 Q1882.29 239.358 1885.37 239.358 Q1885.81 239.358 1886.34 239.427 Q1886.87 239.474 1887.52 239.589 L1887.54 243.964 Z" fill="#000000" fill-rule="nonzero" fill-opacity="1" /><path clip-path="url(#clip910)" d="M1892.01 239.983 L1896.27 239.983 L1896.27 265.909 L1892.01 265.909 L1892.01 239.983 M1892.01 229.89 L1896.27 229.89 L1896.27 235.284 L1892.01 235.284 L1892.01 229.89 Z" fill="#000000" fill-rule="nonzero" fill-opacity="1" /><path clip-path="url(#clip910)" d="M1916.97 252.876 Q1911.8 252.876 1909.81 254.057 Q1907.82 255.237 1907.82 258.085 Q1907.82 260.353 1909.3 261.696 Q1910.81 263.015 1913.38 263.015 Q1916.92 263.015 1919.05 260.515 Q1921.2 257.992 1921.2 253.825 L1921.2 252.876 L1916.97 252.876 M1925.46 251.117 L1925.46 265.909 L1921.2 265.909 L1921.2 261.973 Q1919.74 264.335 1917.57 265.469 Q1915.39 266.58 1912.24 266.58 Q1908.26 266.58 1905.9 264.358 Q1903.56 262.112 1903.56 258.362 Q1903.56 253.987 1906.48 251.765 Q1909.42 249.543 1915.23 249.543 L1921.2 249.543 L1921.2 249.126 Q1921.2 246.187 1919.26 244.589 Q1917.34 242.969 1913.84 242.969 Q1911.62 242.969 1909.51 243.501 Q1907.41 244.034 1905.46 245.099 L1905.46 241.163 Q1907.8 240.261 1910 239.821 Q1912.2 239.358 1914.28 239.358 Q1919.91 239.358 1922.68 242.274 Q1925.46 245.191 1925.46 251.117 Z" fill="#000000" fill-rule="nonzero" fill-opacity="1" /><path clip-path="url(#clip910)" d="M1952.85 252.969 Q1952.85 248.27 1950.9 245.608 Q1948.98 242.923 1945.6 242.923 Q1942.22 242.923 1940.28 245.608 Q1938.35 248.27 1938.35 252.969 Q1938.35 257.668 1940.28 260.353 Q1942.22 263.015 1945.6 263.015 Q1948.98 263.015 1950.9 260.353 Q1952.85 257.668 1952.85 252.969 M1938.35 243.918 Q1939.7 241.603 1941.73 240.492 Q1943.79 239.358 1946.64 239.358 Q1951.36 239.358 1954.3 243.108 Q1957.27 246.858 1957.27 252.969 Q1957.27 259.08 1954.3 262.83 Q1951.36 266.58 1946.64 266.58 Q1943.79 266.58 1941.73 265.469 Q1939.7 264.335 1938.35 262.02 L1938.35 265.909 L1934.07 265.909 L1934.07 229.89 L1938.35 229.89 L1938.35 243.918 Z" fill="#000000" fill-rule="nonzero" fill-opacity="1" /><path clip-path="url(#clip910)" d="M1964.33 229.89 L1968.59 229.89 L1968.59 265.909 L1964.33 265.909 L1964.33 229.89 Z" fill="#000000" fill-rule="nonzero" fill-opacity="1" /><path clip-path="url(#clip910)" d="M1999.67 251.881 L1999.67 253.964 L1980.09 253.964 Q1980.37 258.362 1982.73 260.677 Q1985.11 262.969 1989.35 262.969 Q1991.8 262.969 1994.1 262.367 Q1996.41 261.765 1998.68 260.561 L1998.68 264.589 Q1996.39 265.561 1993.98 266.071 Q1991.57 266.58 1989.1 266.58 Q1982.89 266.58 1979.26 262.969 Q1975.65 259.358 1975.65 253.2 Q1975.65 246.835 1979.07 243.108 Q1982.52 239.358 1988.35 239.358 Q1993.59 239.358 1996.62 242.737 Q1999.67 246.094 1999.67 251.881 M1995.41 250.631 Q1995.37 247.136 1993.45 245.052 Q1991.55 242.969 1988.4 242.969 Q1984.84 242.969 1982.68 244.983 Q1980.55 246.997 1980.23 250.654 L1995.41 250.631 Z" fill="#000000" fill-rule="nonzero" fill-opacity="1" /><path clip-path="url(#clip910)" d="M2021.92 231.349 L2028.22 231.349 L2043.54 260.261 L2043.54 231.349 L2048.08 231.349 L2048.08 265.909 L2041.78 265.909 L2026.46 236.997 L2026.46 265.909 L2021.92 265.909 L2021.92 231.349 Z" fill="#000000" fill-rule="nonzero" fill-opacity="1" /><path clip-path="url(#clip910)" d="M2067.24 242.969 Q2063.82 242.969 2061.83 245.654 Q2059.84 248.316 2059.84 252.969 Q2059.84 257.622 2061.8 260.307 Q2063.79 262.969 2067.24 262.969 Q2070.65 262.969 2072.64 260.284 Q2074.63 257.598 2074.63 252.969 Q2074.63 248.362 2072.64 245.677 Q2070.65 242.969 2067.24 242.969 M2067.24 239.358 Q2072.8 239.358 2075.97 242.969 Q2079.14 246.58 2079.14 252.969 Q2079.14 259.335 2075.97 262.969 Q2072.8 266.58 2067.24 266.58 Q2061.66 266.58 2058.49 262.969 Q2055.34 259.335 2055.34 252.969 Q2055.34 246.58 2058.49 242.969 Q2061.66 239.358 2067.24 239.358 Z" fill="#000000" fill-rule="nonzero" fill-opacity="1" /><path clip-path="url(#clip910)" d="M2086.2 239.983 L2090.46 239.983 L2090.46 265.909 L2086.2 265.909 L2086.2 239.983 M2086.2 229.89 L2090.46 229.89 L2090.46 235.284 L2086.2 235.284 L2086.2 229.89 Z" fill="#000000" fill-rule="nonzero" fill-opacity="1" /><path clip-path="url(#clip910)" d="M2115.9 240.747 L2115.9 244.774 Q2114.09 243.849 2112.15 243.386 Q2110.21 242.923 2108.12 242.923 Q2104.95 242.923 2103.35 243.895 Q2101.78 244.867 2101.78 246.811 Q2101.78 248.293 2102.91 249.149 Q2104.05 249.983 2107.47 250.747 L2108.93 251.071 Q2113.47 252.043 2115.37 253.825 Q2117.29 255.585 2117.29 258.756 Q2117.29 262.367 2114.42 264.473 Q2111.57 266.58 2106.57 266.58 Q2104.49 266.58 2102.22 266.163 Q2099.97 265.77 2097.47 264.96 L2097.47 260.561 Q2099.84 261.788 2102.13 262.413 Q2104.42 263.015 2106.66 263.015 Q2109.67 263.015 2111.29 261.997 Q2112.91 260.955 2112.91 259.08 Q2112.91 257.344 2111.73 256.418 Q2110.58 255.492 2106.62 254.636 L2105.14 254.288 Q2101.18 253.455 2099.42 251.742 Q2097.66 250.006 2097.66 246.997 Q2097.66 243.339 2100.25 241.349 Q2102.84 239.358 2107.61 239.358 Q2109.97 239.358 2112.06 239.705 Q2114.14 240.052 2115.9 240.747 Z" fill="#000000" fill-rule="nonzero" fill-opacity="1" /><path clip-path="url(#clip910)" d="M2146.25 251.881 L2146.25 253.964 L2126.66 253.964 Q2126.94 258.362 2129.3 260.677 Q2131.69 262.969 2135.92 262.969 Q2138.38 262.969 2140.67 262.367 Q2142.98 261.765 2145.25 260.561 L2145.25 264.589 Q2142.96 265.561 2140.55 266.071 Q2138.15 266.58 2135.67 266.58 Q2129.46 266.58 2125.83 262.969 Q2122.22 259.358 2122.22 253.2 Q2122.22 246.835 2125.65 243.108 Q2129.09 239.358 2134.93 239.358 Q2140.16 239.358 2143.19 242.737 Q2146.25 246.094 2146.25 251.881 M2141.99 250.631 Q2141.94 247.136 2140.02 245.052 Q2138.12 242.969 2134.97 242.969 Q2131.41 242.969 2129.26 244.983 Q2127.13 246.997 2126.8 250.654 L2141.99 250.631 Z" fill="#000000" fill-rule="nonzero" fill-opacity="1" /><polyline clip-path="url(#clip910)" style="stroke:#c271d2; stroke-linecap:round; stroke-linejoin:round; stroke-width:8; stroke-opacity:1; fill:none" points="1649.63,300.469 1787.63,300.469 "/>
<path clip-path="url(#clip910)" d="M1823.82 317.749 L1810.62 283.189 L1815.51 283.189 L1826.46 312.286 L1837.43 283.189 L1842.29 283.189 L1829.12 317.749 L1823.82 317.749 Z" fill="#000000" fill-rule="nonzero" fill-opacity="1" /><path clip-path="url(#clip910)" d="M1855.25 304.716 Q1850.09 304.716 1848.1 305.897 Q1846.11 307.077 1846.11 309.925 Q1846.11 312.193 1847.59 313.536 Q1849.1 314.855 1851.67 314.855 Q1855.21 314.855 1857.34 312.355 Q1859.49 309.832 1859.49 305.665 L1859.49 304.716 L1855.25 304.716 M1863.75 302.957 L1863.75 317.749 L1859.49 317.749 L1859.49 313.813 Q1858.03 316.175 1855.86 317.309 Q1853.68 318.42 1850.53 318.42 Q1846.55 318.42 1844.19 316.198 Q1841.85 313.952 1841.85 310.202 Q1841.85 305.827 1844.77 303.605 Q1847.71 301.383 1853.52 301.383 L1859.49 301.383 L1859.49 300.966 Q1859.49 298.027 1857.55 296.429 Q1855.62 294.809 1852.13 294.809 Q1849.91 294.809 1847.8 295.341 Q1845.69 295.874 1843.75 296.939 L1843.75 293.003 Q1846.09 292.101 1848.29 291.661 Q1850.48 291.198 1852.57 291.198 Q1858.19 291.198 1860.97 294.114 Q1863.75 297.031 1863.75 302.957 Z" fill="#000000" fill-rule="nonzero" fill-opacity="1" /><path clip-path="url(#clip910)" d="M1887.54 295.804 Q1886.83 295.388 1885.97 295.202 Q1885.14 294.994 1884.12 294.994 Q1880.51 294.994 1878.56 297.355 Q1876.64 299.693 1876.64 304.091 L1876.64 317.749 L1872.36 317.749 L1872.36 291.823 L1876.64 291.823 L1876.64 295.851 Q1877.98 293.489 1880.14 292.355 Q1882.29 291.198 1885.37 291.198 Q1885.81 291.198 1886.34 291.267 Q1886.87 291.314 1887.52 291.429 L1887.54 295.804 Z" fill="#000000" fill-rule="nonzero" fill-opacity="1" /><path clip-path="url(#clip910)" d="M1892.01 291.823 L1896.27 291.823 L1896.27 317.749 L1892.01 317.749 L1892.01 291.823 M1892.01 281.73 L1896.27 281.73 L1896.27 287.124 L1892.01 287.124 L1892.01 281.73 Z" fill="#000000" fill-rule="nonzero" fill-opacity="1" /><path clip-path="url(#clip910)" d="M1916.97 304.716 Q1911.8 304.716 1909.81 305.897 Q1907.82 307.077 1907.82 309.925 Q1907.82 312.193 1909.3 313.536 Q1910.81 314.855 1913.38 314.855 Q1916.92 314.855 1919.05 312.355 Q1921.2 309.832 1921.2 305.665 L1921.2 304.716 L1916.97 304.716 M1925.46 302.957 L1925.46 317.749 L1921.2 317.749 L1921.2 313.813 Q1919.74 316.175 1917.57 317.309 Q1915.39 318.42 1912.24 318.42 Q1908.26 318.42 1905.9 316.198 Q1903.56 313.952 1903.56 310.202 Q1903.56 305.827 1906.48 303.605 Q1909.42 301.383 1915.23 301.383 L1921.2 301.383 L1921.2 300.966 Q1921.2 298.027 1919.26 296.429 Q1917.34 294.809 1913.84 294.809 Q1911.62 294.809 1909.51 295.341 Q1907.41 295.874 1905.46 296.939 L1905.46 293.003 Q1907.8 292.101 1910 291.661 Q1912.2 291.198 1914.28 291.198 Q1919.91 291.198 1922.68 294.114 Q1925.46 297.031 1925.46 302.957 Z" fill="#000000" fill-rule="nonzero" fill-opacity="1" /><path clip-path="url(#clip910)" d="M1952.85 304.809 Q1952.85 300.11 1950.9 297.448 Q1948.98 294.763 1945.6 294.763 Q1942.22 294.763 1940.28 297.448 Q1938.35 300.11 1938.35 304.809 Q1938.35 309.508 1940.28 312.193 Q1942.22 314.855 1945.6 314.855 Q1948.98 314.855 1950.9 312.193 Q1952.85 309.508 1952.85 304.809 M1938.35 295.758 Q1939.7 293.443 1941.73 292.332 Q1943.79 291.198 1946.64 291.198 Q1951.36 291.198 1954.3 294.948 Q1957.27 298.698 1957.27 304.809 Q1957.27 310.92 1954.3 314.67 Q1951.36 318.42 1946.64 318.42 Q1943.79 318.42 1941.73 317.309 Q1939.7 316.175 1938.35 313.86 L1938.35 317.749 L1934.07 317.749 L1934.07 281.73 L1938.35 281.73 L1938.35 295.758 Z" fill="#000000" fill-rule="nonzero" fill-opacity="1" /><path clip-path="url(#clip910)" d="M1964.33 281.73 L1968.59 281.73 L1968.59 317.749 L1964.33 317.749 L1964.33 281.73 Z" fill="#000000" fill-rule="nonzero" fill-opacity="1" /><path clip-path="url(#clip910)" d="M1999.67 303.721 L1999.67 305.804 L1980.09 305.804 Q1980.37 310.202 1982.73 312.517 Q1985.11 314.809 1989.35 314.809 Q1991.8 314.809 1994.1 314.207 Q1996.41 313.605 1998.68 312.401 L1998.68 316.429 Q1996.39 317.401 1993.98 317.911 Q1991.57 318.42 1989.1 318.42 Q1982.89 318.42 1979.26 314.809 Q1975.65 311.198 1975.65 305.04 Q1975.65 298.675 1979.07 294.948 Q1982.52 291.198 1988.35 291.198 Q1993.59 291.198 1996.62 294.577 Q1999.67 297.934 1999.67 303.721 M1995.41 302.471 Q1995.37 298.976 1993.45 296.892 Q1991.55 294.809 1988.4 294.809 Q1984.84 294.809 1982.68 296.823 Q1980.55 298.837 1980.23 302.494 L1995.41 302.471 Z" fill="#000000" fill-rule="nonzero" fill-opacity="1" /><path clip-path="url(#clip910)" d="M2017.13 283.189 L2046.36 283.189 L2046.36 287.124 L2034.1 287.124 L2034.1 317.749 L2029.4 317.749 L2029.4 287.124 L2017.13 287.124 L2017.13 283.189 Z" fill="#000000" fill-rule="nonzero" fill-opacity="1" /><path clip-path="url(#clip910)" d="M2058.75 295.804 Q2058.03 295.388 2057.17 295.202 Q2056.34 294.994 2055.32 294.994 Q2051.71 294.994 2049.77 297.355 Q2047.84 299.693 2047.84 304.091 L2047.84 317.749 L2043.56 317.749 L2043.56 291.823 L2047.84 291.823 L2047.84 295.851 Q2049.19 293.489 2051.34 292.355 Q2053.49 291.198 2056.57 291.198 Q2057.01 291.198 2057.54 291.267 Q2058.08 291.314 2058.72 291.429 L2058.75 295.804 Z" fill="#000000" fill-rule="nonzero" fill-opacity="1" /><path clip-path="url(#clip910)" d="M2084.35 303.721 L2084.35 305.804 L2064.77 305.804 Q2065.04 310.202 2067.41 312.517 Q2069.79 314.809 2074.03 314.809 Q2076.48 314.809 2078.77 314.207 Q2081.09 313.605 2083.35 312.401 L2083.35 316.429 Q2081.06 317.401 2078.65 317.911 Q2076.25 318.42 2073.77 318.42 Q2067.57 318.42 2063.93 314.809 Q2060.32 311.198 2060.32 305.04 Q2060.32 298.675 2063.75 294.948 Q2067.2 291.198 2073.03 291.198 Q2078.26 291.198 2081.29 294.577 Q2084.35 297.934 2084.35 303.721 M2080.09 302.471 Q2080.04 298.976 2078.12 296.892 Q2076.22 294.809 2073.08 294.809 Q2069.51 294.809 2067.36 296.823 Q2065.23 298.837 2064.91 302.494 L2080.09 302.471 Z" fill="#000000" fill-rule="nonzero" fill-opacity="1" /><path clip-path="url(#clip910)" d="M2112.89 302.101 L2112.89 317.749 L2108.63 317.749 L2108.63 302.239 Q2108.63 298.559 2107.2 296.73 Q2105.76 294.902 2102.89 294.902 Q2099.44 294.902 2097.45 297.101 Q2095.46 299.3 2095.46 303.096 L2095.46 317.749 L2091.18 317.749 L2091.18 291.823 L2095.46 291.823 L2095.46 295.851 Q2096.99 293.513 2099.05 292.355 Q2101.13 291.198 2103.84 291.198 Q2108.31 291.198 2110.6 293.976 Q2112.89 296.73 2112.89 302.101 Z" fill="#000000" fill-rule="nonzero" fill-opacity="1" /><path clip-path="url(#clip910)" d="M2138.45 295.758 L2138.45 281.73 L2142.71 281.73 L2142.71 317.749 L2138.45 317.749 L2138.45 313.86 Q2137.1 316.175 2135.04 317.309 Q2133.01 318.42 2130.14 318.42 Q2125.44 318.42 2122.47 314.67 Q2119.53 310.92 2119.53 304.809 Q2119.53 298.698 2122.47 294.948 Q2125.44 291.198 2130.14 291.198 Q2133.01 291.198 2135.04 292.332 Q2137.1 293.443 2138.45 295.758 M2123.93 304.809 Q2123.93 309.508 2125.85 312.193 Q2127.8 314.855 2131.18 314.855 Q2134.56 314.855 2136.5 312.193 Q2138.45 309.508 2138.45 304.809 Q2138.45 300.11 2136.5 297.448 Q2134.56 294.763 2131.18 294.763 Q2127.8 294.763 2125.85 297.448 Q2123.93 300.11 2123.93 304.809 Z" fill="#000000" fill-rule="nonzero" fill-opacity="1" /></svg>
