<?xml version="1.0" encoding="utf-8"?>
<svg xmlns="http://www.w3.org/2000/svg" xmlns:xlink="http://www.w3.org/1999/xlink" width="600" height="400" viewBox="0 0 2400 1600">
<defs>
  <clipPath id="clip230">
    <rect x="0" y="0" width="2400" height="1600"/>
  </clipPath>
</defs>
<path clip-path="url(#clip230)" d="M0 1600 L2400 1600 L2400 8.88178e-14 L0 8.88178e-14  Z" fill="#ffffff" fill-rule="evenodd" fill-opacity="1"/>
<defs>
  <clipPath id="clip231">
    <rect x="480" y="0" width="1681" height="1600"/>
  </clipPath>
</defs>
<path clip-path="url(#clip230)" d="M219.866 1423.18 L1918.33 1423.18 L1918.33 123.472 L219.866 123.472  Z" fill="#ffffff" fill-rule="evenodd" fill-opacity="1"/>
<defs>
  <clipPath id="clip232">
    <rect x="219" y="123" width="1699" height="1301"/>
  </clipPath>
</defs>
<polyline clip-path="url(#clip232)" style="stroke:#000000; stroke-linecap:round; stroke-linejoin:round; stroke-width:2; stroke-opacity:0.1; fill:none" points="1765.35,1423.18 1765.35,123.472 "/>
<polyline clip-path="url(#clip232)" style="stroke:#000000; stroke-linecap:round; stroke-linejoin:round; stroke-width:2; stroke-opacity:0.1; fill:none" points="1610.63,1423.18 1610.63,123.472 "/>
<polyline clip-path="url(#clip232)" style="stroke:#000000; stroke-linecap:round; stroke-linejoin:round; stroke-width:2; stroke-opacity:0.1; fill:none" points="1455.91,1423.18 1455.91,123.472 "/>
<polyline clip-path="url(#clip232)" style="stroke:#000000; stroke-linecap:round; stroke-linejoin:round; stroke-width:2; stroke-opacity:0.1; fill:none" points="1301.18,1423.18 1301.18,123.472 "/>
<polyline clip-path="url(#clip232)" style="stroke:#000000; stroke-linecap:round; stroke-linejoin:round; stroke-width:2; stroke-opacity:0.1; fill:none" points="1146.46,1423.18 1146.46,123.472 "/>
<polyline clip-path="url(#clip232)" style="stroke:#000000; stroke-linecap:round; stroke-linejoin:round; stroke-width:2; stroke-opacity:0.1; fill:none" points="991.734,1423.18 991.734,123.472 "/>
<polyline clip-path="url(#clip232)" style="stroke:#000000; stroke-linecap:round; stroke-linejoin:round; stroke-width:2; stroke-opacity:0.1; fill:none" points="837.01,1423.18 837.01,123.472 "/>
<polyline clip-path="url(#clip232)" style="stroke:#000000; stroke-linecap:round; stroke-linejoin:round; stroke-width:2; stroke-opacity:0.1; fill:none" points="682.286,1423.18 682.286,123.472 "/>
<polyline clip-path="url(#clip232)" style="stroke:#000000; stroke-linecap:round; stroke-linejoin:round; stroke-width:2; stroke-opacity:0.1; fill:none" points="527.562,1423.18 527.562,123.472 "/>
<polyline clip-path="url(#clip232)" style="stroke:#000000; stroke-linecap:round; stroke-linejoin:round; stroke-width:2; stroke-opacity:0.1; fill:none" points="372.839,1423.18 372.839,123.472 "/>
<polyline clip-path="url(#clip232)" style="stroke:#000000; stroke-linecap:round; stroke-linejoin:round; stroke-width:2; stroke-opacity:0.1; fill:none" points="1918.33,1423.18 219.866,1423.18 "/>
<polyline clip-path="url(#clip232)" style="stroke:#000000; stroke-linecap:round; stroke-linejoin:round; stroke-width:2; stroke-opacity:0.1; fill:none" points="1918.33,1205.24 219.866,1205.24 "/>
<polyline clip-path="url(#clip232)" style="stroke:#000000; stroke-linecap:round; stroke-linejoin:round; stroke-width:2; stroke-opacity:0.1; fill:none" points="1918.33,987.293 219.866,987.293 "/>
<polyline clip-path="url(#clip232)" style="stroke:#000000; stroke-linecap:round; stroke-linejoin:round; stroke-width:2; stroke-opacity:0.1; fill:none" points="1918.33,769.35 219.866,769.35 "/>
<polyline clip-path="url(#clip232)" style="stroke:#000000; stroke-linecap:round; stroke-linejoin:round; stroke-width:2; stroke-opacity:0.1; fill:none" points="1918.33,551.407 219.866,551.407 "/>
<polyline clip-path="url(#clip232)" style="stroke:#000000; stroke-linecap:round; stroke-linejoin:round; stroke-width:2; stroke-opacity:0.1; fill:none" points="1918.33,333.464 219.866,333.464 "/>
<polyline clip-path="url(#clip230)" style="stroke:#000000; stroke-linecap:round; stroke-linejoin:round; stroke-width:4; stroke-opacity:1; fill:none" points="1918.33,1423.18 219.866,1423.18 "/>
<polyline clip-path="url(#clip230)" style="stroke:#000000; stroke-linecap:round; stroke-linejoin:round; stroke-width:4; stroke-opacity:1; fill:none" points="1765.35,1423.18 1765.35,1404.28 "/>
<polyline clip-path="url(#clip230)" style="stroke:#000000; stroke-linecap:round; stroke-linejoin:round; stroke-width:4; stroke-opacity:1; fill:none" points="1610.63,1423.18 1610.63,1404.28 "/>
<polyline clip-path="url(#clip230)" style="stroke:#000000; stroke-linecap:round; stroke-linejoin:round; stroke-width:4; stroke-opacity:1; fill:none" points="1455.91,1423.18 1455.91,1404.28 "/>
<polyline clip-path="url(#clip230)" style="stroke:#000000; stroke-linecap:round; stroke-linejoin:round; stroke-width:4; stroke-opacity:1; fill:none" points="1301.18,1423.18 1301.18,1404.28 "/>
<polyline clip-path="url(#clip230)" style="stroke:#000000; stroke-linecap:round; stroke-linejoin:round; stroke-width:4; stroke-opacity:1; fill:none" points="1146.46,1423.18 1146.46,1404.28 "/>
<polyline clip-path="url(#clip230)" style="stroke:#000000; stroke-linecap:round; stroke-linejoin:round; stroke-width:4; stroke-opacity:1; fill:none" points="991.734,1423.18 991.734,1404.28 "/>
<polyline clip-path="url(#clip230)" style="stroke:#000000; stroke-linecap:round; stroke-linejoin:round; stroke-width:4; stroke-opacity:1; fill:none" points="837.01,1423.18 837.01,1404.28 "/>
<polyline clip-path="url(#clip230)" style="stroke:#000000; stroke-linecap:round; stroke-linejoin:round; stroke-width:4; stroke-opacity:1; fill:none" points="682.286,1423.18 682.286,1404.28 "/>
<polyline clip-path="url(#clip230)" style="stroke:#000000; stroke-linecap:round; stroke-linejoin:round; stroke-width:4; stroke-opacity:1; fill:none" points="527.562,1423.18 527.562,1404.28 "/>
<polyline clip-path="url(#clip230)" style="stroke:#000000; stroke-linecap:round; stroke-linejoin:round; stroke-width:4; stroke-opacity:1; fill:none" points="372.839,1423.18 372.839,1404.28 "/>
<path clip-path="url(#clip230)" d="M1755.63 1451.02 L1773.99 1451.02 L1773.99 1454.96 L1759.91 1454.96 L1759.91 1463.43 Q1760.93 1463.08 1761.95 1462.92 Q1762.97 1462.73 1763.99 1462.73 Q1769.77 1462.73 1773.15 1465.9 Q1776.53 1469.08 1776.53 1474.49 Q1776.53 1480.07 1773.06 1483.17 Q1769.59 1486.25 1763.27 1486.25 Q1761.09 1486.25 1758.83 1485.88 Q1756.58 1485.51 1754.17 1484.77 L1754.17 1480.07 Q1756.26 1481.2 1758.48 1481.76 Q1760.7 1482.32 1763.18 1482.32 Q1767.18 1482.32 1769.52 1480.21 Q1771.86 1478.1 1771.86 1474.49 Q1771.86 1470.88 1769.52 1468.77 Q1767.18 1466.67 1763.18 1466.67 Q1761.3 1466.67 1759.43 1467.08 Q1757.58 1467.5 1755.63 1468.38 L1755.63 1451.02 Z" fill="#000000" fill-rule="nonzero" fill-opacity="1" /><path clip-path="url(#clip230)" d="M1585.81 1481.64 L1593.45 1481.64 L1593.45 1455.28 L1585.14 1456.95 L1585.14 1452.69 L1593.41 1451.02 L1598.08 1451.02 L1598.08 1481.64 L1605.72 1481.64 L1605.72 1485.58 L1585.81 1485.58 L1585.81 1481.64 Z" fill="#000000" fill-rule="nonzero" fill-opacity="1" /><path clip-path="url(#clip230)" d="M1615.21 1451.02 L1633.57 1451.02 L1633.57 1454.96 L1619.49 1454.96 L1619.49 1463.43 Q1620.51 1463.08 1621.53 1462.92 Q1622.55 1462.73 1623.57 1462.73 Q1629.36 1462.73 1632.74 1465.9 Q1636.11 1469.08 1636.11 1474.49 Q1636.11 1480.07 1632.64 1483.17 Q1629.17 1486.25 1622.85 1486.25 Q1620.68 1486.25 1618.41 1485.88 Q1616.16 1485.51 1613.75 1484.77 L1613.75 1480.07 Q1615.84 1481.2 1618.06 1481.76 Q1620.28 1482.32 1622.76 1482.32 Q1626.76 1482.32 1629.1 1480.21 Q1631.44 1478.1 1631.44 1474.49 Q1631.44 1470.88 1629.1 1468.77 Q1626.76 1466.67 1622.76 1466.67 Q1620.88 1466.67 1619.01 1467.08 Q1617.16 1467.5 1615.21 1468.38 L1615.21 1451.02 Z" fill="#000000" fill-rule="nonzero" fill-opacity="1" /><path clip-path="url(#clip230)" d="M1435.18 1481.64 L1451.5 1481.64 L1451.5 1485.58 L1429.55 1485.58 L1429.55 1481.64 Q1432.21 1478.89 1436.8 1474.26 Q1441.4 1469.61 1442.58 1468.27 Q1444.83 1465.74 1445.71 1464.01 Q1446.61 1462.25 1446.61 1460.56 Q1446.61 1457.8 1444.67 1456.07 Q1442.75 1454.33 1439.64 1454.33 Q1437.44 1454.33 1434.99 1455.09 Q1432.56 1455.86 1429.78 1457.41 L1429.78 1452.69 Q1432.61 1451.55 1435.06 1450.97 Q1437.51 1450.39 1439.55 1450.39 Q1444.92 1450.39 1448.12 1453.08 Q1451.31 1455.77 1451.31 1460.26 Q1451.31 1462.39 1450.5 1464.31 Q1449.71 1466.2 1447.61 1468.8 Q1447.03 1469.47 1443.93 1472.69 Q1440.82 1475.88 1435.18 1481.64 Z" fill="#000000" fill-rule="nonzero" fill-opacity="1" /><path clip-path="url(#clip230)" d="M1461.36 1451.02 L1479.71 1451.02 L1479.71 1454.96 L1465.64 1454.96 L1465.64 1463.43 Q1466.66 1463.08 1467.68 1462.92 Q1468.69 1462.73 1469.71 1462.73 Q1475.5 1462.73 1478.88 1465.9 Q1482.26 1469.08 1482.26 1474.49 Q1482.26 1480.07 1478.79 1483.17 Q1475.31 1486.25 1469 1486.25 Q1466.82 1486.25 1464.55 1485.88 Q1462.31 1485.51 1459.9 1484.77 L1459.9 1480.07 Q1461.98 1481.2 1464.2 1481.76 Q1466.43 1482.32 1468.9 1482.32 Q1472.91 1482.32 1475.25 1480.21 Q1477.58 1478.1 1477.58 1474.49 Q1477.58 1470.88 1475.25 1468.77 Q1472.91 1466.67 1468.9 1466.67 Q1467.03 1466.67 1465.15 1467.08 Q1463.3 1467.5 1461.36 1468.38 L1461.36 1451.02 Z" fill="#000000" fill-rule="nonzero" fill-opacity="1" /><path clip-path="url(#clip230)" d="M1290.52 1466.95 Q1293.88 1467.66 1295.75 1469.93 Q1297.65 1472.2 1297.65 1475.53 Q1297.65 1480.65 1294.13 1483.45 Q1290.61 1486.25 1284.13 1486.25 Q1281.96 1486.25 1279.64 1485.81 Q1277.35 1485.39 1274.9 1484.54 L1274.9 1480.02 Q1276.84 1481.16 1279.16 1481.74 Q1281.47 1482.32 1283.99 1482.32 Q1288.39 1482.32 1290.68 1480.58 Q1293 1478.84 1293 1475.53 Q1293 1472.48 1290.85 1470.77 Q1288.72 1469.03 1284.9 1469.03 L1280.87 1469.03 L1280.87 1465.19 L1285.08 1465.19 Q1288.53 1465.19 1290.36 1463.82 Q1292.19 1462.43 1292.19 1459.84 Q1292.19 1457.18 1290.29 1455.77 Q1288.42 1454.33 1284.9 1454.33 Q1282.98 1454.33 1280.78 1454.75 Q1278.58 1455.16 1275.94 1456.04 L1275.94 1451.88 Q1278.6 1451.14 1280.92 1450.77 Q1283.25 1450.39 1285.31 1450.39 Q1290.64 1450.39 1293.74 1452.83 Q1296.84 1455.23 1296.84 1459.35 Q1296.84 1462.22 1295.2 1464.21 Q1293.55 1466.18 1290.52 1466.95 Z" fill="#000000" fill-rule="nonzero" fill-opacity="1" /><path clip-path="url(#clip230)" d="M1306.56 1451.02 L1324.92 1451.02 L1324.92 1454.96 L1310.85 1454.96 L1310.85 1463.43 Q1311.86 1463.08 1312.88 1462.92 Q1313.9 1462.73 1314.92 1462.73 Q1320.71 1462.73 1324.09 1465.9 Q1327.47 1469.08 1327.47 1474.49 Q1327.47 1480.07 1323.99 1483.17 Q1320.52 1486.25 1314.2 1486.25 Q1312.03 1486.25 1309.76 1485.88 Q1307.51 1485.51 1305.1 1484.77 L1305.1 1480.07 Q1307.19 1481.2 1309.41 1481.76 Q1311.63 1482.32 1314.11 1482.32 Q1318.11 1482.32 1320.45 1480.21 Q1322.79 1478.1 1322.79 1474.49 Q1322.79 1470.88 1320.45 1468.77 Q1318.11 1466.67 1314.11 1466.67 Q1312.23 1466.67 1310.36 1467.08 Q1308.51 1467.5 1306.56 1468.38 L1306.56 1451.02 Z" fill="#000000" fill-rule="nonzero" fill-opacity="1" /><path clip-path="url(#clip230)" d="M1135.13 1455.09 L1123.32 1473.54 L1135.13 1473.54 L1135.13 1455.09 M1133.9 1451.02 L1139.78 1451.02 L1139.78 1473.54 L1144.71 1473.54 L1144.71 1477.43 L1139.78 1477.43 L1139.78 1485.58 L1135.13 1485.58 L1135.13 1477.43 L1119.52 1477.43 L1119.52 1472.92 L1133.9 1451.02 Z" fill="#000000" fill-rule="nonzero" fill-opacity="1" /><path clip-path="url(#clip230)" d="M1152.49 1451.02 L1170.84 1451.02 L1170.84 1454.96 L1156.77 1454.96 L1156.77 1463.43 Q1157.79 1463.08 1158.81 1462.92 Q1159.83 1462.73 1160.84 1462.73 Q1166.63 1462.73 1170.01 1465.9 Q1173.39 1469.08 1173.39 1474.49 Q1173.39 1480.07 1169.92 1483.17 Q1166.45 1486.25 1160.13 1486.25 Q1157.95 1486.25 1155.68 1485.88 Q1153.44 1485.51 1151.03 1484.77 L1151.03 1480.07 Q1153.11 1481.2 1155.33 1481.76 Q1157.56 1482.32 1160.03 1482.32 Q1164.04 1482.32 1166.38 1480.21 Q1168.71 1478.1 1168.71 1474.49 Q1168.71 1470.88 1166.38 1468.77 Q1164.04 1466.67 1160.03 1466.67 Q1158.16 1466.67 1156.28 1467.08 Q1154.43 1467.5 1152.49 1468.38 L1152.49 1451.02 Z" fill="#000000" fill-rule="nonzero" fill-opacity="1" /><path clip-path="url(#clip230)" d="M966.931 1451.02 L985.287 1451.02 L985.287 1454.96 L971.213 1454.96 L971.213 1463.43 Q972.232 1463.08 973.25 1462.92 Q974.269 1462.73 975.287 1462.73 Q981.074 1462.73 984.454 1465.9 Q987.833 1469.08 987.833 1474.49 Q987.833 1480.07 984.361 1483.17 Q980.889 1486.25 974.57 1486.25 Q972.394 1486.25 970.125 1485.88 Q967.88 1485.51 965.472 1484.77 L965.472 1480.07 Q967.556 1481.2 969.778 1481.76 Q972 1482.32 974.477 1482.32 Q978.482 1482.32 980.82 1480.21 Q983.157 1478.1 983.157 1474.49 Q983.157 1470.88 980.82 1468.77 Q978.482 1466.67 974.477 1466.67 Q972.602 1466.67 970.727 1467.08 Q968.875 1467.5 966.931 1468.38 L966.931 1451.02 Z" fill="#000000" fill-rule="nonzero" fill-opacity="1" /><path clip-path="url(#clip230)" d="M997.093 1451.02 L1015.45 1451.02 L1015.45 1454.96 L1001.37 1454.96 L1001.37 1463.43 Q1002.39 1463.08 1003.41 1462.92 Q1004.43 1462.73 1005.45 1462.73 Q1011.24 1462.73 1014.62 1465.9 Q1018 1469.08 1018 1474.49 Q1018 1480.07 1014.52 1483.17 Q1011.05 1486.25 1004.73 1486.25 Q1002.56 1486.25 1000.29 1485.88 Q998.042 1485.51 995.634 1484.77 L995.634 1480.07 Q997.718 1481.2 999.94 1481.76 Q1002.16 1482.32 1004.64 1482.32 Q1008.64 1482.32 1010.98 1480.21 Q1013.32 1478.1 1013.32 1474.49 Q1013.32 1470.88 1010.98 1468.77 Q1008.64 1466.67 1004.64 1466.67 Q1002.76 1466.67 1000.89 1467.08 Q999.037 1467.5 997.093 1468.38 L997.093 1451.02 Z" fill="#000000" fill-rule="nonzero" fill-opacity="1" /><path clip-path="url(#clip230)" d="M822.913 1466.44 Q819.765 1466.44 817.913 1468.59 Q816.084 1470.74 816.084 1474.49 Q816.084 1478.22 817.913 1480.39 Q819.765 1482.55 822.913 1482.55 Q826.061 1482.55 827.89 1480.39 Q829.742 1478.22 829.742 1474.49 Q829.742 1470.74 827.89 1468.59 Q826.061 1466.44 822.913 1466.44 M832.195 1451.78 L832.195 1456.04 Q830.436 1455.21 828.63 1454.77 Q826.848 1454.33 825.089 1454.33 Q820.459 1454.33 818.005 1457.45 Q815.575 1460.58 815.228 1466.9 Q816.593 1464.89 818.654 1463.82 Q820.714 1462.73 823.191 1462.73 Q828.399 1462.73 831.408 1465.9 Q834.441 1469.05 834.441 1474.49 Q834.441 1479.82 831.292 1483.03 Q828.144 1486.25 822.913 1486.25 Q816.918 1486.25 813.746 1481.67 Q810.575 1477.06 810.575 1468.33 Q810.575 1460.14 814.464 1455.28 Q818.353 1450.39 824.904 1450.39 Q826.663 1450.39 828.445 1450.74 Q830.251 1451.09 832.195 1451.78 Z" fill="#000000" fill-rule="nonzero" fill-opacity="1" /><path clip-path="url(#clip230)" d="M842.542 1451.02 L860.899 1451.02 L860.899 1454.96 L846.825 1454.96 L846.825 1463.43 Q847.843 1463.08 848.862 1462.92 Q849.88 1462.73 850.899 1462.73 Q856.686 1462.73 860.065 1465.9 Q863.445 1469.08 863.445 1474.49 Q863.445 1480.07 859.973 1483.17 Q856.501 1486.25 850.181 1486.25 Q848.005 1486.25 845.737 1485.88 Q843.491 1485.51 841.084 1484.77 L841.084 1480.07 Q843.167 1481.2 845.39 1481.76 Q847.612 1482.32 850.089 1482.32 Q854.093 1482.32 856.431 1480.21 Q858.769 1478.1 858.769 1474.49 Q858.769 1470.88 856.431 1468.77 Q854.093 1466.67 850.089 1466.67 Q848.214 1466.67 846.339 1467.08 Q844.487 1467.5 842.542 1468.38 L842.542 1451.02 Z" fill="#000000" fill-rule="nonzero" fill-opacity="1" /><path clip-path="url(#clip230)" d="M656.141 1451.02 L678.363 1451.02 L678.363 1453.01 L665.816 1485.58 L660.932 1485.58 L672.738 1454.96 L656.141 1454.96 L656.141 1451.02 Z" fill="#000000" fill-rule="nonzero" fill-opacity="1" /><path clip-path="url(#clip230)" d="M687.529 1451.02 L705.886 1451.02 L705.886 1454.96 L691.812 1454.96 L691.812 1463.43 Q692.83 1463.08 693.849 1462.92 Q694.867 1462.73 695.886 1462.73 Q701.673 1462.73 705.052 1465.9 Q708.432 1469.08 708.432 1474.49 Q708.432 1480.07 704.96 1483.17 Q701.487 1486.25 695.168 1486.25 Q692.992 1486.25 690.724 1485.88 Q688.478 1485.51 686.071 1484.77 L686.071 1480.07 Q688.154 1481.2 690.376 1481.76 Q692.599 1482.32 695.075 1482.32 Q699.08 1482.32 701.418 1480.21 Q703.756 1478.1 703.756 1474.49 Q703.756 1470.88 701.418 1468.77 Q699.08 1466.67 695.075 1466.67 Q693.2 1466.67 691.325 1467.08 Q689.474 1467.5 687.529 1468.38 L687.529 1451.02 Z" fill="#000000" fill-rule="nonzero" fill-opacity="1" /><path clip-path="url(#clip230)" d="M512.933 1469.17 Q509.6 1469.17 507.678 1470.95 Q505.78 1472.73 505.78 1475.86 Q505.78 1478.98 507.678 1480.77 Q509.6 1482.55 512.933 1482.55 Q516.266 1482.55 518.187 1480.77 Q520.109 1478.96 520.109 1475.86 Q520.109 1472.73 518.187 1470.95 Q516.289 1469.17 512.933 1469.17 M508.257 1467.18 Q505.248 1466.44 503.558 1464.38 Q501.891 1462.32 501.891 1459.35 Q501.891 1455.21 504.831 1452.8 Q507.794 1450.39 512.933 1450.39 Q518.095 1450.39 521.035 1452.8 Q523.974 1455.21 523.974 1459.35 Q523.974 1462.32 522.285 1464.38 Q520.618 1466.44 517.632 1467.18 Q521.012 1467.96 522.886 1470.26 Q524.785 1472.55 524.785 1475.86 Q524.785 1480.88 521.706 1483.57 Q518.65 1486.25 512.933 1486.25 Q507.215 1486.25 504.137 1483.57 Q501.081 1480.88 501.081 1475.86 Q501.081 1472.55 502.979 1470.26 Q504.877 1467.96 508.257 1467.18 M506.544 1459.79 Q506.544 1462.48 508.211 1463.98 Q509.9 1465.49 512.933 1465.49 Q515.942 1465.49 517.632 1463.98 Q519.345 1462.48 519.345 1459.79 Q519.345 1457.11 517.632 1455.6 Q515.942 1454.1 512.933 1454.1 Q509.9 1454.1 508.211 1455.6 Q506.544 1457.11 506.544 1459.79 Z" fill="#000000" fill-rule="nonzero" fill-opacity="1" /><path clip-path="url(#clip230)" d="M533.141 1451.02 L551.497 1451.02 L551.497 1454.96 L537.423 1454.96 L537.423 1463.43 Q538.442 1463.08 539.46 1462.92 Q540.479 1462.73 541.498 1462.73 Q547.285 1462.73 550.664 1465.9 Q554.044 1469.08 554.044 1474.49 Q554.044 1480.07 550.572 1483.17 Q547.099 1486.25 540.78 1486.25 Q538.604 1486.25 536.335 1485.88 Q534.09 1485.51 531.683 1484.77 L531.683 1480.07 Q533.766 1481.2 535.988 1481.76 Q538.21 1482.32 540.687 1482.32 Q544.692 1482.32 547.03 1480.21 Q549.368 1478.1 549.368 1474.49 Q549.368 1470.88 547.03 1468.77 Q544.692 1466.67 540.687 1466.67 Q538.812 1466.67 536.937 1467.08 Q535.086 1467.5 533.141 1468.38 L533.141 1451.02 Z" fill="#000000" fill-rule="nonzero" fill-opacity="1" /><path clip-path="url(#clip230)" d="M348.464 1484.86 L348.464 1480.6 Q350.223 1481.44 352.029 1481.88 Q353.834 1482.32 355.57 1482.32 Q360.2 1482.32 362.63 1479.21 Q365.084 1476.09 365.431 1469.75 Q364.089 1471.74 362.028 1472.8 Q359.968 1473.87 357.468 1473.87 Q352.283 1473.87 349.251 1470.74 Q346.242 1467.59 346.242 1462.15 Q346.242 1456.83 349.39 1453.61 Q352.538 1450.39 357.769 1450.39 Q363.765 1450.39 366.913 1455 Q370.084 1459.58 370.084 1468.33 Q370.084 1476.51 366.195 1481.39 Q362.329 1486.25 355.778 1486.25 Q354.019 1486.25 352.214 1485.9 Q350.408 1485.56 348.464 1484.86 M357.769 1470.21 Q360.917 1470.21 362.746 1468.06 Q364.598 1465.9 364.598 1462.15 Q364.598 1458.43 362.746 1456.27 Q360.917 1454.1 357.769 1454.1 Q354.621 1454.1 352.769 1456.27 Q350.941 1458.43 350.941 1462.15 Q350.941 1465.9 352.769 1468.06 Q354.621 1470.21 357.769 1470.21 Z" fill="#000000" fill-rule="nonzero" fill-opacity="1" /><path clip-path="url(#clip230)" d="M378.533 1451.02 L396.889 1451.02 L396.889 1454.96 L382.815 1454.96 L382.815 1463.43 Q383.834 1463.08 384.852 1462.92 Q385.871 1462.73 386.889 1462.73 Q392.676 1462.73 396.056 1465.9 Q399.436 1469.08 399.436 1474.49 Q399.436 1480.07 395.963 1483.17 Q392.491 1486.25 386.172 1486.25 Q383.996 1486.25 381.727 1485.88 Q379.482 1485.51 377.075 1484.77 L377.075 1480.07 Q379.158 1481.2 381.38 1481.76 Q383.602 1482.32 386.079 1482.32 Q390.084 1482.32 392.422 1480.21 Q394.76 1478.1 394.76 1474.49 Q394.76 1470.88 392.422 1468.77 Q390.084 1466.67 386.079 1466.67 Q384.204 1466.67 382.329 1467.08 Q380.477 1467.5 378.533 1468.38 L378.533 1451.02 Z" fill="#000000" fill-rule="nonzero" fill-opacity="1" /><path clip-path="url(#clip230)" d="M867.382 1547.13 Q864.613 1547.13 863.022 1549.49 Q861.462 1551.84 861.462 1556.04 Q861.462 1560.18 863.022 1562.57 Q864.613 1564.92 867.382 1564.92 Q870.088 1564.92 871.647 1562.57 Q873.239 1560.18 873.239 1556.04 Q873.239 1551.87 871.647 1549.52 Q870.088 1547.13 867.382 1547.13 M867.382 1543.09 Q872.411 1543.09 875.371 1546.59 Q878.331 1550.09 878.331 1556.04 Q878.331 1562 875.34 1565.5 Q872.379 1568.97 867.382 1568.97 Q862.29 1568.97 859.33 1565.5 Q856.37 1562 856.37 1556.04 Q856.37 1550.06 859.33 1546.59 Q862.322 1543.09 867.382 1543.09 M834.535 1523.71 Q831.798 1523.71 830.207 1526.09 Q828.647 1528.45 828.647 1532.59 Q828.647 1536.79 830.207 1539.14 Q831.766 1541.5 834.535 1541.5 Q837.304 1541.5 838.864 1539.14 Q840.455 1536.79 840.455 1532.59 Q840.455 1528.48 838.864 1526.09 Q837.273 1523.71 834.535 1523.71 M863.276 1519.66 L868.369 1519.66 L838.641 1568.97 L833.549 1568.97 L863.276 1519.66 M834.535 1519.66 Q839.564 1519.66 842.556 1523.17 Q845.548 1526.63 845.548 1532.59 Q845.548 1538.6 842.556 1542.07 Q839.596 1545.54 834.535 1545.54 Q829.475 1545.54 826.515 1542.07 Q823.586 1538.57 823.586 1532.59 Q823.586 1526.67 826.546 1523.17 Q829.506 1519.66 834.535 1519.66 Z" fill="#000000" fill-rule="nonzero" fill-opacity="1" /><path clip-path="url(#clip230)" d="M932.249 1537.81 L932.249 1518.52 L938.105 1518.52 L938.105 1568.04 L932.249 1568.04 L932.249 1562.7 Q930.403 1565.88 927.57 1567.44 Q924.769 1568.97 920.822 1568.97 Q914.361 1568.97 910.287 1563.81 Q906.245 1558.65 906.245 1550.25 Q906.245 1541.85 910.287 1536.69 Q914.361 1531.54 920.822 1531.54 Q924.769 1531.54 927.57 1533.1 Q930.403 1534.62 932.249 1537.81 M912.292 1550.25 Q912.292 1556.71 914.934 1560.4 Q917.608 1564.07 922.255 1564.07 Q926.902 1564.07 929.575 1560.4 Q932.249 1556.71 932.249 1550.25 Q932.249 1543.79 929.575 1540.13 Q926.902 1536.44 922.255 1536.44 Q917.608 1536.44 914.934 1540.13 Q912.292 1543.79 912.292 1550.25 Z" fill="#000000" fill-rule="nonzero" fill-opacity="1" /><path clip-path="url(#clip230)" d="M966.369 1550.12 Q959.271 1550.12 956.534 1551.75 Q953.797 1553.37 953.797 1557.29 Q953.797 1560.4 955.834 1562.25 Q957.903 1564.07 961.436 1564.07 Q966.305 1564.07 969.234 1560.63 Q972.194 1557.16 972.194 1551.43 L972.194 1550.12 L966.369 1550.12 M978.05 1547.71 L978.05 1568.04 L972.194 1568.04 L972.194 1562.63 Q970.189 1565.88 967.197 1567.44 Q964.205 1568.97 959.876 1568.97 Q954.402 1568.97 951.155 1565.91 Q947.94 1562.82 947.94 1557.67 Q947.94 1551.65 951.951 1548.6 Q955.993 1545.54 963.982 1545.54 L972.194 1545.54 L972.194 1544.97 Q972.194 1540.93 969.52 1538.73 Q966.878 1536.5 962.072 1536.5 Q959.017 1536.5 956.12 1537.23 Q953.224 1537.97 950.55 1539.43 L950.55 1534.02 Q953.765 1532.78 956.789 1532.17 Q959.812 1531.54 962.677 1531.54 Q970.411 1531.54 974.231 1535.55 Q978.05 1539.56 978.05 1547.71 Z" fill="#000000" fill-rule="nonzero" fill-opacity="1" /><path clip-path="url(#clip230)" d="M995.906 1522.27 L995.906 1532.4 L1007.97 1532.4 L1007.97 1536.95 L995.906 1536.95 L995.906 1556.3 Q995.906 1560.66 997.084 1561.9 Q998.293 1563.14 1001.95 1563.14 L1007.97 1563.14 L1007.97 1568.04 L1001.95 1568.04 Q995.174 1568.04 992.596 1565.53 Q990.018 1562.98 990.018 1556.3 L990.018 1536.95 L985.721 1536.95 L985.721 1532.4 L990.018 1532.4 L990.018 1522.27 L995.906 1522.27 Z" fill="#000000" fill-rule="nonzero" fill-opacity="1" /><path clip-path="url(#clip230)" d="M1031.87 1550.12 Q1024.77 1550.12 1022.04 1551.75 Q1019.3 1553.37 1019.3 1557.29 Q1019.3 1560.4 1021.34 1562.25 Q1023.41 1564.07 1026.94 1564.07 Q1031.81 1564.07 1034.74 1560.63 Q1037.7 1557.16 1037.7 1551.43 L1037.7 1550.12 L1031.87 1550.12 M1043.55 1547.71 L1043.55 1568.04 L1037.7 1568.04 L1037.7 1562.63 Q1035.69 1565.88 1032.7 1567.44 Q1029.71 1568.97 1025.38 1568.97 Q1019.9 1568.97 1016.66 1565.91 Q1013.44 1562.82 1013.44 1557.67 Q1013.44 1551.65 1017.45 1548.6 Q1021.5 1545.54 1029.49 1545.54 L1037.7 1545.54 L1037.7 1544.97 Q1037.7 1540.93 1035.02 1538.73 Q1032.38 1536.5 1027.58 1536.5 Q1024.52 1536.5 1021.62 1537.23 Q1018.73 1537.97 1016.05 1539.43 L1016.05 1534.02 Q1019.27 1532.78 1022.29 1532.17 Q1025.32 1531.54 1028.18 1531.54 Q1035.91 1531.54 1039.73 1535.55 Q1043.55 1539.56 1043.55 1547.71 Z" fill="#000000" fill-rule="nonzero" fill-opacity="1" /><path clip-path="url(#clip230)" d="M1104.09 1539.24 Q1106.29 1535.29 1109.34 1533.41 Q1112.4 1531.54 1116.54 1531.54 Q1122.11 1531.54 1125.13 1535.45 Q1128.15 1539.33 1128.15 1546.53 L1128.15 1568.04 L1122.27 1568.04 L1122.27 1546.72 Q1122.27 1541.59 1120.45 1539.11 Q1118.64 1536.63 1114.91 1536.63 Q1110.36 1536.63 1107.72 1539.65 Q1105.08 1542.68 1105.08 1547.9 L1105.08 1568.04 L1099.19 1568.04 L1099.19 1546.72 Q1099.19 1541.56 1097.38 1539.11 Q1095.56 1536.63 1091.77 1536.63 Q1087.29 1536.63 1084.64 1539.68 Q1082 1542.71 1082 1547.9 L1082 1568.04 L1076.11 1568.04 L1076.11 1532.4 L1082 1532.4 L1082 1537.93 Q1084.01 1534.66 1086.81 1533.1 Q1089.61 1531.54 1093.46 1531.54 Q1097.34 1531.54 1100.05 1533.51 Q1102.79 1535.48 1104.09 1539.24 Z" fill="#000000" fill-rule="nonzero" fill-opacity="1" /><path clip-path="url(#clip230)" d="M1139.83 1532.4 L1145.69 1532.4 L1145.69 1568.04 L1139.83 1568.04 L1139.83 1532.4 M1139.83 1518.52 L1145.69 1518.52 L1145.69 1525.93 L1139.83 1525.93 L1139.83 1518.52 Z" fill="#000000" fill-rule="nonzero" fill-opacity="1" /><path clip-path="url(#clip230)" d="M1180.67 1533.45 L1180.67 1538.98 Q1178.19 1537.71 1175.51 1537.07 Q1172.84 1536.44 1169.98 1536.44 Q1165.62 1536.44 1163.42 1537.77 Q1161.26 1539.11 1161.26 1541.79 Q1161.26 1543.82 1162.81 1545 Q1164.37 1546.15 1169.09 1547.2 L1171.09 1547.64 Q1177.33 1548.98 1179.94 1551.43 Q1182.58 1553.85 1182.58 1558.21 Q1182.58 1563.17 1178.63 1566.07 Q1174.72 1568.97 1167.84 1568.97 Q1164.98 1568.97 1161.86 1568.39 Q1158.77 1567.85 1155.34 1566.74 L1155.34 1560.69 Q1158.58 1562.38 1161.73 1563.24 Q1164.88 1564.07 1167.97 1564.07 Q1172.11 1564.07 1174.34 1562.66 Q1176.56 1561.23 1176.56 1558.65 Q1176.56 1556.27 1174.94 1554.99 Q1173.35 1553.72 1167.91 1552.54 L1165.87 1552.07 Q1160.43 1550.92 1158.01 1548.56 Q1155.59 1546.18 1155.59 1542.04 Q1155.59 1537.01 1159.15 1534.27 Q1162.72 1531.54 1169.28 1531.54 Q1172.52 1531.54 1175.39 1532.01 Q1178.25 1532.49 1180.67 1533.45 Z" fill="#000000" fill-rule="nonzero" fill-opacity="1" /><path clip-path="url(#clip230)" d="M1214.63 1533.45 L1214.63 1538.98 Q1212.15 1537.71 1209.48 1537.07 Q1206.8 1536.44 1203.94 1536.44 Q1199.58 1536.44 1197.38 1537.77 Q1195.22 1539.11 1195.22 1541.79 Q1195.22 1543.82 1196.78 1545 Q1198.34 1546.15 1203.05 1547.2 L1205.05 1547.64 Q1211.29 1548.98 1213.9 1551.43 Q1216.54 1553.85 1216.54 1558.21 Q1216.54 1563.17 1212.59 1566.07 Q1208.68 1568.97 1201.8 1568.97 Q1198.94 1568.97 1195.82 1568.39 Q1192.73 1567.85 1189.3 1566.74 L1189.3 1560.69 Q1192.54 1562.38 1195.69 1563.24 Q1198.84 1564.07 1201.93 1564.07 Q1206.07 1564.07 1208.3 1562.66 Q1210.53 1561.23 1210.53 1558.65 Q1210.53 1556.27 1208.9 1554.99 Q1207.31 1553.72 1201.87 1552.54 L1199.83 1552.07 Q1194.39 1550.92 1191.97 1548.56 Q1189.55 1546.18 1189.55 1542.04 Q1189.55 1537.01 1193.12 1534.27 Q1196.68 1531.54 1203.24 1531.54 Q1206.48 1531.54 1209.35 1532.01 Q1212.21 1532.49 1214.63 1533.45 Z" fill="#000000" fill-rule="nonzero" fill-opacity="1" /><path clip-path="url(#clip230)" d="M1225.87 1532.4 L1231.72 1532.4 L1231.72 1568.04 L1225.87 1568.04 L1225.87 1532.4 M1225.87 1518.52 L1231.72 1518.52 L1231.72 1525.93 L1225.87 1525.93 L1225.87 1518.52 Z" fill="#000000" fill-rule="nonzero" fill-opacity="1" /><path clip-path="url(#clip230)" d="M1273.61 1546.53 L1273.61 1568.04 L1267.75 1568.04 L1267.75 1546.72 Q1267.75 1541.66 1265.78 1539.14 Q1263.81 1536.63 1259.86 1536.63 Q1255.12 1536.63 1252.38 1539.65 Q1249.64 1542.68 1249.64 1547.9 L1249.64 1568.04 L1243.75 1568.04 L1243.75 1532.4 L1249.64 1532.4 L1249.64 1537.93 Q1251.74 1534.72 1254.58 1533.13 Q1257.44 1531.54 1261.16 1531.54 Q1267.31 1531.54 1270.46 1535.36 Q1273.61 1539.14 1273.61 1546.53 Z" fill="#000000" fill-rule="nonzero" fill-opacity="1" /><path clip-path="url(#clip230)" d="M1308.75 1549.81 Q1308.75 1543.44 1306.11 1539.94 Q1303.5 1536.44 1298.75 1536.44 Q1294.04 1536.44 1291.4 1539.94 Q1288.79 1543.44 1288.79 1549.81 Q1288.79 1556.14 1291.4 1559.64 Q1294.04 1563.14 1298.75 1563.14 Q1303.5 1563.14 1306.11 1559.64 Q1308.75 1556.14 1308.75 1549.81 M1314.61 1563.62 Q1314.61 1572.72 1310.56 1577.15 Q1306.52 1581.6 1298.18 1581.6 Q1295.09 1581.6 1292.36 1581.13 Q1289.62 1580.68 1287.04 1579.72 L1287.04 1574.03 Q1289.62 1575.43 1292.13 1576.1 Q1294.65 1576.76 1297.26 1576.76 Q1303.02 1576.76 1305.88 1573.74 Q1308.75 1570.75 1308.75 1564.67 L1308.75 1561.77 Q1306.93 1564.92 1304.1 1566.48 Q1301.27 1568.04 1297.32 1568.04 Q1290.77 1568.04 1286.76 1563.05 Q1282.74 1558.05 1282.74 1549.81 Q1282.74 1541.53 1286.76 1536.53 Q1290.77 1531.54 1297.32 1531.54 Q1301.27 1531.54 1304.1 1533.1 Q1306.93 1534.66 1308.75 1537.81 L1308.75 1532.4 L1314.61 1532.4 L1314.61 1563.62 Z" fill="#000000" fill-rule="nonzero" fill-opacity="1" /><polyline clip-path="url(#clip230)" style="stroke:#000000; stroke-linecap:round; stroke-linejoin:round; stroke-width:4; stroke-opacity:1; fill:none" points="219.866,1423.18 219.866,123.472 "/>
<polyline clip-path="url(#clip230)" style="stroke:#000000; stroke-linecap:round; stroke-linejoin:round; stroke-width:4; stroke-opacity:1; fill:none" points="219.866,1423.18 234.915,1423.18 "/>
<polyline clip-path="url(#clip230)" style="stroke:#000000; stroke-linecap:round; stroke-linejoin:round; stroke-width:4; stroke-opacity:1; fill:none" points="219.866,1205.24 234.915,1205.24 "/>
<polyline clip-path="url(#clip230)" style="stroke:#000000; stroke-linecap:round; stroke-linejoin:round; stroke-width:4; stroke-opacity:1; fill:none" points="219.866,987.293 234.915,987.293 "/>
<polyline clip-path="url(#clip230)" style="stroke:#000000; stroke-linecap:round; stroke-linejoin:round; stroke-width:4; stroke-opacity:1; fill:none" points="219.866,769.35 234.915,769.35 "/>
<polyline clip-path="url(#clip230)" style="stroke:#000000; stroke-linecap:round; stroke-linejoin:round; stroke-width:4; stroke-opacity:1; fill:none" points="219.866,551.407 234.915,551.407 "/>
<polyline clip-path="url(#clip230)" style="stroke:#000000; stroke-linecap:round; stroke-linejoin:round; stroke-width:4; stroke-opacity:1; fill:none" points="219.866,333.464 234.915,333.464 "/>
<path clip-path="url(#clip230)" d="M126.691 1408.98 Q123.08 1408.98 121.251 1412.54 Q119.445 1416.08 119.445 1423.21 Q119.445 1430.32 121.251 1433.89 Q123.08 1437.43 126.691 1437.43 Q130.325 1437.43 132.13 1433.89 Q133.959 1430.32 133.959 1423.21 Q133.959 1416.08 132.13 1412.54 Q130.325 1408.98 126.691 1408.98 M126.691 1405.27 Q132.501 1405.27 135.556 1409.88 Q138.635 1414.46 138.635 1423.21 Q138.635 1431.94 135.556 1436.55 Q132.501 1441.13 126.691 1441.13 Q120.88 1441.13 117.802 1436.55 Q114.746 1431.94 114.746 1423.21 Q114.746 1414.46 117.802 1409.88 Q120.88 1405.27 126.691 1405.27 Z" fill="#000000" fill-rule="nonzero" fill-opacity="1" /><path clip-path="url(#clip230)" d="M146.853 1434.58 L151.737 1434.58 L151.737 1440.46 L146.853 1440.46 L146.853 1434.58 Z" fill="#000000" fill-rule="nonzero" fill-opacity="1" /><path clip-path="url(#clip230)" d="M171.922 1408.98 Q168.311 1408.98 166.482 1412.54 Q164.677 1416.08 164.677 1423.21 Q164.677 1430.32 166.482 1433.89 Q168.311 1437.43 171.922 1437.43 Q175.556 1437.43 177.362 1433.89 Q179.19 1430.32 179.19 1423.21 Q179.19 1416.08 177.362 1412.54 Q175.556 1408.98 171.922 1408.98 M171.922 1405.27 Q177.732 1405.27 180.788 1409.88 Q183.866 1414.46 183.866 1423.21 Q183.866 1431.94 180.788 1436.55 Q177.732 1441.13 171.922 1441.13 Q166.112 1441.13 163.033 1436.55 Q159.978 1431.94 159.978 1423.21 Q159.978 1414.46 163.033 1409.88 Q166.112 1405.27 171.922 1405.27 Z" fill="#000000" fill-rule="nonzero" fill-opacity="1" /><path clip-path="url(#clip230)" d="M127.917 1191.04 Q124.306 1191.04 122.478 1194.6 Q120.672 1198.14 120.672 1205.27 Q120.672 1212.38 122.478 1215.94 Q124.306 1219.48 127.917 1219.48 Q131.552 1219.48 133.357 1215.94 Q135.186 1212.38 135.186 1205.27 Q135.186 1198.14 133.357 1194.6 Q131.552 1191.04 127.917 1191.04 M127.917 1187.33 Q133.728 1187.33 136.783 1191.94 Q139.862 1196.52 139.862 1205.27 Q139.862 1214 136.783 1218.6 Q133.728 1223.19 127.917 1223.19 Q122.107 1223.19 119.029 1218.6 Q115.973 1214 115.973 1205.27 Q115.973 1196.52 119.029 1191.94 Q122.107 1187.33 127.917 1187.33 Z" fill="#000000" fill-rule="nonzero" fill-opacity="1" /><path clip-path="url(#clip230)" d="M148.079 1216.64 L152.964 1216.64 L152.964 1222.52 L148.079 1222.52 L148.079 1216.64 Z" fill="#000000" fill-rule="nonzero" fill-opacity="1" /><path clip-path="url(#clip230)" d="M163.959 1218.58 L171.598 1218.58 L171.598 1192.22 L163.288 1193.88 L163.288 1189.62 L171.552 1187.96 L176.227 1187.96 L176.227 1218.58 L183.866 1218.58 L183.866 1222.52 L163.959 1222.52 L163.959 1218.58 Z" fill="#000000" fill-rule="nonzero" fill-opacity="1" /><path clip-path="url(#clip230)" d="M128.288 973.092 Q124.677 973.092 122.848 976.657 Q121.043 980.199 121.043 987.328 Q121.043 994.435 122.848 997.999 Q124.677 1001.54 128.288 1001.54 Q131.922 1001.54 133.728 997.999 Q135.556 994.435 135.556 987.328 Q135.556 980.199 133.728 976.657 Q131.922 973.092 128.288 973.092 M128.288 969.388 Q134.098 969.388 137.154 973.995 Q140.232 978.578 140.232 987.328 Q140.232 996.055 137.154 1000.66 Q134.098 1005.24 128.288 1005.24 Q122.478 1005.24 119.399 1000.66 Q116.343 996.055 116.343 987.328 Q116.343 978.578 119.399 973.995 Q122.478 969.388 128.288 969.388 Z" fill="#000000" fill-rule="nonzero" fill-opacity="1" /><path clip-path="url(#clip230)" d="M148.45 998.694 L153.334 998.694 L153.334 1004.57 L148.45 1004.57 L148.45 998.694 Z" fill="#000000" fill-rule="nonzero" fill-opacity="1" /><path clip-path="url(#clip230)" d="M167.547 1000.64 L183.866 1000.64 L183.866 1004.57 L161.922 1004.57 L161.922 1000.64 Q164.584 997.884 169.167 993.254 Q173.774 988.601 174.954 987.259 Q177.2 984.736 178.079 982.999 Q178.982 981.24 178.982 979.55 Q178.982 976.796 177.038 975.06 Q175.116 973.324 172.014 973.324 Q169.815 973.324 167.362 974.088 Q164.931 974.851 162.153 976.402 L162.153 971.68 Q164.977 970.546 167.431 969.967 Q169.885 969.388 171.922 969.388 Q177.292 969.388 180.487 972.074 Q183.681 974.759 183.681 979.25 Q183.681 981.379 182.871 983.3 Q182.084 985.199 179.977 987.791 Q179.399 988.462 176.297 991.68 Q173.195 994.874 167.547 1000.64 Z" fill="#000000" fill-rule="nonzero" fill-opacity="1" /><path clip-path="url(#clip230)" d="M127.339 755.149 Q123.728 755.149 121.899 758.714 Q120.093 762.255 120.093 769.385 Q120.093 776.491 121.899 780.056 Q123.728 783.598 127.339 783.598 Q130.973 783.598 132.779 780.056 Q134.607 776.491 134.607 769.385 Q134.607 762.255 132.779 758.714 Q130.973 755.149 127.339 755.149 M127.339 751.445 Q133.149 751.445 136.204 756.052 Q139.283 760.635 139.283 769.385 Q139.283 778.112 136.204 782.718 Q133.149 787.302 127.339 787.302 Q121.529 787.302 118.45 782.718 Q115.394 778.112 115.394 769.385 Q115.394 760.635 118.45 756.052 Q121.529 751.445 127.339 751.445 Z" fill="#000000" fill-rule="nonzero" fill-opacity="1" /><path clip-path="url(#clip230)" d="M147.501 780.751 L152.385 780.751 L152.385 786.63 L147.501 786.63 L147.501 780.751 Z" fill="#000000" fill-rule="nonzero" fill-opacity="1" /><path clip-path="url(#clip230)" d="M176.737 767.996 Q180.093 768.714 181.968 770.982 Q183.866 773.251 183.866 776.584 Q183.866 781.7 180.348 784.501 Q176.829 787.302 170.348 787.302 Q168.172 787.302 165.857 786.862 Q163.565 786.445 161.112 785.589 L161.112 781.075 Q163.056 782.209 165.371 782.788 Q167.686 783.366 170.209 783.366 Q174.607 783.366 176.899 781.63 Q179.214 779.894 179.214 776.584 Q179.214 773.528 177.061 771.816 Q174.931 770.079 171.112 770.079 L167.084 770.079 L167.084 766.237 L171.297 766.237 Q174.746 766.237 176.575 764.871 Q178.403 763.482 178.403 760.89 Q178.403 758.228 176.505 756.816 Q174.63 755.38 171.112 755.38 Q169.19 755.38 166.991 755.797 Q164.792 756.214 162.153 757.093 L162.153 752.927 Q164.815 752.186 167.13 751.816 Q169.468 751.445 171.528 751.445 Q176.852 751.445 179.954 753.876 Q183.056 756.283 183.056 760.404 Q183.056 763.274 181.413 765.265 Q179.769 767.232 176.737 767.996 Z" fill="#000000" fill-rule="nonzero" fill-opacity="1" /><path clip-path="url(#clip230)" d="M126.205 537.206 Q122.593 537.206 120.765 540.771 Q118.959 544.312 118.959 551.442 Q118.959 558.548 120.765 562.113 Q122.593 565.655 126.205 565.655 Q129.839 565.655 131.644 562.113 Q133.473 558.548 133.473 551.442 Q133.473 544.312 131.644 540.771 Q129.839 537.206 126.205 537.206 M126.205 533.502 Q132.015 533.502 135.07 538.109 Q138.149 542.692 138.149 551.442 Q138.149 560.169 135.07 564.775 Q132.015 569.358 126.205 569.358 Q120.394 569.358 117.316 564.775 Q114.26 560.169 114.26 551.442 Q114.26 542.692 117.316 538.109 Q120.394 533.502 126.205 533.502 Z" fill="#000000" fill-rule="nonzero" fill-opacity="1" /><path clip-path="url(#clip230)" d="M146.366 562.807 L151.251 562.807 L151.251 568.687 L146.366 568.687 L146.366 562.807 Z" fill="#000000" fill-rule="nonzero" fill-opacity="1" /><path clip-path="url(#clip230)" d="M174.283 538.201 L162.477 556.65 L174.283 556.65 L174.283 538.201 M173.056 534.127 L178.936 534.127 L178.936 556.65 L183.866 556.65 L183.866 560.539 L178.936 560.539 L178.936 568.687 L174.283 568.687 L174.283 560.539 L158.681 560.539 L158.681 556.025 L173.056 534.127 Z" fill="#000000" fill-rule="nonzero" fill-opacity="1" /><path clip-path="url(#clip230)" d="M127.686 319.263 Q124.075 319.263 122.246 322.827 Q120.441 326.369 120.441 333.499 Q120.441 340.605 122.246 344.17 Q124.075 347.711 127.686 347.711 Q131.32 347.711 133.126 344.17 Q134.954 340.605 134.954 333.499 Q134.954 326.369 133.126 322.827 Q131.32 319.263 127.686 319.263 M127.686 315.559 Q133.496 315.559 136.552 320.165 Q139.63 324.749 139.63 333.499 Q139.63 342.225 136.552 346.832 Q133.496 351.415 127.686 351.415 Q121.876 351.415 118.797 346.832 Q115.742 342.225 115.742 333.499 Q115.742 324.749 118.797 320.165 Q121.876 315.559 127.686 315.559 Z" fill="#000000" fill-rule="nonzero" fill-opacity="1" /><path clip-path="url(#clip230)" d="M147.848 344.864 L152.732 344.864 L152.732 350.744 L147.848 350.744 L147.848 344.864 Z" fill="#000000" fill-rule="nonzero" fill-opacity="1" /><path clip-path="url(#clip230)" d="M162.964 316.184 L181.32 316.184 L181.32 320.119 L167.246 320.119 L167.246 328.591 Q168.264 328.244 169.283 328.082 Q170.302 327.897 171.32 327.897 Q177.107 327.897 180.487 331.068 Q183.866 334.239 183.866 339.656 Q183.866 345.235 180.394 348.336 Q176.922 351.415 170.602 351.415 Q168.427 351.415 166.158 351.045 Q163.913 350.674 161.505 349.934 L161.505 345.235 Q163.589 346.369 165.811 346.924 Q168.033 347.48 170.51 347.48 Q174.514 347.48 176.852 345.374 Q179.19 343.267 179.19 339.656 Q179.19 336.045 176.852 333.938 Q174.514 331.832 170.51 331.832 Q168.635 331.832 166.76 332.249 Q164.908 332.665 162.964 333.545 L162.964 316.184 Z" fill="#000000" fill-rule="nonzero" fill-opacity="1" /><path clip-path="url(#clip230)" d="M35.1993 914.104 Q31.2526 911.907 29.3747 908.852 Q27.4968 905.796 27.4968 901.659 Q27.4968 896.089 31.4117 893.065 Q35.2948 890.041 42.4881 890.041 L64.0042 890.041 L64.0042 895.929 L42.679 895.929 Q37.5546 895.929 35.072 897.744 Q32.5894 899.558 32.5894 903.282 Q32.5894 907.833 35.6131 910.475 Q38.6368 913.117 43.8567 913.117 L64.0042 913.117 L64.0042 919.005 L42.679 919.005 Q37.5228 919.005 35.072 920.819 Q32.5894 922.634 32.5894 926.421 Q32.5894 930.909 35.6449 933.551 Q38.6686 936.193 43.8567 936.193 L64.0042 936.193 L64.0042 942.081 L28.3562 942.081 L28.3562 936.193 L33.8944 936.193 Q30.616 934.187 29.0564 931.386 Q27.4968 928.586 27.4968 924.734 Q27.4968 920.851 29.4702 918.146 Q31.4436 915.409 35.1993 914.104 Z" fill="#000000" fill-rule="nonzero" fill-opacity="1" /><path clip-path="url(#clip230)" d="M44.7161 847.868 L47.5806 847.868 L47.5806 874.795 Q53.6281 874.413 56.8109 871.167 Q59.9619 867.889 59.9619 862.064 Q59.9619 858.69 59.1344 855.539 Q58.3069 852.356 56.6518 849.237 L62.1899 849.237 Q63.5267 852.388 64.227 855.698 Q64.9272 859.008 64.9272 862.414 Q64.9272 870.944 59.9619 875.941 Q54.9967 880.906 46.5303 880.906 Q37.7774 880.906 32.6531 876.196 Q27.4968 871.453 27.4968 863.433 Q27.4968 856.239 32.1438 852.07 Q36.7589 847.868 44.7161 847.868 M42.9973 853.725 Q38.1912 853.789 35.3266 856.43 Q32.4621 859.04 32.4621 863.369 Q32.4621 868.27 35.2312 871.231 Q38.0002 874.159 43.0292 874.604 L42.9973 853.725 Z" fill="#000000" fill-rule="nonzero" fill-opacity="1" /><path clip-path="url(#clip230)" d="M46.0847 822.055 Q46.0847 829.153 47.7079 831.89 Q49.3312 834.628 53.2461 834.628 Q56.3653 834.628 58.2114 832.591 Q60.0256 830.522 60.0256 826.989 Q60.0256 822.119 56.5881 819.191 Q53.1188 816.231 47.3897 816.231 L46.0847 816.231 L46.0847 822.055 M43.6657 810.374 L64.0042 810.374 L64.0042 816.231 L58.5933 816.231 Q61.8398 818.236 63.3994 821.228 Q64.9272 824.22 64.9272 828.548 Q64.9272 834.023 61.8716 837.27 Q58.7843 840.484 53.6281 840.484 Q47.6125 840.484 44.5569 836.474 Q41.5014 832.432 41.5014 824.443 L41.5014 816.231 L40.9285 816.231 Q36.8862 816.231 34.6901 818.904 Q32.4621 821.546 32.4621 826.352 Q32.4621 829.408 33.1941 832.304 Q33.9262 835.201 35.3903 837.874 L29.9795 837.874 Q28.7381 834.66 28.1334 831.636 Q27.4968 828.612 27.4968 825.748 Q27.4968 818.013 31.5072 814.194 Q35.5176 810.374 43.6657 810.374 Z" fill="#000000" fill-rule="nonzero" fill-opacity="1" /><path clip-path="url(#clip230)" d="M42.4881 768.679 L64.0042 768.679 L64.0042 774.535 L42.679 774.535 Q37.6183 774.535 35.1038 776.509 Q32.5894 778.482 32.5894 782.429 Q32.5894 787.171 35.6131 789.909 Q38.6368 792.646 43.8567 792.646 L64.0042 792.646 L64.0042 798.534 L28.3562 798.534 L28.3562 792.646 L33.8944 792.646 Q30.6797 790.545 29.0883 787.712 Q27.4968 784.848 27.4968 781.124 Q27.4968 774.981 31.3163 771.83 Q35.1038 768.679 42.4881 768.679 Z" fill="#000000" fill-rule="nonzero" fill-opacity="1" /><path clip-path="url(#clip230)" d="M16.4842 736.023 L16.4842 726.443 L48.8219 714.316 L16.4842 702.126 L16.4842 692.545 L64.0042 692.545 L64.0042 698.815 L22.277 698.815 L54.8694 711.069 L54.8694 717.531 L22.277 729.785 L64.0042 729.785 L64.0042 736.023 L16.4842 736.023 Z" fill="#000000" fill-rule="nonzero" fill-opacity="1" /><path clip-path="url(#clip230)" d="M22.818 663.899 L46.4666 672.621 L46.4666 655.147 L22.818 663.899 M16.4842 667.528 L16.4842 660.239 L64.0042 642.129 L64.0042 648.813 L51.8138 653.141 L51.8138 674.562 L64.0042 678.891 L64.0042 685.67 L16.4842 667.528 Z" fill="#000000" fill-rule="nonzero" fill-opacity="1" /><path clip-path="url(#clip230)" d="M16.4842 635.19 L16.4842 605.144 L21.895 605.144 L21.895 628.761 L35.9632 628.761 L35.9632 606.131 L41.3741 606.131 L41.3741 628.761 L58.5933 628.761 L58.5933 604.571 L64.0042 604.571 L64.0042 635.19 L16.4842 635.19 Z" fill="#000000" fill-rule="nonzero" fill-opacity="1" /><path clip-path="url(#clip230)" d="M478.636 12.096 L486.819 12.096 L486.819 72.576 L478.636 72.576 L478.636 12.096 Z" fill="#000000" fill-rule="nonzero" fill-opacity="1" /><path clip-path="url(#clip230)" d="M511.286 18.8205 L511.286 41.5461 L521.575 41.5461 Q527.287 41.5461 530.406 38.5889 Q533.526 35.6318 533.526 30.163 Q533.526 24.7348 530.406 21.7777 Q527.287 18.8205 521.575 18.8205 L511.286 18.8205 M503.103 12.096 L521.575 12.096 Q531.743 12.096 536.928 16.714 Q542.154 21.2916 542.154 30.163 Q542.154 39.1155 536.928 43.6931 Q531.743 48.2706 521.575 48.2706 L511.286 48.2706 L511.286 72.576 L503.103 72.576 L503.103 12.096 Z" fill="#000000" fill-rule="nonzero" fill-opacity="1" /><path clip-path="url(#clip230)" d="M561.315 18.8205 L561.315 65.8515 L571.199 65.8515 Q583.716 65.8515 589.509 60.1802 Q595.342 54.509 595.342 42.2752 Q595.342 30.1225 589.509 24.4918 Q583.716 18.8205 571.199 18.8205 L561.315 18.8205 M553.132 12.096 L569.943 12.096 Q587.524 12.096 595.748 19.4281 Q603.971 26.7198 603.971 42.2752 Q603.971 57.9117 595.707 65.2439 Q587.443 72.576 569.943 72.576 L553.132 72.576 L553.132 12.096 Z" fill="#000000" fill-rule="nonzero" fill-opacity="1" /><path clip-path="url(#clip230)" d="M668.907 39.9662 Q674.781 41.222 678.062 45.1919 Q681.384 49.1618 681.384 54.9951 Q681.384 63.9476 675.226 68.8492 Q669.069 73.7508 657.726 73.7508 Q653.919 73.7508 649.868 72.9811 Q645.857 72.2519 641.563 70.7531 L641.563 62.8538 Q644.966 64.8388 649.017 65.8515 Q653.068 66.8642 657.483 66.8642 Q665.18 66.8642 669.19 63.826 Q673.241 60.7879 673.241 54.9951 Q673.241 49.6479 669.474 46.6502 Q665.747 43.612 659.063 43.612 L652.015 43.612 L652.015 36.8875 L659.387 36.8875 Q665.423 36.8875 668.623 34.4975 Q671.824 32.067 671.824 27.5299 Q671.824 22.8714 668.502 20.4004 Q665.221 17.8888 659.063 17.8888 Q655.701 17.8888 651.853 18.618 Q648.004 19.3471 643.386 20.8865 L643.386 13.5948 Q648.045 12.2985 652.096 11.6504 Q656.187 11.0023 659.792 11.0023 Q669.109 11.0023 674.538 15.2557 Q679.966 19.4686 679.966 26.6793 Q679.966 31.7024 677.09 35.1862 Q674.214 38.6294 668.907 39.9662 Z" fill="#000000" fill-rule="nonzero" fill-opacity="1" /><path clip-path="url(#clip230)" d="M714.399 17.4837 Q708.079 17.4837 704.879 23.7221 Q701.719 29.92 701.719 42.3968 Q701.719 54.833 704.879 61.0714 Q708.079 67.2693 714.399 67.2693 Q720.758 67.2693 723.918 61.0714 Q727.118 54.833 727.118 42.3968 Q727.118 29.92 723.918 23.7221 Q720.758 17.4837 714.399 17.4837 M714.399 11.0023 Q724.566 11.0023 729.913 19.0636 Q735.301 27.0843 735.301 42.3968 Q735.301 57.6687 729.913 65.73 Q724.566 73.7508 714.399 73.7508 Q704.231 73.7508 698.843 65.73 Q693.496 57.6687 693.496 42.3968 Q693.496 27.0843 698.843 19.0636 Q704.231 11.0023 714.399 11.0023 Z" fill="#000000" fill-rule="nonzero" fill-opacity="1" /><path clip-path="url(#clip230)" d="M744.861 46.5287 L766.696 46.5287 L766.696 53.1722 L744.861 53.1722 L744.861 46.5287 Z" fill="#000000" fill-rule="nonzero" fill-opacity="1" /><path clip-path="url(#clip230)" d="M778.889 12.096 L813.646 12.096 L813.646 18.9825 L787.072 18.9825 L787.072 36.8065 L811.053 36.8065 L811.053 43.6931 L787.072 43.6931 L787.072 72.576 L778.889 72.576 L778.889 12.096 Z" fill="#000000" fill-rule="nonzero" fill-opacity="1" /><path clip-path="url(#clip230)" d="M840.908 32.4315 Q834.913 32.4315 831.429 37.1306 Q827.945 41.7891 827.945 49.9314 Q827.945 58.0738 831.389 62.7728 Q834.872 67.4314 840.908 67.4314 Q846.863 67.4314 850.347 62.7323 Q853.831 58.0333 853.831 49.9314 Q853.831 41.8701 850.347 37.1711 Q846.863 32.4315 840.908 32.4315 M840.908 26.1121 Q850.63 26.1121 856.18 32.4315 Q861.73 38.7509 861.73 49.9314 Q861.73 61.0714 856.18 67.4314 Q850.63 73.7508 840.908 73.7508 Q831.146 73.7508 825.596 67.4314 Q820.087 61.0714 820.087 49.9314 Q820.087 38.7509 825.596 32.4315 Q831.146 26.1121 840.908 26.1121 Z" fill="#000000" fill-rule="nonzero" fill-opacity="1" /><path clip-path="url(#clip230)" d="M874.085 9.54393 L881.539 9.54393 L881.539 72.576 L874.085 72.576 L874.085 9.54393 Z" fill="#000000" fill-rule="nonzero" fill-opacity="1" /><path clip-path="url(#clip230)" d="M926.99 34.0924 L926.99 9.54393 L934.444 9.54393 L934.444 72.576 L926.99 72.576 L926.99 65.7705 Q924.64 69.8214 921.035 71.8063 Q917.47 73.7508 912.447 73.7508 Q904.224 73.7508 899.039 67.1883 Q893.894 60.6258 893.894 49.9314 Q893.894 39.2371 899.039 32.6746 Q904.224 26.1121 912.447 26.1121 Q917.47 26.1121 921.035 28.0971 Q924.64 30.0415 926.99 34.0924 M901.591 49.9314 Q901.591 58.1548 904.953 62.8538 Q908.356 67.5124 914.27 67.5124 Q920.184 67.5124 923.587 62.8538 Q926.99 58.1548 926.99 49.9314 Q926.99 41.7081 923.587 37.0496 Q920.184 32.3505 914.27 32.3505 Q908.356 32.3505 904.953 37.0496 Q901.591 41.7081 901.591 49.9314 Z" fill="#000000" fill-rule="nonzero" fill-opacity="1" /><path clip-path="url(#clip230)" d="M976.492 12.096 L988.685 12.096 L1004.12 53.2532 L1019.63 12.096 L1031.83 12.096 L1031.83 72.576 L1023.85 72.576 L1023.85 19.4686 L1008.25 60.9499 L1000.03 60.9499 L984.432 19.4686 L984.432 72.576 L976.492 72.576 L976.492 12.096 Z" fill="#000000" fill-rule="nonzero" fill-opacity="1" /><path clip-path="url(#clip230)" d="M1086.56 48.0275 L1086.56 51.6733 L1052.28 51.6733 Q1052.77 59.3701 1056.9 63.421 Q1061.07 67.4314 1068.49 67.4314 Q1072.78 67.4314 1076.79 66.3781 Q1080.84 65.3249 1084.81 63.2184 L1084.81 70.267 Q1080.8 71.9684 1076.59 72.8596 Q1072.38 73.7508 1068.04 73.7508 Q1057.19 73.7508 1050.83 67.4314 Q1044.51 61.1119 1044.51 50.3365 Q1044.51 39.1965 1050.5 32.6746 Q1056.54 26.1121 1066.75 26.1121 Q1075.9 26.1121 1081.21 32.0264 Q1086.56 37.9003 1086.56 48.0275 M1079.1 45.84 Q1079.02 39.7232 1075.66 36.0774 Q1072.34 32.4315 1066.83 32.4315 Q1060.59 32.4315 1056.82 35.9558 Q1053.09 39.4801 1052.53 45.8805 L1079.1 45.84 Z" fill="#000000" fill-rule="nonzero" fill-opacity="1" /><path clip-path="url(#clip230)" d="M1119.41 49.7694 Q1110.37 49.7694 1106.89 51.8354 Q1103.41 53.9013 1103.41 58.8839 Q1103.41 62.8538 1106 65.2034 Q1108.63 67.5124 1113.13 67.5124 Q1119.33 67.5124 1123.05 63.1374 Q1126.82 58.7219 1126.82 51.4303 L1126.82 49.7694 L1119.41 49.7694 M1134.27 46.6907 L1134.27 72.576 L1126.82 72.576 L1126.82 65.6895 Q1124.27 69.8214 1120.46 71.8063 Q1116.65 73.7508 1111.14 73.7508 Q1104.18 73.7508 1100.04 69.8619 Q1095.95 65.9325 1095.95 59.3701 Q1095.95 51.7138 1101.06 47.825 Q1106.2 43.9361 1116.37 43.9361 L1126.82 43.9361 L1126.82 43.2069 Q1126.82 38.0623 1123.42 35.2672 Q1120.06 32.4315 1113.94 32.4315 Q1110.05 32.4315 1106.36 33.3632 Q1102.68 34.295 1099.27 36.1584 L1099.27 29.2718 Q1103.37 27.692 1107.21 26.9223 Q1111.06 26.1121 1114.71 26.1121 Q1124.55 26.1121 1129.41 31.2163 Q1134.27 36.3204 1134.27 46.6907 Z" fill="#000000" fill-rule="nonzero" fill-opacity="1" /><path clip-path="url(#clip230)" d="M1187.34 45.1919 L1187.34 72.576 L1179.89 72.576 L1179.89 45.4349 Q1179.89 38.994 1177.38 35.7938 Q1174.86 32.5936 1169.84 32.5936 Q1163.81 32.5936 1160.32 36.4419 Q1156.84 40.2903 1156.84 46.9338 L1156.84 72.576 L1149.34 72.576 L1149.34 27.2059 L1156.84 27.2059 L1156.84 34.2544 Q1159.51 30.163 1163.12 28.1376 Q1166.76 26.1121 1171.5 26.1121 Q1179.32 26.1121 1183.33 30.9732 Q1187.34 35.7938 1187.34 45.1919 Z" fill="#000000" fill-rule="nonzero" fill-opacity="1" /><path clip-path="url(#clip230)" d="M1258.92 20.5624 L1258.92 43.1259 L1281.48 43.1259 L1281.48 50.0125 L1258.92 50.0125 L1258.92 72.576 L1252.12 72.576 L1252.12 50.0125 L1229.55 50.0125 L1229.55 43.1259 L1252.12 43.1259 L1252.12 20.5624 L1258.92 20.5624 Z" fill="#000000" fill-rule="nonzero" fill-opacity="1" /><path clip-path="url(#clip230)" d="M1311.34 12.096 L1318.23 12.096 L1297.16 80.2727 L1290.28 80.2727 L1311.34 12.096 Z" fill="#000000" fill-rule="nonzero" fill-opacity="1" /><path clip-path="url(#clip230)" d="M1322.28 46.5287 L1344.11 46.5287 L1344.11 53.1722 L1322.28 53.1722 L1322.28 46.5287 Z" fill="#000000" fill-rule="nonzero" fill-opacity="1" /><path clip-path="url(#clip230)" d="M1383.65 71.3202 L1383.65 63.8666 Q1386.73 65.3249 1389.89 66.0946 Q1393.05 66.8642 1396.08 66.8642 Q1404.19 66.8642 1408.44 61.436 Q1412.73 55.9673 1413.34 44.8678 Q1410.99 48.3516 1407.39 50.215 Q1403.78 52.0784 1399.41 52.0784 Q1390.33 52.0784 1385.03 46.6097 Q1379.76 41.1005 1379.76 31.5808 Q1379.76 22.2638 1385.27 16.633 Q1390.78 11.0023 1399.93 11.0023 Q1410.42 11.0023 1415.93 19.0636 Q1421.48 27.0843 1421.48 42.3968 Q1421.48 56.6965 1414.68 65.2439 Q1407.91 73.7508 1396.45 73.7508 Q1393.37 73.7508 1390.21 73.1431 Q1387.05 72.5355 1383.65 71.3202 M1399.93 45.678 Q1405.44 45.678 1408.64 41.9107 Q1411.88 38.1433 1411.88 31.5808 Q1411.88 25.0589 1408.64 21.2916 Q1405.44 17.4837 1399.93 17.4837 Q1394.42 17.4837 1391.18 21.2916 Q1387.98 25.0589 1387.98 31.5808 Q1387.98 38.1433 1391.18 41.9107 Q1394.42 45.678 1399.93 45.678 Z" fill="#000000" fill-rule="nonzero" fill-opacity="1" /><path clip-path="url(#clip230)" d="M1436.27 12.096 L1468.39 12.096 L1468.39 18.9825 L1443.76 18.9825 L1443.76 33.8088 Q1445.55 33.2012 1447.33 32.9176 Q1449.11 32.5936 1450.89 32.5936 Q1461.02 32.5936 1466.94 38.1433 Q1472.85 43.6931 1472.85 53.1722 Q1472.85 62.9348 1466.77 68.3631 Q1460.7 73.7508 1449.64 73.7508 Q1445.83 73.7508 1441.86 73.1026 Q1437.93 72.4545 1433.72 71.1582 L1433.72 62.9348 Q1437.36 64.9198 1441.25 65.892 Q1445.14 66.8642 1449.48 66.8642 Q1456.48 66.8642 1460.58 63.1779 Q1464.67 59.4916 1464.67 53.1722 Q1464.67 46.8528 1460.58 43.1664 Q1456.48 39.4801 1449.48 39.4801 Q1446.19 39.4801 1442.91 40.2093 Q1439.67 40.9384 1436.27 42.4778 L1436.27 12.096 Z" fill="#000000" fill-rule="nonzero" fill-opacity="1" /><path clip-path="url(#clip230)" d="M1540.42 45.9616 Q1536.89 45.9616 1534.87 48.9592 Q1532.88 51.9569 1532.88 57.3041 Q1532.88 62.5703 1534.87 65.6084 Q1536.89 68.6061 1540.42 68.6061 Q1543.86 68.6061 1545.85 65.6084 Q1547.87 62.5703 1547.87 57.3041 Q1547.87 51.9974 1545.85 48.9997 Q1543.86 45.9616 1540.42 45.9616 M1540.42 40.8169 Q1546.82 40.8169 1550.59 45.2729 Q1554.35 49.7289 1554.35 57.3041 Q1554.35 64.8793 1550.55 69.3353 Q1546.78 73.7508 1540.42 73.7508 Q1533.94 73.7508 1530.17 69.3353 Q1526.4 64.8793 1526.4 57.3041 Q1526.4 49.6884 1530.17 45.2729 Q1533.98 40.8169 1540.42 40.8169 M1498.61 16.1469 Q1495.13 16.1469 1493.1 19.1851 Q1491.12 22.1828 1491.12 27.4489 Q1491.12 32.7961 1493.1 35.7938 Q1495.09 38.7915 1498.61 38.7915 Q1502.14 38.7915 1504.12 35.7938 Q1506.15 32.7961 1506.15 27.4489 Q1506.15 22.2233 1504.12 19.1851 Q1502.1 16.1469 1498.61 16.1469 M1535.19 11.0023 L1541.67 11.0023 L1503.84 73.7508 L1497.36 73.7508 L1535.19 11.0023 M1498.61 11.0023 Q1505.01 11.0023 1508.82 15.4583 Q1512.63 19.8737 1512.63 27.4489 Q1512.63 35.1051 1508.82 39.5206 Q1505.05 43.9361 1498.61 43.9361 Q1492.17 43.9361 1488.4 39.5206 Q1484.68 35.0646 1484.68 27.4489 Q1484.68 19.9142 1488.45 15.4583 Q1492.21 11.0023 1498.61 11.0023 Z" fill="#000000" fill-rule="nonzero" fill-opacity="1" /><path clip-path="url(#clip230)" d="M1638.73 16.7545 L1638.73 25.383 Q1634.6 21.5346 1629.9 19.6307 Q1625.24 17.7268 1619.98 17.7268 Q1609.61 17.7268 1604.1 24.0867 Q1598.59 30.4061 1598.59 42.3968 Q1598.59 54.3469 1604.1 60.7069 Q1609.61 67.0263 1619.98 67.0263 Q1625.24 67.0263 1629.9 65.1223 Q1634.6 63.2184 1638.73 59.3701 L1638.73 67.9175 Q1634.44 70.8341 1629.62 72.2924 Q1624.84 73.7508 1619.49 73.7508 Q1605.76 73.7508 1597.86 65.3654 Q1589.96 56.9395 1589.96 42.3968 Q1589.96 27.8135 1597.86 19.4281 Q1605.76 11.0023 1619.49 11.0023 Q1624.92 11.0023 1629.7 12.4606 Q1634.52 13.8784 1638.73 16.7545 Z" fill="#000000" fill-rule="nonzero" fill-opacity="1" /><path clip-path="url(#clip230)" d="M1651.37 12.096 L1659.56 12.096 L1659.56 72.576 L1651.37 72.576 L1651.37 12.096 Z" fill="#000000" fill-rule="nonzero" fill-opacity="1" /><path clip-path="url(#clip232)" d="M1827.24 1135.49 L1827.24 1423.18 L1785.98 1423.18 L1785.98 1135.49 L1827.24 1135.49 L1827.24 1135.49  Z" fill="#009af9" fill-rule="evenodd" fill-opacity="1"/>
<polyline clip-path="url(#clip232)" style="stroke:#000000; stroke-linecap:round; stroke-linejoin:round; stroke-width:4; stroke-opacity:1; fill:none" points="1827.24,1135.49 1827.24,1423.18 1785.98,1423.18 1785.98,1135.49 1827.24,1135.49 "/>
<path clip-path="url(#clip232)" d="M1672.52 1021.6 L1672.52 1423.18 L1631.26 1423.18 L1631.26 1021.6 L1672.52 1021.6 L1672.52 1021.6  Z" fill="#009af9" fill-rule="evenodd" fill-opacity="1"/>
<polyline clip-path="url(#clip232)" style="stroke:#000000; stroke-linecap:round; stroke-linejoin:round; stroke-width:4; stroke-opacity:1; fill:none" points="1672.52,1021.6 1672.52,1423.18 1631.26,1423.18 1631.26,1021.6 1672.52,1021.6 "/>
<path clip-path="url(#clip232)" d="M1517.79 970.429 L1517.79 1423.18 L1476.54 1423.18 L1476.54 970.429 L1517.79 970.429 L1517.79 970.429  Z" fill="#009af9" fill-rule="evenodd" fill-opacity="1"/>
<polyline clip-path="url(#clip232)" style="stroke:#000000; stroke-linecap:round; stroke-linejoin:round; stroke-width:4; stroke-opacity:1; fill:none" points="1517.79,970.429 1517.79,1423.18 1476.54,1423.18 1476.54,970.429 1517.79,970.429 "/>
<path clip-path="url(#clip232)" d="M1363.07 938.246 L1363.07 1423.18 L1321.81 1423.18 L1321.81 938.246 L1363.07 938.246 L1363.07 938.246  Z" fill="#009af9" fill-rule="evenodd" fill-opacity="1"/>
<polyline clip-path="url(#clip232)" style="stroke:#000000; stroke-linecap:round; stroke-linejoin:round; stroke-width:4; stroke-opacity:1; fill:none" points="1363.07,938.246 1363.07,1423.18 1321.81,1423.18 1321.81,938.246 1363.07,938.246 "/>
<path clip-path="url(#clip232)" d="M1208.35 849.327 L1208.35 1423.18 L1167.09 1423.18 L1167.09 849.327 L1208.35 849.327 L1208.35 849.327  Z" fill="#009af9" fill-rule="evenodd" fill-opacity="1"/>
<polyline clip-path="url(#clip232)" style="stroke:#000000; stroke-linecap:round; stroke-linejoin:round; stroke-width:4; stroke-opacity:1; fill:none" points="1208.35,849.327 1208.35,1423.18 1167.09,1423.18 1167.09,849.327 1208.35,849.327 "/>
<path clip-path="url(#clip232)" d="M1053.62 788.7 L1053.62 1423.18 L1012.36 1423.18 L1012.36 788.7 L1053.62 788.7 L1053.62 788.7  Z" fill="#009af9" fill-rule="evenodd" fill-opacity="1"/>
<polyline clip-path="url(#clip232)" style="stroke:#000000; stroke-linecap:round; stroke-linejoin:round; stroke-width:4; stroke-opacity:1; fill:none" points="1053.62,788.7 1053.62,1423.18 1012.36,1423.18 1012.36,788.7 1053.62,788.7 "/>
<path clip-path="url(#clip232)" d="M898.9 700.606 L898.9 1423.18 L857.64 1423.18 L857.64 700.606 L898.9 700.606 L898.9 700.606  Z" fill="#009af9" fill-rule="evenodd" fill-opacity="1"/>
<polyline clip-path="url(#clip232)" style="stroke:#000000; stroke-linecap:round; stroke-linejoin:round; stroke-width:4; stroke-opacity:1; fill:none" points="898.9,700.606 898.9,1423.18 857.64,1423.18 857.64,700.606 898.9,700.606 "/>
<path clip-path="url(#clip232)" d="M744.176 651.854 L744.176 1423.18 L702.916 1423.18 L702.916 651.854 L744.176 651.854 L744.176 651.854  Z" fill="#009af9" fill-rule="evenodd" fill-opacity="1"/>
<polyline clip-path="url(#clip232)" style="stroke:#000000; stroke-linecap:round; stroke-linejoin:round; stroke-width:4; stroke-opacity:1; fill:none" points="744.176,651.854 744.176,1423.18 702.916,1423.18 702.916,651.854 744.176,651.854 "/>
<path clip-path="url(#clip232)" d="M589.452 603.732 L589.452 1423.18 L548.192 1423.18 L548.192 603.732 L589.452 603.732 L589.452 603.732  Z" fill="#009af9" fill-rule="evenodd" fill-opacity="1"/>
<polyline clip-path="url(#clip232)" style="stroke:#000000; stroke-linecap:round; stroke-linejoin:round; stroke-width:4; stroke-opacity:1; fill:none" points="589.452,603.732 589.452,1423.18 548.192,1423.18 548.192,603.732 589.452,603.732 "/>
<path clip-path="url(#clip232)" d="M434.728 537.954 L434.728 1423.18 L393.468 1423.18 L393.468 537.954 L434.728 537.954 L434.728 537.954  Z" fill="#009af9" fill-rule="evenodd" fill-opacity="1"/>
<polyline clip-path="url(#clip232)" style="stroke:#000000; stroke-linecap:round; stroke-linejoin:round; stroke-width:4; stroke-opacity:1; fill:none" points="434.728,537.954 434.728,1423.18 393.468,1423.18 393.468,537.954 434.728,537.954 "/>
<circle clip-path="url(#clip232)" style="fill:#009af9; stroke:none; fill-opacity:0" cx="1806.61" cy="1135.49" r="2"/>
<circle clip-path="url(#clip232)" style="fill:#009af9; stroke:none; fill-opacity:0" cx="1651.89" cy="1021.6" r="2"/>
<circle clip-path="url(#clip232)" style="fill:#009af9; stroke:none; fill-opacity:0" cx="1497.16" cy="970.429" r="2"/>
<circle clip-path="url(#clip232)" style="fill:#009af9; stroke:none; fill-opacity:0" cx="1342.44" cy="938.246" r="2"/>
<circle clip-path="url(#clip232)" style="fill:#009af9; stroke:none; fill-opacity:0" cx="1187.72" cy="849.327" r="2"/>
<circle clip-path="url(#clip232)" style="fill:#009af9; stroke:none; fill-opacity:0" cx="1032.99" cy="788.7" r="2"/>
<circle clip-path="url(#clip232)" style="fill:#009af9; stroke:none; fill-opacity:0" cx="878.27" cy="700.606" r="2"/>
<circle clip-path="url(#clip232)" style="fill:#009af9; stroke:none; fill-opacity:0" cx="723.546" cy="651.854" r="2"/>
<circle clip-path="url(#clip232)" style="fill:#009af9; stroke:none; fill-opacity:0" cx="568.822" cy="603.732" r="2"/>
<circle clip-path="url(#clip232)" style="fill:#009af9; stroke:none; fill-opacity:0" cx="414.098" cy="537.954" r="2"/>
<path clip-path="url(#clip232)" d="M1806.61 1164.24 L1806.61 1106.74 L1806.61 1423.18 L1806.61 1423.18  Z" fill="#009af9" fill-rule="evenodd" fill-opacity="1"/>
<polyline clip-path="url(#clip232)" style="stroke:#000000; stroke-linecap:round; stroke-linejoin:round; stroke-width:4; stroke-opacity:1; fill:none" points="1806.61,1164.24 1806.61,1106.74 "/>
<path clip-path="url(#clip232)" d="M1651.89 1071.31 L1651.89 971.904 L1651.89 1423.18 L1651.89 1423.18  Z" fill="#009af9" fill-rule="evenodd" fill-opacity="1"/>
<polyline clip-path="url(#clip232)" style="stroke:#000000; stroke-linecap:round; stroke-linejoin:round; stroke-width:4; stroke-opacity:1; fill:none" points="1651.89,1071.31 1651.89,971.904 "/>
<path clip-path="url(#clip232)" d="M1497.16 1012.11 L1497.16 928.746 L1497.16 1423.18 L1497.16 1423.18  Z" fill="#009af9" fill-rule="evenodd" fill-opacity="1"/>
<polyline clip-path="url(#clip232)" style="stroke:#000000; stroke-linecap:round; stroke-linejoin:round; stroke-width:4; stroke-opacity:1; fill:none" points="1497.16,1012.11 1497.16,928.746 "/>
<path clip-path="url(#clip232)" d="M1342.44 981.852 L1342.44 894.64 L1342.44 1423.18 L1342.44 1423.18  Z" fill="#009af9" fill-rule="evenodd" fill-opacity="1"/>
<polyline clip-path="url(#clip232)" style="stroke:#000000; stroke-linecap:round; stroke-linejoin:round; stroke-width:4; stroke-opacity:1; fill:none" points="1342.44,981.852 1342.44,894.64 "/>
<path clip-path="url(#clip232)" d="M1187.72 896.132 L1187.72 802.522 L1187.72 1423.18 L1187.72 1423.18  Z" fill="#009af9" fill-rule="evenodd" fill-opacity="1"/>
<polyline clip-path="url(#clip232)" style="stroke:#000000; stroke-linecap:round; stroke-linejoin:round; stroke-width:4; stroke-opacity:1; fill:none" points="1187.72,896.132 1187.72,802.522 "/>
<path clip-path="url(#clip232)" d="M1032.99 838.95 L1032.99 738.449 L1032.99 1423.18 L1032.99 1423.18  Z" fill="#009af9" fill-rule="evenodd" fill-opacity="1"/>
<polyline clip-path="url(#clip232)" style="stroke:#000000; stroke-linecap:round; stroke-linejoin:round; stroke-width:4; stroke-opacity:1; fill:none" points="1032.99,838.95 1032.99,738.449 "/>
<path clip-path="url(#clip232)" d="M878.27 758.411 L878.27 642.8 L878.27 1423.18 L878.27 1423.18  Z" fill="#009af9" fill-rule="evenodd" fill-opacity="1"/>
<polyline clip-path="url(#clip232)" style="stroke:#000000; stroke-linecap:round; stroke-linejoin:round; stroke-width:4; stroke-opacity:1; fill:none" points="878.27,758.411 878.27,642.8 "/>
<path clip-path="url(#clip232)" d="M723.546 717.409 L723.546 586.299 L723.546 1423.18 L723.546 1423.18  Z" fill="#009af9" fill-rule="evenodd" fill-opacity="1"/>
<polyline clip-path="url(#clip232)" style="stroke:#000000; stroke-linecap:round; stroke-linejoin:round; stroke-width:4; stroke-opacity:1; fill:none" points="723.546,717.409 723.546,586.299 "/>
<path clip-path="url(#clip232)" d="M568.822 674.949 L568.822 532.514 L568.822 1423.18 L568.822 1423.18  Z" fill="#009af9" fill-rule="evenodd" fill-opacity="1"/>
<polyline clip-path="url(#clip232)" style="stroke:#000000; stroke-linecap:round; stroke-linejoin:round; stroke-width:4; stroke-opacity:1; fill:none" points="568.822,674.949 568.822,532.514 "/>
<path clip-path="url(#clip232)" d="M414.098 612.763 L414.098 463.146 L414.098 1423.18 L414.098 1423.18  Z" fill="#009af9" fill-rule="evenodd" fill-opacity="1"/>
<polyline clip-path="url(#clip232)" style="stroke:#000000; stroke-linecap:round; stroke-linejoin:round; stroke-width:4; stroke-opacity:1; fill:none" points="414.098,612.763 414.098,463.146 "/>
<circle clip-path="url(#clip232)" style="fill:#000000; stroke:none; fill-opacity:1" cx="1806.61" cy="1164.24" r="2"/>
<circle clip-path="url(#clip232)" style="fill:#000000; stroke:none; fill-opacity:1" cx="1806.61" cy="1106.74" r="2"/>
<circle clip-path="url(#clip232)" style="fill:#000000; stroke:none; fill-opacity:1" cx="1651.89" cy="1071.31" r="2"/>
<circle clip-path="url(#clip232)" style="fill:#000000; stroke:none; fill-opacity:1" cx="1651.89" cy="971.904" r="2"/>
<circle clip-path="url(#clip232)" style="fill:#000000; stroke:none; fill-opacity:1" cx="1497.16" cy="1012.11" r="2"/>
<circle clip-path="url(#clip232)" style="fill:#000000; stroke:none; fill-opacity:1" cx="1497.16" cy="928.746" r="2"/>
<circle clip-path="url(#clip232)" style="fill:#000000; stroke:none; fill-opacity:1" cx="1342.44" cy="981.852" r="2"/>
<circle clip-path="url(#clip232)" style="fill:#000000; stroke:none; fill-opacity:1" cx="1342.44" cy="894.64" r="2"/>
<circle clip-path="url(#clip232)" style="fill:#000000; stroke:none; fill-opacity:1" cx="1187.72" cy="896.132" r="2"/>
<circle clip-path="url(#clip232)" style="fill:#000000; stroke:none; fill-opacity:1" cx="1187.72" cy="802.522" r="2"/>
<circle clip-path="url(#clip232)" style="fill:#000000; stroke:none; fill-opacity:1" cx="1032.99" cy="838.95" r="2"/>
<circle clip-path="url(#clip232)" style="fill:#000000; stroke:none; fill-opacity:1" cx="1032.99" cy="738.449" r="2"/>
<circle clip-path="url(#clip232)" style="fill:#000000; stroke:none; fill-opacity:1" cx="878.27" cy="758.411" r="2"/>
<circle clip-path="url(#clip232)" style="fill:#000000; stroke:none; fill-opacity:1" cx="878.27" cy="642.8" r="2"/>
<circle clip-path="url(#clip232)" style="fill:#000000; stroke:none; fill-opacity:1" cx="723.546" cy="717.409" r="2"/>
<circle clip-path="url(#clip232)" style="fill:#000000; stroke:none; fill-opacity:1" cx="723.546" cy="586.299" r="2"/>
<circle clip-path="url(#clip232)" style="fill:#000000; stroke:none; fill-opacity:1" cx="568.822" cy="674.949" r="2"/>
<circle clip-path="url(#clip232)" style="fill:#000000; stroke:none; fill-opacity:1" cx="568.822" cy="532.514" r="2"/>
<circle clip-path="url(#clip232)" style="fill:#000000; stroke:none; fill-opacity:1" cx="414.098" cy="612.763" r="2"/>
<circle clip-path="url(#clip232)" style="fill:#000000; stroke:none; fill-opacity:1" cx="414.098" cy="463.146" r="2"/>
<path clip-path="url(#clip232)" d="M1785.98 515.872 L1785.98 1423.18 L1744.72 1423.18 L1744.72 515.872 L1785.98 515.872 L1785.98 515.872  Z" fill="#e26f46" fill-rule="evenodd" fill-opacity="1"/>
<polyline clip-path="url(#clip232)" style="stroke:#000000; stroke-linecap:round; stroke-linejoin:round; stroke-width:4; stroke-opacity:1; fill:none" points="1785.98,515.872 1785.98,1423.18 1744.72,1423.18 1744.72,515.872 1785.98,515.872 "/>
<path clip-path="url(#clip232)" d="M1631.26 546.481 L1631.26 1423.18 L1590 1423.18 L1590 546.481 L1631.26 546.481 L1631.26 546.481  Z" fill="#e26f46" fill-rule="evenodd" fill-opacity="1"/>
<polyline clip-path="url(#clip232)" style="stroke:#000000; stroke-linecap:round; stroke-linejoin:round; stroke-width:4; stroke-opacity:1; fill:none" points="1631.26,546.481 1631.26,1423.18 1590,1423.18 1590,546.481 1631.26,546.481 "/>
<path clip-path="url(#clip232)" d="M1476.54 462.928 L1476.54 1423.18 L1435.28 1423.18 L1435.28 462.928 L1476.54 462.928 L1476.54 462.928  Z" fill="#e26f46" fill-rule="evenodd" fill-opacity="1"/>
<polyline clip-path="url(#clip232)" style="stroke:#000000; stroke-linecap:round; stroke-linejoin:round; stroke-width:4; stroke-opacity:1; fill:none" points="1476.54,462.928 1476.54,1423.18 1435.28,1423.18 1435.28,462.928 1476.54,462.928 "/>
<path clip-path="url(#clip232)" d="M1321.81 516.554 L1321.81 1423.18 L1280.55 1423.18 L1280.55 516.554 L1321.81 516.554 L1321.81 516.554  Z" fill="#e26f46" fill-rule="evenodd" fill-opacity="1"/>
<polyline clip-path="url(#clip232)" style="stroke:#000000; stroke-linecap:round; stroke-linejoin:round; stroke-width:4; stroke-opacity:1; fill:none" points="1321.81,516.554 1321.81,1423.18 1280.55,1423.18 1280.55,516.554 1321.81,516.554 "/>
<path clip-path="url(#clip232)" d="M1167.09 449.42 L1167.09 1423.18 L1125.83 1423.18 L1125.83 449.42 L1167.09 449.42 L1167.09 449.42  Z" fill="#e26f46" fill-rule="evenodd" fill-opacity="1"/>
<polyline clip-path="url(#clip232)" style="stroke:#000000; stroke-linecap:round; stroke-linejoin:round; stroke-width:4; stroke-opacity:1; fill:none" points="1167.09,449.42 1167.09,1423.18 1125.83,1423.18 1125.83,449.42 1167.09,449.42 "/>
<path clip-path="url(#clip232)" d="M1012.36 412.111 L1012.36 1423.18 L971.104 1423.18 L971.104 412.111 L1012.36 412.111 L1012.36 412.111  Z" fill="#e26f46" fill-rule="evenodd" fill-opacity="1"/>
<polyline clip-path="url(#clip232)" style="stroke:#000000; stroke-linecap:round; stroke-linejoin:round; stroke-width:4; stroke-opacity:1; fill:none" points="1012.36,412.111 1012.36,1423.18 971.104,1423.18 971.104,412.111 1012.36,412.111 "/>
<path clip-path="url(#clip232)" d="M857.64 328.804 L857.64 1423.18 L816.38 1423.18 L816.38 328.804 L857.64 328.804 L857.64 328.804  Z" fill="#e26f46" fill-rule="evenodd" fill-opacity="1"/>
<polyline clip-path="url(#clip232)" style="stroke:#000000; stroke-linecap:round; stroke-linejoin:round; stroke-width:4; stroke-opacity:1; fill:none" points="857.64,328.804 857.64,1423.18 816.38,1423.18 816.38,328.804 857.64,328.804 "/>
<path clip-path="url(#clip232)" d="M702.916 264.126 L702.916 1423.18 L661.656 1423.18 L661.656 264.126 L702.916 264.126 L702.916 264.126  Z" fill="#e26f46" fill-rule="evenodd" fill-opacity="1"/>
<polyline clip-path="url(#clip232)" style="stroke:#000000; stroke-linecap:round; stroke-linejoin:round; stroke-width:4; stroke-opacity:1; fill:none" points="702.916,264.126 702.916,1423.18 661.656,1423.18 661.656,264.126 702.916,264.126 "/>
<path clip-path="url(#clip232)" d="M548.192 247.859 L548.192 1423.18 L506.933 1423.18 L506.933 247.859 L548.192 247.859 L548.192 247.859  Z" fill="#e26f46" fill-rule="evenodd" fill-opacity="1"/>
<polyline clip-path="url(#clip232)" style="stroke:#000000; stroke-linecap:round; stroke-linejoin:round; stroke-width:4; stroke-opacity:1; fill:none" points="548.192,247.859 548.192,1423.18 506.933,1423.18 506.933,247.859 548.192,247.859 "/>
<path clip-path="url(#clip232)" d="M393.468 274.336 L393.468 1423.18 L352.209 1423.18 L352.209 274.336 L393.468 274.336 L393.468 274.336  Z" fill="#e26f46" fill-rule="evenodd" fill-opacity="1"/>
<polyline clip-path="url(#clip232)" style="stroke:#000000; stroke-linecap:round; stroke-linejoin:round; stroke-width:4; stroke-opacity:1; fill:none" points="393.468,274.336 393.468,1423.18 352.209,1423.18 352.209,274.336 393.468,274.336 "/>
<circle clip-path="url(#clip232)" style="fill:#e26f46; stroke:none; fill-opacity:0" cx="1765.35" cy="515.872" r="2"/>
<circle clip-path="url(#clip232)" style="fill:#e26f46; stroke:none; fill-opacity:0" cx="1610.63" cy="546.481" r="2"/>
<circle clip-path="url(#clip232)" style="fill:#e26f46; stroke:none; fill-opacity:0" cx="1455.91" cy="462.928" r="2"/>
<circle clip-path="url(#clip232)" style="fill:#e26f46; stroke:none; fill-opacity:0" cx="1301.18" cy="516.554" r="2"/>
<circle clip-path="url(#clip232)" style="fill:#e26f46; stroke:none; fill-opacity:0" cx="1146.46" cy="449.42" r="2"/>
<circle clip-path="url(#clip232)" style="fill:#e26f46; stroke:none; fill-opacity:0" cx="991.734" cy="412.111" r="2"/>
<circle clip-path="url(#clip232)" style="fill:#e26f46; stroke:none; fill-opacity:0" cx="837.01" cy="328.804" r="2"/>
<circle clip-path="url(#clip232)" style="fill:#e26f46; stroke:none; fill-opacity:0" cx="682.286" cy="264.126" r="2"/>
<circle clip-path="url(#clip232)" style="fill:#e26f46; stroke:none; fill-opacity:0" cx="527.562" cy="247.859" r="2"/>
<circle clip-path="url(#clip232)" style="fill:#e26f46; stroke:none; fill-opacity:0" cx="372.839" cy="274.336" r="2"/>
<path clip-path="url(#clip232)" d="M1765.35 551.538 L1765.35 480.206 L1765.35 1423.18 L1765.35 1423.18  Z" fill="#e26f46" fill-rule="evenodd" fill-opacity="1"/>
<polyline clip-path="url(#clip232)" style="stroke:#000000; stroke-linecap:round; stroke-linejoin:round; stroke-width:4; stroke-opacity:1; fill:none" points="1765.35,551.538 1765.35,480.206 "/>
<path clip-path="url(#clip232)" d="M1610.63 577.9 L1610.63 515.062 L1610.63 1423.18 L1610.63 1423.18  Z" fill="#e26f46" fill-rule="evenodd" fill-opacity="1"/>
<polyline clip-path="url(#clip232)" style="stroke:#000000; stroke-linecap:round; stroke-linejoin:round; stroke-width:4; stroke-opacity:1; fill:none" points="1610.63,577.9 1610.63,515.062 "/>
<path clip-path="url(#clip232)" d="M1455.91 489.025 L1455.91 436.832 L1455.91 1423.18 L1455.91 1423.18  Z" fill="#e26f46" fill-rule="evenodd" fill-opacity="1"/>
<polyline clip-path="url(#clip232)" style="stroke:#000000; stroke-linecap:round; stroke-linejoin:round; stroke-width:4; stroke-opacity:1; fill:none" points="1455.91,489.025 1455.91,436.832 "/>
<path clip-path="url(#clip232)" d="M1301.18 543.872 L1301.18 489.235 L1301.18 1423.18 L1301.18 1423.18  Z" fill="#e26f46" fill-rule="evenodd" fill-opacity="1"/>
<polyline clip-path="url(#clip232)" style="stroke:#000000; stroke-linecap:round; stroke-linejoin:round; stroke-width:4; stroke-opacity:1; fill:none" points="1301.18,543.872 1301.18,489.235 "/>
<path clip-path="url(#clip232)" d="M1146.46 505.007 L1146.46 393.832 L1146.46 1423.18 L1146.46 1423.18  Z" fill="#e26f46" fill-rule="evenodd" fill-opacity="1"/>
<polyline clip-path="url(#clip232)" style="stroke:#000000; stroke-linecap:round; stroke-linejoin:round; stroke-width:4; stroke-opacity:1; fill:none" points="1146.46,505.007 1146.46,393.832 "/>
<path clip-path="url(#clip232)" d="M991.734 477.451 L991.734 346.77 L991.734 1423.18 L991.734 1423.18  Z" fill="#e26f46" fill-rule="evenodd" fill-opacity="1"/>
<polyline clip-path="url(#clip232)" style="stroke:#000000; stroke-linecap:round; stroke-linejoin:round; stroke-width:4; stroke-opacity:1; fill:none" points="991.734,477.451 991.734,346.77 "/>
<path clip-path="url(#clip232)" d="M837.01 415.581 L837.01 242.026 L837.01 1423.18 L837.01 1423.18  Z" fill="#e26f46" fill-rule="evenodd" fill-opacity="1"/>
<polyline clip-path="url(#clip232)" style="stroke:#000000; stroke-linecap:round; stroke-linejoin:round; stroke-width:4; stroke-opacity:1; fill:none" points="837.01,415.581 837.01,242.026 "/>
<path clip-path="url(#clip232)" d="M682.286 358.896 L682.286 169.355 L682.286 1423.18 L682.286 1423.18  Z" fill="#e26f46" fill-rule="evenodd" fill-opacity="1"/>
<polyline clip-path="url(#clip232)" style="stroke:#000000; stroke-linecap:round; stroke-linejoin:round; stroke-width:4; stroke-opacity:1; fill:none" points="682.286,358.896 682.286,169.355 "/>
<path clip-path="url(#clip232)" d="M527.562 354.341 L527.562 141.378 L527.562 1423.18 L527.562 1423.18  Z" fill="#e26f46" fill-rule="evenodd" fill-opacity="1"/>
<polyline clip-path="url(#clip232)" style="stroke:#000000; stroke-linecap:round; stroke-linejoin:round; stroke-width:4; stroke-opacity:1; fill:none" points="527.562,354.341 527.562,141.378 "/>
<path clip-path="url(#clip232)" d="M372.839 425.2 L372.839 123.472 L372.839 1423.18 L372.839 1423.18  Z" fill="#e26f46" fill-rule="evenodd" fill-opacity="1"/>
<polyline clip-path="url(#clip232)" style="stroke:#000000; stroke-linecap:round; stroke-linejoin:round; stroke-width:4; stroke-opacity:1; fill:none" points="372.839,425.2 372.839,123.472 "/>
<circle clip-path="url(#clip232)" style="fill:#000000; stroke:none; fill-opacity:1" cx="1765.35" cy="551.538" r="2"/>
<circle clip-path="url(#clip232)" style="fill:#000000; stroke:none; fill-opacity:1" cx="1765.35" cy="480.206" r="2"/>
<circle clip-path="url(#clip232)" style="fill:#000000; stroke:none; fill-opacity:1" cx="1610.63" cy="577.9" r="2"/>
<circle clip-path="url(#clip232)" style="fill:#000000; stroke:none; fill-opacity:1" cx="1610.63" cy="515.062" r="2"/>
<circle clip-path="url(#clip232)" style="fill:#000000; stroke:none; fill-opacity:1" cx="1455.91" cy="489.025" r="2"/>
<circle clip-path="url(#clip232)" style="fill:#000000; stroke:none; fill-opacity:1" cx="1455.91" cy="436.832" r="2"/>
<circle clip-path="url(#clip232)" style="fill:#000000; stroke:none; fill-opacity:1" cx="1301.18" cy="543.872" r="2"/>
<circle clip-path="url(#clip232)" style="fill:#000000; stroke:none; fill-opacity:1" cx="1301.18" cy="489.235" r="2"/>
<circle clip-path="url(#clip232)" style="fill:#000000; stroke:none; fill-opacity:1" cx="1146.46" cy="505.007" r="2"/>
<circle clip-path="url(#clip232)" style="fill:#000000; stroke:none; fill-opacity:1" cx="1146.46" cy="393.832" r="2"/>
<circle clip-path="url(#clip232)" style="fill:#000000; stroke:none; fill-opacity:1" cx="991.734" cy="477.451" r="2"/>
<circle clip-path="url(#clip232)" style="fill:#000000; stroke:none; fill-opacity:1" cx="991.734" cy="346.77" r="2"/>
<circle clip-path="url(#clip232)" style="fill:#000000; stroke:none; fill-opacity:1" cx="837.01" cy="415.581" r="2"/>
<circle clip-path="url(#clip232)" style="fill:#000000; stroke:none; fill-opacity:1" cx="837.01" cy="242.026" r="2"/>
<circle clip-path="url(#clip232)" style="fill:#000000; stroke:none; fill-opacity:1" cx="682.286" cy="358.896" r="2"/>
<circle clip-path="url(#clip232)" style="fill:#000000; stroke:none; fill-opacity:1" cx="682.286" cy="169.355" r="2"/>
<circle clip-path="url(#clip232)" style="fill:#000000; stroke:none; fill-opacity:1" cx="527.562" cy="354.341" r="2"/>
<circle clip-path="url(#clip232)" style="fill:#000000; stroke:none; fill-opacity:1" cx="527.562" cy="141.378" r="2"/>
<circle clip-path="url(#clip232)" style="fill:#000000; stroke:none; fill-opacity:1" cx="372.839" cy="425.2" r="2"/>
<circle clip-path="url(#clip232)" style="fill:#000000; stroke:none; fill-opacity:1" cx="372.839" cy="123.472" r="2"/>
<path clip-path="url(#clip232)" d="M1744.72 912.665 L1744.72 1423.18 L1703.46 1423.18 L1703.46 912.665 L1744.72 912.665 L1744.72 912.665  Z" fill="#3da44d" fill-rule="evenodd" fill-opacity="1"/>
<polyline clip-path="url(#clip232)" style="stroke:#000000; stroke-linecap:round; stroke-linejoin:round; stroke-width:4; stroke-opacity:1; fill:none" points="1744.72,912.665 1744.72,1423.18 1703.46,1423.18 1703.46,912.665 1744.72,912.665 "/>
<path clip-path="url(#clip232)" d="M1590 892.206 L1590 1423.18 L1548.74 1423.18 L1548.74 892.206 L1590 892.206 L1590 892.206  Z" fill="#3da44d" fill-rule="evenodd" fill-opacity="1"/>
<polyline clip-path="url(#clip232)" style="stroke:#000000; stroke-linecap:round; stroke-linejoin:round; stroke-width:4; stroke-opacity:1; fill:none" points="1590,892.206 1590,1423.18 1548.74,1423.18 1548.74,892.206 1590,892.206 "/>
<path clip-path="url(#clip232)" d="M1435.28 844.618 L1435.28 1423.18 L1394.02 1423.18 L1394.02 844.618 L1435.28 844.618 L1435.28 844.618  Z" fill="#3da44d" fill-rule="evenodd" fill-opacity="1"/>
<polyline clip-path="url(#clip232)" style="stroke:#000000; stroke-linecap:round; stroke-linejoin:round; stroke-width:4; stroke-opacity:1; fill:none" points="1435.28,844.618 1435.28,1423.18 1394.02,1423.18 1394.02,844.618 1435.28,844.618 "/>
<path clip-path="url(#clip232)" d="M1280.55 854.746 L1280.55 1423.18 L1239.29 1423.18 L1239.29 854.746 L1280.55 854.746 L1280.55 854.746  Z" fill="#3da44d" fill-rule="evenodd" fill-opacity="1"/>
<polyline clip-path="url(#clip232)" style="stroke:#000000; stroke-linecap:round; stroke-linejoin:round; stroke-width:4; stroke-opacity:1; fill:none" points="1280.55,854.746 1280.55,1423.18 1239.29,1423.18 1239.29,854.746 1280.55,854.746 "/>
<path clip-path="url(#clip232)" d="M1125.83 823.476 L1125.83 1423.18 L1084.57 1423.18 L1084.57 823.476 L1125.83 823.476 L1125.83 823.476  Z" fill="#3da44d" fill-rule="evenodd" fill-opacity="1"/>
<polyline clip-path="url(#clip232)" style="stroke:#000000; stroke-linecap:round; stroke-linejoin:round; stroke-width:4; stroke-opacity:1; fill:none" points="1125.83,823.476 1125.83,1423.18 1084.57,1423.18 1084.57,823.476 1125.83,823.476 "/>
<path clip-path="url(#clip232)" d="M971.104 808.132 L971.104 1423.18 L929.844 1423.18 L929.844 808.132 L971.104 808.132 L971.104 808.132  Z" fill="#3da44d" fill-rule="evenodd" fill-opacity="1"/>
<polyline clip-path="url(#clip232)" style="stroke:#000000; stroke-linecap:round; stroke-linejoin:round; stroke-width:4; stroke-opacity:1; fill:none" points="971.104,808.132 971.104,1423.18 929.844,1423.18 929.844,808.132 971.104,808.132 "/>
<path clip-path="url(#clip232)" d="M816.38 777.848 L816.38 1423.18 L775.12 1423.18 L775.12 777.848 L816.38 777.848 L816.38 777.848  Z" fill="#3da44d" fill-rule="evenodd" fill-opacity="1"/>
<polyline clip-path="url(#clip232)" style="stroke:#000000; stroke-linecap:round; stroke-linejoin:round; stroke-width:4; stroke-opacity:1; fill:none" points="816.38,777.848 816.38,1423.18 775.12,1423.18 775.12,777.848 816.38,777.848 "/>
<path clip-path="url(#clip232)" d="M661.656 755.091 L661.656 1423.18 L620.397 1423.18 L620.397 755.091 L661.656 755.091 L661.656 755.091  Z" fill="#3da44d" fill-rule="evenodd" fill-opacity="1"/>
<polyline clip-path="url(#clip232)" style="stroke:#000000; stroke-linecap:round; stroke-linejoin:round; stroke-width:4; stroke-opacity:1; fill:none" points="661.656,755.091 661.656,1423.18 620.397,1423.18 620.397,755.091 661.656,755.091 "/>
<path clip-path="url(#clip232)" d="M506.933 718.4 L506.933 1423.18 L465.673 1423.18 L465.673 718.4 L506.933 718.4 L506.933 718.4  Z" fill="#3da44d" fill-rule="evenodd" fill-opacity="1"/>
<polyline clip-path="url(#clip232)" style="stroke:#000000; stroke-linecap:round; stroke-linejoin:round; stroke-width:4; stroke-opacity:1; fill:none" points="506.933,718.4 506.933,1423.18 465.673,1423.18 465.673,718.4 506.933,718.4 "/>
<path clip-path="url(#clip232)" d="M352.209 632.347 L352.209 1423.18 L310.949 1423.18 L310.949 632.347 L352.209 632.347 L352.209 632.347  Z" fill="#3da44d" fill-rule="evenodd" fill-opacity="1"/>
<polyline clip-path="url(#clip232)" style="stroke:#000000; stroke-linecap:round; stroke-linejoin:round; stroke-width:4; stroke-opacity:1; fill:none" points="352.209,632.347 352.209,1423.18 310.949,1423.18 310.949,632.347 352.209,632.347 "/>
<circle clip-path="url(#clip232)" style="fill:#3da44d; stroke:none; fill-opacity:0" cx="1724.09" cy="912.665" r="2"/>
<circle clip-path="url(#clip232)" style="fill:#3da44d; stroke:none; fill-opacity:0" cx="1569.37" cy="892.206" r="2"/>
<circle clip-path="url(#clip232)" style="fill:#3da44d; stroke:none; fill-opacity:0" cx="1414.65" cy="844.618" r="2"/>
<circle clip-path="url(#clip232)" style="fill:#3da44d; stroke:none; fill-opacity:0" cx="1259.92" cy="854.746" r="2"/>
<circle clip-path="url(#clip232)" style="fill:#3da44d; stroke:none; fill-opacity:0" cx="1105.2" cy="823.476" r="2"/>
<circle clip-path="url(#clip232)" style="fill:#3da44d; stroke:none; fill-opacity:0" cx="950.474" cy="808.132" r="2"/>
<circle clip-path="url(#clip232)" style="fill:#3da44d; stroke:none; fill-opacity:0" cx="795.75" cy="777.848" r="2"/>
<circle clip-path="url(#clip232)" style="fill:#3da44d; stroke:none; fill-opacity:0" cx="641.027" cy="755.091" r="2"/>
<circle clip-path="url(#clip232)" style="fill:#3da44d; stroke:none; fill-opacity:0" cx="486.303" cy="718.4" r="2"/>
<circle clip-path="url(#clip232)" style="fill:#3da44d; stroke:none; fill-opacity:0" cx="331.579" cy="632.347" r="2"/>
<path clip-path="url(#clip232)" d="M1724.09 972.679 L1724.09 852.65 L1724.09 1423.18 L1724.09 1423.18  Z" fill="#3da44d" fill-rule="evenodd" fill-opacity="1"/>
<polyline clip-path="url(#clip232)" style="stroke:#000000; stroke-linecap:round; stroke-linejoin:round; stroke-width:4; stroke-opacity:1; fill:none" points="1724.09,972.679 1724.09,852.65 "/>
<path clip-path="url(#clip232)" d="M1569.37 944.324 L1569.37 840.088 L1569.37 1423.18 L1569.37 1423.18  Z" fill="#3da44d" fill-rule="evenodd" fill-opacity="1"/>
<polyline clip-path="url(#clip232)" style="stroke:#000000; stroke-linecap:round; stroke-linejoin:round; stroke-width:4; stroke-opacity:1; fill:none" points="1569.37,944.324 1569.37,840.088 "/>
<path clip-path="url(#clip232)" d="M1414.65 898.016 L1414.65 791.219 L1414.65 1423.18 L1414.65 1423.18  Z" fill="#3da44d" fill-rule="evenodd" fill-opacity="1"/>
<polyline clip-path="url(#clip232)" style="stroke:#000000; stroke-linecap:round; stroke-linejoin:round; stroke-width:4; stroke-opacity:1; fill:none" points="1414.65,898.016 1414.65,791.219 "/>
<path clip-path="url(#clip232)" d="M1259.92 905.533 L1259.92 803.96 L1259.92 1423.18 L1259.92 1423.18  Z" fill="#3da44d" fill-rule="evenodd" fill-opacity="1"/>
<polyline clip-path="url(#clip232)" style="stroke:#000000; stroke-linecap:round; stroke-linejoin:round; stroke-width:4; stroke-opacity:1; fill:none" points="1259.92,905.533 1259.92,803.96 "/>
<path clip-path="url(#clip232)" d="M1105.2 872.68 L1105.2 774.273 L1105.2 1423.18 L1105.2 1423.18  Z" fill="#3da44d" fill-rule="evenodd" fill-opacity="1"/>
<polyline clip-path="url(#clip232)" style="stroke:#000000; stroke-linecap:round; stroke-linejoin:round; stroke-width:4; stroke-opacity:1; fill:none" points="1105.2,872.68 1105.2,774.273 "/>
<path clip-path="url(#clip232)" d="M950.474 855.644 L950.474 760.619 L950.474 1423.18 L950.474 1423.18  Z" fill="#3da44d" fill-rule="evenodd" fill-opacity="1"/>
<polyline clip-path="url(#clip232)" style="stroke:#000000; stroke-linecap:round; stroke-linejoin:round; stroke-width:4; stroke-opacity:1; fill:none" points="950.474,855.644 950.474,760.619 "/>
<path clip-path="url(#clip232)" d="M795.75 821.816 L795.75 733.879 L795.75 1423.18 L795.75 1423.18  Z" fill="#3da44d" fill-rule="evenodd" fill-opacity="1"/>
<polyline clip-path="url(#clip232)" style="stroke:#000000; stroke-linecap:round; stroke-linejoin:round; stroke-width:4; stroke-opacity:1; fill:none" points="795.75,821.816 795.75,733.879 "/>
<path clip-path="url(#clip232)" d="M641.027 796.21 L641.027 713.972 L641.027 1423.18 L641.027 1423.18  Z" fill="#3da44d" fill-rule="evenodd" fill-opacity="1"/>
<polyline clip-path="url(#clip232)" style="stroke:#000000; stroke-linecap:round; stroke-linejoin:round; stroke-width:4; stroke-opacity:1; fill:none" points="641.027,796.21 641.027,713.972 "/>
<path clip-path="url(#clip232)" d="M486.303 756.722 L486.303 680.077 L486.303 1423.18 L486.303 1423.18  Z" fill="#3da44d" fill-rule="evenodd" fill-opacity="1"/>
<polyline clip-path="url(#clip232)" style="stroke:#000000; stroke-linecap:round; stroke-linejoin:round; stroke-width:4; stroke-opacity:1; fill:none" points="486.303,756.722 486.303,680.077 "/>
<path clip-path="url(#clip232)" d="M331.579 671.888 L331.579 592.805 L331.579 1423.18 L331.579 1423.18  Z" fill="#3da44d" fill-rule="evenodd" fill-opacity="1"/>
<polyline clip-path="url(#clip232)" style="stroke:#000000; stroke-linecap:round; stroke-linejoin:round; stroke-width:4; stroke-opacity:1; fill:none" points="331.579,671.888 331.579,592.805 "/>
<circle clip-path="url(#clip232)" style="fill:#000000; stroke:none; fill-opacity:1" cx="1724.09" cy="972.679" r="2"/>
<circle clip-path="url(#clip232)" style="fill:#000000; stroke:none; fill-opacity:1" cx="1724.09" cy="852.65" r="2"/>
<circle clip-path="url(#clip232)" style="fill:#000000; stroke:none; fill-opacity:1" cx="1569.37" cy="944.324" r="2"/>
<circle clip-path="url(#clip232)" style="fill:#000000; stroke:none; fill-opacity:1" cx="1569.37" cy="840.088" r="2"/>
<circle clip-path="url(#clip232)" style="fill:#000000; stroke:none; fill-opacity:1" cx="1414.65" cy="898.016" r="2"/>
<circle clip-path="url(#clip232)" style="fill:#000000; stroke:none; fill-opacity:1" cx="1414.65" cy="791.219" r="2"/>
<circle clip-path="url(#clip232)" style="fill:#000000; stroke:none; fill-opacity:1" cx="1259.92" cy="905.533" r="2"/>
<circle clip-path="url(#clip232)" style="fill:#000000; stroke:none; fill-opacity:1" cx="1259.92" cy="803.96" r="2"/>
<circle clip-path="url(#clip232)" style="fill:#000000; stroke:none; fill-opacity:1" cx="1105.2" cy="872.68" r="2"/>
<circle clip-path="url(#clip232)" style="fill:#000000; stroke:none; fill-opacity:1" cx="1105.2" cy="774.273" r="2"/>
<circle clip-path="url(#clip232)" style="fill:#000000; stroke:none; fill-opacity:1" cx="950.474" cy="855.644" r="2"/>
<circle clip-path="url(#clip232)" style="fill:#000000; stroke:none; fill-opacity:1" cx="950.474" cy="760.619" r="2"/>
<circle clip-path="url(#clip232)" style="fill:#000000; stroke:none; fill-opacity:1" cx="795.75" cy="821.816" r="2"/>
<circle clip-path="url(#clip232)" style="fill:#000000; stroke:none; fill-opacity:1" cx="795.75" cy="733.879" r="2"/>
<circle clip-path="url(#clip232)" style="fill:#000000; stroke:none; fill-opacity:1" cx="641.027" cy="796.21" r="2"/>
<circle clip-path="url(#clip232)" style="fill:#000000; stroke:none; fill-opacity:1" cx="641.027" cy="713.972" r="2"/>
<circle clip-path="url(#clip232)" style="fill:#000000; stroke:none; fill-opacity:1" cx="486.303" cy="756.722" r="2"/>
<circle clip-path="url(#clip232)" style="fill:#000000; stroke:none; fill-opacity:1" cx="486.303" cy="680.077" r="2"/>
<circle clip-path="url(#clip232)" style="fill:#000000; stroke:none; fill-opacity:1" cx="331.579" cy="671.888" r="2"/>
<circle clip-path="url(#clip232)" style="fill:#000000; stroke:none; fill-opacity:1" cx="331.579" cy="592.805" r="2"/>
<path clip-path="url(#clip230)" d="M1989.42 374.156 L2352.76 374.156 L2352.76 166.796 L1989.42 166.796  Z" fill="#ffffff" fill-rule="evenodd" fill-opacity="1"/>
<polyline clip-path="url(#clip230)" style="stroke:#000000; stroke-linecap:round; stroke-linejoin:round; stroke-width:4; stroke-opacity:1; fill:none" points="1989.42,374.156 2352.76,374.156 2352.76,166.796 1989.42,166.796 1989.42,374.156 "/>
<path clip-path="url(#clip230)" d="M2013.12 239.372 L2155.31 239.372 L2155.31 197.9 L2013.12 197.9 L2013.12 239.372  Z" fill="#009af9" fill-rule="evenodd" fill-opacity="1"/>
<polyline clip-path="url(#clip230)" style="stroke:#000000; stroke-linecap:round; stroke-linejoin:round; stroke-width:4; stroke-opacity:1; fill:none" points="2013.12,239.372 2155.31,239.372 2155.31,197.9 2013.12,197.9 2013.12,239.372 "/>
<path clip-path="url(#clip230)" d="M2183.69 219.411 L2183.69 232.073 L2191.19 232.073 Q2194.96 232.073 2196.77 230.522 Q2198.59 228.948 2198.59 225.731 Q2198.59 222.49 2196.77 220.962 Q2194.96 219.411 2191.19 219.411 L2183.69 219.411 M2183.69 205.198 L2183.69 215.615 L2190.61 215.615 Q2194.03 215.615 2195.7 214.342 Q2197.39 213.045 2197.39 210.407 Q2197.39 207.791 2195.7 206.495 Q2194.03 205.198 2190.61 205.198 L2183.69 205.198 M2179.01 201.356 L2190.96 201.356 Q2196.3 201.356 2199.2 203.578 Q2202.09 205.8 2202.09 209.897 Q2202.09 213.069 2200.61 214.944 Q2199.13 216.819 2196.26 217.282 Q2199.71 218.022 2201.6 220.383 Q2203.53 222.721 2203.53 226.24 Q2203.53 230.869 2200.38 233.393 Q2197.23 235.916 2191.42 235.916 L2179.01 235.916 L2179.01 201.356 Z" fill="#000000" fill-rule="nonzero" fill-opacity="1" /><path clip-path="url(#clip230)" d="M2227.92 219.712 Q2229.43 220.221 2230.84 221.888 Q2232.28 223.555 2233.71 226.471 L2238.46 235.916 L2233.43 235.916 L2229.01 227.05 Q2227.3 223.578 2225.68 222.444 Q2224.08 221.309 2221.3 221.309 L2216.21 221.309 L2216.21 235.916 L2211.53 235.916 L2211.53 201.356 L2222.09 201.356 Q2228.02 201.356 2230.93 203.833 Q2233.85 206.309 2233.85 211.309 Q2233.85 214.573 2232.32 216.726 Q2230.82 218.879 2227.92 219.712 M2216.21 205.198 L2216.21 217.467 L2222.09 217.467 Q2225.47 217.467 2227.18 215.916 Q2228.92 214.342 2228.92 211.309 Q2228.92 208.277 2227.18 206.749 Q2225.47 205.198 2222.09 205.198 L2216.21 205.198 Z" fill="#000000" fill-rule="nonzero" fill-opacity="1" /><path clip-path="url(#clip230)" d="M2244.47 201.356 L2249.15 201.356 L2249.15 235.916 L2244.47 235.916 L2244.47 201.356 Z" fill="#000000" fill-rule="nonzero" fill-opacity="1" /><path clip-path="url(#clip230)" d="M2253.66 201.356 L2282.9 201.356 L2282.9 205.291 L2270.63 205.291 L2270.63 235.916 L2265.93 235.916 L2265.93 205.291 L2253.66 205.291 L2253.66 201.356 Z" fill="#000000" fill-rule="nonzero" fill-opacity="1" /><path clip-path="url(#clip230)" d="M2308.13 202.49 L2308.13 207.05 Q2305.47 205.777 2303.11 205.152 Q2300.75 204.527 2298.55 204.527 Q2294.73 204.527 2292.65 206.008 Q2290.59 207.49 2290.59 210.221 Q2290.59 212.513 2291.95 213.694 Q2293.34 214.851 2297.18 215.569 L2300.01 216.147 Q2305.24 217.143 2307.71 219.666 Q2310.21 222.166 2310.21 226.379 Q2310.21 231.402 2306.84 233.994 Q2303.48 236.587 2296.97 236.587 Q2294.52 236.587 2291.74 236.031 Q2288.99 235.476 2286.02 234.388 L2286.02 229.573 Q2288.87 231.17 2291.6 231.981 Q2294.34 232.791 2296.97 232.791 Q2300.98 232.791 2303.15 231.217 Q2305.33 229.643 2305.33 226.726 Q2305.33 224.18 2303.76 222.744 Q2302.21 221.309 2298.64 220.592 L2295.79 220.036 Q2290.56 218.995 2288.22 216.772 Q2285.89 214.55 2285.89 210.592 Q2285.89 206.008 2289.1 203.37 Q2292.34 200.731 2298.02 200.731 Q2300.45 200.731 2302.97 201.171 Q2305.49 201.61 2308.13 202.49 Z" fill="#000000" fill-rule="nonzero" fill-opacity="1" /><path clip-path="url(#clip230)" d="M2013.12 291.212 L2155.31 291.212 L2155.31 249.74 L2013.12 249.74 L2013.12 291.212  Z" fill="#e26f46" fill-rule="evenodd" fill-opacity="1"/>
<polyline clip-path="url(#clip230)" style="stroke:#000000; stroke-linecap:round; stroke-linejoin:round; stroke-width:4; stroke-opacity:1; fill:none" points="2013.12,291.212 2155.31,291.212 2155.31,249.74 2013.12,249.74 2013.12,291.212 "/>
<path clip-path="url(#clip230)" d="M2206.88 255.858 L2206.88 260.788 Q2204.52 258.589 2201.84 257.501 Q2199.17 256.413 2196.16 256.413 Q2190.24 256.413 2187.09 260.048 Q2183.94 263.659 2183.94 270.51 Q2183.94 277.339 2187.09 280.973 Q2190.24 284.584 2196.16 284.584 Q2199.17 284.584 2201.84 283.496 Q2204.52 282.409 2206.88 280.209 L2206.88 285.094 Q2204.43 286.76 2201.67 287.594 Q2198.94 288.427 2195.89 288.427 Q2188.04 288.427 2183.53 283.635 Q2179.01 278.821 2179.01 270.51 Q2179.01 262.177 2183.53 257.386 Q2188.04 252.571 2195.89 252.571 Q2198.99 252.571 2201.72 253.404 Q2204.47 254.214 2206.88 255.858 Z" fill="#000000" fill-rule="nonzero" fill-opacity="1" /><path clip-path="url(#clip230)" d="M2218.78 257.038 L2218.78 283.913 L2224.43 283.913 Q2231.58 283.913 2234.89 280.672 Q2238.22 277.432 2238.22 270.441 Q2238.22 263.497 2234.89 260.279 Q2231.58 257.038 2224.43 257.038 L2218.78 257.038 M2214.1 253.196 L2223.71 253.196 Q2233.76 253.196 2238.46 257.386 Q2243.15 261.552 2243.15 270.441 Q2243.15 279.376 2238.43 283.566 Q2233.71 287.756 2223.71 287.756 L2214.1 287.756 L2214.1 253.196 Z" fill="#000000" fill-rule="nonzero" fill-opacity="1" /><path clip-path="url(#clip230)" d="M2267 271.552 Q2268.5 272.061 2269.91 273.728 Q2271.35 275.395 2272.78 278.311 L2277.53 287.756 L2272.51 287.756 L2268.09 278.89 Q2266.37 275.418 2264.75 274.284 Q2263.15 273.149 2260.38 273.149 L2255.28 273.149 L2255.28 287.756 L2250.61 287.756 L2250.61 253.196 L2261.16 253.196 Q2267.09 253.196 2270.01 255.673 Q2272.92 258.149 2272.92 263.149 Q2272.92 266.413 2271.4 268.566 Q2269.89 270.719 2267 271.552 M2255.28 257.038 L2255.28 269.307 L2261.16 269.307 Q2264.54 269.307 2266.26 267.756 Q2267.99 266.182 2267.99 263.149 Q2267.99 260.117 2266.26 258.589 Q2264.54 257.038 2261.16 257.038 L2255.28 257.038 Z" fill="#000000" fill-rule="nonzero" fill-opacity="1" /><path clip-path="url(#clip230)" d="M2303.41 273.728 L2303.41 275.811 L2283.83 275.811 Q2284.1 280.209 2286.46 282.524 Q2288.85 284.816 2293.09 284.816 Q2295.54 284.816 2297.83 284.214 Q2300.15 283.612 2302.41 282.409 L2302.41 286.436 Q2300.12 287.408 2297.71 287.918 Q2295.31 288.427 2292.83 288.427 Q2286.63 288.427 2282.99 284.816 Q2279.38 281.205 2279.38 275.047 Q2279.38 268.682 2282.81 264.955 Q2286.26 261.205 2292.09 261.205 Q2297.32 261.205 2300.35 264.585 Q2303.41 267.941 2303.41 273.728 M2299.15 272.478 Q2299.1 268.983 2297.18 266.899 Q2295.28 264.816 2292.14 264.816 Q2288.57 264.816 2286.42 266.83 Q2284.29 268.844 2283.96 272.501 L2299.15 272.478 Z" fill="#000000" fill-rule="nonzero" fill-opacity="1" /><path clip-path="url(#clip230)" d="M2329.06 262.825 L2329.06 266.807 Q2327.25 265.811 2325.42 265.325 Q2323.62 264.816 2321.77 264.816 Q2317.62 264.816 2315.33 267.455 Q2313.04 270.071 2313.04 274.816 Q2313.04 279.561 2315.33 282.2 Q2317.62 284.816 2321.77 284.816 Q2323.62 284.816 2325.42 284.33 Q2327.25 283.821 2329.06 282.825 L2329.06 286.76 Q2327.27 287.594 2325.35 288.01 Q2323.46 288.427 2321.3 288.427 Q2315.45 288.427 2312 284.746 Q2308.55 281.066 2308.55 274.816 Q2308.55 268.473 2312.02 264.839 Q2315.52 261.205 2321.58 261.205 Q2323.55 261.205 2325.42 261.622 Q2327.3 262.015 2329.06 262.825 Z" fill="#000000" fill-rule="nonzero" fill-opacity="1" /><path clip-path="url(#clip230)" d="M2013.12 343.052 L2155.31 343.052 L2155.31 301.58 L2013.12 301.58 L2013.12 343.052  Z" fill="#3da44d" fill-rule="evenodd" fill-opacity="1"/>
<polyline clip-path="url(#clip230)" style="stroke:#000000; stroke-linecap:round; stroke-linejoin:round; stroke-width:4; stroke-opacity:1; fill:none" points="2013.12,343.052 2155.31,343.052 2155.31,301.58 2013.12,301.58 2013.12,343.052 "/>
<path clip-path="url(#clip230)" d="M2206.88 307.698 L2206.88 312.628 Q2204.52 310.429 2201.84 309.341 Q2199.17 308.253 2196.16 308.253 Q2190.24 308.253 2187.09 311.888 Q2183.94 315.499 2183.94 322.35 Q2183.94 329.179 2187.09 332.813 Q2190.24 336.424 2196.16 336.424 Q2199.17 336.424 2201.84 335.336 Q2204.52 334.249 2206.88 332.049 L2206.88 336.934 Q2204.43 338.6 2201.67 339.434 Q2198.94 340.267 2195.89 340.267 Q2188.04 340.267 2183.53 335.475 Q2179.01 330.661 2179.01 322.35 Q2179.01 314.017 2183.53 309.226 Q2188.04 304.411 2195.89 304.411 Q2198.99 304.411 2201.72 305.244 Q2204.47 306.054 2206.88 307.698 Z" fill="#000000" fill-rule="nonzero" fill-opacity="1" /><path clip-path="url(#clip230)" d="M2234.82 306.17 L2234.82 310.73 Q2232.16 309.457 2229.8 308.832 Q2227.44 308.207 2225.24 308.207 Q2221.42 308.207 2219.34 309.688 Q2217.28 311.17 2217.28 313.901 Q2217.28 316.193 2218.64 317.374 Q2220.03 318.531 2223.87 319.249 L2226.7 319.827 Q2231.93 320.823 2234.4 323.346 Q2236.9 325.846 2236.9 330.059 Q2236.9 335.082 2233.53 337.674 Q2230.17 340.267 2223.66 340.267 Q2221.21 340.267 2218.43 339.711 Q2215.68 339.156 2212.72 338.068 L2212.72 333.253 Q2215.56 334.85 2218.29 335.661 Q2221.03 336.471 2223.66 336.471 Q2227.67 336.471 2229.84 334.897 Q2232.02 333.323 2232.02 330.406 Q2232.02 327.86 2230.45 326.424 Q2228.9 324.989 2225.33 324.272 L2222.48 323.716 Q2217.25 322.675 2214.91 320.452 Q2212.58 318.23 2212.58 314.272 Q2212.58 309.688 2215.79 307.05 Q2219.03 304.411 2224.71 304.411 Q2227.14 304.411 2229.66 304.851 Q2232.18 305.29 2234.82 306.17 Z" fill="#000000" fill-rule="nonzero" fill-opacity="1" /><path clip-path="url(#clip230)" d="M2248.87 308.878 L2248.87 335.753 L2254.52 335.753 Q2261.67 335.753 2264.98 332.512 Q2268.32 329.272 2268.32 322.281 Q2268.32 315.337 2264.98 312.119 Q2261.67 308.878 2254.52 308.878 L2248.87 308.878 M2244.2 305.036 L2253.8 305.036 Q2263.85 305.036 2268.55 309.226 Q2273.25 313.392 2273.25 322.281 Q2273.25 331.216 2268.53 335.406 Q2263.8 339.596 2253.8 339.596 L2244.2 339.596 L2244.2 305.036 Z" fill="#000000" fill-rule="nonzero" fill-opacity="1" /><path clip-path="url(#clip230)" d="M2280.7 305.036 L2285.38 305.036 L2285.38 339.596 L2280.7 339.596 L2280.7 305.036 Z" fill="#000000" fill-rule="nonzero" fill-opacity="1" /></svg>
