<?xml version="1.0" encoding="utf-8"?>
<svg xmlns="http://www.w3.org/2000/svg" xmlns:xlink="http://www.w3.org/1999/xlink" width="600" height="400" viewBox="0 0 2400 1600">
<defs>
  <clipPath id="clip610">
    <rect x="0" y="0" width="2400" height="1600"/>
  </clipPath>
</defs>
<path clip-path="url(#clip610)" d="M0 1600 L2400 1600 L2400 8.88178e-14 L0 8.88178e-14  Z" fill="#ffffff" fill-rule="evenodd" fill-opacity="1"/>
<defs>
  <clipPath id="clip611">
    <rect x="480" y="0" width="1681" height="1600"/>
  </clipPath>
</defs>
<path clip-path="url(#clip610)" d="M219.866 1423.18 L2352.76 1423.18 L2352.76 123.472 L219.866 123.472  Z" fill="#ffffff" fill-rule="evenodd" fill-opacity="1"/>
<defs>
  <clipPath id="clip612">
    <rect x="219" y="123" width="2134" height="1301"/>
  </clipPath>
</defs>
<polyline clip-path="url(#clip612)" style="stroke:#000000; stroke-linecap:round; stroke-linejoin:round; stroke-width:2; stroke-opacity:0.1; fill:none" points="2157.96,1423.18 2157.96,123.472 "/>
<polyline clip-path="url(#clip612)" style="stroke:#000000; stroke-linecap:round; stroke-linejoin:round; stroke-width:2; stroke-opacity:0.1; fill:none" points="1964.26,1423.18 1964.26,123.472 "/>
<polyline clip-path="url(#clip612)" style="stroke:#000000; stroke-linecap:round; stroke-linejoin:round; stroke-width:2; stroke-opacity:0.1; fill:none" points="1770.56,1423.18 1770.56,123.472 "/>
<polyline clip-path="url(#clip612)" style="stroke:#000000; stroke-linecap:round; stroke-linejoin:round; stroke-width:2; stroke-opacity:0.1; fill:none" points="1576.86,1423.18 1576.86,123.472 "/>
<polyline clip-path="url(#clip612)" style="stroke:#000000; stroke-linecap:round; stroke-linejoin:round; stroke-width:2; stroke-opacity:0.1; fill:none" points="1383.16,1423.18 1383.16,123.472 "/>
<polyline clip-path="url(#clip612)" style="stroke:#000000; stroke-linecap:round; stroke-linejoin:round; stroke-width:2; stroke-opacity:0.1; fill:none" points="1189.46,1423.18 1189.46,123.472 "/>
<polyline clip-path="url(#clip612)" style="stroke:#000000; stroke-linecap:round; stroke-linejoin:round; stroke-width:2; stroke-opacity:0.1; fill:none" points="995.76,1423.18 995.76,123.472 "/>
<polyline clip-path="url(#clip612)" style="stroke:#000000; stroke-linecap:round; stroke-linejoin:round; stroke-width:2; stroke-opacity:0.1; fill:none" points="802.06,1423.18 802.06,123.472 "/>
<polyline clip-path="url(#clip612)" style="stroke:#000000; stroke-linecap:round; stroke-linejoin:round; stroke-width:2; stroke-opacity:0.1; fill:none" points="608.36,1423.18 608.36,123.472 "/>
<polyline clip-path="url(#clip612)" style="stroke:#000000; stroke-linecap:round; stroke-linejoin:round; stroke-width:2; stroke-opacity:0.1; fill:none" points="414.659,1423.18 414.659,123.472 "/>
<polyline clip-path="url(#clip612)" style="stroke:#000000; stroke-linecap:round; stroke-linejoin:round; stroke-width:2; stroke-opacity:0.1; fill:none" points="2352.76,1423.18 219.866,1423.18 "/>
<polyline clip-path="url(#clip612)" style="stroke:#000000; stroke-linecap:round; stroke-linejoin:round; stroke-width:2; stroke-opacity:0.1; fill:none" points="2352.76,1128.13 219.866,1128.13 "/>
<polyline clip-path="url(#clip612)" style="stroke:#000000; stroke-linecap:round; stroke-linejoin:round; stroke-width:2; stroke-opacity:0.1; fill:none" points="2352.76,833.071 219.866,833.071 "/>
<polyline clip-path="url(#clip612)" style="stroke:#000000; stroke-linecap:round; stroke-linejoin:round; stroke-width:2; stroke-opacity:0.1; fill:none" points="2352.76,538.016 219.866,538.016 "/>
<polyline clip-path="url(#clip612)" style="stroke:#000000; stroke-linecap:round; stroke-linejoin:round; stroke-width:2; stroke-opacity:0.1; fill:none" points="2352.76,242.961 219.866,242.961 "/>
<polyline clip-path="url(#clip610)" style="stroke:#000000; stroke-linecap:round; stroke-linejoin:round; stroke-width:4; stroke-opacity:1; fill:none" points="2352.76,1423.18 219.866,1423.18 "/>
<polyline clip-path="url(#clip610)" style="stroke:#000000; stroke-linecap:round; stroke-linejoin:round; stroke-width:4; stroke-opacity:1; fill:none" points="2157.96,1423.18 2157.96,1404.28 "/>
<polyline clip-path="url(#clip610)" style="stroke:#000000; stroke-linecap:round; stroke-linejoin:round; stroke-width:4; stroke-opacity:1; fill:none" points="1964.26,1423.18 1964.26,1404.28 "/>
<polyline clip-path="url(#clip610)" style="stroke:#000000; stroke-linecap:round; stroke-linejoin:round; stroke-width:4; stroke-opacity:1; fill:none" points="1770.56,1423.18 1770.56,1404.28 "/>
<polyline clip-path="url(#clip610)" style="stroke:#000000; stroke-linecap:round; stroke-linejoin:round; stroke-width:4; stroke-opacity:1; fill:none" points="1576.86,1423.18 1576.86,1404.28 "/>
<polyline clip-path="url(#clip610)" style="stroke:#000000; stroke-linecap:round; stroke-linejoin:round; stroke-width:4; stroke-opacity:1; fill:none" points="1383.16,1423.18 1383.16,1404.28 "/>
<polyline clip-path="url(#clip610)" style="stroke:#000000; stroke-linecap:round; stroke-linejoin:round; stroke-width:4; stroke-opacity:1; fill:none" points="1189.46,1423.18 1189.46,1404.28 "/>
<polyline clip-path="url(#clip610)" style="stroke:#000000; stroke-linecap:round; stroke-linejoin:round; stroke-width:4; stroke-opacity:1; fill:none" points="995.76,1423.18 995.76,1404.28 "/>
<polyline clip-path="url(#clip610)" style="stroke:#000000; stroke-linecap:round; stroke-linejoin:round; stroke-width:4; stroke-opacity:1; fill:none" points="802.06,1423.18 802.06,1404.28 "/>
<polyline clip-path="url(#clip610)" style="stroke:#000000; stroke-linecap:round; stroke-linejoin:round; stroke-width:4; stroke-opacity:1; fill:none" points="608.36,1423.18 608.36,1404.28 "/>
<polyline clip-path="url(#clip610)" style="stroke:#000000; stroke-linecap:round; stroke-linejoin:round; stroke-width:4; stroke-opacity:1; fill:none" points="414.659,1423.18 414.659,1404.28 "/>
<path clip-path="url(#clip610)" d="M2148.24 1451.02 L2166.6 1451.02 L2166.6 1454.96 L2152.52 1454.96 L2152.52 1463.43 Q2153.54 1463.08 2154.56 1462.92 Q2155.58 1462.73 2156.6 1462.73 Q2162.38 1462.73 2165.76 1465.9 Q2169.14 1469.08 2169.14 1474.49 Q2169.14 1480.07 2165.67 1483.17 Q2162.2 1486.25 2155.88 1486.25 Q2153.7 1486.25 2151.44 1485.88 Q2149.19 1485.51 2146.78 1484.77 L2146.78 1480.07 Q2148.87 1481.2 2151.09 1481.76 Q2153.31 1482.32 2155.79 1482.32 Q2159.79 1482.32 2162.13 1480.21 Q2164.47 1478.1 2164.47 1474.49 Q2164.47 1470.88 2162.13 1468.77 Q2159.79 1466.67 2155.79 1466.67 Q2153.91 1466.67 2152.04 1467.08 Q2150.19 1467.5 2148.24 1468.38 L2148.24 1451.02 Z" fill="#000000" fill-rule="nonzero" fill-opacity="1" /><path clip-path="url(#clip610)" d="M1939.45 1481.64 L1947.09 1481.64 L1947.09 1455.28 L1938.78 1456.95 L1938.78 1452.69 L1947.04 1451.02 L1951.72 1451.02 L1951.72 1481.64 L1959.36 1481.64 L1959.36 1485.58 L1939.45 1485.58 L1939.45 1481.64 Z" fill="#000000" fill-rule="nonzero" fill-opacity="1" /><path clip-path="url(#clip610)" d="M1968.85 1451.02 L1987.2 1451.02 L1987.2 1454.96 L1973.13 1454.96 L1973.13 1463.43 Q1974.15 1463.08 1975.17 1462.92 Q1976.18 1462.73 1977.2 1462.73 Q1982.99 1462.73 1986.37 1465.9 Q1989.75 1469.08 1989.75 1474.49 Q1989.75 1480.07 1986.28 1483.17 Q1982.8 1486.25 1976.48 1486.25 Q1974.31 1486.25 1972.04 1485.88 Q1969.79 1485.51 1967.39 1484.77 L1967.39 1480.07 Q1969.47 1481.2 1971.69 1481.76 Q1973.92 1482.32 1976.39 1482.32 Q1980.4 1482.32 1982.73 1480.21 Q1985.07 1478.1 1985.07 1474.49 Q1985.07 1470.88 1982.73 1468.77 Q1980.4 1466.67 1976.39 1466.67 Q1974.52 1466.67 1972.64 1467.08 Q1970.79 1467.5 1968.85 1468.38 L1968.85 1451.02 Z" fill="#000000" fill-rule="nonzero" fill-opacity="1" /><path clip-path="url(#clip610)" d="M1749.83 1481.64 L1766.15 1481.64 L1766.15 1485.58 L1744.21 1485.58 L1744.21 1481.64 Q1746.87 1478.89 1751.45 1474.26 Q1756.06 1469.61 1757.24 1468.27 Q1759.49 1465.74 1760.37 1464.01 Q1761.27 1462.25 1761.27 1460.56 Q1761.27 1457.8 1759.32 1456.07 Q1757.4 1454.33 1754.3 1454.33 Q1752.1 1454.33 1749.65 1455.09 Q1747.22 1455.86 1744.44 1457.41 L1744.44 1452.69 Q1747.26 1451.55 1749.72 1450.97 Q1752.17 1450.39 1754.21 1450.39 Q1759.58 1450.39 1762.77 1453.08 Q1765.97 1455.77 1765.97 1460.26 Q1765.97 1462.39 1765.16 1464.31 Q1764.37 1466.2 1762.26 1468.8 Q1761.68 1469.47 1758.58 1472.69 Q1755.48 1475.88 1749.83 1481.64 Z" fill="#000000" fill-rule="nonzero" fill-opacity="1" /><path clip-path="url(#clip610)" d="M1776.01 1451.02 L1794.37 1451.02 L1794.37 1454.96 L1780.3 1454.96 L1780.3 1463.43 Q1781.31 1463.08 1782.33 1462.92 Q1783.35 1462.73 1784.37 1462.73 Q1790.16 1462.73 1793.54 1465.9 Q1796.92 1469.08 1796.92 1474.49 Q1796.92 1480.07 1793.44 1483.17 Q1789.97 1486.25 1783.65 1486.25 Q1781.48 1486.25 1779.21 1485.88 Q1776.96 1485.51 1774.56 1484.77 L1774.56 1480.07 Q1776.64 1481.2 1778.86 1481.76 Q1781.08 1482.32 1783.56 1482.32 Q1787.56 1482.32 1789.9 1480.21 Q1792.24 1478.1 1792.24 1474.49 Q1792.24 1470.88 1789.9 1468.77 Q1787.56 1466.67 1783.56 1466.67 Q1781.68 1466.67 1779.81 1467.08 Q1777.96 1467.5 1776.01 1468.38 L1776.01 1451.02 Z" fill="#000000" fill-rule="nonzero" fill-opacity="1" /><path clip-path="url(#clip610)" d="M1566.2 1466.95 Q1569.56 1467.66 1571.43 1469.93 Q1573.33 1472.2 1573.33 1475.53 Q1573.33 1480.65 1569.81 1483.45 Q1566.29 1486.25 1559.81 1486.25 Q1557.64 1486.25 1555.32 1485.81 Q1553.03 1485.39 1550.58 1484.54 L1550.58 1480.02 Q1552.52 1481.16 1554.84 1481.74 Q1557.15 1482.32 1559.67 1482.32 Q1564.07 1482.32 1566.36 1480.58 Q1568.68 1478.84 1568.68 1475.53 Q1568.68 1472.48 1566.53 1470.77 Q1564.4 1469.03 1560.58 1469.03 L1556.55 1469.03 L1556.55 1465.19 L1560.76 1465.19 Q1564.21 1465.19 1566.04 1463.82 Q1567.87 1462.43 1567.87 1459.84 Q1567.87 1457.18 1565.97 1455.77 Q1564.1 1454.33 1560.58 1454.33 Q1558.66 1454.33 1556.46 1454.75 Q1554.26 1455.16 1551.62 1456.04 L1551.62 1451.88 Q1554.28 1451.14 1556.6 1450.77 Q1558.93 1450.39 1560.99 1450.39 Q1566.32 1450.39 1569.42 1452.83 Q1572.52 1455.23 1572.52 1459.35 Q1572.52 1462.22 1570.88 1464.21 Q1569.23 1466.18 1566.2 1466.95 Z" fill="#000000" fill-rule="nonzero" fill-opacity="1" /><path clip-path="url(#clip610)" d="M1582.24 1451.02 L1600.6 1451.02 L1600.6 1454.96 L1586.53 1454.96 L1586.53 1463.43 Q1587.54 1463.08 1588.56 1462.92 Q1589.58 1462.73 1590.6 1462.73 Q1596.39 1462.73 1599.77 1465.9 Q1603.15 1469.08 1603.15 1474.49 Q1603.15 1480.07 1599.67 1483.17 Q1596.2 1486.25 1589.88 1486.25 Q1587.71 1486.25 1585.44 1485.88 Q1583.19 1485.51 1580.79 1484.77 L1580.79 1480.07 Q1582.87 1481.2 1585.09 1481.76 Q1587.31 1482.32 1589.79 1482.32 Q1593.79 1482.32 1596.13 1480.21 Q1598.47 1478.1 1598.47 1474.49 Q1598.47 1470.88 1596.13 1468.77 Q1593.79 1466.67 1589.79 1466.67 Q1587.91 1466.67 1586.04 1467.08 Q1584.19 1467.5 1582.24 1468.38 L1582.24 1451.02 Z" fill="#000000" fill-rule="nonzero" fill-opacity="1" /><path clip-path="url(#clip610)" d="M1371.83 1455.09 L1360.02 1473.54 L1371.83 1473.54 L1371.83 1455.09 M1370.6 1451.02 L1376.48 1451.02 L1376.48 1473.54 L1381.41 1473.54 L1381.41 1477.43 L1376.48 1477.43 L1376.48 1485.58 L1371.83 1485.58 L1371.83 1477.43 L1356.23 1477.43 L1356.23 1472.92 L1370.6 1451.02 Z" fill="#000000" fill-rule="nonzero" fill-opacity="1" /><path clip-path="url(#clip610)" d="M1389.19 1451.02 L1407.55 1451.02 L1407.55 1454.96 L1393.47 1454.96 L1393.47 1463.43 Q1394.49 1463.08 1395.51 1462.92 Q1396.53 1462.73 1397.55 1462.73 Q1403.33 1462.73 1406.71 1465.9 Q1410.09 1469.08 1410.09 1474.49 Q1410.09 1480.07 1406.62 1483.17 Q1403.15 1486.25 1396.83 1486.25 Q1394.65 1486.25 1392.39 1485.88 Q1390.14 1485.51 1387.73 1484.77 L1387.73 1480.07 Q1389.82 1481.2 1392.04 1481.76 Q1394.26 1482.32 1396.74 1482.32 Q1400.74 1482.32 1403.08 1480.21 Q1405.42 1478.1 1405.42 1474.49 Q1405.42 1470.88 1403.08 1468.77 Q1400.74 1466.67 1396.74 1466.67 Q1394.86 1466.67 1392.99 1467.08 Q1391.14 1467.5 1389.19 1468.38 L1389.19 1451.02 Z" fill="#000000" fill-rule="nonzero" fill-opacity="1" /><path clip-path="url(#clip610)" d="M1164.66 1451.02 L1183.01 1451.02 L1183.01 1454.96 L1168.94 1454.96 L1168.94 1463.43 Q1169.96 1463.08 1170.98 1462.92 Q1172 1462.73 1173.01 1462.73 Q1178.8 1462.73 1182.18 1465.9 Q1185.56 1469.08 1185.56 1474.49 Q1185.56 1480.07 1182.09 1483.17 Q1178.62 1486.25 1172.3 1486.25 Q1170.12 1486.25 1167.85 1485.88 Q1165.61 1485.51 1163.2 1484.77 L1163.2 1480.07 Q1165.28 1481.2 1167.5 1481.76 Q1169.73 1482.32 1172.2 1482.32 Q1176.21 1482.32 1178.55 1480.21 Q1180.88 1478.1 1180.88 1474.49 Q1180.88 1470.88 1178.55 1468.77 Q1176.21 1466.67 1172.2 1466.67 Q1170.33 1466.67 1168.45 1467.08 Q1166.6 1467.5 1164.66 1468.38 L1164.66 1451.02 Z" fill="#000000" fill-rule="nonzero" fill-opacity="1" /><path clip-path="url(#clip610)" d="M1194.82 1451.02 L1213.18 1451.02 L1213.18 1454.96 L1199.1 1454.96 L1199.1 1463.43 Q1200.12 1463.08 1201.14 1462.92 Q1202.16 1462.73 1203.18 1462.73 Q1208.96 1462.73 1212.34 1465.9 Q1215.72 1469.08 1215.72 1474.49 Q1215.72 1480.07 1212.25 1483.17 Q1208.78 1486.25 1202.46 1486.25 Q1200.28 1486.25 1198.01 1485.88 Q1195.77 1485.51 1193.36 1484.77 L1193.36 1480.07 Q1195.44 1481.2 1197.67 1481.76 Q1199.89 1482.32 1202.37 1482.32 Q1206.37 1482.32 1208.71 1480.21 Q1211.05 1478.1 1211.05 1474.49 Q1211.05 1470.88 1208.71 1468.77 Q1206.37 1466.67 1202.37 1466.67 Q1200.49 1466.67 1198.62 1467.08 Q1196.76 1467.5 1194.82 1468.38 L1194.82 1451.02 Z" fill="#000000" fill-rule="nonzero" fill-opacity="1" /><path clip-path="url(#clip610)" d="M981.663 1466.44 Q978.515 1466.44 976.663 1468.59 Q974.835 1470.74 974.835 1474.49 Q974.835 1478.22 976.663 1480.39 Q978.515 1482.55 981.663 1482.55 Q984.811 1482.55 986.64 1480.39 Q988.492 1478.22 988.492 1474.49 Q988.492 1470.74 986.64 1468.59 Q984.811 1466.44 981.663 1466.44 M990.946 1451.78 L990.946 1456.04 Q989.186 1455.21 987.381 1454.77 Q985.598 1454.33 983.839 1454.33 Q979.21 1454.33 976.756 1457.45 Q974.325 1460.58 973.978 1466.9 Q975.344 1464.89 977.404 1463.82 Q979.464 1462.73 981.941 1462.73 Q987.149 1462.73 990.159 1465.9 Q993.191 1469.05 993.191 1474.49 Q993.191 1479.82 990.043 1483.03 Q986.895 1486.25 981.663 1486.25 Q975.668 1486.25 972.497 1481.67 Q969.325 1477.06 969.325 1468.33 Q969.325 1460.14 973.214 1455.28 Q977.103 1450.39 983.654 1450.39 Q985.413 1450.39 987.196 1450.74 Q989.001 1451.09 990.946 1451.78 Z" fill="#000000" fill-rule="nonzero" fill-opacity="1" /><path clip-path="url(#clip610)" d="M1001.29 1451.02 L1019.65 1451.02 L1019.65 1454.96 L1005.58 1454.96 L1005.58 1463.43 Q1006.59 1463.08 1007.61 1462.92 Q1008.63 1462.73 1009.65 1462.73 Q1015.44 1462.73 1018.82 1465.9 Q1022.2 1469.08 1022.2 1474.49 Q1022.2 1480.07 1018.72 1483.17 Q1015.25 1486.25 1008.93 1486.25 Q1006.76 1486.25 1004.49 1485.88 Q1002.24 1485.51 999.834 1484.77 L999.834 1480.07 Q1001.92 1481.2 1004.14 1481.76 Q1006.36 1482.32 1008.84 1482.32 Q1012.84 1482.32 1015.18 1480.21 Q1017.52 1478.1 1017.52 1474.49 Q1017.52 1470.88 1015.18 1468.77 Q1012.84 1466.67 1008.84 1466.67 Q1006.96 1466.67 1005.09 1467.08 Q1003.24 1467.5 1001.29 1468.38 L1001.29 1451.02 Z" fill="#000000" fill-rule="nonzero" fill-opacity="1" /><path clip-path="url(#clip610)" d="M775.914 1451.02 L798.136 1451.02 L798.136 1453.01 L785.59 1485.58 L780.706 1485.58 L792.511 1454.96 L775.914 1454.96 L775.914 1451.02 Z" fill="#000000" fill-rule="nonzero" fill-opacity="1" /><path clip-path="url(#clip610)" d="M807.303 1451.02 L825.659 1451.02 L825.659 1454.96 L811.585 1454.96 L811.585 1463.43 Q812.604 1463.08 813.622 1462.92 Q814.641 1462.73 815.659 1462.73 Q821.446 1462.73 824.826 1465.9 Q828.206 1469.08 828.206 1474.49 Q828.206 1480.07 824.734 1483.17 Q821.261 1486.25 814.942 1486.25 Q812.766 1486.25 810.497 1485.88 Q808.252 1485.51 805.845 1484.77 L805.845 1480.07 Q807.928 1481.2 810.15 1481.76 Q812.372 1482.32 814.849 1482.32 Q818.854 1482.32 821.192 1480.21 Q823.53 1478.1 823.53 1474.49 Q823.53 1470.88 821.192 1468.77 Q818.854 1466.67 814.849 1466.67 Q812.974 1466.67 811.099 1467.08 Q809.247 1467.5 807.303 1468.38 L807.303 1451.02 Z" fill="#000000" fill-rule="nonzero" fill-opacity="1" /><path clip-path="url(#clip610)" d="M593.73 1469.17 Q590.397 1469.17 588.475 1470.95 Q586.577 1472.73 586.577 1475.86 Q586.577 1478.98 588.475 1480.77 Q590.397 1482.55 593.73 1482.55 Q597.063 1482.55 598.985 1480.77 Q600.906 1478.96 600.906 1475.86 Q600.906 1472.73 598.985 1470.95 Q597.087 1469.17 593.73 1469.17 M589.054 1467.18 Q586.045 1466.44 584.355 1464.38 Q582.688 1462.32 582.688 1459.35 Q582.688 1455.21 585.628 1452.8 Q588.591 1450.39 593.73 1450.39 Q598.892 1450.39 601.832 1452.8 Q604.772 1455.21 604.772 1459.35 Q604.772 1462.32 603.082 1464.38 Q601.415 1466.44 598.429 1467.18 Q601.809 1467.96 603.684 1470.26 Q605.582 1472.55 605.582 1475.86 Q605.582 1480.88 602.503 1483.57 Q599.448 1486.25 593.73 1486.25 Q588.012 1486.25 584.934 1483.57 Q581.878 1480.88 581.878 1475.86 Q581.878 1472.55 583.776 1470.26 Q585.675 1467.96 589.054 1467.18 M587.341 1459.79 Q587.341 1462.48 589.008 1463.98 Q590.698 1465.49 593.73 1465.49 Q596.739 1465.49 598.429 1463.98 Q600.142 1462.48 600.142 1459.79 Q600.142 1457.11 598.429 1455.6 Q596.739 1454.1 593.73 1454.1 Q590.698 1454.1 589.008 1455.6 Q587.341 1457.11 587.341 1459.79 Z" fill="#000000" fill-rule="nonzero" fill-opacity="1" /><path clip-path="url(#clip610)" d="M613.938 1451.02 L632.295 1451.02 L632.295 1454.96 L618.221 1454.96 L618.221 1463.43 Q619.239 1463.08 620.258 1462.92 Q621.276 1462.73 622.295 1462.73 Q628.082 1462.73 631.461 1465.9 Q634.841 1469.08 634.841 1474.49 Q634.841 1480.07 631.369 1483.17 Q627.897 1486.25 621.577 1486.25 Q619.401 1486.25 617.133 1485.88 Q614.887 1485.51 612.48 1484.77 L612.48 1480.07 Q614.563 1481.2 616.785 1481.76 Q619.008 1482.32 621.485 1482.32 Q625.489 1482.32 627.827 1480.21 Q630.165 1478.1 630.165 1474.49 Q630.165 1470.88 627.827 1468.77 Q625.489 1466.67 621.485 1466.67 Q619.61 1466.67 617.735 1467.08 Q615.883 1467.5 613.938 1468.38 L613.938 1451.02 Z" fill="#000000" fill-rule="nonzero" fill-opacity="1" /><path clip-path="url(#clip610)" d="M390.284 1484.86 L390.284 1480.6 Q392.044 1481.44 393.849 1481.88 Q395.655 1482.32 397.391 1482.32 Q402.02 1482.32 404.451 1479.21 Q406.905 1476.09 407.252 1469.75 Q405.909 1471.74 403.849 1472.8 Q401.789 1473.87 399.289 1473.87 Q394.104 1473.87 391.071 1470.74 Q388.062 1467.59 388.062 1462.15 Q388.062 1456.83 391.21 1453.61 Q394.358 1450.39 399.59 1450.39 Q405.585 1450.39 408.733 1455 Q411.905 1459.58 411.905 1468.33 Q411.905 1476.51 408.016 1481.39 Q404.15 1486.25 397.599 1486.25 Q395.84 1486.25 394.034 1485.9 Q392.229 1485.56 390.284 1484.86 M399.59 1470.21 Q402.738 1470.21 404.567 1468.06 Q406.418 1465.9 406.418 1462.15 Q406.418 1458.43 404.567 1456.27 Q402.738 1454.1 399.59 1454.1 Q396.442 1454.1 394.59 1456.27 Q392.761 1458.43 392.761 1462.15 Q392.761 1465.9 394.59 1468.06 Q396.442 1470.21 399.59 1470.21 Z" fill="#000000" fill-rule="nonzero" fill-opacity="1" /><path clip-path="url(#clip610)" d="M420.354 1451.02 L438.71 1451.02 L438.71 1454.96 L424.636 1454.96 L424.636 1463.43 Q425.654 1463.08 426.673 1462.92 Q427.692 1462.73 428.71 1462.73 Q434.497 1462.73 437.877 1465.9 Q441.256 1469.08 441.256 1474.49 Q441.256 1480.07 437.784 1483.17 Q434.312 1486.25 427.992 1486.25 Q425.817 1486.25 423.548 1485.88 Q421.303 1485.51 418.895 1484.77 L418.895 1480.07 Q420.979 1481.2 423.201 1481.76 Q425.423 1482.32 427.9 1482.32 Q431.904 1482.32 434.242 1480.21 Q436.58 1478.1 436.58 1474.49 Q436.58 1470.88 434.242 1468.77 Q431.904 1466.67 427.9 1466.67 Q426.025 1466.67 424.15 1467.08 Q422.298 1467.5 420.354 1468.38 L420.354 1451.02 Z" fill="#000000" fill-rule="nonzero" fill-opacity="1" /><path clip-path="url(#clip610)" d="M1084.6 1547.13 Q1081.83 1547.13 1080.24 1549.49 Q1078.68 1551.84 1078.68 1556.04 Q1078.68 1560.18 1080.24 1562.57 Q1081.83 1564.92 1084.6 1564.92 Q1087.3 1564.92 1088.86 1562.57 Q1090.45 1560.18 1090.45 1556.04 Q1090.45 1551.87 1088.86 1549.52 Q1087.3 1547.13 1084.6 1547.13 M1084.6 1543.09 Q1089.63 1543.09 1092.59 1546.59 Q1095.55 1550.09 1095.55 1556.04 Q1095.55 1562 1092.55 1565.5 Q1089.59 1568.97 1084.6 1568.97 Q1079.51 1568.97 1076.55 1565.5 Q1073.59 1562 1073.59 1556.04 Q1073.59 1550.06 1076.55 1546.59 Q1079.54 1543.09 1084.6 1543.09 M1051.75 1523.71 Q1049.01 1523.71 1047.42 1526.09 Q1045.86 1528.45 1045.86 1532.59 Q1045.86 1536.79 1047.42 1539.14 Q1048.98 1541.5 1051.75 1541.5 Q1054.52 1541.5 1056.08 1539.14 Q1057.67 1536.79 1057.67 1532.59 Q1057.67 1528.48 1056.08 1526.09 Q1054.49 1523.71 1051.75 1523.71 M1080.49 1519.66 L1085.58 1519.66 L1055.86 1568.97 L1050.76 1568.97 L1080.49 1519.66 M1051.75 1519.66 Q1056.78 1519.66 1059.77 1523.17 Q1062.76 1526.63 1062.76 1532.59 Q1062.76 1538.6 1059.77 1542.07 Q1056.81 1545.54 1051.75 1545.54 Q1046.69 1545.54 1043.73 1542.07 Q1040.8 1538.57 1040.8 1532.59 Q1040.8 1526.67 1043.76 1523.17 Q1046.72 1519.66 1051.75 1519.66 Z" fill="#000000" fill-rule="nonzero" fill-opacity="1" /><path clip-path="url(#clip610)" d="M1149.46 1537.81 L1149.46 1518.52 L1155.32 1518.52 L1155.32 1568.04 L1149.46 1568.04 L1149.46 1562.7 Q1147.62 1565.88 1144.79 1567.44 Q1141.98 1568.97 1138.04 1568.97 Q1131.58 1568.97 1127.5 1563.81 Q1123.46 1558.65 1123.46 1550.25 Q1123.46 1541.85 1127.5 1536.69 Q1131.58 1531.54 1138.04 1531.54 Q1141.98 1531.54 1144.79 1533.1 Q1147.62 1534.62 1149.46 1537.81 M1129.51 1550.25 Q1129.51 1556.71 1132.15 1560.4 Q1134.82 1564.07 1139.47 1564.07 Q1144.12 1564.07 1146.79 1560.4 Q1149.46 1556.71 1149.46 1550.25 Q1149.46 1543.79 1146.79 1540.13 Q1144.12 1536.44 1139.47 1536.44 Q1134.82 1536.44 1132.15 1540.13 Q1129.51 1543.79 1129.51 1550.25 Z" fill="#000000" fill-rule="nonzero" fill-opacity="1" /><path clip-path="url(#clip610)" d="M1183.58 1550.12 Q1176.49 1550.12 1173.75 1551.75 Q1171.01 1553.37 1171.01 1557.29 Q1171.01 1560.4 1173.05 1562.25 Q1175.12 1564.07 1178.65 1564.07 Q1183.52 1564.07 1186.45 1560.63 Q1189.41 1557.16 1189.41 1551.43 L1189.41 1550.12 L1183.58 1550.12 M1195.27 1547.71 L1195.27 1568.04 L1189.41 1568.04 L1189.41 1562.63 Q1187.4 1565.88 1184.41 1567.44 Q1181.42 1568.97 1177.09 1568.97 Q1171.62 1568.97 1168.37 1565.91 Q1165.16 1562.82 1165.16 1557.67 Q1165.16 1551.65 1169.17 1548.6 Q1173.21 1545.54 1181.2 1545.54 L1189.41 1545.54 L1189.41 1544.97 Q1189.41 1540.93 1186.74 1538.73 Q1184.09 1536.5 1179.29 1536.5 Q1176.23 1536.5 1173.34 1537.23 Q1170.44 1537.97 1167.77 1539.43 L1167.77 1534.02 Q1170.98 1532.78 1174 1532.17 Q1177.03 1531.54 1179.89 1531.54 Q1187.63 1531.54 1191.45 1535.55 Q1195.27 1539.56 1195.27 1547.71 Z" fill="#000000" fill-rule="nonzero" fill-opacity="1" /><path clip-path="url(#clip610)" d="M1213.12 1522.27 L1213.12 1532.4 L1225.18 1532.4 L1225.18 1536.95 L1213.12 1536.95 L1213.12 1556.3 Q1213.12 1560.66 1214.3 1561.9 Q1215.51 1563.14 1219.17 1563.14 L1225.18 1563.14 L1225.18 1568.04 L1219.17 1568.04 Q1212.39 1568.04 1209.81 1565.53 Q1207.23 1562.98 1207.23 1556.3 L1207.23 1536.95 L1202.94 1536.95 L1202.94 1532.4 L1207.23 1532.4 L1207.23 1522.27 L1213.12 1522.27 Z" fill="#000000" fill-rule="nonzero" fill-opacity="1" /><path clip-path="url(#clip610)" d="M1249.09 1550.12 Q1241.99 1550.12 1239.25 1551.75 Q1236.52 1553.37 1236.52 1557.29 Q1236.52 1560.4 1238.55 1562.25 Q1240.62 1564.07 1244.15 1564.07 Q1249.02 1564.07 1251.95 1560.63 Q1254.91 1557.16 1254.91 1551.43 L1254.91 1550.12 L1249.09 1550.12 M1260.77 1547.71 L1260.77 1568.04 L1254.91 1568.04 L1254.91 1562.63 Q1252.91 1565.88 1249.92 1567.44 Q1246.92 1568.97 1242.59 1568.97 Q1237.12 1568.97 1233.87 1565.91 Q1230.66 1562.82 1230.66 1557.67 Q1230.66 1551.65 1234.67 1548.6 Q1238.71 1545.54 1246.7 1545.54 L1254.91 1545.54 L1254.91 1544.97 Q1254.91 1540.93 1252.24 1538.73 Q1249.6 1536.5 1244.79 1536.5 Q1241.74 1536.5 1238.84 1537.23 Q1235.94 1537.97 1233.27 1539.43 L1233.27 1534.02 Q1236.48 1532.78 1239.51 1532.17 Q1242.53 1531.54 1245.4 1531.54 Q1253.13 1531.54 1256.95 1535.55 Q1260.77 1539.56 1260.77 1547.71 Z" fill="#000000" fill-rule="nonzero" fill-opacity="1" /><path clip-path="url(#clip610)" d="M1321.31 1539.24 Q1323.5 1535.29 1326.56 1533.41 Q1329.61 1531.54 1333.75 1531.54 Q1339.32 1531.54 1342.35 1535.45 Q1345.37 1539.33 1345.37 1546.53 L1345.37 1568.04 L1339.48 1568.04 L1339.48 1546.72 Q1339.48 1541.59 1337.67 1539.11 Q1335.85 1536.63 1332.13 1536.63 Q1327.58 1536.63 1324.94 1539.65 Q1322.29 1542.68 1322.29 1547.9 L1322.29 1568.04 L1316.4 1568.04 L1316.4 1546.72 Q1316.4 1541.56 1314.59 1539.11 Q1312.78 1536.63 1308.99 1536.63 Q1304.5 1536.63 1301.86 1539.68 Q1299.22 1542.71 1299.22 1547.9 L1299.22 1568.04 L1293.33 1568.04 L1293.33 1532.4 L1299.22 1532.4 L1299.22 1537.93 Q1301.22 1534.66 1304.02 1533.1 Q1306.82 1531.54 1310.68 1531.54 Q1314.56 1531.54 1317.26 1533.51 Q1320 1535.48 1321.31 1539.24 Z" fill="#000000" fill-rule="nonzero" fill-opacity="1" /><path clip-path="url(#clip610)" d="M1357.05 1532.4 L1362.91 1532.4 L1362.91 1568.04 L1357.05 1568.04 L1357.05 1532.4 M1357.05 1518.52 L1362.91 1518.52 L1362.91 1525.93 L1357.05 1525.93 L1357.05 1518.52 Z" fill="#000000" fill-rule="nonzero" fill-opacity="1" /><path clip-path="url(#clip610)" d="M1397.89 1533.45 L1397.89 1538.98 Q1395.4 1537.71 1392.73 1537.07 Q1390.06 1536.44 1387.19 1536.44 Q1382.83 1536.44 1380.63 1537.77 Q1378.47 1539.11 1378.47 1541.79 Q1378.47 1543.82 1380.03 1545 Q1381.59 1546.15 1386.3 1547.2 L1388.31 1547.64 Q1394.54 1548.98 1397.15 1551.43 Q1399.8 1553.85 1399.8 1558.21 Q1399.8 1563.17 1395.85 1566.07 Q1391.93 1568.97 1385.06 1568.97 Q1382.19 1568.97 1379.08 1568.39 Q1375.99 1567.85 1372.55 1566.74 L1372.55 1560.69 Q1375.8 1562.38 1378.95 1563.24 Q1382.1 1564.07 1385.19 1564.07 Q1389.32 1564.07 1391.55 1562.66 Q1393.78 1561.23 1393.78 1558.65 Q1393.78 1556.27 1392.16 1554.99 Q1390.57 1553.72 1385.12 1552.54 L1383.09 1552.07 Q1377.64 1550.92 1375.22 1548.56 Q1372.81 1546.18 1372.81 1542.04 Q1372.81 1537.01 1376.37 1534.27 Q1379.93 1531.54 1386.49 1531.54 Q1389.74 1531.54 1392.6 1532.01 Q1395.47 1532.49 1397.89 1533.45 Z" fill="#000000" fill-rule="nonzero" fill-opacity="1" /><path clip-path="url(#clip610)" d="M1431.85 1533.45 L1431.85 1538.98 Q1429.36 1537.71 1426.69 1537.07 Q1424.02 1536.44 1421.15 1536.44 Q1416.79 1536.44 1414.6 1537.77 Q1412.43 1539.11 1412.43 1541.79 Q1412.43 1543.82 1413.99 1545 Q1415.55 1546.15 1420.26 1547.2 L1422.27 1547.64 Q1428.51 1548.98 1431.11 1551.43 Q1433.76 1553.85 1433.76 1558.21 Q1433.76 1563.17 1429.81 1566.07 Q1425.9 1568.97 1419.02 1568.97 Q1416.16 1568.97 1413.04 1568.39 Q1409.95 1567.85 1406.51 1566.74 L1406.51 1560.69 Q1409.76 1562.38 1412.91 1563.24 Q1416.06 1564.07 1419.15 1564.07 Q1423.29 1564.07 1425.51 1562.66 Q1427.74 1561.23 1427.74 1558.65 Q1427.74 1556.27 1426.12 1554.99 Q1424.53 1553.72 1419.08 1552.54 L1417.05 1552.07 Q1411.6 1550.92 1409.19 1548.56 Q1406.77 1546.18 1406.77 1542.04 Q1406.77 1537.01 1410.33 1534.27 Q1413.9 1531.54 1420.45 1531.54 Q1423.7 1531.54 1426.56 1532.01 Q1429.43 1532.49 1431.85 1533.45 Z" fill="#000000" fill-rule="nonzero" fill-opacity="1" /><path clip-path="url(#clip610)" d="M1443.08 1532.4 L1448.94 1532.4 L1448.94 1568.04 L1443.08 1568.04 L1443.08 1532.4 M1443.08 1518.52 L1448.94 1518.52 L1448.94 1525.93 L1443.08 1525.93 L1443.08 1518.52 Z" fill="#000000" fill-rule="nonzero" fill-opacity="1" /><path clip-path="url(#clip610)" d="M1490.83 1546.53 L1490.83 1568.04 L1484.97 1568.04 L1484.97 1546.72 Q1484.97 1541.66 1483 1539.14 Q1481.02 1536.63 1477.08 1536.63 Q1472.33 1536.63 1469.6 1539.65 Q1466.86 1542.68 1466.86 1547.9 L1466.86 1568.04 L1460.97 1568.04 L1460.97 1532.4 L1466.86 1532.4 L1466.86 1537.93 Q1468.96 1534.72 1471.79 1533.13 Q1474.66 1531.54 1478.38 1531.54 Q1484.52 1531.54 1487.67 1535.36 Q1490.83 1539.14 1490.83 1546.53 Z" fill="#000000" fill-rule="nonzero" fill-opacity="1" /><path clip-path="url(#clip610)" d="M1525.96 1549.81 Q1525.96 1543.44 1523.32 1539.94 Q1520.71 1536.44 1515.97 1536.44 Q1511.26 1536.44 1508.62 1539.94 Q1506.01 1543.44 1506.01 1549.81 Q1506.01 1556.14 1508.62 1559.64 Q1511.26 1563.14 1515.97 1563.14 Q1520.71 1563.14 1523.32 1559.64 Q1525.96 1556.14 1525.96 1549.81 M1531.82 1563.62 Q1531.82 1572.72 1527.78 1577.15 Q1523.74 1581.6 1515.4 1581.6 Q1512.31 1581.6 1509.57 1581.13 Q1506.84 1580.68 1504.26 1579.72 L1504.26 1574.03 Q1506.84 1575.43 1509.35 1576.1 Q1511.86 1576.76 1514.47 1576.76 Q1520.23 1576.76 1523.1 1573.74 Q1525.96 1570.75 1525.96 1564.67 L1525.96 1561.77 Q1524.15 1564.92 1521.32 1566.48 Q1518.48 1568.04 1514.54 1568.04 Q1507.98 1568.04 1503.97 1563.05 Q1499.96 1558.05 1499.96 1549.81 Q1499.96 1541.53 1503.97 1536.53 Q1507.98 1531.54 1514.54 1531.54 Q1518.48 1531.54 1521.32 1533.1 Q1524.15 1534.66 1525.96 1537.81 L1525.96 1532.4 L1531.82 1532.4 L1531.82 1563.62 Z" fill="#000000" fill-rule="nonzero" fill-opacity="1" /><polyline clip-path="url(#clip610)" style="stroke:#000000; stroke-linecap:round; stroke-linejoin:round; stroke-width:4; stroke-opacity:1; fill:none" points="219.866,1423.18 219.866,123.472 "/>
<polyline clip-path="url(#clip610)" style="stroke:#000000; stroke-linecap:round; stroke-linejoin:round; stroke-width:4; stroke-opacity:1; fill:none" points="219.866,1423.18 238.764,1423.18 "/>
<polyline clip-path="url(#clip610)" style="stroke:#000000; stroke-linecap:round; stroke-linejoin:round; stroke-width:4; stroke-opacity:1; fill:none" points="219.866,1128.13 238.764,1128.13 "/>
<polyline clip-path="url(#clip610)" style="stroke:#000000; stroke-linecap:round; stroke-linejoin:round; stroke-width:4; stroke-opacity:1; fill:none" points="219.866,833.071 238.764,833.071 "/>
<polyline clip-path="url(#clip610)" style="stroke:#000000; stroke-linecap:round; stroke-linejoin:round; stroke-width:4; stroke-opacity:1; fill:none" points="219.866,538.016 238.764,538.016 "/>
<polyline clip-path="url(#clip610)" style="stroke:#000000; stroke-linecap:round; stroke-linejoin:round; stroke-width:4; stroke-opacity:1; fill:none" points="219.866,242.961 238.764,242.961 "/>
<path clip-path="url(#clip610)" d="M126.691 1408.98 Q123.08 1408.98 121.251 1412.54 Q119.445 1416.08 119.445 1423.21 Q119.445 1430.32 121.251 1433.89 Q123.08 1437.43 126.691 1437.43 Q130.325 1437.43 132.13 1433.89 Q133.959 1430.32 133.959 1423.21 Q133.959 1416.08 132.13 1412.54 Q130.325 1408.98 126.691 1408.98 M126.691 1405.27 Q132.501 1405.27 135.556 1409.88 Q138.635 1414.46 138.635 1423.21 Q138.635 1431.94 135.556 1436.55 Q132.501 1441.13 126.691 1441.13 Q120.88 1441.13 117.802 1436.55 Q114.746 1431.94 114.746 1423.21 Q114.746 1414.46 117.802 1409.88 Q120.88 1405.27 126.691 1405.27 Z" fill="#000000" fill-rule="nonzero" fill-opacity="1" /><path clip-path="url(#clip610)" d="M146.853 1434.58 L151.737 1434.58 L151.737 1440.46 L146.853 1440.46 L146.853 1434.58 Z" fill="#000000" fill-rule="nonzero" fill-opacity="1" /><path clip-path="url(#clip610)" d="M171.922 1408.98 Q168.311 1408.98 166.482 1412.54 Q164.677 1416.08 164.677 1423.21 Q164.677 1430.32 166.482 1433.89 Q168.311 1437.43 171.922 1437.43 Q175.556 1437.43 177.362 1433.89 Q179.19 1430.32 179.19 1423.21 Q179.19 1416.08 177.362 1412.54 Q175.556 1408.98 171.922 1408.98 M171.922 1405.27 Q177.732 1405.27 180.788 1409.88 Q183.866 1414.46 183.866 1423.21 Q183.866 1431.94 180.788 1436.55 Q177.732 1441.13 171.922 1441.13 Q166.112 1441.13 163.033 1436.55 Q159.978 1431.94 159.978 1423.21 Q159.978 1414.46 163.033 1409.88 Q166.112 1405.27 171.922 1405.27 Z" fill="#000000" fill-rule="nonzero" fill-opacity="1" /><path clip-path="url(#clip610)" d="M127.917 1113.92 Q124.306 1113.92 122.478 1117.49 Q120.672 1121.03 120.672 1128.16 Q120.672 1135.27 122.478 1138.83 Q124.306 1142.37 127.917 1142.37 Q131.552 1142.37 133.357 1138.83 Q135.186 1135.27 135.186 1128.16 Q135.186 1121.03 133.357 1117.49 Q131.552 1113.92 127.917 1113.92 M127.917 1110.22 Q133.728 1110.22 136.783 1114.83 Q139.862 1119.41 139.862 1128.16 Q139.862 1136.89 136.783 1141.49 Q133.728 1146.08 127.917 1146.08 Q122.107 1146.08 119.029 1141.49 Q115.973 1136.89 115.973 1128.16 Q115.973 1119.41 119.029 1114.83 Q122.107 1110.22 127.917 1110.22 Z" fill="#000000" fill-rule="nonzero" fill-opacity="1" /><path clip-path="url(#clip610)" d="M148.079 1139.53 L152.964 1139.53 L152.964 1145.41 L148.079 1145.41 L148.079 1139.53 Z" fill="#000000" fill-rule="nonzero" fill-opacity="1" /><path clip-path="url(#clip610)" d="M163.959 1141.47 L171.598 1141.47 L171.598 1115.1 L163.288 1116.77 L163.288 1112.51 L171.552 1110.85 L176.227 1110.85 L176.227 1141.47 L183.866 1141.47 L183.866 1145.41 L163.959 1145.41 L163.959 1141.47 Z" fill="#000000" fill-rule="nonzero" fill-opacity="1" /><path clip-path="url(#clip610)" d="M128.288 818.869 Q124.677 818.869 122.848 822.434 Q121.043 825.976 121.043 833.105 Q121.043 840.212 122.848 843.777 Q124.677 847.318 128.288 847.318 Q131.922 847.318 133.728 843.777 Q135.556 840.212 135.556 833.105 Q135.556 825.976 133.728 822.434 Q131.922 818.869 128.288 818.869 M128.288 815.166 Q134.098 815.166 137.154 819.772 Q140.232 824.355 140.232 833.105 Q140.232 841.832 137.154 846.439 Q134.098 851.022 128.288 851.022 Q122.478 851.022 119.399 846.439 Q116.343 841.832 116.343 833.105 Q116.343 824.355 119.399 819.772 Q122.478 815.166 128.288 815.166 Z" fill="#000000" fill-rule="nonzero" fill-opacity="1" /><path clip-path="url(#clip610)" d="M148.45 844.471 L153.334 844.471 L153.334 850.351 L148.45 850.351 L148.45 844.471 Z" fill="#000000" fill-rule="nonzero" fill-opacity="1" /><path clip-path="url(#clip610)" d="M167.547 846.415 L183.866 846.415 L183.866 850.351 L161.922 850.351 L161.922 846.415 Q164.584 843.661 169.167 839.031 Q173.774 834.378 174.954 833.036 Q177.2 830.513 178.079 828.777 Q178.982 827.017 178.982 825.328 Q178.982 822.573 177.038 820.837 Q175.116 819.101 172.014 819.101 Q169.815 819.101 167.362 819.865 Q164.931 820.628 162.153 822.179 L162.153 817.457 Q164.977 816.323 167.431 815.744 Q169.885 815.166 171.922 815.166 Q177.292 815.166 180.487 817.851 Q183.681 820.536 183.681 825.027 Q183.681 827.156 182.871 829.078 Q182.084 830.976 179.977 833.568 Q179.399 834.24 176.297 837.457 Q173.195 840.652 167.547 846.415 Z" fill="#000000" fill-rule="nonzero" fill-opacity="1" /><path clip-path="url(#clip610)" d="M127.339 523.815 Q123.728 523.815 121.899 527.379 Q120.093 530.921 120.093 538.051 Q120.093 545.157 121.899 548.722 Q123.728 552.264 127.339 552.264 Q130.973 552.264 132.779 548.722 Q134.607 545.157 134.607 538.051 Q134.607 530.921 132.779 527.379 Q130.973 523.815 127.339 523.815 M127.339 520.111 Q133.149 520.111 136.204 524.717 Q139.283 529.301 139.283 538.051 Q139.283 546.777 136.204 551.384 Q133.149 555.967 127.339 555.967 Q121.529 555.967 118.45 551.384 Q115.394 546.777 115.394 538.051 Q115.394 529.301 118.45 524.717 Q121.529 520.111 127.339 520.111 Z" fill="#000000" fill-rule="nonzero" fill-opacity="1" /><path clip-path="url(#clip610)" d="M147.501 549.416 L152.385 549.416 L152.385 555.296 L147.501 555.296 L147.501 549.416 Z" fill="#000000" fill-rule="nonzero" fill-opacity="1" /><path clip-path="url(#clip610)" d="M176.737 536.662 Q180.093 537.379 181.968 539.648 Q183.866 541.916 183.866 545.25 Q183.866 550.365 180.348 553.166 Q176.829 555.967 170.348 555.967 Q168.172 555.967 165.857 555.527 Q163.565 555.111 161.112 554.254 L161.112 549.74 Q163.056 550.875 165.371 551.453 Q167.686 552.032 170.209 552.032 Q174.607 552.032 176.899 550.296 Q179.214 548.56 179.214 545.25 Q179.214 542.194 177.061 540.481 Q174.931 538.745 171.112 538.745 L167.084 538.745 L167.084 534.903 L171.297 534.903 Q174.746 534.903 176.575 533.537 Q178.403 532.148 178.403 529.555 Q178.403 526.893 176.505 525.481 Q174.63 524.046 171.112 524.046 Q169.19 524.046 166.991 524.463 Q164.792 524.879 162.153 525.759 L162.153 521.592 Q164.815 520.852 167.13 520.481 Q169.468 520.111 171.528 520.111 Q176.852 520.111 179.954 522.541 Q183.056 524.949 183.056 529.069 Q183.056 531.94 181.413 533.93 Q179.769 535.898 176.737 536.662 Z" fill="#000000" fill-rule="nonzero" fill-opacity="1" /><path clip-path="url(#clip610)" d="M126.205 228.76 Q122.593 228.76 120.765 232.325 Q118.959 235.866 118.959 242.996 Q118.959 250.102 120.765 253.667 Q122.593 257.209 126.205 257.209 Q129.839 257.209 131.644 253.667 Q133.473 250.102 133.473 242.996 Q133.473 235.866 131.644 232.325 Q129.839 228.76 126.205 228.76 M126.205 225.056 Q132.015 225.056 135.07 229.663 Q138.149 234.246 138.149 242.996 Q138.149 251.723 135.07 256.329 Q132.015 260.913 126.205 260.913 Q120.394 260.913 117.316 256.329 Q114.26 251.723 114.26 242.996 Q114.26 234.246 117.316 229.663 Q120.394 225.056 126.205 225.056 Z" fill="#000000" fill-rule="nonzero" fill-opacity="1" /><path clip-path="url(#clip610)" d="M146.366 254.362 L151.251 254.362 L151.251 260.241 L146.366 260.241 L146.366 254.362 Z" fill="#000000" fill-rule="nonzero" fill-opacity="1" /><path clip-path="url(#clip610)" d="M174.283 229.755 L162.477 248.204 L174.283 248.204 L174.283 229.755 M173.056 225.681 L178.936 225.681 L178.936 248.204 L183.866 248.204 L183.866 252.093 L178.936 252.093 L178.936 260.241 L174.283 260.241 L174.283 252.093 L158.681 252.093 L158.681 247.579 L173.056 225.681 Z" fill="#000000" fill-rule="nonzero" fill-opacity="1" /><path clip-path="url(#clip610)" d="M35.1993 914.104 Q31.2526 911.907 29.3747 908.852 Q27.4968 905.796 27.4968 901.659 Q27.4968 896.089 31.4117 893.065 Q35.2948 890.041 42.4881 890.041 L64.0042 890.041 L64.0042 895.929 L42.679 895.929 Q37.5546 895.929 35.072 897.744 Q32.5894 899.558 32.5894 903.282 Q32.5894 907.833 35.6131 910.475 Q38.6368 913.117 43.8567 913.117 L64.0042 913.117 L64.0042 919.005 L42.679 919.005 Q37.5228 919.005 35.072 920.819 Q32.5894 922.634 32.5894 926.421 Q32.5894 930.909 35.6449 933.551 Q38.6686 936.193 43.8567 936.193 L64.0042 936.193 L64.0042 942.081 L28.3562 942.081 L28.3562 936.193 L33.8944 936.193 Q30.616 934.187 29.0564 931.386 Q27.4968 928.586 27.4968 924.734 Q27.4968 920.851 29.4702 918.146 Q31.4436 915.409 35.1993 914.104 Z" fill="#000000" fill-rule="nonzero" fill-opacity="1" /><path clip-path="url(#clip610)" d="M44.7161 847.868 L47.5806 847.868 L47.5806 874.795 Q53.6281 874.413 56.8109 871.167 Q59.9619 867.889 59.9619 862.064 Q59.9619 858.69 59.1344 855.539 Q58.3069 852.356 56.6518 849.237 L62.1899 849.237 Q63.5267 852.388 64.227 855.698 Q64.9272 859.008 64.9272 862.414 Q64.9272 870.944 59.9619 875.941 Q54.9967 880.906 46.5303 880.906 Q37.7774 880.906 32.6531 876.196 Q27.4968 871.453 27.4968 863.433 Q27.4968 856.239 32.1438 852.07 Q36.7589 847.868 44.7161 847.868 M42.9973 853.725 Q38.1912 853.789 35.3266 856.43 Q32.4621 859.04 32.4621 863.369 Q32.4621 868.27 35.2312 871.231 Q38.0002 874.159 43.0292 874.604 L42.9973 853.725 Z" fill="#000000" fill-rule="nonzero" fill-opacity="1" /><path clip-path="url(#clip610)" d="M46.0847 822.055 Q46.0847 829.153 47.7079 831.89 Q49.3312 834.628 53.2461 834.628 Q56.3653 834.628 58.2114 832.591 Q60.0256 830.522 60.0256 826.989 Q60.0256 822.119 56.5881 819.191 Q53.1188 816.231 47.3897 816.231 L46.0847 816.231 L46.0847 822.055 M43.6657 810.374 L64.0042 810.374 L64.0042 816.231 L58.5933 816.231 Q61.8398 818.236 63.3994 821.228 Q64.9272 824.22 64.9272 828.548 Q64.9272 834.023 61.8716 837.27 Q58.7843 840.484 53.6281 840.484 Q47.6125 840.484 44.5569 836.474 Q41.5014 832.432 41.5014 824.443 L41.5014 816.231 L40.9285 816.231 Q36.8862 816.231 34.6901 818.904 Q32.4621 821.546 32.4621 826.352 Q32.4621 829.408 33.1941 832.304 Q33.9262 835.201 35.3903 837.874 L29.9795 837.874 Q28.7381 834.66 28.1334 831.636 Q27.4968 828.612 27.4968 825.748 Q27.4968 818.013 31.5072 814.194 Q35.5176 810.374 43.6657 810.374 Z" fill="#000000" fill-rule="nonzero" fill-opacity="1" /><path clip-path="url(#clip610)" d="M42.4881 768.679 L64.0042 768.679 L64.0042 774.535 L42.679 774.535 Q37.6183 774.535 35.1038 776.509 Q32.5894 778.482 32.5894 782.429 Q32.5894 787.171 35.6131 789.909 Q38.6368 792.646 43.8567 792.646 L64.0042 792.646 L64.0042 798.534 L28.3562 798.534 L28.3562 792.646 L33.8944 792.646 Q30.6797 790.545 29.0883 787.712 Q27.4968 784.848 27.4968 781.124 Q27.4968 774.981 31.3163 771.83 Q35.1038 768.679 42.4881 768.679 Z" fill="#000000" fill-rule="nonzero" fill-opacity="1" /><path clip-path="url(#clip610)" d="M16.4842 736.023 L16.4842 726.443 L48.8219 714.316 L16.4842 702.126 L16.4842 692.545 L64.0042 692.545 L64.0042 698.815 L22.277 698.815 L54.8694 711.069 L54.8694 717.531 L22.277 729.785 L64.0042 729.785 L64.0042 736.023 L16.4842 736.023 Z" fill="#000000" fill-rule="nonzero" fill-opacity="1" /><path clip-path="url(#clip610)" d="M22.818 663.899 L46.4666 672.621 L46.4666 655.147 L22.818 663.899 M16.4842 667.528 L16.4842 660.239 L64.0042 642.129 L64.0042 648.813 L51.8138 653.141 L51.8138 674.562 L64.0042 678.891 L64.0042 685.67 L16.4842 667.528 Z" fill="#000000" fill-rule="nonzero" fill-opacity="1" /><path clip-path="url(#clip610)" d="M16.4842 635.19 L16.4842 605.144 L21.895 605.144 L21.895 628.761 L35.9632 628.761 L35.9632 606.131 L41.3741 606.131 L41.3741 628.761 L58.5933 628.761 L58.5933 604.571 L64.0042 604.571 L64.0042 635.19 L16.4842 635.19 Z" fill="#000000" fill-rule="nonzero" fill-opacity="1" /><path clip-path="url(#clip610)" d="M569.666 43.6931 L569.666 65.8515 L582.791 65.8515 Q589.394 65.8515 592.553 63.1374 Q595.753 60.3828 595.753 54.752 Q595.753 49.0808 592.553 46.4072 Q589.394 43.6931 582.791 43.6931 L569.666 43.6931 M569.666 18.8205 L569.666 37.0496 L581.778 37.0496 Q587.773 37.0496 590.69 34.8216 Q593.647 32.5531 593.647 27.935 Q593.647 23.3575 590.69 21.089 Q587.773 18.8205 581.778 18.8205 L569.666 18.8205 M561.483 12.096 L582.385 12.096 Q591.743 12.096 596.807 15.9849 Q601.87 19.8737 601.87 27.0438 Q601.87 32.5936 599.278 35.8748 Q596.685 39.156 591.662 39.9662 Q597.698 41.2625 601.02 45.3944 Q604.382 49.4858 604.382 55.6432 Q604.382 63.745 598.873 68.1605 Q593.363 72.576 583.196 72.576 L561.483 72.576 L561.483 12.096 Z" fill="#000000" fill-rule="nonzero" fill-opacity="1" /><path clip-path="url(#clip610)" d="M647.078 44.2197 Q649.711 45.1109 652.183 48.0275 Q654.694 50.9442 657.206 56.0483 L665.51 72.576 L656.72 72.576 L648.982 57.061 Q645.985 50.9847 643.149 48.9997 Q640.354 47.0148 635.493 47.0148 L626.581 47.0148 L626.581 72.576 L618.398 72.576 L618.398 12.096 L636.87 12.096 Q647.24 12.096 652.345 16.4305 Q657.449 20.7649 657.449 29.5149 Q657.449 35.2267 654.775 38.994 Q652.142 42.7613 647.078 44.2197 M626.581 18.8205 L626.581 40.2903 L636.87 40.2903 Q642.784 40.2903 645.782 37.5762 Q648.82 34.8216 648.82 29.5149 Q648.82 24.2082 645.782 21.5346 Q642.784 18.8205 636.87 18.8205 L626.581 18.8205 Z" fill="#000000" fill-rule="nonzero" fill-opacity="1" /><path clip-path="url(#clip610)" d="M676.042 12.096 L684.225 12.096 L684.225 72.576 L676.042 72.576 L676.042 12.096 Z" fill="#000000" fill-rule="nonzero" fill-opacity="1" /><path clip-path="url(#clip610)" d="M692.124 12.096 L743.287 12.096 L743.287 18.9825 L721.818 18.9825 L721.818 72.576 L713.594 72.576 L713.594 18.9825 L692.124 18.9825 L692.124 12.096 Z" fill="#000000" fill-rule="nonzero" fill-opacity="1" /><path clip-path="url(#clip610)" d="M787.442 14.0809 L787.442 22.0612 Q782.784 19.8332 778.652 18.7395 Q774.52 17.6457 770.671 17.6457 Q763.987 17.6457 760.342 20.2383 Q756.736 22.8309 756.736 27.611 Q756.736 31.6214 759.126 33.6873 Q761.557 35.7128 768.281 36.9686 L773.224 37.9813 Q782.379 39.7232 786.713 44.1387 Q791.088 48.5136 791.088 55.8863 Q791.088 64.6767 785.174 69.2137 Q779.3 73.7508 767.917 73.7508 Q763.623 73.7508 758.762 72.7785 Q753.941 71.8063 748.756 69.9024 L748.756 61.4765 Q753.739 64.2716 758.519 65.6895 Q763.299 67.1073 767.917 67.1073 Q774.925 67.1073 778.733 64.3527 Q782.541 61.598 782.541 56.4939 Q782.541 52.0379 779.786 49.5264 Q777.072 47.0148 770.834 45.759 L765.851 44.7868 Q756.696 42.9639 752.604 39.075 Q748.513 35.1862 748.513 28.2591 Q748.513 20.2383 754.144 15.6203 Q759.815 11.0023 769.74 11.0023 Q773.993 11.0023 778.409 11.7719 Q782.824 12.5416 787.442 14.0809 Z" fill="#000000" fill-rule="nonzero" fill-opacity="1" /><path clip-path="url(#clip610)" d="M830.22 12.096 L838.403 12.096 L838.403 72.576 L830.22 72.576 L830.22 12.096 Z" fill="#000000" fill-rule="nonzero" fill-opacity="1" /><path clip-path="url(#clip610)" d="M862.87 18.8205 L862.87 41.5461 L873.159 41.5461 Q878.871 41.5461 881.99 38.5889 Q885.11 35.6318 885.11 30.163 Q885.11 24.7348 881.99 21.7777 Q878.871 18.8205 873.159 18.8205 L862.87 18.8205 M854.687 12.096 L873.159 12.096 Q883.327 12.096 888.512 16.714 Q893.738 21.2916 893.738 30.163 Q893.738 39.1155 888.512 43.6931 Q883.327 48.2706 873.159 48.2706 L862.87 48.2706 L862.87 72.576 L854.687 72.576 L854.687 12.096 Z" fill="#000000" fill-rule="nonzero" fill-opacity="1" /><path clip-path="url(#clip610)" d="M912.899 18.8205 L912.899 65.8515 L922.783 65.8515 Q935.3 65.8515 941.093 60.1802 Q946.926 54.509 946.926 42.2752 Q946.926 30.1225 941.093 24.4918 Q935.3 18.8205 922.783 18.8205 L912.899 18.8205 M904.716 12.096 L921.527 12.096 Q939.108 12.096 947.331 19.4281 Q955.555 26.7198 955.555 42.2752 Q955.555 57.9117 947.291 65.2439 Q939.027 72.576 921.527 72.576 L904.716 72.576 L904.716 12.096 Z" fill="#000000" fill-rule="nonzero" fill-opacity="1" /><path clip-path="url(#clip610)" d="M1020.49 39.9662 Q1026.36 41.222 1029.65 45.1919 Q1032.97 49.1618 1032.97 54.9951 Q1032.97 63.9476 1026.81 68.8492 Q1020.65 73.7508 1009.31 73.7508 Q1005.5 73.7508 1001.45 72.9811 Q997.441 72.2519 993.147 70.7531 L993.147 62.8538 Q996.55 64.8388 1000.6 65.8515 Q1004.65 66.8642 1009.07 66.8642 Q1016.76 66.8642 1020.77 63.826 Q1024.83 60.7879 1024.83 54.9951 Q1024.83 49.6479 1021.06 46.6502 Q1017.33 43.612 1010.65 43.612 L1003.6 43.612 L1003.6 36.8875 L1010.97 36.8875 Q1017.01 36.8875 1020.21 34.4975 Q1023.41 32.067 1023.41 27.5299 Q1023.41 22.8714 1020.09 20.4004 Q1016.8 17.8888 1010.65 17.8888 Q1007.28 17.8888 1003.44 18.618 Q999.588 19.3471 994.97 20.8865 L994.97 13.5948 Q999.629 12.2985 1003.68 11.6504 Q1007.77 11.0023 1011.38 11.0023 Q1020.69 11.0023 1026.12 15.2557 Q1031.55 19.4686 1031.55 26.6793 Q1031.55 31.7024 1028.67 35.1862 Q1025.8 38.6294 1020.49 39.9662 Z" fill="#000000" fill-rule="nonzero" fill-opacity="1" /><path clip-path="url(#clip610)" d="M1065.98 17.4837 Q1059.66 17.4837 1056.46 23.7221 Q1053.3 29.92 1053.3 42.3968 Q1053.3 54.833 1056.46 61.0714 Q1059.66 67.2693 1065.98 67.2693 Q1072.34 67.2693 1075.5 61.0714 Q1078.7 54.833 1078.7 42.3968 Q1078.7 29.92 1075.5 23.7221 Q1072.34 17.4837 1065.98 17.4837 M1065.98 11.0023 Q1076.15 11.0023 1081.5 19.0636 Q1086.89 27.0843 1086.89 42.3968 Q1086.89 57.6687 1081.5 65.73 Q1076.15 73.7508 1065.98 73.7508 Q1055.81 73.7508 1050.43 65.73 Q1045.08 57.6687 1045.08 42.3968 Q1045.08 27.0843 1050.43 19.0636 Q1055.81 11.0023 1065.98 11.0023 Z" fill="#000000" fill-rule="nonzero" fill-opacity="1" /><path clip-path="url(#clip610)" d="M1096.45 46.5287 L1118.28 46.5287 L1118.28 53.1722 L1096.45 53.1722 L1096.45 46.5287 Z" fill="#000000" fill-rule="nonzero" fill-opacity="1" /><path clip-path="url(#clip610)" d="M1130.47 12.096 L1165.23 12.096 L1165.23 18.9825 L1138.66 18.9825 L1138.66 36.8065 L1162.64 36.8065 L1162.64 43.6931 L1138.66 43.6931 L1138.66 72.576 L1130.47 72.576 L1130.47 12.096 Z" fill="#000000" fill-rule="nonzero" fill-opacity="1" /><path clip-path="url(#clip610)" d="M1192.49 32.4315 Q1186.5 32.4315 1183.01 37.1306 Q1179.53 41.7891 1179.53 49.9314 Q1179.53 58.0738 1182.97 62.7728 Q1186.46 67.4314 1192.49 67.4314 Q1198.45 67.4314 1201.93 62.7323 Q1205.41 58.0333 1205.41 49.9314 Q1205.41 41.8701 1201.93 37.1711 Q1198.45 32.4315 1192.49 32.4315 M1192.49 26.1121 Q1202.21 26.1121 1207.76 32.4315 Q1213.31 38.7509 1213.31 49.9314 Q1213.31 61.0714 1207.76 67.4314 Q1202.21 73.7508 1192.49 73.7508 Q1182.73 73.7508 1177.18 67.4314 Q1171.67 61.0714 1171.67 49.9314 Q1171.67 38.7509 1177.18 32.4315 Q1182.73 26.1121 1192.49 26.1121 Z" fill="#000000" fill-rule="nonzero" fill-opacity="1" /><path clip-path="url(#clip610)" d="M1225.67 9.54393 L1233.12 9.54393 L1233.12 72.576 L1225.67 72.576 L1225.67 9.54393 Z" fill="#000000" fill-rule="nonzero" fill-opacity="1" /><path clip-path="url(#clip610)" d="M1278.57 34.0924 L1278.57 9.54393 L1286.03 9.54393 L1286.03 72.576 L1278.57 72.576 L1278.57 65.7705 Q1276.22 69.8214 1272.62 71.8063 Q1269.05 73.7508 1264.03 73.7508 Q1255.81 73.7508 1250.62 67.1883 Q1245.48 60.6258 1245.48 49.9314 Q1245.48 39.2371 1250.62 32.6746 Q1255.81 26.1121 1264.03 26.1121 Q1269.05 26.1121 1272.62 28.0971 Q1276.22 30.0415 1278.57 34.0924 M1253.17 49.9314 Q1253.17 58.1548 1256.54 62.8538 Q1259.94 67.5124 1265.85 67.5124 Q1271.77 67.5124 1275.17 62.8538 Q1278.57 58.1548 1278.57 49.9314 Q1278.57 41.7081 1275.17 37.0496 Q1271.77 32.3505 1265.85 32.3505 Q1259.94 32.3505 1256.54 37.0496 Q1253.17 41.7081 1253.17 49.9314 Z" fill="#000000" fill-rule="nonzero" fill-opacity="1" /><path clip-path="url(#clip610)" d="M1328.08 12.096 L1340.27 12.096 L1355.7 53.2532 L1371.22 12.096 L1383.41 12.096 L1383.41 72.576 L1375.43 72.576 L1375.43 19.4686 L1359.83 60.9499 L1351.61 60.9499 L1336.02 19.4686 L1336.02 72.576 L1328.08 72.576 L1328.08 12.096 Z" fill="#000000" fill-rule="nonzero" fill-opacity="1" /><path clip-path="url(#clip610)" d="M1438.14 48.0275 L1438.14 51.6733 L1403.87 51.6733 Q1404.35 59.3701 1408.49 63.421 Q1412.66 67.4314 1420.07 67.4314 Q1424.37 67.4314 1428.38 66.3781 Q1432.43 65.3249 1436.4 63.2184 L1436.4 70.267 Q1432.39 71.9684 1428.17 72.8596 Q1423.96 73.7508 1419.63 73.7508 Q1408.77 73.7508 1402.41 67.4314 Q1396.09 61.1119 1396.09 50.3365 Q1396.09 39.1965 1402.09 32.6746 Q1408.12 26.1121 1418.33 26.1121 Q1427.49 26.1121 1432.79 32.0264 Q1438.14 37.9003 1438.14 48.0275 M1430.69 45.84 Q1430.6 39.7232 1427.24 36.0774 Q1423.92 32.4315 1418.41 32.4315 Q1412.17 32.4315 1408.41 35.9558 Q1404.68 39.4801 1404.11 45.8805 L1430.69 45.84 Z" fill="#000000" fill-rule="nonzero" fill-opacity="1" /><path clip-path="url(#clip610)" d="M1470.99 49.7694 Q1461.96 49.7694 1458.47 51.8354 Q1454.99 53.9013 1454.99 58.8839 Q1454.99 62.8538 1457.58 65.2034 Q1460.22 67.5124 1464.71 67.5124 Q1470.91 67.5124 1474.64 63.1374 Q1478.4 58.7219 1478.4 51.4303 L1478.4 49.7694 L1470.99 49.7694 M1485.86 46.6907 L1485.86 72.576 L1478.4 72.576 L1478.4 65.6895 Q1475.85 69.8214 1472.05 71.8063 Q1468.24 73.7508 1462.73 73.7508 Q1455.76 73.7508 1451.63 69.8619 Q1447.54 65.9325 1447.54 59.3701 Q1447.54 51.7138 1452.64 47.825 Q1457.79 43.9361 1467.95 43.9361 L1478.4 43.9361 L1478.4 43.2069 Q1478.4 38.0623 1475 35.2672 Q1471.64 32.4315 1465.52 32.4315 Q1461.63 32.4315 1457.95 33.3632 Q1454.26 34.295 1450.86 36.1584 L1450.86 29.2718 Q1454.95 27.692 1458.8 26.9223 Q1462.65 26.1121 1466.29 26.1121 Q1476.14 26.1121 1481 31.2163 Q1485.86 36.3204 1485.86 46.6907 Z" fill="#000000" fill-rule="nonzero" fill-opacity="1" /><path clip-path="url(#clip610)" d="M1538.93 45.1919 L1538.93 72.576 L1531.47 72.576 L1531.47 45.4349 Q1531.47 38.994 1528.96 35.7938 Q1526.45 32.5936 1521.43 32.5936 Q1515.39 32.5936 1511.91 36.4419 Q1508.42 40.2903 1508.42 46.9338 L1508.42 72.576 L1500.93 72.576 L1500.93 27.2059 L1508.42 27.2059 L1508.42 34.2544 Q1511.1 30.163 1514.7 28.1376 Q1518.35 26.1121 1523.09 26.1121 Q1530.9 26.1121 1534.92 30.9732 Q1538.93 35.7938 1538.93 45.1919 Z" fill="#000000" fill-rule="nonzero" fill-opacity="1" /><path clip-path="url(#clip610)" d="M1610.5 20.5624 L1610.5 43.1259 L1633.07 43.1259 L1633.07 50.0125 L1610.5 50.0125 L1610.5 72.576 L1603.7 72.576 L1603.7 50.0125 L1581.14 50.0125 L1581.14 43.1259 L1603.7 43.1259 L1603.7 20.5624 L1610.5 20.5624 Z" fill="#000000" fill-rule="nonzero" fill-opacity="1" /><path clip-path="url(#clip610)" d="M1662.92 12.096 L1669.81 12.096 L1648.75 80.2727 L1641.86 80.2727 L1662.92 12.096 Z" fill="#000000" fill-rule="nonzero" fill-opacity="1" /><path clip-path="url(#clip610)" d="M1673.86 46.5287 L1695.7 46.5287 L1695.7 53.1722 L1673.86 53.1722 L1673.86 46.5287 Z" fill="#000000" fill-rule="nonzero" fill-opacity="1" /><path clip-path="url(#clip610)" d="M1735.23 71.3202 L1735.23 63.8666 Q1738.31 65.3249 1741.47 66.0946 Q1744.63 66.8642 1747.67 66.8642 Q1755.77 66.8642 1760.02 61.436 Q1764.32 55.9673 1764.93 44.8678 Q1762.58 48.3516 1758.97 50.215 Q1755.37 52.0784 1750.99 52.0784 Q1741.92 52.0784 1736.61 46.6097 Q1731.34 41.1005 1731.34 31.5808 Q1731.34 22.2638 1736.85 16.633 Q1742.36 11.0023 1751.52 11.0023 Q1762.01 11.0023 1767.52 19.0636 Q1773.07 27.0843 1773.07 42.3968 Q1773.07 56.6965 1766.26 65.2439 Q1759.5 73.7508 1748.03 73.7508 Q1744.95 73.7508 1741.79 73.1431 Q1738.64 72.5355 1735.23 71.3202 M1751.52 45.678 Q1757.03 45.678 1760.23 41.9107 Q1763.47 38.1433 1763.47 31.5808 Q1763.47 25.0589 1760.23 21.2916 Q1757.03 17.4837 1751.52 17.4837 Q1746.01 17.4837 1742.77 21.2916 Q1739.57 25.0589 1739.57 31.5808 Q1739.57 38.1433 1742.77 41.9107 Q1746.01 45.678 1751.52 45.678 Z" fill="#000000" fill-rule="nonzero" fill-opacity="1" /><path clip-path="url(#clip610)" d="M1787.85 12.096 L1819.98 12.096 L1819.98 18.9825 L1795.35 18.9825 L1795.35 33.8088 Q1797.13 33.2012 1798.91 32.9176 Q1800.69 32.5936 1802.48 32.5936 Q1812.6 32.5936 1818.52 38.1433 Q1824.43 43.6931 1824.43 53.1722 Q1824.43 62.9348 1818.36 68.3631 Q1812.28 73.7508 1801.22 73.7508 Q1797.41 73.7508 1793.44 73.1026 Q1789.51 72.4545 1785.3 71.1582 L1785.3 62.9348 Q1788.95 64.9198 1792.84 65.892 Q1796.73 66.8642 1801.06 66.8642 Q1808.07 66.8642 1812.16 63.1779 Q1816.25 59.4916 1816.25 53.1722 Q1816.25 46.8528 1812.16 43.1664 Q1808.07 39.4801 1801.06 39.4801 Q1797.78 39.4801 1794.5 40.2093 Q1791.26 40.9384 1787.85 42.4778 L1787.85 12.096 Z" fill="#000000" fill-rule="nonzero" fill-opacity="1" /><path clip-path="url(#clip610)" d="M1892 45.9616 Q1888.48 45.9616 1886.45 48.9592 Q1884.47 51.9569 1884.47 57.3041 Q1884.47 62.5703 1886.45 65.6084 Q1888.48 68.6061 1892 68.6061 Q1895.45 68.6061 1897.43 65.6084 Q1899.46 62.5703 1899.46 57.3041 Q1899.46 51.9974 1897.43 48.9997 Q1895.45 45.9616 1892 45.9616 M1892 40.8169 Q1898.4 40.8169 1902.17 45.2729 Q1905.94 49.7289 1905.94 57.3041 Q1905.94 64.8793 1902.13 69.3353 Q1898.36 73.7508 1892 73.7508 Q1885.52 73.7508 1881.75 69.3353 Q1877.99 64.8793 1877.99 57.3041 Q1877.99 49.6884 1881.75 45.2729 Q1885.56 40.8169 1892 40.8169 M1850.2 16.1469 Q1846.71 16.1469 1844.69 19.1851 Q1842.7 22.1828 1842.7 27.4489 Q1842.7 32.7961 1844.69 35.7938 Q1846.67 38.7915 1850.2 38.7915 Q1853.72 38.7915 1855.71 35.7938 Q1857.73 32.7961 1857.73 27.4489 Q1857.73 22.2233 1855.71 19.1851 Q1853.68 16.1469 1850.2 16.1469 M1886.78 11.0023 L1893.26 11.0023 L1855.42 73.7508 L1848.94 73.7508 L1886.78 11.0023 M1850.2 11.0023 Q1856.6 11.0023 1860.41 15.4583 Q1864.21 19.8737 1864.21 27.4489 Q1864.21 35.1051 1860.41 39.5206 Q1856.64 43.9361 1850.2 43.9361 Q1843.76 43.9361 1839.99 39.5206 Q1836.26 35.0646 1836.26 27.4489 Q1836.26 19.9142 1840.03 15.4583 Q1843.8 11.0023 1850.2 11.0023 Z" fill="#000000" fill-rule="nonzero" fill-opacity="1" /><path clip-path="url(#clip610)" d="M1990.32 16.7545 L1990.32 25.383 Q1986.19 21.5346 1981.49 19.6307 Q1976.83 17.7268 1971.56 17.7268 Q1961.19 17.7268 1955.68 24.0867 Q1950.17 30.4061 1950.17 42.3968 Q1950.17 54.3469 1955.68 60.7069 Q1961.19 67.0263 1971.56 67.0263 Q1976.83 67.0263 1981.49 65.1223 Q1986.19 63.2184 1990.32 59.3701 L1990.32 67.9175 Q1986.02 70.8341 1981.2 72.2924 Q1976.42 73.7508 1971.08 73.7508 Q1957.34 73.7508 1949.44 65.3654 Q1941.54 56.9395 1941.54 42.3968 Q1941.54 27.8135 1949.44 19.4281 Q1957.34 11.0023 1971.08 11.0023 Q1976.5 11.0023 1981.28 12.4606 Q1986.1 13.8784 1990.32 16.7545 Z" fill="#000000" fill-rule="nonzero" fill-opacity="1" /><path clip-path="url(#clip610)" d="M2002.96 12.096 L2011.14 12.096 L2011.14 72.576 L2002.96 72.576 L2002.96 12.096 Z" fill="#000000" fill-rule="nonzero" fill-opacity="1" /><path clip-path="url(#clip612)" d="M2235.44 1033.7 L2235.44 1423.18 L2080.48 1423.18 L2080.48 1033.7 L2235.44 1033.7 L2235.44 1033.7  Z" fill="#ff7e0d" fill-rule="evenodd" fill-opacity="1"/>
<polyline clip-path="url(#clip612)" style="stroke:#000000; stroke-linecap:round; stroke-linejoin:round; stroke-width:4; stroke-opacity:1; fill:none" points="2235.44,1033.7 2235.44,1423.18 2080.48,1423.18 2080.48,1033.7 2235.44,1033.7 "/>
<path clip-path="url(#clip612)" d="M2041.74 879.522 L2041.74 1423.18 L1886.78 1423.18 L1886.78 879.522 L2041.74 879.522 L2041.74 879.522  Z" fill="#ff7e0d" fill-rule="evenodd" fill-opacity="1"/>
<polyline clip-path="url(#clip612)" style="stroke:#000000; stroke-linecap:round; stroke-linejoin:round; stroke-width:4; stroke-opacity:1; fill:none" points="2041.74,879.522 2041.74,1423.18 1886.78,1423.18 1886.78,879.522 2041.74,879.522 "/>
<path clip-path="url(#clip612)" d="M1848.04 810.239 L1848.04 1423.18 L1693.08 1423.18 L1693.08 810.239 L1848.04 810.239 L1848.04 810.239  Z" fill="#ff7e0d" fill-rule="evenodd" fill-opacity="1"/>
<polyline clip-path="url(#clip612)" style="stroke:#000000; stroke-linecap:round; stroke-linejoin:round; stroke-width:4; stroke-opacity:1; fill:none" points="1848.04,810.239 1848.04,1423.18 1693.08,1423.18 1693.08,810.239 1848.04,810.239 "/>
<path clip-path="url(#clip612)" d="M1654.34 766.67 L1654.34 1423.18 L1499.38 1423.18 L1499.38 766.67 L1654.34 766.67 L1654.34 766.67  Z" fill="#ff7e0d" fill-rule="evenodd" fill-opacity="1"/>
<polyline clip-path="url(#clip612)" style="stroke:#000000; stroke-linecap:round; stroke-linejoin:round; stroke-width:4; stroke-opacity:1; fill:none" points="1654.34,766.67 1654.34,1423.18 1499.38,1423.18 1499.38,766.67 1654.34,766.67 "/>
<path clip-path="url(#clip612)" d="M1460.64 646.29 L1460.64 1423.18 L1305.68 1423.18 L1305.68 646.29 L1460.64 646.29 L1460.64 646.29  Z" fill="#ff7e0d" fill-rule="evenodd" fill-opacity="1"/>
<polyline clip-path="url(#clip612)" style="stroke:#000000; stroke-linecap:round; stroke-linejoin:round; stroke-width:4; stroke-opacity:1; fill:none" points="1460.64,646.29 1460.64,1423.18 1305.68,1423.18 1305.68,646.29 1460.64,646.29 "/>
<path clip-path="url(#clip612)" d="M1266.94 564.211 L1266.94 1423.18 L1111.98 1423.18 L1111.98 564.211 L1266.94 564.211 L1266.94 564.211  Z" fill="#ff7e0d" fill-rule="evenodd" fill-opacity="1"/>
<polyline clip-path="url(#clip612)" style="stroke:#000000; stroke-linecap:round; stroke-linejoin:round; stroke-width:4; stroke-opacity:1; fill:none" points="1266.94,564.211 1266.94,1423.18 1111.98,1423.18 1111.98,564.211 1266.94,564.211 "/>
<path clip-path="url(#clip612)" d="M1073.24 444.949 L1073.24 1423.18 L918.28 1423.18 L918.28 444.949 L1073.24 444.949 L1073.24 444.949  Z" fill="#ff7e0d" fill-rule="evenodd" fill-opacity="1"/>
<polyline clip-path="url(#clip612)" style="stroke:#000000; stroke-linecap:round; stroke-linejoin:round; stroke-width:4; stroke-opacity:1; fill:none" points="1073.24,444.949 1073.24,1423.18 918.28,1423.18 918.28,444.949 1073.24,444.949 "/>
<path clip-path="url(#clip612)" d="M879.54 378.948 L879.54 1423.18 L724.58 1423.18 L724.58 378.948 L879.54 378.948 L879.54 378.948  Z" fill="#ff7e0d" fill-rule="evenodd" fill-opacity="1"/>
<polyline clip-path="url(#clip612)" style="stroke:#000000; stroke-linecap:round; stroke-linejoin:round; stroke-width:4; stroke-opacity:1; fill:none" points="879.54,378.948 879.54,1423.18 724.58,1423.18 724.58,378.948 879.54,378.948 "/>
<path clip-path="url(#clip612)" d="M685.84 313.799 L685.84 1423.18 L530.879 1423.18 L530.879 313.799 L685.84 313.799 L685.84 313.799  Z" fill="#ff7e0d" fill-rule="evenodd" fill-opacity="1"/>
<polyline clip-path="url(#clip612)" style="stroke:#000000; stroke-linecap:round; stroke-linejoin:round; stroke-width:4; stroke-opacity:1; fill:none" points="685.84,313.799 685.84,1423.18 530.879,1423.18 530.879,313.799 685.84,313.799 "/>
<path clip-path="url(#clip612)" d="M492.139 224.749 L492.139 1423.18 L337.179 1423.18 L337.179 224.749 L492.139 224.749 L492.139 224.749  Z" fill="#ff7e0d" fill-rule="evenodd" fill-opacity="1"/>
<polyline clip-path="url(#clip612)" style="stroke:#000000; stroke-linecap:round; stroke-linejoin:round; stroke-width:4; stroke-opacity:1; fill:none" points="492.139,224.749 492.139,1423.18 337.179,1423.18 337.179,224.749 492.139,224.749 "/>
<circle clip-path="url(#clip612)" style="fill:#ff7e0d; stroke:none; fill-opacity:0" cx="2157.96" cy="1033.7" r="2"/>
<circle clip-path="url(#clip612)" style="fill:#ff7e0d; stroke:none; fill-opacity:0" cx="1964.26" cy="879.522" r="2"/>
<circle clip-path="url(#clip612)" style="fill:#ff7e0d; stroke:none; fill-opacity:0" cx="1770.56" cy="810.239" r="2"/>
<circle clip-path="url(#clip612)" style="fill:#ff7e0d; stroke:none; fill-opacity:0" cx="1576.86" cy="766.67" r="2"/>
<circle clip-path="url(#clip612)" style="fill:#ff7e0d; stroke:none; fill-opacity:0" cx="1383.16" cy="646.29" r="2"/>
<circle clip-path="url(#clip612)" style="fill:#ff7e0d; stroke:none; fill-opacity:0" cx="1189.46" cy="564.211" r="2"/>
<circle clip-path="url(#clip612)" style="fill:#ff7e0d; stroke:none; fill-opacity:0" cx="995.76" cy="444.949" r="2"/>
<circle clip-path="url(#clip612)" style="fill:#ff7e0d; stroke:none; fill-opacity:0" cx="802.06" cy="378.948" r="2"/>
<circle clip-path="url(#clip612)" style="fill:#ff7e0d; stroke:none; fill-opacity:0" cx="608.36" cy="313.799" r="2"/>
<circle clip-path="url(#clip612)" style="fill:#ff7e0d; stroke:none; fill-opacity:0" cx="414.659" cy="224.749" r="2"/>
<polyline clip-path="url(#clip612)" style="stroke:#000000; stroke-linecap:round; stroke-linejoin:round; stroke-width:4; stroke-opacity:1; fill:none" points="2157.96,1072.62 2157.96,994.781 "/>
<polyline clip-path="url(#clip612)" style="stroke:#000000; stroke-linecap:round; stroke-linejoin:round; stroke-width:4; stroke-opacity:1; fill:none" points="1964.26,946.807 1964.26,812.236 "/>
<polyline clip-path="url(#clip612)" style="stroke:#000000; stroke-linecap:round; stroke-linejoin:round; stroke-width:4; stroke-opacity:1; fill:none" points="1770.56,866.671 1770.56,753.808 "/>
<polyline clip-path="url(#clip612)" style="stroke:#000000; stroke-linecap:round; stroke-linejoin:round; stroke-width:4; stroke-opacity:1; fill:none" points="1576.86,825.704 1576.86,707.635 "/>
<polyline clip-path="url(#clip612)" style="stroke:#000000; stroke-linecap:round; stroke-linejoin:round; stroke-width:4; stroke-opacity:1; fill:none" points="1383.16,709.655 1383.16,582.924 "/>
<polyline clip-path="url(#clip612)" style="stroke:#000000; stroke-linecap:round; stroke-linejoin:round; stroke-width:4; stroke-opacity:1; fill:none" points="1189.46,632.241 1189.46,496.182 "/>
<polyline clip-path="url(#clip612)" style="stroke:#000000; stroke-linecap:round; stroke-linejoin:round; stroke-width:4; stroke-opacity:1; fill:none" points="995.76,523.206 995.76,366.691 "/>
<polyline clip-path="url(#clip612)" style="stroke:#000000; stroke-linecap:round; stroke-linejoin:round; stroke-width:4; stroke-opacity:1; fill:none" points="802.06,467.697 802.06,290.198 "/>
<polyline clip-path="url(#clip612)" style="stroke:#000000; stroke-linecap:round; stroke-linejoin:round; stroke-width:4; stroke-opacity:1; fill:none" points="608.36,410.214 608.36,217.384 "/>
<polyline clip-path="url(#clip612)" style="stroke:#000000; stroke-linecap:round; stroke-linejoin:round; stroke-width:4; stroke-opacity:1; fill:none" points="414.659,326.026 414.659,123.472 "/>
<line clip-path="url(#clip612)" x1="2173.96" y1="1072.62" x2="2141.96" y2="1072.62" style="stroke:#000000; stroke-width:4; stroke-opacity:1"/>
<line clip-path="url(#clip612)" x1="2173.96" y1="994.781" x2="2141.96" y2="994.781" style="stroke:#000000; stroke-width:4; stroke-opacity:1"/>
<line clip-path="url(#clip612)" x1="1980.26" y1="946.807" x2="1948.26" y2="946.807" style="stroke:#000000; stroke-width:4; stroke-opacity:1"/>
<line clip-path="url(#clip612)" x1="1980.26" y1="812.236" x2="1948.26" y2="812.236" style="stroke:#000000; stroke-width:4; stroke-opacity:1"/>
<line clip-path="url(#clip612)" x1="1786.56" y1="866.671" x2="1754.56" y2="866.671" style="stroke:#000000; stroke-width:4; stroke-opacity:1"/>
<line clip-path="url(#clip612)" x1="1786.56" y1="753.808" x2="1754.56" y2="753.808" style="stroke:#000000; stroke-width:4; stroke-opacity:1"/>
<line clip-path="url(#clip612)" x1="1592.86" y1="825.704" x2="1560.86" y2="825.704" style="stroke:#000000; stroke-width:4; stroke-opacity:1"/>
<line clip-path="url(#clip612)" x1="1592.86" y1="707.635" x2="1560.86" y2="707.635" style="stroke:#000000; stroke-width:4; stroke-opacity:1"/>
<line clip-path="url(#clip612)" x1="1399.16" y1="709.655" x2="1367.16" y2="709.655" style="stroke:#000000; stroke-width:4; stroke-opacity:1"/>
<line clip-path="url(#clip612)" x1="1399.16" y1="582.924" x2="1367.16" y2="582.924" style="stroke:#000000; stroke-width:4; stroke-opacity:1"/>
<line clip-path="url(#clip612)" x1="1205.46" y1="632.241" x2="1173.46" y2="632.241" style="stroke:#000000; stroke-width:4; stroke-opacity:1"/>
<line clip-path="url(#clip612)" x1="1205.46" y1="496.182" x2="1173.46" y2="496.182" style="stroke:#000000; stroke-width:4; stroke-opacity:1"/>
<line clip-path="url(#clip612)" x1="1011.76" y1="523.206" x2="979.76" y2="523.206" style="stroke:#000000; stroke-width:4; stroke-opacity:1"/>
<line clip-path="url(#clip612)" x1="1011.76" y1="366.691" x2="979.76" y2="366.691" style="stroke:#000000; stroke-width:4; stroke-opacity:1"/>
<line clip-path="url(#clip612)" x1="818.06" y1="467.697" x2="786.06" y2="467.697" style="stroke:#000000; stroke-width:4; stroke-opacity:1"/>
<line clip-path="url(#clip612)" x1="818.06" y1="290.198" x2="786.06" y2="290.198" style="stroke:#000000; stroke-width:4; stroke-opacity:1"/>
<line clip-path="url(#clip612)" x1="624.36" y1="410.214" x2="592.36" y2="410.214" style="stroke:#000000; stroke-width:4; stroke-opacity:1"/>
<line clip-path="url(#clip612)" x1="624.36" y1="217.384" x2="592.36" y2="217.384" style="stroke:#000000; stroke-width:4; stroke-opacity:1"/>
<line clip-path="url(#clip612)" x1="430.659" y1="326.026" x2="398.659" y2="326.026" style="stroke:#000000; stroke-width:4; stroke-opacity:1"/>
<line clip-path="url(#clip612)" x1="430.659" y1="123.472" x2="398.659" y2="123.472" style="stroke:#000000; stroke-width:4; stroke-opacity:1"/>
</svg>
