<?xml version="1.0" encoding="utf-8"?>
<svg xmlns="http://www.w3.org/2000/svg" xmlns:xlink="http://www.w3.org/1999/xlink" width="600" height="400" viewBox="0 0 2400 1600">
<defs>
  <clipPath id="clip920">
    <rect x="0" y="0" width="2400" height="1600"/>
  </clipPath>
</defs>
<path clip-path="url(#clip920)" d="M0 1600 L2400 1600 L2400 8.88178e-14 L0 8.88178e-14  Z" fill="#ffffff" fill-rule="evenodd" fill-opacity="1"/>
<defs>
  <clipPath id="clip921">
    <rect x="480" y="0" width="1681" height="1600"/>
  </clipPath>
</defs>
<path clip-path="url(#clip920)" d="M219.866 1423.18 L2352.76 1423.18 L2352.76 123.472 L219.866 123.472  Z" fill="#ffffff" fill-rule="evenodd" fill-opacity="1"/>
<defs>
  <clipPath id="clip922">
    <rect x="219" y="123" width="2134" height="1301"/>
  </clipPath>
</defs>
<polyline clip-path="url(#clip922)" style="stroke:#000000; stroke-linecap:round; stroke-linejoin:round; stroke-width:2; stroke-opacity:0.1; fill:none" points="2157.96,1423.18 2157.96,123.472 "/>
<polyline clip-path="url(#clip922)" style="stroke:#000000; stroke-linecap:round; stroke-linejoin:round; stroke-width:2; stroke-opacity:0.1; fill:none" points="1964.26,1423.18 1964.26,123.472 "/>
<polyline clip-path="url(#clip922)" style="stroke:#000000; stroke-linecap:round; stroke-linejoin:round; stroke-width:2; stroke-opacity:0.1; fill:none" points="1770.56,1423.18 1770.56,123.472 "/>
<polyline clip-path="url(#clip922)" style="stroke:#000000; stroke-linecap:round; stroke-linejoin:round; stroke-width:2; stroke-opacity:0.1; fill:none" points="1576.86,1423.18 1576.86,123.472 "/>
<polyline clip-path="url(#clip922)" style="stroke:#000000; stroke-linecap:round; stroke-linejoin:round; stroke-width:2; stroke-opacity:0.1; fill:none" points="1383.16,1423.18 1383.16,123.472 "/>
<polyline clip-path="url(#clip922)" style="stroke:#000000; stroke-linecap:round; stroke-linejoin:round; stroke-width:2; stroke-opacity:0.1; fill:none" points="1189.46,1423.18 1189.46,123.472 "/>
<polyline clip-path="url(#clip922)" style="stroke:#000000; stroke-linecap:round; stroke-linejoin:round; stroke-width:2; stroke-opacity:0.1; fill:none" points="995.76,1423.18 995.76,123.472 "/>
<polyline clip-path="url(#clip922)" style="stroke:#000000; stroke-linecap:round; stroke-linejoin:round; stroke-width:2; stroke-opacity:0.1; fill:none" points="802.06,1423.18 802.06,123.472 "/>
<polyline clip-path="url(#clip922)" style="stroke:#000000; stroke-linecap:round; stroke-linejoin:round; stroke-width:2; stroke-opacity:0.1; fill:none" points="608.36,1423.18 608.36,123.472 "/>
<polyline clip-path="url(#clip922)" style="stroke:#000000; stroke-linecap:round; stroke-linejoin:round; stroke-width:2; stroke-opacity:0.1; fill:none" points="414.659,1423.18 414.659,123.472 "/>
<polyline clip-path="url(#clip922)" style="stroke:#000000; stroke-linecap:round; stroke-linejoin:round; stroke-width:2; stroke-opacity:0.1; fill:none" points="2352.76,1423.18 219.866,1423.18 "/>
<polyline clip-path="url(#clip922)" style="stroke:#000000; stroke-linecap:round; stroke-linejoin:round; stroke-width:2; stroke-opacity:0.1; fill:none" points="2352.76,1205.24 219.866,1205.24 "/>
<polyline clip-path="url(#clip922)" style="stroke:#000000; stroke-linecap:round; stroke-linejoin:round; stroke-width:2; stroke-opacity:0.1; fill:none" points="2352.76,987.293 219.866,987.293 "/>
<polyline clip-path="url(#clip922)" style="stroke:#000000; stroke-linecap:round; stroke-linejoin:round; stroke-width:2; stroke-opacity:0.1; fill:none" points="2352.76,769.35 219.866,769.35 "/>
<polyline clip-path="url(#clip922)" style="stroke:#000000; stroke-linecap:round; stroke-linejoin:round; stroke-width:2; stroke-opacity:0.1; fill:none" points="2352.76,551.407 219.866,551.407 "/>
<polyline clip-path="url(#clip922)" style="stroke:#000000; stroke-linecap:round; stroke-linejoin:round; stroke-width:2; stroke-opacity:0.1; fill:none" points="2352.76,333.464 219.866,333.464 "/>
<polyline clip-path="url(#clip920)" style="stroke:#000000; stroke-linecap:round; stroke-linejoin:round; stroke-width:4; stroke-opacity:1; fill:none" points="2352.76,1423.18 219.866,1423.18 "/>
<polyline clip-path="url(#clip920)" style="stroke:#000000; stroke-linecap:round; stroke-linejoin:round; stroke-width:4; stroke-opacity:1; fill:none" points="2157.96,1423.18 2157.96,1404.28 "/>
<polyline clip-path="url(#clip920)" style="stroke:#000000; stroke-linecap:round; stroke-linejoin:round; stroke-width:4; stroke-opacity:1; fill:none" points="1964.26,1423.18 1964.26,1404.28 "/>
<polyline clip-path="url(#clip920)" style="stroke:#000000; stroke-linecap:round; stroke-linejoin:round; stroke-width:4; stroke-opacity:1; fill:none" points="1770.56,1423.18 1770.56,1404.28 "/>
<polyline clip-path="url(#clip920)" style="stroke:#000000; stroke-linecap:round; stroke-linejoin:round; stroke-width:4; stroke-opacity:1; fill:none" points="1576.86,1423.18 1576.86,1404.28 "/>
<polyline clip-path="url(#clip920)" style="stroke:#000000; stroke-linecap:round; stroke-linejoin:round; stroke-width:4; stroke-opacity:1; fill:none" points="1383.16,1423.18 1383.16,1404.28 "/>
<polyline clip-path="url(#clip920)" style="stroke:#000000; stroke-linecap:round; stroke-linejoin:round; stroke-width:4; stroke-opacity:1; fill:none" points="1189.46,1423.18 1189.46,1404.28 "/>
<polyline clip-path="url(#clip920)" style="stroke:#000000; stroke-linecap:round; stroke-linejoin:round; stroke-width:4; stroke-opacity:1; fill:none" points="995.76,1423.18 995.76,1404.28 "/>
<polyline clip-path="url(#clip920)" style="stroke:#000000; stroke-linecap:round; stroke-linejoin:round; stroke-width:4; stroke-opacity:1; fill:none" points="802.06,1423.18 802.06,1404.28 "/>
<polyline clip-path="url(#clip920)" style="stroke:#000000; stroke-linecap:round; stroke-linejoin:round; stroke-width:4; stroke-opacity:1; fill:none" points="608.36,1423.18 608.36,1404.28 "/>
<polyline clip-path="url(#clip920)" style="stroke:#000000; stroke-linecap:round; stroke-linejoin:round; stroke-width:4; stroke-opacity:1; fill:none" points="414.659,1423.18 414.659,1404.28 "/>
<path clip-path="url(#clip920)" d="M2148.24 1451.02 L2166.6 1451.02 L2166.6 1454.96 L2152.52 1454.96 L2152.52 1463.43 Q2153.54 1463.08 2154.56 1462.92 Q2155.58 1462.73 2156.6 1462.73 Q2162.38 1462.73 2165.76 1465.9 Q2169.14 1469.08 2169.14 1474.49 Q2169.14 1480.07 2165.67 1483.17 Q2162.2 1486.25 2155.88 1486.25 Q2153.7 1486.25 2151.44 1485.88 Q2149.19 1485.51 2146.78 1484.77 L2146.78 1480.07 Q2148.87 1481.2 2151.09 1481.76 Q2153.31 1482.32 2155.79 1482.32 Q2159.79 1482.32 2162.13 1480.21 Q2164.47 1478.1 2164.47 1474.49 Q2164.47 1470.88 2162.13 1468.77 Q2159.79 1466.67 2155.79 1466.67 Q2153.91 1466.67 2152.04 1467.08 Q2150.19 1467.5 2148.24 1468.38 L2148.24 1451.02 Z" fill="#000000" fill-rule="nonzero" fill-opacity="1" /><path clip-path="url(#clip920)" d="M1939.45 1481.64 L1947.09 1481.64 L1947.09 1455.28 L1938.78 1456.95 L1938.78 1452.69 L1947.04 1451.02 L1951.72 1451.02 L1951.72 1481.64 L1959.36 1481.64 L1959.36 1485.58 L1939.45 1485.58 L1939.45 1481.64 Z" fill="#000000" fill-rule="nonzero" fill-opacity="1" /><path clip-path="url(#clip920)" d="M1968.85 1451.02 L1987.2 1451.02 L1987.2 1454.96 L1973.13 1454.96 L1973.13 1463.43 Q1974.15 1463.08 1975.17 1462.92 Q1976.18 1462.73 1977.2 1462.73 Q1982.99 1462.73 1986.37 1465.9 Q1989.75 1469.08 1989.75 1474.49 Q1989.75 1480.07 1986.28 1483.17 Q1982.8 1486.25 1976.48 1486.25 Q1974.31 1486.25 1972.04 1485.88 Q1969.79 1485.51 1967.39 1484.77 L1967.39 1480.07 Q1969.47 1481.2 1971.69 1481.76 Q1973.92 1482.32 1976.39 1482.32 Q1980.4 1482.32 1982.73 1480.21 Q1985.07 1478.1 1985.07 1474.49 Q1985.07 1470.88 1982.73 1468.77 Q1980.4 1466.67 1976.39 1466.67 Q1974.52 1466.67 1972.64 1467.08 Q1970.79 1467.5 1968.85 1468.38 L1968.85 1451.02 Z" fill="#000000" fill-rule="nonzero" fill-opacity="1" /><path clip-path="url(#clip920)" d="M1749.83 1481.64 L1766.15 1481.64 L1766.15 1485.58 L1744.21 1485.58 L1744.21 1481.64 Q1746.87 1478.89 1751.45 1474.26 Q1756.06 1469.61 1757.24 1468.27 Q1759.49 1465.74 1760.37 1464.01 Q1761.27 1462.25 1761.27 1460.56 Q1761.27 1457.8 1759.32 1456.07 Q1757.4 1454.33 1754.3 1454.33 Q1752.1 1454.33 1749.65 1455.09 Q1747.22 1455.86 1744.44 1457.41 L1744.44 1452.69 Q1747.26 1451.55 1749.72 1450.97 Q1752.17 1450.39 1754.21 1450.39 Q1759.58 1450.39 1762.77 1453.08 Q1765.97 1455.77 1765.97 1460.26 Q1765.97 1462.39 1765.16 1464.31 Q1764.37 1466.2 1762.26 1468.8 Q1761.68 1469.47 1758.58 1472.69 Q1755.48 1475.88 1749.83 1481.64 Z" fill="#000000" fill-rule="nonzero" fill-opacity="1" /><path clip-path="url(#clip920)" d="M1776.01 1451.02 L1794.37 1451.02 L1794.37 1454.96 L1780.3 1454.96 L1780.3 1463.43 Q1781.31 1463.08 1782.33 1462.92 Q1783.35 1462.73 1784.37 1462.73 Q1790.16 1462.73 1793.54 1465.9 Q1796.92 1469.08 1796.92 1474.49 Q1796.92 1480.07 1793.44 1483.17 Q1789.97 1486.25 1783.65 1486.25 Q1781.48 1486.25 1779.21 1485.88 Q1776.96 1485.51 1774.56 1484.77 L1774.56 1480.07 Q1776.64 1481.2 1778.86 1481.76 Q1781.08 1482.32 1783.56 1482.32 Q1787.56 1482.32 1789.9 1480.21 Q1792.24 1478.1 1792.24 1474.49 Q1792.24 1470.88 1789.9 1468.77 Q1787.56 1466.67 1783.56 1466.67 Q1781.68 1466.67 1779.81 1467.08 Q1777.96 1467.5 1776.01 1468.38 L1776.01 1451.02 Z" fill="#000000" fill-rule="nonzero" fill-opacity="1" /><path clip-path="url(#clip920)" d="M1566.2 1466.95 Q1569.56 1467.66 1571.43 1469.93 Q1573.33 1472.2 1573.33 1475.53 Q1573.33 1480.65 1569.81 1483.45 Q1566.29 1486.25 1559.81 1486.25 Q1557.64 1486.25 1555.32 1485.81 Q1553.03 1485.39 1550.58 1484.54 L1550.58 1480.02 Q1552.52 1481.16 1554.84 1481.74 Q1557.15 1482.32 1559.67 1482.32 Q1564.07 1482.32 1566.36 1480.58 Q1568.68 1478.84 1568.68 1475.53 Q1568.68 1472.48 1566.53 1470.77 Q1564.4 1469.03 1560.58 1469.03 L1556.55 1469.03 L1556.55 1465.19 L1560.76 1465.19 Q1564.21 1465.19 1566.04 1463.82 Q1567.87 1462.43 1567.87 1459.84 Q1567.87 1457.18 1565.97 1455.77 Q1564.1 1454.33 1560.58 1454.33 Q1558.66 1454.33 1556.46 1454.75 Q1554.26 1455.16 1551.62 1456.04 L1551.62 1451.88 Q1554.28 1451.14 1556.6 1450.77 Q1558.93 1450.39 1560.99 1450.39 Q1566.32 1450.39 1569.42 1452.83 Q1572.52 1455.23 1572.52 1459.35 Q1572.52 1462.22 1570.88 1464.21 Q1569.23 1466.18 1566.2 1466.95 Z" fill="#000000" fill-rule="nonzero" fill-opacity="1" /><path clip-path="url(#clip920)" d="M1582.24 1451.02 L1600.6 1451.02 L1600.6 1454.96 L1586.53 1454.96 L1586.53 1463.43 Q1587.54 1463.08 1588.56 1462.92 Q1589.58 1462.73 1590.6 1462.73 Q1596.39 1462.73 1599.77 1465.9 Q1603.15 1469.08 1603.15 1474.49 Q1603.15 1480.07 1599.67 1483.17 Q1596.2 1486.25 1589.88 1486.25 Q1587.71 1486.25 1585.44 1485.88 Q1583.19 1485.51 1580.79 1484.77 L1580.79 1480.07 Q1582.87 1481.2 1585.09 1481.76 Q1587.31 1482.32 1589.79 1482.32 Q1593.79 1482.32 1596.13 1480.21 Q1598.47 1478.1 1598.47 1474.49 Q1598.47 1470.88 1596.13 1468.77 Q1593.79 1466.67 1589.79 1466.67 Q1587.91 1466.67 1586.04 1467.08 Q1584.19 1467.5 1582.24 1468.38 L1582.24 1451.02 Z" fill="#000000" fill-rule="nonzero" fill-opacity="1" /><path clip-path="url(#clip920)" d="M1371.83 1455.09 L1360.02 1473.54 L1371.83 1473.54 L1371.83 1455.09 M1370.6 1451.02 L1376.48 1451.02 L1376.48 1473.54 L1381.41 1473.54 L1381.41 1477.43 L1376.48 1477.43 L1376.48 1485.58 L1371.83 1485.58 L1371.83 1477.43 L1356.23 1477.43 L1356.23 1472.92 L1370.6 1451.02 Z" fill="#000000" fill-rule="nonzero" fill-opacity="1" /><path clip-path="url(#clip920)" d="M1389.19 1451.02 L1407.55 1451.02 L1407.55 1454.96 L1393.47 1454.96 L1393.47 1463.43 Q1394.49 1463.08 1395.51 1462.92 Q1396.53 1462.73 1397.55 1462.73 Q1403.33 1462.73 1406.71 1465.9 Q1410.09 1469.08 1410.09 1474.49 Q1410.09 1480.07 1406.62 1483.17 Q1403.15 1486.25 1396.83 1486.25 Q1394.65 1486.25 1392.39 1485.88 Q1390.14 1485.51 1387.73 1484.77 L1387.73 1480.07 Q1389.82 1481.2 1392.04 1481.76 Q1394.26 1482.32 1396.74 1482.32 Q1400.74 1482.32 1403.08 1480.21 Q1405.42 1478.1 1405.42 1474.49 Q1405.42 1470.88 1403.08 1468.77 Q1400.74 1466.67 1396.74 1466.67 Q1394.86 1466.67 1392.99 1467.08 Q1391.14 1467.5 1389.19 1468.38 L1389.19 1451.02 Z" fill="#000000" fill-rule="nonzero" fill-opacity="1" /><path clip-path="url(#clip920)" d="M1164.66 1451.02 L1183.01 1451.02 L1183.01 1454.96 L1168.94 1454.96 L1168.94 1463.43 Q1169.96 1463.08 1170.98 1462.92 Q1172 1462.73 1173.01 1462.73 Q1178.8 1462.73 1182.18 1465.9 Q1185.56 1469.08 1185.56 1474.49 Q1185.56 1480.07 1182.09 1483.17 Q1178.62 1486.25 1172.3 1486.25 Q1170.12 1486.25 1167.85 1485.88 Q1165.61 1485.51 1163.2 1484.77 L1163.2 1480.07 Q1165.28 1481.2 1167.5 1481.76 Q1169.73 1482.32 1172.2 1482.32 Q1176.21 1482.32 1178.55 1480.21 Q1180.88 1478.1 1180.88 1474.49 Q1180.88 1470.88 1178.55 1468.77 Q1176.21 1466.67 1172.2 1466.67 Q1170.33 1466.67 1168.45 1467.08 Q1166.6 1467.5 1164.66 1468.38 L1164.66 1451.02 Z" fill="#000000" fill-rule="nonzero" fill-opacity="1" /><path clip-path="url(#clip920)" d="M1194.82 1451.02 L1213.18 1451.02 L1213.18 1454.96 L1199.1 1454.96 L1199.1 1463.43 Q1200.12 1463.08 1201.14 1462.92 Q1202.16 1462.73 1203.18 1462.73 Q1208.96 1462.73 1212.34 1465.9 Q1215.72 1469.08 1215.72 1474.49 Q1215.72 1480.07 1212.25 1483.17 Q1208.78 1486.25 1202.46 1486.25 Q1200.28 1486.25 1198.01 1485.88 Q1195.77 1485.51 1193.36 1484.77 L1193.36 1480.07 Q1195.44 1481.2 1197.67 1481.76 Q1199.89 1482.32 1202.37 1482.32 Q1206.37 1482.32 1208.71 1480.21 Q1211.05 1478.1 1211.05 1474.49 Q1211.05 1470.88 1208.71 1468.77 Q1206.37 1466.67 1202.37 1466.67 Q1200.49 1466.67 1198.62 1467.08 Q1196.76 1467.5 1194.82 1468.38 L1194.82 1451.02 Z" fill="#000000" fill-rule="nonzero" fill-opacity="1" /><path clip-path="url(#clip920)" d="M981.663 1466.44 Q978.515 1466.44 976.663 1468.59 Q974.835 1470.74 974.835 1474.49 Q974.835 1478.22 976.663 1480.39 Q978.515 1482.55 981.663 1482.55 Q984.811 1482.55 986.64 1480.39 Q988.492 1478.22 988.492 1474.49 Q988.492 1470.74 986.64 1468.59 Q984.811 1466.44 981.663 1466.44 M990.946 1451.78 L990.946 1456.04 Q989.186 1455.21 987.381 1454.77 Q985.598 1454.33 983.839 1454.33 Q979.21 1454.33 976.756 1457.45 Q974.325 1460.58 973.978 1466.9 Q975.344 1464.89 977.404 1463.82 Q979.464 1462.73 981.941 1462.73 Q987.149 1462.73 990.159 1465.9 Q993.191 1469.05 993.191 1474.49 Q993.191 1479.82 990.043 1483.03 Q986.895 1486.25 981.663 1486.25 Q975.668 1486.25 972.497 1481.67 Q969.325 1477.06 969.325 1468.33 Q969.325 1460.14 973.214 1455.28 Q977.103 1450.39 983.654 1450.39 Q985.413 1450.39 987.196 1450.74 Q989.001 1451.09 990.946 1451.78 Z" fill="#000000" fill-rule="nonzero" fill-opacity="1" /><path clip-path="url(#clip920)" d="M1001.29 1451.02 L1019.65 1451.02 L1019.65 1454.96 L1005.58 1454.96 L1005.58 1463.43 Q1006.59 1463.08 1007.61 1462.92 Q1008.63 1462.73 1009.65 1462.73 Q1015.44 1462.73 1018.82 1465.9 Q1022.2 1469.08 1022.2 1474.49 Q1022.2 1480.07 1018.72 1483.17 Q1015.25 1486.25 1008.93 1486.25 Q1006.76 1486.25 1004.49 1485.88 Q1002.24 1485.51 999.834 1484.77 L999.834 1480.07 Q1001.92 1481.2 1004.14 1481.76 Q1006.36 1482.32 1008.84 1482.32 Q1012.84 1482.32 1015.18 1480.21 Q1017.52 1478.1 1017.52 1474.49 Q1017.52 1470.88 1015.18 1468.77 Q1012.84 1466.67 1008.84 1466.67 Q1006.96 1466.67 1005.09 1467.08 Q1003.24 1467.5 1001.29 1468.38 L1001.29 1451.02 Z" fill="#000000" fill-rule="nonzero" fill-opacity="1" /><path clip-path="url(#clip920)" d="M775.914 1451.02 L798.136 1451.02 L798.136 1453.01 L785.59 1485.58 L780.706 1485.58 L792.511 1454.96 L775.914 1454.96 L775.914 1451.02 Z" fill="#000000" fill-rule="nonzero" fill-opacity="1" /><path clip-path="url(#clip920)" d="M807.303 1451.02 L825.659 1451.02 L825.659 1454.96 L811.585 1454.96 L811.585 1463.43 Q812.604 1463.08 813.622 1462.92 Q814.641 1462.73 815.659 1462.73 Q821.446 1462.73 824.826 1465.9 Q828.206 1469.08 828.206 1474.49 Q828.206 1480.07 824.734 1483.17 Q821.261 1486.25 814.942 1486.25 Q812.766 1486.25 810.497 1485.88 Q808.252 1485.51 805.845 1484.77 L805.845 1480.07 Q807.928 1481.2 810.15 1481.76 Q812.372 1482.32 814.849 1482.32 Q818.854 1482.32 821.192 1480.21 Q823.53 1478.1 823.53 1474.49 Q823.53 1470.88 821.192 1468.77 Q818.854 1466.67 814.849 1466.67 Q812.974 1466.67 811.099 1467.08 Q809.247 1467.5 807.303 1468.38 L807.303 1451.02 Z" fill="#000000" fill-rule="nonzero" fill-opacity="1" /><path clip-path="url(#clip920)" d="M593.73 1469.17 Q590.397 1469.17 588.475 1470.95 Q586.577 1472.73 586.577 1475.86 Q586.577 1478.98 588.475 1480.77 Q590.397 1482.55 593.73 1482.55 Q597.063 1482.55 598.985 1480.77 Q600.906 1478.96 600.906 1475.86 Q600.906 1472.73 598.985 1470.95 Q597.087 1469.17 593.73 1469.17 M589.054 1467.18 Q586.045 1466.44 584.355 1464.38 Q582.688 1462.32 582.688 1459.35 Q582.688 1455.21 585.628 1452.8 Q588.591 1450.39 593.73 1450.39 Q598.892 1450.39 601.832 1452.8 Q604.772 1455.21 604.772 1459.35 Q604.772 1462.32 603.082 1464.38 Q601.415 1466.44 598.429 1467.18 Q601.809 1467.96 603.684 1470.26 Q605.582 1472.55 605.582 1475.86 Q605.582 1480.88 602.503 1483.57 Q599.448 1486.25 593.73 1486.25 Q588.012 1486.25 584.934 1483.57 Q581.878 1480.88 581.878 1475.86 Q581.878 1472.55 583.776 1470.26 Q585.675 1467.96 589.054 1467.18 M587.341 1459.79 Q587.341 1462.48 589.008 1463.98 Q590.698 1465.49 593.73 1465.49 Q596.739 1465.49 598.429 1463.98 Q600.142 1462.48 600.142 1459.79 Q600.142 1457.11 598.429 1455.6 Q596.739 1454.1 593.73 1454.1 Q590.698 1454.1 589.008 1455.6 Q587.341 1457.11 587.341 1459.79 Z" fill="#000000" fill-rule="nonzero" fill-opacity="1" /><path clip-path="url(#clip920)" d="M613.938 1451.02 L632.295 1451.02 L632.295 1454.96 L618.221 1454.96 L618.221 1463.43 Q619.239 1463.08 620.258 1462.92 Q621.276 1462.73 622.295 1462.73 Q628.082 1462.73 631.461 1465.9 Q634.841 1469.08 634.841 1474.49 Q634.841 1480.07 631.369 1483.17 Q627.897 1486.25 621.577 1486.25 Q619.401 1486.25 617.133 1485.88 Q614.887 1485.51 612.48 1484.77 L612.48 1480.07 Q614.563 1481.2 616.785 1481.76 Q619.008 1482.32 621.485 1482.32 Q625.489 1482.32 627.827 1480.21 Q630.165 1478.1 630.165 1474.49 Q630.165 1470.88 627.827 1468.77 Q625.489 1466.67 621.485 1466.67 Q619.61 1466.67 617.735 1467.08 Q615.883 1467.5 613.938 1468.38 L613.938 1451.02 Z" fill="#000000" fill-rule="nonzero" fill-opacity="1" /><path clip-path="url(#clip920)" d="M390.284 1484.86 L390.284 1480.6 Q392.044 1481.44 393.849 1481.88 Q395.655 1482.32 397.391 1482.32 Q402.02 1482.32 404.451 1479.21 Q406.905 1476.09 407.252 1469.75 Q405.909 1471.74 403.849 1472.8 Q401.789 1473.87 399.289 1473.87 Q394.104 1473.87 391.071 1470.74 Q388.062 1467.59 388.062 1462.15 Q388.062 1456.83 391.21 1453.61 Q394.358 1450.39 399.59 1450.39 Q405.585 1450.39 408.733 1455 Q411.905 1459.58 411.905 1468.33 Q411.905 1476.51 408.016 1481.39 Q404.15 1486.25 397.599 1486.25 Q395.84 1486.25 394.034 1485.9 Q392.229 1485.56 390.284 1484.86 M399.59 1470.21 Q402.738 1470.21 404.567 1468.06 Q406.418 1465.9 406.418 1462.15 Q406.418 1458.43 404.567 1456.27 Q402.738 1454.1 399.59 1454.1 Q396.442 1454.1 394.59 1456.27 Q392.761 1458.43 392.761 1462.15 Q392.761 1465.9 394.59 1468.06 Q396.442 1470.21 399.59 1470.21 Z" fill="#000000" fill-rule="nonzero" fill-opacity="1" /><path clip-path="url(#clip920)" d="M420.354 1451.02 L438.71 1451.02 L438.71 1454.96 L424.636 1454.96 L424.636 1463.43 Q425.654 1463.08 426.673 1462.92 Q427.692 1462.73 428.71 1462.73 Q434.497 1462.73 437.877 1465.9 Q441.256 1469.08 441.256 1474.49 Q441.256 1480.07 437.784 1483.17 Q434.312 1486.25 427.992 1486.25 Q425.817 1486.25 423.548 1485.88 Q421.303 1485.51 418.895 1484.77 L418.895 1480.07 Q420.979 1481.2 423.201 1481.76 Q425.423 1482.32 427.9 1482.32 Q431.904 1482.32 434.242 1480.21 Q436.58 1478.1 436.58 1474.49 Q436.58 1470.88 434.242 1468.77 Q431.904 1466.67 427.9 1466.67 Q426.025 1466.67 424.15 1467.08 Q422.298 1467.5 420.354 1468.38 L420.354 1451.02 Z" fill="#000000" fill-rule="nonzero" fill-opacity="1" /><path clip-path="url(#clip920)" d="M1084.6 1547.13 Q1081.83 1547.13 1080.24 1549.49 Q1078.68 1551.84 1078.68 1556.04 Q1078.68 1560.18 1080.24 1562.57 Q1081.83 1564.92 1084.6 1564.92 Q1087.3 1564.92 1088.86 1562.57 Q1090.45 1560.18 1090.45 1556.04 Q1090.45 1551.87 1088.86 1549.52 Q1087.3 1547.13 1084.6 1547.13 M1084.6 1543.09 Q1089.63 1543.09 1092.59 1546.59 Q1095.55 1550.09 1095.55 1556.04 Q1095.55 1562 1092.55 1565.5 Q1089.59 1568.97 1084.6 1568.97 Q1079.51 1568.97 1076.55 1565.5 Q1073.59 1562 1073.59 1556.04 Q1073.59 1550.06 1076.55 1546.59 Q1079.54 1543.09 1084.6 1543.09 M1051.75 1523.71 Q1049.01 1523.71 1047.42 1526.09 Q1045.86 1528.45 1045.86 1532.59 Q1045.86 1536.79 1047.42 1539.14 Q1048.98 1541.5 1051.75 1541.5 Q1054.52 1541.5 1056.08 1539.14 Q1057.67 1536.79 1057.67 1532.59 Q1057.67 1528.48 1056.08 1526.09 Q1054.49 1523.71 1051.75 1523.71 M1080.49 1519.66 L1085.58 1519.66 L1055.86 1568.97 L1050.76 1568.97 L1080.49 1519.66 M1051.75 1519.66 Q1056.78 1519.66 1059.77 1523.17 Q1062.76 1526.63 1062.76 1532.59 Q1062.76 1538.6 1059.77 1542.07 Q1056.81 1545.54 1051.75 1545.54 Q1046.69 1545.54 1043.73 1542.07 Q1040.8 1538.57 1040.8 1532.59 Q1040.8 1526.67 1043.76 1523.17 Q1046.72 1519.66 1051.75 1519.66 Z" fill="#000000" fill-rule="nonzero" fill-opacity="1" /><path clip-path="url(#clip920)" d="M1149.46 1537.81 L1149.46 1518.52 L1155.32 1518.52 L1155.32 1568.04 L1149.46 1568.04 L1149.46 1562.7 Q1147.62 1565.88 1144.79 1567.44 Q1141.98 1568.97 1138.04 1568.97 Q1131.58 1568.97 1127.5 1563.81 Q1123.46 1558.65 1123.46 1550.25 Q1123.46 1541.85 1127.5 1536.69 Q1131.58 1531.54 1138.04 1531.54 Q1141.98 1531.54 1144.79 1533.1 Q1147.62 1534.62 1149.46 1537.81 M1129.51 1550.25 Q1129.51 1556.71 1132.15 1560.4 Q1134.82 1564.07 1139.47 1564.07 Q1144.12 1564.07 1146.79 1560.4 Q1149.46 1556.71 1149.46 1550.25 Q1149.46 1543.79 1146.79 1540.13 Q1144.12 1536.44 1139.47 1536.44 Q1134.82 1536.44 1132.15 1540.13 Q1129.51 1543.79 1129.51 1550.25 Z" fill="#000000" fill-rule="nonzero" fill-opacity="1" /><path clip-path="url(#clip920)" d="M1183.58 1550.12 Q1176.49 1550.12 1173.75 1551.75 Q1171.01 1553.37 1171.01 1557.29 Q1171.01 1560.4 1173.05 1562.25 Q1175.12 1564.07 1178.65 1564.07 Q1183.52 1564.07 1186.45 1560.63 Q1189.41 1557.16 1189.41 1551.43 L1189.41 1550.12 L1183.58 1550.12 M1195.27 1547.71 L1195.27 1568.04 L1189.41 1568.04 L1189.41 1562.63 Q1187.4 1565.88 1184.41 1567.44 Q1181.42 1568.97 1177.09 1568.97 Q1171.62 1568.97 1168.37 1565.91 Q1165.16 1562.82 1165.16 1557.67 Q1165.16 1551.65 1169.17 1548.6 Q1173.21 1545.54 1181.2 1545.54 L1189.41 1545.54 L1189.41 1544.97 Q1189.41 1540.93 1186.74 1538.73 Q1184.09 1536.5 1179.29 1536.5 Q1176.23 1536.5 1173.34 1537.23 Q1170.44 1537.97 1167.77 1539.43 L1167.77 1534.02 Q1170.98 1532.78 1174 1532.17 Q1177.03 1531.54 1179.89 1531.54 Q1187.63 1531.54 1191.45 1535.55 Q1195.27 1539.56 1195.27 1547.71 Z" fill="#000000" fill-rule="nonzero" fill-opacity="1" /><path clip-path="url(#clip920)" d="M1213.12 1522.27 L1213.12 1532.4 L1225.18 1532.4 L1225.18 1536.95 L1213.12 1536.95 L1213.12 1556.3 Q1213.12 1560.66 1214.3 1561.9 Q1215.51 1563.14 1219.17 1563.14 L1225.18 1563.14 L1225.18 1568.04 L1219.17 1568.04 Q1212.39 1568.04 1209.81 1565.53 Q1207.23 1562.98 1207.23 1556.3 L1207.23 1536.95 L1202.94 1536.95 L1202.94 1532.4 L1207.23 1532.4 L1207.23 1522.27 L1213.12 1522.27 Z" fill="#000000" fill-rule="nonzero" fill-opacity="1" /><path clip-path="url(#clip920)" d="M1249.09 1550.12 Q1241.99 1550.12 1239.25 1551.75 Q1236.52 1553.37 1236.52 1557.29 Q1236.52 1560.4 1238.55 1562.25 Q1240.62 1564.07 1244.15 1564.07 Q1249.02 1564.07 1251.95 1560.63 Q1254.91 1557.16 1254.91 1551.43 L1254.91 1550.12 L1249.09 1550.12 M1260.77 1547.71 L1260.77 1568.04 L1254.91 1568.04 L1254.91 1562.63 Q1252.91 1565.88 1249.92 1567.44 Q1246.92 1568.97 1242.59 1568.97 Q1237.12 1568.97 1233.87 1565.91 Q1230.66 1562.82 1230.66 1557.67 Q1230.66 1551.65 1234.67 1548.6 Q1238.71 1545.54 1246.7 1545.54 L1254.91 1545.54 L1254.91 1544.97 Q1254.91 1540.93 1252.24 1538.73 Q1249.6 1536.5 1244.79 1536.5 Q1241.74 1536.5 1238.84 1537.23 Q1235.94 1537.97 1233.27 1539.43 L1233.27 1534.02 Q1236.48 1532.78 1239.51 1532.17 Q1242.53 1531.54 1245.4 1531.54 Q1253.13 1531.54 1256.95 1535.55 Q1260.77 1539.56 1260.77 1547.71 Z" fill="#000000" fill-rule="nonzero" fill-opacity="1" /><path clip-path="url(#clip920)" d="M1321.31 1539.24 Q1323.5 1535.29 1326.56 1533.41 Q1329.61 1531.54 1333.75 1531.54 Q1339.32 1531.54 1342.35 1535.45 Q1345.37 1539.33 1345.37 1546.53 L1345.37 1568.04 L1339.48 1568.04 L1339.48 1546.72 Q1339.48 1541.59 1337.67 1539.11 Q1335.85 1536.63 1332.13 1536.63 Q1327.58 1536.63 1324.94 1539.65 Q1322.29 1542.68 1322.29 1547.9 L1322.29 1568.04 L1316.4 1568.04 L1316.4 1546.72 Q1316.4 1541.56 1314.59 1539.11 Q1312.78 1536.63 1308.99 1536.63 Q1304.5 1536.63 1301.86 1539.68 Q1299.22 1542.71 1299.22 1547.9 L1299.22 1568.04 L1293.33 1568.04 L1293.33 1532.4 L1299.22 1532.4 L1299.22 1537.93 Q1301.22 1534.66 1304.02 1533.1 Q1306.82 1531.54 1310.68 1531.54 Q1314.56 1531.54 1317.26 1533.51 Q1320 1535.48 1321.31 1539.24 Z" fill="#000000" fill-rule="nonzero" fill-opacity="1" /><path clip-path="url(#clip920)" d="M1357.05 1532.4 L1362.91 1532.4 L1362.91 1568.04 L1357.05 1568.04 L1357.05 1532.4 M1357.05 1518.52 L1362.91 1518.52 L1362.91 1525.93 L1357.05 1525.93 L1357.05 1518.52 Z" fill="#000000" fill-rule="nonzero" fill-opacity="1" /><path clip-path="url(#clip920)" d="M1397.89 1533.45 L1397.89 1538.98 Q1395.4 1537.71 1392.73 1537.07 Q1390.06 1536.44 1387.19 1536.44 Q1382.83 1536.44 1380.63 1537.77 Q1378.47 1539.11 1378.47 1541.79 Q1378.47 1543.82 1380.03 1545 Q1381.59 1546.15 1386.3 1547.2 L1388.31 1547.64 Q1394.54 1548.98 1397.15 1551.43 Q1399.8 1553.85 1399.8 1558.21 Q1399.8 1563.17 1395.85 1566.07 Q1391.93 1568.97 1385.06 1568.97 Q1382.19 1568.97 1379.08 1568.39 Q1375.99 1567.85 1372.55 1566.74 L1372.55 1560.69 Q1375.8 1562.38 1378.95 1563.24 Q1382.1 1564.07 1385.19 1564.07 Q1389.32 1564.07 1391.55 1562.66 Q1393.78 1561.23 1393.78 1558.65 Q1393.78 1556.27 1392.16 1554.99 Q1390.57 1553.72 1385.12 1552.54 L1383.09 1552.07 Q1377.64 1550.92 1375.22 1548.56 Q1372.81 1546.18 1372.81 1542.04 Q1372.81 1537.01 1376.37 1534.27 Q1379.93 1531.54 1386.49 1531.54 Q1389.74 1531.54 1392.6 1532.01 Q1395.47 1532.49 1397.89 1533.45 Z" fill="#000000" fill-rule="nonzero" fill-opacity="1" /><path clip-path="url(#clip920)" d="M1431.85 1533.45 L1431.85 1538.98 Q1429.36 1537.71 1426.69 1537.07 Q1424.02 1536.44 1421.15 1536.44 Q1416.79 1536.44 1414.6 1537.77 Q1412.43 1539.11 1412.43 1541.79 Q1412.43 1543.82 1413.99 1545 Q1415.55 1546.15 1420.26 1547.2 L1422.27 1547.64 Q1428.51 1548.98 1431.11 1551.43 Q1433.76 1553.85 1433.76 1558.21 Q1433.76 1563.17 1429.81 1566.07 Q1425.9 1568.97 1419.02 1568.97 Q1416.16 1568.97 1413.04 1568.39 Q1409.95 1567.85 1406.51 1566.74 L1406.51 1560.69 Q1409.76 1562.38 1412.91 1563.24 Q1416.06 1564.07 1419.15 1564.07 Q1423.29 1564.07 1425.51 1562.66 Q1427.74 1561.23 1427.74 1558.65 Q1427.74 1556.27 1426.12 1554.99 Q1424.53 1553.72 1419.08 1552.54 L1417.05 1552.07 Q1411.6 1550.92 1409.19 1548.56 Q1406.77 1546.18 1406.77 1542.04 Q1406.77 1537.01 1410.33 1534.27 Q1413.9 1531.54 1420.45 1531.54 Q1423.7 1531.54 1426.56 1532.01 Q1429.43 1532.49 1431.85 1533.45 Z" fill="#000000" fill-rule="nonzero" fill-opacity="1" /><path clip-path="url(#clip920)" d="M1443.08 1532.4 L1448.94 1532.4 L1448.94 1568.04 L1443.08 1568.04 L1443.08 1532.4 M1443.08 1518.52 L1448.94 1518.52 L1448.94 1525.93 L1443.08 1525.93 L1443.08 1518.52 Z" fill="#000000" fill-rule="nonzero" fill-opacity="1" /><path clip-path="url(#clip920)" d="M1490.83 1546.53 L1490.83 1568.04 L1484.97 1568.04 L1484.97 1546.72 Q1484.97 1541.66 1483 1539.14 Q1481.02 1536.63 1477.08 1536.63 Q1472.33 1536.63 1469.6 1539.65 Q1466.86 1542.68 1466.86 1547.9 L1466.86 1568.04 L1460.97 1568.04 L1460.97 1532.4 L1466.86 1532.4 L1466.86 1537.93 Q1468.96 1534.72 1471.79 1533.13 Q1474.66 1531.54 1478.38 1531.54 Q1484.52 1531.54 1487.67 1535.36 Q1490.83 1539.14 1490.83 1546.53 Z" fill="#000000" fill-rule="nonzero" fill-opacity="1" /><path clip-path="url(#clip920)" d="M1525.96 1549.81 Q1525.96 1543.44 1523.32 1539.94 Q1520.71 1536.44 1515.97 1536.44 Q1511.26 1536.44 1508.62 1539.94 Q1506.01 1543.44 1506.01 1549.81 Q1506.01 1556.14 1508.62 1559.64 Q1511.26 1563.14 1515.97 1563.14 Q1520.71 1563.14 1523.32 1559.64 Q1525.96 1556.14 1525.96 1549.81 M1531.82 1563.62 Q1531.82 1572.72 1527.78 1577.15 Q1523.74 1581.6 1515.4 1581.6 Q1512.31 1581.6 1509.57 1581.13 Q1506.84 1580.68 1504.26 1579.72 L1504.26 1574.03 Q1506.84 1575.43 1509.35 1576.1 Q1511.86 1576.76 1514.47 1576.76 Q1520.23 1576.76 1523.1 1573.74 Q1525.96 1570.75 1525.96 1564.67 L1525.96 1561.77 Q1524.15 1564.92 1521.32 1566.48 Q1518.48 1568.04 1514.54 1568.04 Q1507.98 1568.04 1503.97 1563.05 Q1499.96 1558.05 1499.96 1549.81 Q1499.96 1541.53 1503.97 1536.53 Q1507.98 1531.54 1514.54 1531.54 Q1518.48 1531.54 1521.32 1533.1 Q1524.15 1534.66 1525.96 1537.81 L1525.96 1532.4 L1531.82 1532.4 L1531.82 1563.62 Z" fill="#000000" fill-rule="nonzero" fill-opacity="1" /><polyline clip-path="url(#clip920)" style="stroke:#000000; stroke-linecap:round; stroke-linejoin:round; stroke-width:4; stroke-opacity:1; fill:none" points="219.866,1423.18 219.866,123.472 "/>
<polyline clip-path="url(#clip920)" style="stroke:#000000; stroke-linecap:round; stroke-linejoin:round; stroke-width:4; stroke-opacity:1; fill:none" points="219.866,1423.18 238.764,1423.18 "/>
<polyline clip-path="url(#clip920)" style="stroke:#000000; stroke-linecap:round; stroke-linejoin:round; stroke-width:4; stroke-opacity:1; fill:none" points="219.866,1205.24 238.764,1205.24 "/>
<polyline clip-path="url(#clip920)" style="stroke:#000000; stroke-linecap:round; stroke-linejoin:round; stroke-width:4; stroke-opacity:1; fill:none" points="219.866,987.293 238.764,987.293 "/>
<polyline clip-path="url(#clip920)" style="stroke:#000000; stroke-linecap:round; stroke-linejoin:round; stroke-width:4; stroke-opacity:1; fill:none" points="219.866,769.35 238.764,769.35 "/>
<polyline clip-path="url(#clip920)" style="stroke:#000000; stroke-linecap:round; stroke-linejoin:round; stroke-width:4; stroke-opacity:1; fill:none" points="219.866,551.407 238.764,551.407 "/>
<polyline clip-path="url(#clip920)" style="stroke:#000000; stroke-linecap:round; stroke-linejoin:round; stroke-width:4; stroke-opacity:1; fill:none" points="219.866,333.464 238.764,333.464 "/>
<path clip-path="url(#clip920)" d="M126.691 1408.98 Q123.08 1408.98 121.251 1412.54 Q119.445 1416.08 119.445 1423.21 Q119.445 1430.32 121.251 1433.89 Q123.08 1437.43 126.691 1437.43 Q130.325 1437.43 132.13 1433.89 Q133.959 1430.32 133.959 1423.21 Q133.959 1416.08 132.13 1412.54 Q130.325 1408.98 126.691 1408.98 M126.691 1405.27 Q132.501 1405.27 135.556 1409.88 Q138.635 1414.46 138.635 1423.21 Q138.635 1431.94 135.556 1436.55 Q132.501 1441.13 126.691 1441.13 Q120.88 1441.13 117.802 1436.55 Q114.746 1431.94 114.746 1423.21 Q114.746 1414.46 117.802 1409.88 Q120.88 1405.27 126.691 1405.27 Z" fill="#000000" fill-rule="nonzero" fill-opacity="1" /><path clip-path="url(#clip920)" d="M146.853 1434.58 L151.737 1434.58 L151.737 1440.46 L146.853 1440.46 L146.853 1434.58 Z" fill="#000000" fill-rule="nonzero" fill-opacity="1" /><path clip-path="url(#clip920)" d="M171.922 1408.98 Q168.311 1408.98 166.482 1412.54 Q164.677 1416.08 164.677 1423.21 Q164.677 1430.32 166.482 1433.89 Q168.311 1437.43 171.922 1437.43 Q175.556 1437.43 177.362 1433.89 Q179.19 1430.32 179.19 1423.21 Q179.19 1416.08 177.362 1412.54 Q175.556 1408.98 171.922 1408.98 M171.922 1405.27 Q177.732 1405.27 180.788 1409.88 Q183.866 1414.46 183.866 1423.21 Q183.866 1431.94 180.788 1436.55 Q177.732 1441.13 171.922 1441.13 Q166.112 1441.13 163.033 1436.55 Q159.978 1431.94 159.978 1423.21 Q159.978 1414.46 163.033 1409.88 Q166.112 1405.27 171.922 1405.27 Z" fill="#000000" fill-rule="nonzero" fill-opacity="1" /><path clip-path="url(#clip920)" d="M127.917 1191.04 Q124.306 1191.04 122.478 1194.6 Q120.672 1198.14 120.672 1205.27 Q120.672 1212.38 122.478 1215.94 Q124.306 1219.48 127.917 1219.48 Q131.552 1219.48 133.357 1215.94 Q135.186 1212.38 135.186 1205.27 Q135.186 1198.14 133.357 1194.6 Q131.552 1191.04 127.917 1191.04 M127.917 1187.33 Q133.728 1187.33 136.783 1191.94 Q139.862 1196.52 139.862 1205.27 Q139.862 1214 136.783 1218.6 Q133.728 1223.19 127.917 1223.19 Q122.107 1223.19 119.029 1218.6 Q115.973 1214 115.973 1205.27 Q115.973 1196.52 119.029 1191.94 Q122.107 1187.33 127.917 1187.33 Z" fill="#000000" fill-rule="nonzero" fill-opacity="1" /><path clip-path="url(#clip920)" d="M148.079 1216.64 L152.964 1216.64 L152.964 1222.52 L148.079 1222.52 L148.079 1216.64 Z" fill="#000000" fill-rule="nonzero" fill-opacity="1" /><path clip-path="url(#clip920)" d="M163.959 1218.58 L171.598 1218.58 L171.598 1192.22 L163.288 1193.88 L163.288 1189.62 L171.552 1187.96 L176.227 1187.96 L176.227 1218.58 L183.866 1218.58 L183.866 1222.52 L163.959 1222.52 L163.959 1218.58 Z" fill="#000000" fill-rule="nonzero" fill-opacity="1" /><path clip-path="url(#clip920)" d="M128.288 973.092 Q124.677 973.092 122.848 976.657 Q121.043 980.199 121.043 987.328 Q121.043 994.435 122.848 997.999 Q124.677 1001.54 128.288 1001.54 Q131.922 1001.54 133.728 997.999 Q135.556 994.435 135.556 987.328 Q135.556 980.199 133.728 976.657 Q131.922 973.092 128.288 973.092 M128.288 969.388 Q134.098 969.388 137.154 973.995 Q140.232 978.578 140.232 987.328 Q140.232 996.055 137.154 1000.66 Q134.098 1005.24 128.288 1005.24 Q122.478 1005.24 119.399 1000.66 Q116.343 996.055 116.343 987.328 Q116.343 978.578 119.399 973.995 Q122.478 969.388 128.288 969.388 Z" fill="#000000" fill-rule="nonzero" fill-opacity="1" /><path clip-path="url(#clip920)" d="M148.45 998.694 L153.334 998.694 L153.334 1004.57 L148.45 1004.57 L148.45 998.694 Z" fill="#000000" fill-rule="nonzero" fill-opacity="1" /><path clip-path="url(#clip920)" d="M167.547 1000.64 L183.866 1000.64 L183.866 1004.57 L161.922 1004.57 L161.922 1000.64 Q164.584 997.884 169.167 993.254 Q173.774 988.601 174.954 987.259 Q177.2 984.736 178.079 982.999 Q178.982 981.24 178.982 979.55 Q178.982 976.796 177.038 975.06 Q175.116 973.324 172.014 973.324 Q169.815 973.324 167.362 974.088 Q164.931 974.851 162.153 976.402 L162.153 971.68 Q164.977 970.546 167.431 969.967 Q169.885 969.388 171.922 969.388 Q177.292 969.388 180.487 972.074 Q183.681 974.759 183.681 979.25 Q183.681 981.379 182.871 983.3 Q182.084 985.199 179.977 987.791 Q179.399 988.462 176.297 991.68 Q173.195 994.874 167.547 1000.64 Z" fill="#000000" fill-rule="nonzero" fill-opacity="1" /><path clip-path="url(#clip920)" d="M127.339 755.149 Q123.728 755.149 121.899 758.714 Q120.093 762.255 120.093 769.385 Q120.093 776.491 121.899 780.056 Q123.728 783.598 127.339 783.598 Q130.973 783.598 132.779 780.056 Q134.607 776.491 134.607 769.385 Q134.607 762.255 132.779 758.714 Q130.973 755.149 127.339 755.149 M127.339 751.445 Q133.149 751.445 136.204 756.052 Q139.283 760.635 139.283 769.385 Q139.283 778.112 136.204 782.718 Q133.149 787.302 127.339 787.302 Q121.529 787.302 118.45 782.718 Q115.394 778.112 115.394 769.385 Q115.394 760.635 118.45 756.052 Q121.529 751.445 127.339 751.445 Z" fill="#000000" fill-rule="nonzero" fill-opacity="1" /><path clip-path="url(#clip920)" d="M147.501 780.751 L152.385 780.751 L152.385 786.63 L147.501 786.63 L147.501 780.751 Z" fill="#000000" fill-rule="nonzero" fill-opacity="1" /><path clip-path="url(#clip920)" d="M176.737 767.996 Q180.093 768.714 181.968 770.982 Q183.866 773.251 183.866 776.584 Q183.866 781.7 180.348 784.501 Q176.829 787.302 170.348 787.302 Q168.172 787.302 165.857 786.862 Q163.565 786.445 161.112 785.589 L161.112 781.075 Q163.056 782.209 165.371 782.788 Q167.686 783.366 170.209 783.366 Q174.607 783.366 176.899 781.63 Q179.214 779.894 179.214 776.584 Q179.214 773.528 177.061 771.816 Q174.931 770.079 171.112 770.079 L167.084 770.079 L167.084 766.237 L171.297 766.237 Q174.746 766.237 176.575 764.871 Q178.403 763.482 178.403 760.89 Q178.403 758.228 176.505 756.816 Q174.63 755.38 171.112 755.38 Q169.19 755.38 166.991 755.797 Q164.792 756.214 162.153 757.093 L162.153 752.927 Q164.815 752.186 167.13 751.816 Q169.468 751.445 171.528 751.445 Q176.852 751.445 179.954 753.876 Q183.056 756.283 183.056 760.404 Q183.056 763.274 181.413 765.265 Q179.769 767.232 176.737 767.996 Z" fill="#000000" fill-rule="nonzero" fill-opacity="1" /><path clip-path="url(#clip920)" d="M126.205 537.206 Q122.593 537.206 120.765 540.771 Q118.959 544.312 118.959 551.442 Q118.959 558.548 120.765 562.113 Q122.593 565.655 126.205 565.655 Q129.839 565.655 131.644 562.113 Q133.473 558.548 133.473 551.442 Q133.473 544.312 131.644 540.771 Q129.839 537.206 126.205 537.206 M126.205 533.502 Q132.015 533.502 135.07 538.109 Q138.149 542.692 138.149 551.442 Q138.149 560.169 135.07 564.775 Q132.015 569.358 126.205 569.358 Q120.394 569.358 117.316 564.775 Q114.26 560.169 114.26 551.442 Q114.26 542.692 117.316 538.109 Q120.394 533.502 126.205 533.502 Z" fill="#000000" fill-rule="nonzero" fill-opacity="1" /><path clip-path="url(#clip920)" d="M146.366 562.807 L151.251 562.807 L151.251 568.687 L146.366 568.687 L146.366 562.807 Z" fill="#000000" fill-rule="nonzero" fill-opacity="1" /><path clip-path="url(#clip920)" d="M174.283 538.201 L162.477 556.65 L174.283 556.65 L174.283 538.201 M173.056 534.127 L178.936 534.127 L178.936 556.65 L183.866 556.65 L183.866 560.539 L178.936 560.539 L178.936 568.687 L174.283 568.687 L174.283 560.539 L158.681 560.539 L158.681 556.025 L173.056 534.127 Z" fill="#000000" fill-rule="nonzero" fill-opacity="1" /><path clip-path="url(#clip920)" d="M127.686 319.263 Q124.075 319.263 122.246 322.827 Q120.441 326.369 120.441 333.499 Q120.441 340.605 122.246 344.17 Q124.075 347.711 127.686 347.711 Q131.32 347.711 133.126 344.17 Q134.954 340.605 134.954 333.499 Q134.954 326.369 133.126 322.827 Q131.32 319.263 127.686 319.263 M127.686 315.559 Q133.496 315.559 136.552 320.165 Q139.63 324.749 139.63 333.499 Q139.63 342.225 136.552 346.832 Q133.496 351.415 127.686 351.415 Q121.876 351.415 118.797 346.832 Q115.742 342.225 115.742 333.499 Q115.742 324.749 118.797 320.165 Q121.876 315.559 127.686 315.559 Z" fill="#000000" fill-rule="nonzero" fill-opacity="1" /><path clip-path="url(#clip920)" d="M147.848 344.864 L152.732 344.864 L152.732 350.744 L147.848 350.744 L147.848 344.864 Z" fill="#000000" fill-rule="nonzero" fill-opacity="1" /><path clip-path="url(#clip920)" d="M162.964 316.184 L181.32 316.184 L181.32 320.119 L167.246 320.119 L167.246 328.591 Q168.264 328.244 169.283 328.082 Q170.302 327.897 171.32 327.897 Q177.107 327.897 180.487 331.068 Q183.866 334.239 183.866 339.656 Q183.866 345.235 180.394 348.336 Q176.922 351.415 170.602 351.415 Q168.427 351.415 166.158 351.045 Q163.913 350.674 161.505 349.934 L161.505 345.235 Q163.589 346.369 165.811 346.924 Q168.033 347.48 170.51 347.48 Q174.514 347.48 176.852 345.374 Q179.19 343.267 179.19 339.656 Q179.19 336.045 176.852 333.938 Q174.514 331.832 170.51 331.832 Q168.635 331.832 166.76 332.249 Q164.908 332.665 162.964 333.545 L162.964 316.184 Z" fill="#000000" fill-rule="nonzero" fill-opacity="1" /><path clip-path="url(#clip920)" d="M35.1993 914.104 Q31.2526 911.907 29.3747 908.852 Q27.4968 905.796 27.4968 901.659 Q27.4968 896.089 31.4117 893.065 Q35.2948 890.041 42.4881 890.041 L64.0042 890.041 L64.0042 895.929 L42.679 895.929 Q37.5546 895.929 35.072 897.744 Q32.5894 899.558 32.5894 903.282 Q32.5894 907.833 35.6131 910.475 Q38.6368 913.117 43.8567 913.117 L64.0042 913.117 L64.0042 919.005 L42.679 919.005 Q37.5228 919.005 35.072 920.819 Q32.5894 922.634 32.5894 926.421 Q32.5894 930.909 35.6449 933.551 Q38.6686 936.193 43.8567 936.193 L64.0042 936.193 L64.0042 942.081 L28.3562 942.081 L28.3562 936.193 L33.8944 936.193 Q30.616 934.187 29.0564 931.386 Q27.4968 928.586 27.4968 924.734 Q27.4968 920.851 29.4702 918.146 Q31.4436 915.409 35.1993 914.104 Z" fill="#000000" fill-rule="nonzero" fill-opacity="1" /><path clip-path="url(#clip920)" d="M44.7161 847.868 L47.5806 847.868 L47.5806 874.795 Q53.6281 874.413 56.8109 871.167 Q59.9619 867.889 59.9619 862.064 Q59.9619 858.69 59.1344 855.539 Q58.3069 852.356 56.6518 849.237 L62.1899 849.237 Q63.5267 852.388 64.227 855.698 Q64.9272 859.008 64.9272 862.414 Q64.9272 870.944 59.9619 875.941 Q54.9967 880.906 46.5303 880.906 Q37.7774 880.906 32.6531 876.196 Q27.4968 871.453 27.4968 863.433 Q27.4968 856.239 32.1438 852.07 Q36.7589 847.868 44.7161 847.868 M42.9973 853.725 Q38.1912 853.789 35.3266 856.43 Q32.4621 859.04 32.4621 863.369 Q32.4621 868.27 35.2312 871.231 Q38.0002 874.159 43.0292 874.604 L42.9973 853.725 Z" fill="#000000" fill-rule="nonzero" fill-opacity="1" /><path clip-path="url(#clip920)" d="M46.0847 822.055 Q46.0847 829.153 47.7079 831.89 Q49.3312 834.628 53.2461 834.628 Q56.3653 834.628 58.2114 832.591 Q60.0256 830.522 60.0256 826.989 Q60.0256 822.119 56.5881 819.191 Q53.1188 816.231 47.3897 816.231 L46.0847 816.231 L46.0847 822.055 M43.6657 810.374 L64.0042 810.374 L64.0042 816.231 L58.5933 816.231 Q61.8398 818.236 63.3994 821.228 Q64.9272 824.22 64.9272 828.548 Q64.9272 834.023 61.8716 837.27 Q58.7843 840.484 53.6281 840.484 Q47.6125 840.484 44.5569 836.474 Q41.5014 832.432 41.5014 824.443 L41.5014 816.231 L40.9285 816.231 Q36.8862 816.231 34.6901 818.904 Q32.4621 821.546 32.4621 826.352 Q32.4621 829.408 33.1941 832.304 Q33.9262 835.201 35.3903 837.874 L29.9795 837.874 Q28.7381 834.66 28.1334 831.636 Q27.4968 828.612 27.4968 825.748 Q27.4968 818.013 31.5072 814.194 Q35.5176 810.374 43.6657 810.374 Z" fill="#000000" fill-rule="nonzero" fill-opacity="1" /><path clip-path="url(#clip920)" d="M42.4881 768.679 L64.0042 768.679 L64.0042 774.535 L42.679 774.535 Q37.6183 774.535 35.1038 776.509 Q32.5894 778.482 32.5894 782.429 Q32.5894 787.171 35.6131 789.909 Q38.6368 792.646 43.8567 792.646 L64.0042 792.646 L64.0042 798.534 L28.3562 798.534 L28.3562 792.646 L33.8944 792.646 Q30.6797 790.545 29.0883 787.712 Q27.4968 784.848 27.4968 781.124 Q27.4968 774.981 31.3163 771.83 Q35.1038 768.679 42.4881 768.679 Z" fill="#000000" fill-rule="nonzero" fill-opacity="1" /><path clip-path="url(#clip920)" d="M16.4842 736.023 L16.4842 726.443 L48.8219 714.316 L16.4842 702.126 L16.4842 692.545 L64.0042 692.545 L64.0042 698.815 L22.277 698.815 L54.8694 711.069 L54.8694 717.531 L22.277 729.785 L64.0042 729.785 L64.0042 736.023 L16.4842 736.023 Z" fill="#000000" fill-rule="nonzero" fill-opacity="1" /><path clip-path="url(#clip920)" d="M22.818 663.899 L46.4666 672.621 L46.4666 655.147 L22.818 663.899 M16.4842 667.528 L16.4842 660.239 L64.0042 642.129 L64.0042 648.813 L51.8138 653.141 L51.8138 674.562 L64.0042 678.891 L64.0042 685.67 L16.4842 667.528 Z" fill="#000000" fill-rule="nonzero" fill-opacity="1" /><path clip-path="url(#clip920)" d="M16.4842 635.19 L16.4842 605.144 L21.895 605.144 L21.895 628.761 L35.9632 628.761 L35.9632 606.131 L41.3741 606.131 L41.3741 628.761 L58.5933 628.761 L58.5933 604.571 L64.0042 604.571 L64.0042 635.19 L16.4842 635.19 Z" fill="#000000" fill-rule="nonzero" fill-opacity="1" /><path clip-path="url(#clip920)" d="M593.505 16.7545 L593.505 25.383 Q589.373 21.5346 584.674 19.6307 Q580.016 17.7268 574.75 17.7268 Q564.379 17.7268 558.87 24.0867 Q553.361 30.4061 553.361 42.3968 Q553.361 54.3469 558.87 60.7069 Q564.379 67.0263 574.75 67.0263 Q580.016 67.0263 584.674 65.1223 Q589.373 63.2184 593.505 59.3701 L593.505 67.9175 Q589.211 70.8341 584.391 72.2924 Q579.611 73.7508 574.263 73.7508 Q560.531 73.7508 552.632 65.3654 Q544.732 56.9395 544.732 42.3968 Q544.732 27.8135 552.632 19.4281 Q560.531 11.0023 574.263 11.0023 Q579.692 11.0023 584.472 12.4606 Q589.292 13.8784 593.505 16.7545 Z" fill="#000000" fill-rule="nonzero" fill-opacity="1" /><path clip-path="url(#clip920)" d="M614.327 18.8205 L614.327 65.8515 L624.211 65.8515 Q636.728 65.8515 642.521 60.1802 Q648.354 54.509 648.354 42.2752 Q648.354 30.1225 642.521 24.4918 Q636.728 18.8205 624.211 18.8205 L614.327 18.8205 M606.144 12.096 L622.955 12.096 Q640.536 12.096 648.76 19.4281 Q656.983 26.7198 656.983 42.2752 Q656.983 57.9117 648.719 65.2439 Q640.455 72.576 622.955 72.576 L606.144 72.576 L606.144 12.096 Z" fill="#000000" fill-rule="nonzero" fill-opacity="1" /><path clip-path="url(#clip920)" d="M698.707 44.2197 Q701.34 45.1109 703.811 48.0275 Q706.323 50.9442 708.834 56.0483 L717.139 72.576 L708.348 72.576 L700.611 57.061 Q697.613 50.9847 694.778 48.9997 Q691.983 47.0148 687.122 47.0148 L678.21 47.0148 L678.21 72.576 L670.027 72.576 L670.027 12.096 L688.499 12.096 Q698.869 12.096 703.973 16.4305 Q709.077 20.7649 709.077 29.5149 Q709.077 35.2267 706.404 38.994 Q703.771 42.7613 698.707 44.2197 M678.21 18.8205 L678.21 40.2903 L688.499 40.2903 Q694.413 40.2903 697.411 37.5762 Q700.449 34.8216 700.449 29.5149 Q700.449 24.2082 697.411 21.5346 Q694.413 18.8205 688.499 18.8205 L678.21 18.8205 Z" fill="#000000" fill-rule="nonzero" fill-opacity="1" /><path clip-path="url(#clip920)" d="M762.428 48.0275 L762.428 51.6733 L728.157 51.6733 Q728.643 59.3701 732.775 63.421 Q736.948 67.4314 744.361 67.4314 Q748.655 67.4314 752.665 66.3781 Q756.716 65.3249 760.686 63.2184 L760.686 70.267 Q756.676 71.9684 752.463 72.8596 Q748.25 73.7508 743.915 73.7508 Q733.059 73.7508 726.699 67.4314 Q720.38 61.1119 720.38 50.3365 Q720.38 39.1965 726.375 32.6746 Q732.411 26.1121 742.619 26.1121 Q751.774 26.1121 757.081 32.0264 Q762.428 37.9003 762.428 48.0275 M754.974 45.84 Q754.893 39.7232 751.531 36.0774 Q748.209 32.4315 742.7 32.4315 Q736.462 32.4315 732.694 35.9558 Q728.967 39.4801 728.4 45.8805 L754.974 45.84 Z" fill="#000000" fill-rule="nonzero" fill-opacity="1" /><path clip-path="url(#clip920)" d="M807.312 28.9478 L807.312 35.9153 Q804.152 34.1734 800.952 33.3227 Q797.792 32.4315 794.552 32.4315 Q787.3 32.4315 783.29 37.0496 Q779.28 41.6271 779.28 49.9314 Q779.28 58.2358 783.29 62.8538 Q787.3 67.4314 794.552 67.4314 Q797.792 67.4314 800.952 66.5807 Q804.152 65.6895 807.312 63.9476 L807.312 70.8341 Q804.193 72.2924 800.83 73.0216 Q797.509 73.7508 793.741 73.7508 Q783.493 73.7508 777.457 67.3098 Q771.421 60.8689 771.421 49.9314 Q771.421 38.832 777.497 32.472 Q783.614 26.1121 794.227 26.1121 Q797.671 26.1121 800.952 26.8413 Q804.233 27.5299 807.312 28.9478 Z" fill="#000000" fill-rule="nonzero" fill-opacity="1" /><path clip-path="url(#clip920)" d="M846.97 12.096 L855.153 12.096 L855.153 72.576 L846.97 72.576 L846.97 12.096 Z" fill="#000000" fill-rule="nonzero" fill-opacity="1" /><path clip-path="url(#clip920)" d="M879.621 18.8205 L879.621 41.5461 L889.91 41.5461 Q895.622 41.5461 898.741 38.5889 Q901.86 35.6318 901.86 30.163 Q901.86 24.7348 898.741 21.7777 Q895.622 18.8205 889.91 18.8205 L879.621 18.8205 M871.438 12.096 L889.91 12.096 Q900.078 12.096 905.263 16.714 Q910.488 21.2916 910.488 30.163 Q910.488 39.1155 905.263 43.6931 Q900.078 48.2706 889.91 48.2706 L879.621 48.2706 L879.621 72.576 L871.438 72.576 L871.438 12.096 Z" fill="#000000" fill-rule="nonzero" fill-opacity="1" /><path clip-path="url(#clip920)" d="M929.649 18.8205 L929.649 65.8515 L939.533 65.8515 Q952.051 65.8515 957.844 60.1802 Q963.677 54.509 963.677 42.2752 Q963.677 30.1225 957.844 24.4918 Q952.051 18.8205 939.533 18.8205 L929.649 18.8205 M921.466 12.096 L938.278 12.096 Q955.859 12.096 964.082 19.4281 Q972.305 26.7198 972.305 42.2752 Q972.305 57.9117 964.041 65.2439 Q955.778 72.576 938.278 72.576 L921.466 72.576 L921.466 12.096 Z" fill="#000000" fill-rule="nonzero" fill-opacity="1" /><path clip-path="url(#clip920)" d="M1037.24 39.9662 Q1043.12 41.222 1046.4 45.1919 Q1049.72 49.1618 1049.72 54.9951 Q1049.72 63.9476 1043.56 68.8492 Q1037.4 73.7508 1026.06 73.7508 Q1022.25 73.7508 1018.2 72.9811 Q1014.19 72.2519 1009.9 70.7531 L1009.9 62.8538 Q1013.3 64.8388 1017.35 65.8515 Q1021.4 66.8642 1025.82 66.8642 Q1033.51 66.8642 1037.52 63.826 Q1041.58 60.7879 1041.58 54.9951 Q1041.58 49.6479 1037.81 46.6502 Q1034.08 43.612 1027.4 43.612 L1020.35 43.612 L1020.35 36.8875 L1027.72 36.8875 Q1033.76 36.8875 1036.96 34.4975 Q1040.16 32.067 1040.16 27.5299 Q1040.16 22.8714 1036.84 20.4004 Q1033.55 17.8888 1027.4 17.8888 Q1024.04 17.8888 1020.19 18.618 Q1016.34 19.3471 1011.72 20.8865 L1011.72 13.5948 Q1016.38 12.2985 1020.43 11.6504 Q1024.52 11.0023 1028.13 11.0023 Q1037.44 11.0023 1042.87 15.2557 Q1048.3 19.4686 1048.3 26.6793 Q1048.3 31.7024 1045.42 35.1862 Q1042.55 38.6294 1037.24 39.9662 Z" fill="#000000" fill-rule="nonzero" fill-opacity="1" /><path clip-path="url(#clip920)" d="M1082.73 17.4837 Q1076.41 17.4837 1073.21 23.7221 Q1070.05 29.92 1070.05 42.3968 Q1070.05 54.833 1073.21 61.0714 Q1076.41 67.2693 1082.73 67.2693 Q1089.09 67.2693 1092.25 61.0714 Q1095.45 54.833 1095.45 42.3968 Q1095.45 29.92 1092.25 23.7221 Q1089.09 17.4837 1082.73 17.4837 M1082.73 11.0023 Q1092.9 11.0023 1098.25 19.0636 Q1103.64 27.0843 1103.64 42.3968 Q1103.64 57.6687 1098.25 65.73 Q1092.9 73.7508 1082.73 73.7508 Q1072.57 73.7508 1067.18 65.73 Q1061.83 57.6687 1061.83 42.3968 Q1061.83 27.0843 1067.18 19.0636 Q1072.57 11.0023 1082.73 11.0023 Z" fill="#000000" fill-rule="nonzero" fill-opacity="1" /><path clip-path="url(#clip920)" d="M1113.2 46.5287 L1135.03 46.5287 L1135.03 53.1722 L1113.2 53.1722 L1113.2 46.5287 Z" fill="#000000" fill-rule="nonzero" fill-opacity="1" /><path clip-path="url(#clip920)" d="M1147.22 12.096 L1181.98 12.096 L1181.98 18.9825 L1155.41 18.9825 L1155.41 36.8065 L1179.39 36.8065 L1179.39 43.6931 L1155.41 43.6931 L1155.41 72.576 L1147.22 72.576 L1147.22 12.096 Z" fill="#000000" fill-rule="nonzero" fill-opacity="1" /><path clip-path="url(#clip920)" d="M1209.24 32.4315 Q1203.25 32.4315 1199.76 37.1306 Q1196.28 41.7891 1196.28 49.9314 Q1196.28 58.0738 1199.72 62.7728 Q1203.21 67.4314 1209.24 67.4314 Q1215.2 67.4314 1218.68 62.7323 Q1222.17 58.0333 1222.17 49.9314 Q1222.17 41.8701 1218.68 37.1711 Q1215.2 32.4315 1209.24 32.4315 M1209.24 26.1121 Q1218.96 26.1121 1224.51 32.4315 Q1230.06 38.7509 1230.06 49.9314 Q1230.06 61.0714 1224.51 67.4314 Q1218.96 73.7508 1209.24 73.7508 Q1199.48 73.7508 1193.93 67.4314 Q1188.42 61.0714 1188.42 49.9314 Q1188.42 38.7509 1193.93 32.4315 Q1199.48 26.1121 1209.24 26.1121 Z" fill="#000000" fill-rule="nonzero" fill-opacity="1" /><path clip-path="url(#clip920)" d="M1242.42 9.54393 L1249.87 9.54393 L1249.87 72.576 L1242.42 72.576 L1242.42 9.54393 Z" fill="#000000" fill-rule="nonzero" fill-opacity="1" /><path clip-path="url(#clip920)" d="M1295.32 34.0924 L1295.32 9.54393 L1302.78 9.54393 L1302.78 72.576 L1295.32 72.576 L1295.32 65.7705 Q1292.97 69.8214 1289.37 71.8063 Q1285.8 73.7508 1280.78 73.7508 Q1272.56 73.7508 1267.37 67.1883 Q1262.23 60.6258 1262.23 49.9314 Q1262.23 39.2371 1267.37 32.6746 Q1272.56 26.1121 1280.78 26.1121 Q1285.8 26.1121 1289.37 28.0971 Q1292.97 30.0415 1295.32 34.0924 M1269.93 49.9314 Q1269.93 58.1548 1273.29 62.8538 Q1276.69 67.5124 1282.6 67.5124 Q1288.52 67.5124 1291.92 62.8538 Q1295.32 58.1548 1295.32 49.9314 Q1295.32 41.7081 1291.92 37.0496 Q1288.52 32.3505 1282.6 32.3505 Q1276.69 32.3505 1273.29 37.0496 Q1269.93 41.7081 1269.93 49.9314 Z" fill="#000000" fill-rule="nonzero" fill-opacity="1" /><path clip-path="url(#clip920)" d="M1344.83 12.096 L1357.02 12.096 L1372.45 53.2532 L1387.97 12.096 L1400.16 12.096 L1400.16 72.576 L1392.18 72.576 L1392.18 19.4686 L1376.59 60.9499 L1368.36 60.9499 L1352.77 19.4686 L1352.77 72.576 L1344.83 72.576 L1344.83 12.096 Z" fill="#000000" fill-rule="nonzero" fill-opacity="1" /><path clip-path="url(#clip920)" d="M1454.89 48.0275 L1454.89 51.6733 L1420.62 51.6733 Q1421.1 59.3701 1425.24 63.421 Q1429.41 67.4314 1436.82 67.4314 Q1441.12 67.4314 1445.13 66.3781 Q1449.18 65.3249 1453.15 63.2184 L1453.15 70.267 Q1449.14 71.9684 1444.92 72.8596 Q1440.71 73.7508 1436.38 73.7508 Q1425.52 73.7508 1419.16 67.4314 Q1412.84 61.1119 1412.84 50.3365 Q1412.84 39.1965 1418.84 32.6746 Q1424.87 26.1121 1435.08 26.1121 Q1444.24 26.1121 1449.54 32.0264 Q1454.89 37.9003 1454.89 48.0275 M1447.44 45.84 Q1447.35 39.7232 1443.99 36.0774 Q1440.67 32.4315 1435.16 32.4315 Q1428.92 32.4315 1425.16 35.9558 Q1421.43 39.4801 1420.86 45.8805 L1447.44 45.84 Z" fill="#000000" fill-rule="nonzero" fill-opacity="1" /><path clip-path="url(#clip920)" d="M1487.74 49.7694 Q1478.71 49.7694 1475.23 51.8354 Q1471.74 53.9013 1471.74 58.8839 Q1471.74 62.8538 1474.33 65.2034 Q1476.97 67.5124 1481.46 67.5124 Q1487.66 67.5124 1491.39 63.1374 Q1495.16 58.7219 1495.16 51.4303 L1495.16 49.7694 L1487.74 49.7694 M1502.61 46.6907 L1502.61 72.576 L1495.16 72.576 L1495.16 65.6895 Q1492.6 69.8214 1488.8 71.8063 Q1484.99 73.7508 1479.48 73.7508 Q1472.51 73.7508 1468.38 69.8619 Q1464.29 65.9325 1464.29 59.3701 Q1464.29 51.7138 1469.39 47.825 Q1474.54 43.9361 1484.7 43.9361 L1495.16 43.9361 L1495.16 43.2069 Q1495.16 38.0623 1491.75 35.2672 Q1488.39 32.4315 1482.27 32.4315 Q1478.38 32.4315 1474.7 33.3632 Q1471.01 34.295 1467.61 36.1584 L1467.61 29.2718 Q1471.7 27.692 1475.55 26.9223 Q1479.4 26.1121 1483.04 26.1121 Q1492.89 26.1121 1497.75 31.2163 Q1502.61 36.3204 1502.61 46.6907 Z" fill="#000000" fill-rule="nonzero" fill-opacity="1" /><path clip-path="url(#clip920)" d="M1555.68 45.1919 L1555.68 72.576 L1548.22 72.576 L1548.22 45.4349 Q1548.22 38.994 1545.71 35.7938 Q1543.2 32.5936 1538.18 32.5936 Q1532.14 32.5936 1528.66 36.4419 Q1525.17 40.2903 1525.17 46.9338 L1525.17 72.576 L1517.68 72.576 L1517.68 27.2059 L1525.17 27.2059 L1525.17 34.2544 Q1527.85 30.163 1531.45 28.1376 Q1535.1 26.1121 1539.84 26.1121 Q1547.66 26.1121 1551.67 30.9732 Q1555.68 35.7938 1555.68 45.1919 Z" fill="#000000" fill-rule="nonzero" fill-opacity="1" /><path clip-path="url(#clip920)" d="M1627.26 20.5624 L1627.26 43.1259 L1649.82 43.1259 L1649.82 50.0125 L1627.26 50.0125 L1627.26 72.576 L1620.45 72.576 L1620.45 50.0125 L1597.89 50.0125 L1597.89 43.1259 L1620.45 43.1259 L1620.45 20.5624 L1627.26 20.5624 Z" fill="#000000" fill-rule="nonzero" fill-opacity="1" /><path clip-path="url(#clip920)" d="M1679.67 12.096 L1686.56 12.096 L1665.5 80.2727 L1658.61 80.2727 L1679.67 12.096 Z" fill="#000000" fill-rule="nonzero" fill-opacity="1" /><path clip-path="url(#clip920)" d="M1690.61 46.5287 L1712.45 46.5287 L1712.45 53.1722 L1690.61 53.1722 L1690.61 46.5287 Z" fill="#000000" fill-rule="nonzero" fill-opacity="1" /><path clip-path="url(#clip920)" d="M1751.98 71.3202 L1751.98 63.8666 Q1755.06 65.3249 1758.22 66.0946 Q1761.38 66.8642 1764.42 66.8642 Q1772.52 66.8642 1776.77 61.436 Q1781.07 55.9673 1781.68 44.8678 Q1779.33 48.3516 1775.72 50.215 Q1772.12 52.0784 1767.74 52.0784 Q1758.67 52.0784 1753.36 46.6097 Q1748.09 41.1005 1748.09 31.5808 Q1748.09 22.2638 1753.6 16.633 Q1759.11 11.0023 1768.27 11.0023 Q1778.76 11.0023 1784.27 19.0636 Q1789.82 27.0843 1789.82 42.3968 Q1789.82 56.6965 1783.01 65.2439 Q1776.25 73.7508 1764.78 73.7508 Q1761.7 73.7508 1758.55 73.1431 Q1755.39 72.5355 1751.98 71.3202 M1768.27 45.678 Q1773.78 45.678 1776.98 41.9107 Q1780.22 38.1433 1780.22 31.5808 Q1780.22 25.0589 1776.98 21.2916 Q1773.78 17.4837 1768.27 17.4837 Q1762.76 17.4837 1759.52 21.2916 Q1756.32 25.0589 1756.32 31.5808 Q1756.32 38.1433 1759.52 41.9107 Q1762.76 45.678 1768.27 45.678 Z" fill="#000000" fill-rule="nonzero" fill-opacity="1" /><path clip-path="url(#clip920)" d="M1804.6 12.096 L1836.73 12.096 L1836.73 18.9825 L1812.1 18.9825 L1812.1 33.8088 Q1813.88 33.2012 1815.66 32.9176 Q1817.45 32.5936 1819.23 32.5936 Q1829.36 32.5936 1835.27 38.1433 Q1841.18 43.6931 1841.18 53.1722 Q1841.18 62.9348 1835.11 68.3631 Q1829.03 73.7508 1817.97 73.7508 Q1814.16 73.7508 1810.19 73.1026 Q1806.26 72.4545 1802.05 71.1582 L1802.05 62.9348 Q1805.7 64.9198 1809.59 65.892 Q1813.48 66.8642 1817.81 66.8642 Q1824.82 66.8642 1828.91 63.1779 Q1833 59.4916 1833 53.1722 Q1833 46.8528 1828.91 43.1664 Q1824.82 39.4801 1817.81 39.4801 Q1814.53 39.4801 1811.25 40.2093 Q1808.01 40.9384 1804.6 42.4778 L1804.6 12.096 Z" fill="#000000" fill-rule="nonzero" fill-opacity="1" /><path clip-path="url(#clip920)" d="M1908.75 45.9616 Q1905.23 45.9616 1903.2 48.9592 Q1901.22 51.9569 1901.22 57.3041 Q1901.22 62.5703 1903.2 65.6084 Q1905.23 68.6061 1908.75 68.6061 Q1912.2 68.6061 1914.18 65.6084 Q1916.21 62.5703 1916.21 57.3041 Q1916.21 51.9974 1914.18 48.9997 Q1912.2 45.9616 1908.75 45.9616 M1908.75 40.8169 Q1915.15 40.8169 1918.92 45.2729 Q1922.69 49.7289 1922.69 57.3041 Q1922.69 64.8793 1918.88 69.3353 Q1915.11 73.7508 1908.75 73.7508 Q1902.27 73.7508 1898.5 69.3353 Q1894.74 64.8793 1894.74 57.3041 Q1894.74 49.6884 1898.5 45.2729 Q1902.31 40.8169 1908.75 40.8169 M1866.95 16.1469 Q1863.46 16.1469 1861.44 19.1851 Q1859.45 22.1828 1859.45 27.4489 Q1859.45 32.7961 1861.44 35.7938 Q1863.42 38.7915 1866.95 38.7915 Q1870.47 38.7915 1872.46 35.7938 Q1874.48 32.7961 1874.48 27.4489 Q1874.48 22.2233 1872.46 19.1851 Q1870.43 16.1469 1866.95 16.1469 M1903.53 11.0023 L1910.01 11.0023 L1872.17 73.7508 L1865.69 73.7508 L1903.53 11.0023 M1866.95 11.0023 Q1873.35 11.0023 1877.16 15.4583 Q1880.96 19.8737 1880.96 27.4489 Q1880.96 35.1051 1877.16 39.5206 Q1873.39 43.9361 1866.95 43.9361 Q1860.51 43.9361 1856.74 39.5206 Q1853.01 35.0646 1853.01 27.4489 Q1853.01 19.9142 1856.78 15.4583 Q1860.55 11.0023 1866.95 11.0023 Z" fill="#000000" fill-rule="nonzero" fill-opacity="1" /><path clip-path="url(#clip920)" d="M2007.07 16.7545 L2007.07 25.383 Q2002.94 21.5346 1998.24 19.6307 Q1993.58 17.7268 1988.31 17.7268 Q1977.94 17.7268 1972.43 24.0867 Q1966.92 30.4061 1966.92 42.3968 Q1966.92 54.3469 1972.43 60.7069 Q1977.94 67.0263 1988.31 67.0263 Q1993.58 67.0263 1998.24 65.1223 Q2002.94 63.2184 2007.07 59.3701 L2007.07 67.9175 Q2002.77 70.8341 1997.95 72.2924 Q1993.17 73.7508 1987.83 73.7508 Q1974.09 73.7508 1966.19 65.3654 Q1958.3 56.9395 1958.3 42.3968 Q1958.3 27.8135 1966.19 19.4281 Q1974.09 11.0023 1987.83 11.0023 Q1993.25 11.0023 1998.03 12.4606 Q2002.86 13.8784 2007.07 16.7545 Z" fill="#000000" fill-rule="nonzero" fill-opacity="1" /><path clip-path="url(#clip920)" d="M2019.71 12.096 L2027.89 12.096 L2027.89 72.576 L2019.71 72.576 L2019.71 12.096 Z" fill="#000000" fill-rule="nonzero" fill-opacity="1" /><path clip-path="url(#clip922)" d="M2235.44 515.872 L2235.44 1423.18 L2080.48 1423.18 L2080.48 515.872 L2235.44 515.872 L2235.44 515.872  Z" fill="#2ba02b" fill-rule="evenodd" fill-opacity="1"/>
<polyline clip-path="url(#clip922)" style="stroke:#000000; stroke-linecap:round; stroke-linejoin:round; stroke-width:4; stroke-opacity:1; fill:none" points="2235.44,515.872 2235.44,1423.18 2080.48,1423.18 2080.48,515.872 2235.44,515.872 "/>
<path clip-path="url(#clip922)" d="M2041.74 546.481 L2041.74 1423.18 L1886.78 1423.18 L1886.78 546.481 L2041.74 546.481 L2041.74 546.481  Z" fill="#2ba02b" fill-rule="evenodd" fill-opacity="1"/>
<polyline clip-path="url(#clip922)" style="stroke:#000000; stroke-linecap:round; stroke-linejoin:round; stroke-width:4; stroke-opacity:1; fill:none" points="2041.74,546.481 2041.74,1423.18 1886.78,1423.18 1886.78,546.481 2041.74,546.481 "/>
<path clip-path="url(#clip922)" d="M1848.04 462.928 L1848.04 1423.18 L1693.08 1423.18 L1693.08 462.928 L1848.04 462.928 L1848.04 462.928  Z" fill="#2ba02b" fill-rule="evenodd" fill-opacity="1"/>
<polyline clip-path="url(#clip922)" style="stroke:#000000; stroke-linecap:round; stroke-linejoin:round; stroke-width:4; stroke-opacity:1; fill:none" points="1848.04,462.928 1848.04,1423.18 1693.08,1423.18 1693.08,462.928 1848.04,462.928 "/>
<path clip-path="url(#clip922)" d="M1654.34 516.554 L1654.34 1423.18 L1499.38 1423.18 L1499.38 516.554 L1654.34 516.554 L1654.34 516.554  Z" fill="#2ba02b" fill-rule="evenodd" fill-opacity="1"/>
<polyline clip-path="url(#clip922)" style="stroke:#000000; stroke-linecap:round; stroke-linejoin:round; stroke-width:4; stroke-opacity:1; fill:none" points="1654.34,516.554 1654.34,1423.18 1499.38,1423.18 1499.38,516.554 1654.34,516.554 "/>
<path clip-path="url(#clip922)" d="M1460.64 449.42 L1460.64 1423.18 L1305.68 1423.18 L1305.68 449.42 L1460.64 449.42 L1460.64 449.42  Z" fill="#2ba02b" fill-rule="evenodd" fill-opacity="1"/>
<polyline clip-path="url(#clip922)" style="stroke:#000000; stroke-linecap:round; stroke-linejoin:round; stroke-width:4; stroke-opacity:1; fill:none" points="1460.64,449.42 1460.64,1423.18 1305.68,1423.18 1305.68,449.42 1460.64,449.42 "/>
<path clip-path="url(#clip922)" d="M1266.94 412.111 L1266.94 1423.18 L1111.98 1423.18 L1111.98 412.111 L1266.94 412.111 L1266.94 412.111  Z" fill="#2ba02b" fill-rule="evenodd" fill-opacity="1"/>
<polyline clip-path="url(#clip922)" style="stroke:#000000; stroke-linecap:round; stroke-linejoin:round; stroke-width:4; stroke-opacity:1; fill:none" points="1266.94,412.111 1266.94,1423.18 1111.98,1423.18 1111.98,412.111 1266.94,412.111 "/>
<path clip-path="url(#clip922)" d="M1073.24 328.804 L1073.24 1423.18 L918.28 1423.18 L918.28 328.804 L1073.24 328.804 L1073.24 328.804  Z" fill="#2ba02b" fill-rule="evenodd" fill-opacity="1"/>
<polyline clip-path="url(#clip922)" style="stroke:#000000; stroke-linecap:round; stroke-linejoin:round; stroke-width:4; stroke-opacity:1; fill:none" points="1073.24,328.804 1073.24,1423.18 918.28,1423.18 918.28,328.804 1073.24,328.804 "/>
<path clip-path="url(#clip922)" d="M879.54 264.126 L879.54 1423.18 L724.58 1423.18 L724.58 264.126 L879.54 264.126 L879.54 264.126  Z" fill="#2ba02b" fill-rule="evenodd" fill-opacity="1"/>
<polyline clip-path="url(#clip922)" style="stroke:#000000; stroke-linecap:round; stroke-linejoin:round; stroke-width:4; stroke-opacity:1; fill:none" points="879.54,264.126 879.54,1423.18 724.58,1423.18 724.58,264.126 879.54,264.126 "/>
<path clip-path="url(#clip922)" d="M685.84 247.859 L685.84 1423.18 L530.879 1423.18 L530.879 247.859 L685.84 247.859 L685.84 247.859  Z" fill="#2ba02b" fill-rule="evenodd" fill-opacity="1"/>
<polyline clip-path="url(#clip922)" style="stroke:#000000; stroke-linecap:round; stroke-linejoin:round; stroke-width:4; stroke-opacity:1; fill:none" points="685.84,247.859 685.84,1423.18 530.879,1423.18 530.879,247.859 685.84,247.859 "/>
<path clip-path="url(#clip922)" d="M492.139 274.336 L492.139 1423.18 L337.179 1423.18 L337.179 274.336 L492.139 274.336 L492.139 274.336  Z" fill="#2ba02b" fill-rule="evenodd" fill-opacity="1"/>
<polyline clip-path="url(#clip922)" style="stroke:#000000; stroke-linecap:round; stroke-linejoin:round; stroke-width:4; stroke-opacity:1; fill:none" points="492.139,274.336 492.139,1423.18 337.179,1423.18 337.179,274.336 492.139,274.336 "/>
<circle clip-path="url(#clip922)" style="fill:#2ba02b; stroke:none; fill-opacity:0" cx="2157.96" cy="515.872" r="2"/>
<circle clip-path="url(#clip922)" style="fill:#2ba02b; stroke:none; fill-opacity:0" cx="1964.26" cy="546.481" r="2"/>
<circle clip-path="url(#clip922)" style="fill:#2ba02b; stroke:none; fill-opacity:0" cx="1770.56" cy="462.928" r="2"/>
<circle clip-path="url(#clip922)" style="fill:#2ba02b; stroke:none; fill-opacity:0" cx="1576.86" cy="516.554" r="2"/>
<circle clip-path="url(#clip922)" style="fill:#2ba02b; stroke:none; fill-opacity:0" cx="1383.16" cy="449.42" r="2"/>
<circle clip-path="url(#clip922)" style="fill:#2ba02b; stroke:none; fill-opacity:0" cx="1189.46" cy="412.111" r="2"/>
<circle clip-path="url(#clip922)" style="fill:#2ba02b; stroke:none; fill-opacity:0" cx="995.76" cy="328.804" r="2"/>
<circle clip-path="url(#clip922)" style="fill:#2ba02b; stroke:none; fill-opacity:0" cx="802.06" cy="264.126" r="2"/>
<circle clip-path="url(#clip922)" style="fill:#2ba02b; stroke:none; fill-opacity:0" cx="608.36" cy="247.859" r="2"/>
<circle clip-path="url(#clip922)" style="fill:#2ba02b; stroke:none; fill-opacity:0" cx="414.659" cy="274.336" r="2"/>
<polyline clip-path="url(#clip922)" style="stroke:#000000; stroke-linecap:round; stroke-linejoin:round; stroke-width:4; stroke-opacity:1; fill:none" points="2157.96,551.538 2157.96,480.206 "/>
<polyline clip-path="url(#clip922)" style="stroke:#000000; stroke-linecap:round; stroke-linejoin:round; stroke-width:4; stroke-opacity:1; fill:none" points="1964.26,577.9 1964.26,515.062 "/>
<polyline clip-path="url(#clip922)" style="stroke:#000000; stroke-linecap:round; stroke-linejoin:round; stroke-width:4; stroke-opacity:1; fill:none" points="1770.56,489.025 1770.56,436.832 "/>
<polyline clip-path="url(#clip922)" style="stroke:#000000; stroke-linecap:round; stroke-linejoin:round; stroke-width:4; stroke-opacity:1; fill:none" points="1576.86,543.872 1576.86,489.235 "/>
<polyline clip-path="url(#clip922)" style="stroke:#000000; stroke-linecap:round; stroke-linejoin:round; stroke-width:4; stroke-opacity:1; fill:none" points="1383.16,505.007 1383.16,393.832 "/>
<polyline clip-path="url(#clip922)" style="stroke:#000000; stroke-linecap:round; stroke-linejoin:round; stroke-width:4; stroke-opacity:1; fill:none" points="1189.46,477.451 1189.46,346.77 "/>
<polyline clip-path="url(#clip922)" style="stroke:#000000; stroke-linecap:round; stroke-linejoin:round; stroke-width:4; stroke-opacity:1; fill:none" points="995.76,415.581 995.76,242.026 "/>
<polyline clip-path="url(#clip922)" style="stroke:#000000; stroke-linecap:round; stroke-linejoin:round; stroke-width:4; stroke-opacity:1; fill:none" points="802.06,358.896 802.06,169.355 "/>
<polyline clip-path="url(#clip922)" style="stroke:#000000; stroke-linecap:round; stroke-linejoin:round; stroke-width:4; stroke-opacity:1; fill:none" points="608.36,354.341 608.36,141.378 "/>
<polyline clip-path="url(#clip922)" style="stroke:#000000; stroke-linecap:round; stroke-linejoin:round; stroke-width:4; stroke-opacity:1; fill:none" points="414.659,425.2 414.659,123.472 "/>
<line clip-path="url(#clip922)" x1="2173.96" y1="551.538" x2="2141.96" y2="551.538" style="stroke:#000000; stroke-width:4; stroke-opacity:1"/>
<line clip-path="url(#clip922)" x1="2173.96" y1="480.206" x2="2141.96" y2="480.206" style="stroke:#000000; stroke-width:4; stroke-opacity:1"/>
<line clip-path="url(#clip922)" x1="1980.26" y1="577.9" x2="1948.26" y2="577.9" style="stroke:#000000; stroke-width:4; stroke-opacity:1"/>
<line clip-path="url(#clip922)" x1="1980.26" y1="515.062" x2="1948.26" y2="515.062" style="stroke:#000000; stroke-width:4; stroke-opacity:1"/>
<line clip-path="url(#clip922)" x1="1786.56" y1="489.025" x2="1754.56" y2="489.025" style="stroke:#000000; stroke-width:4; stroke-opacity:1"/>
<line clip-path="url(#clip922)" x1="1786.56" y1="436.832" x2="1754.56" y2="436.832" style="stroke:#000000; stroke-width:4; stroke-opacity:1"/>
<line clip-path="url(#clip922)" x1="1592.86" y1="543.872" x2="1560.86" y2="543.872" style="stroke:#000000; stroke-width:4; stroke-opacity:1"/>
<line clip-path="url(#clip922)" x1="1592.86" y1="489.235" x2="1560.86" y2="489.235" style="stroke:#000000; stroke-width:4; stroke-opacity:1"/>
<line clip-path="url(#clip922)" x1="1399.16" y1="505.007" x2="1367.16" y2="505.007" style="stroke:#000000; stroke-width:4; stroke-opacity:1"/>
<line clip-path="url(#clip922)" x1="1399.16" y1="393.832" x2="1367.16" y2="393.832" style="stroke:#000000; stroke-width:4; stroke-opacity:1"/>
<line clip-path="url(#clip922)" x1="1205.46" y1="477.451" x2="1173.46" y2="477.451" style="stroke:#000000; stroke-width:4; stroke-opacity:1"/>
<line clip-path="url(#clip922)" x1="1205.46" y1="346.77" x2="1173.46" y2="346.77" style="stroke:#000000; stroke-width:4; stroke-opacity:1"/>
<line clip-path="url(#clip922)" x1="1011.76" y1="415.581" x2="979.76" y2="415.581" style="stroke:#000000; stroke-width:4; stroke-opacity:1"/>
<line clip-path="url(#clip922)" x1="1011.76" y1="242.026" x2="979.76" y2="242.026" style="stroke:#000000; stroke-width:4; stroke-opacity:1"/>
<line clip-path="url(#clip922)" x1="818.06" y1="358.896" x2="786.06" y2="358.896" style="stroke:#000000; stroke-width:4; stroke-opacity:1"/>
<line clip-path="url(#clip922)" x1="818.06" y1="169.355" x2="786.06" y2="169.355" style="stroke:#000000; stroke-width:4; stroke-opacity:1"/>
<line clip-path="url(#clip922)" x1="624.36" y1="354.341" x2="592.36" y2="354.341" style="stroke:#000000; stroke-width:4; stroke-opacity:1"/>
<line clip-path="url(#clip922)" x1="624.36" y1="141.378" x2="592.36" y2="141.378" style="stroke:#000000; stroke-width:4; stroke-opacity:1"/>
<line clip-path="url(#clip922)" x1="430.659" y1="425.2" x2="398.659" y2="425.2" style="stroke:#000000; stroke-width:4; stroke-opacity:1"/>
<line clip-path="url(#clip922)" x1="430.659" y1="123.472" x2="398.659" y2="123.472" style="stroke:#000000; stroke-width:4; stroke-opacity:1"/>
</svg>
