<?xml version="1.0" encoding="utf-8"?>
<svg xmlns="http://www.w3.org/2000/svg" xmlns:xlink="http://www.w3.org/1999/xlink" width="600" height="400" viewBox="0 0 2400 1600">
<defs>
  <clipPath id="clip390">
    <rect x="0" y="0" width="2400" height="1600"/>
  </clipPath>
</defs>
<path clip-path="url(#clip390)" d="M0 1600 L2400 1600 L2400 8.88178e-14 L0 8.88178e-14  Z" fill="#ffffff" fill-rule="evenodd" fill-opacity="1"/>
<defs>
  <clipPath id="clip391">
    <rect x="480" y="0" width="1681" height="1600"/>
  </clipPath>
</defs>
<path clip-path="url(#clip390)" d="M219.38 1423.18 L2352.76 1423.18 L2352.76 123.472 L219.38 123.472  Z" fill="#ffffff" fill-rule="evenodd" fill-opacity="1"/>
<defs>
  <clipPath id="clip392">
    <rect x="219" y="123" width="2134" height="1301"/>
  </clipPath>
</defs>
<polyline clip-path="url(#clip392)" style="stroke:#000000; stroke-linecap:round; stroke-linejoin:round; stroke-width:2; stroke-opacity:0.1; fill:none" points="2157.92,1423.18 2157.92,123.472 "/>
<polyline clip-path="url(#clip392)" style="stroke:#000000; stroke-linecap:round; stroke-linejoin:round; stroke-width:2; stroke-opacity:0.1; fill:none" points="1964.17,1423.18 1964.17,123.472 "/>
<polyline clip-path="url(#clip392)" style="stroke:#000000; stroke-linecap:round; stroke-linejoin:round; stroke-width:2; stroke-opacity:0.1; fill:none" points="1770.43,1423.18 1770.43,123.472 "/>
<polyline clip-path="url(#clip392)" style="stroke:#000000; stroke-linecap:round; stroke-linejoin:round; stroke-width:2; stroke-opacity:0.1; fill:none" points="1576.68,1423.18 1576.68,123.472 "/>
<polyline clip-path="url(#clip392)" style="stroke:#000000; stroke-linecap:round; stroke-linejoin:round; stroke-width:2; stroke-opacity:0.1; fill:none" points="1382.94,1423.18 1382.94,123.472 "/>
<polyline clip-path="url(#clip392)" style="stroke:#000000; stroke-linecap:round; stroke-linejoin:round; stroke-width:2; stroke-opacity:0.1; fill:none" points="1189.2,1423.18 1189.2,123.472 "/>
<polyline clip-path="url(#clip392)" style="stroke:#000000; stroke-linecap:round; stroke-linejoin:round; stroke-width:2; stroke-opacity:0.1; fill:none" points="995.451,1423.18 995.451,123.472 "/>
<polyline clip-path="url(#clip392)" style="stroke:#000000; stroke-linecap:round; stroke-linejoin:round; stroke-width:2; stroke-opacity:0.1; fill:none" points="801.707,1423.18 801.707,123.472 "/>
<polyline clip-path="url(#clip392)" style="stroke:#000000; stroke-linecap:round; stroke-linejoin:round; stroke-width:2; stroke-opacity:0.1; fill:none" points="607.962,1423.18 607.962,123.472 "/>
<polyline clip-path="url(#clip392)" style="stroke:#000000; stroke-linecap:round; stroke-linejoin:round; stroke-width:2; stroke-opacity:0.1; fill:none" points="414.217,1423.18 414.217,123.472 "/>
<polyline clip-path="url(#clip392)" style="stroke:#000000; stroke-linecap:round; stroke-linejoin:round; stroke-width:2; stroke-opacity:0.1; fill:none" points="2352.76,1423.18 219.38,1423.18 "/>
<polyline clip-path="url(#clip392)" style="stroke:#000000; stroke-linecap:round; stroke-linejoin:round; stroke-width:2; stroke-opacity:0.1; fill:none" points="2352.76,1082.05 219.38,1082.05 "/>
<polyline clip-path="url(#clip392)" style="stroke:#000000; stroke-linecap:round; stroke-linejoin:round; stroke-width:2; stroke-opacity:0.1; fill:none" points="2352.76,740.928 219.38,740.928 "/>
<polyline clip-path="url(#clip392)" style="stroke:#000000; stroke-linecap:round; stroke-linejoin:round; stroke-width:2; stroke-opacity:0.1; fill:none" points="2352.76,399.801 219.38,399.801 "/>
<polyline clip-path="url(#clip390)" style="stroke:#000000; stroke-linecap:round; stroke-linejoin:round; stroke-width:4; stroke-opacity:1; fill:none" points="2352.76,1423.18 219.38,1423.18 "/>
<polyline clip-path="url(#clip390)" style="stroke:#000000; stroke-linecap:round; stroke-linejoin:round; stroke-width:4; stroke-opacity:1; fill:none" points="2157.92,1423.18 2157.92,1404.28 "/>
<polyline clip-path="url(#clip390)" style="stroke:#000000; stroke-linecap:round; stroke-linejoin:round; stroke-width:4; stroke-opacity:1; fill:none" points="1964.17,1423.18 1964.17,1404.28 "/>
<polyline clip-path="url(#clip390)" style="stroke:#000000; stroke-linecap:round; stroke-linejoin:round; stroke-width:4; stroke-opacity:1; fill:none" points="1770.43,1423.18 1770.43,1404.28 "/>
<polyline clip-path="url(#clip390)" style="stroke:#000000; stroke-linecap:round; stroke-linejoin:round; stroke-width:4; stroke-opacity:1; fill:none" points="1576.68,1423.18 1576.68,1404.28 "/>
<polyline clip-path="url(#clip390)" style="stroke:#000000; stroke-linecap:round; stroke-linejoin:round; stroke-width:4; stroke-opacity:1; fill:none" points="1382.94,1423.18 1382.94,1404.28 "/>
<polyline clip-path="url(#clip390)" style="stroke:#000000; stroke-linecap:round; stroke-linejoin:round; stroke-width:4; stroke-opacity:1; fill:none" points="1189.2,1423.18 1189.2,1404.28 "/>
<polyline clip-path="url(#clip390)" style="stroke:#000000; stroke-linecap:round; stroke-linejoin:round; stroke-width:4; stroke-opacity:1; fill:none" points="995.451,1423.18 995.451,1404.28 "/>
<polyline clip-path="url(#clip390)" style="stroke:#000000; stroke-linecap:round; stroke-linejoin:round; stroke-width:4; stroke-opacity:1; fill:none" points="801.707,1423.18 801.707,1404.28 "/>
<polyline clip-path="url(#clip390)" style="stroke:#000000; stroke-linecap:round; stroke-linejoin:round; stroke-width:4; stroke-opacity:1; fill:none" points="607.962,1423.18 607.962,1404.28 "/>
<polyline clip-path="url(#clip390)" style="stroke:#000000; stroke-linecap:round; stroke-linejoin:round; stroke-width:4; stroke-opacity:1; fill:none" points="414.217,1423.18 414.217,1404.28 "/>
<path clip-path="url(#clip390)" d="M2148.2 1451.02 L2166.55 1451.02 L2166.55 1454.96 L2152.48 1454.96 L2152.48 1463.43 Q2153.5 1463.08 2154.52 1462.92 Q2155.53 1462.73 2156.55 1462.73 Q2162.34 1462.73 2165.72 1465.9 Q2169.1 1469.08 2169.1 1474.49 Q2169.1 1480.07 2165.63 1483.17 Q2162.15 1486.25 2155.84 1486.25 Q2153.66 1486.25 2151.39 1485.88 Q2149.15 1485.51 2146.74 1484.77 L2146.74 1480.07 Q2148.82 1481.2 2151.04 1481.76 Q2153.27 1482.32 2155.74 1482.32 Q2159.75 1482.32 2162.09 1480.21 Q2164.42 1478.1 2164.42 1474.49 Q2164.42 1470.88 2162.09 1468.77 Q2159.75 1466.67 2155.74 1466.67 Q2153.87 1466.67 2151.99 1467.08 Q2150.14 1467.5 2148.2 1468.38 L2148.2 1451.02 Z" fill="#000000" fill-rule="nonzero" fill-opacity="1" /><path clip-path="url(#clip390)" d="M1939.36 1481.64 L1947 1481.64 L1947 1455.28 L1938.69 1456.95 L1938.69 1452.69 L1946.95 1451.02 L1951.63 1451.02 L1951.63 1481.64 L1959.27 1481.64 L1959.27 1485.58 L1939.36 1485.58 L1939.36 1481.64 Z" fill="#000000" fill-rule="nonzero" fill-opacity="1" /><path clip-path="url(#clip390)" d="M1968.76 1451.02 L1987.11 1451.02 L1987.11 1454.96 L1973.04 1454.96 L1973.04 1463.43 Q1974.06 1463.08 1975.08 1462.92 Q1976.1 1462.73 1977.11 1462.73 Q1982.9 1462.73 1986.28 1465.9 Q1989.66 1469.08 1989.66 1474.49 Q1989.66 1480.07 1986.19 1483.17 Q1982.72 1486.25 1976.4 1486.25 Q1974.22 1486.25 1971.95 1485.88 Q1969.71 1485.51 1967.3 1484.77 L1967.3 1480.07 Q1969.38 1481.2 1971.6 1481.76 Q1973.83 1482.32 1976.3 1482.32 Q1980.31 1482.32 1982.65 1480.21 Q1984.98 1478.1 1984.98 1474.49 Q1984.98 1470.88 1982.65 1468.77 Q1980.31 1466.67 1976.3 1466.67 Q1974.43 1466.67 1972.55 1467.08 Q1970.7 1467.5 1968.76 1468.38 L1968.76 1451.02 Z" fill="#000000" fill-rule="nonzero" fill-opacity="1" /><path clip-path="url(#clip390)" d="M1749.7 1481.64 L1766.02 1481.64 L1766.02 1485.58 L1744.08 1485.58 L1744.08 1481.64 Q1746.74 1478.89 1751.32 1474.26 Q1755.93 1469.61 1757.11 1468.27 Q1759.35 1465.74 1760.23 1464.01 Q1761.14 1462.25 1761.14 1460.56 Q1761.14 1457.8 1759.19 1456.07 Q1757.27 1454.33 1754.17 1454.33 Q1751.97 1454.33 1749.52 1455.09 Q1747.08 1455.86 1744.31 1457.41 L1744.31 1452.69 Q1747.13 1451.55 1749.58 1450.97 Q1752.04 1450.39 1754.08 1450.39 Q1759.45 1450.39 1762.64 1453.08 Q1765.83 1455.77 1765.83 1460.26 Q1765.83 1462.39 1765.02 1464.31 Q1764.24 1466.2 1762.13 1468.8 Q1761.55 1469.47 1758.45 1472.69 Q1755.35 1475.88 1749.7 1481.64 Z" fill="#000000" fill-rule="nonzero" fill-opacity="1" /><path clip-path="url(#clip390)" d="M1775.88 1451.02 L1794.24 1451.02 L1794.24 1454.96 L1780.16 1454.96 L1780.16 1463.43 Q1781.18 1463.08 1782.2 1462.92 Q1783.22 1462.73 1784.24 1462.73 Q1790.02 1462.73 1793.4 1465.9 Q1796.78 1469.08 1796.78 1474.49 Q1796.78 1480.07 1793.31 1483.17 Q1789.84 1486.25 1783.52 1486.25 Q1781.34 1486.25 1779.08 1485.88 Q1776.83 1485.51 1774.42 1484.77 L1774.42 1480.07 Q1776.51 1481.2 1778.73 1481.76 Q1780.95 1482.32 1783.43 1482.32 Q1787.43 1482.32 1789.77 1480.21 Q1792.11 1478.1 1792.11 1474.49 Q1792.11 1470.88 1789.77 1468.77 Q1787.43 1466.67 1783.43 1466.67 Q1781.55 1466.67 1779.68 1467.08 Q1777.83 1467.5 1775.88 1468.38 L1775.88 1451.02 Z" fill="#000000" fill-rule="nonzero" fill-opacity="1" /><path clip-path="url(#clip390)" d="M1566.03 1466.95 Q1569.38 1467.66 1571.26 1469.93 Q1573.15 1472.2 1573.15 1475.53 Q1573.15 1480.65 1569.64 1483.45 Q1566.12 1486.25 1559.64 1486.25 Q1557.46 1486.25 1555.15 1485.81 Q1552.85 1485.39 1550.4 1484.54 L1550.4 1480.02 Q1552.34 1481.16 1554.66 1481.74 Q1556.97 1482.32 1559.5 1482.32 Q1563.9 1482.32 1566.19 1480.58 Q1568.5 1478.84 1568.5 1475.53 Q1568.5 1472.48 1566.35 1470.77 Q1564.22 1469.03 1560.4 1469.03 L1556.37 1469.03 L1556.37 1465.19 L1560.59 1465.19 Q1564.03 1465.19 1565.86 1463.82 Q1567.69 1462.43 1567.69 1459.84 Q1567.69 1457.18 1565.79 1455.77 Q1563.92 1454.33 1560.4 1454.33 Q1558.48 1454.33 1556.28 1454.75 Q1554.08 1455.16 1551.44 1456.04 L1551.44 1451.88 Q1554.1 1451.14 1556.42 1450.77 Q1558.76 1450.39 1560.82 1450.39 Q1566.14 1450.39 1569.24 1452.83 Q1572.34 1455.23 1572.34 1459.35 Q1572.34 1462.22 1570.7 1464.21 Q1569.06 1466.18 1566.03 1466.95 Z" fill="#000000" fill-rule="nonzero" fill-opacity="1" /><path clip-path="url(#clip390)" d="M1582.07 1451.02 L1600.42 1451.02 L1600.42 1454.96 L1586.35 1454.96 L1586.35 1463.43 Q1587.37 1463.08 1588.39 1462.92 Q1589.4 1462.73 1590.42 1462.73 Q1596.21 1462.73 1599.59 1465.9 Q1602.97 1469.08 1602.97 1474.49 Q1602.97 1480.07 1599.5 1483.17 Q1596.03 1486.25 1589.71 1486.25 Q1587.53 1486.25 1585.26 1485.88 Q1583.02 1485.51 1580.61 1484.77 L1580.61 1480.07 Q1582.69 1481.2 1584.91 1481.76 Q1587.14 1482.32 1589.61 1482.32 Q1593.62 1482.32 1595.96 1480.21 Q1598.29 1478.1 1598.29 1474.49 Q1598.29 1470.88 1595.96 1468.77 Q1593.62 1466.67 1589.61 1466.67 Q1587.74 1466.67 1585.86 1467.08 Q1584.01 1467.5 1582.07 1468.38 L1582.07 1451.02 Z" fill="#000000" fill-rule="nonzero" fill-opacity="1" /><path clip-path="url(#clip390)" d="M1371.61 1455.09 L1359.8 1473.54 L1371.61 1473.54 L1371.61 1455.09 M1370.38 1451.02 L1376.26 1451.02 L1376.26 1473.54 L1381.19 1473.54 L1381.19 1477.43 L1376.26 1477.43 L1376.26 1485.58 L1371.61 1485.58 L1371.61 1477.43 L1356.01 1477.43 L1356.01 1472.92 L1370.38 1451.02 Z" fill="#000000" fill-rule="nonzero" fill-opacity="1" /><path clip-path="url(#clip390)" d="M1388.97 1451.02 L1407.33 1451.02 L1407.33 1454.96 L1393.25 1454.96 L1393.25 1463.43 Q1394.27 1463.08 1395.29 1462.92 Q1396.31 1462.73 1397.33 1462.73 Q1403.11 1462.73 1406.49 1465.9 Q1409.87 1469.08 1409.87 1474.49 Q1409.87 1480.07 1406.4 1483.17 Q1402.93 1486.25 1396.61 1486.25 Q1394.43 1486.25 1392.16 1485.88 Q1389.92 1485.51 1387.51 1484.77 L1387.51 1480.07 Q1389.6 1481.2 1391.82 1481.76 Q1394.04 1482.32 1396.52 1482.32 Q1400.52 1482.32 1402.86 1480.21 Q1405.2 1478.1 1405.2 1474.49 Q1405.2 1470.88 1402.86 1468.77 Q1400.52 1466.67 1396.52 1466.67 Q1394.64 1466.67 1392.77 1467.08 Q1390.91 1467.5 1388.97 1468.38 L1388.97 1451.02 Z" fill="#000000" fill-rule="nonzero" fill-opacity="1" /><path clip-path="url(#clip390)" d="M1164.39 1451.02 L1182.75 1451.02 L1182.75 1454.96 L1168.68 1454.96 L1168.68 1463.43 Q1169.69 1463.08 1170.71 1462.92 Q1171.73 1462.73 1172.75 1462.73 Q1178.54 1462.73 1181.92 1465.9 Q1185.3 1469.08 1185.3 1474.49 Q1185.3 1480.07 1181.82 1483.17 Q1178.35 1486.25 1172.03 1486.25 Q1169.86 1486.25 1167.59 1485.88 Q1165.34 1485.51 1162.93 1484.77 L1162.93 1480.07 Q1165.02 1481.2 1167.24 1481.76 Q1169.46 1482.32 1171.94 1482.32 Q1175.94 1482.32 1178.28 1480.21 Q1180.62 1478.1 1180.62 1474.49 Q1180.62 1470.88 1178.28 1468.77 Q1175.94 1466.67 1171.94 1466.67 Q1170.06 1466.67 1168.19 1467.08 Q1166.34 1467.5 1164.39 1468.38 L1164.39 1451.02 Z" fill="#000000" fill-rule="nonzero" fill-opacity="1" /><path clip-path="url(#clip390)" d="M1194.55 1451.02 L1212.91 1451.02 L1212.91 1454.96 L1198.84 1454.96 L1198.84 1463.43 Q1199.86 1463.08 1200.87 1462.92 Q1201.89 1462.73 1202.91 1462.73 Q1208.7 1462.73 1212.08 1465.9 Q1215.46 1469.08 1215.46 1474.49 Q1215.46 1480.07 1211.98 1483.17 Q1208.51 1486.25 1202.19 1486.25 Q1200.02 1486.25 1197.75 1485.88 Q1195.5 1485.51 1193.1 1484.77 L1193.1 1480.07 Q1195.18 1481.2 1197.4 1481.76 Q1199.62 1482.32 1202.1 1482.32 Q1206.11 1482.32 1208.44 1480.21 Q1210.78 1478.1 1210.78 1474.49 Q1210.78 1470.88 1208.44 1468.77 Q1206.11 1466.67 1202.1 1466.67 Q1200.23 1466.67 1198.35 1467.08 Q1196.5 1467.5 1194.55 1468.38 L1194.55 1451.02 Z" fill="#000000" fill-rule="nonzero" fill-opacity="1" /><path clip-path="url(#clip390)" d="M981.354 1466.44 Q978.206 1466.44 976.354 1468.59 Q974.525 1470.74 974.525 1474.49 Q974.525 1478.22 976.354 1480.39 Q978.206 1482.55 981.354 1482.55 Q984.502 1482.55 986.331 1480.39 Q988.183 1478.22 988.183 1474.49 Q988.183 1470.74 986.331 1468.59 Q984.502 1466.44 981.354 1466.44 M990.636 1451.78 L990.636 1456.04 Q988.877 1455.21 987.072 1454.77 Q985.289 1454.33 983.53 1454.33 Q978.9 1454.33 976.447 1457.45 Q974.016 1460.58 973.669 1466.9 Q975.035 1464.89 977.095 1463.82 Q979.155 1462.73 981.632 1462.73 Q986.84 1462.73 989.849 1465.9 Q992.882 1469.05 992.882 1474.49 Q992.882 1479.82 989.734 1483.03 Q986.585 1486.25 981.354 1486.25 Q975.359 1486.25 972.187 1481.67 Q969.016 1477.06 969.016 1468.33 Q969.016 1460.14 972.905 1455.28 Q976.794 1450.39 983.345 1450.39 Q985.104 1450.39 986.886 1450.74 Q988.692 1451.09 990.636 1451.78 Z" fill="#000000" fill-rule="nonzero" fill-opacity="1" /><path clip-path="url(#clip390)" d="M1000.98 1451.02 L1019.34 1451.02 L1019.34 1454.96 L1005.27 1454.96 L1005.27 1463.43 Q1006.28 1463.08 1007.3 1462.92 Q1008.32 1462.73 1009.34 1462.73 Q1015.13 1462.73 1018.51 1465.9 Q1021.89 1469.08 1021.89 1474.49 Q1021.89 1480.07 1018.41 1483.17 Q1014.94 1486.25 1008.62 1486.25 Q1006.45 1486.25 1004.18 1485.88 Q1001.93 1485.51 999.525 1484.77 L999.525 1480.07 Q1001.61 1481.2 1003.83 1481.76 Q1006.05 1482.32 1008.53 1482.32 Q1012.53 1482.32 1014.87 1480.21 Q1017.21 1478.1 1017.21 1474.49 Q1017.21 1470.88 1014.87 1468.77 Q1012.53 1466.67 1008.53 1466.67 Q1006.65 1466.67 1004.78 1467.08 Q1002.93 1467.5 1000.98 1468.38 L1000.98 1451.02 Z" fill="#000000" fill-rule="nonzero" fill-opacity="1" /><path clip-path="url(#clip390)" d="M775.561 1451.02 L797.783 1451.02 L797.783 1453.01 L785.237 1485.58 L780.353 1485.58 L792.158 1454.96 L775.561 1454.96 L775.561 1451.02 Z" fill="#000000" fill-rule="nonzero" fill-opacity="1" /><path clip-path="url(#clip390)" d="M806.95 1451.02 L825.306 1451.02 L825.306 1454.96 L811.232 1454.96 L811.232 1463.43 Q812.251 1463.08 813.269 1462.92 Q814.288 1462.73 815.306 1462.73 Q821.093 1462.73 824.473 1465.9 Q827.852 1469.08 827.852 1474.49 Q827.852 1480.07 824.38 1483.17 Q820.908 1486.25 814.588 1486.25 Q812.413 1486.25 810.144 1485.88 Q807.899 1485.51 805.491 1484.77 L805.491 1480.07 Q807.575 1481.2 809.797 1481.76 Q812.019 1482.32 814.496 1482.32 Q818.5 1482.32 820.838 1480.21 Q823.176 1478.1 823.176 1474.49 Q823.176 1470.88 820.838 1468.77 Q818.5 1466.67 814.496 1466.67 Q812.621 1466.67 810.746 1467.08 Q808.894 1467.5 806.95 1468.38 L806.95 1451.02 Z" fill="#000000" fill-rule="nonzero" fill-opacity="1" /><path clip-path="url(#clip390)" d="M593.332 1469.17 Q589.999 1469.17 588.078 1470.95 Q586.18 1472.73 586.18 1475.86 Q586.18 1478.98 588.078 1480.77 Q589.999 1482.55 593.332 1482.55 Q596.666 1482.55 598.587 1480.77 Q600.508 1478.96 600.508 1475.86 Q600.508 1472.73 598.587 1470.95 Q596.689 1469.17 593.332 1469.17 M588.657 1467.18 Q585.647 1466.44 583.958 1464.38 Q582.291 1462.32 582.291 1459.35 Q582.291 1455.21 585.231 1452.8 Q588.194 1450.39 593.332 1450.39 Q598.494 1450.39 601.434 1452.8 Q604.374 1455.21 604.374 1459.35 Q604.374 1462.32 602.684 1464.38 Q601.018 1466.44 598.032 1467.18 Q601.411 1467.96 603.286 1470.26 Q605.184 1472.55 605.184 1475.86 Q605.184 1480.88 602.106 1483.57 Q599.05 1486.25 593.332 1486.25 Q587.615 1486.25 584.536 1483.57 Q581.481 1480.88 581.481 1475.86 Q581.481 1472.55 583.379 1470.26 Q585.277 1467.96 588.657 1467.18 M586.944 1459.79 Q586.944 1462.48 588.61 1463.98 Q590.3 1465.49 593.332 1465.49 Q596.342 1465.49 598.032 1463.98 Q599.744 1462.48 599.744 1459.79 Q599.744 1457.11 598.032 1455.6 Q596.342 1454.1 593.332 1454.1 Q590.3 1454.1 588.61 1455.6 Q586.944 1457.11 586.944 1459.79 Z" fill="#000000" fill-rule="nonzero" fill-opacity="1" /><path clip-path="url(#clip390)" d="M613.541 1451.02 L631.897 1451.02 L631.897 1454.96 L617.823 1454.96 L617.823 1463.43 Q618.842 1463.08 619.86 1462.92 Q620.879 1462.73 621.897 1462.73 Q627.684 1462.73 631.064 1465.9 Q634.443 1469.08 634.443 1474.49 Q634.443 1480.07 630.971 1483.17 Q627.499 1486.25 621.18 1486.25 Q619.004 1486.25 616.735 1485.88 Q614.49 1485.51 612.082 1484.77 L612.082 1480.07 Q614.166 1481.2 616.388 1481.76 Q618.61 1482.32 621.087 1482.32 Q625.092 1482.32 627.43 1480.21 Q629.767 1478.1 629.767 1474.49 Q629.767 1470.88 627.43 1468.77 Q625.092 1466.67 621.087 1466.67 Q619.212 1466.67 617.337 1467.08 Q615.485 1467.5 613.541 1468.38 L613.541 1451.02 Z" fill="#000000" fill-rule="nonzero" fill-opacity="1" /><path clip-path="url(#clip390)" d="M389.843 1484.86 L389.843 1480.6 Q391.602 1481.44 393.407 1481.88 Q395.213 1482.32 396.949 1482.32 Q401.579 1482.32 404.009 1479.21 Q406.463 1476.09 406.81 1469.75 Q405.467 1471.74 403.407 1472.8 Q401.347 1473.87 398.847 1473.87 Q393.662 1473.87 390.63 1470.74 Q387.62 1467.59 387.62 1462.15 Q387.62 1456.83 390.769 1453.61 Q393.917 1450.39 399.148 1450.39 Q405.143 1450.39 408.292 1455 Q411.463 1459.58 411.463 1468.33 Q411.463 1476.51 407.574 1481.39 Q403.708 1486.25 397.157 1486.25 Q395.398 1486.25 393.593 1485.9 Q391.787 1485.56 389.843 1484.86 M399.148 1470.21 Q402.296 1470.21 404.125 1468.06 Q405.977 1465.9 405.977 1462.15 Q405.977 1458.43 404.125 1456.27 Q402.296 1454.1 399.148 1454.1 Q396 1454.1 394.148 1456.27 Q392.319 1458.43 392.319 1462.15 Q392.319 1465.9 394.148 1468.06 Q396 1470.21 399.148 1470.21 Z" fill="#000000" fill-rule="nonzero" fill-opacity="1" /><path clip-path="url(#clip390)" d="M419.912 1451.02 L438.268 1451.02 L438.268 1454.96 L424.194 1454.96 L424.194 1463.43 Q425.213 1463.08 426.231 1462.92 Q427.25 1462.73 428.268 1462.73 Q434.055 1462.73 437.435 1465.9 Q440.815 1469.08 440.815 1474.49 Q440.815 1480.07 437.342 1483.17 Q433.87 1486.25 427.551 1486.25 Q425.375 1486.25 423.106 1485.88 Q420.861 1485.51 418.454 1484.77 L418.454 1480.07 Q420.537 1481.2 422.759 1481.76 Q424.981 1482.32 427.458 1482.32 Q431.463 1482.32 433.801 1480.21 Q436.139 1478.1 436.139 1474.49 Q436.139 1470.88 433.801 1468.77 Q431.463 1466.67 427.458 1466.67 Q425.583 1466.67 423.708 1467.08 Q421.856 1467.5 419.912 1468.38 L419.912 1451.02 Z" fill="#000000" fill-rule="nonzero" fill-opacity="1" /><path clip-path="url(#clip390)" d="M1084.35 1547.13 Q1081.59 1547.13 1079.99 1549.49 Q1078.43 1551.84 1078.43 1556.04 Q1078.43 1560.18 1079.99 1562.57 Q1081.59 1564.92 1084.35 1564.92 Q1087.06 1564.92 1088.62 1562.57 Q1090.21 1560.18 1090.21 1556.04 Q1090.21 1551.87 1088.62 1549.52 Q1087.06 1547.13 1084.35 1547.13 M1084.35 1543.09 Q1089.38 1543.09 1092.34 1546.59 Q1095.3 1550.09 1095.3 1556.04 Q1095.3 1562 1092.31 1565.5 Q1089.35 1568.97 1084.35 1568.97 Q1079.26 1568.97 1076.3 1565.5 Q1073.34 1562 1073.34 1556.04 Q1073.34 1550.06 1076.3 1546.59 Q1079.29 1543.09 1084.35 1543.09 M1051.51 1523.71 Q1048.77 1523.71 1047.18 1526.09 Q1045.62 1528.45 1045.62 1532.59 Q1045.62 1536.79 1047.18 1539.14 Q1048.74 1541.5 1051.51 1541.5 Q1054.28 1541.5 1055.84 1539.14 Q1057.43 1536.79 1057.43 1532.59 Q1057.43 1528.48 1055.84 1526.09 Q1054.24 1523.71 1051.51 1523.71 M1080.25 1519.66 L1085.34 1519.66 L1055.61 1568.97 L1050.52 1568.97 L1080.25 1519.66 M1051.51 1519.66 Q1056.54 1519.66 1059.53 1523.17 Q1062.52 1526.63 1062.52 1532.59 Q1062.52 1538.6 1059.53 1542.07 Q1056.57 1545.54 1051.51 1545.54 Q1046.45 1545.54 1043.49 1542.07 Q1040.56 1538.57 1040.56 1532.59 Q1040.56 1526.67 1043.52 1523.17 Q1046.48 1519.66 1051.51 1519.66 Z" fill="#000000" fill-rule="nonzero" fill-opacity="1" /><path clip-path="url(#clip390)" d="M1149.22 1537.81 L1149.22 1518.52 L1155.08 1518.52 L1155.08 1568.04 L1149.22 1568.04 L1149.22 1562.7 Q1147.38 1565.88 1144.54 1567.44 Q1141.74 1568.97 1137.79 1568.97 Q1131.33 1568.97 1127.26 1563.81 Q1123.22 1558.65 1123.22 1550.25 Q1123.22 1541.85 1127.26 1536.69 Q1131.33 1531.54 1137.79 1531.54 Q1141.74 1531.54 1144.54 1533.1 Q1147.38 1534.62 1149.22 1537.81 M1129.26 1550.25 Q1129.26 1556.71 1131.91 1560.4 Q1134.58 1564.07 1139.23 1564.07 Q1143.87 1564.07 1146.55 1560.4 Q1149.22 1556.71 1149.22 1550.25 Q1149.22 1543.79 1146.55 1540.13 Q1143.87 1536.44 1139.23 1536.44 Q1134.58 1536.44 1131.91 1540.13 Q1129.26 1543.79 1129.26 1550.25 Z" fill="#000000" fill-rule="nonzero" fill-opacity="1" /><path clip-path="url(#clip390)" d="M1183.34 1550.12 Q1176.24 1550.12 1173.51 1551.75 Q1170.77 1553.37 1170.77 1557.29 Q1170.77 1560.4 1172.81 1562.25 Q1174.88 1564.07 1178.41 1564.07 Q1183.28 1564.07 1186.21 1560.63 Q1189.17 1557.16 1189.17 1551.43 L1189.17 1550.12 L1183.34 1550.12 M1195.02 1547.71 L1195.02 1568.04 L1189.17 1568.04 L1189.17 1562.63 Q1187.16 1565.88 1184.17 1567.44 Q1181.18 1568.97 1176.85 1568.97 Q1171.37 1568.97 1168.13 1565.91 Q1164.91 1562.82 1164.91 1557.67 Q1164.91 1551.65 1168.92 1548.6 Q1172.97 1545.54 1180.95 1545.54 L1189.17 1545.54 L1189.17 1544.97 Q1189.17 1540.93 1186.49 1538.73 Q1183.85 1536.5 1179.04 1536.5 Q1175.99 1536.5 1173.09 1537.23 Q1170.2 1537.97 1167.52 1539.43 L1167.52 1534.02 Q1170.74 1532.78 1173.76 1532.17 Q1176.78 1531.54 1179.65 1531.54 Q1187.38 1531.54 1191.2 1535.55 Q1195.02 1539.56 1195.02 1547.71 Z" fill="#000000" fill-rule="nonzero" fill-opacity="1" /><path clip-path="url(#clip390)" d="M1212.88 1522.27 L1212.88 1532.4 L1224.94 1532.4 L1224.94 1536.95 L1212.88 1536.95 L1212.88 1556.3 Q1212.88 1560.66 1214.06 1561.9 Q1215.27 1563.14 1218.93 1563.14 L1224.94 1563.14 L1224.94 1568.04 L1218.93 1568.04 Q1212.15 1568.04 1209.57 1565.53 Q1206.99 1562.98 1206.99 1556.3 L1206.99 1536.95 L1202.69 1536.95 L1202.69 1532.4 L1206.99 1532.4 L1206.99 1522.27 L1212.88 1522.27 Z" fill="#000000" fill-rule="nonzero" fill-opacity="1" /><path clip-path="url(#clip390)" d="M1248.84 1550.12 Q1241.75 1550.12 1239.01 1551.75 Q1236.27 1553.37 1236.27 1557.29 Q1236.27 1560.4 1238.31 1562.25 Q1240.38 1564.07 1243.91 1564.07 Q1248.78 1564.07 1251.71 1560.63 Q1254.67 1557.16 1254.67 1551.43 L1254.67 1550.12 L1248.84 1550.12 M1260.53 1547.71 L1260.53 1568.04 L1254.67 1568.04 L1254.67 1562.63 Q1252.66 1565.88 1249.67 1567.44 Q1246.68 1568.97 1242.35 1568.97 Q1236.88 1568.97 1233.63 1565.91 Q1230.42 1562.82 1230.42 1557.67 Q1230.42 1551.65 1234.43 1548.6 Q1238.47 1545.54 1246.46 1545.54 L1254.67 1545.54 L1254.67 1544.97 Q1254.67 1540.93 1252 1538.73 Q1249.35 1536.5 1244.55 1536.5 Q1241.49 1536.5 1238.6 1537.23 Q1235.7 1537.97 1233.03 1539.43 L1233.03 1534.02 Q1236.24 1532.78 1239.26 1532.17 Q1242.29 1531.54 1245.15 1531.54 Q1252.89 1531.54 1256.71 1535.55 Q1260.53 1539.56 1260.53 1547.71 Z" fill="#000000" fill-rule="nonzero" fill-opacity="1" /><path clip-path="url(#clip390)" d="M1321.06 1539.24 Q1323.26 1535.29 1326.32 1533.41 Q1329.37 1531.54 1333.51 1531.54 Q1339.08 1531.54 1342.1 1535.45 Q1345.13 1539.33 1345.13 1546.53 L1345.13 1568.04 L1339.24 1568.04 L1339.24 1546.72 Q1339.24 1541.59 1337.42 1539.11 Q1335.61 1536.63 1331.89 1536.63 Q1327.33 1536.63 1324.69 1539.65 Q1322.05 1542.68 1322.05 1547.9 L1322.05 1568.04 L1316.16 1568.04 L1316.16 1546.72 Q1316.16 1541.56 1314.35 1539.11 Q1312.53 1536.63 1308.75 1536.63 Q1304.26 1536.63 1301.62 1539.68 Q1298.97 1542.71 1298.97 1547.9 L1298.97 1568.04 L1293.09 1568.04 L1293.09 1532.4 L1298.97 1532.4 L1298.97 1537.93 Q1300.98 1534.66 1303.78 1533.1 Q1306.58 1531.54 1310.43 1531.54 Q1314.32 1531.54 1317.02 1533.51 Q1319.76 1535.48 1321.06 1539.24 Z" fill="#000000" fill-rule="nonzero" fill-opacity="1" /><path clip-path="url(#clip390)" d="M1356.81 1532.4 L1362.66 1532.4 L1362.66 1568.04 L1356.81 1568.04 L1356.81 1532.4 M1356.81 1518.52 L1362.66 1518.52 L1362.66 1525.93 L1356.81 1525.93 L1356.81 1518.52 Z" fill="#000000" fill-rule="nonzero" fill-opacity="1" /><path clip-path="url(#clip390)" d="M1397.64 1533.45 L1397.64 1538.98 Q1395.16 1537.71 1392.49 1537.07 Q1389.81 1536.44 1386.95 1536.44 Q1382.59 1536.44 1380.39 1537.77 Q1378.23 1539.11 1378.23 1541.79 Q1378.23 1543.82 1379.79 1545 Q1381.35 1546.15 1386.06 1547.2 L1388.06 1547.64 Q1394.3 1548.98 1396.91 1551.43 Q1399.55 1553.85 1399.55 1558.21 Q1399.55 1563.17 1395.61 1566.07 Q1391.69 1568.97 1384.82 1568.97 Q1381.95 1568.97 1378.83 1568.39 Q1375.74 1567.85 1372.31 1566.74 L1372.31 1560.69 Q1375.55 1562.38 1378.7 1563.24 Q1381.86 1564.07 1384.94 1564.07 Q1389.08 1564.07 1391.31 1562.66 Q1393.54 1561.23 1393.54 1558.65 Q1393.54 1556.27 1391.91 1554.99 Q1390.32 1553.72 1384.88 1552.54 L1382.84 1552.07 Q1377.4 1550.92 1374.98 1548.56 Q1372.56 1546.18 1372.56 1542.04 Q1372.56 1537.01 1376.13 1534.27 Q1379.69 1531.54 1386.25 1531.54 Q1389.49 1531.54 1392.36 1532.01 Q1395.22 1532.49 1397.64 1533.45 Z" fill="#000000" fill-rule="nonzero" fill-opacity="1" /><path clip-path="url(#clip390)" d="M1431.6 1533.45 L1431.6 1538.98 Q1429.12 1537.71 1426.45 1537.07 Q1423.77 1536.44 1420.91 1536.44 Q1416.55 1536.44 1414.35 1537.77 Q1412.19 1539.11 1412.19 1541.79 Q1412.19 1543.82 1413.75 1545 Q1415.31 1546.15 1420.02 1547.2 L1422.02 1547.64 Q1428.26 1548.98 1430.87 1551.43 Q1433.51 1553.85 1433.51 1558.21 Q1433.51 1563.17 1429.57 1566.07 Q1425.65 1568.97 1418.78 1568.97 Q1415.91 1568.97 1412.79 1568.39 Q1409.71 1567.85 1406.27 1566.74 L1406.27 1560.69 Q1409.51 1562.38 1412.67 1563.24 Q1415.82 1564.07 1418.9 1564.07 Q1423.04 1564.07 1425.27 1562.66 Q1427.5 1561.23 1427.5 1558.65 Q1427.5 1556.27 1425.87 1554.99 Q1424.28 1553.72 1418.84 1552.54 L1416.8 1552.07 Q1411.36 1550.92 1408.94 1548.56 Q1406.52 1546.18 1406.52 1542.04 Q1406.52 1537.01 1410.09 1534.27 Q1413.65 1531.54 1420.21 1531.54 Q1423.46 1531.54 1426.32 1532.01 Q1429.19 1532.49 1431.6 1533.45 Z" fill="#000000" fill-rule="nonzero" fill-opacity="1" /><path clip-path="url(#clip390)" d="M1442.84 1532.4 L1448.7 1532.4 L1448.7 1568.04 L1442.84 1568.04 L1442.84 1532.4 M1442.84 1518.52 L1448.7 1518.52 L1448.7 1525.93 L1442.84 1525.93 L1442.84 1518.52 Z" fill="#000000" fill-rule="nonzero" fill-opacity="1" /><path clip-path="url(#clip390)" d="M1490.58 1546.53 L1490.58 1568.04 L1484.73 1568.04 L1484.73 1546.72 Q1484.73 1541.66 1482.75 1539.14 Q1480.78 1536.63 1476.83 1536.63 Q1472.09 1536.63 1469.35 1539.65 Q1466.62 1542.68 1466.62 1547.9 L1466.62 1568.04 L1460.73 1568.04 L1460.73 1532.4 L1466.62 1532.4 L1466.62 1537.93 Q1468.72 1534.72 1471.55 1533.13 Q1474.41 1531.54 1478.14 1531.54 Q1484.28 1531.54 1487.43 1535.36 Q1490.58 1539.14 1490.58 1546.53 Z" fill="#000000" fill-rule="nonzero" fill-opacity="1" /><path clip-path="url(#clip390)" d="M1525.72 1549.81 Q1525.72 1543.44 1523.08 1539.94 Q1520.47 1536.44 1515.73 1536.44 Q1511.02 1536.44 1508.37 1539.94 Q1505.76 1543.44 1505.76 1549.81 Q1505.76 1556.14 1508.37 1559.64 Q1511.02 1563.14 1515.73 1563.14 Q1520.47 1563.14 1523.08 1559.64 Q1525.72 1556.14 1525.72 1549.81 M1531.58 1563.62 Q1531.58 1572.72 1527.54 1577.15 Q1523.49 1581.6 1515.15 1581.6 Q1512.07 1581.6 1509.33 1581.13 Q1506.59 1580.68 1504.01 1579.72 L1504.01 1574.03 Q1506.59 1575.43 1509.11 1576.1 Q1511.62 1576.76 1514.23 1576.76 Q1519.99 1576.76 1522.86 1573.74 Q1525.72 1570.75 1525.72 1564.67 L1525.72 1561.77 Q1523.91 1564.92 1521.07 1566.48 Q1518.24 1568.04 1514.29 1568.04 Q1507.74 1568.04 1503.73 1563.05 Q1499.72 1558.05 1499.72 1549.81 Q1499.72 1541.53 1503.73 1536.53 Q1507.74 1531.54 1514.29 1531.54 Q1518.24 1531.54 1521.07 1533.1 Q1523.91 1534.66 1525.72 1537.81 L1525.72 1532.4 L1531.58 1532.4 L1531.58 1563.62 Z" fill="#000000" fill-rule="nonzero" fill-opacity="1" /><polyline clip-path="url(#clip390)" style="stroke:#000000; stroke-linecap:round; stroke-linejoin:round; stroke-width:4; stroke-opacity:1; fill:none" points="219.38,1423.18 219.38,123.472 "/>
<polyline clip-path="url(#clip390)" style="stroke:#000000; stroke-linecap:round; stroke-linejoin:round; stroke-width:4; stroke-opacity:1; fill:none" points="219.38,1423.18 238.278,1423.18 "/>
<polyline clip-path="url(#clip390)" style="stroke:#000000; stroke-linecap:round; stroke-linejoin:round; stroke-width:4; stroke-opacity:1; fill:none" points="219.38,1082.05 238.278,1082.05 "/>
<polyline clip-path="url(#clip390)" style="stroke:#000000; stroke-linecap:round; stroke-linejoin:round; stroke-width:4; stroke-opacity:1; fill:none" points="219.38,740.928 238.278,740.928 "/>
<polyline clip-path="url(#clip390)" style="stroke:#000000; stroke-linecap:round; stroke-linejoin:round; stroke-width:4; stroke-opacity:1; fill:none" points="219.38,399.801 238.278,399.801 "/>
<path clip-path="url(#clip390)" d="M126.205 1408.98 Q122.593 1408.98 120.765 1412.54 Q118.959 1416.08 118.959 1423.21 Q118.959 1430.32 120.765 1433.89 Q122.593 1437.43 126.205 1437.43 Q129.839 1437.43 131.644 1433.89 Q133.473 1430.32 133.473 1423.21 Q133.473 1416.08 131.644 1412.54 Q129.839 1408.98 126.205 1408.98 M126.205 1405.27 Q132.015 1405.27 135.07 1409.88 Q138.149 1414.46 138.149 1423.21 Q138.149 1431.94 135.07 1436.55 Q132.015 1441.13 126.205 1441.13 Q120.394 1441.13 117.316 1436.55 Q114.26 1431.94 114.26 1423.21 Q114.26 1414.46 117.316 1409.88 Q120.394 1405.27 126.205 1405.27 Z" fill="#000000" fill-rule="nonzero" fill-opacity="1" /><path clip-path="url(#clip390)" d="M146.366 1434.58 L151.251 1434.58 L151.251 1440.46 L146.366 1440.46 L146.366 1434.58 Z" fill="#000000" fill-rule="nonzero" fill-opacity="1" /><path clip-path="url(#clip390)" d="M171.436 1408.98 Q167.825 1408.98 165.996 1412.54 Q164.19 1416.08 164.19 1423.21 Q164.19 1430.32 165.996 1433.89 Q167.825 1437.43 171.436 1437.43 Q175.07 1437.43 176.876 1433.89 Q178.704 1430.32 178.704 1423.21 Q178.704 1416.08 176.876 1412.54 Q175.07 1408.98 171.436 1408.98 M171.436 1405.27 Q177.246 1405.27 180.301 1409.88 Q183.38 1414.46 183.38 1423.21 Q183.38 1431.94 180.301 1436.55 Q177.246 1441.13 171.436 1441.13 Q165.626 1441.13 162.547 1436.55 Q159.491 1431.94 159.491 1423.21 Q159.491 1414.46 162.547 1409.88 Q165.626 1405.27 171.436 1405.27 Z" fill="#000000" fill-rule="nonzero" fill-opacity="1" /><path clip-path="url(#clip390)" d="M127.431 1067.85 Q123.82 1067.85 121.992 1071.42 Q120.186 1074.96 120.186 1082.09 Q120.186 1089.19 121.992 1092.76 Q123.82 1096.3 127.431 1096.3 Q131.066 1096.3 132.871 1092.76 Q134.7 1089.19 134.7 1082.09 Q134.7 1074.96 132.871 1071.42 Q131.066 1067.85 127.431 1067.85 M127.431 1064.15 Q133.242 1064.15 136.297 1068.76 Q139.376 1073.34 139.376 1082.09 Q139.376 1090.82 136.297 1095.42 Q133.242 1100 127.431 1100 Q121.621 1100 118.543 1095.42 Q115.487 1090.82 115.487 1082.09 Q115.487 1073.34 118.543 1068.76 Q121.621 1064.15 127.431 1064.15 Z" fill="#000000" fill-rule="nonzero" fill-opacity="1" /><path clip-path="url(#clip390)" d="M147.593 1093.45 L152.478 1093.45 L152.478 1099.33 L147.593 1099.33 L147.593 1093.45 Z" fill="#000000" fill-rule="nonzero" fill-opacity="1" /><path clip-path="url(#clip390)" d="M163.473 1095.4 L171.112 1095.4 L171.112 1069.03 L162.802 1070.7 L162.802 1066.44 L171.065 1064.77 L175.741 1064.77 L175.741 1095.4 L183.38 1095.4 L183.38 1099.33 L163.473 1099.33 L163.473 1095.4 Z" fill="#000000" fill-rule="nonzero" fill-opacity="1" /><path clip-path="url(#clip390)" d="M127.802 726.726 Q124.191 726.726 122.362 730.291 Q120.556 733.833 120.556 740.962 Q120.556 748.069 122.362 751.634 Q124.191 755.175 127.802 755.175 Q131.436 755.175 133.242 751.634 Q135.07 748.069 135.07 740.962 Q135.07 733.833 133.242 730.291 Q131.436 726.726 127.802 726.726 M127.802 723.023 Q133.612 723.023 136.667 727.629 Q139.746 732.212 139.746 740.962 Q139.746 749.689 136.667 754.296 Q133.612 758.879 127.802 758.879 Q121.992 758.879 118.913 754.296 Q115.857 749.689 115.857 740.962 Q115.857 732.212 118.913 727.629 Q121.992 723.023 127.802 723.023 Z" fill="#000000" fill-rule="nonzero" fill-opacity="1" /><path clip-path="url(#clip390)" d="M147.964 752.328 L152.848 752.328 L152.848 758.208 L147.964 758.208 L147.964 752.328 Z" fill="#000000" fill-rule="nonzero" fill-opacity="1" /><path clip-path="url(#clip390)" d="M167.061 754.272 L183.38 754.272 L183.38 758.208 L161.436 758.208 L161.436 754.272 Q164.098 751.518 168.681 746.888 Q173.288 742.235 174.468 740.893 Q176.714 738.37 177.593 736.634 Q178.496 734.874 178.496 733.185 Q178.496 730.43 176.551 728.694 Q174.63 726.958 171.528 726.958 Q169.329 726.958 166.876 727.722 Q164.445 728.485 161.667 730.036 L161.667 725.314 Q164.491 724.18 166.945 723.601 Q169.399 723.023 171.436 723.023 Q176.806 723.023 180.001 725.708 Q183.195 728.393 183.195 732.884 Q183.195 735.013 182.385 736.935 Q181.598 738.833 179.491 741.425 Q178.913 742.097 175.811 745.314 Q172.709 748.509 167.061 754.272 Z" fill="#000000" fill-rule="nonzero" fill-opacity="1" /><path clip-path="url(#clip390)" d="M126.853 385.6 Q123.242 385.6 121.413 389.165 Q119.607 392.707 119.607 399.836 Q119.607 406.943 121.413 410.507 Q123.242 414.049 126.853 414.049 Q130.487 414.049 132.292 410.507 Q134.121 406.943 134.121 399.836 Q134.121 392.707 132.292 389.165 Q130.487 385.6 126.853 385.6 M126.853 381.896 Q132.663 381.896 135.718 386.503 Q138.797 391.086 138.797 399.836 Q138.797 408.563 135.718 413.169 Q132.663 417.753 126.853 417.753 Q121.043 417.753 117.964 413.169 Q114.908 408.563 114.908 399.836 Q114.908 391.086 117.964 386.503 Q121.043 381.896 126.853 381.896 Z" fill="#000000" fill-rule="nonzero" fill-opacity="1" /><path clip-path="url(#clip390)" d="M147.015 411.202 L151.899 411.202 L151.899 417.081 L147.015 417.081 L147.015 411.202 Z" fill="#000000" fill-rule="nonzero" fill-opacity="1" /><path clip-path="url(#clip390)" d="M176.251 398.447 Q179.607 399.165 181.482 401.433 Q183.38 403.702 183.38 407.035 Q183.38 412.151 179.862 414.952 Q176.343 417.753 169.862 417.753 Q167.686 417.753 165.371 417.313 Q163.079 416.896 160.626 416.04 L160.626 411.526 Q162.57 412.66 164.885 413.239 Q167.2 413.818 169.723 413.818 Q174.121 413.818 176.413 412.081 Q178.727 410.345 178.727 407.035 Q178.727 403.98 176.575 402.267 Q174.445 400.531 170.626 400.531 L166.598 400.531 L166.598 396.688 L170.811 396.688 Q174.26 396.688 176.089 395.322 Q177.917 393.933 177.917 391.341 Q177.917 388.679 176.019 387.267 Q174.144 385.832 170.626 385.832 Q168.704 385.832 166.505 386.248 Q164.306 386.665 161.667 387.545 L161.667 383.378 Q164.329 382.637 166.644 382.267 Q168.982 381.896 171.042 381.896 Q176.366 381.896 179.468 384.327 Q182.57 386.734 182.57 390.855 Q182.57 393.725 180.926 395.716 Q179.283 397.683 176.251 398.447 Z" fill="#000000" fill-rule="nonzero" fill-opacity="1" /><path clip-path="url(#clip390)" d="M35.1993 914.104 Q31.2526 911.907 29.3747 908.852 Q27.4968 905.796 27.4968 901.659 Q27.4968 896.089 31.4117 893.065 Q35.2948 890.041 42.4881 890.041 L64.0042 890.041 L64.0042 895.929 L42.679 895.929 Q37.5546 895.929 35.072 897.744 Q32.5894 899.558 32.5894 903.282 Q32.5894 907.833 35.6131 910.475 Q38.6368 913.117 43.8567 913.117 L64.0042 913.117 L64.0042 919.005 L42.679 919.005 Q37.5228 919.005 35.072 920.819 Q32.5894 922.634 32.5894 926.421 Q32.5894 930.909 35.6449 933.551 Q38.6686 936.193 43.8567 936.193 L64.0042 936.193 L64.0042 942.081 L28.3562 942.081 L28.3562 936.193 L33.8944 936.193 Q30.616 934.187 29.0564 931.386 Q27.4968 928.586 27.4968 924.734 Q27.4968 920.851 29.4702 918.146 Q31.4436 915.409 35.1993 914.104 Z" fill="#000000" fill-rule="nonzero" fill-opacity="1" /><path clip-path="url(#clip390)" d="M44.7161 847.868 L47.5806 847.868 L47.5806 874.795 Q53.6281 874.413 56.8109 871.167 Q59.9619 867.889 59.9619 862.064 Q59.9619 858.69 59.1344 855.539 Q58.3069 852.356 56.6518 849.237 L62.1899 849.237 Q63.5267 852.388 64.227 855.698 Q64.9272 859.008 64.9272 862.414 Q64.9272 870.944 59.9619 875.941 Q54.9967 880.906 46.5303 880.906 Q37.7774 880.906 32.6531 876.196 Q27.4968 871.453 27.4968 863.433 Q27.4968 856.239 32.1438 852.07 Q36.7589 847.868 44.7161 847.868 M42.9973 853.725 Q38.1912 853.789 35.3266 856.43 Q32.4621 859.04 32.4621 863.369 Q32.4621 868.27 35.2312 871.231 Q38.0002 874.159 43.0292 874.604 L42.9973 853.725 Z" fill="#000000" fill-rule="nonzero" fill-opacity="1" /><path clip-path="url(#clip390)" d="M46.0847 822.055 Q46.0847 829.153 47.7079 831.89 Q49.3312 834.628 53.2461 834.628 Q56.3653 834.628 58.2114 832.591 Q60.0256 830.522 60.0256 826.989 Q60.0256 822.119 56.5881 819.191 Q53.1188 816.231 47.3897 816.231 L46.0847 816.231 L46.0847 822.055 M43.6657 810.374 L64.0042 810.374 L64.0042 816.231 L58.5933 816.231 Q61.8398 818.236 63.3994 821.228 Q64.9272 824.22 64.9272 828.548 Q64.9272 834.023 61.8716 837.27 Q58.7843 840.484 53.6281 840.484 Q47.6125 840.484 44.5569 836.474 Q41.5014 832.432 41.5014 824.443 L41.5014 816.231 L40.9285 816.231 Q36.8862 816.231 34.6901 818.904 Q32.4621 821.546 32.4621 826.352 Q32.4621 829.408 33.1941 832.304 Q33.9262 835.201 35.3903 837.874 L29.9795 837.874 Q28.7381 834.66 28.1334 831.636 Q27.4968 828.612 27.4968 825.748 Q27.4968 818.013 31.5072 814.194 Q35.5176 810.374 43.6657 810.374 Z" fill="#000000" fill-rule="nonzero" fill-opacity="1" /><path clip-path="url(#clip390)" d="M42.4881 768.679 L64.0042 768.679 L64.0042 774.535 L42.679 774.535 Q37.6183 774.535 35.1038 776.509 Q32.5894 778.482 32.5894 782.429 Q32.5894 787.171 35.6131 789.909 Q38.6368 792.646 43.8567 792.646 L64.0042 792.646 L64.0042 798.534 L28.3562 798.534 L28.3562 792.646 L33.8944 792.646 Q30.6797 790.545 29.0883 787.712 Q27.4968 784.848 27.4968 781.124 Q27.4968 774.981 31.3163 771.83 Q35.1038 768.679 42.4881 768.679 Z" fill="#000000" fill-rule="nonzero" fill-opacity="1" /><path clip-path="url(#clip390)" d="M16.4842 736.023 L16.4842 726.443 L48.8219 714.316 L16.4842 702.126 L16.4842 692.545 L64.0042 692.545 L64.0042 698.815 L22.277 698.815 L54.8694 711.069 L54.8694 717.531 L22.277 729.785 L64.0042 729.785 L64.0042 736.023 L16.4842 736.023 Z" fill="#000000" fill-rule="nonzero" fill-opacity="1" /><path clip-path="url(#clip390)" d="M22.818 663.899 L46.4666 672.621 L46.4666 655.147 L22.818 663.899 M16.4842 667.528 L16.4842 660.239 L64.0042 642.129 L64.0042 648.813 L51.8138 653.141 L51.8138 674.562 L64.0042 678.891 L64.0042 685.67 L16.4842 667.528 Z" fill="#000000" fill-rule="nonzero" fill-opacity="1" /><path clip-path="url(#clip390)" d="M16.4842 635.19 L16.4842 605.144 L21.895 605.144 L21.895 628.761 L35.9632 628.761 L35.9632 606.131 L41.3741 606.131 L41.3741 628.761 L58.5933 628.761 L58.5933 604.571 L64.0042 604.571 L64.0042 635.19 L16.4842 635.19 Z" fill="#000000" fill-rule="nonzero" fill-opacity="1" /><path clip-path="url(#clip390)" d="M629.984 16.7545 L629.984 25.383 Q625.852 21.5346 621.153 19.6307 Q616.494 17.7268 611.228 17.7268 Q600.858 17.7268 595.348 24.0867 Q589.839 30.4061 589.839 42.3968 Q589.839 54.3469 595.348 60.7069 Q600.858 67.0263 611.228 67.0263 Q616.494 67.0263 621.153 65.1223 Q625.852 63.2184 629.984 59.3701 L629.984 67.9175 Q625.69 70.8341 620.869 72.2924 Q616.089 73.7508 610.742 73.7508 Q597.009 73.7508 589.11 65.3654 Q581.211 56.9395 581.211 42.3968 Q581.211 27.8135 589.11 19.4281 Q597.009 11.0023 610.742 11.0023 Q616.17 11.0023 620.95 12.4606 Q625.771 13.8784 629.984 16.7545 Z" fill="#000000" fill-rule="nonzero" fill-opacity="1" /><path clip-path="url(#clip390)" d="M678.878 14.0809 L678.878 22.0612 Q674.219 19.8332 670.088 18.7395 Q665.956 17.6457 662.107 17.6457 Q655.423 17.6457 651.777 20.2383 Q648.172 22.8309 648.172 27.611 Q648.172 31.6214 650.562 33.6873 Q652.993 35.7128 659.717 36.9686 L664.659 37.9813 Q673.814 39.7232 678.149 44.1387 Q682.524 48.5136 682.524 55.8863 Q682.524 64.6767 676.609 69.2137 Q670.736 73.7508 659.353 73.7508 Q655.059 73.7508 650.198 72.7785 Q645.377 71.8063 640.192 69.9024 L640.192 61.4765 Q645.174 64.2716 649.955 65.6895 Q654.735 67.1073 659.353 67.1073 Q666.361 67.1073 670.169 64.3527 Q673.976 61.598 673.976 56.4939 Q673.976 52.0379 671.222 49.5264 Q668.508 47.0148 662.269 45.759 L657.287 44.7868 Q648.132 42.9639 644.04 39.075 Q639.949 35.1862 639.949 28.2591 Q639.949 20.2383 645.58 15.6203 Q651.251 11.0023 661.176 11.0023 Q665.429 11.0023 669.844 11.7719 Q674.26 12.5416 678.878 14.0809 Z" fill="#000000" fill-rule="nonzero" fill-opacity="1" /><path clip-path="url(#clip390)" d="M703.467 18.8205 L703.467 65.8515 L713.351 65.8515 Q725.868 65.8515 731.661 60.1802 Q737.495 54.509 737.495 42.2752 Q737.495 30.1225 731.661 24.4918 Q725.868 18.8205 713.351 18.8205 L703.467 18.8205 M695.284 12.096 L712.095 12.096 Q729.676 12.096 737.9 19.4281 Q746.123 26.7198 746.123 42.2752 Q746.123 57.9117 737.859 65.2439 Q729.595 72.576 712.095 72.576 L695.284 72.576 L695.284 12.096 Z" fill="#000000" fill-rule="nonzero" fill-opacity="1" /><path clip-path="url(#clip390)" d="M759.167 12.096 L767.35 12.096 L767.35 72.576 L759.167 72.576 L759.167 12.096 Z" fill="#000000" fill-rule="nonzero" fill-opacity="1" /><path clip-path="url(#clip390)" d="M810.006 12.096 L818.189 12.096 L818.189 72.576 L810.006 72.576 L810.006 12.096 Z" fill="#000000" fill-rule="nonzero" fill-opacity="1" /><path clip-path="url(#clip390)" d="M842.656 18.8205 L842.656 41.5461 L852.945 41.5461 Q858.657 41.5461 861.776 38.5889 Q864.896 35.6318 864.896 30.163 Q864.896 24.7348 861.776 21.7777 Q858.657 18.8205 852.945 18.8205 L842.656 18.8205 M834.473 12.096 L852.945 12.096 Q863.113 12.096 868.298 16.714 Q873.524 21.2916 873.524 30.163 Q873.524 39.1155 868.298 43.6931 Q863.113 48.2706 852.945 48.2706 L842.656 48.2706 L842.656 72.576 L834.473 72.576 L834.473 12.096 Z" fill="#000000" fill-rule="nonzero" fill-opacity="1" /><path clip-path="url(#clip390)" d="M892.685 18.8205 L892.685 65.8515 L902.569 65.8515 Q915.086 65.8515 920.879 60.1802 Q926.712 54.509 926.712 42.2752 Q926.712 30.1225 920.879 24.4918 Q915.086 18.8205 902.569 18.8205 L892.685 18.8205 M884.502 12.096 L901.313 12.096 Q918.894 12.096 927.117 19.4281 Q935.341 26.7198 935.341 42.2752 Q935.341 57.9117 927.077 65.2439 Q918.813 72.576 901.313 72.576 L884.502 72.576 L884.502 12.096 Z" fill="#000000" fill-rule="nonzero" fill-opacity="1" /><path clip-path="url(#clip390)" d="M1000.28 39.9662 Q1006.15 41.222 1009.43 45.1919 Q1012.75 49.1618 1012.75 54.9951 Q1012.75 63.9476 1006.6 68.8492 Q1000.44 73.7508 989.096 73.7508 Q985.288 73.7508 981.237 72.9811 Q977.227 72.2519 972.933 70.7531 L972.933 62.8538 Q976.336 64.8388 980.387 65.8515 Q984.438 66.8642 988.853 66.8642 Q996.55 66.8642 1000.56 63.826 Q1004.61 60.7879 1004.61 54.9951 Q1004.61 49.6479 1000.84 46.6502 Q997.117 43.612 990.433 43.612 L983.384 43.612 L983.384 36.8875 L990.757 36.8875 Q996.793 36.8875 999.993 34.4975 Q1003.19 32.067 1003.19 27.5299 Q1003.19 22.8714 999.872 20.4004 Q996.59 17.8888 990.433 17.8888 Q987.071 17.8888 983.222 18.618 Q979.374 19.3471 974.756 20.8865 L974.756 13.5948 Q979.415 12.2985 983.465 11.6504 Q987.557 11.0023 991.162 11.0023 Q1000.48 11.0023 1005.91 15.2557 Q1011.34 19.4686 1011.34 26.6793 Q1011.34 31.7024 1008.46 35.1862 Q1005.58 38.6294 1000.28 39.9662 Z" fill="#000000" fill-rule="nonzero" fill-opacity="1" /><path clip-path="url(#clip390)" d="M1045.77 17.4837 Q1039.45 17.4837 1036.25 23.7221 Q1033.09 29.92 1033.09 42.3968 Q1033.09 54.833 1036.25 61.0714 Q1039.45 67.2693 1045.77 67.2693 Q1052.13 67.2693 1055.29 61.0714 Q1058.49 54.833 1058.49 42.3968 Q1058.49 29.92 1055.29 23.7221 Q1052.13 17.4837 1045.77 17.4837 M1045.77 11.0023 Q1055.94 11.0023 1061.28 19.0636 Q1066.67 27.0843 1066.67 42.3968 Q1066.67 57.6687 1061.28 65.73 Q1055.94 73.7508 1045.77 73.7508 Q1035.6 73.7508 1030.21 65.73 Q1024.87 57.6687 1024.87 42.3968 Q1024.87 27.0843 1030.21 19.0636 Q1035.6 11.0023 1045.77 11.0023 Z" fill="#000000" fill-rule="nonzero" fill-opacity="1" /><path clip-path="url(#clip390)" d="M1076.23 46.5287 L1098.07 46.5287 L1098.07 53.1722 L1076.23 53.1722 L1076.23 46.5287 Z" fill="#000000" fill-rule="nonzero" fill-opacity="1" /><path clip-path="url(#clip390)" d="M1110.26 12.096 L1145.02 12.096 L1145.02 18.9825 L1118.44 18.9825 L1118.44 36.8065 L1142.42 36.8065 L1142.42 43.6931 L1118.44 43.6931 L1118.44 72.576 L1110.26 72.576 L1110.26 12.096 Z" fill="#000000" fill-rule="nonzero" fill-opacity="1" /><path clip-path="url(#clip390)" d="M1172.28 32.4315 Q1166.28 32.4315 1162.8 37.1306 Q1159.32 41.7891 1159.32 49.9314 Q1159.32 58.0738 1162.76 62.7728 Q1166.24 67.4314 1172.28 67.4314 Q1178.23 67.4314 1181.72 62.7323 Q1185.2 58.0333 1185.2 49.9314 Q1185.2 41.8701 1181.72 37.1711 Q1178.23 32.4315 1172.28 32.4315 M1172.28 26.1121 Q1182 26.1121 1187.55 32.4315 Q1193.1 38.7509 1193.1 49.9314 Q1193.1 61.0714 1187.55 67.4314 Q1182 73.7508 1172.28 73.7508 Q1162.52 73.7508 1156.97 67.4314 Q1151.46 61.0714 1151.46 49.9314 Q1151.46 38.7509 1156.97 32.4315 Q1162.52 26.1121 1172.28 26.1121 Z" fill="#000000" fill-rule="nonzero" fill-opacity="1" /><path clip-path="url(#clip390)" d="M1205.46 9.54393 L1212.91 9.54393 L1212.91 72.576 L1205.46 72.576 L1205.46 9.54393 Z" fill="#000000" fill-rule="nonzero" fill-opacity="1" /><path clip-path="url(#clip390)" d="M1258.36 34.0924 L1258.36 9.54393 L1265.81 9.54393 L1265.81 72.576 L1258.36 72.576 L1258.36 65.7705 Q1256.01 69.8214 1252.41 71.8063 Q1248.84 73.7508 1243.82 73.7508 Q1235.59 73.7508 1230.41 67.1883 Q1225.26 60.6258 1225.26 49.9314 Q1225.26 39.2371 1230.41 32.6746 Q1235.59 26.1121 1243.82 26.1121 Q1248.84 26.1121 1252.41 28.0971 Q1256.01 30.0415 1258.36 34.0924 M1232.96 49.9314 Q1232.96 58.1548 1236.32 62.8538 Q1239.73 67.5124 1245.64 67.5124 Q1251.55 67.5124 1254.96 62.8538 Q1258.36 58.1548 1258.36 49.9314 Q1258.36 41.7081 1254.96 37.0496 Q1251.55 32.3505 1245.64 32.3505 Q1239.73 32.3505 1236.32 37.0496 Q1232.96 41.7081 1232.96 49.9314 Z" fill="#000000" fill-rule="nonzero" fill-opacity="1" /><path clip-path="url(#clip390)" d="M1307.86 12.096 L1320.06 12.096 L1335.49 53.2532 L1351 12.096 L1363.2 12.096 L1363.2 72.576 L1355.22 72.576 L1355.22 19.4686 L1339.62 60.9499 L1331.4 60.9499 L1315.8 19.4686 L1315.8 72.576 L1307.86 72.576 L1307.86 12.096 Z" fill="#000000" fill-rule="nonzero" fill-opacity="1" /><path clip-path="url(#clip390)" d="M1417.92 48.0275 L1417.92 51.6733 L1383.65 51.6733 Q1384.14 59.3701 1388.27 63.421 Q1392.44 67.4314 1399.86 67.4314 Q1404.15 67.4314 1408.16 66.3781 Q1412.21 65.3249 1416.18 63.2184 L1416.18 70.267 Q1412.17 71.9684 1407.96 72.8596 Q1403.75 73.7508 1399.41 73.7508 Q1388.56 73.7508 1382.2 67.4314 Q1375.88 61.1119 1375.88 50.3365 Q1375.88 39.1965 1381.87 32.6746 Q1387.91 26.1121 1398.12 26.1121 Q1407.27 26.1121 1412.58 32.0264 Q1417.92 37.9003 1417.92 48.0275 M1410.47 45.84 Q1410.39 39.7232 1407.03 36.0774 Q1403.71 32.4315 1398.2 32.4315 Q1391.96 32.4315 1388.19 35.9558 Q1384.46 39.4801 1383.9 45.8805 L1410.47 45.84 Z" fill="#000000" fill-rule="nonzero" fill-opacity="1" /><path clip-path="url(#clip390)" d="M1450.78 49.7694 Q1441.74 49.7694 1438.26 51.8354 Q1434.78 53.9013 1434.78 58.8839 Q1434.78 62.8538 1437.37 65.2034 Q1440 67.5124 1444.5 67.5124 Q1450.7 67.5124 1454.42 63.1374 Q1458.19 58.7219 1458.19 51.4303 L1458.19 49.7694 L1450.78 49.7694 M1465.64 46.6907 L1465.64 72.576 L1458.19 72.576 L1458.19 65.6895 Q1455.64 69.8214 1451.83 71.8063 Q1448.02 73.7508 1442.51 73.7508 Q1435.55 73.7508 1431.41 69.8619 Q1427.32 65.9325 1427.32 59.3701 Q1427.32 51.7138 1432.43 47.825 Q1437.57 43.9361 1447.74 43.9361 L1458.19 43.9361 L1458.19 43.2069 Q1458.19 38.0623 1454.79 35.2672 Q1451.43 32.4315 1445.31 32.4315 Q1441.42 32.4315 1437.73 33.3632 Q1434.05 34.295 1430.64 36.1584 L1430.64 29.2718 Q1434.74 27.692 1438.58 26.9223 Q1442.43 26.1121 1446.08 26.1121 Q1455.92 26.1121 1460.78 31.2163 Q1465.64 36.3204 1465.64 46.6907 Z" fill="#000000" fill-rule="nonzero" fill-opacity="1" /><path clip-path="url(#clip390)" d="M1518.71 45.1919 L1518.71 72.576 L1511.26 72.576 L1511.26 45.4349 Q1511.26 38.994 1508.75 35.7938 Q1506.23 32.5936 1501.21 32.5936 Q1495.18 32.5936 1491.69 36.4419 Q1488.21 40.2903 1488.21 46.9338 L1488.21 72.576 L1480.71 72.576 L1480.71 27.2059 L1488.21 27.2059 L1488.21 34.2544 Q1490.88 30.163 1494.49 28.1376 Q1498.13 26.1121 1502.87 26.1121 Q1510.69 26.1121 1514.7 30.9732 Q1518.71 35.7938 1518.71 45.1919 Z" fill="#000000" fill-rule="nonzero" fill-opacity="1" /><path clip-path="url(#clip390)" d="M1590.29 20.5624 L1590.29 43.1259 L1612.85 43.1259 L1612.85 50.0125 L1590.29 50.0125 L1590.29 72.576 L1583.49 72.576 L1583.49 50.0125 L1560.92 50.0125 L1560.92 43.1259 L1583.49 43.1259 L1583.49 20.5624 L1590.29 20.5624 Z" fill="#000000" fill-rule="nonzero" fill-opacity="1" /><path clip-path="url(#clip390)" d="M1642.71 12.096 L1649.6 12.096 L1628.53 80.2727 L1621.64 80.2727 L1642.71 12.096 Z" fill="#000000" fill-rule="nonzero" fill-opacity="1" /><path clip-path="url(#clip390)" d="M1653.65 46.5287 L1675.48 46.5287 L1675.48 53.1722 L1653.65 53.1722 L1653.65 46.5287 Z" fill="#000000" fill-rule="nonzero" fill-opacity="1" /><path clip-path="url(#clip390)" d="M1715.02 71.3202 L1715.02 63.8666 Q1718.1 65.3249 1721.26 66.0946 Q1724.42 66.8642 1727.45 66.8642 Q1735.56 66.8642 1739.81 61.436 Q1744.1 55.9673 1744.71 44.8678 Q1742.36 48.3516 1738.76 50.215 Q1735.15 52.0784 1730.78 52.0784 Q1721.7 52.0784 1716.4 46.6097 Q1711.13 41.1005 1711.13 31.5808 Q1711.13 22.2638 1716.64 16.633 Q1722.15 11.0023 1731.3 11.0023 Q1741.79 11.0023 1747.3 19.0636 Q1752.85 27.0843 1752.85 42.3968 Q1752.85 56.6965 1746.05 65.2439 Q1739.28 73.7508 1727.82 73.7508 Q1724.74 73.7508 1721.58 73.1431 Q1718.42 72.5355 1715.02 71.3202 M1731.3 45.678 Q1736.81 45.678 1740.01 41.9107 Q1743.25 38.1433 1743.25 31.5808 Q1743.25 25.0589 1740.01 21.2916 Q1736.81 17.4837 1731.3 17.4837 Q1725.79 17.4837 1722.55 21.2916 Q1719.35 25.0589 1719.35 31.5808 Q1719.35 38.1433 1722.55 41.9107 Q1725.79 45.678 1731.3 45.678 Z" fill="#000000" fill-rule="nonzero" fill-opacity="1" /><path clip-path="url(#clip390)" d="M1767.64 12.096 L1799.76 12.096 L1799.76 18.9825 L1775.13 18.9825 L1775.13 33.8088 Q1776.92 33.2012 1778.7 32.9176 Q1780.48 32.5936 1782.26 32.5936 Q1792.39 32.5936 1798.3 38.1433 Q1804.22 43.6931 1804.22 53.1722 Q1804.22 62.9348 1798.14 68.3631 Q1792.07 73.7508 1781.01 73.7508 Q1777.2 73.7508 1773.23 73.1026 Q1769.3 72.4545 1765.09 71.1582 L1765.09 62.9348 Q1768.73 64.9198 1772.62 65.892 Q1776.51 66.8642 1780.85 66.8642 Q1787.85 66.8642 1791.94 63.1779 Q1796.04 59.4916 1796.04 53.1722 Q1796.04 46.8528 1791.94 43.1664 Q1787.85 39.4801 1780.85 39.4801 Q1777.56 39.4801 1774.28 40.2093 Q1771.04 40.9384 1767.64 42.4778 L1767.64 12.096 Z" fill="#000000" fill-rule="nonzero" fill-opacity="1" /><path clip-path="url(#clip390)" d="M1871.79 45.9616 Q1868.26 45.9616 1866.24 48.9592 Q1864.25 51.9569 1864.25 57.3041 Q1864.25 62.5703 1866.24 65.6084 Q1868.26 68.6061 1871.79 68.6061 Q1875.23 68.6061 1877.22 65.6084 Q1879.24 62.5703 1879.24 57.3041 Q1879.24 51.9974 1877.22 48.9997 Q1875.23 45.9616 1871.79 45.9616 M1871.79 40.8169 Q1878.19 40.8169 1881.96 45.2729 Q1885.72 49.7289 1885.72 57.3041 Q1885.72 64.8793 1881.92 69.3353 Q1878.15 73.7508 1871.79 73.7508 Q1865.31 73.7508 1861.54 69.3353 Q1857.77 64.8793 1857.77 57.3041 Q1857.77 49.6884 1861.54 45.2729 Q1865.35 40.8169 1871.79 40.8169 M1829.98 16.1469 Q1826.5 16.1469 1824.47 19.1851 Q1822.49 22.1828 1822.49 27.4489 Q1822.49 32.7961 1824.47 35.7938 Q1826.46 38.7915 1829.98 38.7915 Q1833.51 38.7915 1835.49 35.7938 Q1837.52 32.7961 1837.52 27.4489 Q1837.52 22.2233 1835.49 19.1851 Q1833.47 16.1469 1829.98 16.1469 M1866.56 11.0023 L1873.04 11.0023 L1835.21 73.7508 L1828.73 73.7508 L1866.56 11.0023 M1829.98 11.0023 Q1836.38 11.0023 1840.19 15.4583 Q1844 19.8737 1844 27.4489 Q1844 35.1051 1840.19 39.5206 Q1836.42 43.9361 1829.98 43.9361 Q1823.54 43.9361 1819.77 39.5206 Q1816.05 35.0646 1816.05 27.4489 Q1816.05 19.9142 1819.82 15.4583 Q1823.58 11.0023 1829.98 11.0023 Z" fill="#000000" fill-rule="nonzero" fill-opacity="1" /><path clip-path="url(#clip390)" d="M1970.1 16.7545 L1970.1 25.383 Q1965.97 21.5346 1961.27 19.6307 Q1956.61 17.7268 1951.35 17.7268 Q1940.98 17.7268 1935.47 24.0867 Q1929.96 30.4061 1929.96 42.3968 Q1929.96 54.3469 1935.47 60.7069 Q1940.98 67.0263 1951.35 67.0263 Q1956.61 67.0263 1961.27 65.1223 Q1965.97 63.2184 1970.1 59.3701 L1970.1 67.9175 Q1965.81 70.8341 1960.99 72.2924 Q1956.21 73.7508 1950.86 73.7508 Q1937.13 73.7508 1929.23 65.3654 Q1921.33 56.9395 1921.33 42.3968 Q1921.33 27.8135 1929.23 19.4281 Q1937.13 11.0023 1950.86 11.0023 Q1956.29 11.0023 1961.07 12.4606 Q1965.89 13.8784 1970.1 16.7545 Z" fill="#000000" fill-rule="nonzero" fill-opacity="1" /><path clip-path="url(#clip390)" d="M1982.74 12.096 L1990.93 12.096 L1990.93 72.576 L1982.74 72.576 L1982.74 12.096 Z" fill="#000000" fill-rule="nonzero" fill-opacity="1" /><path clip-path="url(#clip392)" d="M2235.42 624.118 L2235.42 1423.18 L2080.42 1423.18 L2080.42 624.118 L2235.42 624.118 L2235.42 624.118  Z" fill="#1f77b4" fill-rule="evenodd" fill-opacity="1"/>
<polyline clip-path="url(#clip392)" style="stroke:#000000; stroke-linecap:round; stroke-linejoin:round; stroke-width:4; stroke-opacity:1; fill:none" points="2235.42,624.118 2235.42,1423.18 2080.42,1423.18 2080.42,624.118 2235.42,624.118 "/>
<path clip-path="url(#clip392)" d="M2041.67 592.096 L2041.67 1423.18 L1886.68 1423.18 L1886.68 592.096 L2041.67 592.096 L2041.67 592.096  Z" fill="#1f77b4" fill-rule="evenodd" fill-opacity="1"/>
<polyline clip-path="url(#clip392)" style="stroke:#000000; stroke-linecap:round; stroke-linejoin:round; stroke-width:4; stroke-opacity:1; fill:none" points="2041.67,592.096 2041.67,1423.18 1886.68,1423.18 1886.68,592.096 2041.67,592.096 "/>
<path clip-path="url(#clip392)" d="M1847.93 517.61 L1847.93 1423.18 L1692.93 1423.18 L1692.93 517.61 L1847.93 517.61 L1847.93 517.61  Z" fill="#1f77b4" fill-rule="evenodd" fill-opacity="1"/>
<polyline clip-path="url(#clip392)" style="stroke:#000000; stroke-linecap:round; stroke-linejoin:round; stroke-width:4; stroke-opacity:1; fill:none" points="1847.93,517.61 1847.93,1423.18 1692.93,1423.18 1692.93,517.61 1847.93,517.61 "/>
<path clip-path="url(#clip392)" d="M1654.18 533.464 L1654.18 1423.18 L1499.19 1423.18 L1499.19 533.464 L1654.18 533.464 L1654.18 533.464  Z" fill="#1f77b4" fill-rule="evenodd" fill-opacity="1"/>
<polyline clip-path="url(#clip392)" style="stroke:#000000; stroke-linecap:round; stroke-linejoin:round; stroke-width:4; stroke-opacity:1; fill:none" points="1654.18,533.464 1654.18,1423.18 1499.19,1423.18 1499.19,533.464 1654.18,533.464 "/>
<path clip-path="url(#clip392)" d="M1460.44 484.52 L1460.44 1423.18 L1305.44 1423.18 L1305.44 484.52 L1460.44 484.52 L1460.44 484.52  Z" fill="#1f77b4" fill-rule="evenodd" fill-opacity="1"/>
<polyline clip-path="url(#clip392)" style="stroke:#000000; stroke-linecap:round; stroke-linejoin:round; stroke-width:4; stroke-opacity:1; fill:none" points="1460.44,484.52 1460.44,1423.18 1305.44,1423.18 1305.44,484.52 1460.44,484.52 "/>
<path clip-path="url(#clip392)" d="M1266.69 460.503 L1266.69 1423.18 L1111.7 1423.18 L1111.7 460.503 L1266.69 460.503 L1266.69 460.503  Z" fill="#1f77b4" fill-rule="evenodd" fill-opacity="1"/>
<polyline clip-path="url(#clip392)" style="stroke:#000000; stroke-linecap:round; stroke-linejoin:round; stroke-width:4; stroke-opacity:1; fill:none" points="1266.69,460.503 1266.69,1423.18 1111.7,1423.18 1111.7,460.503 1266.69,460.503 "/>
<path clip-path="url(#clip392)" d="M1072.95 413.102 L1072.95 1423.18 L917.953 1423.18 L917.953 413.102 L1072.95 413.102 L1072.95 413.102  Z" fill="#1f77b4" fill-rule="evenodd" fill-opacity="1"/>
<polyline clip-path="url(#clip392)" style="stroke:#000000; stroke-linecap:round; stroke-linejoin:round; stroke-width:4; stroke-opacity:1; fill:none" points="1072.95,413.102 1072.95,1423.18 917.953,1423.18 917.953,413.102 1072.95,413.102 "/>
<path clip-path="url(#clip392)" d="M879.204 377.482 L879.204 1423.18 L724.209 1423.18 L724.209 377.482 L879.204 377.482 L879.204 377.482  Z" fill="#1f77b4" fill-rule="evenodd" fill-opacity="1"/>
<polyline clip-path="url(#clip392)" style="stroke:#000000; stroke-linecap:round; stroke-linejoin:round; stroke-width:4; stroke-opacity:1; fill:none" points="879.204,377.482 879.204,1423.18 724.209,1423.18 724.209,377.482 879.204,377.482 "/>
<path clip-path="url(#clip392)" d="M685.46 320.053 L685.46 1423.18 L530.464 1423.18 L530.464 320.053 L685.46 320.053 L685.46 320.053  Z" fill="#1f77b4" fill-rule="evenodd" fill-opacity="1"/>
<polyline clip-path="url(#clip392)" style="stroke:#000000; stroke-linecap:round; stroke-linejoin:round; stroke-width:4; stroke-opacity:1; fill:none" points="685.46,320.053 685.46,1423.18 530.464,1423.18 530.464,320.053 685.46,320.053 "/>
<path clip-path="url(#clip392)" d="M491.715 185.362 L491.715 1423.18 L336.72 1423.18 L336.72 185.362 L491.715 185.362 L491.715 185.362  Z" fill="#1f77b4" fill-rule="evenodd" fill-opacity="1"/>
<polyline clip-path="url(#clip392)" style="stroke:#000000; stroke-linecap:round; stroke-linejoin:round; stroke-width:4; stroke-opacity:1; fill:none" points="491.715,185.362 491.715,1423.18 336.72,1423.18 336.72,185.362 491.715,185.362 "/>
<circle clip-path="url(#clip392)" style="fill:#1f77b4; stroke:none; fill-opacity:0" cx="2157.92" cy="624.118" r="2"/>
<circle clip-path="url(#clip392)" style="fill:#1f77b4; stroke:none; fill-opacity:0" cx="1964.17" cy="592.096" r="2"/>
<circle clip-path="url(#clip392)" style="fill:#1f77b4; stroke:none; fill-opacity:0" cx="1770.43" cy="517.61" r="2"/>
<circle clip-path="url(#clip392)" style="fill:#1f77b4; stroke:none; fill-opacity:0" cx="1576.68" cy="533.464" r="2"/>
<circle clip-path="url(#clip392)" style="fill:#1f77b4; stroke:none; fill-opacity:0" cx="1382.94" cy="484.52" r="2"/>
<circle clip-path="url(#clip392)" style="fill:#1f77b4; stroke:none; fill-opacity:0" cx="1189.2" cy="460.503" r="2"/>
<circle clip-path="url(#clip392)" style="fill:#1f77b4; stroke:none; fill-opacity:0" cx="995.451" cy="413.102" r="2"/>
<circle clip-path="url(#clip392)" style="fill:#1f77b4; stroke:none; fill-opacity:0" cx="801.707" cy="377.482" r="2"/>
<circle clip-path="url(#clip392)" style="fill:#1f77b4; stroke:none; fill-opacity:0" cx="607.962" cy="320.053" r="2"/>
<circle clip-path="url(#clip392)" style="fill:#1f77b4; stroke:none; fill-opacity:0" cx="414.217" cy="185.362" r="2"/>
<polyline clip-path="url(#clip392)" style="stroke:#000000; stroke-linecap:round; stroke-linejoin:round; stroke-width:4; stroke-opacity:1; fill:none" points="2157.92,718.053 2157.92,530.183 "/>
<polyline clip-path="url(#clip392)" style="stroke:#000000; stroke-linecap:round; stroke-linejoin:round; stroke-width:4; stroke-opacity:1; fill:none" points="1964.17,673.671 1964.17,510.521 "/>
<polyline clip-path="url(#clip392)" style="stroke:#000000; stroke-linecap:round; stroke-linejoin:round; stroke-width:4; stroke-opacity:1; fill:none" points="1770.43,601.19 1770.43,434.03 "/>
<polyline clip-path="url(#clip392)" style="stroke:#000000; stroke-linecap:round; stroke-linejoin:round; stroke-width:4; stroke-opacity:1; fill:none" points="1576.68,612.956 1576.68,453.972 "/>
<polyline clip-path="url(#clip392)" style="stroke:#000000; stroke-linecap:round; stroke-linejoin:round; stroke-width:4; stroke-opacity:1; fill:none" points="1382.94,561.534 1382.94,407.506 "/>
<polyline clip-path="url(#clip392)" style="stroke:#000000; stroke-linecap:round; stroke-linejoin:round; stroke-width:4; stroke-opacity:1; fill:none" points="1189.2,534.87 1189.2,386.136 "/>
<polyline clip-path="url(#clip392)" style="stroke:#000000; stroke-linecap:round; stroke-linejoin:round; stroke-width:4; stroke-opacity:1; fill:none" points="995.451,481.921 995.451,344.282 "/>
<polyline clip-path="url(#clip392)" style="stroke:#000000; stroke-linecap:round; stroke-linejoin:round; stroke-width:4; stroke-opacity:1; fill:none" points="801.707,441.842 801.707,313.123 "/>
<polyline clip-path="url(#clip392)" style="stroke:#000000; stroke-linecap:round; stroke-linejoin:round; stroke-width:4; stroke-opacity:1; fill:none" points="607.962,380.036 607.962,260.07 "/>
<polyline clip-path="url(#clip392)" style="stroke:#000000; stroke-linecap:round; stroke-linejoin:round; stroke-width:4; stroke-opacity:1; fill:none" points="414.217,247.253 414.217,123.472 "/>
<line clip-path="url(#clip392)" x1="2173.92" y1="718.053" x2="2141.92" y2="718.053" style="stroke:#000000; stroke-width:4; stroke-opacity:1"/>
<line clip-path="url(#clip392)" x1="2173.92" y1="530.183" x2="2141.92" y2="530.183" style="stroke:#000000; stroke-width:4; stroke-opacity:1"/>
<line clip-path="url(#clip392)" x1="1980.17" y1="673.671" x2="1948.17" y2="673.671" style="stroke:#000000; stroke-width:4; stroke-opacity:1"/>
<line clip-path="url(#clip392)" x1="1980.17" y1="510.521" x2="1948.17" y2="510.521" style="stroke:#000000; stroke-width:4; stroke-opacity:1"/>
<line clip-path="url(#clip392)" x1="1786.43" y1="601.19" x2="1754.43" y2="601.19" style="stroke:#000000; stroke-width:4; stroke-opacity:1"/>
<line clip-path="url(#clip392)" x1="1786.43" y1="434.03" x2="1754.43" y2="434.03" style="stroke:#000000; stroke-width:4; stroke-opacity:1"/>
<line clip-path="url(#clip392)" x1="1592.68" y1="612.956" x2="1560.68" y2="612.956" style="stroke:#000000; stroke-width:4; stroke-opacity:1"/>
<line clip-path="url(#clip392)" x1="1592.68" y1="453.972" x2="1560.68" y2="453.972" style="stroke:#000000; stroke-width:4; stroke-opacity:1"/>
<line clip-path="url(#clip392)" x1="1398.94" y1="561.534" x2="1366.94" y2="561.534" style="stroke:#000000; stroke-width:4; stroke-opacity:1"/>
<line clip-path="url(#clip392)" x1="1398.94" y1="407.506" x2="1366.94" y2="407.506" style="stroke:#000000; stroke-width:4; stroke-opacity:1"/>
<line clip-path="url(#clip392)" x1="1205.2" y1="534.87" x2="1173.2" y2="534.87" style="stroke:#000000; stroke-width:4; stroke-opacity:1"/>
<line clip-path="url(#clip392)" x1="1205.2" y1="386.136" x2="1173.2" y2="386.136" style="stroke:#000000; stroke-width:4; stroke-opacity:1"/>
<line clip-path="url(#clip392)" x1="1011.45" y1="481.921" x2="979.451" y2="481.921" style="stroke:#000000; stroke-width:4; stroke-opacity:1"/>
<line clip-path="url(#clip392)" x1="1011.45" y1="344.282" x2="979.451" y2="344.282" style="stroke:#000000; stroke-width:4; stroke-opacity:1"/>
<line clip-path="url(#clip392)" x1="817.707" y1="441.842" x2="785.707" y2="441.842" style="stroke:#000000; stroke-width:4; stroke-opacity:1"/>
<line clip-path="url(#clip392)" x1="817.707" y1="313.123" x2="785.707" y2="313.123" style="stroke:#000000; stroke-width:4; stroke-opacity:1"/>
<line clip-path="url(#clip392)" x1="623.962" y1="380.036" x2="591.962" y2="380.036" style="stroke:#000000; stroke-width:4; stroke-opacity:1"/>
<line clip-path="url(#clip392)" x1="623.962" y1="260.07" x2="591.962" y2="260.07" style="stroke:#000000; stroke-width:4; stroke-opacity:1"/>
<line clip-path="url(#clip392)" x1="430.217" y1="247.253" x2="398.217" y2="247.253" style="stroke:#000000; stroke-width:4; stroke-opacity:1"/>
<line clip-path="url(#clip392)" x1="430.217" y1="123.472" x2="398.217" y2="123.472" style="stroke:#000000; stroke-width:4; stroke-opacity:1"/>
</svg>
