<?xml version="1.0" encoding="UTF-8" standalone="no"?>
<svg
   width="600"
   height="400"
   viewBox="0 0 2400 1600"
   version="1.1"
   id="svg401"
   sodipodi:docname="ItalyPowerBarPlot.svg"
   inkscape:version="1.2.1 (9c6d41e, 2022-07-14)"
   inkscape:export-filename="ItalyPowerBarPlot.pdf"
   inkscape:export-xdpi="96"
   inkscape:export-ydpi="96"
   xmlns:inkscape="http://www.inkscape.org/namespaces/inkscape"
   xmlns:sodipodi="http://sodipodi.sourceforge.net/DTD/sodipodi-0.dtd"
   xmlns="http://www.w3.org/2000/svg"
   xmlns:svg="http://www.w3.org/2000/svg">
  <sodipodi:namedview
     id="namedview403"
     pagecolor="#ffffff"
     bordercolor="#000000"
     borderopacity="0.25"
     inkscape:showpageshadow="2"
     inkscape:pageopacity="0.0"
     inkscape:pagecheckerboard="0"
     inkscape:deskcolor="#d1d1d1"
     showgrid="false"
     inkscape:zoom="1.4265879"
     inkscape:cx="209.24052"
     inkscape:cy="218.35317"
     inkscape:window-width="1920"
     inkscape:window-height="1027"
     inkscape:window-x="0"
     inkscape:window-y="25"
     inkscape:window-maximized="1"
     inkscape:current-layer="svg401" />
  <defs
     id="defs135">
    <clipPath
       id="clip170">
      <rect
         x="0"
         y="0"
         width="2400"
         height="1600"
         id="rect132" />
    </clipPath>
    <clipPath
       id="clip820">
      <rect
         x="0"
         y="0"
         width="2400"
         height="1600"
         id="rect7638" />
    </clipPath>
    <clipPath
       id="clip822">
      <rect
         x="249"
         y="47"
         width="2104"
         height="1377"
         id="rect7652" />
    </clipPath>
    <clipPath
       id="clipPath14296">
      <rect
         x="249"
         y="47"
         width="2104"
         height="1377"
         id="rect14294" />
    </clipPath>
    <clipPath
       id="clipPath14300">
      <rect
         x="249"
         y="47"
         width="2104"
         height="1377"
         id="rect14298" />
    </clipPath>
    <clipPath
       id="clipPath14304">
      <rect
         x="249"
         y="47"
         width="2104"
         height="1377"
         id="rect14302" />
    </clipPath>
    <clipPath
       id="clipPath14308">
      <rect
         x="249"
         y="47"
         width="2104"
         height="1377"
         id="rect14306" />
    </clipPath>
    <clipPath
       id="clipPath14312">
      <rect
         x="249"
         y="47"
         width="2104"
         height="1377"
         id="rect14310" />
    </clipPath>
    <clipPath
       id="clipPath14316">
      <rect
         x="249"
         y="47"
         width="2104"
         height="1377"
         id="rect14314" />
    </clipPath>
    <clipPath
       id="clipPath14320">
      <rect
         x="249"
         y="47"
         width="2104"
         height="1377"
         id="rect14318" />
    </clipPath>
    <clipPath
       id="clipPath14324">
      <rect
         x="0"
         y="0"
         width="2400"
         height="1600"
         id="rect14322" />
    </clipPath>
    <clipPath
       id="clipPath14328">
      <rect
         x="0"
         y="0"
         width="2400"
         height="1600"
         id="rect14326" />
    </clipPath>
    <clipPath
       id="clipPath14332">
      <rect
         x="0"
         y="0"
         width="2400"
         height="1600"
         id="rect14330" />
    </clipPath>
    <clipPath
       id="clipPath14336">
      <rect
         x="0"
         y="0"
         width="2400"
         height="1600"
         id="rect14334" />
    </clipPath>
    <clipPath
       id="clipPath14340">
      <rect
         x="0"
         y="0"
         width="2400"
         height="1600"
         id="rect14338" />
    </clipPath>
    <clipPath
       id="clipPath14344">
      <rect
         x="0"
         y="0"
         width="2400"
         height="1600"
         id="rect14342" />
    </clipPath>
    <clipPath
       id="clipPath14348">
      <rect
         x="0"
         y="0"
         width="2400"
         height="1600"
         id="rect14346" />
    </clipPath>
    <clipPath
       id="clipPath14352">
      <rect
         x="0"
         y="0"
         width="2400"
         height="1600"
         id="rect14350" />
    </clipPath>
    <clipPath
       id="clipPath14356">
      <rect
         x="0"
         y="0"
         width="2400"
         height="1600"
         id="rect14354" />
    </clipPath>
    <clipPath
       id="clipPath14360">
      <rect
         x="0"
         y="0"
         width="2400"
         height="1600"
         id="rect14358" />
    </clipPath>
    <clipPath
       id="clipPath14364">
      <rect
         x="0"
         y="0"
         width="2400"
         height="1600"
         id="rect14362" />
    </clipPath>
    <clipPath
       id="clipPath14368">
      <rect
         x="0"
         y="0"
         width="2400"
         height="1600"
         id="rect14366" />
    </clipPath>
    <clipPath
       id="clipPath14372">
      <rect
         x="0"
         y="0"
         width="2400"
         height="1600"
         id="rect14370" />
    </clipPath>
    <clipPath
       id="clipPath14376">
      <rect
         x="0"
         y="0"
         width="2400"
         height="1600"
         id="rect14374" />
    </clipPath>
    <clipPath
       id="clipPath14380">
      <rect
         x="0"
         y="0"
         width="2400"
         height="1600"
         id="rect14378" />
    </clipPath>
    <clipPath
       id="clipPath14384">
      <rect
         x="0"
         y="0"
         width="2400"
         height="1600"
         id="rect14382" />
    </clipPath>
    <clipPath
       id="clipPath14388">
      <rect
         x="0"
         y="0"
         width="2400"
         height="1600"
         id="rect14386" />
    </clipPath>
    <clipPath
       id="clipPath14392">
      <rect
         x="0"
         y="0"
         width="2400"
         height="1600"
         id="rect14390" />
    </clipPath>
    <clipPath
       id="clipPath14396">
      <rect
         x="0"
         y="0"
         width="2400"
         height="1600"
         id="rect14394" />
    </clipPath>
    <clipPath
       id="clipPath14400">
      <rect
         x="0"
         y="0"
         width="2400"
         height="1600"
         id="rect14398" />
    </clipPath>
    <clipPath
       id="clipPath14404">
      <rect
         x="0"
         y="0"
         width="2400"
         height="1600"
         id="rect14402" />
    </clipPath>
    <clipPath
       id="clipPath14408">
      <rect
         x="0"
         y="0"
         width="2400"
         height="1600"
         id="rect14406" />
    </clipPath>
    <clipPath
       id="clipPath14412">
      <rect
         x="0"
         y="0"
         width="2400"
         height="1600"
         id="rect14410" />
    </clipPath>
    <clipPath
       id="clipPath14416">
      <rect
         x="0"
         y="0"
         width="2400"
         height="1600"
         id="rect14414" />
    </clipPath>
    <clipPath
       id="clipPath14420">
      <rect
         x="0"
         y="0"
         width="2400"
         height="1600"
         id="rect14418" />
    </clipPath>
    <clipPath
       id="clipPath14424">
      <rect
         x="0"
         y="0"
         width="2400"
         height="1600"
         id="rect14422" />
    </clipPath>
    <clipPath
       id="clipPath14428">
      <rect
         x="0"
         y="0"
         width="2400"
         height="1600"
         id="rect14426" />
    </clipPath>
    <clipPath
       id="clipPath14432">
      <rect
         x="0"
         y="0"
         width="2400"
         height="1600"
         id="rect14430" />
    </clipPath>
    <clipPath
       id="clipPath14436">
      <rect
         x="0"
         y="0"
         width="2400"
         height="1600"
         id="rect14434" />
    </clipPath>
    <clipPath
       id="clipPath14440">
      <rect
         x="0"
         y="0"
         width="2400"
         height="1600"
         id="rect14438" />
    </clipPath>
    <clipPath
       id="clipPath14444">
      <rect
         x="0"
         y="0"
         width="2400"
         height="1600"
         id="rect14442" />
    </clipPath>
    <clipPath
       id="clipPath14448">
      <rect
         x="0"
         y="0"
         width="2400"
         height="1600"
         id="rect14446" />
    </clipPath>
    <clipPath
       id="clipPath14452">
      <rect
         x="0"
         y="0"
         width="2400"
         height="1600"
         id="rect14450" />
    </clipPath>
    <clipPath
       id="clipPath14456">
      <rect
         x="0"
         y="0"
         width="2400"
         height="1600"
         id="rect14454" />
    </clipPath>
    <clipPath
       id="clipPath14460">
      <rect
         x="0"
         y="0"
         width="2400"
         height="1600"
         id="rect14458" />
    </clipPath>
    <clipPath
       id="clipPath14464">
      <rect
         x="0"
         y="0"
         width="2400"
         height="1600"
         id="rect14462" />
    </clipPath>
    <clipPath
       id="clipPath14468">
      <rect
         x="0"
         y="0"
         width="2400"
         height="1600"
         id="rect14466" />
    </clipPath>
    <clipPath
       id="clipPath14472">
      <rect
         x="0"
         y="0"
         width="2400"
         height="1600"
         id="rect14470" />
    </clipPath>
    <clipPath
       id="clipPath14476">
      <rect
         x="0"
         y="0"
         width="2400"
         height="1600"
         id="rect14474" />
    </clipPath>
    <clipPath
       id="clipPath14480">
      <rect
         x="0"
         y="0"
         width="2400"
         height="1600"
         id="rect14478" />
    </clipPath>
    <clipPath
       id="clipPath14484">
      <rect
         x="0"
         y="0"
         width="2400"
         height="1600"
         id="rect14482" />
    </clipPath>
    <clipPath
       id="clipPath14488">
      <rect
         x="0"
         y="0"
         width="2400"
         height="1600"
         id="rect14486" />
    </clipPath>
    <clipPath
       id="clipPath14492">
      <rect
         x="0"
         y="0"
         width="2400"
         height="1600"
         id="rect14490" />
    </clipPath>
    <clipPath
       id="clipPath14496">
      <rect
         x="0"
         y="0"
         width="2400"
         height="1600"
         id="rect14494" />
    </clipPath>
    <clipPath
       id="clipPath14500">
      <rect
         x="0"
         y="0"
         width="2400"
         height="1600"
         id="rect14498" />
    </clipPath>
    <clipPath
       id="clipPath14504">
      <rect
         x="0"
         y="0"
         width="2400"
         height="1600"
         id="rect14502" />
    </clipPath>
    <clipPath
       id="clipPath14508">
      <rect
         x="0"
         y="0"
         width="2400"
         height="1600"
         id="rect14506" />
    </clipPath>
    <clipPath
       id="clipPath14512">
      <rect
         x="0"
         y="0"
         width="2400"
         height="1600"
         id="rect14510" />
    </clipPath>
    <clipPath
       id="clipPath14516">
      <rect
         x="0"
         y="0"
         width="2400"
         height="1600"
         id="rect14514" />
    </clipPath>
    <clipPath
       id="clipPath14520">
      <rect
         x="0"
         y="0"
         width="2400"
         height="1600"
         id="rect14518" />
    </clipPath>
    <clipPath
       id="clipPath14524">
      <rect
         x="0"
         y="0"
         width="2400"
         height="1600"
         id="rect14522" />
    </clipPath>
    <clipPath
       id="clipPath14528">
      <rect
         x="0"
         y="0"
         width="2400"
         height="1600"
         id="rect14526" />
    </clipPath>
    <clipPath
       id="clipPath14532">
      <rect
         x="0"
         y="0"
         width="2400"
         height="1600"
         id="rect14530" />
    </clipPath>
    <clipPath
       id="clipPath14536">
      <rect
         x="0"
         y="0"
         width="2400"
         height="1600"
         id="rect14534" />
    </clipPath>
    <clipPath
       id="clipPath14540">
      <rect
         x="0"
         y="0"
         width="2400"
         height="1600"
         id="rect14538" />
    </clipPath>
    <clipPath
       id="clipPath14544">
      <rect
         x="249"
         y="47"
         width="2104"
         height="1377"
         id="rect14542" />
    </clipPath>
    <clipPath
       id="clipPath14548">
      <rect
         x="249"
         y="47"
         width="2104"
         height="1377"
         id="rect14546" />
    </clipPath>
    <clipPath
       id="clipPath14552">
      <rect
         x="249"
         y="47"
         width="2104"
         height="1377"
         id="rect14550" />
    </clipPath>
    <clipPath
       id="clipPath14556">
      <rect
         x="249"
         y="47"
         width="2104"
         height="1377"
         id="rect14554" />
    </clipPath>
    <clipPath
       id="clipPath14560">
      <rect
         x="249"
         y="47"
         width="2104"
         height="1377"
         id="rect14558" />
    </clipPath>
    <clipPath
       id="clipPath14564">
      <rect
         x="249"
         y="47"
         width="2104"
         height="1377"
         id="rect14562" />
    </clipPath>
    <clipPath
       id="clipPath14568">
      <rect
         x="249"
         y="47"
         width="2104"
         height="1377"
         id="rect14566" />
    </clipPath>
    <clipPath
       id="clipPath14572">
      <rect
         x="249"
         y="47"
         width="2104"
         height="1377"
         id="rect14570" />
    </clipPath>
    <clipPath
       id="clipPath14576">
      <rect
         x="249"
         y="47"
         width="2104"
         height="1377"
         id="rect14574" />
    </clipPath>
    <clipPath
       id="clipPath14580">
      <rect
         x="249"
         y="47"
         width="2104"
         height="1377"
         id="rect14578" />
    </clipPath>
    <clipPath
       id="clipPath14584">
      <rect
         x="249"
         y="47"
         width="2104"
         height="1377"
         id="rect14582" />
    </clipPath>
    <clipPath
       id="clipPath14588">
      <rect
         x="249"
         y="47"
         width="2104"
         height="1377"
         id="rect14586" />
    </clipPath>
    <clipPath
       id="clipPath14592">
      <rect
         x="249"
         y="47"
         width="2104"
         height="1377"
         id="rect14590" />
    </clipPath>
    <clipPath
       id="clipPath14596">
      <rect
         x="249"
         y="47"
         width="2104"
         height="1377"
         id="rect14594" />
    </clipPath>
    <clipPath
       id="clipPath14600">
      <rect
         x="249"
         y="47"
         width="2104"
         height="1377"
         id="rect14598" />
    </clipPath>
    <clipPath
       id="clipPath14604">
      <rect
         x="249"
         y="47"
         width="2104"
         height="1377"
         id="rect14602" />
    </clipPath>
    <clipPath
       id="clipPath14608">
      <rect
         x="249"
         y="47"
         width="2104"
         height="1377"
         id="rect14606" />
    </clipPath>
    <clipPath
       id="clipPath14612">
      <rect
         x="249"
         y="47"
         width="2104"
         height="1377"
         id="rect14610" />
    </clipPath>
    <clipPath
       id="clipPath14616">
      <rect
         x="249"
         y="47"
         width="2104"
         height="1377"
         id="rect14614" />
    </clipPath>
    <clipPath
       id="clipPath14620">
      <rect
         x="249"
         y="47"
         width="2104"
         height="1377"
         id="rect14618" />
    </clipPath>
    <clipPath
       id="clipPath14624">
      <rect
         x="249"
         y="47"
         width="2104"
         height="1377"
         id="rect14622" />
    </clipPath>
    <clipPath
       id="clipPath14628">
      <rect
         x="249"
         y="47"
         width="2104"
         height="1377"
         id="rect14626" />
    </clipPath>
    <clipPath
       id="clipPath14632">
      <rect
         x="249"
         y="47"
         width="2104"
         height="1377"
         id="rect14630" />
    </clipPath>
    <clipPath
       id="clipPath14636">
      <rect
         x="249"
         y="47"
         width="2104"
         height="1377"
         id="rect14634" />
    </clipPath>
    <rect
       x="128.6017"
       y="375.63559"
       width="33.474575"
       height="19.279661"
       id="rect8651" />
    <rect
       x="128.6017"
       y="375.63559"
       width="33.474575"
       height="19.279661"
       id="rect8651-7" />
    <rect
       x="128.6017"
       y="375.63559"
       width="124.25989"
       height="51.638786"
       id="rect8651-7-0" />
    <rect
       x="128.6017"
       y="375.63559"
       width="124.25989"
       height="51.638786"
       id="rect8651-7-0-5" />
    <clipPath
       id="clip820-3">
      <rect
         x="0"
         y="0"
         width="2400"
         height="1600"
         id="rect7638-8" />
    </clipPath>
    <clipPath
       id="clipPath1238">
      <rect
         x="0"
         y="0"
         width="2400"
         height="1600"
         id="rect1236" />
    </clipPath>
    <clipPath
       id="clipPath1242">
      <rect
         x="0"
         y="0"
         width="2400"
         height="1600"
         id="rect1240" />
    </clipPath>
    <clipPath
       id="clipPath1246">
      <rect
         x="0"
         y="0"
         width="2400"
         height="1600"
         id="rect1244" />
    </clipPath>
    <rect
       x="128.6017"
       y="375.63559"
       width="33.474575"
       height="19.279661"
       id="rect8651-0" />
    <rect
       x="128.6017"
       y="375.63559"
       width="33.474575"
       height="19.279661"
       id="rect8651-7-2" />
    <rect
       x="128.6017"
       y="375.63559"
       width="124.25989"
       height="51.638786"
       id="rect8651-7-0-4" />
    <rect
       x="128.6017"
       y="375.63559"
       width="124.25989"
       height="51.638786"
       id="rect8651-7-0-5-8" />
  </defs>
  <defs
     id="defs142">
    <clipPath
       id="clip171">
      <rect
         x="480"
         y="0"
         width="1681"
         height="1600"
         id="rect139" />
    </clipPath>
  </defs>
  <path
     clip-path="url(#clip170)"
     d="M249.542 1423.18 L2352.76 1423.18 L2352.76 123.472 L249.542 123.472  Z"
     fill="#ffffff"
     fill-rule="evenodd"
     fill-opacity="1"
     id="path144" />
  <defs
     id="defs149">
    <clipPath
       id="clip172">
      <rect
         x="249"
         y="123"
         width="2104"
         height="1301"
         id="rect146" />
    </clipPath>
  </defs>
  <polyline
     clip-path="url(#clip172)"
     style="stroke:#000000;stroke-linecap:round;stroke-linejoin:round;stroke-width:2;stroke-opacity:0.1;fill:none"
     points="562.26,1423.18 562.26,123.472 "
     id="polyline151" />
  <polyline
     clip-path="url(#clip172)"
     style="stroke:#000000; stroke-linecap:round; stroke-linejoin:round; stroke-width:2; stroke-opacity:0.1; fill:none"
     points="1054.85,1423.18 1054.85,123.472 "
     id="polyline153" />
  <polyline
     clip-path="url(#clip172)"
     style="stroke:#000000; stroke-linecap:round; stroke-linejoin:round; stroke-width:2; stroke-opacity:0.1; fill:none"
     points="1547.45,1423.18 1547.45,123.472 "
     id="polyline155" />
  <polyline
     clip-path="url(#clip172)"
     style="stroke:#000000; stroke-linecap:round; stroke-linejoin:round; stroke-width:2; stroke-opacity:0.1; fill:none"
     points="2040.04,1423.18 2040.04,123.472 "
     id="polyline157" />
  <polyline
     clip-path="url(#clip172)"
     style="stroke:#000000; stroke-linecap:round; stroke-linejoin:round; stroke-width:2; stroke-opacity:0.1; fill:none"
     points="249.542,1423.18 2352.76,1423.18 "
     id="polyline159" />
  <polyline
     clip-path="url(#clip172)"
     style="stroke:#000000; stroke-linecap:round; stroke-linejoin:round; stroke-width:2; stroke-opacity:0.1; fill:none"
     points="249.542,1062.15 2352.76,1062.15 "
     id="polyline161" />
  <polyline
     clip-path="url(#clip172)"
     style="stroke:#000000; stroke-linecap:round; stroke-linejoin:round; stroke-width:2; stroke-opacity:0.1; fill:none"
     points="249.542,701.12 2352.76,701.12 "
     id="polyline163" />
  <polyline
     clip-path="url(#clip172)"
     style="stroke:#000000; stroke-linecap:round; stroke-linejoin:round; stroke-width:2; stroke-opacity:0.1; fill:none"
     points="249.542,340.09 2352.76,340.09 "
     id="polyline165" />
  <polyline
     clip-path="url(#clip170)"
     style="stroke:#000000; stroke-linecap:round; stroke-linejoin:round; stroke-width:4; stroke-opacity:1; fill:none"
     points="249.542,1423.18 2352.76,1423.18 "
     id="polyline167" />
  <polyline
     clip-path="url(#clip170)"
     style="stroke:#000000; stroke-linecap:round; stroke-linejoin:round; stroke-width:4; stroke-opacity:1; fill:none"
     points="562.26,1423.18 562.26,1404.28 "
     id="polyline169" />
  <polyline
     clip-path="url(#clip170)"
     style="stroke:#000000; stroke-linecap:round; stroke-linejoin:round; stroke-width:4; stroke-opacity:1; fill:none"
     points="1054.85,1423.18 1054.85,1404.28 "
     id="polyline171" />
  <polyline
     clip-path="url(#clip170)"
     style="stroke:#000000; stroke-linecap:round; stroke-linejoin:round; stroke-width:4; stroke-opacity:1; fill:none"
     points="1547.45,1423.18 1547.45,1404.28 "
     id="polyline173" />
  <polyline
     clip-path="url(#clip170)"
     style="stroke:#000000; stroke-linecap:round; stroke-linejoin:round; stroke-width:4; stroke-opacity:1; fill:none"
     points="2040.04,1423.18 2040.04,1404.28 "
     id="polyline175" />
  <path
     clip-path="url(#clip170)"
     d="M1192.52 1524.18 L1192.52 1530.96 Q1189.27 1527.94 1185.58 1526.44 Q1181.92 1524.95 1177.78 1524.95 Q1169.63 1524.95 1165.3 1529.95 Q1160.98 1534.91 1160.98 1544.33 Q1160.98 1553.72 1165.3 1558.72 Q1169.63 1563.68 1177.78 1563.68 Q1181.92 1563.68 1185.58 1562.19 Q1189.27 1560.69 1192.52 1557.67 L1192.52 1564.38 Q1189.14 1566.68 1185.36 1567.82 Q1181.6 1568.97 1177.4 1568.97 Q1166.61 1568.97 1160.4 1562.38 Q1154.2 1555.76 1154.2 1544.33 Q1154.2 1532.87 1160.4 1526.28 Q1166.61 1519.66 1177.4 1519.66 Q1181.66 1519.66 1185.42 1520.81 Q1189.21 1521.92 1192.52 1524.18 Z"
     fill="#000000"
     fill-rule="nonzero"
     fill-opacity="1"
     id="path221" />
  <path
     clip-path="url(#clip170)"
     d="M1202.19 1518.52 L1208.05 1518.52 L1208.05 1568.04 L1202.19 1568.04 L1202.19 1518.52 Z"
     fill="#000000"
     fill-rule="nonzero"
     fill-opacity="1"
     id="path223" />
  <path
     clip-path="url(#clip170)"
     d="M1236.51 1550.12 Q1229.41 1550.12 1226.67 1551.75 Q1223.93 1553.37 1223.93 1557.29 Q1223.93 1560.4 1225.97 1562.25 Q1228.04 1564.07 1231.57 1564.07 Q1236.44 1564.07 1239.37 1560.63 Q1242.33 1557.16 1242.33 1551.43 L1242.33 1550.12 L1236.51 1550.12 M1248.19 1547.71 L1248.19 1568.04 L1242.33 1568.04 L1242.33 1562.63 Q1240.32 1565.88 1237.33 1567.44 Q1234.34 1568.97 1230.01 1568.97 Q1224.54 1568.97 1221.29 1565.91 Q1218.08 1562.82 1218.08 1557.67 Q1218.08 1551.65 1222.09 1548.6 Q1226.13 1545.54 1234.12 1545.54 L1242.33 1545.54 L1242.33 1544.97 Q1242.33 1540.93 1239.66 1538.73 Q1237.01 1536.5 1232.21 1536.5 Q1229.15 1536.5 1226.26 1537.23 Q1223.36 1537.97 1220.69 1539.43 L1220.69 1534.02 Q1223.9 1532.78 1226.92 1532.17 Q1229.95 1531.54 1232.81 1531.54 Q1240.55 1531.54 1244.37 1535.55 Q1248.19 1539.56 1248.19 1547.71 Z"
     fill="#000000"
     fill-rule="nonzero"
     fill-opacity="1"
     id="path225" />
  <path
     clip-path="url(#clip170)"
     d="M1282.97 1533.45 L1282.97 1538.98 Q1280.49 1537.71 1277.82 1537.07 Q1275.15 1536.44 1272.28 1536.44 Q1267.92 1536.44 1265.72 1537.77 Q1263.56 1539.11 1263.56 1541.79 Q1263.56 1543.82 1265.12 1545 Q1266.68 1546.15 1271.39 1547.2 L1273.39 1547.64 Q1279.63 1548.98 1282.24 1551.43 Q1284.88 1553.85 1284.88 1558.21 Q1284.88 1563.17 1280.94 1566.07 Q1277.02 1568.97 1270.15 1568.97 Q1267.28 1568.97 1264.16 1568.39 Q1261.08 1567.85 1257.64 1566.74 L1257.64 1560.69 Q1260.89 1562.38 1264.04 1563.24 Q1267.19 1564.07 1270.28 1564.07 Q1274.41 1564.07 1276.64 1562.66 Q1278.87 1561.23 1278.87 1558.65 Q1278.87 1556.27 1277.25 1554.99 Q1275.65 1553.72 1270.21 1552.54 L1268.17 1552.07 Q1262.73 1550.92 1260.31 1548.56 Q1257.89 1546.18 1257.89 1542.04 Q1257.89 1537.01 1261.46 1534.27 Q1265.02 1531.54 1271.58 1531.54 Q1274.83 1531.54 1277.69 1532.01 Q1280.56 1532.49 1282.97 1533.45 Z"
     fill="#000000"
     fill-rule="nonzero"
     fill-opacity="1"
     id="path227" />
  <path
     clip-path="url(#clip170)"
     d="M1316.94 1533.45 L1316.94 1538.98 Q1314.45 1537.71 1311.78 1537.07 Q1309.11 1536.44 1306.24 1536.44 Q1301.88 1536.44 1299.68 1537.77 Q1297.52 1539.11 1297.52 1541.79 Q1297.52 1543.82 1299.08 1545 Q1300.64 1546.15 1305.35 1547.2 L1307.36 1547.64 Q1313.59 1548.98 1316.2 1551.43 Q1318.85 1553.85 1318.85 1558.21 Q1318.85 1563.17 1314.9 1566.07 Q1310.98 1568.97 1304.11 1568.97 Q1301.24 1568.97 1298.13 1568.39 Q1295.04 1567.85 1291.6 1566.74 L1291.6 1560.69 Q1294.85 1562.38 1298 1563.24 Q1301.15 1564.07 1304.24 1564.07 Q1308.37 1564.07 1310.6 1562.66 Q1312.83 1561.23 1312.83 1558.65 Q1312.83 1556.27 1311.21 1554.99 Q1309.62 1553.72 1304.17 1552.54 L1302.14 1552.07 Q1296.69 1550.92 1294.27 1548.56 Q1291.86 1546.18 1291.86 1542.04 Q1291.86 1537.01 1295.42 1534.27 Q1298.98 1531.54 1305.54 1531.54 Q1308.79 1531.54 1311.65 1532.01 Q1314.52 1532.49 1316.94 1533.45 Z"
     fill="#000000"
     fill-rule="nonzero"
     fill-opacity="1"
     id="path229" />
  <path
     clip-path="url(#clip170)"
     d="M1328.17 1532.4 L1334.03 1532.4 L1334.03 1568.04 L1328.17 1568.04 L1328.17 1532.4 M1328.17 1518.52 L1334.03 1518.52 L1334.03 1525.93 L1328.17 1525.93 L1328.17 1518.52 Z"
     fill="#000000"
     fill-rule="nonzero"
     fill-opacity="1"
     id="path231" />
  <path
     clip-path="url(#clip170)"
     d="M1364.33 1518.52 L1364.33 1523.39 L1358.73 1523.39 Q1355.58 1523.39 1354.33 1524.66 Q1353.12 1525.93 1353.12 1529.24 L1353.12 1532.4 L1362.77 1532.4 L1362.77 1536.95 L1353.12 1536.95 L1353.12 1568.04 L1347.24 1568.04 L1347.24 1536.95 L1341.63 1536.95 L1341.63 1532.4 L1347.24 1532.4 L1347.24 1529.91 Q1347.24 1523.96 1350.01 1521.26 Q1352.77 1518.52 1358.79 1518.52 L1364.33 1518.52 Z"
     fill="#000000"
     fill-rule="nonzero"
     fill-opacity="1"
     id="path233" />
  <path
     clip-path="url(#clip170)"
     d="M1369.23 1532.4 L1375.09 1532.4 L1375.09 1568.04 L1369.23 1568.04 L1369.23 1532.4 M1369.23 1518.52 L1375.09 1518.52 L1375.09 1525.93 L1369.23 1525.93 L1369.23 1518.52 Z"
     fill="#000000"
     fill-rule="nonzero"
     fill-opacity="1"
     id="path235" />
  <path
     clip-path="url(#clip170)"
     d="M1417.83 1548.76 L1417.83 1551.62 L1390.91 1551.62 Q1391.29 1557.67 1394.53 1560.85 Q1397.81 1564 1403.64 1564 Q1407.01 1564 1410.16 1563.17 Q1413.34 1562.35 1416.46 1560.69 L1416.46 1566.23 Q1413.31 1567.57 1410 1568.27 Q1406.69 1568.97 1403.29 1568.97 Q1394.76 1568.97 1389.76 1564 Q1384.79 1559.04 1384.79 1550.57 Q1384.79 1541.82 1389.5 1536.69 Q1394.25 1531.54 1402.27 1531.54 Q1409.46 1531.54 1413.63 1536.18 Q1417.83 1540.8 1417.83 1548.76 M1411.98 1547.04 Q1411.91 1542.23 1409.27 1539.37 Q1406.66 1536.5 1402.33 1536.5 Q1397.43 1536.5 1394.47 1539.27 Q1391.54 1542.04 1391.1 1547.07 L1411.98 1547.04 Z"
     fill="#000000"
     fill-rule="nonzero"
     fill-opacity="1"
     id="path237" />
  <path
     clip-path="url(#clip170)"
     d="M1448.1 1537.87 Q1447.11 1537.3 1445.94 1537.04 Q1444.79 1536.76 1443.39 1536.76 Q1438.43 1536.76 1435.75 1540 Q1433.11 1543.22 1433.11 1549.27 L1433.11 1568.04 L1427.22 1568.04 L1427.22 1532.4 L1433.11 1532.4 L1433.11 1537.93 Q1434.96 1534.69 1437.92 1533.13 Q1440.88 1531.54 1445.11 1531.54 Q1445.71 1531.54 1446.45 1531.63 Q1447.18 1531.7 1448.07 1531.85 L1448.1 1537.87 Z"
     fill="#000000"
     fill-rule="nonzero"
     fill-opacity="1"
     id="path239" />
  <polyline
     clip-path="url(#clip170)"
     style="stroke:#000000; stroke-linecap:round; stroke-linejoin:round; stroke-width:4; stroke-opacity:1; fill:none"
     points="249.542,1423.18 249.542,123.472 "
     id="polyline241" />
  <polyline
     clip-path="url(#clip170)"
     style="stroke:#000000; stroke-linecap:round; stroke-linejoin:round; stroke-width:4; stroke-opacity:1; fill:none"
     points="249.542,1423.18 268.44,1423.18 "
     id="polyline243" />
  <polyline
     clip-path="url(#clip170)"
     style="stroke:#000000; stroke-linecap:round; stroke-linejoin:round; stroke-width:4; stroke-opacity:1; fill:none"
     points="249.542,1062.15 268.44,1062.15 "
     id="polyline245" />
  <polyline
     clip-path="url(#clip170)"
     style="stroke:#000000; stroke-linecap:round; stroke-linejoin:round; stroke-width:4; stroke-opacity:1; fill:none"
     points="249.542,701.12 268.44,701.12 "
     id="polyline247" />
  <polyline
     clip-path="url(#clip170)"
     style="stroke:#000000; stroke-linecap:round; stroke-linejoin:round; stroke-width:4; stroke-opacity:1; fill:none"
     points="249.542,340.09 268.44,340.09 "
     id="polyline249" />
  <path
     clip-path="url(#clip170)"
     d="M126.205 1408.98 Q122.593 1408.98 120.765 1412.54 Q118.959 1416.08 118.959 1423.21 Q118.959 1430.32 120.765 1433.89 Q122.593 1437.43 126.205 1437.43 Q129.839 1437.43 131.644 1433.89 Q133.473 1430.32 133.473 1423.21 Q133.473 1416.08 131.644 1412.54 Q129.839 1408.98 126.205 1408.98 M126.205 1405.27 Q132.015 1405.27 135.07 1409.88 Q138.149 1414.46 138.149 1423.21 Q138.149 1431.94 135.07 1436.55 Q132.015 1441.13 126.205 1441.13 Q120.394 1441.13 117.316 1436.55 Q114.26 1431.94 114.26 1423.21 Q114.26 1414.46 117.316 1409.88 Q120.394 1405.27 126.205 1405.27 Z"
     fill="#000000"
     fill-rule="nonzero"
     fill-opacity="1"
     id="path251" />
  <path
     clip-path="url(#clip170)"
     d="M146.366 1434.58 L151.251 1434.58 L151.251 1440.46 L146.366 1440.46 L146.366 1434.58 Z"
     fill="#000000"
     fill-rule="nonzero"
     fill-opacity="1"
     id="path253" />
  <path
     clip-path="url(#clip170)"
     d="M171.436 1424.05 Q168.102 1424.05 166.181 1425.83 Q164.283 1427.61 164.283 1430.74 Q164.283 1433.86 166.181 1435.65 Q168.102 1437.43 171.436 1437.43 Q174.769 1437.43 176.69 1435.65 Q178.612 1433.84 178.612 1430.74 Q178.612 1427.61 176.69 1425.83 Q174.792 1424.05 171.436 1424.05 M166.76 1422.06 Q163.751 1421.32 162.061 1419.26 Q160.394 1417.2 160.394 1414.23 Q160.394 1410.09 163.334 1407.68 Q166.297 1405.27 171.436 1405.27 Q176.598 1405.27 179.538 1407.68 Q182.477 1410.09 182.477 1414.23 Q182.477 1417.2 180.788 1419.26 Q179.121 1421.32 176.135 1422.06 Q179.514 1422.84 181.389 1425.14 Q183.288 1427.43 183.288 1430.74 Q183.288 1435.76 180.209 1438.45 Q177.153 1441.13 171.436 1441.13 Q165.718 1441.13 162.64 1438.45 Q159.584 1435.76 159.584 1430.74 Q159.584 1427.43 161.482 1425.14 Q163.38 1422.84 166.76 1422.06 M165.047 1414.67 Q165.047 1417.36 166.714 1418.86 Q168.403 1420.37 171.436 1420.37 Q174.445 1420.37 176.135 1418.86 Q177.848 1417.36 177.848 1414.67 Q177.848 1411.99 176.135 1410.48 Q174.445 1408.98 171.436 1408.98 Q168.403 1408.98 166.714 1410.48 Q165.047 1411.99 165.047 1414.67 Z"
     fill="#000000"
     fill-rule="nonzero"
     fill-opacity="1"
     id="path255" />
  <path
     clip-path="url(#clip170)"
     d="M201.598 1408.98 Q197.987 1408.98 196.158 1412.54 Q194.352 1416.08 194.352 1423.21 Q194.352 1430.32 196.158 1433.89 Q197.987 1437.43 201.598 1437.43 Q205.232 1437.43 207.037 1433.89 Q208.866 1430.32 208.866 1423.21 Q208.866 1416.08 207.037 1412.54 Q205.232 1408.98 201.598 1408.98 M201.598 1405.27 Q207.408 1405.27 210.463 1409.88 Q213.542 1414.46 213.542 1423.21 Q213.542 1431.94 210.463 1436.55 Q207.408 1441.13 201.598 1441.13 Q195.787 1441.13 192.709 1436.55 Q189.653 1431.94 189.653 1423.21 Q189.653 1414.46 192.709 1409.88 Q195.787 1405.27 201.598 1405.27 Z"
     fill="#000000"
     fill-rule="nonzero"
     fill-opacity="1"
     id="path257" />
  <path
     clip-path="url(#clip170)"
     d="M127.2 1047.95 Q123.589 1047.95 121.76 1051.51 Q119.955 1055.06 119.955 1062.18 Q119.955 1069.29 121.76 1072.86 Q123.589 1076.4 127.2 1076.4 Q130.834 1076.4 132.64 1072.86 Q134.468 1069.29 134.468 1062.18 Q134.468 1055.06 132.64 1051.51 Q130.834 1047.95 127.2 1047.95 M127.2 1044.24 Q133.01 1044.24 136.066 1048.85 Q139.144 1053.43 139.144 1062.18 Q139.144 1070.91 136.066 1075.52 Q133.01 1080.1 127.2 1080.1 Q121.39 1080.1 118.311 1075.52 Q115.256 1070.91 115.256 1062.18 Q115.256 1053.43 118.311 1048.85 Q121.39 1044.24 127.2 1044.24 Z"
     fill="#000000"
     fill-rule="nonzero"
     fill-opacity="1"
     id="path259" />
  <path
     clip-path="url(#clip170)"
     d="M147.362 1073.55 L152.246 1073.55 L152.246 1079.43 L147.362 1079.43 L147.362 1073.55 Z"
     fill="#000000"
     fill-rule="nonzero"
     fill-opacity="1"
     id="path261" />
  <path
     clip-path="url(#clip170)"
     d="M172.431 1063.02 Q169.098 1063.02 167.177 1064.8 Q165.278 1066.58 165.278 1069.71 Q165.278 1072.83 167.177 1074.62 Q169.098 1076.4 172.431 1076.4 Q175.764 1076.4 177.686 1074.62 Q179.607 1072.81 179.607 1069.71 Q179.607 1066.58 177.686 1064.8 Q175.788 1063.02 172.431 1063.02 M167.755 1061.03 Q164.746 1060.29 163.056 1058.23 Q161.39 1056.17 161.39 1053.2 Q161.39 1049.06 164.329 1046.65 Q167.292 1044.24 172.431 1044.24 Q177.593 1044.24 180.533 1046.65 Q183.473 1049.06 183.473 1053.2 Q183.473 1056.17 181.783 1058.23 Q180.116 1060.29 177.13 1061.03 Q180.51 1061.81 182.385 1064.11 Q184.283 1066.4 184.283 1069.71 Q184.283 1074.73 181.204 1077.42 Q178.149 1080.1 172.431 1080.1 Q166.714 1080.1 163.635 1077.42 Q160.579 1074.73 160.579 1069.71 Q160.579 1066.4 162.477 1064.11 Q164.376 1061.81 167.755 1061.03 M166.042 1053.64 Q166.042 1056.33 167.709 1057.83 Q169.399 1059.34 172.431 1059.34 Q175.44 1059.34 177.13 1057.83 Q178.843 1056.33 178.843 1053.64 Q178.843 1050.96 177.13 1049.45 Q175.44 1047.95 172.431 1047.95 Q169.399 1047.95 167.709 1049.45 Q166.042 1050.96 166.042 1053.64 Z"
     fill="#000000"
     fill-rule="nonzero"
     fill-opacity="1"
     id="path263" />
  <path
     clip-path="url(#clip170)"
     d="M192.639 1044.87 L210.996 1044.87 L210.996 1048.81 L196.922 1048.81 L196.922 1057.28 Q197.94 1056.93 198.959 1056.77 Q199.977 1056.58 200.996 1056.58 Q206.783 1056.58 210.162 1059.75 Q213.542 1062.93 213.542 1068.34 Q213.542 1073.92 210.07 1077.02 Q206.598 1080.1 200.278 1080.1 Q198.102 1080.1 195.834 1079.73 Q193.588 1079.36 191.181 1078.62 L191.181 1073.92 Q193.264 1075.05 195.487 1075.61 Q197.709 1076.17 200.186 1076.17 Q204.19 1076.17 206.528 1074.06 Q208.866 1071.95 208.866 1068.34 Q208.866 1064.73 206.528 1062.62 Q204.19 1060.52 200.186 1060.52 Q198.311 1060.52 196.436 1060.93 Q194.584 1061.35 192.639 1062.23 L192.639 1044.87 Z"
     fill="#000000"
     fill-rule="nonzero"
     fill-opacity="1"
     id="path265" />
  <path
     clip-path="url(#clip170)"
     d="M126.205 686.919 Q122.593 686.919 120.765 690.483 Q118.959 694.025 118.959 701.155 Q118.959 708.261 120.765 711.826 Q122.593 715.368 126.205 715.368 Q129.839 715.368 131.644 711.826 Q133.473 708.261 133.473 701.155 Q133.473 694.025 131.644 690.483 Q129.839 686.919 126.205 686.919 M126.205 683.215 Q132.015 683.215 135.07 687.821 Q138.149 692.405 138.149 701.155 Q138.149 709.882 135.07 714.488 Q132.015 719.071 126.205 719.071 Q120.394 719.071 117.316 714.488 Q114.26 709.882 114.26 701.155 Q114.26 692.405 117.316 687.821 Q120.394 683.215 126.205 683.215 Z"
     fill="#000000"
     fill-rule="nonzero"
     fill-opacity="1"
     id="path267" />
  <path
     clip-path="url(#clip170)"
     d="M146.366 712.52 L151.251 712.52 L151.251 718.4 L146.366 718.4 L146.366 712.52 Z"
     fill="#000000"
     fill-rule="nonzero"
     fill-opacity="1"
     id="path269" />
  <path
     clip-path="url(#clip170)"
     d="M161.575 717.682 L161.575 713.423 Q163.334 714.257 165.14 714.696 Q166.945 715.136 168.681 715.136 Q173.311 715.136 175.741 712.034 Q178.195 708.909 178.542 702.567 Q177.2 704.557 175.139 705.622 Q173.079 706.687 170.579 706.687 Q165.394 706.687 162.362 703.562 Q159.353 700.414 159.353 694.974 Q159.353 689.65 162.501 686.433 Q165.649 683.215 170.88 683.215 Q176.876 683.215 180.024 687.821 Q183.195 692.405 183.195 701.155 Q183.195 709.326 179.306 714.21 Q175.44 719.071 168.889 719.071 Q167.13 719.071 165.325 718.724 Q163.519 718.377 161.575 717.682 M170.88 703.03 Q174.028 703.03 175.857 700.877 Q177.709 698.724 177.709 694.974 Q177.709 691.247 175.857 689.095 Q174.028 686.919 170.88 686.919 Q167.732 686.919 165.88 689.095 Q164.052 691.247 164.052 694.974 Q164.052 698.724 165.88 700.877 Q167.732 703.03 170.88 703.03 Z"
     fill="#000000"
     fill-rule="nonzero"
     fill-opacity="1"
     id="path271" />
  <path
     clip-path="url(#clip170)"
     d="M201.598 686.919 Q197.987 686.919 196.158 690.483 Q194.352 694.025 194.352 701.155 Q194.352 708.261 196.158 711.826 Q197.987 715.368 201.598 715.368 Q205.232 715.368 207.037 711.826 Q208.866 708.261 208.866 701.155 Q208.866 694.025 207.037 690.483 Q205.232 686.919 201.598 686.919 M201.598 683.215 Q207.408 683.215 210.463 687.821 Q213.542 692.405 213.542 701.155 Q213.542 709.882 210.463 714.488 Q207.408 719.071 201.598 719.071 Q195.787 719.071 192.709 714.488 Q189.653 709.882 189.653 701.155 Q189.653 692.405 192.709 687.821 Q195.787 683.215 201.598 683.215 Z"
     fill="#000000"
     fill-rule="nonzero"
     fill-opacity="1"
     id="path273" />
  <path
     clip-path="url(#clip170)"
     d="M127.2 325.889 Q123.589 325.889 121.76 329.454 Q119.955 332.995 119.955 340.125 Q119.955 347.231 121.76 350.796 Q123.589 354.338 127.2 354.338 Q130.834 354.338 132.64 350.796 Q134.468 347.231 134.468 340.125 Q134.468 332.995 132.64 329.454 Q130.834 325.889 127.2 325.889 M127.2 322.185 Q133.01 322.185 136.066 326.792 Q139.144 331.375 139.144 340.125 Q139.144 348.852 136.066 353.458 Q133.01 358.041 127.2 358.041 Q121.39 358.041 118.311 353.458 Q115.256 348.852 115.256 340.125 Q115.256 331.375 118.311 326.792 Q121.39 322.185 127.2 322.185 Z"
     fill="#000000"
     fill-rule="nonzero"
     fill-opacity="1"
     id="path275" />
  <path
     clip-path="url(#clip170)"
     d="M147.362 351.49 L152.246 351.49 L152.246 357.37 L147.362 357.37 L147.362 351.49 Z"
     fill="#000000"
     fill-rule="nonzero"
     fill-opacity="1"
     id="path277" />
  <path
     clip-path="url(#clip170)"
     d="M162.57 356.652 L162.57 352.393 Q164.329 353.227 166.135 353.666 Q167.94 354.106 169.677 354.106 Q174.306 354.106 176.737 351.004 Q179.19 347.879 179.538 341.537 Q178.195 343.528 176.135 344.592 Q174.075 345.657 171.575 345.657 Q166.39 345.657 163.357 342.532 Q160.348 339.384 160.348 333.944 Q160.348 328.62 163.496 325.403 Q166.644 322.185 171.876 322.185 Q177.871 322.185 181.019 326.792 Q184.19 331.375 184.19 340.125 Q184.19 348.296 180.301 353.18 Q176.436 358.041 169.885 358.041 Q168.126 358.041 166.32 357.694 Q164.515 357.347 162.57 356.652 M171.876 342 Q175.024 342 176.852 339.847 Q178.704 337.694 178.704 333.944 Q178.704 330.217 176.852 328.065 Q175.024 325.889 171.876 325.889 Q168.727 325.889 166.876 328.065 Q165.047 330.217 165.047 333.944 Q165.047 337.694 166.876 339.847 Q168.727 342 171.876 342 Z"
     fill="#000000"
     fill-rule="nonzero"
     fill-opacity="1"
     id="path279" />
  <path
     clip-path="url(#clip170)"
     d="M192.639 322.81 L210.996 322.81 L210.996 326.745 L196.922 326.745 L196.922 335.217 Q197.94 334.87 198.959 334.708 Q199.977 334.523 200.996 334.523 Q206.783 334.523 210.162 337.694 Q213.542 340.866 213.542 346.282 Q213.542 351.861 210.07 354.963 Q206.598 358.041 200.278 358.041 Q198.102 358.041 195.834 357.671 Q193.588 357.301 191.181 356.56 L191.181 351.861 Q193.264 352.995 195.487 353.551 Q197.709 354.106 200.186 354.106 Q204.19 354.106 206.528 352 Q208.866 349.893 208.866 346.282 Q208.866 342.671 206.528 340.565 Q204.19 338.458 200.186 338.458 Q198.311 338.458 196.436 338.875 Q194.584 339.291 192.639 340.171 L192.639 322.81 Z"
     fill="#000000"
     fill-rule="nonzero"
     fill-opacity="1"
     id="path281" />
  <path
     clip-path="url(#clip170)"
     d="M38.3822 1127.21 Q39.3689 1122.6 42.4881 1120.02 Q45.6073 1117.41 50.1906 1117.41 Q57.2247 1117.41 61.0759 1122.25 Q64.9272 1127.08 64.9272 1136 Q64.9272 1138.99 64.3224 1142.17 Q63.7495 1145.32 62.5719 1148.7 L56.3653 1148.7 Q57.9249 1146.02 58.7206 1142.84 Q59.5163 1139.66 59.5163 1136.19 Q59.5163 1130.14 57.1292 1126.99 Q54.7421 1123.81 50.1906 1123.81 Q45.9892 1123.81 43.6339 1126.77 Q41.2468 1129.69 41.2468 1134.95 L41.2468 1140.48 L35.9632 1140.48 L35.9632 1134.69 Q35.9632 1129.95 34.0853 1127.43 Q32.1756 1124.92 28.6108 1124.92 Q24.9505 1124.92 23.009 1127.53 Q21.0356 1130.11 21.0356 1134.95 Q21.0356 1137.59 21.6086 1140.61 Q22.1815 1143.64 23.3909 1147.26 L17.6618 1147.26 Q16.6433 1143.6 16.134 1140.42 Q15.6248 1137.21 15.6248 1134.37 Q15.6248 1127.05 18.9668 1122.79 Q22.277 1118.52 27.9424 1118.52 Q31.8892 1118.52 34.6264 1120.78 Q37.3318 1123.04 38.3822 1127.21 Z"
     fill="#000000"
     fill-rule="nonzero"
     fill-opacity="1"
     id="path283" />
  <path
     clip-path="url(#clip170)"
     d="M20.7174 1091.47 Q20.7174 1096.43 25.6189 1098.95 Q30.4887 1101.43 40.2919 1101.43 Q50.0633 1101.43 54.9649 1098.95 Q59.8346 1096.43 59.8346 1091.47 Q59.8346 1086.47 54.9649 1083.99 Q50.0633 1081.47 40.2919 1081.47 Q30.4887 1081.47 25.6189 1083.99 Q20.7174 1086.47 20.7174 1091.47 M15.6248 1091.47 Q15.6248 1083.48 21.9587 1079.28 Q28.2607 1075.04 40.2919 1075.04 Q52.2913 1075.04 58.6251 1079.28 Q64.9272 1083.48 64.9272 1091.47 Q64.9272 1099.46 58.6251 1103.69 Q52.2913 1107.89 40.2919 1107.89 Q28.2607 1107.89 21.9587 1103.69 Q15.6248 1099.46 15.6248 1091.47 Z"
     fill="#000000"
     fill-rule="nonzero"
     fill-opacity="1"
     id="path285" />
  <path
     clip-path="url(#clip170)"
     d="M43.5384 1067.53 L43.5384 1050.38 L48.7583 1050.38 L48.7583 1067.53 L43.5384 1067.53 Z"
     fill="#000000"
     fill-rule="nonzero"
     fill-opacity="1"
     id="path287" />
  <path
     clip-path="url(#clip170)"
     d="M16.4842 1040.8 L16.4842 1013.49 L21.895 1013.49 L21.895 1034.37 L35.8996 1034.37 L35.8996 1015.53 L41.3104 1015.53 L41.3104 1034.37 L64.0042 1034.37 L64.0042 1040.8 L16.4842 1040.8 Z"
     fill="#000000"
     fill-rule="nonzero"
     fill-opacity="1"
     id="path289" />
  <path
     clip-path="url(#clip170)"
     d="M32.4621 992.068 Q32.4621 996.778 36.1542 999.515 Q39.8145 1002.25 46.212 1002.25 Q52.6095 1002.25 56.3017 999.547 Q59.9619 996.81 59.9619 992.068 Q59.9619 987.389 56.2698 984.652 Q52.5777 981.914 46.212 981.914 Q39.8781 981.914 36.186 984.652 Q32.4621 987.389 32.4621 992.068 M27.4968 992.068 Q27.4968 984.429 32.4621 980.068 Q37.4273 975.708 46.212 975.708 Q54.9649 975.708 59.9619 980.068 Q64.9272 984.429 64.9272 992.068 Q64.9272 999.738 59.9619 1004.1 Q54.9649 1008.43 46.212 1008.43 Q37.4273 1008.43 32.4621 1004.1 Q27.4968 999.738 27.4968 992.068 Z"
     fill="#000000"
     fill-rule="nonzero"
     fill-opacity="1"
     id="path291" />
  <path
     clip-path="url(#clip170)"
     d="M14.479 966 L14.479 960.144 L64.0042 960.144 L64.0042 966 L14.479 966 Z"
     fill="#000000"
     fill-rule="nonzero"
     fill-opacity="1"
     id="path293" />
  <path
     clip-path="url(#clip170)"
     d="M33.7671 924.432 L14.479 924.432 L14.479 918.575 L64.0042 918.575 L64.0042 924.432 L58.657 924.432 Q61.8398 926.278 63.3994 929.111 Q64.9272 931.912 64.9272 935.858 Q64.9272 942.32 59.771 946.394 Q54.6147 950.436 46.212 950.436 Q37.8093 950.436 32.6531 946.394 Q27.4968 942.32 27.4968 935.858 Q27.4968 931.912 29.0564 929.111 Q30.5842 926.278 33.7671 924.432 M46.212 944.388 Q52.6732 944.388 56.3653 941.747 Q60.0256 939.073 60.0256 934.426 Q60.0256 929.779 56.3653 927.106 Q52.6732 924.432 46.212 924.432 Q39.7508 924.432 36.0905 927.106 Q32.3984 929.779 32.3984 934.426 Q32.3984 939.073 36.0905 941.747 Q39.7508 944.388 46.212 944.388 Z"
     fill="#000000"
     fill-rule="nonzero"
     fill-opacity="1"
     id="path295" />
  <path
     clip-path="url(#clip170)"
     d="M16.4842 885.537 L16.4842 875.957 L48.8219 863.83 L16.4842 851.64 L16.4842 842.06 L64.0042 842.06 L64.0042 848.33 L22.277 848.33 L54.8694 860.584 L54.8694 867.045 L22.277 879.299 L64.0042 879.299 L64.0042 885.537 L16.4842 885.537 Z"
     fill="#000000"
     fill-rule="nonzero"
     fill-opacity="1"
     id="path297" />
  <path
     clip-path="url(#clip170)"
     d="M44.7161 799.059 L47.5806 799.059 L47.5806 825.986 Q53.6281 825.604 56.8109 822.358 Q59.9619 819.08 59.9619 813.255 Q59.9619 809.881 59.1344 806.73 Q58.3069 803.547 56.6518 800.428 L62.1899 800.428 Q63.5267 803.579 64.227 806.889 Q64.9272 810.199 64.9272 813.605 Q64.9272 822.135 59.9619 827.132 Q54.9967 832.097 46.5303 832.097 Q37.7774 832.097 32.6531 827.387 Q27.4968 822.644 27.4968 814.624 Q27.4968 807.43 32.1438 803.261 Q36.7589 799.059 44.7161 799.059 M42.9973 804.916 Q38.1912 804.979 35.3266 807.621 Q32.4621 810.231 32.4621 814.56 Q32.4621 819.461 35.2312 822.421 Q38.0002 825.35 43.0292 825.795 L42.9973 804.916 Z"
     fill="#000000"
     fill-rule="nonzero"
     fill-opacity="1"
     id="path299" />
  <path
     clip-path="url(#clip170)"
     d="M46.0847 773.246 Q46.0847 780.344 47.7079 783.081 Q49.3312 785.819 53.2461 785.819 Q56.3653 785.819 58.2114 783.782 Q60.0256 781.713 60.0256 778.18 Q60.0256 773.31 56.5881 770.382 Q53.1188 767.422 47.3897 767.422 L46.0847 767.422 L46.0847 773.246 M43.6657 761.565 L64.0042 761.565 L64.0042 767.422 L58.5933 767.422 Q61.8398 769.427 63.3994 772.419 Q64.9272 775.411 64.9272 779.739 Q64.9272 785.214 61.8716 788.46 Q58.7843 791.675 53.6281 791.675 Q47.6125 791.675 44.5569 787.665 Q41.5014 783.623 41.5014 775.634 L41.5014 767.422 L40.9285 767.422 Q36.8862 767.422 34.6901 770.095 Q32.4621 772.737 32.4621 777.543 Q32.4621 780.599 33.1941 783.495 Q33.9262 786.392 35.3903 789.065 L29.9795 789.065 Q28.7381 785.851 28.1334 782.827 Q27.4968 779.803 27.4968 776.939 Q27.4968 769.204 31.5072 765.385 Q35.5176 761.565 43.6657 761.565 Z"
     fill="#000000"
     fill-rule="nonzero"
     fill-opacity="1"
     id="path301" />
  <path
     clip-path="url(#clip170)"
     d="M42.4881 719.87 L64.0042 719.87 L64.0042 725.726 L42.679 725.726 Q37.6183 725.726 35.1038 727.7 Q32.5894 729.673 32.5894 733.62 Q32.5894 738.362 35.6131 741.1 Q38.6368 743.837 43.8567 743.837 L64.0042 743.837 L64.0042 749.725 L28.3562 749.725 L28.3562 743.837 L33.8944 743.837 Q30.6797 741.736 29.0883 738.903 Q27.4968 736.039 27.4968 732.315 Q27.4968 726.172 31.3163 723.021 Q35.1038 719.87 42.4881 719.87 Z"
     fill="#000000"
     fill-rule="nonzero"
     fill-opacity="1"
     id="path303" />
  <path
     clip-path="url(#clip170)"
     d="M22.818 671.331 L46.4666 680.052 L46.4666 662.579 L22.818 671.331 M16.4842 674.96 L16.4842 667.671 L64.0042 649.561 L64.0042 656.245 L51.8138 660.573 L51.8138 681.994 L64.0042 686.323 L64.0042 693.102 L16.4842 674.96 Z"
     fill="#000000"
     fill-rule="nonzero"
     fill-opacity="1"
     id="path305" />
  <path
     clip-path="url(#clip170)"
     d="M29.7248 618.369 L35.1993 618.369 Q33.8307 620.851 33.1623 623.366 Q32.4621 625.848 32.4621 628.395 Q32.4621 634.092 36.0905 637.243 Q39.6872 640.394 46.212 640.394 Q52.7369 640.394 56.3653 637.243 Q59.9619 634.092 59.9619 628.395 Q59.9619 625.848 59.2935 623.366 Q58.5933 620.851 57.2247 618.369 L62.6355 618.369 Q63.7814 620.82 64.3543 623.461 Q64.9272 626.071 64.9272 629.031 Q64.9272 637.084 59.8664 641.826 Q54.8057 646.569 46.212 646.569 Q37.491 646.569 32.4939 641.795 Q27.4968 636.988 27.4968 628.649 Q27.4968 625.944 28.0697 623.366 Q28.6108 620.788 29.7248 618.369 Z"
     fill="#000000"
     fill-rule="nonzero"
     fill-opacity="1"
     id="path307" />
  <path
     clip-path="url(#clip170)"
     d="M29.7248 582.53 L35.1993 582.53 Q33.8307 585.012 33.1623 587.527 Q32.4621 590.01 32.4621 592.556 Q32.4621 598.253 36.0905 601.404 Q39.6872 604.555 46.212 604.555 Q52.7369 604.555 56.3653 601.404 Q59.9619 598.253 59.9619 592.556 Q59.9619 590.01 59.2935 587.527 Q58.5933 585.012 57.2247 582.53 L62.6355 582.53 Q63.7814 584.981 64.3543 587.622 Q64.9272 590.232 64.9272 593.192 Q64.9272 601.245 59.8664 605.987 Q54.8057 610.73 46.212 610.73 Q37.491 610.73 32.4939 605.956 Q27.4968 601.15 27.4968 592.81 Q27.4968 590.105 28.0697 587.527 Q28.6108 584.949 29.7248 582.53 Z"
     fill="#000000"
     fill-rule="nonzero"
     fill-opacity="1"
     id="path309" />
  <path
     clip-path="url(#clip170)"
     d="M49.9359 572.949 L28.3562 572.949 L28.3562 567.093 L49.7131 567.093 Q54.7739 567.093 57.3202 565.12 Q59.8346 563.146 59.8346 559.2 Q59.8346 554.457 56.8109 551.72 Q53.7872 548.951 48.5673 548.951 L28.3562 548.951 L28.3562 543.094 L64.0042 543.094 L64.0042 548.951 L58.5296 548.951 Q61.7762 551.083 63.3676 553.916 Q64.9272 556.717 64.9272 560.441 Q64.9272 566.584 61.1078 569.767 Q57.2883 572.949 49.9359 572.949 M27.4968 558.213 L27.4968 558.213 Z"
     fill="#000000"
     fill-rule="nonzero"
     fill-opacity="1"
     id="path311" />
  <path
     clip-path="url(#clip170)"
     d="M33.8307 510.375 Q33.2578 511.361 33.0032 512.539 Q32.7167 513.685 32.7167 515.085 Q32.7167 520.05 35.9632 522.724 Q39.1779 525.366 45.2253 525.366 L64.0042 525.366 L64.0042 531.254 L28.3562 531.254 L28.3562 525.366 L33.8944 525.366 Q30.6479 523.52 29.0883 520.56 Q27.4968 517.6 27.4968 513.366 Q27.4968 512.762 27.5923 512.03 Q27.656 511.298 27.8151 510.406 L33.8307 510.375 Z"
     fill="#000000"
     fill-rule="nonzero"
     fill-opacity="1"
     id="path313" />
  <path
     clip-path="url(#clip170)"
     d="M46.0847 488.031 Q46.0847 495.129 47.7079 497.866 Q49.3312 500.603 53.2461 500.603 Q56.3653 500.603 58.2114 498.566 Q60.0256 496.497 60.0256 492.964 Q60.0256 488.095 56.5881 485.166 Q53.1188 482.206 47.3897 482.206 L46.0847 482.206 L46.0847 488.031 M43.6657 476.35 L64.0042 476.35 L64.0042 482.206 L58.5933 482.206 Q61.8398 484.212 63.3994 487.203 Q64.9272 490.195 64.9272 494.524 Q64.9272 499.998 61.8716 503.245 Q58.7843 506.46 53.6281 506.46 Q47.6125 506.46 44.5569 502.449 Q41.5014 498.407 41.5014 490.418 L41.5014 482.206 L40.9285 482.206 Q36.8862 482.206 34.6901 484.88 Q32.4621 487.522 32.4621 492.328 Q32.4621 495.383 33.1941 498.28 Q33.9262 501.176 35.3903 503.85 L29.9795 503.85 Q28.7381 500.635 28.1334 497.611 Q27.4968 494.588 27.4968 491.723 Q27.4968 483.989 31.5072 480.169 Q35.5176 476.35 43.6657 476.35 Z"
     fill="#000000"
     fill-rule="nonzero"
     fill-opacity="1"
     id="path315" />
  <path
     clip-path="url(#clip170)"
     d="M29.7248 438.633 L35.1993 438.633 Q33.8307 441.116 33.1623 443.63 Q32.4621 446.113 32.4621 448.659 Q32.4621 454.356 36.0905 457.507 Q39.6872 460.658 46.212 460.658 Q52.7369 460.658 56.3653 457.507 Q59.9619 454.356 59.9619 448.659 Q59.9619 446.113 59.2935 443.63 Q58.5933 441.116 57.2247 438.633 L62.6355 438.633 Q63.7814 441.084 64.3543 443.726 Q64.9272 446.336 64.9272 449.296 Q64.9272 457.348 59.8664 462.091 Q54.8057 466.833 46.212 466.833 Q37.491 466.833 32.4939 462.059 Q27.4968 457.253 27.4968 448.914 Q27.4968 446.208 28.0697 443.63 Q28.6108 441.052 29.7248 438.633 Z"
     fill="#000000"
     fill-rule="nonzero"
     fill-opacity="1"
     id="path317" />
  <path
     clip-path="url(#clip170)"
     d="M67.3143 413.616 Q73.68 416.098 75.6216 418.454 Q77.5631 420.809 77.5631 424.756 L77.5631 429.435 L72.6615 429.435 L72.6615 425.997 Q72.6615 423.578 71.5157 422.241 Q70.3699 420.905 66.1048 419.281 L63.4312 418.231 L28.3562 432.649 L28.3562 426.443 L56.238 415.303 L28.3562 404.163 L28.3562 397.956 L67.3143 413.616 Z"
     fill="#000000"
     fill-rule="nonzero"
     fill-opacity="1"
     id="path319" />
  <path
     clip-path="url(#clip170)"
     d="M917.67 12.096 L925.853 12.096 L925.853 72.576 L917.67 72.576 L917.67 12.096 Z"
     fill="#000000"
     fill-rule="nonzero"
     fill-opacity="1"
     id="path321" />
  <path
     clip-path="url(#clip170)"
     d="M949.186 14.324 L949.186 27.2059 L964.539 27.2059 L964.539 32.9987 L949.186 32.9987 L949.186 57.6282 Q949.186 63.1779 950.685 64.7578 Q952.224 66.3376 956.883 66.3376 L964.539 66.3376 L964.539 72.576 L956.883 72.576 Q948.254 72.576 944.973 69.3758 Q941.692 66.1351 941.692 57.6282 L941.692 32.9987 L936.223 32.9987 L936.223 27.2059 L941.692 27.2059 L941.692 14.324 L949.186 14.324 Z"
     fill="#000000"
     fill-rule="nonzero"
     fill-opacity="1"
     id="path323" />
  <path
     clip-path="url(#clip170)"
     d="M994.961 49.7694 Q985.928 49.7694 982.444 51.8354 Q978.96 53.9013 978.96 58.8839 Q978.96 62.8538 981.553 65.2034 Q984.186 67.5124 988.682 67.5124 Q994.88 67.5124 998.607 63.1374 Q1002.37 58.7219 1002.37 51.4303 L1002.37 49.7694 L994.961 49.7694 M1009.83 46.6907 L1009.83 72.576 L1002.37 72.576 L1002.37 65.6895 Q999.822 69.8214 996.015 71.8063 Q992.207 73.7508 986.698 73.7508 Q979.73 73.7508 975.598 69.8619 Q971.507 65.9325 971.507 59.3701 Q971.507 51.7138 976.611 47.825 Q981.755 43.9361 991.923 43.9361 L1002.37 43.9361 L1002.37 43.2069 Q1002.37 38.0623 998.972 35.2672 Q995.61 32.4315 989.493 32.4315 Q985.604 32.4315 981.917 33.3632 Q978.231 34.295 974.828 36.1584 L974.828 29.2718 Q978.92 27.692 982.768 26.9223 Q986.617 26.1121 990.262 26.1121 Q1000.11 26.1121 1004.97 31.2163 Q1009.83 36.3204 1009.83 46.6907 Z"
     fill="#000000"
     fill-rule="nonzero"
     fill-opacity="1"
     id="path325" />
  <path
     clip-path="url(#clip170)"
     d="M1025.18 9.54393 L1032.63 9.54393 L1032.63 72.576 L1025.18 72.576 L1025.18 9.54393 Z"
     fill="#000000"
     fill-rule="nonzero"
     fill-opacity="1"
     id="path327" />
  <path
     clip-path="url(#clip170)"
     d="M1067.11 76.7889 Q1063.95 84.8907 1060.95 87.3618 Q1057.95 89.8329 1052.93 89.8329 L1046.97 89.8329 L1046.97 83.5945 L1051.35 83.5945 Q1054.43 83.5945 1056.13 82.1361 Q1057.83 80.6778 1059.9 75.2496 L1061.23 71.8468 L1042.88 27.2059 L1050.78 27.2059 L1064.96 62.6918 L1079.14 27.2059 L1087.04 27.2059 L1067.11 76.7889 Z"
     fill="#000000"
     fill-rule="nonzero"
     fill-opacity="1"
     id="path329" />
  <path
     clip-path="url(#clip170)"
     d="M1105.83 18.8205 L1105.83 41.5461 L1116.12 41.5461 Q1121.84 41.5461 1124.95 38.5889 Q1128.07 35.6318 1128.07 30.163 Q1128.07 24.7348 1124.95 21.7777 Q1121.84 18.8205 1116.12 18.8205 L1105.83 18.8205 M1097.65 12.096 L1116.12 12.096 Q1126.29 12.096 1131.48 16.714 Q1136.7 21.2916 1136.7 30.163 Q1136.7 39.1155 1131.48 43.6931 Q1126.29 48.2706 1116.12 48.2706 L1105.83 48.2706 L1105.83 72.576 L1097.65 72.576 L1097.65 12.096 Z"
     fill="#000000"
     fill-rule="nonzero"
     fill-opacity="1"
     id="path331" />
  <path
     clip-path="url(#clip170)"
     d="M1161.98 32.4315 Q1155.98 32.4315 1152.5 37.1306 Q1149.02 41.7891 1149.02 49.9314 Q1149.02 58.0738 1152.46 62.7728 Q1155.94 67.4314 1161.98 67.4314 Q1167.93 67.4314 1171.42 62.7323 Q1174.9 58.0333 1174.9 49.9314 Q1174.9 41.8701 1171.42 37.1711 Q1167.93 32.4315 1161.98 32.4315 M1161.98 26.1121 Q1171.7 26.1121 1177.25 32.4315 Q1182.8 38.7509 1182.8 49.9314 Q1182.8 61.0714 1177.25 67.4314 Q1171.7 73.7508 1161.98 73.7508 Q1152.22 73.7508 1146.67 67.4314 Q1141.16 61.0714 1141.16 49.9314 Q1141.16 38.7509 1146.67 32.4315 Q1152.22 26.1121 1161.98 26.1121 Z"
     fill="#000000"
     fill-rule="nonzero"
     fill-opacity="1"
     id="path333" />
  <path
     clip-path="url(#clip170)"
     d="M1190.82 27.2059 L1198.28 27.2059 L1207.59 62.6108 L1216.87 27.2059 L1225.66 27.2059 L1234.98 62.6108 L1244.25 27.2059 L1251.71 27.2059 L1239.84 72.576 L1231.05 72.576 L1221.29 35.3887 L1211.48 72.576 L1202.69 72.576 L1190.82 27.2059 Z"
     fill="#000000"
     fill-rule="nonzero"
     fill-opacity="1"
     id="path335" />
  <path
     clip-path="url(#clip170)"
     d="M1301.82 48.0275 L1301.82 51.6733 L1267.55 51.6733 Q1268.03 59.3701 1272.16 63.421 Q1276.34 67.4314 1283.75 67.4314 Q1288.04 67.4314 1292.05 66.3781 Q1296.11 65.3249 1300.08 63.2184 L1300.08 70.267 Q1296.07 71.9684 1291.85 72.8596 Q1287.64 73.7508 1283.3 73.7508 Q1272.45 73.7508 1266.09 67.4314 Q1259.77 61.1119 1259.77 50.3365 Q1259.77 39.1965 1265.76 32.6746 Q1271.8 26.1121 1282.01 26.1121 Q1291.16 26.1121 1296.47 32.0264 Q1301.82 37.9003 1301.82 48.0275 M1294.36 45.84 Q1294.28 39.7232 1290.92 36.0774 Q1287.6 32.4315 1282.09 32.4315 Q1275.85 32.4315 1272.08 35.9558 Q1268.36 39.4801 1267.79 45.8805 L1294.36 45.84 Z"
     fill="#000000"
     fill-rule="nonzero"
     fill-opacity="1"
     id="path337" />
  <path
     clip-path="url(#clip170)"
     d="M1340.34 34.1734 Q1339.09 33.4443 1337.59 33.1202 Q1336.13 32.7556 1334.35 32.7556 Q1328.03 32.7556 1324.62 36.8875 Q1321.26 40.9789 1321.26 48.6757 L1321.26 72.576 L1313.77 72.576 L1313.77 27.2059 L1321.26 27.2059 L1321.26 34.2544 Q1323.61 30.1225 1327.38 28.1376 Q1331.15 26.1121 1336.53 26.1121 Q1337.3 26.1121 1338.23 26.2337 Q1339.17 26.3147 1340.3 26.5172 L1340.34 34.1734 Z"
     fill="#000000"
     fill-rule="nonzero"
     fill-opacity="1"
     id="path339" />
  <path
     clip-path="url(#clip170)"
     d="M1356.67 18.8205 L1356.67 65.8515 L1366.55 65.8515 Q1379.07 65.8515 1384.86 60.1802 Q1390.69 54.509 1390.69 42.2752 Q1390.69 30.1225 1384.86 24.4918 Q1379.07 18.8205 1366.55 18.8205 L1356.67 18.8205 M1348.48 12.096 L1365.3 12.096 Q1382.88 12.096 1391.1 19.4281 Q1399.32 26.7198 1399.32 42.2752 Q1399.32 57.9117 1391.06 65.2439 Q1382.79 72.576 1365.3 72.576 L1348.48 72.576 L1348.48 12.096 Z"
     fill="#000000"
     fill-rule="nonzero"
     fill-opacity="1"
     id="path341" />
  <path
     clip-path="url(#clip170)"
     d="M1450.85 48.0275 L1450.85 51.6733 L1416.58 51.6733 Q1417.07 59.3701 1421.2 63.421 Q1425.37 67.4314 1432.78 67.4314 Q1437.08 67.4314 1441.09 66.3781 Q1445.14 65.3249 1449.11 63.2184 L1449.11 70.267 Q1445.1 71.9684 1440.88 72.8596 Q1436.67 73.7508 1432.34 73.7508 Q1421.48 73.7508 1415.12 67.4314 Q1408.8 61.1119 1408.8 50.3365 Q1408.8 39.1965 1414.8 32.6746 Q1420.83 26.1121 1431.04 26.1121 Q1440.2 26.1121 1445.5 32.0264 Q1450.85 37.9003 1450.85 48.0275 M1443.4 45.84 Q1443.32 39.7232 1439.95 36.0774 Q1436.63 32.4315 1431.12 32.4315 Q1424.88 32.4315 1421.12 35.9558 Q1417.39 39.4801 1416.82 45.8805 L1443.4 45.84 Z"
     fill="#000000"
     fill-rule="nonzero"
     fill-opacity="1"
     id="path343" />
  <path
     clip-path="url(#clip170)"
     d="M1498.41 35.9153 Q1501.2 30.8922 1505.09 28.5022 Q1508.98 26.1121 1514.25 26.1121 Q1521.34 26.1121 1525.18 31.0947 Q1529.03 36.0368 1529.03 45.1919 L1529.03 72.576 L1521.54 72.576 L1521.54 45.4349 Q1521.54 38.913 1519.23 35.7533 Q1516.92 32.5936 1512.18 32.5936 Q1506.39 32.5936 1503.03 36.4419 Q1499.66 40.2903 1499.66 46.9338 L1499.66 72.576 L1492.17 72.576 L1492.17 45.4349 Q1492.17 38.8725 1489.86 35.7533 Q1487.55 32.5936 1482.73 32.5936 Q1477.02 32.5936 1473.66 36.4824 Q1470.29 40.3308 1470.29 46.9338 L1470.29 72.576 L1462.8 72.576 L1462.8 27.2059 L1470.29 27.2059 L1470.29 34.2544 Q1472.85 30.082 1476.41 28.0971 Q1479.98 26.1121 1484.88 26.1121 Q1489.82 26.1121 1493.26 28.6237 Q1496.75 31.1352 1498.41 35.9153 Z"
     fill="#000000"
     fill-rule="nonzero"
     fill-opacity="1"
     id="path345" />
  <path
     clip-path="url(#clip170)"
     d="M1564.52 49.7694 Q1555.48 49.7694 1552 51.8354 Q1548.52 53.9013 1548.52 58.8839 Q1548.52 62.8538 1551.11 65.2034 Q1553.74 67.5124 1558.24 67.5124 Q1564.44 67.5124 1568.16 63.1374 Q1571.93 58.7219 1571.93 51.4303 L1571.93 49.7694 L1564.52 49.7694 M1579.39 46.6907 L1579.39 72.576 L1571.93 72.576 L1571.93 65.6895 Q1569.38 69.8214 1565.57 71.8063 Q1561.76 73.7508 1556.25 73.7508 Q1549.29 73.7508 1545.16 69.8619 Q1541.06 65.9325 1541.06 59.3701 Q1541.06 51.7138 1546.17 47.825 Q1551.31 43.9361 1561.48 43.9361 L1571.93 43.9361 L1571.93 43.2069 Q1571.93 38.0623 1568.53 35.2672 Q1565.17 32.4315 1559.05 32.4315 Q1555.16 32.4315 1551.47 33.3632 Q1547.79 34.295 1544.39 36.1584 L1544.39 29.2718 Q1548.48 27.692 1552.33 26.9223 Q1556.17 26.1121 1559.82 26.1121 Q1569.66 26.1121 1574.52 31.2163 Q1579.39 36.3204 1579.39 46.6907 Z"
     fill="#000000"
     fill-rule="nonzero"
     fill-opacity="1"
     id="path347" />
  <path
     clip-path="url(#clip170)"
     d="M1632.45 45.1919 L1632.45 72.576 L1625 72.576 L1625 45.4349 Q1625 38.994 1622.49 35.7938 Q1619.98 32.5936 1614.95 32.5936 Q1608.92 32.5936 1605.43 36.4419 Q1601.95 40.2903 1601.95 46.9338 L1601.95 72.576 L1594.45 72.576 L1594.45 27.2059 L1601.95 27.2059 L1601.95 34.2544 Q1604.62 30.163 1608.23 28.1376 Q1611.87 26.1121 1616.61 26.1121 Q1624.43 26.1121 1628.44 30.9732 Q1632.45 35.7938 1632.45 45.1919 Z"
     fill="#000000"
     fill-rule="nonzero"
     fill-opacity="1"
     id="path349" />
  <path
     clip-path="url(#clip170)"
     d="M1677.17 34.0924 L1677.17 9.54393 L1684.63 9.54393 L1684.63 72.576 L1677.17 72.576 L1677.17 65.7705 Q1674.82 69.8214 1671.22 71.8063 Q1667.65 73.7508 1662.63 73.7508 Q1654.41 73.7508 1649.22 67.1883 Q1644.08 60.6258 1644.08 49.9314 Q1644.08 39.2371 1649.22 32.6746 Q1654.41 26.1121 1662.63 26.1121 Q1667.65 26.1121 1671.22 28.0971 Q1674.82 30.0415 1677.17 34.0924 M1651.77 49.9314 Q1651.77 58.1548 1655.14 62.8538 Q1658.54 67.5124 1664.45 67.5124 Q1670.37 67.5124 1673.77 62.8538 Q1677.17 58.1548 1677.17 49.9314 Q1677.17 41.7081 1673.77 37.0496 Q1670.37 32.3505 1664.45 32.3505 Q1658.54 32.3505 1655.14 37.0496 Q1651.77 41.7081 1651.77 49.9314 Z"
     fill="#000000"
     fill-rule="nonzero"
     fill-opacity="1"
     id="path351" />
  <path
     clip-path="url(#clip172)"
     d="M365.223 539.727 L365.223 7199.66 L759.297 7199.66 L759.297 539.727 L365.223 539.727 L365.223 539.727  Z"
     fill="#b0c4de"
     fill-rule="evenodd"
     fill-opacity="1"
     id="path353"
     style="fill:#c5e1ef;fill-opacity:1" />
  <polyline
     clip-path="url(#clip172)"
     style="stroke:#000000; stroke-linecap:round; stroke-linejoin:round; stroke-width:4; stroke-opacity:1; fill:none"
     points="365.223,539.727 365.223,7199.66 759.297,7199.66 759.297,539.727 365.223,539.727 "
     id="polyline355" />
  <path
     clip-path="url(#clip172)"
     d="M857.815 312.139 L857.815 7199.66 L1251.89 7199.66 L1251.89 312.139 L857.815 312.139 L857.815 312.139  Z"
     fill="#b0c4de"
     fill-rule="evenodd"
     fill-opacity="1"
     id="path357"
     style="fill:#6cb0d6;fill-opacity:1" />
  <polyline
     clip-path="url(#clip172)"
     style="stroke:#000000; stroke-linecap:round; stroke-linejoin:round; stroke-width:4; stroke-opacity:1; fill:none"
     points="857.815,312.139 857.815,7199.66 1251.89,7199.66 1251.89,312.139 857.815,312.139 "
     id="polyline359" />
  <path
     clip-path="url(#clip172)"
     d="M1350.41 265.358 L1350.41 7199.66 L1744.48 7199.66 L1744.48 265.358 L1350.41 265.358 L1350.41 265.358  Z"
     fill="#b0c4de"
     fill-rule="evenodd"
     fill-opacity="1"
     id="path361"
     style="fill:#3c93c2;fill-opacity:1" />
  <polyline
     clip-path="url(#clip172)"
     style="stroke:#000000; stroke-linecap:round; stroke-linejoin:round; stroke-width:4; stroke-opacity:1; fill:none"
     points="1350.41,265.358 1350.41,7199.66 1744.48,7199.66 1744.48,265.358 1350.41,265.358 "
     id="polyline363" />
  <path
     clip-path="url(#clip172)"
     d="M1843 245.944 L1843 7199.66 L2237.08 7199.66 L2237.08 245.944 L1843 245.944 L1843 245.944  Z"
     fill="#b0c4de"
     fill-rule="evenodd"
     fill-opacity="1"
     id="path365"
     style="fill:#0d4a70;fill-opacity:1" />
  <polyline
     clip-path="url(#clip172)"
     style="stroke:#000000; stroke-linecap:round; stroke-linejoin:round; stroke-width:4; stroke-opacity:1; fill:none"
     points="1843,245.944 1843,7199.66 2237.08,7199.66 2237.08,245.944 1843,245.944 "
     id="polyline367" />
  <circle
     clip-path="url(#clip172)"
     style="fill:#b0c4de; stroke:none; fill-opacity:0"
     cx="562.26"
     cy="539.727"
     r="2"
     id="circle369" />
  <circle
     clip-path="url(#clip172)"
     style="fill:#b0c4de; stroke:none; fill-opacity:0"
     cx="1054.85"
     cy="312.139"
     r="2"
     id="circle371" />
  <circle
     clip-path="url(#clip172)"
     style="fill:#b0c4de; stroke:none; fill-opacity:0"
     cx="1547.45"
     cy="265.358"
     r="2"
     id="circle373" />
  <circle
     clip-path="url(#clip172)"
     style="fill:#b0c4de; stroke:none; fill-opacity:0"
     cx="2040.04"
     cy="245.944"
     r="2"
     id="circle375" />
  <polyline
     clip-path="url(#clip172)"
     style="stroke:#000000; stroke-linecap:round; stroke-linejoin:round; stroke-width:4; stroke-opacity:1; fill:none"
     points="562.26,559.998 562.26,519.455 "
     id="polyline377" />
  <polyline
     clip-path="url(#clip172)"
     style="stroke:#000000; stroke-linecap:round; stroke-linejoin:round; stroke-width:4; stroke-opacity:1; fill:none"
     points="1054.85,327.709 1054.85,296.568 "
     id="polyline379" />
  <polyline
     clip-path="url(#clip172)"
     style="stroke:#000000; stroke-linecap:round; stroke-linejoin:round; stroke-width:4; stroke-opacity:1; fill:none"
     points="1547.45,283.203 1547.45,247.512 "
     id="polyline381" />
  <polyline
     clip-path="url(#clip172)"
     style="stroke:#000000; stroke-linecap:round; stroke-linejoin:round; stroke-width:4; stroke-opacity:1; fill:none"
     points="2040.04,254.61 2040.04,237.278 "
     id="polyline383" />
  <line
     clip-path="url(#clip172)"
     x1="578.26"
     y1="559.998"
     x2="546.26"
     y2="559.998"
     style="stroke:#000000; stroke-width:4; stroke-opacity:1"
     id="line385" />
  <line
     clip-path="url(#clip172)"
     x1="578.26"
     y1="519.455"
     x2="546.26"
     y2="519.455"
     style="stroke:#000000; stroke-width:4; stroke-opacity:1"
     id="line387" />
  <line
     clip-path="url(#clip172)"
     x1="1070.85"
     y1="327.709"
     x2="1038.85"
     y2="327.709"
     style="stroke:#000000; stroke-width:4; stroke-opacity:1"
     id="line389" />
  <line
     clip-path="url(#clip172)"
     x1="1070.85"
     y1="296.568"
     x2="1038.85"
     y2="296.568"
     style="stroke:#000000; stroke-width:4; stroke-opacity:1"
     id="line391" />
  <line
     clip-path="url(#clip172)"
     x1="1563.45"
     y1="283.203"
     x2="1531.45"
     y2="283.203"
     style="stroke:#000000; stroke-width:4; stroke-opacity:1"
     id="line393" />
  <line
     clip-path="url(#clip172)"
     x1="1563.45"
     y1="247.512"
     x2="1531.45"
     y2="247.512"
     style="stroke:#000000; stroke-width:4; stroke-opacity:1"
     id="line395" />
  <line
     clip-path="url(#clip172)"
     x1="2056.04"
     y1="254.61"
     x2="2024.04"
     y2="254.61"
     style="stroke:#000000; stroke-width:4; stroke-opacity:1"
     id="line397" />
  <line
     clip-path="url(#clip172)"
     x1="2056.04"
     y1="237.278"
     x2="2024.04"
     y2="237.278"
     style="stroke:#000000; stroke-width:4; stroke-opacity:1"
     id="line399" />
  <text
     xml:space="preserve"
     transform="matrix(4,0,0,4,-25.341392,-70.935168)"
     id="text8649-2"
     style="font-size:13.3333px;line-height:1.25;font-family:Rockwell;-inkscape-font-specification:Rockwell;white-space:pre;shape-inside:url(#rect8651-0);display:inline"><tspan
       x="128.60156"
       y="387.43161"
       id="tspan6128"><tspan
         style="font-family:helv;-inkscape-font-specification:helv"
         id="tspan6126">1NN</tspan></tspan></text>
  <text
     xml:space="preserve"
     transform="matrix(4,0,0,4,472.82832,-75.016068)"
     id="text8649-9-2"
     style="font-size:13.3333px;line-height:1.25;font-family:Rockwell;-inkscape-font-specification:Rockwell;white-space:pre;shape-inside:url(#rect8651-7-2);display:inline"><tspan
       x="128.60156"
       y="388.17189"
       id="tspan6132"><tspan
         style="font-weight:bold;font-family:Helvetica;-inkscape-font-specification:'Helvetica Bold'"
         id="tspan6130">MPS</tspan></tspan></text>
  <text
     xml:space="preserve"
     transform="matrix(4,0,0,4,855.6141,-75.428168)"
     id="text8649-9-3-7"
     style="font-size:13.3333px;line-height:1.25;font-family:Rockwell;-inkscape-font-specification:Rockwell;white-space:pre;shape-inside:url(#rect8651-7-0-4);display:inline"><tspan
       x="128.60156"
       y="388.17189"
       id="tspan6136"><tspan
         style="font-family:Helvetica;-inkscape-font-specification:Helvetica"
         id="tspan6134">InceptionTime</tspan></tspan></text>
  <text
     xml:space="preserve"
     transform="matrix(4,0,0,4,1482.6249,-74.065168)"
     id="text8649-9-3-4-3"
     style="font-size:13.3333px;line-height:1.25;font-family:Rockwell;-inkscape-font-specification:Rockwell;white-space:pre;shape-inside:url(#rect8651-7-0-5-8);display:inline"><tspan
       x="128.60156"
       y="388.17189"
       id="tspan6140"><tspan
         style="font-family:Helvetica;-inkscape-font-specification:Helvetica"
         id="tspan6138">HC2</tspan></tspan></text>
</svg>
