<?xml version="1.0" encoding="utf-8"?>
<svg xmlns="http://www.w3.org/2000/svg" xmlns:xlink="http://www.w3.org/1999/xlink" width="600" height="400" viewBox="0 0 2400 1600">
<defs>
  <clipPath id="clip820">
    <rect x="0" y="0" width="2400" height="1600"/>
  </clipPath>
</defs>
<path clip-path="url(#clip820)" d="M0 1600 L2400 1600 L2400 8.88178e-14 L0 8.88178e-14  Z" fill="#ffffff" fill-rule="evenodd" fill-opacity="1"/>
<defs>
  <clipPath id="clip821">
    <rect x="480" y="0" width="1681" height="1600"/>
  </clipPath>
</defs>
<path clip-path="url(#clip820)" d="M249.542 1423.18 L2352.76 1423.18 L2352.76 47.2441 L249.542 47.2441  Z" fill="#ffffff" fill-rule="evenodd" fill-opacity="1"/>
<defs>
  <clipPath id="clip822">
    <rect x="249" y="47" width="2104" height="1377"/>
  </clipPath>
</defs>
<polyline clip-path="url(#clip822)" style="stroke:#000000; stroke-linecap:round; stroke-linejoin:round; stroke-width:2; stroke-opacity:0.1; fill:none" points="562.26,1423.18 562.26,47.2441 "/>
<polyline clip-path="url(#clip822)" style="stroke:#000000; stroke-linecap:round; stroke-linejoin:round; stroke-width:2; stroke-opacity:0.1; fill:none" points="1054.85,1423.18 1054.85,47.2441 "/>
<polyline clip-path="url(#clip822)" style="stroke:#000000; stroke-linecap:round; stroke-linejoin:round; stroke-width:2; stroke-opacity:0.1; fill:none" points="1547.45,1423.18 1547.45,47.2441 "/>
<polyline clip-path="url(#clip822)" style="stroke:#000000; stroke-linecap:round; stroke-linejoin:round; stroke-width:2; stroke-opacity:0.1; fill:none" points="2040.04,1423.18 2040.04,47.2441 "/>
<polyline clip-path="url(#clip822)" style="stroke:#000000; stroke-linecap:round; stroke-linejoin:round; stroke-width:2; stroke-opacity:0.1; fill:none" points="249.542,1423.18 2352.76,1423.18 "/>
<polyline clip-path="url(#clip822)" style="stroke:#000000; stroke-linecap:round; stroke-linejoin:round; stroke-width:2; stroke-opacity:0.1; fill:none" points="249.542,1040.98 2352.76,1040.98 "/>
<polyline clip-path="url(#clip822)" style="stroke:#000000; stroke-linecap:round; stroke-linejoin:round; stroke-width:2; stroke-opacity:0.1; fill:none" points="249.542,658.771 2352.76,658.771 "/>
<polyline clip-path="url(#clip822)" style="stroke:#000000; stroke-linecap:round; stroke-linejoin:round; stroke-width:2; stroke-opacity:0.1; fill:none" points="249.542,276.567 2352.76,276.567 "/>
<polyline clip-path="url(#clip820)" style="stroke:#000000; stroke-linecap:round; stroke-linejoin:round; stroke-width:4; stroke-opacity:1; fill:none" points="249.542,1423.18 2352.76,1423.18 "/>
<polyline clip-path="url(#clip820)" style="stroke:#000000; stroke-linecap:round; stroke-linejoin:round; stroke-width:4; stroke-opacity:1; fill:none" points="562.26,1423.18 562.26,1404.28 "/>
<polyline clip-path="url(#clip820)" style="stroke:#000000; stroke-linecap:round; stroke-linejoin:round; stroke-width:4; stroke-opacity:1; fill:none" points="1054.85,1423.18 1054.85,1404.28 "/>
<polyline clip-path="url(#clip820)" style="stroke:#000000; stroke-linecap:round; stroke-linejoin:round; stroke-width:4; stroke-opacity:1; fill:none" points="1547.45,1423.18 1547.45,1404.28 "/>
<polyline clip-path="url(#clip820)" style="stroke:#000000; stroke-linecap:round; stroke-linejoin:round; stroke-width:4; stroke-opacity:1; fill:none" points="2040.04,1423.18 2040.04,1404.28 "/>
<path clip-path="url(#clip820)" d="M517.318 1481.64 L524.957 1481.64 L524.957 1455.28 L516.647 1456.95 L516.647 1452.69 L524.91 1451.02 L529.586 1451.02 L529.586 1481.64 L537.225 1481.64 L537.225 1485.58 L517.318 1485.58 L517.318 1481.64 Z" fill="#000000" fill-rule="nonzero" fill-opacity="1" /><path clip-path="url(#clip820)" d="M546.253 1451.02 L552.549 1451.02 L567.873 1479.93 L567.873 1451.02 L572.41 1451.02 L572.41 1485.58 L566.114 1485.58 L550.79 1456.67 L550.79 1485.58 L546.253 1485.58 L546.253 1451.02 Z" fill="#000000" fill-rule="nonzero" fill-opacity="1" /><path clip-path="url(#clip820)" d="M581.716 1451.02 L588.012 1451.02 L603.336 1479.93 L603.336 1451.02 L607.873 1451.02 L607.873 1485.58 L601.577 1485.58 L586.253 1456.67 L586.253 1485.58 L581.716 1485.58 L581.716 1451.02 Z" fill="#000000" fill-rule="nonzero" fill-opacity="1" /><path clip-path="url(#clip820)" d="M1008.71 1451.02 L1015.67 1451.02 L1024.49 1474.54 L1033.36 1451.02 L1040.33 1451.02 L1040.33 1485.58 L1035.77 1485.58 L1035.77 1455.23 L1026.86 1478.94 L1022.16 1478.94 L1013.24 1455.23 L1013.24 1485.58 L1008.71 1485.58 L1008.71 1451.02 Z" fill="#000000" fill-rule="nonzero" fill-opacity="1" /><path clip-path="url(#clip820)" d="M1054.29 1454.86 L1054.29 1467.85 L1060.17 1467.85 Q1063.43 1467.85 1065.21 1466.16 Q1066.99 1464.47 1066.99 1461.34 Q1066.99 1458.24 1065.21 1456.55 Q1063.43 1454.86 1060.17 1454.86 L1054.29 1454.86 M1049.61 1451.02 L1060.17 1451.02 Q1065.98 1451.02 1068.94 1453.66 Q1071.92 1456.27 1071.92 1461.34 Q1071.92 1466.46 1068.94 1469.08 Q1065.98 1471.69 1060.17 1471.69 L1054.29 1471.69 L1054.29 1485.58 L1049.61 1485.58 L1049.61 1451.02 Z" fill="#000000" fill-rule="nonzero" fill-opacity="1" /><path clip-path="url(#clip820)" d="M1098.91 1452.15 L1098.91 1456.71 Q1096.25 1455.44 1093.89 1454.82 Q1091.53 1454.19 1089.33 1454.19 Q1085.51 1454.19 1083.43 1455.67 Q1081.37 1457.15 1081.37 1459.89 Q1081.37 1462.18 1082.73 1463.36 Q1084.12 1464.52 1087.97 1465.23 L1090.79 1465.81 Q1096.02 1466.81 1098.5 1469.33 Q1101 1471.83 1101 1476.04 Q1101 1481.07 1097.62 1483.66 Q1094.26 1486.25 1087.76 1486.25 Q1085.3 1486.25 1082.53 1485.7 Q1079.77 1485.14 1076.81 1484.05 L1076.81 1479.24 Q1079.66 1480.83 1082.39 1481.64 Q1085.12 1482.45 1087.76 1482.45 Q1091.76 1482.45 1093.94 1480.88 Q1096.11 1479.31 1096.11 1476.39 Q1096.11 1473.84 1094.54 1472.41 Q1092.99 1470.97 1089.42 1470.26 L1086.58 1469.7 Q1081.35 1468.66 1079.01 1466.44 Q1076.67 1464.21 1076.67 1460.26 Q1076.67 1455.67 1079.89 1453.03 Q1083.13 1450.39 1088.8 1450.39 Q1091.23 1450.39 1093.75 1450.83 Q1096.28 1451.27 1098.91 1452.15 Z" fill="#000000" fill-rule="nonzero" fill-opacity="1" /><path clip-path="url(#clip820)" d="M1382.94 1451.02 L1387.62 1451.02 L1387.62 1485.58 L1382.94 1485.58 L1382.94 1451.02 Z" fill="#000000" fill-rule="nonzero" fill-opacity="1" /><path clip-path="url(#clip820)" d="M1418.29 1469.93 L1418.29 1485.58 L1414.03 1485.58 L1414.03 1470.07 Q1414.03 1466.39 1412.6 1464.56 Q1411.16 1462.73 1408.29 1462.73 Q1404.84 1462.73 1402.85 1464.93 Q1400.86 1467.13 1400.86 1470.93 L1400.86 1485.58 L1396.58 1485.58 L1396.58 1459.65 L1400.86 1459.65 L1400.86 1463.68 Q1402.39 1461.34 1404.45 1460.19 Q1406.53 1459.03 1409.24 1459.03 Q1413.71 1459.03 1416 1461.81 Q1418.29 1464.56 1418.29 1469.93 Z" fill="#000000" fill-rule="nonzero" fill-opacity="1" /><path clip-path="url(#clip820)" d="M1445.44 1460.65 L1445.44 1464.63 Q1443.64 1463.64 1441.81 1463.15 Q1440 1462.64 1438.15 1462.64 Q1434.01 1462.64 1431.72 1465.28 Q1429.43 1467.89 1429.43 1472.64 Q1429.43 1477.39 1431.72 1480.02 Q1434.01 1482.64 1438.15 1482.64 Q1440 1482.64 1441.81 1482.15 Q1443.64 1481.64 1445.44 1480.65 L1445.44 1484.58 Q1443.66 1485.42 1441.74 1485.83 Q1439.84 1486.25 1437.69 1486.25 Q1431.83 1486.25 1428.38 1482.57 Q1424.93 1478.89 1424.93 1472.64 Q1424.93 1466.3 1428.41 1462.66 Q1431.9 1459.03 1437.97 1459.03 Q1439.93 1459.03 1441.81 1459.45 Q1443.68 1459.84 1445.44 1460.65 Z" fill="#000000" fill-rule="nonzero" fill-opacity="1" /><path clip-path="url(#clip820)" d="M1475.03 1471.55 L1475.03 1473.64 L1455.44 1473.64 Q1455.72 1478.03 1458.08 1480.35 Q1460.47 1482.64 1464.7 1482.64 Q1467.16 1482.64 1469.45 1482.04 Q1471.76 1481.44 1474.03 1480.23 L1474.03 1484.26 Q1471.74 1485.23 1469.33 1485.74 Q1466.92 1486.25 1464.45 1486.25 Q1458.24 1486.25 1454.61 1482.64 Q1451 1479.03 1451 1472.87 Q1451 1466.51 1454.43 1462.78 Q1457.87 1459.03 1463.71 1459.03 Q1468.94 1459.03 1471.97 1462.41 Q1475.03 1465.77 1475.03 1471.55 M1470.77 1470.3 Q1470.72 1466.81 1468.8 1464.72 Q1466.9 1462.64 1463.75 1462.64 Q1460.19 1462.64 1458.04 1464.65 Q1455.91 1466.67 1455.58 1470.33 L1470.77 1470.3 Z" fill="#000000" fill-rule="nonzero" fill-opacity="1" /><path clip-path="url(#clip820)" d="M1486.14 1481.69 L1486.14 1495.44 L1481.86 1495.44 L1481.86 1459.65 L1486.14 1459.65 L1486.14 1463.59 Q1487.48 1461.27 1489.52 1460.16 Q1491.58 1459.03 1494.42 1459.03 Q1499.15 1459.03 1502.09 1462.78 Q1505.05 1466.53 1505.05 1472.64 Q1505.05 1478.75 1502.09 1482.5 Q1499.15 1486.25 1494.42 1486.25 Q1491.58 1486.25 1489.52 1485.14 Q1487.48 1484.01 1486.14 1481.69 M1500.63 1472.64 Q1500.63 1467.94 1498.68 1465.28 Q1496.76 1462.59 1493.38 1462.59 Q1490 1462.59 1488.06 1465.28 Q1486.14 1467.94 1486.14 1472.64 Q1486.14 1477.34 1488.06 1480.02 Q1490 1482.69 1493.38 1482.69 Q1496.76 1482.69 1498.68 1480.02 Q1500.63 1477.34 1500.63 1472.64 Z" fill="#000000" fill-rule="nonzero" fill-opacity="1" /><path clip-path="url(#clip820)" d="M1516.32 1452.29 L1516.32 1459.65 L1525.1 1459.65 L1525.1 1462.96 L1516.32 1462.96 L1516.32 1477.04 Q1516.32 1480.21 1517.18 1481.11 Q1518.06 1482.02 1520.72 1482.02 L1525.1 1482.02 L1525.1 1485.58 L1520.72 1485.58 Q1515.79 1485.58 1513.92 1483.75 Q1512.04 1481.9 1512.04 1477.04 L1512.04 1462.96 L1508.92 1462.96 L1508.92 1459.65 L1512.04 1459.65 L1512.04 1452.29 L1516.32 1452.29 Z" fill="#000000" fill-rule="nonzero" fill-opacity="1" /><path clip-path="url(#clip820)" d="M1530.7 1459.65 L1534.96 1459.65 L1534.96 1485.58 L1530.7 1485.58 L1530.7 1459.65 M1530.7 1449.56 L1534.96 1449.56 L1534.96 1454.96 L1530.7 1454.96 L1530.7 1449.56 Z" fill="#000000" fill-rule="nonzero" fill-opacity="1" /><path clip-path="url(#clip820)" d="M1553.92 1462.64 Q1550.49 1462.64 1548.5 1465.33 Q1546.51 1467.99 1546.51 1472.64 Q1546.51 1477.29 1548.48 1479.98 Q1550.47 1482.64 1553.92 1482.64 Q1557.32 1482.64 1559.31 1479.95 Q1561.3 1477.27 1561.3 1472.64 Q1561.3 1468.03 1559.31 1465.35 Q1557.32 1462.64 1553.92 1462.64 M1553.92 1459.03 Q1559.47 1459.03 1562.64 1462.64 Q1565.81 1466.25 1565.81 1472.64 Q1565.81 1479.01 1562.64 1482.64 Q1559.47 1486.25 1553.92 1486.25 Q1548.34 1486.25 1545.17 1482.64 Q1542.02 1479.01 1542.02 1472.64 Q1542.02 1466.25 1545.17 1462.64 Q1548.34 1459.03 1553.92 1459.03 Z" fill="#000000" fill-rule="nonzero" fill-opacity="1" /><path clip-path="url(#clip820)" d="M1594.42 1469.93 L1594.42 1485.58 L1590.17 1485.58 L1590.17 1470.07 Q1590.17 1466.39 1588.73 1464.56 Q1587.29 1462.73 1584.42 1462.73 Q1580.98 1462.73 1578.98 1464.93 Q1576.99 1467.13 1576.99 1470.93 L1576.99 1485.58 L1572.71 1485.58 L1572.71 1459.65 L1576.99 1459.65 L1576.99 1463.68 Q1578.52 1461.34 1580.58 1460.19 Q1582.67 1459.03 1585.37 1459.03 Q1589.84 1459.03 1592.13 1461.81 Q1594.42 1464.56 1594.42 1469.93 Z" fill="#000000" fill-rule="nonzero" fill-opacity="1" /><path clip-path="url(#clip820)" d="M1598.31 1451.02 L1627.55 1451.02 L1627.55 1454.96 L1615.28 1454.96 L1615.28 1485.58 L1610.58 1485.58 L1610.58 1454.96 L1598.31 1454.96 L1598.31 1451.02 Z" fill="#000000" fill-rule="nonzero" fill-opacity="1" /><path clip-path="url(#clip820)" d="M1630.42 1459.65 L1634.68 1459.65 L1634.68 1485.58 L1630.42 1485.58 L1630.42 1459.65 M1630.42 1449.56 L1634.68 1449.56 L1634.68 1454.96 L1630.42 1454.96 L1630.42 1449.56 Z" fill="#000000" fill-rule="nonzero" fill-opacity="1" /><path clip-path="url(#clip820)" d="M1663.78 1464.63 Q1665.37 1461.76 1667.6 1460.39 Q1669.82 1459.03 1672.83 1459.03 Q1676.88 1459.03 1679.08 1461.88 Q1681.28 1464.7 1681.28 1469.93 L1681.28 1485.58 L1676.99 1485.58 L1676.99 1470.07 Q1676.99 1466.34 1675.67 1464.54 Q1674.35 1462.73 1671.65 1462.73 Q1668.34 1462.73 1666.41 1464.93 Q1664.49 1467.13 1664.49 1470.93 L1664.49 1485.58 L1660.21 1485.58 L1660.21 1470.07 Q1660.21 1466.32 1658.89 1464.54 Q1657.57 1462.73 1654.82 1462.73 Q1651.55 1462.73 1649.63 1464.95 Q1647.71 1467.15 1647.71 1470.93 L1647.71 1485.58 L1643.43 1485.58 L1643.43 1459.65 L1647.71 1459.65 L1647.71 1463.68 Q1649.17 1461.3 1651.21 1460.16 Q1653.24 1459.03 1656.04 1459.03 Q1658.87 1459.03 1660.84 1460.46 Q1662.83 1461.9 1663.78 1464.63 Z" fill="#000000" fill-rule="nonzero" fill-opacity="1" /><path clip-path="url(#clip820)" d="M1711.95 1471.55 L1711.95 1473.64 L1692.36 1473.64 Q1692.64 1478.03 1695 1480.35 Q1697.39 1482.64 1701.62 1482.64 Q1704.08 1482.64 1706.37 1482.04 Q1708.68 1481.44 1710.95 1480.23 L1710.95 1484.26 Q1708.66 1485.23 1706.25 1485.74 Q1703.85 1486.25 1701.37 1486.25 Q1695.16 1486.25 1691.53 1482.64 Q1687.92 1479.03 1687.92 1472.87 Q1687.92 1466.51 1691.35 1462.78 Q1694.79 1459.03 1700.63 1459.03 Q1705.86 1459.03 1708.89 1462.41 Q1711.95 1465.77 1711.95 1471.55 M1707.69 1470.3 Q1707.64 1466.81 1705.72 1464.72 Q1703.82 1462.64 1700.67 1462.64 Q1697.11 1462.64 1694.96 1464.65 Q1692.83 1466.67 1692.5 1470.33 L1707.69 1470.3 Z" fill="#000000" fill-rule="nonzero" fill-opacity="1" /><path clip-path="url(#clip820)" d="M1995.28 1451.02 L1999.96 1451.02 L1999.96 1465.19 L2016.95 1465.19 L2016.95 1451.02 L2021.62 1451.02 L2021.62 1485.58 L2016.95 1485.58 L2016.95 1469.12 L1999.96 1469.12 L1999.96 1485.58 L1995.28 1485.58 L1995.28 1451.02 Z" fill="#000000" fill-rule="nonzero" fill-opacity="1" /><path clip-path="url(#clip820)" d="M2056.81 1453.68 L2056.81 1458.61 Q2054.45 1456.41 2051.76 1455.33 Q2049.1 1454.24 2046.09 1454.24 Q2040.17 1454.24 2037.02 1457.87 Q2033.87 1461.48 2033.87 1468.33 Q2033.87 1475.16 2037.02 1478.8 Q2040.17 1482.41 2046.09 1482.41 Q2049.1 1482.41 2051.76 1481.32 Q2054.45 1480.23 2056.81 1478.03 L2056.81 1482.92 Q2054.36 1484.58 2051.6 1485.42 Q2048.87 1486.25 2045.81 1486.25 Q2037.97 1486.25 2033.45 1481.46 Q2028.94 1476.64 2028.94 1468.33 Q2028.94 1460 2033.45 1455.21 Q2037.97 1450.39 2045.81 1450.39 Q2048.92 1450.39 2051.65 1451.23 Q2054.4 1452.04 2056.81 1453.68 Z" fill="#000000" fill-rule="nonzero" fill-opacity="1" /><path clip-path="url(#clip820)" d="M2068.48 1481.64 L2084.79 1481.64 L2084.79 1485.58 L2062.85 1485.58 L2062.85 1481.64 Q2065.51 1478.89 2070.1 1474.26 Q2074.7 1469.61 2075.88 1468.27 Q2078.13 1465.74 2079.01 1464.01 Q2079.91 1462.25 2079.91 1460.56 Q2079.91 1457.8 2077.97 1456.07 Q2076.05 1454.33 2072.94 1454.33 Q2070.74 1454.33 2068.29 1455.09 Q2065.86 1455.86 2063.08 1457.41 L2063.08 1452.69 Q2065.91 1451.55 2068.36 1450.97 Q2070.81 1450.39 2072.85 1450.39 Q2078.22 1450.39 2081.42 1453.08 Q2084.61 1455.77 2084.61 1460.26 Q2084.61 1462.39 2083.8 1464.31 Q2083.01 1466.2 2080.91 1468.8 Q2080.33 1469.47 2077.23 1472.69 Q2074.12 1475.88 2068.48 1481.64 Z" fill="#000000" fill-rule="nonzero" fill-opacity="1" /><path clip-path="url(#clip820)" d="M1192.52 1524.18 L1192.52 1530.96 Q1189.27 1527.94 1185.58 1526.44 Q1181.92 1524.95 1177.78 1524.95 Q1169.63 1524.95 1165.3 1529.95 Q1160.98 1534.91 1160.98 1544.33 Q1160.98 1553.72 1165.3 1558.72 Q1169.63 1563.68 1177.78 1563.68 Q1181.92 1563.68 1185.58 1562.19 Q1189.27 1560.69 1192.52 1557.67 L1192.52 1564.38 Q1189.14 1566.68 1185.36 1567.82 Q1181.6 1568.97 1177.4 1568.97 Q1166.61 1568.97 1160.4 1562.38 Q1154.2 1555.76 1154.2 1544.33 Q1154.2 1532.87 1160.4 1526.28 Q1166.61 1519.66 1177.4 1519.66 Q1181.66 1519.66 1185.42 1520.81 Q1189.21 1521.92 1192.52 1524.18 Z" fill="#000000" fill-rule="nonzero" fill-opacity="1" /><path clip-path="url(#clip820)" d="M1202.19 1518.52 L1208.05 1518.52 L1208.05 1568.04 L1202.19 1568.04 L1202.19 1518.52 Z" fill="#000000" fill-rule="nonzero" fill-opacity="1" /><path clip-path="url(#clip820)" d="M1236.51 1550.12 Q1229.41 1550.12 1226.67 1551.75 Q1223.93 1553.37 1223.93 1557.29 Q1223.93 1560.4 1225.97 1562.25 Q1228.04 1564.07 1231.57 1564.07 Q1236.44 1564.07 1239.37 1560.63 Q1242.33 1557.16 1242.33 1551.43 L1242.33 1550.12 L1236.51 1550.12 M1248.19 1547.71 L1248.19 1568.04 L1242.33 1568.04 L1242.33 1562.63 Q1240.32 1565.88 1237.33 1567.44 Q1234.34 1568.97 1230.01 1568.97 Q1224.54 1568.97 1221.29 1565.91 Q1218.08 1562.82 1218.08 1557.67 Q1218.08 1551.65 1222.09 1548.6 Q1226.13 1545.54 1234.12 1545.54 L1242.33 1545.54 L1242.33 1544.97 Q1242.33 1540.93 1239.66 1538.73 Q1237.01 1536.5 1232.21 1536.5 Q1229.15 1536.5 1226.26 1537.23 Q1223.36 1537.97 1220.69 1539.43 L1220.69 1534.02 Q1223.9 1532.78 1226.92 1532.17 Q1229.95 1531.54 1232.81 1531.54 Q1240.55 1531.54 1244.37 1535.55 Q1248.19 1539.56 1248.19 1547.71 Z" fill="#000000" fill-rule="nonzero" fill-opacity="1" /><path clip-path="url(#clip820)" d="M1282.97 1533.45 L1282.97 1538.98 Q1280.49 1537.71 1277.82 1537.07 Q1275.15 1536.44 1272.28 1536.44 Q1267.92 1536.44 1265.72 1537.77 Q1263.56 1539.11 1263.56 1541.79 Q1263.56 1543.82 1265.12 1545 Q1266.68 1546.15 1271.39 1547.2 L1273.39 1547.64 Q1279.63 1548.98 1282.24 1551.43 Q1284.88 1553.85 1284.88 1558.21 Q1284.88 1563.17 1280.94 1566.07 Q1277.02 1568.97 1270.15 1568.97 Q1267.28 1568.97 1264.16 1568.39 Q1261.08 1567.85 1257.64 1566.74 L1257.64 1560.69 Q1260.89 1562.38 1264.04 1563.24 Q1267.19 1564.07 1270.28 1564.07 Q1274.41 1564.07 1276.64 1562.66 Q1278.87 1561.23 1278.87 1558.65 Q1278.87 1556.27 1277.25 1554.99 Q1275.65 1553.72 1270.21 1552.54 L1268.17 1552.07 Q1262.73 1550.92 1260.31 1548.56 Q1257.89 1546.18 1257.89 1542.04 Q1257.89 1537.01 1261.46 1534.27 Q1265.02 1531.54 1271.58 1531.54 Q1274.83 1531.54 1277.69 1532.01 Q1280.56 1532.49 1282.97 1533.45 Z" fill="#000000" fill-rule="nonzero" fill-opacity="1" /><path clip-path="url(#clip820)" d="M1316.94 1533.45 L1316.94 1538.98 Q1314.45 1537.71 1311.78 1537.07 Q1309.11 1536.44 1306.24 1536.44 Q1301.88 1536.44 1299.68 1537.77 Q1297.52 1539.11 1297.52 1541.79 Q1297.52 1543.82 1299.08 1545 Q1300.64 1546.15 1305.35 1547.2 L1307.36 1547.64 Q1313.59 1548.98 1316.2 1551.43 Q1318.85 1553.85 1318.85 1558.21 Q1318.85 1563.17 1314.9 1566.07 Q1310.98 1568.97 1304.11 1568.97 Q1301.24 1568.97 1298.13 1568.39 Q1295.04 1567.85 1291.6 1566.74 L1291.6 1560.69 Q1294.85 1562.38 1298 1563.24 Q1301.15 1564.07 1304.24 1564.07 Q1308.37 1564.07 1310.6 1562.66 Q1312.83 1561.23 1312.83 1558.65 Q1312.83 1556.27 1311.21 1554.99 Q1309.62 1553.72 1304.17 1552.54 L1302.14 1552.07 Q1296.69 1550.92 1294.27 1548.56 Q1291.86 1546.18 1291.86 1542.04 Q1291.86 1537.01 1295.42 1534.27 Q1298.98 1531.54 1305.54 1531.54 Q1308.79 1531.54 1311.65 1532.01 Q1314.52 1532.49 1316.94 1533.45 Z" fill="#000000" fill-rule="nonzero" fill-opacity="1" /><path clip-path="url(#clip820)" d="M1328.17 1532.4 L1334.03 1532.4 L1334.03 1568.04 L1328.17 1568.04 L1328.17 1532.4 M1328.17 1518.52 L1334.03 1518.52 L1334.03 1525.93 L1328.17 1525.93 L1328.17 1518.52 Z" fill="#000000" fill-rule="nonzero" fill-opacity="1" /><path clip-path="url(#clip820)" d="M1364.33 1518.52 L1364.33 1523.39 L1358.73 1523.39 Q1355.58 1523.39 1354.33 1524.66 Q1353.12 1525.93 1353.12 1529.24 L1353.12 1532.4 L1362.77 1532.4 L1362.77 1536.95 L1353.12 1536.95 L1353.12 1568.04 L1347.24 1568.04 L1347.24 1536.95 L1341.63 1536.95 L1341.63 1532.4 L1347.24 1532.4 L1347.24 1529.91 Q1347.24 1523.96 1350.01 1521.26 Q1352.77 1518.52 1358.79 1518.52 L1364.33 1518.52 Z" fill="#000000" fill-rule="nonzero" fill-opacity="1" /><path clip-path="url(#clip820)" d="M1369.23 1532.4 L1375.09 1532.4 L1375.09 1568.04 L1369.23 1568.04 L1369.23 1532.4 M1369.23 1518.52 L1375.09 1518.52 L1375.09 1525.93 L1369.23 1525.93 L1369.23 1518.52 Z" fill="#000000" fill-rule="nonzero" fill-opacity="1" /><path clip-path="url(#clip820)" d="M1417.83 1548.76 L1417.83 1551.62 L1390.91 1551.62 Q1391.29 1557.67 1394.53 1560.85 Q1397.81 1564 1403.64 1564 Q1407.01 1564 1410.16 1563.17 Q1413.34 1562.35 1416.46 1560.69 L1416.46 1566.23 Q1413.31 1567.57 1410 1568.27 Q1406.69 1568.97 1403.29 1568.97 Q1394.76 1568.97 1389.76 1564 Q1384.79 1559.04 1384.79 1550.57 Q1384.79 1541.82 1389.5 1536.69 Q1394.25 1531.54 1402.27 1531.54 Q1409.46 1531.54 1413.63 1536.18 Q1417.83 1540.8 1417.83 1548.76 M1411.98 1547.04 Q1411.91 1542.23 1409.27 1539.37 Q1406.66 1536.5 1402.33 1536.5 Q1397.43 1536.5 1394.47 1539.27 Q1391.54 1542.04 1391.1 1547.07 L1411.98 1547.04 Z" fill="#000000" fill-rule="nonzero" fill-opacity="1" /><path clip-path="url(#clip820)" d="M1448.1 1537.87 Q1447.11 1537.3 1445.94 1537.04 Q1444.79 1536.76 1443.39 1536.76 Q1438.43 1536.76 1435.75 1540 Q1433.11 1543.22 1433.11 1549.27 L1433.11 1568.04 L1427.22 1568.04 L1427.22 1532.4 L1433.11 1532.4 L1433.11 1537.93 Q1434.96 1534.69 1437.92 1533.13 Q1440.88 1531.54 1445.11 1531.54 Q1445.71 1531.54 1446.45 1531.63 Q1447.18 1531.7 1448.07 1531.85 L1448.1 1537.87 Z" fill="#000000" fill-rule="nonzero" fill-opacity="1" /><polyline clip-path="url(#clip820)" style="stroke:#000000; stroke-linecap:round; stroke-linejoin:round; stroke-width:4; stroke-opacity:1; fill:none" points="249.542,1423.18 249.542,47.2441 "/>
<polyline clip-path="url(#clip820)" style="stroke:#000000; stroke-linecap:round; stroke-linejoin:round; stroke-width:4; stroke-opacity:1; fill:none" points="249.542,1423.18 268.44,1423.18 "/>
<polyline clip-path="url(#clip820)" style="stroke:#000000; stroke-linecap:round; stroke-linejoin:round; stroke-width:4; stroke-opacity:1; fill:none" points="249.542,1040.98 268.44,1040.98 "/>
<polyline clip-path="url(#clip820)" style="stroke:#000000; stroke-linecap:round; stroke-linejoin:round; stroke-width:4; stroke-opacity:1; fill:none" points="249.542,658.771 268.44,658.771 "/>
<polyline clip-path="url(#clip820)" style="stroke:#000000; stroke-linecap:round; stroke-linejoin:round; stroke-width:4; stroke-opacity:1; fill:none" points="249.542,276.567 268.44,276.567 "/>
<path clip-path="url(#clip820)" d="M126.205 1408.98 Q122.593 1408.98 120.765 1412.54 Q118.959 1416.08 118.959 1423.21 Q118.959 1430.32 120.765 1433.89 Q122.593 1437.43 126.205 1437.43 Q129.839 1437.43 131.644 1433.89 Q133.473 1430.32 133.473 1423.21 Q133.473 1416.08 131.644 1412.54 Q129.839 1408.98 126.205 1408.98 M126.205 1405.27 Q132.015 1405.27 135.07 1409.88 Q138.149 1414.46 138.149 1423.21 Q138.149 1431.94 135.07 1436.55 Q132.015 1441.13 126.205 1441.13 Q120.394 1441.13 117.316 1436.55 Q114.26 1431.94 114.26 1423.21 Q114.26 1414.46 117.316 1409.88 Q120.394 1405.27 126.205 1405.27 Z" fill="#000000" fill-rule="nonzero" fill-opacity="1" /><path clip-path="url(#clip820)" d="M146.366 1434.58 L151.251 1434.58 L151.251 1440.46 L146.366 1440.46 L146.366 1434.58 Z" fill="#000000" fill-rule="nonzero" fill-opacity="1" /><path clip-path="url(#clip820)" d="M171.436 1424.05 Q168.102 1424.05 166.181 1425.83 Q164.283 1427.61 164.283 1430.74 Q164.283 1433.86 166.181 1435.65 Q168.102 1437.43 171.436 1437.43 Q174.769 1437.43 176.69 1435.65 Q178.612 1433.84 178.612 1430.74 Q178.612 1427.61 176.69 1425.83 Q174.792 1424.05 171.436 1424.05 M166.76 1422.06 Q163.751 1421.32 162.061 1419.26 Q160.394 1417.2 160.394 1414.23 Q160.394 1410.09 163.334 1407.68 Q166.297 1405.27 171.436 1405.27 Q176.598 1405.27 179.538 1407.68 Q182.477 1410.09 182.477 1414.23 Q182.477 1417.2 180.788 1419.26 Q179.121 1421.32 176.135 1422.06 Q179.514 1422.84 181.389 1425.14 Q183.288 1427.43 183.288 1430.74 Q183.288 1435.76 180.209 1438.45 Q177.153 1441.13 171.436 1441.13 Q165.718 1441.13 162.64 1438.45 Q159.584 1435.76 159.584 1430.74 Q159.584 1427.43 161.482 1425.14 Q163.38 1422.84 166.76 1422.06 M165.047 1414.67 Q165.047 1417.36 166.714 1418.86 Q168.403 1420.37 171.436 1420.37 Q174.445 1420.37 176.135 1418.86 Q177.848 1417.36 177.848 1414.67 Q177.848 1411.99 176.135 1410.48 Q174.445 1408.98 171.436 1408.98 Q168.403 1408.98 166.714 1410.48 Q165.047 1411.99 165.047 1414.67 Z" fill="#000000" fill-rule="nonzero" fill-opacity="1" /><path clip-path="url(#clip820)" d="M201.598 1408.98 Q197.987 1408.98 196.158 1412.54 Q194.352 1416.08 194.352 1423.21 Q194.352 1430.32 196.158 1433.89 Q197.987 1437.43 201.598 1437.43 Q205.232 1437.43 207.037 1433.89 Q208.866 1430.32 208.866 1423.21 Q208.866 1416.08 207.037 1412.54 Q205.232 1408.98 201.598 1408.98 M201.598 1405.27 Q207.408 1405.27 210.463 1409.88 Q213.542 1414.46 213.542 1423.21 Q213.542 1431.94 210.463 1436.55 Q207.408 1441.13 201.598 1441.13 Q195.787 1441.13 192.709 1436.55 Q189.653 1431.94 189.653 1423.21 Q189.653 1414.46 192.709 1409.88 Q195.787 1405.27 201.598 1405.27 Z" fill="#000000" fill-rule="nonzero" fill-opacity="1" /><path clip-path="url(#clip820)" d="M127.2 1026.77 Q123.589 1026.77 121.76 1030.34 Q119.955 1033.88 119.955 1041.01 Q119.955 1048.12 121.76 1051.68 Q123.589 1055.22 127.2 1055.22 Q130.834 1055.22 132.64 1051.68 Q134.468 1048.12 134.468 1041.01 Q134.468 1033.88 132.64 1030.34 Q130.834 1026.77 127.2 1026.77 M127.2 1023.07 Q133.01 1023.07 136.066 1027.68 Q139.144 1032.26 139.144 1041.01 Q139.144 1049.74 136.066 1054.34 Q133.01 1058.93 127.2 1058.93 Q121.39 1058.93 118.311 1054.34 Q115.256 1049.74 115.256 1041.01 Q115.256 1032.26 118.311 1027.68 Q121.39 1023.07 127.2 1023.07 Z" fill="#000000" fill-rule="nonzero" fill-opacity="1" /><path clip-path="url(#clip820)" d="M147.362 1052.38 L152.246 1052.38 L152.246 1058.26 L147.362 1058.26 L147.362 1052.38 Z" fill="#000000" fill-rule="nonzero" fill-opacity="1" /><path clip-path="url(#clip820)" d="M172.431 1041.84 Q169.098 1041.84 167.177 1043.63 Q165.278 1045.41 165.278 1048.53 Q165.278 1051.66 167.177 1053.44 Q169.098 1055.22 172.431 1055.22 Q175.764 1055.22 177.686 1053.44 Q179.607 1051.64 179.607 1048.53 Q179.607 1045.41 177.686 1043.63 Q175.788 1041.84 172.431 1041.84 M167.755 1039.85 Q164.746 1039.11 163.056 1037.05 Q161.39 1034.99 161.39 1032.03 Q161.39 1027.89 164.329 1025.48 Q167.292 1023.07 172.431 1023.07 Q177.593 1023.07 180.533 1025.48 Q183.473 1027.89 183.473 1032.03 Q183.473 1034.99 181.783 1037.05 Q180.116 1039.11 177.13 1039.85 Q180.51 1040.64 182.385 1042.93 Q184.283 1045.22 184.283 1048.53 Q184.283 1053.56 181.204 1056.24 Q178.149 1058.93 172.431 1058.93 Q166.714 1058.93 163.635 1056.24 Q160.579 1053.56 160.579 1048.53 Q160.579 1045.22 162.477 1042.93 Q164.376 1040.64 167.755 1039.85 M166.042 1032.47 Q166.042 1035.15 167.709 1036.66 Q169.399 1038.16 172.431 1038.16 Q175.44 1038.16 177.13 1036.66 Q178.843 1035.15 178.843 1032.47 Q178.843 1029.78 177.13 1028.28 Q175.44 1026.77 172.431 1026.77 Q169.399 1026.77 167.709 1028.28 Q166.042 1029.78 166.042 1032.47 Z" fill="#000000" fill-rule="nonzero" fill-opacity="1" /><path clip-path="url(#clip820)" d="M192.639 1023.7 L210.996 1023.7 L210.996 1027.63 L196.922 1027.63 L196.922 1036.1 Q197.94 1035.76 198.959 1035.59 Q199.977 1035.41 200.996 1035.41 Q206.783 1035.41 210.162 1038.58 Q213.542 1041.75 213.542 1047.17 Q213.542 1052.75 210.07 1055.85 Q206.598 1058.93 200.278 1058.93 Q198.102 1058.93 195.834 1058.56 Q193.588 1058.19 191.181 1057.45 L191.181 1052.75 Q193.264 1053.88 195.487 1054.44 Q197.709 1054.99 200.186 1054.99 Q204.19 1054.99 206.528 1052.89 Q208.866 1050.78 208.866 1047.17 Q208.866 1043.56 206.528 1041.45 Q204.19 1039.34 200.186 1039.34 Q198.311 1039.34 196.436 1039.76 Q194.584 1040.18 192.639 1041.06 L192.639 1023.7 Z" fill="#000000" fill-rule="nonzero" fill-opacity="1" /><path clip-path="url(#clip820)" d="M126.205 644.57 Q122.593 644.57 120.765 648.135 Q118.959 651.676 118.959 658.806 Q118.959 665.912 120.765 669.477 Q122.593 673.019 126.205 673.019 Q129.839 673.019 131.644 669.477 Q133.473 665.912 133.473 658.806 Q133.473 651.676 131.644 648.135 Q129.839 644.57 126.205 644.57 M126.205 640.866 Q132.015 640.866 135.07 645.473 Q138.149 650.056 138.149 658.806 Q138.149 667.533 135.07 672.139 Q132.015 676.722 126.205 676.722 Q120.394 676.722 117.316 672.139 Q114.26 667.533 114.26 658.806 Q114.26 650.056 117.316 645.473 Q120.394 640.866 126.205 640.866 Z" fill="#000000" fill-rule="nonzero" fill-opacity="1" /><path clip-path="url(#clip820)" d="M146.366 670.171 L151.251 670.171 L151.251 676.051 L146.366 676.051 L146.366 670.171 Z" fill="#000000" fill-rule="nonzero" fill-opacity="1" /><path clip-path="url(#clip820)" d="M161.575 675.334 L161.575 671.074 Q163.334 671.908 165.14 672.347 Q166.945 672.787 168.681 672.787 Q173.311 672.787 175.741 669.685 Q178.195 666.56 178.542 660.218 Q177.2 662.209 175.139 663.273 Q173.079 664.338 170.579 664.338 Q165.394 664.338 162.362 661.213 Q159.353 658.065 159.353 652.625 Q159.353 647.301 162.501 644.084 Q165.649 640.866 170.88 640.866 Q176.876 640.866 180.024 645.473 Q183.195 650.056 183.195 658.806 Q183.195 666.977 179.306 671.861 Q175.44 676.722 168.889 676.722 Q167.13 676.722 165.325 676.375 Q163.519 676.028 161.575 675.334 M170.88 660.681 Q174.028 660.681 175.857 658.528 Q177.709 656.375 177.709 652.625 Q177.709 648.898 175.857 646.746 Q174.028 644.57 170.88 644.57 Q167.732 644.57 165.88 646.746 Q164.052 648.898 164.052 652.625 Q164.052 656.375 165.88 658.528 Q167.732 660.681 170.88 660.681 Z" fill="#000000" fill-rule="nonzero" fill-opacity="1" /><path clip-path="url(#clip820)" d="M201.598 644.57 Q197.987 644.57 196.158 648.135 Q194.352 651.676 194.352 658.806 Q194.352 665.912 196.158 669.477 Q197.987 673.019 201.598 673.019 Q205.232 673.019 207.037 669.477 Q208.866 665.912 208.866 658.806 Q208.866 651.676 207.037 648.135 Q205.232 644.57 201.598 644.57 M201.598 640.866 Q207.408 640.866 210.463 645.473 Q213.542 650.056 213.542 658.806 Q213.542 667.533 210.463 672.139 Q207.408 676.722 201.598 676.722 Q195.787 676.722 192.709 672.139 Q189.653 667.533 189.653 658.806 Q189.653 650.056 192.709 645.473 Q195.787 640.866 201.598 640.866 Z" fill="#000000" fill-rule="nonzero" fill-opacity="1" /><path clip-path="url(#clip820)" d="M127.2 262.365 Q123.589 262.365 121.76 265.93 Q119.955 269.472 119.955 276.601 Q119.955 283.708 121.76 287.273 Q123.589 290.814 127.2 290.814 Q130.834 290.814 132.64 287.273 Q134.468 283.708 134.468 276.601 Q134.468 269.472 132.64 265.93 Q130.834 262.365 127.2 262.365 M127.2 258.662 Q133.01 258.662 136.066 263.268 Q139.144 267.851 139.144 276.601 Q139.144 285.328 136.066 289.935 Q133.01 294.518 127.2 294.518 Q121.39 294.518 118.311 289.935 Q115.256 285.328 115.256 276.601 Q115.256 267.851 118.311 263.268 Q121.39 258.662 127.2 258.662 Z" fill="#000000" fill-rule="nonzero" fill-opacity="1" /><path clip-path="url(#clip820)" d="M147.362 287.967 L152.246 287.967 L152.246 293.847 L147.362 293.847 L147.362 287.967 Z" fill="#000000" fill-rule="nonzero" fill-opacity="1" /><path clip-path="url(#clip820)" d="M162.57 293.129 L162.57 288.87 Q164.329 289.703 166.135 290.143 Q167.94 290.583 169.677 290.583 Q174.306 290.583 176.737 287.481 Q179.19 284.356 179.538 278.013 Q178.195 280.004 176.135 281.069 Q174.075 282.134 171.575 282.134 Q166.39 282.134 163.357 279.009 Q160.348 275.861 160.348 270.421 Q160.348 265.097 163.496 261.879 Q166.644 258.662 171.876 258.662 Q177.871 258.662 181.019 263.268 Q184.19 267.851 184.19 276.601 Q184.19 284.773 180.301 289.657 Q176.436 294.518 169.885 294.518 Q168.126 294.518 166.32 294.171 Q164.515 293.824 162.57 293.129 M171.876 278.476 Q175.024 278.476 176.852 276.324 Q178.704 274.171 178.704 270.421 Q178.704 266.694 176.852 264.541 Q175.024 262.365 171.876 262.365 Q168.727 262.365 166.876 264.541 Q165.047 266.694 165.047 270.421 Q165.047 274.171 166.876 276.324 Q168.727 278.476 171.876 278.476 Z" fill="#000000" fill-rule="nonzero" fill-opacity="1" /><path clip-path="url(#clip820)" d="M192.639 259.287 L210.996 259.287 L210.996 263.222 L196.922 263.222 L196.922 271.694 Q197.94 271.347 198.959 271.185 Q199.977 271 200.996 271 Q206.783 271 210.162 274.171 Q213.542 277.342 213.542 282.759 Q213.542 288.337 210.07 291.439 Q206.598 294.518 200.278 294.518 Q198.102 294.518 195.834 294.148 Q193.588 293.777 191.181 293.037 L191.181 288.337 Q193.264 289.472 195.487 290.027 Q197.709 290.583 200.186 290.583 Q204.19 290.583 206.528 288.476 Q208.866 286.37 208.866 282.759 Q208.866 279.148 206.528 277.041 Q204.19 274.935 200.186 274.935 Q198.311 274.935 196.436 275.351 Q194.584 275.768 192.639 276.648 L192.639 259.287 Z" fill="#000000" fill-rule="nonzero" fill-opacity="1" /><path clip-path="url(#clip820)" d="M38.3822 1089.1 Q39.3689 1084.48 42.4881 1081.9 Q45.6073 1079.29 50.1906 1079.29 Q57.2247 1079.29 61.0759 1084.13 Q64.9272 1088.97 64.9272 1097.88 Q64.9272 1100.87 64.3224 1104.06 Q63.7495 1107.21 62.5719 1110.58 L56.3653 1110.58 Q57.9249 1107.91 58.7206 1104.73 Q59.5163 1101.54 59.5163 1098.07 Q59.5163 1092.03 57.1292 1088.87 Q54.7421 1085.69 50.1906 1085.69 Q45.9892 1085.69 43.6339 1088.65 Q41.2468 1091.58 41.2468 1096.83 L41.2468 1102.37 L35.9632 1102.37 L35.9632 1096.58 Q35.9632 1091.83 34.0853 1089.32 Q32.1756 1086.81 28.6108 1086.81 Q24.9505 1086.81 23.009 1089.42 Q21.0356 1091.99 21.0356 1096.83 Q21.0356 1099.47 21.6086 1102.5 Q22.1815 1105.52 23.3909 1109.15 L17.6618 1109.15 Q16.6433 1105.49 16.134 1102.31 Q15.6248 1099.09 15.6248 1096.26 Q15.6248 1088.94 18.9668 1084.67 Q22.277 1080.41 27.9424 1080.41 Q31.8892 1080.41 34.6264 1082.67 Q37.3318 1084.93 38.3822 1089.1 Z" fill="#000000" fill-rule="nonzero" fill-opacity="1" /><path clip-path="url(#clip820)" d="M20.7174 1053.35 Q20.7174 1058.32 25.6189 1060.83 Q30.4887 1063.32 40.2919 1063.32 Q50.0633 1063.32 54.9649 1060.83 Q59.8346 1058.32 59.8346 1053.35 Q59.8346 1048.36 54.9649 1045.87 Q50.0633 1043.36 40.2919 1043.36 Q30.4887 1043.36 25.6189 1045.87 Q20.7174 1048.36 20.7174 1053.35 M15.6248 1053.35 Q15.6248 1045.37 21.9587 1041.16 Q28.2607 1036.93 40.2919 1036.93 Q52.2913 1036.93 58.6251 1041.16 Q64.9272 1045.37 64.9272 1053.35 Q64.9272 1061.34 58.6251 1065.58 Q52.2913 1069.78 40.2919 1069.78 Q28.2607 1069.78 21.9587 1065.58 Q15.6248 1061.34 15.6248 1053.35 Z" fill="#000000" fill-rule="nonzero" fill-opacity="1" /><path clip-path="url(#clip820)" d="M43.5384 1029.42 L43.5384 1012.26 L48.7583 1012.26 L48.7583 1029.42 L43.5384 1029.42 Z" fill="#000000" fill-rule="nonzero" fill-opacity="1" /><path clip-path="url(#clip820)" d="M16.4842 1002.68 L16.4842 975.374 L21.895 975.374 L21.895 996.254 L35.8996 996.254 L35.8996 977.411 L41.3104 977.411 L41.3104 996.254 L64.0042 996.254 L64.0042 1002.68 L16.4842 1002.68 Z" fill="#000000" fill-rule="nonzero" fill-opacity="1" /><path clip-path="url(#clip820)" d="M32.4621 953.954 Q32.4621 958.664 36.1542 961.401 Q39.8145 964.139 46.212 964.139 Q52.6095 964.139 56.3017 961.433 Q59.9619 958.696 59.9619 953.954 Q59.9619 949.275 56.2698 946.538 Q52.5777 943.8 46.212 943.8 Q39.8781 943.8 36.186 946.538 Q32.4621 949.275 32.4621 953.954 M27.4968 953.954 Q27.4968 946.315 32.4621 941.954 Q37.4273 937.594 46.212 937.594 Q54.9649 937.594 59.9619 941.954 Q64.9272 946.315 64.9272 953.954 Q64.9272 961.624 59.9619 965.985 Q54.9649 970.313 46.212 970.313 Q37.4273 970.313 32.4621 965.985 Q27.4968 961.624 27.4968 953.954 Z" fill="#000000" fill-rule="nonzero" fill-opacity="1" /><path clip-path="url(#clip820)" d="M14.479 927.886 L14.479 922.03 L64.0042 922.03 L64.0042 927.886 L14.479 927.886 Z" fill="#000000" fill-rule="nonzero" fill-opacity="1" /><path clip-path="url(#clip820)" d="M33.7671 886.318 L14.479 886.318 L14.479 880.461 L64.0042 880.461 L64.0042 886.318 L58.657 886.318 Q61.8398 888.164 63.3994 890.997 Q64.9272 893.798 64.9272 897.744 Q64.9272 904.206 59.771 908.28 Q54.6147 912.322 46.212 912.322 Q37.8093 912.322 32.6531 908.28 Q27.4968 904.206 27.4968 897.744 Q27.4968 893.798 29.0564 890.997 Q30.5842 888.164 33.7671 886.318 M46.212 906.274 Q52.6732 906.274 56.3653 903.633 Q60.0256 900.959 60.0256 896.312 Q60.0256 891.665 56.3653 888.992 Q52.6732 886.318 46.212 886.318 Q39.7508 886.318 36.0905 888.992 Q32.3984 891.665 32.3984 896.312 Q32.3984 900.959 36.0905 903.633 Q39.7508 906.274 46.212 906.274 Z" fill="#000000" fill-rule="nonzero" fill-opacity="1" /><path clip-path="url(#clip820)" d="M16.4842 847.423 L16.4842 837.843 L48.8219 825.716 L16.4842 813.526 L16.4842 803.946 L64.0042 803.946 L64.0042 810.216 L22.277 810.216 L54.8694 822.47 L54.8694 828.931 L22.277 841.185 L64.0042 841.185 L64.0042 847.423 L16.4842 847.423 Z" fill="#000000" fill-rule="nonzero" fill-opacity="1" /><path clip-path="url(#clip820)" d="M44.7161 760.945 L47.5806 760.945 L47.5806 787.872 Q53.6281 787.49 56.8109 784.244 Q59.9619 780.965 59.9619 775.141 Q59.9619 771.767 59.1344 768.616 Q58.3069 765.433 56.6518 762.314 L62.1899 762.314 Q63.5267 765.465 64.227 768.775 Q64.9272 772.085 64.9272 775.491 Q64.9272 784.021 59.9619 789.018 Q54.9967 793.983 46.5303 793.983 Q37.7774 793.983 32.6531 789.273 Q27.4968 784.53 27.4968 776.509 Q27.4968 769.316 32.1438 765.147 Q36.7589 760.945 44.7161 760.945 M42.9973 766.802 Q38.1912 766.865 35.3266 769.507 Q32.4621 772.117 32.4621 776.446 Q32.4621 781.347 35.2312 784.307 Q38.0002 787.236 43.0292 787.681 L42.9973 766.802 Z" fill="#000000" fill-rule="nonzero" fill-opacity="1" /><path clip-path="url(#clip820)" d="M46.0847 735.132 Q46.0847 742.23 47.7079 744.967 Q49.3312 747.705 53.2461 747.705 Q56.3653 747.705 58.2114 745.668 Q60.0256 743.599 60.0256 740.066 Q60.0256 735.196 56.5881 732.268 Q53.1188 729.308 47.3897 729.308 L46.0847 729.308 L46.0847 735.132 M43.6657 723.451 L64.0042 723.451 L64.0042 729.308 L58.5933 729.308 Q61.8398 731.313 63.3994 734.305 Q64.9272 737.297 64.9272 741.625 Q64.9272 747.1 61.8716 750.346 Q58.7843 753.561 53.6281 753.561 Q47.6125 753.561 44.5569 749.551 Q41.5014 745.508 41.5014 737.52 L41.5014 729.308 L40.9285 729.308 Q36.8862 729.308 34.6901 731.981 Q32.4621 734.623 32.4621 739.429 Q32.4621 742.485 33.1941 745.381 Q33.9262 748.278 35.3903 750.951 L29.9795 750.951 Q28.7381 747.736 28.1334 744.713 Q27.4968 741.689 27.4968 738.825 Q27.4968 731.09 31.5072 727.271 Q35.5176 723.451 43.6657 723.451 Z" fill="#000000" fill-rule="nonzero" fill-opacity="1" /><path clip-path="url(#clip820)" d="M42.4881 681.756 L64.0042 681.756 L64.0042 687.612 L42.679 687.612 Q37.6183 687.612 35.1038 689.586 Q32.5894 691.559 32.5894 695.506 Q32.5894 700.248 35.6131 702.986 Q38.6368 705.723 43.8567 705.723 L64.0042 705.723 L64.0042 711.611 L28.3562 711.611 L28.3562 705.723 L33.8944 705.723 Q30.6797 703.622 29.0883 700.789 Q27.4968 697.925 27.4968 694.201 Q27.4968 688.058 31.3163 684.907 Q35.1038 681.756 42.4881 681.756 Z" fill="#000000" fill-rule="nonzero" fill-opacity="1" /><path clip-path="url(#clip820)" d="M22.818 633.217 L46.4666 641.938 L46.4666 624.465 L22.818 633.217 M16.4842 636.846 L16.4842 629.557 L64.0042 611.447 L64.0042 618.131 L51.8138 622.459 L51.8138 643.88 L64.0042 648.209 L64.0042 654.988 L16.4842 636.846 Z" fill="#000000" fill-rule="nonzero" fill-opacity="1" /><path clip-path="url(#clip820)" d="M29.7248 580.255 L35.1993 580.255 Q33.8307 582.737 33.1623 585.252 Q32.4621 587.734 32.4621 590.281 Q32.4621 595.978 36.0905 599.129 Q39.6872 602.28 46.212 602.28 Q52.7369 602.28 56.3653 599.129 Q59.9619 595.978 59.9619 590.281 Q59.9619 587.734 59.2935 585.252 Q58.5933 582.737 57.2247 580.255 L62.6355 580.255 Q63.7814 582.706 64.3543 585.347 Q64.9272 587.957 64.9272 590.917 Q64.9272 598.97 59.8664 603.712 Q54.8057 608.455 46.212 608.455 Q37.491 608.455 32.4939 603.681 Q27.4968 598.874 27.4968 590.535 Q27.4968 587.83 28.0697 585.252 Q28.6108 582.674 29.7248 580.255 Z" fill="#000000" fill-rule="nonzero" fill-opacity="1" /><path clip-path="url(#clip820)" d="M29.7248 544.416 L35.1993 544.416 Q33.8307 546.898 33.1623 549.413 Q32.4621 551.896 32.4621 554.442 Q32.4621 560.139 36.0905 563.29 Q39.6872 566.441 46.212 566.441 Q52.7369 566.441 56.3653 563.29 Q59.9619 560.139 59.9619 554.442 Q59.9619 551.896 59.2935 549.413 Q58.5933 546.898 57.2247 544.416 L62.6355 544.416 Q63.7814 546.867 64.3543 549.508 Q64.9272 552.118 64.9272 555.078 Q64.9272 563.131 59.8664 567.873 Q54.8057 572.616 46.212 572.616 Q37.491 572.616 32.4939 567.842 Q27.4968 563.036 27.4968 554.696 Q27.4968 551.991 28.0697 549.413 Q28.6108 546.835 29.7248 544.416 Z" fill="#000000" fill-rule="nonzero" fill-opacity="1" /><path clip-path="url(#clip820)" d="M49.9359 534.835 L28.3562 534.835 L28.3562 528.979 L49.7131 528.979 Q54.7739 528.979 57.3202 527.006 Q59.8346 525.032 59.8346 521.086 Q59.8346 516.343 56.8109 513.606 Q53.7872 510.837 48.5673 510.837 L28.3562 510.837 L28.3562 504.98 L64.0042 504.98 L64.0042 510.837 L58.5296 510.837 Q61.7762 512.969 63.3676 515.802 Q64.9272 518.603 64.9272 522.327 Q64.9272 528.47 61.1078 531.653 Q57.2883 534.835 49.9359 534.835 M27.4968 520.099 L27.4968 520.099 Z" fill="#000000" fill-rule="nonzero" fill-opacity="1" /><path clip-path="url(#clip820)" d="M33.8307 472.261 Q33.2578 473.247 33.0032 474.425 Q32.7167 475.571 32.7167 476.971 Q32.7167 481.936 35.9632 484.61 Q39.1779 487.252 45.2253 487.252 L64.0042 487.252 L64.0042 493.14 L28.3562 493.14 L28.3562 487.252 L33.8944 487.252 Q30.6479 485.406 29.0883 482.446 Q27.4968 479.486 27.4968 475.252 Q27.4968 474.648 27.5923 473.916 Q27.656 473.184 27.8151 472.292 L33.8307 472.261 Z" fill="#000000" fill-rule="nonzero" fill-opacity="1" /><path clip-path="url(#clip820)" d="M46.0847 449.917 Q46.0847 457.015 47.7079 459.752 Q49.3312 462.489 53.2461 462.489 Q56.3653 462.489 58.2114 460.452 Q60.0256 458.383 60.0256 454.85 Q60.0256 449.981 56.5881 447.052 Q53.1188 444.092 47.3897 444.092 L46.0847 444.092 L46.0847 449.917 M43.6657 438.236 L64.0042 438.236 L64.0042 444.092 L58.5933 444.092 Q61.8398 446.097 63.3994 449.089 Q64.9272 452.081 64.9272 456.41 Q64.9272 461.884 61.8716 465.131 Q58.7843 468.346 53.6281 468.346 Q47.6125 468.346 44.5569 464.335 Q41.5014 460.293 41.5014 452.304 L41.5014 444.092 L40.9285 444.092 Q36.8862 444.092 34.6901 446.766 Q32.4621 449.408 32.4621 454.214 Q32.4621 457.269 33.1941 460.166 Q33.9262 463.062 35.3903 465.736 L29.9795 465.736 Q28.7381 462.521 28.1334 459.497 Q27.4968 456.474 27.4968 453.609 Q27.4968 445.875 31.5072 442.055 Q35.5176 438.236 43.6657 438.236 Z" fill="#000000" fill-rule="nonzero" fill-opacity="1" /><path clip-path="url(#clip820)" d="M29.7248 400.519 L35.1993 400.519 Q33.8307 403.002 33.1623 405.516 Q32.4621 407.999 32.4621 410.545 Q32.4621 416.242 36.0905 419.393 Q39.6872 422.544 46.212 422.544 Q52.7369 422.544 56.3653 419.393 Q59.9619 416.242 59.9619 410.545 Q59.9619 407.999 59.2935 405.516 Q58.5933 403.002 57.2247 400.519 L62.6355 400.519 Q63.7814 402.97 64.3543 405.612 Q64.9272 408.222 64.9272 411.182 Q64.9272 419.234 59.8664 423.977 Q54.8057 428.719 46.212 428.719 Q37.491 428.719 32.4939 423.945 Q27.4968 419.139 27.4968 410.8 Q27.4968 408.094 28.0697 405.516 Q28.6108 402.938 29.7248 400.519 Z" fill="#000000" fill-rule="nonzero" fill-opacity="1" /><path clip-path="url(#clip820)" d="M67.3143 375.502 Q73.68 377.984 75.6216 380.34 Q77.5631 382.695 77.5631 386.642 L77.5631 391.321 L72.6615 391.321 L72.6615 387.883 Q72.6615 385.464 71.5157 384.127 Q70.3699 382.791 66.1048 381.167 L63.4312 380.117 L28.3562 394.535 L28.3562 388.329 L56.238 377.189 L28.3562 366.049 L28.3562 359.842 L67.3143 375.502 Z" fill="#000000" fill-rule="nonzero" fill-opacity="1" /><path clip-path="url(#clip822)" d="M365.223 487.912 L365.223 7538.45 L759.297 7538.45 L759.297 487.912 L365.223 487.912 L365.223 487.912  Z" fill="#b0c4de" fill-rule="evenodd" fill-opacity="1"/>
<polyline clip-path="url(#clip822)" style="stroke:#000000; stroke-linecap:round; stroke-linejoin:round; stroke-width:4; stroke-opacity:1; fill:none" points="365.223,487.912 365.223,7538.45 759.297,7538.45 759.297,487.912 365.223,487.912 "/>
<path clip-path="url(#clip822)" d="M857.815 246.976 L857.815 7538.45 L1251.89 7538.45 L1251.89 246.976 L857.815 246.976 L857.815 246.976  Z" fill="#b0c4de" fill-rule="evenodd" fill-opacity="1"/>
<polyline clip-path="url(#clip822)" style="stroke:#000000; stroke-linecap:round; stroke-linejoin:round; stroke-width:4; stroke-opacity:1; fill:none" points="857.815,246.976 857.815,7538.45 1251.89,7538.45 1251.89,246.976 857.815,246.976 "/>
<path clip-path="url(#clip822)" d="M1350.41 197.452 L1350.41 7538.45 L1744.48 7538.45 L1744.48 197.452 L1350.41 197.452 L1350.41 197.452  Z" fill="#b0c4de" fill-rule="evenodd" fill-opacity="1"/>
<polyline clip-path="url(#clip822)" style="stroke:#000000; stroke-linecap:round; stroke-linejoin:round; stroke-width:4; stroke-opacity:1; fill:none" points="1350.41,197.452 1350.41,7538.45 1744.48,7538.45 1744.48,197.452 1350.41,197.452 "/>
<path clip-path="url(#clip822)" d="M1843 176.899 L1843 7538.45 L2237.08 7538.45 L2237.08 176.899 L1843 176.899 L1843 176.899  Z" fill="#b0c4de" fill-rule="evenodd" fill-opacity="1"/>
<polyline clip-path="url(#clip822)" style="stroke:#000000; stroke-linecap:round; stroke-linejoin:round; stroke-width:4; stroke-opacity:1; fill:none" points="1843,176.899 1843,7538.45 2237.08,7538.45 2237.08,176.899 1843,176.899 "/>
<circle clip-path="url(#clip822)" style="fill:#b0c4de; stroke:none; fill-opacity:0" cx="562.26" cy="487.912" r="2"/>
<circle clip-path="url(#clip822)" style="fill:#b0c4de; stroke:none; fill-opacity:0" cx="1054.85" cy="246.976" r="2"/>
<circle clip-path="url(#clip822)" style="fill:#b0c4de; stroke:none; fill-opacity:0" cx="1547.45" cy="197.452" r="2"/>
<circle clip-path="url(#clip822)" style="fill:#b0c4de; stroke:none; fill-opacity:0" cx="2040.04" cy="176.899" r="2"/>
<polyline clip-path="url(#clip822)" style="stroke:#000000; stroke-linecap:round; stroke-linejoin:round; stroke-width:4; stroke-opacity:1; fill:none" points="562.26,509.372 562.26,466.451 "/>
<polyline clip-path="url(#clip822)" style="stroke:#000000; stroke-linecap:round; stroke-linejoin:round; stroke-width:4; stroke-opacity:1; fill:none" points="1054.85,263.459 1054.85,230.492 "/>
<polyline clip-path="url(#clip822)" style="stroke:#000000; stroke-linecap:round; stroke-linejoin:round; stroke-width:4; stroke-opacity:1; fill:none" points="1547.45,216.344 1547.45,178.559 "/>
<polyline clip-path="url(#clip822)" style="stroke:#000000; stroke-linecap:round; stroke-linejoin:round; stroke-width:4; stroke-opacity:1; fill:none" points="2040.04,186.073 2040.04,167.724 "/>
<line clip-path="url(#clip822)" x1="578.26" y1="509.372" x2="546.26" y2="509.372" style="stroke:#000000; stroke-width:4; stroke-opacity:1"/>
<line clip-path="url(#clip822)" x1="578.26" y1="466.451" x2="546.26" y2="466.451" style="stroke:#000000; stroke-width:4; stroke-opacity:1"/>
<line clip-path="url(#clip822)" x1="1070.85" y1="263.459" x2="1038.85" y2="263.459" style="stroke:#000000; stroke-width:4; stroke-opacity:1"/>
<line clip-path="url(#clip822)" x1="1070.85" y1="230.492" x2="1038.85" y2="230.492" style="stroke:#000000; stroke-width:4; stroke-opacity:1"/>
<line clip-path="url(#clip822)" x1="1563.45" y1="216.344" x2="1531.45" y2="216.344" style="stroke:#000000; stroke-width:4; stroke-opacity:1"/>
<line clip-path="url(#clip822)" x1="1563.45" y1="178.559" x2="1531.45" y2="178.559" style="stroke:#000000; stroke-width:4; stroke-opacity:1"/>
<line clip-path="url(#clip822)" x1="2056.04" y1="186.073" x2="2024.04" y2="186.073" style="stroke:#000000; stroke-width:4; stroke-opacity:1"/>
<line clip-path="url(#clip822)" x1="2056.04" y1="167.724" x2="2024.04" y2="167.724" style="stroke:#000000; stroke-width:4; stroke-opacity:1"/>
</svg>
