<?xml version="1.0" encoding="utf-8"?>
<svg xmlns="http://www.w3.org/2000/svg" xmlns:xlink="http://www.w3.org/1999/xlink" width="1000" height="400" viewBox="0 0 4000 1600">
<defs>
  <clipPath id="clip940">
    <rect x="0" y="0" width="4000" height="1600"/>
  </clipPath>
</defs>
<path clip-path="url(#clip940)" d="M0 1600 L4000 1600 L4000 -8.88178e-14 L0 -8.88178e-14  Z" fill="#ffffff" fill-rule="evenodd" fill-opacity="1"/>
<defs>
  <clipPath id="clip941">
    <rect x="800" y="0" width="2801" height="1600"/>
  </clipPath>
</defs>
<path clip-path="url(#clip940)" d="M279.85 1393.02 L1952.76 1393.02 L1952.76 99.2801 L279.85 99.2801  Z" fill="#ffffff" fill-rule="evenodd" fill-opacity="1"/>
<defs>
  <clipPath id="clip942">
    <rect x="279" y="99" width="1674" height="1295"/>
  </clipPath>
</defs>
<polyline clip-path="url(#clip942)" style="stroke:#000000; stroke-linecap:round; stroke-linejoin:round; stroke-width:2; stroke-opacity:0.1; fill:none" points="311.255,1393.02 311.255,99.2801 "/>
<polyline clip-path="url(#clip942)" style="stroke:#000000; stroke-linecap:round; stroke-linejoin:round; stroke-width:2; stroke-opacity:0.1; fill:none" points="709.794,1393.02 709.794,99.2801 "/>
<polyline clip-path="url(#clip942)" style="stroke:#000000; stroke-linecap:round; stroke-linejoin:round; stroke-width:2; stroke-opacity:0.1; fill:none" points="1108.33,1393.02 1108.33,99.2801 "/>
<polyline clip-path="url(#clip942)" style="stroke:#000000; stroke-linecap:round; stroke-linejoin:round; stroke-width:2; stroke-opacity:0.1; fill:none" points="1506.87,1393.02 1506.87,99.2801 "/>
<polyline clip-path="url(#clip942)" style="stroke:#000000; stroke-linecap:round; stroke-linejoin:round; stroke-width:2; stroke-opacity:0.1; fill:none" points="1905.41,1393.02 1905.41,99.2801 "/>
<polyline clip-path="url(#clip940)" style="stroke:#000000; stroke-linecap:round; stroke-linejoin:round; stroke-width:4; stroke-opacity:1; fill:none" points="279.85,1393.02 1952.76,1393.02 "/>
<polyline clip-path="url(#clip940)" style="stroke:#000000; stroke-linecap:round; stroke-linejoin:round; stroke-width:4; stroke-opacity:1; fill:none" points="311.255,1393.02 311.255,1374.12 "/>
<polyline clip-path="url(#clip940)" style="stroke:#000000; stroke-linecap:round; stroke-linejoin:round; stroke-width:4; stroke-opacity:1; fill:none" points="709.794,1393.02 709.794,1374.12 "/>
<polyline clip-path="url(#clip940)" style="stroke:#000000; stroke-linecap:round; stroke-linejoin:round; stroke-width:4; stroke-opacity:1; fill:none" points="1108.33,1393.02 1108.33,1374.12 "/>
<polyline clip-path="url(#clip940)" style="stroke:#000000; stroke-linecap:round; stroke-linejoin:round; stroke-width:4; stroke-opacity:1; fill:none" points="1506.87,1393.02 1506.87,1374.12 "/>
<polyline clip-path="url(#clip940)" style="stroke:#000000; stroke-linecap:round; stroke-linejoin:round; stroke-width:4; stroke-opacity:1; fill:none" points="1905.41,1393.02 1905.41,1374.12 "/>
<path clip-path="url(#clip940)" d="M311.255 1436.74 Q307.644 1436.74 305.815 1440.3 Q304.01 1443.84 304.01 1450.97 Q304.01 1458.08 305.815 1461.65 Q307.644 1465.19 311.255 1465.19 Q314.889 1465.19 316.695 1461.65 Q318.524 1458.08 318.524 1450.97 Q318.524 1443.84 316.695 1440.3 Q314.889 1436.74 311.255 1436.74 M311.255 1433.03 Q317.065 1433.03 320.121 1437.64 Q323.2 1442.22 323.2 1450.97 Q323.2 1459.7 320.121 1464.31 Q317.065 1468.89 311.255 1468.89 Q305.445 1468.89 302.366 1464.31 Q299.311 1459.7 299.311 1450.97 Q299.311 1442.22 302.366 1437.64 Q305.445 1433.03 311.255 1433.03 Z" fill="#000000" fill-rule="nonzero" fill-opacity="1" /><path clip-path="url(#clip940)" d="M689.065 1464.28 L705.384 1464.28 L705.384 1468.22 L683.44 1468.22 L683.44 1464.28 Q686.102 1461.53 690.685 1456.9 Q695.292 1452.25 696.472 1450.9 Q698.717 1448.38 699.597 1446.65 Q700.5 1444.89 700.5 1443.2 Q700.5 1440.44 698.555 1438.71 Q696.634 1436.97 693.532 1436.97 Q691.333 1436.97 688.88 1437.73 Q686.449 1438.5 683.671 1440.05 L683.671 1435.33 Q686.495 1434.19 688.949 1433.61 Q691.403 1433.03 693.44 1433.03 Q698.81 1433.03 702.004 1435.72 Q705.199 1438.41 705.199 1442.9 Q705.199 1445.03 704.389 1446.95 Q703.602 1448.84 701.495 1451.44 Q700.917 1452.11 697.815 1455.33 Q694.713 1458.52 689.065 1464.28 Z" fill="#000000" fill-rule="nonzero" fill-opacity="1" /><path clip-path="url(#clip940)" d="M715.245 1433.66 L733.602 1433.66 L733.602 1437.59 L719.528 1437.59 L719.528 1446.07 Q720.546 1445.72 721.565 1445.56 Q722.583 1445.37 723.602 1445.37 Q729.389 1445.37 732.768 1448.54 Q736.148 1451.72 736.148 1457.13 Q736.148 1462.71 732.676 1465.81 Q729.203 1468.89 722.884 1468.89 Q720.708 1468.89 718.44 1468.52 Q716.194 1468.15 713.787 1467.41 L713.787 1462.71 Q715.87 1463.84 718.092 1464.4 Q720.315 1464.96 722.791 1464.96 Q726.796 1464.96 729.134 1462.85 Q731.472 1460.74 731.472 1457.13 Q731.472 1453.52 729.134 1451.41 Q726.796 1449.31 722.791 1449.31 Q720.916 1449.31 719.041 1449.72 Q717.19 1450.14 715.245 1451.02 L715.245 1433.66 Z" fill="#000000" fill-rule="nonzero" fill-opacity="1" /><path clip-path="url(#clip940)" d="M1083.03 1433.66 L1101.39 1433.66 L1101.39 1437.59 L1087.31 1437.59 L1087.31 1446.07 Q1088.33 1445.72 1089.35 1445.56 Q1090.37 1445.37 1091.39 1445.37 Q1097.18 1445.37 1100.55 1448.54 Q1103.93 1451.72 1103.93 1457.13 Q1103.93 1462.71 1100.46 1465.81 Q1096.99 1468.89 1090.67 1468.89 Q1088.49 1468.89 1086.23 1468.52 Q1083.98 1468.15 1081.57 1467.41 L1081.57 1462.71 Q1083.66 1463.84 1085.88 1464.4 Q1088.1 1464.96 1090.58 1464.96 Q1094.58 1464.96 1096.92 1462.85 Q1099.26 1460.74 1099.26 1457.13 Q1099.26 1453.52 1096.92 1451.41 Q1094.58 1449.31 1090.58 1449.31 Q1088.7 1449.31 1086.83 1449.72 Q1084.98 1450.14 1083.03 1451.02 L1083.03 1433.66 Z" fill="#000000" fill-rule="nonzero" fill-opacity="1" /><path clip-path="url(#clip940)" d="M1123.15 1436.74 Q1119.54 1436.74 1117.71 1440.3 Q1115.9 1443.84 1115.9 1450.97 Q1115.9 1458.08 1117.71 1461.65 Q1119.54 1465.19 1123.15 1465.19 Q1126.78 1465.19 1128.59 1461.65 Q1130.42 1458.08 1130.42 1450.97 Q1130.42 1443.84 1128.59 1440.3 Q1126.78 1436.74 1123.15 1436.74 M1123.15 1433.03 Q1128.96 1433.03 1132.01 1437.64 Q1135.09 1442.22 1135.09 1450.97 Q1135.09 1459.7 1132.01 1464.31 Q1128.96 1468.89 1123.15 1468.89 Q1117.34 1468.89 1114.26 1464.31 Q1111.2 1459.7 1111.2 1450.97 Q1111.2 1442.22 1114.26 1437.64 Q1117.34 1433.03 1123.15 1433.03 Z" fill="#000000" fill-rule="nonzero" fill-opacity="1" /><path clip-path="url(#clip940)" d="M1480.73 1433.66 L1502.95 1433.66 L1502.95 1435.65 L1490.4 1468.22 L1485.52 1468.22 L1497.32 1437.59 L1480.73 1437.59 L1480.73 1433.66 Z" fill="#000000" fill-rule="nonzero" fill-opacity="1" /><path clip-path="url(#clip940)" d="M1512.11 1433.66 L1530.47 1433.66 L1530.47 1437.59 L1516.4 1437.59 L1516.4 1446.07 Q1517.41 1445.72 1518.43 1445.56 Q1519.45 1445.37 1520.47 1445.37 Q1526.26 1445.37 1529.64 1448.54 Q1533.02 1451.72 1533.02 1457.13 Q1533.02 1462.71 1529.54 1465.81 Q1526.07 1468.89 1519.75 1468.89 Q1517.58 1468.89 1515.31 1468.52 Q1513.06 1468.15 1510.66 1467.41 L1510.66 1462.71 Q1512.74 1463.84 1514.96 1464.4 Q1517.18 1464.96 1519.66 1464.96 Q1523.66 1464.96 1526 1462.85 Q1528.34 1460.74 1528.34 1457.13 Q1528.34 1453.52 1526 1451.41 Q1523.66 1449.31 1519.66 1449.31 Q1517.79 1449.31 1515.91 1449.72 Q1514.06 1450.14 1512.11 1451.02 L1512.11 1433.66 Z" fill="#000000" fill-rule="nonzero" fill-opacity="1" /><path clip-path="url(#clip940)" d="M1865.02 1464.28 L1872.66 1464.28 L1872.66 1437.92 L1864.34 1439.59 L1864.34 1435.33 L1872.61 1433.66 L1877.28 1433.66 L1877.28 1464.28 L1884.92 1464.28 L1884.92 1468.22 L1865.02 1468.22 L1865.02 1464.28 Z" fill="#000000" fill-rule="nonzero" fill-opacity="1" /><path clip-path="url(#clip940)" d="M1904.37 1436.74 Q1900.76 1436.74 1898.93 1440.3 Q1897.12 1443.84 1897.12 1450.97 Q1897.12 1458.08 1898.93 1461.65 Q1900.76 1465.19 1904.37 1465.19 Q1908 1465.19 1909.81 1461.65 Q1911.64 1458.08 1911.64 1450.97 Q1911.64 1443.84 1909.81 1440.3 Q1908 1436.74 1904.37 1436.74 M1904.37 1433.03 Q1910.18 1433.03 1913.23 1437.64 Q1916.31 1442.22 1916.31 1450.97 Q1916.31 1459.7 1913.23 1464.31 Q1910.18 1468.89 1904.37 1468.89 Q1898.56 1468.89 1895.48 1464.31 Q1892.42 1459.7 1892.42 1450.97 Q1892.42 1442.22 1895.48 1437.64 Q1898.56 1433.03 1904.37 1433.03 Z" fill="#000000" fill-rule="nonzero" fill-opacity="1" /><path clip-path="url(#clip940)" d="M1934.53 1436.74 Q1930.92 1436.74 1929.09 1440.3 Q1927.28 1443.84 1927.28 1450.97 Q1927.28 1458.08 1929.09 1461.65 Q1930.92 1465.19 1934.53 1465.19 Q1938.16 1465.19 1939.97 1461.65 Q1941.8 1458.08 1941.8 1450.97 Q1941.8 1443.84 1939.97 1440.3 Q1938.16 1436.74 1934.53 1436.74 M1934.53 1433.03 Q1940.34 1433.03 1943.4 1437.64 Q1946.47 1442.22 1946.47 1450.97 Q1946.47 1459.7 1943.4 1464.31 Q1940.34 1468.89 1934.53 1468.89 Q1928.72 1468.89 1925.64 1464.31 Q1922.59 1459.7 1922.59 1450.97 Q1922.59 1442.22 1925.64 1437.64 Q1928.72 1433.03 1934.53 1433.03 Z" fill="#000000" fill-rule="nonzero" fill-opacity="1" /><path clip-path="url(#clip940)" d="M1055.46 1516.11 L1055.46 1526.24 L1067.53 1526.24 L1067.53 1530.79 L1055.46 1530.79 L1055.46 1550.14 Q1055.46 1554.5 1056.64 1555.74 Q1057.85 1556.98 1061.51 1556.98 L1067.53 1556.98 L1067.53 1561.88 L1061.51 1561.88 Q1054.73 1561.88 1052.15 1559.37 Q1049.57 1556.82 1049.57 1550.14 L1049.57 1530.79 L1045.28 1530.79 L1045.28 1526.24 L1049.57 1526.24 L1049.57 1516.11 L1055.46 1516.11 Z" fill="#000000" fill-rule="nonzero" fill-opacity="1" /><path clip-path="url(#clip940)" d="M1075.23 1526.24 L1081.08 1526.24 L1081.08 1561.88 L1075.23 1561.88 L1075.23 1526.24 M1075.23 1512.36 L1081.08 1512.36 L1081.08 1519.77 L1075.23 1519.77 L1075.23 1512.36 Z" fill="#000000" fill-rule="nonzero" fill-opacity="1" /><path clip-path="url(#clip940)" d="M1121.09 1533.08 Q1123.29 1529.13 1126.35 1527.25 Q1129.4 1525.38 1133.54 1525.38 Q1139.11 1525.38 1142.13 1529.29 Q1145.16 1533.17 1145.16 1540.37 L1145.16 1561.88 L1139.27 1561.88 L1139.27 1540.56 Q1139.27 1535.43 1137.45 1532.95 Q1135.64 1530.47 1131.92 1530.47 Q1127.36 1530.47 1124.72 1533.49 Q1122.08 1536.52 1122.08 1541.74 L1122.08 1561.88 L1116.19 1561.88 L1116.19 1540.56 Q1116.19 1535.4 1114.38 1532.95 Q1112.56 1530.47 1108.78 1530.47 Q1104.29 1530.47 1101.65 1533.52 Q1099 1536.55 1099 1541.74 L1099 1561.88 L1093.12 1561.88 L1093.12 1526.24 L1099 1526.24 L1099 1531.77 Q1101.01 1528.5 1103.81 1526.94 Q1106.61 1525.38 1110.46 1525.38 Q1114.35 1525.38 1117.05 1527.35 Q1119.79 1529.32 1121.09 1533.08 Z" fill="#000000" fill-rule="nonzero" fill-opacity="1" /><path clip-path="url(#clip940)" d="M1187.33 1542.6 L1187.33 1545.46 L1160.4 1545.46 Q1160.78 1551.51 1164.03 1554.69 Q1167.31 1557.84 1173.13 1557.84 Q1176.51 1557.84 1179.66 1557.01 Q1182.84 1556.19 1185.96 1554.53 L1185.96 1560.07 Q1182.81 1561.41 1179.5 1562.11 Q1176.19 1562.81 1172.78 1562.81 Q1164.25 1562.81 1159.26 1557.84 Q1154.29 1552.88 1154.29 1544.41 Q1154.29 1535.66 1159 1530.53 Q1163.74 1525.38 1171.76 1525.38 Q1178.96 1525.38 1183.13 1530.02 Q1187.33 1534.64 1187.33 1542.6 M1181.47 1540.88 Q1181.41 1536.07 1178.77 1533.21 Q1176.16 1530.34 1171.83 1530.34 Q1166.93 1530.34 1163.97 1533.11 Q1161.04 1535.88 1160.59 1540.91 L1181.47 1540.88 Z" fill="#000000" fill-rule="nonzero" fill-opacity="1" /><polyline clip-path="url(#clip942)" style="stroke:#000000; stroke-linecap:round; stroke-linejoin:round; stroke-width:2; stroke-opacity:0.1; fill:none" points="279.85,1256.41 1952.76,1256.41 "/>
<polyline clip-path="url(#clip942)" style="stroke:#000000; stroke-linecap:round; stroke-linejoin:round; stroke-width:2; stroke-opacity:0.1; fill:none" points="279.85,1083.83 1952.76,1083.83 "/>
<polyline clip-path="url(#clip942)" style="stroke:#000000; stroke-linecap:round; stroke-linejoin:round; stroke-width:2; stroke-opacity:0.1; fill:none" points="279.85,911.256 1952.76,911.256 "/>
<polyline clip-path="url(#clip942)" style="stroke:#000000; stroke-linecap:round; stroke-linejoin:round; stroke-width:2; stroke-opacity:0.1; fill:none" points="279.85,738.677 1952.76,738.677 "/>
<polyline clip-path="url(#clip942)" style="stroke:#000000; stroke-linecap:round; stroke-linejoin:round; stroke-width:2; stroke-opacity:0.1; fill:none" points="279.85,566.099 1952.76,566.099 "/>
<polyline clip-path="url(#clip942)" style="stroke:#000000; stroke-linecap:round; stroke-linejoin:round; stroke-width:2; stroke-opacity:0.1; fill:none" points="279.85,393.52 1952.76,393.52 "/>
<polyline clip-path="url(#clip942)" style="stroke:#000000; stroke-linecap:round; stroke-linejoin:round; stroke-width:2; stroke-opacity:0.1; fill:none" points="279.85,220.942 1952.76,220.942 "/>
<polyline clip-path="url(#clip940)" style="stroke:#000000; stroke-linecap:round; stroke-linejoin:round; stroke-width:4; stroke-opacity:1; fill:none" points="279.85,1393.02 279.85,99.2801 "/>
<polyline clip-path="url(#clip940)" style="stroke:#000000; stroke-linecap:round; stroke-linejoin:round; stroke-width:4; stroke-opacity:1; fill:none" points="279.85,1256.41 298.748,1256.41 "/>
<polyline clip-path="url(#clip940)" style="stroke:#000000; stroke-linecap:round; stroke-linejoin:round; stroke-width:4; stroke-opacity:1; fill:none" points="279.85,1083.83 298.748,1083.83 "/>
<polyline clip-path="url(#clip940)" style="stroke:#000000; stroke-linecap:round; stroke-linejoin:round; stroke-width:4; stroke-opacity:1; fill:none" points="279.85,911.256 298.748,911.256 "/>
<polyline clip-path="url(#clip940)" style="stroke:#000000; stroke-linecap:round; stroke-linejoin:round; stroke-width:4; stroke-opacity:1; fill:none" points="279.85,738.677 298.748,738.677 "/>
<polyline clip-path="url(#clip940)" style="stroke:#000000; stroke-linecap:round; stroke-linejoin:round; stroke-width:4; stroke-opacity:1; fill:none" points="279.85,566.099 298.748,566.099 "/>
<polyline clip-path="url(#clip940)" style="stroke:#000000; stroke-linecap:round; stroke-linejoin:round; stroke-width:4; stroke-opacity:1; fill:none" points="279.85,393.52 298.748,393.52 "/>
<polyline clip-path="url(#clip940)" style="stroke:#000000; stroke-linecap:round; stroke-linejoin:round; stroke-width:4; stroke-opacity:1; fill:none" points="279.85,220.942 298.748,220.942 "/>
<path clip-path="url(#clip940)" d="M164.272 1242.21 Q160.661 1242.21 158.832 1245.78 Q157.027 1249.32 157.027 1256.45 Q157.027 1263.55 158.832 1267.12 Q160.661 1270.66 164.272 1270.66 Q167.906 1270.66 169.712 1267.12 Q171.54 1263.55 171.54 1256.45 Q171.54 1249.32 169.712 1245.78 Q167.906 1242.21 164.272 1242.21 M164.272 1238.51 Q170.082 1238.51 173.138 1243.11 Q176.216 1247.7 176.216 1256.45 Q176.216 1265.17 173.138 1269.78 Q170.082 1274.36 164.272 1274.36 Q158.462 1274.36 155.383 1269.78 Q152.328 1265.17 152.328 1256.45 Q152.328 1247.7 155.383 1243.11 Q158.462 1238.51 164.272 1238.51 Z" fill="#000000" fill-rule="nonzero" fill-opacity="1" /><path clip-path="url(#clip940)" d="M184.434 1267.81 L189.318 1267.81 L189.318 1273.69 L184.434 1273.69 L184.434 1267.81 Z" fill="#000000" fill-rule="nonzero" fill-opacity="1" /><path clip-path="url(#clip940)" d="M203.531 1269.76 L219.85 1269.76 L219.85 1273.69 L197.906 1273.69 L197.906 1269.76 Q200.568 1267 205.151 1262.37 Q209.758 1257.72 210.938 1256.38 Q213.184 1253.85 214.063 1252.12 Q214.966 1250.36 214.966 1248.67 Q214.966 1245.91 213.022 1244.18 Q211.1 1242.44 207.999 1242.44 Q205.8 1242.44 203.346 1243.21 Q200.915 1243.97 198.138 1245.52 L198.138 1240.8 Q200.962 1239.66 203.415 1239.09 Q205.869 1238.51 207.906 1238.51 Q213.276 1238.51 216.471 1241.19 Q219.665 1243.88 219.665 1248.37 Q219.665 1250.5 218.855 1252.42 Q218.068 1254.32 215.962 1256.91 Q215.383 1257.58 212.281 1260.8 Q209.179 1263.99 203.531 1269.76 Z" fill="#000000" fill-rule="nonzero" fill-opacity="1" /><path clip-path="url(#clip940)" d="M163.323 1069.63 Q159.712 1069.63 157.883 1073.2 Q156.078 1076.74 156.078 1083.87 Q156.078 1090.98 157.883 1094.54 Q159.712 1098.08 163.323 1098.08 Q166.957 1098.08 168.763 1094.54 Q170.591 1090.98 170.591 1083.87 Q170.591 1076.74 168.763 1073.2 Q166.957 1069.63 163.323 1069.63 M163.323 1065.93 Q169.133 1065.93 172.189 1070.54 Q175.267 1075.12 175.267 1083.87 Q175.267 1092.6 172.189 1097.2 Q169.133 1101.79 163.323 1101.79 Q157.513 1101.79 154.434 1097.2 Q151.379 1092.6 151.379 1083.87 Q151.379 1075.12 154.434 1070.54 Q157.513 1065.93 163.323 1065.93 Z" fill="#000000" fill-rule="nonzero" fill-opacity="1" /><path clip-path="url(#clip940)" d="M183.485 1095.23 L188.369 1095.23 L188.369 1101.11 L183.485 1101.11 L183.485 1095.23 Z" fill="#000000" fill-rule="nonzero" fill-opacity="1" /><path clip-path="url(#clip940)" d="M212.721 1082.48 Q216.077 1083.2 217.952 1085.47 Q219.85 1087.73 219.85 1091.07 Q219.85 1096.18 216.332 1098.98 Q212.813 1101.79 206.332 1101.79 Q204.156 1101.79 201.841 1101.35 Q199.55 1100.93 197.096 1100.07 L197.096 1095.56 Q199.04 1096.69 201.355 1097.27 Q203.67 1097.85 206.193 1097.85 Q210.591 1097.85 212.883 1096.11 Q215.198 1094.38 215.198 1091.07 Q215.198 1088.01 213.045 1086.3 Q210.915 1084.56 207.096 1084.56 L203.068 1084.56 L203.068 1080.72 L207.281 1080.72 Q210.73 1080.72 212.559 1079.35 Q214.387 1077.97 214.387 1075.37 Q214.387 1072.71 212.489 1071.3 Q210.614 1069.86 207.096 1069.86 Q205.175 1069.86 202.975 1070.28 Q200.776 1070.7 198.138 1071.58 L198.138 1067.41 Q200.8 1066.67 203.114 1066.3 Q205.452 1065.93 207.512 1065.93 Q212.837 1065.93 215.938 1068.36 Q219.04 1070.77 219.04 1074.89 Q219.04 1077.76 217.397 1079.75 Q215.753 1081.72 212.721 1082.48 Z" fill="#000000" fill-rule="nonzero" fill-opacity="1" /><path clip-path="url(#clip940)" d="M162.189 897.054 Q158.578 897.054 156.749 900.619 Q154.943 904.161 154.943 911.29 Q154.943 918.397 156.749 921.962 Q158.578 925.503 162.189 925.503 Q165.823 925.503 167.628 921.962 Q169.457 918.397 169.457 911.29 Q169.457 904.161 167.628 900.619 Q165.823 897.054 162.189 897.054 M162.189 893.351 Q167.999 893.351 171.054 897.957 Q174.133 902.54 174.133 911.29 Q174.133 920.017 171.054 924.624 Q167.999 929.207 162.189 929.207 Q156.379 929.207 153.3 924.624 Q150.244 920.017 150.244 911.29 Q150.244 902.54 153.3 897.957 Q156.379 893.351 162.189 893.351 Z" fill="#000000" fill-rule="nonzero" fill-opacity="1" /><path clip-path="url(#clip940)" d="M182.351 922.656 L187.235 922.656 L187.235 928.536 L182.351 928.536 L182.351 922.656 Z" fill="#000000" fill-rule="nonzero" fill-opacity="1" /><path clip-path="url(#clip940)" d="M210.267 898.05 L198.462 916.499 L210.267 916.499 L210.267 898.05 M209.04 893.976 L214.92 893.976 L214.92 916.499 L219.85 916.499 L219.85 920.388 L214.92 920.388 L214.92 928.536 L210.267 928.536 L210.267 920.388 L194.665 920.388 L194.665 915.874 L209.04 893.976 Z" fill="#000000" fill-rule="nonzero" fill-opacity="1" /><path clip-path="url(#clip940)" d="M163.67 724.476 Q160.059 724.476 158.23 728.041 Q156.425 731.582 156.425 738.712 Q156.425 745.818 158.23 749.383 Q160.059 752.925 163.67 752.925 Q167.304 752.925 169.11 749.383 Q170.939 745.818 170.939 738.712 Q170.939 731.582 169.11 728.041 Q167.304 724.476 163.67 724.476 M163.67 720.772 Q169.48 720.772 172.536 725.379 Q175.615 729.962 175.615 738.712 Q175.615 747.439 172.536 752.045 Q169.48 756.629 163.67 756.629 Q157.86 756.629 154.781 752.045 Q151.726 747.439 151.726 738.712 Q151.726 729.962 154.781 725.379 Q157.86 720.772 163.67 720.772 Z" fill="#000000" fill-rule="nonzero" fill-opacity="1" /><path clip-path="url(#clip940)" d="M183.832 750.078 L188.716 750.078 L188.716 755.957 L183.832 755.957 L183.832 750.078 Z" fill="#000000" fill-rule="nonzero" fill-opacity="1" /><path clip-path="url(#clip940)" d="M198.948 721.397 L217.304 721.397 L217.304 725.332 L203.23 725.332 L203.23 733.805 Q204.249 733.457 205.267 733.295 Q206.286 733.11 207.304 733.11 Q213.091 733.11 216.471 736.281 Q219.85 739.453 219.85 744.869 Q219.85 750.448 216.378 753.55 Q212.906 756.629 206.587 756.629 Q204.411 756.629 202.142 756.258 Q199.897 755.888 197.489 755.147 L197.489 750.448 Q199.573 751.582 201.795 752.138 Q204.017 752.693 206.494 752.693 Q210.499 752.693 212.837 750.587 Q215.174 748.48 215.174 744.869 Q215.174 741.258 212.837 739.152 Q210.499 737.045 206.494 737.045 Q204.619 737.045 202.744 737.462 Q200.892 737.879 198.948 738.758 L198.948 721.397 Z" fill="#000000" fill-rule="nonzero" fill-opacity="1" /><path clip-path="url(#clip940)" d="M162.513 551.898 Q158.902 551.898 157.073 555.462 Q155.267 559.004 155.267 566.134 Q155.267 573.24 157.073 576.805 Q158.902 580.346 162.513 580.346 Q166.147 580.346 167.953 576.805 Q169.781 573.24 169.781 566.134 Q169.781 559.004 167.953 555.462 Q166.147 551.898 162.513 551.898 M162.513 548.194 Q168.323 548.194 171.378 552.8 Q174.457 557.384 174.457 566.134 Q174.457 574.86 171.378 579.467 Q168.323 584.05 162.513 584.05 Q156.703 584.05 153.624 579.467 Q150.568 574.86 150.568 566.134 Q150.568 557.384 153.624 552.8 Q156.703 548.194 162.513 548.194 Z" fill="#000000" fill-rule="nonzero" fill-opacity="1" /><path clip-path="url(#clip940)" d="M182.675 577.499 L187.559 577.499 L187.559 583.379 L182.675 583.379 L182.675 577.499 Z" fill="#000000" fill-rule="nonzero" fill-opacity="1" /><path clip-path="url(#clip940)" d="M208.323 564.235 Q205.175 564.235 203.323 566.388 Q201.494 568.541 201.494 572.291 Q201.494 576.018 203.323 578.194 Q205.175 580.346 208.323 580.346 Q211.471 580.346 213.3 578.194 Q215.151 576.018 215.151 572.291 Q215.151 568.541 213.3 566.388 Q211.471 564.235 208.323 564.235 M217.605 549.583 L217.605 553.842 Q215.846 553.009 214.04 552.569 Q212.258 552.129 210.499 552.129 Q205.869 552.129 203.415 555.254 Q200.985 558.379 200.638 564.698 Q202.003 562.685 204.063 561.62 Q206.124 560.532 208.6 560.532 Q213.809 560.532 216.818 563.703 Q219.85 566.851 219.85 572.291 Q219.85 577.615 216.702 580.833 Q213.554 584.05 208.323 584.05 Q202.327 584.05 199.156 579.467 Q195.985 574.86 195.985 566.134 Q195.985 557.939 199.874 553.078 Q203.763 548.194 210.313 548.194 Q212.073 548.194 213.855 548.541 Q215.661 548.888 217.605 549.583 Z" fill="#000000" fill-rule="nonzero" fill-opacity="1" /><path clip-path="url(#clip940)" d="M163.578 379.319 Q159.966 379.319 158.138 382.884 Q156.332 386.426 156.332 393.555 Q156.332 400.662 158.138 404.226 Q159.966 407.768 163.578 407.768 Q167.212 407.768 169.017 404.226 Q170.846 400.662 170.846 393.555 Q170.846 386.426 169.017 382.884 Q167.212 379.319 163.578 379.319 M163.578 375.615 Q169.388 375.615 172.443 380.222 Q175.522 384.805 175.522 393.555 Q175.522 402.282 172.443 406.888 Q169.388 411.472 163.578 411.472 Q157.767 411.472 154.689 406.888 Q151.633 402.282 151.633 393.555 Q151.633 384.805 154.689 380.222 Q157.767 375.615 163.578 375.615 Z" fill="#000000" fill-rule="nonzero" fill-opacity="1" /><path clip-path="url(#clip940)" d="M183.739 404.921 L188.624 404.921 L188.624 410.8 L183.739 410.8 L183.739 404.921 Z" fill="#000000" fill-rule="nonzero" fill-opacity="1" /><path clip-path="url(#clip940)" d="M197.628 376.24 L219.85 376.24 L219.85 378.231 L207.304 410.8 L202.42 410.8 L214.225 380.176 L197.628 380.176 L197.628 376.24 Z" fill="#000000" fill-rule="nonzero" fill-opacity="1" /><path clip-path="url(#clip940)" d="M162.767 206.741 Q159.156 206.741 157.328 210.305 Q155.522 213.847 155.522 220.977 Q155.522 228.083 157.328 231.648 Q159.156 235.19 162.767 235.19 Q166.402 235.19 168.207 231.648 Q170.036 228.083 170.036 220.977 Q170.036 213.847 168.207 210.305 Q166.402 206.741 162.767 206.741 M162.767 203.037 Q168.578 203.037 171.633 207.643 Q174.712 212.227 174.712 220.977 Q174.712 229.704 171.633 234.31 Q168.578 238.893 162.767 238.893 Q156.957 238.893 153.879 234.31 Q150.823 229.704 150.823 220.977 Q150.823 212.227 153.879 207.643 Q156.957 203.037 162.767 203.037 Z" fill="#000000" fill-rule="nonzero" fill-opacity="1" /><path clip-path="url(#clip940)" d="M182.929 232.342 L187.814 232.342 L187.814 238.222 L182.929 238.222 L182.929 232.342 Z" fill="#000000" fill-rule="nonzero" fill-opacity="1" /><path clip-path="url(#clip940)" d="M207.999 221.81 Q204.665 221.81 202.744 223.592 Q200.846 225.375 200.846 228.5 Q200.846 231.625 202.744 233.407 Q204.665 235.19 207.999 235.19 Q211.332 235.19 213.253 233.407 Q215.174 231.602 215.174 228.5 Q215.174 225.375 213.253 223.592 Q211.355 221.81 207.999 221.81 M203.323 219.819 Q200.313 219.079 198.624 217.018 Q196.957 214.958 196.957 211.995 Q196.957 207.852 199.897 205.444 Q202.86 203.037 207.999 203.037 Q213.161 203.037 216.1 205.444 Q219.04 207.852 219.04 211.995 Q219.04 214.958 217.35 217.018 Q215.684 219.079 212.698 219.819 Q216.077 220.606 217.952 222.898 Q219.85 225.19 219.85 228.5 Q219.85 233.523 216.772 236.208 Q213.716 238.893 207.999 238.893 Q202.281 238.893 199.202 236.208 Q196.147 233.523 196.147 228.5 Q196.147 225.19 198.045 222.898 Q199.943 220.606 203.323 219.819 M201.61 212.435 Q201.61 215.12 203.276 216.625 Q204.966 218.13 207.999 218.13 Q211.008 218.13 212.698 216.625 Q214.411 215.12 214.411 212.435 Q214.411 209.75 212.698 208.245 Q211.008 206.741 207.999 206.741 Q204.966 206.741 203.276 208.245 Q201.61 209.75 201.61 212.435 Z" fill="#000000" fill-rule="nonzero" fill-opacity="1" /><path clip-path="url(#clip940)" d="M40.3403 729.535 L57.6869 742.426 L75.9883 728.867 L75.9883 735.774 L61.9837 746.15 L75.9883 756.526 L75.9883 763.433 L57.3368 749.587 L40.3403 762.255 L40.3403 755.348 L53.0399 745.895 L40.3403 736.442 L40.3403 729.535 Z" fill="#000000" fill-rule="nonzero" fill-opacity="1" /><path clip-path="url(#clip940)" d="M1021.45 16.7545 L1021.45 25.383 Q1017.32 21.5346 1012.62 19.6307 Q1007.96 17.7268 1002.7 17.7268 Q992.325 17.7268 986.816 24.0867 Q981.307 30.4061 981.307 42.3968 Q981.307 54.3469 986.816 60.7069 Q992.325 67.0263 1002.7 67.0263 Q1007.96 67.0263 1012.62 65.1223 Q1017.32 63.2184 1021.45 59.3701 L1021.45 67.9175 Q1017.16 70.8341 1012.34 72.2924 Q1007.56 73.7508 1002.21 73.7508 Q988.477 73.7508 980.578 65.3654 Q972.678 56.9395 972.678 42.3968 Q972.678 27.8135 980.578 19.4281 Q988.477 11.0023 1002.21 11.0023 Q1007.64 11.0023 1012.42 12.4606 Q1017.24 13.8784 1021.45 16.7545 Z" fill="#000000" fill-rule="nonzero" fill-opacity="1" /><path clip-path="url(#clip940)" d="M1033.77 9.54393 L1041.22 9.54393 L1041.22 72.576 L1033.77 72.576 L1033.77 9.54393 Z" fill="#000000" fill-rule="nonzero" fill-opacity="1" /><path clip-path="url(#clip940)" d="M1077.43 49.7694 Q1068.4 49.7694 1064.92 51.8354 Q1061.43 53.9013 1061.43 58.8839 Q1061.43 62.8538 1064.03 65.2034 Q1066.66 67.5124 1071.16 67.5124 Q1077.35 67.5124 1081.08 63.1374 Q1084.85 58.7219 1084.85 51.4303 L1084.85 49.7694 L1077.43 49.7694 M1092.3 46.6907 L1092.3 72.576 L1084.85 72.576 L1084.85 65.6895 Q1082.3 69.8214 1078.49 71.8063 Q1074.68 73.7508 1069.17 73.7508 Q1062.2 73.7508 1058.07 69.8619 Q1053.98 65.9325 1053.98 59.3701 Q1053.98 51.7138 1059.08 47.825 Q1064.23 43.9361 1074.4 43.9361 L1084.85 43.9361 L1084.85 43.2069 Q1084.85 38.0623 1081.45 35.2672 Q1078.08 32.4315 1071.97 32.4315 Q1068.08 32.4315 1064.39 33.3632 Q1060.7 34.295 1057.3 36.1584 L1057.3 29.2718 Q1061.39 27.692 1065.24 26.9223 Q1069.09 26.1121 1072.74 26.1121 Q1082.58 26.1121 1087.44 31.2163 Q1092.3 36.3204 1092.3 46.6907 Z" fill="#000000" fill-rule="nonzero" fill-opacity="1" /><path clip-path="url(#clip940)" d="M1136.58 28.5427 L1136.58 35.5912 Q1133.42 33.9709 1130.02 33.1607 Q1126.61 32.3505 1122.97 32.3505 Q1117.42 32.3505 1114.62 34.0519 Q1111.87 35.7533 1111.87 39.156 Q1111.87 41.7486 1113.85 43.2475 Q1115.84 44.7058 1121.83 46.0426 L1124.38 46.6097 Q1132.32 48.3111 1135.65 51.4303 Q1139.01 54.509 1139.01 60.0587 Q1139.01 66.3781 1133.99 70.0644 Q1129 73.7508 1120.25 73.7508 Q1116.61 73.7508 1112.64 73.0216 Q1108.71 72.3329 1104.33 70.9151 L1104.33 63.2184 Q1108.46 65.3654 1112.48 66.4591 Q1116.49 67.5124 1120.41 67.5124 Q1125.68 67.5124 1128.52 65.73 Q1131.35 63.9071 1131.35 60.6258 Q1131.35 57.5877 1129.29 55.9673 Q1127.26 54.3469 1120.33 52.8481 L1117.74 52.2405 Q1110.81 50.7821 1107.74 47.7845 Q1104.66 44.7463 1104.66 39.4801 Q1104.66 33.0797 1109.19 29.5959 Q1113.73 26.1121 1122.08 26.1121 Q1126.21 26.1121 1129.85 26.7198 Q1133.5 27.3274 1136.58 28.5427 Z" fill="#000000" fill-rule="nonzero" fill-opacity="1" /><path clip-path="url(#clip940)" d="M1179.8 28.5427 L1179.8 35.5912 Q1176.64 33.9709 1173.24 33.1607 Q1169.84 32.3505 1166.19 32.3505 Q1160.64 32.3505 1157.85 34.0519 Q1155.09 35.7533 1155.09 39.156 Q1155.09 41.7486 1157.08 43.2475 Q1159.06 44.7058 1165.06 46.0426 L1167.61 46.6097 Q1175.55 48.3111 1178.87 51.4303 Q1182.23 54.509 1182.23 60.0587 Q1182.23 66.3781 1177.21 70.0644 Q1172.23 73.7508 1163.48 73.7508 Q1159.83 73.7508 1155.86 73.0216 Q1151.93 72.3329 1147.56 70.9151 L1147.56 63.2184 Q1151.69 65.3654 1155.7 66.4591 Q1159.71 67.5124 1163.64 67.5124 Q1168.9 67.5124 1171.74 65.73 Q1174.58 63.9071 1174.58 60.6258 Q1174.58 57.5877 1172.51 55.9673 Q1170.48 54.3469 1163.56 52.8481 L1160.96 52.2405 Q1154.04 50.7821 1150.96 47.7845 Q1147.88 44.7463 1147.88 39.4801 Q1147.88 33.0797 1152.42 29.5959 Q1156.95 26.1121 1165.3 26.1121 Q1169.43 26.1121 1173.08 26.7198 Q1176.72 27.3274 1179.8 28.5427 Z" fill="#000000" fill-rule="nonzero" fill-opacity="1" /><path clip-path="url(#clip940)" d="M1239.03 17.4837 Q1232.71 17.4837 1229.51 23.7221 Q1226.35 29.92 1226.35 42.3968 Q1226.35 54.833 1229.51 61.0714 Q1232.71 67.2693 1239.03 67.2693 Q1245.39 67.2693 1248.54 61.0714 Q1251.75 54.833 1251.75 42.3968 Q1251.75 29.92 1248.54 23.7221 Q1245.39 17.4837 1239.03 17.4837 M1239.03 11.0023 Q1249.19 11.0023 1254.54 19.0636 Q1259.93 27.0843 1259.93 42.3968 Q1259.93 57.6687 1254.54 65.73 Q1249.19 73.7508 1239.03 73.7508 Q1228.86 73.7508 1223.47 65.73 Q1218.12 57.6687 1218.12 42.3968 Q1218.12 27.0843 1223.47 19.0636 Q1228.86 11.0023 1239.03 11.0023 Z" fill="#000000" fill-rule="nonzero" fill-opacity="1" /><path clip-path="url(#clip942)" d="M327.197 1333.45 L343.138 1248.47 L359.08 1296.97 L375.021 1343.29 L390.963 1342.98 L406.904 1356.4 L422.846 1338.46 L438.788 1342.63 L454.729 1339.77 L470.671 1330.41 L486.612 1337.08 L502.554 1314.95 L518.495 1299.9 L534.437 1305.7 L550.378 1299.7 L566.32 1285.89 L582.261 1283.33 L598.203 1282.4 L614.145 1270.12 L630.086 1265.8 L646.028 1250.41 L661.969 1230.18 L677.911 1250.68 L693.852 1241.29 L709.794 1246.09 L725.735 1253.24 L741.677 1256.21 L757.618 1271.12 L773.56 1271.56 L789.502 1289.31 L805.443 1295.07 L821.385 1292.93 L837.326 1282.3 L853.268 1311.19 L869.209 1308.91 L885.151 1308.26 L901.092 1337.97 L917.034 1320.75 L932.975 1321.75 L948.917 1338.53 L964.858 1321.61 L980.8 1309.74 L996.742 1321.27 L1012.68 1320.06 L1028.62 1295.38 L1044.57 1304.04 L1060.51 1286.65 L1076.45 1293.45 L1092.39 1293.62 L1108.33 1286.68 L1124.27 1260.9 L1140.22 1261.52 L1156.16 1268.49 L1172.1 1251.13 L1188.04 1261.66 L1203.98 1254 L1219.92 1257.14 L1235.86 1264.25 L1251.81 1243.68 L1267.75 1250.79 L1283.69 1280.09 L1299.63 1263.66 L1315.57 1294.38 L1331.51 1291 L1347.46 1276.16 L1363.4 1297.83 L1379.34 1294.93 L1395.28 1291.17 L1411.22 1309.29 L1427.16 1316.64 L1443.1 1334.28 L1459.05 1347.5 L1474.99 1320.27 L1490.93 1334.49 L1506.87 1318.75 L1522.81 1349.95 L1538.75 1333.56 L1554.7 1330.35 L1570.64 1303.73 L1586.58 1295.17 L1602.52 1294.86 L1618.46 1289.93 L1634.4 1290.79 L1650.34 1272.01 L1666.29 1267.15 L1682.23 1269.05 L1698.17 1269.6 L1714.11 1260.8 L1730.05 1256.76 L1745.99 1252.58 L1761.94 1254.34 L1777.88 1259.24 L1793.82 1273.77 L1809.76 1286.96 L1825.7 1278.47 L1841.64 1290.55 L1857.58 1288.44 L1873.53 1301.18 L1889.47 1312.91 L1905.41 1317.26 L1905.41 222.978 L1889.47 218.629 L1873.53 206.894 L1857.58 194.158 L1841.64 196.263 L1825.7 184.183 L1809.76 192.674 L1793.82 179.489 L1777.88 164.958 L1761.94 160.056 L1745.99 158.296 L1730.05 162.472 L1714.11 166.511 L1698.17 175.312 L1682.23 174.76 L1666.29 172.862 L1650.34 177.728 L1634.4 196.505 L1618.46 195.642 L1602.52 200.578 L1586.58 200.888 L1570.64 209.448 L1554.7 236.06 L1538.75 239.27 L1522.81 255.665 L1506.87 224.463 L1490.93 240.202 L1474.99 225.981 L1459.05 253.214 L1443.1 239.995 L1427.16 222.357 L1411.22 215.005 L1395.28 196.885 L1379.34 200.647 L1363.4 203.546 L1347.46 181.87 L1331.51 196.712 L1315.57 200.095 L1299.63 169.376 L1283.69 185.805 L1267.75 156.501 L1251.81 149.391 L1235.86 169.962 L1219.92 162.852 L1203.98 159.711 L1188.04 167.374 L1172.1 156.846 L1156.16 174.208 L1140.22 167.236 L1124.27 166.614 L1108.33 192.398 L1092.39 199.335 L1076.45 199.163 L1060.51 192.363 L1044.57 209.759 L1028.62 201.096 L1012.68 225.774 L996.742 226.982 L980.8 215.454 L964.858 227.327 L948.917 244.24 L932.975 227.466 L917.034 226.465 L901.092 243.688 L885.151 213.97 L869.209 214.626 L853.268 216.904 L837.326 188.014 L821.385 198.645 L805.443 200.785 L789.502 195.021 L773.56 177.28 L757.618 176.831 L741.677 161.92 L725.735 158.952 L709.794 151.807 L693.852 147.009 L677.911 156.398 L661.969 135.895 L646.028 156.122 L630.086 171.516 L614.145 175.83 L598.203 188.118 L582.261 189.05 L566.32 191.604 L550.378 205.41 L534.437 211.416 L518.495 205.617 L502.554 220.666 L486.612 242.79 L470.671 236.129 L454.729 245.483 L438.788 248.348 L422.846 244.171 L406.904 262.119 L390.963 248.693 L375.021 249.003 L359.08 202.683 L343.138 154.189 L327.197 239.166  Z" fill="#009af9" fill-rule="evenodd" fill-opacity="0.5"/>
<polyline clip-path="url(#clip942)" style="stroke:#009af9; stroke-linecap:round; stroke-linejoin:round; stroke-width:8; stroke-opacity:1; fill:none" points="327.197,786.309 343.138,701.331 359.08,749.826 375.021,796.146 390.963,795.835 406.904,809.262 422.846,791.314 438.788,795.49 454.729,792.625 470.671,783.272 486.612,789.933 502.554,767.809 518.495,752.76 534.437,758.558 550.378,752.553 566.32,738.746 582.261,736.192 598.203,735.26 614.145,722.973 630.086,718.658 646.028,703.264 661.969,683.038 677.911,703.54 693.852,694.152 709.794,698.95 725.735,706.094 741.677,709.063 757.618,723.974 773.56,724.422 789.502,742.163 805.443,747.927 821.385,745.788 837.326,735.157 853.268,764.046 869.209,761.768 885.151,761.112 901.092,790.83 917.034,773.607 932.975,774.608 948.917,791.383 964.858,774.47 980.8,762.597 996.742,774.125 1012.68,772.917 1028.62,748.238 1044.57,756.902 1060.51,739.506 1076.45,746.305 1092.39,746.478 1108.33,739.54 1124.27,713.757 1140.22,714.378 1156.16,721.35 1172.1,703.989 1188.04,714.516 1203.98,706.854 1219.92,709.995 1235.86,717.105 1251.81,696.534 1267.75,703.644 1283.69,732.948 1299.63,716.518 1315.57,747.237 1331.51,743.855 1347.46,729.013 1363.4,750.689 1379.34,747.789 1395.28,744.027 1411.22,762.148 1427.16,769.5 1443.1,787.137 1459.05,800.357 1474.99,773.124 1490.93,787.344 1506.87,771.605 1522.81,802.807 1538.75,786.412 1554.7,783.203 1570.64,756.591 1586.58,748.031 1602.52,747.72 1618.46,742.785 1634.4,743.648 1650.34,724.871 1666.29,720.004 1682.23,721.903 1698.17,722.455 1714.11,713.653 1730.05,709.615 1745.99,705.439 1761.94,707.199 1777.88,712.1 1793.82,726.631 1809.76,739.816 1825.7,731.325 1841.64,743.406 1857.58,741.3 1873.53,754.037 1889.47,765.772 1905.41,770.121 "/>
<path clip-path="url(#clip942)" d="M327.197 1015.2 L343.138 1015.31 L359.08 1015.36 L375.021 1016.18 L390.963 1016.86 L406.904 1017.05 L422.846 1017.73 L438.788 1018.09 L454.729 1018.88 L470.671 1019.33 L486.612 1018.77 L502.554 1019.88 L518.495 1019.82 L534.437 1020.02 L550.378 1020.28 L566.32 1019.45 L582.261 1019.84 L598.203 1019.34 L614.145 1018.86 L630.086 1018.45 L646.028 1017.91 L661.969 1017.81 L677.911 1016.94 L693.852 1016.84 L709.794 1015.67 L725.735 1015.27 L741.677 1015.14 L757.618 1015.29 L773.56 1014.34 L789.502 1014.5 L805.443 1014.28 L821.385 1013.92 L837.326 1014.82 L853.268 1014.76 L869.209 1015.46 L885.151 1015.7 L901.092 1016.05 L917.034 1017.1 L932.975 1016.97 L948.917 1017.94 L964.858 1017.82 L980.8 1018.71 L996.742 1019.32 L1012.68 1019.48 L1028.62 1019.41 L1044.57 1019.89 L1060.51 1019.78 L1076.45 1019.86 L1092.39 1019.76 L1108.33 1019.77 L1124.27 1019.51 L1140.22 1018.51 L1156.16 1018.09 L1172.1 1017.94 L1188.04 1017.38 L1203.98 1017.25 L1219.92 1016.17 L1235.86 1016.1 L1251.81 1015.64 L1267.75 1015.05 L1283.69 1014.47 L1299.63 1014.86 L1315.57 1014.7 L1331.51 1014.07 L1347.46 1013.95 L1363.4 1013.94 L1379.34 1014.29 L1395.28 1015.34 L1411.22 1015.37 L1427.16 1016.16 L1443.1 1016.62 L1459.05 1017.13 L1474.99 1017.47 L1490.93 1018.06 L1506.87 1018.78 L1522.81 1018.8 L1538.75 1019.44 L1554.7 1019.91 L1570.64 1019.66 L1586.58 1020.1 L1602.52 1020.38 L1618.46 1019.83 L1634.4 1019.56 L1650.34 1019.45 L1666.29 1018.98 L1682.23 1018.38 L1698.17 1018.22 L1714.11 1017.26 L1730.05 1016.95 L1745.99 1016.53 L1761.94 1015.43 L1777.88 1015.78 L1793.82 1014.78 L1809.76 1015.11 L1825.7 1014.59 L1841.64 1013.83 L1857.58 1014.17 L1873.53 1014.38 L1889.47 1014.43 L1905.41 1014.8 L1905.41 457.872 L1889.47 457.499 L1873.53 457.448 L1857.58 457.238 L1841.64 456.895 L1825.7 457.661 L1809.76 458.178 L1793.82 457.849 L1777.88 458.845 L1761.94 458.501 L1745.99 459.599 L1730.05 460.015 L1714.11 460.333 L1698.17 461.288 L1682.23 461.451 L1666.29 462.049 L1650.34 462.523 L1634.4 462.625 L1618.46 462.899 L1602.52 463.45 L1586.58 463.172 L1570.64 462.731 L1554.7 462.982 L1538.75 462.51 L1522.81 461.869 L1506.87 461.851 L1490.93 461.13 L1474.99 460.539 L1459.05 460.195 L1443.1 459.692 L1427.16 459.228 L1411.22 458.437 L1395.28 458.41 L1379.34 457.356 L1363.4 457.005 L1347.46 457.015 L1331.51 457.143 L1315.57 457.772 L1299.63 457.928 L1283.69 457.537 L1267.75 458.119 L1251.81 458.713 L1235.86 459.173 L1219.92 459.235 L1203.98 460.316 L1188.04 460.453 L1172.1 461.014 L1156.16 461.161 L1140.22 461.58 L1124.27 462.582 L1108.33 462.84 L1092.39 462.829 L1076.45 462.929 L1060.51 462.847 L1044.57 462.963 L1028.62 462.48 L1012.68 462.545 L996.742 462.385 L980.8 461.78 L964.858 460.887 L948.917 461.01 L932.975 460.037 L917.034 460.173 L901.092 459.124 L885.151 458.772 L869.209 458.527 L853.268 457.831 L837.326 457.89 L821.385 456.986 L805.443 457.353 L789.502 457.568 L773.56 457.405 L757.618 458.36 L741.677 458.211 L725.735 458.337 L709.794 458.738 L693.852 459.913 L677.911 460.005 L661.969 460.882 L646.028 460.98 L630.086 461.521 L614.145 461.93 L598.203 462.409 L582.261 462.905 L566.32 462.518 L550.378 463.348 L534.437 463.087 L518.495 462.891 L502.554 462.946 L486.612 461.837 L470.671 462.395 L454.729 461.949 L438.788 461.161 L422.846 460.803 L406.904 460.116 L390.963 459.928 L375.021 459.252 L359.08 458.424 L343.138 458.376 L327.197 458.266  Z" fill="#e26f46" fill-rule="evenodd" fill-opacity="0.5"/>
<polyline clip-path="url(#clip942)" style="stroke:#e26f46; stroke-linecap:round; stroke-linejoin:round; stroke-width:8; stroke-opacity:1; fill:none" points="327.197,736.731 343.138,736.841 359.08,736.89 375.021,737.718 390.963,738.394 406.904,738.582 422.846,739.269 438.788,739.626 454.729,740.414 470.671,740.861 486.612,740.303 502.554,741.412 518.495,741.357 534.437,741.553 550.378,741.814 566.32,740.983 582.261,741.37 598.203,740.875 614.145,740.396 630.086,739.986 646.028,739.446 661.969,739.348 677.911,738.471 693.852,738.378 709.794,737.203 725.735,736.802 741.677,736.677 757.618,736.825 773.56,735.87 789.502,736.033 805.443,735.818 821.385,735.452 837.326,736.356 853.268,736.297 869.209,736.993 885.151,737.238 901.092,737.589 917.034,738.638 932.975,738.502 948.917,739.476 964.858,739.353 980.8,740.245 996.742,740.851 1012.68,741.01 1028.62,740.946 1044.57,741.429 1060.51,741.312 1076.45,741.394 1092.39,741.295 1108.33,741.305 1124.27,741.048 1140.22,740.046 1156.16,739.626 1172.1,739.479 1188.04,738.918 1203.98,738.782 1219.92,737.701 1235.86,737.638 1251.81,737.178 1267.75,736.584 1283.69,736.003 1299.63,736.394 1315.57,736.238 1331.51,735.609 1347.46,735.48 1363.4,735.47 1379.34,735.822 1395.28,736.876 1411.22,736.902 1427.16,737.694 1443.1,738.157 1459.05,738.661 1474.99,739.004 1490.93,739.595 1506.87,740.316 1522.81,740.335 1538.75,740.975 1554.7,741.447 1570.64,741.196 1586.58,741.638 1602.52,741.916 1618.46,741.364 1634.4,741.091 1650.34,740.989 1666.29,740.514 1682.23,739.917 1698.17,739.754 1714.11,738.799 1730.05,738.48 1745.99,738.065 1761.94,736.966 1777.88,737.311 1793.82,736.314 1809.76,736.643 1825.7,736.127 1841.64,735.361 1857.58,735.704 1873.53,735.913 1889.47,735.965 1905.41,736.338 "/>
<path clip-path="url(#clip940)" d="M1450.21 297.925 L1896.99 297.925 L1896.99 142.405 L1450.21 142.405  Z" fill="#ffffff" fill-rule="evenodd" fill-opacity="1"/>
<polyline clip-path="url(#clip940)" style="stroke:#000000; stroke-linecap:round; stroke-linejoin:round; stroke-width:4; stroke-opacity:1; fill:none" points="1450.21,297.925 1896.99,297.925 1896.99,142.405 1450.21,142.405 1450.21,297.925 "/>
<polyline clip-path="url(#clip940)" style="stroke:#009af9; stroke-linecap:round; stroke-linejoin:round; stroke-width:8; stroke-opacity:1; fill:none" points="1468.8,194.245 1580.33,194.245 "/>
<path clip-path="url(#clip940)" d="M1598.92 176.965 L1605.88 176.965 L1614.7 200.483 L1623.57 176.965 L1630.54 176.965 L1630.54 211.525 L1625.98 211.525 L1625.98 181.178 L1617.06 204.881 L1612.36 204.881 L1603.45 181.178 L1603.45 211.525 L1598.92 211.525 L1598.92 176.965 Z" fill="#000000" fill-rule="nonzero" fill-opacity="1" /><path clip-path="url(#clip940)" d="M1644.49 180.807 L1644.49 193.793 L1650.37 193.793 Q1653.64 193.793 1655.42 192.104 Q1657.2 190.414 1657.2 187.289 Q1657.2 184.187 1655.42 182.497 Q1653.64 180.807 1650.37 180.807 L1644.49 180.807 M1639.82 176.965 L1650.37 176.965 Q1656.18 176.965 1659.15 179.604 Q1662.13 182.219 1662.13 187.289 Q1662.13 192.405 1659.15 195.02 Q1656.18 197.636 1650.37 197.636 L1644.49 197.636 L1644.49 211.525 L1639.82 211.525 L1639.82 176.965 Z" fill="#000000" fill-rule="nonzero" fill-opacity="1" /><path clip-path="url(#clip940)" d="M1689.12 178.099 L1689.12 182.659 Q1686.46 181.386 1684.1 180.761 Q1681.74 180.136 1679.54 180.136 Q1675.72 180.136 1673.64 181.618 Q1671.58 183.099 1671.58 185.83 Q1671.58 188.122 1672.94 189.303 Q1674.33 190.46 1678.17 191.178 L1681 191.756 Q1686.23 192.752 1688.71 195.275 Q1691.21 197.775 1691.21 201.988 Q1691.21 207.011 1687.83 209.603 Q1684.47 212.196 1677.97 212.196 Q1675.51 212.196 1672.73 211.641 Q1669.98 211.085 1667.02 209.997 L1667.02 205.182 Q1669.86 206.779 1672.6 207.59 Q1675.33 208.4 1677.97 208.4 Q1681.97 208.4 1684.15 206.826 Q1686.32 205.252 1686.32 202.335 Q1686.32 199.789 1684.75 198.354 Q1683.2 196.918 1679.63 196.201 L1676.79 195.645 Q1671.55 194.604 1669.22 192.381 Q1666.88 190.159 1666.88 186.201 Q1666.88 181.618 1670.1 178.979 Q1673.34 176.34 1679.01 176.34 Q1681.44 176.34 1683.96 176.78 Q1686.48 177.219 1689.12 178.099 Z" fill="#000000" fill-rule="nonzero" fill-opacity="1" /><path clip-path="url(#clip940)" d="M1699.4 205.645 L1704.29 205.645 L1704.29 209.627 L1700.49 217.034 L1697.5 217.034 L1699.4 209.627 L1699.4 205.645 Z" fill="#000000" fill-rule="nonzero" fill-opacity="1" /><path clip-path="url(#clip940)" d="M1740.93 217.312 L1737.48 208.446 L1730.37 221.409 L1725.35 221.409 L1735.4 203.076 L1731.18 192.173 Q1730.05 189.256 1726.48 189.256 L1725.35 189.256 L1725.35 185.599 L1726.97 185.645 Q1732.94 185.807 1734.45 189.673 L1737.87 198.539 L1744.98 185.576 L1750 185.576 L1739.96 203.909 L1744.17 214.812 Q1745.3 217.728 1748.87 217.728 L1750 217.728 L1750 221.386 L1748.38 221.34 Q1742.41 221.178 1740.93 217.312 Z" fill="#000000" fill-rule="nonzero" fill-opacity="1" /><path clip-path="url(#clip940)" d="M1771.46 189.997 L1801.14 189.997 L1801.14 193.886 L1771.46 193.886 L1771.46 189.997 M1771.46 199.442 L1801.14 199.442 L1801.14 203.377 L1771.46 203.377 L1771.46 199.442 Z" fill="#000000" fill-rule="nonzero" fill-opacity="1" /><path clip-path="url(#clip940)" d="M1830.33 207.59 L1846.65 207.59 L1846.65 211.525 L1824.7 211.525 L1824.7 207.59 Q1827.36 204.835 1831.95 200.205 Q1836.55 195.553 1837.73 194.21 Q1839.98 191.687 1840.86 189.951 Q1841.76 188.192 1841.76 186.502 Q1841.76 183.747 1839.82 182.011 Q1837.9 180.275 1834.79 180.275 Q1832.59 180.275 1830.14 181.039 Q1827.71 181.803 1824.93 183.354 L1824.93 178.631 Q1827.76 177.497 1830.21 176.918 Q1832.66 176.34 1834.7 176.34 Q1840.07 176.34 1843.27 179.025 Q1846.46 181.71 1846.46 186.201 Q1846.46 188.33 1845.65 190.252 Q1844.86 192.15 1842.76 194.742 Q1842.18 195.414 1839.08 198.631 Q1835.97 201.826 1830.33 207.59 Z" fill="#000000" fill-rule="nonzero" fill-opacity="1" /><path clip-path="url(#clip940)" d="M1866.46 180.043 Q1862.85 180.043 1861.02 183.608 Q1859.21 187.15 1859.21 194.28 Q1859.21 201.386 1861.02 204.951 Q1862.85 208.492 1866.46 208.492 Q1870.09 208.492 1871.9 204.951 Q1873.73 201.386 1873.73 194.28 Q1873.73 187.15 1871.9 183.608 Q1870.09 180.043 1866.46 180.043 M1866.46 176.34 Q1872.27 176.34 1875.33 180.946 Q1878.4 185.53 1878.4 194.28 Q1878.4 203.006 1875.33 207.613 Q1872.27 212.196 1866.46 212.196 Q1860.65 212.196 1857.57 207.613 Q1854.52 203.006 1854.52 194.28 Q1854.52 185.53 1857.57 180.946 Q1860.65 176.34 1866.46 176.34 Z" fill="#000000" fill-rule="nonzero" fill-opacity="1" /><polyline clip-path="url(#clip940)" style="stroke:#e26f46; stroke-linecap:round; stroke-linejoin:round; stroke-width:8; stroke-opacity:1; fill:none" points="1468.8,246.085 1580.33,246.085 "/>
<path clip-path="url(#clip940)" d="M1598.92 228.805 L1620.77 228.805 L1620.77 232.74 L1603.59 232.74 L1603.59 242.971 L1620.05 242.971 L1620.05 246.907 L1603.59 246.907 L1603.59 259.43 L1621.18 259.43 L1621.18 263.365 L1598.92 263.365 L1598.92 228.805 Z" fill="#000000" fill-rule="nonzero" fill-opacity="1" /><path clip-path="url(#clip940)" d="M1648.87 242.416 Q1650.47 239.545 1652.69 238.18 Q1654.91 236.814 1657.92 236.814 Q1661.97 236.814 1664.17 239.661 Q1666.37 242.485 1666.37 247.717 L1666.37 263.365 L1662.09 263.365 L1662.09 247.856 Q1662.09 244.129 1660.77 242.323 Q1659.45 240.518 1656.74 240.518 Q1653.43 240.518 1651.51 242.717 Q1649.59 244.916 1649.59 248.712 L1649.59 263.365 L1645.3 263.365 L1645.3 247.856 Q1645.3 244.106 1643.98 242.323 Q1642.67 240.518 1639.91 240.518 Q1636.65 240.518 1634.73 242.74 Q1632.8 244.939 1632.8 248.712 L1632.8 263.365 L1628.52 263.365 L1628.52 237.439 L1632.8 237.439 L1632.8 241.467 Q1634.26 239.083 1636.3 237.948 Q1638.34 236.814 1641.14 236.814 Q1643.96 236.814 1645.93 238.249 Q1647.92 239.684 1648.87 242.416 Z" fill="#000000" fill-rule="nonzero" fill-opacity="1" /><path clip-path="url(#clip940)" d="M1678.98 259.476 L1678.98 273.226 L1674.7 273.226 L1674.7 237.439 L1678.98 237.439 L1678.98 241.374 Q1680.33 239.059 1682.36 237.948 Q1684.42 236.814 1687.27 236.814 Q1691.99 236.814 1694.93 240.564 Q1697.9 244.314 1697.9 250.425 Q1697.9 256.536 1694.93 260.286 Q1691.99 264.036 1687.27 264.036 Q1684.42 264.036 1682.36 262.925 Q1680.33 261.791 1678.98 259.476 M1693.47 250.425 Q1693.47 245.726 1691.53 243.064 Q1689.61 240.379 1686.23 240.379 Q1682.85 240.379 1680.91 243.064 Q1678.98 245.726 1678.98 250.425 Q1678.98 255.124 1680.91 257.809 Q1682.85 260.471 1686.23 260.471 Q1689.61 260.471 1691.53 257.809 Q1693.47 255.124 1693.47 250.425 Z" fill="#000000" fill-rule="nonzero" fill-opacity="1" /><path clip-path="url(#clip940)" d="M1704.96 237.439 L1709.22 237.439 L1709.22 263.365 L1704.96 263.365 L1704.96 237.439 M1704.96 227.346 L1709.22 227.346 L1709.22 232.74 L1704.96 232.74 L1704.96 227.346 Z" fill="#000000" fill-rule="nonzero" fill-opacity="1" /><path clip-path="url(#clip940)" d="M1733.15 241.42 Q1732.43 241.004 1731.58 240.819 Q1730.74 240.61 1729.72 240.61 Q1726.11 240.61 1724.17 242.971 Q1722.25 245.309 1722.25 249.707 L1722.25 263.365 L1717.97 263.365 L1717.97 237.439 L1722.25 237.439 L1722.25 241.467 Q1723.59 239.106 1725.74 237.971 Q1727.9 236.814 1730.97 236.814 Q1731.41 236.814 1731.95 236.883 Q1732.48 236.93 1733.13 237.045 L1733.15 241.42 Z" fill="#000000" fill-rule="nonzero" fill-opacity="1" /><path clip-path="url(#clip940)" d="M1737.62 237.439 L1741.88 237.439 L1741.88 263.365 L1737.62 263.365 L1737.62 237.439 M1737.62 227.346 L1741.88 227.346 L1741.88 232.74 L1737.62 232.74 L1737.62 227.346 Z" fill="#000000" fill-rule="nonzero" fill-opacity="1" /><path clip-path="url(#clip940)" d="M1769.45 238.434 L1769.45 242.416 Q1767.64 241.42 1765.81 240.934 Q1764.01 240.425 1762.16 240.425 Q1758.01 240.425 1755.72 243.064 Q1753.43 245.68 1753.43 250.425 Q1753.43 255.17 1755.72 257.809 Q1758.01 260.425 1762.16 260.425 Q1764.01 260.425 1765.81 259.939 Q1767.64 259.43 1769.45 258.434 L1769.45 262.369 Q1767.66 263.203 1765.74 263.619 Q1763.84 264.036 1761.69 264.036 Q1755.84 264.036 1752.39 260.356 Q1748.94 256.675 1748.94 250.425 Q1748.94 244.082 1752.41 240.448 Q1755.91 236.814 1761.97 236.814 Q1763.94 236.814 1765.81 237.231 Q1767.69 237.624 1769.45 238.434 Z" fill="#000000" fill-rule="nonzero" fill-opacity="1" /><path clip-path="url(#clip940)" d="M1788.64 250.332 Q1783.47 250.332 1781.48 251.513 Q1779.49 252.694 1779.49 255.541 Q1779.49 257.809 1780.97 259.152 Q1782.48 260.471 1785.05 260.471 Q1788.59 260.471 1790.72 257.971 Q1792.87 255.448 1792.87 251.282 L1792.87 250.332 L1788.64 250.332 M1797.13 248.573 L1797.13 263.365 L1792.87 263.365 L1792.87 259.43 Q1791.41 261.791 1789.24 262.925 Q1787.06 264.036 1783.91 264.036 Q1779.93 264.036 1777.57 261.814 Q1775.23 259.569 1775.23 255.819 Q1775.23 251.444 1778.15 249.221 Q1781.09 246.999 1786.9 246.999 L1792.87 246.999 L1792.87 246.582 Q1792.87 243.643 1790.93 242.045 Q1789.01 240.425 1785.51 240.425 Q1783.29 240.425 1781.18 240.957 Q1779.08 241.49 1777.13 242.555 L1777.13 238.62 Q1779.47 237.717 1781.67 237.277 Q1783.87 236.814 1785.95 236.814 Q1791.58 236.814 1794.35 239.731 Q1797.13 242.647 1797.13 248.573 Z" fill="#000000" fill-rule="nonzero" fill-opacity="1" /><path clip-path="url(#clip940)" d="M1805.9 227.346 L1810.16 227.346 L1810.16 263.365 L1805.9 263.365 L1805.9 227.346 Z" fill="#000000" fill-rule="nonzero" fill-opacity="1" /><path clip-path="url(#clip940)" d="M2279.85 1393.02 L3952.76 1393.02 L3952.76 99.2801 L2279.85 99.2801  Z" fill="#ffffff" fill-rule="evenodd" fill-opacity="1"/>
<defs>
  <clipPath id="clip943">
    <rect x="2279" y="99" width="1674" height="1295"/>
  </clipPath>
</defs>
<polyline clip-path="url(#clip943)" style="stroke:#000000; stroke-linecap:round; stroke-linejoin:round; stroke-width:2; stroke-opacity:0.1; fill:none" points="2311.26,1393.02 2311.26,99.2801 "/>
<polyline clip-path="url(#clip943)" style="stroke:#000000; stroke-linecap:round; stroke-linejoin:round; stroke-width:2; stroke-opacity:0.1; fill:none" points="2709.79,1393.02 2709.79,99.2801 "/>
<polyline clip-path="url(#clip943)" style="stroke:#000000; stroke-linecap:round; stroke-linejoin:round; stroke-width:2; stroke-opacity:0.1; fill:none" points="3108.33,1393.02 3108.33,99.2801 "/>
<polyline clip-path="url(#clip943)" style="stroke:#000000; stroke-linecap:round; stroke-linejoin:round; stroke-width:2; stroke-opacity:0.1; fill:none" points="3506.87,1393.02 3506.87,99.2801 "/>
<polyline clip-path="url(#clip943)" style="stroke:#000000; stroke-linecap:round; stroke-linejoin:round; stroke-width:2; stroke-opacity:0.1; fill:none" points="3905.41,1393.02 3905.41,99.2801 "/>
<polyline clip-path="url(#clip940)" style="stroke:#000000; stroke-linecap:round; stroke-linejoin:round; stroke-width:4; stroke-opacity:1; fill:none" points="2279.85,1393.02 3952.76,1393.02 "/>
<polyline clip-path="url(#clip940)" style="stroke:#000000; stroke-linecap:round; stroke-linejoin:round; stroke-width:4; stroke-opacity:1; fill:none" points="2311.26,1393.02 2311.26,1374.12 "/>
<polyline clip-path="url(#clip940)" style="stroke:#000000; stroke-linecap:round; stroke-linejoin:round; stroke-width:4; stroke-opacity:1; fill:none" points="2709.79,1393.02 2709.79,1374.12 "/>
<polyline clip-path="url(#clip940)" style="stroke:#000000; stroke-linecap:round; stroke-linejoin:round; stroke-width:4; stroke-opacity:1; fill:none" points="3108.33,1393.02 3108.33,1374.12 "/>
<polyline clip-path="url(#clip940)" style="stroke:#000000; stroke-linecap:round; stroke-linejoin:round; stroke-width:4; stroke-opacity:1; fill:none" points="3506.87,1393.02 3506.87,1374.12 "/>
<polyline clip-path="url(#clip940)" style="stroke:#000000; stroke-linecap:round; stroke-linejoin:round; stroke-width:4; stroke-opacity:1; fill:none" points="3905.41,1393.02 3905.41,1374.12 "/>
<path clip-path="url(#clip940)" d="M2311.26 1436.74 Q2307.64 1436.74 2305.82 1440.3 Q2304.01 1443.84 2304.01 1450.97 Q2304.01 1458.08 2305.82 1461.65 Q2307.64 1465.19 2311.26 1465.19 Q2314.89 1465.19 2316.7 1461.65 Q2318.52 1458.08 2318.52 1450.97 Q2318.52 1443.84 2316.7 1440.3 Q2314.89 1436.74 2311.26 1436.74 M2311.26 1433.03 Q2317.07 1433.03 2320.12 1437.64 Q2323.2 1442.22 2323.2 1450.97 Q2323.2 1459.7 2320.12 1464.31 Q2317.07 1468.89 2311.26 1468.89 Q2305.45 1468.89 2302.37 1464.31 Q2299.31 1459.7 2299.31 1450.97 Q2299.31 1442.22 2302.37 1437.64 Q2305.45 1433.03 2311.26 1433.03 Z" fill="#000000" fill-rule="nonzero" fill-opacity="1" /><path clip-path="url(#clip940)" d="M2689.06 1464.28 L2705.38 1464.28 L2705.38 1468.22 L2683.44 1468.22 L2683.44 1464.28 Q2686.1 1461.53 2690.69 1456.9 Q2695.29 1452.25 2696.47 1450.9 Q2698.72 1448.38 2699.6 1446.65 Q2700.5 1444.89 2700.5 1443.2 Q2700.5 1440.44 2698.56 1438.71 Q2696.63 1436.97 2693.53 1436.97 Q2691.33 1436.97 2688.88 1437.73 Q2686.45 1438.5 2683.67 1440.05 L2683.67 1435.33 Q2686.5 1434.19 2688.95 1433.61 Q2691.4 1433.03 2693.44 1433.03 Q2698.81 1433.03 2702 1435.72 Q2705.2 1438.41 2705.2 1442.9 Q2705.2 1445.03 2704.39 1446.95 Q2703.6 1448.84 2701.5 1451.44 Q2700.92 1452.11 2697.81 1455.33 Q2694.71 1458.52 2689.06 1464.28 Z" fill="#000000" fill-rule="nonzero" fill-opacity="1" /><path clip-path="url(#clip940)" d="M2715.25 1433.66 L2733.6 1433.66 L2733.6 1437.59 L2719.53 1437.59 L2719.53 1446.07 Q2720.55 1445.72 2721.56 1445.56 Q2722.58 1445.37 2723.6 1445.37 Q2729.39 1445.37 2732.77 1448.54 Q2736.15 1451.72 2736.15 1457.13 Q2736.15 1462.71 2732.68 1465.81 Q2729.2 1468.89 2722.88 1468.89 Q2720.71 1468.89 2718.44 1468.52 Q2716.19 1468.15 2713.79 1467.41 L2713.79 1462.71 Q2715.87 1463.84 2718.09 1464.4 Q2720.31 1464.96 2722.79 1464.96 Q2726.8 1464.96 2729.13 1462.85 Q2731.47 1460.74 2731.47 1457.13 Q2731.47 1453.52 2729.13 1451.41 Q2726.8 1449.31 2722.79 1449.31 Q2720.92 1449.31 2719.04 1449.72 Q2717.19 1450.14 2715.25 1451.02 L2715.25 1433.66 Z" fill="#000000" fill-rule="nonzero" fill-opacity="1" /><path clip-path="url(#clip940)" d="M3083.03 1433.66 L3101.39 1433.66 L3101.39 1437.59 L3087.31 1437.59 L3087.31 1446.07 Q3088.33 1445.72 3089.35 1445.56 Q3090.37 1445.37 3091.39 1445.37 Q3097.18 1445.37 3100.55 1448.54 Q3103.93 1451.72 3103.93 1457.13 Q3103.93 1462.71 3100.46 1465.81 Q3096.99 1468.89 3090.67 1468.89 Q3088.49 1468.89 3086.23 1468.52 Q3083.98 1468.15 3081.57 1467.41 L3081.57 1462.71 Q3083.66 1463.84 3085.88 1464.4 Q3088.1 1464.96 3090.58 1464.96 Q3094.58 1464.96 3096.92 1462.85 Q3099.26 1460.74 3099.26 1457.13 Q3099.26 1453.52 3096.92 1451.41 Q3094.58 1449.31 3090.58 1449.31 Q3088.7 1449.31 3086.83 1449.72 Q3084.98 1450.14 3083.03 1451.02 L3083.03 1433.66 Z" fill="#000000" fill-rule="nonzero" fill-opacity="1" /><path clip-path="url(#clip940)" d="M3123.15 1436.74 Q3119.54 1436.74 3117.71 1440.3 Q3115.9 1443.84 3115.9 1450.97 Q3115.9 1458.08 3117.71 1461.65 Q3119.54 1465.19 3123.15 1465.19 Q3126.78 1465.19 3128.59 1461.65 Q3130.42 1458.08 3130.42 1450.97 Q3130.42 1443.84 3128.59 1440.3 Q3126.78 1436.74 3123.15 1436.74 M3123.15 1433.03 Q3128.96 1433.03 3132.01 1437.64 Q3135.09 1442.22 3135.09 1450.97 Q3135.09 1459.7 3132.01 1464.31 Q3128.96 1468.89 3123.15 1468.89 Q3117.34 1468.89 3114.26 1464.31 Q3111.2 1459.7 3111.2 1450.97 Q3111.2 1442.22 3114.26 1437.64 Q3117.34 1433.03 3123.15 1433.03 Z" fill="#000000" fill-rule="nonzero" fill-opacity="1" /><path clip-path="url(#clip940)" d="M3480.73 1433.66 L3502.95 1433.66 L3502.95 1435.65 L3490.4 1468.22 L3485.52 1468.22 L3497.32 1437.59 L3480.73 1437.59 L3480.73 1433.66 Z" fill="#000000" fill-rule="nonzero" fill-opacity="1" /><path clip-path="url(#clip940)" d="M3512.11 1433.66 L3530.47 1433.66 L3530.47 1437.59 L3516.4 1437.59 L3516.4 1446.07 Q3517.41 1445.72 3518.43 1445.56 Q3519.45 1445.37 3520.47 1445.37 Q3526.26 1445.37 3529.64 1448.54 Q3533.02 1451.72 3533.02 1457.13 Q3533.02 1462.71 3529.54 1465.81 Q3526.07 1468.89 3519.75 1468.89 Q3517.58 1468.89 3515.31 1468.52 Q3513.06 1468.15 3510.66 1467.41 L3510.66 1462.71 Q3512.74 1463.84 3514.96 1464.4 Q3517.18 1464.96 3519.66 1464.96 Q3523.66 1464.96 3526 1462.85 Q3528.34 1460.74 3528.34 1457.13 Q3528.34 1453.52 3526 1451.41 Q3523.66 1449.31 3519.66 1449.31 Q3517.79 1449.31 3515.91 1449.72 Q3514.06 1450.14 3512.11 1451.02 L3512.11 1433.66 Z" fill="#000000" fill-rule="nonzero" fill-opacity="1" /><path clip-path="url(#clip940)" d="M3865.02 1464.28 L3872.66 1464.28 L3872.66 1437.92 L3864.34 1439.59 L3864.34 1435.33 L3872.61 1433.66 L3877.28 1433.66 L3877.28 1464.28 L3884.92 1464.28 L3884.92 1468.22 L3865.02 1468.22 L3865.02 1464.28 Z" fill="#000000" fill-rule="nonzero" fill-opacity="1" /><path clip-path="url(#clip940)" d="M3904.37 1436.74 Q3900.76 1436.74 3898.93 1440.3 Q3897.12 1443.84 3897.12 1450.97 Q3897.12 1458.08 3898.93 1461.65 Q3900.76 1465.19 3904.37 1465.19 Q3908 1465.19 3909.81 1461.65 Q3911.64 1458.08 3911.64 1450.97 Q3911.64 1443.84 3909.81 1440.3 Q3908 1436.74 3904.37 1436.74 M3904.37 1433.03 Q3910.18 1433.03 3913.23 1437.64 Q3916.31 1442.22 3916.31 1450.97 Q3916.31 1459.7 3913.23 1464.31 Q3910.18 1468.89 3904.37 1468.89 Q3898.56 1468.89 3895.48 1464.31 Q3892.42 1459.7 3892.42 1450.97 Q3892.42 1442.22 3895.48 1437.64 Q3898.56 1433.03 3904.37 1433.03 Z" fill="#000000" fill-rule="nonzero" fill-opacity="1" /><path clip-path="url(#clip940)" d="M3934.53 1436.74 Q3930.92 1436.74 3929.09 1440.3 Q3927.28 1443.84 3927.28 1450.97 Q3927.28 1458.08 3929.09 1461.65 Q3930.92 1465.19 3934.53 1465.19 Q3938.16 1465.19 3939.97 1461.65 Q3941.8 1458.08 3941.8 1450.97 Q3941.8 1443.84 3939.97 1440.3 Q3938.16 1436.74 3934.53 1436.74 M3934.53 1433.03 Q3940.34 1433.03 3943.4 1437.64 Q3946.47 1442.22 3946.47 1450.97 Q3946.47 1459.7 3943.4 1464.31 Q3940.34 1468.89 3934.53 1468.89 Q3928.72 1468.89 3925.64 1464.31 Q3922.59 1459.7 3922.59 1450.97 Q3922.59 1442.22 3925.64 1437.64 Q3928.72 1433.03 3934.53 1433.03 Z" fill="#000000" fill-rule="nonzero" fill-opacity="1" /><path clip-path="url(#clip940)" d="M3055.46 1516.11 L3055.46 1526.24 L3067.53 1526.24 L3067.53 1530.79 L3055.46 1530.79 L3055.46 1550.14 Q3055.46 1554.5 3056.64 1555.74 Q3057.85 1556.98 3061.51 1556.98 L3067.53 1556.98 L3067.53 1561.88 L3061.51 1561.88 Q3054.73 1561.88 3052.15 1559.37 Q3049.57 1556.82 3049.57 1550.14 L3049.57 1530.79 L3045.28 1530.79 L3045.28 1526.24 L3049.57 1526.24 L3049.57 1516.11 L3055.46 1516.11 Z" fill="#000000" fill-rule="nonzero" fill-opacity="1" /><path clip-path="url(#clip940)" d="M3075.23 1526.24 L3081.08 1526.24 L3081.08 1561.88 L3075.23 1561.88 L3075.23 1526.24 M3075.23 1512.36 L3081.08 1512.36 L3081.08 1519.77 L3075.23 1519.77 L3075.23 1512.36 Z" fill="#000000" fill-rule="nonzero" fill-opacity="1" /><path clip-path="url(#clip940)" d="M3121.09 1533.08 Q3123.29 1529.13 3126.35 1527.25 Q3129.4 1525.38 3133.54 1525.38 Q3139.11 1525.38 3142.13 1529.29 Q3145.16 1533.17 3145.16 1540.37 L3145.16 1561.88 L3139.27 1561.88 L3139.27 1540.56 Q3139.27 1535.43 3137.45 1532.95 Q3135.64 1530.47 3131.92 1530.47 Q3127.36 1530.47 3124.72 1533.49 Q3122.08 1536.52 3122.08 1541.74 L3122.08 1561.88 L3116.19 1561.88 L3116.19 1540.56 Q3116.19 1535.4 3114.38 1532.95 Q3112.56 1530.47 3108.78 1530.47 Q3104.29 1530.47 3101.65 1533.52 Q3099 1536.55 3099 1541.74 L3099 1561.88 L3093.12 1561.88 L3093.12 1526.24 L3099 1526.24 L3099 1531.77 Q3101.01 1528.5 3103.81 1526.94 Q3106.61 1525.38 3110.46 1525.38 Q3114.35 1525.38 3117.05 1527.35 Q3119.79 1529.32 3121.09 1533.08 Z" fill="#000000" fill-rule="nonzero" fill-opacity="1" /><path clip-path="url(#clip940)" d="M3187.33 1542.6 L3187.33 1545.46 L3160.4 1545.46 Q3160.78 1551.51 3164.03 1554.69 Q3167.31 1557.84 3173.13 1557.84 Q3176.51 1557.84 3179.66 1557.01 Q3182.84 1556.19 3185.96 1554.53 L3185.96 1560.07 Q3182.81 1561.41 3179.5 1562.11 Q3176.19 1562.81 3172.78 1562.81 Q3164.25 1562.81 3159.26 1557.84 Q3154.29 1552.88 3154.29 1544.41 Q3154.29 1535.66 3159 1530.53 Q3163.74 1525.38 3171.76 1525.38 Q3178.96 1525.38 3183.13 1530.02 Q3187.33 1534.64 3187.33 1542.6 M3181.47 1540.88 Q3181.41 1536.07 3178.77 1533.21 Q3176.16 1530.34 3171.83 1530.34 Q3166.93 1530.34 3163.97 1533.11 Q3161.04 1535.88 3160.59 1540.91 L3181.47 1540.88 Z" fill="#000000" fill-rule="nonzero" fill-opacity="1" /><polyline clip-path="url(#clip943)" style="stroke:#000000; stroke-linecap:round; stroke-linejoin:round; stroke-width:2; stroke-opacity:0.1; fill:none" points="2279.85,1284.81 3952.76,1284.81 "/>
<polyline clip-path="url(#clip943)" style="stroke:#000000; stroke-linecap:round; stroke-linejoin:round; stroke-width:2; stroke-opacity:0.1; fill:none" points="2279.85,1113.31 3952.76,1113.31 "/>
<polyline clip-path="url(#clip943)" style="stroke:#000000; stroke-linecap:round; stroke-linejoin:round; stroke-width:2; stroke-opacity:0.1; fill:none" points="2279.85,941.803 3952.76,941.803 "/>
<polyline clip-path="url(#clip943)" style="stroke:#000000; stroke-linecap:round; stroke-linejoin:round; stroke-width:2; stroke-opacity:0.1; fill:none" points="2279.85,770.298 3952.76,770.298 "/>
<polyline clip-path="url(#clip943)" style="stroke:#000000; stroke-linecap:round; stroke-linejoin:round; stroke-width:2; stroke-opacity:0.1; fill:none" points="2279.85,598.793 3952.76,598.793 "/>
<polyline clip-path="url(#clip943)" style="stroke:#000000; stroke-linecap:round; stroke-linejoin:round; stroke-width:2; stroke-opacity:0.1; fill:none" points="2279.85,427.288 3952.76,427.288 "/>
<polyline clip-path="url(#clip943)" style="stroke:#000000; stroke-linecap:round; stroke-linejoin:round; stroke-width:2; stroke-opacity:0.1; fill:none" points="2279.85,255.784 3952.76,255.784 "/>
<polyline clip-path="url(#clip940)" style="stroke:#000000; stroke-linecap:round; stroke-linejoin:round; stroke-width:4; stroke-opacity:1; fill:none" points="2279.85,1393.02 2279.85,99.2801 "/>
<polyline clip-path="url(#clip940)" style="stroke:#000000; stroke-linecap:round; stroke-linejoin:round; stroke-width:4; stroke-opacity:1; fill:none" points="2279.85,1284.81 2298.75,1284.81 "/>
<polyline clip-path="url(#clip940)" style="stroke:#000000; stroke-linecap:round; stroke-linejoin:round; stroke-width:4; stroke-opacity:1; fill:none" points="2279.85,1113.31 2298.75,1113.31 "/>
<polyline clip-path="url(#clip940)" style="stroke:#000000; stroke-linecap:round; stroke-linejoin:round; stroke-width:4; stroke-opacity:1; fill:none" points="2279.85,941.803 2298.75,941.803 "/>
<polyline clip-path="url(#clip940)" style="stroke:#000000; stroke-linecap:round; stroke-linejoin:round; stroke-width:4; stroke-opacity:1; fill:none" points="2279.85,770.298 2298.75,770.298 "/>
<polyline clip-path="url(#clip940)" style="stroke:#000000; stroke-linecap:round; stroke-linejoin:round; stroke-width:4; stroke-opacity:1; fill:none" points="2279.85,598.793 2298.75,598.793 "/>
<polyline clip-path="url(#clip940)" style="stroke:#000000; stroke-linecap:round; stroke-linejoin:round; stroke-width:4; stroke-opacity:1; fill:none" points="2279.85,427.288 2298.75,427.288 "/>
<polyline clip-path="url(#clip940)" style="stroke:#000000; stroke-linecap:round; stroke-linejoin:round; stroke-width:4; stroke-opacity:1; fill:none" points="2279.85,255.784 2298.75,255.784 "/>
<path clip-path="url(#clip940)" d="M2164.27 1270.61 Q2160.66 1270.61 2158.83 1274.18 Q2157.03 1277.72 2157.03 1284.85 Q2157.03 1291.95 2158.83 1295.52 Q2160.66 1299.06 2164.27 1299.06 Q2167.91 1299.06 2169.71 1295.52 Q2171.54 1291.95 2171.54 1284.85 Q2171.54 1277.72 2169.71 1274.18 Q2167.91 1270.61 2164.27 1270.61 M2164.27 1266.91 Q2170.08 1266.91 2173.14 1271.51 Q2176.22 1276.1 2176.22 1284.85 Q2176.22 1293.57 2173.14 1298.18 Q2170.08 1302.76 2164.27 1302.76 Q2158.46 1302.76 2155.38 1298.18 Q2152.33 1293.57 2152.33 1284.85 Q2152.33 1276.1 2155.38 1271.51 Q2158.46 1266.91 2164.27 1266.91 Z" fill="#000000" fill-rule="nonzero" fill-opacity="1" /><path clip-path="url(#clip940)" d="M2184.43 1296.21 L2189.32 1296.21 L2189.32 1302.09 L2184.43 1302.09 L2184.43 1296.21 Z" fill="#000000" fill-rule="nonzero" fill-opacity="1" /><path clip-path="url(#clip940)" d="M2203.53 1298.16 L2219.85 1298.16 L2219.85 1302.09 L2197.91 1302.09 L2197.91 1298.16 Q2200.57 1295.4 2205.15 1290.77 Q2209.76 1286.12 2210.94 1284.78 Q2213.18 1282.25 2214.06 1280.52 Q2214.97 1278.76 2214.97 1277.07 Q2214.97 1274.31 2213.02 1272.58 Q2211.1 1270.84 2208 1270.84 Q2205.8 1270.84 2203.35 1271.61 Q2200.92 1272.37 2198.14 1273.92 L2198.14 1269.2 Q2200.96 1268.06 2203.42 1267.49 Q2205.87 1266.91 2207.91 1266.91 Q2213.28 1266.91 2216.47 1269.59 Q2219.67 1272.28 2219.67 1276.77 Q2219.67 1278.9 2218.86 1280.82 Q2218.07 1282.72 2215.96 1285.31 Q2215.38 1285.98 2212.28 1289.2 Q2209.18 1292.39 2203.53 1298.16 Z" fill="#000000" fill-rule="nonzero" fill-opacity="1" /><path clip-path="url(#clip940)" d="M2163.32 1099.11 Q2159.71 1099.11 2157.88 1102.67 Q2156.08 1106.21 2156.08 1113.34 Q2156.08 1120.45 2157.88 1124.01 Q2159.71 1127.55 2163.32 1127.55 Q2166.96 1127.55 2168.76 1124.01 Q2170.59 1120.45 2170.59 1113.34 Q2170.59 1106.21 2168.76 1102.67 Q2166.96 1099.11 2163.32 1099.11 M2163.32 1095.4 Q2169.13 1095.4 2172.19 1100.01 Q2175.27 1104.59 2175.27 1113.34 Q2175.27 1122.07 2172.19 1126.68 Q2169.13 1131.26 2163.32 1131.26 Q2157.51 1131.26 2154.43 1126.68 Q2151.38 1122.07 2151.38 1113.34 Q2151.38 1104.59 2154.43 1100.01 Q2157.51 1095.4 2163.32 1095.4 Z" fill="#000000" fill-rule="nonzero" fill-opacity="1" /><path clip-path="url(#clip940)" d="M2183.48 1124.71 L2188.37 1124.71 L2188.37 1130.59 L2183.48 1130.59 L2183.48 1124.71 Z" fill="#000000" fill-rule="nonzero" fill-opacity="1" /><path clip-path="url(#clip940)" d="M2212.72 1111.95 Q2216.08 1112.67 2217.95 1114.94 Q2219.85 1117.21 2219.85 1120.54 Q2219.85 1125.66 2216.33 1128.46 Q2212.81 1131.26 2206.33 1131.26 Q2204.16 1131.26 2201.84 1130.82 Q2199.55 1130.4 2197.1 1129.55 L2197.1 1125.03 Q2199.04 1126.17 2201.36 1126.74 Q2203.67 1127.32 2206.19 1127.32 Q2210.59 1127.32 2212.88 1125.59 Q2215.2 1123.85 2215.2 1120.54 Q2215.2 1117.49 2213.04 1115.77 Q2210.92 1114.04 2207.1 1114.04 L2203.07 1114.04 L2203.07 1110.19 L2207.28 1110.19 Q2210.73 1110.19 2212.56 1108.83 Q2214.39 1107.44 2214.39 1104.85 Q2214.39 1102.18 2212.49 1100.77 Q2210.61 1099.34 2207.1 1099.34 Q2205.17 1099.34 2202.98 1099.75 Q2200.78 1100.17 2198.14 1101.05 L2198.14 1096.88 Q2200.8 1096.14 2203.11 1095.77 Q2205.45 1095.4 2207.51 1095.4 Q2212.84 1095.4 2215.94 1097.83 Q2219.04 1100.24 2219.04 1104.36 Q2219.04 1107.23 2217.4 1109.22 Q2215.75 1111.19 2212.72 1111.95 Z" fill="#000000" fill-rule="nonzero" fill-opacity="1" /><path clip-path="url(#clip940)" d="M2162.19 927.601 Q2158.58 927.601 2156.75 931.166 Q2154.94 934.708 2154.94 941.837 Q2154.94 948.944 2156.75 952.509 Q2158.58 956.05 2162.19 956.05 Q2165.82 956.05 2167.63 952.509 Q2169.46 948.944 2169.46 941.837 Q2169.46 934.708 2167.63 931.166 Q2165.82 927.601 2162.19 927.601 M2162.19 923.898 Q2168 923.898 2171.05 928.504 Q2174.13 933.087 2174.13 941.837 Q2174.13 950.564 2171.05 955.171 Q2168 959.754 2162.19 959.754 Q2156.38 959.754 2153.3 955.171 Q2150.24 950.564 2150.24 941.837 Q2150.24 933.087 2153.3 928.504 Q2156.38 923.898 2162.19 923.898 Z" fill="#000000" fill-rule="nonzero" fill-opacity="1" /><path clip-path="url(#clip940)" d="M2182.35 953.203 L2187.23 953.203 L2187.23 959.083 L2182.35 959.083 L2182.35 953.203 Z" fill="#000000" fill-rule="nonzero" fill-opacity="1" /><path clip-path="url(#clip940)" d="M2210.27 928.597 L2198.46 947.046 L2210.27 947.046 L2210.27 928.597 M2209.04 924.523 L2214.92 924.523 L2214.92 947.046 L2219.85 947.046 L2219.85 950.934 L2214.92 950.934 L2214.92 959.083 L2210.27 959.083 L2210.27 950.934 L2194.67 950.934 L2194.67 946.421 L2209.04 924.523 Z" fill="#000000" fill-rule="nonzero" fill-opacity="1" /><path clip-path="url(#clip940)" d="M2163.67 756.096 Q2160.06 756.096 2158.23 759.661 Q2156.42 763.203 2156.42 770.333 Q2156.42 777.439 2158.23 781.004 Q2160.06 784.545 2163.67 784.545 Q2167.3 784.545 2169.11 781.004 Q2170.94 777.439 2170.94 770.333 Q2170.94 763.203 2169.11 759.661 Q2167.3 756.096 2163.67 756.096 M2163.67 752.393 Q2169.48 752.393 2172.54 756.999 Q2175.61 761.583 2175.61 770.333 Q2175.61 779.059 2172.54 783.666 Q2169.48 788.249 2163.67 788.249 Q2157.86 788.249 2154.78 783.666 Q2151.73 779.059 2151.73 770.333 Q2151.73 761.583 2154.78 756.999 Q2157.86 752.393 2163.67 752.393 Z" fill="#000000" fill-rule="nonzero" fill-opacity="1" /><path clip-path="url(#clip940)" d="M2183.83 781.698 L2188.72 781.698 L2188.72 787.578 L2183.83 787.578 L2183.83 781.698 Z" fill="#000000" fill-rule="nonzero" fill-opacity="1" /><path clip-path="url(#clip940)" d="M2198.95 753.018 L2217.3 753.018 L2217.3 756.953 L2203.23 756.953 L2203.23 765.425 Q2204.25 765.078 2205.27 764.916 Q2206.29 764.731 2207.3 764.731 Q2213.09 764.731 2216.47 767.902 Q2219.85 771.073 2219.85 776.49 Q2219.85 782.069 2216.38 785.17 Q2212.91 788.249 2206.59 788.249 Q2204.41 788.249 2202.14 787.879 Q2199.9 787.508 2197.49 786.768 L2197.49 782.069 Q2199.57 783.203 2201.79 783.758 Q2204.02 784.314 2206.49 784.314 Q2210.5 784.314 2212.84 782.207 Q2215.17 780.101 2215.17 776.49 Q2215.17 772.879 2212.84 770.772 Q2210.5 768.666 2206.49 768.666 Q2204.62 768.666 2202.74 769.083 Q2200.89 769.499 2198.95 770.379 L2198.95 753.018 Z" fill="#000000" fill-rule="nonzero" fill-opacity="1" /><path clip-path="url(#clip940)" d="M2162.51 584.592 Q2158.9 584.592 2157.07 588.157 Q2155.27 591.698 2155.27 598.828 Q2155.27 605.934 2157.07 609.499 Q2158.9 613.041 2162.51 613.041 Q2166.15 613.041 2167.95 609.499 Q2169.78 605.934 2169.78 598.828 Q2169.78 591.698 2167.95 588.157 Q2166.15 584.592 2162.51 584.592 M2162.51 580.888 Q2168.32 580.888 2171.38 585.494 Q2174.46 590.078 2174.46 598.828 Q2174.46 607.555 2171.38 612.161 Q2168.32 616.744 2162.51 616.744 Q2156.7 616.744 2153.62 612.161 Q2150.57 607.555 2150.57 598.828 Q2150.57 590.078 2153.62 585.494 Q2156.7 580.888 2162.51 580.888 Z" fill="#000000" fill-rule="nonzero" fill-opacity="1" /><path clip-path="url(#clip940)" d="M2182.67 610.193 L2187.56 610.193 L2187.56 616.073 L2182.67 616.073 L2182.67 610.193 Z" fill="#000000" fill-rule="nonzero" fill-opacity="1" /><path clip-path="url(#clip940)" d="M2208.32 596.93 Q2205.17 596.93 2203.32 599.082 Q2201.49 601.235 2201.49 604.985 Q2201.49 608.712 2203.32 610.888 Q2205.17 613.041 2208.32 613.041 Q2211.47 613.041 2213.3 610.888 Q2215.15 608.712 2215.15 604.985 Q2215.15 601.235 2213.3 599.082 Q2211.47 596.93 2208.32 596.93 M2217.61 582.277 L2217.61 586.536 Q2215.85 585.703 2214.04 585.263 Q2212.26 584.823 2210.5 584.823 Q2205.87 584.823 2203.42 587.948 Q2200.98 591.073 2200.64 597.393 Q2202 595.379 2204.06 594.314 Q2206.12 593.226 2208.6 593.226 Q2213.81 593.226 2216.82 596.397 Q2219.85 599.545 2219.85 604.985 Q2219.85 610.309 2216.7 613.527 Q2213.55 616.744 2208.32 616.744 Q2202.33 616.744 2199.16 612.161 Q2195.98 607.555 2195.98 598.828 Q2195.98 590.633 2199.87 585.772 Q2203.76 580.888 2210.31 580.888 Q2212.07 580.888 2213.86 581.235 Q2215.66 581.582 2217.61 582.277 Z" fill="#000000" fill-rule="nonzero" fill-opacity="1" /><path clip-path="url(#clip940)" d="M2163.58 413.087 Q2159.97 413.087 2158.14 416.652 Q2156.33 420.193 2156.33 427.323 Q2156.33 434.429 2158.14 437.994 Q2159.97 441.536 2163.58 441.536 Q2167.21 441.536 2169.02 437.994 Q2170.85 434.429 2170.85 427.323 Q2170.85 420.193 2169.02 416.652 Q2167.21 413.087 2163.58 413.087 M2163.58 409.383 Q2169.39 409.383 2172.44 413.99 Q2175.52 418.573 2175.52 427.323 Q2175.52 436.05 2172.44 440.656 Q2169.39 445.24 2163.58 445.24 Q2157.77 445.24 2154.69 440.656 Q2151.63 436.05 2151.63 427.323 Q2151.63 418.573 2154.69 413.99 Q2157.77 409.383 2163.58 409.383 Z" fill="#000000" fill-rule="nonzero" fill-opacity="1" /><path clip-path="url(#clip940)" d="M2183.74 438.689 L2188.62 438.689 L2188.62 444.568 L2183.74 444.568 L2183.74 438.689 Z" fill="#000000" fill-rule="nonzero" fill-opacity="1" /><path clip-path="url(#clip940)" d="M2197.63 410.008 L2219.85 410.008 L2219.85 411.999 L2207.3 444.568 L2202.42 444.568 L2214.23 413.943 L2197.63 413.943 L2197.63 410.008 Z" fill="#000000" fill-rule="nonzero" fill-opacity="1" /><path clip-path="url(#clip940)" d="M2162.77 241.582 Q2159.16 241.582 2157.33 245.147 Q2155.52 248.689 2155.52 255.818 Q2155.52 262.925 2157.33 266.489 Q2159.16 270.031 2162.77 270.031 Q2166.4 270.031 2168.21 266.489 Q2170.04 262.925 2170.04 255.818 Q2170.04 248.689 2168.21 245.147 Q2166.4 241.582 2162.77 241.582 M2162.77 237.879 Q2168.58 237.879 2171.63 242.485 Q2174.71 247.068 2174.71 255.818 Q2174.71 264.545 2171.63 269.151 Q2168.58 273.735 2162.77 273.735 Q2156.96 273.735 2153.88 269.151 Q2150.82 264.545 2150.82 255.818 Q2150.82 247.068 2153.88 242.485 Q2156.96 237.879 2162.77 237.879 Z" fill="#000000" fill-rule="nonzero" fill-opacity="1" /><path clip-path="url(#clip940)" d="M2182.93 267.184 L2187.81 267.184 L2187.81 273.064 L2182.93 273.064 L2182.93 267.184 Z" fill="#000000" fill-rule="nonzero" fill-opacity="1" /><path clip-path="url(#clip940)" d="M2208 256.652 Q2204.67 256.652 2202.74 258.434 Q2200.85 260.216 2200.85 263.341 Q2200.85 266.466 2202.74 268.249 Q2204.67 270.031 2208 270.031 Q2211.33 270.031 2213.25 268.249 Q2215.17 266.443 2215.17 263.341 Q2215.17 260.216 2213.25 258.434 Q2211.36 256.652 2208 256.652 M2203.32 254.661 Q2200.31 253.92 2198.62 251.86 Q2196.96 249.8 2196.96 246.837 Q2196.96 242.693 2199.9 240.286 Q2202.86 237.879 2208 237.879 Q2213.16 237.879 2216.1 240.286 Q2219.04 242.693 2219.04 246.837 Q2219.04 249.8 2217.35 251.86 Q2215.68 253.92 2212.7 254.661 Q2216.08 255.448 2217.95 257.74 Q2219.85 260.031 2219.85 263.341 Q2219.85 268.364 2216.77 271.05 Q2213.72 273.735 2208 273.735 Q2202.28 273.735 2199.2 271.05 Q2196.15 268.364 2196.15 263.341 Q2196.15 260.031 2198.04 257.74 Q2199.94 255.448 2203.32 254.661 M2201.61 247.277 Q2201.61 249.962 2203.28 251.466 Q2204.97 252.971 2208 252.971 Q2211.01 252.971 2212.7 251.466 Q2214.41 249.962 2214.41 247.277 Q2214.41 244.591 2212.7 243.087 Q2211.01 241.582 2208 241.582 Q2204.97 241.582 2203.28 243.087 Q2201.61 244.591 2201.61 247.277 Z" fill="#000000" fill-rule="nonzero" fill-opacity="1" /><path clip-path="url(#clip940)" d="M2040.34 729.535 L2057.69 742.426 L2075.99 728.867 L2075.99 735.774 L2061.98 746.15 L2075.99 756.526 L2075.99 763.433 L2057.34 749.587 L2040.34 762.255 L2040.34 755.348 L2053.04 745.895 L2040.34 736.442 L2040.34 729.535 Z" fill="#000000" fill-rule="nonzero" fill-opacity="1" /><path clip-path="url(#clip940)" d="M3022.52 16.7545 L3022.52 25.383 Q3018.39 21.5346 3013.69 19.6307 Q3009.04 17.7268 3003.77 17.7268 Q2993.4 17.7268 2987.89 24.0867 Q2982.38 30.4061 2982.38 42.3968 Q2982.38 54.3469 2987.89 60.7069 Q2993.4 67.0263 3003.77 67.0263 Q3009.04 67.0263 3013.69 65.1223 Q3018.39 63.2184 3022.52 59.3701 L3022.52 67.9175 Q3018.23 70.8341 3013.41 72.2924 Q3008.63 73.7508 3003.28 73.7508 Q2989.55 73.7508 2981.65 65.3654 Q2973.75 56.9395 2973.75 42.3968 Q2973.75 27.8135 2981.65 19.4281 Q2989.55 11.0023 3003.28 11.0023 Q3008.71 11.0023 3013.49 12.4606 Q3018.31 13.8784 3022.52 16.7545 Z" fill="#000000" fill-rule="nonzero" fill-opacity="1" /><path clip-path="url(#clip940)" d="M3034.84 9.54393 L3042.29 9.54393 L3042.29 72.576 L3034.84 72.576 L3034.84 9.54393 Z" fill="#000000" fill-rule="nonzero" fill-opacity="1" /><path clip-path="url(#clip940)" d="M3078.51 49.7694 Q3069.47 49.7694 3065.99 51.8354 Q3062.51 53.9013 3062.51 58.8839 Q3062.51 62.8538 3065.1 65.2034 Q3067.73 67.5124 3072.23 67.5124 Q3078.43 67.5124 3082.15 63.1374 Q3085.92 58.7219 3085.92 51.4303 L3085.92 49.7694 L3078.51 49.7694 M3093.38 46.6907 L3093.38 72.576 L3085.92 72.576 L3085.92 65.6895 Q3083.37 69.8214 3079.56 71.8063 Q3075.75 73.7508 3070.24 73.7508 Q3063.28 73.7508 3059.14 69.8619 Q3055.05 65.9325 3055.05 59.3701 Q3055.05 51.7138 3060.16 47.825 Q3065.3 43.9361 3075.47 43.9361 L3085.92 43.9361 L3085.92 43.2069 Q3085.92 38.0623 3082.52 35.2672 Q3079.16 32.4315 3073.04 32.4315 Q3069.15 32.4315 3065.46 33.3632 Q3061.78 34.295 3058.38 36.1584 L3058.38 29.2718 Q3062.47 27.692 3066.31 26.9223 Q3070.16 26.1121 3073.81 26.1121 Q3083.65 26.1121 3088.51 31.2163 Q3093.38 36.3204 3093.38 46.6907 Z" fill="#000000" fill-rule="nonzero" fill-opacity="1" /><path clip-path="url(#clip940)" d="M3137.65 28.5427 L3137.65 35.5912 Q3134.49 33.9709 3131.09 33.1607 Q3127.69 32.3505 3124.04 32.3505 Q3118.49 32.3505 3115.7 34.0519 Q3112.94 35.7533 3112.94 39.156 Q3112.94 41.7486 3114.93 43.2475 Q3116.91 44.7058 3122.91 46.0426 L3125.46 46.6097 Q3133.4 48.3111 3136.72 51.4303 Q3140.08 54.509 3140.08 60.0587 Q3140.08 66.3781 3135.06 70.0644 Q3130.08 73.7508 3121.33 73.7508 Q3117.68 73.7508 3113.71 73.0216 Q3109.78 72.3329 3105.41 70.9151 L3105.41 63.2184 Q3109.54 65.3654 3113.55 66.4591 Q3117.56 67.5124 3121.49 67.5124 Q3126.75 67.5124 3129.59 65.73 Q3132.43 63.9071 3132.43 60.6258 Q3132.43 57.5877 3130.36 55.9673 Q3128.33 54.3469 3121.41 52.8481 L3118.81 52.2405 Q3111.89 50.7821 3108.81 47.7845 Q3105.73 44.7463 3105.73 39.4801 Q3105.73 33.0797 3110.27 29.5959 Q3114.8 26.1121 3123.15 26.1121 Q3127.28 26.1121 3130.93 26.7198 Q3134.57 27.3274 3137.65 28.5427 Z" fill="#000000" fill-rule="nonzero" fill-opacity="1" /><path clip-path="url(#clip940)" d="M3180.87 28.5427 L3180.87 35.5912 Q3177.71 33.9709 3174.31 33.1607 Q3170.91 32.3505 3167.26 32.3505 Q3161.71 32.3505 3158.92 34.0519 Q3156.16 35.7533 3156.16 39.156 Q3156.16 41.7486 3158.15 43.2475 Q3160.13 44.7058 3166.13 46.0426 L3168.68 46.6097 Q3176.62 48.3111 3179.94 51.4303 Q3183.31 54.509 3183.31 60.0587 Q3183.31 66.3781 3178.28 70.0644 Q3173.3 73.7508 3164.55 73.7508 Q3160.9 73.7508 3156.93 73.0216 Q3153 72.3329 3148.63 70.9151 L3148.63 63.2184 Q3152.76 65.3654 3156.77 66.4591 Q3160.78 67.5124 3164.71 67.5124 Q3169.98 67.5124 3172.81 65.73 Q3175.65 63.9071 3175.65 60.6258 Q3175.65 57.5877 3173.58 55.9673 Q3171.56 54.3469 3164.63 52.8481 L3162.04 52.2405 Q3155.11 50.7821 3152.03 47.7845 Q3148.95 44.7463 3148.95 39.4801 Q3148.95 33.0797 3153.49 29.5959 Q3158.03 26.1121 3166.37 26.1121 Q3170.5 26.1121 3174.15 26.7198 Q3177.8 27.3274 3180.87 28.5427 Z" fill="#000000" fill-rule="nonzero" fill-opacity="1" /><path clip-path="url(#clip940)" d="M3224.02 65.6895 L3237.38 65.6895 L3237.38 19.5497 L3222.84 22.4663 L3222.84 15.0127 L3237.3 12.096 L3245.49 12.096 L3245.49 65.6895 L3258.85 65.6895 L3258.85 72.576 L3224.02 72.576 L3224.02 65.6895 Z" fill="#000000" fill-rule="nonzero" fill-opacity="1" /><path clip-path="url(#clip943)" d="M2327.2 1285.2 L2343.14 1207.13 L2359.08 1348.41 L2375.02 1354.86 L2390.96 1321.83 L2406.9 1328.14 L2422.85 1303.65 L2438.79 1284.2 L2454.73 1276.04 L2470.67 1289.69 L2486.61 1287.39 L2502.55 1290.48 L2518.5 1324.16 L2534.44 1312.26 L2550.38 1325.5 L2566.32 1331.88 L2582.26 1334.69 L2598.2 1354.9 L2614.14 1351.88 L2630.09 1334.66 L2646.03 1343.58 L2661.97 1329.38 L2677.91 1293.81 L2693.85 1287.05 L2709.79 1295.52 L2725.74 1277.17 L2741.68 1286.5 L2757.62 1280.39 L2773.56 1287.56 L2789.5 1305.95 L2805.44 1327.76 L2821.38 1341.41 L2837.33 1324.23 L2853.27 1340.08 L2869.21 1341.04 L2885.15 1322.82 L2901.09 1330.23 L2917.03 1306.84 L2932.98 1307.01 L2948.92 1298.02 L2964.86 1280.05 L2980.8 1274.08 L2996.74 1281.18 L3012.68 1279.6 L3028.62 1286.09 L3044.57 1307.05 L3060.51 1322.41 L3076.45 1323.44 L3092.39 1339.8 L3108.33 1331.06 L3124.27 1323.24 L3140.22 1319.39 L3156.16 1318.43 L3172.1 1337.64 L3188.04 1313.91 L3203.98 1300.7 L3219.92 1272.5 L3235.86 1279.67 L3251.81 1277.55 L3267.75 1264.68 L3283.69 1267.84 L3299.63 1293.26 L3315.57 1294.29 L3331.51 1336.06 L3347.46 1340.87 L3363.4 1349.41 L3379.34 1337.64 L3395.28 1344.02 L3411.22 1331.4 L3427.16 1339.46 L3443.1 1337.13 L3459.05 1347.66 L3474.99 1313.87 L3490.93 1275.28 L3506.87 1280.98 L3522.81 1290.34 L3538.75 1269.07 L3554.7 1285.5 L3570.64 1299.67 L3586.58 1306.19 L3602.52 1330.64 L3618.46 1334.07 L3634.4 1320.35 L3650.34 1356.3 L3666.29 1350.4 L3682.23 1344.88 L3698.17 1339.6 L3714.11 1334.01 L3730.05 1321.35 L3745.99 1320.73 L3761.94 1287.39 L3777.88 1285.4 L3793.82 1282.28 L3809.76 1282.38 L3825.7 1286.29 L3841.64 1306.84 L3857.58 1322.79 L3873.53 1341.52 L3889.47 1331.74 L3905.41 1356.4 L3905.41 285.173 L3889.47 260.511 L3873.53 270.287 L3857.58 251.558 L3841.64 235.608 L3825.7 215.062 L3809.76 211.152 L3793.82 211.049 L3777.88 214.17 L3761.94 216.16 L3745.99 249.5 L3730.05 250.118 L3714.11 262.775 L3698.17 268.366 L3682.23 273.648 L3666.29 279.17 L3650.34 285.07 L3634.4 249.123 L3618.46 262.843 L3602.52 259.413 L3586.58 234.957 L3570.64 228.439 L3554.7 214.273 L3538.75 197.843 L3522.81 219.11 L3506.87 209.745 L3490.93 204.051 L3474.99 242.64 L3459.05 276.426 L3443.1 265.896 L3427.16 268.228 L3411.22 260.168 L3395.28 272.79 L3379.34 266.411 L3363.4 278.176 L3347.46 269.635 L3331.51 264.833 L3315.57 223.054 L3299.63 222.025 L3283.69 196.608 L3267.75 193.452 L3251.81 206.315 L3235.86 208.442 L3219.92 201.273 L3203.98 229.468 L3188.04 242.674 L3172.1 266.411 L3156.16 247.202 L3140.22 248.162 L3124.27 252.004 L3108.33 259.825 L3092.39 268.571 L3076.45 252.21 L3060.51 251.181 L3044.57 235.814 L3028.62 214.856 L3012.68 208.373 L2996.74 209.951 L2980.8 202.851 L2964.86 208.819 L2948.92 226.793 L2932.98 235.78 L2917.03 235.608 L2901.09 259.002 L2885.15 251.593 L2869.21 269.806 L2853.27 268.846 L2837.33 252.999 L2821.38 270.184 L2805.44 256.532 L2789.5 234.716 L2773.56 216.331 L2757.62 209.162 L2741.68 215.268 L2725.74 205.938 L2709.79 224.289 L2693.85 215.817 L2677.91 222.574 L2661.97 258.144 L2646.03 272.345 L2630.09 263.426 L2614.14 280.645 L2598.2 283.664 L2582.26 263.461 L2566.32 260.648 L2550.38 254.268 L2534.44 241.028 L2518.5 252.93 L2502.55 219.247 L2486.61 216.16 L2470.67 218.458 L2454.73 204.806 L2438.79 212.97 L2422.85 232.418 L2406.9 256.909 L2390.96 250.598 L2375.02 283.63 L2359.08 277.181 L2343.14 135.895 L2327.2 213.964  Z" fill="#009af9" fill-rule="evenodd" fill-opacity="0.5"/>
<polyline clip-path="url(#clip943)" style="stroke:#009af9; stroke-linecap:round; stroke-linejoin:round; stroke-width:8; stroke-opacity:1; fill:none" points="2327.2,749.58 2343.14,671.511 2359.08,812.797 2375.02,819.245 2390.96,786.213 2406.9,792.525 2422.85,768.034 2438.79,748.585 2454.73,740.422 2470.67,754.073 2486.61,751.775 2502.55,754.862 2518.5,788.546 2534.44,776.643 2550.38,789.884 2566.32,796.264 2582.26,799.076 2598.2,819.28 2614.14,816.261 2630.09,799.042 2646.03,807.96 2661.97,793.76 2677.91,758.19 2693.85,751.432 2709.79,759.905 2725.74,741.554 2741.68,750.883 2757.62,744.778 2773.56,751.947 2789.5,770.332 2805.44,792.147 2821.38,805.799 2837.33,788.614 2853.27,804.462 2869.21,805.422 2885.15,787.208 2901.09,794.617 2917.03,771.224 2932.98,771.395 2948.92,762.409 2964.86,744.435 2980.8,738.467 2996.74,745.567 3012.68,743.989 3028.62,750.472 3044.57,771.43 3060.51,786.797 3076.45,787.826 3092.39,804.187 3108.33,795.44 3124.27,787.62 3140.22,783.778 3156.16,782.818 3172.1,802.026 3188.04,778.29 3203.98,765.084 3219.92,736.889 3235.86,744.058 3251.81,741.931 3267.75,729.068 3283.69,732.224 3299.63,757.641 3315.57,758.67 3331.51,800.448 3347.46,805.25 3363.4,813.791 3379.34,802.026 3395.28,808.406 3411.22,795.783 3427.16,803.844 3443.1,801.512 3459.05,812.042 3474.99,778.256 3490.93,739.667 3506.87,745.361 3522.81,754.725 3538.75,733.459 3554.7,749.889 3570.64,764.055 3586.58,770.572 3602.52,795.029 3618.46,798.459 3634.4,784.738 3650.34,820.686 3666.29,814.786 3682.23,809.264 3698.17,803.981 3714.11,798.39 3730.05,785.733 3745.99,785.116 3761.94,751.775 3777.88,749.786 3793.82,746.664 3809.76,746.767 3825.7,750.678 3841.64,771.224 3857.58,787.174 3873.53,805.902 3889.47,796.126 3905.41,820.789 "/>
<path clip-path="url(#clip943)" d="M2327.2 1041.06 L2343.14 1042.67 L2359.08 1044.73 L2375.02 1046.73 L2390.96 1048.34 L2406.9 1050.06 L2422.85 1050.74 L2438.79 1050.42 L2454.73 1049.52 L2470.67 1048.01 L2486.61 1046.12 L2502.55 1044.44 L2518.5 1042.04 L2534.44 1040.55 L2550.38 1039.71 L2566.32 1039.52 L2582.26 1040.14 L2598.2 1042.28 L2614.14 1043.81 L2630.09 1045.75 L2646.03 1047.95 L2661.97 1049.57 L2677.91 1050.18 L2693.85 1050.83 L2709.79 1050.53 L2725.74 1048.82 L2741.68 1047.17 L2757.62 1045.23 L2773.56 1042.35 L2789.5 1041.29 L2805.44 1040.13 L2821.38 1039.64 L2837.33 1039.81 L2853.27 1041.01 L2869.21 1042.6 L2885.15 1044.95 L2901.09 1047.06 L2917.03 1048.11 L2932.98 1049.43 L2948.92 1050.51 L2964.86 1050.37 L2980.8 1049.42 L2996.74 1047.97 L3012.68 1045.98 L3028.62 1043.8 L3044.57 1041.7 L3060.51 1040.45 L3076.45 1040.02 L3092.39 1039.72 L3108.33 1040.31 L3124.27 1042.14 L3140.22 1043.56 L3156.16 1045.99 L3172.1 1047.74 L3188.04 1049.46 L3203.98 1050.19 L3219.92 1050.35 L3235.86 1050.35 L3251.81 1048.89 L3267.75 1047.13 L3283.69 1044.63 L3299.63 1042.88 L3315.57 1041.82 L3331.51 1040.78 L3347.46 1039.37 L3363.4 1040.22 L3379.34 1040.6 L3395.28 1042.02 L3411.22 1044.45 L3427.16 1046.46 L3443.1 1048.49 L3459.05 1050.27 L3474.99 1050.55 L3490.93 1050.4 L3506.87 1049.55 L3522.81 1048.47 L3538.75 1046.48 L3554.7 1044.48 L3570.64 1042.17 L3586.58 1040.87 L3602.52 1039.57 L3618.46 1039.51 L3634.4 1039.98 L3650.34 1042.12 L3666.29 1044.27 L3682.23 1046.2 L3698.17 1047.26 L3714.11 1049.45 L3730.05 1050.33 L3745.99 1050.76 L3761.94 1050.23 L3777.88 1048.68 L3793.82 1047.44 L3809.76 1045.24 L3825.7 1042.59 L3841.64 1041.23 L3857.58 1039.9 L3873.53 1039.49 L3889.47 1040.04 L3905.41 1041.62 L3905.41 492.065 L3889.47 490.487 L3873.53 489.943 L3857.58 490.351 L3841.64 491.677 L3825.7 493.034 L3809.76 495.691 L3793.82 497.888 L3777.88 499.133 L3761.94 500.675 L3745.99 501.208 L3730.05 500.779 L3714.11 499.902 L3698.17 497.706 L3682.23 496.652 L3666.29 494.72 L3650.34 492.566 L3634.4 490.426 L3618.46 489.959 L3602.52 490.022 L3586.58 491.316 L3570.64 492.621 L3554.7 494.929 L3538.75 496.928 L3522.81 498.916 L3506.87 500.002 L3490.93 500.852 L3474.99 501.002 L3459.05 500.719 L3443.1 498.939 L3427.16 496.911 L3411.22 494.896 L3395.28 492.47 L3379.34 491.052 L3363.4 490.669 L3347.46 489.816 L3331.51 491.231 L3315.57 492.268 L3299.63 493.328 L3283.69 495.08 L3267.75 497.576 L3251.81 499.338 L3235.86 500.801 L3219.92 500.802 L3203.98 500.64 L3188.04 499.911 L3172.1 498.186 L3156.16 496.44 L3140.22 494.006 L3124.27 492.592 L3108.33 490.758 L3092.39 490.167 L3076.45 490.469 L3060.51 490.898 L3044.57 492.148 L3028.62 494.247 L3012.68 496.425 L2996.74 498.422 L2980.8 499.865 L2964.86 500.82 L2948.92 500.961 L2932.98 499.875 L2917.03 498.558 L2901.09 497.504 L2885.15 495.394 L2869.21 493.053 L2853.27 491.456 L2837.33 490.262 L2821.38 490.087 L2805.44 490.575 L2789.5 491.741 L2773.56 492.802 L2757.62 495.674 L2741.68 497.617 L2725.74 499.268 L2709.79 500.981 L2693.85 501.275 L2677.91 500.633 L2661.97 500.016 L2646.03 498.401 L2630.09 496.193 L2614.14 494.26 L2598.2 492.728 L2582.26 490.587 L2566.32 489.968 L2550.38 490.158 L2534.44 491.001 L2518.5 492.49 L2502.55 494.89 L2486.61 496.568 L2470.67 498.454 L2454.73 499.972 L2438.79 500.872 L2422.85 501.193 L2406.9 500.508 L2390.96 498.79 L2375.02 497.178 L2359.08 495.18 L2343.14 493.114 L2327.2 491.508  Z" fill="#e26f46" fill-rule="evenodd" fill-opacity="0.5"/>
<polyline clip-path="url(#clip943)" style="stroke:#e26f46; stroke-linecap:round; stroke-linejoin:round; stroke-width:8; stroke-opacity:1; fill:none" points="2327.2,766.284 2343.14,767.89 2359.08,769.956 2375.02,771.954 2390.96,773.566 2406.9,775.284 2422.85,775.969 2438.79,775.648 2454.73,774.748 2470.67,773.23 2486.61,771.343 2502.55,769.666 2518.5,767.265 2534.44,765.777 2550.38,764.934 2566.32,764.743 2582.26,765.363 2598.2,767.504 2614.14,769.036 2630.09,770.969 2646.03,773.177 2661.97,774.791 2677.91,775.409 2693.85,776.05 2709.79,775.756 2725.74,774.044 2741.68,772.393 2757.62,770.45 2773.56,767.578 2789.5,766.517 2805.44,765.351 2821.38,764.862 2837.33,765.038 2853.27,766.232 2869.21,767.828 2885.15,770.169 2901.09,772.28 2917.03,773.334 2932.98,774.651 2948.92,775.736 2964.86,775.596 2980.8,774.641 2996.74,773.198 3012.68,771.2 3028.62,769.023 3044.57,766.924 3060.51,765.674 3076.45,765.244 3092.39,764.943 3108.33,765.533 3124.27,767.368 3140.22,768.781 3156.16,771.216 3172.1,772.962 3188.04,774.686 3203.98,775.415 3219.92,775.578 3235.86,775.577 3251.81,774.113 3267.75,772.351 3283.69,769.855 3299.63,768.104 3315.57,767.044 3331.51,766.007 3347.46,764.592 3363.4,765.444 3379.34,765.828 3395.28,767.246 3411.22,769.672 3427.16,771.687 3443.1,773.715 3459.05,775.495 3474.99,775.778 3490.93,775.628 3506.87,774.778 3522.81,773.692 3538.75,771.704 3554.7,769.705 3570.64,767.397 3586.58,766.092 3602.52,764.797 3618.46,764.735 3634.4,765.202 3650.34,767.342 3666.29,769.496 3682.23,771.428 3698.17,772.482 3714.11,774.678 3730.05,775.555 3745.99,775.984 3761.94,775.451 3777.88,773.909 3793.82,772.664 3809.76,770.467 3825.7,767.81 3841.64,766.453 3857.58,765.126 3873.53,764.718 3889.47,765.263 3905.41,766.841 "/>
<path clip-path="url(#clip940)" d="M3450.21 297.925 L3896.99 297.925 L3896.99 142.405 L3450.21 142.405  Z" fill="#ffffff" fill-rule="evenodd" fill-opacity="1"/>
<polyline clip-path="url(#clip940)" style="stroke:#000000; stroke-linecap:round; stroke-linejoin:round; stroke-width:4; stroke-opacity:1; fill:none" points="3450.21,297.925 3896.99,297.925 3896.99,142.405 3450.21,142.405 3450.21,297.925 "/>
<polyline clip-path="url(#clip940)" style="stroke:#009af9; stroke-linecap:round; stroke-linejoin:round; stroke-width:8; stroke-opacity:1; fill:none" points="3468.8,194.245 3580.33,194.245 "/>
<path clip-path="url(#clip940)" d="M3598.92 176.965 L3605.88 176.965 L3614.7 200.483 L3623.57 176.965 L3630.54 176.965 L3630.54 211.525 L3625.98 211.525 L3625.98 181.178 L3617.06 204.881 L3612.36 204.881 L3603.45 181.178 L3603.45 211.525 L3598.92 211.525 L3598.92 176.965 Z" fill="#000000" fill-rule="nonzero" fill-opacity="1" /><path clip-path="url(#clip940)" d="M3644.49 180.807 L3644.49 193.793 L3650.37 193.793 Q3653.64 193.793 3655.42 192.104 Q3657.2 190.414 3657.2 187.289 Q3657.2 184.187 3655.42 182.497 Q3653.64 180.807 3650.37 180.807 L3644.49 180.807 M3639.82 176.965 L3650.37 176.965 Q3656.18 176.965 3659.15 179.604 Q3662.13 182.219 3662.13 187.289 Q3662.13 192.405 3659.15 195.02 Q3656.18 197.636 3650.37 197.636 L3644.49 197.636 L3644.49 211.525 L3639.82 211.525 L3639.82 176.965 Z" fill="#000000" fill-rule="nonzero" fill-opacity="1" /><path clip-path="url(#clip940)" d="M3689.12 178.099 L3689.12 182.659 Q3686.46 181.386 3684.1 180.761 Q3681.74 180.136 3679.54 180.136 Q3675.72 180.136 3673.64 181.618 Q3671.58 183.099 3671.58 185.83 Q3671.58 188.122 3672.94 189.303 Q3674.33 190.46 3678.17 191.178 L3681 191.756 Q3686.23 192.752 3688.71 195.275 Q3691.21 197.775 3691.21 201.988 Q3691.21 207.011 3687.83 209.603 Q3684.47 212.196 3677.97 212.196 Q3675.51 212.196 3672.73 211.641 Q3669.98 211.085 3667.02 209.997 L3667.02 205.182 Q3669.86 206.779 3672.6 207.59 Q3675.33 208.4 3677.97 208.4 Q3681.97 208.4 3684.15 206.826 Q3686.32 205.252 3686.32 202.335 Q3686.32 199.789 3684.75 198.354 Q3683.2 196.918 3679.63 196.201 L3676.79 195.645 Q3671.55 194.604 3669.22 192.381 Q3666.88 190.159 3666.88 186.201 Q3666.88 181.618 3670.1 178.979 Q3673.34 176.34 3679.01 176.34 Q3681.44 176.34 3683.96 176.78 Q3686.48 177.219 3689.12 178.099 Z" fill="#000000" fill-rule="nonzero" fill-opacity="1" /><path clip-path="url(#clip940)" d="M3699.4 205.645 L3704.29 205.645 L3704.29 209.627 L3700.49 217.034 L3697.5 217.034 L3699.4 209.627 L3699.4 205.645 Z" fill="#000000" fill-rule="nonzero" fill-opacity="1" /><path clip-path="url(#clip940)" d="M3740.93 217.312 L3737.48 208.446 L3730.37 221.409 L3725.35 221.409 L3735.4 203.076 L3731.18 192.173 Q3730.05 189.256 3726.48 189.256 L3725.35 189.256 L3725.35 185.599 L3726.97 185.645 Q3732.94 185.807 3734.45 189.673 L3737.87 198.539 L3744.98 185.576 L3750 185.576 L3739.96 203.909 L3744.17 214.812 Q3745.3 217.728 3748.87 217.728 L3750 217.728 L3750 221.386 L3748.38 221.34 Q3742.41 221.178 3740.93 217.312 Z" fill="#000000" fill-rule="nonzero" fill-opacity="1" /><path clip-path="url(#clip940)" d="M3771.46 189.997 L3801.14 189.997 L3801.14 193.886 L3771.46 193.886 L3771.46 189.997 M3771.46 199.442 L3801.14 199.442 L3801.14 203.377 L3771.46 203.377 L3771.46 199.442 Z" fill="#000000" fill-rule="nonzero" fill-opacity="1" /><path clip-path="url(#clip940)" d="M3830.33 207.59 L3846.65 207.59 L3846.65 211.525 L3824.7 211.525 L3824.7 207.59 Q3827.36 204.835 3831.95 200.205 Q3836.55 195.553 3837.73 194.21 Q3839.98 191.687 3840.86 189.951 Q3841.76 188.192 3841.76 186.502 Q3841.76 183.747 3839.82 182.011 Q3837.9 180.275 3834.79 180.275 Q3832.59 180.275 3830.14 181.039 Q3827.71 181.803 3824.93 183.354 L3824.93 178.631 Q3827.76 177.497 3830.21 176.918 Q3832.66 176.34 3834.7 176.34 Q3840.07 176.34 3843.27 179.025 Q3846.46 181.71 3846.46 186.201 Q3846.46 188.33 3845.65 190.252 Q3844.86 192.15 3842.76 194.742 Q3842.18 195.414 3839.08 198.631 Q3835.97 201.826 3830.33 207.59 Z" fill="#000000" fill-rule="nonzero" fill-opacity="1" /><path clip-path="url(#clip940)" d="M3866.46 180.043 Q3862.85 180.043 3861.02 183.608 Q3859.21 187.15 3859.21 194.28 Q3859.21 201.386 3861.02 204.951 Q3862.85 208.492 3866.46 208.492 Q3870.09 208.492 3871.9 204.951 Q3873.73 201.386 3873.73 194.28 Q3873.73 187.15 3871.9 183.608 Q3870.09 180.043 3866.46 180.043 M3866.46 176.34 Q3872.27 176.34 3875.33 180.946 Q3878.4 185.53 3878.4 194.28 Q3878.4 203.006 3875.33 207.613 Q3872.27 212.196 3866.46 212.196 Q3860.65 212.196 3857.57 207.613 Q3854.52 203.006 3854.52 194.28 Q3854.52 185.53 3857.57 180.946 Q3860.65 176.34 3866.46 176.34 Z" fill="#000000" fill-rule="nonzero" fill-opacity="1" /><polyline clip-path="url(#clip940)" style="stroke:#e26f46; stroke-linecap:round; stroke-linejoin:round; stroke-width:8; stroke-opacity:1; fill:none" points="3468.8,246.085 3580.33,246.085 "/>
<path clip-path="url(#clip940)" d="M3598.92 228.805 L3620.77 228.805 L3620.77 232.74 L3603.59 232.74 L3603.59 242.971 L3620.05 242.971 L3620.05 246.907 L3603.59 246.907 L3603.59 259.43 L3621.18 259.43 L3621.18 263.365 L3598.92 263.365 L3598.92 228.805 Z" fill="#000000" fill-rule="nonzero" fill-opacity="1" /><path clip-path="url(#clip940)" d="M3648.87 242.416 Q3650.47 239.545 3652.69 238.18 Q3654.91 236.814 3657.92 236.814 Q3661.97 236.814 3664.17 239.661 Q3666.37 242.485 3666.37 247.717 L3666.37 263.365 L3662.09 263.365 L3662.09 247.856 Q3662.09 244.129 3660.77 242.323 Q3659.45 240.518 3656.74 240.518 Q3653.43 240.518 3651.51 242.717 Q3649.59 244.916 3649.59 248.712 L3649.59 263.365 L3645.3 263.365 L3645.3 247.856 Q3645.3 244.106 3643.98 242.323 Q3642.67 240.518 3639.91 240.518 Q3636.65 240.518 3634.73 242.74 Q3632.8 244.939 3632.8 248.712 L3632.8 263.365 L3628.52 263.365 L3628.52 237.439 L3632.8 237.439 L3632.8 241.467 Q3634.26 239.083 3636.3 237.948 Q3638.34 236.814 3641.14 236.814 Q3643.96 236.814 3645.93 238.249 Q3647.92 239.684 3648.87 242.416 Z" fill="#000000" fill-rule="nonzero" fill-opacity="1" /><path clip-path="url(#clip940)" d="M3678.98 259.476 L3678.98 273.226 L3674.7 273.226 L3674.7 237.439 L3678.98 237.439 L3678.98 241.374 Q3680.33 239.059 3682.36 237.948 Q3684.42 236.814 3687.27 236.814 Q3691.99 236.814 3694.93 240.564 Q3697.9 244.314 3697.9 250.425 Q3697.9 256.536 3694.93 260.286 Q3691.99 264.036 3687.27 264.036 Q3684.42 264.036 3682.36 262.925 Q3680.33 261.791 3678.98 259.476 M3693.47 250.425 Q3693.47 245.726 3691.53 243.064 Q3689.61 240.379 3686.23 240.379 Q3682.85 240.379 3680.91 243.064 Q3678.98 245.726 3678.98 250.425 Q3678.98 255.124 3680.91 257.809 Q3682.85 260.471 3686.23 260.471 Q3689.61 260.471 3691.53 257.809 Q3693.47 255.124 3693.47 250.425 Z" fill="#000000" fill-rule="nonzero" fill-opacity="1" /><path clip-path="url(#clip940)" d="M3704.96 237.439 L3709.22 237.439 L3709.22 263.365 L3704.96 263.365 L3704.96 237.439 M3704.96 227.346 L3709.22 227.346 L3709.22 232.74 L3704.96 232.74 L3704.96 227.346 Z" fill="#000000" fill-rule="nonzero" fill-opacity="1" /><path clip-path="url(#clip940)" d="M3733.15 241.42 Q3732.43 241.004 3731.58 240.819 Q3730.74 240.61 3729.72 240.61 Q3726.11 240.61 3724.17 242.971 Q3722.25 245.309 3722.25 249.707 L3722.25 263.365 L3717.97 263.365 L3717.97 237.439 L3722.25 237.439 L3722.25 241.467 Q3723.59 239.106 3725.74 237.971 Q3727.9 236.814 3730.97 236.814 Q3731.41 236.814 3731.95 236.883 Q3732.48 236.93 3733.13 237.045 L3733.15 241.42 Z" fill="#000000" fill-rule="nonzero" fill-opacity="1" /><path clip-path="url(#clip940)" d="M3737.62 237.439 L3741.88 237.439 L3741.88 263.365 L3737.62 263.365 L3737.62 237.439 M3737.62 227.346 L3741.88 227.346 L3741.88 232.74 L3737.62 232.74 L3737.62 227.346 Z" fill="#000000" fill-rule="nonzero" fill-opacity="1" /><path clip-path="url(#clip940)" d="M3769.45 238.434 L3769.45 242.416 Q3767.64 241.42 3765.81 240.934 Q3764.01 240.425 3762.16 240.425 Q3758.01 240.425 3755.72 243.064 Q3753.43 245.68 3753.43 250.425 Q3753.43 255.17 3755.72 257.809 Q3758.01 260.425 3762.16 260.425 Q3764.01 260.425 3765.81 259.939 Q3767.64 259.43 3769.45 258.434 L3769.45 262.369 Q3767.66 263.203 3765.74 263.619 Q3763.84 264.036 3761.69 264.036 Q3755.84 264.036 3752.39 260.356 Q3748.94 256.675 3748.94 250.425 Q3748.94 244.082 3752.41 240.448 Q3755.91 236.814 3761.97 236.814 Q3763.94 236.814 3765.81 237.231 Q3767.69 237.624 3769.45 238.434 Z" fill="#000000" fill-rule="nonzero" fill-opacity="1" /><path clip-path="url(#clip940)" d="M3788.64 250.332 Q3783.47 250.332 3781.48 251.513 Q3779.49 252.694 3779.49 255.541 Q3779.49 257.809 3780.97 259.152 Q3782.48 260.471 3785.05 260.471 Q3788.59 260.471 3790.72 257.971 Q3792.87 255.448 3792.87 251.282 L3792.87 250.332 L3788.64 250.332 M3797.13 248.573 L3797.13 263.365 L3792.87 263.365 L3792.87 259.43 Q3791.41 261.791 3789.24 262.925 Q3787.06 264.036 3783.91 264.036 Q3779.93 264.036 3777.57 261.814 Q3775.23 259.569 3775.23 255.819 Q3775.23 251.444 3778.15 249.221 Q3781.09 246.999 3786.9 246.999 L3792.87 246.999 L3792.87 246.582 Q3792.87 243.643 3790.93 242.045 Q3789.01 240.425 3785.51 240.425 Q3783.29 240.425 3781.18 240.957 Q3779.08 241.49 3777.13 242.555 L3777.13 238.62 Q3779.47 237.717 3781.67 237.277 Q3783.87 236.814 3785.95 236.814 Q3791.58 236.814 3794.35 239.731 Q3797.13 242.647 3797.13 248.573 Z" fill="#000000" fill-rule="nonzero" fill-opacity="1" /><path clip-path="url(#clip940)" d="M3805.9 227.346 L3810.16 227.346 L3810.16 263.365 L3805.9 263.365 L3805.9 227.346 Z" fill="#000000" fill-rule="nonzero" fill-opacity="1" /></svg>
