<?xml version="1.0" encoding="utf-8"?>
<svg xmlns="http://www.w3.org/2000/svg" xmlns:xlink="http://www.w3.org/1999/xlink" width="600" height="400" viewBox="0 0 2400 1600">
<defs>
  <clipPath id="clip890">
    <rect x="0" y="0" width="2400" height="1600"/>
  </clipPath>
</defs>
<path clip-path="url(#clip890)" d="M0 1600 L2400 1600 L2400 8.88178e-14 L0 8.88178e-14  Z" fill="#ffffff" fill-rule="evenodd" fill-opacity="1"/>
<defs>
  <clipPath id="clip891">
    <rect x="480" y="0" width="1681" height="1600"/>
  </clipPath>
</defs>
<path clip-path="url(#clip890)" d="M219.866 1486.45 L2352.76 1486.45 L2352.76 123.472 L219.866 123.472  Z" fill="#ffffff" fill-rule="evenodd" fill-opacity="1"/>
<defs>
  <clipPath id="clip892">
    <rect x="219" y="123" width="2134" height="1364"/>
  </clipPath>
</defs>
<polyline clip-path="url(#clip892)" style="stroke:#000000; stroke-linecap:round; stroke-linejoin:round; stroke-width:2; stroke-opacity:0.1; fill:none" points="727.378,1486.45 727.378,123.472 "/>
<polyline clip-path="url(#clip892)" style="stroke:#000000; stroke-linecap:round; stroke-linejoin:round; stroke-width:2; stroke-opacity:0.1; fill:none" points="1845.24,1486.45 1845.24,123.472 "/>
<polyline clip-path="url(#clip890)" style="stroke:#000000; stroke-linecap:round; stroke-linejoin:round; stroke-width:4; stroke-opacity:1; fill:none" points="219.866,1486.45 2352.76,1486.45 "/>
<polyline clip-path="url(#clip890)" style="stroke:#000000; stroke-linecap:round; stroke-linejoin:round; stroke-width:4; stroke-opacity:1; fill:none" points="727.378,1486.45 727.378,1467.55 "/>
<polyline clip-path="url(#clip890)" style="stroke:#000000; stroke-linecap:round; stroke-linejoin:round; stroke-width:4; stroke-opacity:1; fill:none" points="1845.24,1486.45 1845.24,1467.55 "/>
<path clip-path="url(#clip890)" d="M673.177 1516.95 L673.177 1521.88 Q670.816 1519.68 668.13 1518.59 Q665.468 1517.51 662.459 1517.51 Q656.533 1517.51 653.385 1521.14 Q650.237 1524.75 650.237 1531.6 Q650.237 1538.43 653.385 1542.07 Q656.533 1545.68 662.459 1545.68 Q665.468 1545.68 668.13 1544.59 Q670.816 1543.5 673.177 1541.3 L673.177 1546.19 Q670.723 1547.85 667.968 1548.69 Q665.237 1549.52 662.181 1549.52 Q654.334 1549.52 649.82 1544.73 Q645.306 1539.91 645.306 1531.6 Q645.306 1523.27 649.82 1518.48 Q654.334 1513.66 662.181 1513.66 Q665.283 1513.66 668.015 1514.5 Q670.769 1515.31 673.177 1516.95 Z" fill="#000000" fill-rule="nonzero" fill-opacity="1" /><path clip-path="url(#clip890)" d="M680.214 1512.83 L684.473 1512.83 L684.473 1548.85 L680.214 1548.85 L680.214 1512.83 Z" fill="#000000" fill-rule="nonzero" fill-opacity="1" /><path clip-path="url(#clip890)" d="M705.167 1535.82 Q700.005 1535.82 698.014 1537 Q696.024 1538.18 696.024 1541.02 Q696.024 1543.29 697.505 1544.63 Q699.01 1545.95 701.579 1545.95 Q705.121 1545.95 707.251 1543.45 Q709.403 1540.93 709.403 1536.76 L709.403 1535.82 L705.167 1535.82 M713.663 1534.06 L713.663 1548.85 L709.403 1548.85 L709.403 1544.91 Q707.945 1547.27 705.769 1548.41 Q703.593 1549.52 700.445 1549.52 Q696.464 1549.52 694.102 1547.3 Q691.765 1545.05 691.765 1541.3 Q691.765 1536.93 694.681 1534.7 Q697.621 1532.48 703.431 1532.48 L709.403 1532.48 L709.403 1532.07 Q709.403 1529.13 707.459 1527.53 Q705.538 1525.91 702.042 1525.91 Q699.82 1525.91 697.714 1526.44 Q695.607 1526.97 693.663 1528.04 L693.663 1524.1 Q696.001 1523.2 698.2 1522.76 Q700.399 1522.3 702.482 1522.3 Q708.107 1522.3 710.885 1525.21 Q713.663 1528.13 713.663 1534.06 Z" fill="#000000" fill-rule="nonzero" fill-opacity="1" /><path clip-path="url(#clip890)" d="M738.963 1523.69 L738.963 1527.71 Q737.158 1526.79 735.213 1526.32 Q733.269 1525.86 731.186 1525.86 Q728.014 1525.86 726.417 1526.83 Q724.843 1527.81 724.843 1529.75 Q724.843 1531.23 725.977 1532.09 Q727.112 1532.92 730.537 1533.69 L731.996 1534.01 Q736.533 1534.98 738.431 1536.76 Q740.352 1538.52 740.352 1541.7 Q740.352 1545.31 737.482 1547.41 Q734.635 1549.52 729.635 1549.52 Q727.551 1549.52 725.283 1549.1 Q723.037 1548.71 720.538 1547.9 L720.538 1543.5 Q722.899 1544.73 725.19 1545.35 Q727.482 1545.95 729.727 1545.95 Q732.737 1545.95 734.357 1544.94 Q735.977 1543.89 735.977 1542.02 Q735.977 1540.28 734.797 1539.36 Q733.639 1538.43 729.681 1537.57 L728.199 1537.23 Q724.241 1536.39 722.482 1534.68 Q720.723 1532.95 720.723 1529.94 Q720.723 1526.28 723.315 1524.29 Q725.908 1522.3 730.676 1522.3 Q733.037 1522.3 735.121 1522.64 Q737.204 1522.99 738.963 1523.69 Z" fill="#000000" fill-rule="nonzero" fill-opacity="1" /><path clip-path="url(#clip890)" d="M763.662 1523.69 L763.662 1527.71 Q761.857 1526.79 759.912 1526.32 Q757.968 1525.86 755.885 1525.86 Q752.713 1525.86 751.116 1526.83 Q749.542 1527.81 749.542 1529.75 Q749.542 1531.23 750.676 1532.09 Q751.81 1532.92 755.236 1533.69 L756.695 1534.01 Q761.232 1534.98 763.13 1536.76 Q765.051 1538.52 765.051 1541.7 Q765.051 1545.31 762.181 1547.41 Q759.334 1549.52 754.334 1549.52 Q752.25 1549.52 749.982 1549.1 Q747.736 1548.71 745.236 1547.9 L745.236 1543.5 Q747.598 1544.73 749.889 1545.35 Q752.181 1545.95 754.426 1545.95 Q757.435 1545.95 759.056 1544.94 Q760.676 1543.89 760.676 1542.02 Q760.676 1540.28 759.496 1539.36 Q758.338 1538.43 754.38 1537.57 L752.898 1537.23 Q748.94 1536.39 747.181 1534.68 Q745.422 1532.95 745.422 1529.94 Q745.422 1526.28 748.014 1524.29 Q750.607 1522.3 755.375 1522.3 Q757.736 1522.3 759.82 1522.64 Q761.903 1522.99 763.662 1523.69 Z" fill="#000000" fill-rule="nonzero" fill-opacity="1" /><path clip-path="url(#clip890)" d="M797.505 1517.37 Q793.894 1517.37 792.065 1520.93 Q790.259 1524.47 790.259 1531.6 Q790.259 1538.71 792.065 1542.27 Q793.894 1545.82 797.505 1545.82 Q801.139 1545.82 802.944 1542.27 Q804.773 1538.71 804.773 1531.6 Q804.773 1524.47 802.944 1520.93 Q801.139 1517.37 797.505 1517.37 M797.505 1513.66 Q803.315 1513.66 806.37 1518.27 Q809.449 1522.85 809.449 1531.6 Q809.449 1540.33 806.37 1544.94 Q803.315 1549.52 797.505 1549.52 Q791.695 1549.52 788.616 1544.94 Q785.56 1540.33 785.56 1531.6 Q785.56 1522.85 788.616 1518.27 Q791.695 1513.66 797.505 1513.66 Z" fill="#000000" fill-rule="nonzero" fill-opacity="1" /><path clip-path="url(#clip890)" d="M1791.66 1516.95 L1791.66 1521.88 Q1789.3 1519.68 1786.61 1518.59 Q1783.95 1517.51 1780.94 1517.51 Q1775.01 1517.51 1771.87 1521.14 Q1768.72 1524.75 1768.72 1531.6 Q1768.72 1538.43 1771.87 1542.07 Q1775.01 1545.68 1780.94 1545.68 Q1783.95 1545.68 1786.61 1544.59 Q1789.3 1543.5 1791.66 1541.3 L1791.66 1546.19 Q1789.2 1547.85 1786.45 1548.69 Q1783.72 1549.52 1780.66 1549.52 Q1772.81 1549.52 1768.3 1544.73 Q1763.79 1539.91 1763.79 1531.6 Q1763.79 1523.27 1768.3 1518.48 Q1772.81 1513.66 1780.66 1513.66 Q1783.76 1513.66 1786.49 1514.5 Q1789.25 1515.31 1791.66 1516.95 Z" fill="#000000" fill-rule="nonzero" fill-opacity="1" /><path clip-path="url(#clip890)" d="M1798.69 1512.83 L1802.95 1512.83 L1802.95 1548.85 L1798.69 1548.85 L1798.69 1512.83 Z" fill="#000000" fill-rule="nonzero" fill-opacity="1" /><path clip-path="url(#clip890)" d="M1823.65 1535.82 Q1818.49 1535.82 1816.49 1537 Q1814.5 1538.18 1814.5 1541.02 Q1814.5 1543.29 1815.99 1544.63 Q1817.49 1545.95 1820.06 1545.95 Q1823.6 1545.95 1825.73 1543.45 Q1827.88 1540.93 1827.88 1536.76 L1827.88 1535.82 L1823.65 1535.82 M1832.14 1534.06 L1832.14 1548.85 L1827.88 1548.85 L1827.88 1544.91 Q1826.43 1547.27 1824.25 1548.41 Q1822.07 1549.52 1818.93 1549.52 Q1814.94 1549.52 1812.58 1547.3 Q1810.24 1545.05 1810.24 1541.3 Q1810.24 1536.93 1813.16 1534.7 Q1816.1 1532.48 1821.91 1532.48 L1827.88 1532.48 L1827.88 1532.07 Q1827.88 1529.13 1825.94 1527.53 Q1824.02 1525.91 1820.52 1525.91 Q1818.3 1525.91 1816.19 1526.44 Q1814.09 1526.97 1812.14 1528.04 L1812.14 1524.1 Q1814.48 1523.2 1816.68 1522.76 Q1818.88 1522.3 1820.96 1522.3 Q1826.59 1522.3 1829.36 1525.21 Q1832.14 1528.13 1832.14 1534.06 Z" fill="#000000" fill-rule="nonzero" fill-opacity="1" /><path clip-path="url(#clip890)" d="M1857.44 1523.69 L1857.44 1527.71 Q1855.64 1526.79 1853.69 1526.32 Q1851.75 1525.86 1849.67 1525.86 Q1846.49 1525.86 1844.9 1526.83 Q1843.32 1527.81 1843.32 1529.75 Q1843.32 1531.23 1844.46 1532.09 Q1845.59 1532.92 1849.02 1533.69 L1850.48 1534.01 Q1855.01 1534.98 1856.91 1536.76 Q1858.83 1538.52 1858.83 1541.7 Q1858.83 1545.31 1855.96 1547.41 Q1853.11 1549.52 1848.11 1549.52 Q1846.03 1549.52 1843.76 1549.1 Q1841.52 1548.71 1839.02 1547.9 L1839.02 1543.5 Q1841.38 1544.73 1843.67 1545.35 Q1845.96 1545.95 1848.21 1545.95 Q1851.22 1545.95 1852.84 1544.94 Q1854.46 1543.89 1854.46 1542.02 Q1854.46 1540.28 1853.28 1539.36 Q1852.12 1538.43 1848.16 1537.57 L1846.68 1537.23 Q1842.72 1536.39 1840.96 1534.68 Q1839.2 1532.95 1839.2 1529.94 Q1839.2 1526.28 1841.8 1524.29 Q1844.39 1522.3 1849.16 1522.3 Q1851.52 1522.3 1853.6 1522.64 Q1855.68 1522.99 1857.44 1523.69 Z" fill="#000000" fill-rule="nonzero" fill-opacity="1" /><path clip-path="url(#clip890)" d="M1882.14 1523.69 L1882.14 1527.71 Q1880.34 1526.79 1878.39 1526.32 Q1876.45 1525.86 1874.36 1525.86 Q1871.19 1525.86 1869.6 1526.83 Q1868.02 1527.81 1868.02 1529.75 Q1868.02 1531.23 1869.16 1532.09 Q1870.29 1532.92 1873.72 1533.69 L1875.17 1534.01 Q1879.71 1534.98 1881.61 1536.76 Q1883.53 1538.52 1883.53 1541.7 Q1883.53 1545.31 1880.66 1547.41 Q1877.81 1549.52 1872.81 1549.52 Q1870.73 1549.52 1868.46 1549.1 Q1866.22 1548.71 1863.72 1547.9 L1863.72 1543.5 Q1866.08 1544.73 1868.37 1545.35 Q1870.66 1545.95 1872.91 1545.95 Q1875.92 1545.95 1877.54 1544.94 Q1879.16 1543.89 1879.16 1542.02 Q1879.16 1540.28 1877.98 1539.36 Q1876.82 1538.43 1872.86 1537.57 L1871.38 1537.23 Q1867.42 1536.39 1865.66 1534.68 Q1863.9 1532.95 1863.9 1529.94 Q1863.9 1526.28 1866.49 1524.29 Q1869.09 1522.3 1873.86 1522.3 Q1876.22 1522.3 1878.3 1522.64 Q1880.38 1522.99 1882.14 1523.69 Z" fill="#000000" fill-rule="nonzero" fill-opacity="1" /><path clip-path="url(#clip890)" d="M1906.8 1544.91 L1914.43 1544.91 L1914.43 1518.55 L1906.12 1520.21 L1906.12 1515.95 L1914.39 1514.29 L1919.06 1514.29 L1919.06 1544.91 L1926.7 1544.91 L1926.7 1548.85 L1906.8 1548.85 L1906.8 1544.91 Z" fill="#000000" fill-rule="nonzero" fill-opacity="1" /><polyline clip-path="url(#clip892)" style="stroke:#000000; stroke-linecap:round; stroke-linejoin:round; stroke-width:2; stroke-opacity:0.1; fill:none" points="219.866,1273.64 2352.76,1273.64 "/>
<polyline clip-path="url(#clip892)" style="stroke:#000000; stroke-linecap:round; stroke-linejoin:round; stroke-width:2; stroke-opacity:0.1; fill:none" points="219.866,983.345 2352.76,983.345 "/>
<polyline clip-path="url(#clip892)" style="stroke:#000000; stroke-linecap:round; stroke-linejoin:round; stroke-width:2; stroke-opacity:0.1; fill:none" points="219.866,693.05 2352.76,693.05 "/>
<polyline clip-path="url(#clip892)" style="stroke:#000000; stroke-linecap:round; stroke-linejoin:round; stroke-width:2; stroke-opacity:0.1; fill:none" points="219.866,402.754 2352.76,402.754 "/>
<polyline clip-path="url(#clip890)" style="stroke:#000000; stroke-linecap:round; stroke-linejoin:round; stroke-width:4; stroke-opacity:1; fill:none" points="219.866,1486.45 219.866,123.472 "/>
<polyline clip-path="url(#clip890)" style="stroke:#000000; stroke-linecap:round; stroke-linejoin:round; stroke-width:4; stroke-opacity:1; fill:none" points="219.866,1273.64 238.764,1273.64 "/>
<polyline clip-path="url(#clip890)" style="stroke:#000000; stroke-linecap:round; stroke-linejoin:round; stroke-width:4; stroke-opacity:1; fill:none" points="219.866,983.345 238.764,983.345 "/>
<polyline clip-path="url(#clip890)" style="stroke:#000000; stroke-linecap:round; stroke-linejoin:round; stroke-width:4; stroke-opacity:1; fill:none" points="219.866,693.05 238.764,693.05 "/>
<polyline clip-path="url(#clip890)" style="stroke:#000000; stroke-linecap:round; stroke-linejoin:round; stroke-width:4; stroke-opacity:1; fill:none" points="219.866,402.754 238.764,402.754 "/>
<path clip-path="url(#clip890)" d="M128.288 1259.44 Q124.677 1259.44 122.848 1263 Q121.043 1266.54 121.043 1273.67 Q121.043 1280.78 122.848 1284.35 Q124.677 1287.89 128.288 1287.89 Q131.922 1287.89 133.728 1284.35 Q135.556 1280.78 135.556 1273.67 Q135.556 1266.54 133.728 1263 Q131.922 1259.44 128.288 1259.44 M128.288 1255.73 Q134.098 1255.73 137.154 1260.34 Q140.232 1264.92 140.232 1273.67 Q140.232 1282.4 137.154 1287.01 Q134.098 1291.59 128.288 1291.59 Q122.478 1291.59 119.399 1287.01 Q116.343 1282.4 116.343 1273.67 Q116.343 1264.92 119.399 1260.34 Q122.478 1255.73 128.288 1255.73 Z" fill="#000000" fill-rule="nonzero" fill-opacity="1" /><path clip-path="url(#clip890)" d="M148.45 1285.04 L153.334 1285.04 L153.334 1290.92 L148.45 1290.92 L148.45 1285.04 Z" fill="#000000" fill-rule="nonzero" fill-opacity="1" /><path clip-path="url(#clip890)" d="M167.547 1286.98 L183.866 1286.98 L183.866 1290.92 L161.922 1290.92 L161.922 1286.98 Q164.584 1284.23 169.167 1279.6 Q173.774 1274.95 174.954 1273.6 Q177.2 1271.08 178.079 1269.35 Q178.982 1267.59 178.982 1265.9 Q178.982 1263.14 177.038 1261.41 Q175.116 1259.67 172.014 1259.67 Q169.815 1259.67 167.362 1260.43 Q164.931 1261.2 162.153 1262.75 L162.153 1258.03 Q164.977 1256.89 167.431 1256.31 Q169.885 1255.73 171.922 1255.73 Q177.292 1255.73 180.487 1258.42 Q183.681 1261.1 183.681 1265.6 Q183.681 1267.73 182.871 1269.65 Q182.084 1271.54 179.977 1274.14 Q179.399 1274.81 176.297 1278.03 Q173.195 1281.22 167.547 1286.98 Z" fill="#000000" fill-rule="nonzero" fill-opacity="1" /><path clip-path="url(#clip890)" d="M126.205 969.143 Q122.593 969.143 120.765 972.708 Q118.959 976.25 118.959 983.379 Q118.959 990.486 120.765 994.05 Q122.593 997.592 126.205 997.592 Q129.839 997.592 131.644 994.05 Q133.473 990.486 133.473 983.379 Q133.473 976.25 131.644 972.708 Q129.839 969.143 126.205 969.143 M126.205 965.44 Q132.015 965.44 135.07 970.046 Q138.149 974.629 138.149 983.379 Q138.149 992.106 135.07 996.713 Q132.015 1001.3 126.205 1001.3 Q120.394 1001.3 117.316 996.713 Q114.26 992.106 114.26 983.379 Q114.26 974.629 117.316 970.046 Q120.394 965.44 126.205 965.44 Z" fill="#000000" fill-rule="nonzero" fill-opacity="1" /><path clip-path="url(#clip890)" d="M146.366 994.745 L151.251 994.745 L151.251 1000.62 L146.366 1000.62 L146.366 994.745 Z" fill="#000000" fill-rule="nonzero" fill-opacity="1" /><path clip-path="url(#clip890)" d="M174.283 970.139 L162.477 988.588 L174.283 988.588 L174.283 970.139 M173.056 966.065 L178.936 966.065 L178.936 988.588 L183.866 988.588 L183.866 992.476 L178.936 992.476 L178.936 1000.62 L174.283 1000.62 L174.283 992.476 L158.681 992.476 L158.681 987.963 L173.056 966.065 Z" fill="#000000" fill-rule="nonzero" fill-opacity="1" /><path clip-path="url(#clip890)" d="M126.529 678.848 Q122.918 678.848 121.089 682.413 Q119.283 685.955 119.283 693.084 Q119.283 700.191 121.089 703.755 Q122.918 707.297 126.529 707.297 Q130.163 707.297 131.968 703.755 Q133.797 700.191 133.797 693.084 Q133.797 685.955 131.968 682.413 Q130.163 678.848 126.529 678.848 M126.529 675.145 Q132.339 675.145 135.394 679.751 Q138.473 684.334 138.473 693.084 Q138.473 701.811 135.394 706.417 Q132.339 711.001 126.529 711.001 Q120.718 711.001 117.64 706.417 Q114.584 701.811 114.584 693.084 Q114.584 684.334 117.64 679.751 Q120.718 675.145 126.529 675.145 Z" fill="#000000" fill-rule="nonzero" fill-opacity="1" /><path clip-path="url(#clip890)" d="M146.691 704.45 L151.575 704.45 L151.575 710.33 L146.691 710.33 L146.691 704.45 Z" fill="#000000" fill-rule="nonzero" fill-opacity="1" /><path clip-path="url(#clip890)" d="M172.339 691.186 Q169.19 691.186 167.339 693.339 Q165.51 695.492 165.51 699.242 Q165.51 702.968 167.339 705.144 Q169.19 707.297 172.339 707.297 Q175.487 707.297 177.315 705.144 Q179.167 702.968 179.167 699.242 Q179.167 695.492 177.315 693.339 Q175.487 691.186 172.339 691.186 M181.621 676.533 L181.621 680.793 Q179.862 679.959 178.056 679.519 Q176.274 679.08 174.514 679.08 Q169.885 679.08 167.431 682.205 Q165.001 685.33 164.653 691.649 Q166.019 689.635 168.079 688.57 Q170.139 687.482 172.616 687.482 Q177.825 687.482 180.834 690.654 Q183.866 693.802 183.866 699.242 Q183.866 704.566 180.718 707.783 Q177.57 711.001 172.339 711.001 Q166.343 711.001 163.172 706.417 Q160.001 701.811 160.001 693.084 Q160.001 684.89 163.89 680.029 Q167.778 675.145 174.329 675.145 Q176.089 675.145 177.871 675.492 Q179.676 675.839 181.621 676.533 Z" fill="#000000" fill-rule="nonzero" fill-opacity="1" /><path clip-path="url(#clip890)" d="M126.783 388.553 Q123.172 388.553 121.343 392.118 Q119.538 395.66 119.538 402.789 Q119.538 409.896 121.343 413.46 Q123.172 417.002 126.783 417.002 Q130.417 417.002 132.223 413.46 Q134.052 409.896 134.052 402.789 Q134.052 395.66 132.223 392.118 Q130.417 388.553 126.783 388.553 M126.783 384.849 Q132.593 384.849 135.649 389.456 Q138.728 394.039 138.728 402.789 Q138.728 411.516 135.649 416.122 Q132.593 420.706 126.783 420.706 Q120.973 420.706 117.894 416.122 Q114.839 411.516 114.839 402.789 Q114.839 394.039 117.894 389.456 Q120.973 384.849 126.783 384.849 Z" fill="#000000" fill-rule="nonzero" fill-opacity="1" /><path clip-path="url(#clip890)" d="M146.945 414.155 L151.829 414.155 L151.829 420.034 L146.945 420.034 L146.945 414.155 Z" fill="#000000" fill-rule="nonzero" fill-opacity="1" /><path clip-path="url(#clip890)" d="M172.014 403.623 Q168.681 403.623 166.76 405.405 Q164.862 407.187 164.862 410.312 Q164.862 413.437 166.76 415.22 Q168.681 417.002 172.014 417.002 Q175.348 417.002 177.269 415.22 Q179.19 413.414 179.19 410.312 Q179.19 407.187 177.269 405.405 Q175.371 403.623 172.014 403.623 M167.339 401.632 Q164.329 400.891 162.64 398.831 Q160.973 396.771 160.973 393.808 Q160.973 389.664 163.913 387.257 Q166.876 384.849 172.014 384.849 Q177.176 384.849 180.116 387.257 Q183.056 389.664 183.056 393.808 Q183.056 396.771 181.366 398.831 Q179.7 400.891 176.714 401.632 Q180.093 402.419 181.968 404.71 Q183.866 407.002 183.866 410.312 Q183.866 415.335 180.788 418.021 Q177.732 420.706 172.014 420.706 Q166.297 420.706 163.218 418.021 Q160.163 415.335 160.163 410.312 Q160.163 407.002 162.061 404.71 Q163.959 402.419 167.339 401.632 M165.626 394.248 Q165.626 396.933 167.292 398.437 Q168.982 399.942 172.014 399.942 Q175.024 399.942 176.714 398.437 Q178.426 396.933 178.426 394.248 Q178.426 391.562 176.714 390.058 Q175.024 388.553 172.014 388.553 Q168.982 388.553 167.292 390.058 Q165.626 391.562 165.626 394.248 Z" fill="#000000" fill-rule="nonzero" fill-opacity="1" /><path clip-path="url(#clip890)" d="M29.4065 883.417 L34.9447 883.417 Q33.6716 885.9 33.035 888.574 Q32.3984 891.247 32.3984 894.112 Q32.3984 898.472 33.7352 900.668 Q35.072 902.833 37.7456 902.833 Q39.7826 902.833 40.9603 901.273 Q42.1061 899.714 43.1565 895.003 L43.6021 892.998 Q44.9389 886.759 47.3897 884.149 Q49.8086 881.508 54.1691 881.508 Q59.1344 881.508 62.0308 885.454 Q64.9272 889.369 64.9272 896.244 Q64.9272 899.109 64.3543 902.228 Q63.8132 905.315 62.6992 908.753 L56.6518 908.753 Q58.3387 905.506 59.198 902.355 Q60.0256 899.204 60.0256 896.117 Q60.0256 891.979 58.6251 889.751 Q57.1929 887.523 54.6147 887.523 Q52.2276 887.523 50.9545 889.146 Q49.6813 890.738 48.5037 896.181 L48.0262 898.218 Q46.8804 903.66 44.5251 906.079 Q42.138 908.498 38.0002 908.498 Q32.9713 908.498 30.2341 904.933 Q27.4968 901.369 27.4968 894.812 Q27.4968 891.565 27.9743 888.701 Q28.4517 885.836 29.4065 883.417 Z" fill="#000000" fill-rule="nonzero" fill-opacity="1" /><path clip-path="url(#clip890)" d="M16.4842 871.927 L16.4842 862.347 L48.8219 850.22 L16.4842 838.03 L16.4842 828.449 L64.0042 828.449 L64.0042 834.72 L22.277 834.72 L54.8694 846.974 L54.8694 853.435 L22.277 865.689 L64.0042 865.689 L64.0042 871.927 L16.4842 871.927 Z" fill="#000000" fill-rule="nonzero" fill-opacity="1" /><path clip-path="url(#clip890)" d="M22.818 799.804 L46.4666 808.525 L46.4666 791.051 L22.818 799.804 M16.4842 803.432 L16.4842 796.143 L64.0042 778.033 L64.0042 784.717 L51.8138 789.046 L51.8138 810.466 L64.0042 814.795 L64.0042 821.574 L16.4842 803.432 Z" fill="#000000" fill-rule="nonzero" fill-opacity="1" /><path clip-path="url(#clip890)" d="M21.7677 764.665 L39.6235 764.665 L39.6235 756.581 Q39.6235 752.093 37.3 749.642 Q34.9765 747.191 30.6797 747.191 Q26.4147 747.191 24.0912 749.642 Q21.7677 752.093 21.7677 756.581 L21.7677 764.665 M16.4842 771.094 L16.4842 756.581 Q16.4842 748.592 20.1126 744.518 Q23.7092 740.412 30.6797 740.412 Q37.7138 740.412 41.3104 744.518 Q44.907 748.592 44.907 756.581 L44.907 764.665 L64.0042 764.665 L64.0042 771.094 L16.4842 771.094 Z" fill="#000000" fill-rule="nonzero" fill-opacity="1" /><path clip-path="url(#clip890)" d="M16.4842 731.786 L16.4842 701.74 L21.895 701.74 L21.895 725.357 L35.9632 725.357 L35.9632 702.727 L41.3741 702.727 L41.3741 725.357 L58.5933 725.357 L58.5933 701.167 L64.0042 701.167 L64.0042 731.786 L16.4842 731.786 Z" fill="#000000" fill-rule="nonzero" fill-opacity="1" /><path clip-path="url(#clip890)" d="M735.105 12.096 L767.228 12.096 L767.228 18.9825 L742.599 18.9825 L742.599 33.8088 Q744.381 33.2012 746.164 32.9176 Q747.946 32.5936 749.728 32.5936 Q759.856 32.5936 765.77 38.1433 Q771.684 43.6931 771.684 53.1722 Q771.684 62.9348 765.608 68.3631 Q759.532 73.7508 748.473 73.7508 Q744.665 73.7508 740.695 73.1026 Q736.765 72.4545 732.552 71.1582 L732.552 62.9348 Q736.198 64.9198 740.087 65.892 Q743.976 66.8642 748.31 66.8642 Q755.319 66.8642 759.41 63.1779 Q763.501 59.4916 763.501 53.1722 Q763.501 46.8528 759.41 43.1664 Q755.319 39.4801 748.31 39.4801 Q745.029 39.4801 741.748 40.2093 Q738.507 40.9384 735.105 42.4778 L735.105 12.096 Z" fill="#000000" fill-rule="nonzero" fill-opacity="1" /><path clip-path="url(#clip890)" d="M805.307 17.4837 Q798.987 17.4837 795.787 23.7221 Q792.627 29.92 792.627 42.3968 Q792.627 54.833 795.787 61.0714 Q798.987 67.2693 805.307 67.2693 Q811.667 67.2693 814.826 61.0714 Q818.027 54.833 818.027 42.3968 Q818.027 29.92 814.826 23.7221 Q811.667 17.4837 805.307 17.4837 M805.307 11.0023 Q815.474 11.0023 820.822 19.0636 Q826.209 27.0843 826.209 42.3968 Q826.209 57.6687 820.822 65.73 Q815.474 73.7508 805.307 73.7508 Q795.139 73.7508 789.751 65.73 Q784.404 57.6687 784.404 42.3968 Q784.404 27.0843 789.751 19.0636 Q795.139 11.0023 805.307 11.0023 Z" fill="#000000" fill-rule="nonzero" fill-opacity="1" /><path clip-path="url(#clip890)" d="M857.847 12.096 L909.01 12.096 L909.01 18.9825 L887.54 18.9825 L887.54 72.576 L879.317 72.576 L879.317 18.9825 L857.847 18.9825 L857.847 12.096 Z" fill="#000000" fill-rule="nonzero" fill-opacity="1" /><path clip-path="url(#clip890)" d="M914.033 27.2059 L921.487 27.2059 L921.487 72.576 L914.033 72.576 L914.033 27.2059 M914.033 9.54393 L921.487 9.54393 L921.487 18.9825 L914.033 18.9825 L914.033 9.54393 Z" fill="#000000" fill-rule="nonzero" fill-opacity="1" /><path clip-path="url(#clip890)" d="M972.407 35.9153 Q975.202 30.8922 979.091 28.5022 Q982.979 26.1121 988.246 26.1121 Q995.335 26.1121 999.183 31.0947 Q1003.03 36.0368 1003.03 45.1919 L1003.03 72.576 L995.537 72.576 L995.537 45.4349 Q995.537 38.913 993.228 35.7533 Q990.919 32.5936 986.18 32.5936 Q980.387 32.5936 977.025 36.4419 Q973.662 40.2903 973.662 46.9338 L973.662 72.576 L966.168 72.576 L966.168 45.4349 Q966.168 38.8725 963.859 35.7533 Q961.55 32.5936 956.73 32.5936 Q951.018 32.5936 947.655 36.4824 Q944.293 40.3308 944.293 46.9338 L944.293 72.576 L936.799 72.576 L936.799 27.2059 L944.293 27.2059 L944.293 34.2544 Q946.845 30.082 950.41 28.0971 Q953.975 26.1121 958.876 26.1121 Q963.819 26.1121 967.262 28.6237 Q970.746 31.1352 972.407 35.9153 Z" fill="#000000" fill-rule="nonzero" fill-opacity="1" /><path clip-path="url(#clip890)" d="M1056.71 48.0275 L1056.71 51.6733 L1022.44 51.6733 Q1022.92 59.3701 1027.05 63.421 Q1031.23 67.4314 1038.64 67.4314 Q1042.93 67.4314 1046.94 66.3781 Q1050.99 65.3249 1054.96 63.2184 L1054.96 70.267 Q1050.95 71.9684 1046.74 72.8596 Q1042.53 73.7508 1038.19 73.7508 Q1027.34 73.7508 1020.98 67.4314 Q1014.66 61.1119 1014.66 50.3365 Q1014.66 39.1965 1020.65 32.6746 Q1026.69 26.1121 1036.9 26.1121 Q1046.05 26.1121 1051.36 32.0264 Q1056.71 37.9003 1056.71 48.0275 M1049.25 45.84 Q1049.17 39.7232 1045.81 36.0774 Q1042.49 32.4315 1036.98 32.4315 Q1030.74 32.4315 1026.97 35.9558 Q1023.25 39.4801 1022.68 45.8805 L1049.25 45.84 Z" fill="#000000" fill-rule="nonzero" fill-opacity="1" /><path clip-path="url(#clip890)" d="M1065.17 46.5287 L1087.01 46.5287 L1087.01 53.1722 L1065.17 53.1722 L1065.17 46.5287 Z" fill="#000000" fill-rule="nonzero" fill-opacity="1" /><path clip-path="url(#clip890)" d="M1107.38 18.8205 L1107.38 41.5461 L1117.67 41.5461 Q1123.38 41.5461 1126.5 38.5889 Q1129.62 35.6318 1129.62 30.163 Q1129.62 24.7348 1126.5 21.7777 Q1123.38 18.8205 1117.67 18.8205 L1107.38 18.8205 M1099.2 12.096 L1117.67 12.096 Q1127.84 12.096 1133.02 16.714 Q1138.25 21.2916 1138.25 30.163 Q1138.25 39.1155 1133.02 43.6931 Q1127.84 48.2706 1117.67 48.2706 L1107.38 48.2706 L1107.38 72.576 L1099.2 72.576 L1099.2 12.096 Z" fill="#000000" fill-rule="nonzero" fill-opacity="1" /><path clip-path="url(#clip890)" d="M1163.53 32.4315 Q1157.53 32.4315 1154.05 37.1306 Q1150.57 41.7891 1150.57 49.9314 Q1150.57 58.0738 1154.01 62.7728 Q1157.49 67.4314 1163.53 67.4314 Q1169.48 67.4314 1172.97 62.7323 Q1176.45 58.0333 1176.45 49.9314 Q1176.45 41.8701 1172.97 37.1711 Q1169.48 32.4315 1163.53 32.4315 M1163.53 26.1121 Q1173.25 26.1121 1178.8 32.4315 Q1184.35 38.7509 1184.35 49.9314 Q1184.35 61.0714 1178.8 67.4314 Q1173.25 73.7508 1163.53 73.7508 Q1153.77 73.7508 1148.22 67.4314 Q1142.71 61.0714 1142.71 49.9314 Q1142.71 38.7509 1148.22 32.4315 Q1153.77 26.1121 1163.53 26.1121 Z" fill="#000000" fill-rule="nonzero" fill-opacity="1" /><path clip-path="url(#clip890)" d="M1196.71 27.2059 L1204.16 27.2059 L1204.16 72.576 L1196.71 72.576 L1196.71 27.2059 M1196.71 9.54393 L1204.16 9.54393 L1204.16 18.9825 L1196.71 18.9825 L1196.71 9.54393 Z" fill="#000000" fill-rule="nonzero" fill-opacity="1" /><path clip-path="url(#clip890)" d="M1257.47 45.1919 L1257.47 72.576 L1250.01 72.576 L1250.01 45.4349 Q1250.01 38.994 1247.5 35.7938 Q1244.99 32.5936 1239.97 32.5936 Q1233.93 32.5936 1230.45 36.4419 Q1226.97 40.2903 1226.97 46.9338 L1226.97 72.576 L1219.47 72.576 L1219.47 27.2059 L1226.97 27.2059 L1226.97 34.2544 Q1229.64 30.163 1233.24 28.1376 Q1236.89 26.1121 1241.63 26.1121 Q1249.45 26.1121 1253.46 30.9732 Q1257.47 35.7938 1257.47 45.1919 Z" fill="#000000" fill-rule="nonzero" fill-opacity="1" /><path clip-path="url(#clip890)" d="M1279.71 14.324 L1279.71 27.2059 L1295.06 27.2059 L1295.06 32.9987 L1279.71 32.9987 L1279.71 57.6282 Q1279.71 63.1779 1281.21 64.7578 Q1282.75 66.3376 1287.4 66.3376 L1295.06 66.3376 L1295.06 72.576 L1287.4 72.576 Q1278.78 72.576 1275.5 69.3758 Q1272.21 66.1351 1272.21 57.6282 L1272.21 32.9987 L1266.75 32.9987 L1266.75 27.2059 L1272.21 27.2059 L1272.21 14.324 L1279.71 14.324 Z" fill="#000000" fill-rule="nonzero" fill-opacity="1" /><path clip-path="url(#clip890)" d="M1376.85 16.7545 L1376.85 25.383 Q1372.72 21.5346 1368.02 19.6307 Q1363.36 17.7268 1358.09 17.7268 Q1347.72 17.7268 1342.21 24.0867 Q1336.7 30.4061 1336.7 42.3968 Q1336.7 54.3469 1342.21 60.7069 Q1347.72 67.0263 1358.09 67.0263 Q1363.36 67.0263 1368.02 65.1223 Q1372.72 63.2184 1376.85 59.3701 L1376.85 67.9175 Q1372.55 70.8341 1367.73 72.2924 Q1362.95 73.7508 1357.61 73.7508 Q1343.87 73.7508 1335.98 65.3654 Q1328.08 56.9395 1328.08 42.3968 Q1328.08 27.8135 1335.98 19.4281 Q1343.87 11.0023 1357.61 11.0023 Q1363.04 11.0023 1367.82 12.4606 Q1372.64 13.8784 1376.85 16.7545 Z" fill="#000000" fill-rule="nonzero" fill-opacity="1" /><path clip-path="url(#clip890)" d="M1406.74 32.4315 Q1400.75 32.4315 1397.27 37.1306 Q1393.78 41.7891 1393.78 49.9314 Q1393.78 58.0738 1397.22 62.7728 Q1400.71 67.4314 1406.74 67.4314 Q1412.7 67.4314 1416.18 62.7323 Q1419.67 58.0333 1419.67 49.9314 Q1419.67 41.8701 1416.18 37.1711 Q1412.7 32.4315 1406.74 32.4315 M1406.74 26.1121 Q1416.47 26.1121 1422.02 32.4315 Q1427.57 38.7509 1427.57 49.9314 Q1427.57 61.0714 1422.02 67.4314 Q1416.47 73.7508 1406.74 73.7508 Q1396.98 73.7508 1391.43 67.4314 Q1385.92 61.0714 1385.92 49.9314 Q1385.92 38.7509 1391.43 32.4315 Q1396.98 26.1121 1406.74 26.1121 Z" fill="#000000" fill-rule="nonzero" fill-opacity="1" /><path clip-path="url(#clip890)" d="M1477.64 45.1919 L1477.64 72.576 L1470.18 72.576 L1470.18 45.4349 Q1470.18 38.994 1467.67 35.7938 Q1465.16 32.5936 1460.14 32.5936 Q1454.1 32.5936 1450.62 36.4419 Q1447.13 40.2903 1447.13 46.9338 L1447.13 72.576 L1439.64 72.576 L1439.64 27.2059 L1447.13 27.2059 L1447.13 34.2544 Q1449.81 30.163 1453.41 28.1376 Q1457.06 26.1121 1461.8 26.1121 Q1469.61 26.1121 1473.62 30.9732 Q1477.64 35.7938 1477.64 45.1919 Z" fill="#000000" fill-rule="nonzero" fill-opacity="1" /><path clip-path="url(#clip890)" d="M1522.36 34.0924 L1522.36 9.54393 L1529.81 9.54393 L1529.81 72.576 L1522.36 72.576 L1522.36 65.7705 Q1520.01 69.8214 1516.4 71.8063 Q1512.84 73.7508 1507.81 73.7508 Q1499.59 73.7508 1494.41 67.1883 Q1489.26 60.6258 1489.26 49.9314 Q1489.26 39.2371 1494.41 32.6746 Q1499.59 26.1121 1507.81 26.1121 Q1512.84 26.1121 1516.4 28.0971 Q1520.01 30.0415 1522.36 34.0924 M1496.96 49.9314 Q1496.96 58.1548 1500.32 62.8538 Q1503.72 67.5124 1509.64 67.5124 Q1515.55 67.5124 1518.95 62.8538 Q1522.36 58.1548 1522.36 49.9314 Q1522.36 41.7081 1518.95 37.0496 Q1515.55 32.3505 1509.64 32.3505 Q1503.72 32.3505 1500.32 37.0496 Q1496.96 41.7081 1496.96 49.9314 Z" fill="#000000" fill-rule="nonzero" fill-opacity="1" /><path clip-path="url(#clip890)" d="M1545.16 27.2059 L1552.62 27.2059 L1552.62 72.576 L1545.16 72.576 L1545.16 27.2059 M1545.16 9.54393 L1552.62 9.54393 L1552.62 18.9825 L1545.16 18.9825 L1545.16 9.54393 Z" fill="#000000" fill-rule="nonzero" fill-opacity="1" /><path clip-path="url(#clip890)" d="M1575.59 14.324 L1575.59 27.2059 L1590.94 27.2059 L1590.94 32.9987 L1575.59 32.9987 L1575.59 57.6282 Q1575.59 63.1779 1577.08 64.7578 Q1578.62 66.3376 1583.28 66.3376 L1590.94 66.3376 L1590.94 72.576 L1583.28 72.576 Q1574.65 72.576 1571.37 69.3758 Q1568.09 66.1351 1568.09 57.6282 L1568.09 32.9987 L1562.62 32.9987 L1562.62 27.2059 L1568.09 27.2059 L1568.09 14.324 L1575.59 14.324 Z" fill="#000000" fill-rule="nonzero" fill-opacity="1" /><path clip-path="url(#clip890)" d="M1600.74 27.2059 L1608.2 27.2059 L1608.2 72.576 L1600.74 72.576 L1600.74 27.2059 M1600.74 9.54393 L1608.2 9.54393 L1608.2 18.9825 L1600.74 18.9825 L1600.74 9.54393 Z" fill="#000000" fill-rule="nonzero" fill-opacity="1" /><path clip-path="url(#clip890)" d="M1641.37 32.4315 Q1635.38 32.4315 1631.89 37.1306 Q1628.41 41.7891 1628.41 49.9314 Q1628.41 58.0738 1631.85 62.7728 Q1635.34 67.4314 1641.37 67.4314 Q1647.33 67.4314 1650.81 62.7323 Q1654.3 58.0333 1654.3 49.9314 Q1654.3 41.8701 1650.81 37.1711 Q1647.33 32.4315 1641.37 32.4315 M1641.37 26.1121 Q1651.1 26.1121 1656.64 32.4315 Q1662.19 38.7509 1662.19 49.9314 Q1662.19 61.0714 1656.64 67.4314 Q1651.1 73.7508 1641.37 73.7508 Q1631.61 73.7508 1626.06 67.4314 Q1620.55 61.0714 1620.55 49.9314 Q1620.55 38.7509 1626.06 32.4315 Q1631.61 26.1121 1641.37 26.1121 Z" fill="#000000" fill-rule="nonzero" fill-opacity="1" /><path clip-path="url(#clip890)" d="M1712.26 45.1919 L1712.26 72.576 L1704.81 72.576 L1704.81 45.4349 Q1704.81 38.994 1702.3 35.7938 Q1699.79 32.5936 1694.76 32.5936 Q1688.73 32.5936 1685.24 36.4419 Q1681.76 40.2903 1681.76 46.9338 L1681.76 72.576 L1674.27 72.576 L1674.27 27.2059 L1681.76 27.2059 L1681.76 34.2544 Q1684.43 30.163 1688.04 28.1376 Q1691.69 26.1121 1696.42 26.1121 Q1704.24 26.1121 1708.25 30.9732 Q1712.26 35.7938 1712.26 45.1919 Z" fill="#000000" fill-rule="nonzero" fill-opacity="1" /><path clip-path="url(#clip890)" d="M1727.13 27.2059 L1734.58 27.2059 L1734.58 72.576 L1727.13 72.576 L1727.13 27.2059 M1727.13 9.54393 L1734.58 9.54393 L1734.58 18.9825 L1727.13 18.9825 L1727.13 9.54393 Z" fill="#000000" fill-rule="nonzero" fill-opacity="1" /><path clip-path="url(#clip890)" d="M1787.89 45.1919 L1787.89 72.576 L1780.44 72.576 L1780.44 45.4349 Q1780.44 38.994 1777.93 35.7938 Q1775.42 32.5936 1770.39 32.5936 Q1764.36 32.5936 1760.87 36.4419 Q1757.39 40.2903 1757.39 46.9338 L1757.39 72.576 L1749.9 72.576 L1749.9 27.2059 L1757.39 27.2059 L1757.39 34.2544 Q1760.06 30.163 1763.67 28.1376 Q1767.32 26.1121 1772.06 26.1121 Q1779.87 26.1121 1783.88 30.9732 Q1787.89 35.7938 1787.89 45.1919 Z" fill="#000000" fill-rule="nonzero" fill-opacity="1" /><path clip-path="url(#clip890)" d="M1832.62 49.3643 Q1832.62 41.2625 1829.25 36.8065 Q1825.93 32.3505 1819.9 32.3505 Q1813.9 32.3505 1810.54 36.8065 Q1807.22 41.2625 1807.22 49.3643 Q1807.22 57.4256 1810.54 61.8816 Q1813.9 66.3376 1819.9 66.3376 Q1825.93 66.3376 1829.25 61.8816 Q1832.62 57.4256 1832.62 49.3643 M1840.07 66.9452 Q1840.07 78.5308 1834.93 84.1616 Q1829.78 89.8329 1819.17 89.8329 Q1815.24 89.8329 1811.75 89.2252 Q1808.27 88.6581 1804.99 87.4428 L1804.99 80.1917 Q1808.27 81.9741 1811.47 82.8248 Q1814.67 83.6755 1817.99 83.6755 Q1825.32 83.6755 1828.97 79.8271 Q1832.62 76.0193 1832.62 68.282 L1832.62 64.5957 Q1830.31 68.6061 1826.7 70.5911 Q1823.1 72.576 1818.07 72.576 Q1809.73 72.576 1804.62 66.2161 Q1799.52 59.8562 1799.52 49.3643 Q1799.52 38.832 1804.62 32.472 Q1809.73 26.1121 1818.07 26.1121 Q1823.1 26.1121 1826.7 28.0971 Q1830.31 30.082 1832.62 34.0924 L1832.62 27.2059 L1840.07 27.2059 L1840.07 66.9452 Z" fill="#000000" fill-rule="nonzero" fill-opacity="1" /><path clip-path="url(#clip892)" d="M932.576 1447.87 L954.344 1437.59 L976.418 1427.3 L998.514 1417.01 L1020.34 1406.73 L1041.59 1396.44 L1061.99 1386.15 L1081.26 1375.87 L1099.16 1365.58 L1115.47 1355.29 L1130.02 1345.01 L1142.64 1334.72 L1153.24 1324.43 L1161.74 1314.15 L1168.11 1303.86 L1172.35 1293.57 L1174.46 1283.29 L1174.52 1273 L1172.6 1262.71 L1168.79 1252.43 L1163.2 1242.14 L1155.97 1231.85 L1147.23 1221.57 L1137.14 1211.28 L1125.86 1200.99 L1113.57 1190.71 L1100.43 1180.42 L1086.62 1170.13 L1072.33 1159.85 L1057.71 1149.56 L1042.94 1139.27 L1028.18 1128.99 L1013.58 1118.7 L999.265 1108.41 L985.355 1098.13 L971.95 1087.84 L959.131 1077.56 L946.961 1067.27 L935.484 1056.98 L924.727 1046.7 L914.701 1036.41 L905.4 1026.12 L896.81 1015.84 L888.904 1005.55 L881.647 995.262 L875.003 984.976 L868.928 974.689 L863.379 964.402 L858.316 954.116 L853.696 943.829 L849.482 933.543 L845.638 923.256 L842.13 912.969 L838.927 902.683 L836 892.396 L833.321 882.11 L830.863 871.823 L828.598 861.536 L826.502 851.25 L824.547 840.963 L822.71 830.677 L820.968 820.39 L819.302 810.103 L817.694 799.817 L816.136 789.53 L814.619 779.243 L813.146 768.957 L811.721 758.67 L810.355 748.384 L809.066 738.097 L807.872 727.81 L806.795 717.524 L805.855 707.237 L805.072 696.951 L804.463 686.664 L804.038 676.377 L803.802 666.091 L803.754 655.804 L803.886 645.518 L804.185 635.231 L804.633 624.944 L805.209 614.658 L805.888 604.371 L806.647 594.085 L807.463 583.798 L808.315 573.511 L809.185 563.225 L810.059 552.938 L810.924 542.651 L811.77 532.365 L812.589 522.078 L813.371 511.792 L814.106 501.505 L814.781 491.218 L815.379 480.932 L815.88 470.645 L816.259 460.359 L816.49 450.072 L816.543 439.785 L816.387 429.499 L815.993 419.212 L815.336 408.926 L814.394 398.639 L813.153 388.352 L811.608 378.066 L809.761 367.779 L807.624 357.492 L805.221 347.206 L802.579 336.919 L799.737 326.633 L796.734 316.346 L793.615 306.059 L790.424 295.773 L787.203 285.486 L783.989 275.2 L780.817 264.913 L777.711 254.626 L774.692 244.34 L771.772 234.053 L768.956 223.767 L766.245 213.48 L763.635 203.193 L761.121 192.907 L758.695 182.62 L756.349 172.334 L754.079 162.047 L700.676 162.047 L698.406 172.334 L696.061 182.62 L693.635 192.907 L691.12 203.193 L688.511 213.48 L685.8 223.767 L682.984 234.053 L680.063 244.34 L677.044 254.626 L673.939 264.913 L670.766 275.2 L667.553 285.486 L664.331 295.773 L661.14 306.059 L658.021 316.346 L655.019 326.633 L652.176 336.919 L649.535 347.206 L647.131 357.492 L644.995 367.779 L643.148 378.066 L641.602 388.352 L640.362 398.639 L639.42 408.926 L638.762 419.212 L638.369 429.499 L638.213 439.785 L638.265 450.072 L638.496 460.359 L638.876 470.645 L639.377 480.932 L639.975 491.218 L640.649 501.505 L641.384 511.792 L642.166 522.078 L642.985 532.365 L643.832 542.651 L644.697 552.938 L645.571 563.225 L646.441 573.511 L647.293 583.798 L648.109 594.085 L648.868 604.371 L649.547 614.658 L650.122 624.944 L650.57 635.231 L650.87 645.518 L651.002 655.804 L650.954 666.091 L650.718 676.377 L650.292 686.664 L649.683 696.951 L648.9 707.237 L647.961 717.524 L646.883 727.81 L645.689 738.097 L644.4 748.384 L643.035 758.67 L641.61 768.957 L640.136 779.243 L638.62 789.53 L637.061 799.817 L635.454 810.103 L633.787 820.39 L632.045 830.677 L630.208 840.963 L628.254 851.25 L626.157 861.536 L623.893 871.823 L621.434 882.11 L618.756 892.396 L615.829 902.683 L612.626 912.969 L609.118 923.256 L605.273 933.543 L601.059 943.829 L596.44 954.116 L591.376 964.402 L585.828 974.689 L579.753 984.976 L573.108 995.262 L565.852 1005.55 L557.945 1015.84 L549.355 1026.12 L540.055 1036.41 L530.028 1046.7 L519.271 1056.98 L507.794 1067.27 L495.624 1077.56 L482.806 1087.84 L469.4 1098.13 L455.49 1108.41 L441.175 1118.7 L426.571 1128.99 L411.813 1139.27 L397.046 1149.56 L382.43 1159.85 L368.132 1170.13 L354.325 1180.42 L341.186 1190.71 L328.892 1200.99 L317.616 1211.28 L307.528 1221.57 L298.79 1231.85 L291.557 1242.14 L285.969 1252.43 L282.156 1262.71 L280.231 1273 L280.291 1283.29 L282.41 1293.57 L286.641 1303.86 L293.011 1314.15 L301.514 1324.43 L312.114 1334.72 L324.74 1345.01 L339.282 1355.29 L355.595 1365.58 L373.496 1375.87 L392.769 1386.15 L413.167 1396.44 L434.42 1406.73 L456.242 1417.01 L478.337 1427.3 L500.411 1437.59 L522.18 1447.87 L932.576 1447.87  Z" fill="#009af9" fill-rule="evenodd" fill-opacity="1"/>
<polyline clip-path="url(#clip892)" style="stroke:#000000; stroke-linecap:round; stroke-linejoin:round; stroke-width:4; stroke-opacity:1; fill:none" points="932.576,1447.87 954.344,1437.59 976.418,1427.3 998.514,1417.01 1020.34,1406.73 1041.59,1396.44 1061.99,1386.15 1081.26,1375.87 1099.16,1365.58 1115.47,1355.29 1130.02,1345.01 1142.64,1334.72 1153.24,1324.43 1161.74,1314.15 1168.11,1303.86 1172.35,1293.57 1174.46,1283.29 1174.52,1273 1172.6,1262.71 1168.79,1252.43 1163.2,1242.14 1155.97,1231.85 1147.23,1221.57 1137.14,1211.28 1125.86,1200.99 1113.57,1190.71 1100.43,1180.42 1086.62,1170.13 1072.33,1159.85 1057.71,1149.56 1042.94,1139.27 1028.18,1128.99 1013.58,1118.7 999.265,1108.41 985.355,1098.13 971.95,1087.84 959.131,1077.56 946.961,1067.27 935.484,1056.98 924.727,1046.7 914.701,1036.41 905.4,1026.12 896.81,1015.84 888.904,1005.55 881.647,995.262 875.003,984.976 868.928,974.689 863.379,964.402 858.316,954.116 853.696,943.829 849.482,933.543 845.638,923.256 842.13,912.969 838.927,902.683 836,892.396 833.321,882.11 830.863,871.823 828.598,861.536 826.502,851.25 824.547,840.963 822.71,830.677 820.968,820.39 819.302,810.103 817.694,799.817 816.136,789.53 814.619,779.243 813.146,768.957 811.721,758.67 810.355,748.384 809.066,738.097 807.872,727.81 806.795,717.524 805.855,707.237 805.072,696.951 804.463,686.664 804.038,676.377 803.802,666.091 803.754,655.804 803.886,645.518 804.185,635.231 804.633,624.944 805.209,614.658 805.888,604.371 806.647,594.085 807.463,583.798 808.315,573.511 809.185,563.225 810.059,552.938 810.924,542.651 811.77,532.365 812.589,522.078 813.371,511.792 814.106,501.505 814.781,491.218 815.379,480.932 815.88,470.645 816.259,460.359 816.49,450.072 816.543,439.785 816.387,429.499 815.993,419.212 815.336,408.926 814.394,398.639 813.153,388.352 811.608,378.066 809.761,367.779 807.624,357.492 805.221,347.206 802.579,336.919 799.737,326.633 796.734,316.346 793.615,306.059 790.424,295.773 787.203,285.486 783.989,275.2 780.817,264.913 777.711,254.626 774.692,244.34 771.772,234.053 768.956,223.767 766.245,213.48 763.635,203.193 761.121,192.907 758.695,182.62 756.349,172.334 754.079,162.047 700.676,162.047 698.406,172.334 696.061,182.62 693.635,192.907 691.12,203.193 688.511,213.48 685.8,223.767 682.984,234.053 680.063,244.34 677.044,254.626 673.939,264.913 670.766,275.2 667.553,285.486 664.331,295.773 661.14,306.059 658.021,316.346 655.019,326.633 652.176,336.919 649.535,347.206 647.131,357.492 644.995,367.779 643.148,378.066 641.602,388.352 640.362,398.639 639.42,408.926 638.762,419.212 638.369,429.499 638.213,439.785 638.265,450.072 638.496,460.359 638.876,470.645 639.377,480.932 639.975,491.218 640.649,501.505 641.384,511.792 642.166,522.078 642.985,532.365 643.832,542.651 644.697,552.938 645.571,563.225 646.441,573.511 647.293,583.798 648.109,594.085 648.868,604.371 649.547,614.658 650.122,624.944 650.57,635.231 650.87,645.518 651.002,655.804 650.954,666.091 650.718,676.377 650.292,686.664 649.683,696.951 648.9,707.237 647.961,717.524 646.883,727.81 645.689,738.097 644.4,748.384 643.035,758.67 641.61,768.957 640.136,779.243 638.62,789.53 637.061,799.817 635.454,810.103 633.787,820.39 632.045,830.677 630.208,840.963 628.254,851.25 626.157,861.536 623.893,871.823 621.434,882.11 618.756,892.396 615.829,902.683 612.626,912.969 609.118,923.256 605.273,933.543 601.059,943.829 596.44,954.116 591.376,964.402 585.828,974.689 579.753,984.976 573.108,995.262 565.852,1005.55 557.945,1015.84 549.355,1026.12 540.055,1036.41 530.028,1046.7 519.271,1056.98 507.794,1067.27 495.624,1077.56 482.806,1087.84 469.4,1098.13 455.49,1108.41 441.175,1118.7 426.571,1128.99 411.813,1139.27 397.046,1149.56 382.43,1159.85 368.132,1170.13 354.325,1180.42 341.186,1190.71 328.892,1200.99 317.616,1211.28 307.528,1221.57 298.79,1231.85 291.557,1242.14 285.969,1252.43 282.156,1262.71 280.231,1273 280.291,1283.29 282.41,1293.57 286.641,1303.86 293.011,1314.15 301.514,1324.43 312.114,1334.72 324.74,1345.01 339.282,1355.29 355.595,1365.58 373.496,1375.87 392.769,1386.15 413.167,1396.44 434.42,1406.73 456.242,1417.01 478.337,1427.3 500.411,1437.59 522.18,1447.87 932.576,1447.87 "/>
<path clip-path="url(#clip892)" d="M1923.44 1445.68 L1934.42 1442.56 L1946.19 1439.44 L1958.71 1436.32 L1971.91 1433.21 L1985.76 1430.09 L2000.18 1426.97 L2015.13 1423.86 L2030.57 1420.74 L2046.44 1417.62 L2062.71 1414.51 L2079.34 1411.39 L2096.27 1408.27 L2113.46 1405.16 L2130.82 1402.04 L2148.25 1398.92 L2165.63 1395.81 L2182.8 1392.69 L2199.56 1389.57 L2215.7 1386.46 L2230.96 1383.34 L2245.1 1380.22 L2257.84 1377.11 L2268.92 1373.99 L2278.11 1370.87 L2285.19 1367.76 L2289.99 1364.64 L2292.39 1361.52 L2292.33 1358.41 L2289.81 1355.29 L2284.89 1352.17 L2277.69 1349.05 L2268.37 1345.94 L2257.15 1342.82 L2244.28 1339.7 L2230.04 1336.59 L2214.7 1333.47 L2198.57 1330.35 L2181.93 1327.24 L2165.04 1324.12 L2148.15 1321 L2131.48 1317.89 L2115.22 1314.77 L2099.54 1311.65 L2084.55 1308.54 L2070.37 1305.42 L2057.05 1302.3 L2044.64 1299.19 L2033.16 1296.07 L2022.6 1292.95 L2012.94 1289.84 L2004.16 1286.72 L1996.19 1283.6 L1989 1280.49 L1982.51 1277.37 L1976.67 1274.25 L1971.4 1271.14 L1966.64 1268.02 L1962.31 1264.9 L1958.35 1261.78 L1954.7 1258.67 L1951.29 1255.55 L1948.08 1252.43 L1945.03 1249.32 L1942.13 1246.2 L1939.35 1243.08 L1936.71 1239.97 L1934.21 1236.85 L1931.87 1233.73 L1929.74 1230.62 L1927.82 1227.5 L1926.16 1224.38 L1924.76 1221.27 L1923.64 1218.15 L1922.78 1215.03 L1922.17 1211.92 L1921.78 1208.8 L1921.57 1205.68 L1921.5 1202.57 L1921.51 1199.45 L1921.55 1196.33 L1921.59 1193.22 L1921.58 1190.1 L1921.49 1186.98 L1921.28 1183.87 L1920.95 1180.75 L1920.48 1177.63 L1919.86 1174.51 L1919.09 1171.4 L1918.18 1168.28 L1917.13 1165.16 L1915.98 1162.05 L1914.74 1158.93 L1913.46 1155.81 L1912.17 1152.7 L1910.92 1149.58 L1909.77 1146.46 L1908.78 1143.35 L1908 1140.23 L1907.47 1137.11 L1907.23 1134 L1907.29 1130.88 L1907.66 1127.76 L1908.31 1124.65 L1909.2 1121.53 L1910.26 1118.41 L1911.4 1115.3 L1912.54 1112.18 L1913.56 1109.06 L1914.36 1105.95 L1914.85 1102.83 L1914.94 1099.71 L1914.55 1096.6 L1913.64 1093.48 L1912.18 1090.36 L1910.18 1087.24 L1907.65 1084.13 L1904.66 1081.01 L1901.27 1077.89 L1897.56 1074.78 L1893.64 1071.66 L1889.6 1068.54 L1885.56 1065.43 L1881.59 1062.31 L1877.8 1059.19 L1874.25 1056.08 L1871 1052.96 L1868.08 1049.84 L1865.51 1046.73 L1863.29 1043.61 L1861.4 1040.49 L1859.82 1037.38 L1858.5 1034.26 L1857.39 1031.14 L1856.46 1028.03 L1855.65 1024.91 L1834.84 1024.91 L1834.03 1028.03 L1833.1 1031.14 L1831.99 1034.26 L1830.67 1037.38 L1829.09 1040.49 L1827.2 1043.61 L1824.98 1046.73 L1822.41 1049.84 L1819.49 1052.96 L1816.24 1056.08 L1812.69 1059.19 L1808.9 1062.31 L1804.93 1065.43 L1800.88 1068.54 L1796.85 1071.66 L1792.93 1074.78 L1789.22 1077.89 L1785.83 1081.01 L1782.83 1084.13 L1780.31 1087.24 L1778.31 1090.36 L1776.85 1093.48 L1775.94 1096.6 L1775.55 1099.71 L1775.64 1102.83 L1776.13 1105.95 L1776.93 1109.06 L1777.95 1112.18 L1779.09 1115.3 L1780.23 1118.41 L1781.29 1121.53 L1782.18 1124.65 L1782.83 1127.76 L1783.2 1130.88 L1783.26 1134 L1783.02 1137.11 L1782.49 1140.23 L1781.71 1143.35 L1780.72 1146.46 L1779.57 1149.58 L1778.32 1152.7 L1777.03 1155.81 L1775.75 1158.93 L1774.51 1162.05 L1773.36 1165.16 L1772.31 1168.28 L1771.4 1171.4 L1770.63 1174.51 L1770.01 1177.63 L1769.54 1180.75 L1769.2 1183.87 L1769 1186.98 L1768.91 1190.1 L1768.9 1193.22 L1768.94 1196.33 L1768.98 1199.45 L1768.99 1202.57 L1768.92 1205.68 L1768.71 1208.8 L1768.32 1211.92 L1767.71 1215.03 L1766.85 1218.15 L1765.73 1221.27 L1764.33 1224.38 L1762.66 1227.5 L1760.75 1230.62 L1758.61 1233.73 L1756.28 1236.85 L1753.78 1239.97 L1751.14 1243.08 L1748.36 1246.2 L1745.45 1249.32 L1742.41 1252.43 L1739.2 1255.55 L1735.79 1258.67 L1732.14 1261.78 L1728.18 1264.9 L1723.85 1268.02 L1719.08 1271.14 L1713.82 1274.25 L1707.97 1277.37 L1701.49 1280.49 L1694.29 1283.6 L1686.33 1286.72 L1677.55 1289.84 L1667.89 1292.95 L1657.33 1296.07 L1645.85 1299.19 L1633.44 1302.3 L1620.12 1305.42 L1605.94 1308.54 L1590.95 1311.65 L1575.27 1314.77 L1559.01 1317.89 L1542.34 1321 L1525.45 1324.12 L1508.56 1327.24 L1491.91 1330.35 L1475.78 1333.47 L1460.45 1336.59 L1446.21 1339.7 L1433.34 1342.82 L1422.12 1345.94 L1412.8 1349.05 L1405.6 1352.17 L1400.67 1355.29 L1398.16 1358.41 L1398.1 1361.52 L1400.5 1364.64 L1405.3 1367.76 L1412.38 1370.87 L1421.56 1373.99 L1432.65 1377.11 L1445.39 1380.22 L1459.53 1383.34 L1474.79 1386.46 L1490.93 1389.57 L1507.69 1392.69 L1524.86 1395.81 L1542.24 1398.92 L1559.67 1402.04 L1577.03 1405.16 L1594.22 1408.27 L1611.15 1411.39 L1627.78 1414.51 L1644.05 1417.62 L1659.92 1420.74 L1675.36 1423.86 L1690.31 1426.97 L1704.73 1430.09 L1718.58 1433.21 L1731.78 1436.32 L1744.3 1439.44 L1756.07 1442.56 L1767.05 1445.68 L1923.44 1445.68  Z" fill="#e26f46" fill-rule="evenodd" fill-opacity="1"/>
<polyline clip-path="url(#clip892)" style="stroke:#000000; stroke-linecap:round; stroke-linejoin:round; stroke-width:4; stroke-opacity:1; fill:none" points="1923.44,1445.68 1934.42,1442.56 1946.19,1439.44 1958.71,1436.32 1971.91,1433.21 1985.76,1430.09 2000.18,1426.97 2015.13,1423.86 2030.57,1420.74 2046.44,1417.62 2062.71,1414.51 2079.34,1411.39 2096.27,1408.27 2113.46,1405.16 2130.82,1402.04 2148.25,1398.92 2165.63,1395.81 2182.8,1392.69 2199.56,1389.57 2215.7,1386.46 2230.96,1383.34 2245.1,1380.22 2257.84,1377.11 2268.92,1373.99 2278.11,1370.87 2285.19,1367.76 2289.99,1364.64 2292.39,1361.52 2292.33,1358.41 2289.81,1355.29 2284.89,1352.17 2277.69,1349.05 2268.37,1345.94 2257.15,1342.82 2244.28,1339.7 2230.04,1336.59 2214.7,1333.47 2198.57,1330.35 2181.93,1327.24 2165.04,1324.12 2148.15,1321 2131.48,1317.89 2115.22,1314.77 2099.54,1311.65 2084.55,1308.54 2070.37,1305.42 2057.05,1302.3 2044.64,1299.19 2033.16,1296.07 2022.6,1292.95 2012.94,1289.84 2004.16,1286.72 1996.19,1283.6 1989,1280.49 1982.51,1277.37 1976.67,1274.25 1971.4,1271.14 1966.64,1268.02 1962.31,1264.9 1958.35,1261.78 1954.7,1258.67 1951.29,1255.55 1948.08,1252.43 1945.03,1249.32 1942.13,1246.2 1939.35,1243.08 1936.71,1239.97 1934.21,1236.85 1931.87,1233.73 1929.74,1230.62 1927.82,1227.5 1926.16,1224.38 1924.76,1221.27 1923.64,1218.15 1922.78,1215.03 1922.17,1211.92 1921.78,1208.8 1921.57,1205.68 1921.5,1202.57 1921.51,1199.45 1921.55,1196.33 1921.59,1193.22 1921.58,1190.1 1921.49,1186.98 1921.28,1183.87 1920.95,1180.75 1920.48,1177.63 1919.86,1174.51 1919.09,1171.4 1918.18,1168.28 1917.13,1165.16 1915.98,1162.05 1914.74,1158.93 1913.46,1155.81 1912.17,1152.7 1910.92,1149.58 1909.77,1146.46 1908.78,1143.35 1908,1140.23 1907.47,1137.11 1907.23,1134 1907.29,1130.88 1907.66,1127.76 1908.31,1124.65 1909.2,1121.53 1910.26,1118.41 1911.4,1115.3 1912.54,1112.18 1913.56,1109.06 1914.36,1105.95 1914.85,1102.83 1914.94,1099.71 1914.55,1096.6 1913.64,1093.48 1912.18,1090.36 1910.18,1087.24 1907.65,1084.13 1904.66,1081.01 1901.27,1077.89 1897.56,1074.78 1893.64,1071.66 1889.6,1068.54 1885.56,1065.43 1881.59,1062.31 1877.8,1059.19 1874.25,1056.08 1871,1052.96 1868.08,1049.84 1865.51,1046.73 1863.29,1043.61 1861.4,1040.49 1859.82,1037.38 1858.5,1034.26 1857.39,1031.14 1856.46,1028.03 1855.65,1024.91 1834.84,1024.91 1834.03,1028.03 1833.1,1031.14 1831.99,1034.26 1830.67,1037.38 1829.09,1040.49 1827.2,1043.61 1824.98,1046.73 1822.41,1049.84 1819.49,1052.96 1816.24,1056.08 1812.69,1059.19 1808.9,1062.31 1804.93,1065.43 1800.88,1068.54 1796.85,1071.66 1792.93,1074.78 1789.22,1077.89 1785.83,1081.01 1782.83,1084.13 1780.31,1087.24 1778.31,1090.36 1776.85,1093.48 1775.94,1096.6 1775.55,1099.71 1775.64,1102.83 1776.13,1105.95 1776.93,1109.06 1777.95,1112.18 1779.09,1115.3 1780.23,1118.41 1781.29,1121.53 1782.18,1124.65 1782.83,1127.76 1783.2,1130.88 1783.26,1134 1783.02,1137.11 1782.49,1140.23 1781.71,1143.35 1780.72,1146.46 1779.57,1149.58 1778.32,1152.7 1777.03,1155.81 1775.75,1158.93 1774.51,1162.05 1773.36,1165.16 1772.31,1168.28 1771.4,1171.4 1770.63,1174.51 1770.01,1177.63 1769.54,1180.75 1769.2,1183.87 1769,1186.98 1768.91,1190.1 1768.9,1193.22 1768.94,1196.33 1768.98,1199.45 1768.99,1202.57 1768.92,1205.68 1768.71,1208.8 1768.32,1211.92 1767.71,1215.03 1766.85,1218.15 1765.73,1221.27 1764.33,1224.38 1762.66,1227.5 1760.75,1230.62 1758.61,1233.73 1756.28,1236.85 1753.78,1239.97 1751.14,1243.08 1748.36,1246.2 1745.45,1249.32 1742.41,1252.43 1739.2,1255.55 1735.79,1258.67 1732.14,1261.78 1728.18,1264.9 1723.85,1268.02 1719.08,1271.14 1713.82,1274.25 1707.97,1277.37 1701.49,1280.49 1694.29,1283.6 1686.33,1286.72 1677.55,1289.84 1667.89,1292.95 1657.33,1296.07 1645.85,1299.19 1633.44,1302.3 1620.12,1305.42 1605.94,1308.54 1590.95,1311.65 1575.27,1314.77 1559.01,1317.89 1542.34,1321 1525.45,1324.12 1508.56,1327.24 1491.91,1330.35 1475.78,1333.47 1460.45,1336.59 1446.21,1339.7 1433.34,1342.82 1422.12,1345.94 1412.8,1349.05 1405.6,1352.17 1400.67,1355.29 1398.16,1358.41 1398.1,1361.52 1400.5,1364.64 1405.3,1367.76 1412.38,1370.87 1421.56,1373.99 1432.65,1377.11 1445.39,1380.22 1459.53,1383.34 1474.79,1386.46 1490.93,1389.57 1507.69,1392.69 1524.86,1395.81 1542.24,1398.92 1559.67,1402.04 1577.03,1405.16 1594.22,1408.27 1611.15,1411.39 1627.78,1414.51 1644.05,1417.62 1659.92,1420.74 1675.36,1423.86 1690.31,1426.97 1704.73,1430.09 1718.58,1433.21 1731.78,1436.32 1744.3,1439.44 1756.07,1442.56 1767.05,1445.68 1923.44,1445.68 "/>
</svg>
