<?xml version="1.0" encoding="utf-8"?>
<svg xmlns="http://www.w3.org/2000/svg" xmlns:xlink="http://www.w3.org/1999/xlink" width="600" height="400" viewBox="0 0 2400 1600">
<defs>
  <clipPath id="clip970">
    <rect x="0" y="0" width="2400" height="1600"/>
  </clipPath>
</defs>
<path clip-path="url(#clip970)" d="M0 1600 L2400 1600 L2400 8.88178e-14 L0 8.88178e-14  Z" fill="#ffffff" fill-rule="evenodd" fill-opacity="1"/>
<defs>
  <clipPath id="clip971">
    <rect x="480" y="0" width="1681" height="1600"/>
  </clipPath>
</defs>
<path clip-path="url(#clip970)" d="M202.135 1423.18 L2352.76 1423.18 L2352.76 123.472 L202.135 123.472  Z" fill="#ffffff" fill-rule="evenodd" fill-opacity="1"/>
<defs>
  <clipPath id="clip972">
    <rect x="202" y="123" width="2152" height="1301"/>
  </clipPath>
</defs>
<polyline clip-path="url(#clip972)" style="stroke:#000000; stroke-linecap:round; stroke-linejoin:round; stroke-width:2; stroke-opacity:0.1; fill:none" points="611.691,1423.18 611.691,123.472 "/>
<polyline clip-path="url(#clip972)" style="stroke:#000000; stroke-linecap:round; stroke-linejoin:round; stroke-width:2; stroke-opacity:0.1; fill:none" points="1027.79,1423.18 1027.79,123.472 "/>
<polyline clip-path="url(#clip972)" style="stroke:#000000; stroke-linecap:round; stroke-linejoin:round; stroke-width:2; stroke-opacity:0.1; fill:none" points="1443.88,1423.18 1443.88,123.472 "/>
<polyline clip-path="url(#clip972)" style="stroke:#000000; stroke-linecap:round; stroke-linejoin:round; stroke-width:2; stroke-opacity:0.1; fill:none" points="1859.98,1423.18 1859.98,123.472 "/>
<polyline clip-path="url(#clip972)" style="stroke:#000000; stroke-linecap:round; stroke-linejoin:round; stroke-width:2; stroke-opacity:0.1; fill:none" points="2276.08,1423.18 2276.08,123.472 "/>
<polyline clip-path="url(#clip970)" style="stroke:#000000; stroke-linecap:round; stroke-linejoin:round; stroke-width:4; stroke-opacity:1; fill:none" points="202.135,1423.18 2352.76,1423.18 "/>
<polyline clip-path="url(#clip970)" style="stroke:#000000; stroke-linecap:round; stroke-linejoin:round; stroke-width:4; stroke-opacity:1; fill:none" points="611.691,1423.18 611.691,1404.28 "/>
<polyline clip-path="url(#clip970)" style="stroke:#000000; stroke-linecap:round; stroke-linejoin:round; stroke-width:4; stroke-opacity:1; fill:none" points="1027.79,1423.18 1027.79,1404.28 "/>
<polyline clip-path="url(#clip970)" style="stroke:#000000; stroke-linecap:round; stroke-linejoin:round; stroke-width:4; stroke-opacity:1; fill:none" points="1443.88,1423.18 1443.88,1404.28 "/>
<polyline clip-path="url(#clip970)" style="stroke:#000000; stroke-linecap:round; stroke-linejoin:round; stroke-width:4; stroke-opacity:1; fill:none" points="1859.98,1423.18 1859.98,1404.28 "/>
<polyline clip-path="url(#clip970)" style="stroke:#000000; stroke-linecap:round; stroke-linejoin:round; stroke-width:4; stroke-opacity:1; fill:none" points="2276.08,1423.18 2276.08,1404.28 "/>
<path clip-path="url(#clip970)" d="M589.874 1454.1 Q586.262 1454.1 584.434 1457.66 Q582.628 1461.2 582.628 1468.33 Q582.628 1475.44 584.434 1479.01 Q586.262 1482.55 589.874 1482.55 Q593.508 1482.55 595.313 1479.01 Q597.142 1475.44 597.142 1468.33 Q597.142 1461.2 595.313 1457.66 Q593.508 1454.1 589.874 1454.1 M589.874 1450.39 Q595.684 1450.39 598.739 1455 Q601.818 1459.58 601.818 1468.33 Q601.818 1477.06 598.739 1481.67 Q595.684 1486.25 589.874 1486.25 Q584.063 1486.25 580.985 1481.67 Q577.929 1477.06 577.929 1468.33 Q577.929 1459.58 580.985 1455 Q584.063 1450.39 589.874 1450.39 Z" fill="#000000" fill-rule="nonzero" fill-opacity="1" /><path clip-path="url(#clip970)" d="M610.036 1479.7 L614.92 1479.7 L614.92 1485.58 L610.036 1485.58 L610.036 1479.7 Z" fill="#000000" fill-rule="nonzero" fill-opacity="1" /><path clip-path="url(#clip970)" d="M629.133 1481.64 L645.452 1481.64 L645.452 1485.58 L623.508 1485.58 L623.508 1481.64 Q626.17 1478.89 630.753 1474.26 Q635.359 1469.61 636.54 1468.27 Q638.785 1465.74 639.665 1464.01 Q640.568 1462.25 640.568 1460.56 Q640.568 1457.8 638.623 1456.07 Q636.702 1454.33 633.6 1454.33 Q631.401 1454.33 628.947 1455.09 Q626.517 1455.86 623.739 1457.41 L623.739 1452.69 Q626.563 1451.55 629.017 1450.97 Q631.471 1450.39 633.508 1450.39 Q638.878 1450.39 642.072 1453.08 Q645.267 1455.77 645.267 1460.26 Q645.267 1462.39 644.457 1464.31 Q643.67 1466.2 641.563 1468.8 Q640.984 1469.47 637.883 1472.69 Q634.781 1475.88 629.133 1481.64 Z" fill="#000000" fill-rule="nonzero" fill-opacity="1" /><path clip-path="url(#clip970)" d="M1004.93 1454.1 Q1001.32 1454.1 999.489 1457.66 Q997.683 1461.2 997.683 1468.33 Q997.683 1475.44 999.489 1479.01 Q1001.32 1482.55 1004.93 1482.55 Q1008.56 1482.55 1010.37 1479.01 Q1012.2 1475.44 1012.2 1468.33 Q1012.2 1461.2 1010.37 1457.66 Q1008.56 1454.1 1004.93 1454.1 M1004.93 1450.39 Q1010.74 1450.39 1013.79 1455 Q1016.87 1459.58 1016.87 1468.33 Q1016.87 1477.06 1013.79 1481.67 Q1010.74 1486.25 1004.93 1486.25 Q999.119 1486.25 996.04 1481.67 Q992.984 1477.06 992.984 1468.33 Q992.984 1459.58 996.04 1455 Q999.119 1450.39 1004.93 1450.39 Z" fill="#000000" fill-rule="nonzero" fill-opacity="1" /><path clip-path="url(#clip970)" d="M1025.09 1479.7 L1029.97 1479.7 L1029.97 1485.58 L1025.09 1485.58 L1025.09 1479.7 Z" fill="#000000" fill-rule="nonzero" fill-opacity="1" /><path clip-path="url(#clip970)" d="M1053.01 1455.09 L1041.2 1473.54 L1053.01 1473.54 L1053.01 1455.09 M1051.78 1451.02 L1057.66 1451.02 L1057.66 1473.54 L1062.59 1473.54 L1062.59 1477.43 L1057.66 1477.43 L1057.66 1485.58 L1053.01 1485.58 L1053.01 1477.43 L1037.41 1477.43 L1037.41 1472.92 L1051.78 1451.02 Z" fill="#000000" fill-rule="nonzero" fill-opacity="1" /><path clip-path="url(#clip970)" d="M1421.19 1454.1 Q1417.58 1454.1 1415.75 1457.66 Q1413.94 1461.2 1413.94 1468.33 Q1413.94 1475.44 1415.75 1479.01 Q1417.58 1482.55 1421.19 1482.55 Q1424.82 1482.55 1426.63 1479.01 Q1428.46 1475.44 1428.46 1468.33 Q1428.46 1461.2 1426.63 1457.66 Q1424.82 1454.1 1421.19 1454.1 M1421.19 1450.39 Q1427 1450.39 1430.05 1455 Q1433.13 1459.58 1433.13 1468.33 Q1433.13 1477.06 1430.05 1481.67 Q1427 1486.25 1421.19 1486.25 Q1415.38 1486.25 1412.3 1481.67 Q1409.24 1477.06 1409.24 1468.33 Q1409.24 1459.58 1412.3 1455 Q1415.38 1450.39 1421.19 1450.39 Z" fill="#000000" fill-rule="nonzero" fill-opacity="1" /><path clip-path="url(#clip970)" d="M1441.35 1479.7 L1446.23 1479.7 L1446.23 1485.58 L1441.35 1485.58 L1441.35 1479.7 Z" fill="#000000" fill-rule="nonzero" fill-opacity="1" /><path clip-path="url(#clip970)" d="M1467 1466.44 Q1463.85 1466.44 1462 1468.59 Q1460.17 1470.74 1460.17 1474.49 Q1460.17 1478.22 1462 1480.39 Q1463.85 1482.55 1467 1482.55 Q1470.15 1482.55 1471.97 1480.39 Q1473.83 1478.22 1473.83 1474.49 Q1473.83 1470.74 1471.97 1468.59 Q1470.15 1466.44 1467 1466.44 M1476.28 1451.78 L1476.28 1456.04 Q1474.52 1455.21 1472.71 1454.77 Q1470.93 1454.33 1469.17 1454.33 Q1464.54 1454.33 1462.09 1457.45 Q1459.66 1460.58 1459.31 1466.9 Q1460.68 1464.89 1462.74 1463.82 Q1464.8 1462.73 1467.28 1462.73 Q1472.48 1462.73 1475.49 1465.9 Q1478.53 1469.05 1478.53 1474.49 Q1478.53 1479.82 1475.38 1483.03 Q1472.23 1486.25 1467 1486.25 Q1461 1486.25 1457.83 1481.67 Q1454.66 1477.06 1454.66 1468.33 Q1454.66 1460.14 1458.55 1455.28 Q1462.44 1450.39 1468.99 1450.39 Q1470.75 1450.39 1472.53 1450.74 Q1474.34 1451.09 1476.28 1451.78 Z" fill="#000000" fill-rule="nonzero" fill-opacity="1" /><path clip-path="url(#clip970)" d="M1837.41 1454.1 Q1833.8 1454.1 1831.97 1457.66 Q1830.17 1461.2 1830.17 1468.33 Q1830.17 1475.44 1831.97 1479.01 Q1833.8 1482.55 1837.41 1482.55 Q1841.05 1482.55 1842.85 1479.01 Q1844.68 1475.44 1844.68 1468.33 Q1844.68 1461.2 1842.85 1457.66 Q1841.05 1454.1 1837.41 1454.1 M1837.41 1450.39 Q1843.22 1450.39 1846.28 1455 Q1849.36 1459.58 1849.36 1468.33 Q1849.36 1477.06 1846.28 1481.67 Q1843.22 1486.25 1837.41 1486.25 Q1831.6 1486.25 1828.52 1481.67 Q1825.47 1477.06 1825.47 1468.33 Q1825.47 1459.58 1828.52 1455 Q1831.6 1450.39 1837.41 1450.39 Z" fill="#000000" fill-rule="nonzero" fill-opacity="1" /><path clip-path="url(#clip970)" d="M1857.57 1479.7 L1862.46 1479.7 L1862.46 1485.58 L1857.57 1485.58 L1857.57 1479.7 Z" fill="#000000" fill-rule="nonzero" fill-opacity="1" /><path clip-path="url(#clip970)" d="M1882.64 1469.17 Q1879.31 1469.17 1877.39 1470.95 Q1875.49 1472.73 1875.49 1475.86 Q1875.49 1478.98 1877.39 1480.77 Q1879.31 1482.55 1882.64 1482.55 Q1885.98 1482.55 1887.9 1480.77 Q1889.82 1478.96 1889.82 1475.86 Q1889.82 1472.73 1887.9 1470.95 Q1886 1469.17 1882.64 1469.17 M1877.97 1467.18 Q1874.96 1466.44 1873.27 1464.38 Q1871.6 1462.32 1871.6 1459.35 Q1871.6 1455.21 1874.54 1452.8 Q1877.5 1450.39 1882.64 1450.39 Q1887.8 1450.39 1890.74 1452.8 Q1893.68 1455.21 1893.68 1459.35 Q1893.68 1462.32 1891.99 1464.38 Q1890.33 1466.44 1887.34 1467.18 Q1890.72 1467.96 1892.6 1470.26 Q1894.49 1472.55 1894.49 1475.86 Q1894.49 1480.88 1891.42 1483.57 Q1888.36 1486.25 1882.64 1486.25 Q1876.93 1486.25 1873.85 1483.57 Q1870.79 1480.88 1870.79 1475.86 Q1870.79 1472.55 1872.69 1470.26 Q1874.59 1467.96 1877.97 1467.18 M1876.25 1459.79 Q1876.25 1462.48 1877.92 1463.98 Q1879.61 1465.49 1882.64 1465.49 Q1885.65 1465.49 1887.34 1463.98 Q1889.05 1462.48 1889.05 1459.79 Q1889.05 1457.11 1887.34 1455.6 Q1885.65 1454.1 1882.64 1454.1 Q1879.61 1454.1 1877.92 1455.6 Q1876.25 1457.11 1876.25 1459.79 Z" fill="#000000" fill-rule="nonzero" fill-opacity="1" /><path clip-path="url(#clip970)" d="M2243.23 1481.64 L2250.87 1481.64 L2250.87 1455.28 L2242.56 1456.95 L2242.56 1452.69 L2250.82 1451.02 L2255.5 1451.02 L2255.5 1481.64 L2263.14 1481.64 L2263.14 1485.58 L2243.23 1485.58 L2243.23 1481.64 Z" fill="#000000" fill-rule="nonzero" fill-opacity="1" /><path clip-path="url(#clip970)" d="M2272.58 1479.7 L2277.47 1479.7 L2277.47 1485.58 L2272.58 1485.58 L2272.58 1479.7 Z" fill="#000000" fill-rule="nonzero" fill-opacity="1" /><path clip-path="url(#clip970)" d="M2297.65 1454.1 Q2294.04 1454.1 2292.21 1457.66 Q2290.41 1461.2 2290.41 1468.33 Q2290.41 1475.44 2292.21 1479.01 Q2294.04 1482.55 2297.65 1482.55 Q2301.29 1482.55 2303.09 1479.01 Q2304.92 1475.44 2304.92 1468.33 Q2304.92 1461.2 2303.09 1457.66 Q2301.29 1454.1 2297.65 1454.1 M2297.65 1450.39 Q2303.46 1450.39 2306.52 1455 Q2309.6 1459.58 2309.6 1468.33 Q2309.6 1477.06 2306.52 1481.67 Q2303.46 1486.25 2297.65 1486.25 Q2291.84 1486.25 2288.76 1481.67 Q2285.71 1477.06 2285.71 1468.33 Q2285.71 1459.58 2288.76 1455 Q2291.84 1450.39 2297.65 1450.39 Z" fill="#000000" fill-rule="nonzero" fill-opacity="1" /><path clip-path="url(#clip970)" d="M1198.99 1533.45 L1198.99 1538.98 Q1196.51 1537.71 1193.83 1537.07 Q1191.16 1536.44 1188.29 1536.44 Q1183.93 1536.44 1181.74 1537.77 Q1179.57 1539.11 1179.57 1541.79 Q1179.57 1543.82 1181.13 1545 Q1182.69 1546.15 1187.4 1547.2 L1189.41 1547.64 Q1195.65 1548.98 1198.26 1551.43 Q1200.9 1553.85 1200.9 1558.21 Q1200.9 1563.17 1196.95 1566.07 Q1193.04 1568.97 1186.16 1568.97 Q1183.3 1568.97 1180.18 1568.39 Q1177.09 1567.85 1173.65 1566.74 L1173.65 1560.69 Q1176.9 1562.38 1180.05 1563.24 Q1183.2 1564.07 1186.29 1564.07 Q1190.43 1564.07 1192.65 1562.66 Q1194.88 1561.23 1194.88 1558.65 Q1194.88 1556.27 1193.26 1554.99 Q1191.67 1553.72 1186.22 1552.54 L1184.19 1552.07 Q1178.75 1550.92 1176.33 1548.56 Q1173.91 1546.18 1173.91 1542.04 Q1173.91 1537.01 1177.47 1534.27 Q1181.04 1531.54 1187.59 1531.54 Q1190.84 1531.54 1193.7 1532.01 Q1196.57 1532.49 1198.99 1533.45 Z" fill="#000000" fill-rule="nonzero" fill-opacity="1" /><path clip-path="url(#clip970)" d="M1210.48 1520.52 L1220.06 1520.52 L1232.19 1552.86 L1244.38 1520.52 L1253.96 1520.52 L1253.96 1568.04 L1247.69 1568.04 L1247.69 1526.32 L1235.43 1558.91 L1228.97 1558.91 L1216.72 1526.32 L1216.72 1568.04 L1210.48 1568.04 L1210.48 1520.52 Z" fill="#000000" fill-rule="nonzero" fill-opacity="1" /><path clip-path="url(#clip970)" d="M1282.6 1526.86 L1273.88 1550.51 L1291.35 1550.51 L1282.6 1526.86 M1278.97 1520.52 L1286.26 1520.52 L1304.37 1568.04 L1297.69 1568.04 L1293.36 1555.85 L1271.94 1555.85 L1267.61 1568.04 L1260.83 1568.04 L1278.97 1520.52 Z" fill="#000000" fill-rule="nonzero" fill-opacity="1" /><path clip-path="url(#clip970)" d="M1317.74 1525.81 L1317.74 1543.66 L1325.82 1543.66 Q1330.31 1543.66 1332.76 1541.34 Q1335.21 1539.02 1335.21 1534.72 Q1335.21 1530.45 1332.76 1528.13 Q1330.31 1525.81 1325.82 1525.81 L1317.74 1525.81 M1311.31 1520.52 L1325.82 1520.52 Q1333.81 1520.52 1337.89 1524.15 Q1341.99 1527.75 1341.99 1534.72 Q1341.99 1541.75 1337.89 1545.35 Q1333.81 1548.95 1325.82 1548.95 L1317.74 1548.95 L1317.74 1568.04 L1311.31 1568.04 L1311.31 1520.52 Z" fill="#000000" fill-rule="nonzero" fill-opacity="1" /><path clip-path="url(#clip970)" d="M1350.62 1520.52 L1380.67 1520.52 L1380.67 1525.93 L1357.05 1525.93 L1357.05 1540 L1379.68 1540 L1379.68 1545.41 L1357.05 1545.41 L1357.05 1562.63 L1381.24 1562.63 L1381.24 1568.04 L1350.62 1568.04 L1350.62 1520.52 Z" fill="#000000" fill-rule="nonzero" fill-opacity="1" /><polyline clip-path="url(#clip972)" style="stroke:#000000; stroke-linecap:round; stroke-linejoin:round; stroke-width:2; stroke-opacity:0.1; fill:none" points="202.135,1423.18 2352.76,1423.18 "/>
<polyline clip-path="url(#clip972)" style="stroke:#000000; stroke-linecap:round; stroke-linejoin:round; stroke-width:2; stroke-opacity:0.1; fill:none" points="202.135,1206.56 2352.76,1206.56 "/>
<polyline clip-path="url(#clip972)" style="stroke:#000000; stroke-linecap:round; stroke-linejoin:round; stroke-width:2; stroke-opacity:0.1; fill:none" points="202.135,989.944 2352.76,989.944 "/>
<polyline clip-path="url(#clip972)" style="stroke:#000000; stroke-linecap:round; stroke-linejoin:round; stroke-width:2; stroke-opacity:0.1; fill:none" points="202.135,773.326 2352.76,773.326 "/>
<polyline clip-path="url(#clip972)" style="stroke:#000000; stroke-linecap:round; stroke-linejoin:round; stroke-width:2; stroke-opacity:0.1; fill:none" points="202.135,556.708 2352.76,556.708 "/>
<polyline clip-path="url(#clip972)" style="stroke:#000000; stroke-linecap:round; stroke-linejoin:round; stroke-width:2; stroke-opacity:0.1; fill:none" points="202.135,340.09 2352.76,340.09 "/>
<polyline clip-path="url(#clip972)" style="stroke:#000000; stroke-linecap:round; stroke-linejoin:round; stroke-width:2; stroke-opacity:0.1; fill:none" points="202.135,123.472 2352.76,123.472 "/>
<polyline clip-path="url(#clip970)" style="stroke:#000000; stroke-linecap:round; stroke-linejoin:round; stroke-width:4; stroke-opacity:1; fill:none" points="202.135,1423.18 202.135,123.472 "/>
<polyline clip-path="url(#clip970)" style="stroke:#000000; stroke-linecap:round; stroke-linejoin:round; stroke-width:4; stroke-opacity:1; fill:none" points="202.135,1423.18 221.033,1423.18 "/>
<polyline clip-path="url(#clip970)" style="stroke:#000000; stroke-linecap:round; stroke-linejoin:round; stroke-width:4; stroke-opacity:1; fill:none" points="202.135,1206.56 221.033,1206.56 "/>
<polyline clip-path="url(#clip970)" style="stroke:#000000; stroke-linecap:round; stroke-linejoin:round; stroke-width:4; stroke-opacity:1; fill:none" points="202.135,989.944 221.033,989.944 "/>
<polyline clip-path="url(#clip970)" style="stroke:#000000; stroke-linecap:round; stroke-linejoin:round; stroke-width:4; stroke-opacity:1; fill:none" points="202.135,773.326 221.033,773.326 "/>
<polyline clip-path="url(#clip970)" style="stroke:#000000; stroke-linecap:round; stroke-linejoin:round; stroke-width:4; stroke-opacity:1; fill:none" points="202.135,556.708 221.033,556.708 "/>
<polyline clip-path="url(#clip970)" style="stroke:#000000; stroke-linecap:round; stroke-linejoin:round; stroke-width:4; stroke-opacity:1; fill:none" points="202.135,340.09 221.033,340.09 "/>
<polyline clip-path="url(#clip970)" style="stroke:#000000; stroke-linecap:round; stroke-linejoin:round; stroke-width:4; stroke-opacity:1; fill:none" points="202.135,123.472 221.033,123.472 "/>
<path clip-path="url(#clip970)" d="M154.19 1408.98 Q150.579 1408.98 148.751 1412.54 Q146.945 1416.08 146.945 1423.21 Q146.945 1430.32 148.751 1433.89 Q150.579 1437.43 154.19 1437.43 Q157.825 1437.43 159.63 1433.89 Q161.459 1430.32 161.459 1423.21 Q161.459 1416.08 159.63 1412.54 Q157.825 1408.98 154.19 1408.98 M154.19 1405.27 Q160.001 1405.27 163.056 1409.88 Q166.135 1414.46 166.135 1423.21 Q166.135 1431.94 163.056 1436.55 Q160.001 1441.13 154.19 1441.13 Q148.38 1441.13 145.302 1436.55 Q142.246 1431.94 142.246 1423.21 Q142.246 1414.46 145.302 1409.88 Q148.38 1405.27 154.19 1405.27 Z" fill="#000000" fill-rule="nonzero" fill-opacity="1" /><path clip-path="url(#clip970)" d="M159.005 1205.21 Q162.362 1205.93 164.237 1208.19 Q166.135 1210.46 166.135 1213.8 Q166.135 1218.91 162.616 1221.71 Q159.098 1224.51 152.616 1224.51 Q150.441 1224.51 148.126 1224.07 Q145.834 1223.66 143.38 1222.8 L143.38 1218.29 Q145.325 1219.42 147.64 1220 Q149.954 1220.58 152.478 1220.58 Q156.876 1220.58 159.167 1218.84 Q161.482 1217.11 161.482 1213.8 Q161.482 1210.74 159.329 1209.03 Q157.2 1207.29 153.38 1207.29 L149.353 1207.29 L149.353 1203.45 L153.566 1203.45 Q157.015 1203.45 158.843 1202.08 Q160.672 1200.69 160.672 1198.1 Q160.672 1195.44 158.774 1194.03 Q156.899 1192.59 153.38 1192.59 Q151.459 1192.59 149.26 1193.01 Q147.061 1193.43 144.422 1194.31 L144.422 1190.14 Q147.084 1189.4 149.399 1189.03 Q151.737 1188.66 153.797 1188.66 Q159.121 1188.66 162.223 1191.09 Q165.325 1193.49 165.325 1197.62 Q165.325 1200.49 163.681 1202.48 Q162.038 1204.44 159.005 1205.21 Z" fill="#000000" fill-rule="nonzero" fill-opacity="1" /><path clip-path="url(#clip970)" d="M154.607 988.081 Q151.459 988.081 149.607 990.233 Q147.778 992.386 147.778 996.136 Q147.778 999.863 149.607 1002.04 Q151.459 1004.19 154.607 1004.19 Q157.755 1004.19 159.584 1002.04 Q161.436 999.863 161.436 996.136 Q161.436 992.386 159.584 990.233 Q157.755 988.081 154.607 988.081 M163.89 973.428 L163.89 977.687 Q162.13 976.854 160.325 976.414 Q158.542 975.974 156.783 975.974 Q152.153 975.974 149.7 979.099 Q147.269 982.224 146.922 988.543 Q148.288 986.53 150.348 985.465 Q152.408 984.377 154.885 984.377 Q160.093 984.377 163.102 987.548 Q166.135 990.696 166.135 996.136 Q166.135 1001.46 162.987 1004.68 Q159.839 1007.9 154.607 1007.9 Q148.612 1007.9 145.441 1003.31 Q142.269 998.705 142.269 989.979 Q142.269 981.784 146.158 976.923 Q150.047 972.039 156.598 972.039 Q158.357 972.039 160.14 972.386 Q161.945 972.733 163.89 973.428 Z" fill="#000000" fill-rule="nonzero" fill-opacity="1" /><path clip-path="url(#clip970)" d="M144.515 789.888 L144.515 785.629 Q146.274 786.462 148.079 786.902 Q149.885 787.342 151.621 787.342 Q156.251 787.342 158.681 784.24 Q161.135 781.115 161.482 774.773 Q160.14 776.763 158.079 777.828 Q156.019 778.893 153.519 778.893 Q148.334 778.893 145.302 775.768 Q142.292 772.62 142.292 767.18 Q142.292 761.856 145.441 758.639 Q148.589 755.421 153.82 755.421 Q159.815 755.421 162.964 760.027 Q166.135 764.611 166.135 773.361 Q166.135 781.532 162.246 786.416 Q158.38 791.277 151.829 791.277 Q150.07 791.277 148.265 790.93 Q146.459 790.583 144.515 789.888 M153.82 775.236 Q156.968 775.236 158.797 773.083 Q160.649 770.93 160.649 767.18 Q160.649 763.453 158.797 761.301 Q156.968 759.125 153.82 759.125 Q150.672 759.125 148.82 761.301 Q146.991 763.453 146.991 767.18 Q146.991 770.93 148.82 773.083 Q150.672 775.236 153.82 775.236 Z" fill="#000000" fill-rule="nonzero" fill-opacity="1" /><path clip-path="url(#clip970)" d="M116.436 570.053 L124.075 570.053 L124.075 543.687 L115.765 545.354 L115.765 541.095 L124.029 539.428 L128.705 539.428 L128.705 570.053 L136.343 570.053 L136.343 573.988 L116.436 573.988 L116.436 570.053 Z" fill="#000000" fill-rule="nonzero" fill-opacity="1" /><path clip-path="url(#clip970)" d="M149.816 570.053 L166.135 570.053 L166.135 573.988 L144.191 573.988 L144.191 570.053 Q146.853 567.298 151.436 562.669 Q156.042 558.016 157.223 556.673 Q159.468 554.15 160.348 552.414 Q161.251 550.655 161.251 548.965 Q161.251 546.21 159.306 544.474 Q157.385 542.738 154.283 542.738 Q152.084 542.738 149.63 543.502 Q147.2 544.266 144.422 545.817 L144.422 541.095 Q147.246 539.96 149.7 539.382 Q152.153 538.803 154.19 538.803 Q159.561 538.803 162.755 541.488 Q165.95 544.173 165.95 548.664 Q165.95 550.794 165.14 552.715 Q164.352 554.613 162.246 557.206 Q161.667 557.877 158.565 561.095 Q155.464 564.289 149.816 570.053 Z" fill="#000000" fill-rule="nonzero" fill-opacity="1" /><path clip-path="url(#clip970)" d="M115.834 353.435 L123.473 353.435 L123.473 327.069 L115.163 328.736 L115.163 324.477 L123.427 322.81 L128.103 322.81 L128.103 353.435 L135.742 353.435 L135.742 357.37 L115.834 357.37 L115.834 353.435 Z" fill="#000000" fill-rule="nonzero" fill-opacity="1" /><path clip-path="url(#clip970)" d="M145.232 322.81 L163.589 322.81 L163.589 326.745 L149.515 326.745 L149.515 335.217 Q150.533 334.87 151.552 334.708 Q152.57 334.523 153.589 334.523 Q159.376 334.523 162.755 337.694 Q166.135 340.866 166.135 346.282 Q166.135 351.861 162.663 354.963 Q159.19 358.041 152.871 358.041 Q150.695 358.041 148.427 357.671 Q146.181 357.301 143.774 356.56 L143.774 351.861 Q145.857 352.995 148.079 353.551 Q150.302 354.106 152.778 354.106 Q156.783 354.106 159.121 352 Q161.459 349.893 161.459 346.282 Q161.459 342.671 159.121 340.565 Q156.783 338.458 152.778 338.458 Q150.903 338.458 149.028 338.875 Q147.177 339.291 145.232 340.171 L145.232 322.81 Z" fill="#000000" fill-rule="nonzero" fill-opacity="1" /><path clip-path="url(#clip970)" d="M114.931 136.817 L122.57 136.817 L122.57 110.451 L114.26 112.118 L114.26 107.859 L122.524 106.192 L127.2 106.192 L127.2 136.817 L134.839 136.817 L134.839 140.752 L114.931 140.752 L114.931 136.817 Z" fill="#000000" fill-rule="nonzero" fill-opacity="1" /><path clip-path="url(#clip970)" d="M154.283 124.34 Q150.95 124.34 149.028 126.123 Q147.13 127.905 147.13 131.03 Q147.13 134.155 149.028 135.937 Q150.95 137.72 154.283 137.72 Q157.616 137.72 159.538 135.937 Q161.459 134.132 161.459 131.03 Q161.459 127.905 159.538 126.123 Q157.64 124.34 154.283 124.34 M149.607 122.349 Q146.598 121.609 144.908 119.549 Q143.241 117.488 143.241 114.525 Q143.241 110.382 146.181 107.975 Q149.144 105.567 154.283 105.567 Q159.445 105.567 162.385 107.975 Q165.325 110.382 165.325 114.525 Q165.325 117.488 163.635 119.549 Q161.968 121.609 158.982 122.349 Q162.362 123.136 164.237 125.428 Q166.135 127.72 166.135 131.03 Q166.135 136.053 163.056 138.738 Q160.001 141.423 154.283 141.423 Q148.566 141.423 145.487 138.738 Q142.431 136.053 142.431 131.03 Q142.431 127.72 144.329 125.428 Q146.228 123.136 149.607 122.349 M147.894 114.965 Q147.894 117.65 149.561 119.155 Q151.251 120.66 154.283 120.66 Q157.292 120.66 158.982 119.155 Q160.695 117.65 160.695 114.965 Q160.695 112.28 158.982 110.775 Q157.292 109.271 154.283 109.271 Q151.251 109.271 149.561 110.775 Q147.894 112.28 147.894 114.965 Z" fill="#000000" fill-rule="nonzero" fill-opacity="1" /><path clip-path="url(#clip970)" d="M20.1444 829.185 L26.9239 829.185 Q23.9002 832.432 22.4043 836.124 Q20.9083 839.784 20.9083 843.922 Q20.9083 852.07 25.9054 856.398 Q30.8707 860.727 40.2919 860.727 Q49.6813 860.727 54.6784 856.398 Q59.6436 852.07 59.6436 843.922 Q59.6436 839.784 58.1477 836.124 Q56.6518 832.432 53.6281 829.185 L60.3439 829.185 Q62.6355 832.559 63.7814 836.346 Q64.9272 840.102 64.9272 844.304 Q64.9272 855.093 58.3387 861.3 Q51.7183 867.507 40.2919 867.507 Q28.8336 867.507 22.2451 861.3 Q15.6248 855.093 15.6248 844.304 Q15.6248 840.039 16.7706 836.283 Q17.8846 832.495 20.1444 829.185 Z" fill="#000000" fill-rule="nonzero" fill-opacity="1" /><path clip-path="url(#clip970)" d="M32.4621 805.696 Q32.4621 810.406 36.1542 813.143 Q39.8145 815.881 46.212 815.881 Q52.6095 815.881 56.3017 813.175 Q59.9619 810.438 59.9619 805.696 Q59.9619 801.017 56.2698 798.28 Q52.5777 795.542 46.212 795.542 Q39.8781 795.542 36.186 798.28 Q32.4621 801.017 32.4621 805.696 M27.4968 805.696 Q27.4968 798.057 32.4621 793.696 Q37.4273 789.336 46.212 789.336 Q54.9649 789.336 59.9619 793.696 Q64.9272 798.057 64.9272 805.696 Q64.9272 813.366 59.9619 817.727 Q54.9649 822.055 46.212 822.055 Q37.4273 822.055 32.4621 817.727 Q27.4968 813.366 27.4968 805.696 Z" fill="#000000" fill-rule="nonzero" fill-opacity="1" /><path clip-path="url(#clip970)" d="M49.9359 780.233 L28.3562 780.233 L28.3562 774.376 L49.7131 774.376 Q54.7739 774.376 57.3202 772.403 Q59.8346 770.43 59.8346 766.483 Q59.8346 761.74 56.8109 759.003 Q53.7872 756.234 48.5673 756.234 L28.3562 756.234 L28.3562 750.378 L64.0042 750.378 L64.0042 756.234 L58.5296 756.234 Q61.7762 758.367 63.3676 761.199 Q64.9272 764 64.9272 767.724 Q64.9272 773.867 61.1078 777.05 Q57.2883 780.233 49.9359 780.233 M27.4968 765.496 L27.4968 765.496 Z" fill="#000000" fill-rule="nonzero" fill-opacity="1" /><path clip-path="url(#clip970)" d="M42.4881 708.682 L64.0042 708.682 L64.0042 714.539 L42.679 714.539 Q37.6183 714.539 35.1038 716.512 Q32.5894 718.485 32.5894 722.432 Q32.5894 727.175 35.6131 729.912 Q38.6368 732.649 43.8567 732.649 L64.0042 732.649 L64.0042 738.537 L28.3562 738.537 L28.3562 732.649 L33.8944 732.649 Q30.6797 730.548 29.0883 727.716 Q27.4968 724.851 27.4968 721.127 Q27.4968 714.984 31.3163 711.833 Q35.1038 708.682 42.4881 708.682 Z" fill="#000000" fill-rule="nonzero" fill-opacity="1" /><path clip-path="url(#clip970)" d="M18.2347 691.208 L28.3562 691.208 L28.3562 679.145 L32.9077 679.145 L32.9077 691.208 L52.2594 691.208 Q56.6199 691.208 57.8613 690.031 Q59.1026 688.821 59.1026 685.161 L59.1026 679.145 L64.0042 679.145 L64.0042 685.161 Q64.0042 691.94 61.4897 694.519 Q58.9434 697.097 52.2594 697.097 L32.9077 697.097 L32.9077 701.393 L28.3562 701.393 L28.3562 697.097 L18.2347 697.097 L18.2347 691.208 Z" fill="#000000" fill-rule="nonzero" fill-opacity="1" /><path clip-path="url(#clip970)" d="M726.239 12.096 L758.363 12.096 L758.363 18.9825 L733.733 18.9825 L733.733 33.8088 Q735.515 33.2012 737.298 32.9176 Q739.08 32.5936 740.863 32.5936 Q750.99 32.5936 756.904 38.1433 Q762.819 43.6931 762.819 53.1722 Q762.819 62.9348 756.742 68.3631 Q750.666 73.7508 739.607 73.7508 Q735.799 73.7508 731.829 73.1026 Q727.9 72.4545 723.687 71.1582 L723.687 62.9348 Q727.333 64.9198 731.221 65.892 Q735.11 66.8642 739.445 66.8642 Q746.453 66.8642 750.544 63.1779 Q754.636 59.4916 754.636 53.1722 Q754.636 46.8528 750.544 43.1664 Q746.453 39.4801 739.445 39.4801 Q736.164 39.4801 732.882 40.2093 Q729.642 40.9384 726.239 42.4778 L726.239 12.096 Z" fill="#000000" fill-rule="nonzero" fill-opacity="1" /><path clip-path="url(#clip970)" d="M796.441 17.4837 Q790.122 17.4837 786.921 23.7221 Q783.762 29.92 783.762 42.3968 Q783.762 54.833 786.921 61.0714 Q790.122 67.2693 796.441 67.2693 Q802.801 67.2693 805.961 61.0714 Q809.161 54.833 809.161 42.3968 Q809.161 29.92 805.961 23.7221 Q802.801 17.4837 796.441 17.4837 M796.441 11.0023 Q806.609 11.0023 811.956 19.0636 Q817.344 27.0843 817.344 42.3968 Q817.344 57.6687 811.956 65.73 Q806.609 73.7508 796.441 73.7508 Q786.273 73.7508 780.886 65.73 Q775.538 57.6687 775.538 42.3968 Q775.538 27.0843 780.886 19.0636 Q786.273 11.0023 796.441 11.0023 Z" fill="#000000" fill-rule="nonzero" fill-opacity="1" /><path clip-path="url(#clip970)" d="M848.981 12.096 L900.144 12.096 L900.144 18.9825 L878.674 18.9825 L878.674 72.576 L870.451 72.576 L870.451 18.9825 L848.981 18.9825 L848.981 12.096 Z" fill="#000000" fill-rule="nonzero" fill-opacity="1" /><path clip-path="url(#clip970)" d="M905.167 27.2059 L912.621 27.2059 L912.621 72.576 L905.167 72.576 L905.167 27.2059 M905.167 9.54393 L912.621 9.54393 L912.621 18.9825 L905.167 18.9825 L905.167 9.54393 Z" fill="#000000" fill-rule="nonzero" fill-opacity="1" /><path clip-path="url(#clip970)" d="M963.541 35.9153 Q966.336 30.8922 970.225 28.5022 Q974.114 26.1121 979.38 26.1121 Q986.469 26.1121 990.317 31.0947 Q994.166 36.0368 994.166 45.1919 L994.166 72.576 L986.671 72.576 L986.671 45.4349 Q986.671 38.913 984.362 35.7533 Q982.053 32.5936 977.314 32.5936 Q971.521 32.5936 968.159 36.4419 Q964.797 40.2903 964.797 46.9338 L964.797 72.576 L957.302 72.576 L957.302 45.4349 Q957.302 38.8725 954.993 35.7533 Q952.684 32.5936 947.864 32.5936 Q942.152 32.5936 938.79 36.4824 Q935.428 40.3308 935.428 46.9338 L935.428 72.576 L927.933 72.576 L927.933 27.2059 L935.428 27.2059 L935.428 34.2544 Q937.98 30.082 941.544 28.0971 Q945.109 26.1121 950.011 26.1121 Q954.953 26.1121 958.396 28.6237 Q961.88 31.1352 963.541 35.9153 Z" fill="#000000" fill-rule="nonzero" fill-opacity="1" /><path clip-path="url(#clip970)" d="M1047.84 48.0275 L1047.84 51.6733 L1013.57 51.6733 Q1014.06 59.3701 1018.19 63.421 Q1022.36 67.4314 1029.77 67.4314 Q1034.07 67.4314 1038.08 66.3781 Q1042.13 65.3249 1046.1 63.2184 L1046.1 70.267 Q1042.09 71.9684 1037.87 72.8596 Q1033.66 73.7508 1029.33 73.7508 Q1018.47 73.7508 1012.11 67.4314 Q1005.79 61.1119 1005.79 50.3365 Q1005.79 39.1965 1011.79 32.6746 Q1017.82 26.1121 1028.03 26.1121 Q1037.19 26.1121 1042.49 32.0264 Q1047.84 37.9003 1047.84 48.0275 M1040.39 45.84 Q1040.31 39.7232 1036.94 36.0774 Q1033.62 32.4315 1028.11 32.4315 Q1021.87 32.4315 1018.11 35.9558 Q1014.38 39.4801 1013.81 45.8805 L1040.39 45.84 Z" fill="#000000" fill-rule="nonzero" fill-opacity="1" /><path clip-path="url(#clip970)" d="M1056.31 46.5287 L1078.14 46.5287 L1078.14 53.1722 L1056.31 53.1722 L1056.31 46.5287 Z" fill="#000000" fill-rule="nonzero" fill-opacity="1" /><path clip-path="url(#clip970)" d="M1098.52 18.8205 L1098.52 41.5461 L1108.81 41.5461 Q1114.52 41.5461 1117.64 38.5889 Q1120.76 35.6318 1120.76 30.163 Q1120.76 24.7348 1117.64 21.7777 Q1114.52 18.8205 1108.81 18.8205 L1098.52 18.8205 M1090.33 12.096 L1108.81 12.096 Q1118.97 12.096 1124.16 16.714 Q1129.38 21.2916 1129.38 30.163 Q1129.38 39.1155 1124.16 43.6931 Q1118.97 48.2706 1108.81 48.2706 L1098.52 48.2706 L1098.52 72.576 L1090.33 72.576 L1090.33 12.096 Z" fill="#000000" fill-rule="nonzero" fill-opacity="1" /><path clip-path="url(#clip970)" d="M1154.66 32.4315 Q1148.67 32.4315 1145.18 37.1306 Q1141.7 41.7891 1141.7 49.9314 Q1141.7 58.0738 1145.14 62.7728 Q1148.63 67.4314 1154.66 67.4314 Q1160.62 67.4314 1164.1 62.7323 Q1167.58 58.0333 1167.58 49.9314 Q1167.58 41.8701 1164.1 37.1711 Q1160.62 32.4315 1154.66 32.4315 M1154.66 26.1121 Q1164.38 26.1121 1169.93 32.4315 Q1175.48 38.7509 1175.48 49.9314 Q1175.48 61.0714 1169.93 67.4314 Q1164.38 73.7508 1154.66 73.7508 Q1144.9 73.7508 1139.35 67.4314 Q1133.84 61.0714 1133.84 49.9314 Q1133.84 38.7509 1139.35 32.4315 Q1144.9 26.1121 1154.66 26.1121 Z" fill="#000000" fill-rule="nonzero" fill-opacity="1" /><path clip-path="url(#clip970)" d="M1187.84 27.2059 L1195.29 27.2059 L1195.29 72.576 L1187.84 72.576 L1187.84 27.2059 M1187.84 9.54393 L1195.29 9.54393 L1195.29 18.9825 L1187.84 18.9825 L1187.84 9.54393 Z" fill="#000000" fill-rule="nonzero" fill-opacity="1" /><path clip-path="url(#clip970)" d="M1248.6 45.1919 L1248.6 72.576 L1241.15 72.576 L1241.15 45.4349 Q1241.15 38.994 1238.64 35.7938 Q1236.13 32.5936 1231.1 32.5936 Q1225.07 32.5936 1221.58 36.4419 Q1218.1 40.2903 1218.1 46.9338 L1218.1 72.576 L1210.61 72.576 L1210.61 27.2059 L1218.1 27.2059 L1218.1 34.2544 Q1220.77 30.163 1224.38 28.1376 Q1228.02 26.1121 1232.76 26.1121 Q1240.58 26.1121 1244.59 30.9732 Q1248.6 35.7938 1248.6 45.1919 Z" fill="#000000" fill-rule="nonzero" fill-opacity="1" /><path clip-path="url(#clip970)" d="M1270.84 14.324 L1270.84 27.2059 L1286.2 27.2059 L1286.2 32.9987 L1270.84 32.9987 L1270.84 57.6282 Q1270.84 63.1779 1272.34 64.7578 Q1273.88 66.3376 1278.54 66.3376 L1286.2 66.3376 L1286.2 72.576 L1278.54 72.576 Q1269.91 72.576 1266.63 69.3758 Q1263.35 66.1351 1263.35 57.6282 L1263.35 32.9987 L1257.88 32.9987 L1257.88 27.2059 L1263.35 27.2059 L1263.35 14.324 L1270.84 14.324 Z" fill="#000000" fill-rule="nonzero" fill-opacity="1" /><path clip-path="url(#clip970)" d="M1367.98 16.7545 L1367.98 25.383 Q1363.85 21.5346 1359.15 19.6307 Q1354.49 17.7268 1349.23 17.7268 Q1338.86 17.7268 1333.35 24.0867 Q1327.84 30.4061 1327.84 42.3968 Q1327.84 54.3469 1333.35 60.7069 Q1338.86 67.0263 1349.23 67.0263 Q1354.49 67.0263 1359.15 65.1223 Q1363.85 63.2184 1367.98 59.3701 L1367.98 67.9175 Q1363.69 70.8341 1358.87 72.2924 Q1354.09 73.7508 1348.74 73.7508 Q1335.01 73.7508 1327.11 65.3654 Q1319.21 56.9395 1319.21 42.3968 Q1319.21 27.8135 1327.11 19.4281 Q1335.01 11.0023 1348.74 11.0023 Q1354.17 11.0023 1358.95 12.4606 Q1363.77 13.8784 1367.98 16.7545 Z" fill="#000000" fill-rule="nonzero" fill-opacity="1" /><path clip-path="url(#clip970)" d="M1397.88 32.4315 Q1391.88 32.4315 1388.4 37.1306 Q1384.92 41.7891 1384.92 49.9314 Q1384.92 58.0738 1388.36 62.7728 Q1391.84 67.4314 1397.88 67.4314 Q1403.83 67.4314 1407.32 62.7323 Q1410.8 58.0333 1410.8 49.9314 Q1410.8 41.8701 1407.32 37.1711 Q1403.83 32.4315 1397.88 32.4315 M1397.88 26.1121 Q1407.6 26.1121 1413.15 32.4315 Q1418.7 38.7509 1418.7 49.9314 Q1418.7 61.0714 1413.15 67.4314 Q1407.6 73.7508 1397.88 73.7508 Q1388.12 73.7508 1382.57 67.4314 Q1377.06 61.0714 1377.06 49.9314 Q1377.06 38.7509 1382.57 32.4315 Q1388.12 26.1121 1397.88 26.1121 Z" fill="#000000" fill-rule="nonzero" fill-opacity="1" /><path clip-path="url(#clip970)" d="M1468.77 45.1919 L1468.77 72.576 L1461.32 72.576 L1461.32 45.4349 Q1461.32 38.994 1458.8 35.7938 Q1456.29 32.5936 1451.27 32.5936 Q1445.23 32.5936 1441.75 36.4419 Q1438.27 40.2903 1438.27 46.9338 L1438.27 72.576 L1430.77 72.576 L1430.77 27.2059 L1438.27 27.2059 L1438.27 34.2544 Q1440.94 30.163 1444.55 28.1376 Q1448.19 26.1121 1452.93 26.1121 Q1460.75 26.1121 1464.76 30.9732 Q1468.77 35.7938 1468.77 45.1919 Z" fill="#000000" fill-rule="nonzero" fill-opacity="1" /><path clip-path="url(#clip970)" d="M1513.49 34.0924 L1513.49 9.54393 L1520.95 9.54393 L1520.95 72.576 L1513.49 72.576 L1513.49 65.7705 Q1511.14 69.8214 1507.54 71.8063 Q1503.97 73.7508 1498.95 73.7508 Q1490.73 73.7508 1485.54 67.1883 Q1480.4 60.6258 1480.4 49.9314 Q1480.4 39.2371 1485.54 32.6746 Q1490.73 26.1121 1498.95 26.1121 Q1503.97 26.1121 1507.54 28.0971 Q1511.14 30.0415 1513.49 34.0924 M1488.09 49.9314 Q1488.09 58.1548 1491.45 62.8538 Q1494.86 67.5124 1500.77 67.5124 Q1506.69 67.5124 1510.09 62.8538 Q1513.49 58.1548 1513.49 49.9314 Q1513.49 41.7081 1510.09 37.0496 Q1506.69 32.3505 1500.77 32.3505 Q1494.86 32.3505 1491.45 37.0496 Q1488.09 41.7081 1488.09 49.9314 Z" fill="#000000" fill-rule="nonzero" fill-opacity="1" /><path clip-path="url(#clip970)" d="M1536.3 27.2059 L1543.75 27.2059 L1543.75 72.576 L1536.3 72.576 L1536.3 27.2059 M1536.3 9.54393 L1543.75 9.54393 L1543.75 18.9825 L1536.3 18.9825 L1536.3 9.54393 Z" fill="#000000" fill-rule="nonzero" fill-opacity="1" /><path clip-path="url(#clip970)" d="M1566.72 14.324 L1566.72 27.2059 L1582.07 27.2059 L1582.07 32.9987 L1566.72 32.9987 L1566.72 57.6282 Q1566.72 63.1779 1568.22 64.7578 Q1569.76 66.3376 1574.42 66.3376 L1582.07 66.3376 L1582.07 72.576 L1574.42 72.576 Q1565.79 72.576 1562.51 69.3758 Q1559.23 66.1351 1559.23 57.6282 L1559.23 32.9987 L1553.76 32.9987 L1553.76 27.2059 L1559.23 27.2059 L1559.23 14.324 L1566.72 14.324 Z" fill="#000000" fill-rule="nonzero" fill-opacity="1" /><path clip-path="url(#clip970)" d="M1591.88 27.2059 L1599.33 27.2059 L1599.33 72.576 L1591.88 72.576 L1591.88 27.2059 M1591.88 9.54393 L1599.33 9.54393 L1599.33 18.9825 L1591.88 18.9825 L1591.88 9.54393 Z" fill="#000000" fill-rule="nonzero" fill-opacity="1" /><path clip-path="url(#clip970)" d="M1632.51 32.4315 Q1626.51 32.4315 1623.03 37.1306 Q1619.54 41.7891 1619.54 49.9314 Q1619.54 58.0738 1622.99 62.7728 Q1626.47 67.4314 1632.51 67.4314 Q1638.46 67.4314 1641.95 62.7323 Q1645.43 58.0333 1645.43 49.9314 Q1645.43 41.8701 1641.95 37.1711 Q1638.46 32.4315 1632.51 32.4315 M1632.51 26.1121 Q1642.23 26.1121 1647.78 32.4315 Q1653.33 38.7509 1653.33 49.9314 Q1653.33 61.0714 1647.78 67.4314 Q1642.23 73.7508 1632.51 73.7508 Q1622.74 73.7508 1617.19 67.4314 Q1611.69 61.0714 1611.69 49.9314 Q1611.69 38.7509 1617.19 32.4315 Q1622.74 26.1121 1632.51 26.1121 Z" fill="#000000" fill-rule="nonzero" fill-opacity="1" /><path clip-path="url(#clip970)" d="M1703.4 45.1919 L1703.4 72.576 L1695.94 72.576 L1695.94 45.4349 Q1695.94 38.994 1693.43 35.7938 Q1690.92 32.5936 1685.9 32.5936 Q1679.86 32.5936 1676.38 36.4419 Q1672.89 40.2903 1672.89 46.9338 L1672.89 72.576 L1665.4 72.576 L1665.4 27.2059 L1672.89 27.2059 L1672.89 34.2544 Q1675.57 30.163 1679.17 28.1376 Q1682.82 26.1121 1687.56 26.1121 Q1695.38 26.1121 1699.39 30.9732 Q1703.4 35.7938 1703.4 45.1919 Z" fill="#000000" fill-rule="nonzero" fill-opacity="1" /><path clip-path="url(#clip970)" d="M1718.26 27.2059 L1725.72 27.2059 L1725.72 72.576 L1718.26 72.576 L1718.26 27.2059 M1718.26 9.54393 L1725.72 9.54393 L1725.72 18.9825 L1718.26 18.9825 L1718.26 9.54393 Z" fill="#000000" fill-rule="nonzero" fill-opacity="1" /><path clip-path="url(#clip970)" d="M1779.03 45.1919 L1779.03 72.576 L1771.57 72.576 L1771.57 45.4349 Q1771.57 38.994 1769.06 35.7938 Q1766.55 32.5936 1761.53 32.5936 Q1755.49 32.5936 1752.01 36.4419 Q1748.53 40.2903 1748.53 46.9338 L1748.53 72.576 L1741.03 72.576 L1741.03 27.2059 L1748.53 27.2059 L1748.53 34.2544 Q1751.2 30.163 1754.8 28.1376 Q1758.45 26.1121 1763.19 26.1121 Q1771.01 26.1121 1775.02 30.9732 Q1779.03 35.7938 1779.03 45.1919 Z" fill="#000000" fill-rule="nonzero" fill-opacity="1" /><path clip-path="url(#clip970)" d="M1823.75 49.3643 Q1823.75 41.2625 1820.39 36.8065 Q1817.07 32.3505 1811.03 32.3505 Q1805.04 32.3505 1801.67 36.8065 Q1798.35 41.2625 1798.35 49.3643 Q1798.35 57.4256 1801.67 61.8816 Q1805.04 66.3376 1811.03 66.3376 Q1817.07 66.3376 1820.39 61.8816 Q1823.75 57.4256 1823.75 49.3643 M1831.2 66.9452 Q1831.2 78.5308 1826.06 84.1616 Q1820.91 89.8329 1810.3 89.8329 Q1806.37 89.8329 1802.89 89.2252 Q1799.4 88.6581 1796.12 87.4428 L1796.12 80.1917 Q1799.4 81.9741 1802.6 82.8248 Q1805.8 83.6755 1809.13 83.6755 Q1816.46 83.6755 1820.1 79.8271 Q1823.75 76.0193 1823.75 68.282 L1823.75 64.5957 Q1821.44 68.6061 1817.84 70.5911 Q1814.23 72.576 1809.21 72.576 Q1800.86 72.576 1795.76 66.2161 Q1790.65 59.8562 1790.65 49.3643 Q1790.65 38.832 1795.76 32.472 Q1800.86 26.1121 1809.21 26.1121 Q1814.23 26.1121 1817.84 28.0971 Q1821.44 30.082 1823.75 34.0924 L1823.75 27.2059 L1831.2 27.2059 L1831.2 66.9452 Z" fill="#000000" fill-rule="nonzero" fill-opacity="1" /><path clip-path="url(#clip972)" d="M320.423 1350.97 L320.423 1423.18 L362.033 1423.18 L362.033 1350.97 L320.423 1350.97 L320.423 1350.97  Z" fill="#009af9" fill-rule="evenodd" fill-opacity="1"/>
<polyline clip-path="url(#clip972)" style="stroke:#000000; stroke-linecap:round; stroke-linejoin:round; stroke-width:4; stroke-opacity:1; fill:none" points="320.423,1350.97 320.423,1423.18 362.033,1423.18 362.033,1350.97 320.423,1350.97 "/>
<path clip-path="url(#clip972)" d="M362.033 1350.97 L362.033 1423.18 L403.642 1423.18 L403.642 1350.97 L362.033 1350.97 L362.033 1350.97  Z" fill="#009af9" fill-rule="evenodd" fill-opacity="1"/>
<polyline clip-path="url(#clip972)" style="stroke:#000000; stroke-linecap:round; stroke-linejoin:round; stroke-width:4; stroke-opacity:1; fill:none" points="362.033,1350.97 362.033,1423.18 403.642,1423.18 403.642,1350.97 362.033,1350.97 "/>
<path clip-path="url(#clip972)" d="M403.642 989.944 L403.642 1423.18 L445.252 1423.18 L445.252 989.944 L403.642 989.944 L403.642 989.944  Z" fill="#009af9" fill-rule="evenodd" fill-opacity="1"/>
<polyline clip-path="url(#clip972)" style="stroke:#000000; stroke-linecap:round; stroke-linejoin:round; stroke-width:4; stroke-opacity:1; fill:none" points="403.642,989.944 403.642,1423.18 445.252,1423.18 445.252,989.944 403.642,989.944 "/>
<path clip-path="url(#clip972)" d="M445.252 484.502 L445.252 1423.18 L486.862 1423.18 L486.862 484.502 L445.252 484.502 L445.252 484.502  Z" fill="#009af9" fill-rule="evenodd" fill-opacity="1"/>
<polyline clip-path="url(#clip972)" style="stroke:#000000; stroke-linecap:round; stroke-linejoin:round; stroke-width:4; stroke-opacity:1; fill:none" points="445.252,484.502 445.252,1423.18 486.862,1423.18 486.862,484.502 445.252,484.502 "/>
<path clip-path="url(#clip972)" d="M486.862 628.914 L486.862 1423.18 L528.471 1423.18 L528.471 628.914 L486.862 628.914 L486.862 628.914  Z" fill="#009af9" fill-rule="evenodd" fill-opacity="1"/>
<polyline clip-path="url(#clip972)" style="stroke:#000000; stroke-linecap:round; stroke-linejoin:round; stroke-width:4; stroke-opacity:1; fill:none" points="486.862,628.914 486.862,1423.18 528.471,1423.18 528.471,628.914 486.862,628.914 "/>
<path clip-path="url(#clip972)" d="M528.471 917.738 L528.471 1423.18 L570.081 1423.18 L570.081 917.738 L528.471 917.738 L528.471 917.738  Z" fill="#009af9" fill-rule="evenodd" fill-opacity="1"/>
<polyline clip-path="url(#clip972)" style="stroke:#000000; stroke-linecap:round; stroke-linejoin:round; stroke-width:4; stroke-opacity:1; fill:none" points="528.471,917.738 528.471,1423.18 570.081,1423.18 570.081,917.738 528.471,917.738 "/>
<path clip-path="url(#clip972)" d="M570.081 628.914 L570.081 1423.18 L611.691 1423.18 L611.691 628.914 L570.081 628.914 L570.081 628.914  Z" fill="#009af9" fill-rule="evenodd" fill-opacity="1"/>
<polyline clip-path="url(#clip972)" style="stroke:#000000; stroke-linecap:round; stroke-linejoin:round; stroke-width:4; stroke-opacity:1; fill:none" points="570.081,628.914 570.081,1423.18 611.691,1423.18 611.691,628.914 570.081,628.914 "/>
<path clip-path="url(#clip972)" d="M611.691 845.532 L611.691 1423.18 L653.3 1423.18 L653.3 845.532 L611.691 845.532 L611.691 845.532  Z" fill="#009af9" fill-rule="evenodd" fill-opacity="1"/>
<polyline clip-path="url(#clip972)" style="stroke:#000000; stroke-linecap:round; stroke-linejoin:round; stroke-width:4; stroke-opacity:1; fill:none" points="611.691,845.532 611.691,1423.18 653.3,1423.18 653.3,845.532 611.691,845.532 "/>
<path clip-path="url(#clip972)" d="M653.3 701.12 L653.3 1423.18 L694.91 1423.18 L694.91 701.12 L653.3 701.12 L653.3 701.12  Z" fill="#009af9" fill-rule="evenodd" fill-opacity="1"/>
<polyline clip-path="url(#clip972)" style="stroke:#000000; stroke-linecap:round; stroke-linejoin:round; stroke-width:4; stroke-opacity:1; fill:none" points="653.3,701.12 653.3,1423.18 694.91,1423.18 694.91,701.12 653.3,701.12 "/>
<path clip-path="url(#clip972)" d="M694.91 628.914 L694.91 1423.18 L736.52 1423.18 L736.52 628.914 L694.91 628.914 L694.91 628.914  Z" fill="#009af9" fill-rule="evenodd" fill-opacity="1"/>
<polyline clip-path="url(#clip972)" style="stroke:#000000; stroke-linecap:round; stroke-linejoin:round; stroke-width:4; stroke-opacity:1; fill:none" points="694.91,628.914 694.91,1423.18 736.52,1423.18 736.52,628.914 694.91,628.914 "/>
<path clip-path="url(#clip972)" d="M736.52 1134.36 L736.52 1423.18 L778.129 1423.18 L778.129 1134.36 L736.52 1134.36 L736.52 1134.36  Z" fill="#009af9" fill-rule="evenodd" fill-opacity="1"/>
<polyline clip-path="url(#clip972)" style="stroke:#000000; stroke-linecap:round; stroke-linejoin:round; stroke-width:4; stroke-opacity:1; fill:none" points="736.52,1134.36 736.52,1423.18 778.129,1423.18 778.129,1134.36 736.52,1134.36 "/>
<path clip-path="url(#clip972)" d="M778.129 1062.15 L778.129 1423.18 L819.739 1423.18 L819.739 1062.15 L778.129 1062.15 L778.129 1062.15  Z" fill="#009af9" fill-rule="evenodd" fill-opacity="1"/>
<polyline clip-path="url(#clip972)" style="stroke:#000000; stroke-linecap:round; stroke-linejoin:round; stroke-width:4; stroke-opacity:1; fill:none" points="778.129,1062.15 778.129,1423.18 819.739,1423.18 819.739,1062.15 778.129,1062.15 "/>
<path clip-path="url(#clip972)" d="M819.739 917.738 L819.739 1423.18 L861.349 1423.18 L861.349 917.738 L819.739 917.738 L819.739 917.738  Z" fill="#009af9" fill-rule="evenodd" fill-opacity="1"/>
<polyline clip-path="url(#clip972)" style="stroke:#000000; stroke-linecap:round; stroke-linejoin:round; stroke-width:4; stroke-opacity:1; fill:none" points="819.739,917.738 819.739,1423.18 861.349,1423.18 861.349,917.738 819.739,917.738 "/>
<path clip-path="url(#clip972)" d="M861.349 1206.56 L861.349 1423.18 L902.958 1423.18 L902.958 1206.56 L861.349 1206.56 L861.349 1206.56  Z" fill="#009af9" fill-rule="evenodd" fill-opacity="1"/>
<polyline clip-path="url(#clip972)" style="stroke:#000000; stroke-linecap:round; stroke-linejoin:round; stroke-width:4; stroke-opacity:1; fill:none" points="861.349,1206.56 861.349,1423.18 902.958,1423.18 902.958,1206.56 861.349,1206.56 "/>
<path clip-path="url(#clip972)" d="M902.958 1134.36 L902.958 1423.18 L944.568 1423.18 L944.568 1134.36 L902.958 1134.36 L902.958 1134.36  Z" fill="#009af9" fill-rule="evenodd" fill-opacity="1"/>
<polyline clip-path="url(#clip972)" style="stroke:#000000; stroke-linecap:round; stroke-linejoin:round; stroke-width:4; stroke-opacity:1; fill:none" points="902.958,1134.36 902.958,1423.18 944.568,1423.18 944.568,1134.36 902.958,1134.36 "/>
<path clip-path="url(#clip972)" d="M944.568 1206.56 L944.568 1423.18 L986.178 1423.18 L986.178 1206.56 L944.568 1206.56 L944.568 1206.56  Z" fill="#009af9" fill-rule="evenodd" fill-opacity="1"/>
<polyline clip-path="url(#clip972)" style="stroke:#000000; stroke-linecap:round; stroke-linejoin:round; stroke-width:4; stroke-opacity:1; fill:none" points="944.568,1206.56 944.568,1423.18 986.178,1423.18 986.178,1206.56 944.568,1206.56 "/>
<path clip-path="url(#clip972)" d="M986.178 1423.18 L986.178 1423.18 L1027.79 1423.18 L1027.79 1423.18 L986.178 1423.18 L986.178 1423.18  Z" fill="#009af9" fill-rule="evenodd" fill-opacity="1"/>
<polyline clip-path="url(#clip972)" style="stroke:#000000; stroke-linecap:round; stroke-linejoin:round; stroke-width:4; stroke-opacity:1; fill:none" points="986.178,1423.18 986.178,1423.18 1027.79,1423.18 986.178,1423.18 "/>
<path clip-path="url(#clip972)" d="M1027.79 1062.15 L1027.79 1423.18 L1069.4 1423.18 L1069.4 1062.15 L1027.79 1062.15 L1027.79 1062.15  Z" fill="#009af9" fill-rule="evenodd" fill-opacity="1"/>
<polyline clip-path="url(#clip972)" style="stroke:#000000; stroke-linecap:round; stroke-linejoin:round; stroke-width:4; stroke-opacity:1; fill:none" points="1027.79,1062.15 1027.79,1423.18 1069.4,1423.18 1069.4,1062.15 1027.79,1062.15 "/>
<path clip-path="url(#clip972)" d="M1069.4 1423.18 L1069.4 1423.18 L1111.01 1423.18 L1111.01 1423.18 L1069.4 1423.18 L1069.4 1423.18  Z" fill="#009af9" fill-rule="evenodd" fill-opacity="1"/>
<polyline clip-path="url(#clip972)" style="stroke:#000000; stroke-linecap:round; stroke-linejoin:round; stroke-width:4; stroke-opacity:1; fill:none" points="1069.4,1423.18 1069.4,1423.18 1111.01,1423.18 1069.4,1423.18 "/>
<path clip-path="url(#clip972)" d="M1111.01 1206.56 L1111.01 1423.18 L1152.62 1423.18 L1152.62 1206.56 L1111.01 1206.56 L1111.01 1206.56  Z" fill="#009af9" fill-rule="evenodd" fill-opacity="1"/>
<polyline clip-path="url(#clip972)" style="stroke:#000000; stroke-linecap:round; stroke-linejoin:round; stroke-width:4; stroke-opacity:1; fill:none" points="1111.01,1206.56 1111.01,1423.18 1152.62,1423.18 1152.62,1206.56 1111.01,1206.56 "/>
<path clip-path="url(#clip972)" d="M1152.62 1206.56 L1152.62 1423.18 L1194.23 1423.18 L1194.23 1206.56 L1152.62 1206.56 L1152.62 1206.56  Z" fill="#009af9" fill-rule="evenodd" fill-opacity="1"/>
<polyline clip-path="url(#clip972)" style="stroke:#000000; stroke-linecap:round; stroke-linejoin:round; stroke-width:4; stroke-opacity:1; fill:none" points="1152.62,1206.56 1152.62,1423.18 1194.23,1423.18 1194.23,1206.56 1152.62,1206.56 "/>
<path clip-path="url(#clip972)" d="M1194.23 1423.18 L1194.23 1423.18 L1235.84 1423.18 L1235.84 1423.18 L1194.23 1423.18 L1194.23 1423.18  Z" fill="#009af9" fill-rule="evenodd" fill-opacity="1"/>
<polyline clip-path="url(#clip972)" style="stroke:#000000; stroke-linecap:round; stroke-linejoin:round; stroke-width:4; stroke-opacity:1; fill:none" points="1194.23,1423.18 1194.23,1423.18 1235.84,1423.18 1194.23,1423.18 "/>
<path clip-path="url(#clip972)" d="M1235.84 1278.77 L1235.84 1423.18 L1277.45 1423.18 L1277.45 1278.77 L1235.84 1278.77 L1235.84 1278.77  Z" fill="#009af9" fill-rule="evenodd" fill-opacity="1"/>
<polyline clip-path="url(#clip972)" style="stroke:#000000; stroke-linecap:round; stroke-linejoin:round; stroke-width:4; stroke-opacity:1; fill:none" points="1235.84,1278.77 1235.84,1423.18 1277.45,1423.18 1277.45,1278.77 1235.84,1278.77 "/>
<path clip-path="url(#clip972)" d="M1277.45 1278.77 L1277.45 1423.18 L1319.06 1423.18 L1319.06 1278.77 L1277.45 1278.77 L1277.45 1278.77  Z" fill="#009af9" fill-rule="evenodd" fill-opacity="1"/>
<polyline clip-path="url(#clip972)" style="stroke:#000000; stroke-linecap:round; stroke-linejoin:round; stroke-width:4; stroke-opacity:1; fill:none" points="1277.45,1278.77 1277.45,1423.18 1319.06,1423.18 1319.06,1278.77 1277.45,1278.77 "/>
<path clip-path="url(#clip972)" d="M1319.06 1278.77 L1319.06 1423.18 L1360.66 1423.18 L1360.66 1278.77 L1319.06 1278.77 L1319.06 1278.77  Z" fill="#009af9" fill-rule="evenodd" fill-opacity="1"/>
<polyline clip-path="url(#clip972)" style="stroke:#000000; stroke-linecap:round; stroke-linejoin:round; stroke-width:4; stroke-opacity:1; fill:none" points="1319.06,1278.77 1319.06,1423.18 1360.66,1423.18 1360.66,1278.77 1319.06,1278.77 "/>
<path clip-path="url(#clip972)" d="M1360.66 1278.77 L1360.66 1423.18 L1402.27 1423.18 L1402.27 1278.77 L1360.66 1278.77 L1360.66 1278.77  Z" fill="#009af9" fill-rule="evenodd" fill-opacity="1"/>
<polyline clip-path="url(#clip972)" style="stroke:#000000; stroke-linecap:round; stroke-linejoin:round; stroke-width:4; stroke-opacity:1; fill:none" points="1360.66,1278.77 1360.66,1423.18 1402.27,1423.18 1402.27,1278.77 1360.66,1278.77 "/>
<path clip-path="url(#clip972)" d="M1402.27 1350.97 L1402.27 1423.18 L1443.88 1423.18 L1443.88 1350.97 L1402.27 1350.97 L1402.27 1350.97  Z" fill="#009af9" fill-rule="evenodd" fill-opacity="1"/>
<polyline clip-path="url(#clip972)" style="stroke:#000000; stroke-linecap:round; stroke-linejoin:round; stroke-width:4; stroke-opacity:1; fill:none" points="1402.27,1350.97 1402.27,1423.18 1443.88,1423.18 1443.88,1350.97 1402.27,1350.97 "/>
<path clip-path="url(#clip972)" d="M1443.88 1423.18 L1443.88 1423.18 L1485.49 1423.18 L1485.49 1423.18 L1443.88 1423.18 L1443.88 1423.18  Z" fill="#009af9" fill-rule="evenodd" fill-opacity="1"/>
<polyline clip-path="url(#clip972)" style="stroke:#000000; stroke-linecap:round; stroke-linejoin:round; stroke-width:4; stroke-opacity:1; fill:none" points="1443.88,1423.18 1443.88,1423.18 1485.49,1423.18 1443.88,1423.18 "/>
<path clip-path="url(#clip972)" d="M1485.49 1350.97 L1485.49 1423.18 L1527.1 1423.18 L1527.1 1350.97 L1485.49 1350.97 L1485.49 1350.97  Z" fill="#009af9" fill-rule="evenodd" fill-opacity="1"/>
<polyline clip-path="url(#clip972)" style="stroke:#000000; stroke-linecap:round; stroke-linejoin:round; stroke-width:4; stroke-opacity:1; fill:none" points="1485.49,1350.97 1485.49,1423.18 1527.1,1423.18 1527.1,1350.97 1485.49,1350.97 "/>
<path clip-path="url(#clip972)" d="M1527.1 1350.97 L1527.1 1423.18 L1568.71 1423.18 L1568.71 1350.97 L1527.1 1350.97 L1527.1 1350.97  Z" fill="#009af9" fill-rule="evenodd" fill-opacity="1"/>
<polyline clip-path="url(#clip972)" style="stroke:#000000; stroke-linecap:round; stroke-linejoin:round; stroke-width:4; stroke-opacity:1; fill:none" points="1527.1,1350.97 1527.1,1423.18 1568.71,1423.18 1568.71,1350.97 1527.1,1350.97 "/>
<path clip-path="url(#clip972)" d="M1568.71 1206.56 L1568.71 1423.18 L1610.32 1423.18 L1610.32 1206.56 L1568.71 1206.56 L1568.71 1206.56  Z" fill="#009af9" fill-rule="evenodd" fill-opacity="1"/>
<polyline clip-path="url(#clip972)" style="stroke:#000000; stroke-linecap:round; stroke-linejoin:round; stroke-width:4; stroke-opacity:1; fill:none" points="1568.71,1206.56 1568.71,1423.18 1610.32,1423.18 1610.32,1206.56 1568.71,1206.56 "/>
<path clip-path="url(#clip972)" d="M1610.32 1350.97 L1610.32 1423.18 L1651.93 1423.18 L1651.93 1350.97 L1610.32 1350.97 L1610.32 1350.97  Z" fill="#009af9" fill-rule="evenodd" fill-opacity="1"/>
<polyline clip-path="url(#clip972)" style="stroke:#000000; stroke-linecap:round; stroke-linejoin:round; stroke-width:4; stroke-opacity:1; fill:none" points="1610.32,1350.97 1610.32,1423.18 1651.93,1423.18 1651.93,1350.97 1610.32,1350.97 "/>
<path clip-path="url(#clip972)" d="M1651.93 1278.77 L1651.93 1423.18 L1693.54 1423.18 L1693.54 1278.77 L1651.93 1278.77 L1651.93 1278.77  Z" fill="#009af9" fill-rule="evenodd" fill-opacity="1"/>
<polyline clip-path="url(#clip972)" style="stroke:#000000; stroke-linecap:round; stroke-linejoin:round; stroke-width:4; stroke-opacity:1; fill:none" points="1651.93,1278.77 1651.93,1423.18 1693.54,1423.18 1693.54,1278.77 1651.93,1278.77 "/>
<path clip-path="url(#clip972)" d="M1693.54 1278.77 L1693.54 1423.18 L1735.15 1423.18 L1735.15 1278.77 L1693.54 1278.77 L1693.54 1278.77  Z" fill="#009af9" fill-rule="evenodd" fill-opacity="1"/>
<polyline clip-path="url(#clip972)" style="stroke:#000000; stroke-linecap:round; stroke-linejoin:round; stroke-width:4; stroke-opacity:1; fill:none" points="1693.54,1278.77 1693.54,1423.18 1735.15,1423.18 1735.15,1278.77 1693.54,1278.77 "/>
<path clip-path="url(#clip972)" d="M1735.15 1423.18 L1735.15 1423.18 L1776.76 1423.18 L1776.76 1423.18 L1735.15 1423.18 L1735.15 1423.18  Z" fill="#009af9" fill-rule="evenodd" fill-opacity="1"/>
<polyline clip-path="url(#clip972)" style="stroke:#000000; stroke-linecap:round; stroke-linejoin:round; stroke-width:4; stroke-opacity:1; fill:none" points="1735.15,1423.18 1735.15,1423.18 1776.76,1423.18 1735.15,1423.18 "/>
<path clip-path="url(#clip972)" d="M1776.76 1206.56 L1776.76 1423.18 L1818.37 1423.18 L1818.37 1206.56 L1776.76 1206.56 L1776.76 1206.56  Z" fill="#009af9" fill-rule="evenodd" fill-opacity="1"/>
<polyline clip-path="url(#clip972)" style="stroke:#000000; stroke-linecap:round; stroke-linejoin:round; stroke-width:4; stroke-opacity:1; fill:none" points="1776.76,1206.56 1776.76,1423.18 1818.37,1423.18 1818.37,1206.56 1776.76,1206.56 "/>
<path clip-path="url(#clip972)" d="M1818.37 1350.97 L1818.37 1423.18 L1859.98 1423.18 L1859.98 1350.97 L1818.37 1350.97 L1818.37 1350.97  Z" fill="#009af9" fill-rule="evenodd" fill-opacity="1"/>
<polyline clip-path="url(#clip972)" style="stroke:#000000; stroke-linecap:round; stroke-linejoin:round; stroke-width:4; stroke-opacity:1; fill:none" points="1818.37,1350.97 1818.37,1423.18 1859.98,1423.18 1859.98,1350.97 1818.37,1350.97 "/>
<path clip-path="url(#clip972)" d="M1859.98 1206.56 L1859.98 1423.18 L1901.59 1423.18 L1901.59 1206.56 L1859.98 1206.56 L1859.98 1206.56  Z" fill="#009af9" fill-rule="evenodd" fill-opacity="1"/>
<polyline clip-path="url(#clip972)" style="stroke:#000000; stroke-linecap:round; stroke-linejoin:round; stroke-width:4; stroke-opacity:1; fill:none" points="1859.98,1206.56 1859.98,1423.18 1901.59,1423.18 1901.59,1206.56 1859.98,1206.56 "/>
<path clip-path="url(#clip972)" d="M1901.59 1350.97 L1901.59 1423.18 L1943.2 1423.18 L1943.2 1350.97 L1901.59 1350.97 L1901.59 1350.97  Z" fill="#009af9" fill-rule="evenodd" fill-opacity="1"/>
<polyline clip-path="url(#clip972)" style="stroke:#000000; stroke-linecap:round; stroke-linejoin:round; stroke-width:4; stroke-opacity:1; fill:none" points="1901.59,1350.97 1901.59,1423.18 1943.2,1423.18 1943.2,1350.97 1901.59,1350.97 "/>
<path clip-path="url(#clip972)" d="M1943.2 1206.56 L1943.2 1423.18 L1984.81 1423.18 L1984.81 1206.56 L1943.2 1206.56 L1943.2 1206.56  Z" fill="#009af9" fill-rule="evenodd" fill-opacity="1"/>
<polyline clip-path="url(#clip972)" style="stroke:#000000; stroke-linecap:round; stroke-linejoin:round; stroke-width:4; stroke-opacity:1; fill:none" points="1943.2,1206.56 1943.2,1423.18 1984.81,1423.18 1984.81,1206.56 1943.2,1206.56 "/>
<path clip-path="url(#clip972)" d="M1984.81 1350.97 L1984.81 1423.18 L2026.42 1423.18 L2026.42 1350.97 L1984.81 1350.97 L1984.81 1350.97  Z" fill="#009af9" fill-rule="evenodd" fill-opacity="1"/>
<polyline clip-path="url(#clip972)" style="stroke:#000000; stroke-linecap:round; stroke-linejoin:round; stroke-width:4; stroke-opacity:1; fill:none" points="1984.81,1350.97 1984.81,1423.18 2026.42,1423.18 2026.42,1350.97 1984.81,1350.97 "/>
<path clip-path="url(#clip972)" d="M2026.42 1423.18 L2026.42 1423.18 L2068.03 1423.18 L2068.03 1423.18 L2026.42 1423.18 L2026.42 1423.18  Z" fill="#009af9" fill-rule="evenodd" fill-opacity="1"/>
<polyline clip-path="url(#clip972)" style="stroke:#000000; stroke-linecap:round; stroke-linejoin:round; stroke-width:4; stroke-opacity:1; fill:none" points="2026.42,1423.18 2026.42,1423.18 2068.03,1423.18 2026.42,1423.18 "/>
<path clip-path="url(#clip972)" d="M2068.03 1423.18 L2068.03 1423.18 L2109.64 1423.18 L2109.64 1423.18 L2068.03 1423.18 L2068.03 1423.18  Z" fill="#009af9" fill-rule="evenodd" fill-opacity="1"/>
<polyline clip-path="url(#clip972)" style="stroke:#000000; stroke-linecap:round; stroke-linejoin:round; stroke-width:4; stroke-opacity:1; fill:none" points="2068.03,1423.18 2068.03,1423.18 2109.64,1423.18 2068.03,1423.18 "/>
<path clip-path="url(#clip972)" d="M2109.64 1350.97 L2109.64 1423.18 L2151.25 1423.18 L2151.25 1350.97 L2109.64 1350.97 L2109.64 1350.97  Z" fill="#009af9" fill-rule="evenodd" fill-opacity="1"/>
<polyline clip-path="url(#clip972)" style="stroke:#000000; stroke-linecap:round; stroke-linejoin:round; stroke-width:4; stroke-opacity:1; fill:none" points="2109.64,1350.97 2109.64,1423.18 2151.25,1423.18 2151.25,1350.97 2109.64,1350.97 "/>
<path clip-path="url(#clip972)" d="M2151.25 1350.97 L2151.25 1423.18 L2192.86 1423.18 L2192.86 1350.97 L2151.25 1350.97 L2151.25 1350.97  Z" fill="#009af9" fill-rule="evenodd" fill-opacity="1"/>
<polyline clip-path="url(#clip972)" style="stroke:#000000; stroke-linecap:round; stroke-linejoin:round; stroke-width:4; stroke-opacity:1; fill:none" points="2151.25,1350.97 2151.25,1423.18 2192.86,1423.18 2192.86,1350.97 2151.25,1350.97 "/>
<path clip-path="url(#clip972)" d="M2192.86 1350.97 L2192.86 1423.18 L2234.47 1423.18 L2234.47 1350.97 L2192.86 1350.97 L2192.86 1350.97  Z" fill="#009af9" fill-rule="evenodd" fill-opacity="1"/>
<polyline clip-path="url(#clip972)" style="stroke:#000000; stroke-linecap:round; stroke-linejoin:round; stroke-width:4; stroke-opacity:1; fill:none" points="2192.86,1350.97 2192.86,1423.18 2234.47,1423.18 2234.47,1350.97 2192.86,1350.97 "/>
<circle clip-path="url(#clip972)" style="fill:#009af9; stroke:none; fill-opacity:0" cx="341.228" cy="1350.97" r="2"/>
<circle clip-path="url(#clip972)" style="fill:#009af9; stroke:none; fill-opacity:0" cx="382.837" cy="1350.97" r="2"/>
<circle clip-path="url(#clip972)" style="fill:#009af9; stroke:none; fill-opacity:0" cx="424.447" cy="989.944" r="2"/>
<circle clip-path="url(#clip972)" style="fill:#009af9; stroke:none; fill-opacity:0" cx="466.057" cy="484.502" r="2"/>
<circle clip-path="url(#clip972)" style="fill:#009af9; stroke:none; fill-opacity:0" cx="507.666" cy="628.914" r="2"/>
<circle clip-path="url(#clip972)" style="fill:#009af9; stroke:none; fill-opacity:0" cx="549.276" cy="917.738" r="2"/>
<circle clip-path="url(#clip972)" style="fill:#009af9; stroke:none; fill-opacity:0" cx="590.886" cy="628.914" r="2"/>
<circle clip-path="url(#clip972)" style="fill:#009af9; stroke:none; fill-opacity:0" cx="632.495" cy="845.532" r="2"/>
<circle clip-path="url(#clip972)" style="fill:#009af9; stroke:none; fill-opacity:0" cx="674.105" cy="701.12" r="2"/>
<circle clip-path="url(#clip972)" style="fill:#009af9; stroke:none; fill-opacity:0" cx="715.715" cy="628.914" r="2"/>
<circle clip-path="url(#clip972)" style="fill:#009af9; stroke:none; fill-opacity:0" cx="757.324" cy="1134.36" r="2"/>
<circle clip-path="url(#clip972)" style="fill:#009af9; stroke:none; fill-opacity:0" cx="798.934" cy="1062.15" r="2"/>
<circle clip-path="url(#clip972)" style="fill:#009af9; stroke:none; fill-opacity:0" cx="840.544" cy="917.738" r="2"/>
<circle clip-path="url(#clip972)" style="fill:#009af9; stroke:none; fill-opacity:0" cx="882.153" cy="1206.56" r="2"/>
<circle clip-path="url(#clip972)" style="fill:#009af9; stroke:none; fill-opacity:0" cx="923.763" cy="1134.36" r="2"/>
<circle clip-path="url(#clip972)" style="fill:#009af9; stroke:none; fill-opacity:0" cx="965.373" cy="1206.56" r="2"/>
<circle clip-path="url(#clip972)" style="fill:#009af9; stroke:none; fill-opacity:0" cx="1006.98" cy="1423.18" r="2"/>
<circle clip-path="url(#clip972)" style="fill:#009af9; stroke:none; fill-opacity:0" cx="1048.59" cy="1062.15" r="2"/>
<circle clip-path="url(#clip972)" style="fill:#009af9; stroke:none; fill-opacity:0" cx="1090.2" cy="1423.18" r="2"/>
<circle clip-path="url(#clip972)" style="fill:#009af9; stroke:none; fill-opacity:0" cx="1131.81" cy="1206.56" r="2"/>
<circle clip-path="url(#clip972)" style="fill:#009af9; stroke:none; fill-opacity:0" cx="1173.42" cy="1206.56" r="2"/>
<circle clip-path="url(#clip972)" style="fill:#009af9; stroke:none; fill-opacity:0" cx="1215.03" cy="1423.18" r="2"/>
<circle clip-path="url(#clip972)" style="fill:#009af9; stroke:none; fill-opacity:0" cx="1256.64" cy="1278.77" r="2"/>
<circle clip-path="url(#clip972)" style="fill:#009af9; stroke:none; fill-opacity:0" cx="1298.25" cy="1278.77" r="2"/>
<circle clip-path="url(#clip972)" style="fill:#009af9; stroke:none; fill-opacity:0" cx="1339.86" cy="1278.77" r="2"/>
<circle clip-path="url(#clip972)" style="fill:#009af9; stroke:none; fill-opacity:0" cx="1381.47" cy="1278.77" r="2"/>
<circle clip-path="url(#clip972)" style="fill:#009af9; stroke:none; fill-opacity:0" cx="1423.08" cy="1350.97" r="2"/>
<circle clip-path="url(#clip972)" style="fill:#009af9; stroke:none; fill-opacity:0" cx="1464.69" cy="1423.18" r="2"/>
<circle clip-path="url(#clip972)" style="fill:#009af9; stroke:none; fill-opacity:0" cx="1506.3" cy="1350.97" r="2"/>
<circle clip-path="url(#clip972)" style="fill:#009af9; stroke:none; fill-opacity:0" cx="1547.91" cy="1350.97" r="2"/>
<circle clip-path="url(#clip972)" style="fill:#009af9; stroke:none; fill-opacity:0" cx="1589.52" cy="1206.56" r="2"/>
<circle clip-path="url(#clip972)" style="fill:#009af9; stroke:none; fill-opacity:0" cx="1631.13" cy="1350.97" r="2"/>
<circle clip-path="url(#clip972)" style="fill:#009af9; stroke:none; fill-opacity:0" cx="1672.74" cy="1278.77" r="2"/>
<circle clip-path="url(#clip972)" style="fill:#009af9; stroke:none; fill-opacity:0" cx="1714.35" cy="1278.77" r="2"/>
<circle clip-path="url(#clip972)" style="fill:#009af9; stroke:none; fill-opacity:0" cx="1755.96" cy="1423.18" r="2"/>
<circle clip-path="url(#clip972)" style="fill:#009af9; stroke:none; fill-opacity:0" cx="1797.57" cy="1206.56" r="2"/>
<circle clip-path="url(#clip972)" style="fill:#009af9; stroke:none; fill-opacity:0" cx="1839.18" cy="1350.97" r="2"/>
<circle clip-path="url(#clip972)" style="fill:#009af9; stroke:none; fill-opacity:0" cx="1880.79" cy="1206.56" r="2"/>
<circle clip-path="url(#clip972)" style="fill:#009af9; stroke:none; fill-opacity:0" cx="1922.4" cy="1350.97" r="2"/>
<circle clip-path="url(#clip972)" style="fill:#009af9; stroke:none; fill-opacity:0" cx="1964.01" cy="1206.56" r="2"/>
<circle clip-path="url(#clip972)" style="fill:#009af9; stroke:none; fill-opacity:0" cx="2005.61" cy="1350.97" r="2"/>
<circle clip-path="url(#clip972)" style="fill:#009af9; stroke:none; fill-opacity:0" cx="2047.22" cy="1423.18" r="2"/>
<circle clip-path="url(#clip972)" style="fill:#009af9; stroke:none; fill-opacity:0" cx="2088.83" cy="1423.18" r="2"/>
<circle clip-path="url(#clip972)" style="fill:#009af9; stroke:none; fill-opacity:0" cx="2130.44" cy="1350.97" r="2"/>
<circle clip-path="url(#clip972)" style="fill:#009af9; stroke:none; fill-opacity:0" cx="2172.05" cy="1350.97" r="2"/>
<circle clip-path="url(#clip972)" style="fill:#009af9; stroke:none; fill-opacity:0" cx="2213.66" cy="1350.97" r="2"/>
<path clip-path="url(#clip972)" d="M341.228 1350.97 L341.228 1423.18 L362.033 1423.18 L362.033 1350.97 L341.228 1350.97 L341.228 1350.97  Z" fill="#e26f46" fill-rule="evenodd" fill-opacity="1"/>
<polyline clip-path="url(#clip972)" style="stroke:#000000; stroke-linecap:round; stroke-linejoin:round; stroke-width:4; stroke-opacity:1; fill:none" points="341.228,1350.97 341.228,1423.18 362.033,1423.18 362.033,1350.97 341.228,1350.97 "/>
<path clip-path="url(#clip972)" d="M362.033 1350.97 L362.033 1423.18 L382.837 1423.18 L382.837 1350.97 L362.033 1350.97 L362.033 1350.97  Z" fill="#e26f46" fill-rule="evenodd" fill-opacity="1"/>
<polyline clip-path="url(#clip972)" style="stroke:#000000; stroke-linecap:round; stroke-linejoin:round; stroke-width:4; stroke-opacity:1; fill:none" points="362.033,1350.97 362.033,1423.18 382.837,1423.18 382.837,1350.97 362.033,1350.97 "/>
<path clip-path="url(#clip972)" d="M382.837 917.738 L382.837 1423.18 L403.642 1423.18 L403.642 917.738 L382.837 917.738 L382.837 917.738  Z" fill="#e26f46" fill-rule="evenodd" fill-opacity="1"/>
<polyline clip-path="url(#clip972)" style="stroke:#000000; stroke-linecap:round; stroke-linejoin:round; stroke-width:4; stroke-opacity:1; fill:none" points="382.837,917.738 382.837,1423.18 403.642,1423.18 403.642,917.738 382.837,917.738 "/>
<path clip-path="url(#clip972)" d="M403.642 1062.15 L403.642 1423.18 L424.447 1423.18 L424.447 1062.15 L403.642 1062.15 L403.642 1062.15  Z" fill="#e26f46" fill-rule="evenodd" fill-opacity="1"/>
<polyline clip-path="url(#clip972)" style="stroke:#000000; stroke-linecap:round; stroke-linejoin:round; stroke-width:4; stroke-opacity:1; fill:none" points="403.642,1062.15 403.642,1423.18 424.447,1423.18 424.447,1062.15 403.642,1062.15 "/>
<path clip-path="url(#clip972)" d="M424.447 701.12 L424.447 1423.18 L445.252 1423.18 L445.252 701.12 L424.447 701.12 L424.447 701.12  Z" fill="#e26f46" fill-rule="evenodd" fill-opacity="1"/>
<polyline clip-path="url(#clip972)" style="stroke:#000000; stroke-linecap:round; stroke-linejoin:round; stroke-width:4; stroke-opacity:1; fill:none" points="424.447,701.12 424.447,1423.18 445.252,1423.18 445.252,701.12 424.447,701.12 "/>
<path clip-path="url(#clip972)" d="M445.252 412.296 L445.252 1423.18 L466.057 1423.18 L466.057 412.296 L445.252 412.296 L445.252 412.296  Z" fill="#e26f46" fill-rule="evenodd" fill-opacity="1"/>
<polyline clip-path="url(#clip972)" style="stroke:#000000; stroke-linecap:round; stroke-linejoin:round; stroke-width:4; stroke-opacity:1; fill:none" points="445.252,412.296 445.252,1423.18 466.057,1423.18 466.057,412.296 445.252,412.296 "/>
<path clip-path="url(#clip972)" d="M466.057 123.472 L466.057 1423.18 L486.862 1423.18 L486.862 123.472 L466.057 123.472 L466.057 123.472  Z" fill="#e26f46" fill-rule="evenodd" fill-opacity="1"/>
<polyline clip-path="url(#clip972)" style="stroke:#000000; stroke-linecap:round; stroke-linejoin:round; stroke-width:4; stroke-opacity:1; fill:none" points="466.057,123.472 466.057,1423.18 486.862,1423.18 486.862,123.472 466.057,123.472 "/>
<path clip-path="url(#clip972)" d="M486.862 195.678 L486.862 1423.18 L507.666 1423.18 L507.666 195.678 L486.862 195.678 L486.862 195.678  Z" fill="#e26f46" fill-rule="evenodd" fill-opacity="1"/>
<polyline clip-path="url(#clip972)" style="stroke:#000000; stroke-linecap:round; stroke-linejoin:round; stroke-width:4; stroke-opacity:1; fill:none" points="486.862,195.678 486.862,1423.18 507.666,1423.18 507.666,195.678 486.862,195.678 "/>
<path clip-path="url(#clip972)" d="M507.666 340.09 L507.666 1423.18 L528.471 1423.18 L528.471 340.09 L507.666 340.09 L507.666 340.09  Z" fill="#e26f46" fill-rule="evenodd" fill-opacity="1"/>
<polyline clip-path="url(#clip972)" style="stroke:#000000; stroke-linecap:round; stroke-linejoin:round; stroke-width:4; stroke-opacity:1; fill:none" points="507.666,340.09 507.666,1423.18 528.471,1423.18 528.471,340.09 507.666,340.09 "/>
<path clip-path="url(#clip972)" d="M528.471 628.914 L528.471 1423.18 L549.276 1423.18 L549.276 628.914 L528.471 628.914 L528.471 628.914  Z" fill="#e26f46" fill-rule="evenodd" fill-opacity="1"/>
<polyline clip-path="url(#clip972)" style="stroke:#000000; stroke-linecap:round; stroke-linejoin:round; stroke-width:4; stroke-opacity:1; fill:none" points="528.471,628.914 528.471,1423.18 549.276,1423.18 549.276,628.914 528.471,628.914 "/>
<path clip-path="url(#clip972)" d="M549.276 1062.15 L549.276 1423.18 L570.081 1423.18 L570.081 1062.15 L549.276 1062.15 L549.276 1062.15  Z" fill="#e26f46" fill-rule="evenodd" fill-opacity="1"/>
<polyline clip-path="url(#clip972)" style="stroke:#000000; stroke-linecap:round; stroke-linejoin:round; stroke-width:4; stroke-opacity:1; fill:none" points="549.276,1062.15 549.276,1423.18 570.081,1423.18 570.081,1062.15 549.276,1062.15 "/>
<path clip-path="url(#clip972)" d="M570.081 1062.15 L570.081 1423.18 L590.886 1423.18 L590.886 1062.15 L570.081 1062.15 L570.081 1062.15  Z" fill="#e26f46" fill-rule="evenodd" fill-opacity="1"/>
<polyline clip-path="url(#clip972)" style="stroke:#000000; stroke-linecap:round; stroke-linejoin:round; stroke-width:4; stroke-opacity:1; fill:none" points="570.081,1062.15 570.081,1423.18 590.886,1423.18 590.886,1062.15 570.081,1062.15 "/>
<path clip-path="url(#clip972)" d="M590.886 1062.15 L590.886 1423.18 L611.691 1423.18 L611.691 1062.15 L590.886 1062.15 L590.886 1062.15  Z" fill="#e26f46" fill-rule="evenodd" fill-opacity="1"/>
<polyline clip-path="url(#clip972)" style="stroke:#000000; stroke-linecap:round; stroke-linejoin:round; stroke-width:4; stroke-opacity:1; fill:none" points="590.886,1062.15 590.886,1423.18 611.691,1423.18 611.691,1062.15 590.886,1062.15 "/>
<path clip-path="url(#clip972)" d="M611.691 1350.97 L611.691 1423.18 L632.495 1423.18 L632.495 1350.97 L611.691 1350.97 L611.691 1350.97  Z" fill="#e26f46" fill-rule="evenodd" fill-opacity="1"/>
<polyline clip-path="url(#clip972)" style="stroke:#000000; stroke-linecap:round; stroke-linejoin:round; stroke-width:4; stroke-opacity:1; fill:none" points="611.691,1350.97 611.691,1423.18 632.495,1423.18 632.495,1350.97 611.691,1350.97 "/>
<path clip-path="url(#clip972)" d="M632.495 1062.15 L632.495 1423.18 L653.3 1423.18 L653.3 1062.15 L632.495 1062.15 L632.495 1062.15  Z" fill="#e26f46" fill-rule="evenodd" fill-opacity="1"/>
<polyline clip-path="url(#clip972)" style="stroke:#000000; stroke-linecap:round; stroke-linejoin:round; stroke-width:4; stroke-opacity:1; fill:none" points="632.495,1062.15 632.495,1423.18 653.3,1423.18 653.3,1062.15 632.495,1062.15 "/>
<path clip-path="url(#clip972)" d="M653.3 1206.56 L653.3 1423.18 L674.105 1423.18 L674.105 1206.56 L653.3 1206.56 L653.3 1206.56  Z" fill="#e26f46" fill-rule="evenodd" fill-opacity="1"/>
<polyline clip-path="url(#clip972)" style="stroke:#000000; stroke-linecap:round; stroke-linejoin:round; stroke-width:4; stroke-opacity:1; fill:none" points="653.3,1206.56 653.3,1423.18 674.105,1423.18 674.105,1206.56 653.3,1206.56 "/>
<path clip-path="url(#clip972)" d="M674.105 1278.77 L674.105 1423.18 L694.91 1423.18 L694.91 1278.77 L674.105 1278.77 L674.105 1278.77  Z" fill="#e26f46" fill-rule="evenodd" fill-opacity="1"/>
<polyline clip-path="url(#clip972)" style="stroke:#000000; stroke-linecap:round; stroke-linejoin:round; stroke-width:4; stroke-opacity:1; fill:none" points="674.105,1278.77 674.105,1423.18 694.91,1423.18 694.91,1278.77 674.105,1278.77 "/>
<path clip-path="url(#clip972)" d="M694.91 1206.56 L694.91 1423.18 L715.715 1423.18 L715.715 1206.56 L694.91 1206.56 L694.91 1206.56  Z" fill="#e26f46" fill-rule="evenodd" fill-opacity="1"/>
<polyline clip-path="url(#clip972)" style="stroke:#000000; stroke-linecap:round; stroke-linejoin:round; stroke-width:4; stroke-opacity:1; fill:none" points="694.91,1206.56 694.91,1423.18 715.715,1423.18 715.715,1206.56 694.91,1206.56 "/>
<path clip-path="url(#clip972)" d="M715.715 1278.77 L715.715 1423.18 L736.52 1423.18 L736.52 1278.77 L715.715 1278.77 L715.715 1278.77  Z" fill="#e26f46" fill-rule="evenodd" fill-opacity="1"/>
<polyline clip-path="url(#clip972)" style="stroke:#000000; stroke-linecap:round; stroke-linejoin:round; stroke-width:4; stroke-opacity:1; fill:none" points="715.715,1278.77 715.715,1423.18 736.52,1423.18 736.52,1278.77 715.715,1278.77 "/>
<path clip-path="url(#clip972)" d="M736.52 1278.77 L736.52 1423.18 L757.324 1423.18 L757.324 1278.77 L736.52 1278.77 L736.52 1278.77  Z" fill="#e26f46" fill-rule="evenodd" fill-opacity="1"/>
<polyline clip-path="url(#clip972)" style="stroke:#000000; stroke-linecap:round; stroke-linejoin:round; stroke-width:4; stroke-opacity:1; fill:none" points="736.52,1278.77 736.52,1423.18 757.324,1423.18 757.324,1278.77 736.52,1278.77 "/>
<path clip-path="url(#clip972)" d="M757.324 1206.56 L757.324 1423.18 L778.129 1423.18 L778.129 1206.56 L757.324 1206.56 L757.324 1206.56  Z" fill="#e26f46" fill-rule="evenodd" fill-opacity="1"/>
<polyline clip-path="url(#clip972)" style="stroke:#000000; stroke-linecap:round; stroke-linejoin:round; stroke-width:4; stroke-opacity:1; fill:none" points="757.324,1206.56 757.324,1423.18 778.129,1423.18 778.129,1206.56 757.324,1206.56 "/>
<path clip-path="url(#clip972)" d="M778.129 1206.56 L778.129 1423.18 L798.934 1423.18 L798.934 1206.56 L778.129 1206.56 L778.129 1206.56  Z" fill="#e26f46" fill-rule="evenodd" fill-opacity="1"/>
<polyline clip-path="url(#clip972)" style="stroke:#000000; stroke-linecap:round; stroke-linejoin:round; stroke-width:4; stroke-opacity:1; fill:none" points="778.129,1206.56 778.129,1423.18 798.934,1423.18 798.934,1206.56 778.129,1206.56 "/>
<path clip-path="url(#clip972)" d="M798.934 1423.18 L798.934 1423.18 L819.739 1423.18 L819.739 1423.18 L798.934 1423.18 L798.934 1423.18  Z" fill="#e26f46" fill-rule="evenodd" fill-opacity="1"/>
<polyline clip-path="url(#clip972)" style="stroke:#000000; stroke-linecap:round; stroke-linejoin:round; stroke-width:4; stroke-opacity:1; fill:none" points="798.934,1423.18 798.934,1423.18 819.739,1423.18 798.934,1423.18 "/>
<path clip-path="url(#clip972)" d="M819.739 1350.97 L819.739 1423.18 L840.544 1423.18 L840.544 1350.97 L819.739 1350.97 L819.739 1350.97  Z" fill="#e26f46" fill-rule="evenodd" fill-opacity="1"/>
<polyline clip-path="url(#clip972)" style="stroke:#000000; stroke-linecap:round; stroke-linejoin:round; stroke-width:4; stroke-opacity:1; fill:none" points="819.739,1350.97 819.739,1423.18 840.544,1423.18 840.544,1350.97 819.739,1350.97 "/>
<path clip-path="url(#clip972)" d="M840.544 1062.15 L840.544 1423.18 L861.349 1423.18 L861.349 1062.15 L840.544 1062.15 L840.544 1062.15  Z" fill="#e26f46" fill-rule="evenodd" fill-opacity="1"/>
<polyline clip-path="url(#clip972)" style="stroke:#000000; stroke-linecap:round; stroke-linejoin:round; stroke-width:4; stroke-opacity:1; fill:none" points="840.544,1062.15 840.544,1423.18 861.349,1423.18 861.349,1062.15 840.544,1062.15 "/>
<path clip-path="url(#clip972)" d="M861.349 1278.77 L861.349 1423.18 L882.153 1423.18 L882.153 1278.77 L861.349 1278.77 L861.349 1278.77  Z" fill="#e26f46" fill-rule="evenodd" fill-opacity="1"/>
<polyline clip-path="url(#clip972)" style="stroke:#000000; stroke-linecap:round; stroke-linejoin:round; stroke-width:4; stroke-opacity:1; fill:none" points="861.349,1278.77 861.349,1423.18 882.153,1423.18 882.153,1278.77 861.349,1278.77 "/>
<path clip-path="url(#clip972)" d="M882.153 1278.77 L882.153 1423.18 L902.958 1423.18 L902.958 1278.77 L882.153 1278.77 L882.153 1278.77  Z" fill="#e26f46" fill-rule="evenodd" fill-opacity="1"/>
<polyline clip-path="url(#clip972)" style="stroke:#000000; stroke-linecap:round; stroke-linejoin:round; stroke-width:4; stroke-opacity:1; fill:none" points="882.153,1278.77 882.153,1423.18 902.958,1423.18 902.958,1278.77 882.153,1278.77 "/>
<path clip-path="url(#clip972)" d="M902.958 1350.97 L902.958 1423.18 L923.763 1423.18 L923.763 1350.97 L902.958 1350.97 L902.958 1350.97  Z" fill="#e26f46" fill-rule="evenodd" fill-opacity="1"/>
<polyline clip-path="url(#clip972)" style="stroke:#000000; stroke-linecap:round; stroke-linejoin:round; stroke-width:4; stroke-opacity:1; fill:none" points="902.958,1350.97 902.958,1423.18 923.763,1423.18 923.763,1350.97 902.958,1350.97 "/>
<path clip-path="url(#clip972)" d="M923.763 1423.18 L923.763 1423.18 L944.568 1423.18 L944.568 1423.18 L923.763 1423.18 L923.763 1423.18  Z" fill="#e26f46" fill-rule="evenodd" fill-opacity="1"/>
<polyline clip-path="url(#clip972)" style="stroke:#000000; stroke-linecap:round; stroke-linejoin:round; stroke-width:4; stroke-opacity:1; fill:none" points="923.763,1423.18 923.763,1423.18 944.568,1423.18 923.763,1423.18 "/>
<path clip-path="url(#clip972)" d="M944.568 1423.18 L944.568 1423.18 L965.373 1423.18 L965.373 1423.18 L944.568 1423.18 L944.568 1423.18  Z" fill="#e26f46" fill-rule="evenodd" fill-opacity="1"/>
<polyline clip-path="url(#clip972)" style="stroke:#000000; stroke-linecap:round; stroke-linejoin:round; stroke-width:4; stroke-opacity:1; fill:none" points="944.568,1423.18 944.568,1423.18 965.373,1423.18 944.568,1423.18 "/>
<path clip-path="url(#clip972)" d="M965.373 1350.97 L965.373 1423.18 L986.178 1423.18 L986.178 1350.97 L965.373 1350.97 L965.373 1350.97  Z" fill="#e26f46" fill-rule="evenodd" fill-opacity="1"/>
<polyline clip-path="url(#clip972)" style="stroke:#000000; stroke-linecap:round; stroke-linejoin:round; stroke-width:4; stroke-opacity:1; fill:none" points="965.373,1350.97 965.373,1423.18 986.178,1423.18 986.178,1350.97 965.373,1350.97 "/>
<circle clip-path="url(#clip972)" style="fill:#e26f46; stroke:none; fill-opacity:0" cx="351.63" cy="1350.97" r="2"/>
<circle clip-path="url(#clip972)" style="fill:#e26f46; stroke:none; fill-opacity:0" cx="372.435" cy="1350.97" r="2"/>
<circle clip-path="url(#clip972)" style="fill:#e26f46; stroke:none; fill-opacity:0" cx="393.24" cy="917.738" r="2"/>
<circle clip-path="url(#clip972)" style="fill:#e26f46; stroke:none; fill-opacity:0" cx="414.045" cy="1062.15" r="2"/>
<circle clip-path="url(#clip972)" style="fill:#e26f46; stroke:none; fill-opacity:0" cx="434.849" cy="701.12" r="2"/>
<circle clip-path="url(#clip972)" style="fill:#e26f46; stroke:none; fill-opacity:0" cx="455.654" cy="412.296" r="2"/>
<circle clip-path="url(#clip972)" style="fill:#e26f46; stroke:none; fill-opacity:0" cx="476.459" cy="123.472" r="2"/>
<circle clip-path="url(#clip972)" style="fill:#e26f46; stroke:none; fill-opacity:0" cx="497.264" cy="195.678" r="2"/>
<circle clip-path="url(#clip972)" style="fill:#e26f46; stroke:none; fill-opacity:0" cx="518.069" cy="340.09" r="2"/>
<circle clip-path="url(#clip972)" style="fill:#e26f46; stroke:none; fill-opacity:0" cx="538.874" cy="628.914" r="2"/>
<circle clip-path="url(#clip972)" style="fill:#e26f46; stroke:none; fill-opacity:0" cx="559.678" cy="1062.15" r="2"/>
<circle clip-path="url(#clip972)" style="fill:#e26f46; stroke:none; fill-opacity:0" cx="580.483" cy="1062.15" r="2"/>
<circle clip-path="url(#clip972)" style="fill:#e26f46; stroke:none; fill-opacity:0" cx="601.288" cy="1062.15" r="2"/>
<circle clip-path="url(#clip972)" style="fill:#e26f46; stroke:none; fill-opacity:0" cx="622.093" cy="1350.97" r="2"/>
<circle clip-path="url(#clip972)" style="fill:#e26f46; stroke:none; fill-opacity:0" cx="642.898" cy="1062.15" r="2"/>
<circle clip-path="url(#clip972)" style="fill:#e26f46; stroke:none; fill-opacity:0" cx="663.703" cy="1206.56" r="2"/>
<circle clip-path="url(#clip972)" style="fill:#e26f46; stroke:none; fill-opacity:0" cx="684.508" cy="1278.77" r="2"/>
<circle clip-path="url(#clip972)" style="fill:#e26f46; stroke:none; fill-opacity:0" cx="705.312" cy="1206.56" r="2"/>
<circle clip-path="url(#clip972)" style="fill:#e26f46; stroke:none; fill-opacity:0" cx="726.117" cy="1278.77" r="2"/>
<circle clip-path="url(#clip972)" style="fill:#e26f46; stroke:none; fill-opacity:0" cx="746.922" cy="1278.77" r="2"/>
<circle clip-path="url(#clip972)" style="fill:#e26f46; stroke:none; fill-opacity:0" cx="767.727" cy="1206.56" r="2"/>
<circle clip-path="url(#clip972)" style="fill:#e26f46; stroke:none; fill-opacity:0" cx="788.532" cy="1206.56" r="2"/>
<circle clip-path="url(#clip972)" style="fill:#e26f46; stroke:none; fill-opacity:0" cx="809.337" cy="1423.18" r="2"/>
<circle clip-path="url(#clip972)" style="fill:#e26f46; stroke:none; fill-opacity:0" cx="830.141" cy="1350.97" r="2"/>
<circle clip-path="url(#clip972)" style="fill:#e26f46; stroke:none; fill-opacity:0" cx="850.946" cy="1062.15" r="2"/>
<circle clip-path="url(#clip972)" style="fill:#e26f46; stroke:none; fill-opacity:0" cx="871.751" cy="1278.77" r="2"/>
<circle clip-path="url(#clip972)" style="fill:#e26f46; stroke:none; fill-opacity:0" cx="892.556" cy="1278.77" r="2"/>
<circle clip-path="url(#clip972)" style="fill:#e26f46; stroke:none; fill-opacity:0" cx="913.361" cy="1350.97" r="2"/>
<circle clip-path="url(#clip972)" style="fill:#e26f46; stroke:none; fill-opacity:0" cx="934.166" cy="1423.18" r="2"/>
<circle clip-path="url(#clip972)" style="fill:#e26f46; stroke:none; fill-opacity:0" cx="954.97" cy="1423.18" r="2"/>
<circle clip-path="url(#clip972)" style="fill:#e26f46; stroke:none; fill-opacity:0" cx="975.775" cy="1350.97" r="2"/>
<path clip-path="url(#clip970)" d="M1901.86 322.316 L2281.07 322.316 L2281.07 166.796 L1901.86 166.796  Z" fill="#ffffff" fill-rule="evenodd" fill-opacity="1"/>
<polyline clip-path="url(#clip970)" style="stroke:#000000; stroke-linecap:round; stroke-linejoin:round; stroke-width:4; stroke-opacity:1; fill:none" points="1901.86,322.316 2281.07,322.316 2281.07,166.796 1901.86,166.796 1901.86,322.316 "/>
<path clip-path="url(#clip970)" d="M1925.76 239.372 L2069.13 239.372 L2069.13 197.9 L1925.76 197.9 L1925.76 239.372  Z" fill="#009af9" fill-rule="evenodd" fill-opacity="1"/>
<polyline clip-path="url(#clip970)" style="stroke:#000000; stroke-linecap:round; stroke-linejoin:round; stroke-width:4; stroke-opacity:1; fill:none" points="1925.76,239.372 2069.13,239.372 2069.13,197.9 1925.76,197.9 1925.76,239.372 "/>
<path clip-path="url(#clip970)" d="M2120.9 204.018 L2120.9 208.948 Q2118.54 206.749 2115.85 205.661 Q2113.19 204.573 2110.18 204.573 Q2104.26 204.573 2101.11 208.208 Q2097.96 211.819 2097.96 218.67 Q2097.96 225.499 2101.11 229.133 Q2104.26 232.744 2110.18 232.744 Q2113.19 232.744 2115.85 231.656 Q2118.54 230.569 2120.9 228.369 L2120.9 233.254 Q2118.45 234.92 2115.69 235.754 Q2112.96 236.587 2109.91 236.587 Q2102.06 236.587 2097.54 231.795 Q2093.03 226.981 2093.03 218.67 Q2093.03 210.337 2097.54 205.546 Q2102.06 200.731 2109.91 200.731 Q2113.01 200.731 2115.74 201.564 Q2118.49 202.374 2120.9 204.018 Z" fill="#000000" fill-rule="nonzero" fill-opacity="1" /><path clip-path="url(#clip970)" d="M2127.94 199.897 L2132.2 199.897 L2132.2 235.916 L2127.94 235.916 L2127.94 199.897 Z" fill="#000000" fill-rule="nonzero" fill-opacity="1" /><path clip-path="url(#clip970)" d="M2152.89 222.883 Q2147.73 222.883 2145.74 224.064 Q2143.75 225.244 2143.75 228.092 Q2143.75 230.36 2145.23 231.703 Q2146.73 233.022 2149.3 233.022 Q2152.84 233.022 2154.97 230.522 Q2157.13 227.999 2157.13 223.832 L2157.13 222.883 L2152.89 222.883 M2161.39 221.124 L2161.39 235.916 L2157.13 235.916 L2157.13 231.981 Q2155.67 234.342 2153.49 235.476 Q2151.32 236.587 2148.17 236.587 Q2144.19 236.587 2141.83 234.365 Q2139.49 232.119 2139.49 228.369 Q2139.49 223.994 2142.4 221.772 Q2145.34 219.55 2151.15 219.55 L2157.13 219.55 L2157.13 219.133 Q2157.13 216.194 2155.18 214.596 Q2153.26 212.976 2149.77 212.976 Q2147.54 212.976 2145.44 213.508 Q2143.33 214.041 2141.39 215.106 L2141.39 211.17 Q2143.72 210.268 2145.92 209.828 Q2148.12 209.365 2150.21 209.365 Q2155.83 209.365 2158.61 212.282 Q2161.39 215.198 2161.39 221.124 Z" fill="#000000" fill-rule="nonzero" fill-opacity="1" /><path clip-path="url(#clip970)" d="M2186.69 210.754 L2186.69 214.782 Q2184.88 213.856 2182.94 213.393 Q2180.99 212.93 2178.91 212.93 Q2175.74 212.93 2174.14 213.902 Q2172.57 214.874 2172.57 216.819 Q2172.57 218.3 2173.7 219.157 Q2174.84 219.99 2178.26 220.754 L2179.72 221.078 Q2184.26 222.05 2186.15 223.832 Q2188.08 225.592 2188.08 228.763 Q2188.08 232.374 2185.21 234.481 Q2182.36 236.587 2177.36 236.587 Q2175.28 236.587 2173.01 236.17 Q2170.76 235.777 2168.26 234.967 L2168.26 230.569 Q2170.62 231.795 2172.91 232.42 Q2175.21 233.022 2177.45 233.022 Q2180.46 233.022 2182.08 232.004 Q2183.7 230.962 2183.7 229.087 Q2183.7 227.351 2182.52 226.425 Q2181.36 225.499 2177.4 224.643 L2175.92 224.295 Q2171.96 223.462 2170.21 221.749 Q2168.45 220.013 2168.45 217.004 Q2168.45 213.346 2171.04 211.356 Q2173.63 209.365 2178.4 209.365 Q2180.76 209.365 2182.84 209.712 Q2184.93 210.059 2186.69 210.754 Z" fill="#000000" fill-rule="nonzero" fill-opacity="1" /><path clip-path="url(#clip970)" d="M2211.39 210.754 L2211.39 214.782 Q2209.58 213.856 2207.64 213.393 Q2205.69 212.93 2203.61 212.93 Q2200.44 212.93 2198.84 213.902 Q2197.27 214.874 2197.27 216.819 Q2197.27 218.3 2198.4 219.157 Q2199.53 219.99 2202.96 220.754 L2204.42 221.078 Q2208.96 222.05 2210.85 223.832 Q2212.77 225.592 2212.77 228.763 Q2212.77 232.374 2209.9 234.481 Q2207.06 236.587 2202.06 236.587 Q2199.97 236.587 2197.71 236.17 Q2195.46 235.777 2192.96 234.967 L2192.96 230.569 Q2195.32 231.795 2197.61 232.42 Q2199.9 233.022 2202.15 233.022 Q2205.16 233.022 2206.78 232.004 Q2208.4 230.962 2208.4 229.087 Q2208.4 227.351 2207.22 226.425 Q2206.06 225.499 2202.1 224.643 L2200.62 224.295 Q2196.66 223.462 2194.9 221.749 Q2193.15 220.013 2193.15 217.004 Q2193.15 213.346 2195.74 211.356 Q2198.33 209.365 2203.1 209.365 Q2205.46 209.365 2207.54 209.712 Q2209.63 210.059 2211.39 210.754 Z" fill="#000000" fill-rule="nonzero" fill-opacity="1" /><path clip-path="url(#clip970)" d="M2245.23 204.434 Q2241.62 204.434 2239.79 207.999 Q2237.98 211.541 2237.98 218.67 Q2237.98 225.777 2239.79 229.342 Q2241.62 232.883 2245.23 232.883 Q2248.86 232.883 2250.67 229.342 Q2252.5 225.777 2252.5 218.67 Q2252.5 211.541 2250.67 207.999 Q2248.86 204.434 2245.23 204.434 M2245.23 200.731 Q2251.04 200.731 2254.09 205.337 Q2257.17 209.92 2257.17 218.67 Q2257.17 227.397 2254.09 232.004 Q2251.04 236.587 2245.23 236.587 Q2239.42 236.587 2236.34 232.004 Q2233.28 227.397 2233.28 218.67 Q2233.28 209.92 2236.34 205.337 Q2239.42 200.731 2245.23 200.731 Z" fill="#000000" fill-rule="nonzero" fill-opacity="1" /><path clip-path="url(#clip970)" d="M1925.76 291.212 L2069.13 291.212 L2069.13 249.74 L1925.76 249.74 L1925.76 291.212  Z" fill="#e26f46" fill-rule="evenodd" fill-opacity="1"/>
<polyline clip-path="url(#clip970)" style="stroke:#000000; stroke-linecap:round; stroke-linejoin:round; stroke-width:4; stroke-opacity:1; fill:none" points="1925.76,291.212 2069.13,291.212 2069.13,249.74 1925.76,249.74 1925.76,291.212 "/>
<path clip-path="url(#clip970)" d="M2120.9 255.858 L2120.9 260.788 Q2118.54 258.589 2115.85 257.501 Q2113.19 256.413 2110.18 256.413 Q2104.26 256.413 2101.11 260.048 Q2097.96 263.659 2097.96 270.51 Q2097.96 277.339 2101.11 280.973 Q2104.26 284.584 2110.18 284.584 Q2113.19 284.584 2115.85 283.496 Q2118.54 282.409 2120.9 280.209 L2120.9 285.094 Q2118.45 286.76 2115.69 287.594 Q2112.96 288.427 2109.91 288.427 Q2102.06 288.427 2097.54 283.635 Q2093.03 278.821 2093.03 270.51 Q2093.03 262.177 2097.54 257.386 Q2102.06 252.571 2109.91 252.571 Q2113.01 252.571 2115.74 253.404 Q2118.49 254.214 2120.9 255.858 Z" fill="#000000" fill-rule="nonzero" fill-opacity="1" /><path clip-path="url(#clip970)" d="M2127.94 251.737 L2132.2 251.737 L2132.2 287.756 L2127.94 287.756 L2127.94 251.737 Z" fill="#000000" fill-rule="nonzero" fill-opacity="1" /><path clip-path="url(#clip970)" d="M2152.89 274.723 Q2147.73 274.723 2145.74 275.904 Q2143.75 277.084 2143.75 279.932 Q2143.75 282.2 2145.23 283.543 Q2146.73 284.862 2149.3 284.862 Q2152.84 284.862 2154.97 282.362 Q2157.13 279.839 2157.13 275.672 L2157.13 274.723 L2152.89 274.723 M2161.39 272.964 L2161.39 287.756 L2157.13 287.756 L2157.13 283.821 Q2155.67 286.182 2153.49 287.316 Q2151.32 288.427 2148.17 288.427 Q2144.19 288.427 2141.83 286.205 Q2139.49 283.959 2139.49 280.209 Q2139.49 275.834 2142.4 273.612 Q2145.34 271.39 2151.15 271.39 L2157.13 271.39 L2157.13 270.973 Q2157.13 268.034 2155.18 266.436 Q2153.26 264.816 2149.77 264.816 Q2147.54 264.816 2145.44 265.348 Q2143.33 265.881 2141.39 266.946 L2141.39 263.01 Q2143.72 262.108 2145.92 261.668 Q2148.12 261.205 2150.21 261.205 Q2155.83 261.205 2158.61 264.122 Q2161.39 267.038 2161.39 272.964 Z" fill="#000000" fill-rule="nonzero" fill-opacity="1" /><path clip-path="url(#clip970)" d="M2186.69 262.594 L2186.69 266.622 Q2184.88 265.696 2182.94 265.233 Q2180.99 264.77 2178.91 264.77 Q2175.74 264.77 2174.14 265.742 Q2172.57 266.714 2172.57 268.659 Q2172.57 270.14 2173.7 270.997 Q2174.84 271.83 2178.26 272.594 L2179.72 272.918 Q2184.26 273.89 2186.15 275.672 Q2188.08 277.432 2188.08 280.603 Q2188.08 284.214 2185.21 286.321 Q2182.36 288.427 2177.36 288.427 Q2175.28 288.427 2173.01 288.01 Q2170.76 287.617 2168.26 286.807 L2168.26 282.409 Q2170.62 283.635 2172.91 284.26 Q2175.21 284.862 2177.45 284.862 Q2180.46 284.862 2182.08 283.844 Q2183.7 282.802 2183.7 280.927 Q2183.7 279.191 2182.52 278.265 Q2181.36 277.339 2177.4 276.483 L2175.92 276.135 Q2171.96 275.302 2170.21 273.589 Q2168.45 271.853 2168.45 268.844 Q2168.45 265.186 2171.04 263.196 Q2173.63 261.205 2178.4 261.205 Q2180.76 261.205 2182.84 261.552 Q2184.93 261.899 2186.69 262.594 Z" fill="#000000" fill-rule="nonzero" fill-opacity="1" /><path clip-path="url(#clip970)" d="M2211.39 262.594 L2211.39 266.622 Q2209.58 265.696 2207.64 265.233 Q2205.69 264.77 2203.61 264.77 Q2200.44 264.77 2198.84 265.742 Q2197.27 266.714 2197.27 268.659 Q2197.27 270.14 2198.4 270.997 Q2199.53 271.83 2202.96 272.594 L2204.42 272.918 Q2208.96 273.89 2210.85 275.672 Q2212.77 277.432 2212.77 280.603 Q2212.77 284.214 2209.9 286.321 Q2207.06 288.427 2202.06 288.427 Q2199.97 288.427 2197.71 288.01 Q2195.46 287.617 2192.96 286.807 L2192.96 282.409 Q2195.32 283.635 2197.61 284.26 Q2199.9 284.862 2202.15 284.862 Q2205.16 284.862 2206.78 283.844 Q2208.4 282.802 2208.4 280.927 Q2208.4 279.191 2207.22 278.265 Q2206.06 277.339 2202.1 276.483 L2200.62 276.135 Q2196.66 275.302 2194.9 273.589 Q2193.15 271.853 2193.15 268.844 Q2193.15 265.186 2195.74 263.196 Q2198.33 261.205 2203.1 261.205 Q2205.46 261.205 2207.54 261.552 Q2209.63 261.899 2211.39 262.594 Z" fill="#000000" fill-rule="nonzero" fill-opacity="1" /><path clip-path="url(#clip970)" d="M2236.04 283.821 L2243.68 283.821 L2243.68 257.455 L2235.37 259.122 L2235.37 254.862 L2243.63 253.196 L2248.31 253.196 L2248.31 283.821 L2255.95 283.821 L2255.95 287.756 L2236.04 287.756 L2236.04 283.821 Z" fill="#000000" fill-rule="nonzero" fill-opacity="1" /></svg>
