<?xml version="1.0" encoding="utf-8"?>
<svg xmlns="http://www.w3.org/2000/svg" xmlns:xlink="http://www.w3.org/1999/xlink" width="600" height="400" viewBox="0 0 2400 1600">
<defs>
  <clipPath id="clip160">
    <rect x="0" y="0" width="2400" height="1600"/>
  </clipPath>
</defs>
<path clip-path="url(#clip160)" d="M0 1600 L2400 1600 L2400 8.88178e-14 L0 8.88178e-14  Z" fill="#ffffff" fill-rule="evenodd" fill-opacity="1"/>
<defs>
  <clipPath id="clip161">
    <rect x="480" y="0" width="1681" height="1600"/>
  </clipPath>
</defs>
<path clip-path="url(#clip160)" d="M156.598 1486.45 L2352.76 1486.45 L2352.76 123.472 L156.598 123.472  Z" fill="#ffffff" fill-rule="evenodd" fill-opacity="1"/>
<defs>
  <clipPath id="clip162">
    <rect x="156" y="123" width="2197" height="1364"/>
  </clipPath>
</defs>
<polyline clip-path="url(#clip162)" style="stroke:#000000; stroke-linecap:round; stroke-linejoin:round; stroke-width:2; stroke-opacity:0.1; fill:none" points="197.826,1486.45 197.826,123.472 "/>
<polyline clip-path="url(#clip162)" style="stroke:#000000; stroke-linecap:round; stroke-linejoin:round; stroke-width:2; stroke-opacity:0.1; fill:none" points="721.02,1486.45 721.02,123.472 "/>
<polyline clip-path="url(#clip162)" style="stroke:#000000; stroke-linecap:round; stroke-linejoin:round; stroke-width:2; stroke-opacity:0.1; fill:none" points="1244.21,1486.45 1244.21,123.472 "/>
<polyline clip-path="url(#clip162)" style="stroke:#000000; stroke-linecap:round; stroke-linejoin:round; stroke-width:2; stroke-opacity:0.1; fill:none" points="1767.41,1486.45 1767.41,123.472 "/>
<polyline clip-path="url(#clip162)" style="stroke:#000000; stroke-linecap:round; stroke-linejoin:round; stroke-width:2; stroke-opacity:0.1; fill:none" points="2290.6,1486.45 2290.6,123.472 "/>
<polyline clip-path="url(#clip160)" style="stroke:#000000; stroke-linecap:round; stroke-linejoin:round; stroke-width:4; stroke-opacity:1; fill:none" points="156.598,1486.45 2352.76,1486.45 "/>
<polyline clip-path="url(#clip160)" style="stroke:#000000; stroke-linecap:round; stroke-linejoin:round; stroke-width:4; stroke-opacity:1; fill:none" points="197.826,1486.45 197.826,1467.55 "/>
<polyline clip-path="url(#clip160)" style="stroke:#000000; stroke-linecap:round; stroke-linejoin:round; stroke-width:4; stroke-opacity:1; fill:none" points="721.02,1486.45 721.02,1467.55 "/>
<polyline clip-path="url(#clip160)" style="stroke:#000000; stroke-linecap:round; stroke-linejoin:round; stroke-width:4; stroke-opacity:1; fill:none" points="1244.21,1486.45 1244.21,1467.55 "/>
<polyline clip-path="url(#clip160)" style="stroke:#000000; stroke-linecap:round; stroke-linejoin:round; stroke-width:4; stroke-opacity:1; fill:none" points="1767.41,1486.45 1767.41,1467.55 "/>
<polyline clip-path="url(#clip160)" style="stroke:#000000; stroke-linecap:round; stroke-linejoin:round; stroke-width:4; stroke-opacity:1; fill:none" points="2290.6,1486.45 2290.6,1467.55 "/>
<path clip-path="url(#clip160)" d="M197.826 1517.37 Q194.215 1517.37 192.386 1520.93 Q190.581 1524.47 190.581 1531.6 Q190.581 1538.71 192.386 1542.27 Q194.215 1545.82 197.826 1545.82 Q201.46 1545.82 203.266 1542.27 Q205.094 1538.71 205.094 1531.6 Q205.094 1524.47 203.266 1520.93 Q201.46 1517.37 197.826 1517.37 M197.826 1513.66 Q203.636 1513.66 206.692 1518.27 Q209.77 1522.85 209.77 1531.6 Q209.77 1540.33 206.692 1544.94 Q203.636 1549.52 197.826 1549.52 Q192.016 1549.52 188.937 1544.94 Q185.882 1540.33 185.882 1531.6 Q185.882 1522.85 188.937 1518.27 Q192.016 1513.66 197.826 1513.66 Z" fill="#000000" fill-rule="nonzero" fill-opacity="1" /><path clip-path="url(#clip160)" d="M700.29 1544.91 L716.61 1544.91 L716.61 1548.85 L694.666 1548.85 L694.666 1544.91 Q697.328 1542.16 701.911 1537.53 Q706.517 1532.88 707.698 1531.53 Q709.943 1529.01 710.823 1527.27 Q711.726 1525.51 711.726 1523.82 Q711.726 1521.07 709.781 1519.33 Q707.86 1517.6 704.758 1517.6 Q702.559 1517.6 700.105 1518.36 Q697.675 1519.13 694.897 1520.68 L694.897 1515.95 Q697.721 1514.82 700.175 1514.24 Q702.628 1513.66 704.665 1513.66 Q710.036 1513.66 713.23 1516.35 Q716.425 1519.03 716.425 1523.52 Q716.425 1525.65 715.614 1527.57 Q714.827 1529.47 712.721 1532.07 Q712.142 1532.74 709.04 1535.95 Q705.939 1539.15 700.29 1544.91 Z" fill="#000000" fill-rule="nonzero" fill-opacity="1" /><path clip-path="url(#clip160)" d="M726.471 1514.29 L744.827 1514.29 L744.827 1518.22 L730.753 1518.22 L730.753 1526.7 Q731.772 1526.35 732.79 1526.19 Q733.809 1526 734.827 1526 Q740.614 1526 743.994 1529.17 Q747.374 1532.34 747.374 1537.76 Q747.374 1543.34 743.901 1546.44 Q740.429 1549.52 734.11 1549.52 Q731.934 1549.52 729.665 1549.15 Q727.42 1548.78 725.013 1548.04 L725.013 1543.34 Q727.096 1544.47 729.318 1545.03 Q731.54 1545.58 734.017 1545.58 Q738.022 1545.58 740.36 1543.48 Q742.698 1541.37 742.698 1537.76 Q742.698 1534.15 740.36 1532.04 Q738.022 1529.94 734.017 1529.94 Q732.142 1529.94 730.267 1530.35 Q728.415 1530.77 726.471 1531.65 L726.471 1514.29 Z" fill="#000000" fill-rule="nonzero" fill-opacity="1" /><path clip-path="url(#clip160)" d="M1218.91 1514.29 L1237.27 1514.29 L1237.27 1518.22 L1223.19 1518.22 L1223.19 1526.7 Q1224.21 1526.35 1225.23 1526.19 Q1226.25 1526 1227.27 1526 Q1233.06 1526 1236.44 1529.17 Q1239.82 1532.34 1239.82 1537.76 Q1239.82 1543.34 1236.34 1546.44 Q1232.87 1549.52 1226.55 1549.52 Q1224.38 1549.52 1222.11 1549.15 Q1219.86 1548.78 1217.45 1548.04 L1217.45 1543.34 Q1219.54 1544.47 1221.76 1545.03 Q1223.98 1545.58 1226.46 1545.58 Q1230.46 1545.58 1232.8 1543.48 Q1235.14 1541.37 1235.14 1537.76 Q1235.14 1534.15 1232.8 1532.04 Q1230.46 1529.94 1226.46 1529.94 Q1224.58 1529.94 1222.71 1530.35 Q1220.86 1530.77 1218.91 1531.65 L1218.91 1514.29 Z" fill="#000000" fill-rule="nonzero" fill-opacity="1" /><path clip-path="url(#clip160)" d="M1259.03 1517.37 Q1255.42 1517.37 1253.59 1520.93 Q1251.78 1524.47 1251.78 1531.6 Q1251.78 1538.71 1253.59 1542.27 Q1255.42 1545.82 1259.03 1545.82 Q1262.66 1545.82 1264.47 1542.27 Q1266.3 1538.71 1266.3 1531.6 Q1266.3 1524.47 1264.47 1520.93 Q1262.66 1517.37 1259.03 1517.37 M1259.03 1513.66 Q1264.84 1513.66 1267.89 1518.27 Q1270.97 1522.85 1270.97 1531.6 Q1270.97 1540.33 1267.89 1544.94 Q1264.84 1549.52 1259.03 1549.52 Q1253.22 1549.52 1250.14 1544.94 Q1247.08 1540.33 1247.08 1531.6 Q1247.08 1522.85 1250.14 1518.27 Q1253.22 1513.66 1259.03 1513.66 Z" fill="#000000" fill-rule="nonzero" fill-opacity="1" /><path clip-path="url(#clip160)" d="M1741.26 1514.29 L1763.48 1514.29 L1763.48 1516.28 L1750.94 1548.85 L1746.05 1548.85 L1757.86 1518.22 L1741.26 1518.22 L1741.26 1514.29 Z" fill="#000000" fill-rule="nonzero" fill-opacity="1" /><path clip-path="url(#clip160)" d="M1772.65 1514.29 L1791.01 1514.29 L1791.01 1518.22 L1776.93 1518.22 L1776.93 1526.7 Q1777.95 1526.35 1778.97 1526.19 Q1779.99 1526 1781.01 1526 Q1786.79 1526 1790.17 1529.17 Q1793.55 1532.34 1793.55 1537.76 Q1793.55 1543.34 1790.08 1546.44 Q1786.61 1549.52 1780.29 1549.52 Q1778.11 1549.52 1775.84 1549.15 Q1773.6 1548.78 1771.19 1548.04 L1771.19 1543.34 Q1773.27 1544.47 1775.5 1545.03 Q1777.72 1545.58 1780.2 1545.58 Q1784.2 1545.58 1786.54 1543.48 Q1788.88 1541.37 1788.88 1537.76 Q1788.88 1534.15 1786.54 1532.04 Q1784.2 1529.94 1780.2 1529.94 Q1778.32 1529.94 1776.45 1530.35 Q1774.59 1530.77 1772.65 1531.65 L1772.65 1514.29 Z" fill="#000000" fill-rule="nonzero" fill-opacity="1" /><path clip-path="url(#clip160)" d="M2250.21 1544.91 L2257.85 1544.91 L2257.85 1518.55 L2249.54 1520.21 L2249.54 1515.95 L2257.8 1514.29 L2262.48 1514.29 L2262.48 1544.91 L2270.11 1544.91 L2270.11 1548.85 L2250.21 1548.85 L2250.21 1544.91 Z" fill="#000000" fill-rule="nonzero" fill-opacity="1" /><path clip-path="url(#clip160)" d="M2289.56 1517.37 Q2285.95 1517.37 2284.12 1520.93 Q2282.31 1524.47 2282.31 1531.6 Q2282.31 1538.71 2284.12 1542.27 Q2285.95 1545.82 2289.56 1545.82 Q2293.19 1545.82 2295 1542.27 Q2296.83 1538.71 2296.83 1531.6 Q2296.83 1524.47 2295 1520.93 Q2293.19 1517.37 2289.56 1517.37 M2289.56 1513.66 Q2295.37 1513.66 2298.42 1518.27 Q2301.5 1522.85 2301.5 1531.6 Q2301.5 1540.33 2298.42 1544.94 Q2295.37 1549.52 2289.56 1549.52 Q2283.75 1549.52 2280.67 1544.94 Q2277.61 1540.33 2277.61 1531.6 Q2277.61 1522.85 2280.67 1518.27 Q2283.75 1513.66 2289.56 1513.66 Z" fill="#000000" fill-rule="nonzero" fill-opacity="1" /><path clip-path="url(#clip160)" d="M2319.72 1517.37 Q2316.11 1517.37 2314.28 1520.93 Q2312.48 1524.47 2312.48 1531.6 Q2312.48 1538.71 2314.28 1542.27 Q2316.11 1545.82 2319.72 1545.82 Q2323.35 1545.82 2325.16 1542.27 Q2326.99 1538.71 2326.99 1531.6 Q2326.99 1524.47 2325.16 1520.93 Q2323.35 1517.37 2319.72 1517.37 M2319.72 1513.66 Q2325.53 1513.66 2328.59 1518.27 Q2331.67 1522.85 2331.67 1531.6 Q2331.67 1540.33 2328.59 1544.94 Q2325.53 1549.52 2319.72 1549.52 Q2313.91 1549.52 2310.83 1544.94 Q2307.78 1540.33 2307.78 1531.6 Q2307.78 1522.85 2310.83 1518.27 Q2313.91 1513.66 2319.72 1513.66 Z" fill="#000000" fill-rule="nonzero" fill-opacity="1" /><polyline clip-path="url(#clip162)" style="stroke:#000000; stroke-linecap:round; stroke-linejoin:round; stroke-width:2; stroke-opacity:0.1; fill:none" points="156.598,1291.37 2352.76,1291.37 "/>
<polyline clip-path="url(#clip162)" style="stroke:#000000; stroke-linecap:round; stroke-linejoin:round; stroke-width:2; stroke-opacity:0.1; fill:none" points="156.598,985.594 2352.76,985.594 "/>
<polyline clip-path="url(#clip162)" style="stroke:#000000; stroke-linecap:round; stroke-linejoin:round; stroke-width:2; stroke-opacity:0.1; fill:none" points="156.598,679.823 2352.76,679.823 "/>
<polyline clip-path="url(#clip162)" style="stroke:#000000; stroke-linecap:round; stroke-linejoin:round; stroke-width:2; stroke-opacity:0.1; fill:none" points="156.598,374.052 2352.76,374.052 "/>
<polyline clip-path="url(#clip160)" style="stroke:#000000; stroke-linecap:round; stroke-linejoin:round; stroke-width:4; stroke-opacity:1; fill:none" points="156.598,1486.45 156.598,123.472 "/>
<polyline clip-path="url(#clip160)" style="stroke:#000000; stroke-linecap:round; stroke-linejoin:round; stroke-width:4; stroke-opacity:1; fill:none" points="156.598,1291.37 175.496,1291.37 "/>
<polyline clip-path="url(#clip160)" style="stroke:#000000; stroke-linecap:round; stroke-linejoin:round; stroke-width:4; stroke-opacity:1; fill:none" points="156.598,985.594 175.496,985.594 "/>
<polyline clip-path="url(#clip160)" style="stroke:#000000; stroke-linecap:round; stroke-linejoin:round; stroke-width:4; stroke-opacity:1; fill:none" points="156.598,679.823 175.496,679.823 "/>
<polyline clip-path="url(#clip160)" style="stroke:#000000; stroke-linecap:round; stroke-linejoin:round; stroke-width:4; stroke-opacity:1; fill:none" points="156.598,374.052 175.496,374.052 "/>
<path clip-path="url(#clip160)" d="M65.0198 1277.16 Q61.4087 1277.16 59.58 1280.73 Q57.7745 1284.27 57.7745 1291.4 Q57.7745 1298.51 59.58 1302.07 Q61.4087 1305.61 65.0198 1305.61 Q68.6541 1305.61 70.4596 1302.07 Q72.2883 1298.51 72.2883 1291.4 Q72.2883 1284.27 70.4596 1280.73 Q68.6541 1277.16 65.0198 1277.16 M65.0198 1273.46 Q70.83 1273.46 73.8855 1278.07 Q76.9642 1282.65 76.9642 1291.4 Q76.9642 1300.13 73.8855 1304.73 Q70.83 1309.32 65.0198 1309.32 Q59.2097 1309.32 56.131 1304.73 Q53.0754 1300.13 53.0754 1291.4 Q53.0754 1282.65 56.131 1278.07 Q59.2097 1273.46 65.0198 1273.46 Z" fill="#000000" fill-rule="nonzero" fill-opacity="1" /><path clip-path="url(#clip160)" d="M85.1818 1302.77 L90.066 1302.77 L90.066 1308.65 L85.1818 1308.65 L85.1818 1302.77 Z" fill="#000000" fill-rule="nonzero" fill-opacity="1" /><path clip-path="url(#clip160)" d="M104.279 1304.71 L120.598 1304.71 L120.598 1308.65 L98.6539 1308.65 L98.6539 1304.71 Q101.316 1301.96 105.899 1297.33 Q110.506 1292.67 111.686 1291.33 Q113.932 1288.81 114.811 1287.07 Q115.714 1285.31 115.714 1283.62 Q115.714 1280.87 113.77 1279.13 Q111.848 1277.4 108.746 1277.4 Q106.547 1277.4 104.094 1278.16 Q101.663 1278.92 98.8854 1280.47 L98.8854 1275.75 Q101.709 1274.62 104.163 1274.04 Q106.617 1273.46 108.654 1273.46 Q114.024 1273.46 117.219 1276.15 Q120.413 1278.83 120.413 1283.32 Q120.413 1285.45 119.603 1287.37 Q118.816 1289.27 116.709 1291.86 Q116.131 1292.53 113.029 1295.75 Q109.927 1298.95 104.279 1304.71 Z" fill="#000000" fill-rule="nonzero" fill-opacity="1" /><path clip-path="url(#clip160)" d="M62.9365 971.393 Q59.3254 971.393 57.4967 974.958 Q55.6912 978.499 55.6912 985.629 Q55.6912 992.735 57.4967 996.3 Q59.3254 999.842 62.9365 999.842 Q66.5707 999.842 68.3763 996.3 Q70.205 992.735 70.205 985.629 Q70.205 978.499 68.3763 974.958 Q66.5707 971.393 62.9365 971.393 M62.9365 967.689 Q68.7467 967.689 71.8022 972.296 Q74.8809 976.879 74.8809 985.629 Q74.8809 994.356 71.8022 998.962 Q68.7467 1003.55 62.9365 1003.55 Q57.1264 1003.55 54.0477 998.962 Q50.9921 994.356 50.9921 985.629 Q50.9921 976.879 54.0477 972.296 Q57.1264 967.689 62.9365 967.689 Z" fill="#000000" fill-rule="nonzero" fill-opacity="1" /><path clip-path="url(#clip160)" d="M83.0984 996.995 L87.9827 996.995 L87.9827 1002.87 L83.0984 1002.87 L83.0984 996.995 Z" fill="#000000" fill-rule="nonzero" fill-opacity="1" /><path clip-path="url(#clip160)" d="M111.015 972.388 L99.2095 990.837 L111.015 990.837 L111.015 972.388 M109.788 968.314 L115.668 968.314 L115.668 990.837 L120.598 990.837 L120.598 994.726 L115.668 994.726 L115.668 1002.87 L111.015 1002.87 L111.015 994.726 L95.4132 994.726 L95.4132 990.212 L109.788 968.314 Z" fill="#000000" fill-rule="nonzero" fill-opacity="1" /><path clip-path="url(#clip160)" d="M63.2606 665.622 Q59.6495 665.622 57.8208 669.187 Q56.0152 672.728 56.0152 679.858 Q56.0152 686.964 57.8208 690.529 Q59.6495 694.071 63.2606 694.071 Q66.8948 694.071 68.7004 690.529 Q70.5291 686.964 70.5291 679.858 Q70.5291 672.728 68.7004 669.187 Q66.8948 665.622 63.2606 665.622 M63.2606 661.918 Q69.0707 661.918 72.1263 666.525 Q75.205 671.108 75.205 679.858 Q75.205 688.585 72.1263 693.191 Q69.0707 697.774 63.2606 697.774 Q57.4504 697.774 54.3717 693.191 Q51.3162 688.585 51.3162 679.858 Q51.3162 671.108 54.3717 666.525 Q57.4504 661.918 63.2606 661.918 Z" fill="#000000" fill-rule="nonzero" fill-opacity="1" /><path clip-path="url(#clip160)" d="M83.4225 691.224 L88.3067 691.224 L88.3067 697.103 L83.4225 697.103 L83.4225 691.224 Z" fill="#000000" fill-rule="nonzero" fill-opacity="1" /><path clip-path="url(#clip160)" d="M109.071 677.96 Q105.922 677.96 104.071 680.113 Q102.242 682.265 102.242 686.015 Q102.242 689.742 104.071 691.918 Q105.922 694.071 109.071 694.071 Q112.219 694.071 114.047 691.918 Q115.899 689.742 115.899 686.015 Q115.899 682.265 114.047 680.113 Q112.219 677.96 109.071 677.96 M118.353 663.307 L118.353 667.566 Q116.594 666.733 114.788 666.293 Q113.006 665.853 111.246 665.853 Q106.617 665.853 104.163 668.978 Q101.733 672.103 101.385 678.423 Q102.751 676.409 104.811 675.344 Q106.871 674.256 109.348 674.256 Q114.557 674.256 117.566 677.427 Q120.598 680.576 120.598 686.015 Q120.598 691.339 117.45 694.557 Q114.302 697.774 109.071 697.774 Q103.075 697.774 99.9039 693.191 Q96.7326 688.585 96.7326 679.858 Q96.7326 671.664 100.621 666.802 Q104.51 661.918 111.061 661.918 Q112.82 661.918 114.603 662.265 Q116.408 662.613 118.353 663.307 Z" fill="#000000" fill-rule="nonzero" fill-opacity="1" /><path clip-path="url(#clip160)" d="M63.5152 359.851 Q59.9041 359.851 58.0754 363.416 Q56.2699 366.957 56.2699 374.087 Q56.2699 381.193 58.0754 384.758 Q59.9041 388.3 63.5152 388.3 Q67.1494 388.3 68.955 384.758 Q70.7837 381.193 70.7837 374.087 Q70.7837 366.957 68.955 363.416 Q67.1494 359.851 63.5152 359.851 M63.5152 356.147 Q69.3254 356.147 72.3809 360.754 Q75.4596 365.337 75.4596 374.087 Q75.4596 382.814 72.3809 387.42 Q69.3254 392.003 63.5152 392.003 Q57.7051 392.003 54.6264 387.42 Q51.5708 382.814 51.5708 374.087 Q51.5708 365.337 54.6264 360.754 Q57.7051 356.147 63.5152 356.147 Z" fill="#000000" fill-rule="nonzero" fill-opacity="1" /><path clip-path="url(#clip160)" d="M83.6771 385.453 L88.5614 385.453 L88.5614 391.332 L83.6771 391.332 L83.6771 385.453 Z" fill="#000000" fill-rule="nonzero" fill-opacity="1" /><path clip-path="url(#clip160)" d="M108.746 374.92 Q105.413 374.92 103.492 376.703 Q101.594 378.485 101.594 381.61 Q101.594 384.735 103.492 386.517 Q105.413 388.3 108.746 388.3 Q112.08 388.3 114.001 386.517 Q115.922 384.712 115.922 381.61 Q115.922 378.485 114.001 376.703 Q112.103 374.92 108.746 374.92 M104.071 372.929 Q101.061 372.189 99.3715 370.129 Q97.7048 368.068 97.7048 365.105 Q97.7048 360.962 100.645 358.555 Q103.608 356.147 108.746 356.147 Q113.908 356.147 116.848 358.555 Q119.788 360.962 119.788 365.105 Q119.788 368.068 118.098 370.129 Q116.432 372.189 113.445 372.929 Q116.825 373.717 118.7 376.008 Q120.598 378.3 120.598 381.61 Q120.598 386.633 117.52 389.318 Q114.464 392.003 108.746 392.003 Q103.029 392.003 99.9502 389.318 Q96.8947 386.633 96.8947 381.61 Q96.8947 378.3 98.7928 376.008 Q100.691 373.717 104.071 372.929 M102.358 365.545 Q102.358 368.23 104.024 369.735 Q105.714 371.24 108.746 371.24 Q111.756 371.24 113.445 369.735 Q115.158 368.23 115.158 365.545 Q115.158 362.86 113.445 361.355 Q111.756 359.851 108.746 359.851 Q105.714 359.851 104.024 361.355 Q102.358 362.86 102.358 365.545 Z" fill="#000000" fill-rule="nonzero" fill-opacity="1" /><path clip-path="url(#clip160)" d="M185.947 12.096 L237.11 12.096 L237.11 18.9825 L215.64 18.9825 L215.64 72.576 L207.417 72.576 L207.417 18.9825 L185.947 18.9825 L185.947 12.096 Z" fill="#000000" fill-rule="nonzero" fill-opacity="1" /><path clip-path="url(#clip160)" d="M258.783 34.1734 Q257.527 33.4443 256.028 33.1202 Q254.57 32.7556 252.787 32.7556 Q246.468 32.7556 243.065 36.8875 Q239.703 40.9789 239.703 48.6757 L239.703 72.576 L232.209 72.576 L232.209 27.2059 L239.703 27.2059 L239.703 34.2544 Q242.052 30.1225 245.82 28.1376 Q249.587 26.1121 254.975 26.1121 Q255.744 26.1121 256.676 26.2337 Q257.608 26.3147 258.742 26.5172 L258.783 34.1734 Z" fill="#000000" fill-rule="nonzero" fill-opacity="1" /><path clip-path="url(#clip160)" d="M287.22 49.7694 Q278.186 49.7694 274.703 51.8354 Q271.219 53.9013 271.219 58.8839 Q271.219 62.8538 273.811 65.2034 Q276.444 67.5124 280.941 67.5124 Q287.139 67.5124 290.866 63.1374 Q294.633 58.7219 294.633 51.4303 L294.633 49.7694 L287.22 49.7694 M302.087 46.6907 L302.087 72.576 L294.633 72.576 L294.633 65.6895 Q292.081 69.8214 288.273 71.8063 Q284.465 73.7508 278.956 73.7508 Q271.988 73.7508 267.857 69.8619 Q263.765 65.9325 263.765 59.3701 Q263.765 51.7138 268.869 47.825 Q274.014 43.9361 284.182 43.9361 L294.633 43.9361 L294.633 43.2069 Q294.633 38.0623 291.23 35.2672 Q287.868 32.4315 281.751 32.4315 Q277.862 32.4315 274.176 33.3632 Q270.49 34.295 267.087 36.1584 L267.087 29.2718 Q271.178 27.692 275.027 26.9223 Q278.875 26.1121 282.521 26.1121 Q292.365 26.1121 297.226 31.2163 Q302.087 36.3204 302.087 46.6907 Z" fill="#000000" fill-rule="nonzero" fill-opacity="1" /><path clip-path="url(#clip160)" d="M317.44 27.2059 L324.893 27.2059 L324.893 72.576 L317.44 72.576 L317.44 27.2059 M317.44 9.54393 L324.893 9.54393 L324.893 18.9825 L317.44 18.9825 L317.44 9.54393 Z" fill="#000000" fill-rule="nonzero" fill-opacity="1" /><path clip-path="url(#clip160)" d="M378.203 45.1919 L378.203 72.576 L370.75 72.576 L370.75 45.4349 Q370.75 38.994 368.238 35.7938 Q365.726 32.5936 360.703 32.5936 Q354.667 32.5936 351.184 36.4419 Q347.7 40.2903 347.7 46.9338 L347.7 72.576 L340.206 72.576 L340.206 27.2059 L347.7 27.2059 L347.7 34.2544 Q350.373 30.163 353.979 28.1376 Q357.625 26.1121 362.364 26.1121 Q370.182 26.1121 374.193 30.9732 Q378.203 35.7938 378.203 45.1919 Z" fill="#000000" fill-rule="nonzero" fill-opacity="1" /><path clip-path="url(#clip160)" d="M393.07 27.2059 L400.524 27.2059 L400.524 72.576 L393.07 72.576 L393.07 27.2059 M393.07 9.54393 L400.524 9.54393 L400.524 18.9825 L393.07 18.9825 L393.07 9.54393 Z" fill="#000000" fill-rule="nonzero" fill-opacity="1" /><path clip-path="url(#clip160)" d="M453.834 45.1919 L453.834 72.576 L446.38 72.576 L446.38 45.4349 Q446.38 38.994 443.868 35.7938 Q441.357 32.5936 436.334 32.5936 Q430.298 32.5936 426.814 36.4419 Q423.33 40.2903 423.33 46.9338 L423.33 72.576 L415.836 72.576 L415.836 27.2059 L423.33 27.2059 L423.33 34.2544 Q426.004 30.163 429.609 28.1376 Q433.255 26.1121 437.995 26.1121 Q445.813 26.1121 449.823 30.9732 Q453.834 35.7938 453.834 45.1919 Z" fill="#000000" fill-rule="nonzero" fill-opacity="1" /><path clip-path="url(#clip160)" d="M498.556 49.3643 Q498.556 41.2625 495.193 36.8065 Q491.872 32.3505 485.836 32.3505 Q479.84 32.3505 476.478 36.8065 Q473.156 41.2625 473.156 49.3643 Q473.156 57.4256 476.478 61.8816 Q479.84 66.3376 485.836 66.3376 Q491.872 66.3376 495.193 61.8816 Q498.556 57.4256 498.556 49.3643 M506.009 66.9452 Q506.009 78.5308 500.865 84.1616 Q495.72 89.8329 485.107 89.8329 Q481.177 89.8329 477.693 89.2252 Q474.21 88.6581 470.928 87.4428 L470.928 80.1917 Q474.21 81.9741 477.41 82.8248 Q480.61 83.6755 483.932 83.6755 Q491.264 83.6755 494.91 79.8271 Q498.556 76.0193 498.556 68.282 L498.556 64.5957 Q496.247 68.6061 492.641 70.5911 Q489.036 72.576 484.013 72.576 Q475.668 72.576 470.564 66.2161 Q465.46 59.8562 465.46 49.3643 Q465.46 38.832 470.564 32.472 Q475.668 26.1121 484.013 26.1121 Q489.036 26.1121 492.641 28.0971 Q496.247 30.082 498.556 34.0924 L498.556 27.2059 L506.009 27.2059 L506.009 66.9452 Z" fill="#000000" fill-rule="nonzero" fill-opacity="1" /><path clip-path="url(#clip160)" d="M584.313 14.0809 L584.313 22.0612 Q579.655 19.8332 575.523 18.7395 Q571.391 17.6457 567.542 17.6457 Q560.858 17.6457 557.213 20.2383 Q553.607 22.8309 553.607 27.611 Q553.607 31.6214 555.997 33.6873 Q558.428 35.7128 565.152 36.9686 L570.095 37.9813 Q579.25 39.7232 583.584 44.1387 Q587.959 48.5136 587.959 55.8863 Q587.959 64.6767 582.045 69.2137 Q576.171 73.7508 564.788 73.7508 Q560.494 73.7508 555.633 72.7785 Q550.812 71.8063 545.627 69.9024 L545.627 61.4765 Q550.61 64.2716 555.39 65.6895 Q560.17 67.1073 564.788 67.1073 Q571.796 67.1073 575.604 64.3527 Q579.412 61.598 579.412 56.4939 Q579.412 52.0379 576.657 49.5264 Q573.943 47.0148 567.704 45.759 L562.722 44.7868 Q553.567 42.9639 549.475 39.075 Q545.384 35.1862 545.384 28.2591 Q545.384 20.2383 551.015 15.6203 Q556.686 11.0023 566.611 11.0023 Q570.864 11.0023 575.28 11.7719 Q579.695 12.5416 584.313 14.0809 Z" fill="#000000" fill-rule="nonzero" fill-opacity="1" /><path clip-path="url(#clip160)" d="M621.014 49.7694 Q611.981 49.7694 608.497 51.8354 Q605.013 53.9013 605.013 58.8839 Q605.013 62.8538 607.606 65.2034 Q610.239 67.5124 614.735 67.5124 Q620.933 67.5124 624.66 63.1374 Q628.428 58.7219 628.428 51.4303 L628.428 49.7694 L621.014 49.7694 M635.881 46.6907 L635.881 72.576 L628.428 72.576 L628.428 65.6895 Q625.875 69.8214 622.068 71.8063 Q618.26 73.7508 612.751 73.7508 Q605.783 73.7508 601.651 69.8619 Q597.56 65.9325 597.56 59.3701 Q597.56 51.7138 602.664 47.825 Q607.808 43.9361 617.976 43.9361 L628.428 43.9361 L628.428 43.2069 Q628.428 38.0623 625.025 35.2672 Q621.663 32.4315 615.546 32.4315 Q611.657 32.4315 607.97 33.3632 Q604.284 34.295 600.881 36.1584 L600.881 29.2718 Q604.973 27.692 608.821 26.9223 Q612.67 26.1121 616.315 26.1121 Q626.159 26.1121 631.02 31.2163 Q635.881 36.3204 635.881 46.6907 Z" fill="#000000" fill-rule="nonzero" fill-opacity="1" /><path clip-path="url(#clip160)" d="M686.558 35.9153 Q689.353 30.8922 693.242 28.5022 Q697.131 26.1121 702.397 26.1121 Q709.486 26.1121 713.334 31.0947 Q717.183 36.0368 717.183 45.1919 L717.183 72.576 L709.689 72.576 L709.689 45.4349 Q709.689 38.913 707.38 35.7533 Q705.071 32.5936 700.331 32.5936 Q694.538 32.5936 691.176 36.4419 Q687.814 40.2903 687.814 46.9338 L687.814 72.576 L680.32 72.576 L680.32 45.4349 Q680.32 38.8725 678.011 35.7533 Q675.702 32.5936 670.881 32.5936 Q665.169 32.5936 661.807 36.4824 Q658.445 40.3308 658.445 46.9338 L658.445 72.576 L650.951 72.576 L650.951 27.2059 L658.445 27.2059 L658.445 34.2544 Q660.997 30.082 664.562 28.0971 Q668.126 26.1121 673.028 26.1121 Q677.97 26.1121 681.413 28.6237 Q684.897 31.1352 686.558 35.9153 Z" fill="#000000" fill-rule="nonzero" fill-opacity="1" /><path clip-path="url(#clip160)" d="M739.26 65.7705 L739.26 89.8329 L731.766 89.8329 L731.766 27.2059 L739.26 27.2059 L739.26 34.0924 Q741.61 30.0415 745.175 28.0971 Q748.78 26.1121 753.763 26.1121 Q762.026 26.1121 767.171 32.6746 Q772.356 39.2371 772.356 49.9314 Q772.356 60.6258 767.171 67.1883 Q762.026 73.7508 753.763 73.7508 Q748.78 73.7508 745.175 71.8063 Q741.61 69.8214 739.26 65.7705 M764.619 49.9314 Q764.619 41.7081 761.216 37.0496 Q757.854 32.3505 751.94 32.3505 Q746.025 32.3505 742.623 37.0496 Q739.26 41.7081 739.26 49.9314 Q739.26 58.1548 742.623 62.8538 Q746.025 67.5124 751.94 67.5124 Q757.854 67.5124 761.216 62.8538 Q764.619 58.1548 764.619 49.9314 Z" fill="#000000" fill-rule="nonzero" fill-opacity="1" /><path clip-path="url(#clip160)" d="M784.711 9.54393 L792.165 9.54393 L792.165 72.576 L784.711 72.576 L784.711 9.54393 Z" fill="#000000" fill-rule="nonzero" fill-opacity="1" /><path clip-path="url(#clip160)" d="M846.569 48.0275 L846.569 51.6733 L812.298 51.6733 Q812.784 59.3701 816.916 63.421 Q821.089 67.4314 828.502 67.4314 Q832.796 67.4314 836.806 66.3781 Q840.857 65.3249 844.827 63.2184 L844.827 70.267 Q840.816 71.9684 836.604 72.8596 Q832.391 73.7508 828.056 73.7508 Q817.2 73.7508 810.84 67.4314 Q804.52 61.1119 804.52 50.3365 Q804.52 39.1965 810.516 32.6746 Q816.552 26.1121 826.76 26.1121 Q835.915 26.1121 841.222 32.0264 Q846.569 37.9003 846.569 48.0275 M839.115 45.84 Q839.034 39.7232 835.672 36.0774 Q832.35 32.4315 826.841 32.4315 Q820.602 32.4315 816.835 35.9558 Q813.108 39.4801 812.541 45.8805 L839.115 45.84 Z" fill="#000000" fill-rule="nonzero" fill-opacity="1" /><path clip-path="url(#clip160)" d="M887.645 65.6895 L901.013 65.6895 L901.013 19.5497 L886.47 22.4663 L886.47 15.0127 L900.932 12.096 L909.115 12.096 L909.115 65.6895 L922.483 65.6895 L922.483 72.576 L887.645 72.576 L887.645 65.6895 Z" fill="#000000" fill-rule="nonzero" fill-opacity="1" /><path clip-path="url(#clip160)" d="M939.861 62.2867 L948.408 62.2867 L948.408 69.2543 L941.765 82.2172 L936.539 82.2172 L939.861 69.2543 L939.861 62.2867 Z" fill="#000000" fill-rule="nonzero" fill-opacity="1" /><path clip-path="url(#clip160)" d="M993.171 65.6895 L1006.54 65.6895 L1006.54 19.5497 L991.996 22.4663 L991.996 15.0127 L1006.46 12.096 L1014.64 12.096 L1014.64 65.6895 L1028.01 65.6895 L1028.01 72.576 L993.171 72.576 L993.171 65.6895 Z" fill="#000000" fill-rule="nonzero" fill-opacity="1" /><path clip-path="url(#clip160)" d="M1062.04 17.4837 Q1055.72 17.4837 1052.52 23.7221 Q1049.36 29.92 1049.36 42.3968 Q1049.36 54.833 1052.52 61.0714 Q1055.72 67.2693 1062.04 67.2693 Q1068.4 67.2693 1071.56 61.0714 Q1074.76 54.833 1074.76 42.3968 Q1074.76 29.92 1071.56 23.7221 Q1068.4 17.4837 1062.04 17.4837 M1062.04 11.0023 Q1072.2 11.0023 1077.55 19.0636 Q1082.94 27.0843 1082.94 42.3968 Q1082.94 57.6687 1077.55 65.73 Q1072.2 73.7508 1062.04 73.7508 Q1051.87 73.7508 1046.48 65.73 Q1041.13 57.6687 1041.13 42.3968 Q1041.13 27.0843 1046.48 19.0636 Q1051.87 11.0023 1062.04 11.0023 Z" fill="#000000" fill-rule="nonzero" fill-opacity="1" /><path clip-path="url(#clip160)" d="M1114.82 17.4837 Q1108.5 17.4837 1105.3 23.7221 Q1102.14 29.92 1102.14 42.3968 Q1102.14 54.833 1105.3 61.0714 Q1108.5 67.2693 1114.82 67.2693 Q1121.18 67.2693 1124.34 61.0714 Q1127.54 54.833 1127.54 42.3968 Q1127.54 29.92 1124.34 23.7221 Q1121.18 17.4837 1114.82 17.4837 M1114.82 11.0023 Q1124.99 11.0023 1130.33 19.0636 Q1135.72 27.0843 1135.72 42.3968 Q1135.72 57.6687 1130.33 65.73 Q1124.99 73.7508 1114.82 73.7508 Q1104.65 73.7508 1099.26 65.73 Q1093.92 57.6687 1093.92 42.3968 Q1093.92 27.0843 1099.26 19.0636 Q1104.65 11.0023 1114.82 11.0023 Z" fill="#000000" fill-rule="nonzero" fill-opacity="1" /><path clip-path="url(#clip160)" d="M1167.6 17.4837 Q1161.28 17.4837 1158.08 23.7221 Q1154.92 29.92 1154.92 42.3968 Q1154.92 54.833 1158.08 61.0714 Q1161.28 67.2693 1167.6 67.2693 Q1173.96 67.2693 1177.12 61.0714 Q1180.32 54.833 1180.32 42.3968 Q1180.32 29.92 1177.12 23.7221 Q1173.96 17.4837 1167.6 17.4837 M1167.6 11.0023 Q1177.77 11.0023 1183.12 19.0636 Q1188.51 27.0843 1188.51 42.3968 Q1188.51 57.6687 1183.12 65.73 Q1177.77 73.7508 1167.6 73.7508 Q1157.44 73.7508 1152.05 65.73 Q1146.7 57.6687 1146.7 42.3968 Q1146.7 27.0843 1152.05 19.0636 Q1157.44 11.0023 1167.6 11.0023 Z" fill="#000000" fill-rule="nonzero" fill-opacity="1" /><path clip-path="url(#clip160)" d="M1264.78 14.0809 L1264.78 22.0612 Q1260.13 19.8332 1255.99 18.7395 Q1251.86 17.6457 1248.01 17.6457 Q1241.33 17.6457 1237.68 20.2383 Q1234.08 22.8309 1234.08 27.611 Q1234.08 31.6214 1236.47 33.6873 Q1238.9 35.7128 1245.62 36.9686 L1250.57 37.9813 Q1259.72 39.7232 1264.05 44.1387 Q1268.43 48.5136 1268.43 55.8863 Q1268.43 64.6767 1262.52 69.2137 Q1256.64 73.7508 1245.26 73.7508 Q1240.96 73.7508 1236.1 72.7785 Q1231.28 71.8063 1226.1 69.9024 L1226.1 61.4765 Q1231.08 64.2716 1235.86 65.6895 Q1240.64 67.1073 1245.26 67.1073 Q1252.27 67.1073 1256.07 64.3527 Q1259.88 61.598 1259.88 56.4939 Q1259.88 52.0379 1257.13 49.5264 Q1254.41 47.0148 1248.18 45.759 L1243.19 44.7868 Q1234.04 42.9639 1229.95 39.075 Q1225.85 35.1862 1225.85 28.2591 Q1225.85 20.2383 1231.49 15.6203 Q1237.16 11.0023 1247.08 11.0023 Q1251.34 11.0023 1255.75 11.7719 Q1260.17 12.5416 1264.78 14.0809 Z" fill="#000000" fill-rule="nonzero" fill-opacity="1" /><path clip-path="url(#clip160)" d="M1301.49 49.7694 Q1292.45 49.7694 1288.97 51.8354 Q1285.48 53.9013 1285.48 58.8839 Q1285.48 62.8538 1288.08 65.2034 Q1290.71 67.5124 1295.21 67.5124 Q1301.4 67.5124 1305.13 63.1374 Q1308.9 58.7219 1308.9 51.4303 L1308.9 49.7694 L1301.49 49.7694 M1316.35 46.6907 L1316.35 72.576 L1308.9 72.576 L1308.9 65.6895 Q1306.35 69.8214 1302.54 71.8063 Q1298.73 73.7508 1293.22 73.7508 Q1286.25 73.7508 1282.12 69.8619 Q1278.03 65.9325 1278.03 59.3701 Q1278.03 51.7138 1283.13 47.825 Q1288.28 43.9361 1298.45 43.9361 L1308.9 43.9361 L1308.9 43.2069 Q1308.9 38.0623 1305.5 35.2672 Q1302.13 32.4315 1296.02 32.4315 Q1292.13 32.4315 1288.44 33.3632 Q1284.76 34.295 1281.35 36.1584 L1281.35 29.2718 Q1285.44 27.692 1289.29 26.9223 Q1293.14 26.1121 1296.79 26.1121 Q1306.63 26.1121 1311.49 31.2163 Q1316.35 36.3204 1316.35 46.6907 Z" fill="#000000" fill-rule="nonzero" fill-opacity="1" /><path clip-path="url(#clip160)" d="M1367.03 35.9153 Q1369.82 30.8922 1373.71 28.5022 Q1377.6 26.1121 1382.87 26.1121 Q1389.96 26.1121 1393.81 31.0947 Q1397.65 36.0368 1397.65 45.1919 L1397.65 72.576 L1390.16 72.576 L1390.16 45.4349 Q1390.16 38.913 1387.85 35.7533 Q1385.54 32.5936 1380.8 32.5936 Q1375.01 32.5936 1371.65 36.4419 Q1368.28 40.2903 1368.28 46.9338 L1368.28 72.576 L1360.79 72.576 L1360.79 45.4349 Q1360.79 38.8725 1358.48 35.7533 Q1356.17 32.5936 1351.35 32.5936 Q1345.64 32.5936 1342.28 36.4824 Q1338.92 40.3308 1338.92 46.9338 L1338.92 72.576 L1331.42 72.576 L1331.42 27.2059 L1338.92 27.2059 L1338.92 34.2544 Q1341.47 30.082 1345.03 28.0971 Q1348.6 26.1121 1353.5 26.1121 Q1358.44 26.1121 1361.88 28.6237 Q1365.37 31.1352 1367.03 35.9153 Z" fill="#000000" fill-rule="nonzero" fill-opacity="1" /><path clip-path="url(#clip160)" d="M1419.73 65.7705 L1419.73 89.8329 L1412.24 89.8329 L1412.24 27.2059 L1419.73 27.2059 L1419.73 34.0924 Q1422.08 30.0415 1425.65 28.0971 Q1429.25 26.1121 1434.23 26.1121 Q1442.5 26.1121 1447.64 32.6746 Q1452.83 39.2371 1452.83 49.9314 Q1452.83 60.6258 1447.64 67.1883 Q1442.5 73.7508 1434.23 73.7508 Q1429.25 73.7508 1425.65 71.8063 Q1422.08 69.8214 1419.73 65.7705 M1445.09 49.9314 Q1445.09 41.7081 1441.69 37.0496 Q1438.32 32.3505 1432.41 32.3505 Q1426.5 32.3505 1423.09 37.0496 Q1419.73 41.7081 1419.73 49.9314 Q1419.73 58.1548 1423.09 62.8538 Q1426.5 67.5124 1432.41 67.5124 Q1438.32 67.5124 1441.69 62.8538 Q1445.09 58.1548 1445.09 49.9314 Z" fill="#000000" fill-rule="nonzero" fill-opacity="1" /><path clip-path="url(#clip160)" d="M1465.18 9.54393 L1472.64 9.54393 L1472.64 72.576 L1465.18 72.576 L1465.18 9.54393 Z" fill="#000000" fill-rule="nonzero" fill-opacity="1" /><path clip-path="url(#clip160)" d="M1527.04 48.0275 L1527.04 51.6733 L1492.77 51.6733 Q1493.26 59.3701 1497.39 63.421 Q1501.56 67.4314 1508.97 67.4314 Q1513.27 67.4314 1517.28 66.3781 Q1521.33 65.3249 1525.3 63.2184 L1525.3 70.267 Q1521.29 71.9684 1517.07 72.8596 Q1512.86 73.7508 1508.53 73.7508 Q1497.67 73.7508 1491.31 67.4314 Q1484.99 61.1119 1484.99 50.3365 Q1484.99 39.1965 1490.99 32.6746 Q1497.02 26.1121 1507.23 26.1121 Q1516.39 26.1121 1521.69 32.0264 Q1527.04 37.9003 1527.04 48.0275 M1519.59 45.84 Q1519.5 39.7232 1516.14 36.0774 Q1512.82 32.4315 1507.31 32.4315 Q1501.07 32.4315 1497.31 35.9558 Q1493.58 39.4801 1493.01 45.8805 L1519.59 45.84 Z" fill="#000000" fill-rule="nonzero" fill-opacity="1" /><path clip-path="url(#clip160)" d="M1565.97 12.096 L1604.21 12.096 L1604.21 18.9825 L1574.15 18.9825 L1574.15 36.8875 L1602.95 36.8875 L1602.95 43.7741 L1574.15 43.7741 L1574.15 65.6895 L1604.94 65.6895 L1604.94 72.576 L1565.97 72.576 L1565.97 12.096 Z" fill="#000000" fill-rule="nonzero" fill-opacity="1" /><path clip-path="url(#clip160)" d="M1646.99 28.5427 L1646.99 35.5912 Q1643.83 33.9709 1640.42 33.1607 Q1637.02 32.3505 1633.38 32.3505 Q1627.83 32.3505 1625.03 34.0519 Q1622.28 35.7533 1622.28 39.156 Q1622.28 41.7486 1624.26 43.2475 Q1626.25 44.7058 1632.24 46.0426 L1634.79 46.6097 Q1642.73 48.3111 1646.06 51.4303 Q1649.42 54.509 1649.42 60.0587 Q1649.42 66.3781 1644.39 70.0644 Q1639.41 73.7508 1630.66 73.7508 Q1627.02 73.7508 1623.05 73.0216 Q1619.12 72.3329 1614.74 70.9151 L1614.74 63.2184 Q1618.87 65.3654 1622.88 66.4591 Q1626.89 67.5124 1630.82 67.5124 Q1636.09 67.5124 1638.93 65.73 Q1641.76 63.9071 1641.76 60.6258 Q1641.76 57.5877 1639.7 55.9673 Q1637.67 54.3469 1630.74 52.8481 L1628.15 52.2405 Q1621.22 50.7821 1618.14 47.7845 Q1615.07 44.7463 1615.07 39.4801 Q1615.07 33.0797 1619.6 29.5959 Q1624.14 26.1121 1632.48 26.1121 Q1636.62 26.1121 1640.26 26.7198 Q1643.91 27.3274 1646.99 28.5427 Z" fill="#000000" fill-rule="nonzero" fill-opacity="1" /><path clip-path="url(#clip160)" d="M1668.66 14.324 L1668.66 27.2059 L1684.01 27.2059 L1684.01 32.9987 L1668.66 32.9987 L1668.66 57.6282 Q1668.66 63.1779 1670.16 64.7578 Q1671.7 66.3376 1676.36 66.3376 L1684.01 66.3376 L1684.01 72.576 L1676.36 72.576 Q1667.73 72.576 1664.45 69.3758 Q1661.17 66.1351 1661.17 57.6282 L1661.17 32.9987 L1655.7 32.9987 L1655.7 27.2059 L1661.17 27.2059 L1661.17 14.324 L1668.66 14.324 Z" fill="#000000" fill-rule="nonzero" fill-opacity="1" /><path clip-path="url(#clip160)" d="M1693.82 27.2059 L1701.27 27.2059 L1701.27 72.576 L1693.82 72.576 L1693.82 27.2059 M1693.82 9.54393 L1701.27 9.54393 L1701.27 18.9825 L1693.82 18.9825 L1693.82 9.54393 Z" fill="#000000" fill-rule="nonzero" fill-opacity="1" /><path clip-path="url(#clip160)" d="M1752.19 35.9153 Q1754.98 30.8922 1758.87 28.5022 Q1762.76 26.1121 1768.03 26.1121 Q1775.12 26.1121 1778.97 31.0947 Q1782.81 36.0368 1782.81 45.1919 L1782.81 72.576 L1775.32 72.576 L1775.32 45.4349 Q1775.32 38.913 1773.01 35.7533 Q1770.7 32.5936 1765.96 32.5936 Q1760.17 32.5936 1756.81 36.4419 Q1753.44 40.2903 1753.44 46.9338 L1753.44 72.576 L1745.95 72.576 L1745.95 45.4349 Q1745.95 38.8725 1743.64 35.7533 Q1741.33 32.5936 1736.51 32.5936 Q1730.8 32.5936 1727.44 36.4824 Q1724.08 40.3308 1724.08 46.9338 L1724.08 72.576 L1716.58 72.576 L1716.58 27.2059 L1724.08 27.2059 L1724.08 34.2544 Q1726.63 30.082 1730.19 28.0971 Q1733.76 26.1121 1738.66 26.1121 Q1743.6 26.1121 1747.04 28.6237 Q1750.53 31.1352 1752.19 35.9153 Z" fill="#000000" fill-rule="nonzero" fill-opacity="1" /><path clip-path="url(#clip160)" d="M1818.3 49.7694 Q1809.27 49.7694 1805.78 51.8354 Q1802.3 53.9013 1802.3 58.8839 Q1802.3 62.8538 1804.89 65.2034 Q1807.52 67.5124 1812.02 67.5124 Q1818.22 67.5124 1821.95 63.1374 Q1825.71 58.7219 1825.71 51.4303 L1825.71 49.7694 L1818.3 49.7694 M1833.17 46.6907 L1833.17 72.576 L1825.71 72.576 L1825.71 65.6895 Q1823.16 69.8214 1819.35 71.8063 Q1815.55 73.7508 1810.04 73.7508 Q1803.07 73.7508 1798.94 69.8619 Q1794.84 65.9325 1794.84 59.3701 Q1794.84 51.7138 1799.95 47.825 Q1805.09 43.9361 1815.26 43.9361 L1825.71 43.9361 L1825.71 43.2069 Q1825.71 38.0623 1822.31 35.2672 Q1818.95 32.4315 1812.83 32.4315 Q1808.94 32.4315 1805.26 33.3632 Q1801.57 34.295 1798.17 36.1584 L1798.17 29.2718 Q1802.26 27.692 1806.11 26.9223 Q1809.95 26.1121 1813.6 26.1121 Q1823.44 26.1121 1828.31 31.2163 Q1833.17 36.3204 1833.17 46.6907 Z" fill="#000000" fill-rule="nonzero" fill-opacity="1" /><path clip-path="url(#clip160)" d="M1855.89 14.324 L1855.89 27.2059 L1871.24 27.2059 L1871.24 32.9987 L1855.89 32.9987 L1855.89 57.6282 Q1855.89 63.1779 1857.39 64.7578 Q1858.93 66.3376 1863.59 66.3376 L1871.24 66.3376 L1871.24 72.576 L1863.59 72.576 Q1854.96 72.576 1851.68 69.3758 Q1848.4 66.1351 1848.4 57.6282 L1848.4 32.9987 L1842.93 32.9987 L1842.93 27.2059 L1848.4 27.2059 L1848.4 14.324 L1855.89 14.324 Z" fill="#000000" fill-rule="nonzero" fill-opacity="1" /><path clip-path="url(#clip160)" d="M1919.86 48.0275 L1919.86 51.6733 L1885.59 51.6733 Q1886.07 59.3701 1890.2 63.421 Q1894.38 67.4314 1901.79 67.4314 Q1906.08 67.4314 1910.09 66.3781 Q1914.14 65.3249 1918.11 63.2184 L1918.11 70.267 Q1914.1 71.9684 1909.89 72.8596 Q1905.68 73.7508 1901.34 73.7508 Q1890.49 73.7508 1884.13 67.4314 Q1877.81 61.1119 1877.81 50.3365 Q1877.81 39.1965 1883.8 32.6746 Q1889.84 26.1121 1900.05 26.1121 Q1909.2 26.1121 1914.51 32.0264 Q1919.86 37.9003 1919.86 48.0275 M1912.4 45.84 Q1912.32 39.7232 1908.96 36.0774 Q1905.64 32.4315 1900.13 32.4315 Q1893.89 32.4315 1890.12 35.9558 Q1886.4 39.4801 1885.83 45.8805 L1912.4 45.84 Z" fill="#000000" fill-rule="nonzero" fill-opacity="1" /><path clip-path="url(#clip160)" d="M1933.99 62.2867 L1942.54 62.2867 L1942.54 69.2543 L1935.9 82.2172 L1930.67 82.2172 L1933.99 69.2543 L1933.99 62.2867 Z" fill="#000000" fill-rule="nonzero" fill-opacity="1" /><path clip-path="url(#clip160)" d="M2017.69 20.0358 Q2013.55 17.2001 2003.87 17.2001 Q1993.62 17.2001 1993.62 21.9397 Q1993.62 25.6665 2004.32 27.611 Q2012.74 29.1098 2017.48 33.6468 Q2023.23 39.1155 2023.23 50.3365 Q2023.23 61.0714 2017.69 67.3908 Q2012.14 73.7508 2002.41 73.7508 Q1992.73 73.7508 1987.14 67.3908 Q1981.59 61.0714 1981.59 49.9314 Q1981.59 41.6676 1987.14 34.9836 Q1989.29 32.391 1992.33 30.9327 Q1986.01 27.7325 1986.01 22.0207 Q1986.01 11.0023 2003.87 11.0023 Q2012.82 11.0023 2017.69 13.8379 L2017.69 20.0358 M1997.92 32.9582 Q1995.16 34.1329 1992.93 37.0901 Q1989.45 41.6676 1989.45 49.9314 Q1989.45 58.1548 1992.89 62.7728 Q1996.38 67.4314 2002.41 67.4314 Q2008.37 67.4314 2011.85 62.7323 Q2015.34 58.0333 2015.34 50.3365 Q2015.34 42.2752 2011.65 38.3864 Q2007.72 34.2139 2002.62 33.7683 Q2000.02 33.5253 1997.92 32.9582 Z" fill="#000000" fill-rule="nonzero" fill-opacity="1" /><path clip-path="url(#clip160)" d="M2073.3 27.2059 L2056.9 49.2833 L2074.15 72.576 L2065.36 72.576 L2052.16 54.752 L2038.95 72.576 L2030.16 72.576 L2047.78 48.8377 L2031.66 27.2059 L2040.45 27.2059 L2052.48 43.369 L2064.51 27.2059 L2073.3 27.2059 Z" fill="#000000" fill-rule="nonzero" fill-opacity="1" /><path clip-path="url(#clip160)" d="M2112.03 34.9026 L2163.96 34.9026 L2163.96 41.7081 L2112.03 41.7081 L2112.03 34.9026 M2112.03 51.4303 L2163.96 51.4303 L2163.96 58.3168 L2112.03 58.3168 L2112.03 51.4303 Z" fill="#000000" fill-rule="nonzero" fill-opacity="1" /><path clip-path="url(#clip160)" d="M2225.5 17.4837 Q2219.18 17.4837 2215.98 23.7221 Q2212.82 29.92 2212.82 42.3968 Q2212.82 54.833 2215.98 61.0714 Q2219.18 67.2693 2225.5 67.2693 Q2231.86 67.2693 2235.02 61.0714 Q2238.22 54.833 2238.22 42.3968 Q2238.22 29.92 2235.02 23.7221 Q2231.86 17.4837 2225.5 17.4837 M2225.5 11.0023 Q2235.66 11.0023 2241.01 19.0636 Q2246.4 27.0843 2246.4 42.3968 Q2246.4 57.6687 2241.01 65.73 Q2235.66 73.7508 2225.5 73.7508 Q2215.33 73.7508 2209.94 65.73 Q2204.59 57.6687 2204.59 42.3968 Q2204.59 27.0843 2209.94 19.0636 Q2215.33 11.0023 2225.5 11.0023 Z" fill="#000000" fill-rule="nonzero" fill-opacity="1" /><path clip-path="url(#clip160)" d="M2260.78 62.2867 L2269.33 62.2867 L2269.33 72.576 L2260.78 72.576 L2260.78 62.2867 Z" fill="#000000" fill-rule="nonzero" fill-opacity="1" /><path clip-path="url(#clip160)" d="M2288.57 65.6895 L2301.94 65.6895 L2301.94 19.5497 L2287.39 22.4663 L2287.39 15.0127 L2301.86 12.096 L2310.04 12.096 L2310.04 65.6895 L2323.41 65.6895 L2323.41 72.576 L2288.57 72.576 L2288.57 65.6895 Z" fill="#000000" fill-rule="nonzero" fill-opacity="1" /><polyline clip-path="url(#clip162)" style="stroke:#009af9; stroke-linecap:round; stroke-linejoin:round; stroke-width:8; stroke-opacity:1; fill:none" points="218.754,1101.05 239.681,1018.95 260.609,912.873 281.537,776.877 302.465,621.095 323.392,525.708 344.32,518.422 365.248,506.998 386.176,534.092 407.103,603.565 428.031,731.512 448.959,891.337 469.887,1027.38 490.814,1106.15 511.742,1175.99 532.67,1186.09 553.598,1117.68 574.525,1037.75 595.453,985.924 616.381,817.209 637.309,683.802 658.236,586.124 679.164,524.804 700.092,479.676 721.02,533.182 741.947,576.486 762.875,686.212 783.803,815.033 804.731,944.747 825.658,1053.74 846.586,1161.05 867.514,1133.29 888.442,1157.39 909.369,1102.88 930.297,1010.24 951.225,884.569 972.152,745.897 993.08,676.247 1014.01,557.756 1034.94,491.092 1055.86,513.734 1076.79,551.021 1097.72,638.097 1118.65,778.024 1139.57,918.113 1160.5,989.395 1181.43,1075.2 1202.36,1179.05 1223.29,1167.97 1244.21,1139.28 "/>
<path clip-path="url(#clip162)" d="M1265.14 1363.94 L1286.07 1372.81 L1307 1301.26 L1327.92 1235.52 L1348.85 1158 L1369.78 1117.79 L1390.71 1045.02 L1411.64 1121.46 L1432.56 1152.5 L1453.49 1180.93 L1474.42 1283.67 L1495.35 1353.85 L1516.27 1396.2 L1537.2 1425.25 L1558.13 1440.08 L1579.06 1446.19 L1599.98 1418.82 L1620.91 1390.08 L1641.84 1314.86 L1662.77 1299.12 L1683.7 1222.52 L1704.62 1108.31 L1725.55 1107.86 L1746.48 1102.35 L1767.41 1127.12 L1788.33 1183.08 L1809.26 1282.91 L1830.19 1330.92 L1851.12 1406.14 L1872.05 1381.83 L1892.97 1425.4 L1913.9 1447.87 L1934.83 1426.47 L1955.76 1417.75 L1976.68 1367.15 L1997.61 1331.68 L2018.54 1243.01 L2039.47 1180.02 L2060.4 1119.78 L2081.32 1111.68 L2102.25 1107.4 L2123.18 1146.69 L2144.11 1249.27 L2165.03 1293.61 L2185.96 1379.99 L2206.89 1424.02 L2227.82 1404.61 L2248.75 1434.11 L2269.67 1429.68 L2290.6 1428.46 L2290.6 545.484 L2269.67 546.707 L2248.75 551.141 L2227.82 521.634 L2206.89 541.05 L2185.96 497.019 L2165.03 410.639 L2144.11 366.302 L2123.18 263.716 L2102.25 224.424 L2081.32 228.705 L2060.4 236.808 L2039.47 297.045 L2018.54 360.034 L1997.61 448.707 L1976.68 484.177 L1955.76 534.782 L1934.83 543.496 L1913.9 564.9 L1892.97 542.426 L1872.05 498.854 L1851.12 523.163 L1830.19 447.943 L1809.26 399.937 L1788.33 300.103 L1767.41 244.146 L1746.48 219.379 L1725.55 224.883 L1704.62 225.342 L1683.7 339.547 L1662.77 416.143 L1641.84 431.89 L1620.91 507.11 L1599.98 535.852 L1579.06 563.219 L1558.13 557.103 L1537.2 542.273 L1516.27 513.225 L1495.35 470.876 L1474.42 400.701 L1453.49 297.962 L1432.56 269.525 L1411.64 238.49 L1390.71 162.047 L1369.78 234.82 L1348.85 275.029 L1327.92 352.542 L1307 418.283 L1286.07 489.833 L1265.14 480.966  Z" fill="#e26f46" fill-rule="evenodd" fill-opacity="0.5"/>
<polyline clip-path="url(#clip162)" style="stroke:#e26f46; stroke-linecap:round; stroke-linejoin:round; stroke-width:8; stroke-opacity:1; fill:none" stroke-dasharray="32, 16, 4, 16" points="1265.14,922.453 1286.07,931.32 1307,859.769 1327.92,794.029 1348.85,716.516 1369.78,676.307 1390.71,603.533 1411.64,679.976 1432.56,711.012 1453.49,739.449 1474.42,842.188 1495.35,912.362 1516.27,954.711 1537.2,983.76 1558.13,998.59 1579.06,1004.7 1599.98,977.338 1620.91,948.596 1641.84,873.376 1662.77,857.629 1683.7,781.033 1704.62,666.828 1725.55,666.369 1746.48,660.865 1767.41,685.633 1788.33,741.589 1809.26,841.423 1830.19,889.429 1851.12,964.649 1872.05,940.34 1892.97,983.913 1913.9,1006.39 1934.83,984.983 1955.76,976.268 1976.68,925.663 1997.61,890.194 2018.54,801.52 2039.47,738.531 2060.4,678.294 2081.32,670.191 2102.25,665.911 2123.18,705.202 2144.11,807.788 2165.03,852.125 2185.96,938.506 2206.89,982.537 2227.82,963.12 2248.75,992.627 2269.67,988.193 2290.6,986.97 "/>
<polyline clip-path="url(#clip162)" style="stroke:#3da44d; stroke-linecap:round; stroke-linejoin:round; stroke-width:8; stroke-opacity:1; fill:none" points="1265.14,1054.29 1286.07,945.204 1307,834.554 1327.92,693.031 1348.85,561.576 1369.78,540.092 1390.71,489.369 1411.64,509.398 1432.56,579.295 1453.49,677.853 1474.42,814.511 1495.35,1008.46 1516.27,1030.56 1537.2,1143.34 1558.13,1162.55 1579.06,1147.59 1599.98,1111.58 1620.91,1036.94 1641.84,865.354 1662.77,736.811 1683.7,630.097 1704.62,530.74 1725.55,492.653 1746.48,521.127 1767.41,555.79 1788.33,610.926 1809.26,737.854 1830.19,870.429 1851.12,1010.87 1872.05,1099.09 1892.97,1173.52 1913.9,1156.6 1934.83,1125.45 1955.76,1056.09 1976.68,931.818 1997.61,829.117 2018.54,694.949 2039.47,569.644 2060.4,530.536 2081.32,481.821 2102.25,498.259 2123.18,589.579 2144.11,688.743 2165.03,800.619 2185.96,973.836 2206.89,1052.97 2227.82,1160.77 2248.75,1140.85 2269.67,1137.26 2290.6,1104.15 "/>
<path clip-path="url(#clip160)" d="M229.803 1441.02 L856.199 1441.02 L856.199 1233.66 L229.803 1233.66  Z" fill="#ffffff" fill-rule="evenodd" fill-opacity="1"/>
<polyline clip-path="url(#clip160)" style="stroke:#000000; stroke-linecap:round; stroke-linejoin:round; stroke-width:4; stroke-opacity:1; fill:none" points="229.803,1441.02 856.199,1441.02 856.199,1233.66 229.803,1233.66 229.803,1441.02 "/>
<polyline clip-path="url(#clip160)" style="stroke:#009af9; stroke-linecap:round; stroke-linejoin:round; stroke-width:8; stroke-opacity:1; fill:none" points="254.205,1285.5 400.616,1285.5 "/>
<path clip-path="url(#clip160)" d="M452.888 1270.88 L452.888 1275.81 Q450.527 1273.61 447.841 1272.52 Q445.179 1271.43 442.17 1271.43 Q436.244 1271.43 433.096 1275.07 Q429.948 1278.68 429.948 1285.53 Q429.948 1292.36 433.096 1295.99 Q436.244 1299.6 442.17 1299.6 Q445.179 1299.6 447.841 1298.52 Q450.527 1297.43 452.888 1295.23 L452.888 1300.11 Q450.434 1301.78 447.679 1302.61 Q444.948 1303.45 441.892 1303.45 Q434.045 1303.45 429.531 1298.66 Q425.018 1293.84 425.018 1285.53 Q425.018 1277.2 429.531 1272.41 Q434.045 1267.59 441.892 1267.59 Q444.994 1267.59 447.726 1268.42 Q450.48 1269.23 452.888 1270.88 Z" fill="#000000" fill-rule="nonzero" fill-opacity="1" /><path clip-path="url(#clip160)" d="M469.971 1279.84 Q466.545 1279.84 464.554 1282.52 Q462.564 1285.18 462.564 1289.84 Q462.564 1294.49 464.531 1297.17 Q466.522 1299.84 469.971 1299.84 Q473.374 1299.84 475.364 1297.15 Q477.355 1294.47 477.355 1289.84 Q477.355 1285.23 475.364 1282.54 Q473.374 1279.84 469.971 1279.84 M469.971 1276.22 Q475.526 1276.22 478.698 1279.84 Q481.869 1283.45 481.869 1289.84 Q481.869 1296.2 478.698 1299.84 Q475.526 1303.45 469.971 1303.45 Q464.392 1303.45 461.221 1299.84 Q458.073 1296.2 458.073 1289.84 Q458.073 1283.45 461.221 1279.84 Q464.392 1276.22 469.971 1276.22 Z" fill="#000000" fill-rule="nonzero" fill-opacity="1" /><path clip-path="url(#clip160)" d="M510.48 1287.13 L510.48 1302.78 L506.221 1302.78 L506.221 1287.27 Q506.221 1283.59 504.786 1281.76 Q503.35 1279.93 500.48 1279.93 Q497.031 1279.93 495.04 1282.13 Q493.05 1284.33 493.05 1288.12 L493.05 1302.78 L488.767 1302.78 L488.767 1276.85 L493.05 1276.85 L493.05 1280.88 Q494.577 1278.54 496.637 1277.38 Q498.721 1276.22 501.429 1276.22 Q505.897 1276.22 508.188 1279 Q510.48 1281.76 510.48 1287.13 Z" fill="#000000" fill-rule="nonzero" fill-opacity="1" /><path clip-path="url(#clip160)" d="M536.035 1280.78 L536.035 1266.76 L540.295 1266.76 L540.295 1302.78 L536.035 1302.78 L536.035 1298.89 Q534.693 1301.2 532.633 1302.34 Q530.596 1303.45 527.725 1303.45 Q523.026 1303.45 520.063 1299.7 Q517.123 1295.95 517.123 1289.84 Q517.123 1283.72 520.063 1279.97 Q523.026 1276.22 527.725 1276.22 Q530.596 1276.22 532.633 1277.36 Q534.693 1278.47 536.035 1280.78 M521.522 1289.84 Q521.522 1294.53 523.443 1297.22 Q525.387 1299.88 528.767 1299.88 Q532.147 1299.88 534.091 1297.22 Q536.035 1294.53 536.035 1289.84 Q536.035 1285.14 534.091 1282.47 Q532.147 1279.79 528.767 1279.79 Q525.387 1279.79 523.443 1282.47 Q521.522 1285.14 521.522 1289.84 Z" fill="#000000" fill-rule="nonzero" fill-opacity="1" /><path clip-path="url(#clip160)" d="M549.068 1276.85 L553.327 1276.85 L553.327 1302.78 L549.068 1302.78 L549.068 1276.85 M549.068 1266.76 L553.327 1266.76 L553.327 1272.15 L549.068 1272.15 L549.068 1266.76 Z" fill="#000000" fill-rule="nonzero" fill-opacity="1" /><path clip-path="url(#clip160)" d="M566.452 1269.49 L566.452 1276.85 L575.225 1276.85 L575.225 1280.16 L566.452 1280.16 L566.452 1294.23 Q566.452 1297.41 567.308 1298.31 Q568.188 1299.21 570.85 1299.21 L575.225 1299.21 L575.225 1302.78 L570.85 1302.78 Q565.92 1302.78 564.045 1300.95 Q562.17 1299.09 562.17 1294.23 L562.17 1280.16 L559.045 1280.16 L559.045 1276.85 L562.17 1276.85 L562.17 1269.49 L566.452 1269.49 Z" fill="#000000" fill-rule="nonzero" fill-opacity="1" /><path clip-path="url(#clip160)" d="M580.827 1276.85 L585.086 1276.85 L585.086 1302.78 L580.827 1302.78 L580.827 1276.85 M580.827 1266.76 L585.086 1266.76 L585.086 1272.15 L580.827 1272.15 L580.827 1266.76 Z" fill="#000000" fill-rule="nonzero" fill-opacity="1" /><path clip-path="url(#clip160)" d="M604.044 1279.84 Q600.618 1279.84 598.628 1282.52 Q596.637 1285.18 596.637 1289.84 Q596.637 1294.49 598.605 1297.17 Q600.595 1299.84 604.044 1299.84 Q607.447 1299.84 609.438 1297.15 Q611.429 1294.47 611.429 1289.84 Q611.429 1285.23 609.438 1282.54 Q607.447 1279.84 604.044 1279.84 M604.044 1276.22 Q609.6 1276.22 612.771 1279.84 Q615.942 1283.45 615.942 1289.84 Q615.942 1296.2 612.771 1299.84 Q609.6 1303.45 604.044 1303.45 Q598.466 1303.45 595.294 1299.84 Q592.146 1296.2 592.146 1289.84 Q592.146 1283.45 595.294 1279.84 Q598.466 1276.22 604.044 1276.22 Z" fill="#000000" fill-rule="nonzero" fill-opacity="1" /><path clip-path="url(#clip160)" d="M644.553 1287.13 L644.553 1302.78 L640.294 1302.78 L640.294 1287.27 Q640.294 1283.59 638.859 1281.76 Q637.424 1279.93 634.553 1279.93 Q631.104 1279.93 629.114 1282.13 Q627.123 1284.33 627.123 1288.12 L627.123 1302.78 L622.841 1302.78 L622.841 1276.85 L627.123 1276.85 L627.123 1280.88 Q628.651 1278.54 630.711 1277.38 Q632.794 1276.22 635.502 1276.22 Q639.97 1276.22 642.262 1279 Q644.553 1281.76 644.553 1287.13 Z" fill="#000000" fill-rule="nonzero" fill-opacity="1" /><path clip-path="url(#clip160)" d="M675.224 1288.75 L675.224 1290.83 L655.641 1290.83 Q655.919 1295.23 658.28 1297.54 Q660.664 1299.84 664.9 1299.84 Q667.354 1299.84 669.646 1299.23 Q671.961 1298.63 674.229 1297.43 L674.229 1301.46 Q671.937 1302.43 669.53 1302.94 Q667.123 1303.45 664.646 1303.45 Q658.442 1303.45 654.808 1299.84 Q651.197 1296.22 651.197 1290.07 Q651.197 1283.7 654.623 1279.97 Q658.072 1276.22 663.905 1276.22 Q669.137 1276.22 672.169 1279.6 Q675.224 1282.96 675.224 1288.75 M670.965 1287.5 Q670.919 1284 668.998 1281.92 Q667.1 1279.84 663.951 1279.84 Q660.387 1279.84 658.234 1281.85 Q656.104 1283.86 655.78 1287.52 L670.965 1287.5 Z" fill="#000000" fill-rule="nonzero" fill-opacity="1" /><path clip-path="url(#clip160)" d="M699.275 1280.78 L699.275 1266.76 L703.535 1266.76 L703.535 1302.78 L699.275 1302.78 L699.275 1298.89 Q697.933 1301.2 695.873 1302.34 Q693.836 1303.45 690.965 1303.45 Q686.266 1303.45 683.303 1299.7 Q680.363 1295.95 680.363 1289.84 Q680.363 1283.72 683.303 1279.97 Q686.266 1276.22 690.965 1276.22 Q693.836 1276.22 695.873 1277.36 Q697.933 1278.47 699.275 1280.78 M684.761 1289.84 Q684.761 1294.53 686.683 1297.22 Q688.627 1299.88 692.007 1299.88 Q695.386 1299.88 697.331 1297.22 Q699.275 1294.53 699.275 1289.84 Q699.275 1285.14 697.331 1282.47 Q695.386 1279.79 692.007 1279.79 Q688.627 1279.79 686.683 1282.47 Q684.761 1285.14 684.761 1289.84 Z" fill="#000000" fill-rule="nonzero" fill-opacity="1" /><path clip-path="url(#clip160)" d="M732.238 1272.06 L732.238 1298.93 L737.886 1298.93 Q745.039 1298.93 748.349 1295.69 Q751.682 1292.45 751.682 1285.46 Q751.682 1278.52 748.349 1275.3 Q745.039 1272.06 737.886 1272.06 L732.238 1272.06 M727.562 1268.22 L737.169 1268.22 Q747.215 1268.22 751.914 1272.41 Q756.613 1276.57 756.613 1285.46 Q756.613 1294.4 751.891 1298.59 Q747.169 1302.78 737.169 1302.78 L727.562 1302.78 L727.562 1268.22 Z" fill="#000000" fill-rule="nonzero" fill-opacity="1" /><path clip-path="url(#clip160)" d="M775.664 1289.74 Q770.502 1289.74 768.511 1290.92 Q766.52 1292.1 766.52 1294.95 Q766.52 1297.22 768.002 1298.56 Q769.506 1299.88 772.076 1299.88 Q775.617 1299.88 777.747 1297.38 Q779.9 1294.86 779.9 1290.69 L779.9 1289.74 L775.664 1289.74 M784.159 1287.98 L784.159 1302.78 L779.9 1302.78 L779.9 1298.84 Q778.442 1301.2 776.266 1302.34 Q774.09 1303.45 770.942 1303.45 Q766.96 1303.45 764.599 1301.22 Q762.261 1298.98 762.261 1295.23 Q762.261 1290.85 765.178 1288.63 Q768.118 1286.41 773.928 1286.41 L779.9 1286.41 L779.9 1285.99 Q779.9 1283.05 777.955 1281.46 Q776.034 1279.84 772.539 1279.84 Q770.317 1279.84 768.21 1280.37 Q766.104 1280.9 764.159 1281.97 L764.159 1278.03 Q766.497 1277.13 768.696 1276.69 Q770.895 1276.22 772.979 1276.22 Q778.604 1276.22 781.381 1279.14 Q784.159 1282.06 784.159 1287.98 Z" fill="#000000" fill-rule="nonzero" fill-opacity="1" /><path clip-path="url(#clip160)" d="M797.145 1269.49 L797.145 1276.85 L805.918 1276.85 L805.918 1280.16 L797.145 1280.16 L797.145 1294.23 Q797.145 1297.41 798.002 1298.31 Q798.881 1299.21 801.543 1299.21 L805.918 1299.21 L805.918 1302.78 L801.543 1302.78 Q796.613 1302.78 794.738 1300.95 Q792.863 1299.09 792.863 1294.23 L792.863 1280.16 L789.738 1280.16 L789.738 1276.85 L792.863 1276.85 L792.863 1269.49 L797.145 1269.49 Z" fill="#000000" fill-rule="nonzero" fill-opacity="1" /><path clip-path="url(#clip160)" d="M823.302 1289.74 Q818.14 1289.74 816.15 1290.92 Q814.159 1292.1 814.159 1294.95 Q814.159 1297.22 815.64 1298.56 Q817.145 1299.88 819.714 1299.88 Q823.256 1299.88 825.386 1297.38 Q827.538 1294.86 827.538 1290.69 L827.538 1289.74 L823.302 1289.74 M831.798 1287.98 L831.798 1302.78 L827.538 1302.78 L827.538 1298.84 Q826.08 1301.2 823.904 1302.34 Q821.728 1303.45 818.58 1303.45 Q814.599 1303.45 812.238 1301.22 Q809.9 1298.98 809.9 1295.23 Q809.9 1290.85 812.816 1288.63 Q815.756 1286.41 821.566 1286.41 L827.538 1286.41 L827.538 1285.99 Q827.538 1283.05 825.594 1281.46 Q823.673 1279.84 820.177 1279.84 Q817.955 1279.84 815.849 1280.37 Q813.742 1280.9 811.798 1281.97 L811.798 1278.03 Q814.136 1277.13 816.335 1276.69 Q818.534 1276.22 820.617 1276.22 Q826.242 1276.22 829.02 1279.14 Q831.798 1282.06 831.798 1287.98 Z" fill="#000000" fill-rule="nonzero" fill-opacity="1" /><polyline clip-path="url(#clip160)" style="stroke:#e26f46; stroke-linecap:round; stroke-linejoin:round; stroke-width:8; stroke-opacity:1; fill:none" stroke-dasharray="32, 16, 4, 16" points="254.205,1337.34 400.616,1337.34 "/>
<path clip-path="url(#clip160)" d="M429.693 1323.9 L429.693 1336.88 L435.573 1336.88 Q438.837 1336.88 440.619 1335.19 Q442.402 1333.5 442.402 1330.38 Q442.402 1327.28 440.619 1325.59 Q438.837 1323.9 435.573 1323.9 L429.693 1323.9 M425.018 1320.06 L435.573 1320.06 Q441.383 1320.06 444.346 1322.69 Q447.332 1325.31 447.332 1330.38 Q447.332 1335.5 444.346 1338.11 Q441.383 1340.73 435.573 1340.73 L429.693 1340.73 L429.693 1354.62 L425.018 1354.62 L425.018 1320.06 Z" fill="#000000" fill-rule="nonzero" fill-opacity="1" /><path clip-path="url(#clip160)" d="M467.61 1332.67 Q466.892 1332.25 466.036 1332.07 Q465.202 1331.86 464.184 1331.86 Q460.573 1331.86 458.628 1334.22 Q456.707 1336.56 456.707 1340.96 L456.707 1354.62 L452.425 1354.62 L452.425 1328.69 L456.707 1328.69 L456.707 1332.72 Q458.05 1330.36 460.203 1329.22 Q462.355 1328.06 465.434 1328.06 Q465.874 1328.06 466.406 1328.13 Q466.939 1328.18 467.587 1328.3 L467.61 1332.67 Z" fill="#000000" fill-rule="nonzero" fill-opacity="1" /><path clip-path="url(#clip160)" d="M493.212 1340.59 L493.212 1342.67 L473.628 1342.67 Q473.906 1347.07 476.267 1349.38 Q478.651 1351.68 482.888 1351.68 Q485.341 1351.68 487.633 1351.07 Q489.948 1350.47 492.216 1349.27 L492.216 1353.3 Q489.925 1354.27 487.517 1354.78 Q485.11 1355.29 482.633 1355.29 Q476.429 1355.29 472.795 1351.68 Q469.184 1348.06 469.184 1341.91 Q469.184 1335.54 472.61 1331.81 Q476.059 1328.06 481.892 1328.06 Q487.124 1328.06 490.156 1331.44 Q493.212 1334.8 493.212 1340.59 M488.952 1339.34 Q488.906 1335.84 486.985 1333.76 Q485.087 1331.68 481.938 1331.68 Q478.374 1331.68 476.221 1333.69 Q474.091 1335.7 473.767 1339.36 L488.952 1339.34 Z" fill="#000000" fill-rule="nonzero" fill-opacity="1" /><path clip-path="url(#clip160)" d="M517.262 1332.62 L517.262 1318.6 L521.522 1318.6 L521.522 1354.62 L517.262 1354.62 L517.262 1350.73 Q515.92 1353.04 513.86 1354.18 Q511.823 1355.29 508.952 1355.29 Q504.253 1355.29 501.29 1351.54 Q498.35 1347.79 498.35 1341.68 Q498.35 1335.56 501.29 1331.81 Q504.253 1328.06 508.952 1328.06 Q511.823 1328.06 513.86 1329.2 Q515.92 1330.31 517.262 1332.62 M502.749 1341.68 Q502.749 1346.37 504.67 1349.06 Q506.614 1351.72 509.994 1351.72 Q513.374 1351.72 515.318 1349.06 Q517.262 1346.37 517.262 1341.68 Q517.262 1336.98 515.318 1334.31 Q513.374 1331.63 509.994 1331.63 Q506.614 1331.63 504.67 1334.31 Q502.749 1336.98 502.749 1341.68 Z" fill="#000000" fill-rule="nonzero" fill-opacity="1" /><path clip-path="url(#clip160)" d="M530.295 1328.69 L534.554 1328.69 L534.554 1354.62 L530.295 1354.62 L530.295 1328.69 M530.295 1318.6 L534.554 1318.6 L534.554 1323.99 L530.295 1323.99 L530.295 1318.6 Z" fill="#000000" fill-rule="nonzero" fill-opacity="1" /><path clip-path="url(#clip160)" d="M562.123 1329.68 L562.123 1333.67 Q560.318 1332.67 558.489 1332.18 Q556.683 1331.68 554.832 1331.68 Q550.688 1331.68 548.396 1334.31 Q546.105 1336.93 546.105 1341.68 Q546.105 1346.42 548.396 1349.06 Q550.688 1351.68 554.832 1351.68 Q556.683 1351.68 558.489 1351.19 Q560.318 1350.68 562.123 1349.68 L562.123 1353.62 Q560.341 1354.45 558.42 1354.87 Q556.521 1355.29 554.369 1355.29 Q548.512 1355.29 545.063 1351.61 Q541.614 1347.93 541.614 1341.68 Q541.614 1335.33 545.086 1331.7 Q548.582 1328.06 554.646 1328.06 Q556.614 1328.06 558.489 1328.48 Q560.364 1328.87 562.123 1329.68 Z" fill="#000000" fill-rule="nonzero" fill-opacity="1" /><path clip-path="url(#clip160)" d="M573.744 1321.33 L573.744 1328.69 L582.517 1328.69 L582.517 1332 L573.744 1332 L573.744 1346.07 Q573.744 1349.25 574.6 1350.15 Q575.48 1351.05 578.142 1351.05 L582.517 1351.05 L582.517 1354.62 L578.142 1354.62 Q573.211 1354.62 571.336 1352.79 Q569.461 1350.93 569.461 1346.07 L569.461 1332 L566.336 1332 L566.336 1328.69 L569.461 1328.69 L569.461 1321.33 L573.744 1321.33 Z" fill="#000000" fill-rule="nonzero" fill-opacity="1" /><path clip-path="url(#clip160)" d="M610.294 1340.59 L610.294 1342.67 L590.711 1342.67 Q590.989 1347.07 593.35 1349.38 Q595.734 1351.68 599.97 1351.68 Q602.424 1351.68 604.716 1351.07 Q607.03 1350.47 609.299 1349.27 L609.299 1353.3 Q607.007 1354.27 604.6 1354.78 Q602.192 1355.29 599.716 1355.29 Q593.512 1355.29 589.878 1351.68 Q586.267 1348.06 586.267 1341.91 Q586.267 1335.54 589.693 1331.81 Q593.142 1328.06 598.975 1328.06 Q604.206 1328.06 607.239 1331.44 Q610.294 1334.8 610.294 1340.59 M606.035 1339.34 Q605.989 1335.84 604.067 1333.76 Q602.169 1331.68 599.021 1331.68 Q595.456 1331.68 593.304 1333.69 Q591.174 1335.7 590.85 1339.36 L606.035 1339.34 Z" fill="#000000" fill-rule="nonzero" fill-opacity="1" /><path clip-path="url(#clip160)" d="M634.345 1332.62 L634.345 1318.6 L638.604 1318.6 L638.604 1354.62 L634.345 1354.62 L634.345 1350.73 Q633.003 1353.04 630.942 1354.18 Q628.905 1355.29 626.035 1355.29 Q621.336 1355.29 618.373 1351.54 Q615.433 1347.79 615.433 1341.68 Q615.433 1335.56 618.373 1331.81 Q621.336 1328.06 626.035 1328.06 Q628.905 1328.06 630.942 1329.2 Q633.003 1330.31 634.345 1332.62 M619.831 1341.68 Q619.831 1346.37 621.753 1349.06 Q623.697 1351.72 627.077 1351.72 Q630.456 1351.72 632.401 1349.06 Q634.345 1346.37 634.345 1341.68 Q634.345 1336.98 632.401 1334.31 Q630.456 1331.63 627.077 1331.63 Q623.697 1331.63 621.753 1334.31 Q619.831 1336.98 619.831 1341.68 Z" fill="#000000" fill-rule="nonzero" fill-opacity="1" /><path clip-path="url(#clip160)" d="M667.308 1323.9 L667.308 1336.88 L673.187 1336.88 Q676.451 1336.88 678.234 1335.19 Q680.016 1333.5 680.016 1330.38 Q680.016 1327.28 678.234 1325.59 Q676.451 1323.9 673.187 1323.9 L667.308 1323.9 M662.632 1320.06 L673.187 1320.06 Q678.998 1320.06 681.961 1322.69 Q684.947 1325.31 684.947 1330.38 Q684.947 1335.5 681.961 1338.11 Q678.998 1340.73 673.187 1340.73 L667.308 1340.73 L667.308 1354.62 L662.632 1354.62 L662.632 1320.06 Z" fill="#000000" fill-rule="nonzero" fill-opacity="1" /><path clip-path="url(#clip160)" d="M699.391 1331.68 Q695.965 1331.68 693.974 1334.36 Q691.984 1337.02 691.984 1341.68 Q691.984 1346.33 693.951 1349.01 Q695.942 1351.68 699.391 1351.68 Q702.794 1351.68 704.785 1348.99 Q706.775 1346.31 706.775 1341.68 Q706.775 1337.07 704.785 1334.38 Q702.794 1331.68 699.391 1331.68 M699.391 1328.06 Q704.947 1328.06 708.118 1331.68 Q711.289 1335.29 711.289 1341.68 Q711.289 1348.04 708.118 1351.68 Q704.947 1355.29 699.391 1355.29 Q693.812 1355.29 690.641 1351.68 Q687.493 1348.04 687.493 1341.68 Q687.493 1335.29 690.641 1331.68 Q693.812 1328.06 699.391 1328.06 Z" fill="#000000" fill-rule="nonzero" fill-opacity="1" /><path clip-path="url(#clip160)" d="M718.349 1328.69 L722.609 1328.69 L722.609 1354.62 L718.349 1354.62 L718.349 1328.69 M718.349 1318.6 L722.609 1318.6 L722.609 1323.99 L718.349 1323.99 L718.349 1318.6 Z" fill="#000000" fill-rule="nonzero" fill-opacity="1" /><path clip-path="url(#clip160)" d="M753.071 1338.97 L753.071 1354.62 L748.812 1354.62 L748.812 1339.11 Q748.812 1335.43 747.377 1333.6 Q745.942 1331.77 743.071 1331.77 Q739.622 1331.77 737.632 1333.97 Q735.641 1336.17 735.641 1339.96 L735.641 1354.62 L731.358 1354.62 L731.358 1328.69 L735.641 1328.69 L735.641 1332.72 Q737.169 1330.38 739.229 1329.22 Q741.312 1328.06 744.02 1328.06 Q748.488 1328.06 750.78 1330.84 Q753.071 1333.6 753.071 1338.97 Z" fill="#000000" fill-rule="nonzero" fill-opacity="1" /><path clip-path="url(#clip160)" d="M765.78 1321.33 L765.78 1328.69 L774.553 1328.69 L774.553 1332 L765.78 1332 L765.78 1346.07 Q765.78 1349.25 766.636 1350.15 Q767.516 1351.05 770.178 1351.05 L774.553 1351.05 L774.553 1354.62 L770.178 1354.62 Q765.247 1354.62 763.372 1352.79 Q761.497 1350.93 761.497 1346.07 L761.497 1332 L758.372 1332 L758.372 1328.69 L761.497 1328.69 L761.497 1321.33 L765.78 1321.33 Z" fill="#000000" fill-rule="nonzero" fill-opacity="1" /><path clip-path="url(#clip160)" d="M796.682 1329.45 L796.682 1333.48 Q794.877 1332.56 792.932 1332.09 Q790.988 1331.63 788.904 1331.63 Q785.733 1331.63 784.136 1332.6 Q782.562 1333.57 782.562 1335.52 Q782.562 1337 783.696 1337.86 Q784.83 1338.69 788.256 1339.45 L789.715 1339.78 Q794.252 1340.75 796.15 1342.53 Q798.071 1344.29 798.071 1347.46 Q798.071 1351.07 795.201 1353.18 Q792.354 1355.29 787.354 1355.29 Q785.27 1355.29 783.002 1354.87 Q780.756 1354.48 778.256 1353.67 L778.256 1349.27 Q780.617 1350.5 782.909 1351.12 Q785.201 1351.72 787.446 1351.72 Q790.455 1351.72 792.076 1350.7 Q793.696 1349.66 793.696 1347.79 Q793.696 1346.05 792.516 1345.12 Q791.358 1344.2 787.4 1343.34 L785.918 1343 Q781.96 1342.16 780.201 1340.45 Q778.442 1338.71 778.442 1335.7 Q778.442 1332.05 781.034 1330.06 Q783.627 1328.06 788.395 1328.06 Q790.756 1328.06 792.84 1328.41 Q794.923 1328.76 796.682 1329.45 Z" fill="#000000" fill-rule="nonzero" fill-opacity="1" /><polyline clip-path="url(#clip160)" style="stroke:#3da44d; stroke-linecap:round; stroke-linejoin:round; stroke-width:8; stroke-opacity:1; fill:none" points="254.205,1389.18 400.616,1389.18 "/>
<path clip-path="url(#clip160)" d="M440.851 1376.5 L434.508 1393.7 L447.216 1393.7 L440.851 1376.5 M438.212 1371.9 L443.513 1371.9 L456.684 1406.46 L451.823 1406.46 L448.675 1397.59 L433.096 1397.59 L429.948 1406.46 L425.018 1406.46 L438.212 1371.9 Z" fill="#000000" fill-rule="nonzero" fill-opacity="1" /><path clip-path="url(#clip160)" d="M479.369 1381.52 L479.369 1385.51 Q477.564 1384.51 475.735 1384.02 Q473.929 1383.52 472.077 1383.52 Q467.934 1383.52 465.642 1386.15 Q463.351 1388.77 463.351 1393.52 Q463.351 1398.26 465.642 1400.9 Q467.934 1403.52 472.077 1403.52 Q473.929 1403.52 475.735 1403.03 Q477.564 1402.52 479.369 1401.52 L479.369 1405.46 Q477.587 1406.29 475.665 1406.71 Q473.767 1407.13 471.614 1407.13 Q465.758 1407.13 462.309 1403.45 Q458.86 1399.77 458.86 1393.52 Q458.86 1387.17 462.332 1383.54 Q465.827 1379.9 471.892 1379.9 Q473.86 1379.9 475.735 1380.32 Q477.61 1380.71 479.369 1381.52 Z" fill="#000000" fill-rule="nonzero" fill-opacity="1" /><path clip-path="url(#clip160)" d="M490.989 1373.17 L490.989 1380.53 L499.762 1380.53 L499.762 1383.84 L490.989 1383.84 L490.989 1397.91 Q490.989 1401.09 491.846 1401.99 Q492.725 1402.89 495.387 1402.89 L499.762 1402.89 L499.762 1406.46 L495.387 1406.46 Q490.457 1406.46 488.582 1404.63 Q486.707 1402.77 486.707 1397.91 L486.707 1383.84 L483.582 1383.84 L483.582 1380.53 L486.707 1380.53 L486.707 1373.17 L490.989 1373.17 Z" fill="#000000" fill-rule="nonzero" fill-opacity="1" /><path clip-path="url(#clip160)" d="M504.924 1396.22 L504.924 1380.53 L509.184 1380.53 L509.184 1396.06 Q509.184 1399.74 510.619 1401.59 Q512.054 1403.42 514.924 1403.42 Q518.373 1403.42 520.364 1401.22 Q522.378 1399.02 522.378 1395.23 L522.378 1380.53 L526.637 1380.53 L526.637 1406.46 L522.378 1406.46 L522.378 1402.47 Q520.827 1404.83 518.767 1405.99 Q516.73 1407.13 514.022 1407.13 Q509.554 1407.13 507.239 1404.35 Q504.924 1401.57 504.924 1396.22 M515.642 1379.9 L515.642 1379.9 Z" fill="#000000" fill-rule="nonzero" fill-opacity="1" /><path clip-path="url(#clip160)" d="M547.193 1393.42 Q542.031 1393.42 540.04 1394.6 Q538.049 1395.78 538.049 1398.63 Q538.049 1400.9 539.531 1402.24 Q541.035 1403.56 543.605 1403.56 Q547.146 1403.56 549.276 1401.06 Q551.429 1398.54 551.429 1394.37 L551.429 1393.42 L547.193 1393.42 M555.688 1391.66 L555.688 1406.46 L551.429 1406.46 L551.429 1402.52 Q549.971 1404.88 547.795 1406.02 Q545.619 1407.13 542.471 1407.13 Q538.489 1407.13 536.128 1404.9 Q533.79 1402.66 533.79 1398.91 Q533.79 1394.53 536.707 1392.31 Q539.647 1390.09 545.457 1390.09 L551.429 1390.09 L551.429 1389.67 Q551.429 1386.73 549.484 1385.14 Q547.563 1383.52 544.068 1383.52 Q541.846 1383.52 539.739 1384.05 Q537.633 1384.58 535.688 1385.65 L535.688 1381.71 Q538.026 1380.81 540.225 1380.37 Q542.424 1379.9 544.508 1379.9 Q550.133 1379.9 552.91 1382.82 Q555.688 1385.74 555.688 1391.66 Z" fill="#000000" fill-rule="nonzero" fill-opacity="1" /><path clip-path="url(#clip160)" d="M564.461 1370.44 L568.72 1370.44 L568.72 1406.46 L564.461 1406.46 L564.461 1370.44 Z" fill="#000000" fill-rule="nonzero" fill-opacity="1" /><path clip-path="url(#clip160)" d="M597.563 1375.74 L597.563 1402.61 L603.211 1402.61 Q610.364 1402.61 613.674 1399.37 Q617.007 1396.13 617.007 1389.14 Q617.007 1382.2 613.674 1378.98 Q610.364 1375.74 603.211 1375.74 L597.563 1375.74 M592.887 1371.9 L602.493 1371.9 Q612.54 1371.9 617.239 1376.09 Q621.938 1380.25 621.938 1389.14 Q621.938 1398.08 617.216 1402.27 Q612.493 1406.46 602.493 1406.46 L592.887 1406.46 L592.887 1371.9 Z" fill="#000000" fill-rule="nonzero" fill-opacity="1" /><path clip-path="url(#clip160)" d="M640.989 1393.42 Q635.827 1393.42 633.836 1394.6 Q631.845 1395.78 631.845 1398.63 Q631.845 1400.9 633.327 1402.24 Q634.831 1403.56 637.401 1403.56 Q640.942 1403.56 643.072 1401.06 Q645.225 1398.54 645.225 1394.37 L645.225 1393.42 L640.989 1393.42 M649.484 1391.66 L649.484 1406.46 L645.225 1406.46 L645.225 1402.52 Q643.766 1404.88 641.59 1406.02 Q639.415 1407.13 636.266 1407.13 Q632.285 1407.13 629.924 1404.9 Q627.586 1402.66 627.586 1398.91 Q627.586 1394.53 630.503 1392.31 Q633.442 1390.09 639.252 1390.09 L645.225 1390.09 L645.225 1389.67 Q645.225 1386.73 643.28 1385.14 Q641.359 1383.52 637.864 1383.52 Q635.641 1383.52 633.535 1384.05 Q631.428 1384.58 629.484 1385.65 L629.484 1381.71 Q631.822 1380.81 634.021 1380.37 Q636.22 1379.9 638.303 1379.9 Q643.928 1379.9 646.706 1382.82 Q649.484 1385.74 649.484 1391.66 Z" fill="#000000" fill-rule="nonzero" fill-opacity="1" /><path clip-path="url(#clip160)" d="M662.47 1373.17 L662.47 1380.53 L671.243 1380.53 L671.243 1383.84 L662.47 1383.84 L662.47 1397.91 Q662.47 1401.09 663.326 1401.99 Q664.206 1402.89 666.868 1402.89 L671.243 1402.89 L671.243 1406.46 L666.868 1406.46 Q661.938 1406.46 660.063 1404.63 Q658.188 1402.77 658.188 1397.91 L658.188 1383.84 L655.063 1383.84 L655.063 1380.53 L658.188 1380.53 L658.188 1373.17 L662.47 1373.17 Z" fill="#000000" fill-rule="nonzero" fill-opacity="1" /><path clip-path="url(#clip160)" d="M688.627 1393.42 Q683.465 1393.42 681.474 1394.6 Q679.484 1395.78 679.484 1398.63 Q679.484 1400.9 680.965 1402.24 Q682.47 1403.56 685.039 1403.56 Q688.581 1403.56 690.711 1401.06 Q692.863 1398.54 692.863 1394.37 L692.863 1393.42 L688.627 1393.42 M697.123 1391.66 L697.123 1406.46 L692.863 1406.46 L692.863 1402.52 Q691.405 1404.88 689.229 1406.02 Q687.053 1407.13 683.905 1407.13 Q679.924 1407.13 677.562 1404.9 Q675.224 1402.66 675.224 1398.91 Q675.224 1394.53 678.141 1392.31 Q681.081 1390.09 686.891 1390.09 L692.863 1390.09 L692.863 1389.67 Q692.863 1386.73 690.919 1385.14 Q688.998 1383.52 685.502 1383.52 Q683.28 1383.52 681.174 1384.05 Q679.067 1384.58 677.123 1385.65 L677.123 1381.71 Q679.461 1380.81 681.66 1380.37 Q683.859 1379.9 685.942 1379.9 Q691.567 1379.9 694.345 1382.82 Q697.123 1385.74 697.123 1391.66 Z" fill="#000000" fill-rule="nonzero" fill-opacity="1" /></svg>
