<?xml version="1.0" encoding="utf-8"?>
<svg xmlns="http://www.w3.org/2000/svg" xmlns:xlink="http://www.w3.org/1999/xlink" width="600" height="400" viewBox="0 0 2400 1600">
<defs>
  <clipPath id="clip830">
    <rect x="0" y="0" width="2400" height="1600"/>
  </clipPath>
</defs>
<path clip-path="url(#clip830)" d="M0 1600 L2400 1600 L2400 8.88178e-14 L0 8.88178e-14  Z" fill="#ffffff" fill-rule="evenodd" fill-opacity="1"/>
<defs>
  <clipPath id="clip831">
    <rect x="480" y="0" width="1681" height="1600"/>
  </clipPath>
</defs>
<path clip-path="url(#clip830)" d="M219.866 1423.18 L2352.76 1423.18 L2352.76 123.472 L219.866 123.472  Z" fill="#ffffff" fill-rule="evenodd" fill-opacity="1"/>
<defs>
  <clipPath id="clip832">
    <rect x="219" y="123" width="2134" height="1301"/>
  </clipPath>
</defs>
<polyline clip-path="url(#clip832)" style="stroke:#000000; stroke-linecap:round; stroke-linejoin:round; stroke-width:2; stroke-opacity:0.1; fill:none" points="259.906,1423.18 259.906,123.472 "/>
<polyline clip-path="url(#clip832)" style="stroke:#000000; stroke-linecap:round; stroke-linejoin:round; stroke-width:2; stroke-opacity:0.1; fill:none" points="768.027,1423.18 768.027,123.472 "/>
<polyline clip-path="url(#clip832)" style="stroke:#000000; stroke-linecap:round; stroke-linejoin:round; stroke-width:2; stroke-opacity:0.1; fill:none" points="1276.15,1423.18 1276.15,123.472 "/>
<polyline clip-path="url(#clip832)" style="stroke:#000000; stroke-linecap:round; stroke-linejoin:round; stroke-width:2; stroke-opacity:0.1; fill:none" points="1784.27,1423.18 1784.27,123.472 "/>
<polyline clip-path="url(#clip832)" style="stroke:#000000; stroke-linecap:round; stroke-linejoin:round; stroke-width:2; stroke-opacity:0.1; fill:none" points="2292.39,1423.18 2292.39,123.472 "/>
<polyline clip-path="url(#clip830)" style="stroke:#000000; stroke-linecap:round; stroke-linejoin:round; stroke-width:4; stroke-opacity:1; fill:none" points="219.866,1423.18 2352.76,1423.18 "/>
<polyline clip-path="url(#clip830)" style="stroke:#000000; stroke-linecap:round; stroke-linejoin:round; stroke-width:4; stroke-opacity:1; fill:none" points="259.906,1423.18 259.906,1404.28 "/>
<polyline clip-path="url(#clip830)" style="stroke:#000000; stroke-linecap:round; stroke-linejoin:round; stroke-width:4; stroke-opacity:1; fill:none" points="768.027,1423.18 768.027,1404.28 "/>
<polyline clip-path="url(#clip830)" style="stroke:#000000; stroke-linecap:round; stroke-linejoin:round; stroke-width:4; stroke-opacity:1; fill:none" points="1276.15,1423.18 1276.15,1404.28 "/>
<polyline clip-path="url(#clip830)" style="stroke:#000000; stroke-linecap:round; stroke-linejoin:round; stroke-width:4; stroke-opacity:1; fill:none" points="1784.27,1423.18 1784.27,1404.28 "/>
<polyline clip-path="url(#clip830)" style="stroke:#000000; stroke-linecap:round; stroke-linejoin:round; stroke-width:4; stroke-opacity:1; fill:none" points="2292.39,1423.18 2292.39,1404.28 "/>
<path clip-path="url(#clip830)" d="M259.906 1454.1 Q256.295 1454.1 254.466 1457.66 Q252.661 1461.2 252.661 1468.33 Q252.661 1475.44 254.466 1479.01 Q256.295 1482.55 259.906 1482.55 Q263.54 1482.55 265.346 1479.01 Q267.175 1475.44 267.175 1468.33 Q267.175 1461.2 265.346 1457.66 Q263.54 1454.1 259.906 1454.1 M259.906 1450.39 Q265.716 1450.39 268.772 1455 Q271.851 1459.58 271.851 1468.33 Q271.851 1477.06 268.772 1481.67 Q265.716 1486.25 259.906 1486.25 Q254.096 1486.25 251.017 1481.67 Q247.962 1477.06 247.962 1468.33 Q247.962 1459.58 251.017 1455 Q254.096 1450.39 259.906 1450.39 Z" fill="#000000" fill-rule="nonzero" fill-opacity="1" /><path clip-path="url(#clip830)" d="M747.298 1481.64 L763.618 1481.64 L763.618 1485.58 L741.673 1485.58 L741.673 1481.64 Q744.335 1478.89 748.919 1474.26 Q753.525 1469.61 754.706 1468.27 Q756.951 1465.74 757.831 1464.01 Q758.734 1462.25 758.734 1460.56 Q758.734 1457.8 756.789 1456.07 Q754.868 1454.33 751.766 1454.33 Q749.567 1454.33 747.113 1455.09 Q744.683 1455.86 741.905 1457.41 L741.905 1452.69 Q744.729 1451.55 747.183 1450.97 Q749.636 1450.39 751.673 1450.39 Q757.044 1450.39 760.238 1453.08 Q763.433 1455.77 763.433 1460.26 Q763.433 1462.39 762.622 1464.31 Q761.835 1466.2 759.729 1468.8 Q759.15 1469.47 756.048 1472.69 Q752.947 1475.88 747.298 1481.64 Z" fill="#000000" fill-rule="nonzero" fill-opacity="1" /><path clip-path="url(#clip830)" d="M773.479 1451.02 L791.835 1451.02 L791.835 1454.96 L777.761 1454.96 L777.761 1463.43 Q778.78 1463.08 779.798 1462.92 Q780.817 1462.73 781.835 1462.73 Q787.622 1462.73 791.002 1465.9 Q794.381 1469.08 794.381 1474.49 Q794.381 1480.07 790.909 1483.17 Q787.437 1486.25 781.118 1486.25 Q778.942 1486.25 776.673 1485.88 Q774.428 1485.51 772.02 1484.77 L772.02 1480.07 Q774.104 1481.2 776.326 1481.76 Q778.548 1482.32 781.025 1482.32 Q785.03 1482.32 787.368 1480.21 Q789.706 1478.1 789.706 1474.49 Q789.706 1470.88 787.368 1468.77 Q785.03 1466.67 781.025 1466.67 Q779.15 1466.67 777.275 1467.08 Q775.423 1467.5 773.479 1468.38 L773.479 1451.02 Z" fill="#000000" fill-rule="nonzero" fill-opacity="1" /><path clip-path="url(#clip830)" d="M1250.85 1451.02 L1269.2 1451.02 L1269.2 1454.96 L1255.13 1454.96 L1255.13 1463.43 Q1256.15 1463.08 1257.17 1462.92 Q1258.19 1462.73 1259.2 1462.73 Q1264.99 1462.73 1268.37 1465.9 Q1271.75 1469.08 1271.75 1474.49 Q1271.75 1480.07 1268.28 1483.17 Q1264.81 1486.25 1258.49 1486.25 Q1256.31 1486.25 1254.04 1485.88 Q1251.8 1485.51 1249.39 1484.77 L1249.39 1480.07 Q1251.47 1481.2 1253.7 1481.76 Q1255.92 1482.32 1258.39 1482.32 Q1262.4 1482.32 1264.74 1480.21 Q1267.07 1478.1 1267.07 1474.49 Q1267.07 1470.88 1264.74 1468.77 Q1262.4 1466.67 1258.39 1466.67 Q1256.52 1466.67 1254.64 1467.08 Q1252.79 1467.5 1250.85 1468.38 L1250.85 1451.02 Z" fill="#000000" fill-rule="nonzero" fill-opacity="1" /><path clip-path="url(#clip830)" d="M1290.96 1454.1 Q1287.35 1454.1 1285.52 1457.66 Q1283.72 1461.2 1283.72 1468.33 Q1283.72 1475.44 1285.52 1479.01 Q1287.35 1482.55 1290.96 1482.55 Q1294.6 1482.55 1296.4 1479.01 Q1298.23 1475.44 1298.23 1468.33 Q1298.23 1461.2 1296.4 1457.66 Q1294.6 1454.1 1290.96 1454.1 M1290.96 1450.39 Q1296.77 1450.39 1299.83 1455 Q1302.91 1459.58 1302.91 1468.33 Q1302.91 1477.06 1299.83 1481.67 Q1296.77 1486.25 1290.96 1486.25 Q1285.15 1486.25 1282.07 1481.67 Q1279.02 1477.06 1279.02 1468.33 Q1279.02 1459.58 1282.07 1455 Q1285.15 1450.39 1290.96 1450.39 Z" fill="#000000" fill-rule="nonzero" fill-opacity="1" /><path clip-path="url(#clip830)" d="M1758.12 1451.02 L1780.35 1451.02 L1780.35 1453.01 L1767.8 1485.58 L1762.92 1485.58 L1774.72 1454.96 L1758.12 1454.96 L1758.12 1451.02 Z" fill="#000000" fill-rule="nonzero" fill-opacity="1" /><path clip-path="url(#clip830)" d="M1789.51 1451.02 L1807.87 1451.02 L1807.87 1454.96 L1793.8 1454.96 L1793.8 1463.43 Q1794.81 1463.08 1795.83 1462.92 Q1796.85 1462.73 1797.87 1462.73 Q1803.66 1462.73 1807.04 1465.9 Q1810.42 1469.08 1810.42 1474.49 Q1810.42 1480.07 1806.94 1483.17 Q1803.47 1486.25 1797.15 1486.25 Q1794.98 1486.25 1792.71 1485.88 Q1790.46 1485.51 1788.05 1484.77 L1788.05 1480.07 Q1790.14 1481.2 1792.36 1481.76 Q1794.58 1482.32 1797.06 1482.32 Q1801.06 1482.32 1803.4 1480.21 Q1805.74 1478.1 1805.74 1474.49 Q1805.74 1470.88 1803.4 1468.77 Q1801.06 1466.67 1797.06 1466.67 Q1795.18 1466.67 1793.31 1467.08 Q1791.46 1467.5 1789.51 1468.38 L1789.51 1451.02 Z" fill="#000000" fill-rule="nonzero" fill-opacity="1" /><path clip-path="url(#clip830)" d="M2252 1481.64 L2259.64 1481.64 L2259.64 1455.28 L2251.33 1456.95 L2251.33 1452.69 L2259.59 1451.02 L2264.27 1451.02 L2264.27 1481.64 L2271.91 1481.64 L2271.91 1485.58 L2252 1485.58 L2252 1481.64 Z" fill="#000000" fill-rule="nonzero" fill-opacity="1" /><path clip-path="url(#clip830)" d="M2291.35 1454.1 Q2287.74 1454.1 2285.91 1457.66 Q2284.1 1461.2 2284.1 1468.33 Q2284.1 1475.44 2285.91 1479.01 Q2287.74 1482.55 2291.35 1482.55 Q2294.98 1482.55 2296.79 1479.01 Q2298.62 1475.44 2298.62 1468.33 Q2298.62 1461.2 2296.79 1457.66 Q2294.98 1454.1 2291.35 1454.1 M2291.35 1450.39 Q2297.16 1450.39 2300.22 1455 Q2303.29 1459.58 2303.29 1468.33 Q2303.29 1477.06 2300.22 1481.67 Q2297.16 1486.25 2291.35 1486.25 Q2285.54 1486.25 2282.46 1481.67 Q2279.41 1477.06 2279.41 1468.33 Q2279.41 1459.58 2282.46 1455 Q2285.54 1450.39 2291.35 1450.39 Z" fill="#000000" fill-rule="nonzero" fill-opacity="1" /><path clip-path="url(#clip830)" d="M2321.51 1454.1 Q2317.9 1454.1 2316.07 1457.66 Q2314.27 1461.2 2314.27 1468.33 Q2314.27 1475.44 2316.07 1479.01 Q2317.9 1482.55 2321.51 1482.55 Q2325.15 1482.55 2326.95 1479.01 Q2328.78 1475.44 2328.78 1468.33 Q2328.78 1461.2 2326.95 1457.66 Q2325.15 1454.1 2321.51 1454.1 M2321.51 1450.39 Q2327.32 1450.39 2330.38 1455 Q2333.46 1459.58 2333.46 1468.33 Q2333.46 1477.06 2330.38 1481.67 Q2327.32 1486.25 2321.51 1486.25 Q2315.7 1486.25 2312.62 1481.67 Q2309.57 1477.06 2309.57 1468.33 Q2309.57 1459.58 2312.62 1455 Q2315.7 1450.39 2321.51 1450.39 Z" fill="#000000" fill-rule="nonzero" fill-opacity="1" /><path clip-path="url(#clip830)" d="M1285.37 1522.27 L1285.37 1532.4 L1297.44 1532.4 L1297.44 1536.95 L1285.37 1536.95 L1285.37 1556.3 Q1285.37 1560.66 1286.55 1561.9 Q1287.76 1563.14 1291.42 1563.14 L1297.44 1563.14 L1297.44 1568.04 L1291.42 1568.04 Q1284.64 1568.04 1282.06 1565.53 Q1279.48 1562.98 1279.48 1556.3 L1279.48 1536.95 L1275.19 1536.95 L1275.19 1532.4 L1279.48 1532.4 L1279.48 1522.27 L1285.37 1522.27 Z" fill="#000000" fill-rule="nonzero" fill-opacity="1" /><polyline clip-path="url(#clip832)" style="stroke:#000000; stroke-linecap:round; stroke-linejoin:round; stroke-width:2; stroke-opacity:0.1; fill:none" points="219.866,1170.17 2352.76,1170.17 "/>
<polyline clip-path="url(#clip832)" style="stroke:#000000; stroke-linecap:round; stroke-linejoin:round; stroke-width:2; stroke-opacity:0.1; fill:none" points="219.866,909.773 2352.76,909.773 "/>
<polyline clip-path="url(#clip832)" style="stroke:#000000; stroke-linecap:round; stroke-linejoin:round; stroke-width:2; stroke-opacity:0.1; fill:none" points="219.866,649.378 2352.76,649.378 "/>
<polyline clip-path="url(#clip832)" style="stroke:#000000; stroke-linecap:round; stroke-linejoin:round; stroke-width:2; stroke-opacity:0.1; fill:none" points="219.866,388.984 2352.76,388.984 "/>
<polyline clip-path="url(#clip832)" style="stroke:#000000; stroke-linecap:round; stroke-linejoin:round; stroke-width:2; stroke-opacity:0.1; fill:none" points="219.866,128.589 2352.76,128.589 "/>
<polyline clip-path="url(#clip830)" style="stroke:#000000; stroke-linecap:round; stroke-linejoin:round; stroke-width:4; stroke-opacity:1; fill:none" points="219.866,1423.18 219.866,123.472 "/>
<polyline clip-path="url(#clip830)" style="stroke:#000000; stroke-linecap:round; stroke-linejoin:round; stroke-width:4; stroke-opacity:1; fill:none" points="219.866,1170.17 238.764,1170.17 "/>
<polyline clip-path="url(#clip830)" style="stroke:#000000; stroke-linecap:round; stroke-linejoin:round; stroke-width:4; stroke-opacity:1; fill:none" points="219.866,909.773 238.764,909.773 "/>
<polyline clip-path="url(#clip830)" style="stroke:#000000; stroke-linecap:round; stroke-linejoin:round; stroke-width:4; stroke-opacity:1; fill:none" points="219.866,649.378 238.764,649.378 "/>
<polyline clip-path="url(#clip830)" style="stroke:#000000; stroke-linecap:round; stroke-linejoin:round; stroke-width:4; stroke-opacity:1; fill:none" points="219.866,388.984 238.764,388.984 "/>
<polyline clip-path="url(#clip830)" style="stroke:#000000; stroke-linecap:round; stroke-linejoin:round; stroke-width:4; stroke-opacity:1; fill:none" points="219.866,128.589 238.764,128.589 "/>
<path clip-path="url(#clip830)" d="M128.288 1155.97 Q124.677 1155.97 122.848 1159.53 Q121.043 1163.07 121.043 1170.2 Q121.043 1177.31 122.848 1180.87 Q124.677 1184.41 128.288 1184.41 Q131.922 1184.41 133.728 1180.87 Q135.556 1177.31 135.556 1170.2 Q135.556 1163.07 133.728 1159.53 Q131.922 1155.97 128.288 1155.97 M128.288 1152.26 Q134.098 1152.26 137.154 1156.87 Q140.232 1161.45 140.232 1170.2 Q140.232 1178.93 137.154 1183.54 Q134.098 1188.12 128.288 1188.12 Q122.478 1188.12 119.399 1183.54 Q116.343 1178.93 116.343 1170.2 Q116.343 1161.45 119.399 1156.87 Q122.478 1152.26 128.288 1152.26 Z" fill="#000000" fill-rule="nonzero" fill-opacity="1" /><path clip-path="url(#clip830)" d="M148.45 1181.57 L153.334 1181.57 L153.334 1187.45 L148.45 1187.45 L148.45 1181.57 Z" fill="#000000" fill-rule="nonzero" fill-opacity="1" /><path clip-path="url(#clip830)" d="M167.547 1183.51 L183.866 1183.51 L183.866 1187.45 L161.922 1187.45 L161.922 1183.51 Q164.584 1180.76 169.167 1176.13 Q173.774 1171.47 174.954 1170.13 Q177.2 1167.61 178.079 1165.87 Q178.982 1164.11 178.982 1162.42 Q178.982 1159.67 177.038 1157.93 Q175.116 1156.2 172.014 1156.2 Q169.815 1156.2 167.362 1156.96 Q164.931 1157.72 162.153 1159.28 L162.153 1154.55 Q164.977 1153.42 167.431 1152.84 Q169.885 1152.26 171.922 1152.26 Q177.292 1152.26 180.487 1154.95 Q183.681 1157.63 183.681 1162.12 Q183.681 1164.25 182.871 1166.17 Q182.084 1168.07 179.977 1170.66 Q179.399 1171.34 176.297 1174.55 Q173.195 1177.75 167.547 1183.51 Z" fill="#000000" fill-rule="nonzero" fill-opacity="1" /><path clip-path="url(#clip830)" d="M126.205 895.571 Q122.593 895.571 120.765 899.136 Q118.959 902.678 118.959 909.807 Q118.959 916.914 120.765 920.479 Q122.593 924.02 126.205 924.02 Q129.839 924.02 131.644 920.479 Q133.473 916.914 133.473 909.807 Q133.473 902.678 131.644 899.136 Q129.839 895.571 126.205 895.571 M126.205 891.868 Q132.015 891.868 135.07 896.474 Q138.149 901.057 138.149 909.807 Q138.149 918.534 135.07 923.141 Q132.015 927.724 126.205 927.724 Q120.394 927.724 117.316 923.141 Q114.26 918.534 114.26 909.807 Q114.26 901.057 117.316 896.474 Q120.394 891.868 126.205 891.868 Z" fill="#000000" fill-rule="nonzero" fill-opacity="1" /><path clip-path="url(#clip830)" d="M146.366 921.173 L151.251 921.173 L151.251 927.053 L146.366 927.053 L146.366 921.173 Z" fill="#000000" fill-rule="nonzero" fill-opacity="1" /><path clip-path="url(#clip830)" d="M174.283 896.567 L162.477 915.016 L174.283 915.016 L174.283 896.567 M173.056 892.493 L178.936 892.493 L178.936 915.016 L183.866 915.016 L183.866 918.905 L178.936 918.905 L178.936 927.053 L174.283 927.053 L174.283 918.905 L158.681 918.905 L158.681 914.391 L173.056 892.493 Z" fill="#000000" fill-rule="nonzero" fill-opacity="1" /><path clip-path="url(#clip830)" d="M126.529 635.177 Q122.918 635.177 121.089 638.742 Q119.283 642.283 119.283 649.413 Q119.283 656.519 121.089 660.084 Q122.918 663.626 126.529 663.626 Q130.163 663.626 131.968 660.084 Q133.797 656.519 133.797 649.413 Q133.797 642.283 131.968 638.742 Q130.163 635.177 126.529 635.177 M126.529 631.473 Q132.339 631.473 135.394 636.08 Q138.473 640.663 138.473 649.413 Q138.473 658.14 135.394 662.746 Q132.339 667.33 126.529 667.33 Q120.718 667.33 117.64 662.746 Q114.584 658.14 114.584 649.413 Q114.584 640.663 117.64 636.08 Q120.718 631.473 126.529 631.473 Z" fill="#000000" fill-rule="nonzero" fill-opacity="1" /><path clip-path="url(#clip830)" d="M146.691 660.779 L151.575 660.779 L151.575 666.658 L146.691 666.658 L146.691 660.779 Z" fill="#000000" fill-rule="nonzero" fill-opacity="1" /><path clip-path="url(#clip830)" d="M172.339 647.515 Q169.19 647.515 167.339 649.668 Q165.51 651.82 165.51 655.57 Q165.51 659.297 167.339 661.473 Q169.19 663.626 172.339 663.626 Q175.487 663.626 177.315 661.473 Q179.167 659.297 179.167 655.57 Q179.167 651.82 177.315 649.668 Q175.487 647.515 172.339 647.515 M181.621 632.862 L181.621 637.121 Q179.862 636.288 178.056 635.848 Q176.274 635.408 174.514 635.408 Q169.885 635.408 167.431 638.533 Q165.001 641.658 164.653 647.978 Q166.019 645.964 168.079 644.899 Q170.139 643.811 172.616 643.811 Q177.825 643.811 180.834 646.982 Q183.866 650.131 183.866 655.57 Q183.866 660.894 180.718 664.112 Q177.57 667.33 172.339 667.33 Q166.343 667.33 163.172 662.746 Q160.001 658.14 160.001 649.413 Q160.001 641.219 163.89 636.357 Q167.778 631.473 174.329 631.473 Q176.089 631.473 177.871 631.82 Q179.676 632.168 181.621 632.862 Z" fill="#000000" fill-rule="nonzero" fill-opacity="1" /><path clip-path="url(#clip830)" d="M126.783 374.783 Q123.172 374.783 121.343 378.347 Q119.538 381.889 119.538 389.019 Q119.538 396.125 121.343 399.69 Q123.172 403.231 126.783 403.231 Q130.417 403.231 132.223 399.69 Q134.052 396.125 134.052 389.019 Q134.052 381.889 132.223 378.347 Q130.417 374.783 126.783 374.783 M126.783 371.079 Q132.593 371.079 135.649 375.685 Q138.728 380.269 138.728 389.019 Q138.728 397.745 135.649 402.352 Q132.593 406.935 126.783 406.935 Q120.973 406.935 117.894 402.352 Q114.839 397.745 114.839 389.019 Q114.839 380.269 117.894 375.685 Q120.973 371.079 126.783 371.079 Z" fill="#000000" fill-rule="nonzero" fill-opacity="1" /><path clip-path="url(#clip830)" d="M146.945 400.384 L151.829 400.384 L151.829 406.264 L146.945 406.264 L146.945 400.384 Z" fill="#000000" fill-rule="nonzero" fill-opacity="1" /><path clip-path="url(#clip830)" d="M172.014 389.852 Q168.681 389.852 166.76 391.634 Q164.862 393.417 164.862 396.542 Q164.862 399.667 166.76 401.449 Q168.681 403.231 172.014 403.231 Q175.348 403.231 177.269 401.449 Q179.19 399.644 179.19 396.542 Q179.19 393.417 177.269 391.634 Q175.371 389.852 172.014 389.852 M167.339 387.861 Q164.329 387.12 162.64 385.06 Q160.973 383 160.973 380.037 Q160.973 375.894 163.913 373.486 Q166.876 371.079 172.014 371.079 Q177.176 371.079 180.116 373.486 Q183.056 375.894 183.056 380.037 Q183.056 383 181.366 385.06 Q179.7 387.12 176.714 387.861 Q180.093 388.648 181.968 390.94 Q183.866 393.232 183.866 396.542 Q183.866 401.565 180.788 404.25 Q177.732 406.935 172.014 406.935 Q166.297 406.935 163.218 404.25 Q160.163 401.565 160.163 396.542 Q160.163 393.232 162.061 390.94 Q163.959 388.648 167.339 387.861 M165.626 380.477 Q165.626 383.162 167.292 384.667 Q168.982 386.171 172.014 386.171 Q175.024 386.171 176.714 384.667 Q178.426 383.162 178.426 380.477 Q178.426 377.792 176.714 376.287 Q175.024 374.783 172.014 374.783 Q168.982 374.783 167.292 376.287 Q165.626 377.792 165.626 380.477 Z" fill="#000000" fill-rule="nonzero" fill-opacity="1" /><path clip-path="url(#clip830)" d="M117.501 141.934 L125.14 141.934 L125.14 115.569 L116.83 117.235 L116.83 112.976 L125.093 111.309 L129.769 111.309 L129.769 141.934 L137.408 141.934 L137.408 145.869 L117.501 145.869 L117.501 141.934 Z" fill="#000000" fill-rule="nonzero" fill-opacity="1" /><path clip-path="url(#clip830)" d="M146.853 139.99 L151.737 139.99 L151.737 145.869 L146.853 145.869 L146.853 139.99 Z" fill="#000000" fill-rule="nonzero" fill-opacity="1" /><path clip-path="url(#clip830)" d="M171.922 114.388 Q168.311 114.388 166.482 117.953 Q164.677 121.495 164.677 128.624 Q164.677 135.731 166.482 139.295 Q168.311 142.837 171.922 142.837 Q175.556 142.837 177.362 139.295 Q179.19 135.731 179.19 128.624 Q179.19 121.495 177.362 117.953 Q175.556 114.388 171.922 114.388 M171.922 110.684 Q177.732 110.684 180.788 115.291 Q183.866 119.874 183.866 128.624 Q183.866 137.351 180.788 141.957 Q177.732 146.541 171.922 146.541 Q166.112 146.541 163.033 141.957 Q159.978 137.351 159.978 128.624 Q159.978 119.874 163.033 115.291 Q166.112 110.684 171.922 110.684 Z" fill="#000000" fill-rule="nonzero" fill-opacity="1" /><path clip-path="url(#clip830)" d="M28.3562 756.711 L45.7028 769.602 L64.0042 756.043 L64.0042 762.95 L49.9996 773.326 L64.0042 783.702 L64.0042 790.609 L45.3526 776.763 L28.3562 789.431 L28.3562 782.524 L41.0558 773.071 L28.3562 763.618 L28.3562 756.711 Z" fill="#000000" fill-rule="nonzero" fill-opacity="1" /><path clip-path="url(#clip830)" d="M164.798 12.096 L215.961 12.096 L215.961 18.9825 L194.491 18.9825 L194.491 72.576 L186.268 72.576 L186.268 18.9825 L164.798 18.9825 L164.798 12.096 Z" fill="#000000" fill-rule="nonzero" fill-opacity="1" /><path clip-path="url(#clip830)" d="M237.633 34.1734 Q236.377 33.4443 234.879 33.1202 Q233.42 32.7556 231.638 32.7556 Q225.319 32.7556 221.916 36.8875 Q218.553 40.9789 218.553 48.6757 L218.553 72.576 L211.059 72.576 L211.059 27.2059 L218.553 27.2059 L218.553 34.2544 Q220.903 30.1225 224.67 28.1376 Q228.438 26.1121 233.825 26.1121 Q234.595 26.1121 235.527 26.2337 Q236.458 26.3147 237.593 26.5172 L237.633 34.1734 Z" fill="#000000" fill-rule="nonzero" fill-opacity="1" /><path clip-path="url(#clip830)" d="M266.071 49.7694 Q257.037 49.7694 253.553 51.8354 Q250.07 53.9013 250.07 58.8839 Q250.07 62.8538 252.662 65.2034 Q255.295 67.5124 259.792 67.5124 Q265.99 67.5124 269.716 63.1374 Q273.484 58.7219 273.484 51.4303 L273.484 49.7694 L266.071 49.7694 M280.937 46.6907 L280.937 72.576 L273.484 72.576 L273.484 65.6895 Q270.932 69.8214 267.124 71.8063 Q263.316 73.7508 257.807 73.7508 Q250.839 73.7508 246.707 69.8619 Q242.616 65.9325 242.616 59.3701 Q242.616 51.7138 247.72 47.825 Q252.865 43.9361 263.032 43.9361 L273.484 43.9361 L273.484 43.2069 Q273.484 38.0623 270.081 35.2672 Q266.719 32.4315 260.602 32.4315 Q256.713 32.4315 253.027 33.3632 Q249.34 34.295 245.938 36.1584 L245.938 29.2718 Q250.029 27.692 253.877 26.9223 Q257.726 26.1121 261.372 26.1121 Q271.215 26.1121 276.076 31.2163 Q280.937 36.3204 280.937 46.6907 Z" fill="#000000" fill-rule="nonzero" fill-opacity="1" /><path clip-path="url(#clip830)" d="M296.29 27.2059 L303.744 27.2059 L303.744 72.576 L296.29 72.576 L296.29 27.2059 M296.29 9.54393 L303.744 9.54393 L303.744 18.9825 L296.29 18.9825 L296.29 9.54393 Z" fill="#000000" fill-rule="nonzero" fill-opacity="1" /><path clip-path="url(#clip830)" d="M357.054 45.1919 L357.054 72.576 L349.6 72.576 L349.6 45.4349 Q349.6 38.994 347.089 35.7938 Q344.577 32.5936 339.554 32.5936 Q333.518 32.5936 330.034 36.4419 Q326.551 40.2903 326.551 46.9338 L326.551 72.576 L319.056 72.576 L319.056 27.2059 L326.551 27.2059 L326.551 34.2544 Q329.224 30.163 332.83 28.1376 Q336.475 26.1121 341.215 26.1121 Q349.033 26.1121 353.044 30.9732 Q357.054 35.7938 357.054 45.1919 Z" fill="#000000" fill-rule="nonzero" fill-opacity="1" /><path clip-path="url(#clip830)" d="M371.921 27.2059 L379.374 27.2059 L379.374 72.576 L371.921 72.576 L371.921 27.2059 M371.921 9.54393 L379.374 9.54393 L379.374 18.9825 L371.921 18.9825 L371.921 9.54393 Z" fill="#000000" fill-rule="nonzero" fill-opacity="1" /><path clip-path="url(#clip830)" d="M432.684 45.1919 L432.684 72.576 L425.231 72.576 L425.231 45.4349 Q425.231 38.994 422.719 35.7938 Q420.208 32.5936 415.184 32.5936 Q409.149 32.5936 405.665 36.4419 Q402.181 40.2903 402.181 46.9338 L402.181 72.576 L394.687 72.576 L394.687 27.2059 L402.181 27.2059 L402.181 34.2544 Q404.855 30.163 408.46 28.1376 Q412.106 26.1121 416.845 26.1121 Q424.664 26.1121 428.674 30.9732 Q432.684 35.7938 432.684 45.1919 Z" fill="#000000" fill-rule="nonzero" fill-opacity="1" /><path clip-path="url(#clip830)" d="M477.406 49.3643 Q477.406 41.2625 474.044 36.8065 Q470.722 32.3505 464.686 32.3505 Q458.691 32.3505 455.329 36.8065 Q452.007 41.2625 452.007 49.3643 Q452.007 57.4256 455.329 61.8816 Q458.691 66.3376 464.686 66.3376 Q470.722 66.3376 474.044 61.8816 Q477.406 57.4256 477.406 49.3643 M484.86 66.9452 Q484.86 78.5308 479.715 84.1616 Q474.571 89.8329 463.957 89.8329 Q460.028 89.8329 456.544 89.2252 Q453.06 88.6581 449.779 87.4428 L449.779 80.1917 Q453.06 81.9741 456.261 82.8248 Q459.461 83.6755 462.783 83.6755 Q470.115 83.6755 473.76 79.8271 Q477.406 76.0193 477.406 68.282 L477.406 64.5957 Q475.097 68.6061 471.492 70.5911 Q467.887 72.576 462.864 72.576 Q454.519 72.576 449.415 66.2161 Q444.31 59.8562 444.31 49.3643 Q444.31 38.832 449.415 32.472 Q454.519 26.1121 462.864 26.1121 Q467.887 26.1121 471.492 28.0971 Q475.097 30.082 477.406 34.0924 L477.406 27.2059 L484.86 27.2059 L484.86 66.9452 Z" fill="#000000" fill-rule="nonzero" fill-opacity="1" /><path clip-path="url(#clip830)" d="M563.164 14.0809 L563.164 22.0612 Q558.505 19.8332 554.373 18.7395 Q550.242 17.6457 546.393 17.6457 Q539.709 17.6457 536.063 20.2383 Q532.458 22.8309 532.458 27.611 Q532.458 31.6214 534.848 33.6873 Q537.279 35.7128 544.003 36.9686 L548.945 37.9813 Q558.1 39.7232 562.435 44.1387 Q566.81 48.5136 566.81 55.8863 Q566.81 64.6767 560.895 69.2137 Q555.022 73.7508 543.639 73.7508 Q539.345 73.7508 534.484 72.7785 Q529.663 71.8063 524.478 69.9024 L524.478 61.4765 Q529.46 64.2716 534.24 65.6895 Q539.021 67.1073 543.639 67.1073 Q550.647 67.1073 554.454 64.3527 Q558.262 61.598 558.262 56.4939 Q558.262 52.0379 555.508 49.5264 Q552.794 47.0148 546.555 45.759 L541.573 44.7868 Q532.418 42.9639 528.326 39.075 Q524.235 35.1862 524.235 28.2591 Q524.235 20.2383 529.865 15.6203 Q535.537 11.0023 545.461 11.0023 Q549.715 11.0023 554.13 11.7719 Q558.546 12.5416 563.164 14.0809 Z" fill="#000000" fill-rule="nonzero" fill-opacity="1" /><path clip-path="url(#clip830)" d="M599.865 49.7694 Q590.832 49.7694 587.348 51.8354 Q583.864 53.9013 583.864 58.8839 Q583.864 62.8538 586.457 65.2034 Q589.09 67.5124 593.586 67.5124 Q599.784 67.5124 603.511 63.1374 Q607.278 58.7219 607.278 51.4303 L607.278 49.7694 L599.865 49.7694 M614.732 46.6907 L614.732 72.576 L607.278 72.576 L607.278 65.6895 Q604.726 69.8214 600.918 71.8063 Q597.11 73.7508 591.601 73.7508 Q584.634 73.7508 580.502 69.8619 Q576.41 65.9325 576.41 59.3701 Q576.41 51.7138 581.515 47.825 Q586.659 43.9361 596.827 43.9361 L607.278 43.9361 L607.278 43.2069 Q607.278 38.0623 603.876 35.2672 Q600.513 32.4315 594.396 32.4315 Q590.508 32.4315 586.821 33.3632 Q583.135 34.295 579.732 36.1584 L579.732 29.2718 Q583.824 27.692 587.672 26.9223 Q591.52 26.1121 595.166 26.1121 Q605.01 26.1121 609.871 31.2163 Q614.732 36.3204 614.732 46.6907 Z" fill="#000000" fill-rule="nonzero" fill-opacity="1" /><path clip-path="url(#clip830)" d="M665.409 35.9153 Q668.204 30.8922 672.093 28.5022 Q675.982 26.1121 681.248 26.1121 Q688.337 26.1121 692.185 31.0947 Q696.034 36.0368 696.034 45.1919 L696.034 72.576 L688.539 72.576 L688.539 45.4349 Q688.539 38.913 686.23 35.7533 Q683.921 32.5936 679.182 32.5936 Q673.389 32.5936 670.027 36.4419 Q666.665 40.2903 666.665 46.9338 L666.665 72.576 L659.17 72.576 L659.17 45.4349 Q659.17 38.8725 656.861 35.7533 Q654.552 32.5936 649.732 32.5936 Q644.02 32.5936 640.658 36.4824 Q637.295 40.3308 637.295 46.9338 L637.295 72.576 L629.801 72.576 L629.801 27.2059 L637.295 27.2059 L637.295 34.2544 Q639.848 30.082 643.412 28.0971 Q646.977 26.1121 651.879 26.1121 Q656.821 26.1121 660.264 28.6237 Q663.748 31.1352 665.409 35.9153 Z" fill="#000000" fill-rule="nonzero" fill-opacity="1" /><path clip-path="url(#clip830)" d="M718.111 65.7705 L718.111 89.8329 L710.617 89.8329 L710.617 27.2059 L718.111 27.2059 L718.111 34.0924 Q720.461 30.0415 724.025 28.0971 Q727.631 26.1121 732.613 26.1121 Q740.877 26.1121 746.022 32.6746 Q751.207 39.2371 751.207 49.9314 Q751.207 60.6258 746.022 67.1883 Q740.877 73.7508 732.613 73.7508 Q727.631 73.7508 724.025 71.8063 Q720.461 69.8214 718.111 65.7705 M743.47 49.9314 Q743.47 41.7081 740.067 37.0496 Q736.705 32.3505 730.79 32.3505 Q724.876 32.3505 721.473 37.0496 Q718.111 41.7081 718.111 49.9314 Q718.111 58.1548 721.473 62.8538 Q724.876 67.5124 730.79 67.5124 Q736.705 67.5124 740.067 62.8538 Q743.47 58.1548 743.47 49.9314 Z" fill="#000000" fill-rule="nonzero" fill-opacity="1" /><path clip-path="url(#clip830)" d="M763.562 9.54393 L771.016 9.54393 L771.016 72.576 L763.562 72.576 L763.562 9.54393 Z" fill="#000000" fill-rule="nonzero" fill-opacity="1" /><path clip-path="url(#clip830)" d="M825.419 48.0275 L825.419 51.6733 L791.149 51.6733 Q791.635 59.3701 795.767 63.421 Q799.939 67.4314 807.352 67.4314 Q811.646 67.4314 815.657 66.3781 Q819.708 65.3249 823.678 63.2184 L823.678 70.267 Q819.667 71.9684 815.454 72.8596 Q811.241 73.7508 806.907 73.7508 Q796.05 73.7508 789.69 67.4314 Q783.371 61.1119 783.371 50.3365 Q783.371 39.1965 789.366 32.6746 Q795.402 26.1121 805.611 26.1121 Q814.766 26.1121 820.072 32.0264 Q825.419 37.9003 825.419 48.0275 M817.966 45.84 Q817.885 39.7232 814.523 36.0774 Q811.201 32.4315 805.692 32.4315 Q799.453 32.4315 795.686 35.9558 Q791.959 39.4801 791.392 45.8805 L817.966 45.84 Z" fill="#000000" fill-rule="nonzero" fill-opacity="1" /><path clip-path="url(#clip830)" d="M865.159 12.096 L897.282 12.096 L897.282 18.9825 L872.653 18.9825 L872.653 33.8088 Q874.435 33.2012 876.218 32.9176 Q878 32.5936 879.783 32.5936 Q889.91 32.5936 895.824 38.1433 Q901.738 43.6931 901.738 53.1722 Q901.738 62.9348 895.662 68.3631 Q889.586 73.7508 878.527 73.7508 Q874.719 73.7508 870.749 73.1026 Q866.82 72.4545 862.607 71.1582 L862.607 62.9348 Q866.253 64.9198 870.141 65.892 Q874.03 66.8642 878.365 66.8642 Q885.373 66.8642 889.464 63.1779 Q893.556 59.4916 893.556 53.1722 Q893.556 46.8528 889.464 43.1664 Q885.373 39.4801 878.365 39.4801 Q875.084 39.4801 871.802 40.2093 Q868.562 40.9384 865.159 42.4778 L865.159 12.096 Z" fill="#000000" fill-rule="nonzero" fill-opacity="1" /><path clip-path="url(#clip830)" d="M935.361 17.4837 Q929.042 17.4837 925.841 23.7221 Q922.682 29.92 922.682 42.3968 Q922.682 54.833 925.841 61.0714 Q929.042 67.2693 935.361 67.2693 Q941.721 67.2693 944.881 61.0714 Q948.081 54.833 948.081 42.3968 Q948.081 29.92 944.881 23.7221 Q941.721 17.4837 935.361 17.4837 M935.361 11.0023 Q945.529 11.0023 950.876 19.0636 Q956.264 27.0843 956.264 42.3968 Q956.264 57.6687 950.876 65.73 Q945.529 73.7508 935.361 73.7508 Q925.193 73.7508 919.806 65.73 Q914.458 57.6687 914.458 42.3968 Q914.458 27.0843 919.806 19.0636 Q925.193 11.0023 935.361 11.0023 Z" fill="#000000" fill-rule="nonzero" fill-opacity="1" /><path clip-path="url(#clip830)" d="M988.144 17.4837 Q981.825 17.4837 978.625 23.7221 Q975.465 29.92 975.465 42.3968 Q975.465 54.833 978.625 61.0714 Q981.825 67.2693 988.144 67.2693 Q994.504 67.2693 997.664 61.0714 Q1000.86 54.833 1000.86 42.3968 Q1000.86 29.92 997.664 23.7221 Q994.504 17.4837 988.144 17.4837 M988.144 11.0023 Q998.312 11.0023 1003.66 19.0636 Q1009.05 27.0843 1009.05 42.3968 Q1009.05 57.6687 1003.66 65.73 Q998.312 73.7508 988.144 73.7508 Q977.977 73.7508 972.589 65.73 Q967.242 57.6687 967.242 42.3968 Q967.242 27.0843 972.589 19.0636 Q977.977 11.0023 988.144 11.0023 Z" fill="#000000" fill-rule="nonzero" fill-opacity="1" /><path clip-path="url(#clip830)" d="M1024.28 62.2867 L1032.83 62.2867 L1032.83 69.2543 L1026.18 82.2172 L1020.96 82.2172 L1024.28 69.2543 L1024.28 62.2867 Z" fill="#000000" fill-rule="nonzero" fill-opacity="1" /><path clip-path="url(#clip830)" d="M1077.59 65.6895 L1090.96 65.6895 L1090.96 19.5497 L1076.41 22.4663 L1076.41 15.0127 L1090.88 12.096 L1099.06 12.096 L1099.06 65.6895 L1112.43 65.6895 L1112.43 72.576 L1077.59 72.576 L1077.59 65.6895 Z" fill="#000000" fill-rule="nonzero" fill-opacity="1" /><path clip-path="url(#clip830)" d="M1146.45 17.4837 Q1140.13 17.4837 1136.93 23.7221 Q1133.77 29.92 1133.77 42.3968 Q1133.77 54.833 1136.93 61.0714 Q1140.13 67.2693 1146.45 67.2693 Q1152.81 67.2693 1155.97 61.0714 Q1159.17 54.833 1159.17 42.3968 Q1159.17 29.92 1155.97 23.7221 Q1152.81 17.4837 1146.45 17.4837 M1146.45 11.0023 Q1156.62 11.0023 1161.97 19.0636 Q1167.36 27.0843 1167.36 42.3968 Q1167.36 57.6687 1161.97 65.73 Q1156.62 73.7508 1146.45 73.7508 Q1136.29 73.7508 1130.9 65.73 Q1125.55 57.6687 1125.55 42.3968 Q1125.55 27.0843 1130.9 19.0636 Q1136.29 11.0023 1146.45 11.0023 Z" fill="#000000" fill-rule="nonzero" fill-opacity="1" /><path clip-path="url(#clip830)" d="M1199.24 17.4837 Q1192.92 17.4837 1189.72 23.7221 Q1186.56 29.92 1186.56 42.3968 Q1186.56 54.833 1189.72 61.0714 Q1192.92 67.2693 1199.24 67.2693 Q1205.6 67.2693 1208.76 61.0714 Q1211.96 54.833 1211.96 42.3968 Q1211.96 29.92 1208.76 23.7221 Q1205.6 17.4837 1199.24 17.4837 M1199.24 11.0023 Q1209.4 11.0023 1214.75 19.0636 Q1220.14 27.0843 1220.14 42.3968 Q1220.14 57.6687 1214.75 65.73 Q1209.4 73.7508 1199.24 73.7508 Q1189.07 73.7508 1183.68 65.73 Q1178.33 57.6687 1178.33 42.3968 Q1178.33 27.0843 1183.68 19.0636 Q1189.07 11.0023 1199.24 11.0023 Z" fill="#000000" fill-rule="nonzero" fill-opacity="1" /><path clip-path="url(#clip830)" d="M1252.02 17.4837 Q1245.7 17.4837 1242.5 23.7221 Q1239.34 29.92 1239.34 42.3968 Q1239.34 54.833 1242.5 61.0714 Q1245.7 67.2693 1252.02 67.2693 Q1258.38 67.2693 1261.54 61.0714 Q1264.74 54.833 1264.74 42.3968 Q1264.74 29.92 1261.54 23.7221 Q1258.38 17.4837 1252.02 17.4837 M1252.02 11.0023 Q1262.19 11.0023 1267.54 19.0636 Q1272.92 27.0843 1272.92 42.3968 Q1272.92 57.6687 1267.54 65.73 Q1262.19 73.7508 1252.02 73.7508 Q1241.85 73.7508 1236.46 65.73 Q1231.12 57.6687 1231.12 42.3968 Q1231.12 27.0843 1236.46 19.0636 Q1241.85 11.0023 1252.02 11.0023 Z" fill="#000000" fill-rule="nonzero" fill-opacity="1" /><path clip-path="url(#clip830)" d="M1349.2 14.0809 L1349.2 22.0612 Q1344.54 19.8332 1340.41 18.7395 Q1336.28 17.6457 1332.43 17.6457 Q1325.75 17.6457 1322.1 20.2383 Q1318.5 22.8309 1318.5 27.611 Q1318.5 31.6214 1320.89 33.6873 Q1323.32 35.7128 1330.04 36.9686 L1334.98 37.9813 Q1344.14 39.7232 1348.47 44.1387 Q1352.85 48.5136 1352.85 55.8863 Q1352.85 64.6767 1346.93 69.2137 Q1341.06 73.7508 1329.68 73.7508 Q1325.38 73.7508 1320.52 72.7785 Q1315.7 71.8063 1310.52 69.9024 L1310.52 61.4765 Q1315.5 64.2716 1320.28 65.6895 Q1325.06 67.1073 1329.68 67.1073 Q1336.68 67.1073 1340.49 64.3527 Q1344.3 61.598 1344.3 56.4939 Q1344.3 52.0379 1341.55 49.5264 Q1338.83 47.0148 1332.59 45.759 L1327.61 44.7868 Q1318.46 42.9639 1314.36 39.075 Q1310.27 35.1862 1310.27 28.2591 Q1310.27 20.2383 1315.9 15.6203 Q1321.57 11.0023 1331.5 11.0023 Q1335.75 11.0023 1340.17 11.7719 Q1344.58 12.5416 1349.2 14.0809 Z" fill="#000000" fill-rule="nonzero" fill-opacity="1" /><path clip-path="url(#clip830)" d="M1385.9 49.7694 Q1376.87 49.7694 1373.39 51.8354 Q1369.9 53.9013 1369.9 58.8839 Q1369.9 62.8538 1372.49 65.2034 Q1375.13 67.5124 1379.62 67.5124 Q1385.82 67.5124 1389.55 63.1374 Q1393.32 58.7219 1393.32 51.4303 L1393.32 49.7694 L1385.9 49.7694 M1400.77 46.6907 L1400.77 72.576 L1393.32 72.576 L1393.32 65.6895 Q1390.76 69.8214 1386.96 71.8063 Q1383.15 73.7508 1377.64 73.7508 Q1370.67 73.7508 1366.54 69.8619 Q1362.45 65.9325 1362.45 59.3701 Q1362.45 51.7138 1367.55 47.825 Q1372.7 43.9361 1382.86 43.9361 L1393.32 43.9361 L1393.32 43.2069 Q1393.32 38.0623 1389.91 35.2672 Q1386.55 32.4315 1380.43 32.4315 Q1376.54 32.4315 1372.86 33.3632 Q1369.17 34.295 1365.77 36.1584 L1365.77 29.2718 Q1369.86 27.692 1373.71 26.9223 Q1377.56 26.1121 1381.2 26.1121 Q1391.05 26.1121 1395.91 31.2163 Q1400.77 36.3204 1400.77 46.6907 Z" fill="#000000" fill-rule="nonzero" fill-opacity="1" /><path clip-path="url(#clip830)" d="M1451.45 35.9153 Q1454.24 30.8922 1458.13 28.5022 Q1462.02 26.1121 1467.29 26.1121 Q1474.37 26.1121 1478.22 31.0947 Q1482.07 36.0368 1482.07 45.1919 L1482.07 72.576 L1474.58 72.576 L1474.58 45.4349 Q1474.58 38.913 1472.27 35.7533 Q1469.96 32.5936 1465.22 32.5936 Q1459.43 32.5936 1456.06 36.4419 Q1452.7 40.2903 1452.7 46.9338 L1452.7 72.576 L1445.21 72.576 L1445.21 45.4349 Q1445.21 38.8725 1442.9 35.7533 Q1440.59 32.5936 1435.77 32.5936 Q1430.06 32.5936 1426.7 36.4824 Q1423.33 40.3308 1423.33 46.9338 L1423.33 72.576 L1415.84 72.576 L1415.84 27.2059 L1423.33 27.2059 L1423.33 34.2544 Q1425.88 30.082 1429.45 28.0971 Q1433.01 26.1121 1437.92 26.1121 Q1442.86 26.1121 1446.3 28.6237 Q1449.79 31.1352 1451.45 35.9153 Z" fill="#000000" fill-rule="nonzero" fill-opacity="1" /><path clip-path="url(#clip830)" d="M1504.15 65.7705 L1504.15 89.8329 L1496.65 89.8329 L1496.65 27.2059 L1504.15 27.2059 L1504.15 34.0924 Q1506.5 30.0415 1510.06 28.0971 Q1513.67 26.1121 1518.65 26.1121 Q1526.91 26.1121 1532.06 32.6746 Q1537.24 39.2371 1537.24 49.9314 Q1537.24 60.6258 1532.06 67.1883 Q1526.91 73.7508 1518.65 73.7508 Q1513.67 73.7508 1510.06 71.8063 Q1506.5 69.8214 1504.15 65.7705 M1529.51 49.9314 Q1529.51 41.7081 1526.1 37.0496 Q1522.74 32.3505 1516.83 32.3505 Q1510.91 32.3505 1507.51 37.0496 Q1504.15 41.7081 1504.15 49.9314 Q1504.15 58.1548 1507.51 62.8538 Q1510.91 67.5124 1516.83 67.5124 Q1522.74 67.5124 1526.1 62.8538 Q1529.51 58.1548 1529.51 49.9314 Z" fill="#000000" fill-rule="nonzero" fill-opacity="1" /><path clip-path="url(#clip830)" d="M1549.6 9.54393 L1557.05 9.54393 L1557.05 72.576 L1549.6 72.576 L1549.6 9.54393 Z" fill="#000000" fill-rule="nonzero" fill-opacity="1" /><path clip-path="url(#clip830)" d="M1611.46 48.0275 L1611.46 51.6733 L1577.19 51.6733 Q1577.67 59.3701 1581.8 63.421 Q1585.98 67.4314 1593.39 67.4314 Q1597.68 67.4314 1601.69 66.3781 Q1605.75 65.3249 1609.72 63.2184 L1609.72 70.267 Q1605.7 71.9684 1601.49 72.8596 Q1597.28 73.7508 1592.94 73.7508 Q1582.09 73.7508 1575.73 67.4314 Q1569.41 61.1119 1569.41 50.3365 Q1569.41 39.1965 1575.4 32.6746 Q1581.44 26.1121 1591.65 26.1121 Q1600.8 26.1121 1606.11 32.0264 Q1611.46 37.9003 1611.46 48.0275 M1604 45.84 Q1603.92 39.7232 1600.56 36.0774 Q1597.24 32.4315 1591.73 32.4315 Q1585.49 32.4315 1581.72 35.9558 Q1578 39.4801 1577.43 45.8805 L1604 45.84 Z" fill="#000000" fill-rule="nonzero" fill-opacity="1" /><path clip-path="url(#clip830)" d="M1650.39 12.096 L1688.63 12.096 L1688.63 18.9825 L1658.57 18.9825 L1658.57 36.8875 L1687.37 36.8875 L1687.37 43.7741 L1658.57 43.7741 L1658.57 65.6895 L1689.36 65.6895 L1689.36 72.576 L1650.39 72.576 L1650.39 12.096 Z" fill="#000000" fill-rule="nonzero" fill-opacity="1" /><path clip-path="url(#clip830)" d="M1731.4 28.5427 L1731.4 35.5912 Q1728.24 33.9709 1724.84 33.1607 Q1721.44 32.3505 1717.79 32.3505 Q1712.24 32.3505 1709.45 34.0519 Q1706.69 35.7533 1706.69 39.156 Q1706.69 41.7486 1708.68 43.2475 Q1710.66 44.7058 1716.66 46.0426 L1719.21 46.6097 Q1727.15 48.3111 1730.47 51.4303 Q1733.83 54.509 1733.83 60.0587 Q1733.83 66.3781 1728.81 70.0644 Q1723.83 73.7508 1715.08 73.7508 Q1711.43 73.7508 1707.46 73.0216 Q1703.53 72.3329 1699.16 70.9151 L1699.16 63.2184 Q1703.29 65.3654 1707.3 66.4591 Q1711.31 67.5124 1715.24 67.5124 Q1720.51 67.5124 1723.34 65.73 Q1726.18 63.9071 1726.18 60.6258 Q1726.18 57.5877 1724.11 55.9673 Q1722.09 54.3469 1715.16 52.8481 L1712.57 52.2405 Q1705.64 50.7821 1702.56 47.7845 Q1699.48 44.7463 1699.48 39.4801 Q1699.48 33.0797 1704.02 29.5959 Q1708.56 26.1121 1716.9 26.1121 Q1721.03 26.1121 1724.68 26.7198 Q1728.33 27.3274 1731.4 28.5427 Z" fill="#000000" fill-rule="nonzero" fill-opacity="1" /><path clip-path="url(#clip830)" d="M1753.08 14.324 L1753.08 27.2059 L1768.43 27.2059 L1768.43 32.9987 L1753.08 32.9987 L1753.08 57.6282 Q1753.08 63.1779 1754.58 64.7578 Q1756.11 66.3376 1760.77 66.3376 L1768.43 66.3376 L1768.43 72.576 L1760.77 72.576 Q1752.14 72.576 1748.86 69.3758 Q1745.58 66.1351 1745.58 57.6282 L1745.58 32.9987 L1740.11 32.9987 L1740.11 27.2059 L1745.58 27.2059 L1745.58 14.324 L1753.08 14.324 Z" fill="#000000" fill-rule="nonzero" fill-opacity="1" /><path clip-path="url(#clip830)" d="M1778.23 27.2059 L1785.69 27.2059 L1785.69 72.576 L1778.23 72.576 L1778.23 27.2059 M1778.23 9.54393 L1785.69 9.54393 L1785.69 18.9825 L1778.23 18.9825 L1778.23 9.54393 Z" fill="#000000" fill-rule="nonzero" fill-opacity="1" /><path clip-path="url(#clip830)" d="M1836.61 35.9153 Q1839.4 30.8922 1843.29 28.5022 Q1847.18 26.1121 1852.45 26.1121 Q1859.53 26.1121 1863.38 31.0947 Q1867.23 36.0368 1867.23 45.1919 L1867.23 72.576 L1859.74 72.576 L1859.74 45.4349 Q1859.74 38.913 1857.43 35.7533 Q1855.12 32.5936 1850.38 32.5936 Q1844.59 32.5936 1841.22 36.4419 Q1837.86 40.2903 1837.86 46.9338 L1837.86 72.576 L1830.37 72.576 L1830.37 45.4349 Q1830.37 38.8725 1828.06 35.7533 Q1825.75 32.5936 1820.93 32.5936 Q1815.22 32.5936 1811.86 36.4824 Q1808.49 40.3308 1808.49 46.9338 L1808.49 72.576 L1801 72.576 L1801 27.2059 L1808.49 27.2059 L1808.49 34.2544 Q1811.04 30.082 1814.61 28.0971 Q1818.17 26.1121 1823.08 26.1121 Q1828.02 26.1121 1831.46 28.6237 Q1834.95 31.1352 1836.61 35.9153 Z" fill="#000000" fill-rule="nonzero" fill-opacity="1" /><path clip-path="url(#clip830)" d="M1902.72 49.7694 Q1893.68 49.7694 1890.2 51.8354 Q1886.72 53.9013 1886.72 58.8839 Q1886.72 62.8538 1889.31 65.2034 Q1891.94 67.5124 1896.44 67.5124 Q1902.64 67.5124 1906.36 63.1374 Q1910.13 58.7219 1910.13 51.4303 L1910.13 49.7694 L1902.72 49.7694 M1917.58 46.6907 L1917.58 72.576 L1910.13 72.576 L1910.13 65.6895 Q1907.58 69.8214 1903.77 71.8063 Q1899.96 73.7508 1894.45 73.7508 Q1887.49 73.7508 1883.35 69.8619 Q1879.26 65.9325 1879.26 59.3701 Q1879.26 51.7138 1884.37 47.825 Q1889.51 43.9361 1899.68 43.9361 L1910.13 43.9361 L1910.13 43.2069 Q1910.13 38.0623 1906.73 35.2672 Q1903.37 32.4315 1897.25 32.4315 Q1893.36 32.4315 1889.67 33.3632 Q1885.99 34.295 1882.58 36.1584 L1882.58 29.2718 Q1886.68 27.692 1890.52 26.9223 Q1894.37 26.1121 1898.02 26.1121 Q1907.86 26.1121 1912.72 31.2163 Q1917.58 36.3204 1917.58 46.6907 Z" fill="#000000" fill-rule="nonzero" fill-opacity="1" /><path clip-path="url(#clip830)" d="M1940.31 14.324 L1940.31 27.2059 L1955.66 27.2059 L1955.66 32.9987 L1940.31 32.9987 L1940.31 57.6282 Q1940.31 63.1779 1941.81 64.7578 Q1943.35 66.3376 1948.01 66.3376 L1955.66 66.3376 L1955.66 72.576 L1948.01 72.576 Q1939.38 72.576 1936.1 69.3758 Q1932.82 66.1351 1932.82 57.6282 L1932.82 32.9987 L1927.35 32.9987 L1927.35 27.2059 L1932.82 27.2059 L1932.82 14.324 L1940.31 14.324 Z" fill="#000000" fill-rule="nonzero" fill-opacity="1" /><path clip-path="url(#clip830)" d="M2004.27 48.0275 L2004.27 51.6733 L1970 51.6733 Q1970.49 59.3701 1974.62 63.421 Q1978.79 67.4314 1986.21 67.4314 Q1990.5 67.4314 1994.51 66.3781 Q1998.56 65.3249 2002.53 63.2184 L2002.53 70.267 Q1998.52 71.9684 1994.31 72.8596 Q1990.09 73.7508 1985.76 73.7508 Q1974.9 73.7508 1968.54 67.4314 Q1962.22 61.1119 1962.22 50.3365 Q1962.22 39.1965 1968.22 32.6746 Q1974.26 26.1121 1984.46 26.1121 Q1993.62 26.1121 1998.93 32.0264 Q2004.27 37.9003 2004.27 48.0275 M1996.82 45.84 Q1996.74 39.7232 1993.38 36.0774 Q1990.05 32.4315 1984.55 32.4315 Q1978.31 32.4315 1974.54 35.9558 Q1970.81 39.4801 1970.25 45.8805 L1996.82 45.84 Z" fill="#000000" fill-rule="nonzero" fill-opacity="1" /><path clip-path="url(#clip830)" d="M2018.41 62.2867 L2026.96 62.2867 L2026.96 69.2543 L2020.31 82.2172 L2015.09 82.2172 L2018.41 69.2543 L2018.41 62.2867 Z" fill="#000000" fill-rule="nonzero" fill-opacity="1" /><path clip-path="url(#clip830)" d="M2102.1 20.0358 Q2097.97 17.2001 2088.29 17.2001 Q2078.04 17.2001 2078.04 21.9397 Q2078.04 25.6665 2088.73 27.611 Q2097.16 29.1098 2101.9 33.6468 Q2107.65 39.1155 2107.65 50.3365 Q2107.65 61.0714 2102.1 67.3908 Q2096.55 73.7508 2086.83 73.7508 Q2077.15 73.7508 2071.56 67.3908 Q2066.01 61.0714 2066.01 49.9314 Q2066.01 41.6676 2071.56 34.9836 Q2073.71 32.391 2076.74 30.9327 Q2070.42 27.7325 2070.42 22.0207 Q2070.42 11.0023 2088.29 11.0023 Q2097.24 11.0023 2102.1 13.8379 L2102.1 20.0358 M2082.33 32.9582 Q2079.58 34.1329 2077.35 37.0901 Q2073.87 41.6676 2073.87 49.9314 Q2073.87 58.1548 2077.31 62.7728 Q2080.79 67.4314 2086.83 67.4314 Q2092.79 67.4314 2096.27 62.7323 Q2099.75 58.0333 2099.75 50.3365 Q2099.75 42.2752 2096.07 38.3864 Q2092.14 34.2139 2087.03 33.7683 Q2084.44 33.5253 2082.33 32.9582 Z" fill="#000000" fill-rule="nonzero" fill-opacity="1" /><path clip-path="url(#clip830)" d="M2157.72 27.2059 L2141.32 49.2833 L2158.57 72.576 L2149.78 72.576 L2136.58 54.752 L2123.37 72.576 L2114.58 72.576 L2132.2 48.8377 L2116.08 27.2059 L2124.87 27.2059 L2136.9 43.369 L2148.93 27.2059 L2157.72 27.2059 Z" fill="#000000" fill-rule="nonzero" fill-opacity="1" /><path clip-path="url(#clip830)" d="M2196.45 34.9026 L2248.38 34.9026 L2248.38 41.7081 L2196.45 41.7081 L2196.45 34.9026 M2196.45 51.4303 L2248.38 51.4303 L2248.38 58.3168 L2196.45 58.3168 L2196.45 51.4303 Z" fill="#000000" fill-rule="nonzero" fill-opacity="1" /><path clip-path="url(#clip830)" d="M2309.91 17.4837 Q2303.59 17.4837 2300.39 23.7221 Q2297.23 29.92 2297.23 42.3968 Q2297.23 54.833 2300.39 61.0714 Q2303.59 67.2693 2309.91 67.2693 Q2316.27 67.2693 2319.43 61.0714 Q2322.63 54.833 2322.63 42.3968 Q2322.63 29.92 2319.43 23.7221 Q2316.27 17.4837 2309.91 17.4837 M2309.91 11.0023 Q2320.08 11.0023 2325.43 19.0636 Q2330.82 27.0843 2330.82 42.3968 Q2330.82 57.6687 2325.43 65.73 Q2320.08 73.7508 2309.91 73.7508 Q2299.75 73.7508 2294.36 65.73 Q2289.01 57.6687 2289.01 42.3968 Q2289.01 27.0843 2294.36 19.0636 Q2299.75 11.0023 2309.91 11.0023 Z" fill="#000000" fill-rule="nonzero" fill-opacity="1" /><path clip-path="url(#clip830)" d="M2345.2 62.2867 L2353.74 62.2867 L2353.74 72.576 L2345.2 72.576 L2345.2 62.2867 Z" fill="#000000" fill-rule="nonzero" fill-opacity="1" /><path clip-path="url(#clip830)" d="M2372.99 65.6895 L2386.35 65.6895 L2386.35 19.5497 L2371.81 22.4663 L2371.81 15.0127 L2386.27 12.096 L2394.46 12.096 L2394.46 65.6895 L2407.82 65.6895 L2407.82 72.576 L2372.99 72.576 L2372.99 65.6895 Z" fill="#000000" fill-rule="nonzero" fill-opacity="1" /><polyline clip-path="url(#clip832)" style="stroke:#009af9; stroke-linecap:round; stroke-linejoin:round; stroke-width:8; stroke-opacity:1; fill:none" points="280.231,528.419 300.556,572.587 320.881,668.936 341.206,800.079 361.53,915.528 381.855,949.214 402.18,1042.61 422.505,1054.68 442.83,1056.82 463.155,997.47 483.48,895.389 503.804,798.602 524.129,690.117 544.454,567.664 564.779,532.855 585.104,493.833 605.429,493.75 625.753,524.018 646.078,619.515 666.403,745.007 686.728,839.229 707.053,959.498 727.378,1019.76 747.703,1082.52 768.027,1047.62 788.352,1044.03 808.677,978.345 829.002,845.782 849.327,759.693 869.652,620.238 889.977,542.004 910.301,502.207 930.626,478.228 950.951,505.031 971.276,593.982 991.601,703.909 1011.93,802.883 1032.25,939.858 1052.58,984.913 1072.9,1051.44 1093.23,1073.69 1113.55,1047.42 1133.87,967.344 1154.2,911.675 1174.52,807.926 1194.85,675.595 1215.17,570.166 1235.5,541.282 1255.82,501.214 1276.15,497.268 "/>
<path clip-path="url(#clip832)" d="M1296.47 1007.52 L1316.8 1043.46 L1337.12 1141.49 L1357.45 1233.02 L1377.77 1316.48 L1398.1 1337.05 L1418.42 1378.71 L1438.75 1344.73 L1459.07 1354.11 L1479.4 1325.07 L1499.72 1326.37 L1520.05 1290.05 L1540.37 1227.42 L1560.7 1128.34 L1581.02 1033.04 L1601.35 993.33 L1621.67 996.455 L1642 1009.47 L1662.32 1137.85 L1682.65 1204.77 L1702.97 1273.91 L1723.3 1339 L1743.62 1355.8 L1763.95 1348.25 L1784.27 1369.34 L1804.59 1374.94 L1824.92 1342.26 L1845.24 1326.64 L1865.57 1234.72 L1885.89 1169.88 L1906.22 1060.51 L1926.54 1019.5 L1946.87 1004.66 L1967.19 1010.65 L1987.52 1070.67 L2007.84 1135.9 L2028.17 1267.79 L2048.49 1345.51 L2068.82 1376.63 L2089.14 1384.96 L2109.47 1386.4 L2129.79 1345.77 L2150.12 1338.87 L2170.44 1331.97 L2190.77 1289.92 L2211.09 1242.79 L2231.42 1099.83 L2251.74 1045.02 L2272.07 1000.23 L2292.39 982.003 L2292.39 160.256 L2272.07 178.484 L2251.74 223.272 L2231.42 278.085 L2211.09 421.041 L2190.77 468.173 L2170.44 510.226 L2150.12 517.127 L2129.79 524.027 L2109.47 564.649 L2089.14 563.217 L2068.82 554.884 L2048.49 523.767 L2028.17 446.039 L2007.84 314.149 L1987.52 248.921 L1967.19 188.9 L1946.87 182.911 L1926.54 197.753 L1906.22 238.765 L1885.89 348.131 L1865.57 412.969 L1845.24 504.888 L1824.92 520.512 L1804.59 553.191 L1784.27 547.593 L1763.95 526.501 L1743.62 534.052 L1723.3 517.257 L1702.97 452.158 L1682.65 383.024 L1662.32 316.102 L1642 187.728 L1621.67 174.708 L1601.35 171.583 L1581.02 211.294 L1560.7 306.598 L1540.37 405.678 L1520.05 468.303 L1499.72 504.628 L1479.4 503.326 L1459.07 532.36 L1438.75 522.986 L1418.42 556.967 L1398.1 515.304 L1377.77 494.733 L1357.45 411.277 L1337.12 319.748 L1316.8 221.709 L1296.47 185.775  Z" fill="#e26f46" fill-rule="evenodd" fill-opacity="0.5"/>
<polyline clip-path="url(#clip832)" style="stroke:#e26f46; stroke-linecap:round; stroke-linejoin:round; stroke-width:8; stroke-opacity:1; fill:none" stroke-dasharray="32, 16, 4, 16" points="1296.47,596.648 1316.8,632.583 1337.12,730.621 1357.45,822.15 1377.77,905.606 1398.1,926.177 1418.42,967.841 1438.75,933.859 1459.07,943.233 1479.4,914.199 1499.72,915.501 1520.05,879.176 1540.37,816.551 1560.7,717.471 1581.02,622.167 1601.35,582.457 1621.67,585.582 1642,598.601 1662.32,726.976 1682.65,793.897 1702.97,863.032 1723.3,928.13 1743.62,944.926 1763.95,937.374 1784.27,958.466 1804.59,964.065 1824.92,931.385 1845.24,915.762 1865.57,823.842 1885.89,759.004 1906.22,649.639 1926.54,608.627 1946.87,593.784 1967.19,599.773 1987.52,659.794 2007.84,725.023 2028.17,856.913 2048.49,934.64 2068.82,965.757 2089.14,974.09 2109.47,975.522 2129.79,934.901 2150.12,928 2170.44,921.1 2190.77,879.046 2211.09,831.915 2231.42,688.958 2251.74,634.145 2272.07,589.357 2292.39,571.13 "/>
<polyline clip-path="url(#clip832)" style="stroke:#3da44d; stroke-linecap:round; stroke-linejoin:round; stroke-width:8; stroke-opacity:1; fill:none" points="1296.47,531.597 1316.8,643.028 1337.12,712.314 1357.45,872.453 1377.77,940.408 1398.1,1018 1418.42,1072.11 1438.75,1048.63 1459.07,1038.31 1479.4,950.822 1499.72,882.222 1520.05,722.484 1540.37,647.552 1560.7,550.422 1581.02,510.786 1601.35,494.469 1621.67,495.14 1642,583.55 1662.32,675.364 1682.65,800.875 1702.97,895.203 1723.3,977.379 1743.62,1043.14 1763.95,1064.19 1784.27,1041.08 1804.59,1012.66 1824.92,918.686 1845.24,810.716 1865.57,682.309 1885.89,578.733 1906.22,526.55 1926.54,496.835 1946.87,492.885 1967.19,565.904 1987.52,622.449 2007.84,758.987 2028.17,815.68 2048.49,967.89 2068.82,1015.77 2089.14,1050.1 2109.47,1070.39 2129.79,1026.32 2150.12,948.394 2170.44,856.402 2190.77,738.93 2211.09,626.47 2231.42,565.914 2251.74,504.823 2272.07,491.174 2292.39,512.466 "/>
<path clip-path="url(#clip830)" d="M290.963 1379.86 L911.032 1379.86 L911.032 1172.5 L290.963 1172.5  Z" fill="#ffffff" fill-rule="evenodd" fill-opacity="1"/>
<polyline clip-path="url(#clip830)" style="stroke:#000000; stroke-linecap:round; stroke-linejoin:round; stroke-width:4; stroke-opacity:1; fill:none" points="290.963,1379.86 911.032,1379.86 911.032,1172.5 290.963,1172.5 290.963,1379.86 "/>
<polyline clip-path="url(#clip830)" style="stroke:#009af9; stroke-linecap:round; stroke-linejoin:round; stroke-width:8; stroke-opacity:1; fill:none" points="314.661,1224.34 456.854,1224.34 "/>
<path clip-path="url(#clip830)" d="M508.423 1209.72 L508.423 1214.65 Q506.062 1212.45 503.377 1211.36 Q500.715 1210.27 497.705 1210.27 Q491.78 1210.27 488.631 1213.91 Q485.483 1217.52 485.483 1224.37 Q485.483 1231.2 488.631 1234.83 Q491.78 1238.44 497.705 1238.44 Q500.715 1238.44 503.377 1237.36 Q506.062 1236.27 508.423 1234.07 L508.423 1238.95 Q505.969 1240.62 503.215 1241.45 Q500.483 1242.29 497.428 1242.29 Q489.581 1242.29 485.067 1237.5 Q480.553 1232.68 480.553 1224.37 Q480.553 1216.04 485.067 1211.25 Q489.581 1206.43 497.428 1206.43 Q500.53 1206.43 503.261 1207.26 Q506.016 1208.07 508.423 1209.72 Z" fill="#000000" fill-rule="nonzero" fill-opacity="1" /><path clip-path="url(#clip830)" d="M525.506 1218.68 Q522.08 1218.68 520.09 1221.36 Q518.099 1224.02 518.099 1228.68 Q518.099 1233.33 520.066 1236.01 Q522.057 1238.68 525.506 1238.68 Q528.909 1238.68 530.9 1235.99 Q532.89 1233.31 532.89 1228.68 Q532.89 1224.07 530.9 1221.38 Q528.909 1218.68 525.506 1218.68 M525.506 1215.07 Q531.062 1215.07 534.233 1218.68 Q537.404 1222.29 537.404 1228.68 Q537.404 1235.04 534.233 1238.68 Q531.062 1242.29 525.506 1242.29 Q519.928 1242.29 516.756 1238.68 Q513.608 1235.04 513.608 1228.68 Q513.608 1222.29 516.756 1218.68 Q519.928 1215.07 525.506 1215.07 Z" fill="#000000" fill-rule="nonzero" fill-opacity="1" /><path clip-path="url(#clip830)" d="M566.015 1225.97 L566.015 1241.62 L561.756 1241.62 L561.756 1226.11 Q561.756 1222.43 560.321 1220.6 Q558.886 1218.77 556.015 1218.77 Q552.566 1218.77 550.576 1220.97 Q548.585 1223.17 548.585 1226.96 L548.585 1241.62 L544.302 1241.62 L544.302 1215.69 L548.585 1215.69 L548.585 1219.72 Q550.113 1217.38 552.173 1216.22 Q554.256 1215.07 556.964 1215.07 Q561.432 1215.07 563.724 1217.84 Q566.015 1220.6 566.015 1225.97 Z" fill="#000000" fill-rule="nonzero" fill-opacity="1" /><path clip-path="url(#clip830)" d="M591.571 1219.63 L591.571 1205.6 L595.83 1205.6 L595.83 1241.62 L591.571 1241.62 L591.571 1237.73 Q590.228 1240.04 588.168 1241.18 Q586.131 1242.29 583.261 1242.29 Q578.562 1242.29 575.599 1238.54 Q572.659 1234.79 572.659 1228.68 Q572.659 1222.57 575.599 1218.82 Q578.562 1215.07 583.261 1215.07 Q586.131 1215.07 588.168 1216.2 Q590.228 1217.31 591.571 1219.63 M577.057 1228.68 Q577.057 1233.38 578.978 1236.06 Q580.923 1238.72 584.302 1238.72 Q587.682 1238.72 589.626 1236.06 Q591.571 1233.38 591.571 1228.68 Q591.571 1223.98 589.626 1221.32 Q587.682 1218.63 584.302 1218.63 Q580.923 1218.63 578.978 1221.32 Q577.057 1223.98 577.057 1228.68 Z" fill="#000000" fill-rule="nonzero" fill-opacity="1" /><path clip-path="url(#clip830)" d="M604.603 1215.69 L608.862 1215.69 L608.862 1241.62 L604.603 1241.62 L604.603 1215.69 M604.603 1205.6 L608.862 1205.6 L608.862 1210.99 L604.603 1210.99 L604.603 1205.6 Z" fill="#000000" fill-rule="nonzero" fill-opacity="1" /><path clip-path="url(#clip830)" d="M621.987 1208.33 L621.987 1215.69 L630.76 1215.69 L630.76 1219 L621.987 1219 L621.987 1233.07 Q621.987 1236.25 622.844 1237.15 Q623.723 1238.05 626.385 1238.05 L630.76 1238.05 L630.76 1241.62 L626.385 1241.62 Q621.455 1241.62 619.58 1239.79 Q617.705 1237.94 617.705 1233.07 L617.705 1219 L614.58 1219 L614.58 1215.69 L617.705 1215.69 L617.705 1208.33 L621.987 1208.33 Z" fill="#000000" fill-rule="nonzero" fill-opacity="1" /><path clip-path="url(#clip830)" d="M636.362 1215.69 L640.621 1215.69 L640.621 1241.62 L636.362 1241.62 L636.362 1215.69 M636.362 1205.6 L640.621 1205.6 L640.621 1210.99 L636.362 1210.99 L636.362 1205.6 Z" fill="#000000" fill-rule="nonzero" fill-opacity="1" /><path clip-path="url(#clip830)" d="M659.58 1218.68 Q656.154 1218.68 654.163 1221.36 Q652.172 1224.02 652.172 1228.68 Q652.172 1233.33 654.14 1236.01 Q656.131 1238.68 659.58 1238.68 Q662.982 1238.68 664.973 1235.99 Q666.964 1233.31 666.964 1228.68 Q666.964 1224.07 664.973 1221.38 Q662.982 1218.68 659.58 1218.68 M659.58 1215.07 Q665.135 1215.07 668.306 1218.68 Q671.478 1222.29 671.478 1228.68 Q671.478 1235.04 668.306 1238.68 Q665.135 1242.29 659.58 1242.29 Q654.001 1242.29 650.83 1238.68 Q647.682 1235.04 647.682 1228.68 Q647.682 1222.29 650.83 1218.68 Q654.001 1215.07 659.58 1215.07 Z" fill="#000000" fill-rule="nonzero" fill-opacity="1" /><path clip-path="url(#clip830)" d="M700.089 1225.97 L700.089 1241.62 L695.829 1241.62 L695.829 1226.11 Q695.829 1222.43 694.394 1220.6 Q692.959 1218.77 690.089 1218.77 Q686.64 1218.77 684.649 1220.97 Q682.658 1223.17 682.658 1226.96 L682.658 1241.62 L678.376 1241.62 L678.376 1215.69 L682.658 1215.69 L682.658 1219.72 Q684.186 1217.38 686.246 1216.22 Q688.329 1215.07 691.038 1215.07 Q695.505 1215.07 697.797 1217.84 Q700.089 1220.6 700.089 1225.97 Z" fill="#000000" fill-rule="nonzero" fill-opacity="1" /><path clip-path="url(#clip830)" d="M730.76 1227.59 L730.76 1229.67 L711.177 1229.67 Q711.454 1234.07 713.815 1236.38 Q716.2 1238.68 720.436 1238.68 Q722.889 1238.68 725.181 1238.07 Q727.496 1237.47 729.764 1236.27 L729.764 1240.3 Q727.473 1241.27 725.065 1241.78 Q722.658 1242.29 720.181 1242.29 Q713.977 1242.29 710.343 1238.68 Q706.732 1235.07 706.732 1228.91 Q706.732 1222.54 710.158 1218.82 Q713.607 1215.07 719.44 1215.07 Q724.672 1215.07 727.704 1218.45 Q730.76 1221.8 730.76 1227.59 M726.501 1226.34 Q726.454 1222.84 724.533 1220.76 Q722.635 1218.68 719.487 1218.68 Q715.922 1218.68 713.769 1220.69 Q711.64 1222.7 711.315 1226.36 L726.501 1226.34 Z" fill="#000000" fill-rule="nonzero" fill-opacity="1" /><path clip-path="url(#clip830)" d="M754.811 1219.63 L754.811 1205.6 L759.07 1205.6 L759.07 1241.62 L754.811 1241.62 L754.811 1237.73 Q753.468 1240.04 751.408 1241.18 Q749.371 1242.29 746.5 1242.29 Q741.801 1242.29 738.838 1238.54 Q735.899 1234.79 735.899 1228.68 Q735.899 1222.57 738.838 1218.82 Q741.801 1215.07 746.5 1215.07 Q749.371 1215.07 751.408 1216.2 Q753.468 1217.31 754.811 1219.63 M740.297 1228.68 Q740.297 1233.38 742.218 1236.06 Q744.162 1238.72 747.542 1238.72 Q750.922 1238.72 752.866 1236.06 Q754.811 1233.38 754.811 1228.68 Q754.811 1223.98 752.866 1221.32 Q750.922 1218.63 747.542 1218.63 Q744.162 1218.63 742.218 1221.32 Q740.297 1223.98 740.297 1228.68 Z" fill="#000000" fill-rule="nonzero" fill-opacity="1" /><path clip-path="url(#clip830)" d="M787.773 1210.9 L787.773 1237.77 L793.421 1237.77 Q800.574 1237.77 803.884 1234.53 Q807.218 1231.29 807.218 1224.3 Q807.218 1217.36 803.884 1214.14 Q800.574 1210.9 793.421 1210.9 L787.773 1210.9 M783.097 1207.06 L792.704 1207.06 Q802.75 1207.06 807.449 1211.25 Q812.148 1215.41 812.148 1224.3 Q812.148 1233.24 807.426 1237.43 Q802.704 1241.62 792.704 1241.62 L783.097 1241.62 L783.097 1207.06 Z" fill="#000000" fill-rule="nonzero" fill-opacity="1" /><path clip-path="url(#clip830)" d="M831.199 1228.58 Q826.037 1228.58 824.046 1229.76 Q822.056 1230.95 822.056 1233.79 Q822.056 1236.06 823.537 1237.4 Q825.042 1238.72 827.611 1238.72 Q831.153 1238.72 833.282 1236.22 Q835.435 1233.7 835.435 1229.53 L835.435 1228.58 L831.199 1228.58 M839.694 1226.82 L839.694 1241.62 L835.435 1241.62 L835.435 1237.68 Q833.977 1240.04 831.801 1241.18 Q829.625 1242.29 826.477 1242.29 Q822.495 1242.29 820.134 1240.07 Q817.796 1237.82 817.796 1234.07 Q817.796 1229.7 820.713 1227.47 Q823.653 1225.25 829.463 1225.25 L835.435 1225.25 L835.435 1224.83 Q835.435 1221.89 833.491 1220.3 Q831.569 1218.68 828.074 1218.68 Q825.852 1218.68 823.745 1219.21 Q821.639 1219.74 819.694 1220.81 L819.694 1216.87 Q822.032 1215.97 824.231 1215.53 Q826.431 1215.07 828.514 1215.07 Q834.139 1215.07 836.917 1217.98 Q839.694 1220.9 839.694 1226.82 Z" fill="#000000" fill-rule="nonzero" fill-opacity="1" /><path clip-path="url(#clip830)" d="M852.68 1208.33 L852.68 1215.69 L861.454 1215.69 L861.454 1219 L852.68 1219 L852.68 1233.07 Q852.68 1236.25 853.537 1237.15 Q854.417 1238.05 857.079 1238.05 L861.454 1238.05 L861.454 1241.62 L857.079 1241.62 Q852.148 1241.62 850.273 1239.79 Q848.398 1237.94 848.398 1233.07 L848.398 1219 L845.273 1219 L845.273 1215.69 L848.398 1215.69 L848.398 1208.33 L852.68 1208.33 Z" fill="#000000" fill-rule="nonzero" fill-opacity="1" /><path clip-path="url(#clip830)" d="M878.838 1228.58 Q873.676 1228.58 871.685 1229.76 Q869.694 1230.95 869.694 1233.79 Q869.694 1236.06 871.176 1237.4 Q872.68 1238.72 875.25 1238.72 Q878.791 1238.72 880.921 1236.22 Q883.074 1233.7 883.074 1229.53 L883.074 1228.58 L878.838 1228.58 M887.333 1226.82 L887.333 1241.62 L883.074 1241.62 L883.074 1237.68 Q881.615 1240.04 879.44 1241.18 Q877.264 1242.29 874.115 1242.29 Q870.134 1242.29 867.773 1240.07 Q865.435 1237.82 865.435 1234.07 Q865.435 1229.7 868.352 1227.47 Q871.291 1225.25 877.102 1225.25 L883.074 1225.25 L883.074 1224.83 Q883.074 1221.89 881.129 1220.3 Q879.208 1218.68 875.713 1218.68 Q873.49 1218.68 871.384 1219.21 Q869.278 1219.74 867.333 1220.81 L867.333 1216.87 Q869.671 1215.97 871.87 1215.53 Q874.069 1215.07 876.153 1215.07 Q881.777 1215.07 884.555 1217.98 Q887.333 1220.9 887.333 1226.82 Z" fill="#000000" fill-rule="nonzero" fill-opacity="1" /><polyline clip-path="url(#clip830)" style="stroke:#e26f46; stroke-linecap:round; stroke-linejoin:round; stroke-width:8; stroke-opacity:1; fill:none" stroke-dasharray="32, 16, 4, 16" points="314.661,1276.18 456.854,1276.18 "/>
<path clip-path="url(#clip830)" d="M485.229 1262.74 L485.229 1275.72 L491.108 1275.72 Q494.372 1275.72 496.155 1274.04 Q497.937 1272.35 497.937 1269.22 Q497.937 1266.12 496.155 1264.43 Q494.372 1262.74 491.108 1262.74 L485.229 1262.74 M480.553 1258.9 L491.108 1258.9 Q496.918 1258.9 499.881 1261.54 Q502.867 1264.15 502.867 1269.22 Q502.867 1274.34 499.881 1276.95 Q496.918 1279.57 491.108 1279.57 L485.229 1279.57 L485.229 1293.46 L480.553 1293.46 L480.553 1258.9 Z" fill="#000000" fill-rule="nonzero" fill-opacity="1" /><path clip-path="url(#clip830)" d="M523.145 1271.51 Q522.428 1271.1 521.571 1270.91 Q520.738 1270.7 519.719 1270.7 Q516.108 1270.7 514.164 1273.06 Q512.242 1275.4 512.242 1279.8 L512.242 1293.46 L507.96 1293.46 L507.96 1267.53 L512.242 1267.53 L512.242 1271.56 Q513.585 1269.2 515.738 1268.06 Q517.891 1266.91 520.969 1266.91 Q521.409 1266.91 521.941 1266.97 Q522.474 1267.02 523.122 1267.14 L523.145 1271.51 Z" fill="#000000" fill-rule="nonzero" fill-opacity="1" /><path clip-path="url(#clip830)" d="M548.747 1279.43 L548.747 1281.51 L529.164 1281.51 Q529.441 1285.91 531.803 1288.22 Q534.187 1290.52 538.423 1290.52 Q540.877 1290.52 543.168 1289.91 Q545.483 1289.31 547.751 1288.11 L547.751 1292.14 Q545.46 1293.11 543.052 1293.62 Q540.645 1294.13 538.168 1294.13 Q531.965 1294.13 528.33 1290.52 Q524.719 1286.91 524.719 1280.75 Q524.719 1274.38 528.145 1270.66 Q531.594 1266.91 537.427 1266.91 Q542.659 1266.91 545.691 1270.29 Q548.747 1273.64 548.747 1279.43 M544.488 1278.18 Q544.441 1274.68 542.52 1272.6 Q540.622 1270.52 537.474 1270.52 Q533.909 1270.52 531.756 1272.53 Q529.627 1274.54 529.303 1278.2 L544.488 1278.18 Z" fill="#000000" fill-rule="nonzero" fill-opacity="1" /><path clip-path="url(#clip830)" d="M572.798 1271.47 L572.798 1257.44 L577.057 1257.44 L577.057 1293.46 L572.798 1293.46 L572.798 1289.57 Q571.455 1291.88 569.395 1293.02 Q567.358 1294.13 564.488 1294.13 Q559.788 1294.13 556.826 1290.38 Q553.886 1286.63 553.886 1280.52 Q553.886 1274.41 556.826 1270.66 Q559.788 1266.91 564.488 1266.91 Q567.358 1266.91 569.395 1268.04 Q571.455 1269.15 572.798 1271.47 M558.284 1280.52 Q558.284 1285.22 560.205 1287.9 Q562.15 1290.56 565.529 1290.56 Q568.909 1290.56 570.853 1287.9 Q572.798 1285.22 572.798 1280.52 Q572.798 1275.82 570.853 1273.16 Q568.909 1270.47 565.529 1270.47 Q562.15 1270.47 560.205 1273.16 Q558.284 1275.82 558.284 1280.52 Z" fill="#000000" fill-rule="nonzero" fill-opacity="1" /><path clip-path="url(#clip830)" d="M585.83 1267.53 L590.089 1267.53 L590.089 1293.46 L585.83 1293.46 L585.83 1267.53 M585.83 1257.44 L590.089 1257.44 L590.089 1262.83 L585.83 1262.83 L585.83 1257.44 Z" fill="#000000" fill-rule="nonzero" fill-opacity="1" /><path clip-path="url(#clip830)" d="M617.659 1268.53 L617.659 1272.51 Q615.853 1271.51 614.024 1271.03 Q612.219 1270.52 610.367 1270.52 Q606.223 1270.52 603.932 1273.16 Q601.64 1275.77 601.64 1280.52 Q601.64 1285.26 603.932 1287.9 Q606.223 1290.52 610.367 1290.52 Q612.219 1290.52 614.024 1290.03 Q615.853 1289.52 617.659 1288.53 L617.659 1292.46 Q615.876 1293.29 613.955 1293.71 Q612.057 1294.13 609.904 1294.13 Q604.047 1294.13 600.598 1290.45 Q597.149 1286.77 597.149 1280.52 Q597.149 1274.17 600.622 1270.54 Q604.117 1266.91 610.182 1266.91 Q612.149 1266.91 614.024 1267.32 Q615.899 1267.72 617.659 1268.53 Z" fill="#000000" fill-rule="nonzero" fill-opacity="1" /><path clip-path="url(#clip830)" d="M629.279 1260.17 L629.279 1267.53 L638.052 1267.53 L638.052 1270.84 L629.279 1270.84 L629.279 1284.91 Q629.279 1288.09 630.135 1288.99 Q631.015 1289.89 633.677 1289.89 L638.052 1289.89 L638.052 1293.46 L633.677 1293.46 Q628.746 1293.46 626.871 1291.63 Q624.996 1289.78 624.996 1284.91 L624.996 1270.84 L621.871 1270.84 L621.871 1267.53 L624.996 1267.53 L624.996 1260.17 L629.279 1260.17 Z" fill="#000000" fill-rule="nonzero" fill-opacity="1" /><path clip-path="url(#clip830)" d="M665.83 1279.43 L665.83 1281.51 L646.246 1281.51 Q646.524 1285.91 648.885 1288.22 Q651.269 1290.52 655.506 1290.52 Q657.959 1290.52 660.251 1289.91 Q662.566 1289.31 664.834 1288.11 L664.834 1292.14 Q662.543 1293.11 660.135 1293.62 Q657.728 1294.13 655.251 1294.13 Q649.047 1294.13 645.413 1290.52 Q641.802 1286.91 641.802 1280.75 Q641.802 1274.38 645.228 1270.66 Q648.677 1266.91 654.51 1266.91 Q659.742 1266.91 662.774 1270.29 Q665.83 1273.64 665.83 1279.43 M661.57 1278.18 Q661.524 1274.68 659.603 1272.6 Q657.705 1270.52 654.556 1270.52 Q650.992 1270.52 648.839 1272.53 Q646.709 1274.54 646.385 1278.2 L661.57 1278.18 Z" fill="#000000" fill-rule="nonzero" fill-opacity="1" /><path clip-path="url(#clip830)" d="M689.88 1271.47 L689.88 1257.44 L694.14 1257.44 L694.14 1293.46 L689.88 1293.46 L689.88 1289.57 Q688.538 1291.88 686.478 1293.02 Q684.441 1294.13 681.57 1294.13 Q676.871 1294.13 673.908 1290.38 Q670.968 1286.63 670.968 1280.52 Q670.968 1274.41 673.908 1270.66 Q676.871 1266.91 681.57 1266.91 Q684.441 1266.91 686.478 1268.04 Q688.538 1269.15 689.88 1271.47 M675.367 1280.52 Q675.367 1285.22 677.288 1287.9 Q679.232 1290.56 682.612 1290.56 Q685.991 1290.56 687.936 1287.9 Q689.88 1285.22 689.88 1280.52 Q689.88 1275.82 687.936 1273.16 Q685.991 1270.47 682.612 1270.47 Q679.232 1270.47 677.288 1273.16 Q675.367 1275.82 675.367 1280.52 Z" fill="#000000" fill-rule="nonzero" fill-opacity="1" /><path clip-path="url(#clip830)" d="M722.843 1262.74 L722.843 1275.72 L728.723 1275.72 Q731.987 1275.72 733.769 1274.04 Q735.551 1272.35 735.551 1269.22 Q735.551 1266.12 733.769 1264.43 Q731.987 1262.74 728.723 1262.74 L722.843 1262.74 M718.167 1258.9 L728.723 1258.9 Q734.533 1258.9 737.496 1261.54 Q740.482 1264.15 740.482 1269.22 Q740.482 1274.34 737.496 1276.95 Q734.533 1279.57 728.723 1279.57 L722.843 1279.57 L722.843 1293.46 L718.167 1293.46 L718.167 1258.9 Z" fill="#000000" fill-rule="nonzero" fill-opacity="1" /><path clip-path="url(#clip830)" d="M754.926 1270.52 Q751.5 1270.52 749.51 1273.2 Q747.519 1275.86 747.519 1280.52 Q747.519 1285.17 749.487 1287.85 Q751.477 1290.52 754.926 1290.52 Q758.329 1290.52 760.32 1287.83 Q762.311 1285.15 762.311 1280.52 Q762.311 1275.91 760.32 1273.22 Q758.329 1270.52 754.926 1270.52 M754.926 1266.91 Q760.482 1266.91 763.653 1270.52 Q766.824 1274.13 766.824 1280.52 Q766.824 1286.88 763.653 1290.52 Q760.482 1294.13 754.926 1294.13 Q749.348 1294.13 746.176 1290.52 Q743.028 1286.88 743.028 1280.52 Q743.028 1274.13 746.176 1270.52 Q749.348 1266.91 754.926 1266.91 Z" fill="#000000" fill-rule="nonzero" fill-opacity="1" /><path clip-path="url(#clip830)" d="M773.885 1267.53 L778.144 1267.53 L778.144 1293.46 L773.885 1293.46 L773.885 1267.53 M773.885 1257.44 L778.144 1257.44 L778.144 1262.83 L773.885 1262.83 L773.885 1257.44 Z" fill="#000000" fill-rule="nonzero" fill-opacity="1" /><path clip-path="url(#clip830)" d="M808.607 1277.81 L808.607 1293.46 L804.347 1293.46 L804.347 1277.95 Q804.347 1274.27 802.912 1272.44 Q801.477 1270.61 798.607 1270.61 Q795.158 1270.61 793.167 1272.81 Q791.176 1275.01 791.176 1278.8 L791.176 1293.46 L786.894 1293.46 L786.894 1267.53 L791.176 1267.53 L791.176 1271.56 Q792.704 1269.22 794.764 1268.06 Q796.847 1266.91 799.556 1266.91 Q804.023 1266.91 806.315 1269.68 Q808.607 1272.44 808.607 1277.81 Z" fill="#000000" fill-rule="nonzero" fill-opacity="1" /><path clip-path="url(#clip830)" d="M821.315 1260.17 L821.315 1267.53 L830.088 1267.53 L830.088 1270.84 L821.315 1270.84 L821.315 1284.91 Q821.315 1288.09 822.171 1288.99 Q823.051 1289.89 825.713 1289.89 L830.088 1289.89 L830.088 1293.46 L825.713 1293.46 Q820.782 1293.46 818.907 1291.63 Q817.032 1289.78 817.032 1284.91 L817.032 1270.84 L813.907 1270.84 L813.907 1267.53 L817.032 1267.53 L817.032 1260.17 L821.315 1260.17 Z" fill="#000000" fill-rule="nonzero" fill-opacity="1" /><path clip-path="url(#clip830)" d="M852.217 1268.29 L852.217 1272.32 Q850.412 1271.4 848.467 1270.93 Q846.523 1270.47 844.44 1270.47 Q841.268 1270.47 839.671 1271.44 Q838.097 1272.41 838.097 1274.36 Q838.097 1275.84 839.231 1276.7 Q840.366 1277.53 843.792 1278.29 L845.25 1278.62 Q849.787 1279.59 851.685 1281.37 Q853.606 1283.13 853.606 1286.3 Q853.606 1289.91 850.736 1292.02 Q847.889 1294.13 842.889 1294.13 Q840.805 1294.13 838.537 1293.71 Q836.292 1293.32 833.792 1292.51 L833.792 1288.11 Q836.153 1289.34 838.444 1289.96 Q840.736 1290.56 842.981 1290.56 Q845.991 1290.56 847.611 1289.54 Q849.231 1288.5 849.231 1286.63 Q849.231 1284.89 848.051 1283.97 Q846.893 1283.04 842.935 1282.18 L841.454 1281.84 Q837.495 1281 835.736 1279.29 Q833.977 1277.55 833.977 1274.54 Q833.977 1270.89 836.569 1268.9 Q839.162 1266.91 843.93 1266.91 Q846.292 1266.91 848.375 1267.25 Q850.458 1267.6 852.217 1268.29 Z" fill="#000000" fill-rule="nonzero" fill-opacity="1" /><polyline clip-path="url(#clip830)" style="stroke:#3da44d; stroke-linecap:round; stroke-linejoin:round; stroke-width:8; stroke-opacity:1; fill:none" points="314.661,1328.02 456.854,1328.02 "/>
<path clip-path="url(#clip830)" d="M496.386 1315.34 L490.043 1332.54 L502.752 1332.54 L496.386 1315.34 M493.747 1310.74 L499.048 1310.74 L512.219 1345.3 L507.358 1345.3 L504.21 1336.43 L488.631 1336.43 L485.483 1345.3 L480.553 1345.3 L493.747 1310.74 Z" fill="#000000" fill-rule="nonzero" fill-opacity="1" /><path clip-path="url(#clip830)" d="M534.904 1320.37 L534.904 1324.35 Q533.099 1323.35 531.27 1322.87 Q529.465 1322.36 527.613 1322.36 Q523.469 1322.36 521.178 1325 Q518.886 1327.61 518.886 1332.36 Q518.886 1337.1 521.178 1339.74 Q523.469 1342.36 527.613 1342.36 Q529.465 1342.36 531.27 1341.87 Q533.099 1341.36 534.904 1340.37 L534.904 1344.3 Q533.122 1345.13 531.201 1345.55 Q529.303 1345.97 527.15 1345.97 Q521.293 1345.97 517.844 1342.29 Q514.395 1338.61 514.395 1332.36 Q514.395 1326.01 517.867 1322.38 Q521.363 1318.75 527.428 1318.75 Q529.395 1318.75 531.27 1319.16 Q533.145 1319.56 534.904 1320.37 Z" fill="#000000" fill-rule="nonzero" fill-opacity="1" /><path clip-path="url(#clip830)" d="M546.525 1312.01 L546.525 1319.37 L555.298 1319.37 L555.298 1322.68 L546.525 1322.68 L546.525 1336.75 Q546.525 1339.93 547.381 1340.83 Q548.261 1341.73 550.923 1341.73 L555.298 1341.73 L555.298 1345.3 L550.923 1345.3 Q545.992 1345.3 544.117 1343.47 Q542.242 1341.62 542.242 1336.75 L542.242 1322.68 L539.117 1322.68 L539.117 1319.37 L542.242 1319.37 L542.242 1312.01 L546.525 1312.01 Z" fill="#000000" fill-rule="nonzero" fill-opacity="1" /><path clip-path="url(#clip830)" d="M560.46 1335.06 L560.46 1319.37 L564.719 1319.37 L564.719 1334.9 Q564.719 1338.58 566.154 1340.44 Q567.589 1342.26 570.46 1342.26 Q573.909 1342.26 575.899 1340.06 Q577.913 1337.87 577.913 1334.07 L577.913 1319.37 L582.173 1319.37 L582.173 1345.3 L577.913 1345.3 L577.913 1341.31 Q576.362 1343.68 574.302 1344.83 Q572.265 1345.97 569.557 1345.97 Q565.089 1345.97 562.775 1343.19 Q560.46 1340.41 560.46 1335.06 M571.177 1318.75 L571.177 1318.75 Z" fill="#000000" fill-rule="nonzero" fill-opacity="1" /><path clip-path="url(#clip830)" d="M602.728 1332.26 Q597.566 1332.26 595.575 1333.44 Q593.585 1334.63 593.585 1337.47 Q593.585 1339.74 595.066 1341.08 Q596.571 1342.4 599.14 1342.4 Q602.682 1342.4 604.811 1339.9 Q606.964 1337.38 606.964 1333.21 L606.964 1332.26 L602.728 1332.26 M611.223 1330.5 L611.223 1345.3 L606.964 1345.3 L606.964 1341.36 Q605.506 1343.72 603.33 1344.86 Q601.154 1345.97 598.006 1345.97 Q594.024 1345.97 591.663 1343.75 Q589.325 1341.5 589.325 1337.75 Q589.325 1333.38 592.242 1331.15 Q595.182 1328.93 600.992 1328.93 L606.964 1328.93 L606.964 1328.51 Q606.964 1325.57 605.02 1323.98 Q603.098 1322.36 599.603 1322.36 Q597.381 1322.36 595.274 1322.89 Q593.168 1323.42 591.223 1324.49 L591.223 1320.55 Q593.561 1319.65 595.76 1319.21 Q597.96 1318.75 600.043 1318.75 Q605.668 1318.75 608.446 1321.66 Q611.223 1324.58 611.223 1330.5 Z" fill="#000000" fill-rule="nonzero" fill-opacity="1" /><path clip-path="url(#clip830)" d="M619.996 1309.28 L624.256 1309.28 L624.256 1345.3 L619.996 1345.3 L619.996 1309.28 Z" fill="#000000" fill-rule="nonzero" fill-opacity="1" /><path clip-path="url(#clip830)" d="M653.098 1314.58 L653.098 1341.45 L658.746 1341.45 Q665.899 1341.45 669.209 1338.21 Q672.542 1334.97 672.542 1327.98 Q672.542 1321.04 669.209 1317.82 Q665.899 1314.58 658.746 1314.58 L653.098 1314.58 M648.422 1310.74 L658.029 1310.74 Q668.075 1310.74 672.774 1314.93 Q677.473 1319.09 677.473 1327.98 Q677.473 1336.92 672.751 1341.11 Q668.029 1345.3 658.029 1345.3 L648.422 1345.3 L648.422 1310.74 Z" fill="#000000" fill-rule="nonzero" fill-opacity="1" /><path clip-path="url(#clip830)" d="M696.524 1332.26 Q691.362 1332.26 689.371 1333.44 Q687.38 1334.63 687.38 1337.47 Q687.38 1339.74 688.862 1341.08 Q690.366 1342.4 692.936 1342.4 Q696.478 1342.4 698.607 1339.9 Q700.76 1337.38 700.76 1333.21 L700.76 1332.26 L696.524 1332.26 M705.019 1330.5 L705.019 1345.3 L700.76 1345.3 L700.76 1341.36 Q699.302 1343.72 697.126 1344.86 Q694.95 1345.97 691.802 1345.97 Q687.82 1345.97 685.459 1343.75 Q683.121 1341.5 683.121 1337.75 Q683.121 1333.38 686.038 1331.15 Q688.978 1328.93 694.788 1328.93 L700.76 1328.93 L700.76 1328.51 Q700.76 1325.57 698.815 1323.98 Q696.894 1322.36 693.399 1322.36 Q691.177 1322.36 689.07 1322.89 Q686.964 1323.42 685.019 1324.49 L685.019 1320.55 Q687.357 1319.65 689.556 1319.21 Q691.755 1318.75 693.839 1318.75 Q699.464 1318.75 702.241 1321.66 Q705.019 1324.58 705.019 1330.5 Z" fill="#000000" fill-rule="nonzero" fill-opacity="1" /><path clip-path="url(#clip830)" d="M718.005 1312.01 L718.005 1319.37 L726.778 1319.37 L726.778 1322.68 L718.005 1322.68 L718.005 1336.75 Q718.005 1339.93 718.862 1340.83 Q719.741 1341.73 722.403 1341.73 L726.778 1341.73 L726.778 1345.3 L722.403 1345.3 Q717.473 1345.3 715.598 1343.47 Q713.723 1341.62 713.723 1336.75 L713.723 1322.68 L710.598 1322.68 L710.598 1319.37 L713.723 1319.37 L713.723 1312.01 L718.005 1312.01 Z" fill="#000000" fill-rule="nonzero" fill-opacity="1" /><path clip-path="url(#clip830)" d="M744.162 1332.26 Q739 1332.26 737.01 1333.44 Q735.019 1334.63 735.019 1337.47 Q735.019 1339.74 736.5 1341.08 Q738.005 1342.4 740.575 1342.4 Q744.116 1342.4 746.246 1339.9 Q748.399 1337.38 748.399 1333.21 L748.399 1332.26 L744.162 1332.26 M752.658 1330.5 L752.658 1345.3 L748.399 1345.3 L748.399 1341.36 Q746.94 1343.72 744.764 1344.86 Q742.588 1345.97 739.44 1345.97 Q735.459 1345.97 733.098 1343.75 Q730.76 1341.5 730.76 1337.75 Q730.76 1333.38 733.676 1331.15 Q736.616 1328.93 742.426 1328.93 L748.399 1328.93 L748.399 1328.51 Q748.399 1325.57 746.454 1323.98 Q744.533 1322.36 741.037 1322.36 Q738.815 1322.36 736.709 1322.89 Q734.602 1323.42 732.658 1324.49 L732.658 1320.55 Q734.996 1319.65 737.195 1319.21 Q739.394 1318.75 741.477 1318.75 Q747.102 1318.75 749.88 1321.66 Q752.658 1324.58 752.658 1330.5 Z" fill="#000000" fill-rule="nonzero" fill-opacity="1" /></svg>
