<?xml version="1.0" encoding="UTF-8" standalone="no"?>
<svg
   width="600"
   height="400"
   viewBox="0 0 2400 1600"
   version="1.1"
   id="svg7042"
   sodipodi:docname="ECG200BarPlot.svg"
   inkscape:version="1.2.1 (9c6d41e, 2022-07-14)"
   inkscape:export-filename="ECG200BarPlot.pdf"
   inkscape:export-xdpi="96"
   inkscape:export-ydpi="96"
   xmlns:inkscape="http://www.inkscape.org/namespaces/inkscape"
   xmlns:sodipodi="http://sodipodi.sourceforge.net/DTD/sodipodi-0.dtd"
   xmlns="http://www.w3.org/2000/svg"
   xmlns:svg="http://www.w3.org/2000/svg">
  <sodipodi:namedview
     id="namedview7044"
     pagecolor="#ffffff"
     bordercolor="#000000"
     borderopacity="0.25"
     inkscape:showpageshadow="2"
     inkscape:pageopacity="0.0"
     inkscape:pagecheckerboard="0"
     inkscape:deskcolor="#d1d1d1"
     showgrid="false"
     inkscape:zoom="1.18"
     inkscape:cx="279.23729"
     inkscape:cy="228.81356"
     inkscape:window-width="1512"
     inkscape:window-height="916"
     inkscape:window-x="408"
     inkscape:window-y="1118"
     inkscape:window-maximized="1"
     inkscape:current-layer="svg7042" />
  <defs
     id="defs6784">
    <clipPath
       id="clip580">
      <rect
         x="0"
         y="0"
         width="2400"
         height="1600"
         id="rect6781" />
    </clipPath>
    <clipPath
       id="clip170">
      <rect
         x="0"
         y="0"
         width="2400"
         height="1600"
         id="rect132" />
    </clipPath>
    <clipPath
       id="clipPath7173">
      <rect
         x="0"
         y="0"
         width="2400"
         height="1600"
         id="rect7171" />
    </clipPath>
    <clipPath
       id="clipPath7177">
      <rect
         x="0"
         y="0"
         width="2400"
         height="1600"
         id="rect7175" />
    </clipPath>
    <clipPath
       id="clipPath7181">
      <rect
         x="0"
         y="0"
         width="2400"
         height="1600"
         id="rect7179" />
    </clipPath>
    <rect
       x="128.6017"
       y="375.63559"
       width="33.474575"
       height="19.279661"
       id="rect8651-0" />
    <rect
       x="128.6017"
       y="375.63559"
       width="33.474575"
       height="19.279661"
       id="rect8651-7-2" />
    <rect
       x="128.6017"
       y="375.63559"
       width="124.25989"
       height="51.638786"
       id="rect8651-7-0-4" />
    <rect
       x="128.6017"
       y="375.63559"
       width="124.25989"
       height="51.638786"
       id="rect8651-7-0-5-8" />
  </defs>
  <defs
     id="defs6791">
    <clipPath
       id="clip581">
      <rect
         x="480"
         y="0"
         width="1681"
         height="1600"
         id="rect6788" />
    </clipPath>
  </defs>
  <path
     clip-path="url(#clip580)"
     d="M249.542 1423.18 L2352.76 1423.18 L2352.76 123.472 L249.542 123.472  Z"
     fill="#ffffff"
     fill-rule="evenodd"
     fill-opacity="1"
     id="path6793" />
  <defs
     id="defs6798">
    <clipPath
       id="clip582">
      <rect
         x="249"
         y="123"
         width="2104"
         height="1301"
         id="rect6795" />
    </clipPath>
  </defs>
  <polyline
     clip-path="url(#clip582)"
     style="stroke:#000000; stroke-linecap:round; stroke-linejoin:round; stroke-width:2; stroke-opacity:0.1; fill:none"
     points="562.26,1423.18 562.26,123.472 "
     id="polyline6800" />
  <polyline
     clip-path="url(#clip582)"
     style="stroke:#000000; stroke-linecap:round; stroke-linejoin:round; stroke-width:2; stroke-opacity:0.1; fill:none"
     points="1054.85,1423.18 1054.85,123.472 "
     id="polyline6802" />
  <polyline
     clip-path="url(#clip582)"
     style="stroke:#000000; stroke-linecap:round; stroke-linejoin:round; stroke-width:2; stroke-opacity:0.1; fill:none"
     points="1547.45,1423.18 1547.45,123.472 "
     id="polyline6804" />
  <polyline
     clip-path="url(#clip582)"
     style="stroke:#000000; stroke-linecap:round; stroke-linejoin:round; stroke-width:2; stroke-opacity:0.1; fill:none"
     points="2040.04,1423.18 2040.04,123.472 "
     id="polyline6806" />
  <polyline
     clip-path="url(#clip582)"
     style="stroke:#000000; stroke-linecap:round; stroke-linejoin:round; stroke-width:2; stroke-opacity:0.1; fill:none"
     points="249.542,1423.18 2352.76,1423.18 "
     id="polyline6808" />
  <polyline
     clip-path="url(#clip582)"
     style="stroke:#000000; stroke-linecap:round; stroke-linejoin:round; stroke-width:2; stroke-opacity:0.1; fill:none"
     points="249.542,1140.63 2352.76,1140.63 "
     id="polyline6810" />
  <polyline
     clip-path="url(#clip582)"
     style="stroke:#000000; stroke-linecap:round; stroke-linejoin:round; stroke-width:2; stroke-opacity:0.1; fill:none"
     points="249.542,858.09 2352.76,858.09 "
     id="polyline6812" />
  <polyline
     clip-path="url(#clip582)"
     style="stroke:#000000; stroke-linecap:round; stroke-linejoin:round; stroke-width:2; stroke-opacity:0.1; fill:none"
     points="249.542,575.544 2352.76,575.544 "
     id="polyline6814" />
  <polyline
     clip-path="url(#clip582)"
     style="stroke:#000000; stroke-linecap:round; stroke-linejoin:round; stroke-width:2; stroke-opacity:0.1; fill:none"
     points="249.542,292.999 2352.76,292.999 "
     id="polyline6816" />
  <polyline
     clip-path="url(#clip580)"
     style="stroke:#000000; stroke-linecap:round; stroke-linejoin:round; stroke-width:4; stroke-opacity:1; fill:none"
     points="249.542,1423.18 2352.76,1423.18 "
     id="polyline6818" />
  <polyline
     clip-path="url(#clip580)"
     style="stroke:#000000; stroke-linecap:round; stroke-linejoin:round; stroke-width:4; stroke-opacity:1; fill:none"
     points="562.26,1423.18 562.26,1404.28 "
     id="polyline6820" />
  <polyline
     clip-path="url(#clip580)"
     style="stroke:#000000; stroke-linecap:round; stroke-linejoin:round; stroke-width:4; stroke-opacity:1; fill:none"
     points="1054.85,1423.18 1054.85,1404.28 "
     id="polyline6822" />
  <polyline
     clip-path="url(#clip580)"
     style="stroke:#000000; stroke-linecap:round; stroke-linejoin:round; stroke-width:4; stroke-opacity:1; fill:none"
     points="1547.45,1423.18 1547.45,1404.28 "
     id="polyline6824" />
  <polyline
     clip-path="url(#clip580)"
     style="stroke:#000000; stroke-linecap:round; stroke-linejoin:round; stroke-width:4; stroke-opacity:1; fill:none"
     points="2040.04,1423.18 2040.04,1404.28 "
     id="polyline6826" />
  <path
     clip-path="url(#clip580)"
     d="M1192.52 1524.18 L1192.52 1530.96 Q1189.27 1527.94 1185.58 1526.44 Q1181.92 1524.95 1177.78 1524.95 Q1169.63 1524.95 1165.3 1529.95 Q1160.98 1534.91 1160.98 1544.33 Q1160.98 1553.72 1165.3 1558.72 Q1169.63 1563.68 1177.78 1563.68 Q1181.92 1563.68 1185.58 1562.19 Q1189.27 1560.69 1192.52 1557.67 L1192.52 1564.38 Q1189.14 1566.68 1185.36 1567.82 Q1181.6 1568.97 1177.4 1568.97 Q1166.61 1568.97 1160.4 1562.38 Q1154.2 1555.76 1154.2 1544.33 Q1154.2 1532.87 1160.4 1526.28 Q1166.61 1519.66 1177.4 1519.66 Q1181.66 1519.66 1185.42 1520.81 Q1189.21 1521.92 1192.52 1524.18 Z"
     fill="#000000"
     fill-rule="nonzero"
     fill-opacity="1"
     id="path6872" />
  <path
     clip-path="url(#clip580)"
     d="M1202.19 1518.52 L1208.05 1518.52 L1208.05 1568.04 L1202.19 1568.04 L1202.19 1518.52 Z"
     fill="#000000"
     fill-rule="nonzero"
     fill-opacity="1"
     id="path6874" />
  <path
     clip-path="url(#clip580)"
     d="M1236.51 1550.12 Q1229.41 1550.12 1226.67 1551.75 Q1223.93 1553.37 1223.93 1557.29 Q1223.93 1560.4 1225.97 1562.25 Q1228.04 1564.07 1231.57 1564.07 Q1236.44 1564.07 1239.37 1560.63 Q1242.33 1557.16 1242.33 1551.43 L1242.33 1550.12 L1236.51 1550.12 M1248.19 1547.71 L1248.19 1568.04 L1242.33 1568.04 L1242.33 1562.63 Q1240.32 1565.88 1237.33 1567.44 Q1234.34 1568.97 1230.01 1568.97 Q1224.54 1568.97 1221.29 1565.91 Q1218.08 1562.82 1218.08 1557.67 Q1218.08 1551.65 1222.09 1548.6 Q1226.13 1545.54 1234.12 1545.54 L1242.33 1545.54 L1242.33 1544.97 Q1242.33 1540.93 1239.66 1538.73 Q1237.01 1536.5 1232.21 1536.5 Q1229.15 1536.5 1226.26 1537.23 Q1223.36 1537.97 1220.69 1539.43 L1220.69 1534.02 Q1223.9 1532.78 1226.92 1532.17 Q1229.95 1531.54 1232.81 1531.54 Q1240.55 1531.54 1244.37 1535.55 Q1248.19 1539.56 1248.19 1547.71 Z"
     fill="#000000"
     fill-rule="nonzero"
     fill-opacity="1"
     id="path6876" />
  <path
     clip-path="url(#clip580)"
     d="M1282.97 1533.45 L1282.97 1538.98 Q1280.49 1537.71 1277.82 1537.07 Q1275.15 1536.44 1272.28 1536.44 Q1267.92 1536.44 1265.72 1537.77 Q1263.56 1539.11 1263.56 1541.79 Q1263.56 1543.82 1265.12 1545 Q1266.68 1546.15 1271.39 1547.2 L1273.39 1547.64 Q1279.63 1548.98 1282.24 1551.43 Q1284.88 1553.85 1284.88 1558.21 Q1284.88 1563.17 1280.94 1566.07 Q1277.02 1568.97 1270.15 1568.97 Q1267.28 1568.97 1264.16 1568.39 Q1261.08 1567.85 1257.64 1566.74 L1257.64 1560.69 Q1260.89 1562.38 1264.04 1563.24 Q1267.19 1564.07 1270.28 1564.07 Q1274.41 1564.07 1276.64 1562.66 Q1278.87 1561.23 1278.87 1558.65 Q1278.87 1556.27 1277.25 1554.99 Q1275.65 1553.72 1270.21 1552.54 L1268.17 1552.07 Q1262.73 1550.92 1260.31 1548.56 Q1257.89 1546.18 1257.89 1542.04 Q1257.89 1537.01 1261.46 1534.27 Q1265.02 1531.54 1271.58 1531.54 Q1274.83 1531.54 1277.69 1532.01 Q1280.56 1532.49 1282.97 1533.45 Z"
     fill="#000000"
     fill-rule="nonzero"
     fill-opacity="1"
     id="path6878" />
  <path
     clip-path="url(#clip580)"
     d="M1316.94 1533.45 L1316.94 1538.98 Q1314.45 1537.71 1311.78 1537.07 Q1309.11 1536.44 1306.24 1536.44 Q1301.88 1536.44 1299.68 1537.77 Q1297.52 1539.11 1297.52 1541.79 Q1297.52 1543.82 1299.08 1545 Q1300.64 1546.15 1305.35 1547.2 L1307.36 1547.64 Q1313.59 1548.98 1316.2 1551.43 Q1318.85 1553.85 1318.85 1558.21 Q1318.85 1563.17 1314.9 1566.07 Q1310.98 1568.97 1304.11 1568.97 Q1301.24 1568.97 1298.13 1568.39 Q1295.04 1567.85 1291.6 1566.74 L1291.6 1560.69 Q1294.85 1562.38 1298 1563.24 Q1301.15 1564.07 1304.24 1564.07 Q1308.37 1564.07 1310.6 1562.66 Q1312.83 1561.23 1312.83 1558.65 Q1312.83 1556.27 1311.21 1554.99 Q1309.62 1553.72 1304.17 1552.54 L1302.14 1552.07 Q1296.69 1550.92 1294.27 1548.56 Q1291.86 1546.18 1291.86 1542.04 Q1291.86 1537.01 1295.42 1534.27 Q1298.98 1531.54 1305.54 1531.54 Q1308.79 1531.54 1311.65 1532.01 Q1314.52 1532.49 1316.94 1533.45 Z"
     fill="#000000"
     fill-rule="nonzero"
     fill-opacity="1"
     id="path6880" />
  <path
     clip-path="url(#clip580)"
     d="M1328.17 1532.4 L1334.03 1532.4 L1334.03 1568.04 L1328.17 1568.04 L1328.17 1532.4 M1328.17 1518.52 L1334.03 1518.52 L1334.03 1525.93 L1328.17 1525.93 L1328.17 1518.52 Z"
     fill="#000000"
     fill-rule="nonzero"
     fill-opacity="1"
     id="path6882" />
  <path
     clip-path="url(#clip580)"
     d="M1364.33 1518.52 L1364.33 1523.39 L1358.73 1523.39 Q1355.58 1523.39 1354.33 1524.66 Q1353.12 1525.93 1353.12 1529.24 L1353.12 1532.4 L1362.77 1532.4 L1362.77 1536.95 L1353.12 1536.95 L1353.12 1568.04 L1347.24 1568.04 L1347.24 1536.95 L1341.63 1536.95 L1341.63 1532.4 L1347.24 1532.4 L1347.24 1529.91 Q1347.24 1523.96 1350.01 1521.26 Q1352.77 1518.52 1358.79 1518.52 L1364.33 1518.52 Z"
     fill="#000000"
     fill-rule="nonzero"
     fill-opacity="1"
     id="path6884" />
  <path
     clip-path="url(#clip580)"
     d="M1369.23 1532.4 L1375.09 1532.4 L1375.09 1568.04 L1369.23 1568.04 L1369.23 1532.4 M1369.23 1518.52 L1375.09 1518.52 L1375.09 1525.93 L1369.23 1525.93 L1369.23 1518.52 Z"
     fill="#000000"
     fill-rule="nonzero"
     fill-opacity="1"
     id="path6886" />
  <path
     clip-path="url(#clip580)"
     d="M1417.83 1548.76 L1417.83 1551.62 L1390.91 1551.62 Q1391.29 1557.67 1394.53 1560.85 Q1397.81 1564 1403.64 1564 Q1407.01 1564 1410.16 1563.17 Q1413.34 1562.35 1416.46 1560.69 L1416.46 1566.23 Q1413.31 1567.57 1410 1568.27 Q1406.69 1568.97 1403.29 1568.97 Q1394.76 1568.97 1389.76 1564 Q1384.79 1559.04 1384.79 1550.57 Q1384.79 1541.82 1389.5 1536.69 Q1394.25 1531.54 1402.27 1531.54 Q1409.46 1531.54 1413.63 1536.18 Q1417.83 1540.8 1417.83 1548.76 M1411.98 1547.04 Q1411.91 1542.23 1409.27 1539.37 Q1406.66 1536.5 1402.33 1536.5 Q1397.43 1536.5 1394.47 1539.27 Q1391.54 1542.04 1391.1 1547.07 L1411.98 1547.04 Z"
     fill="#000000"
     fill-rule="nonzero"
     fill-opacity="1"
     id="path6888" />
  <path
     clip-path="url(#clip580)"
     d="M1448.1 1537.87 Q1447.11 1537.3 1445.94 1537.04 Q1444.79 1536.76 1443.39 1536.76 Q1438.43 1536.76 1435.75 1540 Q1433.11 1543.22 1433.11 1549.27 L1433.11 1568.04 L1427.22 1568.04 L1427.22 1532.4 L1433.11 1532.4 L1433.11 1537.93 Q1434.96 1534.69 1437.92 1533.13 Q1440.88 1531.54 1445.11 1531.54 Q1445.71 1531.54 1446.45 1531.63 Q1447.18 1531.7 1448.07 1531.85 L1448.1 1537.87 Z"
     fill="#000000"
     fill-rule="nonzero"
     fill-opacity="1"
     id="path6890" />
  <polyline
     clip-path="url(#clip580)"
     style="stroke:#000000; stroke-linecap:round; stroke-linejoin:round; stroke-width:4; stroke-opacity:1; fill:none"
     points="249.542,1423.18 249.542,123.472 "
     id="polyline6892" />
  <polyline
     clip-path="url(#clip580)"
     style="stroke:#000000; stroke-linecap:round; stroke-linejoin:round; stroke-width:4; stroke-opacity:1; fill:none"
     points="249.542,1423.18 268.44,1423.18 "
     id="polyline6894" />
  <polyline
     clip-path="url(#clip580)"
     style="stroke:#000000; stroke-linecap:round; stroke-linejoin:round; stroke-width:4; stroke-opacity:1; fill:none"
     points="249.542,1140.63 268.44,1140.63 "
     id="polyline6896" />
  <polyline
     clip-path="url(#clip580)"
     style="stroke:#000000; stroke-linecap:round; stroke-linejoin:round; stroke-width:4; stroke-opacity:1; fill:none"
     points="249.542,858.09 268.44,858.09 "
     id="polyline6898" />
  <polyline
     clip-path="url(#clip580)"
     style="stroke:#000000; stroke-linecap:round; stroke-linejoin:round; stroke-width:4; stroke-opacity:1; fill:none"
     points="249.542,575.544 268.44,575.544 "
     id="polyline6900" />
  <polyline
     clip-path="url(#clip580)"
     style="stroke:#000000; stroke-linecap:round; stroke-linejoin:round; stroke-width:4; stroke-opacity:1; fill:none"
     points="249.542,292.999 268.44,292.999 "
     id="polyline6902" />
  <path
     clip-path="url(#clip580)"
     d="M126.205 1408.98 Q122.593 1408.98 120.765 1412.54 Q118.959 1416.08 118.959 1423.21 Q118.959 1430.32 120.765 1433.89 Q122.593 1437.43 126.205 1437.43 Q129.839 1437.43 131.644 1433.89 Q133.473 1430.32 133.473 1423.21 Q133.473 1416.08 131.644 1412.54 Q129.839 1408.98 126.205 1408.98 M126.205 1405.27 Q132.015 1405.27 135.07 1409.88 Q138.149 1414.46 138.149 1423.21 Q138.149 1431.94 135.07 1436.55 Q132.015 1441.13 126.205 1441.13 Q120.394 1441.13 117.316 1436.55 Q114.26 1431.94 114.26 1423.21 Q114.26 1414.46 117.316 1409.88 Q120.394 1405.27 126.205 1405.27 Z"
     fill="#000000"
     fill-rule="nonzero"
     fill-opacity="1"
     id="path6904" />
  <path
     clip-path="url(#clip580)"
     d="M146.366 1434.58 L151.251 1434.58 L151.251 1440.46 L146.366 1440.46 L146.366 1434.58 Z"
     fill="#000000"
     fill-rule="nonzero"
     fill-opacity="1"
     id="path6906" />
  <path
     clip-path="url(#clip580)"
     d="M160.255 1405.9 L182.477 1405.9 L182.477 1407.89 L169.931 1440.46 L165.047 1440.46 L176.852 1409.84 L160.255 1409.84 L160.255 1405.9 Z"
     fill="#000000"
     fill-rule="nonzero"
     fill-opacity="1"
     id="path6908" />
  <path
     clip-path="url(#clip580)"
     d="M201.598 1408.98 Q197.987 1408.98 196.158 1412.54 Q194.352 1416.08 194.352 1423.21 Q194.352 1430.32 196.158 1433.89 Q197.987 1437.43 201.598 1437.43 Q205.232 1437.43 207.037 1433.89 Q208.866 1430.32 208.866 1423.21 Q208.866 1416.08 207.037 1412.54 Q205.232 1408.98 201.598 1408.98 M201.598 1405.27 Q207.408 1405.27 210.463 1409.88 Q213.542 1414.46 213.542 1423.21 Q213.542 1431.94 210.463 1436.55 Q207.408 1441.13 201.598 1441.13 Q195.787 1441.13 192.709 1436.55 Q189.653 1431.94 189.653 1423.21 Q189.653 1414.46 192.709 1409.88 Q195.787 1405.27 201.598 1405.27 Z"
     fill="#000000"
     fill-rule="nonzero"
     fill-opacity="1"
     id="path6910" />
  <path
     clip-path="url(#clip580)"
     d="M127.2 1126.43 Q123.589 1126.43 121.76 1130 Q119.955 1133.54 119.955 1140.67 Q119.955 1147.78 121.76 1151.34 Q123.589 1154.88 127.2 1154.88 Q130.834 1154.88 132.64 1151.34 Q134.468 1147.78 134.468 1140.67 Q134.468 1133.54 132.64 1130 Q130.834 1126.43 127.2 1126.43 M127.2 1122.73 Q133.01 1122.73 136.066 1127.34 Q139.144 1131.92 139.144 1140.67 Q139.144 1149.4 136.066 1154 Q133.01 1158.59 127.2 1158.59 Q121.39 1158.59 118.311 1154 Q115.256 1149.4 115.256 1140.67 Q115.256 1131.92 118.311 1127.34 Q121.39 1122.73 127.2 1122.73 Z"
     fill="#000000"
     fill-rule="nonzero"
     fill-opacity="1"
     id="path6912" />
  <path
     clip-path="url(#clip580)"
     d="M147.362 1152.04 L152.246 1152.04 L152.246 1157.91 L147.362 1157.91 L147.362 1152.04 Z"
     fill="#000000"
     fill-rule="nonzero"
     fill-opacity="1"
     id="path6914" />
  <path
     clip-path="url(#clip580)"
     d="M161.251 1123.35 L183.473 1123.35 L183.473 1125.35 L170.927 1157.91 L166.042 1157.91 L177.848 1127.29 L161.251 1127.29 L161.251 1123.35 Z"
     fill="#000000"
     fill-rule="nonzero"
     fill-opacity="1"
     id="path6916" />
  <path
     clip-path="url(#clip580)"
     d="M192.639 1123.35 L210.996 1123.35 L210.996 1127.29 L196.922 1127.29 L196.922 1135.76 Q197.94 1135.41 198.959 1135.25 Q199.977 1135.07 200.996 1135.07 Q206.783 1135.07 210.162 1138.24 Q213.542 1141.41 213.542 1146.83 Q213.542 1152.41 210.07 1155.51 Q206.598 1158.59 200.278 1158.59 Q198.102 1158.59 195.834 1158.22 Q193.588 1157.85 191.181 1157.1 L191.181 1152.41 Q193.264 1153.54 195.487 1154.1 Q197.709 1154.65 200.186 1154.65 Q204.19 1154.65 206.528 1152.54 Q208.866 1150.44 208.866 1146.83 Q208.866 1143.22 206.528 1141.11 Q204.19 1139 200.186 1139 Q198.311 1139 196.436 1139.42 Q194.584 1139.84 192.639 1140.72 L192.639 1123.35 Z"
     fill="#000000"
     fill-rule="nonzero"
     fill-opacity="1"
     id="path6918" />
  <path
     clip-path="url(#clip580)"
     d="M126.205 843.888 Q122.593 843.888 120.765 847.453 Q118.959 850.995 118.959 858.124 Q118.959 865.231 120.765 868.795 Q122.593 872.337 126.205 872.337 Q129.839 872.337 131.644 868.795 Q133.473 865.231 133.473 858.124 Q133.473 850.995 131.644 847.453 Q129.839 843.888 126.205 843.888 M126.205 840.185 Q132.015 840.185 135.07 844.791 Q138.149 849.374 138.149 858.124 Q138.149 866.851 135.07 871.458 Q132.015 876.041 126.205 876.041 Q120.394 876.041 117.316 871.458 Q114.26 866.851 114.26 858.124 Q114.26 849.374 117.316 844.791 Q120.394 840.185 126.205 840.185 Z"
     fill="#000000"
     fill-rule="nonzero"
     fill-opacity="1"
     id="path6920" />
  <path
     clip-path="url(#clip580)"
     d="M146.366 869.49 L151.251 869.49 L151.251 875.37 L146.366 875.37 L146.366 869.49 Z"
     fill="#000000"
     fill-rule="nonzero"
     fill-opacity="1"
     id="path6922" />
  <path
     clip-path="url(#clip580)"
     d="M171.436 858.958 Q168.102 858.958 166.181 860.74 Q164.283 862.522 164.283 865.647 Q164.283 868.772 166.181 870.555 Q168.102 872.337 171.436 872.337 Q174.769 872.337 176.69 870.555 Q178.612 868.749 178.612 865.647 Q178.612 862.522 176.69 860.74 Q174.792 858.958 171.436 858.958 M166.76 856.967 Q163.751 856.226 162.061 854.166 Q160.394 852.106 160.394 849.143 Q160.394 844.999 163.334 842.592 Q166.297 840.185 171.436 840.185 Q176.598 840.185 179.538 842.592 Q182.477 844.999 182.477 849.143 Q182.477 852.106 180.788 854.166 Q179.121 856.226 176.135 856.967 Q179.514 857.754 181.389 860.046 Q183.288 862.337 183.288 865.647 Q183.288 870.67 180.209 873.356 Q177.153 876.041 171.436 876.041 Q165.718 876.041 162.64 873.356 Q159.584 870.67 159.584 865.647 Q159.584 862.337 161.482 860.046 Q163.38 857.754 166.76 856.967 M165.047 849.583 Q165.047 852.268 166.714 853.772 Q168.403 855.277 171.436 855.277 Q174.445 855.277 176.135 853.772 Q177.848 852.268 177.848 849.583 Q177.848 846.897 176.135 845.393 Q174.445 843.888 171.436 843.888 Q168.403 843.888 166.714 845.393 Q165.047 846.897 165.047 849.583 Z"
     fill="#000000"
     fill-rule="nonzero"
     fill-opacity="1"
     id="path6924" />
  <path
     clip-path="url(#clip580)"
     d="M201.598 843.888 Q197.987 843.888 196.158 847.453 Q194.352 850.995 194.352 858.124 Q194.352 865.231 196.158 868.795 Q197.987 872.337 201.598 872.337 Q205.232 872.337 207.037 868.795 Q208.866 865.231 208.866 858.124 Q208.866 850.995 207.037 847.453 Q205.232 843.888 201.598 843.888 M201.598 840.185 Q207.408 840.185 210.463 844.791 Q213.542 849.374 213.542 858.124 Q213.542 866.851 210.463 871.458 Q207.408 876.041 201.598 876.041 Q195.787 876.041 192.709 871.458 Q189.653 866.851 189.653 858.124 Q189.653 849.374 192.709 844.791 Q195.787 840.185 201.598 840.185 Z"
     fill="#000000"
     fill-rule="nonzero"
     fill-opacity="1"
     id="path6926" />
  <path
     clip-path="url(#clip580)"
     d="M127.2 561.343 Q123.589 561.343 121.76 564.908 Q119.955 568.45 119.955 575.579 Q119.955 582.686 121.76 586.25 Q123.589 589.792 127.2 589.792 Q130.834 589.792 132.64 586.25 Q134.468 582.686 134.468 575.579 Q134.468 568.45 132.64 564.908 Q130.834 561.343 127.2 561.343 M127.2 557.639 Q133.01 557.639 136.066 562.246 Q139.144 566.829 139.144 575.579 Q139.144 584.306 136.066 588.912 Q133.01 593.496 127.2 593.496 Q121.39 593.496 118.311 588.912 Q115.256 584.306 115.256 575.579 Q115.256 566.829 118.311 562.246 Q121.39 557.639 127.2 557.639 Z"
     fill="#000000"
     fill-rule="nonzero"
     fill-opacity="1"
     id="path6928" />
  <path
     clip-path="url(#clip580)"
     d="M147.362 586.945 L152.246 586.945 L152.246 592.824 L147.362 592.824 L147.362 586.945 Z"
     fill="#000000"
     fill-rule="nonzero"
     fill-opacity="1"
     id="path6930" />
  <path
     clip-path="url(#clip580)"
     d="M172.431 576.412 Q169.098 576.412 167.177 578.195 Q165.278 579.977 165.278 583.102 Q165.278 586.227 167.177 588.01 Q169.098 589.792 172.431 589.792 Q175.764 589.792 177.686 588.01 Q179.607 586.204 179.607 583.102 Q179.607 579.977 177.686 578.195 Q175.788 576.412 172.431 576.412 M167.755 574.422 Q164.746 573.681 163.056 571.621 Q161.39 569.561 161.39 566.598 Q161.39 562.454 164.329 560.047 Q167.292 557.639 172.431 557.639 Q177.593 557.639 180.533 560.047 Q183.473 562.454 183.473 566.598 Q183.473 569.561 181.783 571.621 Q180.116 573.681 177.13 574.422 Q180.51 575.209 182.385 577.5 Q184.283 579.792 184.283 583.102 Q184.283 588.125 181.204 590.81 Q178.149 593.496 172.431 593.496 Q166.714 593.496 163.635 590.81 Q160.579 588.125 160.579 583.102 Q160.579 579.792 162.477 577.5 Q164.376 575.209 167.755 574.422 M166.042 567.037 Q166.042 569.723 167.709 571.227 Q169.399 572.732 172.431 572.732 Q175.44 572.732 177.13 571.227 Q178.843 569.723 178.843 567.037 Q178.843 564.352 177.13 562.848 Q175.44 561.343 172.431 561.343 Q169.399 561.343 167.709 562.848 Q166.042 564.352 166.042 567.037 Z"
     fill="#000000"
     fill-rule="nonzero"
     fill-opacity="1"
     id="path6932" />
  <path
     clip-path="url(#clip580)"
     d="M192.639 558.264 L210.996 558.264 L210.996 562.2 L196.922 562.2 L196.922 570.672 Q197.94 570.324 198.959 570.162 Q199.977 569.977 200.996 569.977 Q206.783 569.977 210.162 573.149 Q213.542 576.32 213.542 581.736 Q213.542 587.315 210.07 590.417 Q206.598 593.496 200.278 593.496 Q198.102 593.496 195.834 593.125 Q193.588 592.755 191.181 592.014 L191.181 587.315 Q193.264 588.449 195.487 589.005 Q197.709 589.561 200.186 589.561 Q204.19 589.561 206.528 587.454 Q208.866 585.348 208.866 581.736 Q208.866 578.125 206.528 576.019 Q204.19 573.912 200.186 573.912 Q198.311 573.912 196.436 574.329 Q194.584 574.746 192.639 575.625 L192.639 558.264 Z"
     fill="#000000"
     fill-rule="nonzero"
     fill-opacity="1"
     id="path6934" />
  <path
     clip-path="url(#clip580)"
     d="M126.205 278.798 Q122.593 278.798 120.765 282.363 Q118.959 285.904 118.959 293.034 Q118.959 300.14 120.765 303.705 Q122.593 307.247 126.205 307.247 Q129.839 307.247 131.644 303.705 Q133.473 300.14 133.473 293.034 Q133.473 285.904 131.644 282.363 Q129.839 278.798 126.205 278.798 M126.205 275.094 Q132.015 275.094 135.07 279.701 Q138.149 284.284 138.149 293.034 Q138.149 301.761 135.07 306.367 Q132.015 310.951 126.205 310.951 Q120.394 310.951 117.316 306.367 Q114.26 301.761 114.26 293.034 Q114.26 284.284 117.316 279.701 Q120.394 275.094 126.205 275.094 Z"
     fill="#000000"
     fill-rule="nonzero"
     fill-opacity="1"
     id="path6936" />
  <path
     clip-path="url(#clip580)"
     d="M146.366 304.4 L151.251 304.4 L151.251 310.279 L146.366 310.279 L146.366 304.4 Z"
     fill="#000000"
     fill-rule="nonzero"
     fill-opacity="1"
     id="path6938" />
  <path
     clip-path="url(#clip580)"
     d="M161.575 309.562 L161.575 305.302 Q163.334 306.136 165.14 306.576 Q166.945 307.015 168.681 307.015 Q173.311 307.015 175.741 303.914 Q178.195 300.789 178.542 294.446 Q177.2 296.437 175.139 297.502 Q173.079 298.566 170.579 298.566 Q165.394 298.566 162.362 295.441 Q159.353 292.293 159.353 286.853 Q159.353 281.529 162.501 278.312 Q165.649 275.094 170.88 275.094 Q176.876 275.094 180.024 279.701 Q183.195 284.284 183.195 293.034 Q183.195 301.205 179.306 306.089 Q175.44 310.951 168.889 310.951 Q167.13 310.951 165.325 310.603 Q163.519 310.256 161.575 309.562 M170.88 294.909 Q174.028 294.909 175.857 292.756 Q177.709 290.603 177.709 286.853 Q177.709 283.127 175.857 280.974 Q174.028 278.798 170.88 278.798 Q167.732 278.798 165.88 280.974 Q164.052 283.127 164.052 286.853 Q164.052 290.603 165.88 292.756 Q167.732 294.909 170.88 294.909 Z"
     fill="#000000"
     fill-rule="nonzero"
     fill-opacity="1"
     id="path6940" />
  <path
     clip-path="url(#clip580)"
     d="M201.598 278.798 Q197.987 278.798 196.158 282.363 Q194.352 285.904 194.352 293.034 Q194.352 300.14 196.158 303.705 Q197.987 307.247 201.598 307.247 Q205.232 307.247 207.037 303.705 Q208.866 300.14 208.866 293.034 Q208.866 285.904 207.037 282.363 Q205.232 278.798 201.598 278.798 M201.598 275.094 Q207.408 275.094 210.463 279.701 Q213.542 284.284 213.542 293.034 Q213.542 301.761 210.463 306.367 Q207.408 310.951 201.598 310.951 Q195.787 310.951 192.709 306.367 Q189.653 301.761 189.653 293.034 Q189.653 284.284 192.709 279.701 Q195.787 275.094 201.598 275.094 Z"
     fill="#000000"
     fill-rule="nonzero"
     fill-opacity="1"
     id="path6942" />
  <path
     clip-path="url(#clip580)"
     d="M38.3822 1127.21 Q39.3689 1122.6 42.4881 1120.02 Q45.6073 1117.41 50.1906 1117.41 Q57.2247 1117.41 61.0759 1122.25 Q64.9272 1127.08 64.9272 1136 Q64.9272 1138.99 64.3224 1142.17 Q63.7495 1145.32 62.5719 1148.7 L56.3653 1148.7 Q57.9249 1146.02 58.7206 1142.84 Q59.5163 1139.66 59.5163 1136.19 Q59.5163 1130.14 57.1292 1126.99 Q54.7421 1123.81 50.1906 1123.81 Q45.9892 1123.81 43.6339 1126.77 Q41.2468 1129.69 41.2468 1134.95 L41.2468 1140.48 L35.9632 1140.48 L35.9632 1134.69 Q35.9632 1129.95 34.0853 1127.43 Q32.1756 1124.92 28.6108 1124.92 Q24.9505 1124.92 23.009 1127.53 Q21.0356 1130.11 21.0356 1134.95 Q21.0356 1137.59 21.6086 1140.61 Q22.1815 1143.64 23.3909 1147.26 L17.6618 1147.26 Q16.6433 1143.6 16.134 1140.42 Q15.6248 1137.21 15.6248 1134.37 Q15.6248 1127.05 18.9668 1122.79 Q22.277 1118.52 27.9424 1118.52 Q31.8892 1118.52 34.6264 1120.78 Q37.3318 1123.04 38.3822 1127.21 Z"
     fill="#000000"
     fill-rule="nonzero"
     fill-opacity="1"
     id="path6944" />
  <path
     clip-path="url(#clip580)"
     d="M20.7174 1091.47 Q20.7174 1096.43 25.6189 1098.95 Q30.4887 1101.43 40.2919 1101.43 Q50.0633 1101.43 54.9649 1098.95 Q59.8346 1096.43 59.8346 1091.47 Q59.8346 1086.47 54.9649 1083.99 Q50.0633 1081.47 40.2919 1081.47 Q30.4887 1081.47 25.6189 1083.99 Q20.7174 1086.47 20.7174 1091.47 M15.6248 1091.47 Q15.6248 1083.48 21.9587 1079.28 Q28.2607 1075.04 40.2919 1075.04 Q52.2913 1075.04 58.6251 1079.28 Q64.9272 1083.48 64.9272 1091.47 Q64.9272 1099.46 58.6251 1103.69 Q52.2913 1107.89 40.2919 1107.89 Q28.2607 1107.89 21.9587 1103.69 Q15.6248 1099.46 15.6248 1091.47 Z"
     fill="#000000"
     fill-rule="nonzero"
     fill-opacity="1"
     id="path6946" />
  <path
     clip-path="url(#clip580)"
     d="M43.5384 1067.53 L43.5384 1050.38 L48.7583 1050.38 L48.7583 1067.53 L43.5384 1067.53 Z"
     fill="#000000"
     fill-rule="nonzero"
     fill-opacity="1"
     id="path6948" />
  <path
     clip-path="url(#clip580)"
     d="M16.4842 1040.8 L16.4842 1013.49 L21.895 1013.49 L21.895 1034.37 L35.8996 1034.37 L35.8996 1015.53 L41.3104 1015.53 L41.3104 1034.37 L64.0042 1034.37 L64.0042 1040.8 L16.4842 1040.8 Z"
     fill="#000000"
     fill-rule="nonzero"
     fill-opacity="1"
     id="path6950" />
  <path
     clip-path="url(#clip580)"
     d="M32.4621 992.068 Q32.4621 996.778 36.1542 999.515 Q39.8145 1002.25 46.212 1002.25 Q52.6095 1002.25 56.3017 999.547 Q59.9619 996.81 59.9619 992.068 Q59.9619 987.389 56.2698 984.652 Q52.5777 981.914 46.212 981.914 Q39.8781 981.914 36.186 984.652 Q32.4621 987.389 32.4621 992.068 M27.4968 992.068 Q27.4968 984.429 32.4621 980.068 Q37.4273 975.708 46.212 975.708 Q54.9649 975.708 59.9619 980.068 Q64.9272 984.429 64.9272 992.068 Q64.9272 999.738 59.9619 1004.1 Q54.9649 1008.43 46.212 1008.43 Q37.4273 1008.43 32.4621 1004.1 Q27.4968 999.738 27.4968 992.068 Z"
     fill="#000000"
     fill-rule="nonzero"
     fill-opacity="1"
     id="path6952" />
  <path
     clip-path="url(#clip580)"
     d="M14.479 966 L14.479 960.144 L64.0042 960.144 L64.0042 966 L14.479 966 Z"
     fill="#000000"
     fill-rule="nonzero"
     fill-opacity="1"
     id="path6954" />
  <path
     clip-path="url(#clip580)"
     d="M33.7671 924.432 L14.479 924.432 L14.479 918.575 L64.0042 918.575 L64.0042 924.432 L58.657 924.432 Q61.8398 926.278 63.3994 929.111 Q64.9272 931.912 64.9272 935.858 Q64.9272 942.32 59.771 946.394 Q54.6147 950.436 46.212 950.436 Q37.8093 950.436 32.6531 946.394 Q27.4968 942.32 27.4968 935.858 Q27.4968 931.912 29.0564 929.111 Q30.5842 926.278 33.7671 924.432 M46.212 944.388 Q52.6732 944.388 56.3653 941.747 Q60.0256 939.073 60.0256 934.426 Q60.0256 929.779 56.3653 927.106 Q52.6732 924.432 46.212 924.432 Q39.7508 924.432 36.0905 927.106 Q32.3984 929.779 32.3984 934.426 Q32.3984 939.073 36.0905 941.747 Q39.7508 944.388 46.212 944.388 Z"
     fill="#000000"
     fill-rule="nonzero"
     fill-opacity="1"
     id="path6956" />
  <path
     clip-path="url(#clip580)"
     d="M16.4842 885.537 L16.4842 875.957 L48.8219 863.83 L16.4842 851.64 L16.4842 842.06 L64.0042 842.06 L64.0042 848.33 L22.277 848.33 L54.8694 860.584 L54.8694 867.045 L22.277 879.299 L64.0042 879.299 L64.0042 885.537 L16.4842 885.537 Z"
     fill="#000000"
     fill-rule="nonzero"
     fill-opacity="1"
     id="path6958" />
  <path
     clip-path="url(#clip580)"
     d="M44.7161 799.059 L47.5806 799.059 L47.5806 825.986 Q53.6281 825.604 56.8109 822.358 Q59.9619 819.08 59.9619 813.255 Q59.9619 809.881 59.1344 806.73 Q58.3069 803.547 56.6518 800.428 L62.1899 800.428 Q63.5267 803.579 64.227 806.889 Q64.9272 810.199 64.9272 813.605 Q64.9272 822.135 59.9619 827.132 Q54.9967 832.097 46.5303 832.097 Q37.7774 832.097 32.6531 827.387 Q27.4968 822.644 27.4968 814.624 Q27.4968 807.43 32.1438 803.261 Q36.7589 799.059 44.7161 799.059 M42.9973 804.916 Q38.1912 804.979 35.3266 807.621 Q32.4621 810.231 32.4621 814.56 Q32.4621 819.461 35.2312 822.421 Q38.0002 825.35 43.0292 825.795 L42.9973 804.916 Z"
     fill="#000000"
     fill-rule="nonzero"
     fill-opacity="1"
     id="path6960" />
  <path
     clip-path="url(#clip580)"
     d="M46.0847 773.246 Q46.0847 780.344 47.7079 783.081 Q49.3312 785.819 53.2461 785.819 Q56.3653 785.819 58.2114 783.782 Q60.0256 781.713 60.0256 778.18 Q60.0256 773.31 56.5881 770.382 Q53.1188 767.422 47.3897 767.422 L46.0847 767.422 L46.0847 773.246 M43.6657 761.565 L64.0042 761.565 L64.0042 767.422 L58.5933 767.422 Q61.8398 769.427 63.3994 772.419 Q64.9272 775.411 64.9272 779.739 Q64.9272 785.214 61.8716 788.46 Q58.7843 791.675 53.6281 791.675 Q47.6125 791.675 44.5569 787.665 Q41.5014 783.623 41.5014 775.634 L41.5014 767.422 L40.9285 767.422 Q36.8862 767.422 34.6901 770.095 Q32.4621 772.737 32.4621 777.543 Q32.4621 780.599 33.1941 783.495 Q33.9262 786.392 35.3903 789.065 L29.9795 789.065 Q28.7381 785.851 28.1334 782.827 Q27.4968 779.803 27.4968 776.939 Q27.4968 769.204 31.5072 765.385 Q35.5176 761.565 43.6657 761.565 Z"
     fill="#000000"
     fill-rule="nonzero"
     fill-opacity="1"
     id="path6962" />
  <path
     clip-path="url(#clip580)"
     d="M42.4881 719.87 L64.0042 719.87 L64.0042 725.726 L42.679 725.726 Q37.6183 725.726 35.1038 727.7 Q32.5894 729.673 32.5894 733.62 Q32.5894 738.362 35.6131 741.1 Q38.6368 743.837 43.8567 743.837 L64.0042 743.837 L64.0042 749.725 L28.3562 749.725 L28.3562 743.837 L33.8944 743.837 Q30.6797 741.736 29.0883 738.903 Q27.4968 736.039 27.4968 732.315 Q27.4968 726.172 31.3163 723.021 Q35.1038 719.87 42.4881 719.87 Z"
     fill="#000000"
     fill-rule="nonzero"
     fill-opacity="1"
     id="path6964" />
  <path
     clip-path="url(#clip580)"
     d="M22.818 671.331 L46.4666 680.052 L46.4666 662.579 L22.818 671.331 M16.4842 674.96 L16.4842 667.671 L64.0042 649.561 L64.0042 656.245 L51.8138 660.573 L51.8138 681.994 L64.0042 686.323 L64.0042 693.102 L16.4842 674.96 Z"
     fill="#000000"
     fill-rule="nonzero"
     fill-opacity="1"
     id="path6966" />
  <path
     clip-path="url(#clip580)"
     d="M29.7248 618.369 L35.1993 618.369 Q33.8307 620.851 33.1623 623.366 Q32.4621 625.848 32.4621 628.395 Q32.4621 634.092 36.0905 637.243 Q39.6872 640.394 46.212 640.394 Q52.7369 640.394 56.3653 637.243 Q59.9619 634.092 59.9619 628.395 Q59.9619 625.848 59.2935 623.366 Q58.5933 620.851 57.2247 618.369 L62.6355 618.369 Q63.7814 620.82 64.3543 623.461 Q64.9272 626.071 64.9272 629.031 Q64.9272 637.084 59.8664 641.826 Q54.8057 646.569 46.212 646.569 Q37.491 646.569 32.4939 641.795 Q27.4968 636.988 27.4968 628.649 Q27.4968 625.944 28.0697 623.366 Q28.6108 620.788 29.7248 618.369 Z"
     fill="#000000"
     fill-rule="nonzero"
     fill-opacity="1"
     id="path6968" />
  <path
     clip-path="url(#clip580)"
     d="M29.7248 582.53 L35.1993 582.53 Q33.8307 585.012 33.1623 587.527 Q32.4621 590.01 32.4621 592.556 Q32.4621 598.253 36.0905 601.404 Q39.6872 604.555 46.212 604.555 Q52.7369 604.555 56.3653 601.404 Q59.9619 598.253 59.9619 592.556 Q59.9619 590.01 59.2935 587.527 Q58.5933 585.012 57.2247 582.53 L62.6355 582.53 Q63.7814 584.981 64.3543 587.622 Q64.9272 590.232 64.9272 593.192 Q64.9272 601.245 59.8664 605.987 Q54.8057 610.73 46.212 610.73 Q37.491 610.73 32.4939 605.956 Q27.4968 601.15 27.4968 592.81 Q27.4968 590.105 28.0697 587.527 Q28.6108 584.949 29.7248 582.53 Z"
     fill="#000000"
     fill-rule="nonzero"
     fill-opacity="1"
     id="path6970" />
  <path
     clip-path="url(#clip580)"
     d="M49.9359 572.949 L28.3562 572.949 L28.3562 567.093 L49.7131 567.093 Q54.7739 567.093 57.3202 565.12 Q59.8346 563.146 59.8346 559.2 Q59.8346 554.457 56.8109 551.72 Q53.7872 548.951 48.5673 548.951 L28.3562 548.951 L28.3562 543.094 L64.0042 543.094 L64.0042 548.951 L58.5296 548.951 Q61.7762 551.083 63.3676 553.916 Q64.9272 556.717 64.9272 560.441 Q64.9272 566.584 61.1078 569.767 Q57.2883 572.949 49.9359 572.949 M27.4968 558.213 L27.4968 558.213 Z"
     fill="#000000"
     fill-rule="nonzero"
     fill-opacity="1"
     id="path6972" />
  <path
     clip-path="url(#clip580)"
     d="M33.8307 510.375 Q33.2578 511.361 33.0032 512.539 Q32.7167 513.685 32.7167 515.085 Q32.7167 520.05 35.9632 522.724 Q39.1779 525.366 45.2253 525.366 L64.0042 525.366 L64.0042 531.254 L28.3562 531.254 L28.3562 525.366 L33.8944 525.366 Q30.6479 523.52 29.0883 520.56 Q27.4968 517.6 27.4968 513.366 Q27.4968 512.762 27.5923 512.03 Q27.656 511.298 27.8151 510.406 L33.8307 510.375 Z"
     fill="#000000"
     fill-rule="nonzero"
     fill-opacity="1"
     id="path6974" />
  <path
     clip-path="url(#clip580)"
     d="M46.0847 488.031 Q46.0847 495.129 47.7079 497.866 Q49.3312 500.603 53.2461 500.603 Q56.3653 500.603 58.2114 498.566 Q60.0256 496.497 60.0256 492.964 Q60.0256 488.095 56.5881 485.166 Q53.1188 482.206 47.3897 482.206 L46.0847 482.206 L46.0847 488.031 M43.6657 476.35 L64.0042 476.35 L64.0042 482.206 L58.5933 482.206 Q61.8398 484.212 63.3994 487.203 Q64.9272 490.195 64.9272 494.524 Q64.9272 499.998 61.8716 503.245 Q58.7843 506.46 53.6281 506.46 Q47.6125 506.46 44.5569 502.449 Q41.5014 498.407 41.5014 490.418 L41.5014 482.206 L40.9285 482.206 Q36.8862 482.206 34.6901 484.88 Q32.4621 487.522 32.4621 492.328 Q32.4621 495.383 33.1941 498.28 Q33.9262 501.176 35.3903 503.85 L29.9795 503.85 Q28.7381 500.635 28.1334 497.611 Q27.4968 494.588 27.4968 491.723 Q27.4968 483.989 31.5072 480.169 Q35.5176 476.35 43.6657 476.35 Z"
     fill="#000000"
     fill-rule="nonzero"
     fill-opacity="1"
     id="path6976" />
  <path
     clip-path="url(#clip580)"
     d="M29.7248 438.633 L35.1993 438.633 Q33.8307 441.116 33.1623 443.63 Q32.4621 446.113 32.4621 448.659 Q32.4621 454.356 36.0905 457.507 Q39.6872 460.658 46.212 460.658 Q52.7369 460.658 56.3653 457.507 Q59.9619 454.356 59.9619 448.659 Q59.9619 446.113 59.2935 443.63 Q58.5933 441.116 57.2247 438.633 L62.6355 438.633 Q63.7814 441.084 64.3543 443.726 Q64.9272 446.336 64.9272 449.296 Q64.9272 457.348 59.8664 462.091 Q54.8057 466.833 46.212 466.833 Q37.491 466.833 32.4939 462.059 Q27.4968 457.253 27.4968 448.914 Q27.4968 446.208 28.0697 443.63 Q28.6108 441.052 29.7248 438.633 Z"
     fill="#000000"
     fill-rule="nonzero"
     fill-opacity="1"
     id="path6978" />
  <path
     clip-path="url(#clip580)"
     d="M67.3143 413.616 Q73.68 416.098 75.6216 418.454 Q77.5631 420.809 77.5631 424.756 L77.5631 429.435 L72.6615 429.435 L72.6615 425.997 Q72.6615 423.578 71.5157 422.241 Q70.3699 420.905 66.1048 419.281 L63.4312 418.231 L28.3562 432.649 L28.3562 426.443 L56.238 415.303 L28.3562 404.163 L28.3562 397.956 L67.3143 413.616 Z"
     fill="#000000"
     fill-rule="nonzero"
     fill-opacity="1"
     id="path6980" />
  <path
     clip-path="url(#clip580)"
     d="M1141.48 12.096 L1179.72 12.096 L1179.72 18.9825 L1149.67 18.9825 L1149.67 36.8875 L1178.47 36.8875 L1178.47 43.7741 L1149.67 43.7741 L1149.67 65.6895 L1180.45 65.6895 L1180.45 72.576 L1141.48 72.576 L1141.48 12.096 Z"
     fill="#000000"
     fill-rule="nonzero"
     fill-opacity="1"
     id="path6982" />
  <path
     clip-path="url(#clip580)"
     d="M1239.19 16.7545 L1239.19 25.383 Q1235.06 21.5346 1230.36 19.6307 Q1225.7 17.7268 1220.43 17.7268 Q1210.06 17.7268 1204.56 24.0867 Q1199.05 30.4061 1199.05 42.3968 Q1199.05 54.3469 1204.56 60.7069 Q1210.06 67.0263 1220.43 67.0263 Q1225.7 67.0263 1230.36 65.1223 Q1235.06 63.2184 1239.19 59.3701 L1239.19 67.9175 Q1234.9 70.8341 1230.08 72.2924 Q1225.3 73.7508 1219.95 73.7508 Q1206.22 73.7508 1198.32 65.3654 Q1190.42 56.9395 1190.42 42.3968 Q1190.42 27.8135 1198.32 19.4281 Q1206.22 11.0023 1219.95 11.0023 Q1225.38 11.0023 1230.16 12.4606 Q1234.98 13.8784 1239.19 16.7545 Z"
     fill="#000000"
     fill-rule="nonzero"
     fill-opacity="1"
     id="path6984" />
  <path
     clip-path="url(#clip580)"
     d="M1293.07 63.9476 L1293.07 47.7034 L1279.7 47.7034 L1279.7 40.9789 L1301.17 40.9789 L1301.17 66.9452 Q1296.43 70.3075 1290.72 72.0494 Q1285.01 73.7508 1278.52 73.7508 Q1264.35 73.7508 1256.33 65.4869 Q1248.35 57.1826 1248.35 42.3968 Q1248.35 27.5705 1256.33 19.3066 Q1264.35 11.0023 1278.52 11.0023 Q1284.44 11.0023 1289.75 12.4606 Q1295.09 13.9189 1299.59 16.7545 L1299.59 25.464 Q1295.05 21.6156 1289.95 19.6712 Q1284.84 17.7268 1279.21 17.7268 Q1268.11 17.7268 1262.52 23.9246 Q1256.97 30.1225 1256.97 42.3968 Q1256.97 54.6305 1262.52 60.8284 Q1268.11 67.0263 1279.21 67.0263 Q1283.55 67.0263 1286.95 66.2971 Q1290.35 65.5274 1293.07 63.9476 Z"
     fill="#000000"
     fill-rule="nonzero"
     fill-opacity="1"
     id="path6986" />
  <path
     clip-path="url(#clip580)"
     d="M1323.89 65.6895 L1352.45 65.6895 L1352.45 72.576 L1314.05 72.576 L1314.05 65.6895 Q1318.71 60.8689 1326.73 52.7671 Q1334.79 44.6248 1336.86 42.2752 Q1340.79 37.8598 1342.33 34.8216 Q1343.91 31.7429 1343.91 28.7857 Q1343.91 23.9651 1340.5 20.927 Q1337.14 17.8888 1331.71 17.8888 Q1327.86 17.8888 1323.57 19.2256 Q1319.32 20.5624 1314.46 23.2765 L1314.46 15.0127 Q1319.4 13.0277 1323.69 12.015 Q1327.99 11.0023 1331.55 11.0023 Q1340.95 11.0023 1346.54 15.7013 Q1352.13 20.4004 1352.13 28.2591 Q1352.13 31.9859 1350.71 35.3482 Q1349.33 38.6699 1345.65 43.2069 Q1344.64 44.3817 1339.21 50.0125 Q1333.78 55.6027 1323.89 65.6895 Z"
     fill="#000000"
     fill-rule="nonzero"
     fill-opacity="1"
     id="path6988" />
  <path
     clip-path="url(#clip580)"
     d="M1387.13 17.4837 Q1380.81 17.4837 1377.61 23.7221 Q1374.45 29.92 1374.45 42.3968 Q1374.45 54.833 1377.61 61.0714 Q1380.81 67.2693 1387.13 67.2693 Q1393.49 67.2693 1396.65 61.0714 Q1399.85 54.833 1399.85 42.3968 Q1399.85 29.92 1396.65 23.7221 Q1393.49 17.4837 1387.13 17.4837 M1387.13 11.0023 Q1397.3 11.0023 1402.64 19.0636 Q1408.03 27.0843 1408.03 42.3968 Q1408.03 57.6687 1402.64 65.73 Q1397.3 73.7508 1387.13 73.7508 Q1376.96 73.7508 1371.57 65.73 Q1366.23 57.6687 1366.23 42.3968 Q1366.23 27.0843 1371.57 19.0636 Q1376.96 11.0023 1387.13 11.0023 Z"
     fill="#000000"
     fill-rule="nonzero"
     fill-opacity="1"
     id="path6990" />
  <path
     clip-path="url(#clip580)"
     d="M1439.91 17.4837 Q1433.59 17.4837 1430.39 23.7221 Q1427.23 29.92 1427.23 42.3968 Q1427.23 54.833 1430.39 61.0714 Q1433.59 67.2693 1439.91 67.2693 Q1446.27 67.2693 1449.43 61.0714 Q1452.63 54.833 1452.63 42.3968 Q1452.63 29.92 1449.43 23.7221 Q1446.27 17.4837 1439.91 17.4837 M1439.91 11.0023 Q1450.08 11.0023 1455.43 19.0636 Q1460.82 27.0843 1460.82 42.3968 Q1460.82 57.6687 1455.43 65.73 Q1450.08 73.7508 1439.91 73.7508 Q1429.74 73.7508 1424.36 65.73 Q1419.01 57.6687 1419.01 42.3968 Q1419.01 27.0843 1424.36 19.0636 Q1429.74 11.0023 1439.91 11.0023 Z"
     fill="#000000"
     fill-rule="nonzero"
     fill-opacity="1"
     id="path6992" />
  <path
     clip-path="url(#clip582)"
     d="M365.223 899.529 L365.223 5378.81 L759.297 5378.81 L759.297 899.529 L365.223 899.529 L365.223 899.529  Z"
     fill="#b0c4de"
     fill-rule="evenodd"
     fill-opacity="1"
     id="path6994"
     style="fill:#ffd6d6;fill-opacity:1" />
  <polyline
     clip-path="url(#clip582)"
     style="stroke:#000000; stroke-linecap:round; stroke-linejoin:round; stroke-width:4; stroke-opacity:1; fill:none"
     points="365.223,899.529 365.223,5378.81 759.297,5378.81 759.297,899.529 365.223,899.529 "
     id="polyline6996" />
  <path
     clip-path="url(#clip582)"
     d="M857.815 353.276 L857.815 5378.81 L1251.89 5378.81 L1251.89 353.276 L857.815 353.276 L857.815 353.276  Z"
     fill="#b0c4de"
     fill-rule="evenodd"
     fill-opacity="1"
     id="path6998"
     style="fill:#ff8f8f;fill-opacity:1" />
  <polyline
     clip-path="url(#clip582)"
     style="stroke:#000000; stroke-linecap:round; stroke-linejoin:round; stroke-width:4; stroke-opacity:1; fill:none"
     points="857.815,353.276 857.815,5378.81 1251.89,5378.81 1251.89,353.276 857.815,353.276 "
     id="polyline7000" />
  <path
     clip-path="url(#clip582)"
     d="M1350.41 313.719 L1350.41 5378.81 L1744.48 5378.81 L1744.48 313.719 L1350.41 313.719 L1350.41 313.719  Z"
     fill="#b0c4de"
     fill-rule="evenodd"
     fill-opacity="1"
     id="path7002"
     style="fill:#ff6b6b;fill-opacity:1" />
  <polyline
     clip-path="url(#clip582)"
     style="stroke:#000000; stroke-linecap:round; stroke-linejoin:round; stroke-width:4; stroke-opacity:1; fill:none"
     points="1350.41,313.719 1350.41,5378.81 1744.48,5378.81 1744.48,313.719 1350.41,313.719 "
     id="polyline7004" />
  <path
     clip-path="url(#clip582)"
     d="M1843 311.836 L1843 5378.81 L2237.08 5378.81 L2237.08 311.836 L1843 311.836 L1843 311.836  Z"
     fill="#b0c4de"
     fill-rule="evenodd"
     fill-opacity="1"
     id="path7006"
     style="fill:#ff4747;fill-opacity:1" />
  <polyline
     clip-path="url(#clip582)"
     style="stroke:#000000; stroke-linecap:round; stroke-linejoin:round; stroke-width:4; stroke-opacity:1; fill:none"
     points="1843,311.836 1843,5378.81 2237.08,5378.81 2237.08,311.836 1843,311.836 "
     id="polyline7008" />
  <circle
     clip-path="url(#clip582)"
     style="fill:#b0c4de; stroke:none; fill-opacity:0"
     cx="562.26"
     cy="899.529"
     r="2"
     id="circle7010" />
  <circle
     clip-path="url(#clip582)"
     style="fill:#b0c4de; stroke:none; fill-opacity:0"
     cx="1054.85"
     cy="353.276"
     r="2"
     id="circle7012" />
  <circle
     clip-path="url(#clip582)"
     style="fill:#b0c4de; stroke:none; fill-opacity:0"
     cx="1547.45"
     cy="313.719"
     r="2"
     id="circle7014" />
  <circle
     clip-path="url(#clip582)"
     style="fill:#b0c4de; stroke:none; fill-opacity:0"
     cx="2040.04"
     cy="311.836"
     r="2"
     id="circle7016" />
  <polyline
     clip-path="url(#clip582)"
     style="stroke:#000000; stroke-linecap:round; stroke-linejoin:round; stroke-width:4; stroke-opacity:1; fill:none"
     points="562.26,934.325 562.26,864.734 "
     id="polyline7018" />
  <polyline
     clip-path="url(#clip582)"
     style="stroke:#000000; stroke-linecap:round; stroke-linejoin:round; stroke-width:4; stroke-opacity:1; fill:none"
     points="1054.85,384.514 1054.85,322.037 "
     id="polyline7020" />
  <polyline
     clip-path="url(#clip582)"
     style="stroke:#000000; stroke-linecap:round; stroke-linejoin:round; stroke-width:4; stroke-opacity:1; fill:none"
     points="1547.45,342.835 1547.45,284.603 "
     id="polyline7022" />
  <polyline
     clip-path="url(#clip582)"
     style="stroke:#000000; stroke-linecap:round; stroke-linejoin:round; stroke-width:4; stroke-opacity:1; fill:none"
     points="2040.04,338.703 2040.04,284.968 "
     id="polyline7024" />
  <line
     clip-path="url(#clip582)"
     x1="578.26"
     y1="934.325"
     x2="546.26"
     y2="934.325"
     style="stroke:#000000; stroke-width:4; stroke-opacity:1"
     id="line7026" />
  <line
     clip-path="url(#clip582)"
     x1="578.26"
     y1="864.734"
     x2="546.26"
     y2="864.734"
     style="stroke:#000000; stroke-width:4; stroke-opacity:1"
     id="line7028" />
  <line
     clip-path="url(#clip582)"
     x1="1070.85"
     y1="384.514"
     x2="1038.85"
     y2="384.514"
     style="stroke:#000000; stroke-width:4; stroke-opacity:1"
     id="line7030" />
  <line
     clip-path="url(#clip582)"
     x1="1070.85"
     y1="322.037"
     x2="1038.85"
     y2="322.037"
     style="stroke:#000000; stroke-width:4; stroke-opacity:1"
     id="line7032" />
  <line
     clip-path="url(#clip582)"
     x1="1563.45"
     y1="342.835"
     x2="1531.45"
     y2="342.835"
     style="stroke:#000000; stroke-width:4; stroke-opacity:1"
     id="line7034" />
  <line
     clip-path="url(#clip582)"
     x1="1563.45"
     y1="284.603"
     x2="1531.45"
     y2="284.603"
     style="stroke:#000000; stroke-width:4; stroke-opacity:1"
     id="line7036" />
  <line
     clip-path="url(#clip582)"
     x1="2056.04"
     y1="338.703"
     x2="2024.04"
     y2="338.703"
     style="stroke:#000000; stroke-width:4; stroke-opacity:1"
     id="line7038" />
  <line
     clip-path="url(#clip582)"
     x1="2056.04"
     y1="284.968"
     x2="2024.04"
     y2="284.968"
     style="stroke:#000000; stroke-width:4; stroke-opacity:1"
     id="line7040" />
  <text
     xml:space="preserve"
     transform="matrix(4,0,0,4,-22.856469,-63.485021)"
     id="text8649-2"
     style="font-size:13.3333px;line-height:1.25;font-family:Rockwell;-inkscape-font-specification:Rockwell;white-space:pre;shape-inside:url(#rect8651-0);display:inline"><tspan
       x="128.60156"
       y="387.43161"
       id="tspan15786"><tspan
         style="font-family:helv;-inkscape-font-specification:helv"
         id="tspan15784">1NN</tspan></tspan></text>
  <text
     xml:space="preserve"
     transform="matrix(4,0,0,4,475.31325,-67.435714)"
     id="text8649-9-2"
     style="font-size:13.3333px;line-height:1.25;font-family:Rockwell;-inkscape-font-specification:Rockwell;white-space:pre;shape-inside:url(#rect8651-7-2);display:inline"><tspan
       x="128.60156"
       y="388.17189"
       id="tspan15790"><tspan
         style="font-weight:bold;font-family:Helvetica;-inkscape-font-specification:'Helvetica Bold'"
         id="tspan15788">MPS</tspan></tspan></text>
  <text
     xml:space="preserve"
     transform="matrix(4,0,0,4,1351.8753,-71.633694)"
     id="text8649-9-3-7"
     style="font-size:13.3333px;line-height:1.25;font-family:Rockwell;-inkscape-font-specification:Rockwell;white-space:pre;shape-inside:url(#rect8651-7-0-4);display:inline"><tspan
       x="128.60156"
       y="388.17189"
       id="tspan15794"><tspan
         style="font-family:Helvetica;-inkscape-font-specification:Helvetica"
         id="tspan15792">InceptionTime</tspan></tspan></text>
  <text
     xml:space="preserve"
     transform="matrix(4,0,0,4,976.95168,-72.52046)"
     id="text8649-9-3-4-3"
     style="font-size:13.3333px;line-height:1.25;font-family:Rockwell;-inkscape-font-specification:Rockwell;white-space:pre;shape-inside:url(#rect8651-7-0-5-8);display:inline"><tspan
       x="128.60156"
       y="388.17189"
       id="tspan15798"><tspan
         style="font-family:Helvetica;-inkscape-font-specification:Helvetica"
         id="tspan15796">HC2</tspan></tspan></text>
</svg>
