<?xml version="1.0" encoding="utf-8"?>
<svg xmlns="http://www.w3.org/2000/svg" xmlns:xlink="http://www.w3.org/1999/xlink" width="600" height="400" viewBox="0 0 2400 1600">
<defs>
  <clipPath id="clip420">
    <rect x="0" y="0" width="2400" height="1600"/>
  </clipPath>
</defs>
<path clip-path="url(#clip420)" d="M0 1600 L2400 1600 L2400 8.88178e-14 L0 8.88178e-14  Z" fill="#ffffff" fill-rule="evenodd" fill-opacity="1"/>
<defs>
  <clipPath id="clip421">
    <rect x="480" y="0" width="1681" height="1600"/>
  </clipPath>
</defs>
<path clip-path="url(#clip420)" d="M257.579 1410.9 L2352.76 1410.9 L2352.76 123.472 L257.579 123.472  Z" fill="#ffffff" fill-rule="evenodd" fill-opacity="1"/>
<defs>
  <clipPath id="clip422">
    <rect x="257" y="123" width="2096" height="1288"/>
  </clipPath>
</defs>
<polyline clip-path="url(#clip422)" style="stroke:#000000; stroke-linecap:round; stroke-linejoin:round; stroke-width:2; stroke-opacity:0.1; fill:none" points="879.534,1410.9 879.534,123.472 "/>
<polyline clip-path="url(#clip422)" style="stroke:#000000; stroke-linecap:round; stroke-linejoin:round; stroke-width:2; stroke-opacity:0.1; fill:none" points="1586.5,1410.9 1586.5,123.472 "/>
<polyline clip-path="url(#clip422)" style="stroke:#000000; stroke-linecap:round; stroke-linejoin:round; stroke-width:2; stroke-opacity:0.1; fill:none" points="2293.46,1410.9 2293.46,123.472 "/>
<polyline clip-path="url(#clip422)" style="stroke:#000000; stroke-linecap:round; stroke-linejoin:round; stroke-width:2; stroke-opacity:0.1; fill:none" points="257.579,1251.45 2352.76,1251.45 "/>
<polyline clip-path="url(#clip422)" style="stroke:#000000; stroke-linecap:round; stroke-linejoin:round; stroke-width:2; stroke-opacity:0.1; fill:none" points="257.579,832.99 2352.76,832.99 "/>
<polyline clip-path="url(#clip422)" style="stroke:#000000; stroke-linecap:round; stroke-linejoin:round; stroke-width:2; stroke-opacity:0.1; fill:none" points="257.579,414.533 2352.76,414.533 "/>
<polyline clip-path="url(#clip420)" style="stroke:#000000; stroke-linecap:round; stroke-linejoin:round; stroke-width:4; stroke-opacity:1; fill:none" points="257.579,1410.9 2352.76,1410.9 "/>
<polyline clip-path="url(#clip420)" style="stroke:#000000; stroke-linecap:round; stroke-linejoin:round; stroke-width:4; stroke-opacity:1; fill:none" points="879.534,1410.9 879.534,1392 "/>
<polyline clip-path="url(#clip420)" style="stroke:#000000; stroke-linecap:round; stroke-linejoin:round; stroke-width:4; stroke-opacity:1; fill:none" points="1586.5,1410.9 1586.5,1392 "/>
<polyline clip-path="url(#clip420)" style="stroke:#000000; stroke-linecap:round; stroke-linejoin:round; stroke-width:4; stroke-opacity:1; fill:none" points="2293.46,1410.9 2293.46,1392 "/>
<path clip-path="url(#clip420)" d="M826.987 1485.02 L834.626 1485.02 L834.626 1458.66 L826.316 1460.32 L826.316 1456.06 L834.58 1454.4 L839.256 1454.4 L839.256 1485.02 L846.895 1485.02 L846.895 1488.96 L826.987 1488.96 L826.987 1485.02 Z" fill="#000000" fill-rule="nonzero" fill-opacity="1" /><path clip-path="url(#clip420)" d="M866.339 1457.48 Q862.728 1457.48 860.899 1461.04 Q859.094 1464.58 859.094 1471.71 Q859.094 1478.82 860.899 1482.38 Q862.728 1485.92 866.339 1485.92 Q869.973 1485.92 871.779 1482.38 Q873.608 1478.82 873.608 1471.71 Q873.608 1464.58 871.779 1461.04 Q869.973 1457.48 866.339 1457.48 M866.339 1453.77 Q872.149 1453.77 875.205 1458.38 Q878.284 1462.96 878.284 1471.71 Q878.284 1480.44 875.205 1485.04 Q872.149 1489.63 866.339 1489.63 Q860.529 1489.63 857.45 1485.04 Q854.395 1480.44 854.395 1471.71 Q854.395 1462.96 857.45 1458.38 Q860.529 1453.77 866.339 1453.77 Z" fill="#000000" fill-rule="nonzero" fill-opacity="1" /><path clip-path="url(#clip420)" d="M878.829 1458.35 L885.036 1458.35 L885.036 1436.93 L878.284 1438.28 L878.284 1434.82 L884.998 1433.47 L888.797 1433.47 L888.797 1458.35 L895.004 1458.35 L895.004 1461.55 L878.829 1461.55 L878.829 1458.35 Z" fill="#000000" fill-rule="nonzero" fill-opacity="1" /><path clip-path="url(#clip420)" d="M902.677 1456.77 L906.646 1456.77 L906.646 1461.55 L902.677 1461.55 L902.677 1456.77 Z" fill="#000000" fill-rule="nonzero" fill-opacity="1" /><path clip-path="url(#clip420)" d="M923.046 1435.97 Q920.112 1435.97 918.626 1438.86 Q917.159 1441.74 917.159 1447.53 Q917.159 1453.31 918.626 1456.2 Q920.112 1459.08 923.046 1459.08 Q925.999 1459.08 927.466 1456.2 Q928.952 1453.31 928.952 1447.53 Q928.952 1441.74 927.466 1438.86 Q925.999 1435.97 923.046 1435.97 M923.046 1432.96 Q927.767 1432.96 930.249 1436.7 Q932.751 1440.43 932.751 1447.53 Q932.751 1454.62 930.249 1458.37 Q927.767 1462.09 923.046 1462.09 Q918.325 1462.09 915.824 1458.37 Q913.341 1454.62 913.341 1447.53 Q913.341 1440.43 915.824 1436.7 Q918.325 1432.96 923.046 1432.96 Z" fill="#000000" fill-rule="nonzero" fill-opacity="1" /><path clip-path="url(#clip420)" d="M1534.35 1485.02 L1541.99 1485.02 L1541.99 1458.66 L1533.68 1460.32 L1533.68 1456.06 L1541.95 1454.4 L1546.62 1454.4 L1546.62 1485.02 L1554.26 1485.02 L1554.26 1488.96 L1534.35 1488.96 L1534.35 1485.02 Z" fill="#000000" fill-rule="nonzero" fill-opacity="1" /><path clip-path="url(#clip420)" d="M1573.71 1457.48 Q1570.09 1457.48 1568.27 1461.04 Q1566.46 1464.58 1566.46 1471.71 Q1566.46 1478.82 1568.27 1482.38 Q1570.09 1485.92 1573.71 1485.92 Q1577.34 1485.92 1579.15 1482.38 Q1580.97 1478.82 1580.97 1471.71 Q1580.97 1464.58 1579.15 1461.04 Q1577.34 1457.48 1573.71 1457.48 M1573.71 1453.77 Q1579.52 1453.77 1582.57 1458.38 Q1585.65 1462.96 1585.65 1471.71 Q1585.65 1480.44 1582.57 1485.04 Q1579.52 1489.63 1573.71 1489.63 Q1567.9 1489.63 1564.82 1485.04 Q1561.76 1480.44 1561.76 1471.71 Q1561.76 1462.96 1564.82 1458.38 Q1567.9 1453.77 1573.71 1453.77 Z" fill="#000000" fill-rule="nonzero" fill-opacity="1" /><path clip-path="url(#clip420)" d="M1586.2 1458.35 L1592.4 1458.35 L1592.4 1436.93 L1585.65 1438.28 L1585.65 1434.82 L1592.36 1433.47 L1596.16 1433.47 L1596.16 1458.35 L1602.37 1458.35 L1602.37 1461.55 L1586.2 1461.55 L1586.2 1458.35 Z" fill="#000000" fill-rule="nonzero" fill-opacity="1" /><path clip-path="url(#clip420)" d="M1610.04 1456.77 L1614.01 1456.77 L1614.01 1461.55 L1610.04 1461.55 L1610.04 1456.77 Z" fill="#000000" fill-rule="nonzero" fill-opacity="1" /><path clip-path="url(#clip420)" d="M1622.33 1433.47 L1637.24 1433.47 L1637.24 1436.66 L1625.8 1436.66 L1625.8 1443.55 Q1626.63 1443.27 1627.46 1443.13 Q1628.29 1442.98 1629.12 1442.98 Q1633.82 1442.98 1636.56 1445.56 Q1639.31 1448.14 1639.31 1452.54 Q1639.31 1457.07 1636.49 1459.59 Q1633.67 1462.09 1628.53 1462.09 Q1626.76 1462.09 1624.92 1461.79 Q1623.1 1461.49 1621.14 1460.89 L1621.14 1457.07 Q1622.83 1457.99 1624.64 1458.44 Q1626.44 1458.89 1628.46 1458.89 Q1631.71 1458.89 1633.61 1457.18 Q1635.51 1455.47 1635.51 1452.54 Q1635.51 1449.6 1633.61 1447.89 Q1631.71 1446.18 1628.46 1446.18 Q1626.93 1446.18 1625.41 1446.52 Q1623.91 1446.86 1622.33 1447.57 L1622.33 1433.47 Z" fill="#000000" fill-rule="nonzero" fill-opacity="1" /><path clip-path="url(#clip420)" d="M2240.21 1485.02 L2247.85 1485.02 L2247.85 1458.66 L2239.54 1460.32 L2239.54 1456.06 L2247.8 1454.4 L2252.48 1454.4 L2252.48 1485.02 L2260.11 1485.02 L2260.11 1488.96 L2240.21 1488.96 L2240.21 1485.02 Z" fill="#000000" fill-rule="nonzero" fill-opacity="1" /><path clip-path="url(#clip420)" d="M2279.56 1457.48 Q2275.95 1457.48 2274.12 1461.04 Q2272.31 1464.58 2272.31 1471.71 Q2272.31 1478.82 2274.12 1482.38 Q2275.95 1485.92 2279.56 1485.92 Q2283.19 1485.92 2285 1482.38 Q2286.83 1478.82 2286.83 1471.71 Q2286.83 1464.58 2285 1461.04 Q2283.19 1457.48 2279.56 1457.48 M2279.56 1453.77 Q2285.37 1453.77 2288.42 1458.38 Q2291.5 1462.96 2291.5 1471.71 Q2291.5 1480.44 2288.42 1485.04 Q2285.37 1489.63 2279.56 1489.63 Q2273.75 1489.63 2270.67 1485.04 Q2267.61 1480.44 2267.61 1471.71 Q2267.61 1462.96 2270.67 1458.38 Q2273.75 1453.77 2279.56 1453.77 Z" fill="#000000" fill-rule="nonzero" fill-opacity="1" /><path clip-path="url(#clip420)" d="M2296.07 1458.35 L2309.33 1458.35 L2309.33 1461.55 L2291.5 1461.55 L2291.5 1458.35 Q2293.67 1456.11 2297.39 1452.35 Q2301.13 1448.57 2302.09 1447.48 Q2303.92 1445.43 2304.63 1444.02 Q2305.36 1442.59 2305.36 1441.22 Q2305.36 1438.98 2303.78 1437.57 Q2302.22 1436.16 2299.7 1436.16 Q2297.92 1436.16 2295.92 1436.78 Q2293.95 1437.4 2291.69 1438.66 L2291.69 1434.82 Q2293.99 1433.9 2295.98 1433.43 Q2297.97 1432.96 2299.63 1432.96 Q2303.99 1432.96 2306.59 1435.14 Q2309.18 1437.32 2309.18 1440.97 Q2309.18 1442.7 2308.52 1444.26 Q2307.88 1445.8 2306.17 1447.91 Q2305.7 1448.46 2303.18 1451.07 Q2300.66 1453.67 2296.07 1458.35 Z" fill="#000000" fill-rule="nonzero" fill-opacity="1" /><path clip-path="url(#clip420)" d="M2317.31 1456.77 L2321.28 1456.77 L2321.28 1461.55 L2317.31 1461.55 L2317.31 1456.77 Z" fill="#000000" fill-rule="nonzero" fill-opacity="1" /><path clip-path="url(#clip420)" d="M2337.68 1435.97 Q2334.74 1435.97 2333.26 1438.86 Q2331.79 1441.74 2331.79 1447.53 Q2331.79 1453.31 2333.26 1456.2 Q2334.74 1459.08 2337.68 1459.08 Q2340.63 1459.08 2342.1 1456.2 Q2343.58 1453.31 2343.58 1447.53 Q2343.58 1441.74 2342.1 1438.86 Q2340.63 1435.97 2337.68 1435.97 M2337.68 1432.96 Q2342.4 1432.96 2344.88 1436.7 Q2347.38 1440.43 2347.38 1447.53 Q2347.38 1454.62 2344.88 1458.37 Q2342.4 1462.09 2337.68 1462.09 Q2332.96 1462.09 2330.45 1458.37 Q2327.97 1454.62 2327.97 1447.53 Q2327.97 1440.43 2330.45 1436.7 Q2332.96 1432.96 2337.68 1432.96 Z" fill="#000000" fill-rule="nonzero" fill-opacity="1" /><path clip-path="url(#clip420)" d="M1044.52 1556.39 Q1044.52 1549.93 1041.85 1546.27 Q1039.21 1542.58 1034.56 1542.58 Q1029.91 1542.58 1027.24 1546.27 Q1024.6 1549.93 1024.6 1556.39 Q1024.6 1562.85 1027.24 1566.55 Q1029.91 1570.21 1034.56 1570.21 Q1039.21 1570.21 1041.85 1566.55 Q1044.52 1562.85 1044.52 1556.39 M1024.6 1543.95 Q1026.44 1540.77 1029.25 1539.24 Q1032.08 1537.68 1035.99 1537.68 Q1042.49 1537.68 1046.53 1542.83 Q1050.6 1547.99 1050.6 1556.39 Q1050.6 1564.8 1046.53 1569.95 Q1042.49 1575.11 1035.99 1575.11 Q1032.08 1575.11 1029.25 1573.58 Q1026.44 1572.02 1024.6 1568.84 L1024.6 1574.19 L1018.71 1574.19 L1018.71 1524.66 L1024.6 1524.66 L1024.6 1543.95 Z" fill="#000000" fill-rule="nonzero" fill-opacity="1" /><path clip-path="url(#clip420)" d="M1074.12 1542.64 Q1069.41 1542.64 1066.68 1546.34 Q1063.94 1550 1063.94 1556.39 Q1063.94 1562.79 1066.64 1566.48 Q1069.38 1570.14 1074.12 1570.14 Q1078.8 1570.14 1081.54 1566.45 Q1084.28 1562.76 1084.28 1556.39 Q1084.28 1550.06 1081.54 1546.37 Q1078.8 1542.64 1074.12 1542.64 M1074.12 1537.68 Q1081.76 1537.68 1086.12 1542.64 Q1090.48 1547.61 1090.48 1556.39 Q1090.48 1565.15 1086.12 1570.14 Q1081.76 1575.11 1074.12 1575.11 Q1066.45 1575.11 1062.09 1570.14 Q1057.76 1565.15 1057.76 1556.39 Q1057.76 1547.61 1062.09 1542.64 Q1066.45 1537.68 1074.12 1537.68 Z" fill="#000000" fill-rule="nonzero" fill-opacity="1" /><path clip-path="url(#clip420)" d="M1129.82 1552.67 L1129.82 1574.19 L1123.97 1574.19 L1123.97 1552.86 Q1123.97 1547.8 1121.99 1545.29 Q1120.02 1542.77 1116.07 1542.77 Q1111.33 1542.77 1108.59 1545.79 Q1105.86 1548.82 1105.86 1554.04 L1105.86 1574.19 L1099.97 1574.19 L1099.97 1538.54 L1105.86 1538.54 L1105.86 1544.08 Q1107.96 1540.86 1110.79 1539.27 Q1113.66 1537.68 1117.38 1537.68 Q1123.52 1537.68 1126.67 1541.5 Q1129.82 1545.29 1129.82 1552.67 Z" fill="#000000" fill-rule="nonzero" fill-opacity="1" /><path clip-path="url(#clip420)" d="M1164.96 1543.95 L1164.96 1524.66 L1170.82 1524.66 L1170.82 1574.19 L1164.96 1574.19 L1164.96 1568.84 Q1163.12 1572.02 1160.28 1573.58 Q1157.48 1575.11 1153.54 1575.11 Q1147.07 1575.11 1143 1569.95 Q1138.96 1564.8 1138.96 1556.39 Q1138.96 1547.99 1143 1542.83 Q1147.07 1537.68 1153.54 1537.68 Q1157.48 1537.68 1160.28 1539.24 Q1163.12 1540.77 1164.96 1543.95 M1145.01 1556.39 Q1145.01 1562.85 1147.65 1566.55 Q1150.32 1570.21 1154.97 1570.21 Q1159.62 1570.21 1162.29 1566.55 Q1164.96 1562.85 1164.96 1556.39 Q1164.96 1549.93 1162.29 1546.27 Q1159.62 1542.58 1154.97 1542.58 Q1150.32 1542.58 1147.65 1546.27 Q1145.01 1549.93 1145.01 1556.39 Z" fill="#000000" fill-rule="nonzero" fill-opacity="1" /><path clip-path="url(#clip420)" d="M1227.06 1543.95 L1227.06 1524.66 L1232.92 1524.66 L1232.92 1574.19 L1227.06 1574.19 L1227.06 1568.84 Q1225.21 1572.02 1222.38 1573.58 Q1219.58 1575.11 1215.63 1575.11 Q1209.17 1575.11 1205.1 1569.95 Q1201.06 1564.8 1201.06 1556.39 Q1201.06 1547.99 1205.1 1542.83 Q1209.17 1537.68 1215.63 1537.68 Q1219.58 1537.68 1222.38 1539.24 Q1225.21 1540.77 1227.06 1543.95 M1207.1 1556.39 Q1207.1 1562.85 1209.75 1566.55 Q1212.42 1570.21 1217.07 1570.21 Q1221.71 1570.21 1224.39 1566.55 Q1227.06 1562.85 1227.06 1556.39 Q1227.06 1549.93 1224.39 1546.27 Q1221.71 1542.58 1217.07 1542.58 Q1212.42 1542.58 1209.75 1546.27 Q1207.1 1549.93 1207.1 1556.39 Z" fill="#000000" fill-rule="nonzero" fill-opacity="1" /><path clip-path="url(#clip420)" d="M1244.98 1538.54 L1250.84 1538.54 L1250.84 1574.19 L1244.98 1574.19 L1244.98 1538.54 M1244.98 1524.66 L1250.84 1524.66 L1250.84 1532.08 L1244.98 1532.08 L1244.98 1524.66 Z" fill="#000000" fill-rule="nonzero" fill-opacity="1" /><path clip-path="url(#clip420)" d="M1290.84 1545.38 Q1293.04 1541.43 1296.1 1539.56 Q1299.15 1537.68 1303.29 1537.68 Q1308.86 1537.68 1311.88 1541.59 Q1314.91 1545.48 1314.91 1552.67 L1314.91 1574.19 L1309.02 1574.19 L1309.02 1552.86 Q1309.02 1547.74 1307.2 1545.25 Q1305.39 1542.77 1301.67 1542.77 Q1297.11 1542.77 1294.47 1545.79 Q1291.83 1548.82 1291.83 1554.04 L1291.83 1574.19 L1285.94 1574.19 L1285.94 1552.86 Q1285.94 1547.7 1284.13 1545.25 Q1282.31 1542.77 1278.53 1542.77 Q1274.04 1542.77 1271.4 1545.83 Q1268.76 1548.85 1268.76 1554.04 L1268.76 1574.19 L1262.87 1574.19 L1262.87 1538.54 L1268.76 1538.54 L1268.76 1544.08 Q1270.76 1540.8 1273.56 1539.24 Q1276.36 1537.68 1280.21 1537.68 Q1284.1 1537.68 1286.8 1539.65 Q1289.54 1541.62 1290.84 1545.38 Z" fill="#000000" fill-rule="nonzero" fill-opacity="1" /><path clip-path="url(#clip420)" d="M1357.08 1554.9 L1357.08 1557.76 L1330.15 1557.76 Q1330.53 1563.81 1333.78 1566.99 Q1337.06 1570.14 1342.88 1570.14 Q1346.26 1570.14 1349.41 1569.32 Q1352.59 1568.49 1355.71 1566.83 L1355.71 1572.37 Q1352.56 1573.71 1349.25 1574.41 Q1345.94 1575.11 1342.53 1575.11 Q1334 1575.11 1329.01 1570.14 Q1324.04 1565.18 1324.04 1556.71 Q1324.04 1547.96 1328.75 1542.83 Q1333.49 1537.68 1341.52 1537.68 Q1348.71 1537.68 1352.88 1542.33 Q1357.08 1546.94 1357.08 1554.9 M1351.22 1553.18 Q1351.16 1548.37 1348.52 1545.51 Q1345.91 1542.64 1341.58 1542.64 Q1336.68 1542.64 1333.72 1545.41 Q1330.79 1548.18 1330.34 1553.21 L1351.22 1553.18 Z" fill="#000000" fill-rule="nonzero" fill-opacity="1" /><path clip-path="url(#clip420)" d="M1396.32 1552.67 L1396.32 1574.19 L1390.47 1574.19 L1390.47 1552.86 Q1390.47 1547.8 1388.49 1545.29 Q1386.52 1542.77 1382.57 1542.77 Q1377.83 1542.77 1375.09 1545.79 Q1372.36 1548.82 1372.36 1554.04 L1372.36 1574.19 L1366.47 1574.19 L1366.47 1538.54 L1372.36 1538.54 L1372.36 1544.08 Q1374.46 1540.86 1377.29 1539.27 Q1380.16 1537.68 1383.88 1537.68 Q1390.02 1537.68 1393.17 1541.5 Q1396.32 1545.29 1396.32 1552.67 Z" fill="#000000" fill-rule="nonzero" fill-opacity="1" /><path clip-path="url(#clip420)" d="M1430.73 1539.59 L1430.73 1545.13 Q1428.25 1543.85 1425.57 1543.22 Q1422.9 1542.58 1420.04 1542.58 Q1415.68 1542.58 1413.48 1543.92 Q1411.32 1545.25 1411.32 1547.93 Q1411.32 1549.96 1412.88 1551.14 Q1414.43 1552.29 1419.15 1553.34 L1421.15 1553.78 Q1427.39 1555.12 1430 1557.57 Q1432.64 1559.99 1432.64 1564.35 Q1432.64 1569.32 1428.69 1572.21 Q1424.78 1575.11 1417.9 1575.11 Q1415.04 1575.11 1411.92 1574.54 Q1408.83 1573.99 1405.4 1572.88 L1405.4 1566.83 Q1408.64 1568.52 1411.79 1569.38 Q1414.94 1570.21 1418.03 1570.21 Q1422.17 1570.21 1424.4 1568.81 Q1426.63 1567.37 1426.63 1564.8 Q1426.63 1562.41 1425 1561.14 Q1423.41 1559.86 1417.97 1558.68 L1415.93 1558.21 Q1410.49 1557.06 1408.07 1554.71 Q1405.65 1552.32 1405.65 1548.18 Q1405.65 1543.15 1409.21 1540.42 Q1412.78 1537.68 1419.34 1537.68 Q1422.58 1537.68 1425.45 1538.16 Q1428.31 1538.63 1430.73 1539.59 Z" fill="#000000" fill-rule="nonzero" fill-opacity="1" /><path clip-path="url(#clip420)" d="M1441.97 1538.54 L1447.82 1538.54 L1447.82 1574.19 L1441.97 1574.19 L1441.97 1538.54 M1441.97 1524.66 L1447.82 1524.66 L1447.82 1532.08 L1441.97 1532.08 L1441.97 1524.66 Z" fill="#000000" fill-rule="nonzero" fill-opacity="1" /><path clip-path="url(#clip420)" d="M1473.89 1542.64 Q1469.18 1542.64 1466.44 1546.34 Q1463.71 1550 1463.71 1556.39 Q1463.71 1562.79 1466.41 1566.48 Q1469.15 1570.14 1473.89 1570.14 Q1478.57 1570.14 1481.31 1566.45 Q1484.04 1562.76 1484.04 1556.39 Q1484.04 1550.06 1481.31 1546.37 Q1478.57 1542.64 1473.89 1542.64 M1473.89 1537.68 Q1481.53 1537.68 1485.89 1542.64 Q1490.25 1547.61 1490.25 1556.39 Q1490.25 1565.15 1485.89 1570.14 Q1481.53 1575.11 1473.89 1575.11 Q1466.22 1575.11 1461.86 1570.14 Q1457.53 1565.15 1457.53 1556.39 Q1457.53 1547.61 1461.86 1542.64 Q1466.22 1537.68 1473.89 1537.68 Z" fill="#000000" fill-rule="nonzero" fill-opacity="1" /><path clip-path="url(#clip420)" d="M1529.59 1552.67 L1529.59 1574.19 L1523.73 1574.19 L1523.73 1552.86 Q1523.73 1547.8 1521.76 1545.29 Q1519.79 1542.77 1515.84 1542.77 Q1511.1 1542.77 1508.36 1545.79 Q1505.62 1548.82 1505.62 1554.04 L1505.62 1574.19 L1499.74 1574.19 L1499.74 1538.54 L1505.62 1538.54 L1505.62 1544.08 Q1507.72 1540.86 1510.56 1539.27 Q1513.42 1537.68 1517.15 1537.68 Q1523.29 1537.68 1526.44 1541.5 Q1529.59 1545.29 1529.59 1552.67 Z" fill="#000000" fill-rule="nonzero" fill-opacity="1" /><path clip-path="url(#clip420)" d="M1579.15 1582.14 L1574.4 1569.95 L1564.63 1587.78 L1557.73 1587.78 L1571.54 1562.57 L1565.75 1547.58 Q1564.19 1543.57 1559.29 1543.57 L1557.73 1543.57 L1557.73 1538.54 L1559.95 1538.6 Q1568.17 1538.82 1570.24 1544.14 L1574.95 1556.33 L1584.72 1538.51 L1591.62 1538.51 L1577.81 1563.71 L1583.6 1578.71 Q1585.16 1582.72 1590.06 1582.72 L1591.62 1582.72 L1591.62 1587.74 L1589.4 1587.68 Q1581.18 1587.46 1579.15 1582.14 Z" fill="#000000" fill-rule="nonzero" fill-opacity="1" /><polyline clip-path="url(#clip420)" style="stroke:#000000; stroke-linecap:round; stroke-linejoin:round; stroke-width:4; stroke-opacity:1; fill:none" points="257.579,1410.9 257.579,123.472 "/>
<polyline clip-path="url(#clip420)" style="stroke:#000000; stroke-linecap:round; stroke-linejoin:round; stroke-width:4; stroke-opacity:1; fill:none" points="257.579,1251.45 276.476,1251.45 "/>
<polyline clip-path="url(#clip420)" style="stroke:#000000; stroke-linecap:round; stroke-linejoin:round; stroke-width:4; stroke-opacity:1; fill:none" points="257.579,832.99 276.476,832.99 "/>
<polyline clip-path="url(#clip420)" style="stroke:#000000; stroke-linecap:round; stroke-linejoin:round; stroke-width:4; stroke-opacity:1; fill:none" points="257.579,414.533 276.476,414.533 "/>
<path clip-path="url(#clip420)" d="M114.931 1271.24 L122.57 1271.24 L122.57 1244.87 L114.26 1246.54 L114.26 1242.28 L122.524 1240.61 L127.2 1240.61 L127.2 1271.24 L134.839 1271.24 L134.839 1275.17 L114.931 1275.17 L114.931 1271.24 Z" fill="#000000" fill-rule="nonzero" fill-opacity="1" /><path clip-path="url(#clip420)" d="M154.283 1243.69 Q150.672 1243.69 148.843 1247.26 Q147.038 1250.8 147.038 1257.93 Q147.038 1265.04 148.843 1268.6 Q150.672 1272.14 154.283 1272.14 Q157.917 1272.14 159.723 1268.6 Q161.552 1265.04 161.552 1257.93 Q161.552 1250.8 159.723 1247.26 Q157.917 1243.69 154.283 1243.69 M154.283 1239.99 Q160.093 1239.99 163.149 1244.6 Q166.227 1249.18 166.227 1257.93 Q166.227 1266.66 163.149 1271.26 Q160.093 1275.85 154.283 1275.85 Q148.473 1275.85 145.394 1271.26 Q142.339 1266.66 142.339 1257.93 Q142.339 1249.18 145.394 1244.6 Q148.473 1239.99 154.283 1239.99 Z" fill="#000000" fill-rule="nonzero" fill-opacity="1" /><path clip-path="url(#clip420)" d="M175.932 1222.19 Q172.998 1222.19 171.512 1225.08 Q170.045 1227.96 170.045 1233.75 Q170.045 1239.53 171.512 1242.42 Q172.998 1245.3 175.932 1245.3 Q178.885 1245.3 180.352 1242.42 Q181.838 1239.53 181.838 1233.75 Q181.838 1227.96 180.352 1225.08 Q178.885 1222.19 175.932 1222.19 M175.932 1219.18 Q180.653 1219.18 183.136 1222.92 Q185.637 1226.64 185.637 1233.75 Q185.637 1240.84 183.136 1244.59 Q180.653 1248.31 175.932 1248.31 Q171.212 1248.31 168.71 1244.59 Q166.227 1240.84 166.227 1233.75 Q166.227 1226.64 168.71 1222.92 Q171.212 1219.18 175.932 1219.18 Z" fill="#000000" fill-rule="nonzero" fill-opacity="1" /><path clip-path="url(#clip420)" d="M192.314 1242.99 L196.282 1242.99 L196.282 1247.76 L192.314 1247.76 L192.314 1242.99 Z" fill="#000000" fill-rule="nonzero" fill-opacity="1" /><path clip-path="url(#clip420)" d="M204.595 1219.68 L219.51 1219.68 L219.51 1222.88 L208.075 1222.88 L208.075 1229.77 Q208.902 1229.48 209.73 1229.35 Q210.557 1229.2 211.385 1229.2 Q216.087 1229.2 218.833 1231.78 Q221.579 1234.35 221.579 1238.76 Q221.579 1243.29 218.758 1245.81 Q215.936 1248.31 210.802 1248.31 Q209.034 1248.31 207.191 1248.01 Q205.366 1247.71 203.41 1247.11 L203.41 1243.29 Q205.103 1244.21 206.909 1244.66 Q208.714 1245.11 210.727 1245.11 Q213.98 1245.11 215.88 1243.4 Q217.78 1241.69 217.78 1238.76 Q217.78 1235.82 215.88 1234.11 Q213.98 1232.4 210.727 1232.4 Q209.203 1232.4 207.68 1232.74 Q206.175 1233.08 204.595 1233.79 L204.595 1219.68 Z" fill="#000000" fill-rule="nonzero" fill-opacity="1" /><path clip-path="url(#clip420)" d="M115.815 852.782 L123.454 852.782 L123.454 826.417 L115.144 828.083 L115.144 823.824 L123.408 822.157 L128.084 822.157 L128.084 852.782 L135.723 852.782 L135.723 856.717 L115.815 856.717 L115.815 852.782 Z" fill="#000000" fill-rule="nonzero" fill-opacity="1" /><path clip-path="url(#clip420)" d="M155.167 825.236 Q151.556 825.236 149.727 828.801 Q147.922 832.343 147.922 839.472 Q147.922 846.579 149.727 850.143 Q151.556 853.685 155.167 853.685 Q158.801 853.685 160.607 850.143 Q162.436 846.579 162.436 839.472 Q162.436 832.343 160.607 828.801 Q158.801 825.236 155.167 825.236 M155.167 821.532 Q160.977 821.532 164.033 826.139 Q167.111 830.722 167.111 839.472 Q167.111 848.199 164.033 852.805 Q160.977 857.389 155.167 857.389 Q149.357 857.389 146.278 852.805 Q143.223 848.199 143.223 839.472 Q143.223 830.722 146.278 826.139 Q149.357 821.532 155.167 821.532 Z" fill="#000000" fill-rule="nonzero" fill-opacity="1" /><path clip-path="url(#clip420)" d="M167.657 826.11 L173.863 826.11 L173.863 804.688 L167.111 806.042 L167.111 802.581 L173.826 801.227 L177.625 801.227 L177.625 826.11 L183.832 826.11 L183.832 829.307 L167.657 829.307 L167.657 826.11 Z" fill="#000000" fill-rule="nonzero" fill-opacity="1" /><path clip-path="url(#clip420)" d="M191.505 824.53 L195.474 824.53 L195.474 829.307 L191.505 829.307 L191.505 824.53 Z" fill="#000000" fill-rule="nonzero" fill-opacity="1" /><path clip-path="url(#clip420)" d="M211.874 803.728 Q208.94 803.728 207.454 806.625 Q205.987 809.502 205.987 815.295 Q205.987 821.069 207.454 823.966 Q208.94 826.843 211.874 826.843 Q214.827 826.843 216.294 823.966 Q217.78 821.069 217.78 815.295 Q217.78 809.502 216.294 806.625 Q214.827 803.728 211.874 803.728 M211.874 800.719 Q216.595 800.719 219.077 804.462 Q221.579 808.186 221.579 815.295 Q221.579 822.386 219.077 826.129 Q216.595 829.852 211.874 829.852 Q207.153 829.852 204.652 826.129 Q202.169 822.386 202.169 815.295 Q202.169 808.186 204.652 804.462 Q207.153 800.719 211.874 800.719 Z" fill="#000000" fill-rule="nonzero" fill-opacity="1" /><path clip-path="url(#clip420)" d="M116.624 434.325 L124.263 434.325 L124.263 407.959 L115.953 409.626 L115.953 405.367 L124.217 403.7 L128.893 403.7 L128.893 434.325 L136.531 434.325 L136.531 438.26 L116.624 438.26 L116.624 434.325 Z" fill="#000000" fill-rule="nonzero" fill-opacity="1" /><path clip-path="url(#clip420)" d="M155.976 406.779 Q152.365 406.779 150.536 410.344 Q148.73 413.885 148.73 421.015 Q148.73 428.121 150.536 431.686 Q152.365 435.228 155.976 435.228 Q159.61 435.228 161.416 431.686 Q163.244 428.121 163.244 421.015 Q163.244 413.885 161.416 410.344 Q159.61 406.779 155.976 406.779 M155.976 403.075 Q161.786 403.075 164.841 407.682 Q167.92 412.265 167.92 421.015 Q167.92 429.742 164.841 434.348 Q161.786 438.931 155.976 438.931 Q150.166 438.931 147.087 434.348 Q144.031 429.742 144.031 421.015 Q144.031 412.265 147.087 407.682 Q150.166 403.075 155.976 403.075 Z" fill="#000000" fill-rule="nonzero" fill-opacity="1" /><path clip-path="url(#clip420)" d="M168.466 407.652 L174.672 407.652 L174.672 386.23 L167.92 387.585 L167.92 384.124 L174.635 382.77 L178.434 382.77 L178.434 407.652 L184.64 407.652 L184.64 410.85 L168.466 410.85 L168.466 407.652 Z" fill="#000000" fill-rule="nonzero" fill-opacity="1" /><path clip-path="url(#clip420)" d="M192.314 406.073 L196.282 406.073 L196.282 410.85 L192.314 410.85 L192.314 406.073 Z" fill="#000000" fill-rule="nonzero" fill-opacity="1" /><path clip-path="url(#clip420)" d="M204.595 382.77 L219.51 382.77 L219.51 385.967 L208.075 385.967 L208.075 392.851 Q208.902 392.569 209.73 392.437 Q210.557 392.287 211.385 392.287 Q216.087 392.287 218.833 394.863 Q221.579 397.44 221.579 401.841 Q221.579 406.374 218.758 408.894 Q215.936 411.395 210.802 411.395 Q209.034 411.395 207.191 411.094 Q205.366 410.793 203.41 410.192 L203.41 406.374 Q205.103 407.295 206.909 407.746 Q208.714 408.198 210.727 408.198 Q213.98 408.198 215.88 406.486 Q217.78 404.775 217.78 401.841 Q217.78 398.907 215.88 397.195 Q213.98 395.484 210.727 395.484 Q209.203 395.484 207.68 395.822 Q206.175 396.161 204.595 396.876 L204.595 382.77 Z" fill="#000000" fill-rule="nonzero" fill-opacity="1" /><path clip-path="url(#clip420)" d="M35.1993 1099.27 Q31.2526 1097.07 29.3747 1094.02 Q27.4968 1090.96 27.4968 1086.82 Q27.4968 1081.25 31.4117 1078.23 Q35.2948 1075.21 42.4881 1075.21 L64.0042 1075.21 L64.0042 1081.09 L42.679 1081.09 Q37.5546 1081.09 35.072 1082.91 Q32.5894 1084.72 32.5894 1088.45 Q32.5894 1093 35.6131 1095.64 Q38.6368 1098.28 43.8567 1098.28 L64.0042 1098.28 L64.0042 1104.17 L42.679 1104.17 Q37.5228 1104.17 35.072 1105.98 Q32.5894 1107.8 32.5894 1111.59 Q32.5894 1116.07 35.6449 1118.71 Q38.6686 1121.36 43.8567 1121.36 L64.0042 1121.36 L64.0042 1127.24 L28.3562 1127.24 L28.3562 1121.36 L33.8944 1121.36 Q30.616 1119.35 29.0564 1116.55 Q27.4968 1113.75 27.4968 1109.9 Q27.4968 1106.02 29.4702 1103.31 Q31.4436 1100.57 35.1993 1099.27 Z" fill="#000000" fill-rule="nonzero" fill-opacity="1" /><path clip-path="url(#clip420)" d="M44.7161 1033.03 L47.5806 1033.03 L47.5806 1059.96 Q53.6281 1059.58 56.8109 1056.33 Q59.9619 1053.05 59.9619 1047.23 Q59.9619 1043.85 59.1344 1040.7 Q58.3069 1037.52 56.6518 1034.4 L62.1899 1034.4 Q63.5267 1037.55 64.227 1040.86 Q64.9272 1044.17 64.9272 1047.58 Q64.9272 1056.11 59.9619 1061.1 Q54.9967 1066.07 46.5303 1066.07 Q37.7774 1066.07 32.6531 1061.36 Q27.4968 1056.62 27.4968 1048.6 Q27.4968 1041.4 32.1438 1037.23 Q36.7589 1033.03 44.7161 1033.03 M42.9973 1038.89 Q38.1912 1038.95 35.3266 1041.59 Q32.4621 1044.2 32.4621 1048.53 Q32.4621 1053.43 35.2312 1056.39 Q38.0002 1059.32 43.0292 1059.77 L42.9973 1038.89 Z" fill="#000000" fill-rule="nonzero" fill-opacity="1" /><path clip-path="url(#clip420)" d="M46.0847 1007.22 Q46.0847 1014.32 47.7079 1017.05 Q49.3312 1019.79 53.2461 1019.79 Q56.3653 1019.79 58.2114 1017.75 Q60.0256 1015.69 60.0256 1012.15 Q60.0256 1007.28 56.5881 1004.35 Q53.1188 1001.39 47.3897 1001.39 L46.0847 1001.39 L46.0847 1007.22 M43.6657 995.538 L64.0042 995.538 L64.0042 1001.39 L58.5933 1001.39 Q61.8398 1003.4 63.3994 1006.39 Q64.9272 1009.38 64.9272 1013.71 Q64.9272 1019.19 61.8716 1022.43 Q58.7843 1025.65 53.6281 1025.65 Q47.6125 1025.65 44.5569 1021.64 Q41.5014 1017.6 41.5014 1009.61 L41.5014 1001.39 L40.9285 1001.39 Q36.8862 1001.39 34.6901 1004.07 Q32.4621 1006.71 32.4621 1011.52 Q32.4621 1014.57 33.1941 1017.47 Q33.9262 1020.36 35.3903 1023.04 L29.9795 1023.04 Q28.7381 1019.82 28.1334 1016.8 Q27.4968 1013.78 27.4968 1010.91 Q27.4968 1003.18 31.5072 999.358 Q35.5176 995.538 43.6657 995.538 Z" fill="#000000" fill-rule="nonzero" fill-opacity="1" /><path clip-path="url(#clip420)" d="M42.4881 953.843 L64.0042 953.843 L64.0042 959.699 L42.679 959.699 Q37.6183 959.699 35.1038 961.673 Q32.5894 963.646 32.5894 967.593 Q32.5894 972.335 35.6131 975.072 Q38.6368 977.81 43.8567 977.81 L64.0042 977.81 L64.0042 983.698 L28.3562 983.698 L28.3562 977.81 L33.8944 977.81 Q30.6797 975.709 29.0883 972.876 Q27.4968 970.012 27.4968 966.288 Q27.4968 960.145 31.3163 956.994 Q35.1038 953.843 42.4881 953.843 Z" fill="#000000" fill-rule="nonzero" fill-opacity="1" /><path clip-path="url(#clip420)" d="M18.2347 915.649 L28.3562 915.649 L28.3562 903.586 L32.9077 903.586 L32.9077 915.649 L52.2594 915.649 Q56.6199 915.649 57.8613 914.471 Q59.1026 913.261 59.1026 909.601 L59.1026 903.586 L64.0042 903.586 L64.0042 909.601 Q64.0042 916.381 61.4897 918.959 Q58.9434 921.537 52.2594 921.537 L32.9077 921.537 L32.9077 925.834 L28.3562 925.834 L28.3562 921.537 L18.2347 921.537 L18.2347 915.649 Z" fill="#000000" fill-rule="nonzero" fill-opacity="1" /><path clip-path="url(#clip420)" d="M33.8307 875.226 Q33.2578 876.213 33.0032 877.391 Q32.7167 878.537 32.7167 879.937 Q32.7167 884.902 35.9632 887.576 Q39.1779 890.218 45.2253 890.218 L64.0042 890.218 L64.0042 896.106 L28.3562 896.106 L28.3562 890.218 L33.8944 890.218 Q30.6479 888.372 29.0883 885.411 Q27.4968 882.451 27.4968 878.218 Q27.4968 877.613 27.5923 876.881 Q27.656 876.149 27.8151 875.258 L33.8307 875.226 Z" fill="#000000" fill-rule="nonzero" fill-opacity="1" /><path clip-path="url(#clip420)" d="M46.0847 852.883 Q46.0847 859.98 47.7079 862.718 Q49.3312 865.455 53.2461 865.455 Q56.3653 865.455 58.2114 863.418 Q60.0256 861.349 60.0256 857.816 Q60.0256 852.946 56.5881 850.018 Q53.1188 847.058 47.3897 847.058 L46.0847 847.058 L46.0847 852.883 M43.6657 841.202 L64.0042 841.202 L64.0042 847.058 L58.5933 847.058 Q61.8398 849.063 63.3994 852.055 Q64.9272 855.047 64.9272 859.376 Q64.9272 864.85 61.8716 868.097 Q58.7843 871.311 53.6281 871.311 Q47.6125 871.311 44.5569 867.301 Q41.5014 863.259 41.5014 855.27 L41.5014 847.058 L40.9285 847.058 Q36.8862 847.058 34.6901 849.732 Q32.4621 852.373 32.4621 857.18 Q32.4621 860.235 33.1941 863.131 Q33.9262 866.028 35.3903 868.701 L29.9795 868.701 Q28.7381 865.487 28.1334 862.463 Q27.4968 859.439 27.4968 856.575 Q27.4968 848.84 31.5072 845.021 Q35.5176 841.202 43.6657 841.202 Z" fill="#000000" fill-rule="nonzero" fill-opacity="1" /><path clip-path="url(#clip420)" d="M28.3562 829.139 L28.3562 823.282 L64.0042 823.282 L64.0042 829.139 L28.3562 829.139 M14.479 829.139 L14.479 823.282 L21.895 823.282 L21.895 829.139 L14.479 829.139 Z" fill="#000000" fill-rule="nonzero" fill-opacity="1" /><path clip-path="url(#clip420)" d="M42.4881 781.396 L64.0042 781.396 L64.0042 787.252 L42.679 787.252 Q37.6183 787.252 35.1038 789.226 Q32.5894 791.199 32.5894 795.146 Q32.5894 799.888 35.6131 802.625 Q38.6368 805.363 43.8567 805.363 L64.0042 805.363 L64.0042 811.251 L28.3562 811.251 L28.3562 805.363 L33.8944 805.363 Q30.6797 803.262 29.0883 800.429 Q27.4968 797.565 27.4968 793.841 Q27.4968 787.698 31.3163 784.547 Q35.1038 781.396 42.4881 781.396 Z" fill="#000000" fill-rule="nonzero" fill-opacity="1" /><path clip-path="url(#clip420)" d="M28.3562 769.715 L28.3562 763.858 L64.0042 763.858 L64.0042 769.715 L28.3562 769.715 M14.479 769.715 L14.479 763.858 L21.895 763.858 L21.895 769.715 L14.479 769.715 Z" fill="#000000" fill-rule="nonzero" fill-opacity="1" /><path clip-path="url(#clip420)" d="M42.4881 721.972 L64.0042 721.972 L64.0042 727.828 L42.679 727.828 Q37.6183 727.828 35.1038 729.802 Q32.5894 731.775 32.5894 735.722 Q32.5894 740.464 35.6131 743.202 Q38.6368 745.939 43.8567 745.939 L64.0042 745.939 L64.0042 751.827 L28.3562 751.827 L28.3562 745.939 L33.8944 745.939 Q30.6797 743.838 29.0883 741.005 Q27.4968 738.141 27.4968 734.417 Q27.4968 728.274 31.3163 725.123 Q35.1038 721.972 42.4881 721.972 Z" fill="#000000" fill-rule="nonzero" fill-opacity="1" /><path clip-path="url(#clip420)" d="M45.7664 686.833 Q39.4007 686.833 35.8996 689.475 Q32.3984 692.085 32.3984 696.827 Q32.3984 701.538 35.8996 704.18 Q39.4007 706.79 45.7664 706.79 Q52.1003 706.79 55.6014 704.18 Q59.1026 701.538 59.1026 696.827 Q59.1026 692.085 55.6014 689.475 Q52.1003 686.833 45.7664 686.833 M59.58 680.977 Q68.683 680.977 73.1071 685.019 Q77.5631 689.061 77.5631 697.4 Q77.5631 700.488 77.0857 703.225 Q76.6401 705.962 75.6852 708.54 L69.9879 708.54 Q71.3884 705.962 72.0568 703.448 Q72.7252 700.933 72.7252 698.323 Q72.7252 692.562 69.7015 689.698 Q66.7096 686.833 60.6303 686.833 L57.7339 686.833 Q60.885 688.647 62.4446 691.48 Q64.0042 694.313 64.0042 698.26 Q64.0042 704.816 59.0071 708.827 Q54.01 712.837 45.7664 712.837 Q37.491 712.837 32.4939 708.827 Q27.4968 704.816 27.4968 698.26 Q27.4968 694.313 29.0564 691.48 Q30.616 688.647 33.7671 686.833 L28.3562 686.833 L28.3562 680.977 L59.58 680.977 Z" fill="#000000" fill-rule="nonzero" fill-opacity="1" /><path clip-path="url(#clip420)" d="M18.2347 642.401 L28.3562 642.401 L28.3562 630.338 L32.9077 630.338 L32.9077 642.401 L52.2594 642.401 Q56.6199 642.401 57.8613 641.223 Q59.1026 640.013 59.1026 636.353 L59.1026 630.338 L64.0042 630.338 L64.0042 636.353 Q64.0042 643.133 61.4897 645.711 Q58.9434 648.289 52.2594 648.289 L32.9077 648.289 L32.9077 652.586 L28.3562 652.586 L28.3562 648.289 L18.2347 648.289 L18.2347 642.401 Z" fill="#000000" fill-rule="nonzero" fill-opacity="1" /><path clip-path="url(#clip420)" d="M28.3562 622.635 L28.3562 616.779 L64.0042 616.779 L64.0042 622.635 L28.3562 622.635 M14.479 622.635 L14.479 616.779 L21.895 616.779 L21.895 622.635 L14.479 622.635 Z" fill="#000000" fill-rule="nonzero" fill-opacity="1" /><path clip-path="url(#clip420)" d="M35.1993 576.77 Q31.2526 574.574 29.3747 571.518 Q27.4968 568.463 27.4968 564.325 Q27.4968 558.755 31.4117 555.732 Q35.2948 552.708 42.4881 552.708 L64.0042 552.708 L64.0042 558.596 L42.679 558.596 Q37.5546 558.596 35.072 560.41 Q32.5894 562.225 32.5894 565.948 Q32.5894 570.5 35.6131 573.142 Q38.6368 575.784 43.8567 575.784 L64.0042 575.784 L64.0042 581.672 L42.679 581.672 Q37.5228 581.672 35.072 583.486 Q32.5894 585.3 32.5894 589.088 Q32.5894 593.576 35.6449 596.217 Q38.6686 598.859 43.8567 598.859 L64.0042 598.859 L64.0042 604.747 L28.3562 604.747 L28.3562 598.859 L33.8944 598.859 Q30.616 596.854 29.0564 594.053 Q27.4968 591.252 27.4968 587.401 Q27.4968 583.518 29.4702 580.812 Q31.4436 578.075 35.1993 576.77 Z" fill="#000000" fill-rule="nonzero" fill-opacity="1" /><path clip-path="url(#clip420)" d="M44.7161 510.535 L47.5806 510.535 L47.5806 537.462 Q53.6281 537.08 56.8109 533.833 Q59.9619 530.555 59.9619 524.731 Q59.9619 521.357 59.1344 518.206 Q58.3069 515.023 56.6518 511.904 L62.1899 511.904 Q63.5267 515.055 64.227 518.365 Q64.9272 521.675 64.9272 525.081 Q64.9272 533.611 59.9619 538.608 Q54.9967 543.573 46.5303 543.573 Q37.7774 543.573 32.6531 538.862 Q27.4968 534.12 27.4968 526.099 Q27.4968 518.906 32.1438 514.736 Q36.7589 510.535 44.7161 510.535 M42.9973 516.391 Q38.1912 516.455 35.3266 519.097 Q32.4621 521.707 32.4621 526.036 Q32.4621 530.937 35.2312 533.897 Q38.0002 536.825 43.0292 537.271 L42.9973 516.391 Z" fill="#000000" fill-rule="nonzero" fill-opacity="1" /><path clip-path="url(#clip420)" d="M14.5426 466.134 Q21.8632 470.399 29.0246 472.468 Q36.186 474.537 43.5384 474.537 Q50.8908 474.537 58.1159 472.468 Q65.3091 470.367 72.5979 466.134 L72.5979 471.227 Q65.1182 476.001 57.8931 478.388 Q50.668 480.744 43.5384 480.744 Q36.4406 480.744 29.2474 478.388 Q22.0542 476.033 14.5426 471.227 L14.5426 466.134 Z" fill="#000000" fill-rule="nonzero" fill-opacity="1" /><path clip-path="url(#clip420)" d="M29.4065 432.046 L34.9447 432.046 Q33.6716 434.528 33.035 437.202 Q32.3984 439.876 32.3984 442.74 Q32.3984 447.101 33.7352 449.297 Q35.072 451.461 37.7456 451.461 Q39.7826 451.461 40.9603 449.902 Q42.1061 448.342 43.1565 443.631 L43.6021 441.626 Q44.9389 435.388 47.3897 432.778 Q49.8086 430.136 54.1691 430.136 Q59.1344 430.136 62.0308 434.083 Q64.9272 437.998 64.9272 444.873 Q64.9272 447.737 64.3543 450.857 Q63.8132 453.944 62.6992 457.381 L56.6518 457.381 Q58.3387 454.135 59.198 450.984 Q60.0256 447.833 60.0256 444.745 Q60.0256 440.608 58.6251 438.38 Q57.1929 436.152 54.6147 436.152 Q52.2276 436.152 50.9545 437.775 Q49.6813 439.366 48.5037 444.809 L48.0262 446.846 Q46.8804 452.289 44.5251 454.708 Q42.138 457.127 38.0002 457.127 Q32.9713 457.127 30.2341 453.562 Q27.4968 449.997 27.4968 443.44 Q27.4968 440.194 27.9743 437.329 Q28.4517 434.465 29.4065 432.046 Z" fill="#000000" fill-rule="nonzero" fill-opacity="1" /><path clip-path="url(#clip420)" d="M14.5426 421.733 L14.5426 416.641 Q22.0542 411.867 29.2474 409.511 Q36.4406 407.124 43.5384 407.124 Q50.668 407.124 57.8931 409.511 Q65.1182 411.867 72.5979 416.641 L72.5979 421.733 Q65.3091 417.5 58.1159 415.431 Q50.8908 413.331 43.5384 413.331 Q36.186 413.331 29.0246 415.431 Q21.8632 417.5 14.5426 421.733 Z" fill="#000000" fill-rule="nonzero" fill-opacity="1" /><path clip-path="url(#clip420)" d="M314.357 43.6931 L314.357 65.8515 L327.482 65.8515 Q334.085 65.8515 337.244 63.1374 Q340.444 60.3828 340.444 54.752 Q340.444 49.0808 337.244 46.4072 Q334.085 43.6931 327.482 43.6931 L314.357 43.6931 M314.357 18.8205 L314.357 37.0496 L326.469 37.0496 Q332.464 37.0496 335.381 34.8216 Q338.338 32.5531 338.338 27.935 Q338.338 23.3575 335.381 21.089 Q332.464 18.8205 326.469 18.8205 L314.357 18.8205 M306.174 12.096 L327.076 12.096 Q336.434 12.096 341.498 15.9849 Q346.561 19.8737 346.561 27.0438 Q346.561 32.5936 343.969 35.8748 Q341.376 39.156 336.353 39.9662 Q342.389 41.2625 345.711 45.3944 Q349.073 49.4858 349.073 55.6432 Q349.073 63.745 343.564 68.1605 Q338.054 72.576 327.887 72.576 L306.174 72.576 L306.174 12.096 Z" fill="#000000" fill-rule="nonzero" fill-opacity="1" /><path clip-path="url(#clip420)" d="M380.346 32.4315 Q374.351 32.4315 370.867 37.1306 Q367.383 41.7891 367.383 49.9314 Q367.383 58.0738 370.826 62.7728 Q374.31 67.4314 380.346 67.4314 Q386.301 67.4314 389.784 62.7323 Q393.268 58.0333 393.268 49.9314 Q393.268 41.8701 389.784 37.1711 Q386.301 32.4315 380.346 32.4315 M380.346 26.1121 Q390.068 26.1121 395.618 32.4315 Q401.168 38.7509 401.168 49.9314 Q401.168 61.0714 395.618 67.4314 Q390.068 73.7508 380.346 73.7508 Q370.583 73.7508 365.033 67.4314 Q359.524 61.0714 359.524 49.9314 Q359.524 38.7509 365.033 32.4315 Q370.583 26.1121 380.346 26.1121 Z" fill="#000000" fill-rule="nonzero" fill-opacity="1" /><path clip-path="url(#clip420)" d="M451.237 45.1919 L451.237 72.576 L443.783 72.576 L443.783 45.4349 Q443.783 38.994 441.271 35.7938 Q438.76 32.5936 433.737 32.5936 Q427.701 32.5936 424.217 36.4419 Q420.733 40.2903 420.733 46.9338 L420.733 72.576 L413.239 72.576 L413.239 27.2059 L420.733 27.2059 L420.733 34.2544 Q423.407 30.163 427.012 28.1376 Q430.658 26.1121 435.398 26.1121 Q443.216 26.1121 447.226 30.9732 Q451.237 35.7938 451.237 45.1919 Z" fill="#000000" fill-rule="nonzero" fill-opacity="1" /><path clip-path="url(#clip420)" d="M495.959 34.0924 L495.959 9.54393 L503.412 9.54393 L503.412 72.576 L495.959 72.576 L495.959 65.7705 Q493.609 69.8214 490.004 71.8063 Q486.439 73.7508 481.416 73.7508 Q473.193 73.7508 468.007 67.1883 Q462.863 60.6258 462.863 49.9314 Q462.863 39.2371 468.007 32.6746 Q473.193 26.1121 481.416 26.1121 Q486.439 26.1121 490.004 28.0971 Q493.609 30.0415 495.959 34.0924 M470.56 49.9314 Q470.56 58.1548 473.922 62.8538 Q477.325 67.5124 483.239 67.5124 Q489.153 67.5124 492.556 62.8538 Q495.959 58.1548 495.959 49.9314 Q495.959 41.7081 492.556 37.0496 Q489.153 32.3505 483.239 32.3505 Q477.325 32.3505 473.922 37.0496 Q470.56 41.7081 470.56 49.9314 Z" fill="#000000" fill-rule="nonzero" fill-opacity="1" /><path clip-path="url(#clip420)" d="M574.992 34.0924 L574.992 9.54393 L582.445 9.54393 L582.445 72.576 L574.992 72.576 L574.992 65.7705 Q572.642 69.8214 569.037 71.8063 Q565.472 73.7508 560.449 73.7508 Q552.226 73.7508 547.041 67.1883 Q541.896 60.6258 541.896 49.9314 Q541.896 39.2371 547.041 32.6746 Q552.226 26.1121 560.449 26.1121 Q565.472 26.1121 569.037 28.0971 Q572.642 30.0415 574.992 34.0924 M549.593 49.9314 Q549.593 58.1548 552.955 62.8538 Q556.358 67.5124 562.272 67.5124 Q568.186 67.5124 571.589 62.8538 Q574.992 58.1548 574.992 49.9314 Q574.992 41.7081 571.589 37.0496 Q568.186 32.3505 562.272 32.3505 Q556.358 32.3505 552.955 37.0496 Q549.593 41.7081 549.593 49.9314 Z" fill="#000000" fill-rule="nonzero" fill-opacity="1" /><path clip-path="url(#clip420)" d="M597.798 27.2059 L605.252 27.2059 L605.252 72.576 L597.798 72.576 L597.798 27.2059 M597.798 9.54393 L605.252 9.54393 L605.252 18.9825 L597.798 18.9825 L597.798 9.54393 Z" fill="#000000" fill-rule="nonzero" fill-opacity="1" /><path clip-path="url(#clip420)" d="M656.172 35.9153 Q658.967 30.8922 662.856 28.5022 Q666.745 26.1121 672.011 26.1121 Q679.1 26.1121 682.948 31.0947 Q686.797 36.0368 686.797 45.1919 L686.797 72.576 L679.303 72.576 L679.303 45.4349 Q679.303 38.913 676.994 35.7533 Q674.685 32.5936 669.945 32.5936 Q664.152 32.5936 660.79 36.4419 Q657.428 40.2903 657.428 46.9338 L657.428 72.576 L649.934 72.576 L649.934 45.4349 Q649.934 38.8725 647.625 35.7533 Q645.316 32.5936 640.495 32.5936 Q634.783 32.5936 631.421 36.4824 Q628.059 40.3308 628.059 46.9338 L628.059 72.576 L620.565 72.576 L620.565 27.2059 L628.059 27.2059 L628.059 34.2544 Q630.611 30.082 634.176 28.0971 Q637.74 26.1121 642.642 26.1121 Q647.584 26.1121 651.027 28.6237 Q654.511 31.1352 656.172 35.9153 Z" fill="#000000" fill-rule="nonzero" fill-opacity="1" /><path clip-path="url(#clip420)" d="M740.471 48.0275 L740.471 51.6733 L706.201 51.6733 Q706.687 59.3701 710.819 63.421 Q714.991 67.4314 722.404 67.4314 Q726.698 67.4314 730.709 66.3781 Q734.759 65.3249 738.729 63.2184 L738.729 70.267 Q734.719 71.9684 730.506 72.8596 Q726.293 73.7508 721.959 73.7508 Q711.102 73.7508 704.742 67.4314 Q698.423 61.1119 698.423 50.3365 Q698.423 39.1965 704.418 32.6746 Q710.454 26.1121 720.662 26.1121 Q729.817 26.1121 735.124 32.0264 Q740.471 37.9003 740.471 48.0275 M733.018 45.84 Q732.937 39.7232 729.574 36.0774 Q726.253 32.4315 720.743 32.4315 Q714.505 32.4315 710.738 35.9558 Q707.011 39.4801 706.444 45.8805 L733.018 45.84 Z" fill="#000000" fill-rule="nonzero" fill-opacity="1" /><path clip-path="url(#clip420)" d="M790.419 45.1919 L790.419 72.576 L782.965 72.576 L782.965 45.4349 Q782.965 38.994 780.454 35.7938 Q777.942 32.5936 772.919 32.5936 Q766.883 32.5936 763.399 36.4419 Q759.916 40.2903 759.916 46.9338 L759.916 72.576 L752.421 72.576 L752.421 27.2059 L759.916 27.2059 L759.916 34.2544 Q762.589 30.163 766.195 28.1376 Q769.84 26.1121 774.58 26.1121 Q782.398 26.1121 786.409 30.9732 Q790.419 35.7938 790.419 45.1919 Z" fill="#000000" fill-rule="nonzero" fill-opacity="1" /><path clip-path="url(#clip420)" d="M834.209 28.5427 L834.209 35.5912 Q831.049 33.9709 827.647 33.1607 Q824.244 32.3505 820.598 32.3505 Q815.048 32.3505 812.253 34.0519 Q809.499 35.7533 809.499 39.156 Q809.499 41.7486 811.484 43.2475 Q813.469 44.7058 819.464 46.0426 L822.016 46.6097 Q829.956 48.3111 833.277 51.4303 Q836.64 54.509 836.64 60.0587 Q836.64 66.3781 831.617 70.0644 Q826.634 73.7508 817.884 73.7508 Q814.238 73.7508 810.268 73.0216 Q806.339 72.3329 801.964 70.9151 L801.964 63.2184 Q806.096 65.3654 810.106 66.4591 Q814.117 67.5124 818.046 67.5124 Q823.312 67.5124 826.148 65.73 Q828.984 63.9071 828.984 60.6258 Q828.984 57.5877 826.918 55.9673 Q824.892 54.3469 817.965 52.8481 L815.372 52.2405 Q808.445 50.7821 805.367 47.7845 Q802.288 44.7463 802.288 39.4801 Q802.288 33.0797 806.825 29.5959 Q811.362 26.1121 819.707 26.1121 Q823.839 26.1121 827.485 26.7198 Q831.131 27.3274 834.209 28.5427 Z" fill="#000000" fill-rule="nonzero" fill-opacity="1" /><path clip-path="url(#clip420)" d="M848.509 27.2059 L855.963 27.2059 L855.963 72.576 L848.509 72.576 L848.509 27.2059 M848.509 9.54393 L855.963 9.54393 L855.963 18.9825 L848.509 18.9825 L848.509 9.54393 Z" fill="#000000" fill-rule="nonzero" fill-opacity="1" /><path clip-path="url(#clip420)" d="M889.139 32.4315 Q883.144 32.4315 879.66 37.1306 Q876.177 41.7891 876.177 49.9314 Q876.177 58.0738 879.62 62.7728 Q883.104 67.4314 889.139 67.4314 Q895.094 67.4314 898.578 62.7323 Q902.062 58.0333 902.062 49.9314 Q902.062 41.8701 898.578 37.1711 Q895.094 32.4315 889.139 32.4315 M889.139 26.1121 Q898.862 26.1121 904.411 32.4315 Q909.961 38.7509 909.961 49.9314 Q909.961 61.0714 904.411 67.4314 Q898.862 73.7508 889.139 73.7508 Q879.377 73.7508 873.827 67.4314 Q868.318 61.0714 868.318 49.9314 Q868.318 38.7509 873.827 32.4315 Q879.377 26.1121 889.139 26.1121 Z" fill="#000000" fill-rule="nonzero" fill-opacity="1" /><path clip-path="url(#clip420)" d="M960.03 45.1919 L960.03 72.576 L952.577 72.576 L952.577 45.4349 Q952.577 38.994 950.065 35.7938 Q947.553 32.5936 942.53 32.5936 Q936.495 32.5936 933.011 36.4419 Q929.527 40.2903 929.527 46.9338 L929.527 72.576 L922.033 72.576 L922.033 27.2059 L929.527 27.2059 L929.527 34.2544 Q932.201 30.163 935.806 28.1376 Q939.452 26.1121 944.191 26.1121 Q952.009 26.1121 956.02 30.9732 Q960.03 35.7938 960.03 45.1919 Z" fill="#000000" fill-rule="nonzero" fill-opacity="1" /><path clip-path="url(#clip420)" d="M1023.1 82.7033 L1017.07 67.1883 L1004.63 89.8734 L995.84 89.8734 L1013.42 57.7902 L1006.05 38.7104 Q1004.06 33.6063 997.825 33.6063 L995.84 33.6063 L995.84 27.2059 L998.676 27.2869 Q1009.13 27.5705 1011.76 34.3355 L1017.76 49.8504 L1030.19 27.1654 L1038.98 27.1654 L1021.4 59.2485 L1028.77 78.3283 Q1030.76 83.4324 1037 83.4324 L1038.98 83.4324 L1038.98 89.8329 L1036.15 89.7518 Q1025.7 89.4683 1023.1 82.7033 Z" fill="#000000" fill-rule="nonzero" fill-opacity="1" /><path clip-path="url(#clip420)" d="M1067.5 12.096 L1118.66 12.096 L1118.66 18.9825 L1097.19 18.9825 L1097.19 72.576 L1088.97 72.576 L1088.97 18.9825 L1067.5 18.9825 L1067.5 12.096 Z" fill="#000000" fill-rule="nonzero" fill-opacity="1" /><path clip-path="url(#clip420)" d="M1123.69 27.2059 L1131.14 27.2059 L1131.14 72.576 L1123.69 72.576 L1123.69 27.2059 M1123.69 9.54393 L1131.14 9.54393 L1131.14 18.9825 L1123.69 18.9825 L1123.69 9.54393 Z" fill="#000000" fill-rule="nonzero" fill-opacity="1" /><path clip-path="url(#clip420)" d="M1182.06 35.9153 Q1184.86 30.8922 1188.74 28.5022 Q1192.63 26.1121 1197.9 26.1121 Q1204.99 26.1121 1208.84 31.0947 Q1212.69 36.0368 1212.69 45.1919 L1212.69 72.576 L1205.19 72.576 L1205.19 45.4349 Q1205.19 38.913 1202.88 35.7533 Q1200.57 32.5936 1195.83 32.5936 Q1190.04 32.5936 1186.68 36.4419 Q1183.32 40.2903 1183.32 46.9338 L1183.32 72.576 L1175.82 72.576 L1175.82 45.4349 Q1175.82 38.8725 1173.51 35.7533 Q1171.2 32.5936 1166.38 32.5936 Q1160.67 32.5936 1157.31 36.4824 Q1153.95 40.3308 1153.95 46.9338 L1153.95 72.576 L1146.45 72.576 L1146.45 27.2059 L1153.95 27.2059 L1153.95 34.2544 Q1156.5 30.082 1160.06 28.0971 Q1163.63 26.1121 1168.53 26.1121 Q1173.47 26.1121 1176.92 28.6237 Q1180.4 31.1352 1182.06 35.9153 Z" fill="#000000" fill-rule="nonzero" fill-opacity="1" /><path clip-path="url(#clip420)" d="M1266.36 48.0275 L1266.36 51.6733 L1232.09 51.6733 Q1232.58 59.3701 1236.71 63.421 Q1240.88 67.4314 1248.29 67.4314 Q1252.59 67.4314 1256.6 66.3781 Q1260.65 65.3249 1264.62 63.2184 L1264.62 70.267 Q1260.61 71.9684 1256.39 72.8596 Q1252.18 73.7508 1247.85 73.7508 Q1236.99 73.7508 1230.63 67.4314 Q1224.31 61.1119 1224.31 50.3365 Q1224.31 39.1965 1230.31 32.6746 Q1236.34 26.1121 1246.55 26.1121 Q1255.71 26.1121 1261.01 32.0264 Q1266.36 37.9003 1266.36 48.0275 M1258.91 45.84 Q1258.82 39.7232 1255.46 36.0774 Q1252.14 32.4315 1246.63 32.4315 Q1240.39 32.4315 1236.63 35.9558 Q1232.9 39.4801 1232.33 45.8805 L1258.91 45.84 Z" fill="#000000" fill-rule="nonzero" fill-opacity="1" /><path clip-path="url(#clip420)" d="M1350.58 16.7545 L1350.58 25.383 Q1346.45 21.5346 1341.75 19.6307 Q1337.09 17.7268 1331.82 17.7268 Q1321.45 17.7268 1315.94 24.0867 Q1310.43 30.4061 1310.43 42.3968 Q1310.43 54.3469 1315.94 60.7069 Q1321.45 67.0263 1331.82 67.0263 Q1337.09 67.0263 1341.75 65.1223 Q1346.45 63.2184 1350.58 59.3701 L1350.58 67.9175 Q1346.28 70.8341 1341.46 72.2924 Q1336.68 73.7508 1331.34 73.7508 Q1317.6 73.7508 1309.7 65.3654 Q1301.81 56.9395 1301.81 42.3968 Q1301.81 27.8135 1309.7 19.4281 Q1317.6 11.0023 1331.34 11.0023 Q1336.76 11.0023 1341.54 12.4606 Q1346.37 13.8784 1350.58 16.7545 Z" fill="#000000" fill-rule="nonzero" fill-opacity="1" /><path clip-path="url(#clip420)" d="M1380.47 32.4315 Q1374.48 32.4315 1370.99 37.1306 Q1367.51 41.7891 1367.51 49.9314 Q1367.51 58.0738 1370.95 62.7728 Q1374.44 67.4314 1380.47 67.4314 Q1386.43 67.4314 1389.91 62.7323 Q1393.4 58.0333 1393.4 49.9314 Q1393.4 41.8701 1389.91 37.1711 Q1386.43 32.4315 1380.47 32.4315 M1380.47 26.1121 Q1390.2 26.1121 1395.75 32.4315 Q1401.3 38.7509 1401.3 49.9314 Q1401.3 61.0714 1395.75 67.4314 Q1390.2 73.7508 1380.47 73.7508 Q1370.71 73.7508 1365.16 67.4314 Q1359.65 61.0714 1359.65 49.9314 Q1359.65 38.7509 1365.16 32.4315 Q1370.71 26.1121 1380.47 26.1121 Z" fill="#000000" fill-rule="nonzero" fill-opacity="1" /><path clip-path="url(#clip420)" d="M1448.97 35.9153 Q1451.77 30.8922 1455.66 28.5022 Q1459.55 26.1121 1464.81 26.1121 Q1471.9 26.1121 1475.75 31.0947 Q1479.6 36.0368 1479.6 45.1919 L1479.6 72.576 L1472.11 72.576 L1472.11 45.4349 Q1472.11 38.913 1469.8 35.7533 Q1467.49 32.5936 1462.75 32.5936 Q1456.95 32.5936 1453.59 36.4419 Q1450.23 40.2903 1450.23 46.9338 L1450.23 72.576 L1442.74 72.576 L1442.74 45.4349 Q1442.74 38.8725 1440.43 35.7533 Q1438.12 32.5936 1433.3 32.5936 Q1427.59 32.5936 1424.22 36.4824 Q1420.86 40.3308 1420.86 46.9338 L1420.86 72.576 L1413.37 72.576 L1413.37 27.2059 L1420.86 27.2059 L1420.86 34.2544 Q1423.41 30.082 1426.98 28.0971 Q1430.54 26.1121 1435.44 26.1121 Q1440.39 26.1121 1443.83 28.6237 Q1447.31 31.1352 1448.97 35.9153 Z" fill="#000000" fill-rule="nonzero" fill-opacity="1" /><path clip-path="url(#clip420)" d="M1501.68 65.7705 L1501.68 89.8329 L1494.18 89.8329 L1494.18 27.2059 L1501.68 27.2059 L1501.68 34.0924 Q1504.03 30.0415 1507.59 28.0971 Q1511.2 26.1121 1516.18 26.1121 Q1524.44 26.1121 1529.59 32.6746 Q1534.77 39.2371 1534.77 49.9314 Q1534.77 60.6258 1529.59 67.1883 Q1524.44 73.7508 1516.18 73.7508 Q1511.2 73.7508 1507.59 71.8063 Q1504.03 69.8214 1501.68 65.7705 M1527.04 49.9314 Q1527.04 41.7081 1523.63 37.0496 Q1520.27 32.3505 1514.36 32.3505 Q1508.44 32.3505 1505.04 37.0496 Q1501.68 41.7081 1501.68 49.9314 Q1501.68 58.1548 1505.04 62.8538 Q1508.44 67.5124 1514.36 67.5124 Q1520.27 67.5124 1523.63 62.8538 Q1527.04 58.1548 1527.04 49.9314 Z" fill="#000000" fill-rule="nonzero" fill-opacity="1" /><path clip-path="url(#clip420)" d="M1547.13 9.54393 L1554.58 9.54393 L1554.58 72.576 L1547.13 72.576 L1547.13 9.54393 Z" fill="#000000" fill-rule="nonzero" fill-opacity="1" /><path clip-path="url(#clip420)" d="M1608.99 48.0275 L1608.99 51.6733 L1574.71 51.6733 Q1575.2 59.3701 1579.33 63.421 Q1583.5 67.4314 1590.92 67.4314 Q1595.21 67.4314 1599.22 66.3781 Q1603.27 65.3249 1607.24 63.2184 L1607.24 70.267 Q1603.23 71.9684 1599.02 72.8596 Q1594.81 73.7508 1590.47 73.7508 Q1579.62 73.7508 1573.26 67.4314 Q1566.94 61.1119 1566.94 50.3365 Q1566.94 39.1965 1572.93 32.6746 Q1578.97 26.1121 1589.18 26.1121 Q1598.33 26.1121 1603.64 32.0264 Q1608.99 37.9003 1608.99 48.0275 M1601.53 45.84 Q1601.45 39.7232 1598.09 36.0774 Q1594.77 32.4315 1589.26 32.4315 Q1583.02 32.4315 1579.25 35.9558 Q1575.52 39.4801 1574.96 45.8805 L1601.53 45.84 Z" fill="#000000" fill-rule="nonzero" fill-opacity="1" /><path clip-path="url(#clip420)" d="M1657.47 27.2059 L1641.07 49.2833 L1658.33 72.576 L1649.53 72.576 L1636.33 54.752 L1623.12 72.576 L1614.33 72.576 L1631.95 48.8377 L1615.83 27.2059 L1624.62 27.2059 L1636.65 43.369 L1648.68 27.2059 L1657.47 27.2059 Z" fill="#000000" fill-rule="nonzero" fill-opacity="1" /><path clip-path="url(#clip420)" d="M1668.86 27.2059 L1676.31 27.2059 L1676.31 72.576 L1668.86 72.576 L1668.86 27.2059 M1668.86 9.54393 L1676.31 9.54393 L1676.31 18.9825 L1668.86 18.9825 L1668.86 9.54393 Z" fill="#000000" fill-rule="nonzero" fill-opacity="1" /><path clip-path="url(#clip420)" d="M1699.28 14.324 L1699.28 27.2059 L1714.63 27.2059 L1714.63 32.9987 L1699.28 32.9987 L1699.28 57.6282 Q1699.28 63.1779 1700.78 64.7578 Q1702.32 66.3376 1706.98 66.3376 L1714.63 66.3376 L1714.63 72.576 L1706.98 72.576 Q1698.35 72.576 1695.07 69.3758 Q1691.79 66.1351 1691.79 57.6282 L1691.79 32.9987 L1686.32 32.9987 L1686.32 27.2059 L1691.79 27.2059 L1691.79 14.324 L1699.28 14.324 Z" fill="#000000" fill-rule="nonzero" fill-opacity="1" /><path clip-path="url(#clip420)" d="M1743.31 76.7889 Q1740.15 84.8907 1737.16 87.3618 Q1734.16 89.8329 1729.13 89.8329 L1723.18 89.8329 L1723.18 83.5945 L1727.56 83.5945 Q1730.63 83.5945 1732.34 82.1361 Q1734.04 80.6778 1736.1 75.2496 L1737.44 71.8468 L1719.09 27.2059 L1726.99 27.2059 L1741.17 62.6918 L1755.34 27.2059 L1763.24 27.2059 L1743.31 76.7889 Z" fill="#000000" fill-rule="nonzero" fill-opacity="1" /><path clip-path="url(#clip420)" d="M1775.44 62.2867 L1783.98 62.2867 L1783.98 69.2543 L1777.34 82.2172 L1772.12 82.2172 L1775.44 69.2543 L1775.44 62.2867 Z" fill="#000000" fill-rule="nonzero" fill-opacity="1" /><path clip-path="url(#clip420)" d="M1861.6 35.9153 Q1864.39 30.8922 1868.28 28.5022 Q1872.17 26.1121 1877.44 26.1121 Q1884.53 26.1121 1888.38 31.0947 Q1892.22 36.0368 1892.22 45.1919 L1892.22 72.576 L1884.73 72.576 L1884.73 45.4349 Q1884.73 38.913 1882.42 35.7533 Q1880.11 32.5936 1875.37 32.5936 Q1869.58 32.5936 1866.22 36.4419 Q1862.86 40.2903 1862.86 46.9338 L1862.86 72.576 L1855.36 72.576 L1855.36 45.4349 Q1855.36 38.8725 1853.05 35.7533 Q1850.74 32.5936 1845.92 32.5936 Q1840.21 32.5936 1836.85 36.4824 Q1833.49 40.3308 1833.49 46.9338 L1833.49 72.576 L1825.99 72.576 L1825.99 27.2059 L1833.49 27.2059 L1833.49 34.2544 Q1836.04 30.082 1839.6 28.0971 Q1843.17 26.1121 1848.07 26.1121 Q1853.01 26.1121 1856.45 28.6237 Q1859.94 31.1352 1861.6 35.9153 Z" fill="#000000" fill-rule="nonzero" fill-opacity="1" /><path clip-path="url(#clip420)" d="M1934.43 34.9026 L1986.37 34.9026 L1986.37 41.7081 L1934.43 41.7081 L1934.43 34.9026 M1934.43 51.4303 L1986.37 51.4303 L1986.37 58.3168 L1934.43 58.3168 L1934.43 51.4303 Z" fill="#000000" fill-rule="nonzero" fill-opacity="1" /><path clip-path="url(#clip420)" d="M2031.82 65.6895 L2045.19 65.6895 L2045.19 19.5497 L2030.64 22.4663 L2030.64 15.0127 L2045.11 12.096 L2053.29 12.096 L2053.29 65.6895 L2066.66 65.6895 L2066.66 72.576 L2031.82 72.576 L2031.82 65.6895 Z" fill="#000000" fill-rule="nonzero" fill-opacity="1" /><path clip-path="url(#clip420)" d="M2083.18 62.2867 L2091.73 62.2867 L2091.73 72.576 L2083.18 72.576 L2083.18 62.2867 Z" fill="#000000" fill-rule="nonzero" fill-opacity="1" /><path clip-path="url(#clip420)" d="M2110.97 65.6895 L2124.34 65.6895 L2124.34 19.5497 L2109.8 22.4663 L2109.8 15.0127 L2124.26 12.096 L2132.44 12.096 L2132.44 65.6895 L2145.81 65.6895 L2145.81 72.576 L2110.97 72.576 L2110.97 65.6895 Z" fill="#000000" fill-rule="nonzero" fill-opacity="1" /><path clip-path="url(#clip420)" d="M2184.82 19.2256 L2164.16 51.5113 L2184.82 51.5113 L2184.82 19.2256 M2182.67 12.096 L2192.96 12.096 L2192.96 51.5113 L2201.59 51.5113 L2201.59 58.3168 L2192.96 58.3168 L2192.96 72.576 L2184.82 72.576 L2184.82 58.3168 L2157.52 58.3168 L2157.52 50.4176 L2182.67 12.096 Z" fill="#000000" fill-rule="nonzero" fill-opacity="1" /><path clip-path="url(#clip420)" d="M2216.54 65.6895 L2229.91 65.6895 L2229.91 19.5497 L2215.36 22.4663 L2215.36 15.0127 L2229.83 12.096 L2238.01 12.096 L2238.01 65.6895 L2251.38 65.6895 L2251.38 72.576 L2216.54 72.576 L2216.54 65.6895 Z" fill="#000000" fill-rule="nonzero" fill-opacity="1" /><path clip-path="url(#clip420)" d="M2269.32 65.6895 L2282.69 65.6895 L2282.69 19.5497 L2268.15 22.4663 L2268.15 15.0127 L2282.61 12.096 L2290.79 12.096 L2290.79 65.6895 L2304.16 65.6895 L2304.16 72.576 L2269.32 72.576 L2269.32 65.6895 Z" fill="#000000" fill-rule="nonzero" fill-opacity="1" /><polyline clip-path="url(#clip422)" style="stroke:#ffa500; stroke-linecap:round; stroke-linejoin:round; stroke-width:8; stroke-opacity:1; fill:none" points="316.876,1339.46 742.51,1329.54 991.49,1274.46 1168.14,1104.42 1305.17,1022.83 1417.12,1035.19 1511.78,972.596 1593.78,903.425 1666.1,865.044 1730.8,815.693 1789.33,748.015 1842.76,643.864 1891.91,659.013 1937.42,613.736 1979.78,556.361 2019.41,488.39 2056.64,445.436 2091.74,405.241 2124.94,383.758 2156.43,370.972 2186.4,338.413 2214.96,294.43 2242.26,239.028 2268.39,205.858 2293.46,173.128 "/>
<polyline clip-path="url(#clip422)" style="stroke:#000000; stroke-linecap:round; stroke-linejoin:round; stroke-width:4; stroke-opacity:1; fill:none" points="316.876,1374.46 316.876,1307.53 "/>
<polyline clip-path="url(#clip422)" style="stroke:#000000; stroke-linecap:round; stroke-linejoin:round; stroke-width:4; stroke-opacity:1; fill:none" points="742.51,1347.66 742.51,1312.28 "/>
<polyline clip-path="url(#clip422)" style="stroke:#000000; stroke-linecap:round; stroke-linejoin:round; stroke-width:4; stroke-opacity:1; fill:none" points="991.49,1278.05 991.49,1270.91 "/>
<polyline clip-path="url(#clip422)" style="stroke:#000000; stroke-linecap:round; stroke-linejoin:round; stroke-width:4; stroke-opacity:1; fill:none" points="1168.14,1169.34 1168.14,1049.36 "/>
<polyline clip-path="url(#clip422)" style="stroke:#000000; stroke-linecap:round; stroke-linejoin:round; stroke-width:4; stroke-opacity:1; fill:none" points="1305.17,1113.11 1305.17,950.572 "/>
<polyline clip-path="url(#clip422)" style="stroke:#000000; stroke-linecap:round; stroke-linejoin:round; stroke-width:4; stroke-opacity:1; fill:none" points="1417.12,1048.24 1417.12,1022.6 "/>
<polyline clip-path="url(#clip422)" style="stroke:#000000; stroke-linecap:round; stroke-linejoin:round; stroke-width:4; stroke-opacity:1; fill:none" points="1511.78,985.566 1511.78,960.073 "/>
<polyline clip-path="url(#clip422)" style="stroke:#000000; stroke-linecap:round; stroke-linejoin:round; stroke-width:4; stroke-opacity:1; fill:none" points="1593.78,910.977 1593.78,896.027 "/>
<polyline clip-path="url(#clip422)" style="stroke:#000000; stroke-linecap:round; stroke-linejoin:round; stroke-width:4; stroke-opacity:1; fill:none" points="1666.1,868.746 1666.1,861.381 "/>
<polyline clip-path="url(#clip422)" style="stroke:#000000; stroke-linecap:round; stroke-linejoin:round; stroke-width:4; stroke-opacity:1; fill:none" points="1730.8,817.503 1730.8,813.891 "/>
<polyline clip-path="url(#clip422)" style="stroke:#000000; stroke-linecap:round; stroke-linejoin:round; stroke-width:4; stroke-opacity:1; fill:none" points="1789.33,763.609 1789.33,733.063 "/>
<polyline clip-path="url(#clip422)" style="stroke:#000000; stroke-linecap:round; stroke-linejoin:round; stroke-width:4; stroke-opacity:1; fill:none" points="1842.76,743.753 1842.76,565.592 "/>
<polyline clip-path="url(#clip422)" style="stroke:#000000; stroke-linecap:round; stroke-linejoin:round; stroke-width:4; stroke-opacity:1; fill:none" points="1891.91,674.742 1891.91,643.935 "/>
<polyline clip-path="url(#clip422)" style="stroke:#000000; stroke-linecap:round; stroke-linejoin:round; stroke-width:4; stroke-opacity:1; fill:none" points="1937.42,625.759 1937.42,602.097 "/>
<polyline clip-path="url(#clip422)" style="stroke:#000000; stroke-linecap:round; stroke-linejoin:round; stroke-width:4; stroke-opacity:1; fill:none" points="1979.78,571.634 1979.78,541.704 "/>
<polyline clip-path="url(#clip422)" style="stroke:#000000; stroke-linecap:round; stroke-linejoin:round; stroke-width:4; stroke-opacity:1; fill:none" points="2019.41,501.552 2019.41,475.688 "/>
<polyline clip-path="url(#clip422)" style="stroke:#000000; stroke-linecap:round; stroke-linejoin:round; stroke-width:4; stroke-opacity:1; fill:none" points="2056.64,465.873 2056.64,426.087 "/>
<polyline clip-path="url(#clip422)" style="stroke:#000000; stroke-linecap:round; stroke-linejoin:round; stroke-width:4; stroke-opacity:1; fill:none" points="2091.74,427.395 2091.74,384.361 "/>
<polyline clip-path="url(#clip422)" style="stroke:#000000; stroke-linecap:round; stroke-linejoin:round; stroke-width:4; stroke-opacity:1; fill:none" points="2124.94,397.001 2124.94,370.981 "/>
<polyline clip-path="url(#clip422)" style="stroke:#000000; stroke-linecap:round; stroke-linejoin:round; stroke-width:4; stroke-opacity:1; fill:none" points="2156.43,372.548 2156.43,369.404 "/>
<polyline clip-path="url(#clip422)" style="stroke:#000000; stroke-linecap:round; stroke-linejoin:round; stroke-width:4; stroke-opacity:1; fill:none" points="2186.4,339.608 2186.4,337.223 "/>
<polyline clip-path="url(#clip422)" style="stroke:#000000; stroke-linecap:round; stroke-linejoin:round; stroke-width:4; stroke-opacity:1; fill:none" points="2214.96,304.304 2214.96,284.818 "/>
<polyline clip-path="url(#clip422)" style="stroke:#000000; stroke-linecap:round; stroke-linejoin:round; stroke-width:4; stroke-opacity:1; fill:none" points="2242.26,260.951 2242.26,218.353 "/>
<polyline clip-path="url(#clip422)" style="stroke:#000000; stroke-linecap:round; stroke-linejoin:round; stroke-width:4; stroke-opacity:1; fill:none" points="2268.39,229.694 2268.39,183.489 "/>
<polyline clip-path="url(#clip422)" style="stroke:#000000; stroke-linecap:round; stroke-linejoin:round; stroke-width:4; stroke-opacity:1; fill:none" points="2293.46,186.847 2293.46,159.909 "/>
<line clip-path="url(#clip422)" x1="332.876" y1="1374.46" x2="300.876" y2="1374.46" style="stroke:#000000; stroke-width:4; stroke-opacity:1"/>
<line clip-path="url(#clip422)" x1="332.876" y1="1307.53" x2="300.876" y2="1307.53" style="stroke:#000000; stroke-width:4; stroke-opacity:1"/>
<line clip-path="url(#clip422)" x1="758.51" y1="1347.66" x2="726.51" y2="1347.66" style="stroke:#000000; stroke-width:4; stroke-opacity:1"/>
<line clip-path="url(#clip422)" x1="758.51" y1="1312.28" x2="726.51" y2="1312.28" style="stroke:#000000; stroke-width:4; stroke-opacity:1"/>
<line clip-path="url(#clip422)" x1="1007.49" y1="1278.05" x2="975.49" y2="1278.05" style="stroke:#000000; stroke-width:4; stroke-opacity:1"/>
<line clip-path="url(#clip422)" x1="1007.49" y1="1270.91" x2="975.49" y2="1270.91" style="stroke:#000000; stroke-width:4; stroke-opacity:1"/>
<line clip-path="url(#clip422)" x1="1184.14" y1="1169.34" x2="1152.14" y2="1169.34" style="stroke:#000000; stroke-width:4; stroke-opacity:1"/>
<line clip-path="url(#clip422)" x1="1184.14" y1="1049.36" x2="1152.14" y2="1049.36" style="stroke:#000000; stroke-width:4; stroke-opacity:1"/>
<line clip-path="url(#clip422)" x1="1321.17" y1="1113.11" x2="1289.17" y2="1113.11" style="stroke:#000000; stroke-width:4; stroke-opacity:1"/>
<line clip-path="url(#clip422)" x1="1321.17" y1="950.572" x2="1289.17" y2="950.572" style="stroke:#000000; stroke-width:4; stroke-opacity:1"/>
<line clip-path="url(#clip422)" x1="1433.12" y1="1048.24" x2="1401.12" y2="1048.24" style="stroke:#000000; stroke-width:4; stroke-opacity:1"/>
<line clip-path="url(#clip422)" x1="1433.12" y1="1022.6" x2="1401.12" y2="1022.6" style="stroke:#000000; stroke-width:4; stroke-opacity:1"/>
<line clip-path="url(#clip422)" x1="1527.78" y1="985.566" x2="1495.78" y2="985.566" style="stroke:#000000; stroke-width:4; stroke-opacity:1"/>
<line clip-path="url(#clip422)" x1="1527.78" y1="960.073" x2="1495.78" y2="960.073" style="stroke:#000000; stroke-width:4; stroke-opacity:1"/>
<line clip-path="url(#clip422)" x1="1609.78" y1="910.977" x2="1577.78" y2="910.977" style="stroke:#000000; stroke-width:4; stroke-opacity:1"/>
<line clip-path="url(#clip422)" x1="1609.78" y1="896.027" x2="1577.78" y2="896.027" style="stroke:#000000; stroke-width:4; stroke-opacity:1"/>
<line clip-path="url(#clip422)" x1="1682.1" y1="868.746" x2="1650.1" y2="868.746" style="stroke:#000000; stroke-width:4; stroke-opacity:1"/>
<line clip-path="url(#clip422)" x1="1682.1" y1="861.381" x2="1650.1" y2="861.381" style="stroke:#000000; stroke-width:4; stroke-opacity:1"/>
<line clip-path="url(#clip422)" x1="1746.8" y1="817.503" x2="1714.8" y2="817.503" style="stroke:#000000; stroke-width:4; stroke-opacity:1"/>
<line clip-path="url(#clip422)" x1="1746.8" y1="813.891" x2="1714.8" y2="813.891" style="stroke:#000000; stroke-width:4; stroke-opacity:1"/>
<line clip-path="url(#clip422)" x1="1805.33" y1="763.609" x2="1773.33" y2="763.609" style="stroke:#000000; stroke-width:4; stroke-opacity:1"/>
<line clip-path="url(#clip422)" x1="1805.33" y1="733.063" x2="1773.33" y2="733.063" style="stroke:#000000; stroke-width:4; stroke-opacity:1"/>
<line clip-path="url(#clip422)" x1="1858.76" y1="743.753" x2="1826.76" y2="743.753" style="stroke:#000000; stroke-width:4; stroke-opacity:1"/>
<line clip-path="url(#clip422)" x1="1858.76" y1="565.592" x2="1826.76" y2="565.592" style="stroke:#000000; stroke-width:4; stroke-opacity:1"/>
<line clip-path="url(#clip422)" x1="1907.91" y1="674.742" x2="1875.91" y2="674.742" style="stroke:#000000; stroke-width:4; stroke-opacity:1"/>
<line clip-path="url(#clip422)" x1="1907.91" y1="643.935" x2="1875.91" y2="643.935" style="stroke:#000000; stroke-width:4; stroke-opacity:1"/>
<line clip-path="url(#clip422)" x1="1953.42" y1="625.759" x2="1921.42" y2="625.759" style="stroke:#000000; stroke-width:4; stroke-opacity:1"/>
<line clip-path="url(#clip422)" x1="1953.42" y1="602.097" x2="1921.42" y2="602.097" style="stroke:#000000; stroke-width:4; stroke-opacity:1"/>
<line clip-path="url(#clip422)" x1="1995.78" y1="571.634" x2="1963.78" y2="571.634" style="stroke:#000000; stroke-width:4; stroke-opacity:1"/>
<line clip-path="url(#clip422)" x1="1995.78" y1="541.704" x2="1963.78" y2="541.704" style="stroke:#000000; stroke-width:4; stroke-opacity:1"/>
<line clip-path="url(#clip422)" x1="2035.41" y1="501.552" x2="2003.41" y2="501.552" style="stroke:#000000; stroke-width:4; stroke-opacity:1"/>
<line clip-path="url(#clip422)" x1="2035.41" y1="475.688" x2="2003.41" y2="475.688" style="stroke:#000000; stroke-width:4; stroke-opacity:1"/>
<line clip-path="url(#clip422)" x1="2072.64" y1="465.873" x2="2040.64" y2="465.873" style="stroke:#000000; stroke-width:4; stroke-opacity:1"/>
<line clip-path="url(#clip422)" x1="2072.64" y1="426.087" x2="2040.64" y2="426.087" style="stroke:#000000; stroke-width:4; stroke-opacity:1"/>
<line clip-path="url(#clip422)" x1="2107.74" y1="427.395" x2="2075.74" y2="427.395" style="stroke:#000000; stroke-width:4; stroke-opacity:1"/>
<line clip-path="url(#clip422)" x1="2107.74" y1="384.361" x2="2075.74" y2="384.361" style="stroke:#000000; stroke-width:4; stroke-opacity:1"/>
<line clip-path="url(#clip422)" x1="2140.94" y1="397.001" x2="2108.94" y2="397.001" style="stroke:#000000; stroke-width:4; stroke-opacity:1"/>
<line clip-path="url(#clip422)" x1="2140.94" y1="370.981" x2="2108.94" y2="370.981" style="stroke:#000000; stroke-width:4; stroke-opacity:1"/>
<line clip-path="url(#clip422)" x1="2172.43" y1="372.548" x2="2140.43" y2="372.548" style="stroke:#000000; stroke-width:4; stroke-opacity:1"/>
<line clip-path="url(#clip422)" x1="2172.43" y1="369.404" x2="2140.43" y2="369.404" style="stroke:#000000; stroke-width:4; stroke-opacity:1"/>
<line clip-path="url(#clip422)" x1="2202.4" y1="339.608" x2="2170.4" y2="339.608" style="stroke:#000000; stroke-width:4; stroke-opacity:1"/>
<line clip-path="url(#clip422)" x1="2202.4" y1="337.223" x2="2170.4" y2="337.223" style="stroke:#000000; stroke-width:4; stroke-opacity:1"/>
<line clip-path="url(#clip422)" x1="2230.96" y1="304.304" x2="2198.96" y2="304.304" style="stroke:#000000; stroke-width:4; stroke-opacity:1"/>
<line clip-path="url(#clip422)" x1="2230.96" y1="284.818" x2="2198.96" y2="284.818" style="stroke:#000000; stroke-width:4; stroke-opacity:1"/>
<line clip-path="url(#clip422)" x1="2258.26" y1="260.951" x2="2226.26" y2="260.951" style="stroke:#000000; stroke-width:4; stroke-opacity:1"/>
<line clip-path="url(#clip422)" x1="2258.26" y1="218.353" x2="2226.26" y2="218.353" style="stroke:#000000; stroke-width:4; stroke-opacity:1"/>
<line clip-path="url(#clip422)" x1="2284.39" y1="229.694" x2="2252.39" y2="229.694" style="stroke:#000000; stroke-width:4; stroke-opacity:1"/>
<line clip-path="url(#clip422)" x1="2284.39" y1="183.489" x2="2252.39" y2="183.489" style="stroke:#000000; stroke-width:4; stroke-opacity:1"/>
<line clip-path="url(#clip422)" x1="2309.46" y1="186.847" x2="2277.46" y2="186.847" style="stroke:#000000; stroke-width:4; stroke-opacity:1"/>
<line clip-path="url(#clip422)" x1="2309.46" y1="159.909" x2="2277.46" y2="159.909" style="stroke:#000000; stroke-width:4; stroke-opacity:1"/>
<circle clip-path="url(#clip422)" cx="316.876" cy="1339.46" r="14.4" fill="#ffa500" fill-rule="evenodd" fill-opacity="1" stroke="#000000" stroke-opacity="1" stroke-width="3.2"/>
<circle clip-path="url(#clip422)" cx="742.51" cy="1329.54" r="14.4" fill="#ffa500" fill-rule="evenodd" fill-opacity="1" stroke="#000000" stroke-opacity="1" stroke-width="3.2"/>
<circle clip-path="url(#clip422)" cx="991.49" cy="1274.46" r="14.4" fill="#ffa500" fill-rule="evenodd" fill-opacity="1" stroke="#000000" stroke-opacity="1" stroke-width="3.2"/>
<circle clip-path="url(#clip422)" cx="1168.14" cy="1104.42" r="14.4" fill="#ffa500" fill-rule="evenodd" fill-opacity="1" stroke="#000000" stroke-opacity="1" stroke-width="3.2"/>
<circle clip-path="url(#clip422)" cx="1305.17" cy="1022.83" r="14.4" fill="#ffa500" fill-rule="evenodd" fill-opacity="1" stroke="#000000" stroke-opacity="1" stroke-width="3.2"/>
<circle clip-path="url(#clip422)" cx="1417.12" cy="1035.19" r="14.4" fill="#ffa500" fill-rule="evenodd" fill-opacity="1" stroke="#000000" stroke-opacity="1" stroke-width="3.2"/>
<circle clip-path="url(#clip422)" cx="1511.78" cy="972.596" r="14.4" fill="#ffa500" fill-rule="evenodd" fill-opacity="1" stroke="#000000" stroke-opacity="1" stroke-width="3.2"/>
<circle clip-path="url(#clip422)" cx="1593.78" cy="903.425" r="14.4" fill="#ffa500" fill-rule="evenodd" fill-opacity="1" stroke="#000000" stroke-opacity="1" stroke-width="3.2"/>
<circle clip-path="url(#clip422)" cx="1666.1" cy="865.044" r="14.4" fill="#ffa500" fill-rule="evenodd" fill-opacity="1" stroke="#000000" stroke-opacity="1" stroke-width="3.2"/>
<circle clip-path="url(#clip422)" cx="1730.8" cy="815.693" r="14.4" fill="#ffa500" fill-rule="evenodd" fill-opacity="1" stroke="#000000" stroke-opacity="1" stroke-width="3.2"/>
<circle clip-path="url(#clip422)" cx="1789.33" cy="748.015" r="14.4" fill="#ffa500" fill-rule="evenodd" fill-opacity="1" stroke="#000000" stroke-opacity="1" stroke-width="3.2"/>
<circle clip-path="url(#clip422)" cx="1842.76" cy="643.864" r="14.4" fill="#ffa500" fill-rule="evenodd" fill-opacity="1" stroke="#000000" stroke-opacity="1" stroke-width="3.2"/>
<circle clip-path="url(#clip422)" cx="1891.91" cy="659.013" r="14.4" fill="#ffa500" fill-rule="evenodd" fill-opacity="1" stroke="#000000" stroke-opacity="1" stroke-width="3.2"/>
<circle clip-path="url(#clip422)" cx="1937.42" cy="613.736" r="14.4" fill="#ffa500" fill-rule="evenodd" fill-opacity="1" stroke="#000000" stroke-opacity="1" stroke-width="3.2"/>
<circle clip-path="url(#clip422)" cx="1979.78" cy="556.361" r="14.4" fill="#ffa500" fill-rule="evenodd" fill-opacity="1" stroke="#000000" stroke-opacity="1" stroke-width="3.2"/>
<circle clip-path="url(#clip422)" cx="2019.41" cy="488.39" r="14.4" fill="#ffa500" fill-rule="evenodd" fill-opacity="1" stroke="#000000" stroke-opacity="1" stroke-width="3.2"/>
<circle clip-path="url(#clip422)" cx="2056.64" cy="445.436" r="14.4" fill="#ffa500" fill-rule="evenodd" fill-opacity="1" stroke="#000000" stroke-opacity="1" stroke-width="3.2"/>
<circle clip-path="url(#clip422)" cx="2091.74" cy="405.241" r="14.4" fill="#ffa500" fill-rule="evenodd" fill-opacity="1" stroke="#000000" stroke-opacity="1" stroke-width="3.2"/>
<circle clip-path="url(#clip422)" cx="2124.94" cy="383.758" r="14.4" fill="#ffa500" fill-rule="evenodd" fill-opacity="1" stroke="#000000" stroke-opacity="1" stroke-width="3.2"/>
<circle clip-path="url(#clip422)" cx="2156.43" cy="370.972" r="14.4" fill="#ffa500" fill-rule="evenodd" fill-opacity="1" stroke="#000000" stroke-opacity="1" stroke-width="3.2"/>
<circle clip-path="url(#clip422)" cx="2186.4" cy="338.413" r="14.4" fill="#ffa500" fill-rule="evenodd" fill-opacity="1" stroke="#000000" stroke-opacity="1" stroke-width="3.2"/>
<circle clip-path="url(#clip422)" cx="2214.96" cy="294.43" r="14.4" fill="#ffa500" fill-rule="evenodd" fill-opacity="1" stroke="#000000" stroke-opacity="1" stroke-width="3.2"/>
<circle clip-path="url(#clip422)" cx="2242.26" cy="239.028" r="14.4" fill="#ffa500" fill-rule="evenodd" fill-opacity="1" stroke="#000000" stroke-opacity="1" stroke-width="3.2"/>
<circle clip-path="url(#clip422)" cx="2268.39" cy="205.858" r="14.4" fill="#ffa500" fill-rule="evenodd" fill-opacity="1" stroke="#000000" stroke-opacity="1" stroke-width="3.2"/>
<circle clip-path="url(#clip422)" cx="2293.46" cy="173.128" r="14.4" fill="#ffa500" fill-rule="evenodd" fill-opacity="1" stroke="#000000" stroke-opacity="1" stroke-width="3.2"/>
</svg>
