<?xml version="1.0" encoding="utf-8"?>
<svg xmlns="http://www.w3.org/2000/svg" xmlns:xlink="http://www.w3.org/1999/xlink" width="600" height="400" viewBox="0 0 2400 1600">
<defs>
  <clipPath id="clip860">
    <rect x="0" y="0" width="2400" height="1600"/>
  </clipPath>
</defs>
<path clip-path="url(#clip860)" d="M0 1600 L2400 1600 L2400 8.88178e-14 L0 8.88178e-14  Z" fill="#ffffff" fill-rule="evenodd" fill-opacity="1"/>
<defs>
  <clipPath id="clip861">
    <rect x="480" y="0" width="1681" height="1600"/>
  </clipPath>
</defs>
<path clip-path="url(#clip860)" d="M220.057 1410.9 L2352.76 1410.9 L2352.76 123.472 L220.057 123.472  Z" fill="#ffffff" fill-rule="evenodd" fill-opacity="1"/>
<defs>
  <clipPath id="clip862">
    <rect x="220" y="123" width="2134" height="1288"/>
  </clipPath>
</defs>
<polyline clip-path="url(#clip862)" style="stroke:#000000; stroke-linecap:round; stroke-linejoin:round; stroke-width:2; stroke-opacity:0.05; fill:none" points="220.057,1382.6 2352.76,1382.6 "/>
<polyline clip-path="url(#clip862)" style="stroke:#000000; stroke-linecap:round; stroke-linejoin:round; stroke-width:2; stroke-opacity:0.05; fill:none" points="220.057,1270.82 2352.76,1270.82 "/>
<polyline clip-path="url(#clip862)" style="stroke:#000000; stroke-linecap:round; stroke-linejoin:round; stroke-width:2; stroke-opacity:0.05; fill:none" points="220.057,1191.51 2352.76,1191.51 "/>
<polyline clip-path="url(#clip862)" style="stroke:#000000; stroke-linecap:round; stroke-linejoin:round; stroke-width:2; stroke-opacity:0.05; fill:none" points="220.057,1129.99 2352.76,1129.99 "/>
<polyline clip-path="url(#clip862)" style="stroke:#000000; stroke-linecap:round; stroke-linejoin:round; stroke-width:2; stroke-opacity:0.05; fill:none" points="220.057,1079.72 2352.76,1079.72 "/>
<polyline clip-path="url(#clip862)" style="stroke:#000000; stroke-linecap:round; stroke-linejoin:round; stroke-width:2; stroke-opacity:0.05; fill:none" points="220.057,1037.22 2352.76,1037.22 "/>
<polyline clip-path="url(#clip862)" style="stroke:#000000; stroke-linecap:round; stroke-linejoin:round; stroke-width:2; stroke-opacity:0.05; fill:none" points="220.057,1000.41 2352.76,1000.41 "/>
<polyline clip-path="url(#clip862)" style="stroke:#000000; stroke-linecap:round; stroke-linejoin:round; stroke-width:2; stroke-opacity:0.05; fill:none" points="220.057,967.938 2352.76,967.938 "/>
<polyline clip-path="url(#clip862)" style="stroke:#000000; stroke-linecap:round; stroke-linejoin:round; stroke-width:2; stroke-opacity:0.05; fill:none" points="220.057,747.796 2352.76,747.796 "/>
<polyline clip-path="url(#clip862)" style="stroke:#000000; stroke-linecap:round; stroke-linejoin:round; stroke-width:2; stroke-opacity:0.05; fill:none" points="220.057,636.013 2352.76,636.013 "/>
<polyline clip-path="url(#clip862)" style="stroke:#000000; stroke-linecap:round; stroke-linejoin:round; stroke-width:2; stroke-opacity:0.05; fill:none" points="220.057,556.701 2352.76,556.701 "/>
<polyline clip-path="url(#clip862)" style="stroke:#000000; stroke-linecap:round; stroke-linejoin:round; stroke-width:2; stroke-opacity:0.05; fill:none" points="220.057,495.182 2352.76,495.182 "/>
<polyline clip-path="url(#clip862)" style="stroke:#000000; stroke-linecap:round; stroke-linejoin:round; stroke-width:2; stroke-opacity:0.05; fill:none" points="220.057,444.918 2352.76,444.918 "/>
<polyline clip-path="url(#clip862)" style="stroke:#000000; stroke-linecap:round; stroke-linejoin:round; stroke-width:2; stroke-opacity:0.05; fill:none" points="220.057,402.419 2352.76,402.419 "/>
<polyline clip-path="url(#clip862)" style="stroke:#000000; stroke-linecap:round; stroke-linejoin:round; stroke-width:2; stroke-opacity:0.05; fill:none" points="220.057,365.606 2352.76,365.606 "/>
<polyline clip-path="url(#clip862)" style="stroke:#000000; stroke-linecap:round; stroke-linejoin:round; stroke-width:2; stroke-opacity:0.05; fill:none" points="220.057,333.134 2352.76,333.134 "/>
<polyline clip-path="url(#clip862)" style="stroke:#000000; stroke-linecap:round; stroke-linejoin:round; stroke-width:2; stroke-opacity:0.1; fill:none" points="680.74,1410.9 680.74,123.472 "/>
<polyline clip-path="url(#clip862)" style="stroke:#000000; stroke-linecap:round; stroke-linejoin:round; stroke-width:2; stroke-opacity:0.1; fill:none" points="1686.73,1410.9 1686.73,123.472 "/>
<polyline clip-path="url(#clip862)" style="stroke:#000000; stroke-linecap:round; stroke-linejoin:round; stroke-width:2; stroke-opacity:0.1; fill:none" points="220.057,938.891 2352.76,938.891 "/>
<polyline clip-path="url(#clip862)" style="stroke:#000000; stroke-linecap:round; stroke-linejoin:round; stroke-width:2; stroke-opacity:0.1; fill:none" points="220.057,304.087 2352.76,304.087 "/>
<polyline clip-path="url(#clip860)" style="stroke:#000000; stroke-linecap:round; stroke-linejoin:round; stroke-width:4; stroke-opacity:1; fill:none" points="220.057,1410.9 2352.76,1410.9 "/>
<polyline clip-path="url(#clip860)" style="stroke:#000000; stroke-linecap:round; stroke-linejoin:round; stroke-width:4; stroke-opacity:1; fill:none" points="680.74,1410.9 680.74,1392 "/>
<polyline clip-path="url(#clip860)" style="stroke:#000000; stroke-linecap:round; stroke-linejoin:round; stroke-width:4; stroke-opacity:1; fill:none" points="1686.73,1410.9 1686.73,1392 "/>
<path clip-path="url(#clip860)" d="M627.752 1485.02 L635.391 1485.02 L635.391 1458.66 L627.081 1460.32 L627.081 1456.06 L635.345 1454.4 L640.021 1454.4 L640.021 1485.02 L647.66 1485.02 L647.66 1488.96 L627.752 1488.96 L627.752 1485.02 Z" fill="#000000" fill-rule="nonzero" fill-opacity="1" /><path clip-path="url(#clip860)" d="M667.104 1457.48 Q663.493 1457.48 661.664 1461.04 Q659.859 1464.58 659.859 1471.71 Q659.859 1478.82 661.664 1482.38 Q663.493 1485.92 667.104 1485.92 Q670.738 1485.92 672.544 1482.38 Q674.372 1478.82 674.372 1471.71 Q674.372 1464.58 672.544 1461.04 Q670.738 1457.48 667.104 1457.48 M667.104 1453.77 Q672.914 1453.77 675.97 1458.38 Q679.048 1462.96 679.048 1471.71 Q679.048 1480.44 675.97 1485.04 Q672.914 1489.63 667.104 1489.63 Q661.294 1489.63 658.215 1485.04 Q655.16 1480.44 655.16 1471.71 Q655.16 1462.96 658.215 1458.38 Q661.294 1453.77 667.104 1453.77 Z" fill="#000000" fill-rule="nonzero" fill-opacity="1" /><path clip-path="url(#clip860)" d="M688.753 1435.97 Q685.819 1435.97 684.333 1438.86 Q682.866 1441.74 682.866 1447.53 Q682.866 1453.31 684.333 1456.2 Q685.819 1459.08 688.753 1459.08 Q691.706 1459.08 693.173 1456.2 Q694.659 1453.31 694.659 1447.53 Q694.659 1441.74 693.173 1438.86 Q691.706 1435.97 688.753 1435.97 M688.753 1432.96 Q693.474 1432.96 695.956 1436.7 Q698.458 1440.43 698.458 1447.53 Q698.458 1454.62 695.956 1458.37 Q693.474 1462.09 688.753 1462.09 Q684.032 1462.09 681.531 1458.37 Q679.048 1454.62 679.048 1447.53 Q679.048 1440.43 681.531 1436.7 Q684.032 1432.96 688.753 1432.96 Z" fill="#000000" fill-rule="nonzero" fill-opacity="1" /><path clip-path="url(#clip860)" d="M705.135 1456.77 L709.103 1456.77 L709.103 1461.55 L705.135 1461.55 L705.135 1456.77 Z" fill="#000000" fill-rule="nonzero" fill-opacity="1" /><path clip-path="url(#clip860)" d="M717.416 1433.47 L732.331 1433.47 L732.331 1436.66 L720.896 1436.66 L720.896 1443.55 Q721.723 1443.27 722.551 1443.13 Q723.378 1442.98 724.206 1442.98 Q728.908 1442.98 731.654 1445.56 Q734.4 1448.14 734.4 1452.54 Q734.4 1457.07 731.578 1459.59 Q728.757 1462.09 723.623 1462.09 Q721.855 1462.09 720.012 1461.79 Q718.187 1461.49 716.231 1460.89 L716.231 1457.07 Q717.924 1457.99 719.73 1458.44 Q721.535 1458.89 723.547 1458.89 Q726.801 1458.89 728.701 1457.18 Q730.6 1455.47 730.6 1452.54 Q730.6 1449.6 728.701 1447.89 Q726.801 1446.18 723.547 1446.18 Q722.024 1446.18 720.501 1446.52 Q718.996 1446.86 717.416 1447.57 L717.416 1433.47 Z" fill="#000000" fill-rule="nonzero" fill-opacity="1" /><path clip-path="url(#clip860)" d="M1634.18 1485.02 L1641.82 1485.02 L1641.82 1458.66 L1633.51 1460.32 L1633.51 1456.06 L1641.78 1454.4 L1646.45 1454.4 L1646.45 1485.02 L1654.09 1485.02 L1654.09 1488.96 L1634.18 1488.96 L1634.18 1485.02 Z" fill="#000000" fill-rule="nonzero" fill-opacity="1" /><path clip-path="url(#clip860)" d="M1673.54 1457.48 Q1669.92 1457.48 1668.1 1461.04 Q1666.29 1464.58 1666.29 1471.71 Q1666.29 1478.82 1668.1 1482.38 Q1669.92 1485.92 1673.54 1485.92 Q1677.17 1485.92 1678.98 1482.38 Q1680.8 1478.82 1680.8 1471.71 Q1680.8 1464.58 1678.98 1461.04 Q1677.17 1457.48 1673.54 1457.48 M1673.54 1453.77 Q1679.35 1453.77 1682.4 1458.38 Q1685.48 1462.96 1685.48 1471.71 Q1685.48 1480.44 1682.4 1485.04 Q1679.35 1489.63 1673.54 1489.63 Q1667.73 1489.63 1664.65 1485.04 Q1661.59 1480.44 1661.59 1471.71 Q1661.59 1462.96 1664.65 1458.38 Q1667.73 1453.77 1673.54 1453.77 Z" fill="#000000" fill-rule="nonzero" fill-opacity="1" /><path clip-path="url(#clip860)" d="M1686.03 1458.35 L1692.23 1458.35 L1692.23 1436.93 L1685.48 1438.28 L1685.48 1434.82 L1692.19 1433.47 L1695.99 1433.47 L1695.99 1458.35 L1702.2 1458.35 L1702.2 1461.55 L1686.03 1461.55 L1686.03 1458.35 Z" fill="#000000" fill-rule="nonzero" fill-opacity="1" /><path clip-path="url(#clip860)" d="M1709.87 1456.77 L1713.84 1456.77 L1713.84 1461.55 L1709.87 1461.55 L1709.87 1456.77 Z" fill="#000000" fill-rule="nonzero" fill-opacity="1" /><path clip-path="url(#clip860)" d="M1730.24 1435.97 Q1727.31 1435.97 1725.82 1438.86 Q1724.36 1441.74 1724.36 1447.53 Q1724.36 1453.31 1725.82 1456.2 Q1727.31 1459.08 1730.24 1459.08 Q1733.2 1459.08 1734.66 1456.2 Q1736.15 1453.31 1736.15 1447.53 Q1736.15 1441.74 1734.66 1438.86 Q1733.2 1435.97 1730.24 1435.97 M1730.24 1432.96 Q1734.96 1432.96 1737.45 1436.7 Q1739.95 1440.43 1739.95 1447.53 Q1739.95 1454.62 1737.45 1458.37 Q1734.96 1462.09 1730.24 1462.09 Q1725.52 1462.09 1723.02 1458.37 Q1720.54 1454.62 1720.54 1447.53 Q1720.54 1440.43 1723.02 1436.7 Q1725.52 1432.96 1730.24 1432.96 Z" fill="#000000" fill-rule="nonzero" fill-opacity="1" /><path clip-path="url(#clip860)" d="M1006.25 1524.66 L1012.11 1524.66 L1012.11 1574.19 L1006.25 1574.19 L1006.25 1524.66 Z" fill="#000000" fill-rule="nonzero" fill-opacity="1" /><path clip-path="url(#clip860)" d="M1038.18 1542.64 Q1033.47 1542.64 1030.73 1546.34 Q1027.99 1550 1027.99 1556.39 Q1027.99 1562.79 1030.7 1566.48 Q1033.43 1570.14 1038.18 1570.14 Q1042.85 1570.14 1045.59 1566.45 Q1048.33 1562.76 1048.33 1556.39 Q1048.33 1550.06 1045.59 1546.37 Q1042.85 1542.64 1038.18 1542.64 M1038.18 1537.68 Q1045.81 1537.68 1050.18 1542.64 Q1054.54 1547.61 1054.54 1556.39 Q1054.54 1565.15 1050.18 1570.14 Q1045.81 1575.11 1038.18 1575.11 Q1030.51 1575.11 1026.14 1570.14 Q1021.82 1565.15 1021.82 1556.39 Q1021.82 1547.61 1026.14 1542.64 Q1030.51 1537.68 1038.18 1537.68 Z" fill="#000000" fill-rule="nonzero" fill-opacity="1" /><path clip-path="url(#clip860)" d="M1089.9 1539.91 L1089.9 1545.38 Q1087.41 1544.01 1084.9 1543.34 Q1082.42 1542.64 1079.87 1542.64 Q1074.17 1542.64 1071.02 1546.27 Q1067.87 1549.87 1067.87 1556.39 Q1067.87 1562.92 1071.02 1566.55 Q1074.17 1570.14 1079.87 1570.14 Q1082.42 1570.14 1084.9 1569.47 Q1087.41 1568.77 1089.9 1567.41 L1089.9 1572.82 Q1087.45 1573.96 1084.8 1574.54 Q1082.19 1575.11 1079.23 1575.11 Q1071.18 1575.11 1066.44 1570.05 Q1061.7 1564.99 1061.7 1556.39 Q1061.7 1547.67 1066.47 1542.68 Q1071.28 1537.68 1079.62 1537.68 Q1082.32 1537.68 1084.9 1538.25 Q1087.48 1538.79 1089.9 1539.91 Z" fill="#000000" fill-rule="nonzero" fill-opacity="1" /><path clip-path="url(#clip860)" d="M1116.28 1556.27 Q1109.19 1556.27 1106.45 1557.89 Q1103.71 1559.51 1103.71 1563.43 Q1103.71 1566.55 1105.75 1568.39 Q1107.82 1570.21 1111.35 1570.21 Q1116.22 1570.21 1119.15 1566.77 Q1122.11 1563.3 1122.11 1557.57 L1122.11 1556.27 L1116.28 1556.27 M1127.96 1553.85 L1127.96 1574.19 L1122.11 1574.19 L1122.11 1568.77 Q1120.1 1572.02 1117.11 1573.58 Q1114.12 1575.11 1109.79 1575.11 Q1104.32 1575.11 1101.07 1572.05 Q1097.85 1568.97 1097.85 1563.81 Q1097.85 1557.79 1101.86 1554.74 Q1105.91 1551.68 1113.9 1551.68 L1122.11 1551.68 L1122.11 1551.11 Q1122.11 1547.07 1119.43 1544.87 Q1116.79 1542.64 1111.99 1542.64 Q1108.93 1542.64 1106.03 1543.38 Q1103.14 1544.11 1100.46 1545.57 L1100.46 1540.16 Q1103.68 1538.92 1106.7 1538.31 Q1109.73 1537.68 1112.59 1537.68 Q1120.33 1537.68 1124.14 1541.69 Q1127.96 1545.7 1127.96 1553.85 Z" fill="#000000" fill-rule="nonzero" fill-opacity="1" /><path clip-path="url(#clip860)" d="M1140.03 1524.66 L1145.88 1524.66 L1145.88 1574.19 L1140.03 1574.19 L1140.03 1524.66 Z" fill="#000000" fill-rule="nonzero" fill-opacity="1" /><path clip-path="url(#clip860)" d="M1202.32 1543.95 L1202.32 1524.66 L1208.17 1524.66 L1208.17 1574.19 L1202.32 1574.19 L1202.32 1568.84 Q1200.47 1572.02 1197.64 1573.58 Q1194.84 1575.11 1190.89 1575.11 Q1184.43 1575.11 1180.35 1569.95 Q1176.31 1564.8 1176.31 1556.39 Q1176.31 1547.99 1180.35 1542.83 Q1184.43 1537.68 1190.89 1537.68 Q1194.84 1537.68 1197.64 1539.24 Q1200.47 1540.77 1202.32 1543.95 M1182.36 1556.39 Q1182.36 1562.85 1185 1566.55 Q1187.67 1570.21 1192.32 1570.21 Q1196.97 1570.21 1199.64 1566.55 Q1202.32 1562.85 1202.32 1556.39 Q1202.32 1549.93 1199.64 1546.27 Q1196.97 1542.58 1192.32 1542.58 Q1187.67 1542.58 1185 1546.27 Q1182.36 1549.93 1182.36 1556.39 Z" fill="#000000" fill-rule="nonzero" fill-opacity="1" /><path clip-path="url(#clip860)" d="M1220.24 1538.54 L1226.09 1538.54 L1226.09 1574.19 L1220.24 1574.19 L1220.24 1538.54 M1220.24 1524.66 L1226.09 1524.66 L1226.09 1532.08 L1220.24 1532.08 L1220.24 1524.66 Z" fill="#000000" fill-rule="nonzero" fill-opacity="1" /><path clip-path="url(#clip860)" d="M1266.1 1545.38 Q1268.3 1541.43 1271.35 1539.56 Q1274.41 1537.68 1278.54 1537.68 Q1284.11 1537.68 1287.14 1541.59 Q1290.16 1545.48 1290.16 1552.67 L1290.16 1574.19 L1284.27 1574.19 L1284.27 1552.86 Q1284.27 1547.74 1282.46 1545.25 Q1280.65 1542.77 1276.92 1542.77 Q1272.37 1542.77 1269.73 1545.79 Q1267.09 1548.82 1267.09 1554.04 L1267.09 1574.19 L1261.2 1574.19 L1261.2 1552.86 Q1261.2 1547.7 1259.38 1545.25 Q1257.57 1542.77 1253.78 1542.77 Q1249.29 1542.77 1246.65 1545.83 Q1244.01 1548.85 1244.01 1554.04 L1244.01 1574.19 L1238.12 1574.19 L1238.12 1538.54 L1244.01 1538.54 L1244.01 1544.08 Q1246.02 1540.8 1248.82 1539.24 Q1251.62 1537.68 1255.47 1537.68 Q1259.35 1537.68 1262.06 1539.65 Q1264.79 1541.62 1266.1 1545.38 Z" fill="#000000" fill-rule="nonzero" fill-opacity="1" /><path clip-path="url(#clip860)" d="M1332.34 1554.9 L1332.34 1557.76 L1305.41 1557.76 Q1305.79 1563.81 1309.04 1566.99 Q1312.31 1570.14 1318.14 1570.14 Q1321.51 1570.14 1324.66 1569.32 Q1327.85 1568.49 1330.97 1566.83 L1330.97 1572.37 Q1327.82 1573.71 1324.51 1574.41 Q1321.2 1575.11 1317.79 1575.11 Q1309.26 1575.11 1304.26 1570.14 Q1299.3 1565.18 1299.3 1556.71 Q1299.3 1547.96 1304.01 1542.83 Q1308.75 1537.68 1316.77 1537.68 Q1323.96 1537.68 1328.13 1542.33 Q1332.34 1546.94 1332.34 1554.9 M1326.48 1553.18 Q1326.42 1548.37 1323.77 1545.51 Q1321.16 1542.64 1316.83 1542.64 Q1311.93 1542.64 1308.97 1545.41 Q1306.04 1548.18 1305.6 1553.21 L1326.48 1553.18 Z" fill="#000000" fill-rule="nonzero" fill-opacity="1" /><path clip-path="url(#clip860)" d="M1371.58 1552.67 L1371.58 1574.19 L1365.72 1574.19 L1365.72 1552.86 Q1365.72 1547.8 1363.75 1545.29 Q1361.78 1542.77 1357.83 1542.77 Q1353.09 1542.77 1350.35 1545.79 Q1347.61 1548.82 1347.61 1554.04 L1347.61 1574.19 L1341.72 1574.19 L1341.72 1538.54 L1347.61 1538.54 L1347.61 1544.08 Q1349.71 1540.86 1352.55 1539.27 Q1355.41 1537.68 1359.13 1537.68 Q1365.28 1537.68 1368.43 1541.5 Q1371.58 1545.29 1371.58 1552.67 Z" fill="#000000" fill-rule="nonzero" fill-opacity="1" /><path clip-path="url(#clip860)" d="M1405.99 1539.59 L1405.99 1545.13 Q1403.5 1543.85 1400.83 1543.22 Q1398.16 1542.58 1395.29 1542.58 Q1390.93 1542.58 1388.74 1543.92 Q1386.57 1545.25 1386.57 1547.93 Q1386.57 1549.96 1388.13 1551.14 Q1389.69 1552.29 1394.4 1553.34 L1396.41 1553.78 Q1402.64 1555.12 1405.25 1557.57 Q1407.9 1559.99 1407.9 1564.35 Q1407.9 1569.32 1403.95 1572.21 Q1400.03 1575.11 1393.16 1575.11 Q1390.29 1575.11 1387.18 1574.54 Q1384.09 1573.99 1380.65 1572.88 L1380.65 1566.83 Q1383.9 1568.52 1387.05 1569.38 Q1390.2 1570.21 1393.29 1570.21 Q1397.42 1570.21 1399.65 1568.81 Q1401.88 1567.37 1401.88 1564.8 Q1401.88 1562.41 1400.26 1561.14 Q1398.67 1559.86 1393.22 1558.68 L1391.19 1558.21 Q1385.74 1557.06 1383.32 1554.71 Q1380.91 1552.32 1380.91 1548.18 Q1380.91 1543.15 1384.47 1540.42 Q1388.04 1537.68 1394.59 1537.68 Q1397.84 1537.68 1400.7 1538.16 Q1403.57 1538.63 1405.99 1539.59 Z" fill="#000000" fill-rule="nonzero" fill-opacity="1" /><path clip-path="url(#clip860)" d="M1417.22 1538.54 L1423.08 1538.54 L1423.08 1574.19 L1417.22 1574.19 L1417.22 1538.54 M1417.22 1524.66 L1423.08 1524.66 L1423.08 1532.08 L1417.22 1532.08 L1417.22 1524.66 Z" fill="#000000" fill-rule="nonzero" fill-opacity="1" /><path clip-path="url(#clip860)" d="M1449.15 1542.64 Q1444.44 1542.64 1441.7 1546.34 Q1438.96 1550 1438.96 1556.39 Q1438.96 1562.79 1441.67 1566.48 Q1444.4 1570.14 1449.15 1570.14 Q1453.82 1570.14 1456.56 1566.45 Q1459.3 1562.76 1459.3 1556.39 Q1459.3 1550.06 1456.56 1546.37 Q1453.82 1542.64 1449.15 1542.64 M1449.15 1537.68 Q1456.78 1537.68 1461.15 1542.64 Q1465.51 1547.61 1465.51 1556.39 Q1465.51 1565.15 1461.15 1570.14 Q1456.78 1575.11 1449.15 1575.11 Q1441.48 1575.11 1437.11 1570.14 Q1432.79 1565.15 1432.79 1556.39 Q1432.79 1547.61 1437.11 1542.64 Q1441.48 1537.68 1449.15 1537.68 Z" fill="#000000" fill-rule="nonzero" fill-opacity="1" /><path clip-path="url(#clip860)" d="M1504.85 1552.67 L1504.85 1574.19 L1498.99 1574.19 L1498.99 1552.86 Q1498.99 1547.8 1497.02 1545.29 Q1495.04 1542.77 1491.1 1542.77 Q1486.35 1542.77 1483.62 1545.79 Q1480.88 1548.82 1480.88 1554.04 L1480.88 1574.19 L1474.99 1574.19 L1474.99 1538.54 L1480.88 1538.54 L1480.88 1544.08 Q1482.98 1540.86 1485.81 1539.27 Q1488.68 1537.68 1492.4 1537.68 Q1498.54 1537.68 1501.69 1541.5 Q1504.85 1545.29 1504.85 1552.67 Z" fill="#000000" fill-rule="nonzero" fill-opacity="1" /><path clip-path="url(#clip860)" d="M1560.7 1543.95 L1560.7 1524.66 L1566.56 1524.66 L1566.56 1574.19 L1560.7 1574.19 L1560.7 1568.84 Q1558.86 1572.02 1556.03 1573.58 Q1553.23 1575.11 1549.28 1575.11 Q1542.82 1575.11 1538.74 1569.95 Q1534.7 1564.8 1534.7 1556.39 Q1534.7 1547.99 1538.74 1542.83 Q1542.82 1537.68 1549.28 1537.68 Q1553.23 1537.68 1556.03 1539.24 Q1558.86 1540.77 1560.7 1543.95 M1540.75 1556.39 Q1540.75 1562.85 1543.39 1566.55 Q1546.06 1570.21 1550.71 1570.21 Q1555.36 1570.21 1558.03 1566.55 Q1560.7 1562.85 1560.7 1556.39 Q1560.7 1549.93 1558.03 1546.27 Q1555.36 1542.58 1550.71 1542.58 Q1546.06 1542.58 1543.39 1546.27 Q1540.75 1549.93 1540.75 1556.39 Z" fill="#000000" fill-rule="nonzero" fill-opacity="1" /><polyline clip-path="url(#clip860)" style="stroke:#000000; stroke-linecap:round; stroke-linejoin:round; stroke-width:4; stroke-opacity:1; fill:none" points="220.057,1410.9 220.057,123.472 "/>
<polyline clip-path="url(#clip860)" style="stroke:#000000; stroke-linecap:round; stroke-linejoin:round; stroke-width:4; stroke-opacity:1; fill:none" points="220.057,938.891 238.955,938.891 "/>
<polyline clip-path="url(#clip860)" style="stroke:#000000; stroke-linecap:round; stroke-linejoin:round; stroke-width:4; stroke-opacity:1; fill:none" points="220.057,304.087 238.955,304.087 "/>
<polyline clip-path="url(#clip860)" style="stroke:#000000; stroke-linecap:round; stroke-linejoin:round; stroke-width:4; stroke-opacity:1; fill:none" points="220.057,1382.6 229.506,1382.6 "/>
<polyline clip-path="url(#clip860)" style="stroke:#000000; stroke-linecap:round; stroke-linejoin:round; stroke-width:4; stroke-opacity:1; fill:none" points="220.057,1270.82 229.506,1270.82 "/>
<polyline clip-path="url(#clip860)" style="stroke:#000000; stroke-linecap:round; stroke-linejoin:round; stroke-width:4; stroke-opacity:1; fill:none" points="220.057,1191.51 229.506,1191.51 "/>
<polyline clip-path="url(#clip860)" style="stroke:#000000; stroke-linecap:round; stroke-linejoin:round; stroke-width:4; stroke-opacity:1; fill:none" points="220.057,1129.99 229.506,1129.99 "/>
<polyline clip-path="url(#clip860)" style="stroke:#000000; stroke-linecap:round; stroke-linejoin:round; stroke-width:4; stroke-opacity:1; fill:none" points="220.057,1079.72 229.506,1079.72 "/>
<polyline clip-path="url(#clip860)" style="stroke:#000000; stroke-linecap:round; stroke-linejoin:round; stroke-width:4; stroke-opacity:1; fill:none" points="220.057,1037.22 229.506,1037.22 "/>
<polyline clip-path="url(#clip860)" style="stroke:#000000; stroke-linecap:round; stroke-linejoin:round; stroke-width:4; stroke-opacity:1; fill:none" points="220.057,1000.41 229.506,1000.41 "/>
<polyline clip-path="url(#clip860)" style="stroke:#000000; stroke-linecap:round; stroke-linejoin:round; stroke-width:4; stroke-opacity:1; fill:none" points="220.057,967.938 229.506,967.938 "/>
<polyline clip-path="url(#clip860)" style="stroke:#000000; stroke-linecap:round; stroke-linejoin:round; stroke-width:4; stroke-opacity:1; fill:none" points="220.057,747.796 229.506,747.796 "/>
<polyline clip-path="url(#clip860)" style="stroke:#000000; stroke-linecap:round; stroke-linejoin:round; stroke-width:4; stroke-opacity:1; fill:none" points="220.057,636.013 229.506,636.013 "/>
<polyline clip-path="url(#clip860)" style="stroke:#000000; stroke-linecap:round; stroke-linejoin:round; stroke-width:4; stroke-opacity:1; fill:none" points="220.057,556.701 229.506,556.701 "/>
<polyline clip-path="url(#clip860)" style="stroke:#000000; stroke-linecap:round; stroke-linejoin:round; stroke-width:4; stroke-opacity:1; fill:none" points="220.057,495.182 229.506,495.182 "/>
<polyline clip-path="url(#clip860)" style="stroke:#000000; stroke-linecap:round; stroke-linejoin:round; stroke-width:4; stroke-opacity:1; fill:none" points="220.057,444.918 229.506,444.918 "/>
<polyline clip-path="url(#clip860)" style="stroke:#000000; stroke-linecap:round; stroke-linejoin:round; stroke-width:4; stroke-opacity:1; fill:none" points="220.057,402.419 229.506,402.419 "/>
<polyline clip-path="url(#clip860)" style="stroke:#000000; stroke-linecap:round; stroke-linejoin:round; stroke-width:4; stroke-opacity:1; fill:none" points="220.057,365.606 229.506,365.606 "/>
<polyline clip-path="url(#clip860)" style="stroke:#000000; stroke-linecap:round; stroke-linejoin:round; stroke-width:4; stroke-opacity:1; fill:none" points="220.057,333.134 229.506,333.134 "/>
<path clip-path="url(#clip860)" d="M116.041 958.684 L123.68 958.684 L123.68 932.318 L115.37 933.985 L115.37 929.725 L123.634 928.059 L128.31 928.059 L128.31 958.684 L135.948 958.684 L135.948 962.619 L116.041 962.619 L116.041 958.684 Z" fill="#000000" fill-rule="nonzero" fill-opacity="1" /><path clip-path="url(#clip860)" d="M155.393 931.137 Q151.782 931.137 149.953 934.702 Q148.147 938.244 148.147 945.373 Q148.147 952.48 149.953 956.045 Q151.782 959.586 155.393 959.586 Q159.027 959.586 160.833 956.045 Q162.661 952.48 162.661 945.373 Q162.661 938.244 160.833 934.702 Q159.027 931.137 155.393 931.137 M155.393 927.434 Q161.203 927.434 164.258 932.04 Q167.337 936.624 167.337 945.373 Q167.337 954.1 164.258 958.707 Q161.203 963.29 155.393 963.29 Q149.583 963.29 146.504 958.707 Q143.448 954.1 143.448 945.373 Q143.448 936.624 146.504 932.04 Q149.583 927.434 155.393 927.434 Z" fill="#000000" fill-rule="nonzero" fill-opacity="1" /><path clip-path="url(#clip860)" d="M167.883 932.011 L174.089 932.011 L174.089 910.589 L167.337 911.943 L167.337 908.483 L174.052 907.128 L177.851 907.128 L177.851 932.011 L184.057 932.011 L184.057 935.208 L167.883 935.208 L167.883 932.011 Z" fill="#000000" fill-rule="nonzero" fill-opacity="1" /><path clip-path="url(#clip860)" d="M114.931 323.88 L122.57 323.88 L122.57 297.514 L114.26 299.181 L114.26 294.921 L122.524 293.255 L127.2 293.255 L127.2 323.88 L134.839 323.88 L134.839 327.815 L114.931 327.815 L114.931 323.88 Z" fill="#000000" fill-rule="nonzero" fill-opacity="1" /><path clip-path="url(#clip860)" d="M154.283 296.333 Q150.672 296.333 148.843 299.898 Q147.038 303.44 147.038 310.569 Q147.038 317.676 148.843 321.241 Q150.672 324.782 154.283 324.782 Q157.917 324.782 159.723 321.241 Q161.552 317.676 161.552 310.569 Q161.552 303.44 159.723 299.898 Q157.917 296.333 154.283 296.333 M154.283 292.63 Q160.093 292.63 163.149 297.236 Q166.227 301.819 166.227 310.569 Q166.227 319.296 163.149 323.903 Q160.093 328.486 154.283 328.486 Q148.473 328.486 145.394 323.903 Q142.339 319.296 142.339 310.569 Q142.339 301.819 145.394 297.236 Q148.473 292.63 154.283 292.63 Z" fill="#000000" fill-rule="nonzero" fill-opacity="1" /><path clip-path="url(#clip860)" d="M170.798 297.207 L184.057 297.207 L184.057 300.404 L166.227 300.404 L166.227 297.207 Q168.39 294.969 172.114 291.207 Q175.857 287.427 176.816 286.336 Q178.641 284.286 179.355 282.875 Q180.089 281.446 180.089 280.073 Q180.089 277.835 178.509 276.424 Q176.948 275.014 174.428 275.014 Q172.641 275.014 170.647 275.634 Q168.672 276.255 166.416 277.515 L166.416 273.678 Q168.71 272.757 170.704 272.287 Q172.697 271.816 174.352 271.816 Q178.716 271.816 181.311 273.998 Q183.907 276.18 183.907 279.829 Q183.907 281.559 183.249 283.12 Q182.609 284.662 180.898 286.769 Q180.427 287.314 177.907 289.928 Q175.387 292.524 170.798 297.207 Z" fill="#000000" fill-rule="nonzero" fill-opacity="1" /><path clip-path="url(#clip860)" d="M35.1993 1099.27 Q31.2526 1097.07 29.3747 1094.02 Q27.4968 1090.96 27.4968 1086.82 Q27.4968 1081.25 31.4117 1078.23 Q35.2948 1075.21 42.4881 1075.21 L64.0042 1075.21 L64.0042 1081.09 L42.679 1081.09 Q37.5546 1081.09 35.072 1082.91 Q32.5894 1084.72 32.5894 1088.45 Q32.5894 1093 35.6131 1095.64 Q38.6368 1098.28 43.8567 1098.28 L64.0042 1098.28 L64.0042 1104.17 L42.679 1104.17 Q37.5228 1104.17 35.072 1105.98 Q32.5894 1107.8 32.5894 1111.59 Q32.5894 1116.07 35.6449 1118.71 Q38.6686 1121.36 43.8567 1121.36 L64.0042 1121.36 L64.0042 1127.24 L28.3562 1127.24 L28.3562 1121.36 L33.8944 1121.36 Q30.616 1119.35 29.0564 1116.55 Q27.4968 1113.75 27.4968 1109.9 Q27.4968 1106.02 29.4702 1103.31 Q31.4436 1100.57 35.1993 1099.27 Z" fill="#000000" fill-rule="nonzero" fill-opacity="1" /><path clip-path="url(#clip860)" d="M44.7161 1033.03 L47.5806 1033.03 L47.5806 1059.96 Q53.6281 1059.58 56.8109 1056.33 Q59.9619 1053.05 59.9619 1047.23 Q59.9619 1043.85 59.1344 1040.7 Q58.3069 1037.52 56.6518 1034.4 L62.1899 1034.4 Q63.5267 1037.55 64.227 1040.86 Q64.9272 1044.17 64.9272 1047.58 Q64.9272 1056.11 59.9619 1061.1 Q54.9967 1066.07 46.5303 1066.07 Q37.7774 1066.07 32.6531 1061.36 Q27.4968 1056.62 27.4968 1048.6 Q27.4968 1041.4 32.1438 1037.23 Q36.7589 1033.03 44.7161 1033.03 M42.9973 1038.89 Q38.1912 1038.95 35.3266 1041.59 Q32.4621 1044.2 32.4621 1048.53 Q32.4621 1053.43 35.2312 1056.39 Q38.0002 1059.32 43.0292 1059.77 L42.9973 1038.89 Z" fill="#000000" fill-rule="nonzero" fill-opacity="1" /><path clip-path="url(#clip860)" d="M46.0847 1007.22 Q46.0847 1014.32 47.7079 1017.05 Q49.3312 1019.79 53.2461 1019.79 Q56.3653 1019.79 58.2114 1017.75 Q60.0256 1015.69 60.0256 1012.15 Q60.0256 1007.28 56.5881 1004.35 Q53.1188 1001.39 47.3897 1001.39 L46.0847 1001.39 L46.0847 1007.22 M43.6657 995.538 L64.0042 995.538 L64.0042 1001.39 L58.5933 1001.39 Q61.8398 1003.4 63.3994 1006.39 Q64.9272 1009.38 64.9272 1013.71 Q64.9272 1019.19 61.8716 1022.43 Q58.7843 1025.65 53.6281 1025.65 Q47.6125 1025.65 44.5569 1021.64 Q41.5014 1017.6 41.5014 1009.61 L41.5014 1001.39 L40.9285 1001.39 Q36.8862 1001.39 34.6901 1004.07 Q32.4621 1006.71 32.4621 1011.52 Q32.4621 1014.57 33.1941 1017.47 Q33.9262 1020.36 35.3903 1023.04 L29.9795 1023.04 Q28.7381 1019.82 28.1334 1016.8 Q27.4968 1013.78 27.4968 1010.91 Q27.4968 1003.18 31.5072 999.358 Q35.5176 995.538 43.6657 995.538 Z" fill="#000000" fill-rule="nonzero" fill-opacity="1" /><path clip-path="url(#clip860)" d="M42.4881 953.843 L64.0042 953.843 L64.0042 959.699 L42.679 959.699 Q37.6183 959.699 35.1038 961.673 Q32.5894 963.646 32.5894 967.593 Q32.5894 972.335 35.6131 975.072 Q38.6368 977.81 43.8567 977.81 L64.0042 977.81 L64.0042 983.698 L28.3562 983.698 L28.3562 977.81 L33.8944 977.81 Q30.6797 975.709 29.0883 972.876 Q27.4968 970.012 27.4968 966.288 Q27.4968 960.145 31.3163 956.994 Q35.1038 953.843 42.4881 953.843 Z" fill="#000000" fill-rule="nonzero" fill-opacity="1" /><path clip-path="url(#clip860)" d="M18.2347 915.649 L28.3562 915.649 L28.3562 903.586 L32.9077 903.586 L32.9077 915.649 L52.2594 915.649 Q56.6199 915.649 57.8613 914.471 Q59.1026 913.261 59.1026 909.601 L59.1026 903.586 L64.0042 903.586 L64.0042 909.601 Q64.0042 916.381 61.4897 918.959 Q58.9434 921.537 52.2594 921.537 L32.9077 921.537 L32.9077 925.834 L28.3562 925.834 L28.3562 921.537 L18.2347 921.537 L18.2347 915.649 Z" fill="#000000" fill-rule="nonzero" fill-opacity="1" /><path clip-path="url(#clip860)" d="M33.8307 875.226 Q33.2578 876.213 33.0032 877.391 Q32.7167 878.537 32.7167 879.937 Q32.7167 884.902 35.9632 887.576 Q39.1779 890.218 45.2253 890.218 L64.0042 890.218 L64.0042 896.106 L28.3562 896.106 L28.3562 890.218 L33.8944 890.218 Q30.6479 888.372 29.0883 885.411 Q27.4968 882.451 27.4968 878.218 Q27.4968 877.613 27.5923 876.881 Q27.656 876.149 27.8151 875.258 L33.8307 875.226 Z" fill="#000000" fill-rule="nonzero" fill-opacity="1" /><path clip-path="url(#clip860)" d="M46.0847 852.883 Q46.0847 859.98 47.7079 862.718 Q49.3312 865.455 53.2461 865.455 Q56.3653 865.455 58.2114 863.418 Q60.0256 861.349 60.0256 857.816 Q60.0256 852.946 56.5881 850.018 Q53.1188 847.058 47.3897 847.058 L46.0847 847.058 L46.0847 852.883 M43.6657 841.202 L64.0042 841.202 L64.0042 847.058 L58.5933 847.058 Q61.8398 849.063 63.3994 852.055 Q64.9272 855.047 64.9272 859.376 Q64.9272 864.85 61.8716 868.097 Q58.7843 871.311 53.6281 871.311 Q47.6125 871.311 44.5569 867.301 Q41.5014 863.259 41.5014 855.27 L41.5014 847.058 L40.9285 847.058 Q36.8862 847.058 34.6901 849.732 Q32.4621 852.373 32.4621 857.18 Q32.4621 860.235 33.1941 863.131 Q33.9262 866.028 35.3903 868.701 L29.9795 868.701 Q28.7381 865.487 28.1334 862.463 Q27.4968 859.439 27.4968 856.575 Q27.4968 848.84 31.5072 845.021 Q35.5176 841.202 43.6657 841.202 Z" fill="#000000" fill-rule="nonzero" fill-opacity="1" /><path clip-path="url(#clip860)" d="M28.3562 829.139 L28.3562 823.282 L64.0042 823.282 L64.0042 829.139 L28.3562 829.139 M14.479 829.139 L14.479 823.282 L21.895 823.282 L21.895 829.139 L14.479 829.139 Z" fill="#000000" fill-rule="nonzero" fill-opacity="1" /><path clip-path="url(#clip860)" d="M42.4881 781.396 L64.0042 781.396 L64.0042 787.252 L42.679 787.252 Q37.6183 787.252 35.1038 789.226 Q32.5894 791.199 32.5894 795.146 Q32.5894 799.888 35.6131 802.625 Q38.6368 805.363 43.8567 805.363 L64.0042 805.363 L64.0042 811.251 L28.3562 811.251 L28.3562 805.363 L33.8944 805.363 Q30.6797 803.262 29.0883 800.429 Q27.4968 797.565 27.4968 793.841 Q27.4968 787.698 31.3163 784.547 Q35.1038 781.396 42.4881 781.396 Z" fill="#000000" fill-rule="nonzero" fill-opacity="1" /><path clip-path="url(#clip860)" d="M28.3562 769.715 L28.3562 763.858 L64.0042 763.858 L64.0042 769.715 L28.3562 769.715 M14.479 769.715 L14.479 763.858 L21.895 763.858 L21.895 769.715 L14.479 769.715 Z" fill="#000000" fill-rule="nonzero" fill-opacity="1" /><path clip-path="url(#clip860)" d="M42.4881 721.972 L64.0042 721.972 L64.0042 727.828 L42.679 727.828 Q37.6183 727.828 35.1038 729.802 Q32.5894 731.775 32.5894 735.722 Q32.5894 740.464 35.6131 743.202 Q38.6368 745.939 43.8567 745.939 L64.0042 745.939 L64.0042 751.827 L28.3562 751.827 L28.3562 745.939 L33.8944 745.939 Q30.6797 743.838 29.0883 741.005 Q27.4968 738.141 27.4968 734.417 Q27.4968 728.274 31.3163 725.123 Q35.1038 721.972 42.4881 721.972 Z" fill="#000000" fill-rule="nonzero" fill-opacity="1" /><path clip-path="url(#clip860)" d="M45.7664 686.833 Q39.4007 686.833 35.8996 689.475 Q32.3984 692.085 32.3984 696.827 Q32.3984 701.538 35.8996 704.18 Q39.4007 706.79 45.7664 706.79 Q52.1003 706.79 55.6014 704.18 Q59.1026 701.538 59.1026 696.827 Q59.1026 692.085 55.6014 689.475 Q52.1003 686.833 45.7664 686.833 M59.58 680.977 Q68.683 680.977 73.1071 685.019 Q77.5631 689.061 77.5631 697.4 Q77.5631 700.488 77.0857 703.225 Q76.6401 705.962 75.6852 708.54 L69.9879 708.54 Q71.3884 705.962 72.0568 703.448 Q72.7252 700.933 72.7252 698.323 Q72.7252 692.562 69.7015 689.698 Q66.7096 686.833 60.6303 686.833 L57.7339 686.833 Q60.885 688.647 62.4446 691.48 Q64.0042 694.313 64.0042 698.26 Q64.0042 704.816 59.0071 708.827 Q54.01 712.837 45.7664 712.837 Q37.491 712.837 32.4939 708.827 Q27.4968 704.816 27.4968 698.26 Q27.4968 694.313 29.0564 691.48 Q30.616 688.647 33.7671 686.833 L28.3562 686.833 L28.3562 680.977 L59.58 680.977 Z" fill="#000000" fill-rule="nonzero" fill-opacity="1" /><path clip-path="url(#clip860)" d="M18.2347 642.401 L28.3562 642.401 L28.3562 630.338 L32.9077 630.338 L32.9077 642.401 L52.2594 642.401 Q56.6199 642.401 57.8613 641.223 Q59.1026 640.013 59.1026 636.353 L59.1026 630.338 L64.0042 630.338 L64.0042 636.353 Q64.0042 643.133 61.4897 645.711 Q58.9434 648.289 52.2594 648.289 L32.9077 648.289 L32.9077 652.586 L28.3562 652.586 L28.3562 648.289 L18.2347 648.289 L18.2347 642.401 Z" fill="#000000" fill-rule="nonzero" fill-opacity="1" /><path clip-path="url(#clip860)" d="M28.3562 622.635 L28.3562 616.779 L64.0042 616.779 L64.0042 622.635 L28.3562 622.635 M14.479 622.635 L14.479 616.779 L21.895 616.779 L21.895 622.635 L14.479 622.635 Z" fill="#000000" fill-rule="nonzero" fill-opacity="1" /><path clip-path="url(#clip860)" d="M35.1993 576.77 Q31.2526 574.574 29.3747 571.518 Q27.4968 568.463 27.4968 564.325 Q27.4968 558.755 31.4117 555.732 Q35.2948 552.708 42.4881 552.708 L64.0042 552.708 L64.0042 558.596 L42.679 558.596 Q37.5546 558.596 35.072 560.41 Q32.5894 562.225 32.5894 565.948 Q32.5894 570.5 35.6131 573.142 Q38.6368 575.784 43.8567 575.784 L64.0042 575.784 L64.0042 581.672 L42.679 581.672 Q37.5228 581.672 35.072 583.486 Q32.5894 585.3 32.5894 589.088 Q32.5894 593.576 35.6449 596.217 Q38.6686 598.859 43.8567 598.859 L64.0042 598.859 L64.0042 604.747 L28.3562 604.747 L28.3562 598.859 L33.8944 598.859 Q30.616 596.854 29.0564 594.053 Q27.4968 591.252 27.4968 587.401 Q27.4968 583.518 29.4702 580.812 Q31.4436 578.075 35.1993 576.77 Z" fill="#000000" fill-rule="nonzero" fill-opacity="1" /><path clip-path="url(#clip860)" d="M44.7161 510.535 L47.5806 510.535 L47.5806 537.462 Q53.6281 537.08 56.8109 533.833 Q59.9619 530.555 59.9619 524.731 Q59.9619 521.357 59.1344 518.206 Q58.3069 515.023 56.6518 511.904 L62.1899 511.904 Q63.5267 515.055 64.227 518.365 Q64.9272 521.675 64.9272 525.081 Q64.9272 533.611 59.9619 538.608 Q54.9967 543.573 46.5303 543.573 Q37.7774 543.573 32.6531 538.862 Q27.4968 534.12 27.4968 526.099 Q27.4968 518.906 32.1438 514.736 Q36.7589 510.535 44.7161 510.535 M42.9973 516.391 Q38.1912 516.455 35.3266 519.097 Q32.4621 521.707 32.4621 526.036 Q32.4621 530.937 35.2312 533.897 Q38.0002 536.825 43.0292 537.271 L42.9973 516.391 Z" fill="#000000" fill-rule="nonzero" fill-opacity="1" /><path clip-path="url(#clip860)" d="M14.5426 466.134 Q21.8632 470.399 29.0246 472.468 Q36.186 474.537 43.5384 474.537 Q50.8908 474.537 58.1159 472.468 Q65.3091 470.367 72.5979 466.134 L72.5979 471.227 Q65.1182 476.001 57.8931 478.388 Q50.668 480.744 43.5384 480.744 Q36.4406 480.744 29.2474 478.388 Q22.0542 476.033 14.5426 471.227 L14.5426 466.134 Z" fill="#000000" fill-rule="nonzero" fill-opacity="1" /><path clip-path="url(#clip860)" d="M29.4065 432.046 L34.9447 432.046 Q33.6716 434.528 33.035 437.202 Q32.3984 439.876 32.3984 442.74 Q32.3984 447.101 33.7352 449.297 Q35.072 451.461 37.7456 451.461 Q39.7826 451.461 40.9603 449.902 Q42.1061 448.342 43.1565 443.631 L43.6021 441.626 Q44.9389 435.388 47.3897 432.778 Q49.8086 430.136 54.1691 430.136 Q59.1344 430.136 62.0308 434.083 Q64.9272 437.998 64.9272 444.873 Q64.9272 447.737 64.3543 450.857 Q63.8132 453.944 62.6992 457.381 L56.6518 457.381 Q58.3387 454.135 59.198 450.984 Q60.0256 447.833 60.0256 444.745 Q60.0256 440.608 58.6251 438.38 Q57.1929 436.152 54.6147 436.152 Q52.2276 436.152 50.9545 437.775 Q49.6813 439.366 48.5037 444.809 L48.0262 446.846 Q46.8804 452.289 44.5251 454.708 Q42.138 457.127 38.0002 457.127 Q32.9713 457.127 30.2341 453.562 Q27.4968 449.997 27.4968 443.44 Q27.4968 440.194 27.9743 437.329 Q28.4517 434.465 29.4065 432.046 Z" fill="#000000" fill-rule="nonzero" fill-opacity="1" /><path clip-path="url(#clip860)" d="M14.5426 421.733 L14.5426 416.641 Q22.0542 411.867 29.2474 409.511 Q36.4406 407.124 43.5384 407.124 Q50.668 407.124 57.8931 409.511 Q65.1182 411.867 72.5979 416.641 L72.5979 421.733 Q65.3091 417.5 58.1159 415.431 Q50.8908 413.331 43.5384 413.331 Q36.186 413.331 29.0246 415.431 Q21.8632 417.5 14.5426 421.733 Z" fill="#000000" fill-rule="nonzero" fill-opacity="1" /><path clip-path="url(#clip860)" d="M283.484 12.096 L291.667 12.096 L291.667 65.6895 L321.117 65.6895 L321.117 72.576 L283.484 72.576 L283.484 12.096 Z" fill="#000000" fill-rule="nonzero" fill-opacity="1" /><path clip-path="url(#clip860)" d="M345.503 32.4315 Q339.508 32.4315 336.024 37.1306 Q332.54 41.7891 332.54 49.9314 Q332.54 58.0738 335.983 62.7728 Q339.467 67.4314 345.503 67.4314 Q351.458 67.4314 354.942 62.7323 Q358.425 58.0333 358.425 49.9314 Q358.425 41.8701 354.942 37.1711 Q351.458 32.4315 345.503 32.4315 M345.503 26.1121 Q355.225 26.1121 360.775 32.4315 Q366.325 38.7509 366.325 49.9314 Q366.325 61.0714 360.775 67.4314 Q355.225 73.7508 345.503 73.7508 Q335.74 73.7508 330.191 67.4314 Q324.681 61.0714 324.681 49.9314 Q324.681 38.7509 330.191 32.4315 Q335.74 26.1121 345.503 26.1121 Z" fill="#000000" fill-rule="nonzero" fill-opacity="1" /><path clip-path="url(#clip860)" d="M411.33 28.9478 L411.33 35.9153 Q408.171 34.1734 404.97 33.3227 Q401.811 32.4315 398.57 32.4315 Q391.319 32.4315 387.308 37.0496 Q383.298 41.6271 383.298 49.9314 Q383.298 58.2358 387.308 62.8538 Q391.319 67.4314 398.57 67.4314 Q401.811 67.4314 404.97 66.5807 Q408.171 65.6895 411.33 63.9476 L411.33 70.8341 Q408.211 72.2924 404.849 73.0216 Q401.527 73.7508 397.76 73.7508 Q387.511 73.7508 381.475 67.3098 Q375.439 60.8689 375.439 49.9314 Q375.439 38.832 381.516 32.472 Q387.632 26.1121 398.246 26.1121 Q401.689 26.1121 404.97 26.8413 Q408.252 27.5299 411.33 28.9478 Z" fill="#000000" fill-rule="nonzero" fill-opacity="1" /><path clip-path="url(#clip860)" d="M444.912 49.7694 Q435.879 49.7694 432.395 51.8354 Q428.911 53.9013 428.911 58.8839 Q428.911 62.8538 431.504 65.2034 Q434.137 67.5124 438.633 67.5124 Q444.831 67.5124 448.558 63.1374 Q452.325 58.7219 452.325 51.4303 L452.325 49.7694 L444.912 49.7694 M459.779 46.6907 L459.779 72.576 L452.325 72.576 L452.325 65.6895 Q449.773 69.8214 445.965 71.8063 Q442.158 73.7508 436.648 73.7508 Q429.681 73.7508 425.549 69.8619 Q421.458 65.9325 421.458 59.3701 Q421.458 51.7138 426.562 47.825 Q431.706 43.9361 441.874 43.9361 L452.325 43.9361 L452.325 43.2069 Q452.325 38.0623 448.923 35.2672 Q445.56 32.4315 439.444 32.4315 Q435.555 32.4315 431.868 33.3632 Q428.182 34.295 424.779 36.1584 L424.779 29.2718 Q428.871 27.692 432.719 26.9223 Q436.567 26.1121 440.213 26.1121 Q450.057 26.1121 454.918 31.2163 Q459.779 36.3204 459.779 46.6907 Z" fill="#000000" fill-rule="nonzero" fill-opacity="1" /><path clip-path="url(#clip860)" d="M475.132 9.54393 L482.586 9.54393 L482.586 72.576 L475.132 72.576 L475.132 9.54393 Z" fill="#000000" fill-rule="nonzero" fill-opacity="1" /><path clip-path="url(#clip860)" d="M554.408 34.0924 L554.408 9.54393 L561.862 9.54393 L561.862 72.576 L554.408 72.576 L554.408 65.7705 Q552.059 69.8214 548.453 71.8063 Q544.889 73.7508 539.865 73.7508 Q531.642 73.7508 526.457 67.1883 Q521.312 60.6258 521.312 49.9314 Q521.312 39.2371 526.457 32.6746 Q531.642 26.1121 539.865 26.1121 Q544.889 26.1121 548.453 28.0971 Q552.059 30.0415 554.408 34.0924 M529.009 49.9314 Q529.009 58.1548 532.371 62.8538 Q535.774 67.5124 541.688 67.5124 Q547.603 67.5124 551.005 62.8538 Q554.408 58.1548 554.408 49.9314 Q554.408 41.7081 551.005 37.0496 Q547.603 32.3505 541.688 32.3505 Q535.774 32.3505 532.371 37.0496 Q529.009 41.7081 529.009 49.9314 Z" fill="#000000" fill-rule="nonzero" fill-opacity="1" /><path clip-path="url(#clip860)" d="M577.215 27.2059 L584.668 27.2059 L584.668 72.576 L577.215 72.576 L577.215 27.2059 M577.215 9.54393 L584.668 9.54393 L584.668 18.9825 L577.215 18.9825 L577.215 9.54393 Z" fill="#000000" fill-rule="nonzero" fill-opacity="1" /><path clip-path="url(#clip860)" d="M635.588 35.9153 Q638.383 30.8922 642.272 28.5022 Q646.161 26.1121 651.427 26.1121 Q658.516 26.1121 662.365 31.0947 Q666.213 36.0368 666.213 45.1919 L666.213 72.576 L658.719 72.576 L658.719 45.4349 Q658.719 38.913 656.41 35.7533 Q654.101 32.5936 649.361 32.5936 Q643.569 32.5936 640.206 36.4419 Q636.844 40.2903 636.844 46.9338 L636.844 72.576 L629.35 72.576 L629.35 45.4349 Q629.35 38.8725 627.041 35.7533 Q624.732 32.5936 619.911 32.5936 Q614.2 32.5936 610.837 36.4824 Q607.475 40.3308 607.475 46.9338 L607.475 72.576 L599.981 72.576 L599.981 27.2059 L607.475 27.2059 L607.475 34.2544 Q610.027 30.082 613.592 28.0971 Q617.157 26.1121 622.058 26.1121 Q627 26.1121 630.444 28.6237 Q633.927 31.1352 635.588 35.9153 Z" fill="#000000" fill-rule="nonzero" fill-opacity="1" /><path clip-path="url(#clip860)" d="M719.888 48.0275 L719.888 51.6733 L685.617 51.6733 Q686.103 59.3701 690.235 63.421 Q694.407 67.4314 701.821 67.4314 Q706.115 67.4314 710.125 66.3781 Q714.176 65.3249 718.146 63.2184 L718.146 70.267 Q714.135 71.9684 709.922 72.8596 Q705.709 73.7508 701.375 73.7508 Q690.519 73.7508 684.159 67.4314 Q677.839 61.1119 677.839 50.3365 Q677.839 39.1965 683.835 32.6746 Q689.87 26.1121 700.079 26.1121 Q709.234 26.1121 714.54 32.0264 Q719.888 37.9003 719.888 48.0275 M712.434 45.84 Q712.353 39.7232 708.991 36.0774 Q705.669 32.4315 700.16 32.4315 Q693.921 32.4315 690.154 35.9558 Q686.427 39.4801 685.86 45.8805 L712.434 45.84 Z" fill="#000000" fill-rule="nonzero" fill-opacity="1" /><path clip-path="url(#clip860)" d="M769.835 45.1919 L769.835 72.576 L762.382 72.576 L762.382 45.4349 Q762.382 38.994 759.87 35.7938 Q757.358 32.5936 752.335 32.5936 Q746.3 32.5936 742.816 36.4419 Q739.332 40.2903 739.332 46.9338 L739.332 72.576 L731.838 72.576 L731.838 27.2059 L739.332 27.2059 L739.332 34.2544 Q742.006 30.163 745.611 28.1376 Q749.257 26.1121 753.996 26.1121 Q761.814 26.1121 765.825 30.9732 Q769.835 35.7938 769.835 45.1919 Z" fill="#000000" fill-rule="nonzero" fill-opacity="1" /><path clip-path="url(#clip860)" d="M813.626 28.5427 L813.626 35.5912 Q810.466 33.9709 807.063 33.1607 Q803.66 32.3505 800.015 32.3505 Q794.465 32.3505 791.67 34.0519 Q788.915 35.7533 788.915 39.156 Q788.915 41.7486 790.9 43.2475 Q792.885 44.7058 798.88 46.0426 L801.432 46.6097 Q809.372 48.3111 812.694 51.4303 Q816.056 54.509 816.056 60.0587 Q816.056 66.3781 811.033 70.0644 Q806.05 73.7508 797.3 73.7508 Q793.655 73.7508 789.685 73.0216 Q785.755 72.3329 781.38 70.9151 L781.38 63.2184 Q785.512 65.3654 789.523 66.4591 Q793.533 67.5124 797.462 67.5124 Q802.729 67.5124 805.564 65.73 Q808.4 63.9071 808.4 60.6258 Q808.4 57.5877 806.334 55.9673 Q804.308 54.3469 797.381 52.8481 L794.789 52.2405 Q787.862 50.7821 784.783 47.7845 Q781.704 44.7463 781.704 39.4801 Q781.704 33.0797 786.241 29.5959 Q790.778 26.1121 799.123 26.1121 Q803.255 26.1121 806.901 26.7198 Q810.547 27.3274 813.626 28.5427 Z" fill="#000000" fill-rule="nonzero" fill-opacity="1" /><path clip-path="url(#clip860)" d="M827.925 27.2059 L835.379 27.2059 L835.379 72.576 L827.925 72.576 L827.925 27.2059 M827.925 9.54393 L835.379 9.54393 L835.379 18.9825 L827.925 18.9825 L827.925 9.54393 Z" fill="#000000" fill-rule="nonzero" fill-opacity="1" /><path clip-path="url(#clip860)" d="M868.556 32.4315 Q862.56 32.4315 859.077 37.1306 Q855.593 41.7891 855.593 49.9314 Q855.593 58.0738 859.036 62.7728 Q862.52 67.4314 868.556 67.4314 Q874.511 67.4314 877.994 62.7323 Q881.478 58.0333 881.478 49.9314 Q881.478 41.8701 877.994 37.1711 Q874.511 32.4315 868.556 32.4315 M868.556 26.1121 Q878.278 26.1121 883.828 32.4315 Q889.377 38.7509 889.377 49.9314 Q889.377 61.0714 883.828 67.4314 Q878.278 73.7508 868.556 73.7508 Q858.793 73.7508 853.243 67.4314 Q847.734 61.0714 847.734 49.9314 Q847.734 38.7509 853.243 32.4315 Q858.793 26.1121 868.556 26.1121 Z" fill="#000000" fill-rule="nonzero" fill-opacity="1" /><path clip-path="url(#clip860)" d="M939.447 45.1919 L939.447 72.576 L931.993 72.576 L931.993 45.4349 Q931.993 38.994 929.481 35.7938 Q926.97 32.5936 921.947 32.5936 Q915.911 32.5936 912.427 36.4419 Q908.943 40.2903 908.943 46.9338 L908.943 72.576 L901.449 72.576 L901.449 27.2059 L908.943 27.2059 L908.943 34.2544 Q911.617 30.163 915.222 28.1376 Q918.868 26.1121 923.608 26.1121 Q931.426 26.1121 935.436 30.9732 Q939.447 35.7938 939.447 45.1919 Z" fill="#000000" fill-rule="nonzero" fill-opacity="1" /><path clip-path="url(#clip860)" d="M1010.54 34.0924 L1010.54 9.54393 L1017.99 9.54393 L1017.99 72.576 L1010.54 72.576 L1010.54 65.7705 Q1008.19 69.8214 1004.59 71.8063 Q1001.02 73.7508 995.997 73.7508 Q987.774 73.7508 982.589 67.1883 Q977.444 60.6258 977.444 49.9314 Q977.444 39.2371 982.589 32.6746 Q987.774 26.1121 995.997 26.1121 Q1001.02 26.1121 1004.59 28.0971 Q1008.19 30.0415 1010.54 34.0924 M985.141 49.9314 Q985.141 58.1548 988.503 62.8538 Q991.906 67.5124 997.82 67.5124 Q1003.73 67.5124 1007.14 62.8538 Q1010.54 58.1548 1010.54 49.9314 Q1010.54 41.7081 1007.14 37.0496 Q1003.73 32.3505 997.82 32.3505 Q991.906 32.3505 988.503 37.0496 Q985.141 41.7081 985.141 49.9314 Z" fill="#000000" fill-rule="nonzero" fill-opacity="1" /><path clip-path="url(#clip860)" d="M1051.66 12.096 L1102.82 12.096 L1102.82 18.9825 L1081.35 18.9825 L1081.35 72.576 L1073.13 72.576 L1073.13 18.9825 L1051.66 18.9825 L1051.66 12.096 Z" fill="#000000" fill-rule="nonzero" fill-opacity="1" /><path clip-path="url(#clip860)" d="M1107.84 27.2059 L1115.3 27.2059 L1115.3 72.576 L1107.84 72.576 L1107.84 27.2059 M1107.84 9.54393 L1115.3 9.54393 L1115.3 18.9825 L1107.84 18.9825 L1107.84 9.54393 Z" fill="#000000" fill-rule="nonzero" fill-opacity="1" /><path clip-path="url(#clip860)" d="M1166.22 35.9153 Q1169.01 30.8922 1172.9 28.5022 Q1176.79 26.1121 1182.06 26.1121 Q1189.14 26.1121 1192.99 31.0947 Q1196.84 36.0368 1196.84 45.1919 L1196.84 72.576 L1189.35 72.576 L1189.35 45.4349 Q1189.35 38.913 1187.04 35.7533 Q1184.73 32.5936 1179.99 32.5936 Q1174.2 32.5936 1170.83 36.4419 Q1167.47 40.2903 1167.47 46.9338 L1167.47 72.576 L1159.98 72.576 L1159.98 45.4349 Q1159.98 38.8725 1157.67 35.7533 Q1155.36 32.5936 1150.54 32.5936 Q1144.83 32.5936 1141.47 36.4824 Q1138.1 40.3308 1138.1 46.9338 L1138.1 72.576 L1130.61 72.576 L1130.61 27.2059 L1138.1 27.2059 L1138.1 34.2544 Q1140.66 30.082 1144.22 28.0971 Q1147.78 26.1121 1152.69 26.1121 Q1157.63 26.1121 1161.07 28.6237 Q1164.56 31.1352 1166.22 35.9153 Z" fill="#000000" fill-rule="nonzero" fill-opacity="1" /><path clip-path="url(#clip860)" d="M1250.52 48.0275 L1250.52 51.6733 L1216.24 51.6733 Q1216.73 59.3701 1220.86 63.421 Q1225.04 67.4314 1232.45 67.4314 Q1236.74 67.4314 1240.75 66.3781 Q1244.8 65.3249 1248.77 63.2184 L1248.77 70.267 Q1244.76 71.9684 1240.55 72.8596 Q1236.34 73.7508 1232 73.7508 Q1221.15 73.7508 1214.79 67.4314 Q1208.47 61.1119 1208.47 50.3365 Q1208.47 39.1965 1214.46 32.6746 Q1220.5 26.1121 1230.71 26.1121 Q1239.86 26.1121 1245.17 32.0264 Q1250.52 37.9003 1250.52 48.0275 M1243.06 45.84 Q1242.98 39.7232 1239.62 36.0774 Q1236.3 32.4315 1230.79 32.4315 Q1224.55 32.4315 1220.78 35.9558 Q1217.06 39.4801 1216.49 45.8805 L1243.06 45.84 Z" fill="#000000" fill-rule="nonzero" fill-opacity="1" /><path clip-path="url(#clip860)" d="M1334.73 16.7545 L1334.73 25.383 Q1330.6 21.5346 1325.9 19.6307 Q1321.24 17.7268 1315.98 17.7268 Q1305.61 17.7268 1300.1 24.0867 Q1294.59 30.4061 1294.59 42.3968 Q1294.59 54.3469 1300.1 60.7069 Q1305.61 67.0263 1315.98 67.0263 Q1321.24 67.0263 1325.9 65.1223 Q1330.6 63.2184 1334.73 59.3701 L1334.73 67.9175 Q1330.44 70.8341 1325.62 72.2924 Q1320.84 73.7508 1315.49 73.7508 Q1301.76 73.7508 1293.86 65.3654 Q1285.96 56.9395 1285.96 42.3968 Q1285.96 27.8135 1293.86 19.4281 Q1301.76 11.0023 1315.49 11.0023 Q1320.92 11.0023 1325.7 12.4606 Q1330.52 13.8784 1334.73 16.7545 Z" fill="#000000" fill-rule="nonzero" fill-opacity="1" /><path clip-path="url(#clip860)" d="M1364.63 32.4315 Q1358.63 32.4315 1355.15 37.1306 Q1351.67 41.7891 1351.67 49.9314 Q1351.67 58.0738 1355.11 62.7728 Q1358.59 67.4314 1364.63 67.4314 Q1370.58 67.4314 1374.07 62.7323 Q1377.55 58.0333 1377.55 49.9314 Q1377.55 41.8701 1374.07 37.1711 Q1370.58 32.4315 1364.63 32.4315 M1364.63 26.1121 Q1374.35 26.1121 1379.9 32.4315 Q1385.45 38.7509 1385.45 49.9314 Q1385.45 61.0714 1379.9 67.4314 Q1374.35 73.7508 1364.63 73.7508 Q1354.87 73.7508 1349.32 67.4314 Q1343.81 61.0714 1343.81 49.9314 Q1343.81 38.7509 1349.32 32.4315 Q1354.87 26.1121 1364.63 26.1121 Z" fill="#000000" fill-rule="nonzero" fill-opacity="1" /><path clip-path="url(#clip860)" d="M1433.13 35.9153 Q1435.93 30.8922 1439.81 28.5022 Q1443.7 26.1121 1448.97 26.1121 Q1456.06 26.1121 1459.91 31.0947 Q1463.76 36.0368 1463.76 45.1919 L1463.76 72.576 L1456.26 72.576 L1456.26 45.4349 Q1456.26 38.913 1453.95 35.7533 Q1451.64 32.5936 1446.9 32.5936 Q1441.11 32.5936 1437.75 36.4419 Q1434.39 40.2903 1434.39 46.9338 L1434.39 72.576 L1426.89 72.576 L1426.89 45.4349 Q1426.89 38.8725 1424.58 35.7533 Q1422.27 32.5936 1417.45 32.5936 Q1411.74 32.5936 1408.38 36.4824 Q1405.02 40.3308 1405.02 46.9338 L1405.02 72.576 L1397.52 72.576 L1397.52 27.2059 L1405.02 27.2059 L1405.02 34.2544 Q1407.57 30.082 1411.13 28.0971 Q1414.7 26.1121 1419.6 26.1121 Q1424.54 26.1121 1427.99 28.6237 Q1431.47 31.1352 1433.13 35.9153 Z" fill="#000000" fill-rule="nonzero" fill-opacity="1" /><path clip-path="url(#clip860)" d="M1485.83 65.7705 L1485.83 89.8329 L1478.34 89.8329 L1478.34 27.2059 L1485.83 27.2059 L1485.83 34.0924 Q1488.18 30.0415 1491.75 28.0971 Q1495.35 26.1121 1500.33 26.1121 Q1508.6 26.1121 1513.74 32.6746 Q1518.93 39.2371 1518.93 49.9314 Q1518.93 60.6258 1513.74 67.1883 Q1508.6 73.7508 1500.33 73.7508 Q1495.35 73.7508 1491.75 71.8063 Q1488.18 69.8214 1485.83 65.7705 M1511.19 49.9314 Q1511.19 41.7081 1507.79 37.0496 Q1504.43 32.3505 1498.51 32.3505 Q1492.6 32.3505 1489.19 37.0496 Q1485.83 41.7081 1485.83 49.9314 Q1485.83 58.1548 1489.19 62.8538 Q1492.6 67.5124 1498.51 67.5124 Q1504.43 67.5124 1507.79 62.8538 Q1511.19 58.1548 1511.19 49.9314 Z" fill="#000000" fill-rule="nonzero" fill-opacity="1" /><path clip-path="url(#clip860)" d="M1531.28 9.54393 L1538.74 9.54393 L1538.74 72.576 L1531.28 72.576 L1531.28 9.54393 Z" fill="#000000" fill-rule="nonzero" fill-opacity="1" /><path clip-path="url(#clip860)" d="M1593.14 48.0275 L1593.14 51.6733 L1558.87 51.6733 Q1559.36 59.3701 1563.49 63.421 Q1567.66 67.4314 1575.07 67.4314 Q1579.37 67.4314 1583.38 66.3781 Q1587.43 65.3249 1591.4 63.2184 L1591.4 70.267 Q1587.39 71.9684 1583.18 72.8596 Q1578.96 73.7508 1574.63 73.7508 Q1563.77 73.7508 1557.41 67.4314 Q1551.09 61.1119 1551.09 50.3365 Q1551.09 39.1965 1557.09 32.6746 Q1563.12 26.1121 1573.33 26.1121 Q1582.49 26.1121 1587.79 32.0264 Q1593.14 37.9003 1593.14 48.0275 M1585.69 45.84 Q1585.61 39.7232 1582.24 36.0774 Q1578.92 32.4315 1573.41 32.4315 Q1567.17 32.4315 1563.41 35.9558 Q1559.68 39.4801 1559.11 45.8805 L1585.69 45.84 Z" fill="#000000" fill-rule="nonzero" fill-opacity="1" /><path clip-path="url(#clip860)" d="M1641.63 27.2059 L1625.22 49.2833 L1642.48 72.576 L1633.69 72.576 L1620.48 54.752 L1607.28 72.576 L1598.49 72.576 L1616.11 48.8377 L1599.99 27.2059 L1608.78 27.2059 L1620.81 43.369 L1632.84 27.2059 L1641.63 27.2059 Z" fill="#000000" fill-rule="nonzero" fill-opacity="1" /><path clip-path="url(#clip860)" d="M1653.01 27.2059 L1660.47 27.2059 L1660.47 72.576 L1653.01 72.576 L1653.01 27.2059 M1653.01 9.54393 L1660.47 9.54393 L1660.47 18.9825 L1653.01 18.9825 L1653.01 9.54393 Z" fill="#000000" fill-rule="nonzero" fill-opacity="1" /><path clip-path="url(#clip860)" d="M1683.44 14.324 L1683.44 27.2059 L1698.79 27.2059 L1698.79 32.9987 L1683.44 32.9987 L1683.44 57.6282 Q1683.44 63.1779 1684.93 64.7578 Q1686.47 66.3376 1691.13 66.3376 L1698.79 66.3376 L1698.79 72.576 L1691.13 72.576 Q1682.5 72.576 1679.22 69.3758 Q1675.94 66.1351 1675.94 57.6282 L1675.94 32.9987 L1670.47 32.9987 L1670.47 27.2059 L1675.94 27.2059 L1675.94 14.324 L1683.44 14.324 Z" fill="#000000" fill-rule="nonzero" fill-opacity="1" /><path clip-path="url(#clip860)" d="M1727.47 76.7889 Q1724.31 84.8907 1721.31 87.3618 Q1718.31 89.8329 1713.29 89.8329 L1707.34 89.8329 L1707.34 83.5945 L1711.71 83.5945 Q1714.79 83.5945 1716.49 82.1361 Q1718.19 80.6778 1720.26 75.2496 L1721.6 71.8468 L1703.24 27.2059 L1711.14 27.2059 L1725.32 62.6918 L1739.5 27.2059 L1747.4 27.2059 L1727.47 76.7889 Z" fill="#000000" fill-rule="nonzero" fill-opacity="1" /><path clip-path="url(#clip860)" d="M1759.59 62.2867 L1768.14 62.2867 L1768.14 69.2543 L1761.5 82.2172 L1756.27 82.2172 L1759.59 69.2543 L1759.59 62.2867 Z" fill="#000000" fill-rule="nonzero" fill-opacity="1" /><path clip-path="url(#clip860)" d="M1845.76 35.9153 Q1848.55 30.8922 1852.44 28.5022 Q1856.33 26.1121 1861.59 26.1121 Q1868.68 26.1121 1872.53 31.0947 Q1876.38 36.0368 1876.38 45.1919 L1876.38 72.576 L1868.89 72.576 L1868.89 45.4349 Q1868.89 38.913 1866.58 35.7533 Q1864.27 32.5936 1859.53 32.5936 Q1853.74 32.5936 1850.37 36.4419 Q1847.01 40.2903 1847.01 46.9338 L1847.01 72.576 L1839.52 72.576 L1839.52 45.4349 Q1839.52 38.8725 1837.21 35.7533 Q1834.9 32.5936 1830.08 32.5936 Q1824.37 32.5936 1821 36.4824 Q1817.64 40.3308 1817.64 46.9338 L1817.64 72.576 L1810.15 72.576 L1810.15 27.2059 L1817.64 27.2059 L1817.64 34.2544 Q1820.19 30.082 1823.76 28.0971 Q1827.32 26.1121 1832.23 26.1121 Q1837.17 26.1121 1840.61 28.6237 Q1844.09 31.1352 1845.76 35.9153 Z" fill="#000000" fill-rule="nonzero" fill-opacity="1" /><path clip-path="url(#clip860)" d="M1918.59 34.9026 L1970.52 34.9026 L1970.52 41.7081 L1918.59 41.7081 L1918.59 34.9026 M1918.59 51.4303 L1970.52 51.4303 L1970.52 58.3168 L1918.59 58.3168 L1918.59 51.4303 Z" fill="#000000" fill-rule="nonzero" fill-opacity="1" /><path clip-path="url(#clip860)" d="M2015.97 65.6895 L2029.34 65.6895 L2029.34 19.5497 L2014.8 22.4663 L2014.8 15.0127 L2029.26 12.096 L2037.44 12.096 L2037.44 65.6895 L2050.81 65.6895 L2050.81 72.576 L2015.97 72.576 L2015.97 65.6895 Z" fill="#000000" fill-rule="nonzero" fill-opacity="1" /><path clip-path="url(#clip860)" d="M2067.34 62.2867 L2075.89 62.2867 L2075.89 72.576 L2067.34 72.576 L2067.34 62.2867 Z" fill="#000000" fill-rule="nonzero" fill-opacity="1" /><path clip-path="url(#clip860)" d="M2111.21 43.8551 Q2105.38 43.8551 2102.02 46.9743 Q2098.69 50.0935 2098.69 55.5622 Q2098.69 61.0309 2102.02 64.1501 Q2105.38 67.2693 2111.21 67.2693 Q2117.04 67.2693 2120.41 64.1501 Q2123.77 60.9904 2123.77 55.5622 Q2123.77 50.0935 2120.41 46.9743 Q2117.08 43.8551 2111.21 43.8551 M2103.03 40.3713 Q2097.76 39.075 2094.81 35.4697 Q2091.89 31.8644 2091.89 26.6793 Q2091.89 19.4281 2097.03 15.2152 Q2102.22 11.0023 2111.21 11.0023 Q2120.24 11.0023 2125.39 15.2152 Q2130.53 19.4281 2130.53 26.6793 Q2130.53 31.8644 2127.58 35.4697 Q2124.66 39.075 2119.43 40.3713 Q2125.35 41.7486 2128.63 45.759 Q2131.95 49.7694 2131.95 55.5622 Q2131.95 64.3527 2126.56 69.0517 Q2121.22 73.7508 2111.21 73.7508 Q2101.21 73.7508 2095.82 69.0517 Q2090.47 64.3527 2090.47 55.5622 Q2090.47 49.7694 2093.79 45.759 Q2097.11 41.7486 2103.03 40.3713 M2100.03 27.4489 Q2100.03 32.148 2102.95 34.7811 Q2105.9 37.4142 2111.21 37.4142 Q2116.48 37.4142 2119.43 34.7811 Q2122.43 32.148 2122.43 27.4489 Q2122.43 22.7499 2119.43 20.1168 Q2116.48 17.4837 2111.21 17.4837 Q2105.9 17.4837 2102.95 20.1168 Q2100.03 22.7499 2100.03 27.4489 Z" fill="#000000" fill-rule="nonzero" fill-opacity="1" /><path clip-path="url(#clip860)" d="M2163.99 43.8551 Q2158.16 43.8551 2154.8 46.9743 Q2151.48 50.0935 2151.48 55.5622 Q2151.48 61.0309 2154.8 64.1501 Q2158.16 67.2693 2163.99 67.2693 Q2169.83 67.2693 2173.19 64.1501 Q2176.55 60.9904 2176.55 55.5622 Q2176.55 50.0935 2173.19 46.9743 Q2169.87 43.8551 2163.99 43.8551 M2155.81 40.3713 Q2150.55 39.075 2147.59 35.4697 Q2144.67 31.8644 2144.67 26.6793 Q2144.67 19.4281 2149.82 15.2152 Q2155 11.0023 2163.99 11.0023 Q2173.03 11.0023 2178.17 15.2152 Q2183.32 19.4281 2183.32 26.6793 Q2183.32 31.8644 2180.36 35.4697 Q2177.44 39.075 2172.22 40.3713 Q2178.13 41.7486 2181.41 45.759 Q2184.74 49.7694 2184.74 55.5622 Q2184.74 64.3527 2179.35 69.0517 Q2174 73.7508 2163.99 73.7508 Q2153.99 73.7508 2148.6 69.0517 Q2143.25 64.3527 2143.25 55.5622 Q2143.25 49.7694 2146.58 45.759 Q2149.9 41.7486 2155.81 40.3713 M2152.81 27.4489 Q2152.81 32.148 2155.73 34.7811 Q2158.69 37.4142 2163.99 37.4142 Q2169.26 37.4142 2172.22 34.7811 Q2175.22 32.148 2175.22 27.4489 Q2175.22 22.7499 2172.22 20.1168 Q2169.26 17.4837 2163.99 17.4837 Q2158.69 17.4837 2155.73 20.1168 Q2152.81 22.7499 2152.81 27.4489 Z" fill="#000000" fill-rule="nonzero" fill-opacity="1" /><path clip-path="url(#clip860)" d="M2199.52 71.3202 L2199.52 63.8666 Q2202.6 65.3249 2205.76 66.0946 Q2208.92 66.8642 2211.96 66.8642 Q2220.06 66.8642 2224.31 61.436 Q2228.61 55.9673 2229.21 44.8678 Q2226.86 48.3516 2223.26 50.215 Q2219.65 52.0784 2215.28 52.0784 Q2206.2 52.0784 2200.9 46.6097 Q2195.63 41.1005 2195.63 31.5808 Q2195.63 22.2638 2201.14 16.633 Q2206.65 11.0023 2215.81 11.0023 Q2226.3 11.0023 2231.81 19.0636 Q2237.36 27.0843 2237.36 42.3968 Q2237.36 56.6965 2230.55 65.2439 Q2223.79 73.7508 2212.32 73.7508 Q2209.24 73.7508 2206.08 73.1431 Q2202.92 72.5355 2199.52 71.3202 M2215.81 45.678 Q2221.31 45.678 2224.51 41.9107 Q2227.76 38.1433 2227.76 31.5808 Q2227.76 25.0589 2224.51 21.2916 Q2221.31 17.4837 2215.81 17.4837 Q2210.3 17.4837 2207.06 21.2916 Q2203.86 25.0589 2203.86 31.5808 Q2203.86 38.1433 2207.06 41.9107 Q2210.3 45.678 2215.81 45.678 Z" fill="#000000" fill-rule="nonzero" fill-opacity="1" /><path clip-path="url(#clip860)" d="M2276.85 39.9662 Q2282.73 41.222 2286.01 45.1919 Q2289.33 49.1618 2289.33 54.9951 Q2289.33 63.9476 2283.17 68.8492 Q2277.01 73.7508 2265.67 73.7508 Q2261.86 73.7508 2257.81 72.9811 Q2253.8 72.2519 2249.51 70.7531 L2249.51 62.8538 Q2252.91 64.8388 2256.96 65.8515 Q2261.01 66.8642 2265.43 66.8642 Q2273.13 66.8642 2277.14 63.826 Q2281.19 60.7879 2281.19 54.9951 Q2281.19 49.6479 2277.42 46.6502 Q2273.69 43.612 2267.01 43.612 L2259.96 43.612 L2259.96 36.8875 L2267.33 36.8875 Q2273.37 36.8875 2276.57 34.4975 Q2279.77 32.067 2279.77 27.5299 Q2279.77 22.8714 2276.45 20.4004 Q2273.17 17.8888 2267.01 17.8888 Q2263.65 17.8888 2259.8 18.618 Q2255.95 19.3471 2251.33 20.8865 L2251.33 13.5948 Q2255.99 12.2985 2260.04 11.6504 Q2264.13 11.0023 2267.74 11.0023 Q2277.06 11.0023 2282.48 15.2557 Q2287.91 19.4686 2287.91 26.6793 Q2287.91 31.7024 2285.04 35.1862 Q2282.16 38.6294 2276.85 39.9662 Z" fill="#000000" fill-rule="nonzero" fill-opacity="1" /><polyline clip-path="url(#clip862)" style="stroke:#ff00ff; stroke-linecap:round; stroke-linejoin:round; stroke-width:8; stroke-opacity:1; fill:none" points="280.417,1348.85 634.709,1237.37 886.083,1134.06 1081.06,1015.7 1240.37,879.703 1375.07,861.508 1491.75,757.315 1594.67,674.728 1686.73,634.495 1770.01,576.111 1846.04,518.481 1915.98,477.241 1980.74,452.008 2041.02,392.992 2097.42,355.329 2150.39,319.916 2200.33,292.294 2247.58,226.413 2292.4,229.951 "/>
<polyline clip-path="url(#clip862)" style="stroke:#000000; stroke-linecap:round; stroke-linejoin:round; stroke-width:4; stroke-opacity:1; fill:none" points="280.417,1374.46 280.417,1325.42 "/>
<polyline clip-path="url(#clip862)" style="stroke:#000000; stroke-linecap:round; stroke-linejoin:round; stroke-width:4; stroke-opacity:1; fill:none" points="634.709,1251.42 634.709,1223.99 "/>
<polyline clip-path="url(#clip862)" style="stroke:#000000; stroke-linecap:round; stroke-linejoin:round; stroke-width:4; stroke-opacity:1; fill:none" points="886.083,1146.34 886.083,1122.29 "/>
<polyline clip-path="url(#clip862)" style="stroke:#000000; stroke-linecap:round; stroke-linejoin:round; stroke-width:4; stroke-opacity:1; fill:none" points="1081.06,1044.17 1081.06,989.902 "/>
<polyline clip-path="url(#clip862)" style="stroke:#000000; stroke-linecap:round; stroke-linejoin:round; stroke-width:4; stroke-opacity:1; fill:none" points="1240.37,916.489 1240.37,847.254 "/>
<polyline clip-path="url(#clip862)" style="stroke:#000000; stroke-linecap:round; stroke-linejoin:round; stroke-width:4; stroke-opacity:1; fill:none" points="1375.07,893.737 1375.07,832.654 "/>
<polyline clip-path="url(#clip862)" style="stroke:#000000; stroke-linecap:round; stroke-linejoin:round; stroke-width:4; stroke-opacity:1; fill:none" points="1491.75,773.834 1491.75,741.729 "/>
<polyline clip-path="url(#clip862)" style="stroke:#000000; stroke-linecap:round; stroke-linejoin:round; stroke-width:4; stroke-opacity:1; fill:none" points="1594.67,688.277 1594.67,661.813 "/>
<polyline clip-path="url(#clip862)" style="stroke:#000000; stroke-linecap:round; stroke-linejoin:round; stroke-width:4; stroke-opacity:1; fill:none" points="1686.73,649.756 1686.73,620.034 "/>
<polyline clip-path="url(#clip862)" style="stroke:#000000; stroke-linecap:round; stroke-linejoin:round; stroke-width:4; stroke-opacity:1; fill:none" points="1770.01,591.925 1770.01,561.154 "/>
<polyline clip-path="url(#clip862)" style="stroke:#000000; stroke-linecap:round; stroke-linejoin:round; stroke-width:4; stroke-opacity:1; fill:none" points="1846.04,546.582 1846.04,492.982 "/>
<polyline clip-path="url(#clip862)" style="stroke:#000000; stroke-linecap:round; stroke-linejoin:round; stroke-width:4; stroke-opacity:1; fill:none" points="1915.98,500.311 1915.98,455.954 "/>
<polyline clip-path="url(#clip862)" style="stroke:#000000; stroke-linecap:round; stroke-linejoin:round; stroke-width:4; stroke-opacity:1; fill:none" points="1980.74,453.827 1980.74,450.201 "/>
<polyline clip-path="url(#clip862)" style="stroke:#000000; stroke-linecap:round; stroke-linejoin:round; stroke-width:4; stroke-opacity:1; fill:none" points="2041.02,415.897 2041.02,371.845 "/>
<polyline clip-path="url(#clip862)" style="stroke:#000000; stroke-linecap:round; stroke-linejoin:round; stroke-width:4; stroke-opacity:1; fill:none" points="2097.42,376.157 2097.42,335.965 "/>
<polyline clip-path="url(#clip862)" style="stroke:#000000; stroke-linecap:round; stroke-linejoin:round; stroke-width:4; stroke-opacity:1; fill:none" points="2150.39,332.715 2150.39,307.686 "/>
<polyline clip-path="url(#clip862)" style="stroke:#000000; stroke-linecap:round; stroke-linejoin:round; stroke-width:4; stroke-opacity:1; fill:none" points="2200.33,294.77 2200.33,289.841 "/>
<polyline clip-path="url(#clip862)" style="stroke:#000000; stroke-linecap:round; stroke-linejoin:round; stroke-width:4; stroke-opacity:1; fill:none" points="2247.58,314.24 2247.58,159.909 "/>
<polyline clip-path="url(#clip862)" style="stroke:#000000; stroke-linecap:round; stroke-linejoin:round; stroke-width:4; stroke-opacity:1; fill:none" points="2292.4,233.334 2292.4,226.609 "/>
<line clip-path="url(#clip862)" x1="296.417" y1="1374.46" x2="264.417" y2="1374.46" style="stroke:#000000; stroke-width:4; stroke-opacity:1"/>
<line clip-path="url(#clip862)" x1="296.417" y1="1325.42" x2="264.417" y2="1325.42" style="stroke:#000000; stroke-width:4; stroke-opacity:1"/>
<line clip-path="url(#clip862)" x1="650.709" y1="1251.42" x2="618.709" y2="1251.42" style="stroke:#000000; stroke-width:4; stroke-opacity:1"/>
<line clip-path="url(#clip862)" x1="650.709" y1="1223.99" x2="618.709" y2="1223.99" style="stroke:#000000; stroke-width:4; stroke-opacity:1"/>
<line clip-path="url(#clip862)" x1="902.083" y1="1146.34" x2="870.083" y2="1146.34" style="stroke:#000000; stroke-width:4; stroke-opacity:1"/>
<line clip-path="url(#clip862)" x1="902.083" y1="1122.29" x2="870.083" y2="1122.29" style="stroke:#000000; stroke-width:4; stroke-opacity:1"/>
<line clip-path="url(#clip862)" x1="1097.06" y1="1044.17" x2="1065.06" y2="1044.17" style="stroke:#000000; stroke-width:4; stroke-opacity:1"/>
<line clip-path="url(#clip862)" x1="1097.06" y1="989.902" x2="1065.06" y2="989.902" style="stroke:#000000; stroke-width:4; stroke-opacity:1"/>
<line clip-path="url(#clip862)" x1="1256.37" y1="916.489" x2="1224.37" y2="916.489" style="stroke:#000000; stroke-width:4; stroke-opacity:1"/>
<line clip-path="url(#clip862)" x1="1256.37" y1="847.254" x2="1224.37" y2="847.254" style="stroke:#000000; stroke-width:4; stroke-opacity:1"/>
<line clip-path="url(#clip862)" x1="1391.07" y1="893.737" x2="1359.07" y2="893.737" style="stroke:#000000; stroke-width:4; stroke-opacity:1"/>
<line clip-path="url(#clip862)" x1="1391.07" y1="832.654" x2="1359.07" y2="832.654" style="stroke:#000000; stroke-width:4; stroke-opacity:1"/>
<line clip-path="url(#clip862)" x1="1507.75" y1="773.834" x2="1475.75" y2="773.834" style="stroke:#000000; stroke-width:4; stroke-opacity:1"/>
<line clip-path="url(#clip862)" x1="1507.75" y1="741.729" x2="1475.75" y2="741.729" style="stroke:#000000; stroke-width:4; stroke-opacity:1"/>
<line clip-path="url(#clip862)" x1="1610.67" y1="688.277" x2="1578.67" y2="688.277" style="stroke:#000000; stroke-width:4; stroke-opacity:1"/>
<line clip-path="url(#clip862)" x1="1610.67" y1="661.813" x2="1578.67" y2="661.813" style="stroke:#000000; stroke-width:4; stroke-opacity:1"/>
<line clip-path="url(#clip862)" x1="1702.73" y1="649.756" x2="1670.73" y2="649.756" style="stroke:#000000; stroke-width:4; stroke-opacity:1"/>
<line clip-path="url(#clip862)" x1="1702.73" y1="620.034" x2="1670.73" y2="620.034" style="stroke:#000000; stroke-width:4; stroke-opacity:1"/>
<line clip-path="url(#clip862)" x1="1786.01" y1="591.925" x2="1754.01" y2="591.925" style="stroke:#000000; stroke-width:4; stroke-opacity:1"/>
<line clip-path="url(#clip862)" x1="1786.01" y1="561.154" x2="1754.01" y2="561.154" style="stroke:#000000; stroke-width:4; stroke-opacity:1"/>
<line clip-path="url(#clip862)" x1="1862.04" y1="546.582" x2="1830.04" y2="546.582" style="stroke:#000000; stroke-width:4; stroke-opacity:1"/>
<line clip-path="url(#clip862)" x1="1862.04" y1="492.982" x2="1830.04" y2="492.982" style="stroke:#000000; stroke-width:4; stroke-opacity:1"/>
<line clip-path="url(#clip862)" x1="1931.98" y1="500.311" x2="1899.98" y2="500.311" style="stroke:#000000; stroke-width:4; stroke-opacity:1"/>
<line clip-path="url(#clip862)" x1="1931.98" y1="455.954" x2="1899.98" y2="455.954" style="stroke:#000000; stroke-width:4; stroke-opacity:1"/>
<line clip-path="url(#clip862)" x1="1996.74" y1="453.827" x2="1964.74" y2="453.827" style="stroke:#000000; stroke-width:4; stroke-opacity:1"/>
<line clip-path="url(#clip862)" x1="1996.74" y1="450.201" x2="1964.74" y2="450.201" style="stroke:#000000; stroke-width:4; stroke-opacity:1"/>
<line clip-path="url(#clip862)" x1="2057.02" y1="415.897" x2="2025.02" y2="415.897" style="stroke:#000000; stroke-width:4; stroke-opacity:1"/>
<line clip-path="url(#clip862)" x1="2057.02" y1="371.845" x2="2025.02" y2="371.845" style="stroke:#000000; stroke-width:4; stroke-opacity:1"/>
<line clip-path="url(#clip862)" x1="2113.42" y1="376.157" x2="2081.42" y2="376.157" style="stroke:#000000; stroke-width:4; stroke-opacity:1"/>
<line clip-path="url(#clip862)" x1="2113.42" y1="335.965" x2="2081.42" y2="335.965" style="stroke:#000000; stroke-width:4; stroke-opacity:1"/>
<line clip-path="url(#clip862)" x1="2166.39" y1="332.715" x2="2134.39" y2="332.715" style="stroke:#000000; stroke-width:4; stroke-opacity:1"/>
<line clip-path="url(#clip862)" x1="2166.39" y1="307.686" x2="2134.39" y2="307.686" style="stroke:#000000; stroke-width:4; stroke-opacity:1"/>
<line clip-path="url(#clip862)" x1="2216.33" y1="294.77" x2="2184.33" y2="294.77" style="stroke:#000000; stroke-width:4; stroke-opacity:1"/>
<line clip-path="url(#clip862)" x1="2216.33" y1="289.841" x2="2184.33" y2="289.841" style="stroke:#000000; stroke-width:4; stroke-opacity:1"/>
<line clip-path="url(#clip862)" x1="2263.58" y1="314.24" x2="2231.58" y2="314.24" style="stroke:#000000; stroke-width:4; stroke-opacity:1"/>
<line clip-path="url(#clip862)" x1="2263.58" y1="159.909" x2="2231.58" y2="159.909" style="stroke:#000000; stroke-width:4; stroke-opacity:1"/>
<line clip-path="url(#clip862)" x1="2308.4" y1="233.334" x2="2276.4" y2="233.334" style="stroke:#000000; stroke-width:4; stroke-opacity:1"/>
<line clip-path="url(#clip862)" x1="2308.4" y1="226.609" x2="2276.4" y2="226.609" style="stroke:#000000; stroke-width:4; stroke-opacity:1"/>
<circle clip-path="url(#clip862)" cx="280.417" cy="1348.85" r="14.4" fill="#ff00ff" fill-rule="evenodd" fill-opacity="1" stroke="#000000" stroke-opacity="1" stroke-width="3.2"/>
<circle clip-path="url(#clip862)" cx="634.709" cy="1237.37" r="14.4" fill="#ff00ff" fill-rule="evenodd" fill-opacity="1" stroke="#000000" stroke-opacity="1" stroke-width="3.2"/>
<circle clip-path="url(#clip862)" cx="886.083" cy="1134.06" r="14.4" fill="#ff00ff" fill-rule="evenodd" fill-opacity="1" stroke="#000000" stroke-opacity="1" stroke-width="3.2"/>
<circle clip-path="url(#clip862)" cx="1081.06" cy="1015.7" r="14.4" fill="#ff00ff" fill-rule="evenodd" fill-opacity="1" stroke="#000000" stroke-opacity="1" stroke-width="3.2"/>
<circle clip-path="url(#clip862)" cx="1240.37" cy="879.703" r="14.4" fill="#ff00ff" fill-rule="evenodd" fill-opacity="1" stroke="#000000" stroke-opacity="1" stroke-width="3.2"/>
<circle clip-path="url(#clip862)" cx="1375.07" cy="861.508" r="14.4" fill="#ff00ff" fill-rule="evenodd" fill-opacity="1" stroke="#000000" stroke-opacity="1" stroke-width="3.2"/>
<circle clip-path="url(#clip862)" cx="1491.75" cy="757.315" r="14.4" fill="#ff00ff" fill-rule="evenodd" fill-opacity="1" stroke="#000000" stroke-opacity="1" stroke-width="3.2"/>
<circle clip-path="url(#clip862)" cx="1594.67" cy="674.728" r="14.4" fill="#ff00ff" fill-rule="evenodd" fill-opacity="1" stroke="#000000" stroke-opacity="1" stroke-width="3.2"/>
<circle clip-path="url(#clip862)" cx="1686.73" cy="634.495" r="14.4" fill="#ff00ff" fill-rule="evenodd" fill-opacity="1" stroke="#000000" stroke-opacity="1" stroke-width="3.2"/>
<circle clip-path="url(#clip862)" cx="1770.01" cy="576.111" r="14.4" fill="#ff00ff" fill-rule="evenodd" fill-opacity="1" stroke="#000000" stroke-opacity="1" stroke-width="3.2"/>
<circle clip-path="url(#clip862)" cx="1846.04" cy="518.481" r="14.4" fill="#ff00ff" fill-rule="evenodd" fill-opacity="1" stroke="#000000" stroke-opacity="1" stroke-width="3.2"/>
<circle clip-path="url(#clip862)" cx="1915.98" cy="477.241" r="14.4" fill="#ff00ff" fill-rule="evenodd" fill-opacity="1" stroke="#000000" stroke-opacity="1" stroke-width="3.2"/>
<circle clip-path="url(#clip862)" cx="1980.74" cy="452.008" r="14.4" fill="#ff00ff" fill-rule="evenodd" fill-opacity="1" stroke="#000000" stroke-opacity="1" stroke-width="3.2"/>
<circle clip-path="url(#clip862)" cx="2041.02" cy="392.992" r="14.4" fill="#ff00ff" fill-rule="evenodd" fill-opacity="1" stroke="#000000" stroke-opacity="1" stroke-width="3.2"/>
<circle clip-path="url(#clip862)" cx="2097.42" cy="355.329" r="14.4" fill="#ff00ff" fill-rule="evenodd" fill-opacity="1" stroke="#000000" stroke-opacity="1" stroke-width="3.2"/>
<circle clip-path="url(#clip862)" cx="2150.39" cy="319.916" r="14.4" fill="#ff00ff" fill-rule="evenodd" fill-opacity="1" stroke="#000000" stroke-opacity="1" stroke-width="3.2"/>
<circle clip-path="url(#clip862)" cx="2200.33" cy="292.294" r="14.4" fill="#ff00ff" fill-rule="evenodd" fill-opacity="1" stroke="#000000" stroke-opacity="1" stroke-width="3.2"/>
<circle clip-path="url(#clip862)" cx="2247.58" cy="226.413" r="14.4" fill="#ff00ff" fill-rule="evenodd" fill-opacity="1" stroke="#000000" stroke-opacity="1" stroke-width="3.2"/>
<circle clip-path="url(#clip862)" cx="2292.4" cy="229.951" r="14.4" fill="#ff00ff" fill-rule="evenodd" fill-opacity="1" stroke="#000000" stroke-opacity="1" stroke-width="3.2"/>
</svg>
