<?xml version="1.0" encoding="utf-8"?>
<svg xmlns="http://www.w3.org/2000/svg" xmlns:xlink="http://www.w3.org/1999/xlink" width="600" height="400" viewBox="0 0 2400 1600">
<defs>
  <clipPath id="clip620">
    <rect x="0" y="0" width="2400" height="1600"/>
  </clipPath>
</defs>
<path clip-path="url(#clip620)" d="M0 1600 L2400 1600 L2400 8.88178e-14 L0 8.88178e-14  Z" fill="#ffffff" fill-rule="evenodd" fill-opacity="1"/>
<defs>
  <clipPath id="clip621">
    <rect x="480" y="0" width="1681" height="1600"/>
  </clipPath>
</defs>
<path clip-path="url(#clip620)" d="M221.637 1410.9 L2352.76 1410.9 L2352.76 123.472 L221.637 123.472  Z" fill="#ffffff" fill-rule="evenodd" fill-opacity="1"/>
<defs>
  <clipPath id="clip622">
    <rect x="221" y="123" width="2132" height="1288"/>
  </clipPath>
</defs>
<polyline clip-path="url(#clip622)" style="stroke:#000000; stroke-linecap:round; stroke-linejoin:round; stroke-width:2; stroke-opacity:0.05; fill:none" points="381.32,1410.9 381.32,123.472 "/>
<polyline clip-path="url(#clip622)" style="stroke:#000000; stroke-linecap:round; stroke-linejoin:round; stroke-width:2; stroke-opacity:0.05; fill:none" points="538.11,1410.9 538.11,123.472 "/>
<polyline clip-path="url(#clip622)" style="stroke:#000000; stroke-linecap:round; stroke-linejoin:round; stroke-width:2; stroke-opacity:0.05; fill:none" points="659.726,1410.9 659.726,123.472 "/>
<polyline clip-path="url(#clip622)" style="stroke:#000000; stroke-linecap:round; stroke-linejoin:round; stroke-width:2; stroke-opacity:0.05; fill:none" points="759.094,1410.9 759.094,123.472 "/>
<polyline clip-path="url(#clip622)" style="stroke:#000000; stroke-linecap:round; stroke-linejoin:round; stroke-width:2; stroke-opacity:0.05; fill:none" points="843.108,1410.9 843.108,123.472 "/>
<polyline clip-path="url(#clip622)" style="stroke:#000000; stroke-linecap:round; stroke-linejoin:round; stroke-width:2; stroke-opacity:0.05; fill:none" points="915.885,1410.9 915.885,123.472 "/>
<polyline clip-path="url(#clip622)" style="stroke:#000000; stroke-linecap:round; stroke-linejoin:round; stroke-width:2; stroke-opacity:0.05; fill:none" points="980.078,1410.9 980.078,123.472 "/>
<polyline clip-path="url(#clip622)" style="stroke:#000000; stroke-linecap:round; stroke-linejoin:round; stroke-width:2; stroke-opacity:0.05; fill:none" points="1415.28,1410.9 1415.28,123.472 "/>
<polyline clip-path="url(#clip622)" style="stroke:#000000; stroke-linecap:round; stroke-linejoin:round; stroke-width:2; stroke-opacity:0.05; fill:none" points="1636.26,1410.9 1636.26,123.472 "/>
<polyline clip-path="url(#clip622)" style="stroke:#000000; stroke-linecap:round; stroke-linejoin:round; stroke-width:2; stroke-opacity:0.05; fill:none" points="1793.05,1410.9 1793.05,123.472 "/>
<polyline clip-path="url(#clip622)" style="stroke:#000000; stroke-linecap:round; stroke-linejoin:round; stroke-width:2; stroke-opacity:0.05; fill:none" points="1914.67,1410.9 1914.67,123.472 "/>
<polyline clip-path="url(#clip622)" style="stroke:#000000; stroke-linecap:round; stroke-linejoin:round; stroke-width:2; stroke-opacity:0.05; fill:none" points="2014.03,1410.9 2014.03,123.472 "/>
<polyline clip-path="url(#clip622)" style="stroke:#000000; stroke-linecap:round; stroke-linejoin:round; stroke-width:2; stroke-opacity:0.05; fill:none" points="2098.05,1410.9 2098.05,123.472 "/>
<polyline clip-path="url(#clip622)" style="stroke:#000000; stroke-linecap:round; stroke-linejoin:round; stroke-width:2; stroke-opacity:0.05; fill:none" points="2170.82,1410.9 2170.82,123.472 "/>
<polyline clip-path="url(#clip622)" style="stroke:#000000; stroke-linecap:round; stroke-linejoin:round; stroke-width:2; stroke-opacity:0.05; fill:none" points="2235.02,1410.9 2235.02,123.472 "/>
<polyline clip-path="url(#clip622)" style="stroke:#000000; stroke-linecap:round; stroke-linejoin:round; stroke-width:2; stroke-opacity:0.05; fill:none" points="221.637,1393.14 2352.76,1393.14 "/>
<polyline clip-path="url(#clip622)" style="stroke:#000000; stroke-linecap:round; stroke-linejoin:round; stroke-width:2; stroke-opacity:0.05; fill:none" points="221.637,1353.37 2352.76,1353.37 "/>
<polyline clip-path="url(#clip622)" style="stroke:#000000; stroke-linecap:round; stroke-linejoin:round; stroke-width:2; stroke-opacity:0.05; fill:none" points="221.637,1318.29 2352.76,1318.29 "/>
<polyline clip-path="url(#clip622)" style="stroke:#000000; stroke-linecap:round; stroke-linejoin:round; stroke-width:2; stroke-opacity:0.05; fill:none" points="221.637,1080.48 2352.76,1080.48 "/>
<polyline clip-path="url(#clip622)" style="stroke:#000000; stroke-linecap:round; stroke-linejoin:round; stroke-width:2; stroke-opacity:0.05; fill:none" points="221.637,959.72 2352.76,959.72 "/>
<polyline clip-path="url(#clip622)" style="stroke:#000000; stroke-linecap:round; stroke-linejoin:round; stroke-width:2; stroke-opacity:0.05; fill:none" points="221.637,874.042 2352.76,874.042 "/>
<polyline clip-path="url(#clip622)" style="stroke:#000000; stroke-linecap:round; stroke-linejoin:round; stroke-width:2; stroke-opacity:0.05; fill:none" points="221.637,807.584 2352.76,807.584 "/>
<polyline clip-path="url(#clip622)" style="stroke:#000000; stroke-linecap:round; stroke-linejoin:round; stroke-width:2; stroke-opacity:0.05; fill:none" points="221.637,753.285 2352.76,753.285 "/>
<polyline clip-path="url(#clip622)" style="stroke:#000000; stroke-linecap:round; stroke-linejoin:round; stroke-width:2; stroke-opacity:0.05; fill:none" points="221.637,707.375 2352.76,707.375 "/>
<polyline clip-path="url(#clip622)" style="stroke:#000000; stroke-linecap:round; stroke-linejoin:round; stroke-width:2; stroke-opacity:0.05; fill:none" points="221.637,667.606 2352.76,667.606 "/>
<polyline clip-path="url(#clip622)" style="stroke:#000000; stroke-linecap:round; stroke-linejoin:round; stroke-width:2; stroke-opacity:0.05; fill:none" points="221.637,632.528 2352.76,632.528 "/>
<polyline clip-path="url(#clip622)" style="stroke:#000000; stroke-linecap:round; stroke-linejoin:round; stroke-width:2; stroke-opacity:0.05; fill:none" points="221.637,394.713 2352.76,394.713 "/>
<polyline clip-path="url(#clip622)" style="stroke:#000000; stroke-linecap:round; stroke-linejoin:round; stroke-width:2; stroke-opacity:0.05; fill:none" points="221.637,273.956 2352.76,273.956 "/>
<polyline clip-path="url(#clip622)" style="stroke:#000000; stroke-linecap:round; stroke-linejoin:round; stroke-width:2; stroke-opacity:0.05; fill:none" points="221.637,188.278 2352.76,188.278 "/>
<polyline clip-path="url(#clip622)" style="stroke:#000000; stroke-linecap:round; stroke-linejoin:round; stroke-width:2; stroke-opacity:0.1; fill:none" points="1037.5,1410.9 1037.5,123.472 "/>
<polyline clip-path="url(#clip622)" style="stroke:#000000; stroke-linecap:round; stroke-linejoin:round; stroke-width:2; stroke-opacity:0.1; fill:none" points="2292.44,1410.9 2292.44,123.472 "/>
<polyline clip-path="url(#clip622)" style="stroke:#000000; stroke-linecap:round; stroke-linejoin:round; stroke-width:2; stroke-opacity:0.1; fill:none" points="221.637,1286.91 2352.76,1286.91 "/>
<polyline clip-path="url(#clip622)" style="stroke:#000000; stroke-linecap:round; stroke-linejoin:round; stroke-width:2; stroke-opacity:0.1; fill:none" points="221.637,601.149 2352.76,601.149 "/>
<polyline clip-path="url(#clip620)" style="stroke:#000000; stroke-linecap:round; stroke-linejoin:round; stroke-width:4; stroke-opacity:1; fill:none" points="221.637,1410.9 2352.76,1410.9 "/>
<polyline clip-path="url(#clip620)" style="stroke:#000000; stroke-linecap:round; stroke-linejoin:round; stroke-width:4; stroke-opacity:1; fill:none" points="1037.5,1410.9 1037.5,1392 "/>
<polyline clip-path="url(#clip620)" style="stroke:#000000; stroke-linecap:round; stroke-linejoin:round; stroke-width:4; stroke-opacity:1; fill:none" points="2292.44,1410.9 2292.44,1392 "/>
<polyline clip-path="url(#clip620)" style="stroke:#000000; stroke-linecap:round; stroke-linejoin:round; stroke-width:4; stroke-opacity:1; fill:none" points="381.32,1410.9 381.32,1401.45 "/>
<polyline clip-path="url(#clip620)" style="stroke:#000000; stroke-linecap:round; stroke-linejoin:round; stroke-width:4; stroke-opacity:1; fill:none" points="538.11,1410.9 538.11,1401.45 "/>
<polyline clip-path="url(#clip620)" style="stroke:#000000; stroke-linecap:round; stroke-linejoin:round; stroke-width:4; stroke-opacity:1; fill:none" points="659.726,1410.9 659.726,1401.45 "/>
<polyline clip-path="url(#clip620)" style="stroke:#000000; stroke-linecap:round; stroke-linejoin:round; stroke-width:4; stroke-opacity:1; fill:none" points="759.094,1410.9 759.094,1401.45 "/>
<polyline clip-path="url(#clip620)" style="stroke:#000000; stroke-linecap:round; stroke-linejoin:round; stroke-width:4; stroke-opacity:1; fill:none" points="843.108,1410.9 843.108,1401.45 "/>
<polyline clip-path="url(#clip620)" style="stroke:#000000; stroke-linecap:round; stroke-linejoin:round; stroke-width:4; stroke-opacity:1; fill:none" points="915.885,1410.9 915.885,1401.45 "/>
<polyline clip-path="url(#clip620)" style="stroke:#000000; stroke-linecap:round; stroke-linejoin:round; stroke-width:4; stroke-opacity:1; fill:none" points="980.078,1410.9 980.078,1401.45 "/>
<polyline clip-path="url(#clip620)" style="stroke:#000000; stroke-linecap:round; stroke-linejoin:round; stroke-width:4; stroke-opacity:1; fill:none" points="1415.28,1410.9 1415.28,1401.45 "/>
<polyline clip-path="url(#clip620)" style="stroke:#000000; stroke-linecap:round; stroke-linejoin:round; stroke-width:4; stroke-opacity:1; fill:none" points="1636.26,1410.9 1636.26,1401.45 "/>
<polyline clip-path="url(#clip620)" style="stroke:#000000; stroke-linecap:round; stroke-linejoin:round; stroke-width:4; stroke-opacity:1; fill:none" points="1793.05,1410.9 1793.05,1401.45 "/>
<polyline clip-path="url(#clip620)" style="stroke:#000000; stroke-linecap:round; stroke-linejoin:round; stroke-width:4; stroke-opacity:1; fill:none" points="1914.67,1410.9 1914.67,1401.45 "/>
<polyline clip-path="url(#clip620)" style="stroke:#000000; stroke-linecap:round; stroke-linejoin:round; stroke-width:4; stroke-opacity:1; fill:none" points="2014.03,1410.9 2014.03,1401.45 "/>
<polyline clip-path="url(#clip620)" style="stroke:#000000; stroke-linecap:round; stroke-linejoin:round; stroke-width:4; stroke-opacity:1; fill:none" points="2098.05,1410.9 2098.05,1401.45 "/>
<polyline clip-path="url(#clip620)" style="stroke:#000000; stroke-linecap:round; stroke-linejoin:round; stroke-width:4; stroke-opacity:1; fill:none" points="2170.82,1410.9 2170.82,1401.45 "/>
<polyline clip-path="url(#clip620)" style="stroke:#000000; stroke-linecap:round; stroke-linejoin:round; stroke-width:4; stroke-opacity:1; fill:none" points="2235.02,1410.9 2235.02,1401.45 "/>
<path clip-path="url(#clip620)" d="M1003.27 1485.02 L1010.91 1485.02 L1010.91 1458.66 L1002.6 1460.32 L1002.6 1456.06 L1010.87 1454.4 L1015.54 1454.4 L1015.54 1485.02 L1023.18 1485.02 L1023.18 1488.96 L1003.27 1488.96 L1003.27 1485.02 Z" fill="#000000" fill-rule="nonzero" fill-opacity="1" /><path clip-path="url(#clip620)" d="M1042.63 1457.48 Q1039.01 1457.48 1037.19 1461.04 Q1035.38 1464.58 1035.38 1471.71 Q1035.38 1478.82 1037.19 1482.38 Q1039.01 1485.92 1042.63 1485.92 Q1046.26 1485.92 1048.07 1482.38 Q1049.89 1478.82 1049.89 1471.71 Q1049.89 1464.58 1048.07 1461.04 Q1046.26 1457.48 1042.63 1457.48 M1042.63 1453.77 Q1048.44 1453.77 1051.49 1458.38 Q1054.57 1462.96 1054.57 1471.71 Q1054.57 1480.44 1051.49 1485.04 Q1048.44 1489.63 1042.63 1489.63 Q1036.82 1489.63 1033.74 1485.04 Q1030.68 1480.44 1030.68 1471.71 Q1030.68 1462.96 1033.74 1458.38 Q1036.82 1453.77 1042.63 1453.77 Z" fill="#000000" fill-rule="nonzero" fill-opacity="1" /><path clip-path="url(#clip620)" d="M1059.14 1458.35 L1072.4 1458.35 L1072.4 1461.55 L1054.57 1461.55 L1054.57 1458.35 Q1056.73 1456.11 1060.46 1452.35 Q1064.2 1448.57 1065.16 1447.48 Q1066.98 1445.43 1067.7 1444.02 Q1068.43 1442.59 1068.43 1441.22 Q1068.43 1438.98 1066.85 1437.57 Q1065.29 1436.16 1062.77 1436.16 Q1060.98 1436.16 1058.99 1436.78 Q1057.01 1437.4 1054.76 1438.66 L1054.76 1434.82 Q1057.05 1433.9 1059.05 1433.43 Q1061.04 1432.96 1062.69 1432.96 Q1067.06 1432.96 1069.65 1435.14 Q1072.25 1437.32 1072.25 1440.97 Q1072.25 1442.7 1071.59 1444.26 Q1070.95 1445.8 1069.24 1447.91 Q1068.77 1448.46 1066.25 1451.07 Q1063.73 1453.67 1059.14 1458.35 Z" fill="#000000" fill-rule="nonzero" fill-opacity="1" /><path clip-path="url(#clip620)" d="M2257.88 1485.02 L2265.52 1485.02 L2265.52 1458.66 L2257.21 1460.32 L2257.21 1456.06 L2265.48 1454.4 L2270.15 1454.4 L2270.15 1485.02 L2277.79 1485.02 L2277.79 1488.96 L2257.88 1488.96 L2257.88 1485.02 Z" fill="#000000" fill-rule="nonzero" fill-opacity="1" /><path clip-path="url(#clip620)" d="M2297.24 1457.48 Q2293.63 1457.48 2291.8 1461.04 Q2289.99 1464.58 2289.99 1471.71 Q2289.99 1478.82 2291.8 1482.38 Q2293.63 1485.92 2297.24 1485.92 Q2300.87 1485.92 2302.68 1482.38 Q2304.5 1478.82 2304.5 1471.71 Q2304.5 1464.58 2302.68 1461.04 Q2300.87 1457.48 2297.24 1457.48 M2297.24 1453.77 Q2303.05 1453.77 2306.1 1458.38 Q2309.18 1462.96 2309.18 1471.71 Q2309.18 1480.44 2306.1 1485.04 Q2303.05 1489.63 2297.24 1489.63 Q2291.43 1489.63 2288.35 1485.04 Q2285.29 1480.44 2285.29 1471.71 Q2285.29 1462.96 2288.35 1458.38 Q2291.43 1453.77 2297.24 1453.77 Z" fill="#000000" fill-rule="nonzero" fill-opacity="1" /><path clip-path="url(#clip620)" d="M2321.88 1446.41 Q2324.6 1446.99 2326.13 1448.83 Q2327.67 1450.68 2327.67 1453.38 Q2327.67 1457.54 2324.81 1459.82 Q2321.95 1462.09 2316.69 1462.09 Q2314.92 1462.09 2313.04 1461.73 Q2311.17 1461.4 2309.18 1460.7 L2309.18 1457.03 Q2310.76 1457.95 2312.64 1458.42 Q2314.52 1458.89 2316.57 1458.89 Q2320.15 1458.89 2322.01 1457.48 Q2323.89 1456.07 2323.89 1453.38 Q2323.89 1450.9 2322.14 1449.51 Q2320.41 1448.1 2317.31 1448.1 L2314.03 1448.1 L2314.03 1444.98 L2317.46 1444.98 Q2320.26 1444.98 2321.74 1443.87 Q2323.23 1442.74 2323.23 1440.63 Q2323.23 1438.47 2321.69 1437.32 Q2320.16 1436.16 2317.31 1436.16 Q2315.74 1436.16 2313.96 1436.49 Q2312.17 1436.83 2310.03 1437.55 L2310.03 1434.16 Q2312.19 1433.56 2314.07 1433.26 Q2315.97 1432.96 2317.64 1432.96 Q2321.97 1432.96 2324.49 1434.93 Q2327.01 1436.89 2327.01 1440.24 Q2327.01 1442.57 2325.68 1444.19 Q2324.34 1445.79 2321.88 1446.41 Z" fill="#000000" fill-rule="nonzero" fill-opacity="1" /><path clip-path="url(#clip620)" d="M1006.26 1528.42 L1006.26 1538.54 L1018.32 1538.54 L1018.32 1543.09 L1006.26 1543.09 L1006.26 1562.44 Q1006.26 1566.8 1007.44 1568.04 Q1008.65 1569.28 1012.31 1569.28 L1018.32 1569.28 L1018.32 1574.19 L1012.31 1574.19 Q1005.53 1574.19 1002.95 1571.67 Q1000.37 1569.12 1000.37 1562.44 L1000.37 1543.09 L996.077 1543.09 L996.077 1538.54 L1000.37 1538.54 L1000.37 1528.42 L1006.26 1528.42 Z" fill="#000000" fill-rule="nonzero" fill-opacity="1" /><path clip-path="url(#clip620)" d="M1026.03 1538.54 L1031.88 1538.54 L1031.88 1574.19 L1026.03 1574.19 L1026.03 1538.54 M1026.03 1524.66 L1031.88 1524.66 L1031.88 1532.08 L1026.03 1532.08 L1026.03 1524.66 Z" fill="#000000" fill-rule="nonzero" fill-opacity="1" /><path clip-path="url(#clip620)" d="M1071.89 1545.38 Q1074.09 1541.43 1077.14 1539.56 Q1080.2 1537.68 1084.34 1537.68 Q1089.91 1537.68 1092.93 1541.59 Q1095.95 1545.48 1095.95 1552.67 L1095.95 1574.19 L1090.07 1574.19 L1090.07 1552.86 Q1090.07 1547.74 1088.25 1545.25 Q1086.44 1542.77 1082.71 1542.77 Q1078.16 1542.77 1075.52 1545.79 Q1072.88 1548.82 1072.88 1554.04 L1072.88 1574.19 L1066.99 1574.19 L1066.99 1552.86 Q1066.99 1547.7 1065.18 1545.25 Q1063.36 1542.77 1059.57 1542.77 Q1055.09 1542.77 1052.45 1545.83 Q1049.8 1548.85 1049.8 1554.04 L1049.8 1574.19 L1043.92 1574.19 L1043.92 1538.54 L1049.8 1538.54 L1049.8 1544.08 Q1051.81 1540.8 1054.61 1539.24 Q1057.41 1537.68 1061.26 1537.68 Q1065.14 1537.68 1067.85 1539.65 Q1070.59 1541.62 1071.89 1545.38 Z" fill="#000000" fill-rule="nonzero" fill-opacity="1" /><path clip-path="url(#clip620)" d="M1138.13 1554.9 L1138.13 1557.76 L1111.2 1557.76 Q1111.58 1563.81 1114.83 1566.99 Q1118.11 1570.14 1123.93 1570.14 Q1127.31 1570.14 1130.46 1569.32 Q1133.64 1568.49 1136.76 1566.83 L1136.76 1572.37 Q1133.61 1573.71 1130.3 1574.41 Q1126.99 1575.11 1123.58 1575.11 Q1115.05 1575.11 1110.05 1570.14 Q1105.09 1565.18 1105.09 1556.71 Q1105.09 1547.96 1109.8 1542.83 Q1114.54 1537.68 1122.56 1537.68 Q1129.76 1537.68 1133.93 1542.33 Q1138.13 1546.94 1138.13 1554.9 M1132.27 1553.18 Q1132.21 1548.37 1129.57 1545.51 Q1126.96 1542.64 1122.63 1542.64 Q1117.73 1542.64 1114.77 1545.41 Q1111.84 1548.18 1111.39 1553.21 L1132.27 1553.18 Z" fill="#000000" fill-rule="nonzero" fill-opacity="1" /><path clip-path="url(#clip620)" d="M1191.19 1539.59 L1191.19 1545.13 Q1188.7 1543.85 1186.03 1543.22 Q1183.36 1542.58 1180.49 1542.58 Q1176.13 1542.58 1173.93 1543.92 Q1171.77 1545.25 1171.77 1547.93 Q1171.77 1549.96 1173.33 1551.14 Q1174.89 1552.29 1179.6 1553.34 L1181.61 1553.78 Q1187.84 1555.12 1190.45 1557.57 Q1193.1 1559.99 1193.1 1564.35 Q1193.1 1569.32 1189.15 1572.21 Q1185.23 1575.11 1178.36 1575.11 Q1175.49 1575.11 1172.38 1574.54 Q1169.29 1573.99 1165.85 1572.88 L1165.85 1566.83 Q1169.1 1568.52 1172.25 1569.38 Q1175.4 1570.21 1178.49 1570.21 Q1182.62 1570.21 1184.85 1568.81 Q1187.08 1567.37 1187.08 1564.8 Q1187.08 1562.41 1185.46 1561.14 Q1183.87 1559.86 1178.42 1558.68 L1176.39 1558.21 Q1170.94 1557.06 1168.52 1554.71 Q1166.1 1552.32 1166.1 1548.18 Q1166.1 1543.15 1169.67 1540.42 Q1173.23 1537.68 1179.79 1537.68 Q1183.04 1537.68 1185.9 1538.16 Q1188.77 1538.63 1191.19 1539.59 Z" fill="#000000" fill-rule="nonzero" fill-opacity="1" /><path clip-path="url(#clip620)" d="M1232.91 1554.9 L1232.91 1557.76 L1205.99 1557.76 Q1206.37 1563.81 1209.61 1566.99 Q1212.89 1570.14 1218.72 1570.14 Q1222.09 1570.14 1225.24 1569.32 Q1228.43 1568.49 1231.54 1566.83 L1231.54 1572.37 Q1228.39 1573.71 1225.08 1574.41 Q1221.77 1575.11 1218.37 1575.11 Q1209.84 1575.11 1204.84 1570.14 Q1199.87 1565.18 1199.87 1556.71 Q1199.87 1547.96 1204.59 1542.83 Q1209.33 1537.68 1217.35 1537.68 Q1224.54 1537.68 1228.71 1542.33 Q1232.91 1546.94 1232.91 1554.9 M1227.06 1553.18 Q1226.99 1548.37 1224.35 1545.51 Q1221.74 1542.64 1217.41 1542.64 Q1212.51 1542.64 1209.55 1545.41 Q1206.62 1548.18 1206.18 1553.21 L1227.06 1553.18 Z" fill="#000000" fill-rule="nonzero" fill-opacity="1" /><path clip-path="url(#clip620)" d="M1263.18 1544.01 Q1262.2 1543.44 1261.02 1543.18 Q1259.87 1542.9 1258.47 1542.9 Q1253.51 1542.9 1250.83 1546.14 Q1248.19 1549.36 1248.19 1555.41 L1248.19 1574.19 L1242.3 1574.19 L1242.3 1538.54 L1248.19 1538.54 L1248.19 1544.08 Q1250.04 1540.83 1253 1539.27 Q1255.96 1537.68 1260.19 1537.68 Q1260.79 1537.68 1261.53 1537.77 Q1262.26 1537.84 1263.15 1538 L1263.18 1544.01 Z" fill="#000000" fill-rule="nonzero" fill-opacity="1" /><path clip-path="url(#clip620)" d="M1269.32 1538.54 L1275.18 1538.54 L1275.18 1574.19 L1269.32 1574.19 L1269.32 1538.54 M1269.32 1524.66 L1275.18 1524.66 L1275.18 1532.08 L1269.32 1532.08 L1269.32 1524.66 Z" fill="#000000" fill-rule="nonzero" fill-opacity="1" /><path clip-path="url(#clip620)" d="M1317.93 1554.9 L1317.93 1557.76 L1291 1557.76 Q1291.38 1563.81 1294.63 1566.99 Q1297.91 1570.14 1303.73 1570.14 Q1307.11 1570.14 1310.26 1569.32 Q1313.44 1568.49 1316.56 1566.83 L1316.56 1572.37 Q1313.41 1573.71 1310.1 1574.41 Q1306.79 1575.11 1303.38 1575.11 Q1294.85 1575.11 1289.85 1570.14 Q1284.89 1565.18 1284.89 1556.71 Q1284.89 1547.96 1289.6 1542.83 Q1294.34 1537.68 1302.36 1537.68 Q1309.56 1537.68 1313.73 1542.33 Q1317.93 1546.94 1317.93 1554.9 M1312.07 1553.18 Q1312.01 1548.37 1309.37 1545.51 Q1306.76 1542.64 1302.43 1542.64 Q1297.52 1542.64 1294.56 1545.41 Q1291.64 1548.18 1291.19 1553.21 L1312.07 1553.18 Z" fill="#000000" fill-rule="nonzero" fill-opacity="1" /><path clip-path="url(#clip620)" d="M1350.26 1539.59 L1350.26 1545.13 Q1347.78 1543.85 1345.11 1543.22 Q1342.43 1542.58 1339.57 1542.58 Q1335.21 1542.58 1333.01 1543.92 Q1330.85 1545.25 1330.85 1547.93 Q1330.85 1549.96 1332.41 1551.14 Q1333.97 1552.29 1338.68 1553.34 L1340.68 1553.78 Q1346.92 1555.12 1349.53 1557.57 Q1352.17 1559.99 1352.17 1564.35 Q1352.17 1569.32 1348.23 1572.21 Q1344.31 1575.11 1337.44 1575.11 Q1334.57 1575.11 1331.45 1574.54 Q1328.37 1573.99 1324.93 1572.88 L1324.93 1566.83 Q1328.18 1568.52 1331.33 1569.38 Q1334.48 1570.21 1337.57 1570.21 Q1341.7 1570.21 1343.93 1568.81 Q1346.16 1567.37 1346.16 1564.8 Q1346.16 1562.41 1344.54 1561.14 Q1342.94 1559.86 1337.5 1558.68 L1335.46 1558.21 Q1330.02 1557.06 1327.6 1554.71 Q1325.18 1552.32 1325.18 1548.18 Q1325.18 1543.15 1328.75 1540.42 Q1332.31 1537.68 1338.87 1537.68 Q1342.12 1537.68 1344.98 1538.16 Q1347.85 1538.63 1350.26 1539.59 Z" fill="#000000" fill-rule="nonzero" fill-opacity="1" /><path clip-path="url(#clip620)" d="M1382.22 1524.66 L1388.08 1524.66 L1388.08 1574.19 L1382.22 1574.19 L1382.22 1524.66 Z" fill="#000000" fill-rule="nonzero" fill-opacity="1" /><path clip-path="url(#clip620)" d="M1430.82 1554.9 L1430.82 1557.76 L1403.9 1557.76 Q1404.28 1563.81 1407.52 1566.99 Q1410.8 1570.14 1416.63 1570.14 Q1420 1570.14 1423.15 1569.32 Q1426.33 1568.49 1429.45 1566.83 L1429.45 1572.37 Q1426.3 1573.71 1422.99 1574.41 Q1419.68 1575.11 1416.28 1575.11 Q1407.75 1575.11 1402.75 1570.14 Q1397.78 1565.18 1397.78 1556.71 Q1397.78 1547.96 1402.5 1542.83 Q1407.24 1537.68 1415.26 1537.68 Q1422.45 1537.68 1426.62 1542.33 Q1430.82 1546.94 1430.82 1554.9 M1424.97 1553.18 Q1424.9 1548.37 1422.26 1545.51 Q1419.65 1542.64 1415.32 1542.64 Q1410.42 1542.64 1407.46 1545.41 Q1404.53 1548.18 1404.09 1553.21 L1424.97 1553.18 Z" fill="#000000" fill-rule="nonzero" fill-opacity="1" /><path clip-path="url(#clip620)" d="M1470.07 1552.67 L1470.07 1574.19 L1464.21 1574.19 L1464.21 1552.86 Q1464.21 1547.8 1462.24 1545.29 Q1460.26 1542.77 1456.32 1542.77 Q1451.57 1542.77 1448.84 1545.79 Q1446.1 1548.82 1446.1 1554.04 L1446.1 1574.19 L1440.21 1574.19 L1440.21 1538.54 L1446.1 1538.54 L1446.1 1544.08 Q1448.2 1540.86 1451.03 1539.27 Q1453.9 1537.68 1457.62 1537.68 Q1463.77 1537.68 1466.92 1541.5 Q1470.07 1545.29 1470.07 1552.67 Z" fill="#000000" fill-rule="nonzero" fill-opacity="1" /><path clip-path="url(#clip620)" d="M1505.21 1555.95 Q1505.21 1549.58 1502.56 1546.08 Q1499.95 1542.58 1495.21 1542.58 Q1490.5 1542.58 1487.86 1546.08 Q1485.25 1549.58 1485.25 1555.95 Q1485.25 1562.28 1487.86 1565.78 Q1490.5 1569.28 1495.21 1569.28 Q1499.95 1569.28 1502.56 1565.78 Q1505.21 1562.28 1505.21 1555.95 M1511.06 1569.76 Q1511.06 1578.86 1507.02 1583.29 Q1502.98 1587.74 1494.64 1587.74 Q1491.55 1587.74 1488.81 1587.27 Q1486.08 1586.82 1483.5 1585.87 L1483.5 1580.17 Q1486.08 1581.57 1488.59 1582.24 Q1491.11 1582.91 1493.72 1582.91 Q1499.48 1582.91 1502.34 1579.88 Q1505.21 1576.89 1505.21 1570.81 L1505.21 1567.92 Q1503.39 1571.07 1500.56 1572.63 Q1497.73 1574.19 1493.78 1574.19 Q1487.22 1574.19 1483.21 1569.19 Q1479.2 1564.19 1479.2 1555.95 Q1479.2 1547.67 1483.21 1542.68 Q1487.22 1537.68 1493.78 1537.68 Q1497.73 1537.68 1500.56 1539.24 Q1503.39 1540.8 1505.21 1543.95 L1505.21 1538.54 L1511.06 1538.54 L1511.06 1569.76 Z" fill="#000000" fill-rule="nonzero" fill-opacity="1" /><path clip-path="url(#clip620)" d="M1528.92 1528.42 L1528.92 1538.54 L1540.98 1538.54 L1540.98 1543.09 L1528.92 1543.09 L1528.92 1562.44 Q1528.92 1566.8 1530.1 1568.04 Q1531.31 1569.28 1534.97 1569.28 L1540.98 1569.28 L1540.98 1574.19 L1534.97 1574.19 Q1528.19 1574.19 1525.61 1571.67 Q1523.03 1569.12 1523.03 1562.44 L1523.03 1543.09 L1518.73 1543.09 L1518.73 1538.54 L1523.03 1538.54 L1523.03 1528.42 L1528.92 1528.42 Z" fill="#000000" fill-rule="nonzero" fill-opacity="1" /><path clip-path="url(#clip620)" d="M1578.32 1552.67 L1578.32 1574.19 L1572.46 1574.19 L1572.46 1552.86 Q1572.46 1547.8 1570.49 1545.29 Q1568.51 1542.77 1564.57 1542.77 Q1559.82 1542.77 1557.09 1545.79 Q1554.35 1548.82 1554.35 1554.04 L1554.35 1574.19 L1548.46 1574.19 L1548.46 1524.66 L1554.35 1524.66 L1554.35 1544.08 Q1556.45 1540.86 1559.28 1539.27 Q1562.15 1537.68 1565.87 1537.68 Q1572.01 1537.68 1575.17 1541.5 Q1578.32 1545.29 1578.32 1552.67 Z" fill="#000000" fill-rule="nonzero" fill-opacity="1" /><polyline clip-path="url(#clip620)" style="stroke:#000000; stroke-linecap:round; stroke-linejoin:round; stroke-width:4; stroke-opacity:1; fill:none" points="221.637,1410.9 221.637,123.472 "/>
<polyline clip-path="url(#clip620)" style="stroke:#000000; stroke-linecap:round; stroke-linejoin:round; stroke-width:4; stroke-opacity:1; fill:none" points="221.637,1286.91 240.535,1286.91 "/>
<polyline clip-path="url(#clip620)" style="stroke:#000000; stroke-linecap:round; stroke-linejoin:round; stroke-width:4; stroke-opacity:1; fill:none" points="221.637,601.149 240.535,601.149 "/>
<polyline clip-path="url(#clip620)" style="stroke:#000000; stroke-linecap:round; stroke-linejoin:round; stroke-width:4; stroke-opacity:1; fill:none" points="221.637,1393.14 231.086,1393.14 "/>
<polyline clip-path="url(#clip620)" style="stroke:#000000; stroke-linecap:round; stroke-linejoin:round; stroke-width:4; stroke-opacity:1; fill:none" points="221.637,1353.37 231.086,1353.37 "/>
<polyline clip-path="url(#clip620)" style="stroke:#000000; stroke-linecap:round; stroke-linejoin:round; stroke-width:4; stroke-opacity:1; fill:none" points="221.637,1318.29 231.086,1318.29 "/>
<polyline clip-path="url(#clip620)" style="stroke:#000000; stroke-linecap:round; stroke-linejoin:round; stroke-width:4; stroke-opacity:1; fill:none" points="221.637,1080.48 231.086,1080.48 "/>
<polyline clip-path="url(#clip620)" style="stroke:#000000; stroke-linecap:round; stroke-linejoin:round; stroke-width:4; stroke-opacity:1; fill:none" points="221.637,959.72 231.086,959.72 "/>
<polyline clip-path="url(#clip620)" style="stroke:#000000; stroke-linecap:round; stroke-linejoin:round; stroke-width:4; stroke-opacity:1; fill:none" points="221.637,874.042 231.086,874.042 "/>
<polyline clip-path="url(#clip620)" style="stroke:#000000; stroke-linecap:round; stroke-linejoin:round; stroke-width:4; stroke-opacity:1; fill:none" points="221.637,807.584 231.086,807.584 "/>
<polyline clip-path="url(#clip620)" style="stroke:#000000; stroke-linecap:round; stroke-linejoin:round; stroke-width:4; stroke-opacity:1; fill:none" points="221.637,753.285 231.086,753.285 "/>
<polyline clip-path="url(#clip620)" style="stroke:#000000; stroke-linecap:round; stroke-linejoin:round; stroke-width:4; stroke-opacity:1; fill:none" points="221.637,707.375 231.086,707.375 "/>
<polyline clip-path="url(#clip620)" style="stroke:#000000; stroke-linecap:round; stroke-linejoin:round; stroke-width:4; stroke-opacity:1; fill:none" points="221.637,667.606 231.086,667.606 "/>
<polyline clip-path="url(#clip620)" style="stroke:#000000; stroke-linecap:round; stroke-linejoin:round; stroke-width:4; stroke-opacity:1; fill:none" points="221.637,632.528 231.086,632.528 "/>
<polyline clip-path="url(#clip620)" style="stroke:#000000; stroke-linecap:round; stroke-linejoin:round; stroke-width:4; stroke-opacity:1; fill:none" points="221.637,394.713 231.086,394.713 "/>
<polyline clip-path="url(#clip620)" style="stroke:#000000; stroke-linecap:round; stroke-linejoin:round; stroke-width:4; stroke-opacity:1; fill:none" points="221.637,273.956 231.086,273.956 "/>
<polyline clip-path="url(#clip620)" style="stroke:#000000; stroke-linecap:round; stroke-linejoin:round; stroke-width:4; stroke-opacity:1; fill:none" points="221.637,188.278 231.086,188.278 "/>
<path clip-path="url(#clip620)" d="M114.931 1306.7 L122.57 1306.7 L122.57 1280.34 L114.26 1282.01 L114.26 1277.75 L122.524 1276.08 L127.2 1276.08 L127.2 1306.7 L134.839 1306.7 L134.839 1310.64 L114.931 1310.64 L114.931 1306.7 Z" fill="#000000" fill-rule="nonzero" fill-opacity="1" /><path clip-path="url(#clip620)" d="M154.283 1279.16 Q150.672 1279.16 148.843 1282.72 Q147.038 1286.27 147.038 1293.39 Q147.038 1300.5 148.843 1304.07 Q150.672 1307.61 154.283 1307.61 Q157.917 1307.61 159.723 1304.07 Q161.552 1300.5 161.552 1293.39 Q161.552 1286.27 159.723 1282.72 Q157.917 1279.16 154.283 1279.16 M154.283 1275.45 Q160.093 1275.45 163.149 1280.06 Q166.227 1284.64 166.227 1293.39 Q166.227 1302.12 163.149 1306.73 Q160.093 1311.31 154.283 1311.31 Q148.473 1311.31 145.394 1306.73 Q142.339 1302.12 142.339 1293.39 Q142.339 1284.64 145.394 1280.06 Q148.473 1275.45 154.283 1275.45 Z" fill="#000000" fill-rule="nonzero" fill-opacity="1" /><path clip-path="url(#clip620)" d="M175.932 1257.65 Q172.998 1257.65 171.512 1260.55 Q170.045 1263.42 170.045 1269.22 Q170.045 1274.99 171.512 1277.89 Q172.998 1280.77 175.932 1280.77 Q178.885 1280.77 180.352 1277.89 Q181.838 1274.99 181.838 1269.22 Q181.838 1263.42 180.352 1260.55 Q178.885 1257.65 175.932 1257.65 M175.932 1254.64 Q180.653 1254.64 183.136 1258.38 Q185.637 1262.11 185.637 1269.22 Q185.637 1276.31 183.136 1280.05 Q180.653 1283.77 175.932 1283.77 Q171.212 1283.77 168.71 1280.05 Q166.227 1276.31 166.227 1269.22 Q166.227 1262.11 168.71 1258.38 Q171.212 1254.64 175.932 1254.64 Z" fill="#000000" fill-rule="nonzero" fill-opacity="1" /><path clip-path="url(#clip620)" d="M117.621 620.941 L125.26 620.941 L125.26 594.576 L116.95 596.242 L116.95 591.983 L125.214 590.316 L129.889 590.316 L129.889 620.941 L137.528 620.941 L137.528 624.876 L117.621 624.876 L117.621 620.941 Z" fill="#000000" fill-rule="nonzero" fill-opacity="1" /><path clip-path="url(#clip620)" d="M156.973 593.395 Q153.362 593.395 151.533 596.96 Q149.727 600.502 149.727 607.631 Q149.727 614.738 151.533 618.302 Q153.362 621.844 156.973 621.844 Q160.607 621.844 162.412 618.302 Q164.241 614.738 164.241 607.631 Q164.241 600.502 162.412 596.96 Q160.607 593.395 156.973 593.395 M156.973 589.691 Q162.783 589.691 165.838 594.298 Q168.917 598.881 168.917 607.631 Q168.917 616.358 165.838 620.964 Q162.783 625.548 156.973 625.548 Q151.162 625.548 148.084 620.964 Q145.028 616.358 145.028 607.631 Q145.028 598.881 148.084 594.298 Q151.162 589.691 156.973 589.691 Z" fill="#000000" fill-rule="nonzero" fill-opacity="1" /><path clip-path="url(#clip620)" d="M169.462 594.269 L175.669 594.269 L175.669 572.847 L168.917 574.201 L168.917 570.74 L175.631 569.386 L179.431 569.386 L179.431 594.269 L185.637 594.269 L185.637 597.466 L169.462 597.466 L169.462 594.269 Z" fill="#000000" fill-rule="nonzero" fill-opacity="1" /><path clip-path="url(#clip620)" d="M35.1993 1099.27 Q31.2526 1097.07 29.3747 1094.02 Q27.4968 1090.96 27.4968 1086.82 Q27.4968 1081.25 31.4117 1078.23 Q35.2948 1075.21 42.4881 1075.21 L64.0042 1075.21 L64.0042 1081.09 L42.679 1081.09 Q37.5546 1081.09 35.072 1082.91 Q32.5894 1084.72 32.5894 1088.45 Q32.5894 1093 35.6131 1095.64 Q38.6368 1098.28 43.8567 1098.28 L64.0042 1098.28 L64.0042 1104.17 L42.679 1104.17 Q37.5228 1104.17 35.072 1105.98 Q32.5894 1107.8 32.5894 1111.59 Q32.5894 1116.07 35.6449 1118.71 Q38.6686 1121.36 43.8567 1121.36 L64.0042 1121.36 L64.0042 1127.24 L28.3562 1127.24 L28.3562 1121.36 L33.8944 1121.36 Q30.616 1119.35 29.0564 1116.55 Q27.4968 1113.75 27.4968 1109.9 Q27.4968 1106.02 29.4702 1103.31 Q31.4436 1100.57 35.1993 1099.27 Z" fill="#000000" fill-rule="nonzero" fill-opacity="1" /><path clip-path="url(#clip620)" d="M44.7161 1033.03 L47.5806 1033.03 L47.5806 1059.96 Q53.6281 1059.58 56.8109 1056.33 Q59.9619 1053.05 59.9619 1047.23 Q59.9619 1043.85 59.1344 1040.7 Q58.3069 1037.52 56.6518 1034.4 L62.1899 1034.4 Q63.5267 1037.55 64.227 1040.86 Q64.9272 1044.17 64.9272 1047.58 Q64.9272 1056.11 59.9619 1061.1 Q54.9967 1066.07 46.5303 1066.07 Q37.7774 1066.07 32.6531 1061.36 Q27.4968 1056.62 27.4968 1048.6 Q27.4968 1041.4 32.1438 1037.23 Q36.7589 1033.03 44.7161 1033.03 M42.9973 1038.89 Q38.1912 1038.95 35.3266 1041.59 Q32.4621 1044.2 32.4621 1048.53 Q32.4621 1053.43 35.2312 1056.39 Q38.0002 1059.32 43.0292 1059.77 L42.9973 1038.89 Z" fill="#000000" fill-rule="nonzero" fill-opacity="1" /><path clip-path="url(#clip620)" d="M46.0847 1007.22 Q46.0847 1014.32 47.7079 1017.05 Q49.3312 1019.79 53.2461 1019.79 Q56.3653 1019.79 58.2114 1017.75 Q60.0256 1015.69 60.0256 1012.15 Q60.0256 1007.28 56.5881 1004.35 Q53.1188 1001.39 47.3897 1001.39 L46.0847 1001.39 L46.0847 1007.22 M43.6657 995.538 L64.0042 995.538 L64.0042 1001.39 L58.5933 1001.39 Q61.8398 1003.4 63.3994 1006.39 Q64.9272 1009.38 64.9272 1013.71 Q64.9272 1019.19 61.8716 1022.43 Q58.7843 1025.65 53.6281 1025.65 Q47.6125 1025.65 44.5569 1021.64 Q41.5014 1017.6 41.5014 1009.61 L41.5014 1001.39 L40.9285 1001.39 Q36.8862 1001.39 34.6901 1004.07 Q32.4621 1006.71 32.4621 1011.52 Q32.4621 1014.57 33.1941 1017.47 Q33.9262 1020.36 35.3903 1023.04 L29.9795 1023.04 Q28.7381 1019.82 28.1334 1016.8 Q27.4968 1013.78 27.4968 1010.91 Q27.4968 1003.18 31.5072 999.358 Q35.5176 995.538 43.6657 995.538 Z" fill="#000000" fill-rule="nonzero" fill-opacity="1" /><path clip-path="url(#clip620)" d="M42.4881 953.843 L64.0042 953.843 L64.0042 959.699 L42.679 959.699 Q37.6183 959.699 35.1038 961.673 Q32.5894 963.646 32.5894 967.593 Q32.5894 972.335 35.6131 975.072 Q38.6368 977.81 43.8567 977.81 L64.0042 977.81 L64.0042 983.698 L28.3562 983.698 L28.3562 977.81 L33.8944 977.81 Q30.6797 975.709 29.0883 972.876 Q27.4968 970.012 27.4968 966.288 Q27.4968 960.145 31.3163 956.994 Q35.1038 953.843 42.4881 953.843 Z" fill="#000000" fill-rule="nonzero" fill-opacity="1" /><path clip-path="url(#clip620)" d="M18.2347 915.649 L28.3562 915.649 L28.3562 903.586 L32.9077 903.586 L32.9077 915.649 L52.2594 915.649 Q56.6199 915.649 57.8613 914.471 Q59.1026 913.261 59.1026 909.601 L59.1026 903.586 L64.0042 903.586 L64.0042 909.601 Q64.0042 916.381 61.4897 918.959 Q58.9434 921.537 52.2594 921.537 L32.9077 921.537 L32.9077 925.834 L28.3562 925.834 L28.3562 921.537 L18.2347 921.537 L18.2347 915.649 Z" fill="#000000" fill-rule="nonzero" fill-opacity="1" /><path clip-path="url(#clip620)" d="M33.8307 875.226 Q33.2578 876.213 33.0032 877.391 Q32.7167 878.537 32.7167 879.937 Q32.7167 884.902 35.9632 887.576 Q39.1779 890.218 45.2253 890.218 L64.0042 890.218 L64.0042 896.106 L28.3562 896.106 L28.3562 890.218 L33.8944 890.218 Q30.6479 888.372 29.0883 885.411 Q27.4968 882.451 27.4968 878.218 Q27.4968 877.613 27.5923 876.881 Q27.656 876.149 27.8151 875.258 L33.8307 875.226 Z" fill="#000000" fill-rule="nonzero" fill-opacity="1" /><path clip-path="url(#clip620)" d="M46.0847 852.883 Q46.0847 859.98 47.7079 862.718 Q49.3312 865.455 53.2461 865.455 Q56.3653 865.455 58.2114 863.418 Q60.0256 861.349 60.0256 857.816 Q60.0256 852.946 56.5881 850.018 Q53.1188 847.058 47.3897 847.058 L46.0847 847.058 L46.0847 852.883 M43.6657 841.202 L64.0042 841.202 L64.0042 847.058 L58.5933 847.058 Q61.8398 849.063 63.3994 852.055 Q64.9272 855.047 64.9272 859.376 Q64.9272 864.85 61.8716 868.097 Q58.7843 871.311 53.6281 871.311 Q47.6125 871.311 44.5569 867.301 Q41.5014 863.259 41.5014 855.27 L41.5014 847.058 L40.9285 847.058 Q36.8862 847.058 34.6901 849.732 Q32.4621 852.373 32.4621 857.18 Q32.4621 860.235 33.1941 863.131 Q33.9262 866.028 35.3903 868.701 L29.9795 868.701 Q28.7381 865.487 28.1334 862.463 Q27.4968 859.439 27.4968 856.575 Q27.4968 848.84 31.5072 845.021 Q35.5176 841.202 43.6657 841.202 Z" fill="#000000" fill-rule="nonzero" fill-opacity="1" /><path clip-path="url(#clip620)" d="M28.3562 829.139 L28.3562 823.282 L64.0042 823.282 L64.0042 829.139 L28.3562 829.139 M14.479 829.139 L14.479 823.282 L21.895 823.282 L21.895 829.139 L14.479 829.139 Z" fill="#000000" fill-rule="nonzero" fill-opacity="1" /><path clip-path="url(#clip620)" d="M42.4881 781.396 L64.0042 781.396 L64.0042 787.252 L42.679 787.252 Q37.6183 787.252 35.1038 789.226 Q32.5894 791.199 32.5894 795.146 Q32.5894 799.888 35.6131 802.625 Q38.6368 805.363 43.8567 805.363 L64.0042 805.363 L64.0042 811.251 L28.3562 811.251 L28.3562 805.363 L33.8944 805.363 Q30.6797 803.262 29.0883 800.429 Q27.4968 797.565 27.4968 793.841 Q27.4968 787.698 31.3163 784.547 Q35.1038 781.396 42.4881 781.396 Z" fill="#000000" fill-rule="nonzero" fill-opacity="1" /><path clip-path="url(#clip620)" d="M28.3562 769.715 L28.3562 763.858 L64.0042 763.858 L64.0042 769.715 L28.3562 769.715 M14.479 769.715 L14.479 763.858 L21.895 763.858 L21.895 769.715 L14.479 769.715 Z" fill="#000000" fill-rule="nonzero" fill-opacity="1" /><path clip-path="url(#clip620)" d="M42.4881 721.972 L64.0042 721.972 L64.0042 727.828 L42.679 727.828 Q37.6183 727.828 35.1038 729.802 Q32.5894 731.775 32.5894 735.722 Q32.5894 740.464 35.6131 743.202 Q38.6368 745.939 43.8567 745.939 L64.0042 745.939 L64.0042 751.827 L28.3562 751.827 L28.3562 745.939 L33.8944 745.939 Q30.6797 743.838 29.0883 741.005 Q27.4968 738.141 27.4968 734.417 Q27.4968 728.274 31.3163 725.123 Q35.1038 721.972 42.4881 721.972 Z" fill="#000000" fill-rule="nonzero" fill-opacity="1" /><path clip-path="url(#clip620)" d="M45.7664 686.833 Q39.4007 686.833 35.8996 689.475 Q32.3984 692.085 32.3984 696.827 Q32.3984 701.538 35.8996 704.18 Q39.4007 706.79 45.7664 706.79 Q52.1003 706.79 55.6014 704.18 Q59.1026 701.538 59.1026 696.827 Q59.1026 692.085 55.6014 689.475 Q52.1003 686.833 45.7664 686.833 M59.58 680.977 Q68.683 680.977 73.1071 685.019 Q77.5631 689.061 77.5631 697.4 Q77.5631 700.488 77.0857 703.225 Q76.6401 705.962 75.6852 708.54 L69.9879 708.54 Q71.3884 705.962 72.0568 703.448 Q72.7252 700.933 72.7252 698.323 Q72.7252 692.562 69.7015 689.698 Q66.7096 686.833 60.6303 686.833 L57.7339 686.833 Q60.885 688.647 62.4446 691.48 Q64.0042 694.313 64.0042 698.26 Q64.0042 704.816 59.0071 708.827 Q54.01 712.837 45.7664 712.837 Q37.491 712.837 32.4939 708.827 Q27.4968 704.816 27.4968 698.26 Q27.4968 694.313 29.0564 691.48 Q30.616 688.647 33.7671 686.833 L28.3562 686.833 L28.3562 680.977 L59.58 680.977 Z" fill="#000000" fill-rule="nonzero" fill-opacity="1" /><path clip-path="url(#clip620)" d="M18.2347 642.401 L28.3562 642.401 L28.3562 630.338 L32.9077 630.338 L32.9077 642.401 L52.2594 642.401 Q56.6199 642.401 57.8613 641.223 Q59.1026 640.013 59.1026 636.353 L59.1026 630.338 L64.0042 630.338 L64.0042 636.353 Q64.0042 643.133 61.4897 645.711 Q58.9434 648.289 52.2594 648.289 L32.9077 648.289 L32.9077 652.586 L28.3562 652.586 L28.3562 648.289 L18.2347 648.289 L18.2347 642.401 Z" fill="#000000" fill-rule="nonzero" fill-opacity="1" /><path clip-path="url(#clip620)" d="M28.3562 622.635 L28.3562 616.779 L64.0042 616.779 L64.0042 622.635 L28.3562 622.635 M14.479 622.635 L14.479 616.779 L21.895 616.779 L21.895 622.635 L14.479 622.635 Z" fill="#000000" fill-rule="nonzero" fill-opacity="1" /><path clip-path="url(#clip620)" d="M35.1993 576.77 Q31.2526 574.574 29.3747 571.518 Q27.4968 568.463 27.4968 564.325 Q27.4968 558.755 31.4117 555.732 Q35.2948 552.708 42.4881 552.708 L64.0042 552.708 L64.0042 558.596 L42.679 558.596 Q37.5546 558.596 35.072 560.41 Q32.5894 562.225 32.5894 565.948 Q32.5894 570.5 35.6131 573.142 Q38.6368 575.784 43.8567 575.784 L64.0042 575.784 L64.0042 581.672 L42.679 581.672 Q37.5228 581.672 35.072 583.486 Q32.5894 585.3 32.5894 589.088 Q32.5894 593.576 35.6449 596.217 Q38.6686 598.859 43.8567 598.859 L64.0042 598.859 L64.0042 604.747 L28.3562 604.747 L28.3562 598.859 L33.8944 598.859 Q30.616 596.854 29.0564 594.053 Q27.4968 591.252 27.4968 587.401 Q27.4968 583.518 29.4702 580.812 Q31.4436 578.075 35.1993 576.77 Z" fill="#000000" fill-rule="nonzero" fill-opacity="1" /><path clip-path="url(#clip620)" d="M44.7161 510.535 L47.5806 510.535 L47.5806 537.462 Q53.6281 537.08 56.8109 533.833 Q59.9619 530.555 59.9619 524.731 Q59.9619 521.357 59.1344 518.206 Q58.3069 515.023 56.6518 511.904 L62.1899 511.904 Q63.5267 515.055 64.227 518.365 Q64.9272 521.675 64.9272 525.081 Q64.9272 533.611 59.9619 538.608 Q54.9967 543.573 46.5303 543.573 Q37.7774 543.573 32.6531 538.862 Q27.4968 534.12 27.4968 526.099 Q27.4968 518.906 32.1438 514.736 Q36.7589 510.535 44.7161 510.535 M42.9973 516.391 Q38.1912 516.455 35.3266 519.097 Q32.4621 521.707 32.4621 526.036 Q32.4621 530.937 35.2312 533.897 Q38.0002 536.825 43.0292 537.271 L42.9973 516.391 Z" fill="#000000" fill-rule="nonzero" fill-opacity="1" /><path clip-path="url(#clip620)" d="M14.5426 466.134 Q21.8632 470.399 29.0246 472.468 Q36.186 474.537 43.5384 474.537 Q50.8908 474.537 58.1159 472.468 Q65.3091 470.367 72.5979 466.134 L72.5979 471.227 Q65.1182 476.001 57.8931 478.388 Q50.668 480.744 43.5384 480.744 Q36.4406 480.744 29.2474 478.388 Q22.0542 476.033 14.5426 471.227 L14.5426 466.134 Z" fill="#000000" fill-rule="nonzero" fill-opacity="1" /><path clip-path="url(#clip620)" d="M29.4065 432.046 L34.9447 432.046 Q33.6716 434.528 33.035 437.202 Q32.3984 439.876 32.3984 442.74 Q32.3984 447.101 33.7352 449.297 Q35.072 451.461 37.7456 451.461 Q39.7826 451.461 40.9603 449.902 Q42.1061 448.342 43.1565 443.631 L43.6021 441.626 Q44.9389 435.388 47.3897 432.778 Q49.8086 430.136 54.1691 430.136 Q59.1344 430.136 62.0308 434.083 Q64.9272 437.998 64.9272 444.873 Q64.9272 447.737 64.3543 450.857 Q63.8132 453.944 62.6992 457.381 L56.6518 457.381 Q58.3387 454.135 59.198 450.984 Q60.0256 447.833 60.0256 444.745 Q60.0256 440.608 58.6251 438.38 Q57.1929 436.152 54.6147 436.152 Q52.2276 436.152 50.9545 437.775 Q49.6813 439.366 48.5037 444.809 L48.0262 446.846 Q46.8804 452.289 44.5251 454.708 Q42.138 457.127 38.0002 457.127 Q32.9713 457.127 30.2341 453.562 Q27.4968 449.997 27.4968 443.44 Q27.4968 440.194 27.9743 437.329 Q28.4517 434.465 29.4065 432.046 Z" fill="#000000" fill-rule="nonzero" fill-opacity="1" /><path clip-path="url(#clip620)" d="M14.5426 421.733 L14.5426 416.641 Q22.0542 411.867 29.2474 409.511 Q36.4406 407.124 43.5384 407.124 Q50.668 407.124 57.8931 409.511 Q65.1182 411.867 72.5979 416.641 L72.5979 421.733 Q65.3091 417.5 58.1159 415.431 Q50.8908 413.331 43.5384 413.331 Q36.186 413.331 29.0246 415.431 Q21.8632 417.5 14.5426 421.733 Z" fill="#000000" fill-rule="nonzero" fill-opacity="1" /><path clip-path="url(#clip620)" d="M256.16 12.096 L307.323 12.096 L307.323 18.9825 L285.853 18.9825 L285.853 72.576 L277.63 72.576 L277.63 18.9825 L256.16 18.9825 L256.16 12.096 Z" fill="#000000" fill-rule="nonzero" fill-opacity="1" /><path clip-path="url(#clip620)" d="M312.346 27.2059 L319.8 27.2059 L319.8 72.576 L312.346 72.576 L312.346 27.2059 M312.346 9.54393 L319.8 9.54393 L319.8 18.9825 L312.346 18.9825 L312.346 9.54393 Z" fill="#000000" fill-rule="nonzero" fill-opacity="1" /><path clip-path="url(#clip620)" d="M370.72 35.9153 Q373.515 30.8922 377.404 28.5022 Q381.293 26.1121 386.559 26.1121 Q393.648 26.1121 397.496 31.0947 Q401.345 36.0368 401.345 45.1919 L401.345 72.576 L393.851 72.576 L393.851 45.4349 Q393.851 38.913 391.542 35.7533 Q389.233 32.5936 384.493 32.5936 Q378.7 32.5936 375.338 36.4419 Q371.976 40.2903 371.976 46.9338 L371.976 72.576 L364.482 72.576 L364.482 45.4349 Q364.482 38.8725 362.173 35.7533 Q359.864 32.5936 355.043 32.5936 Q349.331 32.5936 345.969 36.4824 Q342.607 40.3308 342.607 46.9338 L342.607 72.576 L335.112 72.576 L335.112 27.2059 L342.607 27.2059 L342.607 34.2544 Q345.159 30.082 348.724 28.0971 Q352.288 26.1121 357.19 26.1121 Q362.132 26.1121 365.575 28.6237 Q369.059 31.1352 370.72 35.9153 Z" fill="#000000" fill-rule="nonzero" fill-opacity="1" /><path clip-path="url(#clip620)" d="M455.019 48.0275 L455.019 51.6733 L420.749 51.6733 Q421.235 59.3701 425.367 63.421 Q429.539 67.4314 436.952 67.4314 Q441.246 67.4314 445.257 66.3781 Q449.307 65.3249 453.277 63.2184 L453.277 70.267 Q449.267 71.9684 445.054 72.8596 Q440.841 73.7508 436.507 73.7508 Q425.65 73.7508 419.29 67.4314 Q412.971 61.1119 412.971 50.3365 Q412.971 39.1965 418.966 32.6746 Q425.002 26.1121 435.21 26.1121 Q444.365 26.1121 449.672 32.0264 Q455.019 37.9003 455.019 48.0275 M447.566 45.84 Q447.485 39.7232 444.122 36.0774 Q440.801 32.4315 435.291 32.4315 Q429.053 32.4315 425.286 35.9558 Q421.559 39.4801 420.992 45.8805 L447.566 45.84 Z" fill="#000000" fill-rule="nonzero" fill-opacity="1" /><path clip-path="url(#clip620)" d="M530.204 14.0809 L530.204 22.0612 Q525.545 19.8332 521.414 18.7395 Q517.282 17.6457 513.433 17.6457 Q506.749 17.6457 503.103 20.2383 Q499.498 22.8309 499.498 27.611 Q499.498 31.6214 501.888 33.6873 Q504.319 35.7128 511.043 36.9686 L515.985 37.9813 Q525.14 39.7232 529.475 44.1387 Q533.85 48.5136 533.85 55.8863 Q533.85 64.6767 527.936 69.2137 Q522.062 73.7508 510.679 73.7508 Q506.385 73.7508 501.524 72.7785 Q496.703 71.8063 491.518 69.9024 L491.518 61.4765 Q496.501 64.2716 501.281 65.6895 Q506.061 67.1073 510.679 67.1073 Q517.687 67.1073 521.495 64.3527 Q525.302 61.598 525.302 56.4939 Q525.302 52.0379 522.548 49.5264 Q519.834 47.0148 513.595 45.759 L508.613 44.7868 Q499.458 42.9639 495.366 39.075 Q491.275 35.1862 491.275 28.2591 Q491.275 20.2383 496.906 15.6203 Q502.577 11.0023 512.502 11.0023 Q516.755 11.0023 521.171 11.7719 Q525.586 12.5416 530.204 14.0809 Z" fill="#000000" fill-rule="nonzero" fill-opacity="1" /><path clip-path="url(#clip620)" d="M585.094 48.0275 L585.094 51.6733 L550.823 51.6733 Q551.309 59.3701 555.441 63.421 Q559.614 67.4314 567.027 67.4314 Q571.321 67.4314 575.331 66.3781 Q579.382 65.3249 583.352 63.2184 L583.352 70.267 Q579.341 71.9684 575.129 72.8596 Q570.916 73.7508 566.581 73.7508 Q555.725 73.7508 549.365 67.4314 Q543.045 61.1119 543.045 50.3365 Q543.045 39.1965 549.041 32.6746 Q555.077 26.1121 565.285 26.1121 Q574.44 26.1121 579.747 32.0264 Q585.094 37.9003 585.094 48.0275 M577.64 45.84 Q577.559 39.7232 574.197 36.0774 Q570.875 32.4315 565.366 32.4315 Q559.127 32.4315 555.36 35.9558 Q551.633 39.4801 551.066 45.8805 L577.64 45.84 Z" fill="#000000" fill-rule="nonzero" fill-opacity="1" /><path clip-path="url(#clip620)" d="M623.618 34.1734 Q622.362 33.4443 620.863 33.1202 Q619.405 32.7556 617.623 32.7556 Q611.303 32.7556 607.9 36.8875 Q604.538 40.9789 604.538 48.6757 L604.538 72.576 L597.044 72.576 L597.044 27.2059 L604.538 27.2059 L604.538 34.2544 Q606.888 30.1225 610.655 28.1376 Q614.422 26.1121 619.81 26.1121 Q620.58 26.1121 621.511 26.2337 Q622.443 26.3147 623.577 26.5172 L623.618 34.1734 Z" fill="#000000" fill-rule="nonzero" fill-opacity="1" /><path clip-path="url(#clip620)" d="M631.436 27.2059 L638.89 27.2059 L638.89 72.576 L631.436 72.576 L631.436 27.2059 M631.436 9.54393 L638.89 9.54393 L638.89 18.9825 L631.436 18.9825 L631.436 9.54393 Z" fill="#000000" fill-rule="nonzero" fill-opacity="1" /><path clip-path="url(#clip620)" d="M693.293 48.0275 L693.293 51.6733 L659.023 51.6733 Q659.509 59.3701 663.641 63.421 Q667.813 67.4314 675.226 67.4314 Q679.52 67.4314 683.531 66.3781 Q687.582 65.3249 691.552 63.2184 L691.552 70.267 Q687.541 71.9684 683.328 72.8596 Q679.115 73.7508 674.781 73.7508 Q663.924 73.7508 657.564 67.4314 Q651.245 61.1119 651.245 50.3365 Q651.245 39.1965 657.24 32.6746 Q663.276 26.1121 673.485 26.1121 Q682.64 26.1121 687.946 32.0264 Q693.293 37.9003 693.293 48.0275 M685.84 45.84 Q685.759 39.7232 682.396 36.0774 Q679.075 32.4315 673.566 32.4315 Q667.327 32.4315 663.56 35.9558 Q659.833 39.4801 659.266 45.8805 L685.84 45.84 Z" fill="#000000" fill-rule="nonzero" fill-opacity="1" /><path clip-path="url(#clip620)" d="M734.451 28.5427 L734.451 35.5912 Q731.291 33.9709 727.888 33.1607 Q724.485 32.3505 720.84 32.3505 Q715.29 32.3505 712.495 34.0519 Q709.74 35.7533 709.74 39.156 Q709.74 41.7486 711.725 43.2475 Q713.71 44.7058 719.705 46.0426 L722.257 46.6097 Q730.197 48.3111 733.519 51.4303 Q736.881 54.509 736.881 60.0587 Q736.881 66.3781 731.858 70.0644 Q726.875 73.7508 718.125 73.7508 Q714.48 73.7508 710.51 73.0216 Q706.58 72.3329 702.205 70.9151 L702.205 63.2184 Q706.337 65.3654 710.348 66.4591 Q714.358 67.5124 718.288 67.5124 Q723.554 67.5124 726.389 65.73 Q729.225 63.9071 729.225 60.6258 Q729.225 57.5877 727.159 55.9673 Q725.134 54.3469 718.206 52.8481 L715.614 52.2405 Q708.687 50.7821 705.608 47.7845 Q702.529 44.7463 702.529 39.4801 Q702.529 33.0797 707.067 29.5959 Q711.604 26.1121 719.948 26.1121 Q724.08 26.1121 727.726 26.7198 Q731.372 27.3274 734.451 28.5427 Z" fill="#000000" fill-rule="nonzero" fill-opacity="1" /><path clip-path="url(#clip620)" d="M775.446 12.096 L783.629 12.096 L783.629 65.6895 L813.079 65.6895 L813.079 72.576 L775.446 72.576 L775.446 12.096 Z" fill="#000000" fill-rule="nonzero" fill-opacity="1" /><path clip-path="url(#clip620)" d="M858.692 48.0275 L858.692 51.6733 L824.421 51.6733 Q824.907 59.3701 829.039 63.421 Q833.212 67.4314 840.625 67.4314 Q844.919 67.4314 848.929 66.3781 Q852.98 65.3249 856.95 63.2184 L856.95 70.267 Q852.94 71.9684 848.727 72.8596 Q844.514 73.7508 840.179 73.7508 Q829.323 73.7508 822.963 67.4314 Q816.643 61.1119 816.643 50.3365 Q816.643 39.1965 822.639 32.6746 Q828.675 26.1121 838.883 26.1121 Q848.038 26.1121 853.345 32.0264 Q858.692 37.9003 858.692 48.0275 M851.238 45.84 Q851.157 39.7232 847.795 36.0774 Q844.473 32.4315 838.964 32.4315 Q832.726 32.4315 828.958 35.9558 Q825.231 39.4801 824.664 45.8805 L851.238 45.84 Z" fill="#000000" fill-rule="nonzero" fill-opacity="1" /><path clip-path="url(#clip620)" d="M908.639 45.1919 L908.639 72.576 L901.186 72.576 L901.186 45.4349 Q901.186 38.994 898.674 35.7938 Q896.163 32.5936 891.14 32.5936 Q885.104 32.5936 881.62 36.4419 Q878.136 40.2903 878.136 46.9338 L878.136 72.576 L870.642 72.576 L870.642 27.2059 L878.136 27.2059 L878.136 34.2544 Q880.81 30.163 884.415 28.1376 Q888.061 26.1121 892.8 26.1121 Q900.619 26.1121 904.629 30.9732 Q908.639 35.7938 908.639 45.1919 Z" fill="#000000" fill-rule="nonzero" fill-opacity="1" /><path clip-path="url(#clip620)" d="M953.361 49.3643 Q953.361 41.2625 949.999 36.8065 Q946.677 32.3505 940.642 32.3505 Q934.646 32.3505 931.284 36.8065 Q927.962 41.2625 927.962 49.3643 Q927.962 57.4256 931.284 61.8816 Q934.646 66.3376 940.642 66.3376 Q946.677 66.3376 949.999 61.8816 Q953.361 57.4256 953.361 49.3643 M960.815 66.9452 Q960.815 78.5308 955.67 84.1616 Q950.526 89.8329 939.912 89.8329 Q935.983 89.8329 932.499 89.2252 Q929.016 88.6581 925.734 87.4428 L925.734 80.1917 Q929.016 81.9741 932.216 82.8248 Q935.416 83.6755 938.738 83.6755 Q946.07 83.6755 949.716 79.8271 Q953.361 76.0193 953.361 68.282 L953.361 64.5957 Q951.052 68.6061 947.447 70.5911 Q943.842 72.576 938.819 72.576 Q930.474 72.576 925.37 66.2161 Q920.266 59.8562 920.266 49.3643 Q920.266 38.832 925.37 32.472 Q930.474 26.1121 938.819 26.1121 Q943.842 26.1121 947.447 28.0971 Q951.052 30.082 953.361 34.0924 L953.361 27.2059 L960.815 27.2059 L960.815 66.9452 Z" fill="#000000" fill-rule="nonzero" fill-opacity="1" /><path clip-path="url(#clip620)" d="M983.541 14.324 L983.541 27.2059 L998.894 27.2059 L998.894 32.9987 L983.541 32.9987 L983.541 57.6282 Q983.541 63.1779 985.04 64.7578 Q986.579 66.3376 991.237 66.3376 L998.894 66.3376 L998.894 72.576 L991.237 72.576 Q982.609 72.576 979.328 69.3758 Q976.047 66.1351 976.047 57.6282 L976.047 32.9987 L970.578 32.9987 L970.578 27.2059 L976.047 27.2059 L976.047 14.324 L983.541 14.324 Z" fill="#000000" fill-rule="nonzero" fill-opacity="1" /><path clip-path="url(#clip620)" d="M1046.41 45.1919 L1046.41 72.576 L1038.96 72.576 L1038.96 45.4349 Q1038.96 38.994 1036.45 35.7938 Q1033.93 32.5936 1028.91 32.5936 Q1022.87 32.5936 1019.39 36.4419 Q1015.91 40.2903 1015.91 46.9338 L1015.91 72.576 L1008.41 72.576 L1008.41 9.54393 L1015.91 9.54393 L1015.91 34.2544 Q1018.58 30.163 1022.19 28.1376 Q1025.83 26.1121 1030.57 26.1121 Q1038.39 26.1121 1042.4 30.9732 Q1046.41 35.7938 1046.41 45.1919 Z" fill="#000000" fill-rule="nonzero" fill-opacity="1" /><path clip-path="url(#clip620)" d="M1079.59 12.096 L1130.75 12.096 L1130.75 18.9825 L1109.28 18.9825 L1109.28 72.576 L1101.06 72.576 L1101.06 18.9825 L1079.59 18.9825 L1079.59 12.096 Z" fill="#000000" fill-rule="nonzero" fill-opacity="1" /><path clip-path="url(#clip620)" d="M1135.77 27.2059 L1143.23 27.2059 L1143.23 72.576 L1135.77 72.576 L1135.77 27.2059 M1135.77 9.54393 L1143.23 9.54393 L1143.23 18.9825 L1135.77 18.9825 L1135.77 9.54393 Z" fill="#000000" fill-rule="nonzero" fill-opacity="1" /><path clip-path="url(#clip620)" d="M1194.15 35.9153 Q1196.94 30.8922 1200.83 28.5022 Q1204.72 26.1121 1209.99 26.1121 Q1217.08 26.1121 1220.92 31.0947 Q1224.77 36.0368 1224.77 45.1919 L1224.77 72.576 L1217.28 72.576 L1217.28 45.4349 Q1217.28 38.913 1214.97 35.7533 Q1212.66 32.5936 1207.92 32.5936 Q1202.13 32.5936 1198.77 36.4419 Q1195.4 40.2903 1195.4 46.9338 L1195.4 72.576 L1187.91 72.576 L1187.91 45.4349 Q1187.91 38.8725 1185.6 35.7533 Q1183.29 32.5936 1178.47 32.5936 Q1172.76 32.5936 1169.4 36.4824 Q1166.03 40.3308 1166.03 46.9338 L1166.03 72.576 L1158.54 72.576 L1158.54 27.2059 L1166.03 27.2059 L1166.03 34.2544 Q1168.59 30.082 1172.15 28.0971 Q1175.72 26.1121 1180.62 26.1121 Q1185.56 26.1121 1189 28.6237 Q1192.49 31.1352 1194.15 35.9153 Z" fill="#000000" fill-rule="nonzero" fill-opacity="1" /><path clip-path="url(#clip620)" d="M1278.45 48.0275 L1278.45 51.6733 L1244.18 51.6733 Q1244.66 59.3701 1248.79 63.421 Q1252.97 67.4314 1260.38 67.4314 Q1264.67 67.4314 1268.68 66.3781 Q1272.73 65.3249 1276.7 63.2184 L1276.7 70.267 Q1272.69 71.9684 1268.48 72.8596 Q1264.27 73.7508 1259.93 73.7508 Q1249.08 73.7508 1242.72 67.4314 Q1236.4 61.1119 1236.4 50.3365 Q1236.4 39.1965 1242.39 32.6746 Q1248.43 26.1121 1258.64 26.1121 Q1267.79 26.1121 1273.1 32.0264 Q1278.45 37.9003 1278.45 48.0275 M1270.99 45.84 Q1270.91 39.7232 1267.55 36.0774 Q1264.23 32.4315 1258.72 32.4315 Q1252.48 32.4315 1248.71 35.9558 Q1244.99 39.4801 1244.42 45.8805 L1270.99 45.84 Z" fill="#000000" fill-rule="nonzero" fill-opacity="1" /><path clip-path="url(#clip620)" d="M1362.66 16.7545 L1362.66 25.383 Q1358.53 21.5346 1353.83 19.6307 Q1349.18 17.7268 1343.91 17.7268 Q1333.54 17.7268 1328.03 24.0867 Q1322.52 30.4061 1322.52 42.3968 Q1322.52 54.3469 1328.03 60.7069 Q1333.54 67.0263 1343.91 67.0263 Q1349.18 67.0263 1353.83 65.1223 Q1358.53 63.2184 1362.66 59.3701 L1362.66 67.9175 Q1358.37 70.8341 1353.55 72.2924 Q1348.77 73.7508 1343.42 73.7508 Q1329.69 73.7508 1321.79 65.3654 Q1313.89 56.9395 1313.89 42.3968 Q1313.89 27.8135 1321.79 19.4281 Q1329.69 11.0023 1343.42 11.0023 Q1348.85 11.0023 1353.63 12.4606 Q1358.45 13.8784 1362.66 16.7545 Z" fill="#000000" fill-rule="nonzero" fill-opacity="1" /><path clip-path="url(#clip620)" d="M1392.56 32.4315 Q1386.57 32.4315 1383.08 37.1306 Q1379.6 41.7891 1379.6 49.9314 Q1379.6 58.0738 1383.04 62.7728 Q1386.52 67.4314 1392.56 67.4314 Q1398.52 67.4314 1402 62.7323 Q1405.48 58.0333 1405.48 49.9314 Q1405.48 41.8701 1402 37.1711 Q1398.52 32.4315 1392.56 32.4315 M1392.56 26.1121 Q1402.28 26.1121 1407.83 32.4315 Q1413.38 38.7509 1413.38 49.9314 Q1413.38 61.0714 1407.83 67.4314 Q1402.28 73.7508 1392.56 73.7508 Q1382.8 73.7508 1377.25 67.4314 Q1371.74 61.0714 1371.74 49.9314 Q1371.74 38.7509 1377.25 32.4315 Q1382.8 26.1121 1392.56 26.1121 Z" fill="#000000" fill-rule="nonzero" fill-opacity="1" /><path clip-path="url(#clip620)" d="M1461.06 35.9153 Q1463.86 30.8922 1467.75 28.5022 Q1471.63 26.1121 1476.9 26.1121 Q1483.99 26.1121 1487.84 31.0947 Q1491.69 36.0368 1491.69 45.1919 L1491.69 72.576 L1484.19 72.576 L1484.19 45.4349 Q1484.19 38.913 1481.88 35.7533 Q1479.57 32.5936 1474.83 32.5936 Q1469.04 32.5936 1465.68 36.4419 Q1462.32 40.2903 1462.32 46.9338 L1462.32 72.576 L1454.82 72.576 L1454.82 45.4349 Q1454.82 38.8725 1452.51 35.7533 Q1450.2 32.5936 1445.38 32.5936 Q1439.67 32.5936 1436.31 36.4824 Q1432.95 40.3308 1432.95 46.9338 L1432.95 72.576 L1425.45 72.576 L1425.45 27.2059 L1432.95 27.2059 L1432.95 34.2544 Q1435.5 30.082 1439.06 28.0971 Q1442.63 26.1121 1447.53 26.1121 Q1452.47 26.1121 1455.92 28.6237 Q1459.4 31.1352 1461.06 35.9153 Z" fill="#000000" fill-rule="nonzero" fill-opacity="1" /><path clip-path="url(#clip620)" d="M1513.76 65.7705 L1513.76 89.8329 L1506.27 89.8329 L1506.27 27.2059 L1513.76 27.2059 L1513.76 34.0924 Q1516.11 30.0415 1519.68 28.0971 Q1523.28 26.1121 1528.27 26.1121 Q1536.53 26.1121 1541.67 32.6746 Q1546.86 39.2371 1546.86 49.9314 Q1546.86 60.6258 1541.67 67.1883 Q1536.53 73.7508 1528.27 73.7508 Q1523.28 73.7508 1519.68 71.8063 Q1516.11 69.8214 1513.76 65.7705 M1539.12 49.9314 Q1539.12 41.7081 1535.72 37.0496 Q1532.36 32.3505 1526.44 32.3505 Q1520.53 32.3505 1517.13 37.0496 Q1513.76 41.7081 1513.76 49.9314 Q1513.76 58.1548 1517.13 62.8538 Q1520.53 67.5124 1526.44 67.5124 Q1532.36 67.5124 1535.72 62.8538 Q1539.12 58.1548 1539.12 49.9314 Z" fill="#000000" fill-rule="nonzero" fill-opacity="1" /><path clip-path="url(#clip620)" d="M1559.21 9.54393 L1566.67 9.54393 L1566.67 72.576 L1559.21 72.576 L1559.21 9.54393 Z" fill="#000000" fill-rule="nonzero" fill-opacity="1" /><path clip-path="url(#clip620)" d="M1621.07 48.0275 L1621.07 51.6733 L1586.8 51.6733 Q1587.29 59.3701 1591.42 63.421 Q1595.59 67.4314 1603 67.4314 Q1607.3 67.4314 1611.31 66.3781 Q1615.36 65.3249 1619.33 63.2184 L1619.33 70.267 Q1615.32 71.9684 1611.11 72.8596 Q1606.89 73.7508 1602.56 73.7508 Q1591.7 73.7508 1585.34 67.4314 Q1579.02 61.1119 1579.02 50.3365 Q1579.02 39.1965 1585.02 32.6746 Q1591.05 26.1121 1601.26 26.1121 Q1610.42 26.1121 1615.72 32.0264 Q1621.07 37.9003 1621.07 48.0275 M1613.62 45.84 Q1613.54 39.7232 1610.18 36.0774 Q1606.85 32.4315 1601.34 32.4315 Q1595.11 32.4315 1591.34 35.9558 Q1587.61 39.4801 1587.04 45.8805 L1613.62 45.84 Z" fill="#000000" fill-rule="nonzero" fill-opacity="1" /><path clip-path="url(#clip620)" d="M1669.56 27.2059 L1653.16 49.2833 L1670.41 72.576 L1661.62 72.576 L1648.42 54.752 L1635.21 72.576 L1626.42 72.576 L1644.04 48.8377 L1627.92 27.2059 L1636.71 27.2059 L1648.74 43.369 L1660.77 27.2059 L1669.56 27.2059 Z" fill="#000000" fill-rule="nonzero" fill-opacity="1" /><path clip-path="url(#clip620)" d="M1680.94 27.2059 L1688.4 27.2059 L1688.4 72.576 L1680.94 72.576 L1680.94 27.2059 M1680.94 9.54393 L1688.4 9.54393 L1688.4 18.9825 L1680.94 18.9825 L1680.94 9.54393 Z" fill="#000000" fill-rule="nonzero" fill-opacity="1" /><path clip-path="url(#clip620)" d="M1711.37 14.324 L1711.37 27.2059 L1726.72 27.2059 L1726.72 32.9987 L1711.37 32.9987 L1711.37 57.6282 Q1711.37 63.1779 1712.87 64.7578 Q1714.4 66.3376 1719.06 66.3376 L1726.72 66.3376 L1726.72 72.576 L1719.06 72.576 Q1710.43 72.576 1707.15 69.3758 Q1703.87 66.1351 1703.87 57.6282 L1703.87 32.9987 L1698.4 32.9987 L1698.4 27.2059 L1703.87 27.2059 L1703.87 14.324 L1711.37 14.324 Z" fill="#000000" fill-rule="nonzero" fill-opacity="1" /><path clip-path="url(#clip620)" d="M1755.4 76.7889 Q1752.24 84.8907 1749.24 87.3618 Q1746.24 89.8329 1741.22 89.8329 L1735.27 89.8329 L1735.27 83.5945 L1739.64 83.5945 Q1742.72 83.5945 1744.42 82.1361 Q1746.12 80.6778 1748.19 75.2496 L1749.53 71.8468 L1731.18 27.2059 L1739.07 27.2059 L1753.25 62.6918 L1767.43 27.2059 L1775.33 27.2059 L1755.4 76.7889 Z" fill="#000000" fill-rule="nonzero" fill-opacity="1" /><path clip-path="url(#clip620)" d="M1787.52 62.2867 L1796.07 62.2867 L1796.07 69.2543 L1789.43 82.2172 L1784.2 82.2172 L1787.52 69.2543 L1787.52 62.2867 Z" fill="#000000" fill-rule="nonzero" fill-opacity="1" /><path clip-path="url(#clip620)" d="M1873.69 35.9153 Q1876.48 30.8922 1880.37 28.5022 Q1884.26 26.1121 1889.53 26.1121 Q1896.61 26.1121 1900.46 31.0947 Q1904.31 36.0368 1904.31 45.1919 L1904.31 72.576 L1896.82 72.576 L1896.82 45.4349 Q1896.82 38.913 1894.51 35.7533 Q1892.2 32.5936 1887.46 32.5936 Q1881.67 32.5936 1878.3 36.4419 Q1874.94 40.2903 1874.94 46.9338 L1874.94 72.576 L1867.45 72.576 L1867.45 45.4349 Q1867.45 38.8725 1865.14 35.7533 Q1862.83 32.5936 1858.01 32.5936 Q1852.3 32.5936 1848.94 36.4824 Q1845.57 40.3308 1845.57 46.9338 L1845.57 72.576 L1838.08 72.576 L1838.08 27.2059 L1845.57 27.2059 L1845.57 34.2544 Q1848.13 30.082 1851.69 28.0971 Q1855.25 26.1121 1860.16 26.1121 Q1865.1 26.1121 1868.54 28.6237 Q1872.03 31.1352 1873.69 35.9153 Z" fill="#000000" fill-rule="nonzero" fill-opacity="1" /><path clip-path="url(#clip620)" d="M1946.52 34.9026 L1998.45 34.9026 L1998.45 41.7081 L1946.52 41.7081 L1946.52 34.9026 M1946.52 51.4303 L1998.45 51.4303 L1998.45 58.3168 L1946.52 58.3168 L1946.52 51.4303 Z" fill="#000000" fill-rule="nonzero" fill-opacity="1" /><path clip-path="url(#clip620)" d="M2043.91 65.6895 L2057.27 65.6895 L2057.27 19.5497 L2042.73 22.4663 L2042.73 15.0127 L2057.19 12.096 L2065.38 12.096 L2065.38 65.6895 L2078.74 65.6895 L2078.74 72.576 L2043.91 72.576 L2043.91 65.6895 Z" fill="#000000" fill-rule="nonzero" fill-opacity="1" /><path clip-path="url(#clip620)" d="M2095.27 62.2867 L2103.82 62.2867 L2103.82 72.576 L2095.27 72.576 L2095.27 62.2867 Z" fill="#000000" fill-rule="nonzero" fill-opacity="1" /><path clip-path="url(#clip620)" d="M2139.14 17.4837 Q2132.82 17.4837 2129.62 23.7221 Q2126.46 29.92 2126.46 42.3968 Q2126.46 54.833 2129.62 61.0714 Q2132.82 67.2693 2139.14 67.2693 Q2145.5 67.2693 2148.66 61.0714 Q2151.86 54.833 2151.86 42.3968 Q2151.86 29.92 2148.66 23.7221 Q2145.5 17.4837 2139.14 17.4837 M2139.14 11.0023 Q2149.31 11.0023 2154.66 19.0636 Q2160.04 27.0843 2160.04 42.3968 Q2160.04 57.6687 2154.66 65.73 Q2149.31 73.7508 2139.14 73.7508 Q2128.97 73.7508 2123.59 65.73 Q2118.24 57.6687 2118.24 42.3968 Q2118.24 27.0843 2123.59 19.0636 Q2128.97 11.0023 2139.14 11.0023 Z" fill="#000000" fill-rule="nonzero" fill-opacity="1" /><path clip-path="url(#clip620)" d="M2192.94 39.075 Q2187.43 39.075 2184.19 42.8424 Q2180.99 46.6097 2180.99 53.1722 Q2180.99 59.6941 2184.19 63.502 Q2187.43 67.2693 2192.94 67.2693 Q2198.45 67.2693 2201.65 63.502 Q2204.89 59.6941 2204.89 53.1722 Q2204.89 46.6097 2201.65 42.8424 Q2198.45 39.075 2192.94 39.075 M2209.18 13.4328 L2209.18 20.8865 Q2206.1 19.4281 2202.94 18.6585 Q2199.82 17.8888 2196.75 17.8888 Q2188.64 17.8888 2184.35 23.3575 Q2180.1 28.8262 2179.49 39.8852 Q2181.88 36.3609 2185.48 34.4975 Q2189.09 32.5936 2193.42 32.5936 Q2202.54 32.5936 2207.8 38.1433 Q2213.11 43.6525 2213.11 53.1722 Q2213.11 62.4892 2207.6 68.12 Q2202.09 73.7508 2192.94 73.7508 Q2182.45 73.7508 2176.9 65.73 Q2171.35 57.6687 2171.35 42.3968 Q2171.35 28.0566 2178.15 19.5497 Q2184.96 11.0023 2196.42 11.0023 Q2199.5 11.0023 2202.62 11.6099 Q2205.78 12.2175 2209.18 13.4328 Z" fill="#000000" fill-rule="nonzero" fill-opacity="1" /><path clip-path="url(#clip620)" d="M2227.29 12.096 L2259.41 12.096 L2259.41 18.9825 L2234.78 18.9825 L2234.78 33.8088 Q2236.57 33.2012 2238.35 32.9176 Q2240.13 32.5936 2241.91 32.5936 Q2252.04 32.5936 2257.96 38.1433 Q2263.87 43.6931 2263.87 53.1722 Q2263.87 62.9348 2257.79 68.3631 Q2251.72 73.7508 2240.66 73.7508 Q2236.85 73.7508 2232.88 73.1026 Q2228.95 72.4545 2224.74 71.1582 L2224.74 62.9348 Q2228.38 64.9198 2232.27 65.892 Q2236.16 66.8642 2240.5 66.8642 Q2247.5 66.8642 2251.6 63.1779 Q2255.69 59.4916 2255.69 53.1722 Q2255.69 46.8528 2251.6 43.1664 Q2247.5 39.4801 2240.5 39.4801 Q2237.21 39.4801 2233.93 40.2093 Q2230.69 40.9384 2227.29 42.4778 L2227.29 12.096 Z" fill="#000000" fill-rule="nonzero" fill-opacity="1" /><path clip-path="url(#clip620)" d="M2297.49 43.8551 Q2291.66 43.8551 2288.3 46.9743 Q2284.97 50.0935 2284.97 55.5622 Q2284.97 61.0309 2288.3 64.1501 Q2291.66 67.2693 2297.49 67.2693 Q2303.33 67.2693 2306.69 64.1501 Q2310.05 60.9904 2310.05 55.5622 Q2310.05 50.0935 2306.69 46.9743 Q2303.37 43.8551 2297.49 43.8551 M2289.31 40.3713 Q2284.04 39.075 2281.09 35.4697 Q2278.17 31.8644 2278.17 26.6793 Q2278.17 19.4281 2283.31 15.2152 Q2288.5 11.0023 2297.49 11.0023 Q2306.53 11.0023 2311.67 15.2152 Q2316.81 19.4281 2316.81 26.6793 Q2316.81 31.8644 2313.86 35.4697 Q2310.94 39.075 2305.72 40.3713 Q2311.63 41.7486 2314.91 45.759 Q2318.23 49.7694 2318.23 55.5622 Q2318.23 64.3527 2312.84 69.0517 Q2307.5 73.7508 2297.49 73.7508 Q2287.49 73.7508 2282.1 69.0517 Q2276.75 64.3527 2276.75 55.5622 Q2276.75 49.7694 2280.07 45.759 Q2283.39 41.7486 2289.31 40.3713 M2286.31 27.4489 Q2286.31 32.148 2289.23 34.7811 Q2292.19 37.4142 2297.49 37.4142 Q2302.76 37.4142 2305.72 34.7811 Q2308.71 32.148 2308.71 27.4489 Q2308.71 22.7499 2305.72 20.1168 Q2302.76 17.4837 2297.49 17.4837 Q2292.19 17.4837 2289.23 20.1168 Q2286.31 22.7499 2286.31 27.4489 Z" fill="#000000" fill-rule="nonzero" fill-opacity="1" /><polyline clip-path="url(#clip622)" style="stroke:#ff0000; stroke-linecap:round; stroke-linejoin:round; stroke-width:8; stroke-opacity:1; fill:none" points="281.952,1350.39 659.726,1145.3 1037.5,920.201 1415.28,693.907 1636.26,583.38 1793.05,483.535 1914.67,406.769 2014.03,347.08 2098.05,297.969 2170.82,260.013 2235.02,243.203 2292.44,162.174 "/>
<polyline clip-path="url(#clip622)" style="stroke:#000000; stroke-linecap:round; stroke-linejoin:round; stroke-width:4; stroke-opacity:1; fill:none" points="281.952,1374.46 281.952,1328.11 "/>
<polyline clip-path="url(#clip622)" style="stroke:#000000; stroke-linecap:round; stroke-linejoin:round; stroke-width:4; stroke-opacity:1; fill:none" points="659.726,1213.3 659.726,1089.98 "/>
<polyline clip-path="url(#clip622)" style="stroke:#000000; stroke-linecap:round; stroke-linejoin:round; stroke-width:4; stroke-opacity:1; fill:none" points="1037.5,952.308 1037.5,891.22 "/>
<polyline clip-path="url(#clip622)" style="stroke:#000000; stroke-linecap:round; stroke-linejoin:round; stroke-width:4; stroke-opacity:1; fill:none" points="1415.28,712.466 1415.28,676.438 "/>
<polyline clip-path="url(#clip622)" style="stroke:#000000; stroke-linecap:round; stroke-linejoin:round; stroke-width:4; stroke-opacity:1; fill:none" points="1636.26,604.241 1636.26,563.885 "/>
<polyline clip-path="url(#clip622)" style="stroke:#000000; stroke-linecap:round; stroke-linejoin:round; stroke-width:4; stroke-opacity:1; fill:none" points="1793.05,510.578 1793.05,458.745 "/>
<polyline clip-path="url(#clip622)" style="stroke:#000000; stroke-linecap:round; stroke-linejoin:round; stroke-width:4; stroke-opacity:1; fill:none" points="1914.67,416.189 1914.67,397.638 "/>
<polyline clip-path="url(#clip622)" style="stroke:#000000; stroke-linecap:round; stroke-linejoin:round; stroke-width:4; stroke-opacity:1; fill:none" points="2014.03,363.709 2014.03,331.33 "/>
<polyline clip-path="url(#clip622)" style="stroke:#000000; stroke-linecap:round; stroke-linejoin:round; stroke-width:4; stroke-opacity:1; fill:none" points="2098.05,317.339 2098.05,279.782 "/>
<polyline clip-path="url(#clip622)" style="stroke:#000000; stroke-linecap:round; stroke-linejoin:round; stroke-width:4; stroke-opacity:1; fill:none" points="2170.82,263.421 2170.82,256.644 "/>
<polyline clip-path="url(#clip622)" style="stroke:#000000; stroke-linecap:round; stroke-linejoin:round; stroke-width:4; stroke-opacity:1; fill:none" points="2235.02,244.614 2235.02,241.8 "/>
<polyline clip-path="url(#clip622)" style="stroke:#000000; stroke-linecap:round; stroke-linejoin:round; stroke-width:4; stroke-opacity:1; fill:none" points="2292.44,164.458 2292.44,159.909 "/>
<line clip-path="url(#clip622)" x1="297.952" y1="1374.46" x2="265.952" y2="1374.46" style="stroke:#000000; stroke-width:4; stroke-opacity:1"/>
<line clip-path="url(#clip622)" x1="297.952" y1="1328.11" x2="265.952" y2="1328.11" style="stroke:#000000; stroke-width:4; stroke-opacity:1"/>
<line clip-path="url(#clip622)" x1="675.726" y1="1213.3" x2="643.726" y2="1213.3" style="stroke:#000000; stroke-width:4; stroke-opacity:1"/>
<line clip-path="url(#clip622)" x1="675.726" y1="1089.98" x2="643.726" y2="1089.98" style="stroke:#000000; stroke-width:4; stroke-opacity:1"/>
<line clip-path="url(#clip622)" x1="1053.5" y1="952.308" x2="1021.5" y2="952.308" style="stroke:#000000; stroke-width:4; stroke-opacity:1"/>
<line clip-path="url(#clip622)" x1="1053.5" y1="891.22" x2="1021.5" y2="891.22" style="stroke:#000000; stroke-width:4; stroke-opacity:1"/>
<line clip-path="url(#clip622)" x1="1431.28" y1="712.466" x2="1399.28" y2="712.466" style="stroke:#000000; stroke-width:4; stroke-opacity:1"/>
<line clip-path="url(#clip622)" x1="1431.28" y1="676.438" x2="1399.28" y2="676.438" style="stroke:#000000; stroke-width:4; stroke-opacity:1"/>
<line clip-path="url(#clip622)" x1="1652.26" y1="604.241" x2="1620.26" y2="604.241" style="stroke:#000000; stroke-width:4; stroke-opacity:1"/>
<line clip-path="url(#clip622)" x1="1652.26" y1="563.885" x2="1620.26" y2="563.885" style="stroke:#000000; stroke-width:4; stroke-opacity:1"/>
<line clip-path="url(#clip622)" x1="1809.05" y1="510.578" x2="1777.05" y2="510.578" style="stroke:#000000; stroke-width:4; stroke-opacity:1"/>
<line clip-path="url(#clip622)" x1="1809.05" y1="458.745" x2="1777.05" y2="458.745" style="stroke:#000000; stroke-width:4; stroke-opacity:1"/>
<line clip-path="url(#clip622)" x1="1930.67" y1="416.189" x2="1898.67" y2="416.189" style="stroke:#000000; stroke-width:4; stroke-opacity:1"/>
<line clip-path="url(#clip622)" x1="1930.67" y1="397.638" x2="1898.67" y2="397.638" style="stroke:#000000; stroke-width:4; stroke-opacity:1"/>
<line clip-path="url(#clip622)" x1="2030.03" y1="363.709" x2="1998.03" y2="363.709" style="stroke:#000000; stroke-width:4; stroke-opacity:1"/>
<line clip-path="url(#clip622)" x1="2030.03" y1="331.33" x2="1998.03" y2="331.33" style="stroke:#000000; stroke-width:4; stroke-opacity:1"/>
<line clip-path="url(#clip622)" x1="2114.05" y1="317.339" x2="2082.05" y2="317.339" style="stroke:#000000; stroke-width:4; stroke-opacity:1"/>
<line clip-path="url(#clip622)" x1="2114.05" y1="279.782" x2="2082.05" y2="279.782" style="stroke:#000000; stroke-width:4; stroke-opacity:1"/>
<line clip-path="url(#clip622)" x1="2186.82" y1="263.421" x2="2154.82" y2="263.421" style="stroke:#000000; stroke-width:4; stroke-opacity:1"/>
<line clip-path="url(#clip622)" x1="2186.82" y1="256.644" x2="2154.82" y2="256.644" style="stroke:#000000; stroke-width:4; stroke-opacity:1"/>
<line clip-path="url(#clip622)" x1="2251.02" y1="244.614" x2="2219.02" y2="244.614" style="stroke:#000000; stroke-width:4; stroke-opacity:1"/>
<line clip-path="url(#clip622)" x1="2251.02" y1="241.8" x2="2219.02" y2="241.8" style="stroke:#000000; stroke-width:4; stroke-opacity:1"/>
<line clip-path="url(#clip622)" x1="2308.44" y1="164.458" x2="2276.44" y2="164.458" style="stroke:#000000; stroke-width:4; stroke-opacity:1"/>
<line clip-path="url(#clip622)" x1="2308.44" y1="159.909" x2="2276.44" y2="159.909" style="stroke:#000000; stroke-width:4; stroke-opacity:1"/>
<circle clip-path="url(#clip622)" cx="281.952" cy="1350.39" r="14.4" fill="#ff0000" fill-rule="evenodd" fill-opacity="1" stroke="#000000" stroke-opacity="1" stroke-width="3.2"/>
<circle clip-path="url(#clip622)" cx="659.726" cy="1145.3" r="14.4" fill="#ff0000" fill-rule="evenodd" fill-opacity="1" stroke="#000000" stroke-opacity="1" stroke-width="3.2"/>
<circle clip-path="url(#clip622)" cx="1037.5" cy="920.201" r="14.4" fill="#ff0000" fill-rule="evenodd" fill-opacity="1" stroke="#000000" stroke-opacity="1" stroke-width="3.2"/>
<circle clip-path="url(#clip622)" cx="1415.28" cy="693.907" r="14.4" fill="#ff0000" fill-rule="evenodd" fill-opacity="1" stroke="#000000" stroke-opacity="1" stroke-width="3.2"/>
<circle clip-path="url(#clip622)" cx="1636.26" cy="583.38" r="14.4" fill="#ff0000" fill-rule="evenodd" fill-opacity="1" stroke="#000000" stroke-opacity="1" stroke-width="3.2"/>
<circle clip-path="url(#clip622)" cx="1793.05" cy="483.535" r="14.4" fill="#ff0000" fill-rule="evenodd" fill-opacity="1" stroke="#000000" stroke-opacity="1" stroke-width="3.2"/>
<circle clip-path="url(#clip622)" cx="1914.67" cy="406.769" r="14.4" fill="#ff0000" fill-rule="evenodd" fill-opacity="1" stroke="#000000" stroke-opacity="1" stroke-width="3.2"/>
<circle clip-path="url(#clip622)" cx="2014.03" cy="347.08" r="14.4" fill="#ff0000" fill-rule="evenodd" fill-opacity="1" stroke="#000000" stroke-opacity="1" stroke-width="3.2"/>
<circle clip-path="url(#clip622)" cx="2098.05" cy="297.969" r="14.4" fill="#ff0000" fill-rule="evenodd" fill-opacity="1" stroke="#000000" stroke-opacity="1" stroke-width="3.2"/>
<circle clip-path="url(#clip622)" cx="2170.82" cy="260.013" r="14.4" fill="#ff0000" fill-rule="evenodd" fill-opacity="1" stroke="#000000" stroke-opacity="1" stroke-width="3.2"/>
<circle clip-path="url(#clip622)" cx="2235.02" cy="243.203" r="14.4" fill="#ff0000" fill-rule="evenodd" fill-opacity="1" stroke="#000000" stroke-opacity="1" stroke-width="3.2"/>
<circle clip-path="url(#clip622)" cx="2292.44" cy="162.174" r="14.4" fill="#ff0000" fill-rule="evenodd" fill-opacity="1" stroke="#000000" stroke-opacity="1" stroke-width="3.2"/>
</svg>
