<?xml version="1.0" encoding="utf-8"?>
<svg xmlns="http://www.w3.org/2000/svg" xmlns:xlink="http://www.w3.org/1999/xlink" width="600" height="400" viewBox="0 0 2400 1600">
<defs>
  <clipPath id="clip820">
    <rect x="0" y="0" width="2400" height="1600"/>
  </clipPath>
</defs>
<path clip-path="url(#clip820)" d="M0 1600 L2400 1600 L2400 8.88178e-14 L0 8.88178e-14  Z" fill="#ffffff" fill-rule="evenodd" fill-opacity="1"/>
<defs>
  <clipPath id="clip821">
    <rect x="480" y="0" width="1681" height="1600"/>
  </clipPath>
</defs>
<path clip-path="url(#clip820)" d="M221.637 1410.9 L2352.76 1410.9 L2352.76 123.472 L221.637 123.472  Z" fill="#ffffff" fill-rule="evenodd" fill-opacity="1"/>
<defs>
  <clipPath id="clip822">
    <rect x="221" y="123" width="2132" height="1288"/>
  </clipPath>
</defs>
<polyline clip-path="url(#clip822)" style="stroke:#000000; stroke-linecap:round; stroke-linejoin:round; stroke-width:2; stroke-opacity:0.05; fill:none" points="381.32,1410.9 381.32,123.472 "/>
<polyline clip-path="url(#clip822)" style="stroke:#000000; stroke-linecap:round; stroke-linejoin:round; stroke-width:2; stroke-opacity:0.05; fill:none" points="538.11,1410.9 538.11,123.472 "/>
<polyline clip-path="url(#clip822)" style="stroke:#000000; stroke-linecap:round; stroke-linejoin:round; stroke-width:2; stroke-opacity:0.05; fill:none" points="659.726,1410.9 659.726,123.472 "/>
<polyline clip-path="url(#clip822)" style="stroke:#000000; stroke-linecap:round; stroke-linejoin:round; stroke-width:2; stroke-opacity:0.05; fill:none" points="759.094,1410.9 759.094,123.472 "/>
<polyline clip-path="url(#clip822)" style="stroke:#000000; stroke-linecap:round; stroke-linejoin:round; stroke-width:2; stroke-opacity:0.05; fill:none" points="843.108,1410.9 843.108,123.472 "/>
<polyline clip-path="url(#clip822)" style="stroke:#000000; stroke-linecap:round; stroke-linejoin:round; stroke-width:2; stroke-opacity:0.05; fill:none" points="915.885,1410.9 915.885,123.472 "/>
<polyline clip-path="url(#clip822)" style="stroke:#000000; stroke-linecap:round; stroke-linejoin:round; stroke-width:2; stroke-opacity:0.05; fill:none" points="980.078,1410.9 980.078,123.472 "/>
<polyline clip-path="url(#clip822)" style="stroke:#000000; stroke-linecap:round; stroke-linejoin:round; stroke-width:2; stroke-opacity:0.05; fill:none" points="1415.28,1410.9 1415.28,123.472 "/>
<polyline clip-path="url(#clip822)" style="stroke:#000000; stroke-linecap:round; stroke-linejoin:round; stroke-width:2; stroke-opacity:0.05; fill:none" points="1636.26,1410.9 1636.26,123.472 "/>
<polyline clip-path="url(#clip822)" style="stroke:#000000; stroke-linecap:round; stroke-linejoin:round; stroke-width:2; stroke-opacity:0.05; fill:none" points="1793.05,1410.9 1793.05,123.472 "/>
<polyline clip-path="url(#clip822)" style="stroke:#000000; stroke-linecap:round; stroke-linejoin:round; stroke-width:2; stroke-opacity:0.05; fill:none" points="1914.67,1410.9 1914.67,123.472 "/>
<polyline clip-path="url(#clip822)" style="stroke:#000000; stroke-linecap:round; stroke-linejoin:round; stroke-width:2; stroke-opacity:0.05; fill:none" points="2014.03,1410.9 2014.03,123.472 "/>
<polyline clip-path="url(#clip822)" style="stroke:#000000; stroke-linecap:round; stroke-linejoin:round; stroke-width:2; stroke-opacity:0.05; fill:none" points="2098.05,1410.9 2098.05,123.472 "/>
<polyline clip-path="url(#clip822)" style="stroke:#000000; stroke-linecap:round; stroke-linejoin:round; stroke-width:2; stroke-opacity:0.05; fill:none" points="2170.82,1410.9 2170.82,123.472 "/>
<polyline clip-path="url(#clip822)" style="stroke:#000000; stroke-linecap:round; stroke-linejoin:round; stroke-width:2; stroke-opacity:0.05; fill:none" points="2235.02,1410.9 2235.02,123.472 "/>
<polyline clip-path="url(#clip822)" style="stroke:#000000; stroke-linecap:round; stroke-linejoin:round; stroke-width:2; stroke-opacity:0.05; fill:none" points="221.637,1393.14 2352.76,1393.14 "/>
<polyline clip-path="url(#clip822)" style="stroke:#000000; stroke-linecap:round; stroke-linejoin:round; stroke-width:2; stroke-opacity:0.05; fill:none" points="221.637,1353.37 2352.76,1353.37 "/>
<polyline clip-path="url(#clip822)" style="stroke:#000000; stroke-linecap:round; stroke-linejoin:round; stroke-width:2; stroke-opacity:0.05; fill:none" points="221.637,1318.29 2352.76,1318.29 "/>
<polyline clip-path="url(#clip822)" style="stroke:#000000; stroke-linecap:round; stroke-linejoin:round; stroke-width:2; stroke-opacity:0.05; fill:none" points="221.637,1080.48 2352.76,1080.48 "/>
<polyline clip-path="url(#clip822)" style="stroke:#000000; stroke-linecap:round; stroke-linejoin:round; stroke-width:2; stroke-opacity:0.05; fill:none" points="221.637,959.72 2352.76,959.72 "/>
<polyline clip-path="url(#clip822)" style="stroke:#000000; stroke-linecap:round; stroke-linejoin:round; stroke-width:2; stroke-opacity:0.05; fill:none" points="221.637,874.042 2352.76,874.042 "/>
<polyline clip-path="url(#clip822)" style="stroke:#000000; stroke-linecap:round; stroke-linejoin:round; stroke-width:2; stroke-opacity:0.05; fill:none" points="221.637,807.584 2352.76,807.584 "/>
<polyline clip-path="url(#clip822)" style="stroke:#000000; stroke-linecap:round; stroke-linejoin:round; stroke-width:2; stroke-opacity:0.05; fill:none" points="221.637,753.285 2352.76,753.285 "/>
<polyline clip-path="url(#clip822)" style="stroke:#000000; stroke-linecap:round; stroke-linejoin:round; stroke-width:2; stroke-opacity:0.05; fill:none" points="221.637,707.375 2352.76,707.375 "/>
<polyline clip-path="url(#clip822)" style="stroke:#000000; stroke-linecap:round; stroke-linejoin:round; stroke-width:2; stroke-opacity:0.05; fill:none" points="221.637,667.606 2352.76,667.606 "/>
<polyline clip-path="url(#clip822)" style="stroke:#000000; stroke-linecap:round; stroke-linejoin:round; stroke-width:2; stroke-opacity:0.05; fill:none" points="221.637,632.528 2352.76,632.528 "/>
<polyline clip-path="url(#clip822)" style="stroke:#000000; stroke-linecap:round; stroke-linejoin:round; stroke-width:2; stroke-opacity:0.05; fill:none" points="221.637,394.713 2352.76,394.713 "/>
<polyline clip-path="url(#clip822)" style="stroke:#000000; stroke-linecap:round; stroke-linejoin:round; stroke-width:2; stroke-opacity:0.05; fill:none" points="221.637,273.956 2352.76,273.956 "/>
<polyline clip-path="url(#clip822)" style="stroke:#000000; stroke-linecap:round; stroke-linejoin:round; stroke-width:2; stroke-opacity:0.05; fill:none" points="221.637,188.278 2352.76,188.278 "/>
<polyline clip-path="url(#clip822)" style="stroke:#000000; stroke-linecap:round; stroke-linejoin:round; stroke-width:2; stroke-opacity:0.1; fill:none" points="1037.5,1410.9 1037.5,123.472 "/>
<polyline clip-path="url(#clip822)" style="stroke:#000000; stroke-linecap:round; stroke-linejoin:round; stroke-width:2; stroke-opacity:0.1; fill:none" points="2292.44,1410.9 2292.44,123.472 "/>
<polyline clip-path="url(#clip822)" style="stroke:#000000; stroke-linecap:round; stroke-linejoin:round; stroke-width:2; stroke-opacity:0.1; fill:none" points="221.637,1286.91 2352.76,1286.91 "/>
<polyline clip-path="url(#clip822)" style="stroke:#000000; stroke-linecap:round; stroke-linejoin:round; stroke-width:2; stroke-opacity:0.1; fill:none" points="221.637,601.149 2352.76,601.149 "/>
<polyline clip-path="url(#clip820)" style="stroke:#000000; stroke-linecap:round; stroke-linejoin:round; stroke-width:4; stroke-opacity:1; fill:none" points="221.637,1410.9 2352.76,1410.9 "/>
<polyline clip-path="url(#clip820)" style="stroke:#000000; stroke-linecap:round; stroke-linejoin:round; stroke-width:4; stroke-opacity:1; fill:none" points="1037.5,1410.9 1037.5,1392 "/>
<polyline clip-path="url(#clip820)" style="stroke:#000000; stroke-linecap:round; stroke-linejoin:round; stroke-width:4; stroke-opacity:1; fill:none" points="2292.44,1410.9 2292.44,1392 "/>
<polyline clip-path="url(#clip820)" style="stroke:#000000; stroke-linecap:round; stroke-linejoin:round; stroke-width:4; stroke-opacity:1; fill:none" points="381.32,1410.9 381.32,1401.45 "/>
<polyline clip-path="url(#clip820)" style="stroke:#000000; stroke-linecap:round; stroke-linejoin:round; stroke-width:4; stroke-opacity:1; fill:none" points="538.11,1410.9 538.11,1401.45 "/>
<polyline clip-path="url(#clip820)" style="stroke:#000000; stroke-linecap:round; stroke-linejoin:round; stroke-width:4; stroke-opacity:1; fill:none" points="659.726,1410.9 659.726,1401.45 "/>
<polyline clip-path="url(#clip820)" style="stroke:#000000; stroke-linecap:round; stroke-linejoin:round; stroke-width:4; stroke-opacity:1; fill:none" points="759.094,1410.9 759.094,1401.45 "/>
<polyline clip-path="url(#clip820)" style="stroke:#000000; stroke-linecap:round; stroke-linejoin:round; stroke-width:4; stroke-opacity:1; fill:none" points="843.108,1410.9 843.108,1401.45 "/>
<polyline clip-path="url(#clip820)" style="stroke:#000000; stroke-linecap:round; stroke-linejoin:round; stroke-width:4; stroke-opacity:1; fill:none" points="915.885,1410.9 915.885,1401.45 "/>
<polyline clip-path="url(#clip820)" style="stroke:#000000; stroke-linecap:round; stroke-linejoin:round; stroke-width:4; stroke-opacity:1; fill:none" points="980.078,1410.9 980.078,1401.45 "/>
<polyline clip-path="url(#clip820)" style="stroke:#000000; stroke-linecap:round; stroke-linejoin:round; stroke-width:4; stroke-opacity:1; fill:none" points="1415.28,1410.9 1415.28,1401.45 "/>
<polyline clip-path="url(#clip820)" style="stroke:#000000; stroke-linecap:round; stroke-linejoin:round; stroke-width:4; stroke-opacity:1; fill:none" points="1636.26,1410.9 1636.26,1401.45 "/>
<polyline clip-path="url(#clip820)" style="stroke:#000000; stroke-linecap:round; stroke-linejoin:round; stroke-width:4; stroke-opacity:1; fill:none" points="1793.05,1410.9 1793.05,1401.45 "/>
<polyline clip-path="url(#clip820)" style="stroke:#000000; stroke-linecap:round; stroke-linejoin:round; stroke-width:4; stroke-opacity:1; fill:none" points="1914.67,1410.9 1914.67,1401.45 "/>
<polyline clip-path="url(#clip820)" style="stroke:#000000; stroke-linecap:round; stroke-linejoin:round; stroke-width:4; stroke-opacity:1; fill:none" points="2014.03,1410.9 2014.03,1401.45 "/>
<polyline clip-path="url(#clip820)" style="stroke:#000000; stroke-linecap:round; stroke-linejoin:round; stroke-width:4; stroke-opacity:1; fill:none" points="2098.05,1410.9 2098.05,1401.45 "/>
<polyline clip-path="url(#clip820)" style="stroke:#000000; stroke-linecap:round; stroke-linejoin:round; stroke-width:4; stroke-opacity:1; fill:none" points="2170.82,1410.9 2170.82,1401.45 "/>
<polyline clip-path="url(#clip820)" style="stroke:#000000; stroke-linecap:round; stroke-linejoin:round; stroke-width:4; stroke-opacity:1; fill:none" points="2235.02,1410.9 2235.02,1401.45 "/>
<path clip-path="url(#clip820)" d="M1003.27 1485.02 L1010.91 1485.02 L1010.91 1458.66 L1002.6 1460.32 L1002.6 1456.06 L1010.87 1454.4 L1015.54 1454.4 L1015.54 1485.02 L1023.18 1485.02 L1023.18 1488.96 L1003.27 1488.96 L1003.27 1485.02 Z" fill="#000000" fill-rule="nonzero" fill-opacity="1" /><path clip-path="url(#clip820)" d="M1042.63 1457.48 Q1039.01 1457.48 1037.19 1461.04 Q1035.38 1464.58 1035.38 1471.71 Q1035.38 1478.82 1037.19 1482.38 Q1039.01 1485.92 1042.63 1485.92 Q1046.26 1485.92 1048.07 1482.38 Q1049.89 1478.82 1049.89 1471.71 Q1049.89 1464.58 1048.07 1461.04 Q1046.26 1457.48 1042.63 1457.48 M1042.63 1453.77 Q1048.44 1453.77 1051.49 1458.38 Q1054.57 1462.96 1054.57 1471.71 Q1054.57 1480.44 1051.49 1485.04 Q1048.44 1489.63 1042.63 1489.63 Q1036.82 1489.63 1033.74 1485.04 Q1030.68 1480.44 1030.68 1471.71 Q1030.68 1462.96 1033.74 1458.38 Q1036.82 1453.77 1042.63 1453.77 Z" fill="#000000" fill-rule="nonzero" fill-opacity="1" /><path clip-path="url(#clip820)" d="M1059.14 1458.35 L1072.4 1458.35 L1072.4 1461.55 L1054.57 1461.55 L1054.57 1458.35 Q1056.73 1456.11 1060.46 1452.35 Q1064.2 1448.57 1065.16 1447.48 Q1066.98 1445.43 1067.7 1444.02 Q1068.43 1442.59 1068.43 1441.22 Q1068.43 1438.98 1066.85 1437.57 Q1065.29 1436.16 1062.77 1436.16 Q1060.98 1436.16 1058.99 1436.78 Q1057.01 1437.4 1054.76 1438.66 L1054.76 1434.82 Q1057.05 1433.9 1059.05 1433.43 Q1061.04 1432.96 1062.69 1432.96 Q1067.06 1432.96 1069.65 1435.14 Q1072.25 1437.32 1072.25 1440.97 Q1072.25 1442.7 1071.59 1444.26 Q1070.95 1445.8 1069.24 1447.91 Q1068.77 1448.46 1066.25 1451.07 Q1063.73 1453.67 1059.14 1458.35 Z" fill="#000000" fill-rule="nonzero" fill-opacity="1" /><path clip-path="url(#clip820)" d="M2257.88 1485.02 L2265.52 1485.02 L2265.52 1458.66 L2257.21 1460.32 L2257.21 1456.06 L2265.48 1454.4 L2270.15 1454.4 L2270.15 1485.02 L2277.79 1485.02 L2277.79 1488.96 L2257.88 1488.96 L2257.88 1485.02 Z" fill="#000000" fill-rule="nonzero" fill-opacity="1" /><path clip-path="url(#clip820)" d="M2297.24 1457.48 Q2293.63 1457.48 2291.8 1461.04 Q2289.99 1464.58 2289.99 1471.71 Q2289.99 1478.82 2291.8 1482.38 Q2293.63 1485.92 2297.24 1485.92 Q2300.87 1485.92 2302.68 1482.38 Q2304.5 1478.82 2304.5 1471.71 Q2304.5 1464.58 2302.68 1461.04 Q2300.87 1457.48 2297.24 1457.48 M2297.24 1453.77 Q2303.05 1453.77 2306.1 1458.38 Q2309.18 1462.96 2309.18 1471.71 Q2309.18 1480.44 2306.1 1485.04 Q2303.05 1489.63 2297.24 1489.63 Q2291.43 1489.63 2288.35 1485.04 Q2285.29 1480.44 2285.29 1471.71 Q2285.29 1462.96 2288.35 1458.38 Q2291.43 1453.77 2297.24 1453.77 Z" fill="#000000" fill-rule="nonzero" fill-opacity="1" /><path clip-path="url(#clip820)" d="M2321.88 1446.41 Q2324.6 1446.99 2326.13 1448.83 Q2327.67 1450.68 2327.67 1453.38 Q2327.67 1457.54 2324.81 1459.82 Q2321.95 1462.09 2316.69 1462.09 Q2314.92 1462.09 2313.04 1461.73 Q2311.17 1461.4 2309.18 1460.7 L2309.18 1457.03 Q2310.76 1457.95 2312.64 1458.42 Q2314.52 1458.89 2316.57 1458.89 Q2320.15 1458.89 2322.01 1457.48 Q2323.89 1456.07 2323.89 1453.38 Q2323.89 1450.9 2322.14 1449.51 Q2320.41 1448.1 2317.31 1448.1 L2314.03 1448.1 L2314.03 1444.98 L2317.46 1444.98 Q2320.26 1444.98 2321.74 1443.87 Q2323.23 1442.74 2323.23 1440.63 Q2323.23 1438.47 2321.69 1437.32 Q2320.16 1436.16 2317.31 1436.16 Q2315.74 1436.16 2313.96 1436.49 Q2312.17 1436.83 2310.03 1437.55 L2310.03 1434.16 Q2312.19 1433.56 2314.07 1433.26 Q2315.97 1432.96 2317.64 1432.96 Q2321.97 1432.96 2324.49 1434.93 Q2327.01 1436.89 2327.01 1440.24 Q2327.01 1442.57 2325.68 1444.19 Q2324.34 1445.79 2321.88 1446.41 Z" fill="#000000" fill-rule="nonzero" fill-opacity="1" /><path clip-path="url(#clip820)" d="M1006.26 1528.42 L1006.26 1538.54 L1018.32 1538.54 L1018.32 1543.09 L1006.26 1543.09 L1006.26 1562.44 Q1006.26 1566.8 1007.44 1568.04 Q1008.65 1569.28 1012.31 1569.28 L1018.32 1569.28 L1018.32 1574.19 L1012.31 1574.19 Q1005.53 1574.19 1002.95 1571.67 Q1000.37 1569.12 1000.37 1562.44 L1000.37 1543.09 L996.077 1543.09 L996.077 1538.54 L1000.37 1538.54 L1000.37 1528.42 L1006.26 1528.42 Z" fill="#000000" fill-rule="nonzero" fill-opacity="1" /><path clip-path="url(#clip820)" d="M1026.03 1538.54 L1031.88 1538.54 L1031.88 1574.19 L1026.03 1574.19 L1026.03 1538.54 M1026.03 1524.66 L1031.88 1524.66 L1031.88 1532.08 L1026.03 1532.08 L1026.03 1524.66 Z" fill="#000000" fill-rule="nonzero" fill-opacity="1" /><path clip-path="url(#clip820)" d="M1071.89 1545.38 Q1074.09 1541.43 1077.14 1539.56 Q1080.2 1537.68 1084.34 1537.68 Q1089.91 1537.68 1092.93 1541.59 Q1095.95 1545.48 1095.95 1552.67 L1095.95 1574.19 L1090.07 1574.19 L1090.07 1552.86 Q1090.07 1547.74 1088.25 1545.25 Q1086.44 1542.77 1082.71 1542.77 Q1078.16 1542.77 1075.52 1545.79 Q1072.88 1548.82 1072.88 1554.04 L1072.88 1574.19 L1066.99 1574.19 L1066.99 1552.86 Q1066.99 1547.7 1065.18 1545.25 Q1063.36 1542.77 1059.57 1542.77 Q1055.09 1542.77 1052.45 1545.83 Q1049.8 1548.85 1049.8 1554.04 L1049.8 1574.19 L1043.92 1574.19 L1043.92 1538.54 L1049.8 1538.54 L1049.8 1544.08 Q1051.81 1540.8 1054.61 1539.24 Q1057.41 1537.68 1061.26 1537.68 Q1065.14 1537.68 1067.85 1539.65 Q1070.59 1541.62 1071.89 1545.38 Z" fill="#000000" fill-rule="nonzero" fill-opacity="1" /><path clip-path="url(#clip820)" d="M1138.13 1554.9 L1138.13 1557.76 L1111.2 1557.76 Q1111.58 1563.81 1114.83 1566.99 Q1118.11 1570.14 1123.93 1570.14 Q1127.31 1570.14 1130.46 1569.32 Q1133.64 1568.49 1136.76 1566.83 L1136.76 1572.37 Q1133.61 1573.71 1130.3 1574.41 Q1126.99 1575.11 1123.58 1575.11 Q1115.05 1575.11 1110.05 1570.14 Q1105.09 1565.18 1105.09 1556.71 Q1105.09 1547.96 1109.8 1542.83 Q1114.54 1537.68 1122.56 1537.68 Q1129.76 1537.68 1133.93 1542.33 Q1138.13 1546.94 1138.13 1554.9 M1132.27 1553.18 Q1132.21 1548.37 1129.57 1545.51 Q1126.96 1542.64 1122.63 1542.64 Q1117.73 1542.64 1114.77 1545.41 Q1111.84 1548.18 1111.39 1553.21 L1132.27 1553.18 Z" fill="#000000" fill-rule="nonzero" fill-opacity="1" /><path clip-path="url(#clip820)" d="M1191.19 1539.59 L1191.19 1545.13 Q1188.7 1543.85 1186.03 1543.22 Q1183.36 1542.58 1180.49 1542.58 Q1176.13 1542.58 1173.93 1543.92 Q1171.77 1545.25 1171.77 1547.93 Q1171.77 1549.96 1173.33 1551.14 Q1174.89 1552.29 1179.6 1553.34 L1181.61 1553.78 Q1187.84 1555.12 1190.45 1557.57 Q1193.1 1559.99 1193.1 1564.35 Q1193.1 1569.32 1189.15 1572.21 Q1185.23 1575.11 1178.36 1575.11 Q1175.49 1575.11 1172.38 1574.54 Q1169.29 1573.99 1165.85 1572.88 L1165.85 1566.83 Q1169.1 1568.52 1172.25 1569.38 Q1175.4 1570.21 1178.49 1570.21 Q1182.62 1570.21 1184.85 1568.81 Q1187.08 1567.37 1187.08 1564.8 Q1187.08 1562.41 1185.46 1561.14 Q1183.87 1559.86 1178.42 1558.68 L1176.39 1558.21 Q1170.94 1557.06 1168.52 1554.71 Q1166.1 1552.32 1166.1 1548.18 Q1166.1 1543.15 1169.67 1540.42 Q1173.23 1537.68 1179.79 1537.68 Q1183.04 1537.68 1185.9 1538.16 Q1188.77 1538.63 1191.19 1539.59 Z" fill="#000000" fill-rule="nonzero" fill-opacity="1" /><path clip-path="url(#clip820)" d="M1232.91 1554.9 L1232.91 1557.76 L1205.99 1557.76 Q1206.37 1563.81 1209.61 1566.99 Q1212.89 1570.14 1218.72 1570.14 Q1222.09 1570.14 1225.24 1569.32 Q1228.43 1568.49 1231.54 1566.83 L1231.54 1572.37 Q1228.39 1573.71 1225.08 1574.41 Q1221.77 1575.11 1218.37 1575.11 Q1209.84 1575.11 1204.84 1570.14 Q1199.87 1565.18 1199.87 1556.71 Q1199.87 1547.96 1204.59 1542.83 Q1209.33 1537.68 1217.35 1537.68 Q1224.54 1537.68 1228.71 1542.33 Q1232.91 1546.94 1232.91 1554.9 M1227.06 1553.18 Q1226.99 1548.37 1224.35 1545.51 Q1221.74 1542.64 1217.41 1542.64 Q1212.51 1542.64 1209.55 1545.41 Q1206.62 1548.18 1206.18 1553.21 L1227.06 1553.18 Z" fill="#000000" fill-rule="nonzero" fill-opacity="1" /><path clip-path="url(#clip820)" d="M1263.18 1544.01 Q1262.2 1543.44 1261.02 1543.18 Q1259.87 1542.9 1258.47 1542.9 Q1253.51 1542.9 1250.83 1546.14 Q1248.19 1549.36 1248.19 1555.41 L1248.19 1574.19 L1242.3 1574.19 L1242.3 1538.54 L1248.19 1538.54 L1248.19 1544.08 Q1250.04 1540.83 1253 1539.27 Q1255.96 1537.68 1260.19 1537.68 Q1260.79 1537.68 1261.53 1537.77 Q1262.26 1537.84 1263.15 1538 L1263.18 1544.01 Z" fill="#000000" fill-rule="nonzero" fill-opacity="1" /><path clip-path="url(#clip820)" d="M1269.32 1538.54 L1275.18 1538.54 L1275.18 1574.19 L1269.32 1574.19 L1269.32 1538.54 M1269.32 1524.66 L1275.18 1524.66 L1275.18 1532.08 L1269.32 1532.08 L1269.32 1524.66 Z" fill="#000000" fill-rule="nonzero" fill-opacity="1" /><path clip-path="url(#clip820)" d="M1317.93 1554.9 L1317.93 1557.76 L1291 1557.76 Q1291.38 1563.81 1294.63 1566.99 Q1297.91 1570.14 1303.73 1570.14 Q1307.11 1570.14 1310.26 1569.32 Q1313.44 1568.49 1316.56 1566.83 L1316.56 1572.37 Q1313.41 1573.71 1310.1 1574.41 Q1306.79 1575.11 1303.38 1575.11 Q1294.85 1575.11 1289.85 1570.14 Q1284.89 1565.18 1284.89 1556.71 Q1284.89 1547.96 1289.6 1542.83 Q1294.34 1537.68 1302.36 1537.68 Q1309.56 1537.68 1313.73 1542.33 Q1317.93 1546.94 1317.93 1554.9 M1312.07 1553.18 Q1312.01 1548.37 1309.37 1545.51 Q1306.76 1542.64 1302.43 1542.64 Q1297.52 1542.64 1294.56 1545.41 Q1291.64 1548.18 1291.19 1553.21 L1312.07 1553.18 Z" fill="#000000" fill-rule="nonzero" fill-opacity="1" /><path clip-path="url(#clip820)" d="M1350.26 1539.59 L1350.26 1545.13 Q1347.78 1543.85 1345.11 1543.22 Q1342.43 1542.58 1339.57 1542.58 Q1335.21 1542.58 1333.01 1543.92 Q1330.85 1545.25 1330.85 1547.93 Q1330.85 1549.96 1332.41 1551.14 Q1333.97 1552.29 1338.68 1553.34 L1340.68 1553.78 Q1346.92 1555.12 1349.53 1557.57 Q1352.17 1559.99 1352.17 1564.35 Q1352.17 1569.32 1348.23 1572.21 Q1344.31 1575.11 1337.44 1575.11 Q1334.57 1575.11 1331.45 1574.54 Q1328.37 1573.99 1324.93 1572.88 L1324.93 1566.83 Q1328.18 1568.52 1331.33 1569.38 Q1334.48 1570.21 1337.57 1570.21 Q1341.7 1570.21 1343.93 1568.81 Q1346.16 1567.37 1346.16 1564.8 Q1346.16 1562.41 1344.54 1561.14 Q1342.94 1559.86 1337.5 1558.68 L1335.46 1558.21 Q1330.02 1557.06 1327.6 1554.71 Q1325.18 1552.32 1325.18 1548.18 Q1325.18 1543.15 1328.75 1540.42 Q1332.31 1537.68 1338.87 1537.68 Q1342.12 1537.68 1344.98 1538.16 Q1347.85 1538.63 1350.26 1539.59 Z" fill="#000000" fill-rule="nonzero" fill-opacity="1" /><path clip-path="url(#clip820)" d="M1382.22 1524.66 L1388.08 1524.66 L1388.08 1574.19 L1382.22 1574.19 L1382.22 1524.66 Z" fill="#000000" fill-rule="nonzero" fill-opacity="1" /><path clip-path="url(#clip820)" d="M1430.82 1554.9 L1430.82 1557.76 L1403.9 1557.76 Q1404.28 1563.81 1407.52 1566.99 Q1410.8 1570.14 1416.63 1570.14 Q1420 1570.14 1423.15 1569.32 Q1426.33 1568.49 1429.45 1566.83 L1429.45 1572.37 Q1426.3 1573.71 1422.99 1574.41 Q1419.68 1575.11 1416.28 1575.11 Q1407.75 1575.11 1402.75 1570.14 Q1397.78 1565.18 1397.78 1556.71 Q1397.78 1547.96 1402.5 1542.83 Q1407.24 1537.68 1415.26 1537.68 Q1422.45 1537.68 1426.62 1542.33 Q1430.82 1546.94 1430.82 1554.9 M1424.97 1553.18 Q1424.9 1548.37 1422.26 1545.51 Q1419.65 1542.64 1415.32 1542.64 Q1410.42 1542.64 1407.46 1545.41 Q1404.53 1548.18 1404.09 1553.21 L1424.97 1553.18 Z" fill="#000000" fill-rule="nonzero" fill-opacity="1" /><path clip-path="url(#clip820)" d="M1470.07 1552.67 L1470.07 1574.19 L1464.21 1574.19 L1464.21 1552.86 Q1464.21 1547.8 1462.24 1545.29 Q1460.26 1542.77 1456.32 1542.77 Q1451.57 1542.77 1448.84 1545.79 Q1446.1 1548.82 1446.1 1554.04 L1446.1 1574.19 L1440.21 1574.19 L1440.21 1538.54 L1446.1 1538.54 L1446.1 1544.08 Q1448.2 1540.86 1451.03 1539.27 Q1453.9 1537.68 1457.62 1537.68 Q1463.77 1537.68 1466.92 1541.5 Q1470.07 1545.29 1470.07 1552.67 Z" fill="#000000" fill-rule="nonzero" fill-opacity="1" /><path clip-path="url(#clip820)" d="M1505.21 1555.95 Q1505.21 1549.58 1502.56 1546.08 Q1499.95 1542.58 1495.21 1542.58 Q1490.5 1542.58 1487.86 1546.08 Q1485.25 1549.58 1485.25 1555.95 Q1485.25 1562.28 1487.86 1565.78 Q1490.5 1569.28 1495.21 1569.28 Q1499.95 1569.28 1502.56 1565.78 Q1505.21 1562.28 1505.21 1555.95 M1511.06 1569.76 Q1511.06 1578.86 1507.02 1583.29 Q1502.98 1587.74 1494.64 1587.74 Q1491.55 1587.74 1488.81 1587.27 Q1486.08 1586.82 1483.5 1585.87 L1483.5 1580.17 Q1486.08 1581.57 1488.59 1582.24 Q1491.11 1582.91 1493.72 1582.91 Q1499.48 1582.91 1502.34 1579.88 Q1505.21 1576.89 1505.21 1570.81 L1505.21 1567.92 Q1503.39 1571.07 1500.56 1572.63 Q1497.73 1574.19 1493.78 1574.19 Q1487.22 1574.19 1483.21 1569.19 Q1479.2 1564.19 1479.2 1555.95 Q1479.2 1547.67 1483.21 1542.68 Q1487.22 1537.68 1493.78 1537.68 Q1497.73 1537.68 1500.56 1539.24 Q1503.39 1540.8 1505.21 1543.95 L1505.21 1538.54 L1511.06 1538.54 L1511.06 1569.76 Z" fill="#000000" fill-rule="nonzero" fill-opacity="1" /><path clip-path="url(#clip820)" d="M1528.92 1528.42 L1528.92 1538.54 L1540.98 1538.54 L1540.98 1543.09 L1528.92 1543.09 L1528.92 1562.44 Q1528.92 1566.8 1530.1 1568.04 Q1531.31 1569.28 1534.97 1569.28 L1540.98 1569.28 L1540.98 1574.19 L1534.97 1574.19 Q1528.19 1574.19 1525.61 1571.67 Q1523.03 1569.12 1523.03 1562.44 L1523.03 1543.09 L1518.73 1543.09 L1518.73 1538.54 L1523.03 1538.54 L1523.03 1528.42 L1528.92 1528.42 Z" fill="#000000" fill-rule="nonzero" fill-opacity="1" /><path clip-path="url(#clip820)" d="M1578.32 1552.67 L1578.32 1574.19 L1572.46 1574.19 L1572.46 1552.86 Q1572.46 1547.8 1570.49 1545.29 Q1568.51 1542.77 1564.57 1542.77 Q1559.82 1542.77 1557.09 1545.79 Q1554.35 1548.82 1554.35 1554.04 L1554.35 1574.19 L1548.46 1574.19 L1548.46 1524.66 L1554.35 1524.66 L1554.35 1544.08 Q1556.45 1540.86 1559.28 1539.27 Q1562.15 1537.68 1565.87 1537.68 Q1572.01 1537.68 1575.17 1541.5 Q1578.32 1545.29 1578.32 1552.67 Z" fill="#000000" fill-rule="nonzero" fill-opacity="1" /><polyline clip-path="url(#clip820)" style="stroke:#000000; stroke-linecap:round; stroke-linejoin:round; stroke-width:4; stroke-opacity:1; fill:none" points="221.637,1410.9 221.637,123.472 "/>
<polyline clip-path="url(#clip820)" style="stroke:#000000; stroke-linecap:round; stroke-linejoin:round; stroke-width:4; stroke-opacity:1; fill:none" points="221.637,1286.91 240.535,1286.91 "/>
<polyline clip-path="url(#clip820)" style="stroke:#000000; stroke-linecap:round; stroke-linejoin:round; stroke-width:4; stroke-opacity:1; fill:none" points="221.637,601.149 240.535,601.149 "/>
<polyline clip-path="url(#clip820)" style="stroke:#000000; stroke-linecap:round; stroke-linejoin:round; stroke-width:4; stroke-opacity:1; fill:none" points="221.637,1393.14 231.086,1393.14 "/>
<polyline clip-path="url(#clip820)" style="stroke:#000000; stroke-linecap:round; stroke-linejoin:round; stroke-width:4; stroke-opacity:1; fill:none" points="221.637,1353.37 231.086,1353.37 "/>
<polyline clip-path="url(#clip820)" style="stroke:#000000; stroke-linecap:round; stroke-linejoin:round; stroke-width:4; stroke-opacity:1; fill:none" points="221.637,1318.29 231.086,1318.29 "/>
<polyline clip-path="url(#clip820)" style="stroke:#000000; stroke-linecap:round; stroke-linejoin:round; stroke-width:4; stroke-opacity:1; fill:none" points="221.637,1080.48 231.086,1080.48 "/>
<polyline clip-path="url(#clip820)" style="stroke:#000000; stroke-linecap:round; stroke-linejoin:round; stroke-width:4; stroke-opacity:1; fill:none" points="221.637,959.72 231.086,959.72 "/>
<polyline clip-path="url(#clip820)" style="stroke:#000000; stroke-linecap:round; stroke-linejoin:round; stroke-width:4; stroke-opacity:1; fill:none" points="221.637,874.042 231.086,874.042 "/>
<polyline clip-path="url(#clip820)" style="stroke:#000000; stroke-linecap:round; stroke-linejoin:round; stroke-width:4; stroke-opacity:1; fill:none" points="221.637,807.584 231.086,807.584 "/>
<polyline clip-path="url(#clip820)" style="stroke:#000000; stroke-linecap:round; stroke-linejoin:round; stroke-width:4; stroke-opacity:1; fill:none" points="221.637,753.285 231.086,753.285 "/>
<polyline clip-path="url(#clip820)" style="stroke:#000000; stroke-linecap:round; stroke-linejoin:round; stroke-width:4; stroke-opacity:1; fill:none" points="221.637,707.375 231.086,707.375 "/>
<polyline clip-path="url(#clip820)" style="stroke:#000000; stroke-linecap:round; stroke-linejoin:round; stroke-width:4; stroke-opacity:1; fill:none" points="221.637,667.606 231.086,667.606 "/>
<polyline clip-path="url(#clip820)" style="stroke:#000000; stroke-linecap:round; stroke-linejoin:round; stroke-width:4; stroke-opacity:1; fill:none" points="221.637,632.528 231.086,632.528 "/>
<polyline clip-path="url(#clip820)" style="stroke:#000000; stroke-linecap:round; stroke-linejoin:round; stroke-width:4; stroke-opacity:1; fill:none" points="221.637,394.713 231.086,394.713 "/>
<polyline clip-path="url(#clip820)" style="stroke:#000000; stroke-linecap:round; stroke-linejoin:round; stroke-width:4; stroke-opacity:1; fill:none" points="221.637,273.956 231.086,273.956 "/>
<polyline clip-path="url(#clip820)" style="stroke:#000000; stroke-linecap:round; stroke-linejoin:round; stroke-width:4; stroke-opacity:1; fill:none" points="221.637,188.278 231.086,188.278 "/>
<path clip-path="url(#clip820)" d="M114.931 1306.7 L122.57 1306.7 L122.57 1280.34 L114.26 1282.01 L114.26 1277.75 L122.524 1276.08 L127.2 1276.08 L127.2 1306.7 L134.839 1306.7 L134.839 1310.64 L114.931 1310.64 L114.931 1306.7 Z" fill="#000000" fill-rule="nonzero" fill-opacity="1" /><path clip-path="url(#clip820)" d="M154.283 1279.16 Q150.672 1279.16 148.843 1282.72 Q147.038 1286.27 147.038 1293.39 Q147.038 1300.5 148.843 1304.07 Q150.672 1307.61 154.283 1307.61 Q157.917 1307.61 159.723 1304.07 Q161.552 1300.5 161.552 1293.39 Q161.552 1286.27 159.723 1282.72 Q157.917 1279.16 154.283 1279.16 M154.283 1275.45 Q160.093 1275.45 163.149 1280.06 Q166.227 1284.64 166.227 1293.39 Q166.227 1302.12 163.149 1306.73 Q160.093 1311.31 154.283 1311.31 Q148.473 1311.31 145.394 1306.73 Q142.339 1302.12 142.339 1293.39 Q142.339 1284.64 145.394 1280.06 Q148.473 1275.45 154.283 1275.45 Z" fill="#000000" fill-rule="nonzero" fill-opacity="1" /><path clip-path="url(#clip820)" d="M175.932 1257.65 Q172.998 1257.65 171.512 1260.55 Q170.045 1263.42 170.045 1269.22 Q170.045 1274.99 171.512 1277.89 Q172.998 1280.77 175.932 1280.77 Q178.885 1280.77 180.352 1277.89 Q181.838 1274.99 181.838 1269.22 Q181.838 1263.42 180.352 1260.55 Q178.885 1257.65 175.932 1257.65 M175.932 1254.64 Q180.653 1254.64 183.136 1258.38 Q185.637 1262.11 185.637 1269.22 Q185.637 1276.31 183.136 1280.05 Q180.653 1283.77 175.932 1283.77 Q171.212 1283.77 168.71 1280.05 Q166.227 1276.31 166.227 1269.22 Q166.227 1262.11 168.71 1258.38 Q171.212 1254.64 175.932 1254.64 Z" fill="#000000" fill-rule="nonzero" fill-opacity="1" /><path clip-path="url(#clip820)" d="M117.621 620.941 L125.26 620.941 L125.26 594.576 L116.95 596.242 L116.95 591.983 L125.214 590.316 L129.889 590.316 L129.889 620.941 L137.528 620.941 L137.528 624.876 L117.621 624.876 L117.621 620.941 Z" fill="#000000" fill-rule="nonzero" fill-opacity="1" /><path clip-path="url(#clip820)" d="M156.973 593.395 Q153.362 593.395 151.533 596.96 Q149.727 600.502 149.727 607.631 Q149.727 614.738 151.533 618.302 Q153.362 621.844 156.973 621.844 Q160.607 621.844 162.412 618.302 Q164.241 614.738 164.241 607.631 Q164.241 600.502 162.412 596.96 Q160.607 593.395 156.973 593.395 M156.973 589.691 Q162.783 589.691 165.838 594.298 Q168.917 598.881 168.917 607.631 Q168.917 616.358 165.838 620.964 Q162.783 625.548 156.973 625.548 Q151.162 625.548 148.084 620.964 Q145.028 616.358 145.028 607.631 Q145.028 598.881 148.084 594.298 Q151.162 589.691 156.973 589.691 Z" fill="#000000" fill-rule="nonzero" fill-opacity="1" /><path clip-path="url(#clip820)" d="M169.462 594.269 L175.669 594.269 L175.669 572.847 L168.917 574.201 L168.917 570.74 L175.631 569.386 L179.431 569.386 L179.431 594.269 L185.637 594.269 L185.637 597.466 L169.462 597.466 L169.462 594.269 Z" fill="#000000" fill-rule="nonzero" fill-opacity="1" /><path clip-path="url(#clip820)" d="M35.1993 1099.27 Q31.2526 1097.07 29.3747 1094.02 Q27.4968 1090.96 27.4968 1086.82 Q27.4968 1081.25 31.4117 1078.23 Q35.2948 1075.21 42.4881 1075.21 L64.0042 1075.21 L64.0042 1081.09 L42.679 1081.09 Q37.5546 1081.09 35.072 1082.91 Q32.5894 1084.72 32.5894 1088.45 Q32.5894 1093 35.6131 1095.64 Q38.6368 1098.28 43.8567 1098.28 L64.0042 1098.28 L64.0042 1104.17 L42.679 1104.17 Q37.5228 1104.17 35.072 1105.98 Q32.5894 1107.8 32.5894 1111.59 Q32.5894 1116.07 35.6449 1118.71 Q38.6686 1121.36 43.8567 1121.36 L64.0042 1121.36 L64.0042 1127.24 L28.3562 1127.24 L28.3562 1121.36 L33.8944 1121.36 Q30.616 1119.35 29.0564 1116.55 Q27.4968 1113.75 27.4968 1109.9 Q27.4968 1106.02 29.4702 1103.31 Q31.4436 1100.57 35.1993 1099.27 Z" fill="#000000" fill-rule="nonzero" fill-opacity="1" /><path clip-path="url(#clip820)" d="M44.7161 1033.03 L47.5806 1033.03 L47.5806 1059.96 Q53.6281 1059.58 56.8109 1056.33 Q59.9619 1053.05 59.9619 1047.23 Q59.9619 1043.85 59.1344 1040.7 Q58.3069 1037.52 56.6518 1034.4 L62.1899 1034.4 Q63.5267 1037.55 64.227 1040.86 Q64.9272 1044.17 64.9272 1047.58 Q64.9272 1056.11 59.9619 1061.1 Q54.9967 1066.07 46.5303 1066.07 Q37.7774 1066.07 32.6531 1061.36 Q27.4968 1056.62 27.4968 1048.6 Q27.4968 1041.4 32.1438 1037.23 Q36.7589 1033.03 44.7161 1033.03 M42.9973 1038.89 Q38.1912 1038.95 35.3266 1041.59 Q32.4621 1044.2 32.4621 1048.53 Q32.4621 1053.43 35.2312 1056.39 Q38.0002 1059.32 43.0292 1059.77 L42.9973 1038.89 Z" fill="#000000" fill-rule="nonzero" fill-opacity="1" /><path clip-path="url(#clip820)" d="M46.0847 1007.22 Q46.0847 1014.32 47.7079 1017.05 Q49.3312 1019.79 53.2461 1019.79 Q56.3653 1019.79 58.2114 1017.75 Q60.0256 1015.69 60.0256 1012.15 Q60.0256 1007.28 56.5881 1004.35 Q53.1188 1001.39 47.3897 1001.39 L46.0847 1001.39 L46.0847 1007.22 M43.6657 995.538 L64.0042 995.538 L64.0042 1001.39 L58.5933 1001.39 Q61.8398 1003.4 63.3994 1006.39 Q64.9272 1009.38 64.9272 1013.71 Q64.9272 1019.19 61.8716 1022.43 Q58.7843 1025.65 53.6281 1025.65 Q47.6125 1025.65 44.5569 1021.64 Q41.5014 1017.6 41.5014 1009.61 L41.5014 1001.39 L40.9285 1001.39 Q36.8862 1001.39 34.6901 1004.07 Q32.4621 1006.71 32.4621 1011.52 Q32.4621 1014.57 33.1941 1017.47 Q33.9262 1020.36 35.3903 1023.04 L29.9795 1023.04 Q28.7381 1019.82 28.1334 1016.8 Q27.4968 1013.78 27.4968 1010.91 Q27.4968 1003.18 31.5072 999.358 Q35.5176 995.538 43.6657 995.538 Z" fill="#000000" fill-rule="nonzero" fill-opacity="1" /><path clip-path="url(#clip820)" d="M42.4881 953.843 L64.0042 953.843 L64.0042 959.699 L42.679 959.699 Q37.6183 959.699 35.1038 961.673 Q32.5894 963.646 32.5894 967.593 Q32.5894 972.335 35.6131 975.072 Q38.6368 977.81 43.8567 977.81 L64.0042 977.81 L64.0042 983.698 L28.3562 983.698 L28.3562 977.81 L33.8944 977.81 Q30.6797 975.709 29.0883 972.876 Q27.4968 970.012 27.4968 966.288 Q27.4968 960.145 31.3163 956.994 Q35.1038 953.843 42.4881 953.843 Z" fill="#000000" fill-rule="nonzero" fill-opacity="1" /><path clip-path="url(#clip820)" d="M18.2347 915.649 L28.3562 915.649 L28.3562 903.586 L32.9077 903.586 L32.9077 915.649 L52.2594 915.649 Q56.6199 915.649 57.8613 914.471 Q59.1026 913.261 59.1026 909.601 L59.1026 903.586 L64.0042 903.586 L64.0042 909.601 Q64.0042 916.381 61.4897 918.959 Q58.9434 921.537 52.2594 921.537 L32.9077 921.537 L32.9077 925.834 L28.3562 925.834 L28.3562 921.537 L18.2347 921.537 L18.2347 915.649 Z" fill="#000000" fill-rule="nonzero" fill-opacity="1" /><path clip-path="url(#clip820)" d="M33.8307 875.226 Q33.2578 876.213 33.0032 877.391 Q32.7167 878.537 32.7167 879.937 Q32.7167 884.902 35.9632 887.576 Q39.1779 890.218 45.2253 890.218 L64.0042 890.218 L64.0042 896.106 L28.3562 896.106 L28.3562 890.218 L33.8944 890.218 Q30.6479 888.372 29.0883 885.411 Q27.4968 882.451 27.4968 878.218 Q27.4968 877.613 27.5923 876.881 Q27.656 876.149 27.8151 875.258 L33.8307 875.226 Z" fill="#000000" fill-rule="nonzero" fill-opacity="1" /><path clip-path="url(#clip820)" d="M46.0847 852.883 Q46.0847 859.98 47.7079 862.718 Q49.3312 865.455 53.2461 865.455 Q56.3653 865.455 58.2114 863.418 Q60.0256 861.349 60.0256 857.816 Q60.0256 852.946 56.5881 850.018 Q53.1188 847.058 47.3897 847.058 L46.0847 847.058 L46.0847 852.883 M43.6657 841.202 L64.0042 841.202 L64.0042 847.058 L58.5933 847.058 Q61.8398 849.063 63.3994 852.055 Q64.9272 855.047 64.9272 859.376 Q64.9272 864.85 61.8716 868.097 Q58.7843 871.311 53.6281 871.311 Q47.6125 871.311 44.5569 867.301 Q41.5014 863.259 41.5014 855.27 L41.5014 847.058 L40.9285 847.058 Q36.8862 847.058 34.6901 849.732 Q32.4621 852.373 32.4621 857.18 Q32.4621 860.235 33.1941 863.131 Q33.9262 866.028 35.3903 868.701 L29.9795 868.701 Q28.7381 865.487 28.1334 862.463 Q27.4968 859.439 27.4968 856.575 Q27.4968 848.84 31.5072 845.021 Q35.5176 841.202 43.6657 841.202 Z" fill="#000000" fill-rule="nonzero" fill-opacity="1" /><path clip-path="url(#clip820)" d="M28.3562 829.139 L28.3562 823.282 L64.0042 823.282 L64.0042 829.139 L28.3562 829.139 M14.479 829.139 L14.479 823.282 L21.895 823.282 L21.895 829.139 L14.479 829.139 Z" fill="#000000" fill-rule="nonzero" fill-opacity="1" /><path clip-path="url(#clip820)" d="M42.4881 781.396 L64.0042 781.396 L64.0042 787.252 L42.679 787.252 Q37.6183 787.252 35.1038 789.226 Q32.5894 791.199 32.5894 795.146 Q32.5894 799.888 35.6131 802.625 Q38.6368 805.363 43.8567 805.363 L64.0042 805.363 L64.0042 811.251 L28.3562 811.251 L28.3562 805.363 L33.8944 805.363 Q30.6797 803.262 29.0883 800.429 Q27.4968 797.565 27.4968 793.841 Q27.4968 787.698 31.3163 784.547 Q35.1038 781.396 42.4881 781.396 Z" fill="#000000" fill-rule="nonzero" fill-opacity="1" /><path clip-path="url(#clip820)" d="M28.3562 769.715 L28.3562 763.858 L64.0042 763.858 L64.0042 769.715 L28.3562 769.715 M14.479 769.715 L14.479 763.858 L21.895 763.858 L21.895 769.715 L14.479 769.715 Z" fill="#000000" fill-rule="nonzero" fill-opacity="1" /><path clip-path="url(#clip820)" d="M42.4881 721.972 L64.0042 721.972 L64.0042 727.828 L42.679 727.828 Q37.6183 727.828 35.1038 729.802 Q32.5894 731.775 32.5894 735.722 Q32.5894 740.464 35.6131 743.202 Q38.6368 745.939 43.8567 745.939 L64.0042 745.939 L64.0042 751.827 L28.3562 751.827 L28.3562 745.939 L33.8944 745.939 Q30.6797 743.838 29.0883 741.005 Q27.4968 738.141 27.4968 734.417 Q27.4968 728.274 31.3163 725.123 Q35.1038 721.972 42.4881 721.972 Z" fill="#000000" fill-rule="nonzero" fill-opacity="1" /><path clip-path="url(#clip820)" d="M45.7664 686.833 Q39.4007 686.833 35.8996 689.475 Q32.3984 692.085 32.3984 696.827 Q32.3984 701.538 35.8996 704.18 Q39.4007 706.79 45.7664 706.79 Q52.1003 706.79 55.6014 704.18 Q59.1026 701.538 59.1026 696.827 Q59.1026 692.085 55.6014 689.475 Q52.1003 686.833 45.7664 686.833 M59.58 680.977 Q68.683 680.977 73.1071 685.019 Q77.5631 689.061 77.5631 697.4 Q77.5631 700.488 77.0857 703.225 Q76.6401 705.962 75.6852 708.54 L69.9879 708.54 Q71.3884 705.962 72.0568 703.448 Q72.7252 700.933 72.7252 698.323 Q72.7252 692.562 69.7015 689.698 Q66.7096 686.833 60.6303 686.833 L57.7339 686.833 Q60.885 688.647 62.4446 691.48 Q64.0042 694.313 64.0042 698.26 Q64.0042 704.816 59.0071 708.827 Q54.01 712.837 45.7664 712.837 Q37.491 712.837 32.4939 708.827 Q27.4968 704.816 27.4968 698.26 Q27.4968 694.313 29.0564 691.48 Q30.616 688.647 33.7671 686.833 L28.3562 686.833 L28.3562 680.977 L59.58 680.977 Z" fill="#000000" fill-rule="nonzero" fill-opacity="1" /><path clip-path="url(#clip820)" d="M18.2347 642.401 L28.3562 642.401 L28.3562 630.338 L32.9077 630.338 L32.9077 642.401 L52.2594 642.401 Q56.6199 642.401 57.8613 641.223 Q59.1026 640.013 59.1026 636.353 L59.1026 630.338 L64.0042 630.338 L64.0042 636.353 Q64.0042 643.133 61.4897 645.711 Q58.9434 648.289 52.2594 648.289 L32.9077 648.289 L32.9077 652.586 L28.3562 652.586 L28.3562 648.289 L18.2347 648.289 L18.2347 642.401 Z" fill="#000000" fill-rule="nonzero" fill-opacity="1" /><path clip-path="url(#clip820)" d="M28.3562 622.635 L28.3562 616.779 L64.0042 616.779 L64.0042 622.635 L28.3562 622.635 M14.479 622.635 L14.479 616.779 L21.895 616.779 L21.895 622.635 L14.479 622.635 Z" fill="#000000" fill-rule="nonzero" fill-opacity="1" /><path clip-path="url(#clip820)" d="M35.1993 576.77 Q31.2526 574.574 29.3747 571.518 Q27.4968 568.463 27.4968 564.325 Q27.4968 558.755 31.4117 555.732 Q35.2948 552.708 42.4881 552.708 L64.0042 552.708 L64.0042 558.596 L42.679 558.596 Q37.5546 558.596 35.072 560.41 Q32.5894 562.225 32.5894 565.948 Q32.5894 570.5 35.6131 573.142 Q38.6368 575.784 43.8567 575.784 L64.0042 575.784 L64.0042 581.672 L42.679 581.672 Q37.5228 581.672 35.072 583.486 Q32.5894 585.3 32.5894 589.088 Q32.5894 593.576 35.6449 596.217 Q38.6686 598.859 43.8567 598.859 L64.0042 598.859 L64.0042 604.747 L28.3562 604.747 L28.3562 598.859 L33.8944 598.859 Q30.616 596.854 29.0564 594.053 Q27.4968 591.252 27.4968 587.401 Q27.4968 583.518 29.4702 580.812 Q31.4436 578.075 35.1993 576.77 Z" fill="#000000" fill-rule="nonzero" fill-opacity="1" /><path clip-path="url(#clip820)" d="M44.7161 510.535 L47.5806 510.535 L47.5806 537.462 Q53.6281 537.08 56.8109 533.833 Q59.9619 530.555 59.9619 524.731 Q59.9619 521.357 59.1344 518.206 Q58.3069 515.023 56.6518 511.904 L62.1899 511.904 Q63.5267 515.055 64.227 518.365 Q64.9272 521.675 64.9272 525.081 Q64.9272 533.611 59.9619 538.608 Q54.9967 543.573 46.5303 543.573 Q37.7774 543.573 32.6531 538.862 Q27.4968 534.12 27.4968 526.099 Q27.4968 518.906 32.1438 514.736 Q36.7589 510.535 44.7161 510.535 M42.9973 516.391 Q38.1912 516.455 35.3266 519.097 Q32.4621 521.707 32.4621 526.036 Q32.4621 530.937 35.2312 533.897 Q38.0002 536.825 43.0292 537.271 L42.9973 516.391 Z" fill="#000000" fill-rule="nonzero" fill-opacity="1" /><path clip-path="url(#clip820)" d="M14.5426 466.134 Q21.8632 470.399 29.0246 472.468 Q36.186 474.537 43.5384 474.537 Q50.8908 474.537 58.1159 472.468 Q65.3091 470.367 72.5979 466.134 L72.5979 471.227 Q65.1182 476.001 57.8931 478.388 Q50.668 480.744 43.5384 480.744 Q36.4406 480.744 29.2474 478.388 Q22.0542 476.033 14.5426 471.227 L14.5426 466.134 Z" fill="#000000" fill-rule="nonzero" fill-opacity="1" /><path clip-path="url(#clip820)" d="M29.4065 432.046 L34.9447 432.046 Q33.6716 434.528 33.035 437.202 Q32.3984 439.876 32.3984 442.74 Q32.3984 447.101 33.7352 449.297 Q35.072 451.461 37.7456 451.461 Q39.7826 451.461 40.9603 449.902 Q42.1061 448.342 43.1565 443.631 L43.6021 441.626 Q44.9389 435.388 47.3897 432.778 Q49.8086 430.136 54.1691 430.136 Q59.1344 430.136 62.0308 434.083 Q64.9272 437.998 64.9272 444.873 Q64.9272 447.737 64.3543 450.857 Q63.8132 453.944 62.6992 457.381 L56.6518 457.381 Q58.3387 454.135 59.198 450.984 Q60.0256 447.833 60.0256 444.745 Q60.0256 440.608 58.6251 438.38 Q57.1929 436.152 54.6147 436.152 Q52.2276 436.152 50.9545 437.775 Q49.6813 439.366 48.5037 444.809 L48.0262 446.846 Q46.8804 452.289 44.5251 454.708 Q42.138 457.127 38.0002 457.127 Q32.9713 457.127 30.2341 453.562 Q27.4968 449.997 27.4968 443.44 Q27.4968 440.194 27.9743 437.329 Q28.4517 434.465 29.4065 432.046 Z" fill="#000000" fill-rule="nonzero" fill-opacity="1" /><path clip-path="url(#clip820)" d="M14.5426 421.733 L14.5426 416.641 Q22.0542 411.867 29.2474 409.511 Q36.4406 407.124 43.5384 407.124 Q50.668 407.124 57.8931 409.511 Q65.1182 411.867 72.5979 416.641 L72.5979 421.733 Q65.3091 417.5 58.1159 415.431 Q50.8908 413.331 43.5384 413.331 Q36.186 413.331 29.0246 415.431 Q21.8632 417.5 14.5426 421.733 Z" fill="#000000" fill-rule="nonzero" fill-opacity="1" /><path clip-path="url(#clip820)" d="M527.611 12.096 L578.774 12.096 L578.774 18.9825 L557.305 18.9825 L557.305 72.576 L549.081 72.576 L549.081 18.9825 L527.611 18.9825 L527.611 12.096 Z" fill="#000000" fill-rule="nonzero" fill-opacity="1" /><path clip-path="url(#clip820)" d="M583.797 27.2059 L591.251 27.2059 L591.251 72.576 L583.797 72.576 L583.797 27.2059 M583.797 9.54393 L591.251 9.54393 L591.251 18.9825 L583.797 18.9825 L583.797 9.54393 Z" fill="#000000" fill-rule="nonzero" fill-opacity="1" /><path clip-path="url(#clip820)" d="M642.171 35.9153 Q644.966 30.8922 648.855 28.5022 Q652.744 26.1121 658.01 26.1121 Q665.099 26.1121 668.947 31.0947 Q672.796 36.0368 672.796 45.1919 L672.796 72.576 L665.302 72.576 L665.302 45.4349 Q665.302 38.913 662.993 35.7533 Q660.684 32.5936 655.944 32.5936 Q650.151 32.5936 646.789 36.4419 Q643.427 40.2903 643.427 46.9338 L643.427 72.576 L635.933 72.576 L635.933 45.4349 Q635.933 38.8725 633.624 35.7533 Q631.315 32.5936 626.494 32.5936 Q620.782 32.5936 617.42 36.4824 Q614.058 40.3308 614.058 46.9338 L614.058 72.576 L606.564 72.576 L606.564 27.2059 L614.058 27.2059 L614.058 34.2544 Q616.61 30.082 620.175 28.0971 Q623.739 26.1121 628.641 26.1121 Q633.583 26.1121 637.026 28.6237 Q640.51 31.1352 642.171 35.9153 Z" fill="#000000" fill-rule="nonzero" fill-opacity="1" /><path clip-path="url(#clip820)" d="M726.47 48.0275 L726.47 51.6733 L692.2 51.6733 Q692.686 59.3701 696.818 63.421 Q700.99 67.4314 708.403 67.4314 Q712.697 67.4314 716.708 66.3781 Q720.759 65.3249 724.728 63.2184 L724.728 70.267 Q720.718 71.9684 716.505 72.8596 Q712.292 73.7508 707.958 73.7508 Q697.101 73.7508 690.741 67.4314 Q684.422 61.1119 684.422 50.3365 Q684.422 39.1965 690.417 32.6746 Q696.453 26.1121 706.661 26.1121 Q715.816 26.1121 721.123 32.0264 Q726.47 37.9003 726.47 48.0275 M719.017 45.84 Q718.936 39.7232 715.573 36.0774 Q712.252 32.4315 706.742 32.4315 Q700.504 32.4315 696.737 35.9558 Q693.01 39.4801 692.443 45.8805 L719.017 45.84 Z" fill="#000000" fill-rule="nonzero" fill-opacity="1" /><path clip-path="url(#clip820)" d="M801.655 14.0809 L801.655 22.0612 Q796.997 19.8332 792.865 18.7395 Q788.733 17.6457 784.884 17.6457 Q778.2 17.6457 774.555 20.2383 Q770.949 22.8309 770.949 27.611 Q770.949 31.6214 773.339 33.6873 Q775.77 35.7128 782.494 36.9686 L787.436 37.9813 Q796.591 39.7232 800.926 44.1387 Q805.301 48.5136 805.301 55.8863 Q805.301 64.6767 799.387 69.2137 Q793.513 73.7508 782.13 73.7508 Q777.836 73.7508 772.975 72.7785 Q768.154 71.8063 762.969 69.9024 L762.969 61.4765 Q767.952 64.2716 772.732 65.6895 Q777.512 67.1073 782.13 67.1073 Q789.138 67.1073 792.946 64.3527 Q796.754 61.598 796.754 56.4939 Q796.754 52.0379 793.999 49.5264 Q791.285 47.0148 785.046 45.759 L780.064 44.7868 Q770.909 42.9639 766.817 39.075 Q762.726 35.1862 762.726 28.2591 Q762.726 20.2383 768.357 15.6203 Q774.028 11.0023 783.953 11.0023 Q788.206 11.0023 792.622 11.7719 Q797.037 12.5416 801.655 14.0809 Z" fill="#000000" fill-rule="nonzero" fill-opacity="1" /><path clip-path="url(#clip820)" d="M856.545 48.0275 L856.545 51.6733 L822.274 51.6733 Q822.76 59.3701 826.892 63.421 Q831.065 67.4314 838.478 67.4314 Q842.772 67.4314 846.782 66.3781 Q850.833 65.3249 854.803 63.2184 L854.803 70.267 Q850.793 71.9684 846.58 72.8596 Q842.367 73.7508 838.032 73.7508 Q827.176 73.7508 820.816 67.4314 Q814.496 61.1119 814.496 50.3365 Q814.496 39.1965 820.492 32.6746 Q826.528 26.1121 836.736 26.1121 Q845.891 26.1121 851.198 32.0264 Q856.545 37.9003 856.545 48.0275 M849.091 45.84 Q849.01 39.7232 845.648 36.0774 Q842.326 32.4315 836.817 32.4315 Q830.579 32.4315 826.811 35.9558 Q823.084 39.4801 822.517 45.8805 L849.091 45.84 Z" fill="#000000" fill-rule="nonzero" fill-opacity="1" /><path clip-path="url(#clip820)" d="M895.069 34.1734 Q893.813 33.4443 892.314 33.1202 Q890.856 32.7556 889.074 32.7556 Q882.754 32.7556 879.351 36.8875 Q875.989 40.9789 875.989 48.6757 L875.989 72.576 L868.495 72.576 L868.495 27.2059 L875.989 27.2059 L875.989 34.2544 Q878.339 30.1225 882.106 28.1376 Q885.873 26.1121 891.261 26.1121 Q892.031 26.1121 892.962 26.2337 Q893.894 26.3147 895.028 26.5172 L895.069 34.1734 Z" fill="#000000" fill-rule="nonzero" fill-opacity="1" /><path clip-path="url(#clip820)" d="M902.887 27.2059 L910.341 27.2059 L910.341 72.576 L902.887 72.576 L902.887 27.2059 M902.887 9.54393 L910.341 9.54393 L910.341 18.9825 L902.887 18.9825 L902.887 9.54393 Z" fill="#000000" fill-rule="nonzero" fill-opacity="1" /><path clip-path="url(#clip820)" d="M964.745 48.0275 L964.745 51.6733 L930.474 51.6733 Q930.96 59.3701 935.092 63.421 Q939.264 67.4314 946.677 67.4314 Q950.971 67.4314 954.982 66.3781 Q959.033 65.3249 963.003 63.2184 L963.003 70.267 Q958.992 71.9684 954.779 72.8596 Q950.566 73.7508 946.232 73.7508 Q935.375 73.7508 929.016 67.4314 Q922.696 61.1119 922.696 50.3365 Q922.696 39.1965 928.691 32.6746 Q934.727 26.1121 944.936 26.1121 Q954.091 26.1121 959.397 32.0264 Q964.745 37.9003 964.745 48.0275 M957.291 45.84 Q957.21 39.7232 953.848 36.0774 Q950.526 32.4315 945.017 32.4315 Q938.778 32.4315 935.011 35.9558 Q931.284 39.4801 930.717 45.8805 L957.291 45.84 Z" fill="#000000" fill-rule="nonzero" fill-opacity="1" /><path clip-path="url(#clip820)" d="M1005.9 28.5427 L1005.9 35.5912 Q1002.74 33.9709 999.339 33.1607 Q995.936 32.3505 992.291 32.3505 Q986.741 32.3505 983.946 34.0519 Q981.191 35.7533 981.191 39.156 Q981.191 41.7486 983.176 43.2475 Q985.161 44.7058 991.156 46.0426 L993.708 46.6097 Q1001.65 48.3111 1004.97 51.4303 Q1008.33 54.509 1008.33 60.0587 Q1008.33 66.3781 1003.31 70.0644 Q998.327 73.7508 989.577 73.7508 Q985.931 73.7508 981.961 73.0216 Q978.031 72.3329 973.657 70.9151 L973.657 63.2184 Q977.788 65.3654 981.799 66.4591 Q985.809 67.5124 989.739 67.5124 Q995.005 67.5124 997.84 65.73 Q1000.68 63.9071 1000.68 60.6258 Q1000.68 57.5877 998.61 55.9673 Q996.585 54.3469 989.658 52.8481 L987.065 52.2405 Q980.138 50.7821 977.059 47.7845 Q973.981 44.7463 973.981 39.4801 Q973.981 33.0797 978.518 29.5959 Q983.055 26.1121 991.399 26.1121 Q995.531 26.1121 999.177 26.7198 Q1002.82 27.3274 1005.9 28.5427 Z" fill="#000000" fill-rule="nonzero" fill-opacity="1" /><path clip-path="url(#clip820)" d="M1046.9 12.096 L1055.08 12.096 L1055.08 65.6895 L1084.53 65.6895 L1084.53 72.576 L1046.9 72.576 L1046.9 12.096 Z" fill="#000000" fill-rule="nonzero" fill-opacity="1" /><path clip-path="url(#clip820)" d="M1130.14 48.0275 L1130.14 51.6733 L1095.87 51.6733 Q1096.36 59.3701 1100.49 63.421 Q1104.66 67.4314 1112.08 67.4314 Q1116.37 67.4314 1120.38 66.3781 Q1124.43 65.3249 1128.4 63.2184 L1128.4 70.267 Q1124.39 71.9684 1120.18 72.8596 Q1115.96 73.7508 1111.63 73.7508 Q1100.77 73.7508 1094.41 67.4314 Q1088.09 61.1119 1088.09 50.3365 Q1088.09 39.1965 1094.09 32.6746 Q1100.13 26.1121 1110.33 26.1121 Q1119.49 26.1121 1124.8 32.0264 Q1130.14 37.9003 1130.14 48.0275 M1122.69 45.84 Q1122.61 39.7232 1119.25 36.0774 Q1115.92 32.4315 1110.42 32.4315 Q1104.18 32.4315 1100.41 35.9558 Q1096.68 39.4801 1096.12 45.8805 L1122.69 45.84 Z" fill="#000000" fill-rule="nonzero" fill-opacity="1" /><path clip-path="url(#clip820)" d="M1180.09 45.1919 L1180.09 72.576 L1172.64 72.576 L1172.64 45.4349 Q1172.64 38.994 1170.13 35.7938 Q1167.61 32.5936 1162.59 32.5936 Q1156.55 32.5936 1153.07 36.4419 Q1149.59 40.2903 1149.59 46.9338 L1149.59 72.576 L1142.09 72.576 L1142.09 27.2059 L1149.59 27.2059 L1149.59 34.2544 Q1152.26 30.163 1155.87 28.1376 Q1159.51 26.1121 1164.25 26.1121 Q1172.07 26.1121 1176.08 30.9732 Q1180.09 35.7938 1180.09 45.1919 Z" fill="#000000" fill-rule="nonzero" fill-opacity="1" /><path clip-path="url(#clip820)" d="M1224.81 49.3643 Q1224.81 41.2625 1221.45 36.8065 Q1218.13 32.3505 1212.09 32.3505 Q1206.1 32.3505 1202.74 36.8065 Q1199.41 41.2625 1199.41 49.3643 Q1199.41 57.4256 1202.74 61.8816 Q1206.1 66.3376 1212.09 66.3376 Q1218.13 66.3376 1221.45 61.8816 Q1224.81 57.4256 1224.81 49.3643 M1232.27 66.9452 Q1232.27 78.5308 1227.12 84.1616 Q1221.98 89.8329 1211.36 89.8329 Q1207.43 89.8329 1203.95 89.2252 Q1200.47 88.6581 1197.19 87.4428 L1197.19 80.1917 Q1200.47 81.9741 1203.67 82.8248 Q1206.87 83.6755 1210.19 83.6755 Q1217.52 83.6755 1221.17 79.8271 Q1224.81 76.0193 1224.81 68.282 L1224.81 64.5957 Q1222.5 68.6061 1218.9 70.5911 Q1215.29 72.576 1210.27 72.576 Q1201.92 72.576 1196.82 66.2161 Q1191.72 59.8562 1191.72 49.3643 Q1191.72 38.832 1196.82 32.472 Q1201.92 26.1121 1210.27 26.1121 Q1215.29 26.1121 1218.9 28.0971 Q1222.5 30.082 1224.81 34.0924 L1224.81 27.2059 L1232.27 27.2059 L1232.27 66.9452 Z" fill="#000000" fill-rule="nonzero" fill-opacity="1" /><path clip-path="url(#clip820)" d="M1254.99 14.324 L1254.99 27.2059 L1270.34 27.2059 L1270.34 32.9987 L1254.99 32.9987 L1254.99 57.6282 Q1254.99 63.1779 1256.49 64.7578 Q1258.03 66.3376 1262.69 66.3376 L1270.34 66.3376 L1270.34 72.576 L1262.69 72.576 Q1254.06 72.576 1250.78 69.3758 Q1247.5 66.1351 1247.5 57.6282 L1247.5 32.9987 L1242.03 32.9987 L1242.03 27.2059 L1247.5 27.2059 L1247.5 14.324 L1254.99 14.324 Z" fill="#000000" fill-rule="nonzero" fill-opacity="1" /><path clip-path="url(#clip820)" d="M1317.86 45.1919 L1317.86 72.576 L1310.41 72.576 L1310.41 45.4349 Q1310.41 38.994 1307.9 35.7938 Q1305.39 32.5936 1300.36 32.5936 Q1294.33 32.5936 1290.84 36.4419 Q1287.36 40.2903 1287.36 46.9338 L1287.36 72.576 L1279.86 72.576 L1279.86 9.54393 L1287.36 9.54393 L1287.36 34.2544 Q1290.03 30.163 1293.64 28.1376 Q1297.28 26.1121 1302.02 26.1121 Q1309.84 26.1121 1313.85 30.9732 Q1317.86 35.7938 1317.86 45.1919 Z" fill="#000000" fill-rule="nonzero" fill-opacity="1" /><path clip-path="url(#clip820)" d="M1351.04 12.096 L1402.2 12.096 L1402.2 18.9825 L1380.73 18.9825 L1380.73 72.576 L1372.51 72.576 L1372.51 18.9825 L1351.04 18.9825 L1351.04 12.096 Z" fill="#000000" fill-rule="nonzero" fill-opacity="1" /><path clip-path="url(#clip820)" d="M1407.22 27.2059 L1414.68 27.2059 L1414.68 72.576 L1407.22 72.576 L1407.22 27.2059 M1407.22 9.54393 L1414.68 9.54393 L1414.68 18.9825 L1407.22 18.9825 L1407.22 9.54393 Z" fill="#000000" fill-rule="nonzero" fill-opacity="1" /><path clip-path="url(#clip820)" d="M1465.6 35.9153 Q1468.39 30.8922 1472.28 28.5022 Q1476.17 26.1121 1481.44 26.1121 Q1488.53 26.1121 1492.37 31.0947 Q1496.22 36.0368 1496.22 45.1919 L1496.22 72.576 L1488.73 72.576 L1488.73 45.4349 Q1488.73 38.913 1486.42 35.7533 Q1484.11 32.5936 1479.37 32.5936 Q1473.58 32.5936 1470.22 36.4419 Q1466.85 40.2903 1466.85 46.9338 L1466.85 72.576 L1459.36 72.576 L1459.36 45.4349 Q1459.36 38.8725 1457.05 35.7533 Q1454.74 32.5936 1449.92 32.5936 Q1444.21 32.5936 1440.85 36.4824 Q1437.49 40.3308 1437.49 46.9338 L1437.49 72.576 L1429.99 72.576 L1429.99 27.2059 L1437.49 27.2059 L1437.49 34.2544 Q1440.04 30.082 1443.6 28.0971 Q1447.17 26.1121 1452.07 26.1121 Q1457.01 26.1121 1460.45 28.6237 Q1463.94 31.1352 1465.6 35.9153 Z" fill="#000000" fill-rule="nonzero" fill-opacity="1" /><path clip-path="url(#clip820)" d="M1549.9 48.0275 L1549.9 51.6733 L1515.63 51.6733 Q1516.11 59.3701 1520.25 63.421 Q1524.42 67.4314 1531.83 67.4314 Q1536.12 67.4314 1540.13 66.3781 Q1544.19 65.3249 1548.16 63.2184 L1548.16 70.267 Q1544.15 71.9684 1539.93 72.8596 Q1535.72 73.7508 1531.39 73.7508 Q1520.53 73.7508 1514.17 67.4314 Q1507.85 61.1119 1507.85 50.3365 Q1507.85 39.1965 1513.84 32.6746 Q1519.88 26.1121 1530.09 26.1121 Q1539.24 26.1121 1544.55 32.0264 Q1549.9 37.9003 1549.9 48.0275 M1542.44 45.84 Q1542.36 39.7232 1539 36.0774 Q1535.68 32.4315 1530.17 32.4315 Q1523.93 32.4315 1520.16 35.9558 Q1516.44 39.4801 1515.87 45.8805 L1542.44 45.84 Z" fill="#000000" fill-rule="nonzero" fill-opacity="1" /><path clip-path="url(#clip820)" d="M1634.12 16.7545 L1634.12 25.383 Q1629.98 21.5346 1625.28 19.6307 Q1620.63 17.7268 1615.36 17.7268 Q1604.99 17.7268 1599.48 24.0867 Q1593.97 30.4061 1593.97 42.3968 Q1593.97 54.3469 1599.48 60.7069 Q1604.99 67.0263 1615.36 67.0263 Q1620.63 67.0263 1625.28 65.1223 Q1629.98 63.2184 1634.12 59.3701 L1634.12 67.9175 Q1629.82 70.8341 1625 72.2924 Q1620.22 73.7508 1614.87 73.7508 Q1601.14 73.7508 1593.24 65.3654 Q1585.34 56.9395 1585.34 42.3968 Q1585.34 27.8135 1593.24 19.4281 Q1601.14 11.0023 1614.87 11.0023 Q1620.3 11.0023 1625.08 12.4606 Q1629.9 13.8784 1634.12 16.7545 Z" fill="#000000" fill-rule="nonzero" fill-opacity="1" /><path clip-path="url(#clip820)" d="M1664.01 32.4315 Q1658.02 32.4315 1654.53 37.1306 Q1651.05 41.7891 1651.05 49.9314 Q1651.05 58.0738 1654.49 62.7728 Q1657.98 67.4314 1664.01 67.4314 Q1669.97 67.4314 1673.45 62.7323 Q1676.93 58.0333 1676.93 49.9314 Q1676.93 41.8701 1673.45 37.1711 Q1669.97 32.4315 1664.01 32.4315 M1664.01 26.1121 Q1673.73 26.1121 1679.28 32.4315 Q1684.83 38.7509 1684.83 49.9314 Q1684.83 61.0714 1679.28 67.4314 Q1673.73 73.7508 1664.01 73.7508 Q1654.25 73.7508 1648.7 67.4314 Q1643.19 61.0714 1643.19 49.9314 Q1643.19 38.7509 1648.7 32.4315 Q1654.25 26.1121 1664.01 26.1121 Z" fill="#000000" fill-rule="nonzero" fill-opacity="1" /><path clip-path="url(#clip820)" d="M1732.51 35.9153 Q1735.31 30.8922 1739.2 28.5022 Q1743.09 26.1121 1748.35 26.1121 Q1755.44 26.1121 1759.29 31.0947 Q1763.14 36.0368 1763.14 45.1919 L1763.14 72.576 L1755.64 72.576 L1755.64 45.4349 Q1755.64 38.913 1753.33 35.7533 Q1751.03 32.5936 1746.29 32.5936 Q1740.49 32.5936 1737.13 36.4419 Q1733.77 40.2903 1733.77 46.9338 L1733.77 72.576 L1726.27 72.576 L1726.27 45.4349 Q1726.27 38.8725 1723.96 35.7533 Q1721.66 32.5936 1716.84 32.5936 Q1711.12 32.5936 1707.76 36.4824 Q1704.4 40.3308 1704.4 46.9338 L1704.4 72.576 L1696.9 72.576 L1696.9 27.2059 L1704.4 27.2059 L1704.4 34.2544 Q1706.95 30.082 1710.52 28.0971 Q1714.08 26.1121 1718.98 26.1121 Q1723.92 26.1121 1727.37 28.6237 Q1730.85 31.1352 1732.51 35.9153 Z" fill="#000000" fill-rule="nonzero" fill-opacity="1" /><path clip-path="url(#clip820)" d="M1785.21 65.7705 L1785.21 89.8329 L1777.72 89.8329 L1777.72 27.2059 L1785.21 27.2059 L1785.21 34.0924 Q1787.56 30.0415 1791.13 28.0971 Q1794.73 26.1121 1799.72 26.1121 Q1807.98 26.1121 1813.13 32.6746 Q1818.31 39.2371 1818.31 49.9314 Q1818.31 60.6258 1813.13 67.1883 Q1807.98 73.7508 1799.72 73.7508 Q1794.73 73.7508 1791.13 71.8063 Q1787.56 69.8214 1785.21 65.7705 M1810.57 49.9314 Q1810.57 41.7081 1807.17 37.0496 Q1803.81 32.3505 1797.89 32.3505 Q1791.98 32.3505 1788.58 37.0496 Q1785.21 41.7081 1785.21 49.9314 Q1785.21 58.1548 1788.58 62.8538 Q1791.98 67.5124 1797.89 67.5124 Q1803.81 67.5124 1807.17 62.8538 Q1810.57 58.1548 1810.57 49.9314 Z" fill="#000000" fill-rule="nonzero" fill-opacity="1" /><path clip-path="url(#clip820)" d="M1830.67 9.54393 L1838.12 9.54393 L1838.12 72.576 L1830.67 72.576 L1830.67 9.54393 Z" fill="#000000" fill-rule="nonzero" fill-opacity="1" /><path clip-path="url(#clip820)" d="M1892.52 48.0275 L1892.52 51.6733 L1858.25 51.6733 Q1858.74 59.3701 1862.87 63.421 Q1867.04 67.4314 1874.46 67.4314 Q1878.75 67.4314 1882.76 66.3781 Q1886.81 65.3249 1890.78 63.2184 L1890.78 70.267 Q1886.77 71.9684 1882.56 72.8596 Q1878.34 73.7508 1874.01 73.7508 Q1863.15 73.7508 1856.79 67.4314 Q1850.47 61.1119 1850.47 50.3365 Q1850.47 39.1965 1856.47 32.6746 Q1862.51 26.1121 1872.71 26.1121 Q1881.87 26.1121 1887.18 32.0264 Q1892.52 37.9003 1892.52 48.0275 M1885.07 45.84 Q1884.99 39.7232 1881.63 36.0774 Q1878.3 32.4315 1872.8 32.4315 Q1866.56 32.4315 1862.79 35.9558 Q1859.06 39.4801 1858.5 45.8805 L1885.07 45.84 Z" fill="#000000" fill-rule="nonzero" fill-opacity="1" /><path clip-path="url(#clip820)" d="M1941.01 27.2059 L1924.61 49.2833 L1941.86 72.576 L1933.07 72.576 L1919.87 54.752 L1906.66 72.576 L1897.87 72.576 L1915.49 48.8377 L1899.37 27.2059 L1908.16 27.2059 L1920.19 43.369 L1932.22 27.2059 L1941.01 27.2059 Z" fill="#000000" fill-rule="nonzero" fill-opacity="1" /><path clip-path="url(#clip820)" d="M1952.4 27.2059 L1959.85 27.2059 L1959.85 72.576 L1952.4 72.576 L1952.4 27.2059 M1952.4 9.54393 L1959.85 9.54393 L1959.85 18.9825 L1952.4 18.9825 L1952.4 9.54393 Z" fill="#000000" fill-rule="nonzero" fill-opacity="1" /><path clip-path="url(#clip820)" d="M1982.82 14.324 L1982.82 27.2059 L1998.17 27.2059 L1998.17 32.9987 L1982.82 32.9987 L1982.82 57.6282 Q1982.82 63.1779 1984.32 64.7578 Q1985.86 66.3376 1990.51 66.3376 L1998.17 66.3376 L1998.17 72.576 L1990.51 72.576 Q1981.89 72.576 1978.6 69.3758 Q1975.32 66.1351 1975.32 57.6282 L1975.32 32.9987 L1969.85 32.9987 L1969.85 27.2059 L1975.32 27.2059 L1975.32 14.324 L1982.82 14.324 Z" fill="#000000" fill-rule="nonzero" fill-opacity="1" /><path clip-path="url(#clip820)" d="M2026.85 76.7889 Q2023.69 84.8907 2020.69 87.3618 Q2017.7 89.8329 2012.67 89.8329 L2006.72 89.8329 L2006.72 83.5945 L2011.09 83.5945 Q2014.17 83.5945 2015.87 82.1361 Q2017.57 80.6778 2019.64 75.2496 L2020.98 71.8468 L2002.63 27.2059 L2010.53 27.2059 L2024.7 62.6918 L2038.88 27.2059 L2046.78 27.2059 L2026.85 76.7889 Z" fill="#000000" fill-rule="nonzero" fill-opacity="1" /><polyline clip-path="url(#clip822)" style="stroke:#ff0000; stroke-linecap:round; stroke-linejoin:round; stroke-width:8; stroke-opacity:1; fill:none" points="281.952,1350.39 659.726,1145.3 1037.5,920.201 1415.28,693.907 1636.26,583.38 1793.05,483.535 1914.67,406.769 2014.03,347.08 2098.05,297.969 2170.82,260.013 2235.02,243.203 2292.44,162.174 "/>
<polyline clip-path="url(#clip822)" style="stroke:#000000; stroke-linecap:round; stroke-linejoin:round; stroke-width:4; stroke-opacity:1; fill:none" points="281.952,1374.46 281.952,1328.11 "/>
<polyline clip-path="url(#clip822)" style="stroke:#000000; stroke-linecap:round; stroke-linejoin:round; stroke-width:4; stroke-opacity:1; fill:none" points="659.726,1213.3 659.726,1089.98 "/>
<polyline clip-path="url(#clip822)" style="stroke:#000000; stroke-linecap:round; stroke-linejoin:round; stroke-width:4; stroke-opacity:1; fill:none" points="1037.5,952.308 1037.5,891.22 "/>
<polyline clip-path="url(#clip822)" style="stroke:#000000; stroke-linecap:round; stroke-linejoin:round; stroke-width:4; stroke-opacity:1; fill:none" points="1415.28,712.466 1415.28,676.438 "/>
<polyline clip-path="url(#clip822)" style="stroke:#000000; stroke-linecap:round; stroke-linejoin:round; stroke-width:4; stroke-opacity:1; fill:none" points="1636.26,604.241 1636.26,563.885 "/>
<polyline clip-path="url(#clip822)" style="stroke:#000000; stroke-linecap:round; stroke-linejoin:round; stroke-width:4; stroke-opacity:1; fill:none" points="1793.05,510.578 1793.05,458.745 "/>
<polyline clip-path="url(#clip822)" style="stroke:#000000; stroke-linecap:round; stroke-linejoin:round; stroke-width:4; stroke-opacity:1; fill:none" points="1914.67,416.189 1914.67,397.638 "/>
<polyline clip-path="url(#clip822)" style="stroke:#000000; stroke-linecap:round; stroke-linejoin:round; stroke-width:4; stroke-opacity:1; fill:none" points="2014.03,363.709 2014.03,331.33 "/>
<polyline clip-path="url(#clip822)" style="stroke:#000000; stroke-linecap:round; stroke-linejoin:round; stroke-width:4; stroke-opacity:1; fill:none" points="2098.05,317.339 2098.05,279.782 "/>
<polyline clip-path="url(#clip822)" style="stroke:#000000; stroke-linecap:round; stroke-linejoin:round; stroke-width:4; stroke-opacity:1; fill:none" points="2170.82,263.421 2170.82,256.644 "/>
<polyline clip-path="url(#clip822)" style="stroke:#000000; stroke-linecap:round; stroke-linejoin:round; stroke-width:4; stroke-opacity:1; fill:none" points="2235.02,244.614 2235.02,241.8 "/>
<polyline clip-path="url(#clip822)" style="stroke:#000000; stroke-linecap:round; stroke-linejoin:round; stroke-width:4; stroke-opacity:1; fill:none" points="2292.44,164.458 2292.44,159.909 "/>
<line clip-path="url(#clip822)" x1="297.952" y1="1374.46" x2="265.952" y2="1374.46" style="stroke:#000000; stroke-width:4; stroke-opacity:1"/>
<line clip-path="url(#clip822)" x1="297.952" y1="1328.11" x2="265.952" y2="1328.11" style="stroke:#000000; stroke-width:4; stroke-opacity:1"/>
<line clip-path="url(#clip822)" x1="675.726" y1="1213.3" x2="643.726" y2="1213.3" style="stroke:#000000; stroke-width:4; stroke-opacity:1"/>
<line clip-path="url(#clip822)" x1="675.726" y1="1089.98" x2="643.726" y2="1089.98" style="stroke:#000000; stroke-width:4; stroke-opacity:1"/>
<line clip-path="url(#clip822)" x1="1053.5" y1="952.308" x2="1021.5" y2="952.308" style="stroke:#000000; stroke-width:4; stroke-opacity:1"/>
<line clip-path="url(#clip822)" x1="1053.5" y1="891.22" x2="1021.5" y2="891.22" style="stroke:#000000; stroke-width:4; stroke-opacity:1"/>
<line clip-path="url(#clip822)" x1="1431.28" y1="712.466" x2="1399.28" y2="712.466" style="stroke:#000000; stroke-width:4; stroke-opacity:1"/>
<line clip-path="url(#clip822)" x1="1431.28" y1="676.438" x2="1399.28" y2="676.438" style="stroke:#000000; stroke-width:4; stroke-opacity:1"/>
<line clip-path="url(#clip822)" x1="1652.26" y1="604.241" x2="1620.26" y2="604.241" style="stroke:#000000; stroke-width:4; stroke-opacity:1"/>
<line clip-path="url(#clip822)" x1="1652.26" y1="563.885" x2="1620.26" y2="563.885" style="stroke:#000000; stroke-width:4; stroke-opacity:1"/>
<line clip-path="url(#clip822)" x1="1809.05" y1="510.578" x2="1777.05" y2="510.578" style="stroke:#000000; stroke-width:4; stroke-opacity:1"/>
<line clip-path="url(#clip822)" x1="1809.05" y1="458.745" x2="1777.05" y2="458.745" style="stroke:#000000; stroke-width:4; stroke-opacity:1"/>
<line clip-path="url(#clip822)" x1="1930.67" y1="416.189" x2="1898.67" y2="416.189" style="stroke:#000000; stroke-width:4; stroke-opacity:1"/>
<line clip-path="url(#clip822)" x1="1930.67" y1="397.638" x2="1898.67" y2="397.638" style="stroke:#000000; stroke-width:4; stroke-opacity:1"/>
<line clip-path="url(#clip822)" x1="2030.03" y1="363.709" x2="1998.03" y2="363.709" style="stroke:#000000; stroke-width:4; stroke-opacity:1"/>
<line clip-path="url(#clip822)" x1="2030.03" y1="331.33" x2="1998.03" y2="331.33" style="stroke:#000000; stroke-width:4; stroke-opacity:1"/>
<line clip-path="url(#clip822)" x1="2114.05" y1="317.339" x2="2082.05" y2="317.339" style="stroke:#000000; stroke-width:4; stroke-opacity:1"/>
<line clip-path="url(#clip822)" x1="2114.05" y1="279.782" x2="2082.05" y2="279.782" style="stroke:#000000; stroke-width:4; stroke-opacity:1"/>
<line clip-path="url(#clip822)" x1="2186.82" y1="263.421" x2="2154.82" y2="263.421" style="stroke:#000000; stroke-width:4; stroke-opacity:1"/>
<line clip-path="url(#clip822)" x1="2186.82" y1="256.644" x2="2154.82" y2="256.644" style="stroke:#000000; stroke-width:4; stroke-opacity:1"/>
<line clip-path="url(#clip822)" x1="2251.02" y1="244.614" x2="2219.02" y2="244.614" style="stroke:#000000; stroke-width:4; stroke-opacity:1"/>
<line clip-path="url(#clip822)" x1="2251.02" y1="241.8" x2="2219.02" y2="241.8" style="stroke:#000000; stroke-width:4; stroke-opacity:1"/>
<line clip-path="url(#clip822)" x1="2308.44" y1="164.458" x2="2276.44" y2="164.458" style="stroke:#000000; stroke-width:4; stroke-opacity:1"/>
<line clip-path="url(#clip822)" x1="2308.44" y1="159.909" x2="2276.44" y2="159.909" style="stroke:#000000; stroke-width:4; stroke-opacity:1"/>
<circle clip-path="url(#clip822)" cx="281.952" cy="1350.39" r="14.4" fill="#ff0000" fill-rule="evenodd" fill-opacity="1" stroke="#000000" stroke-opacity="1" stroke-width="3.2"/>
<circle clip-path="url(#clip822)" cx="659.726" cy="1145.3" r="14.4" fill="#ff0000" fill-rule="evenodd" fill-opacity="1" stroke="#000000" stroke-opacity="1" stroke-width="3.2"/>
<circle clip-path="url(#clip822)" cx="1037.5" cy="920.201" r="14.4" fill="#ff0000" fill-rule="evenodd" fill-opacity="1" stroke="#000000" stroke-opacity="1" stroke-width="3.2"/>
<circle clip-path="url(#clip822)" cx="1415.28" cy="693.907" r="14.4" fill="#ff0000" fill-rule="evenodd" fill-opacity="1" stroke="#000000" stroke-opacity="1" stroke-width="3.2"/>
<circle clip-path="url(#clip822)" cx="1636.26" cy="583.38" r="14.4" fill="#ff0000" fill-rule="evenodd" fill-opacity="1" stroke="#000000" stroke-opacity="1" stroke-width="3.2"/>
<circle clip-path="url(#clip822)" cx="1793.05" cy="483.535" r="14.4" fill="#ff0000" fill-rule="evenodd" fill-opacity="1" stroke="#000000" stroke-opacity="1" stroke-width="3.2"/>
<circle clip-path="url(#clip822)" cx="1914.67" cy="406.769" r="14.4" fill="#ff0000" fill-rule="evenodd" fill-opacity="1" stroke="#000000" stroke-opacity="1" stroke-width="3.2"/>
<circle clip-path="url(#clip822)" cx="2014.03" cy="347.08" r="14.4" fill="#ff0000" fill-rule="evenodd" fill-opacity="1" stroke="#000000" stroke-opacity="1" stroke-width="3.2"/>
<circle clip-path="url(#clip822)" cx="2098.05" cy="297.969" r="14.4" fill="#ff0000" fill-rule="evenodd" fill-opacity="1" stroke="#000000" stroke-opacity="1" stroke-width="3.2"/>
<circle clip-path="url(#clip822)" cx="2170.82" cy="260.013" r="14.4" fill="#ff0000" fill-rule="evenodd" fill-opacity="1" stroke="#000000" stroke-opacity="1" stroke-width="3.2"/>
<circle clip-path="url(#clip822)" cx="2235.02" cy="243.203" r="14.4" fill="#ff0000" fill-rule="evenodd" fill-opacity="1" stroke="#000000" stroke-opacity="1" stroke-width="3.2"/>
<circle clip-path="url(#clip822)" cx="2292.44" cy="162.174" r="14.4" fill="#ff0000" fill-rule="evenodd" fill-opacity="1" stroke="#000000" stroke-opacity="1" stroke-width="3.2"/>
</svg>
