<?xml version="1.0" encoding="utf-8"?>
<svg xmlns="http://www.w3.org/2000/svg" xmlns:xlink="http://www.w3.org/1999/xlink" width="600" height="400" viewBox="0 0 2400 1600">
<defs>
  <clipPath id="clip980">
    <rect x="0" y="0" width="2400" height="1600"/>
  </clipPath>
</defs>
<path clip-path="url(#clip980)" d="M0 1600 L2400 1600 L2400 8.88178e-14 L0 8.88178e-14  Z" fill="#ffffff" fill-rule="evenodd" fill-opacity="1"/>
<defs>
  <clipPath id="clip981">
    <rect x="480" y="0" width="1681" height="1600"/>
  </clipPath>
</defs>
<path clip-path="url(#clip980)" d="M205.121 1423.18 L2352.76 1423.18 L2352.76 123.472 L205.121 123.472  Z" fill="#ffffff" fill-rule="evenodd" fill-opacity="1"/>
<defs>
  <clipPath id="clip982">
    <rect x="205" y="123" width="2149" height="1301"/>
  </clipPath>
</defs>
<polyline clip-path="url(#clip982)" style="stroke:#000000; stroke-linecap:round; stroke-linejoin:round; stroke-width:2; stroke-opacity:0.05; fill:none" points="317.854,1423.18 317.854,123.472 "/>
<polyline clip-path="url(#clip982)" style="stroke:#000000; stroke-linecap:round; stroke-linejoin:round; stroke-width:2; stroke-opacity:0.05; fill:none" points="421.755,1423.18 421.755,123.472 "/>
<polyline clip-path="url(#clip982)" style="stroke:#000000; stroke-linecap:round; stroke-linejoin:round; stroke-width:2; stroke-opacity:0.05; fill:none" points="525.656,1423.18 525.656,123.472 "/>
<polyline clip-path="url(#clip982)" style="stroke:#000000; stroke-linecap:round; stroke-linejoin:round; stroke-width:2; stroke-opacity:0.05; fill:none" points="629.557,1423.18 629.557,123.472 "/>
<polyline clip-path="url(#clip982)" style="stroke:#000000; stroke-linecap:round; stroke-linejoin:round; stroke-width:2; stroke-opacity:0.05; fill:none" points="837.359,1423.18 837.359,123.472 "/>
<polyline clip-path="url(#clip982)" style="stroke:#000000; stroke-linecap:round; stroke-linejoin:round; stroke-width:2; stroke-opacity:0.05; fill:none" points="941.26,1423.18 941.26,123.472 "/>
<polyline clip-path="url(#clip982)" style="stroke:#000000; stroke-linecap:round; stroke-linejoin:round; stroke-width:2; stroke-opacity:0.05; fill:none" points="1045.16,1423.18 1045.16,123.472 "/>
<polyline clip-path="url(#clip982)" style="stroke:#000000; stroke-linecap:round; stroke-linejoin:round; stroke-width:2; stroke-opacity:0.05; fill:none" points="1149.06,1423.18 1149.06,123.472 "/>
<polyline clip-path="url(#clip982)" style="stroke:#000000; stroke-linecap:round; stroke-linejoin:round; stroke-width:2; stroke-opacity:0.05; fill:none" points="1356.86,1423.18 1356.86,123.472 "/>
<polyline clip-path="url(#clip982)" style="stroke:#000000; stroke-linecap:round; stroke-linejoin:round; stroke-width:2; stroke-opacity:0.05; fill:none" points="1460.77,1423.18 1460.77,123.472 "/>
<polyline clip-path="url(#clip982)" style="stroke:#000000; stroke-linecap:round; stroke-linejoin:round; stroke-width:2; stroke-opacity:0.05; fill:none" points="1564.67,1423.18 1564.67,123.472 "/>
<polyline clip-path="url(#clip982)" style="stroke:#000000; stroke-linecap:round; stroke-linejoin:round; stroke-width:2; stroke-opacity:0.05; fill:none" points="1668.57,1423.18 1668.57,123.472 "/>
<polyline clip-path="url(#clip982)" style="stroke:#000000; stroke-linecap:round; stroke-linejoin:round; stroke-width:2; stroke-opacity:0.05; fill:none" points="1876.37,1423.18 1876.37,123.472 "/>
<polyline clip-path="url(#clip982)" style="stroke:#000000; stroke-linecap:round; stroke-linejoin:round; stroke-width:2; stroke-opacity:0.05; fill:none" points="1980.27,1423.18 1980.27,123.472 "/>
<polyline clip-path="url(#clip982)" style="stroke:#000000; stroke-linecap:round; stroke-linejoin:round; stroke-width:2; stroke-opacity:0.05; fill:none" points="2084.17,1423.18 2084.17,123.472 "/>
<polyline clip-path="url(#clip982)" style="stroke:#000000; stroke-linecap:round; stroke-linejoin:round; stroke-width:2; stroke-opacity:0.05; fill:none" points="2188.07,1423.18 2188.07,123.472 "/>
<polyline clip-path="url(#clip982)" style="stroke:#000000; stroke-linecap:round; stroke-linejoin:round; stroke-width:2; stroke-opacity:0.05; fill:none" points="205.121,1350.83 2352.76,1350.83 "/>
<polyline clip-path="url(#clip982)" style="stroke:#000000; stroke-linecap:round; stroke-linejoin:round; stroke-width:2; stroke-opacity:0.05; fill:none" points="205.121,1294.13 2352.76,1294.13 "/>
<polyline clip-path="url(#clip982)" style="stroke:#000000; stroke-linecap:round; stroke-linejoin:round; stroke-width:2; stroke-opacity:0.05; fill:none" points="205.121,1237.43 2352.76,1237.43 "/>
<polyline clip-path="url(#clip982)" style="stroke:#000000; stroke-linecap:round; stroke-linejoin:round; stroke-width:2; stroke-opacity:0.05; fill:none" points="205.121,1180.74 2352.76,1180.74 "/>
<polyline clip-path="url(#clip982)" style="stroke:#000000; stroke-linecap:round; stroke-linejoin:round; stroke-width:2; stroke-opacity:0.05; fill:none" points="205.121,1067.34 2352.76,1067.34 "/>
<polyline clip-path="url(#clip982)" style="stroke:#000000; stroke-linecap:round; stroke-linejoin:round; stroke-width:2; stroke-opacity:0.05; fill:none" points="205.121,1010.64 2352.76,1010.64 "/>
<polyline clip-path="url(#clip982)" style="stroke:#000000; stroke-linecap:round; stroke-linejoin:round; stroke-width:2; stroke-opacity:0.05; fill:none" points="205.121,953.947 2352.76,953.947 "/>
<polyline clip-path="url(#clip982)" style="stroke:#000000; stroke-linecap:round; stroke-linejoin:round; stroke-width:2; stroke-opacity:0.05; fill:none" points="205.121,897.25 2352.76,897.25 "/>
<polyline clip-path="url(#clip982)" style="stroke:#000000; stroke-linecap:round; stroke-linejoin:round; stroke-width:2; stroke-opacity:0.05; fill:none" points="205.121,783.856 2352.76,783.856 "/>
<polyline clip-path="url(#clip982)" style="stroke:#000000; stroke-linecap:round; stroke-linejoin:round; stroke-width:2; stroke-opacity:0.05; fill:none" points="205.121,727.159 2352.76,727.159 "/>
<polyline clip-path="url(#clip982)" style="stroke:#000000; stroke-linecap:round; stroke-linejoin:round; stroke-width:2; stroke-opacity:0.05; fill:none" points="205.121,670.462 2352.76,670.462 "/>
<polyline clip-path="url(#clip982)" style="stroke:#000000; stroke-linecap:round; stroke-linejoin:round; stroke-width:2; stroke-opacity:0.05; fill:none" points="205.121,613.765 2352.76,613.765 "/>
<polyline clip-path="url(#clip982)" style="stroke:#000000; stroke-linecap:round; stroke-linejoin:round; stroke-width:2; stroke-opacity:0.05; fill:none" points="205.121,500.371 2352.76,500.371 "/>
<polyline clip-path="url(#clip982)" style="stroke:#000000; stroke-linecap:round; stroke-linejoin:round; stroke-width:2; stroke-opacity:0.05; fill:none" points="205.121,443.674 2352.76,443.674 "/>
<polyline clip-path="url(#clip982)" style="stroke:#000000; stroke-linecap:round; stroke-linejoin:round; stroke-width:2; stroke-opacity:0.05; fill:none" points="205.121,386.976 2352.76,386.976 "/>
<polyline clip-path="url(#clip982)" style="stroke:#000000; stroke-linecap:round; stroke-linejoin:round; stroke-width:2; stroke-opacity:0.05; fill:none" points="205.121,330.279 2352.76,330.279 "/>
<polyline clip-path="url(#clip982)" style="stroke:#000000; stroke-linecap:round; stroke-linejoin:round; stroke-width:2; stroke-opacity:0.05; fill:none" points="205.121,216.885 2352.76,216.885 "/>
<polyline clip-path="url(#clip982)" style="stroke:#000000; stroke-linecap:round; stroke-linejoin:round; stroke-width:2; stroke-opacity:0.05; fill:none" points="205.121,160.188 2352.76,160.188 "/>
<polyline clip-path="url(#clip982)" style="stroke:#000000; stroke-linecap:round; stroke-linejoin:round; stroke-width:2; stroke-opacity:0.1; fill:none" points="213.953,1423.18 213.953,123.472 "/>
<polyline clip-path="url(#clip982)" style="stroke:#000000; stroke-linecap:round; stroke-linejoin:round; stroke-width:2; stroke-opacity:0.1; fill:none" points="733.458,1423.18 733.458,123.472 "/>
<polyline clip-path="url(#clip982)" style="stroke:#000000; stroke-linecap:round; stroke-linejoin:round; stroke-width:2; stroke-opacity:0.1; fill:none" points="1252.96,1423.18 1252.96,123.472 "/>
<polyline clip-path="url(#clip982)" style="stroke:#000000; stroke-linecap:round; stroke-linejoin:round; stroke-width:2; stroke-opacity:0.1; fill:none" points="1772.47,1423.18 1772.47,123.472 "/>
<polyline clip-path="url(#clip982)" style="stroke:#000000; stroke-linecap:round; stroke-linejoin:round; stroke-width:2; stroke-opacity:0.1; fill:none" points="2291.97,1423.18 2291.97,123.472 "/>
<polyline clip-path="url(#clip982)" style="stroke:#000000; stroke-linecap:round; stroke-linejoin:round; stroke-width:2; stroke-opacity:0.1; fill:none" points="205.121,1407.52 2352.76,1407.52 "/>
<polyline clip-path="url(#clip982)" style="stroke:#000000; stroke-linecap:round; stroke-linejoin:round; stroke-width:2; stroke-opacity:0.1; fill:none" points="205.121,1124.04 2352.76,1124.04 "/>
<polyline clip-path="url(#clip982)" style="stroke:#000000; stroke-linecap:round; stroke-linejoin:round; stroke-width:2; stroke-opacity:0.1; fill:none" points="205.121,840.553 2352.76,840.553 "/>
<polyline clip-path="url(#clip982)" style="stroke:#000000; stroke-linecap:round; stroke-linejoin:round; stroke-width:2; stroke-opacity:0.1; fill:none" points="205.121,557.068 2352.76,557.068 "/>
<polyline clip-path="url(#clip982)" style="stroke:#000000; stroke-linecap:round; stroke-linejoin:round; stroke-width:2; stroke-opacity:0.1; fill:none" points="205.121,273.582 2352.76,273.582 "/>
<polyline clip-path="url(#clip980)" style="stroke:#000000; stroke-linecap:round; stroke-linejoin:round; stroke-width:4; stroke-opacity:1; fill:none" points="205.121,1423.18 2352.76,1423.18 "/>
<polyline clip-path="url(#clip980)" style="stroke:#000000; stroke-linecap:round; stroke-linejoin:round; stroke-width:4; stroke-opacity:1; fill:none" points="213.953,1423.18 213.953,1404.28 "/>
<polyline clip-path="url(#clip980)" style="stroke:#000000; stroke-linecap:round; stroke-linejoin:round; stroke-width:4; stroke-opacity:1; fill:none" points="733.458,1423.18 733.458,1404.28 "/>
<polyline clip-path="url(#clip980)" style="stroke:#000000; stroke-linecap:round; stroke-linejoin:round; stroke-width:4; stroke-opacity:1; fill:none" points="1252.96,1423.18 1252.96,1404.28 "/>
<polyline clip-path="url(#clip980)" style="stroke:#000000; stroke-linecap:round; stroke-linejoin:round; stroke-width:4; stroke-opacity:1; fill:none" points="1772.47,1423.18 1772.47,1404.28 "/>
<polyline clip-path="url(#clip980)" style="stroke:#000000; stroke-linecap:round; stroke-linejoin:round; stroke-width:4; stroke-opacity:1; fill:none" points="2291.97,1423.18 2291.97,1404.28 "/>
<polyline clip-path="url(#clip980)" style="stroke:#000000; stroke-linecap:round; stroke-linejoin:round; stroke-width:4; stroke-opacity:1; fill:none" points="317.854,1423.18 317.854,1413.73 "/>
<polyline clip-path="url(#clip980)" style="stroke:#000000; stroke-linecap:round; stroke-linejoin:round; stroke-width:4; stroke-opacity:1; fill:none" points="421.755,1423.18 421.755,1413.73 "/>
<polyline clip-path="url(#clip980)" style="stroke:#000000; stroke-linecap:round; stroke-linejoin:round; stroke-width:4; stroke-opacity:1; fill:none" points="525.656,1423.18 525.656,1413.73 "/>
<polyline clip-path="url(#clip980)" style="stroke:#000000; stroke-linecap:round; stroke-linejoin:round; stroke-width:4; stroke-opacity:1; fill:none" points="629.557,1423.18 629.557,1413.73 "/>
<polyline clip-path="url(#clip980)" style="stroke:#000000; stroke-linecap:round; stroke-linejoin:round; stroke-width:4; stroke-opacity:1; fill:none" points="837.359,1423.18 837.359,1413.73 "/>
<polyline clip-path="url(#clip980)" style="stroke:#000000; stroke-linecap:round; stroke-linejoin:round; stroke-width:4; stroke-opacity:1; fill:none" points="941.26,1423.18 941.26,1413.73 "/>
<polyline clip-path="url(#clip980)" style="stroke:#000000; stroke-linecap:round; stroke-linejoin:round; stroke-width:4; stroke-opacity:1; fill:none" points="1045.16,1423.18 1045.16,1413.73 "/>
<polyline clip-path="url(#clip980)" style="stroke:#000000; stroke-linecap:round; stroke-linejoin:round; stroke-width:4; stroke-opacity:1; fill:none" points="1149.06,1423.18 1149.06,1413.73 "/>
<polyline clip-path="url(#clip980)" style="stroke:#000000; stroke-linecap:round; stroke-linejoin:round; stroke-width:4; stroke-opacity:1; fill:none" points="1356.86,1423.18 1356.86,1413.73 "/>
<polyline clip-path="url(#clip980)" style="stroke:#000000; stroke-linecap:round; stroke-linejoin:round; stroke-width:4; stroke-opacity:1; fill:none" points="1460.77,1423.18 1460.77,1413.73 "/>
<polyline clip-path="url(#clip980)" style="stroke:#000000; stroke-linecap:round; stroke-linejoin:round; stroke-width:4; stroke-opacity:1; fill:none" points="1564.67,1423.18 1564.67,1413.73 "/>
<polyline clip-path="url(#clip980)" style="stroke:#000000; stroke-linecap:round; stroke-linejoin:round; stroke-width:4; stroke-opacity:1; fill:none" points="1668.57,1423.18 1668.57,1413.73 "/>
<polyline clip-path="url(#clip980)" style="stroke:#000000; stroke-linecap:round; stroke-linejoin:round; stroke-width:4; stroke-opacity:1; fill:none" points="1876.37,1423.18 1876.37,1413.73 "/>
<polyline clip-path="url(#clip980)" style="stroke:#000000; stroke-linecap:round; stroke-linejoin:round; stroke-width:4; stroke-opacity:1; fill:none" points="1980.27,1423.18 1980.27,1413.73 "/>
<polyline clip-path="url(#clip980)" style="stroke:#000000; stroke-linecap:round; stroke-linejoin:round; stroke-width:4; stroke-opacity:1; fill:none" points="2084.17,1423.18 2084.17,1413.73 "/>
<polyline clip-path="url(#clip980)" style="stroke:#000000; stroke-linecap:round; stroke-linejoin:round; stroke-width:4; stroke-opacity:1; fill:none" points="2188.07,1423.18 2188.07,1413.73 "/>
<path clip-path="url(#clip980)" d="M213.953 1454.1 Q210.341 1454.1 208.513 1457.66 Q206.707 1461.2 206.707 1468.33 Q206.707 1475.44 208.513 1479.01 Q210.341 1482.55 213.953 1482.55 Q217.587 1482.55 219.392 1479.01 Q221.221 1475.44 221.221 1468.33 Q221.221 1461.2 219.392 1457.66 Q217.587 1454.1 213.953 1454.1 M213.953 1450.39 Q219.763 1450.39 222.818 1455 Q225.897 1459.58 225.897 1468.33 Q225.897 1477.06 222.818 1481.67 Q219.763 1486.25 213.953 1486.25 Q208.142 1486.25 205.064 1481.67 Q202.008 1477.06 202.008 1468.33 Q202.008 1459.58 205.064 1455 Q208.142 1450.39 213.953 1450.39 Z" fill="#000000" fill-rule="nonzero" fill-opacity="1" /><path clip-path="url(#clip980)" d="M697.15 1481.64 L713.47 1481.64 L713.47 1485.58 L691.525 1485.58 L691.525 1481.64 Q694.187 1478.89 698.771 1474.26 Q703.377 1469.61 704.558 1468.27 Q706.803 1465.74 707.683 1464.01 Q708.585 1462.25 708.585 1460.56 Q708.585 1457.8 706.641 1456.07 Q704.72 1454.33 701.618 1454.33 Q699.419 1454.33 696.965 1455.09 Q694.534 1455.86 691.757 1457.41 L691.757 1452.69 Q694.581 1451.55 697.034 1450.97 Q699.488 1450.39 701.525 1450.39 Q706.896 1450.39 710.09 1453.08 Q713.284 1455.77 713.284 1460.26 Q713.284 1462.39 712.474 1464.31 Q711.687 1466.2 709.581 1468.8 Q709.002 1469.47 705.9 1472.69 Q702.798 1475.88 697.15 1481.64 Z" fill="#000000" fill-rule="nonzero" fill-opacity="1" /><path clip-path="url(#clip980)" d="M723.331 1451.02 L741.687 1451.02 L741.687 1454.96 L727.613 1454.96 L727.613 1463.43 Q728.632 1463.08 729.65 1462.92 Q730.669 1462.73 731.687 1462.73 Q737.474 1462.73 740.854 1465.9 Q744.233 1469.08 744.233 1474.49 Q744.233 1480.07 740.761 1483.17 Q737.289 1486.25 730.969 1486.25 Q728.794 1486.25 726.525 1485.88 Q724.28 1485.51 721.872 1484.77 L721.872 1480.07 Q723.956 1481.2 726.178 1481.76 Q728.4 1482.32 730.877 1482.32 Q734.881 1482.32 737.219 1480.21 Q739.557 1478.1 739.557 1474.49 Q739.557 1470.88 737.219 1468.77 Q734.881 1466.67 730.877 1466.67 Q729.002 1466.67 727.127 1467.08 Q725.275 1467.5 723.331 1468.38 L723.331 1451.02 Z" fill="#000000" fill-rule="nonzero" fill-opacity="1" /><path clip-path="url(#clip980)" d="M763.446 1454.1 Q759.835 1454.1 758.006 1457.66 Q756.201 1461.2 756.201 1468.33 Q756.201 1475.44 758.006 1479.01 Q759.835 1482.55 763.446 1482.55 Q767.08 1482.55 768.886 1479.01 Q770.715 1475.44 770.715 1468.33 Q770.715 1461.2 768.886 1457.66 Q767.08 1454.1 763.446 1454.1 M763.446 1450.39 Q769.256 1450.39 772.312 1455 Q775.391 1459.58 775.391 1468.33 Q775.391 1477.06 772.312 1481.67 Q769.256 1486.25 763.446 1486.25 Q757.636 1486.25 754.557 1481.67 Q751.502 1477.06 751.502 1468.33 Q751.502 1459.58 754.557 1455 Q757.636 1450.39 763.446 1450.39 Z" fill="#000000" fill-rule="nonzero" fill-opacity="1" /><path clip-path="url(#clip980)" d="M1212.58 1451.02 L1230.94 1451.02 L1230.94 1454.96 L1216.86 1454.96 L1216.86 1463.43 Q1217.88 1463.08 1218.9 1462.92 Q1219.92 1462.73 1220.94 1462.73 Q1226.72 1462.73 1230.1 1465.9 Q1233.48 1469.08 1233.48 1474.49 Q1233.48 1480.07 1230.01 1483.17 Q1226.54 1486.25 1220.22 1486.25 Q1218.04 1486.25 1215.78 1485.88 Q1213.53 1485.51 1211.12 1484.77 L1211.12 1480.07 Q1213.21 1481.2 1215.43 1481.76 Q1217.65 1482.32 1220.13 1482.32 Q1224.13 1482.32 1226.47 1480.21 Q1228.81 1478.1 1228.81 1474.49 Q1228.81 1470.88 1226.47 1468.77 Q1224.13 1466.67 1220.13 1466.67 Q1218.25 1466.67 1216.38 1467.08 Q1214.53 1467.5 1212.58 1468.38 L1212.58 1451.02 Z" fill="#000000" fill-rule="nonzero" fill-opacity="1" /><path clip-path="url(#clip980)" d="M1252.7 1454.1 Q1249.09 1454.1 1247.26 1457.66 Q1245.45 1461.2 1245.45 1468.33 Q1245.45 1475.44 1247.26 1479.01 Q1249.09 1482.55 1252.7 1482.55 Q1256.33 1482.55 1258.14 1479.01 Q1259.97 1475.44 1259.97 1468.33 Q1259.97 1461.2 1258.14 1457.66 Q1256.33 1454.1 1252.7 1454.1 M1252.7 1450.39 Q1258.51 1450.39 1261.56 1455 Q1264.64 1459.58 1264.64 1468.33 Q1264.64 1477.06 1261.56 1481.67 Q1258.51 1486.25 1252.7 1486.25 Q1246.89 1486.25 1243.81 1481.67 Q1240.75 1477.06 1240.75 1468.33 Q1240.75 1459.58 1243.81 1455 Q1246.89 1450.39 1252.7 1450.39 Z" fill="#000000" fill-rule="nonzero" fill-opacity="1" /><path clip-path="url(#clip980)" d="M1282.86 1454.1 Q1279.25 1454.1 1277.42 1457.66 Q1275.61 1461.2 1275.61 1468.33 Q1275.61 1475.44 1277.42 1479.01 Q1279.25 1482.55 1282.86 1482.55 Q1286.49 1482.55 1288.3 1479.01 Q1290.13 1475.44 1290.13 1468.33 Q1290.13 1461.2 1288.3 1457.66 Q1286.49 1454.1 1282.86 1454.1 M1282.86 1450.39 Q1288.67 1450.39 1291.72 1455 Q1294.8 1459.58 1294.8 1468.33 Q1294.8 1477.06 1291.72 1481.67 Q1288.67 1486.25 1282.86 1486.25 Q1277.05 1486.25 1273.97 1481.67 Q1270.91 1477.06 1270.91 1468.33 Q1270.91 1459.58 1273.97 1455 Q1277.05 1450.39 1282.86 1450.39 Z" fill="#000000" fill-rule="nonzero" fill-opacity="1" /><path clip-path="url(#clip980)" d="M1730.74 1451.02 L1752.97 1451.02 L1752.97 1453.01 L1740.42 1485.58 L1735.54 1485.58 L1747.34 1454.96 L1730.74 1454.96 L1730.74 1451.02 Z" fill="#000000" fill-rule="nonzero" fill-opacity="1" /><path clip-path="url(#clip980)" d="M1762.13 1451.02 L1780.49 1451.02 L1780.49 1454.96 L1766.42 1454.96 L1766.42 1463.43 Q1767.43 1463.08 1768.45 1462.92 Q1769.47 1462.73 1770.49 1462.73 Q1776.28 1462.73 1779.66 1465.9 Q1783.04 1469.08 1783.04 1474.49 Q1783.04 1480.07 1779.56 1483.17 Q1776.09 1486.25 1769.77 1486.25 Q1767.6 1486.25 1765.33 1485.88 Q1763.08 1485.51 1760.67 1484.77 L1760.67 1480.07 Q1762.76 1481.2 1764.98 1481.76 Q1767.2 1482.32 1769.68 1482.32 Q1773.68 1482.32 1776.02 1480.21 Q1778.36 1478.1 1778.36 1474.49 Q1778.36 1470.88 1776.02 1468.77 Q1773.68 1466.67 1769.68 1466.67 Q1767.8 1466.67 1765.93 1467.08 Q1764.08 1467.5 1762.13 1468.38 L1762.13 1451.02 Z" fill="#000000" fill-rule="nonzero" fill-opacity="1" /><path clip-path="url(#clip980)" d="M1802.25 1454.1 Q1798.64 1454.1 1796.81 1457.66 Q1795 1461.2 1795 1468.33 Q1795 1475.44 1796.81 1479.01 Q1798.64 1482.55 1802.25 1482.55 Q1805.88 1482.55 1807.69 1479.01 Q1809.52 1475.44 1809.52 1468.33 Q1809.52 1461.2 1807.69 1457.66 Q1805.88 1454.1 1802.25 1454.1 M1802.25 1450.39 Q1808.06 1450.39 1811.11 1455 Q1814.19 1459.58 1814.19 1468.33 Q1814.19 1477.06 1811.11 1481.67 Q1808.06 1486.25 1802.25 1486.25 Q1796.44 1486.25 1793.36 1481.67 Q1790.3 1477.06 1790.3 1468.33 Q1790.3 1459.58 1793.36 1455 Q1796.44 1450.39 1802.25 1450.39 Z" fill="#000000" fill-rule="nonzero" fill-opacity="1" /><path clip-path="url(#clip980)" d="M2236.5 1481.64 L2244.14 1481.64 L2244.14 1455.28 L2235.83 1456.95 L2235.83 1452.69 L2244.09 1451.02 L2248.77 1451.02 L2248.77 1481.64 L2256.41 1481.64 L2256.41 1485.58 L2236.5 1485.58 L2236.5 1481.64 Z" fill="#000000" fill-rule="nonzero" fill-opacity="1" /><path clip-path="url(#clip980)" d="M2275.85 1454.1 Q2272.24 1454.1 2270.41 1457.66 Q2268.61 1461.2 2268.61 1468.33 Q2268.61 1475.44 2270.41 1479.01 Q2272.24 1482.55 2275.85 1482.55 Q2279.49 1482.55 2281.29 1479.01 Q2283.12 1475.44 2283.12 1468.33 Q2283.12 1461.2 2281.29 1457.66 Q2279.49 1454.1 2275.85 1454.1 M2275.85 1450.39 Q2281.66 1450.39 2284.72 1455 Q2287.8 1459.58 2287.8 1468.33 Q2287.8 1477.06 2284.72 1481.67 Q2281.66 1486.25 2275.85 1486.25 Q2270.04 1486.25 2266.96 1481.67 Q2263.91 1477.06 2263.91 1468.33 Q2263.91 1459.58 2266.96 1455 Q2270.04 1450.39 2275.85 1450.39 Z" fill="#000000" fill-rule="nonzero" fill-opacity="1" /><path clip-path="url(#clip980)" d="M2306.01 1454.1 Q2302.4 1454.1 2300.57 1457.66 Q2298.77 1461.2 2298.77 1468.33 Q2298.77 1475.44 2300.57 1479.01 Q2302.4 1482.55 2306.01 1482.55 Q2309.65 1482.55 2311.45 1479.01 Q2313.28 1475.44 2313.28 1468.33 Q2313.28 1461.2 2311.45 1457.66 Q2309.65 1454.1 2306.01 1454.1 M2306.01 1450.39 Q2311.82 1450.39 2314.88 1455 Q2317.96 1459.58 2317.96 1468.33 Q2317.96 1477.06 2314.88 1481.67 Q2311.82 1486.25 2306.01 1486.25 Q2300.2 1486.25 2297.12 1481.67 Q2294.07 1477.06 2294.07 1468.33 Q2294.07 1459.58 2297.12 1455 Q2300.2 1450.39 2306.01 1450.39 Z" fill="#000000" fill-rule="nonzero" fill-opacity="1" /><path clip-path="url(#clip980)" d="M2336.17 1454.1 Q2332.56 1454.1 2330.74 1457.66 Q2328.93 1461.2 2328.93 1468.33 Q2328.93 1475.44 2330.74 1479.01 Q2332.56 1482.55 2336.17 1482.55 Q2339.81 1482.55 2341.61 1479.01 Q2343.44 1475.44 2343.44 1468.33 Q2343.44 1461.2 2341.61 1457.66 Q2339.81 1454.1 2336.17 1454.1 M2336.17 1450.39 Q2341.99 1450.39 2345.04 1455 Q2348.12 1459.58 2348.12 1468.33 Q2348.12 1477.06 2345.04 1481.67 Q2341.99 1486.25 2336.17 1486.25 Q2330.36 1486.25 2327.29 1481.67 Q2324.23 1477.06 2324.23 1468.33 Q2324.23 1459.58 2327.29 1455 Q2330.36 1450.39 2336.17 1450.39 Z" fill="#000000" fill-rule="nonzero" fill-opacity="1" /><path clip-path="url(#clip980)" d="M998.004 1522.27 L998.004 1532.4 L1010.07 1532.4 L1010.07 1536.95 L998.004 1536.95 L998.004 1556.3 Q998.004 1560.66 999.182 1561.9 Q1000.39 1563.14 1004.05 1563.14 L1010.07 1563.14 L1010.07 1568.04 L1004.05 1568.04 Q997.272 1568.04 994.694 1565.53 Q992.116 1562.98 992.116 1556.3 L992.116 1536.95 L987.819 1536.95 L987.819 1532.4 L992.116 1532.4 L992.116 1522.27 L998.004 1522.27 Z" fill="#000000" fill-rule="nonzero" fill-opacity="1" /><path clip-path="url(#clip980)" d="M1017.77 1532.4 L1023.63 1532.4 L1023.63 1568.04 L1017.77 1568.04 L1017.77 1532.4 M1017.77 1518.52 L1023.63 1518.52 L1023.63 1525.93 L1017.77 1525.93 L1017.77 1518.52 Z" fill="#000000" fill-rule="nonzero" fill-opacity="1" /><path clip-path="url(#clip980)" d="M1063.63 1539.24 Q1065.83 1535.29 1068.89 1533.41 Q1071.94 1531.54 1076.08 1531.54 Q1081.65 1531.54 1084.67 1535.45 Q1087.7 1539.33 1087.7 1546.53 L1087.7 1568.04 L1081.81 1568.04 L1081.81 1546.72 Q1081.81 1541.59 1079.99 1539.11 Q1078.18 1536.63 1074.46 1536.63 Q1069.9 1536.63 1067.26 1539.65 Q1064.62 1542.68 1064.62 1547.9 L1064.62 1568.04 L1058.73 1568.04 L1058.73 1546.72 Q1058.73 1541.56 1056.92 1539.11 Q1055.1 1536.63 1051.32 1536.63 Q1046.83 1536.63 1044.19 1539.68 Q1041.55 1542.71 1041.55 1547.9 L1041.55 1568.04 L1035.66 1568.04 L1035.66 1532.4 L1041.55 1532.4 L1041.55 1537.93 Q1043.55 1534.66 1046.35 1533.1 Q1049.15 1531.54 1053 1531.54 Q1056.89 1531.54 1059.59 1533.51 Q1062.33 1535.48 1063.63 1539.24 Z" fill="#000000" fill-rule="nonzero" fill-opacity="1" /><path clip-path="url(#clip980)" d="M1129.87 1548.76 L1129.87 1551.62 L1102.94 1551.62 Q1103.32 1557.67 1106.57 1560.85 Q1109.85 1564 1115.67 1564 Q1119.05 1564 1122.2 1563.17 Q1125.38 1562.35 1128.5 1560.69 L1128.5 1566.23 Q1125.35 1567.57 1122.04 1568.27 Q1118.73 1568.97 1115.32 1568.97 Q1106.79 1568.97 1101.8 1564 Q1096.83 1559.04 1096.83 1550.57 Q1096.83 1541.82 1101.54 1536.69 Q1106.28 1531.54 1114.31 1531.54 Q1121.5 1531.54 1125.67 1536.18 Q1129.87 1540.8 1129.87 1548.76 M1124.01 1547.04 Q1123.95 1542.23 1121.31 1539.37 Q1118.7 1536.5 1114.37 1536.5 Q1109.47 1536.5 1106.51 1539.27 Q1103.58 1542.04 1103.13 1547.07 L1124.01 1547.04 Z" fill="#000000" fill-rule="nonzero" fill-opacity="1" /><path clip-path="url(#clip980)" d="M1182.93 1533.45 L1182.93 1538.98 Q1180.45 1537.71 1177.77 1537.07 Q1175.1 1536.44 1172.23 1536.44 Q1167.87 1536.44 1165.68 1537.77 Q1163.51 1539.11 1163.51 1541.79 Q1163.51 1543.82 1165.07 1545 Q1166.63 1546.15 1171.34 1547.2 L1173.35 1547.64 Q1179.59 1548.98 1182.2 1551.43 Q1184.84 1553.85 1184.84 1558.21 Q1184.84 1563.17 1180.89 1566.07 Q1176.98 1568.97 1170.1 1568.97 Q1167.24 1568.97 1164.12 1568.39 Q1161.03 1567.85 1157.59 1566.74 L1157.59 1560.69 Q1160.84 1562.38 1163.99 1563.24 Q1167.14 1564.07 1170.23 1564.07 Q1174.37 1564.07 1176.59 1562.66 Q1178.82 1561.23 1178.82 1558.65 Q1178.82 1556.27 1177.2 1554.99 Q1175.61 1553.72 1170.16 1552.54 L1168.13 1552.07 Q1162.68 1550.92 1160.27 1548.56 Q1157.85 1546.18 1157.85 1542.04 Q1157.85 1537.01 1161.41 1534.27 Q1164.98 1531.54 1171.53 1531.54 Q1174.78 1531.54 1177.64 1532.01 Q1180.51 1532.49 1182.93 1533.45 Z" fill="#000000" fill-rule="nonzero" fill-opacity="1" /><path clip-path="url(#clip980)" d="M1224.65 1548.76 L1224.65 1551.62 L1197.73 1551.62 Q1198.11 1557.67 1201.36 1560.85 Q1204.63 1564 1210.46 1564 Q1213.83 1564 1216.98 1563.17 Q1220.17 1562.35 1223.29 1560.69 L1223.29 1566.23 Q1220.14 1567.57 1216.83 1568.27 Q1213.51 1568.97 1210.11 1568.97 Q1201.58 1568.97 1196.58 1564 Q1191.62 1559.04 1191.62 1550.57 Q1191.62 1541.82 1196.33 1536.69 Q1201.07 1531.54 1209.09 1531.54 Q1216.28 1531.54 1220.45 1536.18 Q1224.65 1540.8 1224.65 1548.76 M1218.8 1547.04 Q1218.73 1542.23 1216.09 1539.37 Q1213.48 1536.5 1209.15 1536.5 Q1204.25 1536.5 1201.29 1539.27 Q1198.36 1542.04 1197.92 1547.07 L1218.8 1547.04 Z" fill="#000000" fill-rule="nonzero" fill-opacity="1" /><path clip-path="url(#clip980)" d="M1254.92 1537.87 Q1253.94 1537.3 1252.76 1537.04 Q1251.61 1536.76 1250.21 1536.76 Q1245.25 1536.76 1242.57 1540 Q1239.93 1543.22 1239.93 1549.27 L1239.93 1568.04 L1234.04 1568.04 L1234.04 1532.4 L1239.93 1532.4 L1239.93 1537.93 Q1241.78 1534.69 1244.74 1533.13 Q1247.7 1531.54 1251.93 1531.54 Q1252.54 1531.54 1253.27 1531.63 Q1254 1531.7 1254.89 1531.85 L1254.92 1537.87 Z" fill="#000000" fill-rule="nonzero" fill-opacity="1" /><path clip-path="url(#clip980)" d="M1261.07 1532.4 L1266.92 1532.4 L1266.92 1568.04 L1261.07 1568.04 L1261.07 1532.4 M1261.07 1518.52 L1266.92 1518.52 L1266.92 1525.93 L1261.07 1525.93 L1261.07 1518.52 Z" fill="#000000" fill-rule="nonzero" fill-opacity="1" /><path clip-path="url(#clip980)" d="M1309.67 1548.76 L1309.67 1551.62 L1282.74 1551.62 Q1283.12 1557.67 1286.37 1560.85 Q1289.65 1564 1295.47 1564 Q1298.85 1564 1302 1563.17 Q1305.18 1562.35 1308.3 1560.69 L1308.3 1566.23 Q1305.15 1567.57 1301.84 1568.27 Q1298.53 1568.97 1295.12 1568.97 Q1286.59 1568.97 1281.6 1564 Q1276.63 1559.04 1276.63 1550.57 Q1276.63 1541.82 1281.34 1536.69 Q1286.08 1531.54 1294.1 1531.54 Q1301.3 1531.54 1305.47 1536.18 Q1309.67 1540.8 1309.67 1548.76 M1303.81 1547.04 Q1303.75 1542.23 1301.11 1539.37 Q1298.5 1536.5 1294.17 1536.5 Q1289.27 1536.5 1286.31 1539.27 Q1283.38 1542.04 1282.93 1547.07 L1303.81 1547.04 Z" fill="#000000" fill-rule="nonzero" fill-opacity="1" /><path clip-path="url(#clip980)" d="M1342.01 1533.45 L1342.01 1538.98 Q1339.52 1537.71 1336.85 1537.07 Q1334.18 1536.44 1331.31 1536.44 Q1326.95 1536.44 1324.76 1537.77 Q1322.59 1539.11 1322.59 1541.79 Q1322.59 1543.82 1324.15 1545 Q1325.71 1546.15 1330.42 1547.2 L1332.43 1547.64 Q1338.66 1548.98 1341.27 1551.43 Q1343.92 1553.85 1343.92 1558.21 Q1343.92 1563.17 1339.97 1566.07 Q1336.05 1568.97 1329.18 1568.97 Q1326.32 1568.97 1323.2 1568.39 Q1320.11 1567.85 1316.67 1566.74 L1316.67 1560.69 Q1319.92 1562.38 1323.07 1563.24 Q1326.22 1564.07 1329.31 1564.07 Q1333.44 1564.07 1335.67 1562.66 Q1337.9 1561.23 1337.9 1558.65 Q1337.9 1556.27 1336.28 1554.99 Q1334.69 1553.72 1329.24 1552.54 L1327.21 1552.07 Q1321.76 1550.92 1319.34 1548.56 Q1316.93 1546.18 1316.93 1542.04 Q1316.93 1537.01 1320.49 1534.27 Q1324.06 1531.54 1330.61 1531.54 Q1333.86 1531.54 1336.72 1532.01 Q1339.59 1532.49 1342.01 1533.45 Z" fill="#000000" fill-rule="nonzero" fill-opacity="1" /><path clip-path="url(#clip980)" d="M1373.96 1518.52 L1379.82 1518.52 L1379.82 1568.04 L1373.96 1568.04 L1373.96 1518.52 Z" fill="#000000" fill-rule="nonzero" fill-opacity="1" /><path clip-path="url(#clip980)" d="M1422.56 1548.76 L1422.56 1551.62 L1395.64 1551.62 Q1396.02 1557.67 1399.27 1560.85 Q1402.54 1564 1408.37 1564 Q1411.74 1564 1414.89 1563.17 Q1418.08 1562.35 1421.2 1560.69 L1421.2 1566.23 Q1418.05 1567.57 1414.73 1568.27 Q1411.42 1568.97 1408.02 1568.97 Q1399.49 1568.97 1394.49 1564 Q1389.53 1559.04 1389.53 1550.57 Q1389.53 1541.82 1394.24 1536.69 Q1398.98 1531.54 1407 1531.54 Q1414.19 1531.54 1418.36 1536.18 Q1422.56 1540.8 1422.56 1548.76 M1416.71 1547.04 Q1416.64 1542.23 1414 1539.37 Q1411.39 1536.5 1407.06 1536.5 Q1402.16 1536.5 1399.2 1539.27 Q1396.27 1542.04 1395.83 1547.07 L1416.71 1547.04 Z" fill="#000000" fill-rule="nonzero" fill-opacity="1" /><path clip-path="url(#clip980)" d="M1461.81 1546.53 L1461.81 1568.04 L1455.95 1568.04 L1455.95 1546.72 Q1455.95 1541.66 1453.98 1539.14 Q1452.01 1536.63 1448.06 1536.63 Q1443.32 1536.63 1440.58 1539.65 Q1437.84 1542.68 1437.84 1547.9 L1437.84 1568.04 L1431.95 1568.04 L1431.95 1532.4 L1437.84 1532.4 L1437.84 1537.93 Q1439.94 1534.72 1442.78 1533.13 Q1445.64 1531.54 1449.36 1531.54 Q1455.51 1531.54 1458.66 1535.36 Q1461.81 1539.14 1461.81 1546.53 Z" fill="#000000" fill-rule="nonzero" fill-opacity="1" /><path clip-path="url(#clip980)" d="M1496.95 1549.81 Q1496.95 1543.44 1494.31 1539.94 Q1491.7 1536.44 1486.95 1536.44 Q1482.24 1536.44 1479.6 1539.94 Q1476.99 1543.44 1476.99 1549.81 Q1476.99 1556.14 1479.6 1559.64 Q1482.24 1563.14 1486.95 1563.14 Q1491.7 1563.14 1494.31 1559.64 Q1496.95 1556.14 1496.95 1549.81 M1502.8 1563.62 Q1502.8 1572.72 1498.76 1577.15 Q1494.72 1581.6 1486.38 1581.6 Q1483.29 1581.6 1480.56 1581.13 Q1477.82 1580.68 1475.24 1579.72 L1475.24 1574.03 Q1477.82 1575.43 1480.33 1576.1 Q1482.85 1576.76 1485.46 1576.76 Q1491.22 1576.76 1494.08 1573.74 Q1496.95 1570.75 1496.95 1564.67 L1496.95 1561.77 Q1495.13 1564.92 1492.3 1566.48 Q1489.47 1568.04 1485.52 1568.04 Q1478.96 1568.04 1474.95 1563.05 Q1470.94 1558.05 1470.94 1549.81 Q1470.94 1541.53 1474.95 1536.53 Q1478.96 1531.54 1485.52 1531.54 Q1489.47 1531.54 1492.3 1533.1 Q1495.13 1534.66 1496.95 1537.81 L1496.95 1532.4 L1502.8 1532.4 L1502.8 1563.62 Z" fill="#000000" fill-rule="nonzero" fill-opacity="1" /><path clip-path="url(#clip980)" d="M1520.66 1522.27 L1520.66 1532.4 L1532.72 1532.4 L1532.72 1536.95 L1520.66 1536.95 L1520.66 1556.3 Q1520.66 1560.66 1521.84 1561.9 Q1523.05 1563.14 1526.71 1563.14 L1532.72 1563.14 L1532.72 1568.04 L1526.71 1568.04 Q1519.93 1568.04 1517.35 1565.53 Q1514.77 1562.98 1514.77 1556.3 L1514.77 1536.95 L1510.48 1536.95 L1510.48 1532.4 L1514.77 1532.4 L1514.77 1522.27 L1520.66 1522.27 Z" fill="#000000" fill-rule="nonzero" fill-opacity="1" /><path clip-path="url(#clip980)" d="M1570.06 1546.53 L1570.06 1568.04 L1564.2 1568.04 L1564.2 1546.72 Q1564.2 1541.66 1562.23 1539.14 Q1560.25 1536.63 1556.31 1536.63 Q1551.57 1536.63 1548.83 1539.65 Q1546.09 1542.68 1546.09 1547.9 L1546.09 1568.04 L1540.2 1568.04 L1540.2 1518.52 L1546.09 1518.52 L1546.09 1537.93 Q1548.19 1534.72 1551.02 1533.13 Q1553.89 1531.54 1557.61 1531.54 Q1563.76 1531.54 1566.91 1535.36 Q1570.06 1539.14 1570.06 1546.53 Z" fill="#000000" fill-rule="nonzero" fill-opacity="1" /><polyline clip-path="url(#clip980)" style="stroke:#000000; stroke-linecap:round; stroke-linejoin:round; stroke-width:4; stroke-opacity:1; fill:none" points="205.121,1423.18 205.121,123.472 "/>
<polyline clip-path="url(#clip980)" style="stroke:#000000; stroke-linecap:round; stroke-linejoin:round; stroke-width:4; stroke-opacity:1; fill:none" points="205.121,1407.52 224.019,1407.52 "/>
<polyline clip-path="url(#clip980)" style="stroke:#000000; stroke-linecap:round; stroke-linejoin:round; stroke-width:4; stroke-opacity:1; fill:none" points="205.121,1124.04 224.019,1124.04 "/>
<polyline clip-path="url(#clip980)" style="stroke:#000000; stroke-linecap:round; stroke-linejoin:round; stroke-width:4; stroke-opacity:1; fill:none" points="205.121,840.553 224.019,840.553 "/>
<polyline clip-path="url(#clip980)" style="stroke:#000000; stroke-linecap:round; stroke-linejoin:round; stroke-width:4; stroke-opacity:1; fill:none" points="205.121,557.068 224.019,557.068 "/>
<polyline clip-path="url(#clip980)" style="stroke:#000000; stroke-linecap:round; stroke-linejoin:round; stroke-width:4; stroke-opacity:1; fill:none" points="205.121,273.582 224.019,273.582 "/>
<polyline clip-path="url(#clip980)" style="stroke:#000000; stroke-linecap:round; stroke-linejoin:round; stroke-width:4; stroke-opacity:1; fill:none" points="205.121,1350.83 214.57,1350.83 "/>
<polyline clip-path="url(#clip980)" style="stroke:#000000; stroke-linecap:round; stroke-linejoin:round; stroke-width:4; stroke-opacity:1; fill:none" points="205.121,1294.13 214.57,1294.13 "/>
<polyline clip-path="url(#clip980)" style="stroke:#000000; stroke-linecap:round; stroke-linejoin:round; stroke-width:4; stroke-opacity:1; fill:none" points="205.121,1237.43 214.57,1237.43 "/>
<polyline clip-path="url(#clip980)" style="stroke:#000000; stroke-linecap:round; stroke-linejoin:round; stroke-width:4; stroke-opacity:1; fill:none" points="205.121,1180.74 214.57,1180.74 "/>
<polyline clip-path="url(#clip980)" style="stroke:#000000; stroke-linecap:round; stroke-linejoin:round; stroke-width:4; stroke-opacity:1; fill:none" points="205.121,1067.34 214.57,1067.34 "/>
<polyline clip-path="url(#clip980)" style="stroke:#000000; stroke-linecap:round; stroke-linejoin:round; stroke-width:4; stroke-opacity:1; fill:none" points="205.121,1010.64 214.57,1010.64 "/>
<polyline clip-path="url(#clip980)" style="stroke:#000000; stroke-linecap:round; stroke-linejoin:round; stroke-width:4; stroke-opacity:1; fill:none" points="205.121,953.947 214.57,953.947 "/>
<polyline clip-path="url(#clip980)" style="stroke:#000000; stroke-linecap:round; stroke-linejoin:round; stroke-width:4; stroke-opacity:1; fill:none" points="205.121,897.25 214.57,897.25 "/>
<polyline clip-path="url(#clip980)" style="stroke:#000000; stroke-linecap:round; stroke-linejoin:round; stroke-width:4; stroke-opacity:1; fill:none" points="205.121,783.856 214.57,783.856 "/>
<polyline clip-path="url(#clip980)" style="stroke:#000000; stroke-linecap:round; stroke-linejoin:round; stroke-width:4; stroke-opacity:1; fill:none" points="205.121,727.159 214.57,727.159 "/>
<polyline clip-path="url(#clip980)" style="stroke:#000000; stroke-linecap:round; stroke-linejoin:round; stroke-width:4; stroke-opacity:1; fill:none" points="205.121,670.462 214.57,670.462 "/>
<polyline clip-path="url(#clip980)" style="stroke:#000000; stroke-linecap:round; stroke-linejoin:round; stroke-width:4; stroke-opacity:1; fill:none" points="205.121,613.765 214.57,613.765 "/>
<polyline clip-path="url(#clip980)" style="stroke:#000000; stroke-linecap:round; stroke-linejoin:round; stroke-width:4; stroke-opacity:1; fill:none" points="205.121,500.371 214.57,500.371 "/>
<polyline clip-path="url(#clip980)" style="stroke:#000000; stroke-linecap:round; stroke-linejoin:round; stroke-width:4; stroke-opacity:1; fill:none" points="205.121,443.674 214.57,443.674 "/>
<polyline clip-path="url(#clip980)" style="stroke:#000000; stroke-linecap:round; stroke-linejoin:round; stroke-width:4; stroke-opacity:1; fill:none" points="205.121,386.976 214.57,386.976 "/>
<polyline clip-path="url(#clip980)" style="stroke:#000000; stroke-linecap:round; stroke-linejoin:round; stroke-width:4; stroke-opacity:1; fill:none" points="205.121,330.279 214.57,330.279 "/>
<polyline clip-path="url(#clip980)" style="stroke:#000000; stroke-linecap:round; stroke-linejoin:round; stroke-width:4; stroke-opacity:1; fill:none" points="205.121,216.885 214.57,216.885 "/>
<polyline clip-path="url(#clip980)" style="stroke:#000000; stroke-linecap:round; stroke-linejoin:round; stroke-width:4; stroke-opacity:1; fill:none" points="205.121,160.188 214.57,160.188 "/>
<path clip-path="url(#clip980)" d="M157.177 1393.32 Q153.566 1393.32 151.737 1396.89 Q149.931 1400.43 149.931 1407.56 Q149.931 1414.67 151.737 1418.23 Q153.566 1421.77 157.177 1421.77 Q160.811 1421.77 162.616 1418.23 Q164.445 1414.67 164.445 1407.56 Q164.445 1400.43 162.616 1396.89 Q160.811 1393.32 157.177 1393.32 M157.177 1389.62 Q162.987 1389.62 166.042 1394.23 Q169.121 1398.81 169.121 1407.56 Q169.121 1416.29 166.042 1420.89 Q162.987 1425.48 157.177 1425.48 Q151.366 1425.48 148.288 1420.89 Q145.232 1416.29 145.232 1407.56 Q145.232 1398.81 148.288 1394.23 Q151.366 1389.62 157.177 1389.62 Z" fill="#000000" fill-rule="nonzero" fill-opacity="1" /><path clip-path="url(#clip980)" d="M117.825 1137.38 L125.464 1137.38 L125.464 1111.02 L117.154 1112.68 L117.154 1108.43 L125.418 1106.76 L130.093 1106.76 L130.093 1137.38 L137.732 1137.38 L137.732 1141.32 L117.825 1141.32 L117.825 1137.38 Z" fill="#000000" fill-rule="nonzero" fill-opacity="1" /><path clip-path="url(#clip980)" d="M157.177 1109.84 Q153.566 1109.84 151.737 1113.4 Q149.931 1116.94 149.931 1124.07 Q149.931 1131.18 151.737 1134.74 Q153.566 1138.29 157.177 1138.29 Q160.811 1138.29 162.616 1134.74 Q164.445 1131.18 164.445 1124.07 Q164.445 1116.94 162.616 1113.4 Q160.811 1109.84 157.177 1109.84 M157.177 1106.13 Q162.987 1106.13 166.042 1110.74 Q169.121 1115.32 169.121 1124.07 Q169.121 1132.8 166.042 1137.41 Q162.987 1141.99 157.177 1141.99 Q151.366 1141.99 148.288 1137.41 Q145.232 1132.8 145.232 1124.07 Q145.232 1115.32 148.288 1110.74 Q151.366 1106.13 157.177 1106.13 Z" fill="#000000" fill-rule="nonzero" fill-opacity="1" /><path clip-path="url(#clip980)" d="M121.043 853.898 L137.362 853.898 L137.362 857.833 L115.418 857.833 L115.418 853.898 Q118.08 851.143 122.663 846.514 Q127.269 841.861 128.45 840.518 Q130.695 837.995 131.575 836.259 Q132.478 834.5 132.478 832.81 Q132.478 830.056 130.533 828.319 Q128.612 826.583 125.51 826.583 Q123.311 826.583 120.857 827.347 Q118.427 828.111 115.649 829.662 L115.649 824.94 Q118.473 823.806 120.927 823.227 Q123.38 822.648 125.418 822.648 Q130.788 822.648 133.982 825.333 Q137.177 828.018 137.177 832.509 Q137.177 834.639 136.367 836.56 Q135.579 838.458 133.473 841.051 Q132.894 841.722 129.792 844.94 Q126.691 848.134 121.043 853.898 Z" fill="#000000" fill-rule="nonzero" fill-opacity="1" /><path clip-path="url(#clip980)" d="M157.177 826.352 Q153.566 826.352 151.737 829.917 Q149.931 833.458 149.931 840.588 Q149.931 847.694 151.737 851.259 Q153.566 854.801 157.177 854.801 Q160.811 854.801 162.616 851.259 Q164.445 847.694 164.445 840.588 Q164.445 833.458 162.616 829.917 Q160.811 826.352 157.177 826.352 M157.177 822.648 Q162.987 822.648 166.042 827.255 Q169.121 831.838 169.121 840.588 Q169.121 849.315 166.042 853.921 Q162.987 858.504 157.177 858.504 Q151.366 858.504 148.288 853.921 Q145.232 849.315 145.232 840.588 Q145.232 831.838 148.288 827.255 Q151.366 822.648 157.177 822.648 Z" fill="#000000" fill-rule="nonzero" fill-opacity="1" /><path clip-path="url(#clip980)" d="M131.181 555.714 Q134.538 556.431 136.413 558.7 Q138.311 560.968 138.311 564.301 Q138.311 569.417 134.792 572.218 Q131.274 575.019 124.793 575.019 Q122.617 575.019 120.302 574.579 Q118.01 574.163 115.556 573.306 L115.556 568.792 Q117.501 569.926 119.816 570.505 Q122.13 571.084 124.654 571.084 Q129.052 571.084 131.343 569.348 Q133.658 567.612 133.658 564.301 Q133.658 561.246 131.505 559.533 Q129.376 557.797 125.556 557.797 L121.529 557.797 L121.529 553.954 L125.742 553.954 Q129.191 553.954 131.019 552.589 Q132.848 551.2 132.848 548.607 Q132.848 545.945 130.95 544.533 Q129.075 543.098 125.556 543.098 Q123.635 543.098 121.436 543.515 Q119.237 543.931 116.598 544.811 L116.598 540.644 Q119.26 539.903 121.575 539.533 Q123.913 539.163 125.973 539.163 Q131.297 539.163 134.399 541.593 Q137.501 544.001 137.501 548.121 Q137.501 550.991 135.857 552.982 Q134.214 554.95 131.181 555.714 Z" fill="#000000" fill-rule="nonzero" fill-opacity="1" /><path clip-path="url(#clip980)" d="M157.177 542.866 Q153.566 542.866 151.737 546.431 Q149.931 549.973 149.931 557.102 Q149.931 564.209 151.737 567.774 Q153.566 571.315 157.177 571.315 Q160.811 571.315 162.616 567.774 Q164.445 564.209 164.445 557.102 Q164.445 549.973 162.616 546.431 Q160.811 542.866 157.177 542.866 M157.177 539.163 Q162.987 539.163 166.042 543.769 Q169.121 548.352 169.121 557.102 Q169.121 565.829 166.042 570.436 Q162.987 575.019 157.177 575.019 Q151.366 575.019 148.288 570.436 Q145.232 565.829 145.232 557.102 Q145.232 548.352 148.288 543.769 Q151.366 539.163 157.177 539.163 Z" fill="#000000" fill-rule="nonzero" fill-opacity="1" /><path clip-path="url(#clip980)" d="M129.862 260.376 L118.056 278.825 L129.862 278.825 L129.862 260.376 M128.635 256.302 L134.515 256.302 L134.515 278.825 L139.445 278.825 L139.445 282.714 L134.515 282.714 L134.515 290.862 L129.862 290.862 L129.862 282.714 L114.26 282.714 L114.26 278.2 L128.635 256.302 Z" fill="#000000" fill-rule="nonzero" fill-opacity="1" /><path clip-path="url(#clip980)" d="M157.177 259.381 Q153.566 259.381 151.737 262.946 Q149.931 266.487 149.931 273.617 Q149.931 280.723 151.737 284.288 Q153.566 287.83 157.177 287.83 Q160.811 287.83 162.616 284.288 Q164.445 280.723 164.445 273.617 Q164.445 266.487 162.616 262.946 Q160.811 259.381 157.177 259.381 M157.177 255.677 Q162.987 255.677 166.042 260.284 Q169.121 264.867 169.121 273.617 Q169.121 282.344 166.042 286.95 Q162.987 291.534 157.177 291.534 Q151.366 291.534 148.288 286.95 Q145.232 282.344 145.232 273.617 Q145.232 264.867 148.288 260.284 Q151.366 255.677 157.177 255.677 Z" fill="#000000" fill-rule="nonzero" fill-opacity="1" /><path clip-path="url(#clip980)" d="M35.1993 1105.41 Q31.2526 1103.21 29.3747 1100.16 Q27.4968 1097.1 27.4968 1092.96 Q27.4968 1087.39 31.4117 1084.37 Q35.2948 1081.35 42.4881 1081.35 L64.0042 1081.35 L64.0042 1087.23 L42.679 1087.23 Q37.5546 1087.23 35.072 1089.05 Q32.5894 1090.86 32.5894 1094.59 Q32.5894 1099.14 35.6131 1101.78 Q38.6368 1104.42 43.8567 1104.42 L64.0042 1104.42 L64.0042 1110.31 L42.679 1110.31 Q37.5228 1110.31 35.072 1112.12 Q32.5894 1113.94 32.5894 1117.73 Q32.5894 1122.21 35.6449 1124.86 Q38.6686 1127.5 43.8567 1127.5 L64.0042 1127.5 L64.0042 1133.39 L28.3562 1133.39 L28.3562 1127.5 L33.8944 1127.5 Q30.616 1125.49 29.0564 1122.69 Q27.4968 1119.89 27.4968 1116.04 Q27.4968 1112.16 29.4702 1109.45 Q31.4436 1106.71 35.1993 1105.41 Z" fill="#000000" fill-rule="nonzero" fill-opacity="1" /><path clip-path="url(#clip980)" d="M44.7161 1039.17 L47.5806 1039.17 L47.5806 1066.1 Q53.6281 1065.72 56.8109 1062.47 Q59.9619 1059.19 59.9619 1053.37 Q59.9619 1050 59.1344 1046.84 Q58.3069 1043.66 56.6518 1040.54 L62.1899 1040.54 Q63.5267 1043.69 64.227 1047 Q64.9272 1050.31 64.9272 1053.72 Q64.9272 1062.25 59.9619 1067.25 Q54.9967 1072.21 46.5303 1072.21 Q37.7774 1072.21 32.6531 1067.5 Q27.4968 1062.76 27.4968 1054.74 Q27.4968 1047.54 32.1438 1043.38 Q36.7589 1039.17 44.7161 1039.17 M42.9973 1045.03 Q38.1912 1045.09 35.3266 1047.74 Q32.4621 1050.35 32.4621 1054.67 Q32.4621 1059.58 35.2312 1062.54 Q38.0002 1065.46 43.0292 1065.91 L42.9973 1045.03 Z" fill="#000000" fill-rule="nonzero" fill-opacity="1" /><path clip-path="url(#clip980)" d="M46.0847 1013.36 Q46.0847 1020.46 47.7079 1023.2 Q49.3312 1025.93 53.2461 1025.93 Q56.3653 1025.93 58.2114 1023.9 Q60.0256 1021.83 60.0256 1018.29 Q60.0256 1013.42 56.5881 1010.5 Q53.1188 1007.54 47.3897 1007.54 L46.0847 1007.54 L46.0847 1013.36 M43.6657 1001.68 L64.0042 1001.68 L64.0042 1007.54 L58.5933 1007.54 Q61.8398 1009.54 63.3994 1012.53 Q64.9272 1015.53 64.9272 1019.85 Q64.9272 1025.33 61.8716 1028.57 Q58.7843 1031.79 53.6281 1031.79 Q47.6125 1031.79 44.5569 1027.78 Q41.5014 1023.74 41.5014 1015.75 L41.5014 1007.54 L40.9285 1007.54 Q36.8862 1007.54 34.6901 1010.21 Q32.4621 1012.85 32.4621 1017.66 Q32.4621 1020.71 33.1941 1023.61 Q33.9262 1026.51 35.3903 1029.18 L29.9795 1029.18 Q28.7381 1025.96 28.1334 1022.94 Q27.4968 1019.92 27.4968 1017.05 Q27.4968 1009.32 31.5072 1005.5 Q35.5176 1001.68 43.6657 1001.68 Z" fill="#000000" fill-rule="nonzero" fill-opacity="1" /><path clip-path="url(#clip980)" d="M42.4881 959.984 L64.0042 959.984 L64.0042 965.841 L42.679 965.841 Q37.6183 965.841 35.1038 967.814 Q32.5894 969.788 32.5894 973.734 Q32.5894 978.477 35.6131 981.214 Q38.6368 983.951 43.8567 983.951 L64.0042 983.951 L64.0042 989.84 L28.3562 989.84 L28.3562 983.951 L33.8944 983.951 Q30.6797 981.851 29.0883 979.018 Q27.4968 976.153 27.4968 972.429 Q27.4968 966.286 31.3163 963.135 Q35.1038 959.984 42.4881 959.984 Z" fill="#000000" fill-rule="nonzero" fill-opacity="1" /><path clip-path="url(#clip980)" d="M18.2347 921.79 L28.3562 921.79 L28.3562 909.727 L32.9077 909.727 L32.9077 921.79 L52.2594 921.79 Q56.6199 921.79 57.8613 920.613 Q59.1026 919.403 59.1026 915.743 L59.1026 909.727 L64.0042 909.727 L64.0042 915.743 Q64.0042 922.522 61.4897 925.1 Q58.9434 927.678 52.2594 927.678 L32.9077 927.678 L32.9077 931.975 L28.3562 931.975 L28.3562 927.678 L18.2347 927.678 L18.2347 921.79 Z" fill="#000000" fill-rule="nonzero" fill-opacity="1" /><path clip-path="url(#clip980)" d="M33.8307 881.368 Q33.2578 882.355 33.0032 883.532 Q32.7167 884.678 32.7167 886.079 Q32.7167 891.044 35.9632 893.717 Q39.1779 896.359 45.2253 896.359 L64.0042 896.359 L64.0042 902.247 L28.3562 902.247 L28.3562 896.359 L33.8944 896.359 Q30.6479 894.513 29.0883 891.553 Q27.4968 888.593 27.4968 884.36 Q27.4968 883.755 27.5923 883.023 Q27.656 882.291 27.8151 881.4 L33.8307 881.368 Z" fill="#000000" fill-rule="nonzero" fill-opacity="1" /><path clip-path="url(#clip980)" d="M46.0847 859.024 Q46.0847 866.122 47.7079 868.859 Q49.3312 871.597 53.2461 871.597 Q56.3653 871.597 58.2114 869.56 Q60.0256 867.491 60.0256 863.958 Q60.0256 859.088 56.5881 856.16 Q53.1188 853.2 47.3897 853.2 L46.0847 853.2 L46.0847 859.024 M43.6657 847.343 L64.0042 847.343 L64.0042 853.2 L58.5933 853.2 Q61.8398 855.205 63.3994 858.197 Q64.9272 861.189 64.9272 865.517 Q64.9272 870.992 61.8716 874.238 Q58.7843 877.453 53.6281 877.453 Q47.6125 877.453 44.5569 873.443 Q41.5014 869.4 41.5014 861.411 L41.5014 853.2 L40.9285 853.2 Q36.8862 853.2 34.6901 855.873 Q32.4621 858.515 32.4621 863.321 Q32.4621 866.377 33.1941 869.273 Q33.9262 872.169 35.3903 874.843 L29.9795 874.843 Q28.7381 871.628 28.1334 868.605 Q27.4968 865.581 27.4968 862.716 Q27.4968 854.982 31.5072 851.163 Q35.5176 847.343 43.6657 847.343 Z" fill="#000000" fill-rule="nonzero" fill-opacity="1" /><path clip-path="url(#clip980)" d="M28.3562 835.28 L28.3562 829.424 L64.0042 829.424 L64.0042 835.28 L28.3562 835.28 M14.479 835.28 L14.479 829.424 L21.895 829.424 L21.895 835.28 L14.479 835.28 Z" fill="#000000" fill-rule="nonzero" fill-opacity="1" /><path clip-path="url(#clip980)" d="M42.4881 787.537 L64.0042 787.537 L64.0042 793.394 L42.679 793.394 Q37.6183 793.394 35.1038 795.367 Q32.5894 797.341 32.5894 801.287 Q32.5894 806.03 35.6131 808.767 Q38.6368 811.504 43.8567 811.504 L64.0042 811.504 L64.0042 817.393 L28.3562 817.393 L28.3562 811.504 L33.8944 811.504 Q30.6797 809.404 29.0883 806.571 Q27.4968 803.706 27.4968 799.982 Q27.4968 793.839 31.3163 790.688 Q35.1038 787.537 42.4881 787.537 Z" fill="#000000" fill-rule="nonzero" fill-opacity="1" /><path clip-path="url(#clip980)" d="M28.3562 775.856 L28.3562 770 L64.0042 770 L64.0042 775.856 L28.3562 775.856 M14.479 775.856 L14.479 770 L21.895 770 L21.895 775.856 L14.479 775.856 Z" fill="#000000" fill-rule="nonzero" fill-opacity="1" /><path clip-path="url(#clip980)" d="M42.4881 728.114 L64.0042 728.114 L64.0042 733.97 L42.679 733.97 Q37.6183 733.97 35.1038 735.943 Q32.5894 737.917 32.5894 741.863 Q32.5894 746.606 35.6131 749.343 Q38.6368 752.08 43.8567 752.08 L64.0042 752.08 L64.0042 757.969 L28.3562 757.969 L28.3562 752.08 L33.8944 752.08 Q30.6797 749.98 29.0883 747.147 Q27.4968 744.282 27.4968 740.559 Q27.4968 734.416 31.3163 731.265 Q35.1038 728.114 42.4881 728.114 Z" fill="#000000" fill-rule="nonzero" fill-opacity="1" /><path clip-path="url(#clip980)" d="M45.7664 692.975 Q39.4007 692.975 35.8996 695.617 Q32.3984 698.227 32.3984 702.969 Q32.3984 707.68 35.8996 710.321 Q39.4007 712.931 45.7664 712.931 Q52.1003 712.931 55.6014 710.321 Q59.1026 707.68 59.1026 702.969 Q59.1026 698.227 55.6014 695.617 Q52.1003 692.975 45.7664 692.975 M59.58 687.118 Q68.683 687.118 73.1071 691.161 Q77.5631 695.203 77.5631 703.542 Q77.5631 706.629 77.0857 709.367 Q76.6401 712.104 75.6852 714.682 L69.9879 714.682 Q71.3884 712.104 72.0568 709.589 Q72.7252 707.075 72.7252 704.465 Q72.7252 698.704 69.7015 695.839 Q66.7096 692.975 60.6303 692.975 L57.7339 692.975 Q60.885 694.789 62.4446 697.622 Q64.0042 700.455 64.0042 704.401 Q64.0042 710.958 59.0071 714.968 Q54.01 718.979 45.7664 718.979 Q37.491 718.979 32.4939 714.968 Q27.4968 710.958 27.4968 704.401 Q27.4968 700.455 29.0564 697.622 Q30.616 694.789 33.7671 692.975 L28.3562 692.975 L28.3562 687.118 L59.58 687.118 Z" fill="#000000" fill-rule="nonzero" fill-opacity="1" /><path clip-path="url(#clip980)" d="M18.2347 648.542 L28.3562 648.542 L28.3562 636.479 L32.9077 636.479 L32.9077 648.542 L52.2594 648.542 Q56.6199 648.542 57.8613 647.365 Q59.1026 646.155 59.1026 642.495 L59.1026 636.479 L64.0042 636.479 L64.0042 642.495 Q64.0042 649.274 61.4897 651.852 Q58.9434 654.43 52.2594 654.43 L32.9077 654.43 L32.9077 658.727 L28.3562 658.727 L28.3562 654.43 L18.2347 654.43 L18.2347 648.542 Z" fill="#000000" fill-rule="nonzero" fill-opacity="1" /><path clip-path="url(#clip980)" d="M28.3562 628.777 L28.3562 622.92 L64.0042 622.92 L64.0042 628.777 L28.3562 628.777 M14.479 628.777 L14.479 622.92 L21.895 622.92 L21.895 628.777 L14.479 628.777 Z" fill="#000000" fill-rule="nonzero" fill-opacity="1" /><path clip-path="url(#clip980)" d="M35.1993 582.912 Q31.2526 580.716 29.3747 577.66 Q27.4968 574.605 27.4968 570.467 Q27.4968 564.897 31.4117 561.873 Q35.2948 558.849 42.4881 558.849 L64.0042 558.849 L64.0042 564.738 L42.679 564.738 Q37.5546 564.738 35.072 566.552 Q32.5894 568.366 32.5894 572.09 Q32.5894 576.642 35.6131 579.283 Q38.6368 581.925 43.8567 581.925 L64.0042 581.925 L64.0042 587.813 L42.679 587.813 Q37.5228 587.813 35.072 589.628 Q32.5894 591.442 32.5894 595.229 Q32.5894 599.717 35.6449 602.359 Q38.6686 605.001 43.8567 605.001 L64.0042 605.001 L64.0042 610.889 L28.3562 610.889 L28.3562 605.001 L33.8944 605.001 Q30.616 602.996 29.0564 600.195 Q27.4968 597.394 27.4968 593.543 Q27.4968 589.659 29.4702 586.954 Q31.4436 584.217 35.1993 582.912 Z" fill="#000000" fill-rule="nonzero" fill-opacity="1" /><path clip-path="url(#clip980)" d="M44.7161 516.677 L47.5806 516.677 L47.5806 543.604 Q53.6281 543.222 56.8109 539.975 Q59.9619 536.697 59.9619 530.872 Q59.9619 527.498 59.1344 524.347 Q58.3069 521.164 56.6518 518.045 L62.1899 518.045 Q63.5267 521.196 64.227 524.506 Q64.9272 527.817 64.9272 531.222 Q64.9272 539.752 59.9619 544.749 Q54.9967 549.715 46.5303 549.715 Q37.7774 549.715 32.6531 545.004 Q27.4968 540.262 27.4968 532.241 Q27.4968 525.048 32.1438 520.878 Q36.7589 516.677 44.7161 516.677 M42.9973 522.533 Q38.1912 522.597 35.3266 525.238 Q32.4621 527.848 32.4621 532.177 Q32.4621 537.079 35.2312 540.039 Q38.0002 542.967 43.0292 543.413 L42.9973 522.533 Z" fill="#000000" fill-rule="nonzero" fill-opacity="1" /><path clip-path="url(#clip980)" d="M14.5426 472.276 Q21.8632 476.541 29.0246 478.61 Q36.186 480.679 43.5384 480.679 Q50.8908 480.679 58.1159 478.61 Q65.3091 476.509 72.5979 472.276 L72.5979 477.368 Q65.1182 482.143 57.8931 484.53 Q50.668 486.885 43.5384 486.885 Q36.4406 486.885 29.2474 484.53 Q22.0542 482.174 14.5426 477.368 L14.5426 472.276 Z" fill="#000000" fill-rule="nonzero" fill-opacity="1" /><path clip-path="url(#clip980)" d="M29.4065 438.187 L34.9447 438.187 Q33.6716 440.67 33.035 443.344 Q32.3984 446.017 32.3984 448.882 Q32.3984 453.242 33.7352 455.439 Q35.072 457.603 37.7456 457.603 Q39.7826 457.603 40.9603 456.043 Q42.1061 454.484 43.1565 449.773 L43.6021 447.768 Q44.9389 441.529 47.3897 438.92 Q49.8086 436.278 54.1691 436.278 Q59.1344 436.278 62.0308 440.224 Q64.9272 444.139 64.9272 451.014 Q64.9272 453.879 64.3543 456.998 Q63.8132 460.085 62.6992 463.523 L56.6518 463.523 Q58.3387 460.276 59.198 457.125 Q60.0256 453.974 60.0256 450.887 Q60.0256 446.749 58.6251 444.521 Q57.1929 442.293 54.6147 442.293 Q52.2276 442.293 50.9545 443.917 Q49.6813 445.508 48.5037 450.951 L48.0262 452.988 Q46.8804 458.43 44.5251 460.849 Q42.138 463.268 38.0002 463.268 Q32.9713 463.268 30.2341 459.704 Q27.4968 456.139 27.4968 449.582 Q27.4968 446.336 27.9743 443.471 Q28.4517 440.606 29.4065 438.187 Z" fill="#000000" fill-rule="nonzero" fill-opacity="1" /><path clip-path="url(#clip980)" d="M14.5426 427.875 L14.5426 422.782 Q22.0542 418.008 29.2474 415.653 Q36.4406 413.266 43.5384 413.266 Q50.668 413.266 57.8931 415.653 Q65.1182 418.008 72.5979 422.782 L72.5979 427.875 Q65.3091 423.642 58.1159 421.573 Q50.8908 419.472 43.5384 419.472 Q36.186 419.472 29.0246 421.573 Q21.8632 423.642 14.5426 427.875 Z" fill="#000000" fill-rule="nonzero" fill-opacity="1" /><path clip-path="url(#clip980)" d="M519.353 12.096 L570.516 12.096 L570.516 18.9825 L549.047 18.9825 L549.047 72.576 L540.823 72.576 L540.823 18.9825 L519.353 18.9825 L519.353 12.096 Z" fill="#000000" fill-rule="nonzero" fill-opacity="1" /><path clip-path="url(#clip980)" d="M575.539 27.2059 L582.993 27.2059 L582.993 72.576 L575.539 72.576 L575.539 27.2059 M575.539 9.54393 L582.993 9.54393 L582.993 18.9825 L575.539 18.9825 L575.539 9.54393 Z" fill="#000000" fill-rule="nonzero" fill-opacity="1" /><path clip-path="url(#clip980)" d="M633.913 35.9153 Q636.708 30.8922 640.597 28.5022 Q644.486 26.1121 649.752 26.1121 Q656.841 26.1121 660.689 31.0947 Q664.538 36.0368 664.538 45.1919 L664.538 72.576 L657.044 72.576 L657.044 45.4349 Q657.044 38.913 654.735 35.7533 Q652.426 32.5936 647.686 32.5936 Q641.893 32.5936 638.531 36.4419 Q635.169 40.2903 635.169 46.9338 L635.169 72.576 L627.675 72.576 L627.675 45.4349 Q627.675 38.8725 625.366 35.7533 Q623.057 32.5936 618.236 32.5936 Q612.524 32.5936 609.162 36.4824 Q605.8 40.3308 605.8 46.9338 L605.8 72.576 L598.306 72.576 L598.306 27.2059 L605.8 27.2059 L605.8 34.2544 Q608.352 30.082 611.917 28.0971 Q615.481 26.1121 620.383 26.1121 Q625.325 26.1121 628.768 28.6237 Q632.252 31.1352 633.913 35.9153 Z" fill="#000000" fill-rule="nonzero" fill-opacity="1" /><path clip-path="url(#clip980)" d="M718.212 48.0275 L718.212 51.6733 L683.942 51.6733 Q684.428 59.3701 688.56 63.421 Q692.732 67.4314 700.145 67.4314 Q704.439 67.4314 708.45 66.3781 Q712.501 65.3249 716.47 63.2184 L716.47 70.267 Q712.46 71.9684 708.247 72.8596 Q704.034 73.7508 699.7 73.7508 Q688.843 73.7508 682.483 67.4314 Q676.164 61.1119 676.164 50.3365 Q676.164 39.1965 682.159 32.6746 Q688.195 26.1121 698.403 26.1121 Q707.558 26.1121 712.865 32.0264 Q718.212 37.9003 718.212 48.0275 M710.759 45.84 Q710.678 39.7232 707.315 36.0774 Q703.994 32.4315 698.484 32.4315 Q692.246 32.4315 688.479 35.9558 Q684.752 39.4801 684.185 45.8805 L710.759 45.84 Z" fill="#000000" fill-rule="nonzero" fill-opacity="1" /><path clip-path="url(#clip980)" d="M793.397 14.0809 L793.397 22.0612 Q788.739 19.8332 784.607 18.7395 Q780.475 17.6457 776.626 17.6457 Q769.942 17.6457 766.297 20.2383 Q762.691 22.8309 762.691 27.611 Q762.691 31.6214 765.081 33.6873 Q767.512 35.7128 774.236 36.9686 L779.178 37.9813 Q788.333 39.7232 792.668 44.1387 Q797.043 48.5136 797.043 55.8863 Q797.043 64.6767 791.129 69.2137 Q785.255 73.7508 773.872 73.7508 Q769.578 73.7508 764.717 72.7785 Q759.896 71.8063 754.711 69.9024 L754.711 61.4765 Q759.694 64.2716 764.474 65.6895 Q769.254 67.1073 773.872 67.1073 Q780.88 67.1073 784.688 64.3527 Q788.495 61.598 788.495 56.4939 Q788.495 52.0379 785.741 49.5264 Q783.027 47.0148 776.788 45.759 L771.806 44.7868 Q762.651 42.9639 758.559 39.075 Q754.468 35.1862 754.468 28.2591 Q754.468 20.2383 760.099 15.6203 Q765.77 11.0023 775.695 11.0023 Q779.948 11.0023 784.364 11.7719 Q788.779 12.5416 793.397 14.0809 Z" fill="#000000" fill-rule="nonzero" fill-opacity="1" /><path clip-path="url(#clip980)" d="M848.287 48.0275 L848.287 51.6733 L814.016 51.6733 Q814.502 59.3701 818.634 63.421 Q822.807 67.4314 830.22 67.4314 Q834.514 67.4314 838.524 66.3781 Q842.575 65.3249 846.545 63.2184 L846.545 70.267 Q842.535 71.9684 838.322 72.8596 Q834.109 73.7508 829.774 73.7508 Q818.918 73.7508 812.558 67.4314 Q806.238 61.1119 806.238 50.3365 Q806.238 39.1965 812.234 32.6746 Q818.27 26.1121 828.478 26.1121 Q837.633 26.1121 842.94 32.0264 Q848.287 37.9003 848.287 48.0275 M840.833 45.84 Q840.752 39.7232 837.39 36.0774 Q834.068 32.4315 828.559 32.4315 Q822.321 32.4315 818.553 35.9558 Q814.826 39.4801 814.259 45.8805 L840.833 45.84 Z" fill="#000000" fill-rule="nonzero" fill-opacity="1" /><path clip-path="url(#clip980)" d="M886.811 34.1734 Q885.555 33.4443 884.056 33.1202 Q882.598 32.7556 880.816 32.7556 Q874.496 32.7556 871.093 36.8875 Q867.731 40.9789 867.731 48.6757 L867.731 72.576 L860.237 72.576 L860.237 27.2059 L867.731 27.2059 L867.731 34.2544 Q870.081 30.1225 873.848 28.1376 Q877.615 26.1121 883.003 26.1121 Q883.773 26.1121 884.704 26.2337 Q885.636 26.3147 886.77 26.5172 L886.811 34.1734 Z" fill="#000000" fill-rule="nonzero" fill-opacity="1" /><path clip-path="url(#clip980)" d="M894.629 27.2059 L902.083 27.2059 L902.083 72.576 L894.629 72.576 L894.629 27.2059 M894.629 9.54393 L902.083 9.54393 L902.083 18.9825 L894.629 18.9825 L894.629 9.54393 Z" fill="#000000" fill-rule="nonzero" fill-opacity="1" /><path clip-path="url(#clip980)" d="M956.486 48.0275 L956.486 51.6733 L922.216 51.6733 Q922.702 59.3701 926.834 63.421 Q931.006 67.4314 938.419 67.4314 Q942.713 67.4314 946.724 66.3781 Q950.775 65.3249 954.745 63.2184 L954.745 70.267 Q950.734 71.9684 946.521 72.8596 Q942.308 73.7508 937.974 73.7508 Q927.117 73.7508 920.757 67.4314 Q914.438 61.1119 914.438 50.3365 Q914.438 39.1965 920.433 32.6746 Q926.469 26.1121 936.678 26.1121 Q945.833 26.1121 951.139 32.0264 Q956.486 37.9003 956.486 48.0275 M949.033 45.84 Q948.952 39.7232 945.59 36.0774 Q942.268 32.4315 936.759 32.4315 Q930.52 32.4315 926.753 35.9558 Q923.026 39.4801 922.459 45.8805 L949.033 45.84 Z" fill="#000000" fill-rule="nonzero" fill-opacity="1" /><path clip-path="url(#clip980)" d="M997.644 28.5427 L997.644 35.5912 Q994.484 33.9709 991.081 33.1607 Q987.678 32.3505 984.033 32.3505 Q978.483 32.3505 975.688 34.0519 Q972.933 35.7533 972.933 39.156 Q972.933 41.7486 974.918 43.2475 Q976.903 44.7058 982.898 46.0426 L985.45 46.6097 Q993.39 48.3111 996.712 51.4303 Q1000.07 54.509 1000.07 60.0587 Q1000.07 66.3781 995.051 70.0644 Q990.068 73.7508 981.319 73.7508 Q977.673 73.7508 973.703 73.0216 Q969.773 72.3329 965.398 70.9151 L965.398 63.2184 Q969.53 65.3654 973.541 66.4591 Q977.551 67.5124 981.481 67.5124 Q986.747 67.5124 989.582 65.73 Q992.418 63.9071 992.418 60.6258 Q992.418 57.5877 990.352 55.9673 Q988.327 54.3469 981.4 52.8481 L978.807 52.2405 Q971.88 50.7821 968.801 47.7845 Q965.723 44.7463 965.723 39.4801 Q965.723 33.0797 970.26 29.5959 Q974.797 26.1121 983.141 26.1121 Q987.273 26.1121 990.919 26.7198 Q994.565 27.3274 997.644 28.5427 Z" fill="#000000" fill-rule="nonzero" fill-opacity="1" /><path clip-path="url(#clip980)" d="M1038.64 12.096 L1046.82 12.096 L1046.82 65.6895 L1076.27 65.6895 L1076.27 72.576 L1038.64 72.576 L1038.64 12.096 Z" fill="#000000" fill-rule="nonzero" fill-opacity="1" /><path clip-path="url(#clip980)" d="M1121.88 48.0275 L1121.88 51.6733 L1087.61 51.6733 Q1088.1 59.3701 1092.23 63.421 Q1096.4 67.4314 1103.82 67.4314 Q1108.11 67.4314 1112.12 66.3781 Q1116.17 65.3249 1120.14 63.2184 L1120.14 70.267 Q1116.13 71.9684 1111.92 72.8596 Q1107.71 73.7508 1103.37 73.7508 Q1092.52 73.7508 1086.16 67.4314 Q1079.84 61.1119 1079.84 50.3365 Q1079.84 39.1965 1085.83 32.6746 Q1091.87 26.1121 1102.08 26.1121 Q1111.23 26.1121 1116.54 32.0264 Q1121.88 37.9003 1121.88 48.0275 M1114.43 45.84 Q1114.35 39.7232 1110.99 36.0774 Q1107.67 32.4315 1102.16 32.4315 Q1095.92 32.4315 1092.15 35.9558 Q1088.42 39.4801 1087.86 45.8805 L1114.43 45.84 Z" fill="#000000" fill-rule="nonzero" fill-opacity="1" /><path clip-path="url(#clip980)" d="M1171.83 45.1919 L1171.83 72.576 L1164.38 72.576 L1164.38 45.4349 Q1164.38 38.994 1161.87 35.7938 Q1159.36 32.5936 1154.33 32.5936 Q1148.3 32.5936 1144.81 36.4419 Q1141.33 40.2903 1141.33 46.9338 L1141.33 72.576 L1133.84 72.576 L1133.84 27.2059 L1141.33 27.2059 L1141.33 34.2544 Q1144 30.163 1147.61 28.1376 Q1151.25 26.1121 1155.99 26.1121 Q1163.81 26.1121 1167.82 30.9732 Q1171.83 35.7938 1171.83 45.1919 Z" fill="#000000" fill-rule="nonzero" fill-opacity="1" /><path clip-path="url(#clip980)" d="M1216.55 49.3643 Q1216.55 41.2625 1213.19 36.8065 Q1209.87 32.3505 1203.83 32.3505 Q1197.84 32.3505 1194.48 36.8065 Q1191.16 41.2625 1191.16 49.3643 Q1191.16 57.4256 1194.48 61.8816 Q1197.84 66.3376 1203.83 66.3376 Q1209.87 66.3376 1213.19 61.8816 Q1216.55 57.4256 1216.55 49.3643 M1224.01 66.9452 Q1224.01 78.5308 1218.86 84.1616 Q1213.72 89.8329 1203.11 89.8329 Q1199.18 89.8329 1195.69 89.2252 Q1192.21 88.6581 1188.93 87.4428 L1188.93 80.1917 Q1192.21 81.9741 1195.41 82.8248 Q1198.61 83.6755 1201.93 83.6755 Q1209.26 83.6755 1212.91 79.8271 Q1216.55 76.0193 1216.55 68.282 L1216.55 64.5957 Q1214.25 68.6061 1210.64 70.5911 Q1207.03 72.576 1202.01 72.576 Q1193.67 72.576 1188.56 66.2161 Q1183.46 59.8562 1183.46 49.3643 Q1183.46 38.832 1188.56 32.472 Q1193.67 26.1121 1202.01 26.1121 Q1207.03 26.1121 1210.64 28.0971 Q1214.25 30.082 1216.55 34.0924 L1216.55 27.2059 L1224.01 27.2059 L1224.01 66.9452 Z" fill="#000000" fill-rule="nonzero" fill-opacity="1" /><path clip-path="url(#clip980)" d="M1246.73 14.324 L1246.73 27.2059 L1262.09 27.2059 L1262.09 32.9987 L1246.73 32.9987 L1246.73 57.6282 Q1246.73 63.1779 1248.23 64.7578 Q1249.77 66.3376 1254.43 66.3376 L1262.09 66.3376 L1262.09 72.576 L1254.43 72.576 Q1245.8 72.576 1242.52 69.3758 Q1239.24 66.1351 1239.24 57.6282 L1239.24 32.9987 L1233.77 32.9987 L1233.77 27.2059 L1239.24 27.2059 L1239.24 14.324 L1246.73 14.324 Z" fill="#000000" fill-rule="nonzero" fill-opacity="1" /><path clip-path="url(#clip980)" d="M1309.6 45.1919 L1309.6 72.576 L1302.15 72.576 L1302.15 45.4349 Q1302.15 38.994 1299.64 35.7938 Q1297.13 32.5936 1292.1 32.5936 Q1286.07 32.5936 1282.58 36.4419 Q1279.1 40.2903 1279.1 46.9338 L1279.1 72.576 L1271.61 72.576 L1271.61 9.54393 L1279.1 9.54393 L1279.1 34.2544 Q1281.77 30.163 1285.38 28.1376 Q1289.03 26.1121 1293.76 26.1121 Q1301.58 26.1121 1305.59 30.9732 Q1309.6 35.7938 1309.6 45.1919 Z" fill="#000000" fill-rule="nonzero" fill-opacity="1" /><path clip-path="url(#clip980)" d="M1342.78 12.096 L1393.94 12.096 L1393.94 18.9825 L1372.47 18.9825 L1372.47 72.576 L1364.25 72.576 L1364.25 18.9825 L1342.78 18.9825 L1342.78 12.096 Z" fill="#000000" fill-rule="nonzero" fill-opacity="1" /><path clip-path="url(#clip980)" d="M1398.97 27.2059 L1406.42 27.2059 L1406.42 72.576 L1398.97 72.576 L1398.97 27.2059 M1398.97 9.54393 L1406.42 9.54393 L1406.42 18.9825 L1398.97 18.9825 L1398.97 9.54393 Z" fill="#000000" fill-rule="nonzero" fill-opacity="1" /><path clip-path="url(#clip980)" d="M1457.34 35.9153 Q1460.14 30.8922 1464.02 28.5022 Q1467.91 26.1121 1473.18 26.1121 Q1480.27 26.1121 1484.12 31.0947 Q1487.97 36.0368 1487.97 45.1919 L1487.97 72.576 L1480.47 72.576 L1480.47 45.4349 Q1480.47 38.913 1478.16 35.7533 Q1475.85 32.5936 1471.11 32.5936 Q1465.32 32.5936 1461.96 36.4419 Q1458.6 40.2903 1458.6 46.9338 L1458.6 72.576 L1451.1 72.576 L1451.1 45.4349 Q1451.1 38.8725 1448.79 35.7533 Q1446.48 32.5936 1441.66 32.5936 Q1435.95 32.5936 1432.59 36.4824 Q1429.23 40.3308 1429.23 46.9338 L1429.23 72.576 L1421.73 72.576 L1421.73 27.2059 L1429.23 27.2059 L1429.23 34.2544 Q1431.78 30.082 1435.34 28.0971 Q1438.91 26.1121 1443.81 26.1121 Q1448.75 26.1121 1452.2 28.6237 Q1455.68 31.1352 1457.34 35.9153 Z" fill="#000000" fill-rule="nonzero" fill-opacity="1" /><path clip-path="url(#clip980)" d="M1541.64 48.0275 L1541.64 51.6733 L1507.37 51.6733 Q1507.86 59.3701 1511.99 63.421 Q1516.16 67.4314 1523.57 67.4314 Q1527.87 67.4314 1531.88 66.3781 Q1535.93 65.3249 1539.9 63.2184 L1539.9 70.267 Q1535.89 71.9684 1531.67 72.8596 Q1527.46 73.7508 1523.13 73.7508 Q1512.27 73.7508 1505.91 67.4314 Q1499.59 61.1119 1499.59 50.3365 Q1499.59 39.1965 1505.59 32.6746 Q1511.62 26.1121 1521.83 26.1121 Q1530.99 26.1121 1536.29 32.0264 Q1541.64 37.9003 1541.64 48.0275 M1534.19 45.84 Q1534.1 39.7232 1530.74 36.0774 Q1527.42 32.4315 1521.91 32.4315 Q1515.67 32.4315 1511.91 35.9558 Q1508.18 39.4801 1507.61 45.8805 L1534.19 45.84 Z" fill="#000000" fill-rule="nonzero" fill-opacity="1" /><path clip-path="url(#clip980)" d="M1625.86 16.7545 L1625.86 25.383 Q1621.73 21.5346 1617.03 19.6307 Q1612.37 17.7268 1607.1 17.7268 Q1596.73 17.7268 1591.22 24.0867 Q1585.71 30.4061 1585.71 42.3968 Q1585.71 54.3469 1591.22 60.7069 Q1596.73 67.0263 1607.1 67.0263 Q1612.37 67.0263 1617.03 65.1223 Q1621.73 63.2184 1625.86 59.3701 L1625.86 67.9175 Q1621.56 70.8341 1616.74 72.2924 Q1611.96 73.7508 1606.62 73.7508 Q1592.88 73.7508 1584.98 65.3654 Q1577.08 56.9395 1577.08 42.3968 Q1577.08 27.8135 1584.98 19.4281 Q1592.88 11.0023 1606.62 11.0023 Q1612.04 11.0023 1616.82 12.4606 Q1621.64 13.8784 1625.86 16.7545 Z" fill="#000000" fill-rule="nonzero" fill-opacity="1" /><path clip-path="url(#clip980)" d="M1655.75 32.4315 Q1649.76 32.4315 1646.27 37.1306 Q1642.79 41.7891 1642.79 49.9314 Q1642.79 58.0738 1646.23 62.7728 Q1649.72 67.4314 1655.75 67.4314 Q1661.71 67.4314 1665.19 62.7323 Q1668.68 58.0333 1668.68 49.9314 Q1668.68 41.8701 1665.19 37.1711 Q1661.71 32.4315 1655.75 32.4315 M1655.75 26.1121 Q1665.48 26.1121 1671.03 32.4315 Q1676.58 38.7509 1676.58 49.9314 Q1676.58 61.0714 1671.03 67.4314 Q1665.48 73.7508 1655.75 73.7508 Q1645.99 73.7508 1640.44 67.4314 Q1634.93 61.0714 1634.93 49.9314 Q1634.93 38.7509 1640.44 32.4315 Q1645.99 26.1121 1655.75 26.1121 Z" fill="#000000" fill-rule="nonzero" fill-opacity="1" /><path clip-path="url(#clip980)" d="M1724.25 35.9153 Q1727.05 30.8922 1730.94 28.5022 Q1734.83 26.1121 1740.09 26.1121 Q1747.18 26.1121 1751.03 31.0947 Q1754.88 36.0368 1754.88 45.1919 L1754.88 72.576 L1747.39 72.576 L1747.39 45.4349 Q1747.39 38.913 1745.08 35.7533 Q1742.77 32.5936 1738.03 32.5936 Q1732.23 32.5936 1728.87 36.4419 Q1725.51 40.2903 1725.51 46.9338 L1725.51 72.576 L1718.02 72.576 L1718.02 45.4349 Q1718.02 38.8725 1715.71 35.7533 Q1713.4 32.5936 1708.58 32.5936 Q1702.87 32.5936 1699.5 36.4824 Q1696.14 40.3308 1696.14 46.9338 L1696.14 72.576 L1688.65 72.576 L1688.65 27.2059 L1696.14 27.2059 L1696.14 34.2544 Q1698.69 30.082 1702.26 28.0971 Q1705.82 26.1121 1710.72 26.1121 Q1715.67 26.1121 1719.11 28.6237 Q1722.59 31.1352 1724.25 35.9153 Z" fill="#000000" fill-rule="nonzero" fill-opacity="1" /><path clip-path="url(#clip980)" d="M1776.96 65.7705 L1776.96 89.8329 L1769.46 89.8329 L1769.46 27.2059 L1776.96 27.2059 L1776.96 34.0924 Q1779.31 30.0415 1782.87 28.0971 Q1786.48 26.1121 1791.46 26.1121 Q1799.72 26.1121 1804.87 32.6746 Q1810.05 39.2371 1810.05 49.9314 Q1810.05 60.6258 1804.87 67.1883 Q1799.72 73.7508 1791.46 73.7508 Q1786.48 73.7508 1782.87 71.8063 Q1779.31 69.8214 1776.96 65.7705 M1802.32 49.9314 Q1802.32 41.7081 1798.91 37.0496 Q1795.55 32.3505 1789.64 32.3505 Q1783.72 32.3505 1780.32 37.0496 Q1776.96 41.7081 1776.96 49.9314 Q1776.96 58.1548 1780.32 62.8538 Q1783.72 67.5124 1789.64 67.5124 Q1795.55 67.5124 1798.91 62.8538 Q1802.32 58.1548 1802.32 49.9314 Z" fill="#000000" fill-rule="nonzero" fill-opacity="1" /><path clip-path="url(#clip980)" d="M1822.41 9.54393 L1829.86 9.54393 L1829.86 72.576 L1822.41 72.576 L1822.41 9.54393 Z" fill="#000000" fill-rule="nonzero" fill-opacity="1" /><path clip-path="url(#clip980)" d="M1884.27 48.0275 L1884.27 51.6733 L1849.99 51.6733 Q1850.48 59.3701 1854.61 63.421 Q1858.78 67.4314 1866.2 67.4314 Q1870.49 67.4314 1874.5 66.3781 Q1878.55 65.3249 1882.52 63.2184 L1882.52 70.267 Q1878.51 71.9684 1874.3 72.8596 Q1870.09 73.7508 1865.75 73.7508 Q1854.9 73.7508 1848.54 67.4314 Q1842.22 61.1119 1842.22 50.3365 Q1842.22 39.1965 1848.21 32.6746 Q1854.25 26.1121 1864.46 26.1121 Q1873.61 26.1121 1878.92 32.0264 Q1884.27 37.9003 1884.27 48.0275 M1876.81 45.84 Q1876.73 39.7232 1873.37 36.0774 Q1870.05 32.4315 1864.54 32.4315 Q1858.3 32.4315 1854.53 35.9558 Q1850.8 39.4801 1850.24 45.8805 L1876.81 45.84 Z" fill="#000000" fill-rule="nonzero" fill-opacity="1" /><path clip-path="url(#clip980)" d="M1932.75 27.2059 L1916.35 49.2833 L1933.61 72.576 L1924.81 72.576 L1911.61 54.752 L1898.4 72.576 L1889.61 72.576 L1907.23 48.8377 L1891.11 27.2059 L1899.9 27.2059 L1911.93 43.369 L1923.96 27.2059 L1932.75 27.2059 Z" fill="#000000" fill-rule="nonzero" fill-opacity="1" /><path clip-path="url(#clip980)" d="M1944.14 27.2059 L1951.59 27.2059 L1951.59 72.576 L1944.14 72.576 L1944.14 27.2059 M1944.14 9.54393 L1951.59 9.54393 L1951.59 18.9825 L1944.14 18.9825 L1944.14 9.54393 Z" fill="#000000" fill-rule="nonzero" fill-opacity="1" /><path clip-path="url(#clip980)" d="M1974.56 14.324 L1974.56 27.2059 L1989.91 27.2059 L1989.91 32.9987 L1974.56 32.9987 L1974.56 57.6282 Q1974.56 63.1779 1976.06 64.7578 Q1977.6 66.3376 1982.26 66.3376 L1989.91 66.3376 L1989.91 72.576 L1982.26 72.576 Q1973.63 72.576 1970.35 69.3758 Q1967.07 66.1351 1967.07 57.6282 L1967.07 32.9987 L1961.6 32.9987 L1961.6 27.2059 L1967.07 27.2059 L1967.07 14.324 L1974.56 14.324 Z" fill="#000000" fill-rule="nonzero" fill-opacity="1" /><path clip-path="url(#clip980)" d="M2018.59 76.7889 Q2015.43 84.8907 2012.44 87.3618 Q2009.44 89.8329 2004.41 89.8329 L1998.46 89.8329 L1998.46 83.5945 L2002.84 83.5945 Q2005.91 83.5945 2007.62 82.1361 Q2009.32 80.6778 2011.38 75.2496 L2012.72 71.8468 L1994.37 27.2059 L2002.27 27.2059 L2016.45 62.6918 L2030.62 27.2059 L2038.52 27.2059 L2018.59 76.7889 Z" fill="#000000" fill-rule="nonzero" fill-opacity="1" /><polyline clip-path="url(#clip982)" style="stroke:#ff0000; stroke-linecap:round; stroke-linejoin:round; stroke-width:8; stroke-opacity:1; fill:none" points="265.903,1384.62 317.854,1361.92 421.755,1310.41 629.557,1199.9 837.359,1106.61 1045.16,986.761 1252.96,863.045 1460.77,742.219 1668.57,622.946 1876.37,516.304 2084.17,464.556 2291.97,169.709 "/>
<polyline clip-path="url(#clip982)" style="stroke:#000000; stroke-linecap:round; stroke-linejoin:round; stroke-width:4; stroke-opacity:1; fill:none" points="265.903,1386.4 265.903,1382.84 "/>
<polyline clip-path="url(#clip982)" style="stroke:#000000; stroke-linecap:round; stroke-linejoin:round; stroke-width:4; stroke-opacity:1; fill:none" points="317.854,1371.23 317.854,1352.61 "/>
<polyline clip-path="url(#clip982)" style="stroke:#000000; stroke-linecap:round; stroke-linejoin:round; stroke-width:4; stroke-opacity:1; fill:none" points="421.755,1320.34 421.755,1300.49 "/>
<polyline clip-path="url(#clip982)" style="stroke:#000000; stroke-linecap:round; stroke-linejoin:round; stroke-width:4; stroke-opacity:1; fill:none" points="629.557,1212.45 629.557,1187.36 "/>
<polyline clip-path="url(#clip982)" style="stroke:#000000; stroke-linecap:round; stroke-linejoin:round; stroke-width:4; stroke-opacity:1; fill:none" points="837.359,1126.97 837.359,1086.25 "/>
<polyline clip-path="url(#clip982)" style="stroke:#000000; stroke-linecap:round; stroke-linejoin:round; stroke-width:4; stroke-opacity:1; fill:none" points="1045.16,1023.28 1045.16,950.238 "/>
<polyline clip-path="url(#clip982)" style="stroke:#000000; stroke-linecap:round; stroke-linejoin:round; stroke-width:4; stroke-opacity:1; fill:none" points="1252.96,879.997 1252.96,846.093 "/>
<polyline clip-path="url(#clip982)" style="stroke:#000000; stroke-linecap:round; stroke-linejoin:round; stroke-width:4; stroke-opacity:1; fill:none" points="1460.77,778.349 1460.77,706.089 "/>
<polyline clip-path="url(#clip982)" style="stroke:#000000; stroke-linecap:round; stroke-linejoin:round; stroke-width:4; stroke-opacity:1; fill:none" points="1668.57,672.349 1668.57,573.542 "/>
<polyline clip-path="url(#clip982)" style="stroke:#000000; stroke-linecap:round; stroke-linejoin:round; stroke-width:4; stroke-opacity:1; fill:none" points="1876.37,526.443 1876.37,506.165 "/>
<polyline clip-path="url(#clip982)" style="stroke:#000000; stroke-linecap:round; stroke-linejoin:round; stroke-width:4; stroke-opacity:1; fill:none" points="2084.17,469.011 2084.17,460.101 "/>
<polyline clip-path="url(#clip982)" style="stroke:#000000; stroke-linecap:round; stroke-linejoin:round; stroke-width:4; stroke-opacity:1; fill:none" points="2291.97,179.162 2291.97,160.256 "/>
<line clip-path="url(#clip982)" x1="281.903" y1="1386.4" x2="249.903" y2="1386.4" style="stroke:#000000; stroke-width:4; stroke-opacity:1"/>
<line clip-path="url(#clip982)" x1="281.903" y1="1382.84" x2="249.903" y2="1382.84" style="stroke:#000000; stroke-width:4; stroke-opacity:1"/>
<line clip-path="url(#clip982)" x1="333.854" y1="1371.23" x2="301.854" y2="1371.23" style="stroke:#000000; stroke-width:4; stroke-opacity:1"/>
<line clip-path="url(#clip982)" x1="333.854" y1="1352.61" x2="301.854" y2="1352.61" style="stroke:#000000; stroke-width:4; stroke-opacity:1"/>
<line clip-path="url(#clip982)" x1="437.755" y1="1320.34" x2="405.755" y2="1320.34" style="stroke:#000000; stroke-width:4; stroke-opacity:1"/>
<line clip-path="url(#clip982)" x1="437.755" y1="1300.49" x2="405.755" y2="1300.49" style="stroke:#000000; stroke-width:4; stroke-opacity:1"/>
<line clip-path="url(#clip982)" x1="645.557" y1="1212.45" x2="613.557" y2="1212.45" style="stroke:#000000; stroke-width:4; stroke-opacity:1"/>
<line clip-path="url(#clip982)" x1="645.557" y1="1187.36" x2="613.557" y2="1187.36" style="stroke:#000000; stroke-width:4; stroke-opacity:1"/>
<line clip-path="url(#clip982)" x1="853.359" y1="1126.97" x2="821.359" y2="1126.97" style="stroke:#000000; stroke-width:4; stroke-opacity:1"/>
<line clip-path="url(#clip982)" x1="853.359" y1="1086.25" x2="821.359" y2="1086.25" style="stroke:#000000; stroke-width:4; stroke-opacity:1"/>
<line clip-path="url(#clip982)" x1="1061.16" y1="1023.28" x2="1029.16" y2="1023.28" style="stroke:#000000; stroke-width:4; stroke-opacity:1"/>
<line clip-path="url(#clip982)" x1="1061.16" y1="950.238" x2="1029.16" y2="950.238" style="stroke:#000000; stroke-width:4; stroke-opacity:1"/>
<line clip-path="url(#clip982)" x1="1268.96" y1="879.997" x2="1236.96" y2="879.997" style="stroke:#000000; stroke-width:4; stroke-opacity:1"/>
<line clip-path="url(#clip982)" x1="1268.96" y1="846.093" x2="1236.96" y2="846.093" style="stroke:#000000; stroke-width:4; stroke-opacity:1"/>
<line clip-path="url(#clip982)" x1="1476.77" y1="778.349" x2="1444.77" y2="778.349" style="stroke:#000000; stroke-width:4; stroke-opacity:1"/>
<line clip-path="url(#clip982)" x1="1476.77" y1="706.089" x2="1444.77" y2="706.089" style="stroke:#000000; stroke-width:4; stroke-opacity:1"/>
<line clip-path="url(#clip982)" x1="1684.57" y1="672.349" x2="1652.57" y2="672.349" style="stroke:#000000; stroke-width:4; stroke-opacity:1"/>
<line clip-path="url(#clip982)" x1="1684.57" y1="573.542" x2="1652.57" y2="573.542" style="stroke:#000000; stroke-width:4; stroke-opacity:1"/>
<line clip-path="url(#clip982)" x1="1892.37" y1="526.443" x2="1860.37" y2="526.443" style="stroke:#000000; stroke-width:4; stroke-opacity:1"/>
<line clip-path="url(#clip982)" x1="1892.37" y1="506.165" x2="1860.37" y2="506.165" style="stroke:#000000; stroke-width:4; stroke-opacity:1"/>
<line clip-path="url(#clip982)" x1="2100.17" y1="469.011" x2="2068.17" y2="469.011" style="stroke:#000000; stroke-width:4; stroke-opacity:1"/>
<line clip-path="url(#clip982)" x1="2100.17" y1="460.101" x2="2068.17" y2="460.101" style="stroke:#000000; stroke-width:4; stroke-opacity:1"/>
<line clip-path="url(#clip982)" x1="2307.97" y1="179.162" x2="2275.97" y2="179.162" style="stroke:#000000; stroke-width:4; stroke-opacity:1"/>
<line clip-path="url(#clip982)" x1="2307.97" y1="160.256" x2="2275.97" y2="160.256" style="stroke:#000000; stroke-width:4; stroke-opacity:1"/>
<circle clip-path="url(#clip982)" cx="265.903" cy="1384.62" r="14.4" fill="#ff0000" fill-rule="evenodd" fill-opacity="1" stroke="#000000" stroke-opacity="1" stroke-width="3.2"/>
<circle clip-path="url(#clip982)" cx="317.854" cy="1361.92" r="14.4" fill="#ff0000" fill-rule="evenodd" fill-opacity="1" stroke="#000000" stroke-opacity="1" stroke-width="3.2"/>
<circle clip-path="url(#clip982)" cx="421.755" cy="1310.41" r="14.4" fill="#ff0000" fill-rule="evenodd" fill-opacity="1" stroke="#000000" stroke-opacity="1" stroke-width="3.2"/>
<circle clip-path="url(#clip982)" cx="629.557" cy="1199.9" r="14.4" fill="#ff0000" fill-rule="evenodd" fill-opacity="1" stroke="#000000" stroke-opacity="1" stroke-width="3.2"/>
<circle clip-path="url(#clip982)" cx="837.359" cy="1106.61" r="14.4" fill="#ff0000" fill-rule="evenodd" fill-opacity="1" stroke="#000000" stroke-opacity="1" stroke-width="3.2"/>
<circle clip-path="url(#clip982)" cx="1045.16" cy="986.761" r="14.4" fill="#ff0000" fill-rule="evenodd" fill-opacity="1" stroke="#000000" stroke-opacity="1" stroke-width="3.2"/>
<circle clip-path="url(#clip982)" cx="1252.96" cy="863.045" r="14.4" fill="#ff0000" fill-rule="evenodd" fill-opacity="1" stroke="#000000" stroke-opacity="1" stroke-width="3.2"/>
<circle clip-path="url(#clip982)" cx="1460.77" cy="742.219" r="14.4" fill="#ff0000" fill-rule="evenodd" fill-opacity="1" stroke="#000000" stroke-opacity="1" stroke-width="3.2"/>
<circle clip-path="url(#clip982)" cx="1668.57" cy="622.946" r="14.4" fill="#ff0000" fill-rule="evenodd" fill-opacity="1" stroke="#000000" stroke-opacity="1" stroke-width="3.2"/>
<circle clip-path="url(#clip982)" cx="1876.37" cy="516.304" r="14.4" fill="#ff0000" fill-rule="evenodd" fill-opacity="1" stroke="#000000" stroke-opacity="1" stroke-width="3.2"/>
<circle clip-path="url(#clip982)" cx="2084.17" cy="464.556" r="14.4" fill="#ff0000" fill-rule="evenodd" fill-opacity="1" stroke="#000000" stroke-opacity="1" stroke-width="3.2"/>
<circle clip-path="url(#clip982)" cx="2291.97" cy="169.709" r="14.4" fill="#ff0000" fill-rule="evenodd" fill-opacity="1" stroke="#000000" stroke-opacity="1" stroke-width="3.2"/>
</svg>
