<?xml version="1.0" encoding="utf-8"?>
<svg xmlns="http://www.w3.org/2000/svg" xmlns:xlink="http://www.w3.org/1999/xlink" width="600" height="400" viewBox="0 0 2400 1600">
<defs>
  <clipPath id="clip460">
    <rect x="0" y="0" width="2400" height="1600"/>
  </clipPath>
</defs>
<path clip-path="url(#clip460)" d="M0 1600 L2400 1600 L2400 0 L0 0  Z" fill="#ffffff" fill-rule="evenodd" fill-opacity="1"/>
<defs>
  <clipPath id="clip461">
    <rect x="480" y="0" width="1681" height="1600"/>
  </clipPath>
</defs>
<path clip-path="url(#clip460)" d="M257.579 1410.9 L2352.76 1410.9 L2352.76 123.472 L257.579 123.472  Z" fill="#ffffff" fill-rule="evenodd" fill-opacity="1"/>
<defs>
  <clipPath id="clip462">
    <rect x="257" y="123" width="2096" height="1288"/>
  </clipPath>
</defs>
<polyline clip-path="url(#clip462)" style="stroke:#000000; stroke-linecap:round; stroke-linejoin:round; stroke-width:2; stroke-opacity:0.05; fill:none" points="414.568,1410.9 414.568,123.472 "/>
<polyline clip-path="url(#clip462)" style="stroke:#000000; stroke-linecap:round; stroke-linejoin:round; stroke-width:2; stroke-opacity:0.05; fill:none" points="568.714,1410.9 568.714,123.472 "/>
<polyline clip-path="url(#clip462)" style="stroke:#000000; stroke-linecap:round; stroke-linejoin:round; stroke-width:2; stroke-opacity:0.05; fill:none" points="688.28,1410.9 688.28,123.472 "/>
<polyline clip-path="url(#clip462)" style="stroke:#000000; stroke-linecap:round; stroke-linejoin:round; stroke-width:2; stroke-opacity:0.05; fill:none" points="785.971,1410.9 785.971,123.472 "/>
<polyline clip-path="url(#clip462)" style="stroke:#000000; stroke-linecap:round; stroke-linejoin:round; stroke-width:2; stroke-opacity:0.05; fill:none" points="868.569,1410.9 868.569,123.472 "/>
<polyline clip-path="url(#clip462)" style="stroke:#000000; stroke-linecap:round; stroke-linejoin:round; stroke-width:2; stroke-opacity:0.05; fill:none" points="940.118,1410.9 940.118,123.472 "/>
<polyline clip-path="url(#clip462)" style="stroke:#000000; stroke-linecap:round; stroke-linejoin:round; stroke-width:2; stroke-opacity:0.05; fill:none" points="1003.23,1410.9 1003.23,123.472 "/>
<polyline clip-path="url(#clip462)" style="stroke:#000000; stroke-linecap:round; stroke-linejoin:round; stroke-width:2; stroke-opacity:0.05; fill:none" points="1431.09,1410.9 1431.09,123.472 "/>
<polyline clip-path="url(#clip462)" style="stroke:#000000; stroke-linecap:round; stroke-linejoin:round; stroke-width:2; stroke-opacity:0.05; fill:none" points="1648.34,1410.9 1648.34,123.472 "/>
<polyline clip-path="url(#clip462)" style="stroke:#000000; stroke-linecap:round; stroke-linejoin:round; stroke-width:2; stroke-opacity:0.05; fill:none" points="1802.49,1410.9 1802.49,123.472 "/>
<polyline clip-path="url(#clip462)" style="stroke:#000000; stroke-linecap:round; stroke-linejoin:round; stroke-width:2; stroke-opacity:0.05; fill:none" points="1922.06,1410.9 1922.06,123.472 "/>
<polyline clip-path="url(#clip462)" style="stroke:#000000; stroke-linecap:round; stroke-linejoin:round; stroke-width:2; stroke-opacity:0.05; fill:none" points="2019.75,1410.9 2019.75,123.472 "/>
<polyline clip-path="url(#clip462)" style="stroke:#000000; stroke-linecap:round; stroke-linejoin:round; stroke-width:2; stroke-opacity:0.05; fill:none" points="2102.34,1410.9 2102.34,123.472 "/>
<polyline clip-path="url(#clip462)" style="stroke:#000000; stroke-linecap:round; stroke-linejoin:round; stroke-width:2; stroke-opacity:0.05; fill:none" points="2173.89,1410.9 2173.89,123.472 "/>
<polyline clip-path="url(#clip462)" style="stroke:#000000; stroke-linecap:round; stroke-linejoin:round; stroke-width:2; stroke-opacity:0.05; fill:none" points="2237,1410.9 2237,123.472 "/>
<polyline clip-path="url(#clip462)" style="stroke:#000000; stroke-linecap:round; stroke-linejoin:round; stroke-width:2; stroke-opacity:0.1; fill:none" points="1059.68,1410.9 1059.68,123.472 "/>
<polyline clip-path="url(#clip462)" style="stroke:#000000; stroke-linecap:round; stroke-linejoin:round; stroke-width:2; stroke-opacity:0.1; fill:none" points="2293.46,1410.9 2293.46,123.472 "/>
<polyline clip-path="url(#clip462)" style="stroke:#000000; stroke-linecap:round; stroke-linejoin:round; stroke-width:2; stroke-opacity:0.1; fill:none" points="257.579,1199.9 2352.76,1199.9 "/>
<polyline clip-path="url(#clip462)" style="stroke:#000000; stroke-linecap:round; stroke-linejoin:round; stroke-width:2; stroke-opacity:0.1; fill:none" points="257.579,800.989 2352.76,800.989 "/>
<polyline clip-path="url(#clip462)" style="stroke:#000000; stroke-linecap:round; stroke-linejoin:round; stroke-width:2; stroke-opacity:0.1; fill:none" points="257.579,402.074 2352.76,402.074 "/>
<polyline clip-path="url(#clip460)" style="stroke:#000000; stroke-linecap:round; stroke-linejoin:round; stroke-width:4; stroke-opacity:1; fill:none" points="257.579,1410.9 2352.76,1410.9 "/>
<polyline clip-path="url(#clip460)" style="stroke:#000000; stroke-linecap:round; stroke-linejoin:round; stroke-width:4; stroke-opacity:1; fill:none" points="1059.68,1410.9 1059.68,1392 "/>
<polyline clip-path="url(#clip460)" style="stroke:#000000; stroke-linecap:round; stroke-linejoin:round; stroke-width:4; stroke-opacity:1; fill:none" points="2293.46,1410.9 2293.46,1392 "/>
<polyline clip-path="url(#clip460)" style="stroke:#000000; stroke-linecap:round; stroke-linejoin:round; stroke-width:4; stroke-opacity:1; fill:none" points="414.568,1410.9 414.568,1401.45 "/>
<polyline clip-path="url(#clip460)" style="stroke:#000000; stroke-linecap:round; stroke-linejoin:round; stroke-width:4; stroke-opacity:1; fill:none" points="568.714,1410.9 568.714,1401.45 "/>
<polyline clip-path="url(#clip460)" style="stroke:#000000; stroke-linecap:round; stroke-linejoin:round; stroke-width:4; stroke-opacity:1; fill:none" points="688.28,1410.9 688.28,1401.45 "/>
<polyline clip-path="url(#clip460)" style="stroke:#000000; stroke-linecap:round; stroke-linejoin:round; stroke-width:4; stroke-opacity:1; fill:none" points="785.971,1410.9 785.971,1401.45 "/>
<polyline clip-path="url(#clip460)" style="stroke:#000000; stroke-linecap:round; stroke-linejoin:round; stroke-width:4; stroke-opacity:1; fill:none" points="868.569,1410.9 868.569,1401.45 "/>
<polyline clip-path="url(#clip460)" style="stroke:#000000; stroke-linecap:round; stroke-linejoin:round; stroke-width:4; stroke-opacity:1; fill:none" points="940.118,1410.9 940.118,1401.45 "/>
<polyline clip-path="url(#clip460)" style="stroke:#000000; stroke-linecap:round; stroke-linejoin:round; stroke-width:4; stroke-opacity:1; fill:none" points="1003.23,1410.9 1003.23,1401.45 "/>
<polyline clip-path="url(#clip460)" style="stroke:#000000; stroke-linecap:round; stroke-linejoin:round; stroke-width:4; stroke-opacity:1; fill:none" points="1431.09,1410.9 1431.09,1401.45 "/>
<polyline clip-path="url(#clip460)" style="stroke:#000000; stroke-linecap:round; stroke-linejoin:round; stroke-width:4; stroke-opacity:1; fill:none" points="1648.34,1410.9 1648.34,1401.45 "/>
<polyline clip-path="url(#clip460)" style="stroke:#000000; stroke-linecap:round; stroke-linejoin:round; stroke-width:4; stroke-opacity:1; fill:none" points="1802.49,1410.9 1802.49,1401.45 "/>
<polyline clip-path="url(#clip460)" style="stroke:#000000; stroke-linecap:round; stroke-linejoin:round; stroke-width:4; stroke-opacity:1; fill:none" points="1922.06,1410.9 1922.06,1401.45 "/>
<polyline clip-path="url(#clip460)" style="stroke:#000000; stroke-linecap:round; stroke-linejoin:round; stroke-width:4; stroke-opacity:1; fill:none" points="2019.75,1410.9 2019.75,1401.45 "/>
<polyline clip-path="url(#clip460)" style="stroke:#000000; stroke-linecap:round; stroke-linejoin:round; stroke-width:4; stroke-opacity:1; fill:none" points="2102.34,1410.9 2102.34,1401.45 "/>
<polyline clip-path="url(#clip460)" style="stroke:#000000; stroke-linecap:round; stroke-linejoin:round; stroke-width:4; stroke-opacity:1; fill:none" points="2173.89,1410.9 2173.89,1401.45 "/>
<polyline clip-path="url(#clip460)" style="stroke:#000000; stroke-linecap:round; stroke-linejoin:round; stroke-width:4; stroke-opacity:1; fill:none" points="2237,1410.9 2237,1401.45 "/>
<path clip-path="url(#clip460)" d="M1025.46 1485.02 L1033.09 1485.02 L1033.09 1458.66 L1024.78 1460.32 L1024.78 1456.06 L1033.05 1454.4 L1037.72 1454.4 L1037.72 1485.02 L1045.36 1485.02 L1045.36 1488.96 L1025.46 1488.96 L1025.46 1485.02 Z" fill="#000000" fill-rule="nonzero" fill-opacity="1" /><path clip-path="url(#clip460)" d="M1064.81 1457.48 Q1061.2 1457.48 1059.37 1461.04 Q1057.56 1464.58 1057.56 1471.71 Q1057.56 1478.82 1059.37 1482.38 Q1061.2 1485.92 1064.81 1485.92 Q1068.44 1485.92 1070.25 1482.38 Q1072.08 1478.82 1072.08 1471.71 Q1072.08 1464.58 1070.25 1461.04 Q1068.44 1457.48 1064.81 1457.48 M1064.81 1453.77 Q1070.62 1453.77 1073.67 1458.38 Q1076.75 1462.96 1076.75 1471.71 Q1076.75 1480.44 1073.67 1485.04 Q1070.62 1489.63 1064.81 1489.63 Q1059 1489.63 1055.92 1485.04 Q1052.86 1480.44 1052.86 1471.71 Q1052.86 1462.96 1055.92 1458.38 Q1059 1453.77 1064.81 1453.77 Z" fill="#000000" fill-rule="nonzero" fill-opacity="1" /><path clip-path="url(#clip460)" d="M1081.32 1458.35 L1094.58 1458.35 L1094.58 1461.55 L1076.75 1461.55 L1076.75 1458.35 Q1078.91 1456.11 1082.64 1452.35 Q1086.38 1448.57 1087.34 1447.48 Q1089.16 1445.43 1089.88 1444.02 Q1090.61 1442.59 1090.61 1441.22 Q1090.61 1438.98 1089.03 1437.57 Q1087.47 1436.16 1084.95 1436.16 Q1083.17 1436.16 1081.17 1436.78 Q1079.2 1437.4 1076.94 1438.66 L1076.94 1434.82 Q1079.23 1433.9 1081.23 1433.43 Q1083.22 1432.96 1084.88 1432.96 Q1089.24 1432.96 1091.84 1435.14 Q1094.43 1437.32 1094.43 1440.97 Q1094.43 1442.7 1093.77 1444.26 Q1093.13 1445.8 1091.42 1447.91 Q1090.95 1448.46 1088.43 1451.07 Q1085.91 1453.67 1081.32 1458.35 Z" fill="#000000" fill-rule="nonzero" fill-opacity="1" /><path clip-path="url(#clip460)" d="M2258.9 1485.02 L2266.54 1485.02 L2266.54 1458.66 L2258.23 1460.32 L2258.23 1456.06 L2266.49 1454.4 L2271.17 1454.4 L2271.17 1485.02 L2278.81 1485.02 L2278.81 1488.96 L2258.9 1488.96 L2258.9 1485.02 Z" fill="#000000" fill-rule="nonzero" fill-opacity="1" /><path clip-path="url(#clip460)" d="M2298.25 1457.48 Q2294.64 1457.48 2292.81 1461.04 Q2291.01 1464.58 2291.01 1471.71 Q2291.01 1478.82 2292.81 1482.38 Q2294.64 1485.92 2298.25 1485.92 Q2301.89 1485.92 2303.69 1482.38 Q2305.52 1478.82 2305.52 1471.71 Q2305.52 1464.58 2303.69 1461.04 Q2301.89 1457.48 2298.25 1457.48 M2298.25 1453.77 Q2304.06 1453.77 2307.12 1458.38 Q2310.2 1462.96 2310.2 1471.71 Q2310.2 1480.44 2307.12 1485.04 Q2304.06 1489.63 2298.25 1489.63 Q2292.44 1489.63 2289.36 1485.04 Q2286.31 1480.44 2286.31 1471.71 Q2286.31 1462.96 2289.36 1458.38 Q2292.44 1453.77 2298.25 1453.77 Z" fill="#000000" fill-rule="nonzero" fill-opacity="1" /><path clip-path="url(#clip460)" d="M2322.89 1446.41 Q2325.62 1446.99 2327.14 1448.83 Q2328.69 1450.68 2328.69 1453.38 Q2328.69 1457.54 2325.83 1459.82 Q2322.97 1462.09 2317.7 1462.09 Q2315.93 1462.09 2314.05 1461.73 Q2312.19 1461.4 2310.2 1460.7 L2310.2 1457.03 Q2311.78 1457.95 2313.66 1458.42 Q2315.54 1458.89 2317.59 1458.89 Q2321.16 1458.89 2323.02 1457.48 Q2324.91 1456.07 2324.91 1453.38 Q2324.91 1450.9 2323.16 1449.51 Q2321.43 1448.1 2318.32 1448.1 L2315.05 1448.1 L2315.05 1444.98 L2318.47 1444.98 Q2321.28 1444.98 2322.76 1443.87 Q2324.25 1442.74 2324.25 1440.63 Q2324.25 1438.47 2322.71 1437.32 Q2321.18 1436.16 2318.32 1436.16 Q2316.76 1436.16 2314.98 1436.49 Q2313.19 1436.83 2311.04 1437.55 L2311.04 1434.16 Q2313.21 1433.56 2315.09 1433.26 Q2316.99 1432.96 2318.66 1432.96 Q2322.99 1432.96 2325.51 1434.93 Q2328.03 1436.89 2328.03 1440.24 Q2328.03 1442.57 2326.69 1444.19 Q2325.36 1445.79 2322.89 1446.41 Z" fill="#000000" fill-rule="nonzero" fill-opacity="1" /><path clip-path="url(#clip460)" d="M1057.97 1528.42 L1057.97 1538.54 L1070.03 1538.54 L1070.03 1543.09 L1057.97 1543.09 L1057.97 1562.44 Q1057.97 1566.8 1059.15 1568.04 Q1060.36 1569.28 1064.02 1569.28 L1070.03 1569.28 L1070.03 1574.19 L1064.02 1574.19 Q1057.24 1574.19 1054.66 1571.67 Q1052.08 1569.12 1052.08 1562.44 L1052.08 1543.09 L1047.79 1543.09 L1047.79 1538.54 L1052.08 1538.54 L1052.08 1528.42 L1057.97 1528.42 Z" fill="#000000" fill-rule="nonzero" fill-opacity="1" /><path clip-path="url(#clip460)" d="M1098.39 1544.01 Q1097.41 1543.44 1096.23 1543.18 Q1095.08 1542.9 1093.68 1542.9 Q1088.72 1542.9 1086.04 1546.14 Q1083.4 1549.36 1083.4 1555.41 L1083.4 1574.19 L1077.51 1574.19 L1077.51 1538.54 L1083.4 1538.54 L1083.4 1544.08 Q1085.25 1540.83 1088.21 1539.27 Q1091.17 1537.68 1095.4 1537.68 Q1096.01 1537.68 1096.74 1537.77 Q1097.47 1537.84 1098.36 1538 L1098.39 1544.01 Z" fill="#000000" fill-rule="nonzero" fill-opacity="1" /><path clip-path="url(#clip460)" d="M1120.74 1556.27 Q1113.64 1556.27 1110.9 1557.89 Q1108.16 1559.51 1108.16 1563.43 Q1108.16 1566.55 1110.2 1568.39 Q1112.27 1570.21 1115.8 1570.21 Q1120.67 1570.21 1123.6 1566.77 Q1126.56 1563.3 1126.56 1557.57 L1126.56 1556.27 L1120.74 1556.27 M1132.42 1553.85 L1132.42 1574.19 L1126.56 1574.19 L1126.56 1568.77 Q1124.56 1572.02 1121.56 1573.58 Q1118.57 1575.11 1114.24 1575.11 Q1108.77 1575.11 1105.52 1572.05 Q1102.31 1568.97 1102.31 1563.81 Q1102.31 1557.79 1106.32 1554.74 Q1110.36 1551.68 1118.35 1551.68 L1126.56 1551.68 L1126.56 1551.11 Q1126.56 1547.07 1123.89 1544.87 Q1121.25 1542.64 1116.44 1542.64 Q1113.38 1542.64 1110.49 1543.38 Q1107.59 1544.11 1104.92 1545.57 L1104.92 1540.16 Q1108.13 1538.92 1111.16 1538.31 Q1114.18 1537.68 1117.04 1537.68 Q1124.78 1537.68 1128.6 1541.69 Q1132.42 1545.7 1132.42 1553.85 Z" fill="#000000" fill-rule="nonzero" fill-opacity="1" /><path clip-path="url(#clip460)" d="M1144.48 1538.54 L1150.34 1538.54 L1150.34 1574.19 L1144.48 1574.19 L1144.48 1538.54 M1144.48 1524.66 L1150.34 1524.66 L1150.34 1532.08 L1144.48 1532.08 L1144.48 1524.66 Z" fill="#000000" fill-rule="nonzero" fill-opacity="1" /><path clip-path="url(#clip460)" d="M1192.22 1552.67 L1192.22 1574.19 L1186.37 1574.19 L1186.37 1552.86 Q1186.37 1547.8 1184.39 1545.29 Q1182.42 1542.77 1178.47 1542.77 Q1173.73 1542.77 1170.99 1545.79 Q1168.26 1548.82 1168.26 1554.04 L1168.26 1574.19 L1162.37 1574.19 L1162.37 1538.54 L1168.26 1538.54 L1168.26 1544.08 Q1170.36 1540.86 1173.19 1539.27 Q1176.05 1537.68 1179.78 1537.68 Q1185.92 1537.68 1189.07 1541.5 Q1192.22 1545.29 1192.22 1552.67 Z" fill="#000000" fill-rule="nonzero" fill-opacity="1" /><path clip-path="url(#clip460)" d="M1203.9 1538.54 L1209.76 1538.54 L1209.76 1574.19 L1203.9 1574.19 L1203.9 1538.54 M1203.9 1524.66 L1209.76 1524.66 L1209.76 1532.08 L1203.9 1532.08 L1203.9 1524.66 Z" fill="#000000" fill-rule="nonzero" fill-opacity="1" /><path clip-path="url(#clip460)" d="M1251.65 1552.67 L1251.65 1574.19 L1245.79 1574.19 L1245.79 1552.86 Q1245.79 1547.8 1243.82 1545.29 Q1241.84 1542.77 1237.9 1542.77 Q1233.16 1542.77 1230.42 1545.79 Q1227.68 1548.82 1227.68 1554.04 L1227.68 1574.19 L1221.79 1574.19 L1221.79 1538.54 L1227.68 1538.54 L1227.68 1544.08 Q1229.78 1540.86 1232.61 1539.27 Q1235.48 1537.68 1239.2 1537.68 Q1245.35 1537.68 1248.5 1541.5 Q1251.65 1545.29 1251.65 1552.67 Z" fill="#000000" fill-rule="nonzero" fill-opacity="1" /><path clip-path="url(#clip460)" d="M1286.79 1555.95 Q1286.79 1549.58 1284.14 1546.08 Q1281.53 1542.58 1276.79 1542.58 Q1272.08 1542.58 1269.44 1546.08 Q1266.83 1549.58 1266.83 1555.95 Q1266.83 1562.28 1269.44 1565.78 Q1272.08 1569.28 1276.79 1569.28 Q1281.53 1569.28 1284.14 1565.78 Q1286.79 1562.28 1286.79 1555.95 M1292.64 1569.76 Q1292.64 1578.86 1288.6 1583.29 Q1284.56 1587.74 1276.22 1587.74 Q1273.13 1587.74 1270.39 1587.27 Q1267.66 1586.82 1265.08 1585.87 L1265.08 1580.17 Q1267.66 1581.57 1270.17 1582.24 Q1272.69 1582.91 1275.3 1582.91 Q1281.06 1582.91 1283.92 1579.88 Q1286.79 1576.89 1286.79 1570.81 L1286.79 1567.92 Q1284.97 1571.07 1282.14 1572.63 Q1279.31 1574.19 1275.36 1574.19 Q1268.8 1574.19 1264.79 1569.19 Q1260.78 1564.19 1260.78 1555.95 Q1260.78 1547.67 1264.79 1542.68 Q1268.8 1537.68 1275.36 1537.68 Q1279.31 1537.68 1282.14 1539.24 Q1284.97 1540.8 1286.79 1543.95 L1286.79 1538.54 L1292.64 1538.54 L1292.64 1569.76 Z" fill="#000000" fill-rule="nonzero" fill-opacity="1" /><path clip-path="url(#clip460)" d="M1348.15 1539.59 L1348.15 1545.13 Q1345.67 1543.85 1343 1543.22 Q1340.32 1542.58 1337.46 1542.58 Q1333.1 1542.58 1330.9 1543.92 Q1328.74 1545.25 1328.74 1547.93 Q1328.74 1549.96 1330.3 1551.14 Q1331.86 1552.29 1336.57 1553.34 L1338.57 1553.78 Q1344.81 1555.12 1347.42 1557.57 Q1350.06 1559.99 1350.06 1564.35 Q1350.06 1569.32 1346.11 1572.21 Q1342.2 1575.11 1335.32 1575.11 Q1332.46 1575.11 1329.34 1574.54 Q1326.25 1573.99 1322.82 1572.88 L1322.82 1566.83 Q1326.06 1568.52 1329.21 1569.38 Q1332.36 1570.21 1335.45 1570.21 Q1339.59 1570.21 1341.82 1568.81 Q1344.05 1567.37 1344.05 1564.8 Q1344.05 1562.41 1342.42 1561.14 Q1340.83 1559.86 1335.39 1558.68 L1333.35 1558.21 Q1327.91 1557.06 1325.49 1554.71 Q1323.07 1552.32 1323.07 1548.18 Q1323.07 1543.15 1326.64 1540.42 Q1330.2 1537.68 1336.76 1537.68 Q1340 1537.68 1342.87 1538.16 Q1345.73 1538.63 1348.15 1539.59 Z" fill="#000000" fill-rule="nonzero" fill-opacity="1" /><path clip-path="url(#clip460)" d="M1389.88 1554.9 L1389.88 1557.76 L1362.95 1557.76 Q1363.33 1563.81 1366.58 1566.99 Q1369.86 1570.14 1375.68 1570.14 Q1379.06 1570.14 1382.21 1569.32 Q1385.39 1568.49 1388.51 1566.83 L1388.51 1572.37 Q1385.36 1573.71 1382.05 1574.41 Q1378.74 1575.11 1375.33 1575.11 Q1366.8 1575.11 1361.81 1570.14 Q1356.84 1565.18 1356.84 1556.71 Q1356.84 1547.96 1361.55 1542.83 Q1366.29 1537.68 1374.31 1537.68 Q1381.51 1537.68 1385.68 1542.33 Q1389.88 1546.94 1389.88 1554.9 M1384.02 1553.18 Q1383.96 1548.37 1381.32 1545.51 Q1378.71 1542.64 1374.38 1542.64 Q1369.48 1542.64 1366.52 1545.41 Q1363.59 1548.18 1363.14 1553.21 L1384.02 1553.18 Z" fill="#000000" fill-rule="nonzero" fill-opacity="1" /><path clip-path="url(#clip460)" d="M1405.28 1528.42 L1405.28 1538.54 L1417.35 1538.54 L1417.35 1543.09 L1405.28 1543.09 L1405.28 1562.44 Q1405.28 1566.8 1406.46 1568.04 Q1407.67 1569.28 1411.33 1569.28 L1417.35 1569.28 L1417.35 1574.19 L1411.33 1574.19 Q1404.55 1574.19 1401.97 1571.67 Q1399.4 1569.12 1399.4 1562.44 L1399.4 1543.09 L1395.1 1543.09 L1395.1 1538.54 L1399.4 1538.54 L1399.4 1528.42 L1405.28 1528.42 Z" fill="#000000" fill-rule="nonzero" fill-opacity="1" /><path clip-path="url(#clip460)" d="M1468.5 1539.59 L1468.5 1545.13 Q1466.01 1543.85 1463.34 1543.22 Q1460.67 1542.58 1457.8 1542.58 Q1453.44 1542.58 1451.24 1543.92 Q1449.08 1545.25 1449.08 1547.93 Q1449.08 1549.96 1450.64 1551.14 Q1452.2 1552.29 1456.91 1553.34 L1458.92 1553.78 Q1465.15 1555.12 1467.76 1557.57 Q1470.41 1559.99 1470.41 1564.35 Q1470.41 1569.32 1466.46 1572.21 Q1462.54 1575.11 1455.67 1575.11 Q1452.8 1575.11 1449.68 1574.54 Q1446.6 1573.99 1443.16 1572.88 L1443.16 1566.83 Q1446.41 1568.52 1449.56 1569.38 Q1452.71 1570.21 1455.8 1570.21 Q1459.93 1570.21 1462.16 1568.81 Q1464.39 1567.37 1464.39 1564.8 Q1464.39 1562.41 1462.77 1561.14 Q1461.17 1559.86 1455.73 1558.68 L1453.7 1558.21 Q1448.25 1557.06 1445.83 1554.71 Q1443.41 1552.32 1443.41 1548.18 Q1443.41 1543.15 1446.98 1540.42 Q1450.54 1537.68 1457.1 1537.68 Q1460.35 1537.68 1463.21 1538.16 Q1466.08 1538.63 1468.5 1539.59 Z" fill="#000000" fill-rule="nonzero" fill-opacity="1" /><path clip-path="url(#clip460)" d="M1479.73 1538.54 L1485.59 1538.54 L1485.59 1574.19 L1479.73 1574.19 L1479.73 1538.54 M1479.73 1524.66 L1485.59 1524.66 L1485.59 1532.08 L1479.73 1532.08 L1479.73 1524.66 Z" fill="#000000" fill-rule="nonzero" fill-opacity="1" /><path clip-path="url(#clip460)" d="M1495.3 1538.54 L1523.11 1538.54 L1523.11 1543.88 L1501.09 1569.51 L1523.11 1569.51 L1523.11 1574.19 L1494.5 1574.19 L1494.5 1568.84 L1516.52 1543.22 L1495.3 1543.22 L1495.3 1538.54 Z" fill="#000000" fill-rule="nonzero" fill-opacity="1" /><path clip-path="url(#clip460)" d="M1562.55 1554.9 L1562.55 1557.76 L1535.62 1557.76 Q1536 1563.81 1539.25 1566.99 Q1542.53 1570.14 1548.35 1570.14 Q1551.73 1570.14 1554.88 1569.32 Q1558.06 1568.49 1561.18 1566.83 L1561.18 1572.37 Q1558.03 1573.71 1554.72 1574.41 Q1551.41 1575.11 1548 1575.11 Q1539.47 1575.11 1534.48 1570.14 Q1529.51 1565.18 1529.51 1556.71 Q1529.51 1547.96 1534.22 1542.83 Q1538.96 1537.68 1546.98 1537.68 Q1554.18 1537.68 1558.35 1542.33 Q1562.55 1546.94 1562.55 1554.9 M1556.69 1553.18 Q1556.63 1548.37 1553.99 1545.51 Q1551.38 1542.64 1547.05 1542.64 Q1542.15 1542.64 1539.19 1545.41 Q1536.26 1548.18 1535.81 1553.21 L1556.69 1553.18 Z" fill="#000000" fill-rule="nonzero" fill-opacity="1" /><polyline clip-path="url(#clip460)" style="stroke:#000000; stroke-linecap:round; stroke-linejoin:round; stroke-width:4; stroke-opacity:1; fill:none" points="257.579,1410.9 257.579,123.472 "/>
<polyline clip-path="url(#clip460)" style="stroke:#000000; stroke-linecap:round; stroke-linejoin:round; stroke-width:4; stroke-opacity:1; fill:none" points="257.579,1199.9 276.476,1199.9 "/>
<polyline clip-path="url(#clip460)" style="stroke:#000000; stroke-linecap:round; stroke-linejoin:round; stroke-width:4; stroke-opacity:1; fill:none" points="257.579,800.989 276.476,800.989 "/>
<polyline clip-path="url(#clip460)" style="stroke:#000000; stroke-linecap:round; stroke-linejoin:round; stroke-width:4; stroke-opacity:1; fill:none" points="257.579,402.074 276.476,402.074 "/>
<path clip-path="url(#clip460)" d="M114.931 1219.7 L122.57 1219.7 L122.57 1193.33 L114.26 1195 L114.26 1190.74 L122.524 1189.07 L127.2 1189.07 L127.2 1219.7 L134.839 1219.7 L134.839 1223.63 L114.931 1223.63 L114.931 1219.7 Z" fill="#000000" fill-rule="nonzero" fill-opacity="1" /><path clip-path="url(#clip460)" d="M154.283 1192.15 Q150.672 1192.15 148.843 1195.71 Q147.038 1199.26 147.038 1206.39 Q147.038 1213.49 148.843 1217.06 Q150.672 1220.6 154.283 1220.6 Q157.917 1220.6 159.723 1217.06 Q161.552 1213.49 161.552 1206.39 Q161.552 1199.26 159.723 1195.71 Q157.917 1192.15 154.283 1192.15 M154.283 1188.45 Q160.093 1188.45 163.149 1193.05 Q166.227 1197.64 166.227 1206.39 Q166.227 1215.11 163.149 1219.72 Q160.093 1224.3 154.283 1224.3 Q148.473 1224.3 145.394 1219.72 Q142.339 1215.11 142.339 1206.39 Q142.339 1197.64 145.394 1193.05 Q148.473 1188.45 154.283 1188.45 Z" fill="#000000" fill-rule="nonzero" fill-opacity="1" /><path clip-path="url(#clip460)" d="M175.932 1170.64 Q172.998 1170.64 171.512 1173.54 Q170.045 1176.42 170.045 1182.21 Q170.045 1187.98 171.512 1190.88 Q172.998 1193.76 175.932 1193.76 Q178.885 1193.76 180.352 1190.88 Q181.838 1187.98 181.838 1182.21 Q181.838 1176.42 180.352 1173.54 Q178.885 1170.64 175.932 1170.64 M175.932 1167.63 Q180.653 1167.63 183.136 1171.38 Q185.637 1175.1 185.637 1182.21 Q185.637 1189.3 183.136 1193.04 Q180.653 1196.77 175.932 1196.77 Q171.212 1196.77 168.71 1193.04 Q166.227 1189.3 166.227 1182.21 Q166.227 1175.1 168.71 1171.38 Q171.212 1167.63 175.932 1167.63 Z" fill="#000000" fill-rule="nonzero" fill-opacity="1" /><path clip-path="url(#clip460)" d="M192.314 1191.44 L196.282 1191.44 L196.282 1196.22 L192.314 1196.22 L192.314 1191.44 Z" fill="#000000" fill-rule="nonzero" fill-opacity="1" /><path clip-path="url(#clip460)" d="M204.595 1168.14 L219.51 1168.14 L219.51 1171.34 L208.075 1171.34 L208.075 1178.22 Q208.902 1177.94 209.73 1177.81 Q210.557 1177.66 211.385 1177.66 Q216.087 1177.66 218.833 1180.23 Q221.579 1182.81 221.579 1187.21 Q221.579 1191.74 218.758 1194.26 Q215.936 1196.77 210.802 1196.77 Q209.034 1196.77 207.191 1196.46 Q205.366 1196.16 203.41 1195.56 L203.41 1191.74 Q205.103 1192.67 206.909 1193.12 Q208.714 1193.57 210.727 1193.57 Q213.98 1193.57 215.88 1191.86 Q217.78 1190.15 217.78 1187.21 Q217.78 1184.28 215.88 1182.57 Q213.98 1180.85 210.727 1180.85 Q209.203 1180.85 207.68 1181.19 Q206.175 1181.53 204.595 1182.25 L204.595 1168.14 Z" fill="#000000" fill-rule="nonzero" fill-opacity="1" /><path clip-path="url(#clip460)" d="M115.815 820.781 L123.454 820.781 L123.454 794.416 L115.144 796.082 L115.144 791.823 L123.408 790.156 L128.084 790.156 L128.084 820.781 L135.723 820.781 L135.723 824.716 L115.815 824.716 L115.815 820.781 Z" fill="#000000" fill-rule="nonzero" fill-opacity="1" /><path clip-path="url(#clip460)" d="M155.167 793.235 Q151.556 793.235 149.727 796.8 Q147.922 800.341 147.922 807.471 Q147.922 814.577 149.727 818.142 Q151.556 821.684 155.167 821.684 Q158.801 821.684 160.607 818.142 Q162.436 814.577 162.436 807.471 Q162.436 800.341 160.607 796.8 Q158.801 793.235 155.167 793.235 M155.167 789.531 Q160.977 789.531 164.033 794.138 Q167.111 798.721 167.111 807.471 Q167.111 816.198 164.033 820.804 Q160.977 825.388 155.167 825.388 Q149.357 825.388 146.278 820.804 Q143.223 816.198 143.223 807.471 Q143.223 798.721 146.278 794.138 Q149.357 789.531 155.167 789.531 Z" fill="#000000" fill-rule="nonzero" fill-opacity="1" /><path clip-path="url(#clip460)" d="M167.657 794.109 L173.863 794.109 L173.863 772.687 L167.111 774.041 L167.111 770.58 L173.826 769.226 L177.625 769.226 L177.625 794.109 L183.832 794.109 L183.832 797.306 L167.657 797.306 L167.657 794.109 Z" fill="#000000" fill-rule="nonzero" fill-opacity="1" /><path clip-path="url(#clip460)" d="M191.505 792.529 L195.474 792.529 L195.474 797.306 L191.505 797.306 L191.505 792.529 Z" fill="#000000" fill-rule="nonzero" fill-opacity="1" /><path clip-path="url(#clip460)" d="M211.874 771.727 Q208.94 771.727 207.454 774.624 Q205.987 777.501 205.987 783.294 Q205.987 789.068 207.454 791.965 Q208.94 794.842 211.874 794.842 Q214.827 794.842 216.294 791.965 Q217.78 789.068 217.78 783.294 Q217.78 777.501 216.294 774.624 Q214.827 771.727 211.874 771.727 M211.874 768.718 Q216.595 768.718 219.077 772.461 Q221.579 776.185 221.579 783.294 Q221.579 790.385 219.077 794.127 Q216.595 797.851 211.874 797.851 Q207.153 797.851 204.652 794.127 Q202.169 790.385 202.169 783.294 Q202.169 776.185 204.652 772.461 Q207.153 768.718 211.874 768.718 Z" fill="#000000" fill-rule="nonzero" fill-opacity="1" /><path clip-path="url(#clip460)" d="M116.624 421.867 L124.263 421.867 L124.263 395.501 L115.953 397.168 L115.953 392.909 L124.217 391.242 L128.893 391.242 L128.893 421.867 L136.531 421.867 L136.531 425.802 L116.624 425.802 L116.624 421.867 Z" fill="#000000" fill-rule="nonzero" fill-opacity="1" /><path clip-path="url(#clip460)" d="M155.976 394.321 Q152.365 394.321 150.536 397.885 Q148.73 401.427 148.73 408.557 Q148.73 415.663 150.536 419.228 Q152.365 422.77 155.976 422.77 Q159.61 422.77 161.416 419.228 Q163.244 415.663 163.244 408.557 Q163.244 401.427 161.416 397.885 Q159.61 394.321 155.976 394.321 M155.976 390.617 Q161.786 390.617 164.841 395.223 Q167.92 399.807 167.92 408.557 Q167.92 417.284 164.841 421.89 Q161.786 426.473 155.976 426.473 Q150.166 426.473 147.087 421.89 Q144.031 417.284 144.031 408.557 Q144.031 399.807 147.087 395.223 Q150.166 390.617 155.976 390.617 Z" fill="#000000" fill-rule="nonzero" fill-opacity="1" /><path clip-path="url(#clip460)" d="M168.466 395.194 L174.672 395.194 L174.672 373.772 L167.92 375.126 L167.92 371.666 L174.635 370.312 L178.434 370.312 L178.434 395.194 L184.64 395.194 L184.64 398.392 L168.466 398.392 L168.466 395.194 Z" fill="#000000" fill-rule="nonzero" fill-opacity="1" /><path clip-path="url(#clip460)" d="M192.314 393.614 L196.282 393.614 L196.282 398.392 L192.314 398.392 L192.314 393.614 Z" fill="#000000" fill-rule="nonzero" fill-opacity="1" /><path clip-path="url(#clip460)" d="M204.595 370.312 L219.51 370.312 L219.51 373.509 L208.075 373.509 L208.075 380.393 Q208.902 380.11 209.73 379.979 Q210.557 379.828 211.385 379.828 Q216.087 379.828 218.833 382.405 Q221.579 384.982 221.579 389.383 Q221.579 393.915 218.758 396.436 Q215.936 398.937 210.802 398.937 Q209.034 398.937 207.191 398.636 Q205.366 398.335 203.41 397.733 L203.41 393.915 Q205.103 394.837 206.909 395.288 Q208.714 395.74 210.727 395.74 Q213.98 395.74 215.88 394.028 Q217.78 392.317 217.78 389.383 Q217.78 386.449 215.88 384.737 Q213.98 383.026 210.727 383.026 Q209.203 383.026 207.68 383.364 Q206.175 383.703 204.595 384.417 L204.595 370.312 Z" fill="#000000" fill-rule="nonzero" fill-opacity="1" /><path clip-path="url(#clip460)" d="M35.1993 1099.27 Q31.2526 1097.07 29.3747 1094.02 Q27.4968 1090.96 27.4968 1086.82 Q27.4968 1081.25 31.4117 1078.23 Q35.2948 1075.21 42.4881 1075.21 L64.0042 1075.21 L64.0042 1081.09 L42.679 1081.09 Q37.5546 1081.09 35.072 1082.91 Q32.5894 1084.72 32.5894 1088.45 Q32.5894 1093 35.6131 1095.64 Q38.6368 1098.28 43.8567 1098.28 L64.0042 1098.28 L64.0042 1104.17 L42.679 1104.17 Q37.5228 1104.17 35.072 1105.98 Q32.5894 1107.8 32.5894 1111.59 Q32.5894 1116.07 35.6449 1118.71 Q38.6686 1121.36 43.8567 1121.36 L64.0042 1121.36 L64.0042 1127.24 L28.3562 1127.24 L28.3562 1121.36 L33.8944 1121.36 Q30.616 1119.35 29.0564 1116.55 Q27.4968 1113.75 27.4968 1109.9 Q27.4968 1106.02 29.4702 1103.31 Q31.4436 1100.57 35.1993 1099.27 Z" fill="#000000" fill-rule="nonzero" fill-opacity="1" /><path clip-path="url(#clip460)" d="M44.7161 1033.03 L47.5806 1033.03 L47.5806 1059.96 Q53.6281 1059.58 56.8109 1056.33 Q59.9619 1053.05 59.9619 1047.23 Q59.9619 1043.85 59.1344 1040.7 Q58.3069 1037.52 56.6518 1034.4 L62.1899 1034.4 Q63.5267 1037.55 64.227 1040.86 Q64.9272 1044.17 64.9272 1047.58 Q64.9272 1056.11 59.9619 1061.1 Q54.9967 1066.07 46.5303 1066.07 Q37.7774 1066.07 32.6531 1061.36 Q27.4968 1056.62 27.4968 1048.6 Q27.4968 1041.4 32.1438 1037.23 Q36.7589 1033.03 44.7161 1033.03 M42.9973 1038.89 Q38.1912 1038.95 35.3266 1041.59 Q32.4621 1044.2 32.4621 1048.53 Q32.4621 1053.43 35.2312 1056.39 Q38.0002 1059.32 43.0292 1059.77 L42.9973 1038.89 Z" fill="#000000" fill-rule="nonzero" fill-opacity="1" /><path clip-path="url(#clip460)" d="M46.0847 1007.22 Q46.0847 1014.32 47.7079 1017.05 Q49.3312 1019.79 53.2461 1019.79 Q56.3653 1019.79 58.2114 1017.75 Q60.0256 1015.69 60.0256 1012.15 Q60.0256 1007.28 56.5881 1004.35 Q53.1188 1001.39 47.3897 1001.39 L46.0847 1001.39 L46.0847 1007.22 M43.6657 995.538 L64.0042 995.538 L64.0042 1001.39 L58.5933 1001.39 Q61.8398 1003.4 63.3994 1006.39 Q64.9272 1009.38 64.9272 1013.71 Q64.9272 1019.19 61.8716 1022.43 Q58.7843 1025.65 53.6281 1025.65 Q47.6125 1025.65 44.5569 1021.64 Q41.5014 1017.6 41.5014 1009.61 L41.5014 1001.39 L40.9285 1001.39 Q36.8862 1001.39 34.6901 1004.07 Q32.4621 1006.71 32.4621 1011.52 Q32.4621 1014.57 33.1941 1017.47 Q33.9262 1020.36 35.3903 1023.04 L29.9795 1023.04 Q28.7381 1019.82 28.1334 1016.8 Q27.4968 1013.78 27.4968 1010.91 Q27.4968 1003.18 31.5072 999.358 Q35.5176 995.538 43.6657 995.538 Z" fill="#000000" fill-rule="nonzero" fill-opacity="1" /><path clip-path="url(#clip460)" d="M42.4881 953.843 L64.0042 953.843 L64.0042 959.699 L42.679 959.699 Q37.6183 959.699 35.1038 961.673 Q32.5894 963.646 32.5894 967.593 Q32.5894 972.335 35.6131 975.072 Q38.6368 977.81 43.8567 977.81 L64.0042 977.81 L64.0042 983.698 L28.3562 983.698 L28.3562 977.81 L33.8944 977.81 Q30.6797 975.709 29.0883 972.876 Q27.4968 970.012 27.4968 966.288 Q27.4968 960.145 31.3163 956.994 Q35.1038 953.843 42.4881 953.843 Z" fill="#000000" fill-rule="nonzero" fill-opacity="1" /><path clip-path="url(#clip460)" d="M18.2347 915.649 L28.3562 915.649 L28.3562 903.586 L32.9077 903.586 L32.9077 915.649 L52.2594 915.649 Q56.6199 915.649 57.8613 914.471 Q59.1026 913.261 59.1026 909.601 L59.1026 903.586 L64.0042 903.586 L64.0042 909.601 Q64.0042 916.381 61.4897 918.959 Q58.9434 921.537 52.2594 921.537 L32.9077 921.537 L32.9077 925.834 L28.3562 925.834 L28.3562 921.537 L18.2347 921.537 L18.2347 915.649 Z" fill="#000000" fill-rule="nonzero" fill-opacity="1" /><path clip-path="url(#clip460)" d="M33.8307 875.226 Q33.2578 876.213 33.0032 877.391 Q32.7167 878.537 32.7167 879.937 Q32.7167 884.902 35.9632 887.576 Q39.1779 890.218 45.2253 890.218 L64.0042 890.218 L64.0042 896.106 L28.3562 896.106 L28.3562 890.218 L33.8944 890.218 Q30.6479 888.372 29.0883 885.411 Q27.4968 882.451 27.4968 878.218 Q27.4968 877.613 27.5923 876.881 Q27.656 876.149 27.8151 875.258 L33.8307 875.226 Z" fill="#000000" fill-rule="nonzero" fill-opacity="1" /><path clip-path="url(#clip460)" d="M46.0847 852.883 Q46.0847 859.98 47.7079 862.718 Q49.3312 865.455 53.2461 865.455 Q56.3653 865.455 58.2114 863.418 Q60.0256 861.349 60.0256 857.816 Q60.0256 852.946 56.5881 850.018 Q53.1188 847.058 47.3897 847.058 L46.0847 847.058 L46.0847 852.883 M43.6657 841.202 L64.0042 841.202 L64.0042 847.058 L58.5933 847.058 Q61.8398 849.063 63.3994 852.055 Q64.9272 855.047 64.9272 859.376 Q64.9272 864.85 61.8716 868.097 Q58.7843 871.311 53.6281 871.311 Q47.6125 871.311 44.5569 867.301 Q41.5014 863.259 41.5014 855.27 L41.5014 847.058 L40.9285 847.058 Q36.8862 847.058 34.6901 849.732 Q32.4621 852.373 32.4621 857.18 Q32.4621 860.235 33.1941 863.131 Q33.9262 866.028 35.3903 868.701 L29.9795 868.701 Q28.7381 865.487 28.1334 862.463 Q27.4968 859.439 27.4968 856.575 Q27.4968 848.84 31.5072 845.021 Q35.5176 841.202 43.6657 841.202 Z" fill="#000000" fill-rule="nonzero" fill-opacity="1" /><path clip-path="url(#clip460)" d="M28.3562 829.139 L28.3562 823.282 L64.0042 823.282 L64.0042 829.139 L28.3562 829.139 M14.479 829.139 L14.479 823.282 L21.895 823.282 L21.895 829.139 L14.479 829.139 Z" fill="#000000" fill-rule="nonzero" fill-opacity="1" /><path clip-path="url(#clip460)" d="M42.4881 781.396 L64.0042 781.396 L64.0042 787.252 L42.679 787.252 Q37.6183 787.252 35.1038 789.226 Q32.5894 791.199 32.5894 795.146 Q32.5894 799.888 35.6131 802.625 Q38.6368 805.363 43.8567 805.363 L64.0042 805.363 L64.0042 811.251 L28.3562 811.251 L28.3562 805.363 L33.8944 805.363 Q30.6797 803.262 29.0883 800.429 Q27.4968 797.565 27.4968 793.841 Q27.4968 787.698 31.3163 784.547 Q35.1038 781.396 42.4881 781.396 Z" fill="#000000" fill-rule="nonzero" fill-opacity="1" /><path clip-path="url(#clip460)" d="M28.3562 769.715 L28.3562 763.858 L64.0042 763.858 L64.0042 769.715 L28.3562 769.715 M14.479 769.715 L14.479 763.858 L21.895 763.858 L21.895 769.715 L14.479 769.715 Z" fill="#000000" fill-rule="nonzero" fill-opacity="1" /><path clip-path="url(#clip460)" d="M42.4881 721.972 L64.0042 721.972 L64.0042 727.828 L42.679 727.828 Q37.6183 727.828 35.1038 729.802 Q32.5894 731.775 32.5894 735.722 Q32.5894 740.464 35.6131 743.202 Q38.6368 745.939 43.8567 745.939 L64.0042 745.939 L64.0042 751.827 L28.3562 751.827 L28.3562 745.939 L33.8944 745.939 Q30.6797 743.838 29.0883 741.005 Q27.4968 738.141 27.4968 734.417 Q27.4968 728.274 31.3163 725.123 Q35.1038 721.972 42.4881 721.972 Z" fill="#000000" fill-rule="nonzero" fill-opacity="1" /><path clip-path="url(#clip460)" d="M45.7664 686.833 Q39.4007 686.833 35.8996 689.475 Q32.3984 692.085 32.3984 696.827 Q32.3984 701.538 35.8996 704.18 Q39.4007 706.79 45.7664 706.79 Q52.1003 706.79 55.6014 704.18 Q59.1026 701.538 59.1026 696.827 Q59.1026 692.085 55.6014 689.475 Q52.1003 686.833 45.7664 686.833 M59.58 680.977 Q68.683 680.977 73.1071 685.019 Q77.5631 689.061 77.5631 697.4 Q77.5631 700.488 77.0857 703.225 Q76.6401 705.962 75.6852 708.54 L69.9879 708.54 Q71.3884 705.962 72.0568 703.448 Q72.7252 700.933 72.7252 698.323 Q72.7252 692.562 69.7015 689.698 Q66.7096 686.833 60.6303 686.833 L57.7339 686.833 Q60.885 688.647 62.4446 691.48 Q64.0042 694.313 64.0042 698.26 Q64.0042 704.816 59.0071 708.827 Q54.01 712.837 45.7664 712.837 Q37.491 712.837 32.4939 708.827 Q27.4968 704.816 27.4968 698.26 Q27.4968 694.313 29.0564 691.48 Q30.616 688.647 33.7671 686.833 L28.3562 686.833 L28.3562 680.977 L59.58 680.977 Z" fill="#000000" fill-rule="nonzero" fill-opacity="1" /><path clip-path="url(#clip460)" d="M18.2347 642.401 L28.3562 642.401 L28.3562 630.338 L32.9077 630.338 L32.9077 642.401 L52.2594 642.401 Q56.6199 642.401 57.8613 641.223 Q59.1026 640.013 59.1026 636.353 L59.1026 630.338 L64.0042 630.338 L64.0042 636.353 Q64.0042 643.133 61.4897 645.711 Q58.9434 648.289 52.2594 648.289 L32.9077 648.289 L32.9077 652.586 L28.3562 652.586 L28.3562 648.289 L18.2347 648.289 L18.2347 642.401 Z" fill="#000000" fill-rule="nonzero" fill-opacity="1" /><path clip-path="url(#clip460)" d="M28.3562 622.635 L28.3562 616.779 L64.0042 616.779 L64.0042 622.635 L28.3562 622.635 M14.479 622.635 L14.479 616.779 L21.895 616.779 L21.895 622.635 L14.479 622.635 Z" fill="#000000" fill-rule="nonzero" fill-opacity="1" /><path clip-path="url(#clip460)" d="M35.1993 576.77 Q31.2526 574.574 29.3747 571.518 Q27.4968 568.463 27.4968 564.325 Q27.4968 558.755 31.4117 555.732 Q35.2948 552.708 42.4881 552.708 L64.0042 552.708 L64.0042 558.596 L42.679 558.596 Q37.5546 558.596 35.072 560.41 Q32.5894 562.225 32.5894 565.948 Q32.5894 570.5 35.6131 573.142 Q38.6368 575.784 43.8567 575.784 L64.0042 575.784 L64.0042 581.672 L42.679 581.672 Q37.5228 581.672 35.072 583.486 Q32.5894 585.3 32.5894 589.088 Q32.5894 593.576 35.6449 596.217 Q38.6686 598.859 43.8567 598.859 L64.0042 598.859 L64.0042 604.747 L28.3562 604.747 L28.3562 598.859 L33.8944 598.859 Q30.616 596.854 29.0564 594.053 Q27.4968 591.252 27.4968 587.401 Q27.4968 583.518 29.4702 580.812 Q31.4436 578.075 35.1993 576.77 Z" fill="#000000" fill-rule="nonzero" fill-opacity="1" /><path clip-path="url(#clip460)" d="M44.7161 510.535 L47.5806 510.535 L47.5806 537.462 Q53.6281 537.08 56.8109 533.833 Q59.9619 530.555 59.9619 524.731 Q59.9619 521.357 59.1344 518.206 Q58.3069 515.023 56.6518 511.904 L62.1899 511.904 Q63.5267 515.055 64.227 518.365 Q64.9272 521.675 64.9272 525.081 Q64.9272 533.611 59.9619 538.608 Q54.9967 543.573 46.5303 543.573 Q37.7774 543.573 32.6531 538.862 Q27.4968 534.12 27.4968 526.099 Q27.4968 518.906 32.1438 514.736 Q36.7589 510.535 44.7161 510.535 M42.9973 516.391 Q38.1912 516.455 35.3266 519.097 Q32.4621 521.707 32.4621 526.036 Q32.4621 530.937 35.2312 533.897 Q38.0002 536.825 43.0292 537.271 L42.9973 516.391 Z" fill="#000000" fill-rule="nonzero" fill-opacity="1" /><path clip-path="url(#clip460)" d="M14.5426 466.134 Q21.8632 470.399 29.0246 472.468 Q36.186 474.537 43.5384 474.537 Q50.8908 474.537 58.1159 472.468 Q65.3091 470.367 72.5979 466.134 L72.5979 471.227 Q65.1182 476.001 57.8931 478.388 Q50.668 480.744 43.5384 480.744 Q36.4406 480.744 29.2474 478.388 Q22.0542 476.033 14.5426 471.227 L14.5426 466.134 Z" fill="#000000" fill-rule="nonzero" fill-opacity="1" /><path clip-path="url(#clip460)" d="M29.4065 432.046 L34.9447 432.046 Q33.6716 434.528 33.035 437.202 Q32.3984 439.876 32.3984 442.74 Q32.3984 447.101 33.7352 449.297 Q35.072 451.461 37.7456 451.461 Q39.7826 451.461 40.9603 449.902 Q42.1061 448.342 43.1565 443.631 L43.6021 441.626 Q44.9389 435.388 47.3897 432.778 Q49.8086 430.136 54.1691 430.136 Q59.1344 430.136 62.0308 434.083 Q64.9272 437.998 64.9272 444.873 Q64.9272 447.737 64.3543 450.857 Q63.8132 453.944 62.6992 457.381 L56.6518 457.381 Q58.3387 454.135 59.198 450.984 Q60.0256 447.833 60.0256 444.745 Q60.0256 440.608 58.6251 438.38 Q57.1929 436.152 54.6147 436.152 Q52.2276 436.152 50.9545 437.775 Q49.6813 439.366 48.5037 444.809 L48.0262 446.846 Q46.8804 452.289 44.5251 454.708 Q42.138 457.127 38.0002 457.127 Q32.9713 457.127 30.2341 453.562 Q27.4968 449.997 27.4968 443.44 Q27.4968 440.194 27.9743 437.329 Q28.4517 434.465 29.4065 432.046 Z" fill="#000000" fill-rule="nonzero" fill-opacity="1" /><path clip-path="url(#clip460)" d="M14.5426 421.733 L14.5426 416.641 Q22.0542 411.867 29.2474 409.511 Q36.4406 407.124 43.5384 407.124 Q50.668 407.124 57.8931 409.511 Q65.1182 411.867 72.5979 416.641 L72.5979 421.733 Q65.3091 417.5 58.1159 415.431 Q50.8908 413.331 43.5384 413.331 Q36.186 413.331 29.0246 415.431 Q21.8632 417.5 14.5426 421.733 Z" fill="#000000" fill-rule="nonzero" fill-opacity="1" /><path clip-path="url(#clip460)" d="M328.839 12.096 L380.002 12.096 L380.002 18.9825 L358.532 18.9825 L358.532 72.576 L350.308 72.576 L350.308 18.9825 L328.839 18.9825 L328.839 12.096 Z" fill="#000000" fill-rule="nonzero" fill-opacity="1" /><path clip-path="url(#clip460)" d="M401.674 34.1734 Q400.418 33.4443 398.919 33.1202 Q397.461 32.7556 395.679 32.7556 Q389.359 32.7556 385.956 36.8875 Q382.594 40.9789 382.594 48.6757 L382.594 72.576 L375.1 72.576 L375.1 27.2059 L382.594 27.2059 L382.594 34.2544 Q384.944 30.1225 388.711 28.1376 Q392.478 26.1121 397.866 26.1121 Q398.636 26.1121 399.567 26.2337 Q400.499 26.3147 401.633 26.5172 L401.674 34.1734 Z" fill="#000000" fill-rule="nonzero" fill-opacity="1" /><path clip-path="url(#clip460)" d="M430.111 49.7694 Q421.078 49.7694 417.594 51.8354 Q414.11 53.9013 414.11 58.8839 Q414.11 62.8538 416.703 65.2034 Q419.336 67.5124 423.832 67.5124 Q430.03 67.5124 433.757 63.1374 Q437.524 58.7219 437.524 51.4303 L437.524 49.7694 L430.111 49.7694 M444.978 46.6907 L444.978 72.576 L437.524 72.576 L437.524 65.6895 Q434.972 69.8214 431.164 71.8063 Q427.357 73.7508 421.847 73.7508 Q414.88 73.7508 410.748 69.8619 Q406.657 65.9325 406.657 59.3701 Q406.657 51.7138 411.761 47.825 Q416.905 43.9361 427.073 43.9361 L437.524 43.9361 L437.524 43.2069 Q437.524 38.0623 434.122 35.2672 Q430.759 32.4315 424.643 32.4315 Q420.754 32.4315 417.067 33.3632 Q413.381 34.295 409.978 36.1584 L409.978 29.2718 Q414.07 27.692 417.918 26.9223 Q421.766 26.1121 425.412 26.1121 Q435.256 26.1121 440.117 31.2163 Q444.978 36.3204 444.978 46.6907 Z" fill="#000000" fill-rule="nonzero" fill-opacity="1" /><path clip-path="url(#clip460)" d="M460.331 27.2059 L467.785 27.2059 L467.785 72.576 L460.331 72.576 L460.331 27.2059 M460.331 9.54393 L467.785 9.54393 L467.785 18.9825 L460.331 18.9825 L460.331 9.54393 Z" fill="#000000" fill-rule="nonzero" fill-opacity="1" /><path clip-path="url(#clip460)" d="M521.095 45.1919 L521.095 72.576 L513.641 72.576 L513.641 45.4349 Q513.641 38.994 511.129 35.7938 Q508.618 32.5936 503.595 32.5936 Q497.559 32.5936 494.075 36.4419 Q490.591 40.2903 490.591 46.9338 L490.591 72.576 L483.097 72.576 L483.097 27.2059 L490.591 27.2059 L490.591 34.2544 Q493.265 30.163 496.87 28.1376 Q500.516 26.1121 505.256 26.1121 Q513.074 26.1121 517.084 30.9732 Q521.095 35.7938 521.095 45.1919 Z" fill="#000000" fill-rule="nonzero" fill-opacity="1" /><path clip-path="url(#clip460)" d="M535.961 27.2059 L543.415 27.2059 L543.415 72.576 L535.961 72.576 L535.961 27.2059 M535.961 9.54393 L543.415 9.54393 L543.415 18.9825 L535.961 18.9825 L535.961 9.54393 Z" fill="#000000" fill-rule="nonzero" fill-opacity="1" /><path clip-path="url(#clip460)" d="M596.725 45.1919 L596.725 72.576 L589.271 72.576 L589.271 45.4349 Q589.271 38.994 586.76 35.7938 Q584.248 32.5936 579.225 32.5936 Q573.189 32.5936 569.705 36.4419 Q566.222 40.2903 566.222 46.9338 L566.222 72.576 L558.727 72.576 L558.727 27.2059 L566.222 27.2059 L566.222 34.2544 Q568.895 30.163 572.501 28.1376 Q576.146 26.1121 580.886 26.1121 Q588.704 26.1121 592.715 30.9732 Q596.725 35.7938 596.725 45.1919 Z" fill="#000000" fill-rule="nonzero" fill-opacity="1" /><path clip-path="url(#clip460)" d="M641.447 49.3643 Q641.447 41.2625 638.085 36.8065 Q634.763 32.3505 628.727 32.3505 Q622.732 32.3505 619.369 36.8065 Q616.048 41.2625 616.048 49.3643 Q616.048 57.4256 619.369 61.8816 Q622.732 66.3376 628.727 66.3376 Q634.763 66.3376 638.085 61.8816 Q641.447 57.4256 641.447 49.3643 M648.901 66.9452 Q648.901 78.5308 643.756 84.1616 Q638.611 89.8329 627.998 89.8329 Q624.069 89.8329 620.585 89.2252 Q617.101 88.6581 613.82 87.4428 L613.82 80.1917 Q617.101 81.9741 620.301 82.8248 Q623.501 83.6755 626.823 83.6755 Q634.155 83.6755 637.801 79.8271 Q641.447 76.0193 641.447 68.282 L641.447 64.5957 Q639.138 68.6061 635.533 70.5911 Q631.927 72.576 626.904 72.576 Q618.559 72.576 613.455 66.2161 Q608.351 59.8562 608.351 49.3643 Q608.351 38.832 613.455 32.472 Q618.559 26.1121 626.904 26.1121 Q631.927 26.1121 635.533 28.0971 Q639.138 30.082 641.447 34.0924 L641.447 27.2059 L648.901 27.2059 L648.901 66.9452 Z" fill="#000000" fill-rule="nonzero" fill-opacity="1" /><path clip-path="url(#clip460)" d="M727.205 14.0809 L727.205 22.0612 Q722.546 19.8332 718.414 18.7395 Q714.282 17.6457 710.434 17.6457 Q703.75 17.6457 700.104 20.2383 Q696.499 22.8309 696.499 27.611 Q696.499 31.6214 698.889 33.6873 Q701.319 35.7128 708.044 36.9686 L712.986 37.9813 Q722.141 39.7232 726.475 44.1387 Q730.85 48.5136 730.85 55.8863 Q730.85 64.6767 724.936 69.2137 Q719.062 73.7508 707.679 73.7508 Q703.385 73.7508 698.524 72.7785 Q693.704 71.8063 688.518 69.9024 L688.518 61.4765 Q693.501 64.2716 698.281 65.6895 Q703.061 67.1073 707.679 67.1073 Q714.687 67.1073 718.495 64.3527 Q722.303 61.598 722.303 56.4939 Q722.303 52.0379 719.548 49.5264 Q716.834 47.0148 710.596 45.759 L705.613 44.7868 Q696.458 42.9639 692.367 39.075 Q688.275 35.1862 688.275 28.2591 Q688.275 20.2383 693.906 15.6203 Q699.577 11.0023 709.502 11.0023 Q713.756 11.0023 718.171 11.7719 Q722.587 12.5416 727.205 14.0809 Z" fill="#000000" fill-rule="nonzero" fill-opacity="1" /><path clip-path="url(#clip460)" d="M782.094 48.0275 L782.094 51.6733 L747.824 51.6733 Q748.31 59.3701 752.442 63.421 Q756.614 67.4314 764.027 67.4314 Q768.321 67.4314 772.332 66.3781 Q776.383 65.3249 780.352 63.2184 L780.352 70.267 Q776.342 71.9684 772.129 72.8596 Q767.916 73.7508 763.582 73.7508 Q752.725 73.7508 746.365 67.4314 Q740.046 61.1119 740.046 50.3365 Q740.046 39.1965 746.041 32.6746 Q752.077 26.1121 762.285 26.1121 Q771.44 26.1121 776.747 32.0264 Q782.094 37.9003 782.094 48.0275 M774.641 45.84 Q774.56 39.7232 771.197 36.0774 Q767.876 32.4315 762.366 32.4315 Q756.128 32.4315 752.361 35.9558 Q748.634 39.4801 748.067 45.8805 L774.641 45.84 Z" fill="#000000" fill-rule="nonzero" fill-opacity="1" /><path clip-path="url(#clip460)" d="M801.701 14.324 L801.701 27.2059 L817.054 27.2059 L817.054 32.9987 L801.701 32.9987 L801.701 57.6282 Q801.701 63.1779 803.2 64.7578 Q804.739 66.3376 809.397 66.3376 L817.054 66.3376 L817.054 72.576 L809.397 72.576 Q800.769 72.576 797.488 69.3758 Q794.207 66.1351 794.207 57.6282 L794.207 32.9987 L788.738 32.9987 L788.738 27.2059 L794.207 27.2059 L794.207 14.324 L801.701 14.324 Z" fill="#000000" fill-rule="nonzero" fill-opacity="1" /><path clip-path="url(#clip460)" d="M889.808 14.0809 L889.808 22.0612 Q885.149 19.8332 881.017 18.7395 Q876.885 17.6457 873.037 17.6457 Q866.353 17.6457 862.707 20.2383 Q859.102 22.8309 859.102 27.611 Q859.102 31.6214 861.492 33.6873 Q863.923 35.7128 870.647 36.9686 L875.589 37.9813 Q884.744 39.7232 889.079 44.1387 Q893.454 48.5136 893.454 55.8863 Q893.454 64.6767 887.539 69.2137 Q881.666 73.7508 870.282 73.7508 Q865.989 73.7508 861.127 72.7785 Q856.307 71.8063 851.122 69.9024 L851.122 61.4765 Q856.104 64.2716 860.884 65.6895 Q865.664 67.1073 870.282 67.1073 Q877.291 67.1073 881.098 64.3527 Q884.906 61.598 884.906 56.4939 Q884.906 52.0379 882.152 49.5264 Q879.438 47.0148 873.199 45.759 L868.217 44.7868 Q859.061 42.9639 854.97 39.075 Q850.879 35.1862 850.879 28.2591 Q850.879 20.2383 856.509 15.6203 Q862.181 11.0023 872.105 11.0023 Q876.359 11.0023 880.774 11.7719 Q885.19 12.5416 889.808 14.0809 Z" fill="#000000" fill-rule="nonzero" fill-opacity="1" /><path clip-path="url(#clip460)" d="M905.89 27.2059 L913.344 27.2059 L913.344 72.576 L905.89 72.576 L905.89 27.2059 M905.89 9.54393 L913.344 9.54393 L913.344 18.9825 L905.89 18.9825 L905.89 9.54393 Z" fill="#000000" fill-rule="nonzero" fill-opacity="1" /><path clip-path="url(#clip460)" d="M925.699 27.2059 L961.104 27.2059 L961.104 34.0114 L933.072 66.6212 L961.104 66.6212 L961.104 72.576 L924.686 72.576 L924.686 65.7705 L952.718 33.1607 L925.699 33.1607 L925.699 27.2059 Z" fill="#000000" fill-rule="nonzero" fill-opacity="1" /><path clip-path="url(#clip460)" d="M1011.29 48.0275 L1011.29 51.6733 L977.024 51.6733 Q977.51 59.3701 981.642 63.421 Q985.814 67.4314 993.227 67.4314 Q997.521 67.4314 1001.53 66.3781 Q1005.58 65.3249 1009.55 63.2184 L1009.55 70.267 Q1005.54 71.9684 1001.33 72.8596 Q997.116 73.7508 992.782 73.7508 Q981.925 73.7508 975.565 67.4314 Q969.246 61.1119 969.246 50.3365 Q969.246 39.1965 975.241 32.6746 Q981.277 26.1121 991.486 26.1121 Q1000.64 26.1121 1005.95 32.0264 Q1011.29 37.9003 1011.29 48.0275 M1003.84 45.84 Q1003.76 39.7232 1000.4 36.0774 Q997.076 32.4315 991.567 32.4315 Q985.328 32.4315 981.561 35.9558 Q977.834 39.4801 977.267 45.8805 L1003.84 45.84 Z" fill="#000000" fill-rule="nonzero" fill-opacity="1" /><path clip-path="url(#clip460)" d="M1041.84 12.096 L1093 12.096 L1093 18.9825 L1071.53 18.9825 L1071.53 72.576 L1063.31 72.576 L1063.31 18.9825 L1041.84 18.9825 L1041.84 12.096 Z" fill="#000000" fill-rule="nonzero" fill-opacity="1" /><path clip-path="url(#clip460)" d="M1098.02 27.2059 L1105.48 27.2059 L1105.48 72.576 L1098.02 72.576 L1098.02 27.2059 M1098.02 9.54393 L1105.48 9.54393 L1105.48 18.9825 L1098.02 18.9825 L1098.02 9.54393 Z" fill="#000000" fill-rule="nonzero" fill-opacity="1" /><path clip-path="url(#clip460)" d="M1156.4 35.9153 Q1159.19 30.8922 1163.08 28.5022 Q1166.97 26.1121 1172.24 26.1121 Q1179.33 26.1121 1183.17 31.0947 Q1187.02 36.0368 1187.02 45.1919 L1187.02 72.576 L1179.53 72.576 L1179.53 45.4349 Q1179.53 38.913 1177.22 35.7533 Q1174.91 32.5936 1170.17 32.5936 Q1164.38 32.5936 1161.02 36.4419 Q1157.65 40.2903 1157.65 46.9338 L1157.65 72.576 L1150.16 72.576 L1150.16 45.4349 Q1150.16 38.8725 1147.85 35.7533 Q1145.54 32.5936 1140.72 32.5936 Q1135.01 32.5936 1131.65 36.4824 Q1128.28 40.3308 1128.28 46.9338 L1128.28 72.576 L1120.79 72.576 L1120.79 27.2059 L1128.28 27.2059 L1128.28 34.2544 Q1130.84 30.082 1134.4 28.0971 Q1137.97 26.1121 1142.87 26.1121 Q1147.81 26.1121 1151.25 28.6237 Q1154.74 31.1352 1156.4 35.9153 Z" fill="#000000" fill-rule="nonzero" fill-opacity="1" /><path clip-path="url(#clip460)" d="M1240.7 48.0275 L1240.7 51.6733 L1206.43 51.6733 Q1206.91 59.3701 1211.04 63.421 Q1215.22 67.4314 1222.63 67.4314 Q1226.92 67.4314 1230.93 66.3781 Q1234.99 65.3249 1238.96 63.2184 L1238.96 70.267 Q1234.94 71.9684 1230.73 72.8596 Q1226.52 73.7508 1222.18 73.7508 Q1211.33 73.7508 1204.97 67.4314 Q1198.65 61.1119 1198.65 50.3365 Q1198.65 39.1965 1204.64 32.6746 Q1210.68 26.1121 1220.89 26.1121 Q1230.04 26.1121 1235.35 32.0264 Q1240.7 37.9003 1240.7 48.0275 M1233.24 45.84 Q1233.16 39.7232 1229.8 36.0774 Q1226.48 32.4315 1220.97 32.4315 Q1214.73 32.4315 1210.96 35.9558 Q1207.24 39.4801 1206.67 45.8805 L1233.24 45.84 Z" fill="#000000" fill-rule="nonzero" fill-opacity="1" /><path clip-path="url(#clip460)" d="M1324.92 16.7545 L1324.92 25.383 Q1320.78 21.5346 1316.08 19.6307 Q1311.43 17.7268 1306.16 17.7268 Q1295.79 17.7268 1290.28 24.0867 Q1284.77 30.4061 1284.77 42.3968 Q1284.77 54.3469 1290.28 60.7069 Q1295.79 67.0263 1306.16 67.0263 Q1311.43 67.0263 1316.08 65.1223 Q1320.78 63.2184 1324.92 59.3701 L1324.92 67.9175 Q1320.62 70.8341 1315.8 72.2924 Q1311.02 73.7508 1305.67 73.7508 Q1291.94 73.7508 1284.04 65.3654 Q1276.14 56.9395 1276.14 42.3968 Q1276.14 27.8135 1284.04 19.4281 Q1291.94 11.0023 1305.67 11.0023 Q1311.1 11.0023 1315.88 12.4606 Q1320.7 13.8784 1324.92 16.7545 Z" fill="#000000" fill-rule="nonzero" fill-opacity="1" /><path clip-path="url(#clip460)" d="M1354.81 32.4315 Q1348.82 32.4315 1345.33 37.1306 Q1341.85 41.7891 1341.85 49.9314 Q1341.85 58.0738 1345.29 62.7728 Q1348.78 67.4314 1354.81 67.4314 Q1360.77 67.4314 1364.25 62.7323 Q1367.73 58.0333 1367.73 49.9314 Q1367.73 41.8701 1364.25 37.1711 Q1360.77 32.4315 1354.81 32.4315 M1354.81 26.1121 Q1364.53 26.1121 1370.08 32.4315 Q1375.63 38.7509 1375.63 49.9314 Q1375.63 61.0714 1370.08 67.4314 Q1364.53 73.7508 1354.81 73.7508 Q1345.05 73.7508 1339.5 67.4314 Q1333.99 61.0714 1333.99 49.9314 Q1333.99 38.7509 1339.5 32.4315 Q1345.05 26.1121 1354.81 26.1121 Z" fill="#000000" fill-rule="nonzero" fill-opacity="1" /><path clip-path="url(#clip460)" d="M1423.31 35.9153 Q1426.11 30.8922 1430 28.5022 Q1433.88 26.1121 1439.15 26.1121 Q1446.24 26.1121 1450.09 31.0947 Q1453.94 36.0368 1453.94 45.1919 L1453.94 72.576 L1446.44 72.576 L1446.44 45.4349 Q1446.44 38.913 1444.13 35.7533 Q1441.82 32.5936 1437.09 32.5936 Q1431.29 32.5936 1427.93 36.4419 Q1424.57 40.2903 1424.57 46.9338 L1424.57 72.576 L1417.07 72.576 L1417.07 45.4349 Q1417.07 38.8725 1414.76 35.7533 Q1412.46 32.5936 1407.63 32.5936 Q1401.92 32.5936 1398.56 36.4824 Q1395.2 40.3308 1395.2 46.9338 L1395.2 72.576 L1387.7 72.576 L1387.7 27.2059 L1395.2 27.2059 L1395.2 34.2544 Q1397.75 30.082 1401.32 28.0971 Q1404.88 26.1121 1409.78 26.1121 Q1414.72 26.1121 1418.17 28.6237 Q1421.65 31.1352 1423.31 35.9153 Z" fill="#000000" fill-rule="nonzero" fill-opacity="1" /><path clip-path="url(#clip460)" d="M1476.01 65.7705 L1476.01 89.8329 L1468.52 89.8329 L1468.52 27.2059 L1476.01 27.2059 L1476.01 34.0924 Q1478.36 30.0415 1481.93 28.0971 Q1485.53 26.1121 1490.52 26.1121 Q1498.78 26.1121 1503.92 32.6746 Q1509.11 39.2371 1509.11 49.9314 Q1509.11 60.6258 1503.92 67.1883 Q1498.78 73.7508 1490.52 73.7508 Q1485.53 73.7508 1481.93 71.8063 Q1478.36 69.8214 1476.01 65.7705 M1501.37 49.9314 Q1501.37 41.7081 1497.97 37.0496 Q1494.61 32.3505 1488.69 32.3505 Q1482.78 32.3505 1479.38 37.0496 Q1476.01 41.7081 1476.01 49.9314 Q1476.01 58.1548 1479.38 62.8538 Q1482.78 67.5124 1488.69 67.5124 Q1494.61 67.5124 1497.97 62.8538 Q1501.37 58.1548 1501.37 49.9314 Z" fill="#000000" fill-rule="nonzero" fill-opacity="1" /><path clip-path="url(#clip460)" d="M1521.47 9.54393 L1528.92 9.54393 L1528.92 72.576 L1521.47 72.576 L1521.47 9.54393 Z" fill="#000000" fill-rule="nonzero" fill-opacity="1" /><path clip-path="url(#clip460)" d="M1583.32 48.0275 L1583.32 51.6733 L1549.05 51.6733 Q1549.54 59.3701 1553.67 63.421 Q1557.84 67.4314 1565.26 67.4314 Q1569.55 67.4314 1573.56 66.3781 Q1577.61 65.3249 1581.58 63.2184 L1581.58 70.267 Q1577.57 71.9684 1573.36 72.8596 Q1569.14 73.7508 1564.81 73.7508 Q1553.95 73.7508 1547.59 67.4314 Q1541.27 61.1119 1541.27 50.3365 Q1541.27 39.1965 1547.27 32.6746 Q1553.31 26.1121 1563.51 26.1121 Q1572.67 26.1121 1577.98 32.0264 Q1583.32 37.9003 1583.32 48.0275 M1575.87 45.84 Q1575.79 39.7232 1572.43 36.0774 Q1569.1 32.4315 1563.59 32.4315 Q1557.36 32.4315 1553.59 35.9558 Q1549.86 39.4801 1549.3 45.8805 L1575.87 45.84 Z" fill="#000000" fill-rule="nonzero" fill-opacity="1" /><path clip-path="url(#clip460)" d="M1631.81 27.2059 L1615.41 49.2833 L1632.66 72.576 L1623.87 72.576 L1610.67 54.752 L1597.46 72.576 L1588.67 72.576 L1606.29 48.8377 L1590.17 27.2059 L1598.96 27.2059 L1610.99 43.369 L1623.02 27.2059 L1631.81 27.2059 Z" fill="#000000" fill-rule="nonzero" fill-opacity="1" /><path clip-path="url(#clip460)" d="M1643.2 27.2059 L1650.65 27.2059 L1650.65 72.576 L1643.2 72.576 L1643.2 27.2059 M1643.2 9.54393 L1650.65 9.54393 L1650.65 18.9825 L1643.2 18.9825 L1643.2 9.54393 Z" fill="#000000" fill-rule="nonzero" fill-opacity="1" /><path clip-path="url(#clip460)" d="M1673.62 14.324 L1673.62 27.2059 L1688.97 27.2059 L1688.97 32.9987 L1673.62 32.9987 L1673.62 57.6282 Q1673.62 63.1779 1675.12 64.7578 Q1676.66 66.3376 1681.31 66.3376 L1688.97 66.3376 L1688.97 72.576 L1681.31 72.576 Q1672.69 72.576 1669.4 69.3758 Q1666.12 66.1351 1666.12 57.6282 L1666.12 32.9987 L1660.65 32.9987 L1660.65 27.2059 L1666.12 27.2059 L1666.12 14.324 L1673.62 14.324 Z" fill="#000000" fill-rule="nonzero" fill-opacity="1" /><path clip-path="url(#clip460)" d="M1717.65 76.7889 Q1714.49 84.8907 1711.49 87.3618 Q1708.5 89.8329 1703.47 89.8329 L1697.52 89.8329 L1697.52 83.5945 L1701.89 83.5945 Q1704.97 83.5945 1706.67 82.1361 Q1708.37 80.6778 1710.44 75.2496 L1711.78 71.8468 L1693.43 27.2059 L1701.33 27.2059 L1715.5 62.6918 L1729.68 27.2059 L1737.58 27.2059 L1717.65 76.7889 Z" fill="#000000" fill-rule="nonzero" fill-opacity="1" /><path clip-path="url(#clip460)" d="M1749.77 62.2867 L1758.32 62.2867 L1758.32 69.2543 L1751.68 82.2172 L1746.45 82.2172 L1749.77 69.2543 L1749.77 62.2867 Z" fill="#000000" fill-rule="nonzero" fill-opacity="1" /><path clip-path="url(#clip460)" d="M1835.94 35.9153 Q1838.73 30.8922 1842.62 28.5022 Q1846.51 26.1121 1851.78 26.1121 Q1858.87 26.1121 1862.71 31.0947 Q1866.56 36.0368 1866.56 45.1919 L1866.56 72.576 L1859.07 72.576 L1859.07 45.4349 Q1859.07 38.913 1856.76 35.7533 Q1854.45 32.5936 1849.71 32.5936 Q1843.92 32.5936 1840.56 36.4419 Q1837.19 40.2903 1837.19 46.9338 L1837.19 72.576 L1829.7 72.576 L1829.7 45.4349 Q1829.7 38.8725 1827.39 35.7533 Q1825.08 32.5936 1820.26 32.5936 Q1814.55 32.5936 1811.19 36.4824 Q1807.82 40.3308 1807.82 46.9338 L1807.82 72.576 L1800.33 72.576 L1800.33 27.2059 L1807.82 27.2059 L1807.82 34.2544 Q1810.38 30.082 1813.94 28.0971 Q1817.51 26.1121 1822.41 26.1121 Q1827.35 26.1121 1830.79 28.6237 Q1834.28 31.1352 1835.94 35.9153 Z" fill="#000000" fill-rule="nonzero" fill-opacity="1" /><path clip-path="url(#clip460)" d="M1908.77 34.9026 L1960.7 34.9026 L1960.7 41.7081 L1908.77 41.7081 L1908.77 34.9026 M1908.77 51.4303 L1960.7 51.4303 L1960.7 58.3168 L1908.77 58.3168 L1908.77 51.4303 Z" fill="#000000" fill-rule="nonzero" fill-opacity="1" /><path clip-path="url(#clip460)" d="M2022.24 17.4837 Q2015.92 17.4837 2012.72 23.7221 Q2009.56 29.92 2009.56 42.3968 Q2009.56 54.833 2012.72 61.0714 Q2015.92 67.2693 2022.24 67.2693 Q2028.6 67.2693 2031.76 61.0714 Q2034.96 54.833 2034.96 42.3968 Q2034.96 29.92 2031.76 23.7221 Q2028.6 17.4837 2022.24 17.4837 M2022.24 11.0023 Q2032.41 11.0023 2037.75 19.0636 Q2043.14 27.0843 2043.14 42.3968 Q2043.14 57.6687 2037.75 65.73 Q2032.41 73.7508 2022.24 73.7508 Q2012.07 73.7508 2006.68 65.73 Q2001.34 57.6687 2001.34 42.3968 Q2001.34 27.0843 2006.68 19.0636 Q2012.07 11.0023 2022.24 11.0023 Z" fill="#000000" fill-rule="nonzero" fill-opacity="1" /><path clip-path="url(#clip460)" d="M2057.52 62.2867 L2066.07 62.2867 L2066.07 72.576 L2057.52 72.576 L2057.52 62.2867 Z" fill="#000000" fill-rule="nonzero" fill-opacity="1" /><path clip-path="url(#clip460)" d="M2084.14 71.3202 L2084.14 63.8666 Q2087.21 65.3249 2090.37 66.0946 Q2093.53 66.8642 2096.57 66.8642 Q2104.67 66.8642 2108.93 61.436 Q2113.22 55.9673 2113.83 44.8678 Q2111.48 48.3516 2107.87 50.215 Q2104.27 52.0784 2099.89 52.0784 Q2090.82 52.0784 2085.51 46.6097 Q2080.25 41.1005 2080.25 31.5808 Q2080.25 22.2638 2085.76 16.633 Q2091.27 11.0023 2100.42 11.0023 Q2110.91 11.0023 2116.42 19.0636 Q2121.97 27.0843 2121.97 42.3968 Q2121.97 56.6965 2115.17 65.2439 Q2108.4 73.7508 2096.94 73.7508 Q2093.86 73.7508 2090.7 73.1431 Q2087.54 72.5355 2084.14 71.3202 M2100.42 45.678 Q2105.93 45.678 2109.13 41.9107 Q2112.37 38.1433 2112.37 31.5808 Q2112.37 25.0589 2109.13 21.2916 Q2105.93 17.4837 2100.42 17.4837 Q2094.91 17.4837 2091.67 21.2916 Q2088.47 25.0589 2088.47 31.5808 Q2088.47 38.1433 2091.67 41.9107 Q2094.91 45.678 2100.42 45.678 Z" fill="#000000" fill-rule="nonzero" fill-opacity="1" /><path clip-path="url(#clip460)" d="M2138.09 65.6895 L2151.46 65.6895 L2151.46 19.5497 L2136.92 22.4663 L2136.92 15.0127 L2151.38 12.096 L2159.56 12.096 L2159.56 65.6895 L2172.93 65.6895 L2172.93 72.576 L2138.09 72.576 L2138.09 65.6895 Z" fill="#000000" fill-rule="nonzero" fill-opacity="1" /><path clip-path="url(#clip460)" d="M2211.94 19.2256 L2191.28 51.5113 L2211.94 51.5113 L2211.94 19.2256 M2209.79 12.096 L2220.08 12.096 L2220.08 51.5113 L2228.71 51.5113 L2228.71 58.3168 L2220.08 58.3168 L2220.08 72.576 L2211.94 72.576 L2211.94 58.3168 L2184.64 58.3168 L2184.64 50.4176 L2209.79 12.096 Z" fill="#000000" fill-rule="nonzero" fill-opacity="1" /><path clip-path="url(#clip460)" d="M2264.73 19.2256 L2244.07 51.5113 L2264.73 51.5113 L2264.73 19.2256 M2262.58 12.096 L2272.87 12.096 L2272.87 51.5113 L2281.5 51.5113 L2281.5 58.3168 L2272.87 58.3168 L2272.87 72.576 L2264.73 72.576 L2264.73 58.3168 L2237.42 58.3168 L2237.42 50.4176 L2262.58 12.096 Z" fill="#000000" fill-rule="nonzero" fill-opacity="1" /><polyline clip-path="url(#clip462)" style="stroke:#0000ff; stroke-linecap:round; stroke-linejoin:round; stroke-width:8; stroke-opacity:1; fill:none" points="316.876,1353.09 688.28,1183.38 1059.68,1028.6 1431.09,800.115 1648.34,657.905 1802.49,550.843 1922.06,481.274 2019.75,408.573 2102.34,354.973 2173.89,305.845 2237,267.328 2293.46,176.687 "/>
<polyline clip-path="url(#clip462)" style="stroke:#000000; stroke-linecap:round; stroke-linejoin:round; stroke-width:4; stroke-opacity:1; fill:none" points="316.876,1374.46 316.876,1332.96 "/>
<polyline clip-path="url(#clip462)" style="stroke:#000000; stroke-linecap:round; stroke-linejoin:round; stroke-width:4; stroke-opacity:1; fill:none" points="688.28,1216.02 688.28,1153.56 "/>
<polyline clip-path="url(#clip462)" style="stroke:#000000; stroke-linecap:round; stroke-linejoin:round; stroke-width:4; stroke-opacity:1; fill:none" points="1059.68,1049.05 1059.68,1009.28 "/>
<polyline clip-path="url(#clip462)" style="stroke:#000000; stroke-linecap:round; stroke-linejoin:round; stroke-width:4; stroke-opacity:1; fill:none" points="1431.09,814.02 1431.09,786.747 "/>
<polyline clip-path="url(#clip462)" style="stroke:#000000; stroke-linecap:round; stroke-linejoin:round; stroke-width:4; stroke-opacity:1; fill:none" points="1648.34,666.92 1648.34,649.119 "/>
<polyline clip-path="url(#clip462)" style="stroke:#000000; stroke-linecap:round; stroke-linejoin:round; stroke-width:4; stroke-opacity:1; fill:none" points="1802.49,556.79 1802.49,544.996 "/>
<polyline clip-path="url(#clip462)" style="stroke:#000000; stroke-linecap:round; stroke-linejoin:round; stroke-width:4; stroke-opacity:1; fill:none" points="1922.06,492.655 1922.06,470.255 "/>
<polyline clip-path="url(#clip462)" style="stroke:#000000; stroke-linecap:round; stroke-linejoin:round; stroke-width:4; stroke-opacity:1; fill:none" points="2019.75,420.644 2019.75,396.908 "/>
<polyline clip-path="url(#clip462)" style="stroke:#000000; stroke-linecap:round; stroke-linejoin:round; stroke-width:4; stroke-opacity:1; fill:none" points="2102.34,359.84 2102.34,350.175 "/>
<polyline clip-path="url(#clip462)" style="stroke:#000000; stroke-linecap:round; stroke-linejoin:round; stroke-width:4; stroke-opacity:1; fill:none" points="2173.89,313.537 2173.89,298.32 "/>
<polyline clip-path="url(#clip462)" style="stroke:#000000; stroke-linecap:round; stroke-linejoin:round; stroke-width:4; stroke-opacity:1; fill:none" points="2237,271.291 2237,263.41 "/>
<polyline clip-path="url(#clip462)" style="stroke:#000000; stroke-linecap:round; stroke-linejoin:round; stroke-width:4; stroke-opacity:1; fill:none" points="2293.46,194.32 2293.46,159.909 "/>
<line clip-path="url(#clip462)" x1="332.876" y1="1374.46" x2="300.876" y2="1374.46" style="stroke:#000000; stroke-width:4; stroke-opacity:1"/>
<line clip-path="url(#clip462)" x1="332.876" y1="1332.96" x2="300.876" y2="1332.96" style="stroke:#000000; stroke-width:4; stroke-opacity:1"/>
<line clip-path="url(#clip462)" x1="704.28" y1="1216.02" x2="672.28" y2="1216.02" style="stroke:#000000; stroke-width:4; stroke-opacity:1"/>
<line clip-path="url(#clip462)" x1="704.28" y1="1153.56" x2="672.28" y2="1153.56" style="stroke:#000000; stroke-width:4; stroke-opacity:1"/>
<line clip-path="url(#clip462)" x1="1075.68" y1="1049.05" x2="1043.68" y2="1049.05" style="stroke:#000000; stroke-width:4; stroke-opacity:1"/>
<line clip-path="url(#clip462)" x1="1075.68" y1="1009.28" x2="1043.68" y2="1009.28" style="stroke:#000000; stroke-width:4; stroke-opacity:1"/>
<line clip-path="url(#clip462)" x1="1447.09" y1="814.02" x2="1415.09" y2="814.02" style="stroke:#000000; stroke-width:4; stroke-opacity:1"/>
<line clip-path="url(#clip462)" x1="1447.09" y1="786.747" x2="1415.09" y2="786.747" style="stroke:#000000; stroke-width:4; stroke-opacity:1"/>
<line clip-path="url(#clip462)" x1="1664.34" y1="666.92" x2="1632.34" y2="666.92" style="stroke:#000000; stroke-width:4; stroke-opacity:1"/>
<line clip-path="url(#clip462)" x1="1664.34" y1="649.119" x2="1632.34" y2="649.119" style="stroke:#000000; stroke-width:4; stroke-opacity:1"/>
<line clip-path="url(#clip462)" x1="1818.49" y1="556.79" x2="1786.49" y2="556.79" style="stroke:#000000; stroke-width:4; stroke-opacity:1"/>
<line clip-path="url(#clip462)" x1="1818.49" y1="544.996" x2="1786.49" y2="544.996" style="stroke:#000000; stroke-width:4; stroke-opacity:1"/>
<line clip-path="url(#clip462)" x1="1938.06" y1="492.655" x2="1906.06" y2="492.655" style="stroke:#000000; stroke-width:4; stroke-opacity:1"/>
<line clip-path="url(#clip462)" x1="1938.06" y1="470.255" x2="1906.06" y2="470.255" style="stroke:#000000; stroke-width:4; stroke-opacity:1"/>
<line clip-path="url(#clip462)" x1="2035.75" y1="420.644" x2="2003.75" y2="420.644" style="stroke:#000000; stroke-width:4; stroke-opacity:1"/>
<line clip-path="url(#clip462)" x1="2035.75" y1="396.908" x2="2003.75" y2="396.908" style="stroke:#000000; stroke-width:4; stroke-opacity:1"/>
<line clip-path="url(#clip462)" x1="2118.34" y1="359.84" x2="2086.34" y2="359.84" style="stroke:#000000; stroke-width:4; stroke-opacity:1"/>
<line clip-path="url(#clip462)" x1="2118.34" y1="350.175" x2="2086.34" y2="350.175" style="stroke:#000000; stroke-width:4; stroke-opacity:1"/>
<line clip-path="url(#clip462)" x1="2189.89" y1="313.537" x2="2157.89" y2="313.537" style="stroke:#000000; stroke-width:4; stroke-opacity:1"/>
<line clip-path="url(#clip462)" x1="2189.89" y1="298.32" x2="2157.89" y2="298.32" style="stroke:#000000; stroke-width:4; stroke-opacity:1"/>
<line clip-path="url(#clip462)" x1="2253" y1="271.291" x2="2221" y2="271.291" style="stroke:#000000; stroke-width:4; stroke-opacity:1"/>
<line clip-path="url(#clip462)" x1="2253" y1="263.41" x2="2221" y2="263.41" style="stroke:#000000; stroke-width:4; stroke-opacity:1"/>
<line clip-path="url(#clip462)" x1="2309.46" y1="194.32" x2="2277.46" y2="194.32" style="stroke:#000000; stroke-width:4; stroke-opacity:1"/>
<line clip-path="url(#clip462)" x1="2309.46" y1="159.909" x2="2277.46" y2="159.909" style="stroke:#000000; stroke-width:4; stroke-opacity:1"/>
<circle clip-path="url(#clip462)" cx="316.876" cy="1353.09" r="14.4" fill="#0000ff" fill-rule="evenodd" fill-opacity="1" stroke="#000000" stroke-opacity="1" stroke-width="3.2"/>
<circle clip-path="url(#clip462)" cx="688.28" cy="1183.38" r="14.4" fill="#0000ff" fill-rule="evenodd" fill-opacity="1" stroke="#000000" stroke-opacity="1" stroke-width="3.2"/>
<circle clip-path="url(#clip462)" cx="1059.68" cy="1028.6" r="14.4" fill="#0000ff" fill-rule="evenodd" fill-opacity="1" stroke="#000000" stroke-opacity="1" stroke-width="3.2"/>
<circle clip-path="url(#clip462)" cx="1431.09" cy="800.115" r="14.4" fill="#0000ff" fill-rule="evenodd" fill-opacity="1" stroke="#000000" stroke-opacity="1" stroke-width="3.2"/>
<circle clip-path="url(#clip462)" cx="1648.34" cy="657.905" r="14.4" fill="#0000ff" fill-rule="evenodd" fill-opacity="1" stroke="#000000" stroke-opacity="1" stroke-width="3.2"/>
<circle clip-path="url(#clip462)" cx="1802.49" cy="550.843" r="14.4" fill="#0000ff" fill-rule="evenodd" fill-opacity="1" stroke="#000000" stroke-opacity="1" stroke-width="3.2"/>
<circle clip-path="url(#clip462)" cx="1922.06" cy="481.274" r="14.4" fill="#0000ff" fill-rule="evenodd" fill-opacity="1" stroke="#000000" stroke-opacity="1" stroke-width="3.2"/>
<circle clip-path="url(#clip462)" cx="2019.75" cy="408.573" r="14.4" fill="#0000ff" fill-rule="evenodd" fill-opacity="1" stroke="#000000" stroke-opacity="1" stroke-width="3.2"/>
<circle clip-path="url(#clip462)" cx="2102.34" cy="354.973" r="14.4" fill="#0000ff" fill-rule="evenodd" fill-opacity="1" stroke="#000000" stroke-opacity="1" stroke-width="3.2"/>
<circle clip-path="url(#clip462)" cx="2173.89" cy="305.845" r="14.4" fill="#0000ff" fill-rule="evenodd" fill-opacity="1" stroke="#000000" stroke-opacity="1" stroke-width="3.2"/>
<circle clip-path="url(#clip462)" cx="2237" cy="267.328" r="14.4" fill="#0000ff" fill-rule="evenodd" fill-opacity="1" stroke="#000000" stroke-opacity="1" stroke-width="3.2"/>
<circle clip-path="url(#clip462)" cx="2293.46" cy="176.687" r="14.4" fill="#0000ff" fill-rule="evenodd" fill-opacity="1" stroke="#000000" stroke-opacity="1" stroke-width="3.2"/>
</svg>
