<?xml version="1.0" encoding="utf-8"?>
<svg xmlns="http://www.w3.org/2000/svg" xmlns:xlink="http://www.w3.org/1999/xlink" width="600" height="400" viewBox="0 0 2400 1600">
<defs>
  <clipPath id="clip500">
    <rect x="0" y="0" width="2400" height="1600"/>
  </clipPath>
</defs>
<path clip-path="url(#clip500)" d="M0 1600 L2400 1600 L2400 8.88178e-14 L0 8.88178e-14  Z" fill="#ffffff" fill-rule="evenodd" fill-opacity="1"/>
<defs>
  <clipPath id="clip501">
    <rect x="480" y="0" width="1681" height="1600"/>
  </clipPath>
</defs>
<path clip-path="url(#clip500)" d="M257.579 1410.9 L2352.76 1410.9 L2352.76 123.472 L257.579 123.472  Z" fill="#ffffff" fill-rule="evenodd" fill-opacity="1"/>
<defs>
  <clipPath id="clip502">
    <rect x="257" y="123" width="2096" height="1288"/>
  </clipPath>
</defs>
<polyline clip-path="url(#clip502)" style="stroke:#000000; stroke-linecap:round; stroke-linejoin:round; stroke-width:2; stroke-opacity:0.05; fill:none" points="414.568,1410.9 414.568,123.472 "/>
<polyline clip-path="url(#clip502)" style="stroke:#000000; stroke-linecap:round; stroke-linejoin:round; stroke-width:2; stroke-opacity:0.05; fill:none" points="568.714,1410.9 568.714,123.472 "/>
<polyline clip-path="url(#clip502)" style="stroke:#000000; stroke-linecap:round; stroke-linejoin:round; stroke-width:2; stroke-opacity:0.05; fill:none" points="688.28,1410.9 688.28,123.472 "/>
<polyline clip-path="url(#clip502)" style="stroke:#000000; stroke-linecap:round; stroke-linejoin:round; stroke-width:2; stroke-opacity:0.05; fill:none" points="785.971,1410.9 785.971,123.472 "/>
<polyline clip-path="url(#clip502)" style="stroke:#000000; stroke-linecap:round; stroke-linejoin:round; stroke-width:2; stroke-opacity:0.05; fill:none" points="868.569,1410.9 868.569,123.472 "/>
<polyline clip-path="url(#clip502)" style="stroke:#000000; stroke-linecap:round; stroke-linejoin:round; stroke-width:2; stroke-opacity:0.05; fill:none" points="940.118,1410.9 940.118,123.472 "/>
<polyline clip-path="url(#clip502)" style="stroke:#000000; stroke-linecap:round; stroke-linejoin:round; stroke-width:2; stroke-opacity:0.05; fill:none" points="1003.23,1410.9 1003.23,123.472 "/>
<polyline clip-path="url(#clip502)" style="stroke:#000000; stroke-linecap:round; stroke-linejoin:round; stroke-width:2; stroke-opacity:0.05; fill:none" points="1431.09,1410.9 1431.09,123.472 "/>
<polyline clip-path="url(#clip502)" style="stroke:#000000; stroke-linecap:round; stroke-linejoin:round; stroke-width:2; stroke-opacity:0.05; fill:none" points="1648.34,1410.9 1648.34,123.472 "/>
<polyline clip-path="url(#clip502)" style="stroke:#000000; stroke-linecap:round; stroke-linejoin:round; stroke-width:2; stroke-opacity:0.05; fill:none" points="1802.49,1410.9 1802.49,123.472 "/>
<polyline clip-path="url(#clip502)" style="stroke:#000000; stroke-linecap:round; stroke-linejoin:round; stroke-width:2; stroke-opacity:0.05; fill:none" points="1922.06,1410.9 1922.06,123.472 "/>
<polyline clip-path="url(#clip502)" style="stroke:#000000; stroke-linecap:round; stroke-linejoin:round; stroke-width:2; stroke-opacity:0.05; fill:none" points="2019.75,1410.9 2019.75,123.472 "/>
<polyline clip-path="url(#clip502)" style="stroke:#000000; stroke-linecap:round; stroke-linejoin:round; stroke-width:2; stroke-opacity:0.05; fill:none" points="2102.34,1410.9 2102.34,123.472 "/>
<polyline clip-path="url(#clip502)" style="stroke:#000000; stroke-linecap:round; stroke-linejoin:round; stroke-width:2; stroke-opacity:0.05; fill:none" points="2173.89,1410.9 2173.89,123.472 "/>
<polyline clip-path="url(#clip502)" style="stroke:#000000; stroke-linecap:round; stroke-linejoin:round; stroke-width:2; stroke-opacity:0.05; fill:none" points="2237,1410.9 2237,123.472 "/>
<polyline clip-path="url(#clip502)" style="stroke:#000000; stroke-linecap:round; stroke-linejoin:round; stroke-width:2; stroke-opacity:0.1; fill:none" points="1059.68,1410.9 1059.68,123.472 "/>
<polyline clip-path="url(#clip502)" style="stroke:#000000; stroke-linecap:round; stroke-linejoin:round; stroke-width:2; stroke-opacity:0.1; fill:none" points="2293.46,1410.9 2293.46,123.472 "/>
<polyline clip-path="url(#clip502)" style="stroke:#000000; stroke-linecap:round; stroke-linejoin:round; stroke-width:2; stroke-opacity:0.1; fill:none" points="257.579,1204.98 2352.76,1204.98 "/>
<polyline clip-path="url(#clip502)" style="stroke:#000000; stroke-linecap:round; stroke-linejoin:round; stroke-width:2; stroke-opacity:0.1; fill:none" points="257.579,787.966 2352.76,787.966 "/>
<polyline clip-path="url(#clip502)" style="stroke:#000000; stroke-linecap:round; stroke-linejoin:round; stroke-width:2; stroke-opacity:0.1; fill:none" points="257.579,370.948 2352.76,370.948 "/>
<polyline clip-path="url(#clip500)" style="stroke:#000000; stroke-linecap:round; stroke-linejoin:round; stroke-width:4; stroke-opacity:1; fill:none" points="257.579,1410.9 2352.76,1410.9 "/>
<polyline clip-path="url(#clip500)" style="stroke:#000000; stroke-linecap:round; stroke-linejoin:round; stroke-width:4; stroke-opacity:1; fill:none" points="1059.68,1410.9 1059.68,1392 "/>
<polyline clip-path="url(#clip500)" style="stroke:#000000; stroke-linecap:round; stroke-linejoin:round; stroke-width:4; stroke-opacity:1; fill:none" points="2293.46,1410.9 2293.46,1392 "/>
<polyline clip-path="url(#clip500)" style="stroke:#000000; stroke-linecap:round; stroke-linejoin:round; stroke-width:4; stroke-opacity:1; fill:none" points="414.568,1410.9 414.568,1401.45 "/>
<polyline clip-path="url(#clip500)" style="stroke:#000000; stroke-linecap:round; stroke-linejoin:round; stroke-width:4; stroke-opacity:1; fill:none" points="568.714,1410.9 568.714,1401.45 "/>
<polyline clip-path="url(#clip500)" style="stroke:#000000; stroke-linecap:round; stroke-linejoin:round; stroke-width:4; stroke-opacity:1; fill:none" points="688.28,1410.9 688.28,1401.45 "/>
<polyline clip-path="url(#clip500)" style="stroke:#000000; stroke-linecap:round; stroke-linejoin:round; stroke-width:4; stroke-opacity:1; fill:none" points="785.971,1410.9 785.971,1401.45 "/>
<polyline clip-path="url(#clip500)" style="stroke:#000000; stroke-linecap:round; stroke-linejoin:round; stroke-width:4; stroke-opacity:1; fill:none" points="868.569,1410.9 868.569,1401.45 "/>
<polyline clip-path="url(#clip500)" style="stroke:#000000; stroke-linecap:round; stroke-linejoin:round; stroke-width:4; stroke-opacity:1; fill:none" points="940.118,1410.9 940.118,1401.45 "/>
<polyline clip-path="url(#clip500)" style="stroke:#000000; stroke-linecap:round; stroke-linejoin:round; stroke-width:4; stroke-opacity:1; fill:none" points="1003.23,1410.9 1003.23,1401.45 "/>
<polyline clip-path="url(#clip500)" style="stroke:#000000; stroke-linecap:round; stroke-linejoin:round; stroke-width:4; stroke-opacity:1; fill:none" points="1431.09,1410.9 1431.09,1401.45 "/>
<polyline clip-path="url(#clip500)" style="stroke:#000000; stroke-linecap:round; stroke-linejoin:round; stroke-width:4; stroke-opacity:1; fill:none" points="1648.34,1410.9 1648.34,1401.45 "/>
<polyline clip-path="url(#clip500)" style="stroke:#000000; stroke-linecap:round; stroke-linejoin:round; stroke-width:4; stroke-opacity:1; fill:none" points="1802.49,1410.9 1802.49,1401.45 "/>
<polyline clip-path="url(#clip500)" style="stroke:#000000; stroke-linecap:round; stroke-linejoin:round; stroke-width:4; stroke-opacity:1; fill:none" points="1922.06,1410.9 1922.06,1401.45 "/>
<polyline clip-path="url(#clip500)" style="stroke:#000000; stroke-linecap:round; stroke-linejoin:round; stroke-width:4; stroke-opacity:1; fill:none" points="2019.75,1410.9 2019.75,1401.45 "/>
<polyline clip-path="url(#clip500)" style="stroke:#000000; stroke-linecap:round; stroke-linejoin:round; stroke-width:4; stroke-opacity:1; fill:none" points="2102.34,1410.9 2102.34,1401.45 "/>
<polyline clip-path="url(#clip500)" style="stroke:#000000; stroke-linecap:round; stroke-linejoin:round; stroke-width:4; stroke-opacity:1; fill:none" points="2173.89,1410.9 2173.89,1401.45 "/>
<polyline clip-path="url(#clip500)" style="stroke:#000000; stroke-linecap:round; stroke-linejoin:round; stroke-width:4; stroke-opacity:1; fill:none" points="2237,1410.9 2237,1401.45 "/>
<path clip-path="url(#clip500)" d="M1025.46 1485.02 L1033.09 1485.02 L1033.09 1458.66 L1024.78 1460.32 L1024.78 1456.06 L1033.05 1454.4 L1037.72 1454.4 L1037.72 1485.02 L1045.36 1485.02 L1045.36 1488.96 L1025.46 1488.96 L1025.46 1485.02 Z" fill="#000000" fill-rule="nonzero" fill-opacity="1" /><path clip-path="url(#clip500)" d="M1064.81 1457.48 Q1061.2 1457.48 1059.37 1461.04 Q1057.56 1464.58 1057.56 1471.71 Q1057.56 1478.82 1059.37 1482.38 Q1061.2 1485.92 1064.81 1485.92 Q1068.44 1485.92 1070.25 1482.38 Q1072.08 1478.82 1072.08 1471.71 Q1072.08 1464.58 1070.25 1461.04 Q1068.44 1457.48 1064.81 1457.48 M1064.81 1453.77 Q1070.62 1453.77 1073.67 1458.38 Q1076.75 1462.96 1076.75 1471.71 Q1076.75 1480.44 1073.67 1485.04 Q1070.62 1489.63 1064.81 1489.63 Q1059 1489.63 1055.92 1485.04 Q1052.86 1480.44 1052.86 1471.71 Q1052.86 1462.96 1055.92 1458.38 Q1059 1453.77 1064.81 1453.77 Z" fill="#000000" fill-rule="nonzero" fill-opacity="1" /><path clip-path="url(#clip500)" d="M1081.32 1458.35 L1094.58 1458.35 L1094.58 1461.55 L1076.75 1461.55 L1076.75 1458.35 Q1078.91 1456.11 1082.64 1452.35 Q1086.38 1448.57 1087.34 1447.48 Q1089.16 1445.43 1089.88 1444.02 Q1090.61 1442.59 1090.61 1441.22 Q1090.61 1438.98 1089.03 1437.57 Q1087.47 1436.16 1084.95 1436.16 Q1083.17 1436.16 1081.17 1436.78 Q1079.2 1437.4 1076.94 1438.66 L1076.94 1434.82 Q1079.23 1433.9 1081.23 1433.43 Q1083.22 1432.96 1084.88 1432.96 Q1089.24 1432.96 1091.84 1435.14 Q1094.43 1437.32 1094.43 1440.97 Q1094.43 1442.7 1093.77 1444.26 Q1093.13 1445.8 1091.42 1447.91 Q1090.95 1448.46 1088.43 1451.07 Q1085.91 1453.67 1081.32 1458.35 Z" fill="#000000" fill-rule="nonzero" fill-opacity="1" /><path clip-path="url(#clip500)" d="M2258.9 1485.02 L2266.54 1485.02 L2266.54 1458.66 L2258.23 1460.32 L2258.23 1456.06 L2266.49 1454.4 L2271.17 1454.4 L2271.17 1485.02 L2278.81 1485.02 L2278.81 1488.96 L2258.9 1488.96 L2258.9 1485.02 Z" fill="#000000" fill-rule="nonzero" fill-opacity="1" /><path clip-path="url(#clip500)" d="M2298.25 1457.48 Q2294.64 1457.48 2292.81 1461.04 Q2291.01 1464.58 2291.01 1471.71 Q2291.01 1478.82 2292.81 1482.38 Q2294.64 1485.92 2298.25 1485.92 Q2301.89 1485.92 2303.69 1482.38 Q2305.52 1478.82 2305.52 1471.71 Q2305.52 1464.58 2303.69 1461.04 Q2301.89 1457.48 2298.25 1457.48 M2298.25 1453.77 Q2304.06 1453.77 2307.12 1458.38 Q2310.2 1462.96 2310.2 1471.71 Q2310.2 1480.44 2307.12 1485.04 Q2304.06 1489.63 2298.25 1489.63 Q2292.44 1489.63 2289.36 1485.04 Q2286.31 1480.44 2286.31 1471.71 Q2286.31 1462.96 2289.36 1458.38 Q2292.44 1453.77 2298.25 1453.77 Z" fill="#000000" fill-rule="nonzero" fill-opacity="1" /><path clip-path="url(#clip500)" d="M2322.89 1446.41 Q2325.62 1446.99 2327.14 1448.83 Q2328.69 1450.68 2328.69 1453.38 Q2328.69 1457.54 2325.83 1459.82 Q2322.97 1462.09 2317.7 1462.09 Q2315.93 1462.09 2314.05 1461.73 Q2312.19 1461.4 2310.2 1460.7 L2310.2 1457.03 Q2311.78 1457.95 2313.66 1458.42 Q2315.54 1458.89 2317.59 1458.89 Q2321.16 1458.89 2323.02 1457.48 Q2324.91 1456.07 2324.91 1453.38 Q2324.91 1450.9 2323.16 1449.51 Q2321.43 1448.1 2318.32 1448.1 L2315.05 1448.1 L2315.05 1444.98 L2318.47 1444.98 Q2321.28 1444.98 2322.76 1443.87 Q2324.25 1442.74 2324.25 1440.63 Q2324.25 1438.47 2322.71 1437.32 Q2321.18 1436.16 2318.32 1436.16 Q2316.76 1436.16 2314.98 1436.49 Q2313.19 1436.83 2311.04 1437.55 L2311.04 1434.16 Q2313.21 1433.56 2315.09 1433.26 Q2316.99 1432.96 2318.66 1432.96 Q2322.99 1432.96 2325.51 1434.93 Q2328.03 1436.89 2328.03 1440.24 Q2328.03 1442.57 2326.69 1444.19 Q2325.36 1445.79 2322.89 1446.41 Z" fill="#000000" fill-rule="nonzero" fill-opacity="1" /><path clip-path="url(#clip500)" d="M1057.97 1528.42 L1057.97 1538.54 L1070.03 1538.54 L1070.03 1543.09 L1057.97 1543.09 L1057.97 1562.44 Q1057.97 1566.8 1059.15 1568.04 Q1060.36 1569.28 1064.02 1569.28 L1070.03 1569.28 L1070.03 1574.19 L1064.02 1574.19 Q1057.24 1574.19 1054.66 1571.67 Q1052.08 1569.12 1052.08 1562.44 L1052.08 1543.09 L1047.79 1543.09 L1047.79 1538.54 L1052.08 1538.54 L1052.08 1528.42 L1057.97 1528.42 Z" fill="#000000" fill-rule="nonzero" fill-opacity="1" /><path clip-path="url(#clip500)" d="M1098.39 1544.01 Q1097.41 1543.44 1096.23 1543.18 Q1095.08 1542.9 1093.68 1542.9 Q1088.72 1542.9 1086.04 1546.14 Q1083.4 1549.36 1083.4 1555.41 L1083.4 1574.19 L1077.51 1574.19 L1077.51 1538.54 L1083.4 1538.54 L1083.4 1544.08 Q1085.25 1540.83 1088.21 1539.27 Q1091.17 1537.68 1095.4 1537.68 Q1096.01 1537.68 1096.74 1537.77 Q1097.47 1537.84 1098.36 1538 L1098.39 1544.01 Z" fill="#000000" fill-rule="nonzero" fill-opacity="1" /><path clip-path="url(#clip500)" d="M1120.74 1556.27 Q1113.64 1556.27 1110.9 1557.89 Q1108.16 1559.51 1108.16 1563.43 Q1108.16 1566.55 1110.2 1568.39 Q1112.27 1570.21 1115.8 1570.21 Q1120.67 1570.21 1123.6 1566.77 Q1126.56 1563.3 1126.56 1557.57 L1126.56 1556.27 L1120.74 1556.27 M1132.42 1553.85 L1132.42 1574.19 L1126.56 1574.19 L1126.56 1568.77 Q1124.56 1572.02 1121.56 1573.58 Q1118.57 1575.11 1114.24 1575.11 Q1108.77 1575.11 1105.52 1572.05 Q1102.31 1568.97 1102.31 1563.81 Q1102.31 1557.79 1106.32 1554.74 Q1110.36 1551.68 1118.35 1551.68 L1126.56 1551.68 L1126.56 1551.11 Q1126.56 1547.07 1123.89 1544.87 Q1121.25 1542.64 1116.44 1542.64 Q1113.38 1542.64 1110.49 1543.38 Q1107.59 1544.11 1104.92 1545.57 L1104.92 1540.16 Q1108.13 1538.92 1111.16 1538.31 Q1114.18 1537.68 1117.04 1537.68 Q1124.78 1537.68 1128.6 1541.69 Q1132.42 1545.7 1132.42 1553.85 Z" fill="#000000" fill-rule="nonzero" fill-opacity="1" /><path clip-path="url(#clip500)" d="M1144.48 1538.54 L1150.34 1538.54 L1150.34 1574.19 L1144.48 1574.19 L1144.48 1538.54 M1144.48 1524.66 L1150.34 1524.66 L1150.34 1532.08 L1144.48 1532.08 L1144.48 1524.66 Z" fill="#000000" fill-rule="nonzero" fill-opacity="1" /><path clip-path="url(#clip500)" d="M1192.22 1552.67 L1192.22 1574.19 L1186.37 1574.19 L1186.37 1552.86 Q1186.37 1547.8 1184.39 1545.29 Q1182.42 1542.77 1178.47 1542.77 Q1173.73 1542.77 1170.99 1545.79 Q1168.26 1548.82 1168.26 1554.04 L1168.26 1574.19 L1162.37 1574.19 L1162.37 1538.54 L1168.26 1538.54 L1168.26 1544.08 Q1170.36 1540.86 1173.19 1539.27 Q1176.05 1537.68 1179.78 1537.68 Q1185.92 1537.68 1189.07 1541.5 Q1192.22 1545.29 1192.22 1552.67 Z" fill="#000000" fill-rule="nonzero" fill-opacity="1" /><path clip-path="url(#clip500)" d="M1203.9 1538.54 L1209.76 1538.54 L1209.76 1574.19 L1203.9 1574.19 L1203.9 1538.54 M1203.9 1524.66 L1209.76 1524.66 L1209.76 1532.08 L1203.9 1532.08 L1203.9 1524.66 Z" fill="#000000" fill-rule="nonzero" fill-opacity="1" /><path clip-path="url(#clip500)" d="M1251.65 1552.67 L1251.65 1574.19 L1245.79 1574.19 L1245.79 1552.86 Q1245.79 1547.8 1243.82 1545.29 Q1241.84 1542.77 1237.9 1542.77 Q1233.16 1542.77 1230.42 1545.79 Q1227.68 1548.82 1227.68 1554.04 L1227.68 1574.19 L1221.79 1574.19 L1221.79 1538.54 L1227.68 1538.54 L1227.68 1544.08 Q1229.78 1540.86 1232.61 1539.27 Q1235.48 1537.68 1239.2 1537.68 Q1245.35 1537.68 1248.5 1541.5 Q1251.65 1545.29 1251.65 1552.67 Z" fill="#000000" fill-rule="nonzero" fill-opacity="1" /><path clip-path="url(#clip500)" d="M1286.79 1555.95 Q1286.79 1549.58 1284.14 1546.08 Q1281.53 1542.58 1276.79 1542.58 Q1272.08 1542.58 1269.44 1546.08 Q1266.83 1549.58 1266.83 1555.95 Q1266.83 1562.28 1269.44 1565.78 Q1272.08 1569.28 1276.79 1569.28 Q1281.53 1569.28 1284.14 1565.78 Q1286.79 1562.28 1286.79 1555.95 M1292.64 1569.76 Q1292.64 1578.86 1288.6 1583.29 Q1284.56 1587.74 1276.22 1587.74 Q1273.13 1587.74 1270.39 1587.27 Q1267.66 1586.82 1265.08 1585.87 L1265.08 1580.17 Q1267.66 1581.57 1270.17 1582.24 Q1272.69 1582.91 1275.3 1582.91 Q1281.06 1582.91 1283.92 1579.88 Q1286.79 1576.89 1286.79 1570.81 L1286.79 1567.92 Q1284.97 1571.07 1282.14 1572.63 Q1279.31 1574.19 1275.36 1574.19 Q1268.8 1574.19 1264.79 1569.19 Q1260.78 1564.19 1260.78 1555.95 Q1260.78 1547.67 1264.79 1542.68 Q1268.8 1537.68 1275.36 1537.68 Q1279.31 1537.68 1282.14 1539.24 Q1284.97 1540.8 1286.79 1543.95 L1286.79 1538.54 L1292.64 1538.54 L1292.64 1569.76 Z" fill="#000000" fill-rule="nonzero" fill-opacity="1" /><path clip-path="url(#clip500)" d="M1348.15 1539.59 L1348.15 1545.13 Q1345.67 1543.85 1343 1543.22 Q1340.32 1542.58 1337.46 1542.58 Q1333.1 1542.58 1330.9 1543.92 Q1328.74 1545.25 1328.74 1547.93 Q1328.74 1549.96 1330.3 1551.14 Q1331.86 1552.29 1336.57 1553.34 L1338.57 1553.78 Q1344.81 1555.12 1347.42 1557.57 Q1350.06 1559.99 1350.06 1564.35 Q1350.06 1569.32 1346.11 1572.21 Q1342.2 1575.11 1335.32 1575.11 Q1332.46 1575.11 1329.34 1574.54 Q1326.25 1573.99 1322.82 1572.88 L1322.82 1566.83 Q1326.06 1568.52 1329.21 1569.38 Q1332.36 1570.21 1335.45 1570.21 Q1339.59 1570.21 1341.82 1568.81 Q1344.05 1567.37 1344.05 1564.8 Q1344.05 1562.41 1342.42 1561.14 Q1340.83 1559.86 1335.39 1558.68 L1333.35 1558.21 Q1327.91 1557.06 1325.49 1554.71 Q1323.07 1552.32 1323.07 1548.18 Q1323.07 1543.15 1326.64 1540.42 Q1330.2 1537.68 1336.76 1537.68 Q1340 1537.68 1342.87 1538.16 Q1345.73 1538.63 1348.15 1539.59 Z" fill="#000000" fill-rule="nonzero" fill-opacity="1" /><path clip-path="url(#clip500)" d="M1389.88 1554.9 L1389.88 1557.76 L1362.95 1557.76 Q1363.33 1563.81 1366.58 1566.99 Q1369.86 1570.14 1375.68 1570.14 Q1379.06 1570.14 1382.21 1569.32 Q1385.39 1568.49 1388.51 1566.83 L1388.51 1572.37 Q1385.36 1573.71 1382.05 1574.41 Q1378.74 1575.11 1375.33 1575.11 Q1366.8 1575.11 1361.81 1570.14 Q1356.84 1565.18 1356.84 1556.71 Q1356.84 1547.96 1361.55 1542.83 Q1366.29 1537.68 1374.31 1537.68 Q1381.51 1537.68 1385.68 1542.33 Q1389.88 1546.94 1389.88 1554.9 M1384.02 1553.18 Q1383.96 1548.37 1381.32 1545.51 Q1378.71 1542.64 1374.38 1542.64 Q1369.48 1542.64 1366.52 1545.41 Q1363.59 1548.18 1363.14 1553.21 L1384.02 1553.18 Z" fill="#000000" fill-rule="nonzero" fill-opacity="1" /><path clip-path="url(#clip500)" d="M1405.28 1528.42 L1405.28 1538.54 L1417.35 1538.54 L1417.35 1543.09 L1405.28 1543.09 L1405.28 1562.44 Q1405.28 1566.8 1406.46 1568.04 Q1407.67 1569.28 1411.33 1569.28 L1417.35 1569.28 L1417.35 1574.19 L1411.33 1574.19 Q1404.55 1574.19 1401.97 1571.67 Q1399.4 1569.12 1399.4 1562.44 L1399.4 1543.09 L1395.1 1543.09 L1395.1 1538.54 L1399.4 1538.54 L1399.4 1528.42 L1405.28 1528.42 Z" fill="#000000" fill-rule="nonzero" fill-opacity="1" /><path clip-path="url(#clip500)" d="M1468.5 1539.59 L1468.5 1545.13 Q1466.01 1543.85 1463.34 1543.22 Q1460.67 1542.58 1457.8 1542.58 Q1453.44 1542.58 1451.24 1543.92 Q1449.08 1545.25 1449.08 1547.93 Q1449.08 1549.96 1450.64 1551.14 Q1452.2 1552.29 1456.91 1553.34 L1458.92 1553.78 Q1465.15 1555.12 1467.76 1557.57 Q1470.41 1559.99 1470.41 1564.35 Q1470.41 1569.32 1466.46 1572.21 Q1462.54 1575.11 1455.67 1575.11 Q1452.8 1575.11 1449.68 1574.54 Q1446.6 1573.99 1443.16 1572.88 L1443.16 1566.83 Q1446.41 1568.52 1449.56 1569.38 Q1452.71 1570.21 1455.8 1570.21 Q1459.93 1570.21 1462.16 1568.81 Q1464.39 1567.37 1464.39 1564.8 Q1464.39 1562.41 1462.77 1561.14 Q1461.17 1559.86 1455.73 1558.68 L1453.7 1558.21 Q1448.25 1557.06 1445.83 1554.71 Q1443.41 1552.32 1443.41 1548.18 Q1443.41 1543.15 1446.98 1540.42 Q1450.54 1537.68 1457.1 1537.68 Q1460.35 1537.68 1463.21 1538.16 Q1466.08 1538.63 1468.5 1539.59 Z" fill="#000000" fill-rule="nonzero" fill-opacity="1" /><path clip-path="url(#clip500)" d="M1479.73 1538.54 L1485.59 1538.54 L1485.59 1574.19 L1479.73 1574.19 L1479.73 1538.54 M1479.73 1524.66 L1485.59 1524.66 L1485.59 1532.08 L1479.73 1532.08 L1479.73 1524.66 Z" fill="#000000" fill-rule="nonzero" fill-opacity="1" /><path clip-path="url(#clip500)" d="M1495.3 1538.54 L1523.11 1538.54 L1523.11 1543.88 L1501.09 1569.51 L1523.11 1569.51 L1523.11 1574.19 L1494.5 1574.19 L1494.5 1568.84 L1516.52 1543.22 L1495.3 1543.22 L1495.3 1538.54 Z" fill="#000000" fill-rule="nonzero" fill-opacity="1" /><path clip-path="url(#clip500)" d="M1562.55 1554.9 L1562.55 1557.76 L1535.62 1557.76 Q1536 1563.81 1539.25 1566.99 Q1542.53 1570.14 1548.35 1570.14 Q1551.73 1570.14 1554.88 1569.32 Q1558.06 1568.49 1561.18 1566.83 L1561.18 1572.37 Q1558.03 1573.71 1554.72 1574.41 Q1551.41 1575.11 1548 1575.11 Q1539.47 1575.11 1534.48 1570.14 Q1529.51 1565.18 1529.51 1556.71 Q1529.51 1547.96 1534.22 1542.83 Q1538.96 1537.68 1546.98 1537.68 Q1554.18 1537.68 1558.35 1542.33 Q1562.55 1546.94 1562.55 1554.9 M1556.69 1553.18 Q1556.63 1548.37 1553.99 1545.51 Q1551.38 1542.64 1547.05 1542.64 Q1542.15 1542.64 1539.19 1545.41 Q1536.26 1548.18 1535.81 1553.21 L1556.69 1553.18 Z" fill="#000000" fill-rule="nonzero" fill-opacity="1" /><polyline clip-path="url(#clip500)" style="stroke:#000000; stroke-linecap:round; stroke-linejoin:round; stroke-width:4; stroke-opacity:1; fill:none" points="257.579,1410.9 257.579,123.472 "/>
<polyline clip-path="url(#clip500)" style="stroke:#000000; stroke-linecap:round; stroke-linejoin:round; stroke-width:4; stroke-opacity:1; fill:none" points="257.579,1204.98 276.476,1204.98 "/>
<polyline clip-path="url(#clip500)" style="stroke:#000000; stroke-linecap:round; stroke-linejoin:round; stroke-width:4; stroke-opacity:1; fill:none" points="257.579,787.966 276.476,787.966 "/>
<polyline clip-path="url(#clip500)" style="stroke:#000000; stroke-linecap:round; stroke-linejoin:round; stroke-width:4; stroke-opacity:1; fill:none" points="257.579,370.948 276.476,370.948 "/>
<path clip-path="url(#clip500)" d="M114.931 1224.78 L122.57 1224.78 L122.57 1198.41 L114.26 1200.08 L114.26 1195.82 L122.524 1194.15 L127.2 1194.15 L127.2 1224.78 L134.839 1224.78 L134.839 1228.71 L114.931 1228.71 L114.931 1224.78 Z" fill="#000000" fill-rule="nonzero" fill-opacity="1" /><path clip-path="url(#clip500)" d="M154.283 1197.23 Q150.672 1197.23 148.843 1200.8 Q147.038 1204.34 147.038 1211.47 Q147.038 1218.57 148.843 1222.14 Q150.672 1225.68 154.283 1225.68 Q157.917 1225.68 159.723 1222.14 Q161.552 1218.57 161.552 1211.47 Q161.552 1204.34 159.723 1200.8 Q157.917 1197.23 154.283 1197.23 M154.283 1193.53 Q160.093 1193.53 163.149 1198.13 Q166.227 1202.72 166.227 1211.47 Q166.227 1220.19 163.149 1224.8 Q160.093 1229.38 154.283 1229.38 Q148.473 1229.38 145.394 1224.8 Q142.339 1220.19 142.339 1211.47 Q142.339 1202.72 145.394 1198.13 Q148.473 1193.53 154.283 1193.53 Z" fill="#000000" fill-rule="nonzero" fill-opacity="1" /><path clip-path="url(#clip500)" d="M175.932 1175.72 Q172.998 1175.72 171.512 1178.62 Q170.045 1181.5 170.045 1187.29 Q170.045 1193.06 171.512 1195.96 Q172.998 1198.84 175.932 1198.84 Q178.885 1198.84 180.352 1195.96 Q181.838 1193.06 181.838 1187.29 Q181.838 1181.5 180.352 1178.62 Q178.885 1175.72 175.932 1175.72 M175.932 1172.71 Q180.653 1172.71 183.136 1176.46 Q185.637 1180.18 185.637 1187.29 Q185.637 1194.38 183.136 1198.12 Q180.653 1201.85 175.932 1201.85 Q171.212 1201.85 168.71 1198.12 Q166.227 1194.38 166.227 1187.29 Q166.227 1180.18 168.71 1176.46 Q171.212 1172.71 175.932 1172.71 Z" fill="#000000" fill-rule="nonzero" fill-opacity="1" /><path clip-path="url(#clip500)" d="M192.314 1196.52 L196.282 1196.52 L196.282 1201.3 L192.314 1201.3 L192.314 1196.52 Z" fill="#000000" fill-rule="nonzero" fill-opacity="1" /><path clip-path="url(#clip500)" d="M204.595 1173.22 L219.51 1173.22 L219.51 1176.42 L208.075 1176.42 L208.075 1183.3 Q208.902 1183.02 209.73 1182.89 Q210.557 1182.74 211.385 1182.74 Q216.087 1182.74 218.833 1185.32 Q221.579 1187.89 221.579 1192.29 Q221.579 1196.83 218.758 1199.35 Q215.936 1201.85 210.802 1201.85 Q209.034 1201.85 207.191 1201.55 Q205.366 1201.25 203.41 1200.64 L203.41 1196.83 Q205.103 1197.75 206.909 1198.2 Q208.714 1198.65 210.727 1198.65 Q213.98 1198.65 215.88 1196.94 Q217.78 1195.23 217.78 1192.29 Q217.78 1189.36 215.88 1187.65 Q213.98 1185.94 210.727 1185.94 Q209.203 1185.94 207.68 1186.27 Q206.175 1186.61 204.595 1187.33 L204.595 1173.22 Z" fill="#000000" fill-rule="nonzero" fill-opacity="1" /><path clip-path="url(#clip500)" d="M115.815 807.759 L123.454 807.759 L123.454 781.393 L115.144 783.06 L115.144 778.801 L123.408 777.134 L128.084 777.134 L128.084 807.759 L135.723 807.759 L135.723 811.694 L115.815 811.694 L115.815 807.759 Z" fill="#000000" fill-rule="nonzero" fill-opacity="1" /><path clip-path="url(#clip500)" d="M155.167 780.213 Q151.556 780.213 149.727 783.777 Q147.922 787.319 147.922 794.449 Q147.922 801.555 149.727 805.12 Q151.556 808.662 155.167 808.662 Q158.801 808.662 160.607 805.12 Q162.436 801.555 162.436 794.449 Q162.436 787.319 160.607 783.777 Q158.801 780.213 155.167 780.213 M155.167 776.509 Q160.977 776.509 164.033 781.115 Q167.111 785.699 167.111 794.449 Q167.111 803.175 164.033 807.782 Q160.977 812.365 155.167 812.365 Q149.357 812.365 146.278 807.782 Q143.223 803.175 143.223 794.449 Q143.223 785.699 146.278 781.115 Q149.357 776.509 155.167 776.509 Z" fill="#000000" fill-rule="nonzero" fill-opacity="1" /><path clip-path="url(#clip500)" d="M167.657 781.086 L173.863 781.086 L173.863 759.664 L167.111 761.018 L167.111 757.558 L173.826 756.204 L177.625 756.204 L177.625 781.086 L183.832 781.086 L183.832 784.284 L167.657 784.284 L167.657 781.086 Z" fill="#000000" fill-rule="nonzero" fill-opacity="1" /><path clip-path="url(#clip500)" d="M191.505 779.506 L195.474 779.506 L195.474 784.284 L191.505 784.284 L191.505 779.506 Z" fill="#000000" fill-rule="nonzero" fill-opacity="1" /><path clip-path="url(#clip500)" d="M211.874 758.705 Q208.94 758.705 207.454 761.601 Q205.987 764.479 205.987 770.272 Q205.987 776.046 207.454 778.942 Q208.94 781.82 211.874 781.82 Q214.827 781.82 216.294 778.942 Q217.78 776.046 217.78 770.272 Q217.78 764.479 216.294 761.601 Q214.827 758.705 211.874 758.705 M211.874 755.696 Q216.595 755.696 219.077 759.438 Q221.579 763.162 221.579 770.272 Q221.579 777.362 219.077 781.105 Q216.595 784.829 211.874 784.829 Q207.153 784.829 204.652 781.105 Q202.169 777.362 202.169 770.272 Q202.169 763.162 204.652 759.438 Q207.153 755.696 211.874 755.696 Z" fill="#000000" fill-rule="nonzero" fill-opacity="1" /><path clip-path="url(#clip500)" d="M116.624 390.741 L124.263 390.741 L124.263 364.375 L115.953 366.042 L115.953 361.782 L124.217 360.116 L128.893 360.116 L128.893 390.741 L136.531 390.741 L136.531 394.676 L116.624 394.676 L116.624 390.741 Z" fill="#000000" fill-rule="nonzero" fill-opacity="1" /><path clip-path="url(#clip500)" d="M155.976 363.194 Q152.365 363.194 150.536 366.759 Q148.73 370.301 148.73 377.43 Q148.73 384.537 150.536 388.102 Q152.365 391.643 155.976 391.643 Q159.61 391.643 161.416 388.102 Q163.244 384.537 163.244 377.43 Q163.244 370.301 161.416 366.759 Q159.61 363.194 155.976 363.194 M155.976 359.491 Q161.786 359.491 164.841 364.097 Q167.92 368.68 167.92 377.43 Q167.92 386.157 164.841 390.764 Q161.786 395.347 155.976 395.347 Q150.166 395.347 147.087 390.764 Q144.031 386.157 144.031 377.43 Q144.031 368.68 147.087 364.097 Q150.166 359.491 155.976 359.491 Z" fill="#000000" fill-rule="nonzero" fill-opacity="1" /><path clip-path="url(#clip500)" d="M168.466 364.068 L174.672 364.068 L174.672 342.646 L167.92 344 L167.92 340.539 L174.635 339.185 L178.434 339.185 L178.434 364.068 L184.64 364.068 L184.64 367.265 L168.466 367.265 L168.466 364.068 Z" fill="#000000" fill-rule="nonzero" fill-opacity="1" /><path clip-path="url(#clip500)" d="M192.314 362.488 L196.282 362.488 L196.282 367.265 L192.314 367.265 L192.314 362.488 Z" fill="#000000" fill-rule="nonzero" fill-opacity="1" /><path clip-path="url(#clip500)" d="M204.595 339.185 L219.51 339.185 L219.51 342.383 L208.075 342.383 L208.075 349.266 Q208.902 348.984 209.73 348.853 Q210.557 348.702 211.385 348.702 Q216.087 348.702 218.833 351.279 Q221.579 353.855 221.579 358.256 Q221.579 362.789 218.758 365.309 Q215.936 367.811 210.802 367.811 Q209.034 367.811 207.191 367.51 Q205.366 367.209 203.41 366.607 L203.41 362.789 Q205.103 363.711 206.909 364.162 Q208.714 364.613 210.727 364.613 Q213.98 364.613 215.88 362.902 Q217.78 361.19 217.78 358.256 Q217.78 355.322 215.88 353.611 Q213.98 351.899 210.727 351.899 Q209.203 351.899 207.68 352.238 Q206.175 352.576 204.595 353.291 L204.595 339.185 Z" fill="#000000" fill-rule="nonzero" fill-opacity="1" /><path clip-path="url(#clip500)" d="M35.1993 1099.27 Q31.2526 1097.07 29.3747 1094.02 Q27.4968 1090.96 27.4968 1086.82 Q27.4968 1081.25 31.4117 1078.23 Q35.2948 1075.21 42.4881 1075.21 L64.0042 1075.21 L64.0042 1081.09 L42.679 1081.09 Q37.5546 1081.09 35.072 1082.91 Q32.5894 1084.72 32.5894 1088.45 Q32.5894 1093 35.6131 1095.64 Q38.6368 1098.28 43.8567 1098.28 L64.0042 1098.28 L64.0042 1104.17 L42.679 1104.17 Q37.5228 1104.17 35.072 1105.98 Q32.5894 1107.8 32.5894 1111.59 Q32.5894 1116.07 35.6449 1118.71 Q38.6686 1121.36 43.8567 1121.36 L64.0042 1121.36 L64.0042 1127.24 L28.3562 1127.24 L28.3562 1121.36 L33.8944 1121.36 Q30.616 1119.35 29.0564 1116.55 Q27.4968 1113.75 27.4968 1109.9 Q27.4968 1106.02 29.4702 1103.31 Q31.4436 1100.57 35.1993 1099.27 Z" fill="#000000" fill-rule="nonzero" fill-opacity="1" /><path clip-path="url(#clip500)" d="M44.7161 1033.03 L47.5806 1033.03 L47.5806 1059.96 Q53.6281 1059.58 56.8109 1056.33 Q59.9619 1053.05 59.9619 1047.23 Q59.9619 1043.85 59.1344 1040.7 Q58.3069 1037.52 56.6518 1034.4 L62.1899 1034.4 Q63.5267 1037.55 64.227 1040.86 Q64.9272 1044.17 64.9272 1047.58 Q64.9272 1056.11 59.9619 1061.1 Q54.9967 1066.07 46.5303 1066.07 Q37.7774 1066.07 32.6531 1061.36 Q27.4968 1056.62 27.4968 1048.6 Q27.4968 1041.4 32.1438 1037.23 Q36.7589 1033.03 44.7161 1033.03 M42.9973 1038.89 Q38.1912 1038.95 35.3266 1041.59 Q32.4621 1044.2 32.4621 1048.53 Q32.4621 1053.43 35.2312 1056.39 Q38.0002 1059.32 43.0292 1059.77 L42.9973 1038.89 Z" fill="#000000" fill-rule="nonzero" fill-opacity="1" /><path clip-path="url(#clip500)" d="M46.0847 1007.22 Q46.0847 1014.32 47.7079 1017.05 Q49.3312 1019.79 53.2461 1019.79 Q56.3653 1019.79 58.2114 1017.75 Q60.0256 1015.69 60.0256 1012.15 Q60.0256 1007.28 56.5881 1004.35 Q53.1188 1001.39 47.3897 1001.39 L46.0847 1001.39 L46.0847 1007.22 M43.6657 995.538 L64.0042 995.538 L64.0042 1001.39 L58.5933 1001.39 Q61.8398 1003.4 63.3994 1006.39 Q64.9272 1009.38 64.9272 1013.71 Q64.9272 1019.19 61.8716 1022.43 Q58.7843 1025.65 53.6281 1025.65 Q47.6125 1025.65 44.5569 1021.64 Q41.5014 1017.6 41.5014 1009.61 L41.5014 1001.39 L40.9285 1001.39 Q36.8862 1001.39 34.6901 1004.07 Q32.4621 1006.71 32.4621 1011.52 Q32.4621 1014.57 33.1941 1017.47 Q33.9262 1020.36 35.3903 1023.04 L29.9795 1023.04 Q28.7381 1019.82 28.1334 1016.8 Q27.4968 1013.78 27.4968 1010.91 Q27.4968 1003.18 31.5072 999.358 Q35.5176 995.538 43.6657 995.538 Z" fill="#000000" fill-rule="nonzero" fill-opacity="1" /><path clip-path="url(#clip500)" d="M42.4881 953.843 L64.0042 953.843 L64.0042 959.699 L42.679 959.699 Q37.6183 959.699 35.1038 961.673 Q32.5894 963.646 32.5894 967.593 Q32.5894 972.335 35.6131 975.072 Q38.6368 977.81 43.8567 977.81 L64.0042 977.81 L64.0042 983.698 L28.3562 983.698 L28.3562 977.81 L33.8944 977.81 Q30.6797 975.709 29.0883 972.876 Q27.4968 970.012 27.4968 966.288 Q27.4968 960.145 31.3163 956.994 Q35.1038 953.843 42.4881 953.843 Z" fill="#000000" fill-rule="nonzero" fill-opacity="1" /><path clip-path="url(#clip500)" d="M18.2347 915.649 L28.3562 915.649 L28.3562 903.586 L32.9077 903.586 L32.9077 915.649 L52.2594 915.649 Q56.6199 915.649 57.8613 914.471 Q59.1026 913.261 59.1026 909.601 L59.1026 903.586 L64.0042 903.586 L64.0042 909.601 Q64.0042 916.381 61.4897 918.959 Q58.9434 921.537 52.2594 921.537 L32.9077 921.537 L32.9077 925.834 L28.3562 925.834 L28.3562 921.537 L18.2347 921.537 L18.2347 915.649 Z" fill="#000000" fill-rule="nonzero" fill-opacity="1" /><path clip-path="url(#clip500)" d="M33.8307 875.226 Q33.2578 876.213 33.0032 877.391 Q32.7167 878.537 32.7167 879.937 Q32.7167 884.902 35.9632 887.576 Q39.1779 890.218 45.2253 890.218 L64.0042 890.218 L64.0042 896.106 L28.3562 896.106 L28.3562 890.218 L33.8944 890.218 Q30.6479 888.372 29.0883 885.411 Q27.4968 882.451 27.4968 878.218 Q27.4968 877.613 27.5923 876.881 Q27.656 876.149 27.8151 875.258 L33.8307 875.226 Z" fill="#000000" fill-rule="nonzero" fill-opacity="1" /><path clip-path="url(#clip500)" d="M46.0847 852.883 Q46.0847 859.98 47.7079 862.718 Q49.3312 865.455 53.2461 865.455 Q56.3653 865.455 58.2114 863.418 Q60.0256 861.349 60.0256 857.816 Q60.0256 852.946 56.5881 850.018 Q53.1188 847.058 47.3897 847.058 L46.0847 847.058 L46.0847 852.883 M43.6657 841.202 L64.0042 841.202 L64.0042 847.058 L58.5933 847.058 Q61.8398 849.063 63.3994 852.055 Q64.9272 855.047 64.9272 859.376 Q64.9272 864.85 61.8716 868.097 Q58.7843 871.311 53.6281 871.311 Q47.6125 871.311 44.5569 867.301 Q41.5014 863.259 41.5014 855.27 L41.5014 847.058 L40.9285 847.058 Q36.8862 847.058 34.6901 849.732 Q32.4621 852.373 32.4621 857.18 Q32.4621 860.235 33.1941 863.131 Q33.9262 866.028 35.3903 868.701 L29.9795 868.701 Q28.7381 865.487 28.1334 862.463 Q27.4968 859.439 27.4968 856.575 Q27.4968 848.84 31.5072 845.021 Q35.5176 841.202 43.6657 841.202 Z" fill="#000000" fill-rule="nonzero" fill-opacity="1" /><path clip-path="url(#clip500)" d="M28.3562 829.139 L28.3562 823.282 L64.0042 823.282 L64.0042 829.139 L28.3562 829.139 M14.479 829.139 L14.479 823.282 L21.895 823.282 L21.895 829.139 L14.479 829.139 Z" fill="#000000" fill-rule="nonzero" fill-opacity="1" /><path clip-path="url(#clip500)" d="M42.4881 781.396 L64.0042 781.396 L64.0042 787.252 L42.679 787.252 Q37.6183 787.252 35.1038 789.226 Q32.5894 791.199 32.5894 795.146 Q32.5894 799.888 35.6131 802.625 Q38.6368 805.363 43.8567 805.363 L64.0042 805.363 L64.0042 811.251 L28.3562 811.251 L28.3562 805.363 L33.8944 805.363 Q30.6797 803.262 29.0883 800.429 Q27.4968 797.565 27.4968 793.841 Q27.4968 787.698 31.3163 784.547 Q35.1038 781.396 42.4881 781.396 Z" fill="#000000" fill-rule="nonzero" fill-opacity="1" /><path clip-path="url(#clip500)" d="M28.3562 769.715 L28.3562 763.858 L64.0042 763.858 L64.0042 769.715 L28.3562 769.715 M14.479 769.715 L14.479 763.858 L21.895 763.858 L21.895 769.715 L14.479 769.715 Z" fill="#000000" fill-rule="nonzero" fill-opacity="1" /><path clip-path="url(#clip500)" d="M42.4881 721.972 L64.0042 721.972 L64.0042 727.828 L42.679 727.828 Q37.6183 727.828 35.1038 729.802 Q32.5894 731.775 32.5894 735.722 Q32.5894 740.464 35.6131 743.202 Q38.6368 745.939 43.8567 745.939 L64.0042 745.939 L64.0042 751.827 L28.3562 751.827 L28.3562 745.939 L33.8944 745.939 Q30.6797 743.838 29.0883 741.005 Q27.4968 738.141 27.4968 734.417 Q27.4968 728.274 31.3163 725.123 Q35.1038 721.972 42.4881 721.972 Z" fill="#000000" fill-rule="nonzero" fill-opacity="1" /><path clip-path="url(#clip500)" d="M45.7664 686.833 Q39.4007 686.833 35.8996 689.475 Q32.3984 692.085 32.3984 696.827 Q32.3984 701.538 35.8996 704.18 Q39.4007 706.79 45.7664 706.79 Q52.1003 706.79 55.6014 704.18 Q59.1026 701.538 59.1026 696.827 Q59.1026 692.085 55.6014 689.475 Q52.1003 686.833 45.7664 686.833 M59.58 680.977 Q68.683 680.977 73.1071 685.019 Q77.5631 689.061 77.5631 697.4 Q77.5631 700.488 77.0857 703.225 Q76.6401 705.962 75.6852 708.54 L69.9879 708.54 Q71.3884 705.962 72.0568 703.448 Q72.7252 700.933 72.7252 698.323 Q72.7252 692.562 69.7015 689.698 Q66.7096 686.833 60.6303 686.833 L57.7339 686.833 Q60.885 688.647 62.4446 691.48 Q64.0042 694.313 64.0042 698.26 Q64.0042 704.816 59.0071 708.827 Q54.01 712.837 45.7664 712.837 Q37.491 712.837 32.4939 708.827 Q27.4968 704.816 27.4968 698.26 Q27.4968 694.313 29.0564 691.48 Q30.616 688.647 33.7671 686.833 L28.3562 686.833 L28.3562 680.977 L59.58 680.977 Z" fill="#000000" fill-rule="nonzero" fill-opacity="1" /><path clip-path="url(#clip500)" d="M18.2347 642.401 L28.3562 642.401 L28.3562 630.338 L32.9077 630.338 L32.9077 642.401 L52.2594 642.401 Q56.6199 642.401 57.8613 641.223 Q59.1026 640.013 59.1026 636.353 L59.1026 630.338 L64.0042 630.338 L64.0042 636.353 Q64.0042 643.133 61.4897 645.711 Q58.9434 648.289 52.2594 648.289 L32.9077 648.289 L32.9077 652.586 L28.3562 652.586 L28.3562 648.289 L18.2347 648.289 L18.2347 642.401 Z" fill="#000000" fill-rule="nonzero" fill-opacity="1" /><path clip-path="url(#clip500)" d="M28.3562 622.635 L28.3562 616.779 L64.0042 616.779 L64.0042 622.635 L28.3562 622.635 M14.479 622.635 L14.479 616.779 L21.895 616.779 L21.895 622.635 L14.479 622.635 Z" fill="#000000" fill-rule="nonzero" fill-opacity="1" /><path clip-path="url(#clip500)" d="M35.1993 576.77 Q31.2526 574.574 29.3747 571.518 Q27.4968 568.463 27.4968 564.325 Q27.4968 558.755 31.4117 555.732 Q35.2948 552.708 42.4881 552.708 L64.0042 552.708 L64.0042 558.596 L42.679 558.596 Q37.5546 558.596 35.072 560.41 Q32.5894 562.225 32.5894 565.948 Q32.5894 570.5 35.6131 573.142 Q38.6368 575.784 43.8567 575.784 L64.0042 575.784 L64.0042 581.672 L42.679 581.672 Q37.5228 581.672 35.072 583.486 Q32.5894 585.3 32.5894 589.088 Q32.5894 593.576 35.6449 596.217 Q38.6686 598.859 43.8567 598.859 L64.0042 598.859 L64.0042 604.747 L28.3562 604.747 L28.3562 598.859 L33.8944 598.859 Q30.616 596.854 29.0564 594.053 Q27.4968 591.252 27.4968 587.401 Q27.4968 583.518 29.4702 580.812 Q31.4436 578.075 35.1993 576.77 Z" fill="#000000" fill-rule="nonzero" fill-opacity="1" /><path clip-path="url(#clip500)" d="M44.7161 510.535 L47.5806 510.535 L47.5806 537.462 Q53.6281 537.08 56.8109 533.833 Q59.9619 530.555 59.9619 524.731 Q59.9619 521.357 59.1344 518.206 Q58.3069 515.023 56.6518 511.904 L62.1899 511.904 Q63.5267 515.055 64.227 518.365 Q64.9272 521.675 64.9272 525.081 Q64.9272 533.611 59.9619 538.608 Q54.9967 543.573 46.5303 543.573 Q37.7774 543.573 32.6531 538.862 Q27.4968 534.12 27.4968 526.099 Q27.4968 518.906 32.1438 514.736 Q36.7589 510.535 44.7161 510.535 M42.9973 516.391 Q38.1912 516.455 35.3266 519.097 Q32.4621 521.707 32.4621 526.036 Q32.4621 530.937 35.2312 533.897 Q38.0002 536.825 43.0292 537.271 L42.9973 516.391 Z" fill="#000000" fill-rule="nonzero" fill-opacity="1" /><path clip-path="url(#clip500)" d="M14.5426 466.134 Q21.8632 470.399 29.0246 472.468 Q36.186 474.537 43.5384 474.537 Q50.8908 474.537 58.1159 472.468 Q65.3091 470.367 72.5979 466.134 L72.5979 471.227 Q65.1182 476.001 57.8931 478.388 Q50.668 480.744 43.5384 480.744 Q36.4406 480.744 29.2474 478.388 Q22.0542 476.033 14.5426 471.227 L14.5426 466.134 Z" fill="#000000" fill-rule="nonzero" fill-opacity="1" /><path clip-path="url(#clip500)" d="M29.4065 432.046 L34.9447 432.046 Q33.6716 434.528 33.035 437.202 Q32.3984 439.876 32.3984 442.74 Q32.3984 447.101 33.7352 449.297 Q35.072 451.461 37.7456 451.461 Q39.7826 451.461 40.9603 449.902 Q42.1061 448.342 43.1565 443.631 L43.6021 441.626 Q44.9389 435.388 47.3897 432.778 Q49.8086 430.136 54.1691 430.136 Q59.1344 430.136 62.0308 434.083 Q64.9272 437.998 64.9272 444.873 Q64.9272 447.737 64.3543 450.857 Q63.8132 453.944 62.6992 457.381 L56.6518 457.381 Q58.3387 454.135 59.198 450.984 Q60.0256 447.833 60.0256 444.745 Q60.0256 440.608 58.6251 438.38 Q57.1929 436.152 54.6147 436.152 Q52.2276 436.152 50.9545 437.775 Q49.6813 439.366 48.5037 444.809 L48.0262 446.846 Q46.8804 452.289 44.5251 454.708 Q42.138 457.127 38.0002 457.127 Q32.9713 457.127 30.2341 453.562 Q27.4968 449.997 27.4968 443.44 Q27.4968 440.194 27.9743 437.329 Q28.4517 434.465 29.4065 432.046 Z" fill="#000000" fill-rule="nonzero" fill-opacity="1" /><path clip-path="url(#clip500)" d="M14.5426 421.733 L14.5426 416.641 Q22.0542 411.867 29.2474 409.511 Q36.4406 407.124 43.5384 407.124 Q50.668 407.124 57.8931 409.511 Q65.1182 411.867 72.5979 416.641 L72.5979 421.733 Q65.3091 417.5 58.1159 415.431 Q50.8908 413.331 43.5384 413.331 Q36.186 413.331 29.0246 415.431 Q21.8632 417.5 14.5426 421.733 Z" fill="#000000" fill-rule="nonzero" fill-opacity="1" /><path clip-path="url(#clip500)" d="M600.796 12.096 L651.959 12.096 L651.959 18.9825 L630.489 18.9825 L630.489 72.576 L622.266 72.576 L622.266 18.9825 L600.796 18.9825 L600.796 12.096 Z" fill="#000000" fill-rule="nonzero" fill-opacity="1" /><path clip-path="url(#clip500)" d="M673.631 34.1734 Q672.376 33.4443 670.877 33.1202 Q669.418 32.7556 667.636 32.7556 Q661.317 32.7556 657.914 36.8875 Q654.552 40.9789 654.552 48.6757 L654.552 72.576 L647.057 72.576 L647.057 27.2059 L654.552 27.2059 L654.552 34.2544 Q656.901 30.1225 660.668 28.1376 Q664.436 26.1121 669.824 26.1121 Q670.593 26.1121 671.525 26.2337 Q672.457 26.3147 673.591 26.5172 L673.631 34.1734 Z" fill="#000000" fill-rule="nonzero" fill-opacity="1" /><path clip-path="url(#clip500)" d="M702.069 49.7694 Q693.035 49.7694 689.551 51.8354 Q686.068 53.9013 686.068 58.8839 Q686.068 62.8538 688.66 65.2034 Q691.293 67.5124 695.79 67.5124 Q701.988 67.5124 705.715 63.1374 Q709.482 58.7219 709.482 51.4303 L709.482 49.7694 L702.069 49.7694 M716.936 46.6907 L716.936 72.576 L709.482 72.576 L709.482 65.6895 Q706.93 69.8214 703.122 71.8063 Q699.314 73.7508 693.805 73.7508 Q686.837 73.7508 682.705 69.8619 Q678.614 65.9325 678.614 59.3701 Q678.614 51.7138 683.718 47.825 Q688.863 43.9361 699.031 43.9361 L709.482 43.9361 L709.482 43.2069 Q709.482 38.0623 706.079 35.2672 Q702.717 32.4315 696.6 32.4315 Q692.711 32.4315 689.025 33.3632 Q685.338 34.295 681.936 36.1584 L681.936 29.2718 Q686.027 27.692 689.875 26.9223 Q693.724 26.1121 697.37 26.1121 Q707.213 26.1121 712.074 31.2163 Q716.936 36.3204 716.936 46.6907 Z" fill="#000000" fill-rule="nonzero" fill-opacity="1" /><path clip-path="url(#clip500)" d="M732.288 27.2059 L739.742 27.2059 L739.742 72.576 L732.288 72.576 L732.288 27.2059 M732.288 9.54393 L739.742 9.54393 L739.742 18.9825 L732.288 18.9825 L732.288 9.54393 Z" fill="#000000" fill-rule="nonzero" fill-opacity="1" /><path clip-path="url(#clip500)" d="M793.052 45.1919 L793.052 72.576 L785.598 72.576 L785.598 45.4349 Q785.598 38.994 783.087 35.7938 Q780.575 32.5936 775.552 32.5936 Q769.516 32.5936 766.032 36.4419 Q762.549 40.2903 762.549 46.9338 L762.549 72.576 L755.055 72.576 L755.055 27.2059 L762.549 27.2059 L762.549 34.2544 Q765.222 30.163 768.828 28.1376 Q772.473 26.1121 777.213 26.1121 Q785.031 26.1121 789.042 30.9732 Q793.052 35.7938 793.052 45.1919 Z" fill="#000000" fill-rule="nonzero" fill-opacity="1" /><path clip-path="url(#clip500)" d="M807.919 27.2059 L815.372 27.2059 L815.372 72.576 L807.919 72.576 L807.919 27.2059 M807.919 9.54393 L815.372 9.54393 L815.372 18.9825 L807.919 18.9825 L807.919 9.54393 Z" fill="#000000" fill-rule="nonzero" fill-opacity="1" /><path clip-path="url(#clip500)" d="M868.682 45.1919 L868.682 72.576 L861.229 72.576 L861.229 45.4349 Q861.229 38.994 858.717 35.7938 Q856.206 32.5936 851.182 32.5936 Q845.147 32.5936 841.663 36.4419 Q838.179 40.2903 838.179 46.9338 L838.179 72.576 L830.685 72.576 L830.685 27.2059 L838.179 27.2059 L838.179 34.2544 Q840.853 30.163 844.458 28.1376 Q848.104 26.1121 852.843 26.1121 Q860.662 26.1121 864.672 30.9732 Q868.682 35.7938 868.682 45.1919 Z" fill="#000000" fill-rule="nonzero" fill-opacity="1" /><path clip-path="url(#clip500)" d="M913.404 49.3643 Q913.404 41.2625 910.042 36.8065 Q906.72 32.3505 900.685 32.3505 Q894.689 32.3505 891.327 36.8065 Q888.005 41.2625 888.005 49.3643 Q888.005 57.4256 891.327 61.8816 Q894.689 66.3376 900.685 66.3376 Q906.72 66.3376 910.042 61.8816 Q913.404 57.4256 913.404 49.3643 M920.858 66.9452 Q920.858 78.5308 915.713 84.1616 Q910.569 89.8329 899.955 89.8329 Q896.026 89.8329 892.542 89.2252 Q889.058 88.6581 885.777 87.4428 L885.777 80.1917 Q889.058 81.9741 892.259 82.8248 Q895.459 83.6755 898.781 83.6755 Q906.113 83.6755 909.759 79.8271 Q913.404 76.0193 913.404 68.282 L913.404 64.5957 Q911.095 68.6061 907.49 70.5911 Q903.885 72.576 898.862 72.576 Q890.517 72.576 885.413 66.2161 Q880.308 59.8562 880.308 49.3643 Q880.308 38.832 885.413 32.472 Q890.517 26.1121 898.862 26.1121 Q903.885 26.1121 907.49 28.0971 Q911.095 30.082 913.404 34.0924 L913.404 27.2059 L920.858 27.2059 L920.858 66.9452 Z" fill="#000000" fill-rule="nonzero" fill-opacity="1" /><path clip-path="url(#clip500)" d="M999.162 14.0809 L999.162 22.0612 Q994.503 19.8332 990.372 18.7395 Q986.24 17.6457 982.391 17.6457 Q975.707 17.6457 972.061 20.2383 Q968.456 22.8309 968.456 27.611 Q968.456 31.6214 970.846 33.6873 Q973.277 35.7128 980.001 36.9686 L984.943 37.9813 Q994.098 39.7232 998.433 44.1387 Q1002.81 48.5136 1002.81 55.8863 Q1002.81 64.6767 996.894 69.2137 Q991.02 73.7508 979.637 73.7508 Q975.343 73.7508 970.482 72.7785 Q965.661 71.8063 960.476 69.9024 L960.476 61.4765 Q965.458 64.2716 970.239 65.6895 Q975.019 67.1073 979.637 67.1073 Q986.645 67.1073 990.453 64.3527 Q994.26 61.598 994.26 56.4939 Q994.26 52.0379 991.506 49.5264 Q988.792 47.0148 982.553 45.759 L977.571 44.7868 Q968.416 42.9639 964.324 39.075 Q960.233 35.1862 960.233 28.2591 Q960.233 20.2383 965.864 15.6203 Q971.535 11.0023 981.46 11.0023 Q985.713 11.0023 990.129 11.7719 Q994.544 12.5416 999.162 14.0809 Z" fill="#000000" fill-rule="nonzero" fill-opacity="1" /><path clip-path="url(#clip500)" d="M1054.05 48.0275 L1054.05 51.6733 L1019.78 51.6733 Q1020.27 59.3701 1024.4 63.421 Q1028.57 67.4314 1035.98 67.4314 Q1040.28 67.4314 1044.29 66.3781 Q1048.34 65.3249 1052.31 63.2184 L1052.31 70.267 Q1048.3 71.9684 1044.09 72.8596 Q1039.87 73.7508 1035.54 73.7508 Q1024.68 73.7508 1018.32 67.4314 Q1012 61.1119 1012 50.3365 Q1012 39.1965 1018 32.6746 Q1024.03 26.1121 1034.24 26.1121 Q1043.4 26.1121 1048.7 32.0264 Q1054.05 37.9003 1054.05 48.0275 M1046.6 45.84 Q1046.52 39.7232 1043.15 36.0774 Q1039.83 32.4315 1034.32 32.4315 Q1028.09 32.4315 1024.32 35.9558 Q1020.59 39.4801 1020.02 45.8805 L1046.6 45.84 Z" fill="#000000" fill-rule="nonzero" fill-opacity="1" /><path clip-path="url(#clip500)" d="M1073.66 14.324 L1073.66 27.2059 L1089.01 27.2059 L1089.01 32.9987 L1073.66 32.9987 L1073.66 57.6282 Q1073.66 63.1779 1075.16 64.7578 Q1076.7 66.3376 1081.35 66.3376 L1089.01 66.3376 L1089.01 72.576 L1081.35 72.576 Q1072.73 72.576 1069.45 69.3758 Q1066.16 66.1351 1066.16 57.6282 L1066.16 32.9987 L1060.7 32.9987 L1060.7 27.2059 L1066.16 27.2059 L1066.16 14.324 L1073.66 14.324 Z" fill="#000000" fill-rule="nonzero" fill-opacity="1" /><path clip-path="url(#clip500)" d="M1161.77 14.0809 L1161.77 22.0612 Q1157.11 19.8332 1152.97 18.7395 Q1148.84 17.6457 1144.99 17.6457 Q1138.31 17.6457 1134.66 20.2383 Q1131.06 22.8309 1131.06 27.611 Q1131.06 31.6214 1133.45 33.6873 Q1135.88 35.7128 1142.6 36.9686 L1147.55 37.9813 Q1156.7 39.7232 1161.04 44.1387 Q1165.41 48.5136 1165.41 55.8863 Q1165.41 64.6767 1159.5 69.2137 Q1153.62 73.7508 1142.24 73.7508 Q1137.95 73.7508 1133.08 72.7785 Q1128.26 71.8063 1123.08 69.9024 L1123.08 61.4765 Q1128.06 64.2716 1132.84 65.6895 Q1137.62 67.1073 1142.24 67.1073 Q1149.25 67.1073 1153.06 64.3527 Q1156.86 61.598 1156.86 56.4939 Q1156.86 52.0379 1154.11 49.5264 Q1151.39 47.0148 1145.16 45.759 L1140.17 44.7868 Q1131.02 42.9639 1126.93 39.075 Q1122.84 35.1862 1122.84 28.2591 Q1122.84 20.2383 1128.47 15.6203 Q1134.14 11.0023 1144.06 11.0023 Q1148.32 11.0023 1152.73 11.7719 Q1157.15 12.5416 1161.77 14.0809 Z" fill="#000000" fill-rule="nonzero" fill-opacity="1" /><path clip-path="url(#clip500)" d="M1177.85 27.2059 L1185.3 27.2059 L1185.3 72.576 L1177.85 72.576 L1177.85 27.2059 M1177.85 9.54393 L1185.3 9.54393 L1185.3 18.9825 L1177.85 18.9825 L1177.85 9.54393 Z" fill="#000000" fill-rule="nonzero" fill-opacity="1" /><path clip-path="url(#clip500)" d="M1197.66 27.2059 L1233.06 27.2059 L1233.06 34.0114 L1205.03 66.6212 L1233.06 66.6212 L1233.06 72.576 L1196.64 72.576 L1196.64 65.7705 L1224.68 33.1607 L1197.66 33.1607 L1197.66 27.2059 Z" fill="#000000" fill-rule="nonzero" fill-opacity="1" /><path clip-path="url(#clip500)" d="M1283.25 48.0275 L1283.25 51.6733 L1248.98 51.6733 Q1249.47 59.3701 1253.6 63.421 Q1257.77 67.4314 1265.18 67.4314 Q1269.48 67.4314 1273.49 66.3781 Q1277.54 65.3249 1281.51 63.2184 L1281.51 70.267 Q1277.5 71.9684 1273.29 72.8596 Q1269.07 73.7508 1264.74 73.7508 Q1253.88 73.7508 1247.52 67.4314 Q1241.2 61.1119 1241.2 50.3365 Q1241.2 39.1965 1247.2 32.6746 Q1253.23 26.1121 1263.44 26.1121 Q1272.6 26.1121 1277.9 32.0264 Q1283.25 37.9003 1283.25 48.0275 M1275.8 45.84 Q1275.72 39.7232 1272.35 36.0774 Q1269.03 32.4315 1263.52 32.4315 Q1257.29 32.4315 1253.52 35.9558 Q1249.79 39.4801 1249.22 45.8805 L1275.8 45.84 Z" fill="#000000" fill-rule="nonzero" fill-opacity="1" /><path clip-path="url(#clip500)" d="M1313.8 12.096 L1364.96 12.096 L1364.96 18.9825 L1343.49 18.9825 L1343.49 72.576 L1335.27 72.576 L1335.27 18.9825 L1313.8 18.9825 L1313.8 12.096 Z" fill="#000000" fill-rule="nonzero" fill-opacity="1" /><path clip-path="url(#clip500)" d="M1369.98 27.2059 L1377.44 27.2059 L1377.44 72.576 L1369.98 72.576 L1369.98 27.2059 M1369.98 9.54393 L1377.44 9.54393 L1377.44 18.9825 L1369.98 18.9825 L1369.98 9.54393 Z" fill="#000000" fill-rule="nonzero" fill-opacity="1" /><path clip-path="url(#clip500)" d="M1428.36 35.9153 Q1431.15 30.8922 1435.04 28.5022 Q1438.93 26.1121 1444.19 26.1121 Q1451.28 26.1121 1455.13 31.0947 Q1458.98 36.0368 1458.98 45.1919 L1458.98 72.576 L1451.49 72.576 L1451.49 45.4349 Q1451.49 38.913 1449.18 35.7533 Q1446.87 32.5936 1442.13 32.5936 Q1436.34 32.5936 1432.97 36.4419 Q1429.61 40.2903 1429.61 46.9338 L1429.61 72.576 L1422.12 72.576 L1422.12 45.4349 Q1422.12 38.8725 1419.81 35.7533 Q1417.5 32.5936 1412.68 32.5936 Q1406.97 32.5936 1403.6 36.4824 Q1400.24 40.3308 1400.24 46.9338 L1400.24 72.576 L1392.75 72.576 L1392.75 27.2059 L1400.24 27.2059 L1400.24 34.2544 Q1402.79 30.082 1406.36 28.0971 Q1409.92 26.1121 1414.83 26.1121 Q1419.77 26.1121 1423.21 28.6237 Q1426.69 31.1352 1428.36 35.9153 Z" fill="#000000" fill-rule="nonzero" fill-opacity="1" /><path clip-path="url(#clip500)" d="M1512.65 48.0275 L1512.65 51.6733 L1478.38 51.6733 Q1478.87 59.3701 1483 63.421 Q1487.17 67.4314 1494.59 67.4314 Q1498.88 67.4314 1502.89 66.3781 Q1506.94 65.3249 1510.91 63.2184 L1510.91 70.267 Q1506.9 71.9684 1502.69 72.8596 Q1498.48 73.7508 1494.14 73.7508 Q1483.29 73.7508 1476.93 67.4314 Q1470.61 61.1119 1470.61 50.3365 Q1470.61 39.1965 1476.6 32.6746 Q1482.64 26.1121 1492.85 26.1121 Q1502 26.1121 1507.31 32.0264 Q1512.65 37.9003 1512.65 48.0275 M1505.2 45.84 Q1505.12 39.7232 1501.76 36.0774 Q1498.44 32.4315 1492.93 32.4315 Q1486.69 32.4315 1482.92 35.9558 Q1479.19 39.4801 1478.63 45.8805 L1505.2 45.84 Z" fill="#000000" fill-rule="nonzero" fill-opacity="1" /><path clip-path="url(#clip500)" d="M1596.87 16.7545 L1596.87 25.383 Q1592.74 21.5346 1588.04 19.6307 Q1583.38 17.7268 1578.12 17.7268 Q1567.75 17.7268 1562.24 24.0867 Q1556.73 30.4061 1556.73 42.3968 Q1556.73 54.3469 1562.24 60.7069 Q1567.75 67.0263 1578.12 67.0263 Q1583.38 67.0263 1588.04 65.1223 Q1592.74 63.2184 1596.87 59.3701 L1596.87 67.9175 Q1592.58 70.8341 1587.76 72.2924 Q1582.98 73.7508 1577.63 73.7508 Q1563.9 73.7508 1556 65.3654 Q1548.1 56.9395 1548.1 42.3968 Q1548.1 27.8135 1556 19.4281 Q1563.9 11.0023 1577.63 11.0023 Q1583.06 11.0023 1587.84 12.4606 Q1592.66 13.8784 1596.87 16.7545 Z" fill="#000000" fill-rule="nonzero" fill-opacity="1" /><path clip-path="url(#clip500)" d="M1626.77 32.4315 Q1620.77 32.4315 1617.29 37.1306 Q1613.81 41.7891 1613.81 49.9314 Q1613.81 58.0738 1617.25 62.7728 Q1620.73 67.4314 1626.77 67.4314 Q1632.72 67.4314 1636.21 62.7323 Q1639.69 58.0333 1639.69 49.9314 Q1639.69 41.8701 1636.21 37.1711 Q1632.72 32.4315 1626.77 32.4315 M1626.77 26.1121 Q1636.49 26.1121 1642.04 32.4315 Q1647.59 38.7509 1647.59 49.9314 Q1647.59 61.0714 1642.04 67.4314 Q1636.49 73.7508 1626.77 73.7508 Q1617.01 73.7508 1611.46 67.4314 Q1605.95 61.0714 1605.95 49.9314 Q1605.95 38.7509 1611.46 32.4315 Q1617.01 26.1121 1626.77 26.1121 Z" fill="#000000" fill-rule="nonzero" fill-opacity="1" /><path clip-path="url(#clip500)" d="M1695.27 35.9153 Q1698.06 30.8922 1701.95 28.5022 Q1705.84 26.1121 1711.11 26.1121 Q1718.2 26.1121 1722.05 31.0947 Q1725.89 36.0368 1725.89 45.1919 L1725.89 72.576 L1718.4 72.576 L1718.4 45.4349 Q1718.4 38.913 1716.09 35.7533 Q1713.78 32.5936 1709.04 32.5936 Q1703.25 32.5936 1699.89 36.4419 Q1696.53 40.2903 1696.53 46.9338 L1696.53 72.576 L1689.03 72.576 L1689.03 45.4349 Q1689.03 38.8725 1686.72 35.7533 Q1684.41 32.5936 1679.59 32.5936 Q1673.88 32.5936 1670.52 36.4824 Q1667.16 40.3308 1667.16 46.9338 L1667.16 72.576 L1659.66 72.576 L1659.66 27.2059 L1667.16 27.2059 L1667.16 34.2544 Q1669.71 30.082 1673.27 28.0971 Q1676.84 26.1121 1681.74 26.1121 Q1686.68 26.1121 1690.12 28.6237 Q1693.61 31.1352 1695.27 35.9153 Z" fill="#000000" fill-rule="nonzero" fill-opacity="1" /><path clip-path="url(#clip500)" d="M1747.97 65.7705 L1747.97 89.8329 L1740.48 89.8329 L1740.48 27.2059 L1747.97 27.2059 L1747.97 34.0924 Q1750.32 30.0415 1753.89 28.0971 Q1757.49 26.1121 1762.47 26.1121 Q1770.74 26.1121 1775.88 32.6746 Q1781.07 39.2371 1781.07 49.9314 Q1781.07 60.6258 1775.88 67.1883 Q1770.74 73.7508 1762.47 73.7508 Q1757.49 73.7508 1753.89 71.8063 Q1750.32 69.8214 1747.97 65.7705 M1773.33 49.9314 Q1773.33 41.7081 1769.93 37.0496 Q1766.57 32.3505 1760.65 32.3505 Q1754.74 32.3505 1751.33 37.0496 Q1747.97 41.7081 1747.97 49.9314 Q1747.97 58.1548 1751.33 62.8538 Q1754.74 67.5124 1760.65 67.5124 Q1766.57 67.5124 1769.93 62.8538 Q1773.33 58.1548 1773.33 49.9314 Z" fill="#000000" fill-rule="nonzero" fill-opacity="1" /><path clip-path="url(#clip500)" d="M1793.42 9.54393 L1800.88 9.54393 L1800.88 72.576 L1793.42 72.576 L1793.42 9.54393 Z" fill="#000000" fill-rule="nonzero" fill-opacity="1" /><path clip-path="url(#clip500)" d="M1855.28 48.0275 L1855.28 51.6733 L1821.01 51.6733 Q1821.5 59.3701 1825.63 63.421 Q1829.8 67.4314 1837.21 67.4314 Q1841.51 67.4314 1845.52 66.3781 Q1849.57 65.3249 1853.54 63.2184 L1853.54 70.267 Q1849.53 71.9684 1845.31 72.8596 Q1841.1 73.7508 1836.77 73.7508 Q1825.91 73.7508 1819.55 67.4314 Q1813.23 61.1119 1813.23 50.3365 Q1813.23 39.1965 1819.23 32.6746 Q1825.26 26.1121 1835.47 26.1121 Q1844.63 26.1121 1849.93 32.0264 Q1855.28 37.9003 1855.28 48.0275 M1847.83 45.84 Q1847.75 39.7232 1844.38 36.0774 Q1841.06 32.4315 1835.55 32.4315 Q1829.31 32.4315 1825.55 35.9558 Q1821.82 39.4801 1821.25 45.8805 L1847.83 45.84 Z" fill="#000000" fill-rule="nonzero" fill-opacity="1" /><path clip-path="url(#clip500)" d="M1903.77 27.2059 L1887.36 49.2833 L1904.62 72.576 L1895.83 72.576 L1882.62 54.752 L1869.42 72.576 L1860.63 72.576 L1878.25 48.8377 L1862.13 27.2059 L1870.92 27.2059 L1882.95 43.369 L1894.98 27.2059 L1903.77 27.2059 Z" fill="#000000" fill-rule="nonzero" fill-opacity="1" /><path clip-path="url(#clip500)" d="M1915.15 27.2059 L1922.61 27.2059 L1922.61 72.576 L1915.15 72.576 L1915.15 27.2059 M1915.15 9.54393 L1922.61 9.54393 L1922.61 18.9825 L1915.15 18.9825 L1915.15 9.54393 Z" fill="#000000" fill-rule="nonzero" fill-opacity="1" /><path clip-path="url(#clip500)" d="M1945.57 14.324 L1945.57 27.2059 L1960.93 27.2059 L1960.93 32.9987 L1945.57 32.9987 L1945.57 57.6282 Q1945.57 63.1779 1947.07 64.7578 Q1948.61 66.3376 1953.27 66.3376 L1960.93 66.3376 L1960.93 72.576 L1953.27 72.576 Q1944.64 72.576 1941.36 69.3758 Q1938.08 66.1351 1938.08 57.6282 L1938.08 32.9987 L1932.61 32.9987 L1932.61 27.2059 L1938.08 27.2059 L1938.08 14.324 L1945.57 14.324 Z" fill="#000000" fill-rule="nonzero" fill-opacity="1" /><path clip-path="url(#clip500)" d="M1989.61 76.7889 Q1986.45 84.8907 1983.45 87.3618 Q1980.45 89.8329 1975.43 89.8329 L1969.48 89.8329 L1969.48 83.5945 L1973.85 83.5945 Q1976.93 83.5945 1978.63 82.1361 Q1980.33 80.6778 1982.4 75.2496 L1983.73 71.8468 L1965.38 27.2059 L1973.28 27.2059 L1987.46 62.6918 L2001.64 27.2059 L2009.54 27.2059 L1989.61 76.7889 Z" fill="#000000" fill-rule="nonzero" fill-opacity="1" /><polyline clip-path="url(#clip502)" style="stroke:#add8e6; stroke-linecap:round; stroke-linejoin:round; stroke-width:8; stroke-opacity:1; fill:none" points="316.876,1363.16 688.28,1171.14 1059.68,950.51 1431.09,735.522 1648.34,594.21 1802.49,483.558 1922.06,401.933 2019.75,319.873 2102.34,274.119 2173.89,246.424 2237,203.905 2293.46,162.048 "/>
<circle clip-path="url(#clip502)" cx="316.876" cy="1363.16" r="14.4" fill="#add8e6" fill-rule="evenodd" fill-opacity="1" stroke="#000000" stroke-opacity="1" stroke-width="3.2"/>
<circle clip-path="url(#clip502)" cx="688.28" cy="1171.14" r="14.4" fill="#add8e6" fill-rule="evenodd" fill-opacity="1" stroke="#000000" stroke-opacity="1" stroke-width="3.2"/>
<circle clip-path="url(#clip502)" cx="1059.68" cy="950.51" r="14.4" fill="#add8e6" fill-rule="evenodd" fill-opacity="1" stroke="#000000" stroke-opacity="1" stroke-width="3.2"/>
<circle clip-path="url(#clip502)" cx="1431.09" cy="735.522" r="14.4" fill="#add8e6" fill-rule="evenodd" fill-opacity="1" stroke="#000000" stroke-opacity="1" stroke-width="3.2"/>
<circle clip-path="url(#clip502)" cx="1648.34" cy="594.21" r="14.4" fill="#add8e6" fill-rule="evenodd" fill-opacity="1" stroke="#000000" stroke-opacity="1" stroke-width="3.2"/>
<circle clip-path="url(#clip502)" cx="1802.49" cy="483.558" r="14.4" fill="#add8e6" fill-rule="evenodd" fill-opacity="1" stroke="#000000" stroke-opacity="1" stroke-width="3.2"/>
<circle clip-path="url(#clip502)" cx="1922.06" cy="401.933" r="14.4" fill="#add8e6" fill-rule="evenodd" fill-opacity="1" stroke="#000000" stroke-opacity="1" stroke-width="3.2"/>
<circle clip-path="url(#clip502)" cx="2019.75" cy="319.873" r="14.4" fill="#add8e6" fill-rule="evenodd" fill-opacity="1" stroke="#000000" stroke-opacity="1" stroke-width="3.2"/>
<circle clip-path="url(#clip502)" cx="2102.34" cy="274.119" r="14.4" fill="#add8e6" fill-rule="evenodd" fill-opacity="1" stroke="#000000" stroke-opacity="1" stroke-width="3.2"/>
<circle clip-path="url(#clip502)" cx="2173.89" cy="246.424" r="14.4" fill="#add8e6" fill-rule="evenodd" fill-opacity="1" stroke="#000000" stroke-opacity="1" stroke-width="3.2"/>
<circle clip-path="url(#clip502)" cx="2237" cy="203.905" r="14.4" fill="#add8e6" fill-rule="evenodd" fill-opacity="1" stroke="#000000" stroke-opacity="1" stroke-width="3.2"/>
<circle clip-path="url(#clip502)" cx="2293.46" cy="162.048" r="14.4" fill="#add8e6" fill-rule="evenodd" fill-opacity="1" stroke="#000000" stroke-opacity="1" stroke-width="3.2"/>
<polyline clip-path="url(#clip502)" style="stroke:#000000; stroke-linecap:round; stroke-linejoin:round; stroke-width:4; stroke-opacity:1; fill:none" points="316.876,1374.46 316.876,1352.21 "/>
<polyline clip-path="url(#clip502)" style="stroke:#000000; stroke-linecap:round; stroke-linejoin:round; stroke-width:4; stroke-opacity:1; fill:none" points="688.28,1207.13 688.28,1138.41 "/>
<polyline clip-path="url(#clip502)" style="stroke:#000000; stroke-linecap:round; stroke-linejoin:round; stroke-width:4; stroke-opacity:1; fill:none" points="1059.68,970.939 1059.68,931.172 "/>
<polyline clip-path="url(#clip502)" style="stroke:#000000; stroke-linecap:round; stroke-linejoin:round; stroke-width:4; stroke-opacity:1; fill:none" points="1431.09,749.661 1431.09,721.915 "/>
<polyline clip-path="url(#clip502)" style="stroke:#000000; stroke-linecap:round; stroke-linejoin:round; stroke-width:4; stroke-opacity:1; fill:none" points="1648.34,609.774 1648.34,579.287 "/>
<polyline clip-path="url(#clip502)" style="stroke:#000000; stroke-linecap:round; stroke-linejoin:round; stroke-width:4; stroke-opacity:1; fill:none" points="1802.49,504.278 1802.49,463.96 "/>
<polyline clip-path="url(#clip502)" style="stroke:#000000; stroke-linecap:round; stroke-linejoin:round; stroke-width:4; stroke-opacity:1; fill:none" points="1922.06,409.472 1922.06,394.547 "/>
<polyline clip-path="url(#clip502)" style="stroke:#000000; stroke-linecap:round; stroke-linejoin:round; stroke-width:4; stroke-opacity:1; fill:none" points="2019.75,332.778 2019.75,307.411 "/>
<polyline clip-path="url(#clip502)" style="stroke:#000000; stroke-linecap:round; stroke-linejoin:round; stroke-width:4; stroke-opacity:1; fill:none" points="2102.34,289.73 2102.34,259.153 "/>
<polyline clip-path="url(#clip502)" style="stroke:#000000; stroke-linecap:round; stroke-linejoin:round; stroke-width:4; stroke-opacity:1; fill:none" points="2173.89,249.341 2173.89,243.531 "/>
<polyline clip-path="url(#clip502)" style="stroke:#000000; stroke-linecap:round; stroke-linejoin:round; stroke-width:4; stroke-opacity:1; fill:none" points="2237,205.042 2237,202.772 "/>
<polyline clip-path="url(#clip502)" style="stroke:#000000; stroke-linecap:round; stroke-linejoin:round; stroke-width:4; stroke-opacity:1; fill:none" points="2293.46,164.2 2293.46,159.909 "/>
<line clip-path="url(#clip502)" x1="332.876" y1="1374.46" x2="300.876" y2="1374.46" style="stroke:#000000; stroke-width:4; stroke-opacity:1"/>
<line clip-path="url(#clip502)" x1="332.876" y1="1352.21" x2="300.876" y2="1352.21" style="stroke:#000000; stroke-width:4; stroke-opacity:1"/>
<line clip-path="url(#clip502)" x1="704.28" y1="1207.13" x2="672.28" y2="1207.13" style="stroke:#000000; stroke-width:4; stroke-opacity:1"/>
<line clip-path="url(#clip502)" x1="704.28" y1="1138.41" x2="672.28" y2="1138.41" style="stroke:#000000; stroke-width:4; stroke-opacity:1"/>
<line clip-path="url(#clip502)" x1="1075.68" y1="970.939" x2="1043.68" y2="970.939" style="stroke:#000000; stroke-width:4; stroke-opacity:1"/>
<line clip-path="url(#clip502)" x1="1075.68" y1="931.172" x2="1043.68" y2="931.172" style="stroke:#000000; stroke-width:4; stroke-opacity:1"/>
<line clip-path="url(#clip502)" x1="1447.09" y1="749.661" x2="1415.09" y2="749.661" style="stroke:#000000; stroke-width:4; stroke-opacity:1"/>
<line clip-path="url(#clip502)" x1="1447.09" y1="721.915" x2="1415.09" y2="721.915" style="stroke:#000000; stroke-width:4; stroke-opacity:1"/>
<line clip-path="url(#clip502)" x1="1664.34" y1="609.774" x2="1632.34" y2="609.774" style="stroke:#000000; stroke-width:4; stroke-opacity:1"/>
<line clip-path="url(#clip502)" x1="1664.34" y1="579.287" x2="1632.34" y2="579.287" style="stroke:#000000; stroke-width:4; stroke-opacity:1"/>
<line clip-path="url(#clip502)" x1="1818.49" y1="504.278" x2="1786.49" y2="504.278" style="stroke:#000000; stroke-width:4; stroke-opacity:1"/>
<line clip-path="url(#clip502)" x1="1818.49" y1="463.96" x2="1786.49" y2="463.96" style="stroke:#000000; stroke-width:4; stroke-opacity:1"/>
<line clip-path="url(#clip502)" x1="1938.06" y1="409.472" x2="1906.06" y2="409.472" style="stroke:#000000; stroke-width:4; stroke-opacity:1"/>
<line clip-path="url(#clip502)" x1="1938.06" y1="394.547" x2="1906.06" y2="394.547" style="stroke:#000000; stroke-width:4; stroke-opacity:1"/>
<line clip-path="url(#clip502)" x1="2035.75" y1="332.778" x2="2003.75" y2="332.778" style="stroke:#000000; stroke-width:4; stroke-opacity:1"/>
<line clip-path="url(#clip502)" x1="2035.75" y1="307.411" x2="2003.75" y2="307.411" style="stroke:#000000; stroke-width:4; stroke-opacity:1"/>
<line clip-path="url(#clip502)" x1="2118.34" y1="289.73" x2="2086.34" y2="289.73" style="stroke:#000000; stroke-width:4; stroke-opacity:1"/>
<line clip-path="url(#clip502)" x1="2118.34" y1="259.153" x2="2086.34" y2="259.153" style="stroke:#000000; stroke-width:4; stroke-opacity:1"/>
<line clip-path="url(#clip502)" x1="2189.89" y1="249.341" x2="2157.89" y2="249.341" style="stroke:#000000; stroke-width:4; stroke-opacity:1"/>
<line clip-path="url(#clip502)" x1="2189.89" y1="243.531" x2="2157.89" y2="243.531" style="stroke:#000000; stroke-width:4; stroke-opacity:1"/>
<line clip-path="url(#clip502)" x1="2253" y1="205.042" x2="2221" y2="205.042" style="stroke:#000000; stroke-width:4; stroke-opacity:1"/>
<line clip-path="url(#clip502)" x1="2253" y1="202.772" x2="2221" y2="202.772" style="stroke:#000000; stroke-width:4; stroke-opacity:1"/>
<line clip-path="url(#clip502)" x1="2309.46" y1="164.2" x2="2277.46" y2="164.2" style="stroke:#000000; stroke-width:4; stroke-opacity:1"/>
<line clip-path="url(#clip502)" x1="2309.46" y1="159.909" x2="2277.46" y2="159.909" style="stroke:#000000; stroke-width:4; stroke-opacity:1"/>
<circle clip-path="url(#clip502)" cx="316.876" cy="1363.16" r="14.4" fill="#add8e6" fill-rule="evenodd" fill-opacity="1" stroke="#000000" stroke-opacity="1" stroke-width="3.2"/>
<circle clip-path="url(#clip502)" cx="688.28" cy="1171.14" r="14.4" fill="#add8e6" fill-rule="evenodd" fill-opacity="1" stroke="#000000" stroke-opacity="1" stroke-width="3.2"/>
<circle clip-path="url(#clip502)" cx="1059.68" cy="950.51" r="14.4" fill="#add8e6" fill-rule="evenodd" fill-opacity="1" stroke="#000000" stroke-opacity="1" stroke-width="3.2"/>
<circle clip-path="url(#clip502)" cx="1431.09" cy="735.522" r="14.4" fill="#add8e6" fill-rule="evenodd" fill-opacity="1" stroke="#000000" stroke-opacity="1" stroke-width="3.2"/>
<circle clip-path="url(#clip502)" cx="1648.34" cy="594.21" r="14.4" fill="#add8e6" fill-rule="evenodd" fill-opacity="1" stroke="#000000" stroke-opacity="1" stroke-width="3.2"/>
<circle clip-path="url(#clip502)" cx="1802.49" cy="483.558" r="14.4" fill="#add8e6" fill-rule="evenodd" fill-opacity="1" stroke="#000000" stroke-opacity="1" stroke-width="3.2"/>
<circle clip-path="url(#clip502)" cx="1922.06" cy="401.933" r="14.4" fill="#add8e6" fill-rule="evenodd" fill-opacity="1" stroke="#000000" stroke-opacity="1" stroke-width="3.2"/>
<circle clip-path="url(#clip502)" cx="2019.75" cy="319.873" r="14.4" fill="#add8e6" fill-rule="evenodd" fill-opacity="1" stroke="#000000" stroke-opacity="1" stroke-width="3.2"/>
<circle clip-path="url(#clip502)" cx="2102.34" cy="274.119" r="14.4" fill="#add8e6" fill-rule="evenodd" fill-opacity="1" stroke="#000000" stroke-opacity="1" stroke-width="3.2"/>
<circle clip-path="url(#clip502)" cx="2173.89" cy="246.424" r="14.4" fill="#add8e6" fill-rule="evenodd" fill-opacity="1" stroke="#000000" stroke-opacity="1" stroke-width="3.2"/>
<circle clip-path="url(#clip502)" cx="2237" cy="203.905" r="14.4" fill="#add8e6" fill-rule="evenodd" fill-opacity="1" stroke="#000000" stroke-opacity="1" stroke-width="3.2"/>
<circle clip-path="url(#clip502)" cx="2293.46" cy="162.048" r="14.4" fill="#add8e6" fill-rule="evenodd" fill-opacity="1" stroke="#000000" stroke-opacity="1" stroke-width="3.2"/>
<polyline clip-path="url(#clip502)" style="stroke:#000000; stroke-linecap:round; stroke-linejoin:round; stroke-width:4; stroke-opacity:1; fill:none" points="316.876,1374.46 316.876,1352.21 "/>
<polyline clip-path="url(#clip502)" style="stroke:#000000; stroke-linecap:round; stroke-linejoin:round; stroke-width:4; stroke-opacity:1; fill:none" points="688.28,1207.13 688.28,1138.41 "/>
<polyline clip-path="url(#clip502)" style="stroke:#000000; stroke-linecap:round; stroke-linejoin:round; stroke-width:4; stroke-opacity:1; fill:none" points="1059.68,970.939 1059.68,931.172 "/>
<polyline clip-path="url(#clip502)" style="stroke:#000000; stroke-linecap:round; stroke-linejoin:round; stroke-width:4; stroke-opacity:1; fill:none" points="1431.09,749.661 1431.09,721.915 "/>
<polyline clip-path="url(#clip502)" style="stroke:#000000; stroke-linecap:round; stroke-linejoin:round; stroke-width:4; stroke-opacity:1; fill:none" points="1648.34,609.774 1648.34,579.287 "/>
<polyline clip-path="url(#clip502)" style="stroke:#000000; stroke-linecap:round; stroke-linejoin:round; stroke-width:4; stroke-opacity:1; fill:none" points="1802.49,504.278 1802.49,463.96 "/>
<polyline clip-path="url(#clip502)" style="stroke:#000000; stroke-linecap:round; stroke-linejoin:round; stroke-width:4; stroke-opacity:1; fill:none" points="1922.06,409.472 1922.06,394.547 "/>
<polyline clip-path="url(#clip502)" style="stroke:#000000; stroke-linecap:round; stroke-linejoin:round; stroke-width:4; stroke-opacity:1; fill:none" points="2019.75,332.778 2019.75,307.411 "/>
<polyline clip-path="url(#clip502)" style="stroke:#000000; stroke-linecap:round; stroke-linejoin:round; stroke-width:4; stroke-opacity:1; fill:none" points="2102.34,289.73 2102.34,259.153 "/>
<polyline clip-path="url(#clip502)" style="stroke:#000000; stroke-linecap:round; stroke-linejoin:round; stroke-width:4; stroke-opacity:1; fill:none" points="2173.89,249.341 2173.89,243.531 "/>
<polyline clip-path="url(#clip502)" style="stroke:#000000; stroke-linecap:round; stroke-linejoin:round; stroke-width:4; stroke-opacity:1; fill:none" points="2237,205.042 2237,202.772 "/>
<polyline clip-path="url(#clip502)" style="stroke:#000000; stroke-linecap:round; stroke-linejoin:round; stroke-width:4; stroke-opacity:1; fill:none" points="2293.46,164.2 2293.46,159.909 "/>
<line clip-path="url(#clip502)" x1="332.876" y1="1374.46" x2="300.876" y2="1374.46" style="stroke:#000000; stroke-width:4; stroke-opacity:1"/>
<line clip-path="url(#clip502)" x1="332.876" y1="1352.21" x2="300.876" y2="1352.21" style="stroke:#000000; stroke-width:4; stroke-opacity:1"/>
<line clip-path="url(#clip502)" x1="704.28" y1="1207.13" x2="672.28" y2="1207.13" style="stroke:#000000; stroke-width:4; stroke-opacity:1"/>
<line clip-path="url(#clip502)" x1="704.28" y1="1138.41" x2="672.28" y2="1138.41" style="stroke:#000000; stroke-width:4; stroke-opacity:1"/>
<line clip-path="url(#clip502)" x1="1075.68" y1="970.939" x2="1043.68" y2="970.939" style="stroke:#000000; stroke-width:4; stroke-opacity:1"/>
<line clip-path="url(#clip502)" x1="1075.68" y1="931.172" x2="1043.68" y2="931.172" style="stroke:#000000; stroke-width:4; stroke-opacity:1"/>
<line clip-path="url(#clip502)" x1="1447.09" y1="749.661" x2="1415.09" y2="749.661" style="stroke:#000000; stroke-width:4; stroke-opacity:1"/>
<line clip-path="url(#clip502)" x1="1447.09" y1="721.915" x2="1415.09" y2="721.915" style="stroke:#000000; stroke-width:4; stroke-opacity:1"/>
<line clip-path="url(#clip502)" x1="1664.34" y1="609.774" x2="1632.34" y2="609.774" style="stroke:#000000; stroke-width:4; stroke-opacity:1"/>
<line clip-path="url(#clip502)" x1="1664.34" y1="579.287" x2="1632.34" y2="579.287" style="stroke:#000000; stroke-width:4; stroke-opacity:1"/>
<line clip-path="url(#clip502)" x1="1818.49" y1="504.278" x2="1786.49" y2="504.278" style="stroke:#000000; stroke-width:4; stroke-opacity:1"/>
<line clip-path="url(#clip502)" x1="1818.49" y1="463.96" x2="1786.49" y2="463.96" style="stroke:#000000; stroke-width:4; stroke-opacity:1"/>
<line clip-path="url(#clip502)" x1="1938.06" y1="409.472" x2="1906.06" y2="409.472" style="stroke:#000000; stroke-width:4; stroke-opacity:1"/>
<line clip-path="url(#clip502)" x1="1938.06" y1="394.547" x2="1906.06" y2="394.547" style="stroke:#000000; stroke-width:4; stroke-opacity:1"/>
<line clip-path="url(#clip502)" x1="2035.75" y1="332.778" x2="2003.75" y2="332.778" style="stroke:#000000; stroke-width:4; stroke-opacity:1"/>
<line clip-path="url(#clip502)" x1="2035.75" y1="307.411" x2="2003.75" y2="307.411" style="stroke:#000000; stroke-width:4; stroke-opacity:1"/>
<line clip-path="url(#clip502)" x1="2118.34" y1="289.73" x2="2086.34" y2="289.73" style="stroke:#000000; stroke-width:4; stroke-opacity:1"/>
<line clip-path="url(#clip502)" x1="2118.34" y1="259.153" x2="2086.34" y2="259.153" style="stroke:#000000; stroke-width:4; stroke-opacity:1"/>
<line clip-path="url(#clip502)" x1="2189.89" y1="249.341" x2="2157.89" y2="249.341" style="stroke:#000000; stroke-width:4; stroke-opacity:1"/>
<line clip-path="url(#clip502)" x1="2189.89" y1="243.531" x2="2157.89" y2="243.531" style="stroke:#000000; stroke-width:4; stroke-opacity:1"/>
<line clip-path="url(#clip502)" x1="2253" y1="205.042" x2="2221" y2="205.042" style="stroke:#000000; stroke-width:4; stroke-opacity:1"/>
<line clip-path="url(#clip502)" x1="2253" y1="202.772" x2="2221" y2="202.772" style="stroke:#000000; stroke-width:4; stroke-opacity:1"/>
<line clip-path="url(#clip502)" x1="2309.46" y1="164.2" x2="2277.46" y2="164.2" style="stroke:#000000; stroke-width:4; stroke-opacity:1"/>
<line clip-path="url(#clip502)" x1="2309.46" y1="159.909" x2="2277.46" y2="159.909" style="stroke:#000000; stroke-width:4; stroke-opacity:1"/>
<circle clip-path="url(#clip502)" cx="316.876" cy="1363.16" r="14.4" fill="#add8e6" fill-rule="evenodd" fill-opacity="1" stroke="#000000" stroke-opacity="1" stroke-width="3.2"/>
<circle clip-path="url(#clip502)" cx="688.28" cy="1171.14" r="14.4" fill="#add8e6" fill-rule="evenodd" fill-opacity="1" stroke="#000000" stroke-opacity="1" stroke-width="3.2"/>
<circle clip-path="url(#clip502)" cx="1059.68" cy="950.51" r="14.4" fill="#add8e6" fill-rule="evenodd" fill-opacity="1" stroke="#000000" stroke-opacity="1" stroke-width="3.2"/>
<circle clip-path="url(#clip502)" cx="1431.09" cy="735.522" r="14.4" fill="#add8e6" fill-rule="evenodd" fill-opacity="1" stroke="#000000" stroke-opacity="1" stroke-width="3.2"/>
<circle clip-path="url(#clip502)" cx="1648.34" cy="594.21" r="14.4" fill="#add8e6" fill-rule="evenodd" fill-opacity="1" stroke="#000000" stroke-opacity="1" stroke-width="3.2"/>
<circle clip-path="url(#clip502)" cx="1802.49" cy="483.558" r="14.4" fill="#add8e6" fill-rule="evenodd" fill-opacity="1" stroke="#000000" stroke-opacity="1" stroke-width="3.2"/>
<circle clip-path="url(#clip502)" cx="1922.06" cy="401.933" r="14.4" fill="#add8e6" fill-rule="evenodd" fill-opacity="1" stroke="#000000" stroke-opacity="1" stroke-width="3.2"/>
<circle clip-path="url(#clip502)" cx="2019.75" cy="319.873" r="14.4" fill="#add8e6" fill-rule="evenodd" fill-opacity="1" stroke="#000000" stroke-opacity="1" stroke-width="3.2"/>
<circle clip-path="url(#clip502)" cx="2102.34" cy="274.119" r="14.4" fill="#add8e6" fill-rule="evenodd" fill-opacity="1" stroke="#000000" stroke-opacity="1" stroke-width="3.2"/>
<circle clip-path="url(#clip502)" cx="2173.89" cy="246.424" r="14.4" fill="#add8e6" fill-rule="evenodd" fill-opacity="1" stroke="#000000" stroke-opacity="1" stroke-width="3.2"/>
<circle clip-path="url(#clip502)" cx="2237" cy="203.905" r="14.4" fill="#add8e6" fill-rule="evenodd" fill-opacity="1" stroke="#000000" stroke-opacity="1" stroke-width="3.2"/>
<circle clip-path="url(#clip502)" cx="2293.46" cy="162.048" r="14.4" fill="#add8e6" fill-rule="evenodd" fill-opacity="1" stroke="#000000" stroke-opacity="1" stroke-width="3.2"/>
<polyline clip-path="url(#clip502)" style="stroke:#000000; stroke-linecap:round; stroke-linejoin:round; stroke-width:4; stroke-opacity:1; fill:none" points="316.876,1374.46 316.876,1352.21 "/>
<polyline clip-path="url(#clip502)" style="stroke:#000000; stroke-linecap:round; stroke-linejoin:round; stroke-width:4; stroke-opacity:1; fill:none" points="688.28,1207.13 688.28,1138.41 "/>
<polyline clip-path="url(#clip502)" style="stroke:#000000; stroke-linecap:round; stroke-linejoin:round; stroke-width:4; stroke-opacity:1; fill:none" points="1059.68,970.939 1059.68,931.172 "/>
<polyline clip-path="url(#clip502)" style="stroke:#000000; stroke-linecap:round; stroke-linejoin:round; stroke-width:4; stroke-opacity:1; fill:none" points="1431.09,749.661 1431.09,721.915 "/>
<polyline clip-path="url(#clip502)" style="stroke:#000000; stroke-linecap:round; stroke-linejoin:round; stroke-width:4; stroke-opacity:1; fill:none" points="1648.34,609.774 1648.34,579.287 "/>
<polyline clip-path="url(#clip502)" style="stroke:#000000; stroke-linecap:round; stroke-linejoin:round; stroke-width:4; stroke-opacity:1; fill:none" points="1802.49,504.278 1802.49,463.96 "/>
<polyline clip-path="url(#clip502)" style="stroke:#000000; stroke-linecap:round; stroke-linejoin:round; stroke-width:4; stroke-opacity:1; fill:none" points="1922.06,409.472 1922.06,394.547 "/>
<polyline clip-path="url(#clip502)" style="stroke:#000000; stroke-linecap:round; stroke-linejoin:round; stroke-width:4; stroke-opacity:1; fill:none" points="2019.75,332.778 2019.75,307.411 "/>
<polyline clip-path="url(#clip502)" style="stroke:#000000; stroke-linecap:round; stroke-linejoin:round; stroke-width:4; stroke-opacity:1; fill:none" points="2102.34,289.73 2102.34,259.153 "/>
<polyline clip-path="url(#clip502)" style="stroke:#000000; stroke-linecap:round; stroke-linejoin:round; stroke-width:4; stroke-opacity:1; fill:none" points="2173.89,249.341 2173.89,243.531 "/>
<polyline clip-path="url(#clip502)" style="stroke:#000000; stroke-linecap:round; stroke-linejoin:round; stroke-width:4; stroke-opacity:1; fill:none" points="2237,205.042 2237,202.772 "/>
<polyline clip-path="url(#clip502)" style="stroke:#000000; stroke-linecap:round; stroke-linejoin:round; stroke-width:4; stroke-opacity:1; fill:none" points="2293.46,164.2 2293.46,159.909 "/>
<line clip-path="url(#clip502)" x1="332.876" y1="1374.46" x2="300.876" y2="1374.46" style="stroke:#000000; stroke-width:4; stroke-opacity:1"/>
<line clip-path="url(#clip502)" x1="332.876" y1="1352.21" x2="300.876" y2="1352.21" style="stroke:#000000; stroke-width:4; stroke-opacity:1"/>
<line clip-path="url(#clip502)" x1="704.28" y1="1207.13" x2="672.28" y2="1207.13" style="stroke:#000000; stroke-width:4; stroke-opacity:1"/>
<line clip-path="url(#clip502)" x1="704.28" y1="1138.41" x2="672.28" y2="1138.41" style="stroke:#000000; stroke-width:4; stroke-opacity:1"/>
<line clip-path="url(#clip502)" x1="1075.68" y1="970.939" x2="1043.68" y2="970.939" style="stroke:#000000; stroke-width:4; stroke-opacity:1"/>
<line clip-path="url(#clip502)" x1="1075.68" y1="931.172" x2="1043.68" y2="931.172" style="stroke:#000000; stroke-width:4; stroke-opacity:1"/>
<line clip-path="url(#clip502)" x1="1447.09" y1="749.661" x2="1415.09" y2="749.661" style="stroke:#000000; stroke-width:4; stroke-opacity:1"/>
<line clip-path="url(#clip502)" x1="1447.09" y1="721.915" x2="1415.09" y2="721.915" style="stroke:#000000; stroke-width:4; stroke-opacity:1"/>
<line clip-path="url(#clip502)" x1="1664.34" y1="609.774" x2="1632.34" y2="609.774" style="stroke:#000000; stroke-width:4; stroke-opacity:1"/>
<line clip-path="url(#clip502)" x1="1664.34" y1="579.287" x2="1632.34" y2="579.287" style="stroke:#000000; stroke-width:4; stroke-opacity:1"/>
<line clip-path="url(#clip502)" x1="1818.49" y1="504.278" x2="1786.49" y2="504.278" style="stroke:#000000; stroke-width:4; stroke-opacity:1"/>
<line clip-path="url(#clip502)" x1="1818.49" y1="463.96" x2="1786.49" y2="463.96" style="stroke:#000000; stroke-width:4; stroke-opacity:1"/>
<line clip-path="url(#clip502)" x1="1938.06" y1="409.472" x2="1906.06" y2="409.472" style="stroke:#000000; stroke-width:4; stroke-opacity:1"/>
<line clip-path="url(#clip502)" x1="1938.06" y1="394.547" x2="1906.06" y2="394.547" style="stroke:#000000; stroke-width:4; stroke-opacity:1"/>
<line clip-path="url(#clip502)" x1="2035.75" y1="332.778" x2="2003.75" y2="332.778" style="stroke:#000000; stroke-width:4; stroke-opacity:1"/>
<line clip-path="url(#clip502)" x1="2035.75" y1="307.411" x2="2003.75" y2="307.411" style="stroke:#000000; stroke-width:4; stroke-opacity:1"/>
<line clip-path="url(#clip502)" x1="2118.34" y1="289.73" x2="2086.34" y2="289.73" style="stroke:#000000; stroke-width:4; stroke-opacity:1"/>
<line clip-path="url(#clip502)" x1="2118.34" y1="259.153" x2="2086.34" y2="259.153" style="stroke:#000000; stroke-width:4; stroke-opacity:1"/>
<line clip-path="url(#clip502)" x1="2189.89" y1="249.341" x2="2157.89" y2="249.341" style="stroke:#000000; stroke-width:4; stroke-opacity:1"/>
<line clip-path="url(#clip502)" x1="2189.89" y1="243.531" x2="2157.89" y2="243.531" style="stroke:#000000; stroke-width:4; stroke-opacity:1"/>
<line clip-path="url(#clip502)" x1="2253" y1="205.042" x2="2221" y2="205.042" style="stroke:#000000; stroke-width:4; stroke-opacity:1"/>
<line clip-path="url(#clip502)" x1="2253" y1="202.772" x2="2221" y2="202.772" style="stroke:#000000; stroke-width:4; stroke-opacity:1"/>
<line clip-path="url(#clip502)" x1="2309.46" y1="164.2" x2="2277.46" y2="164.2" style="stroke:#000000; stroke-width:4; stroke-opacity:1"/>
<line clip-path="url(#clip502)" x1="2309.46" y1="159.909" x2="2277.46" y2="159.909" style="stroke:#000000; stroke-width:4; stroke-opacity:1"/>
<circle clip-path="url(#clip502)" cx="316.876" cy="1363.16" r="14.4" fill="#add8e6" fill-rule="evenodd" fill-opacity="1" stroke="#000000" stroke-opacity="1" stroke-width="3.2"/>
<circle clip-path="url(#clip502)" cx="688.28" cy="1171.14" r="14.4" fill="#add8e6" fill-rule="evenodd" fill-opacity="1" stroke="#000000" stroke-opacity="1" stroke-width="3.2"/>
<circle clip-path="url(#clip502)" cx="1059.68" cy="950.51" r="14.4" fill="#add8e6" fill-rule="evenodd" fill-opacity="1" stroke="#000000" stroke-opacity="1" stroke-width="3.2"/>
<circle clip-path="url(#clip502)" cx="1431.09" cy="735.522" r="14.4" fill="#add8e6" fill-rule="evenodd" fill-opacity="1" stroke="#000000" stroke-opacity="1" stroke-width="3.2"/>
<circle clip-path="url(#clip502)" cx="1648.34" cy="594.21" r="14.4" fill="#add8e6" fill-rule="evenodd" fill-opacity="1" stroke="#000000" stroke-opacity="1" stroke-width="3.2"/>
<circle clip-path="url(#clip502)" cx="1802.49" cy="483.558" r="14.4" fill="#add8e6" fill-rule="evenodd" fill-opacity="1" stroke="#000000" stroke-opacity="1" stroke-width="3.2"/>
<circle clip-path="url(#clip502)" cx="1922.06" cy="401.933" r="14.4" fill="#add8e6" fill-rule="evenodd" fill-opacity="1" stroke="#000000" stroke-opacity="1" stroke-width="3.2"/>
<circle clip-path="url(#clip502)" cx="2019.75" cy="319.873" r="14.4" fill="#add8e6" fill-rule="evenodd" fill-opacity="1" stroke="#000000" stroke-opacity="1" stroke-width="3.2"/>
<circle clip-path="url(#clip502)" cx="2102.34" cy="274.119" r="14.4" fill="#add8e6" fill-rule="evenodd" fill-opacity="1" stroke="#000000" stroke-opacity="1" stroke-width="3.2"/>
<circle clip-path="url(#clip502)" cx="2173.89" cy="246.424" r="14.4" fill="#add8e6" fill-rule="evenodd" fill-opacity="1" stroke="#000000" stroke-opacity="1" stroke-width="3.2"/>
<circle clip-path="url(#clip502)" cx="2237" cy="203.905" r="14.4" fill="#add8e6" fill-rule="evenodd" fill-opacity="1" stroke="#000000" stroke-opacity="1" stroke-width="3.2"/>
<circle clip-path="url(#clip502)" cx="2293.46" cy="162.048" r="14.4" fill="#add8e6" fill-rule="evenodd" fill-opacity="1" stroke="#000000" stroke-opacity="1" stroke-width="3.2"/>
<polyline clip-path="url(#clip502)" style="stroke:#000000; stroke-linecap:round; stroke-linejoin:round; stroke-width:4; stroke-opacity:1; fill:none" points="316.876,1374.46 316.876,1352.21 "/>
<polyline clip-path="url(#clip502)" style="stroke:#000000; stroke-linecap:round; stroke-linejoin:round; stroke-width:4; stroke-opacity:1; fill:none" points="688.28,1207.13 688.28,1138.41 "/>
<polyline clip-path="url(#clip502)" style="stroke:#000000; stroke-linecap:round; stroke-linejoin:round; stroke-width:4; stroke-opacity:1; fill:none" points="1059.68,970.939 1059.68,931.172 "/>
<polyline clip-path="url(#clip502)" style="stroke:#000000; stroke-linecap:round; stroke-linejoin:round; stroke-width:4; stroke-opacity:1; fill:none" points="1431.09,749.661 1431.09,721.915 "/>
<polyline clip-path="url(#clip502)" style="stroke:#000000; stroke-linecap:round; stroke-linejoin:round; stroke-width:4; stroke-opacity:1; fill:none" points="1648.34,609.774 1648.34,579.287 "/>
<polyline clip-path="url(#clip502)" style="stroke:#000000; stroke-linecap:round; stroke-linejoin:round; stroke-width:4; stroke-opacity:1; fill:none" points="1802.49,504.278 1802.49,463.96 "/>
<polyline clip-path="url(#clip502)" style="stroke:#000000; stroke-linecap:round; stroke-linejoin:round; stroke-width:4; stroke-opacity:1; fill:none" points="1922.06,409.472 1922.06,394.547 "/>
<polyline clip-path="url(#clip502)" style="stroke:#000000; stroke-linecap:round; stroke-linejoin:round; stroke-width:4; stroke-opacity:1; fill:none" points="2019.75,332.778 2019.75,307.411 "/>
<polyline clip-path="url(#clip502)" style="stroke:#000000; stroke-linecap:round; stroke-linejoin:round; stroke-width:4; stroke-opacity:1; fill:none" points="2102.34,289.73 2102.34,259.153 "/>
<polyline clip-path="url(#clip502)" style="stroke:#000000; stroke-linecap:round; stroke-linejoin:round; stroke-width:4; stroke-opacity:1; fill:none" points="2173.89,249.341 2173.89,243.531 "/>
<polyline clip-path="url(#clip502)" style="stroke:#000000; stroke-linecap:round; stroke-linejoin:round; stroke-width:4; stroke-opacity:1; fill:none" points="2237,205.042 2237,202.772 "/>
<polyline clip-path="url(#clip502)" style="stroke:#000000; stroke-linecap:round; stroke-linejoin:round; stroke-width:4; stroke-opacity:1; fill:none" points="2293.46,164.2 2293.46,159.909 "/>
<line clip-path="url(#clip502)" x1="332.876" y1="1374.46" x2="300.876" y2="1374.46" style="stroke:#000000; stroke-width:4; stroke-opacity:1"/>
<line clip-path="url(#clip502)" x1="332.876" y1="1352.21" x2="300.876" y2="1352.21" style="stroke:#000000; stroke-width:4; stroke-opacity:1"/>
<line clip-path="url(#clip502)" x1="704.28" y1="1207.13" x2="672.28" y2="1207.13" style="stroke:#000000; stroke-width:4; stroke-opacity:1"/>
<line clip-path="url(#clip502)" x1="704.28" y1="1138.41" x2="672.28" y2="1138.41" style="stroke:#000000; stroke-width:4; stroke-opacity:1"/>
<line clip-path="url(#clip502)" x1="1075.68" y1="970.939" x2="1043.68" y2="970.939" style="stroke:#000000; stroke-width:4; stroke-opacity:1"/>
<line clip-path="url(#clip502)" x1="1075.68" y1="931.172" x2="1043.68" y2="931.172" style="stroke:#000000; stroke-width:4; stroke-opacity:1"/>
<line clip-path="url(#clip502)" x1="1447.09" y1="749.661" x2="1415.09" y2="749.661" style="stroke:#000000; stroke-width:4; stroke-opacity:1"/>
<line clip-path="url(#clip502)" x1="1447.09" y1="721.915" x2="1415.09" y2="721.915" style="stroke:#000000; stroke-width:4; stroke-opacity:1"/>
<line clip-path="url(#clip502)" x1="1664.34" y1="609.774" x2="1632.34" y2="609.774" style="stroke:#000000; stroke-width:4; stroke-opacity:1"/>
<line clip-path="url(#clip502)" x1="1664.34" y1="579.287" x2="1632.34" y2="579.287" style="stroke:#000000; stroke-width:4; stroke-opacity:1"/>
<line clip-path="url(#clip502)" x1="1818.49" y1="504.278" x2="1786.49" y2="504.278" style="stroke:#000000; stroke-width:4; stroke-opacity:1"/>
<line clip-path="url(#clip502)" x1="1818.49" y1="463.96" x2="1786.49" y2="463.96" style="stroke:#000000; stroke-width:4; stroke-opacity:1"/>
<line clip-path="url(#clip502)" x1="1938.06" y1="409.472" x2="1906.06" y2="409.472" style="stroke:#000000; stroke-width:4; stroke-opacity:1"/>
<line clip-path="url(#clip502)" x1="1938.06" y1="394.547" x2="1906.06" y2="394.547" style="stroke:#000000; stroke-width:4; stroke-opacity:1"/>
<line clip-path="url(#clip502)" x1="2035.75" y1="332.778" x2="2003.75" y2="332.778" style="stroke:#000000; stroke-width:4; stroke-opacity:1"/>
<line clip-path="url(#clip502)" x1="2035.75" y1="307.411" x2="2003.75" y2="307.411" style="stroke:#000000; stroke-width:4; stroke-opacity:1"/>
<line clip-path="url(#clip502)" x1="2118.34" y1="289.73" x2="2086.34" y2="289.73" style="stroke:#000000; stroke-width:4; stroke-opacity:1"/>
<line clip-path="url(#clip502)" x1="2118.34" y1="259.153" x2="2086.34" y2="259.153" style="stroke:#000000; stroke-width:4; stroke-opacity:1"/>
<line clip-path="url(#clip502)" x1="2189.89" y1="249.341" x2="2157.89" y2="249.341" style="stroke:#000000; stroke-width:4; stroke-opacity:1"/>
<line clip-path="url(#clip502)" x1="2189.89" y1="243.531" x2="2157.89" y2="243.531" style="stroke:#000000; stroke-width:4; stroke-opacity:1"/>
<line clip-path="url(#clip502)" x1="2253" y1="205.042" x2="2221" y2="205.042" style="stroke:#000000; stroke-width:4; stroke-opacity:1"/>
<line clip-path="url(#clip502)" x1="2253" y1="202.772" x2="2221" y2="202.772" style="stroke:#000000; stroke-width:4; stroke-opacity:1"/>
<line clip-path="url(#clip502)" x1="2309.46" y1="164.2" x2="2277.46" y2="164.2" style="stroke:#000000; stroke-width:4; stroke-opacity:1"/>
<line clip-path="url(#clip502)" x1="2309.46" y1="159.909" x2="2277.46" y2="159.909" style="stroke:#000000; stroke-width:4; stroke-opacity:1"/>
<circle clip-path="url(#clip502)" cx="316.876" cy="1363.16" r="14.4" fill="#add8e6" fill-rule="evenodd" fill-opacity="1" stroke="#000000" stroke-opacity="1" stroke-width="3.2"/>
<circle clip-path="url(#clip502)" cx="688.28" cy="1171.14" r="14.4" fill="#add8e6" fill-rule="evenodd" fill-opacity="1" stroke="#000000" stroke-opacity="1" stroke-width="3.2"/>
<circle clip-path="url(#clip502)" cx="1059.68" cy="950.51" r="14.4" fill="#add8e6" fill-rule="evenodd" fill-opacity="1" stroke="#000000" stroke-opacity="1" stroke-width="3.2"/>
<circle clip-path="url(#clip502)" cx="1431.09" cy="735.522" r="14.4" fill="#add8e6" fill-rule="evenodd" fill-opacity="1" stroke="#000000" stroke-opacity="1" stroke-width="3.2"/>
<circle clip-path="url(#clip502)" cx="1648.34" cy="594.21" r="14.4" fill="#add8e6" fill-rule="evenodd" fill-opacity="1" stroke="#000000" stroke-opacity="1" stroke-width="3.2"/>
<circle clip-path="url(#clip502)" cx="1802.49" cy="483.558" r="14.4" fill="#add8e6" fill-rule="evenodd" fill-opacity="1" stroke="#000000" stroke-opacity="1" stroke-width="3.2"/>
<circle clip-path="url(#clip502)" cx="1922.06" cy="401.933" r="14.4" fill="#add8e6" fill-rule="evenodd" fill-opacity="1" stroke="#000000" stroke-opacity="1" stroke-width="3.2"/>
<circle clip-path="url(#clip502)" cx="2019.75" cy="319.873" r="14.4" fill="#add8e6" fill-rule="evenodd" fill-opacity="1" stroke="#000000" stroke-opacity="1" stroke-width="3.2"/>
<circle clip-path="url(#clip502)" cx="2102.34" cy="274.119" r="14.4" fill="#add8e6" fill-rule="evenodd" fill-opacity="1" stroke="#000000" stroke-opacity="1" stroke-width="3.2"/>
<circle clip-path="url(#clip502)" cx="2173.89" cy="246.424" r="14.4" fill="#add8e6" fill-rule="evenodd" fill-opacity="1" stroke="#000000" stroke-opacity="1" stroke-width="3.2"/>
<circle clip-path="url(#clip502)" cx="2237" cy="203.905" r="14.4" fill="#add8e6" fill-rule="evenodd" fill-opacity="1" stroke="#000000" stroke-opacity="1" stroke-width="3.2"/>
<circle clip-path="url(#clip502)" cx="2293.46" cy="162.048" r="14.4" fill="#add8e6" fill-rule="evenodd" fill-opacity="1" stroke="#000000" stroke-opacity="1" stroke-width="3.2"/>
</svg>
