<?xml version="1.0" encoding="utf-8"?>
<svg xmlns="http://www.w3.org/2000/svg" xmlns:xlink="http://www.w3.org/1999/xlink" width="600" height="400" viewBox="0 0 2400 1600">
<defs>
  <clipPath id="clip460">
    <rect x="0" y="0" width="2400" height="1600"/>
  </clipPath>
</defs>
<path clip-path="url(#clip460)" d="M0 1600 L2400 1600 L2400 8.88178e-14 L0 8.88178e-14  Z" fill="#ffffff" fill-rule="evenodd" fill-opacity="1"/>
<defs>
  <clipPath id="clip461">
    <rect x="480" y="0" width="1681" height="1600"/>
  </clipPath>
</defs>
<path clip-path="url(#clip460)" d="M257.579 1410.9 L2352.76 1410.9 L2352.76 123.472 L257.579 123.472  Z" fill="#ffffff" fill-rule="evenodd" fill-opacity="1"/>
<defs>
  <clipPath id="clip462">
    <rect x="257" y="123" width="2096" height="1288"/>
  </clipPath>
</defs>
<polyline clip-path="url(#clip462)" style="stroke:#000000; stroke-linecap:round; stroke-linejoin:round; stroke-width:2; stroke-opacity:0.05; fill:none" points="414.568,1410.9 414.568,123.472 "/>
<polyline clip-path="url(#clip462)" style="stroke:#000000; stroke-linecap:round; stroke-linejoin:round; stroke-width:2; stroke-opacity:0.05; fill:none" points="568.714,1410.9 568.714,123.472 "/>
<polyline clip-path="url(#clip462)" style="stroke:#000000; stroke-linecap:round; stroke-linejoin:round; stroke-width:2; stroke-opacity:0.05; fill:none" points="688.28,1410.9 688.28,123.472 "/>
<polyline clip-path="url(#clip462)" style="stroke:#000000; stroke-linecap:round; stroke-linejoin:round; stroke-width:2; stroke-opacity:0.05; fill:none" points="785.971,1410.9 785.971,123.472 "/>
<polyline clip-path="url(#clip462)" style="stroke:#000000; stroke-linecap:round; stroke-linejoin:round; stroke-width:2; stroke-opacity:0.05; fill:none" points="868.569,1410.9 868.569,123.472 "/>
<polyline clip-path="url(#clip462)" style="stroke:#000000; stroke-linecap:round; stroke-linejoin:round; stroke-width:2; stroke-opacity:0.05; fill:none" points="940.118,1410.9 940.118,123.472 "/>
<polyline clip-path="url(#clip462)" style="stroke:#000000; stroke-linecap:round; stroke-linejoin:round; stroke-width:2; stroke-opacity:0.05; fill:none" points="1003.23,1410.9 1003.23,123.472 "/>
<polyline clip-path="url(#clip462)" style="stroke:#000000; stroke-linecap:round; stroke-linejoin:round; stroke-width:2; stroke-opacity:0.05; fill:none" points="1431.09,1410.9 1431.09,123.472 "/>
<polyline clip-path="url(#clip462)" style="stroke:#000000; stroke-linecap:round; stroke-linejoin:round; stroke-width:2; stroke-opacity:0.05; fill:none" points="1648.34,1410.9 1648.34,123.472 "/>
<polyline clip-path="url(#clip462)" style="stroke:#000000; stroke-linecap:round; stroke-linejoin:round; stroke-width:2; stroke-opacity:0.05; fill:none" points="1802.49,1410.9 1802.49,123.472 "/>
<polyline clip-path="url(#clip462)" style="stroke:#000000; stroke-linecap:round; stroke-linejoin:round; stroke-width:2; stroke-opacity:0.05; fill:none" points="1922.06,1410.9 1922.06,123.472 "/>
<polyline clip-path="url(#clip462)" style="stroke:#000000; stroke-linecap:round; stroke-linejoin:round; stroke-width:2; stroke-opacity:0.05; fill:none" points="2019.75,1410.9 2019.75,123.472 "/>
<polyline clip-path="url(#clip462)" style="stroke:#000000; stroke-linecap:round; stroke-linejoin:round; stroke-width:2; stroke-opacity:0.05; fill:none" points="2102.34,1410.9 2102.34,123.472 "/>
<polyline clip-path="url(#clip462)" style="stroke:#000000; stroke-linecap:round; stroke-linejoin:round; stroke-width:2; stroke-opacity:0.05; fill:none" points="2173.89,1410.9 2173.89,123.472 "/>
<polyline clip-path="url(#clip462)" style="stroke:#000000; stroke-linecap:round; stroke-linejoin:round; stroke-width:2; stroke-opacity:0.05; fill:none" points="2237,1410.9 2237,123.472 "/>
<polyline clip-path="url(#clip462)" style="stroke:#000000; stroke-linecap:round; stroke-linejoin:round; stroke-width:2; stroke-opacity:0.1; fill:none" points="1059.68,1410.9 1059.68,123.472 "/>
<polyline clip-path="url(#clip462)" style="stroke:#000000; stroke-linecap:round; stroke-linejoin:round; stroke-width:2; stroke-opacity:0.1; fill:none" points="2293.46,1410.9 2293.46,123.472 "/>
<polyline clip-path="url(#clip462)" style="stroke:#000000; stroke-linecap:round; stroke-linejoin:round; stroke-width:2; stroke-opacity:0.1; fill:none" points="257.579,1204.98 2352.76,1204.98 "/>
<polyline clip-path="url(#clip462)" style="stroke:#000000; stroke-linecap:round; stroke-linejoin:round; stroke-width:2; stroke-opacity:0.1; fill:none" points="257.579,787.966 2352.76,787.966 "/>
<polyline clip-path="url(#clip462)" style="stroke:#000000; stroke-linecap:round; stroke-linejoin:round; stroke-width:2; stroke-opacity:0.1; fill:none" points="257.579,370.948 2352.76,370.948 "/>
<polyline clip-path="url(#clip460)" style="stroke:#000000; stroke-linecap:round; stroke-linejoin:round; stroke-width:4; stroke-opacity:1; fill:none" points="257.579,1410.9 2352.76,1410.9 "/>
<polyline clip-path="url(#clip460)" style="stroke:#000000; stroke-linecap:round; stroke-linejoin:round; stroke-width:4; stroke-opacity:1; fill:none" points="1059.68,1410.9 1059.68,1392 "/>
<polyline clip-path="url(#clip460)" style="stroke:#000000; stroke-linecap:round; stroke-linejoin:round; stroke-width:4; stroke-opacity:1; fill:none" points="2293.46,1410.9 2293.46,1392 "/>
<polyline clip-path="url(#clip460)" style="stroke:#000000; stroke-linecap:round; stroke-linejoin:round; stroke-width:4; stroke-opacity:1; fill:none" points="414.568,1410.9 414.568,1401.45 "/>
<polyline clip-path="url(#clip460)" style="stroke:#000000; stroke-linecap:round; stroke-linejoin:round; stroke-width:4; stroke-opacity:1; fill:none" points="568.714,1410.9 568.714,1401.45 "/>
<polyline clip-path="url(#clip460)" style="stroke:#000000; stroke-linecap:round; stroke-linejoin:round; stroke-width:4; stroke-opacity:1; fill:none" points="688.28,1410.9 688.28,1401.45 "/>
<polyline clip-path="url(#clip460)" style="stroke:#000000; stroke-linecap:round; stroke-linejoin:round; stroke-width:4; stroke-opacity:1; fill:none" points="785.971,1410.9 785.971,1401.45 "/>
<polyline clip-path="url(#clip460)" style="stroke:#000000; stroke-linecap:round; stroke-linejoin:round; stroke-width:4; stroke-opacity:1; fill:none" points="868.569,1410.9 868.569,1401.45 "/>
<polyline clip-path="url(#clip460)" style="stroke:#000000; stroke-linecap:round; stroke-linejoin:round; stroke-width:4; stroke-opacity:1; fill:none" points="940.118,1410.9 940.118,1401.45 "/>
<polyline clip-path="url(#clip460)" style="stroke:#000000; stroke-linecap:round; stroke-linejoin:round; stroke-width:4; stroke-opacity:1; fill:none" points="1003.23,1410.9 1003.23,1401.45 "/>
<polyline clip-path="url(#clip460)" style="stroke:#000000; stroke-linecap:round; stroke-linejoin:round; stroke-width:4; stroke-opacity:1; fill:none" points="1431.09,1410.9 1431.09,1401.45 "/>
<polyline clip-path="url(#clip460)" style="stroke:#000000; stroke-linecap:round; stroke-linejoin:round; stroke-width:4; stroke-opacity:1; fill:none" points="1648.34,1410.9 1648.34,1401.45 "/>
<polyline clip-path="url(#clip460)" style="stroke:#000000; stroke-linecap:round; stroke-linejoin:round; stroke-width:4; stroke-opacity:1; fill:none" points="1802.49,1410.9 1802.49,1401.45 "/>
<polyline clip-path="url(#clip460)" style="stroke:#000000; stroke-linecap:round; stroke-linejoin:round; stroke-width:4; stroke-opacity:1; fill:none" points="1922.06,1410.9 1922.06,1401.45 "/>
<polyline clip-path="url(#clip460)" style="stroke:#000000; stroke-linecap:round; stroke-linejoin:round; stroke-width:4; stroke-opacity:1; fill:none" points="2019.75,1410.9 2019.75,1401.45 "/>
<polyline clip-path="url(#clip460)" style="stroke:#000000; stroke-linecap:round; stroke-linejoin:round; stroke-width:4; stroke-opacity:1; fill:none" points="2102.34,1410.9 2102.34,1401.45 "/>
<polyline clip-path="url(#clip460)" style="stroke:#000000; stroke-linecap:round; stroke-linejoin:round; stroke-width:4; stroke-opacity:1; fill:none" points="2173.89,1410.9 2173.89,1401.45 "/>
<polyline clip-path="url(#clip460)" style="stroke:#000000; stroke-linecap:round; stroke-linejoin:round; stroke-width:4; stroke-opacity:1; fill:none" points="2237,1410.9 2237,1401.45 "/>
<path clip-path="url(#clip460)" d="M1025.46 1485.02 L1033.09 1485.02 L1033.09 1458.66 L1024.78 1460.32 L1024.78 1456.06 L1033.05 1454.4 L1037.72 1454.4 L1037.72 1485.02 L1045.36 1485.02 L1045.36 1488.96 L1025.46 1488.96 L1025.46 1485.02 Z" fill="#000000" fill-rule="nonzero" fill-opacity="1" /><path clip-path="url(#clip460)" d="M1064.81 1457.48 Q1061.2 1457.48 1059.37 1461.04 Q1057.56 1464.58 1057.56 1471.71 Q1057.56 1478.82 1059.37 1482.38 Q1061.2 1485.92 1064.81 1485.92 Q1068.44 1485.92 1070.25 1482.38 Q1072.08 1478.82 1072.08 1471.71 Q1072.08 1464.58 1070.25 1461.04 Q1068.44 1457.48 1064.81 1457.48 M1064.81 1453.77 Q1070.62 1453.77 1073.67 1458.38 Q1076.75 1462.96 1076.75 1471.71 Q1076.75 1480.44 1073.67 1485.04 Q1070.62 1489.63 1064.81 1489.63 Q1059 1489.63 1055.92 1485.04 Q1052.86 1480.44 1052.86 1471.71 Q1052.86 1462.96 1055.92 1458.38 Q1059 1453.77 1064.81 1453.77 Z" fill="#000000" fill-rule="nonzero" fill-opacity="1" /><path clip-path="url(#clip460)" d="M1081.32 1458.35 L1094.58 1458.35 L1094.58 1461.55 L1076.75 1461.55 L1076.75 1458.35 Q1078.91 1456.11 1082.64 1452.35 Q1086.38 1448.57 1087.34 1447.48 Q1089.16 1445.43 1089.88 1444.02 Q1090.61 1442.59 1090.61 1441.22 Q1090.61 1438.98 1089.03 1437.57 Q1087.47 1436.16 1084.95 1436.16 Q1083.17 1436.16 1081.17 1436.78 Q1079.2 1437.4 1076.94 1438.66 L1076.94 1434.82 Q1079.23 1433.9 1081.23 1433.43 Q1083.22 1432.96 1084.88 1432.96 Q1089.24 1432.96 1091.84 1435.14 Q1094.43 1437.32 1094.43 1440.97 Q1094.43 1442.7 1093.77 1444.26 Q1093.13 1445.8 1091.42 1447.91 Q1090.95 1448.46 1088.43 1451.07 Q1085.91 1453.67 1081.32 1458.35 Z" fill="#000000" fill-rule="nonzero" fill-opacity="1" /><path clip-path="url(#clip460)" d="M2258.9 1485.02 L2266.54 1485.02 L2266.54 1458.66 L2258.23 1460.32 L2258.23 1456.06 L2266.49 1454.4 L2271.17 1454.4 L2271.17 1485.02 L2278.81 1485.02 L2278.81 1488.96 L2258.9 1488.96 L2258.9 1485.02 Z" fill="#000000" fill-rule="nonzero" fill-opacity="1" /><path clip-path="url(#clip460)" d="M2298.25 1457.48 Q2294.64 1457.48 2292.81 1461.04 Q2291.01 1464.58 2291.01 1471.71 Q2291.01 1478.82 2292.81 1482.38 Q2294.64 1485.92 2298.25 1485.92 Q2301.89 1485.92 2303.69 1482.38 Q2305.52 1478.82 2305.52 1471.71 Q2305.52 1464.58 2303.69 1461.04 Q2301.89 1457.48 2298.25 1457.48 M2298.25 1453.77 Q2304.06 1453.77 2307.12 1458.38 Q2310.2 1462.96 2310.2 1471.71 Q2310.2 1480.44 2307.12 1485.04 Q2304.06 1489.63 2298.25 1489.63 Q2292.44 1489.63 2289.36 1485.04 Q2286.31 1480.44 2286.31 1471.71 Q2286.31 1462.96 2289.36 1458.38 Q2292.44 1453.77 2298.25 1453.77 Z" fill="#000000" fill-rule="nonzero" fill-opacity="1" /><path clip-path="url(#clip460)" d="M2322.89 1446.41 Q2325.62 1446.99 2327.14 1448.83 Q2328.69 1450.68 2328.69 1453.38 Q2328.69 1457.54 2325.83 1459.82 Q2322.97 1462.09 2317.7 1462.09 Q2315.93 1462.09 2314.05 1461.73 Q2312.19 1461.4 2310.2 1460.7 L2310.2 1457.03 Q2311.78 1457.95 2313.66 1458.42 Q2315.54 1458.89 2317.59 1458.89 Q2321.16 1458.89 2323.02 1457.48 Q2324.91 1456.07 2324.91 1453.38 Q2324.91 1450.9 2323.16 1449.51 Q2321.43 1448.1 2318.32 1448.1 L2315.05 1448.1 L2315.05 1444.98 L2318.47 1444.98 Q2321.28 1444.98 2322.76 1443.87 Q2324.25 1442.74 2324.25 1440.63 Q2324.25 1438.47 2322.71 1437.32 Q2321.18 1436.16 2318.32 1436.16 Q2316.76 1436.16 2314.98 1436.49 Q2313.19 1436.83 2311.04 1437.55 L2311.04 1434.16 Q2313.21 1433.56 2315.09 1433.26 Q2316.99 1432.96 2318.66 1432.96 Q2322.99 1432.96 2325.51 1434.93 Q2328.03 1436.89 2328.03 1440.24 Q2328.03 1442.57 2326.69 1444.19 Q2325.36 1445.79 2322.89 1446.41 Z" fill="#000000" fill-rule="nonzero" fill-opacity="1" /><path clip-path="url(#clip460)" d="M1057.97 1528.42 L1057.97 1538.54 L1070.03 1538.54 L1070.03 1543.09 L1057.97 1543.09 L1057.97 1562.44 Q1057.97 1566.8 1059.15 1568.04 Q1060.36 1569.28 1064.02 1569.28 L1070.03 1569.28 L1070.03 1574.19 L1064.02 1574.19 Q1057.24 1574.19 1054.66 1571.67 Q1052.08 1569.12 1052.08 1562.44 L1052.08 1543.09 L1047.79 1543.09 L1047.79 1538.54 L1052.08 1538.54 L1052.08 1528.42 L1057.97 1528.42 Z" fill="#000000" fill-rule="nonzero" fill-opacity="1" /><path clip-path="url(#clip460)" d="M1098.39 1544.01 Q1097.41 1543.44 1096.23 1543.18 Q1095.08 1542.9 1093.68 1542.9 Q1088.72 1542.9 1086.04 1546.14 Q1083.4 1549.36 1083.4 1555.41 L1083.4 1574.19 L1077.51 1574.19 L1077.51 1538.54 L1083.4 1538.54 L1083.4 1544.08 Q1085.25 1540.83 1088.21 1539.27 Q1091.17 1537.68 1095.4 1537.68 Q1096.01 1537.68 1096.74 1537.77 Q1097.47 1537.84 1098.36 1538 L1098.39 1544.01 Z" fill="#000000" fill-rule="nonzero" fill-opacity="1" /><path clip-path="url(#clip460)" d="M1120.74 1556.27 Q1113.64 1556.27 1110.9 1557.89 Q1108.16 1559.51 1108.16 1563.43 Q1108.16 1566.55 1110.2 1568.39 Q1112.27 1570.21 1115.8 1570.21 Q1120.67 1570.21 1123.6 1566.77 Q1126.56 1563.3 1126.56 1557.57 L1126.56 1556.27 L1120.74 1556.27 M1132.42 1553.85 L1132.42 1574.19 L1126.56 1574.19 L1126.56 1568.77 Q1124.56 1572.02 1121.56 1573.58 Q1118.57 1575.11 1114.24 1575.11 Q1108.77 1575.11 1105.52 1572.05 Q1102.31 1568.97 1102.31 1563.81 Q1102.31 1557.79 1106.32 1554.74 Q1110.36 1551.68 1118.35 1551.68 L1126.56 1551.68 L1126.56 1551.11 Q1126.56 1547.07 1123.89 1544.87 Q1121.25 1542.64 1116.44 1542.64 Q1113.38 1542.64 1110.49 1543.38 Q1107.59 1544.11 1104.92 1545.57 L1104.92 1540.16 Q1108.13 1538.92 1111.16 1538.31 Q1114.18 1537.68 1117.04 1537.68 Q1124.78 1537.68 1128.6 1541.69 Q1132.42 1545.7 1132.42 1553.85 Z" fill="#000000" fill-rule="nonzero" fill-opacity="1" /><path clip-path="url(#clip460)" d="M1144.48 1538.54 L1150.34 1538.54 L1150.34 1574.19 L1144.48 1574.19 L1144.48 1538.54 M1144.48 1524.66 L1150.34 1524.66 L1150.34 1532.08 L1144.48 1532.08 L1144.48 1524.66 Z" fill="#000000" fill-rule="nonzero" fill-opacity="1" /><path clip-path="url(#clip460)" d="M1192.22 1552.67 L1192.22 1574.19 L1186.37 1574.19 L1186.37 1552.86 Q1186.37 1547.8 1184.39 1545.29 Q1182.42 1542.77 1178.47 1542.77 Q1173.73 1542.77 1170.99 1545.79 Q1168.26 1548.82 1168.26 1554.04 L1168.26 1574.19 L1162.37 1574.19 L1162.37 1538.54 L1168.26 1538.54 L1168.26 1544.08 Q1170.36 1540.86 1173.19 1539.27 Q1176.05 1537.68 1179.78 1537.68 Q1185.92 1537.68 1189.07 1541.5 Q1192.22 1545.29 1192.22 1552.67 Z" fill="#000000" fill-rule="nonzero" fill-opacity="1" /><path clip-path="url(#clip460)" d="M1203.9 1538.54 L1209.76 1538.54 L1209.76 1574.19 L1203.9 1574.19 L1203.9 1538.54 M1203.9 1524.66 L1209.76 1524.66 L1209.76 1532.08 L1203.9 1532.08 L1203.9 1524.66 Z" fill="#000000" fill-rule="nonzero" fill-opacity="1" /><path clip-path="url(#clip460)" d="M1251.65 1552.67 L1251.65 1574.19 L1245.79 1574.19 L1245.79 1552.86 Q1245.79 1547.8 1243.82 1545.29 Q1241.84 1542.77 1237.9 1542.77 Q1233.16 1542.77 1230.42 1545.79 Q1227.68 1548.82 1227.68 1554.04 L1227.68 1574.19 L1221.79 1574.19 L1221.79 1538.54 L1227.68 1538.54 L1227.68 1544.08 Q1229.78 1540.86 1232.61 1539.27 Q1235.48 1537.68 1239.2 1537.68 Q1245.35 1537.68 1248.5 1541.5 Q1251.65 1545.29 1251.65 1552.67 Z" fill="#000000" fill-rule="nonzero" fill-opacity="1" /><path clip-path="url(#clip460)" d="M1286.79 1555.95 Q1286.79 1549.58 1284.14 1546.08 Q1281.53 1542.58 1276.79 1542.58 Q1272.08 1542.58 1269.44 1546.08 Q1266.83 1549.58 1266.83 1555.95 Q1266.83 1562.28 1269.44 1565.78 Q1272.08 1569.28 1276.79 1569.28 Q1281.53 1569.28 1284.14 1565.78 Q1286.79 1562.28 1286.79 1555.95 M1292.64 1569.76 Q1292.64 1578.86 1288.6 1583.29 Q1284.56 1587.74 1276.22 1587.74 Q1273.13 1587.74 1270.39 1587.27 Q1267.66 1586.82 1265.08 1585.87 L1265.08 1580.17 Q1267.66 1581.57 1270.17 1582.24 Q1272.69 1582.91 1275.3 1582.91 Q1281.06 1582.91 1283.92 1579.88 Q1286.79 1576.89 1286.79 1570.81 L1286.79 1567.92 Q1284.97 1571.07 1282.14 1572.63 Q1279.31 1574.19 1275.36 1574.19 Q1268.8 1574.19 1264.79 1569.19 Q1260.78 1564.19 1260.78 1555.95 Q1260.78 1547.67 1264.79 1542.68 Q1268.8 1537.68 1275.36 1537.68 Q1279.31 1537.68 1282.14 1539.24 Q1284.97 1540.8 1286.79 1543.95 L1286.79 1538.54 L1292.64 1538.54 L1292.64 1569.76 Z" fill="#000000" fill-rule="nonzero" fill-opacity="1" /><path clip-path="url(#clip460)" d="M1348.15 1539.59 L1348.15 1545.13 Q1345.67 1543.85 1343 1543.22 Q1340.32 1542.58 1337.46 1542.58 Q1333.1 1542.58 1330.9 1543.92 Q1328.74 1545.25 1328.74 1547.93 Q1328.74 1549.96 1330.3 1551.14 Q1331.86 1552.29 1336.57 1553.34 L1338.57 1553.78 Q1344.81 1555.12 1347.42 1557.57 Q1350.06 1559.99 1350.06 1564.35 Q1350.06 1569.32 1346.11 1572.21 Q1342.2 1575.11 1335.32 1575.11 Q1332.46 1575.11 1329.34 1574.54 Q1326.25 1573.99 1322.82 1572.88 L1322.82 1566.83 Q1326.06 1568.52 1329.21 1569.38 Q1332.36 1570.21 1335.45 1570.21 Q1339.59 1570.21 1341.82 1568.81 Q1344.05 1567.37 1344.05 1564.8 Q1344.05 1562.41 1342.42 1561.14 Q1340.83 1559.86 1335.39 1558.68 L1333.35 1558.21 Q1327.91 1557.06 1325.49 1554.71 Q1323.07 1552.32 1323.07 1548.18 Q1323.07 1543.15 1326.64 1540.42 Q1330.2 1537.68 1336.76 1537.68 Q1340 1537.68 1342.87 1538.16 Q1345.73 1538.63 1348.15 1539.59 Z" fill="#000000" fill-rule="nonzero" fill-opacity="1" /><path clip-path="url(#clip460)" d="M1389.88 1554.9 L1389.88 1557.76 L1362.95 1557.76 Q1363.33 1563.81 1366.58 1566.99 Q1369.86 1570.14 1375.68 1570.14 Q1379.06 1570.14 1382.21 1569.32 Q1385.39 1568.49 1388.51 1566.83 L1388.51 1572.37 Q1385.36 1573.71 1382.05 1574.41 Q1378.74 1575.11 1375.33 1575.11 Q1366.8 1575.11 1361.81 1570.14 Q1356.84 1565.18 1356.84 1556.71 Q1356.84 1547.96 1361.55 1542.83 Q1366.29 1537.68 1374.31 1537.68 Q1381.51 1537.68 1385.68 1542.33 Q1389.88 1546.94 1389.88 1554.9 M1384.02 1553.18 Q1383.96 1548.37 1381.32 1545.51 Q1378.71 1542.64 1374.38 1542.64 Q1369.48 1542.64 1366.52 1545.41 Q1363.59 1548.18 1363.14 1553.21 L1384.02 1553.18 Z" fill="#000000" fill-rule="nonzero" fill-opacity="1" /><path clip-path="url(#clip460)" d="M1405.28 1528.42 L1405.28 1538.54 L1417.35 1538.54 L1417.35 1543.09 L1405.28 1543.09 L1405.28 1562.44 Q1405.28 1566.8 1406.46 1568.04 Q1407.67 1569.28 1411.33 1569.28 L1417.35 1569.28 L1417.35 1574.19 L1411.33 1574.19 Q1404.55 1574.19 1401.97 1571.67 Q1399.4 1569.12 1399.4 1562.44 L1399.4 1543.09 L1395.1 1543.09 L1395.1 1538.54 L1399.4 1538.54 L1399.4 1528.42 L1405.28 1528.42 Z" fill="#000000" fill-rule="nonzero" fill-opacity="1" /><path clip-path="url(#clip460)" d="M1468.5 1539.59 L1468.5 1545.13 Q1466.01 1543.85 1463.34 1543.22 Q1460.67 1542.58 1457.8 1542.58 Q1453.44 1542.58 1451.24 1543.92 Q1449.08 1545.25 1449.08 1547.93 Q1449.08 1549.96 1450.64 1551.14 Q1452.2 1552.29 1456.91 1553.34 L1458.92 1553.78 Q1465.15 1555.12 1467.76 1557.57 Q1470.41 1559.99 1470.41 1564.35 Q1470.41 1569.32 1466.46 1572.21 Q1462.54 1575.11 1455.67 1575.11 Q1452.8 1575.11 1449.68 1574.54 Q1446.6 1573.99 1443.16 1572.88 L1443.16 1566.83 Q1446.41 1568.52 1449.56 1569.38 Q1452.71 1570.21 1455.8 1570.21 Q1459.93 1570.21 1462.16 1568.81 Q1464.39 1567.37 1464.39 1564.8 Q1464.39 1562.41 1462.77 1561.14 Q1461.17 1559.86 1455.73 1558.68 L1453.7 1558.21 Q1448.25 1557.06 1445.83 1554.71 Q1443.41 1552.32 1443.41 1548.18 Q1443.41 1543.15 1446.98 1540.42 Q1450.54 1537.68 1457.1 1537.68 Q1460.35 1537.68 1463.21 1538.16 Q1466.08 1538.63 1468.5 1539.59 Z" fill="#000000" fill-rule="nonzero" fill-opacity="1" /><path clip-path="url(#clip460)" d="M1479.73 1538.54 L1485.59 1538.54 L1485.59 1574.19 L1479.73 1574.19 L1479.73 1538.54 M1479.73 1524.66 L1485.59 1524.66 L1485.59 1532.08 L1479.73 1532.08 L1479.73 1524.66 Z" fill="#000000" fill-rule="nonzero" fill-opacity="1" /><path clip-path="url(#clip460)" d="M1495.3 1538.54 L1523.11 1538.54 L1523.11 1543.88 L1501.09 1569.51 L1523.11 1569.51 L1523.11 1574.19 L1494.5 1574.19 L1494.5 1568.84 L1516.52 1543.22 L1495.3 1543.22 L1495.3 1538.54 Z" fill="#000000" fill-rule="nonzero" fill-opacity="1" /><path clip-path="url(#clip460)" d="M1562.55 1554.9 L1562.55 1557.76 L1535.62 1557.76 Q1536 1563.81 1539.25 1566.99 Q1542.53 1570.14 1548.35 1570.14 Q1551.73 1570.14 1554.88 1569.32 Q1558.06 1568.49 1561.18 1566.83 L1561.18 1572.37 Q1558.03 1573.71 1554.72 1574.41 Q1551.41 1575.11 1548 1575.11 Q1539.47 1575.11 1534.48 1570.14 Q1529.51 1565.18 1529.51 1556.71 Q1529.51 1547.96 1534.22 1542.83 Q1538.96 1537.68 1546.98 1537.68 Q1554.18 1537.68 1558.35 1542.33 Q1562.55 1546.94 1562.55 1554.9 M1556.69 1553.18 Q1556.63 1548.37 1553.99 1545.51 Q1551.38 1542.64 1547.05 1542.64 Q1542.15 1542.64 1539.19 1545.41 Q1536.26 1548.18 1535.81 1553.21 L1556.69 1553.18 Z" fill="#000000" fill-rule="nonzero" fill-opacity="1" /><polyline clip-path="url(#clip460)" style="stroke:#000000; stroke-linecap:round; stroke-linejoin:round; stroke-width:4; stroke-opacity:1; fill:none" points="257.579,1410.9 257.579,123.472 "/>
<polyline clip-path="url(#clip460)" style="stroke:#000000; stroke-linecap:round; stroke-linejoin:round; stroke-width:4; stroke-opacity:1; fill:none" points="257.579,1204.98 276.476,1204.98 "/>
<polyline clip-path="url(#clip460)" style="stroke:#000000; stroke-linecap:round; stroke-linejoin:round; stroke-width:4; stroke-opacity:1; fill:none" points="257.579,787.966 276.476,787.966 "/>
<polyline clip-path="url(#clip460)" style="stroke:#000000; stroke-linecap:round; stroke-linejoin:round; stroke-width:4; stroke-opacity:1; fill:none" points="257.579,370.948 276.476,370.948 "/>
<path clip-path="url(#clip460)" d="M114.931 1224.78 L122.57 1224.78 L122.57 1198.41 L114.26 1200.08 L114.26 1195.82 L122.524 1194.15 L127.2 1194.15 L127.2 1224.78 L134.839 1224.78 L134.839 1228.71 L114.931 1228.71 L114.931 1224.78 Z" fill="#000000" fill-rule="nonzero" fill-opacity="1" /><path clip-path="url(#clip460)" d="M154.283 1197.23 Q150.672 1197.23 148.843 1200.8 Q147.038 1204.34 147.038 1211.47 Q147.038 1218.57 148.843 1222.14 Q150.672 1225.68 154.283 1225.68 Q157.917 1225.68 159.723 1222.14 Q161.552 1218.57 161.552 1211.47 Q161.552 1204.34 159.723 1200.8 Q157.917 1197.23 154.283 1197.23 M154.283 1193.53 Q160.093 1193.53 163.149 1198.13 Q166.227 1202.72 166.227 1211.47 Q166.227 1220.19 163.149 1224.8 Q160.093 1229.38 154.283 1229.38 Q148.473 1229.38 145.394 1224.8 Q142.339 1220.19 142.339 1211.47 Q142.339 1202.72 145.394 1198.13 Q148.473 1193.53 154.283 1193.53 Z" fill="#000000" fill-rule="nonzero" fill-opacity="1" /><path clip-path="url(#clip460)" d="M175.932 1175.72 Q172.998 1175.72 171.512 1178.62 Q170.045 1181.5 170.045 1187.29 Q170.045 1193.06 171.512 1195.96 Q172.998 1198.84 175.932 1198.84 Q178.885 1198.84 180.352 1195.96 Q181.838 1193.06 181.838 1187.29 Q181.838 1181.5 180.352 1178.62 Q178.885 1175.72 175.932 1175.72 M175.932 1172.71 Q180.653 1172.71 183.136 1176.46 Q185.637 1180.18 185.637 1187.29 Q185.637 1194.38 183.136 1198.12 Q180.653 1201.85 175.932 1201.85 Q171.212 1201.85 168.71 1198.12 Q166.227 1194.38 166.227 1187.29 Q166.227 1180.18 168.71 1176.46 Q171.212 1172.71 175.932 1172.71 Z" fill="#000000" fill-rule="nonzero" fill-opacity="1" /><path clip-path="url(#clip460)" d="M192.314 1196.52 L196.282 1196.52 L196.282 1201.3 L192.314 1201.3 L192.314 1196.52 Z" fill="#000000" fill-rule="nonzero" fill-opacity="1" /><path clip-path="url(#clip460)" d="M204.595 1173.22 L219.51 1173.22 L219.51 1176.42 L208.075 1176.42 L208.075 1183.3 Q208.902 1183.02 209.73 1182.89 Q210.557 1182.74 211.385 1182.74 Q216.087 1182.74 218.833 1185.32 Q221.579 1187.89 221.579 1192.29 Q221.579 1196.83 218.758 1199.35 Q215.936 1201.85 210.802 1201.85 Q209.034 1201.85 207.191 1201.55 Q205.366 1201.25 203.41 1200.64 L203.41 1196.83 Q205.103 1197.75 206.909 1198.2 Q208.714 1198.65 210.727 1198.65 Q213.98 1198.65 215.88 1196.94 Q217.78 1195.23 217.78 1192.29 Q217.78 1189.36 215.88 1187.65 Q213.98 1185.94 210.727 1185.94 Q209.203 1185.94 207.68 1186.27 Q206.175 1186.61 204.595 1187.33 L204.595 1173.22 Z" fill="#000000" fill-rule="nonzero" fill-opacity="1" /><path clip-path="url(#clip460)" d="M115.815 807.759 L123.454 807.759 L123.454 781.393 L115.144 783.06 L115.144 778.801 L123.408 777.134 L128.084 777.134 L128.084 807.759 L135.723 807.759 L135.723 811.694 L115.815 811.694 L115.815 807.759 Z" fill="#000000" fill-rule="nonzero" fill-opacity="1" /><path clip-path="url(#clip460)" d="M155.167 780.213 Q151.556 780.213 149.727 783.777 Q147.922 787.319 147.922 794.449 Q147.922 801.555 149.727 805.12 Q151.556 808.662 155.167 808.662 Q158.801 808.662 160.607 805.12 Q162.436 801.555 162.436 794.449 Q162.436 787.319 160.607 783.777 Q158.801 780.213 155.167 780.213 M155.167 776.509 Q160.977 776.509 164.033 781.115 Q167.111 785.699 167.111 794.449 Q167.111 803.175 164.033 807.782 Q160.977 812.365 155.167 812.365 Q149.357 812.365 146.278 807.782 Q143.223 803.175 143.223 794.449 Q143.223 785.699 146.278 781.115 Q149.357 776.509 155.167 776.509 Z" fill="#000000" fill-rule="nonzero" fill-opacity="1" /><path clip-path="url(#clip460)" d="M167.657 781.086 L173.863 781.086 L173.863 759.664 L167.111 761.018 L167.111 757.558 L173.826 756.204 L177.625 756.204 L177.625 781.086 L183.832 781.086 L183.832 784.284 L167.657 784.284 L167.657 781.086 Z" fill="#000000" fill-rule="nonzero" fill-opacity="1" /><path clip-path="url(#clip460)" d="M191.505 779.506 L195.474 779.506 L195.474 784.284 L191.505 784.284 L191.505 779.506 Z" fill="#000000" fill-rule="nonzero" fill-opacity="1" /><path clip-path="url(#clip460)" d="M211.874 758.705 Q208.94 758.705 207.454 761.601 Q205.987 764.479 205.987 770.272 Q205.987 776.046 207.454 778.942 Q208.94 781.82 211.874 781.82 Q214.827 781.82 216.294 778.942 Q217.78 776.046 217.78 770.272 Q217.78 764.479 216.294 761.601 Q214.827 758.705 211.874 758.705 M211.874 755.696 Q216.595 755.696 219.077 759.438 Q221.579 763.162 221.579 770.272 Q221.579 777.362 219.077 781.105 Q216.595 784.829 211.874 784.829 Q207.153 784.829 204.652 781.105 Q202.169 777.362 202.169 770.272 Q202.169 763.162 204.652 759.438 Q207.153 755.696 211.874 755.696 Z" fill="#000000" fill-rule="nonzero" fill-opacity="1" /><path clip-path="url(#clip460)" d="M116.624 390.741 L124.263 390.741 L124.263 364.375 L115.953 366.042 L115.953 361.782 L124.217 360.116 L128.893 360.116 L128.893 390.741 L136.531 390.741 L136.531 394.676 L116.624 394.676 L116.624 390.741 Z" fill="#000000" fill-rule="nonzero" fill-opacity="1" /><path clip-path="url(#clip460)" d="M155.976 363.194 Q152.365 363.194 150.536 366.759 Q148.73 370.301 148.73 377.43 Q148.73 384.537 150.536 388.102 Q152.365 391.643 155.976 391.643 Q159.61 391.643 161.416 388.102 Q163.244 384.537 163.244 377.43 Q163.244 370.301 161.416 366.759 Q159.61 363.194 155.976 363.194 M155.976 359.491 Q161.786 359.491 164.841 364.097 Q167.92 368.68 167.92 377.43 Q167.92 386.157 164.841 390.764 Q161.786 395.347 155.976 395.347 Q150.166 395.347 147.087 390.764 Q144.031 386.157 144.031 377.43 Q144.031 368.68 147.087 364.097 Q150.166 359.491 155.976 359.491 Z" fill="#000000" fill-rule="nonzero" fill-opacity="1" /><path clip-path="url(#clip460)" d="M168.466 364.068 L174.672 364.068 L174.672 342.646 L167.92 344 L167.92 340.539 L174.635 339.185 L178.434 339.185 L178.434 364.068 L184.64 364.068 L184.64 367.265 L168.466 367.265 L168.466 364.068 Z" fill="#000000" fill-rule="nonzero" fill-opacity="1" /><path clip-path="url(#clip460)" d="M192.314 362.488 L196.282 362.488 L196.282 367.265 L192.314 367.265 L192.314 362.488 Z" fill="#000000" fill-rule="nonzero" fill-opacity="1" /><path clip-path="url(#clip460)" d="M204.595 339.185 L219.51 339.185 L219.51 342.383 L208.075 342.383 L208.075 349.266 Q208.902 348.984 209.73 348.853 Q210.557 348.702 211.385 348.702 Q216.087 348.702 218.833 351.279 Q221.579 353.855 221.579 358.256 Q221.579 362.789 218.758 365.309 Q215.936 367.811 210.802 367.811 Q209.034 367.811 207.191 367.51 Q205.366 367.209 203.41 366.607 L203.41 362.789 Q205.103 363.711 206.909 364.162 Q208.714 364.613 210.727 364.613 Q213.98 364.613 215.88 362.902 Q217.78 361.19 217.78 358.256 Q217.78 355.322 215.88 353.611 Q213.98 351.899 210.727 351.899 Q209.203 351.899 207.68 352.238 Q206.175 352.576 204.595 353.291 L204.595 339.185 Z" fill="#000000" fill-rule="nonzero" fill-opacity="1" /><path clip-path="url(#clip460)" d="M35.1993 1099.27 Q31.2526 1097.07 29.3747 1094.02 Q27.4968 1090.96 27.4968 1086.82 Q27.4968 1081.25 31.4117 1078.23 Q35.2948 1075.21 42.4881 1075.21 L64.0042 1075.21 L64.0042 1081.09 L42.679 1081.09 Q37.5546 1081.09 35.072 1082.91 Q32.5894 1084.72 32.5894 1088.45 Q32.5894 1093 35.6131 1095.64 Q38.6368 1098.28 43.8567 1098.28 L64.0042 1098.28 L64.0042 1104.17 L42.679 1104.17 Q37.5228 1104.17 35.072 1105.98 Q32.5894 1107.8 32.5894 1111.59 Q32.5894 1116.07 35.6449 1118.71 Q38.6686 1121.36 43.8567 1121.36 L64.0042 1121.36 L64.0042 1127.24 L28.3562 1127.24 L28.3562 1121.36 L33.8944 1121.36 Q30.616 1119.35 29.0564 1116.55 Q27.4968 1113.75 27.4968 1109.9 Q27.4968 1106.02 29.4702 1103.31 Q31.4436 1100.57 35.1993 1099.27 Z" fill="#000000" fill-rule="nonzero" fill-opacity="1" /><path clip-path="url(#clip460)" d="M44.7161 1033.03 L47.5806 1033.03 L47.5806 1059.96 Q53.6281 1059.58 56.8109 1056.33 Q59.9619 1053.05 59.9619 1047.23 Q59.9619 1043.85 59.1344 1040.7 Q58.3069 1037.52 56.6518 1034.4 L62.1899 1034.4 Q63.5267 1037.55 64.227 1040.86 Q64.9272 1044.17 64.9272 1047.58 Q64.9272 1056.11 59.9619 1061.1 Q54.9967 1066.07 46.5303 1066.07 Q37.7774 1066.07 32.6531 1061.36 Q27.4968 1056.62 27.4968 1048.6 Q27.4968 1041.4 32.1438 1037.23 Q36.7589 1033.03 44.7161 1033.03 M42.9973 1038.89 Q38.1912 1038.95 35.3266 1041.59 Q32.4621 1044.2 32.4621 1048.53 Q32.4621 1053.43 35.2312 1056.39 Q38.0002 1059.32 43.0292 1059.77 L42.9973 1038.89 Z" fill="#000000" fill-rule="nonzero" fill-opacity="1" /><path clip-path="url(#clip460)" d="M46.0847 1007.22 Q46.0847 1014.32 47.7079 1017.05 Q49.3312 1019.79 53.2461 1019.79 Q56.3653 1019.79 58.2114 1017.75 Q60.0256 1015.69 60.0256 1012.15 Q60.0256 1007.28 56.5881 1004.35 Q53.1188 1001.39 47.3897 1001.39 L46.0847 1001.39 L46.0847 1007.22 M43.6657 995.538 L64.0042 995.538 L64.0042 1001.39 L58.5933 1001.39 Q61.8398 1003.4 63.3994 1006.39 Q64.9272 1009.38 64.9272 1013.71 Q64.9272 1019.19 61.8716 1022.43 Q58.7843 1025.65 53.6281 1025.65 Q47.6125 1025.65 44.5569 1021.64 Q41.5014 1017.6 41.5014 1009.61 L41.5014 1001.39 L40.9285 1001.39 Q36.8862 1001.39 34.6901 1004.07 Q32.4621 1006.71 32.4621 1011.52 Q32.4621 1014.57 33.1941 1017.47 Q33.9262 1020.36 35.3903 1023.04 L29.9795 1023.04 Q28.7381 1019.82 28.1334 1016.8 Q27.4968 1013.78 27.4968 1010.91 Q27.4968 1003.18 31.5072 999.358 Q35.5176 995.538 43.6657 995.538 Z" fill="#000000" fill-rule="nonzero" fill-opacity="1" /><path clip-path="url(#clip460)" d="M42.4881 953.843 L64.0042 953.843 L64.0042 959.699 L42.679 959.699 Q37.6183 959.699 35.1038 961.673 Q32.5894 963.646 32.5894 967.593 Q32.5894 972.335 35.6131 975.072 Q38.6368 977.81 43.8567 977.81 L64.0042 977.81 L64.0042 983.698 L28.3562 983.698 L28.3562 977.81 L33.8944 977.81 Q30.6797 975.709 29.0883 972.876 Q27.4968 970.012 27.4968 966.288 Q27.4968 960.145 31.3163 956.994 Q35.1038 953.843 42.4881 953.843 Z" fill="#000000" fill-rule="nonzero" fill-opacity="1" /><path clip-path="url(#clip460)" d="M18.2347 915.649 L28.3562 915.649 L28.3562 903.586 L32.9077 903.586 L32.9077 915.649 L52.2594 915.649 Q56.6199 915.649 57.8613 914.471 Q59.1026 913.261 59.1026 909.601 L59.1026 903.586 L64.0042 903.586 L64.0042 909.601 Q64.0042 916.381 61.4897 918.959 Q58.9434 921.537 52.2594 921.537 L32.9077 921.537 L32.9077 925.834 L28.3562 925.834 L28.3562 921.537 L18.2347 921.537 L18.2347 915.649 Z" fill="#000000" fill-rule="nonzero" fill-opacity="1" /><path clip-path="url(#clip460)" d="M33.8307 875.226 Q33.2578 876.213 33.0032 877.391 Q32.7167 878.537 32.7167 879.937 Q32.7167 884.902 35.9632 887.576 Q39.1779 890.218 45.2253 890.218 L64.0042 890.218 L64.0042 896.106 L28.3562 896.106 L28.3562 890.218 L33.8944 890.218 Q30.6479 888.372 29.0883 885.411 Q27.4968 882.451 27.4968 878.218 Q27.4968 877.613 27.5923 876.881 Q27.656 876.149 27.8151 875.258 L33.8307 875.226 Z" fill="#000000" fill-rule="nonzero" fill-opacity="1" /><path clip-path="url(#clip460)" d="M46.0847 852.883 Q46.0847 859.98 47.7079 862.718 Q49.3312 865.455 53.2461 865.455 Q56.3653 865.455 58.2114 863.418 Q60.0256 861.349 60.0256 857.816 Q60.0256 852.946 56.5881 850.018 Q53.1188 847.058 47.3897 847.058 L46.0847 847.058 L46.0847 852.883 M43.6657 841.202 L64.0042 841.202 L64.0042 847.058 L58.5933 847.058 Q61.8398 849.063 63.3994 852.055 Q64.9272 855.047 64.9272 859.376 Q64.9272 864.85 61.8716 868.097 Q58.7843 871.311 53.6281 871.311 Q47.6125 871.311 44.5569 867.301 Q41.5014 863.259 41.5014 855.27 L41.5014 847.058 L40.9285 847.058 Q36.8862 847.058 34.6901 849.732 Q32.4621 852.373 32.4621 857.18 Q32.4621 860.235 33.1941 863.131 Q33.9262 866.028 35.3903 868.701 L29.9795 868.701 Q28.7381 865.487 28.1334 862.463 Q27.4968 859.439 27.4968 856.575 Q27.4968 848.84 31.5072 845.021 Q35.5176 841.202 43.6657 841.202 Z" fill="#000000" fill-rule="nonzero" fill-opacity="1" /><path clip-path="url(#clip460)" d="M28.3562 829.139 L28.3562 823.282 L64.0042 823.282 L64.0042 829.139 L28.3562 829.139 M14.479 829.139 L14.479 823.282 L21.895 823.282 L21.895 829.139 L14.479 829.139 Z" fill="#000000" fill-rule="nonzero" fill-opacity="1" /><path clip-path="url(#clip460)" d="M42.4881 781.396 L64.0042 781.396 L64.0042 787.252 L42.679 787.252 Q37.6183 787.252 35.1038 789.226 Q32.5894 791.199 32.5894 795.146 Q32.5894 799.888 35.6131 802.625 Q38.6368 805.363 43.8567 805.363 L64.0042 805.363 L64.0042 811.251 L28.3562 811.251 L28.3562 805.363 L33.8944 805.363 Q30.6797 803.262 29.0883 800.429 Q27.4968 797.565 27.4968 793.841 Q27.4968 787.698 31.3163 784.547 Q35.1038 781.396 42.4881 781.396 Z" fill="#000000" fill-rule="nonzero" fill-opacity="1" /><path clip-path="url(#clip460)" d="M28.3562 769.715 L28.3562 763.858 L64.0042 763.858 L64.0042 769.715 L28.3562 769.715 M14.479 769.715 L14.479 763.858 L21.895 763.858 L21.895 769.715 L14.479 769.715 Z" fill="#000000" fill-rule="nonzero" fill-opacity="1" /><path clip-path="url(#clip460)" d="M42.4881 721.972 L64.0042 721.972 L64.0042 727.828 L42.679 727.828 Q37.6183 727.828 35.1038 729.802 Q32.5894 731.775 32.5894 735.722 Q32.5894 740.464 35.6131 743.202 Q38.6368 745.939 43.8567 745.939 L64.0042 745.939 L64.0042 751.827 L28.3562 751.827 L28.3562 745.939 L33.8944 745.939 Q30.6797 743.838 29.0883 741.005 Q27.4968 738.141 27.4968 734.417 Q27.4968 728.274 31.3163 725.123 Q35.1038 721.972 42.4881 721.972 Z" fill="#000000" fill-rule="nonzero" fill-opacity="1" /><path clip-path="url(#clip460)" d="M45.7664 686.833 Q39.4007 686.833 35.8996 689.475 Q32.3984 692.085 32.3984 696.827 Q32.3984 701.538 35.8996 704.18 Q39.4007 706.79 45.7664 706.79 Q52.1003 706.79 55.6014 704.18 Q59.1026 701.538 59.1026 696.827 Q59.1026 692.085 55.6014 689.475 Q52.1003 686.833 45.7664 686.833 M59.58 680.977 Q68.683 680.977 73.1071 685.019 Q77.5631 689.061 77.5631 697.4 Q77.5631 700.488 77.0857 703.225 Q76.6401 705.962 75.6852 708.54 L69.9879 708.54 Q71.3884 705.962 72.0568 703.448 Q72.7252 700.933 72.7252 698.323 Q72.7252 692.562 69.7015 689.698 Q66.7096 686.833 60.6303 686.833 L57.7339 686.833 Q60.885 688.647 62.4446 691.48 Q64.0042 694.313 64.0042 698.26 Q64.0042 704.816 59.0071 708.827 Q54.01 712.837 45.7664 712.837 Q37.491 712.837 32.4939 708.827 Q27.4968 704.816 27.4968 698.26 Q27.4968 694.313 29.0564 691.48 Q30.616 688.647 33.7671 686.833 L28.3562 686.833 L28.3562 680.977 L59.58 680.977 Z" fill="#000000" fill-rule="nonzero" fill-opacity="1" /><path clip-path="url(#clip460)" d="M18.2347 642.401 L28.3562 642.401 L28.3562 630.338 L32.9077 630.338 L32.9077 642.401 L52.2594 642.401 Q56.6199 642.401 57.8613 641.223 Q59.1026 640.013 59.1026 636.353 L59.1026 630.338 L64.0042 630.338 L64.0042 636.353 Q64.0042 643.133 61.4897 645.711 Q58.9434 648.289 52.2594 648.289 L32.9077 648.289 L32.9077 652.586 L28.3562 652.586 L28.3562 648.289 L18.2347 648.289 L18.2347 642.401 Z" fill="#000000" fill-rule="nonzero" fill-opacity="1" /><path clip-path="url(#clip460)" d="M28.3562 622.635 L28.3562 616.779 L64.0042 616.779 L64.0042 622.635 L28.3562 622.635 M14.479 622.635 L14.479 616.779 L21.895 616.779 L21.895 622.635 L14.479 622.635 Z" fill="#000000" fill-rule="nonzero" fill-opacity="1" /><path clip-path="url(#clip460)" d="M35.1993 576.77 Q31.2526 574.574 29.3747 571.518 Q27.4968 568.463 27.4968 564.325 Q27.4968 558.755 31.4117 555.732 Q35.2948 552.708 42.4881 552.708 L64.0042 552.708 L64.0042 558.596 L42.679 558.596 Q37.5546 558.596 35.072 560.41 Q32.5894 562.225 32.5894 565.948 Q32.5894 570.5 35.6131 573.142 Q38.6368 575.784 43.8567 575.784 L64.0042 575.784 L64.0042 581.672 L42.679 581.672 Q37.5228 581.672 35.072 583.486 Q32.5894 585.3 32.5894 589.088 Q32.5894 593.576 35.6449 596.217 Q38.6686 598.859 43.8567 598.859 L64.0042 598.859 L64.0042 604.747 L28.3562 604.747 L28.3562 598.859 L33.8944 598.859 Q30.616 596.854 29.0564 594.053 Q27.4968 591.252 27.4968 587.401 Q27.4968 583.518 29.4702 580.812 Q31.4436 578.075 35.1993 576.77 Z" fill="#000000" fill-rule="nonzero" fill-opacity="1" /><path clip-path="url(#clip460)" d="M44.7161 510.535 L47.5806 510.535 L47.5806 537.462 Q53.6281 537.08 56.8109 533.833 Q59.9619 530.555 59.9619 524.731 Q59.9619 521.357 59.1344 518.206 Q58.3069 515.023 56.6518 511.904 L62.1899 511.904 Q63.5267 515.055 64.227 518.365 Q64.9272 521.675 64.9272 525.081 Q64.9272 533.611 59.9619 538.608 Q54.9967 543.573 46.5303 543.573 Q37.7774 543.573 32.6531 538.862 Q27.4968 534.12 27.4968 526.099 Q27.4968 518.906 32.1438 514.736 Q36.7589 510.535 44.7161 510.535 M42.9973 516.391 Q38.1912 516.455 35.3266 519.097 Q32.4621 521.707 32.4621 526.036 Q32.4621 530.937 35.2312 533.897 Q38.0002 536.825 43.0292 537.271 L42.9973 516.391 Z" fill="#000000" fill-rule="nonzero" fill-opacity="1" /><path clip-path="url(#clip460)" d="M14.5426 466.134 Q21.8632 470.399 29.0246 472.468 Q36.186 474.537 43.5384 474.537 Q50.8908 474.537 58.1159 472.468 Q65.3091 470.367 72.5979 466.134 L72.5979 471.227 Q65.1182 476.001 57.8931 478.388 Q50.668 480.744 43.5384 480.744 Q36.4406 480.744 29.2474 478.388 Q22.0542 476.033 14.5426 471.227 L14.5426 466.134 Z" fill="#000000" fill-rule="nonzero" fill-opacity="1" /><path clip-path="url(#clip460)" d="M29.4065 432.046 L34.9447 432.046 Q33.6716 434.528 33.035 437.202 Q32.3984 439.876 32.3984 442.74 Q32.3984 447.101 33.7352 449.297 Q35.072 451.461 37.7456 451.461 Q39.7826 451.461 40.9603 449.902 Q42.1061 448.342 43.1565 443.631 L43.6021 441.626 Q44.9389 435.388 47.3897 432.778 Q49.8086 430.136 54.1691 430.136 Q59.1344 430.136 62.0308 434.083 Q64.9272 437.998 64.9272 444.873 Q64.9272 447.737 64.3543 450.857 Q63.8132 453.944 62.6992 457.381 L56.6518 457.381 Q58.3387 454.135 59.198 450.984 Q60.0256 447.833 60.0256 444.745 Q60.0256 440.608 58.6251 438.38 Q57.1929 436.152 54.6147 436.152 Q52.2276 436.152 50.9545 437.775 Q49.6813 439.366 48.5037 444.809 L48.0262 446.846 Q46.8804 452.289 44.5251 454.708 Q42.138 457.127 38.0002 457.127 Q32.9713 457.127 30.2341 453.562 Q27.4968 449.997 27.4968 443.44 Q27.4968 440.194 27.9743 437.329 Q28.4517 434.465 29.4065 432.046 Z" fill="#000000" fill-rule="nonzero" fill-opacity="1" /><path clip-path="url(#clip460)" d="M14.5426 421.733 L14.5426 416.641 Q22.0542 411.867 29.2474 409.511 Q36.4406 407.124 43.5384 407.124 Q50.668 407.124 57.8931 409.511 Q65.1182 411.867 72.5979 416.641 L72.5979 421.733 Q65.3091 417.5 58.1159 415.431 Q50.8908 413.331 43.5384 413.331 Q36.186 413.331 29.0246 415.431 Q21.8632 417.5 14.5426 421.733 Z" fill="#000000" fill-rule="nonzero" fill-opacity="1" /><path clip-path="url(#clip460)" d="M330.135 12.096 L381.298 12.096 L381.298 18.9825 L359.828 18.9825 L359.828 72.576 L351.605 72.576 L351.605 18.9825 L330.135 18.9825 L330.135 12.096 Z" fill="#000000" fill-rule="nonzero" fill-opacity="1" /><path clip-path="url(#clip460)" d="M402.97 34.1734 Q401.714 33.4443 400.216 33.1202 Q398.757 32.7556 396.975 32.7556 Q390.655 32.7556 387.253 36.8875 Q383.89 40.9789 383.89 48.6757 L383.89 72.576 L376.396 72.576 L376.396 27.2059 L383.89 27.2059 L383.89 34.2544 Q386.24 30.1225 390.007 28.1376 Q393.775 26.1121 399.162 26.1121 Q399.932 26.1121 400.864 26.2337 Q401.795 26.3147 402.93 26.5172 L402.97 34.1734 Z" fill="#000000" fill-rule="nonzero" fill-opacity="1" /><path clip-path="url(#clip460)" d="M431.408 49.7694 Q422.374 49.7694 418.89 51.8354 Q415.406 53.9013 415.406 58.8839 Q415.406 62.8538 417.999 65.2034 Q420.632 67.5124 425.129 67.5124 Q431.327 67.5124 435.053 63.1374 Q438.821 58.7219 438.821 51.4303 L438.821 49.7694 L431.408 49.7694 M446.274 46.6907 L446.274 72.576 L438.821 72.576 L438.821 65.6895 Q436.269 69.8214 432.461 71.8063 Q428.653 73.7508 423.144 73.7508 Q416.176 73.7508 412.044 69.8619 Q407.953 65.9325 407.953 59.3701 Q407.953 51.7138 413.057 47.825 Q418.202 43.9361 428.369 43.9361 L438.821 43.9361 L438.821 43.2069 Q438.821 38.0623 435.418 35.2672 Q432.056 32.4315 425.939 32.4315 Q422.05 32.4315 418.364 33.3632 Q414.677 34.295 411.275 36.1584 L411.275 29.2718 Q415.366 27.692 419.214 26.9223 Q423.063 26.1121 426.708 26.1121 Q436.552 26.1121 441.413 31.2163 Q446.274 36.3204 446.274 46.6907 Z" fill="#000000" fill-rule="nonzero" fill-opacity="1" /><path clip-path="url(#clip460)" d="M461.627 27.2059 L469.081 27.2059 L469.081 72.576 L461.627 72.576 L461.627 27.2059 M461.627 9.54393 L469.081 9.54393 L469.081 18.9825 L461.627 18.9825 L461.627 9.54393 Z" fill="#000000" fill-rule="nonzero" fill-opacity="1" /><path clip-path="url(#clip460)" d="M522.391 45.1919 L522.391 72.576 L514.937 72.576 L514.937 45.4349 Q514.937 38.994 512.426 35.7938 Q509.914 32.5936 504.891 32.5936 Q498.855 32.5936 495.371 36.4419 Q491.888 40.2903 491.888 46.9338 L491.888 72.576 L484.393 72.576 L484.393 27.2059 L491.888 27.2059 L491.888 34.2544 Q494.561 30.163 498.166 28.1376 Q501.812 26.1121 506.552 26.1121 Q514.37 26.1121 518.38 30.9732 Q522.391 35.7938 522.391 45.1919 Z" fill="#000000" fill-rule="nonzero" fill-opacity="1" /><path clip-path="url(#clip460)" d="M537.258 27.2059 L544.711 27.2059 L544.711 72.576 L537.258 72.576 L537.258 27.2059 M537.258 9.54393 L544.711 9.54393 L544.711 18.9825 L537.258 18.9825 L537.258 9.54393 Z" fill="#000000" fill-rule="nonzero" fill-opacity="1" /><path clip-path="url(#clip460)" d="M598.021 45.1919 L598.021 72.576 L590.568 72.576 L590.568 45.4349 Q590.568 38.994 588.056 35.7938 Q585.544 32.5936 580.521 32.5936 Q574.485 32.5936 571.002 36.4419 Q567.518 40.2903 567.518 46.9338 L567.518 72.576 L560.024 72.576 L560.024 27.2059 L567.518 27.2059 L567.518 34.2544 Q570.192 30.163 573.797 28.1376 Q577.443 26.1121 582.182 26.1121 Q590 26.1121 594.011 30.9732 Q598.021 35.7938 598.021 45.1919 Z" fill="#000000" fill-rule="nonzero" fill-opacity="1" /><path clip-path="url(#clip460)" d="M642.743 49.3643 Q642.743 41.2625 639.381 36.8065 Q636.059 32.3505 630.023 32.3505 Q624.028 32.3505 620.666 36.8065 Q617.344 41.2625 617.344 49.3643 Q617.344 57.4256 620.666 61.8816 Q624.028 66.3376 630.023 66.3376 Q636.059 66.3376 639.381 61.8816 Q642.743 57.4256 642.743 49.3643 M650.197 66.9452 Q650.197 78.5308 645.052 84.1616 Q639.908 89.8329 629.294 89.8329 Q625.365 89.8329 621.881 89.2252 Q618.397 88.6581 615.116 87.4428 L615.116 80.1917 Q618.397 81.9741 621.597 82.8248 Q624.798 83.6755 628.119 83.6755 Q635.452 83.6755 639.097 79.8271 Q642.743 76.0193 642.743 68.282 L642.743 64.5957 Q640.434 68.6061 636.829 70.5911 Q633.224 72.576 628.2 72.576 Q619.856 72.576 614.751 66.2161 Q609.647 59.8562 609.647 49.3643 Q609.647 38.832 614.751 32.472 Q619.856 26.1121 628.2 26.1121 Q633.224 26.1121 636.829 28.0971 Q640.434 30.082 642.743 34.0924 L642.743 27.2059 L650.197 27.2059 L650.197 66.9452 Z" fill="#000000" fill-rule="nonzero" fill-opacity="1" /><path clip-path="url(#clip460)" d="M728.501 14.0809 L728.501 22.0612 Q723.842 19.8332 719.71 18.7395 Q715.578 17.6457 711.73 17.6457 Q705.046 17.6457 701.4 20.2383 Q697.795 22.8309 697.795 27.611 Q697.795 31.6214 700.185 33.6873 Q702.616 35.7128 709.34 36.9686 L714.282 37.9813 Q723.437 39.7232 727.772 44.1387 Q732.147 48.5136 732.147 55.8863 Q732.147 64.6767 726.232 69.2137 Q720.359 73.7508 708.975 73.7508 Q704.682 73.7508 699.82 72.7785 Q695 71.8063 689.815 69.9024 L689.815 61.4765 Q694.797 64.2716 699.577 65.6895 Q704.357 67.1073 708.975 67.1073 Q715.984 67.1073 719.791 64.3527 Q723.599 61.598 723.599 56.4939 Q723.599 52.0379 720.845 49.5264 Q718.131 47.0148 711.892 45.759 L706.91 44.7868 Q697.754 42.9639 693.663 39.075 Q689.572 35.1862 689.572 28.2591 Q689.572 20.2383 695.202 15.6203 Q700.874 11.0023 710.798 11.0023 Q715.052 11.0023 719.467 11.7719 Q723.883 12.5416 728.501 14.0809 Z" fill="#000000" fill-rule="nonzero" fill-opacity="1" /><path clip-path="url(#clip460)" d="M783.391 48.0275 L783.391 51.6733 L749.12 51.6733 Q749.606 59.3701 753.738 63.421 Q757.91 67.4314 765.324 67.4314 Q769.618 67.4314 773.628 66.3781 Q777.679 65.3249 781.649 63.2184 L781.649 70.267 Q777.638 71.9684 773.425 72.8596 Q769.212 73.7508 764.878 73.7508 Q754.022 73.7508 747.662 67.4314 Q741.342 61.1119 741.342 50.3365 Q741.342 39.1965 747.338 32.6746 Q753.373 26.1121 763.582 26.1121 Q772.737 26.1121 778.043 32.0264 Q783.391 37.9003 783.391 48.0275 M775.937 45.84 Q775.856 39.7232 772.494 36.0774 Q769.172 32.4315 763.663 32.4315 Q757.424 32.4315 753.657 35.9558 Q749.93 39.4801 749.363 45.8805 L775.937 45.84 Z" fill="#000000" fill-rule="nonzero" fill-opacity="1" /><path clip-path="url(#clip460)" d="M802.997 14.324 L802.997 27.2059 L818.35 27.2059 L818.35 32.9987 L802.997 32.9987 L802.997 57.6282 Q802.997 63.1779 804.496 64.7578 Q806.035 66.3376 810.694 66.3376 L818.35 66.3376 L818.35 72.576 L810.694 72.576 Q802.065 72.576 798.784 69.3758 Q795.503 66.1351 795.503 57.6282 L795.503 32.9987 L790.034 32.9987 L790.034 27.2059 L795.503 27.2059 L795.503 14.324 L802.997 14.324 Z" fill="#000000" fill-rule="nonzero" fill-opacity="1" /><path clip-path="url(#clip460)" d="M891.104 14.0809 L891.104 22.0612 Q886.446 19.8332 882.314 18.7395 Q878.182 17.6457 874.333 17.6457 Q867.649 17.6457 864.004 20.2383 Q860.398 22.8309 860.398 27.611 Q860.398 31.6214 862.788 33.6873 Q865.219 35.7128 871.943 36.9686 L876.885 37.9813 Q886.041 39.7232 890.375 44.1387 Q894.75 48.5136 894.75 55.8863 Q894.75 64.6767 888.836 69.2137 Q882.962 73.7508 871.579 73.7508 Q867.285 73.7508 862.424 72.7785 Q857.603 71.8063 852.418 69.9024 L852.418 61.4765 Q857.401 64.2716 862.181 65.6895 Q866.961 67.1073 871.579 67.1073 Q878.587 67.1073 882.395 64.3527 Q886.203 61.598 886.203 56.4939 Q886.203 52.0379 883.448 49.5264 Q880.734 47.0148 874.495 45.759 L869.513 44.7868 Q860.358 42.9639 856.266 39.075 Q852.175 35.1862 852.175 28.2591 Q852.175 20.2383 857.806 15.6203 Q863.477 11.0023 873.402 11.0023 Q877.655 11.0023 882.071 11.7719 Q886.486 12.5416 891.104 14.0809 Z" fill="#000000" fill-rule="nonzero" fill-opacity="1" /><path clip-path="url(#clip460)" d="M907.186 27.2059 L914.64 27.2059 L914.64 72.576 L907.186 72.576 L907.186 27.2059 M907.186 9.54393 L914.64 9.54393 L914.64 18.9825 L907.186 18.9825 L907.186 9.54393 Z" fill="#000000" fill-rule="nonzero" fill-opacity="1" /><path clip-path="url(#clip460)" d="M926.995 27.2059 L962.4 27.2059 L962.4 34.0114 L934.368 66.6212 L962.4 66.6212 L962.4 72.576 L925.982 72.576 L925.982 65.7705 L954.015 33.1607 L926.995 33.1607 L926.995 27.2059 Z" fill="#000000" fill-rule="nonzero" fill-opacity="1" /><path clip-path="url(#clip460)" d="M1012.59 48.0275 L1012.59 51.6733 L978.32 51.6733 Q978.806 59.3701 982.938 63.421 Q987.111 67.4314 994.524 67.4314 Q998.818 67.4314 1002.83 66.3781 Q1006.88 65.3249 1010.85 63.2184 L1010.85 70.267 Q1006.84 71.9684 1002.63 72.8596 Q998.413 73.7508 994.078 73.7508 Q983.222 73.7508 976.862 67.4314 Q970.542 61.1119 970.542 50.3365 Q970.542 39.1965 976.538 32.6746 Q982.574 26.1121 992.782 26.1121 Q1001.94 26.1121 1007.24 32.0264 Q1012.59 37.9003 1012.59 48.0275 M1005.14 45.84 Q1005.06 39.7232 1001.69 36.0774 Q998.372 32.4315 992.863 32.4315 Q986.624 32.4315 982.857 35.9558 Q979.13 39.4801 978.563 45.8805 L1005.14 45.84 Z" fill="#000000" fill-rule="nonzero" fill-opacity="1" /><path clip-path="url(#clip460)" d="M1043.13 12.096 L1094.3 12.096 L1094.3 18.9825 L1072.83 18.9825 L1072.83 72.576 L1064.6 72.576 L1064.6 18.9825 L1043.13 18.9825 L1043.13 12.096 Z" fill="#000000" fill-rule="nonzero" fill-opacity="1" /><path clip-path="url(#clip460)" d="M1099.32 27.2059 L1106.77 27.2059 L1106.77 72.576 L1099.32 72.576 L1099.32 27.2059 M1099.32 9.54393 L1106.77 9.54393 L1106.77 18.9825 L1099.32 18.9825 L1099.32 9.54393 Z" fill="#000000" fill-rule="nonzero" fill-opacity="1" /><path clip-path="url(#clip460)" d="M1157.69 35.9153 Q1160.49 30.8922 1164.38 28.5022 Q1168.27 26.1121 1173.53 26.1121 Q1180.62 26.1121 1184.47 31.0947 Q1188.32 36.0368 1188.32 45.1919 L1188.32 72.576 L1180.82 72.576 L1180.82 45.4349 Q1180.82 38.913 1178.52 35.7533 Q1176.21 32.5936 1171.47 32.5936 Q1165.67 32.5936 1162.31 36.4419 Q1158.95 40.2903 1158.95 46.9338 L1158.95 72.576 L1151.46 72.576 L1151.46 45.4349 Q1151.46 38.8725 1149.15 35.7533 Q1146.84 32.5936 1142.02 32.5936 Q1136.31 32.5936 1132.94 36.4824 Q1129.58 40.3308 1129.58 46.9338 L1129.58 72.576 L1122.09 72.576 L1122.09 27.2059 L1129.58 27.2059 L1129.58 34.2544 Q1132.13 30.082 1135.7 28.0971 Q1139.26 26.1121 1144.16 26.1121 Q1149.11 26.1121 1152.55 28.6237 Q1156.03 31.1352 1157.69 35.9153 Z" fill="#000000" fill-rule="nonzero" fill-opacity="1" /><path clip-path="url(#clip460)" d="M1241.99 48.0275 L1241.99 51.6733 L1207.72 51.6733 Q1208.21 59.3701 1212.34 63.421 Q1216.51 67.4314 1223.93 67.4314 Q1228.22 67.4314 1232.23 66.3781 Q1236.28 65.3249 1240.25 63.2184 L1240.25 70.267 Q1236.24 71.9684 1232.03 72.8596 Q1227.82 73.7508 1223.48 73.7508 Q1212.62 73.7508 1206.26 67.4314 Q1199.95 61.1119 1199.95 50.3365 Q1199.95 39.1965 1205.94 32.6746 Q1211.98 26.1121 1222.18 26.1121 Q1231.34 26.1121 1236.65 32.0264 Q1241.99 37.9003 1241.99 48.0275 M1234.54 45.84 Q1234.46 39.7232 1231.1 36.0774 Q1227.77 32.4315 1222.27 32.4315 Q1216.03 32.4315 1212.26 35.9558 Q1208.53 39.4801 1207.97 45.8805 L1234.54 45.84 Z" fill="#000000" fill-rule="nonzero" fill-opacity="1" /><path clip-path="url(#clip460)" d="M1326.21 16.7545 L1326.21 25.383 Q1322.08 21.5346 1317.38 19.6307 Q1312.72 17.7268 1307.46 17.7268 Q1297.09 17.7268 1291.58 24.0867 Q1286.07 30.4061 1286.07 42.3968 Q1286.07 54.3469 1291.58 60.7069 Q1297.09 67.0263 1307.46 67.0263 Q1312.72 67.0263 1317.38 65.1223 Q1322.08 63.2184 1326.21 59.3701 L1326.21 67.9175 Q1321.92 70.8341 1317.1 72.2924 Q1312.32 73.7508 1306.97 73.7508 Q1293.24 73.7508 1285.34 65.3654 Q1277.44 56.9395 1277.44 42.3968 Q1277.44 27.8135 1285.34 19.4281 Q1293.24 11.0023 1306.97 11.0023 Q1312.4 11.0023 1317.18 12.4606 Q1322 13.8784 1326.21 16.7545 Z" fill="#000000" fill-rule="nonzero" fill-opacity="1" /><path clip-path="url(#clip460)" d="M1356.11 32.4315 Q1350.11 32.4315 1346.63 37.1306 Q1343.14 41.7891 1343.14 49.9314 Q1343.14 58.0738 1346.59 62.7728 Q1350.07 67.4314 1356.11 67.4314 Q1362.06 67.4314 1365.55 62.7323 Q1369.03 58.0333 1369.03 49.9314 Q1369.03 41.8701 1365.55 37.1711 Q1362.06 32.4315 1356.11 32.4315 M1356.11 26.1121 Q1365.83 26.1121 1371.38 32.4315 Q1376.93 38.7509 1376.93 49.9314 Q1376.93 61.0714 1371.38 67.4314 Q1365.83 73.7508 1356.11 73.7508 Q1346.34 73.7508 1340.8 67.4314 Q1335.29 61.0714 1335.29 49.9314 Q1335.29 38.7509 1340.8 32.4315 Q1346.34 26.1121 1356.11 26.1121 Z" fill="#000000" fill-rule="nonzero" fill-opacity="1" /><path clip-path="url(#clip460)" d="M1424.61 35.9153 Q1427.4 30.8922 1431.29 28.5022 Q1435.18 26.1121 1440.45 26.1121 Q1447.54 26.1121 1451.38 31.0947 Q1455.23 36.0368 1455.23 45.1919 L1455.23 72.576 L1447.74 72.576 L1447.74 45.4349 Q1447.74 38.913 1445.43 35.7533 Q1443.12 32.5936 1438.38 32.5936 Q1432.59 32.5936 1429.23 36.4419 Q1425.86 40.2903 1425.86 46.9338 L1425.86 72.576 L1418.37 72.576 L1418.37 45.4349 Q1418.37 38.8725 1416.06 35.7533 Q1413.75 32.5936 1408.93 32.5936 Q1403.22 32.5936 1399.86 36.4824 Q1396.49 40.3308 1396.49 46.9338 L1396.49 72.576 L1389 72.576 L1389 27.2059 L1396.49 27.2059 L1396.49 34.2544 Q1399.05 30.082 1402.61 28.0971 Q1406.18 26.1121 1411.08 26.1121 Q1416.02 26.1121 1419.46 28.6237 Q1422.95 31.1352 1424.61 35.9153 Z" fill="#000000" fill-rule="nonzero" fill-opacity="1" /><path clip-path="url(#clip460)" d="M1477.31 65.7705 L1477.31 89.8329 L1469.82 89.8329 L1469.82 27.2059 L1477.31 27.2059 L1477.31 34.0924 Q1479.66 30.0415 1483.22 28.0971 Q1486.83 26.1121 1491.81 26.1121 Q1500.08 26.1121 1505.22 32.6746 Q1510.41 39.2371 1510.41 49.9314 Q1510.41 60.6258 1505.22 67.1883 Q1500.08 73.7508 1491.81 73.7508 Q1486.83 73.7508 1483.22 71.8063 Q1479.66 69.8214 1477.31 65.7705 M1502.67 49.9314 Q1502.67 41.7081 1499.27 37.0496 Q1495.9 32.3505 1489.99 32.3505 Q1484.08 32.3505 1480.67 37.0496 Q1477.31 41.7081 1477.31 49.9314 Q1477.31 58.1548 1480.67 62.8538 Q1484.08 67.5124 1489.99 67.5124 Q1495.9 67.5124 1499.27 62.8538 Q1502.67 58.1548 1502.67 49.9314 Z" fill="#000000" fill-rule="nonzero" fill-opacity="1" /><path clip-path="url(#clip460)" d="M1522.76 9.54393 L1530.22 9.54393 L1530.22 72.576 L1522.76 72.576 L1522.76 9.54393 Z" fill="#000000" fill-rule="nonzero" fill-opacity="1" /><path clip-path="url(#clip460)" d="M1584.62 48.0275 L1584.62 51.6733 L1550.35 51.6733 Q1550.83 59.3701 1554.97 63.421 Q1559.14 67.4314 1566.55 67.4314 Q1570.85 67.4314 1574.86 66.3781 Q1578.91 65.3249 1582.88 63.2184 L1582.88 70.267 Q1578.87 71.9684 1574.65 72.8596 Q1570.44 73.7508 1566.11 73.7508 Q1555.25 73.7508 1548.89 67.4314 Q1542.57 61.1119 1542.57 50.3365 Q1542.57 39.1965 1548.57 32.6746 Q1554.6 26.1121 1564.81 26.1121 Q1573.97 26.1121 1579.27 32.0264 Q1584.62 37.9003 1584.62 48.0275 M1577.17 45.84 Q1577.08 39.7232 1573.72 36.0774 Q1570.4 32.4315 1564.89 32.4315 Q1558.65 32.4315 1554.89 35.9558 Q1551.16 39.4801 1550.59 45.8805 L1577.17 45.84 Z" fill="#000000" fill-rule="nonzero" fill-opacity="1" /><path clip-path="url(#clip460)" d="M1633.11 27.2059 L1616.7 49.2833 L1633.96 72.576 L1625.17 72.576 L1611.96 54.752 L1598.76 72.576 L1589.97 72.576 L1607.59 48.8377 L1591.46 27.2059 L1600.26 27.2059 L1612.29 43.369 L1624.32 27.2059 L1633.11 27.2059 Z" fill="#000000" fill-rule="nonzero" fill-opacity="1" /><path clip-path="url(#clip460)" d="M1644.49 27.2059 L1651.94 27.2059 L1651.94 72.576 L1644.49 72.576 L1644.49 27.2059 M1644.49 9.54393 L1651.94 9.54393 L1651.94 18.9825 L1644.49 18.9825 L1644.49 9.54393 Z" fill="#000000" fill-rule="nonzero" fill-opacity="1" /><path clip-path="url(#clip460)" d="M1674.91 14.324 L1674.91 27.2059 L1690.27 27.2059 L1690.27 32.9987 L1674.91 32.9987 L1674.91 57.6282 Q1674.91 63.1779 1676.41 64.7578 Q1677.95 66.3376 1682.61 66.3376 L1690.27 66.3376 L1690.27 72.576 L1682.61 72.576 Q1673.98 72.576 1670.7 69.3758 Q1667.42 66.1351 1667.42 57.6282 L1667.42 32.9987 L1661.95 32.9987 L1661.95 27.2059 L1667.42 27.2059 L1667.42 14.324 L1674.91 14.324 Z" fill="#000000" fill-rule="nonzero" fill-opacity="1" /><path clip-path="url(#clip460)" d="M1718.95 76.7889 Q1715.79 84.8907 1712.79 87.3618 Q1709.79 89.8329 1704.77 89.8329 L1698.81 89.8329 L1698.81 83.5945 L1703.19 83.5945 Q1706.27 83.5945 1707.97 82.1361 Q1709.67 80.6778 1711.74 75.2496 L1713.07 71.8468 L1694.72 27.2059 L1702.62 27.2059 L1716.8 62.6918 L1730.98 27.2059 L1738.88 27.2059 L1718.95 76.7889 Z" fill="#000000" fill-rule="nonzero" fill-opacity="1" /><path clip-path="url(#clip460)" d="M1751.07 62.2867 L1759.62 62.2867 L1759.62 69.2543 L1752.97 82.2172 L1747.75 82.2172 L1751.07 69.2543 L1751.07 62.2867 Z" fill="#000000" fill-rule="nonzero" fill-opacity="1" /><path clip-path="url(#clip460)" d="M1837.23 35.9153 Q1840.03 30.8922 1843.92 28.5022 Q1847.81 26.1121 1853.07 26.1121 Q1860.16 26.1121 1864.01 31.0947 Q1867.86 36.0368 1867.86 45.1919 L1867.86 72.576 L1860.36 72.576 L1860.36 45.4349 Q1860.36 38.913 1858.05 35.7533 Q1855.75 32.5936 1851.01 32.5936 Q1845.21 32.5936 1841.85 36.4419 Q1838.49 40.2903 1838.49 46.9338 L1838.49 72.576 L1830.99 72.576 L1830.99 45.4349 Q1830.99 38.8725 1828.69 35.7533 Q1826.38 32.5936 1821.56 32.5936 Q1815.84 32.5936 1812.48 36.4824 Q1809.12 40.3308 1809.12 46.9338 L1809.12 72.576 L1801.63 72.576 L1801.63 27.2059 L1809.12 27.2059 L1809.12 34.2544 Q1811.67 30.082 1815.24 28.0971 Q1818.8 26.1121 1823.7 26.1121 Q1828.65 26.1121 1832.09 28.6237 Q1835.57 31.1352 1837.23 35.9153 Z" fill="#000000" fill-rule="nonzero" fill-opacity="1" /><path clip-path="url(#clip460)" d="M1910.07 34.9026 L1962 34.9026 L1962 41.7081 L1910.07 41.7081 L1910.07 34.9026 M1910.07 51.4303 L1962 51.4303 L1962 58.3168 L1910.07 58.3168 L1910.07 51.4303 Z" fill="#000000" fill-rule="nonzero" fill-opacity="1" /><path clip-path="url(#clip460)" d="M2023.53 17.4837 Q2017.22 17.4837 2014.01 23.7221 Q2010.86 29.92 2010.86 42.3968 Q2010.86 54.833 2014.01 61.0714 Q2017.22 67.2693 2023.53 67.2693 Q2029.89 67.2693 2033.05 61.0714 Q2036.25 54.833 2036.25 42.3968 Q2036.25 29.92 2033.05 23.7221 Q2029.89 17.4837 2023.53 17.4837 M2023.53 11.0023 Q2033.7 11.0023 2039.05 19.0636 Q2044.44 27.0843 2044.44 42.3968 Q2044.44 57.6687 2039.05 65.73 Q2033.7 73.7508 2023.53 73.7508 Q2013.37 73.7508 2007.98 65.73 Q2002.63 57.6687 2002.63 42.3968 Q2002.63 27.0843 2007.98 19.0636 Q2013.37 11.0023 2023.53 11.0023 Z" fill="#000000" fill-rule="nonzero" fill-opacity="1" /><path clip-path="url(#clip460)" d="M2058.82 62.2867 L2067.37 62.2867 L2067.37 72.576 L2058.82 72.576 L2058.82 62.2867 Z" fill="#000000" fill-rule="nonzero" fill-opacity="1" /><path clip-path="url(#clip460)" d="M2085.43 71.3202 L2085.43 63.8666 Q2088.51 65.3249 2091.67 66.0946 Q2094.83 66.8642 2097.87 66.8642 Q2105.97 66.8642 2110.22 61.436 Q2114.52 55.9673 2115.13 44.8678 Q2112.78 48.3516 2109.17 50.215 Q2105.57 52.0784 2101.19 52.0784 Q2092.12 52.0784 2086.81 46.6097 Q2081.54 41.1005 2081.54 31.5808 Q2081.54 22.2638 2087.05 16.633 Q2092.56 11.0023 2101.72 11.0023 Q2112.21 11.0023 2117.72 19.0636 Q2123.27 27.0843 2123.27 42.3968 Q2123.27 56.6965 2116.46 65.2439 Q2109.7 73.7508 2098.23 73.7508 Q2095.15 73.7508 2091.99 73.1431 Q2088.83 72.5355 2085.43 71.3202 M2101.72 45.678 Q2107.23 45.678 2110.43 41.9107 Q2113.67 38.1433 2113.67 31.5808 Q2113.67 25.0589 2110.43 21.2916 Q2107.23 17.4837 2101.72 17.4837 Q2096.21 17.4837 2092.97 21.2916 Q2089.77 25.0589 2089.77 31.5808 Q2089.77 38.1433 2092.97 41.9107 Q2096.21 45.678 2101.72 45.678 Z" fill="#000000" fill-rule="nonzero" fill-opacity="1" /><path clip-path="url(#clip460)" d="M2139.39 65.6895 L2152.76 65.6895 L2152.76 19.5497 L2138.22 22.4663 L2138.22 15.0127 L2152.68 12.096 L2160.86 12.096 L2160.86 65.6895 L2174.23 65.6895 L2174.23 72.576 L2139.39 72.576 L2139.39 65.6895 Z" fill="#000000" fill-rule="nonzero" fill-opacity="1" /><path clip-path="url(#clip460)" d="M2190.84 12.096 L2222.96 12.096 L2222.96 18.9825 L2198.33 18.9825 L2198.33 33.8088 Q2200.11 33.2012 2201.9 32.9176 Q2203.68 32.5936 2205.46 32.5936 Q2215.59 32.5936 2221.5 38.1433 Q2227.42 43.6931 2227.42 53.1722 Q2227.42 62.9348 2221.34 68.3631 Q2215.26 73.7508 2204.2 73.7508 Q2200.4 73.7508 2196.43 73.1026 Q2192.5 72.4545 2188.28 71.1582 L2188.28 62.9348 Q2191.93 64.9198 2195.82 65.892 Q2199.71 66.8642 2204.04 66.8642 Q2211.05 66.8642 2215.14 63.1779 Q2219.23 59.4916 2219.23 53.1722 Q2219.23 46.8528 2215.14 43.1664 Q2211.05 39.4801 2204.04 39.4801 Q2200.76 39.4801 2197.48 40.2093 Q2194.24 40.9384 2190.84 42.4778 L2190.84 12.096 Z" fill="#000000" fill-rule="nonzero" fill-opacity="1" /><path clip-path="url(#clip460)" d="M2243.62 12.096 L2275.74 12.096 L2275.74 18.9825 L2251.11 18.9825 L2251.11 33.8088 Q2252.9 33.2012 2254.68 32.9176 Q2256.46 32.5936 2258.24 32.5936 Q2268.37 32.5936 2274.29 38.1433 Q2280.2 43.6931 2280.2 53.1722 Q2280.2 62.9348 2274.12 68.3631 Q2268.05 73.7508 2256.99 73.7508 Q2253.18 73.7508 2249.21 73.1026 Q2245.28 72.4545 2241.07 71.1582 L2241.07 62.9348 Q2244.71 64.9198 2248.6 65.892 Q2252.49 66.8642 2256.83 66.8642 Q2263.83 66.8642 2267.93 63.1779 Q2272.02 59.4916 2272.02 53.1722 Q2272.02 46.8528 2267.93 43.1664 Q2263.83 39.4801 2256.83 39.4801 Q2253.54 39.4801 2250.26 40.2093 Q2247.02 40.9384 2243.62 42.4778 L2243.62 12.096 Z" fill="#000000" fill-rule="nonzero" fill-opacity="1" /><polyline clip-path="url(#clip462)" style="stroke:#0000ff; stroke-linecap:round; stroke-linejoin:round; stroke-width:8; stroke-opacity:1; fill:none" points="316.876,1363.16 688.28,1171.14 1059.68,950.51 1431.09,735.522 1648.34,594.21 1802.49,483.558 1922.06,401.933 2019.75,319.873 2102.34,274.119 2173.89,246.424 2237,203.905 2293.46,162.048 "/>
<polyline clip-path="url(#clip462)" style="stroke:#000000; stroke-linecap:round; stroke-linejoin:round; stroke-width:4; stroke-opacity:1; fill:none" points="316.876,1374.46 316.876,1352.21 "/>
<polyline clip-path="url(#clip462)" style="stroke:#000000; stroke-linecap:round; stroke-linejoin:round; stroke-width:4; stroke-opacity:1; fill:none" points="688.28,1207.13 688.28,1138.41 "/>
<polyline clip-path="url(#clip462)" style="stroke:#000000; stroke-linecap:round; stroke-linejoin:round; stroke-width:4; stroke-opacity:1; fill:none" points="1059.68,970.939 1059.68,931.172 "/>
<polyline clip-path="url(#clip462)" style="stroke:#000000; stroke-linecap:round; stroke-linejoin:round; stroke-width:4; stroke-opacity:1; fill:none" points="1431.09,749.661 1431.09,721.915 "/>
<polyline clip-path="url(#clip462)" style="stroke:#000000; stroke-linecap:round; stroke-linejoin:round; stroke-width:4; stroke-opacity:1; fill:none" points="1648.34,609.774 1648.34,579.287 "/>
<polyline clip-path="url(#clip462)" style="stroke:#000000; stroke-linecap:round; stroke-linejoin:round; stroke-width:4; stroke-opacity:1; fill:none" points="1802.49,504.278 1802.49,463.96 "/>
<polyline clip-path="url(#clip462)" style="stroke:#000000; stroke-linecap:round; stroke-linejoin:round; stroke-width:4; stroke-opacity:1; fill:none" points="1922.06,409.472 1922.06,394.547 "/>
<polyline clip-path="url(#clip462)" style="stroke:#000000; stroke-linecap:round; stroke-linejoin:round; stroke-width:4; stroke-opacity:1; fill:none" points="2019.75,332.778 2019.75,307.411 "/>
<polyline clip-path="url(#clip462)" style="stroke:#000000; stroke-linecap:round; stroke-linejoin:round; stroke-width:4; stroke-opacity:1; fill:none" points="2102.34,289.73 2102.34,259.153 "/>
<polyline clip-path="url(#clip462)" style="stroke:#000000; stroke-linecap:round; stroke-linejoin:round; stroke-width:4; stroke-opacity:1; fill:none" points="2173.89,249.341 2173.89,243.531 "/>
<polyline clip-path="url(#clip462)" style="stroke:#000000; stroke-linecap:round; stroke-linejoin:round; stroke-width:4; stroke-opacity:1; fill:none" points="2237,205.042 2237,202.772 "/>
<polyline clip-path="url(#clip462)" style="stroke:#000000; stroke-linecap:round; stroke-linejoin:round; stroke-width:4; stroke-opacity:1; fill:none" points="2293.46,164.2 2293.46,159.909 "/>
<line clip-path="url(#clip462)" x1="332.876" y1="1374.46" x2="300.876" y2="1374.46" style="stroke:#000000; stroke-width:4; stroke-opacity:1"/>
<line clip-path="url(#clip462)" x1="332.876" y1="1352.21" x2="300.876" y2="1352.21" style="stroke:#000000; stroke-width:4; stroke-opacity:1"/>
<line clip-path="url(#clip462)" x1="704.28" y1="1207.13" x2="672.28" y2="1207.13" style="stroke:#000000; stroke-width:4; stroke-opacity:1"/>
<line clip-path="url(#clip462)" x1="704.28" y1="1138.41" x2="672.28" y2="1138.41" style="stroke:#000000; stroke-width:4; stroke-opacity:1"/>
<line clip-path="url(#clip462)" x1="1075.68" y1="970.939" x2="1043.68" y2="970.939" style="stroke:#000000; stroke-width:4; stroke-opacity:1"/>
<line clip-path="url(#clip462)" x1="1075.68" y1="931.172" x2="1043.68" y2="931.172" style="stroke:#000000; stroke-width:4; stroke-opacity:1"/>
<line clip-path="url(#clip462)" x1="1447.09" y1="749.661" x2="1415.09" y2="749.661" style="stroke:#000000; stroke-width:4; stroke-opacity:1"/>
<line clip-path="url(#clip462)" x1="1447.09" y1="721.915" x2="1415.09" y2="721.915" style="stroke:#000000; stroke-width:4; stroke-opacity:1"/>
<line clip-path="url(#clip462)" x1="1664.34" y1="609.774" x2="1632.34" y2="609.774" style="stroke:#000000; stroke-width:4; stroke-opacity:1"/>
<line clip-path="url(#clip462)" x1="1664.34" y1="579.287" x2="1632.34" y2="579.287" style="stroke:#000000; stroke-width:4; stroke-opacity:1"/>
<line clip-path="url(#clip462)" x1="1818.49" y1="504.278" x2="1786.49" y2="504.278" style="stroke:#000000; stroke-width:4; stroke-opacity:1"/>
<line clip-path="url(#clip462)" x1="1818.49" y1="463.96" x2="1786.49" y2="463.96" style="stroke:#000000; stroke-width:4; stroke-opacity:1"/>
<line clip-path="url(#clip462)" x1="1938.06" y1="409.472" x2="1906.06" y2="409.472" style="stroke:#000000; stroke-width:4; stroke-opacity:1"/>
<line clip-path="url(#clip462)" x1="1938.06" y1="394.547" x2="1906.06" y2="394.547" style="stroke:#000000; stroke-width:4; stroke-opacity:1"/>
<line clip-path="url(#clip462)" x1="2035.75" y1="332.778" x2="2003.75" y2="332.778" style="stroke:#000000; stroke-width:4; stroke-opacity:1"/>
<line clip-path="url(#clip462)" x1="2035.75" y1="307.411" x2="2003.75" y2="307.411" style="stroke:#000000; stroke-width:4; stroke-opacity:1"/>
<line clip-path="url(#clip462)" x1="2118.34" y1="289.73" x2="2086.34" y2="289.73" style="stroke:#000000; stroke-width:4; stroke-opacity:1"/>
<line clip-path="url(#clip462)" x1="2118.34" y1="259.153" x2="2086.34" y2="259.153" style="stroke:#000000; stroke-width:4; stroke-opacity:1"/>
<line clip-path="url(#clip462)" x1="2189.89" y1="249.341" x2="2157.89" y2="249.341" style="stroke:#000000; stroke-width:4; stroke-opacity:1"/>
<line clip-path="url(#clip462)" x1="2189.89" y1="243.531" x2="2157.89" y2="243.531" style="stroke:#000000; stroke-width:4; stroke-opacity:1"/>
<line clip-path="url(#clip462)" x1="2253" y1="205.042" x2="2221" y2="205.042" style="stroke:#000000; stroke-width:4; stroke-opacity:1"/>
<line clip-path="url(#clip462)" x1="2253" y1="202.772" x2="2221" y2="202.772" style="stroke:#000000; stroke-width:4; stroke-opacity:1"/>
<line clip-path="url(#clip462)" x1="2309.46" y1="164.2" x2="2277.46" y2="164.2" style="stroke:#000000; stroke-width:4; stroke-opacity:1"/>
<line clip-path="url(#clip462)" x1="2309.46" y1="159.909" x2="2277.46" y2="159.909" style="stroke:#000000; stroke-width:4; stroke-opacity:1"/>
<circle clip-path="url(#clip462)" cx="316.876" cy="1363.16" r="14.4" fill="#0000ff" fill-rule="evenodd" fill-opacity="1" stroke="#000000" stroke-opacity="1" stroke-width="3.2"/>
<circle clip-path="url(#clip462)" cx="688.28" cy="1171.14" r="14.4" fill="#0000ff" fill-rule="evenodd" fill-opacity="1" stroke="#000000" stroke-opacity="1" stroke-width="3.2"/>
<circle clip-path="url(#clip462)" cx="1059.68" cy="950.51" r="14.4" fill="#0000ff" fill-rule="evenodd" fill-opacity="1" stroke="#000000" stroke-opacity="1" stroke-width="3.2"/>
<circle clip-path="url(#clip462)" cx="1431.09" cy="735.522" r="14.4" fill="#0000ff" fill-rule="evenodd" fill-opacity="1" stroke="#000000" stroke-opacity="1" stroke-width="3.2"/>
<circle clip-path="url(#clip462)" cx="1648.34" cy="594.21" r="14.4" fill="#0000ff" fill-rule="evenodd" fill-opacity="1" stroke="#000000" stroke-opacity="1" stroke-width="3.2"/>
<circle clip-path="url(#clip462)" cx="1802.49" cy="483.558" r="14.4" fill="#0000ff" fill-rule="evenodd" fill-opacity="1" stroke="#000000" stroke-opacity="1" stroke-width="3.2"/>
<circle clip-path="url(#clip462)" cx="1922.06" cy="401.933" r="14.4" fill="#0000ff" fill-rule="evenodd" fill-opacity="1" stroke="#000000" stroke-opacity="1" stroke-width="3.2"/>
<circle clip-path="url(#clip462)" cx="2019.75" cy="319.873" r="14.4" fill="#0000ff" fill-rule="evenodd" fill-opacity="1" stroke="#000000" stroke-opacity="1" stroke-width="3.2"/>
<circle clip-path="url(#clip462)" cx="2102.34" cy="274.119" r="14.4" fill="#0000ff" fill-rule="evenodd" fill-opacity="1" stroke="#000000" stroke-opacity="1" stroke-width="3.2"/>
<circle clip-path="url(#clip462)" cx="2173.89" cy="246.424" r="14.4" fill="#0000ff" fill-rule="evenodd" fill-opacity="1" stroke="#000000" stroke-opacity="1" stroke-width="3.2"/>
<circle clip-path="url(#clip462)" cx="2237" cy="203.905" r="14.4" fill="#0000ff" fill-rule="evenodd" fill-opacity="1" stroke="#000000" stroke-opacity="1" stroke-width="3.2"/>
<circle clip-path="url(#clip462)" cx="2293.46" cy="162.048" r="14.4" fill="#0000ff" fill-rule="evenodd" fill-opacity="1" stroke="#000000" stroke-opacity="1" stroke-width="3.2"/>
<polyline clip-path="url(#clip462)" style="stroke:#000000; stroke-linecap:round; stroke-linejoin:round; stroke-width:4; stroke-opacity:1; fill:none" points="316.876,1374.46 316.876,1352.21 "/>
<polyline clip-path="url(#clip462)" style="stroke:#000000; stroke-linecap:round; stroke-linejoin:round; stroke-width:4; stroke-opacity:1; fill:none" points="688.28,1207.13 688.28,1138.41 "/>
<polyline clip-path="url(#clip462)" style="stroke:#000000; stroke-linecap:round; stroke-linejoin:round; stroke-width:4; stroke-opacity:1; fill:none" points="1059.68,970.939 1059.68,931.172 "/>
<polyline clip-path="url(#clip462)" style="stroke:#000000; stroke-linecap:round; stroke-linejoin:round; stroke-width:4; stroke-opacity:1; fill:none" points="1431.09,749.661 1431.09,721.915 "/>
<polyline clip-path="url(#clip462)" style="stroke:#000000; stroke-linecap:round; stroke-linejoin:round; stroke-width:4; stroke-opacity:1; fill:none" points="1648.34,609.774 1648.34,579.287 "/>
<polyline clip-path="url(#clip462)" style="stroke:#000000; stroke-linecap:round; stroke-linejoin:round; stroke-width:4; stroke-opacity:1; fill:none" points="1802.49,504.278 1802.49,463.96 "/>
<polyline clip-path="url(#clip462)" style="stroke:#000000; stroke-linecap:round; stroke-linejoin:round; stroke-width:4; stroke-opacity:1; fill:none" points="1922.06,409.472 1922.06,394.547 "/>
<polyline clip-path="url(#clip462)" style="stroke:#000000; stroke-linecap:round; stroke-linejoin:round; stroke-width:4; stroke-opacity:1; fill:none" points="2019.75,332.778 2019.75,307.411 "/>
<polyline clip-path="url(#clip462)" style="stroke:#000000; stroke-linecap:round; stroke-linejoin:round; stroke-width:4; stroke-opacity:1; fill:none" points="2102.34,289.73 2102.34,259.153 "/>
<polyline clip-path="url(#clip462)" style="stroke:#000000; stroke-linecap:round; stroke-linejoin:round; stroke-width:4; stroke-opacity:1; fill:none" points="2173.89,249.341 2173.89,243.531 "/>
<polyline clip-path="url(#clip462)" style="stroke:#000000; stroke-linecap:round; stroke-linejoin:round; stroke-width:4; stroke-opacity:1; fill:none" points="2237,205.042 2237,202.772 "/>
<polyline clip-path="url(#clip462)" style="stroke:#000000; stroke-linecap:round; stroke-linejoin:round; stroke-width:4; stroke-opacity:1; fill:none" points="2293.46,164.2 2293.46,159.909 "/>
<line clip-path="url(#clip462)" x1="332.876" y1="1374.46" x2="300.876" y2="1374.46" style="stroke:#000000; stroke-width:4; stroke-opacity:1"/>
<line clip-path="url(#clip462)" x1="332.876" y1="1352.21" x2="300.876" y2="1352.21" style="stroke:#000000; stroke-width:4; stroke-opacity:1"/>
<line clip-path="url(#clip462)" x1="704.28" y1="1207.13" x2="672.28" y2="1207.13" style="stroke:#000000; stroke-width:4; stroke-opacity:1"/>
<line clip-path="url(#clip462)" x1="704.28" y1="1138.41" x2="672.28" y2="1138.41" style="stroke:#000000; stroke-width:4; stroke-opacity:1"/>
<line clip-path="url(#clip462)" x1="1075.68" y1="970.939" x2="1043.68" y2="970.939" style="stroke:#000000; stroke-width:4; stroke-opacity:1"/>
<line clip-path="url(#clip462)" x1="1075.68" y1="931.172" x2="1043.68" y2="931.172" style="stroke:#000000; stroke-width:4; stroke-opacity:1"/>
<line clip-path="url(#clip462)" x1="1447.09" y1="749.661" x2="1415.09" y2="749.661" style="stroke:#000000; stroke-width:4; stroke-opacity:1"/>
<line clip-path="url(#clip462)" x1="1447.09" y1="721.915" x2="1415.09" y2="721.915" style="stroke:#000000; stroke-width:4; stroke-opacity:1"/>
<line clip-path="url(#clip462)" x1="1664.34" y1="609.774" x2="1632.34" y2="609.774" style="stroke:#000000; stroke-width:4; stroke-opacity:1"/>
<line clip-path="url(#clip462)" x1="1664.34" y1="579.287" x2="1632.34" y2="579.287" style="stroke:#000000; stroke-width:4; stroke-opacity:1"/>
<line clip-path="url(#clip462)" x1="1818.49" y1="504.278" x2="1786.49" y2="504.278" style="stroke:#000000; stroke-width:4; stroke-opacity:1"/>
<line clip-path="url(#clip462)" x1="1818.49" y1="463.96" x2="1786.49" y2="463.96" style="stroke:#000000; stroke-width:4; stroke-opacity:1"/>
<line clip-path="url(#clip462)" x1="1938.06" y1="409.472" x2="1906.06" y2="409.472" style="stroke:#000000; stroke-width:4; stroke-opacity:1"/>
<line clip-path="url(#clip462)" x1="1938.06" y1="394.547" x2="1906.06" y2="394.547" style="stroke:#000000; stroke-width:4; stroke-opacity:1"/>
<line clip-path="url(#clip462)" x1="2035.75" y1="332.778" x2="2003.75" y2="332.778" style="stroke:#000000; stroke-width:4; stroke-opacity:1"/>
<line clip-path="url(#clip462)" x1="2035.75" y1="307.411" x2="2003.75" y2="307.411" style="stroke:#000000; stroke-width:4; stroke-opacity:1"/>
<line clip-path="url(#clip462)" x1="2118.34" y1="289.73" x2="2086.34" y2="289.73" style="stroke:#000000; stroke-width:4; stroke-opacity:1"/>
<line clip-path="url(#clip462)" x1="2118.34" y1="259.153" x2="2086.34" y2="259.153" style="stroke:#000000; stroke-width:4; stroke-opacity:1"/>
<line clip-path="url(#clip462)" x1="2189.89" y1="249.341" x2="2157.89" y2="249.341" style="stroke:#000000; stroke-width:4; stroke-opacity:1"/>
<line clip-path="url(#clip462)" x1="2189.89" y1="243.531" x2="2157.89" y2="243.531" style="stroke:#000000; stroke-width:4; stroke-opacity:1"/>
<line clip-path="url(#clip462)" x1="2253" y1="205.042" x2="2221" y2="205.042" style="stroke:#000000; stroke-width:4; stroke-opacity:1"/>
<line clip-path="url(#clip462)" x1="2253" y1="202.772" x2="2221" y2="202.772" style="stroke:#000000; stroke-width:4; stroke-opacity:1"/>
<line clip-path="url(#clip462)" x1="2309.46" y1="164.2" x2="2277.46" y2="164.2" style="stroke:#000000; stroke-width:4; stroke-opacity:1"/>
<line clip-path="url(#clip462)" x1="2309.46" y1="159.909" x2="2277.46" y2="159.909" style="stroke:#000000; stroke-width:4; stroke-opacity:1"/>
<circle clip-path="url(#clip462)" cx="316.876" cy="1363.16" r="14.4" fill="#0000ff" fill-rule="evenodd" fill-opacity="1" stroke="#000000" stroke-opacity="1" stroke-width="3.2"/>
<circle clip-path="url(#clip462)" cx="688.28" cy="1171.14" r="14.4" fill="#0000ff" fill-rule="evenodd" fill-opacity="1" stroke="#000000" stroke-opacity="1" stroke-width="3.2"/>
<circle clip-path="url(#clip462)" cx="1059.68" cy="950.51" r="14.4" fill="#0000ff" fill-rule="evenodd" fill-opacity="1" stroke="#000000" stroke-opacity="1" stroke-width="3.2"/>
<circle clip-path="url(#clip462)" cx="1431.09" cy="735.522" r="14.4" fill="#0000ff" fill-rule="evenodd" fill-opacity="1" stroke="#000000" stroke-opacity="1" stroke-width="3.2"/>
<circle clip-path="url(#clip462)" cx="1648.34" cy="594.21" r="14.4" fill="#0000ff" fill-rule="evenodd" fill-opacity="1" stroke="#000000" stroke-opacity="1" stroke-width="3.2"/>
<circle clip-path="url(#clip462)" cx="1802.49" cy="483.558" r="14.4" fill="#0000ff" fill-rule="evenodd" fill-opacity="1" stroke="#000000" stroke-opacity="1" stroke-width="3.2"/>
<circle clip-path="url(#clip462)" cx="1922.06" cy="401.933" r="14.4" fill="#0000ff" fill-rule="evenodd" fill-opacity="1" stroke="#000000" stroke-opacity="1" stroke-width="3.2"/>
<circle clip-path="url(#clip462)" cx="2019.75" cy="319.873" r="14.4" fill="#0000ff" fill-rule="evenodd" fill-opacity="1" stroke="#000000" stroke-opacity="1" stroke-width="3.2"/>
<circle clip-path="url(#clip462)" cx="2102.34" cy="274.119" r="14.4" fill="#0000ff" fill-rule="evenodd" fill-opacity="1" stroke="#000000" stroke-opacity="1" stroke-width="3.2"/>
<circle clip-path="url(#clip462)" cx="2173.89" cy="246.424" r="14.4" fill="#0000ff" fill-rule="evenodd" fill-opacity="1" stroke="#000000" stroke-opacity="1" stroke-width="3.2"/>
<circle clip-path="url(#clip462)" cx="2237" cy="203.905" r="14.4" fill="#0000ff" fill-rule="evenodd" fill-opacity="1" stroke="#000000" stroke-opacity="1" stroke-width="3.2"/>
<circle clip-path="url(#clip462)" cx="2293.46" cy="162.048" r="14.4" fill="#0000ff" fill-rule="evenodd" fill-opacity="1" stroke="#000000" stroke-opacity="1" stroke-width="3.2"/>
<polyline clip-path="url(#clip462)" style="stroke:#000000; stroke-linecap:round; stroke-linejoin:round; stroke-width:4; stroke-opacity:1; fill:none" points="316.876,1374.46 316.876,1352.21 "/>
<polyline clip-path="url(#clip462)" style="stroke:#000000; stroke-linecap:round; stroke-linejoin:round; stroke-width:4; stroke-opacity:1; fill:none" points="688.28,1207.13 688.28,1138.41 "/>
<polyline clip-path="url(#clip462)" style="stroke:#000000; stroke-linecap:round; stroke-linejoin:round; stroke-width:4; stroke-opacity:1; fill:none" points="1059.68,970.939 1059.68,931.172 "/>
<polyline clip-path="url(#clip462)" style="stroke:#000000; stroke-linecap:round; stroke-linejoin:round; stroke-width:4; stroke-opacity:1; fill:none" points="1431.09,749.661 1431.09,721.915 "/>
<polyline clip-path="url(#clip462)" style="stroke:#000000; stroke-linecap:round; stroke-linejoin:round; stroke-width:4; stroke-opacity:1; fill:none" points="1648.34,609.774 1648.34,579.287 "/>
<polyline clip-path="url(#clip462)" style="stroke:#000000; stroke-linecap:round; stroke-linejoin:round; stroke-width:4; stroke-opacity:1; fill:none" points="1802.49,504.278 1802.49,463.96 "/>
<polyline clip-path="url(#clip462)" style="stroke:#000000; stroke-linecap:round; stroke-linejoin:round; stroke-width:4; stroke-opacity:1; fill:none" points="1922.06,409.472 1922.06,394.547 "/>
<polyline clip-path="url(#clip462)" style="stroke:#000000; stroke-linecap:round; stroke-linejoin:round; stroke-width:4; stroke-opacity:1; fill:none" points="2019.75,332.778 2019.75,307.411 "/>
<polyline clip-path="url(#clip462)" style="stroke:#000000; stroke-linecap:round; stroke-linejoin:round; stroke-width:4; stroke-opacity:1; fill:none" points="2102.34,289.73 2102.34,259.153 "/>
<polyline clip-path="url(#clip462)" style="stroke:#000000; stroke-linecap:round; stroke-linejoin:round; stroke-width:4; stroke-opacity:1; fill:none" points="2173.89,249.341 2173.89,243.531 "/>
<polyline clip-path="url(#clip462)" style="stroke:#000000; stroke-linecap:round; stroke-linejoin:round; stroke-width:4; stroke-opacity:1; fill:none" points="2237,205.042 2237,202.772 "/>
<polyline clip-path="url(#clip462)" style="stroke:#000000; stroke-linecap:round; stroke-linejoin:round; stroke-width:4; stroke-opacity:1; fill:none" points="2293.46,164.2 2293.46,159.909 "/>
<line clip-path="url(#clip462)" x1="332.876" y1="1374.46" x2="300.876" y2="1374.46" style="stroke:#000000; stroke-width:4; stroke-opacity:1"/>
<line clip-path="url(#clip462)" x1="332.876" y1="1352.21" x2="300.876" y2="1352.21" style="stroke:#000000; stroke-width:4; stroke-opacity:1"/>
<line clip-path="url(#clip462)" x1="704.28" y1="1207.13" x2="672.28" y2="1207.13" style="stroke:#000000; stroke-width:4; stroke-opacity:1"/>
<line clip-path="url(#clip462)" x1="704.28" y1="1138.41" x2="672.28" y2="1138.41" style="stroke:#000000; stroke-width:4; stroke-opacity:1"/>
<line clip-path="url(#clip462)" x1="1075.68" y1="970.939" x2="1043.68" y2="970.939" style="stroke:#000000; stroke-width:4; stroke-opacity:1"/>
<line clip-path="url(#clip462)" x1="1075.68" y1="931.172" x2="1043.68" y2="931.172" style="stroke:#000000; stroke-width:4; stroke-opacity:1"/>
<line clip-path="url(#clip462)" x1="1447.09" y1="749.661" x2="1415.09" y2="749.661" style="stroke:#000000; stroke-width:4; stroke-opacity:1"/>
<line clip-path="url(#clip462)" x1="1447.09" y1="721.915" x2="1415.09" y2="721.915" style="stroke:#000000; stroke-width:4; stroke-opacity:1"/>
<line clip-path="url(#clip462)" x1="1664.34" y1="609.774" x2="1632.34" y2="609.774" style="stroke:#000000; stroke-width:4; stroke-opacity:1"/>
<line clip-path="url(#clip462)" x1="1664.34" y1="579.287" x2="1632.34" y2="579.287" style="stroke:#000000; stroke-width:4; stroke-opacity:1"/>
<line clip-path="url(#clip462)" x1="1818.49" y1="504.278" x2="1786.49" y2="504.278" style="stroke:#000000; stroke-width:4; stroke-opacity:1"/>
<line clip-path="url(#clip462)" x1="1818.49" y1="463.96" x2="1786.49" y2="463.96" style="stroke:#000000; stroke-width:4; stroke-opacity:1"/>
<line clip-path="url(#clip462)" x1="1938.06" y1="409.472" x2="1906.06" y2="409.472" style="stroke:#000000; stroke-width:4; stroke-opacity:1"/>
<line clip-path="url(#clip462)" x1="1938.06" y1="394.547" x2="1906.06" y2="394.547" style="stroke:#000000; stroke-width:4; stroke-opacity:1"/>
<line clip-path="url(#clip462)" x1="2035.75" y1="332.778" x2="2003.75" y2="332.778" style="stroke:#000000; stroke-width:4; stroke-opacity:1"/>
<line clip-path="url(#clip462)" x1="2035.75" y1="307.411" x2="2003.75" y2="307.411" style="stroke:#000000; stroke-width:4; stroke-opacity:1"/>
<line clip-path="url(#clip462)" x1="2118.34" y1="289.73" x2="2086.34" y2="289.73" style="stroke:#000000; stroke-width:4; stroke-opacity:1"/>
<line clip-path="url(#clip462)" x1="2118.34" y1="259.153" x2="2086.34" y2="259.153" style="stroke:#000000; stroke-width:4; stroke-opacity:1"/>
<line clip-path="url(#clip462)" x1="2189.89" y1="249.341" x2="2157.89" y2="249.341" style="stroke:#000000; stroke-width:4; stroke-opacity:1"/>
<line clip-path="url(#clip462)" x1="2189.89" y1="243.531" x2="2157.89" y2="243.531" style="stroke:#000000; stroke-width:4; stroke-opacity:1"/>
<line clip-path="url(#clip462)" x1="2253" y1="205.042" x2="2221" y2="205.042" style="stroke:#000000; stroke-width:4; stroke-opacity:1"/>
<line clip-path="url(#clip462)" x1="2253" y1="202.772" x2="2221" y2="202.772" style="stroke:#000000; stroke-width:4; stroke-opacity:1"/>
<line clip-path="url(#clip462)" x1="2309.46" y1="164.2" x2="2277.46" y2="164.2" style="stroke:#000000; stroke-width:4; stroke-opacity:1"/>
<line clip-path="url(#clip462)" x1="2309.46" y1="159.909" x2="2277.46" y2="159.909" style="stroke:#000000; stroke-width:4; stroke-opacity:1"/>
<circle clip-path="url(#clip462)" cx="316.876" cy="1363.16" r="14.4" fill="#0000ff" fill-rule="evenodd" fill-opacity="1" stroke="#000000" stroke-opacity="1" stroke-width="3.2"/>
<circle clip-path="url(#clip462)" cx="688.28" cy="1171.14" r="14.4" fill="#0000ff" fill-rule="evenodd" fill-opacity="1" stroke="#000000" stroke-opacity="1" stroke-width="3.2"/>
<circle clip-path="url(#clip462)" cx="1059.68" cy="950.51" r="14.4" fill="#0000ff" fill-rule="evenodd" fill-opacity="1" stroke="#000000" stroke-opacity="1" stroke-width="3.2"/>
<circle clip-path="url(#clip462)" cx="1431.09" cy="735.522" r="14.4" fill="#0000ff" fill-rule="evenodd" fill-opacity="1" stroke="#000000" stroke-opacity="1" stroke-width="3.2"/>
<circle clip-path="url(#clip462)" cx="1648.34" cy="594.21" r="14.4" fill="#0000ff" fill-rule="evenodd" fill-opacity="1" stroke="#000000" stroke-opacity="1" stroke-width="3.2"/>
<circle clip-path="url(#clip462)" cx="1802.49" cy="483.558" r="14.4" fill="#0000ff" fill-rule="evenodd" fill-opacity="1" stroke="#000000" stroke-opacity="1" stroke-width="3.2"/>
<circle clip-path="url(#clip462)" cx="1922.06" cy="401.933" r="14.4" fill="#0000ff" fill-rule="evenodd" fill-opacity="1" stroke="#000000" stroke-opacity="1" stroke-width="3.2"/>
<circle clip-path="url(#clip462)" cx="2019.75" cy="319.873" r="14.4" fill="#0000ff" fill-rule="evenodd" fill-opacity="1" stroke="#000000" stroke-opacity="1" stroke-width="3.2"/>
<circle clip-path="url(#clip462)" cx="2102.34" cy="274.119" r="14.4" fill="#0000ff" fill-rule="evenodd" fill-opacity="1" stroke="#000000" stroke-opacity="1" stroke-width="3.2"/>
<circle clip-path="url(#clip462)" cx="2173.89" cy="246.424" r="14.4" fill="#0000ff" fill-rule="evenodd" fill-opacity="1" stroke="#000000" stroke-opacity="1" stroke-width="3.2"/>
<circle clip-path="url(#clip462)" cx="2237" cy="203.905" r="14.4" fill="#0000ff" fill-rule="evenodd" fill-opacity="1" stroke="#000000" stroke-opacity="1" stroke-width="3.2"/>
<circle clip-path="url(#clip462)" cx="2293.46" cy="162.048" r="14.4" fill="#0000ff" fill-rule="evenodd" fill-opacity="1" stroke="#000000" stroke-opacity="1" stroke-width="3.2"/>
</svg>
