<?xml version="1.0" encoding="utf-8"?>
<svg xmlns="http://www.w3.org/2000/svg" xmlns:xlink="http://www.w3.org/1999/xlink" width="600" height="400" viewBox="0 0 2400 1600">
<defs>
  <clipPath id="clip580">
    <rect x="0" y="0" width="2400" height="1600"/>
  </clipPath>
</defs>
<path clip-path="url(#clip580)" d="M0 1600 L2400 1600 L2400 0 L0 0  Z" fill="#ffffff" fill-rule="evenodd" fill-opacity="1"/>
<defs>
  <clipPath id="clip581">
    <rect x="480" y="0" width="1681" height="1600"/>
  </clipPath>
</defs>
<path clip-path="url(#clip580)" d="M205.121 1423.18 L2352.76 1423.18 L2352.76 123.472 L205.121 123.472  Z" fill="#ffffff" fill-rule="evenodd" fill-opacity="1"/>
<defs>
  <clipPath id="clip582">
    <rect x="205" y="123" width="2149" height="1301"/>
  </clipPath>
</defs>
<polyline clip-path="url(#clip582)" style="stroke:#000000; stroke-linecap:round; stroke-linejoin:round; stroke-width:2; stroke-opacity:0.05; fill:none" points="317.854,1423.18 317.854,123.472 "/>
<polyline clip-path="url(#clip582)" style="stroke:#000000; stroke-linecap:round; stroke-linejoin:round; stroke-width:2; stroke-opacity:0.05; fill:none" points="421.755,1423.18 421.755,123.472 "/>
<polyline clip-path="url(#clip582)" style="stroke:#000000; stroke-linecap:round; stroke-linejoin:round; stroke-width:2; stroke-opacity:0.05; fill:none" points="525.656,1423.18 525.656,123.472 "/>
<polyline clip-path="url(#clip582)" style="stroke:#000000; stroke-linecap:round; stroke-linejoin:round; stroke-width:2; stroke-opacity:0.05; fill:none" points="629.557,1423.18 629.557,123.472 "/>
<polyline clip-path="url(#clip582)" style="stroke:#000000; stroke-linecap:round; stroke-linejoin:round; stroke-width:2; stroke-opacity:0.05; fill:none" points="837.359,1423.18 837.359,123.472 "/>
<polyline clip-path="url(#clip582)" style="stroke:#000000; stroke-linecap:round; stroke-linejoin:round; stroke-width:2; stroke-opacity:0.05; fill:none" points="941.26,1423.18 941.26,123.472 "/>
<polyline clip-path="url(#clip582)" style="stroke:#000000; stroke-linecap:round; stroke-linejoin:round; stroke-width:2; stroke-opacity:0.05; fill:none" points="1045.16,1423.18 1045.16,123.472 "/>
<polyline clip-path="url(#clip582)" style="stroke:#000000; stroke-linecap:round; stroke-linejoin:round; stroke-width:2; stroke-opacity:0.05; fill:none" points="1149.06,1423.18 1149.06,123.472 "/>
<polyline clip-path="url(#clip582)" style="stroke:#000000; stroke-linecap:round; stroke-linejoin:round; stroke-width:2; stroke-opacity:0.05; fill:none" points="1356.86,1423.18 1356.86,123.472 "/>
<polyline clip-path="url(#clip582)" style="stroke:#000000; stroke-linecap:round; stroke-linejoin:round; stroke-width:2; stroke-opacity:0.05; fill:none" points="1460.77,1423.18 1460.77,123.472 "/>
<polyline clip-path="url(#clip582)" style="stroke:#000000; stroke-linecap:round; stroke-linejoin:round; stroke-width:2; stroke-opacity:0.05; fill:none" points="1564.67,1423.18 1564.67,123.472 "/>
<polyline clip-path="url(#clip582)" style="stroke:#000000; stroke-linecap:round; stroke-linejoin:round; stroke-width:2; stroke-opacity:0.05; fill:none" points="1668.57,1423.18 1668.57,123.472 "/>
<polyline clip-path="url(#clip582)" style="stroke:#000000; stroke-linecap:round; stroke-linejoin:round; stroke-width:2; stroke-opacity:0.05; fill:none" points="1876.37,1423.18 1876.37,123.472 "/>
<polyline clip-path="url(#clip582)" style="stroke:#000000; stroke-linecap:round; stroke-linejoin:round; stroke-width:2; stroke-opacity:0.05; fill:none" points="1980.27,1423.18 1980.27,123.472 "/>
<polyline clip-path="url(#clip582)" style="stroke:#000000; stroke-linecap:round; stroke-linejoin:round; stroke-width:2; stroke-opacity:0.05; fill:none" points="2084.17,1423.18 2084.17,123.472 "/>
<polyline clip-path="url(#clip582)" style="stroke:#000000; stroke-linecap:round; stroke-linejoin:round; stroke-width:2; stroke-opacity:0.05; fill:none" points="2188.07,1423.18 2188.07,123.472 "/>
<polyline clip-path="url(#clip582)" style="stroke:#000000; stroke-linecap:round; stroke-linejoin:round; stroke-width:2; stroke-opacity:0.05; fill:none" points="205.121,1384.62 2352.76,1384.62 "/>
<polyline clip-path="url(#clip582)" style="stroke:#000000; stroke-linecap:round; stroke-linejoin:round; stroke-width:2; stroke-opacity:0.05; fill:none" points="205.121,1344.88 2352.76,1344.88 "/>
<polyline clip-path="url(#clip582)" style="stroke:#000000; stroke-linecap:round; stroke-linejoin:round; stroke-width:2; stroke-opacity:0.05; fill:none" points="205.121,1305.13 2352.76,1305.13 "/>
<polyline clip-path="url(#clip582)" style="stroke:#000000; stroke-linecap:round; stroke-linejoin:round; stroke-width:2; stroke-opacity:0.05; fill:none" points="205.121,1265.39 2352.76,1265.39 "/>
<polyline clip-path="url(#clip582)" style="stroke:#000000; stroke-linecap:round; stroke-linejoin:round; stroke-width:2; stroke-opacity:0.05; fill:none" points="205.121,1185.9 2352.76,1185.9 "/>
<polyline clip-path="url(#clip582)" style="stroke:#000000; stroke-linecap:round; stroke-linejoin:round; stroke-width:2; stroke-opacity:0.05; fill:none" points="205.121,1146.15 2352.76,1146.15 "/>
<polyline clip-path="url(#clip582)" style="stroke:#000000; stroke-linecap:round; stroke-linejoin:round; stroke-width:2; stroke-opacity:0.05; fill:none" points="205.121,1106.41 2352.76,1106.41 "/>
<polyline clip-path="url(#clip582)" style="stroke:#000000; stroke-linecap:round; stroke-linejoin:round; stroke-width:2; stroke-opacity:0.05; fill:none" points="205.121,1066.66 2352.76,1066.66 "/>
<polyline clip-path="url(#clip582)" style="stroke:#000000; stroke-linecap:round; stroke-linejoin:round; stroke-width:2; stroke-opacity:0.05; fill:none" points="205.121,987.171 2352.76,987.171 "/>
<polyline clip-path="url(#clip582)" style="stroke:#000000; stroke-linecap:round; stroke-linejoin:round; stroke-width:2; stroke-opacity:0.05; fill:none" points="205.121,947.426 2352.76,947.426 "/>
<polyline clip-path="url(#clip582)" style="stroke:#000000; stroke-linecap:round; stroke-linejoin:round; stroke-width:2; stroke-opacity:0.05; fill:none" points="205.121,907.681 2352.76,907.681 "/>
<polyline clip-path="url(#clip582)" style="stroke:#000000; stroke-linecap:round; stroke-linejoin:round; stroke-width:2; stroke-opacity:0.05; fill:none" points="205.121,867.935 2352.76,867.935 "/>
<polyline clip-path="url(#clip582)" style="stroke:#000000; stroke-linecap:round; stroke-linejoin:round; stroke-width:2; stroke-opacity:0.05; fill:none" points="205.121,788.445 2352.76,788.445 "/>
<polyline clip-path="url(#clip582)" style="stroke:#000000; stroke-linecap:round; stroke-linejoin:round; stroke-width:2; stroke-opacity:0.05; fill:none" points="205.121,748.7 2352.76,748.7 "/>
<polyline clip-path="url(#clip582)" style="stroke:#000000; stroke-linecap:round; stroke-linejoin:round; stroke-width:2; stroke-opacity:0.05; fill:none" points="205.121,708.955 2352.76,708.955 "/>
<polyline clip-path="url(#clip582)" style="stroke:#000000; stroke-linecap:round; stroke-linejoin:round; stroke-width:2; stroke-opacity:0.05; fill:none" points="205.121,669.21 2352.76,669.21 "/>
<polyline clip-path="url(#clip582)" style="stroke:#000000; stroke-linecap:round; stroke-linejoin:round; stroke-width:2; stroke-opacity:0.05; fill:none" points="205.121,589.719 2352.76,589.719 "/>
<polyline clip-path="url(#clip582)" style="stroke:#000000; stroke-linecap:round; stroke-linejoin:round; stroke-width:2; stroke-opacity:0.05; fill:none" points="205.121,549.974 2352.76,549.974 "/>
<polyline clip-path="url(#clip582)" style="stroke:#000000; stroke-linecap:round; stroke-linejoin:round; stroke-width:2; stroke-opacity:0.05; fill:none" points="205.121,510.229 2352.76,510.229 "/>
<polyline clip-path="url(#clip582)" style="stroke:#000000; stroke-linecap:round; stroke-linejoin:round; stroke-width:2; stroke-opacity:0.05; fill:none" points="205.121,470.484 2352.76,470.484 "/>
<polyline clip-path="url(#clip582)" style="stroke:#000000; stroke-linecap:round; stroke-linejoin:round; stroke-width:2; stroke-opacity:0.05; fill:none" points="205.121,390.993 2352.76,390.993 "/>
<polyline clip-path="url(#clip582)" style="stroke:#000000; stroke-linecap:round; stroke-linejoin:round; stroke-width:2; stroke-opacity:0.05; fill:none" points="205.121,351.248 2352.76,351.248 "/>
<polyline clip-path="url(#clip582)" style="stroke:#000000; stroke-linecap:round; stroke-linejoin:round; stroke-width:2; stroke-opacity:0.05; fill:none" points="205.121,311.503 2352.76,311.503 "/>
<polyline clip-path="url(#clip582)" style="stroke:#000000; stroke-linecap:round; stroke-linejoin:round; stroke-width:2; stroke-opacity:0.05; fill:none" points="205.121,271.758 2352.76,271.758 "/>
<polyline clip-path="url(#clip582)" style="stroke:#000000; stroke-linecap:round; stroke-linejoin:round; stroke-width:2; stroke-opacity:0.05; fill:none" points="205.121,192.268 2352.76,192.268 "/>
<polyline clip-path="url(#clip582)" style="stroke:#000000; stroke-linecap:round; stroke-linejoin:round; stroke-width:2; stroke-opacity:0.05; fill:none" points="205.121,152.522 2352.76,152.522 "/>
<polyline clip-path="url(#clip582)" style="stroke:#000000; stroke-linecap:round; stroke-linejoin:round; stroke-width:2; stroke-opacity:0.1; fill:none" points="213.953,1423.18 213.953,123.472 "/>
<polyline clip-path="url(#clip582)" style="stroke:#000000; stroke-linecap:round; stroke-linejoin:round; stroke-width:2; stroke-opacity:0.1; fill:none" points="733.458,1423.18 733.458,123.472 "/>
<polyline clip-path="url(#clip582)" style="stroke:#000000; stroke-linecap:round; stroke-linejoin:round; stroke-width:2; stroke-opacity:0.1; fill:none" points="1252.96,1423.18 1252.96,123.472 "/>
<polyline clip-path="url(#clip582)" style="stroke:#000000; stroke-linecap:round; stroke-linejoin:round; stroke-width:2; stroke-opacity:0.1; fill:none" points="1772.47,1423.18 1772.47,123.472 "/>
<polyline clip-path="url(#clip582)" style="stroke:#000000; stroke-linecap:round; stroke-linejoin:round; stroke-width:2; stroke-opacity:0.1; fill:none" points="2291.97,1423.18 2291.97,123.472 "/>
<polyline clip-path="url(#clip582)" style="stroke:#000000; stroke-linecap:round; stroke-linejoin:round; stroke-width:2; stroke-opacity:0.1; fill:none" points="205.121,1225.64 2352.76,1225.64 "/>
<polyline clip-path="url(#clip582)" style="stroke:#000000; stroke-linecap:round; stroke-linejoin:round; stroke-width:2; stroke-opacity:0.1; fill:none" points="205.121,1026.92 2352.76,1026.92 "/>
<polyline clip-path="url(#clip582)" style="stroke:#000000; stroke-linecap:round; stroke-linejoin:round; stroke-width:2; stroke-opacity:0.1; fill:none" points="205.121,828.19 2352.76,828.19 "/>
<polyline clip-path="url(#clip582)" style="stroke:#000000; stroke-linecap:round; stroke-linejoin:round; stroke-width:2; stroke-opacity:0.1; fill:none" points="205.121,629.464 2352.76,629.464 "/>
<polyline clip-path="url(#clip582)" style="stroke:#000000; stroke-linecap:round; stroke-linejoin:round; stroke-width:2; stroke-opacity:0.1; fill:none" points="205.121,430.739 2352.76,430.739 "/>
<polyline clip-path="url(#clip582)" style="stroke:#000000; stroke-linecap:round; stroke-linejoin:round; stroke-width:2; stroke-opacity:0.1; fill:none" points="205.121,232.013 2352.76,232.013 "/>
<polyline clip-path="url(#clip580)" style="stroke:#000000; stroke-linecap:round; stroke-linejoin:round; stroke-width:4; stroke-opacity:1; fill:none" points="205.121,1423.18 2352.76,1423.18 "/>
<polyline clip-path="url(#clip580)" style="stroke:#000000; stroke-linecap:round; stroke-linejoin:round; stroke-width:4; stroke-opacity:1; fill:none" points="213.953,1423.18 213.953,1404.28 "/>
<polyline clip-path="url(#clip580)" style="stroke:#000000; stroke-linecap:round; stroke-linejoin:round; stroke-width:4; stroke-opacity:1; fill:none" points="733.458,1423.18 733.458,1404.28 "/>
<polyline clip-path="url(#clip580)" style="stroke:#000000; stroke-linecap:round; stroke-linejoin:round; stroke-width:4; stroke-opacity:1; fill:none" points="1252.96,1423.18 1252.96,1404.28 "/>
<polyline clip-path="url(#clip580)" style="stroke:#000000; stroke-linecap:round; stroke-linejoin:round; stroke-width:4; stroke-opacity:1; fill:none" points="1772.47,1423.18 1772.47,1404.28 "/>
<polyline clip-path="url(#clip580)" style="stroke:#000000; stroke-linecap:round; stroke-linejoin:round; stroke-width:4; stroke-opacity:1; fill:none" points="2291.97,1423.18 2291.97,1404.28 "/>
<polyline clip-path="url(#clip580)" style="stroke:#000000; stroke-linecap:round; stroke-linejoin:round; stroke-width:4; stroke-opacity:1; fill:none" points="317.854,1423.18 317.854,1413.73 "/>
<polyline clip-path="url(#clip580)" style="stroke:#000000; stroke-linecap:round; stroke-linejoin:round; stroke-width:4; stroke-opacity:1; fill:none" points="421.755,1423.18 421.755,1413.73 "/>
<polyline clip-path="url(#clip580)" style="stroke:#000000; stroke-linecap:round; stroke-linejoin:round; stroke-width:4; stroke-opacity:1; fill:none" points="525.656,1423.18 525.656,1413.73 "/>
<polyline clip-path="url(#clip580)" style="stroke:#000000; stroke-linecap:round; stroke-linejoin:round; stroke-width:4; stroke-opacity:1; fill:none" points="629.557,1423.18 629.557,1413.73 "/>
<polyline clip-path="url(#clip580)" style="stroke:#000000; stroke-linecap:round; stroke-linejoin:round; stroke-width:4; stroke-opacity:1; fill:none" points="837.359,1423.18 837.359,1413.73 "/>
<polyline clip-path="url(#clip580)" style="stroke:#000000; stroke-linecap:round; stroke-linejoin:round; stroke-width:4; stroke-opacity:1; fill:none" points="941.26,1423.18 941.26,1413.73 "/>
<polyline clip-path="url(#clip580)" style="stroke:#000000; stroke-linecap:round; stroke-linejoin:round; stroke-width:4; stroke-opacity:1; fill:none" points="1045.16,1423.18 1045.16,1413.73 "/>
<polyline clip-path="url(#clip580)" style="stroke:#000000; stroke-linecap:round; stroke-linejoin:round; stroke-width:4; stroke-opacity:1; fill:none" points="1149.06,1423.18 1149.06,1413.73 "/>
<polyline clip-path="url(#clip580)" style="stroke:#000000; stroke-linecap:round; stroke-linejoin:round; stroke-width:4; stroke-opacity:1; fill:none" points="1356.86,1423.18 1356.86,1413.73 "/>
<polyline clip-path="url(#clip580)" style="stroke:#000000; stroke-linecap:round; stroke-linejoin:round; stroke-width:4; stroke-opacity:1; fill:none" points="1460.77,1423.18 1460.77,1413.73 "/>
<polyline clip-path="url(#clip580)" style="stroke:#000000; stroke-linecap:round; stroke-linejoin:round; stroke-width:4; stroke-opacity:1; fill:none" points="1564.67,1423.18 1564.67,1413.73 "/>
<polyline clip-path="url(#clip580)" style="stroke:#000000; stroke-linecap:round; stroke-linejoin:round; stroke-width:4; stroke-opacity:1; fill:none" points="1668.57,1423.18 1668.57,1413.73 "/>
<polyline clip-path="url(#clip580)" style="stroke:#000000; stroke-linecap:round; stroke-linejoin:round; stroke-width:4; stroke-opacity:1; fill:none" points="1876.37,1423.18 1876.37,1413.73 "/>
<polyline clip-path="url(#clip580)" style="stroke:#000000; stroke-linecap:round; stroke-linejoin:round; stroke-width:4; stroke-opacity:1; fill:none" points="1980.27,1423.18 1980.27,1413.73 "/>
<polyline clip-path="url(#clip580)" style="stroke:#000000; stroke-linecap:round; stroke-linejoin:round; stroke-width:4; stroke-opacity:1; fill:none" points="2084.17,1423.18 2084.17,1413.73 "/>
<polyline clip-path="url(#clip580)" style="stroke:#000000; stroke-linecap:round; stroke-linejoin:round; stroke-width:4; stroke-opacity:1; fill:none" points="2188.07,1423.18 2188.07,1413.73 "/>
<path clip-path="url(#clip580)" d="M213.953 1454.1 Q210.341 1454.1 208.513 1457.66 Q206.707 1461.2 206.707 1468.33 Q206.707 1475.44 208.513 1479.01 Q210.341 1482.55 213.953 1482.55 Q217.587 1482.55 219.392 1479.01 Q221.221 1475.44 221.221 1468.33 Q221.221 1461.2 219.392 1457.66 Q217.587 1454.1 213.953 1454.1 M213.953 1450.39 Q219.763 1450.39 222.818 1455 Q225.897 1459.58 225.897 1468.33 Q225.897 1477.06 222.818 1481.67 Q219.763 1486.25 213.953 1486.25 Q208.142 1486.25 205.064 1481.67 Q202.008 1477.06 202.008 1468.33 Q202.008 1459.58 205.064 1455 Q208.142 1450.39 213.953 1450.39 Z" fill="#000000" fill-rule="nonzero" fill-opacity="1" /><path clip-path="url(#clip580)" d="M697.15 1481.64 L713.47 1481.64 L713.47 1485.58 L691.525 1485.58 L691.525 1481.64 Q694.187 1478.89 698.771 1474.26 Q703.377 1469.61 704.558 1468.27 Q706.803 1465.74 707.683 1464.01 Q708.585 1462.25 708.585 1460.56 Q708.585 1457.8 706.641 1456.07 Q704.72 1454.33 701.618 1454.33 Q699.419 1454.33 696.965 1455.09 Q694.534 1455.86 691.757 1457.41 L691.757 1452.69 Q694.581 1451.55 697.034 1450.97 Q699.488 1450.39 701.525 1450.39 Q706.896 1450.39 710.09 1453.08 Q713.284 1455.77 713.284 1460.26 Q713.284 1462.39 712.474 1464.31 Q711.687 1466.2 709.581 1468.8 Q709.002 1469.47 705.9 1472.69 Q702.798 1475.88 697.15 1481.64 Z" fill="#000000" fill-rule="nonzero" fill-opacity="1" /><path clip-path="url(#clip580)" d="M723.331 1451.02 L741.687 1451.02 L741.687 1454.96 L727.613 1454.96 L727.613 1463.43 Q728.632 1463.08 729.65 1462.92 Q730.669 1462.73 731.687 1462.73 Q737.474 1462.73 740.854 1465.9 Q744.233 1469.08 744.233 1474.49 Q744.233 1480.07 740.761 1483.17 Q737.289 1486.25 730.969 1486.25 Q728.794 1486.25 726.525 1485.88 Q724.28 1485.51 721.872 1484.77 L721.872 1480.07 Q723.956 1481.2 726.178 1481.76 Q728.4 1482.32 730.877 1482.32 Q734.881 1482.32 737.219 1480.21 Q739.557 1478.1 739.557 1474.49 Q739.557 1470.88 737.219 1468.77 Q734.881 1466.67 730.877 1466.67 Q729.002 1466.67 727.127 1467.08 Q725.275 1467.5 723.331 1468.38 L723.331 1451.02 Z" fill="#000000" fill-rule="nonzero" fill-opacity="1" /><path clip-path="url(#clip580)" d="M763.446 1454.1 Q759.835 1454.1 758.006 1457.66 Q756.201 1461.2 756.201 1468.33 Q756.201 1475.44 758.006 1479.01 Q759.835 1482.55 763.446 1482.55 Q767.08 1482.55 768.886 1479.01 Q770.715 1475.44 770.715 1468.33 Q770.715 1461.2 768.886 1457.66 Q767.08 1454.1 763.446 1454.1 M763.446 1450.39 Q769.256 1450.39 772.312 1455 Q775.391 1459.58 775.391 1468.33 Q775.391 1477.06 772.312 1481.67 Q769.256 1486.25 763.446 1486.25 Q757.636 1486.25 754.557 1481.67 Q751.502 1477.06 751.502 1468.33 Q751.502 1459.58 754.557 1455 Q757.636 1450.39 763.446 1450.39 Z" fill="#000000" fill-rule="nonzero" fill-opacity="1" /><path clip-path="url(#clip580)" d="M1212.58 1451.02 L1230.94 1451.02 L1230.94 1454.96 L1216.86 1454.96 L1216.86 1463.43 Q1217.88 1463.08 1218.9 1462.92 Q1219.92 1462.73 1220.94 1462.73 Q1226.72 1462.73 1230.1 1465.9 Q1233.48 1469.08 1233.48 1474.49 Q1233.48 1480.07 1230.01 1483.17 Q1226.54 1486.25 1220.22 1486.25 Q1218.04 1486.25 1215.78 1485.88 Q1213.53 1485.51 1211.12 1484.77 L1211.12 1480.07 Q1213.21 1481.2 1215.43 1481.76 Q1217.65 1482.32 1220.13 1482.32 Q1224.13 1482.32 1226.47 1480.21 Q1228.81 1478.1 1228.81 1474.49 Q1228.81 1470.88 1226.47 1468.77 Q1224.13 1466.67 1220.13 1466.67 Q1218.25 1466.67 1216.38 1467.08 Q1214.53 1467.5 1212.58 1468.38 L1212.58 1451.02 Z" fill="#000000" fill-rule="nonzero" fill-opacity="1" /><path clip-path="url(#clip580)" d="M1252.7 1454.1 Q1249.09 1454.1 1247.26 1457.66 Q1245.45 1461.2 1245.45 1468.33 Q1245.45 1475.44 1247.26 1479.01 Q1249.09 1482.55 1252.7 1482.55 Q1256.33 1482.55 1258.14 1479.01 Q1259.97 1475.44 1259.97 1468.33 Q1259.97 1461.2 1258.14 1457.66 Q1256.33 1454.1 1252.7 1454.1 M1252.7 1450.39 Q1258.51 1450.39 1261.56 1455 Q1264.64 1459.58 1264.64 1468.33 Q1264.64 1477.06 1261.56 1481.67 Q1258.51 1486.25 1252.7 1486.25 Q1246.89 1486.25 1243.81 1481.67 Q1240.75 1477.06 1240.75 1468.33 Q1240.75 1459.58 1243.81 1455 Q1246.89 1450.39 1252.7 1450.39 Z" fill="#000000" fill-rule="nonzero" fill-opacity="1" /><path clip-path="url(#clip580)" d="M1282.86 1454.1 Q1279.25 1454.1 1277.42 1457.66 Q1275.61 1461.2 1275.61 1468.33 Q1275.61 1475.44 1277.42 1479.01 Q1279.25 1482.55 1282.86 1482.55 Q1286.49 1482.55 1288.3 1479.01 Q1290.13 1475.44 1290.13 1468.33 Q1290.13 1461.2 1288.3 1457.66 Q1286.49 1454.1 1282.86 1454.1 M1282.86 1450.39 Q1288.67 1450.39 1291.72 1455 Q1294.8 1459.58 1294.8 1468.33 Q1294.8 1477.06 1291.72 1481.67 Q1288.67 1486.25 1282.86 1486.25 Q1277.05 1486.25 1273.97 1481.67 Q1270.91 1477.06 1270.91 1468.33 Q1270.91 1459.58 1273.97 1455 Q1277.05 1450.39 1282.86 1450.39 Z" fill="#000000" fill-rule="nonzero" fill-opacity="1" /><path clip-path="url(#clip580)" d="M1730.74 1451.02 L1752.97 1451.02 L1752.97 1453.01 L1740.42 1485.58 L1735.54 1485.58 L1747.34 1454.96 L1730.74 1454.96 L1730.74 1451.02 Z" fill="#000000" fill-rule="nonzero" fill-opacity="1" /><path clip-path="url(#clip580)" d="M1762.13 1451.02 L1780.49 1451.02 L1780.49 1454.96 L1766.42 1454.96 L1766.42 1463.43 Q1767.43 1463.08 1768.45 1462.92 Q1769.47 1462.73 1770.49 1462.73 Q1776.28 1462.73 1779.66 1465.9 Q1783.04 1469.08 1783.04 1474.49 Q1783.04 1480.07 1779.56 1483.17 Q1776.09 1486.25 1769.77 1486.25 Q1767.6 1486.25 1765.33 1485.88 Q1763.08 1485.51 1760.67 1484.77 L1760.67 1480.07 Q1762.76 1481.2 1764.98 1481.76 Q1767.2 1482.32 1769.68 1482.32 Q1773.68 1482.32 1776.02 1480.21 Q1778.36 1478.1 1778.36 1474.49 Q1778.36 1470.88 1776.02 1468.77 Q1773.68 1466.67 1769.68 1466.67 Q1767.8 1466.67 1765.93 1467.08 Q1764.08 1467.5 1762.13 1468.38 L1762.13 1451.02 Z" fill="#000000" fill-rule="nonzero" fill-opacity="1" /><path clip-path="url(#clip580)" d="M1802.25 1454.1 Q1798.64 1454.1 1796.81 1457.66 Q1795 1461.2 1795 1468.33 Q1795 1475.44 1796.81 1479.01 Q1798.64 1482.55 1802.25 1482.55 Q1805.88 1482.55 1807.69 1479.01 Q1809.52 1475.44 1809.52 1468.33 Q1809.52 1461.2 1807.69 1457.66 Q1805.88 1454.1 1802.25 1454.1 M1802.25 1450.39 Q1808.06 1450.39 1811.11 1455 Q1814.19 1459.58 1814.19 1468.33 Q1814.19 1477.06 1811.11 1481.67 Q1808.06 1486.25 1802.25 1486.25 Q1796.44 1486.25 1793.36 1481.67 Q1790.3 1477.06 1790.3 1468.33 Q1790.3 1459.58 1793.36 1455 Q1796.44 1450.39 1802.25 1450.39 Z" fill="#000000" fill-rule="nonzero" fill-opacity="1" /><path clip-path="url(#clip580)" d="M2236.5 1481.64 L2244.14 1481.64 L2244.14 1455.28 L2235.83 1456.95 L2235.83 1452.69 L2244.09 1451.02 L2248.77 1451.02 L2248.77 1481.64 L2256.41 1481.64 L2256.41 1485.58 L2236.5 1485.58 L2236.5 1481.64 Z" fill="#000000" fill-rule="nonzero" fill-opacity="1" /><path clip-path="url(#clip580)" d="M2275.85 1454.1 Q2272.24 1454.1 2270.41 1457.66 Q2268.61 1461.2 2268.61 1468.33 Q2268.61 1475.44 2270.41 1479.01 Q2272.24 1482.55 2275.85 1482.55 Q2279.49 1482.55 2281.29 1479.01 Q2283.12 1475.44 2283.12 1468.33 Q2283.12 1461.2 2281.29 1457.66 Q2279.49 1454.1 2275.85 1454.1 M2275.85 1450.39 Q2281.66 1450.39 2284.72 1455 Q2287.8 1459.58 2287.8 1468.33 Q2287.8 1477.06 2284.72 1481.67 Q2281.66 1486.25 2275.85 1486.25 Q2270.04 1486.25 2266.96 1481.67 Q2263.91 1477.06 2263.91 1468.33 Q2263.91 1459.58 2266.96 1455 Q2270.04 1450.39 2275.85 1450.39 Z" fill="#000000" fill-rule="nonzero" fill-opacity="1" /><path clip-path="url(#clip580)" d="M2306.01 1454.1 Q2302.4 1454.1 2300.57 1457.66 Q2298.77 1461.2 2298.77 1468.33 Q2298.77 1475.44 2300.57 1479.01 Q2302.4 1482.55 2306.01 1482.55 Q2309.65 1482.55 2311.45 1479.01 Q2313.28 1475.44 2313.28 1468.33 Q2313.28 1461.2 2311.45 1457.66 Q2309.65 1454.1 2306.01 1454.1 M2306.01 1450.39 Q2311.82 1450.39 2314.88 1455 Q2317.96 1459.58 2317.96 1468.33 Q2317.96 1477.06 2314.88 1481.67 Q2311.82 1486.25 2306.01 1486.25 Q2300.2 1486.25 2297.12 1481.67 Q2294.07 1477.06 2294.07 1468.33 Q2294.07 1459.58 2297.12 1455 Q2300.2 1450.39 2306.01 1450.39 Z" fill="#000000" fill-rule="nonzero" fill-opacity="1" /><path clip-path="url(#clip580)" d="M2336.17 1454.1 Q2332.56 1454.1 2330.74 1457.66 Q2328.93 1461.2 2328.93 1468.33 Q2328.93 1475.44 2330.74 1479.01 Q2332.56 1482.55 2336.17 1482.55 Q2339.81 1482.55 2341.61 1479.01 Q2343.44 1475.44 2343.44 1468.33 Q2343.44 1461.2 2341.61 1457.66 Q2339.81 1454.1 2336.17 1454.1 M2336.17 1450.39 Q2341.99 1450.39 2345.04 1455 Q2348.12 1459.58 2348.12 1468.33 Q2348.12 1477.06 2345.04 1481.67 Q2341.99 1486.25 2336.17 1486.25 Q2330.36 1486.25 2327.29 1481.67 Q2324.23 1477.06 2324.23 1468.33 Q2324.23 1459.58 2327.29 1455 Q2330.36 1450.39 2336.17 1450.39 Z" fill="#000000" fill-rule="nonzero" fill-opacity="1" /><path clip-path="url(#clip580)" d="M1031.74 1522.27 L1031.74 1532.4 L1043.81 1532.4 L1043.81 1536.95 L1031.74 1536.95 L1031.74 1556.3 Q1031.74 1560.66 1032.92 1561.9 Q1034.13 1563.14 1037.79 1563.14 L1043.81 1563.14 L1043.81 1568.04 L1037.79 1568.04 Q1031.01 1568.04 1028.43 1565.53 Q1025.85 1562.98 1025.85 1556.3 L1025.85 1536.95 L1021.56 1536.95 L1021.56 1532.4 L1025.85 1532.4 L1025.85 1522.27 L1031.74 1522.27 Z" fill="#000000" fill-rule="nonzero" fill-opacity="1" /><path clip-path="url(#clip580)" d="M1072.16 1537.87 Q1071.18 1537.3 1070 1537.04 Q1068.85 1536.76 1067.45 1536.76 Q1062.49 1536.76 1059.81 1540 Q1057.17 1543.22 1057.17 1549.27 L1057.17 1568.04 L1051.28 1568.04 L1051.28 1532.4 L1057.17 1532.4 L1057.17 1537.93 Q1059.02 1534.69 1061.98 1533.13 Q1064.94 1531.54 1069.17 1531.54 Q1069.78 1531.54 1070.51 1531.63 Q1071.24 1531.7 1072.13 1531.85 L1072.16 1537.87 Z" fill="#000000" fill-rule="nonzero" fill-opacity="1" /><path clip-path="url(#clip580)" d="M1094.51 1550.12 Q1087.41 1550.12 1084.67 1551.75 Q1081.94 1553.37 1081.94 1557.29 Q1081.94 1560.4 1083.97 1562.25 Q1086.04 1564.07 1089.57 1564.07 Q1094.44 1564.07 1097.37 1560.63 Q1100.33 1557.16 1100.33 1551.43 L1100.33 1550.12 L1094.51 1550.12 M1106.19 1547.71 L1106.19 1568.04 L1100.33 1568.04 L1100.33 1562.63 Q1098.33 1565.88 1095.34 1567.44 Q1092.34 1568.97 1088.01 1568.97 Q1082.54 1568.97 1079.29 1565.91 Q1076.08 1562.82 1076.08 1557.67 Q1076.08 1551.65 1080.09 1548.6 Q1084.13 1545.54 1092.12 1545.54 L1100.33 1545.54 L1100.33 1544.97 Q1100.33 1540.93 1097.66 1538.73 Q1095.02 1536.5 1090.21 1536.5 Q1087.16 1536.5 1084.26 1537.23 Q1081.36 1537.97 1078.69 1539.43 L1078.69 1534.02 Q1081.9 1532.78 1084.93 1532.17 Q1087.95 1531.54 1090.82 1531.54 Q1098.55 1531.54 1102.37 1535.55 Q1106.19 1539.56 1106.19 1547.71 Z" fill="#000000" fill-rule="nonzero" fill-opacity="1" /><path clip-path="url(#clip580)" d="M1118.25 1532.4 L1124.11 1532.4 L1124.11 1568.04 L1118.25 1568.04 L1118.25 1532.4 M1118.25 1518.52 L1124.11 1518.52 L1124.11 1525.93 L1118.25 1525.93 L1118.25 1518.52 Z" fill="#000000" fill-rule="nonzero" fill-opacity="1" /><path clip-path="url(#clip580)" d="M1165.99 1546.53 L1165.99 1568.04 L1160.14 1568.04 L1160.14 1546.72 Q1160.14 1541.66 1158.17 1539.14 Q1156.19 1536.63 1152.24 1536.63 Q1147.5 1536.63 1144.77 1539.65 Q1142.03 1542.68 1142.03 1547.9 L1142.03 1568.04 L1136.14 1568.04 L1136.14 1532.4 L1142.03 1532.4 L1142.03 1537.93 Q1144.13 1534.72 1146.96 1533.13 Q1149.83 1531.54 1153.55 1531.54 Q1159.69 1531.54 1162.84 1535.36 Q1165.99 1539.14 1165.99 1546.53 Z" fill="#000000" fill-rule="nonzero" fill-opacity="1" /><path clip-path="url(#clip580)" d="M1177.68 1532.4 L1183.53 1532.4 L1183.53 1568.04 L1177.68 1568.04 L1177.68 1532.4 M1177.68 1518.52 L1183.53 1518.52 L1183.53 1525.93 L1177.68 1525.93 L1177.68 1518.52 Z" fill="#000000" fill-rule="nonzero" fill-opacity="1" /><path clip-path="url(#clip580)" d="M1225.42 1546.53 L1225.42 1568.04 L1219.56 1568.04 L1219.56 1546.72 Q1219.56 1541.66 1217.59 1539.14 Q1215.62 1536.63 1211.67 1536.63 Q1206.93 1536.63 1204.19 1539.65 Q1201.45 1542.68 1201.45 1547.9 L1201.45 1568.04 L1195.56 1568.04 L1195.56 1532.4 L1201.45 1532.4 L1201.45 1537.93 Q1203.55 1534.72 1206.39 1533.13 Q1209.25 1531.54 1212.97 1531.54 Q1219.12 1531.54 1222.27 1535.36 Q1225.42 1539.14 1225.42 1546.53 Z" fill="#000000" fill-rule="nonzero" fill-opacity="1" /><path clip-path="url(#clip580)" d="M1260.56 1549.81 Q1260.56 1543.44 1257.92 1539.94 Q1255.31 1536.44 1250.56 1536.44 Q1245.85 1536.44 1243.21 1539.94 Q1240.6 1543.44 1240.6 1549.81 Q1240.6 1556.14 1243.21 1559.64 Q1245.85 1563.14 1250.56 1563.14 Q1255.31 1563.14 1257.92 1559.64 Q1260.56 1556.14 1260.56 1549.81 M1266.41 1563.62 Q1266.41 1572.72 1262.37 1577.15 Q1258.33 1581.6 1249.99 1581.6 Q1246.9 1581.6 1244.17 1581.13 Q1241.43 1580.68 1238.85 1579.72 L1238.85 1574.03 Q1241.43 1575.43 1243.94 1576.1 Q1246.46 1576.76 1249.07 1576.76 Q1254.83 1576.76 1257.69 1573.74 Q1260.56 1570.75 1260.56 1564.67 L1260.56 1561.77 Q1258.74 1564.92 1255.91 1566.48 Q1253.08 1568.04 1249.13 1568.04 Q1242.57 1568.04 1238.56 1563.05 Q1234.55 1558.05 1234.55 1549.81 Q1234.55 1541.53 1238.56 1536.53 Q1242.57 1531.54 1249.13 1531.54 Q1253.08 1531.54 1255.91 1533.1 Q1258.74 1534.66 1260.56 1537.81 L1260.56 1532.4 L1266.41 1532.4 L1266.41 1563.62 Z" fill="#000000" fill-rule="nonzero" fill-opacity="1" /><path clip-path="url(#clip580)" d="M1321.92 1533.45 L1321.92 1538.98 Q1319.44 1537.71 1316.77 1537.07 Q1314.09 1536.44 1311.23 1536.44 Q1306.87 1536.44 1304.67 1537.77 Q1302.51 1539.11 1302.51 1541.79 Q1302.51 1543.82 1304.07 1545 Q1305.63 1546.15 1310.34 1547.2 L1312.34 1547.64 Q1318.58 1548.98 1321.19 1551.43 Q1323.83 1553.85 1323.83 1558.21 Q1323.83 1563.17 1319.89 1566.07 Q1315.97 1568.97 1309.1 1568.97 Q1306.23 1568.97 1303.11 1568.39 Q1300.02 1567.85 1296.59 1566.74 L1296.59 1560.69 Q1299.83 1562.38 1302.98 1563.24 Q1306.14 1564.07 1309.22 1564.07 Q1313.36 1564.07 1315.59 1562.66 Q1317.82 1561.23 1317.82 1558.65 Q1317.82 1556.27 1316.19 1554.99 Q1314.6 1553.72 1309.16 1552.54 L1307.12 1552.07 Q1301.68 1550.92 1299.26 1548.56 Q1296.84 1546.18 1296.84 1542.04 Q1296.84 1537.01 1300.41 1534.27 Q1303.97 1531.54 1310.53 1531.54 Q1313.77 1531.54 1316.64 1532.01 Q1319.5 1532.49 1321.92 1533.45 Z" fill="#000000" fill-rule="nonzero" fill-opacity="1" /><path clip-path="url(#clip580)" d="M1363.65 1548.76 L1363.65 1551.62 L1336.72 1551.62 Q1337.11 1557.67 1340.35 1560.85 Q1343.63 1564 1349.45 1564 Q1352.83 1564 1355.98 1563.17 Q1359.16 1562.35 1362.28 1560.69 L1362.28 1566.23 Q1359.13 1567.57 1355.82 1568.27 Q1352.51 1568.97 1349.1 1568.97 Q1340.57 1568.97 1335.58 1564 Q1330.61 1559.04 1330.61 1550.57 Q1330.61 1541.82 1335.32 1536.69 Q1340.07 1531.54 1348.09 1531.54 Q1355.28 1531.54 1359.45 1536.18 Q1363.65 1540.8 1363.65 1548.76 M1357.79 1547.04 Q1357.73 1542.23 1355.09 1539.37 Q1352.48 1536.5 1348.15 1536.5 Q1343.25 1536.5 1340.29 1539.27 Q1337.36 1542.04 1336.91 1547.07 L1357.79 1547.04 Z" fill="#000000" fill-rule="nonzero" fill-opacity="1" /><path clip-path="url(#clip580)" d="M1379.06 1522.27 L1379.06 1532.4 L1391.12 1532.4 L1391.12 1536.95 L1379.06 1536.95 L1379.06 1556.3 Q1379.06 1560.66 1380.23 1561.9 Q1381.44 1563.14 1385.1 1563.14 L1391.12 1563.14 L1391.12 1568.04 L1385.1 1568.04 Q1378.32 1568.04 1375.74 1565.53 Q1373.17 1562.98 1373.17 1556.3 L1373.17 1536.95 L1368.87 1536.95 L1368.87 1532.4 L1373.17 1532.4 L1373.17 1522.27 L1379.06 1522.27 Z" fill="#000000" fill-rule="nonzero" fill-opacity="1" /><path clip-path="url(#clip580)" d="M1442.27 1533.45 L1442.27 1538.98 Q1439.78 1537.71 1437.11 1537.07 Q1434.44 1536.44 1431.57 1536.44 Q1427.21 1536.44 1425.02 1537.77 Q1422.85 1539.11 1422.85 1541.79 Q1422.85 1543.82 1424.41 1545 Q1425.97 1546.15 1430.68 1547.2 L1432.69 1547.64 Q1438.92 1548.98 1441.53 1551.43 Q1444.18 1553.85 1444.18 1558.21 Q1444.18 1563.17 1440.23 1566.07 Q1436.31 1568.97 1429.44 1568.97 Q1426.58 1568.97 1423.46 1568.39 Q1420.37 1567.85 1416.93 1566.74 L1416.93 1560.69 Q1420.18 1562.38 1423.33 1563.24 Q1426.48 1564.07 1429.57 1564.07 Q1433.7 1564.07 1435.93 1562.66 Q1438.16 1561.23 1438.16 1558.65 Q1438.16 1556.27 1436.54 1554.99 Q1434.95 1553.72 1429.5 1552.54 L1427.47 1552.07 Q1422.02 1550.92 1419.6 1548.56 Q1417.19 1546.18 1417.19 1542.04 Q1417.19 1537.01 1420.75 1534.27 Q1424.32 1531.54 1430.87 1531.54 Q1434.12 1531.54 1436.98 1532.01 Q1439.85 1532.49 1442.27 1533.45 Z" fill="#000000" fill-rule="nonzero" fill-opacity="1" /><path clip-path="url(#clip580)" d="M1453.5 1532.4 L1459.36 1532.4 L1459.36 1568.04 L1453.5 1568.04 L1453.5 1532.4 M1453.5 1518.52 L1459.36 1518.52 L1459.36 1525.93 L1453.5 1525.93 L1453.5 1518.52 Z" fill="#000000" fill-rule="nonzero" fill-opacity="1" /><path clip-path="url(#clip580)" d="M1469.07 1532.4 L1496.88 1532.4 L1496.88 1537.74 L1474.86 1563.37 L1496.88 1563.37 L1496.88 1568.04 L1468.27 1568.04 L1468.27 1562.7 L1490.3 1537.07 L1469.07 1537.07 L1469.07 1532.4 Z" fill="#000000" fill-rule="nonzero" fill-opacity="1" /><path clip-path="url(#clip580)" d="M1536.32 1548.76 L1536.32 1551.62 L1509.39 1551.62 Q1509.77 1557.67 1513.02 1560.85 Q1516.3 1564 1522.12 1564 Q1525.5 1564 1528.65 1563.17 Q1531.83 1562.35 1534.95 1560.69 L1534.95 1566.23 Q1531.8 1567.57 1528.49 1568.27 Q1525.18 1568.97 1521.77 1568.97 Q1513.24 1568.97 1508.25 1564 Q1503.28 1559.04 1503.28 1550.57 Q1503.28 1541.82 1507.99 1536.69 Q1512.73 1531.54 1520.76 1531.54 Q1527.95 1531.54 1532.12 1536.18 Q1536.32 1540.8 1536.32 1548.76 M1530.46 1547.04 Q1530.4 1542.23 1527.76 1539.37 Q1525.15 1536.5 1520.82 1536.5 Q1515.92 1536.5 1512.96 1539.27 Q1510.03 1542.04 1509.58 1547.07 L1530.46 1547.04 Z" fill="#000000" fill-rule="nonzero" fill-opacity="1" /><polyline clip-path="url(#clip580)" style="stroke:#000000; stroke-linecap:round; stroke-linejoin:round; stroke-width:4; stroke-opacity:1; fill:none" points="205.121,1423.18 205.121,123.472 "/>
<polyline clip-path="url(#clip580)" style="stroke:#000000; stroke-linecap:round; stroke-linejoin:round; stroke-width:4; stroke-opacity:1; fill:none" points="205.121,1225.64 224.019,1225.64 "/>
<polyline clip-path="url(#clip580)" style="stroke:#000000; stroke-linecap:round; stroke-linejoin:round; stroke-width:4; stroke-opacity:1; fill:none" points="205.121,1026.92 224.019,1026.92 "/>
<polyline clip-path="url(#clip580)" style="stroke:#000000; stroke-linecap:round; stroke-linejoin:round; stroke-width:4; stroke-opacity:1; fill:none" points="205.121,828.19 224.019,828.19 "/>
<polyline clip-path="url(#clip580)" style="stroke:#000000; stroke-linecap:round; stroke-linejoin:round; stroke-width:4; stroke-opacity:1; fill:none" points="205.121,629.464 224.019,629.464 "/>
<polyline clip-path="url(#clip580)" style="stroke:#000000; stroke-linecap:round; stroke-linejoin:round; stroke-width:4; stroke-opacity:1; fill:none" points="205.121,430.739 224.019,430.739 "/>
<polyline clip-path="url(#clip580)" style="stroke:#000000; stroke-linecap:round; stroke-linejoin:round; stroke-width:4; stroke-opacity:1; fill:none" points="205.121,232.013 224.019,232.013 "/>
<polyline clip-path="url(#clip580)" style="stroke:#000000; stroke-linecap:round; stroke-linejoin:round; stroke-width:4; stroke-opacity:1; fill:none" points="205.121,1384.62 214.57,1384.62 "/>
<polyline clip-path="url(#clip580)" style="stroke:#000000; stroke-linecap:round; stroke-linejoin:round; stroke-width:4; stroke-opacity:1; fill:none" points="205.121,1344.88 214.57,1344.88 "/>
<polyline clip-path="url(#clip580)" style="stroke:#000000; stroke-linecap:round; stroke-linejoin:round; stroke-width:4; stroke-opacity:1; fill:none" points="205.121,1305.13 214.57,1305.13 "/>
<polyline clip-path="url(#clip580)" style="stroke:#000000; stroke-linecap:round; stroke-linejoin:round; stroke-width:4; stroke-opacity:1; fill:none" points="205.121,1265.39 214.57,1265.39 "/>
<polyline clip-path="url(#clip580)" style="stroke:#000000; stroke-linecap:round; stroke-linejoin:round; stroke-width:4; stroke-opacity:1; fill:none" points="205.121,1185.9 214.57,1185.9 "/>
<polyline clip-path="url(#clip580)" style="stroke:#000000; stroke-linecap:round; stroke-linejoin:round; stroke-width:4; stroke-opacity:1; fill:none" points="205.121,1146.15 214.57,1146.15 "/>
<polyline clip-path="url(#clip580)" style="stroke:#000000; stroke-linecap:round; stroke-linejoin:round; stroke-width:4; stroke-opacity:1; fill:none" points="205.121,1106.41 214.57,1106.41 "/>
<polyline clip-path="url(#clip580)" style="stroke:#000000; stroke-linecap:round; stroke-linejoin:round; stroke-width:4; stroke-opacity:1; fill:none" points="205.121,1066.66 214.57,1066.66 "/>
<polyline clip-path="url(#clip580)" style="stroke:#000000; stroke-linecap:round; stroke-linejoin:round; stroke-width:4; stroke-opacity:1; fill:none" points="205.121,987.171 214.57,987.171 "/>
<polyline clip-path="url(#clip580)" style="stroke:#000000; stroke-linecap:round; stroke-linejoin:round; stroke-width:4; stroke-opacity:1; fill:none" points="205.121,947.426 214.57,947.426 "/>
<polyline clip-path="url(#clip580)" style="stroke:#000000; stroke-linecap:round; stroke-linejoin:round; stroke-width:4; stroke-opacity:1; fill:none" points="205.121,907.681 214.57,907.681 "/>
<polyline clip-path="url(#clip580)" style="stroke:#000000; stroke-linecap:round; stroke-linejoin:round; stroke-width:4; stroke-opacity:1; fill:none" points="205.121,867.935 214.57,867.935 "/>
<polyline clip-path="url(#clip580)" style="stroke:#000000; stroke-linecap:round; stroke-linejoin:round; stroke-width:4; stroke-opacity:1; fill:none" points="205.121,788.445 214.57,788.445 "/>
<polyline clip-path="url(#clip580)" style="stroke:#000000; stroke-linecap:round; stroke-linejoin:round; stroke-width:4; stroke-opacity:1; fill:none" points="205.121,748.7 214.57,748.7 "/>
<polyline clip-path="url(#clip580)" style="stroke:#000000; stroke-linecap:round; stroke-linejoin:round; stroke-width:4; stroke-opacity:1; fill:none" points="205.121,708.955 214.57,708.955 "/>
<polyline clip-path="url(#clip580)" style="stroke:#000000; stroke-linecap:round; stroke-linejoin:round; stroke-width:4; stroke-opacity:1; fill:none" points="205.121,669.21 214.57,669.21 "/>
<polyline clip-path="url(#clip580)" style="stroke:#000000; stroke-linecap:round; stroke-linejoin:round; stroke-width:4; stroke-opacity:1; fill:none" points="205.121,589.719 214.57,589.719 "/>
<polyline clip-path="url(#clip580)" style="stroke:#000000; stroke-linecap:round; stroke-linejoin:round; stroke-width:4; stroke-opacity:1; fill:none" points="205.121,549.974 214.57,549.974 "/>
<polyline clip-path="url(#clip580)" style="stroke:#000000; stroke-linecap:round; stroke-linejoin:round; stroke-width:4; stroke-opacity:1; fill:none" points="205.121,510.229 214.57,510.229 "/>
<polyline clip-path="url(#clip580)" style="stroke:#000000; stroke-linecap:round; stroke-linejoin:round; stroke-width:4; stroke-opacity:1; fill:none" points="205.121,470.484 214.57,470.484 "/>
<polyline clip-path="url(#clip580)" style="stroke:#000000; stroke-linecap:round; stroke-linejoin:round; stroke-width:4; stroke-opacity:1; fill:none" points="205.121,390.993 214.57,390.993 "/>
<polyline clip-path="url(#clip580)" style="stroke:#000000; stroke-linecap:round; stroke-linejoin:round; stroke-width:4; stroke-opacity:1; fill:none" points="205.121,351.248 214.57,351.248 "/>
<polyline clip-path="url(#clip580)" style="stroke:#000000; stroke-linecap:round; stroke-linejoin:round; stroke-width:4; stroke-opacity:1; fill:none" points="205.121,311.503 214.57,311.503 "/>
<polyline clip-path="url(#clip580)" style="stroke:#000000; stroke-linecap:round; stroke-linejoin:round; stroke-width:4; stroke-opacity:1; fill:none" points="205.121,271.758 214.57,271.758 "/>
<polyline clip-path="url(#clip580)" style="stroke:#000000; stroke-linecap:round; stroke-linejoin:round; stroke-width:4; stroke-opacity:1; fill:none" points="205.121,192.268 214.57,192.268 "/>
<polyline clip-path="url(#clip580)" style="stroke:#000000; stroke-linecap:round; stroke-linejoin:round; stroke-width:4; stroke-opacity:1; fill:none" points="205.121,152.522 214.57,152.522 "/>
<path clip-path="url(#clip580)" d="M117.825 1238.99 L125.464 1238.99 L125.464 1212.62 L117.154 1214.29 L117.154 1210.03 L125.418 1208.36 L130.093 1208.36 L130.093 1238.99 L137.732 1238.99 L137.732 1242.92 L117.825 1242.92 L117.825 1238.99 Z" fill="#000000" fill-rule="nonzero" fill-opacity="1" /><path clip-path="url(#clip580)" d="M157.177 1211.44 Q153.566 1211.44 151.737 1215.01 Q149.931 1218.55 149.931 1225.68 Q149.931 1232.78 151.737 1236.35 Q153.566 1239.89 157.177 1239.89 Q160.811 1239.89 162.616 1236.35 Q164.445 1232.78 164.445 1225.68 Q164.445 1218.55 162.616 1215.01 Q160.811 1211.44 157.177 1211.44 M157.177 1207.74 Q162.987 1207.74 166.042 1212.34 Q169.121 1216.93 169.121 1225.68 Q169.121 1234.4 166.042 1239.01 Q162.987 1243.59 157.177 1243.59 Q151.366 1243.59 148.288 1239.01 Q145.232 1234.4 145.232 1225.68 Q145.232 1216.93 148.288 1212.34 Q151.366 1207.74 157.177 1207.74 Z" fill="#000000" fill-rule="nonzero" fill-opacity="1" /><path clip-path="url(#clip580)" d="M121.043 1040.26 L137.362 1040.26 L137.362 1044.2 L115.418 1044.2 L115.418 1040.26 Q118.08 1037.51 122.663 1032.88 Q127.269 1028.22 128.45 1026.88 Q130.695 1024.36 131.575 1022.62 Q132.478 1020.86 132.478 1019.17 Q132.478 1016.42 130.533 1014.68 Q128.612 1012.95 125.51 1012.95 Q123.311 1012.95 120.857 1013.71 Q118.427 1014.47 115.649 1016.02 L115.649 1011.3 Q118.473 1010.17 120.927 1009.59 Q123.38 1009.01 125.418 1009.01 Q130.788 1009.01 133.982 1011.7 Q137.177 1014.38 137.177 1018.87 Q137.177 1021 136.367 1022.92 Q135.579 1024.82 133.473 1027.41 Q132.894 1028.09 129.792 1031.3 Q126.691 1034.5 121.043 1040.26 Z" fill="#000000" fill-rule="nonzero" fill-opacity="1" /><path clip-path="url(#clip580)" d="M157.177 1012.71 Q153.566 1012.71 151.737 1016.28 Q149.931 1019.82 149.931 1026.95 Q149.931 1034.06 151.737 1037.62 Q153.566 1041.16 157.177 1041.16 Q160.811 1041.16 162.616 1037.62 Q164.445 1034.06 164.445 1026.95 Q164.445 1019.82 162.616 1016.28 Q160.811 1012.71 157.177 1012.71 M157.177 1009.01 Q162.987 1009.01 166.042 1013.62 Q169.121 1018.2 169.121 1026.95 Q169.121 1035.68 166.042 1040.28 Q162.987 1044.87 157.177 1044.87 Q151.366 1044.87 148.288 1040.28 Q145.232 1035.68 145.232 1026.95 Q145.232 1018.2 148.288 1013.62 Q151.366 1009.01 157.177 1009.01 Z" fill="#000000" fill-rule="nonzero" fill-opacity="1" /><path clip-path="url(#clip580)" d="M131.181 826.836 Q134.538 827.554 136.413 829.822 Q138.311 832.091 138.311 835.424 Q138.311 840.54 134.792 843.341 Q131.274 846.142 124.793 846.142 Q122.617 846.142 120.302 845.702 Q118.01 845.285 115.556 844.429 L115.556 839.915 Q117.501 841.049 119.816 841.628 Q122.13 842.206 124.654 842.206 Q129.052 842.206 131.343 840.47 Q133.658 838.734 133.658 835.424 Q133.658 832.368 131.505 830.655 Q129.376 828.919 125.556 828.919 L121.529 828.919 L121.529 825.077 L125.742 825.077 Q129.191 825.077 131.019 823.711 Q132.848 822.322 132.848 819.73 Q132.848 817.068 130.95 815.656 Q129.075 814.22 125.556 814.22 Q123.635 814.22 121.436 814.637 Q119.237 815.054 116.598 815.933 L116.598 811.767 Q119.26 811.026 121.575 810.656 Q123.913 810.285 125.973 810.285 Q131.297 810.285 134.399 812.716 Q137.501 815.123 137.501 819.244 Q137.501 822.114 135.857 824.105 Q134.214 826.072 131.181 826.836 Z" fill="#000000" fill-rule="nonzero" fill-opacity="1" /><path clip-path="url(#clip580)" d="M157.177 813.989 Q153.566 813.989 151.737 817.554 Q149.931 821.095 149.931 828.225 Q149.931 835.331 151.737 838.896 Q153.566 842.438 157.177 842.438 Q160.811 842.438 162.616 838.896 Q164.445 835.331 164.445 828.225 Q164.445 821.095 162.616 817.554 Q160.811 813.989 157.177 813.989 M157.177 810.285 Q162.987 810.285 166.042 814.892 Q169.121 819.475 169.121 828.225 Q169.121 836.952 166.042 841.558 Q162.987 846.142 157.177 846.142 Q151.366 846.142 148.288 841.558 Q145.232 836.952 145.232 828.225 Q145.232 819.475 148.288 814.892 Q151.366 810.285 157.177 810.285 Z" fill="#000000" fill-rule="nonzero" fill-opacity="1" /><path clip-path="url(#clip580)" d="M129.862 616.258 L118.056 634.707 L129.862 634.707 L129.862 616.258 M128.635 612.184 L134.515 612.184 L134.515 634.707 L139.445 634.707 L139.445 638.596 L134.515 638.596 L134.515 646.744 L129.862 646.744 L129.862 638.596 L114.26 638.596 L114.26 634.082 L128.635 612.184 Z" fill="#000000" fill-rule="nonzero" fill-opacity="1" /><path clip-path="url(#clip580)" d="M157.177 615.263 Q153.566 615.263 151.737 618.828 Q149.931 622.37 149.931 629.499 Q149.931 636.606 151.737 640.17 Q153.566 643.712 157.177 643.712 Q160.811 643.712 162.616 640.17 Q164.445 636.606 164.445 629.499 Q164.445 622.37 162.616 618.828 Q160.811 615.263 157.177 615.263 M157.177 611.559 Q162.987 611.559 166.042 616.166 Q169.121 620.749 169.121 629.499 Q169.121 638.226 166.042 642.832 Q162.987 647.416 157.177 647.416 Q151.366 647.416 148.288 642.832 Q145.232 638.226 145.232 629.499 Q145.232 620.749 148.288 616.166 Q151.366 611.559 157.177 611.559 Z" fill="#000000" fill-rule="nonzero" fill-opacity="1" /><path clip-path="url(#clip580)" d="M117.061 413.459 L135.417 413.459 L135.417 417.394 L121.343 417.394 L121.343 425.866 Q122.362 425.519 123.38 425.357 Q124.399 425.171 125.418 425.171 Q131.205 425.171 134.584 428.343 Q137.964 431.514 137.964 436.931 Q137.964 442.509 134.492 445.611 Q131.019 448.69 124.7 448.69 Q122.524 448.69 120.255 448.319 Q118.01 447.949 115.603 447.208 L115.603 442.509 Q117.686 443.644 119.908 444.199 Q122.13 444.755 124.607 444.755 Q128.612 444.755 130.95 442.648 Q133.288 440.542 133.288 436.931 Q133.288 433.32 130.95 431.213 Q128.612 429.107 124.607 429.107 Q122.732 429.107 120.857 429.523 Q119.006 429.94 117.061 430.82 L117.061 413.459 Z" fill="#000000" fill-rule="nonzero" fill-opacity="1" /><path clip-path="url(#clip580)" d="M157.177 416.537 Q153.566 416.537 151.737 420.102 Q149.931 423.644 149.931 430.773 Q149.931 437.88 151.737 441.445 Q153.566 444.986 157.177 444.986 Q160.811 444.986 162.616 441.445 Q164.445 437.88 164.445 430.773 Q164.445 423.644 162.616 420.102 Q160.811 416.537 157.177 416.537 M157.177 412.834 Q162.987 412.834 166.042 417.44 Q169.121 422.023 169.121 430.773 Q169.121 439.5 166.042 444.107 Q162.987 448.69 157.177 448.69 Q151.366 448.69 148.288 444.107 Q145.232 439.5 145.232 430.773 Q145.232 422.023 148.288 417.44 Q151.366 412.834 157.177 412.834 Z" fill="#000000" fill-rule="nonzero" fill-opacity="1" /><path clip-path="url(#clip580)" d="M127.593 230.149 Q124.445 230.149 122.593 232.302 Q120.765 234.455 120.765 238.205 Q120.765 241.932 122.593 244.108 Q124.445 246.26 127.593 246.26 Q130.742 246.26 132.57 244.108 Q134.422 241.932 134.422 238.205 Q134.422 234.455 132.57 232.302 Q130.742 230.149 127.593 230.149 M136.876 215.497 L136.876 219.756 Q135.117 218.923 133.311 218.483 Q131.529 218.043 129.769 218.043 Q125.14 218.043 122.686 221.168 Q120.255 224.293 119.908 230.612 Q121.274 228.598 123.334 227.534 Q125.394 226.446 127.871 226.446 Q133.08 226.446 136.089 229.617 Q139.121 232.765 139.121 238.205 Q139.121 243.529 135.973 246.746 Q132.825 249.964 127.593 249.964 Q121.598 249.964 118.427 245.381 Q115.256 240.774 115.256 232.047 Q115.256 223.853 119.144 218.992 Q123.033 214.108 129.584 214.108 Q131.343 214.108 133.126 214.455 Q134.931 214.802 136.876 215.497 Z" fill="#000000" fill-rule="nonzero" fill-opacity="1" /><path clip-path="url(#clip580)" d="M157.177 217.811 Q153.566 217.811 151.737 221.376 Q149.931 224.918 149.931 232.047 Q149.931 239.154 151.737 242.719 Q153.566 246.26 157.177 246.26 Q160.811 246.26 162.616 242.719 Q164.445 239.154 164.445 232.047 Q164.445 224.918 162.616 221.376 Q160.811 217.811 157.177 217.811 M157.177 214.108 Q162.987 214.108 166.042 218.714 Q169.121 223.298 169.121 232.047 Q169.121 240.774 166.042 245.381 Q162.987 249.964 157.177 249.964 Q151.366 249.964 148.288 245.381 Q145.232 240.774 145.232 232.047 Q145.232 223.298 148.288 218.714 Q151.366 214.108 157.177 214.108 Z" fill="#000000" fill-rule="nonzero" fill-opacity="1" /><path clip-path="url(#clip580)" d="M35.1993 1105.41 Q31.2526 1103.21 29.3747 1100.16 Q27.4968 1097.1 27.4968 1092.96 Q27.4968 1087.39 31.4117 1084.37 Q35.2948 1081.35 42.4881 1081.35 L64.0042 1081.35 L64.0042 1087.23 L42.679 1087.23 Q37.5546 1087.23 35.072 1089.05 Q32.5894 1090.86 32.5894 1094.59 Q32.5894 1099.14 35.6131 1101.78 Q38.6368 1104.42 43.8567 1104.42 L64.0042 1104.42 L64.0042 1110.31 L42.679 1110.31 Q37.5228 1110.31 35.072 1112.12 Q32.5894 1113.94 32.5894 1117.73 Q32.5894 1122.21 35.6449 1124.86 Q38.6686 1127.5 43.8567 1127.5 L64.0042 1127.5 L64.0042 1133.39 L28.3562 1133.39 L28.3562 1127.5 L33.8944 1127.5 Q30.616 1125.49 29.0564 1122.69 Q27.4968 1119.89 27.4968 1116.04 Q27.4968 1112.16 29.4702 1109.45 Q31.4436 1106.71 35.1993 1105.41 Z" fill="#000000" fill-rule="nonzero" fill-opacity="1" /><path clip-path="url(#clip580)" d="M44.7161 1039.17 L47.5806 1039.17 L47.5806 1066.1 Q53.6281 1065.72 56.8109 1062.47 Q59.9619 1059.19 59.9619 1053.37 Q59.9619 1050 59.1344 1046.84 Q58.3069 1043.66 56.6518 1040.54 L62.1899 1040.54 Q63.5267 1043.69 64.227 1047 Q64.9272 1050.31 64.9272 1053.72 Q64.9272 1062.25 59.9619 1067.25 Q54.9967 1072.21 46.5303 1072.21 Q37.7774 1072.21 32.6531 1067.5 Q27.4968 1062.76 27.4968 1054.74 Q27.4968 1047.54 32.1438 1043.38 Q36.7589 1039.17 44.7161 1039.17 M42.9973 1045.03 Q38.1912 1045.09 35.3266 1047.74 Q32.4621 1050.35 32.4621 1054.67 Q32.4621 1059.58 35.2312 1062.54 Q38.0002 1065.46 43.0292 1065.91 L42.9973 1045.03 Z" fill="#000000" fill-rule="nonzero" fill-opacity="1" /><path clip-path="url(#clip580)" d="M46.0847 1013.36 Q46.0847 1020.46 47.7079 1023.2 Q49.3312 1025.93 53.2461 1025.93 Q56.3653 1025.93 58.2114 1023.9 Q60.0256 1021.83 60.0256 1018.29 Q60.0256 1013.42 56.5881 1010.5 Q53.1188 1007.54 47.3897 1007.54 L46.0847 1007.54 L46.0847 1013.36 M43.6657 1001.68 L64.0042 1001.68 L64.0042 1007.54 L58.5933 1007.54 Q61.8398 1009.54 63.3994 1012.53 Q64.9272 1015.53 64.9272 1019.85 Q64.9272 1025.33 61.8716 1028.57 Q58.7843 1031.79 53.6281 1031.79 Q47.6125 1031.79 44.5569 1027.78 Q41.5014 1023.74 41.5014 1015.75 L41.5014 1007.54 L40.9285 1007.54 Q36.8862 1007.54 34.6901 1010.21 Q32.4621 1012.85 32.4621 1017.66 Q32.4621 1020.71 33.1941 1023.61 Q33.9262 1026.51 35.3903 1029.18 L29.9795 1029.18 Q28.7381 1025.96 28.1334 1022.94 Q27.4968 1019.92 27.4968 1017.05 Q27.4968 1009.32 31.5072 1005.5 Q35.5176 1001.68 43.6657 1001.68 Z" fill="#000000" fill-rule="nonzero" fill-opacity="1" /><path clip-path="url(#clip580)" d="M42.4881 959.984 L64.0042 959.984 L64.0042 965.841 L42.679 965.841 Q37.6183 965.841 35.1038 967.814 Q32.5894 969.788 32.5894 973.734 Q32.5894 978.477 35.6131 981.214 Q38.6368 983.951 43.8567 983.951 L64.0042 983.951 L64.0042 989.84 L28.3562 989.84 L28.3562 983.951 L33.8944 983.951 Q30.6797 981.851 29.0883 979.018 Q27.4968 976.153 27.4968 972.429 Q27.4968 966.286 31.3163 963.135 Q35.1038 959.984 42.4881 959.984 Z" fill="#000000" fill-rule="nonzero" fill-opacity="1" /><path clip-path="url(#clip580)" d="M18.2347 921.79 L28.3562 921.79 L28.3562 909.727 L32.9077 909.727 L32.9077 921.79 L52.2594 921.79 Q56.6199 921.79 57.8613 920.613 Q59.1026 919.403 59.1026 915.743 L59.1026 909.727 L64.0042 909.727 L64.0042 915.743 Q64.0042 922.522 61.4897 925.1 Q58.9434 927.678 52.2594 927.678 L32.9077 927.678 L32.9077 931.975 L28.3562 931.975 L28.3562 927.678 L18.2347 927.678 L18.2347 921.79 Z" fill="#000000" fill-rule="nonzero" fill-opacity="1" /><path clip-path="url(#clip580)" d="M33.8307 881.368 Q33.2578 882.355 33.0032 883.532 Q32.7167 884.678 32.7167 886.079 Q32.7167 891.044 35.9632 893.717 Q39.1779 896.359 45.2253 896.359 L64.0042 896.359 L64.0042 902.247 L28.3562 902.247 L28.3562 896.359 L33.8944 896.359 Q30.6479 894.513 29.0883 891.553 Q27.4968 888.593 27.4968 884.36 Q27.4968 883.755 27.5923 883.023 Q27.656 882.291 27.8151 881.4 L33.8307 881.368 Z" fill="#000000" fill-rule="nonzero" fill-opacity="1" /><path clip-path="url(#clip580)" d="M46.0847 859.024 Q46.0847 866.122 47.7079 868.859 Q49.3312 871.597 53.2461 871.597 Q56.3653 871.597 58.2114 869.56 Q60.0256 867.491 60.0256 863.958 Q60.0256 859.088 56.5881 856.16 Q53.1188 853.2 47.3897 853.2 L46.0847 853.2 L46.0847 859.024 M43.6657 847.343 L64.0042 847.343 L64.0042 853.2 L58.5933 853.2 Q61.8398 855.205 63.3994 858.197 Q64.9272 861.189 64.9272 865.517 Q64.9272 870.992 61.8716 874.238 Q58.7843 877.453 53.6281 877.453 Q47.6125 877.453 44.5569 873.443 Q41.5014 869.4 41.5014 861.411 L41.5014 853.2 L40.9285 853.2 Q36.8862 853.2 34.6901 855.873 Q32.4621 858.515 32.4621 863.321 Q32.4621 866.377 33.1941 869.273 Q33.9262 872.169 35.3903 874.843 L29.9795 874.843 Q28.7381 871.628 28.1334 868.605 Q27.4968 865.581 27.4968 862.716 Q27.4968 854.982 31.5072 851.163 Q35.5176 847.343 43.6657 847.343 Z" fill="#000000" fill-rule="nonzero" fill-opacity="1" /><path clip-path="url(#clip580)" d="M28.3562 835.28 L28.3562 829.424 L64.0042 829.424 L64.0042 835.28 L28.3562 835.28 M14.479 835.28 L14.479 829.424 L21.895 829.424 L21.895 835.28 L14.479 835.28 Z" fill="#000000" fill-rule="nonzero" fill-opacity="1" /><path clip-path="url(#clip580)" d="M42.4881 787.537 L64.0042 787.537 L64.0042 793.394 L42.679 793.394 Q37.6183 793.394 35.1038 795.367 Q32.5894 797.341 32.5894 801.287 Q32.5894 806.03 35.6131 808.767 Q38.6368 811.504 43.8567 811.504 L64.0042 811.504 L64.0042 817.393 L28.3562 817.393 L28.3562 811.504 L33.8944 811.504 Q30.6797 809.404 29.0883 806.571 Q27.4968 803.706 27.4968 799.982 Q27.4968 793.839 31.3163 790.688 Q35.1038 787.537 42.4881 787.537 Z" fill="#000000" fill-rule="nonzero" fill-opacity="1" /><path clip-path="url(#clip580)" d="M28.3562 775.856 L28.3562 770 L64.0042 770 L64.0042 775.856 L28.3562 775.856 M14.479 775.856 L14.479 770 L21.895 770 L21.895 775.856 L14.479 775.856 Z" fill="#000000" fill-rule="nonzero" fill-opacity="1" /><path clip-path="url(#clip580)" d="M42.4881 728.114 L64.0042 728.114 L64.0042 733.97 L42.679 733.97 Q37.6183 733.97 35.1038 735.943 Q32.5894 737.917 32.5894 741.863 Q32.5894 746.606 35.6131 749.343 Q38.6368 752.08 43.8567 752.08 L64.0042 752.08 L64.0042 757.969 L28.3562 757.969 L28.3562 752.08 L33.8944 752.08 Q30.6797 749.98 29.0883 747.147 Q27.4968 744.282 27.4968 740.559 Q27.4968 734.416 31.3163 731.265 Q35.1038 728.114 42.4881 728.114 Z" fill="#000000" fill-rule="nonzero" fill-opacity="1" /><path clip-path="url(#clip580)" d="M45.7664 692.975 Q39.4007 692.975 35.8996 695.617 Q32.3984 698.227 32.3984 702.969 Q32.3984 707.68 35.8996 710.321 Q39.4007 712.931 45.7664 712.931 Q52.1003 712.931 55.6014 710.321 Q59.1026 707.68 59.1026 702.969 Q59.1026 698.227 55.6014 695.617 Q52.1003 692.975 45.7664 692.975 M59.58 687.118 Q68.683 687.118 73.1071 691.161 Q77.5631 695.203 77.5631 703.542 Q77.5631 706.629 77.0857 709.367 Q76.6401 712.104 75.6852 714.682 L69.9879 714.682 Q71.3884 712.104 72.0568 709.589 Q72.7252 707.075 72.7252 704.465 Q72.7252 698.704 69.7015 695.839 Q66.7096 692.975 60.6303 692.975 L57.7339 692.975 Q60.885 694.789 62.4446 697.622 Q64.0042 700.455 64.0042 704.401 Q64.0042 710.958 59.0071 714.968 Q54.01 718.979 45.7664 718.979 Q37.491 718.979 32.4939 714.968 Q27.4968 710.958 27.4968 704.401 Q27.4968 700.455 29.0564 697.622 Q30.616 694.789 33.7671 692.975 L28.3562 692.975 L28.3562 687.118 L59.58 687.118 Z" fill="#000000" fill-rule="nonzero" fill-opacity="1" /><path clip-path="url(#clip580)" d="M18.2347 648.542 L28.3562 648.542 L28.3562 636.479 L32.9077 636.479 L32.9077 648.542 L52.2594 648.542 Q56.6199 648.542 57.8613 647.365 Q59.1026 646.155 59.1026 642.495 L59.1026 636.479 L64.0042 636.479 L64.0042 642.495 Q64.0042 649.274 61.4897 651.852 Q58.9434 654.43 52.2594 654.43 L32.9077 654.43 L32.9077 658.727 L28.3562 658.727 L28.3562 654.43 L18.2347 654.43 L18.2347 648.542 Z" fill="#000000" fill-rule="nonzero" fill-opacity="1" /><path clip-path="url(#clip580)" d="M28.3562 628.777 L28.3562 622.92 L64.0042 622.92 L64.0042 628.777 L28.3562 628.777 M14.479 628.777 L14.479 622.92 L21.895 622.92 L21.895 628.777 L14.479 628.777 Z" fill="#000000" fill-rule="nonzero" fill-opacity="1" /><path clip-path="url(#clip580)" d="M35.1993 582.912 Q31.2526 580.716 29.3747 577.66 Q27.4968 574.605 27.4968 570.467 Q27.4968 564.897 31.4117 561.873 Q35.2948 558.849 42.4881 558.849 L64.0042 558.849 L64.0042 564.738 L42.679 564.738 Q37.5546 564.738 35.072 566.552 Q32.5894 568.366 32.5894 572.09 Q32.5894 576.642 35.6131 579.283 Q38.6368 581.925 43.8567 581.925 L64.0042 581.925 L64.0042 587.813 L42.679 587.813 Q37.5228 587.813 35.072 589.628 Q32.5894 591.442 32.5894 595.229 Q32.5894 599.717 35.6449 602.359 Q38.6686 605.001 43.8567 605.001 L64.0042 605.001 L64.0042 610.889 L28.3562 610.889 L28.3562 605.001 L33.8944 605.001 Q30.616 602.996 29.0564 600.195 Q27.4968 597.394 27.4968 593.543 Q27.4968 589.659 29.4702 586.954 Q31.4436 584.217 35.1993 582.912 Z" fill="#000000" fill-rule="nonzero" fill-opacity="1" /><path clip-path="url(#clip580)" d="M44.7161 516.677 L47.5806 516.677 L47.5806 543.604 Q53.6281 543.222 56.8109 539.975 Q59.9619 536.697 59.9619 530.872 Q59.9619 527.498 59.1344 524.347 Q58.3069 521.164 56.6518 518.045 L62.1899 518.045 Q63.5267 521.196 64.227 524.506 Q64.9272 527.817 64.9272 531.222 Q64.9272 539.752 59.9619 544.749 Q54.9967 549.715 46.5303 549.715 Q37.7774 549.715 32.6531 545.004 Q27.4968 540.262 27.4968 532.241 Q27.4968 525.048 32.1438 520.878 Q36.7589 516.677 44.7161 516.677 M42.9973 522.533 Q38.1912 522.597 35.3266 525.238 Q32.4621 527.848 32.4621 532.177 Q32.4621 537.079 35.2312 540.039 Q38.0002 542.967 43.0292 543.413 L42.9973 522.533 Z" fill="#000000" fill-rule="nonzero" fill-opacity="1" /><path clip-path="url(#clip580)" d="M14.5426 472.276 Q21.8632 476.541 29.0246 478.61 Q36.186 480.679 43.5384 480.679 Q50.8908 480.679 58.1159 478.61 Q65.3091 476.509 72.5979 472.276 L72.5979 477.368 Q65.1182 482.143 57.8931 484.53 Q50.668 486.885 43.5384 486.885 Q36.4406 486.885 29.2474 484.53 Q22.0542 482.174 14.5426 477.368 L14.5426 472.276 Z" fill="#000000" fill-rule="nonzero" fill-opacity="1" /><path clip-path="url(#clip580)" d="M29.4065 438.187 L34.9447 438.187 Q33.6716 440.67 33.035 443.344 Q32.3984 446.017 32.3984 448.882 Q32.3984 453.242 33.7352 455.439 Q35.072 457.603 37.7456 457.603 Q39.7826 457.603 40.9603 456.043 Q42.1061 454.484 43.1565 449.773 L43.6021 447.768 Q44.9389 441.529 47.3897 438.92 Q49.8086 436.278 54.1691 436.278 Q59.1344 436.278 62.0308 440.224 Q64.9272 444.139 64.9272 451.014 Q64.9272 453.879 64.3543 456.998 Q63.8132 460.085 62.6992 463.523 L56.6518 463.523 Q58.3387 460.276 59.198 457.125 Q60.0256 453.974 60.0256 450.887 Q60.0256 446.749 58.6251 444.521 Q57.1929 442.293 54.6147 442.293 Q52.2276 442.293 50.9545 443.917 Q49.6813 445.508 48.5037 450.951 L48.0262 452.988 Q46.8804 458.43 44.5251 460.849 Q42.138 463.268 38.0002 463.268 Q32.9713 463.268 30.2341 459.704 Q27.4968 456.139 27.4968 449.582 Q27.4968 446.336 27.9743 443.471 Q28.4517 440.606 29.4065 438.187 Z" fill="#000000" fill-rule="nonzero" fill-opacity="1" /><path clip-path="url(#clip580)" d="M14.5426 427.875 L14.5426 422.782 Q22.0542 418.008 29.2474 415.653 Q36.4406 413.266 43.5384 413.266 Q50.668 413.266 57.8931 415.653 Q65.1182 418.008 72.5979 422.782 L72.5979 427.875 Q65.3091 423.642 58.1159 421.573 Q50.8908 419.472 43.5384 419.472 Q36.186 419.472 29.0246 421.573 Q21.8632 423.642 14.5426 427.875 Z" fill="#000000" fill-rule="nonzero" fill-opacity="1" /><path clip-path="url(#clip580)" d="M302.61 12.096 L353.773 12.096 L353.773 18.9825 L332.303 18.9825 L332.303 72.576 L324.08 72.576 L324.08 18.9825 L302.61 18.9825 L302.61 12.096 Z" fill="#000000" fill-rule="nonzero" fill-opacity="1" /><path clip-path="url(#clip580)" d="M375.445 34.1734 Q374.189 33.4443 372.69 33.1202 Q371.232 32.7556 369.45 32.7556 Q363.13 32.7556 359.728 36.8875 Q356.365 40.9789 356.365 48.6757 L356.365 72.576 L348.871 72.576 L348.871 27.2059 L356.365 27.2059 L356.365 34.2544 Q358.715 30.1225 362.482 28.1376 Q366.249 26.1121 371.637 26.1121 Q372.407 26.1121 373.339 26.2337 Q374.27 26.3147 375.405 26.5172 L375.445 34.1734 Z" fill="#000000" fill-rule="nonzero" fill-opacity="1" /><path clip-path="url(#clip580)" d="M403.882 49.7694 Q394.849 49.7694 391.365 51.8354 Q387.881 53.9013 387.881 58.8839 Q387.881 62.8538 390.474 65.2034 Q393.107 67.5124 397.603 67.5124 Q403.801 67.5124 407.528 63.1374 Q411.296 58.7219 411.296 51.4303 L411.296 49.7694 L403.882 49.7694 M418.749 46.6907 L418.749 72.576 L411.296 72.576 L411.296 65.6895 Q408.743 69.8214 404.936 71.8063 Q401.128 73.7508 395.619 73.7508 Q388.651 73.7508 384.519 69.8619 Q380.428 65.9325 380.428 59.3701 Q380.428 51.7138 385.532 47.825 Q390.676 43.9361 400.844 43.9361 L411.296 43.9361 L411.296 43.2069 Q411.296 38.0623 407.893 35.2672 Q404.531 32.4315 398.414 32.4315 Q394.525 32.4315 390.838 33.3632 Q387.152 34.295 383.749 36.1584 L383.749 29.2718 Q387.841 27.692 391.689 26.9223 Q395.538 26.1121 399.183 26.1121 Q409.027 26.1121 413.888 31.2163 Q418.749 36.3204 418.749 46.6907 Z" fill="#000000" fill-rule="nonzero" fill-opacity="1" /><path clip-path="url(#clip580)" d="M434.102 27.2059 L441.556 27.2059 L441.556 72.576 L434.102 72.576 L434.102 27.2059 M434.102 9.54393 L441.556 9.54393 L441.556 18.9825 L434.102 18.9825 L434.102 9.54393 Z" fill="#000000" fill-rule="nonzero" fill-opacity="1" /><path clip-path="url(#clip580)" d="M494.866 45.1919 L494.866 72.576 L487.412 72.576 L487.412 45.4349 Q487.412 38.994 484.9 35.7938 Q482.389 32.5936 477.366 32.5936 Q471.33 32.5936 467.846 36.4419 Q464.362 40.2903 464.362 46.9338 L464.362 72.576 L456.868 72.576 L456.868 27.2059 L464.362 27.2059 L464.362 34.2544 Q467.036 30.163 470.641 28.1376 Q474.287 26.1121 479.027 26.1121 Q486.845 26.1121 490.855 30.9732 Q494.866 35.7938 494.866 45.1919 Z" fill="#000000" fill-rule="nonzero" fill-opacity="1" /><path clip-path="url(#clip580)" d="M509.732 27.2059 L517.186 27.2059 L517.186 72.576 L509.732 72.576 L509.732 27.2059 M509.732 9.54393 L517.186 9.54393 L517.186 18.9825 L509.732 18.9825 L509.732 9.54393 Z" fill="#000000" fill-rule="nonzero" fill-opacity="1" /><path clip-path="url(#clip580)" d="M570.496 45.1919 L570.496 72.576 L563.042 72.576 L563.042 45.4349 Q563.042 38.994 560.531 35.7938 Q558.019 32.5936 552.996 32.5936 Q546.96 32.5936 543.477 36.4419 Q539.993 40.2903 539.993 46.9338 L539.993 72.576 L532.499 72.576 L532.499 27.2059 L539.993 27.2059 L539.993 34.2544 Q542.666 30.163 546.272 28.1376 Q549.917 26.1121 554.657 26.1121 Q562.475 26.1121 566.486 30.9732 Q570.496 35.7938 570.496 45.1919 Z" fill="#000000" fill-rule="nonzero" fill-opacity="1" /><path clip-path="url(#clip580)" d="M615.218 49.3643 Q615.218 41.2625 611.856 36.8065 Q608.534 32.3505 602.498 32.3505 Q596.503 32.3505 593.141 36.8065 Q589.819 41.2625 589.819 49.3643 Q589.819 57.4256 593.141 61.8816 Q596.503 66.3376 602.498 66.3376 Q608.534 66.3376 611.856 61.8816 Q615.218 57.4256 615.218 49.3643 M622.672 66.9452 Q622.672 78.5308 617.527 84.1616 Q612.382 89.8329 601.769 89.8329 Q597.84 89.8329 594.356 89.2252 Q590.872 88.6581 587.591 87.4428 L587.591 80.1917 Q590.872 81.9741 594.072 82.8248 Q597.273 83.6755 600.594 83.6755 Q607.926 83.6755 611.572 79.8271 Q615.218 76.0193 615.218 68.282 L615.218 64.5957 Q612.909 68.6061 609.304 70.5911 Q605.698 72.576 600.675 72.576 Q592.33 72.576 587.226 66.2161 Q582.122 59.8562 582.122 49.3643 Q582.122 38.832 587.226 32.472 Q592.33 26.1121 600.675 26.1121 Q605.698 26.1121 609.304 28.0971 Q612.909 30.082 615.218 34.0924 L615.218 27.2059 L622.672 27.2059 L622.672 66.9452 Z" fill="#000000" fill-rule="nonzero" fill-opacity="1" /><path clip-path="url(#clip580)" d="M700.976 14.0809 L700.976 22.0612 Q696.317 19.8332 692.185 18.7395 Q688.053 17.6457 684.205 17.6457 Q677.521 17.6457 673.875 20.2383 Q670.27 22.8309 670.27 27.611 Q670.27 31.6214 672.66 33.6873 Q675.09 35.7128 681.815 36.9686 L686.757 37.9813 Q695.912 39.7232 700.247 44.1387 Q704.621 48.5136 704.621 55.8863 Q704.621 64.6767 698.707 69.2137 Q692.833 73.7508 681.45 73.7508 Q677.156 73.7508 672.295 72.7785 Q667.475 71.8063 662.29 69.9024 L662.29 61.4765 Q667.272 64.2716 672.052 65.6895 Q676.832 67.1073 681.45 67.1073 Q688.458 67.1073 692.266 64.3527 Q696.074 61.598 696.074 56.4939 Q696.074 52.0379 693.319 49.5264 Q690.605 47.0148 684.367 45.759 L679.384 44.7868 Q670.229 42.9639 666.138 39.075 Q662.046 35.1862 662.046 28.2591 Q662.046 20.2383 667.677 15.6203 Q673.349 11.0023 683.273 11.0023 Q687.527 11.0023 691.942 11.7719 Q696.358 12.5416 700.976 14.0809 Z" fill="#000000" fill-rule="nonzero" fill-opacity="1" /><path clip-path="url(#clip580)" d="M755.865 48.0275 L755.865 51.6733 L721.595 51.6733 Q722.081 59.3701 726.213 63.421 Q730.385 67.4314 737.798 67.4314 Q742.092 67.4314 746.103 66.3781 Q750.154 65.3249 754.124 63.2184 L754.124 70.267 Q750.113 71.9684 745.9 72.8596 Q741.687 73.7508 737.353 73.7508 Q726.496 73.7508 720.136 67.4314 Q713.817 61.1119 713.817 50.3365 Q713.817 39.1965 719.812 32.6746 Q725.848 26.1121 736.057 26.1121 Q745.212 26.1121 750.518 32.0264 Q755.865 37.9003 755.865 48.0275 M748.412 45.84 Q748.331 39.7232 744.969 36.0774 Q741.647 32.4315 736.138 32.4315 Q729.899 32.4315 726.132 35.9558 Q722.405 39.4801 721.838 45.8805 L748.412 45.84 Z" fill="#000000" fill-rule="nonzero" fill-opacity="1" /><path clip-path="url(#clip580)" d="M775.472 14.324 L775.472 27.2059 L790.825 27.2059 L790.825 32.9987 L775.472 32.9987 L775.472 57.6282 Q775.472 63.1779 776.971 64.7578 Q778.51 66.3376 783.169 66.3376 L790.825 66.3376 L790.825 72.576 L783.169 72.576 Q774.54 72.576 771.259 69.3758 Q767.978 66.1351 767.978 57.6282 L767.978 32.9987 L762.509 32.9987 L762.509 27.2059 L767.978 27.2059 L767.978 14.324 L775.472 14.324 Z" fill="#000000" fill-rule="nonzero" fill-opacity="1" /><path clip-path="url(#clip580)" d="M863.579 14.0809 L863.579 22.0612 Q858.92 19.8332 854.789 18.7395 Q850.657 17.6457 846.808 17.6457 Q840.124 17.6457 836.478 20.2383 Q832.873 22.8309 832.873 27.611 Q832.873 31.6214 835.263 33.6873 Q837.694 35.7128 844.418 36.9686 L849.36 37.9813 Q858.515 39.7232 862.85 44.1387 Q867.225 48.5136 867.225 55.8863 Q867.225 64.6767 861.31 69.2137 Q855.437 73.7508 844.054 73.7508 Q839.76 73.7508 834.899 72.7785 Q830.078 71.8063 824.893 69.9024 L824.893 61.4765 Q829.875 64.2716 834.656 65.6895 Q839.436 67.1073 844.054 67.1073 Q851.062 67.1073 854.87 64.3527 Q858.677 61.598 858.677 56.4939 Q858.677 52.0379 855.923 49.5264 Q853.209 47.0148 846.97 45.759 L841.988 44.7868 Q832.833 42.9639 828.741 39.075 Q824.65 35.1862 824.65 28.2591 Q824.65 20.2383 830.281 15.6203 Q835.952 11.0023 845.877 11.0023 Q850.13 11.0023 854.545 11.7719 Q858.961 12.5416 863.579 14.0809 Z" fill="#000000" fill-rule="nonzero" fill-opacity="1" /><path clip-path="url(#clip580)" d="M879.661 27.2059 L887.115 27.2059 L887.115 72.576 L879.661 72.576 L879.661 27.2059 M879.661 9.54393 L887.115 9.54393 L887.115 18.9825 L879.661 18.9825 L879.661 9.54393 Z" fill="#000000" fill-rule="nonzero" fill-opacity="1" /><path clip-path="url(#clip580)" d="M899.47 27.2059 L934.875 27.2059 L934.875 34.0114 L906.843 66.6212 L934.875 66.6212 L934.875 72.576 L898.457 72.576 L898.457 65.7705 L926.49 33.1607 L899.47 33.1607 L899.47 27.2059 Z" fill="#000000" fill-rule="nonzero" fill-opacity="1" /><path clip-path="url(#clip580)" d="M985.066 48.0275 L985.066 51.6733 L950.795 51.6733 Q951.281 59.3701 955.413 63.421 Q959.585 67.4314 966.999 67.4314 Q971.293 67.4314 975.303 66.3781 Q979.354 65.3249 983.324 63.2184 L983.324 70.267 Q979.313 71.9684 975.1 72.8596 Q970.887 73.7508 966.553 73.7508 Q955.697 73.7508 949.337 67.4314 Q943.017 61.1119 943.017 50.3365 Q943.017 39.1965 949.013 32.6746 Q955.048 26.1121 965.257 26.1121 Q974.412 26.1121 979.718 32.0264 Q985.066 37.9003 985.066 48.0275 M977.612 45.84 Q977.531 39.7232 974.169 36.0774 Q970.847 32.4315 965.338 32.4315 Q959.099 32.4315 955.332 35.9558 Q951.605 39.4801 951.038 45.8805 L977.612 45.84 Z" fill="#000000" fill-rule="nonzero" fill-opacity="1" /><path clip-path="url(#clip580)" d="M1015.61 12.096 L1066.77 12.096 L1066.77 18.9825 L1045.3 18.9825 L1045.3 72.576 L1037.08 72.576 L1037.08 18.9825 L1015.61 18.9825 L1015.61 12.096 Z" fill="#000000" fill-rule="nonzero" fill-opacity="1" /><path clip-path="url(#clip580)" d="M1071.8 27.2059 L1079.25 27.2059 L1079.25 72.576 L1071.8 72.576 L1071.8 27.2059 M1071.8 9.54393 L1079.25 9.54393 L1079.25 18.9825 L1071.8 18.9825 L1071.8 9.54393 Z" fill="#000000" fill-rule="nonzero" fill-opacity="1" /><path clip-path="url(#clip580)" d="M1130.17 35.9153 Q1132.96 30.8922 1136.85 28.5022 Q1140.74 26.1121 1146.01 26.1121 Q1153.1 26.1121 1156.95 31.0947 Q1160.79 36.0368 1160.79 45.1919 L1160.79 72.576 L1153.3 72.576 L1153.3 45.4349 Q1153.3 38.913 1150.99 35.7533 Q1148.68 32.5936 1143.94 32.5936 Q1138.15 32.5936 1134.79 36.4419 Q1131.42 40.2903 1131.42 46.9338 L1131.42 72.576 L1123.93 72.576 L1123.93 45.4349 Q1123.93 38.8725 1121.62 35.7533 Q1119.31 32.5936 1114.49 32.5936 Q1108.78 32.5936 1105.42 36.4824 Q1102.06 40.3308 1102.06 46.9338 L1102.06 72.576 L1094.56 72.576 L1094.56 27.2059 L1102.06 27.2059 L1102.06 34.2544 Q1104.61 30.082 1108.17 28.0971 Q1111.74 26.1121 1116.64 26.1121 Q1121.58 26.1121 1125.02 28.6237 Q1128.51 31.1352 1130.17 35.9153 Z" fill="#000000" fill-rule="nonzero" fill-opacity="1" /><path clip-path="url(#clip580)" d="M1214.47 48.0275 L1214.47 51.6733 L1180.2 51.6733 Q1180.68 59.3701 1184.82 63.421 Q1188.99 67.4314 1196.4 67.4314 Q1200.7 67.4314 1204.71 66.3781 Q1208.76 65.3249 1212.73 63.2184 L1212.73 70.267 Q1208.72 71.9684 1204.5 72.8596 Q1200.29 73.7508 1195.96 73.7508 Q1185.1 73.7508 1178.74 67.4314 Q1172.42 61.1119 1172.42 50.3365 Q1172.42 39.1965 1178.42 32.6746 Q1184.45 26.1121 1194.66 26.1121 Q1203.81 26.1121 1209.12 32.0264 Q1214.47 37.9003 1214.47 48.0275 M1207.01 45.84 Q1206.93 39.7232 1203.57 36.0774 Q1200.25 32.4315 1194.74 32.4315 Q1188.5 32.4315 1184.73 35.9558 Q1181.01 39.4801 1180.44 45.8805 L1207.01 45.84 Z" fill="#000000" fill-rule="nonzero" fill-opacity="1" /><path clip-path="url(#clip580)" d="M1298.69 16.7545 L1298.69 25.383 Q1294.55 21.5346 1289.86 19.6307 Q1285.2 17.7268 1279.93 17.7268 Q1269.56 17.7268 1264.05 24.0867 Q1258.54 30.4061 1258.54 42.3968 Q1258.54 54.3469 1264.05 60.7069 Q1269.56 67.0263 1279.93 67.0263 Q1285.2 67.0263 1289.86 65.1223 Q1294.55 63.2184 1298.69 59.3701 L1298.69 67.9175 Q1294.39 70.8341 1289.57 72.2924 Q1284.79 73.7508 1279.44 73.7508 Q1265.71 73.7508 1257.81 65.3654 Q1249.91 56.9395 1249.91 42.3968 Q1249.91 27.8135 1257.81 19.4281 Q1265.71 11.0023 1279.44 11.0023 Q1284.87 11.0023 1289.65 12.4606 Q1294.47 13.8784 1298.69 16.7545 Z" fill="#000000" fill-rule="nonzero" fill-opacity="1" /><path clip-path="url(#clip580)" d="M1328.58 32.4315 Q1322.59 32.4315 1319.1 37.1306 Q1315.62 41.7891 1315.62 49.9314 Q1315.62 58.0738 1319.06 62.7728 Q1322.55 67.4314 1328.58 67.4314 Q1334.54 67.4314 1338.02 62.7323 Q1341.5 58.0333 1341.5 49.9314 Q1341.5 41.8701 1338.02 37.1711 Q1334.54 32.4315 1328.58 32.4315 M1328.58 26.1121 Q1338.3 26.1121 1343.85 32.4315 Q1349.4 38.7509 1349.4 49.9314 Q1349.4 61.0714 1343.85 67.4314 Q1338.3 73.7508 1328.58 73.7508 Q1318.82 73.7508 1313.27 67.4314 Q1307.76 61.0714 1307.76 49.9314 Q1307.76 38.7509 1313.27 32.4315 Q1318.82 26.1121 1328.58 26.1121 Z" fill="#000000" fill-rule="nonzero" fill-opacity="1" /><path clip-path="url(#clip580)" d="M1397.08 35.9153 Q1399.88 30.8922 1403.77 28.5022 Q1407.66 26.1121 1412.92 26.1121 Q1420.01 26.1121 1423.86 31.0947 Q1427.71 36.0368 1427.71 45.1919 L1427.71 72.576 L1420.21 72.576 L1420.21 45.4349 Q1420.21 38.913 1417.9 35.7533 Q1415.6 32.5936 1410.86 32.5936 Q1405.06 32.5936 1401.7 36.4419 Q1398.34 40.2903 1398.34 46.9338 L1398.34 72.576 L1390.84 72.576 L1390.84 45.4349 Q1390.84 38.8725 1388.54 35.7533 Q1386.23 32.5936 1381.41 32.5936 Q1375.69 32.5936 1372.33 36.4824 Q1368.97 40.3308 1368.97 46.9338 L1368.97 72.576 L1361.48 72.576 L1361.48 27.2059 L1368.97 27.2059 L1368.97 34.2544 Q1371.52 30.082 1375.09 28.0971 Q1378.65 26.1121 1383.55 26.1121 Q1388.5 26.1121 1391.94 28.6237 Q1395.42 31.1352 1397.08 35.9153 Z" fill="#000000" fill-rule="nonzero" fill-opacity="1" /><path clip-path="url(#clip580)" d="M1449.79 65.7705 L1449.79 89.8329 L1442.29 89.8329 L1442.29 27.2059 L1449.79 27.2059 L1449.79 34.0924 Q1452.13 30.0415 1455.7 28.0971 Q1459.3 26.1121 1464.29 26.1121 Q1472.55 26.1121 1477.7 32.6746 Q1482.88 39.2371 1482.88 49.9314 Q1482.88 60.6258 1477.7 67.1883 Q1472.55 73.7508 1464.29 73.7508 Q1459.3 73.7508 1455.7 71.8063 Q1452.13 69.8214 1449.79 65.7705 M1475.14 49.9314 Q1475.14 41.7081 1471.74 37.0496 Q1468.38 32.3505 1462.46 32.3505 Q1456.55 32.3505 1453.15 37.0496 Q1449.79 41.7081 1449.79 49.9314 Q1449.79 58.1548 1453.15 62.8538 Q1456.55 67.5124 1462.46 67.5124 Q1468.38 67.5124 1471.74 62.8538 Q1475.14 58.1548 1475.14 49.9314 Z" fill="#000000" fill-rule="nonzero" fill-opacity="1" /><path clip-path="url(#clip580)" d="M1495.24 9.54393 L1502.69 9.54393 L1502.69 72.576 L1495.24 72.576 L1495.24 9.54393 Z" fill="#000000" fill-rule="nonzero" fill-opacity="1" /><path clip-path="url(#clip580)" d="M1557.09 48.0275 L1557.09 51.6733 L1522.82 51.6733 Q1523.31 59.3701 1527.44 63.421 Q1531.61 67.4314 1539.03 67.4314 Q1543.32 67.4314 1547.33 66.3781 Q1551.38 65.3249 1555.35 63.2184 L1555.35 70.267 Q1551.34 71.9684 1547.13 72.8596 Q1542.92 73.7508 1538.58 73.7508 Q1527.72 73.7508 1521.36 67.4314 Q1515.05 61.1119 1515.05 50.3365 Q1515.05 39.1965 1521.04 32.6746 Q1527.08 26.1121 1537.28 26.1121 Q1546.44 26.1121 1551.75 32.0264 Q1557.09 37.9003 1557.09 48.0275 M1549.64 45.84 Q1549.56 39.7232 1546.2 36.0774 Q1542.88 32.4315 1537.37 32.4315 Q1531.13 32.4315 1527.36 35.9558 Q1523.63 39.4801 1523.07 45.8805 L1549.64 45.84 Z" fill="#000000" fill-rule="nonzero" fill-opacity="1" /><path clip-path="url(#clip580)" d="M1605.58 27.2059 L1589.18 49.2833 L1606.43 72.576 L1597.64 72.576 L1584.44 54.752 L1571.23 72.576 L1562.44 72.576 L1580.06 48.8377 L1563.94 27.2059 L1572.73 27.2059 L1584.76 43.369 L1596.79 27.2059 L1605.58 27.2059 Z" fill="#000000" fill-rule="nonzero" fill-opacity="1" /><path clip-path="url(#clip580)" d="M1616.97 27.2059 L1624.42 27.2059 L1624.42 72.576 L1616.97 72.576 L1616.97 27.2059 M1616.97 9.54393 L1624.42 9.54393 L1624.42 18.9825 L1616.97 18.9825 L1616.97 9.54393 Z" fill="#000000" fill-rule="nonzero" fill-opacity="1" /><path clip-path="url(#clip580)" d="M1647.39 14.324 L1647.39 27.2059 L1662.74 27.2059 L1662.74 32.9987 L1647.39 32.9987 L1647.39 57.6282 Q1647.39 63.1779 1648.89 64.7578 Q1650.43 66.3376 1655.09 66.3376 L1662.74 66.3376 L1662.74 72.576 L1655.09 72.576 Q1646.46 72.576 1643.18 69.3758 Q1639.89 66.1351 1639.89 57.6282 L1639.89 32.9987 L1634.43 32.9987 L1634.43 27.2059 L1639.89 27.2059 L1639.89 14.324 L1647.39 14.324 Z" fill="#000000" fill-rule="nonzero" fill-opacity="1" /><path clip-path="url(#clip580)" d="M1691.42 76.7889 Q1688.26 84.8907 1685.26 87.3618 Q1682.27 89.8329 1677.24 89.8329 L1671.29 89.8329 L1671.29 83.5945 L1675.66 83.5945 Q1678.74 83.5945 1680.44 82.1361 Q1682.15 80.6778 1684.21 75.2496 L1685.55 71.8468 L1667.2 27.2059 L1675.1 27.2059 L1689.27 62.6918 L1703.45 27.2059 L1711.35 27.2059 L1691.42 76.7889 Z" fill="#000000" fill-rule="nonzero" fill-opacity="1" /><path clip-path="url(#clip580)" d="M1723.55 62.2867 L1732.09 62.2867 L1732.09 69.2543 L1725.45 82.2172 L1720.22 82.2172 L1723.55 69.2543 L1723.55 62.2867 Z" fill="#000000" fill-rule="nonzero" fill-opacity="1" /><path clip-path="url(#clip580)" d="M1809.71 35.9153 Q1812.5 30.8922 1816.39 28.5022 Q1820.28 26.1121 1825.55 26.1121 Q1832.64 26.1121 1836.48 31.0947 Q1840.33 36.0368 1840.33 45.1919 L1840.33 72.576 L1832.84 72.576 L1832.84 45.4349 Q1832.84 38.913 1830.53 35.7533 Q1828.22 32.5936 1823.48 32.5936 Q1817.69 32.5936 1814.33 36.4419 Q1810.96 40.2903 1810.96 46.9338 L1810.96 72.576 L1803.47 72.576 L1803.47 45.4349 Q1803.47 38.8725 1801.16 35.7533 Q1798.85 32.5936 1794.03 32.5936 Q1788.32 32.5936 1784.96 36.4824 Q1781.59 40.3308 1781.59 46.9338 L1781.59 72.576 L1774.1 72.576 L1774.1 27.2059 L1781.59 27.2059 L1781.59 34.2544 Q1784.15 30.082 1787.71 28.0971 Q1791.28 26.1121 1796.18 26.1121 Q1801.12 26.1121 1804.56 28.6237 Q1808.05 31.1352 1809.71 35.9153 Z" fill="#000000" fill-rule="nonzero" fill-opacity="1" /><path clip-path="url(#clip580)" d="M1882.54 34.9026 L1934.48 34.9026 L1934.48 41.7081 L1882.54 41.7081 L1882.54 34.9026 M1882.54 51.4303 L1934.48 51.4303 L1934.48 58.3168 L1882.54 58.3168 L1882.54 51.4303 Z" fill="#000000" fill-rule="nonzero" fill-opacity="1" /><path clip-path="url(#clip580)" d="M1996.01 17.4837 Q1989.69 17.4837 1986.49 23.7221 Q1983.33 29.92 1983.33 42.3968 Q1983.33 54.833 1986.49 61.0714 Q1989.69 67.2693 1996.01 67.2693 Q2002.37 67.2693 2005.53 61.0714 Q2008.73 54.833 2008.73 42.3968 Q2008.73 29.92 2005.53 23.7221 Q2002.37 17.4837 1996.01 17.4837 M1996.01 11.0023 Q2006.18 11.0023 2011.52 19.0636 Q2016.91 27.0843 2016.91 42.3968 Q2016.91 57.6687 2011.52 65.73 Q2006.18 73.7508 1996.01 73.7508 Q1985.84 73.7508 1980.45 65.73 Q1975.11 57.6687 1975.11 42.3968 Q1975.11 27.0843 1980.45 19.0636 Q1985.84 11.0023 1996.01 11.0023 Z" fill="#000000" fill-rule="nonzero" fill-opacity="1" /><path clip-path="url(#clip580)" d="M2031.29 62.2867 L2039.84 62.2867 L2039.84 72.576 L2031.29 72.576 L2031.29 62.2867 Z" fill="#000000" fill-rule="nonzero" fill-opacity="1" /><path clip-path="url(#clip580)" d="M2057.91 71.3202 L2057.91 63.8666 Q2060.99 65.3249 2064.15 66.0946 Q2067.31 66.8642 2070.34 66.8642 Q2078.45 66.8642 2082.7 61.436 Q2086.99 55.9673 2087.6 44.8678 Q2085.25 48.3516 2081.65 50.215 Q2078.04 52.0784 2073.67 52.0784 Q2064.59 52.0784 2059.28 46.6097 Q2054.02 41.1005 2054.02 31.5808 Q2054.02 22.2638 2059.53 16.633 Q2065.04 11.0023 2074.19 11.0023 Q2084.68 11.0023 2090.19 19.0636 Q2095.74 27.0843 2095.74 42.3968 Q2095.74 56.6965 2088.94 65.2439 Q2082.17 73.7508 2070.71 73.7508 Q2067.63 73.7508 2064.47 73.1431 Q2061.31 72.5355 2057.91 71.3202 M2074.19 45.678 Q2079.7 45.678 2082.9 41.9107 Q2086.14 38.1433 2086.14 31.5808 Q2086.14 25.0589 2082.9 21.2916 Q2079.7 17.4837 2074.19 17.4837 Q2068.68 17.4837 2065.44 21.2916 Q2062.24 25.0589 2062.24 31.5808 Q2062.24 38.1433 2065.44 41.9107 Q2068.68 45.678 2074.19 45.678 Z" fill="#000000" fill-rule="nonzero" fill-opacity="1" /><path clip-path="url(#clip580)" d="M2111.87 65.6895 L2125.23 65.6895 L2125.23 19.5497 L2110.69 22.4663 L2110.69 15.0127 L2125.15 12.096 L2133.33 12.096 L2133.33 65.6895 L2146.7 65.6895 L2146.7 72.576 L2111.87 72.576 L2111.87 65.6895 Z" fill="#000000" fill-rule="nonzero" fill-opacity="1" /><path clip-path="url(#clip580)" d="M2185.71 19.2256 L2165.05 51.5113 L2185.71 51.5113 L2185.71 19.2256 M2183.57 12.096 L2193.86 12.096 L2193.86 51.5113 L2202.48 51.5113 L2202.48 58.3168 L2193.86 58.3168 L2193.86 72.576 L2185.71 72.576 L2185.71 58.3168 L2158.41 58.3168 L2158.41 50.4176 L2183.57 12.096 Z" fill="#000000" fill-rule="nonzero" fill-opacity="1" /><path clip-path="url(#clip580)" d="M2238.5 19.2256 L2217.84 51.5113 L2238.5 51.5113 L2238.5 19.2256 M2236.35 12.096 L2246.64 12.096 L2246.64 51.5113 L2255.27 51.5113 L2255.27 58.3168 L2246.64 58.3168 L2246.64 72.576 L2238.5 72.576 L2238.5 58.3168 L2211.19 58.3168 L2211.19 50.4176 L2236.35 12.096 Z" fill="#000000" fill-rule="nonzero" fill-opacity="1" /><polyline clip-path="url(#clip582)" style="stroke:#0000ff; stroke-linecap:round; stroke-linejoin:round; stroke-width:8; stroke-opacity:1; fill:none" points="265.903,1383.98 317.854,1358.46 421.755,1321.34 629.557,1225.14 837.359,1124.04 1045.16,1015.31 1252.96,924.35 1460.77,807.618 1668.57,704.437 1876.37,594.769 2084.17,497.227 2291.97,220.012 "/>
<polyline clip-path="url(#clip582)" style="stroke:#000000; stroke-linecap:round; stroke-linejoin:round; stroke-width:4; stroke-opacity:1; fill:none" points="265.903,1386.4 265.903,1381.56 "/>
<polyline clip-path="url(#clip582)" style="stroke:#000000; stroke-linecap:round; stroke-linejoin:round; stroke-width:4; stroke-opacity:1; fill:none" points="317.854,1364.38 317.854,1352.53 "/>
<polyline clip-path="url(#clip582)" style="stroke:#000000; stroke-linecap:round; stroke-linejoin:round; stroke-width:4; stroke-opacity:1; fill:none" points="421.755,1327.24 421.755,1315.43 "/>
<polyline clip-path="url(#clip582)" style="stroke:#000000; stroke-linecap:round; stroke-linejoin:round; stroke-width:4; stroke-opacity:1; fill:none" points="629.557,1232.98 629.557,1217.3 "/>
<polyline clip-path="url(#clip582)" style="stroke:#000000; stroke-linecap:round; stroke-linejoin:round; stroke-width:4; stroke-opacity:1; fill:none" points="837.359,1131.75 837.359,1116.33 "/>
<polyline clip-path="url(#clip582)" style="stroke:#000000; stroke-linecap:round; stroke-linejoin:round; stroke-width:4; stroke-opacity:1; fill:none" points="1045.16,1022.27 1045.16,1008.35 "/>
<polyline clip-path="url(#clip582)" style="stroke:#000000; stroke-linecap:round; stroke-linejoin:round; stroke-width:4; stroke-opacity:1; fill:none" points="1252.96,940.508 1252.96,908.193 "/>
<polyline clip-path="url(#clip582)" style="stroke:#000000; stroke-linecap:round; stroke-linejoin:round; stroke-width:4; stroke-opacity:1; fill:none" points="1460.77,828.734 1460.77,786.502 "/>
<polyline clip-path="url(#clip582)" style="stroke:#000000; stroke-linecap:round; stroke-linejoin:round; stroke-width:4; stroke-opacity:1; fill:none" points="1668.57,714.477 1668.57,694.397 "/>
<polyline clip-path="url(#clip582)" style="stroke:#000000; stroke-linecap:round; stroke-linejoin:round; stroke-width:4; stroke-opacity:1; fill:none" points="1876.37,612.983 1876.37,576.555 "/>
<polyline clip-path="url(#clip582)" style="stroke:#000000; stroke-linecap:round; stroke-linejoin:round; stroke-width:4; stroke-opacity:1; fill:none" points="2084.17,507.77 2084.17,486.683 "/>
<polyline clip-path="url(#clip582)" style="stroke:#000000; stroke-linecap:round; stroke-linejoin:round; stroke-width:4; stroke-opacity:1; fill:none" points="2291.97,279.767 2291.97,160.256 "/>
<line clip-path="url(#clip582)" x1="281.903" y1="1386.4" x2="249.903" y2="1386.4" style="stroke:#000000; stroke-width:4; stroke-opacity:1"/>
<line clip-path="url(#clip582)" x1="281.903" y1="1381.56" x2="249.903" y2="1381.56" style="stroke:#000000; stroke-width:4; stroke-opacity:1"/>
<line clip-path="url(#clip582)" x1="333.854" y1="1364.38" x2="301.854" y2="1364.38" style="stroke:#000000; stroke-width:4; stroke-opacity:1"/>
<line clip-path="url(#clip582)" x1="333.854" y1="1352.53" x2="301.854" y2="1352.53" style="stroke:#000000; stroke-width:4; stroke-opacity:1"/>
<line clip-path="url(#clip582)" x1="437.755" y1="1327.24" x2="405.755" y2="1327.24" style="stroke:#000000; stroke-width:4; stroke-opacity:1"/>
<line clip-path="url(#clip582)" x1="437.755" y1="1315.43" x2="405.755" y2="1315.43" style="stroke:#000000; stroke-width:4; stroke-opacity:1"/>
<line clip-path="url(#clip582)" x1="645.557" y1="1232.98" x2="613.557" y2="1232.98" style="stroke:#000000; stroke-width:4; stroke-opacity:1"/>
<line clip-path="url(#clip582)" x1="645.557" y1="1217.3" x2="613.557" y2="1217.3" style="stroke:#000000; stroke-width:4; stroke-opacity:1"/>
<line clip-path="url(#clip582)" x1="853.359" y1="1131.75" x2="821.359" y2="1131.75" style="stroke:#000000; stroke-width:4; stroke-opacity:1"/>
<line clip-path="url(#clip582)" x1="853.359" y1="1116.33" x2="821.359" y2="1116.33" style="stroke:#000000; stroke-width:4; stroke-opacity:1"/>
<line clip-path="url(#clip582)" x1="1061.16" y1="1022.27" x2="1029.16" y2="1022.27" style="stroke:#000000; stroke-width:4; stroke-opacity:1"/>
<line clip-path="url(#clip582)" x1="1061.16" y1="1008.35" x2="1029.16" y2="1008.35" style="stroke:#000000; stroke-width:4; stroke-opacity:1"/>
<line clip-path="url(#clip582)" x1="1268.96" y1="940.508" x2="1236.96" y2="940.508" style="stroke:#000000; stroke-width:4; stroke-opacity:1"/>
<line clip-path="url(#clip582)" x1="1268.96" y1="908.193" x2="1236.96" y2="908.193" style="stroke:#000000; stroke-width:4; stroke-opacity:1"/>
<line clip-path="url(#clip582)" x1="1476.77" y1="828.734" x2="1444.77" y2="828.734" style="stroke:#000000; stroke-width:4; stroke-opacity:1"/>
<line clip-path="url(#clip582)" x1="1476.77" y1="786.502" x2="1444.77" y2="786.502" style="stroke:#000000; stroke-width:4; stroke-opacity:1"/>
<line clip-path="url(#clip582)" x1="1684.57" y1="714.477" x2="1652.57" y2="714.477" style="stroke:#000000; stroke-width:4; stroke-opacity:1"/>
<line clip-path="url(#clip582)" x1="1684.57" y1="694.397" x2="1652.57" y2="694.397" style="stroke:#000000; stroke-width:4; stroke-opacity:1"/>
<line clip-path="url(#clip582)" x1="1892.37" y1="612.983" x2="1860.37" y2="612.983" style="stroke:#000000; stroke-width:4; stroke-opacity:1"/>
<line clip-path="url(#clip582)" x1="1892.37" y1="576.555" x2="1860.37" y2="576.555" style="stroke:#000000; stroke-width:4; stroke-opacity:1"/>
<line clip-path="url(#clip582)" x1="2100.17" y1="507.77" x2="2068.17" y2="507.77" style="stroke:#000000; stroke-width:4; stroke-opacity:1"/>
<line clip-path="url(#clip582)" x1="2100.17" y1="486.683" x2="2068.17" y2="486.683" style="stroke:#000000; stroke-width:4; stroke-opacity:1"/>
<line clip-path="url(#clip582)" x1="2307.97" y1="279.767" x2="2275.97" y2="279.767" style="stroke:#000000; stroke-width:4; stroke-opacity:1"/>
<line clip-path="url(#clip582)" x1="2307.97" y1="160.256" x2="2275.97" y2="160.256" style="stroke:#000000; stroke-width:4; stroke-opacity:1"/>
<circle clip-path="url(#clip582)" cx="265.903" cy="1383.98" r="14.4" fill="#0000ff" fill-rule="evenodd" fill-opacity="1" stroke="#000000" stroke-opacity="1" stroke-width="3.2"/>
<circle clip-path="url(#clip582)" cx="317.854" cy="1358.46" r="14.4" fill="#0000ff" fill-rule="evenodd" fill-opacity="1" stroke="#000000" stroke-opacity="1" stroke-width="3.2"/>
<circle clip-path="url(#clip582)" cx="421.755" cy="1321.34" r="14.4" fill="#0000ff" fill-rule="evenodd" fill-opacity="1" stroke="#000000" stroke-opacity="1" stroke-width="3.2"/>
<circle clip-path="url(#clip582)" cx="629.557" cy="1225.14" r="14.4" fill="#0000ff" fill-rule="evenodd" fill-opacity="1" stroke="#000000" stroke-opacity="1" stroke-width="3.2"/>
<circle clip-path="url(#clip582)" cx="837.359" cy="1124.04" r="14.4" fill="#0000ff" fill-rule="evenodd" fill-opacity="1" stroke="#000000" stroke-opacity="1" stroke-width="3.2"/>
<circle clip-path="url(#clip582)" cx="1045.16" cy="1015.31" r="14.4" fill="#0000ff" fill-rule="evenodd" fill-opacity="1" stroke="#000000" stroke-opacity="1" stroke-width="3.2"/>
<circle clip-path="url(#clip582)" cx="1252.96" cy="924.35" r="14.4" fill="#0000ff" fill-rule="evenodd" fill-opacity="1" stroke="#000000" stroke-opacity="1" stroke-width="3.2"/>
<circle clip-path="url(#clip582)" cx="1460.77" cy="807.618" r="14.4" fill="#0000ff" fill-rule="evenodd" fill-opacity="1" stroke="#000000" stroke-opacity="1" stroke-width="3.2"/>
<circle clip-path="url(#clip582)" cx="1668.57" cy="704.437" r="14.4" fill="#0000ff" fill-rule="evenodd" fill-opacity="1" stroke="#000000" stroke-opacity="1" stroke-width="3.2"/>
<circle clip-path="url(#clip582)" cx="1876.37" cy="594.769" r="14.4" fill="#0000ff" fill-rule="evenodd" fill-opacity="1" stroke="#000000" stroke-opacity="1" stroke-width="3.2"/>
<circle clip-path="url(#clip582)" cx="2084.17" cy="497.227" r="14.4" fill="#0000ff" fill-rule="evenodd" fill-opacity="1" stroke="#000000" stroke-opacity="1" stroke-width="3.2"/>
<circle clip-path="url(#clip582)" cx="2291.97" cy="220.012" r="14.4" fill="#0000ff" fill-rule="evenodd" fill-opacity="1" stroke="#000000" stroke-opacity="1" stroke-width="3.2"/>
</svg>
