<?xml version="1.0" encoding="utf-8"?>
<svg xmlns="http://www.w3.org/2000/svg" xmlns:xlink="http://www.w3.org/1999/xlink" width="600" height="400" viewBox="0 0 2400 1600">
<defs>
  <clipPath id="clip260">
    <rect x="0" y="0" width="2400" height="1600"/>
  </clipPath>
</defs>
<path clip-path="url(#clip260)" d="M0 1600 L2400 1600 L2400 8.88178e-14 L0 8.88178e-14  Z" fill="#ffffff" fill-rule="evenodd" fill-opacity="1"/>
<defs>
  <clipPath id="clip261">
    <rect x="480" y="0" width="1681" height="1600"/>
  </clipPath>
</defs>
<path clip-path="url(#clip260)" d="M205.121 1423.18 L2352.76 1423.18 L2352.76 123.472 L205.121 123.472  Z" fill="#ffffff" fill-rule="evenodd" fill-opacity="1"/>
<defs>
  <clipPath id="clip262">
    <rect x="205" y="123" width="2149" height="1301"/>
  </clipPath>
</defs>
<polyline clip-path="url(#clip262)" style="stroke:#000000; stroke-linecap:round; stroke-linejoin:round; stroke-width:2; stroke-opacity:0.05; fill:none" points="317.854,1423.18 317.854,123.472 "/>
<polyline clip-path="url(#clip262)" style="stroke:#000000; stroke-linecap:round; stroke-linejoin:round; stroke-width:2; stroke-opacity:0.05; fill:none" points="421.755,1423.18 421.755,123.472 "/>
<polyline clip-path="url(#clip262)" style="stroke:#000000; stroke-linecap:round; stroke-linejoin:round; stroke-width:2; stroke-opacity:0.05; fill:none" points="525.656,1423.18 525.656,123.472 "/>
<polyline clip-path="url(#clip262)" style="stroke:#000000; stroke-linecap:round; stroke-linejoin:round; stroke-width:2; stroke-opacity:0.05; fill:none" points="629.557,1423.18 629.557,123.472 "/>
<polyline clip-path="url(#clip262)" style="stroke:#000000; stroke-linecap:round; stroke-linejoin:round; stroke-width:2; stroke-opacity:0.05; fill:none" points="837.359,1423.18 837.359,123.472 "/>
<polyline clip-path="url(#clip262)" style="stroke:#000000; stroke-linecap:round; stroke-linejoin:round; stroke-width:2; stroke-opacity:0.05; fill:none" points="941.26,1423.18 941.26,123.472 "/>
<polyline clip-path="url(#clip262)" style="stroke:#000000; stroke-linecap:round; stroke-linejoin:round; stroke-width:2; stroke-opacity:0.05; fill:none" points="1045.16,1423.18 1045.16,123.472 "/>
<polyline clip-path="url(#clip262)" style="stroke:#000000; stroke-linecap:round; stroke-linejoin:round; stroke-width:2; stroke-opacity:0.05; fill:none" points="1149.06,1423.18 1149.06,123.472 "/>
<polyline clip-path="url(#clip262)" style="stroke:#000000; stroke-linecap:round; stroke-linejoin:round; stroke-width:2; stroke-opacity:0.05; fill:none" points="1356.86,1423.18 1356.86,123.472 "/>
<polyline clip-path="url(#clip262)" style="stroke:#000000; stroke-linecap:round; stroke-linejoin:round; stroke-width:2; stroke-opacity:0.05; fill:none" points="1460.77,1423.18 1460.77,123.472 "/>
<polyline clip-path="url(#clip262)" style="stroke:#000000; stroke-linecap:round; stroke-linejoin:round; stroke-width:2; stroke-opacity:0.05; fill:none" points="1564.67,1423.18 1564.67,123.472 "/>
<polyline clip-path="url(#clip262)" style="stroke:#000000; stroke-linecap:round; stroke-linejoin:round; stroke-width:2; stroke-opacity:0.05; fill:none" points="1668.57,1423.18 1668.57,123.472 "/>
<polyline clip-path="url(#clip262)" style="stroke:#000000; stroke-linecap:round; stroke-linejoin:round; stroke-width:2; stroke-opacity:0.05; fill:none" points="1876.37,1423.18 1876.37,123.472 "/>
<polyline clip-path="url(#clip262)" style="stroke:#000000; stroke-linecap:round; stroke-linejoin:round; stroke-width:2; stroke-opacity:0.05; fill:none" points="1980.27,1423.18 1980.27,123.472 "/>
<polyline clip-path="url(#clip262)" style="stroke:#000000; stroke-linecap:round; stroke-linejoin:round; stroke-width:2; stroke-opacity:0.05; fill:none" points="2084.17,1423.18 2084.17,123.472 "/>
<polyline clip-path="url(#clip262)" style="stroke:#000000; stroke-linecap:round; stroke-linejoin:round; stroke-width:2; stroke-opacity:0.05; fill:none" points="2188.07,1423.18 2188.07,123.472 "/>
<polyline clip-path="url(#clip262)" style="stroke:#000000; stroke-linecap:round; stroke-linejoin:round; stroke-width:2; stroke-opacity:0.05; fill:none" points="205.121,1385.96 2352.76,1385.96 "/>
<polyline clip-path="url(#clip262)" style="stroke:#000000; stroke-linecap:round; stroke-linejoin:round; stroke-width:2; stroke-opacity:0.05; fill:none" points="205.121,1341.09 2352.76,1341.09 "/>
<polyline clip-path="url(#clip262)" style="stroke:#000000; stroke-linecap:round; stroke-linejoin:round; stroke-width:2; stroke-opacity:0.05; fill:none" points="205.121,1296.21 2352.76,1296.21 "/>
<polyline clip-path="url(#clip262)" style="stroke:#000000; stroke-linecap:round; stroke-linejoin:round; stroke-width:2; stroke-opacity:0.05; fill:none" points="205.121,1251.34 2352.76,1251.34 "/>
<polyline clip-path="url(#clip262)" style="stroke:#000000; stroke-linecap:round; stroke-linejoin:round; stroke-width:2; stroke-opacity:0.05; fill:none" points="205.121,1161.59 2352.76,1161.59 "/>
<polyline clip-path="url(#clip262)" style="stroke:#000000; stroke-linecap:round; stroke-linejoin:round; stroke-width:2; stroke-opacity:0.05; fill:none" points="205.121,1116.71 2352.76,1116.71 "/>
<polyline clip-path="url(#clip262)" style="stroke:#000000; stroke-linecap:round; stroke-linejoin:round; stroke-width:2; stroke-opacity:0.05; fill:none" points="205.121,1071.84 2352.76,1071.84 "/>
<polyline clip-path="url(#clip262)" style="stroke:#000000; stroke-linecap:round; stroke-linejoin:round; stroke-width:2; stroke-opacity:0.05; fill:none" points="205.121,1026.97 2352.76,1026.97 "/>
<polyline clip-path="url(#clip262)" style="stroke:#000000; stroke-linecap:round; stroke-linejoin:round; stroke-width:2; stroke-opacity:0.05; fill:none" points="205.121,937.218 2352.76,937.218 "/>
<polyline clip-path="url(#clip262)" style="stroke:#000000; stroke-linecap:round; stroke-linejoin:round; stroke-width:2; stroke-opacity:0.05; fill:none" points="205.121,892.343 2352.76,892.343 "/>
<polyline clip-path="url(#clip262)" style="stroke:#000000; stroke-linecap:round; stroke-linejoin:round; stroke-width:2; stroke-opacity:0.05; fill:none" points="205.121,847.469 2352.76,847.469 "/>
<polyline clip-path="url(#clip262)" style="stroke:#000000; stroke-linecap:round; stroke-linejoin:round; stroke-width:2; stroke-opacity:0.05; fill:none" points="205.121,802.595 2352.76,802.595 "/>
<polyline clip-path="url(#clip262)" style="stroke:#000000; stroke-linecap:round; stroke-linejoin:round; stroke-width:2; stroke-opacity:0.05; fill:none" points="205.121,712.846 2352.76,712.846 "/>
<polyline clip-path="url(#clip262)" style="stroke:#000000; stroke-linecap:round; stroke-linejoin:round; stroke-width:2; stroke-opacity:0.05; fill:none" points="205.121,667.972 2352.76,667.972 "/>
<polyline clip-path="url(#clip262)" style="stroke:#000000; stroke-linecap:round; stroke-linejoin:round; stroke-width:2; stroke-opacity:0.05; fill:none" points="205.121,623.098 2352.76,623.098 "/>
<polyline clip-path="url(#clip262)" style="stroke:#000000; stroke-linecap:round; stroke-linejoin:round; stroke-width:2; stroke-opacity:0.05; fill:none" points="205.121,578.223 2352.76,578.223 "/>
<polyline clip-path="url(#clip262)" style="stroke:#000000; stroke-linecap:round; stroke-linejoin:round; stroke-width:2; stroke-opacity:0.05; fill:none" points="205.121,488.475 2352.76,488.475 "/>
<polyline clip-path="url(#clip262)" style="stroke:#000000; stroke-linecap:round; stroke-linejoin:round; stroke-width:2; stroke-opacity:0.05; fill:none" points="205.121,443.6 2352.76,443.6 "/>
<polyline clip-path="url(#clip262)" style="stroke:#000000; stroke-linecap:round; stroke-linejoin:round; stroke-width:2; stroke-opacity:0.05; fill:none" points="205.121,398.726 2352.76,398.726 "/>
<polyline clip-path="url(#clip262)" style="stroke:#000000; stroke-linecap:round; stroke-linejoin:round; stroke-width:2; stroke-opacity:0.05; fill:none" points="205.121,353.852 2352.76,353.852 "/>
<polyline clip-path="url(#clip262)" style="stroke:#000000; stroke-linecap:round; stroke-linejoin:round; stroke-width:2; stroke-opacity:0.05; fill:none" points="205.121,264.103 2352.76,264.103 "/>
<polyline clip-path="url(#clip262)" style="stroke:#000000; stroke-linecap:round; stroke-linejoin:round; stroke-width:2; stroke-opacity:0.05; fill:none" points="205.121,219.229 2352.76,219.229 "/>
<polyline clip-path="url(#clip262)" style="stroke:#000000; stroke-linecap:round; stroke-linejoin:round; stroke-width:2; stroke-opacity:0.05; fill:none" points="205.121,174.355 2352.76,174.355 "/>
<polyline clip-path="url(#clip262)" style="stroke:#000000; stroke-linecap:round; stroke-linejoin:round; stroke-width:2; stroke-opacity:0.05; fill:none" points="205.121,129.48 2352.76,129.48 "/>
<polyline clip-path="url(#clip262)" style="stroke:#000000; stroke-linecap:round; stroke-linejoin:round; stroke-width:2; stroke-opacity:0.1; fill:none" points="213.953,1423.18 213.953,123.472 "/>
<polyline clip-path="url(#clip262)" style="stroke:#000000; stroke-linecap:round; stroke-linejoin:round; stroke-width:2; stroke-opacity:0.1; fill:none" points="733.458,1423.18 733.458,123.472 "/>
<polyline clip-path="url(#clip262)" style="stroke:#000000; stroke-linecap:round; stroke-linejoin:round; stroke-width:2; stroke-opacity:0.1; fill:none" points="1252.96,1423.18 1252.96,123.472 "/>
<polyline clip-path="url(#clip262)" style="stroke:#000000; stroke-linecap:round; stroke-linejoin:round; stroke-width:2; stroke-opacity:0.1; fill:none" points="1772.47,1423.18 1772.47,123.472 "/>
<polyline clip-path="url(#clip262)" style="stroke:#000000; stroke-linecap:round; stroke-linejoin:round; stroke-width:2; stroke-opacity:0.1; fill:none" points="2291.97,1423.18 2291.97,123.472 "/>
<polyline clip-path="url(#clip262)" style="stroke:#000000; stroke-linecap:round; stroke-linejoin:round; stroke-width:2; stroke-opacity:0.1; fill:none" points="205.121,1206.46 2352.76,1206.46 "/>
<polyline clip-path="url(#clip262)" style="stroke:#000000; stroke-linecap:round; stroke-linejoin:round; stroke-width:2; stroke-opacity:0.1; fill:none" points="205.121,982.092 2352.76,982.092 "/>
<polyline clip-path="url(#clip262)" style="stroke:#000000; stroke-linecap:round; stroke-linejoin:round; stroke-width:2; stroke-opacity:0.1; fill:none" points="205.121,757.721 2352.76,757.721 "/>
<polyline clip-path="url(#clip262)" style="stroke:#000000; stroke-linecap:round; stroke-linejoin:round; stroke-width:2; stroke-opacity:0.1; fill:none" points="205.121,533.349 2352.76,533.349 "/>
<polyline clip-path="url(#clip262)" style="stroke:#000000; stroke-linecap:round; stroke-linejoin:round; stroke-width:2; stroke-opacity:0.1; fill:none" points="205.121,308.977 2352.76,308.977 "/>
<polyline clip-path="url(#clip260)" style="stroke:#000000; stroke-linecap:round; stroke-linejoin:round; stroke-width:4; stroke-opacity:1; fill:none" points="205.121,1423.18 2352.76,1423.18 "/>
<polyline clip-path="url(#clip260)" style="stroke:#000000; stroke-linecap:round; stroke-linejoin:round; stroke-width:4; stroke-opacity:1; fill:none" points="213.953,1423.18 213.953,1404.28 "/>
<polyline clip-path="url(#clip260)" style="stroke:#000000; stroke-linecap:round; stroke-linejoin:round; stroke-width:4; stroke-opacity:1; fill:none" points="733.458,1423.18 733.458,1404.28 "/>
<polyline clip-path="url(#clip260)" style="stroke:#000000; stroke-linecap:round; stroke-linejoin:round; stroke-width:4; stroke-opacity:1; fill:none" points="1252.96,1423.18 1252.96,1404.28 "/>
<polyline clip-path="url(#clip260)" style="stroke:#000000; stroke-linecap:round; stroke-linejoin:round; stroke-width:4; stroke-opacity:1; fill:none" points="1772.47,1423.18 1772.47,1404.28 "/>
<polyline clip-path="url(#clip260)" style="stroke:#000000; stroke-linecap:round; stroke-linejoin:round; stroke-width:4; stroke-opacity:1; fill:none" points="2291.97,1423.18 2291.97,1404.28 "/>
<polyline clip-path="url(#clip260)" style="stroke:#000000; stroke-linecap:round; stroke-linejoin:round; stroke-width:4; stroke-opacity:1; fill:none" points="317.854,1423.18 317.854,1413.73 "/>
<polyline clip-path="url(#clip260)" style="stroke:#000000; stroke-linecap:round; stroke-linejoin:round; stroke-width:4; stroke-opacity:1; fill:none" points="421.755,1423.18 421.755,1413.73 "/>
<polyline clip-path="url(#clip260)" style="stroke:#000000; stroke-linecap:round; stroke-linejoin:round; stroke-width:4; stroke-opacity:1; fill:none" points="525.656,1423.18 525.656,1413.73 "/>
<polyline clip-path="url(#clip260)" style="stroke:#000000; stroke-linecap:round; stroke-linejoin:round; stroke-width:4; stroke-opacity:1; fill:none" points="629.557,1423.18 629.557,1413.73 "/>
<polyline clip-path="url(#clip260)" style="stroke:#000000; stroke-linecap:round; stroke-linejoin:round; stroke-width:4; stroke-opacity:1; fill:none" points="837.359,1423.18 837.359,1413.73 "/>
<polyline clip-path="url(#clip260)" style="stroke:#000000; stroke-linecap:round; stroke-linejoin:round; stroke-width:4; stroke-opacity:1; fill:none" points="941.26,1423.18 941.26,1413.73 "/>
<polyline clip-path="url(#clip260)" style="stroke:#000000; stroke-linecap:round; stroke-linejoin:round; stroke-width:4; stroke-opacity:1; fill:none" points="1045.16,1423.18 1045.16,1413.73 "/>
<polyline clip-path="url(#clip260)" style="stroke:#000000; stroke-linecap:round; stroke-linejoin:round; stroke-width:4; stroke-opacity:1; fill:none" points="1149.06,1423.18 1149.06,1413.73 "/>
<polyline clip-path="url(#clip260)" style="stroke:#000000; stroke-linecap:round; stroke-linejoin:round; stroke-width:4; stroke-opacity:1; fill:none" points="1356.86,1423.18 1356.86,1413.73 "/>
<polyline clip-path="url(#clip260)" style="stroke:#000000; stroke-linecap:round; stroke-linejoin:round; stroke-width:4; stroke-opacity:1; fill:none" points="1460.77,1423.18 1460.77,1413.73 "/>
<polyline clip-path="url(#clip260)" style="stroke:#000000; stroke-linecap:round; stroke-linejoin:round; stroke-width:4; stroke-opacity:1; fill:none" points="1564.67,1423.18 1564.67,1413.73 "/>
<polyline clip-path="url(#clip260)" style="stroke:#000000; stroke-linecap:round; stroke-linejoin:round; stroke-width:4; stroke-opacity:1; fill:none" points="1668.57,1423.18 1668.57,1413.73 "/>
<polyline clip-path="url(#clip260)" style="stroke:#000000; stroke-linecap:round; stroke-linejoin:round; stroke-width:4; stroke-opacity:1; fill:none" points="1876.37,1423.18 1876.37,1413.73 "/>
<polyline clip-path="url(#clip260)" style="stroke:#000000; stroke-linecap:round; stroke-linejoin:round; stroke-width:4; stroke-opacity:1; fill:none" points="1980.27,1423.18 1980.27,1413.73 "/>
<polyline clip-path="url(#clip260)" style="stroke:#000000; stroke-linecap:round; stroke-linejoin:round; stroke-width:4; stroke-opacity:1; fill:none" points="2084.17,1423.18 2084.17,1413.73 "/>
<polyline clip-path="url(#clip260)" style="stroke:#000000; stroke-linecap:round; stroke-linejoin:round; stroke-width:4; stroke-opacity:1; fill:none" points="2188.07,1423.18 2188.07,1413.73 "/>
<path clip-path="url(#clip260)" d="M213.953 1454.1 Q210.341 1454.1 208.513 1457.66 Q206.707 1461.2 206.707 1468.33 Q206.707 1475.44 208.513 1479.01 Q210.341 1482.55 213.953 1482.55 Q217.587 1482.55 219.392 1479.01 Q221.221 1475.44 221.221 1468.33 Q221.221 1461.2 219.392 1457.66 Q217.587 1454.1 213.953 1454.1 M213.953 1450.39 Q219.763 1450.39 222.818 1455 Q225.897 1459.58 225.897 1468.33 Q225.897 1477.06 222.818 1481.67 Q219.763 1486.25 213.953 1486.25 Q208.142 1486.25 205.064 1481.67 Q202.008 1477.06 202.008 1468.33 Q202.008 1459.58 205.064 1455 Q208.142 1450.39 213.953 1450.39 Z" fill="#000000" fill-rule="nonzero" fill-opacity="1" /><path clip-path="url(#clip260)" d="M697.15 1481.64 L713.47 1481.64 L713.47 1485.58 L691.525 1485.58 L691.525 1481.64 Q694.187 1478.89 698.771 1474.26 Q703.377 1469.61 704.558 1468.27 Q706.803 1465.74 707.683 1464.01 Q708.585 1462.25 708.585 1460.56 Q708.585 1457.8 706.641 1456.07 Q704.72 1454.33 701.618 1454.33 Q699.419 1454.33 696.965 1455.09 Q694.534 1455.86 691.757 1457.41 L691.757 1452.69 Q694.581 1451.55 697.034 1450.97 Q699.488 1450.39 701.525 1450.39 Q706.896 1450.39 710.09 1453.08 Q713.284 1455.77 713.284 1460.26 Q713.284 1462.39 712.474 1464.31 Q711.687 1466.2 709.581 1468.8 Q709.002 1469.47 705.9 1472.69 Q702.798 1475.88 697.15 1481.64 Z" fill="#000000" fill-rule="nonzero" fill-opacity="1" /><path clip-path="url(#clip260)" d="M723.331 1451.02 L741.687 1451.02 L741.687 1454.96 L727.613 1454.96 L727.613 1463.43 Q728.632 1463.08 729.65 1462.92 Q730.669 1462.73 731.687 1462.73 Q737.474 1462.73 740.854 1465.9 Q744.233 1469.08 744.233 1474.49 Q744.233 1480.07 740.761 1483.17 Q737.289 1486.25 730.969 1486.25 Q728.794 1486.25 726.525 1485.88 Q724.28 1485.51 721.872 1484.77 L721.872 1480.07 Q723.956 1481.2 726.178 1481.76 Q728.4 1482.32 730.877 1482.32 Q734.881 1482.32 737.219 1480.21 Q739.557 1478.1 739.557 1474.49 Q739.557 1470.88 737.219 1468.77 Q734.881 1466.67 730.877 1466.67 Q729.002 1466.67 727.127 1467.08 Q725.275 1467.5 723.331 1468.38 L723.331 1451.02 Z" fill="#000000" fill-rule="nonzero" fill-opacity="1" /><path clip-path="url(#clip260)" d="M763.446 1454.1 Q759.835 1454.1 758.006 1457.66 Q756.201 1461.2 756.201 1468.33 Q756.201 1475.44 758.006 1479.01 Q759.835 1482.55 763.446 1482.55 Q767.08 1482.55 768.886 1479.01 Q770.715 1475.44 770.715 1468.33 Q770.715 1461.2 768.886 1457.66 Q767.08 1454.1 763.446 1454.1 M763.446 1450.39 Q769.256 1450.39 772.312 1455 Q775.391 1459.58 775.391 1468.33 Q775.391 1477.06 772.312 1481.67 Q769.256 1486.25 763.446 1486.25 Q757.636 1486.25 754.557 1481.67 Q751.502 1477.06 751.502 1468.33 Q751.502 1459.58 754.557 1455 Q757.636 1450.39 763.446 1450.39 Z" fill="#000000" fill-rule="nonzero" fill-opacity="1" /><path clip-path="url(#clip260)" d="M1212.58 1451.02 L1230.94 1451.02 L1230.94 1454.96 L1216.86 1454.96 L1216.86 1463.43 Q1217.88 1463.08 1218.9 1462.92 Q1219.92 1462.73 1220.94 1462.73 Q1226.72 1462.73 1230.1 1465.9 Q1233.48 1469.08 1233.48 1474.49 Q1233.48 1480.07 1230.01 1483.17 Q1226.54 1486.25 1220.22 1486.25 Q1218.04 1486.25 1215.78 1485.88 Q1213.53 1485.51 1211.12 1484.77 L1211.12 1480.07 Q1213.21 1481.2 1215.43 1481.76 Q1217.65 1482.32 1220.13 1482.32 Q1224.13 1482.32 1226.47 1480.21 Q1228.81 1478.1 1228.81 1474.49 Q1228.81 1470.88 1226.47 1468.77 Q1224.13 1466.67 1220.13 1466.67 Q1218.25 1466.67 1216.38 1467.08 Q1214.53 1467.5 1212.58 1468.38 L1212.58 1451.02 Z" fill="#000000" fill-rule="nonzero" fill-opacity="1" /><path clip-path="url(#clip260)" d="M1252.7 1454.1 Q1249.09 1454.1 1247.26 1457.66 Q1245.45 1461.2 1245.45 1468.33 Q1245.45 1475.44 1247.26 1479.01 Q1249.09 1482.55 1252.7 1482.55 Q1256.33 1482.55 1258.14 1479.01 Q1259.97 1475.44 1259.97 1468.33 Q1259.97 1461.2 1258.14 1457.66 Q1256.33 1454.1 1252.7 1454.1 M1252.7 1450.39 Q1258.51 1450.39 1261.56 1455 Q1264.64 1459.58 1264.64 1468.33 Q1264.64 1477.06 1261.56 1481.67 Q1258.51 1486.25 1252.7 1486.25 Q1246.89 1486.25 1243.81 1481.67 Q1240.75 1477.06 1240.75 1468.33 Q1240.75 1459.58 1243.81 1455 Q1246.89 1450.39 1252.7 1450.39 Z" fill="#000000" fill-rule="nonzero" fill-opacity="1" /><path clip-path="url(#clip260)" d="M1282.86 1454.1 Q1279.25 1454.1 1277.42 1457.66 Q1275.61 1461.2 1275.61 1468.33 Q1275.61 1475.44 1277.42 1479.01 Q1279.25 1482.55 1282.86 1482.55 Q1286.49 1482.55 1288.3 1479.01 Q1290.13 1475.44 1290.13 1468.33 Q1290.13 1461.2 1288.3 1457.66 Q1286.49 1454.1 1282.86 1454.1 M1282.86 1450.39 Q1288.67 1450.39 1291.72 1455 Q1294.8 1459.58 1294.8 1468.33 Q1294.8 1477.06 1291.72 1481.67 Q1288.67 1486.25 1282.86 1486.25 Q1277.05 1486.25 1273.97 1481.67 Q1270.91 1477.06 1270.91 1468.33 Q1270.91 1459.58 1273.97 1455 Q1277.05 1450.39 1282.86 1450.39 Z" fill="#000000" fill-rule="nonzero" fill-opacity="1" /><path clip-path="url(#clip260)" d="M1730.74 1451.02 L1752.97 1451.02 L1752.97 1453.01 L1740.42 1485.58 L1735.54 1485.58 L1747.34 1454.96 L1730.74 1454.96 L1730.74 1451.02 Z" fill="#000000" fill-rule="nonzero" fill-opacity="1" /><path clip-path="url(#clip260)" d="M1762.13 1451.02 L1780.49 1451.02 L1780.49 1454.96 L1766.42 1454.96 L1766.42 1463.43 Q1767.43 1463.08 1768.45 1462.92 Q1769.47 1462.73 1770.49 1462.73 Q1776.28 1462.73 1779.66 1465.9 Q1783.04 1469.08 1783.04 1474.49 Q1783.04 1480.07 1779.56 1483.17 Q1776.09 1486.25 1769.77 1486.25 Q1767.6 1486.25 1765.33 1485.88 Q1763.08 1485.51 1760.67 1484.77 L1760.67 1480.07 Q1762.76 1481.2 1764.98 1481.76 Q1767.2 1482.32 1769.68 1482.32 Q1773.68 1482.32 1776.02 1480.21 Q1778.36 1478.1 1778.36 1474.49 Q1778.36 1470.88 1776.02 1468.77 Q1773.68 1466.67 1769.68 1466.67 Q1767.8 1466.67 1765.93 1467.08 Q1764.08 1467.5 1762.13 1468.38 L1762.13 1451.02 Z" fill="#000000" fill-rule="nonzero" fill-opacity="1" /><path clip-path="url(#clip260)" d="M1802.25 1454.1 Q1798.64 1454.1 1796.81 1457.66 Q1795 1461.2 1795 1468.33 Q1795 1475.44 1796.81 1479.01 Q1798.64 1482.55 1802.25 1482.55 Q1805.88 1482.55 1807.69 1479.01 Q1809.52 1475.44 1809.52 1468.33 Q1809.52 1461.2 1807.69 1457.66 Q1805.88 1454.1 1802.25 1454.1 M1802.25 1450.39 Q1808.06 1450.39 1811.11 1455 Q1814.19 1459.58 1814.19 1468.33 Q1814.19 1477.06 1811.11 1481.67 Q1808.06 1486.25 1802.25 1486.25 Q1796.44 1486.25 1793.36 1481.67 Q1790.3 1477.06 1790.3 1468.33 Q1790.3 1459.58 1793.36 1455 Q1796.44 1450.39 1802.25 1450.39 Z" fill="#000000" fill-rule="nonzero" fill-opacity="1" /><path clip-path="url(#clip260)" d="M2236.5 1481.64 L2244.14 1481.64 L2244.14 1455.28 L2235.83 1456.95 L2235.83 1452.69 L2244.09 1451.02 L2248.77 1451.02 L2248.77 1481.64 L2256.41 1481.64 L2256.41 1485.58 L2236.5 1485.58 L2236.5 1481.64 Z" fill="#000000" fill-rule="nonzero" fill-opacity="1" /><path clip-path="url(#clip260)" d="M2275.85 1454.1 Q2272.24 1454.1 2270.41 1457.66 Q2268.61 1461.2 2268.61 1468.33 Q2268.61 1475.44 2270.41 1479.01 Q2272.24 1482.55 2275.85 1482.55 Q2279.49 1482.55 2281.29 1479.01 Q2283.12 1475.44 2283.12 1468.33 Q2283.12 1461.2 2281.29 1457.66 Q2279.49 1454.1 2275.85 1454.1 M2275.85 1450.39 Q2281.66 1450.39 2284.72 1455 Q2287.8 1459.58 2287.8 1468.33 Q2287.8 1477.06 2284.72 1481.67 Q2281.66 1486.25 2275.85 1486.25 Q2270.04 1486.25 2266.96 1481.67 Q2263.91 1477.06 2263.91 1468.33 Q2263.91 1459.58 2266.96 1455 Q2270.04 1450.39 2275.85 1450.39 Z" fill="#000000" fill-rule="nonzero" fill-opacity="1" /><path clip-path="url(#clip260)" d="M2306.01 1454.1 Q2302.4 1454.1 2300.57 1457.66 Q2298.77 1461.2 2298.77 1468.33 Q2298.77 1475.44 2300.57 1479.01 Q2302.4 1482.55 2306.01 1482.55 Q2309.65 1482.55 2311.45 1479.01 Q2313.28 1475.44 2313.28 1468.33 Q2313.28 1461.2 2311.45 1457.66 Q2309.65 1454.1 2306.01 1454.1 M2306.01 1450.39 Q2311.82 1450.39 2314.88 1455 Q2317.96 1459.58 2317.96 1468.33 Q2317.96 1477.06 2314.88 1481.67 Q2311.82 1486.25 2306.01 1486.25 Q2300.2 1486.25 2297.12 1481.67 Q2294.07 1477.06 2294.07 1468.33 Q2294.07 1459.58 2297.12 1455 Q2300.2 1450.39 2306.01 1450.39 Z" fill="#000000" fill-rule="nonzero" fill-opacity="1" /><path clip-path="url(#clip260)" d="M2336.17 1454.1 Q2332.56 1454.1 2330.74 1457.66 Q2328.93 1461.2 2328.93 1468.33 Q2328.93 1475.44 2330.74 1479.01 Q2332.56 1482.55 2336.17 1482.55 Q2339.81 1482.55 2341.61 1479.01 Q2343.44 1475.44 2343.44 1468.33 Q2343.44 1461.2 2341.61 1457.66 Q2339.81 1454.1 2336.17 1454.1 M2336.17 1450.39 Q2341.99 1450.39 2345.04 1455 Q2348.12 1459.58 2348.12 1468.33 Q2348.12 1477.06 2345.04 1481.67 Q2341.99 1486.25 2336.17 1486.25 Q2330.36 1486.25 2327.29 1481.67 Q2324.23 1477.06 2324.23 1468.33 Q2324.23 1459.58 2327.29 1455 Q2330.36 1450.39 2336.17 1450.39 Z" fill="#000000" fill-rule="nonzero" fill-opacity="1" /><path clip-path="url(#clip260)" d="M1031.74 1522.27 L1031.74 1532.4 L1043.81 1532.4 L1043.81 1536.95 L1031.74 1536.95 L1031.74 1556.3 Q1031.74 1560.66 1032.92 1561.9 Q1034.13 1563.14 1037.79 1563.14 L1043.81 1563.14 L1043.81 1568.04 L1037.79 1568.04 Q1031.01 1568.04 1028.43 1565.53 Q1025.85 1562.98 1025.85 1556.3 L1025.85 1536.95 L1021.56 1536.95 L1021.56 1532.4 L1025.85 1532.4 L1025.85 1522.27 L1031.74 1522.27 Z" fill="#000000" fill-rule="nonzero" fill-opacity="1" /><path clip-path="url(#clip260)" d="M1072.16 1537.87 Q1071.18 1537.3 1070 1537.04 Q1068.85 1536.76 1067.45 1536.76 Q1062.49 1536.76 1059.81 1540 Q1057.17 1543.22 1057.17 1549.27 L1057.17 1568.04 L1051.28 1568.04 L1051.28 1532.4 L1057.17 1532.4 L1057.17 1537.93 Q1059.02 1534.69 1061.98 1533.13 Q1064.94 1531.54 1069.17 1531.54 Q1069.78 1531.54 1070.51 1531.63 Q1071.24 1531.7 1072.13 1531.85 L1072.16 1537.87 Z" fill="#000000" fill-rule="nonzero" fill-opacity="1" /><path clip-path="url(#clip260)" d="M1094.51 1550.12 Q1087.41 1550.12 1084.67 1551.75 Q1081.94 1553.37 1081.94 1557.29 Q1081.94 1560.4 1083.97 1562.25 Q1086.04 1564.07 1089.57 1564.07 Q1094.44 1564.07 1097.37 1560.63 Q1100.33 1557.16 1100.33 1551.43 L1100.33 1550.12 L1094.51 1550.12 M1106.19 1547.71 L1106.19 1568.04 L1100.33 1568.04 L1100.33 1562.63 Q1098.33 1565.88 1095.34 1567.44 Q1092.34 1568.97 1088.01 1568.97 Q1082.54 1568.97 1079.29 1565.91 Q1076.08 1562.82 1076.08 1557.67 Q1076.08 1551.65 1080.09 1548.6 Q1084.13 1545.54 1092.12 1545.54 L1100.33 1545.54 L1100.33 1544.97 Q1100.33 1540.93 1097.66 1538.73 Q1095.02 1536.5 1090.21 1536.5 Q1087.16 1536.5 1084.26 1537.23 Q1081.36 1537.97 1078.69 1539.43 L1078.69 1534.02 Q1081.9 1532.78 1084.93 1532.17 Q1087.95 1531.54 1090.82 1531.54 Q1098.55 1531.54 1102.37 1535.55 Q1106.19 1539.56 1106.19 1547.71 Z" fill="#000000" fill-rule="nonzero" fill-opacity="1" /><path clip-path="url(#clip260)" d="M1118.25 1532.4 L1124.11 1532.4 L1124.11 1568.04 L1118.25 1568.04 L1118.25 1532.4 M1118.25 1518.52 L1124.11 1518.52 L1124.11 1525.93 L1118.25 1525.93 L1118.25 1518.52 Z" fill="#000000" fill-rule="nonzero" fill-opacity="1" /><path clip-path="url(#clip260)" d="M1165.99 1546.53 L1165.99 1568.04 L1160.14 1568.04 L1160.14 1546.72 Q1160.14 1541.66 1158.17 1539.14 Q1156.19 1536.63 1152.24 1536.63 Q1147.5 1536.63 1144.77 1539.65 Q1142.03 1542.68 1142.03 1547.9 L1142.03 1568.04 L1136.14 1568.04 L1136.14 1532.4 L1142.03 1532.4 L1142.03 1537.93 Q1144.13 1534.72 1146.96 1533.13 Q1149.83 1531.54 1153.55 1531.54 Q1159.69 1531.54 1162.84 1535.36 Q1165.99 1539.14 1165.99 1546.53 Z" fill="#000000" fill-rule="nonzero" fill-opacity="1" /><path clip-path="url(#clip260)" d="M1177.68 1532.4 L1183.53 1532.4 L1183.53 1568.04 L1177.68 1568.04 L1177.68 1532.4 M1177.68 1518.52 L1183.53 1518.52 L1183.53 1525.93 L1177.68 1525.93 L1177.68 1518.52 Z" fill="#000000" fill-rule="nonzero" fill-opacity="1" /><path clip-path="url(#clip260)" d="M1225.42 1546.53 L1225.42 1568.04 L1219.56 1568.04 L1219.56 1546.72 Q1219.56 1541.66 1217.59 1539.14 Q1215.62 1536.63 1211.67 1536.63 Q1206.93 1536.63 1204.19 1539.65 Q1201.45 1542.68 1201.45 1547.9 L1201.45 1568.04 L1195.56 1568.04 L1195.56 1532.4 L1201.45 1532.4 L1201.45 1537.93 Q1203.55 1534.72 1206.39 1533.13 Q1209.25 1531.54 1212.97 1531.54 Q1219.12 1531.54 1222.27 1535.36 Q1225.42 1539.14 1225.42 1546.53 Z" fill="#000000" fill-rule="nonzero" fill-opacity="1" /><path clip-path="url(#clip260)" d="M1260.56 1549.81 Q1260.56 1543.44 1257.92 1539.94 Q1255.31 1536.44 1250.56 1536.44 Q1245.85 1536.44 1243.21 1539.94 Q1240.6 1543.44 1240.6 1549.81 Q1240.6 1556.14 1243.21 1559.64 Q1245.85 1563.14 1250.56 1563.14 Q1255.31 1563.14 1257.92 1559.64 Q1260.56 1556.14 1260.56 1549.81 M1266.41 1563.62 Q1266.41 1572.72 1262.37 1577.15 Q1258.33 1581.6 1249.99 1581.6 Q1246.9 1581.6 1244.17 1581.13 Q1241.43 1580.68 1238.85 1579.72 L1238.85 1574.03 Q1241.43 1575.43 1243.94 1576.1 Q1246.46 1576.76 1249.07 1576.76 Q1254.83 1576.76 1257.69 1573.74 Q1260.56 1570.75 1260.56 1564.67 L1260.56 1561.77 Q1258.74 1564.92 1255.91 1566.48 Q1253.08 1568.04 1249.13 1568.04 Q1242.57 1568.04 1238.56 1563.05 Q1234.55 1558.05 1234.55 1549.81 Q1234.55 1541.53 1238.56 1536.53 Q1242.57 1531.54 1249.13 1531.54 Q1253.08 1531.54 1255.91 1533.1 Q1258.74 1534.66 1260.56 1537.81 L1260.56 1532.4 L1266.41 1532.4 L1266.41 1563.62 Z" fill="#000000" fill-rule="nonzero" fill-opacity="1" /><path clip-path="url(#clip260)" d="M1321.92 1533.45 L1321.92 1538.98 Q1319.44 1537.71 1316.77 1537.07 Q1314.09 1536.44 1311.23 1536.44 Q1306.87 1536.44 1304.67 1537.77 Q1302.51 1539.11 1302.51 1541.79 Q1302.51 1543.82 1304.07 1545 Q1305.63 1546.15 1310.34 1547.2 L1312.34 1547.64 Q1318.58 1548.98 1321.19 1551.43 Q1323.83 1553.85 1323.83 1558.21 Q1323.83 1563.17 1319.89 1566.07 Q1315.97 1568.97 1309.1 1568.97 Q1306.23 1568.97 1303.11 1568.39 Q1300.02 1567.85 1296.59 1566.74 L1296.59 1560.69 Q1299.83 1562.38 1302.98 1563.24 Q1306.14 1564.07 1309.22 1564.07 Q1313.36 1564.07 1315.59 1562.66 Q1317.82 1561.23 1317.82 1558.65 Q1317.82 1556.27 1316.19 1554.99 Q1314.6 1553.72 1309.16 1552.54 L1307.12 1552.07 Q1301.68 1550.92 1299.26 1548.56 Q1296.84 1546.18 1296.84 1542.04 Q1296.84 1537.01 1300.41 1534.27 Q1303.97 1531.54 1310.53 1531.54 Q1313.77 1531.54 1316.64 1532.01 Q1319.5 1532.49 1321.92 1533.45 Z" fill="#000000" fill-rule="nonzero" fill-opacity="1" /><path clip-path="url(#clip260)" d="M1363.65 1548.76 L1363.65 1551.62 L1336.72 1551.62 Q1337.11 1557.67 1340.35 1560.85 Q1343.63 1564 1349.45 1564 Q1352.83 1564 1355.98 1563.17 Q1359.16 1562.35 1362.28 1560.69 L1362.28 1566.23 Q1359.13 1567.57 1355.82 1568.27 Q1352.51 1568.97 1349.1 1568.97 Q1340.57 1568.97 1335.58 1564 Q1330.61 1559.04 1330.61 1550.57 Q1330.61 1541.82 1335.32 1536.69 Q1340.07 1531.54 1348.09 1531.54 Q1355.28 1531.54 1359.45 1536.18 Q1363.65 1540.8 1363.65 1548.76 M1357.79 1547.04 Q1357.73 1542.23 1355.09 1539.37 Q1352.48 1536.5 1348.15 1536.5 Q1343.25 1536.5 1340.29 1539.27 Q1337.36 1542.04 1336.91 1547.07 L1357.79 1547.04 Z" fill="#000000" fill-rule="nonzero" fill-opacity="1" /><path clip-path="url(#clip260)" d="M1379.06 1522.27 L1379.06 1532.4 L1391.12 1532.4 L1391.12 1536.95 L1379.06 1536.95 L1379.06 1556.3 Q1379.06 1560.66 1380.23 1561.9 Q1381.44 1563.14 1385.1 1563.14 L1391.12 1563.14 L1391.12 1568.04 L1385.1 1568.04 Q1378.32 1568.04 1375.74 1565.53 Q1373.17 1562.98 1373.17 1556.3 L1373.17 1536.95 L1368.87 1536.95 L1368.87 1532.4 L1373.17 1532.4 L1373.17 1522.27 L1379.06 1522.27 Z" fill="#000000" fill-rule="nonzero" fill-opacity="1" /><path clip-path="url(#clip260)" d="M1442.27 1533.45 L1442.27 1538.98 Q1439.78 1537.71 1437.11 1537.07 Q1434.44 1536.44 1431.57 1536.44 Q1427.21 1536.44 1425.02 1537.77 Q1422.85 1539.11 1422.85 1541.79 Q1422.85 1543.82 1424.41 1545 Q1425.97 1546.15 1430.68 1547.2 L1432.69 1547.64 Q1438.92 1548.98 1441.53 1551.43 Q1444.18 1553.85 1444.18 1558.21 Q1444.18 1563.17 1440.23 1566.07 Q1436.31 1568.97 1429.44 1568.97 Q1426.58 1568.97 1423.46 1568.39 Q1420.37 1567.85 1416.93 1566.74 L1416.93 1560.69 Q1420.18 1562.38 1423.33 1563.24 Q1426.48 1564.07 1429.57 1564.07 Q1433.7 1564.07 1435.93 1562.66 Q1438.16 1561.23 1438.16 1558.65 Q1438.16 1556.27 1436.54 1554.99 Q1434.95 1553.72 1429.5 1552.54 L1427.47 1552.07 Q1422.02 1550.92 1419.6 1548.56 Q1417.19 1546.18 1417.19 1542.04 Q1417.19 1537.01 1420.75 1534.27 Q1424.32 1531.54 1430.87 1531.54 Q1434.12 1531.54 1436.98 1532.01 Q1439.85 1532.49 1442.27 1533.45 Z" fill="#000000" fill-rule="nonzero" fill-opacity="1" /><path clip-path="url(#clip260)" d="M1453.5 1532.4 L1459.36 1532.4 L1459.36 1568.04 L1453.5 1568.04 L1453.5 1532.4 M1453.5 1518.52 L1459.36 1518.52 L1459.36 1525.93 L1453.5 1525.93 L1453.5 1518.52 Z" fill="#000000" fill-rule="nonzero" fill-opacity="1" /><path clip-path="url(#clip260)" d="M1469.07 1532.4 L1496.88 1532.4 L1496.88 1537.74 L1474.86 1563.37 L1496.88 1563.37 L1496.88 1568.04 L1468.27 1568.04 L1468.27 1562.7 L1490.3 1537.07 L1469.07 1537.07 L1469.07 1532.4 Z" fill="#000000" fill-rule="nonzero" fill-opacity="1" /><path clip-path="url(#clip260)" d="M1536.32 1548.76 L1536.32 1551.62 L1509.39 1551.62 Q1509.77 1557.67 1513.02 1560.85 Q1516.3 1564 1522.12 1564 Q1525.5 1564 1528.65 1563.17 Q1531.83 1562.35 1534.95 1560.69 L1534.95 1566.23 Q1531.8 1567.57 1528.49 1568.27 Q1525.18 1568.97 1521.77 1568.97 Q1513.24 1568.97 1508.25 1564 Q1503.28 1559.04 1503.28 1550.57 Q1503.28 1541.82 1507.99 1536.69 Q1512.73 1531.54 1520.76 1531.54 Q1527.95 1531.54 1532.12 1536.18 Q1536.32 1540.8 1536.32 1548.76 M1530.46 1547.04 Q1530.4 1542.23 1527.76 1539.37 Q1525.15 1536.5 1520.82 1536.5 Q1515.92 1536.5 1512.96 1539.27 Q1510.03 1542.04 1509.58 1547.07 L1530.46 1547.04 Z" fill="#000000" fill-rule="nonzero" fill-opacity="1" /><polyline clip-path="url(#clip260)" style="stroke:#000000; stroke-linecap:round; stroke-linejoin:round; stroke-width:4; stroke-opacity:1; fill:none" points="205.121,1423.18 205.121,123.472 "/>
<polyline clip-path="url(#clip260)" style="stroke:#000000; stroke-linecap:round; stroke-linejoin:round; stroke-width:4; stroke-opacity:1; fill:none" points="205.121,1206.46 224.019,1206.46 "/>
<polyline clip-path="url(#clip260)" style="stroke:#000000; stroke-linecap:round; stroke-linejoin:round; stroke-width:4; stroke-opacity:1; fill:none" points="205.121,982.092 224.019,982.092 "/>
<polyline clip-path="url(#clip260)" style="stroke:#000000; stroke-linecap:round; stroke-linejoin:round; stroke-width:4; stroke-opacity:1; fill:none" points="205.121,757.721 224.019,757.721 "/>
<polyline clip-path="url(#clip260)" style="stroke:#000000; stroke-linecap:round; stroke-linejoin:round; stroke-width:4; stroke-opacity:1; fill:none" points="205.121,533.349 224.019,533.349 "/>
<polyline clip-path="url(#clip260)" style="stroke:#000000; stroke-linecap:round; stroke-linejoin:round; stroke-width:4; stroke-opacity:1; fill:none" points="205.121,308.977 224.019,308.977 "/>
<polyline clip-path="url(#clip260)" style="stroke:#000000; stroke-linecap:round; stroke-linejoin:round; stroke-width:4; stroke-opacity:1; fill:none" points="205.121,1385.96 214.57,1385.96 "/>
<polyline clip-path="url(#clip260)" style="stroke:#000000; stroke-linecap:round; stroke-linejoin:round; stroke-width:4; stroke-opacity:1; fill:none" points="205.121,1341.09 214.57,1341.09 "/>
<polyline clip-path="url(#clip260)" style="stroke:#000000; stroke-linecap:round; stroke-linejoin:round; stroke-width:4; stroke-opacity:1; fill:none" points="205.121,1296.21 214.57,1296.21 "/>
<polyline clip-path="url(#clip260)" style="stroke:#000000; stroke-linecap:round; stroke-linejoin:round; stroke-width:4; stroke-opacity:1; fill:none" points="205.121,1251.34 214.57,1251.34 "/>
<polyline clip-path="url(#clip260)" style="stroke:#000000; stroke-linecap:round; stroke-linejoin:round; stroke-width:4; stroke-opacity:1; fill:none" points="205.121,1161.59 214.57,1161.59 "/>
<polyline clip-path="url(#clip260)" style="stroke:#000000; stroke-linecap:round; stroke-linejoin:round; stroke-width:4; stroke-opacity:1; fill:none" points="205.121,1116.71 214.57,1116.71 "/>
<polyline clip-path="url(#clip260)" style="stroke:#000000; stroke-linecap:round; stroke-linejoin:round; stroke-width:4; stroke-opacity:1; fill:none" points="205.121,1071.84 214.57,1071.84 "/>
<polyline clip-path="url(#clip260)" style="stroke:#000000; stroke-linecap:round; stroke-linejoin:round; stroke-width:4; stroke-opacity:1; fill:none" points="205.121,1026.97 214.57,1026.97 "/>
<polyline clip-path="url(#clip260)" style="stroke:#000000; stroke-linecap:round; stroke-linejoin:round; stroke-width:4; stroke-opacity:1; fill:none" points="205.121,937.218 214.57,937.218 "/>
<polyline clip-path="url(#clip260)" style="stroke:#000000; stroke-linecap:round; stroke-linejoin:round; stroke-width:4; stroke-opacity:1; fill:none" points="205.121,892.343 214.57,892.343 "/>
<polyline clip-path="url(#clip260)" style="stroke:#000000; stroke-linecap:round; stroke-linejoin:round; stroke-width:4; stroke-opacity:1; fill:none" points="205.121,847.469 214.57,847.469 "/>
<polyline clip-path="url(#clip260)" style="stroke:#000000; stroke-linecap:round; stroke-linejoin:round; stroke-width:4; stroke-opacity:1; fill:none" points="205.121,802.595 214.57,802.595 "/>
<polyline clip-path="url(#clip260)" style="stroke:#000000; stroke-linecap:round; stroke-linejoin:round; stroke-width:4; stroke-opacity:1; fill:none" points="205.121,712.846 214.57,712.846 "/>
<polyline clip-path="url(#clip260)" style="stroke:#000000; stroke-linecap:round; stroke-linejoin:round; stroke-width:4; stroke-opacity:1; fill:none" points="205.121,667.972 214.57,667.972 "/>
<polyline clip-path="url(#clip260)" style="stroke:#000000; stroke-linecap:round; stroke-linejoin:round; stroke-width:4; stroke-opacity:1; fill:none" points="205.121,623.098 214.57,623.098 "/>
<polyline clip-path="url(#clip260)" style="stroke:#000000; stroke-linecap:round; stroke-linejoin:round; stroke-width:4; stroke-opacity:1; fill:none" points="205.121,578.223 214.57,578.223 "/>
<polyline clip-path="url(#clip260)" style="stroke:#000000; stroke-linecap:round; stroke-linejoin:round; stroke-width:4; stroke-opacity:1; fill:none" points="205.121,488.475 214.57,488.475 "/>
<polyline clip-path="url(#clip260)" style="stroke:#000000; stroke-linecap:round; stroke-linejoin:round; stroke-width:4; stroke-opacity:1; fill:none" points="205.121,443.6 214.57,443.6 "/>
<polyline clip-path="url(#clip260)" style="stroke:#000000; stroke-linecap:round; stroke-linejoin:round; stroke-width:4; stroke-opacity:1; fill:none" points="205.121,398.726 214.57,398.726 "/>
<polyline clip-path="url(#clip260)" style="stroke:#000000; stroke-linecap:round; stroke-linejoin:round; stroke-width:4; stroke-opacity:1; fill:none" points="205.121,353.852 214.57,353.852 "/>
<polyline clip-path="url(#clip260)" style="stroke:#000000; stroke-linecap:round; stroke-linejoin:round; stroke-width:4; stroke-opacity:1; fill:none" points="205.121,264.103 214.57,264.103 "/>
<polyline clip-path="url(#clip260)" style="stroke:#000000; stroke-linecap:round; stroke-linejoin:round; stroke-width:4; stroke-opacity:1; fill:none" points="205.121,219.229 214.57,219.229 "/>
<polyline clip-path="url(#clip260)" style="stroke:#000000; stroke-linecap:round; stroke-linejoin:round; stroke-width:4; stroke-opacity:1; fill:none" points="205.121,174.355 214.57,174.355 "/>
<polyline clip-path="url(#clip260)" style="stroke:#000000; stroke-linecap:round; stroke-linejoin:round; stroke-width:4; stroke-opacity:1; fill:none" points="205.121,129.48 214.57,129.48 "/>
<path clip-path="url(#clip260)" d="M117.825 1219.81 L125.464 1219.81 L125.464 1193.44 L117.154 1195.11 L117.154 1190.85 L125.418 1189.18 L130.093 1189.18 L130.093 1219.81 L137.732 1219.81 L137.732 1223.74 L117.825 1223.74 L117.825 1219.81 Z" fill="#000000" fill-rule="nonzero" fill-opacity="1" /><path clip-path="url(#clip260)" d="M157.177 1192.26 Q153.566 1192.26 151.737 1195.83 Q149.931 1199.37 149.931 1206.5 Q149.931 1213.6 151.737 1217.17 Q153.566 1220.71 157.177 1220.71 Q160.811 1220.71 162.616 1217.17 Q164.445 1213.6 164.445 1206.5 Q164.445 1199.37 162.616 1195.83 Q160.811 1192.26 157.177 1192.26 M157.177 1188.56 Q162.987 1188.56 166.042 1193.17 Q169.121 1197.75 169.121 1206.5 Q169.121 1215.23 166.042 1219.83 Q162.987 1224.41 157.177 1224.41 Q151.366 1224.41 148.288 1219.83 Q145.232 1215.23 145.232 1206.5 Q145.232 1197.75 148.288 1193.17 Q151.366 1188.56 157.177 1188.56 Z" fill="#000000" fill-rule="nonzero" fill-opacity="1" /><path clip-path="url(#clip260)" d="M121.043 995.437 L137.362 995.437 L137.362 999.372 L115.418 999.372 L115.418 995.437 Q118.08 992.682 122.663 988.053 Q127.269 983.4 128.45 982.057 Q130.695 979.534 131.575 977.798 Q132.478 976.039 132.478 974.349 Q132.478 971.594 130.533 969.858 Q128.612 968.122 125.51 968.122 Q123.311 968.122 120.857 968.886 Q118.427 969.65 115.649 971.201 L115.649 966.479 Q118.473 965.344 120.927 964.766 Q123.38 964.187 125.418 964.187 Q130.788 964.187 133.982 966.872 Q137.177 969.557 137.177 974.048 Q137.177 976.178 136.367 978.099 Q135.579 979.997 133.473 982.59 Q132.894 983.261 129.792 986.479 Q126.691 989.673 121.043 995.437 Z" fill="#000000" fill-rule="nonzero" fill-opacity="1" /><path clip-path="url(#clip260)" d="M157.177 967.891 Q153.566 967.891 151.737 971.456 Q149.931 974.997 149.931 982.127 Q149.931 989.233 151.737 992.798 Q153.566 996.34 157.177 996.34 Q160.811 996.34 162.616 992.798 Q164.445 989.233 164.445 982.127 Q164.445 974.997 162.616 971.456 Q160.811 967.891 157.177 967.891 M157.177 964.187 Q162.987 964.187 166.042 968.793 Q169.121 973.377 169.121 982.127 Q169.121 990.854 166.042 995.46 Q162.987 1000.04 157.177 1000.04 Q151.366 1000.04 148.288 995.46 Q145.232 990.854 145.232 982.127 Q145.232 973.377 148.288 968.793 Q151.366 964.187 157.177 964.187 Z" fill="#000000" fill-rule="nonzero" fill-opacity="1" /><path clip-path="url(#clip260)" d="M131.181 756.366 Q134.538 757.084 136.413 759.352 Q138.311 761.621 138.311 764.954 Q138.311 770.07 134.792 772.871 Q131.274 775.672 124.793 775.672 Q122.617 775.672 120.302 775.232 Q118.01 774.815 115.556 773.959 L115.556 769.445 Q117.501 770.579 119.816 771.158 Q122.13 771.737 124.654 771.737 Q129.052 771.737 131.343 770.001 Q133.658 768.264 133.658 764.954 Q133.658 761.899 131.505 760.186 Q129.376 758.45 125.556 758.45 L121.529 758.45 L121.529 754.607 L125.742 754.607 Q129.191 754.607 131.019 753.241 Q132.848 751.852 132.848 749.26 Q132.848 746.598 130.95 745.186 Q129.075 743.751 125.556 743.751 Q123.635 743.751 121.436 744.167 Q119.237 744.584 116.598 745.464 L116.598 741.297 Q119.26 740.556 121.575 740.186 Q123.913 739.816 125.973 739.816 Q131.297 739.816 134.399 742.246 Q137.501 744.653 137.501 748.774 Q137.501 751.644 135.857 753.635 Q134.214 755.602 131.181 756.366 Z" fill="#000000" fill-rule="nonzero" fill-opacity="1" /><path clip-path="url(#clip260)" d="M157.177 743.519 Q153.566 743.519 151.737 747.084 Q149.931 750.626 149.931 757.755 Q149.931 764.862 151.737 768.426 Q153.566 771.968 157.177 771.968 Q160.811 771.968 162.616 768.426 Q164.445 764.862 164.445 757.755 Q164.445 750.626 162.616 747.084 Q160.811 743.519 157.177 743.519 M157.177 739.816 Q162.987 739.816 166.042 744.422 Q169.121 749.005 169.121 757.755 Q169.121 766.482 166.042 771.088 Q162.987 775.672 157.177 775.672 Q151.366 775.672 148.288 771.088 Q145.232 766.482 145.232 757.755 Q145.232 749.005 148.288 744.422 Q151.366 739.816 157.177 739.816 Z" fill="#000000" fill-rule="nonzero" fill-opacity="1" /><path clip-path="url(#clip260)" d="M129.862 520.143 L118.056 538.592 L129.862 538.592 L129.862 520.143 M128.635 516.069 L134.515 516.069 L134.515 538.592 L139.445 538.592 L139.445 542.481 L134.515 542.481 L134.515 550.629 L129.862 550.629 L129.862 542.481 L114.26 542.481 L114.26 537.967 L128.635 516.069 Z" fill="#000000" fill-rule="nonzero" fill-opacity="1" /><path clip-path="url(#clip260)" d="M157.177 519.148 Q153.566 519.148 151.737 522.712 Q149.931 526.254 149.931 533.384 Q149.931 540.49 151.737 544.055 Q153.566 547.597 157.177 547.597 Q160.811 547.597 162.616 544.055 Q164.445 540.49 164.445 533.384 Q164.445 526.254 162.616 522.712 Q160.811 519.148 157.177 519.148 M157.177 515.444 Q162.987 515.444 166.042 520.05 Q169.121 524.634 169.121 533.384 Q169.121 542.111 166.042 546.717 Q162.987 551.3 157.177 551.3 Q151.366 551.3 148.288 546.717 Q145.232 542.111 145.232 533.384 Q145.232 524.634 148.288 520.05 Q151.366 515.444 157.177 515.444 Z" fill="#000000" fill-rule="nonzero" fill-opacity="1" /><path clip-path="url(#clip260)" d="M117.061 291.697 L135.417 291.697 L135.417 295.633 L121.343 295.633 L121.343 304.105 Q122.362 303.758 123.38 303.596 Q124.399 303.41 125.418 303.41 Q131.205 303.41 134.584 306.582 Q137.964 309.753 137.964 315.17 Q137.964 320.748 134.492 323.85 Q131.019 326.929 124.7 326.929 Q122.524 326.929 120.255 326.558 Q118.01 326.188 115.603 325.447 L115.603 320.748 Q117.686 321.882 119.908 322.438 Q122.13 322.994 124.607 322.994 Q128.612 322.994 130.95 320.887 Q133.288 318.781 133.288 315.17 Q133.288 311.558 130.95 309.452 Q128.612 307.346 124.607 307.346 Q122.732 307.346 120.857 307.762 Q119.006 308.179 117.061 309.058 L117.061 291.697 Z" fill="#000000" fill-rule="nonzero" fill-opacity="1" /><path clip-path="url(#clip260)" d="M157.177 294.776 Q153.566 294.776 151.737 298.341 Q149.931 301.883 149.931 309.012 Q149.931 316.119 151.737 319.683 Q153.566 323.225 157.177 323.225 Q160.811 323.225 162.616 319.683 Q164.445 316.119 164.445 309.012 Q164.445 301.883 162.616 298.341 Q160.811 294.776 157.177 294.776 M157.177 291.072 Q162.987 291.072 166.042 295.679 Q169.121 300.262 169.121 309.012 Q169.121 317.739 166.042 322.345 Q162.987 326.929 157.177 326.929 Q151.366 326.929 148.288 322.345 Q145.232 317.739 145.232 309.012 Q145.232 300.262 148.288 295.679 Q151.366 291.072 157.177 291.072 Z" fill="#000000" fill-rule="nonzero" fill-opacity="1" /><path clip-path="url(#clip260)" d="M35.1993 1105.41 Q31.2526 1103.21 29.3747 1100.16 Q27.4968 1097.1 27.4968 1092.96 Q27.4968 1087.39 31.4117 1084.37 Q35.2948 1081.35 42.4881 1081.35 L64.0042 1081.35 L64.0042 1087.23 L42.679 1087.23 Q37.5546 1087.23 35.072 1089.05 Q32.5894 1090.86 32.5894 1094.59 Q32.5894 1099.14 35.6131 1101.78 Q38.6368 1104.42 43.8567 1104.42 L64.0042 1104.42 L64.0042 1110.31 L42.679 1110.31 Q37.5228 1110.31 35.072 1112.12 Q32.5894 1113.94 32.5894 1117.73 Q32.5894 1122.21 35.6449 1124.86 Q38.6686 1127.5 43.8567 1127.5 L64.0042 1127.5 L64.0042 1133.39 L28.3562 1133.39 L28.3562 1127.5 L33.8944 1127.5 Q30.616 1125.49 29.0564 1122.69 Q27.4968 1119.89 27.4968 1116.04 Q27.4968 1112.16 29.4702 1109.45 Q31.4436 1106.71 35.1993 1105.41 Z" fill="#000000" fill-rule="nonzero" fill-opacity="1" /><path clip-path="url(#clip260)" d="M44.7161 1039.17 L47.5806 1039.17 L47.5806 1066.1 Q53.6281 1065.72 56.8109 1062.47 Q59.9619 1059.19 59.9619 1053.37 Q59.9619 1050 59.1344 1046.84 Q58.3069 1043.66 56.6518 1040.54 L62.1899 1040.54 Q63.5267 1043.69 64.227 1047 Q64.9272 1050.31 64.9272 1053.72 Q64.9272 1062.25 59.9619 1067.25 Q54.9967 1072.21 46.5303 1072.21 Q37.7774 1072.21 32.6531 1067.5 Q27.4968 1062.76 27.4968 1054.74 Q27.4968 1047.54 32.1438 1043.38 Q36.7589 1039.17 44.7161 1039.17 M42.9973 1045.03 Q38.1912 1045.09 35.3266 1047.74 Q32.4621 1050.35 32.4621 1054.67 Q32.4621 1059.58 35.2312 1062.54 Q38.0002 1065.46 43.0292 1065.91 L42.9973 1045.03 Z" fill="#000000" fill-rule="nonzero" fill-opacity="1" /><path clip-path="url(#clip260)" d="M46.0847 1013.36 Q46.0847 1020.46 47.7079 1023.2 Q49.3312 1025.93 53.2461 1025.93 Q56.3653 1025.93 58.2114 1023.9 Q60.0256 1021.83 60.0256 1018.29 Q60.0256 1013.42 56.5881 1010.5 Q53.1188 1007.54 47.3897 1007.54 L46.0847 1007.54 L46.0847 1013.36 M43.6657 1001.68 L64.0042 1001.68 L64.0042 1007.54 L58.5933 1007.54 Q61.8398 1009.54 63.3994 1012.53 Q64.9272 1015.53 64.9272 1019.85 Q64.9272 1025.33 61.8716 1028.57 Q58.7843 1031.79 53.6281 1031.79 Q47.6125 1031.79 44.5569 1027.78 Q41.5014 1023.74 41.5014 1015.75 L41.5014 1007.54 L40.9285 1007.54 Q36.8862 1007.54 34.6901 1010.21 Q32.4621 1012.85 32.4621 1017.66 Q32.4621 1020.71 33.1941 1023.61 Q33.9262 1026.51 35.3903 1029.18 L29.9795 1029.18 Q28.7381 1025.96 28.1334 1022.94 Q27.4968 1019.92 27.4968 1017.05 Q27.4968 1009.32 31.5072 1005.5 Q35.5176 1001.68 43.6657 1001.68 Z" fill="#000000" fill-rule="nonzero" fill-opacity="1" /><path clip-path="url(#clip260)" d="M42.4881 959.984 L64.0042 959.984 L64.0042 965.841 L42.679 965.841 Q37.6183 965.841 35.1038 967.814 Q32.5894 969.788 32.5894 973.734 Q32.5894 978.477 35.6131 981.214 Q38.6368 983.951 43.8567 983.951 L64.0042 983.951 L64.0042 989.84 L28.3562 989.84 L28.3562 983.951 L33.8944 983.951 Q30.6797 981.851 29.0883 979.018 Q27.4968 976.153 27.4968 972.429 Q27.4968 966.286 31.3163 963.135 Q35.1038 959.984 42.4881 959.984 Z" fill="#000000" fill-rule="nonzero" fill-opacity="1" /><path clip-path="url(#clip260)" d="M18.2347 921.79 L28.3562 921.79 L28.3562 909.727 L32.9077 909.727 L32.9077 921.79 L52.2594 921.79 Q56.6199 921.79 57.8613 920.613 Q59.1026 919.403 59.1026 915.743 L59.1026 909.727 L64.0042 909.727 L64.0042 915.743 Q64.0042 922.522 61.4897 925.1 Q58.9434 927.678 52.2594 927.678 L32.9077 927.678 L32.9077 931.975 L28.3562 931.975 L28.3562 927.678 L18.2347 927.678 L18.2347 921.79 Z" fill="#000000" fill-rule="nonzero" fill-opacity="1" /><path clip-path="url(#clip260)" d="M33.8307 881.368 Q33.2578 882.355 33.0032 883.532 Q32.7167 884.678 32.7167 886.079 Q32.7167 891.044 35.9632 893.717 Q39.1779 896.359 45.2253 896.359 L64.0042 896.359 L64.0042 902.247 L28.3562 902.247 L28.3562 896.359 L33.8944 896.359 Q30.6479 894.513 29.0883 891.553 Q27.4968 888.593 27.4968 884.36 Q27.4968 883.755 27.5923 883.023 Q27.656 882.291 27.8151 881.4 L33.8307 881.368 Z" fill="#000000" fill-rule="nonzero" fill-opacity="1" /><path clip-path="url(#clip260)" d="M46.0847 859.024 Q46.0847 866.122 47.7079 868.859 Q49.3312 871.597 53.2461 871.597 Q56.3653 871.597 58.2114 869.56 Q60.0256 867.491 60.0256 863.958 Q60.0256 859.088 56.5881 856.16 Q53.1188 853.2 47.3897 853.2 L46.0847 853.2 L46.0847 859.024 M43.6657 847.343 L64.0042 847.343 L64.0042 853.2 L58.5933 853.2 Q61.8398 855.205 63.3994 858.197 Q64.9272 861.189 64.9272 865.517 Q64.9272 870.992 61.8716 874.238 Q58.7843 877.453 53.6281 877.453 Q47.6125 877.453 44.5569 873.443 Q41.5014 869.4 41.5014 861.411 L41.5014 853.2 L40.9285 853.2 Q36.8862 853.2 34.6901 855.873 Q32.4621 858.515 32.4621 863.321 Q32.4621 866.377 33.1941 869.273 Q33.9262 872.169 35.3903 874.843 L29.9795 874.843 Q28.7381 871.628 28.1334 868.605 Q27.4968 865.581 27.4968 862.716 Q27.4968 854.982 31.5072 851.163 Q35.5176 847.343 43.6657 847.343 Z" fill="#000000" fill-rule="nonzero" fill-opacity="1" /><path clip-path="url(#clip260)" d="M28.3562 835.28 L28.3562 829.424 L64.0042 829.424 L64.0042 835.28 L28.3562 835.28 M14.479 835.28 L14.479 829.424 L21.895 829.424 L21.895 835.28 L14.479 835.28 Z" fill="#000000" fill-rule="nonzero" fill-opacity="1" /><path clip-path="url(#clip260)" d="M42.4881 787.537 L64.0042 787.537 L64.0042 793.394 L42.679 793.394 Q37.6183 793.394 35.1038 795.367 Q32.5894 797.341 32.5894 801.287 Q32.5894 806.03 35.6131 808.767 Q38.6368 811.504 43.8567 811.504 L64.0042 811.504 L64.0042 817.393 L28.3562 817.393 L28.3562 811.504 L33.8944 811.504 Q30.6797 809.404 29.0883 806.571 Q27.4968 803.706 27.4968 799.982 Q27.4968 793.839 31.3163 790.688 Q35.1038 787.537 42.4881 787.537 Z" fill="#000000" fill-rule="nonzero" fill-opacity="1" /><path clip-path="url(#clip260)" d="M28.3562 775.856 L28.3562 770 L64.0042 770 L64.0042 775.856 L28.3562 775.856 M14.479 775.856 L14.479 770 L21.895 770 L21.895 775.856 L14.479 775.856 Z" fill="#000000" fill-rule="nonzero" fill-opacity="1" /><path clip-path="url(#clip260)" d="M42.4881 728.114 L64.0042 728.114 L64.0042 733.97 L42.679 733.97 Q37.6183 733.97 35.1038 735.943 Q32.5894 737.917 32.5894 741.863 Q32.5894 746.606 35.6131 749.343 Q38.6368 752.08 43.8567 752.08 L64.0042 752.08 L64.0042 757.969 L28.3562 757.969 L28.3562 752.08 L33.8944 752.08 Q30.6797 749.98 29.0883 747.147 Q27.4968 744.282 27.4968 740.559 Q27.4968 734.416 31.3163 731.265 Q35.1038 728.114 42.4881 728.114 Z" fill="#000000" fill-rule="nonzero" fill-opacity="1" /><path clip-path="url(#clip260)" d="M45.7664 692.975 Q39.4007 692.975 35.8996 695.617 Q32.3984 698.227 32.3984 702.969 Q32.3984 707.68 35.8996 710.321 Q39.4007 712.931 45.7664 712.931 Q52.1003 712.931 55.6014 710.321 Q59.1026 707.68 59.1026 702.969 Q59.1026 698.227 55.6014 695.617 Q52.1003 692.975 45.7664 692.975 M59.58 687.118 Q68.683 687.118 73.1071 691.161 Q77.5631 695.203 77.5631 703.542 Q77.5631 706.629 77.0857 709.367 Q76.6401 712.104 75.6852 714.682 L69.9879 714.682 Q71.3884 712.104 72.0568 709.589 Q72.7252 707.075 72.7252 704.465 Q72.7252 698.704 69.7015 695.839 Q66.7096 692.975 60.6303 692.975 L57.7339 692.975 Q60.885 694.789 62.4446 697.622 Q64.0042 700.455 64.0042 704.401 Q64.0042 710.958 59.0071 714.968 Q54.01 718.979 45.7664 718.979 Q37.491 718.979 32.4939 714.968 Q27.4968 710.958 27.4968 704.401 Q27.4968 700.455 29.0564 697.622 Q30.616 694.789 33.7671 692.975 L28.3562 692.975 L28.3562 687.118 L59.58 687.118 Z" fill="#000000" fill-rule="nonzero" fill-opacity="1" /><path clip-path="url(#clip260)" d="M18.2347 648.542 L28.3562 648.542 L28.3562 636.479 L32.9077 636.479 L32.9077 648.542 L52.2594 648.542 Q56.6199 648.542 57.8613 647.365 Q59.1026 646.155 59.1026 642.495 L59.1026 636.479 L64.0042 636.479 L64.0042 642.495 Q64.0042 649.274 61.4897 651.852 Q58.9434 654.43 52.2594 654.43 L32.9077 654.43 L32.9077 658.727 L28.3562 658.727 L28.3562 654.43 L18.2347 654.43 L18.2347 648.542 Z" fill="#000000" fill-rule="nonzero" fill-opacity="1" /><path clip-path="url(#clip260)" d="M28.3562 628.777 L28.3562 622.92 L64.0042 622.92 L64.0042 628.777 L28.3562 628.777 M14.479 628.777 L14.479 622.92 L21.895 622.92 L21.895 628.777 L14.479 628.777 Z" fill="#000000" fill-rule="nonzero" fill-opacity="1" /><path clip-path="url(#clip260)" d="M35.1993 582.912 Q31.2526 580.716 29.3747 577.66 Q27.4968 574.605 27.4968 570.467 Q27.4968 564.897 31.4117 561.873 Q35.2948 558.849 42.4881 558.849 L64.0042 558.849 L64.0042 564.738 L42.679 564.738 Q37.5546 564.738 35.072 566.552 Q32.5894 568.366 32.5894 572.09 Q32.5894 576.642 35.6131 579.283 Q38.6368 581.925 43.8567 581.925 L64.0042 581.925 L64.0042 587.813 L42.679 587.813 Q37.5228 587.813 35.072 589.628 Q32.5894 591.442 32.5894 595.229 Q32.5894 599.717 35.6449 602.359 Q38.6686 605.001 43.8567 605.001 L64.0042 605.001 L64.0042 610.889 L28.3562 610.889 L28.3562 605.001 L33.8944 605.001 Q30.616 602.996 29.0564 600.195 Q27.4968 597.394 27.4968 593.543 Q27.4968 589.659 29.4702 586.954 Q31.4436 584.217 35.1993 582.912 Z" fill="#000000" fill-rule="nonzero" fill-opacity="1" /><path clip-path="url(#clip260)" d="M44.7161 516.677 L47.5806 516.677 L47.5806 543.604 Q53.6281 543.222 56.8109 539.975 Q59.9619 536.697 59.9619 530.872 Q59.9619 527.498 59.1344 524.347 Q58.3069 521.164 56.6518 518.045 L62.1899 518.045 Q63.5267 521.196 64.227 524.506 Q64.9272 527.817 64.9272 531.222 Q64.9272 539.752 59.9619 544.749 Q54.9967 549.715 46.5303 549.715 Q37.7774 549.715 32.6531 545.004 Q27.4968 540.262 27.4968 532.241 Q27.4968 525.048 32.1438 520.878 Q36.7589 516.677 44.7161 516.677 M42.9973 522.533 Q38.1912 522.597 35.3266 525.238 Q32.4621 527.848 32.4621 532.177 Q32.4621 537.079 35.2312 540.039 Q38.0002 542.967 43.0292 543.413 L42.9973 522.533 Z" fill="#000000" fill-rule="nonzero" fill-opacity="1" /><path clip-path="url(#clip260)" d="M14.5426 472.276 Q21.8632 476.541 29.0246 478.61 Q36.186 480.679 43.5384 480.679 Q50.8908 480.679 58.1159 478.61 Q65.3091 476.509 72.5979 472.276 L72.5979 477.368 Q65.1182 482.143 57.8931 484.53 Q50.668 486.885 43.5384 486.885 Q36.4406 486.885 29.2474 484.53 Q22.0542 482.174 14.5426 477.368 L14.5426 472.276 Z" fill="#000000" fill-rule="nonzero" fill-opacity="1" /><path clip-path="url(#clip260)" d="M29.4065 438.187 L34.9447 438.187 Q33.6716 440.67 33.035 443.344 Q32.3984 446.017 32.3984 448.882 Q32.3984 453.242 33.7352 455.439 Q35.072 457.603 37.7456 457.603 Q39.7826 457.603 40.9603 456.043 Q42.1061 454.484 43.1565 449.773 L43.6021 447.768 Q44.9389 441.529 47.3897 438.92 Q49.8086 436.278 54.1691 436.278 Q59.1344 436.278 62.0308 440.224 Q64.9272 444.139 64.9272 451.014 Q64.9272 453.879 64.3543 456.998 Q63.8132 460.085 62.6992 463.523 L56.6518 463.523 Q58.3387 460.276 59.198 457.125 Q60.0256 453.974 60.0256 450.887 Q60.0256 446.749 58.6251 444.521 Q57.1929 442.293 54.6147 442.293 Q52.2276 442.293 50.9545 443.917 Q49.6813 445.508 48.5037 450.951 L48.0262 452.988 Q46.8804 458.43 44.5251 460.849 Q42.138 463.268 38.0002 463.268 Q32.9713 463.268 30.2341 459.704 Q27.4968 456.139 27.4968 449.582 Q27.4968 446.336 27.9743 443.471 Q28.4517 440.606 29.4065 438.187 Z" fill="#000000" fill-rule="nonzero" fill-opacity="1" /><path clip-path="url(#clip260)" d="M14.5426 427.875 L14.5426 422.782 Q22.0542 418.008 29.2474 415.653 Q36.4406 413.266 43.5384 413.266 Q50.668 413.266 57.8931 415.653 Q65.1182 418.008 72.5979 422.782 L72.5979 427.875 Q65.3091 423.642 58.1159 421.573 Q50.8908 419.472 43.5384 419.472 Q36.186 419.472 29.0246 421.573 Q21.8632 423.642 14.5426 427.875 Z" fill="#000000" fill-rule="nonzero" fill-opacity="1" /><path clip-path="url(#clip260)" d="M574.567 12.096 L625.73 12.096 L625.73 18.9825 L604.26 18.9825 L604.26 72.576 L596.037 72.576 L596.037 18.9825 L574.567 18.9825 L574.567 12.096 Z" fill="#000000" fill-rule="nonzero" fill-opacity="1" /><path clip-path="url(#clip260)" d="M647.402 34.1734 Q646.147 33.4443 644.648 33.1202 Q643.19 32.7556 641.407 32.7556 Q635.088 32.7556 631.685 36.8875 Q628.323 40.9789 628.323 48.6757 L628.323 72.576 L620.829 72.576 L620.829 27.2059 L628.323 27.2059 L628.323 34.2544 Q630.672 30.1225 634.44 28.1376 Q638.207 26.1121 643.595 26.1121 Q644.364 26.1121 645.296 26.2337 Q646.228 26.3147 647.362 26.5172 L647.402 34.1734 Z" fill="#000000" fill-rule="nonzero" fill-opacity="1" /><path clip-path="url(#clip260)" d="M675.84 49.7694 Q666.806 49.7694 663.323 51.8354 Q659.839 53.9013 659.839 58.8839 Q659.839 62.8538 662.431 65.2034 Q665.064 67.5124 669.561 67.5124 Q675.759 67.5124 679.486 63.1374 Q683.253 58.7219 683.253 51.4303 L683.253 49.7694 L675.84 49.7694 M690.707 46.6907 L690.707 72.576 L683.253 72.576 L683.253 65.6895 Q680.701 69.8214 676.893 71.8063 Q673.085 73.7508 667.576 73.7508 Q660.608 73.7508 656.476 69.8619 Q652.385 65.9325 652.385 59.3701 Q652.385 51.7138 657.489 47.825 Q662.634 43.9361 672.802 43.9361 L683.253 43.9361 L683.253 43.2069 Q683.253 38.0623 679.85 35.2672 Q676.488 32.4315 670.371 32.4315 Q666.482 32.4315 662.796 33.3632 Q659.11 34.295 655.707 36.1584 L655.707 29.2718 Q659.798 27.692 663.647 26.9223 Q667.495 26.1121 671.141 26.1121 Q680.984 26.1121 685.846 31.2163 Q690.707 36.3204 690.707 46.6907 Z" fill="#000000" fill-rule="nonzero" fill-opacity="1" /><path clip-path="url(#clip260)" d="M706.06 27.2059 L713.513 27.2059 L713.513 72.576 L706.06 72.576 L706.06 27.2059 M706.06 9.54393 L713.513 9.54393 L713.513 18.9825 L706.06 18.9825 L706.06 9.54393 Z" fill="#000000" fill-rule="nonzero" fill-opacity="1" /><path clip-path="url(#clip260)" d="M766.823 45.1919 L766.823 72.576 L759.369 72.576 L759.369 45.4349 Q759.369 38.994 756.858 35.7938 Q754.346 32.5936 749.323 32.5936 Q743.287 32.5936 739.804 36.4419 Q736.32 40.2903 736.32 46.9338 L736.32 72.576 L728.826 72.576 L728.826 27.2059 L736.32 27.2059 L736.32 34.2544 Q738.993 30.163 742.599 28.1376 Q746.245 26.1121 750.984 26.1121 Q758.802 26.1121 762.813 30.9732 Q766.823 35.7938 766.823 45.1919 Z" fill="#000000" fill-rule="nonzero" fill-opacity="1" /><path clip-path="url(#clip260)" d="M781.69 27.2059 L789.144 27.2059 L789.144 72.576 L781.69 72.576 L781.69 27.2059 M781.69 9.54393 L789.144 9.54393 L789.144 18.9825 L781.69 18.9825 L781.69 9.54393 Z" fill="#000000" fill-rule="nonzero" fill-opacity="1" /><path clip-path="url(#clip260)" d="M842.454 45.1919 L842.454 72.576 L835 72.576 L835 45.4349 Q835 38.994 832.488 35.7938 Q829.977 32.5936 824.954 32.5936 Q818.918 32.5936 815.434 36.4419 Q811.95 40.2903 811.95 46.9338 L811.95 72.576 L804.456 72.576 L804.456 27.2059 L811.95 27.2059 L811.95 34.2544 Q814.624 30.163 818.229 28.1376 Q821.875 26.1121 826.614 26.1121 Q834.433 26.1121 838.443 30.9732 Q842.454 35.7938 842.454 45.1919 Z" fill="#000000" fill-rule="nonzero" fill-opacity="1" /><path clip-path="url(#clip260)" d="M887.175 49.3643 Q887.175 41.2625 883.813 36.8065 Q880.492 32.3505 874.456 32.3505 Q868.46 32.3505 865.098 36.8065 Q861.776 41.2625 861.776 49.3643 Q861.776 57.4256 865.098 61.8816 Q868.46 66.3376 874.456 66.3376 Q880.492 66.3376 883.813 61.8816 Q887.175 57.4256 887.175 49.3643 M894.629 66.9452 Q894.629 78.5308 889.485 84.1616 Q884.34 89.8329 873.726 89.8329 Q869.797 89.8329 866.313 89.2252 Q862.83 88.6581 859.548 87.4428 L859.548 80.1917 Q862.83 81.9741 866.03 82.8248 Q869.23 83.6755 872.552 83.6755 Q879.884 83.6755 883.53 79.8271 Q887.175 76.0193 887.175 68.282 L887.175 64.5957 Q884.866 68.6061 881.261 70.5911 Q877.656 72.576 872.633 72.576 Q864.288 72.576 859.184 66.2161 Q854.08 59.8562 854.08 49.3643 Q854.08 38.832 859.184 32.472 Q864.288 26.1121 872.633 26.1121 Q877.656 26.1121 881.261 28.0971 Q884.866 30.082 887.175 34.0924 L887.175 27.2059 L894.629 27.2059 L894.629 66.9452 Z" fill="#000000" fill-rule="nonzero" fill-opacity="1" /><path clip-path="url(#clip260)" d="M972.933 14.0809 L972.933 22.0612 Q968.275 19.8332 964.143 18.7395 Q960.011 17.6457 956.162 17.6457 Q949.478 17.6457 945.833 20.2383 Q942.227 22.8309 942.227 27.611 Q942.227 31.6214 944.617 33.6873 Q947.048 35.7128 953.772 36.9686 L958.714 37.9813 Q967.87 39.7232 972.204 44.1387 Q976.579 48.5136 976.579 55.8863 Q976.579 64.6767 970.665 69.2137 Q964.791 73.7508 953.408 73.7508 Q949.114 73.7508 944.253 72.7785 Q939.432 71.8063 934.247 69.9024 L934.247 61.4765 Q939.23 64.2716 944.01 65.6895 Q948.79 67.1073 953.408 67.1073 Q960.416 67.1073 964.224 64.3527 Q968.032 61.598 968.032 56.4939 Q968.032 52.0379 965.277 49.5264 Q962.563 47.0148 956.324 45.759 L951.342 44.7868 Q942.187 42.9639 938.095 39.075 Q934.004 35.1862 934.004 28.2591 Q934.004 20.2383 939.635 15.6203 Q945.306 11.0023 955.231 11.0023 Q959.484 11.0023 963.9 11.7719 Q968.315 12.5416 972.933 14.0809 Z" fill="#000000" fill-rule="nonzero" fill-opacity="1" /><path clip-path="url(#clip260)" d="M1027.82 48.0275 L1027.82 51.6733 L993.552 51.6733 Q994.038 59.3701 998.17 63.421 Q1002.34 67.4314 1009.76 67.4314 Q1014.05 67.4314 1018.06 66.3781 Q1022.11 65.3249 1026.08 63.2184 L1026.08 70.267 Q1022.07 71.9684 1017.86 72.8596 Q1013.64 73.7508 1009.31 73.7508 Q998.454 73.7508 992.094 67.4314 Q985.775 61.1119 985.775 50.3365 Q985.775 39.1965 991.77 32.6746 Q997.806 26.1121 1008.01 26.1121 Q1017.17 26.1121 1022.48 32.0264 Q1027.82 37.9003 1027.82 48.0275 M1020.37 45.84 Q1020.29 39.7232 1016.93 36.0774 Q1013.6 32.4315 1008.09 32.4315 Q1001.86 32.4315 998.089 35.9558 Q994.362 39.4801 993.795 45.8805 L1020.37 45.84 Z" fill="#000000" fill-rule="nonzero" fill-opacity="1" /><path clip-path="url(#clip260)" d="M1047.43 14.324 L1047.43 27.2059 L1062.78 27.2059 L1062.78 32.9987 L1047.43 32.9987 L1047.43 57.6282 Q1047.43 63.1779 1048.93 64.7578 Q1050.47 66.3376 1055.13 66.3376 L1062.78 66.3376 L1062.78 72.576 L1055.13 72.576 Q1046.5 72.576 1043.22 69.3758 Q1039.94 66.1351 1039.94 57.6282 L1039.94 32.9987 L1034.47 32.9987 L1034.47 27.2059 L1039.94 27.2059 L1039.94 14.324 L1047.43 14.324 Z" fill="#000000" fill-rule="nonzero" fill-opacity="1" /><path clip-path="url(#clip260)" d="M1135.54 14.0809 L1135.54 22.0612 Q1130.88 19.8332 1126.75 18.7395 Q1122.61 17.6457 1118.77 17.6457 Q1112.08 17.6457 1108.44 20.2383 Q1104.83 22.8309 1104.83 27.611 Q1104.83 31.6214 1107.22 33.6873 Q1109.65 35.7128 1116.38 36.9686 L1121.32 37.9813 Q1130.47 39.7232 1134.81 44.1387 Q1139.18 48.5136 1139.18 55.8863 Q1139.18 64.6767 1133.27 69.2137 Q1127.39 73.7508 1116.01 73.7508 Q1111.72 73.7508 1106.86 72.7785 Q1102.04 71.8063 1096.85 69.9024 L1096.85 61.4765 Q1101.83 64.2716 1106.61 65.6895 Q1111.39 67.1073 1116.01 67.1073 Q1123.02 67.1073 1126.83 64.3527 Q1130.63 61.598 1130.63 56.4939 Q1130.63 52.0379 1127.88 49.5264 Q1125.17 47.0148 1118.93 45.759 L1113.95 44.7868 Q1104.79 42.9639 1100.7 39.075 Q1096.61 35.1862 1096.61 28.2591 Q1096.61 20.2383 1102.24 15.6203 Q1107.91 11.0023 1117.83 11.0023 Q1122.09 11.0023 1126.5 11.7719 Q1130.92 12.5416 1135.54 14.0809 Z" fill="#000000" fill-rule="nonzero" fill-opacity="1" /><path clip-path="url(#clip260)" d="M1151.62 27.2059 L1159.07 27.2059 L1159.07 72.576 L1151.62 72.576 L1151.62 27.2059 M1151.62 9.54393 L1159.07 9.54393 L1159.07 18.9825 L1151.62 18.9825 L1151.62 9.54393 Z" fill="#000000" fill-rule="nonzero" fill-opacity="1" /><path clip-path="url(#clip260)" d="M1171.43 27.2059 L1206.83 27.2059 L1206.83 34.0114 L1178.8 66.6212 L1206.83 66.6212 L1206.83 72.576 L1170.41 72.576 L1170.41 65.7705 L1198.45 33.1607 L1171.43 33.1607 L1171.43 27.2059 Z" fill="#000000" fill-rule="nonzero" fill-opacity="1" /><path clip-path="url(#clip260)" d="M1257.02 48.0275 L1257.02 51.6733 L1222.75 51.6733 Q1223.24 59.3701 1227.37 63.421 Q1231.54 67.4314 1238.96 67.4314 Q1243.25 67.4314 1247.26 66.3781 Q1251.31 65.3249 1255.28 63.2184 L1255.28 70.267 Q1251.27 71.9684 1247.06 72.8596 Q1242.84 73.7508 1238.51 73.7508 Q1227.65 73.7508 1221.29 67.4314 Q1214.97 61.1119 1214.97 50.3365 Q1214.97 39.1965 1220.97 32.6746 Q1227.01 26.1121 1237.21 26.1121 Q1246.37 26.1121 1251.68 32.0264 Q1257.02 37.9003 1257.02 48.0275 M1249.57 45.84 Q1249.49 39.7232 1246.13 36.0774 Q1242.8 32.4315 1237.3 32.4315 Q1231.06 32.4315 1227.29 35.9558 Q1223.56 39.4801 1223 45.8805 L1249.57 45.84 Z" fill="#000000" fill-rule="nonzero" fill-opacity="1" /><path clip-path="url(#clip260)" d="M1287.57 12.096 L1338.73 12.096 L1338.73 18.9825 L1317.26 18.9825 L1317.26 72.576 L1309.04 72.576 L1309.04 18.9825 L1287.57 18.9825 L1287.57 12.096 Z" fill="#000000" fill-rule="nonzero" fill-opacity="1" /><path clip-path="url(#clip260)" d="M1343.75 27.2059 L1351.21 27.2059 L1351.21 72.576 L1343.75 72.576 L1343.75 27.2059 M1343.75 9.54393 L1351.21 9.54393 L1351.21 18.9825 L1343.75 18.9825 L1343.75 9.54393 Z" fill="#000000" fill-rule="nonzero" fill-opacity="1" /><path clip-path="url(#clip260)" d="M1402.13 35.9153 Q1404.92 30.8922 1408.81 28.5022 Q1412.7 26.1121 1417.97 26.1121 Q1425.05 26.1121 1428.9 31.0947 Q1432.75 36.0368 1432.75 45.1919 L1432.75 72.576 L1425.26 72.576 L1425.26 45.4349 Q1425.26 38.913 1422.95 35.7533 Q1420.64 32.5936 1415.9 32.5936 Q1410.11 32.5936 1406.74 36.4419 Q1403.38 40.2903 1403.38 46.9338 L1403.38 72.576 L1395.89 72.576 L1395.89 45.4349 Q1395.89 38.8725 1393.58 35.7533 Q1391.27 32.5936 1386.45 32.5936 Q1380.74 32.5936 1377.38 36.4824 Q1374.01 40.3308 1374.01 46.9338 L1374.01 72.576 L1366.52 72.576 L1366.52 27.2059 L1374.01 27.2059 L1374.01 34.2544 Q1376.57 30.082 1380.13 28.0971 Q1383.69 26.1121 1388.6 26.1121 Q1393.54 26.1121 1396.98 28.6237 Q1400.47 31.1352 1402.13 35.9153 Z" fill="#000000" fill-rule="nonzero" fill-opacity="1" /><path clip-path="url(#clip260)" d="M1486.43 48.0275 L1486.43 51.6733 L1452.16 51.6733 Q1452.64 59.3701 1456.77 63.421 Q1460.95 67.4314 1468.36 67.4314 Q1472.65 67.4314 1476.66 66.3781 Q1480.71 65.3249 1484.68 63.2184 L1484.68 70.267 Q1480.67 71.9684 1476.46 72.8596 Q1472.25 73.7508 1467.91 73.7508 Q1457.06 73.7508 1450.7 67.4314 Q1444.38 61.1119 1444.38 50.3365 Q1444.38 39.1965 1450.37 32.6746 Q1456.41 26.1121 1466.62 26.1121 Q1475.77 26.1121 1481.08 32.0264 Q1486.43 37.9003 1486.43 48.0275 M1478.97 45.84 Q1478.89 39.7232 1475.53 36.0774 Q1472.21 32.4315 1466.7 32.4315 Q1460.46 32.4315 1456.69 35.9558 Q1452.97 39.4801 1452.4 45.8805 L1478.97 45.84 Z" fill="#000000" fill-rule="nonzero" fill-opacity="1" /><path clip-path="url(#clip260)" d="M1570.64 16.7545 L1570.64 25.383 Q1566.51 21.5346 1561.81 19.6307 Q1557.15 17.7268 1551.89 17.7268 Q1541.52 17.7268 1536.01 24.0867 Q1530.5 30.4061 1530.5 42.3968 Q1530.5 54.3469 1536.01 60.7069 Q1541.52 67.0263 1551.89 67.0263 Q1557.15 67.0263 1561.81 65.1223 Q1566.51 63.2184 1570.64 59.3701 L1570.64 67.9175 Q1566.35 70.8341 1561.53 72.2924 Q1556.75 73.7508 1551.4 73.7508 Q1537.67 73.7508 1529.77 65.3654 Q1521.87 56.9395 1521.87 42.3968 Q1521.87 27.8135 1529.77 19.4281 Q1537.67 11.0023 1551.4 11.0023 Q1556.83 11.0023 1561.61 12.4606 Q1566.43 13.8784 1570.64 16.7545 Z" fill="#000000" fill-rule="nonzero" fill-opacity="1" /><path clip-path="url(#clip260)" d="M1600.54 32.4315 Q1594.54 32.4315 1591.06 37.1306 Q1587.58 41.7891 1587.58 49.9314 Q1587.58 58.0738 1591.02 62.7728 Q1594.5 67.4314 1600.54 67.4314 Q1606.49 67.4314 1609.98 62.7323 Q1613.46 58.0333 1613.46 49.9314 Q1613.46 41.8701 1609.98 37.1711 Q1606.49 32.4315 1600.54 32.4315 M1600.54 26.1121 Q1610.26 26.1121 1615.81 32.4315 Q1621.36 38.7509 1621.36 49.9314 Q1621.36 61.0714 1615.81 67.4314 Q1610.26 73.7508 1600.54 73.7508 Q1590.78 73.7508 1585.23 67.4314 Q1579.72 61.0714 1579.72 49.9314 Q1579.72 38.7509 1585.23 32.4315 Q1590.78 26.1121 1600.54 26.1121 Z" fill="#000000" fill-rule="nonzero" fill-opacity="1" /><path clip-path="url(#clip260)" d="M1669.04 35.9153 Q1671.84 30.8922 1675.72 28.5022 Q1679.61 26.1121 1684.88 26.1121 Q1691.97 26.1121 1695.82 31.0947 Q1699.67 36.0368 1699.67 45.1919 L1699.67 72.576 L1692.17 72.576 L1692.17 45.4349 Q1692.17 38.913 1689.86 35.7533 Q1687.55 32.5936 1682.81 32.5936 Q1677.02 32.5936 1673.66 36.4419 Q1670.3 40.2903 1670.3 46.9338 L1670.3 72.576 L1662.8 72.576 L1662.8 45.4349 Q1662.8 38.8725 1660.49 35.7533 Q1658.18 32.5936 1653.36 32.5936 Q1647.65 32.5936 1644.29 36.4824 Q1640.93 40.3308 1640.93 46.9338 L1640.93 72.576 L1633.43 72.576 L1633.43 27.2059 L1640.93 27.2059 L1640.93 34.2544 Q1643.48 30.082 1647.04 28.0971 Q1650.61 26.1121 1655.51 26.1121 Q1660.45 26.1121 1663.9 28.6237 Q1667.38 31.1352 1669.04 35.9153 Z" fill="#000000" fill-rule="nonzero" fill-opacity="1" /><path clip-path="url(#clip260)" d="M1721.74 65.7705 L1721.74 89.8329 L1714.25 89.8329 L1714.25 27.2059 L1721.74 27.2059 L1721.74 34.0924 Q1724.09 30.0415 1727.66 28.0971 Q1731.26 26.1121 1736.25 26.1121 Q1744.51 26.1121 1749.65 32.6746 Q1754.84 39.2371 1754.84 49.9314 Q1754.84 60.6258 1749.65 67.1883 Q1744.51 73.7508 1736.25 73.7508 Q1731.26 73.7508 1727.66 71.8063 Q1724.09 69.8214 1721.74 65.7705 M1747.1 49.9314 Q1747.1 41.7081 1743.7 37.0496 Q1740.34 32.3505 1734.42 32.3505 Q1728.51 32.3505 1725.11 37.0496 Q1721.74 41.7081 1721.74 49.9314 Q1721.74 58.1548 1725.11 62.8538 Q1728.51 67.5124 1734.42 67.5124 Q1740.34 67.5124 1743.7 62.8538 Q1747.1 58.1548 1747.1 49.9314 Z" fill="#000000" fill-rule="nonzero" fill-opacity="1" /><path clip-path="url(#clip260)" d="M1767.19 9.54393 L1774.65 9.54393 L1774.65 72.576 L1767.19 72.576 L1767.19 9.54393 Z" fill="#000000" fill-rule="nonzero" fill-opacity="1" /><path clip-path="url(#clip260)" d="M1829.05 48.0275 L1829.05 51.6733 L1794.78 51.6733 Q1795.27 59.3701 1799.4 63.421 Q1803.57 67.4314 1810.98 67.4314 Q1815.28 67.4314 1819.29 66.3781 Q1823.34 65.3249 1827.31 63.2184 L1827.31 70.267 Q1823.3 71.9684 1819.09 72.8596 Q1814.87 73.7508 1810.54 73.7508 Q1799.68 73.7508 1793.32 67.4314 Q1787 61.1119 1787 50.3365 Q1787 39.1965 1793 32.6746 Q1799.03 26.1121 1809.24 26.1121 Q1818.4 26.1121 1823.7 32.0264 Q1829.05 37.9003 1829.05 48.0275 M1821.6 45.84 Q1821.52 39.7232 1818.15 36.0774 Q1814.83 32.4315 1809.32 32.4315 Q1803.08 32.4315 1799.32 35.9558 Q1795.59 39.4801 1795.02 45.8805 L1821.6 45.84 Z" fill="#000000" fill-rule="nonzero" fill-opacity="1" /><path clip-path="url(#clip260)" d="M1877.54 27.2059 L1861.13 49.2833 L1878.39 72.576 L1869.6 72.576 L1856.39 54.752 L1843.19 72.576 L1834.4 72.576 L1852.02 48.8377 L1835.9 27.2059 L1844.69 27.2059 L1856.72 43.369 L1868.75 27.2059 L1877.54 27.2059 Z" fill="#000000" fill-rule="nonzero" fill-opacity="1" /><path clip-path="url(#clip260)" d="M1888.92 27.2059 L1896.38 27.2059 L1896.38 72.576 L1888.92 72.576 L1888.92 27.2059 M1888.92 9.54393 L1896.38 9.54393 L1896.38 18.9825 L1888.92 18.9825 L1888.92 9.54393 Z" fill="#000000" fill-rule="nonzero" fill-opacity="1" /><path clip-path="url(#clip260)" d="M1919.35 14.324 L1919.35 27.2059 L1934.7 27.2059 L1934.7 32.9987 L1919.35 32.9987 L1919.35 57.6282 Q1919.35 63.1779 1920.84 64.7578 Q1922.38 66.3376 1927.04 66.3376 L1934.7 66.3376 L1934.7 72.576 L1927.04 72.576 Q1918.41 72.576 1915.13 69.3758 Q1911.85 66.1351 1911.85 57.6282 L1911.85 32.9987 L1906.38 32.9987 L1906.38 27.2059 L1911.85 27.2059 L1911.85 14.324 L1919.35 14.324 Z" fill="#000000" fill-rule="nonzero" fill-opacity="1" /><path clip-path="url(#clip260)" d="M1963.38 76.7889 Q1960.22 84.8907 1957.22 87.3618 Q1954.22 89.8329 1949.2 89.8329 L1943.25 89.8329 L1943.25 83.5945 L1947.62 83.5945 Q1950.7 83.5945 1952.4 82.1361 Q1954.1 80.6778 1956.17 75.2496 L1957.51 71.8468 L1939.15 27.2059 L1947.05 27.2059 L1961.23 62.6918 L1975.41 27.2059 L1983.31 27.2059 L1963.38 76.7889 Z" fill="#000000" fill-rule="nonzero" fill-opacity="1" /><polyline clip-path="url(#clip262)" style="stroke:#0000ff; stroke-linecap:round; stroke-linejoin:round; stroke-width:8; stroke-opacity:1; fill:none" points="265.903,1384.99 317.854,1352.93 421.755,1287.59 629.557,1171.51 837.359,1047.76 1045.16,910.899 1252.96,779.48 1460.77,613.864 1668.57,503.867 1876.37,430.212 2084.17,305.581 2291.97,167.738 "/>
<polyline clip-path="url(#clip262)" style="stroke:#000000; stroke-linecap:round; stroke-linejoin:round; stroke-width:4; stroke-opacity:1; fill:none" points="265.903,1386.4 265.903,1383.58 "/>
<polyline clip-path="url(#clip262)" style="stroke:#000000; stroke-linecap:round; stroke-linejoin:round; stroke-width:4; stroke-opacity:1; fill:none" points="317.854,1360.3 317.854,1345.57 "/>
<polyline clip-path="url(#clip262)" style="stroke:#000000; stroke-linecap:round; stroke-linejoin:round; stroke-width:4; stroke-opacity:1; fill:none" points="421.755,1295.45 421.755,1279.73 "/>
<polyline clip-path="url(#clip262)" style="stroke:#000000; stroke-linecap:round; stroke-linejoin:round; stroke-width:4; stroke-opacity:1; fill:none" points="629.557,1181.44 629.557,1161.58 "/>
<polyline clip-path="url(#clip262)" style="stroke:#000000; stroke-linecap:round; stroke-linejoin:round; stroke-width:4; stroke-opacity:1; fill:none" points="837.359,1063.88 837.359,1031.65 "/>
<polyline clip-path="url(#clip262)" style="stroke:#000000; stroke-linecap:round; stroke-linejoin:round; stroke-width:4; stroke-opacity:1; fill:none" points="1045.16,939.806 1045.16,881.992 "/>
<polyline clip-path="url(#clip262)" style="stroke:#000000; stroke-linecap:round; stroke-linejoin:round; stroke-width:4; stroke-opacity:1; fill:none" points="1252.96,792.898 1252.96,766.063 "/>
<polyline clip-path="url(#clip262)" style="stroke:#000000; stroke-linecap:round; stroke-linejoin:round; stroke-width:4; stroke-opacity:1; fill:none" points="1460.77,642.46 1460.77,585.268 "/>
<polyline clip-path="url(#clip262)" style="stroke:#000000; stroke-linecap:round; stroke-linejoin:round; stroke-width:4; stroke-opacity:1; fill:none" points="1668.57,542.969 1668.57,464.765 "/>
<polyline clip-path="url(#clip262)" style="stroke:#000000; stroke-linecap:round; stroke-linejoin:round; stroke-width:4; stroke-opacity:1; fill:none" points="1876.37,438.237 1876.37,422.188 "/>
<polyline clip-path="url(#clip262)" style="stroke:#000000; stroke-linecap:round; stroke-linejoin:round; stroke-width:4; stroke-opacity:1; fill:none" points="2084.17,309.107 2084.17,302.055 "/>
<polyline clip-path="url(#clip262)" style="stroke:#000000; stroke-linecap:round; stroke-linejoin:round; stroke-width:4; stroke-opacity:1; fill:none" points="2291.97,175.22 2291.97,160.256 "/>
<line clip-path="url(#clip262)" x1="281.903" y1="1386.4" x2="249.903" y2="1386.4" style="stroke:#000000; stroke-width:4; stroke-opacity:1"/>
<line clip-path="url(#clip262)" x1="281.903" y1="1383.58" x2="249.903" y2="1383.58" style="stroke:#000000; stroke-width:4; stroke-opacity:1"/>
<line clip-path="url(#clip262)" x1="333.854" y1="1360.3" x2="301.854" y2="1360.3" style="stroke:#000000; stroke-width:4; stroke-opacity:1"/>
<line clip-path="url(#clip262)" x1="333.854" y1="1345.57" x2="301.854" y2="1345.57" style="stroke:#000000; stroke-width:4; stroke-opacity:1"/>
<line clip-path="url(#clip262)" x1="437.755" y1="1295.45" x2="405.755" y2="1295.45" style="stroke:#000000; stroke-width:4; stroke-opacity:1"/>
<line clip-path="url(#clip262)" x1="437.755" y1="1279.73" x2="405.755" y2="1279.73" style="stroke:#000000; stroke-width:4; stroke-opacity:1"/>
<line clip-path="url(#clip262)" x1="645.557" y1="1181.44" x2="613.557" y2="1181.44" style="stroke:#000000; stroke-width:4; stroke-opacity:1"/>
<line clip-path="url(#clip262)" x1="645.557" y1="1161.58" x2="613.557" y2="1161.58" style="stroke:#000000; stroke-width:4; stroke-opacity:1"/>
<line clip-path="url(#clip262)" x1="853.359" y1="1063.88" x2="821.359" y2="1063.88" style="stroke:#000000; stroke-width:4; stroke-opacity:1"/>
<line clip-path="url(#clip262)" x1="853.359" y1="1031.65" x2="821.359" y2="1031.65" style="stroke:#000000; stroke-width:4; stroke-opacity:1"/>
<line clip-path="url(#clip262)" x1="1061.16" y1="939.806" x2="1029.16" y2="939.806" style="stroke:#000000; stroke-width:4; stroke-opacity:1"/>
<line clip-path="url(#clip262)" x1="1061.16" y1="881.992" x2="1029.16" y2="881.992" style="stroke:#000000; stroke-width:4; stroke-opacity:1"/>
<line clip-path="url(#clip262)" x1="1268.96" y1="792.898" x2="1236.96" y2="792.898" style="stroke:#000000; stroke-width:4; stroke-opacity:1"/>
<line clip-path="url(#clip262)" x1="1268.96" y1="766.063" x2="1236.96" y2="766.063" style="stroke:#000000; stroke-width:4; stroke-opacity:1"/>
<line clip-path="url(#clip262)" x1="1476.77" y1="642.46" x2="1444.77" y2="642.46" style="stroke:#000000; stroke-width:4; stroke-opacity:1"/>
<line clip-path="url(#clip262)" x1="1476.77" y1="585.268" x2="1444.77" y2="585.268" style="stroke:#000000; stroke-width:4; stroke-opacity:1"/>
<line clip-path="url(#clip262)" x1="1684.57" y1="542.969" x2="1652.57" y2="542.969" style="stroke:#000000; stroke-width:4; stroke-opacity:1"/>
<line clip-path="url(#clip262)" x1="1684.57" y1="464.765" x2="1652.57" y2="464.765" style="stroke:#000000; stroke-width:4; stroke-opacity:1"/>
<line clip-path="url(#clip262)" x1="1892.37" y1="438.237" x2="1860.37" y2="438.237" style="stroke:#000000; stroke-width:4; stroke-opacity:1"/>
<line clip-path="url(#clip262)" x1="1892.37" y1="422.188" x2="1860.37" y2="422.188" style="stroke:#000000; stroke-width:4; stroke-opacity:1"/>
<line clip-path="url(#clip262)" x1="2100.17" y1="309.107" x2="2068.17" y2="309.107" style="stroke:#000000; stroke-width:4; stroke-opacity:1"/>
<line clip-path="url(#clip262)" x1="2100.17" y1="302.055" x2="2068.17" y2="302.055" style="stroke:#000000; stroke-width:4; stroke-opacity:1"/>
<line clip-path="url(#clip262)" x1="2307.97" y1="175.22" x2="2275.97" y2="175.22" style="stroke:#000000; stroke-width:4; stroke-opacity:1"/>
<line clip-path="url(#clip262)" x1="2307.97" y1="160.256" x2="2275.97" y2="160.256" style="stroke:#000000; stroke-width:4; stroke-opacity:1"/>
<circle clip-path="url(#clip262)" cx="265.903" cy="1384.99" r="14.4" fill="#0000ff" fill-rule="evenodd" fill-opacity="1" stroke="#000000" stroke-opacity="1" stroke-width="3.2"/>
<circle clip-path="url(#clip262)" cx="317.854" cy="1352.93" r="14.4" fill="#0000ff" fill-rule="evenodd" fill-opacity="1" stroke="#000000" stroke-opacity="1" stroke-width="3.2"/>
<circle clip-path="url(#clip262)" cx="421.755" cy="1287.59" r="14.4" fill="#0000ff" fill-rule="evenodd" fill-opacity="1" stroke="#000000" stroke-opacity="1" stroke-width="3.2"/>
<circle clip-path="url(#clip262)" cx="629.557" cy="1171.51" r="14.4" fill="#0000ff" fill-rule="evenodd" fill-opacity="1" stroke="#000000" stroke-opacity="1" stroke-width="3.2"/>
<circle clip-path="url(#clip262)" cx="837.359" cy="1047.76" r="14.4" fill="#0000ff" fill-rule="evenodd" fill-opacity="1" stroke="#000000" stroke-opacity="1" stroke-width="3.2"/>
<circle clip-path="url(#clip262)" cx="1045.16" cy="910.899" r="14.4" fill="#0000ff" fill-rule="evenodd" fill-opacity="1" stroke="#000000" stroke-opacity="1" stroke-width="3.2"/>
<circle clip-path="url(#clip262)" cx="1252.96" cy="779.48" r="14.4" fill="#0000ff" fill-rule="evenodd" fill-opacity="1" stroke="#000000" stroke-opacity="1" stroke-width="3.2"/>
<circle clip-path="url(#clip262)" cx="1460.77" cy="613.864" r="14.4" fill="#0000ff" fill-rule="evenodd" fill-opacity="1" stroke="#000000" stroke-opacity="1" stroke-width="3.2"/>
<circle clip-path="url(#clip262)" cx="1668.57" cy="503.867" r="14.4" fill="#0000ff" fill-rule="evenodd" fill-opacity="1" stroke="#000000" stroke-opacity="1" stroke-width="3.2"/>
<circle clip-path="url(#clip262)" cx="1876.37" cy="430.212" r="14.4" fill="#0000ff" fill-rule="evenodd" fill-opacity="1" stroke="#000000" stroke-opacity="1" stroke-width="3.2"/>
<circle clip-path="url(#clip262)" cx="2084.17" cy="305.581" r="14.4" fill="#0000ff" fill-rule="evenodd" fill-opacity="1" stroke="#000000" stroke-opacity="1" stroke-width="3.2"/>
<circle clip-path="url(#clip262)" cx="2291.97" cy="167.738" r="14.4" fill="#0000ff" fill-rule="evenodd" fill-opacity="1" stroke="#000000" stroke-opacity="1" stroke-width="3.2"/>
</svg>
