<svg xmlns="http://www.w3.org/2000/svg" xmlns:xlink="http://www.w3.org/1999/xlink" width="600" height="400" viewBox="0 0 2400 1600">
<defs>
  <clipPath id="clip210">
    <rect x="0" y="0" width="2400" height="1600"></rect>
  </clipPath>
</defs>
<path clip-path="url(#clip210)" d="M0 1600 L2400 1600 L2400 0 L0 0  Z" fill="#ffffff" fill-rule="evenodd" fill-opacity="1"></path>
<defs>
  <clipPath id="clip211">
    <rect x="480" y="0" width="1681" height="1600"></rect>
  </clipPath>
</defs>
<path clip-path="url(#clip210)" d="M257.204 1423.18 L2352.76 1423.18 L2352.76 123.472 L257.204 123.472  Z" fill="#ffffff" fill-rule="evenodd" fill-opacity="1"></path>
<defs>
  <clipPath id="clip212">
    <rect x="257" y="123" width="2097" height="1301"></rect>
  </clipPath>
</defs>
<polyline clip-path="url(#clip212)" style="stroke:#000000; stroke-linecap:round; stroke-linejoin:round; stroke-width:2; stroke-opacity:0.1; fill:none" points="296.543,1423.18 296.543,123.472 "></polyline>
<polyline clip-path="url(#clip212)" style="stroke:#000000; stroke-linecap:round; stroke-linejoin:round; stroke-width:2; stroke-opacity:0.1; fill:none" points="795.769,1423.18 795.769,123.472 "></polyline>
<polyline clip-path="url(#clip212)" style="stroke:#000000; stroke-linecap:round; stroke-linejoin:round; stroke-width:2; stroke-opacity:0.1; fill:none" points="1295,1423.18 1295,123.472 "></polyline>
<polyline clip-path="url(#clip212)" style="stroke:#000000; stroke-linecap:round; stroke-linejoin:round; stroke-width:2; stroke-opacity:0.1; fill:none" points="1794.22,1423.18 1794.22,123.472 "></polyline>
<polyline clip-path="url(#clip212)" style="stroke:#000000; stroke-linecap:round; stroke-linejoin:round; stroke-width:2; stroke-opacity:0.1; fill:none" points="2293.45,1423.18 2293.45,123.472 "></polyline>
<polyline clip-path="url(#clip210)" style="stroke:#000000; stroke-linecap:round; stroke-linejoin:round; stroke-width:4; stroke-opacity:1; fill:none" points="257.204,1423.18 2352.76,1423.18 "></polyline>
<polyline clip-path="url(#clip210)" style="stroke:#000000; stroke-linecap:round; stroke-linejoin:round; stroke-width:4; stroke-opacity:1; fill:none" points="296.543,1423.18 296.543,1404.28 "></polyline>
<polyline clip-path="url(#clip210)" style="stroke:#000000; stroke-linecap:round; stroke-linejoin:round; stroke-width:4; stroke-opacity:1; fill:none" points="795.769,1423.18 795.769,1404.28 "></polyline>
<polyline clip-path="url(#clip210)" style="stroke:#000000; stroke-linecap:round; stroke-linejoin:round; stroke-width:4; stroke-opacity:1; fill:none" points="1295,1423.18 1295,1404.28 "></polyline>
<polyline clip-path="url(#clip210)" style="stroke:#000000; stroke-linecap:round; stroke-linejoin:round; stroke-width:4; stroke-opacity:1; fill:none" points="1794.22,1423.18 1794.22,1404.28 "></polyline>
<polyline clip-path="url(#clip210)" style="stroke:#000000; stroke-linecap:round; stroke-linejoin:round; stroke-width:4; stroke-opacity:1; fill:none" points="2293.45,1423.18 2293.45,1404.28 "></polyline>
<path clip-path="url(#clip210)" d="M296.543 1454.1 Q292.932 1454.1 291.103 1457.66 Q289.298 1461.2 289.298 1468.33 Q289.298 1475.44 291.103 1479.01 Q292.932 1482.55 296.543 1482.55 Q300.177 1482.55 301.983 1479.01 Q303.812 1475.44 303.812 1468.33 Q303.812 1461.2 301.983 1457.66 Q300.177 1454.1 296.543 1454.1 M296.543 1450.39 Q302.353 1450.39 305.409 1455 Q308.487 1459.58 308.487 1468.33 Q308.487 1477.06 305.409 1481.67 Q302.353 1486.25 296.543 1486.25 Q290.733 1486.25 287.654 1481.67 Q284.599 1477.06 284.599 1468.33 Q284.599 1459.58 287.654 1455 Q290.733 1450.39 296.543 1450.39 Z" fill="#000000" fill-rule="nonzero" fill-opacity="1"></path><path clip-path="url(#clip210)" d="M775.04 1481.64 L791.36 1481.64 L791.36 1485.58 L769.415 1485.58 L769.415 1481.64 Q772.077 1478.89 776.661 1474.26 Q781.267 1469.61 782.448 1468.27 Q784.693 1465.74 785.573 1464.01 Q786.475 1462.25 786.475 1460.56 Q786.475 1457.8 784.531 1456.07 Q782.61 1454.33 779.508 1454.33 Q777.309 1454.33 774.855 1455.09 Q772.424 1455.86 769.647 1457.41 L769.647 1452.69 Q772.471 1451.55 774.924 1450.97 Q777.378 1450.39 779.415 1450.39 Q784.786 1450.39 787.98 1453.08 Q791.174 1455.77 791.174 1460.26 Q791.174 1462.39 790.364 1464.31 Q789.577 1466.2 787.471 1468.8 Q786.892 1469.47 783.79 1472.69 Q780.688 1475.88 775.04 1481.64 Z" fill="#000000" fill-rule="nonzero" fill-opacity="1"></path><path clip-path="url(#clip210)" d="M801.221 1451.02 L819.577 1451.02 L819.577 1454.96 L805.503 1454.96 L805.503 1463.43 Q806.522 1463.08 807.54 1462.92 Q808.559 1462.73 809.577 1462.73 Q815.364 1462.73 818.744 1465.9 Q822.123 1469.08 822.123 1474.49 Q822.123 1480.07 818.651 1483.17 Q815.179 1486.25 808.859 1486.25 Q806.684 1486.25 804.415 1485.88 Q802.17 1485.51 799.762 1484.77 L799.762 1480.07 Q801.846 1481.2 804.068 1481.76 Q806.29 1482.32 808.767 1482.32 Q812.771 1482.32 815.109 1480.21 Q817.447 1478.1 817.447 1474.49 Q817.447 1470.88 815.109 1468.77 Q812.771 1466.67 808.767 1466.67 Q806.892 1466.67 805.017 1467.08 Q803.165 1467.5 801.221 1468.38 L801.221 1451.02 Z" fill="#000000" fill-rule="nonzero" fill-opacity="1"></path><path clip-path="url(#clip210)" d="M1269.69 1451.02 L1288.05 1451.02 L1288.05 1454.96 L1273.98 1454.96 L1273.98 1463.43 Q1275 1463.08 1276.01 1462.92 Q1277.03 1462.73 1278.05 1462.73 Q1283.84 1462.73 1287.22 1465.9 Q1290.6 1469.08 1290.6 1474.49 Q1290.6 1480.07 1287.13 1483.17 Q1283.65 1486.25 1277.33 1486.25 Q1275.16 1486.25 1272.89 1485.88 Q1270.64 1485.51 1268.24 1484.77 L1268.24 1480.07 Q1270.32 1481.2 1272.54 1481.76 Q1274.76 1482.32 1277.24 1482.32 Q1281.25 1482.32 1283.58 1480.21 Q1285.92 1478.1 1285.92 1474.49 Q1285.92 1470.88 1283.58 1468.77 Q1281.25 1466.67 1277.24 1466.67 Q1275.37 1466.67 1273.49 1467.08 Q1271.64 1467.5 1269.69 1468.38 L1269.69 1451.02 Z" fill="#000000" fill-rule="nonzero" fill-opacity="1"></path><path clip-path="url(#clip210)" d="M1309.81 1454.1 Q1306.2 1454.1 1304.37 1457.66 Q1302.56 1461.2 1302.56 1468.33 Q1302.56 1475.44 1304.37 1479.01 Q1306.2 1482.55 1309.81 1482.55 Q1313.44 1482.55 1315.25 1479.01 Q1317.08 1475.44 1317.08 1468.33 Q1317.08 1461.2 1315.25 1457.66 Q1313.44 1454.1 1309.81 1454.1 M1309.81 1450.39 Q1315.62 1450.39 1318.68 1455 Q1321.75 1459.58 1321.75 1468.33 Q1321.75 1477.06 1318.68 1481.67 Q1315.62 1486.25 1309.81 1486.25 Q1304 1486.25 1300.92 1481.67 Q1297.87 1477.06 1297.87 1468.33 Q1297.87 1459.58 1300.92 1455 Q1304 1450.39 1309.81 1450.39 Z" fill="#000000" fill-rule="nonzero" fill-opacity="1"></path><path clip-path="url(#clip210)" d="M1768.08 1451.02 L1790.3 1451.02 L1790.3 1453.01 L1777.75 1485.58 L1772.87 1485.58 L1784.67 1454.96 L1768.08 1454.96 L1768.08 1451.02 Z" fill="#000000" fill-rule="nonzero" fill-opacity="1"></path><path clip-path="url(#clip210)" d="M1799.46 1451.02 L1817.82 1451.02 L1817.82 1454.96 L1803.75 1454.96 L1803.75 1463.43 Q1804.77 1463.08 1805.78 1462.92 Q1806.8 1462.73 1807.82 1462.73 Q1813.61 1462.73 1816.99 1465.9 Q1820.37 1469.08 1820.37 1474.49 Q1820.37 1480.07 1816.9 1483.17 Q1813.42 1486.25 1807.1 1486.25 Q1804.93 1486.25 1802.66 1485.88 Q1800.41 1485.51 1798.01 1484.77 L1798.01 1480.07 Q1800.09 1481.2 1802.31 1481.76 Q1804.53 1482.32 1807.01 1482.32 Q1811.02 1482.32 1813.35 1480.21 Q1815.69 1478.1 1815.69 1474.49 Q1815.69 1470.88 1813.35 1468.77 Q1811.02 1466.67 1807.01 1466.67 Q1805.14 1466.67 1803.26 1467.08 Q1801.41 1467.5 1799.46 1468.38 L1799.46 1451.02 Z" fill="#000000" fill-rule="nonzero" fill-opacity="1"></path><path clip-path="url(#clip210)" d="M2253.05 1481.64 L2260.69 1481.64 L2260.69 1455.28 L2252.38 1456.95 L2252.38 1452.69 L2260.65 1451.02 L2265.32 1451.02 L2265.32 1481.64 L2272.96 1481.64 L2272.96 1485.58 L2253.05 1485.58 L2253.05 1481.64 Z" fill="#000000" fill-rule="nonzero" fill-opacity="1"></path><path clip-path="url(#clip210)" d="M2292.41 1454.1 Q2288.8 1454.1 2286.97 1457.66 Q2285.16 1461.2 2285.16 1468.33 Q2285.16 1475.44 2286.97 1479.01 Q2288.8 1482.55 2292.41 1482.55 Q2296.04 1482.55 2297.85 1479.01 Q2299.67 1475.44 2299.67 1468.33 Q2299.67 1461.2 2297.85 1457.66 Q2296.04 1454.1 2292.41 1454.1 M2292.41 1450.39 Q2298.22 1450.39 2301.27 1455 Q2304.35 1459.58 2304.35 1468.33 Q2304.35 1477.06 2301.27 1481.67 Q2298.22 1486.25 2292.41 1486.25 Q2286.6 1486.25 2283.52 1481.67 Q2280.46 1477.06 2280.46 1468.33 Q2280.46 1459.58 2283.52 1455 Q2286.6 1450.39 2292.41 1450.39 Z" fill="#000000" fill-rule="nonzero" fill-opacity="1"></path><path clip-path="url(#clip210)" d="M2322.57 1454.1 Q2318.96 1454.1 2317.13 1457.66 Q2315.32 1461.2 2315.32 1468.33 Q2315.32 1475.44 2317.13 1479.01 Q2318.96 1482.55 2322.57 1482.55 Q2326.2 1482.55 2328.01 1479.01 Q2329.84 1475.44 2329.84 1468.33 Q2329.84 1461.2 2328.01 1457.66 Q2326.2 1454.1 2322.57 1454.1 M2322.57 1450.39 Q2328.38 1450.39 2331.43 1455 Q2334.51 1459.58 2334.51 1468.33 Q2334.51 1477.06 2331.43 1481.67 Q2328.38 1486.25 2322.57 1486.25 Q2316.76 1486.25 2313.68 1481.67 Q2310.62 1477.06 2310.62 1468.33 Q2310.62 1459.58 2313.68 1455 Q2316.76 1450.39 2322.57 1450.39 Z" fill="#000000" fill-rule="nonzero" fill-opacity="1"></path><path clip-path="url(#clip210)" d="M1039.23 1520.52 L1047.88 1520.52 L1068.96 1560.28 L1068.96 1520.52 L1075.19 1520.52 L1075.19 1568.04 L1066.54 1568.04 L1045.47 1528.29 L1045.47 1568.04 L1039.23 1568.04 L1039.23 1520.52 Z" fill="#000000" fill-rule="nonzero" fill-opacity="1"></path><path clip-path="url(#clip210)" d="M1087.13 1553.98 L1087.13 1532.4 L1092.99 1532.4 L1092.99 1553.75 Q1092.99 1558.81 1094.96 1561.36 Q1096.93 1563.87 1100.88 1563.87 Q1105.62 1563.87 1108.36 1560.85 Q1111.13 1557.83 1111.13 1552.61 L1111.13 1532.4 L1116.98 1532.4 L1116.98 1568.04 L1111.13 1568.04 L1111.13 1562.57 Q1109 1565.82 1106.16 1567.41 Q1103.36 1568.97 1099.64 1568.97 Q1093.5 1568.97 1090.31 1565.15 Q1087.13 1561.33 1087.13 1553.98 M1101.87 1531.54 L1101.87 1531.54 Z" fill="#000000" fill-rule="nonzero" fill-opacity="1"></path><path clip-path="url(#clip210)" d="M1156.8 1539.24 Q1159 1535.29 1162.05 1533.41 Q1165.11 1531.54 1169.25 1531.54 Q1174.82 1531.54 1177.84 1535.45 Q1180.86 1539.33 1180.86 1546.53 L1180.86 1568.04 L1174.98 1568.04 L1174.98 1546.72 Q1174.98 1541.59 1173.16 1539.11 Q1171.35 1536.63 1167.62 1536.63 Q1163.07 1536.63 1160.43 1539.65 Q1157.79 1542.68 1157.79 1547.9 L1157.79 1568.04 L1151.9 1568.04 L1151.9 1546.72 Q1151.9 1541.56 1150.09 1539.11 Q1148.27 1536.63 1144.48 1536.63 Q1140 1536.63 1137.35 1539.68 Q1134.71 1542.71 1134.71 1547.9 L1134.71 1568.04 L1128.82 1568.04 L1128.82 1532.4 L1134.71 1532.4 L1134.71 1537.93 Q1136.72 1534.66 1139.52 1533.1 Q1142.32 1531.54 1146.17 1531.54 Q1150.05 1531.54 1152.76 1533.51 Q1155.5 1535.48 1156.8 1539.24 Z" fill="#000000" fill-rule="nonzero" fill-opacity="1"></path><path clip-path="url(#clip210)" d="M1218.14 1550.25 Q1218.14 1543.79 1215.46 1540.13 Q1212.82 1536.44 1208.17 1536.44 Q1203.53 1536.44 1200.85 1540.13 Q1198.21 1543.79 1198.21 1550.25 Q1198.21 1556.71 1200.85 1560.4 Q1203.53 1564.07 1208.17 1564.07 Q1212.82 1564.07 1215.46 1560.4 Q1218.14 1556.71 1218.14 1550.25 M1198.21 1537.81 Q1200.06 1534.62 1202.86 1533.1 Q1205.69 1531.54 1209.61 1531.54 Q1216.1 1531.54 1220.14 1536.69 Q1224.22 1541.85 1224.22 1550.25 Q1224.22 1558.65 1220.14 1563.81 Q1216.1 1568.97 1209.61 1568.97 Q1205.69 1568.97 1202.86 1567.44 Q1200.06 1565.88 1198.21 1562.7 L1198.21 1568.04 L1192.32 1568.04 L1192.32 1518.52 L1198.21 1518.52 L1198.21 1537.81 Z" fill="#000000" fill-rule="nonzero" fill-opacity="1"></path><path clip-path="url(#clip210)" d="M1264.41 1548.76 L1264.41 1551.62 L1237.49 1551.62 Q1237.87 1557.67 1241.12 1560.85 Q1244.39 1564 1250.22 1564 Q1253.59 1564 1256.74 1563.17 Q1259.93 1562.35 1263.05 1560.69 L1263.05 1566.23 Q1259.89 1567.57 1256.58 1568.27 Q1253.27 1568.97 1249.87 1568.97 Q1241.34 1568.97 1236.34 1564 Q1231.38 1559.04 1231.38 1550.57 Q1231.38 1541.82 1236.09 1536.69 Q1240.83 1531.54 1248.85 1531.54 Q1256.04 1531.54 1260.21 1536.18 Q1264.41 1540.8 1264.41 1548.76 M1258.56 1547.04 Q1258.49 1542.23 1255.85 1539.37 Q1253.24 1536.5 1248.91 1536.5 Q1244.01 1536.5 1241.05 1539.27 Q1238.12 1542.04 1237.68 1547.07 L1258.56 1547.04 Z" fill="#000000" fill-rule="nonzero" fill-opacity="1"></path><path clip-path="url(#clip210)" d="M1294.68 1537.87 Q1293.7 1537.3 1292.52 1537.04 Q1291.37 1536.76 1289.97 1536.76 Q1285.01 1536.76 1282.33 1540 Q1279.69 1543.22 1279.69 1549.27 L1279.69 1568.04 L1273.8 1568.04 L1273.8 1532.4 L1279.69 1532.4 L1279.69 1537.93 Q1281.54 1534.69 1284.5 1533.13 Q1287.46 1531.54 1291.69 1531.54 Q1292.3 1531.54 1293.03 1531.63 Q1293.76 1531.7 1294.65 1531.85 L1294.68 1537.87 Z" fill="#000000" fill-rule="nonzero" fill-opacity="1"></path><path clip-path="url(#clip210)" d="M1335.36 1536.5 Q1330.65 1536.5 1327.91 1540.19 Q1325.18 1543.85 1325.18 1550.25 Q1325.18 1556.65 1327.88 1560.34 Q1330.62 1564 1335.36 1564 Q1340.04 1564 1342.78 1560.31 Q1345.51 1556.62 1345.51 1550.25 Q1345.51 1543.92 1342.78 1540.23 Q1340.04 1536.5 1335.36 1536.5 M1335.36 1531.54 Q1343 1531.54 1347.36 1536.5 Q1351.72 1541.47 1351.72 1550.25 Q1351.72 1559 1347.36 1564 Q1343 1568.97 1335.36 1568.97 Q1327.69 1568.97 1323.33 1564 Q1319 1559 1319 1550.25 Q1319 1541.47 1323.33 1536.5 Q1327.69 1531.54 1335.36 1531.54 Z" fill="#000000" fill-rule="nonzero" fill-opacity="1"></path><path clip-path="url(#clip210)" d="M1379.47 1518.52 L1379.47 1523.39 L1373.87 1523.39 Q1370.72 1523.39 1369.48 1524.66 Q1368.27 1525.93 1368.27 1529.24 L1368.27 1532.4 L1377.92 1532.4 L1377.92 1536.95 L1368.27 1536.95 L1368.27 1568.04 L1362.38 1568.04 L1362.38 1536.95 L1356.78 1536.95 L1356.78 1532.4 L1362.38 1532.4 L1362.38 1529.91 Q1362.38 1523.96 1365.15 1521.26 Q1367.92 1518.52 1373.94 1518.52 L1379.47 1518.52 Z" fill="#000000" fill-rule="nonzero" fill-opacity="1"></path><path clip-path="url(#clip210)" d="M1427.82 1533.45 L1427.82 1538.98 Q1425.34 1537.71 1422.67 1537.07 Q1419.99 1536.44 1417.13 1536.44 Q1412.77 1536.44 1410.57 1537.77 Q1408.41 1539.11 1408.41 1541.79 Q1408.41 1543.82 1409.97 1545 Q1411.53 1546.15 1416.24 1547.2 L1418.24 1547.64 Q1424.48 1548.98 1427.09 1551.43 Q1429.73 1553.85 1429.73 1558.21 Q1429.73 1563.17 1425.79 1566.07 Q1421.87 1568.97 1415 1568.97 Q1412.13 1568.97 1409.01 1568.39 Q1405.92 1567.85 1402.49 1566.74 L1402.49 1560.69 Q1405.73 1562.38 1408.88 1563.24 Q1412.04 1564.07 1415.12 1564.07 Q1419.26 1564.07 1421.49 1562.66 Q1423.72 1561.23 1423.72 1558.65 Q1423.72 1556.27 1422.09 1554.99 Q1420.5 1553.72 1415.06 1552.54 L1413.02 1552.07 Q1407.58 1550.92 1405.16 1548.56 Q1402.74 1546.18 1402.74 1542.04 Q1402.74 1537.01 1406.31 1534.27 Q1409.87 1531.54 1416.43 1531.54 Q1419.67 1531.54 1422.54 1532.01 Q1425.4 1532.49 1427.82 1533.45 Z" fill="#000000" fill-rule="nonzero" fill-opacity="1"></path><path clip-path="url(#clip210)" d="M1444.85 1522.27 L1444.85 1532.4 L1456.91 1532.4 L1456.91 1536.95 L1444.85 1536.95 L1444.85 1556.3 Q1444.85 1560.66 1446.03 1561.9 Q1447.24 1563.14 1450.9 1563.14 L1456.91 1563.14 L1456.91 1568.04 L1450.9 1568.04 Q1444.12 1568.04 1441.54 1565.53 Q1438.96 1562.98 1438.96 1556.3 L1438.96 1536.95 L1434.67 1536.95 L1434.67 1532.4 L1438.96 1532.4 L1438.96 1522.27 L1444.85 1522.27 Z" fill="#000000" fill-rule="nonzero" fill-opacity="1"></path><path clip-path="url(#clip210)" d="M1495.11 1548.76 L1495.11 1551.62 L1468.18 1551.62 Q1468.56 1557.67 1471.81 1560.85 Q1475.09 1564 1480.91 1564 Q1484.29 1564 1487.44 1563.17 Q1490.62 1562.35 1493.74 1560.69 L1493.74 1566.23 Q1490.59 1567.57 1487.28 1568.27 Q1483.97 1568.97 1480.56 1568.97 Q1472.03 1568.97 1467.03 1564 Q1462.07 1559.04 1462.07 1550.57 Q1462.07 1541.82 1466.78 1536.69 Q1471.52 1531.54 1479.54 1531.54 Q1486.74 1531.54 1490.91 1536.18 Q1495.11 1540.8 1495.11 1548.76 M1489.25 1547.04 Q1489.19 1542.23 1486.55 1539.37 Q1483.94 1536.5 1479.61 1536.5 Q1474.71 1536.5 1471.75 1539.27 Q1468.82 1542.04 1468.37 1547.07 L1489.25 1547.04 Z" fill="#000000" fill-rule="nonzero" fill-opacity="1"></path><path clip-path="url(#clip210)" d="M1510.39 1562.7 L1510.39 1581.6 L1504.5 1581.6 L1504.5 1532.4 L1510.39 1532.4 L1510.39 1537.81 Q1512.23 1534.62 1515.03 1533.1 Q1517.87 1531.54 1521.78 1531.54 Q1528.27 1531.54 1532.32 1536.69 Q1536.39 1541.85 1536.39 1550.25 Q1536.39 1558.65 1532.32 1563.81 Q1528.27 1568.97 1521.78 1568.97 Q1517.87 1568.97 1515.03 1567.44 Q1512.23 1565.88 1510.39 1562.7 M1530.31 1550.25 Q1530.31 1543.79 1527.64 1540.13 Q1524.99 1536.44 1520.35 1536.44 Q1515.7 1536.44 1513.03 1540.13 Q1510.39 1543.79 1510.39 1550.25 Q1510.39 1556.71 1513.03 1560.4 Q1515.7 1564.07 1520.35 1564.07 Q1524.99 1564.07 1527.64 1560.4 Q1530.31 1556.71 1530.31 1550.25 Z" fill="#000000" fill-rule="nonzero" fill-opacity="1"></path><path clip-path="url(#clip210)" d="M1568.82 1533.45 L1568.82 1538.98 Q1566.34 1537.71 1563.67 1537.07 Q1560.99 1536.44 1558.13 1536.44 Q1553.77 1536.44 1551.57 1537.77 Q1549.41 1539.11 1549.41 1541.79 Q1549.41 1543.82 1550.97 1545 Q1552.53 1546.15 1557.24 1547.2 L1559.24 1547.64 Q1565.48 1548.98 1568.09 1551.43 Q1570.73 1553.85 1570.73 1558.21 Q1570.73 1563.17 1566.79 1566.07 Q1562.87 1568.97 1556 1568.97 Q1553.13 1568.97 1550.01 1568.39 Q1546.92 1567.85 1543.49 1566.74 L1543.49 1560.69 Q1546.73 1562.38 1549.88 1563.24 Q1553.04 1564.07 1556.12 1564.07 Q1560.26 1564.07 1562.49 1562.66 Q1564.72 1561.23 1564.72 1558.65 Q1564.72 1556.27 1563.09 1554.99 Q1561.5 1553.72 1556.06 1552.54 L1554.02 1552.07 Q1548.58 1550.92 1546.16 1548.56 Q1543.74 1546.18 1543.74 1542.04 Q1543.74 1537.01 1547.31 1534.27 Q1550.87 1531.54 1557.43 1531.54 Q1560.67 1531.54 1563.54 1532.01 Q1566.4 1532.49 1568.82 1533.45 Z" fill="#000000" fill-rule="nonzero" fill-opacity="1"></path><polyline clip-path="url(#clip212)" style="stroke:#000000; stroke-linecap:round; stroke-linejoin:round; stroke-width:2; stroke-opacity:0.1; fill:none" points="257.204,1386.4 2352.76,1386.4 "></polyline>
<polyline clip-path="url(#clip212)" style="stroke:#000000; stroke-linecap:round; stroke-linejoin:round; stroke-width:2; stroke-opacity:0.1; fill:none" points="257.204,1021.39 2352.76,1021.39 "></polyline>
<polyline clip-path="url(#clip212)" style="stroke:#000000; stroke-linecap:round; stroke-linejoin:round; stroke-width:2; stroke-opacity:0.1; fill:none" points="257.204,656.39 2352.76,656.39 "></polyline>
<polyline clip-path="url(#clip212)" style="stroke:#000000; stroke-linecap:round; stroke-linejoin:round; stroke-width:2; stroke-opacity:0.1; fill:none" points="257.204,291.387 2352.76,291.387 "></polyline>
<polyline clip-path="url(#clip210)" style="stroke:#000000; stroke-linecap:round; stroke-linejoin:round; stroke-width:4; stroke-opacity:1; fill:none" points="257.204,1423.18 257.204,123.472 "></polyline>
<polyline clip-path="url(#clip210)" style="stroke:#000000; stroke-linecap:round; stroke-linejoin:round; stroke-width:4; stroke-opacity:1; fill:none" points="257.204,1386.4 276.102,1386.4 "></polyline>
<polyline clip-path="url(#clip210)" style="stroke:#000000; stroke-linecap:round; stroke-linejoin:round; stroke-width:4; stroke-opacity:1; fill:none" points="257.204,1021.39 276.102,1021.39 "></polyline>
<polyline clip-path="url(#clip210)" style="stroke:#000000; stroke-linecap:round; stroke-linejoin:round; stroke-width:4; stroke-opacity:1; fill:none" points="257.204,656.39 276.102,656.39 "></polyline>
<polyline clip-path="url(#clip210)" style="stroke:#000000; stroke-linecap:round; stroke-linejoin:round; stroke-width:4; stroke-opacity:1; fill:none" points="257.204,291.387 276.102,291.387 "></polyline>
<path clip-path="url(#clip210)" d="M114.26 1386.85 L143.936 1386.85 L143.936 1390.78 L114.26 1390.78 L114.26 1386.85 Z" fill="#000000" fill-rule="nonzero" fill-opacity="1"></path><path clip-path="url(#clip210)" d="M154.839 1399.74 L162.477 1399.74 L162.477 1373.37 L154.167 1375.04 L154.167 1370.78 L162.431 1369.12 L167.107 1369.12 L167.107 1399.74 L174.746 1399.74 L174.746 1403.68 L154.839 1403.68 L154.839 1399.74 Z" fill="#000000" fill-rule="nonzero" fill-opacity="1"></path><path clip-path="url(#clip210)" d="M184.19 1397.8 L189.075 1397.8 L189.075 1403.68 L184.19 1403.68 L184.19 1397.8 Z" fill="#000000" fill-rule="nonzero" fill-opacity="1"></path><path clip-path="url(#clip210)" d="M209.26 1372.19 Q205.649 1372.19 203.82 1375.76 Q202.014 1379.3 202.014 1386.43 Q202.014 1393.54 203.82 1397.1 Q205.649 1400.64 209.26 1400.64 Q212.894 1400.64 214.699 1397.1 Q216.528 1393.54 216.528 1386.43 Q216.528 1379.3 214.699 1375.76 Q212.894 1372.19 209.26 1372.19 M209.26 1368.49 Q215.07 1368.49 218.125 1373.1 Q221.204 1377.68 221.204 1386.43 Q221.204 1395.16 218.125 1399.76 Q215.07 1404.35 209.26 1404.35 Q203.449 1404.35 200.371 1399.76 Q197.315 1395.16 197.315 1386.43 Q197.315 1377.68 200.371 1373.1 Q203.449 1368.49 209.26 1368.49 Z" fill="#000000" fill-rule="nonzero" fill-opacity="1"></path><path clip-path="url(#clip210)" d="M114.445 1021.84 L144.121 1021.84 L144.121 1025.78 L114.445 1025.78 L114.445 1021.84 Z" fill="#000000" fill-rule="nonzero" fill-opacity="1"></path><path clip-path="url(#clip210)" d="M164.214 1007.19 Q160.603 1007.19 158.774 1010.76 Q156.968 1014.3 156.968 1021.43 Q156.968 1028.53 158.774 1032.1 Q160.603 1035.64 164.214 1035.64 Q167.848 1035.64 169.653 1032.1 Q171.482 1028.53 171.482 1021.43 Q171.482 1014.3 169.653 1010.76 Q167.848 1007.19 164.214 1007.19 M164.214 1003.49 Q170.024 1003.49 173.079 1008.09 Q176.158 1012.68 176.158 1021.43 Q176.158 1030.15 173.079 1034.76 Q170.024 1039.34 164.214 1039.34 Q158.403 1039.34 155.325 1034.76 Q152.269 1030.15 152.269 1021.43 Q152.269 1012.68 155.325 1008.09 Q158.403 1003.49 164.214 1003.49 Z" fill="#000000" fill-rule="nonzero" fill-opacity="1"></path><path clip-path="url(#clip210)" d="M184.376 1032.79 L189.26 1032.79 L189.26 1038.67 L184.376 1038.67 L184.376 1032.79 Z" fill="#000000" fill-rule="nonzero" fill-opacity="1"></path><path clip-path="url(#clip210)" d="M199.584 1037.96 L199.584 1033.7 Q201.343 1034.53 203.149 1034.97 Q204.954 1035.41 206.69 1035.41 Q211.32 1035.41 213.75 1032.31 Q216.204 1029.18 216.551 1022.84 Q215.209 1024.83 213.149 1025.9 Q211.088 1026.96 208.588 1026.96 Q203.403 1026.96 200.371 1023.83 Q197.362 1020.69 197.362 1015.25 Q197.362 1009.92 200.51 1006.71 Q203.658 1003.49 208.889 1003.49 Q214.885 1003.49 218.033 1008.09 Q221.204 1012.68 221.204 1021.43 Q221.204 1029.6 217.315 1034.48 Q213.449 1039.34 206.899 1039.34 Q205.139 1039.34 203.334 1039 Q201.528 1038.65 199.584 1037.96 M208.889 1023.3 Q212.037 1023.3 213.866 1021.15 Q215.718 1019 215.718 1015.25 Q215.718 1011.52 213.866 1009.37 Q212.037 1007.19 208.889 1007.19 Q205.741 1007.19 203.889 1009.37 Q202.061 1011.52 202.061 1015.25 Q202.061 1019 203.889 1021.15 Q205.741 1023.3 208.889 1023.3 Z" fill="#000000" fill-rule="nonzero" fill-opacity="1"></path><path clip-path="url(#clip210)" d="M114.353 656.841 L144.029 656.841 L144.029 660.777 L114.353 660.777 L114.353 656.841 Z" fill="#000000" fill-rule="nonzero" fill-opacity="1"></path><path clip-path="url(#clip210)" d="M164.121 642.189 Q160.51 642.189 158.681 645.753 Q156.876 649.295 156.876 656.425 Q156.876 663.531 158.681 667.096 Q160.51 670.638 164.121 670.638 Q167.755 670.638 169.561 667.096 Q171.389 663.531 171.389 656.425 Q171.389 649.295 169.561 645.753 Q167.755 642.189 164.121 642.189 M164.121 638.485 Q169.931 638.485 172.987 643.091 Q176.065 647.675 176.065 656.425 Q176.065 665.151 172.987 669.758 Q169.931 674.341 164.121 674.341 Q158.311 674.341 155.232 669.758 Q152.177 665.151 152.177 656.425 Q152.177 647.675 155.232 643.091 Q158.311 638.485 164.121 638.485 Z" fill="#000000" fill-rule="nonzero" fill-opacity="1"></path><path clip-path="url(#clip210)" d="M184.283 667.79 L189.167 667.79 L189.167 673.67 L184.283 673.67 L184.283 667.79 Z" fill="#000000" fill-rule="nonzero" fill-opacity="1"></path><path clip-path="url(#clip210)" d="M209.352 657.258 Q206.019 657.258 204.098 659.04 Q202.2 660.823 202.2 663.948 Q202.2 667.073 204.098 668.855 Q206.019 670.638 209.352 670.638 Q212.686 670.638 214.607 668.855 Q216.528 667.05 216.528 663.948 Q216.528 660.823 214.607 659.04 Q212.709 657.258 209.352 657.258 M204.676 655.267 Q201.667 654.527 199.977 652.466 Q198.311 650.406 198.311 647.443 Q198.311 643.3 201.25 640.892 Q204.213 638.485 209.352 638.485 Q214.514 638.485 217.454 640.892 Q220.394 643.3 220.394 647.443 Q220.394 650.406 218.704 652.466 Q217.037 654.527 214.051 655.267 Q217.431 656.054 219.306 658.346 Q221.204 660.638 221.204 663.948 Q221.204 668.971 218.125 671.656 Q215.07 674.341 209.352 674.341 Q203.635 674.341 200.556 671.656 Q197.5 668.971 197.5 663.948 Q197.5 660.638 199.399 658.346 Q201.297 656.054 204.676 655.267 M202.963 647.883 Q202.963 650.568 204.63 652.073 Q206.32 653.577 209.352 653.577 Q212.361 653.577 214.051 652.073 Q215.764 650.568 215.764 647.883 Q215.764 645.198 214.051 643.693 Q212.361 642.189 209.352 642.189 Q206.32 642.189 204.63 643.693 Q202.963 645.198 202.963 647.883 Z" fill="#000000" fill-rule="nonzero" fill-opacity="1"></path><path clip-path="url(#clip210)" d="M115.163 291.839 L144.839 291.839 L144.839 295.774 L115.163 295.774 L115.163 291.839 Z" fill="#000000" fill-rule="nonzero" fill-opacity="1"></path><path clip-path="url(#clip210)" d="M164.931 277.186 Q161.32 277.186 159.491 280.751 Q157.686 284.292 157.686 291.422 Q157.686 298.528 159.491 302.093 Q161.32 305.635 164.931 305.635 Q168.565 305.635 170.371 302.093 Q172.2 298.528 172.2 291.422 Q172.2 284.292 170.371 280.751 Q168.565 277.186 164.931 277.186 M164.931 273.482 Q170.741 273.482 173.797 278.089 Q176.876 282.672 176.876 291.422 Q176.876 300.149 173.797 304.755 Q170.741 309.338 164.931 309.338 Q159.121 309.338 156.042 304.755 Q152.987 300.149 152.987 291.422 Q152.987 282.672 156.042 278.089 Q159.121 273.482 164.931 273.482 Z" fill="#000000" fill-rule="nonzero" fill-opacity="1"></path><path clip-path="url(#clip210)" d="M185.093 302.788 L189.977 302.788 L189.977 308.667 L185.093 308.667 L185.093 302.788 Z" fill="#000000" fill-rule="nonzero" fill-opacity="1"></path><path clip-path="url(#clip210)" d="M198.982 274.107 L221.204 274.107 L221.204 276.098 L208.658 308.667 L203.774 308.667 L215.579 278.042 L198.982 278.042 L198.982 274.107 Z" fill="#000000" fill-rule="nonzero" fill-opacity="1"></path><path clip-path="url(#clip210)" d="M16.4842 1053.08 L16.4842 1044.43 L56.238 1023.36 L16.4842 1023.36 L16.4842 1017.12 L64.0042 1017.12 L64.0042 1025.77 L24.2503 1046.84 L64.0042 1046.84 L64.0042 1053.08 L16.4842 1053.08 Z" fill="#000000" fill-rule="nonzero" fill-opacity="1"></path><path clip-path="url(#clip210)" d="M44.7161 974.084 L47.5806 974.084 L47.5806 1001.01 Q53.6281 1000.63 56.8109 997.383 Q59.9619 994.105 59.9619 988.28 Q59.9619 984.906 59.1344 981.755 Q58.3069 978.572 56.6518 975.453 L62.1899 975.453 Q63.5267 978.604 64.227 981.914 Q64.9272 985.224 64.9272 988.63 Q64.9272 997.16 59.9619 1002.16 Q54.9967 1007.12 46.5303 1007.12 Q37.7774 1007.12 32.6531 1002.41 Q27.4968 997.669 27.4968 989.649 Q27.4968 982.455 32.1438 978.286 Q36.7589 974.084 44.7161 974.084 M42.9973 979.941 Q38.1912 980.005 35.3266 982.646 Q32.4621 985.256 32.4621 989.585 Q32.4621 994.487 35.2312 997.447 Q38.0002 1000.37 43.0292 1000.82 L42.9973 979.941 Z" fill="#000000" fill-rule="nonzero" fill-opacity="1"></path><path clip-path="url(#clip210)" d="M45.7664 941.015 Q39.4007 941.015 35.8996 943.656 Q32.3984 946.266 32.3984 951.009 Q32.3984 955.719 35.8996 958.361 Q39.4007 960.971 45.7664 960.971 Q52.1003 960.971 55.6014 958.361 Q59.1026 955.719 59.1026 951.009 Q59.1026 946.266 55.6014 943.656 Q52.1003 941.015 45.7664 941.015 M59.58 935.158 Q68.683 935.158 73.1071 939.2 Q77.5631 943.243 77.5631 951.582 Q77.5631 954.669 77.0857 957.406 Q76.6401 960.144 75.6852 962.722 L69.9879 962.722 Q71.3884 960.144 72.0568 957.629 Q72.7252 955.115 72.7252 952.505 Q72.7252 946.744 69.7015 943.879 Q66.7096 941.015 60.6303 941.015 L57.7339 941.015 Q60.885 942.829 62.4446 945.662 Q64.0042 948.494 64.0042 952.441 Q64.0042 958.998 59.0071 963.008 Q54.01 967.019 45.7664 967.019 Q37.491 967.019 32.4939 963.008 Q27.4968 958.998 27.4968 952.441 Q27.4968 948.494 29.0564 945.662 Q30.616 942.829 33.7671 941.015 L28.3562 941.015 L28.3562 935.158 L59.58 935.158 Z" fill="#000000" fill-rule="nonzero" fill-opacity="1"></path><path clip-path="url(#clip210)" d="M46.0847 906.894 Q46.0847 913.992 47.7079 916.729 Q49.3312 919.467 53.2461 919.467 Q56.3653 919.467 58.2114 917.43 Q60.0256 915.361 60.0256 911.828 Q60.0256 906.958 56.5881 904.03 Q53.1188 901.07 47.3897 901.07 L46.0847 901.07 L46.0847 906.894 M43.6657 895.213 L64.0042 895.213 L64.0042 901.07 L58.5933 901.07 Q61.8398 903.075 63.3994 906.067 Q64.9272 909.059 64.9272 913.387 Q64.9272 918.862 61.8716 922.108 Q58.7843 925.323 53.6281 925.323 Q47.6125 925.323 44.5569 921.313 Q41.5014 917.271 41.5014 909.282 L41.5014 901.07 L40.9285 901.07 Q36.8862 901.07 34.6901 903.743 Q32.4621 906.385 32.4621 911.191 Q32.4621 914.247 33.1941 917.143 Q33.9262 920.04 35.3903 922.713 L29.9795 922.713 Q28.7381 919.499 28.1334 916.475 Q27.4968 913.451 27.4968 910.587 Q27.4968 902.852 31.5072 899.033 Q35.5176 895.213 43.6657 895.213 Z" fill="#000000" fill-rule="nonzero" fill-opacity="1"></path><path clip-path="url(#clip210)" d="M18.2347 877.358 L28.3562 877.358 L28.3562 865.295 L32.9077 865.295 L32.9077 877.358 L52.2594 877.358 Q56.6199 877.358 57.8613 876.18 Q59.1026 874.97 59.1026 871.31 L59.1026 865.295 L64.0042 865.295 L64.0042 871.31 Q64.0042 878.09 61.4897 880.668 Q58.9434 883.246 52.2594 883.246 L32.9077 883.246 L32.9077 887.543 L28.3562 887.543 L28.3562 883.246 L18.2347 883.246 L18.2347 877.358 Z" fill="#000000" fill-rule="nonzero" fill-opacity="1"></path><path clip-path="url(#clip210)" d="M28.3562 857.592 L28.3562 851.736 L64.0042 851.736 L64.0042 857.592 L28.3562 857.592 M14.479 857.592 L14.479 851.736 L21.895 851.736 L21.895 857.592 L14.479 857.592 Z" fill="#000000" fill-rule="nonzero" fill-opacity="1"></path><path clip-path="url(#clip210)" d="M28.3562 843.683 L28.3562 837.476 L58.275 826.336 L28.3562 815.196 L28.3562 808.99 L64.0042 822.358 L64.0042 830.315 L28.3562 843.683 Z" fill="#000000" fill-rule="nonzero" fill-opacity="1"></path><path clip-path="url(#clip210)" d="M44.7161 770.414 L47.5806 770.414 L47.5806 797.341 Q53.6281 796.959 56.8109 793.712 Q59.9619 790.434 59.9619 784.609 Q59.9619 781.235 59.1344 778.084 Q58.3069 774.901 56.6518 771.782 L62.1899 771.782 Q63.5267 774.933 64.227 778.243 Q64.9272 781.554 64.9272 784.959 Q64.9272 793.489 59.9619 798.486 Q54.9967 803.452 46.5303 803.452 Q37.7774 803.452 32.6531 798.741 Q27.4968 793.999 27.4968 785.978 Q27.4968 778.785 32.1438 774.615 Q36.7589 770.414 44.7161 770.414 M42.9973 776.27 Q38.1912 776.334 35.3266 778.976 Q32.4621 781.585 32.4621 785.914 Q32.4621 790.816 35.2312 793.776 Q38.0002 796.704 43.0292 797.15 L42.9973 776.27 Z" fill="#000000" fill-rule="nonzero" fill-opacity="1"></path><path clip-path="url(#clip210)" d="M20.8447 720.538 Q20.8447 727.541 26.0645 731.678 Q31.2844 735.784 40.2919 735.784 Q49.2675 735.784 54.4874 731.678 Q59.7073 727.541 59.7073 720.538 Q59.7073 713.536 54.4874 709.462 Q49.2675 705.356 40.2919 705.356 Q31.2844 705.356 26.0645 709.462 Q20.8447 713.536 20.8447 720.538 M15.6248 720.538 Q15.6248 710.544 22.3406 704.56 Q29.0246 698.577 40.2919 698.577 Q51.5274 698.577 58.2432 704.56 Q64.9272 710.544 64.9272 720.538 Q64.9272 730.564 58.2432 736.58 Q51.5592 742.564 40.2919 742.564 Q29.0246 742.564 22.3406 736.58 Q15.6248 730.564 15.6248 720.538 Z" fill="#000000" fill-rule="nonzero" fill-opacity="1"></path><path clip-path="url(#clip210)" d="M28.3562 692.975 L28.3562 686.768 L58.275 675.628 L28.3562 664.488 L28.3562 658.282 L64.0042 671.65 L64.0042 679.607 L28.3562 692.975 Z" fill="#000000" fill-rule="nonzero" fill-opacity="1"></path><path clip-path="url(#clip210)" d="M44.7161 619.706 L47.5806 619.706 L47.5806 646.633 Q53.6281 646.251 56.8109 643.004 Q59.9619 639.726 59.9619 633.901 Q59.9619 630.527 59.1344 627.376 Q58.3069 624.193 56.6518 621.074 L62.1899 621.074 Q63.5267 624.225 64.227 627.535 Q64.9272 630.846 64.9272 634.251 Q64.9272 642.781 59.9619 647.778 Q54.9967 652.744 46.5303 652.744 Q37.7774 652.744 32.6531 648.033 Q27.4968 643.291 27.4968 635.27 Q27.4968 628.076 32.1438 623.907 Q36.7589 619.706 44.7161 619.706 M42.9973 625.562 Q38.1912 625.626 35.3266 628.267 Q32.4621 630.877 32.4621 635.206 Q32.4621 640.108 35.2312 643.068 Q38.0002 645.996 43.0292 646.442 L42.9973 625.562 Z" fill="#000000" fill-rule="nonzero" fill-opacity="1"></path><path clip-path="url(#clip210)" d="M33.8307 589.437 Q33.2578 590.423 33.0032 591.601 Q32.7167 592.747 32.7167 594.147 Q32.7167 599.113 35.9632 601.786 Q39.1779 604.428 45.2253 604.428 L64.0042 604.428 L64.0042 610.316 L28.3562 610.316 L28.3562 604.428 L33.8944 604.428 Q30.6479 602.582 29.0883 599.622 Q27.4968 596.662 27.4968 592.429 Q27.4968 591.824 27.5923 591.092 Q27.656 590.36 27.8151 589.468 L33.8307 589.437 Z" fill="#000000" fill-rule="nonzero" fill-opacity="1"></path><path clip-path="url(#clip210)" d="M14.479 583.294 L14.479 577.437 L64.0042 577.437 L64.0042 583.294 L14.479 583.294 Z" fill="#000000" fill-rule="nonzero" fill-opacity="1"></path><path clip-path="url(#clip210)" d="M46.0847 548.983 Q46.0847 556.08 47.7079 558.818 Q49.3312 561.555 53.2461 561.555 Q56.3653 561.555 58.2114 559.518 Q60.0256 557.449 60.0256 553.916 Q60.0256 549.046 56.5881 546.118 Q53.1188 543.158 47.3897 543.158 L46.0847 543.158 L46.0847 548.983 M43.6657 537.301 L64.0042 537.301 L64.0042 543.158 L58.5933 543.158 Q61.8398 545.163 63.3994 548.155 Q64.9272 551.147 64.9272 555.476 Q64.9272 560.95 61.8716 564.197 Q58.7843 567.411 53.6281 567.411 Q47.6125 567.411 44.5569 563.401 Q41.5014 559.359 41.5014 551.37 L41.5014 543.158 L40.9285 543.158 Q36.8862 543.158 34.6901 545.832 Q32.4621 548.473 32.4621 553.279 Q32.4621 556.335 33.1941 559.231 Q33.9262 562.128 35.3903 564.801 L29.9795 564.801 Q28.7381 561.587 28.1334 558.563 Q27.4968 555.539 27.4968 552.675 Q27.4968 544.94 31.5072 541.121 Q35.5176 537.301 43.6657 537.301 Z" fill="#000000" fill-rule="nonzero" fill-opacity="1"></path><path clip-path="url(#clip210)" d="M58.657 519.573 L77.5631 519.573 L77.5631 525.461 L28.3562 525.461 L28.3562 519.573 L33.7671 519.573 Q30.5842 517.727 29.0564 514.926 Q27.4968 512.093 27.4968 508.178 Q27.4968 501.685 32.6531 497.643 Q37.8093 493.569 46.212 493.569 Q54.6147 493.569 59.771 497.643 Q64.9272 501.685 64.9272 508.178 Q64.9272 512.093 63.3994 514.926 Q61.8398 517.727 58.657 519.573 M46.212 499.648 Q39.7508 499.648 36.0905 502.322 Q32.3984 504.964 32.3984 509.611 Q32.3984 514.258 36.0905 516.931 Q39.7508 519.573 46.212 519.573 Q52.6732 519.573 56.3653 516.931 Q60.0256 514.258 60.0256 509.611 Q60.0256 504.964 56.3653 502.322 Q52.6732 499.648 46.212 499.648 Z" fill="#000000" fill-rule="nonzero" fill-opacity="1"></path><path clip-path="url(#clip210)" d="M946.475 65.6895 L975.034 65.6895 L975.034 72.576 L936.631 72.576 L936.631 65.6895 Q941.29 60.8689 949.311 52.7671 Q957.372 44.6248 959.438 42.2752 Q963.367 37.8598 964.907 34.8216 Q966.486 31.7429 966.486 28.7857 Q966.486 23.9651 963.084 20.927 Q959.721 17.8888 954.293 17.8888 Q950.445 17.8888 946.151 19.2256 Q941.897 20.5624 937.036 23.2765 L937.036 15.0127 Q941.978 13.0277 946.272 12.015 Q950.566 11.0023 954.131 11.0023 Q963.529 11.0023 969.119 15.7013 Q974.71 20.4004 974.71 28.2591 Q974.71 31.9859 973.292 35.3482 Q971.915 38.6699 968.228 43.2069 Q967.216 44.3817 961.787 50.0125 Q956.359 55.6027 946.475 65.6895 Z" fill="#000000" fill-rule="nonzero" fill-opacity="1"></path><path clip-path="url(#clip210)" d="M1054.11 14.0809 L1054.11 22.0612 Q1049.45 19.8332 1045.32 18.7395 Q1041.19 17.6457 1037.34 17.6457 Q1030.65 17.6457 1027.01 20.2383 Q1023.4 22.8309 1023.4 27.611 Q1023.4 31.6214 1025.79 33.6873 Q1028.22 35.7128 1034.95 36.9686 L1039.89 37.9813 Q1049.04 39.7232 1053.38 44.1387 Q1057.75 48.5136 1057.75 55.8863 Q1057.75 64.6767 1051.84 69.2137 Q1045.97 73.7508 1034.58 73.7508 Q1030.29 73.7508 1025.43 72.7785 Q1020.61 71.8063 1015.42 69.9024 L1015.42 61.4765 Q1020.4 64.2716 1025.18 65.6895 Q1029.96 67.1073 1034.58 67.1073 Q1041.59 67.1073 1045.4 64.3527 Q1049.21 61.598 1049.21 56.4939 Q1049.21 52.0379 1046.45 49.5264 Q1043.74 47.0148 1037.5 45.759 L1032.52 44.7868 Q1023.36 42.9639 1019.27 39.075 Q1015.18 35.1862 1015.18 28.2591 Q1015.18 20.2383 1020.81 15.6203 Q1026.48 11.0023 1036.41 11.0023 Q1040.66 11.0023 1045.07 11.7719 Q1049.49 12.5416 1054.11 14.0809 Z" fill="#000000" fill-rule="nonzero" fill-opacity="1"></path><path clip-path="url(#clip210)" d="M1070.19 27.2059 L1077.64 27.2059 L1077.64 72.576 L1070.19 72.576 L1070.19 27.2059 M1070.19 9.54393 L1077.64 9.54393 L1077.64 18.9825 L1070.19 18.9825 L1070.19 9.54393 Z" fill="#000000" fill-rule="nonzero" fill-opacity="1"></path><path clip-path="url(#clip210)" d="M1100.61 14.324 L1100.61 27.2059 L1115.96 27.2059 L1115.96 32.9987 L1100.61 32.9987 L1100.61 57.6282 Q1100.61 63.1779 1102.11 64.7578 Q1103.65 66.3376 1108.31 66.3376 L1115.96 66.3376 L1115.96 72.576 L1108.31 72.576 Q1099.68 72.576 1096.4 69.3758 Q1093.12 66.1351 1093.12 57.6282 L1093.12 32.9987 L1087.65 32.9987 L1087.65 27.2059 L1093.12 27.2059 L1093.12 14.324 L1100.61 14.324 Z" fill="#000000" fill-rule="nonzero" fill-opacity="1"></path><path clip-path="url(#clip210)" d="M1164.58 48.0275 L1164.58 51.6733 L1130.3 51.6733 Q1130.79 59.3701 1134.92 63.421 Q1139.1 67.4314 1146.51 67.4314 Q1150.8 67.4314 1154.81 66.3781 Q1158.86 65.3249 1162.83 63.2184 L1162.83 70.267 Q1158.82 71.9684 1154.61 72.8596 Q1150.4 73.7508 1146.06 73.7508 Q1135.21 73.7508 1128.85 67.4314 Q1122.53 61.1119 1122.53 50.3365 Q1122.53 39.1965 1128.52 32.6746 Q1134.56 26.1121 1144.77 26.1121 Q1153.92 26.1121 1159.23 32.0264 Q1164.58 37.9003 1164.58 48.0275 M1157.12 45.84 Q1157.04 39.7232 1153.68 36.0774 Q1150.36 32.4315 1144.85 32.4315 Q1138.61 32.4315 1134.84 35.9558 Q1131.12 39.4801 1130.55 45.8805 L1157.12 45.84 Z" fill="#000000" fill-rule="nonzero" fill-opacity="1"></path><path clip-path="url(#clip210)" d="M1203.5 12.096 L1215.7 12.096 L1231.13 53.2532 L1246.65 12.096 L1258.84 12.096 L1258.84 72.576 L1250.86 72.576 L1250.86 19.4686 L1235.26 60.9499 L1227.04 60.9499 L1211.44 19.4686 L1211.44 72.576 L1203.5 72.576 L1203.5 12.096 Z" fill="#000000" fill-rule="nonzero" fill-opacity="1"></path><path clip-path="url(#clip210)" d="M1283.27 18.8205 L1283.27 41.5461 L1293.56 41.5461 Q1299.27 41.5461 1302.39 38.5889 Q1305.51 35.6318 1305.51 30.163 Q1305.51 24.7348 1302.39 21.7777 Q1299.27 18.8205 1293.56 18.8205 L1283.27 18.8205 M1275.08 12.096 L1293.56 12.096 Q1303.72 12.096 1308.91 16.714 Q1314.14 21.2916 1314.14 30.163 Q1314.14 39.1155 1308.91 43.6931 Q1303.72 48.2706 1293.56 48.2706 L1283.27 48.2706 L1283.27 72.576 L1275.08 72.576 L1275.08 12.096 Z" fill="#000000" fill-rule="nonzero" fill-opacity="1"></path><path clip-path="url(#clip210)" d="M1361.37 14.0809 L1361.37 22.0612 Q1356.71 19.8332 1352.58 18.7395 Q1348.45 17.6457 1344.6 17.6457 Q1337.91 17.6457 1334.27 20.2383 Q1330.66 22.8309 1330.66 27.611 Q1330.66 31.6214 1333.05 33.6873 Q1335.48 35.7128 1342.21 36.9686 L1347.15 37.9813 Q1356.3 39.7232 1360.64 44.1387 Q1365.01 48.5136 1365.01 55.8863 Q1365.01 64.6767 1359.1 69.2137 Q1353.23 73.7508 1341.84 73.7508 Q1337.55 73.7508 1332.69 72.7785 Q1327.87 71.8063 1322.68 69.9024 L1322.68 61.4765 Q1327.67 64.2716 1332.45 65.6895 Q1337.23 67.1073 1341.84 67.1073 Q1348.85 67.1073 1352.66 64.3527 Q1356.47 61.598 1356.47 56.4939 Q1356.47 52.0379 1353.71 49.5264 Q1351 47.0148 1344.76 45.759 L1339.78 44.7868 Q1330.62 42.9639 1326.53 39.075 Q1322.44 35.1862 1322.44 28.2591 Q1322.44 20.2383 1328.07 15.6203 Q1333.74 11.0023 1343.67 11.0023 Q1347.92 11.0023 1352.34 11.7719 Q1356.75 12.5416 1361.37 14.0809 Z" fill="#000000" fill-rule="nonzero" fill-opacity="1"></path><path clip-path="url(#clip210)" d="M1379.35 62.2867 L1387.9 62.2867 L1387.9 69.2543 L1381.26 82.2172 L1376.03 82.2172 L1379.35 69.2543 L1379.35 62.2867 Z" fill="#000000" fill-rule="nonzero" fill-opacity="1"></path><path clip-path="url(#clip210)" d="M1430.19 9.54393 L1437.65 9.54393 L1437.65 72.576 L1430.19 72.576 L1430.19 9.54393 Z" fill="#000000" fill-rule="nonzero" fill-opacity="1"></path><path clip-path="url(#clip210)" d="M1479.53 34.1734 Q1478.28 33.4443 1476.78 33.1202 Q1475.32 32.7556 1473.54 32.7556 Q1467.22 32.7556 1463.82 36.8875 Q1460.45 40.9789 1460.45 48.6757 L1460.45 72.576 L1452.96 72.576 L1452.96 27.2059 L1460.45 27.2059 L1460.45 34.2544 Q1462.8 30.1225 1466.57 28.1376 Q1470.34 26.1121 1475.73 26.1121 Q1476.5 26.1121 1477.43 26.2337 Q1478.36 26.3147 1479.49 26.5172 L1479.53 34.1734 Z" fill="#000000" fill-rule="nonzero" fill-opacity="1"></path><path clip-path="url(#clip210)" d="M1488.32 34.9026 L1540.26 34.9026 L1540.26 41.7081 L1488.32 41.7081 L1488.32 34.9026 M1488.32 51.4303 L1540.26 51.4303 L1540.26 58.3168 L1488.32 58.3168 L1488.32 51.4303 Z" fill="#000000" fill-rule="nonzero" fill-opacity="1"></path><path clip-path="url(#clip210)" d="M1575.42 17.4837 Q1569.1 17.4837 1565.9 23.7221 Q1562.74 29.92 1562.74 42.3968 Q1562.74 54.833 1565.9 61.0714 Q1569.1 67.2693 1575.42 67.2693 Q1581.78 67.2693 1584.94 61.0714 Q1588.14 54.833 1588.14 42.3968 Q1588.14 29.92 1584.94 23.7221 Q1581.78 17.4837 1575.42 17.4837 M1575.42 11.0023 Q1585.59 11.0023 1590.93 19.0636 Q1596.32 27.0843 1596.32 42.3968 Q1596.32 57.6687 1590.93 65.73 Q1585.59 73.7508 1575.42 73.7508 Q1565.25 73.7508 1559.86 65.73 Q1554.52 57.6687 1554.52 42.3968 Q1554.52 27.0843 1559.86 19.0636 Q1565.25 11.0023 1575.42 11.0023 Z" fill="#000000" fill-rule="nonzero" fill-opacity="1"></path><path clip-path="url(#clip210)" d="M1610.7 62.2867 L1619.25 62.2867 L1619.25 72.576 L1610.7 72.576 L1610.7 62.2867 Z" fill="#000000" fill-rule="nonzero" fill-opacity="1"></path><path clip-path="url(#clip210)" d="M1638.49 65.6895 L1651.86 65.6895 L1651.86 19.5497 L1637.32 22.4663 L1637.32 15.0127 L1651.78 12.096 L1659.96 12.096 L1659.96 65.6895 L1673.33 65.6895 L1673.33 72.576 L1638.49 72.576 L1638.49 65.6895 Z" fill="#000000" fill-rule="nonzero" fill-opacity="1"></path><polyline clip-path="url(#clip212)" style="stroke:#009af9; stroke-linecap:round; stroke-linejoin:round; stroke-width:4; stroke-opacity:1; fill:none" points="316.512,160.256 336.481,391.572 356.45,583.789 376.419,741.019 396.388,868.163 416.357,970.198 436.326,1051.73 456.295,1116.76 476.264,1168.65 496.234,1210.11 516.203,1243.31 536.172,1269.99 556.141,1291.48 576.11,1308.85 596.079,1322.93 616.048,1334.37 636.017,1343.7 655.986,1351.31 675.955,1357.54 695.924,1362.64 715.893,1366.83 735.862,1370.27 755.831,1373.1 775.8,1375.43 795.769,1377.34 815.738,1378.93 835.707,1380.23 855.676,1381.3 875.645,1382.19 895.614,1382.92 915.584,1383.53 935.553,1384.03 955.522,1384.44 975.491,1384.78 995.46,1385.06 1015.43,1385.29 1035.4,1385.48 1055.37,1385.64 1075.34,1385.77 1095.3,1385.88 1115.27,1385.97 1135.24,1386.04 1155.21,1386.1 1175.18,1386.16 1195.15,1386.2 1215.12,1386.23 1235.09,1386.26 1255.06,1386.28 1275.03,1386.3 1295,1386.32 1314.96,1386.33 1334.93,1386.34 1354.9,1386.35 1374.87,1386.36 1394.84,1386.37 1414.81,1386.37 1434.78,1386.38 1454.75,1386.38 1474.72,1386.38 1494.69,1386.38 1514.65,1386.39 1534.62,1386.39 1554.59,1386.39 1574.56,1386.39 1594.53,1386.39 1614.5,1386.39 1634.47,1386.39 1654.44,1386.39 1674.41,1386.39 1694.38,1386.39 1714.35,1386.39 1734.31,1386.39 1754.28,1386.39 1774.25,1386.39 1794.22,1386.4 1814.19,1386.4 1834.16,1386.4 1854.13,1386.4 1874.1,1386.4 1894.07,1386.4 1914.04,1386.4 1934,1386.4 1953.97,1386.4 1973.94,1386.4 1993.91,1386.4 2013.88,1386.4 2033.85,1386.4 2053.82,1386.4 2073.79,1386.4 2093.76,1386.4 2113.73,1386.4 2133.7,1386.4 2153.66,1386.4 2173.63,1386.4 2193.6,1386.4 2213.57,1386.4 2233.54,1386.4 2253.51,1386.4 2273.48,1386.4 2293.45,1386.4 "></polyline>
</svg>