<?xml version="1.0" encoding="utf-8"?>
<svg xmlns="http://www.w3.org/2000/svg" xmlns:xlink="http://www.w3.org/1999/xlink" width="600" height="400" viewBox="0 0 2400 1600">
<defs>
  <clipPath id="clip530">
    <rect x="0" y="0" width="2400" height="1600"/>
  </clipPath>
</defs>
<path clip-path="url(#clip530)" d="M0 1600 L2400 1600 L2400 8.88178e-14 L0 8.88178e-14  Z" fill="#ffffff" fill-rule="evenodd" fill-opacity="1"/>
<defs>
  <clipPath id="clip531">
    <rect x="480" y="0" width="1681" height="1600"/>
  </clipPath>
</defs>
<path clip-path="url(#clip530)" d="M249.542 1423.18 L2352.76 1423.18 L2352.76 123.472 L249.542 123.472  Z" fill="#ffffff" fill-rule="evenodd" fill-opacity="1"/>
<defs>
  <clipPath id="clip532">
    <rect x="249" y="123" width="2104" height="1301"/>
  </clipPath>
</defs>
<polyline clip-path="url(#clip532)" style="stroke:#000000; stroke-linecap:round; stroke-linejoin:round; stroke-width:2; stroke-opacity:0.1; fill:none" points="289.025,1423.18 289.025,123.472 "/>
<polyline clip-path="url(#clip532)" style="stroke:#000000; stroke-linecap:round; stroke-linejoin:round; stroke-width:2; stroke-opacity:0.1; fill:none" points="790.076,1423.18 790.076,123.472 "/>
<polyline clip-path="url(#clip532)" style="stroke:#000000; stroke-linecap:round; stroke-linejoin:round; stroke-width:2; stroke-opacity:0.1; fill:none" points="1291.13,1423.18 1291.13,123.472 "/>
<polyline clip-path="url(#clip532)" style="stroke:#000000; stroke-linecap:round; stroke-linejoin:round; stroke-width:2; stroke-opacity:0.1; fill:none" points="1792.18,1423.18 1792.18,123.472 "/>
<polyline clip-path="url(#clip532)" style="stroke:#000000; stroke-linecap:round; stroke-linejoin:round; stroke-width:2; stroke-opacity:0.1; fill:none" points="2293.23,1423.18 2293.23,123.472 "/>
<polyline clip-path="url(#clip530)" style="stroke:#000000; stroke-linecap:round; stroke-linejoin:round; stroke-width:4; stroke-opacity:1; fill:none" points="249.542,1423.18 2352.76,1423.18 "/>
<polyline clip-path="url(#clip530)" style="stroke:#000000; stroke-linecap:round; stroke-linejoin:round; stroke-width:4; stroke-opacity:1; fill:none" points="289.025,1423.18 289.025,1404.28 "/>
<polyline clip-path="url(#clip530)" style="stroke:#000000; stroke-linecap:round; stroke-linejoin:round; stroke-width:4; stroke-opacity:1; fill:none" points="790.076,1423.18 790.076,1404.28 "/>
<polyline clip-path="url(#clip530)" style="stroke:#000000; stroke-linecap:round; stroke-linejoin:round; stroke-width:4; stroke-opacity:1; fill:none" points="1291.13,1423.18 1291.13,1404.28 "/>
<polyline clip-path="url(#clip530)" style="stroke:#000000; stroke-linecap:round; stroke-linejoin:round; stroke-width:4; stroke-opacity:1; fill:none" points="1792.18,1423.18 1792.18,1404.28 "/>
<polyline clip-path="url(#clip530)" style="stroke:#000000; stroke-linecap:round; stroke-linejoin:round; stroke-width:4; stroke-opacity:1; fill:none" points="2293.23,1423.18 2293.23,1404.28 "/>
<path clip-path="url(#clip530)" d="M289.025 1454.1 Q285.414 1454.1 283.585 1457.66 Q281.78 1461.2 281.78 1468.33 Q281.78 1475.44 283.585 1479.01 Q285.414 1482.55 289.025 1482.55 Q292.659 1482.55 294.465 1479.01 Q296.293 1475.44 296.293 1468.33 Q296.293 1461.2 294.465 1457.66 Q292.659 1454.1 289.025 1454.1 M289.025 1450.39 Q294.835 1450.39 297.891 1455 Q300.969 1459.58 300.969 1468.33 Q300.969 1477.06 297.891 1481.67 Q294.835 1486.25 289.025 1486.25 Q283.215 1486.25 280.136 1481.67 Q277.081 1477.06 277.081 1468.33 Q277.081 1459.58 280.136 1455 Q283.215 1450.39 289.025 1450.39 Z" fill="#000000" fill-rule="nonzero" fill-opacity="1" /><path clip-path="url(#clip530)" d="M769.347 1481.64 L785.667 1481.64 L785.667 1485.58 L763.722 1485.58 L763.722 1481.64 Q766.384 1478.89 770.968 1474.26 Q775.574 1469.61 776.755 1468.27 Q779 1465.74 779.88 1464.01 Q780.782 1462.25 780.782 1460.56 Q780.782 1457.8 778.838 1456.07 Q776.917 1454.33 773.815 1454.33 Q771.616 1454.33 769.162 1455.09 Q766.732 1455.86 763.954 1457.41 L763.954 1452.69 Q766.778 1451.55 769.232 1450.97 Q771.685 1450.39 773.722 1450.39 Q779.093 1450.39 782.287 1453.08 Q785.482 1455.77 785.482 1460.26 Q785.482 1462.39 784.671 1464.31 Q783.884 1466.2 781.778 1468.8 Q781.199 1469.47 778.097 1472.69 Q774.995 1475.88 769.347 1481.64 Z" fill="#000000" fill-rule="nonzero" fill-opacity="1" /><path clip-path="url(#clip530)" d="M795.528 1451.02 L813.884 1451.02 L813.884 1454.96 L799.81 1454.96 L799.81 1463.43 Q800.829 1463.08 801.847 1462.92 Q802.866 1462.73 803.884 1462.73 Q809.671 1462.73 813.051 1465.9 Q816.43 1469.08 816.43 1474.49 Q816.43 1480.07 812.958 1483.17 Q809.486 1486.25 803.167 1486.25 Q800.991 1486.25 798.722 1485.88 Q796.477 1485.51 794.069 1484.77 L794.069 1480.07 Q796.153 1481.2 798.375 1481.76 Q800.597 1482.32 803.074 1482.32 Q807.079 1482.32 809.417 1480.21 Q811.755 1478.1 811.755 1474.49 Q811.755 1470.88 809.417 1468.77 Q807.079 1466.67 803.074 1466.67 Q801.199 1466.67 799.324 1467.08 Q797.472 1467.5 795.528 1468.38 L795.528 1451.02 Z" fill="#000000" fill-rule="nonzero" fill-opacity="1" /><path clip-path="url(#clip530)" d="M1265.83 1451.02 L1284.18 1451.02 L1284.18 1454.96 L1270.11 1454.96 L1270.11 1463.43 Q1271.13 1463.08 1272.15 1462.92 Q1273.17 1462.73 1274.18 1462.73 Q1279.97 1462.73 1283.35 1465.9 Q1286.73 1469.08 1286.73 1474.49 Q1286.73 1480.07 1283.26 1483.17 Q1279.79 1486.25 1273.47 1486.25 Q1271.29 1486.25 1269.02 1485.88 Q1266.78 1485.51 1264.37 1484.77 L1264.37 1480.07 Q1266.45 1481.2 1268.67 1481.76 Q1270.9 1482.32 1273.37 1482.32 Q1277.38 1482.32 1279.72 1480.21 Q1282.05 1478.1 1282.05 1474.49 Q1282.05 1470.88 1279.72 1468.77 Q1277.38 1466.67 1273.37 1466.67 Q1271.5 1466.67 1269.62 1467.08 Q1267.77 1467.5 1265.83 1468.38 L1265.83 1451.02 Z" fill="#000000" fill-rule="nonzero" fill-opacity="1" /><path clip-path="url(#clip530)" d="M1305.94 1454.1 Q1302.33 1454.1 1300.5 1457.66 Q1298.7 1461.2 1298.7 1468.33 Q1298.7 1475.44 1300.5 1479.01 Q1302.33 1482.55 1305.94 1482.55 Q1309.58 1482.55 1311.38 1479.01 Q1313.21 1475.44 1313.21 1468.33 Q1313.21 1461.2 1311.38 1457.66 Q1309.58 1454.1 1305.94 1454.1 M1305.94 1450.39 Q1311.75 1450.39 1314.81 1455 Q1317.89 1459.58 1317.89 1468.33 Q1317.89 1477.06 1314.81 1481.67 Q1311.75 1486.25 1305.94 1486.25 Q1300.13 1486.25 1297.05 1481.67 Q1294 1477.06 1294 1468.33 Q1294 1459.58 1297.05 1455 Q1300.13 1450.39 1305.94 1450.39 Z" fill="#000000" fill-rule="nonzero" fill-opacity="1" /><path clip-path="url(#clip530)" d="M1766.03 1451.02 L1788.26 1451.02 L1788.26 1453.01 L1775.71 1485.58 L1770.83 1485.58 L1782.63 1454.96 L1766.03 1454.96 L1766.03 1451.02 Z" fill="#000000" fill-rule="nonzero" fill-opacity="1" /><path clip-path="url(#clip530)" d="M1797.42 1451.02 L1815.78 1451.02 L1815.78 1454.96 L1801.7 1454.96 L1801.7 1463.43 Q1802.72 1463.08 1803.74 1462.92 Q1804.76 1462.73 1805.78 1462.73 Q1811.57 1462.73 1814.95 1465.9 Q1818.33 1469.08 1818.33 1474.49 Q1818.33 1480.07 1814.85 1483.17 Q1811.38 1486.25 1805.06 1486.25 Q1802.89 1486.25 1800.62 1485.88 Q1798.37 1485.51 1795.96 1484.77 L1795.96 1480.07 Q1798.05 1481.2 1800.27 1481.76 Q1802.49 1482.32 1804.97 1482.32 Q1808.97 1482.32 1811.31 1480.21 Q1813.65 1478.1 1813.65 1474.49 Q1813.65 1470.88 1811.31 1468.77 Q1808.97 1466.67 1804.97 1466.67 Q1803.09 1466.67 1801.22 1467.08 Q1799.37 1467.5 1797.42 1468.38 L1797.42 1451.02 Z" fill="#000000" fill-rule="nonzero" fill-opacity="1" /><path clip-path="url(#clip530)" d="M2252.84 1481.64 L2260.48 1481.64 L2260.48 1455.28 L2252.17 1456.95 L2252.17 1452.69 L2260.43 1451.02 L2265.11 1451.02 L2265.11 1481.64 L2272.74 1481.64 L2272.74 1485.58 L2252.84 1485.58 L2252.84 1481.64 Z" fill="#000000" fill-rule="nonzero" fill-opacity="1" /><path clip-path="url(#clip530)" d="M2292.19 1454.1 Q2288.58 1454.1 2286.75 1457.66 Q2284.94 1461.2 2284.94 1468.33 Q2284.94 1475.44 2286.75 1479.01 Q2288.58 1482.55 2292.19 1482.55 Q2295.82 1482.55 2297.63 1479.01 Q2299.46 1475.44 2299.46 1468.33 Q2299.46 1461.2 2297.63 1457.66 Q2295.82 1454.1 2292.19 1454.1 M2292.19 1450.39 Q2298 1450.39 2301.06 1455 Q2304.13 1459.58 2304.13 1468.33 Q2304.13 1477.06 2301.06 1481.67 Q2298 1486.25 2292.19 1486.25 Q2286.38 1486.25 2283.3 1481.67 Q2280.24 1477.06 2280.24 1468.33 Q2280.24 1459.58 2283.3 1455 Q2286.38 1450.39 2292.19 1450.39 Z" fill="#000000" fill-rule="nonzero" fill-opacity="1" /><path clip-path="url(#clip530)" d="M2322.35 1454.1 Q2318.74 1454.1 2316.91 1457.66 Q2315.11 1461.2 2315.11 1468.33 Q2315.11 1475.44 2316.91 1479.01 Q2318.74 1482.55 2322.35 1482.55 Q2325.99 1482.55 2327.79 1479.01 Q2329.62 1475.44 2329.62 1468.33 Q2329.62 1461.2 2327.79 1457.66 Q2325.99 1454.1 2322.35 1454.1 M2322.35 1450.39 Q2328.16 1450.39 2331.22 1455 Q2334.3 1459.58 2334.3 1468.33 Q2334.3 1477.06 2331.22 1481.67 Q2328.16 1486.25 2322.35 1486.25 Q2316.54 1486.25 2313.46 1481.67 Q2310.41 1477.06 2310.41 1468.33 Q2310.41 1459.58 2313.46 1455 Q2316.54 1450.39 2322.35 1450.39 Z" fill="#000000" fill-rule="nonzero" fill-opacity="1" /><path clip-path="url(#clip530)" d="M1240.31 1522.27 L1240.31 1532.4 L1252.37 1532.4 L1252.37 1536.95 L1240.31 1536.95 L1240.31 1556.3 Q1240.31 1560.66 1241.49 1561.9 Q1242.7 1563.14 1246.36 1563.14 L1252.37 1563.14 L1252.37 1568.04 L1246.36 1568.04 Q1239.58 1568.04 1237 1565.53 Q1234.42 1562.98 1234.42 1556.3 L1234.42 1536.95 L1230.12 1536.95 L1230.12 1532.4 L1234.42 1532.4 L1234.42 1522.27 L1240.31 1522.27 Z" fill="#000000" fill-rule="nonzero" fill-opacity="1" /><path clip-path="url(#clip530)" d="M1260.07 1532.4 L1265.93 1532.4 L1265.93 1568.04 L1260.07 1568.04 L1260.07 1532.4 M1260.07 1518.52 L1265.93 1518.52 L1265.93 1525.93 L1260.07 1525.93 L1260.07 1518.52 Z" fill="#000000" fill-rule="nonzero" fill-opacity="1" /><path clip-path="url(#clip530)" d="M1305.94 1539.24 Q1308.14 1535.29 1311.19 1533.41 Q1314.25 1531.54 1318.38 1531.54 Q1323.95 1531.54 1326.98 1535.45 Q1330 1539.33 1330 1546.53 L1330 1568.04 L1324.11 1568.04 L1324.11 1546.72 Q1324.11 1541.59 1322.3 1539.11 Q1320.48 1536.63 1316.76 1536.63 Q1312.21 1536.63 1309.57 1539.65 Q1306.93 1542.68 1306.93 1547.9 L1306.93 1568.04 L1301.04 1568.04 L1301.04 1546.72 Q1301.04 1541.56 1299.22 1539.11 Q1297.41 1536.63 1293.62 1536.63 Q1289.13 1536.63 1286.49 1539.68 Q1283.85 1542.71 1283.85 1547.9 L1283.85 1568.04 L1277.96 1568.04 L1277.96 1532.4 L1283.85 1532.4 L1283.85 1537.93 Q1285.86 1534.66 1288.66 1533.1 Q1291.46 1531.54 1295.31 1531.54 Q1299.19 1531.54 1301.9 1533.51 Q1304.63 1535.48 1305.94 1539.24 Z" fill="#000000" fill-rule="nonzero" fill-opacity="1" /><path clip-path="url(#clip530)" d="M1372.17 1548.76 L1372.17 1551.62 L1345.25 1551.62 Q1345.63 1557.67 1348.88 1560.85 Q1352.15 1564 1357.98 1564 Q1361.35 1564 1364.5 1563.17 Q1367.69 1562.35 1370.81 1560.69 L1370.81 1566.23 Q1367.65 1567.57 1364.34 1568.27 Q1361.03 1568.97 1357.63 1568.97 Q1349.1 1568.97 1344.1 1564 Q1339.14 1559.04 1339.14 1550.57 Q1339.14 1541.82 1343.85 1536.69 Q1348.59 1531.54 1356.61 1531.54 Q1363.8 1531.54 1367.97 1536.18 Q1372.17 1540.8 1372.17 1548.76 M1366.32 1547.04 Q1366.25 1542.23 1363.61 1539.37 Q1361 1536.5 1356.67 1536.5 Q1351.77 1536.5 1348.81 1539.27 Q1345.88 1542.04 1345.44 1547.07 L1366.32 1547.04 Z" fill="#000000" fill-rule="nonzero" fill-opacity="1" /><polyline clip-path="url(#clip532)" style="stroke:#000000; stroke-linecap:round; stroke-linejoin:round; stroke-width:2; stroke-opacity:0.1; fill:none" points="249.542,1368.32 2352.76,1368.32 "/>
<polyline clip-path="url(#clip532)" style="stroke:#000000; stroke-linecap:round; stroke-linejoin:round; stroke-width:2; stroke-opacity:0.1; fill:none" points="249.542,1075.39 2352.76,1075.39 "/>
<polyline clip-path="url(#clip532)" style="stroke:#000000; stroke-linecap:round; stroke-linejoin:round; stroke-width:2; stroke-opacity:0.1; fill:none" points="249.542,782.465 2352.76,782.465 "/>
<polyline clip-path="url(#clip532)" style="stroke:#000000; stroke-linecap:round; stroke-linejoin:round; stroke-width:2; stroke-opacity:0.1; fill:none" points="249.542,489.54 2352.76,489.54 "/>
<polyline clip-path="url(#clip532)" style="stroke:#000000; stroke-linecap:round; stroke-linejoin:round; stroke-width:2; stroke-opacity:0.1; fill:none" points="249.542,196.614 2352.76,196.614 "/>
<polyline clip-path="url(#clip530)" style="stroke:#000000; stroke-linecap:round; stroke-linejoin:round; stroke-width:4; stroke-opacity:1; fill:none" points="249.542,1423.18 249.542,123.472 "/>
<polyline clip-path="url(#clip530)" style="stroke:#000000; stroke-linecap:round; stroke-linejoin:round; stroke-width:4; stroke-opacity:1; fill:none" points="249.542,1368.32 268.44,1368.32 "/>
<polyline clip-path="url(#clip530)" style="stroke:#000000; stroke-linecap:round; stroke-linejoin:round; stroke-width:4; stroke-opacity:1; fill:none" points="249.542,1075.39 268.44,1075.39 "/>
<polyline clip-path="url(#clip530)" style="stroke:#000000; stroke-linecap:round; stroke-linejoin:round; stroke-width:4; stroke-opacity:1; fill:none" points="249.542,782.465 268.44,782.465 "/>
<polyline clip-path="url(#clip530)" style="stroke:#000000; stroke-linecap:round; stroke-linejoin:round; stroke-width:4; stroke-opacity:1; fill:none" points="249.542,489.54 268.44,489.54 "/>
<polyline clip-path="url(#clip530)" style="stroke:#000000; stroke-linecap:round; stroke-linejoin:round; stroke-width:4; stroke-opacity:1; fill:none" points="249.542,196.614 268.44,196.614 "/>
<path clip-path="url(#clip530)" d="M126.205 1354.12 Q122.593 1354.12 120.765 1357.68 Q118.959 1361.22 118.959 1368.35 Q118.959 1375.46 120.765 1379.02 Q122.593 1382.56 126.205 1382.56 Q129.839 1382.56 131.644 1379.02 Q133.473 1375.46 133.473 1368.35 Q133.473 1361.22 131.644 1357.68 Q129.839 1354.12 126.205 1354.12 M126.205 1350.41 Q132.015 1350.41 135.07 1355.02 Q138.149 1359.6 138.149 1368.35 Q138.149 1377.08 135.07 1381.68 Q132.015 1386.27 126.205 1386.27 Q120.394 1386.27 117.316 1381.68 Q114.26 1377.08 114.26 1368.35 Q114.26 1359.6 117.316 1355.02 Q120.394 1350.41 126.205 1350.41 Z" fill="#000000" fill-rule="nonzero" fill-opacity="1" /><path clip-path="url(#clip530)" d="M146.366 1379.72 L151.251 1379.72 L151.251 1385.6 L146.366 1385.6 L146.366 1379.72 Z" fill="#000000" fill-rule="nonzero" fill-opacity="1" /><path clip-path="url(#clip530)" d="M171.436 1354.12 Q167.825 1354.12 165.996 1357.68 Q164.19 1361.22 164.19 1368.35 Q164.19 1375.46 165.996 1379.02 Q167.825 1382.56 171.436 1382.56 Q175.07 1382.56 176.876 1379.02 Q178.704 1375.46 178.704 1368.35 Q178.704 1361.22 176.876 1357.68 Q175.07 1354.12 171.436 1354.12 M171.436 1350.41 Q177.246 1350.41 180.301 1355.02 Q183.38 1359.6 183.38 1368.35 Q183.38 1377.08 180.301 1381.68 Q177.246 1386.27 171.436 1386.27 Q165.626 1386.27 162.547 1381.68 Q159.491 1377.08 159.491 1368.35 Q159.491 1359.6 162.547 1355.02 Q165.626 1350.41 171.436 1350.41 Z" fill="#000000" fill-rule="nonzero" fill-opacity="1" /><path clip-path="url(#clip530)" d="M201.598 1354.12 Q197.987 1354.12 196.158 1357.68 Q194.352 1361.22 194.352 1368.35 Q194.352 1375.46 196.158 1379.02 Q197.987 1382.56 201.598 1382.56 Q205.232 1382.56 207.037 1379.02 Q208.866 1375.46 208.866 1368.35 Q208.866 1361.22 207.037 1357.68 Q205.232 1354.12 201.598 1354.12 M201.598 1350.41 Q207.408 1350.41 210.463 1355.02 Q213.542 1359.6 213.542 1368.35 Q213.542 1377.08 210.463 1381.68 Q207.408 1386.27 201.598 1386.27 Q195.787 1386.27 192.709 1381.68 Q189.653 1377.08 189.653 1368.35 Q189.653 1359.6 192.709 1355.02 Q195.787 1350.41 201.598 1350.41 Z" fill="#000000" fill-rule="nonzero" fill-opacity="1" /><path clip-path="url(#clip530)" d="M127.2 1061.19 Q123.589 1061.19 121.76 1064.75 Q119.955 1068.3 119.955 1075.43 Q119.955 1082.53 121.76 1086.1 Q123.589 1089.64 127.2 1089.64 Q130.834 1089.64 132.64 1086.1 Q134.468 1082.53 134.468 1075.43 Q134.468 1068.3 132.64 1064.75 Q130.834 1061.19 127.2 1061.19 M127.2 1057.49 Q133.01 1057.49 136.066 1062.09 Q139.144 1066.68 139.144 1075.43 Q139.144 1084.15 136.066 1088.76 Q133.01 1093.34 127.2 1093.34 Q121.39 1093.34 118.311 1088.76 Q115.256 1084.15 115.256 1075.43 Q115.256 1066.68 118.311 1062.09 Q121.39 1057.49 127.2 1057.49 Z" fill="#000000" fill-rule="nonzero" fill-opacity="1" /><path clip-path="url(#clip530)" d="M147.362 1086.79 L152.246 1086.79 L152.246 1092.67 L147.362 1092.67 L147.362 1086.79 Z" fill="#000000" fill-rule="nonzero" fill-opacity="1" /><path clip-path="url(#clip530)" d="M166.459 1088.74 L182.778 1088.74 L182.778 1092.67 L160.834 1092.67 L160.834 1088.74 Q163.496 1085.98 168.079 1081.35 Q172.686 1076.7 173.866 1075.36 Q176.112 1072.83 176.991 1071.1 Q177.894 1069.34 177.894 1067.65 Q177.894 1064.89 175.95 1063.16 Q174.028 1061.42 170.927 1061.42 Q168.727 1061.42 166.274 1062.18 Q163.843 1062.95 161.065 1064.5 L161.065 1059.78 Q163.89 1058.64 166.343 1058.06 Q168.797 1057.49 170.834 1057.49 Q176.204 1057.49 179.399 1060.17 Q182.593 1062.86 182.593 1067.35 Q182.593 1069.48 181.783 1071.4 Q180.996 1073.3 178.889 1075.89 Q178.311 1076.56 175.209 1079.78 Q172.107 1082.97 166.459 1088.74 Z" fill="#000000" fill-rule="nonzero" fill-opacity="1" /><path clip-path="url(#clip530)" d="M192.639 1058.11 L210.996 1058.11 L210.996 1062.05 L196.922 1062.05 L196.922 1070.52 Q197.94 1070.17 198.959 1070.01 Q199.977 1069.82 200.996 1069.82 Q206.783 1069.82 210.162 1073 Q213.542 1076.17 213.542 1081.58 Q213.542 1087.16 210.07 1090.26 Q206.598 1093.34 200.278 1093.34 Q198.102 1093.34 195.834 1092.97 Q193.588 1092.6 191.181 1091.86 L191.181 1087.16 Q193.264 1088.3 195.487 1088.85 Q197.709 1089.41 200.186 1089.41 Q204.19 1089.41 206.528 1087.3 Q208.866 1085.19 208.866 1081.58 Q208.866 1077.97 206.528 1075.87 Q204.19 1073.76 200.186 1073.76 Q198.311 1073.76 196.436 1074.18 Q194.584 1074.59 192.639 1075.47 L192.639 1058.11 Z" fill="#000000" fill-rule="nonzero" fill-opacity="1" /><path clip-path="url(#clip530)" d="M126.205 768.264 Q122.593 768.264 120.765 771.829 Q118.959 775.37 118.959 782.5 Q118.959 789.606 120.765 793.171 Q122.593 796.713 126.205 796.713 Q129.839 796.713 131.644 793.171 Q133.473 789.606 133.473 782.5 Q133.473 775.37 131.644 771.829 Q129.839 768.264 126.205 768.264 M126.205 764.56 Q132.015 764.56 135.07 769.167 Q138.149 773.75 138.149 782.5 Q138.149 791.227 135.07 795.833 Q132.015 800.417 126.205 800.417 Q120.394 800.417 117.316 795.833 Q114.26 791.227 114.26 782.5 Q114.26 773.75 117.316 769.167 Q120.394 764.56 126.205 764.56 Z" fill="#000000" fill-rule="nonzero" fill-opacity="1" /><path clip-path="url(#clip530)" d="M146.366 793.866 L151.251 793.866 L151.251 799.745 L146.366 799.745 L146.366 793.866 Z" fill="#000000" fill-rule="nonzero" fill-opacity="1" /><path clip-path="url(#clip530)" d="M161.482 765.185 L179.839 765.185 L179.839 769.12 L165.765 769.12 L165.765 777.593 Q166.783 777.245 167.802 777.083 Q168.82 776.898 169.839 776.898 Q175.626 776.898 179.005 780.069 Q182.385 783.241 182.385 788.657 Q182.385 794.236 178.913 797.338 Q175.44 800.417 169.121 800.417 Q166.945 800.417 164.677 800.046 Q162.431 799.676 160.024 798.935 L160.024 794.236 Q162.107 795.37 164.329 795.926 Q166.552 796.481 169.028 796.481 Q173.033 796.481 175.371 794.375 Q177.709 792.268 177.709 788.657 Q177.709 785.046 175.371 782.94 Q173.033 780.833 169.028 780.833 Q167.153 780.833 165.278 781.25 Q163.427 781.667 161.482 782.546 L161.482 765.185 Z" fill="#000000" fill-rule="nonzero" fill-opacity="1" /><path clip-path="url(#clip530)" d="M201.598 768.264 Q197.987 768.264 196.158 771.829 Q194.352 775.37 194.352 782.5 Q194.352 789.606 196.158 793.171 Q197.987 796.713 201.598 796.713 Q205.232 796.713 207.037 793.171 Q208.866 789.606 208.866 782.5 Q208.866 775.37 207.037 771.829 Q205.232 768.264 201.598 768.264 M201.598 764.56 Q207.408 764.56 210.463 769.167 Q213.542 773.75 213.542 782.5 Q213.542 791.227 210.463 795.833 Q207.408 800.417 201.598 800.417 Q195.787 800.417 192.709 795.833 Q189.653 791.227 189.653 782.5 Q189.653 773.75 192.709 769.167 Q195.787 764.56 201.598 764.56 Z" fill="#000000" fill-rule="nonzero" fill-opacity="1" /><path clip-path="url(#clip530)" d="M127.2 475.338 Q123.589 475.338 121.76 478.903 Q119.955 482.445 119.955 489.574 Q119.955 496.681 121.76 500.246 Q123.589 503.787 127.2 503.787 Q130.834 503.787 132.64 500.246 Q134.468 496.681 134.468 489.574 Q134.468 482.445 132.64 478.903 Q130.834 475.338 127.2 475.338 M127.2 471.635 Q133.01 471.635 136.066 476.241 Q139.144 480.824 139.144 489.574 Q139.144 498.301 136.066 502.908 Q133.01 507.491 127.2 507.491 Q121.39 507.491 118.311 502.908 Q115.256 498.301 115.256 489.574 Q115.256 480.824 118.311 476.241 Q121.39 471.635 127.2 471.635 Z" fill="#000000" fill-rule="nonzero" fill-opacity="1" /><path clip-path="url(#clip530)" d="M147.362 500.94 L152.246 500.94 L152.246 506.82 L147.362 506.82 L147.362 500.94 Z" fill="#000000" fill-rule="nonzero" fill-opacity="1" /><path clip-path="url(#clip530)" d="M161.251 472.26 L183.473 472.26 L183.473 474.25 L170.927 506.82 L166.042 506.82 L177.848 476.195 L161.251 476.195 L161.251 472.26 Z" fill="#000000" fill-rule="nonzero" fill-opacity="1" /><path clip-path="url(#clip530)" d="M192.639 472.26 L210.996 472.26 L210.996 476.195 L196.922 476.195 L196.922 484.667 Q197.94 484.32 198.959 484.158 Q199.977 483.973 200.996 483.973 Q206.783 483.973 210.162 487.144 Q213.542 490.315 213.542 495.732 Q213.542 501.31 210.07 504.412 Q206.598 507.491 200.278 507.491 Q198.102 507.491 195.834 507.121 Q193.588 506.75 191.181 506.009 L191.181 501.31 Q193.264 502.445 195.487 503 Q197.709 503.556 200.186 503.556 Q204.19 503.556 206.528 501.449 Q208.866 499.343 208.866 495.732 Q208.866 492.121 206.528 490.014 Q204.19 487.908 200.186 487.908 Q198.311 487.908 196.436 488.324 Q194.584 488.741 192.639 489.621 L192.639 472.26 Z" fill="#000000" fill-rule="nonzero" fill-opacity="1" /><path clip-path="url(#clip530)" d="M117.015 209.959 L124.654 209.959 L124.654 183.593 L116.343 185.26 L116.343 181.001 L124.607 179.334 L129.283 179.334 L129.283 209.959 L136.922 209.959 L136.922 213.894 L117.015 213.894 L117.015 209.959 Z" fill="#000000" fill-rule="nonzero" fill-opacity="1" /><path clip-path="url(#clip530)" d="M146.366 208.014 L151.251 208.014 L151.251 213.894 L146.366 213.894 L146.366 208.014 Z" fill="#000000" fill-rule="nonzero" fill-opacity="1" /><path clip-path="url(#clip530)" d="M171.436 182.413 Q167.825 182.413 165.996 185.977 Q164.19 189.519 164.19 196.649 Q164.19 203.755 165.996 207.32 Q167.825 210.862 171.436 210.862 Q175.07 210.862 176.876 207.32 Q178.704 203.755 178.704 196.649 Q178.704 189.519 176.876 185.977 Q175.07 182.413 171.436 182.413 M171.436 178.709 Q177.246 178.709 180.301 183.315 Q183.38 187.899 183.38 196.649 Q183.38 205.376 180.301 209.982 Q177.246 214.565 171.436 214.565 Q165.626 214.565 162.547 209.982 Q159.491 205.376 159.491 196.649 Q159.491 187.899 162.547 183.315 Q165.626 178.709 171.436 178.709 Z" fill="#000000" fill-rule="nonzero" fill-opacity="1" /><path clip-path="url(#clip530)" d="M201.598 182.413 Q197.987 182.413 196.158 185.977 Q194.352 189.519 194.352 196.649 Q194.352 203.755 196.158 207.32 Q197.987 210.862 201.598 210.862 Q205.232 210.862 207.037 207.32 Q208.866 203.755 208.866 196.649 Q208.866 189.519 207.037 185.977 Q205.232 182.413 201.598 182.413 M201.598 178.709 Q207.408 178.709 210.463 183.315 Q213.542 187.899 213.542 196.649 Q213.542 205.376 210.463 209.982 Q207.408 214.565 201.598 214.565 Q195.787 214.565 192.709 209.982 Q189.653 205.376 189.653 196.649 Q189.653 187.899 192.709 183.315 Q195.787 178.709 201.598 178.709 Z" fill="#000000" fill-rule="nonzero" fill-opacity="1" /><path clip-path="url(#clip530)" d="M28.3562 756.711 L45.7028 769.602 L64.0042 756.043 L64.0042 762.95 L49.9996 773.326 L64.0042 783.702 L64.0042 790.609 L45.3526 776.763 L28.3562 789.431 L28.3562 782.524 L41.0558 773.071 L28.3562 763.618 L28.3562 756.711 Z" fill="#000000" fill-rule="nonzero" fill-opacity="1" /><path clip-path="url(#clip530)" d="M232.743 12.096 L283.906 12.096 L283.906 18.9825 L262.436 18.9825 L262.436 72.576 L254.213 72.576 L254.213 18.9825 L232.743 18.9825 L232.743 12.096 Z" fill="#000000" fill-rule="nonzero" fill-opacity="1" /><path clip-path="url(#clip530)" d="M305.578 34.1734 Q304.323 33.4443 302.824 33.1202 Q301.366 32.7556 299.583 32.7556 Q293.264 32.7556 289.861 36.8875 Q286.499 40.9789 286.499 48.6757 L286.499 72.576 L279.005 72.576 L279.005 27.2059 L286.499 27.2059 L286.499 34.2544 Q288.848 30.1225 292.616 28.1376 Q296.383 26.1121 301.771 26.1121 Q302.54 26.1121 303.472 26.2337 Q304.404 26.3147 305.538 26.5172 L305.578 34.1734 Z" fill="#000000" fill-rule="nonzero" fill-opacity="1" /><path clip-path="url(#clip530)" d="M334.016 49.7694 Q324.982 49.7694 321.499 51.8354 Q318.015 53.9013 318.015 58.8839 Q318.015 62.8538 320.607 65.2034 Q323.24 67.5124 327.737 67.5124 Q333.935 67.5124 337.662 63.1374 Q341.429 58.7219 341.429 51.4303 L341.429 49.7694 L334.016 49.7694 M348.883 46.6907 L348.883 72.576 L341.429 72.576 L341.429 65.6895 Q338.877 69.8214 335.069 71.8063 Q331.261 73.7508 325.752 73.7508 Q318.784 73.7508 314.653 69.8619 Q310.561 65.9325 310.561 59.3701 Q310.561 51.7138 315.665 47.825 Q320.81 43.9361 330.978 43.9361 L341.429 43.9361 L341.429 43.2069 Q341.429 38.0623 338.026 35.2672 Q334.664 32.4315 328.547 32.4315 Q324.658 32.4315 320.972 33.3632 Q317.286 34.295 313.883 36.1584 L313.883 29.2718 Q317.974 27.692 321.823 26.9223 Q325.671 26.1121 329.317 26.1121 Q339.16 26.1121 344.022 31.2163 Q348.883 36.3204 348.883 46.6907 Z" fill="#000000" fill-rule="nonzero" fill-opacity="1" /><path clip-path="url(#clip530)" d="M364.236 27.2059 L371.689 27.2059 L371.689 72.576 L364.236 72.576 L364.236 27.2059 M364.236 9.54393 L371.689 9.54393 L371.689 18.9825 L364.236 18.9825 L364.236 9.54393 Z" fill="#000000" fill-rule="nonzero" fill-opacity="1" /><path clip-path="url(#clip530)" d="M424.999 45.1919 L424.999 72.576 L417.545 72.576 L417.545 45.4349 Q417.545 38.994 415.034 35.7938 Q412.522 32.5936 407.499 32.5936 Q401.463 32.5936 397.98 36.4419 Q394.496 40.2903 394.496 46.9338 L394.496 72.576 L387.002 72.576 L387.002 27.2059 L394.496 27.2059 L394.496 34.2544 Q397.169 30.163 400.775 28.1376 Q404.421 26.1121 409.16 26.1121 Q416.978 26.1121 420.989 30.9732 Q424.999 35.7938 424.999 45.1919 Z" fill="#000000" fill-rule="nonzero" fill-opacity="1" /><path clip-path="url(#clip530)" d="M439.866 27.2059 L447.32 27.2059 L447.32 72.576 L439.866 72.576 L439.866 27.2059 M439.866 9.54393 L447.32 9.54393 L447.32 18.9825 L439.866 18.9825 L439.866 9.54393 Z" fill="#000000" fill-rule="nonzero" fill-opacity="1" /><path clip-path="url(#clip530)" d="M500.63 45.1919 L500.63 72.576 L493.176 72.576 L493.176 45.4349 Q493.176 38.994 490.664 35.7938 Q488.153 32.5936 483.13 32.5936 Q477.094 32.5936 473.61 36.4419 Q470.126 40.2903 470.126 46.9338 L470.126 72.576 L462.632 72.576 L462.632 27.2059 L470.126 27.2059 L470.126 34.2544 Q472.8 30.163 476.405 28.1376 Q480.051 26.1121 484.79 26.1121 Q492.609 26.1121 496.619 30.9732 Q500.63 35.7938 500.63 45.1919 Z" fill="#000000" fill-rule="nonzero" fill-opacity="1" /><path clip-path="url(#clip530)" d="M545.352 49.3643 Q545.352 41.2625 541.989 36.8065 Q538.668 32.3505 532.632 32.3505 Q526.636 32.3505 523.274 36.8065 Q519.952 41.2625 519.952 49.3643 Q519.952 57.4256 523.274 61.8816 Q526.636 66.3376 532.632 66.3376 Q538.668 66.3376 541.989 61.8816 Q545.352 57.4256 545.352 49.3643 M552.805 66.9452 Q552.805 78.5308 547.661 84.1616 Q542.516 89.8329 531.903 89.8329 Q527.973 89.8329 524.489 89.2252 Q521.006 88.6581 517.724 87.4428 L517.724 80.1917 Q521.006 81.9741 524.206 82.8248 Q527.406 83.6755 530.728 83.6755 Q538.06 83.6755 541.706 79.8271 Q545.352 76.0193 545.352 68.282 L545.352 64.5957 Q543.042 68.6061 539.437 70.5911 Q535.832 72.576 530.809 72.576 Q522.464 72.576 517.36 66.2161 Q512.256 59.8562 512.256 49.3643 Q512.256 38.832 517.36 32.472 Q522.464 26.1121 530.809 26.1121 Q535.832 26.1121 539.437 28.0971 Q543.042 30.082 545.352 34.0924 L545.352 27.2059 L552.805 27.2059 L552.805 66.9452 Z" fill="#000000" fill-rule="nonzero" fill-opacity="1" /><path clip-path="url(#clip530)" d="M631.109 14.0809 L631.109 22.0612 Q626.451 19.8332 622.319 18.7395 Q618.187 17.6457 614.338 17.6457 Q607.654 17.6457 604.009 20.2383 Q600.403 22.8309 600.403 27.611 Q600.403 31.6214 602.793 33.6873 Q605.224 35.7128 611.948 36.9686 L616.89 37.9813 Q626.046 39.7232 630.38 44.1387 Q634.755 48.5136 634.755 55.8863 Q634.755 64.6767 628.841 69.2137 Q622.967 73.7508 611.584 73.7508 Q607.29 73.7508 602.429 72.7785 Q597.608 71.8063 592.423 69.9024 L592.423 61.4765 Q597.406 64.2716 602.186 65.6895 Q606.966 67.1073 611.584 67.1073 Q618.592 67.1073 622.4 64.3527 Q626.208 61.598 626.208 56.4939 Q626.208 52.0379 623.453 49.5264 Q620.739 47.0148 614.5 45.759 L609.518 44.7868 Q600.363 42.9639 596.271 39.075 Q592.18 35.1862 592.18 28.2591 Q592.18 20.2383 597.811 15.6203 Q603.482 11.0023 613.407 11.0023 Q617.66 11.0023 622.076 11.7719 Q626.491 12.5416 631.109 14.0809 Z" fill="#000000" fill-rule="nonzero" fill-opacity="1" /><path clip-path="url(#clip530)" d="M667.81 49.7694 Q658.777 49.7694 655.293 51.8354 Q651.809 53.9013 651.809 58.8839 Q651.809 62.8538 654.402 65.2034 Q657.035 67.5124 661.531 67.5124 Q667.729 67.5124 671.456 63.1374 Q675.224 58.7219 675.224 51.4303 L675.224 49.7694 L667.81 49.7694 M682.677 46.6907 L682.677 72.576 L675.224 72.576 L675.224 65.6895 Q672.671 69.8214 668.864 71.8063 Q665.056 73.7508 659.547 73.7508 Q652.579 73.7508 648.447 69.8619 Q644.356 65.9325 644.356 59.3701 Q644.356 51.7138 649.46 47.825 Q654.604 43.9361 664.772 43.9361 L675.224 43.9361 L675.224 43.2069 Q675.224 38.0623 671.821 35.2672 Q668.458 32.4315 662.342 32.4315 Q658.453 32.4315 654.766 33.3632 Q651.08 34.295 647.677 36.1584 L647.677 29.2718 Q651.769 27.692 655.617 26.9223 Q659.465 26.1121 663.111 26.1121 Q672.955 26.1121 677.816 31.2163 Q682.677 36.3204 682.677 46.6907 Z" fill="#000000" fill-rule="nonzero" fill-opacity="1" /><path clip-path="url(#clip530)" d="M733.354 35.9153 Q736.149 30.8922 740.038 28.5022 Q743.927 26.1121 749.193 26.1121 Q756.282 26.1121 760.13 31.0947 Q763.979 36.0368 763.979 45.1919 L763.979 72.576 L756.485 72.576 L756.485 45.4349 Q756.485 38.913 754.176 35.7533 Q751.867 32.5936 747.127 32.5936 Q741.334 32.5936 737.972 36.4419 Q734.61 40.2903 734.61 46.9338 L734.61 72.576 L727.116 72.576 L727.116 45.4349 Q727.116 38.8725 724.807 35.7533 Q722.498 32.5936 717.677 32.5936 Q711.965 32.5936 708.603 36.4824 Q705.241 40.3308 705.241 46.9338 L705.241 72.576 L697.747 72.576 L697.747 27.2059 L705.241 27.2059 L705.241 34.2544 Q707.793 30.082 711.358 28.0971 Q714.922 26.1121 719.824 26.1121 Q724.766 26.1121 728.209 28.6237 Q731.693 31.1352 733.354 35.9153 Z" fill="#000000" fill-rule="nonzero" fill-opacity="1" /><path clip-path="url(#clip530)" d="M786.056 65.7705 L786.056 89.8329 L778.562 89.8329 L778.562 27.2059 L786.056 27.2059 L786.056 34.0924 Q788.406 30.0415 791.971 28.0971 Q795.576 26.1121 800.558 26.1121 Q808.822 26.1121 813.967 32.6746 Q819.152 39.2371 819.152 49.9314 Q819.152 60.6258 813.967 67.1883 Q808.822 73.7508 800.558 73.7508 Q795.576 73.7508 791.971 71.8063 Q788.406 69.8214 786.056 65.7705 M811.415 49.9314 Q811.415 41.7081 808.012 37.0496 Q804.65 32.3505 798.736 32.3505 Q792.821 32.3505 789.418 37.0496 Q786.056 41.7081 786.056 49.9314 Q786.056 58.1548 789.418 62.8538 Q792.821 67.5124 798.736 67.5124 Q804.65 67.5124 808.012 62.8538 Q811.415 58.1548 811.415 49.9314 Z" fill="#000000" fill-rule="nonzero" fill-opacity="1" /><path clip-path="url(#clip530)" d="M831.507 9.54393 L838.961 9.54393 L838.961 72.576 L831.507 72.576 L831.507 9.54393 Z" fill="#000000" fill-rule="nonzero" fill-opacity="1" /><path clip-path="url(#clip530)" d="M893.365 48.0275 L893.365 51.6733 L859.094 51.6733 Q859.58 59.3701 863.712 63.421 Q867.885 67.4314 875.298 67.4314 Q879.592 67.4314 883.602 66.3781 Q887.653 65.3249 891.623 63.2184 L891.623 70.267 Q887.612 71.9684 883.399 72.8596 Q879.187 73.7508 874.852 73.7508 Q863.996 73.7508 857.636 67.4314 Q851.316 61.1119 851.316 50.3365 Q851.316 39.1965 857.312 32.6746 Q863.347 26.1121 873.556 26.1121 Q882.711 26.1121 888.018 32.0264 Q893.365 37.9003 893.365 48.0275 M885.911 45.84 Q885.83 39.7232 882.468 36.0774 Q879.146 32.4315 873.637 32.4315 Q867.398 32.4315 863.631 35.9558 Q859.904 39.4801 859.337 45.8805 L885.911 45.84 Z" fill="#000000" fill-rule="nonzero" fill-opacity="1" /><path clip-path="url(#clip530)" d="M934.441 65.6895 L947.809 65.6895 L947.809 19.5497 L933.266 22.4663 L933.266 15.0127 L947.728 12.096 L955.911 12.096 L955.911 65.6895 L969.279 65.6895 L969.279 72.576 L934.441 72.576 L934.441 65.6895 Z" fill="#000000" fill-rule="nonzero" fill-opacity="1" /><path clip-path="url(#clip530)" d="M986.657 62.2867 L995.204 62.2867 L995.204 69.2543 L988.561 82.2172 L983.335 82.2172 L986.657 69.2543 L986.657 62.2867 Z" fill="#000000" fill-rule="nonzero" fill-opacity="1" /><path clip-path="url(#clip530)" d="M1039.97 65.6895 L1053.33 65.6895 L1053.33 19.5497 L1038.79 22.4663 L1038.79 15.0127 L1053.25 12.096 L1061.44 12.096 L1061.44 65.6895 L1074.8 65.6895 L1074.8 72.576 L1039.97 72.576 L1039.97 65.6895 Z" fill="#000000" fill-rule="nonzero" fill-opacity="1" /><path clip-path="url(#clip530)" d="M1108.83 17.4837 Q1102.51 17.4837 1099.31 23.7221 Q1096.15 29.92 1096.15 42.3968 Q1096.15 54.833 1099.31 61.0714 Q1102.51 67.2693 1108.83 67.2693 Q1115.19 67.2693 1118.35 61.0714 Q1121.55 54.833 1121.55 42.3968 Q1121.55 29.92 1118.35 23.7221 Q1115.19 17.4837 1108.83 17.4837 M1108.83 11.0023 Q1119 11.0023 1124.35 19.0636 Q1129.73 27.0843 1129.73 42.3968 Q1129.73 57.6687 1124.35 65.73 Q1119 73.7508 1108.83 73.7508 Q1098.66 73.7508 1093.28 65.73 Q1087.93 57.6687 1087.93 42.3968 Q1087.93 27.0843 1093.28 19.0636 Q1098.66 11.0023 1108.83 11.0023 Z" fill="#000000" fill-rule="nonzero" fill-opacity="1" /><path clip-path="url(#clip530)" d="M1161.62 17.4837 Q1155.3 17.4837 1152.1 23.7221 Q1148.94 29.92 1148.94 42.3968 Q1148.94 54.833 1152.1 61.0714 Q1155.3 67.2693 1161.62 67.2693 Q1167.98 67.2693 1171.14 61.0714 Q1174.34 54.833 1174.34 42.3968 Q1174.34 29.92 1171.14 23.7221 Q1167.98 17.4837 1161.62 17.4837 M1161.62 11.0023 Q1171.78 11.0023 1177.13 19.0636 Q1182.52 27.0843 1182.52 42.3968 Q1182.52 57.6687 1177.13 65.73 Q1171.78 73.7508 1161.62 73.7508 Q1151.45 73.7508 1146.06 65.73 Q1140.71 57.6687 1140.71 42.3968 Q1140.71 27.0843 1146.06 19.0636 Q1151.45 11.0023 1161.62 11.0023 Z" fill="#000000" fill-rule="nonzero" fill-opacity="1" /><path clip-path="url(#clip530)" d="M1214.4 17.4837 Q1208.08 17.4837 1204.88 23.7221 Q1201.72 29.92 1201.72 42.3968 Q1201.72 54.833 1204.88 61.0714 Q1208.08 67.2693 1214.4 67.2693 Q1220.76 67.2693 1223.92 61.0714 Q1227.12 54.833 1227.12 42.3968 Q1227.12 29.92 1223.92 23.7221 Q1220.76 17.4837 1214.4 17.4837 M1214.4 11.0023 Q1224.57 11.0023 1229.91 19.0636 Q1235.3 27.0843 1235.3 42.3968 Q1235.3 57.6687 1229.91 65.73 Q1224.57 73.7508 1214.4 73.7508 Q1204.23 73.7508 1198.84 65.73 Q1193.5 57.6687 1193.5 42.3968 Q1193.5 27.0843 1198.84 19.0636 Q1204.23 11.0023 1214.4 11.0023 Z" fill="#000000" fill-rule="nonzero" fill-opacity="1" /><path clip-path="url(#clip530)" d="M1311.58 14.0809 L1311.58 22.0612 Q1306.92 19.8332 1302.79 18.7395 Q1298.66 17.6457 1294.81 17.6457 Q1288.13 17.6457 1284.48 20.2383 Q1280.87 22.8309 1280.87 27.611 Q1280.87 31.6214 1283.26 33.6873 Q1285.69 35.7128 1292.42 36.9686 L1297.36 37.9813 Q1306.52 39.7232 1310.85 44.1387 Q1315.23 48.5136 1315.23 55.8863 Q1315.23 64.6767 1309.31 69.2137 Q1303.44 73.7508 1292.05 73.7508 Q1287.76 73.7508 1282.9 72.7785 Q1278.08 71.8063 1272.89 69.9024 L1272.89 61.4765 Q1277.88 64.2716 1282.66 65.6895 Q1287.44 67.1073 1292.05 67.1073 Q1299.06 67.1073 1302.87 64.3527 Q1306.68 61.598 1306.68 56.4939 Q1306.68 52.0379 1303.92 49.5264 Q1301.21 47.0148 1294.97 45.759 L1289.99 44.7868 Q1280.83 42.9639 1276.74 39.075 Q1272.65 35.1862 1272.65 28.2591 Q1272.65 20.2383 1278.28 15.6203 Q1283.95 11.0023 1293.88 11.0023 Q1298.13 11.0023 1302.55 11.7719 Q1306.96 12.5416 1311.58 14.0809 Z" fill="#000000" fill-rule="nonzero" fill-opacity="1" /><path clip-path="url(#clip530)" d="M1348.28 49.7694 Q1339.25 49.7694 1335.76 51.8354 Q1332.28 53.9013 1332.28 58.8839 Q1332.28 62.8538 1334.87 65.2034 Q1337.51 67.5124 1342 67.5124 Q1348.2 67.5124 1351.93 63.1374 Q1355.69 58.7219 1355.69 51.4303 L1355.69 49.7694 L1348.28 49.7694 M1363.15 46.6907 L1363.15 72.576 L1355.69 72.576 L1355.69 65.6895 Q1353.14 69.8214 1349.33 71.8063 Q1345.53 73.7508 1340.02 73.7508 Q1333.05 73.7508 1328.92 69.8619 Q1324.83 65.9325 1324.83 59.3701 Q1324.83 51.7138 1329.93 47.825 Q1335.08 43.9361 1345.24 43.9361 L1355.69 43.9361 L1355.69 43.2069 Q1355.69 38.0623 1352.29 35.2672 Q1348.93 32.4315 1342.81 32.4315 Q1338.92 32.4315 1335.24 33.3632 Q1331.55 34.295 1328.15 36.1584 L1328.15 29.2718 Q1332.24 27.692 1336.09 26.9223 Q1339.94 26.1121 1343.58 26.1121 Q1353.43 26.1121 1358.29 31.2163 Q1363.15 36.3204 1363.15 46.6907 Z" fill="#000000" fill-rule="nonzero" fill-opacity="1" /><path clip-path="url(#clip530)" d="M1413.82 35.9153 Q1416.62 30.8922 1420.51 28.5022 Q1424.4 26.1121 1429.66 26.1121 Q1436.75 26.1121 1440.6 31.0947 Q1444.45 36.0368 1444.45 45.1919 L1444.45 72.576 L1436.96 72.576 L1436.96 45.4349 Q1436.96 38.913 1434.65 35.7533 Q1432.34 32.5936 1427.6 32.5936 Q1421.81 32.5936 1418.44 36.4419 Q1415.08 40.2903 1415.08 46.9338 L1415.08 72.576 L1407.59 72.576 L1407.59 45.4349 Q1407.59 38.8725 1405.28 35.7533 Q1402.97 32.5936 1398.15 32.5936 Q1392.44 32.5936 1389.07 36.4824 Q1385.71 40.3308 1385.71 46.9338 L1385.71 72.576 L1378.22 72.576 L1378.22 27.2059 L1385.71 27.2059 L1385.71 34.2544 Q1388.26 30.082 1391.83 28.0971 Q1395.39 26.1121 1400.29 26.1121 Q1405.24 26.1121 1408.68 28.6237 Q1412.16 31.1352 1413.82 35.9153 Z" fill="#000000" fill-rule="nonzero" fill-opacity="1" /><path clip-path="url(#clip530)" d="M1466.53 65.7705 L1466.53 89.8329 L1459.03 89.8329 L1459.03 27.2059 L1466.53 27.2059 L1466.53 34.0924 Q1468.88 30.0415 1472.44 28.0971 Q1476.05 26.1121 1481.03 26.1121 Q1489.29 26.1121 1494.44 32.6746 Q1499.62 39.2371 1499.62 49.9314 Q1499.62 60.6258 1494.44 67.1883 Q1489.29 73.7508 1481.03 73.7508 Q1476.05 73.7508 1472.44 71.8063 Q1468.88 69.8214 1466.53 65.7705 M1491.89 49.9314 Q1491.89 41.7081 1488.48 37.0496 Q1485.12 32.3505 1479.21 32.3505 Q1473.29 32.3505 1469.89 37.0496 Q1466.53 41.7081 1466.53 49.9314 Q1466.53 58.1548 1469.89 62.8538 Q1473.29 67.5124 1479.21 67.5124 Q1485.12 67.5124 1488.48 62.8538 Q1491.89 58.1548 1491.89 49.9314 Z" fill="#000000" fill-rule="nonzero" fill-opacity="1" /><path clip-path="url(#clip530)" d="M1511.98 9.54393 L1519.43 9.54393 L1519.43 72.576 L1511.98 72.576 L1511.98 9.54393 Z" fill="#000000" fill-rule="nonzero" fill-opacity="1" /><path clip-path="url(#clip530)" d="M1573.84 48.0275 L1573.84 51.6733 L1539.56 51.6733 Q1540.05 59.3701 1544.18 63.421 Q1548.36 67.4314 1555.77 67.4314 Q1560.06 67.4314 1564.07 66.3781 Q1568.12 65.3249 1572.09 63.2184 L1572.09 70.267 Q1568.08 71.9684 1563.87 72.8596 Q1559.66 73.7508 1555.32 73.7508 Q1544.47 73.7508 1538.11 67.4314 Q1531.79 61.1119 1531.79 50.3365 Q1531.79 39.1965 1537.78 32.6746 Q1543.82 26.1121 1554.03 26.1121 Q1563.18 26.1121 1568.49 32.0264 Q1573.84 37.9003 1573.84 48.0275 M1566.38 45.84 Q1566.3 39.7232 1562.94 36.0774 Q1559.62 32.4315 1554.11 32.4315 Q1547.87 32.4315 1544.1 35.9558 Q1540.38 39.4801 1539.81 45.8805 L1566.38 45.84 Z" fill="#000000" fill-rule="nonzero" fill-opacity="1" /><path clip-path="url(#clip530)" d="M1612.76 12.096 L1651.01 12.096 L1651.01 18.9825 L1620.95 18.9825 L1620.95 36.8875 L1649.75 36.8875 L1649.75 43.7741 L1620.95 43.7741 L1620.95 65.6895 L1651.73 65.6895 L1651.73 72.576 L1612.76 72.576 L1612.76 12.096 Z" fill="#000000" fill-rule="nonzero" fill-opacity="1" /><path clip-path="url(#clip530)" d="M1693.78 28.5427 L1693.78 35.5912 Q1690.62 33.9709 1687.22 33.1607 Q1683.82 32.3505 1680.17 32.3505 Q1674.62 32.3505 1671.83 34.0519 Q1669.07 35.7533 1669.07 39.156 Q1669.07 41.7486 1671.06 43.2475 Q1673.04 44.7058 1679.04 46.0426 L1681.59 46.6097 Q1689.53 48.3111 1692.85 51.4303 Q1696.21 54.509 1696.21 60.0587 Q1696.21 66.3781 1691.19 70.0644 Q1686.21 73.7508 1677.46 73.7508 Q1673.81 73.7508 1669.84 73.0216 Q1665.91 72.3329 1661.54 70.9151 L1661.54 63.2184 Q1665.67 65.3654 1669.68 66.4591 Q1673.69 67.5124 1677.62 67.5124 Q1682.89 67.5124 1685.72 65.73 Q1688.56 63.9071 1688.56 60.6258 Q1688.56 57.5877 1686.49 55.9673 Q1684.47 54.3469 1677.54 52.8481 L1674.95 52.2405 Q1668.02 50.7821 1664.94 47.7845 Q1661.86 44.7463 1661.86 39.4801 Q1661.86 33.0797 1666.4 29.5959 Q1670.94 26.1121 1679.28 26.1121 Q1683.41 26.1121 1687.06 26.7198 Q1690.7 27.3274 1693.78 28.5427 Z" fill="#000000" fill-rule="nonzero" fill-opacity="1" /><path clip-path="url(#clip530)" d="M1715.46 14.324 L1715.46 27.2059 L1730.81 27.2059 L1730.81 32.9987 L1715.46 32.9987 L1715.46 57.6282 Q1715.46 63.1779 1716.95 64.7578 Q1718.49 66.3376 1723.15 66.3376 L1730.81 66.3376 L1730.81 72.576 L1723.15 72.576 Q1714.52 72.576 1711.24 69.3758 Q1707.96 66.1351 1707.96 57.6282 L1707.96 32.9987 L1702.49 32.9987 L1702.49 27.2059 L1707.96 27.2059 L1707.96 14.324 L1715.46 14.324 Z" fill="#000000" fill-rule="nonzero" fill-opacity="1" /><path clip-path="url(#clip530)" d="M1740.61 27.2059 L1748.06 27.2059 L1748.06 72.576 L1740.61 72.576 L1740.61 27.2059 M1740.61 9.54393 L1748.06 9.54393 L1748.06 18.9825 L1740.61 18.9825 L1740.61 9.54393 Z" fill="#000000" fill-rule="nonzero" fill-opacity="1" /><path clip-path="url(#clip530)" d="M1798.98 35.9153 Q1801.78 30.8922 1805.67 28.5022 Q1809.56 26.1121 1814.82 26.1121 Q1821.91 26.1121 1825.76 31.0947 Q1829.61 36.0368 1829.61 45.1919 L1829.61 72.576 L1822.12 72.576 L1822.12 45.4349 Q1822.12 38.913 1819.81 35.7533 Q1817.5 32.5936 1812.76 32.5936 Q1806.97 32.5936 1803.6 36.4419 Q1800.24 40.2903 1800.24 46.9338 L1800.24 72.576 L1792.75 72.576 L1792.75 45.4349 Q1792.75 38.8725 1790.44 35.7533 Q1788.13 32.5936 1783.31 32.5936 Q1777.6 32.5936 1774.23 36.4824 Q1770.87 40.3308 1770.87 46.9338 L1770.87 72.576 L1763.38 72.576 L1763.38 27.2059 L1770.87 27.2059 L1770.87 34.2544 Q1773.42 30.082 1776.99 28.0971 Q1780.55 26.1121 1785.45 26.1121 Q1790.4 26.1121 1793.84 28.6237 Q1797.32 31.1352 1798.98 35.9153 Z" fill="#000000" fill-rule="nonzero" fill-opacity="1" /><path clip-path="url(#clip530)" d="M1865.1 49.7694 Q1856.06 49.7694 1852.58 51.8354 Q1849.09 53.9013 1849.09 58.8839 Q1849.09 62.8538 1851.69 65.2034 Q1854.32 67.5124 1858.82 67.5124 Q1865.01 67.5124 1868.74 63.1374 Q1872.51 58.7219 1872.51 51.4303 L1872.51 49.7694 L1865.1 49.7694 M1879.96 46.6907 L1879.96 72.576 L1872.51 72.576 L1872.51 65.6895 Q1869.96 69.8214 1866.15 71.8063 Q1862.34 73.7508 1856.83 73.7508 Q1849.86 73.7508 1845.73 69.8619 Q1841.64 65.9325 1841.64 59.3701 Q1841.64 51.7138 1846.75 47.825 Q1851.89 43.9361 1862.06 43.9361 L1872.51 43.9361 L1872.51 43.2069 Q1872.51 38.0623 1869.11 35.2672 Q1865.74 32.4315 1859.63 32.4315 Q1855.74 32.4315 1852.05 33.3632 Q1848.37 34.295 1844.96 36.1584 L1844.96 29.2718 Q1849.05 27.692 1852.9 26.9223 Q1856.75 26.1121 1860.4 26.1121 Q1870.24 26.1121 1875.1 31.2163 Q1879.96 36.3204 1879.96 46.6907 Z" fill="#000000" fill-rule="nonzero" fill-opacity="1" /><path clip-path="url(#clip530)" d="M1902.69 14.324 L1902.69 27.2059 L1918.04 27.2059 L1918.04 32.9987 L1902.69 32.9987 L1902.69 57.6282 Q1902.69 63.1779 1904.19 64.7578 Q1905.73 66.3376 1910.38 66.3376 L1918.04 66.3376 L1918.04 72.576 L1910.38 72.576 Q1901.76 72.576 1898.48 69.3758 Q1895.19 66.1351 1895.19 57.6282 L1895.19 32.9987 L1889.73 32.9987 L1889.73 27.2059 L1895.19 27.2059 L1895.19 14.324 L1902.69 14.324 Z" fill="#000000" fill-rule="nonzero" fill-opacity="1" /><path clip-path="url(#clip530)" d="M1966.65 48.0275 L1966.65 51.6733 L1932.38 51.6733 Q1932.87 59.3701 1937 63.421 Q1941.17 67.4314 1948.58 67.4314 Q1952.88 67.4314 1956.89 66.3781 Q1960.94 65.3249 1964.91 63.2184 L1964.91 70.267 Q1960.9 71.9684 1956.69 72.8596 Q1952.47 73.7508 1948.14 73.7508 Q1937.28 73.7508 1930.92 67.4314 Q1924.6 61.1119 1924.6 50.3365 Q1924.6 39.1965 1930.6 32.6746 Q1936.63 26.1121 1946.84 26.1121 Q1956 26.1121 1961.3 32.0264 Q1966.65 37.9003 1966.65 48.0275 M1959.2 45.84 Q1959.12 39.7232 1955.75 36.0774 Q1952.43 32.4315 1946.92 32.4315 Q1940.69 32.4315 1936.92 35.9558 Q1933.19 39.4801 1932.62 45.8805 L1959.2 45.84 Z" fill="#000000" fill-rule="nonzero" fill-opacity="1" /><path clip-path="url(#clip530)" d="M1980.79 62.2867 L1989.34 62.2867 L1989.34 69.2543 L1982.69 82.2172 L1977.47 82.2172 L1980.79 69.2543 L1980.79 62.2867 Z" fill="#000000" fill-rule="nonzero" fill-opacity="1" /><path clip-path="url(#clip530)" d="M2064.48 20.0358 Q2060.35 17.2001 2050.67 17.2001 Q2040.42 17.2001 2040.42 21.9397 Q2040.42 25.6665 2051.11 27.611 Q2059.54 29.1098 2064.28 33.6468 Q2070.03 39.1155 2070.03 50.3365 Q2070.03 61.0714 2064.48 67.3908 Q2058.93 73.7508 2049.21 73.7508 Q2039.53 73.7508 2033.94 67.3908 Q2028.39 61.0714 2028.39 49.9314 Q2028.39 41.6676 2033.94 34.9836 Q2036.08 32.391 2039.12 30.9327 Q2032.8 27.7325 2032.8 22.0207 Q2032.8 11.0023 2050.67 11.0023 Q2059.62 11.0023 2064.48 13.8379 L2064.48 20.0358 M2044.71 32.9582 Q2041.96 34.1329 2039.73 37.0901 Q2036.25 41.6676 2036.25 49.9314 Q2036.25 58.1548 2039.69 62.7728 Q2043.17 67.4314 2049.21 67.4314 Q2055.16 67.4314 2058.65 62.7323 Q2062.13 58.0333 2062.13 50.3365 Q2062.13 42.2752 2058.45 38.3864 Q2054.52 34.2139 2049.41 33.7683 Q2046.82 33.5253 2044.71 32.9582 Z" fill="#000000" fill-rule="nonzero" fill-opacity="1" /><path clip-path="url(#clip530)" d="M2120.1 27.2059 L2103.69 49.2833 L2120.95 72.576 L2112.16 72.576 L2098.95 54.752 L2085.75 72.576 L2076.96 72.576 L2094.58 48.8377 L2078.46 27.2059 L2087.25 27.2059 L2099.28 43.369 L2111.31 27.2059 L2120.1 27.2059 Z" fill="#000000" fill-rule="nonzero" fill-opacity="1" /><path clip-path="url(#clip530)" d="M2158.83 34.9026 L2210.76 34.9026 L2210.76 41.7081 L2158.83 41.7081 L2158.83 34.9026 M2158.83 51.4303 L2210.76 51.4303 L2210.76 58.3168 L2158.83 58.3168 L2158.83 51.4303 Z" fill="#000000" fill-rule="nonzero" fill-opacity="1" /><path clip-path="url(#clip530)" d="M2272.29 17.4837 Q2265.97 17.4837 2262.77 23.7221 Q2259.61 29.92 2259.61 42.3968 Q2259.61 54.833 2262.77 61.0714 Q2265.97 67.2693 2272.29 67.2693 Q2278.65 67.2693 2281.81 61.0714 Q2285.01 54.833 2285.01 42.3968 Q2285.01 29.92 2281.81 23.7221 Q2278.65 17.4837 2272.29 17.4837 M2272.29 11.0023 Q2282.46 11.0023 2287.81 19.0636 Q2293.2 27.0843 2293.2 42.3968 Q2293.2 57.6687 2287.81 65.73 Q2282.46 73.7508 2272.29 73.7508 Q2262.12 73.7508 2256.74 65.73 Q2251.39 57.6687 2251.39 42.3968 Q2251.39 27.0843 2256.74 19.0636 Q2262.12 11.0023 2272.29 11.0023 Z" fill="#000000" fill-rule="nonzero" fill-opacity="1" /><path clip-path="url(#clip530)" d="M2307.58 62.2867 L2316.12 62.2867 L2316.12 72.576 L2307.58 72.576 L2307.58 62.2867 Z" fill="#000000" fill-rule="nonzero" fill-opacity="1" /><path clip-path="url(#clip530)" d="M2341 65.6895 L2369.55 65.6895 L2369.55 72.576 L2331.15 72.576 L2331.15 65.6895 Q2335.81 60.8689 2343.83 52.7671 Q2351.89 44.6248 2353.96 42.2752 Q2357.89 37.8598 2359.43 34.8216 Q2361.01 31.7429 2361.01 28.7857 Q2361.01 23.9651 2357.6 20.927 Q2354.24 17.8888 2348.81 17.8888 Q2344.97 17.8888 2340.67 19.2256 Q2336.42 20.5624 2331.56 23.2765 L2331.56 15.0127 Q2336.5 13.0277 2340.79 12.015 Q2345.09 11.0023 2348.65 11.0023 Q2358.05 11.0023 2363.64 15.7013 Q2369.23 20.4004 2369.23 28.2591 Q2369.23 31.9859 2367.81 35.3482 Q2366.44 38.6699 2362.75 43.2069 Q2361.74 44.3817 2356.31 50.0125 Q2350.88 55.6027 2341 65.6895 Z" fill="#000000" fill-rule="nonzero" fill-opacity="1" /><polyline clip-path="url(#clip532)" style="stroke:#009af9; stroke-linecap:round; stroke-linejoin:round; stroke-width:8; stroke-opacity:1; fill:none" points="309.067,995.181 329.109,923.782 349.151,827.178 369.193,721.726 389.235,628.219 409.277,561.598 429.319,527.338 449.361,525.821 469.403,557.022 489.446,620.74 509.488,712.224 529.53,817.423 549.572,915.678 569.614,989.847 589.656,1032.31 609.698,1041.98 629.74,1019 649.782,963.267 669.824,877.824 689.866,774.235 709.908,672.312 729.95,591.014 749.992,540.351 770.034,522.507 790.076,537.307 "/>
<path clip-path="url(#clip532)" d="M810.118 1080.35 L830.161 1163.07 L850.203 1253.76 L870.245 1317.5 L890.287 1312.58 L910.329 1347.03 L930.371 1367.65 L950.413 1370.46 L970.455 1348.9 L990.497 1352.88 L1010.54 1281.65 L1030.58 1220.48 L1050.62 1124.87 L1070.67 1018.25 L1090.71 999.499 L1110.75 998.328 L1130.79 1051.99 L1150.83 1123.23 L1170.88 1216.03 L1190.92 1291.49 L1210.96 1336.01 L1231 1358.74 L1251.04 1354.99 L1271.09 1351.48 L1291.13 1367.41 L1311.17 1331.33 L1331.21 1306.72 L1351.25 1239.23 L1371.3 1152.76 L1391.34 1064.18 L1411.38 1022.23 L1431.42 995.516 L1451.46 1011.45 L1471.51 1090.42 L1491.55 1165.88 L1511.59 1257.51 L1531.63 1297.11 L1551.67 1340 L1571.72 1369.52 L1591.76 1362.96 L1611.8 1362.73 L1631.84 1344.92 L1651.89 1334.84 L1671.93 1268.99 L1691.97 1206.66 L1712.01 1112.92 L1732.05 1019.42 L1752.1 997.39 L1772.14 1005.12 L1792.18 1041.45 L1812.22 1107.53 L1832.26 1213.45 L1852.31 1301.8 L1872.35 1336.48 L1892.39 1340.7 L1912.43 1386.4 L1932.47 1359.92 L1952.52 1350.78 L1972.56 1346.79 L1992.6 1281.41 L2012.64 1243.68 L2032.68 1179.94 L2052.73 1066.52 L2072.77 1039.57 L2092.81 996.453 L2112.85 1030.9 L2132.89 1089.49 L2152.94 1178.54 L2172.98 1259.62 L2193.02 1327.81 L2213.06 1360.62 L2233.1 1366.24 L2253.15 1359.21 L2273.19 1385.69 L2293.23 1353.59 L2293.23 518.329 L2273.19 550.433 L2253.15 523.953 L2233.1 530.983 L2213.06 525.359 L2193.02 492.551 L2172.98 424.358 L2152.94 343.276 L2132.89 254.227 L2112.85 195.642 L2092.81 161.194 L2072.77 204.312 L2052.73 231.261 L2032.68 344.682 L2012.64 408.423 L1992.6 446.152 L1972.56 511.533 L1952.52 515.517 L1932.47 524.656 L1912.43 551.136 L1892.39 505.44 L1872.35 501.222 L1852.31 466.539 L1832.26 378.193 L1812.22 272.271 L1792.18 206.187 L1772.14 169.864 L1752.1 162.131 L1732.05 184.159 L1712.01 277.661 L1691.97 371.397 L1671.93 433.732 L1651.89 499.581 L1631.84 509.658 L1611.8 527.468 L1591.76 527.702 L1571.72 534.264 L1551.67 504.737 L1531.63 461.853 L1511.59 422.249 L1491.55 330.622 L1471.51 255.164 L1451.46 176.191 L1431.42 160.256 L1411.38 186.971 L1391.34 228.918 L1371.3 317.499 L1351.25 403.97 L1331.21 471.46 L1311.17 496.066 L1291.13 532.155 L1271.09 516.22 L1251.04 519.735 L1231 523.484 L1210.96 500.753 L1190.92 456.228 L1170.88 380.771 L1150.83 287.972 L1130.79 216.732 L1110.75 163.068 L1090.71 164.24 L1070.67 182.987 L1050.62 289.612 L1030.58 385.223 L1010.54 446.386 L990.497 517.626 L970.455 513.642 L950.413 535.201 L930.371 532.389 L910.329 511.767 L890.287 477.319 L870.245 482.24 L850.203 418.5 L830.161 327.81 L810.118 245.088  Z" fill="#e26f46" fill-rule="evenodd" fill-opacity="0.5"/>
<polyline clip-path="url(#clip532)" style="stroke:#e26f46; stroke-linecap:round; stroke-linejoin:round; stroke-width:8; stroke-opacity:1; fill:none" stroke-dasharray="32, 16, 4, 16" points="810.118,662.717 830.161,745.439 850.203,836.129 870.245,899.87 890.287,894.949 910.329,929.397 930.371,950.019 950.413,952.831 970.455,931.271 990.497,935.255 1010.54,864.016 1030.58,802.853 1050.62,707.242 1070.67,600.617 1090.71,581.87 1110.75,580.698 1130.79,634.362 1150.83,705.602 1170.88,798.4 1190.92,873.858 1210.96,918.383 1231,941.114 1251.04,937.364 1271.09,933.849 1291.13,949.784 1311.17,913.696 1331.21,889.09 1351.25,821.6 1371.3,735.128 1391.34,646.548 1411.38,604.601 1431.42,577.886 1451.46,593.821 1471.51,672.794 1491.55,748.252 1511.59,839.879 1531.63,879.482 1551.67,922.367 1571.72,951.893 1591.76,945.332 1611.8,945.098 1631.84,927.288 1651.89,917.211 1671.93,851.361 1691.97,789.027 1712.01,695.291 1732.05,601.789 1752.1,579.761 1772.14,587.494 1792.18,623.817 1812.22,689.901 1832.26,795.823 1852.31,884.169 1872.35,918.851 1892.39,923.07 1912.43,968.766 1932.47,942.285 1952.52,933.146 1972.56,929.162 1992.6,863.781 2012.64,826.053 2032.68,762.312 2052.73,648.891 2072.77,621.942 2092.81,578.823 2112.85,613.271 2132.89,671.857 2152.94,760.906 2172.98,841.988 2193.02,910.181 2213.06,942.989 2233.1,948.613 2253.15,941.582 2273.19,968.063 2293.23,935.958 "/>
<polyline clip-path="url(#clip532)" style="stroke:#3da44d; stroke-linecap:round; stroke-linejoin:round; stroke-width:8; stroke-opacity:1; fill:none" points="810.118,584.935 830.161,663.65 850.203,764.35 870.245,868.693 890.287,956.47 910.329,1015.19 930.371,1041.23 950.413,1034.59 970.455,995.181 990.497,923.782 1010.54,827.178 1030.58,721.726 1050.62,628.219 1070.67,561.598 1090.71,527.338 1110.75,525.821 1130.79,557.022 1150.83,620.74 1170.88,712.224 1190.92,817.423 1210.96,915.678 1231,989.847 1251.04,1032.31 1271.09,1041.98 1291.13,1019 1311.17,963.267 1331.21,877.824 1351.25,774.235 1371.3,672.312 1391.34,591.014 1411.38,540.351 1431.42,522.507 1451.46,537.307 1471.51,584.935 1491.55,663.65 1511.59,764.35 1531.63,868.693 1551.67,956.47 1571.72,1015.19 1591.76,1041.23 1611.8,1034.59 1631.84,995.181 1651.89,923.782 1671.93,827.178 1691.97,721.726 1712.01,628.219 1732.05,561.598 1752.1,527.338 1772.14,525.821 1792.18,557.022 1812.22,620.74 1832.26,712.224 1852.31,817.423 1872.35,915.678 1892.39,989.847 1912.43,1032.31 1932.47,1041.98 1952.52,1019 1972.56,963.267 1992.6,877.824 2012.64,774.235 2032.68,672.312 2052.73,591.014 2072.77,540.351 2092.81,522.507 2112.85,537.307 2132.89,584.935 2152.94,663.65 2172.98,764.35 2193.02,868.693 2213.06,956.47 2233.1,1015.19 2253.15,1041.23 2273.19,1034.59 2293.23,995.181 "/>
<path clip-path="url(#clip530)" d="M319.649 1379.86 L936.751 1379.86 L936.751 1172.5 L319.649 1172.5  Z" fill="#ffffff" fill-rule="evenodd" fill-opacity="1"/>
<polyline clip-path="url(#clip530)" style="stroke:#000000; stroke-linecap:round; stroke-linejoin:round; stroke-width:4; stroke-opacity:1; fill:none" points="319.649,1379.86 936.751,1379.86 936.751,1172.5 319.649,1172.5 319.649,1379.86 "/>
<polyline clip-path="url(#clip530)" style="stroke:#009af9; stroke-linecap:round; stroke-linejoin:round; stroke-width:8; stroke-opacity:1; fill:none" points="343.018,1224.34 483.232,1224.34 "/>
<path clip-path="url(#clip530)" d="M534.472 1209.72 L534.472 1214.65 Q532.111 1212.45 529.425 1211.36 Q526.763 1210.27 523.754 1210.27 Q517.828 1210.27 514.68 1213.91 Q511.532 1217.52 511.532 1224.37 Q511.532 1231.2 514.68 1234.83 Q517.828 1238.44 523.754 1238.44 Q526.763 1238.44 529.425 1237.36 Q532.111 1236.27 534.472 1234.07 L534.472 1238.95 Q532.018 1240.62 529.263 1241.45 Q526.532 1242.29 523.476 1242.29 Q515.629 1242.29 511.115 1237.5 Q506.602 1232.68 506.602 1224.37 Q506.602 1216.04 511.115 1211.25 Q515.629 1206.43 523.476 1206.43 Q526.578 1206.43 529.31 1207.26 Q532.064 1208.07 534.472 1209.72 Z" fill="#000000" fill-rule="nonzero" fill-opacity="1" /><path clip-path="url(#clip530)" d="M551.555 1218.68 Q548.129 1218.68 546.138 1221.36 Q544.148 1224.02 544.148 1228.68 Q544.148 1233.33 546.115 1236.01 Q548.106 1238.68 551.555 1238.68 Q554.958 1238.68 556.948 1235.99 Q558.939 1233.31 558.939 1228.68 Q558.939 1224.07 556.948 1221.38 Q554.958 1218.68 551.555 1218.68 M551.555 1215.07 Q557.11 1215.07 560.282 1218.68 Q563.453 1222.29 563.453 1228.68 Q563.453 1235.04 560.282 1238.68 Q557.11 1242.29 551.555 1242.29 Q545.976 1242.29 542.805 1238.68 Q539.657 1235.04 539.657 1228.68 Q539.657 1222.29 542.805 1218.68 Q545.976 1215.07 551.555 1215.07 Z" fill="#000000" fill-rule="nonzero" fill-opacity="1" /><path clip-path="url(#clip530)" d="M592.064 1225.97 L592.064 1241.62 L587.805 1241.62 L587.805 1226.11 Q587.805 1222.43 586.37 1220.6 Q584.934 1218.77 582.064 1218.77 Q578.615 1218.77 576.624 1220.97 Q574.634 1223.17 574.634 1226.96 L574.634 1241.62 L570.351 1241.62 L570.351 1215.69 L574.634 1215.69 L574.634 1219.72 Q576.161 1217.38 578.221 1216.22 Q580.305 1215.07 583.013 1215.07 Q587.481 1215.07 589.772 1217.84 Q592.064 1220.6 592.064 1225.97 Z" fill="#000000" fill-rule="nonzero" fill-opacity="1" /><path clip-path="url(#clip530)" d="M617.619 1219.63 L617.619 1205.6 L621.879 1205.6 L621.879 1241.62 L617.619 1241.62 L617.619 1237.73 Q616.277 1240.04 614.217 1241.18 Q612.18 1242.29 609.309 1242.29 Q604.61 1242.29 601.647 1238.54 Q598.707 1234.79 598.707 1228.68 Q598.707 1222.57 601.647 1218.82 Q604.61 1215.07 609.309 1215.07 Q612.18 1215.07 614.217 1216.2 Q616.277 1217.31 617.619 1219.63 M603.106 1228.68 Q603.106 1233.38 605.027 1236.06 Q606.971 1238.72 610.351 1238.72 Q613.731 1238.72 615.675 1236.06 Q617.619 1233.38 617.619 1228.68 Q617.619 1223.98 615.675 1221.32 Q613.731 1218.63 610.351 1218.63 Q606.971 1218.63 605.027 1221.32 Q603.106 1223.98 603.106 1228.68 Z" fill="#000000" fill-rule="nonzero" fill-opacity="1" /><path clip-path="url(#clip530)" d="M630.652 1215.69 L634.911 1215.69 L634.911 1241.62 L630.652 1241.62 L630.652 1215.69 M630.652 1205.6 L634.911 1205.6 L634.911 1210.99 L630.652 1210.99 L630.652 1205.6 Z" fill="#000000" fill-rule="nonzero" fill-opacity="1" /><path clip-path="url(#clip530)" d="M648.036 1208.33 L648.036 1215.69 L656.809 1215.69 L656.809 1219 L648.036 1219 L648.036 1233.07 Q648.036 1236.25 648.892 1237.15 Q649.772 1238.05 652.434 1238.05 L656.809 1238.05 L656.809 1241.62 L652.434 1241.62 Q647.504 1241.62 645.629 1239.79 Q643.754 1237.94 643.754 1233.07 L643.754 1219 L640.629 1219 L640.629 1215.69 L643.754 1215.69 L643.754 1208.33 L648.036 1208.33 Z" fill="#000000" fill-rule="nonzero" fill-opacity="1" /><path clip-path="url(#clip530)" d="M662.411 1215.69 L666.67 1215.69 L666.67 1241.62 L662.411 1241.62 L662.411 1215.69 M662.411 1205.6 L666.67 1205.6 L666.67 1210.99 L662.411 1210.99 L662.411 1205.6 Z" fill="#000000" fill-rule="nonzero" fill-opacity="1" /><path clip-path="url(#clip530)" d="M685.628 1218.68 Q682.202 1218.68 680.212 1221.36 Q678.221 1224.02 678.221 1228.68 Q678.221 1233.33 680.189 1236.01 Q682.179 1238.68 685.628 1238.68 Q689.031 1238.68 691.022 1235.99 Q693.013 1233.31 693.013 1228.68 Q693.013 1224.07 691.022 1221.38 Q689.031 1218.68 685.628 1218.68 M685.628 1215.07 Q691.184 1215.07 694.355 1218.68 Q697.526 1222.29 697.526 1228.68 Q697.526 1235.04 694.355 1238.68 Q691.184 1242.29 685.628 1242.29 Q680.05 1242.29 676.878 1238.68 Q673.73 1235.04 673.73 1228.68 Q673.73 1222.29 676.878 1218.68 Q680.05 1215.07 685.628 1215.07 Z" fill="#000000" fill-rule="nonzero" fill-opacity="1" /><path clip-path="url(#clip530)" d="M726.137 1225.97 L726.137 1241.62 L721.878 1241.62 L721.878 1226.11 Q721.878 1222.43 720.443 1220.6 Q719.008 1218.77 716.137 1218.77 Q712.688 1218.77 710.698 1220.97 Q708.707 1223.17 708.707 1226.96 L708.707 1241.62 L704.425 1241.62 L704.425 1215.69 L708.707 1215.69 L708.707 1219.72 Q710.235 1217.38 712.295 1216.22 Q714.378 1215.07 717.086 1215.07 Q721.554 1215.07 723.846 1217.84 Q726.137 1220.6 726.137 1225.97 Z" fill="#000000" fill-rule="nonzero" fill-opacity="1" /><path clip-path="url(#clip530)" d="M756.808 1227.59 L756.808 1229.67 L737.225 1229.67 Q737.503 1234.07 739.864 1236.38 Q742.248 1238.68 746.484 1238.68 Q748.938 1238.68 751.23 1238.07 Q753.545 1237.47 755.813 1236.27 L755.813 1240.3 Q753.521 1241.27 751.114 1241.78 Q748.707 1242.29 746.23 1242.29 Q740.026 1242.29 736.392 1238.68 Q732.781 1235.07 732.781 1228.91 Q732.781 1222.54 736.207 1218.82 Q739.656 1215.07 745.489 1215.07 Q750.721 1215.07 753.753 1218.45 Q756.808 1221.8 756.808 1227.59 M752.549 1226.34 Q752.503 1222.84 750.582 1220.76 Q748.684 1218.68 745.535 1218.68 Q741.971 1218.68 739.818 1220.69 Q737.688 1222.7 737.364 1226.36 L752.549 1226.34 Z" fill="#000000" fill-rule="nonzero" fill-opacity="1" /><path clip-path="url(#clip530)" d="M780.859 1219.63 L780.859 1205.6 L785.119 1205.6 L785.119 1241.62 L780.859 1241.62 L780.859 1237.73 Q779.517 1240.04 777.457 1241.18 Q775.42 1242.29 772.549 1242.29 Q767.85 1242.29 764.887 1238.54 Q761.947 1234.79 761.947 1228.68 Q761.947 1222.57 764.887 1218.82 Q767.85 1215.07 772.549 1215.07 Q775.42 1215.07 777.457 1216.2 Q779.517 1217.31 780.859 1219.63 M766.345 1228.68 Q766.345 1233.38 768.267 1236.06 Q770.211 1238.72 773.591 1238.72 Q776.97 1238.72 778.915 1236.06 Q780.859 1233.38 780.859 1228.68 Q780.859 1223.98 778.915 1221.32 Q776.97 1218.63 773.591 1218.63 Q770.211 1218.63 768.267 1221.32 Q766.345 1223.98 766.345 1228.68 Z" fill="#000000" fill-rule="nonzero" fill-opacity="1" /><path clip-path="url(#clip530)" d="M813.822 1210.9 L813.822 1237.77 L819.47 1237.77 Q826.623 1237.77 829.933 1234.53 Q833.266 1231.29 833.266 1224.3 Q833.266 1217.36 829.933 1214.14 Q826.623 1210.9 819.47 1210.9 L813.822 1210.9 M809.146 1207.06 L818.753 1207.06 Q828.799 1207.06 833.498 1211.25 Q838.197 1215.41 838.197 1224.3 Q838.197 1233.24 833.475 1237.43 Q828.753 1241.62 818.753 1241.62 L809.146 1241.62 L809.146 1207.06 Z" fill="#000000" fill-rule="nonzero" fill-opacity="1" /><path clip-path="url(#clip530)" d="M857.248 1228.58 Q852.086 1228.58 850.095 1229.76 Q848.104 1230.95 848.104 1233.79 Q848.104 1236.06 849.586 1237.4 Q851.09 1238.72 853.66 1238.72 Q857.201 1238.72 859.331 1236.22 Q861.484 1233.7 861.484 1229.53 L861.484 1228.58 L857.248 1228.58 M865.743 1226.82 L865.743 1241.62 L861.484 1241.62 L861.484 1237.68 Q860.026 1240.04 857.85 1241.18 Q855.674 1242.29 852.526 1242.29 Q848.544 1242.29 846.183 1240.07 Q843.845 1237.82 843.845 1234.07 Q843.845 1229.7 846.762 1227.47 Q849.702 1225.25 855.512 1225.25 L861.484 1225.25 L861.484 1224.83 Q861.484 1221.89 859.539 1220.3 Q857.618 1218.68 854.123 1218.68 Q851.901 1218.68 849.794 1219.21 Q847.688 1219.74 845.743 1220.81 L845.743 1216.87 Q848.081 1215.97 850.28 1215.53 Q852.479 1215.07 854.563 1215.07 Q860.188 1215.07 862.965 1217.98 Q865.743 1220.9 865.743 1226.82 Z" fill="#000000" fill-rule="nonzero" fill-opacity="1" /><path clip-path="url(#clip530)" d="M878.729 1208.33 L878.729 1215.69 L887.502 1215.69 L887.502 1219 L878.729 1219 L878.729 1233.07 Q878.729 1236.25 879.586 1237.15 Q880.465 1238.05 883.127 1238.05 L887.502 1238.05 L887.502 1241.62 L883.127 1241.62 Q878.197 1241.62 876.322 1239.79 Q874.447 1237.94 874.447 1233.07 L874.447 1219 L871.322 1219 L871.322 1215.69 L874.447 1215.69 L874.447 1208.33 L878.729 1208.33 Z" fill="#000000" fill-rule="nonzero" fill-opacity="1" /><path clip-path="url(#clip530)" d="M904.886 1228.58 Q899.724 1228.58 897.734 1229.76 Q895.743 1230.95 895.743 1233.79 Q895.743 1236.06 897.224 1237.4 Q898.729 1238.72 901.298 1238.72 Q904.84 1238.72 906.97 1236.22 Q909.122 1233.7 909.122 1229.53 L909.122 1228.58 L904.886 1228.58 M913.382 1226.82 L913.382 1241.62 L909.122 1241.62 L909.122 1237.68 Q907.664 1240.04 905.488 1241.18 Q903.312 1242.29 900.164 1242.29 Q896.183 1242.29 893.822 1240.07 Q891.484 1237.82 891.484 1234.07 Q891.484 1229.7 894.4 1227.47 Q897.34 1225.25 903.15 1225.25 L909.122 1225.25 L909.122 1224.83 Q909.122 1221.89 907.178 1220.3 Q905.257 1218.68 901.761 1218.68 Q899.539 1218.68 897.433 1219.21 Q895.326 1219.74 893.382 1220.81 L893.382 1216.87 Q895.72 1215.97 897.919 1215.53 Q900.118 1215.07 902.201 1215.07 Q907.826 1215.07 910.604 1217.98 Q913.382 1220.9 913.382 1226.82 Z" fill="#000000" fill-rule="nonzero" fill-opacity="1" /><polyline clip-path="url(#clip530)" style="stroke:#e26f46; stroke-linecap:round; stroke-linejoin:round; stroke-width:8; stroke-opacity:1; fill:none" stroke-dasharray="32, 16, 4, 16" points="343.018,1276.18 483.232,1276.18 "/>
<path clip-path="url(#clip530)" d="M511.277 1262.74 L511.277 1275.72 L517.157 1275.72 Q520.421 1275.72 522.203 1274.04 Q523.986 1272.35 523.986 1269.22 Q523.986 1266.12 522.203 1264.43 Q520.421 1262.74 517.157 1262.74 L511.277 1262.74 M506.602 1258.9 L517.157 1258.9 Q522.967 1258.9 525.93 1261.54 Q528.916 1264.15 528.916 1269.22 Q528.916 1274.34 525.93 1276.95 Q522.967 1279.57 517.157 1279.57 L511.277 1279.57 L511.277 1293.46 L506.602 1293.46 L506.602 1258.9 Z" fill="#000000" fill-rule="nonzero" fill-opacity="1" /><path clip-path="url(#clip530)" d="M549.194 1271.51 Q548.476 1271.1 547.62 1270.91 Q546.786 1270.7 545.768 1270.7 Q542.157 1270.7 540.212 1273.06 Q538.291 1275.4 538.291 1279.8 L538.291 1293.46 L534.009 1293.46 L534.009 1267.53 L538.291 1267.53 L538.291 1271.56 Q539.634 1269.2 541.787 1268.06 Q543.939 1266.91 547.018 1266.91 Q547.458 1266.91 547.99 1266.97 Q548.523 1267.02 549.171 1267.14 L549.194 1271.51 Z" fill="#000000" fill-rule="nonzero" fill-opacity="1" /><path clip-path="url(#clip530)" d="M574.796 1279.43 L574.796 1281.51 L555.212 1281.51 Q555.49 1285.91 557.851 1288.22 Q560.235 1290.52 564.472 1290.52 Q566.925 1290.52 569.217 1289.91 Q571.532 1289.31 573.8 1288.11 L573.8 1292.14 Q571.509 1293.11 569.101 1293.62 Q566.694 1294.13 564.217 1294.13 Q558.013 1294.13 554.379 1290.52 Q550.768 1286.91 550.768 1280.75 Q550.768 1274.38 554.194 1270.66 Q557.643 1266.91 563.476 1266.91 Q568.708 1266.91 571.74 1270.29 Q574.796 1273.64 574.796 1279.43 M570.536 1278.18 Q570.49 1274.68 568.569 1272.6 Q566.671 1270.52 563.522 1270.52 Q559.958 1270.52 557.805 1272.53 Q555.675 1274.54 555.351 1278.2 L570.536 1278.18 Z" fill="#000000" fill-rule="nonzero" fill-opacity="1" /><path clip-path="url(#clip530)" d="M598.846 1271.47 L598.846 1257.44 L603.106 1257.44 L603.106 1293.46 L598.846 1293.46 L598.846 1289.57 Q597.504 1291.88 595.444 1293.02 Q593.407 1294.13 590.536 1294.13 Q585.837 1294.13 582.874 1290.38 Q579.934 1286.63 579.934 1280.52 Q579.934 1274.41 582.874 1270.66 Q585.837 1266.91 590.536 1266.91 Q593.407 1266.91 595.444 1268.04 Q597.504 1269.15 598.846 1271.47 M584.333 1280.52 Q584.333 1285.22 586.254 1287.9 Q588.198 1290.56 591.578 1290.56 Q594.958 1290.56 596.902 1287.9 Q598.846 1285.22 598.846 1280.52 Q598.846 1275.82 596.902 1273.16 Q594.958 1270.47 591.578 1270.47 Q588.198 1270.47 586.254 1273.16 Q584.333 1275.82 584.333 1280.52 Z" fill="#000000" fill-rule="nonzero" fill-opacity="1" /><path clip-path="url(#clip530)" d="M611.879 1267.53 L616.138 1267.53 L616.138 1293.46 L611.879 1293.46 L611.879 1267.53 M611.879 1257.44 L616.138 1257.44 L616.138 1262.83 L611.879 1262.83 L611.879 1257.44 Z" fill="#000000" fill-rule="nonzero" fill-opacity="1" /><path clip-path="url(#clip530)" d="M643.707 1268.53 L643.707 1272.51 Q641.902 1271.51 640.073 1271.03 Q638.267 1270.52 636.416 1270.52 Q632.272 1270.52 629.98 1273.16 Q627.689 1275.77 627.689 1280.52 Q627.689 1285.26 629.98 1287.9 Q632.272 1290.52 636.416 1290.52 Q638.267 1290.52 640.073 1290.03 Q641.902 1289.52 643.707 1288.53 L643.707 1292.46 Q641.925 1293.29 640.004 1293.71 Q638.105 1294.13 635.953 1294.13 Q630.096 1294.13 626.647 1290.45 Q623.198 1286.77 623.198 1280.52 Q623.198 1274.17 626.67 1270.54 Q630.166 1266.91 636.23 1266.91 Q638.198 1266.91 640.073 1267.32 Q641.948 1267.72 643.707 1268.53 Z" fill="#000000" fill-rule="nonzero" fill-opacity="1" /><path clip-path="url(#clip530)" d="M655.328 1260.17 L655.328 1267.53 L664.101 1267.53 L664.101 1270.84 L655.328 1270.84 L655.328 1284.91 Q655.328 1288.09 656.184 1288.99 Q657.064 1289.89 659.726 1289.89 L664.101 1289.89 L664.101 1293.46 L659.726 1293.46 Q654.795 1293.46 652.92 1291.63 Q651.045 1289.78 651.045 1284.91 L651.045 1270.84 L647.92 1270.84 L647.92 1267.53 L651.045 1267.53 L651.045 1260.17 L655.328 1260.17 Z" fill="#000000" fill-rule="nonzero" fill-opacity="1" /><path clip-path="url(#clip530)" d="M691.878 1279.43 L691.878 1281.51 L672.295 1281.51 Q672.573 1285.91 674.934 1288.22 Q677.318 1290.52 681.554 1290.52 Q684.008 1290.52 686.3 1289.91 Q688.614 1289.31 690.883 1288.11 L690.883 1292.14 Q688.591 1293.11 686.184 1293.62 Q683.776 1294.13 681.3 1294.13 Q675.096 1294.13 671.462 1290.52 Q667.851 1286.91 667.851 1280.75 Q667.851 1274.38 671.277 1270.66 Q674.726 1266.91 680.559 1266.91 Q685.79 1266.91 688.823 1270.29 Q691.878 1273.64 691.878 1279.43 M687.619 1278.18 Q687.573 1274.68 685.651 1272.6 Q683.753 1270.52 680.605 1270.52 Q677.04 1270.52 674.888 1272.53 Q672.758 1274.54 672.434 1278.2 L687.619 1278.18 Z" fill="#000000" fill-rule="nonzero" fill-opacity="1" /><path clip-path="url(#clip530)" d="M715.929 1271.47 L715.929 1257.44 L720.188 1257.44 L720.188 1293.46 L715.929 1293.46 L715.929 1289.57 Q714.587 1291.88 712.526 1293.02 Q710.489 1294.13 707.619 1294.13 Q702.92 1294.13 699.957 1290.38 Q697.017 1286.63 697.017 1280.52 Q697.017 1274.41 699.957 1270.66 Q702.92 1266.91 707.619 1266.91 Q710.489 1266.91 712.526 1268.04 Q714.587 1269.15 715.929 1271.47 M701.415 1280.52 Q701.415 1285.22 703.337 1287.9 Q705.281 1290.56 708.661 1290.56 Q712.04 1290.56 713.985 1287.9 Q715.929 1285.22 715.929 1280.52 Q715.929 1275.82 713.985 1273.16 Q712.04 1270.47 708.661 1270.47 Q705.281 1270.47 703.337 1273.16 Q701.415 1275.82 701.415 1280.52 Z" fill="#000000" fill-rule="nonzero" fill-opacity="1" /><path clip-path="url(#clip530)" d="M748.892 1262.74 L748.892 1275.72 L754.771 1275.72 Q758.035 1275.72 759.818 1274.04 Q761.6 1272.35 761.6 1269.22 Q761.6 1266.12 759.818 1264.43 Q758.035 1262.74 754.771 1262.74 L748.892 1262.74 M744.216 1258.9 L754.771 1258.9 Q760.582 1258.9 763.545 1261.54 Q766.531 1264.15 766.531 1269.22 Q766.531 1274.34 763.545 1276.95 Q760.582 1279.57 754.771 1279.57 L748.892 1279.57 L748.892 1293.46 L744.216 1293.46 L744.216 1258.9 Z" fill="#000000" fill-rule="nonzero" fill-opacity="1" /><path clip-path="url(#clip530)" d="M780.975 1270.52 Q777.549 1270.52 775.558 1273.2 Q773.568 1275.86 773.568 1280.52 Q773.568 1285.17 775.535 1287.85 Q777.526 1290.52 780.975 1290.52 Q784.378 1290.52 786.369 1287.83 Q788.359 1285.15 788.359 1280.52 Q788.359 1275.91 786.369 1273.22 Q784.378 1270.52 780.975 1270.52 M780.975 1266.91 Q786.531 1266.91 789.702 1270.52 Q792.873 1274.13 792.873 1280.52 Q792.873 1286.88 789.702 1290.52 Q786.531 1294.13 780.975 1294.13 Q775.396 1294.13 772.225 1290.52 Q769.077 1286.88 769.077 1280.52 Q769.077 1274.13 772.225 1270.52 Q775.396 1266.91 780.975 1266.91 Z" fill="#000000" fill-rule="nonzero" fill-opacity="1" /><path clip-path="url(#clip530)" d="M799.933 1267.53 L804.193 1267.53 L804.193 1293.46 L799.933 1293.46 L799.933 1267.53 M799.933 1257.44 L804.193 1257.44 L804.193 1262.83 L799.933 1262.83 L799.933 1257.44 Z" fill="#000000" fill-rule="nonzero" fill-opacity="1" /><path clip-path="url(#clip530)" d="M834.655 1277.81 L834.655 1293.46 L830.396 1293.46 L830.396 1277.95 Q830.396 1274.27 828.961 1272.44 Q827.526 1270.61 824.655 1270.61 Q821.206 1270.61 819.216 1272.81 Q817.225 1275.01 817.225 1278.8 L817.225 1293.46 L812.942 1293.46 L812.942 1267.53 L817.225 1267.53 L817.225 1271.56 Q818.753 1269.22 820.813 1268.06 Q822.896 1266.91 825.604 1266.91 Q830.072 1266.91 832.364 1269.68 Q834.655 1272.44 834.655 1277.81 Z" fill="#000000" fill-rule="nonzero" fill-opacity="1" /><path clip-path="url(#clip530)" d="M847.364 1260.17 L847.364 1267.53 L856.137 1267.53 L856.137 1270.84 L847.364 1270.84 L847.364 1284.91 Q847.364 1288.09 848.22 1288.99 Q849.1 1289.89 851.762 1289.89 L856.137 1289.89 L856.137 1293.46 L851.762 1293.46 Q846.831 1293.46 844.956 1291.63 Q843.081 1289.78 843.081 1284.91 L843.081 1270.84 L839.956 1270.84 L839.956 1267.53 L843.081 1267.53 L843.081 1260.17 L847.364 1260.17 Z" fill="#000000" fill-rule="nonzero" fill-opacity="1" /><path clip-path="url(#clip530)" d="M878.266 1268.29 L878.266 1272.32 Q876.461 1271.4 874.516 1270.93 Q872.572 1270.47 870.488 1270.47 Q867.317 1270.47 865.72 1271.44 Q864.146 1272.41 864.146 1274.36 Q864.146 1275.84 865.28 1276.7 Q866.414 1277.53 869.84 1278.29 L871.299 1278.62 Q875.836 1279.59 877.734 1281.37 Q879.655 1283.13 879.655 1286.3 Q879.655 1289.91 876.785 1292.02 Q873.938 1294.13 868.938 1294.13 Q866.854 1294.13 864.586 1293.71 Q862.34 1293.32 859.84 1292.51 L859.84 1288.11 Q862.201 1289.34 864.493 1289.96 Q866.785 1290.56 869.03 1290.56 Q872.039 1290.56 873.66 1289.54 Q875.28 1288.5 875.28 1286.63 Q875.28 1284.89 874.1 1283.97 Q872.942 1283.04 868.984 1282.18 L867.502 1281.84 Q863.544 1281 861.785 1279.29 Q860.026 1277.55 860.026 1274.54 Q860.026 1270.89 862.618 1268.9 Q865.211 1266.91 869.979 1266.91 Q872.34 1266.91 874.424 1267.25 Q876.507 1267.6 878.266 1268.29 Z" fill="#000000" fill-rule="nonzero" fill-opacity="1" /><polyline clip-path="url(#clip530)" style="stroke:#3da44d; stroke-linecap:round; stroke-linejoin:round; stroke-width:8; stroke-opacity:1; fill:none" points="343.018,1328.02 483.232,1328.02 "/>
<path clip-path="url(#clip530)" d="M522.435 1315.34 L516.092 1332.54 L528.8 1332.54 L522.435 1315.34 M519.796 1310.74 L525.097 1310.74 L538.268 1345.3 L533.407 1345.3 L530.259 1336.43 L514.68 1336.43 L511.532 1345.3 L506.602 1345.3 L519.796 1310.74 Z" fill="#000000" fill-rule="nonzero" fill-opacity="1" /><path clip-path="url(#clip530)" d="M560.953 1320.37 L560.953 1324.35 Q559.148 1323.35 557.319 1322.87 Q555.513 1322.36 553.661 1322.36 Q549.518 1322.36 547.226 1325 Q544.935 1327.61 544.935 1332.36 Q544.935 1337.1 547.226 1339.74 Q549.518 1342.36 553.661 1342.36 Q555.513 1342.36 557.319 1341.87 Q559.148 1341.36 560.953 1340.37 L560.953 1344.3 Q559.171 1345.13 557.249 1345.55 Q555.351 1345.97 553.198 1345.97 Q547.342 1345.97 543.893 1342.29 Q540.444 1338.61 540.444 1332.36 Q540.444 1326.01 543.916 1322.38 Q547.411 1318.75 553.476 1318.75 Q555.444 1318.75 557.319 1319.16 Q559.194 1319.56 560.953 1320.37 Z" fill="#000000" fill-rule="nonzero" fill-opacity="1" /><path clip-path="url(#clip530)" d="M572.573 1312.01 L572.573 1319.37 L581.346 1319.37 L581.346 1322.68 L572.573 1322.68 L572.573 1336.75 Q572.573 1339.93 573.43 1340.83 Q574.309 1341.73 576.971 1341.73 L581.346 1341.73 L581.346 1345.3 L576.971 1345.3 Q572.041 1345.3 570.166 1343.47 Q568.291 1341.62 568.291 1336.75 L568.291 1322.68 L565.166 1322.68 L565.166 1319.37 L568.291 1319.37 L568.291 1312.01 L572.573 1312.01 Z" fill="#000000" fill-rule="nonzero" fill-opacity="1" /><path clip-path="url(#clip530)" d="M586.508 1335.06 L586.508 1319.37 L590.768 1319.37 L590.768 1334.9 Q590.768 1338.58 592.203 1340.44 Q593.638 1342.26 596.508 1342.26 Q599.957 1342.26 601.948 1340.06 Q603.962 1337.87 603.962 1334.07 L603.962 1319.37 L608.221 1319.37 L608.221 1345.3 L603.962 1345.3 L603.962 1341.31 Q602.411 1343.68 600.351 1344.83 Q598.314 1345.97 595.606 1345.97 Q591.138 1345.97 588.823 1343.19 Q586.508 1340.41 586.508 1335.06 M597.226 1318.75 L597.226 1318.75 Z" fill="#000000" fill-rule="nonzero" fill-opacity="1" /><path clip-path="url(#clip530)" d="M628.777 1332.26 Q623.615 1332.26 621.624 1333.44 Q619.633 1334.63 619.633 1337.47 Q619.633 1339.74 621.115 1341.08 Q622.619 1342.4 625.189 1342.4 Q628.73 1342.4 630.86 1339.9 Q633.013 1337.38 633.013 1333.21 L633.013 1332.26 L628.777 1332.26 M637.272 1330.5 L637.272 1345.3 L633.013 1345.3 L633.013 1341.36 Q631.555 1343.72 629.379 1344.86 Q627.203 1345.97 624.055 1345.97 Q620.073 1345.97 617.712 1343.75 Q615.374 1341.5 615.374 1337.75 Q615.374 1333.38 618.291 1331.15 Q621.231 1328.93 627.041 1328.93 L633.013 1328.93 L633.013 1328.51 Q633.013 1325.57 631.068 1323.98 Q629.147 1322.36 625.652 1322.36 Q623.43 1322.36 621.323 1322.89 Q619.217 1323.42 617.272 1324.49 L617.272 1320.55 Q619.61 1319.65 621.809 1319.21 Q624.008 1318.75 626.092 1318.75 Q631.717 1318.75 634.494 1321.66 Q637.272 1324.58 637.272 1330.5 Z" fill="#000000" fill-rule="nonzero" fill-opacity="1" /><path clip-path="url(#clip530)" d="M646.045 1309.28 L650.304 1309.28 L650.304 1345.3 L646.045 1345.3 L646.045 1309.28 Z" fill="#000000" fill-rule="nonzero" fill-opacity="1" /><path clip-path="url(#clip530)" d="M679.147 1314.58 L679.147 1341.45 L684.795 1341.45 Q691.948 1341.45 695.258 1338.21 Q698.591 1334.97 698.591 1327.98 Q698.591 1321.04 695.258 1317.82 Q691.948 1314.58 684.795 1314.58 L679.147 1314.58 M674.471 1310.74 L684.077 1310.74 Q694.124 1310.74 698.823 1314.93 Q703.522 1319.09 703.522 1327.98 Q703.522 1336.92 698.8 1341.11 Q694.077 1345.3 684.077 1345.3 L674.471 1345.3 L674.471 1310.74 Z" fill="#000000" fill-rule="nonzero" fill-opacity="1" /><path clip-path="url(#clip530)" d="M722.573 1332.26 Q717.411 1332.26 715.42 1333.44 Q713.429 1334.63 713.429 1337.47 Q713.429 1339.74 714.911 1341.08 Q716.415 1342.4 718.985 1342.4 Q722.526 1342.4 724.656 1339.9 Q726.809 1337.38 726.809 1333.21 L726.809 1332.26 L722.573 1332.26 M731.068 1330.5 L731.068 1345.3 L726.809 1345.3 L726.809 1341.36 Q725.35 1343.72 723.174 1344.86 Q720.999 1345.97 717.85 1345.97 Q713.869 1345.97 711.508 1343.75 Q709.17 1341.5 709.17 1337.75 Q709.17 1333.38 712.087 1331.15 Q715.026 1328.93 720.836 1328.93 L726.809 1328.93 L726.809 1328.51 Q726.809 1325.57 724.864 1323.98 Q722.943 1322.36 719.448 1322.36 Q717.225 1322.36 715.119 1322.89 Q713.012 1323.42 711.068 1324.49 L711.068 1320.55 Q713.406 1319.65 715.605 1319.21 Q717.804 1318.75 719.887 1318.75 Q725.512 1318.75 728.29 1321.66 Q731.068 1324.58 731.068 1330.5 Z" fill="#000000" fill-rule="nonzero" fill-opacity="1" /><path clip-path="url(#clip530)" d="M744.054 1312.01 L744.054 1319.37 L752.827 1319.37 L752.827 1322.68 L744.054 1322.68 L744.054 1336.75 Q744.054 1339.93 744.91 1340.83 Q745.79 1341.73 748.452 1341.73 L752.827 1341.73 L752.827 1345.3 L748.452 1345.3 Q743.522 1345.3 741.647 1343.47 Q739.772 1341.62 739.772 1336.75 L739.772 1322.68 L736.647 1322.68 L736.647 1319.37 L739.772 1319.37 L739.772 1312.01 L744.054 1312.01 Z" fill="#000000" fill-rule="nonzero" fill-opacity="1" /><path clip-path="url(#clip530)" d="M770.211 1332.26 Q765.049 1332.26 763.058 1333.44 Q761.068 1334.63 761.068 1337.47 Q761.068 1339.74 762.549 1341.08 Q764.054 1342.4 766.623 1342.4 Q770.165 1342.4 772.295 1339.9 Q774.447 1337.38 774.447 1333.21 L774.447 1332.26 L770.211 1332.26 M778.707 1330.5 L778.707 1345.3 L774.447 1345.3 L774.447 1341.36 Q772.989 1343.72 770.813 1344.86 Q768.637 1345.97 765.489 1345.97 Q761.508 1345.97 759.146 1343.75 Q756.808 1341.5 756.808 1337.75 Q756.808 1333.38 759.725 1331.15 Q762.665 1328.93 768.475 1328.93 L774.447 1328.93 L774.447 1328.51 Q774.447 1325.57 772.503 1323.98 Q770.582 1322.36 767.086 1322.36 Q764.864 1322.36 762.758 1322.89 Q760.651 1323.42 758.707 1324.49 L758.707 1320.55 Q761.045 1319.65 763.244 1319.21 Q765.443 1318.75 767.526 1318.75 Q773.151 1318.75 775.929 1321.66 Q778.707 1324.58 778.707 1330.5 Z" fill="#000000" fill-rule="nonzero" fill-opacity="1" /></svg>
