<?xml version="1.0" encoding="utf-8"?>
<svg xmlns="http://www.w3.org/2000/svg" xmlns:xlink="http://www.w3.org/1999/xlink" width="600" height="400" viewBox="0 0 2400 1600">
<defs>
  <clipPath id="clip750">
    <rect x="0" y="0" width="2400" height="1600"/>
  </clipPath>
</defs>
<path clip-path="url(#clip750)" d="M0 1600 L2400 1600 L2400 8.88178e-14 L0 8.88178e-14  Z" fill="#ffffff" fill-rule="evenodd" fill-opacity="1"/>
<defs>
  <clipPath id="clip751">
    <rect x="480" y="0" width="1681" height="1600"/>
  </clipPath>
</defs>
<path clip-path="url(#clip750)" d="M249.542 1423.18 L2352.76 1423.18 L2352.76 123.472 L249.542 123.472  Z" fill="#ffffff" fill-rule="evenodd" fill-opacity="1"/>
<defs>
  <clipPath id="clip752">
    <rect x="249" y="123" width="2104" height="1301"/>
  </clipPath>
</defs>
<polyline clip-path="url(#clip752)" style="stroke:#000000; stroke-linecap:round; stroke-linejoin:round; stroke-width:2; stroke-opacity:0.1; fill:none" points="289.025,1423.18 289.025,123.472 "/>
<polyline clip-path="url(#clip752)" style="stroke:#000000; stroke-linecap:round; stroke-linejoin:round; stroke-width:2; stroke-opacity:0.1; fill:none" points="790.076,1423.18 790.076,123.472 "/>
<polyline clip-path="url(#clip752)" style="stroke:#000000; stroke-linecap:round; stroke-linejoin:round; stroke-width:2; stroke-opacity:0.1; fill:none" points="1291.13,1423.18 1291.13,123.472 "/>
<polyline clip-path="url(#clip752)" style="stroke:#000000; stroke-linecap:round; stroke-linejoin:round; stroke-width:2; stroke-opacity:0.1; fill:none" points="1792.18,1423.18 1792.18,123.472 "/>
<polyline clip-path="url(#clip752)" style="stroke:#000000; stroke-linecap:round; stroke-linejoin:round; stroke-width:2; stroke-opacity:0.1; fill:none" points="2293.23,1423.18 2293.23,123.472 "/>
<polyline clip-path="url(#clip750)" style="stroke:#000000; stroke-linecap:round; stroke-linejoin:round; stroke-width:4; stroke-opacity:1; fill:none" points="249.542,1423.18 2352.76,1423.18 "/>
<polyline clip-path="url(#clip750)" style="stroke:#000000; stroke-linecap:round; stroke-linejoin:round; stroke-width:4; stroke-opacity:1; fill:none" points="289.025,1423.18 289.025,1404.28 "/>
<polyline clip-path="url(#clip750)" style="stroke:#000000; stroke-linecap:round; stroke-linejoin:round; stroke-width:4; stroke-opacity:1; fill:none" points="790.076,1423.18 790.076,1404.28 "/>
<polyline clip-path="url(#clip750)" style="stroke:#000000; stroke-linecap:round; stroke-linejoin:round; stroke-width:4; stroke-opacity:1; fill:none" points="1291.13,1423.18 1291.13,1404.28 "/>
<polyline clip-path="url(#clip750)" style="stroke:#000000; stroke-linecap:round; stroke-linejoin:round; stroke-width:4; stroke-opacity:1; fill:none" points="1792.18,1423.18 1792.18,1404.28 "/>
<polyline clip-path="url(#clip750)" style="stroke:#000000; stroke-linecap:round; stroke-linejoin:round; stroke-width:4; stroke-opacity:1; fill:none" points="2293.23,1423.18 2293.23,1404.28 "/>
<path clip-path="url(#clip750)" d="M289.025 1454.1 Q285.414 1454.1 283.585 1457.66 Q281.78 1461.2 281.78 1468.33 Q281.78 1475.44 283.585 1479.01 Q285.414 1482.55 289.025 1482.55 Q292.659 1482.55 294.465 1479.01 Q296.293 1475.44 296.293 1468.33 Q296.293 1461.2 294.465 1457.66 Q292.659 1454.1 289.025 1454.1 M289.025 1450.39 Q294.835 1450.39 297.891 1455 Q300.969 1459.58 300.969 1468.33 Q300.969 1477.06 297.891 1481.67 Q294.835 1486.25 289.025 1486.25 Q283.215 1486.25 280.136 1481.67 Q277.081 1477.06 277.081 1468.33 Q277.081 1459.58 280.136 1455 Q283.215 1450.39 289.025 1450.39 Z" fill="#000000" fill-rule="nonzero" fill-opacity="1" /><path clip-path="url(#clip750)" d="M769.347 1481.64 L785.667 1481.64 L785.667 1485.58 L763.722 1485.58 L763.722 1481.64 Q766.384 1478.89 770.968 1474.26 Q775.574 1469.61 776.755 1468.27 Q779 1465.74 779.88 1464.01 Q780.782 1462.25 780.782 1460.56 Q780.782 1457.8 778.838 1456.07 Q776.917 1454.33 773.815 1454.33 Q771.616 1454.33 769.162 1455.09 Q766.732 1455.86 763.954 1457.41 L763.954 1452.69 Q766.778 1451.55 769.232 1450.97 Q771.685 1450.39 773.722 1450.39 Q779.093 1450.39 782.287 1453.08 Q785.482 1455.77 785.482 1460.26 Q785.482 1462.39 784.671 1464.31 Q783.884 1466.2 781.778 1468.8 Q781.199 1469.47 778.097 1472.69 Q774.995 1475.88 769.347 1481.64 Z" fill="#000000" fill-rule="nonzero" fill-opacity="1" /><path clip-path="url(#clip750)" d="M795.528 1451.02 L813.884 1451.02 L813.884 1454.96 L799.81 1454.96 L799.81 1463.43 Q800.829 1463.08 801.847 1462.92 Q802.866 1462.73 803.884 1462.73 Q809.671 1462.73 813.051 1465.9 Q816.43 1469.08 816.43 1474.49 Q816.43 1480.07 812.958 1483.17 Q809.486 1486.25 803.167 1486.25 Q800.991 1486.25 798.722 1485.88 Q796.477 1485.51 794.069 1484.77 L794.069 1480.07 Q796.153 1481.2 798.375 1481.76 Q800.597 1482.32 803.074 1482.32 Q807.079 1482.32 809.417 1480.21 Q811.755 1478.1 811.755 1474.49 Q811.755 1470.88 809.417 1468.77 Q807.079 1466.67 803.074 1466.67 Q801.199 1466.67 799.324 1467.08 Q797.472 1467.5 795.528 1468.38 L795.528 1451.02 Z" fill="#000000" fill-rule="nonzero" fill-opacity="1" /><path clip-path="url(#clip750)" d="M1265.83 1451.02 L1284.18 1451.02 L1284.18 1454.96 L1270.11 1454.96 L1270.11 1463.43 Q1271.13 1463.08 1272.15 1462.92 Q1273.17 1462.73 1274.18 1462.73 Q1279.97 1462.73 1283.35 1465.9 Q1286.73 1469.08 1286.73 1474.49 Q1286.73 1480.07 1283.26 1483.17 Q1279.79 1486.25 1273.47 1486.25 Q1271.29 1486.25 1269.02 1485.88 Q1266.78 1485.51 1264.37 1484.77 L1264.37 1480.07 Q1266.45 1481.2 1268.67 1481.76 Q1270.9 1482.32 1273.37 1482.32 Q1277.38 1482.32 1279.72 1480.21 Q1282.05 1478.1 1282.05 1474.49 Q1282.05 1470.88 1279.72 1468.77 Q1277.38 1466.67 1273.37 1466.67 Q1271.5 1466.67 1269.62 1467.08 Q1267.77 1467.5 1265.83 1468.38 L1265.83 1451.02 Z" fill="#000000" fill-rule="nonzero" fill-opacity="1" /><path clip-path="url(#clip750)" d="M1305.94 1454.1 Q1302.33 1454.1 1300.5 1457.66 Q1298.7 1461.2 1298.7 1468.33 Q1298.7 1475.44 1300.5 1479.01 Q1302.33 1482.55 1305.94 1482.55 Q1309.58 1482.55 1311.38 1479.01 Q1313.21 1475.44 1313.21 1468.33 Q1313.21 1461.2 1311.38 1457.66 Q1309.58 1454.1 1305.94 1454.1 M1305.94 1450.39 Q1311.75 1450.39 1314.81 1455 Q1317.89 1459.58 1317.89 1468.33 Q1317.89 1477.06 1314.81 1481.67 Q1311.75 1486.25 1305.94 1486.25 Q1300.13 1486.25 1297.05 1481.67 Q1294 1477.06 1294 1468.33 Q1294 1459.58 1297.05 1455 Q1300.13 1450.39 1305.94 1450.39 Z" fill="#000000" fill-rule="nonzero" fill-opacity="1" /><path clip-path="url(#clip750)" d="M1766.03 1451.02 L1788.26 1451.02 L1788.26 1453.01 L1775.71 1485.58 L1770.83 1485.58 L1782.63 1454.96 L1766.03 1454.96 L1766.03 1451.02 Z" fill="#000000" fill-rule="nonzero" fill-opacity="1" /><path clip-path="url(#clip750)" d="M1797.42 1451.02 L1815.78 1451.02 L1815.78 1454.96 L1801.7 1454.96 L1801.7 1463.43 Q1802.72 1463.08 1803.74 1462.92 Q1804.76 1462.73 1805.78 1462.73 Q1811.57 1462.73 1814.95 1465.9 Q1818.33 1469.08 1818.33 1474.49 Q1818.33 1480.07 1814.85 1483.17 Q1811.38 1486.25 1805.06 1486.25 Q1802.89 1486.25 1800.62 1485.88 Q1798.37 1485.51 1795.96 1484.77 L1795.96 1480.07 Q1798.05 1481.2 1800.27 1481.76 Q1802.49 1482.32 1804.97 1482.32 Q1808.97 1482.32 1811.31 1480.21 Q1813.65 1478.1 1813.65 1474.49 Q1813.65 1470.88 1811.31 1468.77 Q1808.97 1466.67 1804.97 1466.67 Q1803.09 1466.67 1801.22 1467.08 Q1799.37 1467.5 1797.42 1468.38 L1797.42 1451.02 Z" fill="#000000" fill-rule="nonzero" fill-opacity="1" /><path clip-path="url(#clip750)" d="M2252.84 1481.64 L2260.48 1481.64 L2260.48 1455.28 L2252.17 1456.95 L2252.17 1452.69 L2260.43 1451.02 L2265.11 1451.02 L2265.11 1481.64 L2272.74 1481.64 L2272.74 1485.58 L2252.84 1485.58 L2252.84 1481.64 Z" fill="#000000" fill-rule="nonzero" fill-opacity="1" /><path clip-path="url(#clip750)" d="M2292.19 1454.1 Q2288.58 1454.1 2286.75 1457.66 Q2284.94 1461.2 2284.94 1468.33 Q2284.94 1475.44 2286.75 1479.01 Q2288.58 1482.55 2292.19 1482.55 Q2295.82 1482.55 2297.63 1479.01 Q2299.46 1475.44 2299.46 1468.33 Q2299.46 1461.2 2297.63 1457.66 Q2295.82 1454.1 2292.19 1454.1 M2292.19 1450.39 Q2298 1450.39 2301.06 1455 Q2304.13 1459.58 2304.13 1468.33 Q2304.13 1477.06 2301.06 1481.67 Q2298 1486.25 2292.19 1486.25 Q2286.38 1486.25 2283.3 1481.67 Q2280.24 1477.06 2280.24 1468.33 Q2280.24 1459.58 2283.3 1455 Q2286.38 1450.39 2292.19 1450.39 Z" fill="#000000" fill-rule="nonzero" fill-opacity="1" /><path clip-path="url(#clip750)" d="M2322.35 1454.1 Q2318.74 1454.1 2316.91 1457.66 Q2315.11 1461.2 2315.11 1468.33 Q2315.11 1475.44 2316.91 1479.01 Q2318.74 1482.55 2322.35 1482.55 Q2325.99 1482.55 2327.79 1479.01 Q2329.62 1475.44 2329.62 1468.33 Q2329.62 1461.2 2327.79 1457.66 Q2325.99 1454.1 2322.35 1454.1 M2322.35 1450.39 Q2328.16 1450.39 2331.22 1455 Q2334.3 1459.58 2334.3 1468.33 Q2334.3 1477.06 2331.22 1481.67 Q2328.16 1486.25 2322.35 1486.25 Q2316.54 1486.25 2313.46 1481.67 Q2310.41 1477.06 2310.41 1468.33 Q2310.41 1459.58 2313.46 1455 Q2316.54 1450.39 2322.35 1450.39 Z" fill="#000000" fill-rule="nonzero" fill-opacity="1" /><path clip-path="url(#clip750)" d="M1240.31 1522.27 L1240.31 1532.4 L1252.37 1532.4 L1252.37 1536.95 L1240.31 1536.95 L1240.31 1556.3 Q1240.31 1560.66 1241.49 1561.9 Q1242.7 1563.14 1246.36 1563.14 L1252.37 1563.14 L1252.37 1568.04 L1246.36 1568.04 Q1239.58 1568.04 1237 1565.53 Q1234.42 1562.98 1234.42 1556.3 L1234.42 1536.95 L1230.12 1536.95 L1230.12 1532.4 L1234.42 1532.4 L1234.42 1522.27 L1240.31 1522.27 Z" fill="#000000" fill-rule="nonzero" fill-opacity="1" /><path clip-path="url(#clip750)" d="M1260.07 1532.4 L1265.93 1532.4 L1265.93 1568.04 L1260.07 1568.04 L1260.07 1532.4 M1260.07 1518.52 L1265.93 1518.52 L1265.93 1525.93 L1260.07 1525.93 L1260.07 1518.52 Z" fill="#000000" fill-rule="nonzero" fill-opacity="1" /><path clip-path="url(#clip750)" d="M1305.94 1539.24 Q1308.14 1535.29 1311.19 1533.41 Q1314.25 1531.54 1318.38 1531.54 Q1323.95 1531.54 1326.98 1535.45 Q1330 1539.33 1330 1546.53 L1330 1568.04 L1324.11 1568.04 L1324.11 1546.72 Q1324.11 1541.59 1322.3 1539.11 Q1320.48 1536.63 1316.76 1536.63 Q1312.21 1536.63 1309.57 1539.65 Q1306.93 1542.68 1306.93 1547.9 L1306.93 1568.04 L1301.04 1568.04 L1301.04 1546.72 Q1301.04 1541.56 1299.22 1539.11 Q1297.41 1536.63 1293.62 1536.63 Q1289.13 1536.63 1286.49 1539.68 Q1283.85 1542.71 1283.85 1547.9 L1283.85 1568.04 L1277.96 1568.04 L1277.96 1532.4 L1283.85 1532.4 L1283.85 1537.93 Q1285.86 1534.66 1288.66 1533.1 Q1291.46 1531.54 1295.31 1531.54 Q1299.19 1531.54 1301.9 1533.51 Q1304.63 1535.48 1305.94 1539.24 Z" fill="#000000" fill-rule="nonzero" fill-opacity="1" /><path clip-path="url(#clip750)" d="M1372.17 1548.76 L1372.17 1551.62 L1345.25 1551.62 Q1345.63 1557.67 1348.88 1560.85 Q1352.15 1564 1357.98 1564 Q1361.35 1564 1364.5 1563.17 Q1367.69 1562.35 1370.81 1560.69 L1370.81 1566.23 Q1367.65 1567.57 1364.34 1568.27 Q1361.03 1568.97 1357.63 1568.97 Q1349.1 1568.97 1344.1 1564 Q1339.14 1559.04 1339.14 1550.57 Q1339.14 1541.82 1343.85 1536.69 Q1348.59 1531.54 1356.61 1531.54 Q1363.8 1531.54 1367.97 1536.18 Q1372.17 1540.8 1372.17 1548.76 M1366.32 1547.04 Q1366.25 1542.23 1363.61 1539.37 Q1361 1536.5 1356.67 1536.5 Q1351.77 1536.5 1348.81 1539.27 Q1345.88 1542.04 1345.44 1547.07 L1366.32 1547.04 Z" fill="#000000" fill-rule="nonzero" fill-opacity="1" /><polyline clip-path="url(#clip752)" style="stroke:#000000; stroke-linecap:round; stroke-linejoin:round; stroke-width:2; stroke-opacity:0.1; fill:none" points="249.542,1297.7 2352.76,1297.7 "/>
<polyline clip-path="url(#clip752)" style="stroke:#000000; stroke-linecap:round; stroke-linejoin:round; stroke-width:2; stroke-opacity:0.1; fill:none" points="249.542,1062.56 2352.76,1062.56 "/>
<polyline clip-path="url(#clip752)" style="stroke:#000000; stroke-linecap:round; stroke-linejoin:round; stroke-width:2; stroke-opacity:0.1; fill:none" points="249.542,827.41 2352.76,827.41 "/>
<polyline clip-path="url(#clip752)" style="stroke:#000000; stroke-linecap:round; stroke-linejoin:round; stroke-width:2; stroke-opacity:0.1; fill:none" points="249.542,592.263 2352.76,592.263 "/>
<polyline clip-path="url(#clip752)" style="stroke:#000000; stroke-linecap:round; stroke-linejoin:round; stroke-width:2; stroke-opacity:0.1; fill:none" points="249.542,357.117 2352.76,357.117 "/>
<polyline clip-path="url(#clip750)" style="stroke:#000000; stroke-linecap:round; stroke-linejoin:round; stroke-width:4; stroke-opacity:1; fill:none" points="249.542,1423.18 249.542,123.472 "/>
<polyline clip-path="url(#clip750)" style="stroke:#000000; stroke-linecap:round; stroke-linejoin:round; stroke-width:4; stroke-opacity:1; fill:none" points="249.542,1297.7 268.44,1297.7 "/>
<polyline clip-path="url(#clip750)" style="stroke:#000000; stroke-linecap:round; stroke-linejoin:round; stroke-width:4; stroke-opacity:1; fill:none" points="249.542,1062.56 268.44,1062.56 "/>
<polyline clip-path="url(#clip750)" style="stroke:#000000; stroke-linecap:round; stroke-linejoin:round; stroke-width:4; stroke-opacity:1; fill:none" points="249.542,827.41 268.44,827.41 "/>
<polyline clip-path="url(#clip750)" style="stroke:#000000; stroke-linecap:round; stroke-linejoin:round; stroke-width:4; stroke-opacity:1; fill:none" points="249.542,592.263 268.44,592.263 "/>
<polyline clip-path="url(#clip750)" style="stroke:#000000; stroke-linecap:round; stroke-linejoin:round; stroke-width:4; stroke-opacity:1; fill:none" points="249.542,357.117 268.44,357.117 "/>
<path clip-path="url(#clip750)" d="M126.205 1283.5 Q122.593 1283.5 120.765 1287.07 Q118.959 1290.61 118.959 1297.74 Q118.959 1304.84 120.765 1308.41 Q122.593 1311.95 126.205 1311.95 Q129.839 1311.95 131.644 1308.41 Q133.473 1304.84 133.473 1297.74 Q133.473 1290.61 131.644 1287.07 Q129.839 1283.5 126.205 1283.5 M126.205 1279.8 Q132.015 1279.8 135.07 1284.4 Q138.149 1288.99 138.149 1297.74 Q138.149 1306.46 135.07 1311.07 Q132.015 1315.65 126.205 1315.65 Q120.394 1315.65 117.316 1311.07 Q114.26 1306.46 114.26 1297.74 Q114.26 1288.99 117.316 1284.4 Q120.394 1279.8 126.205 1279.8 Z" fill="#000000" fill-rule="nonzero" fill-opacity="1" /><path clip-path="url(#clip750)" d="M146.366 1309.1 L151.251 1309.1 L151.251 1314.98 L146.366 1314.98 L146.366 1309.1 Z" fill="#000000" fill-rule="nonzero" fill-opacity="1" /><path clip-path="url(#clip750)" d="M171.436 1283.5 Q167.825 1283.5 165.996 1287.07 Q164.19 1290.61 164.19 1297.74 Q164.19 1304.84 165.996 1308.41 Q167.825 1311.95 171.436 1311.95 Q175.07 1311.95 176.876 1308.41 Q178.704 1304.84 178.704 1297.74 Q178.704 1290.61 176.876 1287.07 Q175.07 1283.5 171.436 1283.5 M171.436 1279.8 Q177.246 1279.8 180.301 1284.4 Q183.38 1288.99 183.38 1297.74 Q183.38 1306.46 180.301 1311.07 Q177.246 1315.65 171.436 1315.65 Q165.626 1315.65 162.547 1311.07 Q159.491 1306.46 159.491 1297.74 Q159.491 1288.99 162.547 1284.4 Q165.626 1279.8 171.436 1279.8 Z" fill="#000000" fill-rule="nonzero" fill-opacity="1" /><path clip-path="url(#clip750)" d="M201.598 1283.5 Q197.987 1283.5 196.158 1287.07 Q194.352 1290.61 194.352 1297.74 Q194.352 1304.84 196.158 1308.41 Q197.987 1311.95 201.598 1311.95 Q205.232 1311.95 207.037 1308.41 Q208.866 1304.84 208.866 1297.74 Q208.866 1290.61 207.037 1287.07 Q205.232 1283.5 201.598 1283.5 M201.598 1279.8 Q207.408 1279.8 210.463 1284.4 Q213.542 1288.99 213.542 1297.74 Q213.542 1306.46 210.463 1311.07 Q207.408 1315.65 201.598 1315.65 Q195.787 1315.65 192.709 1311.07 Q189.653 1306.46 189.653 1297.74 Q189.653 1288.99 192.709 1284.4 Q195.787 1279.8 201.598 1279.8 Z" fill="#000000" fill-rule="nonzero" fill-opacity="1" /><path clip-path="url(#clip750)" d="M127.2 1048.35 Q123.589 1048.35 121.76 1051.92 Q119.955 1055.46 119.955 1062.59 Q119.955 1069.7 121.76 1073.26 Q123.589 1076.8 127.2 1076.8 Q130.834 1076.8 132.64 1073.26 Q134.468 1069.7 134.468 1062.59 Q134.468 1055.46 132.64 1051.92 Q130.834 1048.35 127.2 1048.35 M127.2 1044.65 Q133.01 1044.65 136.066 1049.26 Q139.144 1053.84 139.144 1062.59 Q139.144 1071.32 136.066 1075.92 Q133.01 1080.51 127.2 1080.51 Q121.39 1080.51 118.311 1075.92 Q115.256 1071.32 115.256 1062.59 Q115.256 1053.84 118.311 1049.26 Q121.39 1044.65 127.2 1044.65 Z" fill="#000000" fill-rule="nonzero" fill-opacity="1" /><path clip-path="url(#clip750)" d="M147.362 1073.96 L152.246 1073.96 L152.246 1079.84 L147.362 1079.84 L147.362 1073.96 Z" fill="#000000" fill-rule="nonzero" fill-opacity="1" /><path clip-path="url(#clip750)" d="M166.459 1075.9 L182.778 1075.9 L182.778 1079.84 L160.834 1079.84 L160.834 1075.9 Q163.496 1073.15 168.079 1068.52 Q172.686 1063.86 173.866 1062.52 Q176.112 1060 176.991 1058.26 Q177.894 1056.5 177.894 1054.81 Q177.894 1052.06 175.95 1050.32 Q174.028 1048.59 170.927 1048.59 Q168.727 1048.59 166.274 1049.35 Q163.843 1050.11 161.065 1051.66 L161.065 1046.94 Q163.89 1045.81 166.343 1045.23 Q168.797 1044.65 170.834 1044.65 Q176.204 1044.65 179.399 1047.34 Q182.593 1050.02 182.593 1054.51 Q182.593 1056.64 181.783 1058.56 Q180.996 1060.46 178.889 1063.05 Q178.311 1063.73 175.209 1066.94 Q172.107 1070.14 166.459 1075.9 Z" fill="#000000" fill-rule="nonzero" fill-opacity="1" /><path clip-path="url(#clip750)" d="M192.639 1045.28 L210.996 1045.28 L210.996 1049.21 L196.922 1049.21 L196.922 1057.68 Q197.94 1057.34 198.959 1057.17 Q199.977 1056.99 200.996 1056.99 Q206.783 1056.99 210.162 1060.16 Q213.542 1063.33 213.542 1068.75 Q213.542 1074.33 210.07 1077.43 Q206.598 1080.51 200.278 1080.51 Q198.102 1080.51 195.834 1080.14 Q193.588 1079.77 191.181 1079.03 L191.181 1074.33 Q193.264 1075.46 195.487 1076.02 Q197.709 1076.57 200.186 1076.57 Q204.19 1076.57 206.528 1074.47 Q208.866 1072.36 208.866 1068.75 Q208.866 1065.14 206.528 1063.03 Q204.19 1060.92 200.186 1060.92 Q198.311 1060.92 196.436 1061.34 Q194.584 1061.76 192.639 1062.64 L192.639 1045.28 Z" fill="#000000" fill-rule="nonzero" fill-opacity="1" /><path clip-path="url(#clip750)" d="M126.205 813.208 Q122.593 813.208 120.765 816.773 Q118.959 820.315 118.959 827.444 Q118.959 834.551 120.765 838.116 Q122.593 841.657 126.205 841.657 Q129.839 841.657 131.644 838.116 Q133.473 834.551 133.473 827.444 Q133.473 820.315 131.644 816.773 Q129.839 813.208 126.205 813.208 M126.205 809.505 Q132.015 809.505 135.07 814.111 Q138.149 818.694 138.149 827.444 Q138.149 836.171 135.07 840.778 Q132.015 845.361 126.205 845.361 Q120.394 845.361 117.316 840.778 Q114.26 836.171 114.26 827.444 Q114.26 818.694 117.316 814.111 Q120.394 809.505 126.205 809.505 Z" fill="#000000" fill-rule="nonzero" fill-opacity="1" /><path clip-path="url(#clip750)" d="M146.366 838.81 L151.251 838.81 L151.251 844.69 L146.366 844.69 L146.366 838.81 Z" fill="#000000" fill-rule="nonzero" fill-opacity="1" /><path clip-path="url(#clip750)" d="M161.482 810.13 L179.839 810.13 L179.839 814.065 L165.765 814.065 L165.765 822.537 Q166.783 822.19 167.802 822.028 Q168.82 821.843 169.839 821.843 Q175.626 821.843 179.005 825.014 Q182.385 828.185 182.385 833.602 Q182.385 839.18 178.913 842.282 Q175.44 845.361 169.121 845.361 Q166.945 845.361 164.677 844.991 Q162.431 844.62 160.024 843.879 L160.024 839.18 Q162.107 840.315 164.329 840.87 Q166.552 841.426 169.028 841.426 Q173.033 841.426 175.371 839.319 Q177.709 837.213 177.709 833.602 Q177.709 829.991 175.371 827.884 Q173.033 825.778 169.028 825.778 Q167.153 825.778 165.278 826.194 Q163.427 826.611 161.482 827.491 L161.482 810.13 Z" fill="#000000" fill-rule="nonzero" fill-opacity="1" /><path clip-path="url(#clip750)" d="M201.598 813.208 Q197.987 813.208 196.158 816.773 Q194.352 820.315 194.352 827.444 Q194.352 834.551 196.158 838.116 Q197.987 841.657 201.598 841.657 Q205.232 841.657 207.037 838.116 Q208.866 834.551 208.866 827.444 Q208.866 820.315 207.037 816.773 Q205.232 813.208 201.598 813.208 M201.598 809.505 Q207.408 809.505 210.463 814.111 Q213.542 818.694 213.542 827.444 Q213.542 836.171 210.463 840.778 Q207.408 845.361 201.598 845.361 Q195.787 845.361 192.709 840.778 Q189.653 836.171 189.653 827.444 Q189.653 818.694 192.709 814.111 Q195.787 809.505 201.598 809.505 Z" fill="#000000" fill-rule="nonzero" fill-opacity="1" /><path clip-path="url(#clip750)" d="M127.2 578.062 Q123.589 578.062 121.76 581.627 Q119.955 585.168 119.955 592.298 Q119.955 599.404 121.76 602.969 Q123.589 606.511 127.2 606.511 Q130.834 606.511 132.64 602.969 Q134.468 599.404 134.468 592.298 Q134.468 585.168 132.64 581.627 Q130.834 578.062 127.2 578.062 M127.2 574.358 Q133.01 574.358 136.066 578.965 Q139.144 583.548 139.144 592.298 Q139.144 601.025 136.066 605.631 Q133.01 610.215 127.2 610.215 Q121.39 610.215 118.311 605.631 Q115.256 601.025 115.256 592.298 Q115.256 583.548 118.311 578.965 Q121.39 574.358 127.2 574.358 Z" fill="#000000" fill-rule="nonzero" fill-opacity="1" /><path clip-path="url(#clip750)" d="M147.362 603.664 L152.246 603.664 L152.246 609.543 L147.362 609.543 L147.362 603.664 Z" fill="#000000" fill-rule="nonzero" fill-opacity="1" /><path clip-path="url(#clip750)" d="M161.251 574.983 L183.473 574.983 L183.473 576.974 L170.927 609.543 L166.042 609.543 L177.848 578.918 L161.251 578.918 L161.251 574.983 Z" fill="#000000" fill-rule="nonzero" fill-opacity="1" /><path clip-path="url(#clip750)" d="M192.639 574.983 L210.996 574.983 L210.996 578.918 L196.922 578.918 L196.922 587.391 Q197.94 587.043 198.959 586.881 Q199.977 586.696 200.996 586.696 Q206.783 586.696 210.162 589.867 Q213.542 593.039 213.542 598.455 Q213.542 604.034 210.07 607.136 Q206.598 610.215 200.278 610.215 Q198.102 610.215 195.834 609.844 Q193.588 609.474 191.181 608.733 L191.181 604.034 Q193.264 605.168 195.487 605.724 Q197.709 606.279 200.186 606.279 Q204.19 606.279 206.528 604.173 Q208.866 602.066 208.866 598.455 Q208.866 594.844 206.528 592.738 Q204.19 590.631 200.186 590.631 Q198.311 590.631 196.436 591.048 Q194.584 591.465 192.639 592.344 L192.639 574.983 Z" fill="#000000" fill-rule="nonzero" fill-opacity="1" /><path clip-path="url(#clip750)" d="M117.015 370.462 L124.654 370.462 L124.654 344.096 L116.343 345.763 L116.343 341.503 L124.607 339.837 L129.283 339.837 L129.283 370.462 L136.922 370.462 L136.922 374.397 L117.015 374.397 L117.015 370.462 Z" fill="#000000" fill-rule="nonzero" fill-opacity="1" /><path clip-path="url(#clip750)" d="M146.366 368.517 L151.251 368.517 L151.251 374.397 L146.366 374.397 L146.366 368.517 Z" fill="#000000" fill-rule="nonzero" fill-opacity="1" /><path clip-path="url(#clip750)" d="M171.436 342.915 Q167.825 342.915 165.996 346.48 Q164.19 350.022 164.19 357.152 Q164.19 364.258 165.996 367.823 Q167.825 371.364 171.436 371.364 Q175.07 371.364 176.876 367.823 Q178.704 364.258 178.704 357.152 Q178.704 350.022 176.876 346.48 Q175.07 342.915 171.436 342.915 M171.436 339.212 Q177.246 339.212 180.301 343.818 Q183.38 348.402 183.38 357.152 Q183.38 365.878 180.301 370.485 Q177.246 375.068 171.436 375.068 Q165.626 375.068 162.547 370.485 Q159.491 365.878 159.491 357.152 Q159.491 348.402 162.547 343.818 Q165.626 339.212 171.436 339.212 Z" fill="#000000" fill-rule="nonzero" fill-opacity="1" /><path clip-path="url(#clip750)" d="M201.598 342.915 Q197.987 342.915 196.158 346.48 Q194.352 350.022 194.352 357.152 Q194.352 364.258 196.158 367.823 Q197.987 371.364 201.598 371.364 Q205.232 371.364 207.037 367.823 Q208.866 364.258 208.866 357.152 Q208.866 350.022 207.037 346.48 Q205.232 342.915 201.598 342.915 M201.598 339.212 Q207.408 339.212 210.463 343.818 Q213.542 348.402 213.542 357.152 Q213.542 365.878 210.463 370.485 Q207.408 375.068 201.598 375.068 Q195.787 375.068 192.709 370.485 Q189.653 365.878 189.653 357.152 Q189.653 348.402 192.709 343.818 Q195.787 339.212 201.598 339.212 Z" fill="#000000" fill-rule="nonzero" fill-opacity="1" /><path clip-path="url(#clip750)" d="M28.3562 756.711 L45.7028 769.602 L64.0042 756.043 L64.0042 762.95 L49.9996 773.326 L64.0042 783.702 L64.0042 790.609 L45.3526 776.763 L28.3562 789.431 L28.3562 782.524 L41.0558 773.071 L28.3562 763.618 L28.3562 756.711 Z" fill="#000000" fill-rule="nonzero" fill-opacity="1" /><path clip-path="url(#clip750)" d="M232.217 12.096 L283.38 12.096 L283.38 18.9825 L261.91 18.9825 L261.91 72.576 L253.686 72.576 L253.686 18.9825 L232.217 18.9825 L232.217 12.096 Z" fill="#000000" fill-rule="nonzero" fill-opacity="1" /><path clip-path="url(#clip750)" d="M305.052 34.1734 Q303.796 33.4443 302.297 33.1202 Q300.839 32.7556 299.057 32.7556 Q292.737 32.7556 289.334 36.8875 Q285.972 40.9789 285.972 48.6757 L285.972 72.576 L278.478 72.576 L278.478 27.2059 L285.972 27.2059 L285.972 34.2544 Q288.322 30.1225 292.089 28.1376 Q295.856 26.1121 301.244 26.1121 Q302.014 26.1121 302.945 26.2337 Q303.877 26.3147 305.011 26.5172 L305.052 34.1734 Z" fill="#000000" fill-rule="nonzero" fill-opacity="1" /><path clip-path="url(#clip750)" d="M333.489 49.7694 Q324.456 49.7694 320.972 51.8354 Q317.488 53.9013 317.488 58.8839 Q317.488 62.8538 320.081 65.2034 Q322.714 67.5124 327.21 67.5124 Q333.408 67.5124 337.135 63.1374 Q340.902 58.7219 340.902 51.4303 L340.902 49.7694 L333.489 49.7694 M348.356 46.6907 L348.356 72.576 L340.902 72.576 L340.902 65.6895 Q338.35 69.8214 334.542 71.8063 Q330.735 73.7508 325.225 73.7508 Q318.258 73.7508 314.126 69.8619 Q310.034 65.9325 310.034 59.3701 Q310.034 51.7138 315.139 47.825 Q320.283 43.9361 330.451 43.9361 L340.902 43.9361 L340.902 43.2069 Q340.902 38.0623 337.5 35.2672 Q334.137 32.4315 328.021 32.4315 Q324.132 32.4315 320.445 33.3632 Q316.759 34.295 313.356 36.1584 L313.356 29.2718 Q317.448 27.692 321.296 26.9223 Q325.144 26.1121 328.79 26.1121 Q338.634 26.1121 343.495 31.2163 Q348.356 36.3204 348.356 46.6907 Z" fill="#000000" fill-rule="nonzero" fill-opacity="1" /><path clip-path="url(#clip750)" d="M363.709 27.2059 L371.163 27.2059 L371.163 72.576 L363.709 72.576 L363.709 27.2059 M363.709 9.54393 L371.163 9.54393 L371.163 18.9825 L363.709 18.9825 L363.709 9.54393 Z" fill="#000000" fill-rule="nonzero" fill-opacity="1" /><path clip-path="url(#clip750)" d="M424.473 45.1919 L424.473 72.576 L417.019 72.576 L417.019 45.4349 Q417.019 38.994 414.507 35.7938 Q411.996 32.5936 406.973 32.5936 Q400.937 32.5936 397.453 36.4419 Q393.969 40.2903 393.969 46.9338 L393.969 72.576 L386.475 72.576 L386.475 27.2059 L393.969 27.2059 L393.969 34.2544 Q396.643 30.163 400.248 28.1376 Q403.894 26.1121 408.633 26.1121 Q416.452 26.1121 420.462 30.9732 Q424.473 35.7938 424.473 45.1919 Z" fill="#000000" fill-rule="nonzero" fill-opacity="1" /><path clip-path="url(#clip750)" d="M439.339 27.2059 L446.793 27.2059 L446.793 72.576 L439.339 72.576 L439.339 27.2059 M439.339 9.54393 L446.793 9.54393 L446.793 18.9825 L439.339 18.9825 L439.339 9.54393 Z" fill="#000000" fill-rule="nonzero" fill-opacity="1" /><path clip-path="url(#clip750)" d="M500.103 45.1919 L500.103 72.576 L492.649 72.576 L492.649 45.4349 Q492.649 38.994 490.138 35.7938 Q487.626 32.5936 482.603 32.5936 Q476.567 32.5936 473.083 36.4419 Q469.6 40.2903 469.6 46.9338 L469.6 72.576 L462.105 72.576 L462.105 27.2059 L469.6 27.2059 L469.6 34.2544 Q472.273 30.163 475.879 28.1376 Q479.524 26.1121 484.264 26.1121 Q492.082 26.1121 496.093 30.9732 Q500.103 35.7938 500.103 45.1919 Z" fill="#000000" fill-rule="nonzero" fill-opacity="1" /><path clip-path="url(#clip750)" d="M544.825 49.3643 Q544.825 41.2625 541.463 36.8065 Q538.141 32.3505 532.105 32.3505 Q526.11 32.3505 522.747 36.8065 Q519.426 41.2625 519.426 49.3643 Q519.426 57.4256 522.747 61.8816 Q526.11 66.3376 532.105 66.3376 Q538.141 66.3376 541.463 61.8816 Q544.825 57.4256 544.825 49.3643 M552.279 66.9452 Q552.279 78.5308 547.134 84.1616 Q541.989 89.8329 531.376 89.8329 Q527.447 89.8329 523.963 89.2252 Q520.479 88.6581 517.198 87.4428 L517.198 80.1917 Q520.479 81.9741 523.679 82.8248 Q526.879 83.6755 530.201 83.6755 Q537.533 83.6755 541.179 79.8271 Q544.825 76.0193 544.825 68.282 L544.825 64.5957 Q542.516 68.6061 538.911 70.5911 Q535.305 72.576 530.282 72.576 Q521.937 72.576 516.833 66.2161 Q511.729 59.8562 511.729 49.3643 Q511.729 38.832 516.833 32.472 Q521.937 26.1121 530.282 26.1121 Q535.305 26.1121 538.911 28.0971 Q542.516 30.082 544.825 34.0924 L544.825 27.2059 L552.279 27.2059 L552.279 66.9452 Z" fill="#000000" fill-rule="nonzero" fill-opacity="1" /><path clip-path="url(#clip750)" d="M630.583 14.0809 L630.583 22.0612 Q625.924 19.8332 621.792 18.7395 Q617.66 17.6457 613.812 17.6457 Q607.128 17.6457 603.482 20.2383 Q599.877 22.8309 599.877 27.611 Q599.877 31.6214 602.267 33.6873 Q604.697 35.7128 611.422 36.9686 L616.364 37.9813 Q625.519 39.7232 629.853 44.1387 Q634.228 48.5136 634.228 55.8863 Q634.228 64.6767 628.314 69.2137 Q622.44 73.7508 611.057 73.7508 Q606.763 73.7508 601.902 72.7785 Q597.082 71.8063 591.896 69.9024 L591.896 61.4765 Q596.879 64.2716 601.659 65.6895 Q606.439 67.1073 611.057 67.1073 Q618.065 67.1073 621.873 64.3527 Q625.681 61.598 625.681 56.4939 Q625.681 52.0379 622.926 49.5264 Q620.212 47.0148 613.974 45.759 L608.991 44.7868 Q599.836 42.9639 595.745 39.075 Q591.653 35.1862 591.653 28.2591 Q591.653 20.2383 597.284 15.6203 Q602.955 11.0023 612.88 11.0023 Q617.134 11.0023 621.549 11.7719 Q625.965 12.5416 630.583 14.0809 Z" fill="#000000" fill-rule="nonzero" fill-opacity="1" /><path clip-path="url(#clip750)" d="M667.284 49.7694 Q658.25 49.7694 654.766 51.8354 Q651.283 53.9013 651.283 58.8839 Q651.283 62.8538 653.875 65.2034 Q656.508 67.5124 661.005 67.5124 Q667.203 67.5124 670.93 63.1374 Q674.697 58.7219 674.697 51.4303 L674.697 49.7694 L667.284 49.7694 M682.151 46.6907 L682.151 72.576 L674.697 72.576 L674.697 65.6895 Q672.145 69.8214 668.337 71.8063 Q664.529 73.7508 659.02 73.7508 Q652.052 73.7508 647.92 69.8619 Q643.829 65.9325 643.829 59.3701 Q643.829 51.7138 648.933 47.825 Q654.078 43.9361 664.246 43.9361 L674.697 43.9361 L674.697 43.2069 Q674.697 38.0623 671.294 35.2672 Q667.932 32.4315 661.815 32.4315 Q657.926 32.4315 654.24 33.3632 Q650.553 34.295 647.151 36.1584 L647.151 29.2718 Q651.242 27.692 655.091 26.9223 Q658.939 26.1121 662.585 26.1121 Q672.428 26.1121 677.289 31.2163 Q682.151 36.3204 682.151 46.6907 Z" fill="#000000" fill-rule="nonzero" fill-opacity="1" /><path clip-path="url(#clip750)" d="M732.827 35.9153 Q735.622 30.8922 739.511 28.5022 Q743.4 26.1121 748.666 26.1121 Q755.755 26.1121 759.604 31.0947 Q763.452 36.0368 763.452 45.1919 L763.452 72.576 L755.958 72.576 L755.958 45.4349 Q755.958 38.913 753.649 35.7533 Q751.34 32.5936 746.6 32.5936 Q740.808 32.5936 737.445 36.4419 Q734.083 40.2903 734.083 46.9338 L734.083 72.576 L726.589 72.576 L726.589 45.4349 Q726.589 38.8725 724.28 35.7533 Q721.971 32.5936 717.15 32.5936 Q711.439 32.5936 708.076 36.4824 Q704.714 40.3308 704.714 46.9338 L704.714 72.576 L697.22 72.576 L697.22 27.2059 L704.714 27.2059 L704.714 34.2544 Q707.266 30.082 710.831 28.0971 Q714.396 26.1121 719.297 26.1121 Q724.239 26.1121 727.683 28.6237 Q731.166 31.1352 732.827 35.9153 Z" fill="#000000" fill-rule="nonzero" fill-opacity="1" /><path clip-path="url(#clip750)" d="M785.53 65.7705 L785.53 89.8329 L778.035 89.8329 L778.035 27.2059 L785.53 27.2059 L785.53 34.0924 Q787.879 30.0415 791.444 28.0971 Q795.049 26.1121 800.032 26.1121 Q808.296 26.1121 813.44 32.6746 Q818.626 39.2371 818.626 49.9314 Q818.626 60.6258 813.44 67.1883 Q808.296 73.7508 800.032 73.7508 Q795.049 73.7508 791.444 71.8063 Q787.879 69.8214 785.53 65.7705 M810.888 49.9314 Q810.888 41.7081 807.486 37.0496 Q804.123 32.3505 798.209 32.3505 Q792.295 32.3505 788.892 37.0496 Q785.53 41.7081 785.53 49.9314 Q785.53 58.1548 788.892 62.8538 Q792.295 67.5124 798.209 67.5124 Q804.123 67.5124 807.486 62.8538 Q810.888 58.1548 810.888 49.9314 Z" fill="#000000" fill-rule="nonzero" fill-opacity="1" /><path clip-path="url(#clip750)" d="M830.981 9.54393 L838.434 9.54393 L838.434 72.576 L830.981 72.576 L830.981 9.54393 Z" fill="#000000" fill-rule="nonzero" fill-opacity="1" /><path clip-path="url(#clip750)" d="M892.838 48.0275 L892.838 51.6733 L858.567 51.6733 Q859.054 59.3701 863.185 63.421 Q867.358 67.4314 874.771 67.4314 Q879.065 67.4314 883.075 66.3781 Q887.126 65.3249 891.096 63.2184 L891.096 70.267 Q887.086 71.9684 882.873 72.8596 Q878.66 73.7508 874.325 73.7508 Q863.469 73.7508 857.109 67.4314 Q850.79 61.1119 850.79 50.3365 Q850.79 39.1965 856.785 32.6746 Q862.821 26.1121 873.029 26.1121 Q882.184 26.1121 887.491 32.0264 Q892.838 37.9003 892.838 48.0275 M885.384 45.84 Q885.303 39.7232 881.941 36.0774 Q878.619 32.4315 873.11 32.4315 Q866.872 32.4315 863.104 35.9558 Q859.378 39.4801 858.81 45.8805 L885.384 45.84 Z" fill="#000000" fill-rule="nonzero" fill-opacity="1" /><path clip-path="url(#clip750)" d="M933.914 65.6895 L947.282 65.6895 L947.282 19.5497 L932.739 22.4663 L932.739 15.0127 L947.201 12.096 L955.384 12.096 L955.384 65.6895 L968.752 65.6895 L968.752 72.576 L933.914 72.576 L933.914 65.6895 Z" fill="#000000" fill-rule="nonzero" fill-opacity="1" /><path clip-path="url(#clip750)" d="M986.13 62.2867 L994.678 62.2867 L994.678 69.2543 L988.034 82.2172 L982.809 82.2172 L986.13 69.2543 L986.13 62.2867 Z" fill="#000000" fill-rule="nonzero" fill-opacity="1" /><path clip-path="url(#clip750)" d="M1039.44 65.6895 L1052.81 65.6895 L1052.81 19.5497 L1038.27 22.4663 L1038.27 15.0127 L1052.73 12.096 L1060.91 12.096 L1060.91 65.6895 L1074.28 65.6895 L1074.28 72.576 L1039.44 72.576 L1039.44 65.6895 Z" fill="#000000" fill-rule="nonzero" fill-opacity="1" /><path clip-path="url(#clip750)" d="M1108.31 17.4837 Q1101.99 17.4837 1098.79 23.7221 Q1095.63 29.92 1095.63 42.3968 Q1095.63 54.833 1098.79 61.0714 Q1101.99 67.2693 1108.31 67.2693 Q1114.67 67.2693 1117.83 61.0714 Q1121.03 54.833 1121.03 42.3968 Q1121.03 29.92 1117.83 23.7221 Q1114.67 17.4837 1108.31 17.4837 M1108.31 11.0023 Q1118.47 11.0023 1123.82 19.0636 Q1129.21 27.0843 1129.21 42.3968 Q1129.21 57.6687 1123.82 65.73 Q1118.47 73.7508 1108.31 73.7508 Q1098.14 73.7508 1092.75 65.73 Q1087.4 57.6687 1087.4 42.3968 Q1087.4 27.0843 1092.75 19.0636 Q1098.14 11.0023 1108.31 11.0023 Z" fill="#000000" fill-rule="nonzero" fill-opacity="1" /><path clip-path="url(#clip750)" d="M1161.09 17.4837 Q1154.77 17.4837 1151.57 23.7221 Q1148.41 29.92 1148.41 42.3968 Q1148.41 54.833 1151.57 61.0714 Q1154.77 67.2693 1161.09 67.2693 Q1167.45 67.2693 1170.61 61.0714 Q1173.81 54.833 1173.81 42.3968 Q1173.81 29.92 1170.61 23.7221 Q1167.45 17.4837 1161.09 17.4837 M1161.09 11.0023 Q1171.26 11.0023 1176.6 19.0636 Q1181.99 27.0843 1181.99 42.3968 Q1181.99 57.6687 1176.6 65.73 Q1171.26 73.7508 1161.09 73.7508 Q1150.92 73.7508 1145.53 65.73 Q1140.19 57.6687 1140.19 42.3968 Q1140.19 27.0843 1145.53 19.0636 Q1150.92 11.0023 1161.09 11.0023 Z" fill="#000000" fill-rule="nonzero" fill-opacity="1" /><path clip-path="url(#clip750)" d="M1213.87 17.4837 Q1207.55 17.4837 1204.35 23.7221 Q1201.19 29.92 1201.19 42.3968 Q1201.19 54.833 1204.35 61.0714 Q1207.55 67.2693 1213.87 67.2693 Q1220.23 67.2693 1223.39 61.0714 Q1226.59 54.833 1226.59 42.3968 Q1226.59 29.92 1223.39 23.7221 Q1220.23 17.4837 1213.87 17.4837 M1213.87 11.0023 Q1224.04 11.0023 1229.39 19.0636 Q1234.77 27.0843 1234.77 42.3968 Q1234.77 57.6687 1229.39 65.73 Q1224.04 73.7508 1213.87 73.7508 Q1203.7 73.7508 1198.32 65.73 Q1192.97 57.6687 1192.97 42.3968 Q1192.97 27.0843 1198.32 19.0636 Q1203.7 11.0023 1213.87 11.0023 Z" fill="#000000" fill-rule="nonzero" fill-opacity="1" /><path clip-path="url(#clip750)" d="M1311.05 14.0809 L1311.05 22.0612 Q1306.39 19.8332 1302.26 18.7395 Q1298.13 17.6457 1294.28 17.6457 Q1287.6 17.6457 1283.95 20.2383 Q1280.35 22.8309 1280.35 27.611 Q1280.35 31.6214 1282.74 33.6873 Q1285.17 35.7128 1291.89 36.9686 L1296.83 37.9813 Q1305.99 39.7232 1310.32 44.1387 Q1314.7 48.5136 1314.7 55.8863 Q1314.7 64.6767 1308.78 69.2137 Q1302.91 73.7508 1291.53 73.7508 Q1287.23 73.7508 1282.37 72.7785 Q1277.55 71.8063 1272.37 69.9024 L1272.37 61.4765 Q1277.35 64.2716 1282.13 65.6895 Q1286.91 67.1073 1291.53 67.1073 Q1298.54 67.1073 1302.34 64.3527 Q1306.15 61.598 1306.15 56.4939 Q1306.15 52.0379 1303.4 49.5264 Q1300.68 47.0148 1294.44 45.759 L1289.46 44.7868 Q1280.31 42.9639 1276.22 39.075 Q1272.12 35.1862 1272.12 28.2591 Q1272.12 20.2383 1277.75 15.6203 Q1283.43 11.0023 1293.35 11.0023 Q1297.6 11.0023 1302.02 11.7719 Q1306.44 12.5416 1311.05 14.0809 Z" fill="#000000" fill-rule="nonzero" fill-opacity="1" /><path clip-path="url(#clip750)" d="M1347.75 49.7694 Q1338.72 49.7694 1335.24 51.8354 Q1331.75 53.9013 1331.75 58.8839 Q1331.75 62.8538 1334.35 65.2034 Q1336.98 67.5124 1341.48 67.5124 Q1347.67 67.5124 1351.4 63.1374 Q1355.17 58.7219 1355.17 51.4303 L1355.17 49.7694 L1347.75 49.7694 M1362.62 46.6907 L1362.62 72.576 L1355.17 72.576 L1355.17 65.6895 Q1352.62 69.8214 1348.81 71.8063 Q1345 73.7508 1339.49 73.7508 Q1332.52 73.7508 1328.39 69.8619 Q1324.3 65.9325 1324.3 59.3701 Q1324.3 51.7138 1329.4 47.825 Q1334.55 43.9361 1344.72 43.9361 L1355.17 43.9361 L1355.17 43.2069 Q1355.17 38.0623 1351.77 35.2672 Q1348.4 32.4315 1342.29 32.4315 Q1338.4 32.4315 1334.71 33.3632 Q1331.02 34.295 1327.62 36.1584 L1327.62 29.2718 Q1331.71 27.692 1335.56 26.9223 Q1339.41 26.1121 1343.06 26.1121 Q1352.9 26.1121 1357.76 31.2163 Q1362.62 36.3204 1362.62 46.6907 Z" fill="#000000" fill-rule="nonzero" fill-opacity="1" /><path clip-path="url(#clip750)" d="M1413.3 35.9153 Q1416.09 30.8922 1419.98 28.5022 Q1423.87 26.1121 1429.14 26.1121 Q1436.23 26.1121 1440.07 31.0947 Q1443.92 36.0368 1443.92 45.1919 L1443.92 72.576 L1436.43 72.576 L1436.43 45.4349 Q1436.43 38.913 1434.12 35.7533 Q1431.81 32.5936 1427.07 32.5936 Q1421.28 32.5936 1417.92 36.4419 Q1414.55 40.2903 1414.55 46.9338 L1414.55 72.576 L1407.06 72.576 L1407.06 45.4349 Q1407.06 38.8725 1404.75 35.7533 Q1402.44 32.5936 1397.62 32.5936 Q1391.91 32.5936 1388.55 36.4824 Q1385.18 40.3308 1385.18 46.9338 L1385.18 72.576 L1377.69 72.576 L1377.69 27.2059 L1385.18 27.2059 L1385.18 34.2544 Q1387.74 30.082 1391.3 28.0971 Q1394.87 26.1121 1399.77 26.1121 Q1404.71 26.1121 1408.15 28.6237 Q1411.64 31.1352 1413.3 35.9153 Z" fill="#000000" fill-rule="nonzero" fill-opacity="1" /><path clip-path="url(#clip750)" d="M1466 65.7705 L1466 89.8329 L1458.51 89.8329 L1458.51 27.2059 L1466 27.2059 L1466 34.0924 Q1468.35 30.0415 1471.91 28.0971 Q1475.52 26.1121 1480.5 26.1121 Q1488.77 26.1121 1493.91 32.6746 Q1499.1 39.2371 1499.1 49.9314 Q1499.1 60.6258 1493.91 67.1883 Q1488.77 73.7508 1480.5 73.7508 Q1475.52 73.7508 1471.91 71.8063 Q1468.35 69.8214 1466 65.7705 M1491.36 49.9314 Q1491.36 41.7081 1487.96 37.0496 Q1484.59 32.3505 1478.68 32.3505 Q1472.77 32.3505 1469.36 37.0496 Q1466 41.7081 1466 49.9314 Q1466 58.1548 1469.36 62.8538 Q1472.77 67.5124 1478.68 67.5124 Q1484.59 67.5124 1487.96 62.8538 Q1491.36 58.1548 1491.36 49.9314 Z" fill="#000000" fill-rule="nonzero" fill-opacity="1" /><path clip-path="url(#clip750)" d="M1511.45 9.54393 L1518.91 9.54393 L1518.91 72.576 L1511.45 72.576 L1511.45 9.54393 Z" fill="#000000" fill-rule="nonzero" fill-opacity="1" /><path clip-path="url(#clip750)" d="M1573.31 48.0275 L1573.31 51.6733 L1539.04 51.6733 Q1539.52 59.3701 1543.66 63.421 Q1547.83 67.4314 1555.24 67.4314 Q1559.54 67.4314 1563.55 66.3781 Q1567.6 65.3249 1571.57 63.2184 L1571.57 70.267 Q1567.56 71.9684 1563.34 72.8596 Q1559.13 73.7508 1554.8 73.7508 Q1543.94 73.7508 1537.58 67.4314 Q1531.26 61.1119 1531.26 50.3365 Q1531.26 39.1965 1537.26 32.6746 Q1543.29 26.1121 1553.5 26.1121 Q1562.66 26.1121 1567.96 32.0264 Q1573.31 37.9003 1573.31 48.0275 M1565.86 45.84 Q1565.77 39.7232 1562.41 36.0774 Q1559.09 32.4315 1553.58 32.4315 Q1547.34 32.4315 1543.58 35.9558 Q1539.85 39.4801 1539.28 45.8805 L1565.86 45.84 Z" fill="#000000" fill-rule="nonzero" fill-opacity="1" /><path clip-path="url(#clip750)" d="M1612.24 12.096 L1650.48 12.096 L1650.48 18.9825 L1620.42 18.9825 L1620.42 36.8875 L1649.22 36.8875 L1649.22 43.7741 L1620.42 43.7741 L1620.42 65.6895 L1651.21 65.6895 L1651.21 72.576 L1612.24 72.576 L1612.24 12.096 Z" fill="#000000" fill-rule="nonzero" fill-opacity="1" /><path clip-path="url(#clip750)" d="M1693.26 28.5427 L1693.26 35.5912 Q1690.1 33.9709 1686.69 33.1607 Q1683.29 32.3505 1679.65 32.3505 Q1674.1 32.3505 1671.3 34.0519 Q1668.55 35.7533 1668.55 39.156 Q1668.55 41.7486 1670.53 43.2475 Q1672.52 44.7058 1678.51 46.0426 L1681.06 46.6097 Q1689 48.3111 1692.32 51.4303 Q1695.69 54.509 1695.69 60.0587 Q1695.69 66.3781 1690.66 70.0644 Q1685.68 73.7508 1676.93 73.7508 Q1673.29 73.7508 1669.32 73.0216 Q1665.39 72.3329 1661.01 70.9151 L1661.01 63.2184 Q1665.14 65.3654 1669.15 66.4591 Q1673.16 67.5124 1677.09 67.5124 Q1682.36 67.5124 1685.19 65.73 Q1688.03 63.9071 1688.03 60.6258 Q1688.03 57.5877 1685.96 55.9673 Q1683.94 54.3469 1677.01 52.8481 L1674.42 52.2405 Q1667.49 50.7821 1664.41 47.7845 Q1661.34 44.7463 1661.34 39.4801 Q1661.34 33.0797 1665.87 29.5959 Q1670.41 26.1121 1678.75 26.1121 Q1682.89 26.1121 1686.53 26.7198 Q1690.18 27.3274 1693.26 28.5427 Z" fill="#000000" fill-rule="nonzero" fill-opacity="1" /><path clip-path="url(#clip750)" d="M1714.93 14.324 L1714.93 27.2059 L1730.28 27.2059 L1730.28 32.9987 L1714.93 32.9987 L1714.93 57.6282 Q1714.93 63.1779 1716.43 64.7578 Q1717.97 66.3376 1722.63 66.3376 L1730.28 66.3376 L1730.28 72.576 L1722.63 72.576 Q1714 72.576 1710.72 69.3758 Q1707.43 66.1351 1707.43 57.6282 L1707.43 32.9987 L1701.97 32.9987 L1701.97 27.2059 L1707.43 27.2059 L1707.43 14.324 L1714.93 14.324 Z" fill="#000000" fill-rule="nonzero" fill-opacity="1" /><path clip-path="url(#clip750)" d="M1740.08 27.2059 L1747.54 27.2059 L1747.54 72.576 L1740.08 72.576 L1740.08 27.2059 M1740.08 9.54393 L1747.54 9.54393 L1747.54 18.9825 L1740.08 18.9825 L1740.08 9.54393 Z" fill="#000000" fill-rule="nonzero" fill-opacity="1" /><path clip-path="url(#clip750)" d="M1798.46 35.9153 Q1801.25 30.8922 1805.14 28.5022 Q1809.03 26.1121 1814.3 26.1121 Q1821.39 26.1121 1825.23 31.0947 Q1829.08 36.0368 1829.08 45.1919 L1829.08 72.576 L1821.59 72.576 L1821.59 45.4349 Q1821.59 38.913 1819.28 35.7533 Q1816.97 32.5936 1812.23 32.5936 Q1806.44 32.5936 1803.08 36.4419 Q1799.71 40.2903 1799.71 46.9338 L1799.71 72.576 L1792.22 72.576 L1792.22 45.4349 Q1792.22 38.8725 1789.91 35.7533 Q1787.6 32.5936 1782.78 32.5936 Q1777.07 32.5936 1773.71 36.4824 Q1770.34 40.3308 1770.34 46.9338 L1770.34 72.576 L1762.85 72.576 L1762.85 27.2059 L1770.34 27.2059 L1770.34 34.2544 Q1772.9 30.082 1776.46 28.0971 Q1780.03 26.1121 1784.93 26.1121 Q1789.87 26.1121 1793.31 28.6237 Q1796.8 31.1352 1798.46 35.9153 Z" fill="#000000" fill-rule="nonzero" fill-opacity="1" /><path clip-path="url(#clip750)" d="M1864.57 49.7694 Q1855.54 49.7694 1852.05 51.8354 Q1848.57 53.9013 1848.57 58.8839 Q1848.57 62.8538 1851.16 65.2034 Q1853.79 67.5124 1858.29 67.5124 Q1864.49 67.5124 1868.21 63.1374 Q1871.98 58.7219 1871.98 51.4303 L1871.98 49.7694 L1864.57 49.7694 M1879.44 46.6907 L1879.44 72.576 L1871.98 72.576 L1871.98 65.6895 Q1869.43 69.8214 1865.62 71.8063 Q1861.81 73.7508 1856.31 73.7508 Q1849.34 73.7508 1845.21 69.8619 Q1841.11 65.9325 1841.11 59.3701 Q1841.11 51.7138 1846.22 47.825 Q1851.36 43.9361 1861.53 43.9361 L1871.98 43.9361 L1871.98 43.2069 Q1871.98 38.0623 1868.58 35.2672 Q1865.22 32.4315 1859.1 32.4315 Q1855.21 32.4315 1851.53 33.3632 Q1847.84 34.295 1844.44 36.1584 L1844.44 29.2718 Q1848.53 27.692 1852.38 26.9223 Q1856.22 26.1121 1859.87 26.1121 Q1869.71 26.1121 1874.57 31.2163 Q1879.44 36.3204 1879.44 46.6907 Z" fill="#000000" fill-rule="nonzero" fill-opacity="1" /><path clip-path="url(#clip750)" d="M1902.16 14.324 L1902.16 27.2059 L1917.51 27.2059 L1917.51 32.9987 L1902.16 32.9987 L1902.16 57.6282 Q1902.16 63.1779 1903.66 64.7578 Q1905.2 66.3376 1909.86 66.3376 L1917.51 66.3376 L1917.51 72.576 L1909.86 72.576 Q1901.23 72.576 1897.95 69.3758 Q1894.67 66.1351 1894.67 57.6282 L1894.67 32.9987 L1889.2 32.9987 L1889.2 27.2059 L1894.67 27.2059 L1894.67 14.324 L1902.16 14.324 Z" fill="#000000" fill-rule="nonzero" fill-opacity="1" /><path clip-path="url(#clip750)" d="M1966.13 48.0275 L1966.13 51.6733 L1931.85 51.6733 Q1932.34 59.3701 1936.47 63.421 Q1940.64 67.4314 1948.06 67.4314 Q1952.35 67.4314 1956.36 66.3781 Q1960.41 65.3249 1964.38 63.2184 L1964.38 70.267 Q1960.37 71.9684 1956.16 72.8596 Q1951.95 73.7508 1947.61 73.7508 Q1936.76 73.7508 1930.4 67.4314 Q1924.08 61.1119 1924.08 50.3365 Q1924.08 39.1965 1930.07 32.6746 Q1936.11 26.1121 1946.32 26.1121 Q1955.47 26.1121 1960.78 32.0264 Q1966.13 37.9003 1966.13 48.0275 M1958.67 45.84 Q1958.59 39.7232 1955.23 36.0774 Q1951.91 32.4315 1946.4 32.4315 Q1940.16 32.4315 1936.39 35.9558 Q1932.66 39.4801 1932.1 45.8805 L1958.67 45.84 Z" fill="#000000" fill-rule="nonzero" fill-opacity="1" /><path clip-path="url(#clip750)" d="M1980.26 62.2867 L1988.81 62.2867 L1988.81 69.2543 L1982.17 82.2172 L1976.94 82.2172 L1980.26 69.2543 L1980.26 62.2867 Z" fill="#000000" fill-rule="nonzero" fill-opacity="1" /><path clip-path="url(#clip750)" d="M2063.95 20.0358 Q2059.82 17.2001 2050.14 17.2001 Q2039.89 17.2001 2039.89 21.9397 Q2039.89 25.6665 2050.59 27.611 Q2059.01 29.1098 2063.75 33.6468 Q2069.5 39.1155 2069.5 50.3365 Q2069.5 61.0714 2063.95 67.3908 Q2058.4 73.7508 2048.68 73.7508 Q2039 73.7508 2033.41 67.3908 Q2027.86 61.0714 2027.86 49.9314 Q2027.86 41.6676 2033.41 34.9836 Q2035.56 32.391 2038.6 30.9327 Q2032.28 27.7325 2032.28 22.0207 Q2032.28 11.0023 2050.14 11.0023 Q2059.09 11.0023 2063.95 13.8379 L2063.95 20.0358 M2044.19 32.9582 Q2041.43 34.1329 2039.2 37.0901 Q2035.72 41.6676 2035.72 49.9314 Q2035.72 58.1548 2039.16 62.7728 Q2042.65 67.4314 2048.68 67.4314 Q2054.64 67.4314 2058.12 62.7323 Q2061.6 58.0333 2061.6 50.3365 Q2061.6 42.2752 2057.92 38.3864 Q2053.99 34.2139 2048.89 33.7683 Q2046.29 33.5253 2044.19 32.9582 Z" fill="#000000" fill-rule="nonzero" fill-opacity="1" /><path clip-path="url(#clip750)" d="M2119.57 27.2059 L2103.17 49.2833 L2120.42 72.576 L2111.63 72.576 L2098.43 54.752 L2085.22 72.576 L2076.43 72.576 L2094.05 48.8377 L2077.93 27.2059 L2086.72 27.2059 L2098.75 43.369 L2110.78 27.2059 L2119.57 27.2059 Z" fill="#000000" fill-rule="nonzero" fill-opacity="1" /><path clip-path="url(#clip750)" d="M2158.3 34.9026 L2210.23 34.9026 L2210.23 41.7081 L2158.3 41.7081 L2158.3 34.9026 M2158.3 51.4303 L2210.23 51.4303 L2210.23 58.3168 L2158.3 58.3168 L2158.3 51.4303 Z" fill="#000000" fill-rule="nonzero" fill-opacity="1" /><path clip-path="url(#clip750)" d="M2271.77 17.4837 Q2265.45 17.4837 2262.25 23.7221 Q2259.09 29.92 2259.09 42.3968 Q2259.09 54.833 2262.25 61.0714 Q2265.45 67.2693 2271.77 67.2693 Q2278.13 67.2693 2281.29 61.0714 Q2284.49 54.833 2284.49 42.3968 Q2284.49 29.92 2281.29 23.7221 Q2278.13 17.4837 2271.77 17.4837 M2271.77 11.0023 Q2281.93 11.0023 2287.28 19.0636 Q2292.67 27.0843 2292.67 42.3968 Q2292.67 57.6687 2287.28 65.73 Q2281.93 73.7508 2271.77 73.7508 Q2261.6 73.7508 2256.21 65.73 Q2250.86 57.6687 2250.86 42.3968 Q2250.86 27.0843 2256.21 19.0636 Q2261.6 11.0023 2271.77 11.0023 Z" fill="#000000" fill-rule="nonzero" fill-opacity="1" /><path clip-path="url(#clip750)" d="M2307.05 62.2867 L2315.6 62.2867 L2315.6 72.576 L2307.05 72.576 L2307.05 62.2867 Z" fill="#000000" fill-rule="nonzero" fill-opacity="1" /><path clip-path="url(#clip750)" d="M2333.5 12.096 L2365.63 12.096 L2365.63 18.9825 L2341 18.9825 L2341 33.8088 Q2342.78 33.2012 2344.56 32.9176 Q2346.34 32.5936 2348.13 32.5936 Q2358.25 32.5936 2364.17 38.1433 Q2370.08 43.6931 2370.08 53.1722 Q2370.08 62.9348 2364 68.3631 Q2357.93 73.7508 2346.87 73.7508 Q2343.06 73.7508 2339.09 73.1026 Q2335.16 72.4545 2330.95 71.1582 L2330.95 62.9348 Q2334.6 64.9198 2338.48 65.892 Q2342.37 66.8642 2346.71 66.8642 Q2353.72 66.8642 2357.81 63.1779 Q2361.9 59.4916 2361.9 53.1722 Q2361.9 46.8528 2357.81 43.1664 Q2353.72 39.4801 2346.71 39.4801 Q2343.43 39.4801 2340.15 40.2093 Q2336.9 40.9384 2333.5 42.4778 L2333.5 12.096 Z" fill="#000000" fill-rule="nonzero" fill-opacity="1" /><polyline clip-path="url(#clip752)" style="stroke:#009af9; stroke-linecap:round; stroke-linejoin:round; stroke-width:8; stroke-opacity:1; fill:none" points="309.067,998.167 329.109,940.852 349.151,863.303 369.193,778.651 389.235,703.588 409.277,650.108 429.319,622.606 449.361,621.388 469.403,646.435 489.446,697.585 509.488,771.023 529.53,855.472 549.572,934.346 569.614,993.886 589.656,1027.98 609.698,1035.74 629.74,1017.29 649.782,972.549 669.824,903.959 689.866,820.803 709.908,738.984 729.95,673.722 749.992,633.052 770.034,618.728 790.076,630.609 "/>
<path clip-path="url(#clip752)" d="M810.118 1037.44 L830.161 1133.85 L850.203 1220.38 L870.245 1316.32 L890.287 1345.95 L910.329 1369.94 L930.371 1366.17 L950.413 1343.6 L970.455 1353.95 L990.497 1284.81 L1010.54 1228.38 L1030.58 1147.49 L1050.62 1060.95 L1070.67 1011.1 L1090.71 964.073 L1110.75 956.548 L1130.79 1031.32 L1150.83 1083.06 L1170.88 1179.47 L1190.92 1265.06 L1210.96 1337.01 L1231 1356.3 L1251.04 1367.11 L1271.09 1372.29 L1291.13 1353.95 L1311.17 1320.55 L1331.21 1258.48 L1351.25 1186.05 L1371.3 1092.93 L1391.34 1037.91 L1411.38 997.934 L1431.42 969.716 L1451.46 1014.39 L1471.51 1045.43 L1491.55 1132.44 L1511.59 1212.39 L1531.63 1298.45 L1551.67 1345.01 L1571.72 1358.65 L1591.76 1386.4 L1611.8 1355.83 L1631.84 1334.19 L1651.89 1300.33 L1671.93 1230.26 L1691.97 1134.79 L1712.01 1056.72 L1732.05 1004.99 L1752.1 977.711 L1772.14 978.181 L1792.18 1008.75 L1812.22 1098.58 L1832.26 1167.24 L1852.31 1255.65 L1872.35 1338.9 L1892.39 1345.95 L1912.43 1381.69 L1932.47 1350.65 L1952.52 1365.7 L1972.56 1320.08 L1992.6 1234.96 L2012.64 1186.99 L2032.68 1095.28 L2052.73 1007.34 L2072.77 1002.64 L2092.81 963.602 L2112.85 996.523 L2132.89 1051.55 L2152.94 1137.61 L2172.98 1233.08 L2193.02 1292.81 L2213.06 1343.6 L2233.1 1362.41 L2253.15 1360.53 L2273.19 1347.83 L2293.23 1327.61 L2293.23 531.317 L2273.19 551.54 L2253.15 564.238 L2233.1 566.119 L2213.06 547.307 L2193.02 496.516 L2172.98 436.789 L2152.94 341.319 L2132.89 255.255 L2112.85 200.231 L2092.81 167.311 L2072.77 206.345 L2052.73 211.048 L2032.68 298.993 L2012.64 390.7 L1992.6 438.67 L1972.56 523.793 L1952.52 569.411 L1932.47 554.362 L1912.43 585.401 L1892.39 549.659 L1872.35 542.604 L1852.31 459.363 L1832.26 370.948 L1812.22 302.285 L1792.18 212.459 L1772.14 181.89 L1752.1 181.419 L1732.05 208.696 L1712.01 260.429 L1691.97 338.497 L1671.93 433.967 L1651.89 504.04 L1631.84 537.901 L1611.8 559.535 L1591.76 590.104 L1571.72 562.357 L1551.67 548.718 L1531.63 502.159 L1511.59 416.096 L1491.55 336.146 L1471.51 249.142 L1451.46 218.102 L1431.42 173.425 L1411.38 201.642 L1391.34 241.617 L1371.3 296.641 L1351.25 389.759 L1331.21 462.184 L1311.17 524.263 L1291.13 557.654 L1271.09 575.995 L1251.04 570.822 L1231 560.005 L1210.96 540.723 L1190.92 468.768 L1170.88 383.175 L1150.83 286.765 L1130.79 235.033 L1110.75 160.256 L1090.71 167.781 L1070.67 214.81 L1050.62 264.661 L1030.58 351.195 L1010.54 432.086 L990.497 488.521 L970.455 557.654 L950.413 547.307 L930.371 569.881 L910.329 573.644 L890.287 549.659 L870.245 520.03 L850.203 424.091 L830.161 337.557 L810.118 241.147  Z" fill="#e26f46" fill-rule="evenodd" fill-opacity="0.5"/>
<polyline clip-path="url(#clip752)" style="stroke:#e26f46; stroke-linecap:round; stroke-linejoin:round; stroke-width:8; stroke-opacity:1; fill:none" stroke-dasharray="32, 16, 4, 16" points="810.118,639.293 830.161,735.703 850.203,822.236 870.245,918.176 890.287,947.805 910.329,971.79 930.371,968.027 950.413,945.453 970.455,955.8 990.497,886.667 1010.54,830.231 1030.58,749.341 1050.62,662.807 1070.67,612.956 1090.71,565.927 1110.75,558.402 1130.79,633.179 1150.83,684.911 1170.88,781.321 1190.92,866.914 1210.96,938.869 1231,958.151 1251.04,968.968 1271.09,974.141 1291.13,955.8 1311.17,922.409 1331.21,860.33 1351.25,787.905 1371.3,694.787 1391.34,639.763 1411.38,599.788 1431.42,571.57 1451.46,616.248 1471.51,647.287 1491.55,734.292 1511.59,814.241 1531.63,900.305 1551.67,946.864 1571.72,960.503 1591.76,988.25 1611.8,957.681 1631.84,936.047 1651.89,902.186 1671.93,832.113 1691.97,736.643 1712.01,658.575 1732.05,606.842 1752.1,579.565 1772.14,580.036 1792.18,610.605 1812.22,700.431 1832.26,769.093 1852.31,857.508 1872.35,940.75 1892.39,947.805 1912.43,983.547 1932.47,952.508 1952.52,967.557 1972.56,921.939 1992.6,836.816 2012.64,788.846 2032.68,697.139 2052.73,609.194 2072.77,604.491 2092.81,565.457 2112.85,598.377 2132.89,653.401 2152.94,739.465 2172.98,834.934 2193.02,894.662 2213.06,945.453 2233.1,964.265 2253.15,962.384 2273.19,949.686 2293.23,929.463 "/>
<polyline clip-path="url(#clip752)" style="stroke:#3da44d; stroke-linecap:round; stroke-linejoin:round; stroke-width:8; stroke-opacity:1; fill:none" points="810.118,668.842 830.161,732.03 850.203,812.868 870.245,896.629 890.287,967.093 910.329,1014.23 930.371,1035.13 950.413,1029.8 970.455,998.167 990.497,940.852 1010.54,863.303 1030.58,778.651 1050.62,703.588 1070.67,650.108 1090.71,622.606 1110.75,621.388 1130.79,646.435 1150.83,697.585 1170.88,771.023 1190.92,855.472 1210.96,934.346 1231,993.886 1251.04,1027.98 1271.09,1035.74 1291.13,1017.29 1311.17,972.549 1331.21,903.959 1351.25,820.803 1371.3,738.984 1391.34,673.722 1411.38,633.052 1431.42,618.728 1451.46,630.609 1471.51,668.842 1491.55,732.03 1511.59,812.868 1531.63,896.629 1551.67,967.093 1571.72,1014.23 1591.76,1035.13 1611.8,1029.8 1631.84,998.167 1651.89,940.852 1671.93,863.303 1691.97,778.651 1712.01,703.588 1732.05,650.108 1752.1,622.606 1772.14,621.388 1792.18,646.435 1812.22,697.585 1832.26,771.023 1852.31,855.472 1872.35,934.346 1892.39,993.886 1912.43,1027.98 1932.47,1035.74 1952.52,1017.29 1972.56,972.549 1992.6,903.959 2012.64,820.803 2032.68,738.984 2052.73,673.722 2072.77,633.052 2092.81,618.728 2112.85,630.609 2132.89,668.842 2152.94,732.03 2172.98,812.868 2193.02,896.629 2213.06,967.093 2233.1,1014.23 2253.15,1035.13 2273.19,1029.8 2293.23,998.167 "/>
<path clip-path="url(#clip750)" d="M319.649 1379.86 L936.751 1379.86 L936.751 1172.5 L319.649 1172.5  Z" fill="#ffffff" fill-rule="evenodd" fill-opacity="1"/>
<polyline clip-path="url(#clip750)" style="stroke:#000000; stroke-linecap:round; stroke-linejoin:round; stroke-width:4; stroke-opacity:1; fill:none" points="319.649,1379.86 936.751,1379.86 936.751,1172.5 319.649,1172.5 319.649,1379.86 "/>
<polyline clip-path="url(#clip750)" style="stroke:#009af9; stroke-linecap:round; stroke-linejoin:round; stroke-width:8; stroke-opacity:1; fill:none" points="343.018,1224.34 483.232,1224.34 "/>
<path clip-path="url(#clip750)" d="M534.472 1209.72 L534.472 1214.65 Q532.111 1212.45 529.425 1211.36 Q526.763 1210.27 523.754 1210.27 Q517.828 1210.27 514.68 1213.91 Q511.532 1217.52 511.532 1224.37 Q511.532 1231.2 514.68 1234.83 Q517.828 1238.44 523.754 1238.44 Q526.763 1238.44 529.425 1237.36 Q532.111 1236.27 534.472 1234.07 L534.472 1238.95 Q532.018 1240.62 529.263 1241.45 Q526.532 1242.29 523.476 1242.29 Q515.629 1242.29 511.115 1237.5 Q506.602 1232.68 506.602 1224.37 Q506.602 1216.04 511.115 1211.25 Q515.629 1206.43 523.476 1206.43 Q526.578 1206.43 529.31 1207.26 Q532.064 1208.07 534.472 1209.72 Z" fill="#000000" fill-rule="nonzero" fill-opacity="1" /><path clip-path="url(#clip750)" d="M551.555 1218.68 Q548.129 1218.68 546.138 1221.36 Q544.148 1224.02 544.148 1228.68 Q544.148 1233.33 546.115 1236.01 Q548.106 1238.68 551.555 1238.68 Q554.958 1238.68 556.948 1235.99 Q558.939 1233.31 558.939 1228.68 Q558.939 1224.07 556.948 1221.38 Q554.958 1218.68 551.555 1218.68 M551.555 1215.07 Q557.11 1215.07 560.282 1218.68 Q563.453 1222.29 563.453 1228.68 Q563.453 1235.04 560.282 1238.68 Q557.11 1242.29 551.555 1242.29 Q545.976 1242.29 542.805 1238.68 Q539.657 1235.04 539.657 1228.68 Q539.657 1222.29 542.805 1218.68 Q545.976 1215.07 551.555 1215.07 Z" fill="#000000" fill-rule="nonzero" fill-opacity="1" /><path clip-path="url(#clip750)" d="M592.064 1225.97 L592.064 1241.62 L587.805 1241.62 L587.805 1226.11 Q587.805 1222.43 586.37 1220.6 Q584.934 1218.77 582.064 1218.77 Q578.615 1218.77 576.624 1220.97 Q574.634 1223.17 574.634 1226.96 L574.634 1241.62 L570.351 1241.62 L570.351 1215.69 L574.634 1215.69 L574.634 1219.72 Q576.161 1217.38 578.221 1216.22 Q580.305 1215.07 583.013 1215.07 Q587.481 1215.07 589.772 1217.84 Q592.064 1220.6 592.064 1225.97 Z" fill="#000000" fill-rule="nonzero" fill-opacity="1" /><path clip-path="url(#clip750)" d="M617.619 1219.63 L617.619 1205.6 L621.879 1205.6 L621.879 1241.62 L617.619 1241.62 L617.619 1237.73 Q616.277 1240.04 614.217 1241.18 Q612.18 1242.29 609.309 1242.29 Q604.61 1242.29 601.647 1238.54 Q598.707 1234.79 598.707 1228.68 Q598.707 1222.57 601.647 1218.82 Q604.61 1215.07 609.309 1215.07 Q612.18 1215.07 614.217 1216.2 Q616.277 1217.31 617.619 1219.63 M603.106 1228.68 Q603.106 1233.38 605.027 1236.06 Q606.971 1238.72 610.351 1238.72 Q613.731 1238.72 615.675 1236.06 Q617.619 1233.38 617.619 1228.68 Q617.619 1223.98 615.675 1221.32 Q613.731 1218.63 610.351 1218.63 Q606.971 1218.63 605.027 1221.32 Q603.106 1223.98 603.106 1228.68 Z" fill="#000000" fill-rule="nonzero" fill-opacity="1" /><path clip-path="url(#clip750)" d="M630.652 1215.69 L634.911 1215.69 L634.911 1241.62 L630.652 1241.62 L630.652 1215.69 M630.652 1205.6 L634.911 1205.6 L634.911 1210.99 L630.652 1210.99 L630.652 1205.6 Z" fill="#000000" fill-rule="nonzero" fill-opacity="1" /><path clip-path="url(#clip750)" d="M648.036 1208.33 L648.036 1215.69 L656.809 1215.69 L656.809 1219 L648.036 1219 L648.036 1233.07 Q648.036 1236.25 648.892 1237.15 Q649.772 1238.05 652.434 1238.05 L656.809 1238.05 L656.809 1241.62 L652.434 1241.62 Q647.504 1241.62 645.629 1239.79 Q643.754 1237.94 643.754 1233.07 L643.754 1219 L640.629 1219 L640.629 1215.69 L643.754 1215.69 L643.754 1208.33 L648.036 1208.33 Z" fill="#000000" fill-rule="nonzero" fill-opacity="1" /><path clip-path="url(#clip750)" d="M662.411 1215.69 L666.67 1215.69 L666.67 1241.62 L662.411 1241.62 L662.411 1215.69 M662.411 1205.6 L666.67 1205.6 L666.67 1210.99 L662.411 1210.99 L662.411 1205.6 Z" fill="#000000" fill-rule="nonzero" fill-opacity="1" /><path clip-path="url(#clip750)" d="M685.628 1218.68 Q682.202 1218.68 680.212 1221.36 Q678.221 1224.02 678.221 1228.68 Q678.221 1233.33 680.189 1236.01 Q682.179 1238.68 685.628 1238.68 Q689.031 1238.68 691.022 1235.99 Q693.013 1233.31 693.013 1228.68 Q693.013 1224.07 691.022 1221.38 Q689.031 1218.68 685.628 1218.68 M685.628 1215.07 Q691.184 1215.07 694.355 1218.68 Q697.526 1222.29 697.526 1228.68 Q697.526 1235.04 694.355 1238.68 Q691.184 1242.29 685.628 1242.29 Q680.05 1242.29 676.878 1238.68 Q673.73 1235.04 673.73 1228.68 Q673.73 1222.29 676.878 1218.68 Q680.05 1215.07 685.628 1215.07 Z" fill="#000000" fill-rule="nonzero" fill-opacity="1" /><path clip-path="url(#clip750)" d="M726.137 1225.97 L726.137 1241.62 L721.878 1241.62 L721.878 1226.11 Q721.878 1222.43 720.443 1220.6 Q719.008 1218.77 716.137 1218.77 Q712.688 1218.77 710.698 1220.97 Q708.707 1223.17 708.707 1226.96 L708.707 1241.62 L704.425 1241.62 L704.425 1215.69 L708.707 1215.69 L708.707 1219.72 Q710.235 1217.38 712.295 1216.22 Q714.378 1215.07 717.086 1215.07 Q721.554 1215.07 723.846 1217.84 Q726.137 1220.6 726.137 1225.97 Z" fill="#000000" fill-rule="nonzero" fill-opacity="1" /><path clip-path="url(#clip750)" d="M756.808 1227.59 L756.808 1229.67 L737.225 1229.67 Q737.503 1234.07 739.864 1236.38 Q742.248 1238.68 746.484 1238.68 Q748.938 1238.68 751.23 1238.07 Q753.545 1237.47 755.813 1236.27 L755.813 1240.3 Q753.521 1241.27 751.114 1241.78 Q748.707 1242.29 746.23 1242.29 Q740.026 1242.29 736.392 1238.68 Q732.781 1235.07 732.781 1228.91 Q732.781 1222.54 736.207 1218.82 Q739.656 1215.07 745.489 1215.07 Q750.721 1215.07 753.753 1218.45 Q756.808 1221.8 756.808 1227.59 M752.549 1226.34 Q752.503 1222.84 750.582 1220.76 Q748.684 1218.68 745.535 1218.68 Q741.971 1218.68 739.818 1220.69 Q737.688 1222.7 737.364 1226.36 L752.549 1226.34 Z" fill="#000000" fill-rule="nonzero" fill-opacity="1" /><path clip-path="url(#clip750)" d="M780.859 1219.63 L780.859 1205.6 L785.119 1205.6 L785.119 1241.62 L780.859 1241.62 L780.859 1237.73 Q779.517 1240.04 777.457 1241.18 Q775.42 1242.29 772.549 1242.29 Q767.85 1242.29 764.887 1238.54 Q761.947 1234.79 761.947 1228.68 Q761.947 1222.57 764.887 1218.82 Q767.85 1215.07 772.549 1215.07 Q775.42 1215.07 777.457 1216.2 Q779.517 1217.31 780.859 1219.63 M766.345 1228.68 Q766.345 1233.38 768.267 1236.06 Q770.211 1238.72 773.591 1238.72 Q776.97 1238.72 778.915 1236.06 Q780.859 1233.38 780.859 1228.68 Q780.859 1223.98 778.915 1221.32 Q776.97 1218.63 773.591 1218.63 Q770.211 1218.63 768.267 1221.32 Q766.345 1223.98 766.345 1228.68 Z" fill="#000000" fill-rule="nonzero" fill-opacity="1" /><path clip-path="url(#clip750)" d="M813.822 1210.9 L813.822 1237.77 L819.47 1237.77 Q826.623 1237.77 829.933 1234.53 Q833.266 1231.29 833.266 1224.3 Q833.266 1217.36 829.933 1214.14 Q826.623 1210.9 819.47 1210.9 L813.822 1210.9 M809.146 1207.06 L818.753 1207.06 Q828.799 1207.06 833.498 1211.25 Q838.197 1215.41 838.197 1224.3 Q838.197 1233.24 833.475 1237.43 Q828.753 1241.62 818.753 1241.62 L809.146 1241.62 L809.146 1207.06 Z" fill="#000000" fill-rule="nonzero" fill-opacity="1" /><path clip-path="url(#clip750)" d="M857.248 1228.58 Q852.086 1228.58 850.095 1229.76 Q848.104 1230.95 848.104 1233.79 Q848.104 1236.06 849.586 1237.4 Q851.09 1238.72 853.66 1238.72 Q857.201 1238.72 859.331 1236.22 Q861.484 1233.7 861.484 1229.53 L861.484 1228.58 L857.248 1228.58 M865.743 1226.82 L865.743 1241.62 L861.484 1241.62 L861.484 1237.68 Q860.026 1240.04 857.85 1241.18 Q855.674 1242.29 852.526 1242.29 Q848.544 1242.29 846.183 1240.07 Q843.845 1237.82 843.845 1234.07 Q843.845 1229.7 846.762 1227.47 Q849.702 1225.25 855.512 1225.25 L861.484 1225.25 L861.484 1224.83 Q861.484 1221.89 859.539 1220.3 Q857.618 1218.68 854.123 1218.68 Q851.901 1218.68 849.794 1219.21 Q847.688 1219.74 845.743 1220.81 L845.743 1216.87 Q848.081 1215.97 850.28 1215.53 Q852.479 1215.07 854.563 1215.07 Q860.188 1215.07 862.965 1217.98 Q865.743 1220.9 865.743 1226.82 Z" fill="#000000" fill-rule="nonzero" fill-opacity="1" /><path clip-path="url(#clip750)" d="M878.729 1208.33 L878.729 1215.69 L887.502 1215.69 L887.502 1219 L878.729 1219 L878.729 1233.07 Q878.729 1236.25 879.586 1237.15 Q880.465 1238.05 883.127 1238.05 L887.502 1238.05 L887.502 1241.62 L883.127 1241.62 Q878.197 1241.62 876.322 1239.79 Q874.447 1237.94 874.447 1233.07 L874.447 1219 L871.322 1219 L871.322 1215.69 L874.447 1215.69 L874.447 1208.33 L878.729 1208.33 Z" fill="#000000" fill-rule="nonzero" fill-opacity="1" /><path clip-path="url(#clip750)" d="M904.886 1228.58 Q899.724 1228.58 897.734 1229.76 Q895.743 1230.95 895.743 1233.79 Q895.743 1236.06 897.224 1237.4 Q898.729 1238.72 901.298 1238.72 Q904.84 1238.72 906.97 1236.22 Q909.122 1233.7 909.122 1229.53 L909.122 1228.58 L904.886 1228.58 M913.382 1226.82 L913.382 1241.62 L909.122 1241.62 L909.122 1237.68 Q907.664 1240.04 905.488 1241.18 Q903.312 1242.29 900.164 1242.29 Q896.183 1242.29 893.822 1240.07 Q891.484 1237.82 891.484 1234.07 Q891.484 1229.7 894.4 1227.47 Q897.34 1225.25 903.15 1225.25 L909.122 1225.25 L909.122 1224.83 Q909.122 1221.89 907.178 1220.3 Q905.257 1218.68 901.761 1218.68 Q899.539 1218.68 897.433 1219.21 Q895.326 1219.74 893.382 1220.81 L893.382 1216.87 Q895.72 1215.97 897.919 1215.53 Q900.118 1215.07 902.201 1215.07 Q907.826 1215.07 910.604 1217.98 Q913.382 1220.9 913.382 1226.82 Z" fill="#000000" fill-rule="nonzero" fill-opacity="1" /><polyline clip-path="url(#clip750)" style="stroke:#e26f46; stroke-linecap:round; stroke-linejoin:round; stroke-width:8; stroke-opacity:1; fill:none" stroke-dasharray="32, 16, 4, 16" points="343.018,1276.18 483.232,1276.18 "/>
<path clip-path="url(#clip750)" d="M511.277 1262.74 L511.277 1275.72 L517.157 1275.72 Q520.421 1275.72 522.203 1274.04 Q523.986 1272.35 523.986 1269.22 Q523.986 1266.12 522.203 1264.43 Q520.421 1262.74 517.157 1262.74 L511.277 1262.74 M506.602 1258.9 L517.157 1258.9 Q522.967 1258.9 525.93 1261.54 Q528.916 1264.15 528.916 1269.22 Q528.916 1274.34 525.93 1276.95 Q522.967 1279.57 517.157 1279.57 L511.277 1279.57 L511.277 1293.46 L506.602 1293.46 L506.602 1258.9 Z" fill="#000000" fill-rule="nonzero" fill-opacity="1" /><path clip-path="url(#clip750)" d="M549.194 1271.51 Q548.476 1271.1 547.62 1270.91 Q546.786 1270.7 545.768 1270.7 Q542.157 1270.7 540.212 1273.06 Q538.291 1275.4 538.291 1279.8 L538.291 1293.46 L534.009 1293.46 L534.009 1267.53 L538.291 1267.53 L538.291 1271.56 Q539.634 1269.2 541.787 1268.06 Q543.939 1266.91 547.018 1266.91 Q547.458 1266.91 547.99 1266.97 Q548.523 1267.02 549.171 1267.14 L549.194 1271.51 Z" fill="#000000" fill-rule="nonzero" fill-opacity="1" /><path clip-path="url(#clip750)" d="M574.796 1279.43 L574.796 1281.51 L555.212 1281.51 Q555.49 1285.91 557.851 1288.22 Q560.235 1290.52 564.472 1290.52 Q566.925 1290.52 569.217 1289.91 Q571.532 1289.31 573.8 1288.11 L573.8 1292.14 Q571.509 1293.11 569.101 1293.62 Q566.694 1294.13 564.217 1294.13 Q558.013 1294.13 554.379 1290.52 Q550.768 1286.91 550.768 1280.75 Q550.768 1274.38 554.194 1270.66 Q557.643 1266.91 563.476 1266.91 Q568.708 1266.91 571.74 1270.29 Q574.796 1273.64 574.796 1279.43 M570.536 1278.18 Q570.49 1274.68 568.569 1272.6 Q566.671 1270.52 563.522 1270.52 Q559.958 1270.52 557.805 1272.53 Q555.675 1274.54 555.351 1278.2 L570.536 1278.18 Z" fill="#000000" fill-rule="nonzero" fill-opacity="1" /><path clip-path="url(#clip750)" d="M598.846 1271.47 L598.846 1257.44 L603.106 1257.44 L603.106 1293.46 L598.846 1293.46 L598.846 1289.57 Q597.504 1291.88 595.444 1293.02 Q593.407 1294.13 590.536 1294.13 Q585.837 1294.13 582.874 1290.38 Q579.934 1286.63 579.934 1280.52 Q579.934 1274.41 582.874 1270.66 Q585.837 1266.91 590.536 1266.91 Q593.407 1266.91 595.444 1268.04 Q597.504 1269.15 598.846 1271.47 M584.333 1280.52 Q584.333 1285.22 586.254 1287.9 Q588.198 1290.56 591.578 1290.56 Q594.958 1290.56 596.902 1287.9 Q598.846 1285.22 598.846 1280.52 Q598.846 1275.82 596.902 1273.16 Q594.958 1270.47 591.578 1270.47 Q588.198 1270.47 586.254 1273.16 Q584.333 1275.82 584.333 1280.52 Z" fill="#000000" fill-rule="nonzero" fill-opacity="1" /><path clip-path="url(#clip750)" d="M611.879 1267.53 L616.138 1267.53 L616.138 1293.46 L611.879 1293.46 L611.879 1267.53 M611.879 1257.44 L616.138 1257.44 L616.138 1262.83 L611.879 1262.83 L611.879 1257.44 Z" fill="#000000" fill-rule="nonzero" fill-opacity="1" /><path clip-path="url(#clip750)" d="M643.707 1268.53 L643.707 1272.51 Q641.902 1271.51 640.073 1271.03 Q638.267 1270.52 636.416 1270.52 Q632.272 1270.52 629.98 1273.16 Q627.689 1275.77 627.689 1280.52 Q627.689 1285.26 629.98 1287.9 Q632.272 1290.52 636.416 1290.52 Q638.267 1290.52 640.073 1290.03 Q641.902 1289.52 643.707 1288.53 L643.707 1292.46 Q641.925 1293.29 640.004 1293.71 Q638.105 1294.13 635.953 1294.13 Q630.096 1294.13 626.647 1290.45 Q623.198 1286.77 623.198 1280.52 Q623.198 1274.17 626.67 1270.54 Q630.166 1266.91 636.23 1266.91 Q638.198 1266.91 640.073 1267.32 Q641.948 1267.72 643.707 1268.53 Z" fill="#000000" fill-rule="nonzero" fill-opacity="1" /><path clip-path="url(#clip750)" d="M655.328 1260.17 L655.328 1267.53 L664.101 1267.53 L664.101 1270.84 L655.328 1270.84 L655.328 1284.91 Q655.328 1288.09 656.184 1288.99 Q657.064 1289.89 659.726 1289.89 L664.101 1289.89 L664.101 1293.46 L659.726 1293.46 Q654.795 1293.46 652.92 1291.63 Q651.045 1289.78 651.045 1284.91 L651.045 1270.84 L647.92 1270.84 L647.92 1267.53 L651.045 1267.53 L651.045 1260.17 L655.328 1260.17 Z" fill="#000000" fill-rule="nonzero" fill-opacity="1" /><path clip-path="url(#clip750)" d="M691.878 1279.43 L691.878 1281.51 L672.295 1281.51 Q672.573 1285.91 674.934 1288.22 Q677.318 1290.52 681.554 1290.52 Q684.008 1290.52 686.3 1289.91 Q688.614 1289.31 690.883 1288.11 L690.883 1292.14 Q688.591 1293.11 686.184 1293.62 Q683.776 1294.13 681.3 1294.13 Q675.096 1294.13 671.462 1290.52 Q667.851 1286.91 667.851 1280.75 Q667.851 1274.38 671.277 1270.66 Q674.726 1266.91 680.559 1266.91 Q685.79 1266.91 688.823 1270.29 Q691.878 1273.64 691.878 1279.43 M687.619 1278.18 Q687.573 1274.68 685.651 1272.6 Q683.753 1270.52 680.605 1270.52 Q677.04 1270.52 674.888 1272.53 Q672.758 1274.54 672.434 1278.2 L687.619 1278.18 Z" fill="#000000" fill-rule="nonzero" fill-opacity="1" /><path clip-path="url(#clip750)" d="M715.929 1271.47 L715.929 1257.44 L720.188 1257.44 L720.188 1293.46 L715.929 1293.46 L715.929 1289.57 Q714.587 1291.88 712.526 1293.02 Q710.489 1294.13 707.619 1294.13 Q702.92 1294.13 699.957 1290.38 Q697.017 1286.63 697.017 1280.52 Q697.017 1274.41 699.957 1270.66 Q702.92 1266.91 707.619 1266.91 Q710.489 1266.91 712.526 1268.04 Q714.587 1269.15 715.929 1271.47 M701.415 1280.52 Q701.415 1285.22 703.337 1287.9 Q705.281 1290.56 708.661 1290.56 Q712.04 1290.56 713.985 1287.9 Q715.929 1285.22 715.929 1280.52 Q715.929 1275.82 713.985 1273.16 Q712.04 1270.47 708.661 1270.47 Q705.281 1270.47 703.337 1273.16 Q701.415 1275.82 701.415 1280.52 Z" fill="#000000" fill-rule="nonzero" fill-opacity="1" /><path clip-path="url(#clip750)" d="M748.892 1262.74 L748.892 1275.72 L754.771 1275.72 Q758.035 1275.72 759.818 1274.04 Q761.6 1272.35 761.6 1269.22 Q761.6 1266.12 759.818 1264.43 Q758.035 1262.74 754.771 1262.74 L748.892 1262.74 M744.216 1258.9 L754.771 1258.9 Q760.582 1258.9 763.545 1261.54 Q766.531 1264.15 766.531 1269.22 Q766.531 1274.34 763.545 1276.95 Q760.582 1279.57 754.771 1279.57 L748.892 1279.57 L748.892 1293.46 L744.216 1293.46 L744.216 1258.9 Z" fill="#000000" fill-rule="nonzero" fill-opacity="1" /><path clip-path="url(#clip750)" d="M780.975 1270.52 Q777.549 1270.52 775.558 1273.2 Q773.568 1275.86 773.568 1280.52 Q773.568 1285.17 775.535 1287.85 Q777.526 1290.52 780.975 1290.52 Q784.378 1290.52 786.369 1287.83 Q788.359 1285.15 788.359 1280.52 Q788.359 1275.91 786.369 1273.22 Q784.378 1270.52 780.975 1270.52 M780.975 1266.91 Q786.531 1266.91 789.702 1270.52 Q792.873 1274.13 792.873 1280.52 Q792.873 1286.88 789.702 1290.52 Q786.531 1294.13 780.975 1294.13 Q775.396 1294.13 772.225 1290.52 Q769.077 1286.88 769.077 1280.52 Q769.077 1274.13 772.225 1270.52 Q775.396 1266.91 780.975 1266.91 Z" fill="#000000" fill-rule="nonzero" fill-opacity="1" /><path clip-path="url(#clip750)" d="M799.933 1267.53 L804.193 1267.53 L804.193 1293.46 L799.933 1293.46 L799.933 1267.53 M799.933 1257.44 L804.193 1257.44 L804.193 1262.83 L799.933 1262.83 L799.933 1257.44 Z" fill="#000000" fill-rule="nonzero" fill-opacity="1" /><path clip-path="url(#clip750)" d="M834.655 1277.81 L834.655 1293.46 L830.396 1293.46 L830.396 1277.95 Q830.396 1274.27 828.961 1272.44 Q827.526 1270.61 824.655 1270.61 Q821.206 1270.61 819.216 1272.81 Q817.225 1275.01 817.225 1278.8 L817.225 1293.46 L812.942 1293.46 L812.942 1267.53 L817.225 1267.53 L817.225 1271.56 Q818.753 1269.22 820.813 1268.06 Q822.896 1266.91 825.604 1266.91 Q830.072 1266.91 832.364 1269.68 Q834.655 1272.44 834.655 1277.81 Z" fill="#000000" fill-rule="nonzero" fill-opacity="1" /><path clip-path="url(#clip750)" d="M847.364 1260.17 L847.364 1267.53 L856.137 1267.53 L856.137 1270.84 L847.364 1270.84 L847.364 1284.91 Q847.364 1288.09 848.22 1288.99 Q849.1 1289.89 851.762 1289.89 L856.137 1289.89 L856.137 1293.46 L851.762 1293.46 Q846.831 1293.46 844.956 1291.63 Q843.081 1289.78 843.081 1284.91 L843.081 1270.84 L839.956 1270.84 L839.956 1267.53 L843.081 1267.53 L843.081 1260.17 L847.364 1260.17 Z" fill="#000000" fill-rule="nonzero" fill-opacity="1" /><path clip-path="url(#clip750)" d="M878.266 1268.29 L878.266 1272.32 Q876.461 1271.4 874.516 1270.93 Q872.572 1270.47 870.488 1270.47 Q867.317 1270.47 865.72 1271.44 Q864.146 1272.41 864.146 1274.36 Q864.146 1275.84 865.28 1276.7 Q866.414 1277.53 869.84 1278.29 L871.299 1278.62 Q875.836 1279.59 877.734 1281.37 Q879.655 1283.13 879.655 1286.3 Q879.655 1289.91 876.785 1292.02 Q873.938 1294.13 868.938 1294.13 Q866.854 1294.13 864.586 1293.71 Q862.34 1293.32 859.84 1292.51 L859.84 1288.11 Q862.201 1289.34 864.493 1289.96 Q866.785 1290.56 869.03 1290.56 Q872.039 1290.56 873.66 1289.54 Q875.28 1288.5 875.28 1286.63 Q875.28 1284.89 874.1 1283.97 Q872.942 1283.04 868.984 1282.18 L867.502 1281.84 Q863.544 1281 861.785 1279.29 Q860.026 1277.55 860.026 1274.54 Q860.026 1270.89 862.618 1268.9 Q865.211 1266.91 869.979 1266.91 Q872.34 1266.91 874.424 1267.25 Q876.507 1267.6 878.266 1268.29 Z" fill="#000000" fill-rule="nonzero" fill-opacity="1" /><polyline clip-path="url(#clip750)" style="stroke:#3da44d; stroke-linecap:round; stroke-linejoin:round; stroke-width:8; stroke-opacity:1; fill:none" points="343.018,1328.02 483.232,1328.02 "/>
<path clip-path="url(#clip750)" d="M522.435 1315.34 L516.092 1332.54 L528.8 1332.54 L522.435 1315.34 M519.796 1310.74 L525.097 1310.74 L538.268 1345.3 L533.407 1345.3 L530.259 1336.43 L514.68 1336.43 L511.532 1345.3 L506.602 1345.3 L519.796 1310.74 Z" fill="#000000" fill-rule="nonzero" fill-opacity="1" /><path clip-path="url(#clip750)" d="M560.953 1320.37 L560.953 1324.35 Q559.148 1323.35 557.319 1322.87 Q555.513 1322.36 553.661 1322.36 Q549.518 1322.36 547.226 1325 Q544.935 1327.61 544.935 1332.36 Q544.935 1337.1 547.226 1339.74 Q549.518 1342.36 553.661 1342.36 Q555.513 1342.36 557.319 1341.87 Q559.148 1341.36 560.953 1340.37 L560.953 1344.3 Q559.171 1345.13 557.249 1345.55 Q555.351 1345.97 553.198 1345.97 Q547.342 1345.97 543.893 1342.29 Q540.444 1338.61 540.444 1332.36 Q540.444 1326.01 543.916 1322.38 Q547.411 1318.75 553.476 1318.75 Q555.444 1318.75 557.319 1319.16 Q559.194 1319.56 560.953 1320.37 Z" fill="#000000" fill-rule="nonzero" fill-opacity="1" /><path clip-path="url(#clip750)" d="M572.573 1312.01 L572.573 1319.37 L581.346 1319.37 L581.346 1322.68 L572.573 1322.68 L572.573 1336.75 Q572.573 1339.93 573.43 1340.83 Q574.309 1341.73 576.971 1341.73 L581.346 1341.73 L581.346 1345.3 L576.971 1345.3 Q572.041 1345.3 570.166 1343.47 Q568.291 1341.62 568.291 1336.75 L568.291 1322.68 L565.166 1322.68 L565.166 1319.37 L568.291 1319.37 L568.291 1312.01 L572.573 1312.01 Z" fill="#000000" fill-rule="nonzero" fill-opacity="1" /><path clip-path="url(#clip750)" d="M586.508 1335.06 L586.508 1319.37 L590.768 1319.37 L590.768 1334.9 Q590.768 1338.58 592.203 1340.44 Q593.638 1342.26 596.508 1342.26 Q599.957 1342.26 601.948 1340.06 Q603.962 1337.87 603.962 1334.07 L603.962 1319.37 L608.221 1319.37 L608.221 1345.3 L603.962 1345.3 L603.962 1341.31 Q602.411 1343.68 600.351 1344.83 Q598.314 1345.97 595.606 1345.97 Q591.138 1345.97 588.823 1343.19 Q586.508 1340.41 586.508 1335.06 M597.226 1318.75 L597.226 1318.75 Z" fill="#000000" fill-rule="nonzero" fill-opacity="1" /><path clip-path="url(#clip750)" d="M628.777 1332.26 Q623.615 1332.26 621.624 1333.44 Q619.633 1334.63 619.633 1337.47 Q619.633 1339.74 621.115 1341.08 Q622.619 1342.4 625.189 1342.4 Q628.73 1342.4 630.86 1339.9 Q633.013 1337.38 633.013 1333.21 L633.013 1332.26 L628.777 1332.26 M637.272 1330.5 L637.272 1345.3 L633.013 1345.3 L633.013 1341.36 Q631.555 1343.72 629.379 1344.86 Q627.203 1345.97 624.055 1345.97 Q620.073 1345.97 617.712 1343.75 Q615.374 1341.5 615.374 1337.75 Q615.374 1333.38 618.291 1331.15 Q621.231 1328.93 627.041 1328.93 L633.013 1328.93 L633.013 1328.51 Q633.013 1325.57 631.068 1323.98 Q629.147 1322.36 625.652 1322.36 Q623.43 1322.36 621.323 1322.89 Q619.217 1323.42 617.272 1324.49 L617.272 1320.55 Q619.61 1319.65 621.809 1319.21 Q624.008 1318.75 626.092 1318.75 Q631.717 1318.75 634.494 1321.66 Q637.272 1324.58 637.272 1330.5 Z" fill="#000000" fill-rule="nonzero" fill-opacity="1" /><path clip-path="url(#clip750)" d="M646.045 1309.28 L650.304 1309.28 L650.304 1345.3 L646.045 1345.3 L646.045 1309.28 Z" fill="#000000" fill-rule="nonzero" fill-opacity="1" /><path clip-path="url(#clip750)" d="M679.147 1314.58 L679.147 1341.45 L684.795 1341.45 Q691.948 1341.45 695.258 1338.21 Q698.591 1334.97 698.591 1327.98 Q698.591 1321.04 695.258 1317.82 Q691.948 1314.58 684.795 1314.58 L679.147 1314.58 M674.471 1310.74 L684.077 1310.74 Q694.124 1310.74 698.823 1314.93 Q703.522 1319.09 703.522 1327.98 Q703.522 1336.92 698.8 1341.11 Q694.077 1345.3 684.077 1345.3 L674.471 1345.3 L674.471 1310.74 Z" fill="#000000" fill-rule="nonzero" fill-opacity="1" /><path clip-path="url(#clip750)" d="M722.573 1332.26 Q717.411 1332.26 715.42 1333.44 Q713.429 1334.63 713.429 1337.47 Q713.429 1339.74 714.911 1341.08 Q716.415 1342.4 718.985 1342.4 Q722.526 1342.4 724.656 1339.9 Q726.809 1337.38 726.809 1333.21 L726.809 1332.26 L722.573 1332.26 M731.068 1330.5 L731.068 1345.3 L726.809 1345.3 L726.809 1341.36 Q725.35 1343.72 723.174 1344.86 Q720.999 1345.97 717.85 1345.97 Q713.869 1345.97 711.508 1343.75 Q709.17 1341.5 709.17 1337.75 Q709.17 1333.38 712.087 1331.15 Q715.026 1328.93 720.836 1328.93 L726.809 1328.93 L726.809 1328.51 Q726.809 1325.57 724.864 1323.98 Q722.943 1322.36 719.448 1322.36 Q717.225 1322.36 715.119 1322.89 Q713.012 1323.42 711.068 1324.49 L711.068 1320.55 Q713.406 1319.65 715.605 1319.21 Q717.804 1318.75 719.887 1318.75 Q725.512 1318.75 728.29 1321.66 Q731.068 1324.58 731.068 1330.5 Z" fill="#000000" fill-rule="nonzero" fill-opacity="1" /><path clip-path="url(#clip750)" d="M744.054 1312.01 L744.054 1319.37 L752.827 1319.37 L752.827 1322.68 L744.054 1322.68 L744.054 1336.75 Q744.054 1339.93 744.91 1340.83 Q745.79 1341.73 748.452 1341.73 L752.827 1341.73 L752.827 1345.3 L748.452 1345.3 Q743.522 1345.3 741.647 1343.47 Q739.772 1341.62 739.772 1336.75 L739.772 1322.68 L736.647 1322.68 L736.647 1319.37 L739.772 1319.37 L739.772 1312.01 L744.054 1312.01 Z" fill="#000000" fill-rule="nonzero" fill-opacity="1" /><path clip-path="url(#clip750)" d="M770.211 1332.26 Q765.049 1332.26 763.058 1333.44 Q761.068 1334.63 761.068 1337.47 Q761.068 1339.74 762.549 1341.08 Q764.054 1342.4 766.623 1342.4 Q770.165 1342.4 772.295 1339.9 Q774.447 1337.38 774.447 1333.21 L774.447 1332.26 L770.211 1332.26 M778.707 1330.5 L778.707 1345.3 L774.447 1345.3 L774.447 1341.36 Q772.989 1343.72 770.813 1344.86 Q768.637 1345.97 765.489 1345.97 Q761.508 1345.97 759.146 1343.75 Q756.808 1341.5 756.808 1337.75 Q756.808 1333.38 759.725 1331.15 Q762.665 1328.93 768.475 1328.93 L774.447 1328.93 L774.447 1328.51 Q774.447 1325.57 772.503 1323.98 Q770.582 1322.36 767.086 1322.36 Q764.864 1322.36 762.758 1322.89 Q760.651 1323.42 758.707 1324.49 L758.707 1320.55 Q761.045 1319.65 763.244 1319.21 Q765.443 1318.75 767.526 1318.75 Q773.151 1318.75 775.929 1321.66 Q778.707 1324.58 778.707 1330.5 Z" fill="#000000" fill-rule="nonzero" fill-opacity="1" /></svg>
