<?xml version="1.0" encoding="utf-8"?>
<svg xmlns="http://www.w3.org/2000/svg" xmlns:xlink="http://www.w3.org/1999/xlink" width="600" height="400" viewBox="0 0 2400 1600">
<defs>
  <clipPath id="clip430">
    <rect x="0" y="0" width="2400" height="1600"/>
  </clipPath>
</defs>
<path clip-path="url(#clip430)" d="M0 1600 L2400 1600 L2400 8.88178e-14 L0 8.88178e-14  Z" fill="#ffffff" fill-rule="evenodd" fill-opacity="1"/>
<defs>
  <clipPath id="clip431">
    <rect x="480" y="0" width="1681" height="1600"/>
  </clipPath>
</defs>
<path clip-path="url(#clip430)" d="M219.866 1423.18 L2352.76 1423.18 L2352.76 123.472 L219.866 123.472  Z" fill="#ffffff" fill-rule="evenodd" fill-opacity="1"/>
<defs>
  <clipPath id="clip432">
    <rect x="219" y="123" width="2134" height="1301"/>
  </clipPath>
</defs>
<polyline clip-path="url(#clip432)" style="stroke:#000000; stroke-linecap:round; stroke-linejoin:round; stroke-width:2; stroke-opacity:0.1; fill:none" points="259.906,1423.18 259.906,123.472 "/>
<polyline clip-path="url(#clip432)" style="stroke:#000000; stroke-linecap:round; stroke-linejoin:round; stroke-width:2; stroke-opacity:0.1; fill:none" points="768.027,1423.18 768.027,123.472 "/>
<polyline clip-path="url(#clip432)" style="stroke:#000000; stroke-linecap:round; stroke-linejoin:round; stroke-width:2; stroke-opacity:0.1; fill:none" points="1276.15,1423.18 1276.15,123.472 "/>
<polyline clip-path="url(#clip432)" style="stroke:#000000; stroke-linecap:round; stroke-linejoin:round; stroke-width:2; stroke-opacity:0.1; fill:none" points="1784.27,1423.18 1784.27,123.472 "/>
<polyline clip-path="url(#clip432)" style="stroke:#000000; stroke-linecap:round; stroke-linejoin:round; stroke-width:2; stroke-opacity:0.1; fill:none" points="2292.39,1423.18 2292.39,123.472 "/>
<polyline clip-path="url(#clip430)" style="stroke:#000000; stroke-linecap:round; stroke-linejoin:round; stroke-width:4; stroke-opacity:1; fill:none" points="219.866,1423.18 2352.76,1423.18 "/>
<polyline clip-path="url(#clip430)" style="stroke:#000000; stroke-linecap:round; stroke-linejoin:round; stroke-width:4; stroke-opacity:1; fill:none" points="259.906,1423.18 259.906,1404.28 "/>
<polyline clip-path="url(#clip430)" style="stroke:#000000; stroke-linecap:round; stroke-linejoin:round; stroke-width:4; stroke-opacity:1; fill:none" points="768.027,1423.18 768.027,1404.28 "/>
<polyline clip-path="url(#clip430)" style="stroke:#000000; stroke-linecap:round; stroke-linejoin:round; stroke-width:4; stroke-opacity:1; fill:none" points="1276.15,1423.18 1276.15,1404.28 "/>
<polyline clip-path="url(#clip430)" style="stroke:#000000; stroke-linecap:round; stroke-linejoin:round; stroke-width:4; stroke-opacity:1; fill:none" points="1784.27,1423.18 1784.27,1404.28 "/>
<polyline clip-path="url(#clip430)" style="stroke:#000000; stroke-linecap:round; stroke-linejoin:round; stroke-width:4; stroke-opacity:1; fill:none" points="2292.39,1423.18 2292.39,1404.28 "/>
<path clip-path="url(#clip430)" d="M259.906 1454.1 Q256.295 1454.1 254.466 1457.66 Q252.661 1461.2 252.661 1468.33 Q252.661 1475.44 254.466 1479.01 Q256.295 1482.55 259.906 1482.55 Q263.54 1482.55 265.346 1479.01 Q267.175 1475.44 267.175 1468.33 Q267.175 1461.2 265.346 1457.66 Q263.54 1454.1 259.906 1454.1 M259.906 1450.39 Q265.716 1450.39 268.772 1455 Q271.851 1459.58 271.851 1468.33 Q271.851 1477.06 268.772 1481.67 Q265.716 1486.25 259.906 1486.25 Q254.096 1486.25 251.017 1481.67 Q247.962 1477.06 247.962 1468.33 Q247.962 1459.58 251.017 1455 Q254.096 1450.39 259.906 1450.39 Z" fill="#000000" fill-rule="nonzero" fill-opacity="1" /><path clip-path="url(#clip430)" d="M747.298 1481.64 L763.618 1481.64 L763.618 1485.58 L741.673 1485.58 L741.673 1481.64 Q744.335 1478.89 748.919 1474.26 Q753.525 1469.61 754.706 1468.27 Q756.951 1465.74 757.831 1464.01 Q758.734 1462.25 758.734 1460.56 Q758.734 1457.8 756.789 1456.07 Q754.868 1454.33 751.766 1454.33 Q749.567 1454.33 747.113 1455.09 Q744.683 1455.86 741.905 1457.41 L741.905 1452.69 Q744.729 1451.55 747.183 1450.97 Q749.636 1450.39 751.673 1450.39 Q757.044 1450.39 760.238 1453.08 Q763.433 1455.77 763.433 1460.26 Q763.433 1462.39 762.622 1464.31 Q761.835 1466.2 759.729 1468.8 Q759.15 1469.47 756.048 1472.69 Q752.947 1475.88 747.298 1481.64 Z" fill="#000000" fill-rule="nonzero" fill-opacity="1" /><path clip-path="url(#clip430)" d="M773.479 1451.02 L791.835 1451.02 L791.835 1454.96 L777.761 1454.96 L777.761 1463.43 Q778.78 1463.08 779.798 1462.92 Q780.817 1462.73 781.835 1462.73 Q787.622 1462.73 791.002 1465.9 Q794.381 1469.08 794.381 1474.49 Q794.381 1480.07 790.909 1483.17 Q787.437 1486.25 781.118 1486.25 Q778.942 1486.25 776.673 1485.88 Q774.428 1485.51 772.02 1484.77 L772.02 1480.07 Q774.104 1481.2 776.326 1481.76 Q778.548 1482.32 781.025 1482.32 Q785.03 1482.32 787.368 1480.21 Q789.706 1478.1 789.706 1474.49 Q789.706 1470.88 787.368 1468.77 Q785.03 1466.67 781.025 1466.67 Q779.15 1466.67 777.275 1467.08 Q775.423 1467.5 773.479 1468.38 L773.479 1451.02 Z" fill="#000000" fill-rule="nonzero" fill-opacity="1" /><path clip-path="url(#clip430)" d="M1250.85 1451.02 L1269.2 1451.02 L1269.2 1454.96 L1255.13 1454.96 L1255.13 1463.43 Q1256.15 1463.08 1257.17 1462.92 Q1258.19 1462.73 1259.2 1462.73 Q1264.99 1462.73 1268.37 1465.9 Q1271.75 1469.08 1271.75 1474.49 Q1271.75 1480.07 1268.28 1483.17 Q1264.81 1486.25 1258.49 1486.25 Q1256.31 1486.25 1254.04 1485.88 Q1251.8 1485.51 1249.39 1484.77 L1249.39 1480.07 Q1251.47 1481.2 1253.7 1481.76 Q1255.92 1482.32 1258.39 1482.32 Q1262.4 1482.32 1264.74 1480.21 Q1267.07 1478.1 1267.07 1474.49 Q1267.07 1470.88 1264.74 1468.77 Q1262.4 1466.67 1258.39 1466.67 Q1256.52 1466.67 1254.64 1467.08 Q1252.79 1467.5 1250.85 1468.38 L1250.85 1451.02 Z" fill="#000000" fill-rule="nonzero" fill-opacity="1" /><path clip-path="url(#clip430)" d="M1290.96 1454.1 Q1287.35 1454.1 1285.52 1457.66 Q1283.72 1461.2 1283.72 1468.33 Q1283.72 1475.44 1285.52 1479.01 Q1287.35 1482.55 1290.96 1482.55 Q1294.6 1482.55 1296.4 1479.01 Q1298.23 1475.44 1298.23 1468.33 Q1298.23 1461.2 1296.4 1457.66 Q1294.6 1454.1 1290.96 1454.1 M1290.96 1450.39 Q1296.77 1450.39 1299.83 1455 Q1302.91 1459.58 1302.91 1468.33 Q1302.91 1477.06 1299.83 1481.67 Q1296.77 1486.25 1290.96 1486.25 Q1285.15 1486.25 1282.07 1481.67 Q1279.02 1477.06 1279.02 1468.33 Q1279.02 1459.58 1282.07 1455 Q1285.15 1450.39 1290.96 1450.39 Z" fill="#000000" fill-rule="nonzero" fill-opacity="1" /><path clip-path="url(#clip430)" d="M1758.12 1451.02 L1780.35 1451.02 L1780.35 1453.01 L1767.8 1485.58 L1762.92 1485.58 L1774.72 1454.96 L1758.12 1454.96 L1758.12 1451.02 Z" fill="#000000" fill-rule="nonzero" fill-opacity="1" /><path clip-path="url(#clip430)" d="M1789.51 1451.02 L1807.87 1451.02 L1807.87 1454.96 L1793.8 1454.96 L1793.8 1463.43 Q1794.81 1463.08 1795.83 1462.92 Q1796.85 1462.73 1797.87 1462.73 Q1803.66 1462.73 1807.04 1465.9 Q1810.42 1469.08 1810.42 1474.49 Q1810.42 1480.07 1806.94 1483.17 Q1803.47 1486.25 1797.15 1486.25 Q1794.98 1486.25 1792.71 1485.88 Q1790.46 1485.51 1788.05 1484.77 L1788.05 1480.07 Q1790.14 1481.2 1792.36 1481.76 Q1794.58 1482.32 1797.06 1482.32 Q1801.06 1482.32 1803.4 1480.21 Q1805.74 1478.1 1805.74 1474.49 Q1805.74 1470.88 1803.4 1468.77 Q1801.06 1466.67 1797.06 1466.67 Q1795.18 1466.67 1793.31 1467.08 Q1791.46 1467.5 1789.51 1468.38 L1789.51 1451.02 Z" fill="#000000" fill-rule="nonzero" fill-opacity="1" /><path clip-path="url(#clip430)" d="M2252 1481.64 L2259.64 1481.64 L2259.64 1455.28 L2251.33 1456.95 L2251.33 1452.69 L2259.59 1451.02 L2264.27 1451.02 L2264.27 1481.64 L2271.91 1481.64 L2271.91 1485.58 L2252 1485.58 L2252 1481.64 Z" fill="#000000" fill-rule="nonzero" fill-opacity="1" /><path clip-path="url(#clip430)" d="M2291.35 1454.1 Q2287.74 1454.1 2285.91 1457.66 Q2284.1 1461.2 2284.1 1468.33 Q2284.1 1475.44 2285.91 1479.01 Q2287.74 1482.55 2291.35 1482.55 Q2294.98 1482.55 2296.79 1479.01 Q2298.62 1475.44 2298.62 1468.33 Q2298.62 1461.2 2296.79 1457.66 Q2294.98 1454.1 2291.35 1454.1 M2291.35 1450.39 Q2297.16 1450.39 2300.22 1455 Q2303.29 1459.58 2303.29 1468.33 Q2303.29 1477.06 2300.22 1481.67 Q2297.16 1486.25 2291.35 1486.25 Q2285.54 1486.25 2282.46 1481.67 Q2279.41 1477.06 2279.41 1468.33 Q2279.41 1459.58 2282.46 1455 Q2285.54 1450.39 2291.35 1450.39 Z" fill="#000000" fill-rule="nonzero" fill-opacity="1" /><path clip-path="url(#clip430)" d="M2321.51 1454.1 Q2317.9 1454.1 2316.07 1457.66 Q2314.27 1461.2 2314.27 1468.33 Q2314.27 1475.44 2316.07 1479.01 Q2317.9 1482.55 2321.51 1482.55 Q2325.15 1482.55 2326.95 1479.01 Q2328.78 1475.44 2328.78 1468.33 Q2328.78 1461.2 2326.95 1457.66 Q2325.15 1454.1 2321.51 1454.1 M2321.51 1450.39 Q2327.32 1450.39 2330.38 1455 Q2333.46 1459.58 2333.46 1468.33 Q2333.46 1477.06 2330.38 1481.67 Q2327.32 1486.25 2321.51 1486.25 Q2315.7 1486.25 2312.62 1481.67 Q2309.57 1477.06 2309.57 1468.33 Q2309.57 1459.58 2312.62 1455 Q2315.7 1450.39 2321.51 1450.39 Z" fill="#000000" fill-rule="nonzero" fill-opacity="1" /><path clip-path="url(#clip430)" d="M1225.47 1522.27 L1225.47 1532.4 L1237.53 1532.4 L1237.53 1536.95 L1225.47 1536.95 L1225.47 1556.3 Q1225.47 1560.66 1226.65 1561.9 Q1227.86 1563.14 1231.52 1563.14 L1237.53 1563.14 L1237.53 1568.04 L1231.52 1568.04 Q1224.74 1568.04 1222.16 1565.53 Q1219.58 1562.98 1219.58 1556.3 L1219.58 1536.95 L1215.29 1536.95 L1215.29 1532.4 L1219.58 1532.4 L1219.58 1522.27 L1225.47 1522.27 Z" fill="#000000" fill-rule="nonzero" fill-opacity="1" /><path clip-path="url(#clip430)" d="M1245.24 1532.4 L1251.09 1532.4 L1251.09 1568.04 L1245.24 1568.04 L1245.24 1532.4 M1245.24 1518.52 L1251.09 1518.52 L1251.09 1525.93 L1245.24 1525.93 L1245.24 1518.52 Z" fill="#000000" fill-rule="nonzero" fill-opacity="1" /><path clip-path="url(#clip430)" d="M1291.1 1539.24 Q1293.3 1535.29 1296.35 1533.41 Q1299.41 1531.54 1303.55 1531.54 Q1309.12 1531.54 1312.14 1535.45 Q1315.16 1539.33 1315.16 1546.53 L1315.16 1568.04 L1309.28 1568.04 L1309.28 1546.72 Q1309.28 1541.59 1307.46 1539.11 Q1305.65 1536.63 1301.92 1536.63 Q1297.37 1536.63 1294.73 1539.65 Q1292.09 1542.68 1292.09 1547.9 L1292.09 1568.04 L1286.2 1568.04 L1286.2 1546.72 Q1286.2 1541.56 1284.39 1539.11 Q1282.57 1536.63 1278.78 1536.63 Q1274.3 1536.63 1271.65 1539.68 Q1269.01 1542.71 1269.01 1547.9 L1269.01 1568.04 L1263.12 1568.04 L1263.12 1532.4 L1269.01 1532.4 L1269.01 1537.93 Q1271.02 1534.66 1273.82 1533.1 Q1276.62 1531.54 1280.47 1531.54 Q1284.35 1531.54 1287.06 1533.51 Q1289.8 1535.48 1291.1 1539.24 Z" fill="#000000" fill-rule="nonzero" fill-opacity="1" /><path clip-path="url(#clip430)" d="M1357.34 1548.76 L1357.34 1551.62 L1330.41 1551.62 Q1330.79 1557.67 1334.04 1560.85 Q1337.32 1564 1343.14 1564 Q1346.51 1564 1349.67 1563.17 Q1352.85 1562.35 1355.97 1560.69 L1355.97 1566.23 Q1352.82 1567.57 1349.51 1568.27 Q1346.2 1568.97 1342.79 1568.97 Q1334.26 1568.97 1329.26 1564 Q1324.3 1559.04 1324.3 1550.57 Q1324.3 1541.82 1329.01 1536.69 Q1333.75 1531.54 1341.77 1531.54 Q1348.97 1531.54 1353.14 1536.18 Q1357.34 1540.8 1357.34 1548.76 M1351.48 1547.04 Q1351.42 1542.23 1348.77 1539.37 Q1346.16 1536.5 1341.84 1536.5 Q1336.93 1536.5 1333.97 1539.27 Q1331.05 1542.04 1330.6 1547.07 L1351.48 1547.04 Z" fill="#000000" fill-rule="nonzero" fill-opacity="1" /><polyline clip-path="url(#clip432)" style="stroke:#000000; stroke-linecap:round; stroke-linejoin:round; stroke-width:2; stroke-opacity:0.1; fill:none" points="219.866,1264.09 2352.76,1264.09 "/>
<polyline clip-path="url(#clip432)" style="stroke:#000000; stroke-linecap:round; stroke-linejoin:round; stroke-width:2; stroke-opacity:0.1; fill:none" points="219.866,1091.09 2352.76,1091.09 "/>
<polyline clip-path="url(#clip432)" style="stroke:#000000; stroke-linecap:round; stroke-linejoin:round; stroke-width:2; stroke-opacity:0.1; fill:none" points="219.866,918.103 2352.76,918.103 "/>
<polyline clip-path="url(#clip432)" style="stroke:#000000; stroke-linecap:round; stroke-linejoin:round; stroke-width:2; stroke-opacity:0.1; fill:none" points="219.866,745.111 2352.76,745.111 "/>
<polyline clip-path="url(#clip432)" style="stroke:#000000; stroke-linecap:round; stroke-linejoin:round; stroke-width:2; stroke-opacity:0.1; fill:none" points="219.866,572.119 2352.76,572.119 "/>
<polyline clip-path="url(#clip432)" style="stroke:#000000; stroke-linecap:round; stroke-linejoin:round; stroke-width:2; stroke-opacity:0.1; fill:none" points="219.866,399.127 2352.76,399.127 "/>
<polyline clip-path="url(#clip432)" style="stroke:#000000; stroke-linecap:round; stroke-linejoin:round; stroke-width:2; stroke-opacity:0.1; fill:none" points="219.866,226.135 2352.76,226.135 "/>
<polyline clip-path="url(#clip430)" style="stroke:#000000; stroke-linecap:round; stroke-linejoin:round; stroke-width:4; stroke-opacity:1; fill:none" points="219.866,1423.18 219.866,123.472 "/>
<polyline clip-path="url(#clip430)" style="stroke:#000000; stroke-linecap:round; stroke-linejoin:round; stroke-width:4; stroke-opacity:1; fill:none" points="219.866,1264.09 238.764,1264.09 "/>
<polyline clip-path="url(#clip430)" style="stroke:#000000; stroke-linecap:round; stroke-linejoin:round; stroke-width:4; stroke-opacity:1; fill:none" points="219.866,1091.09 238.764,1091.09 "/>
<polyline clip-path="url(#clip430)" style="stroke:#000000; stroke-linecap:round; stroke-linejoin:round; stroke-width:4; stroke-opacity:1; fill:none" points="219.866,918.103 238.764,918.103 "/>
<polyline clip-path="url(#clip430)" style="stroke:#000000; stroke-linecap:round; stroke-linejoin:round; stroke-width:4; stroke-opacity:1; fill:none" points="219.866,745.111 238.764,745.111 "/>
<polyline clip-path="url(#clip430)" style="stroke:#000000; stroke-linecap:round; stroke-linejoin:round; stroke-width:4; stroke-opacity:1; fill:none" points="219.866,572.119 238.764,572.119 "/>
<polyline clip-path="url(#clip430)" style="stroke:#000000; stroke-linecap:round; stroke-linejoin:round; stroke-width:4; stroke-opacity:1; fill:none" points="219.866,399.127 238.764,399.127 "/>
<polyline clip-path="url(#clip430)" style="stroke:#000000; stroke-linecap:round; stroke-linejoin:round; stroke-width:4; stroke-opacity:1; fill:none" points="219.866,226.135 238.764,226.135 "/>
<path clip-path="url(#clip430)" d="M128.288 1249.89 Q124.677 1249.89 122.848 1253.45 Q121.043 1256.99 121.043 1264.12 Q121.043 1271.23 122.848 1274.79 Q124.677 1278.33 128.288 1278.33 Q131.922 1278.33 133.728 1274.79 Q135.556 1271.23 135.556 1264.12 Q135.556 1256.99 133.728 1253.45 Q131.922 1249.89 128.288 1249.89 M128.288 1246.18 Q134.098 1246.18 137.154 1250.79 Q140.232 1255.37 140.232 1264.12 Q140.232 1272.85 137.154 1277.45 Q134.098 1282.04 128.288 1282.04 Q122.478 1282.04 119.399 1277.45 Q116.343 1272.85 116.343 1264.12 Q116.343 1255.37 119.399 1250.79 Q122.478 1246.18 128.288 1246.18 Z" fill="#000000" fill-rule="nonzero" fill-opacity="1" /><path clip-path="url(#clip430)" d="M148.45 1275.49 L153.334 1275.49 L153.334 1281.37 L148.45 1281.37 L148.45 1275.49 Z" fill="#000000" fill-rule="nonzero" fill-opacity="1" /><path clip-path="url(#clip430)" d="M167.547 1277.43 L183.866 1277.43 L183.866 1281.37 L161.922 1281.37 L161.922 1277.43 Q164.584 1274.68 169.167 1270.05 Q173.774 1265.39 174.954 1264.05 Q177.2 1261.53 178.079 1259.79 Q178.982 1258.03 178.982 1256.34 Q178.982 1253.59 177.038 1251.85 Q175.116 1250.12 172.014 1250.12 Q169.815 1250.12 167.362 1250.88 Q164.931 1251.64 162.153 1253.2 L162.153 1248.47 Q164.977 1247.34 167.431 1246.76 Q169.885 1246.18 171.922 1246.18 Q177.292 1246.18 180.487 1248.87 Q183.681 1251.55 183.681 1256.04 Q183.681 1258.17 182.871 1260.09 Q182.084 1261.99 179.977 1264.58 Q179.399 1265.26 176.297 1268.47 Q173.195 1271.67 167.547 1277.43 Z" fill="#000000" fill-rule="nonzero" fill-opacity="1" /><path clip-path="url(#clip430)" d="M127.339 1076.89 Q123.728 1076.89 121.899 1080.46 Q120.093 1084 120.093 1091.13 Q120.093 1098.24 121.899 1101.8 Q123.728 1105.34 127.339 1105.34 Q130.973 1105.34 132.779 1101.8 Q134.607 1098.24 134.607 1091.13 Q134.607 1084 132.779 1080.46 Q130.973 1076.89 127.339 1076.89 M127.339 1073.19 Q133.149 1073.19 136.204 1077.8 Q139.283 1082.38 139.283 1091.13 Q139.283 1099.86 136.204 1104.46 Q133.149 1109.05 127.339 1109.05 Q121.529 1109.05 118.45 1104.46 Q115.394 1099.86 115.394 1091.13 Q115.394 1082.38 118.45 1077.8 Q121.529 1073.19 127.339 1073.19 Z" fill="#000000" fill-rule="nonzero" fill-opacity="1" /><path clip-path="url(#clip430)" d="M147.501 1102.5 L152.385 1102.5 L152.385 1108.37 L147.501 1108.37 L147.501 1102.5 Z" fill="#000000" fill-rule="nonzero" fill-opacity="1" /><path clip-path="url(#clip430)" d="M176.737 1089.74 Q180.093 1090.46 181.968 1092.73 Q183.866 1095 183.866 1098.33 Q183.866 1103.44 180.348 1106.25 Q176.829 1109.05 170.348 1109.05 Q168.172 1109.05 165.857 1108.61 Q163.565 1108.19 161.112 1107.33 L161.112 1102.82 Q163.056 1103.95 165.371 1104.53 Q167.686 1105.11 170.209 1105.11 Q174.607 1105.11 176.899 1103.37 Q179.214 1101.64 179.214 1098.33 Q179.214 1095.27 177.061 1093.56 Q174.931 1091.82 171.112 1091.82 L167.084 1091.82 L167.084 1087.98 L171.297 1087.98 Q174.746 1087.98 176.575 1086.62 Q178.403 1085.23 178.403 1082.63 Q178.403 1079.97 176.505 1078.56 Q174.63 1077.12 171.112 1077.12 Q169.19 1077.12 166.991 1077.54 Q164.792 1077.96 162.153 1078.84 L162.153 1074.67 Q164.815 1073.93 167.13 1073.56 Q169.468 1073.19 171.528 1073.19 Q176.852 1073.19 179.954 1075.62 Q183.056 1078.03 183.056 1082.15 Q183.056 1085.02 181.413 1087.01 Q179.769 1088.98 176.737 1089.74 Z" fill="#000000" fill-rule="nonzero" fill-opacity="1" /><path clip-path="url(#clip430)" d="M126.205 903.902 Q122.593 903.902 120.765 907.466 Q118.959 911.008 118.959 918.138 Q118.959 925.244 120.765 928.809 Q122.593 932.351 126.205 932.351 Q129.839 932.351 131.644 928.809 Q133.473 925.244 133.473 918.138 Q133.473 911.008 131.644 907.466 Q129.839 903.902 126.205 903.902 M126.205 900.198 Q132.015 900.198 135.07 904.804 Q138.149 909.388 138.149 918.138 Q138.149 926.864 135.07 931.471 Q132.015 936.054 126.205 936.054 Q120.394 936.054 117.316 931.471 Q114.26 926.864 114.26 918.138 Q114.26 909.388 117.316 904.804 Q120.394 900.198 126.205 900.198 Z" fill="#000000" fill-rule="nonzero" fill-opacity="1" /><path clip-path="url(#clip430)" d="M146.366 929.503 L151.251 929.503 L151.251 935.383 L146.366 935.383 L146.366 929.503 Z" fill="#000000" fill-rule="nonzero" fill-opacity="1" /><path clip-path="url(#clip430)" d="M174.283 904.897 L162.477 923.346 L174.283 923.346 L174.283 904.897 M173.056 900.823 L178.936 900.823 L178.936 923.346 L183.866 923.346 L183.866 927.235 L178.936 927.235 L178.936 935.383 L174.283 935.383 L174.283 927.235 L158.681 927.235 L158.681 922.721 L173.056 900.823 Z" fill="#000000" fill-rule="nonzero" fill-opacity="1" /><path clip-path="url(#clip430)" d="M127.686 730.91 Q124.075 730.91 122.246 734.474 Q120.441 738.016 120.441 745.146 Q120.441 752.252 122.246 755.817 Q124.075 759.359 127.686 759.359 Q131.32 759.359 133.126 755.817 Q134.954 752.252 134.954 745.146 Q134.954 738.016 133.126 734.474 Q131.32 730.91 127.686 730.91 M127.686 727.206 Q133.496 727.206 136.552 731.812 Q139.63 736.396 139.63 745.146 Q139.63 753.873 136.552 758.479 Q133.496 763.062 127.686 763.062 Q121.876 763.062 118.797 758.479 Q115.742 753.873 115.742 745.146 Q115.742 736.396 118.797 731.812 Q121.876 727.206 127.686 727.206 Z" fill="#000000" fill-rule="nonzero" fill-opacity="1" /><path clip-path="url(#clip430)" d="M147.848 756.511 L152.732 756.511 L152.732 762.391 L147.848 762.391 L147.848 756.511 Z" fill="#000000" fill-rule="nonzero" fill-opacity="1" /><path clip-path="url(#clip430)" d="M162.964 727.831 L181.32 727.831 L181.32 731.766 L167.246 731.766 L167.246 740.238 Q168.264 739.891 169.283 739.729 Q170.302 739.544 171.32 739.544 Q177.107 739.544 180.487 742.715 Q183.866 745.886 183.866 751.303 Q183.866 756.882 180.394 759.984 Q176.922 763.062 170.602 763.062 Q168.427 763.062 166.158 762.692 Q163.913 762.322 161.505 761.581 L161.505 756.882 Q163.589 758.016 165.811 758.572 Q168.033 759.127 170.51 759.127 Q174.514 759.127 176.852 757.021 Q179.19 754.914 179.19 751.303 Q179.19 747.692 176.852 745.586 Q174.514 743.479 170.51 743.479 Q168.635 743.479 166.76 743.896 Q164.908 744.312 162.964 745.192 L162.964 727.831 Z" fill="#000000" fill-rule="nonzero" fill-opacity="1" /><path clip-path="url(#clip430)" d="M126.529 557.918 Q122.918 557.918 121.089 561.483 Q119.283 565.024 119.283 572.154 Q119.283 579.26 121.089 582.825 Q122.918 586.367 126.529 586.367 Q130.163 586.367 131.968 582.825 Q133.797 579.26 133.797 572.154 Q133.797 565.024 131.968 561.483 Q130.163 557.918 126.529 557.918 M126.529 554.214 Q132.339 554.214 135.394 558.821 Q138.473 563.404 138.473 572.154 Q138.473 580.881 135.394 585.487 Q132.339 590.07 126.529 590.07 Q120.718 590.07 117.64 585.487 Q114.584 580.881 114.584 572.154 Q114.584 563.404 117.64 558.821 Q120.718 554.214 126.529 554.214 Z" fill="#000000" fill-rule="nonzero" fill-opacity="1" /><path clip-path="url(#clip430)" d="M146.691 583.519 L151.575 583.519 L151.575 589.399 L146.691 589.399 L146.691 583.519 Z" fill="#000000" fill-rule="nonzero" fill-opacity="1" /><path clip-path="url(#clip430)" d="M172.339 570.256 Q169.19 570.256 167.339 572.408 Q165.51 574.561 165.51 578.311 Q165.51 582.038 167.339 584.214 Q169.19 586.367 172.339 586.367 Q175.487 586.367 177.315 584.214 Q179.167 582.038 179.167 578.311 Q179.167 574.561 177.315 572.408 Q175.487 570.256 172.339 570.256 M181.621 555.603 L181.621 559.862 Q179.862 559.029 178.056 558.589 Q176.274 558.149 174.514 558.149 Q169.885 558.149 167.431 561.274 Q165.001 564.399 164.653 570.719 Q166.019 568.705 168.079 567.64 Q170.139 566.552 172.616 566.552 Q177.825 566.552 180.834 569.723 Q183.866 572.871 183.866 578.311 Q183.866 583.635 180.718 586.853 Q177.57 590.07 172.339 590.07 Q166.343 590.07 163.172 585.487 Q160.001 580.881 160.001 572.154 Q160.001 563.959 163.89 559.098 Q167.778 554.214 174.329 554.214 Q176.089 554.214 177.871 554.561 Q179.676 554.909 181.621 555.603 Z" fill="#000000" fill-rule="nonzero" fill-opacity="1" /><path clip-path="url(#clip430)" d="M127.593 384.926 Q123.982 384.926 122.154 388.491 Q120.348 392.032 120.348 399.162 Q120.348 406.268 122.154 409.833 Q123.982 413.375 127.593 413.375 Q131.228 413.375 133.033 409.833 Q134.862 406.268 134.862 399.162 Q134.862 392.032 133.033 388.491 Q131.228 384.926 127.593 384.926 M127.593 381.222 Q133.404 381.222 136.459 385.829 Q139.538 390.412 139.538 399.162 Q139.538 407.889 136.459 412.495 Q133.404 417.078 127.593 417.078 Q121.783 417.078 118.705 412.495 Q115.649 407.889 115.649 399.162 Q115.649 390.412 118.705 385.829 Q121.783 381.222 127.593 381.222 Z" fill="#000000" fill-rule="nonzero" fill-opacity="1" /><path clip-path="url(#clip430)" d="M147.755 410.528 L152.64 410.528 L152.64 416.407 L147.755 416.407 L147.755 410.528 Z" fill="#000000" fill-rule="nonzero" fill-opacity="1" /><path clip-path="url(#clip430)" d="M161.644 381.847 L183.866 381.847 L183.866 383.838 L171.32 416.407 L166.436 416.407 L178.241 385.782 L161.644 385.782 L161.644 381.847 Z" fill="#000000" fill-rule="nonzero" fill-opacity="1" /><path clip-path="url(#clip430)" d="M126.783 211.934 Q123.172 211.934 121.343 215.499 Q119.538 219.04 119.538 226.17 Q119.538 233.276 121.343 236.841 Q123.172 240.383 126.783 240.383 Q130.417 240.383 132.223 236.841 Q134.052 233.276 134.052 226.17 Q134.052 219.04 132.223 215.499 Q130.417 211.934 126.783 211.934 M126.783 208.23 Q132.593 208.23 135.649 212.837 Q138.728 217.42 138.728 226.17 Q138.728 234.897 135.649 239.503 Q132.593 244.087 126.783 244.087 Q120.973 244.087 117.894 239.503 Q114.839 234.897 114.839 226.17 Q114.839 217.42 117.894 212.837 Q120.973 208.23 126.783 208.23 Z" fill="#000000" fill-rule="nonzero" fill-opacity="1" /><path clip-path="url(#clip430)" d="M146.945 237.536 L151.829 237.536 L151.829 243.415 L146.945 243.415 L146.945 237.536 Z" fill="#000000" fill-rule="nonzero" fill-opacity="1" /><path clip-path="url(#clip430)" d="M172.014 227.003 Q168.681 227.003 166.76 228.786 Q164.862 230.568 164.862 233.693 Q164.862 236.818 166.76 238.6 Q168.681 240.383 172.014 240.383 Q175.348 240.383 177.269 238.6 Q179.19 236.795 179.19 233.693 Q179.19 230.568 177.269 228.786 Q175.371 227.003 172.014 227.003 M167.339 225.013 Q164.329 224.272 162.64 222.212 Q160.973 220.152 160.973 217.189 Q160.973 213.045 163.913 210.638 Q166.876 208.23 172.014 208.23 Q177.176 208.23 180.116 210.638 Q183.056 213.045 183.056 217.189 Q183.056 220.152 181.366 222.212 Q179.7 224.272 176.714 225.013 Q180.093 225.8 181.968 228.091 Q183.866 230.383 183.866 233.693 Q183.866 238.716 180.788 241.401 Q177.732 244.087 172.014 244.087 Q166.297 244.087 163.218 241.401 Q160.163 238.716 160.163 233.693 Q160.163 230.383 162.061 228.091 Q163.959 225.8 167.339 225.013 M165.626 217.628 Q165.626 220.314 167.292 221.818 Q168.982 223.323 172.014 223.323 Q175.024 223.323 176.714 221.818 Q178.426 220.314 178.426 217.628 Q178.426 214.943 176.714 213.439 Q175.024 211.934 172.014 211.934 Q168.982 211.934 167.292 213.439 Q165.626 214.943 165.626 217.628 Z" fill="#000000" fill-rule="nonzero" fill-opacity="1" /><path clip-path="url(#clip430)" d="M28.3562 756.711 L45.7028 769.602 L64.0042 756.043 L64.0042 762.95 L49.9996 773.326 L64.0042 783.702 L64.0042 790.609 L45.3526 776.763 L28.3562 789.431 L28.3562 782.524 L41.0558 773.071 L28.3562 763.618 L28.3562 756.711 Z" fill="#000000" fill-rule="nonzero" fill-opacity="1" /><path clip-path="url(#clip430)" d="M531.85 12.096 L563.974 12.096 L563.974 18.9825 L539.345 18.9825 L539.345 33.8088 Q541.127 33.2012 542.909 32.9176 Q544.692 32.5936 546.474 32.5936 Q556.601 32.5936 562.516 38.1433 Q568.43 43.6931 568.43 53.1722 Q568.43 62.9348 562.354 68.3631 Q556.277 73.7508 545.218 73.7508 Q541.411 73.7508 537.441 73.1026 Q533.511 72.4545 529.298 71.1582 L529.298 62.9348 Q532.944 64.9198 536.833 65.892 Q540.722 66.8642 545.056 66.8642 Q552.064 66.8642 556.156 63.1779 Q560.247 59.4916 560.247 53.1722 Q560.247 46.8528 556.156 43.1664 Q552.064 39.4801 545.056 39.4801 Q541.775 39.4801 538.494 40.2093 Q535.253 40.9384 531.85 42.4778 L531.85 12.096 Z" fill="#000000" fill-rule="nonzero" fill-opacity="1" /><path clip-path="url(#clip430)" d="M602.053 17.4837 Q595.733 17.4837 592.533 23.7221 Q589.373 29.92 589.373 42.3968 Q589.373 54.833 592.533 61.0714 Q595.733 67.2693 602.053 67.2693 Q608.413 67.2693 611.572 61.0714 Q614.772 54.833 614.772 42.3968 Q614.772 29.92 611.572 23.7221 Q608.413 17.4837 602.053 17.4837 M602.053 11.0023 Q612.22 11.0023 617.568 19.0636 Q622.955 27.0843 622.955 42.3968 Q622.955 57.6687 617.568 65.73 Q612.22 73.7508 602.053 73.7508 Q591.885 73.7508 586.497 65.73 Q581.15 57.6687 581.15 42.3968 Q581.15 27.0843 586.497 19.0636 Q591.885 11.0023 602.053 11.0023 Z" fill="#000000" fill-rule="nonzero" fill-opacity="1" /><path clip-path="url(#clip430)" d="M654.836 17.4837 Q648.516 17.4837 645.316 23.7221 Q642.157 29.92 642.157 42.3968 Q642.157 54.833 645.316 61.0714 Q648.516 67.2693 654.836 67.2693 Q661.196 67.2693 664.356 61.0714 Q667.556 54.833 667.556 42.3968 Q667.556 29.92 664.356 23.7221 Q661.196 17.4837 654.836 17.4837 M654.836 11.0023 Q665.004 11.0023 670.351 19.0636 Q675.739 27.0843 675.739 42.3968 Q675.739 57.6687 670.351 65.73 Q665.004 73.7508 654.836 73.7508 Q644.668 73.7508 639.28 65.73 Q633.933 57.6687 633.933 42.3968 Q633.933 27.0843 639.28 19.0636 Q644.668 11.0023 654.836 11.0023 Z" fill="#000000" fill-rule="nonzero" fill-opacity="1" /><path clip-path="url(#clip430)" d="M707.619 17.4837 Q701.3 17.4837 698.1 23.7221 Q694.94 29.92 694.94 42.3968 Q694.94 54.833 698.1 61.0714 Q701.3 67.2693 707.619 67.2693 Q713.979 67.2693 717.139 61.0714 Q720.339 54.833 720.339 42.3968 Q720.339 29.92 717.139 23.7221 Q713.979 17.4837 707.619 17.4837 M707.619 11.0023 Q717.787 11.0023 723.134 19.0636 Q728.522 27.0843 728.522 42.3968 Q728.522 57.6687 723.134 65.73 Q717.787 73.7508 707.619 73.7508 Q697.451 73.7508 692.064 65.73 Q686.716 57.6687 686.716 42.3968 Q686.716 27.0843 692.064 19.0636 Q697.451 11.0023 707.619 11.0023 Z" fill="#000000" fill-rule="nonzero" fill-opacity="1" /><path clip-path="url(#clip430)" d="M804.8 14.0809 L804.8 22.0612 Q800.142 19.8332 796.01 18.7395 Q791.878 17.6457 788.03 17.6457 Q781.346 17.6457 777.7 20.2383 Q774.095 22.8309 774.095 27.611 Q774.095 31.6214 776.485 33.6873 Q778.915 35.7128 785.64 36.9686 L790.582 37.9813 Q799.737 39.7232 804.071 44.1387 Q808.446 48.5136 808.446 55.8863 Q808.446 64.6767 802.532 69.2137 Q796.658 73.7508 785.275 73.7508 Q780.981 73.7508 776.12 72.7785 Q771.299 71.8063 766.114 69.9024 L766.114 61.4765 Q771.097 64.2716 775.877 65.6895 Q780.657 67.1073 785.275 67.1073 Q792.283 67.1073 796.091 64.3527 Q799.899 61.598 799.899 56.4939 Q799.899 52.0379 797.144 49.5264 Q794.43 47.0148 788.192 45.759 L783.209 44.7868 Q774.054 42.9639 769.963 39.075 Q765.871 35.1862 765.871 28.2591 Q765.871 20.2383 771.502 15.6203 Q777.173 11.0023 787.098 11.0023 Q791.351 11.0023 795.767 11.7719 Q800.182 12.5416 804.8 14.0809 Z" fill="#000000" fill-rule="nonzero" fill-opacity="1" /><path clip-path="url(#clip430)" d="M841.502 49.7694 Q832.468 49.7694 828.984 51.8354 Q825.5 53.9013 825.5 58.8839 Q825.5 62.8538 828.093 65.2034 Q830.726 67.5124 835.223 67.5124 Q841.421 67.5124 845.147 63.1374 Q848.915 58.7219 848.915 51.4303 L848.915 49.7694 L841.502 49.7694 M856.368 46.6907 L856.368 72.576 L848.915 72.576 L848.915 65.6895 Q846.363 69.8214 842.555 71.8063 Q838.747 73.7508 833.238 73.7508 Q826.27 73.7508 822.138 69.8619 Q818.047 65.9325 818.047 59.3701 Q818.047 51.7138 823.151 47.825 Q828.296 43.9361 838.463 43.9361 L848.915 43.9361 L848.915 43.2069 Q848.915 38.0623 845.512 35.2672 Q842.15 32.4315 836.033 32.4315 Q832.144 32.4315 828.458 33.3632 Q824.771 34.295 821.369 36.1584 L821.369 29.2718 Q825.46 27.692 829.308 26.9223 Q833.157 26.1121 836.802 26.1121 Q846.646 26.1121 851.507 31.2163 Q856.368 36.3204 856.368 46.6907 Z" fill="#000000" fill-rule="nonzero" fill-opacity="1" /><path clip-path="url(#clip430)" d="M907.045 35.9153 Q909.84 30.8922 913.729 28.5022 Q917.618 26.1121 922.884 26.1121 Q929.973 26.1121 933.822 31.0947 Q937.67 36.0368 937.67 45.1919 L937.67 72.576 L930.176 72.576 L930.176 45.4349 Q930.176 38.913 927.867 35.7533 Q925.558 32.5936 920.818 32.5936 Q915.025 32.5936 911.663 36.4419 Q908.301 40.2903 908.301 46.9338 L908.301 72.576 L900.807 72.576 L900.807 45.4349 Q900.807 38.8725 898.498 35.7533 Q896.189 32.5936 891.368 32.5936 Q885.656 32.5936 882.294 36.4824 Q878.932 40.3308 878.932 46.9338 L878.932 72.576 L871.438 72.576 L871.438 27.2059 L878.932 27.2059 L878.932 34.2544 Q881.484 30.082 885.049 28.0971 Q888.614 26.1121 893.515 26.1121 Q898.457 26.1121 901.901 28.6237 Q905.384 31.1352 907.045 35.9153 Z" fill="#000000" fill-rule="nonzero" fill-opacity="1" /><path clip-path="url(#clip430)" d="M959.747 65.7705 L959.747 89.8329 L952.253 89.8329 L952.253 27.2059 L959.747 27.2059 L959.747 34.0924 Q962.097 30.0415 965.662 28.0971 Q969.267 26.1121 974.25 26.1121 Q982.514 26.1121 987.658 32.6746 Q992.843 39.2371 992.843 49.9314 Q992.843 60.6258 987.658 67.1883 Q982.514 73.7508 974.25 73.7508 Q969.267 73.7508 965.662 71.8063 Q962.097 69.8214 959.747 65.7705 M985.106 49.9314 Q985.106 41.7081 981.703 37.0496 Q978.341 32.3505 972.427 32.3505 Q966.512 32.3505 963.11 37.0496 Q959.747 41.7081 959.747 49.9314 Q959.747 58.1548 963.11 62.8538 Q966.512 67.5124 972.427 67.5124 Q978.341 67.5124 981.703 62.8538 Q985.106 58.1548 985.106 49.9314 Z" fill="#000000" fill-rule="nonzero" fill-opacity="1" /><path clip-path="url(#clip430)" d="M1005.2 9.54393 L1012.65 9.54393 L1012.65 72.576 L1005.2 72.576 L1005.2 9.54393 Z" fill="#000000" fill-rule="nonzero" fill-opacity="1" /><path clip-path="url(#clip430)" d="M1067.06 48.0275 L1067.06 51.6733 L1032.79 51.6733 Q1033.27 59.3701 1037.4 63.421 Q1041.58 67.4314 1048.99 67.4314 Q1053.28 67.4314 1057.29 66.3781 Q1061.34 65.3249 1065.31 63.2184 L1065.31 70.267 Q1061.3 71.9684 1057.09 72.8596 Q1052.88 73.7508 1048.54 73.7508 Q1037.69 73.7508 1031.33 67.4314 Q1025.01 61.1119 1025.01 50.3365 Q1025.01 39.1965 1031 32.6746 Q1037.04 26.1121 1047.25 26.1121 Q1056.4 26.1121 1061.71 32.0264 Q1067.06 37.9003 1067.06 48.0275 M1059.6 45.84 Q1059.52 39.7232 1056.16 36.0774 Q1052.84 32.4315 1047.33 32.4315 Q1041.09 32.4315 1037.32 35.9558 Q1033.6 39.4801 1033.03 45.8805 L1059.6 45.84 Z" fill="#000000" fill-rule="nonzero" fill-opacity="1" /><path clip-path="url(#clip430)" d="M1105.99 12.096 L1118.18 12.096 L1133.61 53.2532 L1149.13 12.096 L1161.32 12.096 L1161.32 72.576 L1153.34 72.576 L1153.34 19.4686 L1137.74 60.9499 L1129.52 60.9499 L1113.92 19.4686 L1113.92 72.576 L1105.99 72.576 L1105.99 12.096 Z" fill="#000000" fill-rule="nonzero" fill-opacity="1" /><path clip-path="url(#clip430)" d="M1216.05 48.0275 L1216.05 51.6733 L1181.78 51.6733 Q1182.26 59.3701 1186.4 63.421 Q1190.57 67.4314 1197.98 67.4314 Q1202.28 67.4314 1206.29 66.3781 Q1210.34 65.3249 1214.31 63.2184 L1214.31 70.267 Q1210.3 71.9684 1206.08 72.8596 Q1201.87 73.7508 1197.54 73.7508 Q1186.68 73.7508 1180.32 67.4314 Q1174 61.1119 1174 50.3365 Q1174 39.1965 1180 32.6746 Q1186.03 26.1121 1196.24 26.1121 Q1205.39 26.1121 1210.7 32.0264 Q1216.05 37.9003 1216.05 48.0275 M1208.59 45.84 Q1208.51 39.7232 1205.15 36.0774 Q1201.83 32.4315 1196.32 32.4315 Q1190.08 32.4315 1186.31 35.9558 Q1182.59 39.4801 1182.02 45.8805 L1208.59 45.84 Z" fill="#000000" fill-rule="nonzero" fill-opacity="1" /><path clip-path="url(#clip430)" d="M1248.9 49.7694 Q1239.87 49.7694 1236.38 51.8354 Q1232.9 53.9013 1232.9 58.8839 Q1232.9 62.8538 1235.49 65.2034 Q1238.13 67.5124 1242.62 67.5124 Q1248.82 67.5124 1252.55 63.1374 Q1256.31 58.7219 1256.31 51.4303 L1256.31 49.7694 L1248.9 49.7694 M1263.77 46.6907 L1263.77 72.576 L1256.31 72.576 L1256.31 65.6895 Q1253.76 69.8214 1249.95 71.8063 Q1246.15 73.7508 1240.64 73.7508 Q1233.67 73.7508 1229.54 69.8619 Q1225.45 65.9325 1225.45 59.3701 Q1225.45 51.7138 1230.55 47.825 Q1235.7 43.9361 1245.86 43.9361 L1256.31 43.9361 L1256.31 43.2069 Q1256.31 38.0623 1252.91 35.2672 Q1249.55 32.4315 1243.43 32.4315 Q1239.54 32.4315 1235.86 33.3632 Q1232.17 34.295 1228.77 36.1584 L1228.77 29.2718 Q1232.86 27.692 1236.71 26.9223 Q1240.56 26.1121 1244.2 26.1121 Q1254.05 26.1121 1258.91 31.2163 Q1263.77 36.3204 1263.77 46.6907 Z" fill="#000000" fill-rule="nonzero" fill-opacity="1" /><path clip-path="url(#clip430)" d="M1316.83 45.1919 L1316.83 72.576 L1309.38 72.576 L1309.38 45.4349 Q1309.38 38.994 1306.87 35.7938 Q1304.36 32.5936 1299.33 32.5936 Q1293.3 32.5936 1289.82 36.4419 Q1286.33 40.2903 1286.33 46.9338 L1286.33 72.576 L1278.84 72.576 L1278.84 27.2059 L1286.33 27.2059 L1286.33 34.2544 Q1289 30.163 1292.61 28.1376 Q1296.26 26.1121 1301 26.1121 Q1308.81 26.1121 1312.82 30.9732 Q1316.83 35.7938 1316.83 45.1919 Z" fill="#000000" fill-rule="nonzero" fill-opacity="1" /><path clip-path="url(#clip430)" d="M1378.69 49.7694 Q1369.66 49.7694 1366.17 51.8354 Q1362.69 53.9013 1362.69 58.8839 Q1362.69 62.8538 1365.28 65.2034 Q1367.92 67.5124 1372.41 67.5124 Q1378.61 67.5124 1382.34 63.1374 Q1386.11 58.7219 1386.11 51.4303 L1386.11 49.7694 L1378.69 49.7694 M1393.56 46.6907 L1393.56 72.576 L1386.11 72.576 L1386.11 65.6895 Q1383.55 69.8214 1379.75 71.8063 Q1375.94 73.7508 1370.43 73.7508 Q1363.46 73.7508 1359.33 69.8619 Q1355.24 65.9325 1355.24 59.3701 Q1355.24 51.7138 1360.34 47.825 Q1365.49 43.9361 1375.65 43.9361 L1386.11 43.9361 L1386.11 43.2069 Q1386.11 38.0623 1382.7 35.2672 Q1379.34 32.4315 1373.22 32.4315 Q1369.33 32.4315 1365.65 33.3632 Q1361.96 34.295 1358.56 36.1584 L1358.56 29.2718 Q1362.65 27.692 1366.5 26.9223 Q1370.35 26.1121 1373.99 26.1121 Q1383.84 26.1121 1388.7 31.2163 Q1393.56 36.3204 1393.56 46.6907 Z" fill="#000000" fill-rule="nonzero" fill-opacity="1" /><path clip-path="url(#clip430)" d="M1446.63 45.1919 L1446.63 72.576 L1439.17 72.576 L1439.17 45.4349 Q1439.17 38.994 1436.66 35.7938 Q1434.15 32.5936 1429.13 32.5936 Q1423.09 32.5936 1419.61 36.4419 Q1416.12 40.2903 1416.12 46.9338 L1416.12 72.576 L1408.63 72.576 L1408.63 27.2059 L1416.12 27.2059 L1416.12 34.2544 Q1418.8 30.163 1422.4 28.1376 Q1426.05 26.1121 1430.79 26.1121 Q1438.6 26.1121 1442.62 30.9732 Q1446.63 35.7938 1446.63 45.1919 Z" fill="#000000" fill-rule="nonzero" fill-opacity="1" /><path clip-path="url(#clip430)" d="M1491.35 34.0924 L1491.35 9.54393 L1498.8 9.54393 L1498.8 72.576 L1491.35 72.576 L1491.35 65.7705 Q1489 69.8214 1485.39 71.8063 Q1481.83 73.7508 1476.8 73.7508 Q1468.58 73.7508 1463.4 67.1883 Q1458.25 60.6258 1458.25 49.9314 Q1458.25 39.2371 1463.4 32.6746 Q1468.58 26.1121 1476.8 26.1121 Q1481.83 26.1121 1485.39 28.0971 Q1489 30.0415 1491.35 34.0924 M1465.95 49.9314 Q1465.95 58.1548 1469.31 62.8538 Q1472.71 67.5124 1478.63 67.5124 Q1484.54 67.5124 1487.94 62.8538 Q1491.35 58.1548 1491.35 49.9314 Q1491.35 41.7081 1487.94 37.0496 Q1484.54 32.3505 1478.63 32.3505 Q1472.71 32.3505 1469.31 37.0496 Q1465.95 41.7081 1465.95 49.9314 Z" fill="#000000" fill-rule="nonzero" fill-opacity="1" /><path clip-path="url(#clip430)" d="M1577.11 14.0809 L1577.11 22.0612 Q1572.45 19.8332 1568.31 18.7395 Q1564.18 17.6457 1560.33 17.6457 Q1553.65 17.6457 1550 20.2383 Q1546.4 22.8309 1546.4 27.611 Q1546.4 31.6214 1548.79 33.6873 Q1551.22 35.7128 1557.94 36.9686 L1562.89 37.9813 Q1572.04 39.7232 1576.38 44.1387 Q1580.75 48.5136 1580.75 55.8863 Q1580.75 64.6767 1574.84 69.2137 Q1568.96 73.7508 1557.58 73.7508 Q1553.29 73.7508 1548.42 72.7785 Q1543.6 71.8063 1538.42 69.9024 L1538.42 61.4765 Q1543.4 64.2716 1548.18 65.6895 Q1552.96 67.1073 1557.58 67.1073 Q1564.59 67.1073 1568.4 64.3527 Q1572.2 61.598 1572.2 56.4939 Q1572.2 52.0379 1569.45 49.5264 Q1566.73 47.0148 1560.5 45.759 L1555.51 44.7868 Q1546.36 42.9639 1542.27 39.075 Q1538.18 35.1862 1538.18 28.2591 Q1538.18 20.2383 1543.81 15.6203 Q1549.48 11.0023 1559.4 11.0023 Q1563.66 11.0023 1568.07 11.7719 Q1572.49 12.5416 1577.11 14.0809 Z" fill="#000000" fill-rule="nonzero" fill-opacity="1" /><path clip-path="url(#clip430)" d="M1600.56 14.324 L1600.56 27.2059 L1615.91 27.2059 L1615.91 32.9987 L1600.56 32.9987 L1600.56 57.6282 Q1600.56 63.1779 1602.06 64.7578 Q1603.6 66.3376 1608.26 66.3376 L1615.91 66.3376 L1615.91 72.576 L1608.26 72.576 Q1599.63 72.576 1596.35 69.3758 Q1593.07 66.1351 1593.07 57.6282 L1593.07 32.9987 L1587.6 32.9987 L1587.6 27.2059 L1593.07 27.2059 L1593.07 14.324 L1600.56 14.324 Z" fill="#000000" fill-rule="nonzero" fill-opacity="1" /><path clip-path="url(#clip430)" d="M1655.57 34.0924 L1655.57 9.54393 L1663.02 9.54393 L1663.02 72.576 L1655.57 72.576 L1655.57 65.7705 Q1653.22 69.8214 1649.62 71.8063 Q1646.05 73.7508 1641.03 73.7508 Q1632.81 73.7508 1627.62 67.1883 Q1622.48 60.6258 1622.48 49.9314 Q1622.48 39.2371 1627.62 32.6746 Q1632.81 26.1121 1641.03 26.1121 Q1646.05 26.1121 1649.62 28.0971 Q1653.22 30.0415 1655.57 34.0924 M1630.17 49.9314 Q1630.17 58.1548 1633.53 62.8538 Q1636.94 67.5124 1642.85 67.5124 Q1648.77 67.5124 1652.17 62.8538 Q1655.57 58.1548 1655.57 49.9314 Q1655.57 41.7081 1652.17 37.0496 Q1648.77 32.3505 1642.85 32.3505 Q1636.94 32.3505 1633.53 37.0496 Q1630.17 41.7081 1630.17 49.9314 Z" fill="#000000" fill-rule="nonzero" fill-opacity="1" /><path clip-path="url(#clip430)" d="M1679.43 62.2867 L1687.98 62.2867 L1687.98 72.576 L1679.43 72.576 L1679.43 62.2867 Z" fill="#000000" fill-rule="nonzero" fill-opacity="1" /><path clip-path="url(#clip430)" d="M1706.65 62.2867 L1715.2 62.2867 L1715.2 69.2543 L1708.56 82.2172 L1703.33 82.2172 L1706.65 69.2543 L1706.65 62.2867 Z" fill="#000000" fill-rule="nonzero" fill-opacity="1" /><path clip-path="url(#clip430)" d="M1790.34 20.0358 Q1786.21 17.2001 1776.53 17.2001 Q1766.28 17.2001 1766.28 21.9397 Q1766.28 25.6665 1776.98 27.611 Q1785.4 29.1098 1790.14 33.6468 Q1795.89 39.1155 1795.89 50.3365 Q1795.89 61.0714 1790.34 67.3908 Q1784.8 73.7508 1775.07 73.7508 Q1765.39 73.7508 1759.8 67.3908 Q1754.25 61.0714 1754.25 49.9314 Q1754.25 41.6676 1759.8 34.9836 Q1761.95 32.391 1764.99 30.9327 Q1758.67 27.7325 1758.67 22.0207 Q1758.67 11.0023 1776.53 11.0023 Q1785.48 11.0023 1790.34 13.8379 L1790.34 20.0358 M1770.58 32.9582 Q1767.82 34.1329 1765.59 37.0901 Q1762.11 41.6676 1762.11 49.9314 Q1762.11 58.1548 1765.55 62.7728 Q1769.04 67.4314 1775.07 67.4314 Q1781.03 67.4314 1784.51 62.7323 Q1788 58.0333 1788 50.3365 Q1788 42.2752 1784.31 38.3864 Q1780.38 34.2139 1775.28 33.7683 Q1772.68 33.5253 1770.58 32.9582 Z" fill="#000000" fill-rule="nonzero" fill-opacity="1" /><path clip-path="url(#clip430)" d="M1845.96 27.2059 L1829.56 49.2833 L1846.81 72.576 L1838.02 72.576 L1824.82 54.752 L1811.61 72.576 L1802.82 72.576 L1820.44 48.8377 L1804.32 27.2059 L1813.11 27.2059 L1825.14 43.369 L1837.17 27.2059 L1845.96 27.2059 Z" fill="#000000" fill-rule="nonzero" fill-opacity="1" /><path clip-path="url(#clip430)" d="M1858.32 34.9026 L1910.25 34.9026 L1910.25 41.7081 L1858.32 41.7081 L1858.32 34.9026 M1858.32 51.4303 L1910.25 51.4303 L1910.25 58.3168 L1858.32 58.3168 L1858.32 51.4303 Z" fill="#000000" fill-rule="nonzero" fill-opacity="1" /><path clip-path="url(#clip430)" d="M1945.41 17.4837 Q1939.09 17.4837 1935.89 23.7221 Q1932.73 29.92 1932.73 42.3968 Q1932.73 54.833 1935.89 61.0714 Q1939.09 67.2693 1945.41 67.2693 Q1951.77 67.2693 1954.93 61.0714 Q1958.13 54.833 1958.13 42.3968 Q1958.13 29.92 1954.93 23.7221 Q1951.77 17.4837 1945.41 17.4837 M1945.41 11.0023 Q1955.58 11.0023 1960.93 19.0636 Q1966.32 27.0843 1966.32 42.3968 Q1966.32 57.6687 1960.93 65.73 Q1955.58 73.7508 1945.41 73.7508 Q1935.25 73.7508 1929.86 65.73 Q1924.51 57.6687 1924.51 42.3968 Q1924.51 27.0843 1929.86 19.0636 Q1935.25 11.0023 1945.41 11.0023 Z" fill="#000000" fill-rule="nonzero" fill-opacity="1" /><path clip-path="url(#clip430)" d="M1980.7 62.2867 L1989.24 62.2867 L1989.24 72.576 L1980.7 72.576 L1980.7 62.2867 Z" fill="#000000" fill-rule="nonzero" fill-opacity="1" /><path clip-path="url(#clip430)" d="M2008.49 65.6895 L2021.85 65.6895 L2021.85 19.5497 L2007.31 22.4663 L2007.31 15.0127 L2021.77 12.096 L2029.96 12.096 L2029.96 65.6895 L2043.32 65.6895 L2043.32 72.576 L2008.49 72.576 L2008.49 65.6895 Z" fill="#000000" fill-rule="nonzero" fill-opacity="1" /><path clip-path="url(#clip432)" d="M280.231 1327.27 L300.556 1323.25 L320.881 1331.8 L341.206 1348.3 L361.53 1352.14 L381.855 1352.84 L402.18 1355.29 L422.505 1365.5 L442.83 1360.41 L463.155 1373.73 L483.48 1362.38 L503.804 1369.62 L524.129 1368.68 L544.454 1367.23 L564.779 1352.94 L585.104 1359.96 L605.429 1376.29 L625.753 1351.21 L646.078 1355.01 L666.403 1356.12 L686.728 1324.01 L707.053 1335.88 L727.378 1324.57 L747.703 1326.68 L768.027 1318.17 L788.352 1310.73 L808.677 1294.47 L829.002 1288.07 L849.327 1285.13 L869.652 1284.4 L889.977 1262.05 L910.301 1263.57 L930.626 1251.25 L950.951 1238.28 L971.276 1241.57 L991.601 1241.53 L1011.93 1243.95 L1032.25 1247.59 L1052.58 1258.28 L1072.9 1243.61 L1093.23 1261.5 L1113.55 1251.6 L1133.87 1268.07 L1154.2 1274.16 L1174.52 1292.5 L1194.85 1282.84 L1215.17 1307.68 L1235.5 1325.57 L1255.82 1324.08 L1276.15 1327.75 L1296.47 1336.57 L1316.8 1346.3 L1337.12 1350.03 L1357.45 1357.71 L1377.77 1368.23 L1398.1 1361.42 L1418.42 1359.03 L1438.75 1376.4 L1459.07 1371.59 L1479.4 1363.25 L1499.72 1372 L1520.05 1365.71 L1540.37 1386.4 L1560.7 1373.46 L1581.02 1363.46 L1601.35 1370.48 L1621.67 1351.07 L1642 1363.46 L1662.32 1347.3 L1682.65 1345.53 L1702.97 1323.39 L1723.3 1329.65 L1743.62 1335.61 L1763.95 1304.19 L1784.27 1295.99 L1804.59 1289.69 L1824.92 1284.02 L1845.24 1285.26 L1865.57 1277.65 L1885.89 1268.03 L1906.22 1278.73 L1926.54 1260.6 L1946.87 1252.08 L1967.19 1255.27 L1987.52 1248.62 L2007.84 1248.66 L2028.17 1254.33 L2048.49 1246.13 L2068.82 1259.35 L2089.14 1251.32 L2109.47 1249.73 L2129.79 1262.33 L2150.12 1269.18 L2170.44 1270.59 L2190.77 1290.94 L2211.09 1292.29 L2231.42 1302.36 L2251.74 1316.02 L2272.07 1310.94 L2292.39 1329.72 L2292.39 251.7 L2272.07 232.913 L2251.74 237.999 L2231.42 224.333 L2211.09 214.264 L2190.77 212.915 L2170.44 192.571 L2150.12 191.153 L2129.79 184.302 L2109.47 171.708 L2089.14 173.3 L2068.82 181.327 L2048.49 168.11 L2028.17 176.31 L2007.84 170.636 L1987.52 170.601 L1967.19 177.244 L1946.87 174.061 L1926.54 182.572 L1906.22 200.702 L1885.89 190.011 L1865.57 199.629 L1845.24 207.241 L1824.92 205.995 L1804.59 211.67 L1784.27 217.966 L1763.95 226.166 L1743.62 257.582 L1723.3 251.631 L1702.97 245.368 L1682.65 267.511 L1662.32 269.276 L1642 285.433 L1621.67 273.047 L1601.35 292.457 L1581.02 285.433 L1560.7 295.432 L1540.37 308.372 L1520.05 287.682 L1499.72 293.979 L1479.4 285.226 L1459.07 293.564 L1438.75 298.373 L1418.42 281.005 L1398.1 283.392 L1377.77 290.208 L1357.45 279.69 L1337.12 272.009 L1316.8 268.272 L1296.47 258.55 L1276.15 249.728 L1255.82 246.06 L1235.5 247.548 L1215.17 229.661 L1194.85 204.819 L1174.52 214.472 L1154.2 196.135 L1133.87 190.046 L1113.55 173.577 L1093.23 183.472 L1072.9 165.584 L1052.58 180.254 L1032.25 169.563 L1011.93 165.93 L991.601 163.509 L971.276 163.543 L950.951 160.256 L930.626 173.231 L910.301 185.548 L889.977 184.025 L869.652 206.376 L849.327 207.103 L829.002 210.043 L808.677 216.444 L788.352 232.705 L768.027 240.144 L747.703 248.655 L727.378 246.545 L707.053 257.858 L686.728 245.991 L666.403 278.098 L646.078 276.991 L625.753 273.185 L605.429 298.269 L585.104 281.939 L564.779 274.915 L544.454 289.204 L524.129 290.658 L503.804 291.592 L483.48 284.361 L463.155 295.709 L442.83 282.389 L422.505 287.475 L402.18 277.268 L381.855 274.812 L361.53 274.12 L341.206 270.279 L320.881 253.776 L300.556 245.23 L280.231 249.243  Z" fill="#009af9" fill-rule="evenodd" fill-opacity="0.5"/>
<polyline clip-path="url(#clip432)" style="stroke:#009af9; stroke-linecap:round; stroke-linejoin:round; stroke-width:8; stroke-opacity:0.8; fill:none" points="280.231,788.255 300.556,784.242 320.881,792.788 341.206,809.291 361.53,813.131 381.855,813.823 402.18,816.28 422.505,826.486 442.83,821.4 463.155,834.721 483.48,823.373 503.804,830.604 524.129,829.669 544.454,828.216 564.779,813.927 585.104,820.951 605.429,837.281 625.753,812.197 646.078,816.003 666.403,817.11 686.728,785.003 707.053,796.87 727.378,785.557 747.703,787.667 768.027,779.156 788.352,771.717 808.677,755.456 829.002,749.055 849.327,746.114 869.652,745.388 889.977,723.037 910.301,724.56 930.626,712.243 950.951,699.268 971.276,702.555 991.601,702.52 1011.93,704.942 1032.25,708.575 1052.58,719.266 1072.9,704.596 1093.23,722.484 1113.55,712.589 1133.87,729.057 1154.2,735.147 1174.52,753.484 1194.85,743.831 1215.17,768.673 1235.5,786.56 1255.82,785.072 1276.15,788.74 1296.47,797.562 1316.8,807.284 1337.12,811.021 1357.45,818.702 1377.77,829.22 1398.1,822.404 1418.42,820.017 1438.75,837.385 1459.07,832.576 1479.4,824.238 1499.72,832.991 1520.05,826.694 1540.37,847.384 1560.7,834.444 1581.02,824.445 1601.35,831.469 1621.67,812.059 1642,824.445 1662.32,808.288 1682.65,806.523 1702.97,784.38 1723.3,790.642 1743.62,796.593 1763.95,765.178 1784.27,756.978 1804.59,750.681 1824.92,745.007 1845.24,746.253 1865.57,738.641 1885.89,729.023 1906.22,739.714 1926.54,721.584 1946.87,713.073 1967.19,716.256 1987.52,709.613 2007.84,709.648 2028.17,715.322 2048.49,707.122 2068.82,720.339 2089.14,712.312 2109.47,710.72 2129.79,723.314 2150.12,730.165 2170.44,731.583 2190.77,751.927 2211.09,753.276 2231.42,763.344 2251.74,777.011 2272.07,771.925 2292.39,790.712 "/>
<path clip-path="url(#clip432)" d="M280.231 1020.11 L300.556 1020.43 L320.881 1020.81 L341.206 1021.25 L361.53 1021.73 L381.855 1022.27 L402.18 1022.84 L422.505 1023.44 L442.83 1024.06 L463.155 1024.7 L483.48 1025.34 L503.804 1025.96 L524.129 1026.57 L544.454 1027.14 L564.779 1027.66 L585.104 1028.12 L605.429 1028.51 L625.753 1028.84 L646.078 1029.08 L666.403 1029.25 L686.728 1029.34 L707.053 1029.35 L727.378 1029.28 L747.703 1029.14 L768.027 1028.93 L788.352 1028.65 L808.677 1028.32 L829.002 1027.92 L849.327 1027.47 L869.652 1026.98 L889.977 1026.44 L910.301 1025.86 L930.626 1025.25 L950.951 1024.62 L971.276 1023.98 L991.601 1023.35 L1011.93 1022.72 L1032.25 1022.13 L1052.58 1021.57 L1072.9 1021.06 L1093.23 1020.62 L1113.55 1020.24 L1133.87 1019.93 L1154.2 1019.71 L1174.52 1019.56 L1194.85 1019.49 L1215.17 1019.5 L1235.5 1019.59 L1255.82 1019.75 L1276.15 1019.97 L1296.47 1020.26 L1316.8 1020.62 L1337.12 1021.02 L1357.45 1021.49 L1377.77 1022 L1398.1 1022.55 L1418.42 1023.13 L1438.75 1023.75 L1459.07 1024.38 L1479.4 1025.02 L1499.72 1025.65 L1520.05 1026.27 L1540.37 1026.86 L1560.7 1027.4 L1581.02 1027.89 L1601.35 1028.32 L1621.67 1028.68 L1642 1028.97 L1662.32 1029.18 L1682.65 1029.3 L1702.97 1029.35 L1723.3 1029.32 L1743.62 1029.22 L1763.95 1029.04 L1784.27 1028.8 L1804.59 1028.49 L1824.92 1028.13 L1845.24 1027.7 L1865.57 1027.23 L1885.89 1026.71 L1906.22 1026.15 L1926.54 1025.56 L1946.87 1024.94 L1967.19 1024.3 L1987.52 1023.66 L2007.84 1023.03 L2028.17 1022.42 L2048.49 1021.84 L2068.82 1021.31 L2089.14 1020.83 L2109.47 1020.42 L2129.79 1020.08 L2150.12 1019.81 L2170.44 1019.62 L2190.77 1019.52 L2211.09 1019.49 L2231.42 1019.54 L2251.74 1019.66 L2272.07 1019.85 L2292.39 1020.11 L2292.39 461.82 L2272.07 461.56 L2251.74 461.368 L2231.42 461.246 L2211.09 461.197 L2190.77 461.226 L2170.44 461.333 L2150.12 461.52 L2129.79 461.786 L2109.47 462.127 L2089.14 462.541 L2068.82 463.018 L2048.49 463.551 L2028.17 464.129 L2007.84 464.74 L1987.52 465.372 L1967.19 466.011 L1946.87 466.646 L1926.54 467.265 L1906.22 467.859 L1885.89 468.42 L1865.57 468.939 L1845.24 469.413 L1824.92 469.835 L1804.59 470.201 L1784.27 470.508 L1763.95 470.751 L1743.62 470.926 L1723.3 471.03 L1702.97 471.06 L1682.65 471.012 L1662.32 470.885 L1642 470.678 L1621.67 470.394 L1601.35 470.034 L1581.02 469.604 L1560.7 469.111 L1540.37 468.566 L1520.05 467.979 L1499.72 467.362 L1479.4 466.727 L1459.07 466.088 L1438.75 465.456 L1418.42 464.842 L1398.1 464.255 L1377.77 463.704 L1357.45 463.195 L1337.12 462.734 L1316.8 462.325 L1296.47 461.973 L1276.15 461.682 L1255.82 461.456 L1235.5 461.298 L1215.17 461.212 L1194.85 461.202 L1174.52 461.269 L1154.2 461.417 L1133.87 461.643 L1113.55 461.947 L1093.23 462.325 L1072.9 462.772 L1052.58 463.278 L1032.25 463.836 L1011.93 464.432 L991.601 465.054 L971.276 465.691 L950.951 466.33 L930.626 466.958 L910.301 467.566 L889.977 468.144 L869.652 468.685 L849.327 469.182 L829.002 469.631 L808.677 470.025 L788.352 470.362 L768.027 470.638 L747.703 470.847 L727.378 470.987 L707.053 471.054 L686.728 471.045 L666.403 470.958 L646.078 470.791 L625.753 470.546 L605.429 470.223 L585.104 469.827 L564.779 469.365 L544.454 468.845 L524.129 468.277 L503.804 467.673 L483.48 467.046 L463.155 466.407 L442.83 465.77 L422.505 465.146 L402.18 464.544 L381.855 463.975 L361.53 463.444 L341.206 462.958 L320.881 462.523 L300.556 462.142 L280.231 461.82  Z" fill="#e26f46" fill-rule="evenodd" fill-opacity="0.5"/>
<polyline clip-path="url(#clip432)" style="stroke:#e26f46; stroke-linecap:round; stroke-linejoin:round; stroke-width:8; stroke-opacity:0.8; fill:none" points="280.231,740.965 300.556,741.287 320.881,741.668 341.206,742.104 361.53,742.589 381.855,743.12 402.18,743.69 422.505,744.291 442.83,744.916 463.155,745.553 483.48,746.191 503.804,746.819 524.129,747.423 544.454,747.99 564.779,748.51 585.104,748.973 605.429,749.368 625.753,749.691 646.078,749.937 666.403,750.104 686.728,750.191 707.053,750.2 727.378,750.133 747.703,749.993 768.027,749.783 788.352,749.508 808.677,749.171 829.002,748.776 849.327,748.328 869.652,747.831 889.977,747.29 910.301,746.711 930.626,746.104 950.951,745.475 971.276,744.837 991.601,744.2 1011.93,743.577 1032.25,742.981 1052.58,742.424 1072.9,741.917 1093.23,741.471 1113.55,741.093 1133.87,740.788 1154.2,740.562 1174.52,740.415 1194.85,740.347 1215.17,740.358 1235.5,740.443 1255.82,740.601 1276.15,740.828 1296.47,741.119 1316.8,741.471 1337.12,741.879 1357.45,742.341 1377.77,742.849 1398.1,743.401 1418.42,743.987 1438.75,744.601 1459.07,745.233 1479.4,745.873 1499.72,746.507 1520.05,747.124 1540.37,747.712 1560.7,748.257 1581.02,748.749 1601.35,749.179 1621.67,749.539 1642,749.824 1662.32,750.03 1682.65,750.157 1702.97,750.205 1723.3,750.176 1743.62,750.072 1763.95,749.896 1784.27,749.653 1804.59,749.347 1824.92,748.98 1845.24,748.558 1865.57,748.085 1885.89,747.565 1906.22,747.005 1926.54,746.411 1946.87,745.791 1967.19,745.156 1987.52,744.517 2007.84,743.886 2028.17,743.275 2048.49,742.697 2068.82,742.164 2089.14,741.686 2109.47,741.273 2129.79,740.931 2150.12,740.665 2170.44,740.479 2190.77,740.371 2211.09,740.343 2231.42,740.391 2251.74,740.513 2272.07,740.706 2292.39,740.965 "/>
<path clip-path="url(#clip430)" d="M1565.06 322.316 L2281.66 322.316 L2281.66 166.796 L1565.06 166.796  Z" fill="#ffffff" fill-rule="evenodd" fill-opacity="1"/>
<polyline clip-path="url(#clip430)" style="stroke:#000000; stroke-linecap:round; stroke-linejoin:round; stroke-width:4; stroke-opacity:1; fill:none" points="1565.06,322.316 2281.66,322.316 2281.66,166.796 1565.06,166.796 1565.06,322.316 "/>
<polyline clip-path="url(#clip430)" style="stroke:#009af9; stroke-linecap:round; stroke-linejoin:round; stroke-width:8; stroke-opacity:0.8; fill:none" points="1588.76,218.636 1730.95,218.636 "/>
<path clip-path="url(#clip430)" d="M1754.65 201.356 L1761.62 201.356 L1770.44 224.874 L1779.31 201.356 L1786.27 201.356 L1786.27 235.916 L1781.71 235.916 L1781.71 205.569 L1772.8 229.272 L1768.1 229.272 L1759.19 205.569 L1759.19 235.916 L1754.65 235.916 L1754.65 201.356 Z" fill="#000000" fill-rule="nonzero" fill-opacity="1" /><path clip-path="url(#clip430)" d="M1800.23 205.198 L1800.23 218.184 L1806.11 218.184 Q1809.38 218.184 1811.16 216.495 Q1812.94 214.805 1812.94 211.68 Q1812.94 208.578 1811.16 206.888 Q1809.38 205.198 1806.11 205.198 L1800.23 205.198 M1795.56 201.356 L1806.11 201.356 Q1811.92 201.356 1814.88 203.995 Q1817.87 206.61 1817.87 211.68 Q1817.87 216.795 1814.88 219.411 Q1811.92 222.027 1806.11 222.027 L1800.23 222.027 L1800.23 235.916 L1795.56 235.916 L1795.56 201.356 Z" fill="#000000" fill-rule="nonzero" fill-opacity="1" /><path clip-path="url(#clip430)" d="M1844.86 202.49 L1844.86 207.05 Q1842.2 205.777 1839.84 205.152 Q1837.48 204.527 1835.28 204.527 Q1831.46 204.527 1829.38 206.008 Q1827.31 207.49 1827.31 210.221 Q1827.31 212.513 1828.68 213.694 Q1830.07 214.851 1833.91 215.569 L1836.74 216.147 Q1841.97 217.143 1844.44 219.666 Q1846.94 222.166 1846.94 226.379 Q1846.94 231.402 1843.56 233.994 Q1840.21 236.587 1833.7 236.587 Q1831.25 236.587 1828.47 236.031 Q1825.72 235.476 1822.75 234.388 L1822.75 229.573 Q1825.6 231.17 1828.33 231.981 Q1831.06 232.791 1833.7 232.791 Q1837.71 232.791 1839.88 231.217 Q1842.06 229.643 1842.06 226.726 Q1842.06 224.18 1840.49 222.744 Q1838.94 221.309 1835.37 220.592 L1832.52 220.036 Q1827.29 218.995 1824.95 216.772 Q1822.62 214.55 1822.62 210.592 Q1822.62 206.008 1825.83 203.37 Q1829.07 200.731 1834.75 200.731 Q1837.18 200.731 1839.7 201.171 Q1842.22 201.61 1844.86 202.49 Z" fill="#000000" fill-rule="nonzero" fill-opacity="1" /><path clip-path="url(#clip430)" d="M1873.98 205.198 L1873.98 232.073 L1879.63 232.073 Q1886.78 232.073 1890.09 228.832 Q1893.43 225.592 1893.43 218.601 Q1893.43 211.657 1890.09 208.439 Q1886.78 205.198 1879.63 205.198 L1873.98 205.198 M1869.31 201.356 L1878.91 201.356 Q1888.96 201.356 1893.66 205.546 Q1898.36 209.712 1898.36 218.601 Q1898.36 227.536 1893.63 231.726 Q1888.91 235.916 1878.91 235.916 L1869.31 235.916 L1869.31 201.356 Z" fill="#000000" fill-rule="nonzero" fill-opacity="1" /><path clip-path="url(#clip430)" d="M1905.62 209.99 L1909.88 209.99 L1909.88 235.916 L1905.62 235.916 L1905.62 209.99 M1905.62 199.897 L1909.88 199.897 L1909.88 205.291 L1905.62 205.291 L1905.62 199.897 Z" fill="#000000" fill-rule="nonzero" fill-opacity="1" /><path clip-path="url(#clip430)" d="M1935.32 210.754 L1935.32 214.782 Q1933.52 213.856 1931.57 213.393 Q1929.63 212.93 1927.55 212.93 Q1924.37 212.93 1922.78 213.902 Q1921.2 214.874 1921.2 216.819 Q1921.2 218.3 1922.34 219.157 Q1923.47 219.99 1926.9 220.754 L1928.36 221.078 Q1932.89 222.05 1934.79 223.832 Q1936.71 225.592 1936.71 228.763 Q1936.71 232.374 1933.84 234.481 Q1930.99 236.587 1925.99 236.587 Q1923.91 236.587 1921.64 236.17 Q1919.4 235.777 1916.9 234.967 L1916.9 230.569 Q1919.26 231.795 1921.55 232.42 Q1923.84 233.022 1926.09 233.022 Q1929.1 233.022 1930.72 232.004 Q1932.34 230.962 1932.34 229.087 Q1932.34 227.351 1931.16 226.425 Q1930 225.499 1926.04 224.643 L1924.56 224.295 Q1920.6 223.462 1918.84 221.749 Q1917.08 220.013 1917.08 217.004 Q1917.08 213.346 1919.68 211.356 Q1922.27 209.365 1927.04 209.365 Q1929.4 209.365 1931.48 209.712 Q1933.56 210.059 1935.32 210.754 Z" fill="#000000" fill-rule="nonzero" fill-opacity="1" /><path clip-path="url(#clip430)" d="M1947.71 202.629 L1947.71 209.99 L1956.48 209.99 L1956.48 213.3 L1947.71 213.3 L1947.71 227.374 Q1947.71 230.545 1948.56 231.448 Q1949.44 232.351 1952.11 232.351 L1956.48 232.351 L1956.48 235.916 L1952.11 235.916 Q1947.18 235.916 1945.3 234.087 Q1943.43 232.235 1943.43 227.374 L1943.43 213.3 L1940.3 213.3 L1940.3 209.99 L1943.43 209.99 L1943.43 202.629 L1947.71 202.629 Z" fill="#000000" fill-rule="nonzero" fill-opacity="1" /><path clip-path="url(#clip430)" d="M1977.11 213.971 Q1976.39 213.555 1975.53 213.37 Q1974.7 213.161 1973.68 213.161 Q1970.07 213.161 1968.12 215.522 Q1966.2 217.86 1966.2 222.258 L1966.2 235.916 L1961.92 235.916 L1961.92 209.99 L1966.2 209.99 L1966.2 214.018 Q1967.55 211.657 1969.7 210.522 Q1971.85 209.365 1974.93 209.365 Q1975.37 209.365 1975.9 209.434 Q1976.43 209.481 1977.08 209.596 L1977.11 213.971 Z" fill="#000000" fill-rule="nonzero" fill-opacity="1" /><path clip-path="url(#clip430)" d="M1981.57 209.99 L1985.83 209.99 L1985.83 235.916 L1981.57 235.916 L1981.57 209.99 M1981.57 199.897 L1985.83 199.897 L1985.83 205.291 L1981.57 205.291 L1981.57 199.897 Z" fill="#000000" fill-rule="nonzero" fill-opacity="1" /><path clip-path="url(#clip430)" d="M2013.36 222.976 Q2013.36 218.277 2011.41 215.615 Q2009.49 212.93 2006.11 212.93 Q2002.73 212.93 2000.79 215.615 Q1998.86 218.277 1998.86 222.976 Q1998.86 227.675 2000.79 230.36 Q2002.73 233.022 2006.11 233.022 Q2009.49 233.022 2011.41 230.36 Q2013.36 227.675 2013.36 222.976 M1998.86 213.925 Q2000.21 211.61 2002.24 210.499 Q2004.3 209.365 2007.15 209.365 Q2011.87 209.365 2014.81 213.115 Q2017.78 216.865 2017.78 222.976 Q2017.78 229.087 2014.81 232.837 Q2011.87 236.587 2007.15 236.587 Q2004.3 236.587 2002.24 235.476 Q2000.21 234.342 1998.86 232.027 L1998.86 235.916 L1994.58 235.916 L1994.58 199.897 L1998.86 199.897 L1998.86 213.925 Z" fill="#000000" fill-rule="nonzero" fill-opacity="1" /><path clip-path="url(#clip430)" d="M2024.4 225.684 L2024.4 209.99 L2028.66 209.99 L2028.66 225.522 Q2028.66 229.203 2030.09 231.055 Q2031.53 232.883 2034.4 232.883 Q2037.85 232.883 2039.84 230.684 Q2041.85 228.485 2041.85 224.689 L2041.85 209.99 L2046.11 209.99 L2046.11 235.916 L2041.85 235.916 L2041.85 231.934 Q2040.3 234.295 2038.24 235.453 Q2036.2 236.587 2033.49 236.587 Q2029.03 236.587 2026.71 233.809 Q2024.4 231.031 2024.4 225.684 M2035.11 209.365 L2035.11 209.365 Z" fill="#000000" fill-rule="nonzero" fill-opacity="1" /><path clip-path="url(#clip430)" d="M2059.1 202.629 L2059.1 209.99 L2067.87 209.99 L2067.87 213.3 L2059.1 213.3 L2059.1 227.374 Q2059.1 230.545 2059.95 231.448 Q2060.83 232.351 2063.49 232.351 L2067.87 232.351 L2067.87 235.916 L2063.49 235.916 Q2058.56 235.916 2056.69 234.087 Q2054.81 232.235 2054.81 227.374 L2054.81 213.3 L2051.69 213.3 L2051.69 209.99 L2054.81 209.99 L2054.81 202.629 L2059.1 202.629 Z" fill="#000000" fill-rule="nonzero" fill-opacity="1" /><path clip-path="url(#clip430)" d="M2073.47 209.99 L2077.73 209.99 L2077.73 235.916 L2073.47 235.916 L2073.47 209.99 M2073.47 199.897 L2077.73 199.897 L2077.73 205.291 L2073.47 205.291 L2073.47 199.897 Z" fill="#000000" fill-rule="nonzero" fill-opacity="1" /><path clip-path="url(#clip430)" d="M2096.69 212.976 Q2093.26 212.976 2091.27 215.661 Q2089.28 218.323 2089.28 222.976 Q2089.28 227.629 2091.25 230.314 Q2093.24 232.976 2096.69 232.976 Q2100.09 232.976 2102.08 230.291 Q2104.07 227.606 2104.07 222.976 Q2104.07 218.37 2102.08 215.684 Q2100.09 212.976 2096.69 212.976 M2096.69 209.365 Q2102.24 209.365 2105.42 212.976 Q2108.59 216.587 2108.59 222.976 Q2108.59 229.342 2105.42 232.976 Q2102.24 236.587 2096.69 236.587 Q2091.11 236.587 2087.94 232.976 Q2084.79 229.342 2084.79 222.976 Q2084.79 216.587 2087.94 212.976 Q2091.11 209.365 2096.69 209.365 Z" fill="#000000" fill-rule="nonzero" fill-opacity="1" /><path clip-path="url(#clip430)" d="M2137.2 220.268 L2137.2 235.916 L2132.94 235.916 L2132.94 220.407 Q2132.94 216.726 2131.5 214.897 Q2130.07 213.069 2127.2 213.069 Q2123.75 213.069 2121.76 215.268 Q2119.77 217.467 2119.77 221.263 L2119.77 235.916 L2115.48 235.916 L2115.48 209.99 L2119.77 209.99 L2119.77 214.018 Q2121.29 211.68 2123.36 210.522 Q2125.44 209.365 2128.15 209.365 Q2132.61 209.365 2134.91 212.143 Q2137.2 214.897 2137.2 220.268 Z" fill="#000000" fill-rule="nonzero" fill-opacity="1" /><polyline clip-path="url(#clip430)" style="stroke:#e26f46; stroke-linecap:round; stroke-linejoin:round; stroke-width:8; stroke-opacity:0.8; fill:none" points="1588.76,270.476 1730.95,270.476 "/>
<path clip-path="url(#clip430)" d="M1754.65 253.196 L1776.51 253.196 L1776.51 257.131 L1759.33 257.131 L1759.33 267.362 L1775.79 267.362 L1775.79 271.297 L1759.33 271.297 L1759.33 283.821 L1776.92 283.821 L1776.92 287.756 L1754.65 287.756 L1754.65 253.196 Z" fill="#000000" fill-rule="nonzero" fill-opacity="1" /><path clip-path="url(#clip430)" d="M1804.61 266.807 Q1806.2 263.936 1808.43 262.571 Q1810.65 261.205 1813.66 261.205 Q1817.71 261.205 1819.91 264.052 Q1822.11 266.876 1822.11 272.108 L1822.11 287.756 L1817.82 287.756 L1817.82 272.247 Q1817.82 268.52 1816.5 266.714 Q1815.19 264.909 1812.48 264.909 Q1809.17 264.909 1807.25 267.108 Q1805.32 269.307 1805.32 273.103 L1805.32 287.756 L1801.04 287.756 L1801.04 272.247 Q1801.04 268.497 1799.72 266.714 Q1798.4 264.909 1795.65 264.909 Q1792.38 264.909 1790.46 267.131 Q1788.54 269.33 1788.54 273.103 L1788.54 287.756 L1784.26 287.756 L1784.26 261.83 L1788.54 261.83 L1788.54 265.858 Q1790 263.473 1792.04 262.339 Q1794.07 261.205 1796.88 261.205 Q1799.7 261.205 1801.67 262.64 Q1803.66 264.075 1804.61 266.807 Z" fill="#000000" fill-rule="nonzero" fill-opacity="1" /><path clip-path="url(#clip430)" d="M1834.72 283.867 L1834.72 297.617 L1830.44 297.617 L1830.44 261.83 L1834.72 261.83 L1834.72 265.765 Q1836.06 263.45 1838.1 262.339 Q1840.16 261.205 1843.01 261.205 Q1847.73 261.205 1850.67 264.955 Q1853.63 268.705 1853.63 274.816 Q1853.63 280.927 1850.67 284.677 Q1847.73 288.427 1843.01 288.427 Q1840.16 288.427 1838.1 287.316 Q1836.06 286.182 1834.72 283.867 M1849.21 274.816 Q1849.21 270.117 1847.27 267.455 Q1845.35 264.77 1841.97 264.77 Q1838.59 264.77 1836.64 267.455 Q1834.72 270.117 1834.72 274.816 Q1834.72 279.515 1836.64 282.2 Q1838.59 284.862 1841.97 284.862 Q1845.35 284.862 1847.27 282.2 Q1849.21 279.515 1849.21 274.816 Z" fill="#000000" fill-rule="nonzero" fill-opacity="1" /><path clip-path="url(#clip430)" d="M1860.69 261.83 L1864.95 261.83 L1864.95 287.756 L1860.69 287.756 L1860.69 261.83 M1860.69 251.737 L1864.95 251.737 L1864.95 257.131 L1860.69 257.131 L1860.69 251.737 Z" fill="#000000" fill-rule="nonzero" fill-opacity="1" /><path clip-path="url(#clip430)" d="M1888.89 265.811 Q1888.17 265.395 1887.31 265.21 Q1886.48 265.001 1885.46 265.001 Q1881.85 265.001 1879.91 267.362 Q1877.99 269.7 1877.99 274.098 L1877.99 287.756 L1873.7 287.756 L1873.7 261.83 L1877.99 261.83 L1877.99 265.858 Q1879.33 263.497 1881.48 262.362 Q1883.63 261.205 1886.71 261.205 Q1887.15 261.205 1887.69 261.274 Q1888.22 261.321 1888.87 261.436 L1888.89 265.811 Z" fill="#000000" fill-rule="nonzero" fill-opacity="1" /><path clip-path="url(#clip430)" d="M1893.36 261.83 L1897.62 261.83 L1897.62 287.756 L1893.36 287.756 L1893.36 261.83 M1893.36 251.737 L1897.62 251.737 L1897.62 257.131 L1893.36 257.131 L1893.36 251.737 Z" fill="#000000" fill-rule="nonzero" fill-opacity="1" /><path clip-path="url(#clip430)" d="M1925.18 262.825 L1925.18 266.807 Q1923.38 265.811 1921.55 265.325 Q1919.75 264.816 1917.89 264.816 Q1913.75 264.816 1911.46 267.455 Q1909.17 270.071 1909.17 274.816 Q1909.17 279.561 1911.46 282.2 Q1913.75 284.816 1917.89 284.816 Q1919.75 284.816 1921.55 284.33 Q1923.38 283.821 1925.18 282.825 L1925.18 286.76 Q1923.4 287.594 1921.48 288.01 Q1919.58 288.427 1917.43 288.427 Q1911.57 288.427 1908.12 284.746 Q1904.68 281.066 1904.68 274.816 Q1904.68 268.473 1908.15 264.839 Q1911.64 261.205 1917.71 261.205 Q1919.68 261.205 1921.55 261.622 Q1923.43 262.015 1925.18 262.825 Z" fill="#000000" fill-rule="nonzero" fill-opacity="1" /><path clip-path="url(#clip430)" d="M1944.37 274.723 Q1939.21 274.723 1937.22 275.904 Q1935.23 277.084 1935.23 279.932 Q1935.23 282.2 1936.71 283.543 Q1938.22 284.862 1940.79 284.862 Q1944.33 284.862 1946.46 282.362 Q1948.61 279.839 1948.61 275.672 L1948.61 274.723 L1944.37 274.723 M1952.87 272.964 L1952.87 287.756 L1948.61 287.756 L1948.61 283.821 Q1947.15 286.182 1944.98 287.316 Q1942.8 288.427 1939.65 288.427 Q1935.67 288.427 1933.31 286.205 Q1930.97 283.959 1930.97 280.209 Q1930.97 275.834 1933.89 273.612 Q1936.83 271.39 1942.64 271.39 L1948.61 271.39 L1948.61 270.973 Q1948.61 268.034 1946.67 266.436 Q1944.74 264.816 1941.25 264.816 Q1939.03 264.816 1936.92 265.348 Q1934.81 265.881 1932.87 266.946 L1932.87 263.01 Q1935.21 262.108 1937.41 261.668 Q1939.61 261.205 1941.69 261.205 Q1947.31 261.205 1950.09 264.122 Q1952.87 267.038 1952.87 272.964 Z" fill="#000000" fill-rule="nonzero" fill-opacity="1" /><path clip-path="url(#clip430)" d="M1961.64 251.737 L1965.9 251.737 L1965.9 287.756 L1961.64 287.756 L1961.64 251.737 Z" fill="#000000" fill-rule="nonzero" fill-opacity="1" /><path clip-path="url(#clip430)" d="M1994.74 257.038 L1994.74 283.913 L2000.39 283.913 Q2007.55 283.913 2010.86 280.672 Q2014.19 277.432 2014.19 270.441 Q2014.19 263.497 2010.86 260.279 Q2007.55 257.038 2000.39 257.038 L1994.74 257.038 M1990.07 253.196 L1999.68 253.196 Q2009.72 253.196 2014.42 257.386 Q2019.12 261.552 2019.12 270.441 Q2019.12 279.376 2014.4 283.566 Q2009.68 287.756 1999.68 287.756 L1990.07 287.756 L1990.07 253.196 Z" fill="#000000" fill-rule="nonzero" fill-opacity="1" /><path clip-path="url(#clip430)" d="M2026.39 261.83 L2030.65 261.83 L2030.65 287.756 L2026.39 287.756 L2026.39 261.83 M2026.39 251.737 L2030.65 251.737 L2030.65 257.131 L2026.39 257.131 L2026.39 251.737 Z" fill="#000000" fill-rule="nonzero" fill-opacity="1" /><path clip-path="url(#clip430)" d="M2056.09 262.594 L2056.09 266.622 Q2054.28 265.696 2052.34 265.233 Q2050.39 264.77 2048.31 264.77 Q2045.14 264.77 2043.54 265.742 Q2041.97 266.714 2041.97 268.659 Q2041.97 270.14 2043.1 270.997 Q2044.24 271.83 2047.66 272.594 L2049.12 272.918 Q2053.66 273.89 2055.55 275.672 Q2057.48 277.432 2057.48 280.603 Q2057.48 284.214 2054.61 286.321 Q2051.76 288.427 2046.76 288.427 Q2044.67 288.427 2042.41 288.01 Q2040.16 287.617 2037.66 286.807 L2037.66 282.409 Q2040.02 283.635 2042.31 284.26 Q2044.61 284.862 2046.85 284.862 Q2049.86 284.862 2051.48 283.844 Q2053.1 282.802 2053.1 280.927 Q2053.1 279.191 2051.92 278.265 Q2050.76 277.339 2046.8 276.483 L2045.32 276.135 Q2041.36 275.302 2039.61 273.589 Q2037.85 271.853 2037.85 268.844 Q2037.85 265.186 2040.44 263.196 Q2043.03 261.205 2047.8 261.205 Q2050.16 261.205 2052.24 261.552 Q2054.33 261.899 2056.09 262.594 Z" fill="#000000" fill-rule="nonzero" fill-opacity="1" /><path clip-path="url(#clip430)" d="M2068.47 254.469 L2068.47 261.83 L2077.24 261.83 L2077.24 265.14 L2068.47 265.14 L2068.47 279.214 Q2068.47 282.385 2069.33 283.288 Q2070.21 284.191 2072.87 284.191 L2077.24 284.191 L2077.24 287.756 L2072.87 287.756 Q2067.94 287.756 2066.06 285.927 Q2064.19 284.075 2064.19 279.214 L2064.19 265.14 L2061.06 265.14 L2061.06 261.83 L2064.19 261.83 L2064.19 254.469 L2068.47 254.469 Z" fill="#000000" fill-rule="nonzero" fill-opacity="1" /><path clip-path="url(#clip430)" d="M2097.87 265.811 Q2097.15 265.395 2096.3 265.21 Q2095.46 265.001 2094.44 265.001 Q2090.83 265.001 2088.89 267.362 Q2086.97 269.7 2086.97 274.098 L2086.97 287.756 L2082.68 287.756 L2082.68 261.83 L2086.97 261.83 L2086.97 265.858 Q2088.31 263.497 2090.46 262.362 Q2092.61 261.205 2095.69 261.205 Q2096.13 261.205 2096.67 261.274 Q2097.2 261.321 2097.85 261.436 L2097.87 265.811 Z" fill="#000000" fill-rule="nonzero" fill-opacity="1" /><path clip-path="url(#clip430)" d="M2102.34 261.83 L2106.6 261.83 L2106.6 287.756 L2102.34 287.756 L2102.34 261.83 M2102.34 251.737 L2106.6 251.737 L2106.6 257.131 L2102.34 257.131 L2102.34 251.737 Z" fill="#000000" fill-rule="nonzero" fill-opacity="1" /><path clip-path="url(#clip430)" d="M2134.12 274.816 Q2134.12 270.117 2132.17 267.455 Q2130.25 264.77 2126.87 264.77 Q2123.49 264.77 2121.55 267.455 Q2119.63 270.117 2119.63 274.816 Q2119.63 279.515 2121.55 282.2 Q2123.49 284.862 2126.87 284.862 Q2130.25 284.862 2132.17 282.2 Q2134.12 279.515 2134.12 274.816 M2119.63 265.765 Q2120.97 263.45 2123.01 262.339 Q2125.07 261.205 2127.92 261.205 Q2132.64 261.205 2135.58 264.955 Q2138.54 268.705 2138.54 274.816 Q2138.54 280.927 2135.58 284.677 Q2132.64 288.427 2127.92 288.427 Q2125.07 288.427 2123.01 287.316 Q2120.97 286.182 2119.63 283.867 L2119.63 287.756 L2115.35 287.756 L2115.35 251.737 L2119.63 251.737 L2119.63 265.765 Z" fill="#000000" fill-rule="nonzero" fill-opacity="1" /><path clip-path="url(#clip430)" d="M2145.16 277.524 L2145.16 261.83 L2149.42 261.83 L2149.42 277.362 Q2149.42 281.043 2150.85 282.895 Q2152.29 284.723 2155.16 284.723 Q2158.61 284.723 2160.6 282.524 Q2162.61 280.325 2162.61 276.529 L2162.61 261.83 L2166.87 261.83 L2166.87 287.756 L2162.61 287.756 L2162.61 283.774 Q2161.06 286.135 2159 287.293 Q2156.97 288.427 2154.26 288.427 Q2149.79 288.427 2147.48 285.649 Q2145.16 282.871 2145.16 277.524 M2155.88 261.205 L2155.88 261.205 Z" fill="#000000" fill-rule="nonzero" fill-opacity="1" /><path clip-path="url(#clip430)" d="M2179.86 254.469 L2179.86 261.83 L2188.63 261.83 L2188.63 265.14 L2179.86 265.14 L2179.86 279.214 Q2179.86 282.385 2180.72 283.288 Q2181.6 284.191 2184.26 284.191 L2188.63 284.191 L2188.63 287.756 L2184.26 287.756 Q2179.33 287.756 2177.45 285.927 Q2175.58 284.075 2175.58 279.214 L2175.58 265.14 L2172.45 265.14 L2172.45 261.83 L2175.58 261.83 L2175.58 254.469 L2179.86 254.469 Z" fill="#000000" fill-rule="nonzero" fill-opacity="1" /><path clip-path="url(#clip430)" d="M2194.23 261.83 L2198.49 261.83 L2198.49 287.756 L2194.23 287.756 L2194.23 261.83 M2194.23 251.737 L2198.49 251.737 L2198.49 257.131 L2194.23 257.131 L2194.23 251.737 Z" fill="#000000" fill-rule="nonzero" fill-opacity="1" /><path clip-path="url(#clip430)" d="M2217.45 264.816 Q2214.03 264.816 2212.04 267.501 Q2210.04 270.163 2210.04 274.816 Q2210.04 279.469 2212.01 282.154 Q2214 284.816 2217.45 284.816 Q2220.85 284.816 2222.85 282.131 Q2224.84 279.446 2224.84 274.816 Q2224.84 270.21 2222.85 267.524 Q2220.85 264.816 2217.45 264.816 M2217.45 261.205 Q2223.01 261.205 2226.18 264.816 Q2229.35 268.427 2229.35 274.816 Q2229.35 281.182 2226.18 284.816 Q2223.01 288.427 2217.45 288.427 Q2211.87 288.427 2208.7 284.816 Q2205.55 281.182 2205.55 274.816 Q2205.55 268.427 2208.7 264.816 Q2211.87 261.205 2217.45 261.205 Z" fill="#000000" fill-rule="nonzero" fill-opacity="1" /><path clip-path="url(#clip430)" d="M2257.96 272.108 L2257.96 287.756 L2253.7 287.756 L2253.7 272.247 Q2253.7 268.566 2252.27 266.737 Q2250.83 264.909 2247.96 264.909 Q2244.51 264.909 2242.52 267.108 Q2240.53 269.307 2240.53 273.103 L2240.53 287.756 L2236.25 287.756 L2236.25 261.83 L2240.53 261.83 L2240.53 265.858 Q2242.06 263.52 2244.12 262.362 Q2246.2 261.205 2248.91 261.205 Q2253.38 261.205 2255.67 263.983 Q2257.96 266.737 2257.96 272.108 Z" fill="#000000" fill-rule="nonzero" fill-opacity="1" /></svg>
