<?xml version="1.0" encoding="utf-8"?>
<svg xmlns="http://www.w3.org/2000/svg" xmlns:xlink="http://www.w3.org/1999/xlink" width="1300" height="500" viewBox="0 0 5200 2000">
<defs>
  <clipPath id="clip280">
    <rect x="0" y="0" width="5200" height="2000"/>
  </clipPath>
</defs>
<path clip-path="url(#clip280)" d="M0 2000 L5200 2000 L5200 -1.11022e-13 L0 -1.11022e-13  Z" fill="#ffffff" fill-rule="evenodd" fill-opacity="1"/>
<defs>
  <clipPath id="clip281">
    <rect x="1040" y="0" width="3641" height="2000"/>
  </clipPath>
</defs>
<path clip-path="url(#clip280)" d="M350.591 1790.91 L2567.84 1790.91 L2567.84 97.8844 L350.591 97.8844  Z" fill="#ffffff" fill-rule="evenodd" fill-opacity="1"/>
<defs>
  <clipPath id="clip282">
    <rect x="350" y="97" width="2218" height="1694"/>
  </clipPath>
</defs>
<polyline clip-path="url(#clip282)" style="stroke:#000000; stroke-linecap:round; stroke-linejoin:round; stroke-width:2; stroke-opacity:0.1; fill:none" points="392.215,1790.91 392.215,97.8844 "/>
<polyline clip-path="url(#clip282)" style="stroke:#000000; stroke-linecap:round; stroke-linejoin:round; stroke-width:2; stroke-opacity:0.1; fill:none" points="920.432,1790.91 920.432,97.8844 "/>
<polyline clip-path="url(#clip282)" style="stroke:#000000; stroke-linecap:round; stroke-linejoin:round; stroke-width:2; stroke-opacity:0.1; fill:none" points="1448.65,1790.91 1448.65,97.8844 "/>
<polyline clip-path="url(#clip282)" style="stroke:#000000; stroke-linecap:round; stroke-linejoin:round; stroke-width:2; stroke-opacity:0.1; fill:none" points="1976.87,1790.91 1976.87,97.8844 "/>
<polyline clip-path="url(#clip282)" style="stroke:#000000; stroke-linecap:round; stroke-linejoin:round; stroke-width:2; stroke-opacity:0.1; fill:none" points="2505.08,1790.91 2505.08,97.8844 "/>
<polyline clip-path="url(#clip280)" style="stroke:#000000; stroke-linecap:round; stroke-linejoin:round; stroke-width:4; stroke-opacity:1; fill:none" points="350.591,1790.91 2567.84,1790.91 "/>
<polyline clip-path="url(#clip280)" style="stroke:#000000; stroke-linecap:round; stroke-linejoin:round; stroke-width:4; stroke-opacity:1; fill:none" points="392.215,1790.91 392.215,1772.02 "/>
<polyline clip-path="url(#clip280)" style="stroke:#000000; stroke-linecap:round; stroke-linejoin:round; stroke-width:4; stroke-opacity:1; fill:none" points="920.432,1790.91 920.432,1772.02 "/>
<polyline clip-path="url(#clip280)" style="stroke:#000000; stroke-linecap:round; stroke-linejoin:round; stroke-width:4; stroke-opacity:1; fill:none" points="1448.65,1790.91 1448.65,1772.02 "/>
<polyline clip-path="url(#clip280)" style="stroke:#000000; stroke-linecap:round; stroke-linejoin:round; stroke-width:4; stroke-opacity:1; fill:none" points="1976.87,1790.91 1976.87,1772.02 "/>
<polyline clip-path="url(#clip280)" style="stroke:#000000; stroke-linecap:round; stroke-linejoin:round; stroke-width:4; stroke-opacity:1; fill:none" points="2505.08,1790.91 2505.08,1772.02 "/>
<path clip-path="url(#clip280)" d="M392.215 1844.23 Q388.604 1844.23 386.775 1847.8 Q384.97 1851.34 384.97 1858.47 Q384.97 1865.58 386.775 1869.14 Q388.604 1872.68 392.215 1872.68 Q395.849 1872.68 397.655 1869.14 Q399.483 1865.58 399.483 1858.47 Q399.483 1851.34 397.655 1847.8 Q395.849 1844.23 392.215 1844.23 M392.215 1840.53 Q398.025 1840.53 401.081 1845.14 Q404.159 1849.72 404.159 1858.47 Q404.159 1867.2 401.081 1871.8 Q398.025 1876.39 392.215 1876.39 Q386.405 1876.39 383.326 1871.8 Q380.271 1867.2 380.271 1858.47 Q380.271 1849.72 383.326 1845.14 Q386.405 1840.53 392.215 1840.53 Z" fill="#000000" fill-rule="nonzero" fill-opacity="1" /><path clip-path="url(#clip280)" d="M899.703 1871.78 L916.023 1871.78 L916.023 1875.71 L894.078 1875.71 L894.078 1871.78 Q896.74 1869.02 901.324 1864.39 Q905.93 1859.74 907.111 1858.4 Q909.356 1855.88 910.236 1854.14 Q911.138 1852.38 911.138 1850.69 Q911.138 1847.94 909.194 1846.2 Q907.273 1844.46 904.171 1844.46 Q901.972 1844.46 899.518 1845.23 Q897.088 1845.99 894.31 1847.54 L894.31 1842.82 Q897.134 1841.69 899.588 1841.11 Q902.041 1840.53 904.078 1840.53 Q909.449 1840.53 912.643 1843.21 Q915.837 1845.9 915.837 1850.39 Q915.837 1852.52 915.027 1854.44 Q914.24 1856.34 912.134 1858.93 Q911.555 1859.6 908.453 1862.82 Q905.351 1866.01 899.703 1871.78 Z" fill="#000000" fill-rule="nonzero" fill-opacity="1" /><path clip-path="url(#clip280)" d="M925.884 1841.15 L944.24 1841.15 L944.24 1845.09 L930.166 1845.09 L930.166 1853.56 Q931.185 1853.21 932.203 1853.05 Q933.222 1852.87 934.24 1852.87 Q940.027 1852.87 943.407 1856.04 Q946.786 1859.21 946.786 1864.63 Q946.786 1870.2 943.314 1873.31 Q939.842 1876.39 933.523 1876.39 Q931.347 1876.39 929.078 1876.01 Q926.833 1875.64 924.425 1874.9 L924.425 1870.2 Q926.509 1871.34 928.731 1871.89 Q930.953 1872.45 933.43 1872.45 Q937.435 1872.45 939.773 1870.34 Q942.11 1868.24 942.11 1864.63 Q942.11 1861.01 939.773 1858.91 Q937.435 1856.8 933.43 1856.8 Q931.555 1856.8 929.68 1857.22 Q927.828 1857.64 925.884 1858.51 L925.884 1841.15 Z" fill="#000000" fill-rule="nonzero" fill-opacity="1" /><path clip-path="url(#clip280)" d="M1423.35 1841.15 L1441.71 1841.15 L1441.71 1845.09 L1427.63 1845.09 L1427.63 1853.56 Q1428.65 1853.21 1429.67 1853.05 Q1430.69 1852.87 1431.71 1852.87 Q1437.49 1852.87 1440.87 1856.04 Q1444.25 1859.21 1444.25 1864.63 Q1444.25 1870.2 1440.78 1873.31 Q1437.31 1876.39 1430.99 1876.39 Q1428.81 1876.39 1426.54 1876.01 Q1424.3 1875.64 1421.89 1874.9 L1421.89 1870.2 Q1423.97 1871.34 1426.2 1871.89 Q1428.42 1872.45 1430.9 1872.45 Q1434.9 1872.45 1437.24 1870.34 Q1439.58 1868.24 1439.58 1864.63 Q1439.58 1861.01 1437.24 1858.91 Q1434.9 1856.8 1430.9 1856.8 Q1429.02 1856.8 1427.15 1857.22 Q1425.29 1857.64 1423.35 1858.51 L1423.35 1841.15 Z" fill="#000000" fill-rule="nonzero" fill-opacity="1" /><path clip-path="url(#clip280)" d="M1463.46 1844.23 Q1459.85 1844.23 1458.02 1847.8 Q1456.22 1851.34 1456.22 1858.47 Q1456.22 1865.58 1458.02 1869.14 Q1459.85 1872.68 1463.46 1872.68 Q1467.1 1872.68 1468.9 1869.14 Q1470.73 1865.58 1470.73 1858.47 Q1470.73 1851.34 1468.9 1847.8 Q1467.1 1844.23 1463.46 1844.23 M1463.46 1840.53 Q1469.27 1840.53 1472.33 1845.14 Q1475.41 1849.72 1475.41 1858.47 Q1475.41 1867.2 1472.33 1871.8 Q1469.27 1876.39 1463.46 1876.39 Q1457.65 1876.39 1454.58 1871.8 Q1451.52 1867.2 1451.52 1858.47 Q1451.52 1849.72 1454.58 1845.14 Q1457.65 1840.53 1463.46 1840.53 Z" fill="#000000" fill-rule="nonzero" fill-opacity="1" /><path clip-path="url(#clip280)" d="M1950.72 1841.15 L1972.94 1841.15 L1972.94 1843.14 L1960.4 1875.71 L1955.51 1875.71 L1967.32 1845.09 L1950.72 1845.09 L1950.72 1841.15 Z" fill="#000000" fill-rule="nonzero" fill-opacity="1" /><path clip-path="url(#clip280)" d="M1982.11 1841.15 L2000.47 1841.15 L2000.47 1845.09 L1986.39 1845.09 L1986.39 1853.56 Q1987.41 1853.21 1988.43 1853.05 Q1989.45 1852.87 1990.47 1852.87 Q1996.25 1852.87 1999.63 1856.04 Q2003.01 1859.21 2003.01 1864.63 Q2003.01 1870.2 1999.54 1873.31 Q1996.07 1876.39 1989.75 1876.39 Q1987.57 1876.39 1985.3 1876.01 Q1983.06 1875.64 1980.65 1874.9 L1980.65 1870.2 Q1982.74 1871.34 1984.96 1871.89 Q1987.18 1872.45 1989.66 1872.45 Q1993.66 1872.45 1996 1870.34 Q1998.34 1868.24 1998.34 1864.63 Q1998.34 1861.01 1996 1858.91 Q1993.66 1856.8 1989.66 1856.8 Q1987.78 1856.8 1985.91 1857.22 Q1984.05 1857.64 1982.11 1858.51 L1982.11 1841.15 Z" fill="#000000" fill-rule="nonzero" fill-opacity="1" /><path clip-path="url(#clip280)" d="M2464.69 1871.78 L2472.33 1871.78 L2472.33 1845.41 L2464.02 1847.08 L2464.02 1842.82 L2472.28 1841.15 L2476.96 1841.15 L2476.96 1871.78 L2484.6 1871.78 L2484.6 1875.71 L2464.69 1875.71 L2464.69 1871.78 Z" fill="#000000" fill-rule="nonzero" fill-opacity="1" /><path clip-path="url(#clip280)" d="M2504.04 1844.23 Q2500.43 1844.23 2498.6 1847.8 Q2496.8 1851.34 2496.8 1858.47 Q2496.8 1865.58 2498.6 1869.14 Q2500.43 1872.68 2504.04 1872.68 Q2507.68 1872.68 2509.48 1869.14 Q2511.31 1865.58 2511.31 1858.47 Q2511.31 1851.34 2509.48 1847.8 Q2507.68 1844.23 2504.04 1844.23 M2504.04 1840.53 Q2509.85 1840.53 2512.91 1845.14 Q2515.99 1849.72 2515.99 1858.47 Q2515.99 1867.2 2512.91 1871.8 Q2509.85 1876.39 2504.04 1876.39 Q2498.23 1876.39 2495.15 1871.8 Q2492.1 1867.2 2492.1 1858.47 Q2492.1 1849.72 2495.15 1845.14 Q2498.23 1840.53 2504.04 1840.53 Z" fill="#000000" fill-rule="nonzero" fill-opacity="1" /><path clip-path="url(#clip280)" d="M2534.2 1844.23 Q2530.59 1844.23 2528.77 1847.8 Q2526.96 1851.34 2526.96 1858.47 Q2526.96 1865.58 2528.77 1869.14 Q2530.59 1872.68 2534.2 1872.68 Q2537.84 1872.68 2539.64 1869.14 Q2541.47 1865.58 2541.47 1858.47 Q2541.47 1851.34 2539.64 1847.8 Q2537.84 1844.23 2534.2 1844.23 M2534.2 1840.53 Q2540.01 1840.53 2543.07 1845.14 Q2546.15 1849.72 2546.15 1858.47 Q2546.15 1867.2 2543.07 1871.8 Q2540.01 1876.39 2534.2 1876.39 Q2528.39 1876.39 2525.32 1871.8 Q2522.26 1867.2 2522.26 1858.47 Q2522.26 1849.72 2525.32 1845.14 Q2528.39 1840.53 2534.2 1840.53 Z" fill="#000000" fill-rule="nonzero" fill-opacity="1" /><path clip-path="url(#clip280)" d="M1398.37 1932.01 L1398.37 1942.13 L1410.44 1942.13 L1410.44 1946.68 L1398.37 1946.68 L1398.37 1966.03 Q1398.37 1970.39 1399.55 1971.63 Q1400.76 1972.88 1404.42 1972.88 L1410.44 1972.88 L1410.44 1977.78 L1404.42 1977.78 Q1397.64 1977.78 1395.06 1975.26 Q1392.49 1972.72 1392.49 1966.03 L1392.49 1946.68 L1388.19 1946.68 L1388.19 1942.13 L1392.49 1942.13 L1392.49 1932.01 L1398.37 1932.01 Z" fill="#000000" fill-rule="nonzero" fill-opacity="1" /><path clip-path="url(#clip280)" d="M1418.14 1942.13 L1424 1942.13 L1424 1977.78 L1418.14 1977.78 L1418.14 1942.13 M1418.14 1928.25 L1424 1928.25 L1424 1935.67 L1418.14 1935.67 L1418.14 1928.25 Z" fill="#000000" fill-rule="nonzero" fill-opacity="1" /><path clip-path="url(#clip280)" d="M1464 1948.97 Q1466.2 1945.03 1469.26 1943.15 Q1472.31 1941.27 1476.45 1941.27 Q1482.02 1941.27 1485.04 1945.19 Q1488.07 1949.07 1488.07 1956.26 L1488.07 1977.78 L1482.18 1977.78 L1482.18 1956.45 Q1482.18 1951.33 1480.36 1948.85 Q1478.55 1946.36 1474.83 1946.36 Q1470.27 1946.36 1467.63 1949.39 Q1464.99 1952.41 1464.99 1957.63 L1464.99 1977.78 L1459.1 1977.78 L1459.1 1956.45 Q1459.1 1951.3 1457.29 1948.85 Q1455.47 1946.36 1451.69 1946.36 Q1447.2 1946.36 1444.56 1949.42 Q1441.92 1952.44 1441.92 1957.63 L1441.92 1977.78 L1436.03 1977.78 L1436.03 1942.13 L1441.92 1942.13 L1441.92 1947.67 Q1443.92 1944.39 1446.72 1942.83 Q1449.52 1941.27 1453.37 1941.27 Q1457.26 1941.27 1459.96 1943.24 Q1462.7 1945.22 1464 1948.97 Z" fill="#000000" fill-rule="nonzero" fill-opacity="1" /><path clip-path="url(#clip280)" d="M1530.24 1958.49 L1530.24 1961.35 L1503.31 1961.35 Q1503.69 1967.4 1506.94 1970.58 Q1510.22 1973.74 1516.04 1973.74 Q1519.42 1973.74 1522.57 1972.91 Q1525.75 1972.08 1528.87 1970.43 L1528.87 1975.96 Q1525.72 1977.3 1522.41 1978 Q1519.1 1978.7 1515.69 1978.7 Q1507.16 1978.7 1502.17 1973.74 Q1497.2 1968.77 1497.2 1960.3 Q1497.2 1951.55 1501.91 1946.43 Q1506.65 1941.27 1514.68 1941.27 Q1521.87 1941.27 1526.04 1945.92 Q1530.24 1950.53 1530.24 1958.49 M1524.38 1956.77 Q1524.32 1951.96 1521.68 1949.1 Q1519.07 1946.24 1514.74 1946.24 Q1509.84 1946.24 1506.88 1949 Q1503.95 1951.77 1503.5 1956.8 L1524.38 1956.77 Z" fill="#000000" fill-rule="nonzero" fill-opacity="1" /><polyline clip-path="url(#clip282)" style="stroke:#000000; stroke-linecap:round; stroke-linejoin:round; stroke-width:2; stroke-opacity:0.1; fill:none" points="350.591,1758.49 2567.84,1758.49 "/>
<polyline clip-path="url(#clip282)" style="stroke:#000000; stroke-linecap:round; stroke-linejoin:round; stroke-width:2; stroke-opacity:0.1; fill:none" points="350.591,1478.33 2567.84,1478.33 "/>
<polyline clip-path="url(#clip282)" style="stroke:#000000; stroke-linecap:round; stroke-linejoin:round; stroke-width:2; stroke-opacity:0.1; fill:none" points="350.591,1198.16 2567.84,1198.16 "/>
<polyline clip-path="url(#clip282)" style="stroke:#000000; stroke-linecap:round; stroke-linejoin:round; stroke-width:2; stroke-opacity:0.1; fill:none" points="350.591,918.001 2567.84,918.001 "/>
<polyline clip-path="url(#clip282)" style="stroke:#000000; stroke-linecap:round; stroke-linejoin:round; stroke-width:2; stroke-opacity:0.1; fill:none" points="350.591,637.839 2567.84,637.839 "/>
<polyline clip-path="url(#clip282)" style="stroke:#000000; stroke-linecap:round; stroke-linejoin:round; stroke-width:2; stroke-opacity:0.1; fill:none" points="350.591,357.677 2567.84,357.677 "/>
<polyline clip-path="url(#clip280)" style="stroke:#000000; stroke-linecap:round; stroke-linejoin:round; stroke-width:4; stroke-opacity:1; fill:none" points="350.591,1790.91 350.591,97.8844 "/>
<polyline clip-path="url(#clip280)" style="stroke:#000000; stroke-linecap:round; stroke-linejoin:round; stroke-width:4; stroke-opacity:1; fill:none" points="350.591,1758.49 369.489,1758.49 "/>
<polyline clip-path="url(#clip280)" style="stroke:#000000; stroke-linecap:round; stroke-linejoin:round; stroke-width:4; stroke-opacity:1; fill:none" points="350.591,1478.33 369.489,1478.33 "/>
<polyline clip-path="url(#clip280)" style="stroke:#000000; stroke-linecap:round; stroke-linejoin:round; stroke-width:4; stroke-opacity:1; fill:none" points="350.591,1198.16 369.489,1198.16 "/>
<polyline clip-path="url(#clip280)" style="stroke:#000000; stroke-linecap:round; stroke-linejoin:round; stroke-width:4; stroke-opacity:1; fill:none" points="350.591,918.001 369.489,918.001 "/>
<polyline clip-path="url(#clip280)" style="stroke:#000000; stroke-linecap:round; stroke-linejoin:round; stroke-width:4; stroke-opacity:1; fill:none" points="350.591,637.839 369.489,637.839 "/>
<polyline clip-path="url(#clip280)" style="stroke:#000000; stroke-linecap:round; stroke-linejoin:round; stroke-width:4; stroke-opacity:1; fill:none" points="350.591,357.677 369.489,357.677 "/>
<path clip-path="url(#clip280)" d="M155.995 1744.29 Q152.384 1744.29 150.555 1747.85 Q148.749 1751.39 148.749 1758.52 Q148.749 1765.63 150.555 1769.19 Q152.384 1772.73 155.995 1772.73 Q159.629 1772.73 161.435 1769.19 Q163.263 1765.63 163.263 1758.52 Q163.263 1751.39 161.435 1747.85 Q159.629 1744.29 155.995 1744.29 M155.995 1740.58 Q161.805 1740.58 164.861 1745.19 Q167.939 1749.77 167.939 1758.52 Q167.939 1767.25 164.861 1771.86 Q161.805 1776.44 155.995 1776.44 Q150.185 1776.44 147.106 1771.86 Q144.05 1767.25 144.05 1758.52 Q144.05 1749.77 147.106 1745.19 Q150.185 1740.58 155.995 1740.58 Z" fill="#000000" fill-rule="nonzero" fill-opacity="1" /><path clip-path="url(#clip280)" d="M176.157 1769.89 L181.041 1769.89 L181.041 1775.77 L176.157 1775.77 L176.157 1769.89 Z" fill="#000000" fill-rule="nonzero" fill-opacity="1" /><path clip-path="url(#clip280)" d="M204.073 1745.28 L192.268 1763.73 L204.073 1763.73 L204.073 1745.28 M202.846 1741.21 L208.726 1741.21 L208.726 1763.73 L213.657 1763.73 L213.657 1767.62 L208.726 1767.62 L208.726 1775.77 L204.073 1775.77 L204.073 1767.62 L188.471 1767.62 L188.471 1763.11 L202.846 1741.21 Z" fill="#000000" fill-rule="nonzero" fill-opacity="1" /><path clip-path="url(#clip280)" d="M221.527 1775.05 L221.527 1770.79 Q223.286 1771.62 225.092 1772.06 Q226.897 1772.5 228.633 1772.5 Q233.263 1772.5 235.693 1769.4 Q238.147 1766.28 238.494 1759.93 Q237.152 1761.92 235.092 1762.99 Q233.031 1764.05 230.531 1764.05 Q225.346 1764.05 222.314 1760.93 Q219.305 1757.78 219.305 1752.34 Q219.305 1747.02 222.453 1743.8 Q225.601 1740.58 230.832 1740.58 Q236.828 1740.58 239.976 1745.19 Q243.147 1749.77 243.147 1758.52 Q243.147 1766.69 239.258 1771.58 Q235.393 1776.44 228.842 1776.44 Q227.082 1776.44 225.277 1776.09 Q223.471 1775.74 221.527 1775.05 M230.832 1760.4 Q233.981 1760.4 235.809 1758.24 Q237.661 1756.09 237.661 1752.34 Q237.661 1748.61 235.809 1746.46 Q233.981 1744.29 230.832 1744.29 Q227.684 1744.29 225.832 1746.46 Q224.004 1748.61 224.004 1752.34 Q224.004 1756.09 225.832 1758.24 Q227.684 1760.4 230.832 1760.4 Z" fill="#000000" fill-rule="nonzero" fill-opacity="1" /><path clip-path="url(#clip280)" d="M250.369 1741.21 L272.591 1741.21 L272.591 1743.2 L260.045 1775.77 L255.161 1775.77 L266.966 1745.14 L250.369 1745.14 L250.369 1741.21 Z" fill="#000000" fill-rule="nonzero" fill-opacity="1" /><path clip-path="url(#clip280)" d="M155.185 1464.12 Q151.574 1464.12 149.745 1467.69 Q147.939 1471.23 147.939 1478.36 Q147.939 1485.47 149.745 1489.03 Q151.574 1492.57 155.185 1492.57 Q158.819 1492.57 160.624 1489.03 Q162.453 1485.47 162.453 1478.36 Q162.453 1471.23 160.624 1467.69 Q158.819 1464.12 155.185 1464.12 M155.185 1460.42 Q160.995 1460.42 164.05 1465.03 Q167.129 1469.61 167.129 1478.36 Q167.129 1487.09 164.05 1491.69 Q160.995 1496.28 155.185 1496.28 Q149.374 1496.28 146.296 1491.69 Q143.24 1487.09 143.24 1478.36 Q143.24 1469.61 146.296 1465.03 Q149.374 1460.42 155.185 1460.42 Z" fill="#000000" fill-rule="nonzero" fill-opacity="1" /><path clip-path="url(#clip280)" d="M175.347 1489.73 L180.231 1489.73 L180.231 1495.61 L175.347 1495.61 L175.347 1489.73 Z" fill="#000000" fill-rule="nonzero" fill-opacity="1" /><path clip-path="url(#clip280)" d="M203.263 1465.12 L191.458 1483.57 L203.263 1483.57 L203.263 1465.12 M202.036 1461.05 L207.916 1461.05 L207.916 1483.57 L212.846 1483.57 L212.846 1487.46 L207.916 1487.46 L207.916 1495.61 L203.263 1495.61 L203.263 1487.46 L187.661 1487.46 L187.661 1482.94 L202.036 1461.05 Z" fill="#000000" fill-rule="nonzero" fill-opacity="1" /><path clip-path="url(#clip280)" d="M220.717 1494.89 L220.717 1490.63 Q222.476 1491.46 224.281 1491.9 Q226.087 1492.34 227.823 1492.34 Q232.453 1492.34 234.883 1489.24 Q237.337 1486.11 237.684 1479.77 Q236.342 1481.76 234.281 1482.83 Q232.221 1483.89 229.721 1483.89 Q224.536 1483.89 221.504 1480.77 Q218.494 1477.62 218.494 1472.18 Q218.494 1466.86 221.643 1463.64 Q224.791 1460.42 230.022 1460.42 Q236.018 1460.42 239.166 1465.03 Q242.337 1469.61 242.337 1478.36 Q242.337 1486.53 238.448 1491.42 Q234.582 1496.28 228.031 1496.28 Q226.272 1496.28 224.467 1495.93 Q222.661 1495.58 220.717 1494.89 M230.022 1480.23 Q233.17 1480.23 234.999 1478.08 Q236.851 1475.93 236.851 1472.18 Q236.851 1468.45 234.999 1466.3 Q233.17 1464.12 230.022 1464.12 Q226.874 1464.12 225.022 1466.3 Q223.194 1468.45 223.194 1472.18 Q223.194 1475.93 225.022 1478.08 Q226.874 1480.23 230.022 1480.23 Z" fill="#000000" fill-rule="nonzero" fill-opacity="1" /><path clip-path="url(#clip280)" d="M260.74 1479.19 Q257.406 1479.19 255.485 1480.98 Q253.587 1482.76 253.587 1485.88 Q253.587 1489.01 255.485 1490.79 Q257.406 1492.57 260.74 1492.57 Q264.073 1492.57 265.994 1490.79 Q267.916 1488.98 267.916 1485.88 Q267.916 1482.76 265.994 1480.98 Q264.096 1479.19 260.74 1479.19 M256.064 1477.2 Q253.054 1476.46 251.365 1474.4 Q249.698 1472.34 249.698 1469.38 Q249.698 1465.23 252.638 1462.83 Q255.601 1460.42 260.74 1460.42 Q265.902 1460.42 268.841 1462.83 Q271.781 1465.23 271.781 1469.38 Q271.781 1472.34 270.091 1474.4 Q268.425 1476.46 265.439 1477.2 Q268.818 1477.99 270.693 1480.28 Q272.591 1482.57 272.591 1485.88 Q272.591 1490.91 269.513 1493.59 Q266.457 1496.28 260.74 1496.28 Q255.022 1496.28 251.943 1493.59 Q248.888 1490.91 248.888 1485.88 Q248.888 1482.57 250.786 1480.28 Q252.684 1477.99 256.064 1477.2 M254.351 1469.82 Q254.351 1472.5 256.017 1474.01 Q257.707 1475.51 260.74 1475.51 Q263.749 1475.51 265.439 1474.01 Q267.152 1472.5 267.152 1469.82 Q267.152 1467.13 265.439 1465.63 Q263.749 1464.12 260.74 1464.12 Q257.707 1464.12 256.017 1465.63 Q254.351 1467.13 254.351 1469.82 Z" fill="#000000" fill-rule="nonzero" fill-opacity="1" /><path clip-path="url(#clip280)" d="M155.277 1183.96 Q151.666 1183.96 149.837 1187.53 Q148.032 1191.07 148.032 1198.2 Q148.032 1205.3 149.837 1208.87 Q151.666 1212.41 155.277 1212.41 Q158.911 1212.41 160.717 1208.87 Q162.546 1205.3 162.546 1198.2 Q162.546 1191.07 160.717 1187.53 Q158.911 1183.96 155.277 1183.96 M155.277 1180.26 Q161.087 1180.26 164.143 1184.86 Q167.222 1189.45 167.222 1198.2 Q167.222 1206.92 164.143 1211.53 Q161.087 1216.11 155.277 1216.11 Q149.467 1216.11 146.388 1211.53 Q143.333 1206.92 143.333 1198.2 Q143.333 1189.45 146.388 1184.86 Q149.467 1180.26 155.277 1180.26 Z" fill="#000000" fill-rule="nonzero" fill-opacity="1" /><path clip-path="url(#clip280)" d="M175.439 1209.56 L180.323 1209.56 L180.323 1215.44 L175.439 1215.44 L175.439 1209.56 Z" fill="#000000" fill-rule="nonzero" fill-opacity="1" /><path clip-path="url(#clip280)" d="M203.356 1184.96 L191.55 1203.41 L203.356 1203.41 L203.356 1184.96 M202.129 1180.88 L208.008 1180.88 L208.008 1203.41 L212.939 1203.41 L212.939 1207.29 L208.008 1207.29 L208.008 1215.44 L203.356 1215.44 L203.356 1207.29 L187.754 1207.29 L187.754 1202.78 L202.129 1180.88 Z" fill="#000000" fill-rule="nonzero" fill-opacity="1" /><path clip-path="url(#clip280)" d="M220.809 1214.73 L220.809 1210.47 Q222.569 1211.3 224.374 1211.74 Q226.18 1212.18 227.916 1212.18 Q232.545 1212.18 234.976 1209.08 Q237.43 1205.95 237.777 1199.61 Q236.434 1201.6 234.374 1202.67 Q232.314 1203.73 229.814 1203.73 Q224.629 1203.73 221.596 1200.61 Q218.587 1197.46 218.587 1192.02 Q218.587 1186.69 221.735 1183.48 Q224.883 1180.26 230.115 1180.26 Q236.11 1180.26 239.258 1184.86 Q242.43 1189.45 242.43 1198.2 Q242.43 1206.37 238.541 1211.25 Q234.675 1216.11 228.124 1216.11 Q226.365 1216.11 224.559 1215.77 Q222.754 1215.42 220.809 1214.73 M230.115 1200.07 Q233.263 1200.07 235.092 1197.92 Q236.943 1195.77 236.943 1192.02 Q236.943 1188.29 235.092 1186.14 Q233.263 1183.96 230.115 1183.96 Q226.967 1183.96 225.115 1186.14 Q223.286 1188.29 223.286 1192.02 Q223.286 1195.77 225.115 1197.92 Q226.967 1200.07 230.115 1200.07 Z" fill="#000000" fill-rule="nonzero" fill-opacity="1" /><path clip-path="url(#clip280)" d="M250.971 1214.73 L250.971 1210.47 Q252.73 1211.3 254.536 1211.74 Q256.342 1212.18 258.078 1212.18 Q262.707 1212.18 265.138 1209.08 Q267.591 1205.95 267.939 1199.61 Q266.596 1201.6 264.536 1202.67 Q262.476 1203.73 259.976 1203.73 Q254.791 1203.73 251.758 1200.61 Q248.749 1197.46 248.749 1192.02 Q248.749 1186.69 251.897 1183.48 Q255.045 1180.26 260.277 1180.26 Q266.272 1180.26 269.42 1184.86 Q272.591 1189.45 272.591 1198.2 Q272.591 1206.37 268.703 1211.25 Q264.837 1216.11 258.286 1216.11 Q256.527 1216.11 254.721 1215.77 Q252.916 1215.42 250.971 1214.73 M260.277 1200.07 Q263.425 1200.07 265.253 1197.92 Q267.105 1195.77 267.105 1192.02 Q267.105 1188.29 265.253 1186.14 Q263.425 1183.96 260.277 1183.96 Q257.129 1183.96 255.277 1186.14 Q253.448 1188.29 253.448 1192.02 Q253.448 1195.77 255.277 1197.92 Q257.129 1200.07 260.277 1200.07 Z" fill="#000000" fill-rule="nonzero" fill-opacity="1" /><path clip-path="url(#clip280)" d="M155.092 903.8 Q151.481 903.8 149.652 907.364 Q147.847 910.906 147.847 918.036 Q147.847 925.142 149.652 928.707 Q151.481 932.248 155.092 932.248 Q158.726 932.248 160.532 928.707 Q162.361 925.142 162.361 918.036 Q162.361 910.906 160.532 907.364 Q158.726 903.8 155.092 903.8 M155.092 900.096 Q160.902 900.096 163.958 904.702 Q167.036 909.286 167.036 918.036 Q167.036 926.762 163.958 931.369 Q160.902 935.952 155.092 935.952 Q149.282 935.952 146.203 931.369 Q143.148 926.762 143.148 918.036 Q143.148 909.286 146.203 904.702 Q149.282 900.096 155.092 900.096 Z" fill="#000000" fill-rule="nonzero" fill-opacity="1" /><path clip-path="url(#clip280)" d="M175.254 929.401 L180.138 929.401 L180.138 935.281 L175.254 935.281 L175.254 929.401 Z" fill="#000000" fill-rule="nonzero" fill-opacity="1" /><path clip-path="url(#clip280)" d="M190.37 900.721 L208.726 900.721 L208.726 904.656 L194.652 904.656 L194.652 913.128 Q195.671 912.781 196.689 912.619 Q197.708 912.434 198.726 912.434 Q204.513 912.434 207.893 915.605 Q211.272 918.776 211.272 924.193 Q211.272 929.772 207.8 932.873 Q204.328 935.952 198.008 935.952 Q195.833 935.952 193.564 935.582 Q191.319 935.211 188.911 934.471 L188.911 929.772 Q190.995 930.906 193.217 931.461 Q195.439 932.017 197.916 932.017 Q201.921 932.017 204.258 929.911 Q206.596 927.804 206.596 924.193 Q206.596 920.582 204.258 918.475 Q201.921 916.369 197.916 916.369 Q196.041 916.369 194.166 916.786 Q192.314 917.202 190.37 918.082 L190.37 900.721 Z" fill="#000000" fill-rule="nonzero" fill-opacity="1" /><path clip-path="url(#clip280)" d="M230.485 903.8 Q226.874 903.8 225.045 907.364 Q223.24 910.906 223.24 918.036 Q223.24 925.142 225.045 928.707 Q226.874 932.248 230.485 932.248 Q234.119 932.248 235.925 928.707 Q237.754 925.142 237.754 918.036 Q237.754 910.906 235.925 907.364 Q234.119 903.8 230.485 903.8 M230.485 900.096 Q236.295 900.096 239.351 904.702 Q242.43 909.286 242.43 918.036 Q242.43 926.762 239.351 931.369 Q236.295 935.952 230.485 935.952 Q224.675 935.952 221.596 931.369 Q218.541 926.762 218.541 918.036 Q218.541 909.286 221.596 904.702 Q224.675 900.096 230.485 900.096 Z" fill="#000000" fill-rule="nonzero" fill-opacity="1" /><path clip-path="url(#clip280)" d="M260.647 903.8 Q257.036 903.8 255.207 907.364 Q253.402 910.906 253.402 918.036 Q253.402 925.142 255.207 928.707 Q257.036 932.248 260.647 932.248 Q264.281 932.248 266.087 928.707 Q267.916 925.142 267.916 918.036 Q267.916 910.906 266.087 907.364 Q264.281 903.8 260.647 903.8 M260.647 900.096 Q266.457 900.096 269.513 904.702 Q272.591 909.286 272.591 918.036 Q272.591 926.762 269.513 931.369 Q266.457 935.952 260.647 935.952 Q254.837 935.952 251.758 931.369 Q248.703 926.762 248.703 918.036 Q248.703 909.286 251.758 904.702 Q254.837 900.096 260.647 900.096 Z" fill="#000000" fill-rule="nonzero" fill-opacity="1" /><path clip-path="url(#clip280)" d="M156.319 623.637 Q152.708 623.637 150.879 627.202 Q149.074 630.744 149.074 637.873 Q149.074 644.98 150.879 648.545 Q152.708 652.086 156.319 652.086 Q159.953 652.086 161.759 648.545 Q163.587 644.98 163.587 637.873 Q163.587 630.744 161.759 627.202 Q159.953 623.637 156.319 623.637 M156.319 619.934 Q162.129 619.934 165.185 624.54 Q168.263 629.123 168.263 637.873 Q168.263 646.6 165.185 651.207 Q162.129 655.79 156.319 655.79 Q150.509 655.79 147.43 651.207 Q144.375 646.6 144.375 637.873 Q144.375 629.123 147.43 624.54 Q150.509 619.934 156.319 619.934 Z" fill="#000000" fill-rule="nonzero" fill-opacity="1" /><path clip-path="url(#clip280)" d="M176.481 649.239 L181.365 649.239 L181.365 655.119 L176.481 655.119 L176.481 649.239 Z" fill="#000000" fill-rule="nonzero" fill-opacity="1" /><path clip-path="url(#clip280)" d="M191.596 620.559 L209.953 620.559 L209.953 624.494 L195.879 624.494 L195.879 632.966 Q196.897 632.619 197.916 632.457 Q198.934 632.272 199.953 632.272 Q205.74 632.272 209.12 635.443 Q212.499 638.614 212.499 644.031 Q212.499 649.609 209.027 652.711 Q205.555 655.79 199.235 655.79 Q197.059 655.79 194.791 655.42 Q192.546 655.049 190.138 654.309 L190.138 649.609 Q192.221 650.744 194.444 651.299 Q196.666 651.855 199.143 651.855 Q203.147 651.855 205.485 649.748 Q207.823 647.642 207.823 644.031 Q207.823 640.42 205.485 638.313 Q203.147 636.207 199.143 636.207 Q197.268 636.207 195.393 636.623 Q193.541 637.04 191.596 637.92 L191.596 620.559 Z" fill="#000000" fill-rule="nonzero" fill-opacity="1" /><path clip-path="url(#clip280)" d="M231.712 623.637 Q228.101 623.637 226.272 627.202 Q224.467 630.744 224.467 637.873 Q224.467 644.98 226.272 648.545 Q228.101 652.086 231.712 652.086 Q235.346 652.086 237.152 648.545 Q238.98 644.98 238.98 637.873 Q238.98 630.744 237.152 627.202 Q235.346 623.637 231.712 623.637 M231.712 619.934 Q237.522 619.934 240.578 624.54 Q243.656 629.123 243.656 637.873 Q243.656 646.6 240.578 651.207 Q237.522 655.79 231.712 655.79 Q225.902 655.79 222.823 651.207 Q219.768 646.6 219.768 637.873 Q219.768 629.123 222.823 624.54 Q225.902 619.934 231.712 619.934 Z" fill="#000000" fill-rule="nonzero" fill-opacity="1" /><path clip-path="url(#clip280)" d="M252.684 651.184 L260.323 651.184 L260.323 624.818 L252.013 626.485 L252.013 622.225 L260.277 620.559 L264.953 620.559 L264.953 651.184 L272.591 651.184 L272.591 655.119 L252.684 655.119 L252.684 651.184 Z" fill="#000000" fill-rule="nonzero" fill-opacity="1" /><path clip-path="url(#clip280)" d="M156.689 343.475 Q153.078 343.475 151.249 347.04 Q149.444 350.582 149.444 357.711 Q149.444 364.818 151.249 368.383 Q153.078 371.924 156.689 371.924 Q160.324 371.924 162.129 368.383 Q163.958 364.818 163.958 357.711 Q163.958 350.582 162.129 347.04 Q160.324 343.475 156.689 343.475 M156.689 339.772 Q162.499 339.772 165.555 344.378 Q168.634 348.961 168.634 357.711 Q168.634 366.438 165.555 371.045 Q162.499 375.628 156.689 375.628 Q150.879 375.628 147.8 371.045 Q144.745 366.438 144.745 357.711 Q144.745 348.961 147.8 344.378 Q150.879 339.772 156.689 339.772 Z" fill="#000000" fill-rule="nonzero" fill-opacity="1" /><path clip-path="url(#clip280)" d="M176.851 369.077 L181.735 369.077 L181.735 374.957 L176.851 374.957 L176.851 369.077 Z" fill="#000000" fill-rule="nonzero" fill-opacity="1" /><path clip-path="url(#clip280)" d="M191.967 340.397 L210.323 340.397 L210.323 344.332 L196.249 344.332 L196.249 352.804 Q197.268 352.457 198.286 352.295 Q199.305 352.109 200.323 352.109 Q206.11 352.109 209.49 355.281 Q212.87 358.452 212.87 363.869 Q212.87 369.447 209.397 372.549 Q205.925 375.628 199.606 375.628 Q197.43 375.628 195.161 375.257 Q192.916 374.887 190.509 374.146 L190.509 369.447 Q192.592 370.582 194.814 371.137 Q197.036 371.693 199.513 371.693 Q203.518 371.693 205.856 369.586 Q208.194 367.48 208.194 363.869 Q208.194 360.258 205.856 358.151 Q203.518 356.045 199.513 356.045 Q197.638 356.045 195.763 356.461 Q193.911 356.878 191.967 357.758 L191.967 340.397 Z" fill="#000000" fill-rule="nonzero" fill-opacity="1" /><path clip-path="url(#clip280)" d="M232.082 343.475 Q228.471 343.475 226.643 347.04 Q224.837 350.582 224.837 357.711 Q224.837 364.818 226.643 368.383 Q228.471 371.924 232.082 371.924 Q235.717 371.924 237.522 368.383 Q239.351 364.818 239.351 357.711 Q239.351 350.582 237.522 347.04 Q235.717 343.475 232.082 343.475 M232.082 339.772 Q237.893 339.772 240.948 344.378 Q244.027 348.961 244.027 357.711 Q244.027 366.438 240.948 371.045 Q237.893 375.628 232.082 375.628 Q226.272 375.628 223.194 371.045 Q220.138 366.438 220.138 357.711 Q220.138 348.961 223.194 344.378 Q226.272 339.772 232.082 339.772 Z" fill="#000000" fill-rule="nonzero" fill-opacity="1" /><path clip-path="url(#clip280)" d="M256.272 371.021 L272.591 371.021 L272.591 374.957 L250.647 374.957 L250.647 371.021 Q253.309 368.267 257.892 363.637 Q262.499 358.984 263.679 357.642 Q265.925 355.119 266.804 353.383 Q267.707 351.623 267.707 349.934 Q267.707 347.179 265.763 345.443 Q263.841 343.707 260.74 343.707 Q258.541 343.707 256.087 344.471 Q253.656 345.235 250.879 346.785 L250.879 342.063 Q253.703 340.929 256.156 340.35 Q258.61 339.772 260.647 339.772 Q266.017 339.772 269.212 342.457 Q272.406 345.142 272.406 349.633 Q272.406 351.762 271.596 353.684 Q270.809 355.582 268.703 358.174 Q268.124 358.846 265.022 362.063 Q261.92 365.258 256.272 371.021 Z" fill="#000000" fill-rule="nonzero" fill-opacity="1" /><path clip-path="url(#clip280)" d="M15.2437 927.785 L32.5903 940.675 L50.8917 927.116 L50.8917 934.023 L36.8871 944.399 L50.8917 954.775 L50.8917 961.682 L32.2401 947.837 L15.2437 960.504 L15.2437 953.598 L27.9433 944.145 L15.2437 934.691 L15.2437 927.785 Z" fill="#000000" fill-rule="nonzero" fill-opacity="1" /><path clip-path="url(#clip280)" d="M1238.93 16.7545 L1238.93 25.383 Q1234.79 21.5346 1230.09 19.6307 Q1225.44 17.7268 1220.17 17.7268 Q1209.8 17.7268 1204.29 24.0867 Q1198.78 30.4061 1198.78 42.3968 Q1198.78 54.3469 1204.29 60.7069 Q1209.8 67.0263 1220.17 67.0263 Q1225.44 67.0263 1230.09 65.1223 Q1234.79 63.2184 1238.93 59.3701 L1238.93 67.9175 Q1234.63 70.8341 1229.81 72.2924 Q1225.03 73.7508 1219.68 73.7508 Q1205.95 73.7508 1198.05 65.3654 Q1190.15 56.9395 1190.15 42.3968 Q1190.15 27.8135 1198.05 19.4281 Q1205.95 11.0023 1219.68 11.0023 Q1225.11 11.0023 1229.89 12.4606 Q1234.71 13.8784 1238.93 16.7545 Z" fill="#000000" fill-rule="nonzero" fill-opacity="1" /><path clip-path="url(#clip280)" d="M1251.24 9.54393 L1258.69 9.54393 L1258.69 72.576 L1251.24 72.576 L1251.24 9.54393 Z" fill="#000000" fill-rule="nonzero" fill-opacity="1" /><path clip-path="url(#clip280)" d="M1294.91 49.7694 Q1285.88 49.7694 1282.39 51.8354 Q1278.91 53.9013 1278.91 58.8839 Q1278.91 62.8538 1281.5 65.2034 Q1284.13 67.5124 1288.63 67.5124 Q1294.83 67.5124 1298.56 63.1374 Q1302.32 58.7219 1302.32 51.4303 L1302.32 49.7694 L1294.91 49.7694 M1309.78 46.6907 L1309.78 72.576 L1302.32 72.576 L1302.32 65.6895 Q1299.77 69.8214 1295.96 71.8063 Q1292.15 73.7508 1286.65 73.7508 Q1279.68 73.7508 1275.55 69.8619 Q1271.45 65.9325 1271.45 59.3701 Q1271.45 51.7138 1276.56 47.825 Q1281.7 43.9361 1291.87 43.9361 L1302.32 43.9361 L1302.32 43.2069 Q1302.32 38.0623 1298.92 35.2672 Q1295.56 32.4315 1289.44 32.4315 Q1285.55 32.4315 1281.87 33.3632 Q1278.18 34.295 1274.78 36.1584 L1274.78 29.2718 Q1278.87 27.692 1282.72 26.9223 Q1286.56 26.1121 1290.21 26.1121 Q1300.05 26.1121 1304.92 31.2163 Q1309.78 36.3204 1309.78 46.6907 Z" fill="#000000" fill-rule="nonzero" fill-opacity="1" /><path clip-path="url(#clip280)" d="M1354.05 28.5427 L1354.05 35.5912 Q1350.89 33.9709 1347.49 33.1607 Q1344.09 32.3505 1340.44 32.3505 Q1334.89 32.3505 1332.1 34.0519 Q1329.34 35.7533 1329.34 39.156 Q1329.34 41.7486 1331.33 43.2475 Q1333.31 44.7058 1339.31 46.0426 L1341.86 46.6097 Q1349.8 48.3111 1353.12 51.4303 Q1356.48 54.509 1356.48 60.0587 Q1356.48 66.3781 1351.46 70.0644 Q1346.48 73.7508 1337.73 73.7508 Q1334.08 73.7508 1330.11 73.0216 Q1326.18 72.3329 1321.81 70.9151 L1321.81 63.2184 Q1325.94 65.3654 1329.95 66.4591 Q1333.96 67.5124 1337.89 67.5124 Q1343.16 67.5124 1345.99 65.73 Q1348.83 63.9071 1348.83 60.6258 Q1348.83 57.5877 1346.76 55.9673 Q1344.74 54.3469 1337.81 52.8481 L1335.22 52.2405 Q1328.29 50.7821 1325.21 47.7845 Q1322.13 44.7463 1322.13 39.4801 Q1322.13 33.0797 1326.67 29.5959 Q1331.21 26.1121 1339.55 26.1121 Q1343.68 26.1121 1347.33 26.7198 Q1350.97 27.3274 1354.05 28.5427 Z" fill="#000000" fill-rule="nonzero" fill-opacity="1" /><path clip-path="url(#clip280)" d="M1397.28 28.5427 L1397.28 35.5912 Q1394.12 33.9709 1390.71 33.1607 Q1387.31 32.3505 1383.66 32.3505 Q1378.12 32.3505 1375.32 34.0519 Q1372.57 35.7533 1372.57 39.156 Q1372.57 41.7486 1374.55 43.2475 Q1376.54 44.7058 1382.53 46.0426 L1385.08 46.6097 Q1393.02 48.3111 1396.34 51.4303 Q1399.71 54.509 1399.71 60.0587 Q1399.71 66.3781 1394.68 70.0644 Q1389.7 73.7508 1380.95 73.7508 Q1377.3 73.7508 1373.33 73.0216 Q1369.41 72.3329 1365.03 70.9151 L1365.03 63.2184 Q1369.16 65.3654 1373.17 66.4591 Q1377.18 67.5124 1381.11 67.5124 Q1386.38 67.5124 1389.21 65.73 Q1392.05 63.9071 1392.05 60.6258 Q1392.05 57.5877 1389.98 55.9673 Q1387.96 54.3469 1381.03 52.8481 L1378.44 52.2405 Q1371.51 50.7821 1368.43 47.7845 Q1365.35 44.7463 1365.35 39.4801 Q1365.35 33.0797 1369.89 29.5959 Q1374.43 26.1121 1382.77 26.1121 Q1386.91 26.1121 1390.55 26.7198 Q1394.2 27.3274 1397.28 28.5427 Z" fill="#000000" fill-rule="nonzero" fill-opacity="1" /><path clip-path="url(#clip280)" d="M1456.5 17.4837 Q1450.18 17.4837 1446.98 23.7221 Q1443.82 29.92 1443.82 42.3968 Q1443.82 54.833 1446.98 61.0714 Q1450.18 67.2693 1456.5 67.2693 Q1462.86 67.2693 1466.02 61.0714 Q1469.22 54.833 1469.22 42.3968 Q1469.22 29.92 1466.02 23.7221 Q1462.86 17.4837 1456.5 17.4837 M1456.5 11.0023 Q1466.67 11.0023 1472.01 19.0636 Q1477.4 27.0843 1477.4 42.3968 Q1477.4 57.6687 1472.01 65.73 Q1466.67 73.7508 1456.5 73.7508 Q1446.33 73.7508 1440.94 65.73 Q1435.6 57.6687 1435.6 42.3968 Q1435.6 27.0843 1440.94 19.0636 Q1446.33 11.0023 1456.5 11.0023 Z" fill="#000000" fill-rule="nonzero" fill-opacity="1" /><path clip-path="url(#clip280)" d="M1517.43 12.096 L1529.62 12.096 L1545.05 53.2532 L1560.57 12.096 L1572.76 12.096 L1572.76 72.576 L1564.78 72.576 L1564.78 19.4686 L1549.18 60.9499 L1540.96 60.9499 L1525.37 19.4686 L1525.37 72.576 L1517.43 72.576 L1517.43 12.096 Z" fill="#000000" fill-rule="nonzero" fill-opacity="1" /><path clip-path="url(#clip280)" d="M1627.49 48.0275 L1627.49 51.6733 L1593.22 51.6733 Q1593.7 59.3701 1597.84 63.421 Q1602.01 67.4314 1609.42 67.4314 Q1613.72 67.4314 1617.73 66.3781 Q1621.78 65.3249 1625.75 63.2184 L1625.75 70.267 Q1621.74 71.9684 1617.52 72.8596 Q1613.31 73.7508 1608.98 73.7508 Q1598.12 73.7508 1591.76 67.4314 Q1585.44 61.1119 1585.44 50.3365 Q1585.44 39.1965 1591.44 32.6746 Q1597.47 26.1121 1607.68 26.1121 Q1616.83 26.1121 1622.14 32.0264 Q1627.49 37.9003 1627.49 48.0275 M1620.04 45.84 Q1619.95 39.7232 1616.59 36.0774 Q1613.27 32.4315 1607.76 32.4315 Q1601.52 32.4315 1597.76 35.9558 Q1594.03 39.4801 1593.46 45.8805 L1620.04 45.84 Z" fill="#000000" fill-rule="nonzero" fill-opacity="1" /><path clip-path="url(#clip280)" d="M1660.34 49.7694 Q1651.31 49.7694 1647.82 51.8354 Q1644.34 53.9013 1644.34 58.8839 Q1644.34 62.8538 1646.93 65.2034 Q1649.57 67.5124 1654.06 67.5124 Q1660.26 67.5124 1663.99 63.1374 Q1667.75 58.7219 1667.75 51.4303 L1667.75 49.7694 L1660.34 49.7694 M1675.21 46.6907 L1675.21 72.576 L1667.75 72.576 L1667.75 65.6895 Q1665.2 69.8214 1661.39 71.8063 Q1657.59 73.7508 1652.08 73.7508 Q1645.11 73.7508 1640.98 69.8619 Q1636.89 65.9325 1636.89 59.3701 Q1636.89 51.7138 1641.99 47.825 Q1647.14 43.9361 1657.3 43.9361 L1667.75 43.9361 L1667.75 43.2069 Q1667.75 38.0623 1664.35 35.2672 Q1660.99 32.4315 1654.87 32.4315 Q1650.98 32.4315 1647.3 33.3632 Q1643.61 34.295 1640.21 36.1584 L1640.21 29.2718 Q1644.3 27.692 1648.15 26.9223 Q1652 26.1121 1655.64 26.1121 Q1665.49 26.1121 1670.35 31.2163 Q1675.21 36.3204 1675.21 46.6907 Z" fill="#000000" fill-rule="nonzero" fill-opacity="1" /><path clip-path="url(#clip280)" d="M1728.28 45.1919 L1728.28 72.576 L1720.82 72.576 L1720.82 45.4349 Q1720.82 38.994 1718.31 35.7938 Q1715.8 32.5936 1710.78 32.5936 Q1704.74 32.5936 1701.26 36.4419 Q1697.77 40.2903 1697.77 46.9338 L1697.77 72.576 L1690.28 72.576 L1690.28 27.2059 L1697.77 27.2059 L1697.77 34.2544 Q1700.45 30.163 1704.05 28.1376 Q1707.7 26.1121 1712.44 26.1121 Q1720.25 26.1121 1724.26 30.9732 Q1728.28 35.7938 1728.28 45.1919 Z" fill="#000000" fill-rule="nonzero" fill-opacity="1" /><polyline clip-path="url(#clip282)" style="stroke:#009af9; stroke-linecap:round; stroke-linejoin:round; stroke-width:8; stroke-opacity:1; fill:none" points="413.344,246.604 434.472,298.764 455.601,360.444 476.73,430.973 497.858,509.626 518.987,595.579 540.116,687.849 561.245,785.25 582.373,886.366 603.502,989.545 624.631,1092.94 645.759,1194.56 666.888,1292.35 688.017,1384.31 709.145,1468.54 730.274,1543.38 751.403,1607.46 772.531,1659.76 793.66,1699.58 814.789,1726.58 835.918,1740.71 857.046,1742.15 878.175,1731.28 899.304,1708.59 920.432,1674.64 941.561,1630.07 962.69,1575.49 983.818,1511.56 1004.95,1438.96 1026.08,1358.44 1047.2,1270.84 1068.33,1177.19 1089.46,1078.75 1110.59,976.974 1131.72,873.574 1152.85,770.439 1173.98,669.58 1195.11,573.05 1216.23,482.839 1237.36,400.784 1258.49,328.483 1279.62,267.227 1300.75,217.964 1321.88,181.291 1343.01,157.482 1364.13,146.526 1385.26,148.185 1406.39,162.057 1427.52,187.623 1448.65,224.296 1469.78,271.454 1490.91,328.455 1512.04,394.646 1533.16,469.332 1554.29,551.747 1575.42,640.993 1596.55,735.991 1617.68,835.442 1638.81,937.809 1659.94,1041.34 1681.07,1144.1 1702.19,1244.06 1723.32,1339.18 1744.45,1427.5 1765.58,1507.23 1786.71,1576.84 1807.84,1635.14 1828.97,1681.26 1850.1,1714.69 1871.22,1735.25 1892.35,1743 1913.48,1738.23 1934.61,1721.38 1955.74,1692.98 1976.87,1653.64 1998,1603.99 2019.12,1544.65 2040.25,1476.3 2061.38,1399.64 2082.51,1315.46 2103.64,1224.7 2124.77,1128.48 2145.9,1028.18 2167.03,925.363 2188.15,821.849 2209.28,719.597 2230.41,620.647 2251.54,527.035 2272.67,440.686 2293.8,363.326 2314.93,296.407 2336.06,241.051 2357.18,198.029 2378.31,167.774 2399.44,150.408 2420.57,145.8 2441.7,153.625 2462.83,173.414 2483.96,204.609 2505.08,246.604 "/>
<path clip-path="url(#clip280)" d="M2935.51 1790.91 L5152.76 1790.91 L5152.76 97.8844 L2935.51 97.8844  Z" fill="#ffffff" fill-rule="evenodd" fill-opacity="1"/>
<defs>
  <clipPath id="clip283">
    <rect x="2935" y="97" width="2218" height="1694"/>
  </clipPath>
</defs>
<polyline clip-path="url(#clip283)" style="stroke:#000000; stroke-linecap:round; stroke-linejoin:round; stroke-width:2; stroke-opacity:0.1; fill:none" points="2977.13,1790.91 2977.13,97.8844 "/>
<polyline clip-path="url(#clip283)" style="stroke:#000000; stroke-linecap:round; stroke-linejoin:round; stroke-width:2; stroke-opacity:0.1; fill:none" points="3505.35,1790.91 3505.35,97.8844 "/>
<polyline clip-path="url(#clip283)" style="stroke:#000000; stroke-linecap:round; stroke-linejoin:round; stroke-width:2; stroke-opacity:0.1; fill:none" points="4033.57,1790.91 4033.57,97.8844 "/>
<polyline clip-path="url(#clip283)" style="stroke:#000000; stroke-linecap:round; stroke-linejoin:round; stroke-width:2; stroke-opacity:0.1; fill:none" points="4561.79,1790.91 4561.79,97.8844 "/>
<polyline clip-path="url(#clip283)" style="stroke:#000000; stroke-linecap:round; stroke-linejoin:round; stroke-width:2; stroke-opacity:0.1; fill:none" points="5090,1790.91 5090,97.8844 "/>
<polyline clip-path="url(#clip280)" style="stroke:#000000; stroke-linecap:round; stroke-linejoin:round; stroke-width:4; stroke-opacity:1; fill:none" points="2935.51,1790.91 5152.76,1790.91 "/>
<polyline clip-path="url(#clip280)" style="stroke:#000000; stroke-linecap:round; stroke-linejoin:round; stroke-width:4; stroke-opacity:1; fill:none" points="2977.13,1790.91 2977.13,1772.02 "/>
<polyline clip-path="url(#clip280)" style="stroke:#000000; stroke-linecap:round; stroke-linejoin:round; stroke-width:4; stroke-opacity:1; fill:none" points="3505.35,1790.91 3505.35,1772.02 "/>
<polyline clip-path="url(#clip280)" style="stroke:#000000; stroke-linecap:round; stroke-linejoin:round; stroke-width:4; stroke-opacity:1; fill:none" points="4033.57,1790.91 4033.57,1772.02 "/>
<polyline clip-path="url(#clip280)" style="stroke:#000000; stroke-linecap:round; stroke-linejoin:round; stroke-width:4; stroke-opacity:1; fill:none" points="4561.79,1790.91 4561.79,1772.02 "/>
<polyline clip-path="url(#clip280)" style="stroke:#000000; stroke-linecap:round; stroke-linejoin:round; stroke-width:4; stroke-opacity:1; fill:none" points="5090,1790.91 5090,1772.02 "/>
<path clip-path="url(#clip280)" d="M2977.13 1844.23 Q2973.52 1844.23 2971.69 1847.8 Q2969.89 1851.34 2969.89 1858.47 Q2969.89 1865.58 2971.69 1869.14 Q2973.52 1872.68 2977.13 1872.68 Q2980.77 1872.68 2982.57 1869.14 Q2984.4 1865.58 2984.4 1858.47 Q2984.4 1851.34 2982.57 1847.8 Q2980.77 1844.23 2977.13 1844.23 M2977.13 1840.53 Q2982.94 1840.53 2986 1845.14 Q2989.08 1849.72 2989.08 1858.47 Q2989.08 1867.2 2986 1871.8 Q2982.94 1876.39 2977.13 1876.39 Q2971.32 1876.39 2968.25 1871.8 Q2965.19 1867.2 2965.19 1858.47 Q2965.19 1849.72 2968.25 1845.14 Q2971.32 1840.53 2977.13 1840.53 Z" fill="#000000" fill-rule="nonzero" fill-opacity="1" /><path clip-path="url(#clip280)" d="M3484.62 1871.78 L3500.94 1871.78 L3500.94 1875.71 L3479 1875.71 L3479 1871.78 Q3481.66 1869.02 3486.24 1864.39 Q3490.85 1859.74 3492.03 1858.4 Q3494.28 1855.88 3495.15 1854.14 Q3496.06 1852.38 3496.06 1850.69 Q3496.06 1847.94 3494.11 1846.2 Q3492.19 1844.46 3489.09 1844.46 Q3486.89 1844.46 3484.44 1845.23 Q3482.01 1845.99 3479.23 1847.54 L3479.23 1842.82 Q3482.05 1841.69 3484.51 1841.11 Q3486.96 1840.53 3489 1840.53 Q3494.37 1840.53 3497.56 1843.21 Q3500.76 1845.9 3500.76 1850.39 Q3500.76 1852.52 3499.95 1854.44 Q3499.16 1856.34 3497.05 1858.93 Q3496.47 1859.6 3493.37 1862.82 Q3490.27 1866.01 3484.62 1871.78 Z" fill="#000000" fill-rule="nonzero" fill-opacity="1" /><path clip-path="url(#clip280)" d="M3510.8 1841.15 L3529.16 1841.15 L3529.16 1845.09 L3515.09 1845.09 L3515.09 1853.56 Q3516.1 1853.21 3517.12 1853.05 Q3518.14 1852.87 3519.16 1852.87 Q3524.95 1852.87 3528.33 1856.04 Q3531.71 1859.21 3531.71 1864.63 Q3531.71 1870.2 3528.23 1873.31 Q3524.76 1876.39 3518.44 1876.39 Q3516.27 1876.39 3514 1876.01 Q3511.75 1875.64 3509.34 1874.9 L3509.34 1870.2 Q3511.43 1871.34 3513.65 1871.89 Q3515.87 1872.45 3518.35 1872.45 Q3522.35 1872.45 3524.69 1870.34 Q3527.03 1868.24 3527.03 1864.63 Q3527.03 1861.01 3524.69 1858.91 Q3522.35 1856.8 3518.35 1856.8 Q3516.47 1856.8 3514.6 1857.22 Q3512.75 1857.64 3510.8 1858.51 L3510.8 1841.15 Z" fill="#000000" fill-rule="nonzero" fill-opacity="1" /><path clip-path="url(#clip280)" d="M4008.27 1841.15 L4026.62 1841.15 L4026.62 1845.09 L4012.55 1845.09 L4012.55 1853.56 Q4013.57 1853.21 4014.59 1853.05 Q4015.61 1852.87 4016.62 1852.87 Q4022.41 1852.87 4025.79 1856.04 Q4029.17 1859.21 4029.17 1864.63 Q4029.17 1870.2 4025.7 1873.31 Q4022.23 1876.39 4015.91 1876.39 Q4013.73 1876.39 4011.46 1876.01 Q4009.22 1875.64 4006.81 1874.9 L4006.81 1870.2 Q4008.89 1871.34 4011.12 1871.89 Q4013.34 1872.45 4015.81 1872.45 Q4019.82 1872.45 4022.16 1870.34 Q4024.49 1868.24 4024.49 1864.63 Q4024.49 1861.01 4022.16 1858.91 Q4019.82 1856.8 4015.81 1856.8 Q4013.94 1856.8 4012.06 1857.22 Q4010.21 1857.64 4008.27 1858.51 L4008.27 1841.15 Z" fill="#000000" fill-rule="nonzero" fill-opacity="1" /><path clip-path="url(#clip280)" d="M4048.38 1844.23 Q4044.77 1844.23 4042.94 1847.8 Q4041.14 1851.34 4041.14 1858.47 Q4041.14 1865.58 4042.94 1869.14 Q4044.77 1872.68 4048.38 1872.68 Q4052.02 1872.68 4053.82 1869.14 Q4055.65 1865.58 4055.65 1858.47 Q4055.65 1851.34 4053.82 1847.8 Q4052.02 1844.23 4048.38 1844.23 M4048.38 1840.53 Q4054.19 1840.53 4057.25 1845.14 Q4060.33 1849.72 4060.33 1858.47 Q4060.33 1867.2 4057.25 1871.8 Q4054.19 1876.39 4048.38 1876.39 Q4042.57 1876.39 4039.49 1871.8 Q4036.44 1867.2 4036.44 1858.47 Q4036.44 1849.72 4039.49 1845.14 Q4042.57 1840.53 4048.38 1840.53 Z" fill="#000000" fill-rule="nonzero" fill-opacity="1" /><path clip-path="url(#clip280)" d="M4535.64 1841.15 L4557.86 1841.15 L4557.86 1843.14 L4545.32 1875.71 L4540.43 1875.71 L4552.24 1845.09 L4535.64 1845.09 L4535.64 1841.15 Z" fill="#000000" fill-rule="nonzero" fill-opacity="1" /><path clip-path="url(#clip280)" d="M4567.03 1841.15 L4585.39 1841.15 L4585.39 1845.09 L4571.31 1845.09 L4571.31 1853.56 Q4572.33 1853.21 4573.35 1853.05 Q4574.37 1852.87 4575.39 1852.87 Q4581.17 1852.87 4584.55 1856.04 Q4587.93 1859.21 4587.93 1864.63 Q4587.93 1870.2 4584.46 1873.31 Q4580.99 1876.39 4574.67 1876.39 Q4572.49 1876.39 4570.22 1876.01 Q4567.98 1875.64 4565.57 1874.9 L4565.57 1870.2 Q4567.65 1871.34 4569.88 1871.89 Q4572.1 1872.45 4574.58 1872.45 Q4578.58 1872.45 4580.92 1870.34 Q4583.26 1868.24 4583.26 1864.63 Q4583.26 1861.01 4580.92 1858.91 Q4578.58 1856.8 4574.58 1856.8 Q4572.7 1856.8 4570.83 1857.22 Q4568.97 1857.64 4567.03 1858.51 L4567.03 1841.15 Z" fill="#000000" fill-rule="nonzero" fill-opacity="1" /><path clip-path="url(#clip280)" d="M5049.61 1871.78 L5057.25 1871.78 L5057.25 1845.41 L5048.94 1847.08 L5048.94 1842.82 L5057.2 1841.15 L5061.88 1841.15 L5061.88 1871.78 L5069.52 1871.78 L5069.52 1875.71 L5049.61 1875.71 L5049.61 1871.78 Z" fill="#000000" fill-rule="nonzero" fill-opacity="1" /><path clip-path="url(#clip280)" d="M5088.96 1844.23 Q5085.35 1844.23 5083.52 1847.8 Q5081.72 1851.34 5081.72 1858.47 Q5081.72 1865.58 5083.52 1869.14 Q5085.35 1872.68 5088.96 1872.68 Q5092.6 1872.68 5094.4 1869.14 Q5096.23 1865.58 5096.23 1858.47 Q5096.23 1851.34 5094.4 1847.8 Q5092.6 1844.23 5088.96 1844.23 M5088.96 1840.53 Q5094.77 1840.53 5097.83 1845.14 Q5100.91 1849.72 5100.91 1858.47 Q5100.91 1867.2 5097.83 1871.8 Q5094.77 1876.39 5088.96 1876.39 Q5083.15 1876.39 5080.07 1871.8 Q5077.02 1867.2 5077.02 1858.47 Q5077.02 1849.72 5080.07 1845.14 Q5083.15 1840.53 5088.96 1840.53 Z" fill="#000000" fill-rule="nonzero" fill-opacity="1" /><path clip-path="url(#clip280)" d="M5119.12 1844.23 Q5115.51 1844.23 5113.68 1847.8 Q5111.88 1851.34 5111.88 1858.47 Q5111.88 1865.58 5113.68 1869.14 Q5115.51 1872.68 5119.12 1872.68 Q5122.76 1872.68 5124.56 1869.14 Q5126.39 1865.58 5126.39 1858.47 Q5126.39 1851.34 5124.56 1847.8 Q5122.76 1844.23 5119.12 1844.23 M5119.12 1840.53 Q5124.93 1840.53 5127.99 1845.14 Q5131.07 1849.72 5131.07 1858.47 Q5131.07 1867.2 5127.99 1871.8 Q5124.93 1876.39 5119.12 1876.39 Q5113.31 1876.39 5110.24 1871.8 Q5107.18 1867.2 5107.18 1858.47 Q5107.18 1849.72 5110.24 1845.14 Q5113.31 1840.53 5119.12 1840.53 Z" fill="#000000" fill-rule="nonzero" fill-opacity="1" /><path clip-path="url(#clip280)" d="M3983.29 1932.01 L3983.29 1942.13 L3995.36 1942.13 L3995.36 1946.68 L3983.29 1946.68 L3983.29 1966.03 Q3983.29 1970.39 3984.47 1971.63 Q3985.68 1972.88 3989.34 1972.88 L3995.36 1972.88 L3995.36 1977.78 L3989.34 1977.78 Q3982.56 1977.78 3979.98 1975.26 Q3977.4 1972.72 3977.4 1966.03 L3977.4 1946.68 L3973.11 1946.68 L3973.11 1942.13 L3977.4 1942.13 L3977.4 1932.01 L3983.29 1932.01 Z" fill="#000000" fill-rule="nonzero" fill-opacity="1" /><path clip-path="url(#clip280)" d="M4003.06 1942.13 L4008.91 1942.13 L4008.91 1977.78 L4003.06 1977.78 L4003.06 1942.13 M4003.06 1928.25 L4008.91 1928.25 L4008.91 1935.67 L4003.06 1935.67 L4003.06 1928.25 Z" fill="#000000" fill-rule="nonzero" fill-opacity="1" /><path clip-path="url(#clip280)" d="M4048.92 1948.97 Q4051.12 1945.03 4054.18 1943.15 Q4057.23 1941.27 4061.37 1941.27 Q4066.94 1941.27 4069.96 1945.19 Q4072.99 1949.07 4072.99 1956.26 L4072.99 1977.78 L4067.1 1977.78 L4067.1 1956.45 Q4067.1 1951.33 4065.28 1948.85 Q4063.47 1946.36 4059.75 1946.36 Q4055.19 1946.36 4052.55 1949.39 Q4049.91 1952.41 4049.91 1957.63 L4049.91 1977.78 L4044.02 1977.78 L4044.02 1956.45 Q4044.02 1951.3 4042.21 1948.85 Q4040.39 1946.36 4036.61 1946.36 Q4032.12 1946.36 4029.48 1949.42 Q4026.83 1952.44 4026.83 1957.63 L4026.83 1977.78 L4020.95 1977.78 L4020.95 1942.13 L4026.83 1942.13 L4026.83 1947.67 Q4028.84 1944.39 4031.64 1942.83 Q4034.44 1941.27 4038.29 1941.27 Q4042.18 1941.27 4044.88 1943.24 Q4047.62 1945.22 4048.92 1948.97 Z" fill="#000000" fill-rule="nonzero" fill-opacity="1" /><path clip-path="url(#clip280)" d="M4115.16 1958.49 L4115.16 1961.35 L4088.23 1961.35 Q4088.61 1967.4 4091.86 1970.58 Q4095.14 1973.74 4100.96 1973.74 Q4104.34 1973.74 4107.49 1972.91 Q4110.67 1972.08 4113.79 1970.43 L4113.79 1975.96 Q4110.64 1977.3 4107.33 1978 Q4104.02 1978.7 4100.61 1978.7 Q4092.08 1978.7 4087.09 1973.74 Q4082.12 1968.77 4082.12 1960.3 Q4082.12 1951.55 4086.83 1946.43 Q4091.57 1941.27 4099.59 1941.27 Q4106.79 1941.27 4110.96 1945.92 Q4115.16 1950.53 4115.16 1958.49 M4109.3 1956.77 Q4109.24 1951.96 4106.6 1949.1 Q4103.99 1946.24 4099.66 1946.24 Q4094.76 1946.24 4091.8 1949 Q4088.87 1951.77 4088.42 1956.8 L4109.3 1956.77 Z" fill="#000000" fill-rule="nonzero" fill-opacity="1" /><polyline clip-path="url(#clip283)" style="stroke:#000000; stroke-linecap:round; stroke-linejoin:round; stroke-width:2; stroke-opacity:0.1; fill:none" points="2935.51,1673.42 5152.76,1673.42 "/>
<polyline clip-path="url(#clip283)" style="stroke:#000000; stroke-linecap:round; stroke-linejoin:round; stroke-width:2; stroke-opacity:0.1; fill:none" points="2935.51,1430.26 5152.76,1430.26 "/>
<polyline clip-path="url(#clip283)" style="stroke:#000000; stroke-linecap:round; stroke-linejoin:round; stroke-width:2; stroke-opacity:0.1; fill:none" points="2935.51,1187.1 5152.76,1187.1 "/>
<polyline clip-path="url(#clip283)" style="stroke:#000000; stroke-linecap:round; stroke-linejoin:round; stroke-width:2; stroke-opacity:0.1; fill:none" points="2935.51,943.941 5152.76,943.941 "/>
<polyline clip-path="url(#clip283)" style="stroke:#000000; stroke-linecap:round; stroke-linejoin:round; stroke-width:2; stroke-opacity:0.1; fill:none" points="2935.51,700.783 5152.76,700.783 "/>
<polyline clip-path="url(#clip283)" style="stroke:#000000; stroke-linecap:round; stroke-linejoin:round; stroke-width:2; stroke-opacity:0.1; fill:none" points="2935.51,457.625 5152.76,457.625 "/>
<polyline clip-path="url(#clip283)" style="stroke:#000000; stroke-linecap:round; stroke-linejoin:round; stroke-width:2; stroke-opacity:0.1; fill:none" points="2935.51,214.466 5152.76,214.466 "/>
<polyline clip-path="url(#clip280)" style="stroke:#000000; stroke-linecap:round; stroke-linejoin:round; stroke-width:4; stroke-opacity:1; fill:none" points="2935.51,1790.91 2935.51,97.8844 "/>
<polyline clip-path="url(#clip280)" style="stroke:#000000; stroke-linecap:round; stroke-linejoin:round; stroke-width:4; stroke-opacity:1; fill:none" points="2935.51,1673.42 2954.41,1673.42 "/>
<polyline clip-path="url(#clip280)" style="stroke:#000000; stroke-linecap:round; stroke-linejoin:round; stroke-width:4; stroke-opacity:1; fill:none" points="2935.51,1430.26 2954.41,1430.26 "/>
<polyline clip-path="url(#clip280)" style="stroke:#000000; stroke-linecap:round; stroke-linejoin:round; stroke-width:4; stroke-opacity:1; fill:none" points="2935.51,1187.1 2954.41,1187.1 "/>
<polyline clip-path="url(#clip280)" style="stroke:#000000; stroke-linecap:round; stroke-linejoin:round; stroke-width:4; stroke-opacity:1; fill:none" points="2935.51,943.941 2954.41,943.941 "/>
<polyline clip-path="url(#clip280)" style="stroke:#000000; stroke-linecap:round; stroke-linejoin:round; stroke-width:4; stroke-opacity:1; fill:none" points="2935.51,700.783 2954.41,700.783 "/>
<polyline clip-path="url(#clip280)" style="stroke:#000000; stroke-linecap:round; stroke-linejoin:round; stroke-width:4; stroke-opacity:1; fill:none" points="2935.51,457.625 2954.41,457.625 "/>
<polyline clip-path="url(#clip280)" style="stroke:#000000; stroke-linecap:round; stroke-linejoin:round; stroke-width:4; stroke-opacity:1; fill:none" points="2935.51,214.466 2954.41,214.466 "/>
<path clip-path="url(#clip280)" d="M2771.17 1659.21 Q2767.56 1659.21 2765.73 1662.78 Q2763.92 1666.32 2763.92 1673.45 Q2763.92 1680.56 2765.73 1684.12 Q2767.56 1687.66 2771.17 1687.66 Q2774.8 1687.66 2776.61 1684.12 Q2778.44 1680.56 2778.44 1673.45 Q2778.44 1666.32 2776.61 1662.78 Q2774.8 1659.21 2771.17 1659.21 M2771.17 1655.51 Q2776.98 1655.51 2780.03 1660.12 Q2783.11 1664.7 2783.11 1673.45 Q2783.11 1682.18 2780.03 1686.78 Q2776.98 1691.37 2771.17 1691.37 Q2765.36 1691.37 2762.28 1686.78 Q2759.22 1682.18 2759.22 1673.45 Q2759.22 1664.7 2762.28 1660.12 Q2765.36 1655.51 2771.17 1655.51 Z" fill="#000000" fill-rule="nonzero" fill-opacity="1" /><path clip-path="url(#clip280)" d="M2791.33 1684.82 L2796.21 1684.82 L2796.21 1690.7 L2791.33 1690.7 L2791.33 1684.82 Z" fill="#000000" fill-rule="nonzero" fill-opacity="1" /><path clip-path="url(#clip280)" d="M2820.57 1672.06 Q2823.92 1672.78 2825.8 1675.05 Q2827.7 1677.32 2827.7 1680.65 Q2827.7 1685.76 2824.18 1688.57 Q2820.66 1691.37 2814.18 1691.37 Q2812 1691.37 2809.69 1690.93 Q2807.4 1690.51 2804.94 1689.65 L2804.94 1685.14 Q2806.89 1686.27 2809.2 1686.85 Q2811.52 1687.43 2814.04 1687.43 Q2818.44 1687.43 2820.73 1685.7 Q2823.04 1683.96 2823.04 1680.65 Q2823.04 1677.59 2820.89 1675.88 Q2818.76 1674.14 2814.94 1674.14 L2810.91 1674.14 L2810.91 1670.3 L2815.13 1670.3 Q2818.58 1670.3 2820.4 1668.94 Q2822.23 1667.55 2822.23 1664.95 Q2822.23 1662.29 2820.33 1660.88 Q2818.46 1659.45 2814.94 1659.45 Q2813.02 1659.45 2810.82 1659.86 Q2808.62 1660.28 2805.98 1661.16 L2805.98 1656.99 Q2808.65 1656.25 2810.96 1655.88 Q2813.3 1655.51 2815.36 1655.51 Q2820.68 1655.51 2823.78 1657.94 Q2826.89 1660.35 2826.89 1664.47 Q2826.89 1667.34 2825.24 1669.33 Q2823.6 1671.3 2820.57 1672.06 Z" fill="#000000" fill-rule="nonzero" fill-opacity="1" /><path clip-path="url(#clip280)" d="M2836.61 1656.14 L2854.96 1656.14 L2854.96 1660.07 L2840.89 1660.07 L2840.89 1668.54 Q2841.91 1668.2 2842.93 1668.03 Q2843.95 1667.85 2844.96 1667.85 Q2850.75 1667.85 2854.13 1671.02 Q2857.51 1674.19 2857.51 1679.61 Q2857.51 1685.19 2854.04 1688.29 Q2850.57 1691.37 2844.25 1691.37 Q2842.07 1691.37 2839.8 1691 Q2837.56 1690.63 2835.15 1689.89 L2835.15 1685.19 Q2837.23 1686.32 2839.46 1686.88 Q2841.68 1687.43 2844.15 1687.43 Q2848.16 1687.43 2850.5 1685.33 Q2852.83 1683.22 2852.83 1679.61 Q2852.83 1676 2850.5 1673.89 Q2848.16 1671.78 2844.15 1671.78 Q2842.28 1671.78 2840.4 1672.2 Q2838.55 1672.62 2836.61 1673.5 L2836.61 1656.14 Z" fill="#000000" fill-rule="nonzero" fill-opacity="1" /><path clip-path="url(#clip280)" d="M2770.17 1416.06 Q2766.56 1416.06 2764.73 1419.62 Q2762.93 1423.16 2762.93 1430.29 Q2762.93 1437.4 2764.73 1440.96 Q2766.56 1444.5 2770.17 1444.5 Q2773.81 1444.5 2775.61 1440.96 Q2777.44 1437.4 2777.44 1430.29 Q2777.44 1423.16 2775.61 1419.62 Q2773.81 1416.06 2770.17 1416.06 M2770.17 1412.35 Q2775.98 1412.35 2779.04 1416.96 Q2782.12 1421.54 2782.12 1430.29 Q2782.12 1439.02 2779.04 1443.63 Q2775.98 1448.21 2770.17 1448.21 Q2764.36 1448.21 2761.28 1443.63 Q2758.23 1439.02 2758.23 1430.29 Q2758.23 1421.54 2761.28 1416.96 Q2764.36 1412.35 2770.17 1412.35 Z" fill="#000000" fill-rule="nonzero" fill-opacity="1" /><path clip-path="url(#clip280)" d="M2790.33 1441.66 L2795.22 1441.66 L2795.22 1447.54 L2790.33 1447.54 L2790.33 1441.66 Z" fill="#000000" fill-rule="nonzero" fill-opacity="1" /><path clip-path="url(#clip280)" d="M2818.25 1417.05 L2806.45 1435.5 L2818.25 1435.5 L2818.25 1417.05 M2817.02 1412.98 L2822.9 1412.98 L2822.9 1435.5 L2827.83 1435.5 L2827.83 1439.39 L2822.9 1439.39 L2822.9 1447.54 L2818.25 1447.54 L2818.25 1439.39 L2802.65 1439.39 L2802.65 1434.88 L2817.02 1412.98 Z" fill="#000000" fill-rule="nonzero" fill-opacity="1" /><path clip-path="url(#clip280)" d="M2845.57 1416.06 Q2841.96 1416.06 2840.13 1419.62 Q2838.32 1423.16 2838.32 1430.29 Q2838.32 1437.4 2840.13 1440.96 Q2841.96 1444.5 2845.57 1444.5 Q2849.2 1444.5 2851.01 1440.96 Q2852.83 1437.4 2852.83 1430.29 Q2852.83 1423.16 2851.01 1419.62 Q2849.2 1416.06 2845.57 1416.06 M2845.57 1412.35 Q2851.38 1412.35 2854.43 1416.96 Q2857.51 1421.54 2857.51 1430.29 Q2857.51 1439.02 2854.43 1443.63 Q2851.38 1448.21 2845.57 1448.21 Q2839.76 1448.21 2836.68 1443.63 Q2833.62 1439.02 2833.62 1430.29 Q2833.62 1421.54 2836.68 1416.96 Q2839.76 1412.35 2845.57 1412.35 Z" fill="#000000" fill-rule="nonzero" fill-opacity="1" /><path clip-path="url(#clip280)" d="M2771.17 1172.9 Q2767.56 1172.9 2765.73 1176.46 Q2763.92 1180 2763.92 1187.13 Q2763.92 1194.24 2765.73 1197.81 Q2767.56 1201.35 2771.17 1201.35 Q2774.8 1201.35 2776.61 1197.81 Q2778.44 1194.24 2778.44 1187.13 Q2778.44 1180 2776.61 1176.46 Q2774.8 1172.9 2771.17 1172.9 M2771.17 1169.19 Q2776.98 1169.19 2780.03 1173.8 Q2783.11 1178.38 2783.11 1187.13 Q2783.11 1195.86 2780.03 1200.47 Q2776.98 1205.05 2771.17 1205.05 Q2765.36 1205.05 2762.28 1200.47 Q2759.22 1195.86 2759.22 1187.13 Q2759.22 1178.38 2762.28 1173.8 Q2765.36 1169.19 2771.17 1169.19 Z" fill="#000000" fill-rule="nonzero" fill-opacity="1" /><path clip-path="url(#clip280)" d="M2791.33 1198.5 L2796.21 1198.5 L2796.21 1204.38 L2791.33 1204.38 L2791.33 1198.5 Z" fill="#000000" fill-rule="nonzero" fill-opacity="1" /><path clip-path="url(#clip280)" d="M2819.25 1173.89 L2807.44 1192.34 L2819.25 1192.34 L2819.25 1173.89 M2818.02 1169.82 L2823.9 1169.82 L2823.9 1192.34 L2828.83 1192.34 L2828.83 1196.23 L2823.9 1196.23 L2823.9 1204.38 L2819.25 1204.38 L2819.25 1196.23 L2803.65 1196.23 L2803.65 1191.72 L2818.02 1169.82 Z" fill="#000000" fill-rule="nonzero" fill-opacity="1" /><path clip-path="url(#clip280)" d="M2836.61 1169.82 L2854.96 1169.82 L2854.96 1173.75 L2840.89 1173.75 L2840.89 1182.23 Q2841.91 1181.88 2842.93 1181.72 Q2843.95 1181.53 2844.96 1181.53 Q2850.75 1181.53 2854.13 1184.7 Q2857.51 1187.87 2857.51 1193.29 Q2857.51 1198.87 2854.04 1201.97 Q2850.57 1205.05 2844.25 1205.05 Q2842.07 1205.05 2839.8 1204.68 Q2837.56 1204.31 2835.15 1203.57 L2835.15 1198.87 Q2837.23 1200 2839.46 1200.56 Q2841.68 1201.12 2844.15 1201.12 Q2848.16 1201.12 2850.5 1199.01 Q2852.83 1196.9 2852.83 1193.29 Q2852.83 1189.68 2850.5 1187.57 Q2848.16 1185.47 2844.15 1185.47 Q2842.28 1185.47 2840.4 1185.88 Q2838.55 1186.3 2836.61 1187.18 L2836.61 1169.82 Z" fill="#000000" fill-rule="nonzero" fill-opacity="1" /><path clip-path="url(#clip280)" d="M2770.17 929.74 Q2766.56 929.74 2764.73 933.304 Q2762.93 936.846 2762.93 943.976 Q2762.93 951.082 2764.73 954.647 Q2766.56 958.189 2770.17 958.189 Q2773.81 958.189 2775.61 954.647 Q2777.44 951.082 2777.44 943.976 Q2777.44 936.846 2775.61 933.304 Q2773.81 929.74 2770.17 929.74 M2770.17 926.036 Q2775.98 926.036 2779.04 930.642 Q2782.12 935.226 2782.12 943.976 Q2782.12 952.702 2779.04 957.309 Q2775.98 961.892 2770.17 961.892 Q2764.36 961.892 2761.28 957.309 Q2758.23 952.702 2758.23 943.976 Q2758.23 935.226 2761.28 930.642 Q2764.36 926.036 2770.17 926.036 Z" fill="#000000" fill-rule="nonzero" fill-opacity="1" /><path clip-path="url(#clip280)" d="M2790.33 955.341 L2795.22 955.341 L2795.22 961.221 L2790.33 961.221 L2790.33 955.341 Z" fill="#000000" fill-rule="nonzero" fill-opacity="1" /><path clip-path="url(#clip280)" d="M2805.45 926.661 L2823.81 926.661 L2823.81 930.596 L2809.73 930.596 L2809.73 939.068 Q2810.75 938.721 2811.77 938.559 Q2812.79 938.374 2813.81 938.374 Q2819.59 938.374 2822.97 941.545 Q2826.35 944.716 2826.35 950.133 Q2826.35 955.712 2822.88 958.814 Q2819.41 961.892 2813.09 961.892 Q2810.91 961.892 2808.65 961.522 Q2806.4 961.151 2803.99 960.411 L2803.99 955.712 Q2806.08 956.846 2808.3 957.401 Q2810.52 957.957 2813 957.957 Q2817 957.957 2819.34 955.851 Q2821.68 953.744 2821.68 950.133 Q2821.68 946.522 2819.34 944.415 Q2817 942.309 2813 942.309 Q2811.12 942.309 2809.25 942.726 Q2807.4 943.142 2805.45 944.022 L2805.45 926.661 Z" fill="#000000" fill-rule="nonzero" fill-opacity="1" /><path clip-path="url(#clip280)" d="M2845.57 929.74 Q2841.96 929.74 2840.13 933.304 Q2838.32 936.846 2838.32 943.976 Q2838.32 951.082 2840.13 954.647 Q2841.96 958.189 2845.57 958.189 Q2849.2 958.189 2851.01 954.647 Q2852.83 951.082 2852.83 943.976 Q2852.83 936.846 2851.01 933.304 Q2849.2 929.74 2845.57 929.74 M2845.57 926.036 Q2851.38 926.036 2854.43 930.642 Q2857.51 935.226 2857.51 943.976 Q2857.51 952.702 2854.43 957.309 Q2851.38 961.892 2845.57 961.892 Q2839.76 961.892 2836.68 957.309 Q2833.62 952.702 2833.62 943.976 Q2833.62 935.226 2836.68 930.642 Q2839.76 926.036 2845.57 926.036 Z" fill="#000000" fill-rule="nonzero" fill-opacity="1" /><path clip-path="url(#clip280)" d="M2771.17 686.581 Q2767.56 686.581 2765.73 690.146 Q2763.92 693.688 2763.92 700.817 Q2763.92 707.924 2765.73 711.489 Q2767.56 715.03 2771.17 715.03 Q2774.8 715.03 2776.61 711.489 Q2778.44 707.924 2778.44 700.817 Q2778.44 693.688 2776.61 690.146 Q2774.8 686.581 2771.17 686.581 M2771.17 682.878 Q2776.98 682.878 2780.03 687.484 Q2783.11 692.067 2783.11 700.817 Q2783.11 709.544 2780.03 714.151 Q2776.98 718.734 2771.17 718.734 Q2765.36 718.734 2762.28 714.151 Q2759.22 709.544 2759.22 700.817 Q2759.22 692.067 2762.28 687.484 Q2765.36 682.878 2771.17 682.878 Z" fill="#000000" fill-rule="nonzero" fill-opacity="1" /><path clip-path="url(#clip280)" d="M2791.33 712.183 L2796.21 712.183 L2796.21 718.063 L2791.33 718.063 L2791.33 712.183 Z" fill="#000000" fill-rule="nonzero" fill-opacity="1" /><path clip-path="url(#clip280)" d="M2806.45 683.503 L2824.8 683.503 L2824.8 687.438 L2810.73 687.438 L2810.73 695.91 Q2811.75 695.563 2812.77 695.401 Q2813.78 695.216 2814.8 695.216 Q2820.59 695.216 2823.97 698.387 Q2827.35 701.558 2827.35 706.975 Q2827.35 712.553 2823.88 715.655 Q2820.4 718.734 2814.08 718.734 Q2811.91 718.734 2809.64 718.364 Q2807.4 717.993 2804.99 717.253 L2804.99 712.553 Q2807.07 713.688 2809.29 714.243 Q2811.52 714.799 2813.99 714.799 Q2818 714.799 2820.33 712.692 Q2822.67 710.586 2822.67 706.975 Q2822.67 703.364 2820.33 701.257 Q2818 699.151 2813.99 699.151 Q2812.12 699.151 2810.24 699.567 Q2808.39 699.984 2806.45 700.864 L2806.45 683.503 Z" fill="#000000" fill-rule="nonzero" fill-opacity="1" /><path clip-path="url(#clip280)" d="M2836.61 683.503 L2854.96 683.503 L2854.96 687.438 L2840.89 687.438 L2840.89 695.91 Q2841.91 695.563 2842.93 695.401 Q2843.95 695.216 2844.96 695.216 Q2850.75 695.216 2854.13 698.387 Q2857.51 701.558 2857.51 706.975 Q2857.51 712.553 2854.04 715.655 Q2850.57 718.734 2844.25 718.734 Q2842.07 718.734 2839.8 718.364 Q2837.56 717.993 2835.15 717.253 L2835.15 712.553 Q2837.23 713.688 2839.46 714.243 Q2841.68 714.799 2844.15 714.799 Q2848.16 714.799 2850.5 712.692 Q2852.83 710.586 2852.83 706.975 Q2852.83 703.364 2850.5 701.257 Q2848.16 699.151 2844.15 699.151 Q2842.28 699.151 2840.4 699.567 Q2838.55 699.984 2836.61 700.864 L2836.61 683.503 Z" fill="#000000" fill-rule="nonzero" fill-opacity="1" /><path clip-path="url(#clip280)" d="M2770.17 443.423 Q2766.56 443.423 2764.73 446.988 Q2762.93 450.53 2762.93 457.659 Q2762.93 464.766 2764.73 468.33 Q2766.56 471.872 2770.17 471.872 Q2773.81 471.872 2775.61 468.33 Q2777.44 464.766 2777.44 457.659 Q2777.44 450.53 2775.61 446.988 Q2773.81 443.423 2770.17 443.423 M2770.17 439.72 Q2775.98 439.72 2779.04 444.326 Q2782.12 448.909 2782.12 457.659 Q2782.12 466.386 2779.04 470.993 Q2775.98 475.576 2770.17 475.576 Q2764.36 475.576 2761.28 470.993 Q2758.23 466.386 2758.23 457.659 Q2758.23 448.909 2761.28 444.326 Q2764.36 439.72 2770.17 439.72 Z" fill="#000000" fill-rule="nonzero" fill-opacity="1" /><path clip-path="url(#clip280)" d="M2790.33 469.025 L2795.22 469.025 L2795.22 474.905 L2790.33 474.905 L2790.33 469.025 Z" fill="#000000" fill-rule="nonzero" fill-opacity="1" /><path clip-path="url(#clip280)" d="M2815.98 455.761 Q2812.83 455.761 2810.98 457.914 Q2809.15 460.067 2809.15 463.817 Q2809.15 467.543 2810.98 469.719 Q2812.83 471.872 2815.98 471.872 Q2819.13 471.872 2820.96 469.719 Q2822.81 467.543 2822.81 463.817 Q2822.81 460.067 2820.96 457.914 Q2819.13 455.761 2815.98 455.761 M2825.27 441.108 L2825.27 445.368 Q2823.51 444.534 2821.7 444.095 Q2819.92 443.655 2818.16 443.655 Q2813.53 443.655 2811.08 446.78 Q2808.65 449.905 2808.3 456.224 Q2809.66 454.21 2811.72 453.145 Q2813.78 452.057 2816.26 452.057 Q2821.47 452.057 2824.48 455.229 Q2827.51 458.377 2827.51 463.817 Q2827.51 469.141 2824.36 472.358 Q2821.21 475.576 2815.98 475.576 Q2809.99 475.576 2806.82 470.993 Q2803.65 466.386 2803.65 457.659 Q2803.65 449.465 2807.53 444.604 Q2811.42 439.72 2817.97 439.72 Q2819.73 439.72 2821.52 440.067 Q2823.32 440.414 2825.27 441.108 Z" fill="#000000" fill-rule="nonzero" fill-opacity="1" /><path clip-path="url(#clip280)" d="M2845.57 443.423 Q2841.96 443.423 2840.13 446.988 Q2838.32 450.53 2838.32 457.659 Q2838.32 464.766 2840.13 468.33 Q2841.96 471.872 2845.57 471.872 Q2849.2 471.872 2851.01 468.33 Q2852.83 464.766 2852.83 457.659 Q2852.83 450.53 2851.01 446.988 Q2849.2 443.423 2845.57 443.423 M2845.57 439.72 Q2851.38 439.72 2854.43 444.326 Q2857.51 448.909 2857.51 457.659 Q2857.51 466.386 2854.43 470.993 Q2851.38 475.576 2845.57 475.576 Q2839.76 475.576 2836.68 470.993 Q2833.62 466.386 2833.62 457.659 Q2833.62 448.909 2836.68 444.326 Q2839.76 439.72 2845.57 439.72 Z" fill="#000000" fill-rule="nonzero" fill-opacity="1" /><path clip-path="url(#clip280)" d="M2771.17 200.265 Q2767.56 200.265 2765.73 203.83 Q2763.92 207.371 2763.92 214.501 Q2763.92 221.608 2765.73 225.172 Q2767.56 228.714 2771.17 228.714 Q2774.8 228.714 2776.61 225.172 Q2778.44 221.608 2778.44 214.501 Q2778.44 207.371 2776.61 203.83 Q2774.8 200.265 2771.17 200.265 M2771.17 196.561 Q2776.98 196.561 2780.03 201.168 Q2783.11 205.751 2783.11 214.501 Q2783.11 223.228 2780.03 227.834 Q2776.98 232.418 2771.17 232.418 Q2765.36 232.418 2762.28 227.834 Q2759.22 223.228 2759.22 214.501 Q2759.22 205.751 2762.28 201.168 Q2765.36 196.561 2771.17 196.561 Z" fill="#000000" fill-rule="nonzero" fill-opacity="1" /><path clip-path="url(#clip280)" d="M2791.33 225.867 L2796.21 225.867 L2796.21 231.746 L2791.33 231.746 L2791.33 225.867 Z" fill="#000000" fill-rule="nonzero" fill-opacity="1" /><path clip-path="url(#clip280)" d="M2816.98 212.603 Q2813.83 212.603 2811.98 214.756 Q2810.15 216.908 2810.15 220.658 Q2810.15 224.385 2811.98 226.561 Q2813.83 228.714 2816.98 228.714 Q2820.13 228.714 2821.96 226.561 Q2823.81 224.385 2823.81 220.658 Q2823.81 216.908 2821.96 214.756 Q2820.13 212.603 2816.98 212.603 M2826.26 197.95 L2826.26 202.209 Q2824.5 201.376 2822.7 200.936 Q2820.91 200.497 2819.15 200.497 Q2814.52 200.497 2812.07 203.621 Q2809.64 206.746 2809.29 213.066 Q2810.66 211.052 2812.72 209.987 Q2814.78 208.899 2817.26 208.899 Q2822.46 208.899 2825.47 212.071 Q2828.51 215.219 2828.51 220.658 Q2828.51 225.982 2825.36 229.2 Q2822.21 232.418 2816.98 232.418 Q2810.98 232.418 2807.81 227.834 Q2804.64 223.228 2804.64 214.501 Q2804.64 206.307 2808.53 201.446 Q2812.42 196.561 2818.97 196.561 Q2820.73 196.561 2822.51 196.909 Q2824.32 197.256 2826.26 197.95 Z" fill="#000000" fill-rule="nonzero" fill-opacity="1" /><path clip-path="url(#clip280)" d="M2836.61 197.186 L2854.96 197.186 L2854.96 201.122 L2840.89 201.122 L2840.89 209.594 Q2841.91 209.246 2842.93 209.084 Q2843.95 208.899 2844.96 208.899 Q2850.75 208.899 2854.13 212.071 Q2857.51 215.242 2857.51 220.658 Q2857.51 226.237 2854.04 229.339 Q2850.57 232.418 2844.25 232.418 Q2842.07 232.418 2839.8 232.047 Q2837.56 231.677 2835.15 230.936 L2835.15 226.237 Q2837.23 227.371 2839.46 227.927 Q2841.68 228.482 2844.15 228.482 Q2848.16 228.482 2850.5 226.376 Q2852.83 224.27 2852.83 220.658 Q2852.83 217.047 2850.5 214.941 Q2848.16 212.834 2844.15 212.834 Q2842.28 212.834 2840.4 213.251 Q2838.55 213.668 2836.61 214.547 L2836.61 197.186 Z" fill="#000000" fill-rule="nonzero" fill-opacity="1" /><path clip-path="url(#clip280)" d="M2630.32 927.785 L2647.67 940.675 L2665.97 927.116 L2665.97 934.023 L2651.97 944.399 L2665.97 954.775 L2665.97 961.682 L2647.32 947.837 L2630.32 960.504 L2630.32 953.598 L2643.02 944.145 L2630.32 934.691 L2630.32 927.785 Z" fill="#000000" fill-rule="nonzero" fill-opacity="1" /><path clip-path="url(#clip280)" d="M3823.85 16.7545 L3823.85 25.383 Q3819.71 21.5346 3815.01 19.6307 Q3810.36 17.7268 3805.09 17.7268 Q3794.72 17.7268 3789.21 24.0867 Q3783.7 30.4061 3783.7 42.3968 Q3783.7 54.3469 3789.21 60.7069 Q3794.72 67.0263 3805.09 67.0263 Q3810.36 67.0263 3815.01 65.1223 Q3819.71 63.2184 3823.85 59.3701 L3823.85 67.9175 Q3819.55 70.8341 3814.73 72.2924 Q3809.95 73.7508 3804.6 73.7508 Q3790.87 73.7508 3782.97 65.3654 Q3775.07 56.9395 3775.07 42.3968 Q3775.07 27.8135 3782.97 19.4281 Q3790.87 11.0023 3804.6 11.0023 Q3810.03 11.0023 3814.81 12.4606 Q3819.63 13.8784 3823.85 16.7545 Z" fill="#000000" fill-rule="nonzero" fill-opacity="1" /><path clip-path="url(#clip280)" d="M3836.16 9.54393 L3843.61 9.54393 L3843.61 72.576 L3836.16 72.576 L3836.16 9.54393 Z" fill="#000000" fill-rule="nonzero" fill-opacity="1" /><path clip-path="url(#clip280)" d="M3879.83 49.7694 Q3870.8 49.7694 3867.31 51.8354 Q3863.83 53.9013 3863.83 58.8839 Q3863.83 62.8538 3866.42 65.2034 Q3869.05 67.5124 3873.55 67.5124 Q3879.75 67.5124 3883.47 63.1374 Q3887.24 58.7219 3887.24 51.4303 L3887.24 49.7694 L3879.83 49.7694 M3894.7 46.6907 L3894.7 72.576 L3887.24 72.576 L3887.24 65.6895 Q3884.69 69.8214 3880.88 71.8063 Q3877.07 73.7508 3871.56 73.7508 Q3864.6 73.7508 3860.47 69.8619 Q3856.37 65.9325 3856.37 59.3701 Q3856.37 51.7138 3861.48 47.825 Q3866.62 43.9361 3876.79 43.9361 L3887.24 43.9361 L3887.24 43.2069 Q3887.24 38.0623 3883.84 35.2672 Q3880.48 32.4315 3874.36 32.4315 Q3870.47 32.4315 3866.78 33.3632 Q3863.1 34.295 3859.7 36.1584 L3859.7 29.2718 Q3863.79 27.692 3867.64 26.9223 Q3871.48 26.1121 3875.13 26.1121 Q3884.97 26.1121 3889.83 31.2163 Q3894.7 36.3204 3894.7 46.6907 Z" fill="#000000" fill-rule="nonzero" fill-opacity="1" /><path clip-path="url(#clip280)" d="M3938.97 28.5427 L3938.97 35.5912 Q3935.81 33.9709 3932.41 33.1607 Q3929.01 32.3505 3925.36 32.3505 Q3919.81 32.3505 3917.02 34.0519 Q3914.26 35.7533 3914.26 39.156 Q3914.26 41.7486 3916.25 43.2475 Q3918.23 44.7058 3924.23 46.0426 L3926.78 46.6097 Q3934.72 48.3111 3938.04 51.4303 Q3941.4 54.509 3941.4 60.0587 Q3941.4 66.3781 3936.38 70.0644 Q3931.4 73.7508 3922.65 73.7508 Q3919 73.7508 3915.03 73.0216 Q3911.1 72.3329 3906.73 70.9151 L3906.73 63.2184 Q3910.86 65.3654 3914.87 66.4591 Q3918.88 67.5124 3922.81 67.5124 Q3928.07 67.5124 3930.91 65.73 Q3933.75 63.9071 3933.75 60.6258 Q3933.75 57.5877 3931.68 55.9673 Q3929.65 54.3469 3922.73 52.8481 L3920.14 52.2405 Q3913.21 50.7821 3910.13 47.7845 Q3907.05 44.7463 3907.05 39.4801 Q3907.05 33.0797 3911.59 29.5959 Q3916.12 26.1121 3924.47 26.1121 Q3928.6 26.1121 3932.25 26.7198 Q3935.89 27.3274 3938.97 28.5427 Z" fill="#000000" fill-rule="nonzero" fill-opacity="1" /><path clip-path="url(#clip280)" d="M3982.19 28.5427 L3982.19 35.5912 Q3979.04 33.9709 3975.63 33.1607 Q3972.23 32.3505 3968.58 32.3505 Q3963.03 32.3505 3960.24 34.0519 Q3957.48 35.7533 3957.48 39.156 Q3957.48 41.7486 3959.47 43.2475 Q3961.45 44.7058 3967.45 46.0426 L3970 46.6097 Q3977.94 48.3111 3981.26 51.4303 Q3984.63 54.509 3984.63 60.0587 Q3984.63 66.3781 3979.6 70.0644 Q3974.62 73.7508 3965.87 73.7508 Q3962.22 73.7508 3958.25 73.0216 Q3954.32 72.3329 3949.95 70.9151 L3949.95 63.2184 Q3954.08 65.3654 3958.09 66.4591 Q3962.1 67.5124 3966.03 67.5124 Q3971.3 67.5124 3974.13 65.73 Q3976.97 63.9071 3976.97 60.6258 Q3976.97 57.5877 3974.9 55.9673 Q3972.88 54.3469 3965.95 52.8481 L3963.36 52.2405 Q3956.43 50.7821 3953.35 47.7845 Q3950.27 44.7463 3950.27 39.4801 Q3950.27 33.0797 3954.81 29.5959 Q3959.35 26.1121 3967.69 26.1121 Q3971.82 26.1121 3975.47 26.7198 Q3979.12 27.3274 3982.19 28.5427 Z" fill="#000000" fill-rule="nonzero" fill-opacity="1" /><path clip-path="url(#clip280)" d="M4041.42 17.4837 Q4035.1 17.4837 4031.9 23.7221 Q4028.74 29.92 4028.74 42.3968 Q4028.74 54.833 4031.9 61.0714 Q4035.1 67.2693 4041.42 67.2693 Q4047.78 67.2693 4050.94 61.0714 Q4054.14 54.833 4054.14 42.3968 Q4054.14 29.92 4050.94 23.7221 Q4047.78 17.4837 4041.42 17.4837 M4041.42 11.0023 Q4051.59 11.0023 4056.93 19.0636 Q4062.32 27.0843 4062.32 42.3968 Q4062.32 57.6687 4056.93 65.73 Q4051.59 73.7508 4041.42 73.7508 Q4031.25 73.7508 4025.86 65.73 Q4020.52 57.6687 4020.52 42.3968 Q4020.52 27.0843 4025.86 19.0636 Q4031.25 11.0023 4041.42 11.0023 Z" fill="#000000" fill-rule="nonzero" fill-opacity="1" /><path clip-path="url(#clip280)" d="M4102.34 12.096 L4114.54 12.096 L4129.97 53.2532 L4145.49 12.096 L4157.68 12.096 L4157.68 72.576 L4149.7 72.576 L4149.7 19.4686 L4134.1 60.9499 L4125.88 60.9499 L4110.28 19.4686 L4110.28 72.576 L4102.34 72.576 L4102.34 12.096 Z" fill="#000000" fill-rule="nonzero" fill-opacity="1" /><path clip-path="url(#clip280)" d="M4212.41 48.0275 L4212.41 51.6733 L4178.14 51.6733 Q4178.62 59.3701 4182.76 63.421 Q4186.93 67.4314 4194.34 67.4314 Q4198.63 67.4314 4202.65 66.3781 Q4206.7 65.3249 4210.67 63.2184 L4210.67 70.267 Q4206.66 71.9684 4202.44 72.8596 Q4198.23 73.7508 4193.9 73.7508 Q4183.04 73.7508 4176.68 67.4314 Q4170.36 61.1119 4170.36 50.3365 Q4170.36 39.1965 4176.35 32.6746 Q4182.39 26.1121 4192.6 26.1121 Q4201.75 26.1121 4207.06 32.0264 Q4212.41 37.9003 4212.41 48.0275 M4204.95 45.84 Q4204.87 39.7232 4201.51 36.0774 Q4198.19 32.4315 4192.68 32.4315 Q4186.44 32.4315 4182.67 35.9558 Q4178.95 39.4801 4178.38 45.8805 L4204.95 45.84 Z" fill="#000000" fill-rule="nonzero" fill-opacity="1" /><path clip-path="url(#clip280)" d="M4245.26 49.7694 Q4236.23 49.7694 4232.74 51.8354 Q4229.26 53.9013 4229.26 58.8839 Q4229.26 62.8538 4231.85 65.2034 Q4234.49 67.5124 4238.98 67.5124 Q4245.18 67.5124 4248.91 63.1374 Q4252.67 58.7219 4252.67 51.4303 L4252.67 49.7694 L4245.26 49.7694 M4260.13 46.6907 L4260.13 72.576 L4252.67 72.576 L4252.67 65.6895 Q4250.12 69.8214 4246.31 71.8063 Q4242.51 73.7508 4237 73.7508 Q4230.03 73.7508 4225.9 69.8619 Q4221.81 65.9325 4221.81 59.3701 Q4221.81 51.7138 4226.91 47.825 Q4232.05 43.9361 4242.22 43.9361 L4252.67 43.9361 L4252.67 43.2069 Q4252.67 38.0623 4249.27 35.2672 Q4245.91 32.4315 4239.79 32.4315 Q4235.9 32.4315 4232.22 33.3632 Q4228.53 34.295 4225.13 36.1584 L4225.13 29.2718 Q4229.22 27.692 4233.07 26.9223 Q4236.92 26.1121 4240.56 26.1121 Q4250.41 26.1121 4255.27 31.2163 Q4260.13 36.3204 4260.13 46.6907 Z" fill="#000000" fill-rule="nonzero" fill-opacity="1" /><path clip-path="url(#clip280)" d="M4313.19 45.1919 L4313.19 72.576 L4305.74 72.576 L4305.74 45.4349 Q4305.74 38.994 4303.23 35.7938 Q4300.72 32.5936 4295.69 32.5936 Q4289.66 32.5936 4286.17 36.4419 Q4282.69 40.2903 4282.69 46.9338 L4282.69 72.576 L4275.2 72.576 L4275.2 27.2059 L4282.69 27.2059 L4282.69 34.2544 Q4285.36 30.163 4288.97 28.1376 Q4292.62 26.1121 4297.36 26.1121 Q4305.17 26.1121 4309.18 30.9732 Q4313.19 35.7938 4313.19 45.1919 Z" fill="#000000" fill-rule="nonzero" fill-opacity="1" /><path clip-path="url(#clip283)" d="M2998.26 1717.02 L3019.39 1717.93 L3040.52 1719 L3061.65 1720.22 L3082.78 1721.59 L3103.91 1723.08 L3125.03 1724.68 L3146.16 1726.37 L3167.29 1728.13 L3188.42 1729.92 L3209.55 1731.71 L3230.68 1733.48 L3251.81 1735.18 L3272.94 1736.77 L3294.06 1738.23 L3315.19 1739.53 L3336.32 1740.65 L3357.45 1741.55 L3378.58 1742.24 L3399.71 1742.71 L3420.84 1742.96 L3441.97 1742.98 L3463.09 1742.79 L3484.22 1742.4 L3505.35 1741.81 L3526.48 1741.04 L3547.61 1740.09 L3568.74 1738.98 L3589.87 1737.72 L3610.99 1736.32 L3632.12 1734.8 L3653.25 1733.18 L3674.38 1731.47 L3695.51 1729.7 L3716.64 1727.91 L3737.77 1726.12 L3758.9 1724.37 L3780.02 1722.69 L3801.15 1721.12 L3822.28 1719.7 L3843.41 1718.44 L3864.54 1717.38 L3885.67 1716.53 L3906.8 1715.89 L3927.93 1715.48 L3949.05 1715.29 L3970.18 1715.31 L3991.31 1715.56 L4012.44 1716 L4033.57 1716.64 L4054.7 1717.45 L4075.83 1718.44 L4096.95 1719.59 L4118.08 1720.89 L4139.21 1722.32 L4160.34 1723.87 L4181.47 1725.52 L4202.6 1727.24 L4223.73 1729.02 L4244.86 1730.82 L4265.98 1732.6 L4287.11 1734.34 L4308.24 1735.99 L4329.37 1737.52 L4350.5 1738.91 L4371.63 1740.11 L4392.76 1741.13 L4413.89 1741.93 L4435.01 1742.51 L4456.14 1742.86 L4477.27 1743 L4498.4 1742.92 L4519.53 1742.62 L4540.66 1742.13 L4561.79 1741.45 L4582.91 1740.58 L4604.04 1739.55 L4625.17 1738.37 L4646.3 1737.04 L4667.43 1735.58 L4688.56 1734 L4709.69 1732.33 L4730.82 1730.59 L4751.94 1728.81 L4773.07 1727.01 L4794.2 1725.23 L4815.33 1723.52 L4836.46 1721.89 L4857.59 1720.39 L4878.72 1719.05 L4899.85 1717.89 L4920.97 1716.93 L4942.1 1716.18 L4963.23 1715.65 L4984.36 1715.35 L5005.49 1715.27 L5026.62 1715.41 L5047.75 1715.75 L5068.87 1716.29 L5090 1717.02 L5090 147.55 L5068.87 146.821 L5047.75 146.28 L5026.62 145.936 L5005.49 145.8 L4984.36 145.88 L4963.23 146.182 L4942.1 146.707 L4920.97 147.454 L4899.85 148.415 L4878.72 149.576 L4857.59 150.919 L4836.46 152.418 L4815.33 154.043 L4794.2 155.761 L4773.07 157.535 L4751.94 159.332 L4730.82 161.117 L4709.69 162.858 L4688.56 164.528 L4667.43 166.104 L4646.3 167.565 L4625.17 168.896 L4604.04 170.082 L4582.91 171.112 L4561.79 171.974 L4540.66 172.657 L4519.53 173.15 L4498.4 173.442 L4477.27 173.525 L4456.14 173.391 L4435.01 173.034 L4413.89 172.453 L4392.76 171.653 L4371.63 170.641 L4350.5 169.433 L4329.37 168.049 L4308.24 166.516 L4287.11 164.864 L4265.98 163.129 L4244.86 161.345 L4223.73 159.548 L4202.6 157.771 L4181.47 156.045 L4160.34 154.396 L4139.21 152.847 L4118.08 151.416 L4096.95 150.12 L4075.83 148.971 L4054.7 147.981 L4033.57 147.163 L4012.44 146.526 L3991.31 146.083 L3970.18 145.842 L3949.05 145.813 L3927.93 146.003 L3906.8 146.416 L3885.67 147.053 L3864.54 147.908 L3843.41 148.971 L3822.28 150.226 L3801.15 151.651 L3780.02 153.217 L3758.9 154.892 L3737.77 156.643 L3716.64 158.433 L3695.51 160.228 L3674.38 161.995 L3653.25 163.704 L3632.12 165.329 L3610.99 166.85 L3589.87 168.248 L3568.74 169.508 L3547.61 170.617 L3526.48 171.565 L3505.35 172.339 L3484.22 172.928 L3463.09 173.322 L3441.97 173.51 L3420.84 173.485 L3399.71 173.24 L3378.58 172.771 L3357.45 172.08 L3336.32 171.173 L3315.19 170.06 L3294.06 168.761 L3272.94 167.299 L3251.81 165.703 L3230.68 164.005 L3209.55 162.241 L3188.42 160.446 L3167.29 158.655 L3146.16 156.9 L3125.03 155.209 L3103.91 153.608 L3082.78 152.116 L3061.65 150.75 L3040.52 149.526 L3019.39 148.456 L2998.26 147.55  Z" fill="#009af9" fill-rule="evenodd" fill-opacity="0.5"/>
<polyline clip-path="url(#clip283)" style="stroke:#009af9; stroke-linecap:round; stroke-linejoin:round; stroke-width:8; stroke-opacity:1; fill:none" points="2998.26,932.287 3019.39,933.192 3040.52,934.263 3061.65,935.487 3082.78,936.852 3103.91,938.344 3125.03,939.946 3146.16,941.637 3167.29,943.392 3188.42,945.183 3209.55,946.978 3230.68,948.742 3251.81,950.439 3272.94,952.035 3294.06,953.497 3315.19,954.796 3336.32,955.909 3357.45,956.817 3378.58,957.508 3399.71,957.977 3420.84,958.222 3441.97,958.247 3463.09,958.058 3484.22,957.664 3505.35,957.075 3526.48,956.301 3547.61,955.354 3568.74,954.244 3589.87,952.984 3610.99,951.586 3632.12,950.066 3653.25,948.44 3674.38,946.731 3695.51,944.965 3716.64,943.17 3737.77,941.379 3758.9,939.629 3780.02,937.953 3801.15,936.387 3822.28,934.963 3843.41,933.708 3864.54,932.645 3885.67,931.789 3906.8,931.153 3927.93,930.74 3949.05,930.549 3970.18,930.578 3991.31,930.819 4012.44,931.263 4033.57,931.899 4054.7,932.718 4075.83,933.707 4096.95,934.856 4118.08,936.153 4139.21,937.583 4160.34,939.133 4181.47,940.782 4202.6,942.508 4223.73,944.285 4244.86,946.082 4265.98,947.866 4287.11,949.601 4308.24,951.252 4329.37,952.785 4350.5,954.169 4371.63,955.377 4392.76,956.389 4413.89,957.19 4435.01,957.77 4456.14,958.127 4477.27,958.262 4498.4,958.179 4519.53,957.886 4540.66,957.393 4561.79,956.71 4582.91,955.849 4604.04,954.819 4625.17,953.632 4646.3,952.301 4667.43,950.84 4688.56,949.265 4709.69,947.595 4730.82,945.853 4751.94,944.069 4773.07,942.272 4794.2,940.497 4815.33,938.779 4836.46,937.154 4857.59,935.655 4878.72,934.313 4899.85,933.151 4920.97,932.19 4942.1,931.443 4963.23,930.918 4984.36,930.617 5005.49,930.537 5026.62,930.673 5047.75,931.016 5068.87,931.558 5090,932.287 "/>
</svg>
