<?xml version="1.0" encoding="utf-8"?>
<svg xmlns="http://www.w3.org/2000/svg" xmlns:xlink="http://www.w3.org/1999/xlink" width="600" height="400" viewBox="0 0 2400 1600">
<defs>
  <clipPath id="clip450">
    <rect x="0" y="0" width="2400" height="1600"/>
  </clipPath>
</defs>
<path clip-path="url(#clip450)" d="M0 1600 L2400 1600 L2400 8.88178e-14 L0 8.88178e-14  Z" fill="#ffffff" fill-rule="evenodd" fill-opacity="1"/>
<defs>
  <clipPath id="clip451">
    <rect x="480" y="0" width="1681" height="1600"/>
  </clipPath>
</defs>
<path clip-path="url(#clip450)" d="M219.866 1423.18 L2352.76 1423.18 L2352.76 123.472 L219.866 123.472  Z" fill="#ffffff" fill-rule="evenodd" fill-opacity="1"/>
<defs>
  <clipPath id="clip452">
    <rect x="219" y="123" width="2134" height="1301"/>
  </clipPath>
</defs>
<polyline clip-path="url(#clip452)" style="stroke:#000000; stroke-linecap:round; stroke-linejoin:round; stroke-width:2; stroke-opacity:0.1; fill:none" points="259.906,1423.18 259.906,123.472 "/>
<polyline clip-path="url(#clip452)" style="stroke:#000000; stroke-linecap:round; stroke-linejoin:round; stroke-width:2; stroke-opacity:0.1; fill:none" points="768.027,1423.18 768.027,123.472 "/>
<polyline clip-path="url(#clip452)" style="stroke:#000000; stroke-linecap:round; stroke-linejoin:round; stroke-width:2; stroke-opacity:0.1; fill:none" points="1276.15,1423.18 1276.15,123.472 "/>
<polyline clip-path="url(#clip452)" style="stroke:#000000; stroke-linecap:round; stroke-linejoin:round; stroke-width:2; stroke-opacity:0.1; fill:none" points="1784.27,1423.18 1784.27,123.472 "/>
<polyline clip-path="url(#clip452)" style="stroke:#000000; stroke-linecap:round; stroke-linejoin:round; stroke-width:2; stroke-opacity:0.1; fill:none" points="2292.39,1423.18 2292.39,123.472 "/>
<polyline clip-path="url(#clip450)" style="stroke:#000000; stroke-linecap:round; stroke-linejoin:round; stroke-width:4; stroke-opacity:1; fill:none" points="219.866,1423.18 2352.76,1423.18 "/>
<polyline clip-path="url(#clip450)" style="stroke:#000000; stroke-linecap:round; stroke-linejoin:round; stroke-width:4; stroke-opacity:1; fill:none" points="259.906,1423.18 259.906,1404.28 "/>
<polyline clip-path="url(#clip450)" style="stroke:#000000; stroke-linecap:round; stroke-linejoin:round; stroke-width:4; stroke-opacity:1; fill:none" points="768.027,1423.18 768.027,1404.28 "/>
<polyline clip-path="url(#clip450)" style="stroke:#000000; stroke-linecap:round; stroke-linejoin:round; stroke-width:4; stroke-opacity:1; fill:none" points="1276.15,1423.18 1276.15,1404.28 "/>
<polyline clip-path="url(#clip450)" style="stroke:#000000; stroke-linecap:round; stroke-linejoin:round; stroke-width:4; stroke-opacity:1; fill:none" points="1784.27,1423.18 1784.27,1404.28 "/>
<polyline clip-path="url(#clip450)" style="stroke:#000000; stroke-linecap:round; stroke-linejoin:round; stroke-width:4; stroke-opacity:1; fill:none" points="2292.39,1423.18 2292.39,1404.28 "/>
<path clip-path="url(#clip450)" d="M259.906 1454.1 Q256.295 1454.1 254.466 1457.66 Q252.661 1461.2 252.661 1468.33 Q252.661 1475.44 254.466 1479.01 Q256.295 1482.55 259.906 1482.55 Q263.54 1482.55 265.346 1479.01 Q267.175 1475.44 267.175 1468.33 Q267.175 1461.2 265.346 1457.66 Q263.54 1454.1 259.906 1454.1 M259.906 1450.39 Q265.716 1450.39 268.772 1455 Q271.851 1459.58 271.851 1468.33 Q271.851 1477.06 268.772 1481.67 Q265.716 1486.25 259.906 1486.25 Q254.096 1486.25 251.017 1481.67 Q247.962 1477.06 247.962 1468.33 Q247.962 1459.58 251.017 1455 Q254.096 1450.39 259.906 1450.39 Z" fill="#000000" fill-rule="nonzero" fill-opacity="1" /><path clip-path="url(#clip450)" d="M747.298 1481.64 L763.618 1481.64 L763.618 1485.58 L741.673 1485.58 L741.673 1481.64 Q744.335 1478.89 748.919 1474.26 Q753.525 1469.61 754.706 1468.27 Q756.951 1465.74 757.831 1464.01 Q758.734 1462.25 758.734 1460.56 Q758.734 1457.8 756.789 1456.07 Q754.868 1454.33 751.766 1454.33 Q749.567 1454.33 747.113 1455.09 Q744.683 1455.86 741.905 1457.41 L741.905 1452.69 Q744.729 1451.55 747.183 1450.97 Q749.636 1450.39 751.673 1450.39 Q757.044 1450.39 760.238 1453.08 Q763.433 1455.77 763.433 1460.26 Q763.433 1462.39 762.622 1464.31 Q761.835 1466.2 759.729 1468.8 Q759.15 1469.47 756.048 1472.69 Q752.947 1475.88 747.298 1481.64 Z" fill="#000000" fill-rule="nonzero" fill-opacity="1" /><path clip-path="url(#clip450)" d="M773.479 1451.02 L791.835 1451.02 L791.835 1454.96 L777.761 1454.96 L777.761 1463.43 Q778.78 1463.08 779.798 1462.92 Q780.817 1462.73 781.835 1462.73 Q787.622 1462.73 791.002 1465.9 Q794.381 1469.08 794.381 1474.49 Q794.381 1480.07 790.909 1483.17 Q787.437 1486.25 781.118 1486.25 Q778.942 1486.25 776.673 1485.88 Q774.428 1485.51 772.02 1484.77 L772.02 1480.07 Q774.104 1481.2 776.326 1481.76 Q778.548 1482.32 781.025 1482.32 Q785.03 1482.32 787.368 1480.21 Q789.706 1478.1 789.706 1474.49 Q789.706 1470.88 787.368 1468.77 Q785.03 1466.67 781.025 1466.67 Q779.15 1466.67 777.275 1467.08 Q775.423 1467.5 773.479 1468.38 L773.479 1451.02 Z" fill="#000000" fill-rule="nonzero" fill-opacity="1" /><path clip-path="url(#clip450)" d="M1250.85 1451.02 L1269.2 1451.02 L1269.2 1454.96 L1255.13 1454.96 L1255.13 1463.43 Q1256.15 1463.08 1257.17 1462.92 Q1258.19 1462.73 1259.2 1462.73 Q1264.99 1462.73 1268.37 1465.9 Q1271.75 1469.08 1271.75 1474.49 Q1271.75 1480.07 1268.28 1483.17 Q1264.81 1486.25 1258.49 1486.25 Q1256.31 1486.25 1254.04 1485.88 Q1251.8 1485.51 1249.39 1484.77 L1249.39 1480.07 Q1251.47 1481.2 1253.7 1481.76 Q1255.92 1482.32 1258.39 1482.32 Q1262.4 1482.32 1264.74 1480.21 Q1267.07 1478.1 1267.07 1474.49 Q1267.07 1470.88 1264.74 1468.77 Q1262.4 1466.67 1258.39 1466.67 Q1256.52 1466.67 1254.64 1467.08 Q1252.79 1467.5 1250.85 1468.38 L1250.85 1451.02 Z" fill="#000000" fill-rule="nonzero" fill-opacity="1" /><path clip-path="url(#clip450)" d="M1290.96 1454.1 Q1287.35 1454.1 1285.52 1457.66 Q1283.72 1461.2 1283.72 1468.33 Q1283.72 1475.44 1285.52 1479.01 Q1287.35 1482.55 1290.96 1482.55 Q1294.6 1482.55 1296.4 1479.01 Q1298.23 1475.44 1298.23 1468.33 Q1298.23 1461.2 1296.4 1457.66 Q1294.6 1454.1 1290.96 1454.1 M1290.96 1450.39 Q1296.77 1450.39 1299.83 1455 Q1302.91 1459.58 1302.91 1468.33 Q1302.91 1477.06 1299.83 1481.67 Q1296.77 1486.25 1290.96 1486.25 Q1285.15 1486.25 1282.07 1481.67 Q1279.02 1477.06 1279.02 1468.33 Q1279.02 1459.58 1282.07 1455 Q1285.15 1450.39 1290.96 1450.39 Z" fill="#000000" fill-rule="nonzero" fill-opacity="1" /><path clip-path="url(#clip450)" d="M1758.12 1451.02 L1780.35 1451.02 L1780.35 1453.01 L1767.8 1485.58 L1762.92 1485.58 L1774.72 1454.96 L1758.12 1454.96 L1758.12 1451.02 Z" fill="#000000" fill-rule="nonzero" fill-opacity="1" /><path clip-path="url(#clip450)" d="M1789.51 1451.02 L1807.87 1451.02 L1807.87 1454.96 L1793.8 1454.96 L1793.8 1463.43 Q1794.81 1463.08 1795.83 1462.92 Q1796.85 1462.73 1797.87 1462.73 Q1803.66 1462.73 1807.04 1465.9 Q1810.42 1469.08 1810.42 1474.49 Q1810.42 1480.07 1806.94 1483.17 Q1803.47 1486.25 1797.15 1486.25 Q1794.98 1486.25 1792.71 1485.88 Q1790.46 1485.51 1788.05 1484.77 L1788.05 1480.07 Q1790.14 1481.2 1792.36 1481.76 Q1794.58 1482.32 1797.06 1482.32 Q1801.06 1482.32 1803.4 1480.21 Q1805.74 1478.1 1805.74 1474.49 Q1805.74 1470.88 1803.4 1468.77 Q1801.06 1466.67 1797.06 1466.67 Q1795.18 1466.67 1793.31 1467.08 Q1791.46 1467.5 1789.51 1468.38 L1789.51 1451.02 Z" fill="#000000" fill-rule="nonzero" fill-opacity="1" /><path clip-path="url(#clip450)" d="M2252 1481.64 L2259.64 1481.64 L2259.64 1455.28 L2251.33 1456.95 L2251.33 1452.69 L2259.59 1451.02 L2264.27 1451.02 L2264.27 1481.64 L2271.91 1481.64 L2271.91 1485.58 L2252 1485.58 L2252 1481.64 Z" fill="#000000" fill-rule="nonzero" fill-opacity="1" /><path clip-path="url(#clip450)" d="M2291.35 1454.1 Q2287.74 1454.1 2285.91 1457.66 Q2284.1 1461.2 2284.1 1468.33 Q2284.1 1475.44 2285.91 1479.01 Q2287.74 1482.55 2291.35 1482.55 Q2294.98 1482.55 2296.79 1479.01 Q2298.62 1475.44 2298.62 1468.33 Q2298.62 1461.2 2296.79 1457.66 Q2294.98 1454.1 2291.35 1454.1 M2291.35 1450.39 Q2297.16 1450.39 2300.22 1455 Q2303.29 1459.58 2303.29 1468.33 Q2303.29 1477.06 2300.22 1481.67 Q2297.16 1486.25 2291.35 1486.25 Q2285.54 1486.25 2282.46 1481.67 Q2279.41 1477.06 2279.41 1468.33 Q2279.41 1459.58 2282.46 1455 Q2285.54 1450.39 2291.35 1450.39 Z" fill="#000000" fill-rule="nonzero" fill-opacity="1" /><path clip-path="url(#clip450)" d="M2321.51 1454.1 Q2317.9 1454.1 2316.07 1457.66 Q2314.27 1461.2 2314.27 1468.33 Q2314.27 1475.44 2316.07 1479.01 Q2317.9 1482.55 2321.51 1482.55 Q2325.15 1482.55 2326.95 1479.01 Q2328.78 1475.44 2328.78 1468.33 Q2328.78 1461.2 2326.95 1457.66 Q2325.15 1454.1 2321.51 1454.1 M2321.51 1450.39 Q2327.32 1450.39 2330.38 1455 Q2333.46 1459.58 2333.46 1468.33 Q2333.46 1477.06 2330.38 1481.67 Q2327.32 1486.25 2321.51 1486.25 Q2315.7 1486.25 2312.62 1481.67 Q2309.57 1477.06 2309.57 1468.33 Q2309.57 1459.58 2312.62 1455 Q2315.7 1450.39 2321.51 1450.39 Z" fill="#000000" fill-rule="nonzero" fill-opacity="1" /><path clip-path="url(#clip450)" d="M1225.47 1522.27 L1225.47 1532.4 L1237.53 1532.4 L1237.53 1536.95 L1225.47 1536.95 L1225.47 1556.3 Q1225.47 1560.66 1226.65 1561.9 Q1227.86 1563.14 1231.52 1563.14 L1237.53 1563.14 L1237.53 1568.04 L1231.52 1568.04 Q1224.74 1568.04 1222.16 1565.53 Q1219.58 1562.98 1219.58 1556.3 L1219.58 1536.95 L1215.29 1536.95 L1215.29 1532.4 L1219.58 1532.4 L1219.58 1522.27 L1225.47 1522.27 Z" fill="#000000" fill-rule="nonzero" fill-opacity="1" /><path clip-path="url(#clip450)" d="M1245.24 1532.4 L1251.09 1532.4 L1251.09 1568.04 L1245.24 1568.04 L1245.24 1532.4 M1245.24 1518.52 L1251.09 1518.52 L1251.09 1525.93 L1245.24 1525.93 L1245.24 1518.52 Z" fill="#000000" fill-rule="nonzero" fill-opacity="1" /><path clip-path="url(#clip450)" d="M1291.1 1539.24 Q1293.3 1535.29 1296.35 1533.41 Q1299.41 1531.54 1303.55 1531.54 Q1309.12 1531.54 1312.14 1535.45 Q1315.16 1539.33 1315.16 1546.53 L1315.16 1568.04 L1309.28 1568.04 L1309.28 1546.72 Q1309.28 1541.59 1307.46 1539.11 Q1305.65 1536.63 1301.92 1536.63 Q1297.37 1536.63 1294.73 1539.65 Q1292.09 1542.68 1292.09 1547.9 L1292.09 1568.04 L1286.2 1568.04 L1286.2 1546.72 Q1286.2 1541.56 1284.39 1539.11 Q1282.57 1536.63 1278.78 1536.63 Q1274.3 1536.63 1271.65 1539.68 Q1269.01 1542.71 1269.01 1547.9 L1269.01 1568.04 L1263.12 1568.04 L1263.12 1532.4 L1269.01 1532.4 L1269.01 1537.93 Q1271.02 1534.66 1273.82 1533.1 Q1276.62 1531.54 1280.47 1531.54 Q1284.35 1531.54 1287.06 1533.51 Q1289.8 1535.48 1291.1 1539.24 Z" fill="#000000" fill-rule="nonzero" fill-opacity="1" /><path clip-path="url(#clip450)" d="M1357.34 1548.76 L1357.34 1551.62 L1330.41 1551.62 Q1330.79 1557.67 1334.04 1560.85 Q1337.32 1564 1343.14 1564 Q1346.51 1564 1349.67 1563.17 Q1352.85 1562.35 1355.97 1560.69 L1355.97 1566.23 Q1352.82 1567.57 1349.51 1568.27 Q1346.2 1568.97 1342.79 1568.97 Q1334.26 1568.97 1329.26 1564 Q1324.3 1559.04 1324.3 1550.57 Q1324.3 1541.82 1329.01 1536.69 Q1333.75 1531.54 1341.77 1531.54 Q1348.97 1531.54 1353.14 1536.18 Q1357.34 1540.8 1357.34 1548.76 M1351.48 1547.04 Q1351.42 1542.23 1348.77 1539.37 Q1346.16 1536.5 1341.84 1536.5 Q1336.93 1536.5 1333.97 1539.27 Q1331.05 1542.04 1330.6 1547.07 L1351.48 1547.04 Z" fill="#000000" fill-rule="nonzero" fill-opacity="1" /><polyline clip-path="url(#clip452)" style="stroke:#000000; stroke-linecap:round; stroke-linejoin:round; stroke-width:2; stroke-opacity:0.1; fill:none" points="219.866,1351.84 2352.76,1351.84 "/>
<polyline clip-path="url(#clip452)" style="stroke:#000000; stroke-linecap:round; stroke-linejoin:round; stroke-width:2; stroke-opacity:0.1; fill:none" points="219.866,954.645 2352.76,954.645 "/>
<polyline clip-path="url(#clip452)" style="stroke:#000000; stroke-linecap:round; stroke-linejoin:round; stroke-width:2; stroke-opacity:0.1; fill:none" points="219.866,557.451 2352.76,557.451 "/>
<polyline clip-path="url(#clip452)" style="stroke:#000000; stroke-linecap:round; stroke-linejoin:round; stroke-width:2; stroke-opacity:0.1; fill:none" points="219.866,160.256 2352.76,160.256 "/>
<polyline clip-path="url(#clip450)" style="stroke:#000000; stroke-linecap:round; stroke-linejoin:round; stroke-width:4; stroke-opacity:1; fill:none" points="219.866,1423.18 219.866,123.472 "/>
<polyline clip-path="url(#clip450)" style="stroke:#000000; stroke-linecap:round; stroke-linejoin:round; stroke-width:4; stroke-opacity:1; fill:none" points="219.866,1351.84 238.764,1351.84 "/>
<polyline clip-path="url(#clip450)" style="stroke:#000000; stroke-linecap:round; stroke-linejoin:round; stroke-width:4; stroke-opacity:1; fill:none" points="219.866,954.645 238.764,954.645 "/>
<polyline clip-path="url(#clip450)" style="stroke:#000000; stroke-linecap:round; stroke-linejoin:round; stroke-width:4; stroke-opacity:1; fill:none" points="219.866,557.451 238.764,557.451 "/>
<polyline clip-path="url(#clip450)" style="stroke:#000000; stroke-linecap:round; stroke-linejoin:round; stroke-width:4; stroke-opacity:1; fill:none" points="219.866,160.256 238.764,160.256 "/>
<path clip-path="url(#clip450)" d="M126.205 1337.64 Q122.593 1337.64 120.765 1341.2 Q118.959 1344.74 118.959 1351.87 Q118.959 1358.98 120.765 1362.55 Q122.593 1366.09 126.205 1366.09 Q129.839 1366.09 131.644 1362.55 Q133.473 1358.98 133.473 1351.87 Q133.473 1344.74 131.644 1341.2 Q129.839 1337.64 126.205 1337.64 M126.205 1333.93 Q132.015 1333.93 135.07 1338.54 Q138.149 1343.12 138.149 1351.87 Q138.149 1360.6 135.07 1365.21 Q132.015 1369.79 126.205 1369.79 Q120.394 1369.79 117.316 1365.21 Q114.26 1360.6 114.26 1351.87 Q114.26 1343.12 117.316 1338.54 Q120.394 1333.93 126.205 1333.93 Z" fill="#000000" fill-rule="nonzero" fill-opacity="1" /><path clip-path="url(#clip450)" d="M146.366 1363.24 L151.251 1363.24 L151.251 1369.12 L146.366 1369.12 L146.366 1363.24 Z" fill="#000000" fill-rule="nonzero" fill-opacity="1" /><path clip-path="url(#clip450)" d="M174.283 1338.63 L162.477 1357.08 L174.283 1357.08 L174.283 1338.63 M173.056 1334.56 L178.936 1334.56 L178.936 1357.08 L183.866 1357.08 L183.866 1360.97 L178.936 1360.97 L178.936 1369.12 L174.283 1369.12 L174.283 1360.97 L158.681 1360.97 L158.681 1356.46 L173.056 1334.56 Z" fill="#000000" fill-rule="nonzero" fill-opacity="1" /><path clip-path="url(#clip450)" d="M127.686 940.444 Q124.075 940.444 122.246 944.009 Q120.441 947.55 120.441 954.68 Q120.441 961.786 122.246 965.351 Q124.075 968.893 127.686 968.893 Q131.32 968.893 133.126 965.351 Q134.954 961.786 134.954 954.68 Q134.954 947.55 133.126 944.009 Q131.32 940.444 127.686 940.444 M127.686 936.74 Q133.496 936.74 136.552 941.347 Q139.63 945.93 139.63 954.68 Q139.63 963.407 136.552 968.013 Q133.496 972.597 127.686 972.597 Q121.876 972.597 118.797 968.013 Q115.742 963.407 115.742 954.68 Q115.742 945.93 118.797 941.347 Q121.876 936.74 127.686 936.74 Z" fill="#000000" fill-rule="nonzero" fill-opacity="1" /><path clip-path="url(#clip450)" d="M147.848 966.046 L152.732 966.046 L152.732 971.925 L147.848 971.925 L147.848 966.046 Z" fill="#000000" fill-rule="nonzero" fill-opacity="1" /><path clip-path="url(#clip450)" d="M162.964 937.365 L181.32 937.365 L181.32 941.3 L167.246 941.3 L167.246 949.773 Q168.264 949.425 169.283 949.263 Q170.302 949.078 171.32 949.078 Q177.107 949.078 180.487 952.249 Q183.866 955.421 183.866 960.837 Q183.866 966.416 180.394 969.518 Q176.922 972.597 170.602 972.597 Q168.427 972.597 166.158 972.226 Q163.913 971.856 161.505 971.115 L161.505 966.416 Q163.589 967.55 165.811 968.106 Q168.033 968.661 170.51 968.661 Q174.514 968.661 176.852 966.555 Q179.19 964.448 179.19 960.837 Q179.19 957.226 176.852 955.12 Q174.514 953.013 170.51 953.013 Q168.635 953.013 166.76 953.43 Q164.908 953.847 162.964 954.726 L162.964 937.365 Z" fill="#000000" fill-rule="nonzero" fill-opacity="1" /><path clip-path="url(#clip450)" d="M126.529 543.249 Q122.918 543.249 121.089 546.814 Q119.283 550.356 119.283 557.486 Q119.283 564.592 121.089 568.157 Q122.918 571.698 126.529 571.698 Q130.163 571.698 131.968 568.157 Q133.797 564.592 133.797 557.486 Q133.797 550.356 131.968 546.814 Q130.163 543.249 126.529 543.249 M126.529 539.546 Q132.339 539.546 135.394 544.152 Q138.473 548.736 138.473 557.486 Q138.473 566.212 135.394 570.819 Q132.339 575.402 126.529 575.402 Q120.718 575.402 117.64 570.819 Q114.584 566.212 114.584 557.486 Q114.584 548.736 117.64 544.152 Q120.718 539.546 126.529 539.546 Z" fill="#000000" fill-rule="nonzero" fill-opacity="1" /><path clip-path="url(#clip450)" d="M146.691 568.851 L151.575 568.851 L151.575 574.731 L146.691 574.731 L146.691 568.851 Z" fill="#000000" fill-rule="nonzero" fill-opacity="1" /><path clip-path="url(#clip450)" d="M172.339 555.587 Q169.19 555.587 167.339 557.74 Q165.51 559.893 165.51 563.643 Q165.51 567.37 167.339 569.546 Q169.19 571.698 172.339 571.698 Q175.487 571.698 177.315 569.546 Q179.167 567.37 179.167 563.643 Q179.167 559.893 177.315 557.74 Q175.487 555.587 172.339 555.587 M181.621 540.935 L181.621 545.194 Q179.862 544.361 178.056 543.921 Q176.274 543.481 174.514 543.481 Q169.885 543.481 167.431 546.606 Q165.001 549.731 164.653 556.05 Q166.019 554.036 168.079 552.972 Q170.139 551.884 172.616 551.884 Q177.825 551.884 180.834 555.055 Q183.866 558.203 183.866 563.643 Q183.866 568.967 180.718 572.185 Q177.57 575.402 172.339 575.402 Q166.343 575.402 163.172 570.819 Q160.001 566.212 160.001 557.486 Q160.001 549.291 163.89 544.43 Q167.778 539.546 174.329 539.546 Q176.089 539.546 177.871 539.893 Q179.676 540.24 181.621 540.935 Z" fill="#000000" fill-rule="nonzero" fill-opacity="1" /><path clip-path="url(#clip450)" d="M127.593 146.055 Q123.982 146.055 122.154 149.62 Q120.348 153.161 120.348 160.291 Q120.348 167.397 122.154 170.962 Q123.982 174.504 127.593 174.504 Q131.228 174.504 133.033 170.962 Q134.862 167.397 134.862 160.291 Q134.862 153.161 133.033 149.62 Q131.228 146.055 127.593 146.055 M127.593 142.351 Q133.404 142.351 136.459 146.958 Q139.538 151.541 139.538 160.291 Q139.538 169.018 136.459 173.624 Q133.404 178.208 127.593 178.208 Q121.783 178.208 118.705 173.624 Q115.649 169.018 115.649 160.291 Q115.649 151.541 118.705 146.958 Q121.783 142.351 127.593 142.351 Z" fill="#000000" fill-rule="nonzero" fill-opacity="1" /><path clip-path="url(#clip450)" d="M147.755 171.657 L152.64 171.657 L152.64 177.536 L147.755 177.536 L147.755 171.657 Z" fill="#000000" fill-rule="nonzero" fill-opacity="1" /><path clip-path="url(#clip450)" d="M161.644 142.976 L183.866 142.976 L183.866 144.967 L171.32 177.536 L166.436 177.536 L178.241 146.911 L161.644 146.911 L161.644 142.976 Z" fill="#000000" fill-rule="nonzero" fill-opacity="1" /><path clip-path="url(#clip450)" d="M28.3562 756.711 L45.7028 769.602 L64.0042 756.043 L64.0042 762.95 L49.9996 773.326 L64.0042 783.702 L64.0042 790.609 L45.3526 776.763 L28.3562 789.431 L28.3562 782.524 L41.0558 773.071 L28.3562 763.618 L28.3562 756.711 Z" fill="#000000" fill-rule="nonzero" fill-opacity="1" /><path clip-path="url(#clip450)" d="M778.55 16.7545 L778.55 25.383 Q774.419 21.5346 769.72 19.6307 Q765.061 17.7268 759.795 17.7268 Q749.424 17.7268 743.915 24.0867 Q738.406 30.4061 738.406 42.3968 Q738.406 54.3469 743.915 60.7069 Q749.424 67.0263 759.795 67.0263 Q765.061 67.0263 769.72 65.1223 Q774.419 63.2184 778.55 59.3701 L778.55 67.9175 Q774.257 70.8341 769.436 72.2924 Q764.656 73.7508 759.309 73.7508 Q745.576 73.7508 737.677 65.3654 Q729.778 56.9395 729.778 42.3968 Q729.778 27.8135 737.677 19.4281 Q745.576 11.0023 759.309 11.0023 Q764.737 11.0023 769.517 12.4606 Q774.338 13.8784 778.55 16.7545 Z" fill="#000000" fill-rule="nonzero" fill-opacity="1" /><path clip-path="url(#clip450)" d="M790.865 9.54393 L798.319 9.54393 L798.319 72.576 L790.865 72.576 L790.865 9.54393 Z" fill="#000000" fill-rule="nonzero" fill-opacity="1" /><path clip-path="url(#clip450)" d="M834.534 49.7694 Q825.5 49.7694 822.017 51.8354 Q818.533 53.9013 818.533 58.8839 Q818.533 62.8538 821.125 65.2034 Q823.759 67.5124 828.255 67.5124 Q834.453 67.5124 838.18 63.1374 Q841.947 58.7219 841.947 51.4303 L841.947 49.7694 L834.534 49.7694 M849.401 46.6907 L849.401 72.576 L841.947 72.576 L841.947 65.6895 Q839.395 69.8214 835.587 71.8063 Q831.779 73.7508 826.27 73.7508 Q819.303 73.7508 815.171 69.8619 Q811.079 65.9325 811.079 59.3701 Q811.079 51.7138 816.183 47.825 Q821.328 43.9361 831.496 43.9361 L841.947 43.9361 L841.947 43.2069 Q841.947 38.0623 838.544 35.2672 Q835.182 32.4315 829.065 32.4315 Q825.176 32.4315 821.49 33.3632 Q817.804 34.295 814.401 36.1584 L814.401 29.2718 Q818.492 27.692 822.341 26.9223 Q826.189 26.1121 829.835 26.1121 Q839.679 26.1121 844.54 31.2163 Q849.401 36.3204 849.401 46.6907 Z" fill="#000000" fill-rule="nonzero" fill-opacity="1" /><path clip-path="url(#clip450)" d="M893.677 28.5427 L893.677 35.5912 Q890.517 33.9709 887.115 33.1607 Q883.712 32.3505 880.066 32.3505 Q874.516 32.3505 871.721 34.0519 Q868.967 35.7533 868.967 39.156 Q868.967 41.7486 870.952 43.2475 Q872.937 44.7058 878.932 46.0426 L881.484 46.6097 Q889.424 48.3111 892.745 51.4303 Q896.108 54.509 896.108 60.0587 Q896.108 66.3781 891.085 70.0644 Q886.102 73.7508 877.352 73.7508 Q873.706 73.7508 869.736 73.0216 Q865.807 72.3329 861.432 70.9151 L861.432 63.2184 Q865.564 65.3654 869.574 66.4591 Q873.585 67.5124 877.514 67.5124 Q882.78 67.5124 885.616 65.73 Q888.452 63.9071 888.452 60.6258 Q888.452 57.5877 886.386 55.9673 Q884.36 54.3469 877.433 52.8481 L874.84 52.2405 Q867.913 50.7821 864.835 47.7845 Q861.756 44.7463 861.756 39.4801 Q861.756 33.0797 866.293 29.5959 Q870.83 26.1121 879.175 26.1121 Q883.307 26.1121 886.953 26.7198 Q890.599 27.3274 893.677 28.5427 Z" fill="#000000" fill-rule="nonzero" fill-opacity="1" /><path clip-path="url(#clip450)" d="M936.9 28.5427 L936.9 35.5912 Q933.741 33.9709 930.338 33.1607 Q926.935 32.3505 923.289 32.3505 Q917.74 32.3505 914.944 34.0519 Q912.19 35.7533 912.19 39.156 Q912.19 41.7486 914.175 43.2475 Q916.16 44.7058 922.155 46.0426 L924.707 46.6097 Q932.647 48.3111 935.969 51.4303 Q939.331 54.509 939.331 60.0587 Q939.331 66.3781 934.308 70.0644 Q929.325 73.7508 920.575 73.7508 Q916.929 73.7508 912.959 73.0216 Q909.03 72.3329 904.655 70.9151 L904.655 63.2184 Q908.787 65.3654 912.797 66.4591 Q916.808 67.5124 920.737 67.5124 Q926.003 67.5124 928.839 65.73 Q931.675 63.9071 931.675 60.6258 Q931.675 57.5877 929.609 55.9673 Q927.583 54.3469 920.656 52.8481 L918.064 52.2405 Q911.137 50.7821 908.058 47.7845 Q904.979 44.7463 904.979 39.4801 Q904.979 33.0797 909.516 29.5959 Q914.053 26.1121 922.398 26.1121 Q926.53 26.1121 930.176 26.7198 Q933.822 27.3274 936.9 28.5427 Z" fill="#000000" fill-rule="nonzero" fill-opacity="1" /><path clip-path="url(#clip450)" d="M996.125 17.4837 Q989.805 17.4837 986.605 23.7221 Q983.445 29.92 983.445 42.3968 Q983.445 54.833 986.605 61.0714 Q989.805 67.2693 996.125 67.2693 Q1002.48 67.2693 1005.64 61.0714 Q1008.84 54.833 1008.84 42.3968 Q1008.84 29.92 1005.64 23.7221 Q1002.48 17.4837 996.125 17.4837 M996.125 11.0023 Q1006.29 11.0023 1011.64 19.0636 Q1017.03 27.0843 1017.03 42.3968 Q1017.03 57.6687 1011.64 65.73 Q1006.29 73.7508 996.125 73.7508 Q985.957 73.7508 980.569 65.73 Q975.222 57.6687 975.222 42.3968 Q975.222 27.0843 980.569 19.0636 Q985.957 11.0023 996.125 11.0023 Z" fill="#000000" fill-rule="nonzero" fill-opacity="1" /><path clip-path="url(#clip450)" d="M1057.86 12.096 L1089.98 12.096 L1089.98 18.9825 L1065.35 18.9825 L1065.35 33.8088 Q1067.14 33.2012 1068.92 32.9176 Q1070.7 32.5936 1072.48 32.5936 Q1082.61 32.5936 1088.53 38.1433 Q1094.44 43.6931 1094.44 53.1722 Q1094.44 62.9348 1088.36 68.3631 Q1082.29 73.7508 1071.23 73.7508 Q1067.42 73.7508 1063.45 73.1026 Q1059.52 72.4545 1055.31 71.1582 L1055.31 62.9348 Q1058.95 64.9198 1062.84 65.892 Q1066.73 66.8642 1071.07 66.8642 Q1078.07 66.8642 1082.17 63.1779 Q1086.26 59.4916 1086.26 53.1722 Q1086.26 46.8528 1082.17 43.1664 Q1078.07 39.4801 1071.07 39.4801 Q1067.79 39.4801 1064.5 40.2093 Q1061.26 40.9384 1057.86 42.4778 L1057.86 12.096 Z" fill="#000000" fill-rule="nonzero" fill-opacity="1" /><path clip-path="url(#clip450)" d="M1128.06 17.4837 Q1121.74 17.4837 1118.54 23.7221 Q1115.38 29.92 1115.38 42.3968 Q1115.38 54.833 1118.54 61.0714 Q1121.74 67.2693 1128.06 67.2693 Q1134.42 67.2693 1137.58 61.0714 Q1140.78 54.833 1140.78 42.3968 Q1140.78 29.92 1137.58 23.7221 Q1134.42 17.4837 1128.06 17.4837 M1128.06 11.0023 Q1138.23 11.0023 1143.58 19.0636 Q1148.97 27.0843 1148.97 42.3968 Q1148.97 57.6687 1143.58 65.73 Q1138.23 73.7508 1128.06 73.7508 Q1117.89 73.7508 1112.51 65.73 Q1107.16 57.6687 1107.16 42.3968 Q1107.16 27.0843 1112.51 19.0636 Q1117.89 11.0023 1128.06 11.0023 Z" fill="#000000" fill-rule="nonzero" fill-opacity="1" /><path clip-path="url(#clip450)" d="M1180.85 17.4837 Q1174.53 17.4837 1171.33 23.7221 Q1168.17 29.92 1168.17 42.3968 Q1168.17 54.833 1171.33 61.0714 Q1174.53 67.2693 1180.85 67.2693 Q1187.21 67.2693 1190.37 61.0714 Q1193.57 54.833 1193.57 42.3968 Q1193.57 29.92 1190.37 23.7221 Q1187.21 17.4837 1180.85 17.4837 M1180.85 11.0023 Q1191.01 11.0023 1196.36 19.0636 Q1201.75 27.0843 1201.75 42.3968 Q1201.75 57.6687 1196.36 65.73 Q1191.01 73.7508 1180.85 73.7508 Q1170.68 73.7508 1165.29 65.73 Q1159.94 57.6687 1159.94 42.3968 Q1159.94 27.0843 1165.29 19.0636 Q1170.68 11.0023 1180.85 11.0023 Z" fill="#000000" fill-rule="nonzero" fill-opacity="1" /><path clip-path="url(#clip450)" d="M1233.63 17.4837 Q1227.31 17.4837 1224.11 23.7221 Q1220.95 29.92 1220.95 42.3968 Q1220.95 54.833 1224.11 61.0714 Q1227.31 67.2693 1233.63 67.2693 Q1239.99 67.2693 1243.15 61.0714 Q1246.35 54.833 1246.35 42.3968 Q1246.35 29.92 1243.15 23.7221 Q1239.99 17.4837 1233.63 17.4837 M1233.63 11.0023 Q1243.8 11.0023 1249.14 19.0636 Q1254.53 27.0843 1254.53 42.3968 Q1254.53 57.6687 1249.14 65.73 Q1243.8 73.7508 1233.63 73.7508 Q1223.46 73.7508 1218.07 65.73 Q1212.73 57.6687 1212.73 42.3968 Q1212.73 27.0843 1218.07 19.0636 Q1223.46 11.0023 1233.63 11.0023 Z" fill="#000000" fill-rule="nonzero" fill-opacity="1" /><path clip-path="url(#clip450)" d="M1330.81 14.0809 L1330.81 22.0612 Q1326.15 19.8332 1322.02 18.7395 Q1317.89 17.6457 1314.04 17.6457 Q1307.36 17.6457 1303.71 20.2383 Q1300.1 22.8309 1300.1 27.611 Q1300.1 31.6214 1302.49 33.6873 Q1304.92 35.7128 1311.65 36.9686 L1316.59 37.9813 Q1325.75 39.7232 1330.08 44.1387 Q1334.46 48.5136 1334.46 55.8863 Q1334.46 64.6767 1328.54 69.2137 Q1322.67 73.7508 1311.28 73.7508 Q1306.99 73.7508 1302.13 72.7785 Q1297.31 71.8063 1292.12 69.9024 L1292.12 61.4765 Q1297.11 64.2716 1301.89 65.6895 Q1306.67 67.1073 1311.28 67.1073 Q1318.29 67.1073 1322.1 64.3527 Q1325.91 61.598 1325.91 56.4939 Q1325.91 52.0379 1323.15 49.5264 Q1320.44 47.0148 1314.2 45.759 L1309.22 44.7868 Q1300.06 42.9639 1295.97 39.075 Q1291.88 35.1862 1291.88 28.2591 Q1291.88 20.2383 1297.51 15.6203 Q1303.18 11.0023 1313.11 11.0023 Q1317.36 11.0023 1321.78 11.7719 Q1326.19 12.5416 1330.81 14.0809 Z" fill="#000000" fill-rule="nonzero" fill-opacity="1" /><path clip-path="url(#clip450)" d="M1367.51 49.7694 Q1358.48 49.7694 1354.99 51.8354 Q1351.51 53.9013 1351.51 58.8839 Q1351.51 62.8538 1354.1 65.2034 Q1356.74 67.5124 1361.23 67.5124 Q1367.43 67.5124 1371.16 63.1374 Q1374.92 58.7219 1374.92 51.4303 L1374.92 49.7694 L1367.51 49.7694 M1382.38 46.6907 L1382.38 72.576 L1374.92 72.576 L1374.92 65.6895 Q1372.37 69.8214 1368.56 71.8063 Q1364.76 73.7508 1359.25 73.7508 Q1352.28 73.7508 1348.15 69.8619 Q1344.06 65.9325 1344.06 59.3701 Q1344.06 51.7138 1349.16 47.825 Q1354.31 43.9361 1364.47 43.9361 L1374.92 43.9361 L1374.92 43.2069 Q1374.92 38.0623 1371.52 35.2672 Q1368.16 32.4315 1362.04 32.4315 Q1358.15 32.4315 1354.47 33.3632 Q1350.78 34.295 1347.38 36.1584 L1347.38 29.2718 Q1351.47 27.692 1355.32 26.9223 Q1359.17 26.1121 1362.81 26.1121 Q1372.66 26.1121 1377.52 31.2163 Q1382.38 36.3204 1382.38 46.6907 Z" fill="#000000" fill-rule="nonzero" fill-opacity="1" /><path clip-path="url(#clip450)" d="M1433.06 35.9153 Q1435.85 30.8922 1439.74 28.5022 Q1443.63 26.1121 1448.89 26.1121 Q1455.98 26.1121 1459.83 31.0947 Q1463.68 36.0368 1463.68 45.1919 L1463.68 72.576 L1456.19 72.576 L1456.19 45.4349 Q1456.19 38.913 1453.88 35.7533 Q1451.57 32.5936 1446.83 32.5936 Q1441.04 32.5936 1437.67 36.4419 Q1434.31 40.2903 1434.31 46.9338 L1434.31 72.576 L1426.82 72.576 L1426.82 45.4349 Q1426.82 38.8725 1424.51 35.7533 Q1422.2 32.5936 1417.38 32.5936 Q1411.67 32.5936 1408.3 36.4824 Q1404.94 40.3308 1404.94 46.9338 L1404.94 72.576 L1397.45 72.576 L1397.45 27.2059 L1404.94 27.2059 L1404.94 34.2544 Q1407.49 30.082 1411.06 28.0971 Q1414.62 26.1121 1419.53 26.1121 Q1424.47 26.1121 1427.91 28.6237 Q1431.39 31.1352 1433.06 35.9153 Z" fill="#000000" fill-rule="nonzero" fill-opacity="1" /><path clip-path="url(#clip450)" d="M1485.76 65.7705 L1485.76 89.8329 L1478.26 89.8329 L1478.26 27.2059 L1485.76 27.2059 L1485.76 34.0924 Q1488.11 30.0415 1491.67 28.0971 Q1495.28 26.1121 1500.26 26.1121 Q1508.52 26.1121 1513.67 32.6746 Q1518.85 39.2371 1518.85 49.9314 Q1518.85 60.6258 1513.67 67.1883 Q1508.52 73.7508 1500.26 73.7508 Q1495.28 73.7508 1491.67 71.8063 Q1488.11 69.8214 1485.76 65.7705 M1511.12 49.9314 Q1511.12 41.7081 1507.71 37.0496 Q1504.35 32.3505 1498.44 32.3505 Q1492.52 32.3505 1489.12 37.0496 Q1485.76 41.7081 1485.76 49.9314 Q1485.76 58.1548 1489.12 62.8538 Q1492.52 67.5124 1498.44 67.5124 Q1504.35 67.5124 1507.71 62.8538 Q1511.12 58.1548 1511.12 49.9314 Z" fill="#000000" fill-rule="nonzero" fill-opacity="1" /><path clip-path="url(#clip450)" d="M1531.21 9.54393 L1538.66 9.54393 L1538.66 72.576 L1531.21 72.576 L1531.21 9.54393 Z" fill="#000000" fill-rule="nonzero" fill-opacity="1" /><path clip-path="url(#clip450)" d="M1593.07 48.0275 L1593.07 51.6733 L1558.8 51.6733 Q1559.28 59.3701 1563.41 63.421 Q1567.59 67.4314 1575 67.4314 Q1579.29 67.4314 1583.3 66.3781 Q1587.35 65.3249 1591.32 63.2184 L1591.32 70.267 Q1587.31 71.9684 1583.1 72.8596 Q1578.89 73.7508 1574.55 73.7508 Q1563.7 73.7508 1557.34 67.4314 Q1551.02 61.1119 1551.02 50.3365 Q1551.02 39.1965 1557.01 32.6746 Q1563.05 26.1121 1573.26 26.1121 Q1582.41 26.1121 1587.72 32.0264 Q1593.07 37.9003 1593.07 48.0275 M1585.61 45.84 Q1585.53 39.7232 1582.17 36.0774 Q1578.85 32.4315 1573.34 32.4315 Q1567.1 32.4315 1563.33 35.9558 Q1559.61 39.4801 1559.04 45.8805 L1585.61 45.84 Z" fill="#000000" fill-rule="nonzero" fill-opacity="1" /><path clip-path="url(#clip450)" d="M1631.99 12.096 L1644.19 12.096 L1659.62 53.2532 L1675.14 12.096 L1687.33 12.096 L1687.33 72.576 L1679.35 72.576 L1679.35 19.4686 L1663.75 60.9499 L1655.53 60.9499 L1639.93 19.4686 L1639.93 72.576 L1631.99 72.576 L1631.99 12.096 Z" fill="#000000" fill-rule="nonzero" fill-opacity="1" /><path clip-path="url(#clip450)" d="M1742.06 48.0275 L1742.06 51.6733 L1707.79 51.6733 Q1708.27 59.3701 1712.41 63.421 Q1716.58 67.4314 1723.99 67.4314 Q1728.28 67.4314 1732.3 66.3781 Q1736.35 65.3249 1740.32 63.2184 L1740.32 70.267 Q1736.31 71.9684 1732.09 72.8596 Q1727.88 73.7508 1723.55 73.7508 Q1712.69 73.7508 1706.33 67.4314 Q1700.01 61.1119 1700.01 50.3365 Q1700.01 39.1965 1706.01 32.6746 Q1712.04 26.1121 1722.25 26.1121 Q1731.4 26.1121 1736.71 32.0264 Q1742.06 37.9003 1742.06 48.0275 M1734.6 45.84 Q1734.52 39.7232 1731.16 36.0774 Q1727.84 32.4315 1722.33 32.4315 Q1716.09 32.4315 1712.32 35.9558 Q1708.6 39.4801 1708.03 45.8805 L1734.6 45.84 Z" fill="#000000" fill-rule="nonzero" fill-opacity="1" /><path clip-path="url(#clip450)" d="M1774.91 49.7694 Q1765.88 49.7694 1762.39 51.8354 Q1758.91 53.9013 1758.91 58.8839 Q1758.91 62.8538 1761.5 65.2034 Q1764.14 67.5124 1768.63 67.5124 Q1774.83 67.5124 1778.56 63.1374 Q1782.32 58.7219 1782.32 51.4303 L1782.32 49.7694 L1774.91 49.7694 M1789.78 46.6907 L1789.78 72.576 L1782.32 72.576 L1782.32 65.6895 Q1779.77 69.8214 1775.96 71.8063 Q1772.16 73.7508 1766.65 73.7508 Q1759.68 73.7508 1755.55 69.8619 Q1751.46 65.9325 1751.46 59.3701 Q1751.46 51.7138 1756.56 47.825 Q1761.7 43.9361 1771.87 43.9361 L1782.32 43.9361 L1782.32 43.2069 Q1782.32 38.0623 1778.92 35.2672 Q1775.56 32.4315 1769.44 32.4315 Q1765.55 32.4315 1761.87 33.3632 Q1758.18 34.295 1754.78 36.1584 L1754.78 29.2718 Q1758.87 27.692 1762.72 26.9223 Q1766.57 26.1121 1770.21 26.1121 Q1780.06 26.1121 1784.92 31.2163 Q1789.78 36.3204 1789.78 46.6907 Z" fill="#000000" fill-rule="nonzero" fill-opacity="1" /><path clip-path="url(#clip450)" d="M1842.84 45.1919 L1842.84 72.576 L1835.39 72.576 L1835.39 45.4349 Q1835.39 38.994 1832.88 35.7938 Q1830.37 32.5936 1825.34 32.5936 Q1819.31 32.5936 1815.83 36.4419 Q1812.34 40.2903 1812.34 46.9338 L1812.34 72.576 L1804.85 72.576 L1804.85 27.2059 L1812.34 27.2059 L1812.34 34.2544 Q1815.01 30.163 1818.62 28.1376 Q1822.27 26.1121 1827.01 26.1121 Q1834.82 26.1121 1838.83 30.9732 Q1842.84 35.7938 1842.84 45.1919 Z" fill="#000000" fill-rule="nonzero" fill-opacity="1" /><polyline clip-path="url(#clip452)" style="stroke:#009af9; stroke-linecap:round; stroke-linejoin:round; stroke-width:8; stroke-opacity:0.3; fill:none" points="280.231,1053.71 300.556,1044.49 320.881,1064.11 341.206,1102 361.53,1110.82 381.855,1112.41 402.18,1118.05 422.505,1141.49 442.83,1129.81 463.155,1160.39 483.48,1134.34 503.804,1150.94 524.129,1148.79 544.454,1145.46 564.779,1112.65 585.104,1128.78 605.429,1166.27 625.753,1108.68 646.078,1117.42 666.403,1119.96 686.728,1046.24 707.053,1073.49 727.378,1047.51 747.703,1052.36 768.027,1032.81 788.352,1015.73 808.677,978.397 829.002,963.701 849.327,956.949 869.652,955.281 889.977,903.963 910.301,907.459 930.626,879.178 950.951,849.389 971.276,856.935 991.601,856.856 1011.93,862.417 1032.25,870.758 1052.58,895.304 1072.9,861.622 1093.23,902.692 1113.55,879.973 1133.87,917.786 1154.2,931.767 1174.52,973.869 1194.85,951.706 1215.17,1008.74 1235.5,1049.81 1255.82,1046.4 1276.15,1054.82 1296.47,1075.07 1316.8,1097.4 1337.12,1105.98 1357.45,1123.61 1377.77,1147.76 1398.1,1132.11 1418.42,1126.63 1438.75,1166.51 1459.07,1155.47 1479.4,1136.32 1499.72,1156.42 1520.05,1141.96 1540.37,1189.47 1560.7,1159.76 1581.02,1136.8 1601.35,1152.92 1621.67,1108.36 1642,1136.8 1662.32,1099.7 1682.65,1095.65 1702.97,1044.81 1723.3,1059.19 1743.62,1072.85 1763.95,1000.72 1784.27,981.893 1804.59,967.435 1824.92,954.407 1845.24,957.267 1865.57,939.79 1885.89,917.706 1906.22,942.253 1926.54,900.627 1946.87,881.085 1967.19,888.393 1987.52,873.141 2007.84,873.22 2028.17,886.248 2048.49,867.421 2068.82,897.767 2089.14,879.337 2109.47,875.683 2129.79,904.599 2150.12,920.328 2170.44,923.585 2190.77,970.295 2211.09,973.393 2231.42,996.51 2251.74,1027.89 2272.07,1016.21 2292.39,1059.35 "/>
<polyline clip-path="url(#clip452)" style="stroke:#e26f46; stroke-linecap:round; stroke-linejoin:round; stroke-width:8; stroke-opacity:0.3; fill:none" points="280.231,1039.49 300.556,1073.8 320.881,1046.79 341.206,1092.71 361.53,1110.35 381.855,1118.77 402.18,1108.76 422.505,1136.08 442.83,1144.35 463.155,1147.84 483.48,1165.16 503.804,1170.08 524.129,1159.92 544.454,1163.09 564.779,1190.26 585.104,1156.58 605.429,1163.41 625.753,1139.58 646.078,1147.05 666.403,1124.01 686.728,1090.64 707.053,1058.71 727.378,1064.27 747.703,1057.6 768.027,1023.6 788.352,1021.06 808.677,974.028 829.002,995 849.327,951.468 869.652,911.748 889.977,927.795 910.301,874.73 930.626,882.515 950.951,887.758 971.276,849.309 991.601,844.066 1011.93,853.281 1032.25,820.235 1052.58,843.113 1072.9,823.253 1093.23,851.692 1113.55,854.076 1133.87,890.935 1154.2,939.711 1174.52,901.262 1194.85,921.916 1215.17,958.299 1235.5,953.374 1255.82,1022.17 1276.15,1035.51 1296.47,1043.46 1316.8,1071.58 1337.12,1073.49 1357.45,1090.8 1377.77,1132.91 1398.1,1118.61 1418.42,1152.61 1438.75,1115.11 1459.07,1196.62 1479.4,1180.41 1499.72,1139.74 1520.05,1160.39 1540.37,1201.86 1560.7,1192.8 1581.02,1182 1601.35,1135.77 1621.67,1148.48 1642,1121.15 1662.32,1121.15 1682.65,1101.92 1702.97,1089.85 1723.3,1116.38 1743.62,1083.81 1763.95,1018.83 1784.27,1032.34 1804.59,971.645 1824.92,990.075 1845.24,971.01 1865.57,936.057 1885.89,949.402 1906.22,902.851 1926.54,848.833 1946.87,878.702 1967.19,862.814 1987.52,873.618 2007.84,848.197 2028.17,853.44 2048.49,836.44 2068.82,866.309 2089.14,847.562 2109.47,887.44 2129.79,880.29 2150.12,881.879 2170.44,896.973 2190.77,917.468 2211.09,984.832 2231.42,961.795 2251.74,1026.3 2272.07,979.112 2292.39,1026.93 "/>
<polyline clip-path="url(#clip452)" style="stroke:#3da44d; stroke-linecap:round; stroke-linejoin:round; stroke-width:8; stroke-opacity:0.3; fill:none" points="280.231,952.262 300.556,1055.53 320.881,1133.78 341.206,1188.99 361.53,1247.38 381.855,1284.71 402.18,1295.44 422.505,1281.93 442.83,1348.66 463.155,1370.51 483.48,1356.61 503.804,1382.82 524.129,1358.59 544.454,1371.3 564.779,1341.91 585.104,1301.79 605.429,1268.43 625.753,1287.89 646.078,1221.16 666.403,1182.63 686.728,1136.56 707.053,1116.7 727.378,1074.6 747.703,968.15 768.027,951.865 788.352,832.707 808.677,779.482 829.002,653.572 849.327,540.769 869.652,532.825 889.977,429.951 910.301,369.975 930.626,351.307 950.951,298.083 971.276,222.616 991.601,228.971 1011.93,240.887 1032.25,160.256 1052.58,239.298 1072.9,251.214 1093.23,219.835 1113.55,277.429 1133.87,357.662 1154.2,396.587 1174.52,497.474 1194.85,600.745 1215.17,653.175 1235.5,801.725 1255.82,841.048 1276.15,926.842 1296.47,1043.62 1316.8,1101.21 1337.12,1156.42 1357.45,1235.06 1377.77,1264.85 1398.1,1301.4 1418.42,1321.26 1438.75,1346.68 1459.07,1381.63 1479.4,1386.4 1499.72,1374.08 1520.05,1360.18 1540.37,1386.4 1560.7,1351.84 1581.02,1317.28 1601.35,1301.4 1621.67,1272 1642,1238.64 1662.32,1223.15 1682.65,1141.72 1702.97,1084.93 1723.3,1071.02 1743.62,994.365 1763.95,979.669 1784.27,921.678 1804.59,834.693 1824.92,813.244 1845.24,715.137 1865.57,675.815 1885.89,631.329 1906.22,564.6 1926.54,521.306 1946.87,490.722 1967.19,430.349 1987.52,418.83 2007.84,457.755 2028.17,392.218 2048.49,454.18 2068.82,423.993 2089.14,458.549 2109.47,487.545 2129.79,551.493 2150.12,553.876 2170.44,614.25 2190.77,649.997 2211.09,738.174 2231.42,783.057 2251.74,872.426 2272.07,858.921 2292.39,1005.88 "/>
<polyline clip-path="url(#clip452)" style="stroke:#c271d2; stroke-linecap:round; stroke-linejoin:round; stroke-width:8; stroke-opacity:0.3; fill:none" points="280.231,988.804 300.556,980.066 320.881,936.374 341.206,919.692 361.53,953.056 381.855,916.515 402.18,965.767 422.505,947.496 442.83,1010.25 463.155,1002.31 483.48,953.851 503.804,975.299 524.129,983.243 544.454,939.552 564.779,953.056 585.104,995.953 605.429,980.86 625.753,961.795 646.078,1007.87 666.403,962.589 686.728,930.019 707.053,944.318 727.378,930.814 747.703,926.842 768.027,909.365 788.352,974.505 808.677,995.953 829.002,991.187 849.327,954.645 869.652,911.748 889.977,954.645 910.301,958.617 930.626,975.299 950.951,949.879 971.276,950.673 991.601,920.487 1011.93,969.739 1032.25,949.879 1052.58,933.991 1072.9,955.44 1093.23,941.141 1113.55,962.589 1133.87,946.701 1154.2,919.692 1174.52,964.972 1194.85,961 1215.17,970.533 1235.5,953.056 1255.82,956.234 1276.15,955.44 1296.47,904.599 1316.8,922.87 1337.12,974.505 1357.45,937.963 1377.77,952.262 1398.1,956.234 1418.42,961.795 1438.75,953.851 1459.07,952.262 1479.4,948.29 1499.72,896.655 1520.05,972.916 1540.37,970.533 1560.7,944.318 1581.02,958.617 1601.35,986.421 1621.67,919.692 1642,931.608 1662.32,956.234 1682.65,975.299 1702.97,914.926 1723.3,982.449 1743.62,980.066 1763.95,965.767 1784.27,937.169 1804.59,993.57 1824.92,979.271 1845.24,959.412 1865.57,887.917 1885.89,969.739 1906.22,921.281 1926.54,891.889 1946.87,897.449 1967.19,927.636 1987.52,926.047 2007.84,951.468 2028.17,980.86 2048.49,912.543 2068.82,954.645 2089.14,1007.07 2109.47,1015.81 2129.79,957.028 2150.12,937.169 2170.44,946.701 2190.77,999.131 2211.09,928.43 2231.42,1009.46 2251.74,911.748 2272.07,938.757 2292.39,958.617 "/>
<path clip-path="url(#clip450)" d="M290.963 425.996 L700.801 425.996 L700.801 166.796 L290.963 166.796  Z" fill="#ffffff" fill-rule="evenodd" fill-opacity="1"/>
<polyline clip-path="url(#clip450)" style="stroke:#000000; stroke-linecap:round; stroke-linejoin:round; stroke-width:4; stroke-opacity:1; fill:none" points="290.963,425.996 700.801,425.996 700.801,166.796 290.963,166.796 290.963,425.996 "/>
<polyline clip-path="url(#clip450)" style="stroke:#009af9; stroke-linecap:round; stroke-linejoin:round; stroke-width:8; stroke-opacity:0.3; fill:none" points="314.661,218.636 456.854,218.636 "/>
<path clip-path="url(#clip450)" d="M501.178 205.893 Q498.817 204.272 493.284 204.272 Q487.428 204.272 487.428 206.981 Q487.428 209.11 493.539 210.221 Q498.354 211.078 501.062 213.67 Q504.349 216.795 504.349 223.207 Q504.349 229.342 501.178 232.953 Q498.006 236.587 492.451 236.587 Q486.918 236.587 483.724 232.953 Q480.553 229.342 480.553 222.976 Q480.553 218.254 483.724 214.434 Q484.951 212.953 486.687 212.12 Q483.076 210.291 483.076 207.027 Q483.076 200.731 493.284 200.731 Q498.4 200.731 501.178 202.351 L501.178 205.893 M489.881 213.277 Q488.307 213.948 487.034 215.638 Q485.043 218.254 485.043 222.976 Q485.043 227.675 487.011 230.314 Q489.002 232.976 492.451 232.976 Q495.854 232.976 497.844 230.291 Q499.835 227.606 499.835 223.207 Q499.835 218.601 497.729 216.379 Q495.483 213.995 492.567 213.74 Q491.085 213.601 489.881 213.277 Z" fill="#000000" fill-rule="nonzero" fill-opacity="1" /><path clip-path="url(#clip450)" d="M532.96 209.99 L523.585 222.606 L533.446 235.916 L528.423 235.916 L520.877 225.731 L513.33 235.916 L508.307 235.916 L518.377 222.351 L509.164 209.99 L514.187 209.99 L521.062 219.226 L527.937 209.99 L532.96 209.99 Z" fill="#000000" fill-rule="nonzero" fill-opacity="1" /><path clip-path="url(#clip450)" d="M555.089 214.388 L584.765 214.388 L584.765 218.277 L555.089 218.277 L555.089 214.388 M555.089 223.832 L584.765 223.832 L584.765 227.768 L555.089 227.768 L555.089 223.832 Z" fill="#000000" fill-rule="nonzero" fill-opacity="1" /><path clip-path="url(#clip450)" d="M619.927 204.434 Q616.316 204.434 614.487 207.999 Q612.682 211.541 612.682 218.67 Q612.682 225.777 614.487 229.342 Q616.316 232.883 619.927 232.883 Q623.561 232.883 625.367 229.342 Q627.196 225.777 627.196 218.67 Q627.196 211.541 625.367 207.999 Q623.561 204.434 619.927 204.434 M619.927 200.731 Q625.737 200.731 628.793 205.337 Q631.871 209.92 631.871 218.67 Q631.871 227.397 628.793 232.004 Q625.737 236.587 619.927 236.587 Q614.117 236.587 611.038 232.004 Q607.983 227.397 607.983 218.67 Q607.983 209.92 611.038 205.337 Q614.117 200.731 619.927 200.731 Z" fill="#000000" fill-rule="nonzero" fill-opacity="1" /><path clip-path="url(#clip450)" d="M640.089 230.036 L644.973 230.036 L644.973 235.916 L640.089 235.916 L640.089 230.036 Z" fill="#000000" fill-rule="nonzero" fill-opacity="1" /><path clip-path="url(#clip450)" d="M655.969 231.981 L663.607 231.981 L663.607 205.615 L655.297 207.282 L655.297 203.022 L663.561 201.356 L668.237 201.356 L668.237 231.981 L675.876 231.981 L675.876 235.916 L655.969 235.916 L655.969 231.981 Z" fill="#000000" fill-rule="nonzero" fill-opacity="1" /><polyline clip-path="url(#clip450)" style="stroke:#e26f46; stroke-linecap:round; stroke-linejoin:round; stroke-width:8; stroke-opacity:0.3; fill:none" points="314.661,270.476 456.854,270.476 "/>
<path clip-path="url(#clip450)" d="M501.178 257.733 Q498.817 256.112 493.284 256.112 Q487.428 256.112 487.428 258.821 Q487.428 260.95 493.539 262.061 Q498.354 262.918 501.062 265.51 Q504.349 268.635 504.349 275.047 Q504.349 281.182 501.178 284.793 Q498.006 288.427 492.451 288.427 Q486.918 288.427 483.724 284.793 Q480.553 281.182 480.553 274.816 Q480.553 270.094 483.724 266.274 Q484.951 264.793 486.687 263.96 Q483.076 262.131 483.076 258.867 Q483.076 252.571 493.284 252.571 Q498.4 252.571 501.178 254.191 L501.178 257.733 M489.881 265.117 Q488.307 265.788 487.034 267.478 Q485.043 270.094 485.043 274.816 Q485.043 279.515 487.011 282.154 Q489.002 284.816 492.451 284.816 Q495.854 284.816 497.844 282.131 Q499.835 279.446 499.835 275.047 Q499.835 270.441 497.729 268.219 Q495.483 265.835 492.567 265.58 Q491.085 265.441 489.881 265.117 Z" fill="#000000" fill-rule="nonzero" fill-opacity="1" /><path clip-path="url(#clip450)" d="M532.96 261.83 L523.585 274.446 L533.446 287.756 L528.423 287.756 L520.877 277.571 L513.33 287.756 L508.307 287.756 L518.377 274.191 L509.164 261.83 L514.187 261.83 L521.062 271.066 L527.937 261.83 L532.96 261.83 Z" fill="#000000" fill-rule="nonzero" fill-opacity="1" /><path clip-path="url(#clip450)" d="M555.089 266.228 L584.765 266.228 L584.765 270.117 L555.089 270.117 L555.089 266.228 M555.089 275.672 L584.765 275.672 L584.765 279.608 L555.089 279.608 L555.089 275.672 Z" fill="#000000" fill-rule="nonzero" fill-opacity="1" /><path clip-path="url(#clip450)" d="M619.927 256.274 Q616.316 256.274 614.487 259.839 Q612.682 263.381 612.682 270.51 Q612.682 277.617 614.487 281.182 Q616.316 284.723 619.927 284.723 Q623.561 284.723 625.367 281.182 Q627.196 277.617 627.196 270.51 Q627.196 263.381 625.367 259.839 Q623.561 256.274 619.927 256.274 M619.927 252.571 Q625.737 252.571 628.793 257.177 Q631.871 261.76 631.871 270.51 Q631.871 279.237 628.793 283.844 Q625.737 288.427 619.927 288.427 Q614.117 288.427 611.038 283.844 Q607.983 279.237 607.983 270.51 Q607.983 261.76 611.038 257.177 Q614.117 252.571 619.927 252.571 Z" fill="#000000" fill-rule="nonzero" fill-opacity="1" /><path clip-path="url(#clip450)" d="M640.089 281.876 L644.973 281.876 L644.973 287.756 L640.089 287.756 L640.089 281.876 Z" fill="#000000" fill-rule="nonzero" fill-opacity="1" /><path clip-path="url(#clip450)" d="M659.186 283.821 L675.505 283.821 L675.505 287.756 L653.561 287.756 L653.561 283.821 Q656.223 281.066 660.806 276.436 Q665.413 271.784 666.593 270.441 Q668.839 267.918 669.718 266.182 Q670.621 264.423 670.621 262.733 Q670.621 259.978 668.677 258.242 Q666.755 256.506 663.654 256.506 Q661.455 256.506 659.001 257.27 Q656.57 258.034 653.793 259.585 L653.793 254.862 Q656.617 253.728 659.07 253.149 Q661.524 252.571 663.561 252.571 Q668.931 252.571 672.126 255.256 Q675.32 257.941 675.32 262.432 Q675.32 264.561 674.51 266.483 Q673.723 268.381 671.617 270.973 Q671.038 271.645 667.936 274.862 Q664.834 278.057 659.186 283.821 Z" fill="#000000" fill-rule="nonzero" fill-opacity="1" /><polyline clip-path="url(#clip450)" style="stroke:#3da44d; stroke-linecap:round; stroke-linejoin:round; stroke-width:8; stroke-opacity:0.3; fill:none" points="314.661,322.316 456.854,322.316 "/>
<path clip-path="url(#clip450)" d="M501.178 309.573 Q498.817 307.952 493.284 307.952 Q487.428 307.952 487.428 310.661 Q487.428 312.79 493.539 313.901 Q498.354 314.758 501.062 317.35 Q504.349 320.475 504.349 326.887 Q504.349 333.022 501.178 336.633 Q498.006 340.267 492.451 340.267 Q486.918 340.267 483.724 336.633 Q480.553 333.022 480.553 326.656 Q480.553 321.934 483.724 318.114 Q484.951 316.633 486.687 315.8 Q483.076 313.971 483.076 310.707 Q483.076 304.411 493.284 304.411 Q498.4 304.411 501.178 306.031 L501.178 309.573 M489.881 316.957 Q488.307 317.628 487.034 319.318 Q485.043 321.934 485.043 326.656 Q485.043 331.355 487.011 333.994 Q489.002 336.656 492.451 336.656 Q495.854 336.656 497.844 333.971 Q499.835 331.286 499.835 326.887 Q499.835 322.281 497.729 320.059 Q495.483 317.675 492.567 317.42 Q491.085 317.281 489.881 316.957 Z" fill="#000000" fill-rule="nonzero" fill-opacity="1" /><path clip-path="url(#clip450)" d="M532.96 313.67 L523.585 326.286 L533.446 339.596 L528.423 339.596 L520.877 329.411 L513.33 339.596 L508.307 339.596 L518.377 326.031 L509.164 313.67 L514.187 313.67 L521.062 322.906 L527.937 313.67 L532.96 313.67 Z" fill="#000000" fill-rule="nonzero" fill-opacity="1" /><path clip-path="url(#clip450)" d="M555.089 318.068 L584.765 318.068 L584.765 321.957 L555.089 321.957 L555.089 318.068 M555.089 327.512 L584.765 327.512 L584.765 331.448 L555.089 331.448 L555.089 327.512 Z" fill="#000000" fill-rule="nonzero" fill-opacity="1" /><path clip-path="url(#clip450)" d="M619.927 308.114 Q616.316 308.114 614.487 311.679 Q612.682 315.221 612.682 322.35 Q612.682 329.457 614.487 333.022 Q616.316 336.563 619.927 336.563 Q623.561 336.563 625.367 333.022 Q627.196 329.457 627.196 322.35 Q627.196 315.221 625.367 311.679 Q623.561 308.114 619.927 308.114 M619.927 304.411 Q625.737 304.411 628.793 309.017 Q631.871 313.6 631.871 322.35 Q631.871 331.077 628.793 335.684 Q625.737 340.267 619.927 340.267 Q614.117 340.267 611.038 335.684 Q607.983 331.077 607.983 322.35 Q607.983 313.6 611.038 309.017 Q614.117 304.411 619.927 304.411 Z" fill="#000000" fill-rule="nonzero" fill-opacity="1" /><path clip-path="url(#clip450)" d="M640.089 333.716 L644.973 333.716 L644.973 339.596 L640.089 339.596 L640.089 333.716 Z" fill="#000000" fill-rule="nonzero" fill-opacity="1" /><path clip-path="url(#clip450)" d="M655.205 305.036 L673.561 305.036 L673.561 308.971 L659.487 308.971 L659.487 317.443 Q660.506 317.096 661.524 316.934 Q662.543 316.749 663.561 316.749 Q669.348 316.749 672.728 319.92 Q676.107 323.091 676.107 328.508 Q676.107 334.086 672.635 337.188 Q669.163 340.267 662.843 340.267 Q660.668 340.267 658.399 339.897 Q656.154 339.526 653.746 338.786 L653.746 334.086 Q655.83 335.221 658.052 335.776 Q660.274 336.332 662.751 336.332 Q666.755 336.332 669.093 334.225 Q671.431 332.119 671.431 328.508 Q671.431 324.897 669.093 322.79 Q666.755 320.684 662.751 320.684 Q660.876 320.684 659.001 321.1 Q657.149 321.517 655.205 322.397 L655.205 305.036 Z" fill="#000000" fill-rule="nonzero" fill-opacity="1" /><polyline clip-path="url(#clip450)" style="stroke:#c271d2; stroke-linecap:round; stroke-linejoin:round; stroke-width:8; stroke-opacity:0.3; fill:none" points="314.661,374.156 456.854,374.156 "/>
<path clip-path="url(#clip450)" d="M501.178 361.413 Q498.817 359.792 493.284 359.792 Q487.428 359.792 487.428 362.501 Q487.428 364.63 493.539 365.741 Q498.354 366.598 501.062 369.19 Q504.349 372.315 504.349 378.727 Q504.349 384.862 501.178 388.473 Q498.006 392.107 492.451 392.107 Q486.918 392.107 483.724 388.473 Q480.553 384.862 480.553 378.496 Q480.553 373.774 483.724 369.954 Q484.951 368.473 486.687 367.64 Q483.076 365.811 483.076 362.547 Q483.076 356.251 493.284 356.251 Q498.4 356.251 501.178 357.871 L501.178 361.413 M489.881 368.797 Q488.307 369.468 487.034 371.158 Q485.043 373.774 485.043 378.496 Q485.043 383.195 487.011 385.834 Q489.002 388.496 492.451 388.496 Q495.854 388.496 497.844 385.811 Q499.835 383.126 499.835 378.727 Q499.835 374.121 497.729 371.899 Q495.483 369.515 492.567 369.26 Q491.085 369.121 489.881 368.797 Z" fill="#000000" fill-rule="nonzero" fill-opacity="1" /><path clip-path="url(#clip450)" d="M532.96 365.51 L523.585 378.126 L533.446 391.436 L528.423 391.436 L520.877 381.251 L513.33 391.436 L508.307 391.436 L518.377 377.871 L509.164 365.51 L514.187 365.51 L521.062 374.746 L527.937 365.51 L532.96 365.51 Z" fill="#000000" fill-rule="nonzero" fill-opacity="1" /><path clip-path="url(#clip450)" d="M555.089 369.908 L584.765 369.908 L584.765 373.797 L555.089 373.797 L555.089 369.908 M555.089 379.352 L584.765 379.352 L584.765 383.288 L555.089 383.288 L555.089 379.352 Z" fill="#000000" fill-rule="nonzero" fill-opacity="1" /><path clip-path="url(#clip450)" d="M610.737 387.501 L618.376 387.501 L618.376 361.135 L610.066 362.802 L610.066 358.542 L618.33 356.876 L623.006 356.876 L623.006 387.501 L630.645 387.501 L630.645 391.436 L610.737 391.436 L610.737 387.501 Z" fill="#000000" fill-rule="nonzero" fill-opacity="1" /><path clip-path="url(#clip450)" d="M640.089 385.556 L644.973 385.556 L644.973 391.436 L640.089 391.436 L640.089 385.556 Z" fill="#000000" fill-rule="nonzero" fill-opacity="1" /><path clip-path="url(#clip450)" d="M665.158 359.954 Q661.547 359.954 659.718 363.519 Q657.913 367.061 657.913 374.19 Q657.913 381.297 659.718 384.862 Q661.547 388.403 665.158 388.403 Q668.793 388.403 670.598 384.862 Q672.427 381.297 672.427 374.19 Q672.427 367.061 670.598 363.519 Q668.793 359.954 665.158 359.954 M665.158 356.251 Q670.968 356.251 674.024 360.857 Q677.103 365.44 677.103 374.19 Q677.103 382.917 674.024 387.524 Q670.968 392.107 665.158 392.107 Q659.348 392.107 656.269 387.524 Q653.214 382.917 653.214 374.19 Q653.214 365.44 656.269 360.857 Q659.348 356.251 665.158 356.251 Z" fill="#000000" fill-rule="nonzero" fill-opacity="1" /></svg>
