<?xml version="1.0" encoding="utf-8"?>
<svg xmlns="http://www.w3.org/2000/svg" xmlns:xlink="http://www.w3.org/1999/xlink" width="600" height="400" viewBox="0 0 2400 1600">
<defs>
  <clipPath id="clip090">
    <rect x="0" y="0" width="2400" height="1600"/>
  </clipPath>
</defs>
<path clip-path="url(#clip090)" d="M0 1600 L2400 1600 L2400 8.88178e-14 L0 8.88178e-14  Z" fill="#ffffff" fill-rule="evenodd" fill-opacity="1"/>
<defs>
  <clipPath id="clip091">
    <rect x="480" y="0" width="1681" height="1600"/>
  </clipPath>
</defs>
<path clip-path="url(#clip090)" d="M249.542 1423.18 L2352.76 1423.18 L2352.76 123.472 L249.542 123.472  Z" fill="#ffffff" fill-rule="evenodd" fill-opacity="1"/>
<defs>
  <clipPath id="clip092">
    <rect x="249" y="123" width="2104" height="1301"/>
  </clipPath>
</defs>
<polyline clip-path="url(#clip092)" style="stroke:#000000; stroke-linecap:round; stroke-linejoin:round; stroke-width:2; stroke-opacity:0.1; fill:none" points="289.025,1423.18 289.025,123.472 "/>
<polyline clip-path="url(#clip092)" style="stroke:#000000; stroke-linecap:round; stroke-linejoin:round; stroke-width:2; stroke-opacity:0.1; fill:none" points="790.076,1423.18 790.076,123.472 "/>
<polyline clip-path="url(#clip092)" style="stroke:#000000; stroke-linecap:round; stroke-linejoin:round; stroke-width:2; stroke-opacity:0.1; fill:none" points="1291.13,1423.18 1291.13,123.472 "/>
<polyline clip-path="url(#clip092)" style="stroke:#000000; stroke-linecap:round; stroke-linejoin:round; stroke-width:2; stroke-opacity:0.1; fill:none" points="1792.18,1423.18 1792.18,123.472 "/>
<polyline clip-path="url(#clip092)" style="stroke:#000000; stroke-linecap:round; stroke-linejoin:round; stroke-width:2; stroke-opacity:0.1; fill:none" points="2293.23,1423.18 2293.23,123.472 "/>
<polyline clip-path="url(#clip090)" style="stroke:#000000; stroke-linecap:round; stroke-linejoin:round; stroke-width:4; stroke-opacity:1; fill:none" points="249.542,1423.18 2352.76,1423.18 "/>
<polyline clip-path="url(#clip090)" style="stroke:#000000; stroke-linecap:round; stroke-linejoin:round; stroke-width:4; stroke-opacity:1; fill:none" points="289.025,1423.18 289.025,1404.28 "/>
<polyline clip-path="url(#clip090)" style="stroke:#000000; stroke-linecap:round; stroke-linejoin:round; stroke-width:4; stroke-opacity:1; fill:none" points="790.076,1423.18 790.076,1404.28 "/>
<polyline clip-path="url(#clip090)" style="stroke:#000000; stroke-linecap:round; stroke-linejoin:round; stroke-width:4; stroke-opacity:1; fill:none" points="1291.13,1423.18 1291.13,1404.28 "/>
<polyline clip-path="url(#clip090)" style="stroke:#000000; stroke-linecap:round; stroke-linejoin:round; stroke-width:4; stroke-opacity:1; fill:none" points="1792.18,1423.18 1792.18,1404.28 "/>
<polyline clip-path="url(#clip090)" style="stroke:#000000; stroke-linecap:round; stroke-linejoin:round; stroke-width:4; stroke-opacity:1; fill:none" points="2293.23,1423.18 2293.23,1404.28 "/>
<path clip-path="url(#clip090)" d="M289.025 1454.1 Q285.414 1454.1 283.585 1457.66 Q281.78 1461.2 281.78 1468.33 Q281.78 1475.44 283.585 1479.01 Q285.414 1482.55 289.025 1482.55 Q292.659 1482.55 294.465 1479.01 Q296.293 1475.44 296.293 1468.33 Q296.293 1461.2 294.465 1457.66 Q292.659 1454.1 289.025 1454.1 M289.025 1450.39 Q294.835 1450.39 297.891 1455 Q300.969 1459.58 300.969 1468.33 Q300.969 1477.06 297.891 1481.67 Q294.835 1486.25 289.025 1486.25 Q283.215 1486.25 280.136 1481.67 Q277.081 1477.06 277.081 1468.33 Q277.081 1459.58 280.136 1455 Q283.215 1450.39 289.025 1450.39 Z" fill="#000000" fill-rule="nonzero" fill-opacity="1" /><path clip-path="url(#clip090)" d="M769.347 1481.64 L785.667 1481.64 L785.667 1485.58 L763.722 1485.58 L763.722 1481.64 Q766.384 1478.89 770.968 1474.26 Q775.574 1469.61 776.755 1468.27 Q779 1465.74 779.88 1464.01 Q780.782 1462.25 780.782 1460.56 Q780.782 1457.8 778.838 1456.07 Q776.917 1454.33 773.815 1454.33 Q771.616 1454.33 769.162 1455.09 Q766.732 1455.86 763.954 1457.41 L763.954 1452.69 Q766.778 1451.55 769.232 1450.97 Q771.685 1450.39 773.722 1450.39 Q779.093 1450.39 782.287 1453.08 Q785.482 1455.77 785.482 1460.26 Q785.482 1462.39 784.671 1464.31 Q783.884 1466.2 781.778 1468.8 Q781.199 1469.47 778.097 1472.69 Q774.995 1475.88 769.347 1481.64 Z" fill="#000000" fill-rule="nonzero" fill-opacity="1" /><path clip-path="url(#clip090)" d="M795.528 1451.02 L813.884 1451.02 L813.884 1454.96 L799.81 1454.96 L799.81 1463.43 Q800.829 1463.08 801.847 1462.92 Q802.866 1462.73 803.884 1462.73 Q809.671 1462.73 813.051 1465.9 Q816.43 1469.08 816.43 1474.49 Q816.43 1480.07 812.958 1483.17 Q809.486 1486.25 803.167 1486.25 Q800.991 1486.25 798.722 1485.88 Q796.477 1485.51 794.069 1484.77 L794.069 1480.07 Q796.153 1481.2 798.375 1481.76 Q800.597 1482.32 803.074 1482.32 Q807.079 1482.32 809.417 1480.21 Q811.755 1478.1 811.755 1474.49 Q811.755 1470.88 809.417 1468.77 Q807.079 1466.67 803.074 1466.67 Q801.199 1466.67 799.324 1467.08 Q797.472 1467.5 795.528 1468.38 L795.528 1451.02 Z" fill="#000000" fill-rule="nonzero" fill-opacity="1" /><path clip-path="url(#clip090)" d="M1265.83 1451.02 L1284.18 1451.02 L1284.18 1454.96 L1270.11 1454.96 L1270.11 1463.43 Q1271.13 1463.08 1272.15 1462.92 Q1273.17 1462.73 1274.18 1462.73 Q1279.97 1462.73 1283.35 1465.9 Q1286.73 1469.08 1286.73 1474.49 Q1286.73 1480.07 1283.26 1483.17 Q1279.79 1486.25 1273.47 1486.25 Q1271.29 1486.25 1269.02 1485.88 Q1266.78 1485.51 1264.37 1484.77 L1264.37 1480.07 Q1266.45 1481.2 1268.67 1481.76 Q1270.9 1482.32 1273.37 1482.32 Q1277.38 1482.32 1279.72 1480.21 Q1282.05 1478.1 1282.05 1474.49 Q1282.05 1470.88 1279.72 1468.77 Q1277.38 1466.67 1273.37 1466.67 Q1271.5 1466.67 1269.62 1467.08 Q1267.77 1467.5 1265.83 1468.38 L1265.83 1451.02 Z" fill="#000000" fill-rule="nonzero" fill-opacity="1" /><path clip-path="url(#clip090)" d="M1305.94 1454.1 Q1302.33 1454.1 1300.5 1457.66 Q1298.7 1461.2 1298.7 1468.33 Q1298.7 1475.44 1300.5 1479.01 Q1302.33 1482.55 1305.94 1482.55 Q1309.58 1482.55 1311.38 1479.01 Q1313.21 1475.44 1313.21 1468.33 Q1313.21 1461.2 1311.38 1457.66 Q1309.58 1454.1 1305.94 1454.1 M1305.94 1450.39 Q1311.75 1450.39 1314.81 1455 Q1317.89 1459.58 1317.89 1468.33 Q1317.89 1477.06 1314.81 1481.67 Q1311.75 1486.25 1305.94 1486.25 Q1300.13 1486.25 1297.05 1481.67 Q1294 1477.06 1294 1468.33 Q1294 1459.58 1297.05 1455 Q1300.13 1450.39 1305.94 1450.39 Z" fill="#000000" fill-rule="nonzero" fill-opacity="1" /><path clip-path="url(#clip090)" d="M1766.03 1451.02 L1788.26 1451.02 L1788.26 1453.01 L1775.71 1485.58 L1770.83 1485.58 L1782.63 1454.96 L1766.03 1454.96 L1766.03 1451.02 Z" fill="#000000" fill-rule="nonzero" fill-opacity="1" /><path clip-path="url(#clip090)" d="M1797.42 1451.02 L1815.78 1451.02 L1815.78 1454.96 L1801.7 1454.96 L1801.7 1463.43 Q1802.72 1463.08 1803.74 1462.92 Q1804.76 1462.73 1805.78 1462.73 Q1811.57 1462.73 1814.95 1465.9 Q1818.33 1469.08 1818.33 1474.49 Q1818.33 1480.07 1814.85 1483.17 Q1811.38 1486.25 1805.06 1486.25 Q1802.89 1486.25 1800.62 1485.88 Q1798.37 1485.51 1795.96 1484.77 L1795.96 1480.07 Q1798.05 1481.2 1800.27 1481.76 Q1802.49 1482.32 1804.97 1482.32 Q1808.97 1482.32 1811.31 1480.21 Q1813.65 1478.1 1813.65 1474.49 Q1813.65 1470.88 1811.31 1468.77 Q1808.97 1466.67 1804.97 1466.67 Q1803.09 1466.67 1801.22 1467.08 Q1799.37 1467.5 1797.42 1468.38 L1797.42 1451.02 Z" fill="#000000" fill-rule="nonzero" fill-opacity="1" /><path clip-path="url(#clip090)" d="M2252.84 1481.64 L2260.48 1481.64 L2260.48 1455.28 L2252.17 1456.95 L2252.17 1452.69 L2260.43 1451.02 L2265.11 1451.02 L2265.11 1481.64 L2272.74 1481.64 L2272.74 1485.58 L2252.84 1485.58 L2252.84 1481.64 Z" fill="#000000" fill-rule="nonzero" fill-opacity="1" /><path clip-path="url(#clip090)" d="M2292.19 1454.1 Q2288.58 1454.1 2286.75 1457.66 Q2284.94 1461.2 2284.94 1468.33 Q2284.94 1475.44 2286.75 1479.01 Q2288.58 1482.55 2292.19 1482.55 Q2295.82 1482.55 2297.63 1479.01 Q2299.46 1475.44 2299.46 1468.33 Q2299.46 1461.2 2297.63 1457.66 Q2295.82 1454.1 2292.19 1454.1 M2292.19 1450.39 Q2298 1450.39 2301.06 1455 Q2304.13 1459.58 2304.13 1468.33 Q2304.13 1477.06 2301.06 1481.67 Q2298 1486.25 2292.19 1486.25 Q2286.38 1486.25 2283.3 1481.67 Q2280.24 1477.06 2280.24 1468.33 Q2280.24 1459.58 2283.3 1455 Q2286.38 1450.39 2292.19 1450.39 Z" fill="#000000" fill-rule="nonzero" fill-opacity="1" /><path clip-path="url(#clip090)" d="M2322.35 1454.1 Q2318.74 1454.1 2316.91 1457.66 Q2315.11 1461.2 2315.11 1468.33 Q2315.11 1475.44 2316.91 1479.01 Q2318.74 1482.55 2322.35 1482.55 Q2325.99 1482.55 2327.79 1479.01 Q2329.62 1475.44 2329.62 1468.33 Q2329.62 1461.2 2327.79 1457.66 Q2325.99 1454.1 2322.35 1454.1 M2322.35 1450.39 Q2328.16 1450.39 2331.22 1455 Q2334.3 1459.58 2334.3 1468.33 Q2334.3 1477.06 2331.22 1481.67 Q2328.16 1486.25 2322.35 1486.25 Q2316.54 1486.25 2313.46 1481.67 Q2310.41 1477.06 2310.41 1468.33 Q2310.41 1459.58 2313.46 1455 Q2316.54 1450.39 2322.35 1450.39 Z" fill="#000000" fill-rule="nonzero" fill-opacity="1" /><path clip-path="url(#clip090)" d="M1240.31 1522.27 L1240.31 1532.4 L1252.37 1532.4 L1252.37 1536.95 L1240.31 1536.95 L1240.31 1556.3 Q1240.31 1560.66 1241.49 1561.9 Q1242.7 1563.14 1246.36 1563.14 L1252.37 1563.14 L1252.37 1568.04 L1246.36 1568.04 Q1239.58 1568.04 1237 1565.53 Q1234.42 1562.98 1234.42 1556.3 L1234.42 1536.95 L1230.12 1536.95 L1230.12 1532.4 L1234.42 1532.4 L1234.42 1522.27 L1240.31 1522.27 Z" fill="#000000" fill-rule="nonzero" fill-opacity="1" /><path clip-path="url(#clip090)" d="M1260.07 1532.4 L1265.93 1532.4 L1265.93 1568.04 L1260.07 1568.04 L1260.07 1532.4 M1260.07 1518.52 L1265.93 1518.52 L1265.93 1525.93 L1260.07 1525.93 L1260.07 1518.52 Z" fill="#000000" fill-rule="nonzero" fill-opacity="1" /><path clip-path="url(#clip090)" d="M1305.94 1539.24 Q1308.14 1535.29 1311.19 1533.41 Q1314.25 1531.54 1318.38 1531.54 Q1323.95 1531.54 1326.98 1535.45 Q1330 1539.33 1330 1546.53 L1330 1568.04 L1324.11 1568.04 L1324.11 1546.72 Q1324.11 1541.59 1322.3 1539.11 Q1320.48 1536.63 1316.76 1536.63 Q1312.21 1536.63 1309.57 1539.65 Q1306.93 1542.68 1306.93 1547.9 L1306.93 1568.04 L1301.04 1568.04 L1301.04 1546.72 Q1301.04 1541.56 1299.22 1539.11 Q1297.41 1536.63 1293.62 1536.63 Q1289.13 1536.63 1286.49 1539.68 Q1283.85 1542.71 1283.85 1547.9 L1283.85 1568.04 L1277.96 1568.04 L1277.96 1532.4 L1283.85 1532.4 L1283.85 1537.93 Q1285.86 1534.66 1288.66 1533.1 Q1291.46 1531.54 1295.31 1531.54 Q1299.19 1531.54 1301.9 1533.51 Q1304.63 1535.48 1305.94 1539.24 Z" fill="#000000" fill-rule="nonzero" fill-opacity="1" /><path clip-path="url(#clip090)" d="M1372.17 1548.76 L1372.17 1551.62 L1345.25 1551.62 Q1345.63 1557.67 1348.88 1560.85 Q1352.15 1564 1357.98 1564 Q1361.35 1564 1364.5 1563.17 Q1367.69 1562.35 1370.81 1560.69 L1370.81 1566.23 Q1367.65 1567.57 1364.34 1568.27 Q1361.03 1568.97 1357.63 1568.97 Q1349.1 1568.97 1344.1 1564 Q1339.14 1559.04 1339.14 1550.57 Q1339.14 1541.82 1343.85 1536.69 Q1348.59 1531.54 1356.61 1531.54 Q1363.8 1531.54 1367.97 1536.18 Q1372.17 1540.8 1372.17 1548.76 M1366.32 1547.04 Q1366.25 1542.23 1363.61 1539.37 Q1361 1536.5 1356.67 1536.5 Q1351.77 1536.5 1348.81 1539.27 Q1345.88 1542.04 1345.44 1547.07 L1366.32 1547.04 Z" fill="#000000" fill-rule="nonzero" fill-opacity="1" /><polyline clip-path="url(#clip092)" style="stroke:#000000; stroke-linecap:round; stroke-linejoin:round; stroke-width:2; stroke-opacity:0.1; fill:none" points="249.542,1365.09 2352.76,1365.09 "/>
<polyline clip-path="url(#clip092)" style="stroke:#000000; stroke-linecap:round; stroke-linejoin:round; stroke-width:2; stroke-opacity:0.1; fill:none" points="249.542,1069.98 2352.76,1069.98 "/>
<polyline clip-path="url(#clip092)" style="stroke:#000000; stroke-linecap:round; stroke-linejoin:round; stroke-width:2; stroke-opacity:0.1; fill:none" points="249.542,774.861 2352.76,774.861 "/>
<polyline clip-path="url(#clip092)" style="stroke:#000000; stroke-linecap:round; stroke-linejoin:round; stroke-width:2; stroke-opacity:0.1; fill:none" points="249.542,479.744 2352.76,479.744 "/>
<polyline clip-path="url(#clip092)" style="stroke:#000000; stroke-linecap:round; stroke-linejoin:round; stroke-width:2; stroke-opacity:0.1; fill:none" points="249.542,184.627 2352.76,184.627 "/>
<polyline clip-path="url(#clip090)" style="stroke:#000000; stroke-linecap:round; stroke-linejoin:round; stroke-width:4; stroke-opacity:1; fill:none" points="249.542,1423.18 249.542,123.472 "/>
<polyline clip-path="url(#clip090)" style="stroke:#000000; stroke-linecap:round; stroke-linejoin:round; stroke-width:4; stroke-opacity:1; fill:none" points="249.542,1365.09 268.44,1365.09 "/>
<polyline clip-path="url(#clip090)" style="stroke:#000000; stroke-linecap:round; stroke-linejoin:round; stroke-width:4; stroke-opacity:1; fill:none" points="249.542,1069.98 268.44,1069.98 "/>
<polyline clip-path="url(#clip090)" style="stroke:#000000; stroke-linecap:round; stroke-linejoin:round; stroke-width:4; stroke-opacity:1; fill:none" points="249.542,774.861 268.44,774.861 "/>
<polyline clip-path="url(#clip090)" style="stroke:#000000; stroke-linecap:round; stroke-linejoin:round; stroke-width:4; stroke-opacity:1; fill:none" points="249.542,479.744 268.44,479.744 "/>
<polyline clip-path="url(#clip090)" style="stroke:#000000; stroke-linecap:round; stroke-linejoin:round; stroke-width:4; stroke-opacity:1; fill:none" points="249.542,184.627 268.44,184.627 "/>
<path clip-path="url(#clip090)" d="M126.205 1350.89 Q122.593 1350.89 120.765 1354.46 Q118.959 1358 118.959 1365.13 Q118.959 1372.24 120.765 1375.8 Q122.593 1379.34 126.205 1379.34 Q129.839 1379.34 131.644 1375.8 Q133.473 1372.24 133.473 1365.13 Q133.473 1358 131.644 1354.46 Q129.839 1350.89 126.205 1350.89 M126.205 1347.19 Q132.015 1347.19 135.07 1351.8 Q138.149 1356.38 138.149 1365.13 Q138.149 1373.86 135.07 1378.46 Q132.015 1383.05 126.205 1383.05 Q120.394 1383.05 117.316 1378.46 Q114.26 1373.86 114.26 1365.13 Q114.26 1356.38 117.316 1351.8 Q120.394 1347.19 126.205 1347.19 Z" fill="#000000" fill-rule="nonzero" fill-opacity="1" /><path clip-path="url(#clip090)" d="M146.366 1376.49 L151.251 1376.49 L151.251 1382.37 L146.366 1382.37 L146.366 1376.49 Z" fill="#000000" fill-rule="nonzero" fill-opacity="1" /><path clip-path="url(#clip090)" d="M171.436 1350.89 Q167.825 1350.89 165.996 1354.46 Q164.19 1358 164.19 1365.13 Q164.19 1372.24 165.996 1375.8 Q167.825 1379.34 171.436 1379.34 Q175.07 1379.34 176.876 1375.8 Q178.704 1372.24 178.704 1365.13 Q178.704 1358 176.876 1354.46 Q175.07 1350.89 171.436 1350.89 M171.436 1347.19 Q177.246 1347.19 180.301 1351.8 Q183.38 1356.38 183.38 1365.13 Q183.38 1373.86 180.301 1378.46 Q177.246 1383.05 171.436 1383.05 Q165.626 1383.05 162.547 1378.46 Q159.491 1373.86 159.491 1365.13 Q159.491 1356.38 162.547 1351.8 Q165.626 1347.19 171.436 1347.19 Z" fill="#000000" fill-rule="nonzero" fill-opacity="1" /><path clip-path="url(#clip090)" d="M201.598 1350.89 Q197.987 1350.89 196.158 1354.46 Q194.352 1358 194.352 1365.13 Q194.352 1372.24 196.158 1375.8 Q197.987 1379.34 201.598 1379.34 Q205.232 1379.34 207.037 1375.8 Q208.866 1372.24 208.866 1365.13 Q208.866 1358 207.037 1354.46 Q205.232 1350.89 201.598 1350.89 M201.598 1347.19 Q207.408 1347.19 210.463 1351.8 Q213.542 1356.38 213.542 1365.13 Q213.542 1373.86 210.463 1378.46 Q207.408 1383.05 201.598 1383.05 Q195.787 1383.05 192.709 1378.46 Q189.653 1373.86 189.653 1365.13 Q189.653 1356.38 192.709 1351.8 Q195.787 1347.19 201.598 1347.19 Z" fill="#000000" fill-rule="nonzero" fill-opacity="1" /><path clip-path="url(#clip090)" d="M127.2 1055.78 Q123.589 1055.78 121.76 1059.34 Q119.955 1062.88 119.955 1070.01 Q119.955 1077.12 121.76 1080.68 Q123.589 1084.22 127.2 1084.22 Q130.834 1084.22 132.64 1080.68 Q134.468 1077.12 134.468 1070.01 Q134.468 1062.88 132.64 1059.34 Q130.834 1055.78 127.2 1055.78 M127.2 1052.07 Q133.01 1052.07 136.066 1056.68 Q139.144 1061.26 139.144 1070.01 Q139.144 1078.74 136.066 1083.35 Q133.01 1087.93 127.2 1087.93 Q121.39 1087.93 118.311 1083.35 Q115.256 1078.74 115.256 1070.01 Q115.256 1061.26 118.311 1056.68 Q121.39 1052.07 127.2 1052.07 Z" fill="#000000" fill-rule="nonzero" fill-opacity="1" /><path clip-path="url(#clip090)" d="M147.362 1081.38 L152.246 1081.38 L152.246 1087.26 L147.362 1087.26 L147.362 1081.38 Z" fill="#000000" fill-rule="nonzero" fill-opacity="1" /><path clip-path="url(#clip090)" d="M166.459 1083.32 L182.778 1083.32 L182.778 1087.26 L160.834 1087.26 L160.834 1083.32 Q163.496 1080.57 168.079 1075.94 Q172.686 1071.29 173.866 1069.94 Q176.112 1067.42 176.991 1065.68 Q177.894 1063.92 177.894 1062.23 Q177.894 1059.48 175.95 1057.74 Q174.028 1056.01 170.927 1056.01 Q168.727 1056.01 166.274 1056.77 Q163.843 1057.54 161.065 1059.09 L161.065 1054.36 Q163.89 1053.23 166.343 1052.65 Q168.797 1052.07 170.834 1052.07 Q176.204 1052.07 179.399 1054.76 Q182.593 1057.44 182.593 1061.93 Q182.593 1064.06 181.783 1065.98 Q180.996 1067.88 178.889 1070.47 Q178.311 1071.15 175.209 1074.36 Q172.107 1077.56 166.459 1083.32 Z" fill="#000000" fill-rule="nonzero" fill-opacity="1" /><path clip-path="url(#clip090)" d="M192.639 1052.7 L210.996 1052.7 L210.996 1056.63 L196.922 1056.63 L196.922 1065.1 Q197.94 1064.76 198.959 1064.6 Q199.977 1064.41 200.996 1064.41 Q206.783 1064.41 210.162 1067.58 Q213.542 1070.75 213.542 1076.17 Q213.542 1081.75 210.07 1084.85 Q206.598 1087.93 200.278 1087.93 Q198.102 1087.93 195.834 1087.56 Q193.588 1087.19 191.181 1086.45 L191.181 1081.75 Q193.264 1082.88 195.487 1083.44 Q197.709 1083.99 200.186 1083.99 Q204.19 1083.99 206.528 1081.89 Q208.866 1079.78 208.866 1076.17 Q208.866 1072.56 206.528 1070.45 Q204.19 1068.35 200.186 1068.35 Q198.311 1068.35 196.436 1068.76 Q194.584 1069.18 192.639 1070.06 L192.639 1052.7 Z" fill="#000000" fill-rule="nonzero" fill-opacity="1" /><path clip-path="url(#clip090)" d="M126.205 760.659 Q122.593 760.659 120.765 764.224 Q118.959 767.766 118.959 774.895 Q118.959 782.002 120.765 785.567 Q122.593 789.108 126.205 789.108 Q129.839 789.108 131.644 785.567 Q133.473 782.002 133.473 774.895 Q133.473 767.766 131.644 764.224 Q129.839 760.659 126.205 760.659 M126.205 756.956 Q132.015 756.956 135.07 761.562 Q138.149 766.145 138.149 774.895 Q138.149 783.622 135.07 788.229 Q132.015 792.812 126.205 792.812 Q120.394 792.812 117.316 788.229 Q114.26 783.622 114.26 774.895 Q114.26 766.145 117.316 761.562 Q120.394 756.956 126.205 756.956 Z" fill="#000000" fill-rule="nonzero" fill-opacity="1" /><path clip-path="url(#clip090)" d="M146.366 786.261 L151.251 786.261 L151.251 792.141 L146.366 792.141 L146.366 786.261 Z" fill="#000000" fill-rule="nonzero" fill-opacity="1" /><path clip-path="url(#clip090)" d="M161.482 757.581 L179.839 757.581 L179.839 761.516 L165.765 761.516 L165.765 769.988 Q166.783 769.641 167.802 769.479 Q168.82 769.293 169.839 769.293 Q175.626 769.293 179.005 772.465 Q182.385 775.636 182.385 781.053 Q182.385 786.631 178.913 789.733 Q175.44 792.812 169.121 792.812 Q166.945 792.812 164.677 792.442 Q162.431 792.071 160.024 791.33 L160.024 786.631 Q162.107 787.766 164.329 788.321 Q166.552 788.877 169.028 788.877 Q173.033 788.877 175.371 786.77 Q177.709 784.664 177.709 781.053 Q177.709 777.442 175.371 775.335 Q173.033 773.229 169.028 773.229 Q167.153 773.229 165.278 773.645 Q163.427 774.062 161.482 774.942 L161.482 757.581 Z" fill="#000000" fill-rule="nonzero" fill-opacity="1" /><path clip-path="url(#clip090)" d="M201.598 760.659 Q197.987 760.659 196.158 764.224 Q194.352 767.766 194.352 774.895 Q194.352 782.002 196.158 785.567 Q197.987 789.108 201.598 789.108 Q205.232 789.108 207.037 785.567 Q208.866 782.002 208.866 774.895 Q208.866 767.766 207.037 764.224 Q205.232 760.659 201.598 760.659 M201.598 756.956 Q207.408 756.956 210.463 761.562 Q213.542 766.145 213.542 774.895 Q213.542 783.622 210.463 788.229 Q207.408 792.812 201.598 792.812 Q195.787 792.812 192.709 788.229 Q189.653 783.622 189.653 774.895 Q189.653 766.145 192.709 761.562 Q195.787 756.956 201.598 756.956 Z" fill="#000000" fill-rule="nonzero" fill-opacity="1" /><path clip-path="url(#clip090)" d="M127.2 465.543 Q123.589 465.543 121.76 469.107 Q119.955 472.649 119.955 479.779 Q119.955 486.885 121.76 490.45 Q123.589 493.992 127.2 493.992 Q130.834 493.992 132.64 490.45 Q134.468 486.885 134.468 479.779 Q134.468 472.649 132.64 469.107 Q130.834 465.543 127.2 465.543 M127.2 461.839 Q133.01 461.839 136.066 466.445 Q139.144 471.029 139.144 479.779 Q139.144 488.505 136.066 493.112 Q133.01 497.695 127.2 497.695 Q121.39 497.695 118.311 493.112 Q115.256 488.505 115.256 479.779 Q115.256 471.029 118.311 466.445 Q121.39 461.839 127.2 461.839 Z" fill="#000000" fill-rule="nonzero" fill-opacity="1" /><path clip-path="url(#clip090)" d="M147.362 491.144 L152.246 491.144 L152.246 497.024 L147.362 497.024 L147.362 491.144 Z" fill="#000000" fill-rule="nonzero" fill-opacity="1" /><path clip-path="url(#clip090)" d="M161.251 462.464 L183.473 462.464 L183.473 464.455 L170.927 497.024 L166.042 497.024 L177.848 466.399 L161.251 466.399 L161.251 462.464 Z" fill="#000000" fill-rule="nonzero" fill-opacity="1" /><path clip-path="url(#clip090)" d="M192.639 462.464 L210.996 462.464 L210.996 466.399 L196.922 466.399 L196.922 474.871 Q197.94 474.524 198.959 474.362 Q199.977 474.177 200.996 474.177 Q206.783 474.177 210.162 477.348 Q213.542 480.519 213.542 485.936 Q213.542 491.515 210.07 494.617 Q206.598 497.695 200.278 497.695 Q198.102 497.695 195.834 497.325 Q193.588 496.954 191.181 496.214 L191.181 491.515 Q193.264 492.649 195.487 493.204 Q197.709 493.76 200.186 493.76 Q204.19 493.76 206.528 491.654 Q208.866 489.547 208.866 485.936 Q208.866 482.325 206.528 480.218 Q204.19 478.112 200.186 478.112 Q198.311 478.112 196.436 478.529 Q194.584 478.945 192.639 479.825 L192.639 462.464 Z" fill="#000000" fill-rule="nonzero" fill-opacity="1" /><path clip-path="url(#clip090)" d="M117.015 197.972 L124.654 197.972 L124.654 171.606 L116.343 173.273 L116.343 169.014 L124.607 167.347 L129.283 167.347 L129.283 197.972 L136.922 197.972 L136.922 201.907 L117.015 201.907 L117.015 197.972 Z" fill="#000000" fill-rule="nonzero" fill-opacity="1" /><path clip-path="url(#clip090)" d="M146.366 196.028 L151.251 196.028 L151.251 201.907 L146.366 201.907 L146.366 196.028 Z" fill="#000000" fill-rule="nonzero" fill-opacity="1" /><path clip-path="url(#clip090)" d="M171.436 170.426 Q167.825 170.426 165.996 173.991 Q164.19 177.532 164.19 184.662 Q164.19 191.768 165.996 195.333 Q167.825 198.875 171.436 198.875 Q175.07 198.875 176.876 195.333 Q178.704 191.768 178.704 184.662 Q178.704 177.532 176.876 173.991 Q175.07 170.426 171.436 170.426 M171.436 166.722 Q177.246 166.722 180.301 171.329 Q183.38 175.912 183.38 184.662 Q183.38 193.389 180.301 197.995 Q177.246 202.579 171.436 202.579 Q165.626 202.579 162.547 197.995 Q159.491 193.389 159.491 184.662 Q159.491 175.912 162.547 171.329 Q165.626 166.722 171.436 166.722 Z" fill="#000000" fill-rule="nonzero" fill-opacity="1" /><path clip-path="url(#clip090)" d="M201.598 170.426 Q197.987 170.426 196.158 173.991 Q194.352 177.532 194.352 184.662 Q194.352 191.768 196.158 195.333 Q197.987 198.875 201.598 198.875 Q205.232 198.875 207.037 195.333 Q208.866 191.768 208.866 184.662 Q208.866 177.532 207.037 173.991 Q205.232 170.426 201.598 170.426 M201.598 166.722 Q207.408 166.722 210.463 171.329 Q213.542 175.912 213.542 184.662 Q213.542 193.389 210.463 197.995 Q207.408 202.579 201.598 202.579 Q195.787 202.579 192.709 197.995 Q189.653 193.389 189.653 184.662 Q189.653 175.912 192.709 171.329 Q195.787 166.722 201.598 166.722 Z" fill="#000000" fill-rule="nonzero" fill-opacity="1" /><path clip-path="url(#clip090)" d="M28.3562 756.711 L45.7028 769.602 L64.0042 756.043 L64.0042 762.95 L49.9996 773.326 L64.0042 783.702 L64.0042 790.609 L45.3526 776.763 L28.3562 789.431 L28.3562 782.524 L41.0558 773.071 L28.3562 763.618 L28.3562 756.711 Z" fill="#000000" fill-rule="nonzero" fill-opacity="1" /><path clip-path="url(#clip090)" d="M545.615 12.096 L577.738 12.096 L577.738 18.9825 L553.109 18.9825 L553.109 33.8088 Q554.891 33.2012 556.674 32.9176 Q558.456 32.5936 560.239 32.5936 Q570.366 32.5936 576.28 38.1433 Q582.194 43.6931 582.194 53.1722 Q582.194 62.9348 576.118 68.3631 Q570.042 73.7508 558.983 73.7508 Q555.175 73.7508 551.205 73.1026 Q547.276 72.4545 543.063 71.1582 L543.063 62.9348 Q546.709 64.9198 550.597 65.892 Q554.486 66.8642 558.821 66.8642 Q565.829 66.8642 569.92 63.1779 Q574.012 59.4916 574.012 53.1722 Q574.012 46.8528 569.92 43.1664 Q565.829 39.4801 558.821 39.4801 Q555.54 39.4801 552.258 40.2093 Q549.018 40.9384 545.615 42.4778 L545.615 12.096 Z" fill="#000000" fill-rule="nonzero" fill-opacity="1" /><path clip-path="url(#clip090)" d="M615.817 17.4837 Q609.498 17.4837 606.297 23.7221 Q603.138 29.92 603.138 42.3968 Q603.138 54.833 606.297 61.0714 Q609.498 67.2693 615.817 67.2693 Q622.177 67.2693 625.337 61.0714 Q628.537 54.833 628.537 42.3968 Q628.537 29.92 625.337 23.7221 Q622.177 17.4837 615.817 17.4837 M615.817 11.0023 Q625.985 11.0023 631.332 19.0636 Q636.72 27.0843 636.72 42.3968 Q636.72 57.6687 631.332 65.73 Q625.985 73.7508 615.817 73.7508 Q605.649 73.7508 600.262 65.73 Q594.914 57.6687 594.914 42.3968 Q594.914 27.0843 600.262 19.0636 Q605.649 11.0023 615.817 11.0023 Z" fill="#000000" fill-rule="nonzero" fill-opacity="1" /><path clip-path="url(#clip090)" d="M668.6 17.4837 Q662.281 17.4837 659.081 23.7221 Q655.921 29.92 655.921 42.3968 Q655.921 54.833 659.081 61.0714 Q662.281 67.2693 668.6 67.2693 Q674.96 67.2693 678.12 61.0714 Q681.32 54.833 681.32 42.3968 Q681.32 29.92 678.12 23.7221 Q674.96 17.4837 668.6 17.4837 M668.6 11.0023 Q678.768 11.0023 684.115 19.0636 Q689.503 27.0843 689.503 42.3968 Q689.503 57.6687 684.115 65.73 Q678.768 73.7508 668.6 73.7508 Q658.433 73.7508 653.045 65.73 Q647.698 57.6687 647.698 42.3968 Q647.698 27.0843 653.045 19.0636 Q658.433 11.0023 668.6 11.0023 Z" fill="#000000" fill-rule="nonzero" fill-opacity="1" /><path clip-path="url(#clip090)" d="M721.384 17.4837 Q715.064 17.4837 711.864 23.7221 Q708.704 29.92 708.704 42.3968 Q708.704 54.833 711.864 61.0714 Q715.064 67.2693 721.384 67.2693 Q727.743 67.2693 730.903 61.0714 Q734.103 54.833 734.103 42.3968 Q734.103 29.92 730.903 23.7221 Q727.743 17.4837 721.384 17.4837 M721.384 11.0023 Q731.551 11.0023 736.899 19.0636 Q742.286 27.0843 742.286 42.3968 Q742.286 57.6687 736.899 65.73 Q731.551 73.7508 721.384 73.7508 Q711.216 73.7508 705.828 65.73 Q700.481 57.6687 700.481 42.3968 Q700.481 27.0843 705.828 19.0636 Q711.216 11.0023 721.384 11.0023 Z" fill="#000000" fill-rule="nonzero" fill-opacity="1" /><path clip-path="url(#clip090)" d="M818.565 14.0809 L818.565 22.0612 Q813.906 19.8332 809.774 18.7395 Q805.642 17.6457 801.794 17.6457 Q795.11 17.6457 791.464 20.2383 Q787.859 22.8309 787.859 27.611 Q787.859 31.6214 790.249 33.6873 Q792.679 35.7128 799.404 36.9686 L804.346 37.9813 Q813.501 39.7232 817.836 44.1387 Q822.211 48.5136 822.211 55.8863 Q822.211 64.6767 816.296 69.2137 Q810.422 73.7508 799.039 73.7508 Q794.745 73.7508 789.884 72.7785 Q785.064 71.8063 779.879 69.9024 L779.879 61.4765 Q784.861 64.2716 789.641 65.6895 Q794.421 67.1073 799.039 67.1073 Q806.047 67.1073 809.855 64.3527 Q813.663 61.598 813.663 56.4939 Q813.663 52.0379 810.909 49.5264 Q808.194 47.0148 801.956 45.759 L796.973 44.7868 Q787.818 42.9639 783.727 39.075 Q779.636 35.1862 779.636 28.2591 Q779.636 20.2383 785.266 15.6203 Q790.938 11.0023 800.862 11.0023 Q805.116 11.0023 809.531 11.7719 Q813.947 12.5416 818.565 14.0809 Z" fill="#000000" fill-rule="nonzero" fill-opacity="1" /><path clip-path="url(#clip090)" d="M855.266 49.7694 Q846.232 49.7694 842.749 51.8354 Q839.265 53.9013 839.265 58.8839 Q839.265 62.8538 841.857 65.2034 Q844.491 67.5124 848.987 67.5124 Q855.185 67.5124 858.912 63.1374 Q862.679 58.7219 862.679 51.4303 L862.679 49.7694 L855.266 49.7694 M870.133 46.6907 L870.133 72.576 L862.679 72.576 L862.679 65.6895 Q860.127 69.8214 856.319 71.8063 Q852.511 73.7508 847.002 73.7508 Q840.035 73.7508 835.903 69.8619 Q831.811 65.9325 831.811 59.3701 Q831.811 51.7138 836.915 47.825 Q842.06 43.9361 852.228 43.9361 L862.679 43.9361 L862.679 43.2069 Q862.679 38.0623 859.276 35.2672 Q855.914 32.4315 849.797 32.4315 Q845.908 32.4315 842.222 33.3632 Q838.536 34.295 835.133 36.1584 L835.133 29.2718 Q839.224 27.692 843.073 26.9223 Q846.921 26.1121 850.567 26.1121 Q860.411 26.1121 865.272 31.2163 Q870.133 36.3204 870.133 46.6907 Z" fill="#000000" fill-rule="nonzero" fill-opacity="1" /><path clip-path="url(#clip090)" d="M920.81 35.9153 Q923.605 30.8922 927.494 28.5022 Q931.382 26.1121 936.649 26.1121 Q943.738 26.1121 947.586 31.0947 Q951.434 36.0368 951.434 45.1919 L951.434 72.576 L943.94 72.576 L943.94 45.4349 Q943.94 38.913 941.631 35.7533 Q939.322 32.5936 934.583 32.5936 Q928.79 32.5936 925.428 36.4419 Q922.065 40.2903 922.065 46.9338 L922.065 72.576 L914.571 72.576 L914.571 45.4349 Q914.571 38.8725 912.262 35.7533 Q909.953 32.5936 905.133 32.5936 Q899.421 32.5936 896.059 36.4824 Q892.696 40.3308 892.696 46.9338 L892.696 72.576 L885.202 72.576 L885.202 27.2059 L892.696 27.2059 L892.696 34.2544 Q895.248 30.082 898.813 28.0971 Q902.378 26.1121 907.28 26.1121 Q912.222 26.1121 915.665 28.6237 Q919.149 31.1352 920.81 35.9153 Z" fill="#000000" fill-rule="nonzero" fill-opacity="1" /><path clip-path="url(#clip090)" d="M973.512 65.7705 L973.512 89.8329 L966.018 89.8329 L966.018 27.2059 L973.512 27.2059 L973.512 34.0924 Q975.861 30.0415 979.426 28.0971 Q983.031 26.1121 988.014 26.1121 Q996.278 26.1121 1001.42 32.6746 Q1006.61 39.2371 1006.61 49.9314 Q1006.61 60.6258 1001.42 67.1883 Q996.278 73.7508 988.014 73.7508 Q983.031 73.7508 979.426 71.8063 Q975.861 69.8214 973.512 65.7705 M998.87 49.9314 Q998.87 41.7081 995.468 37.0496 Q992.105 32.3505 986.191 32.3505 Q980.277 32.3505 976.874 37.0496 Q973.512 41.7081 973.512 49.9314 Q973.512 58.1548 976.874 62.8538 Q980.277 67.5124 986.191 67.5124 Q992.105 67.5124 995.468 62.8538 Q998.87 58.1548 998.87 49.9314 Z" fill="#000000" fill-rule="nonzero" fill-opacity="1" /><path clip-path="url(#clip090)" d="M1018.96 9.54393 L1026.42 9.54393 L1026.42 72.576 L1018.96 72.576 L1018.96 9.54393 Z" fill="#000000" fill-rule="nonzero" fill-opacity="1" /><path clip-path="url(#clip090)" d="M1080.82 48.0275 L1080.82 51.6733 L1046.55 51.6733 Q1047.04 59.3701 1051.17 63.421 Q1055.34 67.4314 1062.75 67.4314 Q1067.05 67.4314 1071.06 66.3781 Q1075.11 65.3249 1079.08 63.2184 L1079.08 70.267 Q1075.07 71.9684 1070.86 72.8596 Q1066.64 73.7508 1062.31 73.7508 Q1051.45 73.7508 1045.09 67.4314 Q1038.77 61.1119 1038.77 50.3365 Q1038.77 39.1965 1044.77 32.6746 Q1050.8 26.1121 1061.01 26.1121 Q1070.17 26.1121 1075.47 32.0264 Q1080.82 37.9003 1080.82 48.0275 M1073.37 45.84 Q1073.29 39.7232 1069.92 36.0774 Q1066.6 32.4315 1061.09 32.4315 Q1054.85 32.4315 1051.09 35.9558 Q1047.36 39.4801 1046.79 45.8805 L1073.37 45.84 Z" fill="#000000" fill-rule="nonzero" fill-opacity="1" /><path clip-path="url(#clip090)" d="M1119.75 12.096 L1131.94 12.096 L1147.38 53.2532 L1162.89 12.096 L1175.08 12.096 L1175.08 72.576 L1167.1 72.576 L1167.1 19.4686 L1151.51 60.9499 L1143.29 60.9499 L1127.69 19.4686 L1127.69 72.576 L1119.75 72.576 L1119.75 12.096 Z" fill="#000000" fill-rule="nonzero" fill-opacity="1" /><path clip-path="url(#clip090)" d="M1229.81 48.0275 L1229.81 51.6733 L1195.54 51.6733 Q1196.03 59.3701 1200.16 63.421 Q1204.33 67.4314 1211.75 67.4314 Q1216.04 67.4314 1220.05 66.3781 Q1224.1 65.3249 1228.07 63.2184 L1228.07 70.267 Q1224.06 71.9684 1219.85 72.8596 Q1215.63 73.7508 1211.3 73.7508 Q1200.44 73.7508 1194.08 67.4314 Q1187.76 61.1119 1187.76 50.3365 Q1187.76 39.1965 1193.76 32.6746 Q1199.8 26.1121 1210 26.1121 Q1219.16 26.1121 1224.47 32.0264 Q1229.81 37.9003 1229.81 48.0275 M1222.36 45.84 Q1222.28 39.7232 1218.92 36.0774 Q1215.59 32.4315 1210.08 32.4315 Q1203.85 32.4315 1200.08 35.9558 Q1196.35 39.4801 1195.78 45.8805 L1222.36 45.84 Z" fill="#000000" fill-rule="nonzero" fill-opacity="1" /><path clip-path="url(#clip090)" d="M1262.67 49.7694 Q1253.63 49.7694 1250.15 51.8354 Q1246.66 53.9013 1246.66 58.8839 Q1246.66 62.8538 1249.26 65.2034 Q1251.89 67.5124 1256.39 67.5124 Q1262.58 67.5124 1266.31 63.1374 Q1270.08 58.7219 1270.08 51.4303 L1270.08 49.7694 L1262.67 49.7694 M1277.53 46.6907 L1277.53 72.576 L1270.08 72.576 L1270.08 65.6895 Q1267.53 69.8214 1263.72 71.8063 Q1259.91 73.7508 1254.4 73.7508 Q1247.43 73.7508 1243.3 69.8619 Q1239.21 65.9325 1239.21 59.3701 Q1239.21 51.7138 1244.31 47.825 Q1249.46 43.9361 1259.63 43.9361 L1270.08 43.9361 L1270.08 43.2069 Q1270.08 38.0623 1266.68 35.2672 Q1263.31 32.4315 1257.2 32.4315 Q1253.31 32.4315 1249.62 33.3632 Q1245.94 34.295 1242.53 36.1584 L1242.53 29.2718 Q1246.62 27.692 1250.47 26.9223 Q1254.32 26.1121 1257.97 26.1121 Q1267.81 26.1121 1272.67 31.2163 Q1277.53 36.3204 1277.53 46.6907 Z" fill="#000000" fill-rule="nonzero" fill-opacity="1" /><path clip-path="url(#clip090)" d="M1330.6 45.1919 L1330.6 72.576 L1323.15 72.576 L1323.15 45.4349 Q1323.15 38.994 1320.63 35.7938 Q1318.12 32.5936 1313.1 32.5936 Q1307.06 32.5936 1303.58 36.4419 Q1300.1 40.2903 1300.1 46.9338 L1300.1 72.576 L1292.6 72.576 L1292.6 27.2059 L1300.1 27.2059 L1300.1 34.2544 Q1302.77 30.163 1306.37 28.1376 Q1310.02 26.1121 1314.76 26.1121 Q1322.58 26.1121 1326.59 30.9732 Q1330.6 35.7938 1330.6 45.1919 Z" fill="#000000" fill-rule="nonzero" fill-opacity="1" /><path clip-path="url(#clip090)" d="M1392.46 49.7694 Q1383.42 49.7694 1379.94 51.8354 Q1376.46 53.9013 1376.46 58.8839 Q1376.46 62.8538 1379.05 65.2034 Q1381.68 67.5124 1386.18 67.5124 Q1392.38 67.5124 1396.1 63.1374 Q1399.87 58.7219 1399.87 51.4303 L1399.87 49.7694 L1392.46 49.7694 M1407.32 46.6907 L1407.32 72.576 L1399.87 72.576 L1399.87 65.6895 Q1397.32 69.8214 1393.51 71.8063 Q1389.7 73.7508 1384.19 73.7508 Q1377.22 73.7508 1373.09 69.8619 Q1369 65.9325 1369 59.3701 Q1369 51.7138 1374.11 47.825 Q1379.25 43.9361 1389.42 43.9361 L1399.87 43.9361 L1399.87 43.2069 Q1399.87 38.0623 1396.47 35.2672 Q1393.1 32.4315 1386.99 32.4315 Q1383.1 32.4315 1379.41 33.3632 Q1375.73 34.295 1372.32 36.1584 L1372.32 29.2718 Q1376.41 27.692 1380.26 26.9223 Q1384.11 26.1121 1387.76 26.1121 Q1397.6 26.1121 1402.46 31.2163 Q1407.32 36.3204 1407.32 46.6907 Z" fill="#000000" fill-rule="nonzero" fill-opacity="1" /><path clip-path="url(#clip090)" d="M1460.39 45.1919 L1460.39 72.576 L1452.94 72.576 L1452.94 45.4349 Q1452.94 38.994 1450.42 35.7938 Q1447.91 32.5936 1442.89 32.5936 Q1436.85 32.5936 1433.37 36.4419 Q1429.89 40.2903 1429.89 46.9338 L1429.89 72.576 L1422.39 72.576 L1422.39 27.2059 L1429.89 27.2059 L1429.89 34.2544 Q1432.56 30.163 1436.17 28.1376 Q1439.81 26.1121 1444.55 26.1121 Q1452.37 26.1121 1456.38 30.9732 Q1460.39 35.7938 1460.39 45.1919 Z" fill="#000000" fill-rule="nonzero" fill-opacity="1" /><path clip-path="url(#clip090)" d="M1505.11 34.0924 L1505.11 9.54393 L1512.57 9.54393 L1512.57 72.576 L1505.11 72.576 L1505.11 65.7705 Q1502.76 69.8214 1499.16 71.8063 Q1495.59 73.7508 1490.57 73.7508 Q1482.35 73.7508 1477.16 67.1883 Q1472.02 60.6258 1472.02 49.9314 Q1472.02 39.2371 1477.16 32.6746 Q1482.35 26.1121 1490.57 26.1121 Q1495.59 26.1121 1499.16 28.0971 Q1502.76 30.0415 1505.11 34.0924 M1479.71 49.9314 Q1479.71 58.1548 1483.08 62.8538 Q1486.48 67.5124 1492.39 67.5124 Q1498.31 67.5124 1501.71 62.8538 Q1505.11 58.1548 1505.11 49.9314 Q1505.11 41.7081 1501.71 37.0496 Q1498.31 32.3505 1492.39 32.3505 Q1486.48 32.3505 1483.08 37.0496 Q1479.71 41.7081 1479.71 49.9314 Z" fill="#000000" fill-rule="nonzero" fill-opacity="1" /><path clip-path="url(#clip090)" d="M1590.87 14.0809 L1590.87 22.0612 Q1586.21 19.8332 1582.08 18.7395 Q1577.95 17.6457 1574.1 17.6457 Q1567.41 17.6457 1563.77 20.2383 Q1560.16 22.8309 1560.16 27.611 Q1560.16 31.6214 1562.55 33.6873 Q1564.98 35.7128 1571.71 36.9686 L1576.65 37.9813 Q1585.81 39.7232 1590.14 44.1387 Q1594.52 48.5136 1594.52 55.8863 Q1594.52 64.6767 1588.6 69.2137 Q1582.73 73.7508 1571.34 73.7508 Q1567.05 73.7508 1562.19 72.7785 Q1557.37 71.8063 1552.18 69.9024 L1552.18 61.4765 Q1557.17 64.2716 1561.95 65.6895 Q1566.73 67.1073 1571.34 67.1073 Q1578.35 67.1073 1582.16 64.3527 Q1585.97 61.598 1585.97 56.4939 Q1585.97 52.0379 1583.21 49.5264 Q1580.5 47.0148 1574.26 45.759 L1569.28 44.7868 Q1560.12 42.9639 1556.03 39.075 Q1551.94 35.1862 1551.94 28.2591 Q1551.94 20.2383 1557.57 15.6203 Q1563.24 11.0023 1573.17 11.0023 Q1577.42 11.0023 1581.84 11.7719 Q1586.25 12.5416 1590.87 14.0809 Z" fill="#000000" fill-rule="nonzero" fill-opacity="1" /><path clip-path="url(#clip090)" d="M1614.32 14.324 L1614.32 27.2059 L1629.68 27.2059 L1629.68 32.9987 L1614.32 32.9987 L1614.32 57.6282 Q1614.32 63.1779 1615.82 64.7578 Q1617.36 66.3376 1622.02 66.3376 L1629.68 66.3376 L1629.68 72.576 L1622.02 72.576 Q1613.39 72.576 1610.11 69.3758 Q1606.83 66.1351 1606.83 57.6282 L1606.83 32.9987 L1601.36 32.9987 L1601.36 27.2059 L1606.83 27.2059 L1606.83 14.324 L1614.32 14.324 Z" fill="#000000" fill-rule="nonzero" fill-opacity="1" /><path clip-path="url(#clip090)" d="M1669.34 34.0924 L1669.34 9.54393 L1676.79 9.54393 L1676.79 72.576 L1669.34 72.576 L1669.34 65.7705 Q1666.99 69.8214 1663.38 71.8063 Q1659.82 73.7508 1654.79 73.7508 Q1646.57 73.7508 1641.38 67.1883 Q1636.24 60.6258 1636.24 49.9314 Q1636.24 39.2371 1641.38 32.6746 Q1646.57 26.1121 1654.79 26.1121 Q1659.82 26.1121 1663.38 28.0971 Q1666.99 30.0415 1669.34 34.0924 M1643.94 49.9314 Q1643.94 58.1548 1647.3 62.8538 Q1650.7 67.5124 1656.62 67.5124 Q1662.53 67.5124 1665.93 62.8538 Q1669.34 58.1548 1669.34 49.9314 Q1669.34 41.7081 1665.93 37.0496 Q1662.53 32.3505 1656.62 32.3505 Q1650.7 32.3505 1647.3 37.0496 Q1643.94 41.7081 1643.94 49.9314 Z" fill="#000000" fill-rule="nonzero" fill-opacity="1" /><path clip-path="url(#clip090)" d="M1693.2 62.2867 L1701.74 62.2867 L1701.74 72.576 L1693.2 72.576 L1693.2 62.2867 Z" fill="#000000" fill-rule="nonzero" fill-opacity="1" /><path clip-path="url(#clip090)" d="M1720.42 62.2867 L1728.96 62.2867 L1728.96 69.2543 L1722.32 82.2172 L1717.1 82.2172 L1720.42 69.2543 L1720.42 62.2867 Z" fill="#000000" fill-rule="nonzero" fill-opacity="1" /><path clip-path="url(#clip090)" d="M1804.11 20.0358 Q1799.98 17.2001 1790.3 17.2001 Q1780.05 17.2001 1780.05 21.9397 Q1780.05 25.6665 1790.74 27.611 Q1799.17 29.1098 1803.91 33.6468 Q1809.66 39.1155 1809.66 50.3365 Q1809.66 61.0714 1804.11 67.3908 Q1798.56 73.7508 1788.84 73.7508 Q1779.16 73.7508 1773.57 67.3908 Q1768.02 61.0714 1768.02 49.9314 Q1768.02 41.6676 1773.57 34.9836 Q1775.71 32.391 1778.75 30.9327 Q1772.43 27.7325 1772.43 22.0207 Q1772.43 11.0023 1790.3 11.0023 Q1799.25 11.0023 1804.11 13.8379 L1804.11 20.0358 M1784.34 32.9582 Q1781.59 34.1329 1779.36 37.0901 Q1775.87 41.6676 1775.87 49.9314 Q1775.87 58.1548 1779.32 62.7728 Q1782.8 67.4314 1788.84 67.4314 Q1794.79 67.4314 1798.28 62.7323 Q1801.76 58.0333 1801.76 50.3365 Q1801.76 42.2752 1798.07 38.3864 Q1794.14 34.2139 1789.04 33.7683 Q1786.45 33.5253 1784.34 32.9582 Z" fill="#000000" fill-rule="nonzero" fill-opacity="1" /><path clip-path="url(#clip090)" d="M1859.73 27.2059 L1843.32 49.2833 L1860.58 72.576 L1851.79 72.576 L1838.58 54.752 L1825.38 72.576 L1816.59 72.576 L1834.21 48.8377 L1818.08 27.2059 L1826.88 27.2059 L1838.91 43.369 L1850.94 27.2059 L1859.73 27.2059 Z" fill="#000000" fill-rule="nonzero" fill-opacity="1" /><path clip-path="url(#clip090)" d="M1872.08 34.9026 L1924.02 34.9026 L1924.02 41.7081 L1872.08 41.7081 L1872.08 34.9026 M1872.08 51.4303 L1924.02 51.4303 L1924.02 58.3168 L1872.08 58.3168 L1872.08 51.4303 Z" fill="#000000" fill-rule="nonzero" fill-opacity="1" /><path clip-path="url(#clip090)" d="M1943.1 65.6895 L1956.46 65.6895 L1956.46 19.5497 L1941.92 22.4663 L1941.92 15.0127 L1956.38 12.096 L1964.57 12.096 L1964.57 65.6895 L1977.93 65.6895 L1977.93 72.576 L1943.1 72.576 L1943.1 65.6895 Z" fill="#000000" fill-rule="nonzero" fill-opacity="1" /><path clip-path="url(#clip090)" d="M1994.46 62.2867 L2003.01 62.2867 L2003.01 72.576 L1994.46 72.576 L1994.46 62.2867 Z" fill="#000000" fill-rule="nonzero" fill-opacity="1" /><path clip-path="url(#clip090)" d="M2038.33 17.4837 Q2032.01 17.4837 2028.81 23.7221 Q2025.65 29.92 2025.65 42.3968 Q2025.65 54.833 2028.81 61.0714 Q2032.01 67.2693 2038.33 67.2693 Q2044.69 67.2693 2047.85 61.0714 Q2051.05 54.833 2051.05 42.3968 Q2051.05 29.92 2047.85 23.7221 Q2044.69 17.4837 2038.33 17.4837 M2038.33 11.0023 Q2048.5 11.0023 2053.85 19.0636 Q2059.24 27.0843 2059.24 42.3968 Q2059.24 57.6687 2053.85 65.73 Q2048.5 73.7508 2038.33 73.7508 Q2028.16 73.7508 2022.78 65.73 Q2017.43 57.6687 2017.43 42.3968 Q2017.43 27.0843 2022.78 19.0636 Q2028.16 11.0023 2038.33 11.0023 Z" fill="#000000" fill-rule="nonzero" fill-opacity="1" /><path clip-path="url(#clip092)" d="M309.067 1367.74 L329.109 1370.11 L349.151 1381.44 L369.193 1377.66 L389.235 1371.29 L409.277 1377.42 L429.319 1370.58 L449.361 1368.69 L469.403 1362.31 L489.446 1356.88 L509.488 1359.48 L529.53 1375.06 L549.572 1352.87 L569.614 1361.13 L589.656 1359.72 L609.698 1362.31 L629.74 1371.29 L649.782 1362.31 L669.824 1376.01 L689.866 1368.69 L709.908 1372.47 L729.95 1373.65 L749.992 1365.15 L770.034 1376.48 L790.076 1365.86 L810.118 1359.48 L830.161 1362.08 L850.203 1366.33 L870.245 1351.69 L890.287 1367.27 L910.329 1357.59 L930.371 1361.13 L950.413 1369.4 L970.455 1362.55 L990.497 1356.65 L1010.54 1383.56 L1030.58 1370.34 L1050.62 1367.51 L1070.67 1386.4 L1090.71 1360.19 L1110.75 1366.33 L1130.79 1371.76 L1150.83 1373.65 L1170.88 1360.66 L1190.92 1364.44 L1210.96 1363.49 L1231 1357.59 L1251.04 1342.48 L1271.09 1361.61 L1291.13 1340.83 L1311.17 1372.23 L1331.21 1374.12 L1351.25 1371.76 L1371.3 1366.8 L1391.34 1376.24 L1411.38 1377.9 L1431.42 1374.35 L1451.46 1378.6 L1471.51 1365.15 L1491.55 1358.3 L1511.59 1365.62 L1531.63 1352.87 L1551.67 1369.63 L1571.72 1356.65 L1591.76 1352.63 L1611.8 1363.02 L1631.84 1368.92 L1651.89 1359.01 L1671.93 1369.16 L1691.97 1381.67 L1712.01 1365.38 L1732.05 1376.48 L1752.1 1376.72 L1772.14 1372.47 L1792.18 1365.38 L1812.22 1360.43 L1832.26 1358.54 L1852.31 1358.77 L1872.35 1357.83 L1892.39 1376.24 L1912.43 1366.33 L1932.47 1363.73 L1952.52 1363.26 L1972.56 1368.22 L1992.6 1361.84 L2012.64 1366.09 L2032.68 1371.76 L2052.73 1369.4 L2072.77 1373.88 L2092.81 1378.37 L2112.85 1360.9 L2132.89 1361.61 L2152.94 1355.94 L2172.98 1361.61 L2193.02 1356.65 L2213.06 1364.68 L2233.1 1354.29 L2253.15 1346.97 L2273.19 1355.7 L2293.23 1354.29 L2293.23 173.714 L2273.19 175.13 L2253.15 166.395 L2233.1 173.714 L2213.06 184.102 L2193.02 176.075 L2172.98 181.033 L2152.94 175.366 L2132.89 181.033 L2112.85 180.324 L2092.81 197.795 L2072.77 193.309 L2052.73 188.824 L2032.68 191.185 L2012.64 185.518 L1992.6 181.269 L1972.56 187.643 L1952.52 182.685 L1932.47 183.157 L1912.43 185.754 L1892.39 195.67 L1872.35 177.255 L1852.31 178.199 L1832.26 177.963 L1812.22 179.852 L1792.18 184.81 L1772.14 191.893 L1752.1 196.142 L1732.05 195.906 L1712.01 184.81 L1691.97 201.1 L1671.93 188.588 L1651.89 178.435 L1631.84 188.351 L1611.8 182.449 L1591.76 172.061 L1571.72 176.075 L1551.67 189.06 L1531.63 172.297 L1511.59 185.046 L1491.55 177.727 L1471.51 184.574 L1451.46 198.031 L1431.42 193.782 L1411.38 197.323 L1391.34 195.67 L1371.3 186.227 L1351.25 191.185 L1331.21 193.545 L1311.17 191.657 L1291.13 160.256 L1271.09 181.033 L1251.04 161.909 L1231 177.019 L1210.96 182.921 L1190.92 183.866 L1170.88 180.088 L1150.83 193.073 L1130.79 191.185 L1110.75 185.754 L1090.71 179.616 L1070.67 205.822 L1050.62 186.935 L1030.58 189.768 L1010.54 202.989 L990.497 176.075 L970.455 181.977 L950.413 188.824 L930.371 180.56 L910.329 177.019 L890.287 186.699 L870.245 171.117 L850.203 185.754 L830.161 181.505 L810.118 178.908 L790.076 185.282 L770.034 195.906 L749.992 184.574 L729.95 193.073 L709.908 191.893 L689.866 188.115 L669.824 195.434 L649.782 181.741 L629.74 190.712 L609.698 181.741 L589.656 179.144 L569.614 180.56 L549.572 172.297 L529.53 194.49 L509.488 178.908 L489.446 176.311 L469.403 181.741 L449.361 188.115 L429.319 190.004 L409.277 196.851 L389.235 190.712 L369.193 197.087 L349.151 200.864 L329.109 189.532 L309.067 187.171  Z" fill="#009af9" fill-rule="evenodd" fill-opacity="0.5"/>
<polyline clip-path="url(#clip092)" style="stroke:#009af9; stroke-linecap:round; stroke-linejoin:round; stroke-width:8; stroke-opacity:0.8; fill:none" points="309.067,777.458 329.109,779.819 349.151,791.151 369.193,787.374 389.235,780.999 409.277,787.137 429.319,780.291 449.361,778.402 469.403,772.027 489.446,766.597 509.488,769.194 529.53,784.777 549.572,762.584 569.614,770.847 589.656,769.43 609.698,772.027 629.74,780.999 649.782,772.027 669.824,785.721 689.866,778.402 709.908,782.179 729.95,783.36 749.992,774.861 770.034,786.193 790.076,775.569 810.118,769.194 830.161,771.791 850.203,776.041 870.245,761.403 890.287,776.985 910.329,767.306 930.371,770.847 950.413,779.11 970.455,772.264 990.497,766.361 1010.54,793.276 1030.58,780.055 1050.62,777.222 1070.67,796.109 1090.71,769.903 1110.75,776.041 1130.79,781.471 1150.83,783.36 1170.88,770.375 1190.92,774.152 1210.96,773.208 1231,767.306 1251.04,752.196 1271.09,771.319 1291.13,750.543 1311.17,781.943 1331.21,783.832 1351.25,781.471 1371.3,776.513 1391.34,785.957 1411.38,787.61 1431.42,784.068 1451.46,788.318 1471.51,774.861 1491.55,768.014 1511.59,775.333 1531.63,762.584 1551.67,779.346 1571.72,766.361 1591.76,762.348 1611.8,772.736 1631.84,778.638 1651.89,768.722 1671.93,778.874 1691.97,791.387 1712.01,775.097 1732.05,786.193 1752.1,786.429 1772.14,782.179 1792.18,775.097 1812.22,770.139 1832.26,768.25 1852.31,768.486 1872.35,767.542 1892.39,785.957 1912.43,776.041 1932.47,773.444 1952.52,772.972 1972.56,777.93 1992.6,771.555 2012.64,775.805 2032.68,781.471 2052.73,779.11 2072.77,783.596 2092.81,788.082 2112.85,770.611 2132.89,771.319 2152.94,765.653 2172.98,771.319 2193.02,766.361 2213.06,774.388 2233.1,764 2253.15,756.681 2273.19,765.417 2293.23,764 "/>
<path clip-path="url(#clip092)" d="M309.067 964.55 L329.109 964.352 L349.151 964.121 L369.193 963.767 L389.235 963.361 L409.277 963.086 L429.319 963.064 L449.361 963.262 L469.403 963.523 L489.446 963.732 L509.488 963.942 L529.53 964.265 L549.572 964.673 L569.614 964.998 L589.656 965.087 L609.698 964.931 L629.74 964.671 L649.782 964.447 L669.824 964.249 L689.866 963.959 L709.908 963.56 L729.95 963.196 L749.992 963.041 L770.034 963.144 L790.076 963.395 L810.118 963.634 L830.161 963.828 L850.203 964.087 L870.245 964.467 L890.287 964.858 L910.329 965.077 L930.371 965.034 L950.413 964.803 L970.455 964.55 L990.497 964.352 L1010.54 964.121 L1030.58 963.767 L1050.62 963.361 L1070.67 963.086 L1090.71 963.064 L1110.75 963.262 L1130.79 963.523 L1150.83 963.732 L1170.88 963.942 L1190.92 964.265 L1210.96 964.673 L1231 964.998 L1251.04 965.087 L1271.09 964.931 L1291.13 964.671 L1311.17 964.447 L1331.21 964.249 L1351.25 963.959 L1371.3 963.56 L1391.34 963.196 L1411.38 963.041 L1431.42 963.144 L1451.46 963.395 L1471.51 963.634 L1491.55 963.828 L1511.59 964.087 L1531.63 964.467 L1551.67 964.858 L1571.72 965.077 L1591.76 965.034 L1611.8 964.803 L1631.84 964.55 L1651.89 964.352 L1671.93 964.121 L1691.97 963.767 L1712.01 963.361 L1732.05 963.086 L1752.1 963.064 L1772.14 963.262 L1792.18 963.523 L1812.22 963.732 L1832.26 963.942 L1852.31 964.265 L1872.35 964.673 L1892.39 964.998 L1912.43 965.087 L1932.47 964.931 L1952.52 964.671 L1972.56 964.447 L1992.6 964.249 L2012.64 963.959 L2032.68 963.56 L2052.73 963.196 L2072.77 963.041 L2092.81 963.144 L2112.85 963.395 L2132.89 963.634 L2152.94 963.828 L2172.98 964.087 L2193.02 964.467 L2213.06 964.858 L2233.1 965.077 L2253.15 965.034 L2273.19 964.803 L2293.23 964.55 L2293.23 586.363 L2273.19 586.616 L2253.15 586.847 L2233.1 586.89 L2213.06 586.671 L2193.02 586.28 L2172.98 585.9 L2152.94 585.641 L2132.89 585.447 L2112.85 585.208 L2092.81 584.957 L2072.77 584.854 L2052.73 585.009 L2032.68 585.373 L2012.64 585.772 L1992.6 586.062 L1972.56 586.26 L1952.52 586.484 L1932.47 586.744 L1912.43 586.9 L1892.39 586.811 L1872.35 586.486 L1852.31 586.078 L1832.26 585.755 L1812.22 585.545 L1792.18 585.336 L1772.14 585.075 L1752.1 584.877 L1732.05 584.899 L1712.01 585.174 L1691.97 585.58 L1671.93 585.934 L1651.89 586.165 L1631.84 586.363 L1611.8 586.616 L1591.76 586.847 L1571.72 586.89 L1551.67 586.671 L1531.63 586.28 L1511.59 585.9 L1491.55 585.641 L1471.51 585.447 L1451.46 585.208 L1431.42 584.957 L1411.38 584.854 L1391.34 585.009 L1371.3 585.373 L1351.25 585.772 L1331.21 586.062 L1311.17 586.26 L1291.13 586.484 L1271.09 586.744 L1251.04 586.9 L1231 586.811 L1210.96 586.486 L1190.92 586.078 L1170.88 585.755 L1150.83 585.545 L1130.79 585.336 L1110.75 585.075 L1090.71 584.877 L1070.67 584.899 L1050.62 585.174 L1030.58 585.58 L1010.54 585.934 L990.497 586.165 L970.455 586.363 L950.413 586.616 L930.371 586.847 L910.329 586.89 L890.287 586.671 L870.245 586.28 L850.203 585.9 L830.161 585.641 L810.118 585.447 L790.076 585.208 L770.034 584.957 L749.992 584.854 L729.95 585.009 L709.908 585.373 L689.866 585.772 L669.824 586.062 L649.782 586.26 L629.74 586.484 L609.698 586.744 L589.656 586.9 L569.614 586.811 L549.572 586.486 L529.53 586.078 L509.488 585.755 L489.446 585.545 L469.403 585.336 L449.361 585.075 L429.319 584.877 L409.277 584.899 L389.235 585.174 L369.193 585.58 L349.151 585.934 L329.109 586.165 L309.067 586.363  Z" fill="#e26f46" fill-rule="evenodd" fill-opacity="0.5"/>
<polyline clip-path="url(#clip092)" style="stroke:#e26f46; stroke-linecap:round; stroke-linejoin:round; stroke-width:8; stroke-opacity:0.8; fill:none" points="309.067,775.457 329.109,775.258 349.151,775.027 369.193,774.673 389.235,774.268 409.277,773.992 429.319,773.97 449.361,774.169 469.403,774.429 489.446,774.638 509.488,774.849 529.53,775.171 549.572,775.58 569.614,775.905 589.656,775.993 609.698,775.838 629.74,775.577 649.782,775.353 669.824,775.155 689.866,774.866 709.908,774.466 729.95,774.103 749.992,773.947 770.034,774.05 790.076,774.301 810.118,774.541 830.161,774.735 850.203,774.993 870.245,775.374 890.287,775.764 910.329,775.983 930.371,775.94 950.413,775.709 970.455,775.457 990.497,775.258 1010.54,775.027 1030.58,774.673 1050.62,774.268 1070.67,773.992 1090.71,773.97 1110.75,774.169 1130.79,774.429 1150.83,774.638 1170.88,774.849 1190.92,775.171 1210.96,775.58 1231,775.905 1251.04,775.993 1271.09,775.838 1291.13,775.577 1311.17,775.353 1331.21,775.155 1351.25,774.866 1371.3,774.466 1391.34,774.103 1411.38,773.947 1431.42,774.05 1451.46,774.301 1471.51,774.541 1491.55,774.735 1511.59,774.993 1531.63,775.374 1551.67,775.764 1571.72,775.983 1591.76,775.94 1611.8,775.709 1631.84,775.457 1651.89,775.258 1671.93,775.027 1691.97,774.673 1712.01,774.268 1732.05,773.992 1752.1,773.97 1772.14,774.169 1792.18,774.429 1812.22,774.638 1832.26,774.849 1852.31,775.171 1872.35,775.58 1892.39,775.905 1912.43,775.993 1932.47,775.838 1952.52,775.577 1972.56,775.353 1992.6,775.155 2012.64,774.866 2032.68,774.466 2052.73,774.103 2072.77,773.947 2092.81,774.05 2112.85,774.301 2132.89,774.541 2152.94,774.735 2172.98,774.993 2193.02,775.374 2213.06,775.764 2233.1,775.983 2253.15,775.94 2273.19,775.709 2293.23,775.457 "/>
<path clip-path="url(#clip090)" d="M1569.02 322.316 L2282.65 322.316 L2282.65 166.796 L1569.02 166.796  Z" fill="#ffffff" fill-rule="evenodd" fill-opacity="1"/>
<polyline clip-path="url(#clip090)" style="stroke:#000000; stroke-linecap:round; stroke-linejoin:round; stroke-width:4; stroke-opacity:1; fill:none" points="1569.02,322.316 2282.65,322.316 2282.65,166.796 1569.02,166.796 1569.02,322.316 "/>
<polyline clip-path="url(#clip090)" style="stroke:#009af9; stroke-linecap:round; stroke-linejoin:round; stroke-width:8; stroke-opacity:0.8; fill:none" points="1592.39,218.636 1732.6,218.636 "/>
<path clip-path="url(#clip090)" d="M1755.97 201.356 L1762.94 201.356 L1771.76 224.874 L1780.62 201.356 L1787.59 201.356 L1787.59 235.916 L1783.03 235.916 L1783.03 205.569 L1774.12 229.272 L1769.42 229.272 L1760.51 205.569 L1760.51 235.916 L1755.97 235.916 L1755.97 201.356 Z" fill="#000000" fill-rule="nonzero" fill-opacity="1" /><path clip-path="url(#clip090)" d="M1801.55 205.198 L1801.55 218.184 L1807.43 218.184 Q1810.69 218.184 1812.48 216.495 Q1814.26 214.805 1814.26 211.68 Q1814.26 208.578 1812.48 206.888 Q1810.69 205.198 1807.43 205.198 L1801.55 205.198 M1796.87 201.356 L1807.43 201.356 Q1813.24 201.356 1816.2 203.995 Q1819.19 206.61 1819.19 211.68 Q1819.19 216.795 1816.2 219.411 Q1813.24 222.027 1807.43 222.027 L1801.55 222.027 L1801.55 235.916 L1796.87 235.916 L1796.87 201.356 Z" fill="#000000" fill-rule="nonzero" fill-opacity="1" /><path clip-path="url(#clip090)" d="M1846.18 202.49 L1846.18 207.05 Q1843.52 205.777 1841.16 205.152 Q1838.8 204.527 1836.6 204.527 Q1832.78 204.527 1830.69 206.008 Q1828.63 207.49 1828.63 210.221 Q1828.63 212.513 1830 213.694 Q1831.39 214.851 1835.23 215.569 L1838.06 216.147 Q1843.29 217.143 1845.76 219.666 Q1848.26 222.166 1848.26 226.379 Q1848.26 231.402 1844.88 233.994 Q1841.53 236.587 1835.02 236.587 Q1832.57 236.587 1829.79 236.031 Q1827.04 235.476 1824.07 234.388 L1824.07 229.573 Q1826.92 231.17 1829.65 231.981 Q1832.38 232.791 1835.02 232.791 Q1839.03 232.791 1841.2 231.217 Q1843.38 229.643 1843.38 226.726 Q1843.38 224.18 1841.81 222.744 Q1840.25 221.309 1836.69 220.592 L1833.84 220.036 Q1828.61 218.995 1826.27 216.772 Q1823.93 214.55 1823.93 210.592 Q1823.93 206.008 1827.15 203.37 Q1830.39 200.731 1836.06 200.731 Q1838.49 200.731 1841.02 201.171 Q1843.54 201.61 1846.18 202.49 Z" fill="#000000" fill-rule="nonzero" fill-opacity="1" /><path clip-path="url(#clip090)" d="M1875.3 205.198 L1875.3 232.073 L1880.95 232.073 Q1888.1 232.073 1891.41 228.832 Q1894.74 225.592 1894.74 218.601 Q1894.74 211.657 1891.41 208.439 Q1888.1 205.198 1880.95 205.198 L1875.3 205.198 M1870.62 201.356 L1880.23 201.356 Q1890.28 201.356 1894.98 205.546 Q1899.68 209.712 1899.68 218.601 Q1899.68 227.536 1894.95 231.726 Q1890.23 235.916 1880.23 235.916 L1870.62 235.916 L1870.62 201.356 Z" fill="#000000" fill-rule="nonzero" fill-opacity="1" /><path clip-path="url(#clip090)" d="M1906.94 209.99 L1911.2 209.99 L1911.2 235.916 L1906.94 235.916 L1906.94 209.99 M1906.94 199.897 L1911.2 199.897 L1911.2 205.291 L1906.94 205.291 L1906.94 199.897 Z" fill="#000000" fill-rule="nonzero" fill-opacity="1" /><path clip-path="url(#clip090)" d="M1936.64 210.754 L1936.64 214.782 Q1934.84 213.856 1932.89 213.393 Q1930.95 212.93 1928.86 212.93 Q1925.69 212.93 1924.1 213.902 Q1922.52 214.874 1922.52 216.819 Q1922.52 218.3 1923.66 219.157 Q1924.79 219.99 1928.22 220.754 L1929.68 221.078 Q1934.21 222.05 1936.11 223.832 Q1938.03 225.592 1938.03 228.763 Q1938.03 232.374 1935.16 234.481 Q1932.31 236.587 1927.31 236.587 Q1925.23 236.587 1922.96 236.17 Q1920.72 235.777 1918.22 234.967 L1918.22 230.569 Q1920.58 231.795 1922.87 232.42 Q1925.16 233.022 1927.41 233.022 Q1930.42 233.022 1932.04 232.004 Q1933.66 230.962 1933.66 229.087 Q1933.66 227.351 1932.48 226.425 Q1931.32 225.499 1927.36 224.643 L1925.88 224.295 Q1921.92 223.462 1920.16 221.749 Q1918.4 220.013 1918.4 217.004 Q1918.4 213.346 1920.99 211.356 Q1923.59 209.365 1928.36 209.365 Q1930.72 209.365 1932.8 209.712 Q1934.88 210.059 1936.64 210.754 Z" fill="#000000" fill-rule="nonzero" fill-opacity="1" /><path clip-path="url(#clip090)" d="M1949.03 202.629 L1949.03 209.99 L1957.8 209.99 L1957.8 213.3 L1949.03 213.3 L1949.03 227.374 Q1949.03 230.545 1949.88 231.448 Q1950.76 232.351 1953.42 232.351 L1957.8 232.351 L1957.8 235.916 L1953.42 235.916 Q1948.49 235.916 1946.62 234.087 Q1944.74 232.235 1944.74 227.374 L1944.74 213.3 L1941.62 213.3 L1941.62 209.99 L1944.74 209.99 L1944.74 202.629 L1949.03 202.629 Z" fill="#000000" fill-rule="nonzero" fill-opacity="1" /><path clip-path="url(#clip090)" d="M1978.42 213.971 Q1977.71 213.555 1976.85 213.37 Q1976.02 213.161 1975 213.161 Q1971.39 213.161 1969.44 215.522 Q1967.52 217.86 1967.52 222.258 L1967.52 235.916 L1963.24 235.916 L1963.24 209.99 L1967.52 209.99 L1967.52 214.018 Q1968.86 211.657 1971.02 210.522 Q1973.17 209.365 1976.25 209.365 Q1976.69 209.365 1977.22 209.434 Q1977.75 209.481 1978.4 209.596 L1978.42 213.971 Z" fill="#000000" fill-rule="nonzero" fill-opacity="1" /><path clip-path="url(#clip090)" d="M1982.89 209.99 L1987.15 209.99 L1987.15 235.916 L1982.89 235.916 L1982.89 209.99 M1982.89 199.897 L1987.15 199.897 L1987.15 205.291 L1982.89 205.291 L1982.89 199.897 Z" fill="#000000" fill-rule="nonzero" fill-opacity="1" /><path clip-path="url(#clip090)" d="M2014.67 222.976 Q2014.67 218.277 2012.73 215.615 Q2010.81 212.93 2007.43 212.93 Q2004.05 212.93 2002.11 215.615 Q2000.18 218.277 2000.18 222.976 Q2000.18 227.675 2002.11 230.36 Q2004.05 233.022 2007.43 233.022 Q2010.81 233.022 2012.73 230.36 Q2014.67 227.675 2014.67 222.976 M2000.18 213.925 Q2001.53 211.61 2003.56 210.499 Q2005.62 209.365 2008.47 209.365 Q2013.19 209.365 2016.13 213.115 Q2019.1 216.865 2019.1 222.976 Q2019.1 229.087 2016.13 232.837 Q2013.19 236.587 2008.47 236.587 Q2005.62 236.587 2003.56 235.476 Q2001.53 234.342 2000.18 232.027 L2000.18 235.916 L1995.9 235.916 L1995.9 199.897 L2000.18 199.897 L2000.18 213.925 Z" fill="#000000" fill-rule="nonzero" fill-opacity="1" /><path clip-path="url(#clip090)" d="M2025.72 225.684 L2025.72 209.99 L2029.98 209.99 L2029.98 225.522 Q2029.98 229.203 2031.41 231.055 Q2032.85 232.883 2035.72 232.883 Q2039.17 232.883 2041.16 230.684 Q2043.17 228.485 2043.17 224.689 L2043.17 209.99 L2047.43 209.99 L2047.43 235.916 L2043.17 235.916 L2043.17 231.934 Q2041.62 234.295 2039.56 235.453 Q2037.52 236.587 2034.81 236.587 Q2030.35 236.587 2028.03 233.809 Q2025.72 231.031 2025.72 225.684 M2036.43 209.365 L2036.43 209.365 Z" fill="#000000" fill-rule="nonzero" fill-opacity="1" /><path clip-path="url(#clip090)" d="M2060.42 202.629 L2060.42 209.99 L2069.19 209.99 L2069.19 213.3 L2060.42 213.3 L2060.42 227.374 Q2060.42 230.545 2061.27 231.448 Q2062.15 232.351 2064.81 232.351 L2069.19 232.351 L2069.19 235.916 L2064.81 235.916 Q2059.88 235.916 2058.01 234.087 Q2056.13 232.235 2056.13 227.374 L2056.13 213.3 L2053.01 213.3 L2053.01 209.99 L2056.13 209.99 L2056.13 202.629 L2060.42 202.629 Z" fill="#000000" fill-rule="nonzero" fill-opacity="1" /><path clip-path="url(#clip090)" d="M2074.79 209.99 L2079.05 209.99 L2079.05 235.916 L2074.79 235.916 L2074.79 209.99 M2074.79 199.897 L2079.05 199.897 L2079.05 205.291 L2074.79 205.291 L2074.79 199.897 Z" fill="#000000" fill-rule="nonzero" fill-opacity="1" /><path clip-path="url(#clip090)" d="M2098.01 212.976 Q2094.58 212.976 2092.59 215.661 Q2090.6 218.323 2090.6 222.976 Q2090.6 227.629 2092.57 230.314 Q2094.56 232.976 2098.01 232.976 Q2101.41 232.976 2103.4 230.291 Q2105.39 227.606 2105.39 222.976 Q2105.39 218.37 2103.4 215.684 Q2101.41 212.976 2098.01 212.976 M2098.01 209.365 Q2103.56 209.365 2106.73 212.976 Q2109.91 216.587 2109.91 222.976 Q2109.91 229.342 2106.73 232.976 Q2103.56 236.587 2098.01 236.587 Q2092.43 236.587 2089.26 232.976 Q2086.11 229.342 2086.11 222.976 Q2086.11 216.587 2089.26 212.976 Q2092.43 209.365 2098.01 209.365 Z" fill="#000000" fill-rule="nonzero" fill-opacity="1" /><path clip-path="url(#clip090)" d="M2138.52 220.268 L2138.52 235.916 L2134.26 235.916 L2134.26 220.407 Q2134.26 216.726 2132.82 214.897 Q2131.39 213.069 2128.52 213.069 Q2125.07 213.069 2123.08 215.268 Q2121.09 217.467 2121.09 221.263 L2121.09 235.916 L2116.8 235.916 L2116.8 209.99 L2121.09 209.99 L2121.09 214.018 Q2122.61 211.68 2124.67 210.522 Q2126.76 209.365 2129.47 209.365 Q2133.93 209.365 2136.22 212.143 Q2138.52 214.897 2138.52 220.268 Z" fill="#000000" fill-rule="nonzero" fill-opacity="1" /><polyline clip-path="url(#clip090)" style="stroke:#e26f46; stroke-linecap:round; stroke-linejoin:round; stroke-width:8; stroke-opacity:0.8; fill:none" points="1592.39,270.476 1732.6,270.476 "/>
<path clip-path="url(#clip090)" d="M1755.97 253.196 L1777.82 253.196 L1777.82 257.131 L1760.65 257.131 L1760.65 267.362 L1777.11 267.362 L1777.11 271.297 L1760.65 271.297 L1760.65 283.821 L1778.24 283.821 L1778.24 287.756 L1755.97 287.756 L1755.97 253.196 Z" fill="#000000" fill-rule="nonzero" fill-opacity="1" /><path clip-path="url(#clip090)" d="M1805.93 266.807 Q1807.52 263.936 1809.75 262.571 Q1811.97 261.205 1814.98 261.205 Q1819.03 261.205 1821.23 264.052 Q1823.43 266.876 1823.43 272.108 L1823.43 287.756 L1819.14 287.756 L1819.14 272.247 Q1819.14 268.52 1817.82 266.714 Q1816.5 264.909 1813.8 264.909 Q1810.49 264.909 1808.56 267.108 Q1806.64 269.307 1806.64 273.103 L1806.64 287.756 L1802.36 287.756 L1802.36 272.247 Q1802.36 268.497 1801.04 266.714 Q1799.72 264.909 1796.97 264.909 Q1793.7 264.909 1791.78 267.131 Q1789.86 269.33 1789.86 273.103 L1789.86 287.756 L1785.58 287.756 L1785.58 261.83 L1789.86 261.83 L1789.86 265.858 Q1791.32 263.473 1793.36 262.339 Q1795.39 261.205 1798.19 261.205 Q1801.02 261.205 1802.99 262.64 Q1804.98 264.075 1805.93 266.807 Z" fill="#000000" fill-rule="nonzero" fill-opacity="1" /><path clip-path="url(#clip090)" d="M1836.04 283.867 L1836.04 297.617 L1831.76 297.617 L1831.76 261.83 L1836.04 261.83 L1836.04 265.765 Q1837.38 263.45 1839.42 262.339 Q1841.48 261.205 1844.33 261.205 Q1849.05 261.205 1851.99 264.955 Q1854.95 268.705 1854.95 274.816 Q1854.95 280.927 1851.99 284.677 Q1849.05 288.427 1844.33 288.427 Q1841.48 288.427 1839.42 287.316 Q1837.38 286.182 1836.04 283.867 M1850.53 274.816 Q1850.53 270.117 1848.59 267.455 Q1846.67 264.77 1843.29 264.77 Q1839.91 264.77 1837.96 267.455 Q1836.04 270.117 1836.04 274.816 Q1836.04 279.515 1837.96 282.2 Q1839.91 284.862 1843.29 284.862 Q1846.67 284.862 1848.59 282.2 Q1850.53 279.515 1850.53 274.816 Z" fill="#000000" fill-rule="nonzero" fill-opacity="1" /><path clip-path="url(#clip090)" d="M1862.01 261.83 L1866.27 261.83 L1866.27 287.756 L1862.01 287.756 L1862.01 261.83 M1862.01 251.737 L1866.27 251.737 L1866.27 257.131 L1862.01 257.131 L1862.01 251.737 Z" fill="#000000" fill-rule="nonzero" fill-opacity="1" /><path clip-path="url(#clip090)" d="M1890.21 265.811 Q1889.49 265.395 1888.63 265.21 Q1887.8 265.001 1886.78 265.001 Q1883.17 265.001 1881.23 267.362 Q1879.3 269.7 1879.3 274.098 L1879.3 287.756 L1875.02 287.756 L1875.02 261.83 L1879.3 261.83 L1879.3 265.858 Q1880.65 263.497 1882.8 262.362 Q1884.95 261.205 1888.03 261.205 Q1888.47 261.205 1889 261.274 Q1889.54 261.321 1890.18 261.436 L1890.21 265.811 Z" fill="#000000" fill-rule="nonzero" fill-opacity="1" /><path clip-path="url(#clip090)" d="M1894.68 261.83 L1898.93 261.83 L1898.93 287.756 L1894.68 287.756 L1894.68 261.83 M1894.68 251.737 L1898.93 251.737 L1898.93 257.131 L1894.68 257.131 L1894.68 251.737 Z" fill="#000000" fill-rule="nonzero" fill-opacity="1" /><path clip-path="url(#clip090)" d="M1926.5 262.825 L1926.5 266.807 Q1924.7 265.811 1922.87 265.325 Q1921.06 264.816 1919.21 264.816 Q1915.07 264.816 1912.78 267.455 Q1910.49 270.071 1910.49 274.816 Q1910.49 279.561 1912.78 282.2 Q1915.07 284.816 1919.21 284.816 Q1921.06 284.816 1922.87 284.33 Q1924.7 283.821 1926.5 282.825 L1926.5 286.76 Q1924.72 287.594 1922.8 288.01 Q1920.9 288.427 1918.75 288.427 Q1912.89 288.427 1909.44 284.746 Q1905.99 281.066 1905.99 274.816 Q1905.99 268.473 1909.47 264.839 Q1912.96 261.205 1919.03 261.205 Q1920.99 261.205 1922.87 261.622 Q1924.74 262.015 1926.5 262.825 Z" fill="#000000" fill-rule="nonzero" fill-opacity="1" /><path clip-path="url(#clip090)" d="M1945.69 274.723 Q1940.53 274.723 1938.54 275.904 Q1936.55 277.084 1936.55 279.932 Q1936.55 282.2 1938.03 283.543 Q1939.54 284.862 1942.11 284.862 Q1945.65 284.862 1947.78 282.362 Q1949.93 279.839 1949.93 275.672 L1949.93 274.723 L1945.69 274.723 M1954.19 272.964 L1954.19 287.756 L1949.93 287.756 L1949.93 283.821 Q1948.47 286.182 1946.3 287.316 Q1944.12 288.427 1940.97 288.427 Q1936.99 288.427 1934.63 286.205 Q1932.29 283.959 1932.29 280.209 Q1932.29 275.834 1935.21 273.612 Q1938.15 271.39 1943.96 271.39 L1949.93 271.39 L1949.93 270.973 Q1949.93 268.034 1947.99 266.436 Q1946.06 264.816 1942.57 264.816 Q1940.35 264.816 1938.24 265.348 Q1936.13 265.881 1934.19 266.946 L1934.19 263.01 Q1936.53 262.108 1938.73 261.668 Q1940.92 261.205 1943.01 261.205 Q1948.63 261.205 1951.41 264.122 Q1954.19 267.038 1954.19 272.964 Z" fill="#000000" fill-rule="nonzero" fill-opacity="1" /><path clip-path="url(#clip090)" d="M1962.96 251.737 L1967.22 251.737 L1967.22 287.756 L1962.96 287.756 L1962.96 251.737 Z" fill="#000000" fill-rule="nonzero" fill-opacity="1" /><path clip-path="url(#clip090)" d="M1996.06 257.038 L1996.06 283.913 L2001.71 283.913 Q2008.86 283.913 2012.17 280.672 Q2015.51 277.432 2015.51 270.441 Q2015.51 263.497 2012.17 260.279 Q2008.86 257.038 2001.71 257.038 L1996.06 257.038 M1991.39 253.196 L2000.99 253.196 Q2011.04 253.196 2015.74 257.386 Q2020.44 261.552 2020.44 270.441 Q2020.44 279.376 2015.72 283.566 Q2010.99 287.756 2000.99 287.756 L1991.39 287.756 L1991.39 253.196 Z" fill="#000000" fill-rule="nonzero" fill-opacity="1" /><path clip-path="url(#clip090)" d="M2027.71 261.83 L2031.97 261.83 L2031.97 287.756 L2027.71 287.756 L2027.71 261.83 M2027.71 251.737 L2031.97 251.737 L2031.97 257.131 L2027.71 257.131 L2027.71 251.737 Z" fill="#000000" fill-rule="nonzero" fill-opacity="1" /><path clip-path="url(#clip090)" d="M2057.41 262.594 L2057.41 266.622 Q2055.6 265.696 2053.66 265.233 Q2051.71 264.77 2049.63 264.77 Q2046.46 264.77 2044.86 265.742 Q2043.29 266.714 2043.29 268.659 Q2043.29 270.14 2044.42 270.997 Q2045.55 271.83 2048.98 272.594 L2050.44 272.918 Q2054.98 273.89 2056.87 275.672 Q2058.79 277.432 2058.79 280.603 Q2058.79 284.214 2055.92 286.321 Q2053.08 288.427 2048.08 288.427 Q2045.99 288.427 2043.73 288.01 Q2041.48 287.617 2038.98 286.807 L2038.98 282.409 Q2041.34 283.635 2043.63 284.26 Q2045.92 284.862 2048.17 284.862 Q2051.18 284.862 2052.8 283.844 Q2054.42 282.802 2054.42 280.927 Q2054.42 279.191 2053.24 278.265 Q2052.08 277.339 2048.12 276.483 L2046.64 276.135 Q2042.68 275.302 2040.92 273.589 Q2039.17 271.853 2039.17 268.844 Q2039.17 265.186 2041.76 263.196 Q2044.35 261.205 2049.12 261.205 Q2051.48 261.205 2053.56 261.552 Q2055.65 261.899 2057.41 262.594 Z" fill="#000000" fill-rule="nonzero" fill-opacity="1" /><path clip-path="url(#clip090)" d="M2069.79 254.469 L2069.79 261.83 L2078.56 261.83 L2078.56 265.14 L2069.79 265.14 L2069.79 279.214 Q2069.79 282.385 2070.65 283.288 Q2071.53 284.191 2074.19 284.191 L2078.56 284.191 L2078.56 287.756 L2074.19 287.756 Q2069.26 287.756 2067.38 285.927 Q2065.51 284.075 2065.51 279.214 L2065.51 265.14 L2062.38 265.14 L2062.38 261.83 L2065.51 261.83 L2065.51 254.469 L2069.79 254.469 Z" fill="#000000" fill-rule="nonzero" fill-opacity="1" /><path clip-path="url(#clip090)" d="M2099.19 265.811 Q2098.47 265.395 2097.61 265.21 Q2096.78 265.001 2095.76 265.001 Q2092.15 265.001 2090.21 267.362 Q2088.29 269.7 2088.29 274.098 L2088.29 287.756 L2084 287.756 L2084 261.83 L2088.29 261.83 L2088.29 265.858 Q2089.63 263.497 2091.78 262.362 Q2093.93 261.205 2097.01 261.205 Q2097.45 261.205 2097.98 261.274 Q2098.52 261.321 2099.16 261.436 L2099.19 265.811 Z" fill="#000000" fill-rule="nonzero" fill-opacity="1" /><path clip-path="url(#clip090)" d="M2103.66 261.83 L2107.91 261.83 L2107.91 287.756 L2103.66 287.756 L2103.66 261.83 M2103.66 251.737 L2107.91 251.737 L2107.91 257.131 L2103.66 257.131 L2103.66 251.737 Z" fill="#000000" fill-rule="nonzero" fill-opacity="1" /><path clip-path="url(#clip090)" d="M2135.44 274.816 Q2135.44 270.117 2133.49 267.455 Q2131.57 264.77 2128.19 264.77 Q2124.81 264.77 2122.87 267.455 Q2120.95 270.117 2120.95 274.816 Q2120.95 279.515 2122.87 282.2 Q2124.81 284.862 2128.19 284.862 Q2131.57 284.862 2133.49 282.2 Q2135.44 279.515 2135.44 274.816 M2120.95 265.765 Q2122.29 263.45 2124.33 262.339 Q2126.39 261.205 2129.23 261.205 Q2133.96 261.205 2136.9 264.955 Q2139.86 268.705 2139.86 274.816 Q2139.86 280.927 2136.9 284.677 Q2133.96 288.427 2129.23 288.427 Q2126.39 288.427 2124.33 287.316 Q2122.29 286.182 2120.95 283.867 L2120.95 287.756 L2116.66 287.756 L2116.66 251.737 L2120.95 251.737 L2120.95 265.765 Z" fill="#000000" fill-rule="nonzero" fill-opacity="1" /><path clip-path="url(#clip090)" d="M2146.48 277.524 L2146.48 261.83 L2150.74 261.83 L2150.74 277.362 Q2150.74 281.043 2152.17 282.895 Q2153.61 284.723 2156.48 284.723 Q2159.93 284.723 2161.92 282.524 Q2163.93 280.325 2163.93 276.529 L2163.93 261.83 L2168.19 261.83 L2168.19 287.756 L2163.93 287.756 L2163.93 283.774 Q2162.38 286.135 2160.32 287.293 Q2158.28 288.427 2155.58 288.427 Q2151.11 288.427 2148.79 285.649 Q2146.48 282.871 2146.48 277.524 M2157.2 261.205 L2157.2 261.205 Z" fill="#000000" fill-rule="nonzero" fill-opacity="1" /><path clip-path="url(#clip090)" d="M2181.18 254.469 L2181.18 261.83 L2189.95 261.83 L2189.95 265.14 L2181.18 265.14 L2181.18 279.214 Q2181.18 282.385 2182.03 283.288 Q2182.91 284.191 2185.58 284.191 L2189.95 284.191 L2189.95 287.756 L2185.58 287.756 Q2180.65 287.756 2178.77 285.927 Q2176.9 284.075 2176.9 279.214 L2176.9 265.14 L2173.77 265.14 L2173.77 261.83 L2176.9 261.83 L2176.9 254.469 L2181.18 254.469 Z" fill="#000000" fill-rule="nonzero" fill-opacity="1" /><path clip-path="url(#clip090)" d="M2195.55 261.83 L2199.81 261.83 L2199.81 287.756 L2195.55 287.756 L2195.55 261.83 M2195.55 251.737 L2199.81 251.737 L2199.81 257.131 L2195.55 257.131 L2195.55 251.737 Z" fill="#000000" fill-rule="nonzero" fill-opacity="1" /><path clip-path="url(#clip090)" d="M2218.77 264.816 Q2215.34 264.816 2213.35 267.501 Q2211.36 270.163 2211.36 274.816 Q2211.36 279.469 2213.33 282.154 Q2215.32 284.816 2218.77 284.816 Q2222.17 284.816 2224.16 282.131 Q2226.15 279.446 2226.15 274.816 Q2226.15 270.21 2224.16 267.524 Q2222.17 264.816 2218.77 264.816 M2218.77 261.205 Q2224.33 261.205 2227.5 264.816 Q2230.67 268.427 2230.67 274.816 Q2230.67 281.182 2227.5 284.816 Q2224.33 288.427 2218.77 288.427 Q2213.19 288.427 2210.02 284.816 Q2206.87 281.182 2206.87 274.816 Q2206.87 268.427 2210.02 264.816 Q2213.19 261.205 2218.77 261.205 Z" fill="#000000" fill-rule="nonzero" fill-opacity="1" /><path clip-path="url(#clip090)" d="M2259.28 272.108 L2259.28 287.756 L2255.02 287.756 L2255.02 272.247 Q2255.02 268.566 2253.59 266.737 Q2252.15 264.909 2249.28 264.909 Q2245.83 264.909 2243.84 267.108 Q2241.85 269.307 2241.85 273.103 L2241.85 287.756 L2237.57 287.756 L2237.57 261.83 L2241.85 261.83 L2241.85 265.858 Q2243.38 263.52 2245.44 262.362 Q2247.52 261.205 2250.23 261.205 Q2254.7 261.205 2256.99 263.983 Q2259.28 266.737 2259.28 272.108 Z" fill="#000000" fill-rule="nonzero" fill-opacity="1" /></svg>
