<?xml version="1.0" encoding="utf-8"?>
<svg xmlns="http://www.w3.org/2000/svg" xmlns:xlink="http://www.w3.org/1999/xlink" width="600" height="400" viewBox="0 0 2400 1600">
<defs>
  <clipPath id="clip970">
    <rect x="0" y="0" width="2400" height="1600"/>
  </clipPath>
</defs>
<path clip-path="url(#clip970)" d="M0 1600 L2400 1600 L2400 8.88178e-14 L0 8.88178e-14  Z" fill="#ffffff" fill-rule="evenodd" fill-opacity="1"/>
<defs>
  <clipPath id="clip971">
    <rect x="480" y="0" width="1681" height="1600"/>
  </clipPath>
</defs>
<path clip-path="url(#clip970)" d="M219.542 1423.18 L2352.76 1423.18 L2352.76 123.472 L219.542 123.472  Z" fill="#ffffff" fill-rule="evenodd" fill-opacity="1"/>
<defs>
  <clipPath id="clip972">
    <rect x="219" y="123" width="2134" height="1301"/>
  </clipPath>
</defs>
<polyline clip-path="url(#clip972)" style="stroke:#000000; stroke-linecap:round; stroke-linejoin:round; stroke-width:2; stroke-opacity:0.1; fill:none" points="259.588,1423.18 259.588,123.472 "/>
<polyline clip-path="url(#clip972)" style="stroke:#000000; stroke-linecap:round; stroke-linejoin:round; stroke-width:2; stroke-opacity:0.1; fill:none" points="767.787,1423.18 767.787,123.472 "/>
<polyline clip-path="url(#clip972)" style="stroke:#000000; stroke-linecap:round; stroke-linejoin:round; stroke-width:2; stroke-opacity:0.1; fill:none" points="1275.99,1423.18 1275.99,123.472 "/>
<polyline clip-path="url(#clip972)" style="stroke:#000000; stroke-linecap:round; stroke-linejoin:round; stroke-width:2; stroke-opacity:0.1; fill:none" points="1784.18,1423.18 1784.18,123.472 "/>
<polyline clip-path="url(#clip972)" style="stroke:#000000; stroke-linecap:round; stroke-linejoin:round; stroke-width:2; stroke-opacity:0.1; fill:none" points="2292.38,1423.18 2292.38,123.472 "/>
<polyline clip-path="url(#clip970)" style="stroke:#000000; stroke-linecap:round; stroke-linejoin:round; stroke-width:4; stroke-opacity:1; fill:none" points="219.542,1423.18 2352.76,1423.18 "/>
<polyline clip-path="url(#clip970)" style="stroke:#000000; stroke-linecap:round; stroke-linejoin:round; stroke-width:4; stroke-opacity:1; fill:none" points="259.588,1423.18 259.588,1404.28 "/>
<polyline clip-path="url(#clip970)" style="stroke:#000000; stroke-linecap:round; stroke-linejoin:round; stroke-width:4; stroke-opacity:1; fill:none" points="767.787,1423.18 767.787,1404.28 "/>
<polyline clip-path="url(#clip970)" style="stroke:#000000; stroke-linecap:round; stroke-linejoin:round; stroke-width:4; stroke-opacity:1; fill:none" points="1275.99,1423.18 1275.99,1404.28 "/>
<polyline clip-path="url(#clip970)" style="stroke:#000000; stroke-linecap:round; stroke-linejoin:round; stroke-width:4; stroke-opacity:1; fill:none" points="1784.18,1423.18 1784.18,1404.28 "/>
<polyline clip-path="url(#clip970)" style="stroke:#000000; stroke-linecap:round; stroke-linejoin:round; stroke-width:4; stroke-opacity:1; fill:none" points="2292.38,1423.18 2292.38,1404.28 "/>
<path clip-path="url(#clip970)" d="M259.588 1454.1 Q255.977 1454.1 254.148 1457.66 Q252.343 1461.2 252.343 1468.33 Q252.343 1475.44 254.148 1479.01 Q255.977 1482.55 259.588 1482.55 Q263.222 1482.55 265.028 1479.01 Q266.857 1475.44 266.857 1468.33 Q266.857 1461.2 265.028 1457.66 Q263.222 1454.1 259.588 1454.1 M259.588 1450.39 Q265.398 1450.39 268.454 1455 Q271.533 1459.58 271.533 1468.33 Q271.533 1477.06 268.454 1481.67 Q265.398 1486.25 259.588 1486.25 Q253.778 1486.25 250.699 1481.67 Q247.644 1477.06 247.644 1468.33 Q247.644 1459.58 250.699 1455 Q253.778 1450.39 259.588 1450.39 Z" fill="#000000" fill-rule="nonzero" fill-opacity="1" /><path clip-path="url(#clip970)" d="M747.058 1481.64 L763.377 1481.64 L763.377 1485.58 L741.433 1485.58 L741.433 1481.64 Q744.095 1478.89 748.678 1474.26 Q753.284 1469.61 754.465 1468.27 Q756.71 1465.74 757.59 1464.01 Q758.493 1462.25 758.493 1460.56 Q758.493 1457.8 756.548 1456.07 Q754.627 1454.33 751.525 1454.33 Q749.326 1454.33 746.872 1455.09 Q744.442 1455.86 741.664 1457.41 L741.664 1452.69 Q744.488 1451.55 746.942 1450.97 Q749.396 1450.39 751.433 1450.39 Q756.803 1450.39 759.997 1453.08 Q763.192 1455.77 763.192 1460.26 Q763.192 1462.39 762.382 1464.31 Q761.595 1466.2 759.488 1468.8 Q758.909 1469.47 755.808 1472.69 Q752.706 1475.88 747.058 1481.64 Z" fill="#000000" fill-rule="nonzero" fill-opacity="1" /><path clip-path="url(#clip970)" d="M773.238 1451.02 L791.594 1451.02 L791.594 1454.96 L777.52 1454.96 L777.52 1463.43 Q778.539 1463.08 779.557 1462.92 Q780.576 1462.73 781.594 1462.73 Q787.381 1462.73 790.761 1465.9 Q794.141 1469.08 794.141 1474.49 Q794.141 1480.07 790.668 1483.17 Q787.196 1486.25 780.877 1486.25 Q778.701 1486.25 776.432 1485.88 Q774.187 1485.51 771.78 1484.77 L771.78 1480.07 Q773.863 1481.2 776.085 1481.76 Q778.307 1482.32 780.784 1482.32 Q784.789 1482.32 787.127 1480.21 Q789.465 1478.1 789.465 1474.49 Q789.465 1470.88 787.127 1468.77 Q784.789 1466.67 780.784 1466.67 Q778.909 1466.67 777.034 1467.08 Q775.182 1467.5 773.238 1468.38 L773.238 1451.02 Z" fill="#000000" fill-rule="nonzero" fill-opacity="1" /><path clip-path="url(#clip970)" d="M1250.68 1451.02 L1269.04 1451.02 L1269.04 1454.96 L1254.97 1454.96 L1254.97 1463.43 Q1255.99 1463.08 1257 1462.92 Q1258.02 1462.73 1259.04 1462.73 Q1264.83 1462.73 1268.21 1465.9 Q1271.59 1469.08 1271.59 1474.49 Q1271.59 1480.07 1268.11 1483.17 Q1264.64 1486.25 1258.32 1486.25 Q1256.15 1486.25 1253.88 1485.88 Q1251.63 1485.51 1249.23 1484.77 L1249.23 1480.07 Q1251.31 1481.2 1253.53 1481.76 Q1255.75 1482.32 1258.23 1482.32 Q1262.24 1482.32 1264.57 1480.21 Q1266.91 1478.1 1266.91 1474.49 Q1266.91 1470.88 1264.57 1468.77 Q1262.24 1466.67 1258.23 1466.67 Q1256.36 1466.67 1254.48 1467.08 Q1252.63 1467.5 1250.68 1468.38 L1250.68 1451.02 Z" fill="#000000" fill-rule="nonzero" fill-opacity="1" /><path clip-path="url(#clip970)" d="M1290.8 1454.1 Q1287.19 1454.1 1285.36 1457.66 Q1283.55 1461.2 1283.55 1468.33 Q1283.55 1475.44 1285.36 1479.01 Q1287.19 1482.55 1290.8 1482.55 Q1294.43 1482.55 1296.24 1479.01 Q1298.07 1475.44 1298.07 1468.33 Q1298.07 1461.2 1296.24 1457.66 Q1294.43 1454.1 1290.8 1454.1 M1290.8 1450.39 Q1296.61 1450.39 1299.67 1455 Q1302.74 1459.58 1302.74 1468.33 Q1302.74 1477.06 1299.67 1481.67 Q1296.61 1486.25 1290.8 1486.25 Q1284.99 1486.25 1281.91 1481.67 Q1278.86 1477.06 1278.86 1468.33 Q1278.86 1459.58 1281.91 1455 Q1284.99 1450.39 1290.8 1450.39 Z" fill="#000000" fill-rule="nonzero" fill-opacity="1" /><path clip-path="url(#clip970)" d="M1758.04 1451.02 L1780.26 1451.02 L1780.26 1453.01 L1767.71 1485.58 L1762.83 1485.58 L1774.63 1454.96 L1758.04 1454.96 L1758.04 1451.02 Z" fill="#000000" fill-rule="nonzero" fill-opacity="1" /><path clip-path="url(#clip970)" d="M1789.43 1451.02 L1807.78 1451.02 L1807.78 1454.96 L1793.71 1454.96 L1793.71 1463.43 Q1794.73 1463.08 1795.75 1462.92 Q1796.76 1462.73 1797.78 1462.73 Q1803.57 1462.73 1806.95 1465.9 Q1810.33 1469.08 1810.33 1474.49 Q1810.33 1480.07 1806.86 1483.17 Q1803.38 1486.25 1797.07 1486.25 Q1794.89 1486.25 1792.62 1485.88 Q1790.38 1485.51 1787.97 1484.77 L1787.97 1480.07 Q1790.05 1481.2 1792.27 1481.76 Q1794.5 1482.32 1796.97 1482.32 Q1800.98 1482.32 1803.32 1480.21 Q1805.65 1478.1 1805.65 1474.49 Q1805.65 1470.88 1803.32 1468.77 Q1800.98 1466.67 1796.97 1466.67 Q1795.1 1466.67 1793.22 1467.08 Q1791.37 1467.5 1789.43 1468.38 L1789.43 1451.02 Z" fill="#000000" fill-rule="nonzero" fill-opacity="1" /><path clip-path="url(#clip970)" d="M2251.99 1481.64 L2259.63 1481.64 L2259.63 1455.28 L2251.32 1456.95 L2251.32 1452.69 L2259.58 1451.02 L2264.26 1451.02 L2264.26 1481.64 L2271.9 1481.64 L2271.9 1485.58 L2251.99 1485.58 L2251.99 1481.64 Z" fill="#000000" fill-rule="nonzero" fill-opacity="1" /><path clip-path="url(#clip970)" d="M2291.34 1454.1 Q2287.73 1454.1 2285.9 1457.66 Q2284.09 1461.2 2284.09 1468.33 Q2284.09 1475.44 2285.9 1479.01 Q2287.73 1482.55 2291.34 1482.55 Q2294.97 1482.55 2296.78 1479.01 Q2298.61 1475.44 2298.61 1468.33 Q2298.61 1461.2 2296.78 1457.66 Q2294.97 1454.1 2291.34 1454.1 M2291.34 1450.39 Q2297.15 1450.39 2300.21 1455 Q2303.28 1459.58 2303.28 1468.33 Q2303.28 1477.06 2300.21 1481.67 Q2297.15 1486.25 2291.34 1486.25 Q2285.53 1486.25 2282.45 1481.67 Q2279.4 1477.06 2279.4 1468.33 Q2279.4 1459.58 2282.45 1455 Q2285.53 1450.39 2291.34 1450.39 Z" fill="#000000" fill-rule="nonzero" fill-opacity="1" /><path clip-path="url(#clip970)" d="M2321.5 1454.1 Q2317.89 1454.1 2316.06 1457.66 Q2314.26 1461.2 2314.26 1468.33 Q2314.26 1475.44 2316.06 1479.01 Q2317.89 1482.55 2321.5 1482.55 Q2325.14 1482.55 2326.94 1479.01 Q2328.77 1475.44 2328.77 1468.33 Q2328.77 1461.2 2326.94 1457.66 Q2325.14 1454.1 2321.5 1454.1 M2321.5 1450.39 Q2327.31 1450.39 2330.37 1455 Q2333.45 1459.58 2333.45 1468.33 Q2333.45 1477.06 2330.37 1481.67 Q2327.31 1486.25 2321.5 1486.25 Q2315.69 1486.25 2312.61 1481.67 Q2309.56 1477.06 2309.56 1468.33 Q2309.56 1459.58 2312.61 1455 Q2315.69 1450.39 2321.5 1450.39 Z" fill="#000000" fill-rule="nonzero" fill-opacity="1" /><path clip-path="url(#clip970)" d="M1225.31 1522.27 L1225.31 1532.4 L1237.37 1532.4 L1237.37 1536.95 L1225.31 1536.95 L1225.31 1556.3 Q1225.31 1560.66 1226.49 1561.9 Q1227.7 1563.14 1231.36 1563.14 L1237.37 1563.14 L1237.37 1568.04 L1231.36 1568.04 Q1224.58 1568.04 1222 1565.53 Q1219.42 1562.98 1219.42 1556.3 L1219.42 1536.95 L1215.12 1536.95 L1215.12 1532.4 L1219.42 1532.4 L1219.42 1522.27 L1225.31 1522.27 Z" fill="#000000" fill-rule="nonzero" fill-opacity="1" /><path clip-path="url(#clip970)" d="M1245.07 1532.4 L1250.93 1532.4 L1250.93 1568.04 L1245.07 1568.04 L1245.07 1532.4 M1245.07 1518.52 L1250.93 1518.52 L1250.93 1525.93 L1245.07 1525.93 L1245.07 1518.52 Z" fill="#000000" fill-rule="nonzero" fill-opacity="1" /><path clip-path="url(#clip970)" d="M1290.94 1539.24 Q1293.14 1535.29 1296.19 1533.41 Q1299.25 1531.54 1303.38 1531.54 Q1308.95 1531.54 1311.98 1535.45 Q1315 1539.33 1315 1546.53 L1315 1568.04 L1309.11 1568.04 L1309.11 1546.72 Q1309.11 1541.59 1307.3 1539.11 Q1305.48 1536.63 1301.76 1536.63 Q1297.21 1536.63 1294.57 1539.65 Q1291.93 1542.68 1291.93 1547.9 L1291.93 1568.04 L1286.04 1568.04 L1286.04 1546.72 Q1286.04 1541.56 1284.22 1539.11 Q1282.41 1536.63 1278.62 1536.63 Q1274.13 1536.63 1271.49 1539.68 Q1268.85 1542.71 1268.85 1547.9 L1268.85 1568.04 L1262.96 1568.04 L1262.96 1532.4 L1268.85 1532.4 L1268.85 1537.93 Q1270.86 1534.66 1273.66 1533.1 Q1276.46 1531.54 1280.31 1531.54 Q1284.19 1531.54 1286.9 1533.51 Q1289.63 1535.48 1290.94 1539.24 Z" fill="#000000" fill-rule="nonzero" fill-opacity="1" /><path clip-path="url(#clip970)" d="M1357.17 1548.76 L1357.17 1551.62 L1330.25 1551.62 Q1330.63 1557.67 1333.88 1560.85 Q1337.15 1564 1342.98 1564 Q1346.35 1564 1349.5 1563.17 Q1352.69 1562.35 1355.81 1560.69 L1355.81 1566.23 Q1352.65 1567.57 1349.34 1568.27 Q1346.03 1568.97 1342.63 1568.97 Q1334.1 1568.97 1329.1 1564 Q1324.14 1559.04 1324.14 1550.57 Q1324.14 1541.82 1328.85 1536.69 Q1333.59 1531.54 1341.61 1531.54 Q1348.8 1531.54 1352.97 1536.18 Q1357.17 1540.8 1357.17 1548.76 M1351.32 1547.04 Q1351.25 1542.23 1348.61 1539.37 Q1346 1536.5 1341.67 1536.5 Q1336.77 1536.5 1333.81 1539.27 Q1330.88 1542.04 1330.44 1547.07 L1351.32 1547.04 Z" fill="#000000" fill-rule="nonzero" fill-opacity="1" /><polyline clip-path="url(#clip972)" style="stroke:#000000; stroke-linecap:round; stroke-linejoin:round; stroke-width:2; stroke-opacity:0.1; fill:none" points="219.542,1187.99 2352.76,1187.99 "/>
<polyline clip-path="url(#clip972)" style="stroke:#000000; stroke-linecap:round; stroke-linejoin:round; stroke-width:2; stroke-opacity:0.1; fill:none" points="219.542,938.444 2352.76,938.444 "/>
<polyline clip-path="url(#clip972)" style="stroke:#000000; stroke-linecap:round; stroke-linejoin:round; stroke-width:2; stroke-opacity:0.1; fill:none" points="219.542,688.895 2352.76,688.895 "/>
<polyline clip-path="url(#clip972)" style="stroke:#000000; stroke-linecap:round; stroke-linejoin:round; stroke-width:2; stroke-opacity:0.1; fill:none" points="219.542,439.347 2352.76,439.347 "/>
<polyline clip-path="url(#clip972)" style="stroke:#000000; stroke-linecap:round; stroke-linejoin:round; stroke-width:2; stroke-opacity:0.1; fill:none" points="219.542,189.799 2352.76,189.799 "/>
<polyline clip-path="url(#clip970)" style="stroke:#000000; stroke-linecap:round; stroke-linejoin:round; stroke-width:4; stroke-opacity:1; fill:none" points="219.542,1423.18 219.542,123.472 "/>
<polyline clip-path="url(#clip970)" style="stroke:#000000; stroke-linecap:round; stroke-linejoin:round; stroke-width:4; stroke-opacity:1; fill:none" points="219.542,1187.99 238.44,1187.99 "/>
<polyline clip-path="url(#clip970)" style="stroke:#000000; stroke-linecap:round; stroke-linejoin:round; stroke-width:4; stroke-opacity:1; fill:none" points="219.542,938.444 238.44,938.444 "/>
<polyline clip-path="url(#clip970)" style="stroke:#000000; stroke-linecap:round; stroke-linejoin:round; stroke-width:4; stroke-opacity:1; fill:none" points="219.542,688.895 238.44,688.895 "/>
<polyline clip-path="url(#clip970)" style="stroke:#000000; stroke-linecap:round; stroke-linejoin:round; stroke-width:4; stroke-opacity:1; fill:none" points="219.542,439.347 238.44,439.347 "/>
<polyline clip-path="url(#clip970)" style="stroke:#000000; stroke-linecap:round; stroke-linejoin:round; stroke-width:4; stroke-opacity:1; fill:none" points="219.542,189.799 238.44,189.799 "/>
<path clip-path="url(#clip970)" d="M126.367 1173.79 Q122.755 1173.79 120.927 1177.36 Q119.121 1180.9 119.121 1188.03 Q119.121 1195.13 120.927 1198.7 Q122.755 1202.24 126.367 1202.24 Q130.001 1202.24 131.806 1198.7 Q133.635 1195.13 133.635 1188.03 Q133.635 1180.9 131.806 1177.36 Q130.001 1173.79 126.367 1173.79 M126.367 1170.09 Q132.177 1170.09 135.232 1174.69 Q138.311 1179.28 138.311 1188.03 Q138.311 1196.75 135.232 1201.36 Q132.177 1205.94 126.367 1205.94 Q120.556 1205.94 117.478 1201.36 Q114.422 1196.75 114.422 1188.03 Q114.422 1179.28 117.478 1174.69 Q120.556 1170.09 126.367 1170.09 Z" fill="#000000" fill-rule="nonzero" fill-opacity="1" /><path clip-path="url(#clip970)" d="M146.529 1199.39 L151.413 1199.39 L151.413 1205.27 L146.529 1205.27 L146.529 1199.39 Z" fill="#000000" fill-rule="nonzero" fill-opacity="1" /><path clip-path="url(#clip970)" d="M171.598 1173.79 Q167.987 1173.79 166.158 1177.36 Q164.352 1180.9 164.352 1188.03 Q164.352 1195.13 166.158 1198.7 Q167.987 1202.24 171.598 1202.24 Q175.232 1202.24 177.038 1198.7 Q178.866 1195.13 178.866 1188.03 Q178.866 1180.9 177.038 1177.36 Q175.232 1173.79 171.598 1173.79 M171.598 1170.09 Q177.408 1170.09 180.464 1174.69 Q183.542 1179.28 183.542 1188.03 Q183.542 1196.75 180.464 1201.36 Q177.408 1205.94 171.598 1205.94 Q165.788 1205.94 162.709 1201.36 Q159.653 1196.75 159.653 1188.03 Q159.653 1179.28 162.709 1174.69 Q165.788 1170.09 171.598 1170.09 Z" fill="#000000" fill-rule="nonzero" fill-opacity="1" /><path clip-path="url(#clip970)" d="M127.015 924.242 Q123.404 924.242 121.575 927.807 Q119.769 931.349 119.769 938.478 Q119.769 945.585 121.575 949.15 Q123.404 952.691 127.015 952.691 Q130.649 952.691 132.455 949.15 Q134.283 945.585 134.283 938.478 Q134.283 931.349 132.455 927.807 Q130.649 924.242 127.015 924.242 M127.015 920.539 Q132.825 920.539 135.88 925.145 Q138.959 929.729 138.959 938.478 Q138.959 947.205 135.88 951.812 Q132.825 956.395 127.015 956.395 Q121.205 956.395 118.126 951.812 Q115.07 947.205 115.07 938.478 Q115.07 929.729 118.126 925.145 Q121.205 920.539 127.015 920.539 Z" fill="#000000" fill-rule="nonzero" fill-opacity="1" /><path clip-path="url(#clip970)" d="M147.177 949.844 L152.061 949.844 L152.061 955.724 L147.177 955.724 L147.177 949.844 Z" fill="#000000" fill-rule="nonzero" fill-opacity="1" /><path clip-path="url(#clip970)" d="M176.413 937.09 Q179.769 937.807 181.644 940.076 Q183.542 942.344 183.542 945.677 Q183.542 950.793 180.024 953.594 Q176.505 956.395 170.024 956.395 Q167.848 956.395 165.533 955.955 Q163.241 955.539 160.788 954.682 L160.788 950.168 Q162.732 951.302 165.047 951.881 Q167.362 952.46 169.885 952.46 Q174.283 952.46 176.575 950.724 Q178.889 948.988 178.889 945.677 Q178.889 942.622 176.737 940.909 Q174.607 939.173 170.788 939.173 L166.76 939.173 L166.76 935.33 L170.973 935.33 Q174.422 935.33 176.251 933.965 Q178.079 932.576 178.079 929.983 Q178.079 927.321 176.181 925.909 Q174.306 924.474 170.788 924.474 Q168.866 924.474 166.667 924.891 Q164.468 925.307 161.829 926.187 L161.829 922.02 Q164.491 921.279 166.806 920.909 Q169.144 920.539 171.204 920.539 Q176.528 920.539 179.63 922.969 Q182.732 925.377 182.732 929.497 Q182.732 932.367 181.089 934.358 Q179.445 936.326 176.413 937.09 Z" fill="#000000" fill-rule="nonzero" fill-opacity="1" /><path clip-path="url(#clip970)" d="M126.205 674.694 Q122.593 674.694 120.765 678.259 Q118.959 681.801 118.959 688.93 Q118.959 696.037 120.765 699.601 Q122.593 703.143 126.205 703.143 Q129.839 703.143 131.644 699.601 Q133.473 696.037 133.473 688.93 Q133.473 681.801 131.644 678.259 Q129.839 674.694 126.205 674.694 M126.205 670.99 Q132.015 670.99 135.07 675.597 Q138.149 680.18 138.149 688.93 Q138.149 697.657 135.07 702.263 Q132.015 706.847 126.205 706.847 Q120.394 706.847 117.316 702.263 Q114.26 697.657 114.26 688.93 Q114.26 680.18 117.316 675.597 Q120.394 670.99 126.205 670.99 Z" fill="#000000" fill-rule="nonzero" fill-opacity="1" /><path clip-path="url(#clip970)" d="M146.366 700.296 L151.251 700.296 L151.251 706.175 L146.366 706.175 L146.366 700.296 Z" fill="#000000" fill-rule="nonzero" fill-opacity="1" /><path clip-path="url(#clip970)" d="M172.014 687.032 Q168.866 687.032 167.015 689.185 Q165.186 691.338 165.186 695.088 Q165.186 698.814 167.015 700.99 Q168.866 703.143 172.014 703.143 Q175.163 703.143 176.991 700.99 Q178.843 698.814 178.843 695.088 Q178.843 691.338 176.991 689.185 Q175.163 687.032 172.014 687.032 M181.297 672.379 L181.297 676.639 Q179.538 675.805 177.732 675.365 Q175.95 674.926 174.19 674.926 Q169.561 674.926 167.107 678.051 Q164.677 681.176 164.329 687.495 Q165.695 685.481 167.755 684.416 Q169.815 683.328 172.292 683.328 Q177.501 683.328 180.51 686.5 Q183.542 689.648 183.542 695.088 Q183.542 700.412 180.394 703.629 Q177.246 706.847 172.014 706.847 Q166.019 706.847 162.848 702.263 Q159.677 697.657 159.677 688.93 Q159.677 680.736 163.565 675.875 Q167.454 670.99 174.005 670.99 Q175.764 670.99 177.547 671.338 Q179.352 671.685 181.297 672.379 Z" fill="#000000" fill-rule="nonzero" fill-opacity="1" /><path clip-path="url(#clip970)" d="M126.552 425.146 Q122.941 425.146 121.112 428.711 Q119.306 432.252 119.306 439.382 Q119.306 446.488 121.112 450.053 Q122.941 453.595 126.552 453.595 Q130.186 453.595 131.992 450.053 Q133.82 446.488 133.82 439.382 Q133.82 432.252 131.992 428.711 Q130.186 425.146 126.552 425.146 M126.552 421.442 Q132.362 421.442 135.417 426.049 Q138.496 430.632 138.496 439.382 Q138.496 448.109 135.417 452.715 Q132.362 457.299 126.552 457.299 Q120.742 457.299 117.663 452.715 Q114.607 448.109 114.607 439.382 Q114.607 430.632 117.663 426.049 Q120.742 421.442 126.552 421.442 Z" fill="#000000" fill-rule="nonzero" fill-opacity="1" /><path clip-path="url(#clip970)" d="M146.714 450.748 L151.598 450.748 L151.598 456.627 L146.714 456.627 L146.714 450.748 Z" fill="#000000" fill-rule="nonzero" fill-opacity="1" /><path clip-path="url(#clip970)" d="M161.922 455.91 L161.922 451.65 Q163.681 452.484 165.487 452.924 Q167.292 453.363 169.028 453.363 Q173.658 453.363 176.089 450.262 Q178.542 447.137 178.889 440.794 Q177.547 442.785 175.487 443.85 Q173.427 444.914 170.927 444.914 Q165.741 444.914 162.709 441.789 Q159.7 438.641 159.7 433.201 Q159.7 427.877 162.848 424.66 Q165.996 421.442 171.227 421.442 Q177.223 421.442 180.371 426.049 Q183.542 430.632 183.542 439.382 Q183.542 447.553 179.653 452.437 Q175.788 457.299 169.237 457.299 Q167.477 457.299 165.672 456.951 Q163.866 456.604 161.922 455.91 M171.227 441.257 Q174.376 441.257 176.204 439.104 Q178.056 436.951 178.056 433.201 Q178.056 429.475 176.204 427.322 Q174.376 425.146 171.227 425.146 Q168.079 425.146 166.227 427.322 Q164.399 429.475 164.399 433.201 Q164.399 436.951 166.227 439.104 Q168.079 441.257 171.227 441.257 Z" fill="#000000" fill-rule="nonzero" fill-opacity="1" /><path clip-path="url(#clip970)" d="M118.774 203.144 L126.413 203.144 L126.413 176.778 L118.103 178.445 L118.103 174.186 L126.367 172.519 L131.042 172.519 L131.042 203.144 L138.681 203.144 L138.681 207.079 L118.774 207.079 L118.774 203.144 Z" fill="#000000" fill-rule="nonzero" fill-opacity="1" /><path clip-path="url(#clip970)" d="M148.126 201.199 L153.01 201.199 L153.01 207.079 L148.126 207.079 L148.126 201.199 Z" fill="#000000" fill-rule="nonzero" fill-opacity="1" /><path clip-path="url(#clip970)" d="M167.223 203.144 L183.542 203.144 L183.542 207.079 L161.598 207.079 L161.598 203.144 Q164.26 200.389 168.843 195.76 Q173.45 191.107 174.63 189.764 Q176.876 187.241 177.755 185.505 Q178.658 183.746 178.658 182.056 Q178.658 179.301 176.714 177.565 Q174.792 175.829 171.69 175.829 Q169.491 175.829 167.038 176.593 Q164.607 177.357 161.829 178.908 L161.829 174.186 Q164.653 173.051 167.107 172.473 Q169.561 171.894 171.598 171.894 Q176.968 171.894 180.163 174.579 Q183.357 177.264 183.357 181.755 Q183.357 183.885 182.547 185.806 Q181.76 187.704 179.653 190.297 Q179.075 190.968 175.973 194.186 Q172.871 197.38 167.223 203.144 Z" fill="#000000" fill-rule="nonzero" fill-opacity="1" /><path clip-path="url(#clip970)" d="M28.3562 756.711 L45.7028 769.602 L64.0042 756.043 L64.0042 762.95 L49.9996 773.326 L64.0042 783.702 L64.0042 790.609 L45.3526 776.763 L28.3562 789.431 L28.3562 782.524 L41.0558 773.071 L28.3562 763.618 L28.3562 756.711 Z" fill="#000000" fill-rule="nonzero" fill-opacity="1" /><path clip-path="url(#clip970)" d="M216.346 12.096 L267.509 12.096 L267.509 18.9825 L246.039 18.9825 L246.039 72.576 L237.816 72.576 L237.816 18.9825 L216.346 18.9825 L216.346 12.096 Z" fill="#000000" fill-rule="nonzero" fill-opacity="1" /><path clip-path="url(#clip970)" d="M289.181 34.1734 Q287.925 33.4443 286.426 33.1202 Q284.968 32.7556 283.186 32.7556 Q276.866 32.7556 273.464 36.8875 Q270.101 40.9789 270.101 48.6757 L270.101 72.576 L262.607 72.576 L262.607 27.2059 L270.101 27.2059 L270.101 34.2544 Q272.451 30.1225 276.218 28.1376 Q279.985 26.1121 285.373 26.1121 Q286.143 26.1121 287.075 26.2337 Q288.006 26.3147 289.141 26.5172 L289.181 34.1734 Z" fill="#000000" fill-rule="nonzero" fill-opacity="1" /><path clip-path="url(#clip970)" d="M317.618 49.7694 Q308.585 49.7694 305.101 51.8354 Q301.617 53.9013 301.617 58.8839 Q301.617 62.8538 304.21 65.2034 Q306.843 67.5124 311.339 67.5124 Q317.537 67.5124 321.264 63.1374 Q325.032 58.7219 325.032 51.4303 L325.032 49.7694 L317.618 49.7694 M332.485 46.6907 L332.485 72.576 L325.032 72.576 L325.032 65.6895 Q322.479 69.8214 318.672 71.8063 Q314.864 73.7508 309.355 73.7508 Q302.387 73.7508 298.255 69.8619 Q294.164 65.9325 294.164 59.3701 Q294.164 51.7138 299.268 47.825 Q304.412 43.9361 314.58 43.9361 L325.032 43.9361 L325.032 43.2069 Q325.032 38.0623 321.629 35.2672 Q318.267 32.4315 312.15 32.4315 Q308.261 32.4315 304.574 33.3632 Q300.888 34.295 297.485 36.1584 L297.485 29.2718 Q301.577 27.692 305.425 26.9223 Q309.273 26.1121 312.919 26.1121 Q322.763 26.1121 327.624 31.2163 Q332.485 36.3204 332.485 46.6907 Z" fill="#000000" fill-rule="nonzero" fill-opacity="1" /><path clip-path="url(#clip970)" d="M347.838 27.2059 L355.292 27.2059 L355.292 72.576 L347.838 72.576 L347.838 27.2059 M347.838 9.54393 L355.292 9.54393 L355.292 18.9825 L347.838 18.9825 L347.838 9.54393 Z" fill="#000000" fill-rule="nonzero" fill-opacity="1" /><path clip-path="url(#clip970)" d="M408.602 45.1919 L408.602 72.576 L401.148 72.576 L401.148 45.4349 Q401.148 38.994 398.636 35.7938 Q396.125 32.5936 391.102 32.5936 Q385.066 32.5936 381.582 36.4419 Q378.098 40.2903 378.098 46.9338 L378.098 72.576 L370.604 72.576 L370.604 27.2059 L378.098 27.2059 L378.098 34.2544 Q380.772 30.163 384.377 28.1376 Q388.023 26.1121 392.763 26.1121 Q400.581 26.1121 404.591 30.9732 Q408.602 35.7938 408.602 45.1919 Z" fill="#000000" fill-rule="nonzero" fill-opacity="1" /><path clip-path="url(#clip970)" d="M423.468 27.2059 L430.922 27.2059 L430.922 72.576 L423.468 72.576 L423.468 27.2059 M423.468 9.54393 L430.922 9.54393 L430.922 18.9825 L423.468 18.9825 L423.468 9.54393 Z" fill="#000000" fill-rule="nonzero" fill-opacity="1" /><path clip-path="url(#clip970)" d="M484.232 45.1919 L484.232 72.576 L476.778 72.576 L476.778 45.4349 Q476.778 38.994 474.267 35.7938 Q471.755 32.5936 466.732 32.5936 Q460.696 32.5936 457.213 36.4419 Q453.729 40.2903 453.729 46.9338 L453.729 72.576 L446.235 72.576 L446.235 27.2059 L453.729 27.2059 L453.729 34.2544 Q456.402 30.163 460.008 28.1376 Q463.653 26.1121 468.393 26.1121 Q476.211 26.1121 480.222 30.9732 Q484.232 35.7938 484.232 45.1919 Z" fill="#000000" fill-rule="nonzero" fill-opacity="1" /><path clip-path="url(#clip970)" d="M528.954 49.3643 Q528.954 41.2625 525.592 36.8065 Q522.27 32.3505 516.234 32.3505 Q510.239 32.3505 506.877 36.8065 Q503.555 41.2625 503.555 49.3643 Q503.555 57.4256 506.877 61.8816 Q510.239 66.3376 516.234 66.3376 Q522.27 66.3376 525.592 61.8816 Q528.954 57.4256 528.954 49.3643 M536.408 66.9452 Q536.408 78.5308 531.263 84.1616 Q526.118 89.8329 515.505 89.8329 Q511.576 89.8329 508.092 89.2252 Q504.608 88.6581 501.327 87.4428 L501.327 80.1917 Q504.608 81.9741 507.808 82.8248 Q511.009 83.6755 514.33 83.6755 Q521.662 83.6755 525.308 79.8271 Q528.954 76.0193 528.954 68.282 L528.954 64.5957 Q526.645 68.6061 523.04 70.5911 Q519.434 72.576 514.411 72.576 Q506.066 72.576 500.962 66.2161 Q495.858 59.8562 495.858 49.3643 Q495.858 38.832 500.962 32.472 Q506.066 26.1121 514.411 26.1121 Q519.434 26.1121 523.04 28.0971 Q526.645 30.082 528.954 34.0924 L528.954 27.2059 L536.408 27.2059 L536.408 66.9452 Z" fill="#000000" fill-rule="nonzero" fill-opacity="1" /><path clip-path="url(#clip970)" d="M614.712 14.0809 L614.712 22.0612 Q610.053 19.8332 605.921 18.7395 Q601.789 17.6457 597.941 17.6457 Q591.257 17.6457 587.611 20.2383 Q584.006 22.8309 584.006 27.611 Q584.006 31.6214 586.396 33.6873 Q588.826 35.7128 595.551 36.9686 L600.493 37.9813 Q609.648 39.7232 613.983 44.1387 Q618.357 48.5136 618.357 55.8863 Q618.357 64.6767 612.443 69.2137 Q606.569 73.7508 595.186 73.7508 Q590.892 73.7508 586.031 72.7785 Q581.211 71.8063 576.026 69.9024 L576.026 61.4765 Q581.008 64.2716 585.788 65.6895 Q590.568 67.1073 595.186 67.1073 Q602.194 67.1073 606.002 64.3527 Q609.81 61.598 609.81 56.4939 Q609.81 52.0379 607.055 49.5264 Q604.341 47.0148 598.103 45.759 L593.12 44.7868 Q583.965 42.9639 579.874 39.075 Q575.782 35.1862 575.782 28.2591 Q575.782 20.2383 581.413 15.6203 Q587.085 11.0023 597.009 11.0023 Q601.263 11.0023 605.678 11.7719 Q610.094 12.5416 614.712 14.0809 Z" fill="#000000" fill-rule="nonzero" fill-opacity="1" /><path clip-path="url(#clip970)" d="M651.413 49.7694 Q642.379 49.7694 638.896 51.8354 Q635.412 53.9013 635.412 58.8839 Q635.412 62.8538 638.004 65.2034 Q640.637 67.5124 645.134 67.5124 Q651.332 67.5124 655.059 63.1374 Q658.826 58.7219 658.826 51.4303 L658.826 49.7694 L651.413 49.7694 M666.28 46.6907 L666.28 72.576 L658.826 72.576 L658.826 65.6895 Q656.274 69.8214 652.466 71.8063 Q648.658 73.7508 643.149 73.7508 Q636.181 73.7508 632.05 69.8619 Q627.958 65.9325 627.958 59.3701 Q627.958 51.7138 633.062 47.825 Q638.207 43.9361 648.375 43.9361 L658.826 43.9361 L658.826 43.2069 Q658.826 38.0623 655.423 35.2672 Q652.061 32.4315 645.944 32.4315 Q642.055 32.4315 638.369 33.3632 Q634.683 34.295 631.28 36.1584 L631.28 29.2718 Q635.371 27.692 639.22 26.9223 Q643.068 26.1121 646.714 26.1121 Q656.558 26.1121 661.419 31.2163 Q666.28 36.3204 666.28 46.6907 Z" fill="#000000" fill-rule="nonzero" fill-opacity="1" /><path clip-path="url(#clip970)" d="M716.956 35.9153 Q719.752 30.8922 723.64 28.5022 Q727.529 26.1121 732.796 26.1121 Q739.885 26.1121 743.733 31.0947 Q747.581 36.0368 747.581 45.1919 L747.581 72.576 L740.087 72.576 L740.087 45.4349 Q740.087 38.913 737.778 35.7533 Q735.469 32.5936 730.73 32.5936 Q724.937 32.5936 721.575 36.4419 Q718.212 40.2903 718.212 46.9338 L718.212 72.576 L710.718 72.576 L710.718 45.4349 Q710.718 38.8725 708.409 35.7533 Q706.1 32.5936 701.279 32.5936 Q695.568 32.5936 692.205 36.4824 Q688.843 40.3308 688.843 46.9338 L688.843 72.576 L681.349 72.576 L681.349 27.2059 L688.843 27.2059 L688.843 34.2544 Q691.395 30.082 694.96 28.0971 Q698.525 26.1121 703.426 26.1121 Q708.369 26.1121 711.812 28.6237 Q715.296 31.1352 716.956 35.9153 Z" fill="#000000" fill-rule="nonzero" fill-opacity="1" /><path clip-path="url(#clip970)" d="M769.659 65.7705 L769.659 89.8329 L762.165 89.8329 L762.165 27.2059 L769.659 27.2059 L769.659 34.0924 Q772.008 30.0415 775.573 28.0971 Q779.178 26.1121 784.161 26.1121 Q792.425 26.1121 797.569 32.6746 Q802.755 39.2371 802.755 49.9314 Q802.755 60.6258 797.569 67.1883 Q792.425 73.7508 784.161 73.7508 Q779.178 73.7508 775.573 71.8063 Q772.008 69.8214 769.659 65.7705 M795.017 49.9314 Q795.017 41.7081 791.615 37.0496 Q788.252 32.3505 782.338 32.3505 Q776.424 32.3505 773.021 37.0496 Q769.659 41.7081 769.659 49.9314 Q769.659 58.1548 773.021 62.8538 Q776.424 67.5124 782.338 67.5124 Q788.252 67.5124 791.615 62.8538 Q795.017 58.1548 795.017 49.9314 Z" fill="#000000" fill-rule="nonzero" fill-opacity="1" /><path clip-path="url(#clip970)" d="M815.11 9.54393 L822.564 9.54393 L822.564 72.576 L815.11 72.576 L815.11 9.54393 Z" fill="#000000" fill-rule="nonzero" fill-opacity="1" /><path clip-path="url(#clip970)" d="M876.967 48.0275 L876.967 51.6733 L842.697 51.6733 Q843.183 59.3701 847.315 63.421 Q851.487 67.4314 858.9 67.4314 Q863.194 67.4314 867.205 66.3781 Q871.255 65.3249 875.225 63.2184 L875.225 70.267 Q871.215 71.9684 867.002 72.8596 Q862.789 73.7508 858.455 73.7508 Q847.598 73.7508 841.238 67.4314 Q834.919 61.1119 834.919 50.3365 Q834.919 39.1965 840.914 32.6746 Q846.95 26.1121 857.158 26.1121 Q866.313 26.1121 871.62 32.0264 Q876.967 37.9003 876.967 48.0275 M869.514 45.84 Q869.433 39.7232 866.07 36.0774 Q862.749 32.4315 857.239 32.4315 Q851.001 32.4315 847.234 35.9558 Q843.507 39.4801 842.94 45.8805 L869.514 45.84 Z" fill="#000000" fill-rule="nonzero" fill-opacity="1" /><path clip-path="url(#clip970)" d="M918.043 65.6895 L931.411 65.6895 L931.411 19.5497 L916.869 22.4663 L916.869 15.0127 L931.33 12.096 L939.513 12.096 L939.513 65.6895 L952.881 65.6895 L952.881 72.576 L918.043 72.576 L918.043 65.6895 Z" fill="#000000" fill-rule="nonzero" fill-opacity="1" /><path clip-path="url(#clip970)" d="M970.26 62.2867 L978.807 62.2867 L978.807 69.2543 L972.163 82.2172 L966.938 82.2172 L970.26 69.2543 L970.26 62.2867 Z" fill="#000000" fill-rule="nonzero" fill-opacity="1" /><path clip-path="url(#clip970)" d="M1023.57 65.6895 L1036.94 65.6895 L1036.94 19.5497 L1022.39 22.4663 L1022.39 15.0127 L1036.86 12.096 L1045.04 12.096 L1045.04 65.6895 L1058.41 65.6895 L1058.41 72.576 L1023.57 72.576 L1023.57 65.6895 Z" fill="#000000" fill-rule="nonzero" fill-opacity="1" /><path clip-path="url(#clip970)" d="M1092.43 17.4837 Q1086.12 17.4837 1082.92 23.7221 Q1079.76 29.92 1079.76 42.3968 Q1079.76 54.833 1082.92 61.0714 Q1086.12 67.2693 1092.43 67.2693 Q1098.79 67.2693 1101.95 61.0714 Q1105.15 54.833 1105.15 42.3968 Q1105.15 29.92 1101.95 23.7221 Q1098.79 17.4837 1092.43 17.4837 M1092.43 11.0023 Q1102.6 11.0023 1107.95 19.0636 Q1113.34 27.0843 1113.34 42.3968 Q1113.34 57.6687 1107.95 65.73 Q1102.6 73.7508 1092.43 73.7508 Q1082.27 73.7508 1076.88 65.73 Q1071.53 57.6687 1071.53 42.3968 Q1071.53 27.0843 1076.88 19.0636 Q1082.27 11.0023 1092.43 11.0023 Z" fill="#000000" fill-rule="nonzero" fill-opacity="1" /><path clip-path="url(#clip970)" d="M1145.22 17.4837 Q1138.9 17.4837 1135.7 23.7221 Q1132.54 29.92 1132.54 42.3968 Q1132.54 54.833 1135.7 61.0714 Q1138.9 67.2693 1145.22 67.2693 Q1151.58 67.2693 1154.74 61.0714 Q1157.94 54.833 1157.94 42.3968 Q1157.94 29.92 1154.74 23.7221 Q1151.58 17.4837 1145.22 17.4837 M1145.22 11.0023 Q1155.39 11.0023 1160.73 19.0636 Q1166.12 27.0843 1166.12 42.3968 Q1166.12 57.6687 1160.73 65.73 Q1155.39 73.7508 1145.22 73.7508 Q1135.05 73.7508 1129.66 65.73 Q1124.32 57.6687 1124.32 42.3968 Q1124.32 27.0843 1129.66 19.0636 Q1135.05 11.0023 1145.22 11.0023 Z" fill="#000000" fill-rule="nonzero" fill-opacity="1" /><path clip-path="url(#clip970)" d="M1198 17.4837 Q1191.68 17.4837 1188.48 23.7221 Q1185.32 29.92 1185.32 42.3968 Q1185.32 54.833 1188.48 61.0714 Q1191.68 67.2693 1198 67.2693 Q1204.36 67.2693 1207.52 61.0714 Q1210.72 54.833 1210.72 42.3968 Q1210.72 29.92 1207.52 23.7221 Q1204.36 17.4837 1198 17.4837 M1198 11.0023 Q1208.17 11.0023 1213.52 19.0636 Q1218.9 27.0843 1218.9 42.3968 Q1218.9 57.6687 1213.52 65.73 Q1208.17 73.7508 1198 73.7508 Q1187.83 73.7508 1182.45 65.73 Q1177.1 57.6687 1177.1 42.3968 Q1177.1 27.0843 1182.45 19.0636 Q1187.83 11.0023 1198 11.0023 Z" fill="#000000" fill-rule="nonzero" fill-opacity="1" /><path clip-path="url(#clip970)" d="M1295.18 14.0809 L1295.18 22.0612 Q1290.52 19.8332 1286.39 18.7395 Q1282.26 17.6457 1278.41 17.6457 Q1271.73 17.6457 1268.08 20.2383 Q1264.48 22.8309 1264.48 27.611 Q1264.48 31.6214 1266.87 33.6873 Q1269.3 35.7128 1276.02 36.9686 L1280.96 37.9813 Q1290.12 39.7232 1294.45 44.1387 Q1298.83 48.5136 1298.83 55.8863 Q1298.83 64.6767 1292.91 69.2137 Q1287.04 73.7508 1275.66 73.7508 Q1271.36 73.7508 1266.5 72.7785 Q1261.68 71.8063 1256.5 69.9024 L1256.5 61.4765 Q1261.48 64.2716 1266.26 65.6895 Q1271.04 67.1073 1275.66 67.1073 Q1282.67 67.1073 1286.47 64.3527 Q1290.28 61.598 1290.28 56.4939 Q1290.28 52.0379 1287.53 49.5264 Q1284.81 47.0148 1278.57 45.759 L1273.59 44.7868 Q1264.44 42.9639 1260.34 39.075 Q1256.25 35.1862 1256.25 28.2591 Q1256.25 20.2383 1261.88 15.6203 Q1267.56 11.0023 1277.48 11.0023 Q1281.73 11.0023 1286.15 11.7719 Q1290.56 12.5416 1295.18 14.0809 Z" fill="#000000" fill-rule="nonzero" fill-opacity="1" /><path clip-path="url(#clip970)" d="M1331.88 49.7694 Q1322.85 49.7694 1319.37 51.8354 Q1315.88 53.9013 1315.88 58.8839 Q1315.88 62.8538 1318.48 65.2034 Q1321.11 67.5124 1325.6 67.5124 Q1331.8 67.5124 1335.53 63.1374 Q1339.3 58.7219 1339.3 51.4303 L1339.3 49.7694 L1331.88 49.7694 M1346.75 46.6907 L1346.75 72.576 L1339.3 72.576 L1339.3 65.6895 Q1336.74 69.8214 1332.94 71.8063 Q1329.13 73.7508 1323.62 73.7508 Q1316.65 73.7508 1312.52 69.8619 Q1308.43 65.9325 1308.43 59.3701 Q1308.43 51.7138 1313.53 47.825 Q1318.68 43.9361 1328.85 43.9361 L1339.3 43.9361 L1339.3 43.2069 Q1339.3 38.0623 1335.89 35.2672 Q1332.53 32.4315 1326.42 32.4315 Q1322.53 32.4315 1318.84 33.3632 Q1315.15 34.295 1311.75 36.1584 L1311.75 29.2718 Q1315.84 27.692 1319.69 26.9223 Q1323.54 26.1121 1327.18 26.1121 Q1337.03 26.1121 1341.89 31.2163 Q1346.75 36.3204 1346.75 46.6907 Z" fill="#000000" fill-rule="nonzero" fill-opacity="1" /><path clip-path="url(#clip970)" d="M1397.43 35.9153 Q1400.22 30.8922 1404.11 28.5022 Q1408 26.1121 1413.27 26.1121 Q1420.36 26.1121 1424.2 31.0947 Q1428.05 36.0368 1428.05 45.1919 L1428.05 72.576 L1420.56 72.576 L1420.56 45.4349 Q1420.56 38.913 1418.25 35.7533 Q1415.94 32.5936 1411.2 32.5936 Q1405.41 32.5936 1402.05 36.4419 Q1398.68 40.2903 1398.68 46.9338 L1398.68 72.576 L1391.19 72.576 L1391.19 45.4349 Q1391.19 38.8725 1388.88 35.7533 Q1386.57 32.5936 1381.75 32.5936 Q1376.04 32.5936 1372.68 36.4824 Q1369.31 40.3308 1369.31 46.9338 L1369.31 72.576 L1361.82 72.576 L1361.82 27.2059 L1369.31 27.2059 L1369.31 34.2544 Q1371.87 30.082 1375.43 28.0971 Q1379 26.1121 1383.9 26.1121 Q1388.84 26.1121 1392.28 28.6237 Q1395.77 31.1352 1397.43 35.9153 Z" fill="#000000" fill-rule="nonzero" fill-opacity="1" /><path clip-path="url(#clip970)" d="M1450.13 65.7705 L1450.13 89.8329 L1442.64 89.8329 L1442.64 27.2059 L1450.13 27.2059 L1450.13 34.0924 Q1452.48 30.0415 1456.04 28.0971 Q1459.65 26.1121 1464.63 26.1121 Q1472.9 26.1121 1478.04 32.6746 Q1483.23 39.2371 1483.23 49.9314 Q1483.23 60.6258 1478.04 67.1883 Q1472.9 73.7508 1464.63 73.7508 Q1459.65 73.7508 1456.04 71.8063 Q1452.48 69.8214 1450.13 65.7705 M1475.49 49.9314 Q1475.49 41.7081 1472.09 37.0496 Q1468.72 32.3505 1462.81 32.3505 Q1456.89 32.3505 1453.49 37.0496 Q1450.13 41.7081 1450.13 49.9314 Q1450.13 58.1548 1453.49 62.8538 Q1456.89 67.5124 1462.81 67.5124 Q1468.72 67.5124 1472.09 62.8538 Q1475.49 58.1548 1475.49 49.9314 Z" fill="#000000" fill-rule="nonzero" fill-opacity="1" /><path clip-path="url(#clip970)" d="M1495.58 9.54393 L1503.03 9.54393 L1503.03 72.576 L1495.58 72.576 L1495.58 9.54393 Z" fill="#000000" fill-rule="nonzero" fill-opacity="1" /><path clip-path="url(#clip970)" d="M1557.44 48.0275 L1557.44 51.6733 L1523.17 51.6733 Q1523.65 59.3701 1527.79 63.421 Q1531.96 67.4314 1539.37 67.4314 Q1543.67 67.4314 1547.68 66.3781 Q1551.73 65.3249 1555.7 63.2184 L1555.7 70.267 Q1551.69 71.9684 1547.47 72.8596 Q1543.26 73.7508 1538.93 73.7508 Q1528.07 73.7508 1521.71 67.4314 Q1515.39 61.1119 1515.39 50.3365 Q1515.39 39.1965 1521.39 32.6746 Q1527.42 26.1121 1537.63 26.1121 Q1546.78 26.1121 1552.09 32.0264 Q1557.44 37.9003 1557.44 48.0275 M1549.98 45.84 Q1549.9 39.7232 1546.54 36.0774 Q1543.22 32.4315 1537.71 32.4315 Q1531.47 32.4315 1527.7 35.9558 Q1523.98 39.4801 1523.41 45.8805 L1549.98 45.84 Z" fill="#000000" fill-rule="nonzero" fill-opacity="1" /><path clip-path="url(#clip970)" d="M1596.37 12.096 L1634.61 12.096 L1634.61 18.9825 L1604.55 18.9825 L1604.55 36.8875 L1633.35 36.8875 L1633.35 43.7741 L1604.55 43.7741 L1604.55 65.6895 L1635.34 65.6895 L1635.34 72.576 L1596.37 72.576 L1596.37 12.096 Z" fill="#000000" fill-rule="nonzero" fill-opacity="1" /><path clip-path="url(#clip970)" d="M1677.39 28.5427 L1677.39 35.5912 Q1674.23 33.9709 1670.82 33.1607 Q1667.42 32.3505 1663.77 32.3505 Q1658.22 32.3505 1655.43 34.0519 Q1652.67 35.7533 1652.67 39.156 Q1652.67 41.7486 1654.66 43.2475 Q1656.64 44.7058 1662.64 46.0426 L1665.19 46.6097 Q1673.13 48.3111 1676.45 51.4303 Q1679.82 54.509 1679.82 60.0587 Q1679.82 66.3781 1674.79 70.0644 Q1669.81 73.7508 1661.06 73.7508 Q1657.41 73.7508 1653.44 73.0216 Q1649.52 72.3329 1645.14 70.9151 L1645.14 63.2184 Q1649.27 65.3654 1653.28 66.4591 Q1657.29 67.5124 1661.22 67.5124 Q1666.49 67.5124 1669.32 65.73 Q1672.16 63.9071 1672.16 60.6258 Q1672.16 57.5877 1670.09 55.9673 Q1668.07 54.3469 1661.14 52.8481 L1658.55 52.2405 Q1651.62 50.7821 1648.54 47.7845 Q1645.46 44.7463 1645.46 39.4801 Q1645.46 33.0797 1650 29.5959 Q1654.54 26.1121 1662.88 26.1121 Q1667.02 26.1121 1670.66 26.7198 Q1674.31 27.3274 1677.39 28.5427 Z" fill="#000000" fill-rule="nonzero" fill-opacity="1" /><path clip-path="url(#clip970)" d="M1699.06 14.324 L1699.06 27.2059 L1714.41 27.2059 L1714.41 32.9987 L1699.06 32.9987 L1699.06 57.6282 Q1699.06 63.1779 1700.56 64.7578 Q1702.1 66.3376 1706.75 66.3376 L1714.41 66.3376 L1714.41 72.576 L1706.75 72.576 Q1698.13 72.576 1694.84 69.3758 Q1691.56 66.1351 1691.56 57.6282 L1691.56 32.9987 L1686.09 32.9987 L1686.09 27.2059 L1691.56 27.2059 L1691.56 14.324 L1699.06 14.324 Z" fill="#000000" fill-rule="nonzero" fill-opacity="1" /><path clip-path="url(#clip970)" d="M1724.21 27.2059 L1731.67 27.2059 L1731.67 72.576 L1724.21 72.576 L1724.21 27.2059 M1724.21 9.54393 L1731.67 9.54393 L1731.67 18.9825 L1724.21 18.9825 L1724.21 9.54393 Z" fill="#000000" fill-rule="nonzero" fill-opacity="1" /><path clip-path="url(#clip970)" d="M1782.59 35.9153 Q1785.38 30.8922 1789.27 28.5022 Q1793.16 26.1121 1798.43 26.1121 Q1805.52 26.1121 1809.36 31.0947 Q1813.21 36.0368 1813.21 45.1919 L1813.21 72.576 L1805.72 72.576 L1805.72 45.4349 Q1805.72 38.913 1803.41 35.7533 Q1801.1 32.5936 1796.36 32.5936 Q1790.57 32.5936 1787.21 36.4419 Q1783.84 40.2903 1783.84 46.9338 L1783.84 72.576 L1776.35 72.576 L1776.35 45.4349 Q1776.35 38.8725 1774.04 35.7533 Q1771.73 32.5936 1766.91 32.5936 Q1761.2 32.5936 1757.84 36.4824 Q1754.47 40.3308 1754.47 46.9338 L1754.47 72.576 L1746.98 72.576 L1746.98 27.2059 L1754.47 27.2059 L1754.47 34.2544 Q1757.03 30.082 1760.59 28.0971 Q1764.16 26.1121 1769.06 26.1121 Q1774 26.1121 1777.44 28.6237 Q1780.93 31.1352 1782.59 35.9153 Z" fill="#000000" fill-rule="nonzero" fill-opacity="1" /><path clip-path="url(#clip970)" d="M1848.7 49.7694 Q1839.66 49.7694 1836.18 51.8354 Q1832.7 53.9013 1832.7 58.8839 Q1832.7 62.8538 1835.29 65.2034 Q1837.92 67.5124 1842.42 67.5124 Q1848.62 67.5124 1852.34 63.1374 Q1856.11 58.7219 1856.11 51.4303 L1856.11 49.7694 L1848.7 49.7694 M1863.56 46.6907 L1863.56 72.576 L1856.11 72.576 L1856.11 65.6895 Q1853.56 69.8214 1849.75 71.8063 Q1845.94 73.7508 1840.43 73.7508 Q1833.47 73.7508 1829.33 69.8619 Q1825.24 65.9325 1825.24 59.3701 Q1825.24 51.7138 1830.35 47.825 Q1835.49 43.9361 1845.66 43.9361 L1856.11 43.9361 L1856.11 43.2069 Q1856.11 38.0623 1852.71 35.2672 Q1849.35 32.4315 1843.23 32.4315 Q1839.34 32.4315 1835.65 33.3632 Q1831.97 34.295 1828.57 36.1584 L1828.57 29.2718 Q1832.66 27.692 1836.5 26.9223 Q1840.35 26.1121 1844 26.1121 Q1853.84 26.1121 1858.7 31.2163 Q1863.56 36.3204 1863.56 46.6907 Z" fill="#000000" fill-rule="nonzero" fill-opacity="1" /><path clip-path="url(#clip970)" d="M1886.29 14.324 L1886.29 27.2059 L1901.64 27.2059 L1901.64 32.9987 L1886.29 32.9987 L1886.29 57.6282 Q1886.29 63.1779 1887.79 64.7578 Q1889.33 66.3376 1893.99 66.3376 L1901.64 66.3376 L1901.64 72.576 L1893.99 72.576 Q1885.36 72.576 1882.08 69.3758 Q1878.8 66.1351 1878.8 57.6282 L1878.8 32.9987 L1873.33 32.9987 L1873.33 27.2059 L1878.8 27.2059 L1878.8 14.324 L1886.29 14.324 Z" fill="#000000" fill-rule="nonzero" fill-opacity="1" /><path clip-path="url(#clip970)" d="M1950.25 48.0275 L1950.25 51.6733 L1915.98 51.6733 Q1916.47 59.3701 1920.6 63.421 Q1924.77 67.4314 1932.19 67.4314 Q1936.48 67.4314 1940.49 66.3781 Q1944.54 65.3249 1948.51 63.2184 L1948.51 70.267 Q1944.5 71.9684 1940.29 72.8596 Q1936.08 73.7508 1931.74 73.7508 Q1920.89 73.7508 1914.53 67.4314 Q1908.21 61.1119 1908.21 50.3365 Q1908.21 39.1965 1914.2 32.6746 Q1920.24 26.1121 1930.45 26.1121 Q1939.6 26.1121 1944.91 32.0264 Q1950.25 37.9003 1950.25 48.0275 M1942.8 45.84 Q1942.72 39.7232 1939.36 36.0774 Q1936.04 32.4315 1930.53 32.4315 Q1924.29 32.4315 1920.52 35.9558 Q1916.79 39.4801 1916.23 45.8805 L1942.8 45.84 Z" fill="#000000" fill-rule="nonzero" fill-opacity="1" /><path clip-path="url(#clip970)" d="M1964.39 62.2867 L1972.94 62.2867 L1972.94 69.2543 L1966.3 82.2172 L1961.07 82.2172 L1964.39 69.2543 L1964.39 62.2867 Z" fill="#000000" fill-rule="nonzero" fill-opacity="1" /><path clip-path="url(#clip970)" d="M2048.08 20.0358 Q2043.95 17.2001 2034.27 17.2001 Q2024.02 17.2001 2024.02 21.9397 Q2024.02 25.6665 2034.72 27.611 Q2043.14 29.1098 2047.88 33.6468 Q2053.63 39.1155 2053.63 50.3365 Q2053.63 61.0714 2048.08 67.3908 Q2042.53 73.7508 2032.81 73.7508 Q2023.13 73.7508 2017.54 67.3908 Q2011.99 61.0714 2011.99 49.9314 Q2011.99 41.6676 2017.54 34.9836 Q2019.69 32.391 2022.72 30.9327 Q2016.41 27.7325 2016.41 22.0207 Q2016.41 11.0023 2034.27 11.0023 Q2043.22 11.0023 2048.08 13.8379 L2048.08 20.0358 M2028.32 32.9582 Q2025.56 34.1329 2023.33 37.0901 Q2019.85 41.6676 2019.85 49.9314 Q2019.85 58.1548 2023.29 62.7728 Q2026.78 67.4314 2032.81 67.4314 Q2038.77 67.4314 2042.25 62.7323 Q2045.73 58.0333 2045.73 50.3365 Q2045.73 42.2752 2042.05 38.3864 Q2038.12 34.2139 2033.01 33.7683 Q2030.42 33.5253 2028.32 32.9582 Z" fill="#000000" fill-rule="nonzero" fill-opacity="1" /><path clip-path="url(#clip970)" d="M2103.7 27.2059 L2087.3 49.2833 L2104.55 72.576 L2095.76 72.576 L2082.56 54.752 L2069.35 72.576 L2060.56 72.576 L2078.18 48.8377 L2062.06 27.2059 L2070.85 27.2059 L2082.88 43.369 L2094.91 27.2059 L2103.7 27.2059 Z" fill="#000000" fill-rule="nonzero" fill-opacity="1" /><path clip-path="url(#clip970)" d="M2142.43 34.9026 L2194.36 34.9026 L2194.36 41.7081 L2142.43 41.7081 L2142.43 34.9026 M2142.43 51.4303 L2194.36 51.4303 L2194.36 58.3168 L2142.43 58.3168 L2142.43 51.4303 Z" fill="#000000" fill-rule="nonzero" fill-opacity="1" /><path clip-path="url(#clip970)" d="M2239.81 65.6895 L2253.18 65.6895 L2253.18 19.5497 L2238.64 22.4663 L2238.64 15.0127 L2253.1 12.096 L2261.28 12.096 L2261.28 65.6895 L2274.65 65.6895 L2274.65 72.576 L2239.81 72.576 L2239.81 65.6895 Z" fill="#000000" fill-rule="nonzero" fill-opacity="1" /><path clip-path="url(#clip970)" d="M2291.18 62.2867 L2299.73 62.2867 L2299.73 72.576 L2291.18 72.576 L2291.18 62.2867 Z" fill="#000000" fill-rule="nonzero" fill-opacity="1" /><path clip-path="url(#clip970)" d="M2335.05 17.4837 Q2328.73 17.4837 2325.53 23.7221 Q2322.37 29.92 2322.37 42.3968 Q2322.37 54.833 2325.53 61.0714 Q2328.73 67.2693 2335.05 67.2693 Q2341.41 67.2693 2344.57 61.0714 Q2347.77 54.833 2347.77 42.3968 Q2347.77 29.92 2344.57 23.7221 Q2341.41 17.4837 2335.05 17.4837 M2335.05 11.0023 Q2345.22 11.0023 2350.56 19.0636 Q2355.95 27.0843 2355.95 42.3968 Q2355.95 57.6687 2350.56 65.73 Q2345.22 73.7508 2335.05 73.7508 Q2324.88 73.7508 2319.49 65.73 Q2314.15 57.6687 2314.15 42.3968 Q2314.15 27.0843 2319.49 19.0636 Q2324.88 11.0023 2335.05 11.0023 Z" fill="#000000" fill-rule="nonzero" fill-opacity="1" /><polyline clip-path="url(#clip972)" style="stroke:#009af9; stroke-linecap:round; stroke-linejoin:round; stroke-width:8; stroke-opacity:1; fill:none" points="279.916,923.091 300.244,872.403 320.572,803.821 340.9,728.957 361.228,662.574 381.556,615.278 401.884,590.955 422.212,589.879 442.54,612.029 462.868,657.265 483.196,722.212 503.523,796.896 523.851,866.65 544.179,919.305 564.507,949.454 584.835,956.318 605.163,940.003 625.491,900.435 645.819,839.777 666.147,766.235 686.475,693.877 706.803,636.161 727.131,600.194 747.459,587.526 767.787,598.033 "/>
<path clip-path="url(#clip972)" d="M788.115 929.722 L808.443 1002.09 L828.77 1121.04 L849.098 1215.04 L869.426 1311.53 L889.754 1367.26 L910.082 1384.73 L930.41 1379.74 L950.738 1343.97 L971.066 1264.95 L991.394 1160.97 L1011.72 1078.62 L1032.05 1008.75 L1052.38 938.041 L1072.71 897.281 L1093.03 896.449 L1113.36 934.713 L1133.69 982.959 L1154.02 1083.61 L1174.35 1173.45 L1194.67 1247.48 L1215 1340.65 L1235.33 1368.93 L1255.66 1386.4 L1275.99 1343.14 L1296.31 1302.38 L1316.64 1206.72 L1336.97 1141.84 L1357.3 1047.84 L1377.62 948.854 L1397.95 898.945 L1418.28 907.263 L1438.61 923.068 L1458.94 955.509 L1479.26 1020.39 L1499.59 1121.04 L1519.92 1250.81 L1540.25 1295.73 L1560.58 1367.26 L1580.9 1363.1 L1601.23 1372.25 L1621.56 1321.51 L1641.89 1257.46 L1662.22 1165.96 L1682.54 1069.47 L1702.87 964.659 L1723.2 928.891 L1743.53 889.795 L1763.86 896.449 L1784.18 913.918 L1804.51 992.941 L1824.84 1084.44 L1845.17 1199.23 L1865.5 1277.43 L1885.82 1329.83 L1906.15 1375.58 L1926.48 1380.57 L1946.81 1373.92 L1967.13 1296.56 L1987.46 1235 L2007.79 1085.27 L2028.12 1012.07 L2048.45 959.668 L2068.77 898.113 L2089.1 884.804 L2109.43 921.404 L2129.76 936.377 L2150.09 1016.23 L2170.41 1127.7 L2190.74 1227.52 L2211.07 1306.54 L2231.4 1369.76 L2251.73 1383.9 L2272.05 1363.1 L2292.38 1329.83 L2292.38 605.284 L2272.05 638.557 L2251.73 659.353 L2231.4 645.212 L2211.07 581.993 L2190.74 502.969 L2170.41 403.15 L2150.09 291.685 L2129.76 211.83 L2109.43 196.857 L2089.1 160.256 L2068.77 173.566 L2048.45 235.121 L2028.12 287.526 L2007.79 360.727 L1987.46 510.456 L1967.13 572.011 L1946.81 649.371 L1926.48 656.025 L1906.15 651.035 L1885.82 605.284 L1865.5 552.879 L1845.17 474.687 L1824.84 359.895 L1804.51 268.394 L1784.18 189.37 L1763.86 171.902 L1743.53 165.247 L1723.2 204.343 L1702.87 240.112 L1682.54 344.922 L1662.22 441.414 L1641.89 532.915 L1621.56 596.966 L1601.23 647.707 L1580.9 638.557 L1560.58 642.716 L1540.25 571.179 L1519.92 526.26 L1499.59 396.495 L1479.26 295.844 L1458.94 230.962 L1438.61 198.52 L1418.28 182.716 L1397.95 174.397 L1377.62 224.307 L1357.3 323.294 L1336.97 417.291 L1316.64 482.174 L1296.31 577.834 L1275.99 618.593 L1255.66 661.848 L1235.33 644.38 L1215 616.098 L1194.67 522.933 L1174.35 448.9 L1154.02 359.063 L1133.69 258.412 L1113.36 210.166 L1093.03 171.902 L1072.71 172.734 L1052.38 213.493 L1032.05 284.199 L1011.72 354.072 L991.394 436.423 L971.066 540.401 L950.738 619.425 L930.41 655.194 L910.082 660.185 L889.754 642.716 L869.426 586.984 L849.098 490.492 L828.77 396.495 L808.443 277.544 L788.115 205.175  Z" fill="#e26f46" fill-rule="evenodd" fill-opacity="0.5"/>
<polyline clip-path="url(#clip972)" style="stroke:#e26f46; stroke-linecap:round; stroke-linejoin:round; stroke-width:8; stroke-opacity:1; fill:none" stroke-dasharray="32, 16, 4, 16" points="788.115,567.449 808.443,639.818 828.77,758.769 849.098,852.766 869.426,949.257 889.754,1004.99 910.082,1022.46 930.41,1017.47 950.738,981.699 971.066,902.675 991.394,798.697 1011.72,716.346 1032.05,646.472 1052.38,575.767 1072.71,535.007 1093.03,534.176 1113.36,572.44 1133.69,620.686 1154.02,721.337 1174.35,811.174 1194.67,885.207 1215,978.371 1235.33,1006.65 1255.66,1024.12 1275.99,980.867 1296.31,940.107 1316.64,844.447 1336.97,779.565 1357.3,685.568 1377.62,586.581 1397.95,536.671 1418.28,544.989 1438.61,560.794 1458.94,593.235 1479.26,658.118 1499.59,758.769 1519.92,888.534 1540.25,933.453 1560.58,1004.99 1580.9,1000.83 1601.23,1009.98 1621.56,959.239 1641.89,895.189 1662.22,803.688 1682.54,707.196 1702.87,602.385 1723.2,566.617 1743.53,527.521 1763.86,534.176 1784.18,551.644 1804.51,630.668 1824.84,722.169 1845.17,836.961 1865.5,915.153 1885.82,967.558 1906.15,1013.31 1926.48,1018.3 1946.81,1011.64 1967.13,934.285 1987.46,872.729 2007.79,723 2028.12,649.8 2048.45,597.394 2068.77,535.839 2089.1,522.53 2109.43,559.13 2129.76,574.103 2150.09,653.959 2170.41,765.424 2190.74,865.243 2211.07,944.267 2231.4,1007.49 2251.73,1021.63 2272.05,1000.83 2292.38,967.558 "/>
<polyline clip-path="url(#clip972)" style="stroke:#3da44d; stroke-linecap:round; stroke-linejoin:round; stroke-width:8; stroke-opacity:1; fill:none" points="788.115,631.845 808.443,687.728 828.77,759.218 849.098,833.294 869.426,895.61 889.754,937.299 910.082,955.78 930.41,951.071 950.738,923.091 971.066,872.403 991.394,803.821 1011.72,728.957 1032.05,662.574 1052.38,615.278 1072.71,590.955 1093.03,589.879 1113.36,612.029 1133.69,657.265 1154.02,722.212 1174.35,796.896 1194.67,866.65 1215,919.305 1235.33,949.454 1255.66,956.318 1275.99,940.003 1296.31,900.435 1316.64,839.777 1336.97,766.235 1357.3,693.877 1377.62,636.161 1397.95,600.194 1418.28,587.526 1438.61,598.033 1458.94,631.845 1479.26,687.728 1499.59,759.218 1519.92,833.294 1540.25,895.61 1560.58,937.299 1580.9,955.78 1601.23,951.071 1621.56,923.091 1641.89,872.403 1662.22,803.821 1682.54,728.957 1702.87,662.574 1723.2,615.278 1743.53,590.955 1763.86,589.879 1784.18,612.029 1804.51,657.265 1824.84,722.212 1845.17,796.896 1865.5,866.65 1885.82,919.305 1906.15,949.454 1926.48,956.318 1946.81,940.003 1967.13,900.435 1987.46,839.777 2007.79,766.235 2028.12,693.877 2048.45,636.161 2068.77,600.194 2089.1,587.526 2109.43,598.033 2129.76,631.845 2150.09,687.728 2170.41,759.218 2190.74,833.294 2211.07,895.61 2231.4,937.299 2251.73,955.78 2272.05,951.071 2292.38,923.091 "/>
<path clip-path="url(#clip970)" d="M290.649 1379.86 L910.751 1379.86 L910.751 1172.5 L290.649 1172.5  Z" fill="#ffffff" fill-rule="evenodd" fill-opacity="1"/>
<polyline clip-path="url(#clip970)" style="stroke:#000000; stroke-linecap:round; stroke-linejoin:round; stroke-width:4; stroke-opacity:1; fill:none" points="290.649,1379.86 910.751,1379.86 910.751,1172.5 290.649,1172.5 290.649,1379.86 "/>
<polyline clip-path="url(#clip970)" style="stroke:#009af9; stroke-linecap:round; stroke-linejoin:round; stroke-width:8; stroke-opacity:1; fill:none" points="314.352,1224.34 456.566,1224.34 "/>
<path clip-path="url(#clip970)" d="M508.139 1209.72 L508.139 1214.65 Q505.777 1212.45 503.092 1211.36 Q500.43 1210.27 497.421 1210.27 Q491.495 1210.27 488.347 1213.91 Q485.199 1217.52 485.199 1224.37 Q485.199 1231.2 488.347 1234.83 Q491.495 1238.44 497.421 1238.44 Q500.43 1238.44 503.092 1237.36 Q505.777 1236.27 508.139 1234.07 L508.139 1238.95 Q505.685 1240.62 502.93 1241.45 Q500.199 1242.29 497.143 1242.29 Q489.296 1242.29 484.782 1237.5 Q480.268 1232.68 480.268 1224.37 Q480.268 1216.04 484.782 1211.25 Q489.296 1206.43 497.143 1206.43 Q500.245 1206.43 502.977 1207.26 Q505.731 1208.07 508.139 1209.72 Z" fill="#000000" fill-rule="nonzero" fill-opacity="1" /><path clip-path="url(#clip970)" d="M525.222 1218.68 Q521.796 1218.68 519.805 1221.36 Q517.814 1224.02 517.814 1228.68 Q517.814 1233.33 519.782 1236.01 Q521.773 1238.68 525.222 1238.68 Q528.625 1238.68 530.615 1235.99 Q532.606 1233.31 532.606 1228.68 Q532.606 1224.07 530.615 1221.38 Q528.625 1218.68 525.222 1218.68 M525.222 1215.07 Q530.777 1215.07 533.949 1218.68 Q537.12 1222.29 537.12 1228.68 Q537.12 1235.04 533.949 1238.68 Q530.777 1242.29 525.222 1242.29 Q519.643 1242.29 516.472 1238.68 Q513.324 1235.04 513.324 1228.68 Q513.324 1222.29 516.472 1218.68 Q519.643 1215.07 525.222 1215.07 Z" fill="#000000" fill-rule="nonzero" fill-opacity="1" /><path clip-path="url(#clip970)" d="M565.731 1225.97 L565.731 1241.62 L561.472 1241.62 L561.472 1226.11 Q561.472 1222.43 560.036 1220.6 Q558.601 1218.77 555.731 1218.77 Q552.282 1218.77 550.291 1220.97 Q548.3 1223.17 548.3 1226.96 L548.3 1241.62 L544.018 1241.62 L544.018 1215.69 L548.3 1215.69 L548.3 1219.72 Q549.828 1217.38 551.888 1216.22 Q553.972 1215.07 556.68 1215.07 Q561.148 1215.07 563.439 1217.84 Q565.731 1220.6 565.731 1225.97 Z" fill="#000000" fill-rule="nonzero" fill-opacity="1" /><path clip-path="url(#clip970)" d="M591.286 1219.63 L591.286 1205.6 L595.545 1205.6 L595.545 1241.62 L591.286 1241.62 L591.286 1237.73 Q589.944 1240.04 587.883 1241.18 Q585.846 1242.29 582.976 1242.29 Q578.277 1242.29 575.314 1238.54 Q572.374 1234.79 572.374 1228.68 Q572.374 1222.57 575.314 1218.82 Q578.277 1215.07 582.976 1215.07 Q585.846 1215.07 587.883 1216.2 Q589.944 1217.31 591.286 1219.63 M576.772 1228.68 Q576.772 1233.38 578.694 1236.06 Q580.638 1238.72 584.018 1238.72 Q587.397 1238.72 589.342 1236.06 Q591.286 1233.38 591.286 1228.68 Q591.286 1223.98 589.342 1221.32 Q587.397 1218.63 584.018 1218.63 Q580.638 1218.63 578.694 1221.32 Q576.772 1223.98 576.772 1228.68 Z" fill="#000000" fill-rule="nonzero" fill-opacity="1" /><path clip-path="url(#clip970)" d="M604.319 1215.69 L608.578 1215.69 L608.578 1241.62 L604.319 1241.62 L604.319 1215.69 M604.319 1205.6 L608.578 1205.6 L608.578 1210.99 L604.319 1210.99 L604.319 1205.6 Z" fill="#000000" fill-rule="nonzero" fill-opacity="1" /><path clip-path="url(#clip970)" d="M621.703 1208.33 L621.703 1215.69 L630.476 1215.69 L630.476 1219 L621.703 1219 L621.703 1233.07 Q621.703 1236.25 622.559 1237.15 Q623.439 1238.05 626.101 1238.05 L630.476 1238.05 L630.476 1241.62 L626.101 1241.62 Q621.17 1241.62 619.295 1239.79 Q617.42 1237.94 617.42 1233.07 L617.42 1219 L614.295 1219 L614.295 1215.69 L617.42 1215.69 L617.42 1208.33 L621.703 1208.33 Z" fill="#000000" fill-rule="nonzero" fill-opacity="1" /><path clip-path="url(#clip970)" d="M636.078 1215.69 L640.337 1215.69 L640.337 1241.62 L636.078 1241.62 L636.078 1215.69 M636.078 1205.6 L640.337 1205.6 L640.337 1210.99 L636.078 1210.99 L636.078 1205.6 Z" fill="#000000" fill-rule="nonzero" fill-opacity="1" /><path clip-path="url(#clip970)" d="M659.295 1218.68 Q655.869 1218.68 653.878 1221.36 Q651.888 1224.02 651.888 1228.68 Q651.888 1233.33 653.855 1236.01 Q655.846 1238.68 659.295 1238.68 Q662.698 1238.68 664.689 1235.99 Q666.679 1233.31 666.679 1228.68 Q666.679 1224.07 664.689 1221.38 Q662.698 1218.68 659.295 1218.68 M659.295 1215.07 Q664.851 1215.07 668.022 1218.68 Q671.193 1222.29 671.193 1228.68 Q671.193 1235.04 668.022 1238.68 Q664.851 1242.29 659.295 1242.29 Q653.716 1242.29 650.545 1238.68 Q647.397 1235.04 647.397 1228.68 Q647.397 1222.29 650.545 1218.68 Q653.716 1215.07 659.295 1215.07 Z" fill="#000000" fill-rule="nonzero" fill-opacity="1" /><path clip-path="url(#clip970)" d="M699.804 1225.97 L699.804 1241.62 L695.545 1241.62 L695.545 1226.11 Q695.545 1222.43 694.11 1220.6 Q692.675 1218.77 689.804 1218.77 Q686.355 1218.77 684.364 1220.97 Q682.374 1223.17 682.374 1226.96 L682.374 1241.62 L678.091 1241.62 L678.091 1215.69 L682.374 1215.69 L682.374 1219.72 Q683.901 1217.38 685.962 1216.22 Q688.045 1215.07 690.753 1215.07 Q695.221 1215.07 697.513 1217.84 Q699.804 1220.6 699.804 1225.97 Z" fill="#000000" fill-rule="nonzero" fill-opacity="1" /><path clip-path="url(#clip970)" d="M730.475 1227.59 L730.475 1229.67 L710.892 1229.67 Q711.17 1234.07 713.531 1236.38 Q715.915 1238.68 720.151 1238.68 Q722.605 1238.68 724.897 1238.07 Q727.211 1237.47 729.48 1236.27 L729.48 1240.3 Q727.188 1241.27 724.781 1241.78 Q722.373 1242.29 719.897 1242.29 Q713.693 1242.29 710.059 1238.68 Q706.448 1235.07 706.448 1228.91 Q706.448 1222.54 709.874 1218.82 Q713.323 1215.07 719.156 1215.07 Q724.387 1215.07 727.42 1218.45 Q730.475 1221.8 730.475 1227.59 M726.216 1226.34 Q726.17 1222.84 724.248 1220.76 Q722.35 1218.68 719.202 1218.68 Q715.637 1218.68 713.485 1220.69 Q711.355 1222.7 711.031 1226.36 L726.216 1226.34 Z" fill="#000000" fill-rule="nonzero" fill-opacity="1" /><path clip-path="url(#clip970)" d="M754.526 1219.63 L754.526 1205.6 L758.785 1205.6 L758.785 1241.62 L754.526 1241.62 L754.526 1237.73 Q753.184 1240.04 751.123 1241.18 Q749.086 1242.29 746.216 1242.29 Q741.517 1242.29 738.554 1238.54 Q735.614 1234.79 735.614 1228.68 Q735.614 1222.57 738.554 1218.82 Q741.517 1215.07 746.216 1215.07 Q749.086 1215.07 751.123 1216.2 Q753.184 1217.31 754.526 1219.63 M740.012 1228.68 Q740.012 1233.38 741.934 1236.06 Q743.878 1238.72 747.258 1238.72 Q750.637 1238.72 752.582 1236.06 Q754.526 1233.38 754.526 1228.68 Q754.526 1223.98 752.582 1221.32 Q750.637 1218.63 747.258 1218.63 Q743.878 1218.63 741.934 1221.32 Q740.012 1223.98 740.012 1228.68 Z" fill="#000000" fill-rule="nonzero" fill-opacity="1" /><path clip-path="url(#clip970)" d="M787.489 1210.9 L787.489 1237.77 L793.137 1237.77 Q800.29 1237.77 803.6 1234.53 Q806.933 1231.29 806.933 1224.3 Q806.933 1217.36 803.6 1214.14 Q800.29 1210.9 793.137 1210.9 L787.489 1210.9 M782.813 1207.06 L792.419 1207.06 Q802.466 1207.06 807.165 1211.25 Q811.864 1215.41 811.864 1224.3 Q811.864 1233.24 807.142 1237.43 Q802.419 1241.62 792.419 1241.62 L782.813 1241.62 L782.813 1207.06 Z" fill="#000000" fill-rule="nonzero" fill-opacity="1" /><path clip-path="url(#clip970)" d="M830.915 1228.58 Q825.753 1228.58 823.762 1229.76 Q821.771 1230.95 821.771 1233.79 Q821.771 1236.06 823.253 1237.4 Q824.757 1238.72 827.327 1238.72 Q830.868 1238.72 832.998 1236.22 Q835.151 1233.7 835.151 1229.53 L835.151 1228.58 L830.915 1228.58 M839.41 1226.82 L839.41 1241.62 L835.151 1241.62 L835.151 1237.68 Q833.692 1240.04 831.516 1241.18 Q829.341 1242.29 826.192 1242.29 Q822.211 1242.29 819.85 1240.07 Q817.512 1237.82 817.512 1234.07 Q817.512 1229.7 820.429 1227.47 Q823.368 1225.25 829.178 1225.25 L835.151 1225.25 L835.151 1224.83 Q835.151 1221.89 833.206 1220.3 Q831.285 1218.68 827.79 1218.68 Q825.567 1218.68 823.461 1219.21 Q821.354 1219.74 819.41 1220.81 L819.41 1216.87 Q821.748 1215.97 823.947 1215.53 Q826.146 1215.07 828.229 1215.07 Q833.854 1215.07 836.632 1217.98 Q839.41 1220.9 839.41 1226.82 Z" fill="#000000" fill-rule="nonzero" fill-opacity="1" /><path clip-path="url(#clip970)" d="M852.396 1208.33 L852.396 1215.69 L861.169 1215.69 L861.169 1219 L852.396 1219 L852.396 1233.07 Q852.396 1236.25 853.252 1237.15 Q854.132 1238.05 856.794 1238.05 L861.169 1238.05 L861.169 1241.62 L856.794 1241.62 Q851.864 1241.62 849.989 1239.79 Q848.114 1237.94 848.114 1233.07 L848.114 1219 L844.989 1219 L844.989 1215.69 L848.114 1215.69 L848.114 1208.33 L852.396 1208.33 Z" fill="#000000" fill-rule="nonzero" fill-opacity="1" /><path clip-path="url(#clip970)" d="M878.553 1228.58 Q873.391 1228.58 871.4 1229.76 Q869.41 1230.95 869.41 1233.79 Q869.41 1236.06 870.891 1237.4 Q872.396 1238.72 874.965 1238.72 Q878.507 1238.72 880.637 1236.22 Q882.789 1233.7 882.789 1229.53 L882.789 1228.58 L878.553 1228.58 M887.049 1226.82 L887.049 1241.62 L882.789 1241.62 L882.789 1237.68 Q881.331 1240.04 879.155 1241.18 Q876.979 1242.29 873.831 1242.29 Q869.85 1242.29 867.488 1240.07 Q865.151 1237.82 865.151 1234.07 Q865.151 1229.7 868.067 1227.47 Q871.007 1225.25 876.817 1225.25 L882.789 1225.25 L882.789 1224.83 Q882.789 1221.89 880.845 1220.3 Q878.924 1218.68 875.428 1218.68 Q873.206 1218.68 871.1 1219.21 Q868.993 1219.74 867.049 1220.81 L867.049 1216.87 Q869.387 1215.97 871.586 1215.53 Q873.785 1215.07 875.868 1215.07 Q881.493 1215.07 884.271 1217.98 Q887.049 1220.9 887.049 1226.82 Z" fill="#000000" fill-rule="nonzero" fill-opacity="1" /><polyline clip-path="url(#clip970)" style="stroke:#e26f46; stroke-linecap:round; stroke-linejoin:round; stroke-width:8; stroke-opacity:1; fill:none" stroke-dasharray="32, 16, 4, 16" points="314.352,1276.18 456.566,1276.18 "/>
<path clip-path="url(#clip970)" d="M484.944 1262.74 L484.944 1275.72 L490.824 1275.72 Q494.088 1275.72 495.87 1274.04 Q497.652 1272.35 497.652 1269.22 Q497.652 1266.12 495.87 1264.43 Q494.088 1262.74 490.824 1262.74 L484.944 1262.74 M480.268 1258.9 L490.824 1258.9 Q496.634 1258.9 499.597 1261.54 Q502.583 1264.15 502.583 1269.22 Q502.583 1274.34 499.597 1276.95 Q496.634 1279.57 490.824 1279.57 L484.944 1279.57 L484.944 1293.46 L480.268 1293.46 L480.268 1258.9 Z" fill="#000000" fill-rule="nonzero" fill-opacity="1" /><path clip-path="url(#clip970)" d="M522.861 1271.51 Q522.143 1271.1 521.287 1270.91 Q520.453 1270.7 519.435 1270.7 Q515.824 1270.7 513.879 1273.06 Q511.958 1275.4 511.958 1279.8 L511.958 1293.46 L507.676 1293.46 L507.676 1267.53 L511.958 1267.53 L511.958 1271.56 Q513.301 1269.2 515.453 1268.06 Q517.606 1266.91 520.685 1266.91 Q521.125 1266.91 521.657 1266.97 Q522.189 1267.02 522.838 1267.14 L522.861 1271.51 Z" fill="#000000" fill-rule="nonzero" fill-opacity="1" /><path clip-path="url(#clip970)" d="M548.462 1279.43 L548.462 1281.51 L528.879 1281.51 Q529.157 1285.91 531.518 1288.22 Q533.902 1290.52 538.138 1290.52 Q540.592 1290.52 542.884 1289.91 Q545.199 1289.31 547.467 1288.11 L547.467 1292.14 Q545.175 1293.11 542.768 1293.62 Q540.361 1294.13 537.884 1294.13 Q531.68 1294.13 528.046 1290.52 Q524.435 1286.91 524.435 1280.75 Q524.435 1274.38 527.861 1270.66 Q531.31 1266.91 537.143 1266.91 Q542.374 1266.91 545.407 1270.29 Q548.462 1273.64 548.462 1279.43 M544.203 1278.18 Q544.157 1274.68 542.236 1272.6 Q540.337 1270.52 537.189 1270.52 Q533.625 1270.52 531.472 1272.53 Q529.342 1274.54 529.018 1278.2 L544.203 1278.18 Z" fill="#000000" fill-rule="nonzero" fill-opacity="1" /><path clip-path="url(#clip970)" d="M572.513 1271.47 L572.513 1257.44 L576.772 1257.44 L576.772 1293.46 L572.513 1293.46 L572.513 1289.57 Q571.171 1291.88 569.11 1293.02 Q567.073 1294.13 564.203 1294.13 Q559.504 1294.13 556.541 1290.38 Q553.601 1286.63 553.601 1280.52 Q553.601 1274.41 556.541 1270.66 Q559.504 1266.91 564.203 1266.91 Q567.073 1266.91 569.11 1268.04 Q571.171 1269.15 572.513 1271.47 M557.999 1280.52 Q557.999 1285.22 559.921 1287.9 Q561.865 1290.56 565.245 1290.56 Q568.624 1290.56 570.569 1287.9 Q572.513 1285.22 572.513 1280.52 Q572.513 1275.82 570.569 1273.16 Q568.624 1270.47 565.245 1270.47 Q561.865 1270.47 559.921 1273.16 Q557.999 1275.82 557.999 1280.52 Z" fill="#000000" fill-rule="nonzero" fill-opacity="1" /><path clip-path="url(#clip970)" d="M585.546 1267.53 L589.805 1267.53 L589.805 1293.46 L585.546 1293.46 L585.546 1267.53 M585.546 1257.44 L589.805 1257.44 L589.805 1262.83 L585.546 1262.83 L585.546 1257.44 Z" fill="#000000" fill-rule="nonzero" fill-opacity="1" /><path clip-path="url(#clip970)" d="M617.374 1268.53 L617.374 1272.51 Q615.569 1271.51 613.74 1271.03 Q611.934 1270.52 610.082 1270.52 Q605.939 1270.52 603.647 1273.16 Q601.356 1275.77 601.356 1280.52 Q601.356 1285.26 603.647 1287.9 Q605.939 1290.52 610.082 1290.52 Q611.934 1290.52 613.74 1290.03 Q615.569 1289.52 617.374 1288.53 L617.374 1292.46 Q615.592 1293.29 613.67 1293.71 Q611.772 1294.13 609.619 1294.13 Q603.763 1294.13 600.314 1290.45 Q596.865 1286.77 596.865 1280.52 Q596.865 1274.17 600.337 1270.54 Q603.832 1266.91 609.897 1266.91 Q611.865 1266.91 613.74 1267.32 Q615.615 1267.72 617.374 1268.53 Z" fill="#000000" fill-rule="nonzero" fill-opacity="1" /><path clip-path="url(#clip970)" d="M628.994 1260.17 L628.994 1267.53 L637.767 1267.53 L637.767 1270.84 L628.994 1270.84 L628.994 1284.91 Q628.994 1288.09 629.851 1288.99 Q630.73 1289.89 633.392 1289.89 L637.767 1289.89 L637.767 1293.46 L633.392 1293.46 Q628.462 1293.46 626.587 1291.63 Q624.712 1289.78 624.712 1284.91 L624.712 1270.84 L621.587 1270.84 L621.587 1267.53 L624.712 1267.53 L624.712 1260.17 L628.994 1260.17 Z" fill="#000000" fill-rule="nonzero" fill-opacity="1" /><path clip-path="url(#clip970)" d="M665.545 1279.43 L665.545 1281.51 L645.962 1281.51 Q646.24 1285.91 648.601 1288.22 Q650.985 1290.52 655.221 1290.52 Q657.675 1290.52 659.966 1289.91 Q662.281 1289.31 664.55 1288.11 L664.55 1292.14 Q662.258 1293.11 659.851 1293.62 Q657.443 1294.13 654.966 1294.13 Q648.763 1294.13 645.129 1290.52 Q641.517 1286.91 641.517 1280.75 Q641.517 1274.38 644.943 1270.66 Q648.392 1266.91 654.226 1266.91 Q659.457 1266.91 662.49 1270.29 Q665.545 1273.64 665.545 1279.43 M661.286 1278.18 Q661.24 1274.68 659.318 1272.6 Q657.42 1270.52 654.272 1270.52 Q650.707 1270.52 648.554 1272.53 Q646.425 1274.54 646.101 1278.2 L661.286 1278.18 Z" fill="#000000" fill-rule="nonzero" fill-opacity="1" /><path clip-path="url(#clip970)" d="M689.596 1271.47 L689.596 1257.44 L693.855 1257.44 L693.855 1293.46 L689.596 1293.46 L689.596 1289.57 Q688.253 1291.88 686.193 1293.02 Q684.156 1294.13 681.286 1294.13 Q676.587 1294.13 673.624 1290.38 Q670.684 1286.63 670.684 1280.52 Q670.684 1274.41 673.624 1270.66 Q676.587 1266.91 681.286 1266.91 Q684.156 1266.91 686.193 1268.04 Q688.253 1269.15 689.596 1271.47 M675.082 1280.52 Q675.082 1285.22 677.003 1287.9 Q678.948 1290.56 682.327 1290.56 Q685.707 1290.56 687.651 1287.9 Q689.596 1285.22 689.596 1280.52 Q689.596 1275.82 687.651 1273.16 Q685.707 1270.47 682.327 1270.47 Q678.948 1270.47 677.003 1273.16 Q675.082 1275.82 675.082 1280.52 Z" fill="#000000" fill-rule="nonzero" fill-opacity="1" /><path clip-path="url(#clip970)" d="M722.559 1262.74 L722.559 1275.72 L728.438 1275.72 Q731.702 1275.72 733.485 1274.04 Q735.267 1272.35 735.267 1269.22 Q735.267 1266.12 733.485 1264.43 Q731.702 1262.74 728.438 1262.74 L722.559 1262.74 M717.883 1258.9 L728.438 1258.9 Q734.248 1258.9 737.211 1261.54 Q740.197 1264.15 740.197 1269.22 Q740.197 1274.34 737.211 1276.95 Q734.248 1279.57 728.438 1279.57 L722.559 1279.57 L722.559 1293.46 L717.883 1293.46 L717.883 1258.9 Z" fill="#000000" fill-rule="nonzero" fill-opacity="1" /><path clip-path="url(#clip970)" d="M754.642 1270.52 Q751.216 1270.52 749.225 1273.2 Q747.234 1275.86 747.234 1280.52 Q747.234 1285.17 749.202 1287.85 Q751.193 1290.52 754.642 1290.52 Q758.045 1290.52 760.035 1287.83 Q762.026 1285.15 762.026 1280.52 Q762.026 1275.91 760.035 1273.22 Q758.045 1270.52 754.642 1270.52 M754.642 1266.91 Q760.197 1266.91 763.369 1270.52 Q766.54 1274.13 766.54 1280.52 Q766.54 1286.88 763.369 1290.52 Q760.197 1294.13 754.642 1294.13 Q749.063 1294.13 745.892 1290.52 Q742.744 1286.88 742.744 1280.52 Q742.744 1274.13 745.892 1270.52 Q749.063 1266.91 754.642 1266.91 Z" fill="#000000" fill-rule="nonzero" fill-opacity="1" /><path clip-path="url(#clip970)" d="M773.6 1267.53 L777.859 1267.53 L777.859 1293.46 L773.6 1293.46 L773.6 1267.53 M773.6 1257.44 L777.859 1257.44 L777.859 1262.83 L773.6 1262.83 L773.6 1257.44 Z" fill="#000000" fill-rule="nonzero" fill-opacity="1" /><path clip-path="url(#clip970)" d="M808.322 1277.81 L808.322 1293.46 L804.063 1293.46 L804.063 1277.95 Q804.063 1274.27 802.628 1272.44 Q801.193 1270.61 798.322 1270.61 Q794.873 1270.61 792.882 1272.81 Q790.892 1275.01 790.892 1278.8 L790.892 1293.46 L786.609 1293.46 L786.609 1267.53 L790.892 1267.53 L790.892 1271.56 Q792.419 1269.22 794.48 1268.06 Q796.563 1266.91 799.271 1266.91 Q803.739 1266.91 806.03 1269.68 Q808.322 1272.44 808.322 1277.81 Z" fill="#000000" fill-rule="nonzero" fill-opacity="1" /><path clip-path="url(#clip970)" d="M821.03 1260.17 L821.03 1267.53 L829.803 1267.53 L829.803 1270.84 L821.03 1270.84 L821.03 1284.91 Q821.03 1288.09 821.887 1288.99 Q822.766 1289.89 825.429 1289.89 L829.803 1289.89 L829.803 1293.46 L825.429 1293.46 Q820.498 1293.46 818.623 1291.63 Q816.748 1289.78 816.748 1284.91 L816.748 1270.84 L813.623 1270.84 L813.623 1267.53 L816.748 1267.53 L816.748 1260.17 L821.03 1260.17 Z" fill="#000000" fill-rule="nonzero" fill-opacity="1" /><path clip-path="url(#clip970)" d="M851.933 1268.29 L851.933 1272.32 Q850.127 1271.4 848.183 1270.93 Q846.239 1270.47 844.155 1270.47 Q840.984 1270.47 839.387 1271.44 Q837.813 1272.41 837.813 1274.36 Q837.813 1275.84 838.947 1276.7 Q840.081 1277.53 843.507 1278.29 L844.965 1278.62 Q849.502 1279.59 851.401 1281.37 Q853.322 1283.13 853.322 1286.3 Q853.322 1289.91 850.452 1292.02 Q847.604 1294.13 842.604 1294.13 Q840.521 1294.13 838.253 1293.71 Q836.007 1293.32 833.507 1292.51 L833.507 1288.11 Q835.868 1289.34 838.16 1289.96 Q840.452 1290.56 842.697 1290.56 Q845.706 1290.56 847.327 1289.54 Q848.947 1288.5 848.947 1286.63 Q848.947 1284.89 847.766 1283.97 Q846.609 1283.04 842.651 1282.18 L841.169 1281.84 Q837.211 1281 835.452 1279.29 Q833.692 1277.55 833.692 1274.54 Q833.692 1270.89 836.285 1268.9 Q838.878 1266.91 843.646 1266.91 Q846.007 1266.91 848.09 1267.25 Q850.174 1267.6 851.933 1268.29 Z" fill="#000000" fill-rule="nonzero" fill-opacity="1" /><polyline clip-path="url(#clip970)" style="stroke:#3da44d; stroke-linecap:round; stroke-linejoin:round; stroke-width:8; stroke-opacity:1; fill:none" points="314.352,1328.02 456.566,1328.02 "/>
<path clip-path="url(#clip970)" d="M496.102 1315.34 L489.759 1332.54 L502.467 1332.54 L496.102 1315.34 M493.463 1310.74 L498.764 1310.74 L511.935 1345.3 L507.074 1345.3 L503.926 1336.43 L488.347 1336.43 L485.199 1345.3 L480.268 1345.3 L493.463 1310.74 Z" fill="#000000" fill-rule="nonzero" fill-opacity="1" /><path clip-path="url(#clip970)" d="M534.62 1320.37 L534.62 1324.35 Q532.814 1323.35 530.986 1322.87 Q529.18 1322.36 527.328 1322.36 Q523.185 1322.36 520.893 1325 Q518.601 1327.61 518.601 1332.36 Q518.601 1337.1 520.893 1339.74 Q523.185 1342.36 527.328 1342.36 Q529.18 1342.36 530.986 1341.87 Q532.814 1341.36 534.62 1340.37 L534.62 1344.3 Q532.837 1345.13 530.916 1345.55 Q529.018 1345.97 526.865 1345.97 Q521.009 1345.97 517.56 1342.29 Q514.111 1338.61 514.111 1332.36 Q514.111 1326.01 517.583 1322.38 Q521.078 1318.75 527.143 1318.75 Q529.111 1318.75 530.986 1319.16 Q532.861 1319.56 534.62 1320.37 Z" fill="#000000" fill-rule="nonzero" fill-opacity="1" /><path clip-path="url(#clip970)" d="M546.24 1312.01 L546.24 1319.37 L555.013 1319.37 L555.013 1322.68 L546.24 1322.68 L546.24 1336.75 Q546.24 1339.93 547.097 1340.83 Q547.976 1341.73 550.638 1341.73 L555.013 1341.73 L555.013 1345.3 L550.638 1345.3 Q545.708 1345.3 543.833 1343.47 Q541.958 1341.62 541.958 1336.75 L541.958 1322.68 L538.833 1322.68 L538.833 1319.37 L541.958 1319.37 L541.958 1312.01 L546.24 1312.01 Z" fill="#000000" fill-rule="nonzero" fill-opacity="1" /><path clip-path="url(#clip970)" d="M560.175 1335.06 L560.175 1319.37 L564.435 1319.37 L564.435 1334.9 Q564.435 1338.58 565.87 1340.44 Q567.305 1342.26 570.175 1342.26 Q573.624 1342.26 575.615 1340.06 Q577.629 1337.87 577.629 1334.07 L577.629 1319.37 L581.888 1319.37 L581.888 1345.3 L577.629 1345.3 L577.629 1341.31 Q576.078 1343.68 574.018 1344.83 Q571.981 1345.97 569.272 1345.97 Q564.805 1345.97 562.49 1343.19 Q560.175 1340.41 560.175 1335.06 M570.893 1318.75 L570.893 1318.75 Z" fill="#000000" fill-rule="nonzero" fill-opacity="1" /><path clip-path="url(#clip970)" d="M602.444 1332.26 Q597.282 1332.26 595.291 1333.44 Q593.3 1334.63 593.3 1337.47 Q593.3 1339.74 594.782 1341.08 Q596.286 1342.4 598.856 1342.4 Q602.397 1342.4 604.527 1339.9 Q606.68 1337.38 606.68 1333.21 L606.68 1332.26 L602.444 1332.26 M610.939 1330.5 L610.939 1345.3 L606.68 1345.3 L606.68 1341.36 Q605.221 1343.72 603.045 1344.86 Q600.87 1345.97 597.721 1345.97 Q593.74 1345.97 591.379 1343.75 Q589.041 1341.5 589.041 1337.75 Q589.041 1333.38 591.958 1331.15 Q594.897 1328.93 600.707 1328.93 L606.68 1328.93 L606.68 1328.51 Q606.68 1325.57 604.735 1323.98 Q602.814 1322.36 599.319 1322.36 Q597.096 1322.36 594.99 1322.89 Q592.883 1323.42 590.939 1324.49 L590.939 1320.55 Q593.277 1319.65 595.476 1319.21 Q597.675 1318.75 599.758 1318.75 Q605.383 1318.75 608.161 1321.66 Q610.939 1324.58 610.939 1330.5 Z" fill="#000000" fill-rule="nonzero" fill-opacity="1" /><path clip-path="url(#clip970)" d="M619.712 1309.28 L623.971 1309.28 L623.971 1345.3 L619.712 1345.3 L619.712 1309.28 Z" fill="#000000" fill-rule="nonzero" fill-opacity="1" /><path clip-path="url(#clip970)" d="M652.814 1314.58 L652.814 1341.45 L658.462 1341.45 Q665.615 1341.45 668.925 1338.21 Q672.258 1334.97 672.258 1327.98 Q672.258 1321.04 668.925 1317.82 Q665.615 1314.58 658.462 1314.58 L652.814 1314.58 M648.138 1310.74 L657.744 1310.74 Q667.79 1310.74 672.49 1314.93 Q677.189 1319.09 677.189 1327.98 Q677.189 1336.92 672.466 1341.11 Q667.744 1345.3 657.744 1345.3 L648.138 1345.3 L648.138 1310.74 Z" fill="#000000" fill-rule="nonzero" fill-opacity="1" /><path clip-path="url(#clip970)" d="M696.239 1332.26 Q691.077 1332.26 689.087 1333.44 Q687.096 1334.63 687.096 1337.47 Q687.096 1339.74 688.577 1341.08 Q690.082 1342.4 692.651 1342.4 Q696.193 1342.4 698.323 1339.9 Q700.475 1337.38 700.475 1333.21 L700.475 1332.26 L696.239 1332.26 M704.735 1330.5 L704.735 1345.3 L700.475 1345.3 L700.475 1341.36 Q699.017 1343.72 696.841 1344.86 Q694.665 1345.97 691.517 1345.97 Q687.536 1345.97 685.175 1343.75 Q682.837 1341.5 682.837 1337.75 Q682.837 1333.38 685.753 1331.15 Q688.693 1328.93 694.503 1328.93 L700.475 1328.93 L700.475 1328.51 Q700.475 1325.57 698.531 1323.98 Q696.61 1322.36 693.114 1322.36 Q690.892 1322.36 688.786 1322.89 Q686.679 1323.42 684.735 1324.49 L684.735 1320.55 Q687.073 1319.65 689.272 1319.21 Q691.471 1318.75 693.554 1318.75 Q699.179 1318.75 701.957 1321.66 Q704.735 1324.58 704.735 1330.5 Z" fill="#000000" fill-rule="nonzero" fill-opacity="1" /><path clip-path="url(#clip970)" d="M717.721 1312.01 L717.721 1319.37 L726.494 1319.37 L726.494 1322.68 L717.721 1322.68 L717.721 1336.75 Q717.721 1339.93 718.577 1340.83 Q719.457 1341.73 722.119 1341.73 L726.494 1341.73 L726.494 1345.3 L722.119 1345.3 Q717.188 1345.3 715.313 1343.47 Q713.438 1341.62 713.438 1336.75 L713.438 1322.68 L710.313 1322.68 L710.313 1319.37 L713.438 1319.37 L713.438 1312.01 L717.721 1312.01 Z" fill="#000000" fill-rule="nonzero" fill-opacity="1" /><path clip-path="url(#clip970)" d="M743.878 1332.26 Q738.716 1332.26 736.725 1333.44 Q734.735 1334.63 734.735 1337.47 Q734.735 1339.74 736.216 1341.08 Q737.721 1342.4 740.29 1342.4 Q743.832 1342.4 745.961 1339.9 Q748.114 1337.38 748.114 1333.21 L748.114 1332.26 L743.878 1332.26 M752.373 1330.5 L752.373 1345.3 L748.114 1345.3 L748.114 1341.36 Q746.656 1343.72 744.48 1344.86 Q742.304 1345.97 739.156 1345.97 Q735.174 1345.97 732.813 1343.75 Q730.475 1341.5 730.475 1337.75 Q730.475 1333.38 733.392 1331.15 Q736.332 1328.93 742.142 1328.93 L748.114 1328.93 L748.114 1328.51 Q748.114 1325.57 746.17 1323.98 Q744.248 1322.36 740.753 1322.36 Q738.531 1322.36 736.424 1322.89 Q734.318 1323.42 732.373 1324.49 L732.373 1320.55 Q734.711 1319.65 736.91 1319.21 Q739.11 1318.75 741.193 1318.75 Q746.818 1318.75 749.596 1321.66 Q752.373 1324.58 752.373 1330.5 Z" fill="#000000" fill-rule="nonzero" fill-opacity="1" /></svg>
