<?xml version="1.0" encoding="utf-8"?>
<svg xmlns="http://www.w3.org/2000/svg" xmlns:xlink="http://www.w3.org/1999/xlink" width="600" height="400" viewBox="0 0 2400 1600">
<defs>
  <clipPath id="clip220">
    <rect x="0" y="0" width="2400" height="1600"/>
  </clipPath>
</defs>
<path clip-path="url(#clip220)" d="M0 1600 L2400 1600 L2400 8.88178e-14 L0 8.88178e-14  Z" fill="#ffffff" fill-rule="evenodd" fill-opacity="1"/>
<defs>
  <clipPath id="clip221">
    <rect x="480" y="0" width="1681" height="1600"/>
  </clipPath>
</defs>
<path clip-path="url(#clip220)" d="M219.866 1423.18 L2352.76 1423.18 L2352.76 123.472 L219.866 123.472  Z" fill="#ffffff" fill-rule="evenodd" fill-opacity="1"/>
<defs>
  <clipPath id="clip222">
    <rect x="219" y="123" width="2134" height="1301"/>
  </clipPath>
</defs>
<polyline clip-path="url(#clip222)" style="stroke:#000000; stroke-linecap:round; stroke-linejoin:round; stroke-width:2; stroke-opacity:0.1; fill:none" points="259.906,1423.18 259.906,123.472 "/>
<polyline clip-path="url(#clip222)" style="stroke:#000000; stroke-linecap:round; stroke-linejoin:round; stroke-width:2; stroke-opacity:0.1; fill:none" points="768.027,1423.18 768.027,123.472 "/>
<polyline clip-path="url(#clip222)" style="stroke:#000000; stroke-linecap:round; stroke-linejoin:round; stroke-width:2; stroke-opacity:0.1; fill:none" points="1276.15,1423.18 1276.15,123.472 "/>
<polyline clip-path="url(#clip222)" style="stroke:#000000; stroke-linecap:round; stroke-linejoin:round; stroke-width:2; stroke-opacity:0.1; fill:none" points="1784.27,1423.18 1784.27,123.472 "/>
<polyline clip-path="url(#clip222)" style="stroke:#000000; stroke-linecap:round; stroke-linejoin:round; stroke-width:2; stroke-opacity:0.1; fill:none" points="2292.39,1423.18 2292.39,123.472 "/>
<polyline clip-path="url(#clip220)" style="stroke:#000000; stroke-linecap:round; stroke-linejoin:round; stroke-width:4; stroke-opacity:1; fill:none" points="219.866,1423.18 2352.76,1423.18 "/>
<polyline clip-path="url(#clip220)" style="stroke:#000000; stroke-linecap:round; stroke-linejoin:round; stroke-width:4; stroke-opacity:1; fill:none" points="259.906,1423.18 259.906,1404.28 "/>
<polyline clip-path="url(#clip220)" style="stroke:#000000; stroke-linecap:round; stroke-linejoin:round; stroke-width:4; stroke-opacity:1; fill:none" points="768.027,1423.18 768.027,1404.28 "/>
<polyline clip-path="url(#clip220)" style="stroke:#000000; stroke-linecap:round; stroke-linejoin:round; stroke-width:4; stroke-opacity:1; fill:none" points="1276.15,1423.18 1276.15,1404.28 "/>
<polyline clip-path="url(#clip220)" style="stroke:#000000; stroke-linecap:round; stroke-linejoin:round; stroke-width:4; stroke-opacity:1; fill:none" points="1784.27,1423.18 1784.27,1404.28 "/>
<polyline clip-path="url(#clip220)" style="stroke:#000000; stroke-linecap:round; stroke-linejoin:round; stroke-width:4; stroke-opacity:1; fill:none" points="2292.39,1423.18 2292.39,1404.28 "/>
<path clip-path="url(#clip220)" d="M259.906 1454.1 Q256.295 1454.1 254.466 1457.66 Q252.661 1461.2 252.661 1468.33 Q252.661 1475.44 254.466 1479.01 Q256.295 1482.55 259.906 1482.55 Q263.54 1482.55 265.346 1479.01 Q267.175 1475.44 267.175 1468.33 Q267.175 1461.2 265.346 1457.66 Q263.54 1454.1 259.906 1454.1 M259.906 1450.39 Q265.716 1450.39 268.772 1455 Q271.851 1459.58 271.851 1468.33 Q271.851 1477.06 268.772 1481.67 Q265.716 1486.25 259.906 1486.25 Q254.096 1486.25 251.017 1481.67 Q247.962 1477.06 247.962 1468.33 Q247.962 1459.58 251.017 1455 Q254.096 1450.39 259.906 1450.39 Z" fill="#000000" fill-rule="nonzero" fill-opacity="1" /><path clip-path="url(#clip220)" d="M747.298 1481.64 L763.618 1481.64 L763.618 1485.58 L741.673 1485.58 L741.673 1481.64 Q744.335 1478.89 748.919 1474.26 Q753.525 1469.61 754.706 1468.27 Q756.951 1465.74 757.831 1464.01 Q758.734 1462.25 758.734 1460.56 Q758.734 1457.8 756.789 1456.07 Q754.868 1454.33 751.766 1454.33 Q749.567 1454.33 747.113 1455.09 Q744.683 1455.86 741.905 1457.41 L741.905 1452.69 Q744.729 1451.55 747.183 1450.97 Q749.636 1450.39 751.673 1450.39 Q757.044 1450.39 760.238 1453.08 Q763.433 1455.77 763.433 1460.26 Q763.433 1462.39 762.622 1464.31 Q761.835 1466.2 759.729 1468.8 Q759.15 1469.47 756.048 1472.69 Q752.947 1475.88 747.298 1481.64 Z" fill="#000000" fill-rule="nonzero" fill-opacity="1" /><path clip-path="url(#clip220)" d="M773.479 1451.02 L791.835 1451.02 L791.835 1454.96 L777.761 1454.96 L777.761 1463.43 Q778.78 1463.08 779.798 1462.92 Q780.817 1462.73 781.835 1462.73 Q787.622 1462.73 791.002 1465.9 Q794.381 1469.08 794.381 1474.49 Q794.381 1480.07 790.909 1483.17 Q787.437 1486.25 781.118 1486.25 Q778.942 1486.25 776.673 1485.88 Q774.428 1485.51 772.02 1484.77 L772.02 1480.07 Q774.104 1481.2 776.326 1481.76 Q778.548 1482.32 781.025 1482.32 Q785.03 1482.32 787.368 1480.21 Q789.706 1478.1 789.706 1474.49 Q789.706 1470.88 787.368 1468.77 Q785.03 1466.67 781.025 1466.67 Q779.15 1466.67 777.275 1467.08 Q775.423 1467.5 773.479 1468.38 L773.479 1451.02 Z" fill="#000000" fill-rule="nonzero" fill-opacity="1" /><path clip-path="url(#clip220)" d="M1250.85 1451.02 L1269.2 1451.02 L1269.2 1454.96 L1255.13 1454.96 L1255.13 1463.43 Q1256.15 1463.08 1257.17 1462.92 Q1258.19 1462.73 1259.2 1462.73 Q1264.99 1462.73 1268.37 1465.9 Q1271.75 1469.08 1271.75 1474.49 Q1271.75 1480.07 1268.28 1483.17 Q1264.81 1486.25 1258.49 1486.25 Q1256.31 1486.25 1254.04 1485.88 Q1251.8 1485.51 1249.39 1484.77 L1249.39 1480.07 Q1251.47 1481.2 1253.7 1481.76 Q1255.92 1482.32 1258.39 1482.32 Q1262.4 1482.32 1264.74 1480.21 Q1267.07 1478.1 1267.07 1474.49 Q1267.07 1470.88 1264.74 1468.77 Q1262.4 1466.67 1258.39 1466.67 Q1256.52 1466.67 1254.64 1467.08 Q1252.79 1467.5 1250.85 1468.38 L1250.85 1451.02 Z" fill="#000000" fill-rule="nonzero" fill-opacity="1" /><path clip-path="url(#clip220)" d="M1290.96 1454.1 Q1287.35 1454.1 1285.52 1457.66 Q1283.72 1461.2 1283.72 1468.33 Q1283.72 1475.44 1285.52 1479.01 Q1287.35 1482.55 1290.96 1482.55 Q1294.6 1482.55 1296.4 1479.01 Q1298.23 1475.44 1298.23 1468.33 Q1298.23 1461.2 1296.4 1457.66 Q1294.6 1454.1 1290.96 1454.1 M1290.96 1450.39 Q1296.77 1450.39 1299.83 1455 Q1302.91 1459.58 1302.91 1468.33 Q1302.91 1477.06 1299.83 1481.67 Q1296.77 1486.25 1290.96 1486.25 Q1285.15 1486.25 1282.07 1481.67 Q1279.02 1477.06 1279.02 1468.33 Q1279.02 1459.58 1282.07 1455 Q1285.15 1450.39 1290.96 1450.39 Z" fill="#000000" fill-rule="nonzero" fill-opacity="1" /><path clip-path="url(#clip220)" d="M1758.12 1451.02 L1780.35 1451.02 L1780.35 1453.01 L1767.8 1485.58 L1762.92 1485.58 L1774.72 1454.96 L1758.12 1454.96 L1758.12 1451.02 Z" fill="#000000" fill-rule="nonzero" fill-opacity="1" /><path clip-path="url(#clip220)" d="M1789.51 1451.02 L1807.87 1451.02 L1807.87 1454.96 L1793.8 1454.96 L1793.8 1463.43 Q1794.81 1463.08 1795.83 1462.92 Q1796.85 1462.73 1797.87 1462.73 Q1803.66 1462.73 1807.04 1465.9 Q1810.42 1469.08 1810.42 1474.49 Q1810.42 1480.07 1806.94 1483.17 Q1803.47 1486.25 1797.15 1486.25 Q1794.98 1486.25 1792.71 1485.88 Q1790.46 1485.51 1788.05 1484.77 L1788.05 1480.07 Q1790.14 1481.2 1792.36 1481.76 Q1794.58 1482.32 1797.06 1482.32 Q1801.06 1482.32 1803.4 1480.21 Q1805.74 1478.1 1805.74 1474.49 Q1805.74 1470.88 1803.4 1468.77 Q1801.06 1466.67 1797.06 1466.67 Q1795.18 1466.67 1793.31 1467.08 Q1791.46 1467.5 1789.51 1468.38 L1789.51 1451.02 Z" fill="#000000" fill-rule="nonzero" fill-opacity="1" /><path clip-path="url(#clip220)" d="M2252 1481.64 L2259.64 1481.64 L2259.64 1455.28 L2251.33 1456.95 L2251.33 1452.69 L2259.59 1451.02 L2264.27 1451.02 L2264.27 1481.64 L2271.91 1481.64 L2271.91 1485.58 L2252 1485.58 L2252 1481.64 Z" fill="#000000" fill-rule="nonzero" fill-opacity="1" /><path clip-path="url(#clip220)" d="M2291.35 1454.1 Q2287.74 1454.1 2285.91 1457.66 Q2284.1 1461.2 2284.1 1468.33 Q2284.1 1475.44 2285.91 1479.01 Q2287.74 1482.55 2291.35 1482.55 Q2294.98 1482.55 2296.79 1479.01 Q2298.62 1475.44 2298.62 1468.33 Q2298.62 1461.2 2296.79 1457.66 Q2294.98 1454.1 2291.35 1454.1 M2291.35 1450.39 Q2297.16 1450.39 2300.22 1455 Q2303.29 1459.58 2303.29 1468.33 Q2303.29 1477.06 2300.22 1481.67 Q2297.16 1486.25 2291.35 1486.25 Q2285.54 1486.25 2282.46 1481.67 Q2279.41 1477.06 2279.41 1468.33 Q2279.41 1459.58 2282.46 1455 Q2285.54 1450.39 2291.35 1450.39 Z" fill="#000000" fill-rule="nonzero" fill-opacity="1" /><path clip-path="url(#clip220)" d="M2321.51 1454.1 Q2317.9 1454.1 2316.07 1457.66 Q2314.27 1461.2 2314.27 1468.33 Q2314.27 1475.44 2316.07 1479.01 Q2317.9 1482.55 2321.51 1482.55 Q2325.15 1482.55 2326.95 1479.01 Q2328.78 1475.44 2328.78 1468.33 Q2328.78 1461.2 2326.95 1457.66 Q2325.15 1454.1 2321.51 1454.1 M2321.51 1450.39 Q2327.32 1450.39 2330.38 1455 Q2333.46 1459.58 2333.46 1468.33 Q2333.46 1477.06 2330.38 1481.67 Q2327.32 1486.25 2321.51 1486.25 Q2315.7 1486.25 2312.62 1481.67 Q2309.57 1477.06 2309.57 1468.33 Q2309.57 1459.58 2312.62 1455 Q2315.7 1450.39 2321.51 1450.39 Z" fill="#000000" fill-rule="nonzero" fill-opacity="1" /><path clip-path="url(#clip220)" d="M1225.47 1522.27 L1225.47 1532.4 L1237.53 1532.4 L1237.53 1536.95 L1225.47 1536.95 L1225.47 1556.3 Q1225.47 1560.66 1226.65 1561.9 Q1227.86 1563.14 1231.52 1563.14 L1237.53 1563.14 L1237.53 1568.04 L1231.52 1568.04 Q1224.74 1568.04 1222.16 1565.53 Q1219.58 1562.98 1219.58 1556.3 L1219.58 1536.95 L1215.29 1536.95 L1215.29 1532.4 L1219.58 1532.4 L1219.58 1522.27 L1225.47 1522.27 Z" fill="#000000" fill-rule="nonzero" fill-opacity="1" /><path clip-path="url(#clip220)" d="M1245.24 1532.4 L1251.09 1532.4 L1251.09 1568.04 L1245.24 1568.04 L1245.24 1532.4 M1245.24 1518.52 L1251.09 1518.52 L1251.09 1525.93 L1245.24 1525.93 L1245.24 1518.52 Z" fill="#000000" fill-rule="nonzero" fill-opacity="1" /><path clip-path="url(#clip220)" d="M1291.1 1539.24 Q1293.3 1535.29 1296.35 1533.41 Q1299.41 1531.54 1303.55 1531.54 Q1309.12 1531.54 1312.14 1535.45 Q1315.16 1539.33 1315.16 1546.53 L1315.16 1568.04 L1309.28 1568.04 L1309.28 1546.72 Q1309.28 1541.59 1307.46 1539.11 Q1305.65 1536.63 1301.92 1536.63 Q1297.37 1536.63 1294.73 1539.65 Q1292.09 1542.68 1292.09 1547.9 L1292.09 1568.04 L1286.2 1568.04 L1286.2 1546.72 Q1286.2 1541.56 1284.39 1539.11 Q1282.57 1536.63 1278.78 1536.63 Q1274.3 1536.63 1271.65 1539.68 Q1269.01 1542.71 1269.01 1547.9 L1269.01 1568.04 L1263.12 1568.04 L1263.12 1532.4 L1269.01 1532.4 L1269.01 1537.93 Q1271.02 1534.66 1273.82 1533.1 Q1276.62 1531.54 1280.47 1531.54 Q1284.35 1531.54 1287.06 1533.51 Q1289.8 1535.48 1291.1 1539.24 Z" fill="#000000" fill-rule="nonzero" fill-opacity="1" /><path clip-path="url(#clip220)" d="M1357.34 1548.76 L1357.34 1551.62 L1330.41 1551.62 Q1330.79 1557.67 1334.04 1560.85 Q1337.32 1564 1343.14 1564 Q1346.51 1564 1349.67 1563.17 Q1352.85 1562.35 1355.97 1560.69 L1355.97 1566.23 Q1352.82 1567.57 1349.51 1568.27 Q1346.2 1568.97 1342.79 1568.97 Q1334.26 1568.97 1329.26 1564 Q1324.3 1559.04 1324.3 1550.57 Q1324.3 1541.82 1329.01 1536.69 Q1333.75 1531.54 1341.77 1531.54 Q1348.97 1531.54 1353.14 1536.18 Q1357.34 1540.8 1357.34 1548.76 M1351.48 1547.04 Q1351.42 1542.23 1348.77 1539.37 Q1346.16 1536.5 1341.84 1536.5 Q1336.93 1536.5 1333.97 1539.27 Q1331.05 1542.04 1330.6 1547.07 L1351.48 1547.04 Z" fill="#000000" fill-rule="nonzero" fill-opacity="1" /><polyline clip-path="url(#clip222)" style="stroke:#000000; stroke-linecap:round; stroke-linejoin:round; stroke-width:2; stroke-opacity:0.1; fill:none" points="219.866,1174.77 2352.76,1174.77 "/>
<polyline clip-path="url(#clip222)" style="stroke:#000000; stroke-linecap:round; stroke-linejoin:round; stroke-width:2; stroke-opacity:0.1; fill:none" points="219.866,917.558 2352.76,917.558 "/>
<polyline clip-path="url(#clip222)" style="stroke:#000000; stroke-linecap:round; stroke-linejoin:round; stroke-width:2; stroke-opacity:0.1; fill:none" points="219.866,660.345 2352.76,660.345 "/>
<polyline clip-path="url(#clip222)" style="stroke:#000000; stroke-linecap:round; stroke-linejoin:round; stroke-width:2; stroke-opacity:0.1; fill:none" points="219.866,403.132 2352.76,403.132 "/>
<polyline clip-path="url(#clip222)" style="stroke:#000000; stroke-linecap:round; stroke-linejoin:round; stroke-width:2; stroke-opacity:0.1; fill:none" points="219.866,145.919 2352.76,145.919 "/>
<polyline clip-path="url(#clip220)" style="stroke:#000000; stroke-linecap:round; stroke-linejoin:round; stroke-width:4; stroke-opacity:1; fill:none" points="219.866,1423.18 219.866,123.472 "/>
<polyline clip-path="url(#clip220)" style="stroke:#000000; stroke-linecap:round; stroke-linejoin:round; stroke-width:4; stroke-opacity:1; fill:none" points="219.866,1174.77 238.764,1174.77 "/>
<polyline clip-path="url(#clip220)" style="stroke:#000000; stroke-linecap:round; stroke-linejoin:round; stroke-width:4; stroke-opacity:1; fill:none" points="219.866,917.558 238.764,917.558 "/>
<polyline clip-path="url(#clip220)" style="stroke:#000000; stroke-linecap:round; stroke-linejoin:round; stroke-width:4; stroke-opacity:1; fill:none" points="219.866,660.345 238.764,660.345 "/>
<polyline clip-path="url(#clip220)" style="stroke:#000000; stroke-linecap:round; stroke-linejoin:round; stroke-width:4; stroke-opacity:1; fill:none" points="219.866,403.132 238.764,403.132 "/>
<polyline clip-path="url(#clip220)" style="stroke:#000000; stroke-linecap:round; stroke-linejoin:round; stroke-width:4; stroke-opacity:1; fill:none" points="219.866,145.919 238.764,145.919 "/>
<path clip-path="url(#clip220)" d="M128.288 1160.57 Q124.677 1160.57 122.848 1164.13 Q121.043 1167.68 121.043 1174.81 Q121.043 1181.91 122.848 1185.48 Q124.677 1189.02 128.288 1189.02 Q131.922 1189.02 133.728 1185.48 Q135.556 1181.91 135.556 1174.81 Q135.556 1167.68 133.728 1164.13 Q131.922 1160.57 128.288 1160.57 M128.288 1156.87 Q134.098 1156.87 137.154 1161.47 Q140.232 1166.06 140.232 1174.81 Q140.232 1183.53 137.154 1188.14 Q134.098 1192.72 128.288 1192.72 Q122.478 1192.72 119.399 1188.14 Q116.343 1183.53 116.343 1174.81 Q116.343 1166.06 119.399 1161.47 Q122.478 1156.87 128.288 1156.87 Z" fill="#000000" fill-rule="nonzero" fill-opacity="1" /><path clip-path="url(#clip220)" d="M148.45 1186.17 L153.334 1186.17 L153.334 1192.05 L148.45 1192.05 L148.45 1186.17 Z" fill="#000000" fill-rule="nonzero" fill-opacity="1" /><path clip-path="url(#clip220)" d="M167.547 1188.12 L183.866 1188.12 L183.866 1192.05 L161.922 1192.05 L161.922 1188.12 Q164.584 1185.36 169.167 1180.73 Q173.774 1176.08 174.954 1174.74 Q177.2 1172.21 178.079 1170.48 Q178.982 1168.72 178.982 1167.03 Q178.982 1164.27 177.038 1162.54 Q175.116 1160.8 172.014 1160.8 Q169.815 1160.8 167.362 1161.57 Q164.931 1162.33 162.153 1163.88 L162.153 1159.16 Q164.977 1158.02 167.431 1157.45 Q169.885 1156.87 171.922 1156.87 Q177.292 1156.87 180.487 1159.55 Q183.681 1162.24 183.681 1166.73 Q183.681 1168.86 182.871 1170.78 Q182.084 1172.68 179.977 1175.27 Q179.399 1175.94 176.297 1179.16 Q173.195 1182.35 167.547 1188.12 Z" fill="#000000" fill-rule="nonzero" fill-opacity="1" /><path clip-path="url(#clip220)" d="M126.205 903.357 Q122.593 903.357 120.765 906.922 Q118.959 910.463 118.959 917.593 Q118.959 924.699 120.765 928.264 Q122.593 931.806 126.205 931.806 Q129.839 931.806 131.644 928.264 Q133.473 924.699 133.473 917.593 Q133.473 910.463 131.644 906.922 Q129.839 903.357 126.205 903.357 M126.205 899.653 Q132.015 899.653 135.07 904.26 Q138.149 908.843 138.149 917.593 Q138.149 926.32 135.07 930.926 Q132.015 935.51 126.205 935.51 Q120.394 935.51 117.316 930.926 Q114.26 926.32 114.26 917.593 Q114.26 908.843 117.316 904.26 Q120.394 899.653 126.205 899.653 Z" fill="#000000" fill-rule="nonzero" fill-opacity="1" /><path clip-path="url(#clip220)" d="M146.366 928.959 L151.251 928.959 L151.251 934.838 L146.366 934.838 L146.366 928.959 Z" fill="#000000" fill-rule="nonzero" fill-opacity="1" /><path clip-path="url(#clip220)" d="M174.283 904.352 L162.477 922.801 L174.283 922.801 L174.283 904.352 M173.056 900.278 L178.936 900.278 L178.936 922.801 L183.866 922.801 L183.866 926.69 L178.936 926.69 L178.936 934.838 L174.283 934.838 L174.283 926.69 L158.681 926.69 L158.681 922.176 L173.056 900.278 Z" fill="#000000" fill-rule="nonzero" fill-opacity="1" /><path clip-path="url(#clip220)" d="M126.529 646.144 Q122.918 646.144 121.089 649.709 Q119.283 653.25 119.283 660.38 Q119.283 667.486 121.089 671.051 Q122.918 674.593 126.529 674.593 Q130.163 674.593 131.968 671.051 Q133.797 667.486 133.797 660.38 Q133.797 653.25 131.968 649.709 Q130.163 646.144 126.529 646.144 M126.529 642.44 Q132.339 642.44 135.394 647.047 Q138.473 651.63 138.473 660.38 Q138.473 669.107 135.394 673.713 Q132.339 678.296 126.529 678.296 Q120.718 678.296 117.64 673.713 Q114.584 669.107 114.584 660.38 Q114.584 651.63 117.64 647.047 Q120.718 642.44 126.529 642.44 Z" fill="#000000" fill-rule="nonzero" fill-opacity="1" /><path clip-path="url(#clip220)" d="M146.691 671.746 L151.575 671.746 L151.575 677.625 L146.691 677.625 L146.691 671.746 Z" fill="#000000" fill-rule="nonzero" fill-opacity="1" /><path clip-path="url(#clip220)" d="M172.339 658.482 Q169.19 658.482 167.339 660.634 Q165.51 662.787 165.51 666.537 Q165.51 670.264 167.339 672.44 Q169.19 674.593 172.339 674.593 Q175.487 674.593 177.315 672.44 Q179.167 670.264 179.167 666.537 Q179.167 662.787 177.315 660.634 Q175.487 658.482 172.339 658.482 M181.621 643.829 L181.621 648.088 Q179.862 647.255 178.056 646.815 Q176.274 646.375 174.514 646.375 Q169.885 646.375 167.431 649.5 Q165.001 652.625 164.653 658.945 Q166.019 656.931 168.079 655.866 Q170.139 654.778 172.616 654.778 Q177.825 654.778 180.834 657.949 Q183.866 661.097 183.866 666.537 Q183.866 671.861 180.718 675.079 Q177.57 678.296 172.339 678.296 Q166.343 678.296 163.172 673.713 Q160.001 669.107 160.001 660.38 Q160.001 652.185 163.89 647.324 Q167.778 642.44 174.329 642.44 Q176.089 642.44 177.871 642.787 Q179.676 643.135 181.621 643.829 Z" fill="#000000" fill-rule="nonzero" fill-opacity="1" /><path clip-path="url(#clip220)" d="M126.783 388.931 Q123.172 388.931 121.343 392.496 Q119.538 396.037 119.538 403.167 Q119.538 410.273 121.343 413.838 Q123.172 417.38 126.783 417.38 Q130.417 417.38 132.223 413.838 Q134.052 410.273 134.052 403.167 Q134.052 396.037 132.223 392.496 Q130.417 388.931 126.783 388.931 M126.783 385.227 Q132.593 385.227 135.649 389.834 Q138.728 394.417 138.728 403.167 Q138.728 411.894 135.649 416.5 Q132.593 421.083 126.783 421.083 Q120.973 421.083 117.894 416.5 Q114.839 411.894 114.839 403.167 Q114.839 394.417 117.894 389.834 Q120.973 385.227 126.783 385.227 Z" fill="#000000" fill-rule="nonzero" fill-opacity="1" /><path clip-path="url(#clip220)" d="M146.945 414.532 L151.829 414.532 L151.829 420.412 L146.945 420.412 L146.945 414.532 Z" fill="#000000" fill-rule="nonzero" fill-opacity="1" /><path clip-path="url(#clip220)" d="M172.014 404 Q168.681 404 166.76 405.782 Q164.862 407.565 164.862 410.69 Q164.862 413.815 166.76 415.597 Q168.681 417.38 172.014 417.38 Q175.348 417.38 177.269 415.597 Q179.19 413.792 179.19 410.69 Q179.19 407.565 177.269 405.782 Q175.371 404 172.014 404 M167.339 402.009 Q164.329 401.269 162.64 399.208 Q160.973 397.148 160.973 394.185 Q160.973 390.042 163.913 387.634 Q166.876 385.227 172.014 385.227 Q177.176 385.227 180.116 387.634 Q183.056 390.042 183.056 394.185 Q183.056 397.148 181.366 399.208 Q179.7 401.269 176.714 402.009 Q180.093 402.796 181.968 405.088 Q183.866 407.38 183.866 410.69 Q183.866 415.713 180.788 418.398 Q177.732 421.083 172.014 421.083 Q166.297 421.083 163.218 418.398 Q160.163 415.713 160.163 410.69 Q160.163 407.38 162.061 405.088 Q163.959 402.796 167.339 402.009 M165.626 394.625 Q165.626 397.31 167.292 398.815 Q168.982 400.32 172.014 400.32 Q175.024 400.32 176.714 398.815 Q178.426 397.31 178.426 394.625 Q178.426 391.94 176.714 390.435 Q175.024 388.931 172.014 388.931 Q168.982 388.931 167.292 390.435 Q165.626 391.94 165.626 394.625 Z" fill="#000000" fill-rule="nonzero" fill-opacity="1" /><path clip-path="url(#clip220)" d="M117.501 159.264 L125.14 159.264 L125.14 132.898 L116.83 134.565 L116.83 130.306 L125.093 128.639 L129.769 128.639 L129.769 159.264 L137.408 159.264 L137.408 163.199 L117.501 163.199 L117.501 159.264 Z" fill="#000000" fill-rule="nonzero" fill-opacity="1" /><path clip-path="url(#clip220)" d="M146.853 157.319 L151.737 157.319 L151.737 163.199 L146.853 163.199 L146.853 157.319 Z" fill="#000000" fill-rule="nonzero" fill-opacity="1" /><path clip-path="url(#clip220)" d="M171.922 131.718 Q168.311 131.718 166.482 135.282 Q164.677 138.824 164.677 145.954 Q164.677 153.06 166.482 156.625 Q168.311 160.167 171.922 160.167 Q175.556 160.167 177.362 156.625 Q179.19 153.06 179.19 145.954 Q179.19 138.824 177.362 135.282 Q175.556 131.718 171.922 131.718 M171.922 128.014 Q177.732 128.014 180.788 132.62 Q183.866 137.204 183.866 145.954 Q183.866 154.68 180.788 159.287 Q177.732 163.87 171.922 163.87 Q166.112 163.87 163.033 159.287 Q159.978 154.68 159.978 145.954 Q159.978 137.204 163.033 132.62 Q166.112 128.014 171.922 128.014 Z" fill="#000000" fill-rule="nonzero" fill-opacity="1" /><path clip-path="url(#clip220)" d="M28.3562 756.711 L45.7028 769.602 L64.0042 756.043 L64.0042 762.95 L49.9996 773.326 L64.0042 783.702 L64.0042 790.609 L45.3526 776.763 L28.3562 789.431 L28.3562 782.524 L41.0558 773.071 L28.3562 763.618 L28.3562 756.711 Z" fill="#000000" fill-rule="nonzero" fill-opacity="1" /><path clip-path="url(#clip220)" d="M217.581 12.096 L268.744 12.096 L268.744 18.9825 L247.274 18.9825 L247.274 72.576 L239.051 72.576 L239.051 18.9825 L217.581 18.9825 L217.581 12.096 Z" fill="#000000" fill-rule="nonzero" fill-opacity="1" /><path clip-path="url(#clip220)" d="M290.417 34.1734 Q289.161 33.4443 287.662 33.1202 Q286.204 32.7556 284.421 32.7556 Q278.102 32.7556 274.699 36.8875 Q271.337 40.9789 271.337 48.6757 L271.337 72.576 L263.843 72.576 L263.843 27.2059 L271.337 27.2059 L271.337 34.2544 Q273.686 30.1225 277.454 28.1376 Q281.221 26.1121 286.609 26.1121 Q287.378 26.1121 288.31 26.2337 Q289.242 26.3147 290.376 26.5172 L290.417 34.1734 Z" fill="#000000" fill-rule="nonzero" fill-opacity="1" /><path clip-path="url(#clip220)" d="M318.854 49.7694 Q309.82 49.7694 306.337 51.8354 Q302.853 53.9013 302.853 58.8839 Q302.853 62.8538 305.445 65.2034 Q308.078 67.5124 312.575 67.5124 Q318.773 67.5124 322.5 63.1374 Q326.267 58.7219 326.267 51.4303 L326.267 49.7694 L318.854 49.7694 M333.721 46.6907 L333.721 72.576 L326.267 72.576 L326.267 65.6895 Q323.715 69.8214 319.907 71.8063 Q316.099 73.7508 310.59 73.7508 Q303.622 73.7508 299.491 69.8619 Q295.399 65.9325 295.399 59.3701 Q295.399 51.7138 300.503 47.825 Q305.648 43.9361 315.816 43.9361 L326.267 43.9361 L326.267 43.2069 Q326.267 38.0623 322.864 35.2672 Q319.502 32.4315 313.385 32.4315 Q309.496 32.4315 305.81 33.3632 Q302.124 34.295 298.721 36.1584 L298.721 29.2718 Q302.812 27.692 306.661 26.9223 Q310.509 26.1121 314.155 26.1121 Q323.999 26.1121 328.86 31.2163 Q333.721 36.3204 333.721 46.6907 Z" fill="#000000" fill-rule="nonzero" fill-opacity="1" /><path clip-path="url(#clip220)" d="M349.074 27.2059 L356.527 27.2059 L356.527 72.576 L349.074 72.576 L349.074 27.2059 M349.074 9.54393 L356.527 9.54393 L356.527 18.9825 L349.074 18.9825 L349.074 9.54393 Z" fill="#000000" fill-rule="nonzero" fill-opacity="1" /><path clip-path="url(#clip220)" d="M409.837 45.1919 L409.837 72.576 L402.384 72.576 L402.384 45.4349 Q402.384 38.994 399.872 35.7938 Q397.36 32.5936 392.337 32.5936 Q386.301 32.5936 382.818 36.4419 Q379.334 40.2903 379.334 46.9338 L379.334 72.576 L371.84 72.576 L371.84 27.2059 L379.334 27.2059 L379.334 34.2544 Q382.007 30.163 385.613 28.1376 Q389.259 26.1121 393.998 26.1121 Q401.816 26.1121 405.827 30.9732 Q409.837 35.7938 409.837 45.1919 Z" fill="#000000" fill-rule="nonzero" fill-opacity="1" /><path clip-path="url(#clip220)" d="M424.704 27.2059 L432.158 27.2059 L432.158 72.576 L424.704 72.576 L424.704 27.2059 M424.704 9.54393 L432.158 9.54393 L432.158 18.9825 L424.704 18.9825 L424.704 9.54393 Z" fill="#000000" fill-rule="nonzero" fill-opacity="1" /><path clip-path="url(#clip220)" d="M485.468 45.1919 L485.468 72.576 L478.014 72.576 L478.014 45.4349 Q478.014 38.994 475.502 35.7938 Q472.991 32.5936 467.968 32.5936 Q461.932 32.5936 458.448 36.4419 Q454.964 40.2903 454.964 46.9338 L454.964 72.576 L447.47 72.576 L447.47 27.2059 L454.964 27.2059 L454.964 34.2544 Q457.638 30.163 461.243 28.1376 Q464.889 26.1121 469.629 26.1121 Q477.447 26.1121 481.457 30.9732 Q485.468 35.7938 485.468 45.1919 Z" fill="#000000" fill-rule="nonzero" fill-opacity="1" /><path clip-path="url(#clip220)" d="M530.19 49.3643 Q530.19 41.2625 526.827 36.8065 Q523.506 32.3505 517.47 32.3505 Q511.474 32.3505 508.112 36.8065 Q504.79 41.2625 504.79 49.3643 Q504.79 57.4256 508.112 61.8816 Q511.474 66.3376 517.47 66.3376 Q523.506 66.3376 526.827 61.8816 Q530.19 57.4256 530.19 49.3643 M537.643 66.9452 Q537.643 78.5308 532.499 84.1616 Q527.354 89.8329 516.741 89.8329 Q512.811 89.8329 509.327 89.2252 Q505.844 88.6581 502.562 87.4428 L502.562 80.1917 Q505.844 81.9741 509.044 82.8248 Q512.244 83.6755 515.566 83.6755 Q522.898 83.6755 526.544 79.8271 Q530.19 76.0193 530.19 68.282 L530.19 64.5957 Q527.881 68.6061 524.275 70.5911 Q520.67 72.576 515.647 72.576 Q507.302 72.576 502.198 66.2161 Q497.094 59.8562 497.094 49.3643 Q497.094 38.832 502.198 32.472 Q507.302 26.1121 515.647 26.1121 Q520.67 26.1121 524.275 28.0971 Q527.881 30.082 530.19 34.0924 L530.19 27.2059 L537.643 27.2059 L537.643 66.9452 Z" fill="#000000" fill-rule="nonzero" fill-opacity="1" /><path clip-path="url(#clip220)" d="M615.947 14.0809 L615.947 22.0612 Q611.289 19.8332 607.157 18.7395 Q603.025 17.6457 599.176 17.6457 Q592.492 17.6457 588.847 20.2383 Q585.241 22.8309 585.241 27.611 Q585.241 31.6214 587.631 33.6873 Q590.062 35.7128 596.786 36.9686 L601.729 37.9813 Q610.884 39.7232 615.218 44.1387 Q619.593 48.5136 619.593 55.8863 Q619.593 64.6767 613.679 69.2137 Q607.805 73.7508 596.422 73.7508 Q592.128 73.7508 587.267 72.7785 Q582.446 71.8063 577.261 69.9024 L577.261 61.4765 Q582.244 64.2716 587.024 65.6895 Q591.804 67.1073 596.422 67.1073 Q603.43 67.1073 607.238 64.3527 Q611.046 61.598 611.046 56.4939 Q611.046 52.0379 608.291 49.5264 Q605.577 47.0148 599.338 45.759 L594.356 44.7868 Q585.201 42.9639 581.109 39.075 Q577.018 35.1862 577.018 28.2591 Q577.018 20.2383 582.649 15.6203 Q588.32 11.0023 598.245 11.0023 Q602.498 11.0023 606.914 11.7719 Q611.329 12.5416 615.947 14.0809 Z" fill="#000000" fill-rule="nonzero" fill-opacity="1" /><path clip-path="url(#clip220)" d="M652.648 49.7694 Q643.615 49.7694 640.131 51.8354 Q636.647 53.9013 636.647 58.8839 Q636.647 62.8538 639.24 65.2034 Q641.873 67.5124 646.369 67.5124 Q652.567 67.5124 656.294 63.1374 Q660.062 58.7219 660.062 51.4303 L660.062 49.7694 L652.648 49.7694 M667.515 46.6907 L667.515 72.576 L660.062 72.576 L660.062 65.6895 Q657.509 69.8214 653.702 71.8063 Q649.894 73.7508 644.385 73.7508 Q637.417 73.7508 633.285 69.8619 Q629.194 65.9325 629.194 59.3701 Q629.194 51.7138 634.298 47.825 Q639.442 43.9361 649.61 43.9361 L660.062 43.9361 L660.062 43.2069 Q660.062 38.0623 656.659 35.2672 Q653.297 32.4315 647.18 32.4315 Q643.291 32.4315 639.604 33.3632 Q635.918 34.295 632.515 36.1584 L632.515 29.2718 Q636.607 27.692 640.455 26.9223 Q644.304 26.1121 647.949 26.1121 Q657.793 26.1121 662.654 31.2163 Q667.515 36.3204 667.515 46.6907 Z" fill="#000000" fill-rule="nonzero" fill-opacity="1" /><path clip-path="url(#clip220)" d="M718.192 35.9153 Q720.987 30.8922 724.876 28.5022 Q728.765 26.1121 734.031 26.1121 Q741.12 26.1121 744.969 31.0947 Q748.817 36.0368 748.817 45.1919 L748.817 72.576 L741.323 72.576 L741.323 45.4349 Q741.323 38.913 739.014 35.7533 Q736.705 32.5936 731.965 32.5936 Q726.172 32.5936 722.81 36.4419 Q719.448 40.2903 719.448 46.9338 L719.448 72.576 L711.954 72.576 L711.954 45.4349 Q711.954 38.8725 709.645 35.7533 Q707.336 32.5936 702.515 32.5936 Q696.803 32.5936 693.441 36.4824 Q690.079 40.3308 690.079 46.9338 L690.079 72.576 L682.585 72.576 L682.585 27.2059 L690.079 27.2059 L690.079 34.2544 Q692.631 30.082 696.196 28.0971 Q699.76 26.1121 704.662 26.1121 Q709.604 26.1121 713.047 28.6237 Q716.531 31.1352 718.192 35.9153 Z" fill="#000000" fill-rule="nonzero" fill-opacity="1" /><path clip-path="url(#clip220)" d="M770.894 65.7705 L770.894 89.8329 L763.4 89.8329 L763.4 27.2059 L770.894 27.2059 L770.894 34.0924 Q773.244 30.0415 776.809 28.0971 Q780.414 26.1121 785.397 26.1121 Q793.66 26.1121 798.805 32.6746 Q803.99 39.2371 803.99 49.9314 Q803.99 60.6258 798.805 67.1883 Q793.66 73.7508 785.397 73.7508 Q780.414 73.7508 776.809 71.8063 Q773.244 69.8214 770.894 65.7705 M796.253 49.9314 Q796.253 41.7081 792.85 37.0496 Q789.488 32.3505 783.574 32.3505 Q777.659 32.3505 774.257 37.0496 Q770.894 41.7081 770.894 49.9314 Q770.894 58.1548 774.257 62.8538 Q777.659 67.5124 783.574 67.5124 Q789.488 67.5124 792.85 62.8538 Q796.253 58.1548 796.253 49.9314 Z" fill="#000000" fill-rule="nonzero" fill-opacity="1" /><path clip-path="url(#clip220)" d="M816.345 9.54393 L823.799 9.54393 L823.799 72.576 L816.345 72.576 L816.345 9.54393 Z" fill="#000000" fill-rule="nonzero" fill-opacity="1" /><path clip-path="url(#clip220)" d="M878.203 48.0275 L878.203 51.6733 L843.932 51.6733 Q844.418 59.3701 848.55 63.421 Q852.723 67.4314 860.136 67.4314 Q864.43 67.4314 868.44 66.3781 Q872.491 65.3249 876.461 63.2184 L876.461 70.267 Q872.45 71.9684 868.238 72.8596 Q864.025 73.7508 859.69 73.7508 Q848.834 73.7508 842.474 67.4314 Q836.154 61.1119 836.154 50.3365 Q836.154 39.1965 842.15 32.6746 Q848.186 26.1121 858.394 26.1121 Q867.549 26.1121 872.856 32.0264 Q878.203 37.9003 878.203 48.0275 M870.749 45.84 Q870.668 39.7232 867.306 36.0774 Q863.984 32.4315 858.475 32.4315 Q852.236 32.4315 848.469 35.9558 Q844.742 39.4801 844.175 45.8805 L870.749 45.84 Z" fill="#000000" fill-rule="nonzero" fill-opacity="1" /><path clip-path="url(#clip220)" d="M919.279 65.6895 L932.647 65.6895 L932.647 19.5497 L918.104 22.4663 L918.104 15.0127 L932.566 12.096 L940.749 12.096 L940.749 65.6895 L954.117 65.6895 L954.117 72.576 L919.279 72.576 L919.279 65.6895 Z" fill="#000000" fill-rule="nonzero" fill-opacity="1" /><path clip-path="url(#clip220)" d="M971.495 62.2867 L980.042 62.2867 L980.042 69.2543 L973.399 82.2172 L968.173 82.2172 L971.495 69.2543 L971.495 62.2867 Z" fill="#000000" fill-rule="nonzero" fill-opacity="1" /><path clip-path="url(#clip220)" d="M1024.8 65.6895 L1038.17 65.6895 L1038.17 19.5497 L1023.63 22.4663 L1023.63 15.0127 L1038.09 12.096 L1046.27 12.096 L1046.27 65.6895 L1059.64 65.6895 L1059.64 72.576 L1024.8 72.576 L1024.8 65.6895 Z" fill="#000000" fill-rule="nonzero" fill-opacity="1" /><path clip-path="url(#clip220)" d="M1093.67 17.4837 Q1087.35 17.4837 1084.15 23.7221 Q1080.99 29.92 1080.99 42.3968 Q1080.99 54.833 1084.15 61.0714 Q1087.35 67.2693 1093.67 67.2693 Q1100.03 67.2693 1103.19 61.0714 Q1106.39 54.833 1106.39 42.3968 Q1106.39 29.92 1103.19 23.7221 Q1100.03 17.4837 1093.67 17.4837 M1093.67 11.0023 Q1103.84 11.0023 1109.19 19.0636 Q1114.57 27.0843 1114.57 42.3968 Q1114.57 57.6687 1109.19 65.73 Q1103.84 73.7508 1093.67 73.7508 Q1083.5 73.7508 1078.11 65.73 Q1072.77 57.6687 1072.77 42.3968 Q1072.77 27.0843 1078.11 19.0636 Q1083.5 11.0023 1093.67 11.0023 Z" fill="#000000" fill-rule="nonzero" fill-opacity="1" /><path clip-path="url(#clip220)" d="M1146.45 17.4837 Q1140.13 17.4837 1136.93 23.7221 Q1133.77 29.92 1133.77 42.3968 Q1133.77 54.833 1136.93 61.0714 Q1140.13 67.2693 1146.45 67.2693 Q1152.81 67.2693 1155.97 61.0714 Q1159.17 54.833 1159.17 42.3968 Q1159.17 29.92 1155.97 23.7221 Q1152.81 17.4837 1146.45 17.4837 M1146.45 11.0023 Q1156.62 11.0023 1161.97 19.0636 Q1167.36 27.0843 1167.36 42.3968 Q1167.36 57.6687 1161.97 65.73 Q1156.62 73.7508 1146.45 73.7508 Q1136.29 73.7508 1130.9 65.73 Q1125.55 57.6687 1125.55 42.3968 Q1125.55 27.0843 1130.9 19.0636 Q1136.29 11.0023 1146.45 11.0023 Z" fill="#000000" fill-rule="nonzero" fill-opacity="1" /><path clip-path="url(#clip220)" d="M1199.24 17.4837 Q1192.92 17.4837 1189.72 23.7221 Q1186.56 29.92 1186.56 42.3968 Q1186.56 54.833 1189.72 61.0714 Q1192.92 67.2693 1199.24 67.2693 Q1205.6 67.2693 1208.76 61.0714 Q1211.96 54.833 1211.96 42.3968 Q1211.96 29.92 1208.76 23.7221 Q1205.6 17.4837 1199.24 17.4837 M1199.24 11.0023 Q1209.4 11.0023 1214.75 19.0636 Q1220.14 27.0843 1220.14 42.3968 Q1220.14 57.6687 1214.75 65.73 Q1209.4 73.7508 1199.24 73.7508 Q1189.07 73.7508 1183.68 65.73 Q1178.33 57.6687 1178.33 42.3968 Q1178.33 27.0843 1183.68 19.0636 Q1189.07 11.0023 1199.24 11.0023 Z" fill="#000000" fill-rule="nonzero" fill-opacity="1" /><path clip-path="url(#clip220)" d="M1296.42 14.0809 L1296.42 22.0612 Q1291.76 19.8332 1287.63 18.7395 Q1283.5 17.6457 1279.65 17.6457 Q1272.96 17.6457 1269.32 20.2383 Q1265.71 22.8309 1265.71 27.611 Q1265.71 31.6214 1268.1 33.6873 Q1270.53 35.7128 1277.26 36.9686 L1282.2 37.9813 Q1291.35 39.7232 1295.69 44.1387 Q1300.06 48.5136 1300.06 55.8863 Q1300.06 64.6767 1294.15 69.2137 Q1288.28 73.7508 1276.89 73.7508 Q1272.6 73.7508 1267.74 72.7785 Q1262.92 71.8063 1257.73 69.9024 L1257.73 61.4765 Q1262.71 64.2716 1267.49 65.6895 Q1272.27 67.1073 1276.89 67.1073 Q1283.9 67.1073 1287.71 64.3527 Q1291.52 61.598 1291.52 56.4939 Q1291.52 52.0379 1288.76 49.5264 Q1286.05 47.0148 1279.81 45.759 L1274.83 44.7868 Q1265.67 42.9639 1261.58 39.075 Q1257.49 35.1862 1257.49 28.2591 Q1257.49 20.2383 1263.12 15.6203 Q1268.79 11.0023 1278.72 11.0023 Q1282.97 11.0023 1287.38 11.7719 Q1291.8 12.5416 1296.42 14.0809 Z" fill="#000000" fill-rule="nonzero" fill-opacity="1" /><path clip-path="url(#clip220)" d="M1333.12 49.7694 Q1324.09 49.7694 1320.6 51.8354 Q1317.12 53.9013 1317.12 58.8839 Q1317.12 62.8538 1319.71 65.2034 Q1322.34 67.5124 1326.84 67.5124 Q1333.04 67.5124 1336.77 63.1374 Q1340.53 58.7219 1340.53 51.4303 L1340.53 49.7694 L1333.12 49.7694 M1347.99 46.6907 L1347.99 72.576 L1340.53 72.576 L1340.53 65.6895 Q1337.98 69.8214 1334.17 71.8063 Q1330.36 73.7508 1324.86 73.7508 Q1317.89 73.7508 1313.76 69.8619 Q1309.66 65.9325 1309.66 59.3701 Q1309.66 51.7138 1314.77 47.825 Q1319.91 43.9361 1330.08 43.9361 L1340.53 43.9361 L1340.53 43.2069 Q1340.53 38.0623 1337.13 35.2672 Q1333.77 32.4315 1327.65 32.4315 Q1323.76 32.4315 1320.08 33.3632 Q1316.39 34.295 1312.99 36.1584 L1312.99 29.2718 Q1317.08 27.692 1320.93 26.9223 Q1324.77 26.1121 1328.42 26.1121 Q1338.26 26.1121 1343.13 31.2163 Q1347.99 36.3204 1347.99 46.6907 Z" fill="#000000" fill-rule="nonzero" fill-opacity="1" /><path clip-path="url(#clip220)" d="M1398.66 35.9153 Q1401.46 30.8922 1405.35 28.5022 Q1409.24 26.1121 1414.5 26.1121 Q1421.59 26.1121 1425.44 31.0947 Q1429.29 36.0368 1429.29 45.1919 L1429.29 72.576 L1421.79 72.576 L1421.79 45.4349 Q1421.79 38.913 1419.48 35.7533 Q1417.18 32.5936 1412.44 32.5936 Q1406.64 32.5936 1403.28 36.4419 Q1399.92 40.2903 1399.92 46.9338 L1399.92 72.576 L1392.42 72.576 L1392.42 45.4349 Q1392.42 38.8725 1390.12 35.7533 Q1387.81 32.5936 1382.99 32.5936 Q1377.27 32.5936 1373.91 36.4824 Q1370.55 40.3308 1370.55 46.9338 L1370.55 72.576 L1363.06 72.576 L1363.06 27.2059 L1370.55 27.2059 L1370.55 34.2544 Q1373.1 30.082 1376.67 28.0971 Q1380.23 26.1121 1385.13 26.1121 Q1390.07 26.1121 1393.52 28.6237 Q1397 31.1352 1398.66 35.9153 Z" fill="#000000" fill-rule="nonzero" fill-opacity="1" /><path clip-path="url(#clip220)" d="M1451.37 65.7705 L1451.37 89.8329 L1443.87 89.8329 L1443.87 27.2059 L1451.37 27.2059 L1451.37 34.0924 Q1453.71 30.0415 1457.28 28.0971 Q1460.88 26.1121 1465.87 26.1121 Q1474.13 26.1121 1479.28 32.6746 Q1484.46 39.2371 1484.46 49.9314 Q1484.46 60.6258 1479.28 67.1883 Q1474.13 73.7508 1465.87 73.7508 Q1460.88 73.7508 1457.28 71.8063 Q1453.71 69.8214 1451.37 65.7705 M1476.72 49.9314 Q1476.72 41.7081 1473.32 37.0496 Q1469.96 32.3505 1464.04 32.3505 Q1458.13 32.3505 1454.73 37.0496 Q1451.37 41.7081 1451.37 49.9314 Q1451.37 58.1548 1454.73 62.8538 Q1458.13 67.5124 1464.04 67.5124 Q1469.96 67.5124 1473.32 62.8538 Q1476.72 58.1548 1476.72 49.9314 Z" fill="#000000" fill-rule="nonzero" fill-opacity="1" /><path clip-path="url(#clip220)" d="M1496.82 9.54393 L1504.27 9.54393 L1504.27 72.576 L1496.82 72.576 L1496.82 9.54393 Z" fill="#000000" fill-rule="nonzero" fill-opacity="1" /><path clip-path="url(#clip220)" d="M1558.67 48.0275 L1558.67 51.6733 L1524.4 51.6733 Q1524.89 59.3701 1529.02 63.421 Q1533.19 67.4314 1540.61 67.4314 Q1544.9 67.4314 1548.91 66.3781 Q1552.96 65.3249 1556.93 63.2184 L1556.93 70.267 Q1552.92 71.9684 1548.71 72.8596 Q1544.5 73.7508 1540.16 73.7508 Q1529.3 73.7508 1522.94 67.4314 Q1516.63 61.1119 1516.63 50.3365 Q1516.63 39.1965 1522.62 32.6746 Q1528.66 26.1121 1538.86 26.1121 Q1548.02 26.1121 1553.33 32.0264 Q1558.67 37.9003 1558.67 48.0275 M1551.22 45.84 Q1551.14 39.7232 1547.78 36.0774 Q1544.45 32.4315 1538.95 32.4315 Q1532.71 32.4315 1528.94 35.9558 Q1525.21 39.4801 1524.65 45.8805 L1551.22 45.84 Z" fill="#000000" fill-rule="nonzero" fill-opacity="1" /><path clip-path="url(#clip220)" d="M1597.6 12.096 L1635.84 12.096 L1635.84 18.9825 L1605.79 18.9825 L1605.79 36.8875 L1634.59 36.8875 L1634.59 43.7741 L1605.79 43.7741 L1605.79 65.6895 L1636.57 65.6895 L1636.57 72.576 L1597.6 72.576 L1597.6 12.096 Z" fill="#000000" fill-rule="nonzero" fill-opacity="1" /><path clip-path="url(#clip220)" d="M1678.62 28.5427 L1678.62 35.5912 Q1675.46 33.9709 1672.06 33.1607 Q1668.66 32.3505 1665.01 32.3505 Q1659.46 32.3505 1656.67 34.0519 Q1653.91 35.7533 1653.91 39.156 Q1653.91 41.7486 1655.9 43.2475 Q1657.88 44.7058 1663.88 46.0426 L1666.43 46.6097 Q1674.37 48.3111 1677.69 51.4303 Q1681.05 54.509 1681.05 60.0587 Q1681.05 66.3781 1676.03 70.0644 Q1671.05 73.7508 1662.3 73.7508 Q1658.65 73.7508 1654.68 73.0216 Q1650.75 72.3329 1646.38 70.9151 L1646.38 63.2184 Q1650.51 65.3654 1654.52 66.4591 Q1658.53 67.5124 1662.46 67.5124 Q1667.72 67.5124 1670.56 65.73 Q1673.4 63.9071 1673.4 60.6258 Q1673.4 57.5877 1671.33 55.9673 Q1669.3 54.3469 1662.38 52.8481 L1659.78 52.2405 Q1652.86 50.7821 1649.78 47.7845 Q1646.7 44.7463 1646.7 39.4801 Q1646.7 33.0797 1651.24 29.5959 Q1655.77 26.1121 1664.12 26.1121 Q1668.25 26.1121 1671.9 26.7198 Q1675.54 27.3274 1678.62 28.5427 Z" fill="#000000" fill-rule="nonzero" fill-opacity="1" /><path clip-path="url(#clip220)" d="M1700.29 14.324 L1700.29 27.2059 L1715.65 27.2059 L1715.65 32.9987 L1700.29 32.9987 L1700.29 57.6282 Q1700.29 63.1779 1701.79 64.7578 Q1703.33 66.3376 1707.99 66.3376 L1715.65 66.3376 L1715.65 72.576 L1707.99 72.576 Q1699.36 72.576 1696.08 69.3758 Q1692.8 66.1351 1692.8 57.6282 L1692.8 32.9987 L1687.33 32.9987 L1687.33 27.2059 L1692.8 27.2059 L1692.8 14.324 L1700.29 14.324 Z" fill="#000000" fill-rule="nonzero" fill-opacity="1" /><path clip-path="url(#clip220)" d="M1725.45 27.2059 L1732.9 27.2059 L1732.9 72.576 L1725.45 72.576 L1725.45 27.2059 M1725.45 9.54393 L1732.9 9.54393 L1732.9 18.9825 L1725.45 18.9825 L1725.45 9.54393 Z" fill="#000000" fill-rule="nonzero" fill-opacity="1" /><path clip-path="url(#clip220)" d="M1783.82 35.9153 Q1786.62 30.8922 1790.51 28.5022 Q1794.4 26.1121 1799.66 26.1121 Q1806.75 26.1121 1810.6 31.0947 Q1814.45 36.0368 1814.45 45.1919 L1814.45 72.576 L1806.95 72.576 L1806.95 45.4349 Q1806.95 38.913 1804.64 35.7533 Q1802.34 32.5936 1797.6 32.5936 Q1791.8 32.5936 1788.44 36.4419 Q1785.08 40.2903 1785.08 46.9338 L1785.08 72.576 L1777.58 72.576 L1777.58 45.4349 Q1777.58 38.8725 1775.28 35.7533 Q1772.97 32.5936 1768.15 32.5936 Q1762.43 32.5936 1759.07 36.4824 Q1755.71 40.3308 1755.71 46.9338 L1755.71 72.576 L1748.22 72.576 L1748.22 27.2059 L1755.71 27.2059 L1755.71 34.2544 Q1758.26 30.082 1761.83 28.0971 Q1765.39 26.1121 1770.29 26.1121 Q1775.23 26.1121 1778.68 28.6237 Q1782.16 31.1352 1783.82 35.9153 Z" fill="#000000" fill-rule="nonzero" fill-opacity="1" /><path clip-path="url(#clip220)" d="M1849.93 49.7694 Q1840.9 49.7694 1837.42 51.8354 Q1833.93 53.9013 1833.93 58.8839 Q1833.93 62.8538 1836.53 65.2034 Q1839.16 67.5124 1843.65 67.5124 Q1849.85 67.5124 1853.58 63.1374 Q1857.35 58.7219 1857.35 51.4303 L1857.35 49.7694 L1849.93 49.7694 M1864.8 46.6907 L1864.8 72.576 L1857.35 72.576 L1857.35 65.6895 Q1854.79 69.8214 1850.99 71.8063 Q1847.18 73.7508 1841.67 73.7508 Q1834.7 73.7508 1830.57 69.8619 Q1826.48 65.9325 1826.48 59.3701 Q1826.48 51.7138 1831.58 47.825 Q1836.73 43.9361 1846.9 43.9361 L1857.35 43.9361 L1857.35 43.2069 Q1857.35 38.0623 1853.94 35.2672 Q1850.58 32.4315 1844.46 32.4315 Q1840.58 32.4315 1836.89 33.3632 Q1833.2 34.295 1829.8 36.1584 L1829.8 29.2718 Q1833.89 27.692 1837.74 26.9223 Q1841.59 26.1121 1845.23 26.1121 Q1855.08 26.1121 1859.94 31.2163 Q1864.8 36.3204 1864.8 46.6907 Z" fill="#000000" fill-rule="nonzero" fill-opacity="1" /><path clip-path="url(#clip220)" d="M1887.53 14.324 L1887.53 27.2059 L1902.88 27.2059 L1902.88 32.9987 L1887.53 32.9987 L1887.53 57.6282 Q1887.53 63.1779 1889.02 64.7578 Q1890.56 66.3376 1895.22 66.3376 L1902.88 66.3376 L1902.88 72.576 L1895.22 72.576 Q1886.59 72.576 1883.31 69.3758 Q1880.03 66.1351 1880.03 57.6282 L1880.03 32.9987 L1874.56 32.9987 L1874.56 27.2059 L1880.03 27.2059 L1880.03 14.324 L1887.53 14.324 Z" fill="#000000" fill-rule="nonzero" fill-opacity="1" /><path clip-path="url(#clip220)" d="M1951.49 48.0275 L1951.49 51.6733 L1917.22 51.6733 Q1917.71 59.3701 1921.84 63.421 Q1926.01 67.4314 1933.42 67.4314 Q1937.72 67.4314 1941.73 66.3781 Q1945.78 65.3249 1949.75 63.2184 L1949.75 70.267 Q1945.74 71.9684 1941.52 72.8596 Q1937.31 73.7508 1932.98 73.7508 Q1922.12 73.7508 1915.76 67.4314 Q1909.44 61.1119 1909.44 50.3365 Q1909.44 39.1965 1915.44 32.6746 Q1921.47 26.1121 1931.68 26.1121 Q1940.84 26.1121 1946.14 32.0264 Q1951.49 37.9003 1951.49 48.0275 M1944.04 45.84 Q1943.96 39.7232 1940.59 36.0774 Q1937.27 32.4315 1931.76 32.4315 Q1925.52 32.4315 1921.76 35.9558 Q1918.03 39.4801 1917.46 45.8805 L1944.04 45.84 Z" fill="#000000" fill-rule="nonzero" fill-opacity="1" /><path clip-path="url(#clip220)" d="M1965.63 62.2867 L1974.17 62.2867 L1974.17 69.2543 L1967.53 82.2172 L1962.31 82.2172 L1965.63 69.2543 L1965.63 62.2867 Z" fill="#000000" fill-rule="nonzero" fill-opacity="1" /><path clip-path="url(#clip220)" d="M2049.32 20.0358 Q2045.19 17.2001 2035.51 17.2001 Q2025.26 17.2001 2025.26 21.9397 Q2025.26 25.6665 2035.95 27.611 Q2044.38 29.1098 2049.12 33.6468 Q2054.87 39.1155 2054.87 50.3365 Q2054.87 61.0714 2049.32 67.3908 Q2043.77 73.7508 2034.05 73.7508 Q2024.37 73.7508 2018.78 67.3908 Q2013.23 61.0714 2013.23 49.9314 Q2013.23 41.6676 2018.78 34.9836 Q2020.92 32.391 2023.96 30.9327 Q2017.64 27.7325 2017.64 22.0207 Q2017.64 11.0023 2035.51 11.0023 Q2044.46 11.0023 2049.32 13.8379 L2049.32 20.0358 M2029.55 32.9582 Q2026.8 34.1329 2024.57 37.0901 Q2021.08 41.6676 2021.08 49.9314 Q2021.08 58.1548 2024.53 62.7728 Q2028.01 67.4314 2034.05 67.4314 Q2040 67.4314 2043.49 62.7323 Q2046.97 58.0333 2046.97 50.3365 Q2046.97 42.2752 2043.28 38.3864 Q2039.35 34.2139 2034.25 33.7683 Q2031.66 33.5253 2029.55 32.9582 Z" fill="#000000" fill-rule="nonzero" fill-opacity="1" /><path clip-path="url(#clip220)" d="M2104.94 27.2059 L2088.53 49.2833 L2105.79 72.576 L2097 72.576 L2083.79 54.752 L2070.59 72.576 L2061.8 72.576 L2079.42 48.8377 L2063.29 27.2059 L2072.09 27.2059 L2084.12 43.369 L2096.15 27.2059 L2104.94 27.2059 Z" fill="#000000" fill-rule="nonzero" fill-opacity="1" /><path clip-path="url(#clip220)" d="M2143.66 34.9026 L2195.6 34.9026 L2195.6 41.7081 L2143.66 41.7081 L2143.66 34.9026 M2143.66 51.4303 L2195.6 51.4303 L2195.6 58.3168 L2143.66 58.3168 L2143.66 51.4303 Z" fill="#000000" fill-rule="nonzero" fill-opacity="1" /><path clip-path="url(#clip220)" d="M2257.13 17.4837 Q2250.81 17.4837 2247.61 23.7221 Q2244.45 29.92 2244.45 42.3968 Q2244.45 54.833 2247.61 61.0714 Q2250.81 67.2693 2257.13 67.2693 Q2263.49 67.2693 2266.65 61.0714 Q2269.85 54.833 2269.85 42.3968 Q2269.85 29.92 2266.65 23.7221 Q2263.49 17.4837 2257.13 17.4837 M2257.13 11.0023 Q2267.3 11.0023 2272.65 19.0636 Q2278.03 27.0843 2278.03 42.3968 Q2278.03 57.6687 2272.65 65.73 Q2267.3 73.7508 2257.13 73.7508 Q2246.96 73.7508 2241.58 65.73 Q2236.23 57.6687 2236.23 42.3968 Q2236.23 27.0843 2241.58 19.0636 Q2246.96 11.0023 2257.13 11.0023 Z" fill="#000000" fill-rule="nonzero" fill-opacity="1" /><path clip-path="url(#clip220)" d="M2292.41 62.2867 L2300.96 62.2867 L2300.96 72.576 L2292.41 72.576 L2292.41 62.2867 Z" fill="#000000" fill-rule="nonzero" fill-opacity="1" /><path clip-path="url(#clip220)" d="M2320.2 65.6895 L2333.57 65.6895 L2333.57 19.5497 L2319.03 22.4663 L2319.03 15.0127 L2333.49 12.096 L2341.67 12.096 L2341.67 65.6895 L2355.04 65.6895 L2355.04 72.576 L2320.2 72.576 L2320.2 65.6895 Z" fill="#000000" fill-rule="nonzero" fill-opacity="1" /><polyline clip-path="url(#clip222)" style="stroke:#009af9; stroke-linecap:round; stroke-linejoin:round; stroke-width:8; stroke-opacity:1; fill:none" points="280.231,1022.43 300.556,944.061 320.881,838.028 341.206,722.283 361.53,619.65 381.855,546.527 402.18,508.923 422.505,507.258 442.83,541.504 463.155,611.442 483.48,711.854 503.804,827.321 524.129,935.167 544.454,1016.57 564.779,1063.19 585.104,1073.8 605.429,1048.58 625.753,987.4 646.078,893.618 666.403,779.918 686.728,668.047 707.053,578.814 727.378,523.206 747.703,503.621 768.027,519.865 "/>
<path clip-path="url(#clip222)" d="M788.352 1079.41 L808.677 1181.91 L829.002 1259.98 L849.327 1301.26 L869.652 1328.14 L889.977 1360.29 L910.301 1381.51 L930.626 1373.41 L950.951 1379.71 L971.276 1353.99 L991.601 1299.97 L1011.93 1224.61 L1032.25 1142.3 L1052.58 1044.82 L1072.9 1020.12 L1093.23 1015.75 L1113.55 1071.05 L1133.87 1134.2 L1154.2 1244.54 L1174.52 1315.79 L1194.85 1336.5 L1215.17 1355.14 L1235.5 1372.89 L1255.82 1366.08 L1276.15 1386.4 L1296.47 1368.78 L1316.8 1316.69 L1337.12 1299.33 L1357.45 1157.73 L1377.77 1066.68 L1398.1 1032.86 L1418.42 1002.51 L1438.75 1043.66 L1459.07 1111.43 L1479.4 1174.07 L1499.72 1268.21 L1520.05 1335.98 L1540.37 1359.13 L1560.7 1356.17 L1581.02 1365.95 L1601.35 1360.67 L1621.67 1374.69 L1642 1336.88 L1662.32 1315.53 L1682.65 1213.29 L1702.97 1123.52 L1723.3 1054.2 L1743.62 1023.08 L1763.95 1015.75 L1784.27 1064.75 L1804.59 1136.51 L1824.92 1225.25 L1845.24 1303.7 L1865.57 1357.72 L1885.89 1365.43 L1906.22 1361.32 L1926.54 1379.97 L1946.87 1346.53 L1967.19 1358.23 L1987.52 1309.1 L2007.84 1245.31 L2028.17 1163.39 L2048.49 1091.76 L2068.82 1035.69 L2089.14 1030.03 L2109.47 1037.87 L2129.79 1108.09 L2150.12 1202.49 L2170.44 1295.21 L2190.77 1321.32 L2211.09 1353.22 L2231.42 1365.82 L2251.74 1370.19 L2272.07 1369.03 L2292.39 1346.4 L2292.39 504.15 L2272.07 526.785 L2251.74 527.942 L2231.42 523.57 L2211.09 510.966 L2190.77 479.072 L2170.44 452.965 L2150.12 360.239 L2129.79 265.842 L2109.47 195.623 L2089.14 187.778 L2068.82 193.437 L2048.49 249.509 L2028.17 321.143 L2007.84 403.065 L1987.52 466.854 L1967.19 515.982 L1946.87 504.279 L1926.54 537.717 L1906.22 519.069 L1885.89 523.184 L1865.57 515.468 L1845.24 461.453 L1824.92 383.003 L1804.59 294.264 L1784.27 222.502 L1763.95 173.503 L1743.62 180.833 L1723.3 211.956 L1702.97 281.275 L1682.65 371.042 L1662.32 473.285 L1642 494.633 L1621.67 532.444 L1601.35 518.426 L1581.02 523.698 L1560.7 513.924 L1540.37 516.882 L1520.05 493.733 L1499.72 425.957 L1479.4 331.817 L1459.07 269.186 L1438.75 201.41 L1418.42 160.256 L1398.1 190.607 L1377.77 224.431 L1357.45 315.484 L1337.12 457.08 L1316.8 474.442 L1296.47 526.528 L1276.15 544.147 L1255.82 523.827 L1235.5 530.643 L1215.17 512.895 L1194.85 494.248 L1174.52 473.542 L1154.2 402.294 L1133.87 291.949 L1113.55 228.804 L1093.23 173.503 L1072.9 177.875 L1052.58 202.568 L1032.25 300.052 L1011.93 382.36 L991.601 457.723 L971.276 511.738 L950.951 537.459 L930.626 531.158 L910.301 539.26 L889.977 518.04 L869.652 485.888 L849.327 459.009 L829.002 417.727 L808.677 339.662 L788.352 237.163  Z" fill="#e26f46" fill-rule="evenodd" fill-opacity="0.5"/>
<polyline clip-path="url(#clip222)" style="stroke:#e26f46; stroke-linecap:round; stroke-linejoin:round; stroke-width:8; stroke-opacity:1; fill:none" stroke-dasharray="32, 16, 4, 16" points="788.352,658.287 808.677,760.787 829.002,838.851 849.327,880.134 869.652,907.012 889.977,939.164 910.301,960.384 930.626,952.282 950.951,958.584 971.276,932.862 991.601,878.848 1011.93,803.484 1032.25,721.176 1052.58,623.692 1072.9,599 1093.23,594.627 1113.55,649.928 1133.87,713.074 1154.2,823.418 1174.52,894.666 1194.85,915.372 1215.17,934.02 1235.5,951.768 1255.82,944.951 1276.15,965.271 1296.47,947.652 1316.8,895.567 1337.12,878.205 1357.45,736.609 1377.77,645.555 1398.1,611.732 1418.42,581.381 1438.75,622.535 1459.07,690.31 1479.4,752.942 1499.72,847.082 1520.05,914.857 1540.37,938.007 1560.7,935.049 1581.02,944.823 1601.35,939.55 1621.67,953.568 1642,915.758 1662.32,894.409 1682.65,792.167 1702.97,702.399 1723.3,633.081 1743.62,601.958 1763.95,594.627 1784.27,643.626 1804.59,715.389 1824.92,804.127 1845.24,882.577 1865.57,936.592 1885.89,944.308 1906.22,940.193 1926.54,958.841 1946.87,925.403 1967.19,937.106 1987.52,887.979 2007.84,824.19 2028.17,742.268 2048.49,670.634 2068.82,614.561 2089.14,608.903 2109.47,616.748 2129.79,686.967 2150.12,781.364 2170.44,874.089 2190.77,900.196 2211.09,932.091 2231.42,944.694 2251.74,949.067 2272.07,947.909 2292.39,925.275 "/>
<polyline clip-path="url(#clip222)" style="stroke:#3da44d; stroke-linecap:round; stroke-linejoin:round; stroke-width:8; stroke-opacity:1; fill:none" points="788.352,572.141 808.677,658.539 829.002,769.069 849.327,883.595 869.652,979.94 889.977,1044.4 910.301,1072.97 930.626,1065.69 950.951,1022.43 971.276,944.061 991.601,838.028 1011.93,722.283 1032.25,619.65 1052.58,546.527 1072.9,508.923 1093.23,507.258 1113.55,541.504 1133.87,611.442 1154.2,711.854 1174.52,827.321 1194.85,935.167 1215.17,1016.57 1235.5,1063.19 1255.82,1073.8 1276.15,1048.58 1296.47,987.4 1316.8,893.618 1337.12,779.918 1357.45,668.047 1377.77,578.814 1398.1,523.206 1418.42,503.621 1438.75,519.865 1459.07,572.141 1479.4,658.539 1499.72,769.069 1520.05,883.595 1540.37,979.94 1560.7,1044.4 1581.02,1072.97 1601.35,1065.69 1621.67,1022.43 1642,944.061 1662.32,838.028 1682.65,722.283 1702.97,619.65 1723.3,546.527 1743.62,508.923 1763.95,507.258 1784.27,541.504 1804.59,611.442 1824.92,711.854 1845.24,827.321 1865.57,935.167 1885.89,1016.57 1906.22,1063.19 1926.54,1073.8 1946.87,1048.58 1967.19,987.4 1987.52,893.618 2007.84,779.918 2028.17,668.047 2048.49,578.814 2068.82,523.206 2089.14,503.621 2109.47,519.865 2129.79,572.141 2150.12,658.539 2170.44,769.069 2190.77,883.595 2211.09,979.94 2231.42,1044.4 2251.74,1072.97 2272.07,1065.69 2292.39,1022.43 "/>
<path clip-path="url(#clip220)" d="M290.963 1379.86 L911.032 1379.86 L911.032 1172.5 L290.963 1172.5  Z" fill="#ffffff" fill-rule="evenodd" fill-opacity="1"/>
<polyline clip-path="url(#clip220)" style="stroke:#000000; stroke-linecap:round; stroke-linejoin:round; stroke-width:4; stroke-opacity:1; fill:none" points="290.963,1379.86 911.032,1379.86 911.032,1172.5 290.963,1172.5 290.963,1379.86 "/>
<polyline clip-path="url(#clip220)" style="stroke:#009af9; stroke-linecap:round; stroke-linejoin:round; stroke-width:8; stroke-opacity:1; fill:none" points="314.661,1224.34 456.854,1224.34 "/>
<path clip-path="url(#clip220)" d="M508.423 1209.72 L508.423 1214.65 Q506.062 1212.45 503.377 1211.36 Q500.715 1210.27 497.705 1210.27 Q491.78 1210.27 488.631 1213.91 Q485.483 1217.52 485.483 1224.37 Q485.483 1231.2 488.631 1234.83 Q491.78 1238.44 497.705 1238.44 Q500.715 1238.44 503.377 1237.36 Q506.062 1236.27 508.423 1234.07 L508.423 1238.95 Q505.969 1240.62 503.215 1241.45 Q500.483 1242.29 497.428 1242.29 Q489.581 1242.29 485.067 1237.5 Q480.553 1232.68 480.553 1224.37 Q480.553 1216.04 485.067 1211.25 Q489.581 1206.43 497.428 1206.43 Q500.53 1206.43 503.261 1207.26 Q506.016 1208.07 508.423 1209.72 Z" fill="#000000" fill-rule="nonzero" fill-opacity="1" /><path clip-path="url(#clip220)" d="M525.506 1218.68 Q522.08 1218.68 520.09 1221.36 Q518.099 1224.02 518.099 1228.68 Q518.099 1233.33 520.066 1236.01 Q522.057 1238.68 525.506 1238.68 Q528.909 1238.68 530.9 1235.99 Q532.89 1233.31 532.89 1228.68 Q532.89 1224.07 530.9 1221.38 Q528.909 1218.68 525.506 1218.68 M525.506 1215.07 Q531.062 1215.07 534.233 1218.68 Q537.404 1222.29 537.404 1228.68 Q537.404 1235.04 534.233 1238.68 Q531.062 1242.29 525.506 1242.29 Q519.928 1242.29 516.756 1238.68 Q513.608 1235.04 513.608 1228.68 Q513.608 1222.29 516.756 1218.68 Q519.928 1215.07 525.506 1215.07 Z" fill="#000000" fill-rule="nonzero" fill-opacity="1" /><path clip-path="url(#clip220)" d="M566.015 1225.97 L566.015 1241.62 L561.756 1241.62 L561.756 1226.11 Q561.756 1222.43 560.321 1220.6 Q558.886 1218.77 556.015 1218.77 Q552.566 1218.77 550.576 1220.97 Q548.585 1223.17 548.585 1226.96 L548.585 1241.62 L544.302 1241.62 L544.302 1215.69 L548.585 1215.69 L548.585 1219.72 Q550.113 1217.38 552.173 1216.22 Q554.256 1215.07 556.964 1215.07 Q561.432 1215.07 563.724 1217.84 Q566.015 1220.6 566.015 1225.97 Z" fill="#000000" fill-rule="nonzero" fill-opacity="1" /><path clip-path="url(#clip220)" d="M591.571 1219.63 L591.571 1205.6 L595.83 1205.6 L595.83 1241.62 L591.571 1241.62 L591.571 1237.73 Q590.228 1240.04 588.168 1241.18 Q586.131 1242.29 583.261 1242.29 Q578.562 1242.29 575.599 1238.54 Q572.659 1234.79 572.659 1228.68 Q572.659 1222.57 575.599 1218.82 Q578.562 1215.07 583.261 1215.07 Q586.131 1215.07 588.168 1216.2 Q590.228 1217.31 591.571 1219.63 M577.057 1228.68 Q577.057 1233.38 578.978 1236.06 Q580.923 1238.72 584.302 1238.72 Q587.682 1238.72 589.626 1236.06 Q591.571 1233.38 591.571 1228.68 Q591.571 1223.98 589.626 1221.32 Q587.682 1218.63 584.302 1218.63 Q580.923 1218.63 578.978 1221.32 Q577.057 1223.98 577.057 1228.68 Z" fill="#000000" fill-rule="nonzero" fill-opacity="1" /><path clip-path="url(#clip220)" d="M604.603 1215.69 L608.862 1215.69 L608.862 1241.62 L604.603 1241.62 L604.603 1215.69 M604.603 1205.6 L608.862 1205.6 L608.862 1210.99 L604.603 1210.99 L604.603 1205.6 Z" fill="#000000" fill-rule="nonzero" fill-opacity="1" /><path clip-path="url(#clip220)" d="M621.987 1208.33 L621.987 1215.69 L630.76 1215.69 L630.76 1219 L621.987 1219 L621.987 1233.07 Q621.987 1236.25 622.844 1237.15 Q623.723 1238.05 626.385 1238.05 L630.76 1238.05 L630.76 1241.62 L626.385 1241.62 Q621.455 1241.62 619.58 1239.79 Q617.705 1237.94 617.705 1233.07 L617.705 1219 L614.58 1219 L614.58 1215.69 L617.705 1215.69 L617.705 1208.33 L621.987 1208.33 Z" fill="#000000" fill-rule="nonzero" fill-opacity="1" /><path clip-path="url(#clip220)" d="M636.362 1215.69 L640.621 1215.69 L640.621 1241.62 L636.362 1241.62 L636.362 1215.69 M636.362 1205.6 L640.621 1205.6 L640.621 1210.99 L636.362 1210.99 L636.362 1205.6 Z" fill="#000000" fill-rule="nonzero" fill-opacity="1" /><path clip-path="url(#clip220)" d="M659.58 1218.68 Q656.154 1218.68 654.163 1221.36 Q652.172 1224.02 652.172 1228.68 Q652.172 1233.33 654.14 1236.01 Q656.131 1238.68 659.58 1238.68 Q662.982 1238.68 664.973 1235.99 Q666.964 1233.31 666.964 1228.68 Q666.964 1224.07 664.973 1221.38 Q662.982 1218.68 659.58 1218.68 M659.58 1215.07 Q665.135 1215.07 668.306 1218.68 Q671.478 1222.29 671.478 1228.68 Q671.478 1235.04 668.306 1238.68 Q665.135 1242.29 659.58 1242.29 Q654.001 1242.29 650.83 1238.68 Q647.682 1235.04 647.682 1228.68 Q647.682 1222.29 650.83 1218.68 Q654.001 1215.07 659.58 1215.07 Z" fill="#000000" fill-rule="nonzero" fill-opacity="1" /><path clip-path="url(#clip220)" d="M700.089 1225.97 L700.089 1241.62 L695.829 1241.62 L695.829 1226.11 Q695.829 1222.43 694.394 1220.6 Q692.959 1218.77 690.089 1218.77 Q686.64 1218.77 684.649 1220.97 Q682.658 1223.17 682.658 1226.96 L682.658 1241.62 L678.376 1241.62 L678.376 1215.69 L682.658 1215.69 L682.658 1219.72 Q684.186 1217.38 686.246 1216.22 Q688.329 1215.07 691.038 1215.07 Q695.505 1215.07 697.797 1217.84 Q700.089 1220.6 700.089 1225.97 Z" fill="#000000" fill-rule="nonzero" fill-opacity="1" /><path clip-path="url(#clip220)" d="M730.76 1227.59 L730.76 1229.67 L711.177 1229.67 Q711.454 1234.07 713.815 1236.38 Q716.2 1238.68 720.436 1238.68 Q722.889 1238.68 725.181 1238.07 Q727.496 1237.47 729.764 1236.27 L729.764 1240.3 Q727.473 1241.27 725.065 1241.78 Q722.658 1242.29 720.181 1242.29 Q713.977 1242.29 710.343 1238.68 Q706.732 1235.07 706.732 1228.91 Q706.732 1222.54 710.158 1218.82 Q713.607 1215.07 719.44 1215.07 Q724.672 1215.07 727.704 1218.45 Q730.76 1221.8 730.76 1227.59 M726.501 1226.34 Q726.454 1222.84 724.533 1220.76 Q722.635 1218.68 719.487 1218.68 Q715.922 1218.68 713.769 1220.69 Q711.64 1222.7 711.315 1226.36 L726.501 1226.34 Z" fill="#000000" fill-rule="nonzero" fill-opacity="1" /><path clip-path="url(#clip220)" d="M754.811 1219.63 L754.811 1205.6 L759.07 1205.6 L759.07 1241.62 L754.811 1241.62 L754.811 1237.73 Q753.468 1240.04 751.408 1241.18 Q749.371 1242.29 746.5 1242.29 Q741.801 1242.29 738.838 1238.54 Q735.899 1234.79 735.899 1228.68 Q735.899 1222.57 738.838 1218.82 Q741.801 1215.07 746.5 1215.07 Q749.371 1215.07 751.408 1216.2 Q753.468 1217.31 754.811 1219.63 M740.297 1228.68 Q740.297 1233.38 742.218 1236.06 Q744.162 1238.72 747.542 1238.72 Q750.922 1238.72 752.866 1236.06 Q754.811 1233.38 754.811 1228.68 Q754.811 1223.98 752.866 1221.32 Q750.922 1218.63 747.542 1218.63 Q744.162 1218.63 742.218 1221.32 Q740.297 1223.98 740.297 1228.68 Z" fill="#000000" fill-rule="nonzero" fill-opacity="1" /><path clip-path="url(#clip220)" d="M787.773 1210.9 L787.773 1237.77 L793.421 1237.77 Q800.574 1237.77 803.884 1234.53 Q807.218 1231.29 807.218 1224.3 Q807.218 1217.36 803.884 1214.14 Q800.574 1210.9 793.421 1210.9 L787.773 1210.9 M783.097 1207.06 L792.704 1207.06 Q802.75 1207.06 807.449 1211.25 Q812.148 1215.41 812.148 1224.3 Q812.148 1233.24 807.426 1237.43 Q802.704 1241.62 792.704 1241.62 L783.097 1241.62 L783.097 1207.06 Z" fill="#000000" fill-rule="nonzero" fill-opacity="1" /><path clip-path="url(#clip220)" d="M831.199 1228.58 Q826.037 1228.58 824.046 1229.76 Q822.056 1230.95 822.056 1233.79 Q822.056 1236.06 823.537 1237.4 Q825.042 1238.72 827.611 1238.72 Q831.153 1238.72 833.282 1236.22 Q835.435 1233.7 835.435 1229.53 L835.435 1228.58 L831.199 1228.58 M839.694 1226.82 L839.694 1241.62 L835.435 1241.62 L835.435 1237.68 Q833.977 1240.04 831.801 1241.18 Q829.625 1242.29 826.477 1242.29 Q822.495 1242.29 820.134 1240.07 Q817.796 1237.82 817.796 1234.07 Q817.796 1229.7 820.713 1227.47 Q823.653 1225.25 829.463 1225.25 L835.435 1225.25 L835.435 1224.83 Q835.435 1221.89 833.491 1220.3 Q831.569 1218.68 828.074 1218.68 Q825.852 1218.68 823.745 1219.21 Q821.639 1219.74 819.694 1220.81 L819.694 1216.87 Q822.032 1215.97 824.231 1215.53 Q826.431 1215.07 828.514 1215.07 Q834.139 1215.07 836.917 1217.98 Q839.694 1220.9 839.694 1226.82 Z" fill="#000000" fill-rule="nonzero" fill-opacity="1" /><path clip-path="url(#clip220)" d="M852.68 1208.33 L852.68 1215.69 L861.454 1215.69 L861.454 1219 L852.68 1219 L852.68 1233.07 Q852.68 1236.25 853.537 1237.15 Q854.417 1238.05 857.079 1238.05 L861.454 1238.05 L861.454 1241.62 L857.079 1241.62 Q852.148 1241.62 850.273 1239.79 Q848.398 1237.94 848.398 1233.07 L848.398 1219 L845.273 1219 L845.273 1215.69 L848.398 1215.69 L848.398 1208.33 L852.68 1208.33 Z" fill="#000000" fill-rule="nonzero" fill-opacity="1" /><path clip-path="url(#clip220)" d="M878.838 1228.58 Q873.676 1228.58 871.685 1229.76 Q869.694 1230.95 869.694 1233.79 Q869.694 1236.06 871.176 1237.4 Q872.68 1238.72 875.25 1238.72 Q878.791 1238.72 880.921 1236.22 Q883.074 1233.7 883.074 1229.53 L883.074 1228.58 L878.838 1228.58 M887.333 1226.82 L887.333 1241.62 L883.074 1241.62 L883.074 1237.68 Q881.615 1240.04 879.44 1241.18 Q877.264 1242.29 874.115 1242.29 Q870.134 1242.29 867.773 1240.07 Q865.435 1237.82 865.435 1234.07 Q865.435 1229.7 868.352 1227.47 Q871.291 1225.25 877.102 1225.25 L883.074 1225.25 L883.074 1224.83 Q883.074 1221.89 881.129 1220.3 Q879.208 1218.68 875.713 1218.68 Q873.49 1218.68 871.384 1219.21 Q869.278 1219.74 867.333 1220.81 L867.333 1216.87 Q869.671 1215.97 871.87 1215.53 Q874.069 1215.07 876.153 1215.07 Q881.777 1215.07 884.555 1217.98 Q887.333 1220.9 887.333 1226.82 Z" fill="#000000" fill-rule="nonzero" fill-opacity="1" /><polyline clip-path="url(#clip220)" style="stroke:#e26f46; stroke-linecap:round; stroke-linejoin:round; stroke-width:8; stroke-opacity:1; fill:none" stroke-dasharray="32, 16, 4, 16" points="314.661,1276.18 456.854,1276.18 "/>
<path clip-path="url(#clip220)" d="M485.229 1262.74 L485.229 1275.72 L491.108 1275.72 Q494.372 1275.72 496.155 1274.04 Q497.937 1272.35 497.937 1269.22 Q497.937 1266.12 496.155 1264.43 Q494.372 1262.74 491.108 1262.74 L485.229 1262.74 M480.553 1258.9 L491.108 1258.9 Q496.918 1258.9 499.881 1261.54 Q502.867 1264.15 502.867 1269.22 Q502.867 1274.34 499.881 1276.95 Q496.918 1279.57 491.108 1279.57 L485.229 1279.57 L485.229 1293.46 L480.553 1293.46 L480.553 1258.9 Z" fill="#000000" fill-rule="nonzero" fill-opacity="1" /><path clip-path="url(#clip220)" d="M523.145 1271.51 Q522.428 1271.1 521.571 1270.91 Q520.738 1270.7 519.719 1270.7 Q516.108 1270.7 514.164 1273.06 Q512.242 1275.4 512.242 1279.8 L512.242 1293.46 L507.96 1293.46 L507.96 1267.53 L512.242 1267.53 L512.242 1271.56 Q513.585 1269.2 515.738 1268.06 Q517.891 1266.91 520.969 1266.91 Q521.409 1266.91 521.941 1266.97 Q522.474 1267.02 523.122 1267.14 L523.145 1271.51 Z" fill="#000000" fill-rule="nonzero" fill-opacity="1" /><path clip-path="url(#clip220)" d="M548.747 1279.43 L548.747 1281.51 L529.164 1281.51 Q529.441 1285.91 531.803 1288.22 Q534.187 1290.52 538.423 1290.52 Q540.877 1290.52 543.168 1289.91 Q545.483 1289.31 547.751 1288.11 L547.751 1292.14 Q545.46 1293.11 543.052 1293.62 Q540.645 1294.13 538.168 1294.13 Q531.965 1294.13 528.33 1290.52 Q524.719 1286.91 524.719 1280.75 Q524.719 1274.38 528.145 1270.66 Q531.594 1266.91 537.427 1266.91 Q542.659 1266.91 545.691 1270.29 Q548.747 1273.64 548.747 1279.43 M544.488 1278.18 Q544.441 1274.68 542.52 1272.6 Q540.622 1270.52 537.474 1270.52 Q533.909 1270.52 531.756 1272.53 Q529.627 1274.54 529.303 1278.2 L544.488 1278.18 Z" fill="#000000" fill-rule="nonzero" fill-opacity="1" /><path clip-path="url(#clip220)" d="M572.798 1271.47 L572.798 1257.44 L577.057 1257.44 L577.057 1293.46 L572.798 1293.46 L572.798 1289.57 Q571.455 1291.88 569.395 1293.02 Q567.358 1294.13 564.488 1294.13 Q559.788 1294.13 556.826 1290.38 Q553.886 1286.63 553.886 1280.52 Q553.886 1274.41 556.826 1270.66 Q559.788 1266.91 564.488 1266.91 Q567.358 1266.91 569.395 1268.04 Q571.455 1269.15 572.798 1271.47 M558.284 1280.52 Q558.284 1285.22 560.205 1287.9 Q562.15 1290.56 565.529 1290.56 Q568.909 1290.56 570.853 1287.9 Q572.798 1285.22 572.798 1280.52 Q572.798 1275.82 570.853 1273.16 Q568.909 1270.47 565.529 1270.47 Q562.15 1270.47 560.205 1273.16 Q558.284 1275.82 558.284 1280.52 Z" fill="#000000" fill-rule="nonzero" fill-opacity="1" /><path clip-path="url(#clip220)" d="M585.83 1267.53 L590.089 1267.53 L590.089 1293.46 L585.83 1293.46 L585.83 1267.53 M585.83 1257.44 L590.089 1257.44 L590.089 1262.83 L585.83 1262.83 L585.83 1257.44 Z" fill="#000000" fill-rule="nonzero" fill-opacity="1" /><path clip-path="url(#clip220)" d="M617.659 1268.53 L617.659 1272.51 Q615.853 1271.51 614.024 1271.03 Q612.219 1270.52 610.367 1270.52 Q606.223 1270.52 603.932 1273.16 Q601.64 1275.77 601.64 1280.52 Q601.64 1285.26 603.932 1287.9 Q606.223 1290.52 610.367 1290.52 Q612.219 1290.52 614.024 1290.03 Q615.853 1289.52 617.659 1288.53 L617.659 1292.46 Q615.876 1293.29 613.955 1293.71 Q612.057 1294.13 609.904 1294.13 Q604.047 1294.13 600.598 1290.45 Q597.149 1286.77 597.149 1280.52 Q597.149 1274.17 600.622 1270.54 Q604.117 1266.91 610.182 1266.91 Q612.149 1266.91 614.024 1267.32 Q615.899 1267.72 617.659 1268.53 Z" fill="#000000" fill-rule="nonzero" fill-opacity="1" /><path clip-path="url(#clip220)" d="M629.279 1260.17 L629.279 1267.53 L638.052 1267.53 L638.052 1270.84 L629.279 1270.84 L629.279 1284.91 Q629.279 1288.09 630.135 1288.99 Q631.015 1289.89 633.677 1289.89 L638.052 1289.89 L638.052 1293.46 L633.677 1293.46 Q628.746 1293.46 626.871 1291.63 Q624.996 1289.78 624.996 1284.91 L624.996 1270.84 L621.871 1270.84 L621.871 1267.53 L624.996 1267.53 L624.996 1260.17 L629.279 1260.17 Z" fill="#000000" fill-rule="nonzero" fill-opacity="1" /><path clip-path="url(#clip220)" d="M665.83 1279.43 L665.83 1281.51 L646.246 1281.51 Q646.524 1285.91 648.885 1288.22 Q651.269 1290.52 655.506 1290.52 Q657.959 1290.52 660.251 1289.91 Q662.566 1289.31 664.834 1288.11 L664.834 1292.14 Q662.543 1293.11 660.135 1293.62 Q657.728 1294.13 655.251 1294.13 Q649.047 1294.13 645.413 1290.52 Q641.802 1286.91 641.802 1280.75 Q641.802 1274.38 645.228 1270.66 Q648.677 1266.91 654.51 1266.91 Q659.742 1266.91 662.774 1270.29 Q665.83 1273.64 665.83 1279.43 M661.57 1278.18 Q661.524 1274.68 659.603 1272.6 Q657.705 1270.52 654.556 1270.52 Q650.992 1270.52 648.839 1272.53 Q646.709 1274.54 646.385 1278.2 L661.57 1278.18 Z" fill="#000000" fill-rule="nonzero" fill-opacity="1" /><path clip-path="url(#clip220)" d="M689.88 1271.47 L689.88 1257.44 L694.14 1257.44 L694.14 1293.46 L689.88 1293.46 L689.88 1289.57 Q688.538 1291.88 686.478 1293.02 Q684.441 1294.13 681.57 1294.13 Q676.871 1294.13 673.908 1290.38 Q670.968 1286.63 670.968 1280.52 Q670.968 1274.41 673.908 1270.66 Q676.871 1266.91 681.57 1266.91 Q684.441 1266.91 686.478 1268.04 Q688.538 1269.15 689.88 1271.47 M675.367 1280.52 Q675.367 1285.22 677.288 1287.9 Q679.232 1290.56 682.612 1290.56 Q685.991 1290.56 687.936 1287.9 Q689.88 1285.22 689.88 1280.52 Q689.88 1275.82 687.936 1273.16 Q685.991 1270.47 682.612 1270.47 Q679.232 1270.47 677.288 1273.16 Q675.367 1275.82 675.367 1280.52 Z" fill="#000000" fill-rule="nonzero" fill-opacity="1" /><path clip-path="url(#clip220)" d="M722.843 1262.74 L722.843 1275.72 L728.723 1275.72 Q731.987 1275.72 733.769 1274.04 Q735.551 1272.35 735.551 1269.22 Q735.551 1266.12 733.769 1264.43 Q731.987 1262.74 728.723 1262.74 L722.843 1262.74 M718.167 1258.9 L728.723 1258.9 Q734.533 1258.9 737.496 1261.54 Q740.482 1264.15 740.482 1269.22 Q740.482 1274.34 737.496 1276.95 Q734.533 1279.57 728.723 1279.57 L722.843 1279.57 L722.843 1293.46 L718.167 1293.46 L718.167 1258.9 Z" fill="#000000" fill-rule="nonzero" fill-opacity="1" /><path clip-path="url(#clip220)" d="M754.926 1270.52 Q751.5 1270.52 749.51 1273.2 Q747.519 1275.86 747.519 1280.52 Q747.519 1285.17 749.487 1287.85 Q751.477 1290.52 754.926 1290.52 Q758.329 1290.52 760.32 1287.83 Q762.311 1285.15 762.311 1280.52 Q762.311 1275.91 760.32 1273.22 Q758.329 1270.52 754.926 1270.52 M754.926 1266.91 Q760.482 1266.91 763.653 1270.52 Q766.824 1274.13 766.824 1280.52 Q766.824 1286.88 763.653 1290.52 Q760.482 1294.13 754.926 1294.13 Q749.348 1294.13 746.176 1290.52 Q743.028 1286.88 743.028 1280.52 Q743.028 1274.13 746.176 1270.52 Q749.348 1266.91 754.926 1266.91 Z" fill="#000000" fill-rule="nonzero" fill-opacity="1" /><path clip-path="url(#clip220)" d="M773.885 1267.53 L778.144 1267.53 L778.144 1293.46 L773.885 1293.46 L773.885 1267.53 M773.885 1257.44 L778.144 1257.44 L778.144 1262.83 L773.885 1262.83 L773.885 1257.44 Z" fill="#000000" fill-rule="nonzero" fill-opacity="1" /><path clip-path="url(#clip220)" d="M808.607 1277.81 L808.607 1293.46 L804.347 1293.46 L804.347 1277.95 Q804.347 1274.27 802.912 1272.44 Q801.477 1270.61 798.607 1270.61 Q795.158 1270.61 793.167 1272.81 Q791.176 1275.01 791.176 1278.8 L791.176 1293.46 L786.894 1293.46 L786.894 1267.53 L791.176 1267.53 L791.176 1271.56 Q792.704 1269.22 794.764 1268.06 Q796.847 1266.91 799.556 1266.91 Q804.023 1266.91 806.315 1269.68 Q808.607 1272.44 808.607 1277.81 Z" fill="#000000" fill-rule="nonzero" fill-opacity="1" /><path clip-path="url(#clip220)" d="M821.315 1260.17 L821.315 1267.53 L830.088 1267.53 L830.088 1270.84 L821.315 1270.84 L821.315 1284.91 Q821.315 1288.09 822.171 1288.99 Q823.051 1289.89 825.713 1289.89 L830.088 1289.89 L830.088 1293.46 L825.713 1293.46 Q820.782 1293.46 818.907 1291.63 Q817.032 1289.78 817.032 1284.91 L817.032 1270.84 L813.907 1270.84 L813.907 1267.53 L817.032 1267.53 L817.032 1260.17 L821.315 1260.17 Z" fill="#000000" fill-rule="nonzero" fill-opacity="1" /><path clip-path="url(#clip220)" d="M852.217 1268.29 L852.217 1272.32 Q850.412 1271.4 848.467 1270.93 Q846.523 1270.47 844.44 1270.47 Q841.268 1270.47 839.671 1271.44 Q838.097 1272.41 838.097 1274.36 Q838.097 1275.84 839.231 1276.7 Q840.366 1277.53 843.792 1278.29 L845.25 1278.62 Q849.787 1279.59 851.685 1281.37 Q853.606 1283.13 853.606 1286.3 Q853.606 1289.91 850.736 1292.02 Q847.889 1294.13 842.889 1294.13 Q840.805 1294.13 838.537 1293.71 Q836.292 1293.32 833.792 1292.51 L833.792 1288.11 Q836.153 1289.34 838.444 1289.96 Q840.736 1290.56 842.981 1290.56 Q845.991 1290.56 847.611 1289.54 Q849.231 1288.5 849.231 1286.63 Q849.231 1284.89 848.051 1283.97 Q846.893 1283.04 842.935 1282.18 L841.454 1281.84 Q837.495 1281 835.736 1279.29 Q833.977 1277.55 833.977 1274.54 Q833.977 1270.89 836.569 1268.9 Q839.162 1266.91 843.93 1266.91 Q846.292 1266.91 848.375 1267.25 Q850.458 1267.6 852.217 1268.29 Z" fill="#000000" fill-rule="nonzero" fill-opacity="1" /><polyline clip-path="url(#clip220)" style="stroke:#3da44d; stroke-linecap:round; stroke-linejoin:round; stroke-width:8; stroke-opacity:1; fill:none" points="314.661,1328.02 456.854,1328.02 "/>
<path clip-path="url(#clip220)" d="M496.386 1315.34 L490.043 1332.54 L502.752 1332.54 L496.386 1315.34 M493.747 1310.74 L499.048 1310.74 L512.219 1345.3 L507.358 1345.3 L504.21 1336.43 L488.631 1336.43 L485.483 1345.3 L480.553 1345.3 L493.747 1310.74 Z" fill="#000000" fill-rule="nonzero" fill-opacity="1" /><path clip-path="url(#clip220)" d="M534.904 1320.37 L534.904 1324.35 Q533.099 1323.35 531.27 1322.87 Q529.465 1322.36 527.613 1322.36 Q523.469 1322.36 521.178 1325 Q518.886 1327.61 518.886 1332.36 Q518.886 1337.1 521.178 1339.74 Q523.469 1342.36 527.613 1342.36 Q529.465 1342.36 531.27 1341.87 Q533.099 1341.36 534.904 1340.37 L534.904 1344.3 Q533.122 1345.13 531.201 1345.55 Q529.303 1345.97 527.15 1345.97 Q521.293 1345.97 517.844 1342.29 Q514.395 1338.61 514.395 1332.36 Q514.395 1326.01 517.867 1322.38 Q521.363 1318.75 527.428 1318.75 Q529.395 1318.75 531.27 1319.16 Q533.145 1319.56 534.904 1320.37 Z" fill="#000000" fill-rule="nonzero" fill-opacity="1" /><path clip-path="url(#clip220)" d="M546.525 1312.01 L546.525 1319.37 L555.298 1319.37 L555.298 1322.68 L546.525 1322.68 L546.525 1336.75 Q546.525 1339.93 547.381 1340.83 Q548.261 1341.73 550.923 1341.73 L555.298 1341.73 L555.298 1345.3 L550.923 1345.3 Q545.992 1345.3 544.117 1343.47 Q542.242 1341.62 542.242 1336.75 L542.242 1322.68 L539.117 1322.68 L539.117 1319.37 L542.242 1319.37 L542.242 1312.01 L546.525 1312.01 Z" fill="#000000" fill-rule="nonzero" fill-opacity="1" /><path clip-path="url(#clip220)" d="M560.46 1335.06 L560.46 1319.37 L564.719 1319.37 L564.719 1334.9 Q564.719 1338.58 566.154 1340.44 Q567.589 1342.26 570.46 1342.26 Q573.909 1342.26 575.899 1340.06 Q577.913 1337.87 577.913 1334.07 L577.913 1319.37 L582.173 1319.37 L582.173 1345.3 L577.913 1345.3 L577.913 1341.31 Q576.362 1343.68 574.302 1344.83 Q572.265 1345.97 569.557 1345.97 Q565.089 1345.97 562.775 1343.19 Q560.46 1340.41 560.46 1335.06 M571.177 1318.75 L571.177 1318.75 Z" fill="#000000" fill-rule="nonzero" fill-opacity="1" /><path clip-path="url(#clip220)" d="M602.728 1332.26 Q597.566 1332.26 595.575 1333.44 Q593.585 1334.63 593.585 1337.47 Q593.585 1339.74 595.066 1341.08 Q596.571 1342.4 599.14 1342.4 Q602.682 1342.4 604.811 1339.9 Q606.964 1337.38 606.964 1333.21 L606.964 1332.26 L602.728 1332.26 M611.223 1330.5 L611.223 1345.3 L606.964 1345.3 L606.964 1341.36 Q605.506 1343.72 603.33 1344.86 Q601.154 1345.97 598.006 1345.97 Q594.024 1345.97 591.663 1343.75 Q589.325 1341.5 589.325 1337.75 Q589.325 1333.38 592.242 1331.15 Q595.182 1328.93 600.992 1328.93 L606.964 1328.93 L606.964 1328.51 Q606.964 1325.57 605.02 1323.98 Q603.098 1322.36 599.603 1322.36 Q597.381 1322.36 595.274 1322.89 Q593.168 1323.42 591.223 1324.49 L591.223 1320.55 Q593.561 1319.65 595.76 1319.21 Q597.96 1318.75 600.043 1318.75 Q605.668 1318.75 608.446 1321.66 Q611.223 1324.58 611.223 1330.5 Z" fill="#000000" fill-rule="nonzero" fill-opacity="1" /><path clip-path="url(#clip220)" d="M619.996 1309.28 L624.256 1309.28 L624.256 1345.3 L619.996 1345.3 L619.996 1309.28 Z" fill="#000000" fill-rule="nonzero" fill-opacity="1" /><path clip-path="url(#clip220)" d="M653.098 1314.58 L653.098 1341.45 L658.746 1341.45 Q665.899 1341.45 669.209 1338.21 Q672.542 1334.97 672.542 1327.98 Q672.542 1321.04 669.209 1317.82 Q665.899 1314.58 658.746 1314.58 L653.098 1314.58 M648.422 1310.74 L658.029 1310.74 Q668.075 1310.74 672.774 1314.93 Q677.473 1319.09 677.473 1327.98 Q677.473 1336.92 672.751 1341.11 Q668.029 1345.3 658.029 1345.3 L648.422 1345.3 L648.422 1310.74 Z" fill="#000000" fill-rule="nonzero" fill-opacity="1" /><path clip-path="url(#clip220)" d="M696.524 1332.26 Q691.362 1332.26 689.371 1333.44 Q687.38 1334.63 687.38 1337.47 Q687.38 1339.74 688.862 1341.08 Q690.366 1342.4 692.936 1342.4 Q696.478 1342.4 698.607 1339.9 Q700.76 1337.38 700.76 1333.21 L700.76 1332.26 L696.524 1332.26 M705.019 1330.5 L705.019 1345.3 L700.76 1345.3 L700.76 1341.36 Q699.302 1343.72 697.126 1344.86 Q694.95 1345.97 691.802 1345.97 Q687.82 1345.97 685.459 1343.75 Q683.121 1341.5 683.121 1337.75 Q683.121 1333.38 686.038 1331.15 Q688.978 1328.93 694.788 1328.93 L700.76 1328.93 L700.76 1328.51 Q700.76 1325.57 698.815 1323.98 Q696.894 1322.36 693.399 1322.36 Q691.177 1322.36 689.07 1322.89 Q686.964 1323.42 685.019 1324.49 L685.019 1320.55 Q687.357 1319.65 689.556 1319.21 Q691.755 1318.75 693.839 1318.75 Q699.464 1318.75 702.241 1321.66 Q705.019 1324.58 705.019 1330.5 Z" fill="#000000" fill-rule="nonzero" fill-opacity="1" /><path clip-path="url(#clip220)" d="M718.005 1312.01 L718.005 1319.37 L726.778 1319.37 L726.778 1322.68 L718.005 1322.68 L718.005 1336.75 Q718.005 1339.93 718.862 1340.83 Q719.741 1341.73 722.403 1341.73 L726.778 1341.73 L726.778 1345.3 L722.403 1345.3 Q717.473 1345.3 715.598 1343.47 Q713.723 1341.62 713.723 1336.75 L713.723 1322.68 L710.598 1322.68 L710.598 1319.37 L713.723 1319.37 L713.723 1312.01 L718.005 1312.01 Z" fill="#000000" fill-rule="nonzero" fill-opacity="1" /><path clip-path="url(#clip220)" d="M744.162 1332.26 Q739 1332.26 737.01 1333.44 Q735.019 1334.63 735.019 1337.47 Q735.019 1339.74 736.5 1341.08 Q738.005 1342.4 740.575 1342.4 Q744.116 1342.4 746.246 1339.9 Q748.399 1337.38 748.399 1333.21 L748.399 1332.26 L744.162 1332.26 M752.658 1330.5 L752.658 1345.3 L748.399 1345.3 L748.399 1341.36 Q746.94 1343.72 744.764 1344.86 Q742.588 1345.97 739.44 1345.97 Q735.459 1345.97 733.098 1343.75 Q730.76 1341.5 730.76 1337.75 Q730.76 1333.38 733.676 1331.15 Q736.616 1328.93 742.426 1328.93 L748.399 1328.93 L748.399 1328.51 Q748.399 1325.57 746.454 1323.98 Q744.533 1322.36 741.037 1322.36 Q738.815 1322.36 736.709 1322.89 Q734.602 1323.42 732.658 1324.49 L732.658 1320.55 Q734.996 1319.65 737.195 1319.21 Q739.394 1318.75 741.477 1318.75 Q747.102 1318.75 749.88 1321.66 Q752.658 1324.58 752.658 1330.5 Z" fill="#000000" fill-rule="nonzero" fill-opacity="1" /></svg>
