<?xml version="1.0" encoding="utf-8"?>
<svg xmlns="http://www.w3.org/2000/svg" xmlns:xlink="http://www.w3.org/1999/xlink" width="600" height="400" viewBox="0 0 2400 1600">
<defs>
  <clipPath id="clip990">
    <rect x="0" y="0" width="2400" height="1600"/>
  </clipPath>
</defs>
<path clip-path="url(#clip990)" d="M0 1600 L2400 1600 L2400 8.88178e-14 L0 8.88178e-14  Z" fill="#ffffff" fill-rule="evenodd" fill-opacity="1"/>
<defs>
  <clipPath id="clip991">
    <rect x="480" y="0" width="1681" height="1600"/>
  </clipPath>
</defs>
<path clip-path="url(#clip990)" d="M249.542 1423.18 L2352.76 1423.18 L2352.76 123.472 L249.542 123.472  Z" fill="#ffffff" fill-rule="evenodd" fill-opacity="1"/>
<defs>
  <clipPath id="clip992">
    <rect x="249" y="123" width="2104" height="1301"/>
  </clipPath>
</defs>
<polyline clip-path="url(#clip992)" style="stroke:#000000; stroke-linecap:round; stroke-linejoin:round; stroke-width:2; stroke-opacity:0.1; fill:none" points="289.025,1423.18 289.025,123.472 "/>
<polyline clip-path="url(#clip992)" style="stroke:#000000; stroke-linecap:round; stroke-linejoin:round; stroke-width:2; stroke-opacity:0.1; fill:none" points="790.076,1423.18 790.076,123.472 "/>
<polyline clip-path="url(#clip992)" style="stroke:#000000; stroke-linecap:round; stroke-linejoin:round; stroke-width:2; stroke-opacity:0.1; fill:none" points="1291.13,1423.18 1291.13,123.472 "/>
<polyline clip-path="url(#clip992)" style="stroke:#000000; stroke-linecap:round; stroke-linejoin:round; stroke-width:2; stroke-opacity:0.1; fill:none" points="1792.18,1423.18 1792.18,123.472 "/>
<polyline clip-path="url(#clip992)" style="stroke:#000000; stroke-linecap:round; stroke-linejoin:round; stroke-width:2; stroke-opacity:0.1; fill:none" points="2293.23,1423.18 2293.23,123.472 "/>
<polyline clip-path="url(#clip990)" style="stroke:#000000; stroke-linecap:round; stroke-linejoin:round; stroke-width:4; stroke-opacity:1; fill:none" points="249.542,1423.18 2352.76,1423.18 "/>
<polyline clip-path="url(#clip990)" style="stroke:#000000; stroke-linecap:round; stroke-linejoin:round; stroke-width:4; stroke-opacity:1; fill:none" points="289.025,1423.18 289.025,1404.28 "/>
<polyline clip-path="url(#clip990)" style="stroke:#000000; stroke-linecap:round; stroke-linejoin:round; stroke-width:4; stroke-opacity:1; fill:none" points="790.076,1423.18 790.076,1404.28 "/>
<polyline clip-path="url(#clip990)" style="stroke:#000000; stroke-linecap:round; stroke-linejoin:round; stroke-width:4; stroke-opacity:1; fill:none" points="1291.13,1423.18 1291.13,1404.28 "/>
<polyline clip-path="url(#clip990)" style="stroke:#000000; stroke-linecap:round; stroke-linejoin:round; stroke-width:4; stroke-opacity:1; fill:none" points="1792.18,1423.18 1792.18,1404.28 "/>
<polyline clip-path="url(#clip990)" style="stroke:#000000; stroke-linecap:round; stroke-linejoin:round; stroke-width:4; stroke-opacity:1; fill:none" points="2293.23,1423.18 2293.23,1404.28 "/>
<path clip-path="url(#clip990)" d="M289.025 1454.1 Q285.414 1454.1 283.585 1457.66 Q281.78 1461.2 281.78 1468.33 Q281.78 1475.44 283.585 1479.01 Q285.414 1482.55 289.025 1482.55 Q292.659 1482.55 294.465 1479.01 Q296.293 1475.44 296.293 1468.33 Q296.293 1461.2 294.465 1457.66 Q292.659 1454.1 289.025 1454.1 M289.025 1450.39 Q294.835 1450.39 297.891 1455 Q300.969 1459.58 300.969 1468.33 Q300.969 1477.06 297.891 1481.67 Q294.835 1486.25 289.025 1486.25 Q283.215 1486.25 280.136 1481.67 Q277.081 1477.06 277.081 1468.33 Q277.081 1459.58 280.136 1455 Q283.215 1450.39 289.025 1450.39 Z" fill="#000000" fill-rule="nonzero" fill-opacity="1" /><path clip-path="url(#clip990)" d="M769.347 1481.64 L785.667 1481.64 L785.667 1485.58 L763.722 1485.58 L763.722 1481.64 Q766.384 1478.89 770.968 1474.26 Q775.574 1469.61 776.755 1468.27 Q779 1465.74 779.88 1464.01 Q780.782 1462.25 780.782 1460.56 Q780.782 1457.8 778.838 1456.07 Q776.917 1454.33 773.815 1454.33 Q771.616 1454.33 769.162 1455.09 Q766.732 1455.86 763.954 1457.41 L763.954 1452.69 Q766.778 1451.55 769.232 1450.97 Q771.685 1450.39 773.722 1450.39 Q779.093 1450.39 782.287 1453.08 Q785.482 1455.77 785.482 1460.26 Q785.482 1462.39 784.671 1464.31 Q783.884 1466.2 781.778 1468.8 Q781.199 1469.47 778.097 1472.69 Q774.995 1475.88 769.347 1481.64 Z" fill="#000000" fill-rule="nonzero" fill-opacity="1" /><path clip-path="url(#clip990)" d="M795.528 1451.02 L813.884 1451.02 L813.884 1454.96 L799.81 1454.96 L799.81 1463.43 Q800.829 1463.08 801.847 1462.92 Q802.866 1462.73 803.884 1462.73 Q809.671 1462.73 813.051 1465.9 Q816.43 1469.08 816.43 1474.49 Q816.43 1480.07 812.958 1483.17 Q809.486 1486.25 803.167 1486.25 Q800.991 1486.25 798.722 1485.88 Q796.477 1485.51 794.069 1484.77 L794.069 1480.07 Q796.153 1481.2 798.375 1481.76 Q800.597 1482.32 803.074 1482.32 Q807.079 1482.32 809.417 1480.21 Q811.755 1478.1 811.755 1474.49 Q811.755 1470.88 809.417 1468.77 Q807.079 1466.67 803.074 1466.67 Q801.199 1466.67 799.324 1467.08 Q797.472 1467.5 795.528 1468.38 L795.528 1451.02 Z" fill="#000000" fill-rule="nonzero" fill-opacity="1" /><path clip-path="url(#clip990)" d="M1265.83 1451.02 L1284.18 1451.02 L1284.18 1454.96 L1270.11 1454.96 L1270.11 1463.43 Q1271.13 1463.08 1272.15 1462.92 Q1273.17 1462.73 1274.18 1462.73 Q1279.97 1462.73 1283.35 1465.9 Q1286.73 1469.08 1286.73 1474.49 Q1286.73 1480.07 1283.26 1483.17 Q1279.79 1486.25 1273.47 1486.25 Q1271.29 1486.25 1269.02 1485.88 Q1266.78 1485.51 1264.37 1484.77 L1264.37 1480.07 Q1266.45 1481.2 1268.67 1481.76 Q1270.9 1482.32 1273.37 1482.32 Q1277.38 1482.32 1279.72 1480.21 Q1282.05 1478.1 1282.05 1474.49 Q1282.05 1470.88 1279.72 1468.77 Q1277.38 1466.67 1273.37 1466.67 Q1271.5 1466.67 1269.62 1467.08 Q1267.77 1467.5 1265.83 1468.38 L1265.83 1451.02 Z" fill="#000000" fill-rule="nonzero" fill-opacity="1" /><path clip-path="url(#clip990)" d="M1305.94 1454.1 Q1302.33 1454.1 1300.5 1457.66 Q1298.7 1461.2 1298.7 1468.33 Q1298.7 1475.44 1300.5 1479.01 Q1302.33 1482.55 1305.94 1482.55 Q1309.58 1482.55 1311.38 1479.01 Q1313.21 1475.44 1313.21 1468.33 Q1313.21 1461.2 1311.38 1457.66 Q1309.58 1454.1 1305.94 1454.1 M1305.94 1450.39 Q1311.75 1450.39 1314.81 1455 Q1317.89 1459.58 1317.89 1468.33 Q1317.89 1477.06 1314.81 1481.67 Q1311.75 1486.25 1305.94 1486.25 Q1300.13 1486.25 1297.05 1481.67 Q1294 1477.06 1294 1468.33 Q1294 1459.58 1297.05 1455 Q1300.13 1450.39 1305.94 1450.39 Z" fill="#000000" fill-rule="nonzero" fill-opacity="1" /><path clip-path="url(#clip990)" d="M1766.03 1451.02 L1788.26 1451.02 L1788.26 1453.01 L1775.71 1485.58 L1770.83 1485.58 L1782.63 1454.96 L1766.03 1454.96 L1766.03 1451.02 Z" fill="#000000" fill-rule="nonzero" fill-opacity="1" /><path clip-path="url(#clip990)" d="M1797.42 1451.02 L1815.78 1451.02 L1815.78 1454.96 L1801.7 1454.96 L1801.7 1463.43 Q1802.72 1463.08 1803.74 1462.92 Q1804.76 1462.73 1805.78 1462.73 Q1811.57 1462.73 1814.95 1465.9 Q1818.33 1469.08 1818.33 1474.49 Q1818.33 1480.07 1814.85 1483.17 Q1811.38 1486.25 1805.06 1486.25 Q1802.89 1486.25 1800.62 1485.88 Q1798.37 1485.51 1795.96 1484.77 L1795.96 1480.07 Q1798.05 1481.2 1800.27 1481.76 Q1802.49 1482.32 1804.97 1482.32 Q1808.97 1482.32 1811.31 1480.21 Q1813.65 1478.1 1813.65 1474.49 Q1813.65 1470.88 1811.31 1468.77 Q1808.97 1466.67 1804.97 1466.67 Q1803.09 1466.67 1801.22 1467.08 Q1799.37 1467.5 1797.42 1468.38 L1797.42 1451.02 Z" fill="#000000" fill-rule="nonzero" fill-opacity="1" /><path clip-path="url(#clip990)" d="M2252.84 1481.64 L2260.48 1481.64 L2260.48 1455.28 L2252.17 1456.95 L2252.17 1452.69 L2260.43 1451.02 L2265.11 1451.02 L2265.11 1481.64 L2272.74 1481.64 L2272.74 1485.58 L2252.84 1485.58 L2252.84 1481.64 Z" fill="#000000" fill-rule="nonzero" fill-opacity="1" /><path clip-path="url(#clip990)" d="M2292.19 1454.1 Q2288.58 1454.1 2286.75 1457.66 Q2284.94 1461.2 2284.94 1468.33 Q2284.94 1475.44 2286.75 1479.01 Q2288.58 1482.55 2292.19 1482.55 Q2295.82 1482.55 2297.63 1479.01 Q2299.46 1475.44 2299.46 1468.33 Q2299.46 1461.2 2297.63 1457.66 Q2295.82 1454.1 2292.19 1454.1 M2292.19 1450.39 Q2298 1450.39 2301.06 1455 Q2304.13 1459.58 2304.13 1468.33 Q2304.13 1477.06 2301.06 1481.67 Q2298 1486.25 2292.19 1486.25 Q2286.38 1486.25 2283.3 1481.67 Q2280.24 1477.06 2280.24 1468.33 Q2280.24 1459.58 2283.3 1455 Q2286.38 1450.39 2292.19 1450.39 Z" fill="#000000" fill-rule="nonzero" fill-opacity="1" /><path clip-path="url(#clip990)" d="M2322.35 1454.1 Q2318.74 1454.1 2316.91 1457.66 Q2315.11 1461.2 2315.11 1468.33 Q2315.11 1475.44 2316.91 1479.01 Q2318.74 1482.55 2322.35 1482.55 Q2325.99 1482.55 2327.79 1479.01 Q2329.62 1475.44 2329.62 1468.33 Q2329.62 1461.2 2327.79 1457.66 Q2325.99 1454.1 2322.35 1454.1 M2322.35 1450.39 Q2328.16 1450.39 2331.22 1455 Q2334.3 1459.58 2334.3 1468.33 Q2334.3 1477.06 2331.22 1481.67 Q2328.16 1486.25 2322.35 1486.25 Q2316.54 1486.25 2313.46 1481.67 Q2310.41 1477.06 2310.41 1468.33 Q2310.41 1459.58 2313.46 1455 Q2316.54 1450.39 2322.35 1450.39 Z" fill="#000000" fill-rule="nonzero" fill-opacity="1" /><path clip-path="url(#clip990)" d="M1240.31 1522.27 L1240.31 1532.4 L1252.37 1532.4 L1252.37 1536.95 L1240.31 1536.95 L1240.31 1556.3 Q1240.31 1560.66 1241.49 1561.9 Q1242.7 1563.14 1246.36 1563.14 L1252.37 1563.14 L1252.37 1568.04 L1246.36 1568.04 Q1239.58 1568.04 1237 1565.53 Q1234.42 1562.98 1234.42 1556.3 L1234.42 1536.95 L1230.12 1536.95 L1230.12 1532.4 L1234.42 1532.4 L1234.42 1522.27 L1240.31 1522.27 Z" fill="#000000" fill-rule="nonzero" fill-opacity="1" /><path clip-path="url(#clip990)" d="M1260.07 1532.4 L1265.93 1532.4 L1265.93 1568.04 L1260.07 1568.04 L1260.07 1532.4 M1260.07 1518.52 L1265.93 1518.52 L1265.93 1525.93 L1260.07 1525.93 L1260.07 1518.52 Z" fill="#000000" fill-rule="nonzero" fill-opacity="1" /><path clip-path="url(#clip990)" d="M1305.94 1539.24 Q1308.14 1535.29 1311.19 1533.41 Q1314.25 1531.54 1318.38 1531.54 Q1323.95 1531.54 1326.98 1535.45 Q1330 1539.33 1330 1546.53 L1330 1568.04 L1324.11 1568.04 L1324.11 1546.72 Q1324.11 1541.59 1322.3 1539.11 Q1320.48 1536.63 1316.76 1536.63 Q1312.21 1536.63 1309.57 1539.65 Q1306.93 1542.68 1306.93 1547.9 L1306.93 1568.04 L1301.04 1568.04 L1301.04 1546.72 Q1301.04 1541.56 1299.22 1539.11 Q1297.41 1536.63 1293.62 1536.63 Q1289.13 1536.63 1286.49 1539.68 Q1283.85 1542.71 1283.85 1547.9 L1283.85 1568.04 L1277.96 1568.04 L1277.96 1532.4 L1283.85 1532.4 L1283.85 1537.93 Q1285.86 1534.66 1288.66 1533.1 Q1291.46 1531.54 1295.31 1531.54 Q1299.19 1531.54 1301.9 1533.51 Q1304.63 1535.48 1305.94 1539.24 Z" fill="#000000" fill-rule="nonzero" fill-opacity="1" /><path clip-path="url(#clip990)" d="M1372.17 1548.76 L1372.17 1551.62 L1345.25 1551.62 Q1345.63 1557.67 1348.88 1560.85 Q1352.15 1564 1357.98 1564 Q1361.35 1564 1364.5 1563.17 Q1367.69 1562.35 1370.81 1560.69 L1370.81 1566.23 Q1367.65 1567.57 1364.34 1568.27 Q1361.03 1568.97 1357.63 1568.97 Q1349.1 1568.97 1344.1 1564 Q1339.14 1559.04 1339.14 1550.57 Q1339.14 1541.82 1343.85 1536.69 Q1348.59 1531.54 1356.61 1531.54 Q1363.8 1531.54 1367.97 1536.18 Q1372.17 1540.8 1372.17 1548.76 M1366.32 1547.04 Q1366.25 1542.23 1363.61 1539.37 Q1361 1536.5 1356.67 1536.5 Q1351.77 1536.5 1348.81 1539.27 Q1345.88 1542.04 1345.44 1547.07 L1366.32 1547.04 Z" fill="#000000" fill-rule="nonzero" fill-opacity="1" /><polyline clip-path="url(#clip992)" style="stroke:#000000; stroke-linecap:round; stroke-linejoin:round; stroke-width:2; stroke-opacity:0.1; fill:none" points="249.542,1364.25 2352.76,1364.25 "/>
<polyline clip-path="url(#clip992)" style="stroke:#000000; stroke-linecap:round; stroke-linejoin:round; stroke-width:2; stroke-opacity:0.1; fill:none" points="249.542,1093.51 2352.76,1093.51 "/>
<polyline clip-path="url(#clip992)" style="stroke:#000000; stroke-linecap:round; stroke-linejoin:round; stroke-width:2; stroke-opacity:0.1; fill:none" points="249.542,822.764 2352.76,822.764 "/>
<polyline clip-path="url(#clip992)" style="stroke:#000000; stroke-linecap:round; stroke-linejoin:round; stroke-width:2; stroke-opacity:0.1; fill:none" points="249.542,552.019 2352.76,552.019 "/>
<polyline clip-path="url(#clip992)" style="stroke:#000000; stroke-linecap:round; stroke-linejoin:round; stroke-width:2; stroke-opacity:0.1; fill:none" points="249.542,281.274 2352.76,281.274 "/>
<polyline clip-path="url(#clip990)" style="stroke:#000000; stroke-linecap:round; stroke-linejoin:round; stroke-width:4; stroke-opacity:1; fill:none" points="249.542,1423.18 249.542,123.472 "/>
<polyline clip-path="url(#clip990)" style="stroke:#000000; stroke-linecap:round; stroke-linejoin:round; stroke-width:4; stroke-opacity:1; fill:none" points="249.542,1364.25 268.44,1364.25 "/>
<polyline clip-path="url(#clip990)" style="stroke:#000000; stroke-linecap:round; stroke-linejoin:round; stroke-width:4; stroke-opacity:1; fill:none" points="249.542,1093.51 268.44,1093.51 "/>
<polyline clip-path="url(#clip990)" style="stroke:#000000; stroke-linecap:round; stroke-linejoin:round; stroke-width:4; stroke-opacity:1; fill:none" points="249.542,822.764 268.44,822.764 "/>
<polyline clip-path="url(#clip990)" style="stroke:#000000; stroke-linecap:round; stroke-linejoin:round; stroke-width:4; stroke-opacity:1; fill:none" points="249.542,552.019 268.44,552.019 "/>
<polyline clip-path="url(#clip990)" style="stroke:#000000; stroke-linecap:round; stroke-linejoin:round; stroke-width:4; stroke-opacity:1; fill:none" points="249.542,281.274 268.44,281.274 "/>
<path clip-path="url(#clip990)" d="M126.205 1350.05 Q122.593 1350.05 120.765 1353.62 Q118.959 1357.16 118.959 1364.29 Q118.959 1371.4 120.765 1374.96 Q122.593 1378.5 126.205 1378.5 Q129.839 1378.5 131.644 1374.96 Q133.473 1371.4 133.473 1364.29 Q133.473 1357.16 131.644 1353.62 Q129.839 1350.05 126.205 1350.05 M126.205 1346.35 Q132.015 1346.35 135.07 1350.96 Q138.149 1355.54 138.149 1364.29 Q138.149 1373.02 135.07 1377.62 Q132.015 1382.21 126.205 1382.21 Q120.394 1382.21 117.316 1377.62 Q114.26 1373.02 114.26 1364.29 Q114.26 1355.54 117.316 1350.96 Q120.394 1346.35 126.205 1346.35 Z" fill="#000000" fill-rule="nonzero" fill-opacity="1" /><path clip-path="url(#clip990)" d="M146.366 1375.66 L151.251 1375.66 L151.251 1381.53 L146.366 1381.53 L146.366 1375.66 Z" fill="#000000" fill-rule="nonzero" fill-opacity="1" /><path clip-path="url(#clip990)" d="M171.436 1350.05 Q167.825 1350.05 165.996 1353.62 Q164.19 1357.16 164.19 1364.29 Q164.19 1371.4 165.996 1374.96 Q167.825 1378.5 171.436 1378.5 Q175.07 1378.5 176.876 1374.96 Q178.704 1371.4 178.704 1364.29 Q178.704 1357.16 176.876 1353.62 Q175.07 1350.05 171.436 1350.05 M171.436 1346.35 Q177.246 1346.35 180.301 1350.96 Q183.38 1355.54 183.38 1364.29 Q183.38 1373.02 180.301 1377.62 Q177.246 1382.21 171.436 1382.21 Q165.626 1382.21 162.547 1377.62 Q159.491 1373.02 159.491 1364.29 Q159.491 1355.54 162.547 1350.96 Q165.626 1346.35 171.436 1346.35 Z" fill="#000000" fill-rule="nonzero" fill-opacity="1" /><path clip-path="url(#clip990)" d="M201.598 1350.05 Q197.987 1350.05 196.158 1353.62 Q194.352 1357.16 194.352 1364.29 Q194.352 1371.4 196.158 1374.96 Q197.987 1378.5 201.598 1378.5 Q205.232 1378.5 207.037 1374.96 Q208.866 1371.4 208.866 1364.29 Q208.866 1357.16 207.037 1353.62 Q205.232 1350.05 201.598 1350.05 M201.598 1346.35 Q207.408 1346.35 210.463 1350.96 Q213.542 1355.54 213.542 1364.29 Q213.542 1373.02 210.463 1377.62 Q207.408 1382.21 201.598 1382.21 Q195.787 1382.21 192.709 1377.62 Q189.653 1373.02 189.653 1364.29 Q189.653 1355.54 192.709 1350.96 Q195.787 1346.35 201.598 1346.35 Z" fill="#000000" fill-rule="nonzero" fill-opacity="1" /><path clip-path="url(#clip990)" d="M127.2 1079.31 Q123.589 1079.31 121.76 1082.87 Q119.955 1086.41 119.955 1093.54 Q119.955 1100.65 121.76 1104.22 Q123.589 1107.76 127.2 1107.76 Q130.834 1107.76 132.64 1104.22 Q134.468 1100.65 134.468 1093.54 Q134.468 1086.41 132.64 1082.87 Q130.834 1079.31 127.2 1079.31 M127.2 1075.6 Q133.01 1075.6 136.066 1080.21 Q139.144 1084.79 139.144 1093.54 Q139.144 1102.27 136.066 1106.88 Q133.01 1111.46 127.2 1111.46 Q121.39 1111.46 118.311 1106.88 Q115.256 1102.27 115.256 1093.54 Q115.256 1084.79 118.311 1080.21 Q121.39 1075.6 127.2 1075.6 Z" fill="#000000" fill-rule="nonzero" fill-opacity="1" /><path clip-path="url(#clip990)" d="M147.362 1104.91 L152.246 1104.91 L152.246 1110.79 L147.362 1110.79 L147.362 1104.91 Z" fill="#000000" fill-rule="nonzero" fill-opacity="1" /><path clip-path="url(#clip990)" d="M166.459 1106.85 L182.778 1106.85 L182.778 1110.79 L160.834 1110.79 L160.834 1106.85 Q163.496 1104.1 168.079 1099.47 Q172.686 1094.82 173.866 1093.47 Q176.112 1090.95 176.991 1089.22 Q177.894 1087.46 177.894 1085.77 Q177.894 1083.01 175.95 1081.28 Q174.028 1079.54 170.927 1079.54 Q168.727 1079.54 166.274 1080.3 Q163.843 1081.07 161.065 1082.62 L161.065 1077.9 Q163.89 1076.76 166.343 1076.18 Q168.797 1075.6 170.834 1075.6 Q176.204 1075.6 179.399 1078.29 Q182.593 1080.97 182.593 1085.47 Q182.593 1087.6 181.783 1089.52 Q180.996 1091.41 178.889 1094.01 Q178.311 1094.68 175.209 1097.9 Q172.107 1101.09 166.459 1106.85 Z" fill="#000000" fill-rule="nonzero" fill-opacity="1" /><path clip-path="url(#clip990)" d="M192.639 1076.23 L210.996 1076.23 L210.996 1080.16 L196.922 1080.16 L196.922 1088.64 Q197.94 1088.29 198.959 1088.13 Q199.977 1087.94 200.996 1087.94 Q206.783 1087.94 210.162 1091.11 Q213.542 1094.28 213.542 1099.7 Q213.542 1105.28 210.07 1108.38 Q206.598 1111.46 200.278 1111.46 Q198.102 1111.46 195.834 1111.09 Q193.588 1110.72 191.181 1109.98 L191.181 1105.28 Q193.264 1106.41 195.487 1106.97 Q197.709 1107.53 200.186 1107.53 Q204.19 1107.53 206.528 1105.42 Q208.866 1103.31 208.866 1099.7 Q208.866 1096.09 206.528 1093.98 Q204.19 1091.88 200.186 1091.88 Q198.311 1091.88 196.436 1092.29 Q194.584 1092.71 192.639 1093.59 L192.639 1076.23 Z" fill="#000000" fill-rule="nonzero" fill-opacity="1" /><path clip-path="url(#clip990)" d="M126.205 808.563 Q122.593 808.563 120.765 812.128 Q118.959 815.669 118.959 822.799 Q118.959 829.905 120.765 833.47 Q122.593 837.012 126.205 837.012 Q129.839 837.012 131.644 833.47 Q133.473 829.905 133.473 822.799 Q133.473 815.669 131.644 812.128 Q129.839 808.563 126.205 808.563 M126.205 804.859 Q132.015 804.859 135.07 809.466 Q138.149 814.049 138.149 822.799 Q138.149 831.526 135.07 836.132 Q132.015 840.715 126.205 840.715 Q120.394 840.715 117.316 836.132 Q114.26 831.526 114.26 822.799 Q114.26 814.049 117.316 809.466 Q120.394 804.859 126.205 804.859 Z" fill="#000000" fill-rule="nonzero" fill-opacity="1" /><path clip-path="url(#clip990)" d="M146.366 834.164 L151.251 834.164 L151.251 840.044 L146.366 840.044 L146.366 834.164 Z" fill="#000000" fill-rule="nonzero" fill-opacity="1" /><path clip-path="url(#clip990)" d="M161.482 805.484 L179.839 805.484 L179.839 809.419 L165.765 809.419 L165.765 817.891 Q166.783 817.544 167.802 817.382 Q168.82 817.197 169.839 817.197 Q175.626 817.197 179.005 820.368 Q182.385 823.54 182.385 828.956 Q182.385 834.535 178.913 837.637 Q175.44 840.715 169.121 840.715 Q166.945 840.715 164.677 840.345 Q162.431 839.975 160.024 839.234 L160.024 834.535 Q162.107 835.669 164.329 836.225 Q166.552 836.78 169.028 836.78 Q173.033 836.78 175.371 834.674 Q177.709 832.567 177.709 828.956 Q177.709 825.345 175.371 823.239 Q173.033 821.132 169.028 821.132 Q167.153 821.132 165.278 821.549 Q163.427 821.965 161.482 822.845 L161.482 805.484 Z" fill="#000000" fill-rule="nonzero" fill-opacity="1" /><path clip-path="url(#clip990)" d="M201.598 808.563 Q197.987 808.563 196.158 812.128 Q194.352 815.669 194.352 822.799 Q194.352 829.905 196.158 833.47 Q197.987 837.012 201.598 837.012 Q205.232 837.012 207.037 833.47 Q208.866 829.905 208.866 822.799 Q208.866 815.669 207.037 812.128 Q205.232 808.563 201.598 808.563 M201.598 804.859 Q207.408 804.859 210.463 809.466 Q213.542 814.049 213.542 822.799 Q213.542 831.526 210.463 836.132 Q207.408 840.715 201.598 840.715 Q195.787 840.715 192.709 836.132 Q189.653 831.526 189.653 822.799 Q189.653 814.049 192.709 809.466 Q195.787 804.859 201.598 804.859 Z" fill="#000000" fill-rule="nonzero" fill-opacity="1" /><path clip-path="url(#clip990)" d="M127.2 537.817 Q123.589 537.817 121.76 541.382 Q119.955 544.924 119.955 552.054 Q119.955 559.16 121.76 562.725 Q123.589 566.266 127.2 566.266 Q130.834 566.266 132.64 562.725 Q134.468 559.16 134.468 552.054 Q134.468 544.924 132.64 541.382 Q130.834 537.817 127.2 537.817 M127.2 534.114 Q133.01 534.114 136.066 538.72 Q139.144 543.304 139.144 552.054 Q139.144 560.78 136.066 565.387 Q133.01 569.97 127.2 569.97 Q121.39 569.97 118.311 565.387 Q115.256 560.78 115.256 552.054 Q115.256 543.304 118.311 538.72 Q121.39 534.114 127.2 534.114 Z" fill="#000000" fill-rule="nonzero" fill-opacity="1" /><path clip-path="url(#clip990)" d="M147.362 563.419 L152.246 563.419 L152.246 569.299 L147.362 569.299 L147.362 563.419 Z" fill="#000000" fill-rule="nonzero" fill-opacity="1" /><path clip-path="url(#clip990)" d="M161.251 534.739 L183.473 534.739 L183.473 536.73 L170.927 569.299 L166.042 569.299 L177.848 538.674 L161.251 538.674 L161.251 534.739 Z" fill="#000000" fill-rule="nonzero" fill-opacity="1" /><path clip-path="url(#clip990)" d="M192.639 534.739 L210.996 534.739 L210.996 538.674 L196.922 538.674 L196.922 547.146 Q197.94 546.799 198.959 546.637 Q199.977 546.452 200.996 546.452 Q206.783 546.452 210.162 549.623 Q213.542 552.794 213.542 558.211 Q213.542 563.79 210.07 566.891 Q206.598 569.97 200.278 569.97 Q198.102 569.97 195.834 569.6 Q193.588 569.229 191.181 568.489 L191.181 563.79 Q193.264 564.924 195.487 565.479 Q197.709 566.035 200.186 566.035 Q204.19 566.035 206.528 563.928 Q208.866 561.822 208.866 558.211 Q208.866 554.6 206.528 552.493 Q204.19 550.387 200.186 550.387 Q198.311 550.387 196.436 550.804 Q194.584 551.22 192.639 552.1 L192.639 534.739 Z" fill="#000000" fill-rule="nonzero" fill-opacity="1" /><path clip-path="url(#clip990)" d="M117.015 294.618 L124.654 294.618 L124.654 268.253 L116.343 269.919 L116.343 265.66 L124.607 263.994 L129.283 263.994 L129.283 294.618 L136.922 294.618 L136.922 298.554 L117.015 298.554 L117.015 294.618 Z" fill="#000000" fill-rule="nonzero" fill-opacity="1" /><path clip-path="url(#clip990)" d="M146.366 292.674 L151.251 292.674 L151.251 298.554 L146.366 298.554 L146.366 292.674 Z" fill="#000000" fill-rule="nonzero" fill-opacity="1" /><path clip-path="url(#clip990)" d="M171.436 267.072 Q167.825 267.072 165.996 270.637 Q164.19 274.179 164.19 281.308 Q164.19 288.415 165.996 291.979 Q167.825 295.521 171.436 295.521 Q175.07 295.521 176.876 291.979 Q178.704 288.415 178.704 281.308 Q178.704 274.179 176.876 270.637 Q175.07 267.072 171.436 267.072 M171.436 263.369 Q177.246 263.369 180.301 267.975 Q183.38 272.558 183.38 281.308 Q183.38 290.035 180.301 294.641 Q177.246 299.225 171.436 299.225 Q165.626 299.225 162.547 294.641 Q159.491 290.035 159.491 281.308 Q159.491 272.558 162.547 267.975 Q165.626 263.369 171.436 263.369 Z" fill="#000000" fill-rule="nonzero" fill-opacity="1" /><path clip-path="url(#clip990)" d="M201.598 267.072 Q197.987 267.072 196.158 270.637 Q194.352 274.179 194.352 281.308 Q194.352 288.415 196.158 291.979 Q197.987 295.521 201.598 295.521 Q205.232 295.521 207.037 291.979 Q208.866 288.415 208.866 281.308 Q208.866 274.179 207.037 270.637 Q205.232 267.072 201.598 267.072 M201.598 263.369 Q207.408 263.369 210.463 267.975 Q213.542 272.558 213.542 281.308 Q213.542 290.035 210.463 294.641 Q207.408 299.225 201.598 299.225 Q195.787 299.225 192.709 294.641 Q189.653 290.035 189.653 281.308 Q189.653 272.558 192.709 267.975 Q195.787 263.369 201.598 263.369 Z" fill="#000000" fill-rule="nonzero" fill-opacity="1" /><path clip-path="url(#clip990)" d="M28.3562 756.711 L45.7028 769.602 L64.0042 756.043 L64.0042 762.95 L49.9996 773.326 L64.0042 783.702 L64.0042 790.609 L45.3526 776.763 L28.3562 789.431 L28.3562 782.524 L41.0558 773.071 L28.3562 763.618 L28.3562 756.711 Z" fill="#000000" fill-rule="nonzero" fill-opacity="1" /><path clip-path="url(#clip990)" d="M546.486 12.096 L578.609 12.096 L578.609 18.9825 L553.98 18.9825 L553.98 33.8088 Q555.762 33.2012 557.545 32.9176 Q559.327 32.5936 561.11 32.5936 Q571.237 32.5936 577.151 38.1433 Q583.065 43.6931 583.065 53.1722 Q583.065 62.9348 576.989 68.3631 Q570.913 73.7508 559.854 73.7508 Q556.046 73.7508 552.076 73.1026 Q548.147 72.4545 543.934 71.1582 L543.934 62.9348 Q547.58 64.9198 551.468 65.892 Q555.357 66.8642 559.692 66.8642 Q566.7 66.8642 570.791 63.1779 Q574.883 59.4916 574.883 53.1722 Q574.883 46.8528 570.791 43.1664 Q566.7 39.4801 559.692 39.4801 Q556.41 39.4801 553.129 40.2093 Q549.889 40.9384 546.486 42.4778 L546.486 12.096 Z" fill="#000000" fill-rule="nonzero" fill-opacity="1" /><path clip-path="url(#clip990)" d="M616.688 17.4837 Q610.369 17.4837 607.168 23.7221 Q604.009 29.92 604.009 42.3968 Q604.009 54.833 607.168 61.0714 Q610.369 67.2693 616.688 67.2693 Q623.048 67.2693 626.208 61.0714 Q629.408 54.833 629.408 42.3968 Q629.408 29.92 626.208 23.7221 Q623.048 17.4837 616.688 17.4837 M616.688 11.0023 Q626.856 11.0023 632.203 19.0636 Q637.591 27.0843 637.591 42.3968 Q637.591 57.6687 632.203 65.73 Q626.856 73.7508 616.688 73.7508 Q606.52 73.7508 601.132 65.73 Q595.785 57.6687 595.785 42.3968 Q595.785 27.0843 601.132 19.0636 Q606.52 11.0023 616.688 11.0023 Z" fill="#000000" fill-rule="nonzero" fill-opacity="1" /><path clip-path="url(#clip990)" d="M669.471 17.4837 Q663.152 17.4837 659.952 23.7221 Q656.792 29.92 656.792 42.3968 Q656.792 54.833 659.952 61.0714 Q663.152 67.2693 669.471 67.2693 Q675.831 67.2693 678.991 61.0714 Q682.191 54.833 682.191 42.3968 Q682.191 29.92 678.991 23.7221 Q675.831 17.4837 669.471 17.4837 M669.471 11.0023 Q679.639 11.0023 684.986 19.0636 Q690.374 27.0843 690.374 42.3968 Q690.374 57.6687 684.986 65.73 Q679.639 73.7508 669.471 73.7508 Q659.303 73.7508 653.916 65.73 Q648.569 57.6687 648.569 42.3968 Q648.569 27.0843 653.916 19.0636 Q659.303 11.0023 669.471 11.0023 Z" fill="#000000" fill-rule="nonzero" fill-opacity="1" /><path clip-path="url(#clip990)" d="M722.255 17.4837 Q715.935 17.4837 712.735 23.7221 Q709.575 29.92 709.575 42.3968 Q709.575 54.833 712.735 61.0714 Q715.935 67.2693 722.255 67.2693 Q728.614 67.2693 731.774 61.0714 Q734.974 54.833 734.974 42.3968 Q734.974 29.92 731.774 23.7221 Q728.614 17.4837 722.255 17.4837 M722.255 11.0023 Q732.422 11.0023 737.769 19.0636 Q743.157 27.0843 743.157 42.3968 Q743.157 57.6687 737.769 65.73 Q732.422 73.7508 722.255 73.7508 Q712.087 73.7508 706.699 65.73 Q701.352 57.6687 701.352 42.3968 Q701.352 27.0843 706.699 19.0636 Q712.087 11.0023 722.255 11.0023 Z" fill="#000000" fill-rule="nonzero" fill-opacity="1" /><path clip-path="url(#clip990)" d="M819.436 14.0809 L819.436 22.0612 Q814.777 19.8332 810.645 18.7395 Q806.513 17.6457 802.665 17.6457 Q795.981 17.6457 792.335 20.2383 Q788.73 22.8309 788.73 27.611 Q788.73 31.6214 791.12 33.6873 Q793.55 35.7128 800.275 36.9686 L805.217 37.9813 Q814.372 39.7232 818.707 44.1387 Q823.082 48.5136 823.082 55.8863 Q823.082 64.6767 817.167 69.2137 Q811.293 73.7508 799.91 73.7508 Q795.616 73.7508 790.755 72.7785 Q785.935 71.8063 780.75 69.9024 L780.75 61.4765 Q785.732 64.2716 790.512 65.6895 Q795.292 67.1073 799.91 67.1073 Q806.918 67.1073 810.726 64.3527 Q814.534 61.598 814.534 56.4939 Q814.534 52.0379 811.779 49.5264 Q809.065 47.0148 802.827 45.759 L797.844 44.7868 Q788.689 42.9639 784.598 39.075 Q780.507 35.1862 780.507 28.2591 Q780.507 20.2383 786.137 15.6203 Q791.809 11.0023 801.733 11.0023 Q805.987 11.0023 810.402 11.7719 Q814.818 12.5416 819.436 14.0809 Z" fill="#000000" fill-rule="nonzero" fill-opacity="1" /><path clip-path="url(#clip990)" d="M856.137 49.7694 Q847.103 49.7694 843.62 51.8354 Q840.136 53.9013 840.136 58.8839 Q840.136 62.8538 842.728 65.2034 Q845.361 67.5124 849.858 67.5124 Q856.056 67.5124 859.783 63.1374 Q863.55 58.7219 863.55 51.4303 L863.55 49.7694 L856.137 49.7694 M871.004 46.6907 L871.004 72.576 L863.55 72.576 L863.55 65.6895 Q860.998 69.8214 857.19 71.8063 Q853.382 73.7508 847.873 73.7508 Q840.905 73.7508 836.774 69.8619 Q832.682 65.9325 832.682 59.3701 Q832.682 51.7138 837.786 47.825 Q842.931 43.9361 853.099 43.9361 L863.55 43.9361 L863.55 43.2069 Q863.55 38.0623 860.147 35.2672 Q856.785 32.4315 850.668 32.4315 Q846.779 32.4315 843.093 33.3632 Q839.407 34.295 836.004 36.1584 L836.004 29.2718 Q840.095 27.692 843.944 26.9223 Q847.792 26.1121 851.438 26.1121 Q861.282 26.1121 866.143 31.2163 Q871.004 36.3204 871.004 46.6907 Z" fill="#000000" fill-rule="nonzero" fill-opacity="1" /><path clip-path="url(#clip990)" d="M921.681 35.9153 Q924.476 30.8922 928.365 28.5022 Q932.253 26.1121 937.52 26.1121 Q944.609 26.1121 948.457 31.0947 Q952.305 36.0368 952.305 45.1919 L952.305 72.576 L944.811 72.576 L944.811 45.4349 Q944.811 38.913 942.502 35.7533 Q940.193 32.5936 935.454 32.5936 Q929.661 32.5936 926.299 36.4419 Q922.936 40.2903 922.936 46.9338 L922.936 72.576 L915.442 72.576 L915.442 45.4349 Q915.442 38.8725 913.133 35.7533 Q910.824 32.5936 906.004 32.5936 Q900.292 32.5936 896.929 36.4824 Q893.567 40.3308 893.567 46.9338 L893.567 72.576 L886.073 72.576 L886.073 27.2059 L893.567 27.2059 L893.567 34.2544 Q896.119 30.082 899.684 28.0971 Q903.249 26.1121 908.15 26.1121 Q913.093 26.1121 916.536 28.6237 Q920.02 31.1352 921.681 35.9153 Z" fill="#000000" fill-rule="nonzero" fill-opacity="1" /><path clip-path="url(#clip990)" d="M974.383 65.7705 L974.383 89.8329 L966.889 89.8329 L966.889 27.2059 L974.383 27.2059 L974.383 34.0924 Q976.732 30.0415 980.297 28.0971 Q983.902 26.1121 988.885 26.1121 Q997.149 26.1121 1002.29 32.6746 Q1007.48 39.2371 1007.48 49.9314 Q1007.48 60.6258 1002.29 67.1883 Q997.149 73.7508 988.885 73.7508 Q983.902 73.7508 980.297 71.8063 Q976.732 69.8214 974.383 65.7705 M999.741 49.9314 Q999.741 41.7081 996.339 37.0496 Q992.976 32.3505 987.062 32.3505 Q981.148 32.3505 977.745 37.0496 Q974.383 41.7081 974.383 49.9314 Q974.383 58.1548 977.745 62.8538 Q981.148 67.5124 987.062 67.5124 Q992.976 67.5124 996.339 62.8538 Q999.741 58.1548 999.741 49.9314 Z" fill="#000000" fill-rule="nonzero" fill-opacity="1" /><path clip-path="url(#clip990)" d="M1019.83 9.54393 L1027.29 9.54393 L1027.29 72.576 L1019.83 72.576 L1019.83 9.54393 Z" fill="#000000" fill-rule="nonzero" fill-opacity="1" /><path clip-path="url(#clip990)" d="M1081.69 48.0275 L1081.69 51.6733 L1047.42 51.6733 Q1047.91 59.3701 1052.04 63.421 Q1056.21 67.4314 1063.62 67.4314 Q1067.92 67.4314 1071.93 66.3781 Q1075.98 65.3249 1079.95 63.2184 L1079.95 70.267 Q1075.94 71.9684 1071.73 72.8596 Q1067.51 73.7508 1063.18 73.7508 Q1052.32 73.7508 1045.96 67.4314 Q1039.64 61.1119 1039.64 50.3365 Q1039.64 39.1965 1045.64 32.6746 Q1051.67 26.1121 1061.88 26.1121 Q1071.04 26.1121 1076.34 32.0264 Q1081.69 37.9003 1081.69 48.0275 M1074.24 45.84 Q1074.16 39.7232 1070.79 36.0774 Q1067.47 32.4315 1061.96 32.4315 Q1055.72 32.4315 1051.96 35.9558 Q1048.23 39.4801 1047.66 45.8805 L1074.24 45.84 Z" fill="#000000" fill-rule="nonzero" fill-opacity="1" /><path clip-path="url(#clip990)" d="M1120.62 12.096 L1132.81 12.096 L1148.25 53.2532 L1163.76 12.096 L1175.96 12.096 L1175.96 72.576 L1167.98 72.576 L1167.98 19.4686 L1152.38 60.9499 L1144.16 60.9499 L1128.56 19.4686 L1128.56 72.576 L1120.62 72.576 L1120.62 12.096 Z" fill="#000000" fill-rule="nonzero" fill-opacity="1" /><path clip-path="url(#clip990)" d="M1230.68 48.0275 L1230.68 51.6733 L1196.41 51.6733 Q1196.9 59.3701 1201.03 63.421 Q1205.2 67.4314 1212.62 67.4314 Q1216.91 67.4314 1220.92 66.3781 Q1224.97 65.3249 1228.94 63.2184 L1228.94 70.267 Q1224.93 71.9684 1220.72 72.8596 Q1216.51 73.7508 1212.17 73.7508 Q1201.31 73.7508 1194.95 67.4314 Q1188.64 61.1119 1188.64 50.3365 Q1188.64 39.1965 1194.63 32.6746 Q1200.67 26.1121 1210.87 26.1121 Q1220.03 26.1121 1225.34 32.0264 Q1230.68 37.9003 1230.68 48.0275 M1223.23 45.84 Q1223.15 39.7232 1219.79 36.0774 Q1216.46 32.4315 1210.96 32.4315 Q1204.72 32.4315 1200.95 35.9558 Q1197.22 39.4801 1196.66 45.8805 L1223.23 45.84 Z" fill="#000000" fill-rule="nonzero" fill-opacity="1" /><path clip-path="url(#clip990)" d="M1263.54 49.7694 Q1254.5 49.7694 1251.02 51.8354 Q1247.54 53.9013 1247.54 58.8839 Q1247.54 62.8538 1250.13 65.2034 Q1252.76 67.5124 1257.26 67.5124 Q1263.46 67.5124 1267.18 63.1374 Q1270.95 58.7219 1270.95 51.4303 L1270.95 49.7694 L1263.54 49.7694 M1278.4 46.6907 L1278.4 72.576 L1270.95 72.576 L1270.95 65.6895 Q1268.4 69.8214 1264.59 71.8063 Q1260.78 73.7508 1255.27 73.7508 Q1248.3 73.7508 1244.17 69.8619 Q1240.08 65.9325 1240.08 59.3701 Q1240.08 51.7138 1245.19 47.825 Q1250.33 43.9361 1260.5 43.9361 L1270.95 43.9361 L1270.95 43.2069 Q1270.95 38.0623 1267.55 35.2672 Q1264.18 32.4315 1258.07 32.4315 Q1254.18 32.4315 1250.49 33.3632 Q1246.81 34.295 1243.4 36.1584 L1243.4 29.2718 Q1247.49 27.692 1251.34 26.9223 Q1255.19 26.1121 1258.84 26.1121 Q1268.68 26.1121 1273.54 31.2163 Q1278.4 36.3204 1278.4 46.6907 Z" fill="#000000" fill-rule="nonzero" fill-opacity="1" /><path clip-path="url(#clip990)" d="M1331.47 45.1919 L1331.47 72.576 L1324.02 72.576 L1324.02 45.4349 Q1324.02 38.994 1321.5 35.7938 Q1318.99 32.5936 1313.97 32.5936 Q1307.93 32.5936 1304.45 36.4419 Q1300.97 40.2903 1300.97 46.9338 L1300.97 72.576 L1293.47 72.576 L1293.47 27.2059 L1300.97 27.2059 L1300.97 34.2544 Q1303.64 30.163 1307.25 28.1376 Q1310.89 26.1121 1315.63 26.1121 Q1323.45 26.1121 1327.46 30.9732 Q1331.47 35.7938 1331.47 45.1919 Z" fill="#000000" fill-rule="nonzero" fill-opacity="1" /><path clip-path="url(#clip990)" d="M1393.33 49.7694 Q1384.29 49.7694 1380.81 51.8354 Q1377.33 53.9013 1377.33 58.8839 Q1377.33 62.8538 1379.92 65.2034 Q1382.55 67.5124 1387.05 67.5124 Q1393.25 67.5124 1396.97 63.1374 Q1400.74 58.7219 1400.74 51.4303 L1400.74 49.7694 L1393.33 49.7694 M1408.19 46.6907 L1408.19 72.576 L1400.74 72.576 L1400.74 65.6895 Q1398.19 69.8214 1394.38 71.8063 Q1390.57 73.7508 1385.06 73.7508 Q1378.1 73.7508 1373.96 69.8619 Q1369.87 65.9325 1369.87 59.3701 Q1369.87 51.7138 1374.98 47.825 Q1380.12 43.9361 1390.29 43.9361 L1400.74 43.9361 L1400.74 43.2069 Q1400.74 38.0623 1397.34 35.2672 Q1393.98 32.4315 1387.86 32.4315 Q1383.97 32.4315 1380.28 33.3632 Q1376.6 34.295 1373.19 36.1584 L1373.19 29.2718 Q1377.29 27.692 1381.13 26.9223 Q1384.98 26.1121 1388.63 26.1121 Q1398.47 26.1121 1403.33 31.2163 Q1408.19 36.3204 1408.19 46.6907 Z" fill="#000000" fill-rule="nonzero" fill-opacity="1" /><path clip-path="url(#clip990)" d="M1461.26 45.1919 L1461.26 72.576 L1453.81 72.576 L1453.81 45.4349 Q1453.81 38.994 1451.3 35.7938 Q1448.78 32.5936 1443.76 32.5936 Q1437.73 32.5936 1434.24 36.4419 Q1430.76 40.2903 1430.76 46.9338 L1430.76 72.576 L1423.26 72.576 L1423.26 27.2059 L1430.76 27.2059 L1430.76 34.2544 Q1433.43 30.163 1437.04 28.1376 Q1440.68 26.1121 1445.42 26.1121 Q1453.24 26.1121 1457.25 30.9732 Q1461.26 35.7938 1461.26 45.1919 Z" fill="#000000" fill-rule="nonzero" fill-opacity="1" /><path clip-path="url(#clip990)" d="M1505.98 34.0924 L1505.98 9.54393 L1513.44 9.54393 L1513.44 72.576 L1505.98 72.576 L1505.98 65.7705 Q1503.63 69.8214 1500.03 71.8063 Q1496.46 73.7508 1491.44 73.7508 Q1483.22 73.7508 1478.03 67.1883 Q1472.89 60.6258 1472.89 49.9314 Q1472.89 39.2371 1478.03 32.6746 Q1483.22 26.1121 1491.44 26.1121 Q1496.46 26.1121 1500.03 28.0971 Q1503.63 30.0415 1505.98 34.0924 M1480.58 49.9314 Q1480.58 58.1548 1483.95 62.8538 Q1487.35 67.5124 1493.26 67.5124 Q1499.18 67.5124 1502.58 62.8538 Q1505.98 58.1548 1505.98 49.9314 Q1505.98 41.7081 1502.58 37.0496 Q1499.18 32.3505 1493.26 32.3505 Q1487.35 32.3505 1483.95 37.0496 Q1480.58 41.7081 1480.58 49.9314 Z" fill="#000000" fill-rule="nonzero" fill-opacity="1" /><path clip-path="url(#clip990)" d="M1591.74 14.0809 L1591.74 22.0612 Q1587.08 19.8332 1582.95 18.7395 Q1578.82 17.6457 1574.97 17.6457 Q1568.29 17.6457 1564.64 20.2383 Q1561.03 22.8309 1561.03 27.611 Q1561.03 31.6214 1563.42 33.6873 Q1565.86 35.7128 1572.58 36.9686 L1577.52 37.9813 Q1586.68 39.7232 1591.01 44.1387 Q1595.39 48.5136 1595.39 55.8863 Q1595.39 64.6767 1589.47 69.2137 Q1583.6 73.7508 1572.22 73.7508 Q1567.92 73.7508 1563.06 72.7785 Q1558.24 71.8063 1553.05 69.9024 L1553.05 61.4765 Q1558.04 64.2716 1562.82 65.6895 Q1567.6 67.1073 1572.22 67.1073 Q1579.22 67.1073 1583.03 64.3527 Q1586.84 61.598 1586.84 56.4939 Q1586.84 52.0379 1584.08 49.5264 Q1581.37 47.0148 1575.13 45.759 L1570.15 44.7868 Q1560.99 42.9639 1556.9 39.075 Q1552.81 35.1862 1552.81 28.2591 Q1552.81 20.2383 1558.44 15.6203 Q1564.11 11.0023 1574.04 11.0023 Q1578.29 11.0023 1582.71 11.7719 Q1587.12 12.5416 1591.74 14.0809 Z" fill="#000000" fill-rule="nonzero" fill-opacity="1" /><path clip-path="url(#clip990)" d="M1615.2 14.324 L1615.2 27.2059 L1630.55 27.2059 L1630.55 32.9987 L1615.2 32.9987 L1615.2 57.6282 Q1615.2 63.1779 1616.69 64.7578 Q1618.23 66.3376 1622.89 66.3376 L1630.55 66.3376 L1630.55 72.576 L1622.89 72.576 Q1614.26 72.576 1610.98 69.3758 Q1607.7 66.1351 1607.7 57.6282 L1607.7 32.9987 L1602.23 32.9987 L1602.23 27.2059 L1607.7 27.2059 L1607.7 14.324 L1615.2 14.324 Z" fill="#000000" fill-rule="nonzero" fill-opacity="1" /><path clip-path="url(#clip990)" d="M1670.21 34.0924 L1670.21 9.54393 L1677.66 9.54393 L1677.66 72.576 L1670.21 72.576 L1670.21 65.7705 Q1667.86 69.8214 1664.25 71.8063 Q1660.69 73.7508 1655.66 73.7508 Q1647.44 73.7508 1642.26 67.1883 Q1637.11 60.6258 1637.11 49.9314 Q1637.11 39.2371 1642.26 32.6746 Q1647.44 26.1121 1655.66 26.1121 Q1660.69 26.1121 1664.25 28.0971 Q1667.86 30.0415 1670.21 34.0924 M1644.81 49.9314 Q1644.81 58.1548 1648.17 62.8538 Q1651.57 67.5124 1657.49 67.5124 Q1663.4 67.5124 1666.8 62.8538 Q1670.21 58.1548 1670.21 49.9314 Q1670.21 41.7081 1666.8 37.0496 Q1663.4 32.3505 1657.49 32.3505 Q1651.57 32.3505 1648.17 37.0496 Q1644.81 41.7081 1644.81 49.9314 Z" fill="#000000" fill-rule="nonzero" fill-opacity="1" /><path clip-path="url(#clip990)" d="M1694.07 62.2867 L1702.61 62.2867 L1702.61 72.576 L1694.07 72.576 L1694.07 62.2867 Z" fill="#000000" fill-rule="nonzero" fill-opacity="1" /><path clip-path="url(#clip990)" d="M1721.29 62.2867 L1729.84 62.2867 L1729.84 69.2543 L1723.19 82.2172 L1717.97 82.2172 L1721.29 69.2543 L1721.29 62.2867 Z" fill="#000000" fill-rule="nonzero" fill-opacity="1" /><path clip-path="url(#clip990)" d="M1804.98 20.0358 Q1800.85 17.2001 1791.17 17.2001 Q1780.92 17.2001 1780.92 21.9397 Q1780.92 25.6665 1791.61 27.611 Q1800.04 29.1098 1804.78 33.6468 Q1810.53 39.1155 1810.53 50.3365 Q1810.53 61.0714 1804.98 67.3908 Q1799.43 73.7508 1789.71 73.7508 Q1780.03 73.7508 1774.44 67.3908 Q1768.89 61.0714 1768.89 49.9314 Q1768.89 41.6676 1774.44 34.9836 Q1776.58 32.391 1779.62 30.9327 Q1773.3 27.7325 1773.3 22.0207 Q1773.3 11.0023 1791.17 11.0023 Q1800.12 11.0023 1804.98 13.8379 L1804.98 20.0358 M1785.21 32.9582 Q1782.46 34.1329 1780.23 37.0901 Q1776.75 41.6676 1776.75 49.9314 Q1776.75 58.1548 1780.19 62.7728 Q1783.67 67.4314 1789.71 67.4314 Q1795.66 67.4314 1799.15 62.7323 Q1802.63 58.0333 1802.63 50.3365 Q1802.63 42.2752 1798.94 38.3864 Q1795.01 34.2139 1789.91 33.7683 Q1787.32 33.5253 1785.21 32.9582 Z" fill="#000000" fill-rule="nonzero" fill-opacity="1" /><path clip-path="url(#clip990)" d="M1860.6 27.2059 L1844.19 49.2833 L1861.45 72.576 L1852.66 72.576 L1839.45 54.752 L1826.25 72.576 L1817.46 72.576 L1835.08 48.8377 L1818.96 27.2059 L1827.75 27.2059 L1839.78 43.369 L1851.81 27.2059 L1860.6 27.2059 Z" fill="#000000" fill-rule="nonzero" fill-opacity="1" /><path clip-path="url(#clip990)" d="M1872.95 34.9026 L1924.89 34.9026 L1924.89 41.7081 L1872.95 41.7081 L1872.95 34.9026 M1872.95 51.4303 L1924.89 51.4303 L1924.89 58.3168 L1872.95 58.3168 L1872.95 51.4303 Z" fill="#000000" fill-rule="nonzero" fill-opacity="1" /><path clip-path="url(#clip990)" d="M1960.05 17.4837 Q1953.73 17.4837 1950.53 23.7221 Q1947.37 29.92 1947.37 42.3968 Q1947.37 54.833 1950.53 61.0714 Q1953.73 67.2693 1960.05 67.2693 Q1966.41 67.2693 1969.57 61.0714 Q1972.77 54.833 1972.77 42.3968 Q1972.77 29.92 1969.57 23.7221 Q1966.41 17.4837 1960.05 17.4837 M1960.05 11.0023 Q1970.22 11.0023 1975.56 19.0636 Q1980.95 27.0843 1980.95 42.3968 Q1980.95 57.6687 1975.56 65.73 Q1970.22 73.7508 1960.05 73.7508 Q1949.88 73.7508 1944.49 65.73 Q1939.15 57.6687 1939.15 42.3968 Q1939.15 27.0843 1944.49 19.0636 Q1949.88 11.0023 1960.05 11.0023 Z" fill="#000000" fill-rule="nonzero" fill-opacity="1" /><path clip-path="url(#clip990)" d="M1995.33 62.2867 L2003.88 62.2867 L2003.88 72.576 L1995.33 72.576 L1995.33 62.2867 Z" fill="#000000" fill-rule="nonzero" fill-opacity="1" /><path clip-path="url(#clip990)" d="M2021.78 12.096 L2053.91 12.096 L2053.91 18.9825 L2029.28 18.9825 L2029.28 33.8088 Q2031.06 33.2012 2032.84 32.9176 Q2034.63 32.5936 2036.41 32.5936 Q2046.54 32.5936 2052.45 38.1433 Q2058.36 43.6931 2058.36 53.1722 Q2058.36 62.9348 2052.29 68.3631 Q2046.21 73.7508 2035.15 73.7508 Q2031.34 73.7508 2027.37 73.1026 Q2023.45 72.4545 2019.23 71.1582 L2019.23 62.9348 Q2022.88 64.9198 2026.77 65.892 Q2030.66 66.8642 2034.99 66.8642 Q2042 66.8642 2046.09 63.1779 Q2050.18 59.4916 2050.18 53.1722 Q2050.18 46.8528 2046.09 43.1664 Q2042 39.4801 2034.99 39.4801 Q2031.71 39.4801 2028.43 40.2093 Q2025.19 40.9384 2021.78 42.4778 L2021.78 12.096 Z" fill="#000000" fill-rule="nonzero" fill-opacity="1" /><path clip-path="url(#clip992)" d="M309.067 1268.03 L329.109 1296.18 L349.151 1317.52 L369.193 1332.57 L389.235 1348.49 L409.277 1358.67 L429.319 1361.6 L449.361 1357.91 L469.403 1376.11 L489.446 1382.06 L509.488 1378.27 L529.53 1385.42 L549.572 1378.81 L569.614 1382.28 L589.656 1374.27 L609.698 1363.33 L629.74 1354.23 L649.782 1359.54 L669.824 1341.34 L689.866 1330.84 L709.908 1318.28 L729.95 1312.86 L749.992 1301.38 L770.034 1272.36 L790.076 1267.92 L810.118 1235.43 L830.161 1220.92 L850.203 1186.59 L870.245 1155.83 L890.287 1153.66 L910.329 1125.61 L930.371 1109.26 L950.413 1104.17 L970.455 1089.66 L990.497 1069.08 L1010.54 1070.81 L1030.58 1074.06 L1050.62 1052.08 L1070.67 1073.63 L1090.71 1076.88 L1110.75 1068.32 L1130.79 1084.03 L1150.83 1105.9 L1170.88 1116.52 L1190.92 1144.02 L1210.96 1172.18 L1231 1186.48 L1251.04 1226.98 L1271.09 1237.7 L1291.13 1261.09 L1311.17 1292.93 L1331.21 1308.64 L1351.25 1323.69 L1371.3 1345.13 L1391.34 1353.26 L1411.38 1363.22 L1431.42 1368.63 L1451.46 1375.57 L1471.51 1385.1 L1491.55 1386.4 L1511.59 1383.04 L1531.63 1379.25 L1551.67 1386.4 L1571.72 1376.97 L1591.76 1367.55 L1611.8 1363.22 L1631.84 1355.21 L1651.89 1346.11 L1671.93 1341.89 L1691.97 1319.68 L1712.01 1304.2 L1732.05 1300.41 L1752.1 1279.51 L1772.14 1275.5 L1792.18 1259.69 L1812.22 1235.97 L1832.26 1230.12 L1852.31 1203.37 L1872.35 1192.65 L1892.39 1180.52 L1912.43 1162.33 L1932.47 1150.52 L1952.52 1142.18 L1972.56 1125.72 L1992.6 1122.58 L2012.64 1133.19 L2032.68 1115.33 L2052.73 1132.22 L2072.77 1123.99 L2092.81 1133.41 L2112.85 1141.32 L2132.89 1158.75 L2152.94 1159.4 L2172.98 1175.86 L2193.02 1185.61 L2213.06 1209.65 L2233.1 1221.89 L2253.15 1246.26 L2273.19 1242.58 L2293.23 1282.65 L2293.23 390.823 L2273.19 350.753 L2253.15 354.435 L2233.1 330.068 L2213.06 317.83 L2193.02 293.788 L2172.98 284.041 L2152.94 267.58 L2132.89 266.93 L2112.85 249.494 L2092.81 241.588 L2072.77 232.166 L2052.73 240.397 L2032.68 223.502 L2012.64 241.372 L1992.6 230.758 L1972.56 233.899 L1952.52 250.36 L1932.47 258.699 L1912.43 270.504 L1892.39 288.698 L1872.35 300.827 L1852.31 311.549 L1832.26 338.298 L1812.22 344.147 L1792.18 367.864 L1772.14 383.675 L1752.1 387.682 L1732.05 408.584 L1712.01 412.374 L1691.97 427.861 L1671.93 450.062 L1651.89 454.286 L1631.84 463.383 L1611.8 471.397 L1591.76 475.729 L1571.72 485.151 L1551.67 494.573 L1531.63 487.425 L1511.59 491.215 L1491.55 494.573 L1471.51 493.273 L1451.46 483.743 L1431.42 476.812 L1411.38 471.397 L1391.34 461.433 L1371.3 453.311 L1351.25 431.868 L1331.21 416.815 L1311.17 401.111 L1291.13 369.272 L1271.09 345.879 L1251.04 335.158 L1231 294.654 L1210.96 280.359 L1190.92 252.201 L1170.88 224.694 L1150.83 214.08 L1130.79 192.204 L1110.75 176.501 L1090.71 185.057 L1070.67 181.808 L1050.62 160.256 L1030.58 182.241 L1010.54 178.992 L990.497 177.259 L970.455 197.836 L950.413 212.348 L930.371 217.438 L910.329 233.791 L890.287 261.84 L870.245 264.006 L850.203 294.763 L830.161 329.093 L810.118 343.605 L790.076 376.094 L770.034 380.535 L749.992 409.559 L729.95 421.038 L709.908 426.453 L689.866 439.016 L669.824 449.521 L649.782 467.715 L629.74 462.408 L609.698 471.505 L589.656 482.443 L569.614 490.457 L549.572 486.992 L529.53 493.598 L509.488 486.45 L489.446 490.241 L469.403 484.284 L449.361 466.09 L429.319 469.772 L409.277 466.848 L389.235 456.668 L369.193 440.748 L349.151 425.695 L329.109 404.36 L309.067 376.203  Z" fill="#009af9" fill-rule="evenodd" fill-opacity="0.5"/>
<polyline clip-path="url(#clip992)" style="stroke:#009af9; stroke-linecap:round; stroke-linejoin:round; stroke-width:8; stroke-opacity:0.8; fill:none" points="309.067,822.114 329.109,850.272 349.151,871.607 369.193,886.66 389.235,902.58 409.277,912.76 429.319,915.684 449.361,912.002 469.403,930.196 489.446,936.152 509.488,932.362 529.53,939.509 549.572,932.903 569.614,936.369 589.656,928.355 609.698,917.417 629.74,908.32 649.782,913.626 669.824,895.432 689.866,884.927 709.908,872.365 729.95,866.95 749.992,855.47 770.034,826.446 790.076,822.006 810.118,789.517 830.161,775.005 850.203,740.674 870.245,709.917 890.287,707.751 910.329,679.702 930.371,663.349 950.413,658.259 970.455,643.747 990.497,623.171 1010.54,624.903 1030.58,628.152 1050.62,606.168 1070.67,627.719 1090.71,630.968 1110.75,622.413 1130.79,638.116 1150.83,659.992 1170.88,670.605 1190.92,698.113 1210.96,726.27 1231,740.566 1251.04,781.069 1271.09,791.791 1291.13,815.183 1311.17,847.023 1331.21,862.726 1351.25,877.78 1371.3,899.223 1391.34,907.345 1411.38,917.308 1431.42,922.723 1451.46,929.654 1471.51,939.185 1491.55,940.484 1511.59,937.127 1531.63,933.336 1551.67,940.484 1571.72,931.062 1591.76,921.64 1611.8,917.308 1631.84,909.294 1651.89,900.197 1671.93,895.974 1691.97,873.772 1712.01,858.286 1732.05,854.495 1752.1,833.594 1772.14,829.587 1792.18,813.775 1812.22,790.058 1832.26,784.21 1852.31,757.46 1872.35,746.739 1892.39,734.609 1912.43,716.415 1932.47,704.611 1952.52,696.272 1972.56,679.811 1992.6,676.67 2012.64,687.283 2032.68,669.414 2052.73,686.308 2072.77,678.078 2092.81,687.5 2112.85,695.405 2132.89,712.841 2152.94,713.491 2172.98,729.953 2193.02,739.699 2213.06,763.742 2233.1,775.979 2253.15,800.346 2273.19,796.664 2293.23,836.735 "/>
<path clip-path="url(#clip992)" d="M309.067 994.922 L329.109 995.124 L349.151 995.362 L369.193 995.635 L389.235 995.939 L409.277 996.271 L429.319 996.628 L449.361 997.004 L469.403 997.395 L489.446 997.794 L509.488 998.194 L529.53 998.587 L549.572 998.965 L569.614 999.32 L589.656 999.646 L609.698 999.935 L629.74 1000.18 L649.782 1000.38 L669.824 1000.54 L689.866 1000.64 L709.908 1000.7 L729.95 1000.7 L749.992 1000.66 L770.034 1000.57 L790.076 1000.44 L810.118 1000.27 L830.161 1000.06 L850.203 999.812 L870.245 999.531 L890.287 999.22 L910.329 998.881 L930.371 998.519 L950.413 998.139 L970.455 997.745 L990.497 997.346 L1010.54 996.947 L1030.58 996.557 L1050.62 996.184 L1070.67 995.835 L1090.71 995.518 L1110.75 995.239 L1130.79 995.002 L1150.83 994.812 L1170.88 994.67 L1190.92 994.578 L1210.96 994.535 L1231 994.542 L1251.04 994.595 L1271.09 994.694 L1291.13 994.836 L1311.17 995.018 L1331.21 995.239 L1351.25 995.494 L1371.3 995.783 L1391.34 996.102 L1411.38 996.447 L1431.42 996.814 L1451.46 997.198 L1471.51 997.594 L1491.55 997.994 L1511.59 998.392 L1531.63 998.778 L1551.67 999.146 L1571.72 999.487 L1591.76 999.795 L1611.8 1000.06 L1631.84 1000.29 L1651.89 1000.47 L1671.93 1000.6 L1691.97 1000.68 L1712.01 1000.71 L1732.05 1000.69 L1752.1 1000.62 L1772.14 1000.51 L1792.18 1000.36 L1812.22 1000.17 L1832.26 999.94 L1852.31 999.676 L1872.35 999.379 L1892.39 999.054 L1912.43 998.703 L1932.47 998.331 L1952.52 997.943 L1972.56 997.546 L1992.6 997.146 L2012.64 996.751 L2032.68 996.368 L2052.73 996.006 L2072.77 995.672 L2092.81 995.373 L2112.85 995.115 L2132.89 994.901 L2152.94 994.734 L2172.98 994.617 L2193.02 994.55 L2213.06 994.533 L2233.1 994.563 L2253.15 994.639 L2273.19 994.76 L2293.23 994.922 L2293.23 645.415 L2273.19 645.253 L2253.15 645.132 L2233.1 645.056 L2213.06 645.026 L2193.02 645.043 L2172.98 645.111 L2152.94 645.228 L2132.89 645.394 L2112.85 645.608 L2092.81 645.866 L2072.77 646.166 L2052.73 646.499 L2032.68 646.861 L2012.64 647.244 L1992.6 647.639 L1972.56 648.039 L1952.52 648.436 L1932.47 648.824 L1912.43 649.196 L1892.39 649.547 L1872.35 649.872 L1852.31 650.169 L1832.26 650.433 L1812.22 650.662 L1792.18 650.854 L1772.14 651.006 L1752.1 651.116 L1732.05 651.181 L1712.01 651.2 L1691.97 651.17 L1671.93 651.09 L1651.89 650.961 L1631.84 650.783 L1611.8 650.557 L1591.76 650.288 L1571.72 649.98 L1551.67 649.639 L1531.63 649.271 L1511.59 648.885 L1491.55 648.487 L1471.51 648.087 L1451.46 647.691 L1431.42 647.307 L1411.38 646.94 L1391.34 646.595 L1371.3 646.276 L1351.25 645.988 L1331.21 645.732 L1311.17 645.511 L1291.13 645.329 L1271.09 645.187 L1251.04 645.088 L1231 645.035 L1210.96 645.028 L1190.92 645.071 L1170.88 645.163 L1150.83 645.305 L1130.79 645.495 L1110.75 645.732 L1090.71 646.011 L1070.67 646.328 L1050.62 646.677 L1030.58 647.05 L1010.54 647.44 L990.497 647.839 L970.455 648.239 L950.413 648.632 L930.371 649.013 L910.329 649.375 L890.287 649.713 L870.245 650.024 L850.203 650.305 L830.161 650.552 L810.118 650.763 L790.076 650.935 L770.034 651.067 L749.992 651.154 L729.95 651.196 L709.908 651.191 L689.866 651.136 L669.824 651.032 L649.782 650.878 L629.74 650.676 L609.698 650.428 L589.656 650.139 L569.614 649.813 L549.572 649.458 L529.53 649.08 L509.488 648.687 L489.446 648.287 L469.403 647.888 L449.361 647.497 L429.319 647.121 L409.277 646.764 L389.235 646.432 L369.193 646.128 L349.151 645.855 L329.109 645.617 L309.067 645.415  Z" fill="#e26f46" fill-rule="evenodd" fill-opacity="0.5"/>
<polyline clip-path="url(#clip992)" style="stroke:#e26f46; stroke-linecap:round; stroke-linejoin:round; stroke-width:8; stroke-opacity:0.8; fill:none" points="309.067,820.169 329.109,820.37 349.151,820.609 369.193,820.881 389.235,821.185 409.277,821.518 429.319,821.874 449.361,822.251 469.403,822.642 489.446,823.041 509.488,823.44 529.53,823.833 549.572,824.211 569.614,824.567 589.656,824.892 609.698,825.182 629.74,825.429 649.782,825.631 669.824,825.785 689.866,825.89 709.908,825.944 729.95,825.95 749.992,825.908 770.034,825.82 790.076,825.689 810.118,825.517 830.161,825.306 850.203,825.059 870.245,824.778 890.287,824.467 910.329,824.128 930.371,823.766 950.413,823.385 970.455,822.992 990.497,822.592 1010.54,822.194 1030.58,821.804 1050.62,821.431 1070.67,821.082 1090.71,820.765 1110.75,820.485 1130.79,820.248 1150.83,820.058 1170.88,819.916 1190.92,819.824 1210.96,819.782 1231,819.788 1251.04,819.842 1271.09,819.941 1291.13,820.083 1311.17,820.265 1331.21,820.485 1351.25,820.741 1371.3,821.03 1391.34,821.348 1411.38,821.693 1431.42,822.061 1451.46,822.445 1471.51,822.841 1491.55,823.241 1511.59,823.638 1531.63,824.024 1551.67,824.392 1571.72,824.734 1591.76,825.042 1611.8,825.311 1631.84,825.536 1651.89,825.714 1671.93,825.844 1691.97,825.923 1712.01,825.953 1732.05,825.935 1752.1,825.87 1772.14,825.76 1792.18,825.608 1812.22,825.416 1832.26,825.186 1852.31,824.922 1872.35,824.626 1892.39,824.3 1912.43,823.95 1932.47,823.578 1952.52,823.19 1972.56,822.793 1992.6,822.392 2012.64,821.997 2032.68,821.615 2052.73,821.253 2072.77,820.919 2092.81,820.62 2112.85,820.361 2132.89,820.147 2152.94,819.981 2172.98,819.864 2193.02,819.797 2213.06,819.779 2233.1,819.809 2253.15,819.886 2273.19,820.006 2293.23,820.169 "/>
<path clip-path="url(#clip990)" d="M1569.02 322.316 L2282.65 322.316 L2282.65 166.796 L1569.02 166.796  Z" fill="#ffffff" fill-rule="evenodd" fill-opacity="1"/>
<polyline clip-path="url(#clip990)" style="stroke:#000000; stroke-linecap:round; stroke-linejoin:round; stroke-width:4; stroke-opacity:1; fill:none" points="1569.02,322.316 2282.65,322.316 2282.65,166.796 1569.02,166.796 1569.02,322.316 "/>
<polyline clip-path="url(#clip990)" style="stroke:#009af9; stroke-linecap:round; stroke-linejoin:round; stroke-width:8; stroke-opacity:0.8; fill:none" points="1592.39,218.636 1732.6,218.636 "/>
<path clip-path="url(#clip990)" d="M1755.97 201.356 L1762.94 201.356 L1771.76 224.874 L1780.62 201.356 L1787.59 201.356 L1787.59 235.916 L1783.03 235.916 L1783.03 205.569 L1774.12 229.272 L1769.42 229.272 L1760.51 205.569 L1760.51 235.916 L1755.97 235.916 L1755.97 201.356 Z" fill="#000000" fill-rule="nonzero" fill-opacity="1" /><path clip-path="url(#clip990)" d="M1801.55 205.198 L1801.55 218.184 L1807.43 218.184 Q1810.69 218.184 1812.48 216.495 Q1814.26 214.805 1814.26 211.68 Q1814.26 208.578 1812.48 206.888 Q1810.69 205.198 1807.43 205.198 L1801.55 205.198 M1796.87 201.356 L1807.43 201.356 Q1813.24 201.356 1816.2 203.995 Q1819.19 206.61 1819.19 211.68 Q1819.19 216.795 1816.2 219.411 Q1813.24 222.027 1807.43 222.027 L1801.55 222.027 L1801.55 235.916 L1796.87 235.916 L1796.87 201.356 Z" fill="#000000" fill-rule="nonzero" fill-opacity="1" /><path clip-path="url(#clip990)" d="M1846.18 202.49 L1846.18 207.05 Q1843.52 205.777 1841.16 205.152 Q1838.8 204.527 1836.6 204.527 Q1832.78 204.527 1830.69 206.008 Q1828.63 207.49 1828.63 210.221 Q1828.63 212.513 1830 213.694 Q1831.39 214.851 1835.23 215.569 L1838.06 216.147 Q1843.29 217.143 1845.76 219.666 Q1848.26 222.166 1848.26 226.379 Q1848.26 231.402 1844.88 233.994 Q1841.53 236.587 1835.02 236.587 Q1832.57 236.587 1829.79 236.031 Q1827.04 235.476 1824.07 234.388 L1824.07 229.573 Q1826.92 231.17 1829.65 231.981 Q1832.38 232.791 1835.02 232.791 Q1839.03 232.791 1841.2 231.217 Q1843.38 229.643 1843.38 226.726 Q1843.38 224.18 1841.81 222.744 Q1840.25 221.309 1836.69 220.592 L1833.84 220.036 Q1828.61 218.995 1826.27 216.772 Q1823.93 214.55 1823.93 210.592 Q1823.93 206.008 1827.15 203.37 Q1830.39 200.731 1836.06 200.731 Q1838.49 200.731 1841.02 201.171 Q1843.54 201.61 1846.18 202.49 Z" fill="#000000" fill-rule="nonzero" fill-opacity="1" /><path clip-path="url(#clip990)" d="M1875.3 205.198 L1875.3 232.073 L1880.95 232.073 Q1888.1 232.073 1891.41 228.832 Q1894.74 225.592 1894.74 218.601 Q1894.74 211.657 1891.41 208.439 Q1888.1 205.198 1880.95 205.198 L1875.3 205.198 M1870.62 201.356 L1880.23 201.356 Q1890.28 201.356 1894.98 205.546 Q1899.68 209.712 1899.68 218.601 Q1899.68 227.536 1894.95 231.726 Q1890.23 235.916 1880.23 235.916 L1870.62 235.916 L1870.62 201.356 Z" fill="#000000" fill-rule="nonzero" fill-opacity="1" /><path clip-path="url(#clip990)" d="M1906.94 209.99 L1911.2 209.99 L1911.2 235.916 L1906.94 235.916 L1906.94 209.99 M1906.94 199.897 L1911.2 199.897 L1911.2 205.291 L1906.94 205.291 L1906.94 199.897 Z" fill="#000000" fill-rule="nonzero" fill-opacity="1" /><path clip-path="url(#clip990)" d="M1936.64 210.754 L1936.64 214.782 Q1934.84 213.856 1932.89 213.393 Q1930.95 212.93 1928.86 212.93 Q1925.69 212.93 1924.1 213.902 Q1922.52 214.874 1922.52 216.819 Q1922.52 218.3 1923.66 219.157 Q1924.79 219.99 1928.22 220.754 L1929.68 221.078 Q1934.21 222.05 1936.11 223.832 Q1938.03 225.592 1938.03 228.763 Q1938.03 232.374 1935.16 234.481 Q1932.31 236.587 1927.31 236.587 Q1925.23 236.587 1922.96 236.17 Q1920.72 235.777 1918.22 234.967 L1918.22 230.569 Q1920.58 231.795 1922.87 232.42 Q1925.16 233.022 1927.41 233.022 Q1930.42 233.022 1932.04 232.004 Q1933.66 230.962 1933.66 229.087 Q1933.66 227.351 1932.48 226.425 Q1931.32 225.499 1927.36 224.643 L1925.88 224.295 Q1921.92 223.462 1920.16 221.749 Q1918.4 220.013 1918.4 217.004 Q1918.4 213.346 1920.99 211.356 Q1923.59 209.365 1928.36 209.365 Q1930.72 209.365 1932.8 209.712 Q1934.88 210.059 1936.64 210.754 Z" fill="#000000" fill-rule="nonzero" fill-opacity="1" /><path clip-path="url(#clip990)" d="M1949.03 202.629 L1949.03 209.99 L1957.8 209.99 L1957.8 213.3 L1949.03 213.3 L1949.03 227.374 Q1949.03 230.545 1949.88 231.448 Q1950.76 232.351 1953.42 232.351 L1957.8 232.351 L1957.8 235.916 L1953.42 235.916 Q1948.49 235.916 1946.62 234.087 Q1944.74 232.235 1944.74 227.374 L1944.74 213.3 L1941.62 213.3 L1941.62 209.99 L1944.74 209.99 L1944.74 202.629 L1949.03 202.629 Z" fill="#000000" fill-rule="nonzero" fill-opacity="1" /><path clip-path="url(#clip990)" d="M1978.42 213.971 Q1977.71 213.555 1976.85 213.37 Q1976.02 213.161 1975 213.161 Q1971.39 213.161 1969.44 215.522 Q1967.52 217.86 1967.52 222.258 L1967.52 235.916 L1963.24 235.916 L1963.24 209.99 L1967.52 209.99 L1967.52 214.018 Q1968.86 211.657 1971.02 210.522 Q1973.17 209.365 1976.25 209.365 Q1976.69 209.365 1977.22 209.434 Q1977.75 209.481 1978.4 209.596 L1978.42 213.971 Z" fill="#000000" fill-rule="nonzero" fill-opacity="1" /><path clip-path="url(#clip990)" d="M1982.89 209.99 L1987.15 209.99 L1987.15 235.916 L1982.89 235.916 L1982.89 209.99 M1982.89 199.897 L1987.15 199.897 L1987.15 205.291 L1982.89 205.291 L1982.89 199.897 Z" fill="#000000" fill-rule="nonzero" fill-opacity="1" /><path clip-path="url(#clip990)" d="M2014.67 222.976 Q2014.67 218.277 2012.73 215.615 Q2010.81 212.93 2007.43 212.93 Q2004.05 212.93 2002.11 215.615 Q2000.18 218.277 2000.18 222.976 Q2000.18 227.675 2002.11 230.36 Q2004.05 233.022 2007.43 233.022 Q2010.81 233.022 2012.73 230.36 Q2014.67 227.675 2014.67 222.976 M2000.18 213.925 Q2001.53 211.61 2003.56 210.499 Q2005.62 209.365 2008.47 209.365 Q2013.19 209.365 2016.13 213.115 Q2019.1 216.865 2019.1 222.976 Q2019.1 229.087 2016.13 232.837 Q2013.19 236.587 2008.47 236.587 Q2005.62 236.587 2003.56 235.476 Q2001.53 234.342 2000.18 232.027 L2000.18 235.916 L1995.9 235.916 L1995.9 199.897 L2000.18 199.897 L2000.18 213.925 Z" fill="#000000" fill-rule="nonzero" fill-opacity="1" /><path clip-path="url(#clip990)" d="M2025.72 225.684 L2025.72 209.99 L2029.98 209.99 L2029.98 225.522 Q2029.98 229.203 2031.41 231.055 Q2032.85 232.883 2035.72 232.883 Q2039.17 232.883 2041.16 230.684 Q2043.17 228.485 2043.17 224.689 L2043.17 209.99 L2047.43 209.99 L2047.43 235.916 L2043.17 235.916 L2043.17 231.934 Q2041.62 234.295 2039.56 235.453 Q2037.52 236.587 2034.81 236.587 Q2030.35 236.587 2028.03 233.809 Q2025.72 231.031 2025.72 225.684 M2036.43 209.365 L2036.43 209.365 Z" fill="#000000" fill-rule="nonzero" fill-opacity="1" /><path clip-path="url(#clip990)" d="M2060.42 202.629 L2060.42 209.99 L2069.19 209.99 L2069.19 213.3 L2060.42 213.3 L2060.42 227.374 Q2060.42 230.545 2061.27 231.448 Q2062.15 232.351 2064.81 232.351 L2069.19 232.351 L2069.19 235.916 L2064.81 235.916 Q2059.88 235.916 2058.01 234.087 Q2056.13 232.235 2056.13 227.374 L2056.13 213.3 L2053.01 213.3 L2053.01 209.99 L2056.13 209.99 L2056.13 202.629 L2060.42 202.629 Z" fill="#000000" fill-rule="nonzero" fill-opacity="1" /><path clip-path="url(#clip990)" d="M2074.79 209.99 L2079.05 209.99 L2079.05 235.916 L2074.79 235.916 L2074.79 209.99 M2074.79 199.897 L2079.05 199.897 L2079.05 205.291 L2074.79 205.291 L2074.79 199.897 Z" fill="#000000" fill-rule="nonzero" fill-opacity="1" /><path clip-path="url(#clip990)" d="M2098.01 212.976 Q2094.58 212.976 2092.59 215.661 Q2090.6 218.323 2090.6 222.976 Q2090.6 227.629 2092.57 230.314 Q2094.56 232.976 2098.01 232.976 Q2101.41 232.976 2103.4 230.291 Q2105.39 227.606 2105.39 222.976 Q2105.39 218.37 2103.4 215.684 Q2101.41 212.976 2098.01 212.976 M2098.01 209.365 Q2103.56 209.365 2106.73 212.976 Q2109.91 216.587 2109.91 222.976 Q2109.91 229.342 2106.73 232.976 Q2103.56 236.587 2098.01 236.587 Q2092.43 236.587 2089.26 232.976 Q2086.11 229.342 2086.11 222.976 Q2086.11 216.587 2089.26 212.976 Q2092.43 209.365 2098.01 209.365 Z" fill="#000000" fill-rule="nonzero" fill-opacity="1" /><path clip-path="url(#clip990)" d="M2138.52 220.268 L2138.52 235.916 L2134.26 235.916 L2134.26 220.407 Q2134.26 216.726 2132.82 214.897 Q2131.39 213.069 2128.52 213.069 Q2125.07 213.069 2123.08 215.268 Q2121.09 217.467 2121.09 221.263 L2121.09 235.916 L2116.8 235.916 L2116.8 209.99 L2121.09 209.99 L2121.09 214.018 Q2122.61 211.68 2124.67 210.522 Q2126.76 209.365 2129.47 209.365 Q2133.93 209.365 2136.22 212.143 Q2138.52 214.897 2138.52 220.268 Z" fill="#000000" fill-rule="nonzero" fill-opacity="1" /><polyline clip-path="url(#clip990)" style="stroke:#e26f46; stroke-linecap:round; stroke-linejoin:round; stroke-width:8; stroke-opacity:0.8; fill:none" points="1592.39,270.476 1732.6,270.476 "/>
<path clip-path="url(#clip990)" d="M1755.97 253.196 L1777.82 253.196 L1777.82 257.131 L1760.65 257.131 L1760.65 267.362 L1777.11 267.362 L1777.11 271.297 L1760.65 271.297 L1760.65 283.821 L1778.24 283.821 L1778.24 287.756 L1755.97 287.756 L1755.97 253.196 Z" fill="#000000" fill-rule="nonzero" fill-opacity="1" /><path clip-path="url(#clip990)" d="M1805.93 266.807 Q1807.52 263.936 1809.75 262.571 Q1811.97 261.205 1814.98 261.205 Q1819.03 261.205 1821.23 264.052 Q1823.43 266.876 1823.43 272.108 L1823.43 287.756 L1819.14 287.756 L1819.14 272.247 Q1819.14 268.52 1817.82 266.714 Q1816.5 264.909 1813.8 264.909 Q1810.49 264.909 1808.56 267.108 Q1806.64 269.307 1806.64 273.103 L1806.64 287.756 L1802.36 287.756 L1802.36 272.247 Q1802.36 268.497 1801.04 266.714 Q1799.72 264.909 1796.97 264.909 Q1793.7 264.909 1791.78 267.131 Q1789.86 269.33 1789.86 273.103 L1789.86 287.756 L1785.58 287.756 L1785.58 261.83 L1789.86 261.83 L1789.86 265.858 Q1791.32 263.473 1793.36 262.339 Q1795.39 261.205 1798.19 261.205 Q1801.02 261.205 1802.99 262.64 Q1804.98 264.075 1805.93 266.807 Z" fill="#000000" fill-rule="nonzero" fill-opacity="1" /><path clip-path="url(#clip990)" d="M1836.04 283.867 L1836.04 297.617 L1831.76 297.617 L1831.76 261.83 L1836.04 261.83 L1836.04 265.765 Q1837.38 263.45 1839.42 262.339 Q1841.48 261.205 1844.33 261.205 Q1849.05 261.205 1851.99 264.955 Q1854.95 268.705 1854.95 274.816 Q1854.95 280.927 1851.99 284.677 Q1849.05 288.427 1844.33 288.427 Q1841.48 288.427 1839.42 287.316 Q1837.38 286.182 1836.04 283.867 M1850.53 274.816 Q1850.53 270.117 1848.59 267.455 Q1846.67 264.77 1843.29 264.77 Q1839.91 264.77 1837.96 267.455 Q1836.04 270.117 1836.04 274.816 Q1836.04 279.515 1837.96 282.2 Q1839.91 284.862 1843.29 284.862 Q1846.67 284.862 1848.59 282.2 Q1850.53 279.515 1850.53 274.816 Z" fill="#000000" fill-rule="nonzero" fill-opacity="1" /><path clip-path="url(#clip990)" d="M1862.01 261.83 L1866.27 261.83 L1866.27 287.756 L1862.01 287.756 L1862.01 261.83 M1862.01 251.737 L1866.27 251.737 L1866.27 257.131 L1862.01 257.131 L1862.01 251.737 Z" fill="#000000" fill-rule="nonzero" fill-opacity="1" /><path clip-path="url(#clip990)" d="M1890.21 265.811 Q1889.49 265.395 1888.63 265.21 Q1887.8 265.001 1886.78 265.001 Q1883.17 265.001 1881.23 267.362 Q1879.3 269.7 1879.3 274.098 L1879.3 287.756 L1875.02 287.756 L1875.02 261.83 L1879.3 261.83 L1879.3 265.858 Q1880.65 263.497 1882.8 262.362 Q1884.95 261.205 1888.03 261.205 Q1888.47 261.205 1889 261.274 Q1889.54 261.321 1890.18 261.436 L1890.21 265.811 Z" fill="#000000" fill-rule="nonzero" fill-opacity="1" /><path clip-path="url(#clip990)" d="M1894.68 261.83 L1898.93 261.83 L1898.93 287.756 L1894.68 287.756 L1894.68 261.83 M1894.68 251.737 L1898.93 251.737 L1898.93 257.131 L1894.68 257.131 L1894.68 251.737 Z" fill="#000000" fill-rule="nonzero" fill-opacity="1" /><path clip-path="url(#clip990)" d="M1926.5 262.825 L1926.5 266.807 Q1924.7 265.811 1922.87 265.325 Q1921.06 264.816 1919.21 264.816 Q1915.07 264.816 1912.78 267.455 Q1910.49 270.071 1910.49 274.816 Q1910.49 279.561 1912.78 282.2 Q1915.07 284.816 1919.21 284.816 Q1921.06 284.816 1922.87 284.33 Q1924.7 283.821 1926.5 282.825 L1926.5 286.76 Q1924.72 287.594 1922.8 288.01 Q1920.9 288.427 1918.75 288.427 Q1912.89 288.427 1909.44 284.746 Q1905.99 281.066 1905.99 274.816 Q1905.99 268.473 1909.47 264.839 Q1912.96 261.205 1919.03 261.205 Q1920.99 261.205 1922.87 261.622 Q1924.74 262.015 1926.5 262.825 Z" fill="#000000" fill-rule="nonzero" fill-opacity="1" /><path clip-path="url(#clip990)" d="M1945.69 274.723 Q1940.53 274.723 1938.54 275.904 Q1936.55 277.084 1936.55 279.932 Q1936.55 282.2 1938.03 283.543 Q1939.54 284.862 1942.11 284.862 Q1945.65 284.862 1947.78 282.362 Q1949.93 279.839 1949.93 275.672 L1949.93 274.723 L1945.69 274.723 M1954.19 272.964 L1954.19 287.756 L1949.93 287.756 L1949.93 283.821 Q1948.47 286.182 1946.3 287.316 Q1944.12 288.427 1940.97 288.427 Q1936.99 288.427 1934.63 286.205 Q1932.29 283.959 1932.29 280.209 Q1932.29 275.834 1935.21 273.612 Q1938.15 271.39 1943.96 271.39 L1949.93 271.39 L1949.93 270.973 Q1949.93 268.034 1947.99 266.436 Q1946.06 264.816 1942.57 264.816 Q1940.35 264.816 1938.24 265.348 Q1936.13 265.881 1934.19 266.946 L1934.19 263.01 Q1936.53 262.108 1938.73 261.668 Q1940.92 261.205 1943.01 261.205 Q1948.63 261.205 1951.41 264.122 Q1954.19 267.038 1954.19 272.964 Z" fill="#000000" fill-rule="nonzero" fill-opacity="1" /><path clip-path="url(#clip990)" d="M1962.96 251.737 L1967.22 251.737 L1967.22 287.756 L1962.96 287.756 L1962.96 251.737 Z" fill="#000000" fill-rule="nonzero" fill-opacity="1" /><path clip-path="url(#clip990)" d="M1996.06 257.038 L1996.06 283.913 L2001.71 283.913 Q2008.86 283.913 2012.17 280.672 Q2015.51 277.432 2015.51 270.441 Q2015.51 263.497 2012.17 260.279 Q2008.86 257.038 2001.71 257.038 L1996.06 257.038 M1991.39 253.196 L2000.99 253.196 Q2011.04 253.196 2015.74 257.386 Q2020.44 261.552 2020.44 270.441 Q2020.44 279.376 2015.72 283.566 Q2010.99 287.756 2000.99 287.756 L1991.39 287.756 L1991.39 253.196 Z" fill="#000000" fill-rule="nonzero" fill-opacity="1" /><path clip-path="url(#clip990)" d="M2027.71 261.83 L2031.97 261.83 L2031.97 287.756 L2027.71 287.756 L2027.71 261.83 M2027.71 251.737 L2031.97 251.737 L2031.97 257.131 L2027.71 257.131 L2027.71 251.737 Z" fill="#000000" fill-rule="nonzero" fill-opacity="1" /><path clip-path="url(#clip990)" d="M2057.41 262.594 L2057.41 266.622 Q2055.6 265.696 2053.66 265.233 Q2051.71 264.77 2049.63 264.77 Q2046.46 264.77 2044.86 265.742 Q2043.29 266.714 2043.29 268.659 Q2043.29 270.14 2044.42 270.997 Q2045.55 271.83 2048.98 272.594 L2050.44 272.918 Q2054.98 273.89 2056.87 275.672 Q2058.79 277.432 2058.79 280.603 Q2058.79 284.214 2055.92 286.321 Q2053.08 288.427 2048.08 288.427 Q2045.99 288.427 2043.73 288.01 Q2041.48 287.617 2038.98 286.807 L2038.98 282.409 Q2041.34 283.635 2043.63 284.26 Q2045.92 284.862 2048.17 284.862 Q2051.18 284.862 2052.8 283.844 Q2054.42 282.802 2054.42 280.927 Q2054.42 279.191 2053.24 278.265 Q2052.08 277.339 2048.12 276.483 L2046.64 276.135 Q2042.68 275.302 2040.92 273.589 Q2039.17 271.853 2039.17 268.844 Q2039.17 265.186 2041.76 263.196 Q2044.35 261.205 2049.12 261.205 Q2051.48 261.205 2053.56 261.552 Q2055.65 261.899 2057.41 262.594 Z" fill="#000000" fill-rule="nonzero" fill-opacity="1" /><path clip-path="url(#clip990)" d="M2069.79 254.469 L2069.79 261.83 L2078.56 261.83 L2078.56 265.14 L2069.79 265.14 L2069.79 279.214 Q2069.79 282.385 2070.65 283.288 Q2071.53 284.191 2074.19 284.191 L2078.56 284.191 L2078.56 287.756 L2074.19 287.756 Q2069.26 287.756 2067.38 285.927 Q2065.51 284.075 2065.51 279.214 L2065.51 265.14 L2062.38 265.14 L2062.38 261.83 L2065.51 261.83 L2065.51 254.469 L2069.79 254.469 Z" fill="#000000" fill-rule="nonzero" fill-opacity="1" /><path clip-path="url(#clip990)" d="M2099.19 265.811 Q2098.47 265.395 2097.61 265.21 Q2096.78 265.001 2095.76 265.001 Q2092.15 265.001 2090.21 267.362 Q2088.29 269.7 2088.29 274.098 L2088.29 287.756 L2084 287.756 L2084 261.83 L2088.29 261.83 L2088.29 265.858 Q2089.63 263.497 2091.78 262.362 Q2093.93 261.205 2097.01 261.205 Q2097.45 261.205 2097.98 261.274 Q2098.52 261.321 2099.16 261.436 L2099.19 265.811 Z" fill="#000000" fill-rule="nonzero" fill-opacity="1" /><path clip-path="url(#clip990)" d="M2103.66 261.83 L2107.91 261.83 L2107.91 287.756 L2103.66 287.756 L2103.66 261.83 M2103.66 251.737 L2107.91 251.737 L2107.91 257.131 L2103.66 257.131 L2103.66 251.737 Z" fill="#000000" fill-rule="nonzero" fill-opacity="1" /><path clip-path="url(#clip990)" d="M2135.44 274.816 Q2135.44 270.117 2133.49 267.455 Q2131.57 264.77 2128.19 264.77 Q2124.81 264.77 2122.87 267.455 Q2120.95 270.117 2120.95 274.816 Q2120.95 279.515 2122.87 282.2 Q2124.81 284.862 2128.19 284.862 Q2131.57 284.862 2133.49 282.2 Q2135.44 279.515 2135.44 274.816 M2120.95 265.765 Q2122.29 263.45 2124.33 262.339 Q2126.39 261.205 2129.23 261.205 Q2133.96 261.205 2136.9 264.955 Q2139.86 268.705 2139.86 274.816 Q2139.86 280.927 2136.9 284.677 Q2133.96 288.427 2129.23 288.427 Q2126.39 288.427 2124.33 287.316 Q2122.29 286.182 2120.95 283.867 L2120.95 287.756 L2116.66 287.756 L2116.66 251.737 L2120.95 251.737 L2120.95 265.765 Z" fill="#000000" fill-rule="nonzero" fill-opacity="1" /><path clip-path="url(#clip990)" d="M2146.48 277.524 L2146.48 261.83 L2150.74 261.83 L2150.74 277.362 Q2150.74 281.043 2152.17 282.895 Q2153.61 284.723 2156.48 284.723 Q2159.93 284.723 2161.92 282.524 Q2163.93 280.325 2163.93 276.529 L2163.93 261.83 L2168.19 261.83 L2168.19 287.756 L2163.93 287.756 L2163.93 283.774 Q2162.38 286.135 2160.32 287.293 Q2158.28 288.427 2155.58 288.427 Q2151.11 288.427 2148.79 285.649 Q2146.48 282.871 2146.48 277.524 M2157.2 261.205 L2157.2 261.205 Z" fill="#000000" fill-rule="nonzero" fill-opacity="1" /><path clip-path="url(#clip990)" d="M2181.18 254.469 L2181.18 261.83 L2189.95 261.83 L2189.95 265.14 L2181.18 265.14 L2181.18 279.214 Q2181.18 282.385 2182.03 283.288 Q2182.91 284.191 2185.58 284.191 L2189.95 284.191 L2189.95 287.756 L2185.58 287.756 Q2180.65 287.756 2178.77 285.927 Q2176.9 284.075 2176.9 279.214 L2176.9 265.14 L2173.77 265.14 L2173.77 261.83 L2176.9 261.83 L2176.9 254.469 L2181.18 254.469 Z" fill="#000000" fill-rule="nonzero" fill-opacity="1" /><path clip-path="url(#clip990)" d="M2195.55 261.83 L2199.81 261.83 L2199.81 287.756 L2195.55 287.756 L2195.55 261.83 M2195.55 251.737 L2199.81 251.737 L2199.81 257.131 L2195.55 257.131 L2195.55 251.737 Z" fill="#000000" fill-rule="nonzero" fill-opacity="1" /><path clip-path="url(#clip990)" d="M2218.77 264.816 Q2215.34 264.816 2213.35 267.501 Q2211.36 270.163 2211.36 274.816 Q2211.36 279.469 2213.33 282.154 Q2215.32 284.816 2218.77 284.816 Q2222.17 284.816 2224.16 282.131 Q2226.15 279.446 2226.15 274.816 Q2226.15 270.21 2224.16 267.524 Q2222.17 264.816 2218.77 264.816 M2218.77 261.205 Q2224.33 261.205 2227.5 264.816 Q2230.67 268.427 2230.67 274.816 Q2230.67 281.182 2227.5 284.816 Q2224.33 288.427 2218.77 288.427 Q2213.19 288.427 2210.02 284.816 Q2206.87 281.182 2206.87 274.816 Q2206.87 268.427 2210.02 264.816 Q2213.19 261.205 2218.77 261.205 Z" fill="#000000" fill-rule="nonzero" fill-opacity="1" /><path clip-path="url(#clip990)" d="M2259.28 272.108 L2259.28 287.756 L2255.02 287.756 L2255.02 272.247 Q2255.02 268.566 2253.59 266.737 Q2252.15 264.909 2249.28 264.909 Q2245.83 264.909 2243.84 267.108 Q2241.85 269.307 2241.85 273.103 L2241.85 287.756 L2237.57 287.756 L2237.57 261.83 L2241.85 261.83 L2241.85 265.858 Q2243.38 263.52 2245.44 262.362 Q2247.52 261.205 2250.23 261.205 Q2254.7 261.205 2256.99 263.983 Q2259.28 266.737 2259.28 272.108 Z" fill="#000000" fill-rule="nonzero" fill-opacity="1" /></svg>
