<?xml version="1.0" encoding="utf-8"?>
<svg xmlns="http://www.w3.org/2000/svg" xmlns:xlink="http://www.w3.org/1999/xlink" width="600" height="400" viewBox="0 0 2400 1600">
<defs>
  <clipPath id="clip560">
    <rect x="0" y="0" width="2400" height="1600"/>
  </clipPath>
</defs>
<path clip-path="url(#clip560)" d="M0 1600 L2400 1600 L2400 8.88178e-14 L0 8.88178e-14  Z" fill="#ffffff" fill-rule="evenodd" fill-opacity="1"/>
<defs>
  <clipPath id="clip561">
    <rect x="480" y="0" width="1681" height="1600"/>
  </clipPath>
</defs>
<path clip-path="url(#clip560)" d="M219.866 1423.18 L2352.76 1423.18 L2352.76 123.472 L219.866 123.472  Z" fill="#ffffff" fill-rule="evenodd" fill-opacity="1"/>
<defs>
  <clipPath id="clip562">
    <rect x="219" y="123" width="2134" height="1301"/>
  </clipPath>
</defs>
<polyline clip-path="url(#clip562)" style="stroke:#000000; stroke-linecap:round; stroke-linejoin:round; stroke-width:2; stroke-opacity:0.1; fill:none" points="259.906,1423.18 259.906,123.472 "/>
<polyline clip-path="url(#clip562)" style="stroke:#000000; stroke-linecap:round; stroke-linejoin:round; stroke-width:2; stroke-opacity:0.1; fill:none" points="768.027,1423.18 768.027,123.472 "/>
<polyline clip-path="url(#clip562)" style="stroke:#000000; stroke-linecap:round; stroke-linejoin:round; stroke-width:2; stroke-opacity:0.1; fill:none" points="1276.15,1423.18 1276.15,123.472 "/>
<polyline clip-path="url(#clip562)" style="stroke:#000000; stroke-linecap:round; stroke-linejoin:round; stroke-width:2; stroke-opacity:0.1; fill:none" points="1784.27,1423.18 1784.27,123.472 "/>
<polyline clip-path="url(#clip562)" style="stroke:#000000; stroke-linecap:round; stroke-linejoin:round; stroke-width:2; stroke-opacity:0.1; fill:none" points="2292.39,1423.18 2292.39,123.472 "/>
<polyline clip-path="url(#clip560)" style="stroke:#000000; stroke-linecap:round; stroke-linejoin:round; stroke-width:4; stroke-opacity:1; fill:none" points="219.866,1423.18 2352.76,1423.18 "/>
<polyline clip-path="url(#clip560)" style="stroke:#000000; stroke-linecap:round; stroke-linejoin:round; stroke-width:4; stroke-opacity:1; fill:none" points="259.906,1423.18 259.906,1404.28 "/>
<polyline clip-path="url(#clip560)" style="stroke:#000000; stroke-linecap:round; stroke-linejoin:round; stroke-width:4; stroke-opacity:1; fill:none" points="768.027,1423.18 768.027,1404.28 "/>
<polyline clip-path="url(#clip560)" style="stroke:#000000; stroke-linecap:round; stroke-linejoin:round; stroke-width:4; stroke-opacity:1; fill:none" points="1276.15,1423.18 1276.15,1404.28 "/>
<polyline clip-path="url(#clip560)" style="stroke:#000000; stroke-linecap:round; stroke-linejoin:round; stroke-width:4; stroke-opacity:1; fill:none" points="1784.27,1423.18 1784.27,1404.28 "/>
<polyline clip-path="url(#clip560)" style="stroke:#000000; stroke-linecap:round; stroke-linejoin:round; stroke-width:4; stroke-opacity:1; fill:none" points="2292.39,1423.18 2292.39,1404.28 "/>
<path clip-path="url(#clip560)" d="M259.906 1454.1 Q256.295 1454.1 254.466 1457.66 Q252.661 1461.2 252.661 1468.33 Q252.661 1475.44 254.466 1479.01 Q256.295 1482.55 259.906 1482.55 Q263.54 1482.55 265.346 1479.01 Q267.175 1475.44 267.175 1468.33 Q267.175 1461.2 265.346 1457.66 Q263.54 1454.1 259.906 1454.1 M259.906 1450.39 Q265.716 1450.39 268.772 1455 Q271.851 1459.58 271.851 1468.33 Q271.851 1477.06 268.772 1481.67 Q265.716 1486.25 259.906 1486.25 Q254.096 1486.25 251.017 1481.67 Q247.962 1477.06 247.962 1468.33 Q247.962 1459.58 251.017 1455 Q254.096 1450.39 259.906 1450.39 Z" fill="#000000" fill-rule="nonzero" fill-opacity="1" /><path clip-path="url(#clip560)" d="M747.298 1481.64 L763.618 1481.64 L763.618 1485.58 L741.673 1485.58 L741.673 1481.64 Q744.335 1478.89 748.919 1474.26 Q753.525 1469.61 754.706 1468.27 Q756.951 1465.74 757.831 1464.01 Q758.734 1462.25 758.734 1460.56 Q758.734 1457.8 756.789 1456.07 Q754.868 1454.33 751.766 1454.33 Q749.567 1454.33 747.113 1455.09 Q744.683 1455.86 741.905 1457.41 L741.905 1452.69 Q744.729 1451.55 747.183 1450.97 Q749.636 1450.39 751.673 1450.39 Q757.044 1450.39 760.238 1453.08 Q763.433 1455.77 763.433 1460.26 Q763.433 1462.39 762.622 1464.31 Q761.835 1466.2 759.729 1468.8 Q759.15 1469.47 756.048 1472.69 Q752.947 1475.88 747.298 1481.64 Z" fill="#000000" fill-rule="nonzero" fill-opacity="1" /><path clip-path="url(#clip560)" d="M773.479 1451.02 L791.835 1451.02 L791.835 1454.96 L777.761 1454.96 L777.761 1463.43 Q778.78 1463.08 779.798 1462.92 Q780.817 1462.73 781.835 1462.73 Q787.622 1462.73 791.002 1465.9 Q794.381 1469.08 794.381 1474.49 Q794.381 1480.07 790.909 1483.17 Q787.437 1486.25 781.118 1486.25 Q778.942 1486.25 776.673 1485.88 Q774.428 1485.51 772.02 1484.77 L772.02 1480.07 Q774.104 1481.2 776.326 1481.76 Q778.548 1482.32 781.025 1482.32 Q785.03 1482.32 787.368 1480.21 Q789.706 1478.1 789.706 1474.49 Q789.706 1470.88 787.368 1468.77 Q785.03 1466.67 781.025 1466.67 Q779.15 1466.67 777.275 1467.08 Q775.423 1467.5 773.479 1468.38 L773.479 1451.02 Z" fill="#000000" fill-rule="nonzero" fill-opacity="1" /><path clip-path="url(#clip560)" d="M1250.85 1451.02 L1269.2 1451.02 L1269.2 1454.96 L1255.13 1454.96 L1255.13 1463.43 Q1256.15 1463.08 1257.17 1462.92 Q1258.19 1462.73 1259.2 1462.73 Q1264.99 1462.73 1268.37 1465.9 Q1271.75 1469.08 1271.75 1474.49 Q1271.75 1480.07 1268.28 1483.17 Q1264.81 1486.25 1258.49 1486.25 Q1256.31 1486.25 1254.04 1485.88 Q1251.8 1485.51 1249.39 1484.77 L1249.39 1480.07 Q1251.47 1481.2 1253.7 1481.76 Q1255.92 1482.32 1258.39 1482.32 Q1262.4 1482.32 1264.74 1480.21 Q1267.07 1478.1 1267.07 1474.49 Q1267.07 1470.88 1264.74 1468.77 Q1262.4 1466.67 1258.39 1466.67 Q1256.52 1466.67 1254.64 1467.08 Q1252.79 1467.5 1250.85 1468.38 L1250.85 1451.02 Z" fill="#000000" fill-rule="nonzero" fill-opacity="1" /><path clip-path="url(#clip560)" d="M1290.96 1454.1 Q1287.35 1454.1 1285.52 1457.66 Q1283.72 1461.2 1283.72 1468.33 Q1283.72 1475.44 1285.52 1479.01 Q1287.35 1482.55 1290.96 1482.55 Q1294.6 1482.55 1296.4 1479.01 Q1298.23 1475.44 1298.23 1468.33 Q1298.23 1461.2 1296.4 1457.66 Q1294.6 1454.1 1290.96 1454.1 M1290.96 1450.39 Q1296.77 1450.39 1299.83 1455 Q1302.91 1459.58 1302.91 1468.33 Q1302.91 1477.06 1299.83 1481.67 Q1296.77 1486.25 1290.96 1486.25 Q1285.15 1486.25 1282.07 1481.67 Q1279.02 1477.06 1279.02 1468.33 Q1279.02 1459.58 1282.07 1455 Q1285.15 1450.39 1290.96 1450.39 Z" fill="#000000" fill-rule="nonzero" fill-opacity="1" /><path clip-path="url(#clip560)" d="M1758.12 1451.02 L1780.35 1451.02 L1780.35 1453.01 L1767.8 1485.58 L1762.92 1485.58 L1774.72 1454.96 L1758.12 1454.96 L1758.12 1451.02 Z" fill="#000000" fill-rule="nonzero" fill-opacity="1" /><path clip-path="url(#clip560)" d="M1789.51 1451.02 L1807.87 1451.02 L1807.87 1454.96 L1793.8 1454.96 L1793.8 1463.43 Q1794.81 1463.08 1795.83 1462.92 Q1796.85 1462.73 1797.87 1462.73 Q1803.66 1462.73 1807.04 1465.9 Q1810.42 1469.08 1810.42 1474.49 Q1810.42 1480.07 1806.94 1483.17 Q1803.47 1486.25 1797.15 1486.25 Q1794.98 1486.25 1792.71 1485.88 Q1790.46 1485.51 1788.05 1484.77 L1788.05 1480.07 Q1790.14 1481.2 1792.36 1481.76 Q1794.58 1482.32 1797.06 1482.32 Q1801.06 1482.32 1803.4 1480.21 Q1805.74 1478.1 1805.74 1474.49 Q1805.74 1470.88 1803.4 1468.77 Q1801.06 1466.67 1797.06 1466.67 Q1795.18 1466.67 1793.31 1467.08 Q1791.46 1467.5 1789.51 1468.38 L1789.51 1451.02 Z" fill="#000000" fill-rule="nonzero" fill-opacity="1" /><path clip-path="url(#clip560)" d="M2252 1481.64 L2259.64 1481.64 L2259.64 1455.28 L2251.33 1456.95 L2251.33 1452.69 L2259.59 1451.02 L2264.27 1451.02 L2264.27 1481.64 L2271.91 1481.64 L2271.91 1485.58 L2252 1485.58 L2252 1481.64 Z" fill="#000000" fill-rule="nonzero" fill-opacity="1" /><path clip-path="url(#clip560)" d="M2291.35 1454.1 Q2287.74 1454.1 2285.91 1457.66 Q2284.1 1461.2 2284.1 1468.33 Q2284.1 1475.44 2285.91 1479.01 Q2287.74 1482.55 2291.35 1482.55 Q2294.98 1482.55 2296.79 1479.01 Q2298.62 1475.44 2298.62 1468.33 Q2298.62 1461.2 2296.79 1457.66 Q2294.98 1454.1 2291.35 1454.1 M2291.35 1450.39 Q2297.16 1450.39 2300.22 1455 Q2303.29 1459.58 2303.29 1468.33 Q2303.29 1477.06 2300.22 1481.67 Q2297.16 1486.25 2291.35 1486.25 Q2285.54 1486.25 2282.46 1481.67 Q2279.41 1477.06 2279.41 1468.33 Q2279.41 1459.58 2282.46 1455 Q2285.54 1450.39 2291.35 1450.39 Z" fill="#000000" fill-rule="nonzero" fill-opacity="1" /><path clip-path="url(#clip560)" d="M2321.51 1454.1 Q2317.9 1454.1 2316.07 1457.66 Q2314.27 1461.2 2314.27 1468.33 Q2314.27 1475.44 2316.07 1479.01 Q2317.9 1482.55 2321.51 1482.55 Q2325.15 1482.55 2326.95 1479.01 Q2328.78 1475.44 2328.78 1468.33 Q2328.78 1461.2 2326.95 1457.66 Q2325.15 1454.1 2321.51 1454.1 M2321.51 1450.39 Q2327.32 1450.39 2330.38 1455 Q2333.46 1459.58 2333.46 1468.33 Q2333.46 1477.06 2330.38 1481.67 Q2327.32 1486.25 2321.51 1486.25 Q2315.7 1486.25 2312.62 1481.67 Q2309.57 1477.06 2309.57 1468.33 Q2309.57 1459.58 2312.62 1455 Q2315.7 1450.39 2321.51 1450.39 Z" fill="#000000" fill-rule="nonzero" fill-opacity="1" /><path clip-path="url(#clip560)" d="M1225.47 1522.27 L1225.47 1532.4 L1237.53 1532.4 L1237.53 1536.95 L1225.47 1536.95 L1225.47 1556.3 Q1225.47 1560.66 1226.65 1561.9 Q1227.86 1563.14 1231.52 1563.14 L1237.53 1563.14 L1237.53 1568.04 L1231.52 1568.04 Q1224.74 1568.04 1222.16 1565.53 Q1219.58 1562.98 1219.58 1556.3 L1219.58 1536.95 L1215.29 1536.95 L1215.29 1532.4 L1219.58 1532.4 L1219.58 1522.27 L1225.47 1522.27 Z" fill="#000000" fill-rule="nonzero" fill-opacity="1" /><path clip-path="url(#clip560)" d="M1245.24 1532.4 L1251.09 1532.4 L1251.09 1568.04 L1245.24 1568.04 L1245.24 1532.4 M1245.24 1518.52 L1251.09 1518.52 L1251.09 1525.93 L1245.24 1525.93 L1245.24 1518.52 Z" fill="#000000" fill-rule="nonzero" fill-opacity="1" /><path clip-path="url(#clip560)" d="M1291.1 1539.24 Q1293.3 1535.29 1296.35 1533.41 Q1299.41 1531.54 1303.55 1531.54 Q1309.12 1531.54 1312.14 1535.45 Q1315.16 1539.33 1315.16 1546.53 L1315.16 1568.04 L1309.28 1568.04 L1309.28 1546.72 Q1309.28 1541.59 1307.46 1539.11 Q1305.65 1536.63 1301.92 1536.63 Q1297.37 1536.63 1294.73 1539.65 Q1292.09 1542.68 1292.09 1547.9 L1292.09 1568.04 L1286.2 1568.04 L1286.2 1546.72 Q1286.2 1541.56 1284.39 1539.11 Q1282.57 1536.63 1278.78 1536.63 Q1274.3 1536.63 1271.65 1539.68 Q1269.01 1542.71 1269.01 1547.9 L1269.01 1568.04 L1263.12 1568.04 L1263.12 1532.4 L1269.01 1532.4 L1269.01 1537.93 Q1271.02 1534.66 1273.82 1533.1 Q1276.62 1531.54 1280.47 1531.54 Q1284.35 1531.54 1287.06 1533.51 Q1289.8 1535.48 1291.1 1539.24 Z" fill="#000000" fill-rule="nonzero" fill-opacity="1" /><path clip-path="url(#clip560)" d="M1357.34 1548.76 L1357.34 1551.62 L1330.41 1551.62 Q1330.79 1557.67 1334.04 1560.85 Q1337.32 1564 1343.14 1564 Q1346.51 1564 1349.67 1563.17 Q1352.85 1562.35 1355.97 1560.69 L1355.97 1566.23 Q1352.82 1567.57 1349.51 1568.27 Q1346.2 1568.97 1342.79 1568.97 Q1334.26 1568.97 1329.26 1564 Q1324.3 1559.04 1324.3 1550.57 Q1324.3 1541.82 1329.01 1536.69 Q1333.75 1531.54 1341.77 1531.54 Q1348.97 1531.54 1353.14 1536.18 Q1357.34 1540.8 1357.34 1548.76 M1351.48 1547.04 Q1351.42 1542.23 1348.77 1539.37 Q1346.16 1536.5 1341.84 1536.5 Q1336.93 1536.5 1333.97 1539.27 Q1331.05 1542.04 1330.6 1547.07 L1351.48 1547.04 Z" fill="#000000" fill-rule="nonzero" fill-opacity="1" /><polyline clip-path="url(#clip562)" style="stroke:#000000; stroke-linecap:round; stroke-linejoin:round; stroke-width:2; stroke-opacity:0.1; fill:none" points="219.866,1255.11 2352.76,1255.11 "/>
<polyline clip-path="url(#clip562)" style="stroke:#000000; stroke-linecap:round; stroke-linejoin:round; stroke-width:2; stroke-opacity:0.1; fill:none" points="219.866,1085.8 2352.76,1085.8 "/>
<polyline clip-path="url(#clip562)" style="stroke:#000000; stroke-linecap:round; stroke-linejoin:round; stroke-width:2; stroke-opacity:0.1; fill:none" points="219.866,916.494 2352.76,916.494 "/>
<polyline clip-path="url(#clip562)" style="stroke:#000000; stroke-linecap:round; stroke-linejoin:round; stroke-width:2; stroke-opacity:0.1; fill:none" points="219.866,747.185 2352.76,747.185 "/>
<polyline clip-path="url(#clip562)" style="stroke:#000000; stroke-linecap:round; stroke-linejoin:round; stroke-width:2; stroke-opacity:0.1; fill:none" points="219.866,577.875 2352.76,577.875 "/>
<polyline clip-path="url(#clip562)" style="stroke:#000000; stroke-linecap:round; stroke-linejoin:round; stroke-width:2; stroke-opacity:0.1; fill:none" points="219.866,408.565 2352.76,408.565 "/>
<polyline clip-path="url(#clip562)" style="stroke:#000000; stroke-linecap:round; stroke-linejoin:round; stroke-width:2; stroke-opacity:0.1; fill:none" points="219.866,239.255 2352.76,239.255 "/>
<polyline clip-path="url(#clip560)" style="stroke:#000000; stroke-linecap:round; stroke-linejoin:round; stroke-width:4; stroke-opacity:1; fill:none" points="219.866,1423.18 219.866,123.472 "/>
<polyline clip-path="url(#clip560)" style="stroke:#000000; stroke-linecap:round; stroke-linejoin:round; stroke-width:4; stroke-opacity:1; fill:none" points="219.866,1255.11 238.764,1255.11 "/>
<polyline clip-path="url(#clip560)" style="stroke:#000000; stroke-linecap:round; stroke-linejoin:round; stroke-width:4; stroke-opacity:1; fill:none" points="219.866,1085.8 238.764,1085.8 "/>
<polyline clip-path="url(#clip560)" style="stroke:#000000; stroke-linecap:round; stroke-linejoin:round; stroke-width:4; stroke-opacity:1; fill:none" points="219.866,916.494 238.764,916.494 "/>
<polyline clip-path="url(#clip560)" style="stroke:#000000; stroke-linecap:round; stroke-linejoin:round; stroke-width:4; stroke-opacity:1; fill:none" points="219.866,747.185 238.764,747.185 "/>
<polyline clip-path="url(#clip560)" style="stroke:#000000; stroke-linecap:round; stroke-linejoin:round; stroke-width:4; stroke-opacity:1; fill:none" points="219.866,577.875 238.764,577.875 "/>
<polyline clip-path="url(#clip560)" style="stroke:#000000; stroke-linecap:round; stroke-linejoin:round; stroke-width:4; stroke-opacity:1; fill:none" points="219.866,408.565 238.764,408.565 "/>
<polyline clip-path="url(#clip560)" style="stroke:#000000; stroke-linecap:round; stroke-linejoin:round; stroke-width:4; stroke-opacity:1; fill:none" points="219.866,239.255 238.764,239.255 "/>
<path clip-path="url(#clip560)" d="M128.288 1240.91 Q124.677 1240.91 122.848 1244.48 Q121.043 1248.02 121.043 1255.15 Q121.043 1262.26 122.848 1265.82 Q124.677 1269.36 128.288 1269.36 Q131.922 1269.36 133.728 1265.82 Q135.556 1262.26 135.556 1255.15 Q135.556 1248.02 133.728 1244.48 Q131.922 1240.91 128.288 1240.91 M128.288 1237.21 Q134.098 1237.21 137.154 1241.82 Q140.232 1246.4 140.232 1255.15 Q140.232 1263.88 137.154 1268.48 Q134.098 1273.07 128.288 1273.07 Q122.478 1273.07 119.399 1268.48 Q116.343 1263.88 116.343 1255.15 Q116.343 1246.4 119.399 1241.82 Q122.478 1237.21 128.288 1237.21 Z" fill="#000000" fill-rule="nonzero" fill-opacity="1" /><path clip-path="url(#clip560)" d="M148.45 1266.51 L153.334 1266.51 L153.334 1272.39 L148.45 1272.39 L148.45 1266.51 Z" fill="#000000" fill-rule="nonzero" fill-opacity="1" /><path clip-path="url(#clip560)" d="M167.547 1268.46 L183.866 1268.46 L183.866 1272.39 L161.922 1272.39 L161.922 1268.46 Q164.584 1265.7 169.167 1261.07 Q173.774 1256.42 174.954 1255.08 Q177.2 1252.56 178.079 1250.82 Q178.982 1249.06 178.982 1247.37 Q178.982 1244.62 177.038 1242.88 Q175.116 1241.14 172.014 1241.14 Q169.815 1241.14 167.362 1241.91 Q164.931 1242.67 162.153 1244.22 L162.153 1239.5 Q164.977 1238.37 167.431 1237.79 Q169.885 1237.21 171.922 1237.21 Q177.292 1237.21 180.487 1239.89 Q183.681 1242.58 183.681 1247.07 Q183.681 1249.2 182.871 1251.12 Q182.084 1253.02 179.977 1255.61 Q179.399 1256.28 176.297 1259.5 Q173.195 1262.69 167.547 1268.46 Z" fill="#000000" fill-rule="nonzero" fill-opacity="1" /><path clip-path="url(#clip560)" d="M127.339 1071.6 Q123.728 1071.6 121.899 1075.17 Q120.093 1078.71 120.093 1085.84 Q120.093 1092.95 121.899 1096.51 Q123.728 1100.05 127.339 1100.05 Q130.973 1100.05 132.779 1096.51 Q134.607 1092.95 134.607 1085.84 Q134.607 1078.71 132.779 1075.17 Q130.973 1071.6 127.339 1071.6 M127.339 1067.9 Q133.149 1067.9 136.204 1072.51 Q139.283 1077.09 139.283 1085.84 Q139.283 1094.57 136.204 1099.17 Q133.149 1103.76 127.339 1103.76 Q121.529 1103.76 118.45 1099.17 Q115.394 1094.57 115.394 1085.84 Q115.394 1077.09 118.45 1072.51 Q121.529 1067.9 127.339 1067.9 Z" fill="#000000" fill-rule="nonzero" fill-opacity="1" /><path clip-path="url(#clip560)" d="M147.501 1097.2 L152.385 1097.2 L152.385 1103.08 L147.501 1103.08 L147.501 1097.2 Z" fill="#000000" fill-rule="nonzero" fill-opacity="1" /><path clip-path="url(#clip560)" d="M176.737 1084.45 Q180.093 1085.17 181.968 1087.44 Q183.866 1089.7 183.866 1093.04 Q183.866 1098.15 180.348 1100.95 Q176.829 1103.76 170.348 1103.76 Q168.172 1103.76 165.857 1103.32 Q163.565 1102.9 161.112 1102.04 L161.112 1097.53 Q163.056 1098.66 165.371 1099.24 Q167.686 1099.82 170.209 1099.82 Q174.607 1099.82 176.899 1098.08 Q179.214 1096.35 179.214 1093.04 Q179.214 1089.98 177.061 1088.27 Q174.931 1086.53 171.112 1086.53 L167.084 1086.53 L167.084 1082.69 L171.297 1082.69 Q174.746 1082.69 176.575 1081.32 Q178.403 1079.94 178.403 1077.34 Q178.403 1074.68 176.505 1073.27 Q174.63 1071.83 171.112 1071.83 Q169.19 1071.83 166.991 1072.25 Q164.792 1072.67 162.153 1073.55 L162.153 1069.38 Q164.815 1068.64 167.13 1068.27 Q169.468 1067.9 171.528 1067.9 Q176.852 1067.9 179.954 1070.33 Q183.056 1072.74 183.056 1076.86 Q183.056 1079.73 181.413 1081.72 Q179.769 1083.69 176.737 1084.45 Z" fill="#000000" fill-rule="nonzero" fill-opacity="1" /><path clip-path="url(#clip560)" d="M126.205 902.293 Q122.593 902.293 120.765 905.858 Q118.959 909.399 118.959 916.529 Q118.959 923.635 120.765 927.2 Q122.593 930.742 126.205 930.742 Q129.839 930.742 131.644 927.2 Q133.473 923.635 133.473 916.529 Q133.473 909.399 131.644 905.858 Q129.839 902.293 126.205 902.293 M126.205 898.589 Q132.015 898.589 135.07 903.196 Q138.149 907.779 138.149 916.529 Q138.149 925.256 135.07 929.862 Q132.015 934.446 126.205 934.446 Q120.394 934.446 117.316 929.862 Q114.26 925.256 114.26 916.529 Q114.26 907.779 117.316 903.196 Q120.394 898.589 126.205 898.589 Z" fill="#000000" fill-rule="nonzero" fill-opacity="1" /><path clip-path="url(#clip560)" d="M146.366 927.895 L151.251 927.895 L151.251 933.774 L146.366 933.774 L146.366 927.895 Z" fill="#000000" fill-rule="nonzero" fill-opacity="1" /><path clip-path="url(#clip560)" d="M174.283 903.288 L162.477 921.737 L174.283 921.737 L174.283 903.288 M173.056 899.214 L178.936 899.214 L178.936 921.737 L183.866 921.737 L183.866 925.626 L178.936 925.626 L178.936 933.774 L174.283 933.774 L174.283 925.626 L158.681 925.626 L158.681 921.112 L173.056 899.214 Z" fill="#000000" fill-rule="nonzero" fill-opacity="1" /><path clip-path="url(#clip560)" d="M127.686 732.983 Q124.075 732.983 122.246 736.548 Q120.441 740.09 120.441 747.219 Q120.441 754.326 122.246 757.891 Q124.075 761.432 127.686 761.432 Q131.32 761.432 133.126 757.891 Q134.954 754.326 134.954 747.219 Q134.954 740.09 133.126 736.548 Q131.32 732.983 127.686 732.983 M127.686 729.28 Q133.496 729.28 136.552 733.886 Q139.63 738.469 139.63 747.219 Q139.63 755.946 136.552 760.553 Q133.496 765.136 127.686 765.136 Q121.876 765.136 118.797 760.553 Q115.742 755.946 115.742 747.219 Q115.742 738.469 118.797 733.886 Q121.876 729.28 127.686 729.28 Z" fill="#000000" fill-rule="nonzero" fill-opacity="1" /><path clip-path="url(#clip560)" d="M147.848 758.585 L152.732 758.585 L152.732 764.465 L147.848 764.465 L147.848 758.585 Z" fill="#000000" fill-rule="nonzero" fill-opacity="1" /><path clip-path="url(#clip560)" d="M162.964 729.905 L181.32 729.905 L181.32 733.84 L167.246 733.84 L167.246 742.312 Q168.264 741.965 169.283 741.803 Q170.302 741.617 171.32 741.617 Q177.107 741.617 180.487 744.789 Q183.866 747.96 183.866 753.377 Q183.866 758.955 180.394 762.057 Q176.922 765.136 170.602 765.136 Q168.427 765.136 166.158 764.765 Q163.913 764.395 161.505 763.654 L161.505 758.955 Q163.589 760.09 165.811 760.645 Q168.033 761.201 170.51 761.201 Q174.514 761.201 176.852 759.094 Q179.19 756.988 179.19 753.377 Q179.19 749.766 176.852 747.659 Q174.514 745.553 170.51 745.553 Q168.635 745.553 166.76 745.969 Q164.908 746.386 162.964 747.266 L162.964 729.905 Z" fill="#000000" fill-rule="nonzero" fill-opacity="1" /><path clip-path="url(#clip560)" d="M126.529 563.673 Q122.918 563.673 121.089 567.238 Q119.283 570.78 119.283 577.91 Q119.283 585.016 121.089 588.581 Q122.918 592.122 126.529 592.122 Q130.163 592.122 131.968 588.581 Q133.797 585.016 133.797 577.91 Q133.797 570.78 131.968 567.238 Q130.163 563.673 126.529 563.673 M126.529 559.97 Q132.339 559.97 135.394 564.576 Q138.473 569.16 138.473 577.91 Q138.473 586.636 135.394 591.243 Q132.339 595.826 126.529 595.826 Q120.718 595.826 117.64 591.243 Q114.584 586.636 114.584 577.91 Q114.584 569.16 117.64 564.576 Q120.718 559.97 126.529 559.97 Z" fill="#000000" fill-rule="nonzero" fill-opacity="1" /><path clip-path="url(#clip560)" d="M146.691 589.275 L151.575 589.275 L151.575 595.155 L146.691 595.155 L146.691 589.275 Z" fill="#000000" fill-rule="nonzero" fill-opacity="1" /><path clip-path="url(#clip560)" d="M172.339 576.011 Q169.19 576.011 167.339 578.164 Q165.51 580.317 165.51 584.067 Q165.51 587.794 167.339 589.97 Q169.19 592.122 172.339 592.122 Q175.487 592.122 177.315 589.97 Q179.167 587.794 179.167 584.067 Q179.167 580.317 177.315 578.164 Q175.487 576.011 172.339 576.011 M181.621 561.359 L181.621 565.618 Q179.862 564.785 178.056 564.345 Q176.274 563.905 174.514 563.905 Q169.885 563.905 167.431 567.03 Q165.001 570.155 164.653 576.474 Q166.019 574.46 168.079 573.396 Q170.139 572.308 172.616 572.308 Q177.825 572.308 180.834 575.479 Q183.866 578.627 183.866 584.067 Q183.866 589.391 180.718 592.609 Q177.57 595.826 172.339 595.826 Q166.343 595.826 163.172 591.243 Q160.001 586.636 160.001 577.91 Q160.001 569.715 163.89 564.854 Q167.778 559.97 174.329 559.97 Q176.089 559.97 177.871 560.317 Q179.676 560.664 181.621 561.359 Z" fill="#000000" fill-rule="nonzero" fill-opacity="1" /><path clip-path="url(#clip560)" d="M127.593 394.364 Q123.982 394.364 122.154 397.928 Q120.348 401.47 120.348 408.6 Q120.348 415.706 122.154 419.271 Q123.982 422.813 127.593 422.813 Q131.228 422.813 133.033 419.271 Q134.862 415.706 134.862 408.6 Q134.862 401.47 133.033 397.928 Q131.228 394.364 127.593 394.364 M127.593 390.66 Q133.404 390.66 136.459 395.266 Q139.538 399.85 139.538 408.6 Q139.538 417.327 136.459 421.933 Q133.404 426.516 127.593 426.516 Q121.783 426.516 118.705 421.933 Q115.649 417.327 115.649 408.6 Q115.649 399.85 118.705 395.266 Q121.783 390.66 127.593 390.66 Z" fill="#000000" fill-rule="nonzero" fill-opacity="1" /><path clip-path="url(#clip560)" d="M147.755 419.965 L152.64 419.965 L152.64 425.845 L147.755 425.845 L147.755 419.965 Z" fill="#000000" fill-rule="nonzero" fill-opacity="1" /><path clip-path="url(#clip560)" d="M161.644 391.285 L183.866 391.285 L183.866 393.276 L171.32 425.845 L166.436 425.845 L178.241 395.22 L161.644 395.22 L161.644 391.285 Z" fill="#000000" fill-rule="nonzero" fill-opacity="1" /><path clip-path="url(#clip560)" d="M126.783 225.054 Q123.172 225.054 121.343 228.619 Q119.538 232.16 119.538 239.29 Q119.538 246.396 121.343 249.961 Q123.172 253.503 126.783 253.503 Q130.417 253.503 132.223 249.961 Q134.052 246.396 134.052 239.29 Q134.052 232.16 132.223 228.619 Q130.417 225.054 126.783 225.054 M126.783 221.35 Q132.593 221.35 135.649 225.957 Q138.728 230.54 138.728 239.29 Q138.728 248.017 135.649 252.623 Q132.593 257.207 126.783 257.207 Q120.973 257.207 117.894 252.623 Q114.839 248.017 114.839 239.29 Q114.839 230.54 117.894 225.957 Q120.973 221.35 126.783 221.35 Z" fill="#000000" fill-rule="nonzero" fill-opacity="1" /><path clip-path="url(#clip560)" d="M146.945 250.656 L151.829 250.656 L151.829 256.535 L146.945 256.535 L146.945 250.656 Z" fill="#000000" fill-rule="nonzero" fill-opacity="1" /><path clip-path="url(#clip560)" d="M172.014 240.123 Q168.681 240.123 166.76 241.906 Q164.862 243.688 164.862 246.813 Q164.862 249.938 166.76 251.72 Q168.681 253.503 172.014 253.503 Q175.348 253.503 177.269 251.72 Q179.19 249.915 179.19 246.813 Q179.19 243.688 177.269 241.906 Q175.371 240.123 172.014 240.123 M167.339 238.133 Q164.329 237.392 162.64 235.332 Q160.973 233.271 160.973 230.309 Q160.973 226.165 163.913 223.758 Q166.876 221.35 172.014 221.35 Q177.176 221.35 180.116 223.758 Q183.056 226.165 183.056 230.309 Q183.056 233.271 181.366 235.332 Q179.7 237.392 176.714 238.133 Q180.093 238.92 181.968 241.211 Q183.866 243.503 183.866 246.813 Q183.866 251.836 180.788 254.521 Q177.732 257.207 172.014 257.207 Q166.297 257.207 163.218 254.521 Q160.163 251.836 160.163 246.813 Q160.163 243.503 162.061 241.211 Q163.959 238.92 167.339 238.133 M165.626 230.748 Q165.626 233.434 167.292 234.938 Q168.982 236.443 172.014 236.443 Q175.024 236.443 176.714 234.938 Q178.426 233.434 178.426 230.748 Q178.426 228.063 176.714 226.559 Q175.024 225.054 172.014 225.054 Q168.982 225.054 167.292 226.559 Q165.626 228.063 165.626 230.748 Z" fill="#000000" fill-rule="nonzero" fill-opacity="1" /><path clip-path="url(#clip560)" d="M28.3562 756.711 L45.7028 769.602 L64.0042 756.043 L64.0042 762.95 L49.9996 773.326 L64.0042 783.702 L64.0042 790.609 L45.3526 776.763 L28.3562 789.431 L28.3562 782.524 L41.0558 773.071 L28.3562 763.618 L28.3562 756.711 Z" fill="#000000" fill-rule="nonzero" fill-opacity="1" /><path clip-path="url(#clip560)" d="M532.175 12.096 L564.298 12.096 L564.298 18.9825 L539.669 18.9825 L539.669 33.8088 Q541.451 33.2012 543.233 32.9176 Q545.016 32.5936 546.798 32.5936 Q556.926 32.5936 562.84 38.1433 Q568.754 43.6931 568.754 53.1722 Q568.754 62.9348 562.678 68.3631 Q556.601 73.7508 545.542 73.7508 Q541.735 73.7508 537.765 73.1026 Q533.835 72.4545 529.622 71.1582 L529.622 62.9348 Q533.268 64.9198 537.157 65.892 Q541.046 66.8642 545.38 66.8642 Q552.389 66.8642 556.48 63.1779 Q560.571 59.4916 560.571 53.1722 Q560.571 46.8528 556.48 43.1664 Q552.389 39.4801 545.38 39.4801 Q542.099 39.4801 538.818 40.2093 Q535.577 40.9384 532.175 42.4778 L532.175 12.096 Z" fill="#000000" fill-rule="nonzero" fill-opacity="1" /><path clip-path="url(#clip560)" d="M602.377 17.4837 Q596.057 17.4837 592.857 23.7221 Q589.697 29.92 589.697 42.3968 Q589.697 54.833 592.857 61.0714 Q596.057 67.2693 602.377 67.2693 Q608.737 67.2693 611.896 61.0714 Q615.097 54.833 615.097 42.3968 Q615.097 29.92 611.896 23.7221 Q608.737 17.4837 602.377 17.4837 M602.377 11.0023 Q612.544 11.0023 617.892 19.0636 Q623.279 27.0843 623.279 42.3968 Q623.279 57.6687 617.892 65.73 Q612.544 73.7508 602.377 73.7508 Q592.209 73.7508 586.821 65.73 Q581.474 57.6687 581.474 42.3968 Q581.474 27.0843 586.821 19.0636 Q592.209 11.0023 602.377 11.0023 Z" fill="#000000" fill-rule="nonzero" fill-opacity="1" /><path clip-path="url(#clip560)" d="M655.16 17.4837 Q648.841 17.4837 645.64 23.7221 Q642.481 29.92 642.481 42.3968 Q642.481 54.833 645.64 61.0714 Q648.841 67.2693 655.16 67.2693 Q661.52 67.2693 664.68 61.0714 Q667.88 54.833 667.88 42.3968 Q667.88 29.92 664.68 23.7221 Q661.52 17.4837 655.16 17.4837 M655.16 11.0023 Q665.328 11.0023 670.675 19.0636 Q676.063 27.0843 676.063 42.3968 Q676.063 57.6687 670.675 65.73 Q665.328 73.7508 655.16 73.7508 Q644.992 73.7508 639.604 65.73 Q634.257 57.6687 634.257 42.3968 Q634.257 27.0843 639.604 19.0636 Q644.992 11.0023 655.16 11.0023 Z" fill="#000000" fill-rule="nonzero" fill-opacity="1" /><path clip-path="url(#clip560)" d="M707.943 17.4837 Q701.624 17.4837 698.424 23.7221 Q695.264 29.92 695.264 42.3968 Q695.264 54.833 698.424 61.0714 Q701.624 67.2693 707.943 67.2693 Q714.303 67.2693 717.463 61.0714 Q720.663 54.833 720.663 42.3968 Q720.663 29.92 717.463 23.7221 Q714.303 17.4837 707.943 17.4837 M707.943 11.0023 Q718.111 11.0023 723.458 19.0636 Q728.846 27.0843 728.846 42.3968 Q728.846 57.6687 723.458 65.73 Q718.111 73.7508 707.943 73.7508 Q697.775 73.7508 692.388 65.73 Q687.041 57.6687 687.041 42.3968 Q687.041 27.0843 692.388 19.0636 Q697.775 11.0023 707.943 11.0023 Z" fill="#000000" fill-rule="nonzero" fill-opacity="1" /><path clip-path="url(#clip560)" d="M805.124 14.0809 L805.124 22.0612 Q800.466 19.8332 796.334 18.7395 Q792.202 17.6457 788.354 17.6457 Q781.67 17.6457 778.024 20.2383 Q774.419 22.8309 774.419 27.611 Q774.419 31.6214 776.809 33.6873 Q779.239 35.7128 785.964 36.9686 L790.906 37.9813 Q800.061 39.7232 804.395 44.1387 Q808.77 48.5136 808.77 55.8863 Q808.77 64.6767 802.856 69.2137 Q796.982 73.7508 785.599 73.7508 Q781.305 73.7508 776.444 72.7785 Q771.623 71.8063 766.438 69.9024 L766.438 61.4765 Q771.421 64.2716 776.201 65.6895 Q780.981 67.1073 785.599 67.1073 Q792.607 67.1073 796.415 64.3527 Q800.223 61.598 800.223 56.4939 Q800.223 52.0379 797.468 49.5264 Q794.754 47.0148 788.516 45.759 L783.533 44.7868 Q774.378 42.9639 770.287 39.075 Q766.195 35.1862 766.195 28.2591 Q766.195 20.2383 771.826 15.6203 Q777.497 11.0023 787.422 11.0023 Q791.675 11.0023 796.091 11.7719 Q800.506 12.5416 805.124 14.0809 Z" fill="#000000" fill-rule="nonzero" fill-opacity="1" /><path clip-path="url(#clip560)" d="M841.826 49.7694 Q832.792 49.7694 829.308 51.8354 Q825.825 53.9013 825.825 58.8839 Q825.825 62.8538 828.417 65.2034 Q831.05 67.5124 835.547 67.5124 Q841.745 67.5124 845.471 63.1374 Q849.239 58.7219 849.239 51.4303 L849.239 49.7694 L841.826 49.7694 M856.692 46.6907 L856.692 72.576 L849.239 72.576 L849.239 65.6895 Q846.687 69.8214 842.879 71.8063 Q839.071 73.7508 833.562 73.7508 Q826.594 73.7508 822.462 69.8619 Q818.371 65.9325 818.371 59.3701 Q818.371 51.7138 823.475 47.825 Q828.62 43.9361 838.787 43.9361 L849.239 43.9361 L849.239 43.2069 Q849.239 38.0623 845.836 35.2672 Q842.474 32.4315 836.357 32.4315 Q832.468 32.4315 828.782 33.3632 Q825.095 34.295 821.693 36.1584 L821.693 29.2718 Q825.784 27.692 829.632 26.9223 Q833.481 26.1121 837.127 26.1121 Q846.97 26.1121 851.831 31.2163 Q856.692 36.3204 856.692 46.6907 Z" fill="#000000" fill-rule="nonzero" fill-opacity="1" /><path clip-path="url(#clip560)" d="M907.369 35.9153 Q910.164 30.8922 914.053 28.5022 Q917.942 26.1121 923.208 26.1121 Q930.297 26.1121 934.146 31.0947 Q937.994 36.0368 937.994 45.1919 L937.994 72.576 L930.5 72.576 L930.5 45.4349 Q930.5 38.913 928.191 35.7533 Q925.882 32.5936 921.142 32.5936 Q915.35 32.5936 911.987 36.4419 Q908.625 40.2903 908.625 46.9338 L908.625 72.576 L901.131 72.576 L901.131 45.4349 Q901.131 38.8725 898.822 35.7533 Q896.513 32.5936 891.692 32.5936 Q885.98 32.5936 882.618 36.4824 Q879.256 40.3308 879.256 46.9338 L879.256 72.576 L871.762 72.576 L871.762 27.2059 L879.256 27.2059 L879.256 34.2544 Q881.808 30.082 885.373 28.0971 Q888.938 26.1121 893.839 26.1121 Q898.781 26.1121 902.225 28.6237 Q905.708 31.1352 907.369 35.9153 Z" fill="#000000" fill-rule="nonzero" fill-opacity="1" /><path clip-path="url(#clip560)" d="M960.072 65.7705 L960.072 89.8329 L952.577 89.8329 L952.577 27.2059 L960.072 27.2059 L960.072 34.0924 Q962.421 30.0415 965.986 28.0971 Q969.591 26.1121 974.574 26.1121 Q982.838 26.1121 987.982 32.6746 Q993.167 39.2371 993.167 49.9314 Q993.167 60.6258 987.982 67.1883 Q982.838 73.7508 974.574 73.7508 Q969.591 73.7508 965.986 71.8063 Q962.421 69.8214 960.072 65.7705 M985.43 49.9314 Q985.43 41.7081 982.027 37.0496 Q978.665 32.3505 972.751 32.3505 Q966.837 32.3505 963.434 37.0496 Q960.072 41.7081 960.072 49.9314 Q960.072 58.1548 963.434 62.8538 Q966.837 67.5124 972.751 67.5124 Q978.665 67.5124 982.027 62.8538 Q985.43 58.1548 985.43 49.9314 Z" fill="#000000" fill-rule="nonzero" fill-opacity="1" /><path clip-path="url(#clip560)" d="M1005.52 9.54393 L1012.98 9.54393 L1012.98 72.576 L1005.52 72.576 L1005.52 9.54393 Z" fill="#000000" fill-rule="nonzero" fill-opacity="1" /><path clip-path="url(#clip560)" d="M1067.38 48.0275 L1067.38 51.6733 L1033.11 51.6733 Q1033.6 59.3701 1037.73 63.421 Q1041.9 67.4314 1049.31 67.4314 Q1053.61 67.4314 1057.62 66.3781 Q1061.67 65.3249 1065.64 63.2184 L1065.64 70.267 Q1061.63 71.9684 1057.41 72.8596 Q1053.2 73.7508 1048.87 73.7508 Q1038.01 73.7508 1031.65 67.4314 Q1025.33 61.1119 1025.33 50.3365 Q1025.33 39.1965 1031.33 32.6746 Q1037.36 26.1121 1047.57 26.1121 Q1056.73 26.1121 1062.03 32.0264 Q1067.38 37.9003 1067.38 48.0275 M1059.93 45.84 Q1059.85 39.7232 1056.48 36.0774 Q1053.16 32.4315 1047.65 32.4315 Q1041.41 32.4315 1037.65 35.9558 Q1033.92 39.4801 1033.35 45.8805 L1059.93 45.84 Z" fill="#000000" fill-rule="nonzero" fill-opacity="1" /><path clip-path="url(#clip560)" d="M1106.31 12.096 L1118.5 12.096 L1133.94 53.2532 L1149.45 12.096 L1161.64 12.096 L1161.64 72.576 L1153.66 72.576 L1153.66 19.4686 L1138.07 60.9499 L1129.84 60.9499 L1114.25 19.4686 L1114.25 72.576 L1106.31 72.576 L1106.31 12.096 Z" fill="#000000" fill-rule="nonzero" fill-opacity="1" /><path clip-path="url(#clip560)" d="M1216.37 48.0275 L1216.37 51.6733 L1182.1 51.6733 Q1182.59 59.3701 1186.72 63.421 Q1190.89 67.4314 1198.31 67.4314 Q1202.6 67.4314 1206.61 66.3781 Q1210.66 65.3249 1214.63 63.2184 L1214.63 70.267 Q1210.62 71.9684 1206.41 72.8596 Q1202.19 73.7508 1197.86 73.7508 Q1187 73.7508 1180.64 67.4314 Q1174.32 61.1119 1174.32 50.3365 Q1174.32 39.1965 1180.32 32.6746 Q1186.36 26.1121 1196.56 26.1121 Q1205.72 26.1121 1211.03 32.0264 Q1216.37 37.9003 1216.37 48.0275 M1208.92 45.84 Q1208.84 39.7232 1205.48 36.0774 Q1202.15 32.4315 1196.64 32.4315 Q1190.41 32.4315 1186.64 35.9558 Q1182.91 39.4801 1182.34 45.8805 L1208.92 45.84 Z" fill="#000000" fill-rule="nonzero" fill-opacity="1" /><path clip-path="url(#clip560)" d="M1249.23 49.7694 Q1240.19 49.7694 1236.71 51.8354 Q1233.22 53.9013 1233.22 58.8839 Q1233.22 62.8538 1235.82 65.2034 Q1238.45 67.5124 1242.95 67.5124 Q1249.14 67.5124 1252.87 63.1374 Q1256.64 58.7219 1256.64 51.4303 L1256.64 49.7694 L1249.23 49.7694 M1264.09 46.6907 L1264.09 72.576 L1256.64 72.576 L1256.64 65.6895 Q1254.09 69.8214 1250.28 71.8063 Q1246.47 73.7508 1240.96 73.7508 Q1233.99 73.7508 1229.86 69.8619 Q1225.77 65.9325 1225.77 59.3701 Q1225.77 51.7138 1230.87 47.825 Q1236.02 43.9361 1246.19 43.9361 L1256.64 43.9361 L1256.64 43.2069 Q1256.64 38.0623 1253.24 35.2672 Q1249.87 32.4315 1243.76 32.4315 Q1239.87 32.4315 1236.18 33.3632 Q1232.49 34.295 1229.09 36.1584 L1229.09 29.2718 Q1233.18 27.692 1237.03 26.9223 Q1240.88 26.1121 1244.53 26.1121 Q1254.37 26.1121 1259.23 31.2163 Q1264.09 36.3204 1264.09 46.6907 Z" fill="#000000" fill-rule="nonzero" fill-opacity="1" /><path clip-path="url(#clip560)" d="M1317.16 45.1919 L1317.16 72.576 L1309.71 72.576 L1309.71 45.4349 Q1309.71 38.994 1307.19 35.7938 Q1304.68 32.5936 1299.66 32.5936 Q1293.62 32.5936 1290.14 36.4419 Q1286.66 40.2903 1286.66 46.9338 L1286.66 72.576 L1279.16 72.576 L1279.16 27.2059 L1286.66 27.2059 L1286.66 34.2544 Q1289.33 30.163 1292.93 28.1376 Q1296.58 26.1121 1301.32 26.1121 Q1309.14 26.1121 1313.15 30.9732 Q1317.16 35.7938 1317.16 45.1919 Z" fill="#000000" fill-rule="nonzero" fill-opacity="1" /><path clip-path="url(#clip560)" d="M1379.02 49.7694 Q1369.98 49.7694 1366.5 51.8354 Q1363.01 53.9013 1363.01 58.8839 Q1363.01 62.8538 1365.61 65.2034 Q1368.24 67.5124 1372.74 67.5124 Q1378.94 67.5124 1382.66 63.1374 Q1386.43 58.7219 1386.43 51.4303 L1386.43 49.7694 L1379.02 49.7694 M1393.88 46.6907 L1393.88 72.576 L1386.43 72.576 L1386.43 65.6895 Q1383.88 69.8214 1380.07 71.8063 Q1376.26 73.7508 1370.75 73.7508 Q1363.78 73.7508 1359.65 69.8619 Q1355.56 65.9325 1355.56 59.3701 Q1355.56 51.7138 1360.67 47.825 Q1365.81 43.9361 1375.98 43.9361 L1386.43 43.9361 L1386.43 43.2069 Q1386.43 38.0623 1383.03 35.2672 Q1379.66 32.4315 1373.55 32.4315 Q1369.66 32.4315 1365.97 33.3632 Q1362.29 34.295 1358.88 36.1584 L1358.88 29.2718 Q1362.97 27.692 1366.82 26.9223 Q1370.67 26.1121 1374.32 26.1121 Q1384.16 26.1121 1389.02 31.2163 Q1393.88 36.3204 1393.88 46.6907 Z" fill="#000000" fill-rule="nonzero" fill-opacity="1" /><path clip-path="url(#clip560)" d="M1446.95 45.1919 L1446.95 72.576 L1439.5 72.576 L1439.5 45.4349 Q1439.5 38.994 1436.98 35.7938 Q1434.47 32.5936 1429.45 32.5936 Q1423.41 32.5936 1419.93 36.4419 Q1416.45 40.2903 1416.45 46.9338 L1416.45 72.576 L1408.95 72.576 L1408.95 27.2059 L1416.45 27.2059 L1416.45 34.2544 Q1419.12 30.163 1422.73 28.1376 Q1426.37 26.1121 1431.11 26.1121 Q1438.93 26.1121 1442.94 30.9732 Q1446.95 35.7938 1446.95 45.1919 Z" fill="#000000" fill-rule="nonzero" fill-opacity="1" /><path clip-path="url(#clip560)" d="M1491.67 34.0924 L1491.67 9.54393 L1499.13 9.54393 L1499.13 72.576 L1491.67 72.576 L1491.67 65.7705 Q1489.32 69.8214 1485.72 71.8063 Q1482.15 73.7508 1477.13 73.7508 Q1468.91 73.7508 1463.72 67.1883 Q1458.58 60.6258 1458.58 49.9314 Q1458.58 39.2371 1463.72 32.6746 Q1468.91 26.1121 1477.13 26.1121 Q1482.15 26.1121 1485.72 28.0971 Q1489.32 30.0415 1491.67 34.0924 M1466.27 49.9314 Q1466.27 58.1548 1469.63 62.8538 Q1473.04 67.5124 1478.95 67.5124 Q1484.87 67.5124 1488.27 62.8538 Q1491.67 58.1548 1491.67 49.9314 Q1491.67 41.7081 1488.27 37.0496 Q1484.87 32.3505 1478.95 32.3505 Q1473.04 32.3505 1469.63 37.0496 Q1466.27 41.7081 1466.27 49.9314 Z" fill="#000000" fill-rule="nonzero" fill-opacity="1" /><path clip-path="url(#clip560)" d="M1577.43 14.0809 L1577.43 22.0612 Q1572.77 19.8332 1568.64 18.7395 Q1564.51 17.6457 1560.66 17.6457 Q1553.97 17.6457 1550.33 20.2383 Q1546.72 22.8309 1546.72 27.611 Q1546.72 31.6214 1549.11 33.6873 Q1551.54 35.7128 1558.27 36.9686 L1563.21 37.9813 Q1572.37 39.7232 1576.7 44.1387 Q1581.08 48.5136 1581.08 55.8863 Q1581.08 64.6767 1575.16 69.2137 Q1569.29 73.7508 1557.9 73.7508 Q1553.61 73.7508 1548.75 72.7785 Q1543.93 71.8063 1538.74 69.9024 L1538.74 61.4765 Q1543.73 64.2716 1548.51 65.6895 Q1553.29 67.1073 1557.9 67.1073 Q1564.91 67.1073 1568.72 64.3527 Q1572.53 61.598 1572.53 56.4939 Q1572.53 52.0379 1569.77 49.5264 Q1567.06 47.0148 1560.82 45.759 L1555.84 44.7868 Q1546.68 42.9639 1542.59 39.075 Q1538.5 35.1862 1538.5 28.2591 Q1538.5 20.2383 1544.13 15.6203 Q1549.8 11.0023 1559.73 11.0023 Q1563.98 11.0023 1568.4 11.7719 Q1572.81 12.5416 1577.43 14.0809 Z" fill="#000000" fill-rule="nonzero" fill-opacity="1" /><path clip-path="url(#clip560)" d="M1600.88 14.324 L1600.88 27.2059 L1616.24 27.2059 L1616.24 32.9987 L1600.88 32.9987 L1600.88 57.6282 Q1600.88 63.1779 1602.38 64.7578 Q1603.92 66.3376 1608.58 66.3376 L1616.24 66.3376 L1616.24 72.576 L1608.58 72.576 Q1599.95 72.576 1596.67 69.3758 Q1593.39 66.1351 1593.39 57.6282 L1593.39 32.9987 L1587.92 32.9987 L1587.92 27.2059 L1593.39 27.2059 L1593.39 14.324 L1600.88 14.324 Z" fill="#000000" fill-rule="nonzero" fill-opacity="1" /><path clip-path="url(#clip560)" d="M1655.9 34.0924 L1655.9 9.54393 L1663.35 9.54393 L1663.35 72.576 L1655.9 72.576 L1655.9 65.7705 Q1653.55 69.8214 1649.94 71.8063 Q1646.38 73.7508 1641.35 73.7508 Q1633.13 73.7508 1627.94 67.1883 Q1622.8 60.6258 1622.8 49.9314 Q1622.8 39.2371 1627.94 32.6746 Q1633.13 26.1121 1641.35 26.1121 Q1646.38 26.1121 1649.94 28.0971 Q1653.55 30.0415 1655.9 34.0924 M1630.5 49.9314 Q1630.5 58.1548 1633.86 62.8538 Q1637.26 67.5124 1643.18 67.5124 Q1649.09 67.5124 1652.49 62.8538 Q1655.9 58.1548 1655.9 49.9314 Q1655.9 41.7081 1652.49 37.0496 Q1649.09 32.3505 1643.18 32.3505 Q1637.26 32.3505 1633.86 37.0496 Q1630.5 41.7081 1630.5 49.9314 Z" fill="#000000" fill-rule="nonzero" fill-opacity="1" /><path clip-path="url(#clip560)" d="M1679.76 62.2867 L1688.3 62.2867 L1688.3 72.576 L1679.76 72.576 L1679.76 62.2867 Z" fill="#000000" fill-rule="nonzero" fill-opacity="1" /><path clip-path="url(#clip560)" d="M1706.98 62.2867 L1715.52 62.2867 L1715.52 69.2543 L1708.88 82.2172 L1703.66 82.2172 L1706.98 69.2543 L1706.98 62.2867 Z" fill="#000000" fill-rule="nonzero" fill-opacity="1" /><path clip-path="url(#clip560)" d="M1790.67 20.0358 Q1786.54 17.2001 1776.86 17.2001 Q1766.61 17.2001 1766.61 21.9397 Q1766.61 25.6665 1777.3 27.611 Q1785.73 29.1098 1790.47 33.6468 Q1796.22 39.1155 1796.22 50.3365 Q1796.22 61.0714 1790.67 67.3908 Q1785.12 73.7508 1775.4 73.7508 Q1765.72 73.7508 1760.13 67.3908 Q1754.58 61.0714 1754.58 49.9314 Q1754.58 41.6676 1760.13 34.9836 Q1762.27 32.391 1765.31 30.9327 Q1758.99 27.7325 1758.99 22.0207 Q1758.99 11.0023 1776.86 11.0023 Q1785.81 11.0023 1790.67 13.8379 L1790.67 20.0358 M1770.9 32.9582 Q1768.15 34.1329 1765.92 37.0901 Q1762.43 41.6676 1762.43 49.9314 Q1762.43 58.1548 1765.88 62.7728 Q1769.36 67.4314 1775.4 67.4314 Q1781.35 67.4314 1784.84 62.7323 Q1788.32 58.0333 1788.32 50.3365 Q1788.32 42.2752 1784.63 38.3864 Q1780.7 34.2139 1775.6 33.7683 Q1773.01 33.5253 1770.9 32.9582 Z" fill="#000000" fill-rule="nonzero" fill-opacity="1" /><path clip-path="url(#clip560)" d="M1846.29 27.2059 L1829.88 49.2833 L1847.14 72.576 L1838.35 72.576 L1825.14 54.752 L1811.94 72.576 L1803.15 72.576 L1820.77 48.8377 L1804.64 27.2059 L1813.43 27.2059 L1825.47 43.369 L1837.5 27.2059 L1846.29 27.2059 Z" fill="#000000" fill-rule="nonzero" fill-opacity="1" /><path clip-path="url(#clip560)" d="M1858.64 34.9026 L1910.58 34.9026 L1910.58 41.7081 L1858.64 41.7081 L1858.64 34.9026 M1858.64 51.4303 L1910.58 51.4303 L1910.58 58.3168 L1858.64 58.3168 L1858.64 51.4303 Z" fill="#000000" fill-rule="nonzero" fill-opacity="1" /><path clip-path="url(#clip560)" d="M1945.74 17.4837 Q1939.42 17.4837 1936.22 23.7221 Q1933.06 29.92 1933.06 42.3968 Q1933.06 54.833 1936.22 61.0714 Q1939.42 67.2693 1945.74 67.2693 Q1952.1 67.2693 1955.26 61.0714 Q1958.46 54.833 1958.46 42.3968 Q1958.46 29.92 1955.26 23.7221 Q1952.1 17.4837 1945.74 17.4837 M1945.74 11.0023 Q1955.91 11.0023 1961.25 19.0636 Q1966.64 27.0843 1966.64 42.3968 Q1966.64 57.6687 1961.25 65.73 Q1955.91 73.7508 1945.74 73.7508 Q1935.57 73.7508 1930.18 65.73 Q1924.83 57.6687 1924.83 42.3968 Q1924.83 27.0843 1930.18 19.0636 Q1935.57 11.0023 1945.74 11.0023 Z" fill="#000000" fill-rule="nonzero" fill-opacity="1" /><path clip-path="url(#clip560)" d="M1981.02 62.2867 L1989.57 62.2867 L1989.57 72.576 L1981.02 72.576 L1981.02 62.2867 Z" fill="#000000" fill-rule="nonzero" fill-opacity="1" /><path clip-path="url(#clip560)" d="M2014.44 65.6895 L2043 65.6895 L2043 72.576 L2004.6 72.576 L2004.6 65.6895 Q2009.26 60.8689 2017.28 52.7671 Q2025.34 44.6248 2027.4 42.2752 Q2031.33 37.8598 2032.87 34.8216 Q2034.45 31.7429 2034.45 28.7857 Q2034.45 23.9651 2031.05 20.927 Q2027.69 17.8888 2022.26 17.8888 Q2018.41 17.8888 2014.12 19.2256 Q2009.86 20.5624 2005 23.2765 L2005 15.0127 Q2009.94 13.0277 2014.24 12.015 Q2018.53 11.0023 2022.1 11.0023 Q2031.5 11.0023 2037.09 15.7013 Q2042.68 20.4004 2042.68 28.2591 Q2042.68 31.9859 2041.26 35.3482 Q2039.88 38.6699 2036.19 43.2069 Q2035.18 44.3817 2029.75 50.0125 Q2024.33 55.6027 2014.44 65.6895 Z" fill="#000000" fill-rule="nonzero" fill-opacity="1" /><path clip-path="url(#clip562)" d="M280.231 1344.07 L300.556 1355.99 L320.881 1367.09 L341.206 1376.58 L361.53 1368.72 L381.855 1348.67 L402.18 1366.82 L422.505 1355.04 L442.83 1344.34 L463.155 1336.75 L483.48 1322.4 L503.804 1322.06 L524.129 1308.38 L544.454 1316.17 L564.779 1325.31 L585.104 1341.09 L605.429 1346.57 L625.753 1355.85 L646.078 1374.81 L666.403 1372.11 L686.728 1377.25 L707.053 1362.9 L727.378 1365.88 L747.703 1364.39 L768.027 1354.36 L788.352 1343.32 L808.677 1336.42 L829.002 1319.76 L849.327 1327.34 L869.652 1318.81 L889.977 1312.51 L910.301 1324.56 L930.626 1340.61 L950.951 1360.46 L971.276 1370.82 L991.601 1375.76 L1011.93 1377.12 L1032.25 1371.5 L1052.58 1371.84 L1072.9 1360.86 L1093.23 1362.15 L1113.55 1342.38 L1133.87 1342.65 L1154.2 1323.82 L1174.52 1330.46 L1194.85 1322.87 L1215.17 1315.83 L1235.5 1319.15 L1255.82 1335.47 L1276.15 1375.7 L1296.47 1356.39 L1316.8 1353.14 L1337.12 1369.8 L1357.45 1386.4 L1377.77 1365.47 L1398.1 1364.25 L1418.42 1370.75 L1438.75 1361.81 L1459.07 1355.99 L1479.4 1325.85 L1499.72 1316.37 L1520.05 1323.01 L1540.37 1321.92 L1560.7 1328.69 L1581.02 1342.38 L1601.35 1350.1 L1621.67 1351.72 L1642 1371.43 L1662.32 1362.96 L1682.65 1372.92 L1702.97 1365.2 L1723.3 1372.04 L1743.62 1370.41 L1763.95 1339.94 L1784.27 1344.88 L1804.59 1342.31 L1824.92 1331.47 L1845.24 1321.31 L1865.57 1308.99 L1885.89 1326.05 L1906.22 1327.95 L1926.54 1324.43 L1946.87 1341.02 L1967.19 1345.63 L1987.52 1366.69 L2007.84 1377.12 L2028.17 1370.07 L2048.49 1368.86 L2068.82 1355.24 L2089.14 1365.33 L2109.47 1337.7 L2129.79 1358.56 L2150.12 1336.75 L2170.44 1325.51 L2190.77 1325.04 L2211.09 1319.21 L2231.42 1337.63 L2251.74 1325.17 L2272.07 1344.47 L2292.39 1354.23 L2292.39 206.105 L2272.07 196.353 L2251.74 177.052 L2231.42 189.513 L2211.09 171.092 L2190.77 176.916 L2170.44 177.39 L2150.12 188.633 L2129.79 210.44 L2109.47 189.581 L2089.14 217.212 L2068.82 207.121 L2048.49 220.734 L2028.17 221.953 L2007.84 228.996 L1987.52 218.567 L1967.19 197.504 L1946.87 192.899 L1926.54 176.307 L1906.22 179.829 L1885.89 177.932 L1865.57 160.866 L1845.24 173.192 L1824.92 183.35 L1804.59 194.186 L1784.27 196.759 L1763.95 191.816 L1743.62 222.291 L1723.3 223.917 L1702.97 217.077 L1682.65 224.797 L1662.32 214.842 L1642 223.307 L1621.67 203.6 L1601.35 201.974 L1581.02 194.254 L1560.7 180.573 L1540.37 173.801 L1520.05 174.885 L1499.72 168.248 L1479.4 177.729 L1459.07 207.866 L1438.75 213.69 L1418.42 222.63 L1398.1 216.129 L1377.77 217.348 L1357.45 238.274 L1337.12 221.682 L1316.8 205.022 L1296.47 208.273 L1276.15 227.574 L1255.82 187.346 L1235.5 171.024 L1215.17 167.706 L1194.85 174.749 L1174.52 182.334 L1154.2 175.697 L1133.87 194.525 L1113.55 194.254 L1093.23 214.029 L1072.9 212.742 L1052.58 223.714 L1032.25 223.375 L1011.93 228.996 L991.601 227.642 L971.276 222.698 L950.951 212.336 L930.626 192.493 L910.301 176.442 L889.977 164.387 L869.652 170.686 L849.327 179.219 L829.002 171.634 L808.677 188.294 L788.352 195.202 L768.027 206.241 L747.703 216.264 L727.378 217.754 L707.053 214.774 L686.728 229.132 L666.403 223.985 L646.078 226.693 L625.753 207.731 L605.429 198.453 L585.104 192.967 L564.779 177.187 L544.454 168.045 L524.129 160.256 L503.804 173.937 L483.48 174.275 L463.155 188.633 L442.83 196.218 L422.505 206.918 L402.18 218.702 L381.855 200.552 L361.53 220.598 L341.206 228.454 L320.881 218.973 L300.556 207.866 L280.231 195.947  Z" fill="#009af9" fill-rule="evenodd" fill-opacity="0.5"/>
<polyline clip-path="url(#clip562)" style="stroke:#009af9; stroke-linecap:round; stroke-linejoin:round; stroke-width:8; stroke-opacity:0.8; fill:none" points="280.231,770.008 300.556,781.927 320.881,793.034 341.206,802.515 361.53,794.659 381.855,774.613 402.18,792.763 422.505,780.979 442.83,770.278 463.155,762.693 483.48,748.336 503.804,747.997 524.129,734.317 544.454,742.105 564.779,751.248 585.104,767.028 605.429,772.513 625.753,781.791 646.078,800.754 666.403,798.045 686.728,803.192 707.053,788.835 727.378,791.815 747.703,790.325 768.027,780.302 788.352,769.263 808.677,762.355 829.002,745.695 849.327,753.28 869.652,744.746 889.977,738.448 910.301,750.503 930.626,766.554 950.951,786.397 971.276,796.758 991.601,801.702 1011.93,803.057 1032.25,797.436 1052.58,797.774 1072.9,786.803 1093.23,788.09 1113.55,768.314 1133.87,768.585 1154.2,749.758 1174.52,756.395 1194.85,748.81 1215.17,741.767 1235.5,745.085 1255.82,761.407 1276.15,801.635 1296.47,782.333 1316.8,779.083 1337.12,795.743 1357.45,812.335 1377.77,791.408 1398.1,790.189 1418.42,796.691 1438.75,787.751 1459.07,781.927 1479.4,751.79 1499.72,742.308 1520.05,748.945 1540.37,747.862 1560.7,754.634 1581.02,768.314 1601.35,776.035 1621.67,777.66 1642,797.368 1662.32,788.902 1682.65,798.858 1702.97,791.137 1723.3,797.977 1743.62,796.352 1763.95,765.876 1784.27,770.82 1804.59,768.247 1824.92,757.411 1845.24,747.252 1865.57,734.927 1885.89,751.993 1906.22,753.889 1926.54,750.368 1946.87,766.96 1967.19,771.565 1987.52,792.627 2007.84,803.057 2028.17,796.013 2048.49,794.794 2068.82,781.182 2089.14,791.273 2109.47,763.641 2129.79,784.5 2150.12,762.693 2170.44,751.451 2190.77,750.977 2211.09,745.153 2231.42,763.574 2251.74,751.113 2272.07,770.414 2292.39,780.166 "/>
<path clip-path="url(#clip562)" d="M280.231 1019.25 L300.556 1018.96 L320.881 1018.63 L341.206 1018.13 L361.53 1017.54 L381.855 1017.15 L402.18 1017.12 L422.505 1017.4 L442.83 1017.78 L463.155 1018.08 L483.48 1018.38 L503.804 1018.84 L524.129 1019.43 L544.454 1019.89 L564.779 1020.02 L585.104 1019.8 L605.429 1019.42 L625.753 1019.1 L646.078 1018.82 L666.403 1018.4 L686.728 1017.83 L707.053 1017.31 L727.378 1017.08 L747.703 1017.23 L768.027 1017.59 L788.352 1017.94 L808.677 1018.21 L829.002 1018.58 L849.327 1019.13 L869.652 1019.69 L889.977 1020 L910.301 1019.94 L930.626 1019.61 L950.951 1019.25 L971.276 1018.96 L991.601 1018.63 L1011.93 1018.13 L1032.25 1017.54 L1052.58 1017.15 L1072.9 1017.12 L1093.23 1017.4 L1113.55 1017.78 L1133.87 1018.08 L1154.2 1018.38 L1174.52 1018.84 L1194.85 1019.43 L1215.17 1019.89 L1235.5 1020.02 L1255.82 1019.8 L1276.15 1019.42 L1296.47 1019.1 L1316.8 1018.82 L1337.12 1018.4 L1357.45 1017.83 L1377.77 1017.31 L1398.1 1017.08 L1418.42 1017.23 L1438.75 1017.59 L1459.07 1017.94 L1479.4 1018.21 L1499.72 1018.58 L1520.05 1019.13 L1540.37 1019.69 L1560.7 1020 L1581.02 1019.94 L1601.35 1019.61 L1621.67 1019.25 L1642 1018.96 L1662.32 1018.63 L1682.65 1018.13 L1702.97 1017.54 L1723.3 1017.15 L1743.62 1017.12 L1763.95 1017.4 L1784.27 1017.78 L1804.59 1018.08 L1824.92 1018.38 L1845.24 1018.84 L1865.57 1019.43 L1885.89 1019.89 L1906.22 1020.02 L1926.54 1019.8 L1946.87 1019.42 L1967.19 1019.1 L1987.52 1018.82 L2007.84 1018.4 L2028.17 1017.83 L2048.49 1017.31 L2068.82 1017.08 L2089.14 1017.23 L2109.47 1017.59 L2129.79 1017.94 L2150.12 1018.21 L2170.44 1018.58 L2190.77 1019.13 L2211.09 1019.69 L2231.42 1020 L2251.74 1019.94 L2272.07 1019.61 L2292.39 1019.25 L2292.39 476.83 L2272.07 477.193 L2251.74 477.523 L2231.42 477.585 L2211.09 477.271 L2190.77 476.711 L2170.44 476.165 L2150.12 475.795 L2129.79 475.516 L2109.47 475.173 L2089.14 474.813 L2068.82 474.665 L2048.49 474.888 L2028.17 475.409 L2007.84 475.982 L1987.52 476.398 L1967.19 476.682 L1946.87 477.003 L1926.54 477.377 L1906.22 477.6 L1885.89 477.472 L1865.57 477.007 L1845.24 476.421 L1824.92 475.958 L1804.59 475.656 L1784.27 475.356 L1763.95 474.982 L1743.62 474.698 L1723.3 474.729 L1702.97 475.125 L1682.65 475.706 L1662.32 476.214 L1642 476.545 L1621.67 476.83 L1601.35 477.193 L1581.02 477.523 L1560.7 477.585 L1540.37 477.271 L1520.05 476.711 L1499.72 476.165 L1479.4 475.795 L1459.07 475.516 L1438.75 475.173 L1418.42 474.813 L1398.1 474.665 L1377.77 474.888 L1357.45 475.409 L1337.12 475.982 L1316.8 476.398 L1296.47 476.682 L1276.15 477.003 L1255.82 477.377 L1235.5 477.6 L1215.17 477.472 L1194.85 477.007 L1174.52 476.421 L1154.2 475.958 L1133.87 475.656 L1113.55 475.356 L1093.23 474.982 L1072.9 474.698 L1052.58 474.729 L1032.25 475.125 L1011.93 475.706 L991.601 476.214 L971.276 476.545 L950.951 476.83 L930.626 477.193 L910.301 477.523 L889.977 477.585 L869.652 477.271 L849.327 476.711 L829.002 476.165 L808.677 475.795 L788.352 475.516 L768.027 475.173 L747.703 474.813 L727.378 474.665 L707.053 474.888 L686.728 475.409 L666.403 475.982 L646.078 476.398 L625.753 476.682 L605.429 477.003 L585.104 477.377 L564.779 477.6 L544.454 477.472 L524.129 477.007 L503.804 476.421 L483.48 475.958 L463.155 475.656 L442.83 475.356 L422.505 474.982 L402.18 474.698 L381.855 474.729 L361.53 475.125 L341.206 475.706 L320.881 476.214 L300.556 476.545 L280.231 476.83  Z" fill="#e26f46" fill-rule="evenodd" fill-opacity="0.5"/>
<polyline clip-path="url(#clip562)" style="stroke:#e26f46; stroke-linecap:round; stroke-linejoin:round; stroke-width:8; stroke-opacity:0.8; fill:none" points="280.231,748.04 300.556,747.755 320.881,747.424 341.206,746.916 361.53,746.334 381.855,745.939 402.18,745.907 422.505,746.192 442.83,746.566 463.155,746.866 483.48,747.167 503.804,747.63 524.129,748.216 544.454,748.682 564.779,748.809 585.104,748.586 605.429,748.212 625.753,747.891 646.078,747.607 666.403,747.192 686.728,746.619 707.053,746.098 727.378,745.875 747.703,746.022 768.027,746.383 788.352,746.726 808.677,747.004 829.002,747.375 849.327,747.921 869.652,748.481 889.977,748.795 910.301,748.733 930.626,748.402 950.951,748.04 971.276,747.755 991.601,747.424 1011.93,746.916 1032.25,746.334 1052.58,745.939 1072.9,745.907 1093.23,746.192 1113.55,746.566 1133.87,746.866 1154.2,747.167 1174.52,747.63 1194.85,748.216 1215.17,748.682 1235.5,748.809 1255.82,748.586 1276.15,748.212 1296.47,747.891 1316.8,747.607 1337.12,747.192 1357.45,746.619 1377.77,746.098 1398.1,745.875 1418.42,746.022 1438.75,746.383 1459.07,746.726 1479.4,747.004 1499.72,747.375 1520.05,747.921 1540.37,748.481 1560.7,748.795 1581.02,748.733 1601.35,748.402 1621.67,748.04 1642,747.755 1662.32,747.424 1682.65,746.916 1702.97,746.334 1723.3,745.939 1743.62,745.907 1763.95,746.192 1784.27,746.566 1804.59,746.866 1824.92,747.167 1845.24,747.63 1865.57,748.216 1885.89,748.682 1906.22,748.809 1926.54,748.586 1946.87,748.212 1967.19,747.891 1987.52,747.607 2007.84,747.192 2028.17,746.619 2048.49,746.098 2068.82,745.875 2089.14,746.022 2109.47,746.383 2129.79,746.726 2150.12,747.004 2170.44,747.375 2190.77,747.921 2211.09,748.481 2231.42,748.795 2251.74,748.733 2272.07,748.402 2292.39,748.04 "/>
<path clip-path="url(#clip560)" d="M1565.06 322.316 L2281.66 322.316 L2281.66 166.796 L1565.06 166.796  Z" fill="#ffffff" fill-rule="evenodd" fill-opacity="1"/>
<polyline clip-path="url(#clip560)" style="stroke:#000000; stroke-linecap:round; stroke-linejoin:round; stroke-width:4; stroke-opacity:1; fill:none" points="1565.06,322.316 2281.66,322.316 2281.66,166.796 1565.06,166.796 1565.06,322.316 "/>
<polyline clip-path="url(#clip560)" style="stroke:#009af9; stroke-linecap:round; stroke-linejoin:round; stroke-width:8; stroke-opacity:0.8; fill:none" points="1588.76,218.636 1730.95,218.636 "/>
<path clip-path="url(#clip560)" d="M1754.65 201.356 L1761.62 201.356 L1770.44 224.874 L1779.31 201.356 L1786.27 201.356 L1786.27 235.916 L1781.71 235.916 L1781.71 205.569 L1772.8 229.272 L1768.1 229.272 L1759.19 205.569 L1759.19 235.916 L1754.65 235.916 L1754.65 201.356 Z" fill="#000000" fill-rule="nonzero" fill-opacity="1" /><path clip-path="url(#clip560)" d="M1800.23 205.198 L1800.23 218.184 L1806.11 218.184 Q1809.38 218.184 1811.16 216.495 Q1812.94 214.805 1812.94 211.68 Q1812.94 208.578 1811.16 206.888 Q1809.38 205.198 1806.11 205.198 L1800.23 205.198 M1795.56 201.356 L1806.11 201.356 Q1811.92 201.356 1814.88 203.995 Q1817.87 206.61 1817.87 211.68 Q1817.87 216.795 1814.88 219.411 Q1811.92 222.027 1806.11 222.027 L1800.23 222.027 L1800.23 235.916 L1795.56 235.916 L1795.56 201.356 Z" fill="#000000" fill-rule="nonzero" fill-opacity="1" /><path clip-path="url(#clip560)" d="M1844.86 202.49 L1844.86 207.05 Q1842.2 205.777 1839.84 205.152 Q1837.48 204.527 1835.28 204.527 Q1831.46 204.527 1829.38 206.008 Q1827.31 207.49 1827.31 210.221 Q1827.31 212.513 1828.68 213.694 Q1830.07 214.851 1833.91 215.569 L1836.74 216.147 Q1841.97 217.143 1844.44 219.666 Q1846.94 222.166 1846.94 226.379 Q1846.94 231.402 1843.56 233.994 Q1840.21 236.587 1833.7 236.587 Q1831.25 236.587 1828.47 236.031 Q1825.72 235.476 1822.75 234.388 L1822.75 229.573 Q1825.6 231.17 1828.33 231.981 Q1831.06 232.791 1833.7 232.791 Q1837.71 232.791 1839.88 231.217 Q1842.06 229.643 1842.06 226.726 Q1842.06 224.18 1840.49 222.744 Q1838.94 221.309 1835.37 220.592 L1832.52 220.036 Q1827.29 218.995 1824.95 216.772 Q1822.62 214.55 1822.62 210.592 Q1822.62 206.008 1825.83 203.37 Q1829.07 200.731 1834.75 200.731 Q1837.18 200.731 1839.7 201.171 Q1842.22 201.61 1844.86 202.49 Z" fill="#000000" fill-rule="nonzero" fill-opacity="1" /><path clip-path="url(#clip560)" d="M1873.98 205.198 L1873.98 232.073 L1879.63 232.073 Q1886.78 232.073 1890.09 228.832 Q1893.43 225.592 1893.43 218.601 Q1893.43 211.657 1890.09 208.439 Q1886.78 205.198 1879.63 205.198 L1873.98 205.198 M1869.31 201.356 L1878.91 201.356 Q1888.96 201.356 1893.66 205.546 Q1898.36 209.712 1898.36 218.601 Q1898.36 227.536 1893.63 231.726 Q1888.91 235.916 1878.91 235.916 L1869.31 235.916 L1869.31 201.356 Z" fill="#000000" fill-rule="nonzero" fill-opacity="1" /><path clip-path="url(#clip560)" d="M1905.62 209.99 L1909.88 209.99 L1909.88 235.916 L1905.62 235.916 L1905.62 209.99 M1905.62 199.897 L1909.88 199.897 L1909.88 205.291 L1905.62 205.291 L1905.62 199.897 Z" fill="#000000" fill-rule="nonzero" fill-opacity="1" /><path clip-path="url(#clip560)" d="M1935.32 210.754 L1935.32 214.782 Q1933.52 213.856 1931.57 213.393 Q1929.63 212.93 1927.55 212.93 Q1924.37 212.93 1922.78 213.902 Q1921.2 214.874 1921.2 216.819 Q1921.2 218.3 1922.34 219.157 Q1923.47 219.99 1926.9 220.754 L1928.36 221.078 Q1932.89 222.05 1934.79 223.832 Q1936.71 225.592 1936.71 228.763 Q1936.71 232.374 1933.84 234.481 Q1930.99 236.587 1925.99 236.587 Q1923.91 236.587 1921.64 236.17 Q1919.4 235.777 1916.9 234.967 L1916.9 230.569 Q1919.26 231.795 1921.55 232.42 Q1923.84 233.022 1926.09 233.022 Q1929.1 233.022 1930.72 232.004 Q1932.34 230.962 1932.34 229.087 Q1932.34 227.351 1931.16 226.425 Q1930 225.499 1926.04 224.643 L1924.56 224.295 Q1920.6 223.462 1918.84 221.749 Q1917.08 220.013 1917.08 217.004 Q1917.08 213.346 1919.68 211.356 Q1922.27 209.365 1927.04 209.365 Q1929.4 209.365 1931.48 209.712 Q1933.56 210.059 1935.32 210.754 Z" fill="#000000" fill-rule="nonzero" fill-opacity="1" /><path clip-path="url(#clip560)" d="M1947.71 202.629 L1947.71 209.99 L1956.48 209.99 L1956.48 213.3 L1947.71 213.3 L1947.71 227.374 Q1947.71 230.545 1948.56 231.448 Q1949.44 232.351 1952.11 232.351 L1956.48 232.351 L1956.48 235.916 L1952.11 235.916 Q1947.18 235.916 1945.3 234.087 Q1943.43 232.235 1943.43 227.374 L1943.43 213.3 L1940.3 213.3 L1940.3 209.99 L1943.43 209.99 L1943.43 202.629 L1947.71 202.629 Z" fill="#000000" fill-rule="nonzero" fill-opacity="1" /><path clip-path="url(#clip560)" d="M1977.11 213.971 Q1976.39 213.555 1975.53 213.37 Q1974.7 213.161 1973.68 213.161 Q1970.07 213.161 1968.12 215.522 Q1966.2 217.86 1966.2 222.258 L1966.2 235.916 L1961.92 235.916 L1961.92 209.99 L1966.2 209.99 L1966.2 214.018 Q1967.55 211.657 1969.7 210.522 Q1971.85 209.365 1974.93 209.365 Q1975.37 209.365 1975.9 209.434 Q1976.43 209.481 1977.08 209.596 L1977.11 213.971 Z" fill="#000000" fill-rule="nonzero" fill-opacity="1" /><path clip-path="url(#clip560)" d="M1981.57 209.99 L1985.83 209.99 L1985.83 235.916 L1981.57 235.916 L1981.57 209.99 M1981.57 199.897 L1985.83 199.897 L1985.83 205.291 L1981.57 205.291 L1981.57 199.897 Z" fill="#000000" fill-rule="nonzero" fill-opacity="1" /><path clip-path="url(#clip560)" d="M2013.36 222.976 Q2013.36 218.277 2011.41 215.615 Q2009.49 212.93 2006.11 212.93 Q2002.73 212.93 2000.79 215.615 Q1998.86 218.277 1998.86 222.976 Q1998.86 227.675 2000.79 230.36 Q2002.73 233.022 2006.11 233.022 Q2009.49 233.022 2011.41 230.36 Q2013.36 227.675 2013.36 222.976 M1998.86 213.925 Q2000.21 211.61 2002.24 210.499 Q2004.3 209.365 2007.15 209.365 Q2011.87 209.365 2014.81 213.115 Q2017.78 216.865 2017.78 222.976 Q2017.78 229.087 2014.81 232.837 Q2011.87 236.587 2007.15 236.587 Q2004.3 236.587 2002.24 235.476 Q2000.21 234.342 1998.86 232.027 L1998.86 235.916 L1994.58 235.916 L1994.58 199.897 L1998.86 199.897 L1998.86 213.925 Z" fill="#000000" fill-rule="nonzero" fill-opacity="1" /><path clip-path="url(#clip560)" d="M2024.4 225.684 L2024.4 209.99 L2028.66 209.99 L2028.66 225.522 Q2028.66 229.203 2030.09 231.055 Q2031.53 232.883 2034.4 232.883 Q2037.85 232.883 2039.84 230.684 Q2041.85 228.485 2041.85 224.689 L2041.85 209.99 L2046.11 209.99 L2046.11 235.916 L2041.85 235.916 L2041.85 231.934 Q2040.3 234.295 2038.24 235.453 Q2036.2 236.587 2033.49 236.587 Q2029.03 236.587 2026.71 233.809 Q2024.4 231.031 2024.4 225.684 M2035.11 209.365 L2035.11 209.365 Z" fill="#000000" fill-rule="nonzero" fill-opacity="1" /><path clip-path="url(#clip560)" d="M2059.1 202.629 L2059.1 209.99 L2067.87 209.99 L2067.87 213.3 L2059.1 213.3 L2059.1 227.374 Q2059.1 230.545 2059.95 231.448 Q2060.83 232.351 2063.49 232.351 L2067.87 232.351 L2067.87 235.916 L2063.49 235.916 Q2058.56 235.916 2056.69 234.087 Q2054.81 232.235 2054.81 227.374 L2054.81 213.3 L2051.69 213.3 L2051.69 209.99 L2054.81 209.99 L2054.81 202.629 L2059.1 202.629 Z" fill="#000000" fill-rule="nonzero" fill-opacity="1" /><path clip-path="url(#clip560)" d="M2073.47 209.99 L2077.73 209.99 L2077.73 235.916 L2073.47 235.916 L2073.47 209.99 M2073.47 199.897 L2077.73 199.897 L2077.73 205.291 L2073.47 205.291 L2073.47 199.897 Z" fill="#000000" fill-rule="nonzero" fill-opacity="1" /><path clip-path="url(#clip560)" d="M2096.69 212.976 Q2093.26 212.976 2091.27 215.661 Q2089.28 218.323 2089.28 222.976 Q2089.28 227.629 2091.25 230.314 Q2093.24 232.976 2096.69 232.976 Q2100.09 232.976 2102.08 230.291 Q2104.07 227.606 2104.07 222.976 Q2104.07 218.37 2102.08 215.684 Q2100.09 212.976 2096.69 212.976 M2096.69 209.365 Q2102.24 209.365 2105.42 212.976 Q2108.59 216.587 2108.59 222.976 Q2108.59 229.342 2105.42 232.976 Q2102.24 236.587 2096.69 236.587 Q2091.11 236.587 2087.94 232.976 Q2084.79 229.342 2084.79 222.976 Q2084.79 216.587 2087.94 212.976 Q2091.11 209.365 2096.69 209.365 Z" fill="#000000" fill-rule="nonzero" fill-opacity="1" /><path clip-path="url(#clip560)" d="M2137.2 220.268 L2137.2 235.916 L2132.94 235.916 L2132.94 220.407 Q2132.94 216.726 2131.5 214.897 Q2130.07 213.069 2127.2 213.069 Q2123.75 213.069 2121.76 215.268 Q2119.77 217.467 2119.77 221.263 L2119.77 235.916 L2115.48 235.916 L2115.48 209.99 L2119.77 209.99 L2119.77 214.018 Q2121.29 211.68 2123.36 210.522 Q2125.44 209.365 2128.15 209.365 Q2132.61 209.365 2134.91 212.143 Q2137.2 214.897 2137.2 220.268 Z" fill="#000000" fill-rule="nonzero" fill-opacity="1" /><polyline clip-path="url(#clip560)" style="stroke:#e26f46; stroke-linecap:round; stroke-linejoin:round; stroke-width:8; stroke-opacity:0.8; fill:none" points="1588.76,270.476 1730.95,270.476 "/>
<path clip-path="url(#clip560)" d="M1754.65 253.196 L1776.51 253.196 L1776.51 257.131 L1759.33 257.131 L1759.33 267.362 L1775.79 267.362 L1775.79 271.297 L1759.33 271.297 L1759.33 283.821 L1776.92 283.821 L1776.92 287.756 L1754.65 287.756 L1754.65 253.196 Z" fill="#000000" fill-rule="nonzero" fill-opacity="1" /><path clip-path="url(#clip560)" d="M1804.61 266.807 Q1806.2 263.936 1808.43 262.571 Q1810.65 261.205 1813.66 261.205 Q1817.71 261.205 1819.91 264.052 Q1822.11 266.876 1822.11 272.108 L1822.11 287.756 L1817.82 287.756 L1817.82 272.247 Q1817.82 268.52 1816.5 266.714 Q1815.19 264.909 1812.48 264.909 Q1809.17 264.909 1807.25 267.108 Q1805.32 269.307 1805.32 273.103 L1805.32 287.756 L1801.04 287.756 L1801.04 272.247 Q1801.04 268.497 1799.72 266.714 Q1798.4 264.909 1795.65 264.909 Q1792.38 264.909 1790.46 267.131 Q1788.54 269.33 1788.54 273.103 L1788.54 287.756 L1784.26 287.756 L1784.26 261.83 L1788.54 261.83 L1788.54 265.858 Q1790 263.473 1792.04 262.339 Q1794.07 261.205 1796.88 261.205 Q1799.7 261.205 1801.67 262.64 Q1803.66 264.075 1804.61 266.807 Z" fill="#000000" fill-rule="nonzero" fill-opacity="1" /><path clip-path="url(#clip560)" d="M1834.72 283.867 L1834.72 297.617 L1830.44 297.617 L1830.44 261.83 L1834.72 261.83 L1834.72 265.765 Q1836.06 263.45 1838.1 262.339 Q1840.16 261.205 1843.01 261.205 Q1847.73 261.205 1850.67 264.955 Q1853.63 268.705 1853.63 274.816 Q1853.63 280.927 1850.67 284.677 Q1847.73 288.427 1843.01 288.427 Q1840.16 288.427 1838.1 287.316 Q1836.06 286.182 1834.72 283.867 M1849.21 274.816 Q1849.21 270.117 1847.27 267.455 Q1845.35 264.77 1841.97 264.77 Q1838.59 264.77 1836.64 267.455 Q1834.72 270.117 1834.72 274.816 Q1834.72 279.515 1836.64 282.2 Q1838.59 284.862 1841.97 284.862 Q1845.35 284.862 1847.27 282.2 Q1849.21 279.515 1849.21 274.816 Z" fill="#000000" fill-rule="nonzero" fill-opacity="1" /><path clip-path="url(#clip560)" d="M1860.69 261.83 L1864.95 261.83 L1864.95 287.756 L1860.69 287.756 L1860.69 261.83 M1860.69 251.737 L1864.95 251.737 L1864.95 257.131 L1860.69 257.131 L1860.69 251.737 Z" fill="#000000" fill-rule="nonzero" fill-opacity="1" /><path clip-path="url(#clip560)" d="M1888.89 265.811 Q1888.17 265.395 1887.31 265.21 Q1886.48 265.001 1885.46 265.001 Q1881.85 265.001 1879.91 267.362 Q1877.99 269.7 1877.99 274.098 L1877.99 287.756 L1873.7 287.756 L1873.7 261.83 L1877.99 261.83 L1877.99 265.858 Q1879.33 263.497 1881.48 262.362 Q1883.63 261.205 1886.71 261.205 Q1887.15 261.205 1887.69 261.274 Q1888.22 261.321 1888.87 261.436 L1888.89 265.811 Z" fill="#000000" fill-rule="nonzero" fill-opacity="1" /><path clip-path="url(#clip560)" d="M1893.36 261.83 L1897.62 261.83 L1897.62 287.756 L1893.36 287.756 L1893.36 261.83 M1893.36 251.737 L1897.62 251.737 L1897.62 257.131 L1893.36 257.131 L1893.36 251.737 Z" fill="#000000" fill-rule="nonzero" fill-opacity="1" /><path clip-path="url(#clip560)" d="M1925.18 262.825 L1925.18 266.807 Q1923.38 265.811 1921.55 265.325 Q1919.75 264.816 1917.89 264.816 Q1913.75 264.816 1911.46 267.455 Q1909.17 270.071 1909.17 274.816 Q1909.17 279.561 1911.46 282.2 Q1913.75 284.816 1917.89 284.816 Q1919.75 284.816 1921.55 284.33 Q1923.38 283.821 1925.18 282.825 L1925.18 286.76 Q1923.4 287.594 1921.48 288.01 Q1919.58 288.427 1917.43 288.427 Q1911.57 288.427 1908.12 284.746 Q1904.68 281.066 1904.68 274.816 Q1904.68 268.473 1908.15 264.839 Q1911.64 261.205 1917.71 261.205 Q1919.68 261.205 1921.55 261.622 Q1923.43 262.015 1925.18 262.825 Z" fill="#000000" fill-rule="nonzero" fill-opacity="1" /><path clip-path="url(#clip560)" d="M1944.37 274.723 Q1939.21 274.723 1937.22 275.904 Q1935.23 277.084 1935.23 279.932 Q1935.23 282.2 1936.71 283.543 Q1938.22 284.862 1940.79 284.862 Q1944.33 284.862 1946.46 282.362 Q1948.61 279.839 1948.61 275.672 L1948.61 274.723 L1944.37 274.723 M1952.87 272.964 L1952.87 287.756 L1948.61 287.756 L1948.61 283.821 Q1947.15 286.182 1944.98 287.316 Q1942.8 288.427 1939.65 288.427 Q1935.67 288.427 1933.31 286.205 Q1930.97 283.959 1930.97 280.209 Q1930.97 275.834 1933.89 273.612 Q1936.83 271.39 1942.64 271.39 L1948.61 271.39 L1948.61 270.973 Q1948.61 268.034 1946.67 266.436 Q1944.74 264.816 1941.25 264.816 Q1939.03 264.816 1936.92 265.348 Q1934.81 265.881 1932.87 266.946 L1932.87 263.01 Q1935.21 262.108 1937.41 261.668 Q1939.61 261.205 1941.69 261.205 Q1947.31 261.205 1950.09 264.122 Q1952.87 267.038 1952.87 272.964 Z" fill="#000000" fill-rule="nonzero" fill-opacity="1" /><path clip-path="url(#clip560)" d="M1961.64 251.737 L1965.9 251.737 L1965.9 287.756 L1961.64 287.756 L1961.64 251.737 Z" fill="#000000" fill-rule="nonzero" fill-opacity="1" /><path clip-path="url(#clip560)" d="M1994.74 257.038 L1994.74 283.913 L2000.39 283.913 Q2007.55 283.913 2010.86 280.672 Q2014.19 277.432 2014.19 270.441 Q2014.19 263.497 2010.86 260.279 Q2007.55 257.038 2000.39 257.038 L1994.74 257.038 M1990.07 253.196 L1999.68 253.196 Q2009.72 253.196 2014.42 257.386 Q2019.12 261.552 2019.12 270.441 Q2019.12 279.376 2014.4 283.566 Q2009.68 287.756 1999.68 287.756 L1990.07 287.756 L1990.07 253.196 Z" fill="#000000" fill-rule="nonzero" fill-opacity="1" /><path clip-path="url(#clip560)" d="M2026.39 261.83 L2030.65 261.83 L2030.65 287.756 L2026.39 287.756 L2026.39 261.83 M2026.39 251.737 L2030.65 251.737 L2030.65 257.131 L2026.39 257.131 L2026.39 251.737 Z" fill="#000000" fill-rule="nonzero" fill-opacity="1" /><path clip-path="url(#clip560)" d="M2056.09 262.594 L2056.09 266.622 Q2054.28 265.696 2052.34 265.233 Q2050.39 264.77 2048.31 264.77 Q2045.14 264.77 2043.54 265.742 Q2041.97 266.714 2041.97 268.659 Q2041.97 270.14 2043.1 270.997 Q2044.24 271.83 2047.66 272.594 L2049.12 272.918 Q2053.66 273.89 2055.55 275.672 Q2057.48 277.432 2057.48 280.603 Q2057.48 284.214 2054.61 286.321 Q2051.76 288.427 2046.76 288.427 Q2044.67 288.427 2042.41 288.01 Q2040.16 287.617 2037.66 286.807 L2037.66 282.409 Q2040.02 283.635 2042.31 284.26 Q2044.61 284.862 2046.85 284.862 Q2049.86 284.862 2051.48 283.844 Q2053.1 282.802 2053.1 280.927 Q2053.1 279.191 2051.92 278.265 Q2050.76 277.339 2046.8 276.483 L2045.32 276.135 Q2041.36 275.302 2039.61 273.589 Q2037.85 271.853 2037.85 268.844 Q2037.85 265.186 2040.44 263.196 Q2043.03 261.205 2047.8 261.205 Q2050.16 261.205 2052.24 261.552 Q2054.33 261.899 2056.09 262.594 Z" fill="#000000" fill-rule="nonzero" fill-opacity="1" /><path clip-path="url(#clip560)" d="M2068.47 254.469 L2068.47 261.83 L2077.24 261.83 L2077.24 265.14 L2068.47 265.14 L2068.47 279.214 Q2068.47 282.385 2069.33 283.288 Q2070.21 284.191 2072.87 284.191 L2077.24 284.191 L2077.24 287.756 L2072.87 287.756 Q2067.94 287.756 2066.06 285.927 Q2064.19 284.075 2064.19 279.214 L2064.19 265.14 L2061.06 265.14 L2061.06 261.83 L2064.19 261.83 L2064.19 254.469 L2068.47 254.469 Z" fill="#000000" fill-rule="nonzero" fill-opacity="1" /><path clip-path="url(#clip560)" d="M2097.87 265.811 Q2097.15 265.395 2096.3 265.21 Q2095.46 265.001 2094.44 265.001 Q2090.83 265.001 2088.89 267.362 Q2086.97 269.7 2086.97 274.098 L2086.97 287.756 L2082.68 287.756 L2082.68 261.83 L2086.97 261.83 L2086.97 265.858 Q2088.31 263.497 2090.46 262.362 Q2092.61 261.205 2095.69 261.205 Q2096.13 261.205 2096.67 261.274 Q2097.2 261.321 2097.85 261.436 L2097.87 265.811 Z" fill="#000000" fill-rule="nonzero" fill-opacity="1" /><path clip-path="url(#clip560)" d="M2102.34 261.83 L2106.6 261.83 L2106.6 287.756 L2102.34 287.756 L2102.34 261.83 M2102.34 251.737 L2106.6 251.737 L2106.6 257.131 L2102.34 257.131 L2102.34 251.737 Z" fill="#000000" fill-rule="nonzero" fill-opacity="1" /><path clip-path="url(#clip560)" d="M2134.12 274.816 Q2134.12 270.117 2132.17 267.455 Q2130.25 264.77 2126.87 264.77 Q2123.49 264.77 2121.55 267.455 Q2119.63 270.117 2119.63 274.816 Q2119.63 279.515 2121.55 282.2 Q2123.49 284.862 2126.87 284.862 Q2130.25 284.862 2132.17 282.2 Q2134.12 279.515 2134.12 274.816 M2119.63 265.765 Q2120.97 263.45 2123.01 262.339 Q2125.07 261.205 2127.92 261.205 Q2132.64 261.205 2135.58 264.955 Q2138.54 268.705 2138.54 274.816 Q2138.54 280.927 2135.58 284.677 Q2132.64 288.427 2127.92 288.427 Q2125.07 288.427 2123.01 287.316 Q2120.97 286.182 2119.63 283.867 L2119.63 287.756 L2115.35 287.756 L2115.35 251.737 L2119.63 251.737 L2119.63 265.765 Z" fill="#000000" fill-rule="nonzero" fill-opacity="1" /><path clip-path="url(#clip560)" d="M2145.16 277.524 L2145.16 261.83 L2149.42 261.83 L2149.42 277.362 Q2149.42 281.043 2150.85 282.895 Q2152.29 284.723 2155.16 284.723 Q2158.61 284.723 2160.6 282.524 Q2162.61 280.325 2162.61 276.529 L2162.61 261.83 L2166.87 261.83 L2166.87 287.756 L2162.61 287.756 L2162.61 283.774 Q2161.06 286.135 2159 287.293 Q2156.97 288.427 2154.26 288.427 Q2149.79 288.427 2147.48 285.649 Q2145.16 282.871 2145.16 277.524 M2155.88 261.205 L2155.88 261.205 Z" fill="#000000" fill-rule="nonzero" fill-opacity="1" /><path clip-path="url(#clip560)" d="M2179.86 254.469 L2179.86 261.83 L2188.63 261.83 L2188.63 265.14 L2179.86 265.14 L2179.86 279.214 Q2179.86 282.385 2180.72 283.288 Q2181.6 284.191 2184.26 284.191 L2188.63 284.191 L2188.63 287.756 L2184.26 287.756 Q2179.33 287.756 2177.45 285.927 Q2175.58 284.075 2175.58 279.214 L2175.58 265.14 L2172.45 265.14 L2172.45 261.83 L2175.58 261.83 L2175.58 254.469 L2179.86 254.469 Z" fill="#000000" fill-rule="nonzero" fill-opacity="1" /><path clip-path="url(#clip560)" d="M2194.23 261.83 L2198.49 261.83 L2198.49 287.756 L2194.23 287.756 L2194.23 261.83 M2194.23 251.737 L2198.49 251.737 L2198.49 257.131 L2194.23 257.131 L2194.23 251.737 Z" fill="#000000" fill-rule="nonzero" fill-opacity="1" /><path clip-path="url(#clip560)" d="M2217.45 264.816 Q2214.03 264.816 2212.04 267.501 Q2210.04 270.163 2210.04 274.816 Q2210.04 279.469 2212.01 282.154 Q2214 284.816 2217.45 284.816 Q2220.85 284.816 2222.85 282.131 Q2224.84 279.446 2224.84 274.816 Q2224.84 270.21 2222.85 267.524 Q2220.85 264.816 2217.45 264.816 M2217.45 261.205 Q2223.01 261.205 2226.18 264.816 Q2229.35 268.427 2229.35 274.816 Q2229.35 281.182 2226.18 284.816 Q2223.01 288.427 2217.45 288.427 Q2211.87 288.427 2208.7 284.816 Q2205.55 281.182 2205.55 274.816 Q2205.55 268.427 2208.7 264.816 Q2211.87 261.205 2217.45 261.205 Z" fill="#000000" fill-rule="nonzero" fill-opacity="1" /><path clip-path="url(#clip560)" d="M2257.96 272.108 L2257.96 287.756 L2253.7 287.756 L2253.7 272.247 Q2253.7 268.566 2252.27 266.737 Q2250.83 264.909 2247.96 264.909 Q2244.51 264.909 2242.52 267.108 Q2240.53 269.307 2240.53 273.103 L2240.53 287.756 L2236.25 287.756 L2236.25 261.83 L2240.53 261.83 L2240.53 265.858 Q2242.06 263.52 2244.12 262.362 Q2246.2 261.205 2248.91 261.205 Q2253.38 261.205 2255.67 263.983 Q2257.96 266.737 2257.96 272.108 Z" fill="#000000" fill-rule="nonzero" fill-opacity="1" /></svg>
