<?xml version="1.0" encoding="utf-8"?>
<svg xmlns="http://www.w3.org/2000/svg" xmlns:xlink="http://www.w3.org/1999/xlink" width="600" height="400" viewBox="0 0 2400 1600">
<defs>
  <clipPath id="clip870">
    <rect x="0" y="0" width="2400" height="1600"/>
  </clipPath>
</defs>
<path clip-path="url(#clip870)" d="M0 1600 L2400 1600 L2400 8.88178e-14 L0 8.88178e-14  Z" fill="#ffffff" fill-rule="evenodd" fill-opacity="1"/>
<defs>
  <clipPath id="clip871">
    <rect x="480" y="0" width="1681" height="1600"/>
  </clipPath>
</defs>
<path clip-path="url(#clip870)" d="M219.866 1423.18 L2352.76 1423.18 L2352.76 123.472 L219.866 123.472  Z" fill="#ffffff" fill-rule="evenodd" fill-opacity="1"/>
<defs>
  <clipPath id="clip872">
    <rect x="219" y="123" width="2134" height="1301"/>
  </clipPath>
</defs>
<polyline clip-path="url(#clip872)" style="stroke:#000000; stroke-linecap:round; stroke-linejoin:round; stroke-width:2; stroke-opacity:0.1; fill:none" points="259.906,1423.18 259.906,123.472 "/>
<polyline clip-path="url(#clip872)" style="stroke:#000000; stroke-linecap:round; stroke-linejoin:round; stroke-width:2; stroke-opacity:0.1; fill:none" points="768.027,1423.18 768.027,123.472 "/>
<polyline clip-path="url(#clip872)" style="stroke:#000000; stroke-linecap:round; stroke-linejoin:round; stroke-width:2; stroke-opacity:0.1; fill:none" points="1276.15,1423.18 1276.15,123.472 "/>
<polyline clip-path="url(#clip872)" style="stroke:#000000; stroke-linecap:round; stroke-linejoin:round; stroke-width:2; stroke-opacity:0.1; fill:none" points="1784.27,1423.18 1784.27,123.472 "/>
<polyline clip-path="url(#clip872)" style="stroke:#000000; stroke-linecap:round; stroke-linejoin:round; stroke-width:2; stroke-opacity:0.1; fill:none" points="2292.39,1423.18 2292.39,123.472 "/>
<polyline clip-path="url(#clip870)" style="stroke:#000000; stroke-linecap:round; stroke-linejoin:round; stroke-width:4; stroke-opacity:1; fill:none" points="219.866,1423.18 2352.76,1423.18 "/>
<polyline clip-path="url(#clip870)" style="stroke:#000000; stroke-linecap:round; stroke-linejoin:round; stroke-width:4; stroke-opacity:1; fill:none" points="259.906,1423.18 259.906,1404.28 "/>
<polyline clip-path="url(#clip870)" style="stroke:#000000; stroke-linecap:round; stroke-linejoin:round; stroke-width:4; stroke-opacity:1; fill:none" points="768.027,1423.18 768.027,1404.28 "/>
<polyline clip-path="url(#clip870)" style="stroke:#000000; stroke-linecap:round; stroke-linejoin:round; stroke-width:4; stroke-opacity:1; fill:none" points="1276.15,1423.18 1276.15,1404.28 "/>
<polyline clip-path="url(#clip870)" style="stroke:#000000; stroke-linecap:round; stroke-linejoin:round; stroke-width:4; stroke-opacity:1; fill:none" points="1784.27,1423.18 1784.27,1404.28 "/>
<polyline clip-path="url(#clip870)" style="stroke:#000000; stroke-linecap:round; stroke-linejoin:round; stroke-width:4; stroke-opacity:1; fill:none" points="2292.39,1423.18 2292.39,1404.28 "/>
<path clip-path="url(#clip870)" d="M259.906 1454.1 Q256.295 1454.1 254.466 1457.66 Q252.661 1461.2 252.661 1468.33 Q252.661 1475.44 254.466 1479.01 Q256.295 1482.55 259.906 1482.55 Q263.54 1482.55 265.346 1479.01 Q267.175 1475.44 267.175 1468.33 Q267.175 1461.2 265.346 1457.66 Q263.54 1454.1 259.906 1454.1 M259.906 1450.39 Q265.716 1450.39 268.772 1455 Q271.851 1459.58 271.851 1468.33 Q271.851 1477.06 268.772 1481.67 Q265.716 1486.25 259.906 1486.25 Q254.096 1486.25 251.017 1481.67 Q247.962 1477.06 247.962 1468.33 Q247.962 1459.58 251.017 1455 Q254.096 1450.39 259.906 1450.39 Z" fill="#000000" fill-rule="nonzero" fill-opacity="1" /><path clip-path="url(#clip870)" d="M747.298 1481.64 L763.618 1481.64 L763.618 1485.58 L741.673 1485.58 L741.673 1481.64 Q744.335 1478.89 748.919 1474.26 Q753.525 1469.61 754.706 1468.27 Q756.951 1465.74 757.831 1464.01 Q758.734 1462.25 758.734 1460.56 Q758.734 1457.8 756.789 1456.07 Q754.868 1454.33 751.766 1454.33 Q749.567 1454.33 747.113 1455.09 Q744.683 1455.86 741.905 1457.41 L741.905 1452.69 Q744.729 1451.55 747.183 1450.97 Q749.636 1450.39 751.673 1450.39 Q757.044 1450.39 760.238 1453.08 Q763.433 1455.77 763.433 1460.26 Q763.433 1462.39 762.622 1464.31 Q761.835 1466.2 759.729 1468.8 Q759.15 1469.47 756.048 1472.69 Q752.947 1475.88 747.298 1481.64 Z" fill="#000000" fill-rule="nonzero" fill-opacity="1" /><path clip-path="url(#clip870)" d="M773.479 1451.02 L791.835 1451.02 L791.835 1454.96 L777.761 1454.96 L777.761 1463.43 Q778.78 1463.08 779.798 1462.92 Q780.817 1462.73 781.835 1462.73 Q787.622 1462.73 791.002 1465.9 Q794.381 1469.08 794.381 1474.49 Q794.381 1480.07 790.909 1483.17 Q787.437 1486.25 781.118 1486.25 Q778.942 1486.25 776.673 1485.88 Q774.428 1485.51 772.02 1484.77 L772.02 1480.07 Q774.104 1481.2 776.326 1481.76 Q778.548 1482.32 781.025 1482.32 Q785.03 1482.32 787.368 1480.21 Q789.706 1478.1 789.706 1474.49 Q789.706 1470.88 787.368 1468.77 Q785.03 1466.67 781.025 1466.67 Q779.15 1466.67 777.275 1467.08 Q775.423 1467.5 773.479 1468.38 L773.479 1451.02 Z" fill="#000000" fill-rule="nonzero" fill-opacity="1" /><path clip-path="url(#clip870)" d="M1250.85 1451.02 L1269.2 1451.02 L1269.2 1454.96 L1255.13 1454.96 L1255.13 1463.43 Q1256.15 1463.08 1257.17 1462.92 Q1258.19 1462.73 1259.2 1462.73 Q1264.99 1462.73 1268.37 1465.9 Q1271.75 1469.08 1271.75 1474.49 Q1271.75 1480.07 1268.28 1483.17 Q1264.81 1486.25 1258.49 1486.25 Q1256.31 1486.25 1254.04 1485.88 Q1251.8 1485.51 1249.39 1484.77 L1249.39 1480.07 Q1251.47 1481.2 1253.7 1481.76 Q1255.92 1482.32 1258.39 1482.32 Q1262.4 1482.32 1264.74 1480.21 Q1267.07 1478.1 1267.07 1474.49 Q1267.07 1470.88 1264.74 1468.77 Q1262.4 1466.67 1258.39 1466.67 Q1256.52 1466.67 1254.64 1467.08 Q1252.79 1467.5 1250.85 1468.38 L1250.85 1451.02 Z" fill="#000000" fill-rule="nonzero" fill-opacity="1" /><path clip-path="url(#clip870)" d="M1290.96 1454.1 Q1287.35 1454.1 1285.52 1457.66 Q1283.72 1461.2 1283.72 1468.33 Q1283.72 1475.44 1285.52 1479.01 Q1287.35 1482.55 1290.96 1482.55 Q1294.6 1482.55 1296.4 1479.01 Q1298.23 1475.44 1298.23 1468.33 Q1298.23 1461.2 1296.4 1457.66 Q1294.6 1454.1 1290.96 1454.1 M1290.96 1450.39 Q1296.77 1450.39 1299.83 1455 Q1302.91 1459.58 1302.91 1468.33 Q1302.91 1477.06 1299.83 1481.67 Q1296.77 1486.25 1290.96 1486.25 Q1285.15 1486.25 1282.07 1481.67 Q1279.02 1477.06 1279.02 1468.33 Q1279.02 1459.58 1282.07 1455 Q1285.15 1450.39 1290.96 1450.39 Z" fill="#000000" fill-rule="nonzero" fill-opacity="1" /><path clip-path="url(#clip870)" d="M1758.12 1451.02 L1780.35 1451.02 L1780.35 1453.01 L1767.8 1485.58 L1762.92 1485.58 L1774.72 1454.96 L1758.12 1454.96 L1758.12 1451.02 Z" fill="#000000" fill-rule="nonzero" fill-opacity="1" /><path clip-path="url(#clip870)" d="M1789.51 1451.02 L1807.87 1451.02 L1807.87 1454.96 L1793.8 1454.96 L1793.8 1463.43 Q1794.81 1463.08 1795.83 1462.92 Q1796.85 1462.73 1797.87 1462.73 Q1803.66 1462.73 1807.04 1465.9 Q1810.42 1469.08 1810.42 1474.49 Q1810.42 1480.07 1806.94 1483.17 Q1803.47 1486.25 1797.15 1486.25 Q1794.98 1486.25 1792.71 1485.88 Q1790.46 1485.51 1788.05 1484.77 L1788.05 1480.07 Q1790.14 1481.2 1792.36 1481.76 Q1794.58 1482.32 1797.06 1482.32 Q1801.06 1482.32 1803.4 1480.21 Q1805.74 1478.1 1805.74 1474.49 Q1805.74 1470.88 1803.4 1468.77 Q1801.06 1466.67 1797.06 1466.67 Q1795.18 1466.67 1793.31 1467.08 Q1791.46 1467.5 1789.51 1468.38 L1789.51 1451.02 Z" fill="#000000" fill-rule="nonzero" fill-opacity="1" /><path clip-path="url(#clip870)" d="M2252 1481.64 L2259.64 1481.64 L2259.64 1455.28 L2251.33 1456.95 L2251.33 1452.69 L2259.59 1451.02 L2264.27 1451.02 L2264.27 1481.64 L2271.91 1481.64 L2271.91 1485.58 L2252 1485.58 L2252 1481.64 Z" fill="#000000" fill-rule="nonzero" fill-opacity="1" /><path clip-path="url(#clip870)" d="M2291.35 1454.1 Q2287.74 1454.1 2285.91 1457.66 Q2284.1 1461.2 2284.1 1468.33 Q2284.1 1475.44 2285.91 1479.01 Q2287.74 1482.55 2291.35 1482.55 Q2294.98 1482.55 2296.79 1479.01 Q2298.62 1475.44 2298.62 1468.33 Q2298.62 1461.2 2296.79 1457.66 Q2294.98 1454.1 2291.35 1454.1 M2291.35 1450.39 Q2297.16 1450.39 2300.22 1455 Q2303.29 1459.58 2303.29 1468.33 Q2303.29 1477.06 2300.22 1481.67 Q2297.16 1486.25 2291.35 1486.25 Q2285.54 1486.25 2282.46 1481.67 Q2279.41 1477.06 2279.41 1468.33 Q2279.41 1459.58 2282.46 1455 Q2285.54 1450.39 2291.35 1450.39 Z" fill="#000000" fill-rule="nonzero" fill-opacity="1" /><path clip-path="url(#clip870)" d="M2321.51 1454.1 Q2317.9 1454.1 2316.07 1457.66 Q2314.27 1461.2 2314.27 1468.33 Q2314.27 1475.44 2316.07 1479.01 Q2317.9 1482.55 2321.51 1482.55 Q2325.15 1482.55 2326.95 1479.01 Q2328.78 1475.44 2328.78 1468.33 Q2328.78 1461.2 2326.95 1457.66 Q2325.15 1454.1 2321.51 1454.1 M2321.51 1450.39 Q2327.32 1450.39 2330.38 1455 Q2333.46 1459.58 2333.46 1468.33 Q2333.46 1477.06 2330.38 1481.67 Q2327.32 1486.25 2321.51 1486.25 Q2315.7 1486.25 2312.62 1481.67 Q2309.57 1477.06 2309.57 1468.33 Q2309.57 1459.58 2312.62 1455 Q2315.7 1450.39 2321.51 1450.39 Z" fill="#000000" fill-rule="nonzero" fill-opacity="1" /><path clip-path="url(#clip870)" d="M1225.47 1522.27 L1225.47 1532.4 L1237.53 1532.4 L1237.53 1536.95 L1225.47 1536.95 L1225.47 1556.3 Q1225.47 1560.66 1226.65 1561.9 Q1227.86 1563.14 1231.52 1563.14 L1237.53 1563.14 L1237.53 1568.04 L1231.52 1568.04 Q1224.74 1568.04 1222.16 1565.53 Q1219.58 1562.98 1219.58 1556.3 L1219.58 1536.95 L1215.29 1536.95 L1215.29 1532.4 L1219.58 1532.4 L1219.58 1522.27 L1225.47 1522.27 Z" fill="#000000" fill-rule="nonzero" fill-opacity="1" /><path clip-path="url(#clip870)" d="M1245.24 1532.4 L1251.09 1532.4 L1251.09 1568.04 L1245.24 1568.04 L1245.24 1532.4 M1245.24 1518.52 L1251.09 1518.52 L1251.09 1525.93 L1245.24 1525.93 L1245.24 1518.52 Z" fill="#000000" fill-rule="nonzero" fill-opacity="1" /><path clip-path="url(#clip870)" d="M1291.1 1539.24 Q1293.3 1535.29 1296.35 1533.41 Q1299.41 1531.54 1303.55 1531.54 Q1309.12 1531.54 1312.14 1535.45 Q1315.16 1539.33 1315.16 1546.53 L1315.16 1568.04 L1309.28 1568.04 L1309.28 1546.72 Q1309.28 1541.59 1307.46 1539.11 Q1305.65 1536.63 1301.92 1536.63 Q1297.37 1536.63 1294.73 1539.65 Q1292.09 1542.68 1292.09 1547.9 L1292.09 1568.04 L1286.2 1568.04 L1286.2 1546.72 Q1286.2 1541.56 1284.39 1539.11 Q1282.57 1536.63 1278.78 1536.63 Q1274.3 1536.63 1271.65 1539.68 Q1269.01 1542.71 1269.01 1547.9 L1269.01 1568.04 L1263.12 1568.04 L1263.12 1532.4 L1269.01 1532.4 L1269.01 1537.93 Q1271.02 1534.66 1273.82 1533.1 Q1276.62 1531.54 1280.47 1531.54 Q1284.35 1531.54 1287.06 1533.51 Q1289.8 1535.48 1291.1 1539.24 Z" fill="#000000" fill-rule="nonzero" fill-opacity="1" /><path clip-path="url(#clip870)" d="M1357.34 1548.76 L1357.34 1551.62 L1330.41 1551.62 Q1330.79 1557.67 1334.04 1560.85 Q1337.32 1564 1343.14 1564 Q1346.51 1564 1349.67 1563.17 Q1352.85 1562.35 1355.97 1560.69 L1355.97 1566.23 Q1352.82 1567.57 1349.51 1568.27 Q1346.2 1568.97 1342.79 1568.97 Q1334.26 1568.97 1329.26 1564 Q1324.3 1559.04 1324.3 1550.57 Q1324.3 1541.82 1329.01 1536.69 Q1333.75 1531.54 1341.77 1531.54 Q1348.97 1531.54 1353.14 1536.18 Q1357.34 1540.8 1357.34 1548.76 M1351.48 1547.04 Q1351.42 1542.23 1348.77 1539.37 Q1346.16 1536.5 1341.84 1536.5 Q1336.93 1536.5 1333.97 1539.27 Q1331.05 1542.04 1330.6 1547.07 L1351.48 1547.04 Z" fill="#000000" fill-rule="nonzero" fill-opacity="1" /><polyline clip-path="url(#clip872)" style="stroke:#000000; stroke-linecap:round; stroke-linejoin:round; stroke-width:2; stroke-opacity:0.1; fill:none" points="219.866,1309.02 2352.76,1309.02 "/>
<polyline clip-path="url(#clip872)" style="stroke:#000000; stroke-linecap:round; stroke-linejoin:round; stroke-width:2; stroke-opacity:0.1; fill:none" points="219.866,1121.2 2352.76,1121.2 "/>
<polyline clip-path="url(#clip872)" style="stroke:#000000; stroke-linecap:round; stroke-linejoin:round; stroke-width:2; stroke-opacity:0.1; fill:none" points="219.866,933.372 2352.76,933.372 "/>
<polyline clip-path="url(#clip872)" style="stroke:#000000; stroke-linecap:round; stroke-linejoin:round; stroke-width:2; stroke-opacity:0.1; fill:none" points="219.866,745.547 2352.76,745.547 "/>
<polyline clip-path="url(#clip872)" style="stroke:#000000; stroke-linecap:round; stroke-linejoin:round; stroke-width:2; stroke-opacity:0.1; fill:none" points="219.866,557.721 2352.76,557.721 "/>
<polyline clip-path="url(#clip872)" style="stroke:#000000; stroke-linecap:round; stroke-linejoin:round; stroke-width:2; stroke-opacity:0.1; fill:none" points="219.866,369.896 2352.76,369.896 "/>
<polyline clip-path="url(#clip872)" style="stroke:#000000; stroke-linecap:round; stroke-linejoin:round; stroke-width:2; stroke-opacity:0.1; fill:none" points="219.866,182.07 2352.76,182.07 "/>
<polyline clip-path="url(#clip870)" style="stroke:#000000; stroke-linecap:round; stroke-linejoin:round; stroke-width:4; stroke-opacity:1; fill:none" points="219.866,1423.18 219.866,123.472 "/>
<polyline clip-path="url(#clip870)" style="stroke:#000000; stroke-linecap:round; stroke-linejoin:round; stroke-width:4; stroke-opacity:1; fill:none" points="219.866,1309.02 238.764,1309.02 "/>
<polyline clip-path="url(#clip870)" style="stroke:#000000; stroke-linecap:round; stroke-linejoin:round; stroke-width:4; stroke-opacity:1; fill:none" points="219.866,1121.2 238.764,1121.2 "/>
<polyline clip-path="url(#clip870)" style="stroke:#000000; stroke-linecap:round; stroke-linejoin:round; stroke-width:4; stroke-opacity:1; fill:none" points="219.866,933.372 238.764,933.372 "/>
<polyline clip-path="url(#clip870)" style="stroke:#000000; stroke-linecap:round; stroke-linejoin:round; stroke-width:4; stroke-opacity:1; fill:none" points="219.866,745.547 238.764,745.547 "/>
<polyline clip-path="url(#clip870)" style="stroke:#000000; stroke-linecap:round; stroke-linejoin:round; stroke-width:4; stroke-opacity:1; fill:none" points="219.866,557.721 238.764,557.721 "/>
<polyline clip-path="url(#clip870)" style="stroke:#000000; stroke-linecap:round; stroke-linejoin:round; stroke-width:4; stroke-opacity:1; fill:none" points="219.866,369.896 238.764,369.896 "/>
<polyline clip-path="url(#clip870)" style="stroke:#000000; stroke-linecap:round; stroke-linejoin:round; stroke-width:4; stroke-opacity:1; fill:none" points="219.866,182.07 238.764,182.07 "/>
<path clip-path="url(#clip870)" d="M128.288 1294.82 Q124.677 1294.82 122.848 1298.39 Q121.043 1301.93 121.043 1309.06 Q121.043 1316.16 122.848 1319.73 Q124.677 1323.27 128.288 1323.27 Q131.922 1323.27 133.728 1319.73 Q135.556 1316.16 135.556 1309.06 Q135.556 1301.93 133.728 1298.39 Q131.922 1294.82 128.288 1294.82 M128.288 1291.12 Q134.098 1291.12 137.154 1295.72 Q140.232 1300.31 140.232 1309.06 Q140.232 1317.78 137.154 1322.39 Q134.098 1326.97 128.288 1326.97 Q122.478 1326.97 119.399 1322.39 Q116.343 1317.78 116.343 1309.06 Q116.343 1300.31 119.399 1295.72 Q122.478 1291.12 128.288 1291.12 Z" fill="#000000" fill-rule="nonzero" fill-opacity="1" /><path clip-path="url(#clip870)" d="M148.45 1320.42 L153.334 1320.42 L153.334 1326.3 L148.45 1326.3 L148.45 1320.42 Z" fill="#000000" fill-rule="nonzero" fill-opacity="1" /><path clip-path="url(#clip870)" d="M167.547 1322.37 L183.866 1322.37 L183.866 1326.3 L161.922 1326.3 L161.922 1322.37 Q164.584 1319.61 169.167 1314.98 Q173.774 1310.33 174.954 1308.99 Q177.2 1306.47 178.079 1304.73 Q178.982 1302.97 178.982 1301.28 Q178.982 1298.53 177.038 1296.79 Q175.116 1295.05 172.014 1295.05 Q169.815 1295.05 167.362 1295.82 Q164.931 1296.58 162.153 1298.13 L162.153 1293.41 Q164.977 1292.28 167.431 1291.7 Q169.885 1291.12 171.922 1291.12 Q177.292 1291.12 180.487 1293.8 Q183.681 1296.49 183.681 1300.98 Q183.681 1303.11 182.871 1305.03 Q182.084 1306.93 179.977 1309.52 Q179.399 1310.19 176.297 1313.41 Q173.195 1316.6 167.547 1322.37 Z" fill="#000000" fill-rule="nonzero" fill-opacity="1" /><path clip-path="url(#clip870)" d="M127.339 1107 Q123.728 1107 121.899 1110.56 Q120.093 1114.1 120.093 1121.23 Q120.093 1128.34 121.899 1131.9 Q123.728 1135.45 127.339 1135.45 Q130.973 1135.45 132.779 1131.9 Q134.607 1128.34 134.607 1121.23 Q134.607 1114.1 132.779 1110.56 Q130.973 1107 127.339 1107 M127.339 1103.29 Q133.149 1103.29 136.204 1107.9 Q139.283 1112.48 139.283 1121.23 Q139.283 1129.96 136.204 1134.57 Q133.149 1139.15 127.339 1139.15 Q121.529 1139.15 118.45 1134.57 Q115.394 1129.96 115.394 1121.23 Q115.394 1112.48 118.45 1107.9 Q121.529 1103.29 127.339 1103.29 Z" fill="#000000" fill-rule="nonzero" fill-opacity="1" /><path clip-path="url(#clip870)" d="M147.501 1132.6 L152.385 1132.6 L152.385 1138.48 L147.501 1138.48 L147.501 1132.6 Z" fill="#000000" fill-rule="nonzero" fill-opacity="1" /><path clip-path="url(#clip870)" d="M176.737 1119.84 Q180.093 1120.56 181.968 1122.83 Q183.866 1125.1 183.866 1128.43 Q183.866 1133.55 180.348 1136.35 Q176.829 1139.15 170.348 1139.15 Q168.172 1139.15 165.857 1138.71 Q163.565 1138.29 161.112 1137.44 L161.112 1132.92 Q163.056 1134.06 165.371 1134.64 Q167.686 1135.21 170.209 1135.21 Q174.607 1135.21 176.899 1133.48 Q179.214 1131.74 179.214 1128.43 Q179.214 1125.38 177.061 1123.66 Q174.931 1121.93 171.112 1121.93 L167.084 1121.93 L167.084 1118.08 L171.297 1118.08 Q174.746 1118.08 176.575 1116.72 Q178.403 1115.33 178.403 1112.74 Q178.403 1110.07 176.505 1108.66 Q174.63 1107.23 171.112 1107.23 Q169.19 1107.23 166.991 1107.64 Q164.792 1108.06 162.153 1108.94 L162.153 1104.77 Q164.815 1104.03 167.13 1103.66 Q169.468 1103.29 171.528 1103.29 Q176.852 1103.29 179.954 1105.72 Q183.056 1108.13 183.056 1112.25 Q183.056 1115.12 181.413 1117.11 Q179.769 1119.08 176.737 1119.84 Z" fill="#000000" fill-rule="nonzero" fill-opacity="1" /><path clip-path="url(#clip870)" d="M126.205 919.171 Q122.593 919.171 120.765 922.736 Q118.959 926.277 118.959 933.407 Q118.959 940.513 120.765 944.078 Q122.593 947.62 126.205 947.62 Q129.839 947.62 131.644 944.078 Q133.473 940.513 133.473 933.407 Q133.473 926.277 131.644 922.736 Q129.839 919.171 126.205 919.171 M126.205 915.467 Q132.015 915.467 135.07 920.074 Q138.149 924.657 138.149 933.407 Q138.149 942.134 135.07 946.74 Q132.015 951.323 126.205 951.323 Q120.394 951.323 117.316 946.74 Q114.26 942.134 114.26 933.407 Q114.26 924.657 117.316 920.074 Q120.394 915.467 126.205 915.467 Z" fill="#000000" fill-rule="nonzero" fill-opacity="1" /><path clip-path="url(#clip870)" d="M146.366 944.773 L151.251 944.773 L151.251 950.652 L146.366 950.652 L146.366 944.773 Z" fill="#000000" fill-rule="nonzero" fill-opacity="1" /><path clip-path="url(#clip870)" d="M174.283 920.166 L162.477 938.615 L174.283 938.615 L174.283 920.166 M173.056 916.092 L178.936 916.092 L178.936 938.615 L183.866 938.615 L183.866 942.504 L178.936 942.504 L178.936 950.652 L174.283 950.652 L174.283 942.504 L158.681 942.504 L158.681 937.99 L173.056 916.092 Z" fill="#000000" fill-rule="nonzero" fill-opacity="1" /><path clip-path="url(#clip870)" d="M127.686 731.345 Q124.075 731.345 122.246 734.91 Q120.441 738.452 120.441 745.581 Q120.441 752.688 122.246 756.253 Q124.075 759.794 127.686 759.794 Q131.32 759.794 133.126 756.253 Q134.954 752.688 134.954 745.581 Q134.954 738.452 133.126 734.91 Q131.32 731.345 127.686 731.345 M127.686 727.642 Q133.496 727.642 136.552 732.248 Q139.63 736.831 139.63 745.581 Q139.63 754.308 136.552 758.915 Q133.496 763.498 127.686 763.498 Q121.876 763.498 118.797 758.915 Q115.742 754.308 115.742 745.581 Q115.742 736.831 118.797 732.248 Q121.876 727.642 127.686 727.642 Z" fill="#000000" fill-rule="nonzero" fill-opacity="1" /><path clip-path="url(#clip870)" d="M147.848 756.947 L152.732 756.947 L152.732 762.827 L147.848 762.827 L147.848 756.947 Z" fill="#000000" fill-rule="nonzero" fill-opacity="1" /><path clip-path="url(#clip870)" d="M162.964 728.267 L181.32 728.267 L181.32 732.202 L167.246 732.202 L167.246 740.674 Q168.264 740.327 169.283 740.165 Q170.302 739.979 171.32 739.979 Q177.107 739.979 180.487 743.151 Q183.866 746.322 183.866 751.739 Q183.866 757.317 180.394 760.419 Q176.922 763.498 170.602 763.498 Q168.427 763.498 166.158 763.128 Q163.913 762.757 161.505 762.016 L161.505 757.317 Q163.589 758.452 165.811 759.007 Q168.033 759.563 170.51 759.563 Q174.514 759.563 176.852 757.456 Q179.19 755.35 179.19 751.739 Q179.19 748.128 176.852 746.021 Q174.514 743.915 170.51 743.915 Q168.635 743.915 166.76 744.331 Q164.908 744.748 162.964 745.628 L162.964 728.267 Z" fill="#000000" fill-rule="nonzero" fill-opacity="1" /><path clip-path="url(#clip870)" d="M126.529 543.52 Q122.918 543.52 121.089 547.085 Q119.283 550.626 119.283 557.756 Q119.283 564.862 121.089 568.427 Q122.918 571.969 126.529 571.969 Q130.163 571.969 131.968 568.427 Q133.797 564.862 133.797 557.756 Q133.797 550.626 131.968 547.085 Q130.163 543.52 126.529 543.52 M126.529 539.816 Q132.339 539.816 135.394 544.423 Q138.473 549.006 138.473 557.756 Q138.473 566.483 135.394 571.089 Q132.339 575.672 126.529 575.672 Q120.718 575.672 117.64 571.089 Q114.584 566.483 114.584 557.756 Q114.584 549.006 117.64 544.423 Q120.718 539.816 126.529 539.816 Z" fill="#000000" fill-rule="nonzero" fill-opacity="1" /><path clip-path="url(#clip870)" d="M146.691 569.121 L151.575 569.121 L151.575 575.001 L146.691 575.001 L146.691 569.121 Z" fill="#000000" fill-rule="nonzero" fill-opacity="1" /><path clip-path="url(#clip870)" d="M172.339 555.858 Q169.19 555.858 167.339 558.01 Q165.51 560.163 165.51 563.913 Q165.51 567.64 167.339 569.816 Q169.19 571.969 172.339 571.969 Q175.487 571.969 177.315 569.816 Q179.167 567.64 179.167 563.913 Q179.167 560.163 177.315 558.01 Q175.487 555.858 172.339 555.858 M181.621 541.205 L181.621 545.464 Q179.862 544.631 178.056 544.191 Q176.274 543.751 174.514 543.751 Q169.885 543.751 167.431 546.876 Q165.001 550.001 164.653 556.321 Q166.019 554.307 168.079 553.242 Q170.139 552.154 172.616 552.154 Q177.825 552.154 180.834 555.325 Q183.866 558.473 183.866 563.913 Q183.866 569.237 180.718 572.455 Q177.57 575.672 172.339 575.672 Q166.343 575.672 163.172 571.089 Q160.001 566.483 160.001 557.756 Q160.001 549.561 163.89 544.7 Q167.778 539.816 174.329 539.816 Q176.089 539.816 177.871 540.163 Q179.676 540.511 181.621 541.205 Z" fill="#000000" fill-rule="nonzero" fill-opacity="1" /><path clip-path="url(#clip870)" d="M127.593 355.694 Q123.982 355.694 122.154 359.259 Q120.348 362.801 120.348 369.93 Q120.348 377.037 122.154 380.602 Q123.982 384.143 127.593 384.143 Q131.228 384.143 133.033 380.602 Q134.862 377.037 134.862 369.93 Q134.862 362.801 133.033 359.259 Q131.228 355.694 127.593 355.694 M127.593 351.991 Q133.404 351.991 136.459 356.597 Q139.538 361.18 139.538 369.93 Q139.538 378.657 136.459 383.264 Q133.404 387.847 127.593 387.847 Q121.783 387.847 118.705 383.264 Q115.649 378.657 115.649 369.93 Q115.649 361.18 118.705 356.597 Q121.783 351.991 127.593 351.991 Z" fill="#000000" fill-rule="nonzero" fill-opacity="1" /><path clip-path="url(#clip870)" d="M147.755 381.296 L152.64 381.296 L152.64 387.176 L147.755 387.176 L147.755 381.296 Z" fill="#000000" fill-rule="nonzero" fill-opacity="1" /><path clip-path="url(#clip870)" d="M161.644 352.616 L183.866 352.616 L183.866 354.606 L171.32 387.176 L166.436 387.176 L178.241 356.551 L161.644 356.551 L161.644 352.616 Z" fill="#000000" fill-rule="nonzero" fill-opacity="1" /><path clip-path="url(#clip870)" d="M126.783 167.869 Q123.172 167.869 121.343 171.434 Q119.538 174.975 119.538 182.105 Q119.538 189.211 121.343 192.776 Q123.172 196.318 126.783 196.318 Q130.417 196.318 132.223 192.776 Q134.052 189.211 134.052 182.105 Q134.052 174.975 132.223 171.434 Q130.417 167.869 126.783 167.869 M126.783 164.165 Q132.593 164.165 135.649 168.772 Q138.728 173.355 138.728 182.105 Q138.728 190.832 135.649 195.438 Q132.593 200.021 126.783 200.021 Q120.973 200.021 117.894 195.438 Q114.839 190.832 114.839 182.105 Q114.839 173.355 117.894 168.772 Q120.973 164.165 126.783 164.165 Z" fill="#000000" fill-rule="nonzero" fill-opacity="1" /><path clip-path="url(#clip870)" d="M146.945 193.47 L151.829 193.47 L151.829 199.35 L146.945 199.35 L146.945 193.47 Z" fill="#000000" fill-rule="nonzero" fill-opacity="1" /><path clip-path="url(#clip870)" d="M172.014 182.938 Q168.681 182.938 166.76 184.72 Q164.862 186.503 164.862 189.628 Q164.862 192.753 166.76 194.535 Q168.681 196.318 172.014 196.318 Q175.348 196.318 177.269 194.535 Q179.19 192.73 179.19 189.628 Q179.19 186.503 177.269 184.72 Q175.371 182.938 172.014 182.938 M167.339 180.947 Q164.329 180.207 162.64 178.146 Q160.973 176.086 160.973 173.123 Q160.973 168.98 163.913 166.572 Q166.876 164.165 172.014 164.165 Q177.176 164.165 180.116 166.572 Q183.056 168.98 183.056 173.123 Q183.056 176.086 181.366 178.146 Q179.7 180.207 176.714 180.947 Q180.093 181.734 181.968 184.026 Q183.866 186.318 183.866 189.628 Q183.866 194.651 180.788 197.336 Q177.732 200.021 172.014 200.021 Q166.297 200.021 163.218 197.336 Q160.163 194.651 160.163 189.628 Q160.163 186.318 162.061 184.026 Q163.959 181.734 167.339 180.947 M165.626 173.563 Q165.626 176.248 167.292 177.753 Q168.982 179.258 172.014 179.258 Q175.024 179.258 176.714 177.753 Q178.426 176.248 178.426 173.563 Q178.426 170.878 176.714 169.373 Q175.024 167.869 172.014 167.869 Q168.982 167.869 167.292 169.373 Q165.626 170.878 165.626 173.563 Z" fill="#000000" fill-rule="nonzero" fill-opacity="1" /><path clip-path="url(#clip870)" d="M28.3562 756.711 L45.7028 769.602 L64.0042 756.043 L64.0042 762.95 L49.9996 773.326 L64.0042 783.702 L64.0042 790.609 L45.3526 776.763 L28.3562 789.431 L28.3562 782.524 L41.0558 773.071 L28.3562 763.618 L28.3562 756.711 Z" fill="#000000" fill-rule="nonzero" fill-opacity="1" /><path clip-path="url(#clip870)" d="M505.459 12.096 L537.582 12.096 L537.582 18.9825 L512.953 18.9825 L512.953 33.8088 Q514.735 33.2012 516.518 32.9176 Q518.3 32.5936 520.083 32.5936 Q530.21 32.5936 536.124 38.1433 Q542.038 43.6931 542.038 53.1722 Q542.038 62.9348 535.962 68.3631 Q529.886 73.7508 518.827 73.7508 Q515.019 73.7508 511.049 73.1026 Q507.12 72.4545 502.907 71.1582 L502.907 62.9348 Q506.553 64.9198 510.441 65.892 Q514.33 66.8642 518.665 66.8642 Q525.673 66.8642 529.764 63.1779 Q533.856 59.4916 533.856 53.1722 Q533.856 46.8528 529.764 43.1664 Q525.673 39.4801 518.665 39.4801 Q515.384 39.4801 512.102 40.2093 Q508.862 40.9384 505.459 42.4778 L505.459 12.096 Z" fill="#000000" fill-rule="nonzero" fill-opacity="1" /><path clip-path="url(#clip870)" d="M575.661 17.4837 Q569.342 17.4837 566.141 23.7221 Q562.982 29.92 562.982 42.3968 Q562.982 54.833 566.141 61.0714 Q569.342 67.2693 575.661 67.2693 Q582.021 67.2693 585.181 61.0714 Q588.381 54.833 588.381 42.3968 Q588.381 29.92 585.181 23.7221 Q582.021 17.4837 575.661 17.4837 M575.661 11.0023 Q585.829 11.0023 591.176 19.0636 Q596.564 27.0843 596.564 42.3968 Q596.564 57.6687 591.176 65.73 Q585.829 73.7508 575.661 73.7508 Q565.493 73.7508 560.105 65.73 Q554.758 57.6687 554.758 42.3968 Q554.758 27.0843 560.105 19.0636 Q565.493 11.0023 575.661 11.0023 Z" fill="#000000" fill-rule="nonzero" fill-opacity="1" /><path clip-path="url(#clip870)" d="M628.444 17.4837 Q622.125 17.4837 618.925 23.7221 Q615.765 29.92 615.765 42.3968 Q615.765 54.833 618.925 61.0714 Q622.125 67.2693 628.444 67.2693 Q634.804 67.2693 637.964 61.0714 Q641.164 54.833 641.164 42.3968 Q641.164 29.92 637.964 23.7221 Q634.804 17.4837 628.444 17.4837 M628.444 11.0023 Q638.612 11.0023 643.959 19.0636 Q649.347 27.0843 649.347 42.3968 Q649.347 57.6687 643.959 65.73 Q638.612 73.7508 628.444 73.7508 Q618.276 73.7508 612.889 65.73 Q607.542 57.6687 607.542 42.3968 Q607.542 27.0843 612.889 19.0636 Q618.276 11.0023 628.444 11.0023 Z" fill="#000000" fill-rule="nonzero" fill-opacity="1" /><path clip-path="url(#clip870)" d="M681.228 17.4837 Q674.908 17.4837 671.708 23.7221 Q668.548 29.92 668.548 42.3968 Q668.548 54.833 671.708 61.0714 Q674.908 67.2693 681.228 67.2693 Q687.587 67.2693 690.747 61.0714 Q693.947 54.833 693.947 42.3968 Q693.947 29.92 690.747 23.7221 Q687.587 17.4837 681.228 17.4837 M681.228 11.0023 Q691.395 11.0023 696.742 19.0636 Q702.13 27.0843 702.13 42.3968 Q702.13 57.6687 696.742 65.73 Q691.395 73.7508 681.228 73.7508 Q671.06 73.7508 665.672 65.73 Q660.325 57.6687 660.325 42.3968 Q660.325 27.0843 665.672 19.0636 Q671.06 11.0023 681.228 11.0023 Z" fill="#000000" fill-rule="nonzero" fill-opacity="1" /><path clip-path="url(#clip870)" d="M778.409 14.0809 L778.409 22.0612 Q773.75 19.8332 769.618 18.7395 Q765.486 17.6457 761.638 17.6457 Q754.954 17.6457 751.308 20.2383 Q747.703 22.8309 747.703 27.611 Q747.703 31.6214 750.093 33.6873 Q752.523 35.7128 759.248 36.9686 L764.19 37.9813 Q773.345 39.7232 777.68 44.1387 Q782.055 48.5136 782.055 55.8863 Q782.055 64.6767 776.14 69.2137 Q770.266 73.7508 758.883 73.7508 Q754.589 73.7508 749.728 72.7785 Q744.908 71.8063 739.723 69.9024 L739.723 61.4765 Q744.705 64.2716 749.485 65.6895 Q754.265 67.1073 758.883 67.1073 Q765.891 67.1073 769.699 64.3527 Q773.507 61.598 773.507 56.4939 Q773.507 52.0379 770.753 49.5264 Q768.038 47.0148 761.8 45.759 L756.817 44.7868 Q747.662 42.9639 743.571 39.075 Q739.48 35.1862 739.48 28.2591 Q739.48 20.2383 745.11 15.6203 Q750.782 11.0023 760.706 11.0023 Q764.96 11.0023 769.375 11.7719 Q773.791 12.5416 778.409 14.0809 Z" fill="#000000" fill-rule="nonzero" fill-opacity="1" /><path clip-path="url(#clip870)" d="M815.11 49.7694 Q806.076 49.7694 802.593 51.8354 Q799.109 53.9013 799.109 58.8839 Q799.109 62.8538 801.701 65.2034 Q804.335 67.5124 808.831 67.5124 Q815.029 67.5124 818.756 63.1374 Q822.523 58.7219 822.523 51.4303 L822.523 49.7694 L815.11 49.7694 M829.977 46.6907 L829.977 72.576 L822.523 72.576 L822.523 65.6895 Q819.971 69.8214 816.163 71.8063 Q812.355 73.7508 806.846 73.7508 Q799.879 73.7508 795.747 69.8619 Q791.655 65.9325 791.655 59.3701 Q791.655 51.7138 796.759 47.825 Q801.904 43.9361 812.072 43.9361 L822.523 43.9361 L822.523 43.2069 Q822.523 38.0623 819.12 35.2672 Q815.758 32.4315 809.641 32.4315 Q805.752 32.4315 802.066 33.3632 Q798.38 34.295 794.977 36.1584 L794.977 29.2718 Q799.068 27.692 802.917 26.9223 Q806.765 26.1121 810.411 26.1121 Q820.255 26.1121 825.116 31.2163 Q829.977 36.3204 829.977 46.6907 Z" fill="#000000" fill-rule="nonzero" fill-opacity="1" /><path clip-path="url(#clip870)" d="M880.654 35.9153 Q883.449 30.8922 887.338 28.5022 Q891.226 26.1121 896.493 26.1121 Q903.582 26.1121 907.43 31.0947 Q911.278 36.0368 911.278 45.1919 L911.278 72.576 L903.784 72.576 L903.784 45.4349 Q903.784 38.913 901.475 35.7533 Q899.166 32.5936 894.427 32.5936 Q888.634 32.5936 885.272 36.4419 Q881.909 40.2903 881.909 46.9338 L881.909 72.576 L874.415 72.576 L874.415 45.4349 Q874.415 38.8725 872.106 35.7533 Q869.797 32.5936 864.977 32.5936 Q859.265 32.5936 855.903 36.4824 Q852.54 40.3308 852.54 46.9338 L852.54 72.576 L845.046 72.576 L845.046 27.2059 L852.54 27.2059 L852.54 34.2544 Q855.092 30.082 858.657 28.0971 Q862.222 26.1121 867.124 26.1121 Q872.066 26.1121 875.509 28.6237 Q878.993 31.1352 880.654 35.9153 Z" fill="#000000" fill-rule="nonzero" fill-opacity="1" /><path clip-path="url(#clip870)" d="M933.356 65.7705 L933.356 89.8329 L925.862 89.8329 L925.862 27.2059 L933.356 27.2059 L933.356 34.0924 Q935.705 30.0415 939.27 28.0971 Q942.875 26.1121 947.858 26.1121 Q956.122 26.1121 961.267 32.6746 Q966.452 39.2371 966.452 49.9314 Q966.452 60.6258 961.267 67.1883 Q956.122 73.7508 947.858 73.7508 Q942.875 73.7508 939.27 71.8063 Q935.705 69.8214 933.356 65.7705 M958.714 49.9314 Q958.714 41.7081 955.312 37.0496 Q951.949 32.3505 946.035 32.3505 Q940.121 32.3505 936.718 37.0496 Q933.356 41.7081 933.356 49.9314 Q933.356 58.1548 936.718 62.8538 Q940.121 67.5124 946.035 67.5124 Q951.949 67.5124 955.312 62.8538 Q958.714 58.1548 958.714 49.9314 Z" fill="#000000" fill-rule="nonzero" fill-opacity="1" /><path clip-path="url(#clip870)" d="M978.807 9.54393 L986.261 9.54393 L986.261 72.576 L978.807 72.576 L978.807 9.54393 Z" fill="#000000" fill-rule="nonzero" fill-opacity="1" /><path clip-path="url(#clip870)" d="M1040.66 48.0275 L1040.66 51.6733 L1006.39 51.6733 Q1006.88 59.3701 1011.01 63.421 Q1015.18 67.4314 1022.6 67.4314 Q1026.89 67.4314 1030.9 66.3781 Q1034.95 65.3249 1038.92 63.2184 L1038.92 70.267 Q1034.91 71.9684 1030.7 72.8596 Q1026.49 73.7508 1022.15 73.7508 Q1011.3 73.7508 1004.94 67.4314 Q998.616 61.1119 998.616 50.3365 Q998.616 39.1965 1004.61 32.6746 Q1010.65 26.1121 1020.86 26.1121 Q1030.01 26.1121 1035.32 32.0264 Q1040.66 37.9003 1040.66 48.0275 M1033.21 45.84 Q1033.13 39.7232 1029.77 36.0774 Q1026.45 32.4315 1020.94 32.4315 Q1014.7 32.4315 1010.93 35.9558 Q1007.2 39.4801 1006.64 45.8805 L1033.21 45.84 Z" fill="#000000" fill-rule="nonzero" fill-opacity="1" /><path clip-path="url(#clip870)" d="M1079.59 12.096 L1091.79 12.096 L1107.22 53.2532 L1122.74 12.096 L1134.93 12.096 L1134.93 72.576 L1126.95 72.576 L1126.95 19.4686 L1111.35 60.9499 L1103.13 60.9499 L1087.53 19.4686 L1087.53 72.576 L1079.59 72.576 L1079.59 12.096 Z" fill="#000000" fill-rule="nonzero" fill-opacity="1" /><path clip-path="url(#clip870)" d="M1189.66 48.0275 L1189.66 51.6733 L1155.39 51.6733 Q1155.87 59.3701 1160 63.421 Q1164.18 67.4314 1171.59 67.4314 Q1175.88 67.4314 1179.89 66.3781 Q1183.94 65.3249 1187.91 63.2184 L1187.91 70.267 Q1183.9 71.9684 1179.69 72.8596 Q1175.48 73.7508 1171.14 73.7508 Q1160.29 73.7508 1153.93 67.4314 Q1147.61 61.1119 1147.61 50.3365 Q1147.61 39.1965 1153.6 32.6746 Q1159.64 26.1121 1169.85 26.1121 Q1179 26.1121 1184.31 32.0264 Q1189.66 37.9003 1189.66 48.0275 M1182.2 45.84 Q1182.12 39.7232 1178.76 36.0774 Q1175.44 32.4315 1169.93 32.4315 Q1163.69 32.4315 1159.92 35.9558 Q1156.2 39.4801 1155.63 45.8805 L1182.2 45.84 Z" fill="#000000" fill-rule="nonzero" fill-opacity="1" /><path clip-path="url(#clip870)" d="M1222.51 49.7694 Q1213.48 49.7694 1209.99 51.8354 Q1206.51 53.9013 1206.51 58.8839 Q1206.51 62.8538 1209.1 65.2034 Q1211.73 67.5124 1216.23 67.5124 Q1222.43 67.5124 1226.16 63.1374 Q1229.92 58.7219 1229.92 51.4303 L1229.92 49.7694 L1222.51 49.7694 M1237.38 46.6907 L1237.38 72.576 L1229.92 72.576 L1229.92 65.6895 Q1227.37 69.8214 1223.56 71.8063 Q1219.75 73.7508 1214.25 73.7508 Q1207.28 73.7508 1203.15 69.8619 Q1199.05 65.9325 1199.05 59.3701 Q1199.05 51.7138 1204.16 47.825 Q1209.3 43.9361 1219.47 43.9361 L1229.92 43.9361 L1229.92 43.2069 Q1229.92 38.0623 1226.52 35.2672 Q1223.16 32.4315 1217.04 32.4315 Q1213.15 32.4315 1209.47 33.3632 Q1205.78 34.295 1202.38 36.1584 L1202.38 29.2718 Q1206.47 27.692 1210.32 26.9223 Q1214.16 26.1121 1217.81 26.1121 Q1227.65 26.1121 1232.52 31.2163 Q1237.38 36.3204 1237.38 46.6907 Z" fill="#000000" fill-rule="nonzero" fill-opacity="1" /><path clip-path="url(#clip870)" d="M1290.44 45.1919 L1290.44 72.576 L1282.99 72.576 L1282.99 45.4349 Q1282.99 38.994 1280.48 35.7938 Q1277.97 32.5936 1272.94 32.5936 Q1266.91 32.5936 1263.42 36.4419 Q1259.94 40.2903 1259.94 46.9338 L1259.94 72.576 L1252.45 72.576 L1252.45 27.2059 L1259.94 27.2059 L1259.94 34.2544 Q1262.61 30.163 1266.22 28.1376 Q1269.86 26.1121 1274.6 26.1121 Q1282.42 26.1121 1286.43 30.9732 Q1290.44 35.7938 1290.44 45.1919 Z" fill="#000000" fill-rule="nonzero" fill-opacity="1" /><path clip-path="url(#clip870)" d="M1352.3 49.7694 Q1343.27 49.7694 1339.78 51.8354 Q1336.3 53.9013 1336.3 58.8839 Q1336.3 62.8538 1338.89 65.2034 Q1341.52 67.5124 1346.02 67.5124 Q1352.22 67.5124 1355.95 63.1374 Q1359.71 58.7219 1359.71 51.4303 L1359.71 49.7694 L1352.3 49.7694 M1367.17 46.6907 L1367.17 72.576 L1359.71 72.576 L1359.71 65.6895 Q1357.16 69.8214 1353.35 71.8063 Q1349.55 73.7508 1344.04 73.7508 Q1337.07 73.7508 1332.94 69.8619 Q1328.85 65.9325 1328.85 59.3701 Q1328.85 51.7138 1333.95 47.825 Q1339.09 43.9361 1349.26 43.9361 L1359.71 43.9361 L1359.71 43.2069 Q1359.71 38.0623 1356.31 35.2672 Q1352.95 32.4315 1346.83 32.4315 Q1342.94 32.4315 1339.26 33.3632 Q1335.57 34.295 1332.17 36.1584 L1332.17 29.2718 Q1336.26 27.692 1340.11 26.9223 Q1343.96 26.1121 1347.6 26.1121 Q1357.44 26.1121 1362.31 31.2163 Q1367.17 36.3204 1367.17 46.6907 Z" fill="#000000" fill-rule="nonzero" fill-opacity="1" /><path clip-path="url(#clip870)" d="M1420.23 45.1919 L1420.23 72.576 L1412.78 72.576 L1412.78 45.4349 Q1412.78 38.994 1410.27 35.7938 Q1407.76 32.5936 1402.73 32.5936 Q1396.7 32.5936 1393.21 36.4419 Q1389.73 40.2903 1389.73 46.9338 L1389.73 72.576 L1382.24 72.576 L1382.24 27.2059 L1389.73 27.2059 L1389.73 34.2544 Q1392.4 30.163 1396.01 28.1376 Q1399.66 26.1121 1404.39 26.1121 Q1412.21 26.1121 1416.22 30.9732 Q1420.23 35.7938 1420.23 45.1919 Z" fill="#000000" fill-rule="nonzero" fill-opacity="1" /><path clip-path="url(#clip870)" d="M1464.96 34.0924 L1464.96 9.54393 L1472.41 9.54393 L1472.41 72.576 L1464.96 72.576 L1464.96 65.7705 Q1462.61 69.8214 1459 71.8063 Q1455.44 73.7508 1450.41 73.7508 Q1442.19 73.7508 1437 67.1883 Q1431.86 60.6258 1431.86 49.9314 Q1431.86 39.2371 1437 32.6746 Q1442.19 26.1121 1450.41 26.1121 Q1455.44 26.1121 1459 28.0971 Q1462.61 30.0415 1464.96 34.0924 M1439.56 49.9314 Q1439.56 58.1548 1442.92 62.8538 Q1446.32 67.5124 1452.24 67.5124 Q1458.15 67.5124 1461.55 62.8538 Q1464.96 58.1548 1464.96 49.9314 Q1464.96 41.7081 1461.55 37.0496 Q1458.15 32.3505 1452.24 32.3505 Q1446.32 32.3505 1442.92 37.0496 Q1439.56 41.7081 1439.56 49.9314 Z" fill="#000000" fill-rule="nonzero" fill-opacity="1" /><path clip-path="url(#clip870)" d="M1550.71 14.0809 L1550.71 22.0612 Q1546.06 19.8332 1541.92 18.7395 Q1537.79 17.6457 1533.94 17.6457 Q1527.26 17.6457 1523.61 20.2383 Q1520.01 22.8309 1520.01 27.611 Q1520.01 31.6214 1522.4 33.6873 Q1524.83 35.7128 1531.55 36.9686 L1536.49 37.9813 Q1545.65 39.7232 1549.98 44.1387 Q1554.36 48.5136 1554.36 55.8863 Q1554.36 64.6767 1548.45 69.2137 Q1542.57 73.7508 1531.19 73.7508 Q1526.89 73.7508 1522.03 72.7785 Q1517.21 71.8063 1512.03 69.9024 L1512.03 61.4765 Q1517.01 64.2716 1521.79 65.6895 Q1526.57 67.1073 1531.19 67.1073 Q1538.2 67.1073 1542 64.3527 Q1545.81 61.598 1545.81 56.4939 Q1545.81 52.0379 1543.06 49.5264 Q1540.34 47.0148 1534.1 45.759 L1529.12 44.7868 Q1519.97 42.9639 1515.88 39.075 Q1511.78 35.1862 1511.78 28.2591 Q1511.78 20.2383 1517.42 15.6203 Q1523.09 11.0023 1533.01 11.0023 Q1537.26 11.0023 1541.68 11.7719 Q1546.1 12.5416 1550.71 14.0809 Z" fill="#000000" fill-rule="nonzero" fill-opacity="1" /><path clip-path="url(#clip870)" d="M1574.17 14.324 L1574.17 27.2059 L1589.52 27.2059 L1589.52 32.9987 L1574.17 32.9987 L1574.17 57.6282 Q1574.17 63.1779 1575.67 64.7578 Q1577.21 66.3376 1581.87 66.3376 L1589.52 66.3376 L1589.52 72.576 L1581.87 72.576 Q1573.24 72.576 1569.96 69.3758 Q1566.67 66.1351 1566.67 57.6282 L1566.67 32.9987 L1561.21 32.9987 L1561.21 27.2059 L1566.67 27.2059 L1566.67 14.324 L1574.17 14.324 Z" fill="#000000" fill-rule="nonzero" fill-opacity="1" /><path clip-path="url(#clip870)" d="M1629.18 34.0924 L1629.18 9.54393 L1636.63 9.54393 L1636.63 72.576 L1629.18 72.576 L1629.18 65.7705 Q1626.83 69.8214 1623.22 71.8063 Q1619.66 73.7508 1614.64 73.7508 Q1606.41 73.7508 1601.23 67.1883 Q1596.08 60.6258 1596.08 49.9314 Q1596.08 39.2371 1601.23 32.6746 Q1606.41 26.1121 1614.64 26.1121 Q1619.66 26.1121 1623.22 28.0971 Q1626.83 30.0415 1629.18 34.0924 M1603.78 49.9314 Q1603.78 58.1548 1607.14 62.8538 Q1610.55 67.5124 1616.46 67.5124 Q1622.37 67.5124 1625.78 62.8538 Q1629.18 58.1548 1629.18 49.9314 Q1629.18 41.7081 1625.78 37.0496 Q1622.37 32.3505 1616.46 32.3505 Q1610.55 32.3505 1607.14 37.0496 Q1603.78 41.7081 1603.78 49.9314 Z" fill="#000000" fill-rule="nonzero" fill-opacity="1" /><path clip-path="url(#clip870)" d="M1653.04 62.2867 L1661.59 62.2867 L1661.59 72.576 L1653.04 72.576 L1653.04 62.2867 Z" fill="#000000" fill-rule="nonzero" fill-opacity="1" /><path clip-path="url(#clip870)" d="M1680.26 62.2867 L1688.81 62.2867 L1688.81 69.2543 L1682.17 82.2172 L1676.94 82.2172 L1680.26 69.2543 L1680.26 62.2867 Z" fill="#000000" fill-rule="nonzero" fill-opacity="1" /><path clip-path="url(#clip870)" d="M1763.95 20.0358 Q1759.82 17.2001 1750.14 17.2001 Q1739.89 17.2001 1739.89 21.9397 Q1739.89 25.6665 1750.59 27.611 Q1759.01 29.1098 1763.75 33.6468 Q1769.5 39.1155 1769.5 50.3365 Q1769.5 61.0714 1763.95 67.3908 Q1758.4 73.7508 1748.68 73.7508 Q1739 73.7508 1733.41 67.3908 Q1727.86 61.0714 1727.86 49.9314 Q1727.86 41.6676 1733.41 34.9836 Q1735.56 32.391 1738.59 30.9327 Q1732.28 27.7325 1732.28 22.0207 Q1732.28 11.0023 1750.14 11.0023 Q1759.09 11.0023 1763.95 13.8379 L1763.95 20.0358 M1744.18 32.9582 Q1741.43 34.1329 1739.2 37.0901 Q1735.72 41.6676 1735.72 49.9314 Q1735.72 58.1548 1739.16 62.7728 Q1742.65 67.4314 1748.68 67.4314 Q1754.64 67.4314 1758.12 62.7323 Q1761.6 58.0333 1761.6 50.3365 Q1761.6 42.2752 1757.92 38.3864 Q1753.99 34.2139 1748.88 33.7683 Q1746.29 33.5253 1744.18 32.9582 Z" fill="#000000" fill-rule="nonzero" fill-opacity="1" /><path clip-path="url(#clip870)" d="M1819.57 27.2059 L1803.17 49.2833 L1820.42 72.576 L1811.63 72.576 L1798.43 54.752 L1785.22 72.576 L1776.43 72.576 L1794.05 48.8377 L1777.93 27.2059 L1786.72 27.2059 L1798.75 43.369 L1810.78 27.2059 L1819.57 27.2059 Z" fill="#000000" fill-rule="nonzero" fill-opacity="1" /><path clip-path="url(#clip870)" d="M1831.93 34.9026 L1883.86 34.9026 L1883.86 41.7081 L1831.93 41.7081 L1831.93 34.9026 M1831.93 51.4303 L1883.86 51.4303 L1883.86 58.3168 L1831.93 58.3168 L1831.93 51.4303 Z" fill="#000000" fill-rule="nonzero" fill-opacity="1" /><path clip-path="url(#clip870)" d="M1919.02 17.4837 Q1912.7 17.4837 1909.5 23.7221 Q1906.34 29.92 1906.34 42.3968 Q1906.34 54.833 1909.5 61.0714 Q1912.7 67.2693 1919.02 67.2693 Q1925.38 67.2693 1928.54 61.0714 Q1931.74 54.833 1931.74 42.3968 Q1931.74 29.92 1928.54 23.7221 Q1925.38 17.4837 1919.02 17.4837 M1919.02 11.0023 Q1929.19 11.0023 1934.54 19.0636 Q1939.92 27.0843 1939.92 42.3968 Q1939.92 57.6687 1934.54 65.73 Q1929.19 73.7508 1919.02 73.7508 Q1908.85 73.7508 1903.47 65.73 Q1898.12 57.6687 1898.12 42.3968 Q1898.12 27.0843 1903.47 19.0636 Q1908.85 11.0023 1919.02 11.0023 Z" fill="#000000" fill-rule="nonzero" fill-opacity="1" /><path clip-path="url(#clip870)" d="M1954.31 62.2867 L1962.85 62.2867 L1962.85 72.576 L1954.31 72.576 L1954.31 62.2867 Z" fill="#000000" fill-rule="nonzero" fill-opacity="1" /><path clip-path="url(#clip870)" d="M1998.18 17.4837 Q1991.86 17.4837 1988.66 23.7221 Q1985.5 29.92 1985.5 42.3968 Q1985.5 54.833 1988.66 61.0714 Q1991.86 67.2693 1998.18 67.2693 Q2004.54 67.2693 2007.7 61.0714 Q2010.9 54.833 2010.9 42.3968 Q2010.9 29.92 2007.7 23.7221 Q2004.54 17.4837 1998.18 17.4837 M1998.18 11.0023 Q2008.34 11.0023 2013.69 19.0636 Q2019.08 27.0843 2019.08 42.3968 Q2019.08 57.6687 2013.69 65.73 Q2008.34 73.7508 1998.18 73.7508 Q1988.01 73.7508 1982.62 65.73 Q1977.27 57.6687 1977.27 42.3968 Q1977.27 27.0843 1982.62 19.0636 Q1988.01 11.0023 1998.18 11.0023 Z" fill="#000000" fill-rule="nonzero" fill-opacity="1" /><path clip-path="url(#clip870)" d="M2034.88 65.6895 L2048.25 65.6895 L2048.25 19.5497 L2033.7 22.4663 L2033.7 15.0127 L2048.16 12.096 L2056.35 12.096 L2056.35 65.6895 L2069.72 65.6895 L2069.72 72.576 L2034.88 72.576 L2034.88 65.6895 Z" fill="#000000" fill-rule="nonzero" fill-opacity="1" /><path clip-path="url(#clip872)" d="M280.231 1348.93 L300.556 1348.03 L320.881 1356.29 L341.206 1358.23 L361.53 1378.12 L381.855 1357.13 L402.18 1376.64 L422.505 1366.9 L442.83 1373.03 L463.155 1374.13 L483.48 1362.68 L503.804 1362.98 L524.129 1371.08 L544.454 1373.57 L564.779 1385.61 L585.104 1375.83 L605.429 1371.88 L625.753 1370.2 L646.078 1361.55 L666.403 1356.28 L686.728 1353.44 L707.053 1354.37 L727.378 1353.15 L747.703 1327.3 L768.027 1324.48 L788.352 1326.74 L808.677 1299.22 L829.002 1308.41 L849.327 1296.57 L869.652 1292.33 L889.977 1286.72 L910.301 1273.78 L930.626 1300.34 L950.951 1270.12 L971.276 1275.62 L991.601 1269.44 L1011.93 1278.77 L1032.25 1262.19 L1052.58 1281.65 L1072.9 1288.75 L1093.23 1274.67 L1113.55 1283.9 L1133.87 1302.96 L1154.2 1309.72 L1174.52 1299.77 L1194.85 1319.32 L1215.17 1330.93 L1235.5 1317.9 L1255.82 1334.8 L1276.15 1347.91 L1296.47 1332.63 L1316.8 1353.56 L1337.12 1356.69 L1357.45 1360.42 L1377.77 1368.72 L1398.1 1369.02 L1418.42 1374.46 L1438.75 1386.4 L1459.07 1381.22 L1479.4 1382.52 L1499.72 1375.08 L1520.05 1382.7 L1540.37 1384.98 L1560.7 1384.79 L1581.02 1378.92 L1601.35 1363.74 L1621.67 1360.27 L1642 1368.7 L1662.32 1360.18 L1682.65 1353.24 L1702.97 1366.4 L1723.3 1353.2 L1743.62 1357.06 L1763.95 1324.42 L1784.27 1320.2 L1804.59 1334.93 L1824.92 1309.74 L1845.24 1302.14 L1865.57 1305.37 L1885.89 1295.74 L1906.22 1300.01 L1926.54 1280.56 L1946.87 1284.29 L1967.19 1278.8 L1987.52 1281.66 L2007.84 1269.27 L2028.17 1286.93 L2048.49 1261.28 L2068.82 1270.5 L2089.14 1289.86 L2109.47 1284.46 L2129.79 1284.86 L2150.12 1292.61 L2170.44 1310.58 L2190.77 1314.59 L2211.09 1325.45 L2231.42 1329.08 L2251.74 1337.05 L2272.07 1336.4 L2292.39 1343.25 L2292.39 242.227 L2272.07 235.375 L2251.74 236.021 L2231.42 228.05 L2211.09 224.429 L2190.77 213.561 L2170.44 209.553 L2150.12 191.586 L2129.79 183.836 L2109.47 183.438 L2089.14 188.832 L2068.82 169.475 L2048.49 160.256 L2028.17 185.906 L2007.84 168.246 L1987.52 180.639 L1967.19 177.773 L1946.87 183.261 L1926.54 179.538 L1906.22 198.982 L1885.89 194.715 L1865.57 204.343 L1845.24 201.112 L1824.92 208.712 L1804.59 233.906 L1784.27 219.173 L1763.95 223.399 L1743.62 256.032 L1723.3 252.171 L1702.97 265.375 L1682.65 252.212 L1662.32 259.154 L1642 267.674 L1621.67 259.248 L1601.35 262.715 L1581.02 277.891 L1560.7 283.763 L1540.37 283.954 L1520.05 281.674 L1499.72 274.06 L1479.4 281.49 L1459.07 280.194 L1438.75 285.371 L1418.42 273.436 L1398.1 267.997 L1377.77 267.696 L1357.45 259.398 L1337.12 255.664 L1316.8 252.531 L1296.47 231.604 L1276.15 246.885 L1255.82 233.771 L1235.5 216.878 L1215.17 229.902 L1194.85 218.294 L1174.52 198.746 L1154.2 208.693 L1133.87 201.931 L1113.55 182.874 L1093.23 173.641 L1072.9 187.72 L1052.58 180.62 L1032.25 161.169 L1011.93 177.747 L991.601 168.415 L971.276 174.595 L950.951 169.095 L930.626 199.313 L910.301 172.754 L889.977 185.699 L869.652 191.3 L849.327 195.545 L829.002 207.385 L808.677 198.197 L788.352 225.713 L768.027 223.46 L747.703 226.273 L727.378 252.129 L707.053 253.343 L686.728 252.415 L666.403 255.251 L646.078 260.529 L625.753 269.176 L605.429 270.852 L585.104 274.807 L564.779 284.582 L544.454 272.542 L524.129 270.055 L503.804 261.956 L483.48 261.652 L463.155 273.102 L442.83 272.009 L422.505 265.874 L402.18 275.611 L381.855 256.107 L361.53 277.091 L341.206 257.208 L320.881 255.27 L300.556 247.005 L280.231 247.907  Z" fill="#009af9" fill-rule="evenodd" fill-opacity="0.5"/>
<polyline clip-path="url(#clip872)" style="stroke:#009af9; stroke-linecap:round; stroke-linejoin:round; stroke-width:8; stroke-opacity:0.8; fill:none" points="280.231,798.419 300.556,797.518 320.881,805.782 341.206,807.721 361.53,827.604 381.855,806.62 402.18,826.124 422.505,816.387 442.83,822.521 463.155,823.614 483.48,812.165 503.804,812.469 524.129,820.568 544.454,823.055 564.779,835.094 585.104,825.32 605.429,821.364 625.753,819.689 646.078,811.041 666.403,805.763 686.728,802.927 707.053,803.855 727.378,802.642 747.703,776.786 768.027,773.972 788.352,776.226 808.677,748.71 829.002,757.898 849.327,746.057 869.652,741.813 889.977,736.212 910.301,723.267 930.626,749.825 950.951,719.608 971.276,725.107 991.601,718.928 1011.93,728.259 1032.25,711.682 1052.58,731.133 1072.9,738.233 1093.23,724.153 1113.55,733.387 1133.87,752.444 1154.2,759.205 1174.52,749.258 1194.85,768.807 1215.17,780.415 1235.5,767.391 1255.82,784.284 1276.15,797.398 1296.47,782.116 1316.8,803.044 1337.12,806.177 1357.45,809.911 1377.77,818.209 1398.1,818.509 1418.42,823.949 1438.75,835.883 1459.07,830.707 1479.4,832.003 1499.72,824.572 1520.05,832.187 1540.37,834.467 1560.7,834.275 1581.02,828.404 1601.35,813.228 1621.67,809.76 1642,818.186 1662.32,809.666 1682.65,802.724 1702.97,815.887 1723.3,802.683 1743.62,806.545 1763.95,773.912 1784.27,769.686 1804.59,784.419 1824.92,759.224 1845.24,751.625 1865.57,754.855 1885.89,745.227 1906.22,749.495 1926.54,730.051 1946.87,733.774 1967.19,728.285 1987.52,731.152 2007.84,718.759 2028.17,736.418 2048.49,710.769 2068.82,719.987 2089.14,739.345 2109.47,733.95 2129.79,734.348 2150.12,742.098 2170.44,760.066 2190.77,764.074 2211.09,774.941 2231.42,778.563 2251.74,786.534 2272.07,785.888 2292.39,792.74 "/>
<path clip-path="url(#clip872)" d="M280.231 1044.13 L300.556 1044.48 L320.881 1044.89 L341.206 1045.36 L361.53 1045.89 L381.855 1046.47 L402.18 1047.09 L422.505 1047.74 L442.83 1048.42 L463.155 1049.11 L483.48 1049.8 L503.804 1050.48 L524.129 1051.14 L544.454 1051.75 L564.779 1052.32 L585.104 1052.82 L605.429 1053.25 L625.753 1053.6 L646.078 1053.87 L666.403 1054.05 L686.728 1054.14 L707.053 1054.15 L727.378 1054.08 L747.703 1053.93 L768.027 1053.7 L788.352 1053.4 L808.677 1053.04 L829.002 1052.61 L849.327 1052.12 L869.652 1051.58 L889.977 1050.99 L910.301 1050.37 L930.626 1049.71 L950.951 1049.02 L971.276 1048.33 L991.601 1047.64 L1011.93 1046.96 L1032.25 1046.32 L1052.58 1045.71 L1072.9 1045.16 L1093.23 1044.68 L1113.55 1044.27 L1133.87 1043.93 L1154.2 1043.69 L1174.52 1043.53 L1194.85 1043.46 L1215.17 1043.47 L1235.5 1043.56 L1255.82 1043.73 L1276.15 1043.98 L1296.47 1044.29 L1316.8 1044.68 L1337.12 1045.12 L1357.45 1045.62 L1377.77 1046.17 L1398.1 1046.77 L1418.42 1047.41 L1438.75 1048.07 L1459.07 1048.76 L1479.4 1049.46 L1499.72 1050.14 L1520.05 1050.81 L1540.37 1051.45 L1560.7 1052.04 L1581.02 1052.58 L1601.35 1053.05 L1621.67 1053.44 L1642 1053.75 L1662.32 1053.97 L1682.65 1054.11 L1702.97 1054.16 L1723.3 1054.13 L1743.62 1054.01 L1763.95 1053.82 L1784.27 1053.56 L1804.59 1053.23 L1824.92 1052.83 L1845.24 1052.37 L1865.57 1051.86 L1885.89 1051.29 L1906.22 1050.68 L1926.54 1050.04 L1946.87 1049.37 L1967.19 1048.68 L1987.52 1047.98 L2007.84 1047.3 L2028.17 1046.63 L2048.49 1046.01 L2068.82 1045.43 L2089.14 1044.91 L2109.47 1044.46 L2129.79 1044.09 L2150.12 1043.8 L2170.44 1043.6 L2190.77 1043.48 L2211.09 1043.45 L2231.42 1043.5 L2251.74 1043.64 L2272.07 1043.85 L2292.39 1044.13 L2292.39 437.964 L2272.07 437.682 L2251.74 437.473 L2231.42 437.341 L2211.09 437.288 L2190.77 437.319 L2170.44 437.435 L2150.12 437.638 L2129.79 437.927 L2109.47 438.298 L2089.14 438.746 L2068.82 439.265 L2048.49 439.844 L2028.17 440.472 L2007.84 441.135 L1987.52 441.82 L1967.19 442.514 L1946.87 443.204 L1926.54 443.876 L1906.22 444.521 L1885.89 445.13 L1865.57 445.694 L1845.24 446.208 L1824.92 446.666 L1804.59 447.064 L1784.27 447.397 L1763.95 447.661 L1743.62 447.851 L1723.3 447.964 L1702.97 447.996 L1682.65 447.944 L1662.32 447.806 L1642 447.582 L1621.67 447.273 L1601.35 446.882 L1581.02 446.415 L1560.7 445.881 L1540.37 445.289 L1520.05 444.651 L1499.72 443.981 L1479.4 443.292 L1459.07 442.598 L1438.75 441.912 L1418.42 441.245 L1398.1 440.608 L1377.77 440.01 L1357.45 439.457 L1337.12 438.956 L1316.8 438.513 L1296.47 438.13 L1276.15 437.814 L1255.82 437.568 L1235.5 437.397 L1215.17 437.304 L1194.85 437.293 L1174.52 437.366 L1154.2 437.526 L1133.87 437.772 L1113.55 438.102 L1093.23 438.513 L1072.9 438.998 L1052.58 439.548 L1032.25 440.152 L1011.93 440.8 L991.601 441.476 L971.276 442.167 L950.951 442.86 L930.626 443.543 L910.301 444.203 L889.977 444.831 L869.652 445.418 L849.327 445.958 L829.002 446.444 L808.677 446.873 L788.352 447.239 L768.027 447.538 L747.703 447.765 L727.378 447.917 L707.053 447.99 L686.728 447.981 L666.403 447.886 L646.078 447.705 L625.753 447.438 L605.429 447.087 L585.104 446.658 L564.779 446.156 L544.454 445.591 L524.129 444.975 L503.804 444.319 L483.48 443.638 L463.155 442.945 L442.83 442.253 L422.505 441.575 L402.18 440.922 L381.855 440.303 L361.53 439.727 L341.206 439.2 L320.881 438.727 L300.556 438.314 L280.231 437.964  Z" fill="#e26f46" fill-rule="evenodd" fill-opacity="0.5"/>
<polyline clip-path="url(#clip872)" style="stroke:#e26f46; stroke-linecap:round; stroke-linejoin:round; stroke-width:8; stroke-opacity:0.8; fill:none" points="280.231,741.045 300.556,741.395 320.881,741.809 341.206,742.281 361.53,742.809 381.855,743.385 402.18,744.004 422.505,744.657 442.83,745.335 463.155,746.026 483.48,746.719 503.804,747.401 524.129,748.056 544.454,748.673 564.779,749.237 585.104,749.739 605.429,750.169 625.753,750.519 646.078,750.786 666.403,750.967 686.728,751.062 707.053,751.072 727.378,750.999 747.703,750.847 768.027,750.619 788.352,750.32 808.677,749.955 829.002,749.526 849.327,749.039 869.652,748.499 889.977,747.912 910.301,747.284 930.626,746.624 950.951,745.942 971.276,745.249 991.601,744.557 1011.93,743.881 1032.25,743.234 1052.58,742.629 1072.9,742.079 1093.23,741.594 1113.55,741.184 1133.87,740.853 1154.2,740.608 1174.52,740.448 1194.85,740.374 1215.17,740.386 1235.5,740.479 1255.82,740.65 1276.15,740.896 1296.47,741.212 1316.8,741.594 1337.12,742.038 1357.45,742.539 1377.77,743.091 1398.1,743.689 1418.42,744.326 1438.75,744.993 1459.07,745.679 1479.4,746.373 1499.72,747.062 1520.05,747.733 1540.37,748.37 1560.7,748.962 1581.02,749.497 1601.35,749.964 1621.67,750.354 1642,750.664 1662.32,750.888 1682.65,751.026 1702.97,751.078 1723.3,751.046 1743.62,750.933 1763.95,750.742 1784.27,750.478 1804.59,750.146 1824.92,749.748 1845.24,749.29 1865.57,748.776 1885.89,748.211 1906.22,747.603 1926.54,746.958 1946.87,746.285 1967.19,745.596 1987.52,744.902 2007.84,744.216 2028.17,743.553 2048.49,742.925 2068.82,742.347 2089.14,741.828 2109.47,741.379 2129.79,741.008 2150.12,740.72 2170.44,740.517 2190.77,740.401 2211.09,740.37 2231.42,740.422 2251.74,740.555 2272.07,740.764 2292.39,741.045 "/>
<path clip-path="url(#clip870)" d="M1565.06 322.316 L2281.66 322.316 L2281.66 166.796 L1565.06 166.796  Z" fill="#ffffff" fill-rule="evenodd" fill-opacity="1"/>
<polyline clip-path="url(#clip870)" style="stroke:#000000; stroke-linecap:round; stroke-linejoin:round; stroke-width:4; stroke-opacity:1; fill:none" points="1565.06,322.316 2281.66,322.316 2281.66,166.796 1565.06,166.796 1565.06,322.316 "/>
<polyline clip-path="url(#clip870)" style="stroke:#009af9; stroke-linecap:round; stroke-linejoin:round; stroke-width:8; stroke-opacity:0.8; fill:none" points="1588.76,218.636 1730.95,218.636 "/>
<path clip-path="url(#clip870)" d="M1754.65 201.356 L1761.62 201.356 L1770.44 224.874 L1779.31 201.356 L1786.27 201.356 L1786.27 235.916 L1781.71 235.916 L1781.71 205.569 L1772.8 229.272 L1768.1 229.272 L1759.19 205.569 L1759.19 235.916 L1754.65 235.916 L1754.65 201.356 Z" fill="#000000" fill-rule="nonzero" fill-opacity="1" /><path clip-path="url(#clip870)" d="M1800.23 205.198 L1800.23 218.184 L1806.11 218.184 Q1809.38 218.184 1811.16 216.495 Q1812.94 214.805 1812.94 211.68 Q1812.94 208.578 1811.16 206.888 Q1809.38 205.198 1806.11 205.198 L1800.23 205.198 M1795.56 201.356 L1806.11 201.356 Q1811.92 201.356 1814.88 203.995 Q1817.87 206.61 1817.87 211.68 Q1817.87 216.795 1814.88 219.411 Q1811.92 222.027 1806.11 222.027 L1800.23 222.027 L1800.23 235.916 L1795.56 235.916 L1795.56 201.356 Z" fill="#000000" fill-rule="nonzero" fill-opacity="1" /><path clip-path="url(#clip870)" d="M1844.86 202.49 L1844.86 207.05 Q1842.2 205.777 1839.84 205.152 Q1837.48 204.527 1835.28 204.527 Q1831.46 204.527 1829.38 206.008 Q1827.31 207.49 1827.31 210.221 Q1827.31 212.513 1828.68 213.694 Q1830.07 214.851 1833.91 215.569 L1836.74 216.147 Q1841.97 217.143 1844.44 219.666 Q1846.94 222.166 1846.94 226.379 Q1846.94 231.402 1843.56 233.994 Q1840.21 236.587 1833.7 236.587 Q1831.25 236.587 1828.47 236.031 Q1825.72 235.476 1822.75 234.388 L1822.75 229.573 Q1825.6 231.17 1828.33 231.981 Q1831.06 232.791 1833.7 232.791 Q1837.71 232.791 1839.88 231.217 Q1842.06 229.643 1842.06 226.726 Q1842.06 224.18 1840.49 222.744 Q1838.94 221.309 1835.37 220.592 L1832.52 220.036 Q1827.29 218.995 1824.95 216.772 Q1822.62 214.55 1822.62 210.592 Q1822.62 206.008 1825.83 203.37 Q1829.07 200.731 1834.75 200.731 Q1837.18 200.731 1839.7 201.171 Q1842.22 201.61 1844.86 202.49 Z" fill="#000000" fill-rule="nonzero" fill-opacity="1" /><path clip-path="url(#clip870)" d="M1873.98 205.198 L1873.98 232.073 L1879.63 232.073 Q1886.78 232.073 1890.09 228.832 Q1893.43 225.592 1893.43 218.601 Q1893.43 211.657 1890.09 208.439 Q1886.78 205.198 1879.63 205.198 L1873.98 205.198 M1869.31 201.356 L1878.91 201.356 Q1888.96 201.356 1893.66 205.546 Q1898.36 209.712 1898.36 218.601 Q1898.36 227.536 1893.63 231.726 Q1888.91 235.916 1878.91 235.916 L1869.31 235.916 L1869.31 201.356 Z" fill="#000000" fill-rule="nonzero" fill-opacity="1" /><path clip-path="url(#clip870)" d="M1905.62 209.99 L1909.88 209.99 L1909.88 235.916 L1905.62 235.916 L1905.62 209.99 M1905.62 199.897 L1909.88 199.897 L1909.88 205.291 L1905.62 205.291 L1905.62 199.897 Z" fill="#000000" fill-rule="nonzero" fill-opacity="1" /><path clip-path="url(#clip870)" d="M1935.32 210.754 L1935.32 214.782 Q1933.52 213.856 1931.57 213.393 Q1929.63 212.93 1927.55 212.93 Q1924.37 212.93 1922.78 213.902 Q1921.2 214.874 1921.2 216.819 Q1921.2 218.3 1922.34 219.157 Q1923.47 219.99 1926.9 220.754 L1928.36 221.078 Q1932.89 222.05 1934.79 223.832 Q1936.71 225.592 1936.71 228.763 Q1936.71 232.374 1933.84 234.481 Q1930.99 236.587 1925.99 236.587 Q1923.91 236.587 1921.64 236.17 Q1919.4 235.777 1916.9 234.967 L1916.9 230.569 Q1919.26 231.795 1921.55 232.42 Q1923.84 233.022 1926.09 233.022 Q1929.1 233.022 1930.72 232.004 Q1932.34 230.962 1932.34 229.087 Q1932.34 227.351 1931.16 226.425 Q1930 225.499 1926.04 224.643 L1924.56 224.295 Q1920.6 223.462 1918.84 221.749 Q1917.08 220.013 1917.08 217.004 Q1917.08 213.346 1919.68 211.356 Q1922.27 209.365 1927.04 209.365 Q1929.4 209.365 1931.48 209.712 Q1933.56 210.059 1935.32 210.754 Z" fill="#000000" fill-rule="nonzero" fill-opacity="1" /><path clip-path="url(#clip870)" d="M1947.71 202.629 L1947.71 209.99 L1956.48 209.99 L1956.48 213.3 L1947.71 213.3 L1947.71 227.374 Q1947.71 230.545 1948.56 231.448 Q1949.44 232.351 1952.11 232.351 L1956.48 232.351 L1956.48 235.916 L1952.11 235.916 Q1947.18 235.916 1945.3 234.087 Q1943.43 232.235 1943.43 227.374 L1943.43 213.3 L1940.3 213.3 L1940.3 209.99 L1943.43 209.99 L1943.43 202.629 L1947.71 202.629 Z" fill="#000000" fill-rule="nonzero" fill-opacity="1" /><path clip-path="url(#clip870)" d="M1977.11 213.971 Q1976.39 213.555 1975.53 213.37 Q1974.7 213.161 1973.68 213.161 Q1970.07 213.161 1968.12 215.522 Q1966.2 217.86 1966.2 222.258 L1966.2 235.916 L1961.92 235.916 L1961.92 209.99 L1966.2 209.99 L1966.2 214.018 Q1967.55 211.657 1969.7 210.522 Q1971.85 209.365 1974.93 209.365 Q1975.37 209.365 1975.9 209.434 Q1976.43 209.481 1977.08 209.596 L1977.11 213.971 Z" fill="#000000" fill-rule="nonzero" fill-opacity="1" /><path clip-path="url(#clip870)" d="M1981.57 209.99 L1985.83 209.99 L1985.83 235.916 L1981.57 235.916 L1981.57 209.99 M1981.57 199.897 L1985.83 199.897 L1985.83 205.291 L1981.57 205.291 L1981.57 199.897 Z" fill="#000000" fill-rule="nonzero" fill-opacity="1" /><path clip-path="url(#clip870)" d="M2013.36 222.976 Q2013.36 218.277 2011.41 215.615 Q2009.49 212.93 2006.11 212.93 Q2002.73 212.93 2000.79 215.615 Q1998.86 218.277 1998.86 222.976 Q1998.86 227.675 2000.79 230.36 Q2002.73 233.022 2006.11 233.022 Q2009.49 233.022 2011.41 230.36 Q2013.36 227.675 2013.36 222.976 M1998.86 213.925 Q2000.21 211.61 2002.24 210.499 Q2004.3 209.365 2007.15 209.365 Q2011.87 209.365 2014.81 213.115 Q2017.78 216.865 2017.78 222.976 Q2017.78 229.087 2014.81 232.837 Q2011.87 236.587 2007.15 236.587 Q2004.3 236.587 2002.24 235.476 Q2000.21 234.342 1998.86 232.027 L1998.86 235.916 L1994.58 235.916 L1994.58 199.897 L1998.86 199.897 L1998.86 213.925 Z" fill="#000000" fill-rule="nonzero" fill-opacity="1" /><path clip-path="url(#clip870)" d="M2024.4 225.684 L2024.4 209.99 L2028.66 209.99 L2028.66 225.522 Q2028.66 229.203 2030.09 231.055 Q2031.53 232.883 2034.4 232.883 Q2037.85 232.883 2039.84 230.684 Q2041.85 228.485 2041.85 224.689 L2041.85 209.99 L2046.11 209.99 L2046.11 235.916 L2041.85 235.916 L2041.85 231.934 Q2040.3 234.295 2038.24 235.453 Q2036.2 236.587 2033.49 236.587 Q2029.03 236.587 2026.71 233.809 Q2024.4 231.031 2024.4 225.684 M2035.11 209.365 L2035.11 209.365 Z" fill="#000000" fill-rule="nonzero" fill-opacity="1" /><path clip-path="url(#clip870)" d="M2059.1 202.629 L2059.1 209.99 L2067.87 209.99 L2067.87 213.3 L2059.1 213.3 L2059.1 227.374 Q2059.1 230.545 2059.95 231.448 Q2060.83 232.351 2063.49 232.351 L2067.87 232.351 L2067.87 235.916 L2063.49 235.916 Q2058.56 235.916 2056.69 234.087 Q2054.81 232.235 2054.81 227.374 L2054.81 213.3 L2051.69 213.3 L2051.69 209.99 L2054.81 209.99 L2054.81 202.629 L2059.1 202.629 Z" fill="#000000" fill-rule="nonzero" fill-opacity="1" /><path clip-path="url(#clip870)" d="M2073.47 209.99 L2077.73 209.99 L2077.73 235.916 L2073.47 235.916 L2073.47 209.99 M2073.47 199.897 L2077.73 199.897 L2077.73 205.291 L2073.47 205.291 L2073.47 199.897 Z" fill="#000000" fill-rule="nonzero" fill-opacity="1" /><path clip-path="url(#clip870)" d="M2096.69 212.976 Q2093.26 212.976 2091.27 215.661 Q2089.28 218.323 2089.28 222.976 Q2089.28 227.629 2091.25 230.314 Q2093.24 232.976 2096.69 232.976 Q2100.09 232.976 2102.08 230.291 Q2104.07 227.606 2104.07 222.976 Q2104.07 218.37 2102.08 215.684 Q2100.09 212.976 2096.69 212.976 M2096.69 209.365 Q2102.24 209.365 2105.42 212.976 Q2108.59 216.587 2108.59 222.976 Q2108.59 229.342 2105.42 232.976 Q2102.24 236.587 2096.69 236.587 Q2091.11 236.587 2087.94 232.976 Q2084.79 229.342 2084.79 222.976 Q2084.79 216.587 2087.94 212.976 Q2091.11 209.365 2096.69 209.365 Z" fill="#000000" fill-rule="nonzero" fill-opacity="1" /><path clip-path="url(#clip870)" d="M2137.2 220.268 L2137.2 235.916 L2132.94 235.916 L2132.94 220.407 Q2132.94 216.726 2131.5 214.897 Q2130.07 213.069 2127.2 213.069 Q2123.75 213.069 2121.76 215.268 Q2119.77 217.467 2119.77 221.263 L2119.77 235.916 L2115.48 235.916 L2115.48 209.99 L2119.77 209.99 L2119.77 214.018 Q2121.29 211.68 2123.36 210.522 Q2125.44 209.365 2128.15 209.365 Q2132.61 209.365 2134.91 212.143 Q2137.2 214.897 2137.2 220.268 Z" fill="#000000" fill-rule="nonzero" fill-opacity="1" /><polyline clip-path="url(#clip870)" style="stroke:#e26f46; stroke-linecap:round; stroke-linejoin:round; stroke-width:8; stroke-opacity:0.8; fill:none" points="1588.76,270.476 1730.95,270.476 "/>
<path clip-path="url(#clip870)" d="M1754.65 253.196 L1776.51 253.196 L1776.51 257.131 L1759.33 257.131 L1759.33 267.362 L1775.79 267.362 L1775.79 271.297 L1759.33 271.297 L1759.33 283.821 L1776.92 283.821 L1776.92 287.756 L1754.65 287.756 L1754.65 253.196 Z" fill="#000000" fill-rule="nonzero" fill-opacity="1" /><path clip-path="url(#clip870)" d="M1804.61 266.807 Q1806.2 263.936 1808.43 262.571 Q1810.65 261.205 1813.66 261.205 Q1817.71 261.205 1819.91 264.052 Q1822.11 266.876 1822.11 272.108 L1822.11 287.756 L1817.82 287.756 L1817.82 272.247 Q1817.82 268.52 1816.5 266.714 Q1815.19 264.909 1812.48 264.909 Q1809.17 264.909 1807.25 267.108 Q1805.32 269.307 1805.32 273.103 L1805.32 287.756 L1801.04 287.756 L1801.04 272.247 Q1801.04 268.497 1799.72 266.714 Q1798.4 264.909 1795.65 264.909 Q1792.38 264.909 1790.46 267.131 Q1788.54 269.33 1788.54 273.103 L1788.54 287.756 L1784.26 287.756 L1784.26 261.83 L1788.54 261.83 L1788.54 265.858 Q1790 263.473 1792.04 262.339 Q1794.07 261.205 1796.88 261.205 Q1799.7 261.205 1801.67 262.64 Q1803.66 264.075 1804.61 266.807 Z" fill="#000000" fill-rule="nonzero" fill-opacity="1" /><path clip-path="url(#clip870)" d="M1834.72 283.867 L1834.72 297.617 L1830.44 297.617 L1830.44 261.83 L1834.72 261.83 L1834.72 265.765 Q1836.06 263.45 1838.1 262.339 Q1840.16 261.205 1843.01 261.205 Q1847.73 261.205 1850.67 264.955 Q1853.63 268.705 1853.63 274.816 Q1853.63 280.927 1850.67 284.677 Q1847.73 288.427 1843.01 288.427 Q1840.16 288.427 1838.1 287.316 Q1836.06 286.182 1834.72 283.867 M1849.21 274.816 Q1849.21 270.117 1847.27 267.455 Q1845.35 264.77 1841.97 264.77 Q1838.59 264.77 1836.64 267.455 Q1834.72 270.117 1834.72 274.816 Q1834.72 279.515 1836.64 282.2 Q1838.59 284.862 1841.97 284.862 Q1845.35 284.862 1847.27 282.2 Q1849.21 279.515 1849.21 274.816 Z" fill="#000000" fill-rule="nonzero" fill-opacity="1" /><path clip-path="url(#clip870)" d="M1860.69 261.83 L1864.95 261.83 L1864.95 287.756 L1860.69 287.756 L1860.69 261.83 M1860.69 251.737 L1864.95 251.737 L1864.95 257.131 L1860.69 257.131 L1860.69 251.737 Z" fill="#000000" fill-rule="nonzero" fill-opacity="1" /><path clip-path="url(#clip870)" d="M1888.89 265.811 Q1888.17 265.395 1887.31 265.21 Q1886.48 265.001 1885.46 265.001 Q1881.85 265.001 1879.91 267.362 Q1877.99 269.7 1877.99 274.098 L1877.99 287.756 L1873.7 287.756 L1873.7 261.83 L1877.99 261.83 L1877.99 265.858 Q1879.33 263.497 1881.48 262.362 Q1883.63 261.205 1886.71 261.205 Q1887.15 261.205 1887.69 261.274 Q1888.22 261.321 1888.87 261.436 L1888.89 265.811 Z" fill="#000000" fill-rule="nonzero" fill-opacity="1" /><path clip-path="url(#clip870)" d="M1893.36 261.83 L1897.62 261.83 L1897.62 287.756 L1893.36 287.756 L1893.36 261.83 M1893.36 251.737 L1897.62 251.737 L1897.62 257.131 L1893.36 257.131 L1893.36 251.737 Z" fill="#000000" fill-rule="nonzero" fill-opacity="1" /><path clip-path="url(#clip870)" d="M1925.18 262.825 L1925.18 266.807 Q1923.38 265.811 1921.55 265.325 Q1919.75 264.816 1917.89 264.816 Q1913.75 264.816 1911.46 267.455 Q1909.17 270.071 1909.17 274.816 Q1909.17 279.561 1911.46 282.2 Q1913.75 284.816 1917.89 284.816 Q1919.75 284.816 1921.55 284.33 Q1923.38 283.821 1925.18 282.825 L1925.18 286.76 Q1923.4 287.594 1921.48 288.01 Q1919.58 288.427 1917.43 288.427 Q1911.57 288.427 1908.12 284.746 Q1904.68 281.066 1904.68 274.816 Q1904.68 268.473 1908.15 264.839 Q1911.64 261.205 1917.71 261.205 Q1919.68 261.205 1921.55 261.622 Q1923.43 262.015 1925.18 262.825 Z" fill="#000000" fill-rule="nonzero" fill-opacity="1" /><path clip-path="url(#clip870)" d="M1944.37 274.723 Q1939.21 274.723 1937.22 275.904 Q1935.23 277.084 1935.23 279.932 Q1935.23 282.2 1936.71 283.543 Q1938.22 284.862 1940.79 284.862 Q1944.33 284.862 1946.46 282.362 Q1948.61 279.839 1948.61 275.672 L1948.61 274.723 L1944.37 274.723 M1952.87 272.964 L1952.87 287.756 L1948.61 287.756 L1948.61 283.821 Q1947.15 286.182 1944.98 287.316 Q1942.8 288.427 1939.65 288.427 Q1935.67 288.427 1933.31 286.205 Q1930.97 283.959 1930.97 280.209 Q1930.97 275.834 1933.89 273.612 Q1936.83 271.39 1942.64 271.39 L1948.61 271.39 L1948.61 270.973 Q1948.61 268.034 1946.67 266.436 Q1944.74 264.816 1941.25 264.816 Q1939.03 264.816 1936.92 265.348 Q1934.81 265.881 1932.87 266.946 L1932.87 263.01 Q1935.21 262.108 1937.41 261.668 Q1939.61 261.205 1941.69 261.205 Q1947.31 261.205 1950.09 264.122 Q1952.87 267.038 1952.87 272.964 Z" fill="#000000" fill-rule="nonzero" fill-opacity="1" /><path clip-path="url(#clip870)" d="M1961.64 251.737 L1965.9 251.737 L1965.9 287.756 L1961.64 287.756 L1961.64 251.737 Z" fill="#000000" fill-rule="nonzero" fill-opacity="1" /><path clip-path="url(#clip870)" d="M1994.74 257.038 L1994.74 283.913 L2000.39 283.913 Q2007.55 283.913 2010.86 280.672 Q2014.19 277.432 2014.19 270.441 Q2014.19 263.497 2010.86 260.279 Q2007.55 257.038 2000.39 257.038 L1994.74 257.038 M1990.07 253.196 L1999.68 253.196 Q2009.72 253.196 2014.42 257.386 Q2019.12 261.552 2019.12 270.441 Q2019.12 279.376 2014.4 283.566 Q2009.68 287.756 1999.68 287.756 L1990.07 287.756 L1990.07 253.196 Z" fill="#000000" fill-rule="nonzero" fill-opacity="1" /><path clip-path="url(#clip870)" d="M2026.39 261.83 L2030.65 261.83 L2030.65 287.756 L2026.39 287.756 L2026.39 261.83 M2026.39 251.737 L2030.65 251.737 L2030.65 257.131 L2026.39 257.131 L2026.39 251.737 Z" fill="#000000" fill-rule="nonzero" fill-opacity="1" /><path clip-path="url(#clip870)" d="M2056.09 262.594 L2056.09 266.622 Q2054.28 265.696 2052.34 265.233 Q2050.39 264.77 2048.31 264.77 Q2045.14 264.77 2043.54 265.742 Q2041.97 266.714 2041.97 268.659 Q2041.97 270.14 2043.1 270.997 Q2044.24 271.83 2047.66 272.594 L2049.12 272.918 Q2053.66 273.89 2055.55 275.672 Q2057.48 277.432 2057.48 280.603 Q2057.48 284.214 2054.61 286.321 Q2051.76 288.427 2046.76 288.427 Q2044.67 288.427 2042.41 288.01 Q2040.16 287.617 2037.66 286.807 L2037.66 282.409 Q2040.02 283.635 2042.31 284.26 Q2044.61 284.862 2046.85 284.862 Q2049.86 284.862 2051.48 283.844 Q2053.1 282.802 2053.1 280.927 Q2053.1 279.191 2051.92 278.265 Q2050.76 277.339 2046.8 276.483 L2045.32 276.135 Q2041.36 275.302 2039.61 273.589 Q2037.85 271.853 2037.85 268.844 Q2037.85 265.186 2040.44 263.196 Q2043.03 261.205 2047.8 261.205 Q2050.16 261.205 2052.24 261.552 Q2054.33 261.899 2056.09 262.594 Z" fill="#000000" fill-rule="nonzero" fill-opacity="1" /><path clip-path="url(#clip870)" d="M2068.47 254.469 L2068.47 261.83 L2077.24 261.83 L2077.24 265.14 L2068.47 265.14 L2068.47 279.214 Q2068.47 282.385 2069.33 283.288 Q2070.21 284.191 2072.87 284.191 L2077.24 284.191 L2077.24 287.756 L2072.87 287.756 Q2067.94 287.756 2066.06 285.927 Q2064.19 284.075 2064.19 279.214 L2064.19 265.14 L2061.06 265.14 L2061.06 261.83 L2064.19 261.83 L2064.19 254.469 L2068.47 254.469 Z" fill="#000000" fill-rule="nonzero" fill-opacity="1" /><path clip-path="url(#clip870)" d="M2097.87 265.811 Q2097.15 265.395 2096.3 265.21 Q2095.46 265.001 2094.44 265.001 Q2090.83 265.001 2088.89 267.362 Q2086.97 269.7 2086.97 274.098 L2086.97 287.756 L2082.68 287.756 L2082.68 261.83 L2086.97 261.83 L2086.97 265.858 Q2088.31 263.497 2090.46 262.362 Q2092.61 261.205 2095.69 261.205 Q2096.13 261.205 2096.67 261.274 Q2097.2 261.321 2097.85 261.436 L2097.87 265.811 Z" fill="#000000" fill-rule="nonzero" fill-opacity="1" /><path clip-path="url(#clip870)" d="M2102.34 261.83 L2106.6 261.83 L2106.6 287.756 L2102.34 287.756 L2102.34 261.83 M2102.34 251.737 L2106.6 251.737 L2106.6 257.131 L2102.34 257.131 L2102.34 251.737 Z" fill="#000000" fill-rule="nonzero" fill-opacity="1" /><path clip-path="url(#clip870)" d="M2134.12 274.816 Q2134.12 270.117 2132.17 267.455 Q2130.25 264.77 2126.87 264.77 Q2123.49 264.77 2121.55 267.455 Q2119.63 270.117 2119.63 274.816 Q2119.63 279.515 2121.55 282.2 Q2123.49 284.862 2126.87 284.862 Q2130.25 284.862 2132.17 282.2 Q2134.12 279.515 2134.12 274.816 M2119.63 265.765 Q2120.97 263.45 2123.01 262.339 Q2125.07 261.205 2127.92 261.205 Q2132.64 261.205 2135.58 264.955 Q2138.54 268.705 2138.54 274.816 Q2138.54 280.927 2135.58 284.677 Q2132.64 288.427 2127.92 288.427 Q2125.07 288.427 2123.01 287.316 Q2120.97 286.182 2119.63 283.867 L2119.63 287.756 L2115.35 287.756 L2115.35 251.737 L2119.63 251.737 L2119.63 265.765 Z" fill="#000000" fill-rule="nonzero" fill-opacity="1" /><path clip-path="url(#clip870)" d="M2145.16 277.524 L2145.16 261.83 L2149.42 261.83 L2149.42 277.362 Q2149.42 281.043 2150.85 282.895 Q2152.29 284.723 2155.16 284.723 Q2158.61 284.723 2160.6 282.524 Q2162.61 280.325 2162.61 276.529 L2162.61 261.83 L2166.87 261.83 L2166.87 287.756 L2162.61 287.756 L2162.61 283.774 Q2161.06 286.135 2159 287.293 Q2156.97 288.427 2154.26 288.427 Q2149.79 288.427 2147.48 285.649 Q2145.16 282.871 2145.16 277.524 M2155.88 261.205 L2155.88 261.205 Z" fill="#000000" fill-rule="nonzero" fill-opacity="1" /><path clip-path="url(#clip870)" d="M2179.86 254.469 L2179.86 261.83 L2188.63 261.83 L2188.63 265.14 L2179.86 265.14 L2179.86 279.214 Q2179.86 282.385 2180.72 283.288 Q2181.6 284.191 2184.26 284.191 L2188.63 284.191 L2188.63 287.756 L2184.26 287.756 Q2179.33 287.756 2177.45 285.927 Q2175.58 284.075 2175.58 279.214 L2175.58 265.14 L2172.45 265.14 L2172.45 261.83 L2175.58 261.83 L2175.58 254.469 L2179.86 254.469 Z" fill="#000000" fill-rule="nonzero" fill-opacity="1" /><path clip-path="url(#clip870)" d="M2194.23 261.83 L2198.49 261.83 L2198.49 287.756 L2194.23 287.756 L2194.23 261.83 M2194.23 251.737 L2198.49 251.737 L2198.49 257.131 L2194.23 257.131 L2194.23 251.737 Z" fill="#000000" fill-rule="nonzero" fill-opacity="1" /><path clip-path="url(#clip870)" d="M2217.45 264.816 Q2214.03 264.816 2212.04 267.501 Q2210.04 270.163 2210.04 274.816 Q2210.04 279.469 2212.01 282.154 Q2214 284.816 2217.45 284.816 Q2220.85 284.816 2222.85 282.131 Q2224.84 279.446 2224.84 274.816 Q2224.84 270.21 2222.85 267.524 Q2220.85 264.816 2217.45 264.816 M2217.45 261.205 Q2223.01 261.205 2226.18 264.816 Q2229.35 268.427 2229.35 274.816 Q2229.35 281.182 2226.18 284.816 Q2223.01 288.427 2217.45 288.427 Q2211.87 288.427 2208.7 284.816 Q2205.55 281.182 2205.55 274.816 Q2205.55 268.427 2208.7 264.816 Q2211.87 261.205 2217.45 261.205 Z" fill="#000000" fill-rule="nonzero" fill-opacity="1" /><path clip-path="url(#clip870)" d="M2257.96 272.108 L2257.96 287.756 L2253.7 287.756 L2253.7 272.247 Q2253.7 268.566 2252.27 266.737 Q2250.83 264.909 2247.96 264.909 Q2244.51 264.909 2242.52 267.108 Q2240.53 269.307 2240.53 273.103 L2240.53 287.756 L2236.25 287.756 L2236.25 261.83 L2240.53 261.83 L2240.53 265.858 Q2242.06 263.52 2244.12 262.362 Q2246.2 261.205 2248.91 261.205 Q2253.38 261.205 2255.67 263.983 Q2257.96 266.737 2257.96 272.108 Z" fill="#000000" fill-rule="nonzero" fill-opacity="1" /></svg>
