<?xml version="1.0" encoding="utf-8"?>
<svg xmlns="http://www.w3.org/2000/svg" xmlns:xlink="http://www.w3.org/1999/xlink" width="600" height="400" viewBox="0 0 2400 1600">
<defs>
  <clipPath id="clip490">
    <rect x="0" y="0" width="2400" height="1600"/>
  </clipPath>
</defs>
<path clip-path="url(#clip490)" d="M0 1600 L2400 1600 L2400 8.88178e-14 L0 8.88178e-14  Z" fill="#ffffff" fill-rule="evenodd" fill-opacity="1"/>
<defs>
  <clipPath id="clip491">
    <rect x="480" y="0" width="1681" height="1600"/>
  </clipPath>
</defs>
<path clip-path="url(#clip490)" d="M219.866 1423.18 L2352.76 1423.18 L2352.76 123.472 L219.866 123.472  Z" fill="#ffffff" fill-rule="evenodd" fill-opacity="1"/>
<defs>
  <clipPath id="clip492">
    <rect x="219" y="123" width="2134" height="1301"/>
  </clipPath>
</defs>
<polyline clip-path="url(#clip492)" style="stroke:#000000; stroke-linecap:round; stroke-linejoin:round; stroke-width:2; stroke-opacity:0.1; fill:none" points="259.906,1423.18 259.906,123.472 "/>
<polyline clip-path="url(#clip492)" style="stroke:#000000; stroke-linecap:round; stroke-linejoin:round; stroke-width:2; stroke-opacity:0.1; fill:none" points="768.027,1423.18 768.027,123.472 "/>
<polyline clip-path="url(#clip492)" style="stroke:#000000; stroke-linecap:round; stroke-linejoin:round; stroke-width:2; stroke-opacity:0.1; fill:none" points="1276.15,1423.18 1276.15,123.472 "/>
<polyline clip-path="url(#clip492)" style="stroke:#000000; stroke-linecap:round; stroke-linejoin:round; stroke-width:2; stroke-opacity:0.1; fill:none" points="1784.27,1423.18 1784.27,123.472 "/>
<polyline clip-path="url(#clip492)" style="stroke:#000000; stroke-linecap:round; stroke-linejoin:round; stroke-width:2; stroke-opacity:0.1; fill:none" points="2292.39,1423.18 2292.39,123.472 "/>
<polyline clip-path="url(#clip490)" style="stroke:#000000; stroke-linecap:round; stroke-linejoin:round; stroke-width:4; stroke-opacity:1; fill:none" points="219.866,1423.18 2352.76,1423.18 "/>
<polyline clip-path="url(#clip490)" style="stroke:#000000; stroke-linecap:round; stroke-linejoin:round; stroke-width:4; stroke-opacity:1; fill:none" points="259.906,1423.18 259.906,1404.28 "/>
<polyline clip-path="url(#clip490)" style="stroke:#000000; stroke-linecap:round; stroke-linejoin:round; stroke-width:4; stroke-opacity:1; fill:none" points="768.027,1423.18 768.027,1404.28 "/>
<polyline clip-path="url(#clip490)" style="stroke:#000000; stroke-linecap:round; stroke-linejoin:round; stroke-width:4; stroke-opacity:1; fill:none" points="1276.15,1423.18 1276.15,1404.28 "/>
<polyline clip-path="url(#clip490)" style="stroke:#000000; stroke-linecap:round; stroke-linejoin:round; stroke-width:4; stroke-opacity:1; fill:none" points="1784.27,1423.18 1784.27,1404.28 "/>
<polyline clip-path="url(#clip490)" style="stroke:#000000; stroke-linecap:round; stroke-linejoin:round; stroke-width:4; stroke-opacity:1; fill:none" points="2292.39,1423.18 2292.39,1404.28 "/>
<path clip-path="url(#clip490)" d="M259.906 1454.1 Q256.295 1454.1 254.466 1457.66 Q252.661 1461.2 252.661 1468.33 Q252.661 1475.44 254.466 1479.01 Q256.295 1482.55 259.906 1482.55 Q263.54 1482.55 265.346 1479.01 Q267.175 1475.44 267.175 1468.33 Q267.175 1461.2 265.346 1457.66 Q263.54 1454.1 259.906 1454.1 M259.906 1450.39 Q265.716 1450.39 268.772 1455 Q271.851 1459.58 271.851 1468.33 Q271.851 1477.06 268.772 1481.67 Q265.716 1486.25 259.906 1486.25 Q254.096 1486.25 251.017 1481.67 Q247.962 1477.06 247.962 1468.33 Q247.962 1459.58 251.017 1455 Q254.096 1450.39 259.906 1450.39 Z" fill="#000000" fill-rule="nonzero" fill-opacity="1" /><path clip-path="url(#clip490)" d="M747.298 1481.64 L763.618 1481.64 L763.618 1485.58 L741.673 1485.58 L741.673 1481.64 Q744.335 1478.89 748.919 1474.26 Q753.525 1469.61 754.706 1468.27 Q756.951 1465.74 757.831 1464.01 Q758.734 1462.25 758.734 1460.56 Q758.734 1457.8 756.789 1456.07 Q754.868 1454.33 751.766 1454.33 Q749.567 1454.33 747.113 1455.09 Q744.683 1455.86 741.905 1457.41 L741.905 1452.69 Q744.729 1451.55 747.183 1450.97 Q749.636 1450.39 751.673 1450.39 Q757.044 1450.39 760.238 1453.08 Q763.433 1455.77 763.433 1460.26 Q763.433 1462.39 762.622 1464.31 Q761.835 1466.2 759.729 1468.8 Q759.15 1469.47 756.048 1472.69 Q752.947 1475.88 747.298 1481.64 Z" fill="#000000" fill-rule="nonzero" fill-opacity="1" /><path clip-path="url(#clip490)" d="M773.479 1451.02 L791.835 1451.02 L791.835 1454.96 L777.761 1454.96 L777.761 1463.43 Q778.78 1463.08 779.798 1462.92 Q780.817 1462.73 781.835 1462.73 Q787.622 1462.73 791.002 1465.9 Q794.381 1469.08 794.381 1474.49 Q794.381 1480.07 790.909 1483.17 Q787.437 1486.25 781.118 1486.25 Q778.942 1486.25 776.673 1485.88 Q774.428 1485.51 772.02 1484.77 L772.02 1480.07 Q774.104 1481.2 776.326 1481.76 Q778.548 1482.32 781.025 1482.32 Q785.03 1482.32 787.368 1480.21 Q789.706 1478.1 789.706 1474.49 Q789.706 1470.88 787.368 1468.77 Q785.03 1466.67 781.025 1466.67 Q779.15 1466.67 777.275 1467.08 Q775.423 1467.5 773.479 1468.38 L773.479 1451.02 Z" fill="#000000" fill-rule="nonzero" fill-opacity="1" /><path clip-path="url(#clip490)" d="M1250.85 1451.02 L1269.2 1451.02 L1269.2 1454.96 L1255.13 1454.96 L1255.13 1463.43 Q1256.15 1463.08 1257.17 1462.92 Q1258.19 1462.73 1259.2 1462.73 Q1264.99 1462.73 1268.37 1465.9 Q1271.75 1469.08 1271.75 1474.49 Q1271.75 1480.07 1268.28 1483.17 Q1264.81 1486.25 1258.49 1486.25 Q1256.31 1486.25 1254.04 1485.88 Q1251.8 1485.51 1249.39 1484.77 L1249.39 1480.07 Q1251.47 1481.2 1253.7 1481.76 Q1255.92 1482.32 1258.39 1482.32 Q1262.4 1482.32 1264.74 1480.21 Q1267.07 1478.1 1267.07 1474.49 Q1267.07 1470.88 1264.74 1468.77 Q1262.4 1466.67 1258.39 1466.67 Q1256.52 1466.67 1254.64 1467.08 Q1252.79 1467.5 1250.85 1468.38 L1250.85 1451.02 Z" fill="#000000" fill-rule="nonzero" fill-opacity="1" /><path clip-path="url(#clip490)" d="M1290.96 1454.1 Q1287.35 1454.1 1285.52 1457.66 Q1283.72 1461.2 1283.72 1468.33 Q1283.72 1475.44 1285.52 1479.01 Q1287.35 1482.55 1290.96 1482.55 Q1294.6 1482.55 1296.4 1479.01 Q1298.23 1475.44 1298.23 1468.33 Q1298.23 1461.2 1296.4 1457.66 Q1294.6 1454.1 1290.96 1454.1 M1290.96 1450.39 Q1296.77 1450.39 1299.83 1455 Q1302.91 1459.58 1302.91 1468.33 Q1302.91 1477.06 1299.83 1481.67 Q1296.77 1486.25 1290.96 1486.25 Q1285.15 1486.25 1282.07 1481.67 Q1279.02 1477.06 1279.02 1468.33 Q1279.02 1459.58 1282.07 1455 Q1285.15 1450.39 1290.96 1450.39 Z" fill="#000000" fill-rule="nonzero" fill-opacity="1" /><path clip-path="url(#clip490)" d="M1758.12 1451.02 L1780.35 1451.02 L1780.35 1453.01 L1767.8 1485.58 L1762.92 1485.58 L1774.72 1454.96 L1758.12 1454.96 L1758.12 1451.02 Z" fill="#000000" fill-rule="nonzero" fill-opacity="1" /><path clip-path="url(#clip490)" d="M1789.51 1451.02 L1807.87 1451.02 L1807.87 1454.96 L1793.8 1454.96 L1793.8 1463.43 Q1794.81 1463.08 1795.83 1462.92 Q1796.85 1462.73 1797.87 1462.73 Q1803.66 1462.73 1807.04 1465.9 Q1810.42 1469.08 1810.42 1474.49 Q1810.42 1480.07 1806.94 1483.17 Q1803.47 1486.25 1797.15 1486.25 Q1794.98 1486.25 1792.71 1485.88 Q1790.46 1485.51 1788.05 1484.77 L1788.05 1480.07 Q1790.14 1481.2 1792.36 1481.76 Q1794.58 1482.32 1797.06 1482.32 Q1801.06 1482.32 1803.4 1480.21 Q1805.74 1478.1 1805.74 1474.49 Q1805.74 1470.88 1803.4 1468.77 Q1801.06 1466.67 1797.06 1466.67 Q1795.18 1466.67 1793.31 1467.08 Q1791.46 1467.5 1789.51 1468.38 L1789.51 1451.02 Z" fill="#000000" fill-rule="nonzero" fill-opacity="1" /><path clip-path="url(#clip490)" d="M2252 1481.64 L2259.64 1481.64 L2259.64 1455.28 L2251.33 1456.95 L2251.33 1452.69 L2259.59 1451.02 L2264.27 1451.02 L2264.27 1481.64 L2271.91 1481.64 L2271.91 1485.58 L2252 1485.58 L2252 1481.64 Z" fill="#000000" fill-rule="nonzero" fill-opacity="1" /><path clip-path="url(#clip490)" d="M2291.35 1454.1 Q2287.74 1454.1 2285.91 1457.66 Q2284.1 1461.2 2284.1 1468.33 Q2284.1 1475.44 2285.91 1479.01 Q2287.74 1482.55 2291.35 1482.55 Q2294.98 1482.55 2296.79 1479.01 Q2298.62 1475.44 2298.62 1468.33 Q2298.62 1461.2 2296.79 1457.66 Q2294.98 1454.1 2291.35 1454.1 M2291.35 1450.39 Q2297.16 1450.39 2300.22 1455 Q2303.29 1459.58 2303.29 1468.33 Q2303.29 1477.06 2300.22 1481.67 Q2297.16 1486.25 2291.35 1486.25 Q2285.54 1486.25 2282.46 1481.67 Q2279.41 1477.06 2279.41 1468.33 Q2279.41 1459.58 2282.46 1455 Q2285.54 1450.39 2291.35 1450.39 Z" fill="#000000" fill-rule="nonzero" fill-opacity="1" /><path clip-path="url(#clip490)" d="M2321.51 1454.1 Q2317.9 1454.1 2316.07 1457.66 Q2314.27 1461.2 2314.27 1468.33 Q2314.27 1475.44 2316.07 1479.01 Q2317.9 1482.55 2321.51 1482.55 Q2325.15 1482.55 2326.95 1479.01 Q2328.78 1475.44 2328.78 1468.33 Q2328.78 1461.2 2326.95 1457.66 Q2325.15 1454.1 2321.51 1454.1 M2321.51 1450.39 Q2327.32 1450.39 2330.38 1455 Q2333.46 1459.58 2333.46 1468.33 Q2333.46 1477.06 2330.38 1481.67 Q2327.32 1486.25 2321.51 1486.25 Q2315.7 1486.25 2312.62 1481.67 Q2309.57 1477.06 2309.57 1468.33 Q2309.57 1459.58 2312.62 1455 Q2315.7 1450.39 2321.51 1450.39 Z" fill="#000000" fill-rule="nonzero" fill-opacity="1" /><path clip-path="url(#clip490)" d="M1225.47 1522.27 L1225.47 1532.4 L1237.53 1532.4 L1237.53 1536.95 L1225.47 1536.95 L1225.47 1556.3 Q1225.47 1560.66 1226.65 1561.9 Q1227.86 1563.14 1231.52 1563.14 L1237.53 1563.14 L1237.53 1568.04 L1231.52 1568.04 Q1224.74 1568.04 1222.16 1565.53 Q1219.58 1562.98 1219.58 1556.3 L1219.58 1536.95 L1215.29 1536.95 L1215.29 1532.4 L1219.58 1532.4 L1219.58 1522.27 L1225.47 1522.27 Z" fill="#000000" fill-rule="nonzero" fill-opacity="1" /><path clip-path="url(#clip490)" d="M1245.24 1532.4 L1251.09 1532.4 L1251.09 1568.04 L1245.24 1568.04 L1245.24 1532.4 M1245.24 1518.52 L1251.09 1518.52 L1251.09 1525.93 L1245.24 1525.93 L1245.24 1518.52 Z" fill="#000000" fill-rule="nonzero" fill-opacity="1" /><path clip-path="url(#clip490)" d="M1291.1 1539.24 Q1293.3 1535.29 1296.35 1533.41 Q1299.41 1531.54 1303.55 1531.54 Q1309.12 1531.54 1312.14 1535.45 Q1315.16 1539.33 1315.16 1546.53 L1315.16 1568.04 L1309.28 1568.04 L1309.28 1546.72 Q1309.28 1541.59 1307.46 1539.11 Q1305.65 1536.63 1301.92 1536.63 Q1297.37 1536.63 1294.73 1539.65 Q1292.09 1542.68 1292.09 1547.9 L1292.09 1568.04 L1286.2 1568.04 L1286.2 1546.72 Q1286.2 1541.56 1284.39 1539.11 Q1282.57 1536.63 1278.78 1536.63 Q1274.3 1536.63 1271.65 1539.68 Q1269.01 1542.71 1269.01 1547.9 L1269.01 1568.04 L1263.12 1568.04 L1263.12 1532.4 L1269.01 1532.4 L1269.01 1537.93 Q1271.02 1534.66 1273.82 1533.1 Q1276.62 1531.54 1280.47 1531.54 Q1284.35 1531.54 1287.06 1533.51 Q1289.8 1535.48 1291.1 1539.24 Z" fill="#000000" fill-rule="nonzero" fill-opacity="1" /><path clip-path="url(#clip490)" d="M1357.34 1548.76 L1357.34 1551.62 L1330.41 1551.62 Q1330.79 1557.67 1334.04 1560.85 Q1337.32 1564 1343.14 1564 Q1346.51 1564 1349.67 1563.17 Q1352.85 1562.35 1355.97 1560.69 L1355.97 1566.23 Q1352.82 1567.57 1349.51 1568.27 Q1346.2 1568.97 1342.79 1568.97 Q1334.26 1568.97 1329.26 1564 Q1324.3 1559.04 1324.3 1550.57 Q1324.3 1541.82 1329.01 1536.69 Q1333.75 1531.54 1341.77 1531.54 Q1348.97 1531.54 1353.14 1536.18 Q1357.34 1540.8 1357.34 1548.76 M1351.48 1547.04 Q1351.42 1542.23 1348.77 1539.37 Q1346.16 1536.5 1341.84 1536.5 Q1336.93 1536.5 1333.97 1539.27 Q1331.05 1542.04 1330.6 1547.07 L1351.48 1547.04 Z" fill="#000000" fill-rule="nonzero" fill-opacity="1" /><polyline clip-path="url(#clip492)" style="stroke:#000000; stroke-linecap:round; stroke-linejoin:round; stroke-width:2; stroke-opacity:0.1; fill:none" points="219.866,1289.81 2352.76,1289.81 "/>
<polyline clip-path="url(#clip492)" style="stroke:#000000; stroke-linecap:round; stroke-linejoin:round; stroke-width:2; stroke-opacity:0.1; fill:none" points="219.866,1108.3 2352.76,1108.3 "/>
<polyline clip-path="url(#clip492)" style="stroke:#000000; stroke-linecap:round; stroke-linejoin:round; stroke-width:2; stroke-opacity:0.1; fill:none" points="219.866,926.783 2352.76,926.783 "/>
<polyline clip-path="url(#clip492)" style="stroke:#000000; stroke-linecap:round; stroke-linejoin:round; stroke-width:2; stroke-opacity:0.1; fill:none" points="219.866,745.27 2352.76,745.27 "/>
<polyline clip-path="url(#clip492)" style="stroke:#000000; stroke-linecap:round; stroke-linejoin:round; stroke-width:2; stroke-opacity:0.1; fill:none" points="219.866,563.757 2352.76,563.757 "/>
<polyline clip-path="url(#clip492)" style="stroke:#000000; stroke-linecap:round; stroke-linejoin:round; stroke-width:2; stroke-opacity:0.1; fill:none" points="219.866,382.244 2352.76,382.244 "/>
<polyline clip-path="url(#clip492)" style="stroke:#000000; stroke-linecap:round; stroke-linejoin:round; stroke-width:2; stroke-opacity:0.1; fill:none" points="219.866,200.73 2352.76,200.73 "/>
<polyline clip-path="url(#clip490)" style="stroke:#000000; stroke-linecap:round; stroke-linejoin:round; stroke-width:4; stroke-opacity:1; fill:none" points="219.866,1423.18 219.866,123.472 "/>
<polyline clip-path="url(#clip490)" style="stroke:#000000; stroke-linecap:round; stroke-linejoin:round; stroke-width:4; stroke-opacity:1; fill:none" points="219.866,1289.81 238.764,1289.81 "/>
<polyline clip-path="url(#clip490)" style="stroke:#000000; stroke-linecap:round; stroke-linejoin:round; stroke-width:4; stroke-opacity:1; fill:none" points="219.866,1108.3 238.764,1108.3 "/>
<polyline clip-path="url(#clip490)" style="stroke:#000000; stroke-linecap:round; stroke-linejoin:round; stroke-width:4; stroke-opacity:1; fill:none" points="219.866,926.783 238.764,926.783 "/>
<polyline clip-path="url(#clip490)" style="stroke:#000000; stroke-linecap:round; stroke-linejoin:round; stroke-width:4; stroke-opacity:1; fill:none" points="219.866,745.27 238.764,745.27 "/>
<polyline clip-path="url(#clip490)" style="stroke:#000000; stroke-linecap:round; stroke-linejoin:round; stroke-width:4; stroke-opacity:1; fill:none" points="219.866,563.757 238.764,563.757 "/>
<polyline clip-path="url(#clip490)" style="stroke:#000000; stroke-linecap:round; stroke-linejoin:round; stroke-width:4; stroke-opacity:1; fill:none" points="219.866,382.244 238.764,382.244 "/>
<polyline clip-path="url(#clip490)" style="stroke:#000000; stroke-linecap:round; stroke-linejoin:round; stroke-width:4; stroke-opacity:1; fill:none" points="219.866,200.73 238.764,200.73 "/>
<path clip-path="url(#clip490)" d="M128.288 1275.61 Q124.677 1275.61 122.848 1279.17 Q121.043 1282.71 121.043 1289.84 Q121.043 1296.95 122.848 1300.52 Q124.677 1304.06 128.288 1304.06 Q131.922 1304.06 133.728 1300.52 Q135.556 1296.95 135.556 1289.84 Q135.556 1282.71 133.728 1279.17 Q131.922 1275.61 128.288 1275.61 M128.288 1271.9 Q134.098 1271.9 137.154 1276.51 Q140.232 1281.09 140.232 1289.84 Q140.232 1298.57 137.154 1303.18 Q134.098 1307.76 128.288 1307.76 Q122.478 1307.76 119.399 1303.18 Q116.343 1298.57 116.343 1289.84 Q116.343 1281.09 119.399 1276.51 Q122.478 1271.9 128.288 1271.9 Z" fill="#000000" fill-rule="nonzero" fill-opacity="1" /><path clip-path="url(#clip490)" d="M148.45 1301.21 L153.334 1301.21 L153.334 1307.09 L148.45 1307.09 L148.45 1301.21 Z" fill="#000000" fill-rule="nonzero" fill-opacity="1" /><path clip-path="url(#clip490)" d="M167.547 1303.15 L183.866 1303.15 L183.866 1307.09 L161.922 1307.09 L161.922 1303.15 Q164.584 1300.4 169.167 1295.77 Q173.774 1291.12 174.954 1289.77 Q177.2 1287.25 178.079 1285.52 Q178.982 1283.76 178.982 1282.07 Q178.982 1279.31 177.038 1277.58 Q175.116 1275.84 172.014 1275.84 Q169.815 1275.84 167.362 1276.6 Q164.931 1277.37 162.153 1278.92 L162.153 1274.2 Q164.977 1273.06 167.431 1272.48 Q169.885 1271.9 171.922 1271.9 Q177.292 1271.9 180.487 1274.59 Q183.681 1277.28 183.681 1281.77 Q183.681 1283.9 182.871 1285.82 Q182.084 1287.71 179.977 1290.31 Q179.399 1290.98 176.297 1294.2 Q173.195 1297.39 167.547 1303.15 Z" fill="#000000" fill-rule="nonzero" fill-opacity="1" /><path clip-path="url(#clip490)" d="M127.339 1094.1 Q123.728 1094.1 121.899 1097.66 Q120.093 1101.2 120.093 1108.33 Q120.093 1115.44 121.899 1119 Q123.728 1122.54 127.339 1122.54 Q130.973 1122.54 132.779 1119 Q134.607 1115.44 134.607 1108.33 Q134.607 1101.2 132.779 1097.66 Q130.973 1094.1 127.339 1094.1 M127.339 1090.39 Q133.149 1090.39 136.204 1095 Q139.283 1099.58 139.283 1108.33 Q139.283 1117.06 136.204 1121.66 Q133.149 1126.25 127.339 1126.25 Q121.529 1126.25 118.45 1121.66 Q115.394 1117.06 115.394 1108.33 Q115.394 1099.58 118.45 1095 Q121.529 1090.39 127.339 1090.39 Z" fill="#000000" fill-rule="nonzero" fill-opacity="1" /><path clip-path="url(#clip490)" d="M147.501 1119.7 L152.385 1119.7 L152.385 1125.58 L147.501 1125.58 L147.501 1119.7 Z" fill="#000000" fill-rule="nonzero" fill-opacity="1" /><path clip-path="url(#clip490)" d="M176.737 1106.94 Q180.093 1107.66 181.968 1109.93 Q183.866 1112.2 183.866 1115.53 Q183.866 1120.65 180.348 1123.45 Q176.829 1126.25 170.348 1126.25 Q168.172 1126.25 165.857 1125.81 Q163.565 1125.39 161.112 1124.53 L161.112 1120.02 Q163.056 1121.16 165.371 1121.73 Q167.686 1122.31 170.209 1122.31 Q174.607 1122.31 176.899 1120.58 Q179.214 1118.84 179.214 1115.53 Q179.214 1112.47 177.061 1110.76 Q174.931 1109.03 171.112 1109.03 L167.084 1109.03 L167.084 1105.18 L171.297 1105.18 Q174.746 1105.18 176.575 1103.82 Q178.403 1102.43 178.403 1099.84 Q178.403 1097.17 176.505 1095.76 Q174.63 1094.33 171.112 1094.33 Q169.19 1094.33 166.991 1094.74 Q164.792 1095.16 162.153 1096.04 L162.153 1091.87 Q164.815 1091.13 167.13 1090.76 Q169.468 1090.39 171.528 1090.39 Q176.852 1090.39 179.954 1092.82 Q183.056 1095.23 183.056 1099.35 Q183.056 1102.22 181.413 1104.21 Q179.769 1106.18 176.737 1106.94 Z" fill="#000000" fill-rule="nonzero" fill-opacity="1" /><path clip-path="url(#clip490)" d="M126.205 912.582 Q122.593 912.582 120.765 916.147 Q118.959 919.688 118.959 926.818 Q118.959 933.924 120.765 937.489 Q122.593 941.031 126.205 941.031 Q129.839 941.031 131.644 937.489 Q133.473 933.924 133.473 926.818 Q133.473 919.688 131.644 916.147 Q129.839 912.582 126.205 912.582 M126.205 908.878 Q132.015 908.878 135.07 913.485 Q138.149 918.068 138.149 926.818 Q138.149 935.545 135.07 940.151 Q132.015 944.735 126.205 944.735 Q120.394 944.735 117.316 940.151 Q114.26 935.545 114.26 926.818 Q114.26 918.068 117.316 913.485 Q120.394 908.878 126.205 908.878 Z" fill="#000000" fill-rule="nonzero" fill-opacity="1" /><path clip-path="url(#clip490)" d="M146.366 938.184 L151.251 938.184 L151.251 944.063 L146.366 944.063 L146.366 938.184 Z" fill="#000000" fill-rule="nonzero" fill-opacity="1" /><path clip-path="url(#clip490)" d="M174.283 913.577 L162.477 932.026 L174.283 932.026 L174.283 913.577 M173.056 909.503 L178.936 909.503 L178.936 932.026 L183.866 932.026 L183.866 935.915 L178.936 935.915 L178.936 944.063 L174.283 944.063 L174.283 935.915 L158.681 935.915 L158.681 931.401 L173.056 909.503 Z" fill="#000000" fill-rule="nonzero" fill-opacity="1" /><path clip-path="url(#clip490)" d="M127.686 731.069 Q124.075 731.069 122.246 734.634 Q120.441 738.175 120.441 745.305 Q120.441 752.411 122.246 755.976 Q124.075 759.518 127.686 759.518 Q131.32 759.518 133.126 755.976 Q134.954 752.411 134.954 745.305 Q134.954 738.175 133.126 734.634 Q131.32 731.069 127.686 731.069 M127.686 727.365 Q133.496 727.365 136.552 731.972 Q139.63 736.555 139.63 745.305 Q139.63 754.032 136.552 758.638 Q133.496 763.221 127.686 763.221 Q121.876 763.221 118.797 758.638 Q115.742 754.032 115.742 745.305 Q115.742 736.555 118.797 731.972 Q121.876 727.365 127.686 727.365 Z" fill="#000000" fill-rule="nonzero" fill-opacity="1" /><path clip-path="url(#clip490)" d="M147.848 756.67 L152.732 756.67 L152.732 762.55 L147.848 762.55 L147.848 756.67 Z" fill="#000000" fill-rule="nonzero" fill-opacity="1" /><path clip-path="url(#clip490)" d="M162.964 727.99 L181.32 727.99 L181.32 731.925 L167.246 731.925 L167.246 740.397 Q168.264 740.05 169.283 739.888 Q170.302 739.703 171.32 739.703 Q177.107 739.703 180.487 742.874 Q183.866 746.046 183.866 751.462 Q183.866 757.041 180.394 760.143 Q176.922 763.221 170.602 763.221 Q168.427 763.221 166.158 762.851 Q163.913 762.481 161.505 761.74 L161.505 757.041 Q163.589 758.175 165.811 758.731 Q168.033 759.286 170.51 759.286 Q174.514 759.286 176.852 757.18 Q179.19 755.073 179.19 751.462 Q179.19 747.851 176.852 745.745 Q174.514 743.638 170.51 743.638 Q168.635 743.638 166.76 744.055 Q164.908 744.471 162.964 745.351 L162.964 727.99 Z" fill="#000000" fill-rule="nonzero" fill-opacity="1" /><path clip-path="url(#clip490)" d="M126.529 549.556 Q122.918 549.556 121.089 553.12 Q119.283 556.662 119.283 563.792 Q119.283 570.898 121.089 574.463 Q122.918 578.004 126.529 578.004 Q130.163 578.004 131.968 574.463 Q133.797 570.898 133.797 563.792 Q133.797 556.662 131.968 553.12 Q130.163 549.556 126.529 549.556 M126.529 545.852 Q132.339 545.852 135.394 550.458 Q138.473 555.042 138.473 563.792 Q138.473 572.518 135.394 577.125 Q132.339 581.708 126.529 581.708 Q120.718 581.708 117.64 577.125 Q114.584 572.518 114.584 563.792 Q114.584 555.042 117.64 550.458 Q120.718 545.852 126.529 545.852 Z" fill="#000000" fill-rule="nonzero" fill-opacity="1" /><path clip-path="url(#clip490)" d="M146.691 575.157 L151.575 575.157 L151.575 581.037 L146.691 581.037 L146.691 575.157 Z" fill="#000000" fill-rule="nonzero" fill-opacity="1" /><path clip-path="url(#clip490)" d="M172.339 561.893 Q169.19 561.893 167.339 564.046 Q165.51 566.199 165.51 569.949 Q165.51 573.676 167.339 575.852 Q169.19 578.004 172.339 578.004 Q175.487 578.004 177.315 575.852 Q179.167 573.676 179.167 569.949 Q179.167 566.199 177.315 564.046 Q175.487 561.893 172.339 561.893 M181.621 547.241 L181.621 551.5 Q179.862 550.667 178.056 550.227 Q176.274 549.787 174.514 549.787 Q169.885 549.787 167.431 552.912 Q165.001 556.037 164.653 562.356 Q166.019 560.343 168.079 559.278 Q170.139 558.19 172.616 558.19 Q177.825 558.19 180.834 561.361 Q183.866 564.509 183.866 569.949 Q183.866 575.273 180.718 578.491 Q177.57 581.708 172.339 581.708 Q166.343 581.708 163.172 577.125 Q160.001 572.518 160.001 563.792 Q160.001 555.597 163.89 550.736 Q167.778 545.852 174.329 545.852 Q176.089 545.852 177.871 546.199 Q179.676 546.546 181.621 547.241 Z" fill="#000000" fill-rule="nonzero" fill-opacity="1" /><path clip-path="url(#clip490)" d="M127.593 368.042 Q123.982 368.042 122.154 371.607 Q120.348 375.149 120.348 382.278 Q120.348 389.385 122.154 392.95 Q123.982 396.491 127.593 396.491 Q131.228 396.491 133.033 392.95 Q134.862 389.385 134.862 382.278 Q134.862 375.149 133.033 371.607 Q131.228 368.042 127.593 368.042 M127.593 364.339 Q133.404 364.339 136.459 368.945 Q139.538 373.528 139.538 382.278 Q139.538 391.005 136.459 395.612 Q133.404 400.195 127.593 400.195 Q121.783 400.195 118.705 395.612 Q115.649 391.005 115.649 382.278 Q115.649 373.528 118.705 368.945 Q121.783 364.339 127.593 364.339 Z" fill="#000000" fill-rule="nonzero" fill-opacity="1" /><path clip-path="url(#clip490)" d="M147.755 393.644 L152.64 393.644 L152.64 399.524 L147.755 399.524 L147.755 393.644 Z" fill="#000000" fill-rule="nonzero" fill-opacity="1" /><path clip-path="url(#clip490)" d="M161.644 364.964 L183.866 364.964 L183.866 366.954 L171.32 399.524 L166.436 399.524 L178.241 368.899 L161.644 368.899 L161.644 364.964 Z" fill="#000000" fill-rule="nonzero" fill-opacity="1" /><path clip-path="url(#clip490)" d="M126.783 186.529 Q123.172 186.529 121.343 190.094 Q119.538 193.636 119.538 200.765 Q119.538 207.872 121.343 211.436 Q123.172 214.978 126.783 214.978 Q130.417 214.978 132.223 211.436 Q134.052 207.872 134.052 200.765 Q134.052 193.636 132.223 190.094 Q130.417 186.529 126.783 186.529 M126.783 182.825 Q132.593 182.825 135.649 187.432 Q138.728 192.015 138.728 200.765 Q138.728 209.492 135.649 214.098 Q132.593 218.682 126.783 218.682 Q120.973 218.682 117.894 214.098 Q114.839 209.492 114.839 200.765 Q114.839 192.015 117.894 187.432 Q120.973 182.825 126.783 182.825 Z" fill="#000000" fill-rule="nonzero" fill-opacity="1" /><path clip-path="url(#clip490)" d="M146.945 212.131 L151.829 212.131 L151.829 218.01 L146.945 218.01 L146.945 212.131 Z" fill="#000000" fill-rule="nonzero" fill-opacity="1" /><path clip-path="url(#clip490)" d="M172.014 201.599 Q168.681 201.599 166.76 203.381 Q164.862 205.163 164.862 208.288 Q164.862 211.413 166.76 213.196 Q168.681 214.978 172.014 214.978 Q175.348 214.978 177.269 213.196 Q179.19 211.39 179.19 208.288 Q179.19 205.163 177.269 203.381 Q175.371 201.599 172.014 201.599 M167.339 199.608 Q164.329 198.867 162.64 196.807 Q160.973 194.747 160.973 191.784 Q160.973 187.64 163.913 185.233 Q166.876 182.825 172.014 182.825 Q177.176 182.825 180.116 185.233 Q183.056 187.64 183.056 191.784 Q183.056 194.747 181.366 196.807 Q179.7 198.867 176.714 199.608 Q180.093 200.395 181.968 202.686 Q183.866 204.978 183.866 208.288 Q183.866 213.311 180.788 215.997 Q177.732 218.682 172.014 218.682 Q166.297 218.682 163.218 215.997 Q160.163 213.311 160.163 208.288 Q160.163 204.978 162.061 202.686 Q163.959 200.395 167.339 199.608 M165.626 192.224 Q165.626 194.909 167.292 196.413 Q168.982 197.918 172.014 197.918 Q175.024 197.918 176.714 196.413 Q178.426 194.909 178.426 192.224 Q178.426 189.538 176.714 188.034 Q175.024 186.529 172.014 186.529 Q168.982 186.529 167.292 188.034 Q165.626 189.538 165.626 192.224 Z" fill="#000000" fill-rule="nonzero" fill-opacity="1" /><path clip-path="url(#clip490)" d="M28.3562 756.711 L45.7028 769.602 L64.0042 756.043 L64.0042 762.95 L49.9996 773.326 L64.0042 783.702 L64.0042 790.609 L45.3526 776.763 L28.3562 789.431 L28.3562 782.524 L41.0558 773.071 L28.3562 763.618 L28.3562 756.711 Z" fill="#000000" fill-rule="nonzero" fill-opacity="1" /><path clip-path="url(#clip490)" d="M492.253 65.6895 L505.621 65.6895 L505.621 19.5497 L491.078 22.4663 L491.078 15.0127 L505.54 12.096 L513.723 12.096 L513.723 65.6895 L527.091 65.6895 L527.091 72.576 L492.253 72.576 L492.253 65.6895 Z" fill="#000000" fill-rule="nonzero" fill-opacity="1" /><path clip-path="url(#clip490)" d="M543.699 12.096 L575.823 12.096 L575.823 18.9825 L551.193 18.9825 L551.193 33.8088 Q552.976 33.2012 554.758 32.9176 Q556.541 32.5936 558.323 32.5936 Q568.45 32.5936 574.365 38.1433 Q580.279 43.6931 580.279 53.1722 Q580.279 62.9348 574.203 68.3631 Q568.126 73.7508 557.067 73.7508 Q553.259 73.7508 549.29 73.1026 Q545.36 72.4545 541.147 71.1582 L541.147 62.9348 Q544.793 64.9198 548.682 65.892 Q552.571 66.8642 556.905 66.8642 Q563.913 66.8642 568.005 63.1779 Q572.096 59.4916 572.096 53.1722 Q572.096 46.8528 568.005 43.1664 Q563.913 39.4801 556.905 39.4801 Q553.624 39.4801 550.343 40.2093 Q547.102 40.9384 543.699 42.4778 L543.699 12.096 Z" fill="#000000" fill-rule="nonzero" fill-opacity="1" /><path clip-path="url(#clip490)" d="M640.273 17.4837 Q633.953 17.4837 630.753 23.7221 Q627.594 29.92 627.594 42.3968 Q627.594 54.833 630.753 61.0714 Q633.953 67.2693 640.273 67.2693 Q646.633 67.2693 649.793 61.0714 Q652.993 54.833 652.993 42.3968 Q652.993 29.92 649.793 23.7221 Q646.633 17.4837 640.273 17.4837 M640.273 11.0023 Q650.441 11.0023 655.788 19.0636 Q661.176 27.0843 661.176 42.3968 Q661.176 57.6687 655.788 65.73 Q650.441 73.7508 640.273 73.7508 Q630.105 73.7508 624.717 65.73 Q619.37 57.6687 619.37 42.3968 Q619.37 27.0843 624.717 19.0636 Q630.105 11.0023 640.273 11.0023 Z" fill="#000000" fill-rule="nonzero" fill-opacity="1" /><path clip-path="url(#clip490)" d="M693.056 17.4837 Q686.737 17.4837 683.537 23.7221 Q680.377 29.92 680.377 42.3968 Q680.377 54.833 683.537 61.0714 Q686.737 67.2693 693.056 67.2693 Q699.416 67.2693 702.576 61.0714 Q705.776 54.833 705.776 42.3968 Q705.776 29.92 702.576 23.7221 Q699.416 17.4837 693.056 17.4837 M693.056 11.0023 Q703.224 11.0023 708.571 19.0636 Q713.959 27.0843 713.959 42.3968 Q713.959 57.6687 708.571 65.73 Q703.224 73.7508 693.056 73.7508 Q682.888 73.7508 677.501 65.73 Q672.153 57.6687 672.153 42.3968 Q672.153 27.0843 677.501 19.0636 Q682.888 11.0023 693.056 11.0023 Z" fill="#000000" fill-rule="nonzero" fill-opacity="1" /><path clip-path="url(#clip490)" d="M745.839 17.4837 Q739.52 17.4837 736.32 23.7221 Q733.16 29.92 733.16 42.3968 Q733.16 54.833 736.32 61.0714 Q739.52 67.2693 745.839 67.2693 Q752.199 67.2693 755.359 61.0714 Q758.559 54.833 758.559 42.3968 Q758.559 29.92 755.359 23.7221 Q752.199 17.4837 745.839 17.4837 M745.839 11.0023 Q756.007 11.0023 761.354 19.0636 Q766.742 27.0843 766.742 42.3968 Q766.742 57.6687 761.354 65.73 Q756.007 73.7508 745.839 73.7508 Q735.672 73.7508 730.284 65.73 Q724.937 57.6687 724.937 42.3968 Q724.937 27.0843 730.284 19.0636 Q735.672 11.0023 745.839 11.0023 Z" fill="#000000" fill-rule="nonzero" fill-opacity="1" /><path clip-path="url(#clip490)" d="M843.021 14.0809 L843.021 22.0612 Q838.362 19.8332 834.23 18.7395 Q830.098 17.6457 826.25 17.6457 Q819.566 17.6457 815.92 20.2383 Q812.315 22.8309 812.315 27.611 Q812.315 31.6214 814.705 33.6873 Q817.135 35.7128 823.86 36.9686 L828.802 37.9813 Q837.957 39.7232 842.291 44.1387 Q846.666 48.5136 846.666 55.8863 Q846.666 64.6767 840.752 69.2137 Q834.878 73.7508 823.495 73.7508 Q819.201 73.7508 814.34 72.7785 Q809.52 71.8063 804.335 69.9024 L804.335 61.4765 Q809.317 64.2716 814.097 65.6895 Q818.877 67.1073 823.495 67.1073 Q830.503 67.1073 834.311 64.3527 Q838.119 61.598 838.119 56.4939 Q838.119 52.0379 835.364 49.5264 Q832.65 47.0148 826.412 45.759 L821.429 44.7868 Q812.274 42.9639 808.183 39.075 Q804.091 35.1862 804.091 28.2591 Q804.091 20.2383 809.722 15.6203 Q815.393 11.0023 825.318 11.0023 Q829.572 11.0023 833.987 11.7719 Q838.403 12.5416 843.021 14.0809 Z" fill="#000000" fill-rule="nonzero" fill-opacity="1" /><path clip-path="url(#clip490)" d="M879.722 49.7694 Q870.688 49.7694 867.205 51.8354 Q863.721 53.9013 863.721 58.8839 Q863.721 62.8538 866.313 65.2034 Q868.946 67.5124 873.443 67.5124 Q879.641 67.5124 883.368 63.1374 Q887.135 58.7219 887.135 51.4303 L887.135 49.7694 L879.722 49.7694 M894.589 46.6907 L894.589 72.576 L887.135 72.576 L887.135 65.6895 Q884.583 69.8214 880.775 71.8063 Q876.967 73.7508 871.458 73.7508 Q864.49 73.7508 860.359 69.8619 Q856.267 65.9325 856.267 59.3701 Q856.267 51.7138 861.371 47.825 Q866.516 43.9361 876.684 43.9361 L887.135 43.9361 L887.135 43.2069 Q887.135 38.0623 883.732 35.2672 Q880.37 32.4315 874.253 32.4315 Q870.364 32.4315 866.678 33.3632 Q862.992 34.295 859.589 36.1584 L859.589 29.2718 Q863.68 27.692 867.529 26.9223 Q871.377 26.1121 875.023 26.1121 Q884.866 26.1121 889.728 31.2163 Q894.589 36.3204 894.589 46.6907 Z" fill="#000000" fill-rule="nonzero" fill-opacity="1" /><path clip-path="url(#clip490)" d="M945.265 35.9153 Q948.061 30.8922 951.949 28.5022 Q955.838 26.1121 961.104 26.1121 Q968.194 26.1121 972.042 31.0947 Q975.89 36.0368 975.89 45.1919 L975.89 72.576 L968.396 72.576 L968.396 45.4349 Q968.396 38.913 966.087 35.7533 Q963.778 32.5936 959.039 32.5936 Q953.246 32.5936 949.883 36.4419 Q946.521 40.2903 946.521 46.9338 L946.521 72.576 L939.027 72.576 L939.027 45.4349 Q939.027 38.8725 936.718 35.7533 Q934.409 32.5936 929.588 32.5936 Q923.877 32.5936 920.514 36.4824 Q917.152 40.3308 917.152 46.9338 L917.152 72.576 L909.658 72.576 L909.658 27.2059 L917.152 27.2059 L917.152 34.2544 Q919.704 30.082 923.269 28.0971 Q926.834 26.1121 931.735 26.1121 Q936.678 26.1121 940.121 28.6237 Q943.605 31.1352 945.265 35.9153 Z" fill="#000000" fill-rule="nonzero" fill-opacity="1" /><path clip-path="url(#clip490)" d="M997.968 65.7705 L997.968 89.8329 L990.474 89.8329 L990.474 27.2059 L997.968 27.2059 L997.968 34.0924 Q1000.32 30.0415 1003.88 28.0971 Q1007.49 26.1121 1012.47 26.1121 Q1020.73 26.1121 1025.88 32.6746 Q1031.06 39.2371 1031.06 49.9314 Q1031.06 60.6258 1025.88 67.1883 Q1020.73 73.7508 1012.47 73.7508 Q1007.49 73.7508 1003.88 71.8063 Q1000.32 69.8214 997.968 65.7705 M1023.33 49.9314 Q1023.33 41.7081 1019.92 37.0496 Q1016.56 32.3505 1010.65 32.3505 Q1004.73 32.3505 1001.33 37.0496 Q997.968 41.7081 997.968 49.9314 Q997.968 58.1548 1001.33 62.8538 Q1004.73 67.5124 1010.65 67.5124 Q1016.56 67.5124 1019.92 62.8538 Q1023.33 58.1548 1023.33 49.9314 Z" fill="#000000" fill-rule="nonzero" fill-opacity="1" /><path clip-path="url(#clip490)" d="M1043.42 9.54393 L1050.87 9.54393 L1050.87 72.576 L1043.42 72.576 L1043.42 9.54393 Z" fill="#000000" fill-rule="nonzero" fill-opacity="1" /><path clip-path="url(#clip490)" d="M1105.28 48.0275 L1105.28 51.6733 L1071.01 51.6733 Q1071.49 59.3701 1075.62 63.421 Q1079.8 67.4314 1087.21 67.4314 Q1091.5 67.4314 1095.51 66.3781 Q1099.56 65.3249 1103.53 63.2184 L1103.53 70.267 Q1099.52 71.9684 1095.31 72.8596 Q1091.1 73.7508 1086.76 73.7508 Q1075.91 73.7508 1069.55 67.4314 Q1063.23 61.1119 1063.23 50.3365 Q1063.23 39.1965 1069.22 32.6746 Q1075.26 26.1121 1085.47 26.1121 Q1094.62 26.1121 1099.93 32.0264 Q1105.28 37.9003 1105.28 48.0275 M1097.82 45.84 Q1097.74 39.7232 1094.38 36.0774 Q1091.06 32.4315 1085.55 32.4315 Q1079.31 32.4315 1075.54 35.9558 Q1071.82 39.4801 1071.25 45.8805 L1097.82 45.84 Z" fill="#000000" fill-rule="nonzero" fill-opacity="1" /><path clip-path="url(#clip490)" d="M1144.21 12.096 L1156.4 12.096 L1171.83 53.2532 L1187.35 12.096 L1199.54 12.096 L1199.54 72.576 L1191.56 72.576 L1191.56 19.4686 L1175.96 60.9499 L1167.74 60.9499 L1152.15 19.4686 L1152.15 72.576 L1144.21 72.576 L1144.21 12.096 Z" fill="#000000" fill-rule="nonzero" fill-opacity="1" /><path clip-path="url(#clip490)" d="M1254.27 48.0275 L1254.27 51.6733 L1220 51.6733 Q1220.48 59.3701 1224.62 63.421 Q1228.79 67.4314 1236.2 67.4314 Q1240.5 67.4314 1244.51 66.3781 Q1248.56 65.3249 1252.53 63.2184 L1252.53 70.267 Q1248.52 71.9684 1244.3 72.8596 Q1240.09 73.7508 1235.76 73.7508 Q1224.9 73.7508 1218.54 67.4314 Q1212.22 61.1119 1212.22 50.3365 Q1212.22 39.1965 1218.22 32.6746 Q1224.25 26.1121 1234.46 26.1121 Q1243.61 26.1121 1248.92 32.0264 Q1254.27 37.9003 1254.27 48.0275 M1246.81 45.84 Q1246.73 39.7232 1243.37 36.0774 Q1240.05 32.4315 1234.54 32.4315 Q1228.3 32.4315 1224.53 35.9558 Q1220.81 39.4801 1220.24 45.8805 L1246.81 45.84 Z" fill="#000000" fill-rule="nonzero" fill-opacity="1" /><path clip-path="url(#clip490)" d="M1287.12 49.7694 Q1278.09 49.7694 1274.6 51.8354 Q1271.12 53.9013 1271.12 58.8839 Q1271.12 62.8538 1273.71 65.2034 Q1276.35 67.5124 1280.84 67.5124 Q1287.04 67.5124 1290.77 63.1374 Q1294.53 58.7219 1294.53 51.4303 L1294.53 49.7694 L1287.12 49.7694 M1301.99 46.6907 L1301.99 72.576 L1294.53 72.576 L1294.53 65.6895 Q1291.98 69.8214 1288.17 71.8063 Q1284.37 73.7508 1278.86 73.7508 Q1271.89 73.7508 1267.76 69.8619 Q1263.67 65.9325 1263.67 59.3701 Q1263.67 51.7138 1268.77 47.825 Q1273.92 43.9361 1284.08 43.9361 L1294.53 43.9361 L1294.53 43.2069 Q1294.53 38.0623 1291.13 35.2672 Q1287.77 32.4315 1281.65 32.4315 Q1277.76 32.4315 1274.08 33.3632 Q1270.39 34.295 1266.99 36.1584 L1266.99 29.2718 Q1271.08 27.692 1274.93 26.9223 Q1278.78 26.1121 1282.42 26.1121 Q1292.27 26.1121 1297.13 31.2163 Q1301.99 36.3204 1301.99 46.6907 Z" fill="#000000" fill-rule="nonzero" fill-opacity="1" /><path clip-path="url(#clip490)" d="M1355.05 45.1919 L1355.05 72.576 L1347.6 72.576 L1347.6 45.4349 Q1347.6 38.994 1345.09 35.7938 Q1342.58 32.5936 1337.56 32.5936 Q1331.52 32.5936 1328.04 36.4419 Q1324.55 40.2903 1324.55 46.9338 L1324.55 72.576 L1317.06 72.576 L1317.06 27.2059 L1324.55 27.2059 L1324.55 34.2544 Q1327.23 30.163 1330.83 28.1376 Q1334.48 26.1121 1339.22 26.1121 Q1347.03 26.1121 1351.04 30.9732 Q1355.05 35.7938 1355.05 45.1919 Z" fill="#000000" fill-rule="nonzero" fill-opacity="1" /><path clip-path="url(#clip490)" d="M1416.91 49.7694 Q1407.88 49.7694 1404.39 51.8354 Q1400.91 53.9013 1400.91 58.8839 Q1400.91 62.8538 1403.5 65.2034 Q1406.14 67.5124 1410.63 67.5124 Q1416.83 67.5124 1420.56 63.1374 Q1424.33 58.7219 1424.33 51.4303 L1424.33 49.7694 L1416.91 49.7694 M1431.78 46.6907 L1431.78 72.576 L1424.33 72.576 L1424.33 65.6895 Q1421.77 69.8214 1417.97 71.8063 Q1414.16 73.7508 1408.65 73.7508 Q1401.68 73.7508 1397.55 69.8619 Q1393.46 65.9325 1393.46 59.3701 Q1393.46 51.7138 1398.56 47.825 Q1403.71 43.9361 1413.87 43.9361 L1424.33 43.9361 L1424.33 43.2069 Q1424.33 38.0623 1420.92 35.2672 Q1417.56 32.4315 1411.44 32.4315 Q1407.55 32.4315 1403.87 33.3632 Q1400.18 34.295 1396.78 36.1584 L1396.78 29.2718 Q1400.87 27.692 1404.72 26.9223 Q1408.57 26.1121 1412.21 26.1121 Q1422.06 26.1121 1426.92 31.2163 Q1431.78 36.3204 1431.78 46.6907 Z" fill="#000000" fill-rule="nonzero" fill-opacity="1" /><path clip-path="url(#clip490)" d="M1484.85 45.1919 L1484.85 72.576 L1477.39 72.576 L1477.39 45.4349 Q1477.39 38.994 1474.88 35.7938 Q1472.37 32.5936 1467.35 32.5936 Q1461.31 32.5936 1457.83 36.4419 Q1454.34 40.2903 1454.34 46.9338 L1454.34 72.576 L1446.85 72.576 L1446.85 27.2059 L1454.34 27.2059 L1454.34 34.2544 Q1457.02 30.163 1460.62 28.1376 Q1464.27 26.1121 1469.01 26.1121 Q1476.83 26.1121 1480.84 30.9732 Q1484.85 35.7938 1484.85 45.1919 Z" fill="#000000" fill-rule="nonzero" fill-opacity="1" /><path clip-path="url(#clip490)" d="M1529.57 34.0924 L1529.57 9.54393 L1537.02 9.54393 L1537.02 72.576 L1529.57 72.576 L1529.57 65.7705 Q1527.22 69.8214 1523.61 71.8063 Q1520.05 73.7508 1515.03 73.7508 Q1506.8 73.7508 1501.62 67.1883 Q1496.47 60.6258 1496.47 49.9314 Q1496.47 39.2371 1501.62 32.6746 Q1506.8 26.1121 1515.03 26.1121 Q1520.05 26.1121 1523.61 28.0971 Q1527.22 30.0415 1529.57 34.0924 M1504.17 49.9314 Q1504.17 58.1548 1507.53 62.8538 Q1510.93 67.5124 1516.85 67.5124 Q1522.76 67.5124 1526.17 62.8538 Q1529.57 58.1548 1529.57 49.9314 Q1529.57 41.7081 1526.17 37.0496 Q1522.76 32.3505 1516.85 32.3505 Q1510.93 32.3505 1507.53 37.0496 Q1504.17 41.7081 1504.17 49.9314 Z" fill="#000000" fill-rule="nonzero" fill-opacity="1" /><path clip-path="url(#clip490)" d="M1615.33 14.0809 L1615.33 22.0612 Q1610.67 19.8332 1606.54 18.7395 Q1602.4 17.6457 1598.55 17.6457 Q1591.87 17.6457 1588.22 20.2383 Q1584.62 22.8309 1584.62 27.611 Q1584.62 31.6214 1587.01 33.6873 Q1589.44 35.7128 1596.16 36.9686 L1601.11 37.9813 Q1610.26 39.7232 1614.6 44.1387 Q1618.97 48.5136 1618.97 55.8863 Q1618.97 64.6767 1613.06 69.2137 Q1607.18 73.7508 1595.8 73.7508 Q1591.51 73.7508 1586.65 72.7785 Q1581.82 71.8063 1576.64 69.9024 L1576.64 61.4765 Q1581.62 64.2716 1586.4 65.6895 Q1591.18 67.1073 1595.8 67.1073 Q1602.81 67.1073 1606.62 64.3527 Q1610.42 61.598 1610.42 56.4939 Q1610.42 52.0379 1607.67 49.5264 Q1604.96 47.0148 1598.72 45.759 L1593.73 44.7868 Q1584.58 42.9639 1580.49 39.075 Q1576.4 35.1862 1576.4 28.2591 Q1576.4 20.2383 1582.03 15.6203 Q1587.7 11.0023 1597.62 11.0023 Q1601.88 11.0023 1606.29 11.7719 Q1610.71 12.5416 1615.33 14.0809 Z" fill="#000000" fill-rule="nonzero" fill-opacity="1" /><path clip-path="url(#clip490)" d="M1638.78 14.324 L1638.78 27.2059 L1654.13 27.2059 L1654.13 32.9987 L1638.78 32.9987 L1638.78 57.6282 Q1638.78 63.1779 1640.28 64.7578 Q1641.82 66.3376 1646.48 66.3376 L1654.13 66.3376 L1654.13 72.576 L1646.48 72.576 Q1637.85 72.576 1634.57 69.3758 Q1631.29 66.1351 1631.29 57.6282 L1631.29 32.9987 L1625.82 32.9987 L1625.82 27.2059 L1631.29 27.2059 L1631.29 14.324 L1638.78 14.324 Z" fill="#000000" fill-rule="nonzero" fill-opacity="1" /><path clip-path="url(#clip490)" d="M1693.79 34.0924 L1693.79 9.54393 L1701.25 9.54393 L1701.25 72.576 L1693.79 72.576 L1693.79 65.7705 Q1691.44 69.8214 1687.84 71.8063 Q1684.27 73.7508 1679.25 73.7508 Q1671.03 73.7508 1665.84 67.1883 Q1660.7 60.6258 1660.7 49.9314 Q1660.7 39.2371 1665.84 32.6746 Q1671.03 26.1121 1679.25 26.1121 Q1684.27 26.1121 1687.84 28.0971 Q1691.44 30.0415 1693.79 34.0924 M1668.39 49.9314 Q1668.39 58.1548 1671.75 62.8538 Q1675.16 67.5124 1681.07 67.5124 Q1686.99 67.5124 1690.39 62.8538 Q1693.79 58.1548 1693.79 49.9314 Q1693.79 41.7081 1690.39 37.0496 Q1686.99 32.3505 1681.07 32.3505 Q1675.16 32.3505 1671.75 37.0496 Q1668.39 41.7081 1668.39 49.9314 Z" fill="#000000" fill-rule="nonzero" fill-opacity="1" /><path clip-path="url(#clip490)" d="M1717.65 62.2867 L1726.2 62.2867 L1726.2 72.576 L1717.65 72.576 L1717.65 62.2867 Z" fill="#000000" fill-rule="nonzero" fill-opacity="1" /><path clip-path="url(#clip490)" d="M1744.87 62.2867 L1753.42 62.2867 L1753.42 69.2543 L1746.78 82.2172 L1741.55 82.2172 L1744.87 69.2543 L1744.87 62.2867 Z" fill="#000000" fill-rule="nonzero" fill-opacity="1" /><path clip-path="url(#clip490)" d="M1828.57 20.0358 Q1824.43 17.2001 1814.75 17.2001 Q1804.5 17.2001 1804.5 21.9397 Q1804.5 25.6665 1815.2 27.611 Q1823.62 29.1098 1828.36 33.6468 Q1834.11 39.1155 1834.11 50.3365 Q1834.11 61.0714 1828.57 67.3908 Q1823.02 73.7508 1813.29 73.7508 Q1803.61 73.7508 1798.02 67.3908 Q1792.47 61.0714 1792.47 49.9314 Q1792.47 41.6676 1798.02 34.9836 Q1800.17 32.391 1803.21 30.9327 Q1796.89 27.7325 1796.89 22.0207 Q1796.89 11.0023 1814.75 11.0023 Q1823.7 11.0023 1828.57 13.8379 L1828.57 20.0358 M1808.8 32.9582 Q1806.04 34.1329 1803.81 37.0901 Q1800.33 41.6676 1800.33 49.9314 Q1800.33 58.1548 1803.77 62.7728 Q1807.26 67.4314 1813.29 67.4314 Q1819.25 67.4314 1822.73 62.7323 Q1826.22 58.0333 1826.22 50.3365 Q1826.22 42.2752 1822.53 38.3864 Q1818.6 34.2139 1813.5 33.7683 Q1810.9 33.5253 1808.8 32.9582 Z" fill="#000000" fill-rule="nonzero" fill-opacity="1" /><path clip-path="url(#clip490)" d="M1884.18 27.2059 L1867.78 49.2833 L1885.03 72.576 L1876.24 72.576 L1863.04 54.752 L1849.83 72.576 L1841.04 72.576 L1858.66 48.8377 L1842.54 27.2059 L1851.33 27.2059 L1863.36 43.369 L1875.39 27.2059 L1884.18 27.2059 Z" fill="#000000" fill-rule="nonzero" fill-opacity="1" /><path clip-path="url(#clip490)" d="M1896.54 34.9026 L1948.47 34.9026 L1948.47 41.7081 L1896.54 41.7081 L1896.54 34.9026 M1896.54 51.4303 L1948.47 51.4303 L1948.47 58.3168 L1896.54 58.3168 L1896.54 51.4303 Z" fill="#000000" fill-rule="nonzero" fill-opacity="1" /><path clip-path="url(#clip490)" d="M1983.63 17.4837 Q1977.31 17.4837 1974.11 23.7221 Q1970.95 29.92 1970.95 42.3968 Q1970.95 54.833 1974.11 61.0714 Q1977.31 67.2693 1983.63 67.2693 Q1989.99 67.2693 1993.15 61.0714 Q1996.35 54.833 1996.35 42.3968 Q1996.35 29.92 1993.15 23.7221 Q1989.99 17.4837 1983.63 17.4837 M1983.63 11.0023 Q1993.8 11.0023 1999.15 19.0636 Q2004.54 27.0843 2004.54 42.3968 Q2004.54 57.6687 1999.15 65.73 Q1993.8 73.7508 1983.63 73.7508 Q1973.47 73.7508 1968.08 65.73 Q1962.73 57.6687 1962.73 42.3968 Q1962.73 27.0843 1968.08 19.0636 Q1973.47 11.0023 1983.63 11.0023 Z" fill="#000000" fill-rule="nonzero" fill-opacity="1" /><path clip-path="url(#clip490)" d="M2018.92 62.2867 L2027.46 62.2867 L2027.46 72.576 L2018.92 72.576 L2018.92 62.2867 Z" fill="#000000" fill-rule="nonzero" fill-opacity="1" /><path clip-path="url(#clip490)" d="M2046.71 65.6895 L2060.07 65.6895 L2060.07 19.5497 L2045.53 22.4663 L2045.53 15.0127 L2059.99 12.096 L2068.18 12.096 L2068.18 65.6895 L2081.54 65.6895 L2081.54 72.576 L2046.71 72.576 L2046.71 65.6895 Z" fill="#000000" fill-rule="nonzero" fill-opacity="1" /><path clip-path="url(#clip492)" d="M280.231 1364.63 L300.556 1368.95 L320.881 1376.28 L341.206 1379.01 L361.53 1380.68 L381.855 1377.95 L402.18 1370.39 L422.505 1355.91 L442.83 1344.37 L463.155 1335.39 L483.48 1327.79 L503.804 1314.47 L524.129 1310.41 L544.454 1315.63 L564.779 1307.35 L585.104 1338.86 L605.429 1357.01 L625.753 1360.42 L646.078 1368.63 L666.403 1373.35 L686.728 1377.45 L707.053 1379.46 L727.378 1371.08 L747.703 1351.58 L768.027 1354.52 L788.352 1340.58 L808.677 1332.49 L829.002 1310.77 L849.327 1308.67 L869.652 1320.57 L889.977 1319.72 L910.301 1326.44 L930.626 1345.41 L950.951 1352.51 L971.276 1372.36 L991.601 1367.12 L1011.93 1386.4 L1032.25 1375.17 L1052.58 1376.05 L1072.9 1370.19 L1093.23 1358.32 L1113.55 1345.76 L1133.87 1335.41 L1154.2 1321.67 L1174.52 1312.4 L1194.85 1305.36 L1215.17 1313.62 L1235.5 1317.64 L1255.82 1343.78 L1276.15 1354.04 L1296.47 1361.84 L1316.8 1365.8 L1337.12 1375.59 L1357.45 1372.93 L1377.77 1379.75 L1398.1 1378 L1418.42 1359.42 L1438.75 1349.9 L1459.07 1339.53 L1479.4 1327.03 L1499.72 1315.68 L1520.05 1312.62 L1540.37 1304.34 L1560.7 1325.5 L1581.02 1328.52 L1601.35 1344.73 L1621.67 1355.25 L1642 1375.2 L1662.32 1377.95 L1682.65 1379.7 L1702.97 1384.21 L1723.3 1380.15 L1743.62 1365.55 L1763.95 1366.48 L1784.27 1352.86 L1804.59 1340.69 L1824.92 1322.08 L1845.24 1317.11 L1865.57 1308.39 L1885.89 1321.91 L1906.22 1325.93 L1926.54 1334.37 L1946.87 1344.16 L1967.19 1360.56 L1987.52 1378.06 L2007.84 1379.99 L2028.17 1378.31 L2048.49 1374.94 L2068.82 1372.89 L2089.14 1366.78 L2109.47 1357.47 L2129.79 1342.86 L2150.12 1330.85 L2170.44 1315.73 L2190.77 1317.59 L2211.09 1311.67 L2231.42 1324.69 L2251.74 1330.39 L2272.07 1339.15 L2292.39 1358.14 L2292.39 214.057 L2272.07 195.071 L2251.74 186.31 L2231.42 180.61 L2211.09 167.589 L2190.77 173.507 L2170.44 171.643 L2150.12 186.769 L2129.79 198.773 L2109.47 213.391 L2089.14 222.697 L2068.82 228.808 L2048.49 230.853 L2028.17 234.229 L2007.84 235.911 L1987.52 233.975 L1967.19 216.477 L1946.87 200.08 L1926.54 190.291 L1906.22 181.844 L1885.89 177.827 L1865.57 164.31 L1845.24 173.023 L1824.92 177.996 L1804.59 196.607 L1784.27 208.781 L1763.95 222.394 L1743.62 221.463 L1723.3 236.068 L1702.97 240.122 L1682.65 235.621 L1662.32 233.866 L1642 231.119 L1621.67 211.165 L1601.35 200.649 L1581.02 184.434 L1560.7 181.421 L1540.37 160.256 L1520.05 168.533 L1499.72 171.595 L1479.4 182.945 L1459.07 195.446 L1438.75 205.816 L1418.42 215.34 L1398.1 233.914 L1377.77 235.669 L1357.45 228.844 L1337.12 231.506 L1316.8 221.717 L1296.47 217.76 L1276.15 209.955 L1255.82 199.693 L1235.5 173.555 L1215.17 169.538 L1194.85 161.273 L1174.52 168.315 L1154.2 177.585 L1133.87 191.331 L1113.55 201.678 L1093.23 214.238 L1072.9 226.109 L1052.58 231.966 L1032.25 231.083 L1011.93 242.312 L991.601 223.036 L971.276 228.275 L950.951 208.43 L930.626 201.327 L910.301 182.353 L889.977 175.637 L869.652 176.484 L849.327 164.588 L829.002 166.682 L808.677 188.403 L788.352 196.498 L768.027 210.439 L747.703 207.498 L727.378 226.993 L707.053 235.379 L686.728 233.37 L666.403 229.268 L646.078 224.548 L625.753 216.332 L605.429 212.931 L585.104 194.78 L564.779 163.269 L544.454 171.546 L524.129 166.331 L503.804 170.385 L483.48 183.708 L463.155 191.307 L442.83 200.286 L422.505 211.83 L402.18 226.303 L381.855 233.866 L361.53 236.601 L341.206 234.931 L320.881 232.196 L300.556 224.863 L280.231 220.543  Z" fill="#009af9" fill-rule="evenodd" fill-opacity="0.5"/>
<polyline clip-path="url(#clip492)" style="stroke:#009af9; stroke-linecap:round; stroke-linejoin:round; stroke-width:8; stroke-opacity:0.8; fill:none" points="280.231,792.585 300.556,796.905 320.881,804.238 341.206,806.972 361.53,808.642 381.855,805.908 402.18,798.345 422.505,783.872 442.83,772.328 463.155,763.349 483.48,755.749 503.804,742.426 524.129,738.373 544.454,743.588 564.779,735.311 585.104,766.822 605.429,784.973 625.753,788.373 646.078,796.59 666.403,801.309 686.728,805.411 707.053,807.42 727.378,799.034 747.703,779.54 768.027,782.48 788.352,768.54 808.677,760.445 829.002,738.724 849.327,736.63 869.652,748.525 889.977,747.678 910.301,754.394 930.626,773.368 950.951,780.472 971.276,800.317 991.601,795.077 1011.93,814.354 1032.25,803.124 1052.58,804.008 1072.9,798.151 1093.23,786.28 1113.55,773.719 1133.87,763.373 1154.2,749.626 1174.52,740.357 1194.85,733.314 1215.17,741.579 1235.5,745.597 1255.82,771.735 1276.15,781.996 1296.47,789.801 1316.8,793.758 1337.12,803.548 1357.45,800.886 1377.77,807.711 1398.1,805.956 1418.42,787.381 1438.75,777.858 1459.07,767.487 1479.4,754.987 1499.72,743.636 1520.05,740.575 1540.37,732.298 1560.7,753.462 1581.02,756.476 1601.35,772.691 1621.67,783.206 1642,803.161 1662.32,805.908 1682.65,807.662 1702.97,812.164 1723.3,808.11 1743.62,793.504 1763.95,794.436 1784.27,780.822 1804.59,768.649 1824.92,750.038 1845.24,745.064 1865.57,736.352 1885.89,749.868 1906.22,753.886 1926.54,762.332 1946.87,772.122 1967.19,788.519 1987.52,806.017 2007.84,807.953 2028.17,806.271 2048.49,802.894 2068.82,800.849 2089.14,794.738 2109.47,785.433 2129.79,770.815 2150.12,758.811 2170.44,743.685 2190.77,745.548 2211.09,739.631 2231.42,752.652 2251.74,758.351 2272.07,767.112 2292.39,786.098 "/>
<path clip-path="url(#clip492)" d="M280.231 1036.94 L300.556 1036.64 L320.881 1036.28 L341.206 1035.74 L361.53 1035.12 L381.855 1034.69 L402.18 1034.66 L422.505 1034.96 L442.83 1035.36 L463.155 1035.69 L483.48 1036.01 L503.804 1036.51 L524.129 1037.13 L544.454 1037.63 L564.779 1037.77 L585.104 1037.53 L605.429 1037.13 L625.753 1036.79 L646.078 1036.48 L666.403 1036.04 L686.728 1035.42 L707.053 1034.86 L727.378 1034.62 L747.703 1034.78 L768.027 1035.17 L788.352 1035.54 L808.677 1035.83 L829.002 1036.23 L849.327 1036.82 L869.652 1037.42 L889.977 1037.75 L910.301 1037.69 L930.626 1037.33 L950.951 1036.94 L971.276 1036.64 L991.601 1036.28 L1011.93 1035.74 L1032.25 1035.12 L1052.58 1034.69 L1072.9 1034.66 L1093.23 1034.96 L1113.55 1035.36 L1133.87 1035.69 L1154.2 1036.01 L1174.52 1036.51 L1194.85 1037.13 L1215.17 1037.63 L1235.5 1037.77 L1255.82 1037.53 L1276.15 1037.13 L1296.47 1036.79 L1316.8 1036.48 L1337.12 1036.04 L1357.45 1035.42 L1377.77 1034.86 L1398.1 1034.62 L1418.42 1034.78 L1438.75 1035.17 L1459.07 1035.54 L1479.4 1035.83 L1499.72 1036.23 L1520.05 1036.82 L1540.37 1037.42 L1560.7 1037.75 L1581.02 1037.69 L1601.35 1037.33 L1621.67 1036.94 L1642 1036.64 L1662.32 1036.28 L1682.65 1035.74 L1702.97 1035.12 L1723.3 1034.69 L1743.62 1034.66 L1763.95 1034.96 L1784.27 1035.36 L1804.59 1035.69 L1824.92 1036.01 L1845.24 1036.51 L1865.57 1037.13 L1885.89 1037.63 L1906.22 1037.77 L1926.54 1037.53 L1946.87 1037.13 L1967.19 1036.79 L1987.52 1036.48 L2007.84 1036.04 L2028.17 1035.42 L2048.49 1034.86 L2068.82 1034.62 L2089.14 1034.78 L2109.47 1035.17 L2129.79 1035.54 L2150.12 1035.83 L2170.44 1036.23 L2190.77 1036.82 L2211.09 1037.42 L2231.42 1037.75 L2251.74 1037.69 L2272.07 1037.33 L2292.39 1036.94 L2292.39 455.429 L2272.07 455.818 L2251.74 456.172 L2231.42 456.239 L2211.09 455.902 L2190.77 455.302 L2170.44 454.716 L2150.12 454.319 L2129.79 454.02 L2109.47 453.653 L2089.14 453.267 L2068.82 453.108 L2048.49 453.347 L2028.17 453.906 L2007.84 454.52 L1987.52 454.966 L1967.19 455.27 L1946.87 455.614 L1926.54 456.015 L1906.22 456.254 L1885.89 456.118 L1865.57 455.618 L1845.24 454.991 L1824.92 454.494 L1804.59 454.171 L1784.27 453.849 L1763.95 453.448 L1743.62 453.143 L1723.3 453.177 L1702.97 453.601 L1682.65 454.224 L1662.32 454.769 L1642 455.124 L1621.67 455.429 L1601.35 455.818 L1581.02 456.172 L1560.7 456.239 L1540.37 455.902 L1520.05 455.302 L1499.72 454.716 L1479.4 454.319 L1459.07 454.02 L1438.75 453.653 L1418.42 453.267 L1398.1 453.108 L1377.77 453.347 L1357.45 453.906 L1337.12 454.52 L1316.8 454.966 L1296.47 455.27 L1276.15 455.614 L1255.82 456.015 L1235.5 456.254 L1215.17 456.118 L1194.85 455.618 L1174.52 454.991 L1154.2 454.494 L1133.87 454.171 L1113.55 453.849 L1093.23 453.448 L1072.9 453.143 L1052.58 453.177 L1032.25 453.601 L1011.93 454.224 L991.601 454.769 L971.276 455.124 L950.951 455.429 L930.626 455.818 L910.301 456.172 L889.977 456.239 L869.652 455.902 L849.327 455.302 L829.002 454.716 L808.677 454.319 L788.352 454.02 L768.027 453.653 L747.703 453.267 L727.378 453.108 L707.053 453.347 L686.728 453.906 L666.403 454.52 L646.078 454.966 L625.753 455.27 L605.429 455.614 L585.104 456.015 L564.779 456.254 L544.454 456.118 L524.129 455.618 L503.804 454.991 L483.48 454.494 L463.155 454.171 L442.83 453.849 L422.505 453.448 L402.18 453.143 L381.855 453.177 L361.53 453.601 L341.206 454.224 L320.881 454.769 L300.556 455.124 L280.231 455.429  Z" fill="#e26f46" fill-rule="evenodd" fill-opacity="0.5"/>
<polyline clip-path="url(#clip492)" style="stroke:#e26f46; stroke-linecap:round; stroke-linejoin:round; stroke-width:8; stroke-opacity:0.8; fill:none" points="280.231,746.187 300.556,745.882 320.881,745.527 341.206,744.982 361.53,744.359 381.855,743.935 402.18,743.901 422.505,744.206 442.83,744.607 463.155,744.928 483.48,745.252 503.804,745.748 524.129,746.376 544.454,746.875 564.779,747.012 585.104,746.773 605.429,746.372 625.753,746.028 646.078,745.723 666.403,745.278 686.728,744.664 707.053,744.105 727.378,743.866 747.703,744.024 768.027,744.41 788.352,744.778 808.677,745.077 829.002,745.474 849.327,746.059 869.652,746.66 889.977,746.996 910.301,746.93 930.626,746.575 950.951,746.187 971.276,745.882 991.601,745.527 1011.93,744.982 1032.25,744.359 1052.58,743.935 1072.9,743.901 1093.23,744.206 1113.55,744.607 1133.87,744.928 1154.2,745.252 1174.52,745.748 1194.85,746.376 1215.17,746.875 1235.5,747.012 1255.82,746.773 1276.15,746.372 1296.47,746.028 1316.8,745.723 1337.12,745.278 1357.45,744.664 1377.77,744.105 1398.1,743.866 1418.42,744.024 1438.75,744.41 1459.07,744.778 1479.4,745.077 1499.72,745.474 1520.05,746.059 1540.37,746.66 1560.7,746.996 1581.02,746.93 1601.35,746.575 1621.67,746.187 1642,745.882 1662.32,745.527 1682.65,744.982 1702.97,744.359 1723.3,743.935 1743.62,743.901 1763.95,744.206 1784.27,744.607 1804.59,744.928 1824.92,745.252 1845.24,745.748 1865.57,746.376 1885.89,746.875 1906.22,747.012 1926.54,746.773 1946.87,746.372 1967.19,746.028 1987.52,745.723 2007.84,745.278 2028.17,744.664 2048.49,744.105 2068.82,743.866 2089.14,744.024 2109.47,744.41 2129.79,744.778 2150.12,745.077 2170.44,745.474 2190.77,746.059 2211.09,746.66 2231.42,746.996 2251.74,746.93 2272.07,746.575 2292.39,746.187 "/>
<path clip-path="url(#clip490)" d="M1565.06 322.316 L2281.66 322.316 L2281.66 166.796 L1565.06 166.796  Z" fill="#ffffff" fill-rule="evenodd" fill-opacity="1"/>
<polyline clip-path="url(#clip490)" style="stroke:#000000; stroke-linecap:round; stroke-linejoin:round; stroke-width:4; stroke-opacity:1; fill:none" points="1565.06,322.316 2281.66,322.316 2281.66,166.796 1565.06,166.796 1565.06,322.316 "/>
<polyline clip-path="url(#clip490)" style="stroke:#009af9; stroke-linecap:round; stroke-linejoin:round; stroke-width:8; stroke-opacity:0.8; fill:none" points="1588.76,218.636 1730.95,218.636 "/>
<path clip-path="url(#clip490)" d="M1754.65 201.356 L1761.62 201.356 L1770.44 224.874 L1779.31 201.356 L1786.27 201.356 L1786.27 235.916 L1781.71 235.916 L1781.71 205.569 L1772.8 229.272 L1768.1 229.272 L1759.19 205.569 L1759.19 235.916 L1754.65 235.916 L1754.65 201.356 Z" fill="#000000" fill-rule="nonzero" fill-opacity="1" /><path clip-path="url(#clip490)" d="M1800.23 205.198 L1800.23 218.184 L1806.11 218.184 Q1809.38 218.184 1811.16 216.495 Q1812.94 214.805 1812.94 211.68 Q1812.94 208.578 1811.16 206.888 Q1809.38 205.198 1806.11 205.198 L1800.23 205.198 M1795.56 201.356 L1806.11 201.356 Q1811.92 201.356 1814.88 203.995 Q1817.87 206.61 1817.87 211.68 Q1817.87 216.795 1814.88 219.411 Q1811.92 222.027 1806.11 222.027 L1800.23 222.027 L1800.23 235.916 L1795.56 235.916 L1795.56 201.356 Z" fill="#000000" fill-rule="nonzero" fill-opacity="1" /><path clip-path="url(#clip490)" d="M1844.86 202.49 L1844.86 207.05 Q1842.2 205.777 1839.84 205.152 Q1837.48 204.527 1835.28 204.527 Q1831.46 204.527 1829.38 206.008 Q1827.31 207.49 1827.31 210.221 Q1827.31 212.513 1828.68 213.694 Q1830.07 214.851 1833.91 215.569 L1836.74 216.147 Q1841.97 217.143 1844.44 219.666 Q1846.94 222.166 1846.94 226.379 Q1846.94 231.402 1843.56 233.994 Q1840.21 236.587 1833.7 236.587 Q1831.25 236.587 1828.47 236.031 Q1825.72 235.476 1822.75 234.388 L1822.75 229.573 Q1825.6 231.17 1828.33 231.981 Q1831.06 232.791 1833.7 232.791 Q1837.71 232.791 1839.88 231.217 Q1842.06 229.643 1842.06 226.726 Q1842.06 224.18 1840.49 222.744 Q1838.94 221.309 1835.37 220.592 L1832.52 220.036 Q1827.29 218.995 1824.95 216.772 Q1822.62 214.55 1822.62 210.592 Q1822.62 206.008 1825.83 203.37 Q1829.07 200.731 1834.75 200.731 Q1837.18 200.731 1839.7 201.171 Q1842.22 201.61 1844.86 202.49 Z" fill="#000000" fill-rule="nonzero" fill-opacity="1" /><path clip-path="url(#clip490)" d="M1873.98 205.198 L1873.98 232.073 L1879.63 232.073 Q1886.78 232.073 1890.09 228.832 Q1893.43 225.592 1893.43 218.601 Q1893.43 211.657 1890.09 208.439 Q1886.78 205.198 1879.63 205.198 L1873.98 205.198 M1869.31 201.356 L1878.91 201.356 Q1888.96 201.356 1893.66 205.546 Q1898.36 209.712 1898.36 218.601 Q1898.36 227.536 1893.63 231.726 Q1888.91 235.916 1878.91 235.916 L1869.31 235.916 L1869.31 201.356 Z" fill="#000000" fill-rule="nonzero" fill-opacity="1" /><path clip-path="url(#clip490)" d="M1905.62 209.99 L1909.88 209.99 L1909.88 235.916 L1905.62 235.916 L1905.62 209.99 M1905.62 199.897 L1909.88 199.897 L1909.88 205.291 L1905.62 205.291 L1905.62 199.897 Z" fill="#000000" fill-rule="nonzero" fill-opacity="1" /><path clip-path="url(#clip490)" d="M1935.32 210.754 L1935.32 214.782 Q1933.52 213.856 1931.57 213.393 Q1929.63 212.93 1927.55 212.93 Q1924.37 212.93 1922.78 213.902 Q1921.2 214.874 1921.2 216.819 Q1921.2 218.3 1922.34 219.157 Q1923.47 219.99 1926.9 220.754 L1928.36 221.078 Q1932.89 222.05 1934.79 223.832 Q1936.71 225.592 1936.71 228.763 Q1936.71 232.374 1933.84 234.481 Q1930.99 236.587 1925.99 236.587 Q1923.91 236.587 1921.64 236.17 Q1919.4 235.777 1916.9 234.967 L1916.9 230.569 Q1919.26 231.795 1921.55 232.42 Q1923.84 233.022 1926.09 233.022 Q1929.1 233.022 1930.72 232.004 Q1932.34 230.962 1932.34 229.087 Q1932.34 227.351 1931.16 226.425 Q1930 225.499 1926.04 224.643 L1924.56 224.295 Q1920.6 223.462 1918.84 221.749 Q1917.08 220.013 1917.08 217.004 Q1917.08 213.346 1919.68 211.356 Q1922.27 209.365 1927.04 209.365 Q1929.4 209.365 1931.48 209.712 Q1933.56 210.059 1935.32 210.754 Z" fill="#000000" fill-rule="nonzero" fill-opacity="1" /><path clip-path="url(#clip490)" d="M1947.71 202.629 L1947.71 209.99 L1956.48 209.99 L1956.48 213.3 L1947.71 213.3 L1947.71 227.374 Q1947.71 230.545 1948.56 231.448 Q1949.44 232.351 1952.11 232.351 L1956.48 232.351 L1956.48 235.916 L1952.11 235.916 Q1947.18 235.916 1945.3 234.087 Q1943.43 232.235 1943.43 227.374 L1943.43 213.3 L1940.3 213.3 L1940.3 209.99 L1943.43 209.99 L1943.43 202.629 L1947.71 202.629 Z" fill="#000000" fill-rule="nonzero" fill-opacity="1" /><path clip-path="url(#clip490)" d="M1977.11 213.971 Q1976.39 213.555 1975.53 213.37 Q1974.7 213.161 1973.68 213.161 Q1970.07 213.161 1968.12 215.522 Q1966.2 217.86 1966.2 222.258 L1966.2 235.916 L1961.92 235.916 L1961.92 209.99 L1966.2 209.99 L1966.2 214.018 Q1967.55 211.657 1969.7 210.522 Q1971.85 209.365 1974.93 209.365 Q1975.37 209.365 1975.9 209.434 Q1976.43 209.481 1977.08 209.596 L1977.11 213.971 Z" fill="#000000" fill-rule="nonzero" fill-opacity="1" /><path clip-path="url(#clip490)" d="M1981.57 209.99 L1985.83 209.99 L1985.83 235.916 L1981.57 235.916 L1981.57 209.99 M1981.57 199.897 L1985.83 199.897 L1985.83 205.291 L1981.57 205.291 L1981.57 199.897 Z" fill="#000000" fill-rule="nonzero" fill-opacity="1" /><path clip-path="url(#clip490)" d="M2013.36 222.976 Q2013.36 218.277 2011.41 215.615 Q2009.49 212.93 2006.11 212.93 Q2002.73 212.93 2000.79 215.615 Q1998.86 218.277 1998.86 222.976 Q1998.86 227.675 2000.79 230.36 Q2002.73 233.022 2006.11 233.022 Q2009.49 233.022 2011.41 230.36 Q2013.36 227.675 2013.36 222.976 M1998.86 213.925 Q2000.21 211.61 2002.24 210.499 Q2004.3 209.365 2007.15 209.365 Q2011.87 209.365 2014.81 213.115 Q2017.78 216.865 2017.78 222.976 Q2017.78 229.087 2014.81 232.837 Q2011.87 236.587 2007.15 236.587 Q2004.3 236.587 2002.24 235.476 Q2000.21 234.342 1998.86 232.027 L1998.86 235.916 L1994.58 235.916 L1994.58 199.897 L1998.86 199.897 L1998.86 213.925 Z" fill="#000000" fill-rule="nonzero" fill-opacity="1" /><path clip-path="url(#clip490)" d="M2024.4 225.684 L2024.4 209.99 L2028.66 209.99 L2028.66 225.522 Q2028.66 229.203 2030.09 231.055 Q2031.53 232.883 2034.4 232.883 Q2037.85 232.883 2039.84 230.684 Q2041.85 228.485 2041.85 224.689 L2041.85 209.99 L2046.11 209.99 L2046.11 235.916 L2041.85 235.916 L2041.85 231.934 Q2040.3 234.295 2038.24 235.453 Q2036.2 236.587 2033.49 236.587 Q2029.03 236.587 2026.71 233.809 Q2024.4 231.031 2024.4 225.684 M2035.11 209.365 L2035.11 209.365 Z" fill="#000000" fill-rule="nonzero" fill-opacity="1" /><path clip-path="url(#clip490)" d="M2059.1 202.629 L2059.1 209.99 L2067.87 209.99 L2067.87 213.3 L2059.1 213.3 L2059.1 227.374 Q2059.1 230.545 2059.95 231.448 Q2060.83 232.351 2063.49 232.351 L2067.87 232.351 L2067.87 235.916 L2063.49 235.916 Q2058.56 235.916 2056.69 234.087 Q2054.81 232.235 2054.81 227.374 L2054.81 213.3 L2051.69 213.3 L2051.69 209.99 L2054.81 209.99 L2054.81 202.629 L2059.1 202.629 Z" fill="#000000" fill-rule="nonzero" fill-opacity="1" /><path clip-path="url(#clip490)" d="M2073.47 209.99 L2077.73 209.99 L2077.73 235.916 L2073.47 235.916 L2073.47 209.99 M2073.47 199.897 L2077.73 199.897 L2077.73 205.291 L2073.47 205.291 L2073.47 199.897 Z" fill="#000000" fill-rule="nonzero" fill-opacity="1" /><path clip-path="url(#clip490)" d="M2096.69 212.976 Q2093.26 212.976 2091.27 215.661 Q2089.28 218.323 2089.28 222.976 Q2089.28 227.629 2091.25 230.314 Q2093.24 232.976 2096.69 232.976 Q2100.09 232.976 2102.08 230.291 Q2104.07 227.606 2104.07 222.976 Q2104.07 218.37 2102.08 215.684 Q2100.09 212.976 2096.69 212.976 M2096.69 209.365 Q2102.24 209.365 2105.42 212.976 Q2108.59 216.587 2108.59 222.976 Q2108.59 229.342 2105.42 232.976 Q2102.24 236.587 2096.69 236.587 Q2091.11 236.587 2087.94 232.976 Q2084.79 229.342 2084.79 222.976 Q2084.79 216.587 2087.94 212.976 Q2091.11 209.365 2096.69 209.365 Z" fill="#000000" fill-rule="nonzero" fill-opacity="1" /><path clip-path="url(#clip490)" d="M2137.2 220.268 L2137.2 235.916 L2132.94 235.916 L2132.94 220.407 Q2132.94 216.726 2131.5 214.897 Q2130.07 213.069 2127.2 213.069 Q2123.75 213.069 2121.76 215.268 Q2119.77 217.467 2119.77 221.263 L2119.77 235.916 L2115.48 235.916 L2115.48 209.99 L2119.77 209.99 L2119.77 214.018 Q2121.29 211.68 2123.36 210.522 Q2125.44 209.365 2128.15 209.365 Q2132.61 209.365 2134.91 212.143 Q2137.2 214.897 2137.2 220.268 Z" fill="#000000" fill-rule="nonzero" fill-opacity="1" /><polyline clip-path="url(#clip490)" style="stroke:#e26f46; stroke-linecap:round; stroke-linejoin:round; stroke-width:8; stroke-opacity:0.8; fill:none" points="1588.76,270.476 1730.95,270.476 "/>
<path clip-path="url(#clip490)" d="M1754.65 253.196 L1776.51 253.196 L1776.51 257.131 L1759.33 257.131 L1759.33 267.362 L1775.79 267.362 L1775.79 271.297 L1759.33 271.297 L1759.33 283.821 L1776.92 283.821 L1776.92 287.756 L1754.65 287.756 L1754.65 253.196 Z" fill="#000000" fill-rule="nonzero" fill-opacity="1" /><path clip-path="url(#clip490)" d="M1804.61 266.807 Q1806.2 263.936 1808.43 262.571 Q1810.65 261.205 1813.66 261.205 Q1817.71 261.205 1819.91 264.052 Q1822.11 266.876 1822.11 272.108 L1822.11 287.756 L1817.82 287.756 L1817.82 272.247 Q1817.82 268.52 1816.5 266.714 Q1815.19 264.909 1812.48 264.909 Q1809.17 264.909 1807.25 267.108 Q1805.32 269.307 1805.32 273.103 L1805.32 287.756 L1801.04 287.756 L1801.04 272.247 Q1801.04 268.497 1799.72 266.714 Q1798.4 264.909 1795.65 264.909 Q1792.38 264.909 1790.46 267.131 Q1788.54 269.33 1788.54 273.103 L1788.54 287.756 L1784.26 287.756 L1784.26 261.83 L1788.54 261.83 L1788.54 265.858 Q1790 263.473 1792.04 262.339 Q1794.07 261.205 1796.88 261.205 Q1799.7 261.205 1801.67 262.64 Q1803.66 264.075 1804.61 266.807 Z" fill="#000000" fill-rule="nonzero" fill-opacity="1" /><path clip-path="url(#clip490)" d="M1834.72 283.867 L1834.72 297.617 L1830.44 297.617 L1830.44 261.83 L1834.72 261.83 L1834.72 265.765 Q1836.06 263.45 1838.1 262.339 Q1840.16 261.205 1843.01 261.205 Q1847.73 261.205 1850.67 264.955 Q1853.63 268.705 1853.63 274.816 Q1853.63 280.927 1850.67 284.677 Q1847.73 288.427 1843.01 288.427 Q1840.16 288.427 1838.1 287.316 Q1836.06 286.182 1834.72 283.867 M1849.21 274.816 Q1849.21 270.117 1847.27 267.455 Q1845.35 264.77 1841.97 264.77 Q1838.59 264.77 1836.64 267.455 Q1834.72 270.117 1834.72 274.816 Q1834.72 279.515 1836.64 282.2 Q1838.59 284.862 1841.97 284.862 Q1845.35 284.862 1847.27 282.2 Q1849.21 279.515 1849.21 274.816 Z" fill="#000000" fill-rule="nonzero" fill-opacity="1" /><path clip-path="url(#clip490)" d="M1860.69 261.83 L1864.95 261.83 L1864.95 287.756 L1860.69 287.756 L1860.69 261.83 M1860.69 251.737 L1864.95 251.737 L1864.95 257.131 L1860.69 257.131 L1860.69 251.737 Z" fill="#000000" fill-rule="nonzero" fill-opacity="1" /><path clip-path="url(#clip490)" d="M1888.89 265.811 Q1888.17 265.395 1887.31 265.21 Q1886.48 265.001 1885.46 265.001 Q1881.85 265.001 1879.91 267.362 Q1877.99 269.7 1877.99 274.098 L1877.99 287.756 L1873.7 287.756 L1873.7 261.83 L1877.99 261.83 L1877.99 265.858 Q1879.33 263.497 1881.48 262.362 Q1883.63 261.205 1886.71 261.205 Q1887.15 261.205 1887.69 261.274 Q1888.22 261.321 1888.87 261.436 L1888.89 265.811 Z" fill="#000000" fill-rule="nonzero" fill-opacity="1" /><path clip-path="url(#clip490)" d="M1893.36 261.83 L1897.62 261.83 L1897.62 287.756 L1893.36 287.756 L1893.36 261.83 M1893.36 251.737 L1897.62 251.737 L1897.62 257.131 L1893.36 257.131 L1893.36 251.737 Z" fill="#000000" fill-rule="nonzero" fill-opacity="1" /><path clip-path="url(#clip490)" d="M1925.18 262.825 L1925.18 266.807 Q1923.38 265.811 1921.55 265.325 Q1919.75 264.816 1917.89 264.816 Q1913.75 264.816 1911.46 267.455 Q1909.17 270.071 1909.17 274.816 Q1909.17 279.561 1911.46 282.2 Q1913.75 284.816 1917.89 284.816 Q1919.75 284.816 1921.55 284.33 Q1923.38 283.821 1925.18 282.825 L1925.18 286.76 Q1923.4 287.594 1921.48 288.01 Q1919.58 288.427 1917.43 288.427 Q1911.57 288.427 1908.12 284.746 Q1904.68 281.066 1904.68 274.816 Q1904.68 268.473 1908.15 264.839 Q1911.64 261.205 1917.71 261.205 Q1919.68 261.205 1921.55 261.622 Q1923.43 262.015 1925.18 262.825 Z" fill="#000000" fill-rule="nonzero" fill-opacity="1" /><path clip-path="url(#clip490)" d="M1944.37 274.723 Q1939.21 274.723 1937.22 275.904 Q1935.23 277.084 1935.23 279.932 Q1935.23 282.2 1936.71 283.543 Q1938.22 284.862 1940.79 284.862 Q1944.33 284.862 1946.46 282.362 Q1948.61 279.839 1948.61 275.672 L1948.61 274.723 L1944.37 274.723 M1952.87 272.964 L1952.87 287.756 L1948.61 287.756 L1948.61 283.821 Q1947.15 286.182 1944.98 287.316 Q1942.8 288.427 1939.65 288.427 Q1935.67 288.427 1933.31 286.205 Q1930.97 283.959 1930.97 280.209 Q1930.97 275.834 1933.89 273.612 Q1936.83 271.39 1942.64 271.39 L1948.61 271.39 L1948.61 270.973 Q1948.61 268.034 1946.67 266.436 Q1944.74 264.816 1941.25 264.816 Q1939.03 264.816 1936.92 265.348 Q1934.81 265.881 1932.87 266.946 L1932.87 263.01 Q1935.21 262.108 1937.41 261.668 Q1939.61 261.205 1941.69 261.205 Q1947.31 261.205 1950.09 264.122 Q1952.87 267.038 1952.87 272.964 Z" fill="#000000" fill-rule="nonzero" fill-opacity="1" /><path clip-path="url(#clip490)" d="M1961.64 251.737 L1965.9 251.737 L1965.9 287.756 L1961.64 287.756 L1961.64 251.737 Z" fill="#000000" fill-rule="nonzero" fill-opacity="1" /><path clip-path="url(#clip490)" d="M1994.74 257.038 L1994.74 283.913 L2000.39 283.913 Q2007.55 283.913 2010.86 280.672 Q2014.19 277.432 2014.19 270.441 Q2014.19 263.497 2010.86 260.279 Q2007.55 257.038 2000.39 257.038 L1994.74 257.038 M1990.07 253.196 L1999.68 253.196 Q2009.72 253.196 2014.42 257.386 Q2019.12 261.552 2019.12 270.441 Q2019.12 279.376 2014.4 283.566 Q2009.68 287.756 1999.68 287.756 L1990.07 287.756 L1990.07 253.196 Z" fill="#000000" fill-rule="nonzero" fill-opacity="1" /><path clip-path="url(#clip490)" d="M2026.39 261.83 L2030.65 261.83 L2030.65 287.756 L2026.39 287.756 L2026.39 261.83 M2026.39 251.737 L2030.65 251.737 L2030.65 257.131 L2026.39 257.131 L2026.39 251.737 Z" fill="#000000" fill-rule="nonzero" fill-opacity="1" /><path clip-path="url(#clip490)" d="M2056.09 262.594 L2056.09 266.622 Q2054.28 265.696 2052.34 265.233 Q2050.39 264.77 2048.31 264.77 Q2045.14 264.77 2043.54 265.742 Q2041.97 266.714 2041.97 268.659 Q2041.97 270.14 2043.1 270.997 Q2044.24 271.83 2047.66 272.594 L2049.12 272.918 Q2053.66 273.89 2055.55 275.672 Q2057.48 277.432 2057.48 280.603 Q2057.48 284.214 2054.61 286.321 Q2051.76 288.427 2046.76 288.427 Q2044.67 288.427 2042.41 288.01 Q2040.16 287.617 2037.66 286.807 L2037.66 282.409 Q2040.02 283.635 2042.31 284.26 Q2044.61 284.862 2046.85 284.862 Q2049.86 284.862 2051.48 283.844 Q2053.1 282.802 2053.1 280.927 Q2053.1 279.191 2051.92 278.265 Q2050.76 277.339 2046.8 276.483 L2045.32 276.135 Q2041.36 275.302 2039.61 273.589 Q2037.85 271.853 2037.85 268.844 Q2037.85 265.186 2040.44 263.196 Q2043.03 261.205 2047.8 261.205 Q2050.16 261.205 2052.24 261.552 Q2054.33 261.899 2056.09 262.594 Z" fill="#000000" fill-rule="nonzero" fill-opacity="1" /><path clip-path="url(#clip490)" d="M2068.47 254.469 L2068.47 261.83 L2077.24 261.83 L2077.24 265.14 L2068.47 265.14 L2068.47 279.214 Q2068.47 282.385 2069.33 283.288 Q2070.21 284.191 2072.87 284.191 L2077.24 284.191 L2077.24 287.756 L2072.87 287.756 Q2067.94 287.756 2066.06 285.927 Q2064.19 284.075 2064.19 279.214 L2064.19 265.14 L2061.06 265.14 L2061.06 261.83 L2064.19 261.83 L2064.19 254.469 L2068.47 254.469 Z" fill="#000000" fill-rule="nonzero" fill-opacity="1" /><path clip-path="url(#clip490)" d="M2097.87 265.811 Q2097.15 265.395 2096.3 265.21 Q2095.46 265.001 2094.44 265.001 Q2090.83 265.001 2088.89 267.362 Q2086.97 269.7 2086.97 274.098 L2086.97 287.756 L2082.68 287.756 L2082.68 261.83 L2086.97 261.83 L2086.97 265.858 Q2088.31 263.497 2090.46 262.362 Q2092.61 261.205 2095.69 261.205 Q2096.13 261.205 2096.67 261.274 Q2097.2 261.321 2097.85 261.436 L2097.87 265.811 Z" fill="#000000" fill-rule="nonzero" fill-opacity="1" /><path clip-path="url(#clip490)" d="M2102.34 261.83 L2106.6 261.83 L2106.6 287.756 L2102.34 287.756 L2102.34 261.83 M2102.34 251.737 L2106.6 251.737 L2106.6 257.131 L2102.34 257.131 L2102.34 251.737 Z" fill="#000000" fill-rule="nonzero" fill-opacity="1" /><path clip-path="url(#clip490)" d="M2134.12 274.816 Q2134.12 270.117 2132.17 267.455 Q2130.25 264.77 2126.87 264.77 Q2123.49 264.77 2121.55 267.455 Q2119.63 270.117 2119.63 274.816 Q2119.63 279.515 2121.55 282.2 Q2123.49 284.862 2126.87 284.862 Q2130.25 284.862 2132.17 282.2 Q2134.12 279.515 2134.12 274.816 M2119.63 265.765 Q2120.97 263.45 2123.01 262.339 Q2125.07 261.205 2127.92 261.205 Q2132.64 261.205 2135.58 264.955 Q2138.54 268.705 2138.54 274.816 Q2138.54 280.927 2135.58 284.677 Q2132.64 288.427 2127.92 288.427 Q2125.07 288.427 2123.01 287.316 Q2120.97 286.182 2119.63 283.867 L2119.63 287.756 L2115.35 287.756 L2115.35 251.737 L2119.63 251.737 L2119.63 265.765 Z" fill="#000000" fill-rule="nonzero" fill-opacity="1" /><path clip-path="url(#clip490)" d="M2145.16 277.524 L2145.16 261.83 L2149.42 261.83 L2149.42 277.362 Q2149.42 281.043 2150.85 282.895 Q2152.29 284.723 2155.16 284.723 Q2158.61 284.723 2160.6 282.524 Q2162.61 280.325 2162.61 276.529 L2162.61 261.83 L2166.87 261.83 L2166.87 287.756 L2162.61 287.756 L2162.61 283.774 Q2161.06 286.135 2159 287.293 Q2156.97 288.427 2154.26 288.427 Q2149.79 288.427 2147.48 285.649 Q2145.16 282.871 2145.16 277.524 M2155.88 261.205 L2155.88 261.205 Z" fill="#000000" fill-rule="nonzero" fill-opacity="1" /><path clip-path="url(#clip490)" d="M2179.86 254.469 L2179.86 261.83 L2188.63 261.83 L2188.63 265.14 L2179.86 265.14 L2179.86 279.214 Q2179.86 282.385 2180.72 283.288 Q2181.6 284.191 2184.26 284.191 L2188.63 284.191 L2188.63 287.756 L2184.26 287.756 Q2179.33 287.756 2177.45 285.927 Q2175.58 284.075 2175.58 279.214 L2175.58 265.14 L2172.45 265.14 L2172.45 261.83 L2175.58 261.83 L2175.58 254.469 L2179.86 254.469 Z" fill="#000000" fill-rule="nonzero" fill-opacity="1" /><path clip-path="url(#clip490)" d="M2194.23 261.83 L2198.49 261.83 L2198.49 287.756 L2194.23 287.756 L2194.23 261.83 M2194.23 251.737 L2198.49 251.737 L2198.49 257.131 L2194.23 257.131 L2194.23 251.737 Z" fill="#000000" fill-rule="nonzero" fill-opacity="1" /><path clip-path="url(#clip490)" d="M2217.45 264.816 Q2214.03 264.816 2212.04 267.501 Q2210.04 270.163 2210.04 274.816 Q2210.04 279.469 2212.01 282.154 Q2214 284.816 2217.45 284.816 Q2220.85 284.816 2222.85 282.131 Q2224.84 279.446 2224.84 274.816 Q2224.84 270.21 2222.85 267.524 Q2220.85 264.816 2217.45 264.816 M2217.45 261.205 Q2223.01 261.205 2226.18 264.816 Q2229.35 268.427 2229.35 274.816 Q2229.35 281.182 2226.18 284.816 Q2223.01 288.427 2217.45 288.427 Q2211.87 288.427 2208.7 284.816 Q2205.55 281.182 2205.55 274.816 Q2205.55 268.427 2208.7 264.816 Q2211.87 261.205 2217.45 261.205 Z" fill="#000000" fill-rule="nonzero" fill-opacity="1" /><path clip-path="url(#clip490)" d="M2257.96 272.108 L2257.96 287.756 L2253.7 287.756 L2253.7 272.247 Q2253.7 268.566 2252.27 266.737 Q2250.83 264.909 2247.96 264.909 Q2244.51 264.909 2242.52 267.108 Q2240.53 269.307 2240.53 273.103 L2240.53 287.756 L2236.25 287.756 L2236.25 261.83 L2240.53 261.83 L2240.53 265.858 Q2242.06 263.52 2244.12 262.362 Q2246.2 261.205 2248.91 261.205 Q2253.38 261.205 2255.67 263.983 Q2257.96 266.737 2257.96 272.108 Z" fill="#000000" fill-rule="nonzero" fill-opacity="1" /></svg>
