<?xml version="1.0" encoding="utf-8"?>
<svg xmlns="http://www.w3.org/2000/svg" xmlns:xlink="http://www.w3.org/1999/xlink" width="600" height="400" viewBox="0 0 2400 1600">
<defs>
  <clipPath id="clip450">
    <rect x="0" y="0" width="2400" height="1600"/>
  </clipPath>
</defs>
<path clip-path="url(#clip450)" d="M0 1600 L2400 1600 L2400 8.88178e-14 L0 8.88178e-14  Z" fill="#ffffff" fill-rule="evenodd" fill-opacity="1"/>
<defs>
  <clipPath id="clip451">
    <rect x="480" y="0" width="1681" height="1600"/>
  </clipPath>
</defs>
<path clip-path="url(#clip450)" d="M219.866 1423.18 L2352.76 1423.18 L2352.76 123.472 L219.866 123.472  Z" fill="#ffffff" fill-rule="evenodd" fill-opacity="1"/>
<defs>
  <clipPath id="clip452">
    <rect x="219" y="123" width="2134" height="1301"/>
  </clipPath>
</defs>
<polyline clip-path="url(#clip452)" style="stroke:#000000; stroke-linecap:round; stroke-linejoin:round; stroke-width:2; stroke-opacity:0.1; fill:none" points="259.906,1423.18 259.906,123.472 "/>
<polyline clip-path="url(#clip452)" style="stroke:#000000; stroke-linecap:round; stroke-linejoin:round; stroke-width:2; stroke-opacity:0.1; fill:none" points="768.027,1423.18 768.027,123.472 "/>
<polyline clip-path="url(#clip452)" style="stroke:#000000; stroke-linecap:round; stroke-linejoin:round; stroke-width:2; stroke-opacity:0.1; fill:none" points="1276.15,1423.18 1276.15,123.472 "/>
<polyline clip-path="url(#clip452)" style="stroke:#000000; stroke-linecap:round; stroke-linejoin:round; stroke-width:2; stroke-opacity:0.1; fill:none" points="1784.27,1423.18 1784.27,123.472 "/>
<polyline clip-path="url(#clip452)" style="stroke:#000000; stroke-linecap:round; stroke-linejoin:round; stroke-width:2; stroke-opacity:0.1; fill:none" points="2292.39,1423.18 2292.39,123.472 "/>
<polyline clip-path="url(#clip450)" style="stroke:#000000; stroke-linecap:round; stroke-linejoin:round; stroke-width:4; stroke-opacity:1; fill:none" points="219.866,1423.18 2352.76,1423.18 "/>
<polyline clip-path="url(#clip450)" style="stroke:#000000; stroke-linecap:round; stroke-linejoin:round; stroke-width:4; stroke-opacity:1; fill:none" points="259.906,1423.18 259.906,1404.28 "/>
<polyline clip-path="url(#clip450)" style="stroke:#000000; stroke-linecap:round; stroke-linejoin:round; stroke-width:4; stroke-opacity:1; fill:none" points="768.027,1423.18 768.027,1404.28 "/>
<polyline clip-path="url(#clip450)" style="stroke:#000000; stroke-linecap:round; stroke-linejoin:round; stroke-width:4; stroke-opacity:1; fill:none" points="1276.15,1423.18 1276.15,1404.28 "/>
<polyline clip-path="url(#clip450)" style="stroke:#000000; stroke-linecap:round; stroke-linejoin:round; stroke-width:4; stroke-opacity:1; fill:none" points="1784.27,1423.18 1784.27,1404.28 "/>
<polyline clip-path="url(#clip450)" style="stroke:#000000; stroke-linecap:round; stroke-linejoin:round; stroke-width:4; stroke-opacity:1; fill:none" points="2292.39,1423.18 2292.39,1404.28 "/>
<path clip-path="url(#clip450)" d="M259.906 1454.1 Q256.295 1454.1 254.466 1457.66 Q252.661 1461.2 252.661 1468.33 Q252.661 1475.44 254.466 1479.01 Q256.295 1482.55 259.906 1482.55 Q263.54 1482.55 265.346 1479.01 Q267.175 1475.44 267.175 1468.33 Q267.175 1461.2 265.346 1457.66 Q263.54 1454.1 259.906 1454.1 M259.906 1450.39 Q265.716 1450.39 268.772 1455 Q271.851 1459.58 271.851 1468.33 Q271.851 1477.06 268.772 1481.67 Q265.716 1486.25 259.906 1486.25 Q254.096 1486.25 251.017 1481.67 Q247.962 1477.06 247.962 1468.33 Q247.962 1459.58 251.017 1455 Q254.096 1450.39 259.906 1450.39 Z" fill="#000000" fill-rule="nonzero" fill-opacity="1" /><path clip-path="url(#clip450)" d="M747.298 1481.64 L763.618 1481.64 L763.618 1485.58 L741.673 1485.58 L741.673 1481.64 Q744.335 1478.89 748.919 1474.26 Q753.525 1469.61 754.706 1468.27 Q756.951 1465.74 757.831 1464.01 Q758.734 1462.25 758.734 1460.56 Q758.734 1457.8 756.789 1456.07 Q754.868 1454.33 751.766 1454.33 Q749.567 1454.33 747.113 1455.09 Q744.683 1455.86 741.905 1457.41 L741.905 1452.69 Q744.729 1451.55 747.183 1450.97 Q749.636 1450.39 751.673 1450.39 Q757.044 1450.39 760.238 1453.08 Q763.433 1455.77 763.433 1460.26 Q763.433 1462.39 762.622 1464.31 Q761.835 1466.2 759.729 1468.8 Q759.15 1469.47 756.048 1472.69 Q752.947 1475.88 747.298 1481.64 Z" fill="#000000" fill-rule="nonzero" fill-opacity="1" /><path clip-path="url(#clip450)" d="M773.479 1451.02 L791.835 1451.02 L791.835 1454.96 L777.761 1454.96 L777.761 1463.43 Q778.78 1463.08 779.798 1462.92 Q780.817 1462.73 781.835 1462.73 Q787.622 1462.73 791.002 1465.9 Q794.381 1469.08 794.381 1474.49 Q794.381 1480.07 790.909 1483.17 Q787.437 1486.25 781.118 1486.25 Q778.942 1486.25 776.673 1485.88 Q774.428 1485.51 772.02 1484.77 L772.02 1480.07 Q774.104 1481.2 776.326 1481.76 Q778.548 1482.32 781.025 1482.32 Q785.03 1482.32 787.368 1480.21 Q789.706 1478.1 789.706 1474.49 Q789.706 1470.88 787.368 1468.77 Q785.03 1466.67 781.025 1466.67 Q779.15 1466.67 777.275 1467.08 Q775.423 1467.5 773.479 1468.38 L773.479 1451.02 Z" fill="#000000" fill-rule="nonzero" fill-opacity="1" /><path clip-path="url(#clip450)" d="M1250.85 1451.02 L1269.2 1451.02 L1269.2 1454.96 L1255.13 1454.96 L1255.13 1463.43 Q1256.15 1463.08 1257.17 1462.92 Q1258.19 1462.73 1259.2 1462.73 Q1264.99 1462.73 1268.37 1465.9 Q1271.75 1469.08 1271.75 1474.49 Q1271.75 1480.07 1268.28 1483.17 Q1264.81 1486.25 1258.49 1486.25 Q1256.31 1486.25 1254.04 1485.88 Q1251.8 1485.51 1249.39 1484.77 L1249.39 1480.07 Q1251.47 1481.2 1253.7 1481.76 Q1255.92 1482.32 1258.39 1482.32 Q1262.4 1482.32 1264.74 1480.21 Q1267.07 1478.1 1267.07 1474.49 Q1267.07 1470.88 1264.74 1468.77 Q1262.4 1466.67 1258.39 1466.67 Q1256.52 1466.67 1254.64 1467.08 Q1252.79 1467.5 1250.85 1468.38 L1250.85 1451.02 Z" fill="#000000" fill-rule="nonzero" fill-opacity="1" /><path clip-path="url(#clip450)" d="M1290.96 1454.1 Q1287.35 1454.1 1285.52 1457.66 Q1283.72 1461.2 1283.72 1468.33 Q1283.72 1475.44 1285.52 1479.01 Q1287.35 1482.55 1290.96 1482.55 Q1294.6 1482.55 1296.4 1479.01 Q1298.23 1475.44 1298.23 1468.33 Q1298.23 1461.2 1296.4 1457.66 Q1294.6 1454.1 1290.96 1454.1 M1290.96 1450.39 Q1296.77 1450.39 1299.83 1455 Q1302.91 1459.58 1302.91 1468.33 Q1302.91 1477.06 1299.83 1481.67 Q1296.77 1486.25 1290.96 1486.25 Q1285.15 1486.25 1282.07 1481.67 Q1279.02 1477.06 1279.02 1468.33 Q1279.02 1459.58 1282.07 1455 Q1285.15 1450.39 1290.96 1450.39 Z" fill="#000000" fill-rule="nonzero" fill-opacity="1" /><path clip-path="url(#clip450)" d="M1758.12 1451.02 L1780.35 1451.02 L1780.35 1453.01 L1767.8 1485.58 L1762.92 1485.58 L1774.72 1454.96 L1758.12 1454.96 L1758.12 1451.02 Z" fill="#000000" fill-rule="nonzero" fill-opacity="1" /><path clip-path="url(#clip450)" d="M1789.51 1451.02 L1807.87 1451.02 L1807.87 1454.96 L1793.8 1454.96 L1793.8 1463.43 Q1794.81 1463.08 1795.83 1462.92 Q1796.85 1462.73 1797.87 1462.73 Q1803.66 1462.73 1807.04 1465.9 Q1810.42 1469.08 1810.42 1474.49 Q1810.42 1480.07 1806.94 1483.17 Q1803.47 1486.25 1797.15 1486.25 Q1794.98 1486.25 1792.71 1485.88 Q1790.46 1485.51 1788.05 1484.77 L1788.05 1480.07 Q1790.14 1481.2 1792.36 1481.76 Q1794.58 1482.32 1797.06 1482.32 Q1801.06 1482.32 1803.4 1480.21 Q1805.74 1478.1 1805.74 1474.49 Q1805.74 1470.88 1803.4 1468.77 Q1801.06 1466.67 1797.06 1466.67 Q1795.18 1466.67 1793.31 1467.08 Q1791.46 1467.5 1789.51 1468.38 L1789.51 1451.02 Z" fill="#000000" fill-rule="nonzero" fill-opacity="1" /><path clip-path="url(#clip450)" d="M2252 1481.64 L2259.64 1481.64 L2259.64 1455.28 L2251.33 1456.95 L2251.33 1452.69 L2259.59 1451.02 L2264.27 1451.02 L2264.27 1481.64 L2271.91 1481.64 L2271.91 1485.58 L2252 1485.58 L2252 1481.64 Z" fill="#000000" fill-rule="nonzero" fill-opacity="1" /><path clip-path="url(#clip450)" d="M2291.35 1454.1 Q2287.74 1454.1 2285.91 1457.66 Q2284.1 1461.2 2284.1 1468.33 Q2284.1 1475.44 2285.91 1479.01 Q2287.74 1482.55 2291.35 1482.55 Q2294.98 1482.55 2296.79 1479.01 Q2298.62 1475.44 2298.62 1468.33 Q2298.62 1461.2 2296.79 1457.66 Q2294.98 1454.1 2291.35 1454.1 M2291.35 1450.39 Q2297.16 1450.39 2300.22 1455 Q2303.29 1459.58 2303.29 1468.33 Q2303.29 1477.06 2300.22 1481.67 Q2297.16 1486.25 2291.35 1486.25 Q2285.54 1486.25 2282.46 1481.67 Q2279.41 1477.06 2279.41 1468.33 Q2279.41 1459.58 2282.46 1455 Q2285.54 1450.39 2291.35 1450.39 Z" fill="#000000" fill-rule="nonzero" fill-opacity="1" /><path clip-path="url(#clip450)" d="M2321.51 1454.1 Q2317.9 1454.1 2316.07 1457.66 Q2314.27 1461.2 2314.27 1468.33 Q2314.27 1475.44 2316.07 1479.01 Q2317.9 1482.55 2321.51 1482.55 Q2325.15 1482.55 2326.95 1479.01 Q2328.78 1475.44 2328.78 1468.33 Q2328.78 1461.2 2326.95 1457.66 Q2325.15 1454.1 2321.51 1454.1 M2321.51 1450.39 Q2327.32 1450.39 2330.38 1455 Q2333.46 1459.58 2333.46 1468.33 Q2333.46 1477.06 2330.38 1481.67 Q2327.32 1486.25 2321.51 1486.25 Q2315.7 1486.25 2312.62 1481.67 Q2309.57 1477.06 2309.57 1468.33 Q2309.57 1459.58 2312.62 1455 Q2315.7 1450.39 2321.51 1450.39 Z" fill="#000000" fill-rule="nonzero" fill-opacity="1" /><path clip-path="url(#clip450)" d="M1225.47 1522.27 L1225.47 1532.4 L1237.53 1532.4 L1237.53 1536.95 L1225.47 1536.95 L1225.47 1556.3 Q1225.47 1560.66 1226.65 1561.9 Q1227.86 1563.14 1231.52 1563.14 L1237.53 1563.14 L1237.53 1568.04 L1231.52 1568.04 Q1224.74 1568.04 1222.16 1565.53 Q1219.58 1562.98 1219.58 1556.3 L1219.58 1536.95 L1215.29 1536.95 L1215.29 1532.4 L1219.58 1532.4 L1219.58 1522.27 L1225.47 1522.27 Z" fill="#000000" fill-rule="nonzero" fill-opacity="1" /><path clip-path="url(#clip450)" d="M1245.24 1532.4 L1251.09 1532.4 L1251.09 1568.04 L1245.24 1568.04 L1245.24 1532.4 M1245.24 1518.52 L1251.09 1518.52 L1251.09 1525.93 L1245.24 1525.93 L1245.24 1518.52 Z" fill="#000000" fill-rule="nonzero" fill-opacity="1" /><path clip-path="url(#clip450)" d="M1291.1 1539.24 Q1293.3 1535.29 1296.35 1533.41 Q1299.41 1531.54 1303.55 1531.54 Q1309.12 1531.54 1312.14 1535.45 Q1315.16 1539.33 1315.16 1546.53 L1315.16 1568.04 L1309.28 1568.04 L1309.28 1546.72 Q1309.28 1541.59 1307.46 1539.11 Q1305.65 1536.63 1301.92 1536.63 Q1297.37 1536.63 1294.73 1539.65 Q1292.09 1542.68 1292.09 1547.9 L1292.09 1568.04 L1286.2 1568.04 L1286.2 1546.72 Q1286.2 1541.56 1284.39 1539.11 Q1282.57 1536.63 1278.78 1536.63 Q1274.3 1536.63 1271.65 1539.68 Q1269.01 1542.71 1269.01 1547.9 L1269.01 1568.04 L1263.12 1568.04 L1263.12 1532.4 L1269.01 1532.4 L1269.01 1537.93 Q1271.02 1534.66 1273.82 1533.1 Q1276.62 1531.54 1280.47 1531.54 Q1284.35 1531.54 1287.06 1533.51 Q1289.8 1535.48 1291.1 1539.24 Z" fill="#000000" fill-rule="nonzero" fill-opacity="1" /><path clip-path="url(#clip450)" d="M1357.34 1548.76 L1357.34 1551.62 L1330.41 1551.62 Q1330.79 1557.67 1334.04 1560.85 Q1337.32 1564 1343.14 1564 Q1346.51 1564 1349.67 1563.17 Q1352.85 1562.35 1355.97 1560.69 L1355.97 1566.23 Q1352.82 1567.57 1349.51 1568.27 Q1346.2 1568.97 1342.79 1568.97 Q1334.26 1568.97 1329.26 1564 Q1324.3 1559.04 1324.3 1550.57 Q1324.3 1541.82 1329.01 1536.69 Q1333.75 1531.54 1341.77 1531.54 Q1348.97 1531.54 1353.14 1536.18 Q1357.34 1540.8 1357.34 1548.76 M1351.48 1547.04 Q1351.42 1542.23 1348.77 1539.37 Q1346.16 1536.5 1341.84 1536.5 Q1336.93 1536.5 1333.97 1539.27 Q1331.05 1542.04 1330.6 1547.07 L1351.48 1547.04 Z" fill="#000000" fill-rule="nonzero" fill-opacity="1" /><polyline clip-path="url(#clip452)" style="stroke:#000000; stroke-linecap:round; stroke-linejoin:round; stroke-width:2; stroke-opacity:0.1; fill:none" points="219.866,1307.71 2352.76,1307.71 "/>
<polyline clip-path="url(#clip452)" style="stroke:#000000; stroke-linecap:round; stroke-linejoin:round; stroke-width:2; stroke-opacity:0.1; fill:none" points="219.866,1118.89 2352.76,1118.89 "/>
<polyline clip-path="url(#clip452)" style="stroke:#000000; stroke-linecap:round; stroke-linejoin:round; stroke-width:2; stroke-opacity:0.1; fill:none" points="219.866,930.073 2352.76,930.073 "/>
<polyline clip-path="url(#clip452)" style="stroke:#000000; stroke-linecap:round; stroke-linejoin:round; stroke-width:2; stroke-opacity:0.1; fill:none" points="219.866,741.256 2352.76,741.256 "/>
<polyline clip-path="url(#clip452)" style="stroke:#000000; stroke-linecap:round; stroke-linejoin:round; stroke-width:2; stroke-opacity:0.1; fill:none" points="219.866,552.44 2352.76,552.44 "/>
<polyline clip-path="url(#clip452)" style="stroke:#000000; stroke-linecap:round; stroke-linejoin:round; stroke-width:2; stroke-opacity:0.1; fill:none" points="219.866,363.623 2352.76,363.623 "/>
<polyline clip-path="url(#clip452)" style="stroke:#000000; stroke-linecap:round; stroke-linejoin:round; stroke-width:2; stroke-opacity:0.1; fill:none" points="219.866,174.807 2352.76,174.807 "/>
<polyline clip-path="url(#clip450)" style="stroke:#000000; stroke-linecap:round; stroke-linejoin:round; stroke-width:4; stroke-opacity:1; fill:none" points="219.866,1423.18 219.866,123.472 "/>
<polyline clip-path="url(#clip450)" style="stroke:#000000; stroke-linecap:round; stroke-linejoin:round; stroke-width:4; stroke-opacity:1; fill:none" points="219.866,1307.71 238.764,1307.71 "/>
<polyline clip-path="url(#clip450)" style="stroke:#000000; stroke-linecap:round; stroke-linejoin:round; stroke-width:4; stroke-opacity:1; fill:none" points="219.866,1118.89 238.764,1118.89 "/>
<polyline clip-path="url(#clip450)" style="stroke:#000000; stroke-linecap:round; stroke-linejoin:round; stroke-width:4; stroke-opacity:1; fill:none" points="219.866,930.073 238.764,930.073 "/>
<polyline clip-path="url(#clip450)" style="stroke:#000000; stroke-linecap:round; stroke-linejoin:round; stroke-width:4; stroke-opacity:1; fill:none" points="219.866,741.256 238.764,741.256 "/>
<polyline clip-path="url(#clip450)" style="stroke:#000000; stroke-linecap:round; stroke-linejoin:round; stroke-width:4; stroke-opacity:1; fill:none" points="219.866,552.44 238.764,552.44 "/>
<polyline clip-path="url(#clip450)" style="stroke:#000000; stroke-linecap:round; stroke-linejoin:round; stroke-width:4; stroke-opacity:1; fill:none" points="219.866,363.623 238.764,363.623 "/>
<polyline clip-path="url(#clip450)" style="stroke:#000000; stroke-linecap:round; stroke-linejoin:round; stroke-width:4; stroke-opacity:1; fill:none" points="219.866,174.807 238.764,174.807 "/>
<path clip-path="url(#clip450)" d="M128.288 1293.5 Q124.677 1293.5 122.848 1297.07 Q121.043 1300.61 121.043 1307.74 Q121.043 1314.85 122.848 1318.41 Q124.677 1321.95 128.288 1321.95 Q131.922 1321.95 133.728 1318.41 Q135.556 1314.85 135.556 1307.74 Q135.556 1300.61 133.728 1297.07 Q131.922 1293.5 128.288 1293.5 M128.288 1289.8 Q134.098 1289.8 137.154 1294.41 Q140.232 1298.99 140.232 1307.74 Q140.232 1316.47 137.154 1321.07 Q134.098 1325.66 128.288 1325.66 Q122.478 1325.66 119.399 1321.07 Q116.343 1316.47 116.343 1307.74 Q116.343 1298.99 119.399 1294.41 Q122.478 1289.8 128.288 1289.8 Z" fill="#000000" fill-rule="nonzero" fill-opacity="1" /><path clip-path="url(#clip450)" d="M148.45 1319.11 L153.334 1319.11 L153.334 1324.99 L148.45 1324.99 L148.45 1319.11 Z" fill="#000000" fill-rule="nonzero" fill-opacity="1" /><path clip-path="url(#clip450)" d="M167.547 1321.05 L183.866 1321.05 L183.866 1324.99 L161.922 1324.99 L161.922 1321.05 Q164.584 1318.3 169.167 1313.67 Q173.774 1309.01 174.954 1307.67 Q177.2 1305.15 178.079 1303.41 Q178.982 1301.65 178.982 1299.96 Q178.982 1297.21 177.038 1295.47 Q175.116 1293.74 172.014 1293.74 Q169.815 1293.74 167.362 1294.5 Q164.931 1295.26 162.153 1296.81 L162.153 1292.09 Q164.977 1290.96 167.431 1290.38 Q169.885 1289.8 171.922 1289.8 Q177.292 1289.8 180.487 1292.49 Q183.681 1295.17 183.681 1299.66 Q183.681 1301.79 182.871 1303.71 Q182.084 1305.61 179.977 1308.2 Q179.399 1308.87 176.297 1312.09 Q173.195 1315.29 167.547 1321.05 Z" fill="#000000" fill-rule="nonzero" fill-opacity="1" /><path clip-path="url(#clip450)" d="M127.339 1104.69 Q123.728 1104.69 121.899 1108.25 Q120.093 1111.79 120.093 1118.92 Q120.093 1126.03 121.899 1129.6 Q123.728 1133.14 127.339 1133.14 Q130.973 1133.14 132.779 1129.6 Q134.607 1126.03 134.607 1118.92 Q134.607 1111.79 132.779 1108.25 Q130.973 1104.69 127.339 1104.69 M127.339 1100.98 Q133.149 1100.98 136.204 1105.59 Q139.283 1110.17 139.283 1118.92 Q139.283 1127.65 136.204 1132.26 Q133.149 1136.84 127.339 1136.84 Q121.529 1136.84 118.45 1132.26 Q115.394 1127.65 115.394 1118.92 Q115.394 1110.17 118.45 1105.59 Q121.529 1100.98 127.339 1100.98 Z" fill="#000000" fill-rule="nonzero" fill-opacity="1" /><path clip-path="url(#clip450)" d="M147.501 1130.29 L152.385 1130.29 L152.385 1136.17 L147.501 1136.17 L147.501 1130.29 Z" fill="#000000" fill-rule="nonzero" fill-opacity="1" /><path clip-path="url(#clip450)" d="M176.737 1117.54 Q180.093 1118.25 181.968 1120.52 Q183.866 1122.79 183.866 1126.12 Q183.866 1131.24 180.348 1134.04 Q176.829 1136.84 170.348 1136.84 Q168.172 1136.84 165.857 1136.4 Q163.565 1135.98 161.112 1135.13 L161.112 1130.61 Q163.056 1131.75 165.371 1132.33 Q167.686 1132.91 170.209 1132.91 Q174.607 1132.91 176.899 1131.17 Q179.214 1129.43 179.214 1126.12 Q179.214 1123.07 177.061 1121.35 Q174.931 1119.62 171.112 1119.62 L167.084 1119.62 L167.084 1115.78 L171.297 1115.78 Q174.746 1115.78 176.575 1114.41 Q178.403 1113.02 178.403 1110.43 Q178.403 1107.77 176.505 1106.35 Q174.63 1104.92 171.112 1104.92 Q169.19 1104.92 166.991 1105.34 Q164.792 1105.75 162.153 1106.63 L162.153 1102.47 Q164.815 1101.72 167.13 1101.35 Q169.468 1100.98 171.528 1100.98 Q176.852 1100.98 179.954 1103.41 Q183.056 1105.82 183.056 1109.94 Q183.056 1112.81 181.413 1114.8 Q179.769 1116.77 176.737 1117.54 Z" fill="#000000" fill-rule="nonzero" fill-opacity="1" /><path clip-path="url(#clip450)" d="M126.205 915.871 Q122.593 915.871 120.765 919.436 Q118.959 922.978 118.959 930.107 Q118.959 937.214 120.765 940.779 Q122.593 944.32 126.205 944.32 Q129.839 944.32 131.644 940.779 Q133.473 937.214 133.473 930.107 Q133.473 922.978 131.644 919.436 Q129.839 915.871 126.205 915.871 M126.205 912.168 Q132.015 912.168 135.07 916.774 Q138.149 921.358 138.149 930.107 Q138.149 938.834 135.07 943.441 Q132.015 948.024 126.205 948.024 Q120.394 948.024 117.316 943.441 Q114.26 938.834 114.26 930.107 Q114.26 921.358 117.316 916.774 Q120.394 912.168 126.205 912.168 Z" fill="#000000" fill-rule="nonzero" fill-opacity="1" /><path clip-path="url(#clip450)" d="M146.366 941.473 L151.251 941.473 L151.251 947.353 L146.366 947.353 L146.366 941.473 Z" fill="#000000" fill-rule="nonzero" fill-opacity="1" /><path clip-path="url(#clip450)" d="M174.283 916.867 L162.477 935.316 L174.283 935.316 L174.283 916.867 M173.056 912.793 L178.936 912.793 L178.936 935.316 L183.866 935.316 L183.866 939.205 L178.936 939.205 L178.936 947.353 L174.283 947.353 L174.283 939.205 L158.681 939.205 L158.681 934.691 L173.056 912.793 Z" fill="#000000" fill-rule="nonzero" fill-opacity="1" /><path clip-path="url(#clip450)" d="M127.686 727.055 Q124.075 727.055 122.246 730.62 Q120.441 734.161 120.441 741.291 Q120.441 748.397 122.246 751.962 Q124.075 755.504 127.686 755.504 Q131.32 755.504 133.126 751.962 Q134.954 748.397 134.954 741.291 Q134.954 734.161 133.126 730.62 Q131.32 727.055 127.686 727.055 M127.686 723.351 Q133.496 723.351 136.552 727.958 Q139.63 732.541 139.63 741.291 Q139.63 750.018 136.552 754.624 Q133.496 759.208 127.686 759.208 Q121.876 759.208 118.797 754.624 Q115.742 750.018 115.742 741.291 Q115.742 732.541 118.797 727.958 Q121.876 723.351 127.686 723.351 Z" fill="#000000" fill-rule="nonzero" fill-opacity="1" /><path clip-path="url(#clip450)" d="M147.848 752.657 L152.732 752.657 L152.732 758.536 L147.848 758.536 L147.848 752.657 Z" fill="#000000" fill-rule="nonzero" fill-opacity="1" /><path clip-path="url(#clip450)" d="M162.964 723.976 L181.32 723.976 L181.32 727.911 L167.246 727.911 L167.246 736.384 Q168.264 736.036 169.283 735.874 Q170.302 735.689 171.32 735.689 Q177.107 735.689 180.487 738.86 Q183.866 742.032 183.866 747.448 Q183.866 753.027 180.394 756.129 Q176.922 759.208 170.602 759.208 Q168.427 759.208 166.158 758.837 Q163.913 758.467 161.505 757.726 L161.505 753.027 Q163.589 754.161 165.811 754.717 Q168.033 755.272 170.51 755.272 Q174.514 755.272 176.852 753.166 Q179.19 751.059 179.19 747.448 Q179.19 743.837 176.852 741.731 Q174.514 739.624 170.51 739.624 Q168.635 739.624 166.76 740.041 Q164.908 740.458 162.964 741.337 L162.964 723.976 Z" fill="#000000" fill-rule="nonzero" fill-opacity="1" /><path clip-path="url(#clip450)" d="M126.529 538.238 Q122.918 538.238 121.089 541.803 Q119.283 545.345 119.283 552.474 Q119.283 559.581 121.089 563.146 Q122.918 566.687 126.529 566.687 Q130.163 566.687 131.968 563.146 Q133.797 559.581 133.797 552.474 Q133.797 545.345 131.968 541.803 Q130.163 538.238 126.529 538.238 M126.529 534.535 Q132.339 534.535 135.394 539.141 Q138.473 543.725 138.473 552.474 Q138.473 561.201 135.394 565.808 Q132.339 570.391 126.529 570.391 Q120.718 570.391 117.64 565.808 Q114.584 561.201 114.584 552.474 Q114.584 543.725 117.64 539.141 Q120.718 534.535 126.529 534.535 Z" fill="#000000" fill-rule="nonzero" fill-opacity="1" /><path clip-path="url(#clip450)" d="M146.691 563.84 L151.575 563.84 L151.575 569.72 L146.691 569.72 L146.691 563.84 Z" fill="#000000" fill-rule="nonzero" fill-opacity="1" /><path clip-path="url(#clip450)" d="M172.339 550.576 Q169.19 550.576 167.339 552.729 Q165.51 554.882 165.51 558.632 Q165.51 562.359 167.339 564.535 Q169.19 566.687 172.339 566.687 Q175.487 566.687 177.315 564.535 Q179.167 562.359 179.167 558.632 Q179.167 554.882 177.315 552.729 Q175.487 550.576 172.339 550.576 M181.621 535.924 L181.621 540.183 Q179.862 539.35 178.056 538.91 Q176.274 538.47 174.514 538.47 Q169.885 538.47 167.431 541.595 Q165.001 544.72 164.653 551.039 Q166.019 549.025 168.079 547.961 Q170.139 546.873 172.616 546.873 Q177.825 546.873 180.834 550.044 Q183.866 553.192 183.866 558.632 Q183.866 563.956 180.718 567.173 Q177.57 570.391 172.339 570.391 Q166.343 570.391 163.172 565.808 Q160.001 561.201 160.001 552.474 Q160.001 544.28 163.89 539.419 Q167.778 534.535 174.329 534.535 Q176.089 534.535 177.871 534.882 Q179.676 535.229 181.621 535.924 Z" fill="#000000" fill-rule="nonzero" fill-opacity="1" /><path clip-path="url(#clip450)" d="M127.593 349.422 Q123.982 349.422 122.154 352.987 Q120.348 356.528 120.348 363.658 Q120.348 370.764 122.154 374.329 Q123.982 377.871 127.593 377.871 Q131.228 377.871 133.033 374.329 Q134.862 370.764 134.862 363.658 Q134.862 356.528 133.033 352.987 Q131.228 349.422 127.593 349.422 M127.593 345.718 Q133.404 345.718 136.459 350.325 Q139.538 354.908 139.538 363.658 Q139.538 372.385 136.459 376.991 Q133.404 381.575 127.593 381.575 Q121.783 381.575 118.705 376.991 Q115.649 372.385 115.649 363.658 Q115.649 354.908 118.705 350.325 Q121.783 345.718 127.593 345.718 Z" fill="#000000" fill-rule="nonzero" fill-opacity="1" /><path clip-path="url(#clip450)" d="M147.755 375.024 L152.64 375.024 L152.64 380.903 L147.755 380.903 L147.755 375.024 Z" fill="#000000" fill-rule="nonzero" fill-opacity="1" /><path clip-path="url(#clip450)" d="M161.644 346.343 L183.866 346.343 L183.866 348.334 L171.32 380.903 L166.436 380.903 L178.241 350.278 L161.644 350.278 L161.644 346.343 Z" fill="#000000" fill-rule="nonzero" fill-opacity="1" /><path clip-path="url(#clip450)" d="M126.783 160.605 Q123.172 160.605 121.343 164.17 Q119.538 167.712 119.538 174.841 Q119.538 181.948 121.343 185.513 Q123.172 189.054 126.783 189.054 Q130.417 189.054 132.223 185.513 Q134.052 181.948 134.052 174.841 Q134.052 167.712 132.223 164.17 Q130.417 160.605 126.783 160.605 M126.783 156.902 Q132.593 156.902 135.649 161.508 Q138.728 166.092 138.728 174.841 Q138.728 183.568 135.649 188.175 Q132.593 192.758 126.783 192.758 Q120.973 192.758 117.894 188.175 Q114.839 183.568 114.839 174.841 Q114.839 166.092 117.894 161.508 Q120.973 156.902 126.783 156.902 Z" fill="#000000" fill-rule="nonzero" fill-opacity="1" /><path clip-path="url(#clip450)" d="M146.945 186.207 L151.829 186.207 L151.829 192.087 L146.945 192.087 L146.945 186.207 Z" fill="#000000" fill-rule="nonzero" fill-opacity="1" /><path clip-path="url(#clip450)" d="M172.014 175.675 Q168.681 175.675 166.76 177.457 Q164.862 179.24 164.862 182.365 Q164.862 185.49 166.76 187.272 Q168.681 189.054 172.014 189.054 Q175.348 189.054 177.269 187.272 Q179.19 185.466 179.19 182.365 Q179.19 179.24 177.269 177.457 Q175.371 175.675 172.014 175.675 M167.339 173.684 Q164.329 172.943 162.64 170.883 Q160.973 168.823 160.973 165.86 Q160.973 161.717 163.913 159.309 Q166.876 156.902 172.014 156.902 Q177.176 156.902 180.116 159.309 Q183.056 161.717 183.056 165.86 Q183.056 168.823 181.366 170.883 Q179.7 172.943 176.714 173.684 Q180.093 174.471 181.968 176.763 Q183.866 179.054 183.866 182.365 Q183.866 187.388 180.788 190.073 Q177.732 192.758 172.014 192.758 Q166.297 192.758 163.218 190.073 Q160.163 187.388 160.163 182.365 Q160.163 179.054 162.061 176.763 Q163.959 174.471 167.339 173.684 M165.626 166.3 Q165.626 168.985 167.292 170.49 Q168.982 171.994 172.014 171.994 Q175.024 171.994 176.714 170.49 Q178.426 168.985 178.426 166.3 Q178.426 163.615 176.714 162.11 Q175.024 160.605 172.014 160.605 Q168.982 160.605 167.292 162.11 Q165.626 163.615 165.626 166.3 Z" fill="#000000" fill-rule="nonzero" fill-opacity="1" /><path clip-path="url(#clip450)" d="M28.3562 756.711 L45.7028 769.602 L64.0042 756.043 L64.0042 762.95 L49.9996 773.326 L64.0042 783.702 L64.0042 790.609 L45.3526 776.763 L28.3562 789.431 L28.3562 782.524 L41.0558 773.071 L28.3562 763.618 L28.3562 756.711 Z" fill="#000000" fill-rule="nonzero" fill-opacity="1" /><path clip-path="url(#clip450)" d="M479.067 12.096 L511.191 12.096 L511.191 18.9825 L486.561 18.9825 L486.561 33.8088 Q488.344 33.2012 490.126 32.9176 Q491.909 32.5936 493.691 32.5936 Q503.818 32.5936 509.732 38.1433 Q515.647 43.6931 515.647 53.1722 Q515.647 62.9348 509.57 68.3631 Q503.494 73.7508 492.435 73.7508 Q488.627 73.7508 484.657 73.1026 Q480.728 72.4545 476.515 71.1582 L476.515 62.9348 Q480.161 64.9198 484.05 65.892 Q487.939 66.8642 492.273 66.8642 Q499.281 66.8642 503.373 63.1779 Q507.464 59.4916 507.464 53.1722 Q507.464 46.8528 503.373 43.1664 Q499.281 39.4801 492.273 39.4801 Q488.992 39.4801 485.711 40.2093 Q482.47 40.9384 479.067 42.4778 L479.067 12.096 Z" fill="#000000" fill-rule="nonzero" fill-opacity="1" /><path clip-path="url(#clip450)" d="M549.269 17.4837 Q542.95 17.4837 539.75 23.7221 Q536.59 29.92 536.59 42.3968 Q536.59 54.833 539.75 61.0714 Q542.95 67.2693 549.269 67.2693 Q555.629 67.2693 558.789 61.0714 Q561.989 54.833 561.989 42.3968 Q561.989 29.92 558.789 23.7221 Q555.629 17.4837 549.269 17.4837 M549.269 11.0023 Q559.437 11.0023 564.784 19.0636 Q570.172 27.0843 570.172 42.3968 Q570.172 57.6687 564.784 65.73 Q559.437 73.7508 549.269 73.7508 Q539.102 73.7508 533.714 65.73 Q528.367 57.6687 528.367 42.3968 Q528.367 27.0843 533.714 19.0636 Q539.102 11.0023 549.269 11.0023 Z" fill="#000000" fill-rule="nonzero" fill-opacity="1" /><path clip-path="url(#clip450)" d="M602.053 17.4837 Q595.733 17.4837 592.533 23.7221 Q589.373 29.92 589.373 42.3968 Q589.373 54.833 592.533 61.0714 Q595.733 67.2693 602.053 67.2693 Q608.413 67.2693 611.572 61.0714 Q614.772 54.833 614.772 42.3968 Q614.772 29.92 611.572 23.7221 Q608.413 17.4837 602.053 17.4837 M602.053 11.0023 Q612.22 11.0023 617.568 19.0636 Q622.955 27.0843 622.955 42.3968 Q622.955 57.6687 617.568 65.73 Q612.22 73.7508 602.053 73.7508 Q591.885 73.7508 586.497 65.73 Q581.15 57.6687 581.15 42.3968 Q581.15 27.0843 586.497 19.0636 Q591.885 11.0023 602.053 11.0023 Z" fill="#000000" fill-rule="nonzero" fill-opacity="1" /><path clip-path="url(#clip450)" d="M654.836 17.4837 Q648.516 17.4837 645.316 23.7221 Q642.157 29.92 642.157 42.3968 Q642.157 54.833 645.316 61.0714 Q648.516 67.2693 654.836 67.2693 Q661.196 67.2693 664.356 61.0714 Q667.556 54.833 667.556 42.3968 Q667.556 29.92 664.356 23.7221 Q661.196 17.4837 654.836 17.4837 M654.836 11.0023 Q665.004 11.0023 670.351 19.0636 Q675.739 27.0843 675.739 42.3968 Q675.739 57.6687 670.351 65.73 Q665.004 73.7508 654.836 73.7508 Q644.668 73.7508 639.28 65.73 Q633.933 57.6687 633.933 42.3968 Q633.933 27.0843 639.28 19.0636 Q644.668 11.0023 654.836 11.0023 Z" fill="#000000" fill-rule="nonzero" fill-opacity="1" /><path clip-path="url(#clip450)" d="M752.017 14.0809 L752.017 22.0612 Q747.359 19.8332 743.227 18.7395 Q739.095 17.6457 735.246 17.6457 Q728.562 17.6457 724.917 20.2383 Q721.311 22.8309 721.311 27.611 Q721.311 31.6214 723.701 33.6873 Q726.132 35.7128 732.856 36.9686 L737.798 37.9813 Q746.953 39.7232 751.288 44.1387 Q755.663 48.5136 755.663 55.8863 Q755.663 64.6767 749.749 69.2137 Q743.875 73.7508 732.492 73.7508 Q728.198 73.7508 723.337 72.7785 Q718.516 71.8063 713.331 69.9024 L713.331 61.4765 Q718.314 64.2716 723.094 65.6895 Q727.874 67.1073 732.492 67.1073 Q739.5 67.1073 743.308 64.3527 Q747.115 61.598 747.115 56.4939 Q747.115 52.0379 744.361 49.5264 Q741.647 47.0148 735.408 45.759 L730.426 44.7868 Q721.271 42.9639 717.179 39.075 Q713.088 35.1862 713.088 28.2591 Q713.088 20.2383 718.719 15.6203 Q724.39 11.0023 734.315 11.0023 Q738.568 11.0023 742.984 11.7719 Q747.399 12.5416 752.017 14.0809 Z" fill="#000000" fill-rule="nonzero" fill-opacity="1" /><path clip-path="url(#clip450)" d="M788.718 49.7694 Q779.685 49.7694 776.201 51.8354 Q772.717 53.9013 772.717 58.8839 Q772.717 62.8538 775.31 65.2034 Q777.943 67.5124 782.439 67.5124 Q788.637 67.5124 792.364 63.1374 Q796.131 58.7219 796.131 51.4303 L796.131 49.7694 L788.718 49.7694 M803.585 46.6907 L803.585 72.576 L796.131 72.576 L796.131 65.6895 Q793.579 69.8214 789.772 71.8063 Q785.964 73.7508 780.454 73.7508 Q773.487 73.7508 769.355 69.8619 Q765.264 65.9325 765.264 59.3701 Q765.264 51.7138 770.368 47.825 Q775.512 43.9361 785.68 43.9361 L796.131 43.9361 L796.131 43.2069 Q796.131 38.0623 792.729 35.2672 Q789.366 32.4315 783.25 32.4315 Q779.361 32.4315 775.674 33.3632 Q771.988 34.295 768.585 36.1584 L768.585 29.2718 Q772.677 27.692 776.525 26.9223 Q780.373 26.1121 784.019 26.1121 Q793.863 26.1121 798.724 31.2163 Q803.585 36.3204 803.585 46.6907 Z" fill="#000000" fill-rule="nonzero" fill-opacity="1" /><path clip-path="url(#clip450)" d="M854.262 35.9153 Q857.057 30.8922 860.946 28.5022 Q864.835 26.1121 870.101 26.1121 Q877.19 26.1121 881.038 31.0947 Q884.887 36.0368 884.887 45.1919 L884.887 72.576 L877.393 72.576 L877.393 45.4349 Q877.393 38.913 875.084 35.7533 Q872.775 32.5936 868.035 32.5936 Q862.242 32.5936 858.88 36.4419 Q855.518 40.2903 855.518 46.9338 L855.518 72.576 L848.024 72.576 L848.024 45.4349 Q848.024 38.8725 845.714 35.7533 Q843.405 32.5936 838.585 32.5936 Q832.873 32.5936 829.511 36.4824 Q826.149 40.3308 826.149 46.9338 L826.149 72.576 L818.654 72.576 L818.654 27.2059 L826.149 27.2059 L826.149 34.2544 Q828.701 30.082 832.265 28.0971 Q835.83 26.1121 840.732 26.1121 Q845.674 26.1121 849.117 28.6237 Q852.601 31.1352 854.262 35.9153 Z" fill="#000000" fill-rule="nonzero" fill-opacity="1" /><path clip-path="url(#clip450)" d="M906.964 65.7705 L906.964 89.8329 L899.47 89.8329 L899.47 27.2059 L906.964 27.2059 L906.964 34.0924 Q909.314 30.0415 912.878 28.0971 Q916.484 26.1121 921.466 26.1121 Q929.73 26.1121 934.875 32.6746 Q940.06 39.2371 940.06 49.9314 Q940.06 60.6258 934.875 67.1883 Q929.73 73.7508 921.466 73.7508 Q916.484 73.7508 912.878 71.8063 Q909.314 69.8214 906.964 65.7705 M932.323 49.9314 Q932.323 41.7081 928.92 37.0496 Q925.558 32.3505 919.643 32.3505 Q913.729 32.3505 910.326 37.0496 Q906.964 41.7081 906.964 49.9314 Q906.964 58.1548 910.326 62.8538 Q913.729 67.5124 919.643 67.5124 Q925.558 67.5124 928.92 62.8538 Q932.323 58.1548 932.323 49.9314 Z" fill="#000000" fill-rule="nonzero" fill-opacity="1" /><path clip-path="url(#clip450)" d="M952.415 9.54393 L959.869 9.54393 L959.869 72.576 L952.415 72.576 L952.415 9.54393 Z" fill="#000000" fill-rule="nonzero" fill-opacity="1" /><path clip-path="url(#clip450)" d="M1014.27 48.0275 L1014.27 51.6733 L980.002 51.6733 Q980.488 59.3701 984.62 63.421 Q988.792 67.4314 996.206 67.4314 Q1000.5 67.4314 1004.51 66.3781 Q1008.56 65.3249 1012.53 63.2184 L1012.53 70.267 Q1008.52 71.9684 1004.31 72.8596 Q1000.09 73.7508 995.76 73.7508 Q984.904 73.7508 978.544 67.4314 Q972.224 61.1119 972.224 50.3365 Q972.224 39.1965 978.22 32.6746 Q984.255 26.1121 994.464 26.1121 Q1003.62 26.1121 1008.93 32.0264 Q1014.27 37.9003 1014.27 48.0275 M1006.82 45.84 Q1006.74 39.7232 1003.38 36.0774 Q1000.05 32.4315 994.545 32.4315 Q988.306 32.4315 984.539 35.9558 Q980.812 39.4801 980.245 45.8805 L1006.82 45.84 Z" fill="#000000" fill-rule="nonzero" fill-opacity="1" /><path clip-path="url(#clip450)" d="M1053.2 12.096 L1065.4 12.096 L1080.83 53.2532 L1096.34 12.096 L1108.54 12.096 L1108.54 72.576 L1100.56 72.576 L1100.56 19.4686 L1084.96 60.9499 L1076.74 60.9499 L1061.14 19.4686 L1061.14 72.576 L1053.2 72.576 L1053.2 12.096 Z" fill="#000000" fill-rule="nonzero" fill-opacity="1" /><path clip-path="url(#clip450)" d="M1163.26 48.0275 L1163.26 51.6733 L1128.99 51.6733 Q1129.48 59.3701 1133.61 63.421 Q1137.78 67.4314 1145.2 67.4314 Q1149.49 67.4314 1153.5 66.3781 Q1157.55 65.3249 1161.52 63.2184 L1161.52 70.267 Q1157.51 71.9684 1153.3 72.8596 Q1149.09 73.7508 1144.75 73.7508 Q1133.9 73.7508 1127.54 67.4314 Q1121.22 61.1119 1121.22 50.3365 Q1121.22 39.1965 1127.21 32.6746 Q1133.25 26.1121 1143.46 26.1121 Q1152.61 26.1121 1157.92 32.0264 Q1163.26 37.9003 1163.26 48.0275 M1155.81 45.84 Q1155.73 39.7232 1152.37 36.0774 Q1149.05 32.4315 1143.54 32.4315 Q1137.3 32.4315 1133.53 35.9558 Q1129.8 39.4801 1129.24 45.8805 L1155.81 45.84 Z" fill="#000000" fill-rule="nonzero" fill-opacity="1" /><path clip-path="url(#clip450)" d="M1196.12 49.7694 Q1187.08 49.7694 1183.6 51.8354 Q1180.12 53.9013 1180.12 58.8839 Q1180.12 62.8538 1182.71 65.2034 Q1185.34 67.5124 1189.84 67.5124 Q1196.04 67.5124 1199.76 63.1374 Q1203.53 58.7219 1203.53 51.4303 L1203.53 49.7694 L1196.12 49.7694 M1210.98 46.6907 L1210.98 72.576 L1203.53 72.576 L1203.53 65.6895 Q1200.98 69.8214 1197.17 71.8063 Q1193.36 73.7508 1187.85 73.7508 Q1180.89 73.7508 1176.75 69.8619 Q1172.66 65.9325 1172.66 59.3701 Q1172.66 51.7138 1177.77 47.825 Q1182.91 43.9361 1193.08 43.9361 L1203.53 43.9361 L1203.53 43.2069 Q1203.53 38.0623 1200.13 35.2672 Q1196.77 32.4315 1190.65 32.4315 Q1186.76 32.4315 1183.07 33.3632 Q1179.39 34.295 1175.98 36.1584 L1175.98 29.2718 Q1180.08 27.692 1183.92 26.9223 Q1187.77 26.1121 1191.42 26.1121 Q1201.26 26.1121 1206.12 31.2163 Q1210.98 36.3204 1210.98 46.6907 Z" fill="#000000" fill-rule="nonzero" fill-opacity="1" /><path clip-path="url(#clip450)" d="M1264.05 45.1919 L1264.05 72.576 L1256.6 72.576 L1256.6 45.4349 Q1256.6 38.994 1254.09 35.7938 Q1251.57 32.5936 1246.55 32.5936 Q1240.52 32.5936 1237.03 36.4419 Q1233.55 40.2903 1233.55 46.9338 L1233.55 72.576 L1226.05 72.576 L1226.05 27.2059 L1233.55 27.2059 L1233.55 34.2544 Q1236.22 30.163 1239.83 28.1376 Q1243.47 26.1121 1248.21 26.1121 Q1256.03 26.1121 1260.04 30.9732 Q1264.05 35.7938 1264.05 45.1919 Z" fill="#000000" fill-rule="nonzero" fill-opacity="1" /><path clip-path="url(#clip450)" d="M1325.91 49.7694 Q1316.88 49.7694 1313.39 51.8354 Q1309.91 53.9013 1309.91 58.8839 Q1309.91 62.8538 1312.5 65.2034 Q1315.13 67.5124 1319.63 67.5124 Q1325.83 67.5124 1329.55 63.1374 Q1333.32 58.7219 1333.32 51.4303 L1333.32 49.7694 L1325.91 49.7694 M1340.78 46.6907 L1340.78 72.576 L1333.32 72.576 L1333.32 65.6895 Q1330.77 69.8214 1326.96 71.8063 Q1323.15 73.7508 1317.64 73.7508 Q1310.68 73.7508 1306.55 69.8619 Q1302.45 65.9325 1302.45 59.3701 Q1302.45 51.7138 1307.56 47.825 Q1312.7 43.9361 1322.87 43.9361 L1333.32 43.9361 L1333.32 43.2069 Q1333.32 38.0623 1329.92 35.2672 Q1326.56 32.4315 1320.44 32.4315 Q1316.55 32.4315 1312.86 33.3632 Q1309.18 34.295 1305.78 36.1584 L1305.78 29.2718 Q1309.87 27.692 1313.72 26.9223 Q1317.56 26.1121 1321.21 26.1121 Q1331.05 26.1121 1335.91 31.2163 Q1340.78 36.3204 1340.78 46.6907 Z" fill="#000000" fill-rule="nonzero" fill-opacity="1" /><path clip-path="url(#clip450)" d="M1393.84 45.1919 L1393.84 72.576 L1386.39 72.576 L1386.39 45.4349 Q1386.39 38.994 1383.88 35.7938 Q1381.37 32.5936 1376.34 32.5936 Q1370.31 32.5936 1366.82 36.4419 Q1363.34 40.2903 1363.34 46.9338 L1363.34 72.576 L1355.84 72.576 L1355.84 27.2059 L1363.34 27.2059 L1363.34 34.2544 Q1366.01 30.163 1369.62 28.1376 Q1373.26 26.1121 1378 26.1121 Q1385.82 26.1121 1389.83 30.9732 Q1393.84 35.7938 1393.84 45.1919 Z" fill="#000000" fill-rule="nonzero" fill-opacity="1" /><path clip-path="url(#clip450)" d="M1438.56 34.0924 L1438.56 9.54393 L1446.02 9.54393 L1446.02 72.576 L1438.56 72.576 L1438.56 65.7705 Q1436.21 69.8214 1432.61 71.8063 Q1429.04 73.7508 1424.02 73.7508 Q1415.8 73.7508 1410.61 67.1883 Q1405.47 60.6258 1405.47 49.9314 Q1405.47 39.2371 1410.61 32.6746 Q1415.8 26.1121 1424.02 26.1121 Q1429.04 26.1121 1432.61 28.0971 Q1436.21 30.0415 1438.56 34.0924 M1413.17 49.9314 Q1413.17 58.1548 1416.53 62.8538 Q1419.93 67.5124 1425.84 67.5124 Q1431.76 67.5124 1435.16 62.8538 Q1438.56 58.1548 1438.56 49.9314 Q1438.56 41.7081 1435.16 37.0496 Q1431.76 32.3505 1425.84 32.3505 Q1419.93 32.3505 1416.53 37.0496 Q1413.17 41.7081 1413.17 49.9314 Z" fill="#000000" fill-rule="nonzero" fill-opacity="1" /><path clip-path="url(#clip450)" d="M1524.32 14.0809 L1524.32 22.0612 Q1519.66 19.8332 1515.53 18.7395 Q1511.4 17.6457 1507.55 17.6457 Q1500.87 17.6457 1497.22 20.2383 Q1493.62 22.8309 1493.62 27.611 Q1493.62 31.6214 1496.01 33.6873 Q1498.44 35.7128 1505.16 36.9686 L1510.1 37.9813 Q1519.26 39.7232 1523.59 44.1387 Q1527.97 48.5136 1527.97 55.8863 Q1527.97 64.6767 1522.05 69.2137 Q1516.18 73.7508 1504.8 73.7508 Q1500.5 73.7508 1495.64 72.7785 Q1490.82 71.8063 1485.64 69.9024 L1485.64 61.4765 Q1490.62 64.2716 1495.4 65.6895 Q1500.18 67.1073 1504.8 67.1073 Q1511.8 67.1073 1515.61 64.3527 Q1519.42 61.598 1519.42 56.4939 Q1519.42 52.0379 1516.67 49.5264 Q1513.95 47.0148 1507.71 45.759 L1502.73 44.7868 Q1493.58 42.9639 1489.48 39.075 Q1485.39 35.1862 1485.39 28.2591 Q1485.39 20.2383 1491.02 15.6203 Q1496.69 11.0023 1506.62 11.0023 Q1510.87 11.0023 1515.29 11.7719 Q1519.7 12.5416 1524.32 14.0809 Z" fill="#000000" fill-rule="nonzero" fill-opacity="1" /><path clip-path="url(#clip450)" d="M1547.78 14.324 L1547.78 27.2059 L1563.13 27.2059 L1563.13 32.9987 L1547.78 32.9987 L1547.78 57.6282 Q1547.78 63.1779 1549.28 64.7578 Q1550.81 66.3376 1555.47 66.3376 L1563.13 66.3376 L1563.13 72.576 L1555.47 72.576 Q1546.84 72.576 1543.56 69.3758 Q1540.28 66.1351 1540.28 57.6282 L1540.28 32.9987 L1534.81 32.9987 L1534.81 27.2059 L1540.28 27.2059 L1540.28 14.324 L1547.78 14.324 Z" fill="#000000" fill-rule="nonzero" fill-opacity="1" /><path clip-path="url(#clip450)" d="M1602.79 34.0924 L1602.79 9.54393 L1610.24 9.54393 L1610.24 72.576 L1602.79 72.576 L1602.79 65.7705 Q1600.44 69.8214 1596.83 71.8063 Q1593.27 73.7508 1588.25 73.7508 Q1580.02 73.7508 1574.84 67.1883 Q1569.69 60.6258 1569.69 49.9314 Q1569.69 39.2371 1574.84 32.6746 Q1580.02 26.1121 1588.25 26.1121 Q1593.27 26.1121 1596.83 28.0971 Q1600.44 30.0415 1602.79 34.0924 M1577.39 49.9314 Q1577.39 58.1548 1580.75 62.8538 Q1584.15 67.5124 1590.07 67.5124 Q1595.98 67.5124 1599.39 62.8538 Q1602.79 58.1548 1602.79 49.9314 Q1602.79 41.7081 1599.39 37.0496 Q1595.98 32.3505 1590.07 32.3505 Q1584.15 32.3505 1580.75 37.0496 Q1577.39 41.7081 1577.39 49.9314 Z" fill="#000000" fill-rule="nonzero" fill-opacity="1" /><path clip-path="url(#clip450)" d="M1626.65 62.2867 L1635.2 62.2867 L1635.2 72.576 L1626.65 72.576 L1626.65 62.2867 Z" fill="#000000" fill-rule="nonzero" fill-opacity="1" /><path clip-path="url(#clip450)" d="M1653.87 62.2867 L1662.42 62.2867 L1662.42 69.2543 L1655.77 82.2172 L1650.55 82.2172 L1653.87 69.2543 L1653.87 62.2867 Z" fill="#000000" fill-rule="nonzero" fill-opacity="1" /><path clip-path="url(#clip450)" d="M1737.56 20.0358 Q1733.43 17.2001 1723.75 17.2001 Q1713.5 17.2001 1713.5 21.9397 Q1713.5 25.6665 1724.19 27.611 Q1732.62 29.1098 1737.36 33.6468 Q1743.11 39.1155 1743.11 50.3365 Q1743.11 61.0714 1737.56 67.3908 Q1732.01 73.7508 1722.29 73.7508 Q1712.61 73.7508 1707.02 67.3908 Q1701.47 61.0714 1701.47 49.9314 Q1701.47 41.6676 1707.02 34.9836 Q1709.16 32.391 1712.2 30.9327 Q1705.88 27.7325 1705.88 22.0207 Q1705.88 11.0023 1723.75 11.0023 Q1732.7 11.0023 1737.56 13.8379 L1737.56 20.0358 M1717.79 32.9582 Q1715.04 34.1329 1712.81 37.0901 Q1709.33 41.6676 1709.33 49.9314 Q1709.33 58.1548 1712.77 62.7728 Q1716.25 67.4314 1722.29 67.4314 Q1728.24 67.4314 1731.73 62.7323 Q1735.21 58.0333 1735.21 50.3365 Q1735.21 42.2752 1731.53 38.3864 Q1727.6 34.2139 1722.49 33.7683 Q1719.9 33.5253 1717.79 32.9582 Z" fill="#000000" fill-rule="nonzero" fill-opacity="1" /><path clip-path="url(#clip450)" d="M1793.18 27.2059 L1776.77 49.2833 L1794.03 72.576 L1785.24 72.576 L1772.03 54.752 L1758.83 72.576 L1750.04 72.576 L1767.66 48.8377 L1751.54 27.2059 L1760.33 27.2059 L1772.36 43.369 L1784.39 27.2059 L1793.18 27.2059 Z" fill="#000000" fill-rule="nonzero" fill-opacity="1" /><path clip-path="url(#clip450)" d="M1805.54 34.9026 L1857.47 34.9026 L1857.47 41.7081 L1805.54 41.7081 L1805.54 34.9026 M1805.54 51.4303 L1857.47 51.4303 L1857.47 58.3168 L1805.54 58.3168 L1805.54 51.4303 Z" fill="#000000" fill-rule="nonzero" fill-opacity="1" /><path clip-path="url(#clip450)" d="M1892.63 17.4837 Q1886.31 17.4837 1883.11 23.7221 Q1879.95 29.92 1879.95 42.3968 Q1879.95 54.833 1883.11 61.0714 Q1886.31 67.2693 1892.63 67.2693 Q1898.99 67.2693 1902.15 61.0714 Q1905.35 54.833 1905.35 42.3968 Q1905.35 29.92 1902.15 23.7221 Q1898.99 17.4837 1892.63 17.4837 M1892.63 11.0023 Q1902.8 11.0023 1908.15 19.0636 Q1913.53 27.0843 1913.53 42.3968 Q1913.53 57.6687 1908.15 65.73 Q1902.8 73.7508 1892.63 73.7508 Q1882.46 73.7508 1877.07 65.73 Q1871.73 57.6687 1871.73 42.3968 Q1871.73 27.0843 1877.07 19.0636 Q1882.46 11.0023 1892.63 11.0023 Z" fill="#000000" fill-rule="nonzero" fill-opacity="1" /><path clip-path="url(#clip450)" d="M1927.91 62.2867 L1936.46 62.2867 L1936.46 72.576 L1927.91 72.576 L1927.91 62.2867 Z" fill="#000000" fill-rule="nonzero" fill-opacity="1" /><path clip-path="url(#clip450)" d="M1971.78 17.4837 Q1965.47 17.4837 1962.27 23.7221 Q1959.11 29.92 1959.11 42.3968 Q1959.11 54.833 1962.27 61.0714 Q1965.47 67.2693 1971.78 67.2693 Q1978.14 67.2693 1981.3 61.0714 Q1984.5 54.833 1984.5 42.3968 Q1984.5 29.92 1981.3 23.7221 Q1978.14 17.4837 1971.78 17.4837 M1971.78 11.0023 Q1981.95 11.0023 1987.3 19.0636 Q1992.69 27.0843 1992.69 42.3968 Q1992.69 57.6687 1987.3 65.73 Q1981.95 73.7508 1971.78 73.7508 Q1961.62 73.7508 1956.23 65.73 Q1950.88 57.6687 1950.88 42.3968 Q1950.88 27.0843 1956.23 19.0636 Q1961.62 11.0023 1971.78 11.0023 Z" fill="#000000" fill-rule="nonzero" fill-opacity="1" /><path clip-path="url(#clip450)" d="M2024.57 17.4837 Q2018.25 17.4837 2015.05 23.7221 Q2011.89 29.92 2011.89 42.3968 Q2011.89 54.833 2015.05 61.0714 Q2018.25 67.2693 2024.57 67.2693 Q2030.93 67.2693 2034.09 61.0714 Q2037.29 54.833 2037.29 42.3968 Q2037.29 29.92 2034.09 23.7221 Q2030.93 17.4837 2024.57 17.4837 M2024.57 11.0023 Q2034.74 11.0023 2040.08 19.0636 Q2045.47 27.0843 2045.47 42.3968 Q2045.47 57.6687 2040.08 65.73 Q2034.74 73.7508 2024.57 73.7508 Q2014.4 73.7508 2009.01 65.73 Q2003.67 57.6687 2003.67 42.3968 Q2003.67 27.0843 2009.01 19.0636 Q2014.4 11.0023 2024.57 11.0023 Z" fill="#000000" fill-rule="nonzero" fill-opacity="1" /><path clip-path="url(#clip450)" d="M2061.27 65.6895 L2074.64 65.6895 L2074.64 19.5497 L2060.09 22.4663 L2060.09 15.0127 L2074.56 12.096 L2082.74 12.096 L2082.74 65.6895 L2096.11 65.6895 L2096.11 72.576 L2061.27 72.576 L2061.27 65.6895 Z" fill="#000000" fill-rule="nonzero" fill-opacity="1" /><path clip-path="url(#clip452)" d="M280.231 1334.3 L300.556 1331.8 L320.881 1340.29 L341.206 1347.31 L361.53 1366.09 L381.855 1353.98 L402.18 1350.79 L422.505 1359.47 L442.83 1346.55 L463.155 1359.62 L483.48 1369.87 L503.804 1358.55 L524.129 1355.87 L544.454 1356.41 L564.779 1373.32 L585.104 1362.97 L605.429 1353.41 L625.753 1358.87 L646.078 1358.44 L666.403 1356.87 L686.728 1346.31 L707.053 1341.01 L727.378 1336.38 L747.703 1312.95 L768.027 1307.59 L788.352 1304.58 L808.677 1298.94 L829.002 1302.9 L849.327 1293.24 L869.652 1281.46 L889.977 1267.42 L910.301 1259.8 L930.626 1267.74 L950.951 1259.14 L971.276 1242.7 L991.601 1262.82 L1011.93 1261.77 L1032.25 1244.44 L1052.58 1254.49 L1072.9 1261.63 L1093.23 1263.42 L1113.55 1278.34 L1133.87 1277.77 L1154.2 1283.31 L1174.52 1286.82 L1194.85 1313.43 L1215.17 1307.45 L1235.5 1327.22 L1255.82 1321.82 L1276.15 1328.85 L1296.47 1325.58 L1316.8 1348.74 L1337.12 1354.3 L1357.45 1357.87 L1377.77 1366.69 L1398.1 1366.73 L1418.42 1361.71 L1438.75 1370.83 L1459.07 1371.55 L1479.4 1386.4 L1499.72 1354.51 L1520.05 1362.26 L1540.37 1372.15 L1560.7 1358.81 L1581.02 1362.62 L1601.35 1363.34 L1621.67 1350.52 L1642 1353.05 L1662.32 1347.99 L1682.65 1339.46 L1702.97 1348.55 L1723.3 1343.54 L1743.62 1331.9 L1763.95 1323.17 L1784.27 1320.95 L1804.59 1312.52 L1824.92 1291.59 L1845.24 1306.5 L1865.57 1296.55 L1885.89 1273.25 L1906.22 1268.34 L1926.54 1264.23 L1946.87 1272.65 L1967.19 1264.72 L1987.52 1265.52 L2007.84 1254.6 L2028.17 1264.54 L2048.49 1253.39 L2068.82 1266.55 L2089.14 1274.2 L2109.47 1273.46 L2129.79 1289.87 L2150.12 1268.34 L2170.44 1293.95 L2190.77 1298.85 L2211.09 1306.8 L2231.42 1310.31 L2251.74 1320.7 L2272.07 1326.38 L2292.39 1337.98 L2292.39 255.537 L2272.07 243.935 L2251.74 238.256 L2231.42 227.857 L2211.09 224.351 L2190.77 216.401 L2170.44 211.5 L2150.12 185.894 L2129.79 207.42 L2109.47 191.012 L2089.14 191.749 L2068.82 184.098 L2048.49 170.946 L2028.17 182.088 L2007.84 172.156 L1987.52 183.076 L1967.19 182.272 L1946.87 190.206 L1926.54 181.786 L1906.22 185.892 L1885.89 190.802 L1865.57 214.101 L1845.24 224.052 L1824.92 209.146 L1804.59 230.068 L1784.27 238.503 L1763.95 240.723 L1743.62 249.454 L1723.3 261.095 L1702.97 266.098 L1682.65 257.012 L1662.32 265.54 L1642 270.598 L1621.67 268.069 L1601.35 280.889 L1581.02 280.174 L1560.7 276.358 L1540.37 289.698 L1520.05 279.808 L1499.72 272.058 L1479.4 303.947 L1459.07 289.098 L1438.75 288.384 L1418.42 279.259 L1398.1 284.283 L1377.77 284.242 L1357.45 275.423 L1337.12 271.848 L1316.8 266.293 L1296.47 243.131 L1276.15 246.401 L1255.82 239.376 L1235.5 244.767 L1215.17 225.003 L1194.85 230.985 L1174.52 204.37 L1154.2 200.861 L1133.87 195.319 L1113.55 195.894 L1093.23 180.967 L1072.9 179.177 L1052.58 172.044 L1032.25 161.988 L1011.93 179.32 L991.601 180.369 L971.276 160.256 L950.951 176.694 L930.626 185.29 L910.301 177.349 L889.977 184.967 L869.652 199.009 L849.327 210.793 L829.002 220.455 L808.677 216.488 L788.352 222.127 L768.027 225.144 L747.703 230.501 L727.378 253.933 L707.053 258.564 L686.728 263.862 L666.403 274.424 L646.078 275.993 L625.753 276.422 L605.429 270.965 L585.104 280.521 L564.779 290.875 L544.454 273.959 L524.129 273.426 L503.804 276.101 L483.48 287.421 L463.155 277.174 L442.83 264.103 L422.505 277.026 L402.18 268.339 L381.855 271.535 L361.53 283.64 L341.206 264.863 L320.881 257.837 L300.556 249.349 L280.231 251.854  Z" fill="#009af9" fill-rule="evenodd" fill-opacity="0.5"/>
<polyline clip-path="url(#clip452)" style="stroke:#009af9; stroke-linecap:round; stroke-linejoin:round; stroke-width:8; stroke-opacity:0.8; fill:none" points="280.231,793.078 300.556,790.573 320.881,799.061 341.206,806.087 361.53,824.864 381.855,812.76 402.18,809.563 422.505,818.25 442.83,805.327 463.155,818.398 483.48,828.645 503.804,817.325 524.129,814.651 544.454,815.183 564.779,832.1 585.104,821.745 605.429,812.19 625.753,817.646 646.078,817.217 666.403,815.648 686.728,805.086 707.053,799.788 727.378,795.157 747.703,771.725 768.027,766.368 788.352,763.351 808.677,757.712 829.002,761.679 849.327,752.018 869.652,740.233 889.977,726.191 910.301,718.573 930.626,726.514 950.951,717.918 971.276,701.481 991.601,721.593 1011.93,720.544 1032.25,703.212 1052.58,713.268 1072.9,720.401 1093.23,722.191 1113.55,737.118 1133.87,736.543 1154.2,742.085 1174.52,745.594 1194.85,772.21 1215.17,766.227 1235.5,785.991 1255.82,780.601 1276.15,787.625 1296.47,784.356 1316.8,807.518 1337.12,813.073 1357.45,816.648 1377.77,825.467 1398.1,825.507 1418.42,820.483 1438.75,829.608 1459.07,830.323 1479.4,845.171 1499.72,813.282 1520.05,821.032 1540.37,830.922 1560.7,817.583 1581.02,821.398 1601.35,822.114 1621.67,809.293 1642,811.823 1662.32,806.764 1682.65,798.236 1702.97,807.322 1723.3,802.319 1743.62,790.679 1763.95,781.947 1784.27,779.727 1804.59,771.292 1824.92,750.37 1845.24,765.276 1865.57,755.325 1885.89,732.026 1906.22,727.116 1926.54,723.011 1946.87,731.431 1967.19,723.497 1987.52,724.3 2007.84,713.381 2028.17,723.312 2048.49,712.17 2068.82,725.322 2089.14,732.973 2109.47,732.236 2129.79,748.644 2150.12,727.118 2170.44,752.724 2190.77,757.626 2211.09,765.575 2231.42,769.081 2251.74,779.48 2272.07,785.159 2292.39,796.761 "/>
<path clip-path="url(#clip452)" d="M280.231 1041.41 L300.556 1041.76 L320.881 1042.18 L341.206 1042.65 L361.53 1043.18 L381.855 1043.76 L402.18 1044.39 L422.505 1045.04 L442.83 1045.72 L463.155 1046.42 L483.48 1047.12 L503.804 1047.8 L524.129 1048.46 L544.454 1049.08 L564.779 1049.65 L585.104 1050.15 L605.429 1050.58 L625.753 1050.94 L646.078 1051.2 L666.403 1051.39 L686.728 1051.48 L707.053 1051.49 L727.378 1051.42 L747.703 1051.27 L768.027 1051.04 L788.352 1050.74 L808.677 1050.37 L829.002 1049.94 L849.327 1049.45 L869.652 1048.91 L889.977 1048.31 L910.301 1047.68 L930.626 1047.02 L950.951 1046.33 L971.276 1045.64 L991.601 1044.94 L1011.93 1044.26 L1032.25 1043.61 L1052.58 1043 L1072.9 1042.45 L1093.23 1041.96 L1113.55 1041.55 L1133.87 1041.22 L1154.2 1040.97 L1174.52 1040.81 L1194.85 1040.74 L1215.17 1040.75 L1235.5 1040.84 L1255.82 1041.01 L1276.15 1041.26 L1296.47 1041.58 L1316.8 1041.96 L1337.12 1042.41 L1357.45 1042.91 L1377.77 1043.47 L1398.1 1044.07 L1418.42 1044.71 L1438.75 1045.38 L1459.07 1046.07 L1479.4 1046.77 L1499.72 1047.46 L1520.05 1048.13 L1540.37 1048.78 L1560.7 1049.37 L1581.02 1049.91 L1601.35 1050.38 L1621.67 1050.77 L1642 1051.08 L1662.32 1051.31 L1682.65 1051.44 L1702.97 1051.5 L1723.3 1051.46 L1743.62 1051.35 L1763.95 1051.16 L1784.27 1050.89 L1804.59 1050.56 L1824.92 1050.16 L1845.24 1049.7 L1865.57 1049.18 L1885.89 1048.62 L1906.22 1048 L1926.54 1047.36 L1946.87 1046.68 L1967.19 1045.99 L1987.52 1045.29 L2007.84 1044.6 L2028.17 1043.93 L2048.49 1043.3 L2068.82 1042.72 L2089.14 1042.2 L2109.47 1041.75 L2129.79 1041.37 L2150.12 1041.08 L2170.44 1040.88 L2190.77 1040.76 L2211.09 1040.73 L2231.42 1040.79 L2251.74 1040.92 L2272.07 1041.13 L2292.39 1041.41 L2292.39 432.051 L2272.07 431.768 L2251.74 431.557 L2231.42 431.424 L2211.09 431.371 L2190.77 431.402 L2170.44 431.519 L2150.12 431.723 L2129.79 432.013 L2109.47 432.386 L2089.14 432.837 L2068.82 433.359 L2048.49 433.941 L2028.17 434.572 L2007.84 435.238 L1987.52 435.928 L1967.19 436.625 L1946.87 437.318 L1926.54 437.994 L1906.22 438.643 L1885.89 439.254 L1865.57 439.822 L1845.24 440.338 L1824.92 440.799 L1804.59 441.199 L1784.27 441.534 L1763.95 441.799 L1743.62 441.99 L1723.3 442.104 L1702.97 442.136 L1682.65 442.084 L1662.32 441.945 L1642 441.72 L1621.67 441.409 L1601.35 441.016 L1581.02 440.547 L1560.7 440.009 L1540.37 439.414 L1520.05 438.773 L1499.72 438.099 L1479.4 437.407 L1459.07 436.709 L1438.75 436.019 L1418.42 435.349 L1398.1 434.709 L1377.77 434.107 L1357.45 433.552 L1337.12 433.048 L1316.8 432.602 L1296.47 432.218 L1276.15 431.9 L1255.82 431.653 L1235.5 431.481 L1215.17 431.387 L1194.85 431.376 L1174.52 431.45 L1154.2 431.611 L1133.87 431.858 L1113.55 432.19 L1093.23 432.603 L1072.9 433.09 L1052.58 433.643 L1032.25 434.251 L1011.93 434.901 L991.601 435.581 L971.276 436.276 L950.951 436.973 L930.626 437.659 L910.301 438.322 L889.977 438.954 L869.652 439.544 L849.327 440.087 L829.002 440.576 L808.677 441.007 L788.352 441.375 L768.027 441.675 L747.703 441.904 L727.378 442.057 L707.053 442.13 L686.728 442.12 L666.403 442.025 L646.078 441.843 L625.753 441.575 L605.429 441.222 L585.104 440.79 L564.779 440.286 L544.454 439.718 L524.129 439.099 L503.804 438.44 L483.48 437.755 L463.155 437.058 L442.83 436.362 L422.505 435.681 L402.18 435.025 L381.855 434.403 L361.53 433.823 L341.206 433.293 L320.881 432.818 L300.556 432.402 L280.231 432.051  Z" fill="#e26f46" fill-rule="evenodd" fill-opacity="0.5"/>
<polyline clip-path="url(#clip452)" style="stroke:#e26f46; stroke-linecap:round; stroke-linejoin:round; stroke-width:8; stroke-opacity:0.8; fill:none" points="280.231,736.731 300.556,737.083 320.881,737.499 341.206,737.974 361.53,738.504 381.855,739.083 402.18,739.705 422.505,740.362 442.83,741.043 463.155,741.738 483.48,742.435 503.804,743.12 524.129,743.779 544.454,744.399 564.779,744.967 585.104,745.471 605.429,745.903 625.753,746.255 646.078,746.524 666.403,746.706 686.728,746.801 707.053,746.811 727.378,746.737 747.703,746.584 768.027,746.356 788.352,746.055 808.677,745.687 829.002,745.257 849.327,744.767 869.652,744.225 889.977,743.634 910.301,743.003 930.626,742.34 950.951,741.654 971.276,740.957 991.601,740.262 1011.93,739.582 1032.25,738.931 1052.58,738.323 1072.9,737.77 1093.23,737.283 1113.55,736.87 1133.87,736.538 1154.2,736.291 1174.52,736.131 1194.85,736.057 1215.17,736.068 1235.5,736.162 1255.82,736.334 1276.15,736.581 1296.47,736.899 1316.8,737.283 1337.12,737.729 1357.45,738.232 1377.77,738.788 1398.1,739.389 1418.42,740.03 1438.75,740.7 1459.07,741.39 1479.4,742.087 1499.72,742.78 1520.05,743.454 1540.37,744.095 1560.7,744.69 1581.02,745.227 1601.35,745.697 1621.67,746.089 1642,746.4 1662.32,746.626 1682.65,746.764 1702.97,746.816 1723.3,746.784 1743.62,746.671 1763.95,746.479 1784.27,746.214 1804.59,745.879 1824.92,745.48 1845.24,745.019 1865.57,744.502 1885.89,743.935 1906.22,743.323 1926.54,742.675 1946.87,741.999 1967.19,741.306 1987.52,740.608 2007.84,739.919 2028.17,739.252 2048.49,738.621 2068.82,738.039 2089.14,737.518 2109.47,737.067 2129.79,736.694 2150.12,736.404 2170.44,736.2 2190.77,736.083 2211.09,736.052 2231.42,736.105 2251.74,736.238 2272.07,736.448 2292.39,736.731 "/>
<path clip-path="url(#clip450)" d="M1565.06 322.316 L2281.66 322.316 L2281.66 166.796 L1565.06 166.796  Z" fill="#ffffff" fill-rule="evenodd" fill-opacity="1"/>
<polyline clip-path="url(#clip450)" style="stroke:#000000; stroke-linecap:round; stroke-linejoin:round; stroke-width:4; stroke-opacity:1; fill:none" points="1565.06,322.316 2281.66,322.316 2281.66,166.796 1565.06,166.796 1565.06,322.316 "/>
<polyline clip-path="url(#clip450)" style="stroke:#009af9; stroke-linecap:round; stroke-linejoin:round; stroke-width:8; stroke-opacity:0.8; fill:none" points="1588.76,218.636 1730.95,218.636 "/>
<path clip-path="url(#clip450)" d="M1754.65 201.356 L1761.62 201.356 L1770.44 224.874 L1779.31 201.356 L1786.27 201.356 L1786.27 235.916 L1781.71 235.916 L1781.71 205.569 L1772.8 229.272 L1768.1 229.272 L1759.19 205.569 L1759.19 235.916 L1754.65 235.916 L1754.65 201.356 Z" fill="#000000" fill-rule="nonzero" fill-opacity="1" /><path clip-path="url(#clip450)" d="M1800.23 205.198 L1800.23 218.184 L1806.11 218.184 Q1809.38 218.184 1811.16 216.495 Q1812.94 214.805 1812.94 211.68 Q1812.94 208.578 1811.16 206.888 Q1809.38 205.198 1806.11 205.198 L1800.23 205.198 M1795.56 201.356 L1806.11 201.356 Q1811.92 201.356 1814.88 203.995 Q1817.87 206.61 1817.87 211.68 Q1817.87 216.795 1814.88 219.411 Q1811.92 222.027 1806.11 222.027 L1800.23 222.027 L1800.23 235.916 L1795.56 235.916 L1795.56 201.356 Z" fill="#000000" fill-rule="nonzero" fill-opacity="1" /><path clip-path="url(#clip450)" d="M1844.86 202.49 L1844.86 207.05 Q1842.2 205.777 1839.84 205.152 Q1837.48 204.527 1835.28 204.527 Q1831.46 204.527 1829.38 206.008 Q1827.31 207.49 1827.31 210.221 Q1827.31 212.513 1828.68 213.694 Q1830.07 214.851 1833.91 215.569 L1836.74 216.147 Q1841.97 217.143 1844.44 219.666 Q1846.94 222.166 1846.94 226.379 Q1846.94 231.402 1843.56 233.994 Q1840.21 236.587 1833.7 236.587 Q1831.25 236.587 1828.47 236.031 Q1825.72 235.476 1822.75 234.388 L1822.75 229.573 Q1825.6 231.17 1828.33 231.981 Q1831.06 232.791 1833.7 232.791 Q1837.71 232.791 1839.88 231.217 Q1842.06 229.643 1842.06 226.726 Q1842.06 224.18 1840.49 222.744 Q1838.94 221.309 1835.37 220.592 L1832.52 220.036 Q1827.29 218.995 1824.95 216.772 Q1822.62 214.55 1822.62 210.592 Q1822.62 206.008 1825.83 203.37 Q1829.07 200.731 1834.75 200.731 Q1837.18 200.731 1839.7 201.171 Q1842.22 201.61 1844.86 202.49 Z" fill="#000000" fill-rule="nonzero" fill-opacity="1" /><path clip-path="url(#clip450)" d="M1873.98 205.198 L1873.98 232.073 L1879.63 232.073 Q1886.78 232.073 1890.09 228.832 Q1893.43 225.592 1893.43 218.601 Q1893.43 211.657 1890.09 208.439 Q1886.78 205.198 1879.63 205.198 L1873.98 205.198 M1869.31 201.356 L1878.91 201.356 Q1888.96 201.356 1893.66 205.546 Q1898.36 209.712 1898.36 218.601 Q1898.36 227.536 1893.63 231.726 Q1888.91 235.916 1878.91 235.916 L1869.31 235.916 L1869.31 201.356 Z" fill="#000000" fill-rule="nonzero" fill-opacity="1" /><path clip-path="url(#clip450)" d="M1905.62 209.99 L1909.88 209.99 L1909.88 235.916 L1905.62 235.916 L1905.62 209.99 M1905.62 199.897 L1909.88 199.897 L1909.88 205.291 L1905.62 205.291 L1905.62 199.897 Z" fill="#000000" fill-rule="nonzero" fill-opacity="1" /><path clip-path="url(#clip450)" d="M1935.32 210.754 L1935.32 214.782 Q1933.52 213.856 1931.57 213.393 Q1929.63 212.93 1927.55 212.93 Q1924.37 212.93 1922.78 213.902 Q1921.2 214.874 1921.2 216.819 Q1921.2 218.3 1922.34 219.157 Q1923.47 219.99 1926.9 220.754 L1928.36 221.078 Q1932.89 222.05 1934.79 223.832 Q1936.71 225.592 1936.71 228.763 Q1936.71 232.374 1933.84 234.481 Q1930.99 236.587 1925.99 236.587 Q1923.91 236.587 1921.64 236.17 Q1919.4 235.777 1916.9 234.967 L1916.9 230.569 Q1919.26 231.795 1921.55 232.42 Q1923.84 233.022 1926.09 233.022 Q1929.1 233.022 1930.72 232.004 Q1932.34 230.962 1932.34 229.087 Q1932.34 227.351 1931.16 226.425 Q1930 225.499 1926.04 224.643 L1924.56 224.295 Q1920.6 223.462 1918.84 221.749 Q1917.08 220.013 1917.08 217.004 Q1917.08 213.346 1919.68 211.356 Q1922.27 209.365 1927.04 209.365 Q1929.4 209.365 1931.48 209.712 Q1933.56 210.059 1935.32 210.754 Z" fill="#000000" fill-rule="nonzero" fill-opacity="1" /><path clip-path="url(#clip450)" d="M1947.71 202.629 L1947.71 209.99 L1956.48 209.99 L1956.48 213.3 L1947.71 213.3 L1947.71 227.374 Q1947.71 230.545 1948.56 231.448 Q1949.44 232.351 1952.11 232.351 L1956.48 232.351 L1956.48 235.916 L1952.11 235.916 Q1947.18 235.916 1945.3 234.087 Q1943.43 232.235 1943.43 227.374 L1943.43 213.3 L1940.3 213.3 L1940.3 209.99 L1943.43 209.99 L1943.43 202.629 L1947.71 202.629 Z" fill="#000000" fill-rule="nonzero" fill-opacity="1" /><path clip-path="url(#clip450)" d="M1977.11 213.971 Q1976.39 213.555 1975.53 213.37 Q1974.7 213.161 1973.68 213.161 Q1970.07 213.161 1968.12 215.522 Q1966.2 217.86 1966.2 222.258 L1966.2 235.916 L1961.92 235.916 L1961.92 209.99 L1966.2 209.99 L1966.2 214.018 Q1967.55 211.657 1969.7 210.522 Q1971.85 209.365 1974.93 209.365 Q1975.37 209.365 1975.9 209.434 Q1976.43 209.481 1977.08 209.596 L1977.11 213.971 Z" fill="#000000" fill-rule="nonzero" fill-opacity="1" /><path clip-path="url(#clip450)" d="M1981.57 209.99 L1985.83 209.99 L1985.83 235.916 L1981.57 235.916 L1981.57 209.99 M1981.57 199.897 L1985.83 199.897 L1985.83 205.291 L1981.57 205.291 L1981.57 199.897 Z" fill="#000000" fill-rule="nonzero" fill-opacity="1" /><path clip-path="url(#clip450)" d="M2013.36 222.976 Q2013.36 218.277 2011.41 215.615 Q2009.49 212.93 2006.11 212.93 Q2002.73 212.93 2000.79 215.615 Q1998.86 218.277 1998.86 222.976 Q1998.86 227.675 2000.79 230.36 Q2002.73 233.022 2006.11 233.022 Q2009.49 233.022 2011.41 230.36 Q2013.36 227.675 2013.36 222.976 M1998.86 213.925 Q2000.21 211.61 2002.24 210.499 Q2004.3 209.365 2007.15 209.365 Q2011.87 209.365 2014.81 213.115 Q2017.78 216.865 2017.78 222.976 Q2017.78 229.087 2014.81 232.837 Q2011.87 236.587 2007.15 236.587 Q2004.3 236.587 2002.24 235.476 Q2000.21 234.342 1998.86 232.027 L1998.86 235.916 L1994.58 235.916 L1994.58 199.897 L1998.86 199.897 L1998.86 213.925 Z" fill="#000000" fill-rule="nonzero" fill-opacity="1" /><path clip-path="url(#clip450)" d="M2024.4 225.684 L2024.4 209.99 L2028.66 209.99 L2028.66 225.522 Q2028.66 229.203 2030.09 231.055 Q2031.53 232.883 2034.4 232.883 Q2037.85 232.883 2039.84 230.684 Q2041.85 228.485 2041.85 224.689 L2041.85 209.99 L2046.11 209.99 L2046.11 235.916 L2041.85 235.916 L2041.85 231.934 Q2040.3 234.295 2038.24 235.453 Q2036.2 236.587 2033.49 236.587 Q2029.03 236.587 2026.71 233.809 Q2024.4 231.031 2024.4 225.684 M2035.11 209.365 L2035.11 209.365 Z" fill="#000000" fill-rule="nonzero" fill-opacity="1" /><path clip-path="url(#clip450)" d="M2059.1 202.629 L2059.1 209.99 L2067.87 209.99 L2067.87 213.3 L2059.1 213.3 L2059.1 227.374 Q2059.1 230.545 2059.95 231.448 Q2060.83 232.351 2063.49 232.351 L2067.87 232.351 L2067.87 235.916 L2063.49 235.916 Q2058.56 235.916 2056.69 234.087 Q2054.81 232.235 2054.81 227.374 L2054.81 213.3 L2051.69 213.3 L2051.69 209.99 L2054.81 209.99 L2054.81 202.629 L2059.1 202.629 Z" fill="#000000" fill-rule="nonzero" fill-opacity="1" /><path clip-path="url(#clip450)" d="M2073.47 209.99 L2077.73 209.99 L2077.73 235.916 L2073.47 235.916 L2073.47 209.99 M2073.47 199.897 L2077.73 199.897 L2077.73 205.291 L2073.47 205.291 L2073.47 199.897 Z" fill="#000000" fill-rule="nonzero" fill-opacity="1" /><path clip-path="url(#clip450)" d="M2096.69 212.976 Q2093.26 212.976 2091.27 215.661 Q2089.28 218.323 2089.28 222.976 Q2089.28 227.629 2091.25 230.314 Q2093.24 232.976 2096.69 232.976 Q2100.09 232.976 2102.08 230.291 Q2104.07 227.606 2104.07 222.976 Q2104.07 218.37 2102.08 215.684 Q2100.09 212.976 2096.69 212.976 M2096.69 209.365 Q2102.24 209.365 2105.42 212.976 Q2108.59 216.587 2108.59 222.976 Q2108.59 229.342 2105.42 232.976 Q2102.24 236.587 2096.69 236.587 Q2091.11 236.587 2087.94 232.976 Q2084.79 229.342 2084.79 222.976 Q2084.79 216.587 2087.94 212.976 Q2091.11 209.365 2096.69 209.365 Z" fill="#000000" fill-rule="nonzero" fill-opacity="1" /><path clip-path="url(#clip450)" d="M2137.2 220.268 L2137.2 235.916 L2132.94 235.916 L2132.94 220.407 Q2132.94 216.726 2131.5 214.897 Q2130.07 213.069 2127.2 213.069 Q2123.75 213.069 2121.76 215.268 Q2119.77 217.467 2119.77 221.263 L2119.77 235.916 L2115.48 235.916 L2115.48 209.99 L2119.77 209.99 L2119.77 214.018 Q2121.29 211.68 2123.36 210.522 Q2125.44 209.365 2128.15 209.365 Q2132.61 209.365 2134.91 212.143 Q2137.2 214.897 2137.2 220.268 Z" fill="#000000" fill-rule="nonzero" fill-opacity="1" /><polyline clip-path="url(#clip450)" style="stroke:#e26f46; stroke-linecap:round; stroke-linejoin:round; stroke-width:8; stroke-opacity:0.8; fill:none" points="1588.76,270.476 1730.95,270.476 "/>
<path clip-path="url(#clip450)" d="M1754.65 253.196 L1776.51 253.196 L1776.51 257.131 L1759.33 257.131 L1759.33 267.362 L1775.79 267.362 L1775.79 271.297 L1759.33 271.297 L1759.33 283.821 L1776.92 283.821 L1776.92 287.756 L1754.65 287.756 L1754.65 253.196 Z" fill="#000000" fill-rule="nonzero" fill-opacity="1" /><path clip-path="url(#clip450)" d="M1804.61 266.807 Q1806.2 263.936 1808.43 262.571 Q1810.65 261.205 1813.66 261.205 Q1817.71 261.205 1819.91 264.052 Q1822.11 266.876 1822.11 272.108 L1822.11 287.756 L1817.82 287.756 L1817.82 272.247 Q1817.82 268.52 1816.5 266.714 Q1815.19 264.909 1812.48 264.909 Q1809.17 264.909 1807.25 267.108 Q1805.32 269.307 1805.32 273.103 L1805.32 287.756 L1801.04 287.756 L1801.04 272.247 Q1801.04 268.497 1799.72 266.714 Q1798.4 264.909 1795.65 264.909 Q1792.38 264.909 1790.46 267.131 Q1788.54 269.33 1788.54 273.103 L1788.54 287.756 L1784.26 287.756 L1784.26 261.83 L1788.54 261.83 L1788.54 265.858 Q1790 263.473 1792.04 262.339 Q1794.07 261.205 1796.88 261.205 Q1799.7 261.205 1801.67 262.64 Q1803.66 264.075 1804.61 266.807 Z" fill="#000000" fill-rule="nonzero" fill-opacity="1" /><path clip-path="url(#clip450)" d="M1834.72 283.867 L1834.72 297.617 L1830.44 297.617 L1830.44 261.83 L1834.72 261.83 L1834.72 265.765 Q1836.06 263.45 1838.1 262.339 Q1840.16 261.205 1843.01 261.205 Q1847.73 261.205 1850.67 264.955 Q1853.63 268.705 1853.63 274.816 Q1853.63 280.927 1850.67 284.677 Q1847.73 288.427 1843.01 288.427 Q1840.16 288.427 1838.1 287.316 Q1836.06 286.182 1834.72 283.867 M1849.21 274.816 Q1849.21 270.117 1847.27 267.455 Q1845.35 264.77 1841.97 264.77 Q1838.59 264.77 1836.64 267.455 Q1834.72 270.117 1834.72 274.816 Q1834.72 279.515 1836.64 282.2 Q1838.59 284.862 1841.97 284.862 Q1845.35 284.862 1847.27 282.2 Q1849.21 279.515 1849.21 274.816 Z" fill="#000000" fill-rule="nonzero" fill-opacity="1" /><path clip-path="url(#clip450)" d="M1860.69 261.83 L1864.95 261.83 L1864.95 287.756 L1860.69 287.756 L1860.69 261.83 M1860.69 251.737 L1864.95 251.737 L1864.95 257.131 L1860.69 257.131 L1860.69 251.737 Z" fill="#000000" fill-rule="nonzero" fill-opacity="1" /><path clip-path="url(#clip450)" d="M1888.89 265.811 Q1888.17 265.395 1887.31 265.21 Q1886.48 265.001 1885.46 265.001 Q1881.85 265.001 1879.91 267.362 Q1877.99 269.7 1877.99 274.098 L1877.99 287.756 L1873.7 287.756 L1873.7 261.83 L1877.99 261.83 L1877.99 265.858 Q1879.33 263.497 1881.48 262.362 Q1883.63 261.205 1886.71 261.205 Q1887.15 261.205 1887.69 261.274 Q1888.22 261.321 1888.87 261.436 L1888.89 265.811 Z" fill="#000000" fill-rule="nonzero" fill-opacity="1" /><path clip-path="url(#clip450)" d="M1893.36 261.83 L1897.62 261.83 L1897.62 287.756 L1893.36 287.756 L1893.36 261.83 M1893.36 251.737 L1897.62 251.737 L1897.62 257.131 L1893.36 257.131 L1893.36 251.737 Z" fill="#000000" fill-rule="nonzero" fill-opacity="1" /><path clip-path="url(#clip450)" d="M1925.18 262.825 L1925.18 266.807 Q1923.38 265.811 1921.55 265.325 Q1919.75 264.816 1917.89 264.816 Q1913.75 264.816 1911.46 267.455 Q1909.17 270.071 1909.17 274.816 Q1909.17 279.561 1911.46 282.2 Q1913.75 284.816 1917.89 284.816 Q1919.75 284.816 1921.55 284.33 Q1923.38 283.821 1925.18 282.825 L1925.18 286.76 Q1923.4 287.594 1921.48 288.01 Q1919.58 288.427 1917.43 288.427 Q1911.57 288.427 1908.12 284.746 Q1904.68 281.066 1904.68 274.816 Q1904.68 268.473 1908.15 264.839 Q1911.64 261.205 1917.71 261.205 Q1919.68 261.205 1921.55 261.622 Q1923.43 262.015 1925.18 262.825 Z" fill="#000000" fill-rule="nonzero" fill-opacity="1" /><path clip-path="url(#clip450)" d="M1944.37 274.723 Q1939.21 274.723 1937.22 275.904 Q1935.23 277.084 1935.23 279.932 Q1935.23 282.2 1936.71 283.543 Q1938.22 284.862 1940.79 284.862 Q1944.33 284.862 1946.46 282.362 Q1948.61 279.839 1948.61 275.672 L1948.61 274.723 L1944.37 274.723 M1952.87 272.964 L1952.87 287.756 L1948.61 287.756 L1948.61 283.821 Q1947.15 286.182 1944.98 287.316 Q1942.8 288.427 1939.65 288.427 Q1935.67 288.427 1933.31 286.205 Q1930.97 283.959 1930.97 280.209 Q1930.97 275.834 1933.89 273.612 Q1936.83 271.39 1942.64 271.39 L1948.61 271.39 L1948.61 270.973 Q1948.61 268.034 1946.67 266.436 Q1944.74 264.816 1941.25 264.816 Q1939.03 264.816 1936.92 265.348 Q1934.81 265.881 1932.87 266.946 L1932.87 263.01 Q1935.21 262.108 1937.41 261.668 Q1939.61 261.205 1941.69 261.205 Q1947.31 261.205 1950.09 264.122 Q1952.87 267.038 1952.87 272.964 Z" fill="#000000" fill-rule="nonzero" fill-opacity="1" /><path clip-path="url(#clip450)" d="M1961.64 251.737 L1965.9 251.737 L1965.9 287.756 L1961.64 287.756 L1961.64 251.737 Z" fill="#000000" fill-rule="nonzero" fill-opacity="1" /><path clip-path="url(#clip450)" d="M1994.74 257.038 L1994.74 283.913 L2000.39 283.913 Q2007.55 283.913 2010.86 280.672 Q2014.19 277.432 2014.19 270.441 Q2014.19 263.497 2010.86 260.279 Q2007.55 257.038 2000.39 257.038 L1994.74 257.038 M1990.07 253.196 L1999.68 253.196 Q2009.72 253.196 2014.42 257.386 Q2019.12 261.552 2019.12 270.441 Q2019.12 279.376 2014.4 283.566 Q2009.68 287.756 1999.68 287.756 L1990.07 287.756 L1990.07 253.196 Z" fill="#000000" fill-rule="nonzero" fill-opacity="1" /><path clip-path="url(#clip450)" d="M2026.39 261.83 L2030.65 261.83 L2030.65 287.756 L2026.39 287.756 L2026.39 261.83 M2026.39 251.737 L2030.65 251.737 L2030.65 257.131 L2026.39 257.131 L2026.39 251.737 Z" fill="#000000" fill-rule="nonzero" fill-opacity="1" /><path clip-path="url(#clip450)" d="M2056.09 262.594 L2056.09 266.622 Q2054.28 265.696 2052.34 265.233 Q2050.39 264.77 2048.31 264.77 Q2045.14 264.77 2043.54 265.742 Q2041.97 266.714 2041.97 268.659 Q2041.97 270.14 2043.1 270.997 Q2044.24 271.83 2047.66 272.594 L2049.12 272.918 Q2053.66 273.89 2055.55 275.672 Q2057.48 277.432 2057.48 280.603 Q2057.48 284.214 2054.61 286.321 Q2051.76 288.427 2046.76 288.427 Q2044.67 288.427 2042.41 288.01 Q2040.16 287.617 2037.66 286.807 L2037.66 282.409 Q2040.02 283.635 2042.31 284.26 Q2044.61 284.862 2046.85 284.862 Q2049.86 284.862 2051.48 283.844 Q2053.1 282.802 2053.1 280.927 Q2053.1 279.191 2051.92 278.265 Q2050.76 277.339 2046.8 276.483 L2045.32 276.135 Q2041.36 275.302 2039.61 273.589 Q2037.85 271.853 2037.85 268.844 Q2037.85 265.186 2040.44 263.196 Q2043.03 261.205 2047.8 261.205 Q2050.16 261.205 2052.24 261.552 Q2054.33 261.899 2056.09 262.594 Z" fill="#000000" fill-rule="nonzero" fill-opacity="1" /><path clip-path="url(#clip450)" d="M2068.47 254.469 L2068.47 261.83 L2077.24 261.83 L2077.24 265.14 L2068.47 265.14 L2068.47 279.214 Q2068.47 282.385 2069.33 283.288 Q2070.21 284.191 2072.87 284.191 L2077.24 284.191 L2077.24 287.756 L2072.87 287.756 Q2067.94 287.756 2066.06 285.927 Q2064.19 284.075 2064.19 279.214 L2064.19 265.14 L2061.06 265.14 L2061.06 261.83 L2064.19 261.83 L2064.19 254.469 L2068.47 254.469 Z" fill="#000000" fill-rule="nonzero" fill-opacity="1" /><path clip-path="url(#clip450)" d="M2097.87 265.811 Q2097.15 265.395 2096.3 265.21 Q2095.46 265.001 2094.44 265.001 Q2090.83 265.001 2088.89 267.362 Q2086.97 269.7 2086.97 274.098 L2086.97 287.756 L2082.68 287.756 L2082.68 261.83 L2086.97 261.83 L2086.97 265.858 Q2088.31 263.497 2090.46 262.362 Q2092.61 261.205 2095.69 261.205 Q2096.13 261.205 2096.67 261.274 Q2097.2 261.321 2097.85 261.436 L2097.87 265.811 Z" fill="#000000" fill-rule="nonzero" fill-opacity="1" /><path clip-path="url(#clip450)" d="M2102.34 261.83 L2106.6 261.83 L2106.6 287.756 L2102.34 287.756 L2102.34 261.83 M2102.34 251.737 L2106.6 251.737 L2106.6 257.131 L2102.34 257.131 L2102.34 251.737 Z" fill="#000000" fill-rule="nonzero" fill-opacity="1" /><path clip-path="url(#clip450)" d="M2134.12 274.816 Q2134.12 270.117 2132.17 267.455 Q2130.25 264.77 2126.87 264.77 Q2123.49 264.77 2121.55 267.455 Q2119.63 270.117 2119.63 274.816 Q2119.63 279.515 2121.55 282.2 Q2123.49 284.862 2126.87 284.862 Q2130.25 284.862 2132.17 282.2 Q2134.12 279.515 2134.12 274.816 M2119.63 265.765 Q2120.97 263.45 2123.01 262.339 Q2125.07 261.205 2127.92 261.205 Q2132.64 261.205 2135.58 264.955 Q2138.54 268.705 2138.54 274.816 Q2138.54 280.927 2135.58 284.677 Q2132.64 288.427 2127.92 288.427 Q2125.07 288.427 2123.01 287.316 Q2120.97 286.182 2119.63 283.867 L2119.63 287.756 L2115.35 287.756 L2115.35 251.737 L2119.63 251.737 L2119.63 265.765 Z" fill="#000000" fill-rule="nonzero" fill-opacity="1" /><path clip-path="url(#clip450)" d="M2145.16 277.524 L2145.16 261.83 L2149.42 261.83 L2149.42 277.362 Q2149.42 281.043 2150.85 282.895 Q2152.29 284.723 2155.16 284.723 Q2158.61 284.723 2160.6 282.524 Q2162.61 280.325 2162.61 276.529 L2162.61 261.83 L2166.87 261.83 L2166.87 287.756 L2162.61 287.756 L2162.61 283.774 Q2161.06 286.135 2159 287.293 Q2156.97 288.427 2154.26 288.427 Q2149.79 288.427 2147.48 285.649 Q2145.16 282.871 2145.16 277.524 M2155.88 261.205 L2155.88 261.205 Z" fill="#000000" fill-rule="nonzero" fill-opacity="1" /><path clip-path="url(#clip450)" d="M2179.86 254.469 L2179.86 261.83 L2188.63 261.83 L2188.63 265.14 L2179.86 265.14 L2179.86 279.214 Q2179.86 282.385 2180.72 283.288 Q2181.6 284.191 2184.26 284.191 L2188.63 284.191 L2188.63 287.756 L2184.26 287.756 Q2179.33 287.756 2177.45 285.927 Q2175.58 284.075 2175.58 279.214 L2175.58 265.14 L2172.45 265.14 L2172.45 261.83 L2175.58 261.83 L2175.58 254.469 L2179.86 254.469 Z" fill="#000000" fill-rule="nonzero" fill-opacity="1" /><path clip-path="url(#clip450)" d="M2194.23 261.83 L2198.49 261.83 L2198.49 287.756 L2194.23 287.756 L2194.23 261.83 M2194.23 251.737 L2198.49 251.737 L2198.49 257.131 L2194.23 257.131 L2194.23 251.737 Z" fill="#000000" fill-rule="nonzero" fill-opacity="1" /><path clip-path="url(#clip450)" d="M2217.45 264.816 Q2214.03 264.816 2212.04 267.501 Q2210.04 270.163 2210.04 274.816 Q2210.04 279.469 2212.01 282.154 Q2214 284.816 2217.45 284.816 Q2220.85 284.816 2222.85 282.131 Q2224.84 279.446 2224.84 274.816 Q2224.84 270.21 2222.85 267.524 Q2220.85 264.816 2217.45 264.816 M2217.45 261.205 Q2223.01 261.205 2226.18 264.816 Q2229.35 268.427 2229.35 274.816 Q2229.35 281.182 2226.18 284.816 Q2223.01 288.427 2217.45 288.427 Q2211.87 288.427 2208.7 284.816 Q2205.55 281.182 2205.55 274.816 Q2205.55 268.427 2208.7 264.816 Q2211.87 261.205 2217.45 261.205 Z" fill="#000000" fill-rule="nonzero" fill-opacity="1" /><path clip-path="url(#clip450)" d="M2257.96 272.108 L2257.96 287.756 L2253.7 287.756 L2253.7 272.247 Q2253.7 268.566 2252.27 266.737 Q2250.83 264.909 2247.96 264.909 Q2244.51 264.909 2242.52 267.108 Q2240.53 269.307 2240.53 273.103 L2240.53 287.756 L2236.25 287.756 L2236.25 261.83 L2240.53 261.83 L2240.53 265.858 Q2242.06 263.52 2244.12 262.362 Q2246.2 261.205 2248.91 261.205 Q2253.38 261.205 2255.67 263.983 Q2257.96 266.737 2257.96 272.108 Z" fill="#000000" fill-rule="nonzero" fill-opacity="1" /></svg>
