<?xml version="1.0" encoding="utf-8"?>
<svg xmlns="http://www.w3.org/2000/svg" xmlns:xlink="http://www.w3.org/1999/xlink" width="600" height="400" viewBox="0 0 2400 1600">
<defs>
  <clipPath id="clip870">
    <rect x="0" y="0" width="2400" height="1600"/>
  </clipPath>
</defs>
<path clip-path="url(#clip870)" d="M0 1600 L2400 1600 L2400 8.88178e-14 L0 8.88178e-14  Z" fill="#ffffff" fill-rule="evenodd" fill-opacity="1"/>
<defs>
  <clipPath id="clip871">
    <rect x="480" y="0" width="1681" height="1600"/>
  </clipPath>
</defs>
<path clip-path="url(#clip870)" d="M219.866 1423.18 L2352.76 1423.18 L2352.76 123.472 L219.866 123.472  Z" fill="#ffffff" fill-rule="evenodd" fill-opacity="1"/>
<defs>
  <clipPath id="clip872">
    <rect x="219" y="123" width="2134" height="1301"/>
  </clipPath>
</defs>
<polyline clip-path="url(#clip872)" style="stroke:#000000; stroke-linecap:round; stroke-linejoin:round; stroke-width:2; stroke-opacity:0.1; fill:none" points="259.906,1423.18 259.906,123.472 "/>
<polyline clip-path="url(#clip872)" style="stroke:#000000; stroke-linecap:round; stroke-linejoin:round; stroke-width:2; stroke-opacity:0.1; fill:none" points="768.027,1423.18 768.027,123.472 "/>
<polyline clip-path="url(#clip872)" style="stroke:#000000; stroke-linecap:round; stroke-linejoin:round; stroke-width:2; stroke-opacity:0.1; fill:none" points="1276.15,1423.18 1276.15,123.472 "/>
<polyline clip-path="url(#clip872)" style="stroke:#000000; stroke-linecap:round; stroke-linejoin:round; stroke-width:2; stroke-opacity:0.1; fill:none" points="1784.27,1423.18 1784.27,123.472 "/>
<polyline clip-path="url(#clip872)" style="stroke:#000000; stroke-linecap:round; stroke-linejoin:round; stroke-width:2; stroke-opacity:0.1; fill:none" points="2292.39,1423.18 2292.39,123.472 "/>
<polyline clip-path="url(#clip870)" style="stroke:#000000; stroke-linecap:round; stroke-linejoin:round; stroke-width:4; stroke-opacity:1; fill:none" points="219.866,1423.18 2352.76,1423.18 "/>
<polyline clip-path="url(#clip870)" style="stroke:#000000; stroke-linecap:round; stroke-linejoin:round; stroke-width:4; stroke-opacity:1; fill:none" points="259.906,1423.18 259.906,1404.28 "/>
<polyline clip-path="url(#clip870)" style="stroke:#000000; stroke-linecap:round; stroke-linejoin:round; stroke-width:4; stroke-opacity:1; fill:none" points="768.027,1423.18 768.027,1404.28 "/>
<polyline clip-path="url(#clip870)" style="stroke:#000000; stroke-linecap:round; stroke-linejoin:round; stroke-width:4; stroke-opacity:1; fill:none" points="1276.15,1423.18 1276.15,1404.28 "/>
<polyline clip-path="url(#clip870)" style="stroke:#000000; stroke-linecap:round; stroke-linejoin:round; stroke-width:4; stroke-opacity:1; fill:none" points="1784.27,1423.18 1784.27,1404.28 "/>
<polyline clip-path="url(#clip870)" style="stroke:#000000; stroke-linecap:round; stroke-linejoin:round; stroke-width:4; stroke-opacity:1; fill:none" points="2292.39,1423.18 2292.39,1404.28 "/>
<path clip-path="url(#clip870)" d="M259.906 1454.1 Q256.295 1454.1 254.466 1457.66 Q252.661 1461.2 252.661 1468.33 Q252.661 1475.44 254.466 1479.01 Q256.295 1482.55 259.906 1482.55 Q263.54 1482.55 265.346 1479.01 Q267.175 1475.44 267.175 1468.33 Q267.175 1461.2 265.346 1457.66 Q263.54 1454.1 259.906 1454.1 M259.906 1450.39 Q265.716 1450.39 268.772 1455 Q271.851 1459.58 271.851 1468.33 Q271.851 1477.06 268.772 1481.67 Q265.716 1486.25 259.906 1486.25 Q254.096 1486.25 251.017 1481.67 Q247.962 1477.06 247.962 1468.33 Q247.962 1459.58 251.017 1455 Q254.096 1450.39 259.906 1450.39 Z" fill="#000000" fill-rule="nonzero" fill-opacity="1" /><path clip-path="url(#clip870)" d="M747.298 1481.64 L763.618 1481.64 L763.618 1485.58 L741.673 1485.58 L741.673 1481.64 Q744.335 1478.89 748.919 1474.26 Q753.525 1469.61 754.706 1468.27 Q756.951 1465.74 757.831 1464.01 Q758.734 1462.25 758.734 1460.56 Q758.734 1457.8 756.789 1456.07 Q754.868 1454.33 751.766 1454.33 Q749.567 1454.33 747.113 1455.09 Q744.683 1455.86 741.905 1457.41 L741.905 1452.69 Q744.729 1451.55 747.183 1450.97 Q749.636 1450.39 751.673 1450.39 Q757.044 1450.39 760.238 1453.08 Q763.433 1455.77 763.433 1460.26 Q763.433 1462.39 762.622 1464.31 Q761.835 1466.2 759.729 1468.8 Q759.15 1469.47 756.048 1472.69 Q752.947 1475.88 747.298 1481.64 Z" fill="#000000" fill-rule="nonzero" fill-opacity="1" /><path clip-path="url(#clip870)" d="M773.479 1451.02 L791.835 1451.02 L791.835 1454.96 L777.761 1454.96 L777.761 1463.43 Q778.78 1463.08 779.798 1462.92 Q780.817 1462.73 781.835 1462.73 Q787.622 1462.73 791.002 1465.9 Q794.381 1469.08 794.381 1474.49 Q794.381 1480.07 790.909 1483.17 Q787.437 1486.25 781.118 1486.25 Q778.942 1486.25 776.673 1485.88 Q774.428 1485.51 772.02 1484.77 L772.02 1480.07 Q774.104 1481.2 776.326 1481.76 Q778.548 1482.32 781.025 1482.32 Q785.03 1482.32 787.368 1480.21 Q789.706 1478.1 789.706 1474.49 Q789.706 1470.88 787.368 1468.77 Q785.03 1466.67 781.025 1466.67 Q779.15 1466.67 777.275 1467.08 Q775.423 1467.5 773.479 1468.38 L773.479 1451.02 Z" fill="#000000" fill-rule="nonzero" fill-opacity="1" /><path clip-path="url(#clip870)" d="M1250.85 1451.02 L1269.2 1451.02 L1269.2 1454.96 L1255.13 1454.96 L1255.13 1463.43 Q1256.15 1463.08 1257.17 1462.92 Q1258.19 1462.73 1259.2 1462.73 Q1264.99 1462.73 1268.37 1465.9 Q1271.75 1469.08 1271.75 1474.49 Q1271.75 1480.07 1268.28 1483.17 Q1264.81 1486.25 1258.49 1486.25 Q1256.31 1486.25 1254.04 1485.88 Q1251.8 1485.51 1249.39 1484.77 L1249.39 1480.07 Q1251.47 1481.2 1253.7 1481.76 Q1255.92 1482.32 1258.39 1482.32 Q1262.4 1482.32 1264.74 1480.21 Q1267.07 1478.1 1267.07 1474.49 Q1267.07 1470.88 1264.74 1468.77 Q1262.4 1466.67 1258.39 1466.67 Q1256.52 1466.67 1254.64 1467.08 Q1252.79 1467.5 1250.85 1468.38 L1250.85 1451.02 Z" fill="#000000" fill-rule="nonzero" fill-opacity="1" /><path clip-path="url(#clip870)" d="M1290.96 1454.1 Q1287.35 1454.1 1285.52 1457.66 Q1283.72 1461.2 1283.72 1468.33 Q1283.72 1475.44 1285.52 1479.01 Q1287.35 1482.55 1290.96 1482.55 Q1294.6 1482.55 1296.4 1479.01 Q1298.23 1475.44 1298.23 1468.33 Q1298.23 1461.2 1296.4 1457.66 Q1294.6 1454.1 1290.96 1454.1 M1290.96 1450.39 Q1296.77 1450.39 1299.83 1455 Q1302.91 1459.58 1302.91 1468.33 Q1302.91 1477.06 1299.83 1481.67 Q1296.77 1486.25 1290.96 1486.25 Q1285.15 1486.25 1282.07 1481.67 Q1279.02 1477.06 1279.02 1468.33 Q1279.02 1459.58 1282.07 1455 Q1285.15 1450.39 1290.96 1450.39 Z" fill="#000000" fill-rule="nonzero" fill-opacity="1" /><path clip-path="url(#clip870)" d="M1758.12 1451.02 L1780.35 1451.02 L1780.35 1453.01 L1767.8 1485.58 L1762.92 1485.58 L1774.72 1454.96 L1758.12 1454.96 L1758.12 1451.02 Z" fill="#000000" fill-rule="nonzero" fill-opacity="1" /><path clip-path="url(#clip870)" d="M1789.51 1451.02 L1807.87 1451.02 L1807.87 1454.96 L1793.8 1454.96 L1793.8 1463.43 Q1794.81 1463.08 1795.83 1462.92 Q1796.85 1462.73 1797.87 1462.73 Q1803.66 1462.73 1807.04 1465.9 Q1810.42 1469.08 1810.42 1474.49 Q1810.42 1480.07 1806.94 1483.17 Q1803.47 1486.25 1797.15 1486.25 Q1794.98 1486.25 1792.71 1485.88 Q1790.46 1485.51 1788.05 1484.77 L1788.05 1480.07 Q1790.14 1481.2 1792.36 1481.76 Q1794.58 1482.32 1797.06 1482.32 Q1801.06 1482.32 1803.4 1480.21 Q1805.74 1478.1 1805.74 1474.49 Q1805.74 1470.88 1803.4 1468.77 Q1801.06 1466.67 1797.06 1466.67 Q1795.18 1466.67 1793.31 1467.08 Q1791.46 1467.5 1789.51 1468.38 L1789.51 1451.02 Z" fill="#000000" fill-rule="nonzero" fill-opacity="1" /><path clip-path="url(#clip870)" d="M2252 1481.64 L2259.64 1481.64 L2259.64 1455.28 L2251.33 1456.95 L2251.33 1452.69 L2259.59 1451.02 L2264.27 1451.02 L2264.27 1481.64 L2271.91 1481.64 L2271.91 1485.58 L2252 1485.58 L2252 1481.64 Z" fill="#000000" fill-rule="nonzero" fill-opacity="1" /><path clip-path="url(#clip870)" d="M2291.35 1454.1 Q2287.74 1454.1 2285.91 1457.66 Q2284.1 1461.2 2284.1 1468.33 Q2284.1 1475.44 2285.91 1479.01 Q2287.74 1482.55 2291.35 1482.55 Q2294.98 1482.55 2296.79 1479.01 Q2298.62 1475.44 2298.62 1468.33 Q2298.62 1461.2 2296.79 1457.66 Q2294.98 1454.1 2291.35 1454.1 M2291.35 1450.39 Q2297.16 1450.39 2300.22 1455 Q2303.29 1459.58 2303.29 1468.33 Q2303.29 1477.06 2300.22 1481.67 Q2297.16 1486.25 2291.35 1486.25 Q2285.54 1486.25 2282.46 1481.67 Q2279.41 1477.06 2279.41 1468.33 Q2279.41 1459.58 2282.46 1455 Q2285.54 1450.39 2291.35 1450.39 Z" fill="#000000" fill-rule="nonzero" fill-opacity="1" /><path clip-path="url(#clip870)" d="M2321.51 1454.1 Q2317.9 1454.1 2316.07 1457.66 Q2314.27 1461.2 2314.27 1468.33 Q2314.27 1475.44 2316.07 1479.01 Q2317.9 1482.55 2321.51 1482.55 Q2325.15 1482.55 2326.95 1479.01 Q2328.78 1475.44 2328.78 1468.33 Q2328.78 1461.2 2326.95 1457.66 Q2325.15 1454.1 2321.51 1454.1 M2321.51 1450.39 Q2327.32 1450.39 2330.38 1455 Q2333.46 1459.58 2333.46 1468.33 Q2333.46 1477.06 2330.38 1481.67 Q2327.32 1486.25 2321.51 1486.25 Q2315.7 1486.25 2312.62 1481.67 Q2309.57 1477.06 2309.57 1468.33 Q2309.57 1459.58 2312.62 1455 Q2315.7 1450.39 2321.51 1450.39 Z" fill="#000000" fill-rule="nonzero" fill-opacity="1" /><path clip-path="url(#clip870)" d="M1225.47 1522.27 L1225.47 1532.4 L1237.53 1532.4 L1237.53 1536.95 L1225.47 1536.95 L1225.47 1556.3 Q1225.47 1560.66 1226.65 1561.9 Q1227.86 1563.14 1231.52 1563.14 L1237.53 1563.14 L1237.53 1568.04 L1231.52 1568.04 Q1224.74 1568.04 1222.16 1565.53 Q1219.58 1562.98 1219.58 1556.3 L1219.58 1536.95 L1215.29 1536.95 L1215.29 1532.4 L1219.58 1532.4 L1219.58 1522.27 L1225.47 1522.27 Z" fill="#000000" fill-rule="nonzero" fill-opacity="1" /><path clip-path="url(#clip870)" d="M1245.24 1532.4 L1251.09 1532.4 L1251.09 1568.04 L1245.24 1568.04 L1245.24 1532.4 M1245.24 1518.52 L1251.09 1518.52 L1251.09 1525.93 L1245.24 1525.93 L1245.24 1518.52 Z" fill="#000000" fill-rule="nonzero" fill-opacity="1" /><path clip-path="url(#clip870)" d="M1291.1 1539.24 Q1293.3 1535.29 1296.35 1533.41 Q1299.41 1531.54 1303.55 1531.54 Q1309.12 1531.54 1312.14 1535.45 Q1315.16 1539.33 1315.16 1546.53 L1315.16 1568.04 L1309.28 1568.04 L1309.28 1546.72 Q1309.28 1541.59 1307.46 1539.11 Q1305.65 1536.63 1301.92 1536.63 Q1297.37 1536.63 1294.73 1539.65 Q1292.09 1542.68 1292.09 1547.9 L1292.09 1568.04 L1286.2 1568.04 L1286.2 1546.72 Q1286.2 1541.56 1284.39 1539.11 Q1282.57 1536.63 1278.78 1536.63 Q1274.3 1536.63 1271.65 1539.68 Q1269.01 1542.71 1269.01 1547.9 L1269.01 1568.04 L1263.12 1568.04 L1263.12 1532.4 L1269.01 1532.4 L1269.01 1537.93 Q1271.02 1534.66 1273.82 1533.1 Q1276.62 1531.54 1280.47 1531.54 Q1284.35 1531.54 1287.06 1533.51 Q1289.8 1535.48 1291.1 1539.24 Z" fill="#000000" fill-rule="nonzero" fill-opacity="1" /><path clip-path="url(#clip870)" d="M1357.34 1548.76 L1357.34 1551.62 L1330.41 1551.62 Q1330.79 1557.67 1334.04 1560.85 Q1337.32 1564 1343.14 1564 Q1346.51 1564 1349.67 1563.17 Q1352.85 1562.35 1355.97 1560.69 L1355.97 1566.23 Q1352.82 1567.57 1349.51 1568.27 Q1346.2 1568.97 1342.79 1568.97 Q1334.26 1568.97 1329.26 1564 Q1324.3 1559.04 1324.3 1550.57 Q1324.3 1541.82 1329.01 1536.69 Q1333.75 1531.54 1341.77 1531.54 Q1348.97 1531.54 1353.14 1536.18 Q1357.34 1540.8 1357.34 1548.76 M1351.48 1547.04 Q1351.42 1542.23 1348.77 1539.37 Q1346.16 1536.5 1341.84 1536.5 Q1336.93 1536.5 1333.97 1539.27 Q1331.05 1542.04 1330.6 1547.07 L1351.48 1547.04 Z" fill="#000000" fill-rule="nonzero" fill-opacity="1" /><polyline clip-path="url(#clip872)" style="stroke:#000000; stroke-linecap:round; stroke-linejoin:round; stroke-width:2; stroke-opacity:0.1; fill:none" points="219.866,1187.43 2352.76,1187.43 "/>
<polyline clip-path="url(#clip872)" style="stroke:#000000; stroke-linecap:round; stroke-linejoin:round; stroke-width:2; stroke-opacity:0.1; fill:none" points="219.866,945.549 2352.76,945.549 "/>
<polyline clip-path="url(#clip872)" style="stroke:#000000; stroke-linecap:round; stroke-linejoin:round; stroke-width:2; stroke-opacity:0.1; fill:none" points="219.866,703.663 2352.76,703.663 "/>
<polyline clip-path="url(#clip872)" style="stroke:#000000; stroke-linecap:round; stroke-linejoin:round; stroke-width:2; stroke-opacity:0.1; fill:none" points="219.866,461.777 2352.76,461.777 "/>
<polyline clip-path="url(#clip872)" style="stroke:#000000; stroke-linecap:round; stroke-linejoin:round; stroke-width:2; stroke-opacity:0.1; fill:none" points="219.866,219.891 2352.76,219.891 "/>
<polyline clip-path="url(#clip870)" style="stroke:#000000; stroke-linecap:round; stroke-linejoin:round; stroke-width:4; stroke-opacity:1; fill:none" points="219.866,1423.18 219.866,123.472 "/>
<polyline clip-path="url(#clip870)" style="stroke:#000000; stroke-linecap:round; stroke-linejoin:round; stroke-width:4; stroke-opacity:1; fill:none" points="219.866,1187.43 238.764,1187.43 "/>
<polyline clip-path="url(#clip870)" style="stroke:#000000; stroke-linecap:round; stroke-linejoin:round; stroke-width:4; stroke-opacity:1; fill:none" points="219.866,945.549 238.764,945.549 "/>
<polyline clip-path="url(#clip870)" style="stroke:#000000; stroke-linecap:round; stroke-linejoin:round; stroke-width:4; stroke-opacity:1; fill:none" points="219.866,703.663 238.764,703.663 "/>
<polyline clip-path="url(#clip870)" style="stroke:#000000; stroke-linecap:round; stroke-linejoin:round; stroke-width:4; stroke-opacity:1; fill:none" points="219.866,461.777 238.764,461.777 "/>
<polyline clip-path="url(#clip870)" style="stroke:#000000; stroke-linecap:round; stroke-linejoin:round; stroke-width:4; stroke-opacity:1; fill:none" points="219.866,219.891 238.764,219.891 "/>
<path clip-path="url(#clip870)" d="M128.288 1173.23 Q124.677 1173.23 122.848 1176.8 Q121.043 1180.34 121.043 1187.47 Q121.043 1194.58 122.848 1198.14 Q124.677 1201.68 128.288 1201.68 Q131.922 1201.68 133.728 1198.14 Q135.556 1194.58 135.556 1187.47 Q135.556 1180.34 133.728 1176.8 Q131.922 1173.23 128.288 1173.23 M128.288 1169.53 Q134.098 1169.53 137.154 1174.14 Q140.232 1178.72 140.232 1187.47 Q140.232 1196.2 137.154 1200.8 Q134.098 1205.39 128.288 1205.39 Q122.478 1205.39 119.399 1200.8 Q116.343 1196.2 116.343 1187.47 Q116.343 1178.72 119.399 1174.14 Q122.478 1169.53 128.288 1169.53 Z" fill="#000000" fill-rule="nonzero" fill-opacity="1" /><path clip-path="url(#clip870)" d="M148.45 1198.84 L153.334 1198.84 L153.334 1204.71 L148.45 1204.71 L148.45 1198.84 Z" fill="#000000" fill-rule="nonzero" fill-opacity="1" /><path clip-path="url(#clip870)" d="M167.547 1200.78 L183.866 1200.78 L183.866 1204.71 L161.922 1204.71 L161.922 1200.78 Q164.584 1198.03 169.167 1193.4 Q173.774 1188.74 174.954 1187.4 Q177.2 1184.88 178.079 1183.14 Q178.982 1181.38 178.982 1179.69 Q178.982 1176.94 177.038 1175.2 Q175.116 1173.46 172.014 1173.46 Q169.815 1173.46 167.362 1174.23 Q164.931 1174.99 162.153 1176.54 L162.153 1171.82 Q164.977 1170.69 167.431 1170.11 Q169.885 1169.53 171.922 1169.53 Q177.292 1169.53 180.487 1172.21 Q183.681 1174.9 183.681 1179.39 Q183.681 1181.52 182.871 1183.44 Q182.084 1185.34 179.977 1187.93 Q179.399 1188.6 176.297 1191.82 Q173.195 1195.02 167.547 1200.78 Z" fill="#000000" fill-rule="nonzero" fill-opacity="1" /><path clip-path="url(#clip870)" d="M126.205 931.347 Q122.593 931.347 120.765 934.912 Q118.959 938.454 118.959 945.584 Q118.959 952.69 120.765 956.255 Q122.593 959.796 126.205 959.796 Q129.839 959.796 131.644 956.255 Q133.473 952.69 133.473 945.584 Q133.473 938.454 131.644 934.912 Q129.839 931.347 126.205 931.347 M126.205 927.644 Q132.015 927.644 135.07 932.25 Q138.149 936.834 138.149 945.584 Q138.149 954.31 135.07 958.917 Q132.015 963.5 126.205 963.5 Q120.394 963.5 117.316 958.917 Q114.26 954.31 114.26 945.584 Q114.26 936.834 117.316 932.25 Q120.394 927.644 126.205 927.644 Z" fill="#000000" fill-rule="nonzero" fill-opacity="1" /><path clip-path="url(#clip870)" d="M146.366 956.949 L151.251 956.949 L151.251 962.829 L146.366 962.829 L146.366 956.949 Z" fill="#000000" fill-rule="nonzero" fill-opacity="1" /><path clip-path="url(#clip870)" d="M174.283 932.343 L162.477 950.792 L174.283 950.792 L174.283 932.343 M173.056 928.269 L178.936 928.269 L178.936 950.792 L183.866 950.792 L183.866 954.681 L178.936 954.681 L178.936 962.829 L174.283 962.829 L174.283 954.681 L158.681 954.681 L158.681 950.167 L173.056 928.269 Z" fill="#000000" fill-rule="nonzero" fill-opacity="1" /><path clip-path="url(#clip870)" d="M126.529 689.462 Q122.918 689.462 121.089 693.026 Q119.283 696.568 119.283 703.698 Q119.283 710.804 121.089 714.369 Q122.918 717.91 126.529 717.91 Q130.163 717.91 131.968 714.369 Q133.797 710.804 133.797 703.698 Q133.797 696.568 131.968 693.026 Q130.163 689.462 126.529 689.462 M126.529 685.758 Q132.339 685.758 135.394 690.364 Q138.473 694.948 138.473 703.698 Q138.473 712.424 135.394 717.031 Q132.339 721.614 126.529 721.614 Q120.718 721.614 117.64 717.031 Q114.584 712.424 114.584 703.698 Q114.584 694.948 117.64 690.364 Q120.718 685.758 126.529 685.758 Z" fill="#000000" fill-rule="nonzero" fill-opacity="1" /><path clip-path="url(#clip870)" d="M146.691 715.063 L151.575 715.063 L151.575 720.943 L146.691 720.943 L146.691 715.063 Z" fill="#000000" fill-rule="nonzero" fill-opacity="1" /><path clip-path="url(#clip870)" d="M172.339 701.799 Q169.19 701.799 167.339 703.952 Q165.51 706.105 165.51 709.855 Q165.51 713.582 167.339 715.758 Q169.19 717.91 172.339 717.91 Q175.487 717.91 177.315 715.758 Q179.167 713.582 179.167 709.855 Q179.167 706.105 177.315 703.952 Q175.487 701.799 172.339 701.799 M181.621 687.147 L181.621 691.406 Q179.862 690.573 178.056 690.133 Q176.274 689.693 174.514 689.693 Q169.885 689.693 167.431 692.818 Q165.001 695.943 164.653 702.262 Q166.019 700.248 168.079 699.184 Q170.139 698.096 172.616 698.096 Q177.825 698.096 180.834 701.267 Q183.866 704.415 183.866 709.855 Q183.866 715.179 180.718 718.397 Q177.57 721.614 172.339 721.614 Q166.343 721.614 163.172 717.031 Q160.001 712.424 160.001 703.698 Q160.001 695.503 163.89 690.642 Q167.778 685.758 174.329 685.758 Q176.089 685.758 177.871 686.105 Q179.676 686.452 181.621 687.147 Z" fill="#000000" fill-rule="nonzero" fill-opacity="1" /><path clip-path="url(#clip870)" d="M126.783 447.576 Q123.172 447.576 121.343 451.14 Q119.538 454.682 119.538 461.812 Q119.538 468.918 121.343 472.483 Q123.172 476.024 126.783 476.024 Q130.417 476.024 132.223 472.483 Q134.052 468.918 134.052 461.812 Q134.052 454.682 132.223 451.14 Q130.417 447.576 126.783 447.576 M126.783 443.872 Q132.593 443.872 135.649 448.478 Q138.728 453.062 138.728 461.812 Q138.728 470.538 135.649 475.145 Q132.593 479.728 126.783 479.728 Q120.973 479.728 117.894 475.145 Q114.839 470.538 114.839 461.812 Q114.839 453.062 117.894 448.478 Q120.973 443.872 126.783 443.872 Z" fill="#000000" fill-rule="nonzero" fill-opacity="1" /><path clip-path="url(#clip870)" d="M146.945 473.177 L151.829 473.177 L151.829 479.057 L146.945 479.057 L146.945 473.177 Z" fill="#000000" fill-rule="nonzero" fill-opacity="1" /><path clip-path="url(#clip870)" d="M172.014 462.645 Q168.681 462.645 166.76 464.427 Q164.862 466.21 164.862 469.335 Q164.862 472.46 166.76 474.242 Q168.681 476.024 172.014 476.024 Q175.348 476.024 177.269 474.242 Q179.19 472.437 179.19 469.335 Q179.19 466.21 177.269 464.427 Q175.371 462.645 172.014 462.645 M167.339 460.654 Q164.329 459.913 162.64 457.853 Q160.973 455.793 160.973 452.83 Q160.973 448.687 163.913 446.279 Q166.876 443.872 172.014 443.872 Q177.176 443.872 180.116 446.279 Q183.056 448.687 183.056 452.83 Q183.056 455.793 181.366 457.853 Q179.7 459.913 176.714 460.654 Q180.093 461.441 181.968 463.733 Q183.866 466.025 183.866 469.335 Q183.866 474.358 180.788 477.043 Q177.732 479.728 172.014 479.728 Q166.297 479.728 163.218 477.043 Q160.163 474.358 160.163 469.335 Q160.163 466.025 162.061 463.733 Q163.959 461.441 167.339 460.654 M165.626 453.27 Q165.626 455.955 167.292 457.46 Q168.982 458.964 172.014 458.964 Q175.024 458.964 176.714 457.46 Q178.426 455.955 178.426 453.27 Q178.426 450.585 176.714 449.08 Q175.024 447.576 172.014 447.576 Q168.982 447.576 167.292 449.08 Q165.626 450.585 165.626 453.27 Z" fill="#000000" fill-rule="nonzero" fill-opacity="1" /><path clip-path="url(#clip870)" d="M117.501 233.236 L125.14 233.236 L125.14 206.87 L116.83 208.537 L116.83 204.278 L125.093 202.611 L129.769 202.611 L129.769 233.236 L137.408 233.236 L137.408 237.171 L117.501 237.171 L117.501 233.236 Z" fill="#000000" fill-rule="nonzero" fill-opacity="1" /><path clip-path="url(#clip870)" d="M146.853 231.291 L151.737 231.291 L151.737 237.171 L146.853 237.171 L146.853 231.291 Z" fill="#000000" fill-rule="nonzero" fill-opacity="1" /><path clip-path="url(#clip870)" d="M171.922 205.69 Q168.311 205.69 166.482 209.254 Q164.677 212.796 164.677 219.926 Q164.677 227.032 166.482 230.597 Q168.311 234.138 171.922 234.138 Q175.556 234.138 177.362 230.597 Q179.19 227.032 179.19 219.926 Q179.19 212.796 177.362 209.254 Q175.556 205.69 171.922 205.69 M171.922 201.986 Q177.732 201.986 180.788 206.592 Q183.866 211.176 183.866 219.926 Q183.866 228.652 180.788 233.259 Q177.732 237.842 171.922 237.842 Q166.112 237.842 163.033 233.259 Q159.978 228.652 159.978 219.926 Q159.978 211.176 163.033 206.592 Q166.112 201.986 171.922 201.986 Z" fill="#000000" fill-rule="nonzero" fill-opacity="1" /><path clip-path="url(#clip870)" d="M28.3562 756.711 L45.7028 769.602 L64.0042 756.043 L64.0042 762.95 L49.9996 773.326 L64.0042 783.702 L64.0042 790.609 L45.3526 776.763 L28.3562 789.431 L28.3562 782.524 L41.0558 773.071 L28.3562 763.618 L28.3562 756.711 Z" fill="#000000" fill-rule="nonzero" fill-opacity="1" /><path clip-path="url(#clip870)" d="M531.648 12.096 L563.772 12.096 L563.772 18.9825 L539.142 18.9825 L539.142 33.8088 Q540.924 33.2012 542.707 32.9176 Q544.489 32.5936 546.272 32.5936 Q556.399 32.5936 562.313 38.1433 Q568.228 43.6931 568.228 53.1722 Q568.228 62.9348 562.151 68.3631 Q556.075 73.7508 545.016 73.7508 Q541.208 73.7508 537.238 73.1026 Q533.309 72.4545 529.096 71.1582 L529.096 62.9348 Q532.742 64.9198 536.63 65.892 Q540.519 66.8642 544.854 66.8642 Q551.862 66.8642 555.953 63.1779 Q560.045 59.4916 560.045 53.1722 Q560.045 46.8528 555.953 43.1664 Q551.862 39.4801 544.854 39.4801 Q541.573 39.4801 538.291 40.2093 Q535.051 40.9384 531.648 42.4778 L531.648 12.096 Z" fill="#000000" fill-rule="nonzero" fill-opacity="1" /><path clip-path="url(#clip870)" d="M601.85 17.4837 Q595.531 17.4837 592.33 23.7221 Q589.171 29.92 589.171 42.3968 Q589.171 54.833 592.33 61.0714 Q595.531 67.2693 601.85 67.2693 Q608.21 67.2693 611.37 61.0714 Q614.57 54.833 614.57 42.3968 Q614.57 29.92 611.37 23.7221 Q608.21 17.4837 601.85 17.4837 M601.85 11.0023 Q612.018 11.0023 617.365 19.0636 Q622.753 27.0843 622.753 42.3968 Q622.753 57.6687 617.365 65.73 Q612.018 73.7508 601.85 73.7508 Q591.682 73.7508 586.295 65.73 Q580.947 57.6687 580.947 42.3968 Q580.947 27.0843 586.295 19.0636 Q591.682 11.0023 601.85 11.0023 Z" fill="#000000" fill-rule="nonzero" fill-opacity="1" /><path clip-path="url(#clip870)" d="M654.633 17.4837 Q648.314 17.4837 645.114 23.7221 Q641.954 29.92 641.954 42.3968 Q641.954 54.833 645.114 61.0714 Q648.314 67.2693 654.633 67.2693 Q660.993 67.2693 664.153 61.0714 Q667.353 54.833 667.353 42.3968 Q667.353 29.92 664.153 23.7221 Q660.993 17.4837 654.633 17.4837 M654.633 11.0023 Q664.801 11.0023 670.148 19.0636 Q675.536 27.0843 675.536 42.3968 Q675.536 57.6687 670.148 65.73 Q664.801 73.7508 654.633 73.7508 Q644.466 73.7508 639.078 65.73 Q633.731 57.6687 633.731 42.3968 Q633.731 27.0843 639.078 19.0636 Q644.466 11.0023 654.633 11.0023 Z" fill="#000000" fill-rule="nonzero" fill-opacity="1" /><path clip-path="url(#clip870)" d="M707.417 17.4837 Q701.097 17.4837 697.897 23.7221 Q694.737 29.92 694.737 42.3968 Q694.737 54.833 697.897 61.0714 Q701.097 67.2693 707.417 67.2693 Q713.777 67.2693 716.936 61.0714 Q720.136 54.833 720.136 42.3968 Q720.136 29.92 716.936 23.7221 Q713.777 17.4837 707.417 17.4837 M707.417 11.0023 Q717.584 11.0023 722.932 19.0636 Q728.319 27.0843 728.319 42.3968 Q728.319 57.6687 722.932 65.73 Q717.584 73.7508 707.417 73.7508 Q697.249 73.7508 691.861 65.73 Q686.514 57.6687 686.514 42.3968 Q686.514 27.0843 691.861 19.0636 Q697.249 11.0023 707.417 11.0023 Z" fill="#000000" fill-rule="nonzero" fill-opacity="1" /><path clip-path="url(#clip870)" d="M804.598 14.0809 L804.598 22.0612 Q799.939 19.8332 795.807 18.7395 Q791.675 17.6457 787.827 17.6457 Q781.143 17.6457 777.497 20.2383 Q773.892 22.8309 773.892 27.611 Q773.892 31.6214 776.282 33.6873 Q778.713 35.7128 785.437 36.9686 L790.379 37.9813 Q799.534 39.7232 803.869 44.1387 Q808.244 48.5136 808.244 55.8863 Q808.244 64.6767 802.329 69.2137 Q796.455 73.7508 785.072 73.7508 Q780.778 73.7508 775.917 72.7785 Q771.097 71.8063 765.912 69.9024 L765.912 61.4765 Q770.894 64.2716 775.674 65.6895 Q780.454 67.1073 785.072 67.1073 Q792.081 67.1073 795.888 64.3527 Q799.696 61.598 799.696 56.4939 Q799.696 52.0379 796.942 49.5264 Q794.227 47.0148 787.989 45.759 L783.006 44.7868 Q773.851 42.9639 769.76 39.075 Q765.669 35.1862 765.669 28.2591 Q765.669 20.2383 771.299 15.6203 Q776.971 11.0023 786.895 11.0023 Q791.149 11.0023 795.564 11.7719 Q799.98 12.5416 804.598 14.0809 Z" fill="#000000" fill-rule="nonzero" fill-opacity="1" /><path clip-path="url(#clip870)" d="M841.299 49.7694 Q832.265 49.7694 828.782 51.8354 Q825.298 53.9013 825.298 58.8839 Q825.298 62.8538 827.891 65.2034 Q830.524 67.5124 835.02 67.5124 Q841.218 67.5124 844.945 63.1374 Q848.712 58.7219 848.712 51.4303 L848.712 49.7694 L841.299 49.7694 M856.166 46.6907 L856.166 72.576 L848.712 72.576 L848.712 65.6895 Q846.16 69.8214 842.352 71.8063 Q838.544 73.7508 833.035 73.7508 Q826.068 73.7508 821.936 69.8619 Q817.844 65.9325 817.844 59.3701 Q817.844 51.7138 822.948 47.825 Q828.093 43.9361 838.261 43.9361 L848.712 43.9361 L848.712 43.2069 Q848.712 38.0623 845.309 35.2672 Q841.947 32.4315 835.83 32.4315 Q831.941 32.4315 828.255 33.3632 Q824.569 34.295 821.166 36.1584 L821.166 29.2718 Q825.257 27.692 829.106 26.9223 Q832.954 26.1121 836.6 26.1121 Q846.444 26.1121 851.305 31.2163 Q856.166 36.3204 856.166 46.6907 Z" fill="#000000" fill-rule="nonzero" fill-opacity="1" /><path clip-path="url(#clip870)" d="M906.843 35.9153 Q909.638 30.8922 913.527 28.5022 Q917.415 26.1121 922.682 26.1121 Q929.771 26.1121 933.619 31.0947 Q937.467 36.0368 937.467 45.1919 L937.467 72.576 L929.973 72.576 L929.973 45.4349 Q929.973 38.913 927.664 35.7533 Q925.355 32.5936 920.616 32.5936 Q914.823 32.5936 911.461 36.4419 Q908.098 40.2903 908.098 46.9338 L908.098 72.576 L900.604 72.576 L900.604 45.4349 Q900.604 38.8725 898.295 35.7533 Q895.986 32.5936 891.166 32.5936 Q885.454 32.5936 882.092 36.4824 Q878.729 40.3308 878.729 46.9338 L878.729 72.576 L871.235 72.576 L871.235 27.2059 L878.729 27.2059 L878.729 34.2544 Q881.281 30.082 884.846 28.0971 Q888.411 26.1121 893.313 26.1121 Q898.255 26.1121 901.698 28.6237 Q905.182 31.1352 906.843 35.9153 Z" fill="#000000" fill-rule="nonzero" fill-opacity="1" /><path clip-path="url(#clip870)" d="M959.545 65.7705 L959.545 89.8329 L952.051 89.8329 L952.051 27.2059 L959.545 27.2059 L959.545 34.0924 Q961.894 30.0415 965.459 28.0971 Q969.065 26.1121 974.047 26.1121 Q982.311 26.1121 987.456 32.6746 Q992.641 39.2371 992.641 49.9314 Q992.641 60.6258 987.456 67.1883 Q982.311 73.7508 974.047 73.7508 Q969.065 73.7508 965.459 71.8063 Q961.894 69.8214 959.545 65.7705 M984.904 49.9314 Q984.904 41.7081 981.501 37.0496 Q978.139 32.3505 972.224 32.3505 Q966.31 32.3505 962.907 37.0496 Q959.545 41.7081 959.545 49.9314 Q959.545 58.1548 962.907 62.8538 Q966.31 67.5124 972.224 67.5124 Q978.139 67.5124 981.501 62.8538 Q984.904 58.1548 984.904 49.9314 Z" fill="#000000" fill-rule="nonzero" fill-opacity="1" /><path clip-path="url(#clip870)" d="M1005 9.54393 L1012.45 9.54393 L1012.45 72.576 L1005 72.576 L1005 9.54393 Z" fill="#000000" fill-rule="nonzero" fill-opacity="1" /><path clip-path="url(#clip870)" d="M1066.85 48.0275 L1066.85 51.6733 L1032.58 51.6733 Q1033.07 59.3701 1037.2 63.421 Q1041.37 67.4314 1048.79 67.4314 Q1053.08 67.4314 1057.09 66.3781 Q1061.14 65.3249 1065.11 63.2184 L1065.11 70.267 Q1061.1 71.9684 1056.89 72.8596 Q1052.68 73.7508 1048.34 73.7508 Q1037.48 73.7508 1031.12 67.4314 Q1024.8 61.1119 1024.8 50.3365 Q1024.8 39.1965 1030.8 32.6746 Q1036.84 26.1121 1047.04 26.1121 Q1056.2 26.1121 1061.51 32.0264 Q1066.85 37.9003 1066.85 48.0275 M1059.4 45.84 Q1059.32 39.7232 1055.96 36.0774 Q1052.63 32.4315 1047.13 32.4315 Q1040.89 32.4315 1037.12 35.9558 Q1033.39 39.4801 1032.83 45.8805 L1059.4 45.84 Z" fill="#000000" fill-rule="nonzero" fill-opacity="1" /><path clip-path="url(#clip870)" d="M1105.78 12.096 L1117.98 12.096 L1133.41 53.2532 L1148.92 12.096 L1161.12 12.096 L1161.12 72.576 L1153.14 72.576 L1153.14 19.4686 L1137.54 60.9499 L1129.32 60.9499 L1113.72 19.4686 L1113.72 72.576 L1105.78 72.576 L1105.78 12.096 Z" fill="#000000" fill-rule="nonzero" fill-opacity="1" /><path clip-path="url(#clip870)" d="M1215.85 48.0275 L1215.85 51.6733 L1181.57 51.6733 Q1182.06 59.3701 1186.19 63.421 Q1190.37 67.4314 1197.78 67.4314 Q1202.07 67.4314 1206.08 66.3781 Q1210.13 65.3249 1214.1 63.2184 L1214.1 70.267 Q1210.09 71.9684 1205.88 72.8596 Q1201.67 73.7508 1197.33 73.7508 Q1186.48 73.7508 1180.12 67.4314 Q1173.8 61.1119 1173.8 50.3365 Q1173.8 39.1965 1179.79 32.6746 Q1185.83 26.1121 1196.04 26.1121 Q1205.19 26.1121 1210.5 32.0264 Q1215.85 37.9003 1215.85 48.0275 M1208.39 45.84 Q1208.31 39.7232 1204.95 36.0774 Q1201.63 32.4315 1196.12 32.4315 Q1189.88 32.4315 1186.11 35.9558 Q1182.39 39.4801 1181.82 45.8805 L1208.39 45.84 Z" fill="#000000" fill-rule="nonzero" fill-opacity="1" /><path clip-path="url(#clip870)" d="M1248.7 49.7694 Q1239.66 49.7694 1236.18 51.8354 Q1232.7 53.9013 1232.7 58.8839 Q1232.7 62.8538 1235.29 65.2034 Q1237.92 67.5124 1242.42 67.5124 Q1248.62 67.5124 1252.34 63.1374 Q1256.11 58.7219 1256.11 51.4303 L1256.11 49.7694 L1248.7 49.7694 M1263.57 46.6907 L1263.57 72.576 L1256.11 72.576 L1256.11 65.6895 Q1253.56 69.8214 1249.75 71.8063 Q1245.94 73.7508 1240.43 73.7508 Q1233.47 73.7508 1229.34 69.8619 Q1225.24 65.9325 1225.24 59.3701 Q1225.24 51.7138 1230.35 47.825 Q1235.49 43.9361 1245.66 43.9361 L1256.11 43.9361 L1256.11 43.2069 Q1256.11 38.0623 1252.71 35.2672 Q1249.35 32.4315 1243.23 32.4315 Q1239.34 32.4315 1235.65 33.3632 Q1231.97 34.295 1228.57 36.1584 L1228.57 29.2718 Q1232.66 27.692 1236.51 26.9223 Q1240.35 26.1121 1244 26.1121 Q1253.84 26.1121 1258.7 31.2163 Q1263.57 36.3204 1263.57 46.6907 Z" fill="#000000" fill-rule="nonzero" fill-opacity="1" /><path clip-path="url(#clip870)" d="M1316.63 45.1919 L1316.63 72.576 L1309.18 72.576 L1309.18 45.4349 Q1309.18 38.994 1306.67 35.7938 Q1304.16 32.5936 1299.13 32.5936 Q1293.1 32.5936 1289.61 36.4419 Q1286.13 40.2903 1286.13 46.9338 L1286.13 72.576 L1278.63 72.576 L1278.63 27.2059 L1286.13 27.2059 L1286.13 34.2544 Q1288.8 30.163 1292.41 28.1376 Q1296.05 26.1121 1300.79 26.1121 Q1308.61 26.1121 1312.62 30.9732 Q1316.63 35.7938 1316.63 45.1919 Z" fill="#000000" fill-rule="nonzero" fill-opacity="1" /><path clip-path="url(#clip870)" d="M1378.49 49.7694 Q1369.46 49.7694 1365.97 51.8354 Q1362.49 53.9013 1362.49 58.8839 Q1362.49 62.8538 1365.08 65.2034 Q1367.71 67.5124 1372.21 67.5124 Q1378.41 67.5124 1382.14 63.1374 Q1385.9 58.7219 1385.9 51.4303 L1385.9 49.7694 L1378.49 49.7694 M1393.36 46.6907 L1393.36 72.576 L1385.9 72.576 L1385.9 65.6895 Q1383.35 69.8214 1379.54 71.8063 Q1375.73 73.7508 1370.23 73.7508 Q1363.26 73.7508 1359.13 69.8619 Q1355.03 65.9325 1355.03 59.3701 Q1355.03 51.7138 1360.14 47.825 Q1365.28 43.9361 1375.45 43.9361 L1385.9 43.9361 L1385.9 43.2069 Q1385.9 38.0623 1382.5 35.2672 Q1379.14 32.4315 1373.02 32.4315 Q1369.13 32.4315 1365.45 33.3632 Q1361.76 34.295 1358.36 36.1584 L1358.36 29.2718 Q1362.45 27.692 1366.3 26.9223 Q1370.14 26.1121 1373.79 26.1121 Q1383.63 26.1121 1388.5 31.2163 Q1393.36 36.3204 1393.36 46.6907 Z" fill="#000000" fill-rule="nonzero" fill-opacity="1" /><path clip-path="url(#clip870)" d="M1446.42 45.1919 L1446.42 72.576 L1438.97 72.576 L1438.97 45.4349 Q1438.97 38.994 1436.46 35.7938 Q1433.95 32.5936 1428.92 32.5936 Q1422.89 32.5936 1419.4 36.4419 Q1415.92 40.2903 1415.92 46.9338 L1415.92 72.576 L1408.43 72.576 L1408.43 27.2059 L1415.92 27.2059 L1415.92 34.2544 Q1418.59 30.163 1422.2 28.1376 Q1425.84 26.1121 1430.58 26.1121 Q1438.4 26.1121 1442.41 30.9732 Q1446.42 35.7938 1446.42 45.1919 Z" fill="#000000" fill-rule="nonzero" fill-opacity="1" /><path clip-path="url(#clip870)" d="M1491.15 34.0924 L1491.15 9.54393 L1498.6 9.54393 L1498.6 72.576 L1491.15 72.576 L1491.15 65.7705 Q1488.8 69.8214 1485.19 71.8063 Q1481.63 73.7508 1476.6 73.7508 Q1468.38 73.7508 1463.19 67.1883 Q1458.05 60.6258 1458.05 49.9314 Q1458.05 39.2371 1463.19 32.6746 Q1468.38 26.1121 1476.6 26.1121 Q1481.63 26.1121 1485.19 28.0971 Q1488.8 30.0415 1491.15 34.0924 M1465.75 49.9314 Q1465.75 58.1548 1469.11 62.8538 Q1472.51 67.5124 1478.43 67.5124 Q1484.34 67.5124 1487.74 62.8538 Q1491.15 58.1548 1491.15 49.9314 Q1491.15 41.7081 1487.74 37.0496 Q1484.34 32.3505 1478.43 32.3505 Q1472.51 32.3505 1469.11 37.0496 Q1465.75 41.7081 1465.75 49.9314 Z" fill="#000000" fill-rule="nonzero" fill-opacity="1" /><path clip-path="url(#clip870)" d="M1576.9 14.0809 L1576.9 22.0612 Q1572.24 19.8332 1568.11 18.7395 Q1563.98 17.6457 1560.13 17.6457 Q1553.45 17.6457 1549.8 20.2383 Q1546.2 22.8309 1546.2 27.611 Q1546.2 31.6214 1548.59 33.6873 Q1551.02 35.7128 1557.74 36.9686 L1562.68 37.9813 Q1571.84 39.7232 1576.17 44.1387 Q1580.55 48.5136 1580.55 55.8863 Q1580.55 64.6767 1574.63 69.2137 Q1568.76 73.7508 1557.38 73.7508 Q1553.08 73.7508 1548.22 72.7785 Q1543.4 71.8063 1538.22 69.9024 L1538.22 61.4765 Q1543.2 64.2716 1547.98 65.6895 Q1552.76 67.1073 1557.38 67.1073 Q1564.39 67.1073 1568.19 64.3527 Q1572 61.598 1572 56.4939 Q1572 52.0379 1569.25 49.5264 Q1566.53 47.0148 1560.29 45.759 L1555.31 44.7868 Q1546.16 42.9639 1542.06 39.075 Q1537.97 35.1862 1537.97 28.2591 Q1537.97 20.2383 1543.6 15.6203 Q1549.28 11.0023 1559.2 11.0023 Q1563.45 11.0023 1567.87 11.7719 Q1572.28 12.5416 1576.9 14.0809 Z" fill="#000000" fill-rule="nonzero" fill-opacity="1" /><path clip-path="url(#clip870)" d="M1600.36 14.324 L1600.36 27.2059 L1615.71 27.2059 L1615.71 32.9987 L1600.36 32.9987 L1600.36 57.6282 Q1600.36 63.1779 1601.86 64.7578 Q1603.4 66.3376 1608.05 66.3376 L1615.71 66.3376 L1615.71 72.576 L1608.05 72.576 Q1599.43 72.576 1596.14 69.3758 Q1592.86 66.1351 1592.86 57.6282 L1592.86 32.9987 L1587.39 32.9987 L1587.39 27.2059 L1592.86 27.2059 L1592.86 14.324 L1600.36 14.324 Z" fill="#000000" fill-rule="nonzero" fill-opacity="1" /><path clip-path="url(#clip870)" d="M1655.37 34.0924 L1655.37 9.54393 L1662.82 9.54393 L1662.82 72.576 L1655.37 72.576 L1655.37 65.7705 Q1653.02 69.8214 1649.41 71.8063 Q1645.85 73.7508 1640.83 73.7508 Q1632.6 73.7508 1627.42 67.1883 Q1622.27 60.6258 1622.27 49.9314 Q1622.27 39.2371 1627.42 32.6746 Q1632.6 26.1121 1640.83 26.1121 Q1645.85 26.1121 1649.41 28.0971 Q1653.02 30.0415 1655.37 34.0924 M1629.97 49.9314 Q1629.97 58.1548 1633.33 62.8538 Q1636.73 67.5124 1642.65 67.5124 Q1648.56 67.5124 1651.97 62.8538 Q1655.37 58.1548 1655.37 49.9314 Q1655.37 41.7081 1651.97 37.0496 Q1648.56 32.3505 1642.65 32.3505 Q1636.73 32.3505 1633.33 37.0496 Q1629.97 41.7081 1629.97 49.9314 Z" fill="#000000" fill-rule="nonzero" fill-opacity="1" /><path clip-path="url(#clip870)" d="M1679.23 62.2867 L1687.78 62.2867 L1687.78 72.576 L1679.23 72.576 L1679.23 62.2867 Z" fill="#000000" fill-rule="nonzero" fill-opacity="1" /><path clip-path="url(#clip870)" d="M1706.45 62.2867 L1715 62.2867 L1715 69.2543 L1708.35 82.2172 L1703.13 82.2172 L1706.45 69.2543 L1706.45 62.2867 Z" fill="#000000" fill-rule="nonzero" fill-opacity="1" /><path clip-path="url(#clip870)" d="M1790.14 20.0358 Q1786.01 17.2001 1776.33 17.2001 Q1766.08 17.2001 1766.08 21.9397 Q1766.08 25.6665 1776.77 27.611 Q1785.2 29.1098 1789.94 33.6468 Q1795.69 39.1155 1795.69 50.3365 Q1795.69 61.0714 1790.14 67.3908 Q1784.59 73.7508 1774.87 73.7508 Q1765.19 73.7508 1759.6 67.3908 Q1754.05 61.0714 1754.05 49.9314 Q1754.05 41.6676 1759.6 34.9836 Q1761.75 32.391 1764.78 30.9327 Q1758.46 27.7325 1758.46 22.0207 Q1758.46 11.0023 1776.33 11.0023 Q1785.28 11.0023 1790.14 13.8379 L1790.14 20.0358 M1770.37 32.9582 Q1767.62 34.1329 1765.39 37.0901 Q1761.91 41.6676 1761.91 49.9314 Q1761.91 58.1548 1765.35 62.7728 Q1768.83 67.4314 1774.87 67.4314 Q1780.83 67.4314 1784.31 62.7323 Q1787.79 58.0333 1787.79 50.3365 Q1787.79 42.2752 1784.11 38.3864 Q1780.18 34.2139 1775.07 33.7683 Q1772.48 33.5253 1770.37 32.9582 Z" fill="#000000" fill-rule="nonzero" fill-opacity="1" /><path clip-path="url(#clip870)" d="M1845.76 27.2059 L1829.36 49.2833 L1846.61 72.576 L1837.82 72.576 L1824.62 54.752 L1811.41 72.576 L1802.62 72.576 L1820.24 48.8377 L1804.12 27.2059 L1812.91 27.2059 L1824.94 43.369 L1836.97 27.2059 L1845.76 27.2059 Z" fill="#000000" fill-rule="nonzero" fill-opacity="1" /><path clip-path="url(#clip870)" d="M1858.12 34.9026 L1910.05 34.9026 L1910.05 41.7081 L1858.12 41.7081 L1858.12 34.9026 M1858.12 51.4303 L1910.05 51.4303 L1910.05 58.3168 L1858.12 58.3168 L1858.12 51.4303 Z" fill="#000000" fill-rule="nonzero" fill-opacity="1" /><path clip-path="url(#clip870)" d="M1945.21 17.4837 Q1938.89 17.4837 1935.69 23.7221 Q1932.53 29.92 1932.53 42.3968 Q1932.53 54.833 1935.69 61.0714 Q1938.89 67.2693 1945.21 67.2693 Q1951.57 67.2693 1954.73 61.0714 Q1957.93 54.833 1957.93 42.3968 Q1957.93 29.92 1954.73 23.7221 Q1951.57 17.4837 1945.21 17.4837 M1945.21 11.0023 Q1955.38 11.0023 1960.73 19.0636 Q1966.11 27.0843 1966.11 42.3968 Q1966.11 57.6687 1960.73 65.73 Q1955.38 73.7508 1945.21 73.7508 Q1935.04 73.7508 1929.66 65.73 Q1924.31 57.6687 1924.31 42.3968 Q1924.31 27.0843 1929.66 19.0636 Q1935.04 11.0023 1945.21 11.0023 Z" fill="#000000" fill-rule="nonzero" fill-opacity="1" /><path clip-path="url(#clip870)" d="M1980.49 62.2867 L1989.04 62.2867 L1989.04 72.576 L1980.49 72.576 L1980.49 62.2867 Z" fill="#000000" fill-rule="nonzero" fill-opacity="1" /><path clip-path="url(#clip870)" d="M2006.95 12.096 L2039.07 12.096 L2039.07 18.9825 L2014.44 18.9825 L2014.44 33.8088 Q2016.22 33.2012 2018.01 32.9176 Q2019.79 32.5936 2021.57 32.5936 Q2031.7 32.5936 2037.61 38.1433 Q2043.53 43.6931 2043.53 53.1722 Q2043.53 62.9348 2037.45 68.3631 Q2031.37 73.7508 2020.31 73.7508 Q2016.51 73.7508 2012.54 73.1026 Q2008.61 72.4545 2004.39 71.1582 L2004.39 62.9348 Q2008.04 64.9198 2011.93 65.892 Q2015.82 66.8642 2020.15 66.8642 Q2027.16 66.8642 2031.25 63.1779 Q2035.34 59.4916 2035.34 53.1722 Q2035.34 46.8528 2031.25 43.1664 Q2027.16 39.4801 2020.15 39.4801 Q2016.87 39.4801 2013.59 40.2093 Q2010.35 40.9384 2006.95 42.4778 L2006.95 12.096 Z" fill="#000000" fill-rule="nonzero" fill-opacity="1" /><path clip-path="url(#clip872)" d="M280.231 1325.08 L300.556 1352.89 L320.881 1357.13 L341.206 1377.57 L361.53 1372.37 L381.855 1369.71 L402.18 1348.18 L422.505 1305.36 L442.83 1261.34 L463.155 1238.24 L483.48 1177.04 L503.804 1150.92 L524.129 1144.87 L544.454 1142.57 L564.779 1183.82 L585.104 1230.98 L605.429 1282.14 L625.753 1331.73 L646.078 1359.55 L666.403 1373.21 L686.728 1382.53 L707.053 1381.68 L727.378 1375.15 L747.703 1320.97 L768.027 1295.45 L788.352 1244.29 L808.677 1210.18 L829.002 1171.48 L849.327 1160.35 L869.652 1153.22 L889.977 1169.06 L910.301 1189.14 L930.626 1252.75 L950.951 1289.88 L971.276 1334.63 L991.601 1381.56 L1011.93 1382.89 L1032.25 1369.22 L1052.58 1371.04 L1072.9 1330.52 L1093.23 1317.22 L1113.55 1266.3 L1133.87 1224.09 L1154.2 1176.92 L1174.52 1159.02 L1194.85 1147.53 L1215.17 1157.93 L1235.5 1185.63 L1255.82 1226.87 L1276.15 1280.93 L1296.47 1317.46 L1316.8 1359.43 L1337.12 1366.08 L1357.45 1385.43 L1377.77 1386.4 L1398.1 1350.23 L1418.42 1319.27 L1438.75 1280.69 L1459.07 1229.77 L1479.4 1195.79 L1499.72 1174.02 L1520.05 1147.29 L1540.37 1168.34 L1560.7 1171.24 L1581.02 1219.01 L1601.35 1246.46 L1621.67 1298.23 L1642 1331.25 L1662.32 1383.49 L1682.65 1374.18 L1702.97 1379.02 L1723.3 1361 L1743.62 1342.01 L1763.95 1299.07 L1784.27 1271.02 L1804.59 1214.78 L1824.92 1171.72 L1845.24 1162.65 L1865.57 1147.05 L1885.89 1161.68 L1906.22 1177.89 L1926.54 1234.98 L1946.87 1271.5 L1967.19 1316.97 L1987.52 1357.13 L2007.84 1376.12 L2028.17 1382.16 L2048.49 1370.55 L2068.82 1348.06 L2089.14 1335.72 L2109.47 1291.33 L2129.79 1246.71 L2150.12 1199.78 L2170.44 1194.7 L2190.77 1161.32 L2211.09 1167.37 L2231.42 1163.13 L2251.74 1206.19 L2272.07 1243.56 L2292.39 1296.05 L2292.39 313.733 L2272.07 261.244 L2251.74 223.872 L2231.42 180.817 L2211.09 185.05 L2190.77 179.002 L2170.44 212.383 L2150.12 217.462 L2129.79 264.388 L2109.47 309.016 L2089.14 353.402 L2068.82 365.738 L2048.49 388.234 L2028.17 399.844 L2007.84 393.797 L1987.52 374.809 L1967.19 334.656 L1946.87 289.182 L1926.54 252.657 L1906.22 195.572 L1885.89 179.365 L1865.57 164.731 L1845.24 180.333 L1824.92 189.404 L1804.59 232.459 L1784.27 288.698 L1763.95 316.757 L1743.62 359.691 L1723.3 378.679 L1702.97 396.7 L1682.65 391.862 L1662.32 401.175 L1642 348.927 L1621.67 315.91 L1601.35 264.146 L1581.02 236.692 L1560.7 188.92 L1540.37 186.017 L1520.05 164.973 L1499.72 191.701 L1479.4 213.471 L1459.07 247.456 L1438.75 298.373 L1418.42 336.954 L1398.1 367.915 L1377.77 404.077 L1357.45 403.11 L1337.12 383.759 L1316.8 377.107 L1296.47 335.14 L1276.15 298.615 L1255.82 244.554 L1235.5 203.312 L1215.17 175.616 L1194.85 165.215 L1174.52 176.705 L1154.2 194.604 L1133.87 241.772 L1113.55 283.981 L1093.23 334.898 L1072.9 348.202 L1052.58 388.718 L1032.25 386.903 L1011.93 400.57 L991.601 399.24 L971.276 352.314 L950.951 307.565 L930.626 270.435 L910.301 206.819 L889.977 186.743 L869.652 170.899 L849.327 178.035 L829.002 189.162 L808.677 227.863 L788.352 261.969 L768.027 313.128 L747.703 338.647 L727.378 392.83 L707.053 399.361 L686.728 400.207 L666.403 390.895 L646.078 377.228 L625.753 349.411 L605.429 299.825 L585.104 248.666 L564.779 201.498 L544.454 160.256 L524.129 162.554 L503.804 168.601 L483.48 194.725 L463.155 255.922 L442.83 279.022 L422.505 323.046 L402.18 365.859 L381.855 387.387 L361.53 390.048 L341.206 395.249 L320.881 374.809 L300.556 370.576 L280.231 342.759  Z" fill="#009af9" fill-rule="evenodd" fill-opacity="0.5"/>
<polyline clip-path="url(#clip872)" style="stroke:#009af9; stroke-linecap:round; stroke-linejoin:round; stroke-width:8; stroke-opacity:0.8; fill:none" points="280.231,833.918 300.556,861.735 320.881,865.968 341.206,886.408 361.53,881.207 381.855,878.546 402.18,857.019 422.505,814.205 442.83,770.181 463.155,747.081 483.48,685.884 503.804,659.761 524.129,653.713 544.454,651.415 564.779,692.657 585.104,739.825 605.429,790.984 625.753,840.57 646.078,868.387 666.403,882.054 686.728,891.366 707.053,890.52 727.378,883.989 747.703,829.806 768.027,804.287 788.352,753.129 808.677,719.023 829.002,680.321 849.327,669.194 869.652,662.058 889.977,677.902 910.301,697.979 930.626,761.595 950.951,798.724 971.276,843.473 991.601,890.399 1011.93,891.729 1032.25,878.063 1052.58,879.877 1072.9,839.361 1093.23,826.057 1113.55,775.14 1133.87,732.931 1154.2,685.763 1174.52,667.864 1194.85,656.374 1215.17,666.775 1235.5,694.471 1255.82,735.713 1276.15,789.774 1296.47,826.299 1316.8,868.266 1337.12,874.918 1357.45,894.269 1377.77,895.237 1398.1,859.075 1418.42,828.113 1438.75,789.532 1459.07,738.615 1479.4,704.63 1499.72,682.861 1520.05,656.132 1540.37,677.176 1560.7,680.079 1581.02,727.851 1601.35,755.305 1621.67,807.069 1642,840.087 1662.32,892.334 1682.65,883.021 1702.97,887.859 1723.3,869.838 1743.62,850.85 1763.95,807.916 1784.27,779.857 1804.59,723.618 1824.92,680.563 1845.24,671.492 1865.57,655.89 1885.89,670.524 1906.22,686.731 1926.54,743.816 1946.87,780.341 1967.19,825.815 1987.52,865.968 2007.84,884.956 2028.17,891.004 2048.49,879.393 2068.82,856.898 2089.14,844.561 2109.47,800.175 2129.79,755.547 2150.12,708.621 2170.44,703.542 2190.77,670.162 2211.09,676.209 2231.42,671.976 2251.74,715.031 2272.07,752.403 2292.39,804.892 "/>
<path clip-path="url(#clip872)" d="M280.231 1018.95 L300.556 1018.75 L320.881 1018.51 L341.206 1018.15 L361.53 1017.73 L381.855 1017.45 L402.18 1017.43 L422.505 1017.63 L442.83 1017.9 L463.155 1018.11 L483.48 1018.33 L503.804 1018.66 L524.129 1019.08 L544.454 1019.41 L564.779 1019.5 L585.104 1019.34 L605.429 1019.07 L625.753 1018.84 L646.078 1018.64 L666.403 1018.34 L686.728 1017.93 L707.053 1017.56 L727.378 1017.4 L747.703 1017.51 L768.027 1017.77 L788.352 1018.01 L808.677 1018.21 L829.002 1018.47 L849.327 1018.86 L869.652 1019.26 L889.977 1019.49 L910.301 1019.44 L930.626 1019.21 L950.951 1018.95 L971.276 1018.75 L991.601 1018.51 L1011.93 1018.15 L1032.25 1017.73 L1052.58 1017.45 L1072.9 1017.43 L1093.23 1017.63 L1113.55 1017.9 L1133.87 1018.11 L1154.2 1018.33 L1174.52 1018.66 L1194.85 1019.08 L1215.17 1019.41 L1235.5 1019.5 L1255.82 1019.34 L1276.15 1019.07 L1296.47 1018.84 L1316.8 1018.64 L1337.12 1018.34 L1357.45 1017.93 L1377.77 1017.56 L1398.1 1017.4 L1418.42 1017.51 L1438.75 1017.77 L1459.07 1018.01 L1479.4 1018.21 L1499.72 1018.47 L1520.05 1018.86 L1540.37 1019.26 L1560.7 1019.49 L1581.02 1019.44 L1601.35 1019.21 L1621.67 1018.95 L1642 1018.75 L1662.32 1018.51 L1682.65 1018.15 L1702.97 1017.73 L1723.3 1017.45 L1743.62 1017.43 L1763.95 1017.63 L1784.27 1017.9 L1804.59 1018.11 L1824.92 1018.33 L1845.24 1018.66 L1865.57 1019.08 L1885.89 1019.41 L1906.22 1019.5 L1926.54 1019.34 L1946.87 1019.07 L1967.19 1018.84 L1987.52 1018.64 L2007.84 1018.34 L2028.17 1017.93 L2048.49 1017.56 L2068.82 1017.4 L2089.14 1017.51 L2109.47 1017.77 L2129.79 1018.01 L2150.12 1018.21 L2170.44 1018.47 L2190.77 1018.86 L2211.09 1019.26 L2231.42 1019.49 L2251.74 1019.44 L2272.07 1019.21 L2292.39 1018.95 L2292.39 631.484 L2272.07 631.743 L2251.74 631.979 L2231.42 632.023 L2211.09 631.799 L2190.77 631.399 L2170.44 631.009 L2150.12 630.744 L2129.79 630.545 L2109.47 630.3 L2089.14 630.043 L2068.82 629.937 L2048.49 630.097 L2028.17 630.469 L2007.84 630.878 L1987.52 631.175 L1967.19 631.378 L1946.87 631.607 L1926.54 631.874 L1906.22 632.034 L1885.89 631.942 L1865.57 631.61 L1845.24 631.191 L1824.92 630.861 L1804.59 630.645 L1784.27 630.431 L1763.95 630.164 L1743.62 629.961 L1723.3 629.983 L1702.97 630.265 L1682.65 630.681 L1662.32 631.044 L1642 631.28 L1621.67 631.484 L1601.35 631.743 L1581.02 631.979 L1560.7 632.023 L1540.37 631.799 L1520.05 631.399 L1499.72 631.009 L1479.4 630.744 L1459.07 630.545 L1438.75 630.3 L1418.42 630.043 L1398.1 629.937 L1377.77 630.097 L1357.45 630.469 L1337.12 630.878 L1316.8 631.175 L1296.47 631.378 L1276.15 631.607 L1255.82 631.874 L1235.5 632.034 L1215.17 631.942 L1194.85 631.61 L1174.52 631.191 L1154.2 630.861 L1133.87 630.645 L1113.55 630.431 L1093.23 630.164 L1072.9 629.961 L1052.58 629.983 L1032.25 630.265 L1011.93 630.681 L991.601 631.044 L971.276 631.28 L950.951 631.484 L930.626 631.743 L910.301 631.979 L889.977 632.023 L869.652 631.799 L849.327 631.399 L829.002 631.009 L808.677 630.744 L788.352 630.545 L768.027 630.3 L747.703 630.043 L727.378 629.937 L707.053 630.097 L686.728 630.469 L666.403 630.878 L646.078 631.175 L625.753 631.378 L605.429 631.607 L585.104 631.874 L564.779 632.034 L544.454 631.942 L524.129 631.61 L503.804 631.191 L483.48 630.861 L463.155 630.645 L442.83 630.431 L422.505 630.164 L402.18 629.961 L381.855 629.983 L361.53 630.265 L341.206 630.681 L320.881 631.044 L300.556 631.28 L280.231 631.484  Z" fill="#e26f46" fill-rule="evenodd" fill-opacity="0.5"/>
<polyline clip-path="url(#clip872)" style="stroke:#e26f46; stroke-linecap:round; stroke-linejoin:round; stroke-width:8; stroke-opacity:0.8; fill:none" points="280.231,825.217 300.556,825.013 320.881,824.777 341.206,824.414 361.53,823.998 381.855,823.716 402.18,823.694 422.505,823.897 442.83,824.164 463.155,824.378 483.48,824.594 503.804,824.924 524.129,825.343 544.454,825.675 564.779,825.766 585.104,825.607 605.429,825.34 625.753,825.111 646.078,824.908 666.403,824.611 686.728,824.202 707.053,823.83 727.378,823.67 747.703,823.776 768.027,824.033 788.352,824.278 808.677,824.477 829.002,824.742 849.327,825.132 869.652,825.532 889.977,825.756 910.301,825.712 930.626,825.476 950.951,825.217 971.276,825.013 991.601,824.777 1011.93,824.414 1032.25,823.998 1052.58,823.716 1072.9,823.694 1093.23,823.897 1113.55,824.164 1133.87,824.378 1154.2,824.594 1174.52,824.924 1194.85,825.343 1215.17,825.675 1235.5,825.766 1255.82,825.607 1276.15,825.34 1296.47,825.111 1316.8,824.908 1337.12,824.611 1357.45,824.202 1377.77,823.83 1398.1,823.67 1418.42,823.776 1438.75,824.033 1459.07,824.278 1479.4,824.477 1499.72,824.742 1520.05,825.132 1540.37,825.532 1560.7,825.756 1581.02,825.712 1601.35,825.476 1621.67,825.217 1642,825.013 1662.32,824.777 1682.65,824.414 1702.97,823.998 1723.3,823.716 1743.62,823.694 1763.95,823.897 1784.27,824.164 1804.59,824.378 1824.92,824.594 1845.24,824.924 1865.57,825.343 1885.89,825.675 1906.22,825.766 1926.54,825.607 1946.87,825.34 1967.19,825.111 1987.52,824.908 2007.84,824.611 2028.17,824.202 2048.49,823.83 2068.82,823.67 2089.14,823.776 2109.47,824.033 2129.79,824.278 2150.12,824.477 2170.44,824.742 2190.77,825.132 2211.09,825.532 2231.42,825.756 2251.74,825.712 2272.07,825.476 2292.39,825.217 "/>
<path clip-path="url(#clip870)" d="M1565.06 322.316 L2281.66 322.316 L2281.66 166.796 L1565.06 166.796  Z" fill="#ffffff" fill-rule="evenodd" fill-opacity="1"/>
<polyline clip-path="url(#clip870)" style="stroke:#000000; stroke-linecap:round; stroke-linejoin:round; stroke-width:4; stroke-opacity:1; fill:none" points="1565.06,322.316 2281.66,322.316 2281.66,166.796 1565.06,166.796 1565.06,322.316 "/>
<polyline clip-path="url(#clip870)" style="stroke:#009af9; stroke-linecap:round; stroke-linejoin:round; stroke-width:8; stroke-opacity:0.8; fill:none" points="1588.76,218.636 1730.95,218.636 "/>
<path clip-path="url(#clip870)" d="M1754.65 201.356 L1761.62 201.356 L1770.44 224.874 L1779.31 201.356 L1786.27 201.356 L1786.27 235.916 L1781.71 235.916 L1781.71 205.569 L1772.8 229.272 L1768.1 229.272 L1759.19 205.569 L1759.19 235.916 L1754.65 235.916 L1754.65 201.356 Z" fill="#000000" fill-rule="nonzero" fill-opacity="1" /><path clip-path="url(#clip870)" d="M1800.23 205.198 L1800.23 218.184 L1806.11 218.184 Q1809.38 218.184 1811.16 216.495 Q1812.94 214.805 1812.94 211.68 Q1812.94 208.578 1811.16 206.888 Q1809.38 205.198 1806.11 205.198 L1800.23 205.198 M1795.56 201.356 L1806.11 201.356 Q1811.92 201.356 1814.88 203.995 Q1817.87 206.61 1817.87 211.68 Q1817.87 216.795 1814.88 219.411 Q1811.92 222.027 1806.11 222.027 L1800.23 222.027 L1800.23 235.916 L1795.56 235.916 L1795.56 201.356 Z" fill="#000000" fill-rule="nonzero" fill-opacity="1" /><path clip-path="url(#clip870)" d="M1844.86 202.49 L1844.86 207.05 Q1842.2 205.777 1839.84 205.152 Q1837.48 204.527 1835.28 204.527 Q1831.46 204.527 1829.38 206.008 Q1827.31 207.49 1827.31 210.221 Q1827.31 212.513 1828.68 213.694 Q1830.07 214.851 1833.91 215.569 L1836.74 216.147 Q1841.97 217.143 1844.44 219.666 Q1846.94 222.166 1846.94 226.379 Q1846.94 231.402 1843.56 233.994 Q1840.21 236.587 1833.7 236.587 Q1831.25 236.587 1828.47 236.031 Q1825.72 235.476 1822.75 234.388 L1822.75 229.573 Q1825.6 231.17 1828.33 231.981 Q1831.06 232.791 1833.7 232.791 Q1837.71 232.791 1839.88 231.217 Q1842.06 229.643 1842.06 226.726 Q1842.06 224.18 1840.49 222.744 Q1838.94 221.309 1835.37 220.592 L1832.52 220.036 Q1827.29 218.995 1824.95 216.772 Q1822.62 214.55 1822.62 210.592 Q1822.62 206.008 1825.83 203.37 Q1829.07 200.731 1834.75 200.731 Q1837.18 200.731 1839.7 201.171 Q1842.22 201.61 1844.86 202.49 Z" fill="#000000" fill-rule="nonzero" fill-opacity="1" /><path clip-path="url(#clip870)" d="M1873.98 205.198 L1873.98 232.073 L1879.63 232.073 Q1886.78 232.073 1890.09 228.832 Q1893.43 225.592 1893.43 218.601 Q1893.43 211.657 1890.09 208.439 Q1886.78 205.198 1879.63 205.198 L1873.98 205.198 M1869.31 201.356 L1878.91 201.356 Q1888.96 201.356 1893.66 205.546 Q1898.36 209.712 1898.36 218.601 Q1898.36 227.536 1893.63 231.726 Q1888.91 235.916 1878.91 235.916 L1869.31 235.916 L1869.31 201.356 Z" fill="#000000" fill-rule="nonzero" fill-opacity="1" /><path clip-path="url(#clip870)" d="M1905.62 209.99 L1909.88 209.99 L1909.88 235.916 L1905.62 235.916 L1905.62 209.99 M1905.62 199.897 L1909.88 199.897 L1909.88 205.291 L1905.62 205.291 L1905.62 199.897 Z" fill="#000000" fill-rule="nonzero" fill-opacity="1" /><path clip-path="url(#clip870)" d="M1935.32 210.754 L1935.32 214.782 Q1933.52 213.856 1931.57 213.393 Q1929.63 212.93 1927.55 212.93 Q1924.37 212.93 1922.78 213.902 Q1921.2 214.874 1921.2 216.819 Q1921.2 218.3 1922.34 219.157 Q1923.47 219.99 1926.9 220.754 L1928.36 221.078 Q1932.89 222.05 1934.79 223.832 Q1936.71 225.592 1936.71 228.763 Q1936.71 232.374 1933.84 234.481 Q1930.99 236.587 1925.99 236.587 Q1923.91 236.587 1921.64 236.17 Q1919.4 235.777 1916.9 234.967 L1916.9 230.569 Q1919.26 231.795 1921.55 232.42 Q1923.84 233.022 1926.09 233.022 Q1929.1 233.022 1930.72 232.004 Q1932.34 230.962 1932.34 229.087 Q1932.34 227.351 1931.16 226.425 Q1930 225.499 1926.04 224.643 L1924.56 224.295 Q1920.6 223.462 1918.84 221.749 Q1917.08 220.013 1917.08 217.004 Q1917.08 213.346 1919.68 211.356 Q1922.27 209.365 1927.04 209.365 Q1929.4 209.365 1931.48 209.712 Q1933.56 210.059 1935.32 210.754 Z" fill="#000000" fill-rule="nonzero" fill-opacity="1" /><path clip-path="url(#clip870)" d="M1947.71 202.629 L1947.71 209.99 L1956.48 209.99 L1956.48 213.3 L1947.71 213.3 L1947.71 227.374 Q1947.71 230.545 1948.56 231.448 Q1949.44 232.351 1952.11 232.351 L1956.48 232.351 L1956.48 235.916 L1952.11 235.916 Q1947.18 235.916 1945.3 234.087 Q1943.43 232.235 1943.43 227.374 L1943.43 213.3 L1940.3 213.3 L1940.3 209.99 L1943.43 209.99 L1943.43 202.629 L1947.71 202.629 Z" fill="#000000" fill-rule="nonzero" fill-opacity="1" /><path clip-path="url(#clip870)" d="M1977.11 213.971 Q1976.39 213.555 1975.53 213.37 Q1974.7 213.161 1973.68 213.161 Q1970.07 213.161 1968.12 215.522 Q1966.2 217.86 1966.2 222.258 L1966.2 235.916 L1961.92 235.916 L1961.92 209.99 L1966.2 209.99 L1966.2 214.018 Q1967.55 211.657 1969.7 210.522 Q1971.85 209.365 1974.93 209.365 Q1975.37 209.365 1975.9 209.434 Q1976.43 209.481 1977.08 209.596 L1977.11 213.971 Z" fill="#000000" fill-rule="nonzero" fill-opacity="1" /><path clip-path="url(#clip870)" d="M1981.57 209.99 L1985.83 209.99 L1985.83 235.916 L1981.57 235.916 L1981.57 209.99 M1981.57 199.897 L1985.83 199.897 L1985.83 205.291 L1981.57 205.291 L1981.57 199.897 Z" fill="#000000" fill-rule="nonzero" fill-opacity="1" /><path clip-path="url(#clip870)" d="M2013.36 222.976 Q2013.36 218.277 2011.41 215.615 Q2009.49 212.93 2006.11 212.93 Q2002.73 212.93 2000.79 215.615 Q1998.86 218.277 1998.86 222.976 Q1998.86 227.675 2000.79 230.36 Q2002.73 233.022 2006.11 233.022 Q2009.49 233.022 2011.41 230.36 Q2013.36 227.675 2013.36 222.976 M1998.86 213.925 Q2000.21 211.61 2002.24 210.499 Q2004.3 209.365 2007.15 209.365 Q2011.87 209.365 2014.81 213.115 Q2017.78 216.865 2017.78 222.976 Q2017.78 229.087 2014.81 232.837 Q2011.87 236.587 2007.15 236.587 Q2004.3 236.587 2002.24 235.476 Q2000.21 234.342 1998.86 232.027 L1998.86 235.916 L1994.58 235.916 L1994.58 199.897 L1998.86 199.897 L1998.86 213.925 Z" fill="#000000" fill-rule="nonzero" fill-opacity="1" /><path clip-path="url(#clip870)" d="M2024.4 225.684 L2024.4 209.99 L2028.66 209.99 L2028.66 225.522 Q2028.66 229.203 2030.09 231.055 Q2031.53 232.883 2034.4 232.883 Q2037.85 232.883 2039.84 230.684 Q2041.85 228.485 2041.85 224.689 L2041.85 209.99 L2046.11 209.99 L2046.11 235.916 L2041.85 235.916 L2041.85 231.934 Q2040.3 234.295 2038.24 235.453 Q2036.2 236.587 2033.49 236.587 Q2029.03 236.587 2026.71 233.809 Q2024.4 231.031 2024.4 225.684 M2035.11 209.365 L2035.11 209.365 Z" fill="#000000" fill-rule="nonzero" fill-opacity="1" /><path clip-path="url(#clip870)" d="M2059.1 202.629 L2059.1 209.99 L2067.87 209.99 L2067.87 213.3 L2059.1 213.3 L2059.1 227.374 Q2059.1 230.545 2059.95 231.448 Q2060.83 232.351 2063.49 232.351 L2067.87 232.351 L2067.87 235.916 L2063.49 235.916 Q2058.56 235.916 2056.69 234.087 Q2054.81 232.235 2054.81 227.374 L2054.81 213.3 L2051.69 213.3 L2051.69 209.99 L2054.81 209.99 L2054.81 202.629 L2059.1 202.629 Z" fill="#000000" fill-rule="nonzero" fill-opacity="1" /><path clip-path="url(#clip870)" d="M2073.47 209.99 L2077.73 209.99 L2077.73 235.916 L2073.47 235.916 L2073.47 209.99 M2073.47 199.897 L2077.73 199.897 L2077.73 205.291 L2073.47 205.291 L2073.47 199.897 Z" fill="#000000" fill-rule="nonzero" fill-opacity="1" /><path clip-path="url(#clip870)" d="M2096.69 212.976 Q2093.26 212.976 2091.27 215.661 Q2089.28 218.323 2089.28 222.976 Q2089.28 227.629 2091.25 230.314 Q2093.24 232.976 2096.69 232.976 Q2100.09 232.976 2102.08 230.291 Q2104.07 227.606 2104.07 222.976 Q2104.07 218.37 2102.08 215.684 Q2100.09 212.976 2096.69 212.976 M2096.69 209.365 Q2102.24 209.365 2105.42 212.976 Q2108.59 216.587 2108.59 222.976 Q2108.59 229.342 2105.42 232.976 Q2102.24 236.587 2096.69 236.587 Q2091.11 236.587 2087.94 232.976 Q2084.79 229.342 2084.79 222.976 Q2084.79 216.587 2087.94 212.976 Q2091.11 209.365 2096.69 209.365 Z" fill="#000000" fill-rule="nonzero" fill-opacity="1" /><path clip-path="url(#clip870)" d="M2137.2 220.268 L2137.2 235.916 L2132.94 235.916 L2132.94 220.407 Q2132.94 216.726 2131.5 214.897 Q2130.07 213.069 2127.2 213.069 Q2123.75 213.069 2121.76 215.268 Q2119.77 217.467 2119.77 221.263 L2119.77 235.916 L2115.48 235.916 L2115.48 209.99 L2119.77 209.99 L2119.77 214.018 Q2121.29 211.68 2123.36 210.522 Q2125.44 209.365 2128.15 209.365 Q2132.61 209.365 2134.91 212.143 Q2137.2 214.897 2137.2 220.268 Z" fill="#000000" fill-rule="nonzero" fill-opacity="1" /><polyline clip-path="url(#clip870)" style="stroke:#e26f46; stroke-linecap:round; stroke-linejoin:round; stroke-width:8; stroke-opacity:0.8; fill:none" points="1588.76,270.476 1730.95,270.476 "/>
<path clip-path="url(#clip870)" d="M1754.65 253.196 L1776.51 253.196 L1776.51 257.131 L1759.33 257.131 L1759.33 267.362 L1775.79 267.362 L1775.79 271.297 L1759.33 271.297 L1759.33 283.821 L1776.92 283.821 L1776.92 287.756 L1754.65 287.756 L1754.65 253.196 Z" fill="#000000" fill-rule="nonzero" fill-opacity="1" /><path clip-path="url(#clip870)" d="M1804.61 266.807 Q1806.2 263.936 1808.43 262.571 Q1810.65 261.205 1813.66 261.205 Q1817.71 261.205 1819.91 264.052 Q1822.11 266.876 1822.11 272.108 L1822.11 287.756 L1817.82 287.756 L1817.82 272.247 Q1817.82 268.52 1816.5 266.714 Q1815.19 264.909 1812.48 264.909 Q1809.17 264.909 1807.25 267.108 Q1805.32 269.307 1805.32 273.103 L1805.32 287.756 L1801.04 287.756 L1801.04 272.247 Q1801.04 268.497 1799.72 266.714 Q1798.4 264.909 1795.65 264.909 Q1792.38 264.909 1790.46 267.131 Q1788.54 269.33 1788.54 273.103 L1788.54 287.756 L1784.26 287.756 L1784.26 261.83 L1788.54 261.83 L1788.54 265.858 Q1790 263.473 1792.04 262.339 Q1794.07 261.205 1796.88 261.205 Q1799.7 261.205 1801.67 262.64 Q1803.66 264.075 1804.61 266.807 Z" fill="#000000" fill-rule="nonzero" fill-opacity="1" /><path clip-path="url(#clip870)" d="M1834.72 283.867 L1834.72 297.617 L1830.44 297.617 L1830.44 261.83 L1834.72 261.83 L1834.72 265.765 Q1836.06 263.45 1838.1 262.339 Q1840.16 261.205 1843.01 261.205 Q1847.73 261.205 1850.67 264.955 Q1853.63 268.705 1853.63 274.816 Q1853.63 280.927 1850.67 284.677 Q1847.73 288.427 1843.01 288.427 Q1840.16 288.427 1838.1 287.316 Q1836.06 286.182 1834.72 283.867 M1849.21 274.816 Q1849.21 270.117 1847.27 267.455 Q1845.35 264.77 1841.97 264.77 Q1838.59 264.77 1836.64 267.455 Q1834.72 270.117 1834.72 274.816 Q1834.72 279.515 1836.64 282.2 Q1838.59 284.862 1841.97 284.862 Q1845.35 284.862 1847.27 282.2 Q1849.21 279.515 1849.21 274.816 Z" fill="#000000" fill-rule="nonzero" fill-opacity="1" /><path clip-path="url(#clip870)" d="M1860.69 261.83 L1864.95 261.83 L1864.95 287.756 L1860.69 287.756 L1860.69 261.83 M1860.69 251.737 L1864.95 251.737 L1864.95 257.131 L1860.69 257.131 L1860.69 251.737 Z" fill="#000000" fill-rule="nonzero" fill-opacity="1" /><path clip-path="url(#clip870)" d="M1888.89 265.811 Q1888.17 265.395 1887.31 265.21 Q1886.48 265.001 1885.46 265.001 Q1881.85 265.001 1879.91 267.362 Q1877.99 269.7 1877.99 274.098 L1877.99 287.756 L1873.7 287.756 L1873.7 261.83 L1877.99 261.83 L1877.99 265.858 Q1879.33 263.497 1881.48 262.362 Q1883.63 261.205 1886.71 261.205 Q1887.15 261.205 1887.69 261.274 Q1888.22 261.321 1888.87 261.436 L1888.89 265.811 Z" fill="#000000" fill-rule="nonzero" fill-opacity="1" /><path clip-path="url(#clip870)" d="M1893.36 261.83 L1897.62 261.83 L1897.62 287.756 L1893.36 287.756 L1893.36 261.83 M1893.36 251.737 L1897.62 251.737 L1897.62 257.131 L1893.36 257.131 L1893.36 251.737 Z" fill="#000000" fill-rule="nonzero" fill-opacity="1" /><path clip-path="url(#clip870)" d="M1925.18 262.825 L1925.18 266.807 Q1923.38 265.811 1921.55 265.325 Q1919.75 264.816 1917.89 264.816 Q1913.75 264.816 1911.46 267.455 Q1909.17 270.071 1909.17 274.816 Q1909.17 279.561 1911.46 282.2 Q1913.75 284.816 1917.89 284.816 Q1919.75 284.816 1921.55 284.33 Q1923.38 283.821 1925.18 282.825 L1925.18 286.76 Q1923.4 287.594 1921.48 288.01 Q1919.58 288.427 1917.43 288.427 Q1911.57 288.427 1908.12 284.746 Q1904.68 281.066 1904.68 274.816 Q1904.68 268.473 1908.15 264.839 Q1911.64 261.205 1917.71 261.205 Q1919.68 261.205 1921.55 261.622 Q1923.43 262.015 1925.18 262.825 Z" fill="#000000" fill-rule="nonzero" fill-opacity="1" /><path clip-path="url(#clip870)" d="M1944.37 274.723 Q1939.21 274.723 1937.22 275.904 Q1935.23 277.084 1935.23 279.932 Q1935.23 282.2 1936.71 283.543 Q1938.22 284.862 1940.79 284.862 Q1944.33 284.862 1946.46 282.362 Q1948.61 279.839 1948.61 275.672 L1948.61 274.723 L1944.37 274.723 M1952.87 272.964 L1952.87 287.756 L1948.61 287.756 L1948.61 283.821 Q1947.15 286.182 1944.98 287.316 Q1942.8 288.427 1939.65 288.427 Q1935.67 288.427 1933.31 286.205 Q1930.97 283.959 1930.97 280.209 Q1930.97 275.834 1933.89 273.612 Q1936.83 271.39 1942.64 271.39 L1948.61 271.39 L1948.61 270.973 Q1948.61 268.034 1946.67 266.436 Q1944.74 264.816 1941.25 264.816 Q1939.03 264.816 1936.92 265.348 Q1934.81 265.881 1932.87 266.946 L1932.87 263.01 Q1935.21 262.108 1937.41 261.668 Q1939.61 261.205 1941.69 261.205 Q1947.31 261.205 1950.09 264.122 Q1952.87 267.038 1952.87 272.964 Z" fill="#000000" fill-rule="nonzero" fill-opacity="1" /><path clip-path="url(#clip870)" d="M1961.64 251.737 L1965.9 251.737 L1965.9 287.756 L1961.64 287.756 L1961.64 251.737 Z" fill="#000000" fill-rule="nonzero" fill-opacity="1" /><path clip-path="url(#clip870)" d="M1994.74 257.038 L1994.74 283.913 L2000.39 283.913 Q2007.55 283.913 2010.86 280.672 Q2014.19 277.432 2014.19 270.441 Q2014.19 263.497 2010.86 260.279 Q2007.55 257.038 2000.39 257.038 L1994.74 257.038 M1990.07 253.196 L1999.68 253.196 Q2009.72 253.196 2014.42 257.386 Q2019.12 261.552 2019.12 270.441 Q2019.12 279.376 2014.4 283.566 Q2009.68 287.756 1999.68 287.756 L1990.07 287.756 L1990.07 253.196 Z" fill="#000000" fill-rule="nonzero" fill-opacity="1" /><path clip-path="url(#clip870)" d="M2026.39 261.83 L2030.65 261.83 L2030.65 287.756 L2026.39 287.756 L2026.39 261.83 M2026.39 251.737 L2030.65 251.737 L2030.65 257.131 L2026.39 257.131 L2026.39 251.737 Z" fill="#000000" fill-rule="nonzero" fill-opacity="1" /><path clip-path="url(#clip870)" d="M2056.09 262.594 L2056.09 266.622 Q2054.28 265.696 2052.34 265.233 Q2050.39 264.77 2048.31 264.77 Q2045.14 264.77 2043.54 265.742 Q2041.97 266.714 2041.97 268.659 Q2041.97 270.14 2043.1 270.997 Q2044.24 271.83 2047.66 272.594 L2049.12 272.918 Q2053.66 273.89 2055.55 275.672 Q2057.48 277.432 2057.48 280.603 Q2057.48 284.214 2054.61 286.321 Q2051.76 288.427 2046.76 288.427 Q2044.67 288.427 2042.41 288.01 Q2040.16 287.617 2037.66 286.807 L2037.66 282.409 Q2040.02 283.635 2042.31 284.26 Q2044.61 284.862 2046.85 284.862 Q2049.86 284.862 2051.48 283.844 Q2053.1 282.802 2053.1 280.927 Q2053.1 279.191 2051.92 278.265 Q2050.76 277.339 2046.8 276.483 L2045.32 276.135 Q2041.36 275.302 2039.61 273.589 Q2037.85 271.853 2037.85 268.844 Q2037.85 265.186 2040.44 263.196 Q2043.03 261.205 2047.8 261.205 Q2050.16 261.205 2052.24 261.552 Q2054.33 261.899 2056.09 262.594 Z" fill="#000000" fill-rule="nonzero" fill-opacity="1" /><path clip-path="url(#clip870)" d="M2068.47 254.469 L2068.47 261.83 L2077.24 261.83 L2077.24 265.14 L2068.47 265.14 L2068.47 279.214 Q2068.47 282.385 2069.33 283.288 Q2070.21 284.191 2072.87 284.191 L2077.24 284.191 L2077.24 287.756 L2072.87 287.756 Q2067.94 287.756 2066.06 285.927 Q2064.19 284.075 2064.19 279.214 L2064.19 265.14 L2061.06 265.14 L2061.06 261.83 L2064.19 261.83 L2064.19 254.469 L2068.47 254.469 Z" fill="#000000" fill-rule="nonzero" fill-opacity="1" /><path clip-path="url(#clip870)" d="M2097.87 265.811 Q2097.15 265.395 2096.3 265.21 Q2095.46 265.001 2094.44 265.001 Q2090.83 265.001 2088.89 267.362 Q2086.97 269.7 2086.97 274.098 L2086.97 287.756 L2082.68 287.756 L2082.68 261.83 L2086.97 261.83 L2086.97 265.858 Q2088.31 263.497 2090.46 262.362 Q2092.61 261.205 2095.69 261.205 Q2096.13 261.205 2096.67 261.274 Q2097.2 261.321 2097.85 261.436 L2097.87 265.811 Z" fill="#000000" fill-rule="nonzero" fill-opacity="1" /><path clip-path="url(#clip870)" d="M2102.34 261.83 L2106.6 261.83 L2106.6 287.756 L2102.34 287.756 L2102.34 261.83 M2102.34 251.737 L2106.6 251.737 L2106.6 257.131 L2102.34 257.131 L2102.34 251.737 Z" fill="#000000" fill-rule="nonzero" fill-opacity="1" /><path clip-path="url(#clip870)" d="M2134.12 274.816 Q2134.12 270.117 2132.17 267.455 Q2130.25 264.77 2126.87 264.77 Q2123.49 264.77 2121.55 267.455 Q2119.63 270.117 2119.63 274.816 Q2119.63 279.515 2121.55 282.2 Q2123.49 284.862 2126.87 284.862 Q2130.25 284.862 2132.17 282.2 Q2134.12 279.515 2134.12 274.816 M2119.63 265.765 Q2120.97 263.45 2123.01 262.339 Q2125.07 261.205 2127.92 261.205 Q2132.64 261.205 2135.58 264.955 Q2138.54 268.705 2138.54 274.816 Q2138.54 280.927 2135.58 284.677 Q2132.64 288.427 2127.92 288.427 Q2125.07 288.427 2123.01 287.316 Q2120.97 286.182 2119.63 283.867 L2119.63 287.756 L2115.35 287.756 L2115.35 251.737 L2119.63 251.737 L2119.63 265.765 Z" fill="#000000" fill-rule="nonzero" fill-opacity="1" /><path clip-path="url(#clip870)" d="M2145.16 277.524 L2145.16 261.83 L2149.42 261.83 L2149.42 277.362 Q2149.42 281.043 2150.85 282.895 Q2152.29 284.723 2155.16 284.723 Q2158.61 284.723 2160.6 282.524 Q2162.61 280.325 2162.61 276.529 L2162.61 261.83 L2166.87 261.83 L2166.87 287.756 L2162.61 287.756 L2162.61 283.774 Q2161.06 286.135 2159 287.293 Q2156.97 288.427 2154.26 288.427 Q2149.79 288.427 2147.48 285.649 Q2145.16 282.871 2145.16 277.524 M2155.88 261.205 L2155.88 261.205 Z" fill="#000000" fill-rule="nonzero" fill-opacity="1" /><path clip-path="url(#clip870)" d="M2179.86 254.469 L2179.86 261.83 L2188.63 261.83 L2188.63 265.14 L2179.86 265.14 L2179.86 279.214 Q2179.86 282.385 2180.72 283.288 Q2181.6 284.191 2184.26 284.191 L2188.63 284.191 L2188.63 287.756 L2184.26 287.756 Q2179.33 287.756 2177.45 285.927 Q2175.58 284.075 2175.58 279.214 L2175.58 265.14 L2172.45 265.14 L2172.45 261.83 L2175.58 261.83 L2175.58 254.469 L2179.86 254.469 Z" fill="#000000" fill-rule="nonzero" fill-opacity="1" /><path clip-path="url(#clip870)" d="M2194.23 261.83 L2198.49 261.83 L2198.49 287.756 L2194.23 287.756 L2194.23 261.83 M2194.23 251.737 L2198.49 251.737 L2198.49 257.131 L2194.23 257.131 L2194.23 251.737 Z" fill="#000000" fill-rule="nonzero" fill-opacity="1" /><path clip-path="url(#clip870)" d="M2217.45 264.816 Q2214.03 264.816 2212.04 267.501 Q2210.04 270.163 2210.04 274.816 Q2210.04 279.469 2212.01 282.154 Q2214 284.816 2217.45 284.816 Q2220.85 284.816 2222.85 282.131 Q2224.84 279.446 2224.84 274.816 Q2224.84 270.21 2222.85 267.524 Q2220.85 264.816 2217.45 264.816 M2217.45 261.205 Q2223.01 261.205 2226.18 264.816 Q2229.35 268.427 2229.35 274.816 Q2229.35 281.182 2226.18 284.816 Q2223.01 288.427 2217.45 288.427 Q2211.87 288.427 2208.7 284.816 Q2205.55 281.182 2205.55 274.816 Q2205.55 268.427 2208.7 264.816 Q2211.87 261.205 2217.45 261.205 Z" fill="#000000" fill-rule="nonzero" fill-opacity="1" /><path clip-path="url(#clip870)" d="M2257.96 272.108 L2257.96 287.756 L2253.7 287.756 L2253.7 272.247 Q2253.7 268.566 2252.27 266.737 Q2250.83 264.909 2247.96 264.909 Q2244.51 264.909 2242.52 267.108 Q2240.53 269.307 2240.53 273.103 L2240.53 287.756 L2236.25 287.756 L2236.25 261.83 L2240.53 261.83 L2240.53 265.858 Q2242.06 263.52 2244.12 262.362 Q2246.2 261.205 2248.91 261.205 Q2253.38 261.205 2255.67 263.983 Q2257.96 266.737 2257.96 272.108 Z" fill="#000000" fill-rule="nonzero" fill-opacity="1" /></svg>
