<?xml version="1.0" encoding="utf-8"?>
<svg xmlns="http://www.w3.org/2000/svg" xmlns:xlink="http://www.w3.org/1999/xlink" width="600" height="400" viewBox="0 0 2400 1600">
<defs>
  <clipPath id="clip710">
    <rect x="0" y="0" width="2400" height="1600"/>
  </clipPath>
</defs>
<path clip-path="url(#clip710)" d="M0 1600 L2400 1600 L2400 8.88178e-14 L0 8.88178e-14  Z" fill="#ffffff" fill-rule="evenodd" fill-opacity="1"/>
<defs>
  <clipPath id="clip711">
    <rect x="480" y="0" width="1681" height="1600"/>
  </clipPath>
</defs>
<path clip-path="url(#clip710)" d="M219.866 1423.18 L2352.76 1423.18 L2352.76 123.472 L219.866 123.472  Z" fill="#ffffff" fill-rule="evenodd" fill-opacity="1"/>
<defs>
  <clipPath id="clip712">
    <rect x="219" y="123" width="2134" height="1301"/>
  </clipPath>
</defs>
<polyline clip-path="url(#clip712)" style="stroke:#000000; stroke-linecap:round; stroke-linejoin:round; stroke-width:2; stroke-opacity:0.1; fill:none" points="259.906,1423.18 259.906,123.472 "/>
<polyline clip-path="url(#clip712)" style="stroke:#000000; stroke-linecap:round; stroke-linejoin:round; stroke-width:2; stroke-opacity:0.1; fill:none" points="768.027,1423.18 768.027,123.472 "/>
<polyline clip-path="url(#clip712)" style="stroke:#000000; stroke-linecap:round; stroke-linejoin:round; stroke-width:2; stroke-opacity:0.1; fill:none" points="1276.15,1423.18 1276.15,123.472 "/>
<polyline clip-path="url(#clip712)" style="stroke:#000000; stroke-linecap:round; stroke-linejoin:round; stroke-width:2; stroke-opacity:0.1; fill:none" points="1784.27,1423.18 1784.27,123.472 "/>
<polyline clip-path="url(#clip712)" style="stroke:#000000; stroke-linecap:round; stroke-linejoin:round; stroke-width:2; stroke-opacity:0.1; fill:none" points="2292.39,1423.18 2292.39,123.472 "/>
<polyline clip-path="url(#clip710)" style="stroke:#000000; stroke-linecap:round; stroke-linejoin:round; stroke-width:4; stroke-opacity:1; fill:none" points="219.866,1423.18 2352.76,1423.18 "/>
<polyline clip-path="url(#clip710)" style="stroke:#000000; stroke-linecap:round; stroke-linejoin:round; stroke-width:4; stroke-opacity:1; fill:none" points="259.906,1423.18 259.906,1404.28 "/>
<polyline clip-path="url(#clip710)" style="stroke:#000000; stroke-linecap:round; stroke-linejoin:round; stroke-width:4; stroke-opacity:1; fill:none" points="768.027,1423.18 768.027,1404.28 "/>
<polyline clip-path="url(#clip710)" style="stroke:#000000; stroke-linecap:round; stroke-linejoin:round; stroke-width:4; stroke-opacity:1; fill:none" points="1276.15,1423.18 1276.15,1404.28 "/>
<polyline clip-path="url(#clip710)" style="stroke:#000000; stroke-linecap:round; stroke-linejoin:round; stroke-width:4; stroke-opacity:1; fill:none" points="1784.27,1423.18 1784.27,1404.28 "/>
<polyline clip-path="url(#clip710)" style="stroke:#000000; stroke-linecap:round; stroke-linejoin:round; stroke-width:4; stroke-opacity:1; fill:none" points="2292.39,1423.18 2292.39,1404.28 "/>
<path clip-path="url(#clip710)" d="M259.906 1454.1 Q256.295 1454.1 254.466 1457.66 Q252.661 1461.2 252.661 1468.33 Q252.661 1475.44 254.466 1479.01 Q256.295 1482.55 259.906 1482.55 Q263.54 1482.55 265.346 1479.01 Q267.175 1475.44 267.175 1468.33 Q267.175 1461.2 265.346 1457.66 Q263.54 1454.1 259.906 1454.1 M259.906 1450.39 Q265.716 1450.39 268.772 1455 Q271.851 1459.58 271.851 1468.33 Q271.851 1477.06 268.772 1481.67 Q265.716 1486.25 259.906 1486.25 Q254.096 1486.25 251.017 1481.67 Q247.962 1477.06 247.962 1468.33 Q247.962 1459.58 251.017 1455 Q254.096 1450.39 259.906 1450.39 Z" fill="#000000" fill-rule="nonzero" fill-opacity="1" /><path clip-path="url(#clip710)" d="M747.298 1481.64 L763.618 1481.64 L763.618 1485.58 L741.673 1485.58 L741.673 1481.64 Q744.335 1478.89 748.919 1474.26 Q753.525 1469.61 754.706 1468.27 Q756.951 1465.74 757.831 1464.01 Q758.734 1462.25 758.734 1460.56 Q758.734 1457.8 756.789 1456.07 Q754.868 1454.33 751.766 1454.33 Q749.567 1454.33 747.113 1455.09 Q744.683 1455.86 741.905 1457.41 L741.905 1452.69 Q744.729 1451.55 747.183 1450.97 Q749.636 1450.39 751.673 1450.39 Q757.044 1450.39 760.238 1453.08 Q763.433 1455.77 763.433 1460.26 Q763.433 1462.39 762.622 1464.31 Q761.835 1466.2 759.729 1468.8 Q759.15 1469.47 756.048 1472.69 Q752.947 1475.88 747.298 1481.64 Z" fill="#000000" fill-rule="nonzero" fill-opacity="1" /><path clip-path="url(#clip710)" d="M773.479 1451.02 L791.835 1451.02 L791.835 1454.96 L777.761 1454.96 L777.761 1463.43 Q778.78 1463.08 779.798 1462.92 Q780.817 1462.73 781.835 1462.73 Q787.622 1462.73 791.002 1465.9 Q794.381 1469.08 794.381 1474.49 Q794.381 1480.07 790.909 1483.17 Q787.437 1486.25 781.118 1486.25 Q778.942 1486.25 776.673 1485.88 Q774.428 1485.51 772.02 1484.77 L772.02 1480.07 Q774.104 1481.2 776.326 1481.76 Q778.548 1482.32 781.025 1482.32 Q785.03 1482.32 787.368 1480.21 Q789.706 1478.1 789.706 1474.49 Q789.706 1470.88 787.368 1468.77 Q785.03 1466.67 781.025 1466.67 Q779.15 1466.67 777.275 1467.08 Q775.423 1467.5 773.479 1468.38 L773.479 1451.02 Z" fill="#000000" fill-rule="nonzero" fill-opacity="1" /><path clip-path="url(#clip710)" d="M1250.85 1451.02 L1269.2 1451.02 L1269.2 1454.96 L1255.13 1454.96 L1255.13 1463.43 Q1256.15 1463.08 1257.17 1462.92 Q1258.19 1462.73 1259.2 1462.73 Q1264.99 1462.73 1268.37 1465.9 Q1271.75 1469.08 1271.75 1474.49 Q1271.75 1480.07 1268.28 1483.17 Q1264.81 1486.25 1258.49 1486.25 Q1256.31 1486.25 1254.04 1485.88 Q1251.8 1485.51 1249.39 1484.77 L1249.39 1480.07 Q1251.47 1481.2 1253.7 1481.76 Q1255.92 1482.32 1258.39 1482.32 Q1262.4 1482.32 1264.74 1480.21 Q1267.07 1478.1 1267.07 1474.49 Q1267.07 1470.88 1264.74 1468.77 Q1262.4 1466.67 1258.39 1466.67 Q1256.52 1466.67 1254.64 1467.08 Q1252.79 1467.5 1250.85 1468.38 L1250.85 1451.02 Z" fill="#000000" fill-rule="nonzero" fill-opacity="1" /><path clip-path="url(#clip710)" d="M1290.96 1454.1 Q1287.35 1454.1 1285.52 1457.66 Q1283.72 1461.2 1283.72 1468.33 Q1283.72 1475.44 1285.52 1479.01 Q1287.35 1482.55 1290.96 1482.55 Q1294.6 1482.55 1296.4 1479.01 Q1298.23 1475.44 1298.23 1468.33 Q1298.23 1461.2 1296.4 1457.66 Q1294.6 1454.1 1290.96 1454.1 M1290.96 1450.39 Q1296.77 1450.39 1299.83 1455 Q1302.91 1459.58 1302.91 1468.33 Q1302.91 1477.06 1299.83 1481.67 Q1296.77 1486.25 1290.96 1486.25 Q1285.15 1486.25 1282.07 1481.67 Q1279.02 1477.06 1279.02 1468.33 Q1279.02 1459.58 1282.07 1455 Q1285.15 1450.39 1290.96 1450.39 Z" fill="#000000" fill-rule="nonzero" fill-opacity="1" /><path clip-path="url(#clip710)" d="M1758.12 1451.02 L1780.35 1451.02 L1780.35 1453.01 L1767.8 1485.58 L1762.92 1485.58 L1774.72 1454.96 L1758.12 1454.96 L1758.12 1451.02 Z" fill="#000000" fill-rule="nonzero" fill-opacity="1" /><path clip-path="url(#clip710)" d="M1789.51 1451.02 L1807.87 1451.02 L1807.87 1454.96 L1793.8 1454.96 L1793.8 1463.43 Q1794.81 1463.08 1795.83 1462.92 Q1796.85 1462.73 1797.87 1462.73 Q1803.66 1462.73 1807.04 1465.9 Q1810.42 1469.08 1810.42 1474.49 Q1810.42 1480.07 1806.94 1483.17 Q1803.47 1486.25 1797.15 1486.25 Q1794.98 1486.25 1792.71 1485.88 Q1790.46 1485.51 1788.05 1484.77 L1788.05 1480.07 Q1790.14 1481.2 1792.36 1481.76 Q1794.58 1482.32 1797.06 1482.32 Q1801.06 1482.32 1803.4 1480.21 Q1805.74 1478.1 1805.74 1474.49 Q1805.74 1470.88 1803.4 1468.77 Q1801.06 1466.67 1797.06 1466.67 Q1795.18 1466.67 1793.31 1467.08 Q1791.46 1467.5 1789.51 1468.38 L1789.51 1451.02 Z" fill="#000000" fill-rule="nonzero" fill-opacity="1" /><path clip-path="url(#clip710)" d="M2252 1481.64 L2259.64 1481.64 L2259.64 1455.28 L2251.33 1456.95 L2251.33 1452.69 L2259.59 1451.02 L2264.27 1451.02 L2264.27 1481.64 L2271.91 1481.64 L2271.91 1485.58 L2252 1485.58 L2252 1481.64 Z" fill="#000000" fill-rule="nonzero" fill-opacity="1" /><path clip-path="url(#clip710)" d="M2291.35 1454.1 Q2287.74 1454.1 2285.91 1457.66 Q2284.1 1461.2 2284.1 1468.33 Q2284.1 1475.44 2285.91 1479.01 Q2287.74 1482.55 2291.35 1482.55 Q2294.98 1482.55 2296.79 1479.01 Q2298.62 1475.44 2298.62 1468.33 Q2298.62 1461.2 2296.79 1457.66 Q2294.98 1454.1 2291.35 1454.1 M2291.35 1450.39 Q2297.16 1450.39 2300.22 1455 Q2303.29 1459.58 2303.29 1468.33 Q2303.29 1477.06 2300.22 1481.67 Q2297.16 1486.25 2291.35 1486.25 Q2285.54 1486.25 2282.46 1481.67 Q2279.41 1477.06 2279.41 1468.33 Q2279.41 1459.58 2282.46 1455 Q2285.54 1450.39 2291.35 1450.39 Z" fill="#000000" fill-rule="nonzero" fill-opacity="1" /><path clip-path="url(#clip710)" d="M2321.51 1454.1 Q2317.9 1454.1 2316.07 1457.66 Q2314.27 1461.2 2314.27 1468.33 Q2314.27 1475.44 2316.07 1479.01 Q2317.9 1482.55 2321.51 1482.55 Q2325.15 1482.55 2326.95 1479.01 Q2328.78 1475.44 2328.78 1468.33 Q2328.78 1461.2 2326.95 1457.66 Q2325.15 1454.1 2321.51 1454.1 M2321.51 1450.39 Q2327.32 1450.39 2330.38 1455 Q2333.46 1459.58 2333.46 1468.33 Q2333.46 1477.06 2330.38 1481.67 Q2327.32 1486.25 2321.51 1486.25 Q2315.7 1486.25 2312.62 1481.67 Q2309.57 1477.06 2309.57 1468.33 Q2309.57 1459.58 2312.62 1455 Q2315.7 1450.39 2321.51 1450.39 Z" fill="#000000" fill-rule="nonzero" fill-opacity="1" /><path clip-path="url(#clip710)" d="M1225.47 1522.27 L1225.47 1532.4 L1237.53 1532.4 L1237.53 1536.95 L1225.47 1536.95 L1225.47 1556.3 Q1225.47 1560.66 1226.65 1561.9 Q1227.86 1563.14 1231.52 1563.14 L1237.53 1563.14 L1237.53 1568.04 L1231.52 1568.04 Q1224.74 1568.04 1222.16 1565.53 Q1219.58 1562.98 1219.58 1556.3 L1219.58 1536.95 L1215.29 1536.95 L1215.29 1532.4 L1219.58 1532.4 L1219.58 1522.27 L1225.47 1522.27 Z" fill="#000000" fill-rule="nonzero" fill-opacity="1" /><path clip-path="url(#clip710)" d="M1245.24 1532.4 L1251.09 1532.4 L1251.09 1568.04 L1245.24 1568.04 L1245.24 1532.4 M1245.24 1518.52 L1251.09 1518.52 L1251.09 1525.93 L1245.24 1525.93 L1245.24 1518.52 Z" fill="#000000" fill-rule="nonzero" fill-opacity="1" /><path clip-path="url(#clip710)" d="M1291.1 1539.24 Q1293.3 1535.29 1296.35 1533.41 Q1299.41 1531.54 1303.55 1531.54 Q1309.12 1531.54 1312.14 1535.45 Q1315.16 1539.33 1315.16 1546.53 L1315.16 1568.04 L1309.28 1568.04 L1309.28 1546.72 Q1309.28 1541.59 1307.46 1539.11 Q1305.65 1536.63 1301.92 1536.63 Q1297.37 1536.63 1294.73 1539.65 Q1292.09 1542.68 1292.09 1547.9 L1292.09 1568.04 L1286.2 1568.04 L1286.2 1546.72 Q1286.2 1541.56 1284.39 1539.11 Q1282.57 1536.63 1278.78 1536.63 Q1274.3 1536.63 1271.65 1539.68 Q1269.01 1542.71 1269.01 1547.9 L1269.01 1568.04 L1263.12 1568.04 L1263.12 1532.4 L1269.01 1532.4 L1269.01 1537.93 Q1271.02 1534.66 1273.82 1533.1 Q1276.62 1531.54 1280.47 1531.54 Q1284.35 1531.54 1287.06 1533.51 Q1289.8 1535.48 1291.1 1539.24 Z" fill="#000000" fill-rule="nonzero" fill-opacity="1" /><path clip-path="url(#clip710)" d="M1357.34 1548.76 L1357.34 1551.62 L1330.41 1551.62 Q1330.79 1557.67 1334.04 1560.85 Q1337.32 1564 1343.14 1564 Q1346.51 1564 1349.67 1563.17 Q1352.85 1562.35 1355.97 1560.69 L1355.97 1566.23 Q1352.82 1567.57 1349.51 1568.27 Q1346.2 1568.97 1342.79 1568.97 Q1334.26 1568.97 1329.26 1564 Q1324.3 1559.04 1324.3 1550.57 Q1324.3 1541.82 1329.01 1536.69 Q1333.75 1531.54 1341.77 1531.54 Q1348.97 1531.54 1353.14 1536.18 Q1357.34 1540.8 1357.34 1548.76 M1351.48 1547.04 Q1351.42 1542.23 1348.77 1539.37 Q1346.16 1536.5 1341.84 1536.5 Q1336.93 1536.5 1333.97 1539.27 Q1331.05 1542.04 1330.6 1547.07 L1351.48 1547.04 Z" fill="#000000" fill-rule="nonzero" fill-opacity="1" /><polyline clip-path="url(#clip712)" style="stroke:#000000; stroke-linecap:round; stroke-linejoin:round; stroke-width:2; stroke-opacity:0.1; fill:none" points="219.866,1187.72 2352.76,1187.72 "/>
<polyline clip-path="url(#clip712)" style="stroke:#000000; stroke-linecap:round; stroke-linejoin:round; stroke-width:2; stroke-opacity:0.1; fill:none" points="219.866,946.174 2352.76,946.174 "/>
<polyline clip-path="url(#clip712)" style="stroke:#000000; stroke-linecap:round; stroke-linejoin:round; stroke-width:2; stroke-opacity:0.1; fill:none" points="219.866,704.626 2352.76,704.626 "/>
<polyline clip-path="url(#clip712)" style="stroke:#000000; stroke-linecap:round; stroke-linejoin:round; stroke-width:2; stroke-opacity:0.1; fill:none" points="219.866,463.078 2352.76,463.078 "/>
<polyline clip-path="url(#clip712)" style="stroke:#000000; stroke-linecap:round; stroke-linejoin:round; stroke-width:2; stroke-opacity:0.1; fill:none" points="219.866,221.53 2352.76,221.53 "/>
<polyline clip-path="url(#clip710)" style="stroke:#000000; stroke-linecap:round; stroke-linejoin:round; stroke-width:4; stroke-opacity:1; fill:none" points="219.866,1423.18 219.866,123.472 "/>
<polyline clip-path="url(#clip710)" style="stroke:#000000; stroke-linecap:round; stroke-linejoin:round; stroke-width:4; stroke-opacity:1; fill:none" points="219.866,1187.72 238.764,1187.72 "/>
<polyline clip-path="url(#clip710)" style="stroke:#000000; stroke-linecap:round; stroke-linejoin:round; stroke-width:4; stroke-opacity:1; fill:none" points="219.866,946.174 238.764,946.174 "/>
<polyline clip-path="url(#clip710)" style="stroke:#000000; stroke-linecap:round; stroke-linejoin:round; stroke-width:4; stroke-opacity:1; fill:none" points="219.866,704.626 238.764,704.626 "/>
<polyline clip-path="url(#clip710)" style="stroke:#000000; stroke-linecap:round; stroke-linejoin:round; stroke-width:4; stroke-opacity:1; fill:none" points="219.866,463.078 238.764,463.078 "/>
<polyline clip-path="url(#clip710)" style="stroke:#000000; stroke-linecap:round; stroke-linejoin:round; stroke-width:4; stroke-opacity:1; fill:none" points="219.866,221.53 238.764,221.53 "/>
<path clip-path="url(#clip710)" d="M128.288 1173.52 Q124.677 1173.52 122.848 1177.08 Q121.043 1180.63 121.043 1187.76 Q121.043 1194.86 122.848 1198.43 Q124.677 1201.97 128.288 1201.97 Q131.922 1201.97 133.728 1198.43 Q135.556 1194.86 135.556 1187.76 Q135.556 1180.63 133.728 1177.08 Q131.922 1173.52 128.288 1173.52 M128.288 1169.82 Q134.098 1169.82 137.154 1174.42 Q140.232 1179.01 140.232 1187.76 Q140.232 1196.48 137.154 1201.09 Q134.098 1205.67 128.288 1205.67 Q122.478 1205.67 119.399 1201.09 Q116.343 1196.48 116.343 1187.76 Q116.343 1179.01 119.399 1174.42 Q122.478 1169.82 128.288 1169.82 Z" fill="#000000" fill-rule="nonzero" fill-opacity="1" /><path clip-path="url(#clip710)" d="M148.45 1199.12 L153.334 1199.12 L153.334 1205 L148.45 1205 L148.45 1199.12 Z" fill="#000000" fill-rule="nonzero" fill-opacity="1" /><path clip-path="url(#clip710)" d="M167.547 1201.07 L183.866 1201.07 L183.866 1205 L161.922 1205 L161.922 1201.07 Q164.584 1198.31 169.167 1193.68 Q173.774 1189.03 174.954 1187.69 Q177.2 1185.16 178.079 1183.43 Q178.982 1181.67 178.982 1179.98 Q178.982 1177.22 177.038 1175.49 Q175.116 1173.75 172.014 1173.75 Q169.815 1173.75 167.362 1174.52 Q164.931 1175.28 162.153 1176.83 L162.153 1172.11 Q164.977 1170.97 167.431 1170.4 Q169.885 1169.82 171.922 1169.82 Q177.292 1169.82 180.487 1172.5 Q183.681 1175.19 183.681 1179.68 Q183.681 1181.81 182.871 1183.73 Q182.084 1185.63 179.977 1188.22 Q179.399 1188.89 176.297 1192.11 Q173.195 1195.3 167.547 1201.07 Z" fill="#000000" fill-rule="nonzero" fill-opacity="1" /><path clip-path="url(#clip710)" d="M126.205 931.972 Q122.593 931.972 120.765 935.537 Q118.959 939.079 118.959 946.208 Q118.959 953.315 120.765 956.88 Q122.593 960.421 126.205 960.421 Q129.839 960.421 131.644 956.88 Q133.473 953.315 133.473 946.208 Q133.473 939.079 131.644 935.537 Q129.839 931.972 126.205 931.972 M126.205 928.269 Q132.015 928.269 135.07 932.875 Q138.149 937.458 138.149 946.208 Q138.149 954.935 135.07 959.542 Q132.015 964.125 126.205 964.125 Q120.394 964.125 117.316 959.542 Q114.26 954.935 114.26 946.208 Q114.26 937.458 117.316 932.875 Q120.394 928.269 126.205 928.269 Z" fill="#000000" fill-rule="nonzero" fill-opacity="1" /><path clip-path="url(#clip710)" d="M146.366 957.574 L151.251 957.574 L151.251 963.454 L146.366 963.454 L146.366 957.574 Z" fill="#000000" fill-rule="nonzero" fill-opacity="1" /><path clip-path="url(#clip710)" d="M174.283 932.968 L162.477 951.417 L174.283 951.417 L174.283 932.968 M173.056 928.894 L178.936 928.894 L178.936 951.417 L183.866 951.417 L183.866 955.305 L178.936 955.305 L178.936 963.454 L174.283 963.454 L174.283 955.305 L158.681 955.305 L158.681 950.792 L173.056 928.894 Z" fill="#000000" fill-rule="nonzero" fill-opacity="1" /><path clip-path="url(#clip710)" d="M126.529 690.424 Q122.918 690.424 121.089 693.989 Q119.283 697.531 119.283 704.66 Q119.283 711.767 121.089 715.332 Q122.918 718.873 126.529 718.873 Q130.163 718.873 131.968 715.332 Q133.797 711.767 133.797 704.66 Q133.797 697.531 131.968 693.989 Q130.163 690.424 126.529 690.424 M126.529 686.721 Q132.339 686.721 135.394 691.327 Q138.473 695.911 138.473 704.66 Q138.473 713.387 135.394 717.994 Q132.339 722.577 126.529 722.577 Q120.718 722.577 117.64 717.994 Q114.584 713.387 114.584 704.66 Q114.584 695.911 117.64 691.327 Q120.718 686.721 126.529 686.721 Z" fill="#000000" fill-rule="nonzero" fill-opacity="1" /><path clip-path="url(#clip710)" d="M146.691 716.026 L151.575 716.026 L151.575 721.906 L146.691 721.906 L146.691 716.026 Z" fill="#000000" fill-rule="nonzero" fill-opacity="1" /><path clip-path="url(#clip710)" d="M172.339 702.762 Q169.19 702.762 167.339 704.915 Q165.51 707.068 165.51 710.818 Q165.51 714.545 167.339 716.721 Q169.19 718.873 172.339 718.873 Q175.487 718.873 177.315 716.721 Q179.167 714.545 179.167 710.818 Q179.167 707.068 177.315 704.915 Q175.487 702.762 172.339 702.762 M181.621 688.11 L181.621 692.369 Q179.862 691.536 178.056 691.096 Q176.274 690.656 174.514 690.656 Q169.885 690.656 167.431 693.781 Q165.001 696.906 164.653 703.225 Q166.019 701.211 168.079 700.147 Q170.139 699.059 172.616 699.059 Q177.825 699.059 180.834 702.23 Q183.866 705.378 183.866 710.818 Q183.866 716.142 180.718 719.359 Q177.57 722.577 172.339 722.577 Q166.343 722.577 163.172 717.994 Q160.001 713.387 160.001 704.66 Q160.001 696.466 163.89 691.605 Q167.778 686.721 174.329 686.721 Q176.089 686.721 177.871 687.068 Q179.676 687.415 181.621 688.11 Z" fill="#000000" fill-rule="nonzero" fill-opacity="1" /><path clip-path="url(#clip710)" d="M126.783 448.877 Q123.172 448.877 121.343 452.441 Q119.538 455.983 119.538 463.113 Q119.538 470.219 121.343 473.784 Q123.172 477.326 126.783 477.326 Q130.417 477.326 132.223 473.784 Q134.052 470.219 134.052 463.113 Q134.052 455.983 132.223 452.441 Q130.417 448.877 126.783 448.877 M126.783 445.173 Q132.593 445.173 135.649 449.779 Q138.728 454.363 138.728 463.113 Q138.728 471.839 135.649 476.446 Q132.593 481.029 126.783 481.029 Q120.973 481.029 117.894 476.446 Q114.839 471.839 114.839 463.113 Q114.839 454.363 117.894 449.779 Q120.973 445.173 126.783 445.173 Z" fill="#000000" fill-rule="nonzero" fill-opacity="1" /><path clip-path="url(#clip710)" d="M146.945 474.478 L151.829 474.478 L151.829 480.358 L146.945 480.358 L146.945 474.478 Z" fill="#000000" fill-rule="nonzero" fill-opacity="1" /><path clip-path="url(#clip710)" d="M172.014 463.946 Q168.681 463.946 166.76 465.728 Q164.862 467.511 164.862 470.636 Q164.862 473.761 166.76 475.543 Q168.681 477.326 172.014 477.326 Q175.348 477.326 177.269 475.543 Q179.19 473.738 179.19 470.636 Q179.19 467.511 177.269 465.728 Q175.371 463.946 172.014 463.946 M167.339 461.955 Q164.329 461.215 162.64 459.154 Q160.973 457.094 160.973 454.131 Q160.973 449.988 163.913 447.58 Q166.876 445.173 172.014 445.173 Q177.176 445.173 180.116 447.58 Q183.056 449.988 183.056 454.131 Q183.056 457.094 181.366 459.154 Q179.7 461.215 176.714 461.955 Q180.093 462.742 181.968 465.034 Q183.866 467.326 183.866 470.636 Q183.866 475.659 180.788 478.344 Q177.732 481.029 172.014 481.029 Q166.297 481.029 163.218 478.344 Q160.163 475.659 160.163 470.636 Q160.163 467.326 162.061 465.034 Q163.959 462.742 167.339 461.955 M165.626 454.571 Q165.626 457.256 167.292 458.761 Q168.982 460.265 172.014 460.265 Q175.024 460.265 176.714 458.761 Q178.426 457.256 178.426 454.571 Q178.426 451.886 176.714 450.381 Q175.024 448.877 172.014 448.877 Q168.982 448.877 167.292 450.381 Q165.626 451.886 165.626 454.571 Z" fill="#000000" fill-rule="nonzero" fill-opacity="1" /><path clip-path="url(#clip710)" d="M117.501 234.875 L125.14 234.875 L125.14 208.509 L116.83 210.176 L116.83 205.917 L125.093 204.25 L129.769 204.25 L129.769 234.875 L137.408 234.875 L137.408 238.81 L117.501 238.81 L117.501 234.875 Z" fill="#000000" fill-rule="nonzero" fill-opacity="1" /><path clip-path="url(#clip710)" d="M146.853 232.931 L151.737 232.931 L151.737 238.81 L146.853 238.81 L146.853 232.931 Z" fill="#000000" fill-rule="nonzero" fill-opacity="1" /><path clip-path="url(#clip710)" d="M171.922 207.329 Q168.311 207.329 166.482 210.894 Q164.677 214.435 164.677 221.565 Q164.677 228.671 166.482 232.236 Q168.311 235.778 171.922 235.778 Q175.556 235.778 177.362 232.236 Q179.19 228.671 179.19 221.565 Q179.19 214.435 177.362 210.894 Q175.556 207.329 171.922 207.329 M171.922 203.625 Q177.732 203.625 180.788 208.232 Q183.866 212.815 183.866 221.565 Q183.866 230.292 180.788 234.898 Q177.732 239.481 171.922 239.481 Q166.112 239.481 163.033 234.898 Q159.978 230.292 159.978 221.565 Q159.978 212.815 163.033 208.232 Q166.112 203.625 171.922 203.625 Z" fill="#000000" fill-rule="nonzero" fill-opacity="1" /><path clip-path="url(#clip710)" d="M28.3562 756.711 L45.7028 769.602 L64.0042 756.043 L64.0042 762.95 L49.9996 773.326 L64.0042 783.702 L64.0042 790.609 L45.3526 776.763 L28.3562 789.431 L28.3562 782.524 L41.0558 773.071 L28.3562 763.618 L28.3562 756.711 Z" fill="#000000" fill-rule="nonzero" fill-opacity="1" /><path clip-path="url(#clip710)" d="M492.05 65.6895 L505.418 65.6895 L505.418 19.5497 L490.876 22.4663 L490.876 15.0127 L505.337 12.096 L513.52 12.096 L513.52 65.6895 L526.888 65.6895 L526.888 72.576 L492.05 72.576 L492.05 65.6895 Z" fill="#000000" fill-rule="nonzero" fill-opacity="1" /><path clip-path="url(#clip710)" d="M543.497 12.096 L575.62 12.096 L575.62 18.9825 L550.991 18.9825 L550.991 33.8088 Q552.773 33.2012 554.556 32.9176 Q556.338 32.5936 558.121 32.5936 Q568.248 32.5936 574.162 38.1433 Q580.076 43.6931 580.076 53.1722 Q580.076 62.9348 574 68.3631 Q567.924 73.7508 556.865 73.7508 Q553.057 73.7508 549.087 73.1026 Q545.158 72.4545 540.945 71.1582 L540.945 62.9348 Q544.591 64.9198 548.479 65.892 Q552.368 66.8642 556.703 66.8642 Q563.711 66.8642 567.802 63.1779 Q571.894 59.4916 571.894 53.1722 Q571.894 46.8528 567.802 43.1664 Q563.711 39.4801 556.703 39.4801 Q553.421 39.4801 550.14 40.2093 Q546.9 40.9384 543.497 42.4778 L543.497 12.096 Z" fill="#000000" fill-rule="nonzero" fill-opacity="1" /><path clip-path="url(#clip710)" d="M640.07 17.4837 Q633.751 17.4837 630.551 23.7221 Q627.391 29.92 627.391 42.3968 Q627.391 54.833 630.551 61.0714 Q633.751 67.2693 640.07 67.2693 Q646.43 67.2693 649.59 61.0714 Q652.79 54.833 652.79 42.3968 Q652.79 29.92 649.59 23.7221 Q646.43 17.4837 640.07 17.4837 M640.07 11.0023 Q650.238 11.0023 655.585 19.0636 Q660.973 27.0843 660.973 42.3968 Q660.973 57.6687 655.585 65.73 Q650.238 73.7508 640.07 73.7508 Q629.903 73.7508 624.515 65.73 Q619.168 57.6687 619.168 42.3968 Q619.168 27.0843 624.515 19.0636 Q629.903 11.0023 640.07 11.0023 Z" fill="#000000" fill-rule="nonzero" fill-opacity="1" /><path clip-path="url(#clip710)" d="M692.854 17.4837 Q686.534 17.4837 683.334 23.7221 Q680.174 29.92 680.174 42.3968 Q680.174 54.833 683.334 61.0714 Q686.534 67.2693 692.854 67.2693 Q699.214 67.2693 702.373 61.0714 Q705.573 54.833 705.573 42.3968 Q705.573 29.92 702.373 23.7221 Q699.214 17.4837 692.854 17.4837 M692.854 11.0023 Q703.021 11.0023 708.369 19.0636 Q713.756 27.0843 713.756 42.3968 Q713.756 57.6687 708.369 65.73 Q703.021 73.7508 692.854 73.7508 Q682.686 73.7508 677.298 65.73 Q671.951 57.6687 671.951 42.3968 Q671.951 27.0843 677.298 19.0636 Q682.686 11.0023 692.854 11.0023 Z" fill="#000000" fill-rule="nonzero" fill-opacity="1" /><path clip-path="url(#clip710)" d="M745.637 17.4837 Q739.317 17.4837 736.117 23.7221 Q732.958 29.92 732.958 42.3968 Q732.958 54.833 736.117 61.0714 Q739.317 67.2693 745.637 67.2693 Q751.997 67.2693 755.157 61.0714 Q758.357 54.833 758.357 42.3968 Q758.357 29.92 755.157 23.7221 Q751.997 17.4837 745.637 17.4837 M745.637 11.0023 Q755.805 11.0023 761.152 19.0636 Q766.54 27.0843 766.54 42.3968 Q766.54 57.6687 761.152 65.73 Q755.805 73.7508 745.637 73.7508 Q735.469 73.7508 730.081 65.73 Q724.734 57.6687 724.734 42.3968 Q724.734 27.0843 730.081 19.0636 Q735.469 11.0023 745.637 11.0023 Z" fill="#000000" fill-rule="nonzero" fill-opacity="1" /><path clip-path="url(#clip710)" d="M842.818 14.0809 L842.818 22.0612 Q838.16 19.8332 834.028 18.7395 Q829.896 17.6457 826.047 17.6457 Q819.363 17.6457 815.718 20.2383 Q812.112 22.8309 812.112 27.611 Q812.112 31.6214 814.502 33.6873 Q816.933 35.7128 823.657 36.9686 L828.599 37.9813 Q837.754 39.7232 842.089 44.1387 Q846.464 48.5136 846.464 55.8863 Q846.464 64.6767 840.55 69.2137 Q834.676 73.7508 823.293 73.7508 Q818.999 73.7508 814.138 72.7785 Q809.317 71.8063 804.132 69.9024 L804.132 61.4765 Q809.115 64.2716 813.895 65.6895 Q818.675 67.1073 823.293 67.1073 Q830.301 67.1073 834.109 64.3527 Q837.916 61.598 837.916 56.4939 Q837.916 52.0379 835.162 49.5264 Q832.448 47.0148 826.209 45.759 L821.227 44.7868 Q812.072 42.9639 807.98 39.075 Q803.889 35.1862 803.889 28.2591 Q803.889 20.2383 809.52 15.6203 Q815.191 11.0023 825.116 11.0023 Q829.369 11.0023 833.785 11.7719 Q838.2 12.5416 842.818 14.0809 Z" fill="#000000" fill-rule="nonzero" fill-opacity="1" /><path clip-path="url(#clip710)" d="M879.519 49.7694 Q870.486 49.7694 867.002 51.8354 Q863.518 53.9013 863.518 58.8839 Q863.518 62.8538 866.111 65.2034 Q868.744 67.5124 873.24 67.5124 Q879.438 67.5124 883.165 63.1374 Q886.932 58.7219 886.932 51.4303 L886.932 49.7694 L879.519 49.7694 M894.386 46.6907 L894.386 72.576 L886.932 72.576 L886.932 65.6895 Q884.38 69.8214 880.573 71.8063 Q876.765 73.7508 871.255 73.7508 Q864.288 73.7508 860.156 69.8619 Q856.065 65.9325 856.065 59.3701 Q856.065 51.7138 861.169 47.825 Q866.313 43.9361 876.481 43.9361 L886.932 43.9361 L886.932 43.2069 Q886.932 38.0623 883.53 35.2672 Q880.167 32.4315 874.051 32.4315 Q870.162 32.4315 866.475 33.3632 Q862.789 34.295 859.386 36.1584 L859.386 29.2718 Q863.478 27.692 867.326 26.9223 Q871.174 26.1121 874.82 26.1121 Q884.664 26.1121 889.525 31.2163 Q894.386 36.3204 894.386 46.6907 Z" fill="#000000" fill-rule="nonzero" fill-opacity="1" /><path clip-path="url(#clip710)" d="M945.063 35.9153 Q947.858 30.8922 951.747 28.5022 Q955.636 26.1121 960.902 26.1121 Q967.991 26.1121 971.839 31.0947 Q975.688 36.0368 975.688 45.1919 L975.688 72.576 L968.194 72.576 L968.194 45.4349 Q968.194 38.913 965.885 35.7533 Q963.576 32.5936 958.836 32.5936 Q953.043 32.5936 949.681 36.4419 Q946.319 40.2903 946.319 46.9338 L946.319 72.576 L938.825 72.576 L938.825 45.4349 Q938.825 38.8725 936.516 35.7533 Q934.206 32.5936 929.386 32.5936 Q923.674 32.5936 920.312 36.4824 Q916.95 40.3308 916.95 46.9338 L916.95 72.576 L909.455 72.576 L909.455 27.2059 L916.95 27.2059 L916.95 34.2544 Q919.502 30.082 923.067 28.0971 Q926.631 26.1121 931.533 26.1121 Q936.475 26.1121 939.918 28.6237 Q943.402 31.1352 945.063 35.9153 Z" fill="#000000" fill-rule="nonzero" fill-opacity="1" /><path clip-path="url(#clip710)" d="M997.765 65.7705 L997.765 89.8329 L990.271 89.8329 L990.271 27.2059 L997.765 27.2059 L997.765 34.0924 Q1000.11 30.0415 1003.68 28.0971 Q1007.28 26.1121 1012.27 26.1121 Q1020.53 26.1121 1025.68 32.6746 Q1030.86 39.2371 1030.86 49.9314 Q1030.86 60.6258 1025.68 67.1883 Q1020.53 73.7508 1012.27 73.7508 Q1007.28 73.7508 1003.68 71.8063 Q1000.11 69.8214 997.765 65.7705 M1023.12 49.9314 Q1023.12 41.7081 1019.72 37.0496 Q1016.36 32.3505 1010.44 32.3505 Q1004.53 32.3505 1001.13 37.0496 Q997.765 41.7081 997.765 49.9314 Q997.765 58.1548 1001.13 62.8538 Q1004.53 67.5124 1010.44 67.5124 Q1016.36 67.5124 1019.72 62.8538 Q1023.12 58.1548 1023.12 49.9314 Z" fill="#000000" fill-rule="nonzero" fill-opacity="1" /><path clip-path="url(#clip710)" d="M1043.22 9.54393 L1050.67 9.54393 L1050.67 72.576 L1043.22 72.576 L1043.22 9.54393 Z" fill="#000000" fill-rule="nonzero" fill-opacity="1" /><path clip-path="url(#clip710)" d="M1105.07 48.0275 L1105.07 51.6733 L1070.8 51.6733 Q1071.29 59.3701 1075.42 63.421 Q1079.59 67.4314 1087.01 67.4314 Q1091.3 67.4314 1095.31 66.3781 Q1099.36 65.3249 1103.33 63.2184 L1103.33 70.267 Q1099.32 71.9684 1095.11 72.8596 Q1090.9 73.7508 1086.56 73.7508 Q1075.7 73.7508 1069.34 67.4314 Q1063.03 61.1119 1063.03 50.3365 Q1063.03 39.1965 1069.02 32.6746 Q1075.06 26.1121 1085.26 26.1121 Q1094.42 26.1121 1099.73 32.0264 Q1105.07 37.9003 1105.07 48.0275 M1097.62 45.84 Q1097.54 39.7232 1094.18 36.0774 Q1090.85 32.4315 1085.35 32.4315 Q1079.11 32.4315 1075.34 35.9558 Q1071.61 39.4801 1071.05 45.8805 L1097.62 45.84 Z" fill="#000000" fill-rule="nonzero" fill-opacity="1" /><path clip-path="url(#clip710)" d="M1144 12.096 L1156.2 12.096 L1171.63 53.2532 L1187.14 12.096 L1199.34 12.096 L1199.34 72.576 L1191.36 72.576 L1191.36 19.4686 L1175.76 60.9499 L1167.54 60.9499 L1151.94 19.4686 L1151.94 72.576 L1144 72.576 L1144 12.096 Z" fill="#000000" fill-rule="nonzero" fill-opacity="1" /><path clip-path="url(#clip710)" d="M1254.07 48.0275 L1254.07 51.6733 L1219.8 51.6733 Q1220.28 59.3701 1224.41 63.421 Q1228.59 67.4314 1236 67.4314 Q1240.29 67.4314 1244.3 66.3781 Q1248.35 65.3249 1252.32 63.2184 L1252.32 70.267 Q1248.31 71.9684 1244.1 72.8596 Q1239.89 73.7508 1235.55 73.7508 Q1224.7 73.7508 1218.34 67.4314 Q1212.02 61.1119 1212.02 50.3365 Q1212.02 39.1965 1218.01 32.6746 Q1224.05 26.1121 1234.26 26.1121 Q1243.41 26.1121 1248.72 32.0264 Q1254.07 37.9003 1254.07 48.0275 M1246.61 45.84 Q1246.53 39.7232 1243.17 36.0774 Q1239.85 32.4315 1234.34 32.4315 Q1228.1 32.4315 1224.33 35.9558 Q1220.61 39.4801 1220.04 45.8805 L1246.61 45.84 Z" fill="#000000" fill-rule="nonzero" fill-opacity="1" /><path clip-path="url(#clip710)" d="M1286.92 49.7694 Q1277.89 49.7694 1274.4 51.8354 Q1270.92 53.9013 1270.92 58.8839 Q1270.92 62.8538 1273.51 65.2034 Q1276.14 67.5124 1280.64 67.5124 Q1286.84 67.5124 1290.56 63.1374 Q1294.33 58.7219 1294.33 51.4303 L1294.33 49.7694 L1286.92 49.7694 M1301.79 46.6907 L1301.79 72.576 L1294.33 72.576 L1294.33 65.6895 Q1291.78 69.8214 1287.97 71.8063 Q1284.16 73.7508 1278.65 73.7508 Q1271.69 73.7508 1267.56 69.8619 Q1263.46 65.9325 1263.46 59.3701 Q1263.46 51.7138 1268.57 47.825 Q1273.71 43.9361 1283.88 43.9361 L1294.33 43.9361 L1294.33 43.2069 Q1294.33 38.0623 1290.93 35.2672 Q1287.57 32.4315 1281.45 32.4315 Q1277.56 32.4315 1273.87 33.3632 Q1270.19 34.295 1266.79 36.1584 L1266.79 29.2718 Q1270.88 27.692 1274.73 26.9223 Q1278.57 26.1121 1282.22 26.1121 Q1292.06 26.1121 1296.92 31.2163 Q1301.79 36.3204 1301.79 46.6907 Z" fill="#000000" fill-rule="nonzero" fill-opacity="1" /><path clip-path="url(#clip710)" d="M1354.85 45.1919 L1354.85 72.576 L1347.4 72.576 L1347.4 45.4349 Q1347.4 38.994 1344.89 35.7938 Q1342.38 32.5936 1337.35 32.5936 Q1331.32 32.5936 1327.83 36.4419 Q1324.35 40.2903 1324.35 46.9338 L1324.35 72.576 L1316.85 72.576 L1316.85 27.2059 L1324.35 27.2059 L1324.35 34.2544 Q1327.02 30.163 1330.63 28.1376 Q1334.27 26.1121 1339.01 26.1121 Q1346.83 26.1121 1350.84 30.9732 Q1354.85 35.7938 1354.85 45.1919 Z" fill="#000000" fill-rule="nonzero" fill-opacity="1" /><path clip-path="url(#clip710)" d="M1416.71 49.7694 Q1407.68 49.7694 1404.19 51.8354 Q1400.71 53.9013 1400.71 58.8839 Q1400.71 62.8538 1403.3 65.2034 Q1405.93 67.5124 1410.43 67.5124 Q1416.63 67.5124 1420.36 63.1374 Q1424.12 58.7219 1424.12 51.4303 L1424.12 49.7694 L1416.71 49.7694 M1431.58 46.6907 L1431.58 72.576 L1424.12 72.576 L1424.12 65.6895 Q1421.57 69.8214 1417.76 71.8063 Q1413.96 73.7508 1408.45 73.7508 Q1401.48 73.7508 1397.35 69.8619 Q1393.25 65.9325 1393.25 59.3701 Q1393.25 51.7138 1398.36 47.825 Q1403.5 43.9361 1413.67 43.9361 L1424.12 43.9361 L1424.12 43.2069 Q1424.12 38.0623 1420.72 35.2672 Q1417.36 32.4315 1411.24 32.4315 Q1407.35 32.4315 1403.67 33.3632 Q1399.98 34.295 1396.58 36.1584 L1396.58 29.2718 Q1400.67 27.692 1404.52 26.9223 Q1408.36 26.1121 1412.01 26.1121 Q1421.85 26.1121 1426.72 31.2163 Q1431.58 36.3204 1431.58 46.6907 Z" fill="#000000" fill-rule="nonzero" fill-opacity="1" /><path clip-path="url(#clip710)" d="M1484.64 45.1919 L1484.64 72.576 L1477.19 72.576 L1477.19 45.4349 Q1477.19 38.994 1474.68 35.7938 Q1472.17 32.5936 1467.14 32.5936 Q1461.11 32.5936 1457.62 36.4419 Q1454.14 40.2903 1454.14 46.9338 L1454.14 72.576 L1446.65 72.576 L1446.65 27.2059 L1454.14 27.2059 L1454.14 34.2544 Q1456.81 30.163 1460.42 28.1376 Q1464.06 26.1121 1468.8 26.1121 Q1476.62 26.1121 1480.63 30.9732 Q1484.64 35.7938 1484.64 45.1919 Z" fill="#000000" fill-rule="nonzero" fill-opacity="1" /><path clip-path="url(#clip710)" d="M1529.37 34.0924 L1529.37 9.54393 L1536.82 9.54393 L1536.82 72.576 L1529.37 72.576 L1529.37 65.7705 Q1527.02 69.8214 1523.41 71.8063 Q1519.85 73.7508 1514.82 73.7508 Q1506.6 73.7508 1501.41 67.1883 Q1496.27 60.6258 1496.27 49.9314 Q1496.27 39.2371 1501.41 32.6746 Q1506.6 26.1121 1514.82 26.1121 Q1519.85 26.1121 1523.41 28.0971 Q1527.02 30.0415 1529.37 34.0924 M1503.97 49.9314 Q1503.97 58.1548 1507.33 62.8538 Q1510.73 67.5124 1516.65 67.5124 Q1522.56 67.5124 1525.96 62.8538 Q1529.37 58.1548 1529.37 49.9314 Q1529.37 41.7081 1525.96 37.0496 Q1522.56 32.3505 1516.65 32.3505 Q1510.73 32.3505 1507.33 37.0496 Q1503.97 41.7081 1503.97 49.9314 Z" fill="#000000" fill-rule="nonzero" fill-opacity="1" /><path clip-path="url(#clip710)" d="M1615.12 14.0809 L1615.12 22.0612 Q1610.46 19.8332 1606.33 18.7395 Q1602.2 17.6457 1598.35 17.6457 Q1591.67 17.6457 1588.02 20.2383 Q1584.42 22.8309 1584.42 27.611 Q1584.42 31.6214 1586.81 33.6873 Q1589.24 35.7128 1595.96 36.9686 L1600.9 37.9813 Q1610.06 39.7232 1614.39 44.1387 Q1618.77 48.5136 1618.77 55.8863 Q1618.77 64.6767 1612.85 69.2137 Q1606.98 73.7508 1595.6 73.7508 Q1591.3 73.7508 1586.44 72.7785 Q1581.62 71.8063 1576.44 69.9024 L1576.44 61.4765 Q1581.42 64.2716 1586.2 65.6895 Q1590.98 67.1073 1595.6 67.1073 Q1602.61 67.1073 1606.41 64.3527 Q1610.22 61.598 1610.22 56.4939 Q1610.22 52.0379 1607.47 49.5264 Q1604.75 47.0148 1598.51 45.759 L1593.53 44.7868 Q1584.38 42.9639 1580.29 39.075 Q1576.19 35.1862 1576.19 28.2591 Q1576.19 20.2383 1581.82 15.6203 Q1587.5 11.0023 1597.42 11.0023 Q1601.67 11.0023 1606.09 11.7719 Q1610.5 12.5416 1615.12 14.0809 Z" fill="#000000" fill-rule="nonzero" fill-opacity="1" /><path clip-path="url(#clip710)" d="M1638.58 14.324 L1638.58 27.2059 L1653.93 27.2059 L1653.93 32.9987 L1638.58 32.9987 L1638.58 57.6282 Q1638.58 63.1779 1640.08 64.7578 Q1641.62 66.3376 1646.27 66.3376 L1653.93 66.3376 L1653.93 72.576 L1646.27 72.576 Q1637.65 72.576 1634.36 69.3758 Q1631.08 66.1351 1631.08 57.6282 L1631.08 32.9987 L1625.61 32.9987 L1625.61 27.2059 L1631.08 27.2059 L1631.08 14.324 L1638.58 14.324 Z" fill="#000000" fill-rule="nonzero" fill-opacity="1" /><path clip-path="url(#clip710)" d="M1693.59 34.0924 L1693.59 9.54393 L1701.04 9.54393 L1701.04 72.576 L1693.59 72.576 L1693.59 65.7705 Q1691.24 69.8214 1687.63 71.8063 Q1684.07 73.7508 1679.05 73.7508 Q1670.82 73.7508 1665.64 67.1883 Q1660.49 60.6258 1660.49 49.9314 Q1660.49 39.2371 1665.64 32.6746 Q1670.82 26.1121 1679.05 26.1121 Q1684.07 26.1121 1687.63 28.0971 Q1691.24 30.0415 1693.59 34.0924 M1668.19 49.9314 Q1668.19 58.1548 1671.55 62.8538 Q1674.95 67.5124 1680.87 67.5124 Q1686.78 67.5124 1690.19 62.8538 Q1693.59 58.1548 1693.59 49.9314 Q1693.59 41.7081 1690.19 37.0496 Q1686.78 32.3505 1680.87 32.3505 Q1674.95 32.3505 1671.55 37.0496 Q1668.19 41.7081 1668.19 49.9314 Z" fill="#000000" fill-rule="nonzero" fill-opacity="1" /><path clip-path="url(#clip710)" d="M1717.45 62.2867 L1726 62.2867 L1726 72.576 L1717.45 72.576 L1717.45 62.2867 Z" fill="#000000" fill-rule="nonzero" fill-opacity="1" /><path clip-path="url(#clip710)" d="M1744.67 62.2867 L1753.22 62.2867 L1753.22 69.2543 L1746.57 82.2172 L1741.35 82.2172 L1744.67 69.2543 L1744.67 62.2867 Z" fill="#000000" fill-rule="nonzero" fill-opacity="1" /><path clip-path="url(#clip710)" d="M1828.36 20.0358 Q1824.23 17.2001 1814.55 17.2001 Q1804.3 17.2001 1804.3 21.9397 Q1804.3 25.6665 1814.99 27.611 Q1823.42 29.1098 1828.16 33.6468 Q1833.91 39.1155 1833.91 50.3365 Q1833.91 61.0714 1828.36 67.3908 Q1822.81 73.7508 1813.09 73.7508 Q1803.41 73.7508 1797.82 67.3908 Q1792.27 61.0714 1792.27 49.9314 Q1792.27 41.6676 1797.82 34.9836 Q1799.97 32.391 1803 30.9327 Q1796.68 27.7325 1796.68 22.0207 Q1796.68 11.0023 1814.55 11.0023 Q1823.5 11.0023 1828.36 13.8379 L1828.36 20.0358 M1808.59 32.9582 Q1805.84 34.1329 1803.61 37.0901 Q1800.13 41.6676 1800.13 49.9314 Q1800.13 58.1548 1803.57 62.7728 Q1807.05 67.4314 1813.09 67.4314 Q1819.05 67.4314 1822.53 62.7323 Q1826.01 58.0333 1826.01 50.3365 Q1826.01 42.2752 1822.33 38.3864 Q1818.4 34.2139 1813.29 33.7683 Q1810.7 33.5253 1808.59 32.9582 Z" fill="#000000" fill-rule="nonzero" fill-opacity="1" /><path clip-path="url(#clip710)" d="M1883.98 27.2059 L1867.58 49.2833 L1884.83 72.576 L1876.04 72.576 L1862.84 54.752 L1849.63 72.576 L1840.84 72.576 L1858.46 48.8377 L1842.34 27.2059 L1851.13 27.2059 L1863.16 43.369 L1875.19 27.2059 L1883.98 27.2059 Z" fill="#000000" fill-rule="nonzero" fill-opacity="1" /><path clip-path="url(#clip710)" d="M1896.34 34.9026 L1948.27 34.9026 L1948.27 41.7081 L1896.34 41.7081 L1896.34 34.9026 M1896.34 51.4303 L1948.27 51.4303 L1948.27 58.3168 L1896.34 58.3168 L1896.34 51.4303 Z" fill="#000000" fill-rule="nonzero" fill-opacity="1" /><path clip-path="url(#clip710)" d="M1983.43 17.4837 Q1977.11 17.4837 1973.91 23.7221 Q1970.75 29.92 1970.75 42.3968 Q1970.75 54.833 1973.91 61.0714 Q1977.11 67.2693 1983.43 67.2693 Q1989.79 67.2693 1992.95 61.0714 Q1996.15 54.833 1996.15 42.3968 Q1996.15 29.92 1992.95 23.7221 Q1989.79 17.4837 1983.43 17.4837 M1983.43 11.0023 Q1993.6 11.0023 1998.95 19.0636 Q2004.33 27.0843 2004.33 42.3968 Q2004.33 57.6687 1998.95 65.73 Q1993.6 73.7508 1983.43 73.7508 Q1973.26 73.7508 1967.88 65.73 Q1962.53 57.6687 1962.53 42.3968 Q1962.53 27.0843 1967.88 19.0636 Q1973.26 11.0023 1983.43 11.0023 Z" fill="#000000" fill-rule="nonzero" fill-opacity="1" /><path clip-path="url(#clip710)" d="M2018.71 62.2867 L2027.26 62.2867 L2027.26 72.576 L2018.71 72.576 L2018.71 62.2867 Z" fill="#000000" fill-rule="nonzero" fill-opacity="1" /><path clip-path="url(#clip710)" d="M2045.17 12.096 L2077.29 12.096 L2077.29 18.9825 L2052.66 18.9825 L2052.66 33.8088 Q2054.44 33.2012 2056.23 32.9176 Q2058.01 32.5936 2059.79 32.5936 Q2069.92 32.5936 2075.83 38.1433 Q2081.75 43.6931 2081.75 53.1722 Q2081.75 62.9348 2075.67 68.3631 Q2069.59 73.7508 2058.53 73.7508 Q2054.73 73.7508 2050.76 73.1026 Q2046.83 72.4545 2042.61 71.1582 L2042.61 62.9348 Q2046.26 64.9198 2050.15 65.892 Q2054.04 66.8642 2058.37 66.8642 Q2065.38 66.8642 2069.47 63.1779 Q2073.56 59.4916 2073.56 53.1722 Q2073.56 46.8528 2069.47 43.1664 Q2065.38 39.4801 2058.37 39.4801 Q2055.09 39.4801 2051.81 40.2093 Q2048.57 40.9384 2045.17 42.4778 L2045.17 12.096 Z" fill="#000000" fill-rule="nonzero" fill-opacity="1" /><path clip-path="url(#clip712)" d="M280.231 1319.45 L300.556 1347.26 L320.881 1362.36 L341.206 1375.77 L361.53 1369 L381.855 1365.7 L402.18 1352.98 L422.505 1329.27 L442.83 1277.7 L463.155 1231.85 L483.48 1193.76 L503.804 1157.13 L524.129 1155.52 L544.454 1157.57 L564.779 1185.39 L585.104 1226.69 L605.429 1275.32 L625.753 1325.77 L646.078 1360.51 L666.403 1374.44 L686.728 1386.11 L707.053 1378.75 L727.378 1368.28 L747.703 1332.93 L768.027 1293.2 L788.352 1249.8 L808.677 1205.56 L829.002 1178.46 L849.327 1153.42 L869.652 1147.14 L889.977 1176.05 L910.301 1199.92 L930.626 1254.99 L950.951 1299.96 L971.276 1342.23 L991.601 1365.02 L1011.93 1386.4 L1032.25 1380.08 L1052.58 1377.14 L1072.9 1346.34 L1093.23 1311.4 L1113.55 1276.65 L1133.87 1231.97 L1154.2 1190.7 L1174.52 1159.1 L1194.85 1157.13 L1215.17 1163.73 L1235.5 1187.16 L1255.82 1223.79 L1276.15 1278.54 L1296.47 1323.11 L1316.8 1354.99 L1337.12 1377.74 L1357.45 1380.4 L1377.77 1380.2 L1398.1 1366.03 L1418.42 1338.45 L1438.75 1291.99 L1459.07 1257.45 L1479.4 1208.25 L1499.72 1176.93 L1520.05 1156.2 L1540.37 1161.11 L1560.7 1168.2 L1581.02 1208.78 L1601.35 1250.65 L1621.67 1293.36 L1642 1337.08 L1662.32 1358.05 L1682.65 1379.87 L1702.97 1385.39 L1723.3 1370.13 L1743.62 1340.58 L1763.95 1308.54 L1784.27 1271.54 L1804.59 1232.73 L1824.92 1191.18 L1845.24 1159.26 L1865.57 1160.15 L1885.89 1168.8 L1906.22 1190.9 L1926.54 1224.36 L1946.87 1275.44 L1967.19 1319.25 L1987.52 1351.25 L2007.84 1368.72 L2028.17 1382.57 L2048.49 1377.22 L2068.82 1357.69 L2089.14 1325.69 L2109.47 1283.25 L2129.79 1251.61 L2150.12 1205.4 L2170.44 1180.52 L2190.77 1159.14 L2211.09 1151.93 L2231.42 1172.87 L2251.74 1209.14 L2272.07 1244.73 L2292.39 1299.16 L2292.39 312.27 L2272.07 257.842 L2251.74 222.254 L2231.42 185.981 L2211.09 165.047 L2190.77 172.253 L2170.44 193.63 L2150.12 218.51 L2129.79 264.726 L2109.47 296.368 L2089.14 338.8 L2068.82 370.805 L2048.49 390.331 L2028.17 395.685 L2007.84 381.836 L1987.52 364.364 L1967.19 332.359 L1946.87 288.558 L1926.54 237.471 L1906.22 204.017 L1885.89 181.915 L1865.57 173.26 L1845.24 172.374 L1824.92 204.299 L1804.59 245.845 L1784.27 284.653 L1763.95 321.65 L1743.62 353.696 L1723.3 383.245 L1702.97 398.503 L1682.65 392.988 L1662.32 371.168 L1642 350.193 L1621.67 306.473 L1601.35 263.76 L1581.02 221.891 L1560.7 181.311 L1540.37 174.226 L1520.05 169.314 L1499.72 190.047 L1479.4 221.368 L1459.07 270.563 L1438.75 305.104 L1418.42 351.562 L1398.1 379.139 L1377.77 393.31 L1357.45 393.511 L1337.12 390.854 L1316.8 368.108 L1296.47 336.224 L1276.15 291.658 L1255.82 236.907 L1235.5 200.273 L1215.17 176.843 L1194.85 170.24 L1174.52 172.213 L1154.2 203.815 L1133.87 245.08 L1113.55 289.766 L1093.23 324.509 L1072.9 359.453 L1052.58 390.25 L1032.25 393.189 L1011.93 399.509 L991.601 378.132 L971.276 355.346 L950.951 313.076 L930.626 268.107 L910.301 213.035 L889.977 189.162 L869.652 160.256 L849.327 166.537 L829.002 191.577 L808.677 218.671 L788.352 262.914 L768.027 306.312 L747.703 346.047 L727.378 381.393 L707.053 391.86 L686.728 399.228 L666.403 387.553 L646.078 373.624 L625.753 338.881 L605.429 288.438 L585.104 239.806 L564.779 198.501 L544.454 170.683 L524.129 168.63 L503.804 170.24 L483.48 206.875 L463.155 244.959 L442.83 290.813 L422.505 342.383 L402.18 366.095 L381.855 378.817 L361.53 382.118 L341.206 388.881 L320.881 375.475 L300.556 360.379 L280.231 332.56  Z" fill="#009af9" fill-rule="evenodd" fill-opacity="0.5"/>
<polyline clip-path="url(#clip712)" style="stroke:#009af9; stroke-linecap:round; stroke-linejoin:round; stroke-width:8; stroke-opacity:0.8; fill:none" points="280.231,826.004 300.556,853.822 320.881,868.919 341.206,882.324 361.53,875.561 381.855,872.26 402.18,859.538 422.505,835.826 442.83,784.256 463.155,738.402 483.48,700.318 503.804,663.683 524.129,662.073 544.454,664.126 564.779,691.945 585.104,733.249 605.429,781.881 625.753,832.324 646.078,867.067 666.403,880.996 686.728,892.671 707.053,885.304 727.378,874.836 747.703,839.49 768.027,799.755 788.352,756.357 808.677,712.114 829.002,685.02 849.327,659.98 869.652,653.699 889.977,682.605 910.301,706.478 930.626,761.551 950.951,806.519 971.276,848.79 991.601,871.576 1011.93,892.953 1032.25,886.632 1052.58,883.693 1072.9,852.896 1093.23,817.952 1113.55,783.209 1133.87,738.523 1154.2,697.259 1174.52,665.656 1194.85,663.683 1215.17,670.286 1235.5,693.716 1255.82,730.351 1276.15,785.101 1296.47,829.667 1316.8,861.551 1337.12,884.297 1357.45,886.954 1377.77,886.753 1398.1,872.582 1418.42,845.005 1438.75,798.548 1459.07,764.006 1479.4,714.811 1499.72,683.49 1520.05,662.757 1540.37,667.669 1560.7,674.754 1581.02,715.334 1601.35,757.203 1621.67,799.916 1642,843.637 1662.32,864.611 1682.65,886.431 1702.97,891.946 1723.3,876.688 1743.62,847.139 1763.95,815.094 1784.27,778.097 1804.59,739.288 1824.92,697.742 1845.24,665.817 1865.57,666.703 1885.89,675.358 1906.22,697.46 1926.54,730.914 1946.87,782.002 1967.19,825.802 1987.52,857.807 2007.84,875.279 2028.17,889.128 2048.49,883.774 2068.82,864.249 2089.14,832.244 2109.47,789.812 2129.79,758.169 2150.12,711.953 2170.44,687.073 2190.77,665.696 2211.09,658.49 2231.42,679.424 2251.74,715.697 2272.07,751.285 2292.39,805.714 "/>
<path clip-path="url(#clip712)" d="M280.231 1019.47 L300.556 1019.27 L320.881 1019.03 L341.206 1018.67 L361.53 1018.26 L381.855 1017.97 L402.18 1017.95 L422.505 1018.15 L442.83 1018.42 L463.155 1018.63 L483.48 1018.85 L503.804 1019.18 L524.129 1019.6 L544.454 1019.93 L564.779 1020.02 L585.104 1019.86 L605.429 1019.59 L625.753 1019.37 L646.078 1019.16 L666.403 1018.87 L686.728 1018.46 L707.053 1018.09 L727.378 1017.93 L747.703 1018.03 L768.027 1018.29 L788.352 1018.53 L808.677 1018.73 L829.002 1019 L849.327 1019.39 L869.652 1019.79 L889.977 1020.01 L910.301 1019.97 L930.626 1019.73 L950.951 1019.47 L971.276 1019.27 L991.601 1019.03 L1011.93 1018.67 L1032.25 1018.26 L1052.58 1017.97 L1072.9 1017.95 L1093.23 1018.15 L1113.55 1018.42 L1133.87 1018.63 L1154.2 1018.85 L1174.52 1019.18 L1194.85 1019.6 L1215.17 1019.93 L1235.5 1020.02 L1255.82 1019.86 L1276.15 1019.59 L1296.47 1019.37 L1316.8 1019.16 L1337.12 1018.87 L1357.45 1018.46 L1377.77 1018.09 L1398.1 1017.93 L1418.42 1018.03 L1438.75 1018.29 L1459.07 1018.53 L1479.4 1018.73 L1499.72 1019 L1520.05 1019.39 L1540.37 1019.79 L1560.7 1020.01 L1581.02 1019.97 L1601.35 1019.73 L1621.67 1019.47 L1642 1019.27 L1662.32 1019.03 L1682.65 1018.67 L1702.97 1018.26 L1723.3 1017.97 L1743.62 1017.95 L1763.95 1018.15 L1784.27 1018.42 L1804.59 1018.63 L1824.92 1018.85 L1845.24 1019.18 L1865.57 1019.6 L1885.89 1019.93 L1906.22 1020.02 L1926.54 1019.86 L1946.87 1019.59 L1967.19 1019.37 L1987.52 1019.16 L2007.84 1018.87 L2028.17 1018.46 L2048.49 1018.09 L2068.82 1017.93 L2089.14 1018.03 L2109.47 1018.29 L2129.79 1018.53 L2150.12 1018.73 L2170.44 1019 L2190.77 1019.39 L2211.09 1019.79 L2231.42 1020.01 L2251.74 1019.97 L2272.07 1019.73 L2292.39 1019.47 L2292.39 632.548 L2272.07 632.806 L2251.74 633.042 L2231.42 633.086 L2211.09 632.862 L2190.77 632.463 L2170.44 632.073 L2150.12 631.809 L2129.79 631.61 L2109.47 631.366 L2089.14 631.109 L2068.82 631.003 L2048.49 631.162 L2028.17 631.534 L2007.84 631.943 L1987.52 632.239 L1967.19 632.442 L1946.87 632.671 L1926.54 632.938 L1906.22 633.097 L1885.89 633.006 L1865.57 632.673 L1845.24 632.256 L1824.92 631.925 L1804.59 631.71 L1784.27 631.496 L1763.95 631.229 L1743.62 631.027 L1723.3 631.049 L1702.97 631.331 L1682.65 631.746 L1662.32 632.108 L1642 632.344 L1621.67 632.548 L1601.35 632.806 L1581.02 633.042 L1560.7 633.086 L1540.37 632.862 L1520.05 632.463 L1499.72 632.073 L1479.4 631.809 L1459.07 631.61 L1438.75 631.366 L1418.42 631.109 L1398.1 631.003 L1377.77 631.162 L1357.45 631.534 L1337.12 631.943 L1316.8 632.239 L1296.47 632.442 L1276.15 632.671 L1255.82 632.938 L1235.5 633.097 L1215.17 633.006 L1194.85 632.673 L1174.52 632.256 L1154.2 631.925 L1133.87 631.71 L1113.55 631.496 L1093.23 631.229 L1072.9 631.027 L1052.58 631.049 L1032.25 631.331 L1011.93 631.746 L991.601 632.108 L971.276 632.344 L950.951 632.548 L930.626 632.806 L910.301 633.042 L889.977 633.086 L869.652 632.862 L849.327 632.463 L829.002 632.073 L808.677 631.809 L788.352 631.61 L768.027 631.366 L747.703 631.109 L727.378 631.003 L707.053 631.162 L686.728 631.534 L666.403 631.943 L646.078 632.239 L625.753 632.442 L605.429 632.671 L585.104 632.938 L564.779 633.097 L544.454 633.006 L524.129 632.673 L503.804 632.256 L483.48 631.925 L463.155 631.71 L442.83 631.496 L422.505 631.229 L402.18 631.027 L381.855 631.049 L361.53 631.331 L341.206 631.746 L320.881 632.108 L300.556 632.344 L280.231 632.548  Z" fill="#e26f46" fill-rule="evenodd" fill-opacity="0.5"/>
<polyline clip-path="url(#clip712)" style="stroke:#e26f46; stroke-linecap:round; stroke-linejoin:round; stroke-width:8; stroke-opacity:0.8; fill:none" points="280.231,826.01 300.556,825.807 320.881,825.57 341.206,825.208 361.53,824.793 381.855,824.511 402.18,824.489 422.505,824.692 442.83,824.958 463.155,825.172 483.48,825.387 503.804,825.718 524.129,826.136 544.454,826.468 564.779,826.559 585.104,826.4 605.429,826.133 625.753,825.904 646.078,825.701 666.403,825.405 686.728,824.996 707.053,824.624 727.378,824.465 747.703,824.571 768.027,824.828 788.352,825.072 808.677,825.271 829.002,825.535 849.327,825.925 869.652,826.324 889.977,826.548 910.301,826.504 930.626,826.268 950.951,826.01 971.276,825.807 991.601,825.57 1011.93,825.208 1032.25,824.793 1052.58,824.511 1072.9,824.489 1093.23,824.692 1113.55,824.958 1133.87,825.172 1154.2,825.387 1174.52,825.718 1194.85,826.136 1215.17,826.468 1235.5,826.559 1255.82,826.4 1276.15,826.133 1296.47,825.904 1316.8,825.701 1337.12,825.405 1357.45,824.996 1377.77,824.624 1398.1,824.465 1418.42,824.571 1438.75,824.828 1459.07,825.072 1479.4,825.271 1499.72,825.535 1520.05,825.925 1540.37,826.324 1560.7,826.548 1581.02,826.504 1601.35,826.268 1621.67,826.01 1642,825.807 1662.32,825.57 1682.65,825.208 1702.97,824.793 1723.3,824.511 1743.62,824.489 1763.95,824.692 1784.27,824.958 1804.59,825.172 1824.92,825.387 1845.24,825.718 1865.57,826.136 1885.89,826.468 1906.22,826.559 1926.54,826.4 1946.87,826.133 1967.19,825.904 1987.52,825.701 2007.84,825.405 2028.17,824.996 2048.49,824.624 2068.82,824.465 2089.14,824.571 2109.47,824.828 2129.79,825.072 2150.12,825.271 2170.44,825.535 2190.77,825.925 2211.09,826.324 2231.42,826.548 2251.74,826.504 2272.07,826.268 2292.39,826.01 "/>
<path clip-path="url(#clip710)" d="M1565.06 322.316 L2281.66 322.316 L2281.66 166.796 L1565.06 166.796  Z" fill="#ffffff" fill-rule="evenodd" fill-opacity="1"/>
<polyline clip-path="url(#clip710)" style="stroke:#000000; stroke-linecap:round; stroke-linejoin:round; stroke-width:4; stroke-opacity:1; fill:none" points="1565.06,322.316 2281.66,322.316 2281.66,166.796 1565.06,166.796 1565.06,322.316 "/>
<polyline clip-path="url(#clip710)" style="stroke:#009af9; stroke-linecap:round; stroke-linejoin:round; stroke-width:8; stroke-opacity:0.8; fill:none" points="1588.76,218.636 1730.95,218.636 "/>
<path clip-path="url(#clip710)" d="M1754.65 201.356 L1761.62 201.356 L1770.44 224.874 L1779.31 201.356 L1786.27 201.356 L1786.27 235.916 L1781.71 235.916 L1781.71 205.569 L1772.8 229.272 L1768.1 229.272 L1759.19 205.569 L1759.19 235.916 L1754.65 235.916 L1754.65 201.356 Z" fill="#000000" fill-rule="nonzero" fill-opacity="1" /><path clip-path="url(#clip710)" d="M1800.23 205.198 L1800.23 218.184 L1806.11 218.184 Q1809.38 218.184 1811.16 216.495 Q1812.94 214.805 1812.94 211.68 Q1812.94 208.578 1811.16 206.888 Q1809.38 205.198 1806.11 205.198 L1800.23 205.198 M1795.56 201.356 L1806.11 201.356 Q1811.92 201.356 1814.88 203.995 Q1817.87 206.61 1817.87 211.68 Q1817.87 216.795 1814.88 219.411 Q1811.92 222.027 1806.11 222.027 L1800.23 222.027 L1800.23 235.916 L1795.56 235.916 L1795.56 201.356 Z" fill="#000000" fill-rule="nonzero" fill-opacity="1" /><path clip-path="url(#clip710)" d="M1844.86 202.49 L1844.86 207.05 Q1842.2 205.777 1839.84 205.152 Q1837.48 204.527 1835.28 204.527 Q1831.46 204.527 1829.38 206.008 Q1827.31 207.49 1827.31 210.221 Q1827.31 212.513 1828.68 213.694 Q1830.07 214.851 1833.91 215.569 L1836.74 216.147 Q1841.97 217.143 1844.44 219.666 Q1846.94 222.166 1846.94 226.379 Q1846.94 231.402 1843.56 233.994 Q1840.21 236.587 1833.7 236.587 Q1831.25 236.587 1828.47 236.031 Q1825.72 235.476 1822.75 234.388 L1822.75 229.573 Q1825.6 231.17 1828.33 231.981 Q1831.06 232.791 1833.7 232.791 Q1837.71 232.791 1839.88 231.217 Q1842.06 229.643 1842.06 226.726 Q1842.06 224.18 1840.49 222.744 Q1838.94 221.309 1835.37 220.592 L1832.52 220.036 Q1827.29 218.995 1824.95 216.772 Q1822.62 214.55 1822.62 210.592 Q1822.62 206.008 1825.83 203.37 Q1829.07 200.731 1834.75 200.731 Q1837.18 200.731 1839.7 201.171 Q1842.22 201.61 1844.86 202.49 Z" fill="#000000" fill-rule="nonzero" fill-opacity="1" /><path clip-path="url(#clip710)" d="M1873.98 205.198 L1873.98 232.073 L1879.63 232.073 Q1886.78 232.073 1890.09 228.832 Q1893.43 225.592 1893.43 218.601 Q1893.43 211.657 1890.09 208.439 Q1886.78 205.198 1879.63 205.198 L1873.98 205.198 M1869.31 201.356 L1878.91 201.356 Q1888.96 201.356 1893.66 205.546 Q1898.36 209.712 1898.36 218.601 Q1898.36 227.536 1893.63 231.726 Q1888.91 235.916 1878.91 235.916 L1869.31 235.916 L1869.31 201.356 Z" fill="#000000" fill-rule="nonzero" fill-opacity="1" /><path clip-path="url(#clip710)" d="M1905.62 209.99 L1909.88 209.99 L1909.88 235.916 L1905.62 235.916 L1905.62 209.99 M1905.62 199.897 L1909.88 199.897 L1909.88 205.291 L1905.62 205.291 L1905.62 199.897 Z" fill="#000000" fill-rule="nonzero" fill-opacity="1" /><path clip-path="url(#clip710)" d="M1935.32 210.754 L1935.32 214.782 Q1933.52 213.856 1931.57 213.393 Q1929.63 212.93 1927.55 212.93 Q1924.37 212.93 1922.78 213.902 Q1921.2 214.874 1921.2 216.819 Q1921.2 218.3 1922.34 219.157 Q1923.47 219.99 1926.9 220.754 L1928.36 221.078 Q1932.89 222.05 1934.79 223.832 Q1936.71 225.592 1936.71 228.763 Q1936.71 232.374 1933.84 234.481 Q1930.99 236.587 1925.99 236.587 Q1923.91 236.587 1921.64 236.17 Q1919.4 235.777 1916.9 234.967 L1916.9 230.569 Q1919.26 231.795 1921.55 232.42 Q1923.84 233.022 1926.09 233.022 Q1929.1 233.022 1930.72 232.004 Q1932.34 230.962 1932.34 229.087 Q1932.34 227.351 1931.16 226.425 Q1930 225.499 1926.04 224.643 L1924.56 224.295 Q1920.6 223.462 1918.84 221.749 Q1917.08 220.013 1917.08 217.004 Q1917.08 213.346 1919.68 211.356 Q1922.27 209.365 1927.04 209.365 Q1929.4 209.365 1931.48 209.712 Q1933.56 210.059 1935.32 210.754 Z" fill="#000000" fill-rule="nonzero" fill-opacity="1" /><path clip-path="url(#clip710)" d="M1947.71 202.629 L1947.71 209.99 L1956.48 209.99 L1956.48 213.3 L1947.71 213.3 L1947.71 227.374 Q1947.71 230.545 1948.56 231.448 Q1949.44 232.351 1952.11 232.351 L1956.48 232.351 L1956.48 235.916 L1952.11 235.916 Q1947.18 235.916 1945.3 234.087 Q1943.43 232.235 1943.43 227.374 L1943.43 213.3 L1940.3 213.3 L1940.3 209.99 L1943.43 209.99 L1943.43 202.629 L1947.71 202.629 Z" fill="#000000" fill-rule="nonzero" fill-opacity="1" /><path clip-path="url(#clip710)" d="M1977.11 213.971 Q1976.39 213.555 1975.53 213.37 Q1974.7 213.161 1973.68 213.161 Q1970.07 213.161 1968.12 215.522 Q1966.2 217.86 1966.2 222.258 L1966.2 235.916 L1961.92 235.916 L1961.92 209.99 L1966.2 209.99 L1966.2 214.018 Q1967.55 211.657 1969.7 210.522 Q1971.85 209.365 1974.93 209.365 Q1975.37 209.365 1975.9 209.434 Q1976.43 209.481 1977.08 209.596 L1977.11 213.971 Z" fill="#000000" fill-rule="nonzero" fill-opacity="1" /><path clip-path="url(#clip710)" d="M1981.57 209.99 L1985.83 209.99 L1985.83 235.916 L1981.57 235.916 L1981.57 209.99 M1981.57 199.897 L1985.83 199.897 L1985.83 205.291 L1981.57 205.291 L1981.57 199.897 Z" fill="#000000" fill-rule="nonzero" fill-opacity="1" /><path clip-path="url(#clip710)" d="M2013.36 222.976 Q2013.36 218.277 2011.41 215.615 Q2009.49 212.93 2006.11 212.93 Q2002.73 212.93 2000.79 215.615 Q1998.86 218.277 1998.86 222.976 Q1998.86 227.675 2000.79 230.36 Q2002.73 233.022 2006.11 233.022 Q2009.49 233.022 2011.41 230.36 Q2013.36 227.675 2013.36 222.976 M1998.86 213.925 Q2000.21 211.61 2002.24 210.499 Q2004.3 209.365 2007.15 209.365 Q2011.87 209.365 2014.81 213.115 Q2017.78 216.865 2017.78 222.976 Q2017.78 229.087 2014.81 232.837 Q2011.87 236.587 2007.15 236.587 Q2004.3 236.587 2002.24 235.476 Q2000.21 234.342 1998.86 232.027 L1998.86 235.916 L1994.58 235.916 L1994.58 199.897 L1998.86 199.897 L1998.86 213.925 Z" fill="#000000" fill-rule="nonzero" fill-opacity="1" /><path clip-path="url(#clip710)" d="M2024.4 225.684 L2024.4 209.99 L2028.66 209.99 L2028.66 225.522 Q2028.66 229.203 2030.09 231.055 Q2031.53 232.883 2034.4 232.883 Q2037.85 232.883 2039.84 230.684 Q2041.85 228.485 2041.85 224.689 L2041.85 209.99 L2046.11 209.99 L2046.11 235.916 L2041.85 235.916 L2041.85 231.934 Q2040.3 234.295 2038.24 235.453 Q2036.2 236.587 2033.49 236.587 Q2029.03 236.587 2026.71 233.809 Q2024.4 231.031 2024.4 225.684 M2035.11 209.365 L2035.11 209.365 Z" fill="#000000" fill-rule="nonzero" fill-opacity="1" /><path clip-path="url(#clip710)" d="M2059.1 202.629 L2059.1 209.99 L2067.87 209.99 L2067.87 213.3 L2059.1 213.3 L2059.1 227.374 Q2059.1 230.545 2059.95 231.448 Q2060.83 232.351 2063.49 232.351 L2067.87 232.351 L2067.87 235.916 L2063.49 235.916 Q2058.56 235.916 2056.69 234.087 Q2054.81 232.235 2054.81 227.374 L2054.81 213.3 L2051.69 213.3 L2051.69 209.99 L2054.81 209.99 L2054.81 202.629 L2059.1 202.629 Z" fill="#000000" fill-rule="nonzero" fill-opacity="1" /><path clip-path="url(#clip710)" d="M2073.47 209.99 L2077.73 209.99 L2077.73 235.916 L2073.47 235.916 L2073.47 209.99 M2073.47 199.897 L2077.73 199.897 L2077.73 205.291 L2073.47 205.291 L2073.47 199.897 Z" fill="#000000" fill-rule="nonzero" fill-opacity="1" /><path clip-path="url(#clip710)" d="M2096.69 212.976 Q2093.26 212.976 2091.27 215.661 Q2089.28 218.323 2089.28 222.976 Q2089.28 227.629 2091.25 230.314 Q2093.24 232.976 2096.69 232.976 Q2100.09 232.976 2102.08 230.291 Q2104.07 227.606 2104.07 222.976 Q2104.07 218.37 2102.08 215.684 Q2100.09 212.976 2096.69 212.976 M2096.69 209.365 Q2102.24 209.365 2105.42 212.976 Q2108.59 216.587 2108.59 222.976 Q2108.59 229.342 2105.42 232.976 Q2102.24 236.587 2096.69 236.587 Q2091.11 236.587 2087.94 232.976 Q2084.79 229.342 2084.79 222.976 Q2084.79 216.587 2087.94 212.976 Q2091.11 209.365 2096.69 209.365 Z" fill="#000000" fill-rule="nonzero" fill-opacity="1" /><path clip-path="url(#clip710)" d="M2137.2 220.268 L2137.2 235.916 L2132.94 235.916 L2132.94 220.407 Q2132.94 216.726 2131.5 214.897 Q2130.07 213.069 2127.2 213.069 Q2123.75 213.069 2121.76 215.268 Q2119.77 217.467 2119.77 221.263 L2119.77 235.916 L2115.48 235.916 L2115.48 209.99 L2119.77 209.99 L2119.77 214.018 Q2121.29 211.68 2123.36 210.522 Q2125.44 209.365 2128.15 209.365 Q2132.61 209.365 2134.91 212.143 Q2137.2 214.897 2137.2 220.268 Z" fill="#000000" fill-rule="nonzero" fill-opacity="1" /><polyline clip-path="url(#clip710)" style="stroke:#e26f46; stroke-linecap:round; stroke-linejoin:round; stroke-width:8; stroke-opacity:0.8; fill:none" points="1588.76,270.476 1730.95,270.476 "/>
<path clip-path="url(#clip710)" d="M1754.65 253.196 L1776.51 253.196 L1776.51 257.131 L1759.33 257.131 L1759.33 267.362 L1775.79 267.362 L1775.79 271.297 L1759.33 271.297 L1759.33 283.821 L1776.92 283.821 L1776.92 287.756 L1754.65 287.756 L1754.65 253.196 Z" fill="#000000" fill-rule="nonzero" fill-opacity="1" /><path clip-path="url(#clip710)" d="M1804.61 266.807 Q1806.2 263.936 1808.43 262.571 Q1810.65 261.205 1813.66 261.205 Q1817.71 261.205 1819.91 264.052 Q1822.11 266.876 1822.11 272.108 L1822.11 287.756 L1817.82 287.756 L1817.82 272.247 Q1817.82 268.52 1816.5 266.714 Q1815.19 264.909 1812.48 264.909 Q1809.17 264.909 1807.25 267.108 Q1805.32 269.307 1805.32 273.103 L1805.32 287.756 L1801.04 287.756 L1801.04 272.247 Q1801.04 268.497 1799.72 266.714 Q1798.4 264.909 1795.65 264.909 Q1792.38 264.909 1790.46 267.131 Q1788.54 269.33 1788.54 273.103 L1788.54 287.756 L1784.26 287.756 L1784.26 261.83 L1788.54 261.83 L1788.54 265.858 Q1790 263.473 1792.04 262.339 Q1794.07 261.205 1796.88 261.205 Q1799.7 261.205 1801.67 262.64 Q1803.66 264.075 1804.61 266.807 Z" fill="#000000" fill-rule="nonzero" fill-opacity="1" /><path clip-path="url(#clip710)" d="M1834.72 283.867 L1834.72 297.617 L1830.44 297.617 L1830.44 261.83 L1834.72 261.83 L1834.72 265.765 Q1836.06 263.45 1838.1 262.339 Q1840.16 261.205 1843.01 261.205 Q1847.73 261.205 1850.67 264.955 Q1853.63 268.705 1853.63 274.816 Q1853.63 280.927 1850.67 284.677 Q1847.73 288.427 1843.01 288.427 Q1840.16 288.427 1838.1 287.316 Q1836.06 286.182 1834.72 283.867 M1849.21 274.816 Q1849.21 270.117 1847.27 267.455 Q1845.35 264.77 1841.97 264.77 Q1838.59 264.77 1836.64 267.455 Q1834.72 270.117 1834.72 274.816 Q1834.72 279.515 1836.64 282.2 Q1838.59 284.862 1841.97 284.862 Q1845.35 284.862 1847.27 282.2 Q1849.21 279.515 1849.21 274.816 Z" fill="#000000" fill-rule="nonzero" fill-opacity="1" /><path clip-path="url(#clip710)" d="M1860.69 261.83 L1864.95 261.83 L1864.95 287.756 L1860.69 287.756 L1860.69 261.83 M1860.69 251.737 L1864.95 251.737 L1864.95 257.131 L1860.69 257.131 L1860.69 251.737 Z" fill="#000000" fill-rule="nonzero" fill-opacity="1" /><path clip-path="url(#clip710)" d="M1888.89 265.811 Q1888.17 265.395 1887.31 265.21 Q1886.48 265.001 1885.46 265.001 Q1881.85 265.001 1879.91 267.362 Q1877.99 269.7 1877.99 274.098 L1877.99 287.756 L1873.7 287.756 L1873.7 261.83 L1877.99 261.83 L1877.99 265.858 Q1879.33 263.497 1881.48 262.362 Q1883.63 261.205 1886.71 261.205 Q1887.15 261.205 1887.69 261.274 Q1888.22 261.321 1888.87 261.436 L1888.89 265.811 Z" fill="#000000" fill-rule="nonzero" fill-opacity="1" /><path clip-path="url(#clip710)" d="M1893.36 261.83 L1897.62 261.83 L1897.62 287.756 L1893.36 287.756 L1893.36 261.83 M1893.36 251.737 L1897.62 251.737 L1897.62 257.131 L1893.36 257.131 L1893.36 251.737 Z" fill="#000000" fill-rule="nonzero" fill-opacity="1" /><path clip-path="url(#clip710)" d="M1925.18 262.825 L1925.18 266.807 Q1923.38 265.811 1921.55 265.325 Q1919.75 264.816 1917.89 264.816 Q1913.75 264.816 1911.46 267.455 Q1909.17 270.071 1909.17 274.816 Q1909.17 279.561 1911.46 282.2 Q1913.75 284.816 1917.89 284.816 Q1919.75 284.816 1921.55 284.33 Q1923.38 283.821 1925.18 282.825 L1925.18 286.76 Q1923.4 287.594 1921.48 288.01 Q1919.58 288.427 1917.43 288.427 Q1911.57 288.427 1908.12 284.746 Q1904.68 281.066 1904.68 274.816 Q1904.68 268.473 1908.15 264.839 Q1911.64 261.205 1917.71 261.205 Q1919.68 261.205 1921.55 261.622 Q1923.43 262.015 1925.18 262.825 Z" fill="#000000" fill-rule="nonzero" fill-opacity="1" /><path clip-path="url(#clip710)" d="M1944.37 274.723 Q1939.21 274.723 1937.22 275.904 Q1935.23 277.084 1935.23 279.932 Q1935.23 282.2 1936.71 283.543 Q1938.22 284.862 1940.79 284.862 Q1944.33 284.862 1946.46 282.362 Q1948.61 279.839 1948.61 275.672 L1948.61 274.723 L1944.37 274.723 M1952.87 272.964 L1952.87 287.756 L1948.61 287.756 L1948.61 283.821 Q1947.15 286.182 1944.98 287.316 Q1942.8 288.427 1939.65 288.427 Q1935.67 288.427 1933.31 286.205 Q1930.97 283.959 1930.97 280.209 Q1930.97 275.834 1933.89 273.612 Q1936.83 271.39 1942.64 271.39 L1948.61 271.39 L1948.61 270.973 Q1948.61 268.034 1946.67 266.436 Q1944.74 264.816 1941.25 264.816 Q1939.03 264.816 1936.92 265.348 Q1934.81 265.881 1932.87 266.946 L1932.87 263.01 Q1935.21 262.108 1937.41 261.668 Q1939.61 261.205 1941.69 261.205 Q1947.31 261.205 1950.09 264.122 Q1952.87 267.038 1952.87 272.964 Z" fill="#000000" fill-rule="nonzero" fill-opacity="1" /><path clip-path="url(#clip710)" d="M1961.64 251.737 L1965.9 251.737 L1965.9 287.756 L1961.64 287.756 L1961.64 251.737 Z" fill="#000000" fill-rule="nonzero" fill-opacity="1" /><path clip-path="url(#clip710)" d="M1994.74 257.038 L1994.74 283.913 L2000.39 283.913 Q2007.55 283.913 2010.86 280.672 Q2014.19 277.432 2014.19 270.441 Q2014.19 263.497 2010.86 260.279 Q2007.55 257.038 2000.39 257.038 L1994.74 257.038 M1990.07 253.196 L1999.68 253.196 Q2009.72 253.196 2014.42 257.386 Q2019.12 261.552 2019.12 270.441 Q2019.12 279.376 2014.4 283.566 Q2009.68 287.756 1999.68 287.756 L1990.07 287.756 L1990.07 253.196 Z" fill="#000000" fill-rule="nonzero" fill-opacity="1" /><path clip-path="url(#clip710)" d="M2026.39 261.83 L2030.65 261.83 L2030.65 287.756 L2026.39 287.756 L2026.39 261.83 M2026.39 251.737 L2030.65 251.737 L2030.65 257.131 L2026.39 257.131 L2026.39 251.737 Z" fill="#000000" fill-rule="nonzero" fill-opacity="1" /><path clip-path="url(#clip710)" d="M2056.09 262.594 L2056.09 266.622 Q2054.28 265.696 2052.34 265.233 Q2050.39 264.77 2048.31 264.77 Q2045.14 264.77 2043.54 265.742 Q2041.97 266.714 2041.97 268.659 Q2041.97 270.14 2043.1 270.997 Q2044.24 271.83 2047.66 272.594 L2049.12 272.918 Q2053.66 273.89 2055.55 275.672 Q2057.48 277.432 2057.48 280.603 Q2057.48 284.214 2054.61 286.321 Q2051.76 288.427 2046.76 288.427 Q2044.67 288.427 2042.41 288.01 Q2040.16 287.617 2037.66 286.807 L2037.66 282.409 Q2040.02 283.635 2042.31 284.26 Q2044.61 284.862 2046.85 284.862 Q2049.86 284.862 2051.48 283.844 Q2053.1 282.802 2053.1 280.927 Q2053.1 279.191 2051.92 278.265 Q2050.76 277.339 2046.8 276.483 L2045.32 276.135 Q2041.36 275.302 2039.61 273.589 Q2037.85 271.853 2037.85 268.844 Q2037.85 265.186 2040.44 263.196 Q2043.03 261.205 2047.8 261.205 Q2050.16 261.205 2052.24 261.552 Q2054.33 261.899 2056.09 262.594 Z" fill="#000000" fill-rule="nonzero" fill-opacity="1" /><path clip-path="url(#clip710)" d="M2068.47 254.469 L2068.47 261.83 L2077.24 261.83 L2077.24 265.14 L2068.47 265.14 L2068.47 279.214 Q2068.47 282.385 2069.33 283.288 Q2070.21 284.191 2072.87 284.191 L2077.24 284.191 L2077.24 287.756 L2072.87 287.756 Q2067.94 287.756 2066.06 285.927 Q2064.19 284.075 2064.19 279.214 L2064.19 265.14 L2061.06 265.14 L2061.06 261.83 L2064.19 261.83 L2064.19 254.469 L2068.47 254.469 Z" fill="#000000" fill-rule="nonzero" fill-opacity="1" /><path clip-path="url(#clip710)" d="M2097.87 265.811 Q2097.15 265.395 2096.3 265.21 Q2095.46 265.001 2094.44 265.001 Q2090.83 265.001 2088.89 267.362 Q2086.97 269.7 2086.97 274.098 L2086.97 287.756 L2082.68 287.756 L2082.68 261.83 L2086.97 261.83 L2086.97 265.858 Q2088.31 263.497 2090.46 262.362 Q2092.61 261.205 2095.69 261.205 Q2096.13 261.205 2096.67 261.274 Q2097.2 261.321 2097.85 261.436 L2097.87 265.811 Z" fill="#000000" fill-rule="nonzero" fill-opacity="1" /><path clip-path="url(#clip710)" d="M2102.34 261.83 L2106.6 261.83 L2106.6 287.756 L2102.34 287.756 L2102.34 261.83 M2102.34 251.737 L2106.6 251.737 L2106.6 257.131 L2102.34 257.131 L2102.34 251.737 Z" fill="#000000" fill-rule="nonzero" fill-opacity="1" /><path clip-path="url(#clip710)" d="M2134.12 274.816 Q2134.12 270.117 2132.17 267.455 Q2130.25 264.77 2126.87 264.77 Q2123.49 264.77 2121.55 267.455 Q2119.63 270.117 2119.63 274.816 Q2119.63 279.515 2121.55 282.2 Q2123.49 284.862 2126.87 284.862 Q2130.25 284.862 2132.17 282.2 Q2134.12 279.515 2134.12 274.816 M2119.63 265.765 Q2120.97 263.45 2123.01 262.339 Q2125.07 261.205 2127.92 261.205 Q2132.64 261.205 2135.58 264.955 Q2138.54 268.705 2138.54 274.816 Q2138.54 280.927 2135.58 284.677 Q2132.64 288.427 2127.92 288.427 Q2125.07 288.427 2123.01 287.316 Q2120.97 286.182 2119.63 283.867 L2119.63 287.756 L2115.35 287.756 L2115.35 251.737 L2119.63 251.737 L2119.63 265.765 Z" fill="#000000" fill-rule="nonzero" fill-opacity="1" /><path clip-path="url(#clip710)" d="M2145.16 277.524 L2145.16 261.83 L2149.42 261.83 L2149.42 277.362 Q2149.42 281.043 2150.85 282.895 Q2152.29 284.723 2155.16 284.723 Q2158.61 284.723 2160.6 282.524 Q2162.61 280.325 2162.61 276.529 L2162.61 261.83 L2166.87 261.83 L2166.87 287.756 L2162.61 287.756 L2162.61 283.774 Q2161.06 286.135 2159 287.293 Q2156.97 288.427 2154.26 288.427 Q2149.79 288.427 2147.48 285.649 Q2145.16 282.871 2145.16 277.524 M2155.88 261.205 L2155.88 261.205 Z" fill="#000000" fill-rule="nonzero" fill-opacity="1" /><path clip-path="url(#clip710)" d="M2179.86 254.469 L2179.86 261.83 L2188.63 261.83 L2188.63 265.14 L2179.86 265.14 L2179.86 279.214 Q2179.86 282.385 2180.72 283.288 Q2181.6 284.191 2184.26 284.191 L2188.63 284.191 L2188.63 287.756 L2184.26 287.756 Q2179.33 287.756 2177.45 285.927 Q2175.58 284.075 2175.58 279.214 L2175.58 265.14 L2172.45 265.14 L2172.45 261.83 L2175.58 261.83 L2175.58 254.469 L2179.86 254.469 Z" fill="#000000" fill-rule="nonzero" fill-opacity="1" /><path clip-path="url(#clip710)" d="M2194.23 261.83 L2198.49 261.83 L2198.49 287.756 L2194.23 287.756 L2194.23 261.83 M2194.23 251.737 L2198.49 251.737 L2198.49 257.131 L2194.23 257.131 L2194.23 251.737 Z" fill="#000000" fill-rule="nonzero" fill-opacity="1" /><path clip-path="url(#clip710)" d="M2217.45 264.816 Q2214.03 264.816 2212.04 267.501 Q2210.04 270.163 2210.04 274.816 Q2210.04 279.469 2212.01 282.154 Q2214 284.816 2217.45 284.816 Q2220.85 284.816 2222.85 282.131 Q2224.84 279.446 2224.84 274.816 Q2224.84 270.21 2222.85 267.524 Q2220.85 264.816 2217.45 264.816 M2217.45 261.205 Q2223.01 261.205 2226.18 264.816 Q2229.35 268.427 2229.35 274.816 Q2229.35 281.182 2226.18 284.816 Q2223.01 288.427 2217.45 288.427 Q2211.87 288.427 2208.7 284.816 Q2205.55 281.182 2205.55 274.816 Q2205.55 268.427 2208.7 264.816 Q2211.87 261.205 2217.45 261.205 Z" fill="#000000" fill-rule="nonzero" fill-opacity="1" /><path clip-path="url(#clip710)" d="M2257.96 272.108 L2257.96 287.756 L2253.7 287.756 L2253.7 272.247 Q2253.7 268.566 2252.27 266.737 Q2250.83 264.909 2247.96 264.909 Q2244.51 264.909 2242.52 267.108 Q2240.53 269.307 2240.53 273.103 L2240.53 287.756 L2236.25 287.756 L2236.25 261.83 L2240.53 261.83 L2240.53 265.858 Q2242.06 263.52 2244.12 262.362 Q2246.2 261.205 2248.91 261.205 Q2253.38 261.205 2255.67 263.983 Q2257.96 266.737 2257.96 272.108 Z" fill="#000000" fill-rule="nonzero" fill-opacity="1" /></svg>
