<?xml version="1.0" encoding="utf-8"?>
<svg xmlns="http://www.w3.org/2000/svg" xmlns:xlink="http://www.w3.org/1999/xlink" width="600" height="400" viewBox="0 0 2400 1600">
<defs>
  <clipPath id="clip190">
    <rect x="0" y="0" width="2400" height="1600"/>
  </clipPath>
</defs>
<path clip-path="url(#clip190)" d="M0 1600 L2400 1600 L2400 8.88178e-14 L0 8.88178e-14  Z" fill="#ffffff" fill-rule="evenodd" fill-opacity="1"/>
<defs>
  <clipPath id="clip191">
    <rect x="480" y="0" width="1681" height="1600"/>
  </clipPath>
</defs>
<path clip-path="url(#clip190)" d="M249.542 1423.18 L2352.76 1423.18 L2352.76 123.472 L249.542 123.472  Z" fill="#ffffff" fill-rule="evenodd" fill-opacity="1"/>
<defs>
  <clipPath id="clip192">
    <rect x="249" y="123" width="2104" height="1301"/>
  </clipPath>
</defs>
<polyline clip-path="url(#clip192)" style="stroke:#000000; stroke-linecap:round; stroke-linejoin:round; stroke-width:2; stroke-opacity:0.1; fill:none" points="289.025,1423.18 289.025,123.472 "/>
<polyline clip-path="url(#clip192)" style="stroke:#000000; stroke-linecap:round; stroke-linejoin:round; stroke-width:2; stroke-opacity:0.1; fill:none" points="790.076,1423.18 790.076,123.472 "/>
<polyline clip-path="url(#clip192)" style="stroke:#000000; stroke-linecap:round; stroke-linejoin:round; stroke-width:2; stroke-opacity:0.1; fill:none" points="1291.13,1423.18 1291.13,123.472 "/>
<polyline clip-path="url(#clip192)" style="stroke:#000000; stroke-linecap:round; stroke-linejoin:round; stroke-width:2; stroke-opacity:0.1; fill:none" points="1792.18,1423.18 1792.18,123.472 "/>
<polyline clip-path="url(#clip192)" style="stroke:#000000; stroke-linecap:round; stroke-linejoin:round; stroke-width:2; stroke-opacity:0.1; fill:none" points="2293.23,1423.18 2293.23,123.472 "/>
<polyline clip-path="url(#clip190)" style="stroke:#000000; stroke-linecap:round; stroke-linejoin:round; stroke-width:4; stroke-opacity:1; fill:none" points="249.542,1423.18 2352.76,1423.18 "/>
<polyline clip-path="url(#clip190)" style="stroke:#000000; stroke-linecap:round; stroke-linejoin:round; stroke-width:4; stroke-opacity:1; fill:none" points="289.025,1423.18 289.025,1404.28 "/>
<polyline clip-path="url(#clip190)" style="stroke:#000000; stroke-linecap:round; stroke-linejoin:round; stroke-width:4; stroke-opacity:1; fill:none" points="790.076,1423.18 790.076,1404.28 "/>
<polyline clip-path="url(#clip190)" style="stroke:#000000; stroke-linecap:round; stroke-linejoin:round; stroke-width:4; stroke-opacity:1; fill:none" points="1291.13,1423.18 1291.13,1404.28 "/>
<polyline clip-path="url(#clip190)" style="stroke:#000000; stroke-linecap:round; stroke-linejoin:round; stroke-width:4; stroke-opacity:1; fill:none" points="1792.18,1423.18 1792.18,1404.28 "/>
<polyline clip-path="url(#clip190)" style="stroke:#000000; stroke-linecap:round; stroke-linejoin:round; stroke-width:4; stroke-opacity:1; fill:none" points="2293.23,1423.18 2293.23,1404.28 "/>
<path clip-path="url(#clip190)" d="M289.025 1454.1 Q285.414 1454.1 283.585 1457.66 Q281.78 1461.2 281.78 1468.33 Q281.78 1475.44 283.585 1479.01 Q285.414 1482.55 289.025 1482.55 Q292.659 1482.55 294.465 1479.01 Q296.293 1475.44 296.293 1468.33 Q296.293 1461.2 294.465 1457.66 Q292.659 1454.1 289.025 1454.1 M289.025 1450.39 Q294.835 1450.39 297.891 1455 Q300.969 1459.58 300.969 1468.33 Q300.969 1477.06 297.891 1481.67 Q294.835 1486.25 289.025 1486.25 Q283.215 1486.25 280.136 1481.67 Q277.081 1477.06 277.081 1468.33 Q277.081 1459.58 280.136 1455 Q283.215 1450.39 289.025 1450.39 Z" fill="#000000" fill-rule="nonzero" fill-opacity="1" /><path clip-path="url(#clip190)" d="M769.347 1481.64 L785.667 1481.64 L785.667 1485.58 L763.722 1485.58 L763.722 1481.64 Q766.384 1478.89 770.968 1474.26 Q775.574 1469.61 776.755 1468.27 Q779 1465.74 779.88 1464.01 Q780.782 1462.25 780.782 1460.56 Q780.782 1457.8 778.838 1456.07 Q776.917 1454.33 773.815 1454.33 Q771.616 1454.33 769.162 1455.09 Q766.732 1455.86 763.954 1457.41 L763.954 1452.69 Q766.778 1451.55 769.232 1450.97 Q771.685 1450.39 773.722 1450.39 Q779.093 1450.39 782.287 1453.08 Q785.482 1455.77 785.482 1460.26 Q785.482 1462.39 784.671 1464.31 Q783.884 1466.2 781.778 1468.8 Q781.199 1469.47 778.097 1472.69 Q774.995 1475.88 769.347 1481.64 Z" fill="#000000" fill-rule="nonzero" fill-opacity="1" /><path clip-path="url(#clip190)" d="M795.528 1451.02 L813.884 1451.02 L813.884 1454.96 L799.81 1454.96 L799.81 1463.43 Q800.829 1463.08 801.847 1462.92 Q802.866 1462.73 803.884 1462.73 Q809.671 1462.73 813.051 1465.9 Q816.43 1469.08 816.43 1474.49 Q816.43 1480.07 812.958 1483.17 Q809.486 1486.25 803.167 1486.25 Q800.991 1486.25 798.722 1485.88 Q796.477 1485.51 794.069 1484.77 L794.069 1480.07 Q796.153 1481.2 798.375 1481.76 Q800.597 1482.32 803.074 1482.32 Q807.079 1482.32 809.417 1480.21 Q811.755 1478.1 811.755 1474.49 Q811.755 1470.88 809.417 1468.77 Q807.079 1466.67 803.074 1466.67 Q801.199 1466.67 799.324 1467.08 Q797.472 1467.5 795.528 1468.38 L795.528 1451.02 Z" fill="#000000" fill-rule="nonzero" fill-opacity="1" /><path clip-path="url(#clip190)" d="M1265.83 1451.02 L1284.18 1451.02 L1284.18 1454.96 L1270.11 1454.96 L1270.11 1463.43 Q1271.13 1463.08 1272.15 1462.92 Q1273.17 1462.73 1274.18 1462.73 Q1279.97 1462.73 1283.35 1465.9 Q1286.73 1469.08 1286.73 1474.49 Q1286.73 1480.07 1283.26 1483.17 Q1279.79 1486.25 1273.47 1486.25 Q1271.29 1486.25 1269.02 1485.88 Q1266.78 1485.51 1264.37 1484.77 L1264.37 1480.07 Q1266.45 1481.2 1268.67 1481.76 Q1270.9 1482.32 1273.37 1482.32 Q1277.38 1482.32 1279.72 1480.21 Q1282.05 1478.1 1282.05 1474.49 Q1282.05 1470.88 1279.72 1468.77 Q1277.38 1466.67 1273.37 1466.67 Q1271.5 1466.67 1269.62 1467.08 Q1267.77 1467.5 1265.83 1468.38 L1265.83 1451.02 Z" fill="#000000" fill-rule="nonzero" fill-opacity="1" /><path clip-path="url(#clip190)" d="M1305.94 1454.1 Q1302.33 1454.1 1300.5 1457.66 Q1298.7 1461.2 1298.7 1468.33 Q1298.7 1475.44 1300.5 1479.01 Q1302.33 1482.55 1305.94 1482.55 Q1309.58 1482.55 1311.38 1479.01 Q1313.21 1475.44 1313.21 1468.33 Q1313.21 1461.2 1311.38 1457.66 Q1309.58 1454.1 1305.94 1454.1 M1305.94 1450.39 Q1311.75 1450.39 1314.81 1455 Q1317.89 1459.58 1317.89 1468.33 Q1317.89 1477.06 1314.81 1481.67 Q1311.75 1486.25 1305.94 1486.25 Q1300.13 1486.25 1297.05 1481.67 Q1294 1477.06 1294 1468.33 Q1294 1459.58 1297.05 1455 Q1300.13 1450.39 1305.94 1450.39 Z" fill="#000000" fill-rule="nonzero" fill-opacity="1" /><path clip-path="url(#clip190)" d="M1766.03 1451.02 L1788.26 1451.02 L1788.26 1453.01 L1775.71 1485.58 L1770.83 1485.58 L1782.63 1454.96 L1766.03 1454.96 L1766.03 1451.02 Z" fill="#000000" fill-rule="nonzero" fill-opacity="1" /><path clip-path="url(#clip190)" d="M1797.42 1451.02 L1815.78 1451.02 L1815.78 1454.96 L1801.7 1454.96 L1801.7 1463.43 Q1802.72 1463.08 1803.74 1462.92 Q1804.76 1462.73 1805.78 1462.73 Q1811.57 1462.73 1814.95 1465.9 Q1818.33 1469.08 1818.33 1474.49 Q1818.33 1480.07 1814.85 1483.17 Q1811.38 1486.25 1805.06 1486.25 Q1802.89 1486.25 1800.62 1485.88 Q1798.37 1485.51 1795.96 1484.77 L1795.96 1480.07 Q1798.05 1481.2 1800.27 1481.76 Q1802.49 1482.32 1804.97 1482.32 Q1808.97 1482.32 1811.31 1480.21 Q1813.65 1478.1 1813.65 1474.49 Q1813.65 1470.88 1811.31 1468.77 Q1808.97 1466.67 1804.97 1466.67 Q1803.09 1466.67 1801.22 1467.08 Q1799.37 1467.5 1797.42 1468.38 L1797.42 1451.02 Z" fill="#000000" fill-rule="nonzero" fill-opacity="1" /><path clip-path="url(#clip190)" d="M2252.84 1481.64 L2260.48 1481.64 L2260.48 1455.28 L2252.17 1456.95 L2252.17 1452.69 L2260.43 1451.02 L2265.11 1451.02 L2265.11 1481.64 L2272.74 1481.64 L2272.74 1485.58 L2252.84 1485.58 L2252.84 1481.64 Z" fill="#000000" fill-rule="nonzero" fill-opacity="1" /><path clip-path="url(#clip190)" d="M2292.19 1454.1 Q2288.58 1454.1 2286.75 1457.66 Q2284.94 1461.2 2284.94 1468.33 Q2284.94 1475.44 2286.75 1479.01 Q2288.58 1482.55 2292.19 1482.55 Q2295.82 1482.55 2297.63 1479.01 Q2299.46 1475.44 2299.46 1468.33 Q2299.46 1461.2 2297.63 1457.66 Q2295.82 1454.1 2292.19 1454.1 M2292.19 1450.39 Q2298 1450.39 2301.06 1455 Q2304.13 1459.58 2304.13 1468.33 Q2304.13 1477.06 2301.06 1481.67 Q2298 1486.25 2292.19 1486.25 Q2286.38 1486.25 2283.3 1481.67 Q2280.24 1477.06 2280.24 1468.33 Q2280.24 1459.58 2283.3 1455 Q2286.38 1450.39 2292.19 1450.39 Z" fill="#000000" fill-rule="nonzero" fill-opacity="1" /><path clip-path="url(#clip190)" d="M2322.35 1454.1 Q2318.74 1454.1 2316.91 1457.66 Q2315.11 1461.2 2315.11 1468.33 Q2315.11 1475.44 2316.91 1479.01 Q2318.74 1482.55 2322.35 1482.55 Q2325.99 1482.55 2327.79 1479.01 Q2329.62 1475.44 2329.62 1468.33 Q2329.62 1461.2 2327.79 1457.66 Q2325.99 1454.1 2322.35 1454.1 M2322.35 1450.39 Q2328.16 1450.39 2331.22 1455 Q2334.3 1459.58 2334.3 1468.33 Q2334.3 1477.06 2331.22 1481.67 Q2328.16 1486.25 2322.35 1486.25 Q2316.54 1486.25 2313.46 1481.67 Q2310.41 1477.06 2310.41 1468.33 Q2310.41 1459.58 2313.46 1455 Q2316.54 1450.39 2322.35 1450.39 Z" fill="#000000" fill-rule="nonzero" fill-opacity="1" /><path clip-path="url(#clip190)" d="M1240.31 1522.27 L1240.31 1532.4 L1252.37 1532.4 L1252.37 1536.95 L1240.31 1536.95 L1240.31 1556.3 Q1240.31 1560.66 1241.49 1561.9 Q1242.7 1563.14 1246.36 1563.14 L1252.37 1563.14 L1252.37 1568.04 L1246.36 1568.04 Q1239.58 1568.04 1237 1565.53 Q1234.42 1562.98 1234.42 1556.3 L1234.42 1536.95 L1230.12 1536.95 L1230.12 1532.4 L1234.42 1532.4 L1234.42 1522.27 L1240.31 1522.27 Z" fill="#000000" fill-rule="nonzero" fill-opacity="1" /><path clip-path="url(#clip190)" d="M1260.07 1532.4 L1265.93 1532.4 L1265.93 1568.04 L1260.07 1568.04 L1260.07 1532.4 M1260.07 1518.52 L1265.93 1518.52 L1265.93 1525.93 L1260.07 1525.93 L1260.07 1518.52 Z" fill="#000000" fill-rule="nonzero" fill-opacity="1" /><path clip-path="url(#clip190)" d="M1305.94 1539.24 Q1308.14 1535.29 1311.19 1533.41 Q1314.25 1531.54 1318.38 1531.54 Q1323.95 1531.54 1326.98 1535.45 Q1330 1539.33 1330 1546.53 L1330 1568.04 L1324.11 1568.04 L1324.11 1546.72 Q1324.11 1541.59 1322.3 1539.11 Q1320.48 1536.63 1316.76 1536.63 Q1312.21 1536.63 1309.57 1539.65 Q1306.93 1542.68 1306.93 1547.9 L1306.93 1568.04 L1301.04 1568.04 L1301.04 1546.72 Q1301.04 1541.56 1299.22 1539.11 Q1297.41 1536.63 1293.62 1536.63 Q1289.13 1536.63 1286.49 1539.68 Q1283.85 1542.71 1283.85 1547.9 L1283.85 1568.04 L1277.96 1568.04 L1277.96 1532.4 L1283.85 1532.4 L1283.85 1537.93 Q1285.86 1534.66 1288.66 1533.1 Q1291.46 1531.54 1295.31 1531.54 Q1299.19 1531.54 1301.9 1533.51 Q1304.63 1535.48 1305.94 1539.24 Z" fill="#000000" fill-rule="nonzero" fill-opacity="1" /><path clip-path="url(#clip190)" d="M1372.17 1548.76 L1372.17 1551.62 L1345.25 1551.62 Q1345.63 1557.67 1348.88 1560.85 Q1352.15 1564 1357.98 1564 Q1361.35 1564 1364.5 1563.17 Q1367.69 1562.35 1370.81 1560.69 L1370.81 1566.23 Q1367.65 1567.57 1364.34 1568.27 Q1361.03 1568.97 1357.63 1568.97 Q1349.1 1568.97 1344.1 1564 Q1339.14 1559.04 1339.14 1550.57 Q1339.14 1541.82 1343.85 1536.69 Q1348.59 1531.54 1356.61 1531.54 Q1363.8 1531.54 1367.97 1536.18 Q1372.17 1540.8 1372.17 1548.76 M1366.32 1547.04 Q1366.25 1542.23 1363.61 1539.37 Q1361 1536.5 1356.67 1536.5 Q1351.77 1536.5 1348.81 1539.27 Q1345.88 1542.04 1345.44 1547.07 L1366.32 1547.04 Z" fill="#000000" fill-rule="nonzero" fill-opacity="1" /><polyline clip-path="url(#clip192)" style="stroke:#000000; stroke-linecap:round; stroke-linejoin:round; stroke-width:2; stroke-opacity:0.1; fill:none" points="249.542,1405.11 2352.76,1405.11 "/>
<polyline clip-path="url(#clip192)" style="stroke:#000000; stroke-linecap:round; stroke-linejoin:round; stroke-width:2; stroke-opacity:0.1; fill:none" points="249.542,1096.77 2352.76,1096.77 "/>
<polyline clip-path="url(#clip192)" style="stroke:#000000; stroke-linecap:round; stroke-linejoin:round; stroke-width:2; stroke-opacity:0.1; fill:none" points="249.542,788.435 2352.76,788.435 "/>
<polyline clip-path="url(#clip192)" style="stroke:#000000; stroke-linecap:round; stroke-linejoin:round; stroke-width:2; stroke-opacity:0.1; fill:none" points="249.542,480.095 2352.76,480.095 "/>
<polyline clip-path="url(#clip192)" style="stroke:#000000; stroke-linecap:round; stroke-linejoin:round; stroke-width:2; stroke-opacity:0.1; fill:none" points="249.542,171.756 2352.76,171.756 "/>
<polyline clip-path="url(#clip190)" style="stroke:#000000; stroke-linecap:round; stroke-linejoin:round; stroke-width:4; stroke-opacity:1; fill:none" points="249.542,1423.18 249.542,123.472 "/>
<polyline clip-path="url(#clip190)" style="stroke:#000000; stroke-linecap:round; stroke-linejoin:round; stroke-width:4; stroke-opacity:1; fill:none" points="249.542,1405.11 268.44,1405.11 "/>
<polyline clip-path="url(#clip190)" style="stroke:#000000; stroke-linecap:round; stroke-linejoin:round; stroke-width:4; stroke-opacity:1; fill:none" points="249.542,1096.77 268.44,1096.77 "/>
<polyline clip-path="url(#clip190)" style="stroke:#000000; stroke-linecap:round; stroke-linejoin:round; stroke-width:4; stroke-opacity:1; fill:none" points="249.542,788.435 268.44,788.435 "/>
<polyline clip-path="url(#clip190)" style="stroke:#000000; stroke-linecap:round; stroke-linejoin:round; stroke-width:4; stroke-opacity:1; fill:none" points="249.542,480.095 268.44,480.095 "/>
<polyline clip-path="url(#clip190)" style="stroke:#000000; stroke-linecap:round; stroke-linejoin:round; stroke-width:4; stroke-opacity:1; fill:none" points="249.542,171.756 268.44,171.756 "/>
<path clip-path="url(#clip190)" d="M126.205 1390.91 Q122.593 1390.91 120.765 1394.48 Q118.959 1398.02 118.959 1405.15 Q118.959 1412.25 120.765 1415.82 Q122.593 1419.36 126.205 1419.36 Q129.839 1419.36 131.644 1415.82 Q133.473 1412.25 133.473 1405.15 Q133.473 1398.02 131.644 1394.48 Q129.839 1390.91 126.205 1390.91 M126.205 1387.21 Q132.015 1387.21 135.07 1391.82 Q138.149 1396.4 138.149 1405.15 Q138.149 1413.88 135.07 1418.48 Q132.015 1423.06 126.205 1423.06 Q120.394 1423.06 117.316 1418.48 Q114.26 1413.88 114.26 1405.15 Q114.26 1396.4 117.316 1391.82 Q120.394 1387.21 126.205 1387.21 Z" fill="#000000" fill-rule="nonzero" fill-opacity="1" /><path clip-path="url(#clip190)" d="M146.366 1416.51 L151.251 1416.51 L151.251 1422.39 L146.366 1422.39 L146.366 1416.51 Z" fill="#000000" fill-rule="nonzero" fill-opacity="1" /><path clip-path="url(#clip190)" d="M171.436 1390.91 Q167.825 1390.91 165.996 1394.48 Q164.19 1398.02 164.19 1405.15 Q164.19 1412.25 165.996 1415.82 Q167.825 1419.36 171.436 1419.36 Q175.07 1419.36 176.876 1415.82 Q178.704 1412.25 178.704 1405.15 Q178.704 1398.02 176.876 1394.48 Q175.07 1390.91 171.436 1390.91 M171.436 1387.21 Q177.246 1387.21 180.301 1391.82 Q183.38 1396.4 183.38 1405.15 Q183.38 1413.88 180.301 1418.48 Q177.246 1423.06 171.436 1423.06 Q165.626 1423.06 162.547 1418.48 Q159.491 1413.88 159.491 1405.15 Q159.491 1396.4 162.547 1391.82 Q165.626 1387.21 171.436 1387.21 Z" fill="#000000" fill-rule="nonzero" fill-opacity="1" /><path clip-path="url(#clip190)" d="M201.598 1390.91 Q197.987 1390.91 196.158 1394.48 Q194.352 1398.02 194.352 1405.15 Q194.352 1412.25 196.158 1415.82 Q197.987 1419.36 201.598 1419.36 Q205.232 1419.36 207.037 1415.82 Q208.866 1412.25 208.866 1405.15 Q208.866 1398.02 207.037 1394.48 Q205.232 1390.91 201.598 1390.91 M201.598 1387.21 Q207.408 1387.21 210.463 1391.82 Q213.542 1396.4 213.542 1405.15 Q213.542 1413.88 210.463 1418.48 Q207.408 1423.06 201.598 1423.06 Q195.787 1423.06 192.709 1418.48 Q189.653 1413.88 189.653 1405.15 Q189.653 1396.4 192.709 1391.82 Q195.787 1387.21 201.598 1387.21 Z" fill="#000000" fill-rule="nonzero" fill-opacity="1" /><path clip-path="url(#clip190)" d="M127.2 1082.57 Q123.589 1082.57 121.76 1086.14 Q119.955 1089.68 119.955 1096.81 Q119.955 1103.92 121.76 1107.48 Q123.589 1111.02 127.2 1111.02 Q130.834 1111.02 132.64 1107.48 Q134.468 1103.92 134.468 1096.81 Q134.468 1089.68 132.64 1086.14 Q130.834 1082.57 127.2 1082.57 M127.2 1078.87 Q133.01 1078.87 136.066 1083.48 Q139.144 1088.06 139.144 1096.81 Q139.144 1105.54 136.066 1110.14 Q133.01 1114.73 127.2 1114.73 Q121.39 1114.73 118.311 1110.14 Q115.256 1105.54 115.256 1096.81 Q115.256 1088.06 118.311 1083.48 Q121.39 1078.87 127.2 1078.87 Z" fill="#000000" fill-rule="nonzero" fill-opacity="1" /><path clip-path="url(#clip190)" d="M147.362 1108.17 L152.246 1108.17 L152.246 1114.05 L147.362 1114.05 L147.362 1108.17 Z" fill="#000000" fill-rule="nonzero" fill-opacity="1" /><path clip-path="url(#clip190)" d="M166.459 1110.12 L182.778 1110.12 L182.778 1114.05 L160.834 1114.05 L160.834 1110.12 Q163.496 1107.36 168.079 1102.73 Q172.686 1098.08 173.866 1096.74 Q176.112 1094.22 176.991 1092.48 Q177.894 1090.72 177.894 1089.03 Q177.894 1086.28 175.95 1084.54 Q174.028 1082.8 170.927 1082.8 Q168.727 1082.8 166.274 1083.57 Q163.843 1084.33 161.065 1085.88 L161.065 1081.16 Q163.89 1080.03 166.343 1079.45 Q168.797 1078.87 170.834 1078.87 Q176.204 1078.87 179.399 1081.55 Q182.593 1084.24 182.593 1088.73 Q182.593 1090.86 181.783 1092.78 Q180.996 1094.68 178.889 1097.27 Q178.311 1097.94 175.209 1101.16 Q172.107 1104.36 166.459 1110.12 Z" fill="#000000" fill-rule="nonzero" fill-opacity="1" /><path clip-path="url(#clip190)" d="M192.639 1079.49 L210.996 1079.49 L210.996 1083.43 L196.922 1083.43 L196.922 1091.9 Q197.94 1091.55 198.959 1091.39 Q199.977 1091.21 200.996 1091.21 Q206.783 1091.21 210.162 1094.38 Q213.542 1097.55 213.542 1102.97 Q213.542 1108.54 210.07 1111.65 Q206.598 1114.73 200.278 1114.73 Q198.102 1114.73 195.834 1114.36 Q193.588 1113.98 191.181 1113.24 L191.181 1108.54 Q193.264 1109.68 195.487 1110.23 Q197.709 1110.79 200.186 1110.79 Q204.19 1110.79 206.528 1108.68 Q208.866 1106.58 208.866 1102.97 Q208.866 1099.36 206.528 1097.25 Q204.19 1095.14 200.186 1095.14 Q198.311 1095.14 196.436 1095.56 Q194.584 1095.98 192.639 1096.86 L192.639 1079.49 Z" fill="#000000" fill-rule="nonzero" fill-opacity="1" /><path clip-path="url(#clip190)" d="M126.205 774.233 Q122.593 774.233 120.765 777.798 Q118.959 781.34 118.959 788.469 Q118.959 795.576 120.765 799.141 Q122.593 802.682 126.205 802.682 Q129.839 802.682 131.644 799.141 Q133.473 795.576 133.473 788.469 Q133.473 781.34 131.644 777.798 Q129.839 774.233 126.205 774.233 M126.205 770.53 Q132.015 770.53 135.07 775.136 Q138.149 779.719 138.149 788.469 Q138.149 797.196 135.07 801.803 Q132.015 806.386 126.205 806.386 Q120.394 806.386 117.316 801.803 Q114.26 797.196 114.26 788.469 Q114.26 779.719 117.316 775.136 Q120.394 770.53 126.205 770.53 Z" fill="#000000" fill-rule="nonzero" fill-opacity="1" /><path clip-path="url(#clip190)" d="M146.366 799.835 L151.251 799.835 L151.251 805.715 L146.366 805.715 L146.366 799.835 Z" fill="#000000" fill-rule="nonzero" fill-opacity="1" /><path clip-path="url(#clip190)" d="M161.482 771.155 L179.839 771.155 L179.839 775.09 L165.765 775.09 L165.765 783.562 Q166.783 783.215 167.802 783.053 Q168.82 782.868 169.839 782.868 Q175.626 782.868 179.005 786.039 Q182.385 789.21 182.385 794.627 Q182.385 800.205 178.913 803.307 Q175.44 806.386 169.121 806.386 Q166.945 806.386 164.677 806.016 Q162.431 805.645 160.024 804.904 L160.024 800.205 Q162.107 801.34 164.329 801.895 Q166.552 802.451 169.028 802.451 Q173.033 802.451 175.371 800.344 Q177.709 798.238 177.709 794.627 Q177.709 791.016 175.371 788.909 Q173.033 786.803 169.028 786.803 Q167.153 786.803 165.278 787.219 Q163.427 787.636 161.482 788.516 L161.482 771.155 Z" fill="#000000" fill-rule="nonzero" fill-opacity="1" /><path clip-path="url(#clip190)" d="M201.598 774.233 Q197.987 774.233 196.158 777.798 Q194.352 781.34 194.352 788.469 Q194.352 795.576 196.158 799.141 Q197.987 802.682 201.598 802.682 Q205.232 802.682 207.037 799.141 Q208.866 795.576 208.866 788.469 Q208.866 781.34 207.037 777.798 Q205.232 774.233 201.598 774.233 M201.598 770.53 Q207.408 770.53 210.463 775.136 Q213.542 779.719 213.542 788.469 Q213.542 797.196 210.463 801.803 Q207.408 806.386 201.598 806.386 Q195.787 806.386 192.709 801.803 Q189.653 797.196 189.653 788.469 Q189.653 779.719 192.709 775.136 Q195.787 770.53 201.598 770.53 Z" fill="#000000" fill-rule="nonzero" fill-opacity="1" /><path clip-path="url(#clip190)" d="M127.2 465.894 Q123.589 465.894 121.76 469.459 Q119.955 473 119.955 480.13 Q119.955 487.236 121.76 490.801 Q123.589 494.343 127.2 494.343 Q130.834 494.343 132.64 490.801 Q134.468 487.236 134.468 480.13 Q134.468 473 132.64 469.459 Q130.834 465.894 127.2 465.894 M127.2 462.19 Q133.01 462.19 136.066 466.797 Q139.144 471.38 139.144 480.13 Q139.144 488.857 136.066 493.463 Q133.01 498.046 127.2 498.046 Q121.39 498.046 118.311 493.463 Q115.256 488.857 115.256 480.13 Q115.256 471.38 118.311 466.797 Q121.39 462.19 127.2 462.19 Z" fill="#000000" fill-rule="nonzero" fill-opacity="1" /><path clip-path="url(#clip190)" d="M147.362 491.496 L152.246 491.496 L152.246 497.375 L147.362 497.375 L147.362 491.496 Z" fill="#000000" fill-rule="nonzero" fill-opacity="1" /><path clip-path="url(#clip190)" d="M161.251 462.815 L183.473 462.815 L183.473 464.806 L170.927 497.375 L166.042 497.375 L177.848 466.75 L161.251 466.75 L161.251 462.815 Z" fill="#000000" fill-rule="nonzero" fill-opacity="1" /><path clip-path="url(#clip190)" d="M192.639 462.815 L210.996 462.815 L210.996 466.75 L196.922 466.75 L196.922 475.222 Q197.94 474.875 198.959 474.713 Q199.977 474.528 200.996 474.528 Q206.783 474.528 210.162 477.699 Q213.542 480.871 213.542 486.287 Q213.542 491.866 210.07 494.968 Q206.598 498.046 200.278 498.046 Q198.102 498.046 195.834 497.676 Q193.588 497.306 191.181 496.565 L191.181 491.866 Q193.264 493 195.487 493.556 Q197.709 494.111 200.186 494.111 Q204.19 494.111 206.528 492.005 Q208.866 489.898 208.866 486.287 Q208.866 482.676 206.528 480.57 Q204.19 478.463 200.186 478.463 Q198.311 478.463 196.436 478.88 Q194.584 479.297 192.639 480.176 L192.639 462.815 Z" fill="#000000" fill-rule="nonzero" fill-opacity="1" /><path clip-path="url(#clip190)" d="M117.015 185.1 L124.654 185.1 L124.654 158.735 L116.343 160.402 L116.343 156.142 L124.607 154.476 L129.283 154.476 L129.283 185.1 L136.922 185.1 L136.922 189.036 L117.015 189.036 L117.015 185.1 Z" fill="#000000" fill-rule="nonzero" fill-opacity="1" /><path clip-path="url(#clip190)" d="M146.366 183.156 L151.251 183.156 L151.251 189.036 L146.366 189.036 L146.366 183.156 Z" fill="#000000" fill-rule="nonzero" fill-opacity="1" /><path clip-path="url(#clip190)" d="M171.436 157.554 Q167.825 157.554 165.996 161.119 Q164.19 164.661 164.19 171.79 Q164.19 178.897 165.996 182.462 Q167.825 186.003 171.436 186.003 Q175.07 186.003 176.876 182.462 Q178.704 178.897 178.704 171.79 Q178.704 164.661 176.876 161.119 Q175.07 157.554 171.436 157.554 M171.436 153.851 Q177.246 153.851 180.301 158.457 Q183.38 163.04 183.38 171.79 Q183.38 180.517 180.301 185.124 Q177.246 189.707 171.436 189.707 Q165.626 189.707 162.547 185.124 Q159.491 180.517 159.491 171.79 Q159.491 163.04 162.547 158.457 Q165.626 153.851 171.436 153.851 Z" fill="#000000" fill-rule="nonzero" fill-opacity="1" /><path clip-path="url(#clip190)" d="M201.598 157.554 Q197.987 157.554 196.158 161.119 Q194.352 164.661 194.352 171.79 Q194.352 178.897 196.158 182.462 Q197.987 186.003 201.598 186.003 Q205.232 186.003 207.037 182.462 Q208.866 178.897 208.866 171.79 Q208.866 164.661 207.037 161.119 Q205.232 157.554 201.598 157.554 M201.598 153.851 Q207.408 153.851 210.463 158.457 Q213.542 163.04 213.542 171.79 Q213.542 180.517 210.463 185.124 Q207.408 189.707 201.598 189.707 Q195.787 189.707 192.709 185.124 Q189.653 180.517 189.653 171.79 Q189.653 163.04 192.709 158.457 Q195.787 153.851 201.598 153.851 Z" fill="#000000" fill-rule="nonzero" fill-opacity="1" /><path clip-path="url(#clip190)" d="M28.3562 756.711 L45.7028 769.602 L64.0042 756.043 L64.0042 762.95 L49.9996 773.326 L64.0042 783.702 L64.0042 790.609 L45.3526 776.763 L28.3562 789.431 L28.3562 782.524 L41.0558 773.071 L28.3562 763.618 L28.3562 756.711 Z" fill="#000000" fill-rule="nonzero" fill-opacity="1" /><path clip-path="url(#clip190)" d="M232.419 12.096 L283.582 12.096 L283.582 18.9825 L262.112 18.9825 L262.112 72.576 L253.889 72.576 L253.889 18.9825 L232.419 18.9825 L232.419 12.096 Z" fill="#000000" fill-rule="nonzero" fill-opacity="1" /><path clip-path="url(#clip190)" d="M305.254 34.1734 Q303.999 33.4443 302.5 33.1202 Q301.041 32.7556 299.259 32.7556 Q292.94 32.7556 289.537 36.8875 Q286.175 40.9789 286.175 48.6757 L286.175 72.576 L278.68 72.576 L278.68 27.2059 L286.175 27.2059 L286.175 34.2544 Q288.524 30.1225 292.292 28.1376 Q296.059 26.1121 301.447 26.1121 Q302.216 26.1121 303.148 26.2337 Q304.08 26.3147 305.214 26.5172 L305.254 34.1734 Z" fill="#000000" fill-rule="nonzero" fill-opacity="1" /><path clip-path="url(#clip190)" d="M333.692 49.7694 Q324.658 49.7694 321.174 51.8354 Q317.691 53.9013 317.691 58.8839 Q317.691 62.8538 320.283 65.2034 Q322.916 67.5124 327.413 67.5124 Q333.611 67.5124 337.338 63.1374 Q341.105 58.7219 341.105 51.4303 L341.105 49.7694 L333.692 49.7694 M348.559 46.6907 L348.559 72.576 L341.105 72.576 L341.105 65.6895 Q338.553 69.8214 334.745 71.8063 Q330.937 73.7508 325.428 73.7508 Q318.46 73.7508 314.328 69.8619 Q310.237 65.9325 310.237 59.3701 Q310.237 51.7138 315.341 47.825 Q320.486 43.9361 330.654 43.9361 L341.105 43.9361 L341.105 43.2069 Q341.105 38.0623 337.702 35.2672 Q334.34 32.4315 328.223 32.4315 Q324.334 32.4315 320.648 33.3632 Q316.962 34.295 313.559 36.1584 L313.559 29.2718 Q317.65 27.692 321.499 26.9223 Q325.347 26.1121 328.993 26.1121 Q338.836 26.1121 343.698 31.2163 Q348.559 36.3204 348.559 46.6907 Z" fill="#000000" fill-rule="nonzero" fill-opacity="1" /><path clip-path="url(#clip190)" d="M363.912 27.2059 L371.365 27.2059 L371.365 72.576 L363.912 72.576 L363.912 27.2059 M363.912 9.54393 L371.365 9.54393 L371.365 18.9825 L363.912 18.9825 L363.912 9.54393 Z" fill="#000000" fill-rule="nonzero" fill-opacity="1" /><path clip-path="url(#clip190)" d="M424.675 45.1919 L424.675 72.576 L417.221 72.576 L417.221 45.4349 Q417.221 38.994 414.71 35.7938 Q412.198 32.5936 407.175 32.5936 Q401.139 32.5936 397.656 36.4419 Q394.172 40.2903 394.172 46.9338 L394.172 72.576 L386.678 72.576 L386.678 27.2059 L394.172 27.2059 L394.172 34.2544 Q396.845 30.163 400.451 28.1376 Q404.096 26.1121 408.836 26.1121 Q416.654 26.1121 420.665 30.9732 Q424.675 35.7938 424.675 45.1919 Z" fill="#000000" fill-rule="nonzero" fill-opacity="1" /><path clip-path="url(#clip190)" d="M439.542 27.2059 L446.996 27.2059 L446.996 72.576 L439.542 72.576 L439.542 27.2059 M439.542 9.54393 L446.996 9.54393 L446.996 18.9825 L439.542 18.9825 L439.542 9.54393 Z" fill="#000000" fill-rule="nonzero" fill-opacity="1" /><path clip-path="url(#clip190)" d="M500.305 45.1919 L500.305 72.576 L492.852 72.576 L492.852 45.4349 Q492.852 38.994 490.34 35.7938 Q487.829 32.5936 482.806 32.5936 Q476.77 32.5936 473.286 36.4419 Q469.802 40.2903 469.802 46.9338 L469.802 72.576 L462.308 72.576 L462.308 27.2059 L469.802 27.2059 L469.802 34.2544 Q472.476 30.163 476.081 28.1376 Q479.727 26.1121 484.466 26.1121 Q492.285 26.1121 496.295 30.9732 Q500.305 35.7938 500.305 45.1919 Z" fill="#000000" fill-rule="nonzero" fill-opacity="1" /><path clip-path="url(#clip190)" d="M545.027 49.3643 Q545.027 41.2625 541.665 36.8065 Q538.343 32.3505 532.308 32.3505 Q526.312 32.3505 522.95 36.8065 Q519.628 41.2625 519.628 49.3643 Q519.628 57.4256 522.95 61.8816 Q526.312 66.3376 532.308 66.3376 Q538.343 66.3376 541.665 61.8816 Q545.027 57.4256 545.027 49.3643 M552.481 66.9452 Q552.481 78.5308 547.336 84.1616 Q542.192 89.8329 531.578 89.8329 Q527.649 89.8329 524.165 89.2252 Q520.682 88.6581 517.4 87.4428 L517.4 80.1917 Q520.682 81.9741 523.882 82.8248 Q527.082 83.6755 530.404 83.6755 Q537.736 83.6755 541.382 79.8271 Q545.027 76.0193 545.027 68.282 L545.027 64.5957 Q542.718 68.6061 539.113 70.5911 Q535.508 72.576 530.485 72.576 Q522.14 72.576 517.036 66.2161 Q511.932 59.8562 511.932 49.3643 Q511.932 38.832 517.036 32.472 Q522.14 26.1121 530.485 26.1121 Q535.508 26.1121 539.113 28.0971 Q542.718 30.082 545.027 34.0924 L545.027 27.2059 L552.481 27.2059 L552.481 66.9452 Z" fill="#000000" fill-rule="nonzero" fill-opacity="1" /><path clip-path="url(#clip190)" d="M630.785 14.0809 L630.785 22.0612 Q626.127 19.8332 621.995 18.7395 Q617.863 17.6457 614.014 17.6457 Q607.33 17.6457 603.685 20.2383 Q600.079 22.8309 600.079 27.611 Q600.079 31.6214 602.469 33.6873 Q604.9 35.7128 611.624 36.9686 L616.566 37.9813 Q625.721 39.7232 630.056 44.1387 Q634.431 48.5136 634.431 55.8863 Q634.431 64.6767 628.517 69.2137 Q622.643 73.7508 611.26 73.7508 Q606.966 73.7508 602.105 72.7785 Q597.284 71.8063 592.099 69.9024 L592.099 61.4765 Q597.082 64.2716 601.862 65.6895 Q606.642 67.1073 611.26 67.1073 Q618.268 67.1073 622.076 64.3527 Q625.883 61.598 625.883 56.4939 Q625.883 52.0379 623.129 49.5264 Q620.415 47.0148 614.176 45.759 L609.194 44.7868 Q600.039 42.9639 595.947 39.075 Q591.856 35.1862 591.856 28.2591 Q591.856 20.2383 597.487 15.6203 Q603.158 11.0023 613.083 11.0023 Q617.336 11.0023 621.752 11.7719 Q626.167 12.5416 630.785 14.0809 Z" fill="#000000" fill-rule="nonzero" fill-opacity="1" /><path clip-path="url(#clip190)" d="M667.486 49.7694 Q658.453 49.7694 654.969 51.8354 Q651.485 53.9013 651.485 58.8839 Q651.485 62.8538 654.078 65.2034 Q656.711 67.5124 661.207 67.5124 Q667.405 67.5124 671.132 63.1374 Q674.899 58.7219 674.899 51.4303 L674.899 49.7694 L667.486 49.7694 M682.353 46.6907 L682.353 72.576 L674.899 72.576 L674.899 65.6895 Q672.347 69.8214 668.54 71.8063 Q664.732 73.7508 659.222 73.7508 Q652.255 73.7508 648.123 69.8619 Q644.032 65.9325 644.032 59.3701 Q644.032 51.7138 649.136 47.825 Q654.28 43.9361 664.448 43.9361 L674.899 43.9361 L674.899 43.2069 Q674.899 38.0623 671.497 35.2672 Q668.134 32.4315 662.018 32.4315 Q658.129 32.4315 654.442 33.3632 Q650.756 34.295 647.353 36.1584 L647.353 29.2718 Q651.445 27.692 655.293 26.9223 Q659.141 26.1121 662.787 26.1121 Q672.631 26.1121 677.492 31.2163 Q682.353 36.3204 682.353 46.6907 Z" fill="#000000" fill-rule="nonzero" fill-opacity="1" /><path clip-path="url(#clip190)" d="M733.03 35.9153 Q735.825 30.8922 739.714 28.5022 Q743.603 26.1121 748.869 26.1121 Q755.958 26.1121 759.806 31.0947 Q763.655 36.0368 763.655 45.1919 L763.655 72.576 L756.161 72.576 L756.161 45.4349 Q756.161 38.913 753.852 35.7533 Q751.543 32.5936 746.803 32.5936 Q741.01 32.5936 737.648 36.4419 Q734.286 40.2903 734.286 46.9338 L734.286 72.576 L726.792 72.576 L726.792 45.4349 Q726.792 38.8725 724.482 35.7533 Q722.173 32.5936 717.353 32.5936 Q711.641 32.5936 708.279 36.4824 Q704.917 40.3308 704.917 46.9338 L704.917 72.576 L697.422 72.576 L697.422 27.2059 L704.917 27.2059 L704.917 34.2544 Q707.469 30.082 711.033 28.0971 Q714.598 26.1121 719.5 26.1121 Q724.442 26.1121 727.885 28.6237 Q731.369 31.1352 733.03 35.9153 Z" fill="#000000" fill-rule="nonzero" fill-opacity="1" /><path clip-path="url(#clip190)" d="M785.732 65.7705 L785.732 89.8329 L778.238 89.8329 L778.238 27.2059 L785.732 27.2059 L785.732 34.0924 Q788.082 30.0415 791.646 28.0971 Q795.252 26.1121 800.234 26.1121 Q808.498 26.1121 813.643 32.6746 Q818.828 39.2371 818.828 49.9314 Q818.828 60.6258 813.643 67.1883 Q808.498 73.7508 800.234 73.7508 Q795.252 73.7508 791.646 71.8063 Q788.082 69.8214 785.732 65.7705 M811.091 49.9314 Q811.091 41.7081 807.688 37.0496 Q804.326 32.3505 798.412 32.3505 Q792.497 32.3505 789.094 37.0496 Q785.732 41.7081 785.732 49.9314 Q785.732 58.1548 789.094 62.8538 Q792.497 67.5124 798.412 67.5124 Q804.326 67.5124 807.688 62.8538 Q811.091 58.1548 811.091 49.9314 Z" fill="#000000" fill-rule="nonzero" fill-opacity="1" /><path clip-path="url(#clip190)" d="M831.183 9.54393 L838.637 9.54393 L838.637 72.576 L831.183 72.576 L831.183 9.54393 Z" fill="#000000" fill-rule="nonzero" fill-opacity="1" /><path clip-path="url(#clip190)" d="M893.041 48.0275 L893.041 51.6733 L858.77 51.6733 Q859.256 59.3701 863.388 63.421 Q867.56 67.4314 874.974 67.4314 Q879.268 67.4314 883.278 66.3781 Q887.329 65.3249 891.299 63.2184 L891.299 70.267 Q887.288 71.9684 883.075 72.8596 Q878.862 73.7508 874.528 73.7508 Q863.672 73.7508 857.312 67.4314 Q850.992 61.1119 850.992 50.3365 Q850.992 39.1965 856.988 32.6746 Q863.023 26.1121 873.232 26.1121 Q882.387 26.1121 887.693 32.0264 Q893.041 37.9003 893.041 48.0275 M885.587 45.84 Q885.506 39.7232 882.144 36.0774 Q878.822 32.4315 873.313 32.4315 Q867.074 32.4315 863.307 35.9558 Q859.58 39.4801 859.013 45.8805 L885.587 45.84 Z" fill="#000000" fill-rule="nonzero" fill-opacity="1" /><path clip-path="url(#clip190)" d="M934.117 65.6895 L947.485 65.6895 L947.485 19.5497 L932.942 22.4663 L932.942 15.0127 L947.404 12.096 L955.587 12.096 L955.587 65.6895 L968.955 65.6895 L968.955 72.576 L934.117 72.576 L934.117 65.6895 Z" fill="#000000" fill-rule="nonzero" fill-opacity="1" /><path clip-path="url(#clip190)" d="M986.333 62.2867 L994.88 62.2867 L994.88 69.2543 L988.237 82.2172 L983.011 82.2172 L986.333 69.2543 L986.333 62.2867 Z" fill="#000000" fill-rule="nonzero" fill-opacity="1" /><path clip-path="url(#clip190)" d="M1039.64 65.6895 L1053.01 65.6895 L1053.01 19.5497 L1038.47 22.4663 L1038.47 15.0127 L1052.93 12.096 L1061.11 12.096 L1061.11 65.6895 L1074.48 65.6895 L1074.48 72.576 L1039.64 72.576 L1039.64 65.6895 Z" fill="#000000" fill-rule="nonzero" fill-opacity="1" /><path clip-path="url(#clip190)" d="M1108.51 17.4837 Q1102.19 17.4837 1098.99 23.7221 Q1095.83 29.92 1095.83 42.3968 Q1095.83 54.833 1098.99 61.0714 Q1102.19 67.2693 1108.51 67.2693 Q1114.87 67.2693 1118.03 61.0714 Q1121.23 54.833 1121.23 42.3968 Q1121.23 29.92 1118.03 23.7221 Q1114.87 17.4837 1108.51 17.4837 M1108.51 11.0023 Q1118.68 11.0023 1124.02 19.0636 Q1129.41 27.0843 1129.41 42.3968 Q1129.41 57.6687 1124.02 65.73 Q1118.68 73.7508 1108.51 73.7508 Q1098.34 73.7508 1092.95 65.73 Q1087.61 57.6687 1087.61 42.3968 Q1087.61 27.0843 1092.95 19.0636 Q1098.34 11.0023 1108.51 11.0023 Z" fill="#000000" fill-rule="nonzero" fill-opacity="1" /><path clip-path="url(#clip190)" d="M1161.29 17.4837 Q1154.97 17.4837 1151.77 23.7221 Q1148.61 29.92 1148.61 42.3968 Q1148.61 54.833 1151.77 61.0714 Q1154.97 67.2693 1161.29 67.2693 Q1167.65 67.2693 1170.81 61.0714 Q1174.01 54.833 1174.01 42.3968 Q1174.01 29.92 1170.81 23.7221 Q1167.65 17.4837 1161.29 17.4837 M1161.29 11.0023 Q1171.46 11.0023 1176.81 19.0636 Q1182.19 27.0843 1182.19 42.3968 Q1182.19 57.6687 1176.81 65.73 Q1171.46 73.7508 1161.29 73.7508 Q1151.12 73.7508 1145.74 65.73 Q1140.39 57.6687 1140.39 42.3968 Q1140.39 27.0843 1145.74 19.0636 Q1151.12 11.0023 1161.29 11.0023 Z" fill="#000000" fill-rule="nonzero" fill-opacity="1" /><path clip-path="url(#clip190)" d="M1214.07 17.4837 Q1207.76 17.4837 1204.56 23.7221 Q1201.4 29.92 1201.4 42.3968 Q1201.4 54.833 1204.56 61.0714 Q1207.76 67.2693 1214.07 67.2693 Q1220.43 67.2693 1223.59 61.0714 Q1226.79 54.833 1226.79 42.3968 Q1226.79 29.92 1223.59 23.7221 Q1220.43 17.4837 1214.07 17.4837 M1214.07 11.0023 Q1224.24 11.0023 1229.59 19.0636 Q1234.98 27.0843 1234.98 42.3968 Q1234.98 57.6687 1229.59 65.73 Q1224.24 73.7508 1214.07 73.7508 Q1203.91 73.7508 1198.52 65.73 Q1193.17 57.6687 1193.17 42.3968 Q1193.17 27.0843 1198.52 19.0636 Q1203.91 11.0023 1214.07 11.0023 Z" fill="#000000" fill-rule="nonzero" fill-opacity="1" /><path clip-path="url(#clip190)" d="M1311.26 14.0809 L1311.26 22.0612 Q1306.6 19.8332 1302.47 18.7395 Q1298.33 17.6457 1294.49 17.6457 Q1287.8 17.6457 1284.16 20.2383 Q1280.55 22.8309 1280.55 27.611 Q1280.55 31.6214 1282.94 33.6873 Q1285.37 35.7128 1292.1 36.9686 L1297.04 37.9813 Q1306.19 39.7232 1310.53 44.1387 Q1314.9 48.5136 1314.9 55.8863 Q1314.9 64.6767 1308.99 69.2137 Q1303.11 73.7508 1291.73 73.7508 Q1287.44 73.7508 1282.58 72.7785 Q1277.75 71.8063 1272.57 69.9024 L1272.57 61.4765 Q1277.55 64.2716 1282.33 65.6895 Q1287.11 67.1073 1291.73 67.1073 Q1298.74 67.1073 1302.55 64.3527 Q1306.35 61.598 1306.35 56.4939 Q1306.35 52.0379 1303.6 49.5264 Q1300.89 47.0148 1294.65 45.759 L1289.66 44.7868 Q1280.51 42.9639 1276.42 39.075 Q1272.33 35.1862 1272.33 28.2591 Q1272.33 20.2383 1277.96 15.6203 Q1283.63 11.0023 1293.55 11.0023 Q1297.81 11.0023 1302.22 11.7719 Q1306.64 12.5416 1311.26 14.0809 Z" fill="#000000" fill-rule="nonzero" fill-opacity="1" /><path clip-path="url(#clip190)" d="M1347.96 49.7694 Q1338.92 49.7694 1335.44 51.8354 Q1331.96 53.9013 1331.96 58.8839 Q1331.96 62.8538 1334.55 65.2034 Q1337.18 67.5124 1341.68 67.5124 Q1347.88 67.5124 1351.6 63.1374 Q1355.37 58.7219 1355.37 51.4303 L1355.37 49.7694 L1347.96 49.7694 M1362.82 46.6907 L1362.82 72.576 L1355.37 72.576 L1355.37 65.6895 Q1352.82 69.8214 1349.01 71.8063 Q1345.2 73.7508 1339.69 73.7508 Q1332.73 73.7508 1328.59 69.8619 Q1324.5 65.9325 1324.5 59.3701 Q1324.5 51.7138 1329.61 47.825 Q1334.75 43.9361 1344.92 43.9361 L1355.37 43.9361 L1355.37 43.2069 Q1355.37 38.0623 1351.97 35.2672 Q1348.61 32.4315 1342.49 32.4315 Q1338.6 32.4315 1334.91 33.3632 Q1331.23 34.295 1327.82 36.1584 L1327.82 29.2718 Q1331.92 27.692 1335.76 26.9223 Q1339.61 26.1121 1343.26 26.1121 Q1353.1 26.1121 1357.96 31.2163 Q1362.82 36.3204 1362.82 46.6907 Z" fill="#000000" fill-rule="nonzero" fill-opacity="1" /><path clip-path="url(#clip190)" d="M1413.5 35.9153 Q1416.3 30.8922 1420.18 28.5022 Q1424.07 26.1121 1429.34 26.1121 Q1436.43 26.1121 1440.28 31.0947 Q1444.13 36.0368 1444.13 45.1919 L1444.13 72.576 L1436.63 72.576 L1436.63 45.4349 Q1436.63 38.913 1434.32 35.7533 Q1432.01 32.5936 1427.27 32.5936 Q1421.48 32.5936 1418.12 36.4419 Q1414.76 40.2903 1414.76 46.9338 L1414.76 72.576 L1407.26 72.576 L1407.26 45.4349 Q1407.26 38.8725 1404.95 35.7533 Q1402.64 32.5936 1397.82 32.5936 Q1392.11 32.5936 1388.75 36.4824 Q1385.39 40.3308 1385.39 46.9338 L1385.39 72.576 L1377.89 72.576 L1377.89 27.2059 L1385.39 27.2059 L1385.39 34.2544 Q1387.94 30.082 1391.5 28.0971 Q1395.07 26.1121 1399.97 26.1121 Q1404.91 26.1121 1408.36 28.6237 Q1411.84 31.1352 1413.5 35.9153 Z" fill="#000000" fill-rule="nonzero" fill-opacity="1" /><path clip-path="url(#clip190)" d="M1466.2 65.7705 L1466.2 89.8329 L1458.71 89.8329 L1458.71 27.2059 L1466.2 27.2059 L1466.2 34.0924 Q1468.55 30.0415 1472.12 28.0971 Q1475.72 26.1121 1480.71 26.1121 Q1488.97 26.1121 1494.11 32.6746 Q1499.3 39.2371 1499.3 49.9314 Q1499.3 60.6258 1494.11 67.1883 Q1488.97 73.7508 1480.71 73.7508 Q1475.72 73.7508 1472.12 71.8063 Q1468.55 69.8214 1466.2 65.7705 M1491.56 49.9314 Q1491.56 41.7081 1488.16 37.0496 Q1484.8 32.3505 1478.88 32.3505 Q1472.97 32.3505 1469.57 37.0496 Q1466.2 41.7081 1466.2 49.9314 Q1466.2 58.1548 1469.57 62.8538 Q1472.97 67.5124 1478.88 67.5124 Q1484.8 67.5124 1488.16 62.8538 Q1491.56 58.1548 1491.56 49.9314 Z" fill="#000000" fill-rule="nonzero" fill-opacity="1" /><path clip-path="url(#clip190)" d="M1511.65 9.54393 L1519.11 9.54393 L1519.11 72.576 L1511.65 72.576 L1511.65 9.54393 Z" fill="#000000" fill-rule="nonzero" fill-opacity="1" /><path clip-path="url(#clip190)" d="M1573.51 48.0275 L1573.51 51.6733 L1539.24 51.6733 Q1539.73 59.3701 1543.86 63.421 Q1548.03 67.4314 1555.44 67.4314 Q1559.74 67.4314 1563.75 66.3781 Q1567.8 65.3249 1571.77 63.2184 L1571.77 70.267 Q1567.76 71.9684 1563.55 72.8596 Q1559.33 73.7508 1555 73.7508 Q1544.14 73.7508 1537.78 67.4314 Q1531.46 61.1119 1531.46 50.3365 Q1531.46 39.1965 1537.46 32.6746 Q1543.49 26.1121 1553.7 26.1121 Q1562.86 26.1121 1568.16 32.0264 Q1573.51 37.9003 1573.51 48.0275 M1566.06 45.84 Q1565.98 39.7232 1562.61 36.0774 Q1559.29 32.4315 1553.78 32.4315 Q1547.55 32.4315 1543.78 35.9558 Q1540.05 39.4801 1539.48 45.8805 L1566.06 45.84 Z" fill="#000000" fill-rule="nonzero" fill-opacity="1" /><path clip-path="url(#clip190)" d="M1612.44 12.096 L1650.68 12.096 L1650.68 18.9825 L1620.62 18.9825 L1620.62 36.8875 L1649.43 36.8875 L1649.43 43.7741 L1620.62 43.7741 L1620.62 65.6895 L1651.41 65.6895 L1651.41 72.576 L1612.44 72.576 L1612.44 12.096 Z" fill="#000000" fill-rule="nonzero" fill-opacity="1" /><path clip-path="url(#clip190)" d="M1693.46 28.5427 L1693.46 35.5912 Q1690.3 33.9709 1686.9 33.1607 Q1683.49 32.3505 1679.85 32.3505 Q1674.3 32.3505 1671.5 34.0519 Q1668.75 35.7533 1668.75 39.156 Q1668.75 41.7486 1670.73 43.2475 Q1672.72 44.7058 1678.71 46.0426 L1681.27 46.6097 Q1689.21 48.3111 1692.53 51.4303 Q1695.89 54.509 1695.89 60.0587 Q1695.89 66.3781 1690.87 70.0644 Q1685.88 73.7508 1677.13 73.7508 Q1673.49 73.7508 1669.52 73.0216 Q1665.59 72.3329 1661.21 70.9151 L1661.21 63.2184 Q1665.35 65.3654 1669.36 66.4591 Q1673.37 67.5124 1677.3 67.5124 Q1682.56 67.5124 1685.4 65.73 Q1688.23 63.9071 1688.23 60.6258 Q1688.23 57.5877 1686.17 55.9673 Q1684.14 54.3469 1677.21 52.8481 L1674.62 52.2405 Q1667.7 50.7821 1664.62 47.7845 Q1661.54 44.7463 1661.54 39.4801 Q1661.54 33.0797 1666.07 29.5959 Q1670.61 26.1121 1678.96 26.1121 Q1683.09 26.1121 1686.73 26.7198 Q1690.38 27.3274 1693.46 28.5427 Z" fill="#000000" fill-rule="nonzero" fill-opacity="1" /><path clip-path="url(#clip190)" d="M1715.13 14.324 L1715.13 27.2059 L1730.48 27.2059 L1730.48 32.9987 L1715.13 32.9987 L1715.13 57.6282 Q1715.13 63.1779 1716.63 64.7578 Q1718.17 66.3376 1722.83 66.3376 L1730.48 66.3376 L1730.48 72.576 L1722.83 72.576 Q1714.2 72.576 1710.92 69.3758 Q1707.64 66.1351 1707.64 57.6282 L1707.64 32.9987 L1702.17 32.9987 L1702.17 27.2059 L1707.64 27.2059 L1707.64 14.324 L1715.13 14.324 Z" fill="#000000" fill-rule="nonzero" fill-opacity="1" /><path clip-path="url(#clip190)" d="M1740.29 27.2059 L1747.74 27.2059 L1747.74 72.576 L1740.29 72.576 L1740.29 27.2059 M1740.29 9.54393 L1747.74 9.54393 L1747.74 18.9825 L1740.29 18.9825 L1740.29 9.54393 Z" fill="#000000" fill-rule="nonzero" fill-opacity="1" /><path clip-path="url(#clip190)" d="M1798.66 35.9153 Q1801.46 30.8922 1805.34 28.5022 Q1809.23 26.1121 1814.5 26.1121 Q1821.59 26.1121 1825.44 31.0947 Q1829.29 36.0368 1829.29 45.1919 L1829.29 72.576 L1821.79 72.576 L1821.79 45.4349 Q1821.79 38.913 1819.48 35.7533 Q1817.17 32.5936 1812.43 32.5936 Q1806.64 32.5936 1803.28 36.4419 Q1799.92 40.2903 1799.92 46.9338 L1799.92 72.576 L1792.42 72.576 L1792.42 45.4349 Q1792.42 38.8725 1790.11 35.7533 Q1787.8 32.5936 1782.98 32.5936 Q1777.27 32.5936 1773.91 36.4824 Q1770.55 40.3308 1770.55 46.9338 L1770.55 72.576 L1763.05 72.576 L1763.05 27.2059 L1770.55 27.2059 L1770.55 34.2544 Q1773.1 30.082 1776.66 28.0971 Q1780.23 26.1121 1785.13 26.1121 Q1790.07 26.1121 1793.52 28.6237 Q1797 31.1352 1798.66 35.9153 Z" fill="#000000" fill-rule="nonzero" fill-opacity="1" /><path clip-path="url(#clip190)" d="M1864.77 49.7694 Q1855.74 49.7694 1852.25 51.8354 Q1848.77 53.9013 1848.77 58.8839 Q1848.77 62.8538 1851.36 65.2034 Q1854 67.5124 1858.49 67.5124 Q1864.69 67.5124 1868.42 63.1374 Q1872.18 58.7219 1872.18 51.4303 L1872.18 49.7694 L1864.77 49.7694 M1879.64 46.6907 L1879.64 72.576 L1872.18 72.576 L1872.18 65.6895 Q1869.63 69.8214 1865.82 71.8063 Q1862.02 73.7508 1856.51 73.7508 Q1849.54 73.7508 1845.41 69.8619 Q1841.32 65.9325 1841.32 59.3701 Q1841.32 51.7138 1846.42 47.825 Q1851.57 43.9361 1861.73 43.9361 L1872.18 43.9361 L1872.18 43.2069 Q1872.18 38.0623 1868.78 35.2672 Q1865.42 32.4315 1859.3 32.4315 Q1855.41 32.4315 1851.73 33.3632 Q1848.04 34.295 1844.64 36.1584 L1844.64 29.2718 Q1848.73 27.692 1852.58 26.9223 Q1856.43 26.1121 1860.07 26.1121 Q1869.92 26.1121 1874.78 31.2163 Q1879.64 36.3204 1879.64 46.6907 Z" fill="#000000" fill-rule="nonzero" fill-opacity="1" /><path clip-path="url(#clip190)" d="M1902.36 14.324 L1902.36 27.2059 L1917.72 27.2059 L1917.72 32.9987 L1902.36 32.9987 L1902.36 57.6282 Q1902.36 63.1779 1903.86 64.7578 Q1905.4 66.3376 1910.06 66.3376 L1917.72 66.3376 L1917.72 72.576 L1910.06 72.576 Q1901.43 72.576 1898.15 69.3758 Q1894.87 66.1351 1894.87 57.6282 L1894.87 32.9987 L1889.4 32.9987 L1889.4 27.2059 L1894.87 27.2059 L1894.87 14.324 L1902.36 14.324 Z" fill="#000000" fill-rule="nonzero" fill-opacity="1" /><path clip-path="url(#clip190)" d="M1966.33 48.0275 L1966.33 51.6733 L1932.06 51.6733 Q1932.54 59.3701 1936.68 63.421 Q1940.85 67.4314 1948.26 67.4314 Q1952.55 67.4314 1956.57 66.3781 Q1960.62 65.3249 1964.59 63.2184 L1964.59 70.267 Q1960.58 71.9684 1956.36 72.8596 Q1952.15 73.7508 1947.82 73.7508 Q1936.96 73.7508 1930.6 67.4314 Q1924.28 61.1119 1924.28 50.3365 Q1924.28 39.1965 1930.27 32.6746 Q1936.31 26.1121 1946.52 26.1121 Q1955.67 26.1121 1960.98 32.0264 Q1966.33 37.9003 1966.33 48.0275 M1958.87 45.84 Q1958.79 39.7232 1955.43 36.0774 Q1952.11 32.4315 1946.6 32.4315 Q1940.36 32.4315 1936.59 35.9558 Q1932.87 39.4801 1932.3 45.8805 L1958.87 45.84 Z" fill="#000000" fill-rule="nonzero" fill-opacity="1" /><path clip-path="url(#clip190)" d="M1980.47 62.2867 L1989.01 62.2867 L1989.01 69.2543 L1982.37 82.2172 L1977.14 82.2172 L1980.47 69.2543 L1980.47 62.2867 Z" fill="#000000" fill-rule="nonzero" fill-opacity="1" /><path clip-path="url(#clip190)" d="M2064.16 20.0358 Q2060.03 17.2001 2050.34 17.2001 Q2040.09 17.2001 2040.09 21.9397 Q2040.09 25.6665 2050.79 27.611 Q2059.21 29.1098 2063.95 33.6468 Q2069.71 39.1155 2069.71 50.3365 Q2069.71 61.0714 2064.16 67.3908 Q2058.61 73.7508 2048.89 73.7508 Q2039.2 73.7508 2033.61 67.3908 Q2028.06 61.0714 2028.06 49.9314 Q2028.06 41.6676 2033.61 34.9836 Q2035.76 32.391 2038.8 30.9327 Q2032.48 27.7325 2032.48 22.0207 Q2032.48 11.0023 2050.34 11.0023 Q2059.3 11.0023 2064.16 13.8379 L2064.16 20.0358 M2044.39 32.9582 Q2041.63 34.1329 2039.41 37.0901 Q2035.92 41.6676 2035.92 49.9314 Q2035.92 58.1548 2039.37 62.7728 Q2042.85 67.4314 2048.89 67.4314 Q2054.84 67.4314 2058.32 62.7323 Q2061.81 58.0333 2061.81 50.3365 Q2061.81 42.2752 2058.12 38.3864 Q2054.19 34.2139 2049.09 33.7683 Q2046.5 33.5253 2044.39 32.9582 Z" fill="#000000" fill-rule="nonzero" fill-opacity="1" /><path clip-path="url(#clip190)" d="M2119.78 27.2059 L2103.37 49.2833 L2120.63 72.576 L2111.84 72.576 L2098.63 54.752 L2085.42 72.576 L2076.63 72.576 L2094.26 48.8377 L2078.13 27.2059 L2086.92 27.2059 L2098.95 43.369 L2110.99 27.2059 L2119.78 27.2059 Z" fill="#000000" fill-rule="nonzero" fill-opacity="1" /><path clip-path="url(#clip190)" d="M2158.5 34.9026 L2210.44 34.9026 L2210.44 41.7081 L2158.5 41.7081 L2158.5 34.9026 M2158.5 51.4303 L2210.44 51.4303 L2210.44 58.3168 L2158.5 58.3168 L2158.5 51.4303 Z" fill="#000000" fill-rule="nonzero" fill-opacity="1" /><path clip-path="url(#clip190)" d="M2271.97 17.4837 Q2265.65 17.4837 2262.45 23.7221 Q2259.29 29.92 2259.29 42.3968 Q2259.29 54.833 2262.45 61.0714 Q2265.65 67.2693 2271.97 67.2693 Q2278.33 67.2693 2281.49 61.0714 Q2284.69 54.833 2284.69 42.3968 Q2284.69 29.92 2281.49 23.7221 Q2278.33 17.4837 2271.97 17.4837 M2271.97 11.0023 Q2282.14 11.0023 2287.48 19.0636 Q2292.87 27.0843 2292.87 42.3968 Q2292.87 57.6687 2287.48 65.73 Q2282.14 73.7508 2271.97 73.7508 Q2261.8 73.7508 2256.41 65.73 Q2251.07 57.6687 2251.07 42.3968 Q2251.07 27.0843 2256.41 19.0636 Q2261.8 11.0023 2271.97 11.0023 Z" fill="#000000" fill-rule="nonzero" fill-opacity="1" /><path clip-path="url(#clip190)" d="M2307.25 62.2867 L2315.8 62.2867 L2315.8 72.576 L2307.25 72.576 L2307.25 62.2867 Z" fill="#000000" fill-rule="nonzero" fill-opacity="1" /><path clip-path="url(#clip190)" d="M2335.04 65.6895 L2348.41 65.6895 L2348.41 19.5497 L2333.87 22.4663 L2333.87 15.0127 L2348.33 12.096 L2356.51 12.096 L2356.51 65.6895 L2369.88 65.6895 L2369.88 72.576 L2335.04 72.576 L2335.04 65.6895 Z" fill="#000000" fill-rule="nonzero" fill-opacity="1" /><polyline clip-path="url(#clip192)" style="stroke:#009af9; stroke-linecap:round; stroke-linejoin:round; stroke-width:8; stroke-opacity:1; fill:none" points="309.067,1012.34 329.109,937.187 349.151,835.5 369.193,724.499 389.235,626.072 409.277,555.946 429.319,519.882 449.361,518.286 469.403,551.128 489.446,618.2 509.488,714.497 529.53,825.232 549.572,928.657 569.614,1006.73 589.656,1051.43 609.698,1061.61 629.74,1037.42 649.782,978.75 669.824,888.812 689.866,779.771 709.908,672.485 729.95,586.909 749.992,533.58 770.034,514.797 790.076,530.376 810.118,580.51 830.161,663.367 850.203,769.366 870.245,879.199 890.287,971.596 910.329,1033.41 930.371,1060.81 950.413,1053.83 970.455,1012.34 990.497,937.187 1010.54,835.5 1030.58,724.499 1050.62,626.072 1070.67,555.946 1090.71,519.882 1110.75,518.286 1130.79,551.128 1150.83,618.2 1170.88,714.497 1190.92,825.232 1210.96,928.657 1231,1006.73 1251.04,1051.43 1271.09,1061.61 1291.13,1037.42 1311.17,978.75 1331.21,888.812 1351.25,779.771 1371.3,672.485 1391.34,586.909 1411.38,533.58 1431.42,514.797 1451.46,530.376 1471.51,580.51 1491.55,663.367 1511.59,769.366 1531.63,879.199 1551.67,971.596 1571.72,1033.41 1591.76,1060.81 1611.8,1053.83 1631.84,1012.34 1651.89,937.187 1671.93,835.5 1691.97,724.499 1712.01,626.072 1732.05,555.946 1752.1,519.882 1772.14,518.286 1792.18,551.128 "/>
<path clip-path="url(#clip192)" d="M1812.22 1149.96 L1832.26 1212.62 L1852.31 1311.53 L1872.35 1346.43 L1892.39 1376.78 L1912.43 1365.68 L1932.47 1380.97 L1952.52 1375.05 L1972.56 1363.46 L1992.6 1346.06 L2012.64 1294.39 L2032.68 1172.53 L2052.73 1077.93 L2072.77 1036 L2092.81 1015.77 L2112.85 1035.88 L2132.89 1066.71 L2152.94 1177.46 L2172.98 1274.41 L2193.02 1359.88 L2213.06 1359.63 L2233.1 1367.28 L2253.15 1386.4 L2273.19 1378.63 L2293.23 1381.71 L2293.23 526.194 L2273.19 523.11 L2253.15 530.88 L2233.1 511.763 L2213.06 504.117 L2193.02 504.363 L2172.98 418.891 L2152.94 321.95 L2132.89 211.194 L2112.85 180.36 L2092.81 160.256 L2072.77 180.483 L2052.73 222.418 L2032.68 317.016 L2012.64 438.872 L1992.6 490.55 L1972.56 507.94 L1952.52 519.533 L1932.47 525.454 L1912.43 510.16 L1892.39 521.26 L1872.35 490.92 L1852.31 456.016 L1832.26 357.1 L1812.22 294.446  Z" fill="#e26f46" fill-rule="evenodd" fill-opacity="0.5"/>
<polyline clip-path="url(#clip192)" style="stroke:#e26f46; stroke-linecap:round; stroke-linejoin:round; stroke-width:8; stroke-opacity:1; fill:none" stroke-dasharray="32, 16, 4, 16" points="1812.22,722.203 1832.26,784.858 1852.31,883.773 1872.35,918.677 1892.39,949.018 1912.43,937.918 1932.47,953.211 1952.52,947.291 1972.56,935.698 1992.6,918.307 2012.64,866.63 2032.68,744.774 2052.73,650.175 2072.77,608.241 2092.81,588.014 2112.85,608.118 2132.89,638.952 2152.94,749.707 2172.98,846.649 2193.02,932.121 2213.06,931.874 2233.1,939.521 2253.15,958.638 2273.19,950.868 2293.23,953.951 "/>
<polyline clip-path="url(#clip192)" style="stroke:#3da44d; stroke-linecap:round; stroke-linejoin:round; stroke-width:8; stroke-opacity:1; fill:none" points="1812.22,618.2 1832.26,714.497 1852.31,825.232 1872.35,928.657 1892.39,1006.73 1912.43,1051.43 1932.47,1061.61 1952.52,1037.42 1972.56,978.75 1992.6,888.812 2012.64,779.771 2032.68,672.485 2052.73,586.909 2072.77,533.58 2092.81,514.797 2112.85,530.376 2132.89,580.51 2152.94,663.367 2172.98,769.366 2193.02,879.199 2213.06,971.596 2233.1,1033.41 2253.15,1060.81 2273.19,1053.83 2293.23,1012.34 "/>
<path clip-path="url(#clip190)" d="M319.649 1379.86 L936.751 1379.86 L936.751 1172.5 L319.649 1172.5  Z" fill="#ffffff" fill-rule="evenodd" fill-opacity="1"/>
<polyline clip-path="url(#clip190)" style="stroke:#000000; stroke-linecap:round; stroke-linejoin:round; stroke-width:4; stroke-opacity:1; fill:none" points="319.649,1379.86 936.751,1379.86 936.751,1172.5 319.649,1172.5 319.649,1379.86 "/>
<polyline clip-path="url(#clip190)" style="stroke:#009af9; stroke-linecap:round; stroke-linejoin:round; stroke-width:8; stroke-opacity:1; fill:none" points="343.018,1224.34 483.232,1224.34 "/>
<path clip-path="url(#clip190)" d="M534.472 1209.72 L534.472 1214.65 Q532.111 1212.45 529.425 1211.36 Q526.763 1210.27 523.754 1210.27 Q517.828 1210.27 514.68 1213.91 Q511.532 1217.52 511.532 1224.37 Q511.532 1231.2 514.68 1234.83 Q517.828 1238.44 523.754 1238.44 Q526.763 1238.44 529.425 1237.36 Q532.111 1236.27 534.472 1234.07 L534.472 1238.95 Q532.018 1240.62 529.263 1241.45 Q526.532 1242.29 523.476 1242.29 Q515.629 1242.29 511.115 1237.5 Q506.602 1232.68 506.602 1224.37 Q506.602 1216.04 511.115 1211.25 Q515.629 1206.43 523.476 1206.43 Q526.578 1206.43 529.31 1207.26 Q532.064 1208.07 534.472 1209.72 Z" fill="#000000" fill-rule="nonzero" fill-opacity="1" /><path clip-path="url(#clip190)" d="M551.555 1218.68 Q548.129 1218.68 546.138 1221.36 Q544.148 1224.02 544.148 1228.68 Q544.148 1233.33 546.115 1236.01 Q548.106 1238.68 551.555 1238.68 Q554.958 1238.68 556.948 1235.99 Q558.939 1233.31 558.939 1228.68 Q558.939 1224.07 556.948 1221.38 Q554.958 1218.68 551.555 1218.68 M551.555 1215.07 Q557.11 1215.07 560.282 1218.68 Q563.453 1222.29 563.453 1228.68 Q563.453 1235.04 560.282 1238.68 Q557.11 1242.29 551.555 1242.29 Q545.976 1242.29 542.805 1238.68 Q539.657 1235.04 539.657 1228.68 Q539.657 1222.29 542.805 1218.68 Q545.976 1215.07 551.555 1215.07 Z" fill="#000000" fill-rule="nonzero" fill-opacity="1" /><path clip-path="url(#clip190)" d="M592.064 1225.97 L592.064 1241.62 L587.805 1241.62 L587.805 1226.11 Q587.805 1222.43 586.37 1220.6 Q584.934 1218.77 582.064 1218.77 Q578.615 1218.77 576.624 1220.97 Q574.634 1223.17 574.634 1226.96 L574.634 1241.62 L570.351 1241.62 L570.351 1215.69 L574.634 1215.69 L574.634 1219.72 Q576.161 1217.38 578.221 1216.22 Q580.305 1215.07 583.013 1215.07 Q587.481 1215.07 589.772 1217.84 Q592.064 1220.6 592.064 1225.97 Z" fill="#000000" fill-rule="nonzero" fill-opacity="1" /><path clip-path="url(#clip190)" d="M617.619 1219.63 L617.619 1205.6 L621.879 1205.6 L621.879 1241.62 L617.619 1241.62 L617.619 1237.73 Q616.277 1240.04 614.217 1241.18 Q612.18 1242.29 609.309 1242.29 Q604.61 1242.29 601.647 1238.54 Q598.707 1234.79 598.707 1228.68 Q598.707 1222.57 601.647 1218.82 Q604.61 1215.07 609.309 1215.07 Q612.18 1215.07 614.217 1216.2 Q616.277 1217.31 617.619 1219.63 M603.106 1228.68 Q603.106 1233.38 605.027 1236.06 Q606.971 1238.72 610.351 1238.72 Q613.731 1238.72 615.675 1236.06 Q617.619 1233.38 617.619 1228.68 Q617.619 1223.98 615.675 1221.32 Q613.731 1218.63 610.351 1218.63 Q606.971 1218.63 605.027 1221.32 Q603.106 1223.98 603.106 1228.68 Z" fill="#000000" fill-rule="nonzero" fill-opacity="1" /><path clip-path="url(#clip190)" d="M630.652 1215.69 L634.911 1215.69 L634.911 1241.62 L630.652 1241.62 L630.652 1215.69 M630.652 1205.6 L634.911 1205.6 L634.911 1210.99 L630.652 1210.99 L630.652 1205.6 Z" fill="#000000" fill-rule="nonzero" fill-opacity="1" /><path clip-path="url(#clip190)" d="M648.036 1208.33 L648.036 1215.69 L656.809 1215.69 L656.809 1219 L648.036 1219 L648.036 1233.07 Q648.036 1236.25 648.892 1237.15 Q649.772 1238.05 652.434 1238.05 L656.809 1238.05 L656.809 1241.62 L652.434 1241.62 Q647.504 1241.62 645.629 1239.79 Q643.754 1237.94 643.754 1233.07 L643.754 1219 L640.629 1219 L640.629 1215.69 L643.754 1215.69 L643.754 1208.33 L648.036 1208.33 Z" fill="#000000" fill-rule="nonzero" fill-opacity="1" /><path clip-path="url(#clip190)" d="M662.411 1215.69 L666.67 1215.69 L666.67 1241.62 L662.411 1241.62 L662.411 1215.69 M662.411 1205.6 L666.67 1205.6 L666.67 1210.99 L662.411 1210.99 L662.411 1205.6 Z" fill="#000000" fill-rule="nonzero" fill-opacity="1" /><path clip-path="url(#clip190)" d="M685.628 1218.68 Q682.202 1218.68 680.212 1221.36 Q678.221 1224.02 678.221 1228.68 Q678.221 1233.33 680.189 1236.01 Q682.179 1238.68 685.628 1238.68 Q689.031 1238.68 691.022 1235.99 Q693.013 1233.31 693.013 1228.68 Q693.013 1224.07 691.022 1221.38 Q689.031 1218.68 685.628 1218.68 M685.628 1215.07 Q691.184 1215.07 694.355 1218.68 Q697.526 1222.29 697.526 1228.68 Q697.526 1235.04 694.355 1238.68 Q691.184 1242.29 685.628 1242.29 Q680.05 1242.29 676.878 1238.68 Q673.73 1235.04 673.73 1228.68 Q673.73 1222.29 676.878 1218.68 Q680.05 1215.07 685.628 1215.07 Z" fill="#000000" fill-rule="nonzero" fill-opacity="1" /><path clip-path="url(#clip190)" d="M726.137 1225.97 L726.137 1241.62 L721.878 1241.62 L721.878 1226.11 Q721.878 1222.43 720.443 1220.6 Q719.008 1218.77 716.137 1218.77 Q712.688 1218.77 710.698 1220.97 Q708.707 1223.17 708.707 1226.96 L708.707 1241.62 L704.425 1241.62 L704.425 1215.69 L708.707 1215.69 L708.707 1219.72 Q710.235 1217.38 712.295 1216.22 Q714.378 1215.07 717.086 1215.07 Q721.554 1215.07 723.846 1217.84 Q726.137 1220.6 726.137 1225.97 Z" fill="#000000" fill-rule="nonzero" fill-opacity="1" /><path clip-path="url(#clip190)" d="M756.808 1227.59 L756.808 1229.67 L737.225 1229.67 Q737.503 1234.07 739.864 1236.38 Q742.248 1238.68 746.484 1238.68 Q748.938 1238.68 751.23 1238.07 Q753.545 1237.47 755.813 1236.27 L755.813 1240.3 Q753.521 1241.27 751.114 1241.78 Q748.707 1242.29 746.23 1242.29 Q740.026 1242.29 736.392 1238.68 Q732.781 1235.07 732.781 1228.91 Q732.781 1222.54 736.207 1218.82 Q739.656 1215.07 745.489 1215.07 Q750.721 1215.07 753.753 1218.45 Q756.808 1221.8 756.808 1227.59 M752.549 1226.34 Q752.503 1222.84 750.582 1220.76 Q748.684 1218.68 745.535 1218.68 Q741.971 1218.68 739.818 1220.69 Q737.688 1222.7 737.364 1226.36 L752.549 1226.34 Z" fill="#000000" fill-rule="nonzero" fill-opacity="1" /><path clip-path="url(#clip190)" d="M780.859 1219.63 L780.859 1205.6 L785.119 1205.6 L785.119 1241.62 L780.859 1241.62 L780.859 1237.73 Q779.517 1240.04 777.457 1241.18 Q775.42 1242.29 772.549 1242.29 Q767.85 1242.29 764.887 1238.54 Q761.947 1234.79 761.947 1228.68 Q761.947 1222.57 764.887 1218.82 Q767.85 1215.07 772.549 1215.07 Q775.42 1215.07 777.457 1216.2 Q779.517 1217.31 780.859 1219.63 M766.345 1228.68 Q766.345 1233.38 768.267 1236.06 Q770.211 1238.72 773.591 1238.72 Q776.97 1238.72 778.915 1236.06 Q780.859 1233.38 780.859 1228.68 Q780.859 1223.98 778.915 1221.32 Q776.97 1218.63 773.591 1218.63 Q770.211 1218.63 768.267 1221.32 Q766.345 1223.98 766.345 1228.68 Z" fill="#000000" fill-rule="nonzero" fill-opacity="1" /><path clip-path="url(#clip190)" d="M813.822 1210.9 L813.822 1237.77 L819.47 1237.77 Q826.623 1237.77 829.933 1234.53 Q833.266 1231.29 833.266 1224.3 Q833.266 1217.36 829.933 1214.14 Q826.623 1210.9 819.47 1210.9 L813.822 1210.9 M809.146 1207.06 L818.753 1207.06 Q828.799 1207.06 833.498 1211.25 Q838.197 1215.41 838.197 1224.3 Q838.197 1233.24 833.475 1237.43 Q828.753 1241.62 818.753 1241.62 L809.146 1241.62 L809.146 1207.06 Z" fill="#000000" fill-rule="nonzero" fill-opacity="1" /><path clip-path="url(#clip190)" d="M857.248 1228.58 Q852.086 1228.58 850.095 1229.76 Q848.104 1230.95 848.104 1233.79 Q848.104 1236.06 849.586 1237.4 Q851.09 1238.72 853.66 1238.72 Q857.201 1238.72 859.331 1236.22 Q861.484 1233.7 861.484 1229.53 L861.484 1228.58 L857.248 1228.58 M865.743 1226.82 L865.743 1241.62 L861.484 1241.62 L861.484 1237.68 Q860.026 1240.04 857.85 1241.18 Q855.674 1242.29 852.526 1242.29 Q848.544 1242.29 846.183 1240.07 Q843.845 1237.82 843.845 1234.07 Q843.845 1229.7 846.762 1227.47 Q849.702 1225.25 855.512 1225.25 L861.484 1225.25 L861.484 1224.83 Q861.484 1221.89 859.539 1220.3 Q857.618 1218.68 854.123 1218.68 Q851.901 1218.68 849.794 1219.21 Q847.688 1219.74 845.743 1220.81 L845.743 1216.87 Q848.081 1215.97 850.28 1215.53 Q852.479 1215.07 854.563 1215.07 Q860.188 1215.07 862.965 1217.98 Q865.743 1220.9 865.743 1226.82 Z" fill="#000000" fill-rule="nonzero" fill-opacity="1" /><path clip-path="url(#clip190)" d="M878.729 1208.33 L878.729 1215.69 L887.502 1215.69 L887.502 1219 L878.729 1219 L878.729 1233.07 Q878.729 1236.25 879.586 1237.15 Q880.465 1238.05 883.127 1238.05 L887.502 1238.05 L887.502 1241.62 L883.127 1241.62 Q878.197 1241.62 876.322 1239.79 Q874.447 1237.94 874.447 1233.07 L874.447 1219 L871.322 1219 L871.322 1215.69 L874.447 1215.69 L874.447 1208.33 L878.729 1208.33 Z" fill="#000000" fill-rule="nonzero" fill-opacity="1" /><path clip-path="url(#clip190)" d="M904.886 1228.58 Q899.724 1228.58 897.734 1229.76 Q895.743 1230.95 895.743 1233.79 Q895.743 1236.06 897.224 1237.4 Q898.729 1238.72 901.298 1238.72 Q904.84 1238.72 906.97 1236.22 Q909.122 1233.7 909.122 1229.53 L909.122 1228.58 L904.886 1228.58 M913.382 1226.82 L913.382 1241.62 L909.122 1241.62 L909.122 1237.68 Q907.664 1240.04 905.488 1241.18 Q903.312 1242.29 900.164 1242.29 Q896.183 1242.29 893.822 1240.07 Q891.484 1237.82 891.484 1234.07 Q891.484 1229.7 894.4 1227.47 Q897.34 1225.25 903.15 1225.25 L909.122 1225.25 L909.122 1224.83 Q909.122 1221.89 907.178 1220.3 Q905.257 1218.68 901.761 1218.68 Q899.539 1218.68 897.433 1219.21 Q895.326 1219.74 893.382 1220.81 L893.382 1216.87 Q895.72 1215.97 897.919 1215.53 Q900.118 1215.07 902.201 1215.07 Q907.826 1215.07 910.604 1217.98 Q913.382 1220.9 913.382 1226.82 Z" fill="#000000" fill-rule="nonzero" fill-opacity="1" /><polyline clip-path="url(#clip190)" style="stroke:#e26f46; stroke-linecap:round; stroke-linejoin:round; stroke-width:8; stroke-opacity:1; fill:none" stroke-dasharray="32, 16, 4, 16" points="343.018,1276.18 483.232,1276.18 "/>
<path clip-path="url(#clip190)" d="M511.277 1262.74 L511.277 1275.72 L517.157 1275.72 Q520.421 1275.72 522.203 1274.04 Q523.986 1272.35 523.986 1269.22 Q523.986 1266.12 522.203 1264.43 Q520.421 1262.74 517.157 1262.74 L511.277 1262.74 M506.602 1258.9 L517.157 1258.9 Q522.967 1258.9 525.93 1261.54 Q528.916 1264.15 528.916 1269.22 Q528.916 1274.34 525.93 1276.95 Q522.967 1279.57 517.157 1279.57 L511.277 1279.57 L511.277 1293.46 L506.602 1293.46 L506.602 1258.9 Z" fill="#000000" fill-rule="nonzero" fill-opacity="1" /><path clip-path="url(#clip190)" d="M549.194 1271.51 Q548.476 1271.1 547.62 1270.91 Q546.786 1270.7 545.768 1270.7 Q542.157 1270.7 540.212 1273.06 Q538.291 1275.4 538.291 1279.8 L538.291 1293.46 L534.009 1293.46 L534.009 1267.53 L538.291 1267.53 L538.291 1271.56 Q539.634 1269.2 541.787 1268.06 Q543.939 1266.91 547.018 1266.91 Q547.458 1266.91 547.99 1266.97 Q548.523 1267.02 549.171 1267.14 L549.194 1271.51 Z" fill="#000000" fill-rule="nonzero" fill-opacity="1" /><path clip-path="url(#clip190)" d="M574.796 1279.43 L574.796 1281.51 L555.212 1281.51 Q555.49 1285.91 557.851 1288.22 Q560.235 1290.52 564.472 1290.52 Q566.925 1290.52 569.217 1289.91 Q571.532 1289.31 573.8 1288.11 L573.8 1292.14 Q571.509 1293.11 569.101 1293.62 Q566.694 1294.13 564.217 1294.13 Q558.013 1294.13 554.379 1290.52 Q550.768 1286.91 550.768 1280.75 Q550.768 1274.38 554.194 1270.66 Q557.643 1266.91 563.476 1266.91 Q568.708 1266.91 571.74 1270.29 Q574.796 1273.64 574.796 1279.43 M570.536 1278.18 Q570.49 1274.68 568.569 1272.6 Q566.671 1270.52 563.522 1270.52 Q559.958 1270.52 557.805 1272.53 Q555.675 1274.54 555.351 1278.2 L570.536 1278.18 Z" fill="#000000" fill-rule="nonzero" fill-opacity="1" /><path clip-path="url(#clip190)" d="M598.846 1271.47 L598.846 1257.44 L603.106 1257.44 L603.106 1293.46 L598.846 1293.46 L598.846 1289.57 Q597.504 1291.88 595.444 1293.02 Q593.407 1294.13 590.536 1294.13 Q585.837 1294.13 582.874 1290.38 Q579.934 1286.63 579.934 1280.52 Q579.934 1274.41 582.874 1270.66 Q585.837 1266.91 590.536 1266.91 Q593.407 1266.91 595.444 1268.04 Q597.504 1269.15 598.846 1271.47 M584.333 1280.52 Q584.333 1285.22 586.254 1287.9 Q588.198 1290.56 591.578 1290.56 Q594.958 1290.56 596.902 1287.9 Q598.846 1285.22 598.846 1280.52 Q598.846 1275.82 596.902 1273.16 Q594.958 1270.47 591.578 1270.47 Q588.198 1270.47 586.254 1273.16 Q584.333 1275.82 584.333 1280.52 Z" fill="#000000" fill-rule="nonzero" fill-opacity="1" /><path clip-path="url(#clip190)" d="M611.879 1267.53 L616.138 1267.53 L616.138 1293.46 L611.879 1293.46 L611.879 1267.53 M611.879 1257.44 L616.138 1257.44 L616.138 1262.83 L611.879 1262.83 L611.879 1257.44 Z" fill="#000000" fill-rule="nonzero" fill-opacity="1" /><path clip-path="url(#clip190)" d="M643.707 1268.53 L643.707 1272.51 Q641.902 1271.51 640.073 1271.03 Q638.267 1270.52 636.416 1270.52 Q632.272 1270.52 629.98 1273.16 Q627.689 1275.77 627.689 1280.52 Q627.689 1285.26 629.98 1287.9 Q632.272 1290.52 636.416 1290.52 Q638.267 1290.52 640.073 1290.03 Q641.902 1289.52 643.707 1288.53 L643.707 1292.46 Q641.925 1293.29 640.004 1293.71 Q638.105 1294.13 635.953 1294.13 Q630.096 1294.13 626.647 1290.45 Q623.198 1286.77 623.198 1280.52 Q623.198 1274.17 626.67 1270.54 Q630.166 1266.91 636.23 1266.91 Q638.198 1266.91 640.073 1267.32 Q641.948 1267.72 643.707 1268.53 Z" fill="#000000" fill-rule="nonzero" fill-opacity="1" /><path clip-path="url(#clip190)" d="M655.328 1260.17 L655.328 1267.53 L664.101 1267.53 L664.101 1270.84 L655.328 1270.84 L655.328 1284.91 Q655.328 1288.09 656.184 1288.99 Q657.064 1289.89 659.726 1289.89 L664.101 1289.89 L664.101 1293.46 L659.726 1293.46 Q654.795 1293.46 652.92 1291.63 Q651.045 1289.78 651.045 1284.91 L651.045 1270.84 L647.92 1270.84 L647.92 1267.53 L651.045 1267.53 L651.045 1260.17 L655.328 1260.17 Z" fill="#000000" fill-rule="nonzero" fill-opacity="1" /><path clip-path="url(#clip190)" d="M691.878 1279.43 L691.878 1281.51 L672.295 1281.51 Q672.573 1285.91 674.934 1288.22 Q677.318 1290.52 681.554 1290.52 Q684.008 1290.52 686.3 1289.91 Q688.614 1289.31 690.883 1288.11 L690.883 1292.14 Q688.591 1293.11 686.184 1293.62 Q683.776 1294.13 681.3 1294.13 Q675.096 1294.13 671.462 1290.52 Q667.851 1286.91 667.851 1280.75 Q667.851 1274.38 671.277 1270.66 Q674.726 1266.91 680.559 1266.91 Q685.79 1266.91 688.823 1270.29 Q691.878 1273.64 691.878 1279.43 M687.619 1278.18 Q687.573 1274.68 685.651 1272.6 Q683.753 1270.52 680.605 1270.52 Q677.04 1270.52 674.888 1272.53 Q672.758 1274.54 672.434 1278.2 L687.619 1278.18 Z" fill="#000000" fill-rule="nonzero" fill-opacity="1" /><path clip-path="url(#clip190)" d="M715.929 1271.47 L715.929 1257.44 L720.188 1257.44 L720.188 1293.46 L715.929 1293.46 L715.929 1289.57 Q714.587 1291.88 712.526 1293.02 Q710.489 1294.13 707.619 1294.13 Q702.92 1294.13 699.957 1290.38 Q697.017 1286.63 697.017 1280.52 Q697.017 1274.41 699.957 1270.66 Q702.92 1266.91 707.619 1266.91 Q710.489 1266.91 712.526 1268.04 Q714.587 1269.15 715.929 1271.47 M701.415 1280.52 Q701.415 1285.22 703.337 1287.9 Q705.281 1290.56 708.661 1290.56 Q712.04 1290.56 713.985 1287.9 Q715.929 1285.22 715.929 1280.52 Q715.929 1275.82 713.985 1273.16 Q712.04 1270.47 708.661 1270.47 Q705.281 1270.47 703.337 1273.16 Q701.415 1275.82 701.415 1280.52 Z" fill="#000000" fill-rule="nonzero" fill-opacity="1" /><path clip-path="url(#clip190)" d="M748.892 1262.74 L748.892 1275.72 L754.771 1275.72 Q758.035 1275.72 759.818 1274.04 Q761.6 1272.35 761.6 1269.22 Q761.6 1266.12 759.818 1264.43 Q758.035 1262.74 754.771 1262.74 L748.892 1262.74 M744.216 1258.9 L754.771 1258.9 Q760.582 1258.9 763.545 1261.54 Q766.531 1264.15 766.531 1269.22 Q766.531 1274.34 763.545 1276.95 Q760.582 1279.57 754.771 1279.57 L748.892 1279.57 L748.892 1293.46 L744.216 1293.46 L744.216 1258.9 Z" fill="#000000" fill-rule="nonzero" fill-opacity="1" /><path clip-path="url(#clip190)" d="M780.975 1270.52 Q777.549 1270.52 775.558 1273.2 Q773.568 1275.86 773.568 1280.52 Q773.568 1285.17 775.535 1287.85 Q777.526 1290.52 780.975 1290.52 Q784.378 1290.52 786.369 1287.83 Q788.359 1285.15 788.359 1280.52 Q788.359 1275.91 786.369 1273.22 Q784.378 1270.52 780.975 1270.52 M780.975 1266.91 Q786.531 1266.91 789.702 1270.52 Q792.873 1274.13 792.873 1280.52 Q792.873 1286.88 789.702 1290.52 Q786.531 1294.13 780.975 1294.13 Q775.396 1294.13 772.225 1290.52 Q769.077 1286.88 769.077 1280.52 Q769.077 1274.13 772.225 1270.52 Q775.396 1266.91 780.975 1266.91 Z" fill="#000000" fill-rule="nonzero" fill-opacity="1" /><path clip-path="url(#clip190)" d="M799.933 1267.53 L804.193 1267.53 L804.193 1293.46 L799.933 1293.46 L799.933 1267.53 M799.933 1257.44 L804.193 1257.44 L804.193 1262.83 L799.933 1262.83 L799.933 1257.44 Z" fill="#000000" fill-rule="nonzero" fill-opacity="1" /><path clip-path="url(#clip190)" d="M834.655 1277.81 L834.655 1293.46 L830.396 1293.46 L830.396 1277.95 Q830.396 1274.27 828.961 1272.44 Q827.526 1270.61 824.655 1270.61 Q821.206 1270.61 819.216 1272.81 Q817.225 1275.01 817.225 1278.8 L817.225 1293.46 L812.942 1293.46 L812.942 1267.53 L817.225 1267.53 L817.225 1271.56 Q818.753 1269.22 820.813 1268.06 Q822.896 1266.91 825.604 1266.91 Q830.072 1266.91 832.364 1269.68 Q834.655 1272.44 834.655 1277.81 Z" fill="#000000" fill-rule="nonzero" fill-opacity="1" /><path clip-path="url(#clip190)" d="M847.364 1260.17 L847.364 1267.53 L856.137 1267.53 L856.137 1270.84 L847.364 1270.84 L847.364 1284.91 Q847.364 1288.09 848.22 1288.99 Q849.1 1289.89 851.762 1289.89 L856.137 1289.89 L856.137 1293.46 L851.762 1293.46 Q846.831 1293.46 844.956 1291.63 Q843.081 1289.78 843.081 1284.91 L843.081 1270.84 L839.956 1270.84 L839.956 1267.53 L843.081 1267.53 L843.081 1260.17 L847.364 1260.17 Z" fill="#000000" fill-rule="nonzero" fill-opacity="1" /><path clip-path="url(#clip190)" d="M878.266 1268.29 L878.266 1272.32 Q876.461 1271.4 874.516 1270.93 Q872.572 1270.47 870.488 1270.47 Q867.317 1270.47 865.72 1271.44 Q864.146 1272.41 864.146 1274.36 Q864.146 1275.84 865.28 1276.7 Q866.414 1277.53 869.84 1278.29 L871.299 1278.62 Q875.836 1279.59 877.734 1281.37 Q879.655 1283.13 879.655 1286.3 Q879.655 1289.91 876.785 1292.02 Q873.938 1294.13 868.938 1294.13 Q866.854 1294.13 864.586 1293.71 Q862.34 1293.32 859.84 1292.51 L859.84 1288.11 Q862.201 1289.34 864.493 1289.96 Q866.785 1290.56 869.03 1290.56 Q872.039 1290.56 873.66 1289.54 Q875.28 1288.5 875.28 1286.63 Q875.28 1284.89 874.1 1283.97 Q872.942 1283.04 868.984 1282.18 L867.502 1281.84 Q863.544 1281 861.785 1279.29 Q860.026 1277.55 860.026 1274.54 Q860.026 1270.89 862.618 1268.9 Q865.211 1266.91 869.979 1266.91 Q872.34 1266.91 874.424 1267.25 Q876.507 1267.6 878.266 1268.29 Z" fill="#000000" fill-rule="nonzero" fill-opacity="1" /><polyline clip-path="url(#clip190)" style="stroke:#3da44d; stroke-linecap:round; stroke-linejoin:round; stroke-width:8; stroke-opacity:1; fill:none" points="343.018,1328.02 483.232,1328.02 "/>
<path clip-path="url(#clip190)" d="M522.435 1315.34 L516.092 1332.54 L528.8 1332.54 L522.435 1315.34 M519.796 1310.74 L525.097 1310.74 L538.268 1345.3 L533.407 1345.3 L530.259 1336.43 L514.68 1336.43 L511.532 1345.3 L506.602 1345.3 L519.796 1310.74 Z" fill="#000000" fill-rule="nonzero" fill-opacity="1" /><path clip-path="url(#clip190)" d="M560.953 1320.37 L560.953 1324.35 Q559.148 1323.35 557.319 1322.87 Q555.513 1322.36 553.661 1322.36 Q549.518 1322.36 547.226 1325 Q544.935 1327.61 544.935 1332.36 Q544.935 1337.1 547.226 1339.74 Q549.518 1342.36 553.661 1342.36 Q555.513 1342.36 557.319 1341.87 Q559.148 1341.36 560.953 1340.37 L560.953 1344.3 Q559.171 1345.13 557.249 1345.55 Q555.351 1345.97 553.198 1345.97 Q547.342 1345.97 543.893 1342.29 Q540.444 1338.61 540.444 1332.36 Q540.444 1326.01 543.916 1322.38 Q547.411 1318.75 553.476 1318.75 Q555.444 1318.75 557.319 1319.16 Q559.194 1319.56 560.953 1320.37 Z" fill="#000000" fill-rule="nonzero" fill-opacity="1" /><path clip-path="url(#clip190)" d="M572.573 1312.01 L572.573 1319.37 L581.346 1319.37 L581.346 1322.68 L572.573 1322.68 L572.573 1336.75 Q572.573 1339.93 573.43 1340.83 Q574.309 1341.73 576.971 1341.73 L581.346 1341.73 L581.346 1345.3 L576.971 1345.3 Q572.041 1345.3 570.166 1343.47 Q568.291 1341.62 568.291 1336.75 L568.291 1322.68 L565.166 1322.68 L565.166 1319.37 L568.291 1319.37 L568.291 1312.01 L572.573 1312.01 Z" fill="#000000" fill-rule="nonzero" fill-opacity="1" /><path clip-path="url(#clip190)" d="M586.508 1335.06 L586.508 1319.37 L590.768 1319.37 L590.768 1334.9 Q590.768 1338.58 592.203 1340.44 Q593.638 1342.26 596.508 1342.26 Q599.957 1342.26 601.948 1340.06 Q603.962 1337.87 603.962 1334.07 L603.962 1319.37 L608.221 1319.37 L608.221 1345.3 L603.962 1345.3 L603.962 1341.31 Q602.411 1343.68 600.351 1344.83 Q598.314 1345.97 595.606 1345.97 Q591.138 1345.97 588.823 1343.19 Q586.508 1340.41 586.508 1335.06 M597.226 1318.75 L597.226 1318.75 Z" fill="#000000" fill-rule="nonzero" fill-opacity="1" /><path clip-path="url(#clip190)" d="M628.777 1332.26 Q623.615 1332.26 621.624 1333.44 Q619.633 1334.63 619.633 1337.47 Q619.633 1339.74 621.115 1341.08 Q622.619 1342.4 625.189 1342.4 Q628.73 1342.4 630.86 1339.9 Q633.013 1337.38 633.013 1333.21 L633.013 1332.26 L628.777 1332.26 M637.272 1330.5 L637.272 1345.3 L633.013 1345.3 L633.013 1341.36 Q631.555 1343.72 629.379 1344.86 Q627.203 1345.97 624.055 1345.97 Q620.073 1345.97 617.712 1343.75 Q615.374 1341.5 615.374 1337.75 Q615.374 1333.38 618.291 1331.15 Q621.231 1328.93 627.041 1328.93 L633.013 1328.93 L633.013 1328.51 Q633.013 1325.57 631.068 1323.98 Q629.147 1322.36 625.652 1322.36 Q623.43 1322.36 621.323 1322.89 Q619.217 1323.42 617.272 1324.49 L617.272 1320.55 Q619.61 1319.65 621.809 1319.21 Q624.008 1318.75 626.092 1318.75 Q631.717 1318.75 634.494 1321.66 Q637.272 1324.58 637.272 1330.5 Z" fill="#000000" fill-rule="nonzero" fill-opacity="1" /><path clip-path="url(#clip190)" d="M646.045 1309.28 L650.304 1309.28 L650.304 1345.3 L646.045 1345.3 L646.045 1309.28 Z" fill="#000000" fill-rule="nonzero" fill-opacity="1" /><path clip-path="url(#clip190)" d="M679.147 1314.58 L679.147 1341.45 L684.795 1341.45 Q691.948 1341.45 695.258 1338.21 Q698.591 1334.97 698.591 1327.98 Q698.591 1321.04 695.258 1317.82 Q691.948 1314.58 684.795 1314.58 L679.147 1314.58 M674.471 1310.74 L684.077 1310.74 Q694.124 1310.74 698.823 1314.93 Q703.522 1319.09 703.522 1327.98 Q703.522 1336.92 698.8 1341.11 Q694.077 1345.3 684.077 1345.3 L674.471 1345.3 L674.471 1310.74 Z" fill="#000000" fill-rule="nonzero" fill-opacity="1" /><path clip-path="url(#clip190)" d="M722.573 1332.26 Q717.411 1332.26 715.42 1333.44 Q713.429 1334.63 713.429 1337.47 Q713.429 1339.74 714.911 1341.08 Q716.415 1342.4 718.985 1342.4 Q722.526 1342.4 724.656 1339.9 Q726.809 1337.38 726.809 1333.21 L726.809 1332.26 L722.573 1332.26 M731.068 1330.5 L731.068 1345.3 L726.809 1345.3 L726.809 1341.36 Q725.35 1343.72 723.174 1344.86 Q720.999 1345.97 717.85 1345.97 Q713.869 1345.97 711.508 1343.75 Q709.17 1341.5 709.17 1337.75 Q709.17 1333.38 712.087 1331.15 Q715.026 1328.93 720.836 1328.93 L726.809 1328.93 L726.809 1328.51 Q726.809 1325.57 724.864 1323.98 Q722.943 1322.36 719.448 1322.36 Q717.225 1322.36 715.119 1322.89 Q713.012 1323.42 711.068 1324.49 L711.068 1320.55 Q713.406 1319.65 715.605 1319.21 Q717.804 1318.75 719.887 1318.75 Q725.512 1318.75 728.29 1321.66 Q731.068 1324.58 731.068 1330.5 Z" fill="#000000" fill-rule="nonzero" fill-opacity="1" /><path clip-path="url(#clip190)" d="M744.054 1312.01 L744.054 1319.37 L752.827 1319.37 L752.827 1322.68 L744.054 1322.68 L744.054 1336.75 Q744.054 1339.93 744.91 1340.83 Q745.79 1341.73 748.452 1341.73 L752.827 1341.73 L752.827 1345.3 L748.452 1345.3 Q743.522 1345.3 741.647 1343.47 Q739.772 1341.62 739.772 1336.75 L739.772 1322.68 L736.647 1322.68 L736.647 1319.37 L739.772 1319.37 L739.772 1312.01 L744.054 1312.01 Z" fill="#000000" fill-rule="nonzero" fill-opacity="1" /><path clip-path="url(#clip190)" d="M770.211 1332.26 Q765.049 1332.26 763.058 1333.44 Q761.068 1334.63 761.068 1337.47 Q761.068 1339.74 762.549 1341.08 Q764.054 1342.4 766.623 1342.4 Q770.165 1342.4 772.295 1339.9 Q774.447 1337.38 774.447 1333.21 L774.447 1332.26 L770.211 1332.26 M778.707 1330.5 L778.707 1345.3 L774.447 1345.3 L774.447 1341.36 Q772.989 1343.72 770.813 1344.86 Q768.637 1345.97 765.489 1345.97 Q761.508 1345.97 759.146 1343.75 Q756.808 1341.5 756.808 1337.75 Q756.808 1333.38 759.725 1331.15 Q762.665 1328.93 768.475 1328.93 L774.447 1328.93 L774.447 1328.51 Q774.447 1325.57 772.503 1323.98 Q770.582 1322.36 767.086 1322.36 Q764.864 1322.36 762.758 1322.89 Q760.651 1323.42 758.707 1324.49 L758.707 1320.55 Q761.045 1319.65 763.244 1319.21 Q765.443 1318.75 767.526 1318.75 Q773.151 1318.75 775.929 1321.66 Q778.707 1324.58 778.707 1330.5 Z" fill="#000000" fill-rule="nonzero" fill-opacity="1" /></svg>
