<?xml version="1.0" encoding="utf-8"?>
<svg xmlns="http://www.w3.org/2000/svg" xmlns:xlink="http://www.w3.org/1999/xlink" width="1300" height="500" viewBox="0 0 5200 2000">
<defs>
  <clipPath id="clip780">
    <rect x="0" y="0" width="5200" height="2000"/>
  </clipPath>
</defs>
<path clip-path="url(#clip780)" d="M0 2000 L5200 2000 L5200 -1.11022e-13 L0 -1.11022e-13  Z" fill="#ffffff" fill-rule="evenodd" fill-opacity="1"/>
<defs>
  <clipPath id="clip781">
    <rect x="1040" y="0" width="3641" height="2000"/>
  </clipPath>
</defs>
<path clip-path="url(#clip780)" d="M380.753 1790.91 L2582.92 1790.91 L2582.92 97.8844 L380.753 97.8844  Z" fill="#ffffff" fill-rule="evenodd" fill-opacity="1"/>
<defs>
  <clipPath id="clip782">
    <rect x="380" y="97" width="2203" height="1694"/>
  </clipPath>
</defs>
<polyline clip-path="url(#clip782)" style="stroke:#000000; stroke-linecap:round; stroke-linejoin:round; stroke-width:2; stroke-opacity:0.1; fill:none" points="422.094,1790.91 422.094,97.8844 "/>
<polyline clip-path="url(#clip782)" style="stroke:#000000; stroke-linecap:round; stroke-linejoin:round; stroke-width:2; stroke-opacity:0.1; fill:none" points="946.718,1790.91 946.718,97.8844 "/>
<polyline clip-path="url(#clip782)" style="stroke:#000000; stroke-linecap:round; stroke-linejoin:round; stroke-width:2; stroke-opacity:0.1; fill:none" points="1471.34,1790.91 1471.34,97.8844 "/>
<polyline clip-path="url(#clip782)" style="stroke:#000000; stroke-linecap:round; stroke-linejoin:round; stroke-width:2; stroke-opacity:0.1; fill:none" points="1995.97,1790.91 1995.97,97.8844 "/>
<polyline clip-path="url(#clip782)" style="stroke:#000000; stroke-linecap:round; stroke-linejoin:round; stroke-width:2; stroke-opacity:0.1; fill:none" points="2520.59,1790.91 2520.59,97.8844 "/>
<polyline clip-path="url(#clip780)" style="stroke:#000000; stroke-linecap:round; stroke-linejoin:round; stroke-width:4; stroke-opacity:1; fill:none" points="380.753,1790.91 2582.92,1790.91 "/>
<polyline clip-path="url(#clip780)" style="stroke:#000000; stroke-linecap:round; stroke-linejoin:round; stroke-width:4; stroke-opacity:1; fill:none" points="422.094,1790.91 422.094,1772.02 "/>
<polyline clip-path="url(#clip780)" style="stroke:#000000; stroke-linecap:round; stroke-linejoin:round; stroke-width:4; stroke-opacity:1; fill:none" points="946.718,1790.91 946.718,1772.02 "/>
<polyline clip-path="url(#clip780)" style="stroke:#000000; stroke-linecap:round; stroke-linejoin:round; stroke-width:4; stroke-opacity:1; fill:none" points="1471.34,1790.91 1471.34,1772.02 "/>
<polyline clip-path="url(#clip780)" style="stroke:#000000; stroke-linecap:round; stroke-linejoin:round; stroke-width:4; stroke-opacity:1; fill:none" points="1995.97,1790.91 1995.97,1772.02 "/>
<polyline clip-path="url(#clip780)" style="stroke:#000000; stroke-linecap:round; stroke-linejoin:round; stroke-width:4; stroke-opacity:1; fill:none" points="2520.59,1790.91 2520.59,1772.02 "/>
<path clip-path="url(#clip780)" d="M422.094 1844.23 Q418.483 1844.23 416.654 1847.8 Q414.848 1851.34 414.848 1858.47 Q414.848 1865.58 416.654 1869.14 Q418.483 1872.68 422.094 1872.68 Q425.728 1872.68 427.534 1869.14 Q429.362 1865.58 429.362 1858.47 Q429.362 1851.34 427.534 1847.8 Q425.728 1844.23 422.094 1844.23 M422.094 1840.53 Q427.904 1840.53 430.959 1845.14 Q434.038 1849.72 434.038 1858.47 Q434.038 1867.2 430.959 1871.8 Q427.904 1876.39 422.094 1876.39 Q416.284 1876.39 413.205 1871.8 Q410.149 1867.2 410.149 1858.47 Q410.149 1849.72 413.205 1845.14 Q416.284 1840.53 422.094 1840.53 Z" fill="#000000" fill-rule="nonzero" fill-opacity="1" /><path clip-path="url(#clip780)" d="M925.989 1871.78 L942.309 1871.78 L942.309 1875.71 L920.364 1875.71 L920.364 1871.78 Q923.026 1869.02 927.61 1864.39 Q932.216 1859.74 933.397 1858.4 Q935.642 1855.88 936.522 1854.14 Q937.424 1852.38 937.424 1850.69 Q937.424 1847.94 935.48 1846.2 Q933.559 1844.46 930.457 1844.46 Q928.258 1844.46 925.804 1845.23 Q923.374 1845.99 920.596 1847.54 L920.596 1842.82 Q923.42 1841.69 925.874 1841.11 Q928.327 1840.53 930.364 1840.53 Q935.735 1840.53 938.929 1843.21 Q942.123 1845.9 942.123 1850.39 Q942.123 1852.52 941.313 1854.44 Q940.526 1856.34 938.42 1858.93 Q937.841 1859.6 934.739 1862.82 Q931.637 1866.01 925.989 1871.78 Z" fill="#000000" fill-rule="nonzero" fill-opacity="1" /><path clip-path="url(#clip780)" d="M952.17 1841.15 L970.526 1841.15 L970.526 1845.09 L956.452 1845.09 L956.452 1853.56 Q957.471 1853.21 958.489 1853.05 Q959.508 1852.87 960.526 1852.87 Q966.313 1852.87 969.693 1856.04 Q973.072 1859.21 973.072 1864.63 Q973.072 1870.2 969.6 1873.31 Q966.128 1876.39 959.809 1876.39 Q957.633 1876.39 955.364 1876.01 Q953.119 1875.64 950.711 1874.9 L950.711 1870.2 Q952.795 1871.34 955.017 1871.89 Q957.239 1872.45 959.716 1872.45 Q963.721 1872.45 966.059 1870.34 Q968.397 1868.24 968.397 1864.63 Q968.397 1861.01 966.059 1858.91 Q963.721 1856.8 959.716 1856.8 Q957.841 1856.8 955.966 1857.22 Q954.114 1857.64 952.17 1858.51 L952.17 1841.15 Z" fill="#000000" fill-rule="nonzero" fill-opacity="1" /><path clip-path="url(#clip780)" d="M1446.04 1841.15 L1464.4 1841.15 L1464.4 1845.09 L1450.32 1845.09 L1450.32 1853.56 Q1451.34 1853.21 1452.36 1853.05 Q1453.38 1852.87 1454.4 1852.87 Q1460.19 1852.87 1463.57 1856.04 Q1466.94 1859.21 1466.94 1864.63 Q1466.94 1870.2 1463.47 1873.31 Q1460 1876.39 1453.68 1876.39 Q1451.51 1876.39 1449.24 1876.01 Q1446.99 1875.64 1444.58 1874.9 L1444.58 1870.2 Q1446.67 1871.34 1448.89 1871.89 Q1451.11 1872.45 1453.59 1872.45 Q1457.59 1872.45 1459.93 1870.34 Q1462.27 1868.24 1462.27 1864.63 Q1462.27 1861.01 1459.93 1858.91 Q1457.59 1856.8 1453.59 1856.8 Q1451.71 1856.8 1449.84 1857.22 Q1447.99 1857.64 1446.04 1858.51 L1446.04 1841.15 Z" fill="#000000" fill-rule="nonzero" fill-opacity="1" /><path clip-path="url(#clip780)" d="M1486.16 1844.23 Q1482.55 1844.23 1480.72 1847.8 Q1478.91 1851.34 1478.91 1858.47 Q1478.91 1865.58 1480.72 1869.14 Q1482.55 1872.68 1486.16 1872.68 Q1489.79 1872.68 1491.6 1869.14 Q1493.43 1865.58 1493.43 1858.47 Q1493.43 1851.34 1491.6 1847.8 Q1489.79 1844.23 1486.16 1844.23 M1486.16 1840.53 Q1491.97 1840.53 1495.02 1845.14 Q1498.1 1849.72 1498.1 1858.47 Q1498.1 1867.2 1495.02 1871.8 Q1491.97 1876.39 1486.16 1876.39 Q1480.35 1876.39 1477.27 1871.8 Q1474.21 1867.2 1474.21 1858.47 Q1474.21 1849.72 1477.27 1845.14 Q1480.35 1840.53 1486.16 1840.53 Z" fill="#000000" fill-rule="nonzero" fill-opacity="1" /><path clip-path="url(#clip780)" d="M1969.82 1841.15 L1992.04 1841.15 L1992.04 1843.14 L1979.5 1875.71 L1974.61 1875.71 L1986.42 1845.09 L1969.82 1845.09 L1969.82 1841.15 Z" fill="#000000" fill-rule="nonzero" fill-opacity="1" /><path clip-path="url(#clip780)" d="M2001.21 1841.15 L2019.57 1841.15 L2019.57 1845.09 L2005.49 1845.09 L2005.49 1853.56 Q2006.51 1853.21 2007.53 1853.05 Q2008.55 1852.87 2009.57 1852.87 Q2015.35 1852.87 2018.73 1856.04 Q2022.11 1859.21 2022.11 1864.63 Q2022.11 1870.2 2018.64 1873.31 Q2015.17 1876.39 2008.85 1876.39 Q2006.67 1876.39 2004.41 1876.01 Q2002.16 1875.64 1999.75 1874.9 L1999.75 1870.2 Q2001.84 1871.34 2004.06 1871.89 Q2006.28 1872.45 2008.76 1872.45 Q2012.76 1872.45 2015.1 1870.34 Q2017.44 1868.24 2017.44 1864.63 Q2017.44 1861.01 2015.1 1858.91 Q2012.76 1856.8 2008.76 1856.8 Q2006.88 1856.8 2005.01 1857.22 Q2003.16 1857.64 2001.21 1858.51 L2001.21 1841.15 Z" fill="#000000" fill-rule="nonzero" fill-opacity="1" /><path clip-path="url(#clip780)" d="M2480.2 1871.78 L2487.84 1871.78 L2487.84 1845.41 L2479.53 1847.08 L2479.53 1842.82 L2487.79 1841.15 L2492.47 1841.15 L2492.47 1871.78 L2500.11 1871.78 L2500.11 1875.71 L2480.2 1875.71 L2480.2 1871.78 Z" fill="#000000" fill-rule="nonzero" fill-opacity="1" /><path clip-path="url(#clip780)" d="M2519.55 1844.23 Q2515.94 1844.23 2514.11 1847.8 Q2512.31 1851.34 2512.31 1858.47 Q2512.31 1865.58 2514.11 1869.14 Q2515.94 1872.68 2519.55 1872.68 Q2523.18 1872.68 2524.99 1869.14 Q2526.82 1865.58 2526.82 1858.47 Q2526.82 1851.34 2524.99 1847.8 Q2523.18 1844.23 2519.55 1844.23 M2519.55 1840.53 Q2525.36 1840.53 2528.42 1845.14 Q2531.5 1849.72 2531.5 1858.47 Q2531.5 1867.2 2528.42 1871.8 Q2525.36 1876.39 2519.55 1876.39 Q2513.74 1876.39 2510.66 1871.8 Q2507.61 1867.2 2507.61 1858.47 Q2507.61 1849.72 2510.66 1845.14 Q2513.74 1840.53 2519.55 1840.53 Z" fill="#000000" fill-rule="nonzero" fill-opacity="1" /><path clip-path="url(#clip780)" d="M2549.71 1844.23 Q2546.1 1844.23 2544.27 1847.8 Q2542.47 1851.34 2542.47 1858.47 Q2542.47 1865.58 2544.27 1869.14 Q2546.1 1872.68 2549.71 1872.68 Q2553.35 1872.68 2555.15 1869.14 Q2556.98 1865.58 2556.98 1858.47 Q2556.98 1851.34 2555.15 1847.8 Q2553.35 1844.23 2549.71 1844.23 M2549.71 1840.53 Q2555.52 1840.53 2558.58 1845.14 Q2561.66 1849.72 2561.66 1858.47 Q2561.66 1867.2 2558.58 1871.8 Q2555.52 1876.39 2549.71 1876.39 Q2543.9 1876.39 2540.82 1871.8 Q2537.77 1867.2 2537.77 1858.47 Q2537.77 1849.72 2540.82 1845.14 Q2543.9 1840.53 2549.71 1840.53 Z" fill="#000000" fill-rule="nonzero" fill-opacity="1" /><path clip-path="url(#clip780)" d="M1421 1932.01 L1421 1942.13 L1433.06 1942.13 L1433.06 1946.68 L1421 1946.68 L1421 1966.03 Q1421 1970.39 1422.17 1971.63 Q1423.38 1972.88 1427.04 1972.88 L1433.06 1972.88 L1433.06 1977.78 L1427.04 1977.78 Q1420.26 1977.78 1417.69 1975.26 Q1415.11 1972.72 1415.11 1966.03 L1415.11 1946.68 L1410.81 1946.68 L1410.81 1942.13 L1415.11 1942.13 L1415.11 1932.01 L1421 1932.01 Z" fill="#000000" fill-rule="nonzero" fill-opacity="1" /><path clip-path="url(#clip780)" d="M1440.76 1942.13 L1446.62 1942.13 L1446.62 1977.78 L1440.76 1977.78 L1440.76 1942.13 M1440.76 1928.25 L1446.62 1928.25 L1446.62 1935.67 L1440.76 1935.67 L1440.76 1928.25 Z" fill="#000000" fill-rule="nonzero" fill-opacity="1" /><path clip-path="url(#clip780)" d="M1486.63 1948.97 Q1488.82 1945.03 1491.88 1943.15 Q1494.93 1941.27 1499.07 1941.27 Q1504.64 1941.27 1507.66 1945.19 Q1510.69 1949.07 1510.69 1956.26 L1510.69 1977.78 L1504.8 1977.78 L1504.8 1956.45 Q1504.8 1951.33 1502.99 1948.85 Q1501.17 1946.36 1497.45 1946.36 Q1492.9 1946.36 1490.25 1949.39 Q1487.61 1952.41 1487.61 1957.63 L1487.61 1977.78 L1481.72 1977.78 L1481.72 1956.45 Q1481.72 1951.3 1479.91 1948.85 Q1478.1 1946.36 1474.31 1946.36 Q1469.82 1946.36 1467.18 1949.42 Q1464.54 1952.44 1464.54 1957.63 L1464.54 1977.78 L1458.65 1977.78 L1458.65 1942.13 L1464.54 1942.13 L1464.54 1947.67 Q1466.54 1944.39 1469.34 1942.83 Q1472.14 1941.27 1476 1941.27 Q1479.88 1941.27 1482.58 1943.24 Q1485.32 1945.22 1486.63 1948.97 Z" fill="#000000" fill-rule="nonzero" fill-opacity="1" /><path clip-path="url(#clip780)" d="M1552.86 1958.49 L1552.86 1961.35 L1525.93 1961.35 Q1526.32 1967.4 1529.56 1970.58 Q1532.84 1973.74 1538.67 1973.74 Q1542.04 1973.74 1545.19 1972.91 Q1548.37 1972.08 1551.49 1970.43 L1551.49 1975.96 Q1548.34 1977.3 1545.03 1978 Q1541.72 1978.7 1538.32 1978.7 Q1529.79 1978.7 1524.79 1973.74 Q1519.82 1968.77 1519.82 1960.3 Q1519.82 1951.55 1524.53 1946.43 Q1529.28 1941.27 1537.3 1941.27 Q1544.49 1941.27 1548.66 1945.92 Q1552.86 1950.53 1552.86 1958.49 M1547 1956.77 Q1546.94 1951.96 1544.3 1949.1 Q1541.69 1946.24 1537.36 1946.24 Q1532.46 1946.24 1529.5 1949 Q1526.57 1951.77 1526.12 1956.8 L1547 1956.77 Z" fill="#000000" fill-rule="nonzero" fill-opacity="1" /><polyline clip-path="url(#clip782)" style="stroke:#000000; stroke-linecap:round; stroke-linejoin:round; stroke-width:2; stroke-opacity:0.1; fill:none" points="380.753,1780.14 2582.92,1780.14 "/>
<polyline clip-path="url(#clip782)" style="stroke:#000000; stroke-linecap:round; stroke-linejoin:round; stroke-width:2; stroke-opacity:0.1; fill:none" points="380.753,1319.41 2582.92,1319.41 "/>
<polyline clip-path="url(#clip782)" style="stroke:#000000; stroke-linecap:round; stroke-linejoin:round; stroke-width:2; stroke-opacity:0.1; fill:none" points="380.753,858.671 2582.92,858.671 "/>
<polyline clip-path="url(#clip782)" style="stroke:#000000; stroke-linecap:round; stroke-linejoin:round; stroke-width:2; stroke-opacity:0.1; fill:none" points="380.753,397.937 2582.92,397.937 "/>
<polyline clip-path="url(#clip780)" style="stroke:#000000; stroke-linecap:round; stroke-linejoin:round; stroke-width:4; stroke-opacity:1; fill:none" points="380.753,1790.91 380.753,97.8844 "/>
<polyline clip-path="url(#clip780)" style="stroke:#000000; stroke-linecap:round; stroke-linejoin:round; stroke-width:4; stroke-opacity:1; fill:none" points="380.753,1780.14 399.651,1780.14 "/>
<polyline clip-path="url(#clip780)" style="stroke:#000000; stroke-linecap:round; stroke-linejoin:round; stroke-width:4; stroke-opacity:1; fill:none" points="380.753,1319.41 399.651,1319.41 "/>
<polyline clip-path="url(#clip780)" style="stroke:#000000; stroke-linecap:round; stroke-linejoin:round; stroke-width:4; stroke-opacity:1; fill:none" points="380.753,858.671 399.651,858.671 "/>
<polyline clip-path="url(#clip780)" style="stroke:#000000; stroke-linecap:round; stroke-linejoin:round; stroke-width:4; stroke-opacity:1; fill:none" points="380.753,397.937 399.651,397.937 "/>
<path clip-path="url(#clip780)" d="M155.092 1765.94 Q151.481 1765.94 149.652 1769.5 Q147.847 1773.04 147.847 1780.17 Q147.847 1787.28 149.652 1790.85 Q151.481 1794.39 155.092 1794.39 Q158.726 1794.39 160.532 1790.85 Q162.361 1787.28 162.361 1780.17 Q162.361 1773.04 160.532 1769.5 Q158.726 1765.94 155.092 1765.94 M155.092 1762.23 Q160.902 1762.23 163.958 1766.84 Q167.036 1771.42 167.036 1780.17 Q167.036 1788.9 163.958 1793.51 Q160.902 1798.09 155.092 1798.09 Q149.282 1798.09 146.203 1793.51 Q143.148 1788.9 143.148 1780.17 Q143.148 1771.42 146.203 1766.84 Q149.282 1762.23 155.092 1762.23 Z" fill="#000000" fill-rule="nonzero" fill-opacity="1" /><path clip-path="url(#clip780)" d="M175.254 1791.54 L180.138 1791.54 L180.138 1797.42 L175.254 1797.42 L175.254 1791.54 Z" fill="#000000" fill-rule="nonzero" fill-opacity="1" /><path clip-path="url(#clip780)" d="M203.17 1766.93 L191.365 1785.38 L203.17 1785.38 L203.17 1766.93 M201.944 1762.86 L207.823 1762.86 L207.823 1785.38 L212.754 1785.38 L212.754 1789.27 L207.823 1789.27 L207.823 1797.42 L203.17 1797.42 L203.17 1789.27 L187.569 1789.27 L187.569 1784.76 L201.944 1762.86 Z" fill="#000000" fill-rule="nonzero" fill-opacity="1" /><path clip-path="url(#clip780)" d="M220.624 1796.7 L220.624 1792.44 Q222.383 1793.28 224.189 1793.72 Q225.994 1794.16 227.731 1794.16 Q232.36 1794.16 234.791 1791.05 Q237.244 1787.93 237.592 1781.59 Q236.249 1783.58 234.189 1784.64 Q232.129 1785.71 229.629 1785.71 Q224.444 1785.71 221.411 1782.58 Q218.402 1779.43 218.402 1773.99 Q218.402 1768.67 221.55 1765.45 Q224.698 1762.23 229.93 1762.23 Q235.925 1762.23 239.073 1766.84 Q242.244 1771.42 242.244 1780.17 Q242.244 1788.35 238.355 1793.23 Q234.49 1798.09 227.939 1798.09 Q226.18 1798.09 224.374 1797.74 Q222.569 1797.4 220.624 1796.7 M229.93 1782.05 Q233.078 1782.05 234.906 1779.9 Q236.758 1777.74 236.758 1773.99 Q236.758 1770.27 234.906 1768.11 Q233.078 1765.94 229.93 1765.94 Q226.781 1765.94 224.93 1768.11 Q223.101 1770.27 223.101 1773.99 Q223.101 1777.74 224.93 1779.9 Q226.781 1782.05 229.93 1782.05 Z" fill="#000000" fill-rule="nonzero" fill-opacity="1" /><path clip-path="url(#clip780)" d="M250.786 1796.7 L250.786 1792.44 Q252.545 1793.28 254.351 1793.72 Q256.156 1794.16 257.892 1794.16 Q262.522 1794.16 264.953 1791.05 Q267.406 1787.93 267.753 1781.59 Q266.411 1783.58 264.351 1784.64 Q262.291 1785.71 259.791 1785.71 Q254.605 1785.71 251.573 1782.58 Q248.564 1779.43 248.564 1773.99 Q248.564 1768.67 251.712 1765.45 Q254.86 1762.23 260.091 1762.23 Q266.087 1762.23 269.235 1766.84 Q272.406 1771.42 272.406 1780.17 Q272.406 1788.35 268.517 1793.23 Q264.652 1798.09 258.101 1798.09 Q256.342 1798.09 254.536 1797.74 Q252.73 1797.4 250.786 1796.7 M260.091 1782.05 Q263.24 1782.05 265.068 1779.9 Q266.92 1777.74 266.92 1773.99 Q266.92 1770.27 265.068 1768.11 Q263.24 1765.94 260.091 1765.94 Q256.943 1765.94 255.092 1768.11 Q253.263 1770.27 253.263 1773.99 Q253.263 1777.74 255.092 1779.9 Q256.943 1782.05 260.091 1782.05 Z" fill="#000000" fill-rule="nonzero" fill-opacity="1" /><path clip-path="url(#clip780)" d="M290.809 1765.94 Q287.198 1765.94 285.369 1769.5 Q283.564 1773.04 283.564 1780.17 Q283.564 1787.28 285.369 1790.85 Q287.198 1794.39 290.809 1794.39 Q294.443 1794.39 296.249 1790.85 Q298.077 1787.28 298.077 1780.17 Q298.077 1773.04 296.249 1769.5 Q294.443 1765.94 290.809 1765.94 M290.809 1762.23 Q296.619 1762.23 299.675 1766.84 Q302.753 1771.42 302.753 1780.17 Q302.753 1788.9 299.675 1793.51 Q296.619 1798.09 290.809 1798.09 Q284.999 1798.09 281.92 1793.51 Q278.865 1788.9 278.865 1780.17 Q278.865 1771.42 281.92 1766.84 Q284.999 1762.23 290.809 1762.23 Z" fill="#000000" fill-rule="nonzero" fill-opacity="1" /><path clip-path="url(#clip780)" d="M156.087 1305.2 Q152.476 1305.2 150.648 1308.77 Q148.842 1312.31 148.842 1319.44 Q148.842 1326.55 150.648 1330.11 Q152.476 1333.65 156.087 1333.65 Q159.722 1333.65 161.527 1330.11 Q163.356 1326.55 163.356 1319.44 Q163.356 1312.31 161.527 1308.77 Q159.722 1305.2 156.087 1305.2 M156.087 1301.5 Q161.898 1301.5 164.953 1306.11 Q168.032 1310.69 168.032 1319.44 Q168.032 1328.17 164.953 1332.77 Q161.898 1337.36 156.087 1337.36 Q150.277 1337.36 147.199 1332.77 Q144.143 1328.17 144.143 1319.44 Q144.143 1310.69 147.199 1306.11 Q150.277 1301.5 156.087 1301.5 Z" fill="#000000" fill-rule="nonzero" fill-opacity="1" /><path clip-path="url(#clip780)" d="M176.249 1330.81 L181.134 1330.81 L181.134 1336.69 L176.249 1336.69 L176.249 1330.81 Z" fill="#000000" fill-rule="nonzero" fill-opacity="1" /><path clip-path="url(#clip780)" d="M204.166 1306.2 L192.36 1324.65 L204.166 1324.65 L204.166 1306.2 M202.939 1302.13 L208.819 1302.13 L208.819 1324.65 L213.749 1324.65 L213.749 1328.54 L208.819 1328.54 L208.819 1336.69 L204.166 1336.69 L204.166 1328.54 L188.564 1328.54 L188.564 1324.02 L202.939 1302.13 Z" fill="#000000" fill-rule="nonzero" fill-opacity="1" /><path clip-path="url(#clip780)" d="M221.619 1335.97 L221.619 1331.71 Q223.379 1332.54 225.184 1332.98 Q226.99 1333.42 228.726 1333.42 Q233.356 1333.42 235.786 1330.32 Q238.24 1327.19 238.587 1320.85 Q237.244 1322.84 235.184 1323.91 Q233.124 1324.97 230.624 1324.97 Q225.439 1324.97 222.407 1321.85 Q219.397 1318.7 219.397 1313.26 Q219.397 1307.94 222.545 1304.72 Q225.694 1301.5 230.925 1301.5 Q236.92 1301.5 240.068 1306.11 Q243.24 1310.69 243.24 1319.44 Q243.24 1327.61 239.351 1332.5 Q235.485 1337.36 228.934 1337.36 Q227.175 1337.36 225.369 1337.01 Q223.564 1336.66 221.619 1335.97 M230.925 1321.31 Q234.073 1321.31 235.902 1319.16 Q237.754 1317.01 237.754 1313.26 Q237.754 1309.53 235.902 1307.38 Q234.073 1305.2 230.925 1305.2 Q227.777 1305.2 225.925 1307.38 Q224.096 1309.53 224.096 1313.26 Q224.096 1317.01 225.925 1319.16 Q227.777 1321.31 230.925 1321.31 Z" fill="#000000" fill-rule="nonzero" fill-opacity="1" /><path clip-path="url(#clip780)" d="M251.781 1335.97 L251.781 1331.71 Q253.541 1332.54 255.346 1332.98 Q257.152 1333.42 258.888 1333.42 Q263.517 1333.42 265.948 1330.32 Q268.402 1327.19 268.749 1320.85 Q267.406 1322.84 265.346 1323.91 Q263.286 1324.97 260.786 1324.97 Q255.601 1324.97 252.568 1321.85 Q249.559 1318.7 249.559 1313.26 Q249.559 1307.94 252.707 1304.72 Q255.855 1301.5 261.087 1301.5 Q267.082 1301.5 270.23 1306.11 Q273.402 1310.69 273.402 1319.44 Q273.402 1327.61 269.513 1332.5 Q265.647 1337.36 259.096 1337.36 Q257.337 1337.36 255.531 1337.01 Q253.726 1336.66 251.781 1335.97 M261.087 1321.31 Q264.235 1321.31 266.064 1319.16 Q267.916 1317.01 267.916 1313.26 Q267.916 1309.53 266.064 1307.38 Q264.235 1305.2 261.087 1305.2 Q257.939 1305.2 256.087 1307.38 Q254.258 1309.53 254.258 1313.26 Q254.258 1317.01 256.087 1319.16 Q257.939 1321.31 261.087 1321.31 Z" fill="#000000" fill-rule="nonzero" fill-opacity="1" /><path clip-path="url(#clip780)" d="M281.851 1302.13 L300.207 1302.13 L300.207 1306.06 L286.133 1306.06 L286.133 1314.53 Q287.152 1314.19 288.17 1314.02 Q289.189 1313.84 290.207 1313.84 Q295.994 1313.84 299.374 1317.01 Q302.753 1320.18 302.753 1325.6 Q302.753 1331.18 299.281 1334.28 Q295.809 1337.36 289.489 1337.36 Q287.314 1337.36 285.045 1336.99 Q282.8 1336.62 280.392 1335.87 L280.392 1331.18 Q282.476 1332.31 284.698 1332.87 Q286.92 1333.42 289.397 1333.42 Q293.401 1333.42 295.739 1331.31 Q298.077 1329.21 298.077 1325.6 Q298.077 1321.99 295.739 1319.88 Q293.401 1317.77 289.397 1317.77 Q287.522 1317.77 285.647 1318.19 Q283.795 1318.61 281.851 1319.49 L281.851 1302.13 Z" fill="#000000" fill-rule="nonzero" fill-opacity="1" /><path clip-path="url(#clip780)" d="M155.092 844.47 Q151.481 844.47 149.652 848.034 Q147.847 851.576 147.847 858.706 Q147.847 865.812 149.652 869.377 Q151.481 872.919 155.092 872.919 Q158.726 872.919 160.532 869.377 Q162.361 865.812 162.361 858.706 Q162.361 851.576 160.532 848.034 Q158.726 844.47 155.092 844.47 M155.092 840.766 Q160.902 840.766 163.958 845.372 Q167.036 849.956 167.036 858.706 Q167.036 867.432 163.958 872.039 Q160.902 876.622 155.092 876.622 Q149.282 876.622 146.203 872.039 Q143.148 867.432 143.148 858.706 Q143.148 849.956 146.203 845.372 Q149.282 840.766 155.092 840.766 Z" fill="#000000" fill-rule="nonzero" fill-opacity="1" /><path clip-path="url(#clip780)" d="M175.254 870.071 L180.138 870.071 L180.138 875.951 L175.254 875.951 L175.254 870.071 Z" fill="#000000" fill-rule="nonzero" fill-opacity="1" /><path clip-path="url(#clip780)" d="M190.37 841.391 L208.726 841.391 L208.726 845.326 L194.652 845.326 L194.652 853.798 Q195.671 853.451 196.689 853.289 Q197.708 853.104 198.726 853.104 Q204.513 853.104 207.893 856.275 Q211.272 859.446 211.272 864.863 Q211.272 870.442 207.8 873.544 Q204.328 876.622 198.008 876.622 Q195.833 876.622 193.564 876.252 Q191.319 875.881 188.911 875.141 L188.911 870.442 Q190.995 871.576 193.217 872.132 Q195.439 872.687 197.916 872.687 Q201.921 872.687 204.258 870.581 Q206.596 868.474 206.596 864.863 Q206.596 861.252 204.258 859.145 Q201.921 857.039 197.916 857.039 Q196.041 857.039 194.166 857.456 Q192.314 857.872 190.37 858.752 L190.37 841.391 Z" fill="#000000" fill-rule="nonzero" fill-opacity="1" /><path clip-path="url(#clip780)" d="M230.485 844.47 Q226.874 844.47 225.045 848.034 Q223.24 851.576 223.24 858.706 Q223.24 865.812 225.045 869.377 Q226.874 872.919 230.485 872.919 Q234.119 872.919 235.925 869.377 Q237.754 865.812 237.754 858.706 Q237.754 851.576 235.925 848.034 Q234.119 844.47 230.485 844.47 M230.485 840.766 Q236.295 840.766 239.351 845.372 Q242.43 849.956 242.43 858.706 Q242.43 867.432 239.351 872.039 Q236.295 876.622 230.485 876.622 Q224.675 876.622 221.596 872.039 Q218.541 867.432 218.541 858.706 Q218.541 849.956 221.596 845.372 Q224.675 840.766 230.485 840.766 Z" fill="#000000" fill-rule="nonzero" fill-opacity="1" /><path clip-path="url(#clip780)" d="M260.647 844.47 Q257.036 844.47 255.207 848.034 Q253.402 851.576 253.402 858.706 Q253.402 865.812 255.207 869.377 Q257.036 872.919 260.647 872.919 Q264.281 872.919 266.087 869.377 Q267.916 865.812 267.916 858.706 Q267.916 851.576 266.087 848.034 Q264.281 844.47 260.647 844.47 M260.647 840.766 Q266.457 840.766 269.513 845.372 Q272.591 849.956 272.591 858.706 Q272.591 867.432 269.513 872.039 Q266.457 876.622 260.647 876.622 Q254.837 876.622 251.758 872.039 Q248.703 867.432 248.703 858.706 Q248.703 849.956 251.758 845.372 Q254.837 840.766 260.647 840.766 Z" fill="#000000" fill-rule="nonzero" fill-opacity="1" /><path clip-path="url(#clip780)" d="M290.809 844.47 Q287.198 844.47 285.369 848.034 Q283.564 851.576 283.564 858.706 Q283.564 865.812 285.369 869.377 Q287.198 872.919 290.809 872.919 Q294.443 872.919 296.249 869.377 Q298.077 865.812 298.077 858.706 Q298.077 851.576 296.249 848.034 Q294.443 844.47 290.809 844.47 M290.809 840.766 Q296.619 840.766 299.675 845.372 Q302.753 849.956 302.753 858.706 Q302.753 867.432 299.675 872.039 Q296.619 876.622 290.809 876.622 Q284.999 876.622 281.92 872.039 Q278.865 867.432 278.865 858.706 Q278.865 849.956 281.92 845.372 Q284.999 840.766 290.809 840.766 Z" fill="#000000" fill-rule="nonzero" fill-opacity="1" /><path clip-path="url(#clip780)" d="M156.087 383.736 Q152.476 383.736 150.648 387.3 Q148.842 390.842 148.842 397.972 Q148.842 405.078 150.648 408.643 Q152.476 412.184 156.087 412.184 Q159.722 412.184 161.527 408.643 Q163.356 405.078 163.356 397.972 Q163.356 390.842 161.527 387.3 Q159.722 383.736 156.087 383.736 M156.087 380.032 Q161.898 380.032 164.953 384.638 Q168.032 389.222 168.032 397.972 Q168.032 406.698 164.953 411.305 Q161.898 415.888 156.087 415.888 Q150.277 415.888 147.199 411.305 Q144.143 406.698 144.143 397.972 Q144.143 389.222 147.199 384.638 Q150.277 380.032 156.087 380.032 Z" fill="#000000" fill-rule="nonzero" fill-opacity="1" /><path clip-path="url(#clip780)" d="M176.249 409.337 L181.134 409.337 L181.134 415.217 L176.249 415.217 L176.249 409.337 Z" fill="#000000" fill-rule="nonzero" fill-opacity="1" /><path clip-path="url(#clip780)" d="M191.365 380.657 L209.721 380.657 L209.721 384.592 L195.647 384.592 L195.647 393.064 Q196.666 392.717 197.684 392.555 Q198.703 392.37 199.721 392.37 Q205.508 392.37 208.888 395.541 Q212.268 398.712 212.268 404.129 Q212.268 409.708 208.795 412.809 Q205.323 415.888 199.004 415.888 Q196.828 415.888 194.559 415.518 Q192.314 415.147 189.907 414.407 L189.907 409.708 Q191.99 410.842 194.212 411.397 Q196.434 411.953 198.911 411.953 Q202.916 411.953 205.254 409.846 Q207.592 407.74 207.592 404.129 Q207.592 400.518 205.254 398.411 Q202.916 396.305 198.911 396.305 Q197.036 396.305 195.161 396.722 Q193.309 397.138 191.365 398.018 L191.365 380.657 Z" fill="#000000" fill-rule="nonzero" fill-opacity="1" /><path clip-path="url(#clip780)" d="M231.481 383.736 Q227.869 383.736 226.041 387.3 Q224.235 390.842 224.235 397.972 Q224.235 405.078 226.041 408.643 Q227.869 412.184 231.481 412.184 Q235.115 412.184 236.92 408.643 Q238.749 405.078 238.749 397.972 Q238.749 390.842 236.92 387.3 Q235.115 383.736 231.481 383.736 M231.481 380.032 Q237.291 380.032 240.346 384.638 Q243.425 389.222 243.425 397.972 Q243.425 406.698 240.346 411.305 Q237.291 415.888 231.481 415.888 Q225.67 415.888 222.592 411.305 Q219.536 406.698 219.536 397.972 Q219.536 389.222 222.592 384.638 Q225.67 380.032 231.481 380.032 Z" fill="#000000" fill-rule="nonzero" fill-opacity="1" /><path clip-path="url(#clip780)" d="M261.642 383.736 Q258.031 383.736 256.203 387.3 Q254.397 390.842 254.397 397.972 Q254.397 405.078 256.203 408.643 Q258.031 412.184 261.642 412.184 Q265.277 412.184 267.082 408.643 Q268.911 405.078 268.911 397.972 Q268.911 390.842 267.082 387.3 Q265.277 383.736 261.642 383.736 M261.642 380.032 Q267.453 380.032 270.508 384.638 Q273.587 389.222 273.587 397.972 Q273.587 406.698 270.508 411.305 Q267.453 415.888 261.642 415.888 Q255.832 415.888 252.754 411.305 Q249.698 406.698 249.698 397.972 Q249.698 389.222 252.754 384.638 Q255.832 380.032 261.642 380.032 Z" fill="#000000" fill-rule="nonzero" fill-opacity="1" /><path clip-path="url(#clip780)" d="M281.851 380.657 L300.207 380.657 L300.207 384.592 L286.133 384.592 L286.133 393.064 Q287.152 392.717 288.17 392.555 Q289.189 392.37 290.207 392.37 Q295.994 392.37 299.374 395.541 Q302.753 398.712 302.753 404.129 Q302.753 409.708 299.281 412.809 Q295.809 415.888 289.489 415.888 Q287.314 415.888 285.045 415.518 Q282.8 415.147 280.392 414.407 L280.392 409.708 Q282.476 410.842 284.698 411.397 Q286.92 411.953 289.397 411.953 Q293.401 411.953 295.739 409.846 Q298.077 407.74 298.077 404.129 Q298.077 400.518 295.739 398.411 Q293.401 396.305 289.397 396.305 Q287.522 396.305 285.647 396.722 Q283.795 397.138 281.851 398.018 L281.851 380.657 Z" fill="#000000" fill-rule="nonzero" fill-opacity="1" /><path clip-path="url(#clip780)" d="M15.2437 927.785 L32.5903 940.675 L50.8917 927.116 L50.8917 934.023 L36.8871 944.399 L50.8917 954.775 L50.8917 961.682 L32.2401 947.837 L15.2437 960.504 L15.2437 953.598 L27.9433 944.145 L15.2437 934.691 L15.2437 927.785 Z" fill="#000000" fill-rule="nonzero" fill-opacity="1" /><path clip-path="url(#clip780)" d="M1261.55 16.7545 L1261.55 25.383 Q1257.42 21.5346 1252.72 19.6307 Q1248.06 17.7268 1242.79 17.7268 Q1232.42 17.7268 1226.91 24.0867 Q1221.4 30.4061 1221.4 42.3968 Q1221.4 54.3469 1226.91 60.7069 Q1232.42 67.0263 1242.79 67.0263 Q1248.06 67.0263 1252.72 65.1223 Q1257.42 63.2184 1261.55 59.3701 L1261.55 67.9175 Q1257.25 70.8341 1252.43 72.2924 Q1247.65 73.7508 1242.31 73.7508 Q1228.57 73.7508 1220.67 65.3654 Q1212.77 56.9395 1212.77 42.3968 Q1212.77 27.8135 1220.67 19.4281 Q1228.57 11.0023 1242.31 11.0023 Q1247.73 11.0023 1252.51 12.4606 Q1257.33 13.8784 1261.55 16.7545 Z" fill="#000000" fill-rule="nonzero" fill-opacity="1" /><path clip-path="url(#clip780)" d="M1273.86 9.54393 L1281.32 9.54393 L1281.32 72.576 L1273.86 72.576 L1273.86 9.54393 Z" fill="#000000" fill-rule="nonzero" fill-opacity="1" /><path clip-path="url(#clip780)" d="M1317.53 49.7694 Q1308.5 49.7694 1305.01 51.8354 Q1301.53 53.9013 1301.53 58.8839 Q1301.53 62.8538 1304.12 65.2034 Q1306.76 67.5124 1311.25 67.5124 Q1317.45 67.5124 1321.18 63.1374 Q1324.94 58.7219 1324.94 51.4303 L1324.94 49.7694 L1317.53 49.7694 M1332.4 46.6907 L1332.4 72.576 L1324.94 72.576 L1324.94 65.6895 Q1322.39 69.8214 1318.58 71.8063 Q1314.78 73.7508 1309.27 73.7508 Q1302.3 73.7508 1298.17 69.8619 Q1294.08 65.9325 1294.08 59.3701 Q1294.08 51.7138 1299.18 47.825 Q1304.32 43.9361 1314.49 43.9361 L1324.94 43.9361 L1324.94 43.2069 Q1324.94 38.0623 1321.54 35.2672 Q1318.18 32.4315 1312.06 32.4315 Q1308.17 32.4315 1304.49 33.3632 Q1300.8 34.295 1297.4 36.1584 L1297.4 29.2718 Q1301.49 27.692 1305.34 26.9223 Q1309.19 26.1121 1312.83 26.1121 Q1322.68 26.1121 1327.54 31.2163 Q1332.4 36.3204 1332.4 46.6907 Z" fill="#000000" fill-rule="nonzero" fill-opacity="1" /><path clip-path="url(#clip780)" d="M1376.67 28.5427 L1376.67 35.5912 Q1373.51 33.9709 1370.11 33.1607 Q1366.71 32.3505 1363.06 32.3505 Q1357.51 32.3505 1354.72 34.0519 Q1351.96 35.7533 1351.96 39.156 Q1351.96 41.7486 1353.95 43.2475 Q1355.93 44.7058 1361.93 46.0426 L1364.48 46.6097 Q1372.42 48.3111 1375.74 51.4303 Q1379.1 54.509 1379.1 60.0587 Q1379.1 66.3781 1374.08 70.0644 Q1369.1 73.7508 1360.35 73.7508 Q1356.7 73.7508 1352.73 73.0216 Q1348.8 72.3329 1344.43 70.9151 L1344.43 63.2184 Q1348.56 65.3654 1352.57 66.4591 Q1356.58 67.5124 1360.51 67.5124 Q1365.78 67.5124 1368.61 65.73 Q1371.45 63.9071 1371.45 60.6258 Q1371.45 57.5877 1369.38 55.9673 Q1367.36 54.3469 1360.43 52.8481 L1357.84 52.2405 Q1350.91 50.7821 1347.83 47.7845 Q1344.75 44.7463 1344.75 39.4801 Q1344.75 33.0797 1349.29 29.5959 Q1353.83 26.1121 1362.17 26.1121 Q1366.3 26.1121 1369.95 26.7198 Q1373.6 27.3274 1376.67 28.5427 Z" fill="#000000" fill-rule="nonzero" fill-opacity="1" /><path clip-path="url(#clip780)" d="M1419.9 28.5427 L1419.9 35.5912 Q1416.74 33.9709 1413.33 33.1607 Q1409.93 32.3505 1406.29 32.3505 Q1400.74 32.3505 1397.94 34.0519 Q1395.19 35.7533 1395.19 39.156 Q1395.19 41.7486 1397.17 43.2475 Q1399.16 44.7058 1405.15 46.0426 L1407.7 46.6097 Q1415.64 48.3111 1418.97 51.4303 Q1422.33 54.509 1422.33 60.0587 Q1422.33 66.3781 1417.3 70.0644 Q1412.32 73.7508 1403.57 73.7508 Q1399.93 73.7508 1395.96 73.0216 Q1392.03 72.3329 1387.65 70.9151 L1387.65 63.2184 Q1391.78 65.3654 1395.79 66.4591 Q1399.8 67.5124 1403.73 67.5124 Q1409 67.5124 1411.84 65.73 Q1414.67 63.9071 1414.67 60.6258 Q1414.67 57.5877 1412.61 55.9673 Q1410.58 54.3469 1403.65 52.8481 L1401.06 52.2405 Q1394.13 50.7821 1391.05 47.7845 Q1387.98 44.7463 1387.98 39.4801 Q1387.98 33.0797 1392.51 29.5959 Q1397.05 26.1121 1405.39 26.1121 Q1409.53 26.1121 1413.17 26.7198 Q1416.82 27.3274 1419.9 28.5427 Z" fill="#000000" fill-rule="nonzero" fill-opacity="1" /><path clip-path="url(#clip780)" d="M1463.04 65.6895 L1476.41 65.6895 L1476.41 19.5497 L1461.86 22.4663 L1461.86 15.0127 L1476.33 12.096 L1484.51 12.096 L1484.51 65.6895 L1497.88 65.6895 L1497.88 72.576 L1463.04 72.576 L1463.04 65.6895 Z" fill="#000000" fill-rule="nonzero" fill-opacity="1" /><path clip-path="url(#clip780)" d="M1540.05 12.096 L1552.24 12.096 L1567.67 53.2532 L1583.19 12.096 L1595.38 12.096 L1595.38 72.576 L1587.4 72.576 L1587.4 19.4686 L1571.81 60.9499 L1563.58 60.9499 L1547.99 19.4686 L1547.99 72.576 L1540.05 72.576 L1540.05 12.096 Z" fill="#000000" fill-rule="nonzero" fill-opacity="1" /><path clip-path="url(#clip780)" d="M1650.11 48.0275 L1650.11 51.6733 L1615.84 51.6733 Q1616.33 59.3701 1620.46 63.421 Q1624.63 67.4314 1632.04 67.4314 Q1636.34 67.4314 1640.35 66.3781 Q1644.4 65.3249 1648.37 63.2184 L1648.37 70.267 Q1644.36 71.9684 1640.14 72.8596 Q1635.93 73.7508 1631.6 73.7508 Q1620.74 73.7508 1614.38 67.4314 Q1608.06 61.1119 1608.06 50.3365 Q1608.06 39.1965 1614.06 32.6746 Q1620.09 26.1121 1630.3 26.1121 Q1639.46 26.1121 1644.76 32.0264 Q1650.11 37.9003 1650.11 48.0275 M1642.66 45.84 Q1642.58 39.7232 1639.21 36.0774 Q1635.89 32.4315 1630.38 32.4315 Q1624.14 32.4315 1620.38 35.9558 Q1616.65 39.4801 1616.08 45.8805 L1642.66 45.84 Z" fill="#000000" fill-rule="nonzero" fill-opacity="1" /><path clip-path="url(#clip780)" d="M1682.96 49.7694 Q1673.93 49.7694 1670.45 51.8354 Q1666.96 53.9013 1666.96 58.8839 Q1666.96 62.8538 1669.55 65.2034 Q1672.19 67.5124 1676.68 67.5124 Q1682.88 67.5124 1686.61 63.1374 Q1690.38 58.7219 1690.38 51.4303 L1690.38 49.7694 L1682.96 49.7694 M1697.83 46.6907 L1697.83 72.576 L1690.38 72.576 L1690.38 65.6895 Q1687.82 69.8214 1684.02 71.8063 Q1680.21 73.7508 1674.7 73.7508 Q1667.73 73.7508 1663.6 69.8619 Q1659.51 65.9325 1659.51 59.3701 Q1659.51 51.7138 1664.61 47.825 Q1669.76 43.9361 1679.92 43.9361 L1690.38 43.9361 L1690.38 43.2069 Q1690.38 38.0623 1686.97 35.2672 Q1683.61 32.4315 1677.49 32.4315 Q1673.61 32.4315 1669.92 33.3632 Q1666.23 34.295 1662.83 36.1584 L1662.83 29.2718 Q1666.92 27.692 1670.77 26.9223 Q1674.62 26.1121 1678.26 26.1121 Q1688.11 26.1121 1692.97 31.2163 Q1697.83 36.3204 1697.83 46.6907 Z" fill="#000000" fill-rule="nonzero" fill-opacity="1" /><path clip-path="url(#clip780)" d="M1750.9 45.1919 L1750.9 72.576 L1743.44 72.576 L1743.44 45.4349 Q1743.44 38.994 1740.93 35.7938 Q1738.42 32.5936 1733.4 32.5936 Q1727.36 32.5936 1723.88 36.4419 Q1720.39 40.2903 1720.39 46.9338 L1720.39 72.576 L1712.9 72.576 L1712.9 27.2059 L1720.39 27.2059 L1720.39 34.2544 Q1723.07 30.163 1726.67 28.1376 Q1730.32 26.1121 1735.06 26.1121 Q1742.88 26.1121 1746.89 30.9732 Q1750.9 35.7938 1750.9 45.1919 Z" fill="#000000" fill-rule="nonzero" fill-opacity="1" /><polyline clip-path="url(#clip782)" style="stroke:#009af9; stroke-linecap:round; stroke-linejoin:round; stroke-width:8; stroke-opacity:1; fill:none" points="443.079,1324.14 464.064,1169.11 485.049,988.891 506.034,712.446 527.019,395.934 548.004,180.669 568.989,163.6 589.974,318.429 610.959,521.835 631.944,685.082 652.929,849.322 673.914,1101.36 694.899,1420.1 715.884,1673.55 736.869,1743 757.854,1621.63 778.838,1417.95 799.823,1243.31 820.808,1088.69 841.793,862.572 862.778,550.805 883.763,267.209 904.748,145.8 925.733,226.164 946.718,422.237 967.703,608.907 988.688,760.598 1009.67,962.1 1030.66,1259.33 1051.64,1564.24 1072.63,1734.93 1093.61,1701.28 1114.6,1521.29 1135.58,1324.14 1156.57,1169.11 1177.55,988.891 1198.54,712.446 1219.52,395.934 1240.51,180.669 1261.49,163.6 1282.48,318.429 1303.46,521.835 1324.45,685.082 1345.43,849.322 1366.42,1101.36 1387.4,1420.1 1408.39,1673.55 1429.37,1743 1450.36,1621.63 1471.34,1417.95 1492.33,1243.31 1513.31,1088.69 1534.3,862.572 1555.28,550.805 1576.27,267.209 1597.25,145.8 1618.24,226.164 1639.22,422.237 1660.21,608.907 1681.19,760.598 1702.18,962.1 1723.16,1259.33 1744.15,1564.24 1765.13,1734.93 1786.12,1701.28 1807.1,1521.29 1828.09,1324.14 1849.07,1169.11 1870.06,988.891 1891.04,712.446 1912.03,395.934 1933.01,180.669 1954,163.6 1974.98,318.429 1995.97,521.835 2016.95,685.082 2037.94,849.322 2058.92,1101.36 2079.91,1420.1 2100.89,1673.55 2121.88,1743 2142.86,1621.63 2163.85,1417.95 2184.83,1243.31 2205.82,1088.69 2226.8,862.572 2247.79,550.805 2268.77,267.209 2289.76,145.8 2310.74,226.164 2331.73,422.237 2352.71,608.907 2373.7,760.598 2394.68,962.1 2415.67,1259.33 2436.65,1564.24 2457.64,1734.93 2478.62,1701.28 2499.61,1521.29 2520.59,1324.14 "/>
<path clip-path="url(#clip780)" d="M2950.59 1790.91 L5152.76 1790.91 L5152.76 97.8844 L2950.59 97.8844  Z" fill="#ffffff" fill-rule="evenodd" fill-opacity="1"/>
<defs>
  <clipPath id="clip783">
    <rect x="2950" y="97" width="2203" height="1694"/>
  </clipPath>
</defs>
<polyline clip-path="url(#clip783)" style="stroke:#000000; stroke-linecap:round; stroke-linejoin:round; stroke-width:2; stroke-opacity:0.1; fill:none" points="2991.93,1790.91 2991.93,97.8844 "/>
<polyline clip-path="url(#clip783)" style="stroke:#000000; stroke-linecap:round; stroke-linejoin:round; stroke-width:2; stroke-opacity:0.1; fill:none" points="3516.56,1790.91 3516.56,97.8844 "/>
<polyline clip-path="url(#clip783)" style="stroke:#000000; stroke-linecap:round; stroke-linejoin:round; stroke-width:2; stroke-opacity:0.1; fill:none" points="4041.18,1790.91 4041.18,97.8844 "/>
<polyline clip-path="url(#clip783)" style="stroke:#000000; stroke-linecap:round; stroke-linejoin:round; stroke-width:2; stroke-opacity:0.1; fill:none" points="4565.81,1790.91 4565.81,97.8844 "/>
<polyline clip-path="url(#clip783)" style="stroke:#000000; stroke-linecap:round; stroke-linejoin:round; stroke-width:2; stroke-opacity:0.1; fill:none" points="5090.43,1790.91 5090.43,97.8844 "/>
<polyline clip-path="url(#clip780)" style="stroke:#000000; stroke-linecap:round; stroke-linejoin:round; stroke-width:4; stroke-opacity:1; fill:none" points="2950.59,1790.91 5152.76,1790.91 "/>
<polyline clip-path="url(#clip780)" style="stroke:#000000; stroke-linecap:round; stroke-linejoin:round; stroke-width:4; stroke-opacity:1; fill:none" points="2991.93,1790.91 2991.93,1772.02 "/>
<polyline clip-path="url(#clip780)" style="stroke:#000000; stroke-linecap:round; stroke-linejoin:round; stroke-width:4; stroke-opacity:1; fill:none" points="3516.56,1790.91 3516.56,1772.02 "/>
<polyline clip-path="url(#clip780)" style="stroke:#000000; stroke-linecap:round; stroke-linejoin:round; stroke-width:4; stroke-opacity:1; fill:none" points="4041.18,1790.91 4041.18,1772.02 "/>
<polyline clip-path="url(#clip780)" style="stroke:#000000; stroke-linecap:round; stroke-linejoin:round; stroke-width:4; stroke-opacity:1; fill:none" points="4565.81,1790.91 4565.81,1772.02 "/>
<polyline clip-path="url(#clip780)" style="stroke:#000000; stroke-linecap:round; stroke-linejoin:round; stroke-width:4; stroke-opacity:1; fill:none" points="5090.43,1790.91 5090.43,1772.02 "/>
<path clip-path="url(#clip780)" d="M2991.93 1844.23 Q2988.32 1844.23 2986.49 1847.8 Q2984.69 1851.34 2984.69 1858.47 Q2984.69 1865.58 2986.49 1869.14 Q2988.32 1872.68 2991.93 1872.68 Q2995.57 1872.68 2997.37 1869.14 Q2999.2 1865.58 2999.2 1858.47 Q2999.2 1851.34 2997.37 1847.8 Q2995.57 1844.23 2991.93 1844.23 M2991.93 1840.53 Q2997.74 1840.53 3000.8 1845.14 Q3003.88 1849.72 3003.88 1858.47 Q3003.88 1867.2 3000.8 1871.8 Q2997.74 1876.39 2991.93 1876.39 Q2986.12 1876.39 2983.04 1871.8 Q2979.99 1867.2 2979.99 1858.47 Q2979.99 1849.72 2983.04 1845.14 Q2986.12 1840.53 2991.93 1840.53 Z" fill="#000000" fill-rule="nonzero" fill-opacity="1" /><path clip-path="url(#clip780)" d="M3495.83 1871.78 L3512.15 1871.78 L3512.15 1875.71 L3490.2 1875.71 L3490.2 1871.78 Q3492.86 1869.02 3497.45 1864.39 Q3502.05 1859.74 3503.23 1858.4 Q3505.48 1855.88 3506.36 1854.14 Q3507.26 1852.38 3507.26 1850.69 Q3507.26 1847.94 3505.32 1846.2 Q3503.4 1844.46 3500.3 1844.46 Q3498.1 1844.46 3495.64 1845.23 Q3493.21 1845.99 3490.43 1847.54 L3490.43 1842.82 Q3493.26 1841.69 3495.71 1841.11 Q3498.17 1840.53 3500.2 1840.53 Q3505.57 1840.53 3508.77 1843.21 Q3511.96 1845.9 3511.96 1850.39 Q3511.96 1852.52 3511.15 1854.44 Q3510.36 1856.34 3508.26 1858.93 Q3507.68 1859.6 3504.58 1862.82 Q3501.48 1866.01 3495.83 1871.78 Z" fill="#000000" fill-rule="nonzero" fill-opacity="1" /><path clip-path="url(#clip780)" d="M3522.01 1841.15 L3540.36 1841.15 L3540.36 1845.09 L3526.29 1845.09 L3526.29 1853.56 Q3527.31 1853.21 3528.33 1853.05 Q3529.35 1852.87 3530.36 1852.87 Q3536.15 1852.87 3539.53 1856.04 Q3542.91 1859.21 3542.91 1864.63 Q3542.91 1870.2 3539.44 1873.31 Q3535.97 1876.39 3529.65 1876.39 Q3527.47 1876.39 3525.2 1876.01 Q3522.96 1875.64 3520.55 1874.9 L3520.55 1870.2 Q3522.63 1871.34 3524.86 1871.89 Q3527.08 1872.45 3529.55 1872.45 Q3533.56 1872.45 3535.9 1870.34 Q3538.23 1868.24 3538.23 1864.63 Q3538.23 1861.01 3535.9 1858.91 Q3533.56 1856.8 3529.55 1856.8 Q3527.68 1856.8 3525.8 1857.22 Q3523.95 1857.64 3522.01 1858.51 L3522.01 1841.15 Z" fill="#000000" fill-rule="nonzero" fill-opacity="1" /><path clip-path="url(#clip780)" d="M4015.88 1841.15 L4034.24 1841.15 L4034.24 1845.09 L4020.16 1845.09 L4020.16 1853.56 Q4021.18 1853.21 4022.2 1853.05 Q4023.22 1852.87 4024.24 1852.87 Q4030.02 1852.87 4033.4 1856.04 Q4036.78 1859.21 4036.78 1864.63 Q4036.78 1870.2 4033.31 1873.31 Q4029.84 1876.39 4023.52 1876.39 Q4021.34 1876.39 4019.07 1876.01 Q4016.83 1875.64 4014.42 1874.9 L4014.42 1870.2 Q4016.51 1871.34 4018.73 1871.89 Q4020.95 1872.45 4023.43 1872.45 Q4027.43 1872.45 4029.77 1870.34 Q4032.11 1868.24 4032.11 1864.63 Q4032.11 1861.01 4029.77 1858.91 Q4027.43 1856.8 4023.43 1856.8 Q4021.55 1856.8 4019.68 1857.22 Q4017.82 1857.64 4015.88 1858.51 L4015.88 1841.15 Z" fill="#000000" fill-rule="nonzero" fill-opacity="1" /><path clip-path="url(#clip780)" d="M4056 1844.23 Q4052.38 1844.23 4050.56 1847.8 Q4048.75 1851.34 4048.75 1858.47 Q4048.75 1865.58 4050.56 1869.14 Q4052.38 1872.68 4056 1872.68 Q4059.63 1872.68 4061.44 1869.14 Q4063.26 1865.58 4063.26 1858.47 Q4063.26 1851.34 4061.44 1847.8 Q4059.63 1844.23 4056 1844.23 M4056 1840.53 Q4061.81 1840.53 4064.86 1845.14 Q4067.94 1849.72 4067.94 1858.47 Q4067.94 1867.2 4064.86 1871.8 Q4061.81 1876.39 4056 1876.39 Q4050.19 1876.39 4047.11 1871.8 Q4044.05 1867.2 4044.05 1858.47 Q4044.05 1849.72 4047.11 1845.14 Q4050.19 1840.53 4056 1840.53 Z" fill="#000000" fill-rule="nonzero" fill-opacity="1" /><path clip-path="url(#clip780)" d="M4539.66 1841.15 L4561.88 1841.15 L4561.88 1843.14 L4549.34 1875.71 L4544.45 1875.71 L4556.26 1845.09 L4539.66 1845.09 L4539.66 1841.15 Z" fill="#000000" fill-rule="nonzero" fill-opacity="1" /><path clip-path="url(#clip780)" d="M4571.05 1841.15 L4589.41 1841.15 L4589.41 1845.09 L4575.33 1845.09 L4575.33 1853.56 Q4576.35 1853.21 4577.37 1853.05 Q4578.39 1852.87 4579.41 1852.87 Q4585.19 1852.87 4588.57 1856.04 Q4591.95 1859.21 4591.95 1864.63 Q4591.95 1870.2 4588.48 1873.31 Q4585.01 1876.39 4578.69 1876.39 Q4576.51 1876.39 4574.24 1876.01 Q4572 1875.64 4569.59 1874.9 L4569.59 1870.2 Q4571.67 1871.34 4573.9 1871.89 Q4576.12 1872.45 4578.6 1872.45 Q4582.6 1872.45 4584.94 1870.34 Q4587.28 1868.24 4587.28 1864.63 Q4587.28 1861.01 4584.94 1858.91 Q4582.6 1856.8 4578.6 1856.8 Q4576.72 1856.8 4574.85 1857.22 Q4572.99 1857.64 4571.05 1858.51 L4571.05 1841.15 Z" fill="#000000" fill-rule="nonzero" fill-opacity="1" /><path clip-path="url(#clip780)" d="M5050.04 1871.78 L5057.68 1871.78 L5057.68 1845.41 L5049.37 1847.08 L5049.37 1842.82 L5057.63 1841.15 L5062.31 1841.15 L5062.31 1871.78 L5069.94 1871.78 L5069.94 1875.71 L5050.04 1875.71 L5050.04 1871.78 Z" fill="#000000" fill-rule="nonzero" fill-opacity="1" /><path clip-path="url(#clip780)" d="M5089.39 1844.23 Q5085.78 1844.23 5083.95 1847.8 Q5082.14 1851.34 5082.14 1858.47 Q5082.14 1865.58 5083.95 1869.14 Q5085.78 1872.68 5089.39 1872.68 Q5093.02 1872.68 5094.83 1869.14 Q5096.66 1865.58 5096.66 1858.47 Q5096.66 1851.34 5094.83 1847.8 Q5093.02 1844.23 5089.39 1844.23 M5089.39 1840.53 Q5095.2 1840.53 5098.25 1845.14 Q5101.33 1849.72 5101.33 1858.47 Q5101.33 1867.2 5098.25 1871.8 Q5095.2 1876.39 5089.39 1876.39 Q5083.58 1876.39 5080.5 1871.8 Q5077.44 1867.2 5077.44 1858.47 Q5077.44 1849.72 5080.5 1845.14 Q5083.58 1840.53 5089.39 1840.53 Z" fill="#000000" fill-rule="nonzero" fill-opacity="1" /><path clip-path="url(#clip780)" d="M5119.55 1844.23 Q5115.94 1844.23 5114.11 1847.8 Q5112.31 1851.34 5112.31 1858.47 Q5112.31 1865.58 5114.11 1869.14 Q5115.94 1872.68 5119.55 1872.68 Q5123.18 1872.68 5124.99 1869.14 Q5126.82 1865.58 5126.82 1858.47 Q5126.82 1851.34 5124.99 1847.8 Q5123.18 1844.23 5119.55 1844.23 M5119.55 1840.53 Q5125.36 1840.53 5128.42 1845.14 Q5131.5 1849.72 5131.5 1858.47 Q5131.5 1867.2 5128.42 1871.8 Q5125.36 1876.39 5119.55 1876.39 Q5113.74 1876.39 5110.66 1871.8 Q5107.61 1867.2 5107.61 1858.47 Q5107.61 1849.72 5110.66 1845.14 Q5113.74 1840.53 5119.55 1840.53 Z" fill="#000000" fill-rule="nonzero" fill-opacity="1" /><path clip-path="url(#clip780)" d="M3990.83 1932.01 L3990.83 1942.13 L4002.9 1942.13 L4002.9 1946.68 L3990.83 1946.68 L3990.83 1966.03 Q3990.83 1970.39 3992.01 1971.63 Q3993.22 1972.88 3996.88 1972.88 L4002.9 1972.88 L4002.9 1977.78 L3996.88 1977.78 Q3990.1 1977.78 3987.52 1975.26 Q3984.95 1972.72 3984.95 1966.03 L3984.95 1946.68 L3980.65 1946.68 L3980.65 1942.13 L3984.95 1942.13 L3984.95 1932.01 L3990.83 1932.01 Z" fill="#000000" fill-rule="nonzero" fill-opacity="1" /><path clip-path="url(#clip780)" d="M4010.6 1942.13 L4016.46 1942.13 L4016.46 1977.78 L4010.6 1977.78 L4010.6 1942.13 M4010.6 1928.25 L4016.46 1928.25 L4016.46 1935.67 L4010.6 1935.67 L4010.6 1928.25 Z" fill="#000000" fill-rule="nonzero" fill-opacity="1" /><path clip-path="url(#clip780)" d="M4056.46 1948.97 Q4058.66 1945.03 4061.72 1943.15 Q4064.77 1941.27 4068.91 1941.27 Q4074.48 1941.27 4077.5 1945.19 Q4080.53 1949.07 4080.53 1956.26 L4080.53 1977.78 L4074.64 1977.78 L4074.64 1956.45 Q4074.64 1951.33 4072.82 1948.85 Q4071.01 1946.36 4067.29 1946.36 Q4062.73 1946.36 4060.09 1949.39 Q4057.45 1952.41 4057.45 1957.63 L4057.45 1977.78 L4051.56 1977.78 L4051.56 1956.45 Q4051.56 1951.3 4049.75 1948.85 Q4047.93 1946.36 4044.15 1946.36 Q4039.66 1946.36 4037.02 1949.42 Q4034.37 1952.44 4034.37 1957.63 L4034.37 1977.78 L4028.49 1977.78 L4028.49 1942.13 L4034.37 1942.13 L4034.37 1947.67 Q4036.38 1944.39 4039.18 1942.83 Q4041.98 1941.27 4045.83 1941.27 Q4049.72 1941.27 4052.42 1943.24 Q4055.16 1945.22 4056.46 1948.97 Z" fill="#000000" fill-rule="nonzero" fill-opacity="1" /><path clip-path="url(#clip780)" d="M4122.7 1958.49 L4122.7 1961.35 L4095.77 1961.35 Q4096.15 1967.4 4099.4 1970.58 Q4102.68 1973.74 4108.5 1973.74 Q4111.88 1973.74 4115.03 1972.91 Q4118.21 1972.08 4121.33 1970.43 L4121.33 1975.96 Q4118.18 1977.3 4114.87 1978 Q4111.56 1978.7 4108.15 1978.7 Q4099.62 1978.7 4094.63 1973.74 Q4089.66 1968.77 4089.66 1960.3 Q4089.66 1951.55 4094.37 1946.43 Q4099.11 1941.27 4107.13 1941.27 Q4114.33 1941.27 4118.5 1945.92 Q4122.7 1950.53 4122.7 1958.49 M4116.84 1956.77 Q4116.78 1951.96 4114.14 1949.1 Q4111.53 1946.24 4107.2 1946.24 Q4102.3 1946.24 4099.34 1949 Q4096.41 1951.77 4095.96 1956.8 L4116.84 1956.77 Z" fill="#000000" fill-rule="nonzero" fill-opacity="1" /><polyline clip-path="url(#clip783)" style="stroke:#000000; stroke-linecap:round; stroke-linejoin:round; stroke-width:2; stroke-opacity:0.1; fill:none" points="2950.59,1687.73 5152.76,1687.73 "/>
<polyline clip-path="url(#clip783)" style="stroke:#000000; stroke-linecap:round; stroke-linejoin:round; stroke-width:2; stroke-opacity:0.1; fill:none" points="2950.59,1439.8 5152.76,1439.8 "/>
<polyline clip-path="url(#clip783)" style="stroke:#000000; stroke-linecap:round; stroke-linejoin:round; stroke-width:2; stroke-opacity:0.1; fill:none" points="2950.59,1191.87 5152.76,1191.87 "/>
<polyline clip-path="url(#clip783)" style="stroke:#000000; stroke-linecap:round; stroke-linejoin:round; stroke-width:2; stroke-opacity:0.1; fill:none" points="2950.59,943.938 5152.76,943.938 "/>
<polyline clip-path="url(#clip783)" style="stroke:#000000; stroke-linecap:round; stroke-linejoin:round; stroke-width:2; stroke-opacity:0.1; fill:none" points="2950.59,696.006 5152.76,696.006 "/>
<polyline clip-path="url(#clip783)" style="stroke:#000000; stroke-linecap:round; stroke-linejoin:round; stroke-width:2; stroke-opacity:0.1; fill:none" points="2950.59,448.074 5152.76,448.074 "/>
<polyline clip-path="url(#clip783)" style="stroke:#000000; stroke-linecap:round; stroke-linejoin:round; stroke-width:2; stroke-opacity:0.1; fill:none" points="2950.59,200.142 5152.76,200.142 "/>
<polyline clip-path="url(#clip780)" style="stroke:#000000; stroke-linecap:round; stroke-linejoin:round; stroke-width:4; stroke-opacity:1; fill:none" points="2950.59,1790.91 2950.59,97.8844 "/>
<polyline clip-path="url(#clip780)" style="stroke:#000000; stroke-linecap:round; stroke-linejoin:round; stroke-width:4; stroke-opacity:1; fill:none" points="2950.59,1687.73 2969.49,1687.73 "/>
<polyline clip-path="url(#clip780)" style="stroke:#000000; stroke-linecap:round; stroke-linejoin:round; stroke-width:4; stroke-opacity:1; fill:none" points="2950.59,1439.8 2969.49,1439.8 "/>
<polyline clip-path="url(#clip780)" style="stroke:#000000; stroke-linecap:round; stroke-linejoin:round; stroke-width:4; stroke-opacity:1; fill:none" points="2950.59,1191.87 2969.49,1191.87 "/>
<polyline clip-path="url(#clip780)" style="stroke:#000000; stroke-linecap:round; stroke-linejoin:round; stroke-width:4; stroke-opacity:1; fill:none" points="2950.59,943.938 2969.49,943.938 "/>
<polyline clip-path="url(#clip780)" style="stroke:#000000; stroke-linecap:round; stroke-linejoin:round; stroke-width:4; stroke-opacity:1; fill:none" points="2950.59,696.006 2969.49,696.006 "/>
<polyline clip-path="url(#clip780)" style="stroke:#000000; stroke-linecap:round; stroke-linejoin:round; stroke-width:4; stroke-opacity:1; fill:none" points="2950.59,448.074 2969.49,448.074 "/>
<polyline clip-path="url(#clip780)" style="stroke:#000000; stroke-linecap:round; stroke-linejoin:round; stroke-width:4; stroke-opacity:1; fill:none" points="2950.59,200.142 2969.49,200.142 "/>
<path clip-path="url(#clip780)" d="M2786.25 1673.53 Q2782.64 1673.53 2780.81 1677.1 Q2779 1680.64 2779 1687.77 Q2779 1694.87 2780.81 1698.44 Q2782.64 1701.98 2786.25 1701.98 Q2789.88 1701.98 2791.69 1698.44 Q2793.52 1694.87 2793.52 1687.77 Q2793.52 1680.64 2791.69 1677.1 Q2789.88 1673.53 2786.25 1673.53 M2786.25 1669.83 Q2792.06 1669.83 2795.11 1674.44 Q2798.19 1679.02 2798.19 1687.77 Q2798.19 1696.5 2795.11 1701.1 Q2792.06 1705.68 2786.25 1705.68 Q2780.44 1705.68 2777.36 1701.1 Q2774.3 1696.5 2774.3 1687.77 Q2774.3 1679.02 2777.36 1674.44 Q2780.44 1669.83 2786.25 1669.83 Z" fill="#000000" fill-rule="nonzero" fill-opacity="1" /><path clip-path="url(#clip780)" d="M2806.41 1699.13 L2811.3 1699.13 L2811.3 1705.01 L2806.41 1705.01 L2806.41 1699.13 Z" fill="#000000" fill-rule="nonzero" fill-opacity="1" /><path clip-path="url(#clip780)" d="M2835.65 1686.38 Q2839 1687.1 2840.88 1689.37 Q2842.78 1691.63 2842.78 1694.97 Q2842.78 1700.08 2839.26 1702.88 Q2835.74 1705.68 2829.26 1705.68 Q2827.08 1705.68 2824.77 1705.25 Q2822.48 1704.83 2820.02 1703.97 L2820.02 1699.46 Q2821.97 1700.59 2824.28 1701.17 Q2826.6 1701.75 2829.12 1701.75 Q2833.52 1701.75 2835.81 1700.01 Q2838.12 1698.28 2838.12 1694.97 Q2838.12 1691.91 2835.97 1690.2 Q2833.84 1688.46 2830.02 1688.46 L2825.99 1688.46 L2825.99 1684.62 L2830.21 1684.62 Q2833.66 1684.62 2835.49 1683.25 Q2837.31 1681.87 2837.31 1679.27 Q2837.31 1676.61 2835.42 1675.2 Q2833.54 1673.76 2830.02 1673.76 Q2828.1 1673.76 2825.9 1674.18 Q2823.7 1674.6 2821.06 1675.48 L2821.06 1671.31 Q2823.73 1670.57 2826.04 1670.2 Q2828.38 1669.83 2830.44 1669.83 Q2835.76 1669.83 2838.86 1672.26 Q2841.97 1674.67 2841.97 1678.79 Q2841.97 1681.66 2840.32 1683.65 Q2838.68 1685.62 2835.65 1686.38 Z" fill="#000000" fill-rule="nonzero" fill-opacity="1" /><path clip-path="url(#clip780)" d="M2851.69 1670.45 L2870.05 1670.45 L2870.05 1674.39 L2855.97 1674.39 L2855.97 1682.86 Q2856.99 1682.51 2858.01 1682.35 Q2859.03 1682.17 2860.05 1682.17 Q2865.83 1682.17 2869.21 1685.34 Q2872.59 1688.51 2872.59 1693.93 Q2872.59 1699.5 2869.12 1702.61 Q2865.65 1705.68 2859.33 1705.68 Q2857.15 1705.68 2854.88 1705.31 Q2852.64 1704.94 2850.23 1704.2 L2850.23 1699.5 Q2852.31 1700.64 2854.54 1701.19 Q2856.76 1701.75 2859.24 1701.75 Q2863.24 1701.75 2865.58 1699.64 Q2867.92 1697.54 2867.92 1693.93 Q2867.92 1690.31 2865.58 1688.21 Q2863.24 1686.1 2859.24 1686.1 Q2857.36 1686.1 2855.49 1686.52 Q2853.63 1686.94 2851.69 1687.81 L2851.69 1670.45 Z" fill="#000000" fill-rule="nonzero" fill-opacity="1" /><path clip-path="url(#clip780)" d="M2785.25 1425.6 Q2781.64 1425.6 2779.81 1429.17 Q2778.01 1432.71 2778.01 1439.84 Q2778.01 1446.94 2779.81 1450.51 Q2781.64 1454.05 2785.25 1454.05 Q2788.89 1454.05 2790.69 1450.51 Q2792.52 1446.94 2792.52 1439.84 Q2792.52 1432.71 2790.69 1429.17 Q2788.89 1425.6 2785.25 1425.6 M2785.25 1421.9 Q2791.06 1421.9 2794.12 1426.5 Q2797.2 1431.09 2797.2 1439.84 Q2797.2 1448.56 2794.12 1453.17 Q2791.06 1457.75 2785.25 1457.75 Q2779.44 1457.75 2776.37 1453.17 Q2773.31 1448.56 2773.31 1439.84 Q2773.31 1431.09 2776.37 1426.5 Q2779.44 1421.9 2785.25 1421.9 Z" fill="#000000" fill-rule="nonzero" fill-opacity="1" /><path clip-path="url(#clip780)" d="M2805.42 1451.2 L2810.3 1451.2 L2810.3 1457.08 L2805.42 1457.08 L2805.42 1451.2 Z" fill="#000000" fill-rule="nonzero" fill-opacity="1" /><path clip-path="url(#clip780)" d="M2833.33 1426.6 L2821.53 1445.04 L2833.33 1445.04 L2833.33 1426.6 M2832.11 1422.52 L2837.99 1422.52 L2837.99 1445.04 L2842.92 1445.04 L2842.92 1448.93 L2837.99 1448.93 L2837.99 1457.08 L2833.33 1457.08 L2833.33 1448.93 L2817.73 1448.93 L2817.73 1444.42 L2832.11 1422.52 Z" fill="#000000" fill-rule="nonzero" fill-opacity="1" /><path clip-path="url(#clip780)" d="M2860.65 1425.6 Q2857.04 1425.6 2855.21 1429.17 Q2853.4 1432.71 2853.4 1439.84 Q2853.4 1446.94 2855.21 1450.51 Q2857.04 1454.05 2860.65 1454.05 Q2864.28 1454.05 2866.09 1450.51 Q2867.92 1446.94 2867.92 1439.84 Q2867.92 1432.71 2866.09 1429.17 Q2864.28 1425.6 2860.65 1425.6 M2860.65 1421.9 Q2866.46 1421.9 2869.51 1426.5 Q2872.59 1431.09 2872.59 1439.84 Q2872.59 1448.56 2869.51 1453.17 Q2866.46 1457.75 2860.65 1457.75 Q2854.84 1457.75 2851.76 1453.17 Q2848.7 1448.56 2848.7 1439.84 Q2848.7 1431.09 2851.76 1426.5 Q2854.84 1421.9 2860.65 1421.9 Z" fill="#000000" fill-rule="nonzero" fill-opacity="1" /><path clip-path="url(#clip780)" d="M2786.25 1177.67 Q2782.64 1177.67 2780.81 1181.23 Q2779 1184.77 2779 1191.9 Q2779 1199.01 2780.81 1202.58 Q2782.64 1206.12 2786.25 1206.12 Q2789.88 1206.12 2791.69 1202.58 Q2793.52 1199.01 2793.52 1191.9 Q2793.52 1184.77 2791.69 1181.23 Q2789.88 1177.67 2786.25 1177.67 M2786.25 1173.96 Q2792.06 1173.96 2795.11 1178.57 Q2798.19 1183.15 2798.19 1191.9 Q2798.19 1200.63 2795.11 1205.24 Q2792.06 1209.82 2786.25 1209.82 Q2780.44 1209.82 2777.36 1205.24 Q2774.3 1200.63 2774.3 1191.9 Q2774.3 1183.15 2777.36 1178.57 Q2780.44 1173.96 2786.25 1173.96 Z" fill="#000000" fill-rule="nonzero" fill-opacity="1" /><path clip-path="url(#clip780)" d="M2806.41 1203.27 L2811.3 1203.27 L2811.3 1209.15 L2806.41 1209.15 L2806.41 1203.27 Z" fill="#000000" fill-rule="nonzero" fill-opacity="1" /><path clip-path="url(#clip780)" d="M2834.33 1178.66 L2822.52 1197.11 L2834.33 1197.11 L2834.33 1178.66 M2833.1 1174.59 L2838.98 1174.59 L2838.98 1197.11 L2843.91 1197.11 L2843.91 1201 L2838.98 1201 L2838.98 1209.15 L2834.33 1209.15 L2834.33 1201 L2818.73 1201 L2818.73 1196.49 L2833.1 1174.59 Z" fill="#000000" fill-rule="nonzero" fill-opacity="1" /><path clip-path="url(#clip780)" d="M2851.69 1174.59 L2870.05 1174.59 L2870.05 1178.52 L2855.97 1178.52 L2855.97 1187 Q2856.99 1186.65 2858.01 1186.49 Q2859.03 1186.3 2860.05 1186.3 Q2865.83 1186.3 2869.21 1189.47 Q2872.59 1192.65 2872.59 1198.06 Q2872.59 1203.64 2869.12 1206.74 Q2865.65 1209.82 2859.33 1209.82 Q2857.15 1209.82 2854.88 1209.45 Q2852.64 1209.08 2850.23 1208.34 L2850.23 1203.64 Q2852.31 1204.77 2854.54 1205.33 Q2856.76 1205.89 2859.24 1205.89 Q2863.24 1205.89 2865.58 1203.78 Q2867.92 1201.67 2867.92 1198.06 Q2867.92 1194.45 2865.58 1192.34 Q2863.24 1190.24 2859.24 1190.24 Q2857.36 1190.24 2855.49 1190.65 Q2853.63 1191.07 2851.69 1191.95 L2851.69 1174.59 Z" fill="#000000" fill-rule="nonzero" fill-opacity="1" /><path clip-path="url(#clip780)" d="M2785.25 929.737 Q2781.64 929.737 2779.81 933.301 Q2778.01 936.843 2778.01 943.973 Q2778.01 951.079 2779.81 954.644 Q2781.64 958.185 2785.25 958.185 Q2788.89 958.185 2790.69 954.644 Q2792.52 951.079 2792.52 943.973 Q2792.52 936.843 2790.69 933.301 Q2788.89 929.737 2785.25 929.737 M2785.25 926.033 Q2791.06 926.033 2794.12 930.639 Q2797.2 935.223 2797.2 943.973 Q2797.2 952.699 2794.12 957.306 Q2791.06 961.889 2785.25 961.889 Q2779.44 961.889 2776.37 957.306 Q2773.31 952.699 2773.31 943.973 Q2773.31 935.223 2776.37 930.639 Q2779.44 926.033 2785.25 926.033 Z" fill="#000000" fill-rule="nonzero" fill-opacity="1" /><path clip-path="url(#clip780)" d="M2805.42 955.338 L2810.3 955.338 L2810.3 961.218 L2805.42 961.218 L2805.42 955.338 Z" fill="#000000" fill-rule="nonzero" fill-opacity="1" /><path clip-path="url(#clip780)" d="M2820.53 926.658 L2838.89 926.658 L2838.89 930.593 L2824.81 930.593 L2824.81 939.065 Q2825.83 938.718 2826.85 938.556 Q2827.87 938.371 2828.89 938.371 Q2834.67 938.371 2838.05 941.542 Q2841.43 944.713 2841.43 950.13 Q2841.43 955.709 2837.96 958.81 Q2834.49 961.889 2828.17 961.889 Q2825.99 961.889 2823.73 961.519 Q2821.48 961.148 2819.07 960.408 L2819.07 955.709 Q2821.16 956.843 2823.38 957.398 Q2825.6 957.954 2828.08 957.954 Q2832.08 957.954 2834.42 955.847 Q2836.76 953.741 2836.76 950.13 Q2836.76 946.519 2834.42 944.412 Q2832.08 942.306 2828.08 942.306 Q2826.2 942.306 2824.33 942.723 Q2822.48 943.139 2820.53 944.019 L2820.53 926.658 Z" fill="#000000" fill-rule="nonzero" fill-opacity="1" /><path clip-path="url(#clip780)" d="M2860.65 929.737 Q2857.04 929.737 2855.21 933.301 Q2853.4 936.843 2853.4 943.973 Q2853.4 951.079 2855.21 954.644 Q2857.04 958.185 2860.65 958.185 Q2864.28 958.185 2866.09 954.644 Q2867.92 951.079 2867.92 943.973 Q2867.92 936.843 2866.09 933.301 Q2864.28 929.737 2860.65 929.737 M2860.65 926.033 Q2866.46 926.033 2869.51 930.639 Q2872.59 935.223 2872.59 943.973 Q2872.59 952.699 2869.51 957.306 Q2866.46 961.889 2860.65 961.889 Q2854.84 961.889 2851.76 957.306 Q2848.7 952.699 2848.7 943.973 Q2848.7 935.223 2851.76 930.639 Q2854.84 926.033 2860.65 926.033 Z" fill="#000000" fill-rule="nonzero" fill-opacity="1" /><path clip-path="url(#clip780)" d="M2786.25 681.805 Q2782.64 681.805 2780.81 685.369 Q2779 688.911 2779 696.041 Q2779 703.147 2780.81 706.712 Q2782.64 710.254 2786.25 710.254 Q2789.88 710.254 2791.69 706.712 Q2793.52 703.147 2793.52 696.041 Q2793.52 688.911 2791.69 685.369 Q2789.88 681.805 2786.25 681.805 M2786.25 678.101 Q2792.06 678.101 2795.11 682.707 Q2798.19 687.291 2798.19 696.041 Q2798.19 704.767 2795.11 709.374 Q2792.06 713.957 2786.25 713.957 Q2780.44 713.957 2777.36 709.374 Q2774.3 704.767 2774.3 696.041 Q2774.3 687.291 2777.36 682.707 Q2780.44 678.101 2786.25 678.101 Z" fill="#000000" fill-rule="nonzero" fill-opacity="1" /><path clip-path="url(#clip780)" d="M2806.41 707.406 L2811.3 707.406 L2811.3 713.286 L2806.41 713.286 L2806.41 707.406 Z" fill="#000000" fill-rule="nonzero" fill-opacity="1" /><path clip-path="url(#clip780)" d="M2821.53 678.726 L2839.88 678.726 L2839.88 682.661 L2825.81 682.661 L2825.81 691.133 Q2826.83 690.786 2827.85 690.624 Q2828.86 690.439 2829.88 690.439 Q2835.67 690.439 2839.05 693.61 Q2842.43 696.781 2842.43 702.198 Q2842.43 707.777 2838.96 710.879 Q2835.49 713.957 2829.17 713.957 Q2826.99 713.957 2824.72 713.587 Q2822.48 713.216 2820.07 712.476 L2820.07 707.777 Q2822.15 708.911 2824.37 709.466 Q2826.6 710.022 2829.07 710.022 Q2833.08 710.022 2835.42 707.916 Q2837.75 705.809 2837.75 702.198 Q2837.75 698.587 2835.42 696.48 Q2833.08 694.374 2829.07 694.374 Q2827.2 694.374 2825.32 694.791 Q2823.47 695.207 2821.53 696.087 L2821.53 678.726 Z" fill="#000000" fill-rule="nonzero" fill-opacity="1" /><path clip-path="url(#clip780)" d="M2851.69 678.726 L2870.05 678.726 L2870.05 682.661 L2855.97 682.661 L2855.97 691.133 Q2856.99 690.786 2858.01 690.624 Q2859.03 690.439 2860.05 690.439 Q2865.83 690.439 2869.21 693.61 Q2872.59 696.781 2872.59 702.198 Q2872.59 707.777 2869.12 710.879 Q2865.65 713.957 2859.33 713.957 Q2857.15 713.957 2854.88 713.587 Q2852.64 713.216 2850.23 712.476 L2850.23 707.777 Q2852.31 708.911 2854.54 709.466 Q2856.76 710.022 2859.24 710.022 Q2863.24 710.022 2865.58 707.916 Q2867.92 705.809 2867.92 702.198 Q2867.92 698.587 2865.58 696.48 Q2863.24 694.374 2859.24 694.374 Q2857.36 694.374 2855.49 694.791 Q2853.63 695.207 2851.69 696.087 L2851.69 678.726 Z" fill="#000000" fill-rule="nonzero" fill-opacity="1" /><path clip-path="url(#clip780)" d="M2785.25 433.873 Q2781.64 433.873 2779.81 437.437 Q2778.01 440.979 2778.01 448.109 Q2778.01 455.215 2779.81 458.78 Q2781.64 462.322 2785.25 462.322 Q2788.89 462.322 2790.69 458.78 Q2792.52 455.215 2792.52 448.109 Q2792.52 440.979 2790.69 437.437 Q2788.89 433.873 2785.25 433.873 M2785.25 430.169 Q2791.06 430.169 2794.12 434.775 Q2797.2 439.359 2797.2 448.109 Q2797.2 456.836 2794.12 461.442 Q2791.06 466.025 2785.25 466.025 Q2779.44 466.025 2776.37 461.442 Q2773.31 456.836 2773.31 448.109 Q2773.31 439.359 2776.37 434.775 Q2779.44 430.169 2785.25 430.169 Z" fill="#000000" fill-rule="nonzero" fill-opacity="1" /><path clip-path="url(#clip780)" d="M2805.42 459.474 L2810.3 459.474 L2810.3 465.354 L2805.42 465.354 L2805.42 459.474 Z" fill="#000000" fill-rule="nonzero" fill-opacity="1" /><path clip-path="url(#clip780)" d="M2831.06 446.211 Q2827.92 446.211 2826.06 448.363 Q2824.24 450.516 2824.24 454.266 Q2824.24 457.993 2826.06 460.169 Q2827.92 462.322 2831.06 462.322 Q2834.21 462.322 2836.04 460.169 Q2837.89 457.993 2837.89 454.266 Q2837.89 450.516 2836.04 448.363 Q2834.21 446.211 2831.06 446.211 M2840.35 431.558 L2840.35 435.817 Q2838.59 434.984 2836.78 434.544 Q2835 434.104 2833.24 434.104 Q2828.61 434.104 2826.16 437.229 Q2823.73 440.354 2823.38 446.674 Q2824.74 444.66 2826.8 443.595 Q2828.86 442.507 2831.34 442.507 Q2836.55 442.507 2839.56 445.678 Q2842.59 448.826 2842.59 454.266 Q2842.59 459.59 2839.44 462.808 Q2836.3 466.025 2831.06 466.025 Q2825.07 466.025 2821.9 461.442 Q2818.73 456.836 2818.73 448.109 Q2818.73 439.914 2822.61 435.053 Q2826.5 430.169 2833.05 430.169 Q2834.81 430.169 2836.6 430.516 Q2838.4 430.863 2840.35 431.558 Z" fill="#000000" fill-rule="nonzero" fill-opacity="1" /><path clip-path="url(#clip780)" d="M2860.65 433.873 Q2857.04 433.873 2855.21 437.437 Q2853.4 440.979 2853.4 448.109 Q2853.4 455.215 2855.21 458.78 Q2857.04 462.322 2860.65 462.322 Q2864.28 462.322 2866.09 458.78 Q2867.92 455.215 2867.92 448.109 Q2867.92 440.979 2866.09 437.437 Q2864.28 433.873 2860.65 433.873 M2860.65 430.169 Q2866.46 430.169 2869.51 434.775 Q2872.59 439.359 2872.59 448.109 Q2872.59 456.836 2869.51 461.442 Q2866.46 466.025 2860.65 466.025 Q2854.84 466.025 2851.76 461.442 Q2848.7 456.836 2848.7 448.109 Q2848.7 439.359 2851.76 434.775 Q2854.84 430.169 2860.65 430.169 Z" fill="#000000" fill-rule="nonzero" fill-opacity="1" /><path clip-path="url(#clip780)" d="M2786.25 185.941 Q2782.64 185.941 2780.81 189.506 Q2779 193.047 2779 200.177 Q2779 207.283 2780.81 210.848 Q2782.64 214.39 2786.25 214.39 Q2789.88 214.39 2791.69 210.848 Q2793.52 207.283 2793.52 200.177 Q2793.52 193.047 2791.69 189.506 Q2789.88 185.941 2786.25 185.941 M2786.25 182.237 Q2792.06 182.237 2795.11 186.844 Q2798.19 191.427 2798.19 200.177 Q2798.19 208.904 2795.11 213.51 Q2792.06 218.093 2786.25 218.093 Q2780.44 218.093 2777.36 213.51 Q2774.3 208.904 2774.3 200.177 Q2774.3 191.427 2777.36 186.844 Q2780.44 182.237 2786.25 182.237 Z" fill="#000000" fill-rule="nonzero" fill-opacity="1" /><path clip-path="url(#clip780)" d="M2806.41 211.542 L2811.3 211.542 L2811.3 217.422 L2806.41 217.422 L2806.41 211.542 Z" fill="#000000" fill-rule="nonzero" fill-opacity="1" /><path clip-path="url(#clip780)" d="M2832.06 198.279 Q2828.91 198.279 2827.06 200.431 Q2825.23 202.584 2825.23 206.334 Q2825.23 210.061 2827.06 212.237 Q2828.91 214.39 2832.06 214.39 Q2835.21 214.39 2837.04 212.237 Q2838.89 210.061 2838.89 206.334 Q2838.89 202.584 2837.04 200.431 Q2835.21 198.279 2832.06 198.279 M2841.34 183.626 L2841.34 187.885 Q2839.58 187.052 2837.78 186.612 Q2835.99 186.172 2834.24 186.172 Q2829.61 186.172 2827.15 189.297 Q2824.72 192.422 2824.37 198.742 Q2825.74 196.728 2827.8 195.663 Q2829.86 194.575 2832.34 194.575 Q2837.55 194.575 2840.55 197.746 Q2843.59 200.894 2843.59 206.334 Q2843.59 211.658 2840.44 214.876 Q2837.29 218.093 2832.06 218.093 Q2826.06 218.093 2822.89 213.51 Q2819.72 208.904 2819.72 200.177 Q2819.72 191.982 2823.61 187.121 Q2827.5 182.237 2834.05 182.237 Q2835.81 182.237 2837.59 182.584 Q2839.4 182.931 2841.34 183.626 Z" fill="#000000" fill-rule="nonzero" fill-opacity="1" /><path clip-path="url(#clip780)" d="M2851.69 182.862 L2870.05 182.862 L2870.05 186.797 L2855.97 186.797 L2855.97 195.269 Q2856.99 194.922 2858.01 194.76 Q2859.03 194.575 2860.05 194.575 Q2865.83 194.575 2869.21 197.746 Q2872.59 200.918 2872.59 206.334 Q2872.59 211.913 2869.12 215.015 Q2865.65 218.093 2859.33 218.093 Q2857.15 218.093 2854.88 217.723 Q2852.64 217.353 2850.23 216.612 L2850.23 211.913 Q2852.31 213.047 2854.54 213.603 Q2856.76 214.158 2859.24 214.158 Q2863.24 214.158 2865.58 212.052 Q2867.92 209.945 2867.92 206.334 Q2867.92 202.723 2865.58 200.617 Q2863.24 198.51 2859.24 198.51 Q2857.36 198.51 2855.49 198.927 Q2853.63 199.343 2851.69 200.223 L2851.69 182.862 Z" fill="#000000" fill-rule="nonzero" fill-opacity="1" /><path clip-path="url(#clip780)" d="M2645.41 927.785 L2662.75 940.675 L2681.05 927.116 L2681.05 934.023 L2667.05 944.399 L2681.05 954.775 L2681.05 961.682 L2662.4 947.837 L2645.41 960.504 L2645.41 953.598 L2658.11 944.145 L2645.41 934.691 L2645.41 927.785 Z" fill="#000000" fill-rule="nonzero" fill-opacity="1" /><path clip-path="url(#clip780)" d="M3831.39 16.7545 L3831.39 25.383 Q3827.25 21.5346 3822.55 19.6307 Q3817.9 17.7268 3812.63 17.7268 Q3802.26 17.7268 3796.75 24.0867 Q3791.24 30.4061 3791.24 42.3968 Q3791.24 54.3469 3796.75 60.7069 Q3802.26 67.0263 3812.63 67.0263 Q3817.9 67.0263 3822.55 65.1223 Q3827.25 63.2184 3831.39 59.3701 L3831.39 67.9175 Q3827.09 70.8341 3822.27 72.2924 Q3817.49 73.7508 3812.14 73.7508 Q3798.41 73.7508 3790.51 65.3654 Q3782.61 56.9395 3782.61 42.3968 Q3782.61 27.8135 3790.51 19.4281 Q3798.41 11.0023 3812.14 11.0023 Q3817.57 11.0023 3822.35 12.4606 Q3827.17 13.8784 3831.39 16.7545 Z" fill="#000000" fill-rule="nonzero" fill-opacity="1" /><path clip-path="url(#clip780)" d="M3843.7 9.54393 L3851.15 9.54393 L3851.15 72.576 L3843.7 72.576 L3843.7 9.54393 Z" fill="#000000" fill-rule="nonzero" fill-opacity="1" /><path clip-path="url(#clip780)" d="M3887.37 49.7694 Q3878.34 49.7694 3874.85 51.8354 Q3871.37 53.9013 3871.37 58.8839 Q3871.37 62.8538 3873.96 65.2034 Q3876.59 67.5124 3881.09 67.5124 Q3887.29 67.5124 3891.01 63.1374 Q3894.78 58.7219 3894.78 51.4303 L3894.78 49.7694 L3887.37 49.7694 M3902.24 46.6907 L3902.24 72.576 L3894.78 72.576 L3894.78 65.6895 Q3892.23 69.8214 3888.42 71.8063 Q3884.61 73.7508 3879.11 73.7508 Q3872.14 73.7508 3868.01 69.8619 Q3863.91 65.9325 3863.91 59.3701 Q3863.91 51.7138 3869.02 47.825 Q3874.16 43.9361 3884.33 43.9361 L3894.78 43.9361 L3894.78 43.2069 Q3894.78 38.0623 3891.38 35.2672 Q3888.02 32.4315 3881.9 32.4315 Q3878.01 32.4315 3874.33 33.3632 Q3870.64 34.295 3867.24 36.1584 L3867.24 29.2718 Q3871.33 27.692 3875.18 26.9223 Q3879.02 26.1121 3882.67 26.1121 Q3892.51 26.1121 3897.37 31.2163 Q3902.24 36.3204 3902.24 46.6907 Z" fill="#000000" fill-rule="nonzero" fill-opacity="1" /><path clip-path="url(#clip780)" d="M3946.51 28.5427 L3946.51 35.5912 Q3943.35 33.9709 3939.95 33.1607 Q3936.55 32.3505 3932.9 32.3505 Q3927.35 32.3505 3924.56 34.0519 Q3921.8 35.7533 3921.8 39.156 Q3921.8 41.7486 3923.79 43.2475 Q3925.77 44.7058 3931.77 46.0426 L3934.32 46.6097 Q3942.26 48.3111 3945.58 51.4303 Q3948.94 54.509 3948.94 60.0587 Q3948.94 66.3781 3943.92 70.0644 Q3938.94 73.7508 3930.19 73.7508 Q3926.54 73.7508 3922.57 73.0216 Q3918.64 72.3329 3914.27 70.9151 L3914.27 63.2184 Q3918.4 65.3654 3922.41 66.4591 Q3926.42 67.5124 3930.35 67.5124 Q3935.62 67.5124 3938.45 65.73 Q3941.29 63.9071 3941.29 60.6258 Q3941.29 57.5877 3939.22 55.9673 Q3937.2 54.3469 3930.27 52.8481 L3927.68 52.2405 Q3920.75 50.7821 3917.67 47.7845 Q3914.59 44.7463 3914.59 39.4801 Q3914.59 33.0797 3919.13 29.5959 Q3923.67 26.1121 3932.01 26.1121 Q3936.14 26.1121 3939.79 26.7198 Q3943.43 27.3274 3946.51 28.5427 Z" fill="#000000" fill-rule="nonzero" fill-opacity="1" /><path clip-path="url(#clip780)" d="M3989.74 28.5427 L3989.74 35.5912 Q3986.58 33.9709 3983.17 33.1607 Q3979.77 32.3505 3976.12 32.3505 Q3970.57 32.3505 3967.78 34.0519 Q3965.02 35.7533 3965.02 39.156 Q3965.02 41.7486 3967.01 43.2475 Q3968.99 44.7058 3974.99 46.0426 L3977.54 46.6097 Q3985.48 48.3111 3988.8 51.4303 Q3992.17 54.509 3992.17 60.0587 Q3992.17 66.3781 3987.14 70.0644 Q3982.16 73.7508 3973.41 73.7508 Q3969.76 73.7508 3965.79 73.0216 Q3961.87 72.3329 3957.49 70.9151 L3957.49 63.2184 Q3961.62 65.3654 3965.63 66.4591 Q3969.64 67.5124 3973.57 67.5124 Q3978.84 67.5124 3981.67 65.73 Q3984.51 63.9071 3984.51 60.6258 Q3984.51 57.5877 3982.44 55.9673 Q3980.42 54.3469 3973.49 52.8481 L3970.9 52.2405 Q3963.97 50.7821 3960.89 47.7845 Q3957.81 44.7463 3957.81 39.4801 Q3957.81 33.0797 3962.35 29.5959 Q3966.89 26.1121 3975.23 26.1121 Q3979.37 26.1121 3983.01 26.7198 Q3986.66 27.3274 3989.74 28.5427 Z" fill="#000000" fill-rule="nonzero" fill-opacity="1" /><path clip-path="url(#clip780)" d="M4032.88 65.6895 L4046.25 65.6895 L4046.25 19.5497 L4031.7 22.4663 L4031.7 15.0127 L4046.16 12.096 L4054.35 12.096 L4054.35 65.6895 L4067.72 65.6895 L4067.72 72.576 L4032.88 72.576 L4032.88 65.6895 Z" fill="#000000" fill-rule="nonzero" fill-opacity="1" /><path clip-path="url(#clip780)" d="M4109.89 12.096 L4122.08 12.096 L4137.51 53.2532 L4153.03 12.096 L4165.22 12.096 L4165.22 72.576 L4157.24 72.576 L4157.24 19.4686 L4141.64 60.9499 L4133.42 60.9499 L4117.82 19.4686 L4117.82 72.576 L4109.89 72.576 L4109.89 12.096 Z" fill="#000000" fill-rule="nonzero" fill-opacity="1" /><path clip-path="url(#clip780)" d="M4219.95 48.0275 L4219.95 51.6733 L4185.68 51.6733 Q4186.16 59.3701 4190.3 63.421 Q4194.47 67.4314 4201.88 67.4314 Q4206.18 67.4314 4210.19 66.3781 Q4214.24 65.3249 4218.21 63.2184 L4218.21 70.267 Q4214.2 71.9684 4209.98 72.8596 Q4205.77 73.7508 4201.44 73.7508 Q4190.58 73.7508 4184.22 67.4314 Q4177.9 61.1119 4177.9 50.3365 Q4177.9 39.1965 4183.9 32.6746 Q4189.93 26.1121 4200.14 26.1121 Q4209.29 26.1121 4214.6 32.0264 Q4219.95 37.9003 4219.95 48.0275 M4212.49 45.84 Q4212.41 39.7232 4209.05 36.0774 Q4205.73 32.4315 4200.22 32.4315 Q4193.98 32.4315 4190.21 35.9558 Q4186.49 39.4801 4185.92 45.8805 L4212.49 45.84 Z" fill="#000000" fill-rule="nonzero" fill-opacity="1" /><path clip-path="url(#clip780)" d="M4252.8 49.7694 Q4243.77 49.7694 4240.28 51.8354 Q4236.8 53.9013 4236.8 58.8839 Q4236.8 62.8538 4239.39 65.2034 Q4242.03 67.5124 4246.52 67.5124 Q4252.72 67.5124 4256.45 63.1374 Q4260.21 58.7219 4260.21 51.4303 L4260.21 49.7694 L4252.8 49.7694 M4267.67 46.6907 L4267.67 72.576 L4260.21 72.576 L4260.21 65.6895 Q4257.66 69.8214 4253.85 71.8063 Q4250.05 73.7508 4244.54 73.7508 Q4237.57 73.7508 4233.44 69.8619 Q4229.35 65.9325 4229.35 59.3701 Q4229.35 51.7138 4234.45 47.825 Q4239.6 43.9361 4249.76 43.9361 L4260.21 43.9361 L4260.21 43.2069 Q4260.21 38.0623 4256.81 35.2672 Q4253.45 32.4315 4247.33 32.4315 Q4243.44 32.4315 4239.76 33.3632 Q4236.07 34.295 4232.67 36.1584 L4232.67 29.2718 Q4236.76 27.692 4240.61 26.9223 Q4244.46 26.1121 4248.1 26.1121 Q4257.95 26.1121 4262.81 31.2163 Q4267.67 36.3204 4267.67 46.6907 Z" fill="#000000" fill-rule="nonzero" fill-opacity="1" /><path clip-path="url(#clip780)" d="M4320.73 45.1919 L4320.73 72.576 L4313.28 72.576 L4313.28 45.4349 Q4313.28 38.994 4310.77 35.7938 Q4308.26 32.5936 4303.23 32.5936 Q4297.2 32.5936 4293.72 36.4419 Q4290.23 40.2903 4290.23 46.9338 L4290.23 72.576 L4282.74 72.576 L4282.74 27.2059 L4290.23 27.2059 L4290.23 34.2544 Q4292.91 30.163 4296.51 28.1376 Q4300.16 26.1121 4304.9 26.1121 Q4312.71 26.1121 4316.72 30.9732 Q4320.73 35.7938 4320.73 45.1919 Z" fill="#000000" fill-rule="nonzero" fill-opacity="1" /><path clip-path="url(#clip783)" d="M3012.92 1740.74 L3033.9 1739.91 L3054.89 1738.94 L3075.87 1737.45 L3096.86 1735.75 L3117.84 1734.59 L3138.83 1734.5 L3159.81 1735.33 L3180.8 1736.43 L3201.78 1737.31 L3222.77 1738.19 L3243.75 1739.55 L3264.74 1741.26 L3285.72 1742.62 L3306.71 1743 L3327.69 1742.34 L3348.68 1741.25 L3369.66 1740.31 L3390.65 1739.48 L3411.63 1738.26 L3432.62 1736.58 L3453.6 1735.06 L3474.59 1734.4 L3495.57 1734.84 L3516.56 1735.89 L3537.54 1736.9 L3558.53 1737.71 L3579.51 1738.8 L3600.5 1740.4 L3621.48 1742.04 L3642.47 1742.95 L3663.45 1742.77 L3684.44 1741.8 L3705.42 1740.74 L3726.41 1739.91 L3747.39 1738.94 L3768.38 1737.45 L3789.36 1735.75 L3810.35 1734.59 L3831.33 1734.5 L3852.32 1735.33 L3873.3 1736.43 L3894.29 1737.31 L3915.27 1738.19 L3936.26 1739.55 L3957.24 1741.26 L3978.23 1742.62 L3999.21 1743 L4020.2 1742.34 L4041.18 1741.25 L4062.17 1740.31 L4083.15 1739.48 L4104.14 1738.26 L4125.12 1736.58 L4146.11 1735.06 L4167.09 1734.4 L4188.08 1734.84 L4209.06 1735.89 L4230.05 1736.9 L4251.03 1737.71 L4272.02 1738.8 L4293 1740.4 L4313.99 1742.04 L4334.97 1742.95 L4355.96 1742.77 L4376.94 1741.8 L4397.93 1740.74 L4418.91 1739.91 L4439.9 1738.94 L4460.88 1737.45 L4481.87 1735.75 L4502.85 1734.59 L4523.84 1734.5 L4544.82 1735.33 L4565.81 1736.43 L4586.79 1737.31 L4607.78 1738.19 L4628.76 1739.55 L4649.75 1741.26 L4670.73 1742.62 L4691.72 1743 L4712.7 1742.34 L4733.69 1741.25 L4754.67 1740.31 L4775.66 1739.48 L4796.64 1738.26 L4817.63 1736.58 L4838.61 1735.06 L4859.6 1734.4 L4880.58 1734.84 L4901.57 1735.89 L4922.55 1736.9 L4943.54 1737.71 L4964.52 1738.8 L4985.51 1740.4 L5006.49 1742.04 L5027.48 1742.95 L5048.46 1742.77 L5069.45 1741.8 L5090.43 1740.74 L5090.43 152.141 L5069.45 153.202 L5048.46 154.171 L5027.48 154.352 L5006.49 153.433 L4985.51 151.793 L4964.52 150.193 L4943.54 149.109 L4922.55 148.292 L4901.57 147.288 L4880.58 146.233 L4859.6 145.8 L4838.61 146.454 L4817.63 147.98 L4796.64 149.657 L4775.66 150.874 L4754.67 151.706 L4733.69 152.646 L4712.7 153.742 L4691.72 154.395 L4670.73 154.022 L4649.75 152.658 L4628.76 150.942 L4607.78 149.586 L4586.79 148.702 L4565.81 147.824 L4544.82 146.729 L4523.84 145.896 L4502.85 145.988 L4481.87 147.146 L4460.88 148.85 L4439.9 150.337 L4418.91 151.307 L4397.93 152.141 L4376.94 153.202 L4355.96 154.171 L4334.97 154.352 L4313.99 153.433 L4293 151.793 L4272.02 150.193 L4251.03 149.109 L4230.05 148.292 L4209.06 147.288 L4188.08 146.233 L4167.09 145.8 L4146.11 146.454 L4125.12 147.98 L4104.14 149.657 L4083.15 150.874 L4062.17 151.706 L4041.18 152.646 L4020.2 153.742 L3999.21 154.395 L3978.23 154.022 L3957.24 152.658 L3936.26 150.942 L3915.27 149.586 L3894.29 148.702 L3873.3 147.824 L3852.32 146.729 L3831.33 145.896 L3810.35 145.988 L3789.36 147.146 L3768.38 148.85 L3747.39 150.337 L3726.41 151.307 L3705.42 152.141 L3684.44 153.202 L3663.45 154.171 L3642.47 154.352 L3621.48 153.433 L3600.5 151.793 L3579.51 150.193 L3558.53 149.109 L3537.54 148.292 L3516.56 147.288 L3495.57 146.233 L3474.59 145.8 L3453.6 146.454 L3432.62 147.98 L3411.63 149.657 L3390.65 150.874 L3369.66 151.706 L3348.68 152.646 L3327.69 153.742 L3306.71 154.395 L3285.72 154.022 L3264.74 152.658 L3243.75 150.942 L3222.77 149.586 L3201.78 148.702 L3180.8 147.824 L3159.81 146.729 L3138.83 145.896 L3117.84 145.988 L3096.86 147.146 L3075.87 148.85 L3054.89 150.337 L3033.9 151.307 L3012.92 152.141  Z" fill="#009af9" fill-rule="evenodd" fill-opacity="0.5"/>
<polyline clip-path="url(#clip783)" style="stroke:#009af9; stroke-linecap:round; stroke-linejoin:round; stroke-width:8; stroke-opacity:1; fill:none" points="3012.92,946.443 3033.9,945.608 3054.89,944.639 3075.87,943.151 3096.86,941.448 3117.84,940.289 3138.83,940.197 3159.81,941.031 3180.8,942.125 3201.78,943.004 3222.77,943.888 3243.75,945.244 3264.74,946.959 3285.72,948.323 3306.71,948.697 3327.69,948.043 3348.68,946.947 3369.66,946.008 3390.65,945.176 3411.63,943.959 3432.62,942.281 3453.6,940.755 3474.59,940.102 3495.57,940.534 3516.56,941.589 3537.54,942.594 3558.53,943.41 3579.51,944.494 3600.5,946.094 3621.48,947.735 3642.47,948.653 3663.45,948.472 3684.44,947.504 3705.42,946.443 3726.41,945.608 3747.39,944.639 3768.38,943.151 3789.36,941.448 3810.35,940.289 3831.33,940.197 3852.32,941.031 3873.3,942.125 3894.29,943.004 3915.27,943.888 3936.26,945.244 3957.24,946.959 3978.23,948.323 3999.21,948.697 4020.2,948.043 4041.18,946.947 4062.17,946.008 4083.15,945.176 4104.14,943.959 4125.12,942.281 4146.11,940.755 4167.09,940.102 4188.08,940.534 4209.06,941.589 4230.05,942.594 4251.03,943.41 4272.02,944.494 4293,946.094 4313.99,947.735 4334.97,948.653 4355.96,948.472 4376.94,947.504 4397.93,946.443 4418.91,945.608 4439.9,944.639 4460.88,943.151 4481.87,941.448 4502.85,940.289 4523.84,940.197 4544.82,941.031 4565.81,942.125 4586.79,943.004 4607.78,943.888 4628.76,945.244 4649.75,946.959 4670.73,948.323 4691.72,948.697 4712.7,948.043 4733.69,946.947 4754.67,946.008 4775.66,945.176 4796.64,943.959 4817.63,942.281 4838.61,940.755 4859.6,940.102 4880.58,940.534 4901.57,941.589 4922.55,942.594 4943.54,943.41 4964.52,944.494 4985.51,946.094 5006.49,947.735 5027.48,948.653 5048.46,948.472 5069.45,947.504 5090.43,946.443 "/>
</svg>
