<?xml version="1.0" encoding="utf-8"?>
<svg xmlns="http://www.w3.org/2000/svg" xmlns:xlink="http://www.w3.org/1999/xlink" width="600" height="400" viewBox="0 0 2400 1600">
<defs>
  <clipPath id="clip210">
    <rect x="0" y="0" width="2400" height="1600"/>
  </clipPath>
</defs>
<path clip-path="url(#clip210)" d="M0 1600 L2400 1600 L2400 8.88178e-14 L0 8.88178e-14  Z" fill="#ffffff" fill-rule="evenodd" fill-opacity="1"/>
<defs>
  <clipPath id="clip211">
    <rect x="480" y="0" width="1681" height="1600"/>
  </clipPath>
</defs>
<path clip-path="url(#clip210)" d="M219.866 1423.18 L2352.76 1423.18 L2352.76 123.472 L219.866 123.472  Z" fill="#ffffff" fill-rule="evenodd" fill-opacity="1"/>
<defs>
  <clipPath id="clip212">
    <rect x="219" y="123" width="2134" height="1301"/>
  </clipPath>
</defs>
<polyline clip-path="url(#clip212)" style="stroke:#000000; stroke-linecap:round; stroke-linejoin:round; stroke-width:2; stroke-opacity:0.1; fill:none" points="259.906,1423.18 259.906,123.472 "/>
<polyline clip-path="url(#clip212)" style="stroke:#000000; stroke-linecap:round; stroke-linejoin:round; stroke-width:2; stroke-opacity:0.1; fill:none" points="768.027,1423.18 768.027,123.472 "/>
<polyline clip-path="url(#clip212)" style="stroke:#000000; stroke-linecap:round; stroke-linejoin:round; stroke-width:2; stroke-opacity:0.1; fill:none" points="1276.15,1423.18 1276.15,123.472 "/>
<polyline clip-path="url(#clip212)" style="stroke:#000000; stroke-linecap:round; stroke-linejoin:round; stroke-width:2; stroke-opacity:0.1; fill:none" points="1784.27,1423.18 1784.27,123.472 "/>
<polyline clip-path="url(#clip212)" style="stroke:#000000; stroke-linecap:round; stroke-linejoin:round; stroke-width:2; stroke-opacity:0.1; fill:none" points="2292.39,1423.18 2292.39,123.472 "/>
<polyline clip-path="url(#clip210)" style="stroke:#000000; stroke-linecap:round; stroke-linejoin:round; stroke-width:4; stroke-opacity:1; fill:none" points="219.866,1423.18 2352.76,1423.18 "/>
<polyline clip-path="url(#clip210)" style="stroke:#000000; stroke-linecap:round; stroke-linejoin:round; stroke-width:4; stroke-opacity:1; fill:none" points="259.906,1423.18 259.906,1404.28 "/>
<polyline clip-path="url(#clip210)" style="stroke:#000000; stroke-linecap:round; stroke-linejoin:round; stroke-width:4; stroke-opacity:1; fill:none" points="768.027,1423.18 768.027,1404.28 "/>
<polyline clip-path="url(#clip210)" style="stroke:#000000; stroke-linecap:round; stroke-linejoin:round; stroke-width:4; stroke-opacity:1; fill:none" points="1276.15,1423.18 1276.15,1404.28 "/>
<polyline clip-path="url(#clip210)" style="stroke:#000000; stroke-linecap:round; stroke-linejoin:round; stroke-width:4; stroke-opacity:1; fill:none" points="1784.27,1423.18 1784.27,1404.28 "/>
<polyline clip-path="url(#clip210)" style="stroke:#000000; stroke-linecap:round; stroke-linejoin:round; stroke-width:4; stroke-opacity:1; fill:none" points="2292.39,1423.18 2292.39,1404.28 "/>
<path clip-path="url(#clip210)" d="M259.906 1454.1 Q256.295 1454.1 254.466 1457.66 Q252.661 1461.2 252.661 1468.33 Q252.661 1475.44 254.466 1479.01 Q256.295 1482.55 259.906 1482.55 Q263.54 1482.55 265.346 1479.01 Q267.175 1475.44 267.175 1468.33 Q267.175 1461.2 265.346 1457.66 Q263.54 1454.1 259.906 1454.1 M259.906 1450.39 Q265.716 1450.39 268.772 1455 Q271.851 1459.58 271.851 1468.33 Q271.851 1477.06 268.772 1481.67 Q265.716 1486.25 259.906 1486.25 Q254.096 1486.25 251.017 1481.67 Q247.962 1477.06 247.962 1468.33 Q247.962 1459.58 251.017 1455 Q254.096 1450.39 259.906 1450.39 Z" fill="#000000" fill-rule="nonzero" fill-opacity="1" /><path clip-path="url(#clip210)" d="M747.298 1481.64 L763.618 1481.64 L763.618 1485.58 L741.673 1485.58 L741.673 1481.64 Q744.335 1478.89 748.919 1474.26 Q753.525 1469.61 754.706 1468.27 Q756.951 1465.74 757.831 1464.01 Q758.734 1462.25 758.734 1460.56 Q758.734 1457.8 756.789 1456.07 Q754.868 1454.33 751.766 1454.33 Q749.567 1454.33 747.113 1455.09 Q744.683 1455.86 741.905 1457.41 L741.905 1452.69 Q744.729 1451.55 747.183 1450.97 Q749.636 1450.39 751.673 1450.39 Q757.044 1450.39 760.238 1453.08 Q763.433 1455.77 763.433 1460.26 Q763.433 1462.39 762.622 1464.31 Q761.835 1466.2 759.729 1468.8 Q759.15 1469.47 756.048 1472.69 Q752.947 1475.88 747.298 1481.64 Z" fill="#000000" fill-rule="nonzero" fill-opacity="1" /><path clip-path="url(#clip210)" d="M773.479 1451.02 L791.835 1451.02 L791.835 1454.96 L777.761 1454.96 L777.761 1463.43 Q778.78 1463.08 779.798 1462.92 Q780.817 1462.73 781.835 1462.73 Q787.622 1462.73 791.002 1465.9 Q794.381 1469.08 794.381 1474.49 Q794.381 1480.07 790.909 1483.17 Q787.437 1486.25 781.118 1486.25 Q778.942 1486.25 776.673 1485.88 Q774.428 1485.51 772.02 1484.77 L772.02 1480.07 Q774.104 1481.2 776.326 1481.76 Q778.548 1482.32 781.025 1482.32 Q785.03 1482.32 787.368 1480.21 Q789.706 1478.1 789.706 1474.49 Q789.706 1470.88 787.368 1468.77 Q785.03 1466.67 781.025 1466.67 Q779.15 1466.67 777.275 1467.08 Q775.423 1467.5 773.479 1468.38 L773.479 1451.02 Z" fill="#000000" fill-rule="nonzero" fill-opacity="1" /><path clip-path="url(#clip210)" d="M1250.85 1451.02 L1269.2 1451.02 L1269.2 1454.96 L1255.13 1454.96 L1255.13 1463.43 Q1256.15 1463.08 1257.17 1462.92 Q1258.19 1462.73 1259.2 1462.73 Q1264.99 1462.73 1268.37 1465.9 Q1271.75 1469.08 1271.75 1474.49 Q1271.75 1480.07 1268.28 1483.17 Q1264.81 1486.25 1258.49 1486.25 Q1256.31 1486.25 1254.04 1485.88 Q1251.8 1485.51 1249.39 1484.77 L1249.39 1480.07 Q1251.47 1481.2 1253.7 1481.76 Q1255.92 1482.32 1258.39 1482.32 Q1262.4 1482.32 1264.74 1480.21 Q1267.07 1478.1 1267.07 1474.49 Q1267.07 1470.88 1264.74 1468.77 Q1262.4 1466.67 1258.39 1466.67 Q1256.52 1466.67 1254.64 1467.08 Q1252.79 1467.5 1250.85 1468.38 L1250.85 1451.02 Z" fill="#000000" fill-rule="nonzero" fill-opacity="1" /><path clip-path="url(#clip210)" d="M1290.96 1454.1 Q1287.35 1454.1 1285.52 1457.66 Q1283.72 1461.2 1283.72 1468.33 Q1283.72 1475.44 1285.52 1479.01 Q1287.35 1482.55 1290.96 1482.55 Q1294.6 1482.55 1296.4 1479.01 Q1298.23 1475.44 1298.23 1468.33 Q1298.23 1461.2 1296.4 1457.66 Q1294.6 1454.1 1290.96 1454.1 M1290.96 1450.39 Q1296.77 1450.39 1299.83 1455 Q1302.91 1459.58 1302.91 1468.33 Q1302.91 1477.06 1299.83 1481.67 Q1296.77 1486.25 1290.96 1486.25 Q1285.15 1486.25 1282.07 1481.67 Q1279.02 1477.06 1279.02 1468.33 Q1279.02 1459.58 1282.07 1455 Q1285.15 1450.39 1290.96 1450.39 Z" fill="#000000" fill-rule="nonzero" fill-opacity="1" /><path clip-path="url(#clip210)" d="M1758.12 1451.02 L1780.35 1451.02 L1780.35 1453.01 L1767.8 1485.58 L1762.92 1485.58 L1774.72 1454.96 L1758.12 1454.96 L1758.12 1451.02 Z" fill="#000000" fill-rule="nonzero" fill-opacity="1" /><path clip-path="url(#clip210)" d="M1789.51 1451.02 L1807.87 1451.02 L1807.87 1454.96 L1793.8 1454.96 L1793.8 1463.43 Q1794.81 1463.08 1795.83 1462.92 Q1796.85 1462.73 1797.87 1462.73 Q1803.66 1462.73 1807.04 1465.9 Q1810.42 1469.08 1810.42 1474.49 Q1810.42 1480.07 1806.94 1483.17 Q1803.47 1486.25 1797.15 1486.25 Q1794.98 1486.25 1792.71 1485.88 Q1790.46 1485.51 1788.05 1484.77 L1788.05 1480.07 Q1790.14 1481.2 1792.36 1481.76 Q1794.58 1482.32 1797.06 1482.32 Q1801.06 1482.32 1803.4 1480.21 Q1805.74 1478.1 1805.74 1474.49 Q1805.74 1470.88 1803.4 1468.77 Q1801.06 1466.67 1797.06 1466.67 Q1795.18 1466.67 1793.31 1467.08 Q1791.46 1467.5 1789.51 1468.38 L1789.51 1451.02 Z" fill="#000000" fill-rule="nonzero" fill-opacity="1" /><path clip-path="url(#clip210)" d="M2252 1481.64 L2259.64 1481.64 L2259.64 1455.28 L2251.33 1456.95 L2251.33 1452.69 L2259.59 1451.02 L2264.27 1451.02 L2264.27 1481.64 L2271.91 1481.64 L2271.91 1485.58 L2252 1485.58 L2252 1481.64 Z" fill="#000000" fill-rule="nonzero" fill-opacity="1" /><path clip-path="url(#clip210)" d="M2291.35 1454.1 Q2287.74 1454.1 2285.91 1457.66 Q2284.1 1461.2 2284.1 1468.33 Q2284.1 1475.44 2285.91 1479.01 Q2287.74 1482.55 2291.35 1482.55 Q2294.98 1482.55 2296.79 1479.01 Q2298.62 1475.44 2298.62 1468.33 Q2298.62 1461.2 2296.79 1457.66 Q2294.98 1454.1 2291.35 1454.1 M2291.35 1450.39 Q2297.16 1450.39 2300.22 1455 Q2303.29 1459.58 2303.29 1468.33 Q2303.29 1477.06 2300.22 1481.67 Q2297.16 1486.25 2291.35 1486.25 Q2285.54 1486.25 2282.46 1481.67 Q2279.41 1477.06 2279.41 1468.33 Q2279.41 1459.58 2282.46 1455 Q2285.54 1450.39 2291.35 1450.39 Z" fill="#000000" fill-rule="nonzero" fill-opacity="1" /><path clip-path="url(#clip210)" d="M2321.51 1454.1 Q2317.9 1454.1 2316.07 1457.66 Q2314.27 1461.2 2314.27 1468.33 Q2314.27 1475.44 2316.07 1479.01 Q2317.9 1482.55 2321.51 1482.55 Q2325.15 1482.55 2326.95 1479.01 Q2328.78 1475.44 2328.78 1468.33 Q2328.78 1461.2 2326.95 1457.66 Q2325.15 1454.1 2321.51 1454.1 M2321.51 1450.39 Q2327.32 1450.39 2330.38 1455 Q2333.46 1459.58 2333.46 1468.33 Q2333.46 1477.06 2330.38 1481.67 Q2327.32 1486.25 2321.51 1486.25 Q2315.7 1486.25 2312.62 1481.67 Q2309.57 1477.06 2309.57 1468.33 Q2309.57 1459.58 2312.62 1455 Q2315.7 1450.39 2321.51 1450.39 Z" fill="#000000" fill-rule="nonzero" fill-opacity="1" /><path clip-path="url(#clip210)" d="M1225.47 1522.27 L1225.47 1532.4 L1237.53 1532.4 L1237.53 1536.95 L1225.47 1536.95 L1225.47 1556.3 Q1225.47 1560.66 1226.65 1561.9 Q1227.86 1563.14 1231.52 1563.14 L1237.53 1563.14 L1237.53 1568.04 L1231.52 1568.04 Q1224.74 1568.04 1222.16 1565.53 Q1219.58 1562.98 1219.58 1556.3 L1219.58 1536.95 L1215.29 1536.95 L1215.29 1532.4 L1219.58 1532.4 L1219.58 1522.27 L1225.47 1522.27 Z" fill="#000000" fill-rule="nonzero" fill-opacity="1" /><path clip-path="url(#clip210)" d="M1245.24 1532.4 L1251.09 1532.4 L1251.09 1568.04 L1245.24 1568.04 L1245.24 1532.4 M1245.24 1518.52 L1251.09 1518.52 L1251.09 1525.93 L1245.24 1525.93 L1245.24 1518.52 Z" fill="#000000" fill-rule="nonzero" fill-opacity="1" /><path clip-path="url(#clip210)" d="M1291.1 1539.24 Q1293.3 1535.29 1296.35 1533.41 Q1299.41 1531.54 1303.55 1531.54 Q1309.12 1531.54 1312.14 1535.45 Q1315.16 1539.33 1315.16 1546.53 L1315.16 1568.04 L1309.28 1568.04 L1309.28 1546.72 Q1309.28 1541.59 1307.46 1539.11 Q1305.65 1536.63 1301.92 1536.63 Q1297.37 1536.63 1294.73 1539.65 Q1292.09 1542.68 1292.09 1547.9 L1292.09 1568.04 L1286.2 1568.04 L1286.2 1546.72 Q1286.2 1541.56 1284.39 1539.11 Q1282.57 1536.63 1278.78 1536.63 Q1274.3 1536.63 1271.65 1539.68 Q1269.01 1542.71 1269.01 1547.9 L1269.01 1568.04 L1263.12 1568.04 L1263.12 1532.4 L1269.01 1532.4 L1269.01 1537.93 Q1271.02 1534.66 1273.82 1533.1 Q1276.62 1531.54 1280.47 1531.54 Q1284.35 1531.54 1287.06 1533.51 Q1289.8 1535.48 1291.1 1539.24 Z" fill="#000000" fill-rule="nonzero" fill-opacity="1" /><path clip-path="url(#clip210)" d="M1357.34 1548.76 L1357.34 1551.62 L1330.41 1551.62 Q1330.79 1557.67 1334.04 1560.85 Q1337.32 1564 1343.14 1564 Q1346.51 1564 1349.67 1563.17 Q1352.85 1562.35 1355.97 1560.69 L1355.97 1566.23 Q1352.82 1567.57 1349.51 1568.27 Q1346.2 1568.97 1342.79 1568.97 Q1334.26 1568.97 1329.26 1564 Q1324.3 1559.04 1324.3 1550.57 Q1324.3 1541.82 1329.01 1536.69 Q1333.75 1531.54 1341.77 1531.54 Q1348.97 1531.54 1353.14 1536.18 Q1357.34 1540.8 1357.34 1548.76 M1351.48 1547.04 Q1351.42 1542.23 1348.77 1539.37 Q1346.16 1536.5 1341.84 1536.5 Q1336.93 1536.5 1333.97 1539.27 Q1331.05 1542.04 1330.6 1547.07 L1351.48 1547.04 Z" fill="#000000" fill-rule="nonzero" fill-opacity="1" /><polyline clip-path="url(#clip212)" style="stroke:#000000; stroke-linecap:round; stroke-linejoin:round; stroke-width:2; stroke-opacity:0.1; fill:none" points="219.866,1223.61 2352.76,1223.61 "/>
<polyline clip-path="url(#clip212)" style="stroke:#000000; stroke-linecap:round; stroke-linejoin:round; stroke-width:2; stroke-opacity:0.1; fill:none" points="219.866,908.507 2352.76,908.507 "/>
<polyline clip-path="url(#clip212)" style="stroke:#000000; stroke-linecap:round; stroke-linejoin:round; stroke-width:2; stroke-opacity:0.1; fill:none" points="219.866,593.4 2352.76,593.4 "/>
<polyline clip-path="url(#clip212)" style="stroke:#000000; stroke-linecap:round; stroke-linejoin:round; stroke-width:2; stroke-opacity:0.1; fill:none" points="219.866,278.294 2352.76,278.294 "/>
<polyline clip-path="url(#clip210)" style="stroke:#000000; stroke-linecap:round; stroke-linejoin:round; stroke-width:4; stroke-opacity:1; fill:none" points="219.866,1423.18 219.866,123.472 "/>
<polyline clip-path="url(#clip210)" style="stroke:#000000; stroke-linecap:round; stroke-linejoin:round; stroke-width:4; stroke-opacity:1; fill:none" points="219.866,1223.61 238.764,1223.61 "/>
<polyline clip-path="url(#clip210)" style="stroke:#000000; stroke-linecap:round; stroke-linejoin:round; stroke-width:4; stroke-opacity:1; fill:none" points="219.866,908.507 238.764,908.507 "/>
<polyline clip-path="url(#clip210)" style="stroke:#000000; stroke-linecap:round; stroke-linejoin:round; stroke-width:4; stroke-opacity:1; fill:none" points="219.866,593.4 238.764,593.4 "/>
<polyline clip-path="url(#clip210)" style="stroke:#000000; stroke-linecap:round; stroke-linejoin:round; stroke-width:4; stroke-opacity:1; fill:none" points="219.866,278.294 238.764,278.294 "/>
<path clip-path="url(#clip210)" d="M128.288 1209.41 Q124.677 1209.41 122.848 1212.98 Q121.043 1216.52 121.043 1223.65 Q121.043 1230.75 122.848 1234.32 Q124.677 1237.86 128.288 1237.86 Q131.922 1237.86 133.728 1234.32 Q135.556 1230.75 135.556 1223.65 Q135.556 1216.52 133.728 1212.98 Q131.922 1209.41 128.288 1209.41 M128.288 1205.71 Q134.098 1205.71 137.154 1210.31 Q140.232 1214.9 140.232 1223.65 Q140.232 1232.37 137.154 1236.98 Q134.098 1241.56 128.288 1241.56 Q122.478 1241.56 119.399 1236.98 Q116.343 1232.37 116.343 1223.65 Q116.343 1214.9 119.399 1210.31 Q122.478 1205.71 128.288 1205.71 Z" fill="#000000" fill-rule="nonzero" fill-opacity="1" /><path clip-path="url(#clip210)" d="M148.45 1235.01 L153.334 1235.01 L153.334 1240.89 L148.45 1240.89 L148.45 1235.01 Z" fill="#000000" fill-rule="nonzero" fill-opacity="1" /><path clip-path="url(#clip210)" d="M167.547 1236.96 L183.866 1236.96 L183.866 1240.89 L161.922 1240.89 L161.922 1236.96 Q164.584 1234.2 169.167 1229.57 Q173.774 1224.92 174.954 1223.58 Q177.2 1221.06 178.079 1219.32 Q178.982 1217.56 178.982 1215.87 Q178.982 1213.12 177.038 1211.38 Q175.116 1209.64 172.014 1209.64 Q169.815 1209.64 167.362 1210.41 Q164.931 1211.17 162.153 1212.72 L162.153 1208 Q164.977 1206.87 167.431 1206.29 Q169.885 1205.71 171.922 1205.71 Q177.292 1205.71 180.487 1208.39 Q183.681 1211.08 183.681 1215.57 Q183.681 1217.7 182.871 1219.62 Q182.084 1221.52 179.977 1224.11 Q179.399 1224.78 176.297 1228 Q173.195 1231.19 167.547 1236.96 Z" fill="#000000" fill-rule="nonzero" fill-opacity="1" /><path clip-path="url(#clip210)" d="M126.205 894.305 Q122.593 894.305 120.765 897.87 Q118.959 901.412 118.959 908.541 Q118.959 915.648 120.765 919.213 Q122.593 922.754 126.205 922.754 Q129.839 922.754 131.644 919.213 Q133.473 915.648 133.473 908.541 Q133.473 901.412 131.644 897.87 Q129.839 894.305 126.205 894.305 M126.205 890.602 Q132.015 890.602 135.07 895.208 Q138.149 899.791 138.149 908.541 Q138.149 917.268 135.07 921.875 Q132.015 926.458 126.205 926.458 Q120.394 926.458 117.316 921.875 Q114.26 917.268 114.26 908.541 Q114.26 899.791 117.316 895.208 Q120.394 890.602 126.205 890.602 Z" fill="#000000" fill-rule="nonzero" fill-opacity="1" /><path clip-path="url(#clip210)" d="M146.366 919.907 L151.251 919.907 L151.251 925.787 L146.366 925.787 L146.366 919.907 Z" fill="#000000" fill-rule="nonzero" fill-opacity="1" /><path clip-path="url(#clip210)" d="M174.283 895.301 L162.477 913.75 L174.283 913.75 L174.283 895.301 M173.056 891.227 L178.936 891.227 L178.936 913.75 L183.866 913.75 L183.866 917.639 L178.936 917.639 L178.936 925.787 L174.283 925.787 L174.283 917.639 L158.681 917.639 L158.681 913.125 L173.056 891.227 Z" fill="#000000" fill-rule="nonzero" fill-opacity="1" /><path clip-path="url(#clip210)" d="M126.529 579.199 Q122.918 579.199 121.089 582.764 Q119.283 586.305 119.283 593.435 Q119.283 600.541 121.089 604.106 Q122.918 607.648 126.529 607.648 Q130.163 607.648 131.968 604.106 Q133.797 600.541 133.797 593.435 Q133.797 586.305 131.968 582.764 Q130.163 579.199 126.529 579.199 M126.529 575.495 Q132.339 575.495 135.394 580.102 Q138.473 584.685 138.473 593.435 Q138.473 602.162 135.394 606.768 Q132.339 611.352 126.529 611.352 Q120.718 611.352 117.64 606.768 Q114.584 602.162 114.584 593.435 Q114.584 584.685 117.64 580.102 Q120.718 575.495 126.529 575.495 Z" fill="#000000" fill-rule="nonzero" fill-opacity="1" /><path clip-path="url(#clip210)" d="M146.691 604.801 L151.575 604.801 L151.575 610.68 L146.691 610.68 L146.691 604.801 Z" fill="#000000" fill-rule="nonzero" fill-opacity="1" /><path clip-path="url(#clip210)" d="M172.339 591.537 Q169.19 591.537 167.339 593.69 Q165.51 595.842 165.51 599.592 Q165.51 603.319 167.339 605.495 Q169.19 607.648 172.339 607.648 Q175.487 607.648 177.315 605.495 Q179.167 603.319 179.167 599.592 Q179.167 595.842 177.315 593.69 Q175.487 591.537 172.339 591.537 M181.621 576.884 L181.621 581.143 Q179.862 580.31 178.056 579.87 Q176.274 579.43 174.514 579.43 Q169.885 579.43 167.431 582.555 Q165.001 585.68 164.653 592 Q166.019 589.986 168.079 588.921 Q170.139 587.833 172.616 587.833 Q177.825 587.833 180.834 591.004 Q183.866 594.153 183.866 599.592 Q183.866 604.916 180.718 608.134 Q177.57 611.352 172.339 611.352 Q166.343 611.352 163.172 606.768 Q160.001 602.162 160.001 593.435 Q160.001 585.241 163.89 580.379 Q167.778 575.495 174.329 575.495 Q176.089 575.495 177.871 575.842 Q179.676 576.19 181.621 576.884 Z" fill="#000000" fill-rule="nonzero" fill-opacity="1" /><path clip-path="url(#clip210)" d="M126.783 264.093 Q123.172 264.093 121.343 267.657 Q119.538 271.199 119.538 278.329 Q119.538 285.435 121.343 289 Q123.172 292.541 126.783 292.541 Q130.417 292.541 132.223 289 Q134.052 285.435 134.052 278.329 Q134.052 271.199 132.223 267.657 Q130.417 264.093 126.783 264.093 M126.783 260.389 Q132.593 260.389 135.649 264.995 Q138.728 269.579 138.728 278.329 Q138.728 287.055 135.649 291.662 Q132.593 296.245 126.783 296.245 Q120.973 296.245 117.894 291.662 Q114.839 287.055 114.839 278.329 Q114.839 269.579 117.894 264.995 Q120.973 260.389 126.783 260.389 Z" fill="#000000" fill-rule="nonzero" fill-opacity="1" /><path clip-path="url(#clip210)" d="M146.945 289.694 L151.829 289.694 L151.829 295.574 L146.945 295.574 L146.945 289.694 Z" fill="#000000" fill-rule="nonzero" fill-opacity="1" /><path clip-path="url(#clip210)" d="M172.014 279.162 Q168.681 279.162 166.76 280.944 Q164.862 282.727 164.862 285.852 Q164.862 288.977 166.76 290.759 Q168.681 292.541 172.014 292.541 Q175.348 292.541 177.269 290.759 Q179.19 288.954 179.19 285.852 Q179.19 282.727 177.269 280.944 Q175.371 279.162 172.014 279.162 M167.339 277.171 Q164.329 276.43 162.64 274.37 Q160.973 272.31 160.973 269.347 Q160.973 265.204 163.913 262.796 Q166.876 260.389 172.014 260.389 Q177.176 260.389 180.116 262.796 Q183.056 265.204 183.056 269.347 Q183.056 272.31 181.366 274.37 Q179.7 276.43 176.714 277.171 Q180.093 277.958 181.968 280.25 Q183.866 282.542 183.866 285.852 Q183.866 290.875 180.788 293.56 Q177.732 296.245 172.014 296.245 Q166.297 296.245 163.218 293.56 Q160.163 290.875 160.163 285.852 Q160.163 282.542 162.061 280.25 Q163.959 277.958 167.339 277.171 M165.626 269.787 Q165.626 272.472 167.292 273.977 Q168.982 275.481 172.014 275.481 Q175.024 275.481 176.714 273.977 Q178.426 272.472 178.426 269.787 Q178.426 267.102 176.714 265.597 Q175.024 264.093 172.014 264.093 Q168.982 264.093 167.292 265.597 Q165.626 267.102 165.626 269.787 Z" fill="#000000" fill-rule="nonzero" fill-opacity="1" /><path clip-path="url(#clip210)" d="M28.3562 756.711 L45.7028 769.602 L64.0042 756.043 L64.0042 762.95 L49.9996 773.326 L64.0042 783.702 L64.0042 790.609 L45.3526 776.763 L28.3562 789.431 L28.3562 782.524 L41.0558 773.071 L28.3562 763.618 L28.3562 756.711 Z" fill="#000000" fill-rule="nonzero" fill-opacity="1" /><path clip-path="url(#clip210)" d="M532.175 12.096 L564.298 12.096 L564.298 18.9825 L539.669 18.9825 L539.669 33.8088 Q541.451 33.2012 543.233 32.9176 Q545.016 32.5936 546.798 32.5936 Q556.926 32.5936 562.84 38.1433 Q568.754 43.6931 568.754 53.1722 Q568.754 62.9348 562.678 68.3631 Q556.601 73.7508 545.542 73.7508 Q541.735 73.7508 537.765 73.1026 Q533.835 72.4545 529.622 71.1582 L529.622 62.9348 Q533.268 64.9198 537.157 65.892 Q541.046 66.8642 545.38 66.8642 Q552.389 66.8642 556.48 63.1779 Q560.571 59.4916 560.571 53.1722 Q560.571 46.8528 556.48 43.1664 Q552.389 39.4801 545.38 39.4801 Q542.099 39.4801 538.818 40.2093 Q535.577 40.9384 532.175 42.4778 L532.175 12.096 Z" fill="#000000" fill-rule="nonzero" fill-opacity="1" /><path clip-path="url(#clip210)" d="M602.377 17.4837 Q596.057 17.4837 592.857 23.7221 Q589.697 29.92 589.697 42.3968 Q589.697 54.833 592.857 61.0714 Q596.057 67.2693 602.377 67.2693 Q608.737 67.2693 611.896 61.0714 Q615.097 54.833 615.097 42.3968 Q615.097 29.92 611.896 23.7221 Q608.737 17.4837 602.377 17.4837 M602.377 11.0023 Q612.544 11.0023 617.892 19.0636 Q623.279 27.0843 623.279 42.3968 Q623.279 57.6687 617.892 65.73 Q612.544 73.7508 602.377 73.7508 Q592.209 73.7508 586.821 65.73 Q581.474 57.6687 581.474 42.3968 Q581.474 27.0843 586.821 19.0636 Q592.209 11.0023 602.377 11.0023 Z" fill="#000000" fill-rule="nonzero" fill-opacity="1" /><path clip-path="url(#clip210)" d="M655.16 17.4837 Q648.841 17.4837 645.64 23.7221 Q642.481 29.92 642.481 42.3968 Q642.481 54.833 645.64 61.0714 Q648.841 67.2693 655.16 67.2693 Q661.52 67.2693 664.68 61.0714 Q667.88 54.833 667.88 42.3968 Q667.88 29.92 664.68 23.7221 Q661.52 17.4837 655.16 17.4837 M655.16 11.0023 Q665.328 11.0023 670.675 19.0636 Q676.063 27.0843 676.063 42.3968 Q676.063 57.6687 670.675 65.73 Q665.328 73.7508 655.16 73.7508 Q644.992 73.7508 639.604 65.73 Q634.257 57.6687 634.257 42.3968 Q634.257 27.0843 639.604 19.0636 Q644.992 11.0023 655.16 11.0023 Z" fill="#000000" fill-rule="nonzero" fill-opacity="1" /><path clip-path="url(#clip210)" d="M707.943 17.4837 Q701.624 17.4837 698.424 23.7221 Q695.264 29.92 695.264 42.3968 Q695.264 54.833 698.424 61.0714 Q701.624 67.2693 707.943 67.2693 Q714.303 67.2693 717.463 61.0714 Q720.663 54.833 720.663 42.3968 Q720.663 29.92 717.463 23.7221 Q714.303 17.4837 707.943 17.4837 M707.943 11.0023 Q718.111 11.0023 723.458 19.0636 Q728.846 27.0843 728.846 42.3968 Q728.846 57.6687 723.458 65.73 Q718.111 73.7508 707.943 73.7508 Q697.775 73.7508 692.388 65.73 Q687.041 57.6687 687.041 42.3968 Q687.041 27.0843 692.388 19.0636 Q697.775 11.0023 707.943 11.0023 Z" fill="#000000" fill-rule="nonzero" fill-opacity="1" /><path clip-path="url(#clip210)" d="M805.124 14.0809 L805.124 22.0612 Q800.466 19.8332 796.334 18.7395 Q792.202 17.6457 788.354 17.6457 Q781.67 17.6457 778.024 20.2383 Q774.419 22.8309 774.419 27.611 Q774.419 31.6214 776.809 33.6873 Q779.239 35.7128 785.964 36.9686 L790.906 37.9813 Q800.061 39.7232 804.395 44.1387 Q808.77 48.5136 808.77 55.8863 Q808.77 64.6767 802.856 69.2137 Q796.982 73.7508 785.599 73.7508 Q781.305 73.7508 776.444 72.7785 Q771.623 71.8063 766.438 69.9024 L766.438 61.4765 Q771.421 64.2716 776.201 65.6895 Q780.981 67.1073 785.599 67.1073 Q792.607 67.1073 796.415 64.3527 Q800.223 61.598 800.223 56.4939 Q800.223 52.0379 797.468 49.5264 Q794.754 47.0148 788.516 45.759 L783.533 44.7868 Q774.378 42.9639 770.287 39.075 Q766.195 35.1862 766.195 28.2591 Q766.195 20.2383 771.826 15.6203 Q777.497 11.0023 787.422 11.0023 Q791.675 11.0023 796.091 11.7719 Q800.506 12.5416 805.124 14.0809 Z" fill="#000000" fill-rule="nonzero" fill-opacity="1" /><path clip-path="url(#clip210)" d="M841.826 49.7694 Q832.792 49.7694 829.308 51.8354 Q825.825 53.9013 825.825 58.8839 Q825.825 62.8538 828.417 65.2034 Q831.05 67.5124 835.547 67.5124 Q841.745 67.5124 845.471 63.1374 Q849.239 58.7219 849.239 51.4303 L849.239 49.7694 L841.826 49.7694 M856.692 46.6907 L856.692 72.576 L849.239 72.576 L849.239 65.6895 Q846.687 69.8214 842.879 71.8063 Q839.071 73.7508 833.562 73.7508 Q826.594 73.7508 822.462 69.8619 Q818.371 65.9325 818.371 59.3701 Q818.371 51.7138 823.475 47.825 Q828.62 43.9361 838.787 43.9361 L849.239 43.9361 L849.239 43.2069 Q849.239 38.0623 845.836 35.2672 Q842.474 32.4315 836.357 32.4315 Q832.468 32.4315 828.782 33.3632 Q825.095 34.295 821.693 36.1584 L821.693 29.2718 Q825.784 27.692 829.632 26.9223 Q833.481 26.1121 837.127 26.1121 Q846.97 26.1121 851.831 31.2163 Q856.692 36.3204 856.692 46.6907 Z" fill="#000000" fill-rule="nonzero" fill-opacity="1" /><path clip-path="url(#clip210)" d="M907.369 35.9153 Q910.164 30.8922 914.053 28.5022 Q917.942 26.1121 923.208 26.1121 Q930.297 26.1121 934.146 31.0947 Q937.994 36.0368 937.994 45.1919 L937.994 72.576 L930.5 72.576 L930.5 45.4349 Q930.5 38.913 928.191 35.7533 Q925.882 32.5936 921.142 32.5936 Q915.35 32.5936 911.987 36.4419 Q908.625 40.2903 908.625 46.9338 L908.625 72.576 L901.131 72.576 L901.131 45.4349 Q901.131 38.8725 898.822 35.7533 Q896.513 32.5936 891.692 32.5936 Q885.98 32.5936 882.618 36.4824 Q879.256 40.3308 879.256 46.9338 L879.256 72.576 L871.762 72.576 L871.762 27.2059 L879.256 27.2059 L879.256 34.2544 Q881.808 30.082 885.373 28.0971 Q888.938 26.1121 893.839 26.1121 Q898.781 26.1121 902.225 28.6237 Q905.708 31.1352 907.369 35.9153 Z" fill="#000000" fill-rule="nonzero" fill-opacity="1" /><path clip-path="url(#clip210)" d="M960.072 65.7705 L960.072 89.8329 L952.577 89.8329 L952.577 27.2059 L960.072 27.2059 L960.072 34.0924 Q962.421 30.0415 965.986 28.0971 Q969.591 26.1121 974.574 26.1121 Q982.838 26.1121 987.982 32.6746 Q993.167 39.2371 993.167 49.9314 Q993.167 60.6258 987.982 67.1883 Q982.838 73.7508 974.574 73.7508 Q969.591 73.7508 965.986 71.8063 Q962.421 69.8214 960.072 65.7705 M985.43 49.9314 Q985.43 41.7081 982.027 37.0496 Q978.665 32.3505 972.751 32.3505 Q966.837 32.3505 963.434 37.0496 Q960.072 41.7081 960.072 49.9314 Q960.072 58.1548 963.434 62.8538 Q966.837 67.5124 972.751 67.5124 Q978.665 67.5124 982.027 62.8538 Q985.43 58.1548 985.43 49.9314 Z" fill="#000000" fill-rule="nonzero" fill-opacity="1" /><path clip-path="url(#clip210)" d="M1005.52 9.54393 L1012.98 9.54393 L1012.98 72.576 L1005.52 72.576 L1005.52 9.54393 Z" fill="#000000" fill-rule="nonzero" fill-opacity="1" /><path clip-path="url(#clip210)" d="M1067.38 48.0275 L1067.38 51.6733 L1033.11 51.6733 Q1033.6 59.3701 1037.73 63.421 Q1041.9 67.4314 1049.31 67.4314 Q1053.61 67.4314 1057.62 66.3781 Q1061.67 65.3249 1065.64 63.2184 L1065.64 70.267 Q1061.63 71.9684 1057.41 72.8596 Q1053.2 73.7508 1048.87 73.7508 Q1038.01 73.7508 1031.65 67.4314 Q1025.33 61.1119 1025.33 50.3365 Q1025.33 39.1965 1031.33 32.6746 Q1037.36 26.1121 1047.57 26.1121 Q1056.73 26.1121 1062.03 32.0264 Q1067.38 37.9003 1067.38 48.0275 M1059.93 45.84 Q1059.85 39.7232 1056.48 36.0774 Q1053.16 32.4315 1047.65 32.4315 Q1041.41 32.4315 1037.65 35.9558 Q1033.92 39.4801 1033.35 45.8805 L1059.93 45.84 Z" fill="#000000" fill-rule="nonzero" fill-opacity="1" /><path clip-path="url(#clip210)" d="M1106.31 12.096 L1118.5 12.096 L1133.94 53.2532 L1149.45 12.096 L1161.64 12.096 L1161.64 72.576 L1153.66 72.576 L1153.66 19.4686 L1138.07 60.9499 L1129.84 60.9499 L1114.25 19.4686 L1114.25 72.576 L1106.31 72.576 L1106.31 12.096 Z" fill="#000000" fill-rule="nonzero" fill-opacity="1" /><path clip-path="url(#clip210)" d="M1216.37 48.0275 L1216.37 51.6733 L1182.1 51.6733 Q1182.59 59.3701 1186.72 63.421 Q1190.89 67.4314 1198.31 67.4314 Q1202.6 67.4314 1206.61 66.3781 Q1210.66 65.3249 1214.63 63.2184 L1214.63 70.267 Q1210.62 71.9684 1206.41 72.8596 Q1202.19 73.7508 1197.86 73.7508 Q1187 73.7508 1180.64 67.4314 Q1174.32 61.1119 1174.32 50.3365 Q1174.32 39.1965 1180.32 32.6746 Q1186.36 26.1121 1196.56 26.1121 Q1205.72 26.1121 1211.03 32.0264 Q1216.37 37.9003 1216.37 48.0275 M1208.92 45.84 Q1208.84 39.7232 1205.48 36.0774 Q1202.15 32.4315 1196.64 32.4315 Q1190.41 32.4315 1186.64 35.9558 Q1182.91 39.4801 1182.34 45.8805 L1208.92 45.84 Z" fill="#000000" fill-rule="nonzero" fill-opacity="1" /><path clip-path="url(#clip210)" d="M1249.23 49.7694 Q1240.19 49.7694 1236.71 51.8354 Q1233.22 53.9013 1233.22 58.8839 Q1233.22 62.8538 1235.82 65.2034 Q1238.45 67.5124 1242.95 67.5124 Q1249.14 67.5124 1252.87 63.1374 Q1256.64 58.7219 1256.64 51.4303 L1256.64 49.7694 L1249.23 49.7694 M1264.09 46.6907 L1264.09 72.576 L1256.64 72.576 L1256.64 65.6895 Q1254.09 69.8214 1250.28 71.8063 Q1246.47 73.7508 1240.96 73.7508 Q1233.99 73.7508 1229.86 69.8619 Q1225.77 65.9325 1225.77 59.3701 Q1225.77 51.7138 1230.87 47.825 Q1236.02 43.9361 1246.19 43.9361 L1256.64 43.9361 L1256.64 43.2069 Q1256.64 38.0623 1253.24 35.2672 Q1249.87 32.4315 1243.76 32.4315 Q1239.87 32.4315 1236.18 33.3632 Q1232.49 34.295 1229.09 36.1584 L1229.09 29.2718 Q1233.18 27.692 1237.03 26.9223 Q1240.88 26.1121 1244.53 26.1121 Q1254.37 26.1121 1259.23 31.2163 Q1264.09 36.3204 1264.09 46.6907 Z" fill="#000000" fill-rule="nonzero" fill-opacity="1" /><path clip-path="url(#clip210)" d="M1317.16 45.1919 L1317.16 72.576 L1309.71 72.576 L1309.71 45.4349 Q1309.71 38.994 1307.19 35.7938 Q1304.68 32.5936 1299.66 32.5936 Q1293.62 32.5936 1290.14 36.4419 Q1286.66 40.2903 1286.66 46.9338 L1286.66 72.576 L1279.16 72.576 L1279.16 27.2059 L1286.66 27.2059 L1286.66 34.2544 Q1289.33 30.163 1292.93 28.1376 Q1296.58 26.1121 1301.32 26.1121 Q1309.14 26.1121 1313.15 30.9732 Q1317.16 35.7938 1317.16 45.1919 Z" fill="#000000" fill-rule="nonzero" fill-opacity="1" /><path clip-path="url(#clip210)" d="M1379.02 49.7694 Q1369.98 49.7694 1366.5 51.8354 Q1363.01 53.9013 1363.01 58.8839 Q1363.01 62.8538 1365.61 65.2034 Q1368.24 67.5124 1372.74 67.5124 Q1378.94 67.5124 1382.66 63.1374 Q1386.43 58.7219 1386.43 51.4303 L1386.43 49.7694 L1379.02 49.7694 M1393.88 46.6907 L1393.88 72.576 L1386.43 72.576 L1386.43 65.6895 Q1383.88 69.8214 1380.07 71.8063 Q1376.26 73.7508 1370.75 73.7508 Q1363.78 73.7508 1359.65 69.8619 Q1355.56 65.9325 1355.56 59.3701 Q1355.56 51.7138 1360.67 47.825 Q1365.81 43.9361 1375.98 43.9361 L1386.43 43.9361 L1386.43 43.2069 Q1386.43 38.0623 1383.03 35.2672 Q1379.66 32.4315 1373.55 32.4315 Q1369.66 32.4315 1365.97 33.3632 Q1362.29 34.295 1358.88 36.1584 L1358.88 29.2718 Q1362.97 27.692 1366.82 26.9223 Q1370.67 26.1121 1374.32 26.1121 Q1384.16 26.1121 1389.02 31.2163 Q1393.88 36.3204 1393.88 46.6907 Z" fill="#000000" fill-rule="nonzero" fill-opacity="1" /><path clip-path="url(#clip210)" d="M1446.95 45.1919 L1446.95 72.576 L1439.5 72.576 L1439.5 45.4349 Q1439.5 38.994 1436.98 35.7938 Q1434.47 32.5936 1429.45 32.5936 Q1423.41 32.5936 1419.93 36.4419 Q1416.45 40.2903 1416.45 46.9338 L1416.45 72.576 L1408.95 72.576 L1408.95 27.2059 L1416.45 27.2059 L1416.45 34.2544 Q1419.12 30.163 1422.73 28.1376 Q1426.37 26.1121 1431.11 26.1121 Q1438.93 26.1121 1442.94 30.9732 Q1446.95 35.7938 1446.95 45.1919 Z" fill="#000000" fill-rule="nonzero" fill-opacity="1" /><path clip-path="url(#clip210)" d="M1491.67 34.0924 L1491.67 9.54393 L1499.13 9.54393 L1499.13 72.576 L1491.67 72.576 L1491.67 65.7705 Q1489.32 69.8214 1485.72 71.8063 Q1482.15 73.7508 1477.13 73.7508 Q1468.91 73.7508 1463.72 67.1883 Q1458.58 60.6258 1458.58 49.9314 Q1458.58 39.2371 1463.72 32.6746 Q1468.91 26.1121 1477.13 26.1121 Q1482.15 26.1121 1485.72 28.0971 Q1489.32 30.0415 1491.67 34.0924 M1466.27 49.9314 Q1466.27 58.1548 1469.63 62.8538 Q1473.04 67.5124 1478.95 67.5124 Q1484.87 67.5124 1488.27 62.8538 Q1491.67 58.1548 1491.67 49.9314 Q1491.67 41.7081 1488.27 37.0496 Q1484.87 32.3505 1478.95 32.3505 Q1473.04 32.3505 1469.63 37.0496 Q1466.27 41.7081 1466.27 49.9314 Z" fill="#000000" fill-rule="nonzero" fill-opacity="1" /><path clip-path="url(#clip210)" d="M1577.43 14.0809 L1577.43 22.0612 Q1572.77 19.8332 1568.64 18.7395 Q1564.51 17.6457 1560.66 17.6457 Q1553.97 17.6457 1550.33 20.2383 Q1546.72 22.8309 1546.72 27.611 Q1546.72 31.6214 1549.11 33.6873 Q1551.54 35.7128 1558.27 36.9686 L1563.21 37.9813 Q1572.37 39.7232 1576.7 44.1387 Q1581.08 48.5136 1581.08 55.8863 Q1581.08 64.6767 1575.16 69.2137 Q1569.29 73.7508 1557.9 73.7508 Q1553.61 73.7508 1548.75 72.7785 Q1543.93 71.8063 1538.74 69.9024 L1538.74 61.4765 Q1543.73 64.2716 1548.51 65.6895 Q1553.29 67.1073 1557.9 67.1073 Q1564.91 67.1073 1568.72 64.3527 Q1572.53 61.598 1572.53 56.4939 Q1572.53 52.0379 1569.77 49.5264 Q1567.06 47.0148 1560.82 45.759 L1555.84 44.7868 Q1546.68 42.9639 1542.59 39.075 Q1538.5 35.1862 1538.5 28.2591 Q1538.5 20.2383 1544.13 15.6203 Q1549.8 11.0023 1559.73 11.0023 Q1563.98 11.0023 1568.4 11.7719 Q1572.81 12.5416 1577.43 14.0809 Z" fill="#000000" fill-rule="nonzero" fill-opacity="1" /><path clip-path="url(#clip210)" d="M1600.88 14.324 L1600.88 27.2059 L1616.24 27.2059 L1616.24 32.9987 L1600.88 32.9987 L1600.88 57.6282 Q1600.88 63.1779 1602.38 64.7578 Q1603.92 66.3376 1608.58 66.3376 L1616.24 66.3376 L1616.24 72.576 L1608.58 72.576 Q1599.95 72.576 1596.67 69.3758 Q1593.39 66.1351 1593.39 57.6282 L1593.39 32.9987 L1587.92 32.9987 L1587.92 27.2059 L1593.39 27.2059 L1593.39 14.324 L1600.88 14.324 Z" fill="#000000" fill-rule="nonzero" fill-opacity="1" /><path clip-path="url(#clip210)" d="M1655.9 34.0924 L1655.9 9.54393 L1663.35 9.54393 L1663.35 72.576 L1655.9 72.576 L1655.9 65.7705 Q1653.55 69.8214 1649.94 71.8063 Q1646.38 73.7508 1641.35 73.7508 Q1633.13 73.7508 1627.94 67.1883 Q1622.8 60.6258 1622.8 49.9314 Q1622.8 39.2371 1627.94 32.6746 Q1633.13 26.1121 1641.35 26.1121 Q1646.38 26.1121 1649.94 28.0971 Q1653.55 30.0415 1655.9 34.0924 M1630.5 49.9314 Q1630.5 58.1548 1633.86 62.8538 Q1637.26 67.5124 1643.18 67.5124 Q1649.09 67.5124 1652.49 62.8538 Q1655.9 58.1548 1655.9 49.9314 Q1655.9 41.7081 1652.49 37.0496 Q1649.09 32.3505 1643.18 32.3505 Q1637.26 32.3505 1633.86 37.0496 Q1630.5 41.7081 1630.5 49.9314 Z" fill="#000000" fill-rule="nonzero" fill-opacity="1" /><path clip-path="url(#clip210)" d="M1679.76 62.2867 L1688.3 62.2867 L1688.3 72.576 L1679.76 72.576 L1679.76 62.2867 Z" fill="#000000" fill-rule="nonzero" fill-opacity="1" /><path clip-path="url(#clip210)" d="M1706.98 62.2867 L1715.52 62.2867 L1715.52 69.2543 L1708.88 82.2172 L1703.66 82.2172 L1706.98 69.2543 L1706.98 62.2867 Z" fill="#000000" fill-rule="nonzero" fill-opacity="1" /><path clip-path="url(#clip210)" d="M1790.67 20.0358 Q1786.54 17.2001 1776.86 17.2001 Q1766.61 17.2001 1766.61 21.9397 Q1766.61 25.6665 1777.3 27.611 Q1785.73 29.1098 1790.47 33.6468 Q1796.22 39.1155 1796.22 50.3365 Q1796.22 61.0714 1790.67 67.3908 Q1785.12 73.7508 1775.4 73.7508 Q1765.72 73.7508 1760.13 67.3908 Q1754.58 61.0714 1754.58 49.9314 Q1754.58 41.6676 1760.13 34.9836 Q1762.27 32.391 1765.31 30.9327 Q1758.99 27.7325 1758.99 22.0207 Q1758.99 11.0023 1776.86 11.0023 Q1785.81 11.0023 1790.67 13.8379 L1790.67 20.0358 M1770.9 32.9582 Q1768.15 34.1329 1765.92 37.0901 Q1762.43 41.6676 1762.43 49.9314 Q1762.43 58.1548 1765.88 62.7728 Q1769.36 67.4314 1775.4 67.4314 Q1781.35 67.4314 1784.84 62.7323 Q1788.32 58.0333 1788.32 50.3365 Q1788.32 42.2752 1784.63 38.3864 Q1780.7 34.2139 1775.6 33.7683 Q1773.01 33.5253 1770.9 32.9582 Z" fill="#000000" fill-rule="nonzero" fill-opacity="1" /><path clip-path="url(#clip210)" d="M1846.29 27.2059 L1829.88 49.2833 L1847.14 72.576 L1838.35 72.576 L1825.14 54.752 L1811.94 72.576 L1803.15 72.576 L1820.77 48.8377 L1804.64 27.2059 L1813.43 27.2059 L1825.47 43.369 L1837.5 27.2059 L1846.29 27.2059 Z" fill="#000000" fill-rule="nonzero" fill-opacity="1" /><path clip-path="url(#clip210)" d="M1858.64 34.9026 L1910.58 34.9026 L1910.58 41.7081 L1858.64 41.7081 L1858.64 34.9026 M1858.64 51.4303 L1910.58 51.4303 L1910.58 58.3168 L1858.64 58.3168 L1858.64 51.4303 Z" fill="#000000" fill-rule="nonzero" fill-opacity="1" /><path clip-path="url(#clip210)" d="M1945.74 17.4837 Q1939.42 17.4837 1936.22 23.7221 Q1933.06 29.92 1933.06 42.3968 Q1933.06 54.833 1936.22 61.0714 Q1939.42 67.2693 1945.74 67.2693 Q1952.1 67.2693 1955.26 61.0714 Q1958.46 54.833 1958.46 42.3968 Q1958.46 29.92 1955.26 23.7221 Q1952.1 17.4837 1945.74 17.4837 M1945.74 11.0023 Q1955.91 11.0023 1961.25 19.0636 Q1966.64 27.0843 1966.64 42.3968 Q1966.64 57.6687 1961.25 65.73 Q1955.91 73.7508 1945.74 73.7508 Q1935.57 73.7508 1930.18 65.73 Q1924.83 57.6687 1924.83 42.3968 Q1924.83 27.0843 1930.18 19.0636 Q1935.57 11.0023 1945.74 11.0023 Z" fill="#000000" fill-rule="nonzero" fill-opacity="1" /><path clip-path="url(#clip210)" d="M1981.02 62.2867 L1989.57 62.2867 L1989.57 72.576 L1981.02 72.576 L1981.02 62.2867 Z" fill="#000000" fill-rule="nonzero" fill-opacity="1" /><path clip-path="url(#clip210)" d="M2014.44 65.6895 L2043 65.6895 L2043 72.576 L2004.6 72.576 L2004.6 65.6895 Q2009.26 60.8689 2017.28 52.7671 Q2025.34 44.6248 2027.4 42.2752 Q2031.33 37.8598 2032.87 34.8216 Q2034.45 31.7429 2034.45 28.7857 Q2034.45 23.9651 2031.05 20.927 Q2027.69 17.8888 2022.26 17.8888 Q2018.41 17.8888 2014.12 19.2256 Q2009.86 20.5624 2005 23.2765 L2005 15.0127 Q2009.94 13.0277 2014.24 12.015 Q2018.53 11.0023 2022.1 11.0023 Q2031.5 11.0023 2037.09 15.7013 Q2042.68 20.4004 2042.68 28.2591 Q2042.68 31.9859 2041.26 35.3482 Q2039.88 38.6699 2036.19 43.2069 Q2035.18 44.3817 2029.75 50.0125 Q2024.33 55.6027 2014.44 65.6895 Z" fill="#000000" fill-rule="nonzero" fill-opacity="1" /><path clip-path="url(#clip212)" d="M280.231 1321.99 L300.556 1335.6 L320.881 1324.89 L341.206 1343.1 L361.53 1350.1 L381.855 1353.44 L402.18 1349.47 L422.505 1360.3 L442.83 1363.58 L463.155 1364.97 L483.48 1371.84 L503.804 1373.79 L524.129 1369.76 L544.454 1371.02 L564.779 1381.8 L585.104 1368.43 L605.429 1371.14 L625.753 1361.69 L646.078 1364.65 L666.403 1355.52 L686.728 1342.28 L707.053 1329.61 L727.378 1331.82 L747.703 1329.17 L768.027 1315.69 L788.352 1314.68 L808.677 1296.02 L829.002 1304.34 L849.327 1287.07 L869.652 1271.32 L889.977 1277.68 L910.301 1256.63 L930.626 1259.72 L950.951 1261.8 L971.276 1246.55 L991.601 1244.47 L1011.93 1248.13 L1032.25 1235.02 L1052.58 1244.09 L1072.9 1236.22 L1093.23 1247.5 L1113.55 1248.44 L1133.87 1263.06 L1154.2 1282.41 L1174.52 1267.16 L1194.85 1275.35 L1215.17 1289.78 L1235.5 1287.83 L1255.82 1315.12 L1276.15 1320.41 L1296.47 1323.56 L1316.8 1334.72 L1337.12 1335.47 L1357.45 1342.34 L1377.77 1359.04 L1398.1 1353.37 L1418.42 1366.86 L1438.75 1351.99 L1459.07 1384.32 L1479.4 1377.89 L1499.72 1361.75 L1520.05 1369.95 L1540.37 1386.4 L1560.7 1382.8 L1581.02 1378.52 L1601.35 1360.18 L1621.67 1365.22 L1642 1354.38 L1662.32 1354.38 L1682.65 1346.76 L1702.97 1341.97 L1723.3 1352.49 L1743.62 1339.57 L1763.95 1313.8 L1784.27 1319.15 L1804.59 1295.08 L1824.92 1302.39 L1845.24 1294.83 L1865.57 1280.96 L1885.89 1286.25 L1906.22 1267.79 L1926.54 1246.36 L1946.87 1258.21 L1967.19 1251.91 L1987.52 1256.19 L2007.84 1246.11 L2028.17 1248.19 L2048.49 1241.45 L2068.82 1253.29 L2089.14 1245.86 L2109.47 1261.68 L2129.79 1258.84 L2150.12 1259.47 L2170.44 1265.46 L2190.77 1273.59 L2211.09 1300.31 L2231.42 1291.17 L2251.74 1316.76 L2272.07 1298.04 L2292.39 1317.01 L2292.39 242.247 L2272.07 223.278 L2251.74 241.995 L2231.42 216.408 L2211.09 225.546 L2190.77 198.825 L2170.44 190.696 L2150.12 184.709 L2129.79 184.078 L2109.47 186.914 L2089.14 171.096 L2068.82 178.532 L2048.49 166.684 L2028.17 173.428 L2007.84 171.348 L1987.52 181.431 L1967.19 177.146 L1946.87 183.448 L1926.54 171.6 L1906.22 193.027 L1885.89 211.493 L1865.57 206.199 L1845.24 220.063 L1824.92 227.626 L1804.59 220.316 L1784.27 244.39 L1763.95 239.033 L1743.62 264.809 L1723.3 277.728 L1702.97 267.203 L1682.65 271.993 L1662.32 279.619 L1642 279.619 L1621.67 290.458 L1601.35 285.417 L1581.02 303.756 L1560.7 308.041 L1540.37 311.633 L1520.05 295.185 L1499.72 286.992 L1479.4 303.126 L1459.07 309.554 L1438.75 277.224 L1418.42 292.097 L1398.1 278.61 L1377.77 284.282 L1357.45 267.582 L1337.12 260.712 L1316.8 259.956 L1296.47 248.801 L1276.15 245.65 L1255.82 240.356 L1235.5 213.068 L1215.17 215.022 L1194.85 200.59 L1174.52 192.397 L1154.2 207.648 L1133.87 188.301 L1113.55 173.68 L1093.23 172.735 L1072.9 161.454 L1052.58 169.331 L1032.25 160.256 L1011.93 173.365 L991.601 169.709 L971.276 171.789 L950.951 187.04 L930.626 184.961 L910.301 181.873 L889.977 202.922 L869.652 196.557 L849.327 212.312 L829.002 229.58 L808.677 221.261 L788.352 239.915 L768.027 240.924 L747.703 254.41 L727.378 257.057 L707.053 254.851 L686.728 267.519 L666.403 280.753 L646.078 289.891 L625.753 286.929 L605.429 296.382 L585.104 293.672 L564.779 307.033 L544.454 296.256 L524.129 294.996 L503.804 299.029 L483.48 297.075 L463.155 290.206 L442.83 288.82 L422.505 285.543 L402.18 274.703 L381.855 278.673 L361.53 275.333 L341.206 268.338 L320.881 250.125 L300.556 260.838 L280.231 247.226  Z" fill="#009af9" fill-rule="evenodd" fill-opacity="0.5"/>
<polyline clip-path="url(#clip212)" style="stroke:#009af9; stroke-linecap:round; stroke-linejoin:round; stroke-width:8; stroke-opacity:0.8; fill:none" points="280.231,784.607 300.556,798.219 320.881,787.506 341.206,805.719 361.53,812.714 381.855,816.054 402.18,812.084 422.505,822.924 442.83,826.201 463.155,827.587 483.48,834.457 503.804,836.41 524.129,832.377 544.454,833.637 564.779,844.414 585.104,831.053 605.429,833.763 625.753,824.31 646.078,827.272 666.403,818.134 686.728,804.9 707.053,792.232 727.378,794.438 747.703,791.791 768.027,778.305 788.352,777.296 808.677,758.642 829.002,766.961 849.327,749.693 869.652,733.938 889.977,740.303 910.301,719.254 930.626,722.342 950.951,724.421 971.276,709.17 991.601,707.091 1011.93,710.746 1032.25,697.637 1052.58,706.712 1072.9,698.835 1093.23,710.116 1113.55,711.061 1133.87,725.682 1154.2,745.029 1174.52,729.778 1194.85,737.971 1215.17,752.403 1235.5,750.449 1255.82,777.737 1276.15,783.031 1296.47,786.182 1316.8,797.337 1337.12,798.093 1357.45,804.963 1377.77,821.663 1398.1,815.991 1418.42,829.478 1438.75,814.605 1459.07,846.935 1479.4,840.507 1499.72,824.373 1520.05,832.566 1540.37,849.015 1560.7,845.422 1581.02,841.137 1601.35,822.798 1621.67,827.839 1642,817 1662.32,817 1682.65,809.374 1702.97,804.585 1723.3,815.109 1743.62,802.19 1763.95,776.414 1784.27,781.771 1804.59,757.697 1824.92,765.007 1845.24,757.445 1865.57,743.58 1885.89,748.874 1906.22,730.408 1926.54,708.981 1946.87,720.829 1967.19,714.527 1987.52,718.813 2007.84,708.729 2028.17,710.809 2048.49,704.066 2068.82,715.914 2089.14,708.477 2109.47,724.295 2129.79,721.459 2150.12,722.09 2170.44,728.077 2190.77,736.206 2211.09,762.927 2231.42,753.789 2251.74,779.376 2272.07,760.659 2292.39,779.628 "/>
<path clip-path="url(#clip212)" d="M280.231 1001.41 L300.556 1001.7 L320.881 1002.05 L341.206 1002.45 L361.53 1002.89 L381.855 1003.37 L402.18 1003.89 L422.505 1004.44 L442.83 1005.01 L463.155 1005.59 L483.48 1006.17 L503.804 1006.74 L524.129 1007.29 L544.454 1007.81 L564.779 1008.28 L585.104 1008.7 L605.429 1009.06 L625.753 1009.36 L646.078 1009.58 L666.403 1009.73 L686.728 1009.81 L707.053 1009.82 L727.378 1009.76 L747.703 1009.63 L768.027 1009.44 L788.352 1009.19 L808.677 1008.88 L829.002 1008.52 L849.327 1008.12 L869.652 1007.66 L889.977 1007.17 L910.301 1006.64 L930.626 1006.09 L950.951 1005.52 L971.276 1004.94 L991.601 1004.36 L1011.93 1003.79 L1032.25 1003.25 L1052.58 1002.74 L1072.9 1002.28 L1093.23 1001.87 L1113.55 1001.53 L1133.87 1001.25 L1154.2 1001.04 L1174.52 1000.91 L1194.85 1000.85 L1215.17 1000.86 L1235.5 1000.94 L1255.82 1001.08 L1276.15 1001.29 L1296.47 1001.55 L1316.8 1001.87 L1337.12 1002.24 L1357.45 1002.66 L1377.77 1003.13 L1398.1 1003.63 L1418.42 1004.16 L1438.75 1004.72 L1459.07 1005.3 L1479.4 1005.88 L1499.72 1006.46 L1520.05 1007.02 L1540.37 1007.56 L1560.7 1008.05 L1581.02 1008.5 L1601.35 1008.89 L1621.67 1009.22 L1642 1009.48 L1662.32 1009.67 L1682.65 1009.78 L1702.97 1009.83 L1723.3 1009.8 L1743.62 1009.7 L1763.95 1009.54 L1784.27 1009.32 L1804.59 1009.04 L1824.92 1008.71 L1845.24 1008.33 L1865.57 1007.9 L1885.89 1007.42 L1906.22 1006.91 L1926.54 1006.37 L1946.87 1005.81 L1967.19 1005.23 L1987.52 1004.65 L2007.84 1004.07 L2028.17 1003.51 L2048.49 1002.99 L2068.82 1002.5 L2089.14 1002.07 L2109.47 1001.69 L2129.79 1001.38 L2150.12 1001.14 L2170.44 1000.97 L2190.77 1000.87 L2211.09 1000.84 L2231.42 1000.89 L2251.74 1001 L2272.07 1001.17 L2292.39 1001.41 L2292.39 492.945 L2272.07 492.708 L2251.74 492.533 L2231.42 492.422 L2211.09 492.378 L2190.77 492.404 L2170.44 492.501 L2150.12 492.671 L2129.79 492.913 L2109.47 493.225 L2089.14 493.601 L2068.82 494.036 L2048.49 494.522 L2028.17 495.048 L2007.84 495.605 L1987.52 496.18 L1967.19 496.762 L1946.87 497.34 L1926.54 497.904 L1906.22 498.445 L1885.89 498.956 L1865.57 499.429 L1845.24 499.86 L1824.92 500.244 L1804.59 500.578 L1784.27 500.857 L1763.95 501.079 L1743.62 501.238 L1723.3 501.333 L1702.97 501.36 L1682.65 501.316 L1662.32 501.201 L1642 501.013 L1621.67 500.753 L1601.35 500.425 L1581.02 500.034 L1560.7 499.586 L1540.37 499.089 L1520.05 498.554 L1499.72 497.992 L1479.4 497.414 L1459.07 496.832 L1438.75 496.256 L1418.42 495.697 L1398.1 495.163 L1377.77 494.661 L1357.45 494.197 L1337.12 493.777 L1316.8 493.405 L1296.47 493.084 L1276.15 492.819 L1255.82 492.613 L1235.5 492.469 L1215.17 492.391 L1194.85 492.382 L1174.52 492.443 L1154.2 492.577 L1133.87 492.784 L1113.55 493.061 L1093.23 493.405 L1072.9 493.812 L1052.58 494.273 L1032.25 494.78 L1011.93 495.323 L991.601 495.891 L971.276 496.471 L950.951 497.052 L930.626 497.624 L910.301 498.178 L889.977 498.705 L869.652 499.197 L849.327 499.65 L829.002 500.058 L808.677 500.418 L788.352 500.725 L768.027 500.975 L747.703 501.166 L727.378 501.294 L707.053 501.355 L686.728 501.347 L666.403 501.268 L646.078 501.116 L625.753 500.892 L605.429 500.598 L585.104 500.237 L564.779 499.816 L544.454 499.343 L524.129 498.826 L503.804 498.276 L483.48 497.704 L463.155 497.123 L442.83 496.542 L422.505 495.974 L402.18 495.426 L381.855 494.907 L361.53 494.424 L341.206 493.981 L320.881 493.585 L300.556 493.238 L280.231 492.945  Z" fill="#e26f46" fill-rule="evenodd" fill-opacity="0.5"/>
<polyline clip-path="url(#clip212)" style="stroke:#e26f46; stroke-linecap:round; stroke-linejoin:round; stroke-width:8; stroke-opacity:0.8; fill:none" points="280.231,747.178 300.556,747.471 320.881,747.818 341.206,748.215 361.53,748.657 381.855,749.14 402.18,749.659 422.505,750.207 442.83,750.776 463.155,751.356 483.48,751.937 503.804,752.509 524.129,753.059 544.454,753.576 564.779,754.049 585.104,754.47 605.429,754.831 625.753,755.125 646.078,755.349 666.403,755.501 686.728,755.58 707.053,755.588 727.378,755.527 747.703,755.399 768.027,755.209 788.352,754.958 808.677,754.651 829.002,754.291 849.327,753.883 869.652,753.43 889.977,752.938 910.301,752.411 930.626,751.857 950.951,751.285 971.276,750.704 991.601,750.124 1011.93,749.556 1032.25,749.014 1052.58,748.506 1072.9,748.045 1093.23,747.638 1113.55,747.294 1133.87,747.017 1154.2,746.81 1174.52,746.677 1194.85,746.615 1215.17,746.624 1235.5,746.702 1255.82,746.846 1276.15,747.052 1296.47,747.317 1316.8,747.638 1337.12,748.01 1357.45,748.43 1377.77,748.894 1398.1,749.396 1418.42,749.93 1438.75,750.489 1459.07,751.065 1479.4,751.647 1499.72,752.225 1520.05,752.787 1540.37,753.322 1560.7,753.819 1581.02,754.267 1601.35,754.659 1621.67,754.986 1642,755.246 1662.32,755.434 1682.65,755.549 1702.97,755.593 1723.3,755.566 1743.62,755.471 1763.95,755.312 1784.27,755.09 1804.59,754.811 1824.92,754.477 1845.24,754.093 1865.57,753.662 1885.89,753.189 1906.22,752.678 1926.54,752.137 1946.87,751.573 1967.19,750.995 1987.52,750.413 2007.84,749.838 2028.17,749.281 2048.49,748.755 2068.82,748.269 2089.14,747.834 2109.47,747.458 2129.79,747.147 2150.12,746.905 2170.44,746.734 2190.77,746.637 2211.09,746.611 2231.42,746.655 2251.74,746.766 2272.07,746.942 2292.39,747.178 "/>
<path clip-path="url(#clip210)" d="M1565.06 322.316 L2281.66 322.316 L2281.66 166.796 L1565.06 166.796  Z" fill="#ffffff" fill-rule="evenodd" fill-opacity="1"/>
<polyline clip-path="url(#clip210)" style="stroke:#000000; stroke-linecap:round; stroke-linejoin:round; stroke-width:4; stroke-opacity:1; fill:none" points="1565.06,322.316 2281.66,322.316 2281.66,166.796 1565.06,166.796 1565.06,322.316 "/>
<polyline clip-path="url(#clip210)" style="stroke:#009af9; stroke-linecap:round; stroke-linejoin:round; stroke-width:8; stroke-opacity:0.8; fill:none" points="1588.76,218.636 1730.95,218.636 "/>
<path clip-path="url(#clip210)" d="M1754.65 201.356 L1761.62 201.356 L1770.44 224.874 L1779.31 201.356 L1786.27 201.356 L1786.27 235.916 L1781.71 235.916 L1781.71 205.569 L1772.8 229.272 L1768.1 229.272 L1759.19 205.569 L1759.19 235.916 L1754.65 235.916 L1754.65 201.356 Z" fill="#000000" fill-rule="nonzero" fill-opacity="1" /><path clip-path="url(#clip210)" d="M1800.23 205.198 L1800.23 218.184 L1806.11 218.184 Q1809.38 218.184 1811.16 216.495 Q1812.94 214.805 1812.94 211.68 Q1812.94 208.578 1811.16 206.888 Q1809.38 205.198 1806.11 205.198 L1800.23 205.198 M1795.56 201.356 L1806.11 201.356 Q1811.92 201.356 1814.88 203.995 Q1817.87 206.61 1817.87 211.68 Q1817.87 216.795 1814.88 219.411 Q1811.92 222.027 1806.11 222.027 L1800.23 222.027 L1800.23 235.916 L1795.56 235.916 L1795.56 201.356 Z" fill="#000000" fill-rule="nonzero" fill-opacity="1" /><path clip-path="url(#clip210)" d="M1844.86 202.49 L1844.86 207.05 Q1842.2 205.777 1839.84 205.152 Q1837.48 204.527 1835.28 204.527 Q1831.46 204.527 1829.38 206.008 Q1827.31 207.49 1827.31 210.221 Q1827.31 212.513 1828.68 213.694 Q1830.07 214.851 1833.91 215.569 L1836.74 216.147 Q1841.97 217.143 1844.44 219.666 Q1846.94 222.166 1846.94 226.379 Q1846.94 231.402 1843.56 233.994 Q1840.21 236.587 1833.7 236.587 Q1831.25 236.587 1828.47 236.031 Q1825.72 235.476 1822.75 234.388 L1822.75 229.573 Q1825.6 231.17 1828.33 231.981 Q1831.06 232.791 1833.7 232.791 Q1837.71 232.791 1839.88 231.217 Q1842.06 229.643 1842.06 226.726 Q1842.06 224.18 1840.49 222.744 Q1838.94 221.309 1835.37 220.592 L1832.52 220.036 Q1827.29 218.995 1824.95 216.772 Q1822.62 214.55 1822.62 210.592 Q1822.62 206.008 1825.83 203.37 Q1829.07 200.731 1834.75 200.731 Q1837.18 200.731 1839.7 201.171 Q1842.22 201.61 1844.86 202.49 Z" fill="#000000" fill-rule="nonzero" fill-opacity="1" /><path clip-path="url(#clip210)" d="M1873.98 205.198 L1873.98 232.073 L1879.63 232.073 Q1886.78 232.073 1890.09 228.832 Q1893.43 225.592 1893.43 218.601 Q1893.43 211.657 1890.09 208.439 Q1886.78 205.198 1879.63 205.198 L1873.98 205.198 M1869.31 201.356 L1878.91 201.356 Q1888.96 201.356 1893.66 205.546 Q1898.36 209.712 1898.36 218.601 Q1898.36 227.536 1893.63 231.726 Q1888.91 235.916 1878.91 235.916 L1869.31 235.916 L1869.31 201.356 Z" fill="#000000" fill-rule="nonzero" fill-opacity="1" /><path clip-path="url(#clip210)" d="M1905.62 209.99 L1909.88 209.99 L1909.88 235.916 L1905.62 235.916 L1905.62 209.99 M1905.62 199.897 L1909.88 199.897 L1909.88 205.291 L1905.62 205.291 L1905.62 199.897 Z" fill="#000000" fill-rule="nonzero" fill-opacity="1" /><path clip-path="url(#clip210)" d="M1935.32 210.754 L1935.32 214.782 Q1933.52 213.856 1931.57 213.393 Q1929.63 212.93 1927.55 212.93 Q1924.37 212.93 1922.78 213.902 Q1921.2 214.874 1921.2 216.819 Q1921.2 218.3 1922.34 219.157 Q1923.47 219.99 1926.9 220.754 L1928.36 221.078 Q1932.89 222.05 1934.79 223.832 Q1936.71 225.592 1936.71 228.763 Q1936.71 232.374 1933.84 234.481 Q1930.99 236.587 1925.99 236.587 Q1923.91 236.587 1921.64 236.17 Q1919.4 235.777 1916.9 234.967 L1916.9 230.569 Q1919.26 231.795 1921.55 232.42 Q1923.84 233.022 1926.09 233.022 Q1929.1 233.022 1930.72 232.004 Q1932.34 230.962 1932.34 229.087 Q1932.34 227.351 1931.16 226.425 Q1930 225.499 1926.04 224.643 L1924.56 224.295 Q1920.6 223.462 1918.84 221.749 Q1917.08 220.013 1917.08 217.004 Q1917.08 213.346 1919.68 211.356 Q1922.27 209.365 1927.04 209.365 Q1929.4 209.365 1931.48 209.712 Q1933.56 210.059 1935.32 210.754 Z" fill="#000000" fill-rule="nonzero" fill-opacity="1" /><path clip-path="url(#clip210)" d="M1947.71 202.629 L1947.71 209.99 L1956.48 209.99 L1956.48 213.3 L1947.71 213.3 L1947.71 227.374 Q1947.71 230.545 1948.56 231.448 Q1949.44 232.351 1952.11 232.351 L1956.48 232.351 L1956.48 235.916 L1952.11 235.916 Q1947.18 235.916 1945.3 234.087 Q1943.43 232.235 1943.43 227.374 L1943.43 213.3 L1940.3 213.3 L1940.3 209.99 L1943.43 209.99 L1943.43 202.629 L1947.71 202.629 Z" fill="#000000" fill-rule="nonzero" fill-opacity="1" /><path clip-path="url(#clip210)" d="M1977.11 213.971 Q1976.39 213.555 1975.53 213.37 Q1974.7 213.161 1973.68 213.161 Q1970.07 213.161 1968.12 215.522 Q1966.2 217.86 1966.2 222.258 L1966.2 235.916 L1961.92 235.916 L1961.92 209.99 L1966.2 209.99 L1966.2 214.018 Q1967.55 211.657 1969.7 210.522 Q1971.85 209.365 1974.93 209.365 Q1975.37 209.365 1975.9 209.434 Q1976.43 209.481 1977.08 209.596 L1977.11 213.971 Z" fill="#000000" fill-rule="nonzero" fill-opacity="1" /><path clip-path="url(#clip210)" d="M1981.57 209.99 L1985.83 209.99 L1985.83 235.916 L1981.57 235.916 L1981.57 209.99 M1981.57 199.897 L1985.83 199.897 L1985.83 205.291 L1981.57 205.291 L1981.57 199.897 Z" fill="#000000" fill-rule="nonzero" fill-opacity="1" /><path clip-path="url(#clip210)" d="M2013.36 222.976 Q2013.36 218.277 2011.41 215.615 Q2009.49 212.93 2006.11 212.93 Q2002.73 212.93 2000.79 215.615 Q1998.86 218.277 1998.86 222.976 Q1998.86 227.675 2000.79 230.36 Q2002.73 233.022 2006.11 233.022 Q2009.49 233.022 2011.41 230.36 Q2013.36 227.675 2013.36 222.976 M1998.86 213.925 Q2000.21 211.61 2002.24 210.499 Q2004.3 209.365 2007.15 209.365 Q2011.87 209.365 2014.81 213.115 Q2017.78 216.865 2017.78 222.976 Q2017.78 229.087 2014.81 232.837 Q2011.87 236.587 2007.15 236.587 Q2004.3 236.587 2002.24 235.476 Q2000.21 234.342 1998.86 232.027 L1998.86 235.916 L1994.58 235.916 L1994.58 199.897 L1998.86 199.897 L1998.86 213.925 Z" fill="#000000" fill-rule="nonzero" fill-opacity="1" /><path clip-path="url(#clip210)" d="M2024.4 225.684 L2024.4 209.99 L2028.66 209.99 L2028.66 225.522 Q2028.66 229.203 2030.09 231.055 Q2031.53 232.883 2034.4 232.883 Q2037.85 232.883 2039.84 230.684 Q2041.85 228.485 2041.85 224.689 L2041.85 209.99 L2046.11 209.99 L2046.11 235.916 L2041.85 235.916 L2041.85 231.934 Q2040.3 234.295 2038.24 235.453 Q2036.2 236.587 2033.49 236.587 Q2029.03 236.587 2026.71 233.809 Q2024.4 231.031 2024.4 225.684 M2035.11 209.365 L2035.11 209.365 Z" fill="#000000" fill-rule="nonzero" fill-opacity="1" /><path clip-path="url(#clip210)" d="M2059.1 202.629 L2059.1 209.99 L2067.87 209.99 L2067.87 213.3 L2059.1 213.3 L2059.1 227.374 Q2059.1 230.545 2059.95 231.448 Q2060.83 232.351 2063.49 232.351 L2067.87 232.351 L2067.87 235.916 L2063.49 235.916 Q2058.56 235.916 2056.69 234.087 Q2054.81 232.235 2054.81 227.374 L2054.81 213.3 L2051.69 213.3 L2051.69 209.99 L2054.81 209.99 L2054.81 202.629 L2059.1 202.629 Z" fill="#000000" fill-rule="nonzero" fill-opacity="1" /><path clip-path="url(#clip210)" d="M2073.47 209.99 L2077.73 209.99 L2077.73 235.916 L2073.47 235.916 L2073.47 209.99 M2073.47 199.897 L2077.73 199.897 L2077.73 205.291 L2073.47 205.291 L2073.47 199.897 Z" fill="#000000" fill-rule="nonzero" fill-opacity="1" /><path clip-path="url(#clip210)" d="M2096.69 212.976 Q2093.26 212.976 2091.27 215.661 Q2089.28 218.323 2089.28 222.976 Q2089.28 227.629 2091.25 230.314 Q2093.24 232.976 2096.69 232.976 Q2100.09 232.976 2102.08 230.291 Q2104.07 227.606 2104.07 222.976 Q2104.07 218.37 2102.08 215.684 Q2100.09 212.976 2096.69 212.976 M2096.69 209.365 Q2102.24 209.365 2105.42 212.976 Q2108.59 216.587 2108.59 222.976 Q2108.59 229.342 2105.42 232.976 Q2102.24 236.587 2096.69 236.587 Q2091.11 236.587 2087.94 232.976 Q2084.79 229.342 2084.79 222.976 Q2084.79 216.587 2087.94 212.976 Q2091.11 209.365 2096.69 209.365 Z" fill="#000000" fill-rule="nonzero" fill-opacity="1" /><path clip-path="url(#clip210)" d="M2137.2 220.268 L2137.2 235.916 L2132.94 235.916 L2132.94 220.407 Q2132.94 216.726 2131.5 214.897 Q2130.07 213.069 2127.2 213.069 Q2123.75 213.069 2121.76 215.268 Q2119.77 217.467 2119.77 221.263 L2119.77 235.916 L2115.48 235.916 L2115.48 209.99 L2119.77 209.99 L2119.77 214.018 Q2121.29 211.68 2123.36 210.522 Q2125.44 209.365 2128.15 209.365 Q2132.61 209.365 2134.91 212.143 Q2137.2 214.897 2137.2 220.268 Z" fill="#000000" fill-rule="nonzero" fill-opacity="1" /><polyline clip-path="url(#clip210)" style="stroke:#e26f46; stroke-linecap:round; stroke-linejoin:round; stroke-width:8; stroke-opacity:0.8; fill:none" points="1588.76,270.476 1730.95,270.476 "/>
<path clip-path="url(#clip210)" d="M1754.65 253.196 L1776.51 253.196 L1776.51 257.131 L1759.33 257.131 L1759.33 267.362 L1775.79 267.362 L1775.79 271.297 L1759.33 271.297 L1759.33 283.821 L1776.92 283.821 L1776.92 287.756 L1754.65 287.756 L1754.65 253.196 Z" fill="#000000" fill-rule="nonzero" fill-opacity="1" /><path clip-path="url(#clip210)" d="M1804.61 266.807 Q1806.2 263.936 1808.43 262.571 Q1810.65 261.205 1813.66 261.205 Q1817.71 261.205 1819.91 264.052 Q1822.11 266.876 1822.11 272.108 L1822.11 287.756 L1817.82 287.756 L1817.82 272.247 Q1817.82 268.52 1816.5 266.714 Q1815.19 264.909 1812.48 264.909 Q1809.17 264.909 1807.25 267.108 Q1805.32 269.307 1805.32 273.103 L1805.32 287.756 L1801.04 287.756 L1801.04 272.247 Q1801.04 268.497 1799.72 266.714 Q1798.4 264.909 1795.65 264.909 Q1792.38 264.909 1790.46 267.131 Q1788.54 269.33 1788.54 273.103 L1788.54 287.756 L1784.26 287.756 L1784.26 261.83 L1788.54 261.83 L1788.54 265.858 Q1790 263.473 1792.04 262.339 Q1794.07 261.205 1796.88 261.205 Q1799.7 261.205 1801.67 262.64 Q1803.66 264.075 1804.61 266.807 Z" fill="#000000" fill-rule="nonzero" fill-opacity="1" /><path clip-path="url(#clip210)" d="M1834.72 283.867 L1834.72 297.617 L1830.44 297.617 L1830.44 261.83 L1834.72 261.83 L1834.72 265.765 Q1836.06 263.45 1838.1 262.339 Q1840.16 261.205 1843.01 261.205 Q1847.73 261.205 1850.67 264.955 Q1853.63 268.705 1853.63 274.816 Q1853.63 280.927 1850.67 284.677 Q1847.73 288.427 1843.01 288.427 Q1840.16 288.427 1838.1 287.316 Q1836.06 286.182 1834.72 283.867 M1849.21 274.816 Q1849.21 270.117 1847.27 267.455 Q1845.35 264.77 1841.97 264.77 Q1838.59 264.77 1836.64 267.455 Q1834.72 270.117 1834.72 274.816 Q1834.72 279.515 1836.64 282.2 Q1838.59 284.862 1841.97 284.862 Q1845.35 284.862 1847.27 282.2 Q1849.21 279.515 1849.21 274.816 Z" fill="#000000" fill-rule="nonzero" fill-opacity="1" /><path clip-path="url(#clip210)" d="M1860.69 261.83 L1864.95 261.83 L1864.95 287.756 L1860.69 287.756 L1860.69 261.83 M1860.69 251.737 L1864.95 251.737 L1864.95 257.131 L1860.69 257.131 L1860.69 251.737 Z" fill="#000000" fill-rule="nonzero" fill-opacity="1" /><path clip-path="url(#clip210)" d="M1888.89 265.811 Q1888.17 265.395 1887.31 265.21 Q1886.48 265.001 1885.46 265.001 Q1881.85 265.001 1879.91 267.362 Q1877.99 269.7 1877.99 274.098 L1877.99 287.756 L1873.7 287.756 L1873.7 261.83 L1877.99 261.83 L1877.99 265.858 Q1879.33 263.497 1881.48 262.362 Q1883.63 261.205 1886.71 261.205 Q1887.15 261.205 1887.69 261.274 Q1888.22 261.321 1888.87 261.436 L1888.89 265.811 Z" fill="#000000" fill-rule="nonzero" fill-opacity="1" /><path clip-path="url(#clip210)" d="M1893.36 261.83 L1897.62 261.83 L1897.62 287.756 L1893.36 287.756 L1893.36 261.83 M1893.36 251.737 L1897.62 251.737 L1897.62 257.131 L1893.36 257.131 L1893.36 251.737 Z" fill="#000000" fill-rule="nonzero" fill-opacity="1" /><path clip-path="url(#clip210)" d="M1925.18 262.825 L1925.18 266.807 Q1923.38 265.811 1921.55 265.325 Q1919.75 264.816 1917.89 264.816 Q1913.75 264.816 1911.46 267.455 Q1909.17 270.071 1909.17 274.816 Q1909.17 279.561 1911.46 282.2 Q1913.75 284.816 1917.89 284.816 Q1919.75 284.816 1921.55 284.33 Q1923.38 283.821 1925.18 282.825 L1925.18 286.76 Q1923.4 287.594 1921.48 288.01 Q1919.58 288.427 1917.43 288.427 Q1911.57 288.427 1908.12 284.746 Q1904.68 281.066 1904.68 274.816 Q1904.68 268.473 1908.15 264.839 Q1911.64 261.205 1917.71 261.205 Q1919.68 261.205 1921.55 261.622 Q1923.43 262.015 1925.18 262.825 Z" fill="#000000" fill-rule="nonzero" fill-opacity="1" /><path clip-path="url(#clip210)" d="M1944.37 274.723 Q1939.21 274.723 1937.22 275.904 Q1935.23 277.084 1935.23 279.932 Q1935.23 282.2 1936.71 283.543 Q1938.22 284.862 1940.79 284.862 Q1944.33 284.862 1946.46 282.362 Q1948.61 279.839 1948.61 275.672 L1948.61 274.723 L1944.37 274.723 M1952.87 272.964 L1952.87 287.756 L1948.61 287.756 L1948.61 283.821 Q1947.15 286.182 1944.98 287.316 Q1942.8 288.427 1939.65 288.427 Q1935.67 288.427 1933.31 286.205 Q1930.97 283.959 1930.97 280.209 Q1930.97 275.834 1933.89 273.612 Q1936.83 271.39 1942.64 271.39 L1948.61 271.39 L1948.61 270.973 Q1948.61 268.034 1946.67 266.436 Q1944.74 264.816 1941.25 264.816 Q1939.03 264.816 1936.92 265.348 Q1934.81 265.881 1932.87 266.946 L1932.87 263.01 Q1935.21 262.108 1937.41 261.668 Q1939.61 261.205 1941.69 261.205 Q1947.31 261.205 1950.09 264.122 Q1952.87 267.038 1952.87 272.964 Z" fill="#000000" fill-rule="nonzero" fill-opacity="1" /><path clip-path="url(#clip210)" d="M1961.64 251.737 L1965.9 251.737 L1965.9 287.756 L1961.64 287.756 L1961.64 251.737 Z" fill="#000000" fill-rule="nonzero" fill-opacity="1" /><path clip-path="url(#clip210)" d="M1994.74 257.038 L1994.74 283.913 L2000.39 283.913 Q2007.55 283.913 2010.86 280.672 Q2014.19 277.432 2014.19 270.441 Q2014.19 263.497 2010.86 260.279 Q2007.55 257.038 2000.39 257.038 L1994.74 257.038 M1990.07 253.196 L1999.68 253.196 Q2009.72 253.196 2014.42 257.386 Q2019.12 261.552 2019.12 270.441 Q2019.12 279.376 2014.4 283.566 Q2009.68 287.756 1999.68 287.756 L1990.07 287.756 L1990.07 253.196 Z" fill="#000000" fill-rule="nonzero" fill-opacity="1" /><path clip-path="url(#clip210)" d="M2026.39 261.83 L2030.65 261.83 L2030.65 287.756 L2026.39 287.756 L2026.39 261.83 M2026.39 251.737 L2030.65 251.737 L2030.65 257.131 L2026.39 257.131 L2026.39 251.737 Z" fill="#000000" fill-rule="nonzero" fill-opacity="1" /><path clip-path="url(#clip210)" d="M2056.09 262.594 L2056.09 266.622 Q2054.28 265.696 2052.34 265.233 Q2050.39 264.77 2048.31 264.77 Q2045.14 264.77 2043.54 265.742 Q2041.97 266.714 2041.97 268.659 Q2041.97 270.14 2043.1 270.997 Q2044.24 271.83 2047.66 272.594 L2049.12 272.918 Q2053.66 273.89 2055.55 275.672 Q2057.48 277.432 2057.48 280.603 Q2057.48 284.214 2054.61 286.321 Q2051.76 288.427 2046.76 288.427 Q2044.67 288.427 2042.41 288.01 Q2040.16 287.617 2037.66 286.807 L2037.66 282.409 Q2040.02 283.635 2042.31 284.26 Q2044.61 284.862 2046.85 284.862 Q2049.86 284.862 2051.48 283.844 Q2053.1 282.802 2053.1 280.927 Q2053.1 279.191 2051.92 278.265 Q2050.76 277.339 2046.8 276.483 L2045.32 276.135 Q2041.36 275.302 2039.61 273.589 Q2037.85 271.853 2037.85 268.844 Q2037.85 265.186 2040.44 263.196 Q2043.03 261.205 2047.8 261.205 Q2050.16 261.205 2052.24 261.552 Q2054.33 261.899 2056.09 262.594 Z" fill="#000000" fill-rule="nonzero" fill-opacity="1" /><path clip-path="url(#clip210)" d="M2068.47 254.469 L2068.47 261.83 L2077.24 261.83 L2077.24 265.14 L2068.47 265.14 L2068.47 279.214 Q2068.47 282.385 2069.33 283.288 Q2070.21 284.191 2072.87 284.191 L2077.24 284.191 L2077.24 287.756 L2072.87 287.756 Q2067.94 287.756 2066.06 285.927 Q2064.19 284.075 2064.19 279.214 L2064.19 265.14 L2061.06 265.14 L2061.06 261.83 L2064.19 261.83 L2064.19 254.469 L2068.47 254.469 Z" fill="#000000" fill-rule="nonzero" fill-opacity="1" /><path clip-path="url(#clip210)" d="M2097.87 265.811 Q2097.15 265.395 2096.3 265.21 Q2095.46 265.001 2094.44 265.001 Q2090.83 265.001 2088.89 267.362 Q2086.97 269.7 2086.97 274.098 L2086.97 287.756 L2082.68 287.756 L2082.68 261.83 L2086.97 261.83 L2086.97 265.858 Q2088.31 263.497 2090.46 262.362 Q2092.61 261.205 2095.69 261.205 Q2096.13 261.205 2096.67 261.274 Q2097.2 261.321 2097.85 261.436 L2097.87 265.811 Z" fill="#000000" fill-rule="nonzero" fill-opacity="1" /><path clip-path="url(#clip210)" d="M2102.34 261.83 L2106.6 261.83 L2106.6 287.756 L2102.34 287.756 L2102.34 261.83 M2102.34 251.737 L2106.6 251.737 L2106.6 257.131 L2102.34 257.131 L2102.34 251.737 Z" fill="#000000" fill-rule="nonzero" fill-opacity="1" /><path clip-path="url(#clip210)" d="M2134.12 274.816 Q2134.12 270.117 2132.17 267.455 Q2130.25 264.77 2126.87 264.77 Q2123.49 264.77 2121.55 267.455 Q2119.63 270.117 2119.63 274.816 Q2119.63 279.515 2121.55 282.2 Q2123.49 284.862 2126.87 284.862 Q2130.25 284.862 2132.17 282.2 Q2134.12 279.515 2134.12 274.816 M2119.63 265.765 Q2120.97 263.45 2123.01 262.339 Q2125.07 261.205 2127.92 261.205 Q2132.64 261.205 2135.58 264.955 Q2138.54 268.705 2138.54 274.816 Q2138.54 280.927 2135.58 284.677 Q2132.64 288.427 2127.92 288.427 Q2125.07 288.427 2123.01 287.316 Q2120.97 286.182 2119.63 283.867 L2119.63 287.756 L2115.35 287.756 L2115.35 251.737 L2119.63 251.737 L2119.63 265.765 Z" fill="#000000" fill-rule="nonzero" fill-opacity="1" /><path clip-path="url(#clip210)" d="M2145.16 277.524 L2145.16 261.83 L2149.42 261.83 L2149.42 277.362 Q2149.42 281.043 2150.85 282.895 Q2152.29 284.723 2155.16 284.723 Q2158.61 284.723 2160.6 282.524 Q2162.61 280.325 2162.61 276.529 L2162.61 261.83 L2166.87 261.83 L2166.87 287.756 L2162.61 287.756 L2162.61 283.774 Q2161.06 286.135 2159 287.293 Q2156.97 288.427 2154.26 288.427 Q2149.79 288.427 2147.48 285.649 Q2145.16 282.871 2145.16 277.524 M2155.88 261.205 L2155.88 261.205 Z" fill="#000000" fill-rule="nonzero" fill-opacity="1" /><path clip-path="url(#clip210)" d="M2179.86 254.469 L2179.86 261.83 L2188.63 261.83 L2188.63 265.14 L2179.86 265.14 L2179.86 279.214 Q2179.86 282.385 2180.72 283.288 Q2181.6 284.191 2184.26 284.191 L2188.63 284.191 L2188.63 287.756 L2184.26 287.756 Q2179.33 287.756 2177.45 285.927 Q2175.58 284.075 2175.58 279.214 L2175.58 265.14 L2172.45 265.14 L2172.45 261.83 L2175.58 261.83 L2175.58 254.469 L2179.86 254.469 Z" fill="#000000" fill-rule="nonzero" fill-opacity="1" /><path clip-path="url(#clip210)" d="M2194.23 261.83 L2198.49 261.83 L2198.49 287.756 L2194.23 287.756 L2194.23 261.83 M2194.23 251.737 L2198.49 251.737 L2198.49 257.131 L2194.23 257.131 L2194.23 251.737 Z" fill="#000000" fill-rule="nonzero" fill-opacity="1" /><path clip-path="url(#clip210)" d="M2217.45 264.816 Q2214.03 264.816 2212.04 267.501 Q2210.04 270.163 2210.04 274.816 Q2210.04 279.469 2212.01 282.154 Q2214 284.816 2217.45 284.816 Q2220.85 284.816 2222.85 282.131 Q2224.84 279.446 2224.84 274.816 Q2224.84 270.21 2222.85 267.524 Q2220.85 264.816 2217.45 264.816 M2217.45 261.205 Q2223.01 261.205 2226.18 264.816 Q2229.35 268.427 2229.35 274.816 Q2229.35 281.182 2226.18 284.816 Q2223.01 288.427 2217.45 288.427 Q2211.87 288.427 2208.7 284.816 Q2205.55 281.182 2205.55 274.816 Q2205.55 268.427 2208.7 264.816 Q2211.87 261.205 2217.45 261.205 Z" fill="#000000" fill-rule="nonzero" fill-opacity="1" /><path clip-path="url(#clip210)" d="M2257.96 272.108 L2257.96 287.756 L2253.7 287.756 L2253.7 272.247 Q2253.7 268.566 2252.27 266.737 Q2250.83 264.909 2247.96 264.909 Q2244.51 264.909 2242.52 267.108 Q2240.53 269.307 2240.53 273.103 L2240.53 287.756 L2236.25 287.756 L2236.25 261.83 L2240.53 261.83 L2240.53 265.858 Q2242.06 263.52 2244.12 262.362 Q2246.2 261.205 2248.91 261.205 Q2253.38 261.205 2255.67 263.983 Q2257.96 266.737 2257.96 272.108 Z" fill="#000000" fill-rule="nonzero" fill-opacity="1" /></svg>
