<?xml version="1.0" encoding="utf-8"?>
<svg xmlns="http://www.w3.org/2000/svg" xmlns:xlink="http://www.w3.org/1999/xlink" width="600" height="400" viewBox="0 0 2400 1600">
<defs>
  <clipPath id="clip030">
    <rect x="0" y="0" width="2400" height="1600"/>
  </clipPath>
</defs>
<path clip-path="url(#clip030)" d="M0 1600 L2400 1600 L2400 8.88178e-14 L0 8.88178e-14  Z" fill="#ffffff" fill-rule="evenodd" fill-opacity="1"/>
<defs>
  <clipPath id="clip031">
    <rect x="480" y="0" width="1681" height="1600"/>
  </clipPath>
</defs>
<path clip-path="url(#clip030)" d="M249.542 1423.18 L2352.76 1423.18 L2352.76 123.472 L249.542 123.472  Z" fill="#ffffff" fill-rule="evenodd" fill-opacity="1"/>
<defs>
  <clipPath id="clip032">
    <rect x="249" y="123" width="2104" height="1301"/>
  </clipPath>
</defs>
<polyline clip-path="url(#clip032)" style="stroke:#000000; stroke-linecap:round; stroke-linejoin:round; stroke-width:2; stroke-opacity:0.1; fill:none" points="289.025,1423.18 289.025,123.472 "/>
<polyline clip-path="url(#clip032)" style="stroke:#000000; stroke-linecap:round; stroke-linejoin:round; stroke-width:2; stroke-opacity:0.1; fill:none" points="790.076,1423.18 790.076,123.472 "/>
<polyline clip-path="url(#clip032)" style="stroke:#000000; stroke-linecap:round; stroke-linejoin:round; stroke-width:2; stroke-opacity:0.1; fill:none" points="1291.13,1423.18 1291.13,123.472 "/>
<polyline clip-path="url(#clip032)" style="stroke:#000000; stroke-linecap:round; stroke-linejoin:round; stroke-width:2; stroke-opacity:0.1; fill:none" points="1792.18,1423.18 1792.18,123.472 "/>
<polyline clip-path="url(#clip032)" style="stroke:#000000; stroke-linecap:round; stroke-linejoin:round; stroke-width:2; stroke-opacity:0.1; fill:none" points="2293.23,1423.18 2293.23,123.472 "/>
<polyline clip-path="url(#clip030)" style="stroke:#000000; stroke-linecap:round; stroke-linejoin:round; stroke-width:4; stroke-opacity:1; fill:none" points="249.542,1423.18 2352.76,1423.18 "/>
<polyline clip-path="url(#clip030)" style="stroke:#000000; stroke-linecap:round; stroke-linejoin:round; stroke-width:4; stroke-opacity:1; fill:none" points="289.025,1423.18 289.025,1404.28 "/>
<polyline clip-path="url(#clip030)" style="stroke:#000000; stroke-linecap:round; stroke-linejoin:round; stroke-width:4; stroke-opacity:1; fill:none" points="790.076,1423.18 790.076,1404.28 "/>
<polyline clip-path="url(#clip030)" style="stroke:#000000; stroke-linecap:round; stroke-linejoin:round; stroke-width:4; stroke-opacity:1; fill:none" points="1291.13,1423.18 1291.13,1404.28 "/>
<polyline clip-path="url(#clip030)" style="stroke:#000000; stroke-linecap:round; stroke-linejoin:round; stroke-width:4; stroke-opacity:1; fill:none" points="1792.18,1423.18 1792.18,1404.28 "/>
<polyline clip-path="url(#clip030)" style="stroke:#000000; stroke-linecap:round; stroke-linejoin:round; stroke-width:4; stroke-opacity:1; fill:none" points="2293.23,1423.18 2293.23,1404.28 "/>
<path clip-path="url(#clip030)" d="M289.025 1454.1 Q285.414 1454.1 283.585 1457.66 Q281.78 1461.2 281.78 1468.33 Q281.78 1475.44 283.585 1479.01 Q285.414 1482.55 289.025 1482.55 Q292.659 1482.55 294.465 1479.01 Q296.293 1475.44 296.293 1468.33 Q296.293 1461.2 294.465 1457.66 Q292.659 1454.1 289.025 1454.1 M289.025 1450.39 Q294.835 1450.39 297.891 1455 Q300.969 1459.58 300.969 1468.33 Q300.969 1477.06 297.891 1481.67 Q294.835 1486.25 289.025 1486.25 Q283.215 1486.25 280.136 1481.67 Q277.081 1477.06 277.081 1468.33 Q277.081 1459.58 280.136 1455 Q283.215 1450.39 289.025 1450.39 Z" fill="#000000" fill-rule="nonzero" fill-opacity="1" /><path clip-path="url(#clip030)" d="M769.347 1481.64 L785.667 1481.64 L785.667 1485.58 L763.722 1485.58 L763.722 1481.64 Q766.384 1478.89 770.968 1474.26 Q775.574 1469.61 776.755 1468.27 Q779 1465.74 779.88 1464.01 Q780.782 1462.25 780.782 1460.56 Q780.782 1457.8 778.838 1456.07 Q776.917 1454.33 773.815 1454.33 Q771.616 1454.33 769.162 1455.09 Q766.732 1455.86 763.954 1457.41 L763.954 1452.69 Q766.778 1451.55 769.232 1450.97 Q771.685 1450.39 773.722 1450.39 Q779.093 1450.39 782.287 1453.08 Q785.482 1455.77 785.482 1460.26 Q785.482 1462.39 784.671 1464.31 Q783.884 1466.2 781.778 1468.8 Q781.199 1469.47 778.097 1472.69 Q774.995 1475.88 769.347 1481.64 Z" fill="#000000" fill-rule="nonzero" fill-opacity="1" /><path clip-path="url(#clip030)" d="M795.528 1451.02 L813.884 1451.02 L813.884 1454.96 L799.81 1454.96 L799.81 1463.43 Q800.829 1463.08 801.847 1462.92 Q802.866 1462.73 803.884 1462.73 Q809.671 1462.73 813.051 1465.9 Q816.43 1469.08 816.43 1474.49 Q816.43 1480.07 812.958 1483.17 Q809.486 1486.25 803.167 1486.25 Q800.991 1486.25 798.722 1485.88 Q796.477 1485.51 794.069 1484.77 L794.069 1480.07 Q796.153 1481.2 798.375 1481.76 Q800.597 1482.32 803.074 1482.32 Q807.079 1482.32 809.417 1480.21 Q811.755 1478.1 811.755 1474.49 Q811.755 1470.88 809.417 1468.77 Q807.079 1466.67 803.074 1466.67 Q801.199 1466.67 799.324 1467.08 Q797.472 1467.5 795.528 1468.38 L795.528 1451.02 Z" fill="#000000" fill-rule="nonzero" fill-opacity="1" /><path clip-path="url(#clip030)" d="M1265.83 1451.02 L1284.18 1451.02 L1284.18 1454.96 L1270.11 1454.96 L1270.11 1463.43 Q1271.13 1463.08 1272.15 1462.92 Q1273.17 1462.73 1274.18 1462.73 Q1279.97 1462.73 1283.35 1465.9 Q1286.73 1469.08 1286.73 1474.49 Q1286.73 1480.07 1283.26 1483.17 Q1279.79 1486.25 1273.47 1486.25 Q1271.29 1486.25 1269.02 1485.88 Q1266.78 1485.51 1264.37 1484.77 L1264.37 1480.07 Q1266.45 1481.2 1268.67 1481.76 Q1270.9 1482.32 1273.37 1482.32 Q1277.38 1482.32 1279.72 1480.21 Q1282.05 1478.1 1282.05 1474.49 Q1282.05 1470.88 1279.72 1468.77 Q1277.38 1466.67 1273.37 1466.67 Q1271.5 1466.67 1269.62 1467.08 Q1267.77 1467.5 1265.83 1468.38 L1265.83 1451.02 Z" fill="#000000" fill-rule="nonzero" fill-opacity="1" /><path clip-path="url(#clip030)" d="M1305.94 1454.1 Q1302.33 1454.1 1300.5 1457.66 Q1298.7 1461.2 1298.7 1468.33 Q1298.7 1475.44 1300.5 1479.01 Q1302.33 1482.55 1305.94 1482.55 Q1309.58 1482.55 1311.38 1479.01 Q1313.21 1475.44 1313.21 1468.33 Q1313.21 1461.2 1311.38 1457.66 Q1309.58 1454.1 1305.94 1454.1 M1305.94 1450.39 Q1311.75 1450.39 1314.81 1455 Q1317.89 1459.58 1317.89 1468.33 Q1317.89 1477.06 1314.81 1481.67 Q1311.75 1486.25 1305.94 1486.25 Q1300.13 1486.25 1297.05 1481.67 Q1294 1477.06 1294 1468.33 Q1294 1459.58 1297.05 1455 Q1300.13 1450.39 1305.94 1450.39 Z" fill="#000000" fill-rule="nonzero" fill-opacity="1" /><path clip-path="url(#clip030)" d="M1766.03 1451.02 L1788.26 1451.02 L1788.26 1453.01 L1775.71 1485.58 L1770.83 1485.58 L1782.63 1454.96 L1766.03 1454.96 L1766.03 1451.02 Z" fill="#000000" fill-rule="nonzero" fill-opacity="1" /><path clip-path="url(#clip030)" d="M1797.42 1451.02 L1815.78 1451.02 L1815.78 1454.96 L1801.7 1454.96 L1801.7 1463.43 Q1802.72 1463.08 1803.74 1462.92 Q1804.76 1462.73 1805.78 1462.73 Q1811.57 1462.73 1814.95 1465.9 Q1818.33 1469.08 1818.33 1474.49 Q1818.33 1480.07 1814.85 1483.17 Q1811.38 1486.25 1805.06 1486.25 Q1802.89 1486.25 1800.62 1485.88 Q1798.37 1485.51 1795.96 1484.77 L1795.96 1480.07 Q1798.05 1481.2 1800.27 1481.76 Q1802.49 1482.32 1804.97 1482.32 Q1808.97 1482.32 1811.31 1480.21 Q1813.65 1478.1 1813.65 1474.49 Q1813.65 1470.88 1811.31 1468.77 Q1808.97 1466.67 1804.97 1466.67 Q1803.09 1466.67 1801.22 1467.08 Q1799.37 1467.5 1797.42 1468.38 L1797.42 1451.02 Z" fill="#000000" fill-rule="nonzero" fill-opacity="1" /><path clip-path="url(#clip030)" d="M2252.84 1481.64 L2260.48 1481.64 L2260.48 1455.28 L2252.17 1456.95 L2252.17 1452.69 L2260.43 1451.02 L2265.11 1451.02 L2265.11 1481.64 L2272.74 1481.64 L2272.74 1485.58 L2252.84 1485.58 L2252.84 1481.64 Z" fill="#000000" fill-rule="nonzero" fill-opacity="1" /><path clip-path="url(#clip030)" d="M2292.19 1454.1 Q2288.58 1454.1 2286.75 1457.66 Q2284.94 1461.2 2284.94 1468.33 Q2284.94 1475.44 2286.75 1479.01 Q2288.58 1482.55 2292.19 1482.55 Q2295.82 1482.55 2297.63 1479.01 Q2299.46 1475.44 2299.46 1468.33 Q2299.46 1461.2 2297.63 1457.66 Q2295.82 1454.1 2292.19 1454.1 M2292.19 1450.39 Q2298 1450.39 2301.06 1455 Q2304.13 1459.58 2304.13 1468.33 Q2304.13 1477.06 2301.06 1481.67 Q2298 1486.25 2292.19 1486.25 Q2286.38 1486.25 2283.3 1481.67 Q2280.24 1477.06 2280.24 1468.33 Q2280.24 1459.58 2283.3 1455 Q2286.38 1450.39 2292.19 1450.39 Z" fill="#000000" fill-rule="nonzero" fill-opacity="1" /><path clip-path="url(#clip030)" d="M2322.35 1454.1 Q2318.74 1454.1 2316.91 1457.66 Q2315.11 1461.2 2315.11 1468.33 Q2315.11 1475.44 2316.91 1479.01 Q2318.74 1482.55 2322.35 1482.55 Q2325.99 1482.55 2327.79 1479.01 Q2329.62 1475.44 2329.62 1468.33 Q2329.62 1461.2 2327.79 1457.66 Q2325.99 1454.1 2322.35 1454.1 M2322.35 1450.39 Q2328.16 1450.39 2331.22 1455 Q2334.3 1459.58 2334.3 1468.33 Q2334.3 1477.06 2331.22 1481.67 Q2328.16 1486.25 2322.35 1486.25 Q2316.54 1486.25 2313.46 1481.67 Q2310.41 1477.06 2310.41 1468.33 Q2310.41 1459.58 2313.46 1455 Q2316.54 1450.39 2322.35 1450.39 Z" fill="#000000" fill-rule="nonzero" fill-opacity="1" /><path clip-path="url(#clip030)" d="M1240.31 1522.27 L1240.31 1532.4 L1252.37 1532.4 L1252.37 1536.95 L1240.31 1536.95 L1240.31 1556.3 Q1240.31 1560.66 1241.49 1561.9 Q1242.7 1563.14 1246.36 1563.14 L1252.37 1563.14 L1252.37 1568.04 L1246.36 1568.04 Q1239.58 1568.04 1237 1565.53 Q1234.42 1562.98 1234.42 1556.3 L1234.42 1536.95 L1230.12 1536.95 L1230.12 1532.4 L1234.42 1532.4 L1234.42 1522.27 L1240.31 1522.27 Z" fill="#000000" fill-rule="nonzero" fill-opacity="1" /><path clip-path="url(#clip030)" d="M1260.07 1532.4 L1265.93 1532.4 L1265.93 1568.04 L1260.07 1568.04 L1260.07 1532.4 M1260.07 1518.52 L1265.93 1518.52 L1265.93 1525.93 L1260.07 1525.93 L1260.07 1518.52 Z" fill="#000000" fill-rule="nonzero" fill-opacity="1" /><path clip-path="url(#clip030)" d="M1305.94 1539.24 Q1308.14 1535.29 1311.19 1533.41 Q1314.25 1531.54 1318.38 1531.54 Q1323.95 1531.54 1326.98 1535.45 Q1330 1539.33 1330 1546.53 L1330 1568.04 L1324.11 1568.04 L1324.11 1546.72 Q1324.11 1541.59 1322.3 1539.11 Q1320.48 1536.63 1316.76 1536.63 Q1312.21 1536.63 1309.57 1539.65 Q1306.93 1542.68 1306.93 1547.9 L1306.93 1568.04 L1301.04 1568.04 L1301.04 1546.72 Q1301.04 1541.56 1299.22 1539.11 Q1297.41 1536.63 1293.62 1536.63 Q1289.13 1536.63 1286.49 1539.68 Q1283.85 1542.71 1283.85 1547.9 L1283.85 1568.04 L1277.96 1568.04 L1277.96 1532.4 L1283.85 1532.4 L1283.85 1537.93 Q1285.86 1534.66 1288.66 1533.1 Q1291.46 1531.54 1295.31 1531.54 Q1299.19 1531.54 1301.9 1533.51 Q1304.63 1535.48 1305.94 1539.24 Z" fill="#000000" fill-rule="nonzero" fill-opacity="1" /><path clip-path="url(#clip030)" d="M1372.17 1548.76 L1372.17 1551.62 L1345.25 1551.62 Q1345.63 1557.67 1348.88 1560.85 Q1352.15 1564 1357.98 1564 Q1361.35 1564 1364.5 1563.17 Q1367.69 1562.35 1370.81 1560.69 L1370.81 1566.23 Q1367.65 1567.57 1364.34 1568.27 Q1361.03 1568.97 1357.63 1568.97 Q1349.1 1568.97 1344.1 1564 Q1339.14 1559.04 1339.14 1550.57 Q1339.14 1541.82 1343.85 1536.69 Q1348.59 1531.54 1356.61 1531.54 Q1363.8 1531.54 1367.97 1536.18 Q1372.17 1540.8 1372.17 1548.76 M1366.32 1547.04 Q1366.25 1542.23 1363.61 1539.37 Q1361 1536.5 1356.67 1536.5 Q1351.77 1536.5 1348.81 1539.27 Q1345.88 1542.04 1345.44 1547.07 L1366.32 1547.04 Z" fill="#000000" fill-rule="nonzero" fill-opacity="1" /><polyline clip-path="url(#clip032)" style="stroke:#000000; stroke-linecap:round; stroke-linejoin:round; stroke-width:2; stroke-opacity:0.1; fill:none" points="249.542,1335.31 2352.76,1335.31 "/>
<polyline clip-path="url(#clip032)" style="stroke:#000000; stroke-linecap:round; stroke-linejoin:round; stroke-width:2; stroke-opacity:0.1; fill:none" points="249.542,1031.2 2352.76,1031.2 "/>
<polyline clip-path="url(#clip032)" style="stroke:#000000; stroke-linecap:round; stroke-linejoin:round; stroke-width:2; stroke-opacity:0.1; fill:none" points="249.542,727.102 2352.76,727.102 "/>
<polyline clip-path="url(#clip032)" style="stroke:#000000; stroke-linecap:round; stroke-linejoin:round; stroke-width:2; stroke-opacity:0.1; fill:none" points="249.542,423 2352.76,423 "/>
<polyline clip-path="url(#clip030)" style="stroke:#000000; stroke-linecap:round; stroke-linejoin:round; stroke-width:4; stroke-opacity:1; fill:none" points="249.542,1423.18 249.542,123.472 "/>
<polyline clip-path="url(#clip030)" style="stroke:#000000; stroke-linecap:round; stroke-linejoin:round; stroke-width:4; stroke-opacity:1; fill:none" points="249.542,1335.31 268.44,1335.31 "/>
<polyline clip-path="url(#clip030)" style="stroke:#000000; stroke-linecap:round; stroke-linejoin:round; stroke-width:4; stroke-opacity:1; fill:none" points="249.542,1031.2 268.44,1031.2 "/>
<polyline clip-path="url(#clip030)" style="stroke:#000000; stroke-linecap:round; stroke-linejoin:round; stroke-width:4; stroke-opacity:1; fill:none" points="249.542,727.102 268.44,727.102 "/>
<polyline clip-path="url(#clip030)" style="stroke:#000000; stroke-linecap:round; stroke-linejoin:round; stroke-width:4; stroke-opacity:1; fill:none" points="249.542,423 268.44,423 "/>
<path clip-path="url(#clip030)" d="M127.2 1321.11 Q123.589 1321.11 121.76 1324.67 Q119.955 1328.21 119.955 1335.34 Q119.955 1342.45 121.76 1346.01 Q123.589 1349.55 127.2 1349.55 Q130.834 1349.55 132.64 1346.01 Q134.468 1342.45 134.468 1335.34 Q134.468 1328.21 132.64 1324.67 Q130.834 1321.11 127.2 1321.11 M127.2 1317.4 Q133.01 1317.4 136.066 1322.01 Q139.144 1326.59 139.144 1335.34 Q139.144 1344.07 136.066 1348.67 Q133.01 1353.26 127.2 1353.26 Q121.39 1353.26 118.311 1348.67 Q115.256 1344.07 115.256 1335.34 Q115.256 1326.59 118.311 1322.01 Q121.39 1317.4 127.2 1317.4 Z" fill="#000000" fill-rule="nonzero" fill-opacity="1" /><path clip-path="url(#clip030)" d="M147.362 1346.71 L152.246 1346.71 L152.246 1352.59 L147.362 1352.59 L147.362 1346.71 Z" fill="#000000" fill-rule="nonzero" fill-opacity="1" /><path clip-path="url(#clip030)" d="M175.278 1322.1 L163.473 1340.55 L175.278 1340.55 L175.278 1322.1 M174.052 1318.03 L179.931 1318.03 L179.931 1340.55 L184.862 1340.55 L184.862 1344.44 L179.931 1344.44 L179.931 1352.59 L175.278 1352.59 L175.278 1344.44 L159.677 1344.44 L159.677 1339.92 L174.052 1318.03 Z" fill="#000000" fill-rule="nonzero" fill-opacity="1" /><path clip-path="url(#clip030)" d="M192.639 1318.03 L210.996 1318.03 L210.996 1321.96 L196.922 1321.96 L196.922 1330.43 Q197.94 1330.09 198.959 1329.92 Q199.977 1329.74 200.996 1329.74 Q206.783 1329.74 210.162 1332.91 Q213.542 1336.08 213.542 1341.5 Q213.542 1347.08 210.07 1350.18 Q206.598 1353.26 200.278 1353.26 Q198.102 1353.26 195.834 1352.89 Q193.588 1352.52 191.181 1351.78 L191.181 1347.08 Q193.264 1348.21 195.487 1348.77 Q197.709 1349.32 200.186 1349.32 Q204.19 1349.32 206.528 1347.22 Q208.866 1345.11 208.866 1341.5 Q208.866 1337.89 206.528 1335.78 Q204.19 1333.67 200.186 1333.67 Q198.311 1333.67 196.436 1334.09 Q194.584 1334.51 192.639 1335.39 L192.639 1318.03 Z" fill="#000000" fill-rule="nonzero" fill-opacity="1" /><path clip-path="url(#clip030)" d="M126.205 1017 Q122.593 1017 120.765 1020.57 Q118.959 1024.11 118.959 1031.24 Q118.959 1038.35 120.765 1041.91 Q122.593 1045.45 126.205 1045.45 Q129.839 1045.45 131.644 1041.91 Q133.473 1038.35 133.473 1031.24 Q133.473 1024.11 131.644 1020.57 Q129.839 1017 126.205 1017 M126.205 1013.3 Q132.015 1013.3 135.07 1017.91 Q138.149 1022.49 138.149 1031.24 Q138.149 1039.97 135.07 1044.57 Q132.015 1049.16 126.205 1049.16 Q120.394 1049.16 117.316 1044.57 Q114.26 1039.97 114.26 1031.24 Q114.26 1022.49 117.316 1017.91 Q120.394 1013.3 126.205 1013.3 Z" fill="#000000" fill-rule="nonzero" fill-opacity="1" /><path clip-path="url(#clip030)" d="M146.366 1042.6 L151.251 1042.6 L151.251 1048.48 L146.366 1048.48 L146.366 1042.6 Z" fill="#000000" fill-rule="nonzero" fill-opacity="1" /><path clip-path="url(#clip030)" d="M161.482 1013.92 L179.839 1013.92 L179.839 1017.86 L165.765 1017.86 L165.765 1026.33 Q166.783 1025.98 167.802 1025.82 Q168.82 1025.64 169.839 1025.64 Q175.626 1025.64 179.005 1028.81 Q182.385 1031.98 182.385 1037.4 Q182.385 1042.98 178.913 1046.08 Q175.44 1049.16 169.121 1049.16 Q166.945 1049.16 164.677 1048.79 Q162.431 1048.42 160.024 1047.67 L160.024 1042.98 Q162.107 1044.11 164.329 1044.67 Q166.552 1045.22 169.028 1045.22 Q173.033 1045.22 175.371 1043.11 Q177.709 1041.01 177.709 1037.4 Q177.709 1033.79 175.371 1031.68 Q173.033 1029.57 169.028 1029.57 Q167.153 1029.57 165.278 1029.99 Q163.427 1030.41 161.482 1031.29 L161.482 1013.92 Z" fill="#000000" fill-rule="nonzero" fill-opacity="1" /><path clip-path="url(#clip030)" d="M201.598 1017 Q197.987 1017 196.158 1020.57 Q194.352 1024.11 194.352 1031.24 Q194.352 1038.35 196.158 1041.91 Q197.987 1045.45 201.598 1045.45 Q205.232 1045.45 207.037 1041.91 Q208.866 1038.35 208.866 1031.24 Q208.866 1024.11 207.037 1020.57 Q205.232 1017 201.598 1017 M201.598 1013.3 Q207.408 1013.3 210.463 1017.91 Q213.542 1022.49 213.542 1031.24 Q213.542 1039.97 210.463 1044.57 Q207.408 1049.16 201.598 1049.16 Q195.787 1049.16 192.709 1044.57 Q189.653 1039.97 189.653 1031.24 Q189.653 1022.49 192.709 1017.91 Q195.787 1013.3 201.598 1013.3 Z" fill="#000000" fill-rule="nonzero" fill-opacity="1" /><path clip-path="url(#clip030)" d="M127.2 712.901 Q123.589 712.901 121.76 716.466 Q119.955 720.008 119.955 727.137 Q119.955 734.244 121.76 737.808 Q123.589 741.35 127.2 741.35 Q130.834 741.35 132.64 737.808 Q134.468 734.244 134.468 727.137 Q134.468 720.008 132.64 716.466 Q130.834 712.901 127.2 712.901 M127.2 709.197 Q133.01 709.197 136.066 713.804 Q139.144 718.387 139.144 727.137 Q139.144 735.864 136.066 740.47 Q133.01 745.054 127.2 745.054 Q121.39 745.054 118.311 740.47 Q115.256 735.864 115.256 727.137 Q115.256 718.387 118.311 713.804 Q121.39 709.197 127.2 709.197 Z" fill="#000000" fill-rule="nonzero" fill-opacity="1" /><path clip-path="url(#clip030)" d="M147.362 738.503 L152.246 738.503 L152.246 744.382 L147.362 744.382 L147.362 738.503 Z" fill="#000000" fill-rule="nonzero" fill-opacity="1" /><path clip-path="url(#clip030)" d="M162.477 709.822 L180.834 709.822 L180.834 713.758 L166.76 713.758 L166.76 722.23 Q167.778 721.883 168.797 721.721 Q169.815 721.535 170.834 721.535 Q176.621 721.535 180.001 724.707 Q183.38 727.878 183.38 733.295 Q183.38 738.873 179.908 741.975 Q176.436 745.054 170.116 745.054 Q167.94 745.054 165.672 744.683 Q163.427 744.313 161.019 743.572 L161.019 738.873 Q163.102 740.008 165.325 740.563 Q167.547 741.119 170.024 741.119 Q174.028 741.119 176.366 739.012 Q178.704 736.906 178.704 733.295 Q178.704 729.683 176.366 727.577 Q174.028 725.471 170.024 725.471 Q168.149 725.471 166.274 725.887 Q164.422 726.304 162.477 727.183 L162.477 709.822 Z" fill="#000000" fill-rule="nonzero" fill-opacity="1" /><path clip-path="url(#clip030)" d="M192.639 709.822 L210.996 709.822 L210.996 713.758 L196.922 713.758 L196.922 722.23 Q197.94 721.883 198.959 721.721 Q199.977 721.535 200.996 721.535 Q206.783 721.535 210.162 724.707 Q213.542 727.878 213.542 733.295 Q213.542 738.873 210.07 741.975 Q206.598 745.054 200.278 745.054 Q198.102 745.054 195.834 744.683 Q193.588 744.313 191.181 743.572 L191.181 738.873 Q193.264 740.008 195.487 740.563 Q197.709 741.119 200.186 741.119 Q204.19 741.119 206.528 739.012 Q208.866 736.906 208.866 733.295 Q208.866 729.683 206.528 727.577 Q204.19 725.471 200.186 725.471 Q198.311 725.471 196.436 725.887 Q194.584 726.304 192.639 727.183 L192.639 709.822 Z" fill="#000000" fill-rule="nonzero" fill-opacity="1" /><path clip-path="url(#clip030)" d="M126.205 408.799 Q122.593 408.799 120.765 412.364 Q118.959 415.906 118.959 423.035 Q118.959 430.142 120.765 433.706 Q122.593 437.248 126.205 437.248 Q129.839 437.248 131.644 433.706 Q133.473 430.142 133.473 423.035 Q133.473 415.906 131.644 412.364 Q129.839 408.799 126.205 408.799 M126.205 405.095 Q132.015 405.095 135.07 409.702 Q138.149 414.285 138.149 423.035 Q138.149 431.762 135.07 436.368 Q132.015 440.952 126.205 440.952 Q120.394 440.952 117.316 436.368 Q114.26 431.762 114.26 423.035 Q114.26 414.285 117.316 409.702 Q120.394 405.095 126.205 405.095 Z" fill="#000000" fill-rule="nonzero" fill-opacity="1" /><path clip-path="url(#clip030)" d="M146.366 434.401 L151.251 434.401 L151.251 440.28 L146.366 440.28 L146.366 434.401 Z" fill="#000000" fill-rule="nonzero" fill-opacity="1" /><path clip-path="url(#clip030)" d="M172.014 421.137 Q168.866 421.137 167.015 423.29 Q165.186 425.443 165.186 429.193 Q165.186 432.919 167.015 435.095 Q168.866 437.248 172.014 437.248 Q175.163 437.248 176.991 435.095 Q178.843 432.919 178.843 429.193 Q178.843 425.443 176.991 423.29 Q175.163 421.137 172.014 421.137 M181.297 406.484 L181.297 410.744 Q179.538 409.91 177.732 409.47 Q175.95 409.031 174.19 409.031 Q169.561 409.031 167.107 412.156 Q164.677 415.281 164.329 421.6 Q165.695 419.586 167.755 418.521 Q169.815 417.433 172.292 417.433 Q177.501 417.433 180.51 420.605 Q183.542 423.753 183.542 429.193 Q183.542 434.517 180.394 437.734 Q177.246 440.952 172.014 440.952 Q166.019 440.952 162.848 436.368 Q159.677 431.762 159.677 423.035 Q159.677 414.841 163.565 409.98 Q167.454 405.095 174.005 405.095 Q175.764 405.095 177.547 405.443 Q179.352 405.79 181.297 406.484 Z" fill="#000000" fill-rule="nonzero" fill-opacity="1" /><path clip-path="url(#clip030)" d="M201.598 408.799 Q197.987 408.799 196.158 412.364 Q194.352 415.906 194.352 423.035 Q194.352 430.142 196.158 433.706 Q197.987 437.248 201.598 437.248 Q205.232 437.248 207.037 433.706 Q208.866 430.142 208.866 423.035 Q208.866 415.906 207.037 412.364 Q205.232 408.799 201.598 408.799 M201.598 405.095 Q207.408 405.095 210.463 409.702 Q213.542 414.285 213.542 423.035 Q213.542 431.762 210.463 436.368 Q207.408 440.952 201.598 440.952 Q195.787 440.952 192.709 436.368 Q189.653 431.762 189.653 423.035 Q189.653 414.285 192.709 409.702 Q195.787 405.095 201.598 405.095 Z" fill="#000000" fill-rule="nonzero" fill-opacity="1" /><path clip-path="url(#clip030)" d="M28.3562 756.711 L45.7028 769.602 L64.0042 756.043 L64.0042 762.95 L49.9996 773.326 L64.0042 783.702 L64.0042 790.609 L45.3526 776.763 L28.3562 789.431 L28.3562 782.524 L41.0558 773.071 L28.3562 763.618 L28.3562 756.711 Z" fill="#000000" fill-rule="nonzero" fill-opacity="1" /><path clip-path="url(#clip030)" d="M962.109 16.7545 L962.109 25.383 Q957.977 21.5346 953.278 19.6307 Q948.619 17.7268 943.353 17.7268 Q932.983 17.7268 927.473 24.0867 Q921.964 30.4061 921.964 42.3968 Q921.964 54.3469 927.473 60.7069 Q932.983 67.0263 943.353 67.0263 Q948.619 67.0263 953.278 65.1223 Q957.977 63.2184 962.109 59.3701 L962.109 67.9175 Q957.815 70.8341 952.994 72.2924 Q948.214 73.7508 942.867 73.7508 Q929.134 73.7508 921.235 65.3654 Q913.336 56.9395 913.336 42.3968 Q913.336 27.8135 921.235 19.4281 Q929.134 11.0023 942.867 11.0023 Q948.295 11.0023 953.075 12.4606 Q957.896 13.8784 962.109 16.7545 Z" fill="#000000" fill-rule="nonzero" fill-opacity="1" /><path clip-path="url(#clip030)" d="M974.423 9.54393 L981.877 9.54393 L981.877 72.576 L974.423 72.576 L974.423 9.54393 Z" fill="#000000" fill-rule="nonzero" fill-opacity="1" /><path clip-path="url(#clip030)" d="M1018.09 49.7694 Q1009.06 49.7694 1005.57 51.8354 Q1002.09 53.9013 1002.09 58.8839 Q1002.09 62.8538 1004.68 65.2034 Q1007.32 67.5124 1011.81 67.5124 Q1018.01 67.5124 1021.74 63.1374 Q1025.51 58.7219 1025.51 51.4303 L1025.51 49.7694 L1018.09 49.7694 M1032.96 46.6907 L1032.96 72.576 L1025.51 72.576 L1025.51 65.6895 Q1022.95 69.8214 1019.15 71.8063 Q1015.34 73.7508 1009.83 73.7508 Q1002.86 73.7508 998.729 69.8619 Q994.637 65.9325 994.637 59.3701 Q994.637 51.7138 999.741 47.825 Q1004.89 43.9361 1015.05 43.9361 L1025.51 43.9361 L1025.51 43.2069 Q1025.51 38.0623 1022.1 35.2672 Q1018.74 32.4315 1012.62 32.4315 Q1008.73 32.4315 1005.05 33.3632 Q1001.36 34.295 997.959 36.1584 L997.959 29.2718 Q1002.05 27.692 1005.9 26.9223 Q1009.75 26.1121 1013.39 26.1121 Q1023.24 26.1121 1028.1 31.2163 Q1032.96 36.3204 1032.96 46.6907 Z" fill="#000000" fill-rule="nonzero" fill-opacity="1" /><path clip-path="url(#clip030)" d="M1077.24 28.5427 L1077.24 35.5912 Q1074.08 33.9709 1070.67 33.1607 Q1067.27 32.3505 1063.62 32.3505 Q1058.07 32.3505 1055.28 34.0519 Q1052.52 35.7533 1052.52 39.156 Q1052.52 41.7486 1054.51 43.2475 Q1056.49 44.7058 1062.49 46.0426 L1065.04 46.6097 Q1072.98 48.3111 1076.3 51.4303 Q1079.67 54.509 1079.67 60.0587 Q1079.67 66.3781 1074.64 70.0644 Q1069.66 73.7508 1060.91 73.7508 Q1057.26 73.7508 1053.29 73.0216 Q1049.37 72.3329 1044.99 70.9151 L1044.99 63.2184 Q1049.12 65.3654 1053.13 66.4591 Q1057.14 67.5124 1061.07 67.5124 Q1066.34 67.5124 1069.17 65.73 Q1072.01 63.9071 1072.01 60.6258 Q1072.01 57.5877 1069.94 55.9673 Q1067.92 54.3469 1060.99 52.8481 L1058.4 52.2405 Q1051.47 50.7821 1048.39 47.7845 Q1045.31 44.7463 1045.31 39.4801 Q1045.31 33.0797 1049.85 29.5959 Q1054.39 26.1121 1062.73 26.1121 Q1066.86 26.1121 1070.51 26.7198 Q1074.16 27.3274 1077.24 28.5427 Z" fill="#000000" fill-rule="nonzero" fill-opacity="1" /><path clip-path="url(#clip030)" d="M1120.46 28.5427 L1120.46 35.5912 Q1117.3 33.9709 1113.9 33.1607 Q1110.49 32.3505 1106.85 32.3505 Q1101.3 32.3505 1098.5 34.0519 Q1095.75 35.7533 1095.75 39.156 Q1095.75 41.7486 1097.73 43.2475 Q1099.72 44.7058 1105.71 46.0426 L1108.27 46.6097 Q1116.2 48.3111 1119.53 51.4303 Q1122.89 54.509 1122.89 60.0587 Q1122.89 66.3781 1117.87 70.0644 Q1112.88 73.7508 1104.13 73.7508 Q1100.49 73.7508 1096.52 73.0216 Q1092.59 72.3329 1088.21 70.9151 L1088.21 63.2184 Q1092.35 65.3654 1096.36 66.4591 Q1100.37 67.5124 1104.3 67.5124 Q1109.56 67.5124 1112.4 65.73 Q1115.23 63.9071 1115.23 60.6258 Q1115.23 57.5877 1113.17 55.9673 Q1111.14 54.3469 1104.21 52.8481 L1101.62 52.2405 Q1094.69 50.7821 1091.62 47.7845 Q1088.54 44.7463 1088.54 39.4801 Q1088.54 33.0797 1093.07 29.5959 Q1097.61 26.1121 1105.96 26.1121 Q1110.09 26.1121 1113.73 26.7198 Q1117.38 27.3274 1120.46 28.5427 Z" fill="#000000" fill-rule="nonzero" fill-opacity="1" /><path clip-path="url(#clip030)" d="M1163.6 65.6895 L1176.97 65.6895 L1176.97 19.5497 L1162.43 22.4663 L1162.43 15.0127 L1176.89 12.096 L1185.07 12.096 L1185.07 65.6895 L1198.44 65.6895 L1198.44 72.576 L1163.6 72.576 L1163.6 65.6895 Z" fill="#000000" fill-rule="nonzero" fill-opacity="1" /><path clip-path="url(#clip030)" d="M1241.42 12.096 L1273.54 12.096 L1273.54 18.9825 L1248.91 18.9825 L1248.91 33.8088 Q1250.69 33.2012 1252.48 32.9176 Q1254.26 32.5936 1256.04 32.5936 Q1266.17 32.5936 1272.08 38.1433 Q1278 43.6931 1278 53.1722 Q1278 62.9348 1271.92 68.3631 Q1265.85 73.7508 1254.79 73.7508 Q1250.98 73.7508 1247.01 73.1026 Q1243.08 72.4545 1238.87 71.1582 L1238.87 62.9348 Q1242.51 64.9198 1246.4 65.892 Q1250.29 66.8642 1254.62 66.8642 Q1261.63 66.8642 1265.72 63.1779 Q1269.82 59.4916 1269.82 53.1722 Q1269.82 46.8528 1265.72 43.1664 Q1261.63 39.4801 1254.62 39.4801 Q1251.34 39.4801 1248.06 40.2093 Q1244.82 40.9384 1241.42 42.4778 L1241.42 12.096 Z" fill="#000000" fill-rule="nonzero" fill-opacity="1" /><path clip-path="url(#clip030)" d="M1311.62 17.4837 Q1305.3 17.4837 1302.1 23.7221 Q1298.94 29.92 1298.94 42.3968 Q1298.94 54.833 1302.1 61.0714 Q1305.3 67.2693 1311.62 67.2693 Q1317.98 67.2693 1321.14 61.0714 Q1324.34 54.833 1324.34 42.3968 Q1324.34 29.92 1321.14 23.7221 Q1317.98 17.4837 1311.62 17.4837 M1311.62 11.0023 Q1321.79 11.0023 1327.14 19.0636 Q1332.52 27.0843 1332.52 42.3968 Q1332.52 57.6687 1327.14 65.73 Q1321.79 73.7508 1311.62 73.7508 Q1301.45 73.7508 1296.07 65.73 Q1290.72 57.6687 1290.72 42.3968 Q1290.72 27.0843 1296.07 19.0636 Q1301.45 11.0023 1311.62 11.0023 Z" fill="#000000" fill-rule="nonzero" fill-opacity="1" /><path clip-path="url(#clip030)" d="M1364.4 17.4837 Q1358.08 17.4837 1354.88 23.7221 Q1351.72 29.92 1351.72 42.3968 Q1351.72 54.833 1354.88 61.0714 Q1358.08 67.2693 1364.4 67.2693 Q1370.76 67.2693 1373.92 61.0714 Q1377.12 54.833 1377.12 42.3968 Q1377.12 29.92 1373.92 23.7221 Q1370.76 17.4837 1364.4 17.4837 M1364.4 11.0023 Q1374.57 11.0023 1379.92 19.0636 Q1385.31 27.0843 1385.31 42.3968 Q1385.31 57.6687 1379.92 65.73 Q1374.57 73.7508 1364.4 73.7508 Q1354.24 73.7508 1348.85 65.73 Q1343.5 57.6687 1343.5 42.3968 Q1343.5 27.0843 1348.85 19.0636 Q1354.24 11.0023 1364.4 11.0023 Z" fill="#000000" fill-rule="nonzero" fill-opacity="1" /><path clip-path="url(#clip030)" d="M1417.19 17.4837 Q1410.87 17.4837 1407.67 23.7221 Q1404.51 29.92 1404.51 42.3968 Q1404.51 54.833 1407.67 61.0714 Q1410.87 67.2693 1417.19 67.2693 Q1423.55 67.2693 1426.71 61.0714 Q1429.91 54.833 1429.91 42.3968 Q1429.91 29.92 1426.71 23.7221 Q1423.55 17.4837 1417.19 17.4837 M1417.19 11.0023 Q1427.35 11.0023 1432.7 19.0636 Q1438.09 27.0843 1438.09 42.3968 Q1438.09 57.6687 1432.7 65.73 Q1427.35 73.7508 1417.19 73.7508 Q1407.02 73.7508 1401.63 65.73 Q1396.28 57.6687 1396.28 42.3968 Q1396.28 27.0843 1401.63 19.0636 Q1407.02 11.0023 1417.19 11.0023 Z" fill="#000000" fill-rule="nonzero" fill-opacity="1" /><path clip-path="url(#clip030)" d="M1478.11 12.096 L1490.31 12.096 L1505.74 53.2532 L1521.25 12.096 L1533.45 12.096 L1533.45 72.576 L1525.47 72.576 L1525.47 19.4686 L1509.87 60.9499 L1501.65 60.9499 L1486.05 19.4686 L1486.05 72.576 L1478.11 72.576 L1478.11 12.096 Z" fill="#000000" fill-rule="nonzero" fill-opacity="1" /><path clip-path="url(#clip030)" d="M1588.18 48.0275 L1588.18 51.6733 L1553.91 51.6733 Q1554.39 59.3701 1558.52 63.421 Q1562.7 67.4314 1570.11 67.4314 Q1574.4 67.4314 1578.41 66.3781 Q1582.46 65.3249 1586.43 63.2184 L1586.43 70.267 Q1582.42 71.9684 1578.21 72.8596 Q1574 73.7508 1569.66 73.7508 Q1558.81 73.7508 1552.45 67.4314 Q1546.13 61.1119 1546.13 50.3365 Q1546.13 39.1965 1552.12 32.6746 Q1558.16 26.1121 1568.37 26.1121 Q1577.52 26.1121 1582.83 32.0264 Q1588.18 37.9003 1588.18 48.0275 M1580.72 45.84 Q1580.64 39.7232 1577.28 36.0774 Q1573.96 32.4315 1568.45 32.4315 Q1562.21 32.4315 1558.44 35.9558 Q1554.72 39.4801 1554.15 45.8805 L1580.72 45.84 Z" fill="#000000" fill-rule="nonzero" fill-opacity="1" /><path clip-path="url(#clip030)" d="M1621.03 49.7694 Q1612 49.7694 1608.51 51.8354 Q1605.03 53.9013 1605.03 58.8839 Q1605.03 62.8538 1607.62 65.2034 Q1610.25 67.5124 1614.75 67.5124 Q1620.95 67.5124 1624.67 63.1374 Q1628.44 58.7219 1628.44 51.4303 L1628.44 49.7694 L1621.03 49.7694 M1635.9 46.6907 L1635.9 72.576 L1628.44 72.576 L1628.44 65.6895 Q1625.89 69.8214 1622.08 71.8063 Q1618.27 73.7508 1612.76 73.7508 Q1605.8 73.7508 1601.67 69.8619 Q1597.57 65.9325 1597.57 59.3701 Q1597.57 51.7138 1602.68 47.825 Q1607.82 43.9361 1617.99 43.9361 L1628.44 43.9361 L1628.44 43.2069 Q1628.44 38.0623 1625.04 35.2672 Q1621.68 32.4315 1615.56 32.4315 Q1611.67 32.4315 1607.98 33.3632 Q1604.3 34.295 1600.9 36.1584 L1600.9 29.2718 Q1604.99 27.692 1608.84 26.9223 Q1612.68 26.1121 1616.33 26.1121 Q1626.17 26.1121 1631.03 31.2163 Q1635.9 36.3204 1635.9 46.6907 Z" fill="#000000" fill-rule="nonzero" fill-opacity="1" /><path clip-path="url(#clip030)" d="M1688.96 45.1919 L1688.96 72.576 L1681.51 72.576 L1681.51 45.4349 Q1681.51 38.994 1679 35.7938 Q1676.49 32.5936 1671.46 32.5936 Q1665.43 32.5936 1661.94 36.4419 Q1658.46 40.2903 1658.46 46.9338 L1658.46 72.576 L1650.96 72.576 L1650.96 27.2059 L1658.46 27.2059 L1658.46 34.2544 Q1661.13 30.163 1664.74 28.1376 Q1668.38 26.1121 1673.12 26.1121 Q1680.94 26.1121 1684.95 30.9732 Q1688.96 35.7938 1688.96 45.1919 Z" fill="#000000" fill-rule="nonzero" fill-opacity="1" /><polyline clip-path="url(#clip032)" style="stroke:#009af9; stroke-linecap:round; stroke-linejoin:round; stroke-width:4; stroke-opacity:0.5; fill:none" points="309.067,1176.57 329.109,1191.16 349.151,1267.92 369.193,1235.32 389.235,1208.19 409.277,1218.41 429.319,1218.41 449.361,1170.85 469.403,1163.06 489.446,1158.08 509.488,1075.73 529.53,1049.57 549.572,1049.82 569.614,1006.27 589.656,1048.11 609.698,1084.12 629.74,1148.1 649.782,1172.92 669.824,1185.32 689.866,1231.06 709.908,1198.1 729.95,1202.11 749.992,1229.48 770.034,1166.47 790.076,1179.85 810.118,1108.93 830.161,1134.48 850.203,1061.25 870.245,982.548 890.287,1034.85 910.329,1011.01 930.371,1036.07 950.413,1111.85 970.455,1183.5 990.497,1143.6 1010.54,1234.95 1030.58,1208.56 1050.62,1209.77 1070.67,1200.16 1090.71,1225.22 1110.75,1160.75 1130.79,1125.6 1150.83,1033.64 1170.88,1079.98 1190.92,1039.11 1210.96,1024.76 1231,1065.51 1251.04,997.875 1271.09,1118.79 1291.13,1134.72 1311.17,1187.15 1331.21,1216.46 1351.25,1225.83 1371.3,1213.06 1391.34,1206.49 1411.38,1224.86 1431.42,1157.59 1451.46,1179.61 1471.51,1128.03 1491.55,1138.25 1511.59,1044.34 1531.63,1067.7 1551.67,997.267 1571.72,1088.25 1591.76,1094.7 1611.8,1095.07 1631.84,1171.58 1651.89,1153.09 1671.93,1207.83 1691.97,1211.48 1712.01,1240.91 1732.05,1241.28 1752.1,1173.16 1772.14,1196.39 1792.18,1125.23 1812.22,1105.65 1832.26,1114.16 1852.31,1017.22 1872.35,999.821 1892.39,997.51 1912.43,1045.19 1932.47,1103.7 1952.52,1114.89 1972.56,1139.71 1992.6,1157.83 2012.64,1229.36 2032.68,1200.89 2052.73,1199.43 2072.77,1200.41 2092.81,1217.92 2112.85,1162.82 2132.89,1120.49 2152.94,1107.59 2172.98,1085.7 2193.02,1017.09 2213.06,994.226 2233.1,1062.71 2253.15,1122.68 2273.19,1093.24 2293.23,1193.35 "/>
<polyline clip-path="url(#clip032)" style="stroke:#e26f46; stroke-linecap:round; stroke-linejoin:round; stroke-width:4; stroke-opacity:0.5; fill:none" points="309.067,1113.19 329.109,1156.01 349.151,1195.91 369.193,1229.97 389.235,1201.74 409.277,1129.73 429.319,1194.93 449.361,1152.6 469.403,1114.16 489.446,1086.92 509.488,1035.34 529.53,1034.12 549.572,984.981 569.614,1012.96 589.656,1045.8 609.698,1102.49 629.74,1122.19 649.782,1155.52 669.824,1223.64 689.866,1213.91 709.908,1232.4 729.95,1180.82 749.992,1191.53 770.034,1186.17 790.076,1150.17 810.118,1110.51 830.161,1085.7 850.203,1025.85 870.245,1053.1 890.287,1022.45 910.329,999.821 930.371,1043.13 950.413,1100.78 970.455,1172.06 990.497,1209.29 1010.54,1227.05 1030.58,1231.91 1050.62,1211.72 1070.67,1212.94 1090.71,1173.52 1110.75,1178.15 1130.79,1107.11 1150.83,1108.08 1170.88,1040.45 1190.92,1064.29 1210.96,1037.04 1231,1011.74 1251.04,1023.66 1271.09,1082.29 1291.13,1226.8 1311.17,1157.47 1331.21,1145.79 1351.25,1205.64 1371.3,1265.24 1391.34,1190.07 1411.38,1185.69 1431.42,1209.04 1451.46,1176.93 1471.51,1156.01 1491.55,1047.75 1511.59,1013.69 1531.63,1037.53 1551.67,1033.64 1571.72,1057.97 1591.76,1107.11 1611.8,1134.84 1631.84,1140.68 1651.89,1211.48 1671.93,1181.07 1691.97,1216.83 1712.01,1189.09 1732.05,1213.67 1752.1,1207.83 1772.14,1098.35 1792.18,1116.11 1812.22,1106.87 1832.26,1067.94 1852.31,1031.45 1872.35,987.171 1892.39,1048.48 1912.43,1055.29 1932.47,1042.64 1952.52,1102.24 1972.56,1118.79 1992.6,1194.45 2012.64,1231.91 2032.68,1206.61 2052.73,1202.23 2072.77,1153.33 2092.81,1189.58 2112.85,1090.32 2132.89,1165.25 2152.94,1086.92 2172.98,1046.53 2193.02,1044.83 2213.06,1023.91 2233.1,1090.08 2253.15,1045.31 2273.19,1114.65 2293.23,1149.68 "/>
<polyline clip-path="url(#clip032)" style="stroke:#3da44d; stroke-linecap:round; stroke-linejoin:round; stroke-width:4; stroke-opacity:0.5; fill:none" points="309.067,1078.04 329.109,1217.92 349.151,1239.21 369.193,1342 389.235,1315.84 409.277,1302.46 429.319,1194.2 449.361,978.899 469.403,757.513 489.446,641.346 509.488,333.594 529.53,202.222 549.572,171.812 569.614,160.256 589.656,367.654 609.698,604.853 629.74,862.124 649.782,1111.49 669.824,1251.37 689.866,1320.1 709.908,1366.93 729.95,1362.68 749.992,1329.83 770.034,1057.36 790.076,929.026 810.118,671.756 830.161,500.242 850.203,305.617 870.245,249.662 890.287,213.778 910.329,293.453 930.371,394.415 950.413,714.33 970.455,901.049 990.497,1126.08 1010.54,1362.07 1030.58,1368.76 1050.62,1300.03 1070.67,1309.15 1090.71,1105.41 1110.75,1038.5 1130.79,782.449 1150.83,570.186 1170.88,332.986 1190.92,242.972 1210.96,185.193 1231,237.498 1251.04,376.777 1271.09,584.175 1291.13,856.042 1311.17,1039.72 1331.21,1250.77 1351.25,1284.22 1371.3,1381.53 1391.34,1386.4 1411.38,1204.54 1431.42,1048.84 1451.46,854.825 1471.51,598.771 1491.55,427.866 1511.59,318.389 1531.63,183.976 1551.67,289.804 1571.72,304.401 1591.76,544.641 1611.8,682.704 1631.84,943.015 1651.89,1109.05 1671.93,1371.8 1691.97,1324.97 1712.01,1349.3 1732.05,1258.67 1752.1,1163.18 1772.14,947.272 1792.18,806.169 1812.22,523.354 1832.26,306.833 1852.31,261.218 1872.35,182.76 1892.39,256.353 1912.43,337.852 1932.47,624.924 1952.52,808.602 1972.56,1037.29 1992.6,1239.21 2012.64,1334.7 2032.68,1365.11 2052.73,1306.72 2072.77,1193.59 2092.81,1131.56 2112.85,908.347 2132.89,683.92 2152.94,447.937 2172.98,422.392 2193.02,254.528 2213.06,284.938 2233.1,263.651 2253.15,480.172 2273.19,668.107 2293.23,932.067 "/>
<polyline clip-path="url(#clip032)" style="stroke:#c271d2; stroke-linecap:round; stroke-linejoin:round; stroke-width:4; stroke-opacity:0.5; fill:none" points="309.067,1044.58 329.109,1056.75 349.151,1115.14 369.193,1095.67 389.235,1062.83 409.277,1094.46 429.319,1059.18 449.361,1049.45 469.403,1016.61 489.446,988.63 509.488,1002.01 529.53,1082.29 549.572,967.951 569.614,1010.53 589.656,1003.23 609.698,1016.61 629.74,1062.83 649.782,1016.61 669.824,1087.16 689.866,1049.45 709.908,1068.91 729.95,1075 749.992,1031.2 770.034,1089.59 790.076,1034.85 810.118,1002.01 830.161,1015.39 850.203,1037.29 870.245,961.869 890.287,1042.15 910.329,992.279 930.371,1010.53 950.413,1053.1 970.455,1017.82 990.497,987.414 1010.54,1126.08 1030.58,1057.97 1050.62,1043.37 1070.67,1140.68 1090.71,1005.66 1110.75,1037.29 1130.79,1065.26 1150.83,1075 1170.88,1008.09 1190.92,1027.56 1210.96,1022.69 1231,992.279 1251.04,914.429 1271.09,1012.96 1291.13,905.914 1311.17,1067.7 1331.21,1077.43 1351.25,1065.26 1371.3,1039.72 1391.34,1088.38 1411.38,1096.89 1431.42,1078.64 1451.46,1100.54 1471.51,1031.2 1491.55,995.929 1511.59,1033.64 1531.63,967.951 1551.67,1054.32 1571.72,987.414 1591.76,966.735 1611.8,1020.26 1631.84,1050.67 1651.89,999.578 1671.93,1051.88 1691.97,1116.35 1712.01,1032.42 1732.05,1089.59 1752.1,1090.81 1772.14,1068.91 1792.18,1032.42 1812.22,1006.88 1832.26,997.145 1852.31,998.361 1872.35,993.496 1892.39,1088.38 1912.43,1037.29 1932.47,1023.91 1952.52,1021.47 1972.56,1047.02 1992.6,1014.17 2012.64,1036.07 2032.68,1065.26 2052.73,1053.1 2072.77,1076.21 2092.81,1099.32 2112.85,1009.31 2132.89,1012.96 2152.94,983.765 2172.98,1012.96 2193.02,987.414 2213.06,1028.77 2233.1,975.25 2253.15,937.541 2273.19,982.548 2293.23,975.25 "/>
<path clip-path="url(#clip030)" d="M319.649 425.996 L755.687 425.996 L755.687 166.796 L319.649 166.796  Z" fill="#ffffff" fill-rule="evenodd" fill-opacity="1"/>
<polyline clip-path="url(#clip030)" style="stroke:#000000; stroke-linecap:round; stroke-linejoin:round; stroke-width:4; stroke-opacity:1; fill:none" points="319.649,425.996 755.687,425.996 755.687,166.796 319.649,166.796 319.649,425.996 "/>
<polyline clip-path="url(#clip030)" style="stroke:#009af9; stroke-linecap:round; stroke-linejoin:round; stroke-width:4; stroke-opacity:0.5; fill:none" points="343.018,218.636 483.232,218.636 "/>
<path clip-path="url(#clip030)" d="M527.226 205.893 Q524.865 204.272 519.333 204.272 Q513.476 204.272 513.476 206.981 Q513.476 209.11 519.588 210.221 Q524.402 211.078 527.111 213.67 Q530.398 216.795 530.398 223.207 Q530.398 229.342 527.226 232.953 Q524.055 236.587 518.5 236.587 Q512.967 236.587 509.773 232.953 Q506.602 229.342 506.602 222.976 Q506.602 218.254 509.773 214.434 Q511 212.953 512.736 212.12 Q509.125 210.291 509.125 207.027 Q509.125 200.731 519.333 200.731 Q524.449 200.731 527.226 202.351 L527.226 205.893 M515.93 213.277 Q514.356 213.948 513.083 215.638 Q511.092 218.254 511.092 222.976 Q511.092 227.675 513.06 230.314 Q515.051 232.976 518.5 232.976 Q521.902 232.976 523.893 230.291 Q525.884 227.606 525.884 223.207 Q525.884 218.601 523.777 216.379 Q521.532 213.995 518.615 213.74 Q517.134 213.601 515.93 213.277 Z" fill="#000000" fill-rule="nonzero" fill-opacity="1" /><path clip-path="url(#clip030)" d="M559.009 209.99 L549.634 222.606 L559.495 235.916 L554.472 235.916 L546.925 225.731 L539.379 235.916 L534.356 235.916 L544.425 222.351 L535.212 209.99 L540.236 209.99 L547.111 219.226 L553.986 209.99 L559.009 209.99 Z" fill="#000000" fill-rule="nonzero" fill-opacity="1" /><path clip-path="url(#clip030)" d="M581.138 214.388 L610.814 214.388 L610.814 218.277 L581.138 218.277 L581.138 214.388 M581.138 223.832 L610.814 223.832 L610.814 227.768 L581.138 227.768 L581.138 223.832 Z" fill="#000000" fill-rule="nonzero" fill-opacity="1" /><path clip-path="url(#clip030)" d="M645.976 204.434 Q642.365 204.434 640.536 207.999 Q638.73 211.541 638.73 218.67 Q638.73 225.777 640.536 229.342 Q642.365 232.883 645.976 232.883 Q649.61 232.883 651.416 229.342 Q653.244 225.777 653.244 218.67 Q653.244 211.541 651.416 207.999 Q649.61 204.434 645.976 204.434 M645.976 200.731 Q651.786 200.731 654.841 205.337 Q657.92 209.92 657.92 218.67 Q657.92 227.397 654.841 232.004 Q651.786 236.587 645.976 236.587 Q640.166 236.587 637.087 232.004 Q634.031 227.397 634.031 218.67 Q634.031 209.92 637.087 205.337 Q640.166 200.731 645.976 200.731 Z" fill="#000000" fill-rule="nonzero" fill-opacity="1" /><path clip-path="url(#clip030)" d="M666.138 230.036 L671.022 230.036 L671.022 235.916 L666.138 235.916 L666.138 230.036 Z" fill="#000000" fill-rule="nonzero" fill-opacity="1" /><path clip-path="url(#clip030)" d="M691.207 204.434 Q687.596 204.434 685.767 207.999 Q683.962 211.541 683.962 218.67 Q683.962 225.777 685.767 229.342 Q687.596 232.883 691.207 232.883 Q694.841 232.883 696.647 229.342 Q698.475 225.777 698.475 218.67 Q698.475 211.541 696.647 207.999 Q694.841 204.434 691.207 204.434 M691.207 200.731 Q697.017 200.731 700.073 205.337 Q703.151 209.92 703.151 218.67 Q703.151 227.397 700.073 232.004 Q697.017 236.587 691.207 236.587 Q685.397 236.587 682.318 232.004 Q679.263 227.397 679.263 218.67 Q679.263 209.92 682.318 205.337 Q685.397 200.731 691.207 200.731 Z" fill="#000000" fill-rule="nonzero" fill-opacity="1" /><path clip-path="url(#clip030)" d="M712.179 231.981 L719.818 231.981 L719.818 205.615 L711.508 207.282 L711.508 203.022 L719.772 201.356 L724.448 201.356 L724.448 231.981 L732.086 231.981 L732.086 235.916 L712.179 235.916 L712.179 231.981 Z" fill="#000000" fill-rule="nonzero" fill-opacity="1" /><polyline clip-path="url(#clip030)" style="stroke:#e26f46; stroke-linecap:round; stroke-linejoin:round; stroke-width:4; stroke-opacity:0.5; fill:none" points="343.018,270.476 483.232,270.476 "/>
<path clip-path="url(#clip030)" d="M527.226 257.733 Q524.865 256.112 519.333 256.112 Q513.476 256.112 513.476 258.821 Q513.476 260.95 519.588 262.061 Q524.402 262.918 527.111 265.51 Q530.398 268.635 530.398 275.047 Q530.398 281.182 527.226 284.793 Q524.055 288.427 518.5 288.427 Q512.967 288.427 509.773 284.793 Q506.602 281.182 506.602 274.816 Q506.602 270.094 509.773 266.274 Q511 264.793 512.736 263.96 Q509.125 262.131 509.125 258.867 Q509.125 252.571 519.333 252.571 Q524.449 252.571 527.226 254.191 L527.226 257.733 M515.93 265.117 Q514.356 265.788 513.083 267.478 Q511.092 270.094 511.092 274.816 Q511.092 279.515 513.06 282.154 Q515.051 284.816 518.5 284.816 Q521.902 284.816 523.893 282.131 Q525.884 279.446 525.884 275.047 Q525.884 270.441 523.777 268.219 Q521.532 265.835 518.615 265.58 Q517.134 265.441 515.93 265.117 Z" fill="#000000" fill-rule="nonzero" fill-opacity="1" /><path clip-path="url(#clip030)" d="M559.009 261.83 L549.634 274.446 L559.495 287.756 L554.472 287.756 L546.925 277.571 L539.379 287.756 L534.356 287.756 L544.425 274.191 L535.212 261.83 L540.236 261.83 L547.111 271.066 L553.986 261.83 L559.009 261.83 Z" fill="#000000" fill-rule="nonzero" fill-opacity="1" /><path clip-path="url(#clip030)" d="M581.138 266.228 L610.814 266.228 L610.814 270.117 L581.138 270.117 L581.138 266.228 M581.138 275.672 L610.814 275.672 L610.814 279.608 L581.138 279.608 L581.138 275.672 Z" fill="#000000" fill-rule="nonzero" fill-opacity="1" /><path clip-path="url(#clip030)" d="M645.976 256.274 Q642.365 256.274 640.536 259.839 Q638.73 263.381 638.73 270.51 Q638.73 277.617 640.536 281.182 Q642.365 284.723 645.976 284.723 Q649.61 284.723 651.416 281.182 Q653.244 277.617 653.244 270.51 Q653.244 263.381 651.416 259.839 Q649.61 256.274 645.976 256.274 M645.976 252.571 Q651.786 252.571 654.841 257.177 Q657.92 261.76 657.92 270.51 Q657.92 279.237 654.841 283.844 Q651.786 288.427 645.976 288.427 Q640.166 288.427 637.087 283.844 Q634.031 279.237 634.031 270.51 Q634.031 261.76 637.087 257.177 Q640.166 252.571 645.976 252.571 Z" fill="#000000" fill-rule="nonzero" fill-opacity="1" /><path clip-path="url(#clip030)" d="M666.138 281.876 L671.022 281.876 L671.022 287.756 L666.138 287.756 L666.138 281.876 Z" fill="#000000" fill-rule="nonzero" fill-opacity="1" /><path clip-path="url(#clip030)" d="M691.207 256.274 Q687.596 256.274 685.767 259.839 Q683.962 263.381 683.962 270.51 Q683.962 277.617 685.767 281.182 Q687.596 284.723 691.207 284.723 Q694.841 284.723 696.647 281.182 Q698.475 277.617 698.475 270.51 Q698.475 263.381 696.647 259.839 Q694.841 256.274 691.207 256.274 M691.207 252.571 Q697.017 252.571 700.073 257.177 Q703.151 261.76 703.151 270.51 Q703.151 279.237 700.073 283.844 Q697.017 288.427 691.207 288.427 Q685.397 288.427 682.318 283.844 Q679.263 279.237 679.263 270.51 Q679.263 261.76 682.318 257.177 Q685.397 252.571 691.207 252.571 Z" fill="#000000" fill-rule="nonzero" fill-opacity="1" /><path clip-path="url(#clip030)" d="M715.397 283.821 L731.716 283.821 L731.716 287.756 L709.772 287.756 L709.772 283.821 Q712.434 281.066 717.017 276.436 Q721.624 271.784 722.804 270.441 Q725.049 267.918 725.929 266.182 Q726.832 264.423 726.832 262.733 Q726.832 259.978 724.887 258.242 Q722.966 256.506 719.864 256.506 Q717.665 256.506 715.211 257.27 Q712.781 258.034 710.003 259.585 L710.003 254.862 Q712.827 253.728 715.281 253.149 Q717.735 252.571 719.772 252.571 Q725.142 252.571 728.336 255.256 Q731.531 257.941 731.531 262.432 Q731.531 264.561 730.721 266.483 Q729.934 268.381 727.827 270.973 Q727.248 271.645 724.147 274.862 Q721.045 278.057 715.397 283.821 Z" fill="#000000" fill-rule="nonzero" fill-opacity="1" /><polyline clip-path="url(#clip030)" style="stroke:#3da44d; stroke-linecap:round; stroke-linejoin:round; stroke-width:4; stroke-opacity:0.5; fill:none" points="343.018,322.316 483.232,322.316 "/>
<path clip-path="url(#clip030)" d="M527.226 309.573 Q524.865 307.952 519.333 307.952 Q513.476 307.952 513.476 310.661 Q513.476 312.79 519.588 313.901 Q524.402 314.758 527.111 317.35 Q530.398 320.475 530.398 326.887 Q530.398 333.022 527.226 336.633 Q524.055 340.267 518.5 340.267 Q512.967 340.267 509.773 336.633 Q506.602 333.022 506.602 326.656 Q506.602 321.934 509.773 318.114 Q511 316.633 512.736 315.8 Q509.125 313.971 509.125 310.707 Q509.125 304.411 519.333 304.411 Q524.449 304.411 527.226 306.031 L527.226 309.573 M515.93 316.957 Q514.356 317.628 513.083 319.318 Q511.092 321.934 511.092 326.656 Q511.092 331.355 513.06 333.994 Q515.051 336.656 518.5 336.656 Q521.902 336.656 523.893 333.971 Q525.884 331.286 525.884 326.887 Q525.884 322.281 523.777 320.059 Q521.532 317.675 518.615 317.42 Q517.134 317.281 515.93 316.957 Z" fill="#000000" fill-rule="nonzero" fill-opacity="1" /><path clip-path="url(#clip030)" d="M559.009 313.67 L549.634 326.286 L559.495 339.596 L554.472 339.596 L546.925 329.411 L539.379 339.596 L534.356 339.596 L544.425 326.031 L535.212 313.67 L540.236 313.67 L547.111 322.906 L553.986 313.67 L559.009 313.67 Z" fill="#000000" fill-rule="nonzero" fill-opacity="1" /><path clip-path="url(#clip030)" d="M581.138 318.068 L610.814 318.068 L610.814 321.957 L581.138 321.957 L581.138 318.068 M581.138 327.512 L610.814 327.512 L610.814 331.448 L581.138 331.448 L581.138 327.512 Z" fill="#000000" fill-rule="nonzero" fill-opacity="1" /><path clip-path="url(#clip030)" d="M645.976 308.114 Q642.365 308.114 640.536 311.679 Q638.73 315.221 638.73 322.35 Q638.73 329.457 640.536 333.022 Q642.365 336.563 645.976 336.563 Q649.61 336.563 651.416 333.022 Q653.244 329.457 653.244 322.35 Q653.244 315.221 651.416 311.679 Q649.61 308.114 645.976 308.114 M645.976 304.411 Q651.786 304.411 654.841 309.017 Q657.92 313.6 657.92 322.35 Q657.92 331.077 654.841 335.684 Q651.786 340.267 645.976 340.267 Q640.166 340.267 637.087 335.684 Q634.031 331.077 634.031 322.35 Q634.031 313.6 637.087 309.017 Q640.166 304.411 645.976 304.411 Z" fill="#000000" fill-rule="nonzero" fill-opacity="1" /><path clip-path="url(#clip030)" d="M666.138 333.716 L671.022 333.716 L671.022 339.596 L666.138 339.596 L666.138 333.716 Z" fill="#000000" fill-rule="nonzero" fill-opacity="1" /><path clip-path="url(#clip030)" d="M691.207 308.114 Q687.596 308.114 685.767 311.679 Q683.962 315.221 683.962 322.35 Q683.962 329.457 685.767 333.022 Q687.596 336.563 691.207 336.563 Q694.841 336.563 696.647 333.022 Q698.475 329.457 698.475 322.35 Q698.475 315.221 696.647 311.679 Q694.841 308.114 691.207 308.114 M691.207 304.411 Q697.017 304.411 700.073 309.017 Q703.151 313.6 703.151 322.35 Q703.151 331.077 700.073 335.684 Q697.017 340.267 691.207 340.267 Q685.397 340.267 682.318 335.684 Q679.263 331.077 679.263 322.35 Q679.263 313.6 682.318 309.017 Q685.397 304.411 691.207 304.411 Z" fill="#000000" fill-rule="nonzero" fill-opacity="1" /><path clip-path="url(#clip030)" d="M711.415 305.036 L729.772 305.036 L729.772 308.971 L715.698 308.971 L715.698 317.443 Q716.716 317.096 717.735 316.934 Q718.753 316.749 719.772 316.749 Q725.559 316.749 728.938 319.92 Q732.318 323.091 732.318 328.508 Q732.318 334.086 728.846 337.188 Q725.373 340.267 719.054 340.267 Q716.878 340.267 714.61 339.897 Q712.364 339.526 709.957 338.786 L709.957 334.086 Q712.04 335.221 714.262 335.776 Q716.485 336.332 718.961 336.332 Q722.966 336.332 725.304 334.225 Q727.642 332.119 727.642 328.508 Q727.642 324.897 725.304 322.79 Q722.966 320.684 718.961 320.684 Q717.086 320.684 715.211 321.1 Q713.36 321.517 711.415 322.397 L711.415 305.036 Z" fill="#000000" fill-rule="nonzero" fill-opacity="1" /><polyline clip-path="url(#clip030)" style="stroke:#c271d2; stroke-linecap:round; stroke-linejoin:round; stroke-width:4; stroke-opacity:0.5; fill:none" points="343.018,374.156 483.232,374.156 "/>
<path clip-path="url(#clip030)" d="M527.226 361.413 Q524.865 359.792 519.333 359.792 Q513.476 359.792 513.476 362.501 Q513.476 364.63 519.588 365.741 Q524.402 366.598 527.111 369.19 Q530.398 372.315 530.398 378.727 Q530.398 384.862 527.226 388.473 Q524.055 392.107 518.5 392.107 Q512.967 392.107 509.773 388.473 Q506.602 384.862 506.602 378.496 Q506.602 373.774 509.773 369.954 Q511 368.473 512.736 367.64 Q509.125 365.811 509.125 362.547 Q509.125 356.251 519.333 356.251 Q524.449 356.251 527.226 357.871 L527.226 361.413 M515.93 368.797 Q514.356 369.468 513.083 371.158 Q511.092 373.774 511.092 378.496 Q511.092 383.195 513.06 385.834 Q515.051 388.496 518.5 388.496 Q521.902 388.496 523.893 385.811 Q525.884 383.126 525.884 378.727 Q525.884 374.121 523.777 371.899 Q521.532 369.515 518.615 369.26 Q517.134 369.121 515.93 368.797 Z" fill="#000000" fill-rule="nonzero" fill-opacity="1" /><path clip-path="url(#clip030)" d="M559.009 365.51 L549.634 378.126 L559.495 391.436 L554.472 391.436 L546.925 381.251 L539.379 391.436 L534.356 391.436 L544.425 377.871 L535.212 365.51 L540.236 365.51 L547.111 374.746 L553.986 365.51 L559.009 365.51 Z" fill="#000000" fill-rule="nonzero" fill-opacity="1" /><path clip-path="url(#clip030)" d="M581.138 369.908 L610.814 369.908 L610.814 373.797 L581.138 373.797 L581.138 369.908 M581.138 379.352 L610.814 379.352 L610.814 383.288 L581.138 383.288 L581.138 379.352 Z" fill="#000000" fill-rule="nonzero" fill-opacity="1" /><path clip-path="url(#clip030)" d="M636.786 387.501 L644.425 387.501 L644.425 361.135 L636.115 362.802 L636.115 358.542 L644.379 356.876 L649.054 356.876 L649.054 387.501 L656.693 387.501 L656.693 391.436 L636.786 391.436 L636.786 387.501 Z" fill="#000000" fill-rule="nonzero" fill-opacity="1" /><path clip-path="url(#clip030)" d="M666.138 385.556 L671.022 385.556 L671.022 391.436 L666.138 391.436 L666.138 385.556 Z" fill="#000000" fill-rule="nonzero" fill-opacity="1" /><path clip-path="url(#clip030)" d="M691.207 359.954 Q687.596 359.954 685.767 363.519 Q683.962 367.061 683.962 374.19 Q683.962 381.297 685.767 384.862 Q687.596 388.403 691.207 388.403 Q694.841 388.403 696.647 384.862 Q698.475 381.297 698.475 374.19 Q698.475 367.061 696.647 363.519 Q694.841 359.954 691.207 359.954 M691.207 356.251 Q697.017 356.251 700.073 360.857 Q703.151 365.44 703.151 374.19 Q703.151 382.917 700.073 387.524 Q697.017 392.107 691.207 392.107 Q685.397 392.107 682.318 387.524 Q679.263 382.917 679.263 374.19 Q679.263 365.44 682.318 360.857 Q685.397 356.251 691.207 356.251 Z" fill="#000000" fill-rule="nonzero" fill-opacity="1" /></svg>
