<?xml version="1.0" encoding="utf-8"?>
<svg xmlns="http://www.w3.org/2000/svg" xmlns:xlink="http://www.w3.org/1999/xlink" width="600" height="400" viewBox="0 0 2400 1600">
<defs>
  <clipPath id="clip680">
    <rect x="0" y="0" width="2400" height="1600"/>
  </clipPath>
</defs>
<path clip-path="url(#clip680)" d="M0 1600 L2400 1600 L2400 8.88178e-14 L0 8.88178e-14  Z" fill="#ffffff" fill-rule="evenodd" fill-opacity="1"/>
<defs>
  <clipPath id="clip681">
    <rect x="480" y="0" width="1681" height="1600"/>
  </clipPath>
</defs>
<path clip-path="url(#clip680)" d="M156.598 1486.45 L2352.76 1486.45 L2352.76 123.472 L156.598 123.472  Z" fill="#ffffff" fill-rule="evenodd" fill-opacity="1"/>
<defs>
  <clipPath id="clip682">
    <rect x="156" y="123" width="2197" height="1364"/>
  </clipPath>
</defs>
<polyline clip-path="url(#clip682)" style="stroke:#000000; stroke-linecap:round; stroke-linejoin:round; stroke-width:2; stroke-opacity:0.1; fill:none" points="197.826,1486.45 197.826,123.472 "/>
<polyline clip-path="url(#clip682)" style="stroke:#000000; stroke-linecap:round; stroke-linejoin:round; stroke-width:2; stroke-opacity:0.1; fill:none" points="721.02,1486.45 721.02,123.472 "/>
<polyline clip-path="url(#clip682)" style="stroke:#000000; stroke-linecap:round; stroke-linejoin:round; stroke-width:2; stroke-opacity:0.1; fill:none" points="1244.21,1486.45 1244.21,123.472 "/>
<polyline clip-path="url(#clip682)" style="stroke:#000000; stroke-linecap:round; stroke-linejoin:round; stroke-width:2; stroke-opacity:0.1; fill:none" points="1767.41,1486.45 1767.41,123.472 "/>
<polyline clip-path="url(#clip682)" style="stroke:#000000; stroke-linecap:round; stroke-linejoin:round; stroke-width:2; stroke-opacity:0.1; fill:none" points="2290.6,1486.45 2290.6,123.472 "/>
<polyline clip-path="url(#clip680)" style="stroke:#000000; stroke-linecap:round; stroke-linejoin:round; stroke-width:4; stroke-opacity:1; fill:none" points="156.598,1486.45 2352.76,1486.45 "/>
<polyline clip-path="url(#clip680)" style="stroke:#000000; stroke-linecap:round; stroke-linejoin:round; stroke-width:4; stroke-opacity:1; fill:none" points="197.826,1486.45 197.826,1467.55 "/>
<polyline clip-path="url(#clip680)" style="stroke:#000000; stroke-linecap:round; stroke-linejoin:round; stroke-width:4; stroke-opacity:1; fill:none" points="721.02,1486.45 721.02,1467.55 "/>
<polyline clip-path="url(#clip680)" style="stroke:#000000; stroke-linecap:round; stroke-linejoin:round; stroke-width:4; stroke-opacity:1; fill:none" points="1244.21,1486.45 1244.21,1467.55 "/>
<polyline clip-path="url(#clip680)" style="stroke:#000000; stroke-linecap:round; stroke-linejoin:round; stroke-width:4; stroke-opacity:1; fill:none" points="1767.41,1486.45 1767.41,1467.55 "/>
<polyline clip-path="url(#clip680)" style="stroke:#000000; stroke-linecap:round; stroke-linejoin:round; stroke-width:4; stroke-opacity:1; fill:none" points="2290.6,1486.45 2290.6,1467.55 "/>
<path clip-path="url(#clip680)" d="M197.826 1517.37 Q194.215 1517.37 192.386 1520.93 Q190.581 1524.47 190.581 1531.6 Q190.581 1538.71 192.386 1542.27 Q194.215 1545.82 197.826 1545.82 Q201.46 1545.82 203.266 1542.27 Q205.094 1538.71 205.094 1531.6 Q205.094 1524.47 203.266 1520.93 Q201.46 1517.37 197.826 1517.37 M197.826 1513.66 Q203.636 1513.66 206.692 1518.27 Q209.77 1522.85 209.77 1531.6 Q209.77 1540.33 206.692 1544.94 Q203.636 1549.52 197.826 1549.52 Q192.016 1549.52 188.937 1544.94 Q185.882 1540.33 185.882 1531.6 Q185.882 1522.85 188.937 1518.27 Q192.016 1513.66 197.826 1513.66 Z" fill="#000000" fill-rule="nonzero" fill-opacity="1" /><path clip-path="url(#clip680)" d="M700.29 1544.91 L716.61 1544.91 L716.61 1548.85 L694.666 1548.85 L694.666 1544.91 Q697.328 1542.16 701.911 1537.53 Q706.517 1532.88 707.698 1531.53 Q709.943 1529.01 710.823 1527.27 Q711.726 1525.51 711.726 1523.82 Q711.726 1521.07 709.781 1519.33 Q707.86 1517.6 704.758 1517.6 Q702.559 1517.6 700.105 1518.36 Q697.675 1519.13 694.897 1520.68 L694.897 1515.95 Q697.721 1514.82 700.175 1514.24 Q702.628 1513.66 704.665 1513.66 Q710.036 1513.66 713.23 1516.35 Q716.425 1519.03 716.425 1523.52 Q716.425 1525.65 715.614 1527.57 Q714.827 1529.47 712.721 1532.07 Q712.142 1532.74 709.04 1535.95 Q705.939 1539.15 700.29 1544.91 Z" fill="#000000" fill-rule="nonzero" fill-opacity="1" /><path clip-path="url(#clip680)" d="M726.471 1514.29 L744.827 1514.29 L744.827 1518.22 L730.753 1518.22 L730.753 1526.7 Q731.772 1526.35 732.79 1526.19 Q733.809 1526 734.827 1526 Q740.614 1526 743.994 1529.17 Q747.374 1532.34 747.374 1537.76 Q747.374 1543.34 743.901 1546.44 Q740.429 1549.52 734.11 1549.52 Q731.934 1549.52 729.665 1549.15 Q727.42 1548.78 725.013 1548.04 L725.013 1543.34 Q727.096 1544.47 729.318 1545.03 Q731.54 1545.58 734.017 1545.58 Q738.022 1545.58 740.36 1543.48 Q742.698 1541.37 742.698 1537.76 Q742.698 1534.15 740.36 1532.04 Q738.022 1529.94 734.017 1529.94 Q732.142 1529.94 730.267 1530.35 Q728.415 1530.77 726.471 1531.65 L726.471 1514.29 Z" fill="#000000" fill-rule="nonzero" fill-opacity="1" /><path clip-path="url(#clip680)" d="M1218.91 1514.29 L1237.27 1514.29 L1237.27 1518.22 L1223.19 1518.22 L1223.19 1526.7 Q1224.21 1526.35 1225.23 1526.19 Q1226.25 1526 1227.27 1526 Q1233.06 1526 1236.44 1529.17 Q1239.82 1532.34 1239.82 1537.76 Q1239.82 1543.34 1236.34 1546.44 Q1232.87 1549.52 1226.55 1549.52 Q1224.38 1549.52 1222.11 1549.15 Q1219.86 1548.78 1217.45 1548.04 L1217.45 1543.34 Q1219.54 1544.47 1221.76 1545.03 Q1223.98 1545.58 1226.46 1545.58 Q1230.46 1545.58 1232.8 1543.48 Q1235.14 1541.37 1235.14 1537.76 Q1235.14 1534.15 1232.8 1532.04 Q1230.46 1529.94 1226.46 1529.94 Q1224.58 1529.94 1222.71 1530.35 Q1220.86 1530.77 1218.91 1531.65 L1218.91 1514.29 Z" fill="#000000" fill-rule="nonzero" fill-opacity="1" /><path clip-path="url(#clip680)" d="M1259.03 1517.37 Q1255.42 1517.37 1253.59 1520.93 Q1251.78 1524.47 1251.78 1531.6 Q1251.78 1538.71 1253.59 1542.27 Q1255.42 1545.82 1259.03 1545.82 Q1262.66 1545.82 1264.47 1542.27 Q1266.3 1538.71 1266.3 1531.6 Q1266.3 1524.47 1264.47 1520.93 Q1262.66 1517.37 1259.03 1517.37 M1259.03 1513.66 Q1264.84 1513.66 1267.89 1518.27 Q1270.97 1522.85 1270.97 1531.6 Q1270.97 1540.33 1267.89 1544.94 Q1264.84 1549.52 1259.03 1549.52 Q1253.22 1549.52 1250.14 1544.94 Q1247.08 1540.33 1247.08 1531.6 Q1247.08 1522.85 1250.14 1518.27 Q1253.22 1513.66 1259.03 1513.66 Z" fill="#000000" fill-rule="nonzero" fill-opacity="1" /><path clip-path="url(#clip680)" d="M1741.26 1514.29 L1763.48 1514.29 L1763.48 1516.28 L1750.94 1548.85 L1746.05 1548.85 L1757.86 1518.22 L1741.26 1518.22 L1741.26 1514.29 Z" fill="#000000" fill-rule="nonzero" fill-opacity="1" /><path clip-path="url(#clip680)" d="M1772.65 1514.29 L1791.01 1514.29 L1791.01 1518.22 L1776.93 1518.22 L1776.93 1526.7 Q1777.95 1526.35 1778.97 1526.19 Q1779.99 1526 1781.01 1526 Q1786.79 1526 1790.17 1529.17 Q1793.55 1532.34 1793.55 1537.76 Q1793.55 1543.34 1790.08 1546.44 Q1786.61 1549.52 1780.29 1549.52 Q1778.11 1549.52 1775.84 1549.15 Q1773.6 1548.78 1771.19 1548.04 L1771.19 1543.34 Q1773.27 1544.47 1775.5 1545.03 Q1777.72 1545.58 1780.2 1545.58 Q1784.2 1545.58 1786.54 1543.48 Q1788.88 1541.37 1788.88 1537.76 Q1788.88 1534.15 1786.54 1532.04 Q1784.2 1529.94 1780.2 1529.94 Q1778.32 1529.94 1776.45 1530.35 Q1774.59 1530.77 1772.65 1531.65 L1772.65 1514.29 Z" fill="#000000" fill-rule="nonzero" fill-opacity="1" /><path clip-path="url(#clip680)" d="M2250.21 1544.91 L2257.85 1544.91 L2257.85 1518.55 L2249.54 1520.21 L2249.54 1515.95 L2257.8 1514.29 L2262.48 1514.29 L2262.48 1544.91 L2270.11 1544.91 L2270.11 1548.85 L2250.21 1548.85 L2250.21 1544.91 Z" fill="#000000" fill-rule="nonzero" fill-opacity="1" /><path clip-path="url(#clip680)" d="M2289.56 1517.37 Q2285.95 1517.37 2284.12 1520.93 Q2282.31 1524.47 2282.31 1531.6 Q2282.31 1538.71 2284.12 1542.27 Q2285.95 1545.82 2289.56 1545.82 Q2293.19 1545.82 2295 1542.27 Q2296.83 1538.71 2296.83 1531.6 Q2296.83 1524.47 2295 1520.93 Q2293.19 1517.37 2289.56 1517.37 M2289.56 1513.66 Q2295.37 1513.66 2298.42 1518.27 Q2301.5 1522.85 2301.5 1531.6 Q2301.5 1540.33 2298.42 1544.94 Q2295.37 1549.52 2289.56 1549.52 Q2283.75 1549.52 2280.67 1544.94 Q2277.61 1540.33 2277.61 1531.6 Q2277.61 1522.85 2280.67 1518.27 Q2283.75 1513.66 2289.56 1513.66 Z" fill="#000000" fill-rule="nonzero" fill-opacity="1" /><path clip-path="url(#clip680)" d="M2319.72 1517.37 Q2316.11 1517.37 2314.28 1520.93 Q2312.48 1524.47 2312.48 1531.6 Q2312.48 1538.71 2314.28 1542.27 Q2316.11 1545.82 2319.72 1545.82 Q2323.35 1545.82 2325.16 1542.27 Q2326.99 1538.71 2326.99 1531.6 Q2326.99 1524.47 2325.16 1520.93 Q2323.35 1517.37 2319.72 1517.37 M2319.72 1513.66 Q2325.53 1513.66 2328.59 1518.27 Q2331.67 1522.85 2331.67 1531.6 Q2331.67 1540.33 2328.59 1544.94 Q2325.53 1549.52 2319.72 1549.52 Q2313.91 1549.52 2310.83 1544.94 Q2307.78 1540.33 2307.78 1531.6 Q2307.78 1522.85 2310.83 1518.27 Q2313.91 1513.66 2319.72 1513.66 Z" fill="#000000" fill-rule="nonzero" fill-opacity="1" /><polyline clip-path="url(#clip682)" style="stroke:#000000; stroke-linecap:round; stroke-linejoin:round; stroke-width:2; stroke-opacity:0.1; fill:none" points="156.598,1229.89 2352.76,1229.89 "/>
<polyline clip-path="url(#clip682)" style="stroke:#000000; stroke-linecap:round; stroke-linejoin:round; stroke-width:2; stroke-opacity:0.1; fill:none" points="156.598,952.294 2352.76,952.294 "/>
<polyline clip-path="url(#clip682)" style="stroke:#000000; stroke-linecap:round; stroke-linejoin:round; stroke-width:2; stroke-opacity:0.1; fill:none" points="156.598,674.698 2352.76,674.698 "/>
<polyline clip-path="url(#clip682)" style="stroke:#000000; stroke-linecap:round; stroke-linejoin:round; stroke-width:2; stroke-opacity:0.1; fill:none" points="156.598,397.102 2352.76,397.102 "/>
<polyline clip-path="url(#clip680)" style="stroke:#000000; stroke-linecap:round; stroke-linejoin:round; stroke-width:4; stroke-opacity:1; fill:none" points="156.598,1486.45 156.598,123.472 "/>
<polyline clip-path="url(#clip680)" style="stroke:#000000; stroke-linecap:round; stroke-linejoin:round; stroke-width:4; stroke-opacity:1; fill:none" points="156.598,1229.89 175.496,1229.89 "/>
<polyline clip-path="url(#clip680)" style="stroke:#000000; stroke-linecap:round; stroke-linejoin:round; stroke-width:4; stroke-opacity:1; fill:none" points="156.598,952.294 175.496,952.294 "/>
<polyline clip-path="url(#clip680)" style="stroke:#000000; stroke-linecap:round; stroke-linejoin:round; stroke-width:4; stroke-opacity:1; fill:none" points="156.598,674.698 175.496,674.698 "/>
<polyline clip-path="url(#clip680)" style="stroke:#000000; stroke-linecap:round; stroke-linejoin:round; stroke-width:4; stroke-opacity:1; fill:none" points="156.598,397.102 175.496,397.102 "/>
<path clip-path="url(#clip680)" d="M65.0198 1215.69 Q61.4087 1215.69 59.58 1219.25 Q57.7745 1222.8 57.7745 1229.92 Q57.7745 1237.03 59.58 1240.6 Q61.4087 1244.14 65.0198 1244.14 Q68.6541 1244.14 70.4596 1240.6 Q72.2883 1237.03 72.2883 1229.92 Q72.2883 1222.8 70.4596 1219.25 Q68.6541 1215.69 65.0198 1215.69 M65.0198 1211.99 Q70.83 1211.99 73.8855 1216.59 Q76.9642 1221.17 76.9642 1229.92 Q76.9642 1238.65 73.8855 1243.26 Q70.83 1247.84 65.0198 1247.84 Q59.2097 1247.84 56.131 1243.26 Q53.0754 1238.65 53.0754 1229.92 Q53.0754 1221.17 56.131 1216.59 Q59.2097 1211.99 65.0198 1211.99 Z" fill="#000000" fill-rule="nonzero" fill-opacity="1" /><path clip-path="url(#clip680)" d="M85.1818 1241.29 L90.066 1241.29 L90.066 1247.17 L85.1818 1247.17 L85.1818 1241.29 Z" fill="#000000" fill-rule="nonzero" fill-opacity="1" /><path clip-path="url(#clip680)" d="M104.279 1243.23 L120.598 1243.23 L120.598 1247.17 L98.6539 1247.17 L98.6539 1243.23 Q101.316 1240.48 105.899 1235.85 Q110.506 1231.2 111.686 1229.86 Q113.932 1227.33 114.811 1225.6 Q115.714 1223.84 115.714 1222.15 Q115.714 1219.39 113.77 1217.66 Q111.848 1215.92 108.746 1215.92 Q106.547 1215.92 104.094 1216.68 Q101.663 1217.45 98.8854 1219 L98.8854 1214.28 Q101.709 1213.14 104.163 1212.56 Q106.617 1211.99 108.654 1211.99 Q114.024 1211.99 117.219 1214.67 Q120.413 1217.36 120.413 1221.85 Q120.413 1223.98 119.603 1225.9 Q118.816 1227.8 116.709 1230.39 Q116.131 1231.06 113.029 1234.28 Q109.927 1237.47 104.279 1243.23 Z" fill="#000000" fill-rule="nonzero" fill-opacity="1" /><path clip-path="url(#clip680)" d="M62.9365 938.093 Q59.3254 938.093 57.4967 941.658 Q55.6912 945.199 55.6912 952.329 Q55.6912 959.435 57.4967 963 Q59.3254 966.542 62.9365 966.542 Q66.5707 966.542 68.3763 963 Q70.205 959.435 70.205 952.329 Q70.205 945.199 68.3763 941.658 Q66.5707 938.093 62.9365 938.093 M62.9365 934.389 Q68.7467 934.389 71.8022 938.996 Q74.8809 943.579 74.8809 952.329 Q74.8809 961.056 71.8022 965.662 Q68.7467 970.245 62.9365 970.245 Q57.1264 970.245 54.0477 965.662 Q50.9921 961.056 50.9921 952.329 Q50.9921 943.579 54.0477 938.996 Q57.1264 934.389 62.9365 934.389 Z" fill="#000000" fill-rule="nonzero" fill-opacity="1" /><path clip-path="url(#clip680)" d="M83.0984 963.694 L87.9827 963.694 L87.9827 969.574 L83.0984 969.574 L83.0984 963.694 Z" fill="#000000" fill-rule="nonzero" fill-opacity="1" /><path clip-path="url(#clip680)" d="M111.015 939.088 L99.2095 957.537 L111.015 957.537 L111.015 939.088 M109.788 935.014 L115.668 935.014 L115.668 957.537 L120.598 957.537 L120.598 961.426 L115.668 961.426 L115.668 969.574 L111.015 969.574 L111.015 961.426 L95.4132 961.426 L95.4132 956.912 L109.788 935.014 Z" fill="#000000" fill-rule="nonzero" fill-opacity="1" /><path clip-path="url(#clip680)" d="M63.2606 660.497 Q59.6495 660.497 57.8208 664.062 Q56.0152 667.603 56.0152 674.733 Q56.0152 681.839 57.8208 685.404 Q59.6495 688.946 63.2606 688.946 Q66.8948 688.946 68.7004 685.404 Q70.5291 681.839 70.5291 674.733 Q70.5291 667.603 68.7004 664.062 Q66.8948 660.497 63.2606 660.497 M63.2606 656.793 Q69.0707 656.793 72.1263 661.4 Q75.205 665.983 75.205 674.733 Q75.205 683.46 72.1263 688.066 Q69.0707 692.649 63.2606 692.649 Q57.4504 692.649 54.3717 688.066 Q51.3162 683.46 51.3162 674.733 Q51.3162 665.983 54.3717 661.4 Q57.4504 656.793 63.2606 656.793 Z" fill="#000000" fill-rule="nonzero" fill-opacity="1" /><path clip-path="url(#clip680)" d="M83.4225 686.098 L88.3067 686.098 L88.3067 691.978 L83.4225 691.978 L83.4225 686.098 Z" fill="#000000" fill-rule="nonzero" fill-opacity="1" /><path clip-path="url(#clip680)" d="M109.071 672.835 Q105.922 672.835 104.071 674.987 Q102.242 677.14 102.242 680.89 Q102.242 684.617 104.071 686.793 Q105.922 688.946 109.071 688.946 Q112.219 688.946 114.047 686.793 Q115.899 684.617 115.899 680.89 Q115.899 677.14 114.047 674.987 Q112.219 672.835 109.071 672.835 M118.353 658.182 L118.353 662.441 Q116.594 661.608 114.788 661.168 Q113.006 660.728 111.246 660.728 Q106.617 660.728 104.163 663.853 Q101.733 666.978 101.385 673.298 Q102.751 671.284 104.811 670.219 Q106.871 669.131 109.348 669.131 Q114.557 669.131 117.566 672.302 Q120.598 675.45 120.598 680.89 Q120.598 686.214 117.45 689.432 Q114.302 692.649 109.071 692.649 Q103.075 692.649 99.9039 688.066 Q96.7326 683.46 96.7326 674.733 Q96.7326 666.538 100.621 661.677 Q104.51 656.793 111.061 656.793 Q112.82 656.793 114.603 657.14 Q116.408 657.488 118.353 658.182 Z" fill="#000000" fill-rule="nonzero" fill-opacity="1" /><path clip-path="url(#clip680)" d="M63.5152 382.901 Q59.9041 382.901 58.0754 386.466 Q56.2699 390.007 56.2699 397.137 Q56.2699 404.243 58.0754 407.808 Q59.9041 411.35 63.5152 411.35 Q67.1494 411.35 68.955 407.808 Q70.7837 404.243 70.7837 397.137 Q70.7837 390.007 68.955 386.466 Q67.1494 382.901 63.5152 382.901 M63.5152 379.197 Q69.3254 379.197 72.3809 383.804 Q75.4596 388.387 75.4596 397.137 Q75.4596 405.864 72.3809 410.47 Q69.3254 415.053 63.5152 415.053 Q57.7051 415.053 54.6264 410.47 Q51.5708 405.864 51.5708 397.137 Q51.5708 388.387 54.6264 383.804 Q57.7051 379.197 63.5152 379.197 Z" fill="#000000" fill-rule="nonzero" fill-opacity="1" /><path clip-path="url(#clip680)" d="M83.6771 408.502 L88.5614 408.502 L88.5614 414.382 L83.6771 414.382 L83.6771 408.502 Z" fill="#000000" fill-rule="nonzero" fill-opacity="1" /><path clip-path="url(#clip680)" d="M108.746 397.97 Q105.413 397.97 103.492 399.753 Q101.594 401.535 101.594 404.66 Q101.594 407.785 103.492 409.567 Q105.413 411.35 108.746 411.35 Q112.08 411.35 114.001 409.567 Q115.922 407.762 115.922 404.66 Q115.922 401.535 114.001 399.753 Q112.103 397.97 108.746 397.97 M104.071 395.979 Q101.061 395.239 99.3715 393.178 Q97.7048 391.118 97.7048 388.155 Q97.7048 384.012 100.645 381.604 Q103.608 379.197 108.746 379.197 Q113.908 379.197 116.848 381.604 Q119.788 384.012 119.788 388.155 Q119.788 391.118 118.098 393.178 Q116.432 395.239 113.445 395.979 Q116.825 396.766 118.7 399.058 Q120.598 401.35 120.598 404.66 Q120.598 409.683 117.52 412.368 Q114.464 415.053 108.746 415.053 Q103.029 415.053 99.9502 412.368 Q96.8947 409.683 96.8947 404.66 Q96.8947 401.35 98.7928 399.058 Q100.691 396.766 104.071 395.979 M102.358 388.595 Q102.358 391.28 104.024 392.785 Q105.714 394.29 108.746 394.29 Q111.756 394.29 113.445 392.785 Q115.158 391.28 115.158 388.595 Q115.158 385.91 113.445 384.405 Q111.756 382.901 108.746 382.901 Q105.714 382.901 104.024 384.405 Q102.358 385.91 102.358 388.595 Z" fill="#000000" fill-rule="nonzero" fill-opacity="1" /><path clip-path="url(#clip680)" d="M185.947 12.096 L237.11 12.096 L237.11 18.9825 L215.64 18.9825 L215.64 72.576 L207.417 72.576 L207.417 18.9825 L185.947 18.9825 L185.947 12.096 Z" fill="#000000" fill-rule="nonzero" fill-opacity="1" /><path clip-path="url(#clip680)" d="M258.783 34.1734 Q257.527 33.4443 256.028 33.1202 Q254.57 32.7556 252.787 32.7556 Q246.468 32.7556 243.065 36.8875 Q239.703 40.9789 239.703 48.6757 L239.703 72.576 L232.209 72.576 L232.209 27.2059 L239.703 27.2059 L239.703 34.2544 Q242.052 30.1225 245.82 28.1376 Q249.587 26.1121 254.975 26.1121 Q255.744 26.1121 256.676 26.2337 Q257.608 26.3147 258.742 26.5172 L258.783 34.1734 Z" fill="#000000" fill-rule="nonzero" fill-opacity="1" /><path clip-path="url(#clip680)" d="M287.22 49.7694 Q278.186 49.7694 274.703 51.8354 Q271.219 53.9013 271.219 58.8839 Q271.219 62.8538 273.811 65.2034 Q276.444 67.5124 280.941 67.5124 Q287.139 67.5124 290.866 63.1374 Q294.633 58.7219 294.633 51.4303 L294.633 49.7694 L287.22 49.7694 M302.087 46.6907 L302.087 72.576 L294.633 72.576 L294.633 65.6895 Q292.081 69.8214 288.273 71.8063 Q284.465 73.7508 278.956 73.7508 Q271.988 73.7508 267.857 69.8619 Q263.765 65.9325 263.765 59.3701 Q263.765 51.7138 268.869 47.825 Q274.014 43.9361 284.182 43.9361 L294.633 43.9361 L294.633 43.2069 Q294.633 38.0623 291.23 35.2672 Q287.868 32.4315 281.751 32.4315 Q277.862 32.4315 274.176 33.3632 Q270.49 34.295 267.087 36.1584 L267.087 29.2718 Q271.178 27.692 275.027 26.9223 Q278.875 26.1121 282.521 26.1121 Q292.365 26.1121 297.226 31.2163 Q302.087 36.3204 302.087 46.6907 Z" fill="#000000" fill-rule="nonzero" fill-opacity="1" /><path clip-path="url(#clip680)" d="M317.44 27.2059 L324.893 27.2059 L324.893 72.576 L317.44 72.576 L317.44 27.2059 M317.44 9.54393 L324.893 9.54393 L324.893 18.9825 L317.44 18.9825 L317.44 9.54393 Z" fill="#000000" fill-rule="nonzero" fill-opacity="1" /><path clip-path="url(#clip680)" d="M378.203 45.1919 L378.203 72.576 L370.75 72.576 L370.75 45.4349 Q370.75 38.994 368.238 35.7938 Q365.726 32.5936 360.703 32.5936 Q354.667 32.5936 351.184 36.4419 Q347.7 40.2903 347.7 46.9338 L347.7 72.576 L340.206 72.576 L340.206 27.2059 L347.7 27.2059 L347.7 34.2544 Q350.373 30.163 353.979 28.1376 Q357.625 26.1121 362.364 26.1121 Q370.182 26.1121 374.193 30.9732 Q378.203 35.7938 378.203 45.1919 Z" fill="#000000" fill-rule="nonzero" fill-opacity="1" /><path clip-path="url(#clip680)" d="M393.07 27.2059 L400.524 27.2059 L400.524 72.576 L393.07 72.576 L393.07 27.2059 M393.07 9.54393 L400.524 9.54393 L400.524 18.9825 L393.07 18.9825 L393.07 9.54393 Z" fill="#000000" fill-rule="nonzero" fill-opacity="1" /><path clip-path="url(#clip680)" d="M453.834 45.1919 L453.834 72.576 L446.38 72.576 L446.38 45.4349 Q446.38 38.994 443.868 35.7938 Q441.357 32.5936 436.334 32.5936 Q430.298 32.5936 426.814 36.4419 Q423.33 40.2903 423.33 46.9338 L423.33 72.576 L415.836 72.576 L415.836 27.2059 L423.33 27.2059 L423.33 34.2544 Q426.004 30.163 429.609 28.1376 Q433.255 26.1121 437.995 26.1121 Q445.813 26.1121 449.823 30.9732 Q453.834 35.7938 453.834 45.1919 Z" fill="#000000" fill-rule="nonzero" fill-opacity="1" /><path clip-path="url(#clip680)" d="M498.556 49.3643 Q498.556 41.2625 495.193 36.8065 Q491.872 32.3505 485.836 32.3505 Q479.84 32.3505 476.478 36.8065 Q473.156 41.2625 473.156 49.3643 Q473.156 57.4256 476.478 61.8816 Q479.84 66.3376 485.836 66.3376 Q491.872 66.3376 495.193 61.8816 Q498.556 57.4256 498.556 49.3643 M506.009 66.9452 Q506.009 78.5308 500.865 84.1616 Q495.72 89.8329 485.107 89.8329 Q481.177 89.8329 477.693 89.2252 Q474.21 88.6581 470.928 87.4428 L470.928 80.1917 Q474.21 81.9741 477.41 82.8248 Q480.61 83.6755 483.932 83.6755 Q491.264 83.6755 494.91 79.8271 Q498.556 76.0193 498.556 68.282 L498.556 64.5957 Q496.247 68.6061 492.641 70.5911 Q489.036 72.576 484.013 72.576 Q475.668 72.576 470.564 66.2161 Q465.46 59.8562 465.46 49.3643 Q465.46 38.832 470.564 32.472 Q475.668 26.1121 484.013 26.1121 Q489.036 26.1121 492.641 28.0971 Q496.247 30.082 498.556 34.0924 L498.556 27.2059 L506.009 27.2059 L506.009 66.9452 Z" fill="#000000" fill-rule="nonzero" fill-opacity="1" /><path clip-path="url(#clip680)" d="M584.313 14.0809 L584.313 22.0612 Q579.655 19.8332 575.523 18.7395 Q571.391 17.6457 567.542 17.6457 Q560.858 17.6457 557.213 20.2383 Q553.607 22.8309 553.607 27.611 Q553.607 31.6214 555.997 33.6873 Q558.428 35.7128 565.152 36.9686 L570.095 37.9813 Q579.25 39.7232 583.584 44.1387 Q587.959 48.5136 587.959 55.8863 Q587.959 64.6767 582.045 69.2137 Q576.171 73.7508 564.788 73.7508 Q560.494 73.7508 555.633 72.7785 Q550.812 71.8063 545.627 69.9024 L545.627 61.4765 Q550.61 64.2716 555.39 65.6895 Q560.17 67.1073 564.788 67.1073 Q571.796 67.1073 575.604 64.3527 Q579.412 61.598 579.412 56.4939 Q579.412 52.0379 576.657 49.5264 Q573.943 47.0148 567.704 45.759 L562.722 44.7868 Q553.567 42.9639 549.475 39.075 Q545.384 35.1862 545.384 28.2591 Q545.384 20.2383 551.015 15.6203 Q556.686 11.0023 566.611 11.0023 Q570.864 11.0023 575.28 11.7719 Q579.695 12.5416 584.313 14.0809 Z" fill="#000000" fill-rule="nonzero" fill-opacity="1" /><path clip-path="url(#clip680)" d="M621.014 49.7694 Q611.981 49.7694 608.497 51.8354 Q605.013 53.9013 605.013 58.8839 Q605.013 62.8538 607.606 65.2034 Q610.239 67.5124 614.735 67.5124 Q620.933 67.5124 624.66 63.1374 Q628.428 58.7219 628.428 51.4303 L628.428 49.7694 L621.014 49.7694 M635.881 46.6907 L635.881 72.576 L628.428 72.576 L628.428 65.6895 Q625.875 69.8214 622.068 71.8063 Q618.26 73.7508 612.751 73.7508 Q605.783 73.7508 601.651 69.8619 Q597.56 65.9325 597.56 59.3701 Q597.56 51.7138 602.664 47.825 Q607.808 43.9361 617.976 43.9361 L628.428 43.9361 L628.428 43.2069 Q628.428 38.0623 625.025 35.2672 Q621.663 32.4315 615.546 32.4315 Q611.657 32.4315 607.97 33.3632 Q604.284 34.295 600.881 36.1584 L600.881 29.2718 Q604.973 27.692 608.821 26.9223 Q612.67 26.1121 616.315 26.1121 Q626.159 26.1121 631.02 31.2163 Q635.881 36.3204 635.881 46.6907 Z" fill="#000000" fill-rule="nonzero" fill-opacity="1" /><path clip-path="url(#clip680)" d="M686.558 35.9153 Q689.353 30.8922 693.242 28.5022 Q697.131 26.1121 702.397 26.1121 Q709.486 26.1121 713.334 31.0947 Q717.183 36.0368 717.183 45.1919 L717.183 72.576 L709.689 72.576 L709.689 45.4349 Q709.689 38.913 707.38 35.7533 Q705.071 32.5936 700.331 32.5936 Q694.538 32.5936 691.176 36.4419 Q687.814 40.2903 687.814 46.9338 L687.814 72.576 L680.32 72.576 L680.32 45.4349 Q680.32 38.8725 678.011 35.7533 Q675.702 32.5936 670.881 32.5936 Q665.169 32.5936 661.807 36.4824 Q658.445 40.3308 658.445 46.9338 L658.445 72.576 L650.951 72.576 L650.951 27.2059 L658.445 27.2059 L658.445 34.2544 Q660.997 30.082 664.562 28.0971 Q668.126 26.1121 673.028 26.1121 Q677.97 26.1121 681.413 28.6237 Q684.897 31.1352 686.558 35.9153 Z" fill="#000000" fill-rule="nonzero" fill-opacity="1" /><path clip-path="url(#clip680)" d="M739.26 65.7705 L739.26 89.8329 L731.766 89.8329 L731.766 27.2059 L739.26 27.2059 L739.26 34.0924 Q741.61 30.0415 745.175 28.0971 Q748.78 26.1121 753.763 26.1121 Q762.026 26.1121 767.171 32.6746 Q772.356 39.2371 772.356 49.9314 Q772.356 60.6258 767.171 67.1883 Q762.026 73.7508 753.763 73.7508 Q748.78 73.7508 745.175 71.8063 Q741.61 69.8214 739.26 65.7705 M764.619 49.9314 Q764.619 41.7081 761.216 37.0496 Q757.854 32.3505 751.94 32.3505 Q746.025 32.3505 742.623 37.0496 Q739.26 41.7081 739.26 49.9314 Q739.26 58.1548 742.623 62.8538 Q746.025 67.5124 751.94 67.5124 Q757.854 67.5124 761.216 62.8538 Q764.619 58.1548 764.619 49.9314 Z" fill="#000000" fill-rule="nonzero" fill-opacity="1" /><path clip-path="url(#clip680)" d="M784.711 9.54393 L792.165 9.54393 L792.165 72.576 L784.711 72.576 L784.711 9.54393 Z" fill="#000000" fill-rule="nonzero" fill-opacity="1" /><path clip-path="url(#clip680)" d="M846.569 48.0275 L846.569 51.6733 L812.298 51.6733 Q812.784 59.3701 816.916 63.421 Q821.089 67.4314 828.502 67.4314 Q832.796 67.4314 836.806 66.3781 Q840.857 65.3249 844.827 63.2184 L844.827 70.267 Q840.816 71.9684 836.604 72.8596 Q832.391 73.7508 828.056 73.7508 Q817.2 73.7508 810.84 67.4314 Q804.52 61.1119 804.52 50.3365 Q804.52 39.1965 810.516 32.6746 Q816.552 26.1121 826.76 26.1121 Q835.915 26.1121 841.222 32.0264 Q846.569 37.9003 846.569 48.0275 M839.115 45.84 Q839.034 39.7232 835.672 36.0774 Q832.35 32.4315 826.841 32.4315 Q820.602 32.4315 816.835 35.9558 Q813.108 39.4801 812.541 45.8805 L839.115 45.84 Z" fill="#000000" fill-rule="nonzero" fill-opacity="1" /><path clip-path="url(#clip680)" d="M887.645 65.6895 L901.013 65.6895 L901.013 19.5497 L886.47 22.4663 L886.47 15.0127 L900.932 12.096 L909.115 12.096 L909.115 65.6895 L922.483 65.6895 L922.483 72.576 L887.645 72.576 L887.645 65.6895 Z" fill="#000000" fill-rule="nonzero" fill-opacity="1" /><path clip-path="url(#clip680)" d="M939.861 62.2867 L948.408 62.2867 L948.408 69.2543 L941.765 82.2172 L936.539 82.2172 L939.861 69.2543 L939.861 62.2867 Z" fill="#000000" fill-rule="nonzero" fill-opacity="1" /><path clip-path="url(#clip680)" d="M993.171 65.6895 L1006.54 65.6895 L1006.54 19.5497 L991.996 22.4663 L991.996 15.0127 L1006.46 12.096 L1014.64 12.096 L1014.64 65.6895 L1028.01 65.6895 L1028.01 72.576 L993.171 72.576 L993.171 65.6895 Z" fill="#000000" fill-rule="nonzero" fill-opacity="1" /><path clip-path="url(#clip680)" d="M1062.04 17.4837 Q1055.72 17.4837 1052.52 23.7221 Q1049.36 29.92 1049.36 42.3968 Q1049.36 54.833 1052.52 61.0714 Q1055.72 67.2693 1062.04 67.2693 Q1068.4 67.2693 1071.56 61.0714 Q1074.76 54.833 1074.76 42.3968 Q1074.76 29.92 1071.56 23.7221 Q1068.4 17.4837 1062.04 17.4837 M1062.04 11.0023 Q1072.2 11.0023 1077.55 19.0636 Q1082.94 27.0843 1082.94 42.3968 Q1082.94 57.6687 1077.55 65.73 Q1072.2 73.7508 1062.04 73.7508 Q1051.87 73.7508 1046.48 65.73 Q1041.13 57.6687 1041.13 42.3968 Q1041.13 27.0843 1046.48 19.0636 Q1051.87 11.0023 1062.04 11.0023 Z" fill="#000000" fill-rule="nonzero" fill-opacity="1" /><path clip-path="url(#clip680)" d="M1114.82 17.4837 Q1108.5 17.4837 1105.3 23.7221 Q1102.14 29.92 1102.14 42.3968 Q1102.14 54.833 1105.3 61.0714 Q1108.5 67.2693 1114.82 67.2693 Q1121.18 67.2693 1124.34 61.0714 Q1127.54 54.833 1127.54 42.3968 Q1127.54 29.92 1124.34 23.7221 Q1121.18 17.4837 1114.82 17.4837 M1114.82 11.0023 Q1124.99 11.0023 1130.33 19.0636 Q1135.72 27.0843 1135.72 42.3968 Q1135.72 57.6687 1130.33 65.73 Q1124.99 73.7508 1114.82 73.7508 Q1104.65 73.7508 1099.26 65.73 Q1093.92 57.6687 1093.92 42.3968 Q1093.92 27.0843 1099.26 19.0636 Q1104.65 11.0023 1114.82 11.0023 Z" fill="#000000" fill-rule="nonzero" fill-opacity="1" /><path clip-path="url(#clip680)" d="M1167.6 17.4837 Q1161.28 17.4837 1158.08 23.7221 Q1154.92 29.92 1154.92 42.3968 Q1154.92 54.833 1158.08 61.0714 Q1161.28 67.2693 1167.6 67.2693 Q1173.96 67.2693 1177.12 61.0714 Q1180.32 54.833 1180.32 42.3968 Q1180.32 29.92 1177.12 23.7221 Q1173.96 17.4837 1167.6 17.4837 M1167.6 11.0023 Q1177.77 11.0023 1183.12 19.0636 Q1188.51 27.0843 1188.51 42.3968 Q1188.51 57.6687 1183.12 65.73 Q1177.77 73.7508 1167.6 73.7508 Q1157.44 73.7508 1152.05 65.73 Q1146.7 57.6687 1146.7 42.3968 Q1146.7 27.0843 1152.05 19.0636 Q1157.44 11.0023 1167.6 11.0023 Z" fill="#000000" fill-rule="nonzero" fill-opacity="1" /><path clip-path="url(#clip680)" d="M1264.78 14.0809 L1264.78 22.0612 Q1260.13 19.8332 1255.99 18.7395 Q1251.86 17.6457 1248.01 17.6457 Q1241.33 17.6457 1237.68 20.2383 Q1234.08 22.8309 1234.08 27.611 Q1234.08 31.6214 1236.47 33.6873 Q1238.9 35.7128 1245.62 36.9686 L1250.57 37.9813 Q1259.72 39.7232 1264.05 44.1387 Q1268.43 48.5136 1268.43 55.8863 Q1268.43 64.6767 1262.52 69.2137 Q1256.64 73.7508 1245.26 73.7508 Q1240.96 73.7508 1236.1 72.7785 Q1231.28 71.8063 1226.1 69.9024 L1226.1 61.4765 Q1231.08 64.2716 1235.86 65.6895 Q1240.64 67.1073 1245.26 67.1073 Q1252.27 67.1073 1256.07 64.3527 Q1259.88 61.598 1259.88 56.4939 Q1259.88 52.0379 1257.13 49.5264 Q1254.41 47.0148 1248.18 45.759 L1243.19 44.7868 Q1234.04 42.9639 1229.95 39.075 Q1225.85 35.1862 1225.85 28.2591 Q1225.85 20.2383 1231.49 15.6203 Q1237.16 11.0023 1247.08 11.0023 Q1251.34 11.0023 1255.75 11.7719 Q1260.17 12.5416 1264.78 14.0809 Z" fill="#000000" fill-rule="nonzero" fill-opacity="1" /><path clip-path="url(#clip680)" d="M1301.49 49.7694 Q1292.45 49.7694 1288.97 51.8354 Q1285.48 53.9013 1285.48 58.8839 Q1285.48 62.8538 1288.08 65.2034 Q1290.71 67.5124 1295.21 67.5124 Q1301.4 67.5124 1305.13 63.1374 Q1308.9 58.7219 1308.9 51.4303 L1308.9 49.7694 L1301.49 49.7694 M1316.35 46.6907 L1316.35 72.576 L1308.9 72.576 L1308.9 65.6895 Q1306.35 69.8214 1302.54 71.8063 Q1298.73 73.7508 1293.22 73.7508 Q1286.25 73.7508 1282.12 69.8619 Q1278.03 65.9325 1278.03 59.3701 Q1278.03 51.7138 1283.13 47.825 Q1288.28 43.9361 1298.45 43.9361 L1308.9 43.9361 L1308.9 43.2069 Q1308.9 38.0623 1305.5 35.2672 Q1302.13 32.4315 1296.02 32.4315 Q1292.13 32.4315 1288.44 33.3632 Q1284.76 34.295 1281.35 36.1584 L1281.35 29.2718 Q1285.44 27.692 1289.29 26.9223 Q1293.14 26.1121 1296.79 26.1121 Q1306.63 26.1121 1311.49 31.2163 Q1316.35 36.3204 1316.35 46.6907 Z" fill="#000000" fill-rule="nonzero" fill-opacity="1" /><path clip-path="url(#clip680)" d="M1367.03 35.9153 Q1369.82 30.8922 1373.71 28.5022 Q1377.6 26.1121 1382.87 26.1121 Q1389.96 26.1121 1393.81 31.0947 Q1397.65 36.0368 1397.65 45.1919 L1397.65 72.576 L1390.16 72.576 L1390.16 45.4349 Q1390.16 38.913 1387.85 35.7533 Q1385.54 32.5936 1380.8 32.5936 Q1375.01 32.5936 1371.65 36.4419 Q1368.28 40.2903 1368.28 46.9338 L1368.28 72.576 L1360.79 72.576 L1360.79 45.4349 Q1360.79 38.8725 1358.48 35.7533 Q1356.17 32.5936 1351.35 32.5936 Q1345.64 32.5936 1342.28 36.4824 Q1338.92 40.3308 1338.92 46.9338 L1338.92 72.576 L1331.42 72.576 L1331.42 27.2059 L1338.92 27.2059 L1338.92 34.2544 Q1341.47 30.082 1345.03 28.0971 Q1348.6 26.1121 1353.5 26.1121 Q1358.44 26.1121 1361.88 28.6237 Q1365.37 31.1352 1367.03 35.9153 Z" fill="#000000" fill-rule="nonzero" fill-opacity="1" /><path clip-path="url(#clip680)" d="M1419.73 65.7705 L1419.73 89.8329 L1412.24 89.8329 L1412.24 27.2059 L1419.73 27.2059 L1419.73 34.0924 Q1422.08 30.0415 1425.65 28.0971 Q1429.25 26.1121 1434.23 26.1121 Q1442.5 26.1121 1447.64 32.6746 Q1452.83 39.2371 1452.83 49.9314 Q1452.83 60.6258 1447.64 67.1883 Q1442.5 73.7508 1434.23 73.7508 Q1429.25 73.7508 1425.65 71.8063 Q1422.08 69.8214 1419.73 65.7705 M1445.09 49.9314 Q1445.09 41.7081 1441.69 37.0496 Q1438.32 32.3505 1432.41 32.3505 Q1426.5 32.3505 1423.09 37.0496 Q1419.73 41.7081 1419.73 49.9314 Q1419.73 58.1548 1423.09 62.8538 Q1426.5 67.5124 1432.41 67.5124 Q1438.32 67.5124 1441.69 62.8538 Q1445.09 58.1548 1445.09 49.9314 Z" fill="#000000" fill-rule="nonzero" fill-opacity="1" /><path clip-path="url(#clip680)" d="M1465.18 9.54393 L1472.64 9.54393 L1472.64 72.576 L1465.18 72.576 L1465.18 9.54393 Z" fill="#000000" fill-rule="nonzero" fill-opacity="1" /><path clip-path="url(#clip680)" d="M1527.04 48.0275 L1527.04 51.6733 L1492.77 51.6733 Q1493.26 59.3701 1497.39 63.421 Q1501.56 67.4314 1508.97 67.4314 Q1513.27 67.4314 1517.28 66.3781 Q1521.33 65.3249 1525.3 63.2184 L1525.3 70.267 Q1521.29 71.9684 1517.07 72.8596 Q1512.86 73.7508 1508.53 73.7508 Q1497.67 73.7508 1491.31 67.4314 Q1484.99 61.1119 1484.99 50.3365 Q1484.99 39.1965 1490.99 32.6746 Q1497.02 26.1121 1507.23 26.1121 Q1516.39 26.1121 1521.69 32.0264 Q1527.04 37.9003 1527.04 48.0275 M1519.59 45.84 Q1519.5 39.7232 1516.14 36.0774 Q1512.82 32.4315 1507.31 32.4315 Q1501.07 32.4315 1497.31 35.9558 Q1493.58 39.4801 1493.01 45.8805 L1519.59 45.84 Z" fill="#000000" fill-rule="nonzero" fill-opacity="1" /><path clip-path="url(#clip680)" d="M1565.97 12.096 L1604.21 12.096 L1604.21 18.9825 L1574.15 18.9825 L1574.15 36.8875 L1602.95 36.8875 L1602.95 43.7741 L1574.15 43.7741 L1574.15 65.6895 L1604.94 65.6895 L1604.94 72.576 L1565.97 72.576 L1565.97 12.096 Z" fill="#000000" fill-rule="nonzero" fill-opacity="1" /><path clip-path="url(#clip680)" d="M1646.99 28.5427 L1646.99 35.5912 Q1643.83 33.9709 1640.42 33.1607 Q1637.02 32.3505 1633.38 32.3505 Q1627.83 32.3505 1625.03 34.0519 Q1622.28 35.7533 1622.28 39.156 Q1622.28 41.7486 1624.26 43.2475 Q1626.25 44.7058 1632.24 46.0426 L1634.79 46.6097 Q1642.73 48.3111 1646.06 51.4303 Q1649.42 54.509 1649.42 60.0587 Q1649.42 66.3781 1644.39 70.0644 Q1639.41 73.7508 1630.66 73.7508 Q1627.02 73.7508 1623.05 73.0216 Q1619.12 72.3329 1614.74 70.9151 L1614.74 63.2184 Q1618.87 65.3654 1622.88 66.4591 Q1626.89 67.5124 1630.82 67.5124 Q1636.09 67.5124 1638.93 65.73 Q1641.76 63.9071 1641.76 60.6258 Q1641.76 57.5877 1639.7 55.9673 Q1637.67 54.3469 1630.74 52.8481 L1628.15 52.2405 Q1621.22 50.7821 1618.14 47.7845 Q1615.07 44.7463 1615.07 39.4801 Q1615.07 33.0797 1619.6 29.5959 Q1624.14 26.1121 1632.48 26.1121 Q1636.62 26.1121 1640.26 26.7198 Q1643.91 27.3274 1646.99 28.5427 Z" fill="#000000" fill-rule="nonzero" fill-opacity="1" /><path clip-path="url(#clip680)" d="M1668.66 14.324 L1668.66 27.2059 L1684.01 27.2059 L1684.01 32.9987 L1668.66 32.9987 L1668.66 57.6282 Q1668.66 63.1779 1670.16 64.7578 Q1671.7 66.3376 1676.36 66.3376 L1684.01 66.3376 L1684.01 72.576 L1676.36 72.576 Q1667.73 72.576 1664.45 69.3758 Q1661.17 66.1351 1661.17 57.6282 L1661.17 32.9987 L1655.7 32.9987 L1655.7 27.2059 L1661.17 27.2059 L1661.17 14.324 L1668.66 14.324 Z" fill="#000000" fill-rule="nonzero" fill-opacity="1" /><path clip-path="url(#clip680)" d="M1693.82 27.2059 L1701.27 27.2059 L1701.27 72.576 L1693.82 72.576 L1693.82 27.2059 M1693.82 9.54393 L1701.27 9.54393 L1701.27 18.9825 L1693.82 18.9825 L1693.82 9.54393 Z" fill="#000000" fill-rule="nonzero" fill-opacity="1" /><path clip-path="url(#clip680)" d="M1752.19 35.9153 Q1754.98 30.8922 1758.87 28.5022 Q1762.76 26.1121 1768.03 26.1121 Q1775.12 26.1121 1778.97 31.0947 Q1782.81 36.0368 1782.81 45.1919 L1782.81 72.576 L1775.32 72.576 L1775.32 45.4349 Q1775.32 38.913 1773.01 35.7533 Q1770.7 32.5936 1765.96 32.5936 Q1760.17 32.5936 1756.81 36.4419 Q1753.44 40.2903 1753.44 46.9338 L1753.44 72.576 L1745.95 72.576 L1745.95 45.4349 Q1745.95 38.8725 1743.64 35.7533 Q1741.33 32.5936 1736.51 32.5936 Q1730.8 32.5936 1727.44 36.4824 Q1724.08 40.3308 1724.08 46.9338 L1724.08 72.576 L1716.58 72.576 L1716.58 27.2059 L1724.08 27.2059 L1724.08 34.2544 Q1726.63 30.082 1730.19 28.0971 Q1733.76 26.1121 1738.66 26.1121 Q1743.6 26.1121 1747.04 28.6237 Q1750.53 31.1352 1752.19 35.9153 Z" fill="#000000" fill-rule="nonzero" fill-opacity="1" /><path clip-path="url(#clip680)" d="M1818.3 49.7694 Q1809.27 49.7694 1805.78 51.8354 Q1802.3 53.9013 1802.3 58.8839 Q1802.3 62.8538 1804.89 65.2034 Q1807.52 67.5124 1812.02 67.5124 Q1818.22 67.5124 1821.95 63.1374 Q1825.71 58.7219 1825.71 51.4303 L1825.71 49.7694 L1818.3 49.7694 M1833.17 46.6907 L1833.17 72.576 L1825.71 72.576 L1825.71 65.6895 Q1823.16 69.8214 1819.35 71.8063 Q1815.55 73.7508 1810.04 73.7508 Q1803.07 73.7508 1798.94 69.8619 Q1794.84 65.9325 1794.84 59.3701 Q1794.84 51.7138 1799.95 47.825 Q1805.09 43.9361 1815.26 43.9361 L1825.71 43.9361 L1825.71 43.2069 Q1825.71 38.0623 1822.31 35.2672 Q1818.95 32.4315 1812.83 32.4315 Q1808.94 32.4315 1805.26 33.3632 Q1801.57 34.295 1798.17 36.1584 L1798.17 29.2718 Q1802.26 27.692 1806.11 26.9223 Q1809.95 26.1121 1813.6 26.1121 Q1823.44 26.1121 1828.31 31.2163 Q1833.17 36.3204 1833.17 46.6907 Z" fill="#000000" fill-rule="nonzero" fill-opacity="1" /><path clip-path="url(#clip680)" d="M1855.89 14.324 L1855.89 27.2059 L1871.24 27.2059 L1871.24 32.9987 L1855.89 32.9987 L1855.89 57.6282 Q1855.89 63.1779 1857.39 64.7578 Q1858.93 66.3376 1863.59 66.3376 L1871.24 66.3376 L1871.24 72.576 L1863.59 72.576 Q1854.96 72.576 1851.68 69.3758 Q1848.4 66.1351 1848.4 57.6282 L1848.4 32.9987 L1842.93 32.9987 L1842.93 27.2059 L1848.4 27.2059 L1848.4 14.324 L1855.89 14.324 Z" fill="#000000" fill-rule="nonzero" fill-opacity="1" /><path clip-path="url(#clip680)" d="M1919.86 48.0275 L1919.86 51.6733 L1885.59 51.6733 Q1886.07 59.3701 1890.2 63.421 Q1894.38 67.4314 1901.79 67.4314 Q1906.08 67.4314 1910.09 66.3781 Q1914.14 65.3249 1918.11 63.2184 L1918.11 70.267 Q1914.1 71.9684 1909.89 72.8596 Q1905.68 73.7508 1901.34 73.7508 Q1890.49 73.7508 1884.13 67.4314 Q1877.81 61.1119 1877.81 50.3365 Q1877.81 39.1965 1883.8 32.6746 Q1889.84 26.1121 1900.05 26.1121 Q1909.2 26.1121 1914.51 32.0264 Q1919.86 37.9003 1919.86 48.0275 M1912.4 45.84 Q1912.32 39.7232 1908.96 36.0774 Q1905.64 32.4315 1900.13 32.4315 Q1893.89 32.4315 1890.12 35.9558 Q1886.4 39.4801 1885.83 45.8805 L1912.4 45.84 Z" fill="#000000" fill-rule="nonzero" fill-opacity="1" /><path clip-path="url(#clip680)" d="M1933.99 62.2867 L1942.54 62.2867 L1942.54 69.2543 L1935.9 82.2172 L1930.67 82.2172 L1933.99 69.2543 L1933.99 62.2867 Z" fill="#000000" fill-rule="nonzero" fill-opacity="1" /><path clip-path="url(#clip680)" d="M2017.69 20.0358 Q2013.55 17.2001 2003.87 17.2001 Q1993.62 17.2001 1993.62 21.9397 Q1993.62 25.6665 2004.32 27.611 Q2012.74 29.1098 2017.48 33.6468 Q2023.23 39.1155 2023.23 50.3365 Q2023.23 61.0714 2017.69 67.3908 Q2012.14 73.7508 2002.41 73.7508 Q1992.73 73.7508 1987.14 67.3908 Q1981.59 61.0714 1981.59 49.9314 Q1981.59 41.6676 1987.14 34.9836 Q1989.29 32.391 1992.33 30.9327 Q1986.01 27.7325 1986.01 22.0207 Q1986.01 11.0023 2003.87 11.0023 Q2012.82 11.0023 2017.69 13.8379 L2017.69 20.0358 M1997.92 32.9582 Q1995.16 34.1329 1992.93 37.0901 Q1989.45 41.6676 1989.45 49.9314 Q1989.45 58.1548 1992.89 62.7728 Q1996.38 67.4314 2002.41 67.4314 Q2008.37 67.4314 2011.85 62.7323 Q2015.34 58.0333 2015.34 50.3365 Q2015.34 42.2752 2011.65 38.3864 Q2007.72 34.2139 2002.62 33.7683 Q2000.02 33.5253 1997.92 32.9582 Z" fill="#000000" fill-rule="nonzero" fill-opacity="1" /><path clip-path="url(#clip680)" d="M2073.3 27.2059 L2056.9 49.2833 L2074.15 72.576 L2065.36 72.576 L2052.16 54.752 L2038.95 72.576 L2030.16 72.576 L2047.78 48.8377 L2031.66 27.2059 L2040.45 27.2059 L2052.48 43.369 L2064.51 27.2059 L2073.3 27.2059 Z" fill="#000000" fill-rule="nonzero" fill-opacity="1" /><path clip-path="url(#clip680)" d="M2112.03 34.9026 L2163.96 34.9026 L2163.96 41.7081 L2112.03 41.7081 L2112.03 34.9026 M2112.03 51.4303 L2163.96 51.4303 L2163.96 58.3168 L2112.03 58.3168 L2112.03 51.4303 Z" fill="#000000" fill-rule="nonzero" fill-opacity="1" /><path clip-path="url(#clip680)" d="M2225.5 17.4837 Q2219.18 17.4837 2215.98 23.7221 Q2212.82 29.92 2212.82 42.3968 Q2212.82 54.833 2215.98 61.0714 Q2219.18 67.2693 2225.5 67.2693 Q2231.86 67.2693 2235.02 61.0714 Q2238.22 54.833 2238.22 42.3968 Q2238.22 29.92 2235.02 23.7221 Q2231.86 17.4837 2225.5 17.4837 M2225.5 11.0023 Q2235.66 11.0023 2241.01 19.0636 Q2246.4 27.0843 2246.4 42.3968 Q2246.4 57.6687 2241.01 65.73 Q2235.66 73.7508 2225.5 73.7508 Q2215.33 73.7508 2209.94 65.73 Q2204.59 57.6687 2204.59 42.3968 Q2204.59 27.0843 2209.94 19.0636 Q2215.33 11.0023 2225.5 11.0023 Z" fill="#000000" fill-rule="nonzero" fill-opacity="1" /><path clip-path="url(#clip680)" d="M2260.78 62.2867 L2269.33 62.2867 L2269.33 72.576 L2260.78 72.576 L2260.78 62.2867 Z" fill="#000000" fill-rule="nonzero" fill-opacity="1" /><path clip-path="url(#clip680)" d="M2288.57 65.6895 L2301.94 65.6895 L2301.94 19.5497 L2287.39 22.4663 L2287.39 15.0127 L2301.86 12.096 L2310.04 12.096 L2310.04 65.6895 L2323.41 65.6895 L2323.41 72.576 L2288.57 72.576 L2288.57 65.6895 Z" fill="#000000" fill-rule="nonzero" fill-opacity="1" /><polyline clip-path="url(#clip682)" style="stroke:#009af9; stroke-linecap:round; stroke-linejoin:round; stroke-width:8; stroke-opacity:1; fill:none" points="218.754,1065.48 239.681,980.897 260.609,866.462 281.537,741.545 302.465,630.779 323.392,551.861 344.32,511.276 365.248,509.48 386.176,546.44 407.103,621.919 "/>
<path clip-path="url(#clip682)" d="M428.031 1184.43 L448.959 1273.13 L469.887 1337.95 L490.814 1355.71 L511.742 1408.73 L532.67 1418.86 L553.598 1447.87 L574.525 1447.87 L595.453 1436.77 L616.381 1402.35 L637.309 1363.21 L658.236 1272.15 L679.164 1165.97 L700.092 1105.04 L721.02 1079.92 L741.947 1102.54 L762.875 1161.12 L783.803 1229.96 L804.731 1325.45 L825.658 1372.37 L846.586 1380.28 L867.514 1422.61 L888.442 1418.17 L909.369 1425.8 L930.297 1436.35 L951.225 1432.19 L972.152 1395.27 L993.08 1318.79 L1014.01 1230.93 L1034.94 1152.09 L1055.86 1097.96 L1076.79 1096.58 L1097.72 1147.79 L1118.65 1192.35 L1139.57 1259.39 L1160.5 1336.7 L1181.43 1385.97 L1202.36 1409.84 L1223.29 1444.26 L1244.21 1441.49 L1265.14 1435.94 L1286.07 1414.42 L1307 1400.27 L1327.92 1316.29 L1348.85 1264.1 L1369.78 1153.62 L1390.71 1119.06 L1411.64 1098.8 L1432.56 1102.54 L1453.49 1175.14 L1474.42 1236.9 L1495.35 1315.74 L1516.27 1380.56 L1537.2 1396.24 L1558.13 1415.81 L1579.06 1442.88 L1599.98 1432.47 L1620.91 1433.58 L1641.84 1395.69 L1662.77 1358.9 L1683.7 1299.5 L1704.62 1213.03 L1725.55 1140.71 L1746.48 1082.14 L1767.41 1112.95 L1788.33 1122.25 L1809.26 1224.41 L1830.19 1292.28 L1851.12 1348.77 L1872.05 1400.68 L1892.97 1393.33 L1913.9 1406.51 L1934.83 1424.14 L1955.76 1409.29 L1976.68 1421.09 L1997.61 1393.88 L2018.54 1331.01 L2039.47 1229.41 L2060.4 1194.43 L2081.32 1119.34 L2102.25 1113.51 L2123.18 1124.33 L2144.11 1158.62 L2165.03 1251.75 L2185.96 1320.87 L2206.89 1394.3 L2227.82 1417.89 L2248.75 1401.38 L2269.67 1404.29 L2290.6 1428.02 L2290.6 510.152 L2269.67 486.418 L2248.75 483.503 L2227.82 500.02 L2206.89 476.424 L2185.96 403 L2165.03 333.879 L2144.11 240.745 L2123.18 206.462 L2102.25 195.636 L2081.32 201.466 L2060.4 276.555 L2039.47 311.532 L2018.54 413.133 L1997.61 476.008 L1976.68 503.212 L1955.76 491.415 L1934.83 506.266 L1913.9 488.639 L1892.97 475.453 L1872.05 482.809 L1851.12 430.899 L1830.19 374.408 L1809.26 306.536 L1788.33 204.38 L1767.41 195.081 L1746.48 164.268 L1725.55 222.84 L1704.62 295.154 L1683.7 381.625 L1662.77 441.031 L1641.84 477.812 L1620.91 515.704 L1599.98 514.594 L1579.06 525.004 L1558.13 497.938 L1537.2 478.368 L1516.27 462.683 L1495.35 397.865 L1474.42 319.027 L1453.49 257.262 L1432.56 184.671 L1411.64 180.923 L1390.71 201.188 L1369.78 235.749 L1348.85 346.232 L1327.92 398.42 L1307 482.393 L1286.07 496.55 L1265.14 518.064 L1244.21 523.616 L1223.29 526.392 L1202.36 491.97 L1181.43 468.097 L1160.5 418.823 L1139.57 341.513 L1118.65 274.473 L1097.72 229.919 L1076.79 178.703 L1055.86 180.091 L1034.94 234.222 L1014.01 313.059 L993.08 400.918 L972.152 477.396 L951.225 514.316 L930.297 518.48 L909.369 507.932 L888.442 500.298 L867.514 504.739 L846.586 462.406 L825.658 454.494 L804.731 407.581 L783.803 312.088 L762.875 243.244 L741.947 184.671 L721.02 162.047 L700.092 187.169 L679.164 248.102 L658.236 354.282 L637.309 445.334 L616.381 484.475 L595.453 518.897 L574.525 530 L553.598 530 L532.67 500.992 L511.742 490.859 L490.814 437.839 L469.887 420.072 L448.959 355.254 L428.031 266.562  Z" fill="#e26f46" fill-rule="evenodd" fill-opacity="0.5"/>
<polyline clip-path="url(#clip682)" style="stroke:#e26f46; stroke-linecap:round; stroke-linejoin:round; stroke-width:8; stroke-opacity:1; fill:none" stroke-dasharray="32, 16, 4, 16" points="428.031,725.498 448.959,814.19 469.887,879.009 490.814,896.775 511.742,949.796 532.67,959.928 553.598,988.937 574.525,988.937 595.453,977.833 616.381,943.411 637.309,904.27 658.236,813.218 679.164,707.038 700.092,646.106 721.02,620.983 741.947,643.607 762.875,702.18 783.803,771.024 804.731,866.517 825.658,913.431 846.586,921.342 867.514,963.676 888.442,959.234 909.369,966.868 930.297,977.417 951.225,973.253 972.152,936.332 993.08,859.855 1014.01,771.995 1034.94,693.158 1055.86,639.027 1076.79,637.639 1097.72,688.855 1118.65,733.41 1139.57,800.449 1160.5,877.76 1181.43,927.033 1202.36,950.906 1223.29,985.328 1244.21,982.552 1265.14,977 1286.07,955.486 1307,941.329 1327.92,857.356 1348.85,805.168 1369.78,694.685 1390.71,660.124 1411.64,639.86 1432.56,643.607 1453.49,716.199 1474.42,777.964 1495.35,856.801 1516.27,921.62 1537.2,937.304 1558.13,956.874 1579.06,983.94 1599.98,973.53 1620.91,974.641 1641.84,936.749 1662.77,899.967 1683.7,840.562 1704.62,754.091 1725.55,681.777 1746.48,623.204 1767.41,654.017 1788.33,663.317 1809.26,765.472 1830.19,833.344 1851.12,889.835 1872.05,941.745 1892.97,934.389 1913.9,947.575 1934.83,965.202 1955.76,950.351 1976.68,962.149 1997.61,934.944 2018.54,872.069 2039.47,770.469 2060.4,735.492 2081.32,660.402 2102.25,654.572 2123.18,665.399 2144.11,699.682 2165.03,792.815 2185.96,861.937 2206.89,935.361 2227.82,958.956 2248.75,942.439 2269.67,945.354 2290.6,969.089 "/>
<polyline clip-path="url(#clip682)" style="stroke:#3da44d; stroke-linecap:round; stroke-linejoin:round; stroke-width:8; stroke-opacity:1; fill:none" points="428.031,730.289 448.959,854.906 469.887,971.298 490.814,1059.16 511.742,1109.46 532.67,1120.92 553.598,1093.69 574.525,1027.67 595.453,926.457 616.381,803.747 637.309,683.011 658.236,586.706 679.164,526.691 700.092,505.554 721.02,523.086 741.947,579.504 762.875,672.749 783.803,792.037 804.731,915.64 825.658,1019.62 846.586,1089.18 867.514,1120.02 888.442,1112.16 909.369,1065.48 930.297,980.897 951.225,866.462 972.152,741.545 993.08,630.779 1014.01,551.861 1034.94,511.276 1055.86,509.48 1076.79,546.44 1097.72,621.919 1118.65,730.289 1139.57,854.906 1160.5,971.298 1181.43,1059.16 1202.36,1109.46 1223.29,1120.92 1244.21,1093.69 1265.14,1027.67 1286.07,926.457 1307,803.747 1327.92,683.011 1348.85,586.706 1369.78,526.691 1390.71,505.554 1411.64,523.086 1432.56,579.504 1453.49,672.749 1474.42,792.037 1495.35,915.64 1516.27,1019.62 1537.2,1089.18 1558.13,1120.02 1579.06,1112.16 1599.98,1065.48 1620.91,980.897 1641.84,866.462 1662.77,741.545 1683.7,630.779 1704.62,551.861 1725.55,511.276 1746.48,509.48 1767.41,546.44 1788.33,621.919 1809.26,730.289 1830.19,854.906 1851.12,971.298 1872.05,1059.16 1892.97,1109.46 1913.9,1120.92 1934.83,1093.69 1955.76,1027.67 1976.68,926.457 1997.61,803.747 2018.54,683.011 2039.47,586.706 2060.4,526.691 2081.32,505.554 2102.25,523.086 2123.18,579.504 2144.11,672.749 2165.03,792.037 2185.96,915.64 2206.89,1019.62 2227.82,1089.18 2248.75,1120.02 2269.67,1112.16 2290.6,1065.48 "/>
<path clip-path="url(#clip680)" d="M229.803 1441.02 L856.199 1441.02 L856.199 1233.66 L229.803 1233.66  Z" fill="#ffffff" fill-rule="evenodd" fill-opacity="1"/>
<polyline clip-path="url(#clip680)" style="stroke:#000000; stroke-linecap:round; stroke-linejoin:round; stroke-width:4; stroke-opacity:1; fill:none" points="229.803,1441.02 856.199,1441.02 856.199,1233.66 229.803,1233.66 229.803,1441.02 "/>
<polyline clip-path="url(#clip680)" style="stroke:#009af9; stroke-linecap:round; stroke-linejoin:round; stroke-width:8; stroke-opacity:1; fill:none" points="254.205,1285.5 400.616,1285.5 "/>
<path clip-path="url(#clip680)" d="M452.888 1270.88 L452.888 1275.81 Q450.527 1273.61 447.841 1272.52 Q445.179 1271.43 442.17 1271.43 Q436.244 1271.43 433.096 1275.07 Q429.948 1278.68 429.948 1285.53 Q429.948 1292.36 433.096 1295.99 Q436.244 1299.6 442.17 1299.6 Q445.179 1299.6 447.841 1298.52 Q450.527 1297.43 452.888 1295.23 L452.888 1300.11 Q450.434 1301.78 447.679 1302.61 Q444.948 1303.45 441.892 1303.45 Q434.045 1303.45 429.531 1298.66 Q425.018 1293.84 425.018 1285.53 Q425.018 1277.2 429.531 1272.41 Q434.045 1267.59 441.892 1267.59 Q444.994 1267.59 447.726 1268.42 Q450.48 1269.23 452.888 1270.88 Z" fill="#000000" fill-rule="nonzero" fill-opacity="1" /><path clip-path="url(#clip680)" d="M469.971 1279.84 Q466.545 1279.84 464.554 1282.52 Q462.564 1285.18 462.564 1289.84 Q462.564 1294.49 464.531 1297.17 Q466.522 1299.84 469.971 1299.84 Q473.374 1299.84 475.364 1297.15 Q477.355 1294.47 477.355 1289.84 Q477.355 1285.23 475.364 1282.54 Q473.374 1279.84 469.971 1279.84 M469.971 1276.22 Q475.526 1276.22 478.698 1279.84 Q481.869 1283.45 481.869 1289.84 Q481.869 1296.2 478.698 1299.84 Q475.526 1303.45 469.971 1303.45 Q464.392 1303.45 461.221 1299.84 Q458.073 1296.2 458.073 1289.84 Q458.073 1283.45 461.221 1279.84 Q464.392 1276.22 469.971 1276.22 Z" fill="#000000" fill-rule="nonzero" fill-opacity="1" /><path clip-path="url(#clip680)" d="M510.48 1287.13 L510.48 1302.78 L506.221 1302.78 L506.221 1287.27 Q506.221 1283.59 504.786 1281.76 Q503.35 1279.93 500.48 1279.93 Q497.031 1279.93 495.04 1282.13 Q493.05 1284.33 493.05 1288.12 L493.05 1302.78 L488.767 1302.78 L488.767 1276.85 L493.05 1276.85 L493.05 1280.88 Q494.577 1278.54 496.637 1277.38 Q498.721 1276.22 501.429 1276.22 Q505.897 1276.22 508.188 1279 Q510.48 1281.76 510.48 1287.13 Z" fill="#000000" fill-rule="nonzero" fill-opacity="1" /><path clip-path="url(#clip680)" d="M536.035 1280.78 L536.035 1266.76 L540.295 1266.76 L540.295 1302.78 L536.035 1302.78 L536.035 1298.89 Q534.693 1301.2 532.633 1302.34 Q530.596 1303.45 527.725 1303.45 Q523.026 1303.45 520.063 1299.7 Q517.123 1295.95 517.123 1289.84 Q517.123 1283.72 520.063 1279.97 Q523.026 1276.22 527.725 1276.22 Q530.596 1276.22 532.633 1277.36 Q534.693 1278.47 536.035 1280.78 M521.522 1289.84 Q521.522 1294.53 523.443 1297.22 Q525.387 1299.88 528.767 1299.88 Q532.147 1299.88 534.091 1297.22 Q536.035 1294.53 536.035 1289.84 Q536.035 1285.14 534.091 1282.47 Q532.147 1279.79 528.767 1279.79 Q525.387 1279.79 523.443 1282.47 Q521.522 1285.14 521.522 1289.84 Z" fill="#000000" fill-rule="nonzero" fill-opacity="1" /><path clip-path="url(#clip680)" d="M549.068 1276.85 L553.327 1276.85 L553.327 1302.78 L549.068 1302.78 L549.068 1276.85 M549.068 1266.76 L553.327 1266.76 L553.327 1272.15 L549.068 1272.15 L549.068 1266.76 Z" fill="#000000" fill-rule="nonzero" fill-opacity="1" /><path clip-path="url(#clip680)" d="M566.452 1269.49 L566.452 1276.85 L575.225 1276.85 L575.225 1280.16 L566.452 1280.16 L566.452 1294.23 Q566.452 1297.41 567.308 1298.31 Q568.188 1299.21 570.85 1299.21 L575.225 1299.21 L575.225 1302.78 L570.85 1302.78 Q565.92 1302.78 564.045 1300.95 Q562.17 1299.09 562.17 1294.23 L562.17 1280.16 L559.045 1280.16 L559.045 1276.85 L562.17 1276.85 L562.17 1269.49 L566.452 1269.49 Z" fill="#000000" fill-rule="nonzero" fill-opacity="1" /><path clip-path="url(#clip680)" d="M580.827 1276.85 L585.086 1276.85 L585.086 1302.78 L580.827 1302.78 L580.827 1276.85 M580.827 1266.76 L585.086 1266.76 L585.086 1272.15 L580.827 1272.15 L580.827 1266.76 Z" fill="#000000" fill-rule="nonzero" fill-opacity="1" /><path clip-path="url(#clip680)" d="M604.044 1279.84 Q600.618 1279.84 598.628 1282.52 Q596.637 1285.18 596.637 1289.84 Q596.637 1294.49 598.605 1297.17 Q600.595 1299.84 604.044 1299.84 Q607.447 1299.84 609.438 1297.15 Q611.429 1294.47 611.429 1289.84 Q611.429 1285.23 609.438 1282.54 Q607.447 1279.84 604.044 1279.84 M604.044 1276.22 Q609.6 1276.22 612.771 1279.84 Q615.942 1283.45 615.942 1289.84 Q615.942 1296.2 612.771 1299.84 Q609.6 1303.45 604.044 1303.45 Q598.466 1303.45 595.294 1299.84 Q592.146 1296.2 592.146 1289.84 Q592.146 1283.45 595.294 1279.84 Q598.466 1276.22 604.044 1276.22 Z" fill="#000000" fill-rule="nonzero" fill-opacity="1" /><path clip-path="url(#clip680)" d="M644.553 1287.13 L644.553 1302.78 L640.294 1302.78 L640.294 1287.27 Q640.294 1283.59 638.859 1281.76 Q637.424 1279.93 634.553 1279.93 Q631.104 1279.93 629.114 1282.13 Q627.123 1284.33 627.123 1288.12 L627.123 1302.78 L622.841 1302.78 L622.841 1276.85 L627.123 1276.85 L627.123 1280.88 Q628.651 1278.54 630.711 1277.38 Q632.794 1276.22 635.502 1276.22 Q639.97 1276.22 642.262 1279 Q644.553 1281.76 644.553 1287.13 Z" fill="#000000" fill-rule="nonzero" fill-opacity="1" /><path clip-path="url(#clip680)" d="M675.224 1288.75 L675.224 1290.83 L655.641 1290.83 Q655.919 1295.23 658.28 1297.54 Q660.664 1299.84 664.9 1299.84 Q667.354 1299.84 669.646 1299.23 Q671.961 1298.63 674.229 1297.43 L674.229 1301.46 Q671.937 1302.43 669.53 1302.94 Q667.123 1303.45 664.646 1303.45 Q658.442 1303.45 654.808 1299.84 Q651.197 1296.22 651.197 1290.07 Q651.197 1283.7 654.623 1279.97 Q658.072 1276.22 663.905 1276.22 Q669.137 1276.22 672.169 1279.6 Q675.224 1282.96 675.224 1288.75 M670.965 1287.5 Q670.919 1284 668.998 1281.92 Q667.1 1279.84 663.951 1279.84 Q660.387 1279.84 658.234 1281.85 Q656.104 1283.86 655.78 1287.52 L670.965 1287.5 Z" fill="#000000" fill-rule="nonzero" fill-opacity="1" /><path clip-path="url(#clip680)" d="M699.275 1280.78 L699.275 1266.76 L703.535 1266.76 L703.535 1302.78 L699.275 1302.78 L699.275 1298.89 Q697.933 1301.2 695.873 1302.34 Q693.836 1303.45 690.965 1303.45 Q686.266 1303.45 683.303 1299.7 Q680.363 1295.95 680.363 1289.84 Q680.363 1283.72 683.303 1279.97 Q686.266 1276.22 690.965 1276.22 Q693.836 1276.22 695.873 1277.36 Q697.933 1278.47 699.275 1280.78 M684.761 1289.84 Q684.761 1294.53 686.683 1297.22 Q688.627 1299.88 692.007 1299.88 Q695.386 1299.88 697.331 1297.22 Q699.275 1294.53 699.275 1289.84 Q699.275 1285.14 697.331 1282.47 Q695.386 1279.79 692.007 1279.79 Q688.627 1279.79 686.683 1282.47 Q684.761 1285.14 684.761 1289.84 Z" fill="#000000" fill-rule="nonzero" fill-opacity="1" /><path clip-path="url(#clip680)" d="M732.238 1272.06 L732.238 1298.93 L737.886 1298.93 Q745.039 1298.93 748.349 1295.69 Q751.682 1292.45 751.682 1285.46 Q751.682 1278.52 748.349 1275.3 Q745.039 1272.06 737.886 1272.06 L732.238 1272.06 M727.562 1268.22 L737.169 1268.22 Q747.215 1268.22 751.914 1272.41 Q756.613 1276.57 756.613 1285.46 Q756.613 1294.4 751.891 1298.59 Q747.169 1302.78 737.169 1302.78 L727.562 1302.78 L727.562 1268.22 Z" fill="#000000" fill-rule="nonzero" fill-opacity="1" /><path clip-path="url(#clip680)" d="M775.664 1289.74 Q770.502 1289.74 768.511 1290.92 Q766.52 1292.1 766.52 1294.95 Q766.52 1297.22 768.002 1298.56 Q769.506 1299.88 772.076 1299.88 Q775.617 1299.88 777.747 1297.38 Q779.9 1294.86 779.9 1290.69 L779.9 1289.74 L775.664 1289.74 M784.159 1287.98 L784.159 1302.78 L779.9 1302.78 L779.9 1298.84 Q778.442 1301.2 776.266 1302.34 Q774.09 1303.45 770.942 1303.45 Q766.96 1303.45 764.599 1301.22 Q762.261 1298.98 762.261 1295.23 Q762.261 1290.85 765.178 1288.63 Q768.118 1286.41 773.928 1286.41 L779.9 1286.41 L779.9 1285.99 Q779.9 1283.05 777.955 1281.46 Q776.034 1279.84 772.539 1279.84 Q770.317 1279.84 768.21 1280.37 Q766.104 1280.9 764.159 1281.97 L764.159 1278.03 Q766.497 1277.13 768.696 1276.69 Q770.895 1276.22 772.979 1276.22 Q778.604 1276.22 781.381 1279.14 Q784.159 1282.06 784.159 1287.98 Z" fill="#000000" fill-rule="nonzero" fill-opacity="1" /><path clip-path="url(#clip680)" d="M797.145 1269.49 L797.145 1276.85 L805.918 1276.85 L805.918 1280.16 L797.145 1280.16 L797.145 1294.23 Q797.145 1297.41 798.002 1298.31 Q798.881 1299.21 801.543 1299.21 L805.918 1299.21 L805.918 1302.78 L801.543 1302.78 Q796.613 1302.78 794.738 1300.95 Q792.863 1299.09 792.863 1294.23 L792.863 1280.16 L789.738 1280.16 L789.738 1276.85 L792.863 1276.85 L792.863 1269.49 L797.145 1269.49 Z" fill="#000000" fill-rule="nonzero" fill-opacity="1" /><path clip-path="url(#clip680)" d="M823.302 1289.74 Q818.14 1289.74 816.15 1290.92 Q814.159 1292.1 814.159 1294.95 Q814.159 1297.22 815.64 1298.56 Q817.145 1299.88 819.714 1299.88 Q823.256 1299.88 825.386 1297.38 Q827.538 1294.86 827.538 1290.69 L827.538 1289.74 L823.302 1289.74 M831.798 1287.98 L831.798 1302.78 L827.538 1302.78 L827.538 1298.84 Q826.08 1301.2 823.904 1302.34 Q821.728 1303.45 818.58 1303.45 Q814.599 1303.45 812.238 1301.22 Q809.9 1298.98 809.9 1295.23 Q809.9 1290.85 812.816 1288.63 Q815.756 1286.41 821.566 1286.41 L827.538 1286.41 L827.538 1285.99 Q827.538 1283.05 825.594 1281.46 Q823.673 1279.84 820.177 1279.84 Q817.955 1279.84 815.849 1280.37 Q813.742 1280.9 811.798 1281.97 L811.798 1278.03 Q814.136 1277.13 816.335 1276.69 Q818.534 1276.22 820.617 1276.22 Q826.242 1276.22 829.02 1279.14 Q831.798 1282.06 831.798 1287.98 Z" fill="#000000" fill-rule="nonzero" fill-opacity="1" /><polyline clip-path="url(#clip680)" style="stroke:#e26f46; stroke-linecap:round; stroke-linejoin:round; stroke-width:8; stroke-opacity:1; fill:none" stroke-dasharray="32, 16, 4, 16" points="254.205,1337.34 400.616,1337.34 "/>
<path clip-path="url(#clip680)" d="M429.693 1323.9 L429.693 1336.88 L435.573 1336.88 Q438.837 1336.88 440.619 1335.19 Q442.402 1333.5 442.402 1330.38 Q442.402 1327.28 440.619 1325.59 Q438.837 1323.9 435.573 1323.9 L429.693 1323.9 M425.018 1320.06 L435.573 1320.06 Q441.383 1320.06 444.346 1322.69 Q447.332 1325.31 447.332 1330.38 Q447.332 1335.5 444.346 1338.11 Q441.383 1340.73 435.573 1340.73 L429.693 1340.73 L429.693 1354.62 L425.018 1354.62 L425.018 1320.06 Z" fill="#000000" fill-rule="nonzero" fill-opacity="1" /><path clip-path="url(#clip680)" d="M467.61 1332.67 Q466.892 1332.25 466.036 1332.07 Q465.202 1331.86 464.184 1331.86 Q460.573 1331.86 458.628 1334.22 Q456.707 1336.56 456.707 1340.96 L456.707 1354.62 L452.425 1354.62 L452.425 1328.69 L456.707 1328.69 L456.707 1332.72 Q458.05 1330.36 460.203 1329.22 Q462.355 1328.06 465.434 1328.06 Q465.874 1328.06 466.406 1328.13 Q466.939 1328.18 467.587 1328.3 L467.61 1332.67 Z" fill="#000000" fill-rule="nonzero" fill-opacity="1" /><path clip-path="url(#clip680)" d="M493.212 1340.59 L493.212 1342.67 L473.628 1342.67 Q473.906 1347.07 476.267 1349.38 Q478.651 1351.68 482.888 1351.68 Q485.341 1351.68 487.633 1351.07 Q489.948 1350.47 492.216 1349.27 L492.216 1353.3 Q489.925 1354.27 487.517 1354.78 Q485.11 1355.29 482.633 1355.29 Q476.429 1355.29 472.795 1351.68 Q469.184 1348.06 469.184 1341.91 Q469.184 1335.54 472.61 1331.81 Q476.059 1328.06 481.892 1328.06 Q487.124 1328.06 490.156 1331.44 Q493.212 1334.8 493.212 1340.59 M488.952 1339.34 Q488.906 1335.84 486.985 1333.76 Q485.087 1331.68 481.938 1331.68 Q478.374 1331.68 476.221 1333.69 Q474.091 1335.7 473.767 1339.36 L488.952 1339.34 Z" fill="#000000" fill-rule="nonzero" fill-opacity="1" /><path clip-path="url(#clip680)" d="M517.262 1332.62 L517.262 1318.6 L521.522 1318.6 L521.522 1354.62 L517.262 1354.62 L517.262 1350.73 Q515.92 1353.04 513.86 1354.18 Q511.823 1355.29 508.952 1355.29 Q504.253 1355.29 501.29 1351.54 Q498.35 1347.79 498.35 1341.68 Q498.35 1335.56 501.29 1331.81 Q504.253 1328.06 508.952 1328.06 Q511.823 1328.06 513.86 1329.2 Q515.92 1330.31 517.262 1332.62 M502.749 1341.68 Q502.749 1346.37 504.67 1349.06 Q506.614 1351.72 509.994 1351.72 Q513.374 1351.72 515.318 1349.06 Q517.262 1346.37 517.262 1341.68 Q517.262 1336.98 515.318 1334.31 Q513.374 1331.63 509.994 1331.63 Q506.614 1331.63 504.67 1334.31 Q502.749 1336.98 502.749 1341.68 Z" fill="#000000" fill-rule="nonzero" fill-opacity="1" /><path clip-path="url(#clip680)" d="M530.295 1328.69 L534.554 1328.69 L534.554 1354.62 L530.295 1354.62 L530.295 1328.69 M530.295 1318.6 L534.554 1318.6 L534.554 1323.99 L530.295 1323.99 L530.295 1318.6 Z" fill="#000000" fill-rule="nonzero" fill-opacity="1" /><path clip-path="url(#clip680)" d="M562.123 1329.68 L562.123 1333.67 Q560.318 1332.67 558.489 1332.18 Q556.683 1331.68 554.832 1331.68 Q550.688 1331.68 548.396 1334.31 Q546.105 1336.93 546.105 1341.68 Q546.105 1346.42 548.396 1349.06 Q550.688 1351.68 554.832 1351.68 Q556.683 1351.68 558.489 1351.19 Q560.318 1350.68 562.123 1349.68 L562.123 1353.62 Q560.341 1354.45 558.42 1354.87 Q556.521 1355.29 554.369 1355.29 Q548.512 1355.29 545.063 1351.61 Q541.614 1347.93 541.614 1341.68 Q541.614 1335.33 545.086 1331.7 Q548.582 1328.06 554.646 1328.06 Q556.614 1328.06 558.489 1328.48 Q560.364 1328.87 562.123 1329.68 Z" fill="#000000" fill-rule="nonzero" fill-opacity="1" /><path clip-path="url(#clip680)" d="M573.744 1321.33 L573.744 1328.69 L582.517 1328.69 L582.517 1332 L573.744 1332 L573.744 1346.07 Q573.744 1349.25 574.6 1350.15 Q575.48 1351.05 578.142 1351.05 L582.517 1351.05 L582.517 1354.62 L578.142 1354.62 Q573.211 1354.62 571.336 1352.79 Q569.461 1350.93 569.461 1346.07 L569.461 1332 L566.336 1332 L566.336 1328.69 L569.461 1328.69 L569.461 1321.33 L573.744 1321.33 Z" fill="#000000" fill-rule="nonzero" fill-opacity="1" /><path clip-path="url(#clip680)" d="M610.294 1340.59 L610.294 1342.67 L590.711 1342.67 Q590.989 1347.07 593.35 1349.38 Q595.734 1351.68 599.97 1351.68 Q602.424 1351.68 604.716 1351.07 Q607.03 1350.47 609.299 1349.27 L609.299 1353.3 Q607.007 1354.27 604.6 1354.78 Q602.192 1355.29 599.716 1355.29 Q593.512 1355.29 589.878 1351.68 Q586.267 1348.06 586.267 1341.91 Q586.267 1335.54 589.693 1331.81 Q593.142 1328.06 598.975 1328.06 Q604.206 1328.06 607.239 1331.44 Q610.294 1334.8 610.294 1340.59 M606.035 1339.34 Q605.989 1335.84 604.067 1333.76 Q602.169 1331.68 599.021 1331.68 Q595.456 1331.68 593.304 1333.69 Q591.174 1335.7 590.85 1339.36 L606.035 1339.34 Z" fill="#000000" fill-rule="nonzero" fill-opacity="1" /><path clip-path="url(#clip680)" d="M634.345 1332.62 L634.345 1318.6 L638.604 1318.6 L638.604 1354.62 L634.345 1354.62 L634.345 1350.73 Q633.003 1353.04 630.942 1354.18 Q628.905 1355.29 626.035 1355.29 Q621.336 1355.29 618.373 1351.54 Q615.433 1347.79 615.433 1341.68 Q615.433 1335.56 618.373 1331.81 Q621.336 1328.06 626.035 1328.06 Q628.905 1328.06 630.942 1329.2 Q633.003 1330.31 634.345 1332.62 M619.831 1341.68 Q619.831 1346.37 621.753 1349.06 Q623.697 1351.72 627.077 1351.72 Q630.456 1351.72 632.401 1349.06 Q634.345 1346.37 634.345 1341.68 Q634.345 1336.98 632.401 1334.31 Q630.456 1331.63 627.077 1331.63 Q623.697 1331.63 621.753 1334.31 Q619.831 1336.98 619.831 1341.68 Z" fill="#000000" fill-rule="nonzero" fill-opacity="1" /><path clip-path="url(#clip680)" d="M667.308 1323.9 L667.308 1336.88 L673.187 1336.88 Q676.451 1336.88 678.234 1335.19 Q680.016 1333.5 680.016 1330.38 Q680.016 1327.28 678.234 1325.59 Q676.451 1323.9 673.187 1323.9 L667.308 1323.9 M662.632 1320.06 L673.187 1320.06 Q678.998 1320.06 681.961 1322.69 Q684.947 1325.31 684.947 1330.38 Q684.947 1335.5 681.961 1338.11 Q678.998 1340.73 673.187 1340.73 L667.308 1340.73 L667.308 1354.62 L662.632 1354.62 L662.632 1320.06 Z" fill="#000000" fill-rule="nonzero" fill-opacity="1" /><path clip-path="url(#clip680)" d="M699.391 1331.68 Q695.965 1331.68 693.974 1334.36 Q691.984 1337.02 691.984 1341.68 Q691.984 1346.33 693.951 1349.01 Q695.942 1351.68 699.391 1351.68 Q702.794 1351.68 704.785 1348.99 Q706.775 1346.31 706.775 1341.68 Q706.775 1337.07 704.785 1334.38 Q702.794 1331.68 699.391 1331.68 M699.391 1328.06 Q704.947 1328.06 708.118 1331.68 Q711.289 1335.29 711.289 1341.68 Q711.289 1348.04 708.118 1351.68 Q704.947 1355.29 699.391 1355.29 Q693.812 1355.29 690.641 1351.68 Q687.493 1348.04 687.493 1341.68 Q687.493 1335.29 690.641 1331.68 Q693.812 1328.06 699.391 1328.06 Z" fill="#000000" fill-rule="nonzero" fill-opacity="1" /><path clip-path="url(#clip680)" d="M718.349 1328.69 L722.609 1328.69 L722.609 1354.62 L718.349 1354.62 L718.349 1328.69 M718.349 1318.6 L722.609 1318.6 L722.609 1323.99 L718.349 1323.99 L718.349 1318.6 Z" fill="#000000" fill-rule="nonzero" fill-opacity="1" /><path clip-path="url(#clip680)" d="M753.071 1338.97 L753.071 1354.62 L748.812 1354.62 L748.812 1339.11 Q748.812 1335.43 747.377 1333.6 Q745.942 1331.77 743.071 1331.77 Q739.622 1331.77 737.632 1333.97 Q735.641 1336.17 735.641 1339.96 L735.641 1354.62 L731.358 1354.62 L731.358 1328.69 L735.641 1328.69 L735.641 1332.72 Q737.169 1330.38 739.229 1329.22 Q741.312 1328.06 744.02 1328.06 Q748.488 1328.06 750.78 1330.84 Q753.071 1333.6 753.071 1338.97 Z" fill="#000000" fill-rule="nonzero" fill-opacity="1" /><path clip-path="url(#clip680)" d="M765.78 1321.33 L765.78 1328.69 L774.553 1328.69 L774.553 1332 L765.78 1332 L765.78 1346.07 Q765.78 1349.25 766.636 1350.15 Q767.516 1351.05 770.178 1351.05 L774.553 1351.05 L774.553 1354.62 L770.178 1354.62 Q765.247 1354.62 763.372 1352.79 Q761.497 1350.93 761.497 1346.07 L761.497 1332 L758.372 1332 L758.372 1328.69 L761.497 1328.69 L761.497 1321.33 L765.78 1321.33 Z" fill="#000000" fill-rule="nonzero" fill-opacity="1" /><path clip-path="url(#clip680)" d="M796.682 1329.45 L796.682 1333.48 Q794.877 1332.56 792.932 1332.09 Q790.988 1331.63 788.904 1331.63 Q785.733 1331.63 784.136 1332.6 Q782.562 1333.57 782.562 1335.52 Q782.562 1337 783.696 1337.86 Q784.83 1338.69 788.256 1339.45 L789.715 1339.78 Q794.252 1340.75 796.15 1342.53 Q798.071 1344.29 798.071 1347.46 Q798.071 1351.07 795.201 1353.18 Q792.354 1355.29 787.354 1355.29 Q785.27 1355.29 783.002 1354.87 Q780.756 1354.48 778.256 1353.67 L778.256 1349.27 Q780.617 1350.5 782.909 1351.12 Q785.201 1351.72 787.446 1351.72 Q790.455 1351.72 792.076 1350.7 Q793.696 1349.66 793.696 1347.79 Q793.696 1346.05 792.516 1345.12 Q791.358 1344.2 787.4 1343.34 L785.918 1343 Q781.96 1342.16 780.201 1340.45 Q778.442 1338.71 778.442 1335.7 Q778.442 1332.05 781.034 1330.06 Q783.627 1328.06 788.395 1328.06 Q790.756 1328.06 792.84 1328.41 Q794.923 1328.76 796.682 1329.45 Z" fill="#000000" fill-rule="nonzero" fill-opacity="1" /><polyline clip-path="url(#clip680)" style="stroke:#3da44d; stroke-linecap:round; stroke-linejoin:round; stroke-width:8; stroke-opacity:1; fill:none" points="254.205,1389.18 400.616,1389.18 "/>
<path clip-path="url(#clip680)" d="M440.851 1376.5 L434.508 1393.7 L447.216 1393.7 L440.851 1376.5 M438.212 1371.9 L443.513 1371.9 L456.684 1406.46 L451.823 1406.46 L448.675 1397.59 L433.096 1397.59 L429.948 1406.46 L425.018 1406.46 L438.212 1371.9 Z" fill="#000000" fill-rule="nonzero" fill-opacity="1" /><path clip-path="url(#clip680)" d="M479.369 1381.52 L479.369 1385.51 Q477.564 1384.51 475.735 1384.02 Q473.929 1383.52 472.077 1383.52 Q467.934 1383.52 465.642 1386.15 Q463.351 1388.77 463.351 1393.52 Q463.351 1398.26 465.642 1400.9 Q467.934 1403.52 472.077 1403.52 Q473.929 1403.52 475.735 1403.03 Q477.564 1402.52 479.369 1401.52 L479.369 1405.46 Q477.587 1406.29 475.665 1406.71 Q473.767 1407.13 471.614 1407.13 Q465.758 1407.13 462.309 1403.45 Q458.86 1399.77 458.86 1393.52 Q458.86 1387.17 462.332 1383.54 Q465.827 1379.9 471.892 1379.9 Q473.86 1379.9 475.735 1380.32 Q477.61 1380.71 479.369 1381.52 Z" fill="#000000" fill-rule="nonzero" fill-opacity="1" /><path clip-path="url(#clip680)" d="M490.989 1373.17 L490.989 1380.53 L499.762 1380.53 L499.762 1383.84 L490.989 1383.84 L490.989 1397.91 Q490.989 1401.09 491.846 1401.99 Q492.725 1402.89 495.387 1402.89 L499.762 1402.89 L499.762 1406.46 L495.387 1406.46 Q490.457 1406.46 488.582 1404.63 Q486.707 1402.77 486.707 1397.91 L486.707 1383.84 L483.582 1383.84 L483.582 1380.53 L486.707 1380.53 L486.707 1373.17 L490.989 1373.17 Z" fill="#000000" fill-rule="nonzero" fill-opacity="1" /><path clip-path="url(#clip680)" d="M504.924 1396.22 L504.924 1380.53 L509.184 1380.53 L509.184 1396.06 Q509.184 1399.74 510.619 1401.59 Q512.054 1403.42 514.924 1403.42 Q518.373 1403.42 520.364 1401.22 Q522.378 1399.02 522.378 1395.23 L522.378 1380.53 L526.637 1380.53 L526.637 1406.46 L522.378 1406.46 L522.378 1402.47 Q520.827 1404.83 518.767 1405.99 Q516.73 1407.13 514.022 1407.13 Q509.554 1407.13 507.239 1404.35 Q504.924 1401.57 504.924 1396.22 M515.642 1379.9 L515.642 1379.9 Z" fill="#000000" fill-rule="nonzero" fill-opacity="1" /><path clip-path="url(#clip680)" d="M547.193 1393.42 Q542.031 1393.42 540.04 1394.6 Q538.049 1395.78 538.049 1398.63 Q538.049 1400.9 539.531 1402.24 Q541.035 1403.56 543.605 1403.56 Q547.146 1403.56 549.276 1401.06 Q551.429 1398.54 551.429 1394.37 L551.429 1393.42 L547.193 1393.42 M555.688 1391.66 L555.688 1406.46 L551.429 1406.46 L551.429 1402.52 Q549.971 1404.88 547.795 1406.02 Q545.619 1407.13 542.471 1407.13 Q538.489 1407.13 536.128 1404.9 Q533.79 1402.66 533.79 1398.91 Q533.79 1394.53 536.707 1392.31 Q539.647 1390.09 545.457 1390.09 L551.429 1390.09 L551.429 1389.67 Q551.429 1386.73 549.484 1385.14 Q547.563 1383.52 544.068 1383.52 Q541.846 1383.52 539.739 1384.05 Q537.633 1384.58 535.688 1385.65 L535.688 1381.71 Q538.026 1380.81 540.225 1380.37 Q542.424 1379.9 544.508 1379.9 Q550.133 1379.9 552.91 1382.82 Q555.688 1385.74 555.688 1391.66 Z" fill="#000000" fill-rule="nonzero" fill-opacity="1" /><path clip-path="url(#clip680)" d="M564.461 1370.44 L568.72 1370.44 L568.72 1406.46 L564.461 1406.46 L564.461 1370.44 Z" fill="#000000" fill-rule="nonzero" fill-opacity="1" /><path clip-path="url(#clip680)" d="M597.563 1375.74 L597.563 1402.61 L603.211 1402.61 Q610.364 1402.61 613.674 1399.37 Q617.007 1396.13 617.007 1389.14 Q617.007 1382.2 613.674 1378.98 Q610.364 1375.74 603.211 1375.74 L597.563 1375.74 M592.887 1371.9 L602.493 1371.9 Q612.54 1371.9 617.239 1376.09 Q621.938 1380.25 621.938 1389.14 Q621.938 1398.08 617.216 1402.27 Q612.493 1406.46 602.493 1406.46 L592.887 1406.46 L592.887 1371.9 Z" fill="#000000" fill-rule="nonzero" fill-opacity="1" /><path clip-path="url(#clip680)" d="M640.989 1393.42 Q635.827 1393.42 633.836 1394.6 Q631.845 1395.78 631.845 1398.63 Q631.845 1400.9 633.327 1402.24 Q634.831 1403.56 637.401 1403.56 Q640.942 1403.56 643.072 1401.06 Q645.225 1398.54 645.225 1394.37 L645.225 1393.42 L640.989 1393.42 M649.484 1391.66 L649.484 1406.46 L645.225 1406.46 L645.225 1402.52 Q643.766 1404.88 641.59 1406.02 Q639.415 1407.13 636.266 1407.13 Q632.285 1407.13 629.924 1404.9 Q627.586 1402.66 627.586 1398.91 Q627.586 1394.53 630.503 1392.31 Q633.442 1390.09 639.252 1390.09 L645.225 1390.09 L645.225 1389.67 Q645.225 1386.73 643.28 1385.14 Q641.359 1383.52 637.864 1383.52 Q635.641 1383.52 633.535 1384.05 Q631.428 1384.58 629.484 1385.65 L629.484 1381.71 Q631.822 1380.81 634.021 1380.37 Q636.22 1379.9 638.303 1379.9 Q643.928 1379.9 646.706 1382.82 Q649.484 1385.74 649.484 1391.66 Z" fill="#000000" fill-rule="nonzero" fill-opacity="1" /><path clip-path="url(#clip680)" d="M662.47 1373.17 L662.47 1380.53 L671.243 1380.53 L671.243 1383.84 L662.47 1383.84 L662.47 1397.91 Q662.47 1401.09 663.326 1401.99 Q664.206 1402.89 666.868 1402.89 L671.243 1402.89 L671.243 1406.46 L666.868 1406.46 Q661.938 1406.46 660.063 1404.63 Q658.188 1402.77 658.188 1397.91 L658.188 1383.84 L655.063 1383.84 L655.063 1380.53 L658.188 1380.53 L658.188 1373.17 L662.47 1373.17 Z" fill="#000000" fill-rule="nonzero" fill-opacity="1" /><path clip-path="url(#clip680)" d="M688.627 1393.42 Q683.465 1393.42 681.474 1394.6 Q679.484 1395.78 679.484 1398.63 Q679.484 1400.9 680.965 1402.24 Q682.47 1403.56 685.039 1403.56 Q688.581 1403.56 690.711 1401.06 Q692.863 1398.54 692.863 1394.37 L692.863 1393.42 L688.627 1393.42 M697.123 1391.66 L697.123 1406.46 L692.863 1406.46 L692.863 1402.52 Q691.405 1404.88 689.229 1406.02 Q687.053 1407.13 683.905 1407.13 Q679.924 1407.13 677.562 1404.9 Q675.224 1402.66 675.224 1398.91 Q675.224 1394.53 678.141 1392.31 Q681.081 1390.09 686.891 1390.09 L692.863 1390.09 L692.863 1389.67 Q692.863 1386.73 690.919 1385.14 Q688.998 1383.52 685.502 1383.52 Q683.28 1383.52 681.174 1384.05 Q679.067 1384.58 677.123 1385.65 L677.123 1381.71 Q679.461 1380.81 681.66 1380.37 Q683.859 1379.9 685.942 1379.9 Q691.567 1379.9 694.345 1382.82 Q697.123 1385.74 697.123 1391.66 Z" fill="#000000" fill-rule="nonzero" fill-opacity="1" /></svg>
