<?xml version="1.0" encoding="utf-8"?>
<svg xmlns="http://www.w3.org/2000/svg" xmlns:xlink="http://www.w3.org/1999/xlink" width="1000" height="500" viewBox="0 0 4000 2000">
<defs>
  <clipPath id="clip600">
    <rect x="0" y="0" width="4000" height="2000"/>
  </clipPath>
</defs>
<path clip-path="url(#clip600)" d="M0 2000 L4000 2000 L4000 0 L0 0  Z" fill="#ffffff" fill-rule="evenodd" fill-opacity="1"/>
<defs>
  <clipPath id="clip601">
    <rect x="800" y="0" width="2801" height="2000"/>
  </clipPath>
</defs>
<path clip-path="url(#clip600)" d="M253.205 1763.75 L3063.35 1763.75 L3063.35 262.064 L253.205 262.064  Z" fill="#ffffff" fill-rule="evenodd" fill-opacity="1"/>
<defs>
  <clipPath id="clip602">
    <rect x="253" y="262" width="2811" height="1503"/>
  </clipPath>
</defs>
<polyline clip-path="url(#clip602)" style="stroke:#000000; stroke-linecap:round; stroke-linejoin:round; stroke-width:2; stroke-opacity:0.1; fill:none" points="305.959,1763.75 305.959,262.064 "/>
<polyline clip-path="url(#clip602)" style="stroke:#000000; stroke-linecap:round; stroke-linejoin:round; stroke-width:2; stroke-opacity:0.1; fill:none" points="975.424,1763.75 975.424,262.064 "/>
<polyline clip-path="url(#clip602)" style="stroke:#000000; stroke-linecap:round; stroke-linejoin:round; stroke-width:2; stroke-opacity:0.1; fill:none" points="1644.89,1763.75 1644.89,262.064 "/>
<polyline clip-path="url(#clip602)" style="stroke:#000000; stroke-linecap:round; stroke-linejoin:round; stroke-width:2; stroke-opacity:0.1; fill:none" points="2314.35,1763.75 2314.35,262.064 "/>
<polyline clip-path="url(#clip602)" style="stroke:#000000; stroke-linecap:round; stroke-linejoin:round; stroke-width:2; stroke-opacity:0.1; fill:none" points="2983.82,1763.75 2983.82,262.064 "/>
<polyline clip-path="url(#clip602)" style="stroke:#000000; stroke-linecap:round; stroke-linejoin:round; stroke-width:2; stroke-opacity:0.1; fill:none" points="253.205,1456.18 3063.35,1456.18 "/>
<polyline clip-path="url(#clip602)" style="stroke:#000000; stroke-linecap:round; stroke-linejoin:round; stroke-width:2; stroke-opacity:0.1; fill:none" points="253.205,1133.08 3063.35,1133.08 "/>
<polyline clip-path="url(#clip602)" style="stroke:#000000; stroke-linecap:round; stroke-linejoin:round; stroke-width:2; stroke-opacity:0.1; fill:none" points="253.205,809.978 3063.35,809.978 "/>
<polyline clip-path="url(#clip602)" style="stroke:#000000; stroke-linecap:round; stroke-linejoin:round; stroke-width:2; stroke-opacity:0.1; fill:none" points="253.205,486.875 3063.35,486.875 "/>
<polyline clip-path="url(#clip600)" style="stroke:#000000; stroke-linecap:round; stroke-linejoin:round; stroke-width:4; stroke-opacity:1; fill:none" points="253.205,1763.75 3063.35,1763.75 "/>
<polyline clip-path="url(#clip600)" style="stroke:#000000; stroke-linecap:round; stroke-linejoin:round; stroke-width:4; stroke-opacity:1; fill:none" points="305.959,1763.75 305.959,1744.85 "/>
<polyline clip-path="url(#clip600)" style="stroke:#000000; stroke-linecap:round; stroke-linejoin:round; stroke-width:4; stroke-opacity:1; fill:none" points="975.424,1763.75 975.424,1744.85 "/>
<polyline clip-path="url(#clip600)" style="stroke:#000000; stroke-linecap:round; stroke-linejoin:round; stroke-width:4; stroke-opacity:1; fill:none" points="1644.89,1763.75 1644.89,1744.85 "/>
<polyline clip-path="url(#clip600)" style="stroke:#000000; stroke-linecap:round; stroke-linejoin:round; stroke-width:4; stroke-opacity:1; fill:none" points="2314.35,1763.75 2314.35,1744.85 "/>
<polyline clip-path="url(#clip600)" style="stroke:#000000; stroke-linecap:round; stroke-linejoin:round; stroke-width:4; stroke-opacity:1; fill:none" points="2983.82,1763.75 2983.82,1744.85 "/>
<path clip-path="url(#clip600)" d="M305.959 1813.33 Q300.543 1813.33 297.8 1818.67 Q295.091 1823.99 295.091 1834.68 Q295.091 1845.34 297.8 1850.69 Q300.543 1856 305.959 1856 Q311.411 1856 314.119 1850.69 Q316.862 1845.34 316.862 1834.68 Q316.862 1823.99 314.119 1818.67 Q311.411 1813.33 305.959 1813.33 M305.959 1807.77 Q314.674 1807.77 319.258 1814.68 Q323.876 1821.55 323.876 1834.68 Q323.876 1847.77 319.258 1854.68 Q314.674 1861.55 305.959 1861.55 Q297.244 1861.55 292.626 1854.68 Q288.043 1847.77 288.043 1834.68 Q288.043 1821.55 292.626 1814.68 Q297.244 1807.77 305.959 1807.77 Z" fill="#000000" fill-rule="nonzero" fill-opacity="1" /><path clip-path="url(#clip600)" d="M944.33 1854.64 L968.809 1854.64 L968.809 1860.55 L935.893 1860.55 L935.893 1854.64 Q939.886 1850.51 946.761 1843.57 Q953.671 1836.59 955.441 1834.58 Q958.809 1830.79 960.129 1828.19 Q961.483 1825.55 961.483 1823.01 Q961.483 1818.88 958.566 1816.28 Q955.684 1813.67 951.032 1813.67 Q947.733 1813.67 944.053 1814.82 Q940.407 1815.96 936.24 1818.29 L936.24 1811.21 Q940.476 1809.51 944.157 1808.64 Q947.837 1807.77 950.893 1807.77 Q958.948 1807.77 963.74 1811.8 Q968.532 1815.83 968.532 1822.56 Q968.532 1825.76 967.316 1828.64 Q966.136 1831.49 962.976 1835.37 Q962.108 1836.38 957.455 1841.21 Q952.803 1846 944.33 1854.64 Z" fill="#000000" fill-rule="nonzero" fill-opacity="1" /><path clip-path="url(#clip600)" d="M983.601 1808.71 L1011.14 1808.71 L1011.14 1814.61 L990.025 1814.61 L990.025 1827.32 Q991.552 1826.8 993.08 1826.55 Q994.608 1826.28 996.136 1826.28 Q1004.82 1826.28 1009.89 1831.03 Q1014.95 1835.79 1014.95 1843.92 Q1014.95 1852.28 1009.75 1856.94 Q1004.54 1861.55 995.059 1861.55 Q991.795 1861.55 988.393 1861 Q985.025 1860.44 981.413 1859.33 L981.413 1852.28 Q984.538 1853.99 987.872 1854.82 Q991.205 1855.65 994.92 1855.65 Q1000.93 1855.65 1004.43 1852.49 Q1007.94 1849.33 1007.94 1843.92 Q1007.94 1838.5 1004.43 1835.34 Q1000.93 1832.18 994.92 1832.18 Q992.108 1832.18 989.295 1832.8 Q986.518 1833.43 983.601 1834.75 L983.601 1808.71 Z" fill="#000000" fill-rule="nonzero" fill-opacity="1" /><path clip-path="url(#clip600)" d="M1606.94 1808.71 L1634.47 1808.71 L1634.47 1814.61 L1613.36 1814.61 L1613.36 1827.32 Q1614.89 1826.8 1616.42 1826.55 Q1617.94 1826.28 1619.47 1826.28 Q1628.15 1826.28 1633.22 1831.03 Q1638.29 1835.79 1638.29 1843.92 Q1638.29 1852.28 1633.08 1856.94 Q1627.87 1861.55 1618.4 1861.55 Q1615.13 1861.55 1611.73 1861 Q1608.36 1860.44 1604.75 1859.33 L1604.75 1852.28 Q1607.87 1853.99 1611.21 1854.82 Q1614.54 1855.65 1618.26 1855.65 Q1624.26 1855.65 1627.77 1852.49 Q1631.28 1849.33 1631.28 1843.92 Q1631.28 1838.5 1627.77 1835.34 Q1624.26 1832.18 1618.26 1832.18 Q1615.44 1832.18 1612.63 1832.8 Q1609.85 1833.43 1606.94 1834.75 L1606.94 1808.71 Z" fill="#000000" fill-rule="nonzero" fill-opacity="1" /><path clip-path="url(#clip600)" d="M1667.11 1813.33 Q1661.69 1813.33 1658.95 1818.67 Q1656.24 1823.99 1656.24 1834.68 Q1656.24 1845.34 1658.95 1850.69 Q1661.69 1856 1667.11 1856 Q1672.56 1856 1675.27 1850.69 Q1678.01 1845.34 1678.01 1834.68 Q1678.01 1823.99 1675.27 1818.67 Q1672.56 1813.33 1667.11 1813.33 M1667.11 1807.77 Q1675.83 1807.77 1680.41 1814.68 Q1685.03 1821.55 1685.03 1834.68 Q1685.03 1847.77 1680.41 1854.68 Q1675.83 1861.55 1667.11 1861.55 Q1658.4 1861.55 1653.78 1854.68 Q1649.19 1847.77 1649.19 1834.68 Q1649.19 1821.55 1653.78 1814.68 Q1658.4 1807.77 1667.11 1807.77 Z" fill="#000000" fill-rule="nonzero" fill-opacity="1" /><path clip-path="url(#clip600)" d="M2275.13 1808.71 L2308.47 1808.71 L2308.47 1811.69 L2289.65 1860.55 L2282.32 1860.55 L2300.03 1814.61 L2275.13 1814.61 L2275.13 1808.71 Z" fill="#000000" fill-rule="nonzero" fill-opacity="1" /><path clip-path="url(#clip600)" d="M2322.22 1808.71 L2349.75 1808.71 L2349.75 1814.61 L2328.64 1814.61 L2328.64 1827.32 Q2330.17 1826.8 2331.7 1826.55 Q2333.22 1826.28 2334.75 1826.28 Q2343.43 1826.28 2348.5 1831.03 Q2353.57 1835.79 2353.57 1843.92 Q2353.57 1852.28 2348.36 1856.94 Q2343.16 1861.55 2333.68 1861.55 Q2330.41 1861.55 2327.01 1861 Q2323.64 1860.44 2320.03 1859.33 L2320.03 1852.28 Q2323.16 1853.99 2326.49 1854.82 Q2329.82 1855.65 2333.54 1855.65 Q2339.54 1855.65 2343.05 1852.49 Q2346.56 1849.33 2346.56 1843.92 Q2346.56 1838.5 2343.05 1835.34 Q2339.54 1832.18 2333.54 1832.18 Q2330.72 1832.18 2327.91 1832.8 Q2325.13 1833.43 2322.22 1834.75 L2322.22 1808.71 Z" fill="#000000" fill-rule="nonzero" fill-opacity="1" /><path clip-path="url(#clip600)" d="M2923.23 1854.64 L2934.69 1854.64 L2934.69 1815.1 L2922.22 1817.6 L2922.22 1811.21 L2934.62 1808.71 L2941.63 1808.71 L2941.63 1854.64 L2953.09 1854.64 L2953.09 1860.55 L2923.23 1860.55 L2923.23 1854.64 Z" fill="#000000" fill-rule="nonzero" fill-opacity="1" /><path clip-path="url(#clip600)" d="M2982.26 1813.33 Q2976.84 1813.33 2974.1 1818.67 Q2971.39 1823.99 2971.39 1834.68 Q2971.39 1845.34 2974.1 1850.69 Q2976.84 1856 2982.26 1856 Q2987.71 1856 2990.42 1850.69 Q2993.16 1845.34 2993.16 1834.68 Q2993.16 1823.99 2990.42 1818.67 Q2987.71 1813.33 2982.26 1813.33 M2982.26 1807.77 Q2990.97 1807.77 2995.55 1814.68 Q3000.17 1821.55 3000.17 1834.68 Q3000.17 1847.77 2995.55 1854.68 Q2990.97 1861.55 2982.26 1861.55 Q2973.54 1861.55 2968.92 1854.68 Q2964.34 1847.77 2964.34 1834.68 Q2964.34 1821.55 2968.92 1814.68 Q2973.54 1807.77 2982.26 1807.77 Z" fill="#000000" fill-rule="nonzero" fill-opacity="1" /><path clip-path="url(#clip600)" d="M3027.5 1813.33 Q3022.08 1813.33 3019.34 1818.67 Q3016.63 1823.99 3016.63 1834.68 Q3016.63 1845.34 3019.34 1850.69 Q3022.08 1856 3027.5 1856 Q3032.95 1856 3035.66 1850.69 Q3038.4 1845.34 3038.4 1834.68 Q3038.4 1823.99 3035.66 1818.67 Q3032.95 1813.33 3027.5 1813.33 M3027.5 1807.77 Q3036.21 1807.77 3040.8 1814.68 Q3045.41 1821.55 3045.41 1834.68 Q3045.41 1847.77 3040.8 1854.68 Q3036.21 1861.55 3027.5 1861.55 Q3018.78 1861.55 3014.17 1854.68 Q3009.58 1847.77 3009.58 1834.68 Q3009.58 1821.55 3014.17 1814.68 Q3018.78 1807.77 3027.5 1807.77 Z" fill="#000000" fill-rule="nonzero" fill-opacity="1" /><path clip-path="url(#clip600)" d="M1597.44 1912.76 L1597.44 1922.88 L1609.5 1922.88 L1609.5 1927.44 L1597.44 1927.44 L1597.44 1946.79 Q1597.44 1951.15 1598.62 1952.39 Q1599.82 1953.63 1603.49 1953.63 L1609.5 1953.63 L1609.5 1958.53 L1603.49 1958.53 Q1596.71 1958.53 1594.13 1956.02 Q1591.55 1953.47 1591.55 1946.79 L1591.55 1927.44 L1587.25 1927.44 L1587.25 1922.88 L1591.55 1922.88 L1591.55 1912.76 L1597.44 1912.76 Z" fill="#000000" fill-rule="nonzero" fill-opacity="1" /><path clip-path="url(#clip600)" d="M1617.2 1922.88 L1623.06 1922.88 L1623.06 1958.53 L1617.2 1958.53 L1617.2 1922.88 M1617.2 1909.01 L1623.06 1909.01 L1623.06 1916.42 L1617.2 1916.42 L1617.2 1909.01 Z" fill="#000000" fill-rule="nonzero" fill-opacity="1" /><path clip-path="url(#clip600)" d="M1663.07 1929.73 Q1665.26 1925.78 1668.32 1923.9 Q1671.38 1922.02 1675.51 1922.02 Q1681.08 1922.02 1684.11 1925.94 Q1687.13 1929.82 1687.13 1937.02 L1687.13 1958.53 L1681.24 1958.53 L1681.24 1937.21 Q1681.24 1932.08 1679.43 1929.6 Q1677.61 1927.12 1673.89 1927.12 Q1669.34 1927.12 1666.7 1930.14 Q1664.05 1933.16 1664.05 1938.38 L1664.05 1958.53 L1658.17 1958.53 L1658.17 1937.21 Q1658.17 1932.05 1656.35 1929.6 Q1654.54 1927.12 1650.75 1927.12 Q1646.26 1927.12 1643.62 1930.17 Q1640.98 1933.2 1640.98 1938.38 L1640.98 1958.53 L1635.09 1958.53 L1635.09 1922.88 L1640.98 1922.88 L1640.98 1928.42 Q1642.98 1925.14 1645.79 1923.58 Q1648.59 1922.02 1652.44 1922.02 Q1656.32 1922.02 1659.03 1924 Q1661.76 1925.97 1663.07 1929.73 Z" fill="#000000" fill-rule="nonzero" fill-opacity="1" /><path clip-path="url(#clip600)" d="M1729.3 1939.24 L1729.3 1942.11 L1702.38 1942.11 Q1702.76 1948.16 1706 1951.34 Q1709.28 1954.49 1715.11 1954.49 Q1718.48 1954.49 1721.63 1953.66 Q1724.82 1952.83 1727.93 1951.18 L1727.93 1956.72 Q1724.78 1958.05 1721.47 1958.75 Q1718.16 1959.45 1714.76 1959.45 Q1706.23 1959.45 1701.23 1954.49 Q1696.27 1949.52 1696.27 1941.06 Q1696.27 1932.31 1700.98 1927.18 Q1705.72 1922.02 1713.74 1922.02 Q1720.93 1922.02 1725.1 1926.67 Q1729.3 1931.29 1729.3 1939.24 M1723.45 1937.52 Q1723.38 1932.72 1720.74 1929.85 Q1718.13 1926.99 1713.8 1926.99 Q1708.9 1926.99 1705.94 1929.76 Q1703.01 1932.53 1702.57 1937.56 L1723.45 1937.52 Z" fill="#000000" fill-rule="nonzero" fill-opacity="1" /><polyline clip-path="url(#clip600)" style="stroke:#000000; stroke-linecap:round; stroke-linejoin:round; stroke-width:4; stroke-opacity:1; fill:none" points="253.205,1763.75 253.205,262.064 "/>
<polyline clip-path="url(#clip600)" style="stroke:#000000; stroke-linecap:round; stroke-linejoin:round; stroke-width:4; stroke-opacity:1; fill:none" points="253.205,1456.18 267.56,1456.18 "/>
<polyline clip-path="url(#clip600)" style="stroke:#000000; stroke-linecap:round; stroke-linejoin:round; stroke-width:4; stroke-opacity:1; fill:none" points="253.205,1133.08 267.56,1133.08 "/>
<polyline clip-path="url(#clip600)" style="stroke:#000000; stroke-linecap:round; stroke-linejoin:round; stroke-width:4; stroke-opacity:1; fill:none" points="253.205,809.978 267.56,809.978 "/>
<polyline clip-path="url(#clip600)" style="stroke:#000000; stroke-linecap:round; stroke-linejoin:round; stroke-width:4; stroke-opacity:1; fill:none" points="253.205,486.875 267.56,486.875 "/>
<path clip-path="url(#clip600)" d="M175.289 1434.88 Q169.872 1434.88 167.129 1440.23 Q164.421 1445.54 164.421 1456.24 Q164.421 1466.9 167.129 1472.24 Q169.872 1477.56 175.289 1477.56 Q180.74 1477.56 183.449 1472.24 Q186.192 1466.9 186.192 1456.24 Q186.192 1445.54 183.449 1440.23 Q180.74 1434.88 175.289 1434.88 M175.289 1429.33 Q184.004 1429.33 188.587 1436.24 Q193.205 1443.11 193.205 1456.24 Q193.205 1469.33 188.587 1476.24 Q184.004 1483.11 175.289 1483.11 Q166.574 1483.11 161.956 1476.24 Q157.372 1469.33 157.372 1456.24 Q157.372 1443.11 161.956 1436.24 Q166.574 1429.33 175.289 1429.33 Z" fill="#000000" fill-rule="nonzero" fill-opacity="1" /><path clip-path="url(#clip600)" d="M163.344 1153.1 L174.803 1153.1 L174.803 1113.55 L162.338 1116.05 L162.338 1109.66 L174.733 1107.16 L181.747 1107.16 L181.747 1153.1 L193.205 1153.1 L193.205 1159 L163.344 1159 L163.344 1153.1 Z" fill="#000000" fill-rule="nonzero" fill-opacity="1" /><path clip-path="url(#clip600)" d="M168.726 829.995 L193.205 829.995 L193.205 835.898 L160.289 835.898 L160.289 829.995 Q164.282 825.864 171.157 818.919 Q178.067 811.94 179.837 809.926 Q183.205 806.141 184.525 803.537 Q185.879 800.898 185.879 798.364 Q185.879 794.232 182.962 791.628 Q180.08 789.023 175.428 789.023 Q172.129 789.023 168.449 790.169 Q164.803 791.315 160.636 793.641 L160.636 786.558 Q164.872 784.857 168.553 783.989 Q172.233 783.121 175.289 783.121 Q183.344 783.121 188.136 787.148 Q192.928 791.176 192.928 797.912 Q192.928 801.107 191.712 803.989 Q190.532 806.836 187.372 810.725 Q186.504 811.732 181.851 816.558 Q177.199 821.35 168.726 829.995 Z" fill="#000000" fill-rule="nonzero" fill-opacity="1" /><path clip-path="url(#clip600)" d="M182.511 484.844 Q187.546 485.92 190.358 489.323 Q193.205 492.725 193.205 497.725 Q193.205 505.399 187.928 509.6 Q182.65 513.802 172.928 513.802 Q169.664 513.802 166.192 513.142 Q162.754 512.517 159.074 511.232 L159.074 504.462 Q161.99 506.163 165.463 507.031 Q168.935 507.899 172.719 507.899 Q179.317 507.899 182.754 505.295 Q186.226 502.691 186.226 497.725 Q186.226 493.142 182.997 490.573 Q179.803 487.969 174.074 487.969 L168.032 487.969 L168.032 482.205 L174.351 482.205 Q179.525 482.205 182.268 480.156 Q185.011 478.073 185.011 474.184 Q185.011 470.191 182.164 468.073 Q179.351 465.92 174.074 465.92 Q171.192 465.92 167.893 466.545 Q164.594 467.17 160.636 468.489 L160.636 462.24 Q164.629 461.128 168.101 460.573 Q171.608 460.017 174.699 460.017 Q182.685 460.017 187.337 463.663 Q191.99 467.274 191.99 473.455 Q191.99 477.76 189.525 480.746 Q187.06 483.698 182.511 484.844 Z" fill="#000000" fill-rule="nonzero" fill-opacity="1" /><path clip-path="url(#clip600)" d="M47.4683 996.291 L64.8149 1009.18 L83.1163 995.623 L83.1163 1002.53 L69.1117 1012.91 L83.1163 1023.28 L83.1163 1030.19 L64.4648 1016.34 L47.4683 1029.01 L47.4683 1022.1 L60.1679 1012.65 L47.4683 1003.2 L47.4683 996.291 Z" fill="#000000" fill-rule="nonzero" fill-opacity="1" /><path clip-path="url(#clip600)" d="M829.281 44.3209 L829.281 52.3012 Q824.622 50.0732 820.49 48.9795 Q816.358 47.8857 812.51 47.8857 Q805.826 47.8857 802.18 50.4783 Q798.575 53.0709 798.575 57.851 Q798.575 61.8614 800.965 63.9273 Q803.395 65.9528 810.12 67.2086 L815.062 68.2213 Q824.217 69.9632 828.551 74.3787 Q832.926 78.7536 832.926 86.1263 Q832.926 94.9167 827.012 99.4537 Q821.138 103.991 809.755 103.991 Q805.461 103.991 800.6 103.019 Q795.78 102.046 790.594 100.142 L790.594 91.7165 Q795.577 94.5116 800.357 95.9295 Q805.137 97.3473 809.755 97.3473 Q816.763 97.3473 820.571 94.5927 Q824.379 91.838 824.379 86.7339 Q824.379 82.2779 821.624 79.7664 Q818.91 77.2548 812.672 75.999 L807.689 75.0268 Q798.534 73.2039 794.443 69.315 Q790.351 65.4262 790.351 58.4991 Q790.351 50.4783 795.982 45.8603 Q801.653 41.2423 811.578 41.2423 Q815.832 41.2423 820.247 42.0119 Q824.663 42.7816 829.281 44.3209 Z" fill="#000000" fill-rule="nonzero" fill-opacity="1" /><path clip-path="url(#clip600)" d="M865.982 80.0094 Q856.948 80.0094 853.465 82.0754 Q849.981 84.1413 849.981 89.1239 Q849.981 93.0938 852.573 95.4434 Q855.206 97.7524 859.703 97.7524 Q865.901 97.7524 869.628 93.3774 Q873.395 88.9619 873.395 81.6703 L873.395 80.0094 L865.982 80.0094 M880.849 76.9307 L880.849 102.816 L873.395 102.816 L873.395 95.9295 Q870.843 100.061 867.035 102.046 Q863.227 103.991 857.718 103.991 Q850.75 103.991 846.618 100.102 Q842.527 96.1725 842.527 89.6101 Q842.527 81.9538 847.631 78.065 Q852.776 74.1761 862.944 74.1761 L873.395 74.1761 L873.395 73.4469 Q873.395 68.3023 869.992 65.5072 Q866.63 62.6715 860.513 62.6715 Q856.624 62.6715 852.938 63.6032 Q849.252 64.535 845.849 66.3984 L845.849 59.5118 Q849.94 57.932 853.789 57.1623 Q857.637 56.3521 861.283 56.3521 Q871.126 56.3521 875.988 61.4563 Q880.849 66.5604 880.849 76.9307 Z" fill="#000000" fill-rule="nonzero" fill-opacity="1" /><path clip-path="url(#clip600)" d="M931.525 66.1553 Q934.321 61.1322 938.209 58.7422 Q942.098 56.3521 947.364 56.3521 Q954.454 56.3521 958.302 61.3347 Q962.15 66.2768 962.15 75.4319 L962.15 102.816 L954.656 102.816 L954.656 75.6749 Q954.656 69.153 952.347 65.9933 Q950.038 62.8336 945.299 62.8336 Q939.506 62.8336 936.143 66.6819 Q932.781 70.5303 932.781 77.1738 L932.781 102.816 L925.287 102.816 L925.287 75.6749 Q925.287 69.1125 922.978 65.9933 Q920.669 62.8336 915.848 62.8336 Q910.137 62.8336 906.774 66.7224 Q903.412 70.5708 903.412 77.1738 L903.412 102.816 L895.918 102.816 L895.918 57.4459 L903.412 57.4459 L903.412 64.4944 Q905.964 60.322 909.529 58.3371 Q913.094 56.3521 917.995 56.3521 Q922.938 56.3521 926.381 58.8637 Q929.865 61.3752 931.525 66.1553 Z" fill="#000000" fill-rule="nonzero" fill-opacity="1" /><path clip-path="url(#clip600)" d="M984.228 96.0105 L984.228 120.073 L976.734 120.073 L976.734 57.4459 L984.228 57.4459 L984.228 64.3324 Q986.577 60.2815 990.142 58.3371 Q993.747 56.3521 998.73 56.3521 Q1006.99 56.3521 1012.14 62.9146 Q1017.32 69.4771 1017.32 80.1714 Q1017.32 90.8658 1012.14 97.4283 Q1006.99 103.991 998.73 103.991 Q993.747 103.991 990.142 102.046 Q986.577 100.061 984.228 96.0105 M1009.59 80.1714 Q1009.59 71.9481 1006.18 67.2896 Q1002.82 62.5905 996.907 62.5905 Q990.993 62.5905 987.59 67.2896 Q984.228 71.9481 984.228 80.1714 Q984.228 88.3948 987.59 93.0938 Q990.993 97.7524 996.907 97.7524 Q1002.82 97.7524 1006.18 93.0938 Q1009.59 88.3948 1009.59 80.1714 Z" fill="#000000" fill-rule="nonzero" fill-opacity="1" /><path clip-path="url(#clip600)" d="M1029.68 39.7839 L1037.13 39.7839 L1037.13 102.816 L1029.68 102.816 L1029.68 39.7839 Z" fill="#000000" fill-rule="nonzero" fill-opacity="1" /><path clip-path="url(#clip600)" d="M1091.54 78.2675 L1091.54 81.9133 L1057.27 81.9133 Q1057.75 89.6101 1061.88 93.661 Q1066.06 97.6714 1073.47 97.6714 Q1077.76 97.6714 1081.77 96.6181 Q1085.82 95.5649 1089.79 93.4584 L1089.79 100.507 Q1085.78 102.208 1081.57 103.1 Q1077.36 103.991 1073.02 103.991 Q1062.17 103.991 1055.81 97.6714 Q1049.49 91.3519 1049.49 80.5765 Q1049.49 69.4365 1055.48 62.9146 Q1061.52 56.3521 1071.73 56.3521 Q1080.88 56.3521 1086.19 62.2664 Q1091.54 68.1403 1091.54 78.2675 M1084.08 76.08 Q1084 69.9632 1080.64 66.3174 Q1077.32 62.6715 1071.81 62.6715 Q1065.57 62.6715 1061.8 66.1958 Q1058.08 69.7201 1057.51 76.1205 L1084.08 76.08 Z" fill="#000000" fill-rule="nonzero" fill-opacity="1" /><path clip-path="url(#clip600)" d="M1132.61 95.9295 L1145.98 95.9295 L1145.98 49.7897 L1131.44 52.7063 L1131.44 45.2527 L1145.9 42.336 L1154.08 42.336 L1154.08 95.9295 L1167.45 95.9295 L1167.45 102.816 L1132.61 102.816 L1132.61 95.9295 Z" fill="#000000" fill-rule="nonzero" fill-opacity="1" /><path clip-path="url(#clip600)" d="M1184.22 101.56 L1184.22 94.1066 Q1187.3 95.5649 1190.46 96.3346 Q1193.62 97.1042 1196.66 97.1042 Q1204.76 97.1042 1209.01 91.676 Q1213.31 86.2073 1213.91 75.1078 Q1211.56 78.5916 1207.96 80.455 Q1204.35 82.3184 1199.98 82.3184 Q1190.9 82.3184 1185.6 76.8497 Q1180.33 71.3405 1180.33 61.8208 Q1180.33 52.5038 1185.84 46.873 Q1191.35 41.2423 1200.51 41.2423 Q1211 41.2423 1216.51 49.3036 Q1222.06 57.3243 1222.06 72.6368 Q1222.06 86.9365 1215.25 95.4839 Q1208.49 103.991 1197.02 103.991 Q1193.94 103.991 1190.78 103.383 Q1187.62 102.775 1184.22 101.56 M1200.51 75.918 Q1206.01 75.918 1209.21 72.1507 Q1212.46 68.3833 1212.46 61.8208 Q1212.46 55.2989 1209.21 51.5316 Q1206.01 47.7237 1200.51 47.7237 Q1195 47.7237 1191.76 51.5316 Q1188.56 55.2989 1188.56 61.8208 Q1188.56 68.3833 1191.76 72.1507 Q1195 75.918 1200.51 75.918 Z" fill="#000000" fill-rule="nonzero" fill-opacity="1" /><path clip-path="url(#clip600)" d="M1237.61 92.5267 L1246.16 92.5267 L1246.16 99.4943 L1239.52 112.457 L1234.29 112.457 L1237.61 99.4943 L1237.61 92.5267 Z" fill="#000000" fill-rule="nonzero" fill-opacity="1" /><path clip-path="url(#clip600)" d="M1334.06 46.9945 L1334.06 55.623 Q1329.93 51.7746 1325.23 49.8707 Q1320.57 47.9668 1315.31 47.9668 Q1304.94 47.9668 1299.43 54.3267 Q1293.92 60.6461 1293.92 72.6368 Q1293.92 84.5869 1299.43 90.9469 Q1304.94 97.2663 1315.31 97.2663 Q1320.57 97.2663 1325.23 95.3623 Q1329.93 93.4584 1334.06 89.6101 L1334.06 98.1575 Q1329.77 101.074 1324.95 102.532 Q1320.17 103.991 1314.82 103.991 Q1301.09 103.991 1293.19 95.6054 Q1285.29 87.1795 1285.29 72.6368 Q1285.29 58.0535 1293.19 49.6681 Q1301.09 41.2423 1314.82 41.2423 Q1320.25 41.2423 1325.03 42.7006 Q1329.85 44.1184 1334.06 46.9945 Z" fill="#000000" fill-rule="nonzero" fill-opacity="1" /><path clip-path="url(#clip600)" d="M1346.38 39.7839 L1353.83 39.7839 L1353.83 102.816 L1346.38 102.816 L1346.38 39.7839 Z" fill="#000000" fill-rule="nonzero" fill-opacity="1" /><path clip-path="url(#clip600)" d="M1390.05 80.0094 Q1381.01 80.0094 1377.53 82.0754 Q1374.05 84.1413 1374.05 89.1239 Q1374.05 93.0938 1376.64 95.4434 Q1379.27 97.7524 1383.77 97.7524 Q1389.97 97.7524 1393.69 93.3774 Q1397.46 88.9619 1397.46 81.6703 L1397.46 80.0094 L1390.05 80.0094 M1404.91 76.9307 L1404.91 102.816 L1397.46 102.816 L1397.46 95.9295 Q1394.91 100.061 1391.1 102.046 Q1387.29 103.991 1381.78 103.991 Q1374.82 103.991 1370.68 100.102 Q1366.59 96.1725 1366.59 89.6101 Q1366.59 81.9538 1371.7 78.065 Q1376.84 74.1761 1387.01 74.1761 L1397.46 74.1761 L1397.46 73.4469 Q1397.46 68.3023 1394.06 65.5072 Q1390.7 62.6715 1384.58 62.6715 Q1380.69 62.6715 1377 63.6032 Q1373.32 64.535 1369.91 66.3984 L1369.91 59.5118 Q1374.01 57.932 1377.85 57.1623 Q1381.7 56.3521 1385.35 56.3521 Q1395.19 56.3521 1400.05 61.4563 Q1404.91 66.5604 1404.91 76.9307 Z" fill="#000000" fill-rule="nonzero" fill-opacity="1" /><path clip-path="url(#clip600)" d="M1449.19 58.7827 L1449.19 65.8312 Q1446.03 64.2109 1442.63 63.4007 Q1439.23 62.5905 1435.58 62.5905 Q1430.03 62.5905 1427.23 64.2919 Q1424.48 65.9933 1424.48 69.396 Q1424.48 71.9886 1426.46 73.4875 Q1428.45 74.9458 1434.45 76.2826 L1437 76.8497 Q1444.94 78.5511 1448.26 81.6703 Q1451.62 84.749 1451.62 90.2987 Q1451.62 96.6181 1446.6 100.304 Q1441.62 103.991 1432.87 103.991 Q1429.22 103.991 1425.25 103.262 Q1421.32 102.573 1416.95 101.155 L1416.95 93.4584 Q1421.08 95.6054 1425.09 96.6991 Q1429.1 97.7524 1433.03 97.7524 Q1438.29 97.7524 1441.13 95.97 Q1443.96 94.1471 1443.96 90.8658 Q1443.96 87.8277 1441.9 86.2073 Q1439.87 84.5869 1432.95 83.0881 L1430.35 82.4805 Q1423.43 81.0221 1420.35 78.0245 Q1417.27 74.9863 1417.27 69.7201 Q1417.27 63.3197 1421.81 59.8359 Q1426.34 56.3521 1434.69 56.3521 Q1438.82 56.3521 1442.47 56.9598 Q1446.11 57.5674 1449.19 58.7827 Z" fill="#000000" fill-rule="nonzero" fill-opacity="1" /><path clip-path="url(#clip600)" d="M1492.41 58.7827 L1492.41 65.8312 Q1489.25 64.2109 1485.85 63.4007 Q1482.45 62.5905 1478.8 62.5905 Q1473.25 62.5905 1470.46 64.2919 Q1467.7 65.9933 1467.7 69.396 Q1467.7 71.9886 1469.69 73.4875 Q1471.67 74.9458 1477.67 76.2826 L1480.22 76.8497 Q1488.16 78.5511 1491.48 81.6703 Q1494.84 84.749 1494.84 90.2987 Q1494.84 96.6181 1489.82 100.304 Q1484.84 103.991 1476.09 103.991 Q1472.44 103.991 1468.47 103.262 Q1464.54 102.573 1460.17 101.155 L1460.17 93.4584 Q1464.3 95.6054 1468.31 96.6991 Q1472.32 97.7524 1476.25 97.7524 Q1481.52 97.7524 1484.35 95.97 Q1487.19 94.1471 1487.19 90.8658 Q1487.19 87.8277 1485.12 86.2073 Q1483.1 84.5869 1476.17 83.0881 L1473.58 82.4805 Q1466.65 81.0221 1463.57 78.0245 Q1460.49 74.9863 1460.49 69.7201 Q1460.49 63.3197 1465.03 59.8359 Q1469.57 56.3521 1477.91 56.3521 Q1482.04 56.3521 1485.69 56.9598 Q1489.33 57.5674 1492.41 58.7827 Z" fill="#000000" fill-rule="nonzero" fill-opacity="1" /><path clip-path="url(#clip600)" d="M1551.64 47.7237 Q1545.32 47.7237 1542.12 53.9621 Q1538.96 60.16 1538.96 72.6368 Q1538.96 85.073 1542.12 91.3114 Q1545.32 97.5093 1551.64 97.5093 Q1558 97.5093 1561.16 91.3114 Q1564.36 85.073 1564.36 72.6368 Q1564.36 60.16 1561.16 53.9621 Q1558 47.7237 1551.64 47.7237 M1551.64 41.2423 Q1561.81 41.2423 1567.15 49.3036 Q1572.54 57.3243 1572.54 72.6368 Q1572.54 87.9087 1567.15 95.97 Q1561.81 103.991 1551.64 103.991 Q1541.47 103.991 1536.08 95.97 Q1530.74 87.9087 1530.74 72.6368 Q1530.74 57.3243 1536.08 49.3036 Q1541.47 41.2423 1551.64 41.2423 Z" fill="#000000" fill-rule="nonzero" fill-opacity="1" /><path clip-path="url(#clip600)" d="M1587.77 92.5267 L1596.32 92.5267 L1596.32 99.4943 L1589.68 112.457 L1584.45 112.457 L1587.77 99.4943 L1587.77 92.5267 Z" fill="#000000" fill-rule="nonzero" fill-opacity="1" /><path clip-path="url(#clip600)" d="M1646.71 95.9295 L1675.27 95.9295 L1675.27 102.816 L1636.87 102.816 L1636.87 95.9295 Q1641.53 91.1089 1649.55 83.0071 Q1657.61 74.8648 1659.68 72.5152 Q1663.6 68.0998 1665.14 65.0616 Q1666.72 61.9829 1666.72 59.0257 Q1666.72 54.2051 1663.32 51.167 Q1659.96 48.1288 1654.53 48.1288 Q1650.68 48.1288 1646.39 49.4656 Q1642.14 50.8024 1637.27 53.5165 L1637.27 45.2527 Q1642.22 43.2677 1646.51 42.255 Q1650.8 41.2423 1654.37 41.2423 Q1663.77 41.2423 1669.36 45.9413 Q1674.95 50.6404 1674.95 58.4991 Q1674.95 62.2259 1673.53 65.5882 Q1672.15 68.9099 1668.47 73.4469 Q1667.45 74.6217 1662.02 80.2525 Q1656.6 85.8427 1646.71 95.9295 Z" fill="#000000" fill-rule="nonzero" fill-opacity="1" /><path clip-path="url(#clip600)" d="M1710.96 69.315 Q1705.45 69.315 1702.21 73.0824 Q1699.01 76.8497 1699.01 83.4122 Q1699.01 89.9341 1702.21 93.742 Q1705.45 97.5093 1710.96 97.5093 Q1716.47 97.5093 1719.67 93.742 Q1722.91 89.9341 1722.91 83.4122 Q1722.91 76.8497 1719.67 73.0824 Q1716.47 69.315 1710.96 69.315 M1727.2 43.6728 L1727.2 51.1265 Q1724.13 49.6681 1720.97 48.8985 Q1717.85 48.1288 1714.77 48.1288 Q1706.67 48.1288 1702.37 53.5975 Q1698.12 59.0662 1697.51 70.1252 Q1699.9 66.6009 1703.51 64.7375 Q1707.11 62.8336 1711.45 62.8336 Q1720.56 62.8336 1725.83 68.3833 Q1731.13 73.8925 1731.13 83.4122 Q1731.13 92.7292 1725.62 98.36 Q1720.11 103.991 1710.96 103.991 Q1700.47 103.991 1694.92 95.97 Q1689.37 87.9087 1689.37 72.6368 Q1689.37 58.2966 1696.17 49.7897 Q1702.98 41.2423 1714.44 41.2423 Q1717.52 41.2423 1720.64 41.8499 Q1723.8 42.4575 1727.2 43.6728 Z" fill="#000000" fill-rule="nonzero" fill-opacity="1" /><path clip-path="url(#clip600)" d="M1740.41 76.7687 L1762.24 76.7687 L1762.24 83.4122 L1740.41 83.4122 L1740.41 76.7687 Z" fill="#000000" fill-rule="nonzero" fill-opacity="1" /><path clip-path="url(#clip600)" d="M1803.04 58.7827 L1803.04 65.8312 Q1799.88 64.2109 1796.47 63.4007 Q1793.07 62.5905 1789.43 62.5905 Q1783.88 62.5905 1781.08 64.2919 Q1778.33 65.9933 1778.33 69.396 Q1778.33 71.9886 1780.31 73.4875 Q1782.3 74.9458 1788.29 76.2826 L1790.84 76.8497 Q1798.78 78.5511 1802.11 81.6703 Q1805.47 84.749 1805.47 90.2987 Q1805.47 96.6181 1800.44 100.304 Q1795.46 103.991 1786.71 103.991 Q1783.07 103.991 1779.1 103.262 Q1775.17 102.573 1770.79 101.155 L1770.79 93.4584 Q1774.92 95.6054 1778.93 96.6991 Q1782.94 97.7524 1786.87 97.7524 Q1792.14 97.7524 1794.98 95.97 Q1797.81 94.1471 1797.81 90.8658 Q1797.81 87.8277 1795.75 86.2073 Q1793.72 84.5869 1786.79 83.0881 L1784.2 82.4805 Q1777.27 81.0221 1774.19 78.0245 Q1771.12 74.9863 1771.12 69.7201 Q1771.12 63.3197 1775.65 59.8359 Q1780.19 56.3521 1788.53 56.3521 Q1792.67 56.3521 1796.31 56.9598 Q1799.96 57.5674 1803.04 58.7827 Z" fill="#000000" fill-rule="nonzero" fill-opacity="1" /><path clip-path="url(#clip600)" d="M1817.34 57.4459 L1824.79 57.4459 L1824.79 102.816 L1817.34 102.816 L1817.34 57.4459 M1817.34 39.7839 L1824.79 39.7839 L1824.79 49.2225 L1817.34 49.2225 L1817.34 39.7839 Z" fill="#000000" fill-rule="nonzero" fill-opacity="1" /><path clip-path="url(#clip600)" d="M1847.76 44.564 L1847.76 57.4459 L1863.11 57.4459 L1863.11 63.2387 L1847.76 63.2387 L1847.76 87.8682 Q1847.76 93.4179 1849.26 94.9978 Q1850.8 96.5776 1855.46 96.5776 L1863.11 96.5776 L1863.11 102.816 L1855.46 102.816 Q1846.83 102.816 1843.55 99.6158 Q1840.26 96.3751 1840.26 87.8682 L1840.26 63.2387 L1834.8 63.2387 L1834.8 57.4459 L1840.26 57.4459 L1840.26 44.564 L1847.76 44.564 Z" fill="#000000" fill-rule="nonzero" fill-opacity="1" /><path clip-path="url(#clip600)" d="M1911.72 78.2675 L1911.72 81.9133 L1877.45 81.9133 Q1877.94 89.6101 1882.07 93.661 Q1886.24 97.6714 1893.66 97.6714 Q1897.95 97.6714 1901.96 96.6181 Q1906.01 95.5649 1909.98 93.4584 L1909.98 100.507 Q1905.97 102.208 1901.76 103.1 Q1897.54 103.991 1893.21 103.991 Q1882.35 103.991 1875.99 97.6714 Q1869.67 91.3519 1869.67 80.5765 Q1869.67 69.4365 1875.67 62.9146 Q1881.71 56.3521 1891.91 56.3521 Q1901.07 56.3521 1906.38 62.2664 Q1911.72 68.1403 1911.72 78.2675 M1904.27 76.08 Q1904.19 69.9632 1900.83 66.3174 Q1897.5 62.6715 1891.99 62.6715 Q1885.76 62.6715 1881.99 66.1958 Q1878.26 69.7201 1877.7 76.1205 L1904.27 76.08 Z" fill="#000000" fill-rule="nonzero" fill-opacity="1" /><path clip-path="url(#clip600)" d="M1950.65 42.336 L1958.83 42.336 L1958.83 102.816 L1950.65 102.816 L1950.65 42.336 Z" fill="#000000" fill-rule="nonzero" fill-opacity="1" /><path clip-path="url(#clip600)" d="M2012.51 75.4319 L2012.51 102.816 L2005.06 102.816 L2005.06 75.6749 Q2005.06 69.234 2002.54 66.0338 Q2000.03 62.8336 1995.01 62.8336 Q1988.97 62.8336 1985.49 66.6819 Q1982.01 70.5303 1982.01 77.1738 L1982.01 102.816 L1974.51 102.816 L1974.51 57.4459 L1982.01 57.4459 L1982.01 64.4944 Q1984.68 60.403 1988.28 58.3776 Q1991.93 56.3521 1996.67 56.3521 Q2004.49 56.3521 2008.5 61.2132 Q2012.51 66.0338 2012.51 75.4319 Z" fill="#000000" fill-rule="nonzero" fill-opacity="1" /><path clip-path="url(#clip600)" d="M2034.75 44.564 L2034.75 57.4459 L2050.1 57.4459 L2050.1 63.2387 L2034.75 63.2387 L2034.75 87.8682 Q2034.75 93.4179 2036.25 94.9978 Q2037.79 96.5776 2042.45 96.5776 L2050.1 96.5776 L2050.1 102.816 L2042.45 102.816 Q2033.82 102.816 2030.54 99.6158 Q2027.25 96.3751 2027.25 87.8682 L2027.25 63.2387 L2021.79 63.2387 L2021.79 57.4459 L2027.25 57.4459 L2027.25 44.564 L2034.75 44.564 Z" fill="#000000" fill-rule="nonzero" fill-opacity="1" /><path clip-path="url(#clip600)" d="M2098.71 78.2675 L2098.71 81.9133 L2064.44 81.9133 Q2064.93 89.6101 2069.06 93.661 Q2073.23 97.6714 2080.65 97.6714 Q2084.94 97.6714 2088.95 96.6181 Q2093 95.5649 2096.97 93.4584 L2096.97 100.507 Q2092.96 102.208 2088.75 103.1 Q2084.53 103.991 2080.2 103.991 Q2069.34 103.991 2062.98 97.6714 Q2056.66 91.3519 2056.66 80.5765 Q2056.66 69.4365 2062.66 62.9146 Q2068.7 56.3521 2078.9 56.3521 Q2088.06 56.3521 2093.37 62.2664 Q2098.71 68.1403 2098.71 78.2675 M2091.26 76.08 Q2091.18 69.9632 2087.82 66.3174 Q2084.49 62.6715 2078.98 62.6715 Q2072.75 62.6715 2068.98 66.1958 Q2065.25 69.7201 2064.68 76.1205 L2091.26 76.08 Z" fill="#000000" fill-rule="nonzero" fill-opacity="1" /><path clip-path="url(#clip600)" d="M2137.24 64.4134 Q2135.98 63.6843 2134.48 63.3602 Q2133.02 62.9956 2131.24 62.9956 Q2124.92 62.9956 2121.52 67.1275 Q2118.16 71.2189 2118.16 78.9157 L2118.16 102.816 L2110.66 102.816 L2110.66 57.4459 L2118.16 57.4459 L2118.16 64.4944 Q2120.51 60.3625 2124.27 58.3776 Q2128.04 56.3521 2133.43 56.3521 Q2134.2 56.3521 2135.13 56.4737 Q2136.06 56.5547 2137.2 56.7572 L2137.24 64.4134 Z" fill="#000000" fill-rule="nonzero" fill-opacity="1" /><path clip-path="url(#clip600)" d="M2152.27 96.0105 L2152.27 120.073 L2144.77 120.073 L2144.77 57.4459 L2152.27 57.4459 L2152.27 64.3324 Q2154.61 60.2815 2158.18 58.3371 Q2161.79 56.3521 2166.77 56.3521 Q2175.03 56.3521 2180.18 62.9146 Q2185.36 69.4771 2185.36 80.1714 Q2185.36 90.8658 2180.18 97.4283 Q2175.03 103.991 2166.77 103.991 Q2161.79 103.991 2158.18 102.046 Q2154.61 100.061 2152.27 96.0105 M2177.62 80.1714 Q2177.62 71.9481 2174.22 67.2896 Q2170.86 62.5905 2164.94 62.5905 Q2159.03 62.5905 2155.63 67.2896 Q2152.27 71.9481 2152.27 80.1714 Q2152.27 88.3948 2155.63 93.0938 Q2159.03 97.7524 2164.94 97.7524 Q2170.86 97.7524 2174.22 93.0938 Q2177.62 88.3948 2177.62 80.1714 Z" fill="#000000" fill-rule="nonzero" fill-opacity="1" /><path clip-path="url(#clip600)" d="M2215.3 62.6715 Q2209.3 62.6715 2205.82 67.3706 Q2202.33 72.0291 2202.33 80.1714 Q2202.33 88.3138 2205.78 93.0128 Q2209.26 97.6714 2215.3 97.6714 Q2221.25 97.6714 2224.74 92.9723 Q2228.22 88.2733 2228.22 80.1714 Q2228.22 72.1101 2224.74 67.4111 Q2221.25 62.6715 2215.3 62.6715 M2215.3 56.3521 Q2225.02 56.3521 2230.57 62.6715 Q2236.12 68.9909 2236.12 80.1714 Q2236.12 91.3114 2230.57 97.6714 Q2225.02 103.991 2215.3 103.991 Q2205.53 103.991 2199.99 97.6714 Q2194.48 91.3114 2194.48 80.1714 Q2194.48 68.9909 2199.99 62.6715 Q2205.53 56.3521 2215.3 56.3521 Z" fill="#000000" fill-rule="nonzero" fill-opacity="1" /><path clip-path="url(#clip600)" d="M2248.47 39.7839 L2255.93 39.7839 L2255.93 102.816 L2248.47 102.816 L2248.47 39.7839 Z" fill="#000000" fill-rule="nonzero" fill-opacity="1" /><path clip-path="url(#clip600)" d="M2292.14 80.0094 Q2283.11 80.0094 2279.63 82.0754 Q2276.14 84.1413 2276.14 89.1239 Q2276.14 93.0938 2278.73 95.4434 Q2281.37 97.7524 2285.86 97.7524 Q2292.06 97.7524 2295.79 93.3774 Q2299.56 88.9619 2299.56 81.6703 L2299.56 80.0094 L2292.14 80.0094 M2307.01 76.9307 L2307.01 102.816 L2299.56 102.816 L2299.56 95.9295 Q2297 100.061 2293.2 102.046 Q2289.39 103.991 2283.88 103.991 Q2276.91 103.991 2272.78 100.102 Q2268.69 96.1725 2268.69 89.6101 Q2268.69 81.9538 2273.79 78.065 Q2278.94 74.1761 2289.1 74.1761 L2299.56 74.1761 L2299.56 73.4469 Q2299.56 68.3023 2296.15 65.5072 Q2292.79 62.6715 2286.67 62.6715 Q2282.79 62.6715 2279.1 63.6032 Q2275.41 64.535 2272.01 66.3984 L2272.01 59.5118 Q2276.1 57.932 2279.95 57.1623 Q2283.8 56.3521 2287.44 56.3521 Q2297.29 56.3521 2302.15 61.4563 Q2307.01 66.5604 2307.01 76.9307 Z" fill="#000000" fill-rule="nonzero" fill-opacity="1" /><path clip-path="url(#clip600)" d="M2329.74 44.564 L2329.74 57.4459 L2345.09 57.4459 L2345.09 63.2387 L2329.74 63.2387 L2329.74 87.8682 Q2329.74 93.4179 2331.23 94.9978 Q2332.77 96.5776 2337.43 96.5776 L2345.09 96.5776 L2345.09 102.816 L2337.43 102.816 Q2328.8 102.816 2325.52 99.6158 Q2322.24 96.3751 2322.24 87.8682 L2322.24 63.2387 L2316.77 63.2387 L2316.77 57.4459 L2322.24 57.4459 L2322.24 44.564 L2329.74 44.564 Z" fill="#000000" fill-rule="nonzero" fill-opacity="1" /><path clip-path="url(#clip600)" d="M2354.89 57.4459 L2362.35 57.4459 L2362.35 102.816 L2354.89 102.816 L2354.89 57.4459 M2354.89 39.7839 L2362.35 39.7839 L2362.35 49.2225 L2354.89 49.2225 L2354.89 39.7839 Z" fill="#000000" fill-rule="nonzero" fill-opacity="1" /><path clip-path="url(#clip600)" d="M2395.52 62.6715 Q2389.53 62.6715 2386.04 67.3706 Q2382.56 72.0291 2382.56 80.1714 Q2382.56 88.3138 2386 93.0128 Q2389.49 97.6714 2395.52 97.6714 Q2401.48 97.6714 2404.96 92.9723 Q2408.44 88.2733 2408.44 80.1714 Q2408.44 72.1101 2404.96 67.4111 Q2401.48 62.6715 2395.52 62.6715 M2395.52 56.3521 Q2405.24 56.3521 2410.79 62.6715 Q2416.34 68.9909 2416.34 80.1714 Q2416.34 91.3114 2410.79 97.6714 Q2405.24 103.991 2395.52 103.991 Q2385.76 103.991 2380.21 97.6714 Q2374.7 91.3114 2374.7 80.1714 Q2374.7 68.9909 2380.21 62.6715 Q2385.76 56.3521 2395.52 56.3521 Z" fill="#000000" fill-rule="nonzero" fill-opacity="1" /><path clip-path="url(#clip600)" d="M2466.41 75.4319 L2466.41 102.816 L2458.96 102.816 L2458.96 75.6749 Q2458.96 69.234 2456.45 66.0338 Q2453.94 62.8336 2448.91 62.8336 Q2442.88 62.8336 2439.39 66.6819 Q2435.91 70.5303 2435.91 77.1738 L2435.91 102.816 L2428.42 102.816 L2428.42 57.4459 L2435.91 57.4459 L2435.91 64.4944 Q2438.58 60.403 2442.19 58.3776 Q2445.83 56.3521 2450.57 56.3521 Q2458.39 56.3521 2462.4 61.2132 Q2466.41 66.0338 2466.41 75.4319 Z" fill="#000000" fill-rule="nonzero" fill-opacity="1" /><path clip-path="url(#clip600)" d="M2483.18 92.5267 L2491.73 92.5267 L2491.73 99.4943 L2485.09 112.457 L2479.86 112.457 L2483.18 99.4943 L2483.18 92.5267 Z" fill="#000000" fill-rule="nonzero" fill-opacity="1" /><path clip-path="url(#clip600)" d="M888.221 155.052 L888.221 130.504 L895.675 130.504 L895.675 193.536 L888.221 193.536 L888.221 186.73 Q885.872 190.781 882.266 192.766 Q878.702 194.711 873.679 194.711 Q865.455 194.711 860.27 188.148 Q855.125 181.586 855.125 170.891 Q855.125 160.197 860.27 153.635 Q865.455 147.072 873.679 147.072 Q878.702 147.072 882.266 149.057 Q885.872 151.002 888.221 155.052 M862.822 170.891 Q862.822 179.115 866.184 183.814 Q869.587 188.472 875.501 188.472 Q881.416 188.472 884.819 183.814 Q888.221 179.115 888.221 170.891 Q888.221 162.668 884.819 158.01 Q881.416 153.311 875.501 153.311 Q869.587 153.311 866.184 158.01 Q862.822 162.668 862.822 170.891 Z" fill="#000000" fill-rule="nonzero" fill-opacity="1" /><path clip-path="url(#clip600)" d="M938.371 155.863 L990.304 155.863 L990.304 162.668 L938.371 162.668 L938.371 155.863 M938.371 172.39 L990.304 172.39 L990.304 179.277 L938.371 179.277 L938.371 172.39 Z" fill="#000000" fill-rule="nonzero" fill-opacity="1" /><path clip-path="url(#clip600)" d="M1035.76 186.649 L1049.12 186.649 L1049.12 140.51 L1034.58 143.426 L1034.58 135.973 L1049.04 133.056 L1057.22 133.056 L1057.22 186.649 L1070.59 186.649 L1070.59 193.536 L1035.76 193.536 L1035.76 186.649 Z" fill="#000000" fill-rule="nonzero" fill-opacity="1" /><path clip-path="url(#clip600)" d="M1094.17 186.649 L1122.73 186.649 L1122.73 193.536 L1084.33 193.536 L1084.33 186.649 Q1088.98 181.829 1097 173.727 Q1105.07 165.585 1107.13 163.235 Q1111.06 158.82 1112.6 155.782 Q1114.18 152.703 1114.18 149.746 Q1114.18 144.925 1110.78 141.887 Q1107.42 138.849 1101.99 138.849 Q1098.14 138.849 1093.85 140.186 Q1089.59 141.522 1084.73 144.236 L1084.73 135.973 Q1089.67 133.988 1093.97 132.975 Q1098.26 131.962 1101.83 131.962 Q1111.22 131.962 1116.81 136.661 Q1122.4 141.36 1122.4 149.219 Q1122.4 152.946 1120.99 156.308 Q1119.61 159.63 1115.92 164.167 Q1114.91 165.342 1109.48 170.972 Q1104.05 176.563 1094.17 186.649 Z" fill="#000000" fill-rule="nonzero" fill-opacity="1" /><path clip-path="url(#clip600)" d="M1140.75 183.247 L1149.3 183.247 L1149.3 190.214 L1142.66 203.177 L1137.43 203.177 L1140.75 190.214 L1140.75 183.247 Z" fill="#000000" fill-rule="nonzero" fill-opacity="1" /><path clip-path="url(#clip600)" d="M1213.43 203.663 L1207.39 188.148 L1194.96 210.833 L1186.17 210.833 L1203.75 178.75 L1196.37 159.67 Q1194.39 154.566 1188.15 154.566 L1186.17 154.566 L1186.17 148.166 L1189 148.247 Q1199.45 148.53 1202.09 155.295 L1208.08 170.81 L1220.52 148.125 L1229.31 148.125 L1211.73 180.209 L1219.1 199.288 Q1221.08 204.392 1227.32 204.392 L1229.31 204.392 L1229.31 210.793 L1226.47 210.712 Q1216.02 210.428 1213.43 203.663 Z" fill="#000000" fill-rule="nonzero" fill-opacity="1" /><path clip-path="url(#clip600)" d="M1266.86 155.863 L1318.79 155.863 L1318.79 162.668 L1266.86 162.668 L1266.86 155.863 M1266.86 172.39 L1318.79 172.39 L1318.79 179.277 L1266.86 179.277 L1266.86 172.39 Z" fill="#000000" fill-rule="nonzero" fill-opacity="1" /><path clip-path="url(#clip600)" d="M1369.87 186.649 L1398.43 186.649 L1398.43 193.536 L1360.03 193.536 L1360.03 186.649 Q1364.69 181.829 1372.71 173.727 Q1380.77 165.585 1382.84 163.235 Q1386.77 158.82 1388.31 155.782 Q1389.89 152.703 1389.89 149.746 Q1389.89 144.925 1386.48 141.887 Q1383.12 138.849 1377.69 138.849 Q1373.84 138.849 1369.55 140.186 Q1365.3 141.522 1360.44 144.236 L1360.44 135.973 Q1365.38 133.988 1369.67 132.975 Q1373.97 131.962 1377.53 131.962 Q1386.93 131.962 1392.52 136.661 Q1398.11 141.36 1398.11 149.219 Q1398.11 152.946 1396.69 156.308 Q1395.31 159.63 1391.63 164.167 Q1390.61 165.342 1385.19 170.972 Q1379.76 176.563 1369.87 186.649 Z" fill="#000000" fill-rule="nonzero" fill-opacity="1" /><path clip-path="url(#clip600)" d="M1433.11 138.444 Q1426.79 138.444 1423.59 144.682 Q1420.43 150.88 1420.43 163.357 Q1420.43 175.793 1423.59 182.031 Q1426.79 188.229 1433.11 188.229 Q1439.47 188.229 1442.63 182.031 Q1445.83 175.793 1445.83 163.357 Q1445.83 150.88 1442.63 144.682 Q1439.47 138.444 1433.11 138.444 M1433.11 131.962 Q1443.28 131.962 1448.62 140.024 Q1454.01 148.044 1454.01 163.357 Q1454.01 178.629 1448.62 186.69 Q1443.28 194.711 1433.11 194.711 Q1422.94 194.711 1417.55 186.69 Q1412.21 178.629 1412.21 163.357 Q1412.21 148.044 1417.55 140.024 Q1422.94 131.962 1433.11 131.962 Z" fill="#000000" fill-rule="nonzero" fill-opacity="1" /><path clip-path="url(#clip600)" d="M1469.24 183.247 L1477.79 183.247 L1477.79 190.214 L1471.15 203.177 L1465.92 203.177 L1469.24 190.214 L1469.24 183.247 Z" fill="#000000" fill-rule="nonzero" fill-opacity="1" /><path clip-path="url(#clip600)" d="M1520.41 133.056 L1528.59 133.056 L1528.59 186.649 L1558.04 186.649 L1558.04 193.536 L1520.41 193.536 L1520.41 133.056 Z" fill="#000000" fill-rule="nonzero" fill-opacity="1" /><path clip-path="url(#clip600)" d="M1603.65 168.988 L1603.65 172.633 L1569.38 172.633 Q1569.87 180.33 1574 184.381 Q1578.17 188.391 1585.58 188.391 Q1589.88 188.391 1593.89 187.338 Q1597.94 186.285 1601.91 184.178 L1601.91 191.227 Q1597.9 192.928 1593.69 193.82 Q1589.47 194.711 1585.14 194.711 Q1574.28 194.711 1567.92 188.391 Q1561.6 182.072 1561.6 171.297 Q1561.6 160.157 1567.6 153.635 Q1573.63 147.072 1583.84 147.072 Q1593 147.072 1598.3 152.986 Q1603.65 158.86 1603.65 168.988 M1596.2 166.8 Q1596.12 160.683 1592.75 157.037 Q1589.43 153.392 1583.92 153.392 Q1577.69 153.392 1573.92 156.916 Q1570.19 160.44 1569.62 166.841 L1596.2 166.8 Z" fill="#000000" fill-rule="nonzero" fill-opacity="1" /><path clip-path="url(#clip600)" d="M1645.74 170.324 Q1645.74 162.223 1642.38 157.767 Q1639.06 153.311 1633.02 153.311 Q1627.03 153.311 1623.66 157.767 Q1620.34 162.223 1620.34 170.324 Q1620.34 178.386 1623.66 182.842 Q1627.03 187.298 1633.02 187.298 Q1639.06 187.298 1642.38 182.842 Q1645.74 178.386 1645.74 170.324 M1653.19 187.905 Q1653.19 199.491 1648.05 205.122 Q1642.9 210.793 1632.29 210.793 Q1628.36 210.793 1624.88 210.185 Q1621.39 209.618 1618.11 208.403 L1618.11 201.152 Q1621.39 202.934 1624.59 203.785 Q1627.79 204.635 1631.12 204.635 Q1638.45 204.635 1642.09 200.787 Q1645.74 196.979 1645.74 189.242 L1645.74 185.556 Q1643.43 189.566 1639.83 191.551 Q1636.22 193.536 1631.2 193.536 Q1622.85 193.536 1617.75 187.176 Q1612.64 180.816 1612.64 170.324 Q1612.64 159.792 1617.75 153.432 Q1622.85 147.072 1631.2 147.072 Q1636.22 147.072 1639.83 149.057 Q1643.43 151.042 1645.74 155.052 L1645.74 148.166 L1653.19 148.166 L1653.19 187.905 Z" fill="#000000" fill-rule="nonzero" fill-opacity="1" /><path clip-path="url(#clip600)" d="M1707.35 168.988 L1707.35 172.633 L1673.08 172.633 Q1673.57 180.33 1677.7 184.381 Q1681.87 188.391 1689.29 188.391 Q1693.58 188.391 1697.59 187.338 Q1701.64 186.285 1705.61 184.178 L1705.61 191.227 Q1701.6 192.928 1697.39 193.82 Q1693.18 194.711 1688.84 194.711 Q1677.99 194.711 1671.63 188.391 Q1665.31 182.072 1665.31 171.297 Q1665.31 160.157 1671.3 153.635 Q1677.34 147.072 1687.55 147.072 Q1696.7 147.072 1702.01 152.986 Q1707.35 158.86 1707.35 168.988 M1699.9 166.8 Q1699.82 160.683 1696.46 157.037 Q1693.14 153.392 1687.63 153.392 Q1681.39 153.392 1677.62 156.916 Q1673.89 160.44 1673.33 166.841 L1699.9 166.8 Z" fill="#000000" fill-rule="nonzero" fill-opacity="1" /><path clip-path="url(#clip600)" d="M1757.3 166.152 L1757.3 193.536 L1749.85 193.536 L1749.85 166.395 Q1749.85 159.954 1747.34 156.754 Q1744.83 153.554 1739.8 153.554 Q1733.77 153.554 1730.28 157.402 Q1726.8 161.25 1726.8 167.894 L1726.8 193.536 L1719.3 193.536 L1719.3 148.166 L1726.8 148.166 L1726.8 155.214 Q1729.47 151.123 1733.08 149.098 Q1736.72 147.072 1741.46 147.072 Q1749.28 147.072 1753.29 151.933 Q1757.3 156.754 1757.3 166.152 Z" fill="#000000" fill-rule="nonzero" fill-opacity="1" /><path clip-path="url(#clip600)" d="M1802.02 155.052 L1802.02 130.504 L1809.48 130.504 L1809.48 193.536 L1802.02 193.536 L1802.02 186.73 Q1799.67 190.781 1796.07 192.766 Q1792.5 194.711 1787.48 194.711 Q1779.26 194.711 1774.07 188.148 Q1768.93 181.586 1768.93 170.891 Q1768.93 160.197 1774.07 153.635 Q1779.26 147.072 1787.48 147.072 Q1792.5 147.072 1796.07 149.057 Q1799.67 151.002 1802.02 155.052 M1776.63 170.891 Q1776.63 179.115 1779.99 183.814 Q1783.39 188.472 1789.3 188.472 Q1795.22 188.472 1798.62 183.814 Q1802.02 179.115 1802.02 170.891 Q1802.02 162.668 1798.62 158.01 Q1795.22 153.311 1789.3 153.311 Q1783.39 153.311 1779.99 158.01 Q1776.63 162.668 1776.63 170.891 Z" fill="#000000" fill-rule="nonzero" fill-opacity="1" /><path clip-path="url(#clip600)" d="M1851.12 155.133 Q1849.87 154.404 1848.37 154.08 Q1846.91 153.716 1845.13 153.716 Q1838.81 153.716 1835.4 157.848 Q1832.04 161.939 1832.04 169.636 L1832.04 193.536 L1824.55 193.536 L1824.55 148.166 L1832.04 148.166 L1832.04 155.214 Q1834.39 151.083 1838.16 149.098 Q1841.93 147.072 1847.31 147.072 Q1848.08 147.072 1849.01 147.194 Q1849.95 147.275 1851.08 147.477 L1851.12 155.133 Z" fill="#000000" fill-rule="nonzero" fill-opacity="1" /><path clip-path="url(#clip600)" d="M1895.92 168.988 L1895.92 172.633 L1861.65 172.633 Q1862.14 180.33 1866.27 184.381 Q1870.44 188.391 1877.86 188.391 Q1882.15 188.391 1886.16 187.338 Q1890.21 186.285 1894.18 184.178 L1894.18 191.227 Q1890.17 192.928 1885.96 193.82 Q1881.75 194.711 1877.41 194.711 Q1866.56 194.711 1860.2 188.391 Q1853.88 182.072 1853.88 171.297 Q1853.88 160.157 1859.87 153.635 Q1865.91 147.072 1876.12 147.072 Q1885.27 147.072 1890.58 152.986 Q1895.92 158.86 1895.92 168.988 M1888.47 166.8 Q1888.39 160.683 1885.03 157.037 Q1881.71 153.392 1876.2 153.392 Q1869.96 153.392 1866.19 156.916 Q1862.46 160.44 1861.9 166.841 L1888.47 166.8 Z" fill="#000000" fill-rule="nonzero" fill-opacity="1" /><path clip-path="url(#clip600)" d="M1942.63 207.309 L1942.63 213.102 L1899.53 213.102 L1899.53 207.309 L1942.63 207.309 Z" fill="#000000" fill-rule="nonzero" fill-opacity="1" /><path clip-path="url(#clip600)" d="M1949.96 133.056 L1960.98 133.056 L1987.8 183.652 L1987.8 133.056 L1995.74 133.056 L1995.74 193.536 L1984.72 193.536 L1957.9 142.94 L1957.9 193.536 L1949.96 193.536 L1949.96 133.056 Z" fill="#000000" fill-rule="nonzero" fill-opacity="1" /><path clip-path="url(#clip600)" d="M2029.28 153.392 Q2023.28 153.392 2019.8 158.091 Q2016.32 162.749 2016.32 170.891 Q2016.32 179.034 2019.76 183.733 Q2023.24 188.391 2029.28 188.391 Q2035.23 188.391 2038.72 183.692 Q2042.2 178.993 2042.2 170.891 Q2042.2 162.83 2038.72 158.131 Q2035.23 153.392 2029.28 153.392 M2029.28 147.072 Q2039 147.072 2044.55 153.392 Q2050.1 159.711 2050.1 170.891 Q2050.1 182.031 2044.55 188.391 Q2039 194.711 2029.28 194.711 Q2019.52 194.711 2013.97 188.391 Q2008.46 182.031 2008.46 170.891 Q2008.46 159.711 2013.97 153.392 Q2019.52 147.072 2029.28 147.072 Z" fill="#000000" fill-rule="nonzero" fill-opacity="1" /><path clip-path="url(#clip600)" d="M2096.93 207.309 L2096.93 213.102 L2053.83 213.102 L2053.83 207.309 L2096.93 207.309 Z" fill="#000000" fill-rule="nonzero" fill-opacity="1" /><path clip-path="url(#clip600)" d="M2104.26 133.056 L2115.28 133.056 L2142.1 183.652 L2142.1 133.056 L2150.04 133.056 L2150.04 193.536 L2139.02 193.536 L2112.2 142.94 L2112.2 193.536 L2104.26 193.536 L2104.26 133.056 Z" fill="#000000" fill-rule="nonzero" fill-opacity="1" /><path clip-path="url(#clip600)" d="M2183.58 153.392 Q2177.58 153.392 2174.1 158.091 Q2170.62 162.749 2170.62 170.891 Q2170.62 179.034 2174.06 183.733 Q2177.54 188.391 2183.58 188.391 Q2189.53 188.391 2193.02 183.692 Q2196.5 178.993 2196.5 170.891 Q2196.5 162.83 2193.02 158.131 Q2189.53 153.392 2183.58 153.392 M2183.58 147.072 Q2193.3 147.072 2198.85 153.392 Q2204.4 159.711 2204.4 170.891 Q2204.4 182.031 2198.85 188.391 Q2193.3 194.711 2183.58 194.711 Q2173.82 194.711 2168.27 188.391 Q2162.76 182.031 2162.76 170.891 Q2162.76 159.711 2168.27 153.392 Q2173.82 147.072 2183.58 147.072 Z" fill="#000000" fill-rule="nonzero" fill-opacity="1" /><path clip-path="url(#clip600)" d="M2243.05 155.133 Q2241.79 154.404 2240.29 154.08 Q2238.83 153.716 2237.05 153.716 Q2230.73 153.716 2227.33 157.848 Q2223.97 161.939 2223.97 169.636 L2223.97 193.536 L2216.47 193.536 L2216.47 148.166 L2223.97 148.166 L2223.97 155.214 Q2226.32 151.083 2230.08 149.098 Q2233.85 147.072 2239.24 147.072 Q2240.01 147.072 2240.94 147.194 Q2241.87 147.275 2243.01 147.477 L2243.05 155.133 Z" fill="#000000" fill-rule="nonzero" fill-opacity="1" /><path clip-path="url(#clip600)" d="M2284.73 156.875 Q2287.53 151.852 2291.41 149.462 Q2295.3 147.072 2300.57 147.072 Q2307.66 147.072 2311.51 152.055 Q2315.35 156.997 2315.35 166.152 L2315.35 193.536 L2307.86 193.536 L2307.86 166.395 Q2307.86 159.873 2305.55 156.713 Q2303.24 153.554 2298.5 153.554 Q2292.71 153.554 2289.35 157.402 Q2285.99 161.25 2285.99 167.894 L2285.99 193.536 L2278.49 193.536 L2278.49 166.395 Q2278.49 159.832 2276.18 156.713 Q2273.87 153.554 2269.05 153.554 Q2263.34 153.554 2259.98 157.442 Q2256.62 161.291 2256.62 167.894 L2256.62 193.536 L2249.12 193.536 L2249.12 148.166 L2256.62 148.166 L2256.62 155.214 Q2259.17 151.042 2262.73 149.057 Q2266.3 147.072 2271.2 147.072 Q2276.14 147.072 2279.59 149.584 Q2283.07 152.095 2284.73 156.875 Z" fill="#000000" fill-rule="nonzero" fill-opacity="1" /><path clip-path="url(#clip600)" d="M2395.4 168.988 L2395.4 172.633 L2361.13 172.633 Q2361.62 180.33 2365.75 184.381 Q2369.92 188.391 2377.33 188.391 Q2381.63 188.391 2385.64 187.338 Q2389.69 186.285 2393.66 184.178 L2393.66 191.227 Q2389.65 192.928 2385.44 193.82 Q2381.22 194.711 2376.89 194.711 Q2366.03 194.711 2359.67 188.391 Q2353.35 182.072 2353.35 171.297 Q2353.35 160.157 2359.35 153.635 Q2365.38 147.072 2375.59 147.072 Q2384.75 147.072 2390.05 152.986 Q2395.4 158.86 2395.4 168.988 M2387.95 166.8 Q2387.87 160.683 2384.5 157.037 Q2381.18 153.392 2375.67 153.392 Q2369.43 153.392 2365.67 156.916 Q2361.94 160.44 2361.37 166.841 L2387.95 166.8 Z" fill="#000000" fill-rule="nonzero" fill-opacity="1" /><path clip-path="url(#clip600)" d="M2445.35 166.152 L2445.35 193.536 L2437.89 193.536 L2437.89 166.395 Q2437.89 159.954 2435.38 156.754 Q2432.87 153.554 2427.85 153.554 Q2421.81 153.554 2418.33 157.402 Q2414.85 161.25 2414.85 167.894 L2414.85 193.536 L2407.35 193.536 L2407.35 148.166 L2414.85 148.166 L2414.85 155.214 Q2417.52 151.123 2421.12 149.098 Q2424.77 147.072 2429.51 147.072 Q2437.33 147.072 2441.34 151.933 Q2445.35 156.754 2445.35 166.152 Z" fill="#000000" fill-rule="nonzero" fill-opacity="1" /><path clip-path="url(#clip600)" d="M2492.87 149.908 L2492.87 156.875 Q2489.71 155.133 2486.51 154.283 Q2483.35 153.392 2480.11 153.392 Q2472.85 153.392 2468.84 158.01 Q2464.83 162.587 2464.83 170.891 Q2464.83 179.196 2468.84 183.814 Q2472.85 188.391 2480.11 188.391 Q2483.35 188.391 2486.51 187.541 Q2489.71 186.649 2492.87 184.908 L2492.87 191.794 Q2489.75 193.252 2486.38 193.982 Q2483.06 194.711 2479.29 194.711 Q2469.05 194.711 2463.01 188.27 Q2456.97 181.829 2456.97 170.891 Q2456.97 159.792 2463.05 153.432 Q2469.17 147.072 2479.78 147.072 Q2483.22 147.072 2486.51 147.801 Q2489.79 148.49 2492.87 149.908 Z" fill="#000000" fill-rule="nonzero" fill-opacity="1" /><path clip-path="url(#clip600)" d="M2523.41 153.392 Q2517.41 153.392 2513.93 158.091 Q2510.45 162.749 2510.45 170.891 Q2510.45 179.034 2513.89 183.733 Q2517.37 188.391 2523.41 188.391 Q2529.36 188.391 2532.85 183.692 Q2536.33 178.993 2536.33 170.891 Q2536.33 162.83 2532.85 158.131 Q2529.36 153.392 2523.41 153.392 M2523.41 147.072 Q2533.13 147.072 2538.68 153.392 Q2544.23 159.711 2544.23 170.891 Q2544.23 182.031 2538.68 188.391 Q2533.13 194.711 2523.41 194.711 Q2513.65 194.711 2508.1 188.391 Q2502.59 182.031 2502.59 170.891 Q2502.59 159.711 2508.1 153.392 Q2513.65 147.072 2523.41 147.072 Z" fill="#000000" fill-rule="nonzero" fill-opacity="1" /><path clip-path="url(#clip600)" d="M2586.44 155.052 L2586.44 130.504 L2593.89 130.504 L2593.89 193.536 L2586.44 193.536 L2586.44 186.73 Q2584.09 190.781 2580.49 192.766 Q2576.92 194.711 2571.9 194.711 Q2563.68 194.711 2558.49 188.148 Q2553.35 181.586 2553.35 170.891 Q2553.35 160.197 2558.49 153.635 Q2563.68 147.072 2571.9 147.072 Q2576.92 147.072 2580.49 149.057 Q2584.09 151.002 2586.44 155.052 M2561.04 170.891 Q2561.04 179.115 2564.4 183.814 Q2567.81 188.472 2573.72 188.472 Q2579.64 188.472 2583.04 183.814 Q2586.44 179.115 2586.44 170.891 Q2586.44 162.668 2583.04 158.01 Q2579.64 153.311 2573.72 153.311 Q2567.81 153.311 2564.4 158.01 Q2561.04 162.668 2561.04 170.891 Z" fill="#000000" fill-rule="nonzero" fill-opacity="1" /><path clip-path="url(#clip600)" d="M2609.25 148.166 L2616.7 148.166 L2616.7 193.536 L2609.25 193.536 L2609.25 148.166 M2609.25 130.504 L2616.7 130.504 L2616.7 139.943 L2609.25 139.943 L2609.25 130.504 Z" fill="#000000" fill-rule="nonzero" fill-opacity="1" /><path clip-path="url(#clip600)" d="M2670.01 166.152 L2670.01 193.536 L2662.56 193.536 L2662.56 166.395 Q2662.56 159.954 2660.05 156.754 Q2657.53 153.554 2652.51 153.554 Q2646.48 153.554 2642.99 157.402 Q2639.51 161.25 2639.51 167.894 L2639.51 193.536 L2632.01 193.536 L2632.01 148.166 L2639.51 148.166 L2639.51 155.214 Q2642.18 151.123 2645.79 149.098 Q2649.43 147.072 2654.17 147.072 Q2661.99 147.072 2666 151.933 Q2670.01 156.754 2670.01 166.152 Z" fill="#000000" fill-rule="nonzero" fill-opacity="1" /><path clip-path="url(#clip600)" d="M2714.73 170.324 Q2714.73 162.223 2711.37 157.767 Q2708.05 153.311 2702.01 153.311 Q2696.02 153.311 2692.66 157.767 Q2689.33 162.223 2689.33 170.324 Q2689.33 178.386 2692.66 182.842 Q2696.02 187.298 2702.01 187.298 Q2708.05 187.298 2711.37 182.842 Q2714.73 178.386 2714.73 170.324 M2722.19 187.905 Q2722.19 199.491 2717.04 205.122 Q2711.9 210.793 2701.28 210.793 Q2697.36 210.793 2693.87 210.185 Q2690.39 209.618 2687.11 208.403 L2687.11 201.152 Q2690.39 202.934 2693.59 203.785 Q2696.79 204.635 2700.11 204.635 Q2707.44 204.635 2711.09 200.787 Q2714.73 196.979 2714.73 189.242 L2714.73 185.556 Q2712.42 189.566 2708.82 191.551 Q2705.21 193.536 2700.19 193.536 Q2691.85 193.536 2686.74 187.176 Q2681.64 180.816 2681.64 170.324 Q2681.64 159.792 2686.74 153.432 Q2691.85 147.072 2700.19 147.072 Q2705.21 147.072 2708.82 149.057 Q2712.42 151.042 2714.73 155.052 L2714.73 148.166 L2722.19 148.166 L2722.19 187.905 Z" fill="#000000" fill-rule="nonzero" fill-opacity="1" /><path clip-path="url(#clip600)" d="M2739.44 183.247 L2747.99 183.247 L2747.99 190.214 L2741.35 203.177 L2736.12 203.177 L2739.44 190.214 L2739.44 183.247 Z" fill="#000000" fill-rule="nonzero" fill-opacity="1" /><path clip-path="url(#clip600)" d="M1273.54 223.776 L1285.74 223.776 L1301.17 264.933 L1316.69 223.776 L1328.88 223.776 L1328.88 284.256 L1320.9 284.256 L1320.9 231.149 L1305.3 272.63 L1297.08 272.63 L1281.48 231.149 L1281.48 284.256 L1273.54 284.256 L1273.54 223.776 Z" fill="#000000" fill-rule="nonzero" fill-opacity="1" /><path clip-path="url(#clip600)" d="M1383.61 259.708 L1383.61 263.353 L1349.34 263.353 Q1349.82 271.05 1353.95 275.101 Q1358.13 279.111 1365.54 279.111 Q1369.83 279.111 1373.84 278.058 Q1377.89 277.005 1381.86 274.898 L1381.86 281.947 Q1377.85 283.648 1373.64 284.54 Q1369.43 285.431 1365.09 285.431 Q1354.24 285.431 1347.88 279.111 Q1341.56 272.792 1341.56 262.017 Q1341.56 250.877 1347.55 244.355 Q1353.59 237.792 1363.8 237.792 Q1372.95 237.792 1378.26 243.706 Q1383.61 249.58 1383.61 259.708 M1376.15 257.52 Q1376.07 251.403 1372.71 247.757 Q1369.39 244.112 1363.88 244.112 Q1357.64 244.112 1353.87 247.636 Q1350.15 251.16 1349.58 257.561 L1376.15 257.52 Z" fill="#000000" fill-rule="nonzero" fill-opacity="1" /><path clip-path="url(#clip600)" d="M1425.7 245.772 L1425.7 221.224 L1433.15 221.224 L1433.15 284.256 L1425.7 284.256 L1425.7 277.45 Q1423.35 281.501 1419.74 283.486 Q1416.18 285.431 1411.15 285.431 Q1402.93 285.431 1397.74 278.868 Q1392.6 272.306 1392.6 261.611 Q1392.6 250.917 1397.74 244.355 Q1402.93 237.792 1411.15 237.792 Q1416.18 237.792 1419.74 239.777 Q1423.35 241.722 1425.7 245.772 M1400.3 261.611 Q1400.3 269.835 1403.66 274.534 Q1407.06 279.192 1412.98 279.192 Q1418.89 279.192 1422.29 274.534 Q1425.7 269.835 1425.7 261.611 Q1425.7 253.388 1422.29 248.73 Q1418.89 244.031 1412.98 244.031 Q1407.06 244.031 1403.66 248.73 Q1400.3 253.388 1400.3 261.611 Z" fill="#000000" fill-rule="nonzero" fill-opacity="1" /><path clip-path="url(#clip600)" d="M1448.5 238.886 L1455.96 238.886 L1455.96 284.256 L1448.5 284.256 L1448.5 238.886 M1448.5 221.224 L1455.96 221.224 L1455.96 230.663 L1448.5 230.663 L1448.5 221.224 Z" fill="#000000" fill-rule="nonzero" fill-opacity="1" /><path clip-path="url(#clip600)" d="M1492.17 261.449 Q1483.14 261.449 1479.65 263.515 Q1476.17 265.581 1476.17 270.564 Q1476.17 274.534 1478.76 276.883 Q1481.4 279.192 1485.89 279.192 Q1492.09 279.192 1495.82 274.817 Q1499.58 270.402 1499.58 263.11 L1499.58 261.449 L1492.17 261.449 M1507.04 258.371 L1507.04 284.256 L1499.58 284.256 L1499.58 277.369 Q1497.03 281.501 1493.22 283.486 Q1489.42 285.431 1483.91 285.431 Q1476.94 285.431 1472.81 281.542 Q1468.72 277.613 1468.72 271.05 Q1468.72 263.394 1473.82 259.505 Q1478.96 255.616 1489.13 255.616 L1499.58 255.616 L1499.58 254.887 Q1499.58 249.742 1496.18 246.947 Q1492.82 244.112 1486.7 244.112 Q1482.81 244.112 1479.13 245.043 Q1475.44 245.975 1472.04 247.838 L1472.04 240.952 Q1476.13 239.372 1479.98 238.602 Q1483.83 237.792 1487.47 237.792 Q1497.32 237.792 1502.18 242.896 Q1507.04 248 1507.04 258.371 Z" fill="#000000" fill-rule="nonzero" fill-opacity="1" /><path clip-path="url(#clip600)" d="M1560.1 256.872 L1560.1 284.256 L1552.65 284.256 L1552.65 257.115 Q1552.65 250.674 1550.14 247.474 Q1547.63 244.274 1542.6 244.274 Q1536.57 244.274 1533.08 248.122 Q1529.6 251.97 1529.6 258.614 L1529.6 284.256 L1522.11 284.256 L1522.11 238.886 L1529.6 238.886 L1529.6 245.934 Q1532.27 241.843 1535.88 239.818 Q1539.53 237.792 1544.27 237.792 Q1552.08 237.792 1556.09 242.653 Q1560.1 247.474 1560.1 256.872 Z" fill="#000000" fill-rule="nonzero" fill-opacity="1" /><path clip-path="url(#clip600)" d="M1576.87 273.967 L1585.42 273.967 L1585.42 280.934 L1578.78 293.897 L1573.55 293.897 L1576.87 280.934 L1576.87 273.967 Z" fill="#000000" fill-rule="nonzero" fill-opacity="1" /><path clip-path="url(#clip600)" d="M1658.06 232.242 L1658.06 254.806 L1680.62 254.806 L1680.62 261.692 L1658.06 261.692 L1658.06 284.256 L1651.25 284.256 L1651.25 261.692 L1628.69 261.692 L1628.69 254.806 L1651.25 254.806 L1651.25 232.242 L1658.06 232.242 Z" fill="#000000" fill-rule="nonzero" fill-opacity="1" /><path clip-path="url(#clip600)" d="M1710.47 223.776 L1717.36 223.776 L1696.3 291.953 L1689.41 291.953 L1710.47 223.776 Z" fill="#000000" fill-rule="nonzero" fill-opacity="1" /><path clip-path="url(#clip600)" d="M1721.41 258.209 L1743.25 258.209 L1743.25 264.852 L1721.41 264.852 L1721.41 258.209 Z" fill="#000000" fill-rule="nonzero" fill-opacity="1" /><path clip-path="url(#clip600)" d="M1776.42 223.776 L1784.69 223.776 L1797.41 274.898 L1810.09 223.776 L1819.28 223.776 L1832 274.898 L1844.68 223.776 L1852.98 223.776 L1837.79 284.256 L1827.5 284.256 L1814.74 231.756 L1801.86 284.256 L1791.57 284.256 L1776.42 223.776 Z" fill="#000000" fill-rule="nonzero" fill-opacity="1" /><path clip-path="url(#clip600)" d="M1863.84 223.776 L1876.03 223.776 L1891.47 264.933 L1906.98 223.776 L1919.18 223.776 L1919.18 284.256 L1911.2 284.256 L1911.2 231.149 L1895.6 272.63 L1887.38 272.63 L1871.78 231.149 L1871.78 284.256 L1863.84 284.256 L1863.84 223.776 Z" fill="#000000" fill-rule="nonzero" fill-opacity="1" /><path clip-path="url(#clip600)" d="M1955.63 231.837 L1944.54 261.936 L1966.77 261.936 L1955.63 231.837 M1951.02 223.776 L1960.29 223.776 L1983.34 284.256 L1974.84 284.256 L1969.33 268.741 L1942.06 268.741 L1936.55 284.256 L1927.93 284.256 L1951.02 223.776 Z" fill="#000000" fill-rule="nonzero" fill-opacity="1" /><path clip-path="url(#clip600)" d="M2000.36 230.501 L2000.36 277.531 L2010.24 277.531 Q2022.76 277.531 2028.55 271.86 Q2034.38 266.189 2034.38 253.955 Q2034.38 241.803 2028.55 236.172 Q2022.76 230.501 2010.24 230.501 L2000.36 230.501 M1992.17 223.776 L2008.98 223.776 Q2026.57 223.776 2034.79 231.108 Q2043.01 238.4 2043.01 253.955 Q2043.01 269.592 2034.75 276.924 Q2026.48 284.256 2008.98 284.256 L1992.17 284.256 L1992.17 223.776 Z" fill="#000000" fill-rule="nonzero" fill-opacity="1" /><polyline clip-path="url(#clip602)" style="stroke:#000000; stroke-linecap:round; stroke-linejoin:round; stroke-width:8; stroke-opacity:1; fill:none" stroke-dasharray="4, 8" points="332.738,1184.15 359.516,1117.05 386.295,1095.42 413.074,1127.79 439.852,1153.23 466.631,1167.15 493.409,1238.5 520.188,1399.53 546.967,1455.52 573.745,1487.91 600.524,1576.93 627.302,1642.68 654.081,1702.14 680.859,1721.25 707.638,1570.21 734.417,1470.37 761.195,1470.64 787.974,1266.44 814.752,1175.21 841.531,1038.89 868.31,1041.2 895.088,918.817 921.867,932.863 948.645,948.142 975.424,899.452 1002.2,1097.58 1028.98,1108.09 1055.76,1182.29 1082.54,1321.65 1109.32,1317.48 1136.1,1413.16 1162.87,1382.04 1189.65,1527.16 1216.43,1453.99 1243.21,1428.94 1269.99,1329.98 1296.77,1232.68 "/>
<polyline clip-path="url(#clip602)" style="stroke:#000000; stroke-linecap:round; stroke-linejoin:round; stroke-width:8; stroke-opacity:1; fill:none" stroke-dasharray="4, 8" points="2019.79,566.532 2046.57,558.986 2073.35,616.396 2100.12,725.628 2126.9,834.747 2153.68,902.901 2180.46,930.714 2207.24,1016.29 2234.02,1074.37 2260.8,1073.05 2287.57,1106.24 2314.35,945.301 2341.13,893.34 2367.91,865.05 2394.69,749.061 2421.47,549.7 2448.25,478.702 2475.02,398.39 2501.8,385.61 2528.58,358.634 2555.36,329.276 2582.14,390.993 2608.92,407.295 2635.7,527.4 2662.47,628.895 2689.25,701.262 2716.03,848.369 2742.81,904.141 2769.59,904.536 2796.37,932.056 2823.15,877.052 2849.93,752.852 2876.7,792.931 2903.48,622.484 2930.26,517.071 2957.04,380.654 2983.82,304.565 "/>
<polyline clip-path="url(#clip602)" style="stroke:#000000; stroke-linecap:round; stroke-linejoin:round; stroke-width:8; stroke-opacity:0.3; fill:none" points="1323.55,1068.35 1350.32,974.41 1377.1,886.259 1403.88,811.688 1430.66,752.885 1457.44,728.771 1484.22,734.544 1511,775.673 1537.77,745.673 1564.55,909.342 1591.33,986.537 1618.11,1033.57 1644.89,1220.84 1671.67,1184.49 1698.45,1262.69 1725.22,1265.04 1752,1286.48 1778.78,1184.74 1805.56,1156.5 1832.34,989.87 1859.12,990.7 1885.9,807.894 1912.67,709.903 1939.45,614.833 1966.23,619.402 1993.01,537.131 "/>
<path clip-path="url(#clip602)" d="M1323.55 1157.06 L1350.32 1057.62 L1377.1 930.583 L1403.88 879.891 L1430.66 810.816 L1457.44 784.106 L1484.22 802.644 L1511 859.793 L1537.77 914.303 L1564.55 986.698 L1591.33 1092.49 L1618.11 1167.13 L1644.89 1246.4 L1671.67 1312.49 L1698.45 1332.87 L1725.22 1349.82 L1752 1304.99 L1778.78 1222.72 L1805.56 1162.22 L1832.34 1058.57 L1859.12 941.399 L1885.9 822.883 L1912.67 732.346 L1939.45 670.663 L1966.23 614.919 L1993.01 573.333 L1993.01 464.633 L1966.23 501.521 L1939.45 559.712 L1912.67 618.437 L1885.9 694.134 L1859.12 819.443 L1832.34 924.537 L1805.56 1043.87 L1778.78 1099.02 L1752 1182.82 L1725.22 1236.79 L1698.45 1216.13 L1671.67 1191.86 L1644.89 1120.55 L1618.11 1044.89 L1591.33 958.257 L1564.55 856.324 L1537.77 793.531 L1511 733.491 L1484.22 678.499 L1457.44 662.059 L1430.66 686.177 L1403.88 757.507 L1377.1 812.322 L1350.32 926.77 L1323.55 1037.72  Z" fill="#ff0000" fill-rule="evenodd" fill-opacity="0.15"/>
<polyline clip-path="url(#clip602)" style="stroke:#ff0000; stroke-linecap:round; stroke-linejoin:round; stroke-width:8; stroke-opacity:0.8; fill:none" points="1323.55,1097.39 1350.32,992.195 1377.1,871.453 1403.88,818.699 1430.66,748.496 1457.44,723.083 1484.22,740.571 1511,796.642 1537.77,853.917 1564.55,921.511 1591.33,1025.37 1618.11,1106.01 1644.89,1183.47 1671.67,1252.17 1698.45,1274.5 1725.22,1293.31 1752,1243.91 1778.78,1160.87 1805.56,1103.05 1832.34,991.553 1859.12,880.421 1885.9,758.508 1912.67,675.392 1939.45,615.187 1966.23,558.22 1993.01,518.983 "/>
<path clip-path="url(#clip600)" d="M3186.67 519.48 L3952.76 519.48 L3952.76 312.12 L3186.67 312.12  Z" fill="#ffffff" fill-rule="evenodd" fill-opacity="1"/>
<polyline clip-path="url(#clip600)" style="stroke:#000000; stroke-linecap:round; stroke-linejoin:round; stroke-width:4; stroke-opacity:1; fill:none" points="3186.67,519.48 3952.76,519.48 3952.76,312.12 3186.67,312.12 3186.67,519.48 "/>
<polyline clip-path="url(#clip600)" style="stroke:#000000; stroke-linecap:round; stroke-linejoin:round; stroke-width:8; stroke-opacity:1; fill:none" stroke-dasharray="4, 8" points="3227.77,363.96 3474.41,363.96 "/>
<path clip-path="url(#clip600)" d="M3531.54 349.852 Q3526.44 349.852 3523.43 353.648 Q3520.45 357.444 3520.45 363.995 Q3520.45 370.523 3523.43 374.319 Q3526.44 378.115 3531.54 378.115 Q3536.63 378.115 3539.59 374.319 Q3542.58 370.523 3542.58 363.995 Q3542.58 357.444 3539.59 353.648 Q3536.63 349.852 3531.54 349.852 M3531.54 346.055 Q3538.8 346.055 3543.16 350.94 Q3547.51 355.801 3547.51 363.995 Q3547.51 372.166 3543.16 377.051 Q3538.8 381.912 3531.54 381.912 Q3524.24 381.912 3519.87 377.051 Q3515.52 372.189 3515.52 363.995 Q3515.52 355.801 3519.87 350.94 Q3524.24 346.055 3531.54 346.055 Z" fill="#000000" fill-rule="nonzero" fill-opacity="1" /><path clip-path="url(#clip600)" d="M3573.25 368.301 Q3573.25 363.602 3571.3 360.94 Q3569.38 358.254 3566 358.254 Q3562.62 358.254 3560.68 360.94 Q3558.76 363.602 3558.76 368.301 Q3558.76 373 3560.68 375.685 Q3562.62 378.347 3566 378.347 Q3569.38 378.347 3571.3 375.685 Q3573.25 373 3573.25 368.301 M3558.76 359.25 Q3560.1 356.935 3562.14 355.824 Q3564.2 354.69 3567.05 354.69 Q3571.77 354.69 3574.71 358.44 Q3577.67 362.19 3577.67 368.301 Q3577.67 374.412 3574.71 378.162 Q3571.77 381.912 3567.05 381.912 Q3564.2 381.912 3562.14 380.801 Q3560.1 379.666 3558.76 377.351 L3558.76 381.24 L3554.48 381.24 L3554.48 345.222 L3558.76 345.222 L3558.76 359.25 Z" fill="#000000" fill-rule="nonzero" fill-opacity="1" /><path clip-path="url(#clip600)" d="M3601.26 356.078 L3601.26 360.106 Q3599.45 359.18 3597.51 358.717 Q3595.56 358.254 3593.48 358.254 Q3590.31 358.254 3588.71 359.227 Q3587.14 360.199 3587.14 362.143 Q3587.14 363.625 3588.27 364.481 Q3589.41 365.315 3592.83 366.078 L3594.29 366.402 Q3598.83 367.375 3600.73 369.157 Q3602.65 370.916 3602.65 374.088 Q3602.65 377.699 3599.78 379.805 Q3596.93 381.912 3591.93 381.912 Q3589.85 381.912 3587.58 381.495 Q3585.33 381.101 3582.83 380.291 L3582.83 375.893 Q3585.19 377.12 3587.48 377.745 Q3589.78 378.347 3592.02 378.347 Q3595.03 378.347 3596.65 377.328 Q3598.27 376.287 3598.27 374.412 Q3598.27 372.676 3597.09 371.75 Q3595.93 370.824 3591.98 369.967 L3590.49 369.62 Q3586.54 368.787 3584.78 367.074 Q3583.02 365.338 3583.02 362.328 Q3583.02 358.671 3585.61 356.68 Q3588.2 354.69 3592.97 354.69 Q3595.33 354.69 3597.42 355.037 Q3599.5 355.384 3601.26 356.078 Z" fill="#000000" fill-rule="nonzero" fill-opacity="1" /><path clip-path="url(#clip600)" d="M3631.6 367.213 L3631.6 369.296 L3612.02 369.296 Q3612.3 373.694 3614.66 376.009 Q3617.04 378.301 3621.28 378.301 Q3623.73 378.301 3626.03 377.699 Q3628.34 377.097 3630.61 375.893 L3630.61 379.921 Q3628.32 380.893 3625.91 381.402 Q3623.5 381.912 3621.03 381.912 Q3614.82 381.912 3611.19 378.301 Q3607.58 374.689 3607.58 368.532 Q3607.58 362.166 3611 358.44 Q3614.45 354.69 3620.29 354.69 Q3625.52 354.69 3628.55 358.069 Q3631.6 361.426 3631.6 367.213 M3627.35 365.963 Q3627.3 362.467 3625.38 360.384 Q3623.48 358.301 3620.33 358.301 Q3616.77 358.301 3614.61 360.315 Q3612.48 362.328 3612.16 365.986 L3627.35 365.963 Z" fill="#000000" fill-rule="nonzero" fill-opacity="1" /><path clip-path="url(#clip600)" d="M3653.62 359.296 Q3652.9 358.879 3652.04 358.694 Q3651.21 358.486 3650.19 358.486 Q3646.58 358.486 3644.64 360.847 Q3642.72 363.185 3642.72 367.583 L3642.72 381.24 L3638.43 381.24 L3638.43 355.315 L3642.72 355.315 L3642.72 359.342 Q3644.06 356.981 3646.21 355.847 Q3648.36 354.69 3651.44 354.69 Q3651.88 354.69 3652.42 354.759 Q3652.95 354.805 3653.6 354.921 L3653.62 359.296 Z" fill="#000000" fill-rule="nonzero" fill-opacity="1" /><path clip-path="url(#clip600)" d="M3655.03 355.315 L3659.54 355.315 L3667.65 377.074 L3675.75 355.315 L3680.26 355.315 L3670.54 381.24 L3664.75 381.24 L3655.03 355.315 Z" fill="#000000" fill-rule="nonzero" fill-opacity="1" /><path clip-path="url(#clip600)" d="M3708.32 367.213 L3708.32 369.296 L3688.73 369.296 Q3689.01 373.694 3691.37 376.009 Q3693.76 378.301 3697.99 378.301 Q3700.45 378.301 3702.74 377.699 Q3705.05 377.097 3707.32 375.893 L3707.32 379.921 Q3705.03 380.893 3702.62 381.402 Q3700.22 381.912 3697.74 381.912 Q3691.54 381.912 3687.9 378.301 Q3684.29 374.689 3684.29 368.532 Q3684.29 362.166 3687.72 358.44 Q3691.16 354.69 3697 354.69 Q3702.23 354.69 3705.26 358.069 Q3708.32 361.426 3708.32 367.213 M3704.06 365.963 Q3704.01 362.467 3702.09 360.384 Q3700.19 358.301 3697.04 358.301 Q3693.48 358.301 3691.33 360.315 Q3689.2 362.328 3688.87 365.986 L3704.06 365.963 Z" fill="#000000" fill-rule="nonzero" fill-opacity="1" /><path clip-path="url(#clip600)" d="M3732.37 359.25 L3732.37 345.222 L3736.63 345.222 L3736.63 381.24 L3732.37 381.24 L3732.37 377.351 Q3731.03 379.666 3728.97 380.801 Q3726.93 381.912 3724.06 381.912 Q3719.36 381.912 3716.4 378.162 Q3713.46 374.412 3713.46 368.301 Q3713.46 362.19 3716.4 358.44 Q3719.36 354.69 3724.06 354.69 Q3726.93 354.69 3728.97 355.824 Q3731.03 356.935 3732.37 359.25 M3717.85 368.301 Q3717.85 373 3719.78 375.685 Q3721.72 378.347 3725.1 378.347 Q3728.48 378.347 3730.42 375.685 Q3732.37 373 3732.37 368.301 Q3732.37 363.602 3730.42 360.94 Q3728.48 358.254 3725.1 358.254 Q3721.72 358.254 3719.78 360.94 Q3717.85 363.602 3717.85 368.301 Z" fill="#000000" fill-rule="nonzero" fill-opacity="1" /><polyline clip-path="url(#clip600)" style="stroke:#000000; stroke-linecap:round; stroke-linejoin:round; stroke-width:8; stroke-opacity:0.3; fill:none" points="3227.77,415.8 3474.41,415.8 "/>
<path clip-path="url(#clip600)" d="M3541.07 428.15 L3541.07 418.867 L3533.43 418.867 L3533.43 415.025 L3545.7 415.025 L3545.7 429.863 Q3542.99 431.784 3539.73 432.779 Q3536.47 433.752 3532.76 433.752 Q3524.66 433.752 3520.08 429.029 Q3515.52 424.284 3515.52 415.835 Q3515.52 407.363 3520.08 402.641 Q3524.66 397.895 3532.76 397.895 Q3536.14 397.895 3539.17 398.729 Q3542.23 399.562 3544.8 401.182 L3544.8 406.159 Q3542.21 403.96 3539.29 402.849 Q3536.37 401.738 3533.16 401.738 Q3526.81 401.738 3523.62 405.28 Q3520.45 408.821 3520.45 415.835 Q3520.45 422.826 3523.62 426.367 Q3526.81 429.909 3533.16 429.909 Q3535.63 429.909 3537.58 429.492 Q3539.52 429.053 3541.07 428.15 Z" fill="#000000" fill-rule="nonzero" fill-opacity="1" /><path clip-path="url(#clip600)" d="M3569.08 411.136 Q3568.36 410.719 3567.51 410.534 Q3566.67 410.326 3565.66 410.326 Q3562.05 410.326 3560.1 412.687 Q3558.18 415.025 3558.18 419.423 L3558.18 433.08 L3553.9 433.08 L3553.9 407.155 L3558.18 407.155 L3558.18 411.182 Q3559.52 408.821 3561.67 407.687 Q3563.83 406.53 3566.91 406.53 Q3567.35 406.53 3567.88 406.599 Q3568.41 406.645 3569.06 406.761 L3569.08 411.136 Z" fill="#000000" fill-rule="nonzero" fill-opacity="1" /><path clip-path="url(#clip600)" d="M3582.55 410.141 Q3579.13 410.141 3577.14 412.826 Q3575.15 415.488 3575.15 420.141 Q3575.15 424.793 3577.11 427.479 Q3579.11 430.141 3582.55 430.141 Q3585.96 430.141 3587.95 427.455 Q3589.94 424.77 3589.94 420.141 Q3589.94 415.534 3587.95 412.849 Q3585.96 410.141 3582.55 410.141 M3582.55 406.53 Q3588.11 406.53 3591.28 410.141 Q3594.45 413.752 3594.45 420.141 Q3594.45 426.506 3591.28 430.141 Q3588.11 433.752 3582.55 433.752 Q3576.98 433.752 3573.8 430.141 Q3570.66 426.506 3570.66 420.141 Q3570.66 413.752 3573.8 410.141 Q3576.98 406.53 3582.55 406.53 Z" fill="#000000" fill-rule="nonzero" fill-opacity="1" /><path clip-path="url(#clip600)" d="M3601.07 422.849 L3601.07 407.155 L3605.33 407.155 L3605.33 422.687 Q3605.33 426.367 3606.77 428.219 Q3608.2 430.048 3611.07 430.048 Q3614.52 430.048 3616.51 427.849 Q3618.53 425.65 3618.53 421.854 L3618.53 407.155 L3622.79 407.155 L3622.79 433.08 L3618.53 433.08 L3618.53 429.099 Q3616.98 431.46 3614.92 432.617 Q3612.88 433.752 3610.17 433.752 Q3605.7 433.752 3603.39 430.974 Q3601.07 428.196 3601.07 422.849 M3611.79 406.53 L3611.79 406.53 Z" fill="#000000" fill-rule="nonzero" fill-opacity="1" /><path clip-path="url(#clip600)" d="M3653.11 417.432 L3653.11 433.08 L3648.85 433.08 L3648.85 417.571 Q3648.85 413.891 3647.42 412.062 Q3645.98 410.233 3643.11 410.233 Q3639.66 410.233 3637.67 412.432 Q3635.68 414.631 3635.68 418.428 L3635.68 433.08 L3631.4 433.08 L3631.4 407.155 L3635.68 407.155 L3635.68 411.182 Q3637.21 408.844 3639.27 407.687 Q3641.35 406.53 3644.06 406.53 Q3648.53 406.53 3650.82 409.307 Q3653.11 412.062 3653.11 417.432 Z" fill="#000000" fill-rule="nonzero" fill-opacity="1" /><path clip-path="url(#clip600)" d="M3678.66 411.09 L3678.66 397.062 L3682.92 397.062 L3682.92 433.08 L3678.66 433.08 L3678.66 429.191 Q3677.32 431.506 3675.26 432.641 Q3673.23 433.752 3670.35 433.752 Q3665.66 433.752 3662.69 430.002 Q3659.75 426.252 3659.75 420.141 Q3659.75 414.03 3662.69 410.28 Q3665.66 406.53 3670.35 406.53 Q3673.23 406.53 3675.26 407.664 Q3677.32 408.775 3678.66 411.09 M3664.15 420.141 Q3664.15 424.84 3666.07 427.525 Q3668.02 430.187 3671.4 430.187 Q3674.78 430.187 3676.72 427.525 Q3678.66 424.84 3678.66 420.141 Q3678.66 415.442 3676.72 412.78 Q3674.78 410.094 3671.4 410.094 Q3668.02 410.094 3666.07 412.78 Q3664.15 415.442 3664.15 420.141 Z" fill="#000000" fill-rule="nonzero" fill-opacity="1" /><path clip-path="url(#clip600)" d="M3710.98 399.794 L3710.98 407.155 L3719.75 407.155 L3719.75 410.465 L3710.98 410.465 L3710.98 424.539 Q3710.98 427.71 3711.84 428.613 Q3712.72 429.516 3715.38 429.516 L3719.75 429.516 L3719.75 433.08 L3715.38 433.08 Q3710.45 433.08 3708.57 431.252 Q3706.7 429.4 3706.7 424.539 L3706.7 410.465 L3703.57 410.465 L3703.57 407.155 L3706.7 407.155 L3706.7 399.794 L3710.98 399.794 Z" fill="#000000" fill-rule="nonzero" fill-opacity="1" /><path clip-path="url(#clip600)" d="M3740.38 411.136 Q3739.66 410.719 3738.8 410.534 Q3737.97 410.326 3736.95 410.326 Q3733.34 410.326 3731.4 412.687 Q3729.47 415.025 3729.47 419.423 L3729.47 433.08 L3725.19 433.08 L3725.19 407.155 L3729.47 407.155 L3729.47 411.182 Q3730.82 408.821 3732.97 407.687 Q3735.12 406.53 3738.2 406.53 Q3738.64 406.53 3739.17 406.599 Q3739.71 406.645 3740.35 406.761 L3740.38 411.136 Z" fill="#000000" fill-rule="nonzero" fill-opacity="1" /><path clip-path="url(#clip600)" d="M3744.41 422.849 L3744.41 407.155 L3748.66 407.155 L3748.66 422.687 Q3748.66 426.367 3750.1 428.219 Q3751.53 430.048 3754.41 430.048 Q3757.85 430.048 3759.85 427.849 Q3761.86 425.65 3761.86 421.854 L3761.86 407.155 L3766.12 407.155 L3766.12 433.08 L3761.86 433.08 L3761.86 429.099 Q3760.31 431.46 3758.25 432.617 Q3756.21 433.752 3753.5 433.752 Q3749.03 433.752 3746.72 430.974 Q3744.41 428.196 3744.41 422.849 M3755.12 406.53 L3755.12 406.53 Z" fill="#000000" fill-rule="nonzero" fill-opacity="1" /><path clip-path="url(#clip600)" d="M3779.1 399.794 L3779.1 407.155 L3787.88 407.155 L3787.88 410.465 L3779.1 410.465 L3779.1 424.539 Q3779.1 427.71 3779.96 428.613 Q3780.84 429.516 3783.5 429.516 L3787.88 429.516 L3787.88 433.08 L3783.5 433.08 Q3778.57 433.08 3776.7 431.252 Q3774.82 429.4 3774.82 424.539 L3774.82 410.465 L3771.7 410.465 L3771.7 407.155 L3774.82 407.155 L3774.82 399.794 L3779.1 399.794 Z" fill="#000000" fill-rule="nonzero" fill-opacity="1" /><path clip-path="url(#clip600)" d="M3815.03 417.432 L3815.03 433.08 L3810.77 433.08 L3810.77 417.571 Q3810.77 413.891 3809.34 412.062 Q3807.9 410.233 3805.03 410.233 Q3801.58 410.233 3799.59 412.432 Q3797.6 414.631 3797.6 418.428 L3797.6 433.08 L3793.32 433.08 L3793.32 397.062 L3797.6 397.062 L3797.6 411.182 Q3799.13 408.844 3801.19 407.687 Q3803.27 406.53 3805.98 406.53 Q3810.45 406.53 3812.74 409.307 Q3815.03 412.062 3815.03 417.432 Z" fill="#000000" fill-rule="nonzero" fill-opacity="1" /><polyline clip-path="url(#clip600)" style="stroke:#ff0000; stroke-linecap:round; stroke-linejoin:round; stroke-width:8; stroke-opacity:0.8; fill:none" points="3227.77,467.64 3474.41,467.64 "/>
<path clip-path="url(#clip600)" d="M3515.52 450.36 L3522.49 450.36 L3531.3 473.879 L3540.17 450.36 L3547.14 450.36 L3547.14 484.92 L3542.58 484.92 L3542.58 454.573 L3533.67 478.277 L3528.97 478.277 L3520.05 454.573 L3520.05 484.92 L3515.52 484.92 L3515.52 450.36 Z" fill="#000000" fill-rule="nonzero" fill-opacity="1" /><path clip-path="url(#clip600)" d="M3561.1 454.203 L3561.1 467.189 L3566.98 467.189 Q3570.24 467.189 3572.02 465.499 Q3573.8 463.809 3573.8 460.684 Q3573.8 457.583 3572.02 455.893 Q3570.24 454.203 3566.98 454.203 L3561.1 454.203 M3556.42 450.36 L3566.98 450.36 Q3572.79 450.36 3575.75 452.999 Q3578.73 455.615 3578.73 460.684 Q3578.73 465.8 3575.75 468.416 Q3572.79 471.032 3566.98 471.032 L3561.1 471.032 L3561.1 484.92 L3556.42 484.92 L3556.42 450.36 Z" fill="#000000" fill-rule="nonzero" fill-opacity="1" /><path clip-path="url(#clip600)" d="M3605.73 451.495 L3605.73 456.055 Q3603.06 454.782 3600.7 454.157 Q3598.34 453.532 3596.14 453.532 Q3592.32 453.532 3590.24 455.013 Q3588.18 456.495 3588.18 459.226 Q3588.18 461.518 3589.55 462.698 Q3590.93 463.856 3594.78 464.573 L3597.6 465.152 Q3602.83 466.147 3605.31 468.67 Q3607.81 471.17 3607.81 475.383 Q3607.81 480.407 3604.43 482.999 Q3601.07 485.592 3594.57 485.592 Q3592.11 485.592 3589.34 485.036 Q3586.58 484.481 3583.62 483.393 L3583.62 478.578 Q3586.47 480.175 3589.2 480.985 Q3591.93 481.795 3594.57 481.795 Q3598.57 481.795 3600.75 480.221 Q3602.92 478.647 3602.92 475.731 Q3602.92 473.184 3601.35 471.749 Q3599.8 470.314 3596.23 469.596 L3593.39 469.041 Q3588.16 467.999 3585.82 465.777 Q3583.48 463.555 3583.48 459.596 Q3583.48 455.013 3586.7 452.374 Q3589.94 449.735 3595.61 449.735 Q3598.04 449.735 3600.56 450.175 Q3603.09 450.615 3605.73 451.495 Z" fill="#000000" fill-rule="nonzero" fill-opacity="1" /><path clip-path="url(#clip600)" d="M3630.17 450.36 L3634.85 450.36 L3634.85 484.92 L3630.17 484.92 L3630.17 450.36 Z" fill="#000000" fill-rule="nonzero" fill-opacity="1" /><path clip-path="url(#clip600)" d="M3665.52 469.272 L3665.52 484.92 L3661.26 484.92 L3661.26 469.411 Q3661.26 465.731 3659.82 463.902 Q3658.39 462.073 3655.52 462.073 Q3652.07 462.073 3650.08 464.272 Q3648.09 466.471 3648.09 470.268 L3648.09 484.92 L3643.8 484.92 L3643.8 458.995 L3648.09 458.995 L3648.09 463.022 Q3649.61 460.684 3651.67 459.527 Q3653.76 458.37 3656.47 458.37 Q3660.93 458.37 3663.23 461.147 Q3665.52 463.902 3665.52 469.272 Z" fill="#000000" fill-rule="nonzero" fill-opacity="1" /><path clip-path="url(#clip600)" d="M3678.23 451.634 L3678.23 458.995 L3687 458.995 L3687 462.305 L3678.23 462.305 L3678.23 476.379 Q3678.23 479.55 3679.08 480.453 Q3679.96 481.356 3682.62 481.356 L3687 481.356 L3687 484.92 L3682.62 484.92 Q3677.69 484.92 3675.82 483.092 Q3673.94 481.24 3673.94 476.379 L3673.94 462.305 L3670.82 462.305 L3670.82 458.995 L3673.94 458.995 L3673.94 451.634 L3678.23 451.634 Z" fill="#000000" fill-rule="nonzero" fill-opacity="1" /><path clip-path="url(#clip600)" d="M3714.78 470.893 L3714.78 472.976 L3695.19 472.976 Q3695.47 477.374 3697.83 479.689 Q3700.22 481.981 3704.45 481.981 Q3706.91 481.981 3709.2 481.379 Q3711.51 480.777 3713.78 479.573 L3713.78 483.601 Q3711.49 484.573 3709.08 485.082 Q3706.67 485.592 3704.2 485.592 Q3697.99 485.592 3694.36 481.981 Q3690.75 478.369 3690.75 472.212 Q3690.75 465.846 3694.17 462.12 Q3697.62 458.37 3703.46 458.37 Q3708.69 458.37 3711.72 461.749 Q3714.78 465.106 3714.78 470.893 M3710.52 469.643 Q3710.47 466.147 3708.55 464.064 Q3706.65 461.981 3703.5 461.981 Q3699.94 461.981 3697.79 463.995 Q3695.66 466.008 3695.33 469.666 L3710.52 469.643 Z" fill="#000000" fill-rule="nonzero" fill-opacity="1" /><path clip-path="url(#clip600)" d="M3736.79 462.976 Q3736.07 462.559 3735.22 462.374 Q3734.38 462.166 3733.36 462.166 Q3729.75 462.166 3727.81 464.527 Q3725.89 466.865 3725.89 471.263 L3725.89 484.92 L3721.6 484.92 L3721.6 458.995 L3725.89 458.995 L3725.89 463.022 Q3727.23 460.661 3729.38 459.527 Q3731.54 458.37 3734.61 458.37 Q3735.05 458.37 3735.59 458.439 Q3736.12 458.485 3736.77 458.601 L3736.79 462.976 Z" fill="#000000" fill-rule="nonzero" fill-opacity="1" /><path clip-path="url(#clip600)" d="M3745.38 481.031 L3745.38 494.781 L3741.1 494.781 L3741.1 458.995 L3745.38 458.995 L3745.38 462.93 Q3746.72 460.615 3748.76 459.504 Q3750.82 458.37 3753.66 458.37 Q3758.39 458.37 3761.33 462.12 Q3764.29 465.87 3764.29 471.981 Q3764.29 478.092 3761.33 481.842 Q3758.39 485.592 3753.66 485.592 Q3750.82 485.592 3748.76 484.481 Q3746.72 483.346 3745.38 481.031 M3759.87 471.981 Q3759.87 467.282 3757.92 464.62 Q3756 461.934 3752.62 461.934 Q3749.24 461.934 3747.3 464.62 Q3745.38 467.282 3745.38 471.981 Q3745.38 476.68 3747.3 479.365 Q3749.24 482.027 3752.62 482.027 Q3756 482.027 3757.92 479.365 Q3759.87 476.68 3759.87 471.981 Z" fill="#000000" fill-rule="nonzero" fill-opacity="1" /><path clip-path="url(#clip600)" d="M3781.4 461.981 Q3777.97 461.981 3775.98 464.666 Q3773.99 467.328 3773.99 471.981 Q3773.99 476.633 3775.96 479.319 Q3777.95 481.981 3781.4 481.981 Q3784.8 481.981 3786.79 479.295 Q3788.78 476.61 3788.78 471.981 Q3788.78 467.374 3786.79 464.689 Q3784.8 461.981 3781.4 461.981 M3781.4 458.37 Q3786.95 458.37 3790.12 461.981 Q3793.29 465.592 3793.29 471.981 Q3793.29 478.346 3790.12 481.981 Q3786.95 485.592 3781.4 485.592 Q3775.82 485.592 3772.65 481.981 Q3769.5 478.346 3769.5 471.981 Q3769.5 465.592 3772.65 461.981 Q3775.82 458.37 3781.4 458.37 Z" fill="#000000" fill-rule="nonzero" fill-opacity="1" /><path clip-path="url(#clip600)" d="M3800.35 448.902 L3804.61 448.902 L3804.61 484.92 L3800.35 484.92 L3800.35 448.902 Z" fill="#000000" fill-rule="nonzero" fill-opacity="1" /><path clip-path="url(#clip600)" d="M3825.31 471.888 Q3820.15 471.888 3818.15 473.069 Q3816.16 474.249 3816.16 477.096 Q3816.16 479.365 3817.65 480.707 Q3819.15 482.027 3821.72 482.027 Q3825.26 482.027 3827.39 479.527 Q3829.54 477.004 3829.54 472.837 L3829.54 471.888 L3825.31 471.888 M3833.8 470.129 L3833.8 484.92 L3829.54 484.92 L3829.54 480.985 Q3828.09 483.346 3825.91 484.481 Q3823.73 485.592 3820.59 485.592 Q3816.6 485.592 3814.24 483.369 Q3811.9 481.124 3811.9 477.374 Q3811.9 472.999 3814.82 470.777 Q3817.76 468.555 3823.57 468.555 L3829.54 468.555 L3829.54 468.138 Q3829.54 465.198 3827.6 463.601 Q3825.68 461.981 3822.18 461.981 Q3819.96 461.981 3817.85 462.513 Q3815.75 463.045 3813.8 464.11 L3813.8 460.175 Q3816.14 459.272 3818.34 458.833 Q3820.54 458.37 3822.62 458.37 Q3828.25 458.37 3831.03 461.286 Q3833.8 464.203 3833.8 470.129 Z" fill="#000000" fill-rule="nonzero" fill-opacity="1" /><path clip-path="url(#clip600)" d="M3846.79 451.634 L3846.79 458.995 L3855.56 458.995 L3855.56 462.305 L3846.79 462.305 L3846.79 476.379 Q3846.79 479.55 3847.65 480.453 Q3848.53 481.356 3851.19 481.356 L3855.56 481.356 L3855.56 484.92 L3851.19 484.92 Q3846.26 484.92 3844.38 483.092 Q3842.51 481.24 3842.51 476.379 L3842.51 462.305 L3839.38 462.305 L3839.38 458.995 L3842.51 458.995 L3842.51 451.634 L3846.79 451.634 Z" fill="#000000" fill-rule="nonzero" fill-opacity="1" /><path clip-path="url(#clip600)" d="M3883.34 470.893 L3883.34 472.976 L3863.76 472.976 Q3864.03 477.374 3866.4 479.689 Q3868.78 481.981 3873.02 481.981 Q3875.47 481.981 3877.76 481.379 Q3880.08 480.777 3882.34 479.573 L3882.34 483.601 Q3880.05 484.573 3877.65 485.082 Q3875.24 485.592 3872.76 485.592 Q3866.56 485.592 3862.92 481.981 Q3859.31 478.369 3859.31 472.212 Q3859.31 465.846 3862.74 462.12 Q3866.19 458.37 3872.02 458.37 Q3877.25 458.37 3880.28 461.749 Q3883.34 465.106 3883.34 470.893 M3879.08 469.643 Q3879.03 466.147 3877.11 464.064 Q3875.21 461.981 3872.07 461.981 Q3868.5 461.981 3866.35 463.995 Q3864.22 466.008 3863.9 469.666 L3879.08 469.643 Z" fill="#000000" fill-rule="nonzero" fill-opacity="1" /><path clip-path="url(#clip600)" d="M3907.39 462.93 L3907.39 448.902 L3911.65 448.902 L3911.65 484.92 L3907.39 484.92 L3907.39 481.031 Q3906.05 483.346 3903.99 484.481 Q3901.95 485.592 3899.08 485.592 Q3894.38 485.592 3891.42 481.842 Q3888.48 478.092 3888.48 471.981 Q3888.48 465.87 3891.42 462.12 Q3894.38 458.37 3899.08 458.37 Q3901.95 458.37 3903.99 459.504 Q3906.05 460.615 3907.39 462.93 M3892.88 471.981 Q3892.88 476.68 3894.8 479.365 Q3896.74 482.027 3900.12 482.027 Q3903.5 482.027 3905.45 479.365 Q3907.39 476.68 3907.39 471.981 Q3907.39 467.282 3905.45 464.62 Q3903.5 461.934 3900.12 461.934 Q3896.74 461.934 3894.8 464.62 Q3892.88 467.282 3892.88 471.981 Z" fill="#000000" fill-rule="nonzero" fill-opacity="1" /></svg>
