<?xml version="1.0" encoding="utf-8"?>
<svg xmlns="http://www.w3.org/2000/svg" xmlns:xlink="http://www.w3.org/1999/xlink" width="1000" height="500" viewBox="0 0 4000 2000">
<defs>
  <clipPath id="clip470">
    <rect x="0" y="0" width="4000" height="2000"/>
  </clipPath>
</defs>
<path clip-path="url(#clip470)" d="M0 2000 L4000 2000 L4000 0 L0 0  Z" fill="#ffffff" fill-rule="evenodd" fill-opacity="1"/>
<defs>
  <clipPath id="clip471">
    <rect x="800" y="0" width="2801" height="2000"/>
  </clipPath>
</defs>
<path clip-path="url(#clip470)" d="M253.205 1763.75 L3063.35 1763.75 L3063.35 262.064 L253.205 262.064  Z" fill="#ffffff" fill-rule="evenodd" fill-opacity="1"/>
<defs>
  <clipPath id="clip472">
    <rect x="253" y="262" width="2811" height="1503"/>
  </clipPath>
</defs>
<polyline clip-path="url(#clip472)" style="stroke:#000000; stroke-linecap:round; stroke-linejoin:round; stroke-width:2; stroke-opacity:0.1; fill:none" points="305.959,1763.75 305.959,262.064 "/>
<polyline clip-path="url(#clip472)" style="stroke:#000000; stroke-linecap:round; stroke-linejoin:round; stroke-width:2; stroke-opacity:0.1; fill:none" points="975.424,1763.75 975.424,262.064 "/>
<polyline clip-path="url(#clip472)" style="stroke:#000000; stroke-linecap:round; stroke-linejoin:round; stroke-width:2; stroke-opacity:0.1; fill:none" points="1644.89,1763.75 1644.89,262.064 "/>
<polyline clip-path="url(#clip472)" style="stroke:#000000; stroke-linecap:round; stroke-linejoin:round; stroke-width:2; stroke-opacity:0.1; fill:none" points="2314.35,1763.75 2314.35,262.064 "/>
<polyline clip-path="url(#clip472)" style="stroke:#000000; stroke-linecap:round; stroke-linejoin:round; stroke-width:2; stroke-opacity:0.1; fill:none" points="2983.82,1763.75 2983.82,262.064 "/>
<polyline clip-path="url(#clip472)" style="stroke:#000000; stroke-linecap:round; stroke-linejoin:round; stroke-width:2; stroke-opacity:0.1; fill:none" points="253.205,1551.07 3063.35,1551.07 "/>
<polyline clip-path="url(#clip472)" style="stroke:#000000; stroke-linecap:round; stroke-linejoin:round; stroke-width:2; stroke-opacity:0.1; fill:none" points="253.205,1217.4 3063.35,1217.4 "/>
<polyline clip-path="url(#clip472)" style="stroke:#000000; stroke-linecap:round; stroke-linejoin:round; stroke-width:2; stroke-opacity:0.1; fill:none" points="253.205,883.735 3063.35,883.735 "/>
<polyline clip-path="url(#clip472)" style="stroke:#000000; stroke-linecap:round; stroke-linejoin:round; stroke-width:2; stroke-opacity:0.1; fill:none" points="253.205,550.065 3063.35,550.065 "/>
<polyline clip-path="url(#clip470)" style="stroke:#000000; stroke-linecap:round; stroke-linejoin:round; stroke-width:4; stroke-opacity:1; fill:none" points="253.205,1763.75 3063.35,1763.75 "/>
<polyline clip-path="url(#clip470)" style="stroke:#000000; stroke-linecap:round; stroke-linejoin:round; stroke-width:4; stroke-opacity:1; fill:none" points="305.959,1763.75 305.959,1744.85 "/>
<polyline clip-path="url(#clip470)" style="stroke:#000000; stroke-linecap:round; stroke-linejoin:round; stroke-width:4; stroke-opacity:1; fill:none" points="975.424,1763.75 975.424,1744.85 "/>
<polyline clip-path="url(#clip470)" style="stroke:#000000; stroke-linecap:round; stroke-linejoin:round; stroke-width:4; stroke-opacity:1; fill:none" points="1644.89,1763.75 1644.89,1744.85 "/>
<polyline clip-path="url(#clip470)" style="stroke:#000000; stroke-linecap:round; stroke-linejoin:round; stroke-width:4; stroke-opacity:1; fill:none" points="2314.35,1763.75 2314.35,1744.85 "/>
<polyline clip-path="url(#clip470)" style="stroke:#000000; stroke-linecap:round; stroke-linejoin:round; stroke-width:4; stroke-opacity:1; fill:none" points="2983.82,1763.75 2983.82,1744.85 "/>
<path clip-path="url(#clip470)" d="M305.959 1813.33 Q300.543 1813.33 297.8 1818.67 Q295.091 1823.99 295.091 1834.68 Q295.091 1845.34 297.8 1850.69 Q300.543 1856 305.959 1856 Q311.411 1856 314.119 1850.69 Q316.862 1845.34 316.862 1834.68 Q316.862 1823.99 314.119 1818.67 Q311.411 1813.33 305.959 1813.33 M305.959 1807.77 Q314.674 1807.77 319.258 1814.68 Q323.876 1821.55 323.876 1834.68 Q323.876 1847.77 319.258 1854.68 Q314.674 1861.55 305.959 1861.55 Q297.244 1861.55 292.626 1854.68 Q288.043 1847.77 288.043 1834.68 Q288.043 1821.55 292.626 1814.68 Q297.244 1807.77 305.959 1807.77 Z" fill="#000000" fill-rule="nonzero" fill-opacity="1" /><path clip-path="url(#clip470)" d="M944.33 1854.64 L968.809 1854.64 L968.809 1860.55 L935.893 1860.55 L935.893 1854.64 Q939.886 1850.51 946.761 1843.57 Q953.671 1836.59 955.441 1834.58 Q958.809 1830.79 960.129 1828.19 Q961.483 1825.55 961.483 1823.01 Q961.483 1818.88 958.566 1816.28 Q955.684 1813.67 951.032 1813.67 Q947.733 1813.67 944.053 1814.82 Q940.407 1815.96 936.24 1818.29 L936.24 1811.21 Q940.476 1809.51 944.157 1808.64 Q947.837 1807.77 950.893 1807.77 Q958.948 1807.77 963.74 1811.8 Q968.532 1815.83 968.532 1822.56 Q968.532 1825.76 967.316 1828.64 Q966.136 1831.49 962.976 1835.37 Q962.108 1836.38 957.455 1841.21 Q952.803 1846 944.33 1854.64 Z" fill="#000000" fill-rule="nonzero" fill-opacity="1" /><path clip-path="url(#clip470)" d="M983.601 1808.71 L1011.14 1808.71 L1011.14 1814.61 L990.025 1814.61 L990.025 1827.32 Q991.552 1826.8 993.08 1826.55 Q994.608 1826.28 996.136 1826.28 Q1004.82 1826.28 1009.89 1831.03 Q1014.95 1835.79 1014.95 1843.92 Q1014.95 1852.28 1009.75 1856.94 Q1004.54 1861.55 995.059 1861.55 Q991.795 1861.55 988.393 1861 Q985.025 1860.44 981.413 1859.33 L981.413 1852.28 Q984.538 1853.99 987.872 1854.82 Q991.205 1855.65 994.92 1855.65 Q1000.93 1855.65 1004.43 1852.49 Q1007.94 1849.33 1007.94 1843.92 Q1007.94 1838.5 1004.43 1835.34 Q1000.93 1832.18 994.92 1832.18 Q992.108 1832.18 989.295 1832.8 Q986.518 1833.43 983.601 1834.75 L983.601 1808.71 Z" fill="#000000" fill-rule="nonzero" fill-opacity="1" /><path clip-path="url(#clip470)" d="M1606.94 1808.71 L1634.47 1808.71 L1634.47 1814.61 L1613.36 1814.61 L1613.36 1827.32 Q1614.89 1826.8 1616.42 1826.55 Q1617.94 1826.28 1619.47 1826.28 Q1628.15 1826.28 1633.22 1831.03 Q1638.29 1835.79 1638.29 1843.92 Q1638.29 1852.28 1633.08 1856.94 Q1627.87 1861.55 1618.4 1861.55 Q1615.13 1861.55 1611.73 1861 Q1608.36 1860.44 1604.75 1859.33 L1604.75 1852.28 Q1607.87 1853.99 1611.21 1854.82 Q1614.54 1855.65 1618.26 1855.65 Q1624.26 1855.65 1627.77 1852.49 Q1631.28 1849.33 1631.28 1843.92 Q1631.28 1838.5 1627.77 1835.34 Q1624.26 1832.18 1618.26 1832.18 Q1615.44 1832.18 1612.63 1832.8 Q1609.85 1833.43 1606.94 1834.75 L1606.94 1808.71 Z" fill="#000000" fill-rule="nonzero" fill-opacity="1" /><path clip-path="url(#clip470)" d="M1667.11 1813.33 Q1661.69 1813.33 1658.95 1818.67 Q1656.24 1823.99 1656.24 1834.68 Q1656.24 1845.34 1658.95 1850.69 Q1661.69 1856 1667.11 1856 Q1672.56 1856 1675.27 1850.69 Q1678.01 1845.34 1678.01 1834.68 Q1678.01 1823.99 1675.27 1818.67 Q1672.56 1813.33 1667.11 1813.33 M1667.11 1807.77 Q1675.83 1807.77 1680.41 1814.68 Q1685.03 1821.55 1685.03 1834.68 Q1685.03 1847.77 1680.41 1854.68 Q1675.83 1861.55 1667.11 1861.55 Q1658.4 1861.55 1653.78 1854.68 Q1649.19 1847.77 1649.19 1834.68 Q1649.19 1821.55 1653.78 1814.68 Q1658.4 1807.77 1667.11 1807.77 Z" fill="#000000" fill-rule="nonzero" fill-opacity="1" /><path clip-path="url(#clip470)" d="M2275.13 1808.71 L2308.47 1808.71 L2308.47 1811.69 L2289.65 1860.55 L2282.32 1860.55 L2300.03 1814.61 L2275.13 1814.61 L2275.13 1808.71 Z" fill="#000000" fill-rule="nonzero" fill-opacity="1" /><path clip-path="url(#clip470)" d="M2322.22 1808.71 L2349.75 1808.71 L2349.75 1814.61 L2328.64 1814.61 L2328.64 1827.32 Q2330.17 1826.8 2331.7 1826.55 Q2333.22 1826.28 2334.75 1826.28 Q2343.43 1826.28 2348.5 1831.03 Q2353.57 1835.79 2353.57 1843.92 Q2353.57 1852.28 2348.36 1856.94 Q2343.16 1861.55 2333.68 1861.55 Q2330.41 1861.55 2327.01 1861 Q2323.64 1860.44 2320.03 1859.33 L2320.03 1852.28 Q2323.16 1853.99 2326.49 1854.82 Q2329.82 1855.65 2333.54 1855.65 Q2339.54 1855.65 2343.05 1852.49 Q2346.56 1849.33 2346.56 1843.92 Q2346.56 1838.5 2343.05 1835.34 Q2339.54 1832.18 2333.54 1832.18 Q2330.72 1832.18 2327.91 1832.8 Q2325.13 1833.43 2322.22 1834.75 L2322.22 1808.71 Z" fill="#000000" fill-rule="nonzero" fill-opacity="1" /><path clip-path="url(#clip470)" d="M2923.23 1854.64 L2934.69 1854.64 L2934.69 1815.1 L2922.22 1817.6 L2922.22 1811.21 L2934.62 1808.71 L2941.63 1808.71 L2941.63 1854.64 L2953.09 1854.64 L2953.09 1860.55 L2923.23 1860.55 L2923.23 1854.64 Z" fill="#000000" fill-rule="nonzero" fill-opacity="1" /><path clip-path="url(#clip470)" d="M2982.26 1813.33 Q2976.84 1813.33 2974.1 1818.67 Q2971.39 1823.99 2971.39 1834.68 Q2971.39 1845.34 2974.1 1850.69 Q2976.84 1856 2982.26 1856 Q2987.71 1856 2990.42 1850.69 Q2993.16 1845.34 2993.16 1834.68 Q2993.16 1823.99 2990.42 1818.67 Q2987.71 1813.33 2982.26 1813.33 M2982.26 1807.77 Q2990.97 1807.77 2995.55 1814.68 Q3000.17 1821.55 3000.17 1834.68 Q3000.17 1847.77 2995.55 1854.68 Q2990.97 1861.55 2982.26 1861.55 Q2973.54 1861.55 2968.92 1854.68 Q2964.34 1847.77 2964.34 1834.68 Q2964.34 1821.55 2968.92 1814.68 Q2973.54 1807.77 2982.26 1807.77 Z" fill="#000000" fill-rule="nonzero" fill-opacity="1" /><path clip-path="url(#clip470)" d="M3027.5 1813.33 Q3022.08 1813.33 3019.34 1818.67 Q3016.63 1823.99 3016.63 1834.68 Q3016.63 1845.34 3019.34 1850.69 Q3022.08 1856 3027.5 1856 Q3032.95 1856 3035.66 1850.69 Q3038.4 1845.34 3038.4 1834.68 Q3038.4 1823.99 3035.66 1818.67 Q3032.95 1813.33 3027.5 1813.33 M3027.5 1807.77 Q3036.21 1807.77 3040.8 1814.68 Q3045.41 1821.55 3045.41 1834.68 Q3045.41 1847.77 3040.8 1854.68 Q3036.21 1861.55 3027.5 1861.55 Q3018.78 1861.55 3014.17 1854.68 Q3009.58 1847.77 3009.58 1834.68 Q3009.58 1821.55 3014.17 1814.68 Q3018.78 1807.77 3027.5 1807.77 Z" fill="#000000" fill-rule="nonzero" fill-opacity="1" /><path clip-path="url(#clip470)" d="M1597.44 1912.76 L1597.44 1922.88 L1609.5 1922.88 L1609.5 1927.44 L1597.44 1927.44 L1597.44 1946.79 Q1597.44 1951.15 1598.62 1952.39 Q1599.82 1953.63 1603.49 1953.63 L1609.5 1953.63 L1609.5 1958.53 L1603.49 1958.53 Q1596.71 1958.53 1594.13 1956.02 Q1591.55 1953.47 1591.55 1946.79 L1591.55 1927.44 L1587.25 1927.44 L1587.25 1922.88 L1591.55 1922.88 L1591.55 1912.76 L1597.44 1912.76 Z" fill="#000000" fill-rule="nonzero" fill-opacity="1" /><path clip-path="url(#clip470)" d="M1617.2 1922.88 L1623.06 1922.88 L1623.06 1958.53 L1617.2 1958.53 L1617.2 1922.88 M1617.2 1909.01 L1623.06 1909.01 L1623.06 1916.42 L1617.2 1916.42 L1617.2 1909.01 Z" fill="#000000" fill-rule="nonzero" fill-opacity="1" /><path clip-path="url(#clip470)" d="M1663.07 1929.73 Q1665.26 1925.78 1668.32 1923.9 Q1671.38 1922.02 1675.51 1922.02 Q1681.08 1922.02 1684.11 1925.94 Q1687.13 1929.82 1687.13 1937.02 L1687.13 1958.53 L1681.24 1958.53 L1681.24 1937.21 Q1681.24 1932.08 1679.43 1929.6 Q1677.61 1927.12 1673.89 1927.12 Q1669.34 1927.12 1666.7 1930.14 Q1664.05 1933.16 1664.05 1938.38 L1664.05 1958.53 L1658.17 1958.53 L1658.17 1937.21 Q1658.17 1932.05 1656.35 1929.6 Q1654.54 1927.12 1650.75 1927.12 Q1646.26 1927.12 1643.62 1930.17 Q1640.98 1933.2 1640.98 1938.38 L1640.98 1958.53 L1635.09 1958.53 L1635.09 1922.88 L1640.98 1922.88 L1640.98 1928.42 Q1642.98 1925.14 1645.79 1923.58 Q1648.59 1922.02 1652.44 1922.02 Q1656.32 1922.02 1659.03 1924 Q1661.76 1925.97 1663.07 1929.73 Z" fill="#000000" fill-rule="nonzero" fill-opacity="1" /><path clip-path="url(#clip470)" d="M1729.3 1939.24 L1729.3 1942.11 L1702.38 1942.11 Q1702.76 1948.16 1706 1951.34 Q1709.28 1954.49 1715.11 1954.49 Q1718.48 1954.49 1721.63 1953.66 Q1724.82 1952.83 1727.93 1951.18 L1727.93 1956.72 Q1724.78 1958.05 1721.47 1958.75 Q1718.16 1959.45 1714.76 1959.45 Q1706.23 1959.45 1701.23 1954.49 Q1696.27 1949.52 1696.27 1941.06 Q1696.27 1932.31 1700.98 1927.18 Q1705.72 1922.02 1713.74 1922.02 Q1720.93 1922.02 1725.1 1926.67 Q1729.3 1931.29 1729.3 1939.24 M1723.45 1937.52 Q1723.38 1932.72 1720.74 1929.85 Q1718.13 1926.99 1713.8 1926.99 Q1708.9 1926.99 1705.94 1929.76 Q1703.01 1932.53 1702.57 1937.56 L1723.45 1937.52 Z" fill="#000000" fill-rule="nonzero" fill-opacity="1" /><polyline clip-path="url(#clip470)" style="stroke:#000000; stroke-linecap:round; stroke-linejoin:round; stroke-width:4; stroke-opacity:1; fill:none" points="253.205,1763.75 253.205,262.064 "/>
<polyline clip-path="url(#clip470)" style="stroke:#000000; stroke-linecap:round; stroke-linejoin:round; stroke-width:4; stroke-opacity:1; fill:none" points="253.205,1551.07 267.56,1551.07 "/>
<polyline clip-path="url(#clip470)" style="stroke:#000000; stroke-linecap:round; stroke-linejoin:round; stroke-width:4; stroke-opacity:1; fill:none" points="253.205,1217.4 267.56,1217.4 "/>
<polyline clip-path="url(#clip470)" style="stroke:#000000; stroke-linecap:round; stroke-linejoin:round; stroke-width:4; stroke-opacity:1; fill:none" points="253.205,883.735 267.56,883.735 "/>
<polyline clip-path="url(#clip470)" style="stroke:#000000; stroke-linecap:round; stroke-linejoin:round; stroke-width:4; stroke-opacity:1; fill:none" points="253.205,550.065 267.56,550.065 "/>
<path clip-path="url(#clip470)" d="M175.289 1529.77 Q169.872 1529.77 167.129 1535.12 Q164.421 1540.43 164.421 1551.13 Q164.421 1561.79 167.129 1567.13 Q169.872 1572.45 175.289 1572.45 Q180.74 1572.45 183.449 1567.13 Q186.192 1561.79 186.192 1551.13 Q186.192 1540.43 183.449 1535.12 Q180.74 1529.77 175.289 1529.77 M175.289 1524.22 Q184.004 1524.22 188.587 1531.13 Q193.205 1538 193.205 1551.13 Q193.205 1564.22 188.587 1571.13 Q184.004 1578 175.289 1578 Q166.574 1578 161.956 1571.13 Q157.372 1564.22 157.372 1551.13 Q157.372 1538 161.956 1531.13 Q166.574 1524.22 175.289 1524.22 Z" fill="#000000" fill-rule="nonzero" fill-opacity="1" /><path clip-path="url(#clip470)" d="M163.344 1237.42 L174.803 1237.42 L174.803 1197.87 L162.338 1200.37 L162.338 1193.98 L174.733 1191.48 L181.747 1191.48 L181.747 1237.42 L193.205 1237.42 L193.205 1243.32 L163.344 1243.32 L163.344 1237.42 Z" fill="#000000" fill-rule="nonzero" fill-opacity="1" /><path clip-path="url(#clip470)" d="M168.726 903.752 L193.205 903.752 L193.205 909.655 L160.289 909.655 L160.289 903.752 Q164.282 899.62 171.157 892.676 Q178.067 885.697 179.837 883.683 Q183.205 879.898 184.525 877.294 Q185.879 874.655 185.879 872.12 Q185.879 867.988 182.962 865.384 Q180.08 862.78 175.428 862.78 Q172.129 862.78 168.449 863.926 Q164.803 865.072 160.636 867.398 L160.636 860.315 Q164.872 858.613 168.553 857.745 Q172.233 856.877 175.289 856.877 Q183.344 856.877 188.136 860.905 Q192.928 864.933 192.928 871.669 Q192.928 874.863 191.712 877.745 Q190.532 880.593 187.372 884.481 Q186.504 885.488 181.851 890.315 Q177.199 895.106 168.726 903.752 Z" fill="#000000" fill-rule="nonzero" fill-opacity="1" /><path clip-path="url(#clip470)" d="M182.511 548.034 Q187.546 549.11 190.358 552.513 Q193.205 555.916 193.205 560.915 Q193.205 568.589 187.928 572.79 Q182.65 576.992 172.928 576.992 Q169.664 576.992 166.192 576.332 Q162.754 575.707 159.074 574.422 L159.074 567.652 Q161.99 569.353 165.463 570.221 Q168.935 571.089 172.719 571.089 Q179.317 571.089 182.754 568.485 Q186.226 565.881 186.226 560.915 Q186.226 556.332 182.997 553.763 Q179.803 551.159 174.074 551.159 L168.032 551.159 L168.032 545.395 L174.351 545.395 Q179.525 545.395 182.268 543.346 Q185.011 541.263 185.011 537.374 Q185.011 533.381 182.164 531.263 Q179.351 529.11 174.074 529.11 Q171.192 529.11 167.893 529.735 Q164.594 530.36 160.636 531.68 L160.636 525.43 Q164.629 524.318 168.101 523.763 Q171.608 523.207 174.699 523.207 Q182.685 523.207 187.337 526.853 Q191.99 530.464 191.99 536.645 Q191.99 540.95 189.525 543.936 Q187.06 546.888 182.511 548.034 Z" fill="#000000" fill-rule="nonzero" fill-opacity="1" /><path clip-path="url(#clip470)" d="M47.4683 996.291 L64.8149 1009.18 L83.1163 995.623 L83.1163 1002.53 L69.1117 1012.91 L83.1163 1023.28 L83.1163 1030.19 L64.4648 1016.34 L47.4683 1029.01 L47.4683 1022.1 L60.1679 1012.65 L47.4683 1003.2 L47.4683 996.291 Z" fill="#000000" fill-rule="nonzero" fill-opacity="1" /><path clip-path="url(#clip470)" d="M802.889 44.3209 L802.889 52.3012 Q798.23 50.0732 794.099 48.9795 Q789.967 47.8857 786.118 47.8857 Q779.434 47.8857 775.788 50.4783 Q772.183 53.0709 772.183 57.851 Q772.183 61.8614 774.573 63.9273 Q777.004 65.9528 783.728 67.2086 L788.67 68.2213 Q797.825 69.9632 802.16 74.3787 Q806.535 78.7536 806.535 86.1263 Q806.535 94.9167 800.62 99.4537 Q794.747 103.991 783.364 103.991 Q779.07 103.991 774.209 103.019 Q769.388 102.046 764.203 100.142 L764.203 91.7165 Q769.185 94.5116 773.966 95.9295 Q778.746 97.3473 783.364 97.3473 Q790.372 97.3473 794.18 94.5927 Q797.987 91.838 797.987 86.7339 Q797.987 82.2779 795.233 79.7664 Q792.519 77.2548 786.28 75.999 L781.298 75.0268 Q772.143 73.2039 768.051 69.315 Q763.96 65.4262 763.96 58.4991 Q763.96 50.4783 769.591 45.8603 Q775.262 41.2423 785.187 41.2423 Q789.44 41.2423 793.855 42.0119 Q798.271 42.7816 802.889 44.3209 Z" fill="#000000" fill-rule="nonzero" fill-opacity="1" /><path clip-path="url(#clip470)" d="M839.59 80.0094 Q830.557 80.0094 827.073 82.0754 Q823.589 84.1413 823.589 89.1239 Q823.589 93.0938 826.182 95.4434 Q828.815 97.7524 833.311 97.7524 Q839.509 97.7524 843.236 93.3774 Q847.003 88.9619 847.003 81.6703 L847.003 80.0094 L839.59 80.0094 M854.457 76.9307 L854.457 102.816 L847.003 102.816 L847.003 95.9295 Q844.451 100.061 840.643 102.046 Q836.836 103.991 831.326 103.991 Q824.359 103.991 820.227 100.102 Q816.135 96.1725 816.135 89.6101 Q816.135 81.9538 821.24 78.065 Q826.384 74.1761 836.552 74.1761 L847.003 74.1761 L847.003 73.4469 Q847.003 68.3023 843.601 65.5072 Q840.238 62.6715 834.121 62.6715 Q830.233 62.6715 826.546 63.6032 Q822.86 64.535 819.457 66.3984 L819.457 59.5118 Q823.549 57.932 827.397 57.1623 Q831.245 56.3521 834.891 56.3521 Q844.735 56.3521 849.596 61.4563 Q854.457 66.5604 854.457 76.9307 Z" fill="#000000" fill-rule="nonzero" fill-opacity="1" /><path clip-path="url(#clip470)" d="M905.134 66.1553 Q907.929 61.1322 911.818 58.7422 Q915.707 56.3521 920.973 56.3521 Q928.062 56.3521 931.91 61.3347 Q935.759 66.2768 935.759 75.4319 L935.759 102.816 L928.264 102.816 L928.264 75.6749 Q928.264 69.153 925.955 65.9933 Q923.646 62.8336 918.907 62.8336 Q913.114 62.8336 909.752 66.6819 Q906.39 70.5303 906.39 77.1738 L906.39 102.816 L898.895 102.816 L898.895 75.6749 Q898.895 69.1125 896.586 65.9933 Q894.277 62.8336 889.457 62.8336 Q883.745 62.8336 880.383 66.7224 Q877.021 70.5708 877.021 77.1738 L877.021 102.816 L869.526 102.816 L869.526 57.4459 L877.021 57.4459 L877.021 64.4944 Q879.573 60.322 883.137 58.3371 Q886.702 56.3521 891.604 56.3521 Q896.546 56.3521 899.989 58.8637 Q903.473 61.3752 905.134 66.1553 Z" fill="#000000" fill-rule="nonzero" fill-opacity="1" /><path clip-path="url(#clip470)" d="M957.836 96.0105 L957.836 120.073 L950.342 120.073 L950.342 57.4459 L957.836 57.4459 L957.836 64.3324 Q960.186 60.2815 963.75 58.3371 Q967.356 56.3521 972.338 56.3521 Q980.602 56.3521 985.747 62.9146 Q990.932 69.4771 990.932 80.1714 Q990.932 90.8658 985.747 97.4283 Q980.602 103.991 972.338 103.991 Q967.356 103.991 963.75 102.046 Q960.186 100.061 957.836 96.0105 M983.195 80.1714 Q983.195 71.9481 979.792 67.2896 Q976.43 62.5905 970.515 62.5905 Q964.601 62.5905 961.198 67.2896 Q957.836 71.9481 957.836 80.1714 Q957.836 88.3948 961.198 93.0938 Q964.601 97.7524 970.515 97.7524 Q976.43 97.7524 979.792 93.0938 Q983.195 88.3948 983.195 80.1714 Z" fill="#000000" fill-rule="nonzero" fill-opacity="1" /><path clip-path="url(#clip470)" d="M1003.29 39.7839 L1010.74 39.7839 L1010.74 102.816 L1003.29 102.816 L1003.29 39.7839 Z" fill="#000000" fill-rule="nonzero" fill-opacity="1" /><path clip-path="url(#clip470)" d="M1065.14 78.2675 L1065.14 81.9133 L1030.87 81.9133 Q1031.36 89.6101 1035.49 93.661 Q1039.66 97.6714 1047.08 97.6714 Q1051.37 97.6714 1055.38 96.6181 Q1059.43 95.5649 1063.4 93.4584 L1063.4 100.507 Q1059.39 102.208 1055.18 103.1 Q1050.97 103.991 1046.63 103.991 Q1035.78 103.991 1029.42 97.6714 Q1023.1 91.3519 1023.1 80.5765 Q1023.1 69.4365 1029.09 62.9146 Q1035.13 56.3521 1045.34 56.3521 Q1054.49 56.3521 1059.8 62.2664 Q1065.14 68.1403 1065.14 78.2675 M1057.69 76.08 Q1057.61 69.9632 1054.25 66.3174 Q1050.93 62.6715 1045.42 62.6715 Q1039.18 62.6715 1035.41 66.1958 Q1031.68 69.7201 1031.12 76.1205 L1057.69 76.08 Z" fill="#000000" fill-rule="nonzero" fill-opacity="1" /><path clip-path="url(#clip470)" d="M1106.22 95.9295 L1119.59 95.9295 L1119.59 49.7897 L1105.05 52.7063 L1105.05 45.2527 L1119.51 42.336 L1127.69 42.336 L1127.69 95.9295 L1141.06 95.9295 L1141.06 102.816 L1106.22 102.816 L1106.22 95.9295 Z" fill="#000000" fill-rule="nonzero" fill-opacity="1" /><path clip-path="url(#clip470)" d="M1157.83 101.56 L1157.83 94.1066 Q1160.91 95.5649 1164.07 96.3346 Q1167.23 97.1042 1170.27 97.1042 Q1178.37 97.1042 1182.62 91.676 Q1186.91 86.2073 1187.52 75.1078 Q1185.17 78.5916 1181.57 80.455 Q1177.96 82.3184 1173.59 82.3184 Q1164.51 82.3184 1159.21 76.8497 Q1153.94 71.3405 1153.94 61.8208 Q1153.94 52.5038 1159.45 46.873 Q1164.96 41.2423 1174.11 41.2423 Q1184.61 41.2423 1190.11 49.3036 Q1195.66 57.3243 1195.66 72.6368 Q1195.66 86.9365 1188.86 95.4839 Q1182.09 103.991 1170.63 103.991 Q1167.55 103.991 1164.39 103.383 Q1161.23 102.775 1157.83 101.56 M1174.11 75.918 Q1179.62 75.918 1182.82 72.1507 Q1186.06 68.3833 1186.06 61.8208 Q1186.06 55.2989 1182.82 51.5316 Q1179.62 47.7237 1174.11 47.7237 Q1168.6 47.7237 1165.36 51.5316 Q1162.16 55.2989 1162.16 61.8208 Q1162.16 68.3833 1165.36 72.1507 Q1168.6 75.918 1174.11 75.918 Z" fill="#000000" fill-rule="nonzero" fill-opacity="1" /><path clip-path="url(#clip470)" d="M1217.42 95.9295 L1245.98 95.9295 L1245.98 102.816 L1207.57 102.816 L1207.57 95.9295 Q1212.23 91.1089 1220.25 83.0071 Q1228.31 74.8648 1230.38 72.5152 Q1234.31 68.0998 1235.85 65.0616 Q1237.43 61.9829 1237.43 59.0257 Q1237.43 54.2051 1234.03 51.167 Q1230.66 48.1288 1225.24 48.1288 Q1221.39 48.1288 1217.09 49.4656 Q1212.84 50.8024 1207.98 53.5165 L1207.98 45.2527 Q1212.92 43.2677 1217.22 42.255 Q1221.51 41.2423 1225.07 41.2423 Q1234.47 41.2423 1240.06 45.9413 Q1245.65 50.6404 1245.65 58.4991 Q1245.65 62.2259 1244.23 65.5882 Q1242.86 68.9099 1239.17 73.4469 Q1238.16 74.6217 1232.73 80.2525 Q1227.3 85.8427 1217.42 95.9295 Z" fill="#000000" fill-rule="nonzero" fill-opacity="1" /><path clip-path="url(#clip470)" d="M1264 92.5267 L1272.55 92.5267 L1272.55 99.4943 L1265.91 112.457 L1260.68 112.457 L1264 99.4943 L1264 92.5267 Z" fill="#000000" fill-rule="nonzero" fill-opacity="1" /><path clip-path="url(#clip470)" d="M1360.46 46.9945 L1360.46 55.623 Q1356.32 51.7746 1351.62 49.8707 Q1346.97 47.9668 1341.7 47.9668 Q1331.33 47.9668 1325.82 54.3267 Q1320.31 60.6461 1320.31 72.6368 Q1320.31 84.5869 1325.82 90.9469 Q1331.33 97.2663 1341.7 97.2663 Q1346.97 97.2663 1351.62 95.3623 Q1356.32 93.4584 1360.46 89.6101 L1360.46 98.1575 Q1356.16 101.074 1351.34 102.532 Q1346.56 103.991 1341.21 103.991 Q1327.48 103.991 1319.58 95.6054 Q1311.68 87.1795 1311.68 72.6368 Q1311.68 58.0535 1319.58 49.6681 Q1327.48 41.2423 1341.21 41.2423 Q1346.64 41.2423 1351.42 42.7006 Q1356.24 44.1184 1360.46 46.9945 Z" fill="#000000" fill-rule="nonzero" fill-opacity="1" /><path clip-path="url(#clip470)" d="M1372.77 39.7839 L1380.22 39.7839 L1380.22 102.816 L1372.77 102.816 L1372.77 39.7839 Z" fill="#000000" fill-rule="nonzero" fill-opacity="1" /><path clip-path="url(#clip470)" d="M1416.44 80.0094 Q1407.41 80.0094 1403.92 82.0754 Q1400.44 84.1413 1400.44 89.1239 Q1400.44 93.0938 1403.03 95.4434 Q1405.66 97.7524 1410.16 97.7524 Q1416.36 97.7524 1420.08 93.3774 Q1423.85 88.9619 1423.85 81.6703 L1423.85 80.0094 L1416.44 80.0094 M1431.31 76.9307 L1431.31 102.816 L1423.85 102.816 L1423.85 95.9295 Q1421.3 100.061 1417.49 102.046 Q1413.68 103.991 1408.18 103.991 Q1401.21 103.991 1397.08 100.102 Q1392.98 96.1725 1392.98 89.6101 Q1392.98 81.9538 1398.09 78.065 Q1403.23 74.1761 1413.4 74.1761 L1423.85 74.1761 L1423.85 73.4469 Q1423.85 68.3023 1420.45 65.5072 Q1417.09 62.6715 1410.97 62.6715 Q1407.08 62.6715 1403.4 63.6032 Q1399.71 64.535 1396.31 66.3984 L1396.31 59.5118 Q1400.4 57.932 1404.25 57.1623 Q1408.09 56.3521 1411.74 56.3521 Q1421.58 56.3521 1426.44 61.4563 Q1431.31 66.5604 1431.31 76.9307 Z" fill="#000000" fill-rule="nonzero" fill-opacity="1" /><path clip-path="url(#clip470)" d="M1475.58 58.7827 L1475.58 65.8312 Q1472.42 64.2109 1469.02 63.4007 Q1465.62 62.5905 1461.97 62.5905 Q1456.42 62.5905 1453.63 64.2919 Q1450.87 65.9933 1450.87 69.396 Q1450.87 71.9886 1452.86 73.4875 Q1454.84 74.9458 1460.84 76.2826 L1463.39 76.8497 Q1471.33 78.5511 1474.65 81.6703 Q1478.01 84.749 1478.01 90.2987 Q1478.01 96.6181 1472.99 100.304 Q1468.01 103.991 1459.26 103.991 Q1455.61 103.991 1451.64 103.262 Q1447.71 102.573 1443.34 101.155 L1443.34 93.4584 Q1447.47 95.6054 1451.48 96.6991 Q1455.49 97.7524 1459.42 97.7524 Q1464.69 97.7524 1467.52 95.97 Q1470.36 94.1471 1470.36 90.8658 Q1470.36 87.8277 1468.29 86.2073 Q1466.27 84.5869 1459.34 83.0881 L1456.75 82.4805 Q1449.82 81.0221 1446.74 78.0245 Q1443.66 74.9863 1443.66 69.7201 Q1443.66 63.3197 1448.2 59.8359 Q1452.74 56.3521 1461.08 56.3521 Q1465.21 56.3521 1468.86 56.9598 Q1472.5 57.5674 1475.58 58.7827 Z" fill="#000000" fill-rule="nonzero" fill-opacity="1" /><path clip-path="url(#clip470)" d="M1518.81 58.7827 L1518.81 65.8312 Q1515.65 64.2109 1512.24 63.4007 Q1508.84 62.5905 1505.19 62.5905 Q1499.64 62.5905 1496.85 64.2919 Q1494.09 65.9933 1494.09 69.396 Q1494.09 71.9886 1496.08 73.4875 Q1498.06 74.9458 1504.06 76.2826 L1506.61 76.8497 Q1514.55 78.5511 1517.87 81.6703 Q1521.24 84.749 1521.24 90.2987 Q1521.24 96.6181 1516.21 100.304 Q1511.23 103.991 1502.48 103.991 Q1498.83 103.991 1494.86 103.262 Q1490.94 102.573 1486.56 101.155 L1486.56 93.4584 Q1490.69 95.6054 1494.7 96.6991 Q1498.71 97.7524 1502.64 97.7524 Q1507.91 97.7524 1510.74 95.97 Q1513.58 94.1471 1513.58 90.8658 Q1513.58 87.8277 1511.51 86.2073 Q1509.49 84.5869 1502.56 83.0881 L1499.97 82.4805 Q1493.04 81.0221 1489.96 78.0245 Q1486.88 74.9863 1486.88 69.7201 Q1486.88 63.3197 1491.42 59.8359 Q1495.96 56.3521 1504.3 56.3521 Q1508.43 56.3521 1512.08 56.9598 Q1515.73 57.5674 1518.81 58.7827 Z" fill="#000000" fill-rule="nonzero" fill-opacity="1" /><path clip-path="url(#clip470)" d="M1578.03 47.7237 Q1571.71 47.7237 1568.51 53.9621 Q1565.35 60.16 1565.35 72.6368 Q1565.35 85.073 1568.51 91.3114 Q1571.71 97.5093 1578.03 97.5093 Q1584.39 97.5093 1587.55 91.3114 Q1590.75 85.073 1590.75 72.6368 Q1590.75 60.16 1587.55 53.9621 Q1584.39 47.7237 1578.03 47.7237 M1578.03 41.2423 Q1588.2 41.2423 1593.54 49.3036 Q1598.93 57.3243 1598.93 72.6368 Q1598.93 87.9087 1593.54 95.97 Q1588.2 103.991 1578.03 103.991 Q1567.86 103.991 1562.47 95.97 Q1557.13 87.9087 1557.13 72.6368 Q1557.13 57.3243 1562.47 49.3036 Q1567.86 41.2423 1578.03 41.2423 Z" fill="#000000" fill-rule="nonzero" fill-opacity="1" /><path clip-path="url(#clip470)" d="M1614.16 92.5267 L1622.71 92.5267 L1622.71 99.4943 L1616.07 112.457 L1610.84 112.457 L1614.16 99.4943 L1614.16 92.5267 Z" fill="#000000" fill-rule="nonzero" fill-opacity="1" /><path clip-path="url(#clip470)" d="M1688.54 49.4656 L1667.88 81.7513 L1688.54 81.7513 L1688.54 49.4656 M1686.39 42.336 L1696.68 42.336 L1696.68 81.7513 L1705.31 81.7513 L1705.31 88.5568 L1696.68 88.5568 L1696.68 102.816 L1688.54 102.816 L1688.54 88.5568 L1661.24 88.5568 L1661.24 80.6576 L1686.39 42.336 Z" fill="#000000" fill-rule="nonzero" fill-opacity="1" /><path clip-path="url(#clip470)" d="M1737.35 69.315 Q1731.84 69.315 1728.6 73.0824 Q1725.4 76.8497 1725.4 83.4122 Q1725.4 89.9341 1728.6 93.742 Q1731.84 97.5093 1737.35 97.5093 Q1742.86 97.5093 1746.06 93.742 Q1749.3 89.9341 1749.3 83.4122 Q1749.3 76.8497 1746.06 73.0824 Q1742.86 69.315 1737.35 69.315 M1753.6 43.6728 L1753.6 51.1265 Q1750.52 49.6681 1747.36 48.8985 Q1744.24 48.1288 1741.16 48.1288 Q1733.06 48.1288 1728.76 53.5975 Q1724.51 59.0662 1723.9 70.1252 Q1726.29 66.6009 1729.9 64.7375 Q1733.5 62.8336 1737.84 62.8336 Q1746.95 62.8336 1752.22 68.3833 Q1757.53 73.8925 1757.53 83.4122 Q1757.53 92.7292 1752.02 98.36 Q1746.51 103.991 1737.35 103.991 Q1726.86 103.991 1721.31 95.97 Q1715.76 87.9087 1715.76 72.6368 Q1715.76 58.2966 1722.57 49.7897 Q1729.37 41.2423 1740.84 41.2423 Q1743.91 41.2423 1747.03 41.8499 Q1750.19 42.4575 1753.6 43.6728 Z" fill="#000000" fill-rule="nonzero" fill-opacity="1" /><path clip-path="url(#clip470)" d="M1766.8 76.7687 L1788.64 76.7687 L1788.64 83.4122 L1766.8 83.4122 L1766.8 76.7687 Z" fill="#000000" fill-rule="nonzero" fill-opacity="1" /><path clip-path="url(#clip470)" d="M1829.43 58.7827 L1829.43 65.8312 Q1826.27 64.2109 1822.87 63.4007 Q1819.46 62.5905 1815.82 62.5905 Q1810.27 62.5905 1807.47 64.2919 Q1804.72 65.9933 1804.72 69.396 Q1804.72 71.9886 1806.7 73.4875 Q1808.69 74.9458 1814.68 76.2826 L1817.24 76.8497 Q1825.18 78.5511 1828.5 81.6703 Q1831.86 84.749 1831.86 90.2987 Q1831.86 96.6181 1826.84 100.304 Q1821.85 103.991 1813.1 103.991 Q1809.46 103.991 1805.49 103.262 Q1801.56 102.573 1797.18 101.155 L1797.18 93.4584 Q1801.32 95.6054 1805.33 96.6991 Q1809.34 97.7524 1813.27 97.7524 Q1818.53 97.7524 1821.37 95.97 Q1824.2 94.1471 1824.2 90.8658 Q1824.2 87.8277 1822.14 86.2073 Q1820.11 84.5869 1813.18 83.0881 L1810.59 82.4805 Q1803.66 81.0221 1800.59 78.0245 Q1797.51 74.9863 1797.51 69.7201 Q1797.51 63.3197 1802.04 59.8359 Q1806.58 56.3521 1814.93 56.3521 Q1819.06 56.3521 1822.7 56.9598 Q1826.35 57.5674 1829.43 58.7827 Z" fill="#000000" fill-rule="nonzero" fill-opacity="1" /><path clip-path="url(#clip470)" d="M1843.73 57.4459 L1851.18 57.4459 L1851.18 102.816 L1843.73 102.816 L1843.73 57.4459 M1843.73 39.7839 L1851.18 39.7839 L1851.18 49.2225 L1843.73 49.2225 L1843.73 39.7839 Z" fill="#000000" fill-rule="nonzero" fill-opacity="1" /><path clip-path="url(#clip470)" d="M1874.15 44.564 L1874.15 57.4459 L1889.5 57.4459 L1889.5 63.2387 L1874.15 63.2387 L1874.15 87.8682 Q1874.15 93.4179 1875.65 94.9978 Q1877.19 96.5776 1881.85 96.5776 L1889.5 96.5776 L1889.5 102.816 L1881.85 102.816 Q1873.22 102.816 1869.94 99.6158 Q1866.66 96.3751 1866.66 87.8682 L1866.66 63.2387 L1861.19 63.2387 L1861.19 57.4459 L1866.66 57.4459 L1866.66 44.564 L1874.15 44.564 Z" fill="#000000" fill-rule="nonzero" fill-opacity="1" /><path clip-path="url(#clip470)" d="M1938.11 78.2675 L1938.11 81.9133 L1903.84 81.9133 Q1904.33 89.6101 1908.46 93.661 Q1912.63 97.6714 1920.05 97.6714 Q1924.34 97.6714 1928.35 96.6181 Q1932.4 95.5649 1936.37 93.4584 L1936.37 100.507 Q1932.36 102.208 1928.15 103.1 Q1923.94 103.991 1919.6 103.991 Q1908.75 103.991 1902.39 97.6714 Q1896.07 91.3519 1896.07 80.5765 Q1896.07 69.4365 1902.06 62.9146 Q1908.1 56.3521 1918.31 56.3521 Q1927.46 56.3521 1932.77 62.2664 Q1938.11 68.1403 1938.11 78.2675 M1930.66 76.08 Q1930.58 69.9632 1927.22 66.3174 Q1923.9 62.6715 1918.39 62.6715 Q1912.15 62.6715 1908.38 66.1958 Q1904.65 69.7201 1904.09 76.1205 L1930.66 76.08 Z" fill="#000000" fill-rule="nonzero" fill-opacity="1" /><path clip-path="url(#clip470)" d="M1977.04 42.336 L1985.23 42.336 L1985.23 102.816 L1977.04 102.816 L1977.04 42.336 Z" fill="#000000" fill-rule="nonzero" fill-opacity="1" /><path clip-path="url(#clip470)" d="M2038.9 75.4319 L2038.9 102.816 L2031.45 102.816 L2031.45 75.6749 Q2031.45 69.234 2028.94 66.0338 Q2026.42 62.8336 2021.4 62.8336 Q2015.37 62.8336 2011.88 66.6819 Q2008.4 70.5303 2008.4 77.1738 L2008.4 102.816 L2000.9 102.816 L2000.9 57.4459 L2008.4 57.4459 L2008.4 64.4944 Q2011.07 60.403 2014.68 58.3776 Q2018.32 56.3521 2023.06 56.3521 Q2030.88 56.3521 2034.89 61.2132 Q2038.9 66.0338 2038.9 75.4319 Z" fill="#000000" fill-rule="nonzero" fill-opacity="1" /><path clip-path="url(#clip470)" d="M2061.14 44.564 L2061.14 57.4459 L2076.49 57.4459 L2076.49 63.2387 L2061.14 63.2387 L2061.14 87.8682 Q2061.14 93.4179 2062.64 94.9978 Q2064.18 96.5776 2068.84 96.5776 L2076.49 96.5776 L2076.49 102.816 L2068.84 102.816 Q2060.21 102.816 2056.93 99.6158 Q2053.65 96.3751 2053.65 87.8682 L2053.65 63.2387 L2048.18 63.2387 L2048.18 57.4459 L2053.65 57.4459 L2053.65 44.564 L2061.14 44.564 Z" fill="#000000" fill-rule="nonzero" fill-opacity="1" /><path clip-path="url(#clip470)" d="M2125.1 78.2675 L2125.1 81.9133 L2090.83 81.9133 Q2091.32 89.6101 2095.45 93.661 Q2099.62 97.6714 2107.04 97.6714 Q2111.33 97.6714 2115.34 96.6181 Q2119.39 95.5649 2123.36 93.4584 L2123.36 100.507 Q2119.35 102.208 2115.14 103.1 Q2110.93 103.991 2106.59 103.991 Q2095.74 103.991 2089.38 97.6714 Q2083.06 91.3519 2083.06 80.5765 Q2083.06 69.4365 2089.05 62.9146 Q2095.09 56.3521 2105.3 56.3521 Q2114.45 56.3521 2119.76 62.2664 Q2125.1 68.1403 2125.1 78.2675 M2117.65 76.08 Q2117.57 69.9632 2114.21 66.3174 Q2110.89 62.6715 2105.38 62.6715 Q2099.14 62.6715 2095.37 66.1958 Q2091.64 69.7201 2091.08 76.1205 L2117.65 76.08 Z" fill="#000000" fill-rule="nonzero" fill-opacity="1" /><path clip-path="url(#clip470)" d="M2163.63 64.4134 Q2162.37 63.6843 2160.87 63.3602 Q2159.42 62.9956 2157.63 62.9956 Q2151.31 62.9956 2147.91 67.1275 Q2144.55 71.2189 2144.55 78.9157 L2144.55 102.816 L2137.05 102.816 L2137.05 57.4459 L2144.55 57.4459 L2144.55 64.4944 Q2146.9 60.3625 2150.67 58.3776 Q2154.43 56.3521 2159.82 56.3521 Q2160.59 56.3521 2161.52 56.4737 Q2162.45 56.5547 2163.59 56.7572 L2163.63 64.4134 Z" fill="#000000" fill-rule="nonzero" fill-opacity="1" /><path clip-path="url(#clip470)" d="M2178.66 96.0105 L2178.66 120.073 L2171.16 120.073 L2171.16 57.4459 L2178.66 57.4459 L2178.66 64.3324 Q2181.01 60.2815 2184.57 58.3371 Q2188.18 56.3521 2193.16 56.3521 Q2201.42 56.3521 2206.57 62.9146 Q2211.75 69.4771 2211.75 80.1714 Q2211.75 90.8658 2206.57 97.4283 Q2201.42 103.991 2193.16 103.991 Q2188.18 103.991 2184.57 102.046 Q2181.01 100.061 2178.66 96.0105 M2204.02 80.1714 Q2204.02 71.9481 2200.61 67.2896 Q2197.25 62.5905 2191.34 62.5905 Q2185.42 62.5905 2182.02 67.2896 Q2178.66 71.9481 2178.66 80.1714 Q2178.66 88.3948 2182.02 93.0938 Q2185.42 97.7524 2191.34 97.7524 Q2197.25 97.7524 2200.61 93.0938 Q2204.02 88.3948 2204.02 80.1714 Z" fill="#000000" fill-rule="nonzero" fill-opacity="1" /><path clip-path="url(#clip470)" d="M2241.69 62.6715 Q2235.69 62.6715 2232.21 67.3706 Q2228.73 72.0291 2228.73 80.1714 Q2228.73 88.3138 2232.17 93.0128 Q2235.65 97.6714 2241.69 97.6714 Q2247.64 97.6714 2251.13 92.9723 Q2254.61 88.2733 2254.61 80.1714 Q2254.61 72.1101 2251.13 67.4111 Q2247.64 62.6715 2241.69 62.6715 M2241.69 56.3521 Q2251.41 56.3521 2256.96 62.6715 Q2262.51 68.9909 2262.51 80.1714 Q2262.51 91.3114 2256.96 97.6714 Q2251.41 103.991 2241.69 103.991 Q2231.93 103.991 2226.38 97.6714 Q2220.87 91.3114 2220.87 80.1714 Q2220.87 68.9909 2226.38 62.6715 Q2231.93 56.3521 2241.69 56.3521 Z" fill="#000000" fill-rule="nonzero" fill-opacity="1" /><path clip-path="url(#clip470)" d="M2274.87 39.7839 L2282.32 39.7839 L2282.32 102.816 L2274.87 102.816 L2274.87 39.7839 Z" fill="#000000" fill-rule="nonzero" fill-opacity="1" /><path clip-path="url(#clip470)" d="M2318.53 80.0094 Q2309.5 80.0094 2306.02 82.0754 Q2302.53 84.1413 2302.53 89.1239 Q2302.53 93.0938 2305.13 95.4434 Q2307.76 97.7524 2312.26 97.7524 Q2318.45 97.7524 2322.18 93.3774 Q2325.95 88.9619 2325.95 81.6703 L2325.95 80.0094 L2318.53 80.0094 M2333.4 76.9307 L2333.4 102.816 L2325.95 102.816 L2325.95 95.9295 Q2323.4 100.061 2319.59 102.046 Q2315.78 103.991 2310.27 103.991 Q2303.3 103.991 2299.17 100.102 Q2295.08 96.1725 2295.08 89.6101 Q2295.08 81.9538 2300.18 78.065 Q2305.33 74.1761 2315.5 74.1761 L2325.95 74.1761 L2325.95 73.4469 Q2325.95 68.3023 2322.55 65.5072 Q2319.18 62.6715 2313.07 62.6715 Q2309.18 62.6715 2305.49 63.6032 Q2301.8 64.535 2298.4 66.3984 L2298.4 59.5118 Q2302.49 57.932 2306.34 57.1623 Q2310.19 56.3521 2313.84 56.3521 Q2323.68 56.3521 2328.54 61.4563 Q2333.4 66.5604 2333.4 76.9307 Z" fill="#000000" fill-rule="nonzero" fill-opacity="1" /><path clip-path="url(#clip470)" d="M2356.13 44.564 L2356.13 57.4459 L2371.48 57.4459 L2371.48 63.2387 L2356.13 63.2387 L2356.13 87.8682 Q2356.13 93.4179 2357.63 94.9978 Q2359.17 96.5776 2363.82 96.5776 L2371.48 96.5776 L2371.48 102.816 L2363.82 102.816 Q2355.2 102.816 2351.91 99.6158 Q2348.63 96.3751 2348.63 87.8682 L2348.63 63.2387 L2343.16 63.2387 L2343.16 57.4459 L2348.63 57.4459 L2348.63 44.564 L2356.13 44.564 Z" fill="#000000" fill-rule="nonzero" fill-opacity="1" /><path clip-path="url(#clip470)" d="M2381.28 57.4459 L2388.74 57.4459 L2388.74 102.816 L2381.28 102.816 L2381.28 57.4459 M2381.28 39.7839 L2388.74 39.7839 L2388.74 49.2225 L2381.28 49.2225 L2381.28 39.7839 Z" fill="#000000" fill-rule="nonzero" fill-opacity="1" /><path clip-path="url(#clip470)" d="M2421.91 62.6715 Q2415.92 62.6715 2412.43 67.3706 Q2408.95 72.0291 2408.95 80.1714 Q2408.95 88.3138 2412.39 93.0128 Q2415.88 97.6714 2421.91 97.6714 Q2427.87 97.6714 2431.35 92.9723 Q2434.84 88.2733 2434.84 80.1714 Q2434.84 72.1101 2431.35 67.4111 Q2427.87 62.6715 2421.91 62.6715 M2421.91 56.3521 Q2431.64 56.3521 2437.19 62.6715 Q2442.74 68.9909 2442.74 80.1714 Q2442.74 91.3114 2437.19 97.6714 Q2431.64 103.991 2421.91 103.991 Q2412.15 103.991 2406.6 97.6714 Q2401.09 91.3114 2401.09 80.1714 Q2401.09 68.9909 2406.6 62.6715 Q2412.15 56.3521 2421.91 56.3521 Z" fill="#000000" fill-rule="nonzero" fill-opacity="1" /><path clip-path="url(#clip470)" d="M2492.8 75.4319 L2492.8 102.816 L2485.35 102.816 L2485.35 75.6749 Q2485.35 69.234 2482.84 66.0338 Q2480.33 62.8336 2475.3 62.8336 Q2469.27 62.8336 2465.79 66.6819 Q2462.3 70.5303 2462.3 77.1738 L2462.3 102.816 L2454.81 102.816 L2454.81 57.4459 L2462.3 57.4459 L2462.3 64.4944 Q2464.97 60.403 2468.58 58.3776 Q2472.23 56.3521 2476.97 56.3521 Q2484.78 56.3521 2488.79 61.2132 Q2492.8 66.0338 2492.8 75.4319 Z" fill="#000000" fill-rule="nonzero" fill-opacity="1" /><path clip-path="url(#clip470)" d="M2509.58 92.5267 L2518.12 92.5267 L2518.12 99.4943 L2511.48 112.457 L2506.25 112.457 L2509.58 99.4943 L2509.58 92.5267 Z" fill="#000000" fill-rule="nonzero" fill-opacity="1" /><path clip-path="url(#clip470)" d="M888.221 155.052 L888.221 130.504 L895.675 130.504 L895.675 193.536 L888.221 193.536 L888.221 186.73 Q885.872 190.781 882.266 192.766 Q878.702 194.711 873.679 194.711 Q865.455 194.711 860.27 188.148 Q855.125 181.586 855.125 170.891 Q855.125 160.197 860.27 153.635 Q865.455 147.072 873.679 147.072 Q878.702 147.072 882.266 149.057 Q885.872 151.002 888.221 155.052 M862.822 170.891 Q862.822 179.115 866.184 183.814 Q869.587 188.472 875.501 188.472 Q881.416 188.472 884.819 183.814 Q888.221 179.115 888.221 170.891 Q888.221 162.668 884.819 158.01 Q881.416 153.311 875.501 153.311 Q869.587 153.311 866.184 158.01 Q862.822 162.668 862.822 170.891 Z" fill="#000000" fill-rule="nonzero" fill-opacity="1" /><path clip-path="url(#clip470)" d="M938.371 155.863 L990.304 155.863 L990.304 162.668 L938.371 162.668 L938.371 155.863 M938.371 172.39 L990.304 172.39 L990.304 179.277 L938.371 179.277 L938.371 172.39 Z" fill="#000000" fill-rule="nonzero" fill-opacity="1" /><path clip-path="url(#clip470)" d="M1035.76 186.649 L1049.12 186.649 L1049.12 140.51 L1034.58 143.426 L1034.58 135.973 L1049.04 133.056 L1057.22 133.056 L1057.22 186.649 L1070.59 186.649 L1070.59 193.536 L1035.76 193.536 L1035.76 186.649 Z" fill="#000000" fill-rule="nonzero" fill-opacity="1" /><path clip-path="url(#clip470)" d="M1094.17 186.649 L1122.73 186.649 L1122.73 193.536 L1084.33 193.536 L1084.33 186.649 Q1088.98 181.829 1097 173.727 Q1105.07 165.585 1107.13 163.235 Q1111.06 158.82 1112.6 155.782 Q1114.18 152.703 1114.18 149.746 Q1114.18 144.925 1110.78 141.887 Q1107.42 138.849 1101.99 138.849 Q1098.14 138.849 1093.85 140.186 Q1089.59 141.522 1084.73 144.236 L1084.73 135.973 Q1089.67 133.988 1093.97 132.975 Q1098.26 131.962 1101.83 131.962 Q1111.22 131.962 1116.81 136.661 Q1122.4 141.36 1122.4 149.219 Q1122.4 152.946 1120.99 156.308 Q1119.61 159.63 1115.92 164.167 Q1114.91 165.342 1109.48 170.972 Q1104.05 176.563 1094.17 186.649 Z" fill="#000000" fill-rule="nonzero" fill-opacity="1" /><path clip-path="url(#clip470)" d="M1140.75 183.247 L1149.3 183.247 L1149.3 190.214 L1142.66 203.177 L1137.43 203.177 L1140.75 190.214 L1140.75 183.247 Z" fill="#000000" fill-rule="nonzero" fill-opacity="1" /><path clip-path="url(#clip470)" d="M1213.43 203.663 L1207.39 188.148 L1194.96 210.833 L1186.17 210.833 L1203.75 178.75 L1196.37 159.67 Q1194.39 154.566 1188.15 154.566 L1186.17 154.566 L1186.17 148.166 L1189 148.247 Q1199.45 148.53 1202.09 155.295 L1208.08 170.81 L1220.52 148.125 L1229.31 148.125 L1211.73 180.209 L1219.1 199.288 Q1221.08 204.392 1227.32 204.392 L1229.31 204.392 L1229.31 210.793 L1226.47 210.712 Q1216.02 210.428 1213.43 203.663 Z" fill="#000000" fill-rule="nonzero" fill-opacity="1" /><path clip-path="url(#clip470)" d="M1266.86 155.863 L1318.79 155.863 L1318.79 162.668 L1266.86 162.668 L1266.86 155.863 M1266.86 172.39 L1318.79 172.39 L1318.79 179.277 L1266.86 179.277 L1266.86 172.39 Z" fill="#000000" fill-rule="nonzero" fill-opacity="1" /><path clip-path="url(#clip470)" d="M1369.87 186.649 L1398.43 186.649 L1398.43 193.536 L1360.03 193.536 L1360.03 186.649 Q1364.69 181.829 1372.71 173.727 Q1380.77 165.585 1382.84 163.235 Q1386.77 158.82 1388.31 155.782 Q1389.89 152.703 1389.89 149.746 Q1389.89 144.925 1386.48 141.887 Q1383.12 138.849 1377.69 138.849 Q1373.84 138.849 1369.55 140.186 Q1365.3 141.522 1360.44 144.236 L1360.44 135.973 Q1365.38 133.988 1369.67 132.975 Q1373.97 131.962 1377.53 131.962 Q1386.93 131.962 1392.52 136.661 Q1398.11 141.36 1398.11 149.219 Q1398.11 152.946 1396.69 156.308 Q1395.31 159.63 1391.63 164.167 Q1390.61 165.342 1385.19 170.972 Q1379.76 176.563 1369.87 186.649 Z" fill="#000000" fill-rule="nonzero" fill-opacity="1" /><path clip-path="url(#clip470)" d="M1433.11 138.444 Q1426.79 138.444 1423.59 144.682 Q1420.43 150.88 1420.43 163.357 Q1420.43 175.793 1423.59 182.031 Q1426.79 188.229 1433.11 188.229 Q1439.47 188.229 1442.63 182.031 Q1445.83 175.793 1445.83 163.357 Q1445.83 150.88 1442.63 144.682 Q1439.47 138.444 1433.11 138.444 M1433.11 131.962 Q1443.28 131.962 1448.62 140.024 Q1454.01 148.044 1454.01 163.357 Q1454.01 178.629 1448.62 186.69 Q1443.28 194.711 1433.11 194.711 Q1422.94 194.711 1417.55 186.69 Q1412.21 178.629 1412.21 163.357 Q1412.21 148.044 1417.55 140.024 Q1422.94 131.962 1433.11 131.962 Z" fill="#000000" fill-rule="nonzero" fill-opacity="1" /><path clip-path="url(#clip470)" d="M1469.24 183.247 L1477.79 183.247 L1477.79 190.214 L1471.15 203.177 L1465.92 203.177 L1469.24 190.214 L1469.24 183.247 Z" fill="#000000" fill-rule="nonzero" fill-opacity="1" /><path clip-path="url(#clip470)" d="M1520.41 133.056 L1528.59 133.056 L1528.59 186.649 L1558.04 186.649 L1558.04 193.536 L1520.41 193.536 L1520.41 133.056 Z" fill="#000000" fill-rule="nonzero" fill-opacity="1" /><path clip-path="url(#clip470)" d="M1603.65 168.988 L1603.65 172.633 L1569.38 172.633 Q1569.87 180.33 1574 184.381 Q1578.17 188.391 1585.58 188.391 Q1589.88 188.391 1593.89 187.338 Q1597.94 186.285 1601.91 184.178 L1601.91 191.227 Q1597.9 192.928 1593.69 193.82 Q1589.47 194.711 1585.14 194.711 Q1574.28 194.711 1567.92 188.391 Q1561.6 182.072 1561.6 171.297 Q1561.6 160.157 1567.6 153.635 Q1573.63 147.072 1583.84 147.072 Q1593 147.072 1598.3 152.986 Q1603.65 158.86 1603.65 168.988 M1596.2 166.8 Q1596.12 160.683 1592.75 157.037 Q1589.43 153.392 1583.92 153.392 Q1577.69 153.392 1573.92 156.916 Q1570.19 160.44 1569.62 166.841 L1596.2 166.8 Z" fill="#000000" fill-rule="nonzero" fill-opacity="1" /><path clip-path="url(#clip470)" d="M1645.74 170.324 Q1645.74 162.223 1642.38 157.767 Q1639.06 153.311 1633.02 153.311 Q1627.03 153.311 1623.66 157.767 Q1620.34 162.223 1620.34 170.324 Q1620.34 178.386 1623.66 182.842 Q1627.03 187.298 1633.02 187.298 Q1639.06 187.298 1642.38 182.842 Q1645.74 178.386 1645.74 170.324 M1653.19 187.905 Q1653.19 199.491 1648.05 205.122 Q1642.9 210.793 1632.29 210.793 Q1628.36 210.793 1624.88 210.185 Q1621.39 209.618 1618.11 208.403 L1618.11 201.152 Q1621.39 202.934 1624.59 203.785 Q1627.79 204.635 1631.12 204.635 Q1638.45 204.635 1642.09 200.787 Q1645.74 196.979 1645.74 189.242 L1645.74 185.556 Q1643.43 189.566 1639.83 191.551 Q1636.22 193.536 1631.2 193.536 Q1622.85 193.536 1617.75 187.176 Q1612.64 180.816 1612.64 170.324 Q1612.64 159.792 1617.75 153.432 Q1622.85 147.072 1631.2 147.072 Q1636.22 147.072 1639.83 149.057 Q1643.43 151.042 1645.74 155.052 L1645.74 148.166 L1653.19 148.166 L1653.19 187.905 Z" fill="#000000" fill-rule="nonzero" fill-opacity="1" /><path clip-path="url(#clip470)" d="M1707.35 168.988 L1707.35 172.633 L1673.08 172.633 Q1673.57 180.33 1677.7 184.381 Q1681.87 188.391 1689.29 188.391 Q1693.58 188.391 1697.59 187.338 Q1701.64 186.285 1705.61 184.178 L1705.61 191.227 Q1701.6 192.928 1697.39 193.82 Q1693.18 194.711 1688.84 194.711 Q1677.99 194.711 1671.63 188.391 Q1665.31 182.072 1665.31 171.297 Q1665.31 160.157 1671.3 153.635 Q1677.34 147.072 1687.55 147.072 Q1696.7 147.072 1702.01 152.986 Q1707.35 158.86 1707.35 168.988 M1699.9 166.8 Q1699.82 160.683 1696.46 157.037 Q1693.14 153.392 1687.63 153.392 Q1681.39 153.392 1677.62 156.916 Q1673.89 160.44 1673.33 166.841 L1699.9 166.8 Z" fill="#000000" fill-rule="nonzero" fill-opacity="1" /><path clip-path="url(#clip470)" d="M1757.3 166.152 L1757.3 193.536 L1749.85 193.536 L1749.85 166.395 Q1749.85 159.954 1747.34 156.754 Q1744.83 153.554 1739.8 153.554 Q1733.77 153.554 1730.28 157.402 Q1726.8 161.25 1726.8 167.894 L1726.8 193.536 L1719.3 193.536 L1719.3 148.166 L1726.8 148.166 L1726.8 155.214 Q1729.47 151.123 1733.08 149.098 Q1736.72 147.072 1741.46 147.072 Q1749.28 147.072 1753.29 151.933 Q1757.3 156.754 1757.3 166.152 Z" fill="#000000" fill-rule="nonzero" fill-opacity="1" /><path clip-path="url(#clip470)" d="M1802.02 155.052 L1802.02 130.504 L1809.48 130.504 L1809.48 193.536 L1802.02 193.536 L1802.02 186.73 Q1799.67 190.781 1796.07 192.766 Q1792.5 194.711 1787.48 194.711 Q1779.26 194.711 1774.07 188.148 Q1768.93 181.586 1768.93 170.891 Q1768.93 160.197 1774.07 153.635 Q1779.26 147.072 1787.48 147.072 Q1792.5 147.072 1796.07 149.057 Q1799.67 151.002 1802.02 155.052 M1776.63 170.891 Q1776.63 179.115 1779.99 183.814 Q1783.39 188.472 1789.3 188.472 Q1795.22 188.472 1798.62 183.814 Q1802.02 179.115 1802.02 170.891 Q1802.02 162.668 1798.62 158.01 Q1795.22 153.311 1789.3 153.311 Q1783.39 153.311 1779.99 158.01 Q1776.63 162.668 1776.63 170.891 Z" fill="#000000" fill-rule="nonzero" fill-opacity="1" /><path clip-path="url(#clip470)" d="M1851.12 155.133 Q1849.87 154.404 1848.37 154.08 Q1846.91 153.716 1845.13 153.716 Q1838.81 153.716 1835.4 157.848 Q1832.04 161.939 1832.04 169.636 L1832.04 193.536 L1824.55 193.536 L1824.55 148.166 L1832.04 148.166 L1832.04 155.214 Q1834.39 151.083 1838.16 149.098 Q1841.93 147.072 1847.31 147.072 Q1848.08 147.072 1849.01 147.194 Q1849.95 147.275 1851.08 147.477 L1851.12 155.133 Z" fill="#000000" fill-rule="nonzero" fill-opacity="1" /><path clip-path="url(#clip470)" d="M1895.92 168.988 L1895.92 172.633 L1861.65 172.633 Q1862.14 180.33 1866.27 184.381 Q1870.44 188.391 1877.86 188.391 Q1882.15 188.391 1886.16 187.338 Q1890.21 186.285 1894.18 184.178 L1894.18 191.227 Q1890.17 192.928 1885.96 193.82 Q1881.75 194.711 1877.41 194.711 Q1866.56 194.711 1860.2 188.391 Q1853.88 182.072 1853.88 171.297 Q1853.88 160.157 1859.87 153.635 Q1865.91 147.072 1876.12 147.072 Q1885.27 147.072 1890.58 152.986 Q1895.92 158.86 1895.92 168.988 M1888.47 166.8 Q1888.39 160.683 1885.03 157.037 Q1881.71 153.392 1876.2 153.392 Q1869.96 153.392 1866.19 156.916 Q1862.46 160.44 1861.9 166.841 L1888.47 166.8 Z" fill="#000000" fill-rule="nonzero" fill-opacity="1" /><path clip-path="url(#clip470)" d="M1942.63 207.309 L1942.63 213.102 L1899.53 213.102 L1899.53 207.309 L1942.63 207.309 Z" fill="#000000" fill-rule="nonzero" fill-opacity="1" /><path clip-path="url(#clip470)" d="M1949.96 133.056 L1960.98 133.056 L1987.8 183.652 L1987.8 133.056 L1995.74 133.056 L1995.74 193.536 L1984.72 193.536 L1957.9 142.94 L1957.9 193.536 L1949.96 193.536 L1949.96 133.056 Z" fill="#000000" fill-rule="nonzero" fill-opacity="1" /><path clip-path="url(#clip470)" d="M2029.28 153.392 Q2023.28 153.392 2019.8 158.091 Q2016.32 162.749 2016.32 170.891 Q2016.32 179.034 2019.76 183.733 Q2023.24 188.391 2029.28 188.391 Q2035.23 188.391 2038.72 183.692 Q2042.2 178.993 2042.2 170.891 Q2042.2 162.83 2038.72 158.131 Q2035.23 153.392 2029.28 153.392 M2029.28 147.072 Q2039 147.072 2044.55 153.392 Q2050.1 159.711 2050.1 170.891 Q2050.1 182.031 2044.55 188.391 Q2039 194.711 2029.28 194.711 Q2019.52 194.711 2013.97 188.391 Q2008.46 182.031 2008.46 170.891 Q2008.46 159.711 2013.97 153.392 Q2019.52 147.072 2029.28 147.072 Z" fill="#000000" fill-rule="nonzero" fill-opacity="1" /><path clip-path="url(#clip470)" d="M2096.93 207.309 L2096.93 213.102 L2053.83 213.102 L2053.83 207.309 L2096.93 207.309 Z" fill="#000000" fill-rule="nonzero" fill-opacity="1" /><path clip-path="url(#clip470)" d="M2104.26 133.056 L2115.28 133.056 L2142.1 183.652 L2142.1 133.056 L2150.04 133.056 L2150.04 193.536 L2139.02 193.536 L2112.2 142.94 L2112.2 193.536 L2104.26 193.536 L2104.26 133.056 Z" fill="#000000" fill-rule="nonzero" fill-opacity="1" /><path clip-path="url(#clip470)" d="M2183.58 153.392 Q2177.58 153.392 2174.1 158.091 Q2170.62 162.749 2170.62 170.891 Q2170.62 179.034 2174.06 183.733 Q2177.54 188.391 2183.58 188.391 Q2189.53 188.391 2193.02 183.692 Q2196.5 178.993 2196.5 170.891 Q2196.5 162.83 2193.02 158.131 Q2189.53 153.392 2183.58 153.392 M2183.58 147.072 Q2193.3 147.072 2198.85 153.392 Q2204.4 159.711 2204.4 170.891 Q2204.4 182.031 2198.85 188.391 Q2193.3 194.711 2183.58 194.711 Q2173.82 194.711 2168.27 188.391 Q2162.76 182.031 2162.76 170.891 Q2162.76 159.711 2168.27 153.392 Q2173.82 147.072 2183.58 147.072 Z" fill="#000000" fill-rule="nonzero" fill-opacity="1" /><path clip-path="url(#clip470)" d="M2243.05 155.133 Q2241.79 154.404 2240.29 154.08 Q2238.83 153.716 2237.05 153.716 Q2230.73 153.716 2227.33 157.848 Q2223.97 161.939 2223.97 169.636 L2223.97 193.536 L2216.47 193.536 L2216.47 148.166 L2223.97 148.166 L2223.97 155.214 Q2226.32 151.083 2230.08 149.098 Q2233.85 147.072 2239.24 147.072 Q2240.01 147.072 2240.94 147.194 Q2241.87 147.275 2243.01 147.477 L2243.05 155.133 Z" fill="#000000" fill-rule="nonzero" fill-opacity="1" /><path clip-path="url(#clip470)" d="M2284.73 156.875 Q2287.53 151.852 2291.41 149.462 Q2295.3 147.072 2300.57 147.072 Q2307.66 147.072 2311.51 152.055 Q2315.35 156.997 2315.35 166.152 L2315.35 193.536 L2307.86 193.536 L2307.86 166.395 Q2307.86 159.873 2305.55 156.713 Q2303.24 153.554 2298.5 153.554 Q2292.71 153.554 2289.35 157.402 Q2285.99 161.25 2285.99 167.894 L2285.99 193.536 L2278.49 193.536 L2278.49 166.395 Q2278.49 159.832 2276.18 156.713 Q2273.87 153.554 2269.05 153.554 Q2263.34 153.554 2259.98 157.442 Q2256.62 161.291 2256.62 167.894 L2256.62 193.536 L2249.12 193.536 L2249.12 148.166 L2256.62 148.166 L2256.62 155.214 Q2259.17 151.042 2262.73 149.057 Q2266.3 147.072 2271.2 147.072 Q2276.14 147.072 2279.59 149.584 Q2283.07 152.095 2284.73 156.875 Z" fill="#000000" fill-rule="nonzero" fill-opacity="1" /><path clip-path="url(#clip470)" d="M2395.4 168.988 L2395.4 172.633 L2361.13 172.633 Q2361.62 180.33 2365.75 184.381 Q2369.92 188.391 2377.33 188.391 Q2381.63 188.391 2385.64 187.338 Q2389.69 186.285 2393.66 184.178 L2393.66 191.227 Q2389.65 192.928 2385.44 193.82 Q2381.22 194.711 2376.89 194.711 Q2366.03 194.711 2359.67 188.391 Q2353.35 182.072 2353.35 171.297 Q2353.35 160.157 2359.35 153.635 Q2365.38 147.072 2375.59 147.072 Q2384.75 147.072 2390.05 152.986 Q2395.4 158.86 2395.4 168.988 M2387.95 166.8 Q2387.87 160.683 2384.5 157.037 Q2381.18 153.392 2375.67 153.392 Q2369.43 153.392 2365.67 156.916 Q2361.94 160.44 2361.37 166.841 L2387.95 166.8 Z" fill="#000000" fill-rule="nonzero" fill-opacity="1" /><path clip-path="url(#clip470)" d="M2445.35 166.152 L2445.35 193.536 L2437.89 193.536 L2437.89 166.395 Q2437.89 159.954 2435.38 156.754 Q2432.87 153.554 2427.85 153.554 Q2421.81 153.554 2418.33 157.402 Q2414.85 161.25 2414.85 167.894 L2414.85 193.536 L2407.35 193.536 L2407.35 148.166 L2414.85 148.166 L2414.85 155.214 Q2417.52 151.123 2421.12 149.098 Q2424.77 147.072 2429.51 147.072 Q2437.33 147.072 2441.34 151.933 Q2445.35 156.754 2445.35 166.152 Z" fill="#000000" fill-rule="nonzero" fill-opacity="1" /><path clip-path="url(#clip470)" d="M2492.87 149.908 L2492.87 156.875 Q2489.71 155.133 2486.51 154.283 Q2483.35 153.392 2480.11 153.392 Q2472.85 153.392 2468.84 158.01 Q2464.83 162.587 2464.83 170.891 Q2464.83 179.196 2468.84 183.814 Q2472.85 188.391 2480.11 188.391 Q2483.35 188.391 2486.51 187.541 Q2489.71 186.649 2492.87 184.908 L2492.87 191.794 Q2489.75 193.252 2486.38 193.982 Q2483.06 194.711 2479.29 194.711 Q2469.05 194.711 2463.01 188.27 Q2456.97 181.829 2456.97 170.891 Q2456.97 159.792 2463.05 153.432 Q2469.17 147.072 2479.78 147.072 Q2483.22 147.072 2486.51 147.801 Q2489.79 148.49 2492.87 149.908 Z" fill="#000000" fill-rule="nonzero" fill-opacity="1" /><path clip-path="url(#clip470)" d="M2523.41 153.392 Q2517.41 153.392 2513.93 158.091 Q2510.45 162.749 2510.45 170.891 Q2510.45 179.034 2513.89 183.733 Q2517.37 188.391 2523.41 188.391 Q2529.36 188.391 2532.85 183.692 Q2536.33 178.993 2536.33 170.891 Q2536.33 162.83 2532.85 158.131 Q2529.36 153.392 2523.41 153.392 M2523.41 147.072 Q2533.13 147.072 2538.68 153.392 Q2544.23 159.711 2544.23 170.891 Q2544.23 182.031 2538.68 188.391 Q2533.13 194.711 2523.41 194.711 Q2513.65 194.711 2508.1 188.391 Q2502.59 182.031 2502.59 170.891 Q2502.59 159.711 2508.1 153.392 Q2513.65 147.072 2523.41 147.072 Z" fill="#000000" fill-rule="nonzero" fill-opacity="1" /><path clip-path="url(#clip470)" d="M2586.44 155.052 L2586.44 130.504 L2593.89 130.504 L2593.89 193.536 L2586.44 193.536 L2586.44 186.73 Q2584.09 190.781 2580.49 192.766 Q2576.92 194.711 2571.9 194.711 Q2563.68 194.711 2558.49 188.148 Q2553.35 181.586 2553.35 170.891 Q2553.35 160.197 2558.49 153.635 Q2563.68 147.072 2571.9 147.072 Q2576.92 147.072 2580.49 149.057 Q2584.09 151.002 2586.44 155.052 M2561.04 170.891 Q2561.04 179.115 2564.4 183.814 Q2567.81 188.472 2573.72 188.472 Q2579.64 188.472 2583.04 183.814 Q2586.44 179.115 2586.44 170.891 Q2586.44 162.668 2583.04 158.01 Q2579.64 153.311 2573.72 153.311 Q2567.81 153.311 2564.4 158.01 Q2561.04 162.668 2561.04 170.891 Z" fill="#000000" fill-rule="nonzero" fill-opacity="1" /><path clip-path="url(#clip470)" d="M2609.25 148.166 L2616.7 148.166 L2616.7 193.536 L2609.25 193.536 L2609.25 148.166 M2609.25 130.504 L2616.7 130.504 L2616.7 139.943 L2609.25 139.943 L2609.25 130.504 Z" fill="#000000" fill-rule="nonzero" fill-opacity="1" /><path clip-path="url(#clip470)" d="M2670.01 166.152 L2670.01 193.536 L2662.56 193.536 L2662.56 166.395 Q2662.56 159.954 2660.05 156.754 Q2657.53 153.554 2652.51 153.554 Q2646.48 153.554 2642.99 157.402 Q2639.51 161.25 2639.51 167.894 L2639.51 193.536 L2632.01 193.536 L2632.01 148.166 L2639.51 148.166 L2639.51 155.214 Q2642.18 151.123 2645.79 149.098 Q2649.43 147.072 2654.17 147.072 Q2661.99 147.072 2666 151.933 Q2670.01 156.754 2670.01 166.152 Z" fill="#000000" fill-rule="nonzero" fill-opacity="1" /><path clip-path="url(#clip470)" d="M2714.73 170.324 Q2714.73 162.223 2711.37 157.767 Q2708.05 153.311 2702.01 153.311 Q2696.02 153.311 2692.66 157.767 Q2689.33 162.223 2689.33 170.324 Q2689.33 178.386 2692.66 182.842 Q2696.02 187.298 2702.01 187.298 Q2708.05 187.298 2711.37 182.842 Q2714.73 178.386 2714.73 170.324 M2722.19 187.905 Q2722.19 199.491 2717.04 205.122 Q2711.9 210.793 2701.28 210.793 Q2697.36 210.793 2693.87 210.185 Q2690.39 209.618 2687.11 208.403 L2687.11 201.152 Q2690.39 202.934 2693.59 203.785 Q2696.79 204.635 2700.11 204.635 Q2707.44 204.635 2711.09 200.787 Q2714.73 196.979 2714.73 189.242 L2714.73 185.556 Q2712.42 189.566 2708.82 191.551 Q2705.21 193.536 2700.19 193.536 Q2691.85 193.536 2686.74 187.176 Q2681.64 180.816 2681.64 170.324 Q2681.64 159.792 2686.74 153.432 Q2691.85 147.072 2700.19 147.072 Q2705.21 147.072 2708.82 149.057 Q2712.42 151.042 2714.73 155.052 L2714.73 148.166 L2722.19 148.166 L2722.19 187.905 Z" fill="#000000" fill-rule="nonzero" fill-opacity="1" /><path clip-path="url(#clip470)" d="M2739.44 183.247 L2747.99 183.247 L2747.99 190.214 L2741.35 203.177 L2736.12 203.177 L2739.44 190.214 L2739.44 183.247 Z" fill="#000000" fill-rule="nonzero" fill-opacity="1" /><path clip-path="url(#clip470)" d="M1273.54 223.776 L1285.74 223.776 L1301.17 264.933 L1316.69 223.776 L1328.88 223.776 L1328.88 284.256 L1320.9 284.256 L1320.9 231.149 L1305.3 272.63 L1297.08 272.63 L1281.48 231.149 L1281.48 284.256 L1273.54 284.256 L1273.54 223.776 Z" fill="#000000" fill-rule="nonzero" fill-opacity="1" /><path clip-path="url(#clip470)" d="M1383.61 259.708 L1383.61 263.353 L1349.34 263.353 Q1349.82 271.05 1353.95 275.101 Q1358.13 279.111 1365.54 279.111 Q1369.83 279.111 1373.84 278.058 Q1377.89 277.005 1381.86 274.898 L1381.86 281.947 Q1377.85 283.648 1373.64 284.54 Q1369.43 285.431 1365.09 285.431 Q1354.24 285.431 1347.88 279.111 Q1341.56 272.792 1341.56 262.017 Q1341.56 250.877 1347.55 244.355 Q1353.59 237.792 1363.8 237.792 Q1372.95 237.792 1378.26 243.706 Q1383.61 249.58 1383.61 259.708 M1376.15 257.52 Q1376.07 251.403 1372.71 247.757 Q1369.39 244.112 1363.88 244.112 Q1357.64 244.112 1353.87 247.636 Q1350.15 251.16 1349.58 257.561 L1376.15 257.52 Z" fill="#000000" fill-rule="nonzero" fill-opacity="1" /><path clip-path="url(#clip470)" d="M1425.7 245.772 L1425.7 221.224 L1433.15 221.224 L1433.15 284.256 L1425.7 284.256 L1425.7 277.45 Q1423.35 281.501 1419.74 283.486 Q1416.18 285.431 1411.15 285.431 Q1402.93 285.431 1397.74 278.868 Q1392.6 272.306 1392.6 261.611 Q1392.6 250.917 1397.74 244.355 Q1402.93 237.792 1411.15 237.792 Q1416.18 237.792 1419.74 239.777 Q1423.35 241.722 1425.7 245.772 M1400.3 261.611 Q1400.3 269.835 1403.66 274.534 Q1407.06 279.192 1412.98 279.192 Q1418.89 279.192 1422.29 274.534 Q1425.7 269.835 1425.7 261.611 Q1425.7 253.388 1422.29 248.73 Q1418.89 244.031 1412.98 244.031 Q1407.06 244.031 1403.66 248.73 Q1400.3 253.388 1400.3 261.611 Z" fill="#000000" fill-rule="nonzero" fill-opacity="1" /><path clip-path="url(#clip470)" d="M1448.5 238.886 L1455.96 238.886 L1455.96 284.256 L1448.5 284.256 L1448.5 238.886 M1448.5 221.224 L1455.96 221.224 L1455.96 230.663 L1448.5 230.663 L1448.5 221.224 Z" fill="#000000" fill-rule="nonzero" fill-opacity="1" /><path clip-path="url(#clip470)" d="M1492.17 261.449 Q1483.14 261.449 1479.65 263.515 Q1476.17 265.581 1476.17 270.564 Q1476.17 274.534 1478.76 276.883 Q1481.4 279.192 1485.89 279.192 Q1492.09 279.192 1495.82 274.817 Q1499.58 270.402 1499.58 263.11 L1499.58 261.449 L1492.17 261.449 M1507.04 258.371 L1507.04 284.256 L1499.58 284.256 L1499.58 277.369 Q1497.03 281.501 1493.22 283.486 Q1489.42 285.431 1483.91 285.431 Q1476.94 285.431 1472.81 281.542 Q1468.72 277.613 1468.72 271.05 Q1468.72 263.394 1473.82 259.505 Q1478.96 255.616 1489.13 255.616 L1499.58 255.616 L1499.58 254.887 Q1499.58 249.742 1496.18 246.947 Q1492.82 244.112 1486.7 244.112 Q1482.81 244.112 1479.13 245.043 Q1475.44 245.975 1472.04 247.838 L1472.04 240.952 Q1476.13 239.372 1479.98 238.602 Q1483.83 237.792 1487.47 237.792 Q1497.32 237.792 1502.18 242.896 Q1507.04 248 1507.04 258.371 Z" fill="#000000" fill-rule="nonzero" fill-opacity="1" /><path clip-path="url(#clip470)" d="M1560.1 256.872 L1560.1 284.256 L1552.65 284.256 L1552.65 257.115 Q1552.65 250.674 1550.14 247.474 Q1547.63 244.274 1542.6 244.274 Q1536.57 244.274 1533.08 248.122 Q1529.6 251.97 1529.6 258.614 L1529.6 284.256 L1522.11 284.256 L1522.11 238.886 L1529.6 238.886 L1529.6 245.934 Q1532.27 241.843 1535.88 239.818 Q1539.53 237.792 1544.27 237.792 Q1552.08 237.792 1556.09 242.653 Q1560.1 247.474 1560.1 256.872 Z" fill="#000000" fill-rule="nonzero" fill-opacity="1" /><path clip-path="url(#clip470)" d="M1576.87 273.967 L1585.42 273.967 L1585.42 280.934 L1578.78 293.897 L1573.55 293.897 L1576.87 280.934 L1576.87 273.967 Z" fill="#000000" fill-rule="nonzero" fill-opacity="1" /><path clip-path="url(#clip470)" d="M1658.06 232.242 L1658.06 254.806 L1680.62 254.806 L1680.62 261.692 L1658.06 261.692 L1658.06 284.256 L1651.25 284.256 L1651.25 261.692 L1628.69 261.692 L1628.69 254.806 L1651.25 254.806 L1651.25 232.242 L1658.06 232.242 Z" fill="#000000" fill-rule="nonzero" fill-opacity="1" /><path clip-path="url(#clip470)" d="M1710.47 223.776 L1717.36 223.776 L1696.3 291.953 L1689.41 291.953 L1710.47 223.776 Z" fill="#000000" fill-rule="nonzero" fill-opacity="1" /><path clip-path="url(#clip470)" d="M1721.41 258.209 L1743.25 258.209 L1743.25 264.852 L1721.41 264.852 L1721.41 258.209 Z" fill="#000000" fill-rule="nonzero" fill-opacity="1" /><path clip-path="url(#clip470)" d="M1776.42 223.776 L1784.69 223.776 L1797.41 274.898 L1810.09 223.776 L1819.28 223.776 L1832 274.898 L1844.68 223.776 L1852.98 223.776 L1837.79 284.256 L1827.5 284.256 L1814.74 231.756 L1801.86 284.256 L1791.57 284.256 L1776.42 223.776 Z" fill="#000000" fill-rule="nonzero" fill-opacity="1" /><path clip-path="url(#clip470)" d="M1863.84 223.776 L1876.03 223.776 L1891.47 264.933 L1906.98 223.776 L1919.18 223.776 L1919.18 284.256 L1911.2 284.256 L1911.2 231.149 L1895.6 272.63 L1887.38 272.63 L1871.78 231.149 L1871.78 284.256 L1863.84 284.256 L1863.84 223.776 Z" fill="#000000" fill-rule="nonzero" fill-opacity="1" /><path clip-path="url(#clip470)" d="M1955.63 231.837 L1944.54 261.936 L1966.77 261.936 L1955.63 231.837 M1951.02 223.776 L1960.29 223.776 L1983.34 284.256 L1974.84 284.256 L1969.33 268.741 L1942.06 268.741 L1936.55 284.256 L1927.93 284.256 L1951.02 223.776 Z" fill="#000000" fill-rule="nonzero" fill-opacity="1" /><path clip-path="url(#clip470)" d="M2000.36 230.501 L2000.36 277.531 L2010.24 277.531 Q2022.76 277.531 2028.55 271.86 Q2034.38 266.189 2034.38 253.955 Q2034.38 241.803 2028.55 236.172 Q2022.76 230.501 2010.24 230.501 L2000.36 230.501 M1992.17 223.776 L2008.98 223.776 Q2026.57 223.776 2034.79 231.108 Q2043.01 238.4 2043.01 253.955 Q2043.01 269.592 2034.75 276.924 Q2026.48 284.256 2008.98 284.256 L1992.17 284.256 L1992.17 223.776 Z" fill="#000000" fill-rule="nonzero" fill-opacity="1" /><polyline clip-path="url(#clip472)" style="stroke:#000000; stroke-linecap:round; stroke-linejoin:round; stroke-width:8; stroke-opacity:1; fill:none" stroke-dasharray="4, 8" points="332.738,1721.25 359.516,1623.53 386.295,1499.25 413.074,1394.53 439.852,1306.4 466.631,1193.88 493.409,1166.07 520.188,1126.04 546.967,1158.78 573.745,1162.17 600.524,1314.8 627.302,1339.48 654.081,1364.2 680.859,1551.68 707.638,1591.44 734.417,1676.68 761.195,1714.8 787.974,1697.25 814.752,1628.84 841.531,1638.07 868.31,1501.77 895.088,1461.63 921.867,1301.08 948.645,1215.92 975.424,1071.26 1002.2,1063.69 1028.98,941.121 "/>
<polyline clip-path="url(#clip472)" style="stroke:#000000; stroke-linecap:round; stroke-linejoin:round; stroke-width:8; stroke-opacity:1; fill:none" stroke-dasharray="4, 8" points="2287.57,988.677 2314.35,996.119 2341.13,1094.59 2367.91,1108.51 2394.69,1102.18 2421.47,1088.14 2448.25,1065.04 2475.02,959.919 2501.8,833.759 2528.58,685.581 2555.36,598.474 2582.14,492.953 2608.92,368.04 2635.7,414.479 2662.47,304.565 2689.25,352.121 2716.03,318.038 2742.81,390.073 2769.59,559.299 2796.37,628.051 2823.15,748.172 2849.93,813.956 2876.7,865.788 2903.48,931.508 2930.26,903.041 2957.04,886.395 2983.82,848.382 "/>
<polyline clip-path="url(#clip472)" style="stroke:#000000; stroke-linecap:round; stroke-linejoin:round; stroke-width:8; stroke-opacity:0.3; fill:none" points="1055.76,970.703 1082.54,944.794 1109.32,949.195 1136.1,1056.55 1162.87,1120.93 1189.65,1252.05 1216.43,1333.41 1243.21,1377.3 1269.99,1434.73 1296.77,1477.57 1323.55,1562.18 1350.32,1518.44 1377.1,1387.74 1403.88,1479.23 1430.66,1235.22 1457.44,1092.69 1484.22,999.983 1511,875.757 1537.77,871.763 1564.55,760.963 1591.33,696.474 1618.11,719.125 1644.89,779.4 1671.67,857.533 1698.45,946.58 1725.22,1054.24 1752,1128.42 1778.78,1169.36 1805.56,1300.7 1832.34,1341.7 1859.12,1288.46 1885.9,1259.74 1912.67,1212.31 1939.45,1141.25 1966.23,1037.17 1993.01,930.256 2019.79,765.702 2046.57,678.845 2073.35,585.935 2100.12,510.897 2126.9,558.838 2153.68,546.793 2180.46,590.351 2207.24,656.21 2234.02,769.391 2260.8,844.588 "/>
<path clip-path="url(#clip472)" d="M1055.76 1012.05 L1082.54 1010.76 L1109.32 1035.05 L1136.1 1129.18 L1162.87 1199.22 L1189.65 1260.4 L1216.43 1381.77 L1243.21 1456.73 L1269.99 1516.84 L1296.77 1553.56 L1323.55 1569.18 L1350.32 1538.43 L1377.1 1480.05 L1403.88 1423.58 L1430.66 1309.41 L1457.44 1197.78 L1484.22 1091.98 L1511 983.397 L1537.77 888.4 L1564.55 827.856 L1591.33 797.168 L1618.11 805.912 L1644.89 839.341 L1671.67 920.923 L1698.45 1001.23 L1725.22 1099.73 L1752 1203.93 L1778.78 1262.61 L1805.56 1346.53 L1832.34 1363.01 L1859.12 1383.1 L1885.9 1343.23 L1912.67 1267.53 L1939.45 1213.28 L1966.23 1098.18 L1993.01 989.845 L2019.79 884.416 L2046.57 757.798 L2073.35 676.374 L2100.12 620.235 L2126.9 593.164 L2153.68 602.519 L2180.46 650.1 L2207.24 725.351 L2234.02 788.449 L2260.8 879.848 L2260.8 751.493 L2234.02 673.363 L2207.24 608.745 L2180.46 535.159 L2153.68 497.735 L2126.9 490.541 L2100.12 510.891 L2073.35 559.4 L2046.57 644.341 L2019.79 754.549 L1993.01 864.729 L1966.23 962.527 L1939.45 1085.6 L1912.67 1143.51 L1885.9 1213.52 L1859.12 1254.79 L1832.34 1233.19 L1805.56 1216.98 L1778.78 1139.2 L1752 1074.55 L1725.22 962.148 L1698.45 876.549 L1671.67 788.255 L1644.89 714.162 L1618.11 687.919 L1591.33 681.15 L1564.55 706.282 L1537.77 758.149 L1511 857.834 L1484.22 956.2 L1457.44 1060.28 L1430.66 1170.46 L1403.88 1299.28 L1377.1 1366.09 L1350.32 1420.76 L1323.55 1452.46 L1296.77 1435.93 L1269.99 1400.65 L1243.21 1341.24 L1216.43 1250.56 L1189.65 1136.37 L1162.87 1070.52 L1136.1 993.079 L1109.32 910.068 L1082.54 888.449 L1055.76 889.96  Z" fill="#ff0000" fill-rule="evenodd" fill-opacity="0.15"/>
<polyline clip-path="url(#clip472)" style="stroke:#ff0000; stroke-linecap:round; stroke-linejoin:round; stroke-width:8; stroke-opacity:0.8; fill:none" points="1055.76,951.005 1082.54,949.602 1109.32,972.56 1136.1,1061.13 1162.87,1134.87 1189.65,1198.38 1216.43,1316.17 1243.21,1398.99 1269.99,1458.75 1296.77,1494.74 1323.55,1510.82 1350.32,1479.59 1377.1,1423.07 1403.88,1361.43 1430.66,1239.93 1457.44,1129.03 1484.22,1024.09 1511,920.616 1537.77,823.274 1564.55,767.069 1591.33,739.159 1618.11,746.915 1644.89,776.752 1671.67,854.589 1698.45,938.89 1725.22,1030.94 1752,1139.24 1778.78,1200.9 1805.56,1281.75 1832.34,1298.1 1859.12,1318.95 1885.9,1278.38 1912.67,1205.52 1939.45,1149.44 1966.23,1030.35 1993.01,927.287 2019.79,819.483 2046.57,701.07 2073.35,617.887 2100.12,565.563 2126.9,541.852 2153.68,550.127 2180.46,592.63 2207.24,667.048 2234.02,730.906 2260.8,815.67 "/>
<path clip-path="url(#clip470)" d="M3186.67 519.48 L3952.76 519.48 L3952.76 312.12 L3186.67 312.12  Z" fill="#ffffff" fill-rule="evenodd" fill-opacity="1"/>
<polyline clip-path="url(#clip470)" style="stroke:#000000; stroke-linecap:round; stroke-linejoin:round; stroke-width:4; stroke-opacity:1; fill:none" points="3186.67,519.48 3952.76,519.48 3952.76,312.12 3186.67,312.12 3186.67,519.48 "/>
<polyline clip-path="url(#clip470)" style="stroke:#000000; stroke-linecap:round; stroke-linejoin:round; stroke-width:8; stroke-opacity:1; fill:none" stroke-dasharray="4, 8" points="3227.77,363.96 3474.41,363.96 "/>
<path clip-path="url(#clip470)" d="M3531.54 349.852 Q3526.44 349.852 3523.43 353.648 Q3520.45 357.444 3520.45 363.995 Q3520.45 370.523 3523.43 374.319 Q3526.44 378.115 3531.54 378.115 Q3536.63 378.115 3539.59 374.319 Q3542.58 370.523 3542.58 363.995 Q3542.58 357.444 3539.59 353.648 Q3536.63 349.852 3531.54 349.852 M3531.54 346.055 Q3538.8 346.055 3543.16 350.94 Q3547.51 355.801 3547.51 363.995 Q3547.51 372.166 3543.16 377.051 Q3538.8 381.912 3531.54 381.912 Q3524.24 381.912 3519.87 377.051 Q3515.52 372.189 3515.52 363.995 Q3515.52 355.801 3519.87 350.94 Q3524.24 346.055 3531.54 346.055 Z" fill="#000000" fill-rule="nonzero" fill-opacity="1" /><path clip-path="url(#clip470)" d="M3573.25 368.301 Q3573.25 363.602 3571.3 360.94 Q3569.38 358.254 3566 358.254 Q3562.62 358.254 3560.68 360.94 Q3558.76 363.602 3558.76 368.301 Q3558.76 373 3560.68 375.685 Q3562.62 378.347 3566 378.347 Q3569.38 378.347 3571.3 375.685 Q3573.25 373 3573.25 368.301 M3558.76 359.25 Q3560.1 356.935 3562.14 355.824 Q3564.2 354.69 3567.05 354.69 Q3571.77 354.69 3574.71 358.44 Q3577.67 362.19 3577.67 368.301 Q3577.67 374.412 3574.71 378.162 Q3571.77 381.912 3567.05 381.912 Q3564.2 381.912 3562.14 380.801 Q3560.1 379.666 3558.76 377.351 L3558.76 381.24 L3554.48 381.24 L3554.48 345.222 L3558.76 345.222 L3558.76 359.25 Z" fill="#000000" fill-rule="nonzero" fill-opacity="1" /><path clip-path="url(#clip470)" d="M3601.26 356.078 L3601.26 360.106 Q3599.45 359.18 3597.51 358.717 Q3595.56 358.254 3593.48 358.254 Q3590.31 358.254 3588.71 359.227 Q3587.14 360.199 3587.14 362.143 Q3587.14 363.625 3588.27 364.481 Q3589.41 365.315 3592.83 366.078 L3594.29 366.402 Q3598.83 367.375 3600.73 369.157 Q3602.65 370.916 3602.65 374.088 Q3602.65 377.699 3599.78 379.805 Q3596.93 381.912 3591.93 381.912 Q3589.85 381.912 3587.58 381.495 Q3585.33 381.101 3582.83 380.291 L3582.83 375.893 Q3585.19 377.12 3587.48 377.745 Q3589.78 378.347 3592.02 378.347 Q3595.03 378.347 3596.65 377.328 Q3598.27 376.287 3598.27 374.412 Q3598.27 372.676 3597.09 371.75 Q3595.93 370.824 3591.98 369.967 L3590.49 369.62 Q3586.54 368.787 3584.78 367.074 Q3583.02 365.338 3583.02 362.328 Q3583.02 358.671 3585.61 356.68 Q3588.2 354.69 3592.97 354.69 Q3595.33 354.69 3597.42 355.037 Q3599.5 355.384 3601.26 356.078 Z" fill="#000000" fill-rule="nonzero" fill-opacity="1" /><path clip-path="url(#clip470)" d="M3631.6 367.213 L3631.6 369.296 L3612.02 369.296 Q3612.3 373.694 3614.66 376.009 Q3617.04 378.301 3621.28 378.301 Q3623.73 378.301 3626.03 377.699 Q3628.34 377.097 3630.61 375.893 L3630.61 379.921 Q3628.32 380.893 3625.91 381.402 Q3623.5 381.912 3621.03 381.912 Q3614.82 381.912 3611.19 378.301 Q3607.58 374.689 3607.58 368.532 Q3607.58 362.166 3611 358.44 Q3614.45 354.69 3620.29 354.69 Q3625.52 354.69 3628.55 358.069 Q3631.6 361.426 3631.6 367.213 M3627.35 365.963 Q3627.3 362.467 3625.38 360.384 Q3623.48 358.301 3620.33 358.301 Q3616.77 358.301 3614.61 360.315 Q3612.48 362.328 3612.16 365.986 L3627.35 365.963 Z" fill="#000000" fill-rule="nonzero" fill-opacity="1" /><path clip-path="url(#clip470)" d="M3653.62 359.296 Q3652.9 358.879 3652.04 358.694 Q3651.21 358.486 3650.19 358.486 Q3646.58 358.486 3644.64 360.847 Q3642.72 363.185 3642.72 367.583 L3642.72 381.24 L3638.43 381.24 L3638.43 355.315 L3642.72 355.315 L3642.72 359.342 Q3644.06 356.981 3646.21 355.847 Q3648.36 354.69 3651.44 354.69 Q3651.88 354.69 3652.42 354.759 Q3652.95 354.805 3653.6 354.921 L3653.62 359.296 Z" fill="#000000" fill-rule="nonzero" fill-opacity="1" /><path clip-path="url(#clip470)" d="M3655.03 355.315 L3659.54 355.315 L3667.65 377.074 L3675.75 355.315 L3680.26 355.315 L3670.54 381.24 L3664.75 381.24 L3655.03 355.315 Z" fill="#000000" fill-rule="nonzero" fill-opacity="1" /><path clip-path="url(#clip470)" d="M3708.32 367.213 L3708.32 369.296 L3688.73 369.296 Q3689.01 373.694 3691.37 376.009 Q3693.76 378.301 3697.99 378.301 Q3700.45 378.301 3702.74 377.699 Q3705.05 377.097 3707.32 375.893 L3707.32 379.921 Q3705.03 380.893 3702.62 381.402 Q3700.22 381.912 3697.74 381.912 Q3691.54 381.912 3687.9 378.301 Q3684.29 374.689 3684.29 368.532 Q3684.29 362.166 3687.72 358.44 Q3691.16 354.69 3697 354.69 Q3702.23 354.69 3705.26 358.069 Q3708.32 361.426 3708.32 367.213 M3704.06 365.963 Q3704.01 362.467 3702.09 360.384 Q3700.19 358.301 3697.04 358.301 Q3693.48 358.301 3691.33 360.315 Q3689.2 362.328 3688.87 365.986 L3704.06 365.963 Z" fill="#000000" fill-rule="nonzero" fill-opacity="1" /><path clip-path="url(#clip470)" d="M3732.37 359.25 L3732.37 345.222 L3736.63 345.222 L3736.63 381.24 L3732.37 381.24 L3732.37 377.351 Q3731.03 379.666 3728.97 380.801 Q3726.93 381.912 3724.06 381.912 Q3719.36 381.912 3716.4 378.162 Q3713.46 374.412 3713.46 368.301 Q3713.46 362.19 3716.4 358.44 Q3719.36 354.69 3724.06 354.69 Q3726.93 354.69 3728.97 355.824 Q3731.03 356.935 3732.37 359.25 M3717.85 368.301 Q3717.85 373 3719.78 375.685 Q3721.72 378.347 3725.1 378.347 Q3728.48 378.347 3730.42 375.685 Q3732.37 373 3732.37 368.301 Q3732.37 363.602 3730.42 360.94 Q3728.48 358.254 3725.1 358.254 Q3721.72 358.254 3719.78 360.94 Q3717.85 363.602 3717.85 368.301 Z" fill="#000000" fill-rule="nonzero" fill-opacity="1" /><polyline clip-path="url(#clip470)" style="stroke:#000000; stroke-linecap:round; stroke-linejoin:round; stroke-width:8; stroke-opacity:0.3; fill:none" points="3227.77,415.8 3474.41,415.8 "/>
<path clip-path="url(#clip470)" d="M3541.07 428.15 L3541.07 418.867 L3533.43 418.867 L3533.43 415.025 L3545.7 415.025 L3545.7 429.863 Q3542.99 431.784 3539.73 432.779 Q3536.47 433.752 3532.76 433.752 Q3524.66 433.752 3520.08 429.029 Q3515.52 424.284 3515.52 415.835 Q3515.52 407.363 3520.08 402.641 Q3524.66 397.895 3532.76 397.895 Q3536.14 397.895 3539.17 398.729 Q3542.23 399.562 3544.8 401.182 L3544.8 406.159 Q3542.21 403.96 3539.29 402.849 Q3536.37 401.738 3533.16 401.738 Q3526.81 401.738 3523.62 405.28 Q3520.45 408.821 3520.45 415.835 Q3520.45 422.826 3523.62 426.367 Q3526.81 429.909 3533.16 429.909 Q3535.63 429.909 3537.58 429.492 Q3539.52 429.053 3541.07 428.15 Z" fill="#000000" fill-rule="nonzero" fill-opacity="1" /><path clip-path="url(#clip470)" d="M3569.08 411.136 Q3568.36 410.719 3567.51 410.534 Q3566.67 410.326 3565.66 410.326 Q3562.05 410.326 3560.1 412.687 Q3558.18 415.025 3558.18 419.423 L3558.18 433.08 L3553.9 433.08 L3553.9 407.155 L3558.18 407.155 L3558.18 411.182 Q3559.52 408.821 3561.67 407.687 Q3563.83 406.53 3566.91 406.53 Q3567.35 406.53 3567.88 406.599 Q3568.41 406.645 3569.06 406.761 L3569.08 411.136 Z" fill="#000000" fill-rule="nonzero" fill-opacity="1" /><path clip-path="url(#clip470)" d="M3582.55 410.141 Q3579.13 410.141 3577.14 412.826 Q3575.15 415.488 3575.15 420.141 Q3575.15 424.793 3577.11 427.479 Q3579.11 430.141 3582.55 430.141 Q3585.96 430.141 3587.95 427.455 Q3589.94 424.77 3589.94 420.141 Q3589.94 415.534 3587.95 412.849 Q3585.96 410.141 3582.55 410.141 M3582.55 406.53 Q3588.11 406.53 3591.28 410.141 Q3594.45 413.752 3594.45 420.141 Q3594.45 426.506 3591.28 430.141 Q3588.11 433.752 3582.55 433.752 Q3576.98 433.752 3573.8 430.141 Q3570.66 426.506 3570.66 420.141 Q3570.66 413.752 3573.8 410.141 Q3576.98 406.53 3582.55 406.53 Z" fill="#000000" fill-rule="nonzero" fill-opacity="1" /><path clip-path="url(#clip470)" d="M3601.07 422.849 L3601.07 407.155 L3605.33 407.155 L3605.33 422.687 Q3605.33 426.367 3606.77 428.219 Q3608.2 430.048 3611.07 430.048 Q3614.52 430.048 3616.51 427.849 Q3618.53 425.65 3618.53 421.854 L3618.53 407.155 L3622.79 407.155 L3622.79 433.08 L3618.53 433.08 L3618.53 429.099 Q3616.98 431.46 3614.92 432.617 Q3612.88 433.752 3610.17 433.752 Q3605.7 433.752 3603.39 430.974 Q3601.07 428.196 3601.07 422.849 M3611.79 406.53 L3611.79 406.53 Z" fill="#000000" fill-rule="nonzero" fill-opacity="1" /><path clip-path="url(#clip470)" d="M3653.11 417.432 L3653.11 433.08 L3648.85 433.08 L3648.85 417.571 Q3648.85 413.891 3647.42 412.062 Q3645.98 410.233 3643.11 410.233 Q3639.66 410.233 3637.67 412.432 Q3635.68 414.631 3635.68 418.428 L3635.68 433.08 L3631.4 433.08 L3631.4 407.155 L3635.68 407.155 L3635.68 411.182 Q3637.21 408.844 3639.27 407.687 Q3641.35 406.53 3644.06 406.53 Q3648.53 406.53 3650.82 409.307 Q3653.11 412.062 3653.11 417.432 Z" fill="#000000" fill-rule="nonzero" fill-opacity="1" /><path clip-path="url(#clip470)" d="M3678.66 411.09 L3678.66 397.062 L3682.92 397.062 L3682.92 433.08 L3678.66 433.08 L3678.66 429.191 Q3677.32 431.506 3675.26 432.641 Q3673.23 433.752 3670.35 433.752 Q3665.66 433.752 3662.69 430.002 Q3659.75 426.252 3659.75 420.141 Q3659.75 414.03 3662.69 410.28 Q3665.66 406.53 3670.35 406.53 Q3673.23 406.53 3675.26 407.664 Q3677.32 408.775 3678.66 411.09 M3664.15 420.141 Q3664.15 424.84 3666.07 427.525 Q3668.02 430.187 3671.4 430.187 Q3674.78 430.187 3676.72 427.525 Q3678.66 424.84 3678.66 420.141 Q3678.66 415.442 3676.72 412.78 Q3674.78 410.094 3671.4 410.094 Q3668.02 410.094 3666.07 412.78 Q3664.15 415.442 3664.15 420.141 Z" fill="#000000" fill-rule="nonzero" fill-opacity="1" /><path clip-path="url(#clip470)" d="M3710.98 399.794 L3710.98 407.155 L3719.75 407.155 L3719.75 410.465 L3710.98 410.465 L3710.98 424.539 Q3710.98 427.71 3711.84 428.613 Q3712.72 429.516 3715.38 429.516 L3719.75 429.516 L3719.75 433.08 L3715.38 433.08 Q3710.45 433.08 3708.57 431.252 Q3706.7 429.4 3706.7 424.539 L3706.7 410.465 L3703.57 410.465 L3703.57 407.155 L3706.7 407.155 L3706.7 399.794 L3710.98 399.794 Z" fill="#000000" fill-rule="nonzero" fill-opacity="1" /><path clip-path="url(#clip470)" d="M3740.38 411.136 Q3739.66 410.719 3738.8 410.534 Q3737.97 410.326 3736.95 410.326 Q3733.34 410.326 3731.4 412.687 Q3729.47 415.025 3729.47 419.423 L3729.47 433.08 L3725.19 433.08 L3725.19 407.155 L3729.47 407.155 L3729.47 411.182 Q3730.82 408.821 3732.97 407.687 Q3735.12 406.53 3738.2 406.53 Q3738.64 406.53 3739.17 406.599 Q3739.71 406.645 3740.35 406.761 L3740.38 411.136 Z" fill="#000000" fill-rule="nonzero" fill-opacity="1" /><path clip-path="url(#clip470)" d="M3744.41 422.849 L3744.41 407.155 L3748.66 407.155 L3748.66 422.687 Q3748.66 426.367 3750.1 428.219 Q3751.53 430.048 3754.41 430.048 Q3757.85 430.048 3759.85 427.849 Q3761.86 425.65 3761.86 421.854 L3761.86 407.155 L3766.12 407.155 L3766.12 433.08 L3761.86 433.08 L3761.86 429.099 Q3760.31 431.46 3758.25 432.617 Q3756.21 433.752 3753.5 433.752 Q3749.03 433.752 3746.72 430.974 Q3744.41 428.196 3744.41 422.849 M3755.12 406.53 L3755.12 406.53 Z" fill="#000000" fill-rule="nonzero" fill-opacity="1" /><path clip-path="url(#clip470)" d="M3779.1 399.794 L3779.1 407.155 L3787.88 407.155 L3787.88 410.465 L3779.1 410.465 L3779.1 424.539 Q3779.1 427.71 3779.96 428.613 Q3780.84 429.516 3783.5 429.516 L3787.88 429.516 L3787.88 433.08 L3783.5 433.08 Q3778.57 433.08 3776.7 431.252 Q3774.82 429.4 3774.82 424.539 L3774.82 410.465 L3771.7 410.465 L3771.7 407.155 L3774.82 407.155 L3774.82 399.794 L3779.1 399.794 Z" fill="#000000" fill-rule="nonzero" fill-opacity="1" /><path clip-path="url(#clip470)" d="M3815.03 417.432 L3815.03 433.08 L3810.77 433.08 L3810.77 417.571 Q3810.77 413.891 3809.34 412.062 Q3807.9 410.233 3805.03 410.233 Q3801.58 410.233 3799.59 412.432 Q3797.6 414.631 3797.6 418.428 L3797.6 433.08 L3793.32 433.08 L3793.32 397.062 L3797.6 397.062 L3797.6 411.182 Q3799.13 408.844 3801.19 407.687 Q3803.27 406.53 3805.98 406.53 Q3810.45 406.53 3812.74 409.307 Q3815.03 412.062 3815.03 417.432 Z" fill="#000000" fill-rule="nonzero" fill-opacity="1" /><polyline clip-path="url(#clip470)" style="stroke:#ff0000; stroke-linecap:round; stroke-linejoin:round; stroke-width:8; stroke-opacity:0.8; fill:none" points="3227.77,467.64 3474.41,467.64 "/>
<path clip-path="url(#clip470)" d="M3515.52 450.36 L3522.49 450.36 L3531.3 473.879 L3540.17 450.36 L3547.14 450.36 L3547.14 484.92 L3542.58 484.92 L3542.58 454.573 L3533.67 478.277 L3528.97 478.277 L3520.05 454.573 L3520.05 484.92 L3515.52 484.92 L3515.52 450.36 Z" fill="#000000" fill-rule="nonzero" fill-opacity="1" /><path clip-path="url(#clip470)" d="M3561.1 454.203 L3561.1 467.189 L3566.98 467.189 Q3570.24 467.189 3572.02 465.499 Q3573.8 463.809 3573.8 460.684 Q3573.8 457.583 3572.02 455.893 Q3570.24 454.203 3566.98 454.203 L3561.1 454.203 M3556.42 450.36 L3566.98 450.36 Q3572.79 450.36 3575.75 452.999 Q3578.73 455.615 3578.73 460.684 Q3578.73 465.8 3575.75 468.416 Q3572.79 471.032 3566.98 471.032 L3561.1 471.032 L3561.1 484.92 L3556.42 484.92 L3556.42 450.36 Z" fill="#000000" fill-rule="nonzero" fill-opacity="1" /><path clip-path="url(#clip470)" d="M3605.73 451.495 L3605.73 456.055 Q3603.06 454.782 3600.7 454.157 Q3598.34 453.532 3596.14 453.532 Q3592.32 453.532 3590.24 455.013 Q3588.18 456.495 3588.18 459.226 Q3588.18 461.518 3589.55 462.698 Q3590.93 463.856 3594.78 464.573 L3597.6 465.152 Q3602.83 466.147 3605.31 468.67 Q3607.81 471.17 3607.81 475.383 Q3607.81 480.407 3604.43 482.999 Q3601.07 485.592 3594.57 485.592 Q3592.11 485.592 3589.34 485.036 Q3586.58 484.481 3583.62 483.393 L3583.62 478.578 Q3586.47 480.175 3589.2 480.985 Q3591.93 481.795 3594.57 481.795 Q3598.57 481.795 3600.75 480.221 Q3602.92 478.647 3602.92 475.731 Q3602.92 473.184 3601.35 471.749 Q3599.8 470.314 3596.23 469.596 L3593.39 469.041 Q3588.16 467.999 3585.82 465.777 Q3583.48 463.555 3583.48 459.596 Q3583.48 455.013 3586.7 452.374 Q3589.94 449.735 3595.61 449.735 Q3598.04 449.735 3600.56 450.175 Q3603.09 450.615 3605.73 451.495 Z" fill="#000000" fill-rule="nonzero" fill-opacity="1" /><path clip-path="url(#clip470)" d="M3630.17 450.36 L3634.85 450.36 L3634.85 484.92 L3630.17 484.92 L3630.17 450.36 Z" fill="#000000" fill-rule="nonzero" fill-opacity="1" /><path clip-path="url(#clip470)" d="M3665.52 469.272 L3665.52 484.92 L3661.26 484.92 L3661.26 469.411 Q3661.26 465.731 3659.82 463.902 Q3658.39 462.073 3655.52 462.073 Q3652.07 462.073 3650.08 464.272 Q3648.09 466.471 3648.09 470.268 L3648.09 484.92 L3643.8 484.92 L3643.8 458.995 L3648.09 458.995 L3648.09 463.022 Q3649.61 460.684 3651.67 459.527 Q3653.76 458.37 3656.47 458.37 Q3660.93 458.37 3663.23 461.147 Q3665.52 463.902 3665.52 469.272 Z" fill="#000000" fill-rule="nonzero" fill-opacity="1" /><path clip-path="url(#clip470)" d="M3678.23 451.634 L3678.23 458.995 L3687 458.995 L3687 462.305 L3678.23 462.305 L3678.23 476.379 Q3678.23 479.55 3679.08 480.453 Q3679.96 481.356 3682.62 481.356 L3687 481.356 L3687 484.92 L3682.62 484.92 Q3677.69 484.92 3675.82 483.092 Q3673.94 481.24 3673.94 476.379 L3673.94 462.305 L3670.82 462.305 L3670.82 458.995 L3673.94 458.995 L3673.94 451.634 L3678.23 451.634 Z" fill="#000000" fill-rule="nonzero" fill-opacity="1" /><path clip-path="url(#clip470)" d="M3714.78 470.893 L3714.78 472.976 L3695.19 472.976 Q3695.47 477.374 3697.83 479.689 Q3700.22 481.981 3704.45 481.981 Q3706.91 481.981 3709.2 481.379 Q3711.51 480.777 3713.78 479.573 L3713.78 483.601 Q3711.49 484.573 3709.08 485.082 Q3706.67 485.592 3704.2 485.592 Q3697.99 485.592 3694.36 481.981 Q3690.75 478.369 3690.75 472.212 Q3690.75 465.846 3694.17 462.12 Q3697.62 458.37 3703.46 458.37 Q3708.69 458.37 3711.72 461.749 Q3714.78 465.106 3714.78 470.893 M3710.52 469.643 Q3710.47 466.147 3708.55 464.064 Q3706.65 461.981 3703.5 461.981 Q3699.94 461.981 3697.79 463.995 Q3695.66 466.008 3695.33 469.666 L3710.52 469.643 Z" fill="#000000" fill-rule="nonzero" fill-opacity="1" /><path clip-path="url(#clip470)" d="M3736.79 462.976 Q3736.07 462.559 3735.22 462.374 Q3734.38 462.166 3733.36 462.166 Q3729.75 462.166 3727.81 464.527 Q3725.89 466.865 3725.89 471.263 L3725.89 484.92 L3721.6 484.92 L3721.6 458.995 L3725.89 458.995 L3725.89 463.022 Q3727.23 460.661 3729.38 459.527 Q3731.54 458.37 3734.61 458.37 Q3735.05 458.37 3735.59 458.439 Q3736.12 458.485 3736.77 458.601 L3736.79 462.976 Z" fill="#000000" fill-rule="nonzero" fill-opacity="1" /><path clip-path="url(#clip470)" d="M3745.38 481.031 L3745.38 494.781 L3741.1 494.781 L3741.1 458.995 L3745.38 458.995 L3745.38 462.93 Q3746.72 460.615 3748.76 459.504 Q3750.82 458.37 3753.66 458.37 Q3758.39 458.37 3761.33 462.12 Q3764.29 465.87 3764.29 471.981 Q3764.29 478.092 3761.33 481.842 Q3758.39 485.592 3753.66 485.592 Q3750.82 485.592 3748.76 484.481 Q3746.72 483.346 3745.38 481.031 M3759.87 471.981 Q3759.87 467.282 3757.92 464.62 Q3756 461.934 3752.62 461.934 Q3749.24 461.934 3747.3 464.62 Q3745.38 467.282 3745.38 471.981 Q3745.38 476.68 3747.3 479.365 Q3749.24 482.027 3752.62 482.027 Q3756 482.027 3757.92 479.365 Q3759.87 476.68 3759.87 471.981 Z" fill="#000000" fill-rule="nonzero" fill-opacity="1" /><path clip-path="url(#clip470)" d="M3781.4 461.981 Q3777.97 461.981 3775.98 464.666 Q3773.99 467.328 3773.99 471.981 Q3773.99 476.633 3775.96 479.319 Q3777.95 481.981 3781.4 481.981 Q3784.8 481.981 3786.79 479.295 Q3788.78 476.61 3788.78 471.981 Q3788.78 467.374 3786.79 464.689 Q3784.8 461.981 3781.4 461.981 M3781.4 458.37 Q3786.95 458.37 3790.12 461.981 Q3793.29 465.592 3793.29 471.981 Q3793.29 478.346 3790.12 481.981 Q3786.95 485.592 3781.4 485.592 Q3775.82 485.592 3772.65 481.981 Q3769.5 478.346 3769.5 471.981 Q3769.5 465.592 3772.65 461.981 Q3775.82 458.37 3781.4 458.37 Z" fill="#000000" fill-rule="nonzero" fill-opacity="1" /><path clip-path="url(#clip470)" d="M3800.35 448.902 L3804.61 448.902 L3804.61 484.92 L3800.35 484.92 L3800.35 448.902 Z" fill="#000000" fill-rule="nonzero" fill-opacity="1" /><path clip-path="url(#clip470)" d="M3825.31 471.888 Q3820.15 471.888 3818.15 473.069 Q3816.16 474.249 3816.16 477.096 Q3816.16 479.365 3817.65 480.707 Q3819.15 482.027 3821.72 482.027 Q3825.26 482.027 3827.39 479.527 Q3829.54 477.004 3829.54 472.837 L3829.54 471.888 L3825.31 471.888 M3833.8 470.129 L3833.8 484.92 L3829.54 484.92 L3829.54 480.985 Q3828.09 483.346 3825.91 484.481 Q3823.73 485.592 3820.59 485.592 Q3816.6 485.592 3814.24 483.369 Q3811.9 481.124 3811.9 477.374 Q3811.9 472.999 3814.82 470.777 Q3817.76 468.555 3823.57 468.555 L3829.54 468.555 L3829.54 468.138 Q3829.54 465.198 3827.6 463.601 Q3825.68 461.981 3822.18 461.981 Q3819.96 461.981 3817.85 462.513 Q3815.75 463.045 3813.8 464.11 L3813.8 460.175 Q3816.14 459.272 3818.34 458.833 Q3820.54 458.37 3822.62 458.37 Q3828.25 458.37 3831.03 461.286 Q3833.8 464.203 3833.8 470.129 Z" fill="#000000" fill-rule="nonzero" fill-opacity="1" /><path clip-path="url(#clip470)" d="M3846.79 451.634 L3846.79 458.995 L3855.56 458.995 L3855.56 462.305 L3846.79 462.305 L3846.79 476.379 Q3846.79 479.55 3847.65 480.453 Q3848.53 481.356 3851.19 481.356 L3855.56 481.356 L3855.56 484.92 L3851.19 484.92 Q3846.26 484.92 3844.38 483.092 Q3842.51 481.24 3842.51 476.379 L3842.51 462.305 L3839.38 462.305 L3839.38 458.995 L3842.51 458.995 L3842.51 451.634 L3846.79 451.634 Z" fill="#000000" fill-rule="nonzero" fill-opacity="1" /><path clip-path="url(#clip470)" d="M3883.34 470.893 L3883.34 472.976 L3863.76 472.976 Q3864.03 477.374 3866.4 479.689 Q3868.78 481.981 3873.02 481.981 Q3875.47 481.981 3877.76 481.379 Q3880.08 480.777 3882.34 479.573 L3882.34 483.601 Q3880.05 484.573 3877.65 485.082 Q3875.24 485.592 3872.76 485.592 Q3866.56 485.592 3862.92 481.981 Q3859.31 478.369 3859.31 472.212 Q3859.31 465.846 3862.74 462.12 Q3866.19 458.37 3872.02 458.37 Q3877.25 458.37 3880.28 461.749 Q3883.34 465.106 3883.34 470.893 M3879.08 469.643 Q3879.03 466.147 3877.11 464.064 Q3875.21 461.981 3872.07 461.981 Q3868.5 461.981 3866.35 463.995 Q3864.22 466.008 3863.9 469.666 L3879.08 469.643 Z" fill="#000000" fill-rule="nonzero" fill-opacity="1" /><path clip-path="url(#clip470)" d="M3907.39 462.93 L3907.39 448.902 L3911.65 448.902 L3911.65 484.92 L3907.39 484.92 L3907.39 481.031 Q3906.05 483.346 3903.99 484.481 Q3901.95 485.592 3899.08 485.592 Q3894.38 485.592 3891.42 481.842 Q3888.48 478.092 3888.48 471.981 Q3888.48 465.87 3891.42 462.12 Q3894.38 458.37 3899.08 458.37 Q3901.95 458.37 3903.99 459.504 Q3906.05 460.615 3907.39 462.93 M3892.88 471.981 Q3892.88 476.68 3894.8 479.365 Q3896.74 482.027 3900.12 482.027 Q3903.5 482.027 3905.45 479.365 Q3907.39 476.68 3907.39 471.981 Q3907.39 467.282 3905.45 464.62 Q3903.5 461.934 3900.12 461.934 Q3896.74 461.934 3894.8 464.62 Q3892.88 467.282 3892.88 471.981 Z" fill="#000000" fill-rule="nonzero" fill-opacity="1" /></svg>
