<?xml version="1.0" encoding="utf-8"?>
<svg xmlns="http://www.w3.org/2000/svg" xmlns:xlink="http://www.w3.org/1999/xlink" width="600" height="400" viewBox="0 0 2400 1600">
<defs>
  <clipPath id="clip790">
    <rect x="0" y="0" width="2400" height="1600"/>
  </clipPath>
</defs>
<path clip-path="url(#clip790)" d="M0 1600 L2400 1600 L2400 8.88178e-14 L0 8.88178e-14  Z" fill="#ffffff" fill-rule="evenodd" fill-opacity="1"/>
<defs>
  <clipPath id="clip791">
    <rect x="480" y="0" width="1681" height="1600"/>
  </clipPath>
</defs>
<path clip-path="url(#clip790)" d="M250.028 1423.18 L2352.76 1423.18 L2352.76 47.2441 L250.028 47.2441  Z" fill="#ffffff" fill-rule="evenodd" fill-opacity="1"/>
<defs>
  <clipPath id="clip792">
    <rect x="250" y="47" width="2104" height="1377"/>
  </clipPath>
</defs>
<polyline clip-path="url(#clip792)" style="stroke:#000000; stroke-linecap:round; stroke-linejoin:round; stroke-width:2; stroke-opacity:0.1; fill:none" points="309.539,1423.18 309.539,47.2441 "/>
<polyline clip-path="url(#clip792)" style="stroke:#000000; stroke-linecap:round; stroke-linejoin:round; stroke-width:2; stroke-opacity:0.1; fill:none" points="545.695,1423.18 545.695,47.2441 "/>
<polyline clip-path="url(#clip792)" style="stroke:#000000; stroke-linecap:round; stroke-linejoin:round; stroke-width:2; stroke-opacity:0.1; fill:none" points="781.85,1423.18 781.85,47.2441 "/>
<polyline clip-path="url(#clip792)" style="stroke:#000000; stroke-linecap:round; stroke-linejoin:round; stroke-width:2; stroke-opacity:0.1; fill:none" points="1018.01,1423.18 1018.01,47.2441 "/>
<polyline clip-path="url(#clip792)" style="stroke:#000000; stroke-linecap:round; stroke-linejoin:round; stroke-width:2; stroke-opacity:0.1; fill:none" points="1254.16,1423.18 1254.16,47.2441 "/>
<polyline clip-path="url(#clip792)" style="stroke:#000000; stroke-linecap:round; stroke-linejoin:round; stroke-width:2; stroke-opacity:0.1; fill:none" points="1490.32,1423.18 1490.32,47.2441 "/>
<polyline clip-path="url(#clip792)" style="stroke:#000000; stroke-linecap:round; stroke-linejoin:round; stroke-width:2; stroke-opacity:0.1; fill:none" points="1726.47,1423.18 1726.47,47.2441 "/>
<polyline clip-path="url(#clip792)" style="stroke:#000000; stroke-linecap:round; stroke-linejoin:round; stroke-width:2; stroke-opacity:0.1; fill:none" points="1962.63,1423.18 1962.63,47.2441 "/>
<polyline clip-path="url(#clip792)" style="stroke:#000000; stroke-linecap:round; stroke-linejoin:round; stroke-width:2; stroke-opacity:0.1; fill:none" points="2198.78,1423.18 2198.78,47.2441 "/>
<polyline clip-path="url(#clip792)" style="stroke:#000000; stroke-linecap:round; stroke-linejoin:round; stroke-width:2; stroke-opacity:0.1; fill:none" points="2352.76,1344.26 250.028,1344.26 "/>
<polyline clip-path="url(#clip792)" style="stroke:#000000; stroke-linecap:round; stroke-linejoin:round; stroke-width:2; stroke-opacity:0.1; fill:none" points="2352.76,1041.27 250.028,1041.27 "/>
<polyline clip-path="url(#clip792)" style="stroke:#000000; stroke-linecap:round; stroke-linejoin:round; stroke-width:2; stroke-opacity:0.1; fill:none" points="2352.76,738.286 250.028,738.286 "/>
<polyline clip-path="url(#clip792)" style="stroke:#000000; stroke-linecap:round; stroke-linejoin:round; stroke-width:2; stroke-opacity:0.1; fill:none" points="2352.76,435.301 250.028,435.301 "/>
<polyline clip-path="url(#clip792)" style="stroke:#000000; stroke-linecap:round; stroke-linejoin:round; stroke-width:2; stroke-opacity:0.1; fill:none" points="2352.76,132.316 250.028,132.316 "/>
<polyline clip-path="url(#clip790)" style="stroke:#000000; stroke-linecap:round; stroke-linejoin:round; stroke-width:4; stroke-opacity:1; fill:none" points="2352.76,1423.18 250.028,1423.18 "/>
<polyline clip-path="url(#clip790)" style="stroke:#000000; stroke-linecap:round; stroke-linejoin:round; stroke-width:4; stroke-opacity:1; fill:none" points="309.539,1423.18 309.539,1404.28 "/>
<polyline clip-path="url(#clip790)" style="stroke:#000000; stroke-linecap:round; stroke-linejoin:round; stroke-width:4; stroke-opacity:1; fill:none" points="545.695,1423.18 545.695,1404.28 "/>
<polyline clip-path="url(#clip790)" style="stroke:#000000; stroke-linecap:round; stroke-linejoin:round; stroke-width:4; stroke-opacity:1; fill:none" points="781.85,1423.18 781.85,1404.28 "/>
<polyline clip-path="url(#clip790)" style="stroke:#000000; stroke-linecap:round; stroke-linejoin:round; stroke-width:4; stroke-opacity:1; fill:none" points="1018.01,1423.18 1018.01,1404.28 "/>
<polyline clip-path="url(#clip790)" style="stroke:#000000; stroke-linecap:round; stroke-linejoin:round; stroke-width:4; stroke-opacity:1; fill:none" points="1254.16,1423.18 1254.16,1404.28 "/>
<polyline clip-path="url(#clip790)" style="stroke:#000000; stroke-linecap:round; stroke-linejoin:round; stroke-width:4; stroke-opacity:1; fill:none" points="1490.32,1423.18 1490.32,1404.28 "/>
<polyline clip-path="url(#clip790)" style="stroke:#000000; stroke-linecap:round; stroke-linejoin:round; stroke-width:4; stroke-opacity:1; fill:none" points="1726.47,1423.18 1726.47,1404.28 "/>
<polyline clip-path="url(#clip790)" style="stroke:#000000; stroke-linecap:round; stroke-linejoin:round; stroke-width:4; stroke-opacity:1; fill:none" points="1962.63,1423.18 1962.63,1404.28 "/>
<polyline clip-path="url(#clip790)" style="stroke:#000000; stroke-linecap:round; stroke-linejoin:round; stroke-width:4; stroke-opacity:1; fill:none" points="2198.78,1423.18 2198.78,1404.28 "/>
<path clip-path="url(#clip790)" d="M284.667 1484.86 L284.667 1480.6 Q286.426 1481.44 288.232 1481.88 Q290.037 1482.32 291.773 1482.32 Q296.403 1482.32 298.833 1479.21 Q301.287 1476.09 301.634 1469.75 Q300.292 1471.74 298.231 1472.8 Q296.171 1473.87 293.671 1473.87 Q288.486 1473.87 285.454 1470.74 Q282.445 1467.59 282.445 1462.15 Q282.445 1456.83 285.593 1453.61 Q288.741 1450.39 293.972 1450.39 Q299.968 1450.39 303.116 1455 Q306.287 1459.58 306.287 1468.33 Q306.287 1476.51 302.398 1481.39 Q298.532 1486.25 291.982 1486.25 Q290.222 1486.25 288.417 1485.9 Q286.611 1485.56 284.667 1484.86 M293.972 1470.21 Q297.12 1470.21 298.949 1468.06 Q300.801 1465.9 300.801 1462.15 Q300.801 1458.43 298.949 1456.27 Q297.12 1454.1 293.972 1454.1 Q290.824 1454.1 288.972 1456.27 Q287.144 1458.43 287.144 1462.15 Q287.144 1465.9 288.972 1468.06 Q290.824 1470.21 293.972 1470.21 Z" fill="#000000" fill-rule="nonzero" fill-opacity="1" /><path clip-path="url(#clip790)" d="M324.69 1454.1 Q321.079 1454.1 319.25 1457.66 Q317.444 1461.2 317.444 1468.33 Q317.444 1475.44 319.25 1479.01 Q321.079 1482.55 324.69 1482.55 Q328.324 1482.55 330.129 1479.01 Q331.958 1475.44 331.958 1468.33 Q331.958 1461.2 330.129 1457.66 Q328.324 1454.1 324.69 1454.1 M324.69 1450.39 Q330.5 1450.39 333.555 1455 Q336.634 1459.58 336.634 1468.33 Q336.634 1477.06 333.555 1481.67 Q330.5 1486.25 324.69 1486.25 Q318.88 1486.25 315.801 1481.67 Q312.745 1477.06 312.745 1468.33 Q312.745 1459.58 315.801 1455 Q318.88 1450.39 324.69 1450.39 Z" fill="#000000" fill-rule="nonzero" fill-opacity="1" /><path clip-path="url(#clip790)" d="M530.567 1469.17 Q527.234 1469.17 525.313 1470.95 Q523.415 1472.73 523.415 1475.86 Q523.415 1478.98 525.313 1480.77 Q527.234 1482.55 530.567 1482.55 Q533.901 1482.55 535.822 1480.77 Q537.743 1478.96 537.743 1475.86 Q537.743 1472.73 535.822 1470.95 Q533.924 1469.17 530.567 1469.17 M525.892 1467.18 Q522.882 1466.44 521.193 1464.38 Q519.526 1462.32 519.526 1459.35 Q519.526 1455.21 522.466 1452.8 Q525.429 1450.39 530.567 1450.39 Q535.729 1450.39 538.669 1452.8 Q541.609 1455.21 541.609 1459.35 Q541.609 1462.32 539.919 1464.38 Q538.253 1466.44 535.267 1467.18 Q538.646 1467.96 540.521 1470.26 Q542.419 1472.55 542.419 1475.86 Q542.419 1480.88 539.341 1483.57 Q536.285 1486.25 530.567 1486.25 Q524.85 1486.25 521.771 1483.57 Q518.716 1480.88 518.716 1475.86 Q518.716 1472.55 520.614 1470.26 Q522.512 1467.96 525.892 1467.18 M524.179 1459.79 Q524.179 1462.48 525.845 1463.98 Q527.535 1465.49 530.567 1465.49 Q533.577 1465.49 535.267 1463.98 Q536.979 1462.48 536.979 1459.79 Q536.979 1457.11 535.267 1455.6 Q533.577 1454.1 530.567 1454.1 Q527.535 1454.1 525.845 1455.6 Q524.179 1457.11 524.179 1459.79 Z" fill="#000000" fill-rule="nonzero" fill-opacity="1" /><path clip-path="url(#clip790)" d="M560.729 1454.1 Q557.118 1454.1 555.29 1457.66 Q553.484 1461.2 553.484 1468.33 Q553.484 1475.44 555.29 1479.01 Q557.118 1482.55 560.729 1482.55 Q564.364 1482.55 566.169 1479.01 Q567.998 1475.44 567.998 1468.33 Q567.998 1461.2 566.169 1457.66 Q564.364 1454.1 560.729 1454.1 M560.729 1450.39 Q566.54 1450.39 569.595 1455 Q572.674 1459.58 572.674 1468.33 Q572.674 1477.06 569.595 1481.67 Q566.54 1486.25 560.729 1486.25 Q554.919 1486.25 551.841 1481.67 Q548.785 1477.06 548.785 1468.33 Q548.785 1459.58 551.841 1455 Q554.919 1450.39 560.729 1450.39 Z" fill="#000000" fill-rule="nonzero" fill-opacity="1" /><path clip-path="url(#clip790)" d="M755.207 1451.02 L777.429 1451.02 L777.429 1453.01 L764.883 1485.58 L759.998 1485.58 L771.804 1454.96 L755.207 1454.96 L755.207 1451.02 Z" fill="#000000" fill-rule="nonzero" fill-opacity="1" /><path clip-path="url(#clip790)" d="M796.549 1454.1 Q792.938 1454.1 791.109 1457.66 Q789.304 1461.2 789.304 1468.33 Q789.304 1475.44 791.109 1479.01 Q792.938 1482.55 796.549 1482.55 Q800.183 1482.55 801.989 1479.01 Q803.818 1475.44 803.818 1468.33 Q803.818 1461.2 801.989 1457.66 Q800.183 1454.1 796.549 1454.1 M796.549 1450.39 Q802.359 1450.39 805.415 1455 Q808.493 1459.58 808.493 1468.33 Q808.493 1477.06 805.415 1481.67 Q802.359 1486.25 796.549 1486.25 Q790.739 1486.25 787.66 1481.67 Q784.605 1477.06 784.605 1468.33 Q784.605 1459.58 787.66 1455 Q790.739 1450.39 796.549 1450.39 Z" fill="#000000" fill-rule="nonzero" fill-opacity="1" /><path clip-path="url(#clip790)" d="M1003.41 1466.44 Q1000.26 1466.44 998.411 1468.59 Q996.582 1470.74 996.582 1474.49 Q996.582 1478.22 998.411 1480.39 Q1000.26 1482.55 1003.41 1482.55 Q1006.56 1482.55 1008.39 1480.39 Q1010.24 1478.22 1010.24 1474.49 Q1010.24 1470.74 1008.39 1468.59 Q1006.56 1466.44 1003.41 1466.44 M1012.69 1451.78 L1012.69 1456.04 Q1010.93 1455.21 1009.13 1454.77 Q1007.35 1454.33 1005.59 1454.33 Q1000.96 1454.33 998.503 1457.45 Q996.073 1460.58 995.726 1466.9 Q997.091 1464.89 999.151 1463.82 Q1001.21 1462.73 1003.69 1462.73 Q1008.9 1462.73 1011.91 1465.9 Q1014.94 1469.05 1014.94 1474.49 Q1014.94 1479.82 1011.79 1483.03 Q1008.64 1486.25 1003.41 1486.25 Q997.415 1486.25 994.244 1481.67 Q991.073 1477.06 991.073 1468.33 Q991.073 1460.14 994.962 1455.28 Q998.851 1450.39 1005.4 1450.39 Q1007.16 1450.39 1008.94 1450.74 Q1010.75 1451.09 1012.69 1451.78 Z" fill="#000000" fill-rule="nonzero" fill-opacity="1" /><path clip-path="url(#clip790)" d="M1032.99 1454.1 Q1029.38 1454.1 1027.55 1457.66 Q1025.75 1461.2 1025.75 1468.33 Q1025.75 1475.44 1027.55 1479.01 Q1029.38 1482.55 1032.99 1482.55 Q1036.63 1482.55 1038.43 1479.01 Q1040.26 1475.44 1040.26 1468.33 Q1040.26 1461.2 1038.43 1457.66 Q1036.63 1454.1 1032.99 1454.1 M1032.99 1450.39 Q1038.8 1450.39 1041.86 1455 Q1044.94 1459.58 1044.94 1468.33 Q1044.94 1477.06 1041.86 1481.67 Q1038.8 1486.25 1032.99 1486.25 Q1027.18 1486.25 1024.11 1481.67 Q1021.05 1477.06 1021.05 1468.33 Q1021.05 1459.58 1024.11 1455 Q1027.18 1450.39 1032.99 1450.39 Z" fill="#000000" fill-rule="nonzero" fill-opacity="1" /><path clip-path="url(#clip790)" d="M1228.86 1451.02 L1247.22 1451.02 L1247.22 1454.96 L1233.14 1454.96 L1233.14 1463.43 Q1234.16 1463.08 1235.18 1462.92 Q1236.2 1462.73 1237.22 1462.73 Q1243 1462.73 1246.38 1465.9 Q1249.76 1469.08 1249.76 1474.49 Q1249.76 1480.07 1246.29 1483.17 Q1242.82 1486.25 1236.5 1486.25 Q1234.32 1486.25 1232.05 1485.88 Q1229.81 1485.51 1227.4 1484.77 L1227.4 1480.07 Q1229.49 1481.2 1231.71 1481.76 Q1233.93 1482.32 1236.41 1482.32 Q1240.41 1482.32 1242.75 1480.21 Q1245.09 1478.1 1245.09 1474.49 Q1245.09 1470.88 1242.75 1468.77 Q1240.41 1466.67 1236.41 1466.67 Q1234.53 1466.67 1232.66 1467.08 Q1230.8 1467.5 1228.86 1468.38 L1228.86 1451.02 Z" fill="#000000" fill-rule="nonzero" fill-opacity="1" /><path clip-path="url(#clip790)" d="M1268.98 1454.1 Q1265.36 1454.1 1263.54 1457.66 Q1261.73 1461.2 1261.73 1468.33 Q1261.73 1475.44 1263.54 1479.01 Q1265.36 1482.55 1268.98 1482.55 Q1272.61 1482.55 1274.42 1479.01 Q1276.24 1475.44 1276.24 1468.33 Q1276.24 1461.2 1274.42 1457.66 Q1272.61 1454.1 1268.98 1454.1 M1268.98 1450.39 Q1274.79 1450.39 1277.84 1455 Q1280.92 1459.58 1280.92 1468.33 Q1280.92 1477.06 1277.84 1481.67 Q1274.79 1486.25 1268.98 1486.25 Q1263.17 1486.25 1260.09 1481.67 Q1257.03 1477.06 1257.03 1468.33 Q1257.03 1459.58 1260.09 1455 Q1263.17 1450.39 1268.98 1450.39 Z" fill="#000000" fill-rule="nonzero" fill-opacity="1" /><path clip-path="url(#clip790)" d="M1478.49 1455.09 L1466.68 1473.54 L1478.49 1473.54 L1478.49 1455.09 M1477.26 1451.02 L1483.14 1451.02 L1483.14 1473.54 L1488.07 1473.54 L1488.07 1477.43 L1483.14 1477.43 L1483.14 1485.58 L1478.49 1485.58 L1478.49 1477.43 L1462.89 1477.43 L1462.89 1472.92 L1477.26 1451.02 Z" fill="#000000" fill-rule="nonzero" fill-opacity="1" /><path clip-path="url(#clip790)" d="M1505.8 1454.1 Q1502.19 1454.1 1500.36 1457.66 Q1498.56 1461.2 1498.56 1468.33 Q1498.56 1475.44 1500.36 1479.01 Q1502.19 1482.55 1505.8 1482.55 Q1509.44 1482.55 1511.24 1479.01 Q1513.07 1475.44 1513.07 1468.33 Q1513.07 1461.2 1511.24 1457.66 Q1509.44 1454.1 1505.8 1454.1 M1505.8 1450.39 Q1511.61 1450.39 1514.67 1455 Q1517.75 1459.58 1517.75 1468.33 Q1517.75 1477.06 1514.67 1481.67 Q1511.61 1486.25 1505.8 1486.25 Q1499.99 1486.25 1496.91 1481.67 Q1493.86 1477.06 1493.86 1468.33 Q1493.86 1459.58 1496.91 1455 Q1499.99 1450.39 1505.8 1450.39 Z" fill="#000000" fill-rule="nonzero" fill-opacity="1" /><path clip-path="url(#clip790)" d="M1715.31 1466.95 Q1718.67 1467.66 1720.55 1469.93 Q1722.44 1472.2 1722.44 1475.53 Q1722.44 1480.65 1718.93 1483.45 Q1715.41 1486.25 1708.93 1486.25 Q1706.75 1486.25 1704.43 1485.81 Q1702.14 1485.39 1699.69 1484.54 L1699.69 1480.02 Q1701.63 1481.16 1703.95 1481.74 Q1706.26 1482.32 1708.79 1482.32 Q1713.18 1482.32 1715.48 1480.58 Q1717.79 1478.84 1717.79 1475.53 Q1717.79 1472.48 1715.64 1470.77 Q1713.51 1469.03 1709.69 1469.03 L1705.66 1469.03 L1705.66 1465.19 L1709.87 1465.19 Q1713.32 1465.19 1715.15 1463.82 Q1716.98 1462.43 1716.98 1459.84 Q1716.98 1457.18 1715.08 1455.77 Q1713.21 1454.33 1709.69 1454.33 Q1707.77 1454.33 1705.57 1454.75 Q1703.37 1455.16 1700.73 1456.04 L1700.73 1451.88 Q1703.39 1451.14 1705.71 1450.77 Q1708.05 1450.39 1710.11 1450.39 Q1715.43 1450.39 1718.53 1452.83 Q1721.63 1455.23 1721.63 1459.35 Q1721.63 1462.22 1719.99 1464.21 Q1718.35 1466.18 1715.31 1466.95 Z" fill="#000000" fill-rule="nonzero" fill-opacity="1" /><path clip-path="url(#clip790)" d="M1741.31 1454.1 Q1737.7 1454.1 1735.87 1457.66 Q1734.06 1461.2 1734.06 1468.33 Q1734.06 1475.44 1735.87 1479.01 Q1737.7 1482.55 1741.31 1482.55 Q1744.94 1482.55 1746.75 1479.01 Q1748.58 1475.44 1748.58 1468.33 Q1748.58 1461.2 1746.75 1457.66 Q1744.94 1454.1 1741.31 1454.1 M1741.31 1450.39 Q1747.12 1450.39 1750.18 1455 Q1753.25 1459.58 1753.25 1468.33 Q1753.25 1477.06 1750.18 1481.67 Q1747.12 1486.25 1741.31 1486.25 Q1735.5 1486.25 1732.42 1481.67 Q1729.37 1477.06 1729.37 1468.33 Q1729.37 1459.58 1732.42 1455 Q1735.5 1450.39 1741.31 1450.39 Z" fill="#000000" fill-rule="nonzero" fill-opacity="1" /><path clip-path="url(#clip790)" d="M1941.4 1481.64 L1957.72 1481.64 L1957.72 1485.58 L1935.78 1485.58 L1935.78 1481.64 Q1938.44 1478.89 1943.02 1474.26 Q1947.63 1469.61 1948.81 1468.27 Q1951.05 1465.74 1951.93 1464.01 Q1952.84 1462.25 1952.84 1460.56 Q1952.84 1457.8 1950.89 1456.07 Q1948.97 1454.33 1945.87 1454.33 Q1943.67 1454.33 1941.22 1455.09 Q1938.78 1455.86 1936.01 1457.41 L1936.01 1452.69 Q1938.83 1451.55 1941.28 1450.97 Q1943.74 1450.39 1945.78 1450.39 Q1951.15 1450.39 1954.34 1453.08 Q1957.53 1455.77 1957.53 1460.26 Q1957.53 1462.39 1956.72 1464.31 Q1955.94 1466.2 1953.83 1468.8 Q1953.25 1469.47 1950.15 1472.69 Q1947.05 1475.88 1941.4 1481.64 Z" fill="#000000" fill-rule="nonzero" fill-opacity="1" /><path clip-path="url(#clip790)" d="M1977.53 1454.1 Q1973.92 1454.1 1972.09 1457.66 Q1970.29 1461.2 1970.29 1468.33 Q1970.29 1475.44 1972.09 1479.01 Q1973.92 1482.55 1977.53 1482.55 Q1981.17 1482.55 1982.97 1479.01 Q1984.8 1475.44 1984.8 1468.33 Q1984.8 1461.2 1982.97 1457.66 Q1981.17 1454.1 1977.53 1454.1 M1977.53 1450.39 Q1983.34 1450.39 1986.4 1455 Q1989.48 1459.58 1989.48 1468.33 Q1989.48 1477.06 1986.4 1481.67 Q1983.34 1486.25 1977.53 1486.25 Q1971.72 1486.25 1968.65 1481.67 Q1965.59 1477.06 1965.59 1468.33 Q1965.59 1459.58 1968.65 1455 Q1971.72 1450.39 1977.53 1450.39 Z" fill="#000000" fill-rule="nonzero" fill-opacity="1" /><path clip-path="url(#clip790)" d="M2173.47 1481.64 L2181.11 1481.64 L2181.11 1455.28 L2172.8 1456.95 L2172.8 1452.69 L2181.06 1451.02 L2185.74 1451.02 L2185.74 1481.64 L2193.38 1481.64 L2193.38 1485.58 L2173.47 1485.58 L2173.47 1481.64 Z" fill="#000000" fill-rule="nonzero" fill-opacity="1" /><path clip-path="url(#clip790)" d="M2212.82 1454.1 Q2209.21 1454.1 2207.38 1457.66 Q2205.58 1461.2 2205.58 1468.33 Q2205.58 1475.44 2207.38 1479.01 Q2209.21 1482.55 2212.82 1482.55 Q2216.46 1482.55 2218.26 1479.01 Q2220.09 1475.44 2220.09 1468.33 Q2220.09 1461.2 2218.26 1457.66 Q2216.46 1454.1 2212.82 1454.1 M2212.82 1450.39 Q2218.63 1450.39 2221.69 1455 Q2224.77 1459.58 2224.77 1468.33 Q2224.77 1477.06 2221.69 1481.67 Q2218.63 1486.25 2212.82 1486.25 Q2207.01 1486.25 2203.93 1481.67 Q2200.88 1477.06 2200.88 1468.33 Q2200.88 1459.58 2203.93 1455 Q2207.01 1450.39 2212.82 1450.39 Z" fill="#000000" fill-rule="nonzero" fill-opacity="1" /><path clip-path="url(#clip790)" d="M1099.68 1547.13 Q1096.91 1547.13 1095.32 1549.49 Q1093.76 1551.84 1093.76 1556.04 Q1093.76 1560.18 1095.32 1562.57 Q1096.91 1564.92 1099.68 1564.92 Q1102.38 1564.92 1103.94 1562.57 Q1105.54 1560.18 1105.54 1556.04 Q1105.54 1551.87 1103.94 1549.52 Q1102.38 1547.13 1099.68 1547.13 M1099.68 1543.09 Q1104.71 1543.09 1107.67 1546.59 Q1110.63 1550.09 1110.63 1556.04 Q1110.63 1562 1107.64 1565.5 Q1104.68 1568.97 1099.68 1568.97 Q1094.59 1568.97 1091.63 1565.5 Q1088.67 1562 1088.67 1556.04 Q1088.67 1550.06 1091.63 1546.59 Q1094.62 1543.09 1099.68 1543.09 M1066.83 1523.71 Q1064.09 1523.71 1062.5 1526.09 Q1060.94 1528.45 1060.94 1532.59 Q1060.94 1536.79 1062.5 1539.14 Q1064.06 1541.5 1066.83 1541.5 Q1069.6 1541.5 1071.16 1539.14 Q1072.75 1536.79 1072.75 1532.59 Q1072.75 1528.48 1071.16 1526.09 Q1069.57 1523.71 1066.83 1523.71 M1095.57 1519.66 L1100.67 1519.66 L1070.94 1568.97 L1065.84 1568.97 L1095.57 1519.66 M1066.83 1519.66 Q1071.86 1519.66 1074.85 1523.17 Q1077.84 1526.63 1077.84 1532.59 Q1077.84 1538.6 1074.85 1542.07 Q1071.89 1545.54 1066.83 1545.54 Q1061.77 1545.54 1058.81 1542.07 Q1055.88 1538.57 1055.88 1532.59 Q1055.88 1526.67 1058.84 1523.17 Q1061.8 1519.66 1066.83 1519.66 Z" fill="#000000" fill-rule="nonzero" fill-opacity="1" /><path clip-path="url(#clip790)" d="M1168.84 1539.24 Q1171.04 1535.29 1174.09 1533.41 Q1177.15 1531.54 1181.29 1531.54 Q1186.86 1531.54 1189.88 1535.45 Q1192.9 1539.33 1192.9 1546.53 L1192.9 1568.04 L1187.02 1568.04 L1187.02 1546.72 Q1187.02 1541.59 1185.2 1539.11 Q1183.39 1536.63 1179.66 1536.63 Q1175.11 1536.63 1172.47 1539.65 Q1169.83 1542.68 1169.83 1547.9 L1169.83 1568.04 L1163.94 1568.04 L1163.94 1546.72 Q1163.94 1541.56 1162.13 1539.11 Q1160.31 1536.63 1156.52 1536.63 Q1152.04 1536.63 1149.39 1539.68 Q1146.75 1542.71 1146.75 1547.9 L1146.75 1568.04 L1140.86 1568.04 L1140.86 1532.4 L1146.75 1532.4 L1146.75 1537.93 Q1148.76 1534.66 1151.56 1533.1 Q1154.36 1531.54 1158.21 1531.54 Q1162.09 1531.54 1164.8 1533.51 Q1167.54 1535.48 1168.84 1539.24 Z" fill="#000000" fill-rule="nonzero" fill-opacity="1" /><path clip-path="url(#clip790)" d="M1204.59 1532.4 L1210.44 1532.4 L1210.44 1568.04 L1204.59 1568.04 L1204.59 1532.4 M1204.59 1518.52 L1210.44 1518.52 L1210.44 1525.93 L1204.59 1525.93 L1204.59 1518.52 Z" fill="#000000" fill-rule="nonzero" fill-opacity="1" /><path clip-path="url(#clip790)" d="M1245.42 1533.45 L1245.42 1538.98 Q1242.94 1537.71 1240.27 1537.07 Q1237.59 1536.44 1234.73 1536.44 Q1230.37 1536.44 1228.17 1537.77 Q1226.01 1539.11 1226.01 1541.79 Q1226.01 1543.82 1227.57 1545 Q1229.13 1546.15 1233.84 1547.2 L1235.84 1547.64 Q1242.08 1548.98 1244.69 1551.43 Q1247.33 1553.85 1247.33 1558.21 Q1247.33 1563.17 1243.38 1566.07 Q1239.47 1568.97 1232.59 1568.97 Q1229.73 1568.97 1226.61 1568.39 Q1223.52 1567.85 1220.09 1566.74 L1220.09 1560.69 Q1223.33 1562.38 1226.48 1563.24 Q1229.63 1564.07 1232.72 1564.07 Q1236.86 1564.07 1239.09 1562.66 Q1241.32 1561.23 1241.32 1558.65 Q1241.32 1556.27 1239.69 1554.99 Q1238.1 1553.72 1232.66 1552.54 L1230.62 1552.07 Q1225.18 1550.92 1222.76 1548.56 Q1220.34 1546.18 1220.34 1542.04 Q1220.34 1537.01 1223.91 1534.27 Q1227.47 1531.54 1234.03 1531.54 Q1237.27 1531.54 1240.14 1532.01 Q1243 1532.49 1245.42 1533.45 Z" fill="#000000" fill-rule="nonzero" fill-opacity="1" /><path clip-path="url(#clip790)" d="M1279.38 1533.45 L1279.38 1538.98 Q1276.9 1537.71 1274.23 1537.07 Q1271.55 1536.44 1268.69 1536.44 Q1264.33 1536.44 1262.13 1537.77 Q1259.97 1539.11 1259.97 1541.79 Q1259.97 1543.82 1261.53 1545 Q1263.09 1546.15 1267.8 1547.2 L1269.8 1547.64 Q1276.04 1548.98 1278.65 1551.43 Q1281.29 1553.85 1281.29 1558.21 Q1281.29 1563.17 1277.35 1566.07 Q1273.43 1568.97 1266.56 1568.97 Q1263.69 1568.97 1260.57 1568.39 Q1257.48 1567.85 1254.05 1566.74 L1254.05 1560.69 Q1257.29 1562.38 1260.44 1563.24 Q1263.6 1564.07 1266.68 1564.07 Q1270.82 1564.07 1273.05 1562.66 Q1275.28 1561.23 1275.28 1558.65 Q1275.28 1556.27 1273.65 1554.99 Q1272.06 1553.72 1266.62 1552.54 L1264.58 1552.07 Q1259.14 1550.92 1256.72 1548.56 Q1254.3 1546.18 1254.3 1542.04 Q1254.3 1537.01 1257.87 1534.27 Q1261.43 1531.54 1267.99 1531.54 Q1271.23 1531.54 1274.1 1532.01 Q1276.96 1532.49 1279.38 1533.45 Z" fill="#000000" fill-rule="nonzero" fill-opacity="1" /><path clip-path="url(#clip790)" d="M1290.62 1532.4 L1296.47 1532.4 L1296.47 1568.04 L1290.62 1568.04 L1290.62 1532.4 M1290.62 1518.52 L1296.47 1518.52 L1296.47 1525.93 L1290.62 1525.93 L1290.62 1518.52 Z" fill="#000000" fill-rule="nonzero" fill-opacity="1" /><path clip-path="url(#clip790)" d="M1338.36 1546.53 L1338.36 1568.04 L1332.5 1568.04 L1332.5 1546.72 Q1332.5 1541.66 1330.53 1539.14 Q1328.56 1536.63 1324.61 1536.63 Q1319.87 1536.63 1317.13 1539.65 Q1314.39 1542.68 1314.39 1547.9 L1314.39 1568.04 L1308.51 1568.04 L1308.51 1532.4 L1314.39 1532.4 L1314.39 1537.93 Q1316.49 1534.72 1319.33 1533.13 Q1322.19 1531.54 1325.92 1531.54 Q1332.06 1531.54 1335.21 1535.36 Q1338.36 1539.14 1338.36 1546.53 Z" fill="#000000" fill-rule="nonzero" fill-opacity="1" /><path clip-path="url(#clip790)" d="M1373.5 1549.81 Q1373.5 1543.44 1370.86 1539.94 Q1368.25 1536.44 1363.51 1536.44 Q1358.79 1536.44 1356.15 1539.94 Q1353.54 1543.44 1353.54 1549.81 Q1353.54 1556.14 1356.15 1559.64 Q1358.79 1563.14 1363.51 1563.14 Q1368.25 1563.14 1370.86 1559.64 Q1373.5 1556.14 1373.5 1549.81 M1379.36 1563.62 Q1379.36 1572.72 1375.31 1577.15 Q1371.27 1581.6 1362.93 1581.6 Q1359.85 1581.6 1357.11 1581.13 Q1354.37 1580.68 1351.79 1579.72 L1351.79 1574.03 Q1354.37 1575.43 1356.89 1576.1 Q1359.4 1576.76 1362.01 1576.76 Q1367.77 1576.76 1370.63 1573.74 Q1373.5 1570.75 1373.5 1564.67 L1373.5 1561.77 Q1371.69 1564.92 1368.85 1566.48 Q1366.02 1568.04 1362.07 1568.04 Q1355.52 1568.04 1351.51 1563.05 Q1347.5 1558.05 1347.5 1549.81 Q1347.5 1541.53 1351.51 1536.53 Q1355.52 1531.54 1362.07 1531.54 Q1366.02 1531.54 1368.85 1533.1 Q1371.69 1534.66 1373.5 1537.81 L1373.5 1532.4 L1379.36 1532.4 L1379.36 1563.62 Z" fill="#000000" fill-rule="nonzero" fill-opacity="1" /><path clip-path="url(#clip790)" d="M1435.6 1537.81 L1435.6 1518.52 L1441.45 1518.52 L1441.45 1568.04 L1435.6 1568.04 L1435.6 1562.7 Q1433.75 1565.88 1430.92 1567.44 Q1428.12 1568.97 1424.17 1568.97 Q1417.71 1568.97 1413.64 1563.81 Q1409.59 1558.65 1409.59 1550.25 Q1409.59 1541.85 1413.64 1536.69 Q1417.71 1531.54 1424.17 1531.54 Q1428.12 1531.54 1430.92 1533.1 Q1433.75 1534.62 1435.6 1537.81 M1415.64 1550.25 Q1415.64 1556.71 1418.28 1560.4 Q1420.96 1564.07 1425.6 1564.07 Q1430.25 1564.07 1432.92 1560.4 Q1435.6 1556.71 1435.6 1550.25 Q1435.6 1543.79 1432.92 1540.13 Q1430.25 1536.44 1425.6 1536.44 Q1420.96 1536.44 1418.28 1540.13 Q1415.64 1543.79 1415.64 1550.25 Z" fill="#000000" fill-rule="nonzero" fill-opacity="1" /><path clip-path="url(#clip790)" d="M1469.72 1550.12 Q1462.62 1550.12 1459.88 1551.75 Q1457.14 1553.37 1457.14 1557.29 Q1457.14 1560.4 1459.18 1562.25 Q1461.25 1564.07 1464.78 1564.07 Q1469.65 1564.07 1472.58 1560.63 Q1475.54 1557.16 1475.54 1551.43 L1475.54 1550.12 L1469.72 1550.12 M1481.4 1547.71 L1481.4 1568.04 L1475.54 1568.04 L1475.54 1562.63 Q1473.54 1565.88 1470.54 1567.44 Q1467.55 1568.97 1463.22 1568.97 Q1457.75 1568.97 1454.5 1565.91 Q1451.29 1562.82 1451.29 1557.67 Q1451.29 1551.65 1455.3 1548.6 Q1459.34 1545.54 1467.33 1545.54 L1475.54 1545.54 L1475.54 1544.97 Q1475.54 1540.93 1472.87 1538.73 Q1470.23 1536.5 1465.42 1536.5 Q1462.36 1536.5 1459.47 1537.23 Q1456.57 1537.97 1453.9 1539.43 L1453.9 1534.02 Q1457.11 1532.78 1460.14 1532.17 Q1463.16 1531.54 1466.03 1531.54 Q1473.76 1531.54 1477.58 1535.55 Q1481.4 1539.56 1481.4 1547.71 Z" fill="#000000" fill-rule="nonzero" fill-opacity="1" /><path clip-path="url(#clip790)" d="M1499.25 1522.27 L1499.25 1532.4 L1511.32 1532.4 L1511.32 1536.95 L1499.25 1536.95 L1499.25 1556.3 Q1499.25 1560.66 1500.43 1561.9 Q1501.64 1563.14 1505.3 1563.14 L1511.32 1563.14 L1511.32 1568.04 L1505.3 1568.04 Q1498.52 1568.04 1495.94 1565.53 Q1493.37 1562.98 1493.37 1556.3 L1493.37 1536.95 L1489.07 1536.95 L1489.07 1532.4 L1493.37 1532.4 L1493.37 1522.27 L1499.25 1522.27 Z" fill="#000000" fill-rule="nonzero" fill-opacity="1" /><path clip-path="url(#clip790)" d="M1535.22 1550.12 Q1528.12 1550.12 1525.39 1551.75 Q1522.65 1553.37 1522.65 1557.29 Q1522.65 1560.4 1524.69 1562.25 Q1526.75 1564.07 1530.29 1564.07 Q1535.16 1564.07 1538.08 1560.63 Q1541.04 1557.16 1541.04 1551.43 L1541.04 1550.12 L1535.22 1550.12 M1546.9 1547.71 L1546.9 1568.04 L1541.04 1568.04 L1541.04 1562.63 Q1539.04 1565.88 1536.05 1567.44 Q1533.06 1568.97 1528.73 1568.97 Q1523.25 1568.97 1520.01 1565.91 Q1516.79 1562.82 1516.79 1557.67 Q1516.79 1551.65 1520.8 1548.6 Q1524.84 1545.54 1532.83 1545.54 L1541.04 1545.54 L1541.04 1544.97 Q1541.04 1540.93 1538.37 1538.73 Q1535.73 1536.5 1530.92 1536.5 Q1527.87 1536.5 1524.97 1537.23 Q1522.08 1537.97 1519.4 1539.43 L1519.4 1534.02 Q1522.62 1532.78 1525.64 1532.17 Q1528.66 1531.54 1531.53 1531.54 Q1539.26 1531.54 1543.08 1535.55 Q1546.9 1539.56 1546.9 1547.71 Z" fill="#000000" fill-rule="nonzero" fill-opacity="1" /><polyline clip-path="url(#clip790)" style="stroke:#000000; stroke-linecap:round; stroke-linejoin:round; stroke-width:4; stroke-opacity:1; fill:none" points="250.028,1423.18 250.028,47.2441 "/>
<polyline clip-path="url(#clip790)" style="stroke:#000000; stroke-linecap:round; stroke-linejoin:round; stroke-width:4; stroke-opacity:1; fill:none" points="250.028,1344.26 268.926,1344.26 "/>
<polyline clip-path="url(#clip790)" style="stroke:#000000; stroke-linecap:round; stroke-linejoin:round; stroke-width:4; stroke-opacity:1; fill:none" points="250.028,1041.27 268.926,1041.27 "/>
<polyline clip-path="url(#clip790)" style="stroke:#000000; stroke-linecap:round; stroke-linejoin:round; stroke-width:4; stroke-opacity:1; fill:none" points="250.028,738.286 268.926,738.286 "/>
<polyline clip-path="url(#clip790)" style="stroke:#000000; stroke-linecap:round; stroke-linejoin:round; stroke-width:4; stroke-opacity:1; fill:none" points="250.028,435.301 268.926,435.301 "/>
<polyline clip-path="url(#clip790)" style="stroke:#000000; stroke-linecap:round; stroke-linejoin:round; stroke-width:4; stroke-opacity:1; fill:none" points="250.028,132.316 268.926,132.316 "/>
<path clip-path="url(#clip790)" d="M126.783 1330.06 Q123.172 1330.06 121.343 1333.62 Q119.538 1337.16 119.538 1344.29 Q119.538 1351.4 121.343 1354.96 Q123.172 1358.5 126.783 1358.5 Q130.417 1358.5 132.223 1354.96 Q134.052 1351.4 134.052 1344.29 Q134.052 1337.16 132.223 1333.62 Q130.417 1330.06 126.783 1330.06 M126.783 1326.35 Q132.593 1326.35 135.649 1330.96 Q138.728 1335.54 138.728 1344.29 Q138.728 1353.02 135.649 1357.62 Q132.593 1362.21 126.783 1362.21 Q120.973 1362.21 117.894 1357.62 Q114.839 1353.02 114.839 1344.29 Q114.839 1335.54 117.894 1330.96 Q120.973 1326.35 126.783 1326.35 Z" fill="#000000" fill-rule="nonzero" fill-opacity="1" /><path clip-path="url(#clip790)" d="M146.945 1355.66 L151.829 1355.66 L151.829 1361.54 L146.945 1361.54 L146.945 1355.66 Z" fill="#000000" fill-rule="nonzero" fill-opacity="1" /><path clip-path="url(#clip790)" d="M166.042 1357.6 L182.362 1357.6 L182.362 1361.54 L160.417 1361.54 L160.417 1357.6 Q163.079 1354.85 167.663 1350.22 Q172.269 1345.56 173.45 1344.22 Q175.695 1341.7 176.575 1339.96 Q177.477 1338.2 177.477 1336.51 Q177.477 1333.76 175.533 1332.02 Q173.612 1330.29 170.51 1330.29 Q168.311 1330.29 165.857 1331.05 Q163.427 1331.81 160.649 1333.37 L160.649 1328.64 Q163.473 1327.51 165.927 1326.93 Q168.38 1326.35 170.417 1326.35 Q175.788 1326.35 178.982 1329.04 Q182.176 1331.72 182.176 1336.21 Q182.176 1338.34 181.366 1340.26 Q180.579 1342.16 178.473 1344.75 Q177.894 1345.43 174.792 1348.64 Q171.69 1351.84 166.042 1357.6 Z" fill="#000000" fill-rule="nonzero" fill-opacity="1" /><path clip-path="url(#clip790)" d="M202.176 1345.12 Q198.843 1345.12 196.922 1346.91 Q195.024 1348.69 195.024 1351.81 Q195.024 1354.94 196.922 1356.72 Q198.843 1358.5 202.176 1358.5 Q205.51 1358.5 207.431 1356.72 Q209.352 1354.92 209.352 1351.81 Q209.352 1348.69 207.431 1346.91 Q205.533 1345.12 202.176 1345.12 M197.5 1343.13 Q194.491 1342.39 192.801 1340.33 Q191.135 1338.27 191.135 1335.31 Q191.135 1331.17 194.075 1328.76 Q197.037 1326.35 202.176 1326.35 Q207.338 1326.35 210.278 1328.76 Q213.218 1331.17 213.218 1335.31 Q213.218 1338.27 211.528 1340.33 Q209.861 1342.39 206.875 1343.13 Q210.255 1343.92 212.13 1346.21 Q214.028 1348.5 214.028 1351.81 Q214.028 1356.84 210.949 1359.52 Q207.894 1362.21 202.176 1362.21 Q196.459 1362.21 193.38 1359.52 Q190.325 1356.84 190.325 1351.81 Q190.325 1348.5 192.223 1346.21 Q194.121 1343.92 197.5 1343.13 M195.787 1335.75 Q195.787 1338.43 197.454 1339.94 Q199.144 1341.44 202.176 1341.44 Q205.186 1341.44 206.875 1339.94 Q208.588 1338.43 208.588 1335.75 Q208.588 1333.06 206.875 1331.56 Q205.186 1330.06 202.176 1330.06 Q199.144 1330.06 197.454 1331.56 Q195.787 1333.06 195.787 1335.75 Z" fill="#000000" fill-rule="nonzero" fill-opacity="1" /><path clip-path="url(#clip790)" d="M126.691 1027.07 Q123.08 1027.07 121.251 1030.63 Q119.445 1034.18 119.445 1041.31 Q119.445 1048.41 121.251 1051.98 Q123.08 1055.52 126.691 1055.52 Q130.325 1055.52 132.13 1051.98 Q133.959 1048.41 133.959 1041.31 Q133.959 1034.18 132.13 1030.63 Q130.325 1027.07 126.691 1027.07 M126.691 1023.37 Q132.501 1023.37 135.556 1027.97 Q138.635 1032.56 138.635 1041.31 Q138.635 1050.03 135.556 1054.64 Q132.501 1059.22 126.691 1059.22 Q120.88 1059.22 117.802 1054.64 Q114.746 1050.03 114.746 1041.31 Q114.746 1032.56 117.802 1027.97 Q120.88 1023.37 126.691 1023.37 Z" fill="#000000" fill-rule="nonzero" fill-opacity="1" /><path clip-path="url(#clip790)" d="M146.853 1052.67 L151.737 1052.67 L151.737 1058.55 L146.853 1058.55 L146.853 1052.67 Z" fill="#000000" fill-rule="nonzero" fill-opacity="1" /><path clip-path="url(#clip790)" d="M176.089 1039.92 Q179.445 1040.63 181.32 1042.9 Q183.218 1045.17 183.218 1048.51 Q183.218 1053.62 179.7 1056.42 Q176.181 1059.22 169.7 1059.22 Q167.524 1059.22 165.209 1058.78 Q162.917 1058.37 160.464 1057.51 L160.464 1053 Q162.408 1054.13 164.723 1054.71 Q167.038 1055.29 169.561 1055.29 Q173.959 1055.29 176.251 1053.55 Q178.565 1051.82 178.565 1048.51 Q178.565 1045.45 176.413 1043.74 Q174.283 1042 170.464 1042 L166.436 1042 L166.436 1038.16 L170.649 1038.16 Q174.098 1038.16 175.926 1036.79 Q177.755 1035.4 177.755 1032.81 Q177.755 1030.15 175.857 1028.74 Q173.982 1027.3 170.464 1027.3 Q168.542 1027.3 166.343 1027.72 Q164.144 1028.13 161.505 1029.01 L161.505 1024.85 Q164.167 1024.11 166.482 1023.74 Q168.82 1023.37 170.88 1023.37 Q176.204 1023.37 179.306 1025.8 Q182.408 1028.2 182.408 1032.32 Q182.408 1035.2 180.764 1037.19 Q179.121 1039.15 176.089 1039.92 Z" fill="#000000" fill-rule="nonzero" fill-opacity="1" /><path clip-path="url(#clip790)" d="M202.084 1027.07 Q198.473 1027.07 196.644 1030.63 Q194.838 1034.18 194.838 1041.31 Q194.838 1048.41 196.644 1051.98 Q198.473 1055.52 202.084 1055.52 Q205.718 1055.52 207.524 1051.98 Q209.352 1048.41 209.352 1041.31 Q209.352 1034.18 207.524 1030.63 Q205.718 1027.07 202.084 1027.07 M202.084 1023.37 Q207.894 1023.37 210.949 1027.97 Q214.028 1032.56 214.028 1041.31 Q214.028 1050.03 210.949 1054.64 Q207.894 1059.22 202.084 1059.22 Q196.274 1059.22 193.195 1054.64 Q190.139 1050.03 190.139 1041.31 Q190.139 1032.56 193.195 1027.97 Q196.274 1023.37 202.084 1023.37 Z" fill="#000000" fill-rule="nonzero" fill-opacity="1" /><path clip-path="url(#clip790)" d="M128.288 724.085 Q124.677 724.085 122.848 727.65 Q121.043 731.191 121.043 738.321 Q121.043 745.427 122.848 748.992 Q124.677 752.534 128.288 752.534 Q131.922 752.534 133.728 748.992 Q135.556 745.427 135.556 738.321 Q135.556 731.191 133.728 727.65 Q131.922 724.085 128.288 724.085 M128.288 720.381 Q134.098 720.381 137.154 724.988 Q140.232 729.571 140.232 738.321 Q140.232 747.048 137.154 751.654 Q134.098 756.238 128.288 756.238 Q122.478 756.238 119.399 751.654 Q116.343 747.048 116.343 738.321 Q116.343 729.571 119.399 724.988 Q122.478 720.381 128.288 720.381 Z" fill="#000000" fill-rule="nonzero" fill-opacity="1" /><path clip-path="url(#clip790)" d="M148.45 749.687 L153.334 749.687 L153.334 755.566 L148.45 755.566 L148.45 749.687 Z" fill="#000000" fill-rule="nonzero" fill-opacity="1" /><path clip-path="url(#clip790)" d="M177.686 736.932 Q181.042 737.65 182.917 739.918 Q184.815 742.187 184.815 745.52 Q184.815 750.636 181.297 753.437 Q177.778 756.238 171.297 756.238 Q169.121 756.238 166.806 755.798 Q164.515 755.381 162.061 754.525 L162.061 750.011 Q164.005 751.145 166.32 751.724 Q168.635 752.302 171.158 752.302 Q175.556 752.302 177.848 750.566 Q180.163 748.83 180.163 745.52 Q180.163 742.464 178.01 740.752 Q175.88 739.015 172.061 739.015 L168.033 739.015 L168.033 735.173 L172.246 735.173 Q175.695 735.173 177.524 733.807 Q179.352 732.418 179.352 729.826 Q179.352 727.164 177.454 725.752 Q175.579 724.316 172.061 724.316 Q170.139 724.316 167.94 724.733 Q165.741 725.15 163.102 726.029 L163.102 721.863 Q165.765 721.122 168.079 720.752 Q170.417 720.381 172.477 720.381 Q177.801 720.381 180.903 722.812 Q184.005 725.219 184.005 729.34 Q184.005 732.21 182.362 734.201 Q180.718 736.168 177.686 736.932 Z" fill="#000000" fill-rule="nonzero" fill-opacity="1" /><path clip-path="url(#clip790)" d="M197.709 751.631 L214.028 751.631 L214.028 755.566 L192.084 755.566 L192.084 751.631 Q194.746 748.876 199.329 744.247 Q203.936 739.594 205.116 738.252 Q207.362 735.728 208.241 733.992 Q209.144 732.233 209.144 730.543 Q209.144 727.789 207.199 726.053 Q205.278 724.316 202.176 724.316 Q199.977 724.316 197.524 725.08 Q195.093 725.844 192.315 727.395 L192.315 722.673 Q195.139 721.539 197.593 720.96 Q200.047 720.381 202.084 720.381 Q207.454 720.381 210.649 723.066 Q213.843 725.752 213.843 730.242 Q213.843 732.372 213.033 734.293 Q212.246 736.191 210.139 738.784 Q209.561 739.455 206.459 742.673 Q203.357 745.867 197.709 751.631 Z" fill="#000000" fill-rule="nonzero" fill-opacity="1" /><path clip-path="url(#clip790)" d="M126.205 421.1 Q122.593 421.1 120.765 424.665 Q118.959 428.206 118.959 435.336 Q118.959 442.442 120.765 446.007 Q122.593 449.549 126.205 449.549 Q129.839 449.549 131.644 446.007 Q133.473 442.442 133.473 435.336 Q133.473 428.206 131.644 424.665 Q129.839 421.1 126.205 421.1 M126.205 417.396 Q132.015 417.396 135.07 422.003 Q138.149 426.586 138.149 435.336 Q138.149 444.063 135.07 448.669 Q132.015 453.252 126.205 453.252 Q120.394 453.252 117.316 448.669 Q114.26 444.063 114.26 435.336 Q114.26 426.586 117.316 422.003 Q120.394 417.396 126.205 417.396 Z" fill="#000000" fill-rule="nonzero" fill-opacity="1" /><path clip-path="url(#clip790)" d="M146.366 446.702 L151.251 446.702 L151.251 452.581 L146.366 452.581 L146.366 446.702 Z" fill="#000000" fill-rule="nonzero" fill-opacity="1" /><path clip-path="url(#clip790)" d="M175.602 433.947 Q178.959 434.665 180.834 436.933 Q182.732 439.202 182.732 442.535 Q182.732 447.651 179.214 450.451 Q175.695 453.252 169.214 453.252 Q167.038 453.252 164.723 452.813 Q162.431 452.396 159.978 451.539 L159.978 447.026 Q161.922 448.16 164.237 448.739 Q166.552 449.317 169.075 449.317 Q173.473 449.317 175.764 447.581 Q178.079 445.845 178.079 442.535 Q178.079 439.479 175.926 437.766 Q173.797 436.03 169.977 436.03 L165.95 436.03 L165.95 432.188 L170.163 432.188 Q173.612 432.188 175.44 430.822 Q177.269 429.433 177.269 426.841 Q177.269 424.178 175.371 422.766 Q173.496 421.331 169.977 421.331 Q168.056 421.331 165.857 421.748 Q163.658 422.165 161.019 423.044 L161.019 418.878 Q163.681 418.137 165.996 417.766 Q168.334 417.396 170.394 417.396 Q175.718 417.396 178.82 419.827 Q181.922 422.234 181.922 426.354 Q181.922 429.225 180.278 431.215 Q178.635 433.183 175.602 433.947 Z" fill="#000000" fill-rule="nonzero" fill-opacity="1" /><path clip-path="url(#clip790)" d="M204.445 422.095 L192.639 440.544 L204.445 440.544 L204.445 422.095 M203.218 418.021 L209.098 418.021 L209.098 440.544 L214.028 440.544 L214.028 444.433 L209.098 444.433 L209.098 452.581 L204.445 452.581 L204.445 444.433 L188.843 444.433 L188.843 439.919 L203.218 418.021 Z" fill="#000000" fill-rule="nonzero" fill-opacity="1" /><path clip-path="url(#clip790)" d="M126.529 118.115 Q122.918 118.115 121.089 121.679 Q119.283 125.221 119.283 132.351 Q119.283 139.457 121.089 143.022 Q122.918 146.564 126.529 146.564 Q130.163 146.564 131.968 143.022 Q133.797 139.457 133.797 132.351 Q133.797 125.221 131.968 121.679 Q130.163 118.115 126.529 118.115 M126.529 114.411 Q132.339 114.411 135.394 119.017 Q138.473 123.601 138.473 132.351 Q138.473 141.078 135.394 145.684 Q132.339 150.267 126.529 150.267 Q120.718 150.267 117.64 145.684 Q114.584 141.078 114.584 132.351 Q114.584 123.601 117.64 119.017 Q120.718 114.411 126.529 114.411 Z" fill="#000000" fill-rule="nonzero" fill-opacity="1" /><path clip-path="url(#clip790)" d="M146.691 143.716 L151.575 143.716 L151.575 149.596 L146.691 149.596 L146.691 143.716 Z" fill="#000000" fill-rule="nonzero" fill-opacity="1" /><path clip-path="url(#clip790)" d="M175.926 130.962 Q179.283 131.679 181.158 133.948 Q183.056 136.216 183.056 139.55 Q183.056 144.665 179.538 147.466 Q176.019 150.267 169.538 150.267 Q167.362 150.267 165.047 149.827 Q162.755 149.411 160.302 148.554 L160.302 144.04 Q162.246 145.175 164.561 145.753 Q166.876 146.332 169.399 146.332 Q173.797 146.332 176.089 144.596 Q178.403 142.86 178.403 139.55 Q178.403 136.494 176.251 134.781 Q174.121 133.045 170.302 133.045 L166.274 133.045 L166.274 129.203 L170.487 129.203 Q173.936 129.203 175.764 127.837 Q177.593 126.448 177.593 123.855 Q177.593 121.193 175.695 119.781 Q173.82 118.346 170.302 118.346 Q168.38 118.346 166.181 118.763 Q163.982 119.179 161.343 120.059 L161.343 115.892 Q164.005 115.152 166.32 114.781 Q168.658 114.411 170.718 114.411 Q176.042 114.411 179.144 116.842 Q182.246 119.249 182.246 123.369 Q182.246 126.24 180.602 128.23 Q178.959 130.198 175.926 130.962 Z" fill="#000000" fill-rule="nonzero" fill-opacity="1" /><path clip-path="url(#clip790)" d="M202.5 130.453 Q199.352 130.453 197.5 132.605 Q195.672 134.758 195.672 138.508 Q195.672 142.235 197.5 144.411 Q199.352 146.564 202.5 146.564 Q205.649 146.564 207.477 144.411 Q209.329 142.235 209.329 138.508 Q209.329 134.758 207.477 132.605 Q205.649 130.453 202.5 130.453 M211.783 115.8 L211.783 120.059 Q210.024 119.226 208.218 118.786 Q206.436 118.346 204.676 118.346 Q200.047 118.346 197.593 121.471 Q195.163 124.596 194.815 130.916 Q196.181 128.902 198.241 127.837 Q200.301 126.749 202.778 126.749 Q207.987 126.749 210.996 129.92 Q214.028 133.068 214.028 138.508 Q214.028 143.832 210.88 147.05 Q207.732 150.267 202.5 150.267 Q196.505 150.267 193.334 145.684 Q190.163 141.078 190.163 132.351 Q190.163 124.156 194.051 119.295 Q197.94 114.411 204.491 114.411 Q206.25 114.411 208.033 114.758 Q209.838 115.105 211.783 115.8 Z" fill="#000000" fill-rule="nonzero" fill-opacity="1" /><path clip-path="url(#clip790)" d="M33.7671 1012.71 L14.479 1012.71 L14.479 1006.85 L64.0042 1006.85 L64.0042 1012.71 L58.657 1012.71 Q61.8398 1014.56 63.3994 1017.39 Q64.9272 1020.19 64.9272 1024.14 Q64.9272 1030.6 59.771 1034.67 Q54.6147 1038.71 46.212 1038.71 Q37.8093 1038.71 32.6531 1034.67 Q27.4968 1030.6 27.4968 1024.14 Q27.4968 1020.19 29.0564 1017.39 Q30.5842 1014.56 33.7671 1012.71 M46.212 1032.67 Q52.6732 1032.67 56.3653 1030.02 Q60.0256 1027.35 60.0256 1022.7 Q60.0256 1018.06 56.3653 1015.38 Q52.6732 1012.71 46.212 1012.71 Q39.7508 1012.71 36.0905 1015.38 Q32.3984 1018.06 32.3984 1022.7 Q32.3984 1027.35 36.0905 1030.02 Q39.7508 1032.67 46.212 1032.67 Z" fill="#000000" fill-rule="nonzero" fill-opacity="1" /><path clip-path="url(#clip790)" d="M46.0847 978.589 Q46.0847 985.687 47.7079 988.424 Q49.3312 991.161 53.2461 991.161 Q56.3653 991.161 58.2114 989.124 Q60.0256 987.055 60.0256 983.522 Q60.0256 978.653 56.5881 975.724 Q53.1188 972.764 47.3897 972.764 L46.0847 972.764 L46.0847 978.589 M43.6657 966.908 L64.0042 966.908 L64.0042 972.764 L58.5933 972.764 Q61.8398 974.769 63.3994 977.761 Q64.9272 980.753 64.9272 985.082 Q64.9272 990.556 61.8716 993.803 Q58.7843 997.018 53.6281 997.018 Q47.6125 997.018 44.5569 993.007 Q41.5014 988.965 41.5014 980.976 L41.5014 972.764 L40.9285 972.764 Q36.8862 972.764 34.6901 975.438 Q32.4621 978.08 32.4621 982.886 Q32.4621 985.941 33.1941 988.838 Q33.9262 991.734 35.3903 994.408 L29.9795 994.408 Q28.7381 991.193 28.1334 988.169 Q27.4968 985.146 27.4968 982.281 Q27.4968 974.547 31.5072 970.727 Q35.5176 966.908 43.6657 966.908 Z" fill="#000000" fill-rule="nonzero" fill-opacity="1" /><path clip-path="url(#clip790)" d="M18.2347 949.052 L28.3562 949.052 L28.3562 936.989 L32.9077 936.989 L32.9077 949.052 L52.2594 949.052 Q56.6199 949.052 57.8613 947.874 Q59.1026 946.665 59.1026 943.005 L59.1026 936.989 L64.0042 936.989 L64.0042 943.005 Q64.0042 949.784 61.4897 952.362 Q58.9434 954.94 52.2594 954.94 L32.9077 954.94 L32.9077 959.237 L28.3562 959.237 L28.3562 954.94 L18.2347 954.94 L18.2347 949.052 Z" fill="#000000" fill-rule="nonzero" fill-opacity="1" /><path clip-path="url(#clip790)" d="M46.0847 913.086 Q46.0847 920.183 47.7079 922.921 Q49.3312 925.658 53.2461 925.658 Q56.3653 925.658 58.2114 923.621 Q60.0256 921.552 60.0256 918.019 Q60.0256 913.149 56.5881 910.221 Q53.1188 907.261 47.3897 907.261 L46.0847 907.261 L46.0847 913.086 M43.6657 901.405 L64.0042 901.405 L64.0042 907.261 L58.5933 907.261 Q61.8398 909.266 63.3994 912.258 Q64.9272 915.25 64.9272 919.579 Q64.9272 925.053 61.8716 928.3 Q58.7843 931.514 53.6281 931.514 Q47.6125 931.514 44.5569 927.504 Q41.5014 923.462 41.5014 915.473 L41.5014 907.261 L40.9285 907.261 Q36.8862 907.261 34.6901 909.935 Q32.4621 912.576 32.4621 917.383 Q32.4621 920.438 33.1941 923.335 Q33.9262 926.231 35.3903 928.905 L29.9795 928.905 Q28.7381 925.69 28.1334 922.666 Q27.4968 919.642 27.4968 916.778 Q27.4968 909.044 31.5072 905.224 Q35.5176 901.405 43.6657 901.405 Z" fill="#000000" fill-rule="nonzero" fill-opacity="1" /><path clip-path="url(#clip790)" d="M29.4065 866.616 L34.9447 866.616 Q33.6716 869.099 33.035 871.772 Q32.3984 874.446 32.3984 877.31 Q32.3984 881.671 33.7352 883.867 Q35.072 886.031 37.7456 886.031 Q39.7826 886.031 40.9603 884.472 Q42.1061 882.912 43.1565 878.202 L43.6021 876.196 Q44.9389 869.958 47.3897 867.348 Q49.8086 864.706 54.1691 864.706 Q59.1344 864.706 62.0308 868.653 Q64.9272 872.568 64.9272 879.443 Q64.9272 882.308 64.3543 885.427 Q63.8132 888.514 62.6992 891.952 L56.6518 891.952 Q58.3387 888.705 59.198 885.554 Q60.0256 882.403 60.0256 879.316 Q60.0256 875.178 58.6251 872.95 Q57.1929 870.722 54.6147 870.722 Q52.2276 870.722 50.9545 872.345 Q49.6813 873.937 48.5037 879.379 L48.0262 881.416 Q46.8804 886.859 44.5251 889.278 Q42.138 891.697 38.0002 891.697 Q32.9713 891.697 30.2341 888.132 Q27.4968 884.567 27.4968 878.011 Q27.4968 874.764 27.9743 871.9 Q28.4517 869.035 29.4065 866.616 Z" fill="#000000" fill-rule="nonzero" fill-opacity="1" /><path clip-path="url(#clip790)" d="M44.7161 824.889 L47.5806 824.889 L47.5806 851.816 Q53.6281 851.434 56.8109 848.187 Q59.9619 844.909 59.9619 839.084 Q59.9619 835.711 59.1344 832.56 Q58.3069 829.377 56.6518 826.257 L62.1899 826.257 Q63.5267 829.409 64.227 832.719 Q64.9272 836.029 64.9272 839.435 Q64.9272 847.965 59.9619 852.962 Q54.9967 857.927 46.5303 857.927 Q37.7774 857.927 32.6531 853.216 Q27.4968 848.474 27.4968 840.453 Q27.4968 833.26 32.1438 829.09 Q36.7589 824.889 44.7161 824.889 M42.9973 830.745 Q38.1912 830.809 35.3266 833.451 Q32.4621 836.061 32.4621 840.389 Q32.4621 845.291 35.2312 848.251 Q38.0002 851.179 43.0292 851.625 L42.9973 830.745 Z" fill="#000000" fill-rule="nonzero" fill-opacity="1" /><path clip-path="url(#clip790)" d="M18.2347 809.484 L28.3562 809.484 L28.3562 797.421 L32.9077 797.421 L32.9077 809.484 L52.2594 809.484 Q56.6199 809.484 57.8613 808.306 Q59.1026 807.097 59.1026 803.436 L59.1026 797.421 L64.0042 797.421 L64.0042 803.436 Q64.0042 810.216 61.4897 812.794 Q58.9434 815.372 52.2594 815.372 L32.9077 815.372 L32.9077 819.669 L28.3562 819.669 L28.3562 815.372 L18.2347 815.372 L18.2347 809.484 Z" fill="#000000" fill-rule="nonzero" fill-opacity="1" /><path clip-path="url(#clip790)" d="M35.1993 741.243 Q31.2526 739.047 29.3747 735.992 Q27.4968 732.936 27.4968 728.799 Q27.4968 723.229 31.4117 720.205 Q35.2948 717.181 42.4881 717.181 L64.0042 717.181 L64.0042 723.069 L42.679 723.069 Q37.5546 723.069 35.072 724.884 Q32.5894 726.698 32.5894 730.422 Q32.5894 734.973 35.6131 737.615 Q38.6368 740.257 43.8567 740.257 L64.0042 740.257 L64.0042 746.145 L42.679 746.145 Q37.5228 746.145 35.072 747.959 Q32.5894 749.774 32.5894 753.561 Q32.5894 758.049 35.6449 760.691 Q38.6686 763.332 43.8567 763.332 L64.0042 763.332 L64.0042 769.221 L28.3562 769.221 L28.3562 763.332 L33.8944 763.332 Q30.616 761.327 29.0564 758.526 Q27.4968 755.725 27.4968 751.874 Q27.4968 747.991 29.4702 745.286 Q31.4436 742.548 35.1993 741.243 Z" fill="#000000" fill-rule="nonzero" fill-opacity="1" /><path clip-path="url(#clip790)" d="M44.7161 675.008 L47.5806 675.008 L47.5806 701.935 Q53.6281 701.553 56.8109 698.307 Q59.9619 695.028 59.9619 689.204 Q59.9619 685.83 59.1344 682.679 Q58.3069 679.496 56.6518 676.377 L62.1899 676.377 Q63.5267 679.528 64.227 682.838 Q64.9272 686.148 64.9272 689.554 Q64.9272 698.084 59.9619 703.081 Q54.9967 708.046 46.5303 708.046 Q37.7774 708.046 32.6531 703.336 Q27.4968 698.593 27.4968 690.572 Q27.4968 683.379 32.1438 679.21 Q36.7589 675.008 44.7161 675.008 M42.9973 680.865 Q38.1912 680.928 35.3266 683.57 Q32.4621 686.18 32.4621 690.509 Q32.4621 695.41 35.2312 698.37 Q38.0002 701.299 43.0292 701.744 L42.9973 680.865 Z" fill="#000000" fill-rule="nonzero" fill-opacity="1" /><path clip-path="url(#clip790)" d="M46.0847 649.195 Q46.0847 656.293 47.7079 659.03 Q49.3312 661.768 53.2461 661.768 Q56.3653 661.768 58.2114 659.731 Q60.0256 657.662 60.0256 654.129 Q60.0256 649.259 56.5881 646.331 Q53.1188 643.371 47.3897 643.371 L46.0847 643.371 L46.0847 649.195 M43.6657 637.514 L64.0042 637.514 L64.0042 643.371 L58.5933 643.371 Q61.8398 645.376 63.3994 648.368 Q64.9272 651.36 64.9272 655.688 Q64.9272 661.163 61.8716 664.409 Q58.7843 667.624 53.6281 667.624 Q47.6125 667.624 44.5569 663.614 Q41.5014 659.571 41.5014 651.582 L41.5014 643.371 L40.9285 643.371 Q36.8862 643.371 34.6901 646.044 Q32.4621 648.686 32.4621 653.492 Q32.4621 656.548 33.1941 659.444 Q33.9262 662.341 35.3903 665.014 L29.9795 665.014 Q28.7381 661.799 28.1334 658.776 Q27.4968 655.752 27.4968 652.887 Q27.4968 645.153 31.5072 641.334 Q35.5176 637.514 43.6657 637.514 Z" fill="#000000" fill-rule="nonzero" fill-opacity="1" /><path clip-path="url(#clip790)" d="M42.4881 595.819 L64.0042 595.819 L64.0042 601.675 L42.679 601.675 Q37.6183 601.675 35.1038 603.649 Q32.5894 605.622 32.5894 609.569 Q32.5894 614.311 35.6131 617.049 Q38.6368 619.786 43.8567 619.786 L64.0042 619.786 L64.0042 625.674 L28.3562 625.674 L28.3562 619.786 L33.8944 619.786 Q30.6797 617.685 29.0883 614.852 Q27.4968 611.988 27.4968 608.264 Q27.4968 602.121 31.3163 598.97 Q35.1038 595.819 42.4881 595.819 Z" fill="#000000" fill-rule="nonzero" fill-opacity="1" /><path clip-path="url(#clip790)" d="M16.4842 563.163 L16.4842 553.582 L48.8219 541.456 L16.4842 529.265 L16.4842 519.685 L64.0042 519.685 L64.0042 525.955 L22.277 525.955 L54.8694 538.209 L54.8694 544.67 L22.277 556.924 L64.0042 556.924 L64.0042 563.163 L16.4842 563.163 Z" fill="#000000" fill-rule="nonzero" fill-opacity="1" /><path clip-path="url(#clip790)" d="M22.818 491.039 L46.4666 499.76 L46.4666 482.287 L22.818 491.039 M16.4842 494.668 L16.4842 487.379 L64.0042 469.269 L64.0042 475.953 L51.8138 480.281 L51.8138 501.702 L64.0042 506.031 L64.0042 512.81 L16.4842 494.668 Z" fill="#000000" fill-rule="nonzero" fill-opacity="1" /><path clip-path="url(#clip790)" d="M16.4842 462.33 L16.4842 432.284 L21.895 432.284 L21.895 455.901 L35.9632 455.901 L35.9632 433.271 L41.3741 433.271 L41.3741 455.901 L58.5933 455.901 L58.5933 431.711 L64.0042 431.711 L64.0042 462.33 L16.4842 462.33 Z" fill="#000000" fill-rule="nonzero" fill-opacity="1" /><polyline clip-path="url(#clip792)" style="stroke:#000000; stroke-linecap:round; stroke-linejoin:round; stroke-width:8; stroke-opacity:1; fill:none" stroke-dasharray="4, 8" points="309.539,114.521 404.001,139.619 498.464,203.255 592.926,252.553 687.388,250.24 781.85,285.61 876.312,256.525 970.774,298.093 1065.24,354.742 1159.7,370.534 1254.16,316.434 1348.62,335.986 1443.09,364.448 1537.55,372.135 1632.01,347.049 1726.47,345.384 1820.93,370.104 1915.4,360.964 2009.86,348.687 2104.32,359.657 2198.78,318.452 2293.24,260.945 "/>
<circle clip-path="url(#clip792)" cx="309.539" cy="114.521" r="14.4" fill="#000000" fill-rule="evenodd" fill-opacity="1" stroke="none"/>
<circle clip-path="url(#clip792)" cx="404.001" cy="139.619" r="14.4" fill="#000000" fill-rule="evenodd" fill-opacity="1" stroke="none"/>
<circle clip-path="url(#clip792)" cx="498.464" cy="203.255" r="14.4" fill="#000000" fill-rule="evenodd" fill-opacity="1" stroke="none"/>
<circle clip-path="url(#clip792)" cx="592.926" cy="252.553" r="14.4" fill="#000000" fill-rule="evenodd" fill-opacity="1" stroke="none"/>
<circle clip-path="url(#clip792)" cx="687.388" cy="250.24" r="14.4" fill="#000000" fill-rule="evenodd" fill-opacity="1" stroke="none"/>
<circle clip-path="url(#clip792)" cx="781.85" cy="285.61" r="14.4" fill="#000000" fill-rule="evenodd" fill-opacity="1" stroke="none"/>
<circle clip-path="url(#clip792)" cx="876.312" cy="256.525" r="14.4" fill="#000000" fill-rule="evenodd" fill-opacity="1" stroke="none"/>
<circle clip-path="url(#clip792)" cx="970.774" cy="298.093" r="14.4" fill="#000000" fill-rule="evenodd" fill-opacity="1" stroke="none"/>
<circle clip-path="url(#clip792)" cx="1065.24" cy="354.742" r="14.4" fill="#000000" fill-rule="evenodd" fill-opacity="1" stroke="none"/>
<circle clip-path="url(#clip792)" cx="1159.7" cy="370.534" r="14.4" fill="#000000" fill-rule="evenodd" fill-opacity="1" stroke="none"/>
<circle clip-path="url(#clip792)" cx="1254.16" cy="316.434" r="14.4" fill="#000000" fill-rule="evenodd" fill-opacity="1" stroke="none"/>
<circle clip-path="url(#clip792)" cx="1348.62" cy="335.986" r="14.4" fill="#000000" fill-rule="evenodd" fill-opacity="1" stroke="none"/>
<circle clip-path="url(#clip792)" cx="1443.09" cy="364.448" r="14.4" fill="#000000" fill-rule="evenodd" fill-opacity="1" stroke="none"/>
<circle clip-path="url(#clip792)" cx="1537.55" cy="372.135" r="14.4" fill="#000000" fill-rule="evenodd" fill-opacity="1" stroke="none"/>
<circle clip-path="url(#clip792)" cx="1632.01" cy="347.049" r="14.4" fill="#000000" fill-rule="evenodd" fill-opacity="1" stroke="none"/>
<circle clip-path="url(#clip792)" cx="1726.47" cy="345.384" r="14.4" fill="#000000" fill-rule="evenodd" fill-opacity="1" stroke="none"/>
<circle clip-path="url(#clip792)" cx="1820.93" cy="370.104" r="14.4" fill="#000000" fill-rule="evenodd" fill-opacity="1" stroke="none"/>
<circle clip-path="url(#clip792)" cx="1915.4" cy="360.964" r="14.4" fill="#000000" fill-rule="evenodd" fill-opacity="1" stroke="none"/>
<circle clip-path="url(#clip792)" cx="2009.86" cy="348.687" r="14.4" fill="#000000" fill-rule="evenodd" fill-opacity="1" stroke="none"/>
<circle clip-path="url(#clip792)" cx="2104.32" cy="359.657" r="14.4" fill="#000000" fill-rule="evenodd" fill-opacity="1" stroke="none"/>
<circle clip-path="url(#clip792)" cx="2198.78" cy="318.452" r="14.4" fill="#000000" fill-rule="evenodd" fill-opacity="1" stroke="none"/>
<circle clip-path="url(#clip792)" cx="2293.24" cy="260.945" r="14.4" fill="#000000" fill-rule="evenodd" fill-opacity="1" stroke="none"/>
<polyline clip-path="url(#clip792)" style="stroke:#ff7e0d; stroke-linecap:round; stroke-linejoin:round; stroke-width:8; stroke-opacity:1; fill:none" points="309.539,86.1857 404.001,177 498.464,314.268 592.926,514.2 687.388,553.615 781.85,522.693 876.312,734.851 970.774,715.827 1065.24,881.33 1159.7,893.793 1254.16,977.711 1348.62,1012.2 1443.09,1145.49 1537.55,1034.13 1632.01,1083.88 1726.47,1168.94 1820.93,1195.39 1915.4,1222.44 2009.86,1249.28 2104.32,1225.92 2198.78,1246.66 2293.24,979.722 "/>
<circle clip-path="url(#clip792)" cx="309.539" cy="86.1857" r="14.4" fill="#ff7e0d" fill-rule="evenodd" fill-opacity="1" stroke="#000000" stroke-opacity="1" stroke-width="3.2"/>
<circle clip-path="url(#clip792)" cx="404.001" cy="177" r="14.4" fill="#ff7e0d" fill-rule="evenodd" fill-opacity="1" stroke="#000000" stroke-opacity="1" stroke-width="3.2"/>
<circle clip-path="url(#clip792)" cx="498.464" cy="314.268" r="14.4" fill="#ff7e0d" fill-rule="evenodd" fill-opacity="1" stroke="#000000" stroke-opacity="1" stroke-width="3.2"/>
<circle clip-path="url(#clip792)" cx="592.926" cy="514.2" r="14.4" fill="#ff7e0d" fill-rule="evenodd" fill-opacity="1" stroke="#000000" stroke-opacity="1" stroke-width="3.2"/>
<circle clip-path="url(#clip792)" cx="687.388" cy="553.615" r="14.4" fill="#ff7e0d" fill-rule="evenodd" fill-opacity="1" stroke="#000000" stroke-opacity="1" stroke-width="3.2"/>
<circle clip-path="url(#clip792)" cx="781.85" cy="522.693" r="14.4" fill="#ff7e0d" fill-rule="evenodd" fill-opacity="1" stroke="#000000" stroke-opacity="1" stroke-width="3.2"/>
<circle clip-path="url(#clip792)" cx="876.312" cy="734.851" r="14.4" fill="#ff7e0d" fill-rule="evenodd" fill-opacity="1" stroke="#000000" stroke-opacity="1" stroke-width="3.2"/>
<circle clip-path="url(#clip792)" cx="970.774" cy="715.827" r="14.4" fill="#ff7e0d" fill-rule="evenodd" fill-opacity="1" stroke="#000000" stroke-opacity="1" stroke-width="3.2"/>
<circle clip-path="url(#clip792)" cx="1065.24" cy="881.33" r="14.4" fill="#ff7e0d" fill-rule="evenodd" fill-opacity="1" stroke="#000000" stroke-opacity="1" stroke-width="3.2"/>
<circle clip-path="url(#clip792)" cx="1159.7" cy="893.793" r="14.4" fill="#ff7e0d" fill-rule="evenodd" fill-opacity="1" stroke="#000000" stroke-opacity="1" stroke-width="3.2"/>
<circle clip-path="url(#clip792)" cx="1254.16" cy="977.711" r="14.4" fill="#ff7e0d" fill-rule="evenodd" fill-opacity="1" stroke="#000000" stroke-opacity="1" stroke-width="3.2"/>
<circle clip-path="url(#clip792)" cx="1348.62" cy="1012.2" r="14.4" fill="#ff7e0d" fill-rule="evenodd" fill-opacity="1" stroke="#000000" stroke-opacity="1" stroke-width="3.2"/>
<circle clip-path="url(#clip792)" cx="1443.09" cy="1145.49" r="14.4" fill="#ff7e0d" fill-rule="evenodd" fill-opacity="1" stroke="#000000" stroke-opacity="1" stroke-width="3.2"/>
<circle clip-path="url(#clip792)" cx="1537.55" cy="1034.13" r="14.4" fill="#ff7e0d" fill-rule="evenodd" fill-opacity="1" stroke="#000000" stroke-opacity="1" stroke-width="3.2"/>
<circle clip-path="url(#clip792)" cx="1632.01" cy="1083.88" r="14.4" fill="#ff7e0d" fill-rule="evenodd" fill-opacity="1" stroke="#000000" stroke-opacity="1" stroke-width="3.2"/>
<circle clip-path="url(#clip792)" cx="1726.47" cy="1168.94" r="14.4" fill="#ff7e0d" fill-rule="evenodd" fill-opacity="1" stroke="#000000" stroke-opacity="1" stroke-width="3.2"/>
<circle clip-path="url(#clip792)" cx="1820.93" cy="1195.39" r="14.4" fill="#ff7e0d" fill-rule="evenodd" fill-opacity="1" stroke="#000000" stroke-opacity="1" stroke-width="3.2"/>
<circle clip-path="url(#clip792)" cx="1915.4" cy="1222.44" r="14.4" fill="#ff7e0d" fill-rule="evenodd" fill-opacity="1" stroke="#000000" stroke-opacity="1" stroke-width="3.2"/>
<circle clip-path="url(#clip792)" cx="2009.86" cy="1249.28" r="14.4" fill="#ff7e0d" fill-rule="evenodd" fill-opacity="1" stroke="#000000" stroke-opacity="1" stroke-width="3.2"/>
<circle clip-path="url(#clip792)" cx="2104.32" cy="1225.92" r="14.4" fill="#ff7e0d" fill-rule="evenodd" fill-opacity="1" stroke="#000000" stroke-opacity="1" stroke-width="3.2"/>
<circle clip-path="url(#clip792)" cx="2198.78" cy="1246.66" r="14.4" fill="#ff7e0d" fill-rule="evenodd" fill-opacity="1" stroke="#000000" stroke-opacity="1" stroke-width="3.2"/>
<circle clip-path="url(#clip792)" cx="2293.24" cy="979.722" r="14.4" fill="#ff7e0d" fill-rule="evenodd" fill-opacity="1" stroke="#000000" stroke-opacity="1" stroke-width="3.2"/>
<polyline clip-path="url(#clip792)" style="stroke:#2ba02b; stroke-linecap:round; stroke-linejoin:round; stroke-width:8; stroke-opacity:1; fill:none" points="309.539,531.958 404.001,618.513 498.464,772.417 592.926,910.948 687.388,925.934 781.85,809.39 876.312,950.044 970.774,1056.52 1065.24,1116.73 1159.7,1115.5 1254.16,1126.01 1348.62,1215.17 1443.09,1277.22 1537.55,1192.85 1632.01,1239 1726.47,1344.03 1820.93,1363.64 1915.4,1323.46 2009.86,1328.1 2104.32,1289.79 2198.78,1309.38 2293.24,1197.3 "/>
<circle clip-path="url(#clip792)" cx="309.539" cy="531.958" r="14.4" fill="#2ba02b" fill-rule="evenodd" fill-opacity="1" stroke="#000000" stroke-opacity="1" stroke-width="3.2"/>
<circle clip-path="url(#clip792)" cx="404.001" cy="618.513" r="14.4" fill="#2ba02b" fill-rule="evenodd" fill-opacity="1" stroke="#000000" stroke-opacity="1" stroke-width="3.2"/>
<circle clip-path="url(#clip792)" cx="498.464" cy="772.417" r="14.4" fill="#2ba02b" fill-rule="evenodd" fill-opacity="1" stroke="#000000" stroke-opacity="1" stroke-width="3.2"/>
<circle clip-path="url(#clip792)" cx="592.926" cy="910.948" r="14.4" fill="#2ba02b" fill-rule="evenodd" fill-opacity="1" stroke="#000000" stroke-opacity="1" stroke-width="3.2"/>
<circle clip-path="url(#clip792)" cx="687.388" cy="925.934" r="14.4" fill="#2ba02b" fill-rule="evenodd" fill-opacity="1" stroke="#000000" stroke-opacity="1" stroke-width="3.2"/>
<circle clip-path="url(#clip792)" cx="781.85" cy="809.39" r="14.4" fill="#2ba02b" fill-rule="evenodd" fill-opacity="1" stroke="#000000" stroke-opacity="1" stroke-width="3.2"/>
<circle clip-path="url(#clip792)" cx="876.312" cy="950.044" r="14.4" fill="#2ba02b" fill-rule="evenodd" fill-opacity="1" stroke="#000000" stroke-opacity="1" stroke-width="3.2"/>
<circle clip-path="url(#clip792)" cx="970.774" cy="1056.52" r="14.4" fill="#2ba02b" fill-rule="evenodd" fill-opacity="1" stroke="#000000" stroke-opacity="1" stroke-width="3.2"/>
<circle clip-path="url(#clip792)" cx="1065.24" cy="1116.73" r="14.4" fill="#2ba02b" fill-rule="evenodd" fill-opacity="1" stroke="#000000" stroke-opacity="1" stroke-width="3.2"/>
<circle clip-path="url(#clip792)" cx="1159.7" cy="1115.5" r="14.4" fill="#2ba02b" fill-rule="evenodd" fill-opacity="1" stroke="#000000" stroke-opacity="1" stroke-width="3.2"/>
<circle clip-path="url(#clip792)" cx="1254.16" cy="1126.01" r="14.4" fill="#2ba02b" fill-rule="evenodd" fill-opacity="1" stroke="#000000" stroke-opacity="1" stroke-width="3.2"/>
<circle clip-path="url(#clip792)" cx="1348.62" cy="1215.17" r="14.4" fill="#2ba02b" fill-rule="evenodd" fill-opacity="1" stroke="#000000" stroke-opacity="1" stroke-width="3.2"/>
<circle clip-path="url(#clip792)" cx="1443.09" cy="1277.22" r="14.4" fill="#2ba02b" fill-rule="evenodd" fill-opacity="1" stroke="#000000" stroke-opacity="1" stroke-width="3.2"/>
<circle clip-path="url(#clip792)" cx="1537.55" cy="1192.85" r="14.4" fill="#2ba02b" fill-rule="evenodd" fill-opacity="1" stroke="#000000" stroke-opacity="1" stroke-width="3.2"/>
<circle clip-path="url(#clip792)" cx="1632.01" cy="1239" r="14.4" fill="#2ba02b" fill-rule="evenodd" fill-opacity="1" stroke="#000000" stroke-opacity="1" stroke-width="3.2"/>
<circle clip-path="url(#clip792)" cx="1726.47" cy="1344.03" r="14.4" fill="#2ba02b" fill-rule="evenodd" fill-opacity="1" stroke="#000000" stroke-opacity="1" stroke-width="3.2"/>
<circle clip-path="url(#clip792)" cx="1820.93" cy="1363.64" r="14.4" fill="#2ba02b" fill-rule="evenodd" fill-opacity="1" stroke="#000000" stroke-opacity="1" stroke-width="3.2"/>
<circle clip-path="url(#clip792)" cx="1915.4" cy="1323.46" r="14.4" fill="#2ba02b" fill-rule="evenodd" fill-opacity="1" stroke="#000000" stroke-opacity="1" stroke-width="3.2"/>
<circle clip-path="url(#clip792)" cx="2009.86" cy="1328.1" r="14.4" fill="#2ba02b" fill-rule="evenodd" fill-opacity="1" stroke="#000000" stroke-opacity="1" stroke-width="3.2"/>
<circle clip-path="url(#clip792)" cx="2104.32" cy="1289.79" r="14.4" fill="#2ba02b" fill-rule="evenodd" fill-opacity="1" stroke="#000000" stroke-opacity="1" stroke-width="3.2"/>
<circle clip-path="url(#clip792)" cx="2198.78" cy="1309.38" r="14.4" fill="#2ba02b" fill-rule="evenodd" fill-opacity="1" stroke="#000000" stroke-opacity="1" stroke-width="3.2"/>
<circle clip-path="url(#clip792)" cx="2293.24" cy="1197.3" r="14.4" fill="#2ba02b" fill-rule="evenodd" fill-opacity="1" stroke="#000000" stroke-opacity="1" stroke-width="3.2"/>
<polyline clip-path="url(#clip792)" style="stroke:#d52628; stroke-linecap:round; stroke-linejoin:round; stroke-width:8; stroke-opacity:1; fill:none" points="309.539,824.028 404.001,1001.08 498.464,1000.57 592.926,1094.79 687.388,1136.15 781.85,1111.25 876.312,1169.99 970.774,1204.14 1065.24,1289.13 1159.7,1257.09 1254.16,1225.02 1348.62,1271.95 1443.09,1298.12 1537.55,1312.55 1632.01,1324.26 1726.47,1348.15 1820.93,1370.09 1915.4,1358.05 2009.86,1384.24 2104.32,1330.92 2198.78,1277.85 2293.24,1202.15 "/>
<circle clip-path="url(#clip792)" cx="309.539" cy="824.028" r="14.4" fill="#d52628" fill-rule="evenodd" fill-opacity="1" stroke="#000000" stroke-opacity="1" stroke-width="3.2"/>
<circle clip-path="url(#clip792)" cx="404.001" cy="1001.08" r="14.4" fill="#d52628" fill-rule="evenodd" fill-opacity="1" stroke="#000000" stroke-opacity="1" stroke-width="3.2"/>
<circle clip-path="url(#clip792)" cx="498.464" cy="1000.57" r="14.4" fill="#d52628" fill-rule="evenodd" fill-opacity="1" stroke="#000000" stroke-opacity="1" stroke-width="3.2"/>
<circle clip-path="url(#clip792)" cx="592.926" cy="1094.79" r="14.4" fill="#d52628" fill-rule="evenodd" fill-opacity="1" stroke="#000000" stroke-opacity="1" stroke-width="3.2"/>
<circle clip-path="url(#clip792)" cx="687.388" cy="1136.15" r="14.4" fill="#d52628" fill-rule="evenodd" fill-opacity="1" stroke="#000000" stroke-opacity="1" stroke-width="3.2"/>
<circle clip-path="url(#clip792)" cx="781.85" cy="1111.25" r="14.4" fill="#d52628" fill-rule="evenodd" fill-opacity="1" stroke="#000000" stroke-opacity="1" stroke-width="3.2"/>
<circle clip-path="url(#clip792)" cx="876.312" cy="1169.99" r="14.4" fill="#d52628" fill-rule="evenodd" fill-opacity="1" stroke="#000000" stroke-opacity="1" stroke-width="3.2"/>
<circle clip-path="url(#clip792)" cx="970.774" cy="1204.14" r="14.4" fill="#d52628" fill-rule="evenodd" fill-opacity="1" stroke="#000000" stroke-opacity="1" stroke-width="3.2"/>
<circle clip-path="url(#clip792)" cx="1065.24" cy="1289.13" r="14.4" fill="#d52628" fill-rule="evenodd" fill-opacity="1" stroke="#000000" stroke-opacity="1" stroke-width="3.2"/>
<circle clip-path="url(#clip792)" cx="1159.7" cy="1257.09" r="14.4" fill="#d52628" fill-rule="evenodd" fill-opacity="1" stroke="#000000" stroke-opacity="1" stroke-width="3.2"/>
<circle clip-path="url(#clip792)" cx="1254.16" cy="1225.02" r="14.4" fill="#d52628" fill-rule="evenodd" fill-opacity="1" stroke="#000000" stroke-opacity="1" stroke-width="3.2"/>
<circle clip-path="url(#clip792)" cx="1348.62" cy="1271.95" r="14.4" fill="#d52628" fill-rule="evenodd" fill-opacity="1" stroke="#000000" stroke-opacity="1" stroke-width="3.2"/>
<circle clip-path="url(#clip792)" cx="1443.09" cy="1298.12" r="14.4" fill="#d52628" fill-rule="evenodd" fill-opacity="1" stroke="#000000" stroke-opacity="1" stroke-width="3.2"/>
<circle clip-path="url(#clip792)" cx="1537.55" cy="1312.55" r="14.4" fill="#d52628" fill-rule="evenodd" fill-opacity="1" stroke="#000000" stroke-opacity="1" stroke-width="3.2"/>
<circle clip-path="url(#clip792)" cx="1632.01" cy="1324.26" r="14.4" fill="#d52628" fill-rule="evenodd" fill-opacity="1" stroke="#000000" stroke-opacity="1" stroke-width="3.2"/>
<circle clip-path="url(#clip792)" cx="1726.47" cy="1348.15" r="14.4" fill="#d52628" fill-rule="evenodd" fill-opacity="1" stroke="#000000" stroke-opacity="1" stroke-width="3.2"/>
<circle clip-path="url(#clip792)" cx="1820.93" cy="1370.09" r="14.4" fill="#d52628" fill-rule="evenodd" fill-opacity="1" stroke="#000000" stroke-opacity="1" stroke-width="3.2"/>
<circle clip-path="url(#clip792)" cx="1915.4" cy="1358.05" r="14.4" fill="#d52628" fill-rule="evenodd" fill-opacity="1" stroke="#000000" stroke-opacity="1" stroke-width="3.2"/>
<circle clip-path="url(#clip792)" cx="2009.86" cy="1384.24" r="14.4" fill="#d52628" fill-rule="evenodd" fill-opacity="1" stroke="#000000" stroke-opacity="1" stroke-width="3.2"/>
<circle clip-path="url(#clip792)" cx="2104.32" cy="1330.92" r="14.4" fill="#d52628" fill-rule="evenodd" fill-opacity="1" stroke="#000000" stroke-opacity="1" stroke-width="3.2"/>
<circle clip-path="url(#clip792)" cx="2198.78" cy="1277.85" r="14.4" fill="#d52628" fill-rule="evenodd" fill-opacity="1" stroke="#000000" stroke-opacity="1" stroke-width="3.2"/>
<circle clip-path="url(#clip792)" cx="2293.24" cy="1202.15" r="14.4" fill="#d52628" fill-rule="evenodd" fill-opacity="1" stroke="#000000" stroke-opacity="1" stroke-width="3.2"/>
<path clip-path="url(#clip790)" d="M1056.51 352.309 L1546.27 352.309 L1546.27 93.1086 L1056.51 93.1086  Z" fill="#ffffff" fill-rule="evenodd" fill-opacity="1"/>
<polyline clip-path="url(#clip790)" style="stroke:#000000; stroke-linecap:round; stroke-linejoin:round; stroke-width:4; stroke-opacity:1; fill:none" points="1056.51,352.309 1546.27,352.309 1546.27,93.1086 1056.51,93.1086 1056.51,352.309 "/>
<polyline clip-path="url(#clip790)" style="stroke:#000000; stroke-linecap:round; stroke-linejoin:round; stroke-width:8; stroke-opacity:1; fill:none" stroke-dasharray="4, 8" points="1079.87,144.949 1220.06,144.949 "/>
<path clip-path="url(#clip790)" d="M1244.09 158.293 L1251.73 158.293 L1251.73 131.928 L1243.42 133.595 L1243.42 129.335 L1251.68 127.669 L1256.36 127.669 L1256.36 158.293 L1264 158.293 L1264 162.229 L1244.09 162.229 L1244.09 158.293 Z" fill="#000000" fill-rule="nonzero" fill-opacity="1" /><path clip-path="url(#clip790)" d="M1273.03 127.669 L1279.32 127.669 L1294.65 156.581 L1294.65 127.669 L1299.18 127.669 L1299.18 162.229 L1292.89 162.229 L1277.56 133.317 L1277.56 162.229 L1273.03 162.229 L1273.03 127.669 Z" fill="#000000" fill-rule="nonzero" fill-opacity="1" /><path clip-path="url(#clip790)" d="M1308.49 127.669 L1314.79 127.669 L1330.11 156.581 L1330.11 127.669 L1334.65 127.669 L1334.65 162.229 L1328.35 162.229 L1313.03 133.317 L1313.03 162.229 L1308.49 162.229 L1308.49 127.669 Z" fill="#000000" fill-rule="nonzero" fill-opacity="1" /><polyline clip-path="url(#clip790)" style="stroke:#ff7e0d; stroke-linecap:round; stroke-linejoin:round; stroke-width:8; stroke-opacity:1; fill:none" points="1079.87,196.789 1220.06,196.789 "/>
<path clip-path="url(#clip790)" d="M1243.42 179.509 L1250.39 179.509 L1259.21 203.027 L1268.07 179.509 L1275.04 179.509 L1275.04 214.069 L1270.48 214.069 L1270.48 183.722 L1261.57 207.425 L1256.87 207.425 L1247.96 183.722 L1247.96 214.069 L1243.42 214.069 L1243.42 179.509 Z" fill="#000000" fill-rule="nonzero" fill-opacity="1" /><path clip-path="url(#clip790)" d="M1289 183.351 L1289 196.337 L1294.88 196.337 Q1298.14 196.337 1299.92 194.647 Q1301.71 192.958 1301.71 189.833 Q1301.71 186.731 1299.92 185.041 Q1298.14 183.351 1294.88 183.351 L1289 183.351 M1284.32 179.509 L1294.88 179.509 Q1300.69 179.509 1303.65 182.147 Q1306.64 184.763 1306.64 189.833 Q1306.64 194.948 1303.65 197.564 Q1300.69 200.18 1294.88 200.18 L1289 200.18 L1289 214.069 L1284.32 214.069 L1284.32 179.509 Z" fill="#000000" fill-rule="nonzero" fill-opacity="1" /><path clip-path="url(#clip790)" d="M1333.63 180.643 L1333.63 185.203 Q1330.97 183.93 1328.6 183.305 Q1326.24 182.68 1324.04 182.68 Q1320.23 182.68 1318.14 184.161 Q1316.08 185.643 1316.08 188.374 Q1316.08 190.666 1317.45 191.847 Q1318.84 193.004 1322.68 193.722 L1325.5 194.3 Q1330.73 195.296 1333.21 197.819 Q1335.71 200.319 1335.71 204.532 Q1335.71 209.555 1332.33 212.147 Q1328.98 214.74 1322.47 214.74 Q1320.02 214.74 1317.24 214.184 Q1314.48 213.629 1311.52 212.541 L1311.52 207.726 Q1314.37 209.323 1317.1 210.133 Q1319.83 210.944 1322.47 210.944 Q1326.48 210.944 1328.65 209.37 Q1330.83 207.796 1330.83 204.879 Q1330.83 202.333 1329.25 200.897 Q1327.7 199.462 1324.14 198.745 L1321.29 198.189 Q1316.06 197.147 1313.72 194.925 Q1311.38 192.703 1311.38 188.745 Q1311.38 184.161 1314.6 181.522 Q1317.84 178.884 1323.51 178.884 Q1325.94 178.884 1328.47 179.323 Q1330.99 179.763 1333.63 180.643 Z" fill="#000000" fill-rule="nonzero" fill-opacity="1" /><path clip-path="url(#clip790)" d="M1343.91 208.189 L1348.79 208.189 L1348.79 212.17 L1344.99 219.578 L1342.01 219.578 L1343.91 212.17 L1343.91 208.189 Z" fill="#000000" fill-rule="nonzero" fill-opacity="1" /><path clip-path="url(#clip790)" d="M1385.43 219.856 L1381.98 210.99 L1374.88 223.953 L1369.85 223.953 L1379.9 205.62 L1375.69 194.717 Q1374.55 191.8 1370.99 191.8 L1369.85 191.8 L1369.85 188.143 L1371.48 188.189 Q1377.45 188.351 1378.95 192.217 L1382.38 201.083 L1389.48 188.12 L1394.51 188.12 L1384.46 206.453 L1388.67 217.356 Q1389.81 220.272 1393.37 220.272 L1394.51 220.272 L1394.51 223.93 L1392.89 223.883 Q1386.91 223.721 1385.43 219.856 Z" fill="#000000" fill-rule="nonzero" fill-opacity="1" /><path clip-path="url(#clip790)" d="M1415.97 192.541 L1445.64 192.541 L1445.64 196.43 L1415.97 196.43 L1415.97 192.541 M1415.97 201.985 L1445.64 201.985 L1445.64 205.921 L1415.97 205.921 L1415.97 201.985 Z" fill="#000000" fill-rule="nonzero" fill-opacity="1" /><path clip-path="url(#clip790)" d="M1484.97 195.434 Q1488.33 196.152 1490.2 198.421 Q1492.1 200.689 1492.1 204.022 Q1492.1 209.138 1488.58 211.939 Q1485.06 214.74 1478.58 214.74 Q1476.41 214.74 1474.09 214.3 Q1471.8 213.883 1469.34 213.027 L1469.34 208.513 Q1471.29 209.647 1473.6 210.226 Q1475.92 210.805 1478.44 210.805 Q1482.84 210.805 1485.13 209.069 Q1487.45 207.333 1487.45 204.022 Q1487.45 200.967 1485.29 199.254 Q1483.16 197.518 1479.34 197.518 L1475.32 197.518 L1475.32 193.675 L1479.53 193.675 Q1482.98 193.675 1484.81 192.309 Q1486.64 190.921 1486.64 188.328 Q1486.64 185.666 1484.74 184.254 Q1482.86 182.819 1479.34 182.819 Q1477.42 182.819 1475.22 183.235 Q1473.03 183.652 1470.39 184.532 L1470.39 180.365 Q1473.05 179.624 1475.36 179.254 Q1477.7 178.884 1479.76 178.884 Q1485.09 178.884 1488.19 181.314 Q1491.29 183.722 1491.29 187.842 Q1491.29 190.712 1489.65 192.703 Q1488 194.671 1484.97 195.434 Z" fill="#000000" fill-rule="nonzero" fill-opacity="1" /><path clip-path="url(#clip790)" d="M1510.97 182.587 Q1507.35 182.587 1505.53 186.152 Q1503.72 189.694 1503.72 196.823 Q1503.72 203.93 1505.53 207.495 Q1507.35 211.036 1510.97 211.036 Q1514.6 211.036 1516.4 207.495 Q1518.23 203.93 1518.23 196.823 Q1518.23 189.694 1516.4 186.152 Q1514.6 182.587 1510.97 182.587 M1510.97 178.884 Q1516.78 178.884 1519.83 183.49 Q1522.91 188.073 1522.91 196.823 Q1522.91 205.55 1519.83 210.157 Q1516.78 214.74 1510.97 214.74 Q1505.15 214.74 1502.08 210.157 Q1499.02 205.55 1499.02 196.823 Q1499.02 188.073 1502.08 183.49 Q1505.15 178.884 1510.97 178.884 Z" fill="#000000" fill-rule="nonzero" fill-opacity="1" /><polyline clip-path="url(#clip790)" style="stroke:#2ba02b; stroke-linecap:round; stroke-linejoin:round; stroke-width:8; stroke-opacity:1; fill:none" points="1079.87,248.629 1220.06,248.629 "/>
<path clip-path="url(#clip790)" d="M1243.42 231.349 L1250.39 231.349 L1259.21 254.867 L1268.07 231.349 L1275.04 231.349 L1275.04 265.909 L1270.48 265.909 L1270.48 235.562 L1261.57 259.265 L1256.87 259.265 L1247.96 235.562 L1247.96 265.909 L1243.42 265.909 L1243.42 231.349 Z" fill="#000000" fill-rule="nonzero" fill-opacity="1" /><path clip-path="url(#clip790)" d="M1289 235.191 L1289 248.177 L1294.88 248.177 Q1298.14 248.177 1299.92 246.487 Q1301.71 244.798 1301.71 241.673 Q1301.71 238.571 1299.92 236.881 Q1298.14 235.191 1294.88 235.191 L1289 235.191 M1284.32 231.349 L1294.88 231.349 Q1300.69 231.349 1303.65 233.987 Q1306.64 236.603 1306.64 241.673 Q1306.64 246.788 1303.65 249.404 Q1300.69 252.02 1294.88 252.02 L1289 252.02 L1289 265.909 L1284.32 265.909 L1284.32 231.349 Z" fill="#000000" fill-rule="nonzero" fill-opacity="1" /><path clip-path="url(#clip790)" d="M1333.63 232.483 L1333.63 237.043 Q1330.97 235.77 1328.6 235.145 Q1326.24 234.52 1324.04 234.52 Q1320.23 234.52 1318.14 236.001 Q1316.08 237.483 1316.08 240.214 Q1316.08 242.506 1317.45 243.687 Q1318.84 244.844 1322.68 245.562 L1325.5 246.14 Q1330.73 247.136 1333.21 249.659 Q1335.71 252.159 1335.71 256.372 Q1335.71 261.395 1332.33 263.987 Q1328.98 266.58 1322.47 266.58 Q1320.02 266.58 1317.24 266.024 Q1314.48 265.469 1311.52 264.381 L1311.52 259.566 Q1314.37 261.163 1317.1 261.973 Q1319.83 262.784 1322.47 262.784 Q1326.48 262.784 1328.65 261.21 Q1330.83 259.636 1330.83 256.719 Q1330.83 254.173 1329.25 252.737 Q1327.7 251.302 1324.14 250.585 L1321.29 250.029 Q1316.06 248.987 1313.72 246.765 Q1311.38 244.543 1311.38 240.585 Q1311.38 236.001 1314.6 233.362 Q1317.84 230.724 1323.51 230.724 Q1325.94 230.724 1328.47 231.163 Q1330.99 231.603 1333.63 232.483 Z" fill="#000000" fill-rule="nonzero" fill-opacity="1" /><path clip-path="url(#clip790)" d="M1343.91 260.029 L1348.79 260.029 L1348.79 264.01 L1344.99 271.418 L1342.01 271.418 L1343.91 264.01 L1343.91 260.029 Z" fill="#000000" fill-rule="nonzero" fill-opacity="1" /><path clip-path="url(#clip790)" d="M1385.43 271.696 L1381.98 262.83 L1374.88 275.793 L1369.85 275.793 L1379.9 257.46 L1375.69 246.557 Q1374.55 243.64 1370.99 243.64 L1369.85 243.64 L1369.85 239.983 L1371.48 240.029 Q1377.45 240.191 1378.95 244.057 L1382.38 252.923 L1389.48 239.96 L1394.51 239.96 L1384.46 258.293 L1388.67 269.196 Q1389.81 272.112 1393.37 272.112 L1394.51 272.112 L1394.51 275.77 L1392.89 275.723 Q1386.91 275.561 1385.43 271.696 Z" fill="#000000" fill-rule="nonzero" fill-opacity="1" /><path clip-path="url(#clip790)" d="M1415.97 244.381 L1445.64 244.381 L1445.64 248.27 L1415.97 248.27 L1415.97 244.381 M1415.97 253.825 L1445.64 253.825 L1445.64 257.761 L1415.97 257.761 L1415.97 253.825 Z" fill="#000000" fill-rule="nonzero" fill-opacity="1" /><path clip-path="url(#clip790)" d="M1483.65 235.423 L1471.84 253.872 L1483.65 253.872 L1483.65 235.423 M1482.42 231.349 L1488.3 231.349 L1488.3 253.872 L1493.23 253.872 L1493.23 257.761 L1488.3 257.761 L1488.3 265.909 L1483.65 265.909 L1483.65 257.761 L1468.05 257.761 L1468.05 253.247 L1482.42 231.349 Z" fill="#000000" fill-rule="nonzero" fill-opacity="1" /><path clip-path="url(#clip790)" d="M1510.97 234.427 Q1507.35 234.427 1505.53 237.992 Q1503.72 241.534 1503.72 248.663 Q1503.72 255.77 1505.53 259.335 Q1507.35 262.876 1510.97 262.876 Q1514.6 262.876 1516.4 259.335 Q1518.23 255.77 1518.23 248.663 Q1518.23 241.534 1516.4 237.992 Q1514.6 234.427 1510.97 234.427 M1510.97 230.724 Q1516.78 230.724 1519.83 235.33 Q1522.91 239.913 1522.91 248.663 Q1522.91 257.39 1519.83 261.997 Q1516.78 266.58 1510.97 266.58 Q1505.15 266.58 1502.08 261.997 Q1499.02 257.39 1499.02 248.663 Q1499.02 239.913 1502.08 235.33 Q1505.15 230.724 1510.97 230.724 Z" fill="#000000" fill-rule="nonzero" fill-opacity="1" /><polyline clip-path="url(#clip790)" style="stroke:#d52628; stroke-linecap:round; stroke-linejoin:round; stroke-width:8; stroke-opacity:1; fill:none" points="1079.87,300.469 1220.06,300.469 "/>
<path clip-path="url(#clip790)" d="M1243.42 283.189 L1250.39 283.189 L1259.21 306.707 L1268.07 283.189 L1275.04 283.189 L1275.04 317.749 L1270.48 317.749 L1270.48 287.402 L1261.57 311.105 L1256.87 311.105 L1247.96 287.402 L1247.96 317.749 L1243.42 317.749 L1243.42 283.189 Z" fill="#000000" fill-rule="nonzero" fill-opacity="1" /><path clip-path="url(#clip790)" d="M1289 287.031 L1289 300.017 L1294.88 300.017 Q1298.14 300.017 1299.92 298.327 Q1301.71 296.638 1301.71 293.513 Q1301.71 290.411 1299.92 288.721 Q1298.14 287.031 1294.88 287.031 L1289 287.031 M1284.32 283.189 L1294.88 283.189 Q1300.69 283.189 1303.65 285.827 Q1306.64 288.443 1306.64 293.513 Q1306.64 298.628 1303.65 301.244 Q1300.69 303.86 1294.88 303.86 L1289 303.86 L1289 317.749 L1284.32 317.749 L1284.32 283.189 Z" fill="#000000" fill-rule="nonzero" fill-opacity="1" /><path clip-path="url(#clip790)" d="M1333.63 284.323 L1333.63 288.883 Q1330.97 287.61 1328.6 286.985 Q1326.24 286.36 1324.04 286.36 Q1320.23 286.36 1318.14 287.841 Q1316.08 289.323 1316.08 292.054 Q1316.08 294.346 1317.45 295.527 Q1318.84 296.684 1322.68 297.402 L1325.5 297.98 Q1330.73 298.976 1333.21 301.499 Q1335.71 303.999 1335.71 308.212 Q1335.71 313.235 1332.33 315.827 Q1328.98 318.42 1322.47 318.42 Q1320.02 318.42 1317.24 317.864 Q1314.48 317.309 1311.52 316.221 L1311.52 311.406 Q1314.37 313.003 1317.1 313.813 Q1319.83 314.624 1322.47 314.624 Q1326.48 314.624 1328.65 313.05 Q1330.83 311.476 1330.83 308.559 Q1330.83 306.013 1329.25 304.577 Q1327.7 303.142 1324.14 302.425 L1321.29 301.869 Q1316.06 300.827 1313.72 298.605 Q1311.38 296.383 1311.38 292.425 Q1311.38 287.841 1314.6 285.202 Q1317.84 282.564 1323.51 282.564 Q1325.94 282.564 1328.47 283.003 Q1330.99 283.443 1333.63 284.323 Z" fill="#000000" fill-rule="nonzero" fill-opacity="1" /><path clip-path="url(#clip790)" d="M1343.91 311.869 L1348.79 311.869 L1348.79 315.85 L1344.99 323.258 L1342.01 323.258 L1343.91 315.85 L1343.91 311.869 Z" fill="#000000" fill-rule="nonzero" fill-opacity="1" /><path clip-path="url(#clip790)" d="M1385.43 323.536 L1381.98 314.67 L1374.88 327.633 L1369.85 327.633 L1379.9 309.3 L1375.69 298.397 Q1374.55 295.48 1370.99 295.48 L1369.85 295.48 L1369.85 291.823 L1371.48 291.869 Q1377.45 292.031 1378.95 295.897 L1382.38 304.763 L1389.48 291.8 L1394.51 291.8 L1384.46 310.133 L1388.67 321.036 Q1389.81 323.952 1393.37 323.952 L1394.51 323.952 L1394.51 327.61 L1392.89 327.563 Q1386.91 327.401 1385.43 323.536 Z" fill="#000000" fill-rule="nonzero" fill-opacity="1" /><path clip-path="url(#clip790)" d="M1415.97 296.221 L1445.64 296.221 L1445.64 300.11 L1415.97 300.11 L1415.97 296.221 M1415.97 305.665 L1445.64 305.665 L1445.64 309.601 L1415.97 309.601 L1415.97 305.665 Z" fill="#000000" fill-rule="nonzero" fill-opacity="1" /><path clip-path="url(#clip790)" d="M1481.38 298.605 Q1478.23 298.605 1476.38 300.758 Q1474.55 302.911 1474.55 306.661 Q1474.55 310.388 1476.38 312.563 Q1478.23 314.716 1481.38 314.716 Q1484.53 314.716 1486.36 312.563 Q1488.21 310.388 1488.21 306.661 Q1488.21 302.911 1486.36 300.758 Q1484.53 298.605 1481.38 298.605 M1490.66 283.953 L1490.66 288.212 Q1488.9 287.378 1487.1 286.939 Q1485.32 286.499 1483.56 286.499 Q1478.93 286.499 1476.47 289.624 Q1474.04 292.749 1473.7 299.068 Q1475.06 297.054 1477.12 295.989 Q1479.18 294.902 1481.66 294.902 Q1486.87 294.902 1489.88 298.073 Q1492.91 301.221 1492.91 306.661 Q1492.91 311.985 1489.76 315.202 Q1486.61 318.42 1481.38 318.42 Q1475.39 318.42 1472.22 313.837 Q1469.04 309.23 1469.04 300.503 Q1469.04 292.309 1472.93 287.448 Q1476.82 282.564 1483.37 282.564 Q1485.13 282.564 1486.91 282.911 Q1488.72 283.258 1490.66 283.953 Z" fill="#000000" fill-rule="nonzero" fill-opacity="1" /><path clip-path="url(#clip790)" d="M1510.97 286.267 Q1507.35 286.267 1505.53 289.832 Q1503.72 293.374 1503.72 300.503 Q1503.72 307.61 1505.53 311.175 Q1507.35 314.716 1510.97 314.716 Q1514.6 314.716 1516.4 311.175 Q1518.23 307.61 1518.23 300.503 Q1518.23 293.374 1516.4 289.832 Q1514.6 286.267 1510.97 286.267 M1510.97 282.564 Q1516.78 282.564 1519.83 287.17 Q1522.91 291.753 1522.91 300.503 Q1522.91 309.23 1519.83 313.837 Q1516.78 318.42 1510.97 318.42 Q1505.15 318.42 1502.08 313.837 Q1499.02 309.23 1499.02 300.503 Q1499.02 291.753 1502.08 287.17 Q1505.15 282.564 1510.97 282.564 Z" fill="#000000" fill-rule="nonzero" fill-opacity="1" /></svg>
