<?xml version="1.0" encoding="utf-8"?>
<svg xmlns="http://www.w3.org/2000/svg" xmlns:xlink="http://www.w3.org/1999/xlink" width="600" height="400" viewBox="0 0 2400 1600">
<defs>
  <clipPath id="clip420">
    <rect x="0" y="0" width="2400" height="1600"/>
  </clipPath>
</defs>
<path clip-path="url(#clip420)" d="M0 1600 L2400 1600 L2400 8.88178e-14 L0 8.88178e-14  Z" fill="#ffffff" fill-rule="evenodd" fill-opacity="1"/>
<defs>
  <clipPath id="clip421">
    <rect x="480" y="0" width="1681" height="1600"/>
  </clipPath>
</defs>
<path clip-path="url(#clip420)" d="M279.704 1423.18 L2352.76 1423.18 L2352.76 47.2441 L279.704 47.2441  Z" fill="#ffffff" fill-rule="evenodd" fill-opacity="1"/>
<defs>
  <clipPath id="clip422">
    <rect x="279" y="47" width="2074" height="1377"/>
  </clipPath>
</defs>
<polyline clip-path="url(#clip422)" style="stroke:#000000; stroke-linecap:round; stroke-linejoin:round; stroke-width:2; stroke-opacity:0.1; fill:none" points="338.375,1423.18 338.375,47.2441 "/>
<polyline clip-path="url(#clip422)" style="stroke:#000000; stroke-linecap:round; stroke-linejoin:round; stroke-width:2; stroke-opacity:0.1; fill:none" points="571.198,1423.18 571.198,47.2441 "/>
<polyline clip-path="url(#clip422)" style="stroke:#000000; stroke-linecap:round; stroke-linejoin:round; stroke-width:2; stroke-opacity:0.1; fill:none" points="804.02,1423.18 804.02,47.2441 "/>
<polyline clip-path="url(#clip422)" style="stroke:#000000; stroke-linecap:round; stroke-linejoin:round; stroke-width:2; stroke-opacity:0.1; fill:none" points="1036.84,1423.18 1036.84,47.2441 "/>
<polyline clip-path="url(#clip422)" style="stroke:#000000; stroke-linecap:round; stroke-linejoin:round; stroke-width:2; stroke-opacity:0.1; fill:none" points="1269.67,1423.18 1269.67,47.2441 "/>
<polyline clip-path="url(#clip422)" style="stroke:#000000; stroke-linecap:round; stroke-linejoin:round; stroke-width:2; stroke-opacity:0.1; fill:none" points="1502.49,1423.18 1502.49,47.2441 "/>
<polyline clip-path="url(#clip422)" style="stroke:#000000; stroke-linecap:round; stroke-linejoin:round; stroke-width:2; stroke-opacity:0.1; fill:none" points="1735.31,1423.18 1735.31,47.2441 "/>
<polyline clip-path="url(#clip422)" style="stroke:#000000; stroke-linecap:round; stroke-linejoin:round; stroke-width:2; stroke-opacity:0.1; fill:none" points="1968.13,1423.18 1968.13,47.2441 "/>
<polyline clip-path="url(#clip422)" style="stroke:#000000; stroke-linecap:round; stroke-linejoin:round; stroke-width:2; stroke-opacity:0.1; fill:none" points="2200.96,1423.18 2200.96,47.2441 "/>
<polyline clip-path="url(#clip422)" style="stroke:#000000; stroke-linecap:round; stroke-linejoin:round; stroke-width:2; stroke-opacity:0.1; fill:none" points="2352.76,1284.56 279.704,1284.56 "/>
<polyline clip-path="url(#clip422)" style="stroke:#000000; stroke-linecap:round; stroke-linejoin:round; stroke-width:2; stroke-opacity:0.1; fill:none" points="2352.76,1074.87 279.704,1074.87 "/>
<polyline clip-path="url(#clip422)" style="stroke:#000000; stroke-linecap:round; stroke-linejoin:round; stroke-width:2; stroke-opacity:0.1; fill:none" points="2352.76,865.187 279.704,865.187 "/>
<polyline clip-path="url(#clip422)" style="stroke:#000000; stroke-linecap:round; stroke-linejoin:round; stroke-width:2; stroke-opacity:0.1; fill:none" points="2352.76,655.502 279.704,655.502 "/>
<polyline clip-path="url(#clip422)" style="stroke:#000000; stroke-linecap:round; stroke-linejoin:round; stroke-width:2; stroke-opacity:0.1; fill:none" points="2352.76,445.816 279.704,445.816 "/>
<polyline clip-path="url(#clip422)" style="stroke:#000000; stroke-linecap:round; stroke-linejoin:round; stroke-width:2; stroke-opacity:0.1; fill:none" points="2352.76,236.13 279.704,236.13 "/>
<polyline clip-path="url(#clip420)" style="stroke:#000000; stroke-linecap:round; stroke-linejoin:round; stroke-width:4; stroke-opacity:1; fill:none" points="2352.76,1423.18 279.704,1423.18 "/>
<polyline clip-path="url(#clip420)" style="stroke:#000000; stroke-linecap:round; stroke-linejoin:round; stroke-width:4; stroke-opacity:1; fill:none" points="338.375,1423.18 338.375,1404.28 "/>
<polyline clip-path="url(#clip420)" style="stroke:#000000; stroke-linecap:round; stroke-linejoin:round; stroke-width:4; stroke-opacity:1; fill:none" points="571.198,1423.18 571.198,1404.28 "/>
<polyline clip-path="url(#clip420)" style="stroke:#000000; stroke-linecap:round; stroke-linejoin:round; stroke-width:4; stroke-opacity:1; fill:none" points="804.02,1423.18 804.02,1404.28 "/>
<polyline clip-path="url(#clip420)" style="stroke:#000000; stroke-linecap:round; stroke-linejoin:round; stroke-width:4; stroke-opacity:1; fill:none" points="1036.84,1423.18 1036.84,1404.28 "/>
<polyline clip-path="url(#clip420)" style="stroke:#000000; stroke-linecap:round; stroke-linejoin:round; stroke-width:4; stroke-opacity:1; fill:none" points="1269.67,1423.18 1269.67,1404.28 "/>
<polyline clip-path="url(#clip420)" style="stroke:#000000; stroke-linecap:round; stroke-linejoin:round; stroke-width:4; stroke-opacity:1; fill:none" points="1502.49,1423.18 1502.49,1404.28 "/>
<polyline clip-path="url(#clip420)" style="stroke:#000000; stroke-linecap:round; stroke-linejoin:round; stroke-width:4; stroke-opacity:1; fill:none" points="1735.31,1423.18 1735.31,1404.28 "/>
<polyline clip-path="url(#clip420)" style="stroke:#000000; stroke-linecap:round; stroke-linejoin:round; stroke-width:4; stroke-opacity:1; fill:none" points="1968.13,1423.18 1968.13,1404.28 "/>
<polyline clip-path="url(#clip420)" style="stroke:#000000; stroke-linecap:round; stroke-linejoin:round; stroke-width:4; stroke-opacity:1; fill:none" points="2200.96,1423.18 2200.96,1404.28 "/>
<path clip-path="url(#clip420)" d="M313.503 1484.86 L313.503 1480.6 Q315.262 1481.44 317.067 1481.88 Q318.873 1482.32 320.609 1482.32 Q325.239 1482.32 327.669 1479.21 Q330.123 1476.09 330.47 1469.75 Q329.128 1471.74 327.067 1472.8 Q325.007 1473.87 322.507 1473.87 Q317.322 1473.87 314.29 1470.74 Q311.28 1467.59 311.28 1462.15 Q311.28 1456.83 314.429 1453.61 Q317.577 1450.39 322.808 1450.39 Q328.803 1450.39 331.952 1455 Q335.123 1459.58 335.123 1468.33 Q335.123 1476.51 331.234 1481.39 Q327.368 1486.25 320.817 1486.25 Q319.058 1486.25 317.253 1485.9 Q315.447 1485.56 313.503 1484.86 M322.808 1470.21 Q325.956 1470.21 327.785 1468.06 Q329.637 1465.9 329.637 1462.15 Q329.637 1458.43 327.785 1456.27 Q325.956 1454.1 322.808 1454.1 Q319.66 1454.1 317.808 1456.27 Q315.979 1458.43 315.979 1462.15 Q315.979 1465.9 317.808 1468.06 Q319.66 1470.21 322.808 1470.21 Z" fill="#000000" fill-rule="nonzero" fill-opacity="1" /><path clip-path="url(#clip420)" d="M353.526 1454.1 Q349.914 1454.1 348.086 1457.66 Q346.28 1461.2 346.28 1468.33 Q346.28 1475.44 348.086 1479.01 Q349.914 1482.55 353.526 1482.55 Q357.16 1482.55 358.965 1479.01 Q360.794 1475.44 360.794 1468.33 Q360.794 1461.2 358.965 1457.66 Q357.16 1454.1 353.526 1454.1 M353.526 1450.39 Q359.336 1450.39 362.391 1455 Q365.47 1459.58 365.47 1468.33 Q365.47 1477.06 362.391 1481.67 Q359.336 1486.25 353.526 1486.25 Q347.715 1486.25 344.637 1481.67 Q341.581 1477.06 341.581 1468.33 Q341.581 1459.58 344.637 1455 Q347.715 1450.39 353.526 1450.39 Z" fill="#000000" fill-rule="nonzero" fill-opacity="1" /><path clip-path="url(#clip420)" d="M556.071 1469.17 Q552.737 1469.17 550.816 1470.95 Q548.918 1472.73 548.918 1475.86 Q548.918 1478.98 550.816 1480.77 Q552.737 1482.55 556.071 1482.55 Q559.404 1482.55 561.325 1480.77 Q563.246 1478.96 563.246 1475.86 Q563.246 1472.73 561.325 1470.95 Q559.427 1469.17 556.071 1469.17 M551.395 1467.18 Q548.385 1466.44 546.696 1464.38 Q545.029 1462.32 545.029 1459.35 Q545.029 1455.21 547.969 1452.8 Q550.932 1450.39 556.071 1450.39 Q561.233 1450.39 564.172 1452.8 Q567.112 1455.21 567.112 1459.35 Q567.112 1462.32 565.422 1464.38 Q563.756 1466.44 560.77 1467.18 Q564.149 1467.96 566.024 1470.26 Q567.922 1472.55 567.922 1475.86 Q567.922 1480.88 564.844 1483.57 Q561.788 1486.25 556.071 1486.25 Q550.353 1486.25 547.274 1483.57 Q544.219 1480.88 544.219 1475.86 Q544.219 1472.55 546.117 1470.26 Q548.015 1467.96 551.395 1467.18 M549.682 1459.79 Q549.682 1462.48 551.348 1463.98 Q553.038 1465.49 556.071 1465.49 Q559.08 1465.49 560.77 1463.98 Q562.483 1462.48 562.483 1459.79 Q562.483 1457.11 560.77 1455.6 Q559.08 1454.1 556.071 1454.1 Q553.038 1454.1 551.348 1455.6 Q549.682 1457.11 549.682 1459.79 Z" fill="#000000" fill-rule="nonzero" fill-opacity="1" /><path clip-path="url(#clip420)" d="M586.232 1454.1 Q582.621 1454.1 580.793 1457.66 Q578.987 1461.2 578.987 1468.33 Q578.987 1475.44 580.793 1479.01 Q582.621 1482.55 586.232 1482.55 Q589.867 1482.55 591.672 1479.01 Q593.501 1475.44 593.501 1468.33 Q593.501 1461.2 591.672 1457.66 Q589.867 1454.1 586.232 1454.1 M586.232 1450.39 Q592.043 1450.39 595.098 1455 Q598.177 1459.58 598.177 1468.33 Q598.177 1477.06 595.098 1481.67 Q592.043 1486.25 586.232 1486.25 Q580.422 1486.25 577.344 1481.67 Q574.288 1477.06 574.288 1468.33 Q574.288 1459.58 577.344 1455 Q580.422 1450.39 586.232 1450.39 Z" fill="#000000" fill-rule="nonzero" fill-opacity="1" /><path clip-path="url(#clip420)" d="M777.377 1451.02 L799.599 1451.02 L799.599 1453.01 L787.053 1485.58 L782.169 1485.58 L793.974 1454.96 L777.377 1454.96 L777.377 1451.02 Z" fill="#000000" fill-rule="nonzero" fill-opacity="1" /><path clip-path="url(#clip420)" d="M818.719 1454.1 Q815.108 1454.1 813.28 1457.66 Q811.474 1461.2 811.474 1468.33 Q811.474 1475.44 813.28 1479.01 Q815.108 1482.55 818.719 1482.55 Q822.354 1482.55 824.159 1479.01 Q825.988 1475.44 825.988 1468.33 Q825.988 1461.2 824.159 1457.66 Q822.354 1454.1 818.719 1454.1 M818.719 1450.39 Q824.529 1450.39 827.585 1455 Q830.664 1459.58 830.664 1468.33 Q830.664 1477.06 827.585 1481.67 Q824.529 1486.25 818.719 1486.25 Q812.909 1486.25 809.83 1481.67 Q806.775 1477.06 806.775 1468.33 Q806.775 1459.58 809.83 1455 Q812.909 1450.39 818.719 1450.39 Z" fill="#000000" fill-rule="nonzero" fill-opacity="1" /><path clip-path="url(#clip420)" d="M1022.25 1466.44 Q1019.1 1466.44 1017.25 1468.59 Q1015.42 1470.74 1015.42 1474.49 Q1015.42 1478.22 1017.25 1480.39 Q1019.1 1482.55 1022.25 1482.55 Q1025.4 1482.55 1027.22 1480.39 Q1029.08 1478.22 1029.08 1474.49 Q1029.08 1470.74 1027.22 1468.59 Q1025.4 1466.44 1022.25 1466.44 M1031.53 1451.78 L1031.53 1456.04 Q1029.77 1455.21 1027.97 1454.77 Q1026.18 1454.33 1024.42 1454.33 Q1019.79 1454.33 1017.34 1457.45 Q1014.91 1460.58 1014.56 1466.9 Q1015.93 1464.89 1017.99 1463.82 Q1020.05 1462.73 1022.53 1462.73 Q1027.73 1462.73 1030.74 1465.9 Q1033.78 1469.05 1033.78 1474.49 Q1033.78 1479.82 1030.63 1483.03 Q1027.48 1486.25 1022.25 1486.25 Q1016.25 1486.25 1013.08 1481.67 Q1009.91 1477.06 1009.91 1468.33 Q1009.91 1460.14 1013.8 1455.28 Q1017.69 1450.39 1024.24 1450.39 Q1026 1450.39 1027.78 1450.74 Q1029.59 1451.09 1031.53 1451.78 Z" fill="#000000" fill-rule="nonzero" fill-opacity="1" /><path clip-path="url(#clip420)" d="M1051.83 1454.1 Q1048.22 1454.1 1046.39 1457.66 Q1044.59 1461.2 1044.59 1468.33 Q1044.59 1475.44 1046.39 1479.01 Q1048.22 1482.55 1051.83 1482.55 Q1055.47 1482.55 1057.27 1479.01 Q1059.1 1475.44 1059.1 1468.33 Q1059.1 1461.2 1057.27 1457.66 Q1055.47 1454.1 1051.83 1454.1 M1051.83 1450.39 Q1057.64 1450.39 1060.7 1455 Q1063.78 1459.58 1063.78 1468.33 Q1063.78 1477.06 1060.7 1481.67 Q1057.64 1486.25 1051.83 1486.25 Q1046.02 1486.25 1042.94 1481.67 Q1039.89 1477.06 1039.89 1468.33 Q1039.89 1459.58 1042.94 1455 Q1046.02 1450.39 1051.83 1450.39 Z" fill="#000000" fill-rule="nonzero" fill-opacity="1" /><path clip-path="url(#clip420)" d="M1244.36 1451.02 L1262.72 1451.02 L1262.72 1454.96 L1248.65 1454.96 L1248.65 1463.43 Q1249.67 1463.08 1250.68 1462.92 Q1251.7 1462.73 1252.72 1462.73 Q1258.51 1462.73 1261.89 1465.9 Q1265.27 1469.08 1265.27 1474.49 Q1265.27 1480.07 1261.8 1483.17 Q1258.32 1486.25 1252 1486.25 Q1249.83 1486.25 1247.56 1485.88 Q1245.31 1485.51 1242.91 1484.77 L1242.91 1480.07 Q1244.99 1481.2 1247.21 1481.76 Q1249.43 1482.32 1251.91 1482.32 Q1255.92 1482.32 1258.25 1480.21 Q1260.59 1478.1 1260.59 1474.49 Q1260.59 1470.88 1258.25 1468.77 Q1255.92 1466.67 1251.91 1466.67 Q1250.04 1466.67 1248.16 1467.08 Q1246.31 1467.5 1244.36 1468.38 L1244.36 1451.02 Z" fill="#000000" fill-rule="nonzero" fill-opacity="1" /><path clip-path="url(#clip420)" d="M1284.48 1454.1 Q1280.87 1454.1 1279.04 1457.66 Q1277.23 1461.2 1277.23 1468.33 Q1277.23 1475.44 1279.04 1479.01 Q1280.87 1482.55 1284.48 1482.55 Q1288.11 1482.55 1289.92 1479.01 Q1291.75 1475.44 1291.75 1468.33 Q1291.75 1461.2 1289.92 1457.66 Q1288.11 1454.1 1284.48 1454.1 M1284.48 1450.39 Q1290.29 1450.39 1293.35 1455 Q1296.42 1459.58 1296.42 1468.33 Q1296.42 1477.06 1293.35 1481.67 Q1290.29 1486.25 1284.48 1486.25 Q1278.67 1486.25 1275.59 1481.67 Q1272.54 1477.06 1272.54 1468.33 Q1272.54 1459.58 1275.59 1455 Q1278.67 1450.39 1284.48 1450.39 Z" fill="#000000" fill-rule="nonzero" fill-opacity="1" /><path clip-path="url(#clip420)" d="M1490.66 1455.09 L1478.85 1473.54 L1490.66 1473.54 L1490.66 1455.09 M1489.43 1451.02 L1495.31 1451.02 L1495.31 1473.54 L1500.24 1473.54 L1500.24 1477.43 L1495.31 1477.43 L1495.31 1485.58 L1490.66 1485.58 L1490.66 1477.43 L1475.06 1477.43 L1475.06 1472.92 L1489.43 1451.02 Z" fill="#000000" fill-rule="nonzero" fill-opacity="1" /><path clip-path="url(#clip420)" d="M1517.97 1454.1 Q1514.36 1454.1 1512.53 1457.66 Q1510.73 1461.2 1510.73 1468.33 Q1510.73 1475.44 1512.53 1479.01 Q1514.36 1482.55 1517.97 1482.55 Q1521.61 1482.55 1523.41 1479.01 Q1525.24 1475.44 1525.24 1468.33 Q1525.24 1461.2 1523.41 1457.66 Q1521.61 1454.1 1517.97 1454.1 M1517.97 1450.39 Q1523.78 1450.39 1526.84 1455 Q1529.92 1459.58 1529.92 1468.33 Q1529.92 1477.06 1526.84 1481.67 Q1523.78 1486.25 1517.97 1486.25 Q1512.16 1486.25 1509.09 1481.67 Q1506.03 1477.06 1506.03 1468.33 Q1506.03 1459.58 1509.09 1455 Q1512.16 1450.39 1517.97 1450.39 Z" fill="#000000" fill-rule="nonzero" fill-opacity="1" /><path clip-path="url(#clip420)" d="M1724.15 1466.95 Q1727.51 1467.66 1729.38 1469.93 Q1731.28 1472.2 1731.28 1475.53 Q1731.28 1480.65 1727.76 1483.45 Q1724.25 1486.25 1717.76 1486.25 Q1715.59 1486.25 1713.27 1485.81 Q1710.98 1485.39 1708.53 1484.54 L1708.53 1480.02 Q1710.47 1481.16 1712.79 1481.74 Q1715.1 1482.32 1717.63 1482.32 Q1722.02 1482.32 1724.32 1480.58 Q1726.63 1478.84 1726.63 1475.53 Q1726.63 1472.48 1724.48 1470.77 Q1722.35 1469.03 1718.53 1469.03 L1714.5 1469.03 L1714.5 1465.19 L1718.71 1465.19 Q1722.16 1465.19 1723.99 1463.82 Q1725.82 1462.43 1725.82 1459.84 Q1725.82 1457.18 1723.92 1455.77 Q1722.05 1454.33 1718.53 1454.33 Q1716.61 1454.33 1714.41 1454.75 Q1712.21 1455.16 1709.57 1456.04 L1709.57 1451.88 Q1712.23 1451.14 1714.55 1450.77 Q1716.88 1450.39 1718.94 1450.39 Q1724.27 1450.39 1727.37 1452.83 Q1730.47 1455.23 1730.47 1459.35 Q1730.47 1462.22 1728.83 1464.21 Q1727.19 1466.18 1724.15 1466.95 Z" fill="#000000" fill-rule="nonzero" fill-opacity="1" /><path clip-path="url(#clip420)" d="M1750.15 1454.1 Q1746.54 1454.1 1744.71 1457.66 Q1742.9 1461.2 1742.9 1468.33 Q1742.9 1475.44 1744.71 1479.01 Q1746.54 1482.55 1750.15 1482.55 Q1753.78 1482.55 1755.59 1479.01 Q1757.42 1475.44 1757.42 1468.33 Q1757.42 1461.2 1755.59 1457.66 Q1753.78 1454.1 1750.15 1454.1 M1750.15 1450.39 Q1755.96 1450.39 1759.01 1455 Q1762.09 1459.58 1762.09 1468.33 Q1762.09 1477.06 1759.01 1481.67 Q1755.96 1486.25 1750.15 1486.25 Q1744.34 1486.25 1741.26 1481.67 Q1738.2 1477.06 1738.2 1468.33 Q1738.2 1459.58 1741.26 1455 Q1744.34 1450.39 1750.15 1450.39 Z" fill="#000000" fill-rule="nonzero" fill-opacity="1" /><path clip-path="url(#clip420)" d="M1946.91 1481.64 L1963.23 1481.64 L1963.23 1485.58 L1941.28 1485.58 L1941.28 1481.64 Q1943.94 1478.89 1948.53 1474.26 Q1953.13 1469.61 1954.31 1468.27 Q1956.56 1465.74 1957.44 1464.01 Q1958.34 1462.25 1958.34 1460.56 Q1958.34 1457.8 1956.4 1456.07 Q1954.48 1454.33 1951.37 1454.33 Q1949.17 1454.33 1946.72 1455.09 Q1944.29 1455.86 1941.51 1457.41 L1941.51 1452.69 Q1944.34 1451.55 1946.79 1450.97 Q1949.24 1450.39 1951.28 1450.39 Q1956.65 1450.39 1959.85 1453.08 Q1963.04 1455.77 1963.04 1460.26 Q1963.04 1462.39 1962.23 1464.31 Q1961.44 1466.2 1959.34 1468.8 Q1958.76 1469.47 1955.66 1472.69 Q1952.55 1475.88 1946.91 1481.64 Z" fill="#000000" fill-rule="nonzero" fill-opacity="1" /><path clip-path="url(#clip420)" d="M1983.04 1454.1 Q1979.43 1454.1 1977.6 1457.66 Q1975.8 1461.2 1975.8 1468.33 Q1975.8 1475.44 1977.6 1479.01 Q1979.43 1482.55 1983.04 1482.55 Q1986.67 1482.55 1988.48 1479.01 Q1990.31 1475.44 1990.31 1468.33 Q1990.31 1461.2 1988.48 1457.66 Q1986.67 1454.1 1983.04 1454.1 M1983.04 1450.39 Q1988.85 1450.39 1991.91 1455 Q1994.98 1459.58 1994.98 1468.33 Q1994.98 1477.06 1991.91 1481.67 Q1988.85 1486.25 1983.04 1486.25 Q1977.23 1486.25 1974.15 1481.67 Q1971.1 1477.06 1971.1 1468.33 Q1971.1 1459.58 1974.15 1455 Q1977.23 1450.39 1983.04 1450.39 Z" fill="#000000" fill-rule="nonzero" fill-opacity="1" /><path clip-path="url(#clip420)" d="M2175.64 1481.64 L2183.28 1481.64 L2183.28 1455.28 L2174.97 1456.95 L2174.97 1452.69 L2183.24 1451.02 L2187.91 1451.02 L2187.91 1481.64 L2195.55 1481.64 L2195.55 1485.58 L2175.64 1485.58 L2175.64 1481.64 Z" fill="#000000" fill-rule="nonzero" fill-opacity="1" /><path clip-path="url(#clip420)" d="M2214.99 1454.1 Q2211.38 1454.1 2209.56 1457.66 Q2207.75 1461.2 2207.75 1468.33 Q2207.75 1475.44 2209.56 1479.01 Q2211.38 1482.55 2214.99 1482.55 Q2218.63 1482.55 2220.43 1479.01 Q2222.26 1475.44 2222.26 1468.33 Q2222.26 1461.2 2220.43 1457.66 Q2218.63 1454.1 2214.99 1454.1 M2214.99 1450.39 Q2220.81 1450.39 2223.86 1455 Q2226.94 1459.58 2226.94 1468.33 Q2226.94 1477.06 2223.86 1481.67 Q2220.81 1486.25 2214.99 1486.25 Q2209.18 1486.25 2206.11 1481.67 Q2203.05 1477.06 2203.05 1468.33 Q2203.05 1459.58 2206.11 1455 Q2209.18 1450.39 2214.99 1450.39 Z" fill="#000000" fill-rule="nonzero" fill-opacity="1" /><path clip-path="url(#clip420)" d="M1114.52 1547.13 Q1111.75 1547.13 1110.16 1549.49 Q1108.6 1551.84 1108.6 1556.04 Q1108.6 1560.18 1110.16 1562.57 Q1111.75 1564.92 1114.52 1564.92 Q1117.22 1564.92 1118.78 1562.57 Q1120.37 1560.18 1120.37 1556.04 Q1120.37 1551.87 1118.78 1549.52 Q1117.22 1547.13 1114.52 1547.13 M1114.52 1543.09 Q1119.55 1543.09 1122.51 1546.59 Q1125.47 1550.09 1125.47 1556.04 Q1125.47 1562 1122.47 1565.5 Q1119.51 1568.97 1114.52 1568.97 Q1109.42 1568.97 1106.46 1565.5 Q1103.5 1562 1103.5 1556.04 Q1103.5 1550.06 1106.46 1546.59 Q1109.46 1543.09 1114.52 1543.09 M1081.67 1523.71 Q1078.93 1523.71 1077.34 1526.09 Q1075.78 1528.45 1075.78 1532.59 Q1075.78 1536.79 1077.34 1539.14 Q1078.9 1541.5 1081.67 1541.5 Q1084.44 1541.5 1086 1539.14 Q1087.59 1536.79 1087.59 1532.59 Q1087.59 1528.48 1086 1526.09 Q1084.41 1523.71 1081.67 1523.71 M1110.41 1519.66 L1115.5 1519.66 L1085.78 1568.97 L1080.68 1568.97 L1110.41 1519.66 M1081.67 1519.66 Q1086.7 1519.66 1089.69 1523.17 Q1092.68 1526.63 1092.68 1532.59 Q1092.68 1538.6 1089.69 1542.07 Q1086.73 1545.54 1081.67 1545.54 Q1076.61 1545.54 1073.65 1542.07 Q1070.72 1538.57 1070.72 1532.59 Q1070.72 1526.67 1073.68 1523.17 Q1076.64 1519.66 1081.67 1519.66 Z" fill="#000000" fill-rule="nonzero" fill-opacity="1" /><path clip-path="url(#clip420)" d="M1183.68 1539.24 Q1185.88 1535.29 1188.93 1533.41 Q1191.99 1531.54 1196.12 1531.54 Q1201.69 1531.54 1204.72 1535.45 Q1207.74 1539.33 1207.74 1546.53 L1207.74 1568.04 L1201.85 1568.04 L1201.85 1546.72 Q1201.85 1541.59 1200.04 1539.11 Q1198.23 1536.63 1194.5 1536.63 Q1189.95 1536.63 1187.31 1539.65 Q1184.67 1542.68 1184.67 1547.9 L1184.67 1568.04 L1178.78 1568.04 L1178.78 1546.72 Q1178.78 1541.56 1176.96 1539.11 Q1175.15 1536.63 1171.36 1536.63 Q1166.87 1536.63 1164.23 1539.68 Q1161.59 1542.71 1161.59 1547.9 L1161.59 1568.04 L1155.7 1568.04 L1155.7 1532.4 L1161.59 1532.4 L1161.59 1537.93 Q1163.6 1534.66 1166.4 1533.1 Q1169.2 1531.54 1173.05 1531.54 Q1176.93 1531.54 1179.64 1533.51 Q1182.38 1535.48 1183.68 1539.24 Z" fill="#000000" fill-rule="nonzero" fill-opacity="1" /><path clip-path="url(#clip420)" d="M1219.42 1532.4 L1225.28 1532.4 L1225.28 1568.04 L1219.42 1568.04 L1219.42 1532.4 M1219.42 1518.52 L1225.28 1518.52 L1225.28 1525.93 L1219.42 1525.93 L1219.42 1518.52 Z" fill="#000000" fill-rule="nonzero" fill-opacity="1" /><path clip-path="url(#clip420)" d="M1260.26 1533.45 L1260.26 1538.98 Q1257.78 1537.71 1255.1 1537.07 Q1252.43 1536.44 1249.57 1536.44 Q1245.2 1536.44 1243.01 1537.77 Q1240.84 1539.11 1240.84 1541.79 Q1240.84 1543.82 1242.4 1545 Q1243.96 1546.15 1248.67 1547.2 L1250.68 1547.64 Q1256.92 1548.98 1259.53 1551.43 Q1262.17 1553.85 1262.17 1558.21 Q1262.17 1563.17 1258.22 1566.07 Q1254.31 1568.97 1247.43 1568.97 Q1244.57 1568.97 1241.45 1568.39 Q1238.36 1567.85 1234.92 1566.74 L1234.92 1560.69 Q1238.17 1562.38 1241.32 1563.24 Q1244.47 1564.07 1247.56 1564.07 Q1251.7 1564.07 1253.93 1562.66 Q1256.15 1561.23 1256.15 1558.65 Q1256.15 1556.27 1254.53 1554.99 Q1252.94 1553.72 1247.5 1552.54 L1245.46 1552.07 Q1240.02 1550.92 1237.6 1548.56 Q1235.18 1546.18 1235.18 1542.04 Q1235.18 1537.01 1238.74 1534.27 Q1242.31 1531.54 1248.86 1531.54 Q1252.11 1531.54 1254.98 1532.01 Q1257.84 1532.49 1260.26 1533.45 Z" fill="#000000" fill-rule="nonzero" fill-opacity="1" /><path clip-path="url(#clip420)" d="M1294.22 1533.45 L1294.22 1538.98 Q1291.74 1537.71 1289.06 1537.07 Q1286.39 1536.44 1283.53 1536.44 Q1279.17 1536.44 1276.97 1537.77 Q1274.81 1539.11 1274.81 1541.79 Q1274.81 1543.82 1276.36 1545 Q1277.92 1546.15 1282.63 1547.2 L1284.64 1547.64 Q1290.88 1548.98 1293.49 1551.43 Q1296.13 1553.85 1296.13 1558.21 Q1296.13 1563.17 1292.18 1566.07 Q1288.27 1568.97 1281.39 1568.97 Q1278.53 1568.97 1275.41 1568.39 Q1272.32 1567.85 1268.88 1566.74 L1268.88 1560.69 Q1272.13 1562.38 1275.28 1563.24 Q1278.43 1564.07 1281.52 1564.07 Q1285.66 1564.07 1287.89 1562.66 Q1290.11 1561.23 1290.11 1558.65 Q1290.11 1556.27 1288.49 1554.99 Q1286.9 1553.72 1281.46 1552.54 L1279.42 1552.07 Q1273.98 1550.92 1271.56 1548.56 Q1269.14 1546.18 1269.14 1542.04 Q1269.14 1537.01 1272.7 1534.27 Q1276.27 1531.54 1282.83 1531.54 Q1286.07 1531.54 1288.94 1532.01 Q1291.8 1532.49 1294.22 1533.45 Z" fill="#000000" fill-rule="nonzero" fill-opacity="1" /><path clip-path="url(#clip420)" d="M1305.46 1532.4 L1311.31 1532.4 L1311.31 1568.04 L1305.46 1568.04 L1305.46 1532.4 M1305.46 1518.52 L1311.31 1518.52 L1311.31 1525.93 L1305.46 1525.93 L1305.46 1518.52 Z" fill="#000000" fill-rule="nonzero" fill-opacity="1" /><path clip-path="url(#clip420)" d="M1353.2 1546.53 L1353.2 1568.04 L1347.34 1568.04 L1347.34 1546.72 Q1347.34 1541.66 1345.37 1539.14 Q1343.4 1536.63 1339.45 1536.63 Q1334.71 1536.63 1331.97 1539.65 Q1329.23 1542.68 1329.23 1547.9 L1329.23 1568.04 L1323.34 1568.04 L1323.34 1532.4 L1329.23 1532.4 L1329.23 1537.93 Q1331.33 1534.72 1334.17 1533.13 Q1337.03 1531.54 1340.75 1531.54 Q1346.9 1531.54 1350.05 1535.36 Q1353.2 1539.14 1353.2 1546.53 Z" fill="#000000" fill-rule="nonzero" fill-opacity="1" /><path clip-path="url(#clip420)" d="M1388.34 1549.81 Q1388.34 1543.44 1385.7 1539.94 Q1383.09 1536.44 1378.34 1536.44 Q1373.63 1536.44 1370.99 1539.94 Q1368.38 1543.44 1368.38 1549.81 Q1368.38 1556.14 1370.99 1559.64 Q1373.63 1563.14 1378.34 1563.14 Q1383.09 1563.14 1385.7 1559.64 Q1388.34 1556.14 1388.34 1549.81 M1394.19 1563.62 Q1394.19 1572.72 1390.15 1577.15 Q1386.11 1581.6 1377.77 1581.6 Q1374.68 1581.6 1371.95 1581.13 Q1369.21 1580.68 1366.63 1579.72 L1366.63 1574.03 Q1369.21 1575.43 1371.72 1576.1 Q1374.24 1576.76 1376.85 1576.76 Q1382.61 1576.76 1385.47 1573.74 Q1388.34 1570.75 1388.34 1564.67 L1388.34 1561.77 Q1386.52 1564.92 1383.69 1566.48 Q1380.86 1568.04 1376.91 1568.04 Q1370.35 1568.04 1366.34 1563.05 Q1362.33 1558.05 1362.33 1549.81 Q1362.33 1541.53 1366.34 1536.53 Q1370.35 1531.54 1376.91 1531.54 Q1380.86 1531.54 1383.69 1533.1 Q1386.52 1534.66 1388.34 1537.81 L1388.34 1532.4 L1394.19 1532.4 L1394.19 1563.62 Z" fill="#000000" fill-rule="nonzero" fill-opacity="1" /><path clip-path="url(#clip420)" d="M1450.43 1537.81 L1450.43 1518.52 L1456.29 1518.52 L1456.29 1568.04 L1450.43 1568.04 L1450.43 1562.7 Q1448.59 1565.88 1445.76 1567.44 Q1442.96 1568.97 1439.01 1568.97 Q1432.55 1568.97 1428.47 1563.81 Q1424.43 1558.65 1424.43 1550.25 Q1424.43 1541.85 1428.47 1536.69 Q1432.55 1531.54 1439.01 1531.54 Q1442.96 1531.54 1445.76 1533.1 Q1448.59 1534.62 1450.43 1537.81 M1430.48 1550.25 Q1430.48 1556.71 1433.12 1560.4 Q1435.79 1564.07 1440.44 1564.07 Q1445.09 1564.07 1447.76 1560.4 Q1450.43 1556.71 1450.43 1550.25 Q1450.43 1543.79 1447.76 1540.13 Q1445.09 1536.44 1440.44 1536.44 Q1435.79 1536.44 1433.12 1540.13 Q1430.48 1543.79 1430.48 1550.25 Z" fill="#000000" fill-rule="nonzero" fill-opacity="1" /><path clip-path="url(#clip420)" d="M1484.56 1550.12 Q1477.46 1550.12 1474.72 1551.75 Q1471.98 1553.37 1471.98 1557.29 Q1471.98 1560.4 1474.02 1562.25 Q1476.09 1564.07 1479.62 1564.07 Q1484.49 1564.07 1487.42 1560.63 Q1490.38 1557.16 1490.38 1551.43 L1490.38 1550.12 L1484.56 1550.12 M1496.24 1547.71 L1496.24 1568.04 L1490.38 1568.04 L1490.38 1562.63 Q1488.37 1565.88 1485.38 1567.44 Q1482.39 1568.97 1478.06 1568.97 Q1472.59 1568.97 1469.34 1565.91 Q1466.13 1562.82 1466.13 1557.67 Q1466.13 1551.65 1470.14 1548.6 Q1474.18 1545.54 1482.17 1545.54 L1490.38 1545.54 L1490.38 1544.97 Q1490.38 1540.93 1487.71 1538.73 Q1485.06 1536.5 1480.26 1536.5 Q1477.2 1536.5 1474.31 1537.23 Q1471.41 1537.97 1468.74 1539.43 L1468.74 1534.02 Q1471.95 1532.78 1474.97 1532.17 Q1478 1531.54 1480.86 1531.54 Q1488.6 1531.54 1492.42 1535.55 Q1496.24 1539.56 1496.24 1547.71 Z" fill="#000000" fill-rule="nonzero" fill-opacity="1" /><path clip-path="url(#clip420)" d="M1514.09 1522.27 L1514.09 1532.4 L1526.15 1532.4 L1526.15 1536.95 L1514.09 1536.95 L1514.09 1556.3 Q1514.09 1560.66 1515.27 1561.9 Q1516.48 1563.14 1520.14 1563.14 L1526.15 1563.14 L1526.15 1568.04 L1520.14 1568.04 Q1513.36 1568.04 1510.78 1565.53 Q1508.2 1562.98 1508.2 1556.3 L1508.2 1536.95 L1503.91 1536.95 L1503.91 1532.4 L1508.2 1532.4 L1508.2 1522.27 L1514.09 1522.27 Z" fill="#000000" fill-rule="nonzero" fill-opacity="1" /><path clip-path="url(#clip420)" d="M1550.06 1550.12 Q1542.96 1550.12 1540.22 1551.75 Q1537.49 1553.37 1537.49 1557.29 Q1537.49 1560.4 1539.52 1562.25 Q1541.59 1564.07 1545.12 1564.07 Q1549.99 1564.07 1552.92 1560.63 Q1555.88 1557.16 1555.88 1551.43 L1555.88 1550.12 L1550.06 1550.12 M1561.74 1547.71 L1561.74 1568.04 L1555.88 1568.04 L1555.88 1562.63 Q1553.88 1565.88 1550.89 1567.44 Q1547.89 1568.97 1543.57 1568.97 Q1538.09 1568.97 1534.84 1565.91 Q1531.63 1562.82 1531.63 1557.67 Q1531.63 1551.65 1535.64 1548.6 Q1539.68 1545.54 1547.67 1545.54 L1555.88 1545.54 L1555.88 1544.97 Q1555.88 1540.93 1553.21 1538.73 Q1550.57 1536.5 1545.76 1536.5 Q1542.71 1536.5 1539.81 1537.23 Q1536.91 1537.97 1534.24 1539.43 L1534.24 1534.02 Q1537.45 1532.78 1540.48 1532.17 Q1543.5 1531.54 1546.37 1531.54 Q1554.1 1531.54 1557.92 1535.55 Q1561.74 1539.56 1561.74 1547.71 Z" fill="#000000" fill-rule="nonzero" fill-opacity="1" /><polyline clip-path="url(#clip420)" style="stroke:#000000; stroke-linecap:round; stroke-linejoin:round; stroke-width:4; stroke-opacity:1; fill:none" points="279.704,1423.18 279.704,47.2441 "/>
<polyline clip-path="url(#clip420)" style="stroke:#000000; stroke-linecap:round; stroke-linejoin:round; stroke-width:4; stroke-opacity:1; fill:none" points="279.704,1284.56 298.602,1284.56 "/>
<polyline clip-path="url(#clip420)" style="stroke:#000000; stroke-linecap:round; stroke-linejoin:round; stroke-width:4; stroke-opacity:1; fill:none" points="279.704,1074.87 298.602,1074.87 "/>
<polyline clip-path="url(#clip420)" style="stroke:#000000; stroke-linecap:round; stroke-linejoin:round; stroke-width:4; stroke-opacity:1; fill:none" points="279.704,865.187 298.602,865.187 "/>
<polyline clip-path="url(#clip420)" style="stroke:#000000; stroke-linecap:round; stroke-linejoin:round; stroke-width:4; stroke-opacity:1; fill:none" points="279.704,655.502 298.602,655.502 "/>
<polyline clip-path="url(#clip420)" style="stroke:#000000; stroke-linecap:round; stroke-linejoin:round; stroke-width:4; stroke-opacity:1; fill:none" points="279.704,445.816 298.602,445.816 "/>
<polyline clip-path="url(#clip420)" style="stroke:#000000; stroke-linecap:round; stroke-linejoin:round; stroke-width:4; stroke-opacity:1; fill:none" points="279.704,236.13 298.602,236.13 "/>
<path clip-path="url(#clip420)" d="M126.205 1270.36 Q122.593 1270.36 120.765 1273.92 Q118.959 1277.46 118.959 1284.59 Q118.959 1291.7 120.765 1295.26 Q122.593 1298.81 126.205 1298.81 Q129.839 1298.81 131.644 1295.26 Q133.473 1291.7 133.473 1284.59 Q133.473 1277.46 131.644 1273.92 Q129.839 1270.36 126.205 1270.36 M126.205 1266.65 Q132.015 1266.65 135.07 1271.26 Q138.149 1275.84 138.149 1284.59 Q138.149 1293.32 135.07 1297.93 Q132.015 1302.51 126.205 1302.51 Q120.394 1302.51 117.316 1297.93 Q114.26 1293.32 114.26 1284.59 Q114.26 1275.84 117.316 1271.26 Q120.394 1266.65 126.205 1266.65 Z" fill="#000000" fill-rule="nonzero" fill-opacity="1" /><path clip-path="url(#clip420)" d="M146.366 1295.96 L151.251 1295.96 L151.251 1301.84 L146.366 1301.84 L146.366 1295.96 Z" fill="#000000" fill-rule="nonzero" fill-opacity="1" /><path clip-path="url(#clip420)" d="M162.246 1297.9 L169.885 1297.9 L169.885 1271.54 L161.575 1273.2 L161.575 1268.95 L169.839 1267.28 L174.514 1267.28 L174.514 1297.9 L182.153 1297.9 L182.153 1301.84 L162.246 1301.84 L162.246 1297.9 Z" fill="#000000" fill-rule="nonzero" fill-opacity="1" /><path clip-path="url(#clip420)" d="M201.598 1270.36 Q197.987 1270.36 196.158 1273.92 Q194.352 1277.46 194.352 1284.59 Q194.352 1291.7 196.158 1295.26 Q197.987 1298.81 201.598 1298.81 Q205.232 1298.81 207.037 1295.26 Q208.866 1291.7 208.866 1284.59 Q208.866 1277.46 207.037 1273.92 Q205.232 1270.36 201.598 1270.36 M201.598 1266.65 Q207.408 1266.65 210.463 1271.26 Q213.542 1275.84 213.542 1284.59 Q213.542 1293.32 210.463 1297.93 Q207.408 1302.51 201.598 1302.51 Q195.787 1302.51 192.709 1297.93 Q189.653 1293.32 189.653 1284.59 Q189.653 1275.84 192.709 1271.26 Q195.787 1266.65 201.598 1266.65 Z" fill="#000000" fill-rule="nonzero" fill-opacity="1" /><path clip-path="url(#clip420)" d="M231.76 1270.36 Q228.148 1270.36 226.32 1273.92 Q224.514 1277.46 224.514 1284.59 Q224.514 1291.7 226.32 1295.26 Q228.148 1298.81 231.76 1298.81 Q235.394 1298.81 237.199 1295.26 Q239.028 1291.7 239.028 1284.59 Q239.028 1277.46 237.199 1273.92 Q235.394 1270.36 231.76 1270.36 M231.76 1266.65 Q237.57 1266.65 240.625 1271.26 Q243.704 1275.84 243.704 1284.59 Q243.704 1293.32 240.625 1297.93 Q237.57 1302.51 231.76 1302.51 Q225.949 1302.51 222.871 1297.93 Q219.815 1293.32 219.815 1284.59 Q219.815 1275.84 222.871 1271.26 Q225.949 1266.65 231.76 1266.65 Z" fill="#000000" fill-rule="nonzero" fill-opacity="1" /><path clip-path="url(#clip420)" d="M127.2 1060.67 Q123.589 1060.67 121.76 1064.24 Q119.955 1067.78 119.955 1074.91 Q119.955 1082.01 121.76 1085.58 Q123.589 1089.12 127.2 1089.12 Q130.834 1089.12 132.64 1085.58 Q134.468 1082.01 134.468 1074.91 Q134.468 1067.78 132.64 1064.24 Q130.834 1060.67 127.2 1060.67 M127.2 1056.97 Q133.01 1056.97 136.066 1061.57 Q139.144 1066.16 139.144 1074.91 Q139.144 1083.63 136.066 1088.24 Q133.01 1092.82 127.2 1092.82 Q121.39 1092.82 118.311 1088.24 Q115.256 1083.63 115.256 1074.91 Q115.256 1066.16 118.311 1061.57 Q121.39 1056.97 127.2 1056.97 Z" fill="#000000" fill-rule="nonzero" fill-opacity="1" /><path clip-path="url(#clip420)" d="M147.362 1086.27 L152.246 1086.27 L152.246 1092.15 L147.362 1092.15 L147.362 1086.27 Z" fill="#000000" fill-rule="nonzero" fill-opacity="1" /><path clip-path="url(#clip420)" d="M163.241 1088.22 L170.88 1088.22 L170.88 1061.85 L162.57 1063.52 L162.57 1059.26 L170.834 1057.59 L175.51 1057.59 L175.51 1088.22 L183.149 1088.22 L183.149 1092.15 L163.241 1092.15 L163.241 1088.22 Z" fill="#000000" fill-rule="nonzero" fill-opacity="1" /><path clip-path="url(#clip420)" d="M196.621 1088.22 L212.94 1088.22 L212.94 1092.15 L190.996 1092.15 L190.996 1088.22 Q193.658 1085.46 198.241 1080.83 Q202.848 1076.18 204.028 1074.84 Q206.274 1072.32 207.153 1070.58 Q208.056 1068.82 208.056 1067.13 Q208.056 1064.38 206.112 1062.64 Q204.19 1060.9 201.088 1060.9 Q198.889 1060.9 196.436 1061.67 Q194.005 1062.43 191.227 1063.98 L191.227 1059.26 Q194.051 1058.13 196.505 1057.55 Q198.959 1056.97 200.996 1056.97 Q206.366 1056.97 209.561 1059.65 Q212.755 1062.34 212.755 1066.83 Q212.755 1068.96 211.945 1070.88 Q211.158 1072.78 209.051 1075.37 Q208.473 1076.04 205.371 1079.26 Q202.269 1082.45 196.621 1088.22 Z" fill="#000000" fill-rule="nonzero" fill-opacity="1" /><path clip-path="url(#clip420)" d="M222.801 1057.59 L241.158 1057.59 L241.158 1061.53 L227.084 1061.53 L227.084 1070 Q228.102 1069.65 229.121 1069.49 Q230.139 1069.31 231.158 1069.31 Q236.945 1069.31 240.324 1072.48 Q243.704 1075.65 243.704 1081.07 Q243.704 1086.64 240.232 1089.75 Q236.76 1092.82 230.44 1092.82 Q228.264 1092.82 225.996 1092.45 Q223.75 1092.08 221.343 1091.34 L221.343 1086.64 Q223.426 1087.78 225.648 1088.33 Q227.871 1088.89 230.347 1088.89 Q234.352 1088.89 236.69 1086.78 Q239.028 1084.68 239.028 1081.07 Q239.028 1077.45 236.69 1075.35 Q234.352 1073.24 230.347 1073.24 Q228.473 1073.24 226.598 1073.66 Q224.746 1074.07 222.801 1074.95 L222.801 1057.59 Z" fill="#000000" fill-rule="nonzero" fill-opacity="1" /><path clip-path="url(#clip420)" d="M126.205 850.986 Q122.593 850.986 120.765 854.551 Q118.959 858.092 118.959 865.222 Q118.959 872.328 120.765 875.893 Q122.593 879.435 126.205 879.435 Q129.839 879.435 131.644 875.893 Q133.473 872.328 133.473 865.222 Q133.473 858.092 131.644 854.551 Q129.839 850.986 126.205 850.986 M126.205 847.282 Q132.015 847.282 135.07 851.889 Q138.149 856.472 138.149 865.222 Q138.149 873.949 135.07 878.555 Q132.015 883.139 126.205 883.139 Q120.394 883.139 117.316 878.555 Q114.26 873.949 114.26 865.222 Q114.26 856.472 117.316 851.889 Q120.394 847.282 126.205 847.282 Z" fill="#000000" fill-rule="nonzero" fill-opacity="1" /><path clip-path="url(#clip420)" d="M146.366 876.588 L151.251 876.588 L151.251 882.467 L146.366 882.467 L146.366 876.588 Z" fill="#000000" fill-rule="nonzero" fill-opacity="1" /><path clip-path="url(#clip420)" d="M162.246 878.532 L169.885 878.532 L169.885 852.166 L161.575 853.833 L161.575 849.574 L169.839 847.907 L174.514 847.907 L174.514 878.532 L182.153 878.532 L182.153 882.467 L162.246 882.467 L162.246 878.532 Z" fill="#000000" fill-rule="nonzero" fill-opacity="1" /><path clip-path="url(#clip420)" d="M191.644 847.907 L210 847.907 L210 851.842 L195.926 851.842 L195.926 860.315 Q196.945 859.967 197.963 859.805 Q198.982 859.62 200 859.62 Q205.787 859.62 209.167 862.791 Q212.547 865.963 212.547 871.379 Q212.547 876.958 209.074 880.06 Q205.602 883.139 199.283 883.139 Q197.107 883.139 194.838 882.768 Q192.593 882.398 190.186 881.657 L190.186 876.958 Q192.269 878.092 194.491 878.648 Q196.713 879.203 199.19 879.203 Q203.195 879.203 205.533 877.097 Q207.871 874.99 207.871 871.379 Q207.871 867.768 205.533 865.662 Q203.195 863.555 199.19 863.555 Q197.315 863.555 195.44 863.972 Q193.588 864.389 191.644 865.268 L191.644 847.907 Z" fill="#000000" fill-rule="nonzero" fill-opacity="1" /><path clip-path="url(#clip420)" d="M231.76 850.986 Q228.148 850.986 226.32 854.551 Q224.514 858.092 224.514 865.222 Q224.514 872.328 226.32 875.893 Q228.148 879.435 231.76 879.435 Q235.394 879.435 237.199 875.893 Q239.028 872.328 239.028 865.222 Q239.028 858.092 237.199 854.551 Q235.394 850.986 231.76 850.986 M231.76 847.282 Q237.57 847.282 240.625 851.889 Q243.704 856.472 243.704 865.222 Q243.704 873.949 240.625 878.555 Q237.57 883.139 231.76 883.139 Q225.949 883.139 222.871 878.555 Q219.815 873.949 219.815 865.222 Q219.815 856.472 222.871 851.889 Q225.949 847.282 231.76 847.282 Z" fill="#000000" fill-rule="nonzero" fill-opacity="1" /><path clip-path="url(#clip420)" d="M127.2 641.3 Q123.589 641.3 121.76 644.865 Q119.955 648.407 119.955 655.536 Q119.955 662.643 121.76 666.207 Q123.589 669.749 127.2 669.749 Q130.834 669.749 132.64 666.207 Q134.468 662.643 134.468 655.536 Q134.468 648.407 132.64 644.865 Q130.834 641.3 127.2 641.3 M127.2 637.597 Q133.01 637.597 136.066 642.203 Q139.144 646.786 139.144 655.536 Q139.144 664.263 136.066 668.869 Q133.01 673.453 127.2 673.453 Q121.39 673.453 118.311 668.869 Q115.256 664.263 115.256 655.536 Q115.256 646.786 118.311 642.203 Q121.39 637.597 127.2 637.597 Z" fill="#000000" fill-rule="nonzero" fill-opacity="1" /><path clip-path="url(#clip420)" d="M147.362 666.902 L152.246 666.902 L152.246 672.782 L147.362 672.782 L147.362 666.902 Z" fill="#000000" fill-rule="nonzero" fill-opacity="1" /><path clip-path="url(#clip420)" d="M163.241 668.846 L170.88 668.846 L170.88 642.481 L162.57 644.147 L162.57 639.888 L170.834 638.222 L175.51 638.222 L175.51 668.846 L183.149 668.846 L183.149 672.782 L163.241 672.782 L163.241 668.846 Z" fill="#000000" fill-rule="nonzero" fill-opacity="1" /><path clip-path="url(#clip420)" d="M191.413 638.222 L213.635 638.222 L213.635 640.212 L201.088 672.782 L196.204 672.782 L208.01 642.157 L191.413 642.157 L191.413 638.222 Z" fill="#000000" fill-rule="nonzero" fill-opacity="1" /><path clip-path="url(#clip420)" d="M222.801 638.222 L241.158 638.222 L241.158 642.157 L227.084 642.157 L227.084 650.629 Q228.102 650.282 229.121 650.12 Q230.139 649.934 231.158 649.934 Q236.945 649.934 240.324 653.106 Q243.704 656.277 243.704 661.694 Q243.704 667.272 240.232 670.374 Q236.76 673.453 230.44 673.453 Q228.264 673.453 225.996 673.082 Q223.75 672.712 221.343 671.971 L221.343 667.272 Q223.426 668.407 225.648 668.962 Q227.871 669.518 230.347 669.518 Q234.352 669.518 236.69 667.411 Q239.028 665.305 239.028 661.694 Q239.028 658.083 236.69 655.976 Q234.352 653.87 230.347 653.87 Q228.473 653.87 226.598 654.286 Q224.746 654.703 222.801 655.583 L222.801 638.222 Z" fill="#000000" fill-rule="nonzero" fill-opacity="1" /><path clip-path="url(#clip420)" d="M126.205 431.614 Q122.593 431.614 120.765 435.179 Q118.959 438.721 118.959 445.85 Q118.959 452.957 120.765 456.522 Q122.593 460.063 126.205 460.063 Q129.839 460.063 131.644 456.522 Q133.473 452.957 133.473 445.85 Q133.473 438.721 131.644 435.179 Q129.839 431.614 126.205 431.614 M126.205 427.911 Q132.015 427.911 135.07 432.517 Q138.149 437.101 138.149 445.85 Q138.149 454.577 135.07 459.184 Q132.015 463.767 126.205 463.767 Q120.394 463.767 117.316 459.184 Q114.26 454.577 114.26 445.85 Q114.26 437.101 117.316 432.517 Q120.394 427.911 126.205 427.911 Z" fill="#000000" fill-rule="nonzero" fill-opacity="1" /><path clip-path="url(#clip420)" d="M146.366 457.216 L151.251 457.216 L151.251 463.096 L146.366 463.096 L146.366 457.216 Z" fill="#000000" fill-rule="nonzero" fill-opacity="1" /><path clip-path="url(#clip420)" d="M165.464 459.161 L181.783 459.161 L181.783 463.096 L159.839 463.096 L159.839 459.161 Q162.501 456.406 167.084 451.776 Q171.69 447.124 172.871 445.781 Q175.116 443.258 175.996 441.522 Q176.899 439.763 176.899 438.073 Q176.899 435.318 174.954 433.582 Q173.033 431.846 169.931 431.846 Q167.732 431.846 165.278 432.61 Q162.848 433.374 160.07 434.925 L160.07 430.202 Q162.894 429.068 165.348 428.489 Q167.802 427.911 169.839 427.911 Q175.209 427.911 178.403 430.596 Q181.598 433.281 181.598 437.772 Q181.598 439.901 180.788 441.823 Q180.001 443.721 177.894 446.313 Q177.315 446.985 174.214 450.202 Q171.112 453.397 165.464 459.161 Z" fill="#000000" fill-rule="nonzero" fill-opacity="1" /><path clip-path="url(#clip420)" d="M201.598 431.614 Q197.987 431.614 196.158 435.179 Q194.352 438.721 194.352 445.85 Q194.352 452.957 196.158 456.522 Q197.987 460.063 201.598 460.063 Q205.232 460.063 207.037 456.522 Q208.866 452.957 208.866 445.85 Q208.866 438.721 207.037 435.179 Q205.232 431.614 201.598 431.614 M201.598 427.911 Q207.408 427.911 210.463 432.517 Q213.542 437.101 213.542 445.85 Q213.542 454.577 210.463 459.184 Q207.408 463.767 201.598 463.767 Q195.787 463.767 192.709 459.184 Q189.653 454.577 189.653 445.85 Q189.653 437.101 192.709 432.517 Q195.787 427.911 201.598 427.911 Z" fill="#000000" fill-rule="nonzero" fill-opacity="1" /><path clip-path="url(#clip420)" d="M231.76 431.614 Q228.148 431.614 226.32 435.179 Q224.514 438.721 224.514 445.85 Q224.514 452.957 226.32 456.522 Q228.148 460.063 231.76 460.063 Q235.394 460.063 237.199 456.522 Q239.028 452.957 239.028 445.85 Q239.028 438.721 237.199 435.179 Q235.394 431.614 231.76 431.614 M231.76 427.911 Q237.57 427.911 240.625 432.517 Q243.704 437.101 243.704 445.85 Q243.704 454.577 240.625 459.184 Q237.57 463.767 231.76 463.767 Q225.949 463.767 222.871 459.184 Q219.815 454.577 219.815 445.85 Q219.815 437.101 222.871 432.517 Q225.949 427.911 231.76 427.911 Z" fill="#000000" fill-rule="nonzero" fill-opacity="1" /><path clip-path="url(#clip420)" d="M127.2 221.929 Q123.589 221.929 121.76 225.493 Q119.955 229.035 119.955 236.165 Q119.955 243.271 121.76 246.836 Q123.589 250.378 127.2 250.378 Q130.834 250.378 132.64 246.836 Q134.468 243.271 134.468 236.165 Q134.468 229.035 132.64 225.493 Q130.834 221.929 127.2 221.929 M127.2 218.225 Q133.01 218.225 136.066 222.831 Q139.144 227.415 139.144 236.165 Q139.144 244.892 136.066 249.498 Q133.01 254.081 127.2 254.081 Q121.39 254.081 118.311 249.498 Q115.256 244.892 115.256 236.165 Q115.256 227.415 118.311 222.831 Q121.39 218.225 127.2 218.225 Z" fill="#000000" fill-rule="nonzero" fill-opacity="1" /><path clip-path="url(#clip420)" d="M147.362 247.53 L152.246 247.53 L152.246 253.41 L147.362 253.41 L147.362 247.53 Z" fill="#000000" fill-rule="nonzero" fill-opacity="1" /><path clip-path="url(#clip420)" d="M166.459 249.475 L182.778 249.475 L182.778 253.41 L160.834 253.41 L160.834 249.475 Q163.496 246.72 168.079 242.091 Q172.686 237.438 173.866 236.095 Q176.112 233.572 176.991 231.836 Q177.894 230.077 177.894 228.387 Q177.894 225.632 175.95 223.896 Q174.028 222.16 170.927 222.16 Q168.727 222.16 166.274 222.924 Q163.843 223.688 161.065 225.239 L161.065 220.517 Q163.89 219.382 166.343 218.804 Q168.797 218.225 170.834 218.225 Q176.204 218.225 179.399 220.91 Q182.593 223.595 182.593 228.086 Q182.593 230.216 181.783 232.137 Q180.996 234.035 178.889 236.628 Q178.311 237.299 175.209 240.517 Q172.107 243.711 166.459 249.475 Z" fill="#000000" fill-rule="nonzero" fill-opacity="1" /><path clip-path="url(#clip420)" d="M196.621 249.475 L212.94 249.475 L212.94 253.41 L190.996 253.41 L190.996 249.475 Q193.658 246.72 198.241 242.091 Q202.848 237.438 204.028 236.095 Q206.274 233.572 207.153 231.836 Q208.056 230.077 208.056 228.387 Q208.056 225.632 206.112 223.896 Q204.19 222.16 201.088 222.16 Q198.889 222.16 196.436 222.924 Q194.005 223.688 191.227 225.239 L191.227 220.517 Q194.051 219.382 196.505 218.804 Q198.959 218.225 200.996 218.225 Q206.366 218.225 209.561 220.91 Q212.755 223.595 212.755 228.086 Q212.755 230.216 211.945 232.137 Q211.158 234.035 209.051 236.628 Q208.473 237.299 205.371 240.517 Q202.269 243.711 196.621 249.475 Z" fill="#000000" fill-rule="nonzero" fill-opacity="1" /><path clip-path="url(#clip420)" d="M222.801 218.85 L241.158 218.85 L241.158 222.785 L227.084 222.785 L227.084 231.257 Q228.102 230.91 229.121 230.748 Q230.139 230.563 231.158 230.563 Q236.945 230.563 240.324 233.734 Q243.704 236.905 243.704 242.322 Q243.704 247.901 240.232 251.003 Q236.76 254.081 230.44 254.081 Q228.264 254.081 225.996 253.711 Q223.75 253.341 221.343 252.6 L221.343 247.901 Q223.426 249.035 225.648 249.591 Q227.871 250.146 230.347 250.146 Q234.352 250.146 236.69 248.04 Q239.028 245.933 239.028 242.322 Q239.028 238.711 236.69 236.605 Q234.352 234.498 230.347 234.498 Q228.473 234.498 226.598 234.915 Q224.746 235.331 222.801 236.211 L222.801 218.85 Z" fill="#000000" fill-rule="nonzero" fill-opacity="1" /><path clip-path="url(#clip420)" d="M33.7671 1012.71 L14.479 1012.71 L14.479 1006.85 L64.0042 1006.85 L64.0042 1012.71 L58.657 1012.71 Q61.8398 1014.56 63.3994 1017.39 Q64.9272 1020.19 64.9272 1024.14 Q64.9272 1030.6 59.771 1034.67 Q54.6147 1038.71 46.212 1038.71 Q37.8093 1038.71 32.6531 1034.67 Q27.4968 1030.6 27.4968 1024.14 Q27.4968 1020.19 29.0564 1017.39 Q30.5842 1014.56 33.7671 1012.71 M46.212 1032.67 Q52.6732 1032.67 56.3653 1030.02 Q60.0256 1027.35 60.0256 1022.7 Q60.0256 1018.06 56.3653 1015.38 Q52.6732 1012.71 46.212 1012.71 Q39.7508 1012.71 36.0905 1015.38 Q32.3984 1018.06 32.3984 1022.7 Q32.3984 1027.35 36.0905 1030.02 Q39.7508 1032.67 46.212 1032.67 Z" fill="#000000" fill-rule="nonzero" fill-opacity="1" /><path clip-path="url(#clip420)" d="M46.0847 978.589 Q46.0847 985.687 47.7079 988.424 Q49.3312 991.161 53.2461 991.161 Q56.3653 991.161 58.2114 989.124 Q60.0256 987.055 60.0256 983.522 Q60.0256 978.653 56.5881 975.724 Q53.1188 972.764 47.3897 972.764 L46.0847 972.764 L46.0847 978.589 M43.6657 966.908 L64.0042 966.908 L64.0042 972.764 L58.5933 972.764 Q61.8398 974.769 63.3994 977.761 Q64.9272 980.753 64.9272 985.082 Q64.9272 990.556 61.8716 993.803 Q58.7843 997.018 53.6281 997.018 Q47.6125 997.018 44.5569 993.007 Q41.5014 988.965 41.5014 980.976 L41.5014 972.764 L40.9285 972.764 Q36.8862 972.764 34.6901 975.438 Q32.4621 978.08 32.4621 982.886 Q32.4621 985.941 33.1941 988.838 Q33.9262 991.734 35.3903 994.408 L29.9795 994.408 Q28.7381 991.193 28.1334 988.169 Q27.4968 985.146 27.4968 982.281 Q27.4968 974.547 31.5072 970.727 Q35.5176 966.908 43.6657 966.908 Z" fill="#000000" fill-rule="nonzero" fill-opacity="1" /><path clip-path="url(#clip420)" d="M18.2347 949.052 L28.3562 949.052 L28.3562 936.989 L32.9077 936.989 L32.9077 949.052 L52.2594 949.052 Q56.6199 949.052 57.8613 947.874 Q59.1026 946.665 59.1026 943.005 L59.1026 936.989 L64.0042 936.989 L64.0042 943.005 Q64.0042 949.784 61.4897 952.362 Q58.9434 954.94 52.2594 954.94 L32.9077 954.94 L32.9077 959.237 L28.3562 959.237 L28.3562 954.94 L18.2347 954.94 L18.2347 949.052 Z" fill="#000000" fill-rule="nonzero" fill-opacity="1" /><path clip-path="url(#clip420)" d="M46.0847 913.086 Q46.0847 920.183 47.7079 922.921 Q49.3312 925.658 53.2461 925.658 Q56.3653 925.658 58.2114 923.621 Q60.0256 921.552 60.0256 918.019 Q60.0256 913.149 56.5881 910.221 Q53.1188 907.261 47.3897 907.261 L46.0847 907.261 L46.0847 913.086 M43.6657 901.405 L64.0042 901.405 L64.0042 907.261 L58.5933 907.261 Q61.8398 909.266 63.3994 912.258 Q64.9272 915.25 64.9272 919.579 Q64.9272 925.053 61.8716 928.3 Q58.7843 931.514 53.6281 931.514 Q47.6125 931.514 44.5569 927.504 Q41.5014 923.462 41.5014 915.473 L41.5014 907.261 L40.9285 907.261 Q36.8862 907.261 34.6901 909.935 Q32.4621 912.576 32.4621 917.383 Q32.4621 920.438 33.1941 923.335 Q33.9262 926.231 35.3903 928.905 L29.9795 928.905 Q28.7381 925.69 28.1334 922.666 Q27.4968 919.642 27.4968 916.778 Q27.4968 909.044 31.5072 905.224 Q35.5176 901.405 43.6657 901.405 Z" fill="#000000" fill-rule="nonzero" fill-opacity="1" /><path clip-path="url(#clip420)" d="M29.4065 866.616 L34.9447 866.616 Q33.6716 869.099 33.035 871.772 Q32.3984 874.446 32.3984 877.31 Q32.3984 881.671 33.7352 883.867 Q35.072 886.031 37.7456 886.031 Q39.7826 886.031 40.9603 884.472 Q42.1061 882.912 43.1565 878.202 L43.6021 876.196 Q44.9389 869.958 47.3897 867.348 Q49.8086 864.706 54.1691 864.706 Q59.1344 864.706 62.0308 868.653 Q64.9272 872.568 64.9272 879.443 Q64.9272 882.308 64.3543 885.427 Q63.8132 888.514 62.6992 891.952 L56.6518 891.952 Q58.3387 888.705 59.198 885.554 Q60.0256 882.403 60.0256 879.316 Q60.0256 875.178 58.6251 872.95 Q57.1929 870.722 54.6147 870.722 Q52.2276 870.722 50.9545 872.345 Q49.6813 873.937 48.5037 879.379 L48.0262 881.416 Q46.8804 886.859 44.5251 889.278 Q42.138 891.697 38.0002 891.697 Q32.9713 891.697 30.2341 888.132 Q27.4968 884.567 27.4968 878.011 Q27.4968 874.764 27.9743 871.9 Q28.4517 869.035 29.4065 866.616 Z" fill="#000000" fill-rule="nonzero" fill-opacity="1" /><path clip-path="url(#clip420)" d="M44.7161 824.889 L47.5806 824.889 L47.5806 851.816 Q53.6281 851.434 56.8109 848.187 Q59.9619 844.909 59.9619 839.084 Q59.9619 835.711 59.1344 832.56 Q58.3069 829.377 56.6518 826.257 L62.1899 826.257 Q63.5267 829.409 64.227 832.719 Q64.9272 836.029 64.9272 839.435 Q64.9272 847.965 59.9619 852.962 Q54.9967 857.927 46.5303 857.927 Q37.7774 857.927 32.6531 853.216 Q27.4968 848.474 27.4968 840.453 Q27.4968 833.26 32.1438 829.09 Q36.7589 824.889 44.7161 824.889 M42.9973 830.745 Q38.1912 830.809 35.3266 833.451 Q32.4621 836.061 32.4621 840.389 Q32.4621 845.291 35.2312 848.251 Q38.0002 851.179 43.0292 851.625 L42.9973 830.745 Z" fill="#000000" fill-rule="nonzero" fill-opacity="1" /><path clip-path="url(#clip420)" d="M18.2347 809.484 L28.3562 809.484 L28.3562 797.421 L32.9077 797.421 L32.9077 809.484 L52.2594 809.484 Q56.6199 809.484 57.8613 808.306 Q59.1026 807.097 59.1026 803.436 L59.1026 797.421 L64.0042 797.421 L64.0042 803.436 Q64.0042 810.216 61.4897 812.794 Q58.9434 815.372 52.2594 815.372 L32.9077 815.372 L32.9077 819.669 L28.3562 819.669 L28.3562 815.372 L18.2347 815.372 L18.2347 809.484 Z" fill="#000000" fill-rule="nonzero" fill-opacity="1" /><path clip-path="url(#clip420)" d="M35.1993 741.243 Q31.2526 739.047 29.3747 735.992 Q27.4968 732.936 27.4968 728.799 Q27.4968 723.229 31.4117 720.205 Q35.2948 717.181 42.4881 717.181 L64.0042 717.181 L64.0042 723.069 L42.679 723.069 Q37.5546 723.069 35.072 724.884 Q32.5894 726.698 32.5894 730.422 Q32.5894 734.973 35.6131 737.615 Q38.6368 740.257 43.8567 740.257 L64.0042 740.257 L64.0042 746.145 L42.679 746.145 Q37.5228 746.145 35.072 747.959 Q32.5894 749.774 32.5894 753.561 Q32.5894 758.049 35.6449 760.691 Q38.6686 763.332 43.8567 763.332 L64.0042 763.332 L64.0042 769.221 L28.3562 769.221 L28.3562 763.332 L33.8944 763.332 Q30.616 761.327 29.0564 758.526 Q27.4968 755.725 27.4968 751.874 Q27.4968 747.991 29.4702 745.286 Q31.4436 742.548 35.1993 741.243 Z" fill="#000000" fill-rule="nonzero" fill-opacity="1" /><path clip-path="url(#clip420)" d="M44.7161 675.008 L47.5806 675.008 L47.5806 701.935 Q53.6281 701.553 56.8109 698.307 Q59.9619 695.028 59.9619 689.204 Q59.9619 685.83 59.1344 682.679 Q58.3069 679.496 56.6518 676.377 L62.1899 676.377 Q63.5267 679.528 64.227 682.838 Q64.9272 686.148 64.9272 689.554 Q64.9272 698.084 59.9619 703.081 Q54.9967 708.046 46.5303 708.046 Q37.7774 708.046 32.6531 703.336 Q27.4968 698.593 27.4968 690.572 Q27.4968 683.379 32.1438 679.21 Q36.7589 675.008 44.7161 675.008 M42.9973 680.865 Q38.1912 680.928 35.3266 683.57 Q32.4621 686.18 32.4621 690.509 Q32.4621 695.41 35.2312 698.37 Q38.0002 701.299 43.0292 701.744 L42.9973 680.865 Z" fill="#000000" fill-rule="nonzero" fill-opacity="1" /><path clip-path="url(#clip420)" d="M46.0847 649.195 Q46.0847 656.293 47.7079 659.03 Q49.3312 661.768 53.2461 661.768 Q56.3653 661.768 58.2114 659.731 Q60.0256 657.662 60.0256 654.129 Q60.0256 649.259 56.5881 646.331 Q53.1188 643.371 47.3897 643.371 L46.0847 643.371 L46.0847 649.195 M43.6657 637.514 L64.0042 637.514 L64.0042 643.371 L58.5933 643.371 Q61.8398 645.376 63.3994 648.368 Q64.9272 651.36 64.9272 655.688 Q64.9272 661.163 61.8716 664.409 Q58.7843 667.624 53.6281 667.624 Q47.6125 667.624 44.5569 663.614 Q41.5014 659.571 41.5014 651.582 L41.5014 643.371 L40.9285 643.371 Q36.8862 643.371 34.6901 646.044 Q32.4621 648.686 32.4621 653.492 Q32.4621 656.548 33.1941 659.444 Q33.9262 662.341 35.3903 665.014 L29.9795 665.014 Q28.7381 661.799 28.1334 658.776 Q27.4968 655.752 27.4968 652.887 Q27.4968 645.153 31.5072 641.334 Q35.5176 637.514 43.6657 637.514 Z" fill="#000000" fill-rule="nonzero" fill-opacity="1" /><path clip-path="url(#clip420)" d="M42.4881 595.819 L64.0042 595.819 L64.0042 601.675 L42.679 601.675 Q37.6183 601.675 35.1038 603.649 Q32.5894 605.622 32.5894 609.569 Q32.5894 614.311 35.6131 617.049 Q38.6368 619.786 43.8567 619.786 L64.0042 619.786 L64.0042 625.674 L28.3562 625.674 L28.3562 619.786 L33.8944 619.786 Q30.6797 617.685 29.0883 614.852 Q27.4968 611.988 27.4968 608.264 Q27.4968 602.121 31.3163 598.97 Q35.1038 595.819 42.4881 595.819 Z" fill="#000000" fill-rule="nonzero" fill-opacity="1" /><path clip-path="url(#clip420)" d="M16.4842 563.163 L16.4842 553.582 L48.8219 541.456 L16.4842 529.265 L16.4842 519.685 L64.0042 519.685 L64.0042 525.955 L22.277 525.955 L54.8694 538.209 L54.8694 544.67 L22.277 556.924 L64.0042 556.924 L64.0042 563.163 L16.4842 563.163 Z" fill="#000000" fill-rule="nonzero" fill-opacity="1" /><path clip-path="url(#clip420)" d="M22.818 491.039 L46.4666 499.76 L46.4666 482.287 L22.818 491.039 M16.4842 494.668 L16.4842 487.379 L64.0042 469.269 L64.0042 475.953 L51.8138 480.281 L51.8138 501.702 L64.0042 506.031 L64.0042 512.81 L16.4842 494.668 Z" fill="#000000" fill-rule="nonzero" fill-opacity="1" /><path clip-path="url(#clip420)" d="M16.4842 462.33 L16.4842 432.284 L21.895 432.284 L21.895 455.901 L35.9632 455.901 L35.9632 433.271 L41.3741 433.271 L41.3741 455.901 L58.5933 455.901 L58.5933 431.711 L64.0042 431.711 L64.0042 462.33 L16.4842 462.33 Z" fill="#000000" fill-rule="nonzero" fill-opacity="1" /><polyline clip-path="url(#clip422)" style="stroke:#000000; stroke-linecap:round; stroke-linejoin:round; stroke-width:8; stroke-opacity:1; fill:none" points="338.375,1097.59 431.504,1117.39 524.633,1123.21 617.762,1136.09 710.891,1133.68 804.02,1135.71 897.149,1132.42 990.278,1136.95 1083.41,1145.01 1176.54,1149.2 1269.67,1148.64 1362.79,1150.55 1455.92,1145 1549.05,1135.66 1642.18,1130.87 1735.31,1115.4 1828.44,1110.21 1921.57,1116.02 2014.7,1132.76 2107.83,1136.1 2200.96,1135.18 2294.08,1145.51 "/>
<circle clip-path="url(#clip422)" cx="338.375" cy="1097.59" r="10.8" fill="#000000" fill-rule="evenodd" fill-opacity="1" stroke="none"/>
<circle clip-path="url(#clip422)" cx="431.504" cy="1117.39" r="10.8" fill="#000000" fill-rule="evenodd" fill-opacity="1" stroke="none"/>
<circle clip-path="url(#clip422)" cx="524.633" cy="1123.21" r="10.8" fill="#000000" fill-rule="evenodd" fill-opacity="1" stroke="none"/>
<circle clip-path="url(#clip422)" cx="617.762" cy="1136.09" r="10.8" fill="#000000" fill-rule="evenodd" fill-opacity="1" stroke="none"/>
<circle clip-path="url(#clip422)" cx="710.891" cy="1133.68" r="10.8" fill="#000000" fill-rule="evenodd" fill-opacity="1" stroke="none"/>
<circle clip-path="url(#clip422)" cx="804.02" cy="1135.71" r="10.8" fill="#000000" fill-rule="evenodd" fill-opacity="1" stroke="none"/>
<circle clip-path="url(#clip422)" cx="897.149" cy="1132.42" r="10.8" fill="#000000" fill-rule="evenodd" fill-opacity="1" stroke="none"/>
<circle clip-path="url(#clip422)" cx="990.278" cy="1136.95" r="10.8" fill="#000000" fill-rule="evenodd" fill-opacity="1" stroke="none"/>
<circle clip-path="url(#clip422)" cx="1083.41" cy="1145.01" r="10.8" fill="#000000" fill-rule="evenodd" fill-opacity="1" stroke="none"/>
<circle clip-path="url(#clip422)" cx="1176.54" cy="1149.2" r="10.8" fill="#000000" fill-rule="evenodd" fill-opacity="1" stroke="none"/>
<circle clip-path="url(#clip422)" cx="1269.67" cy="1148.64" r="10.8" fill="#000000" fill-rule="evenodd" fill-opacity="1" stroke="none"/>
<circle clip-path="url(#clip422)" cx="1362.79" cy="1150.55" r="10.8" fill="#000000" fill-rule="evenodd" fill-opacity="1" stroke="none"/>
<circle clip-path="url(#clip422)" cx="1455.92" cy="1145" r="10.8" fill="#000000" fill-rule="evenodd" fill-opacity="1" stroke="none"/>
<circle clip-path="url(#clip422)" cx="1549.05" cy="1135.66" r="10.8" fill="#000000" fill-rule="evenodd" fill-opacity="1" stroke="none"/>
<circle clip-path="url(#clip422)" cx="1642.18" cy="1130.87" r="10.8" fill="#000000" fill-rule="evenodd" fill-opacity="1" stroke="none"/>
<circle clip-path="url(#clip422)" cx="1735.31" cy="1115.4" r="10.8" fill="#000000" fill-rule="evenodd" fill-opacity="1" stroke="none"/>
<circle clip-path="url(#clip422)" cx="1828.44" cy="1110.21" r="10.8" fill="#000000" fill-rule="evenodd" fill-opacity="1" stroke="none"/>
<circle clip-path="url(#clip422)" cx="1921.57" cy="1116.02" r="10.8" fill="#000000" fill-rule="evenodd" fill-opacity="1" stroke="none"/>
<circle clip-path="url(#clip422)" cx="2014.7" cy="1132.76" r="10.8" fill="#000000" fill-rule="evenodd" fill-opacity="1" stroke="none"/>
<circle clip-path="url(#clip422)" cx="2107.83" cy="1136.1" r="10.8" fill="#000000" fill-rule="evenodd" fill-opacity="1" stroke="none"/>
<circle clip-path="url(#clip422)" cx="2200.96" cy="1135.18" r="10.8" fill="#000000" fill-rule="evenodd" fill-opacity="1" stroke="none"/>
<circle clip-path="url(#clip422)" cx="2294.08" cy="1145.51" r="10.8" fill="#000000" fill-rule="evenodd" fill-opacity="1" stroke="none"/>
<polyline clip-path="url(#clip422)" style="stroke:#000000; stroke-linecap:round; stroke-linejoin:round; stroke-width:8; stroke-opacity:1; fill:none" stroke-dasharray="4, 8" points="338.375,86.1857 431.504,103.753 524.633,106.661 617.762,115.456 710.891,153.712 804.02,174.12 897.149,173.881 990.278,200.968 1083.41,191.16 1176.54,179.416 1269.67,179.54 1362.79,187.475 1455.92,200.708 1549.05,200.384 1642.18,194.839 1735.31,215.263 1828.44,225.914 1921.57,189.646 2014.7,194.797 2107.83,219.155 2200.96,231.677 2294.08,223.943 "/>
<path clip-path="url(#clip422)" d="M338.375 70.1857 L322.375 86.1857 L338.375 102.186 L354.375 86.1857 L338.375 70.1857 Z" fill="#000000" fill-rule="evenodd" fill-opacity="1" stroke="none"/>
<path clip-path="url(#clip422)" d="M431.504 87.7533 L415.504 103.753 L431.504 119.753 L447.504 103.753 L431.504 87.7533 Z" fill="#000000" fill-rule="evenodd" fill-opacity="1" stroke="none"/>
<path clip-path="url(#clip422)" d="M524.633 90.6613 L508.633 106.661 L524.633 122.661 L540.633 106.661 L524.633 90.6613 Z" fill="#000000" fill-rule="evenodd" fill-opacity="1" stroke="none"/>
<path clip-path="url(#clip422)" d="M617.762 99.4556 L601.762 115.456 L617.762 131.456 L633.762 115.456 L617.762 99.4556 Z" fill="#000000" fill-rule="evenodd" fill-opacity="1" stroke="none"/>
<path clip-path="url(#clip422)" d="M710.891 137.712 L694.891 153.712 L710.891 169.712 L726.891 153.712 L710.891 137.712 Z" fill="#000000" fill-rule="evenodd" fill-opacity="1" stroke="none"/>
<path clip-path="url(#clip422)" d="M804.02 158.12 L788.02 174.12 L804.02 190.12 L820.02 174.12 L804.02 158.12 Z" fill="#000000" fill-rule="evenodd" fill-opacity="1" stroke="none"/>
<path clip-path="url(#clip422)" d="M897.149 157.881 L881.149 173.881 L897.149 189.881 L913.149 173.881 L897.149 157.881 Z" fill="#000000" fill-rule="evenodd" fill-opacity="1" stroke="none"/>
<path clip-path="url(#clip422)" d="M990.278 184.968 L974.278 200.968 L990.278 216.968 L1006.28 200.968 L990.278 184.968 Z" fill="#000000" fill-rule="evenodd" fill-opacity="1" stroke="none"/>
<path clip-path="url(#clip422)" d="M1083.41 175.16 L1067.41 191.16 L1083.41 207.16 L1099.41 191.16 L1083.41 175.16 Z" fill="#000000" fill-rule="evenodd" fill-opacity="1" stroke="none"/>
<path clip-path="url(#clip422)" d="M1176.54 163.416 L1160.54 179.416 L1176.54 195.416 L1192.54 179.416 L1176.54 163.416 Z" fill="#000000" fill-rule="evenodd" fill-opacity="1" stroke="none"/>
<path clip-path="url(#clip422)" d="M1269.67 163.54 L1253.67 179.54 L1269.67 195.54 L1285.67 179.54 L1269.67 163.54 Z" fill="#000000" fill-rule="evenodd" fill-opacity="1" stroke="none"/>
<path clip-path="url(#clip422)" d="M1362.79 171.475 L1346.79 187.475 L1362.79 203.475 L1378.79 187.475 L1362.79 171.475 Z" fill="#000000" fill-rule="evenodd" fill-opacity="1" stroke="none"/>
<path clip-path="url(#clip422)" d="M1455.92 184.708 L1439.92 200.708 L1455.92 216.708 L1471.92 200.708 L1455.92 184.708 Z" fill="#000000" fill-rule="evenodd" fill-opacity="1" stroke="none"/>
<path clip-path="url(#clip422)" d="M1549.05 184.384 L1533.05 200.384 L1549.05 216.384 L1565.05 200.384 L1549.05 184.384 Z" fill="#000000" fill-rule="evenodd" fill-opacity="1" stroke="none"/>
<path clip-path="url(#clip422)" d="M1642.18 178.839 L1626.18 194.839 L1642.18 210.839 L1658.18 194.839 L1642.18 178.839 Z" fill="#000000" fill-rule="evenodd" fill-opacity="1" stroke="none"/>
<path clip-path="url(#clip422)" d="M1735.31 199.263 L1719.31 215.263 L1735.31 231.263 L1751.31 215.263 L1735.31 199.263 Z" fill="#000000" fill-rule="evenodd" fill-opacity="1" stroke="none"/>
<path clip-path="url(#clip422)" d="M1828.44 209.914 L1812.44 225.914 L1828.44 241.914 L1844.44 225.914 L1828.44 209.914 Z" fill="#000000" fill-rule="evenodd" fill-opacity="1" stroke="none"/>
<path clip-path="url(#clip422)" d="M1921.57 173.646 L1905.57 189.646 L1921.57 205.646 L1937.57 189.646 L1921.57 173.646 Z" fill="#000000" fill-rule="evenodd" fill-opacity="1" stroke="none"/>
<path clip-path="url(#clip422)" d="M2014.7 178.797 L1998.7 194.797 L2014.7 210.797 L2030.7 194.797 L2014.7 178.797 Z" fill="#000000" fill-rule="evenodd" fill-opacity="1" stroke="none"/>
<path clip-path="url(#clip422)" d="M2107.83 203.155 L2091.83 219.155 L2107.83 235.155 L2123.83 219.155 L2107.83 203.155 Z" fill="#000000" fill-rule="evenodd" fill-opacity="1" stroke="none"/>
<path clip-path="url(#clip422)" d="M2200.96 215.677 L2184.96 231.677 L2200.96 247.677 L2216.96 231.677 L2200.96 215.677 Z" fill="#000000" fill-rule="evenodd" fill-opacity="1" stroke="none"/>
<path clip-path="url(#clip422)" d="M2294.08 207.943 L2278.08 223.943 L2294.08 239.943 L2310.08 223.943 L2294.08 207.943 Z" fill="#000000" fill-rule="evenodd" fill-opacity="1" stroke="none"/>
<polyline clip-path="url(#clip422)" style="stroke:#1f77b4; stroke-linecap:round; stroke-linejoin:round; stroke-width:8; stroke-opacity:1; fill:none" stroke-dasharray="4, 8" points="338.375,196.458 431.504,173.763 524.633,201.191 617.762,257.38 710.891,229.028 804.02,279.625 897.149,325.692 990.278,376.613 1083.41,369.912 1176.54,380.126 1269.67,405.319 1362.79,422.04 1455.92,439.974 1549.05,462.729 1642.18,460.156 1735.31,490.404 1828.44,522.383 1921.57,516.614 2014.7,553.384 2107.83,579.833 2200.96,584.502 2294.08,582.409 "/>
<path clip-path="url(#clip422)" d="M338.375 180.458 L322.375 196.458 L338.375 212.458 L354.375 196.458 L338.375 180.458 Z" fill="#1f77b4" fill-rule="evenodd" fill-opacity="1" stroke="none"/>
<path clip-path="url(#clip422)" d="M431.504 157.763 L415.504 173.763 L431.504 189.763 L447.504 173.763 L431.504 157.763 Z" fill="#1f77b4" fill-rule="evenodd" fill-opacity="1" stroke="none"/>
<path clip-path="url(#clip422)" d="M524.633 185.191 L508.633 201.191 L524.633 217.191 L540.633 201.191 L524.633 185.191 Z" fill="#1f77b4" fill-rule="evenodd" fill-opacity="1" stroke="none"/>
<path clip-path="url(#clip422)" d="M617.762 241.38 L601.762 257.38 L617.762 273.38 L633.762 257.38 L617.762 241.38 Z" fill="#1f77b4" fill-rule="evenodd" fill-opacity="1" stroke="none"/>
<path clip-path="url(#clip422)" d="M710.891 213.028 L694.891 229.028 L710.891 245.028 L726.891 229.028 L710.891 213.028 Z" fill="#1f77b4" fill-rule="evenodd" fill-opacity="1" stroke="none"/>
<path clip-path="url(#clip422)" d="M804.02 263.625 L788.02 279.625 L804.02 295.625 L820.02 279.625 L804.02 263.625 Z" fill="#1f77b4" fill-rule="evenodd" fill-opacity="1" stroke="none"/>
<path clip-path="url(#clip422)" d="M897.149 309.692 L881.149 325.692 L897.149 341.692 L913.149 325.692 L897.149 309.692 Z" fill="#1f77b4" fill-rule="evenodd" fill-opacity="1" stroke="none"/>
<path clip-path="url(#clip422)" d="M990.278 360.613 L974.278 376.613 L990.278 392.613 L1006.28 376.613 L990.278 360.613 Z" fill="#1f77b4" fill-rule="evenodd" fill-opacity="1" stroke="none"/>
<path clip-path="url(#clip422)" d="M1083.41 353.912 L1067.41 369.912 L1083.41 385.912 L1099.41 369.912 L1083.41 353.912 Z" fill="#1f77b4" fill-rule="evenodd" fill-opacity="1" stroke="none"/>
<path clip-path="url(#clip422)" d="M1176.54 364.126 L1160.54 380.126 L1176.54 396.126 L1192.54 380.126 L1176.54 364.126 Z" fill="#1f77b4" fill-rule="evenodd" fill-opacity="1" stroke="none"/>
<path clip-path="url(#clip422)" d="M1269.67 389.319 L1253.67 405.319 L1269.67 421.319 L1285.67 405.319 L1269.67 389.319 Z" fill="#1f77b4" fill-rule="evenodd" fill-opacity="1" stroke="none"/>
<path clip-path="url(#clip422)" d="M1362.79 406.04 L1346.79 422.04 L1362.79 438.04 L1378.79 422.04 L1362.79 406.04 Z" fill="#1f77b4" fill-rule="evenodd" fill-opacity="1" stroke="none"/>
<path clip-path="url(#clip422)" d="M1455.92 423.974 L1439.92 439.974 L1455.92 455.974 L1471.92 439.974 L1455.92 423.974 Z" fill="#1f77b4" fill-rule="evenodd" fill-opacity="1" stroke="none"/>
<path clip-path="url(#clip422)" d="M1549.05 446.729 L1533.05 462.729 L1549.05 478.729 L1565.05 462.729 L1549.05 446.729 Z" fill="#1f77b4" fill-rule="evenodd" fill-opacity="1" stroke="none"/>
<path clip-path="url(#clip422)" d="M1642.18 444.156 L1626.18 460.156 L1642.18 476.156 L1658.18 460.156 L1642.18 444.156 Z" fill="#1f77b4" fill-rule="evenodd" fill-opacity="1" stroke="none"/>
<path clip-path="url(#clip422)" d="M1735.31 474.404 L1719.31 490.404 L1735.31 506.404 L1751.31 490.404 L1735.31 474.404 Z" fill="#1f77b4" fill-rule="evenodd" fill-opacity="1" stroke="none"/>
<path clip-path="url(#clip422)" d="M1828.44 506.383 L1812.44 522.383 L1828.44 538.383 L1844.44 522.383 L1828.44 506.383 Z" fill="#1f77b4" fill-rule="evenodd" fill-opacity="1" stroke="none"/>
<path clip-path="url(#clip422)" d="M1921.57 500.614 L1905.57 516.614 L1921.57 532.614 L1937.57 516.614 L1921.57 500.614 Z" fill="#1f77b4" fill-rule="evenodd" fill-opacity="1" stroke="none"/>
<path clip-path="url(#clip422)" d="M2014.7 537.384 L1998.7 553.384 L2014.7 569.384 L2030.7 553.384 L2014.7 537.384 Z" fill="#1f77b4" fill-rule="evenodd" fill-opacity="1" stroke="none"/>
<path clip-path="url(#clip422)" d="M2107.83 563.833 L2091.83 579.833 L2107.83 595.833 L2123.83 579.833 L2107.83 563.833 Z" fill="#1f77b4" fill-rule="evenodd" fill-opacity="1" stroke="none"/>
<path clip-path="url(#clip422)" d="M2200.96 568.502 L2184.96 584.502 L2200.96 600.502 L2216.96 584.502 L2200.96 568.502 Z" fill="#1f77b4" fill-rule="evenodd" fill-opacity="1" stroke="none"/>
<path clip-path="url(#clip422)" d="M2294.08 566.409 L2278.08 582.409 L2294.08 598.409 L2310.08 582.409 L2294.08 566.409 Z" fill="#1f77b4" fill-rule="evenodd" fill-opacity="1" stroke="none"/>
<polyline clip-path="url(#clip422)" style="stroke:#ff7e0d; stroke-linecap:round; stroke-linejoin:round; stroke-width:8; stroke-opacity:1; fill:none" stroke-dasharray="4, 8" points="338.375,419.043 431.504,473.869 524.633,487.997 617.762,499.764 710.891,492.799 804.02,520.979 897.149,543.07 990.278,555.088 1083.41,568.977 1176.54,574.342 1269.67,587.793 1362.79,579.113 1455.92,600.917 1549.05,593.245 1642.18,606.926 1735.31,614.811 1828.44,638.567 1921.57,625.118 2014.7,644.457 2107.83,645.043 2200.96,643.945 2294.08,659.343 "/>
<path clip-path="url(#clip422)" d="M338.375 403.043 L322.375 419.043 L338.375 435.043 L354.375 419.043 L338.375 403.043 Z" fill="#ff7e0d" fill-rule="evenodd" fill-opacity="1" stroke="none"/>
<path clip-path="url(#clip422)" d="M431.504 457.869 L415.504 473.869 L431.504 489.869 L447.504 473.869 L431.504 457.869 Z" fill="#ff7e0d" fill-rule="evenodd" fill-opacity="1" stroke="none"/>
<path clip-path="url(#clip422)" d="M524.633 471.997 L508.633 487.997 L524.633 503.997 L540.633 487.997 L524.633 471.997 Z" fill="#ff7e0d" fill-rule="evenodd" fill-opacity="1" stroke="none"/>
<path clip-path="url(#clip422)" d="M617.762 483.764 L601.762 499.764 L617.762 515.764 L633.762 499.764 L617.762 483.764 Z" fill="#ff7e0d" fill-rule="evenodd" fill-opacity="1" stroke="none"/>
<path clip-path="url(#clip422)" d="M710.891 476.799 L694.891 492.799 L710.891 508.799 L726.891 492.799 L710.891 476.799 Z" fill="#ff7e0d" fill-rule="evenodd" fill-opacity="1" stroke="none"/>
<path clip-path="url(#clip422)" d="M804.02 504.979 L788.02 520.979 L804.02 536.979 L820.02 520.979 L804.02 504.979 Z" fill="#ff7e0d" fill-rule="evenodd" fill-opacity="1" stroke="none"/>
<path clip-path="url(#clip422)" d="M897.149 527.07 L881.149 543.07 L897.149 559.07 L913.149 543.07 L897.149 527.07 Z" fill="#ff7e0d" fill-rule="evenodd" fill-opacity="1" stroke="none"/>
<path clip-path="url(#clip422)" d="M990.278 539.088 L974.278 555.088 L990.278 571.088 L1006.28 555.088 L990.278 539.088 Z" fill="#ff7e0d" fill-rule="evenodd" fill-opacity="1" stroke="none"/>
<path clip-path="url(#clip422)" d="M1083.41 552.977 L1067.41 568.977 L1083.41 584.977 L1099.41 568.977 L1083.41 552.977 Z" fill="#ff7e0d" fill-rule="evenodd" fill-opacity="1" stroke="none"/>
<path clip-path="url(#clip422)" d="M1176.54 558.342 L1160.54 574.342 L1176.54 590.342 L1192.54 574.342 L1176.54 558.342 Z" fill="#ff7e0d" fill-rule="evenodd" fill-opacity="1" stroke="none"/>
<path clip-path="url(#clip422)" d="M1269.67 571.793 L1253.67 587.793 L1269.67 603.793 L1285.67 587.793 L1269.67 571.793 Z" fill="#ff7e0d" fill-rule="evenodd" fill-opacity="1" stroke="none"/>
<path clip-path="url(#clip422)" d="M1362.79 563.113 L1346.79 579.113 L1362.79 595.113 L1378.79 579.113 L1362.79 563.113 Z" fill="#ff7e0d" fill-rule="evenodd" fill-opacity="1" stroke="none"/>
<path clip-path="url(#clip422)" d="M1455.92 584.917 L1439.92 600.917 L1455.92 616.917 L1471.92 600.917 L1455.92 584.917 Z" fill="#ff7e0d" fill-rule="evenodd" fill-opacity="1" stroke="none"/>
<path clip-path="url(#clip422)" d="M1549.05 577.245 L1533.05 593.245 L1549.05 609.245 L1565.05 593.245 L1549.05 577.245 Z" fill="#ff7e0d" fill-rule="evenodd" fill-opacity="1" stroke="none"/>
<path clip-path="url(#clip422)" d="M1642.18 590.926 L1626.18 606.926 L1642.18 622.926 L1658.18 606.926 L1642.18 590.926 Z" fill="#ff7e0d" fill-rule="evenodd" fill-opacity="1" stroke="none"/>
<path clip-path="url(#clip422)" d="M1735.31 598.811 L1719.31 614.811 L1735.31 630.811 L1751.31 614.811 L1735.31 598.811 Z" fill="#ff7e0d" fill-rule="evenodd" fill-opacity="1" stroke="none"/>
<path clip-path="url(#clip422)" d="M1828.44 622.567 L1812.44 638.567 L1828.44 654.567 L1844.44 638.567 L1828.44 622.567 Z" fill="#ff7e0d" fill-rule="evenodd" fill-opacity="1" stroke="none"/>
<path clip-path="url(#clip422)" d="M1921.57 609.118 L1905.57 625.118 L1921.57 641.118 L1937.57 625.118 L1921.57 609.118 Z" fill="#ff7e0d" fill-rule="evenodd" fill-opacity="1" stroke="none"/>
<path clip-path="url(#clip422)" d="M2014.7 628.457 L1998.7 644.457 L2014.7 660.457 L2030.7 644.457 L2014.7 628.457 Z" fill="#ff7e0d" fill-rule="evenodd" fill-opacity="1" stroke="none"/>
<path clip-path="url(#clip422)" d="M2107.83 629.043 L2091.83 645.043 L2107.83 661.043 L2123.83 645.043 L2107.83 629.043 Z" fill="#ff7e0d" fill-rule="evenodd" fill-opacity="1" stroke="none"/>
<path clip-path="url(#clip422)" d="M2200.96 627.945 L2184.96 643.945 L2200.96 659.945 L2216.96 643.945 L2200.96 627.945 Z" fill="#ff7e0d" fill-rule="evenodd" fill-opacity="1" stroke="none"/>
<path clip-path="url(#clip422)" d="M2294.08 643.343 L2278.08 659.343 L2294.08 675.343 L2310.08 659.343 L2294.08 643.343 Z" fill="#ff7e0d" fill-rule="evenodd" fill-opacity="1" stroke="none"/>
<polyline clip-path="url(#clip422)" style="stroke:#2ba02b; stroke-linecap:round; stroke-linejoin:round; stroke-width:8; stroke-opacity:1; fill:none" stroke-dasharray="4, 8" points="338.375,449.853 431.504,504.911 524.633,506.021 617.762,516.012 710.891,512.069 804.02,543.3 897.149,574.063 990.278,595.925 1083.41,608.545 1176.54,609.82 1269.67,625.621 1362.79,640.08 1455.92,648.914 1549.05,640.788 1642.18,633.458 1735.31,634.933 1828.44,661.782 1921.57,641.181 2014.7,650.083 2107.83,662.251 2200.96,659.895 2294.08,661.312 "/>
<path clip-path="url(#clip422)" d="M338.375 433.853 L322.375 449.853 L338.375 465.853 L354.375 449.853 L338.375 433.853 Z" fill="#2ba02b" fill-rule="evenodd" fill-opacity="1" stroke="none"/>
<path clip-path="url(#clip422)" d="M431.504 488.911 L415.504 504.911 L431.504 520.911 L447.504 504.911 L431.504 488.911 Z" fill="#2ba02b" fill-rule="evenodd" fill-opacity="1" stroke="none"/>
<path clip-path="url(#clip422)" d="M524.633 490.021 L508.633 506.021 L524.633 522.021 L540.633 506.021 L524.633 490.021 Z" fill="#2ba02b" fill-rule="evenodd" fill-opacity="1" stroke="none"/>
<path clip-path="url(#clip422)" d="M617.762 500.012 L601.762 516.012 L617.762 532.012 L633.762 516.012 L617.762 500.012 Z" fill="#2ba02b" fill-rule="evenodd" fill-opacity="1" stroke="none"/>
<path clip-path="url(#clip422)" d="M710.891 496.069 L694.891 512.069 L710.891 528.069 L726.891 512.069 L710.891 496.069 Z" fill="#2ba02b" fill-rule="evenodd" fill-opacity="1" stroke="none"/>
<path clip-path="url(#clip422)" d="M804.02 527.3 L788.02 543.3 L804.02 559.3 L820.02 543.3 L804.02 527.3 Z" fill="#2ba02b" fill-rule="evenodd" fill-opacity="1" stroke="none"/>
<path clip-path="url(#clip422)" d="M897.149 558.063 L881.149 574.063 L897.149 590.063 L913.149 574.063 L897.149 558.063 Z" fill="#2ba02b" fill-rule="evenodd" fill-opacity="1" stroke="none"/>
<path clip-path="url(#clip422)" d="M990.278 579.925 L974.278 595.925 L990.278 611.925 L1006.28 595.925 L990.278 579.925 Z" fill="#2ba02b" fill-rule="evenodd" fill-opacity="1" stroke="none"/>
<path clip-path="url(#clip422)" d="M1083.41 592.545 L1067.41 608.545 L1083.41 624.545 L1099.41 608.545 L1083.41 592.545 Z" fill="#2ba02b" fill-rule="evenodd" fill-opacity="1" stroke="none"/>
<path clip-path="url(#clip422)" d="M1176.54 593.82 L1160.54 609.82 L1176.54 625.82 L1192.54 609.82 L1176.54 593.82 Z" fill="#2ba02b" fill-rule="evenodd" fill-opacity="1" stroke="none"/>
<path clip-path="url(#clip422)" d="M1269.67 609.621 L1253.67 625.621 L1269.67 641.621 L1285.67 625.621 L1269.67 609.621 Z" fill="#2ba02b" fill-rule="evenodd" fill-opacity="1" stroke="none"/>
<path clip-path="url(#clip422)" d="M1362.79 624.08 L1346.79 640.08 L1362.79 656.08 L1378.79 640.08 L1362.79 624.08 Z" fill="#2ba02b" fill-rule="evenodd" fill-opacity="1" stroke="none"/>
<path clip-path="url(#clip422)" d="M1455.92 632.914 L1439.92 648.914 L1455.92 664.914 L1471.92 648.914 L1455.92 632.914 Z" fill="#2ba02b" fill-rule="evenodd" fill-opacity="1" stroke="none"/>
<path clip-path="url(#clip422)" d="M1549.05 624.788 L1533.05 640.788 L1549.05 656.788 L1565.05 640.788 L1549.05 624.788 Z" fill="#2ba02b" fill-rule="evenodd" fill-opacity="1" stroke="none"/>
<path clip-path="url(#clip422)" d="M1642.18 617.458 L1626.18 633.458 L1642.18 649.458 L1658.18 633.458 L1642.18 617.458 Z" fill="#2ba02b" fill-rule="evenodd" fill-opacity="1" stroke="none"/>
<path clip-path="url(#clip422)" d="M1735.31 618.933 L1719.31 634.933 L1735.31 650.933 L1751.31 634.933 L1735.31 618.933 Z" fill="#2ba02b" fill-rule="evenodd" fill-opacity="1" stroke="none"/>
<path clip-path="url(#clip422)" d="M1828.44 645.782 L1812.44 661.782 L1828.44 677.782 L1844.44 661.782 L1828.44 645.782 Z" fill="#2ba02b" fill-rule="evenodd" fill-opacity="1" stroke="none"/>
<path clip-path="url(#clip422)" d="M1921.57 625.181 L1905.57 641.181 L1921.57 657.181 L1937.57 641.181 L1921.57 625.181 Z" fill="#2ba02b" fill-rule="evenodd" fill-opacity="1" stroke="none"/>
<path clip-path="url(#clip422)" d="M2014.7 634.083 L1998.7 650.083 L2014.7 666.083 L2030.7 650.083 L2014.7 634.083 Z" fill="#2ba02b" fill-rule="evenodd" fill-opacity="1" stroke="none"/>
<path clip-path="url(#clip422)" d="M2107.83 646.251 L2091.83 662.251 L2107.83 678.251 L2123.83 662.251 L2107.83 646.251 Z" fill="#2ba02b" fill-rule="evenodd" fill-opacity="1" stroke="none"/>
<path clip-path="url(#clip422)" d="M2200.96 643.895 L2184.96 659.895 L2200.96 675.895 L2216.96 659.895 L2200.96 643.895 Z" fill="#2ba02b" fill-rule="evenodd" fill-opacity="1" stroke="none"/>
<path clip-path="url(#clip422)" d="M2294.08 645.312 L2278.08 661.312 L2294.08 677.312 L2310.08 661.312 L2294.08 645.312 Z" fill="#2ba02b" fill-rule="evenodd" fill-opacity="1" stroke="none"/>
<polyline clip-path="url(#clip422)" style="stroke:#1f77b4; stroke-linecap:round; stroke-linejoin:round; stroke-width:8; stroke-opacity:1; fill:none" points="338.375,1131.19 431.504,1157.81 524.633,1178.63 617.762,1187.62 710.891,1192.41 804.02,1197.21 897.149,1193.99 990.278,1209.73 1083.41,1220.79 1176.54,1225.29 1269.67,1218.95 1362.79,1228.34 1455.92,1233.15 1549.05,1235.07 1642.18,1231.55 1735.31,1229.76 1828.44,1226.44 1921.57,1234.58 2014.7,1248.9 2107.83,1254.66 2200.96,1255.93 2294.08,1268.81 "/>
<circle clip-path="url(#clip422)" cx="338.375" cy="1131.19" r="10.8" fill="#1f77b4" fill-rule="evenodd" fill-opacity="1" stroke="none"/>
<circle clip-path="url(#clip422)" cx="431.504" cy="1157.81" r="10.8" fill="#1f77b4" fill-rule="evenodd" fill-opacity="1" stroke="none"/>
<circle clip-path="url(#clip422)" cx="524.633" cy="1178.63" r="10.8" fill="#1f77b4" fill-rule="evenodd" fill-opacity="1" stroke="none"/>
<circle clip-path="url(#clip422)" cx="617.762" cy="1187.62" r="10.8" fill="#1f77b4" fill-rule="evenodd" fill-opacity="1" stroke="none"/>
<circle clip-path="url(#clip422)" cx="710.891" cy="1192.41" r="10.8" fill="#1f77b4" fill-rule="evenodd" fill-opacity="1" stroke="none"/>
<circle clip-path="url(#clip422)" cx="804.02" cy="1197.21" r="10.8" fill="#1f77b4" fill-rule="evenodd" fill-opacity="1" stroke="none"/>
<circle clip-path="url(#clip422)" cx="897.149" cy="1193.99" r="10.8" fill="#1f77b4" fill-rule="evenodd" fill-opacity="1" stroke="none"/>
<circle clip-path="url(#clip422)" cx="990.278" cy="1209.73" r="10.8" fill="#1f77b4" fill-rule="evenodd" fill-opacity="1" stroke="none"/>
<circle clip-path="url(#clip422)" cx="1083.41" cy="1220.79" r="10.8" fill="#1f77b4" fill-rule="evenodd" fill-opacity="1" stroke="none"/>
<circle clip-path="url(#clip422)" cx="1176.54" cy="1225.29" r="10.8" fill="#1f77b4" fill-rule="evenodd" fill-opacity="1" stroke="none"/>
<circle clip-path="url(#clip422)" cx="1269.67" cy="1218.95" r="10.8" fill="#1f77b4" fill-rule="evenodd" fill-opacity="1" stroke="none"/>
<circle clip-path="url(#clip422)" cx="1362.79" cy="1228.34" r="10.8" fill="#1f77b4" fill-rule="evenodd" fill-opacity="1" stroke="none"/>
<circle clip-path="url(#clip422)" cx="1455.92" cy="1233.15" r="10.8" fill="#1f77b4" fill-rule="evenodd" fill-opacity="1" stroke="none"/>
<circle clip-path="url(#clip422)" cx="1549.05" cy="1235.07" r="10.8" fill="#1f77b4" fill-rule="evenodd" fill-opacity="1" stroke="none"/>
<circle clip-path="url(#clip422)" cx="1642.18" cy="1231.55" r="10.8" fill="#1f77b4" fill-rule="evenodd" fill-opacity="1" stroke="none"/>
<circle clip-path="url(#clip422)" cx="1735.31" cy="1229.76" r="10.8" fill="#1f77b4" fill-rule="evenodd" fill-opacity="1" stroke="none"/>
<circle clip-path="url(#clip422)" cx="1828.44" cy="1226.44" r="10.8" fill="#1f77b4" fill-rule="evenodd" fill-opacity="1" stroke="none"/>
<circle clip-path="url(#clip422)" cx="1921.57" cy="1234.58" r="10.8" fill="#1f77b4" fill-rule="evenodd" fill-opacity="1" stroke="none"/>
<circle clip-path="url(#clip422)" cx="2014.7" cy="1248.9" r="10.8" fill="#1f77b4" fill-rule="evenodd" fill-opacity="1" stroke="none"/>
<circle clip-path="url(#clip422)" cx="2107.83" cy="1254.66" r="10.8" fill="#1f77b4" fill-rule="evenodd" fill-opacity="1" stroke="none"/>
<circle clip-path="url(#clip422)" cx="2200.96" cy="1255.93" r="10.8" fill="#1f77b4" fill-rule="evenodd" fill-opacity="1" stroke="none"/>
<circle clip-path="url(#clip422)" cx="2294.08" cy="1268.81" r="10.8" fill="#1f77b4" fill-rule="evenodd" fill-opacity="1" stroke="none"/>
<polyline clip-path="url(#clip422)" style="stroke:#ff7e0d; stroke-linecap:round; stroke-linejoin:round; stroke-width:8; stroke-opacity:1; fill:none" points="338.375,1273.41 431.504,1278.63 524.633,1294.66 617.762,1301.51 710.891,1294.88 804.02,1297.02 897.149,1302.78 990.278,1313.01 1083.41,1313.02 1176.54,1318.42 1269.67,1321.39 1362.79,1331.05 1455.92,1341.09 1549.05,1341.7 1642.18,1341.87 1735.31,1343.92 1828.44,1347.08 1921.57,1357.18 2014.7,1366.48 2107.83,1367.39 2200.96,1367.98 2294.08,1384.24 "/>
<circle clip-path="url(#clip422)" cx="338.375" cy="1273.41" r="10.8" fill="#ff7e0d" fill-rule="evenodd" fill-opacity="1" stroke="none"/>
<circle clip-path="url(#clip422)" cx="431.504" cy="1278.63" r="10.8" fill="#ff7e0d" fill-rule="evenodd" fill-opacity="1" stroke="none"/>
<circle clip-path="url(#clip422)" cx="524.633" cy="1294.66" r="10.8" fill="#ff7e0d" fill-rule="evenodd" fill-opacity="1" stroke="none"/>
<circle clip-path="url(#clip422)" cx="617.762" cy="1301.51" r="10.8" fill="#ff7e0d" fill-rule="evenodd" fill-opacity="1" stroke="none"/>
<circle clip-path="url(#clip422)" cx="710.891" cy="1294.88" r="10.8" fill="#ff7e0d" fill-rule="evenodd" fill-opacity="1" stroke="none"/>
<circle clip-path="url(#clip422)" cx="804.02" cy="1297.02" r="10.8" fill="#ff7e0d" fill-rule="evenodd" fill-opacity="1" stroke="none"/>
<circle clip-path="url(#clip422)" cx="897.149" cy="1302.78" r="10.8" fill="#ff7e0d" fill-rule="evenodd" fill-opacity="1" stroke="none"/>
<circle clip-path="url(#clip422)" cx="990.278" cy="1313.01" r="10.8" fill="#ff7e0d" fill-rule="evenodd" fill-opacity="1" stroke="none"/>
<circle clip-path="url(#clip422)" cx="1083.41" cy="1313.02" r="10.8" fill="#ff7e0d" fill-rule="evenodd" fill-opacity="1" stroke="none"/>
<circle clip-path="url(#clip422)" cx="1176.54" cy="1318.42" r="10.8" fill="#ff7e0d" fill-rule="evenodd" fill-opacity="1" stroke="none"/>
<circle clip-path="url(#clip422)" cx="1269.67" cy="1321.39" r="10.8" fill="#ff7e0d" fill-rule="evenodd" fill-opacity="1" stroke="none"/>
<circle clip-path="url(#clip422)" cx="1362.79" cy="1331.05" r="10.8" fill="#ff7e0d" fill-rule="evenodd" fill-opacity="1" stroke="none"/>
<circle clip-path="url(#clip422)" cx="1455.92" cy="1341.09" r="10.8" fill="#ff7e0d" fill-rule="evenodd" fill-opacity="1" stroke="none"/>
<circle clip-path="url(#clip422)" cx="1549.05" cy="1341.7" r="10.8" fill="#ff7e0d" fill-rule="evenodd" fill-opacity="1" stroke="none"/>
<circle clip-path="url(#clip422)" cx="1642.18" cy="1341.87" r="10.8" fill="#ff7e0d" fill-rule="evenodd" fill-opacity="1" stroke="none"/>
<circle clip-path="url(#clip422)" cx="1735.31" cy="1343.92" r="10.8" fill="#ff7e0d" fill-rule="evenodd" fill-opacity="1" stroke="none"/>
<circle clip-path="url(#clip422)" cx="1828.44" cy="1347.08" r="10.8" fill="#ff7e0d" fill-rule="evenodd" fill-opacity="1" stroke="none"/>
<circle clip-path="url(#clip422)" cx="1921.57" cy="1357.18" r="10.8" fill="#ff7e0d" fill-rule="evenodd" fill-opacity="1" stroke="none"/>
<circle clip-path="url(#clip422)" cx="2014.7" cy="1366.48" r="10.8" fill="#ff7e0d" fill-rule="evenodd" fill-opacity="1" stroke="none"/>
<circle clip-path="url(#clip422)" cx="2107.83" cy="1367.39" r="10.8" fill="#ff7e0d" fill-rule="evenodd" fill-opacity="1" stroke="none"/>
<circle clip-path="url(#clip422)" cx="2200.96" cy="1367.98" r="10.8" fill="#ff7e0d" fill-rule="evenodd" fill-opacity="1" stroke="none"/>
<circle clip-path="url(#clip422)" cx="2294.08" cy="1384.24" r="10.8" fill="#ff7e0d" fill-rule="evenodd" fill-opacity="1" stroke="none"/>
<polyline clip-path="url(#clip422)" style="stroke:#2ba02b; stroke-linecap:round; stroke-linejoin:round; stroke-width:8; stroke-opacity:1; fill:none" points="338.375,1294.21 431.504,1309.14 524.633,1318.59 617.762,1323.19 710.891,1328.4 804.02,1329.74 897.149,1334.11 990.278,1342.51 1083.41,1345.99 1176.54,1347.34 1269.67,1346.54 1362.79,1350.57 1455.92,1353.01 1549.05,1354.21 1642.18,1353.32 1735.31,1352.77 1828.44,1354.73 1921.57,1362.82 2014.7,1365.56 2107.83,1365.09 2200.96,1369.08 2294.08,1377.3 "/>
<circle clip-path="url(#clip422)" cx="338.375" cy="1294.21" r="10.8" fill="#2ba02b" fill-rule="evenodd" fill-opacity="1" stroke="none"/>
<circle clip-path="url(#clip422)" cx="431.504" cy="1309.14" r="10.8" fill="#2ba02b" fill-rule="evenodd" fill-opacity="1" stroke="none"/>
<circle clip-path="url(#clip422)" cx="524.633" cy="1318.59" r="10.8" fill="#2ba02b" fill-rule="evenodd" fill-opacity="1" stroke="none"/>
<circle clip-path="url(#clip422)" cx="617.762" cy="1323.19" r="10.8" fill="#2ba02b" fill-rule="evenodd" fill-opacity="1" stroke="none"/>
<circle clip-path="url(#clip422)" cx="710.891" cy="1328.4" r="10.8" fill="#2ba02b" fill-rule="evenodd" fill-opacity="1" stroke="none"/>
<circle clip-path="url(#clip422)" cx="804.02" cy="1329.74" r="10.8" fill="#2ba02b" fill-rule="evenodd" fill-opacity="1" stroke="none"/>
<circle clip-path="url(#clip422)" cx="897.149" cy="1334.11" r="10.8" fill="#2ba02b" fill-rule="evenodd" fill-opacity="1" stroke="none"/>
<circle clip-path="url(#clip422)" cx="990.278" cy="1342.51" r="10.8" fill="#2ba02b" fill-rule="evenodd" fill-opacity="1" stroke="none"/>
<circle clip-path="url(#clip422)" cx="1083.41" cy="1345.99" r="10.8" fill="#2ba02b" fill-rule="evenodd" fill-opacity="1" stroke="none"/>
<circle clip-path="url(#clip422)" cx="1176.54" cy="1347.34" r="10.8" fill="#2ba02b" fill-rule="evenodd" fill-opacity="1" stroke="none"/>
<circle clip-path="url(#clip422)" cx="1269.67" cy="1346.54" r="10.8" fill="#2ba02b" fill-rule="evenodd" fill-opacity="1" stroke="none"/>
<circle clip-path="url(#clip422)" cx="1362.79" cy="1350.57" r="10.8" fill="#2ba02b" fill-rule="evenodd" fill-opacity="1" stroke="none"/>
<circle clip-path="url(#clip422)" cx="1455.92" cy="1353.01" r="10.8" fill="#2ba02b" fill-rule="evenodd" fill-opacity="1" stroke="none"/>
<circle clip-path="url(#clip422)" cx="1549.05" cy="1354.21" r="10.8" fill="#2ba02b" fill-rule="evenodd" fill-opacity="1" stroke="none"/>
<circle clip-path="url(#clip422)" cx="1642.18" cy="1353.32" r="10.8" fill="#2ba02b" fill-rule="evenodd" fill-opacity="1" stroke="none"/>
<circle clip-path="url(#clip422)" cx="1735.31" cy="1352.77" r="10.8" fill="#2ba02b" fill-rule="evenodd" fill-opacity="1" stroke="none"/>
<circle clip-path="url(#clip422)" cx="1828.44" cy="1354.73" r="10.8" fill="#2ba02b" fill-rule="evenodd" fill-opacity="1" stroke="none"/>
<circle clip-path="url(#clip422)" cx="1921.57" cy="1362.82" r="10.8" fill="#2ba02b" fill-rule="evenodd" fill-opacity="1" stroke="none"/>
<circle clip-path="url(#clip422)" cx="2014.7" cy="1365.56" r="10.8" fill="#2ba02b" fill-rule="evenodd" fill-opacity="1" stroke="none"/>
<circle clip-path="url(#clip422)" cx="2107.83" cy="1365.09" r="10.8" fill="#2ba02b" fill-rule="evenodd" fill-opacity="1" stroke="none"/>
<circle clip-path="url(#clip422)" cx="2200.96" cy="1369.08" r="10.8" fill="#2ba02b" fill-rule="evenodd" fill-opacity="1" stroke="none"/>
<circle clip-path="url(#clip422)" cx="2294.08" cy="1377.3" r="10.8" fill="#2ba02b" fill-rule="evenodd" fill-opacity="1" stroke="none"/>
</svg>
