<?xml version="1.0" encoding="utf-8"?>
<svg xmlns="http://www.w3.org/2000/svg" xmlns:xlink="http://www.w3.org/1999/xlink" width="1000" height="500" viewBox="0 0 4000 2000">
<defs>
  <clipPath id="clip540">
    <rect x="0" y="0" width="4000" height="2000"/>
  </clipPath>
</defs>
<path clip-path="url(#clip540)" d="M0 2000 L4000 2000 L4000 0 L0 0  Z" fill="#ffffff" fill-rule="evenodd" fill-opacity="1"/>
<defs>
  <clipPath id="clip541">
    <rect x="800" y="0" width="2801" height="2000"/>
  </clipPath>
</defs>
<path clip-path="url(#clip540)" d="M255.15 1763.75 L3063.61 1763.75 L3063.61 262.064 L255.15 262.064  Z" fill="#ffffff" fill-rule="evenodd" fill-opacity="1"/>
<defs>
  <clipPath id="clip542">
    <rect x="255" y="262" width="2809" height="1503"/>
  </clipPath>
</defs>
<polyline clip-path="url(#clip542)" style="stroke:#000000; stroke-linecap:round; stroke-linejoin:round; stroke-width:2; stroke-opacity:0.1; fill:none" points="307.872,1763.75 307.872,262.064 "/>
<polyline clip-path="url(#clip542)" style="stroke:#000000; stroke-linecap:round; stroke-linejoin:round; stroke-width:2; stroke-opacity:0.1; fill:none" points="976.935,1763.75 976.935,262.064 "/>
<polyline clip-path="url(#clip542)" style="stroke:#000000; stroke-linecap:round; stroke-linejoin:round; stroke-width:2; stroke-opacity:0.1; fill:none" points="1646,1763.75 1646,262.064 "/>
<polyline clip-path="url(#clip542)" style="stroke:#000000; stroke-linecap:round; stroke-linejoin:round; stroke-width:2; stroke-opacity:0.1; fill:none" points="2315.06,1763.75 2315.06,262.064 "/>
<polyline clip-path="url(#clip542)" style="stroke:#000000; stroke-linecap:round; stroke-linejoin:round; stroke-width:2; stroke-opacity:0.1; fill:none" points="2984.12,1763.75 2984.12,262.064 "/>
<polyline clip-path="url(#clip542)" style="stroke:#000000; stroke-linecap:round; stroke-linejoin:round; stroke-width:2; stroke-opacity:0.1; fill:none" points="255.15,1499.12 3063.61,1499.12 "/>
<polyline clip-path="url(#clip542)" style="stroke:#000000; stroke-linecap:round; stroke-linejoin:round; stroke-width:2; stroke-opacity:0.1; fill:none" points="255.15,1193.08 3063.61,1193.08 "/>
<polyline clip-path="url(#clip542)" style="stroke:#000000; stroke-linecap:round; stroke-linejoin:round; stroke-width:2; stroke-opacity:0.1; fill:none" points="255.15,887.038 3063.61,887.038 "/>
<polyline clip-path="url(#clip542)" style="stroke:#000000; stroke-linecap:round; stroke-linejoin:round; stroke-width:2; stroke-opacity:0.1; fill:none" points="255.15,580.994 3063.61,580.994 "/>
<polyline clip-path="url(#clip542)" style="stroke:#000000; stroke-linecap:round; stroke-linejoin:round; stroke-width:2; stroke-opacity:0.1; fill:none" points="255.15,274.95 3063.61,274.95 "/>
<polyline clip-path="url(#clip540)" style="stroke:#000000; stroke-linecap:round; stroke-linejoin:round; stroke-width:4; stroke-opacity:1; fill:none" points="255.15,1763.75 3063.61,1763.75 "/>
<polyline clip-path="url(#clip540)" style="stroke:#000000; stroke-linecap:round; stroke-linejoin:round; stroke-width:4; stroke-opacity:1; fill:none" points="307.872,1763.75 307.872,1744.85 "/>
<polyline clip-path="url(#clip540)" style="stroke:#000000; stroke-linecap:round; stroke-linejoin:round; stroke-width:4; stroke-opacity:1; fill:none" points="976.935,1763.75 976.935,1744.85 "/>
<polyline clip-path="url(#clip540)" style="stroke:#000000; stroke-linecap:round; stroke-linejoin:round; stroke-width:4; stroke-opacity:1; fill:none" points="1646,1763.75 1646,1744.85 "/>
<polyline clip-path="url(#clip540)" style="stroke:#000000; stroke-linecap:round; stroke-linejoin:round; stroke-width:4; stroke-opacity:1; fill:none" points="2315.06,1763.75 2315.06,1744.85 "/>
<polyline clip-path="url(#clip540)" style="stroke:#000000; stroke-linecap:round; stroke-linejoin:round; stroke-width:4; stroke-opacity:1; fill:none" points="2984.12,1763.75 2984.12,1744.85 "/>
<path clip-path="url(#clip540)" d="M307.872 1813.33 Q302.455 1813.33 299.712 1818.67 Q297.004 1823.99 297.004 1834.68 Q297.004 1845.34 299.712 1850.69 Q302.455 1856 307.872 1856 Q313.323 1856 316.032 1850.69 Q318.775 1845.34 318.775 1834.68 Q318.775 1823.99 316.032 1818.67 Q313.323 1813.33 307.872 1813.33 M307.872 1807.77 Q316.587 1807.77 321.171 1814.68 Q325.789 1821.55 325.789 1834.68 Q325.789 1847.77 321.171 1854.68 Q316.587 1861.55 307.872 1861.55 Q299.157 1861.55 294.539 1854.68 Q289.955 1847.77 289.955 1834.68 Q289.955 1821.55 294.539 1814.68 Q299.157 1807.77 307.872 1807.77 Z" fill="#000000" fill-rule="nonzero" fill-opacity="1" /><path clip-path="url(#clip540)" d="M945.842 1854.64 L970.321 1854.64 L970.321 1860.55 L937.404 1860.55 L937.404 1854.64 Q941.397 1850.51 948.272 1843.57 Q955.182 1836.59 956.953 1834.58 Q960.321 1830.79 961.64 1828.19 Q962.994 1825.55 962.994 1823.01 Q962.994 1818.88 960.078 1816.28 Q957.196 1813.67 952.543 1813.67 Q949.244 1813.67 945.564 1814.82 Q941.918 1815.96 937.751 1818.29 L937.751 1811.21 Q941.988 1809.51 945.668 1808.64 Q949.349 1807.77 952.404 1807.77 Q960.46 1807.77 965.251 1811.8 Q970.043 1815.83 970.043 1822.56 Q970.043 1825.76 968.828 1828.64 Q967.647 1831.49 964.487 1835.37 Q963.619 1836.38 958.967 1841.21 Q954.314 1846 945.842 1854.64 Z" fill="#000000" fill-rule="nonzero" fill-opacity="1" /><path clip-path="url(#clip540)" d="M985.112 1808.71 L1012.65 1808.71 L1012.65 1814.61 L991.536 1814.61 L991.536 1827.32 Q993.064 1826.8 994.591 1826.55 Q996.119 1826.28 997.647 1826.28 Q1006.33 1826.28 1011.4 1831.03 Q1016.47 1835.79 1016.47 1843.92 Q1016.47 1852.28 1011.26 1856.94 Q1006.05 1861.55 996.571 1861.55 Q993.307 1861.55 989.904 1861 Q986.536 1860.44 982.925 1859.33 L982.925 1852.28 Q986.05 1853.99 989.383 1854.82 Q992.716 1855.65 996.432 1855.65 Q1002.44 1855.65 1005.95 1852.49 Q1009.45 1849.33 1009.45 1843.92 Q1009.45 1838.5 1005.95 1835.34 Q1002.44 1832.18 996.432 1832.18 Q993.619 1832.18 990.807 1832.8 Q988.029 1833.43 985.112 1834.75 L985.112 1808.71 Z" fill="#000000" fill-rule="nonzero" fill-opacity="1" /><path clip-path="url(#clip540)" d="M1608.05 1808.71 L1635.58 1808.71 L1635.58 1814.61 L1614.47 1814.61 L1614.47 1827.32 Q1616 1826.8 1617.53 1826.55 Q1619.05 1826.28 1620.58 1826.28 Q1629.26 1826.28 1634.33 1831.03 Q1639.4 1835.79 1639.4 1843.92 Q1639.4 1852.28 1634.19 1856.94 Q1628.98 1861.55 1619.51 1861.55 Q1616.24 1861.55 1612.84 1861 Q1609.47 1860.44 1605.86 1859.33 L1605.86 1852.28 Q1608.98 1853.99 1612.32 1854.82 Q1615.65 1855.65 1619.37 1855.65 Q1625.37 1855.65 1628.88 1852.49 Q1632.39 1849.33 1632.39 1843.92 Q1632.39 1838.5 1628.88 1835.34 Q1625.37 1832.18 1619.37 1832.18 Q1616.55 1832.18 1613.74 1832.8 Q1610.96 1833.43 1608.05 1834.75 L1608.05 1808.71 Z" fill="#000000" fill-rule="nonzero" fill-opacity="1" /><path clip-path="url(#clip540)" d="M1668.22 1813.33 Q1662.8 1813.33 1660.06 1818.67 Q1657.35 1823.99 1657.35 1834.68 Q1657.35 1845.34 1660.06 1850.69 Q1662.8 1856 1668.22 1856 Q1673.67 1856 1676.38 1850.69 Q1679.12 1845.34 1679.12 1834.68 Q1679.12 1823.99 1676.38 1818.67 Q1673.67 1813.33 1668.22 1813.33 M1668.22 1807.77 Q1676.94 1807.77 1681.52 1814.68 Q1686.14 1821.55 1686.14 1834.68 Q1686.14 1847.77 1681.52 1854.68 Q1676.94 1861.55 1668.22 1861.55 Q1659.51 1861.55 1654.89 1854.68 Q1650.3 1847.77 1650.3 1834.68 Q1650.3 1821.55 1654.89 1814.68 Q1659.51 1807.77 1668.22 1807.77 Z" fill="#000000" fill-rule="nonzero" fill-opacity="1" /><path clip-path="url(#clip540)" d="M2275.84 1808.71 L2309.18 1808.71 L2309.18 1811.69 L2290.36 1860.55 L2283.03 1860.55 L2300.74 1814.61 L2275.84 1814.61 L2275.84 1808.71 Z" fill="#000000" fill-rule="nonzero" fill-opacity="1" /><path clip-path="url(#clip540)" d="M2322.93 1808.71 L2350.46 1808.71 L2350.46 1814.61 L2329.35 1814.61 L2329.35 1827.32 Q2330.88 1826.8 2332.41 1826.55 Q2333.93 1826.28 2335.46 1826.28 Q2344.14 1826.28 2349.21 1831.03 Q2354.28 1835.79 2354.28 1843.92 Q2354.28 1852.28 2349.07 1856.94 Q2343.86 1861.55 2334.38 1861.55 Q2331.12 1861.55 2327.72 1861 Q2324.35 1860.44 2320.74 1859.33 L2320.74 1852.28 Q2323.86 1853.99 2327.2 1854.82 Q2330.53 1855.65 2334.25 1855.65 Q2340.25 1855.65 2343.76 1852.49 Q2347.27 1849.33 2347.27 1843.92 Q2347.27 1838.5 2343.76 1835.34 Q2340.25 1832.18 2334.25 1832.18 Q2331.43 1832.18 2328.62 1832.8 Q2325.84 1833.43 2322.93 1834.75 L2322.93 1808.71 Z" fill="#000000" fill-rule="nonzero" fill-opacity="1" /><path clip-path="url(#clip540)" d="M2923.53 1854.64 L2934.99 1854.64 L2934.99 1815.1 L2922.53 1817.6 L2922.53 1811.21 L2934.92 1808.71 L2941.94 1808.71 L2941.94 1854.64 L2953.4 1854.64 L2953.4 1860.55 L2923.53 1860.55 L2923.53 1854.64 Z" fill="#000000" fill-rule="nonzero" fill-opacity="1" /><path clip-path="url(#clip540)" d="M2982.56 1813.33 Q2977.15 1813.33 2974.4 1818.67 Q2971.69 1823.99 2971.69 1834.68 Q2971.69 1845.34 2974.4 1850.69 Q2977.15 1856 2982.56 1856 Q2988.01 1856 2990.72 1850.69 Q2993.47 1845.34 2993.47 1834.68 Q2993.47 1823.99 2990.72 1818.67 Q2988.01 1813.33 2982.56 1813.33 M2982.56 1807.77 Q2991.28 1807.77 2995.86 1814.68 Q3000.48 1821.55 3000.48 1834.68 Q3000.48 1847.77 2995.86 1854.68 Q2991.28 1861.55 2982.56 1861.55 Q2973.85 1861.55 2969.23 1854.68 Q2964.65 1847.77 2964.65 1834.68 Q2964.65 1821.55 2969.23 1814.68 Q2973.85 1807.77 2982.56 1807.77 Z" fill="#000000" fill-rule="nonzero" fill-opacity="1" /><path clip-path="url(#clip540)" d="M3027.81 1813.33 Q3022.39 1813.33 3019.65 1818.67 Q3016.94 1823.99 3016.94 1834.68 Q3016.94 1845.34 3019.65 1850.69 Q3022.39 1856 3027.81 1856 Q3033.26 1856 3035.96 1850.69 Q3038.71 1845.34 3038.71 1834.68 Q3038.71 1823.99 3035.96 1818.67 Q3033.26 1813.33 3027.81 1813.33 M3027.81 1807.77 Q3036.52 1807.77 3041.1 1814.68 Q3045.72 1821.55 3045.72 1834.68 Q3045.72 1847.77 3041.1 1854.68 Q3036.52 1861.55 3027.81 1861.55 Q3019.09 1861.55 3014.47 1854.68 Q3009.89 1847.77 3009.89 1834.68 Q3009.89 1821.55 3014.47 1814.68 Q3019.09 1807.77 3027.81 1807.77 Z" fill="#000000" fill-rule="nonzero" fill-opacity="1" /><path clip-path="url(#clip540)" d="M1598.54 1912.76 L1598.54 1922.88 L1610.6 1922.88 L1610.6 1927.44 L1598.54 1927.44 L1598.54 1946.79 Q1598.54 1951.15 1599.72 1952.39 Q1600.93 1953.63 1604.59 1953.63 L1610.6 1953.63 L1610.6 1958.53 L1604.59 1958.53 Q1597.81 1958.53 1595.23 1956.02 Q1592.65 1953.47 1592.65 1946.79 L1592.65 1927.44 L1588.35 1927.44 L1588.35 1922.88 L1592.65 1922.88 L1592.65 1912.76 L1598.54 1912.76 Z" fill="#000000" fill-rule="nonzero" fill-opacity="1" /><path clip-path="url(#clip540)" d="M1618.31 1922.88 L1624.16 1922.88 L1624.16 1958.53 L1618.31 1958.53 L1618.31 1922.88 M1618.31 1909.01 L1624.16 1909.01 L1624.16 1916.42 L1618.31 1916.42 L1618.31 1909.01 Z" fill="#000000" fill-rule="nonzero" fill-opacity="1" /><path clip-path="url(#clip540)" d="M1664.17 1929.73 Q1666.37 1925.78 1669.42 1923.9 Q1672.48 1922.02 1676.61 1922.02 Q1682.18 1922.02 1685.21 1925.94 Q1688.23 1929.82 1688.23 1937.02 L1688.23 1958.53 L1682.34 1958.53 L1682.34 1937.21 Q1682.34 1932.08 1680.53 1929.6 Q1678.72 1927.12 1674.99 1927.12 Q1670.44 1927.12 1667.8 1930.14 Q1665.16 1933.16 1665.16 1938.38 L1665.16 1958.53 L1659.27 1958.53 L1659.27 1937.21 Q1659.27 1932.05 1657.45 1929.6 Q1655.64 1927.12 1651.85 1927.12 Q1647.36 1927.12 1644.72 1930.17 Q1642.08 1933.2 1642.08 1938.38 L1642.08 1958.53 L1636.19 1958.53 L1636.19 1922.88 L1642.08 1922.88 L1642.08 1928.42 Q1644.09 1925.14 1646.89 1923.58 Q1649.69 1922.02 1653.54 1922.02 Q1657.42 1922.02 1660.13 1924 Q1662.86 1925.97 1664.17 1929.73 Z" fill="#000000" fill-rule="nonzero" fill-opacity="1" /><path clip-path="url(#clip540)" d="M1730.41 1939.24 L1730.41 1942.11 L1703.48 1942.11 Q1703.86 1948.16 1707.11 1951.34 Q1710.38 1954.49 1716.21 1954.49 Q1719.58 1954.49 1722.73 1953.66 Q1725.92 1952.83 1729.04 1951.18 L1729.04 1956.72 Q1725.89 1958.05 1722.58 1958.75 Q1719.27 1959.45 1715.86 1959.45 Q1707.33 1959.45 1702.33 1954.49 Q1697.37 1949.52 1697.37 1941.06 Q1697.37 1932.31 1702.08 1927.18 Q1706.82 1922.02 1714.84 1922.02 Q1722.03 1922.02 1726.2 1926.67 Q1730.41 1931.29 1730.41 1939.24 M1724.55 1937.52 Q1724.49 1932.72 1721.84 1929.85 Q1719.23 1926.99 1714.9 1926.99 Q1710 1926.99 1707.04 1929.76 Q1704.11 1932.53 1703.67 1937.56 L1724.55 1937.52 Z" fill="#000000" fill-rule="nonzero" fill-opacity="1" /><polyline clip-path="url(#clip540)" style="stroke:#000000; stroke-linecap:round; stroke-linejoin:round; stroke-width:4; stroke-opacity:1; fill:none" points="255.15,1763.75 255.15,262.064 "/>
<polyline clip-path="url(#clip540)" style="stroke:#000000; stroke-linecap:round; stroke-linejoin:round; stroke-width:4; stroke-opacity:1; fill:none" points="255.15,1499.12 269.503,1499.12 "/>
<polyline clip-path="url(#clip540)" style="stroke:#000000; stroke-linecap:round; stroke-linejoin:round; stroke-width:4; stroke-opacity:1; fill:none" points="255.15,1193.08 269.503,1193.08 "/>
<polyline clip-path="url(#clip540)" style="stroke:#000000; stroke-linecap:round; stroke-linejoin:round; stroke-width:4; stroke-opacity:1; fill:none" points="255.15,887.038 269.503,887.038 "/>
<polyline clip-path="url(#clip540)" style="stroke:#000000; stroke-linecap:round; stroke-linejoin:round; stroke-width:4; stroke-opacity:1; fill:none" points="255.15,580.994 269.503,580.994 "/>
<polyline clip-path="url(#clip540)" style="stroke:#000000; stroke-linecap:round; stroke-linejoin:round; stroke-width:4; stroke-opacity:1; fill:none" points="255.15,274.95 269.503,274.95 "/>
<path clip-path="url(#clip540)" d="M177.233 1477.82 Q171.817 1477.82 169.074 1483.17 Q166.365 1488.48 166.365 1499.18 Q166.365 1509.84 169.074 1515.18 Q171.817 1520.5 177.233 1520.5 Q182.685 1520.5 185.393 1515.18 Q188.136 1509.84 188.136 1499.18 Q188.136 1488.48 185.393 1483.17 Q182.685 1477.82 177.233 1477.82 M177.233 1472.27 Q185.949 1472.27 190.532 1479.18 Q195.15 1486.05 195.15 1499.18 Q195.15 1512.27 190.532 1519.18 Q185.949 1526.05 177.233 1526.05 Q168.518 1526.05 163.9 1519.18 Q159.317 1512.27 159.317 1499.18 Q159.317 1486.05 163.9 1479.18 Q168.518 1472.27 177.233 1472.27 Z" fill="#000000" fill-rule="nonzero" fill-opacity="1" /><path clip-path="url(#clip540)" d="M165.289 1213.1 L176.747 1213.1 L176.747 1173.55 L164.282 1176.05 L164.282 1169.66 L176.678 1167.16 L183.692 1167.16 L183.692 1213.1 L195.15 1213.1 L195.15 1219 L165.289 1219 L165.289 1213.1 Z" fill="#000000" fill-rule="nonzero" fill-opacity="1" /><path clip-path="url(#clip540)" d="M170.671 907.055 L195.15 907.055 L195.15 912.958 L162.233 912.958 L162.233 907.055 Q166.226 902.923 173.101 895.978 Q180.011 888.999 181.782 886.985 Q185.15 883.201 186.469 880.597 Q187.824 877.958 187.824 875.423 Q187.824 871.291 184.907 868.687 Q182.025 866.083 177.372 866.083 Q174.074 866.083 170.393 867.229 Q166.747 868.374 162.581 870.701 L162.581 863.618 Q166.817 861.916 170.497 861.048 Q174.178 860.18 177.233 860.18 Q185.289 860.18 190.08 864.208 Q194.872 868.236 194.872 874.972 Q194.872 878.166 193.657 881.048 Q192.476 883.895 189.317 887.784 Q188.449 888.791 183.796 893.617 Q179.143 898.409 170.671 907.055 Z" fill="#000000" fill-rule="nonzero" fill-opacity="1" /><path clip-path="url(#clip540)" d="M184.455 578.963 Q189.49 580.039 192.303 583.442 Q195.15 586.845 195.15 591.845 Q195.15 599.518 189.872 603.72 Q184.594 607.921 174.872 607.921 Q171.608 607.921 168.136 607.261 Q164.699 606.636 161.018 605.352 L161.018 598.581 Q163.935 600.282 167.407 601.15 Q170.879 602.018 174.664 602.018 Q181.261 602.018 184.699 599.414 Q188.171 596.81 188.171 591.845 Q188.171 587.261 184.942 584.692 Q181.747 582.088 176.018 582.088 L169.976 582.088 L169.976 576.324 L176.296 576.324 Q181.469 576.324 184.212 574.275 Q186.955 572.192 186.955 568.303 Q186.955 564.31 184.108 562.192 Q181.296 560.039 176.018 560.039 Q173.136 560.039 169.837 560.664 Q166.539 561.289 162.581 562.609 L162.581 556.359 Q166.574 555.248 170.046 554.692 Q173.553 554.137 176.643 554.137 Q184.629 554.137 189.282 557.782 Q193.935 561.393 193.935 567.574 Q193.935 571.879 191.469 574.866 Q189.004 577.817 184.455 578.963 Z" fill="#000000" fill-rule="nonzero" fill-opacity="1" /><path clip-path="url(#clip540)" d="M180.775 255.142 L163.067 282.815 L180.775 282.815 L180.775 255.142 M178.935 249.03 L187.754 249.03 L187.754 282.815 L195.15 282.815 L195.15 288.648 L187.754 288.648 L187.754 300.87 L180.775 300.87 L180.775 288.648 L157.372 288.648 L157.372 281.878 L178.935 249.03 Z" fill="#000000" fill-rule="nonzero" fill-opacity="1" /><path clip-path="url(#clip540)" d="M47.4683 996.291 L64.8149 1009.18 L83.1163 995.623 L83.1163 1002.53 L69.1117 1012.91 L83.1163 1023.28 L83.1163 1030.19 L64.4648 1016.34 L47.4683 1029.01 L47.4683 1022.1 L60.1679 1012.65 L47.4683 1003.2 L47.4683 996.291 Z" fill="#000000" fill-rule="nonzero" fill-opacity="1" /><path clip-path="url(#clip540)" d="M803.991 44.3209 L803.991 52.3012 Q799.332 50.0732 795.2 48.9795 Q791.068 47.8857 787.22 47.8857 Q780.536 47.8857 776.89 50.4783 Q773.285 53.0709 773.285 57.851 Q773.285 61.8614 775.675 63.9273 Q778.106 65.9528 784.83 67.2086 L789.772 68.2213 Q798.927 69.9632 803.262 74.3787 Q807.637 78.7536 807.637 86.1263 Q807.637 94.9167 801.722 99.4537 Q795.848 103.991 784.465 103.991 Q780.171 103.991 775.31 103.019 Q770.49 102.046 765.305 100.142 L765.305 91.7165 Q770.287 94.5116 775.067 95.9295 Q779.847 97.3473 784.465 97.3473 Q791.474 97.3473 795.281 94.5927 Q799.089 91.838 799.089 86.7339 Q799.089 82.2779 796.335 79.7664 Q793.62 77.2548 787.382 75.999 L782.399 75.0268 Q773.244 73.2039 769.153 69.315 Q765.062 65.4262 765.062 58.4991 Q765.062 50.4783 770.692 45.8603 Q776.364 41.2423 786.288 41.2423 Q790.542 41.2423 794.957 42.0119 Q799.373 42.7816 803.991 44.3209 Z" fill="#000000" fill-rule="nonzero" fill-opacity="1" /><path clip-path="url(#clip540)" d="M840.692 80.0094 Q831.658 80.0094 828.175 82.0754 Q824.691 84.1413 824.691 89.1239 Q824.691 93.0938 827.284 95.4434 Q829.917 97.7524 834.413 97.7524 Q840.611 97.7524 844.338 93.3774 Q848.105 88.9619 848.105 81.6703 L848.105 80.0094 L840.692 80.0094 M855.559 76.9307 L855.559 102.816 L848.105 102.816 L848.105 95.9295 Q845.553 100.061 841.745 102.046 Q837.937 103.991 832.428 103.991 Q825.461 103.991 821.329 100.102 Q817.237 96.1725 817.237 89.6101 Q817.237 81.9538 822.341 78.065 Q827.486 74.1761 837.654 74.1761 L848.105 74.1761 L848.105 73.4469 Q848.105 68.3023 844.702 65.5072 Q841.34 62.6715 835.223 62.6715 Q831.334 62.6715 827.648 63.6032 Q823.962 64.535 820.559 66.3984 L820.559 59.5118 Q824.65 57.932 828.499 57.1623 Q832.347 56.3521 835.993 56.3521 Q845.837 56.3521 850.698 61.4563 Q855.559 66.5604 855.559 76.9307 Z" fill="#000000" fill-rule="nonzero" fill-opacity="1" /><path clip-path="url(#clip540)" d="M906.236 66.1553 Q909.031 61.1322 912.92 58.7422 Q916.808 56.3521 922.075 56.3521 Q929.164 56.3521 933.012 61.3347 Q936.86 66.2768 936.86 75.4319 L936.86 102.816 L929.366 102.816 L929.366 75.6749 Q929.366 69.153 927.057 65.9933 Q924.748 62.8336 920.009 62.8336 Q914.216 62.8336 910.854 66.6819 Q907.491 70.5303 907.491 77.1738 L907.491 102.816 L899.997 102.816 L899.997 75.6749 Q899.997 69.1125 897.688 65.9933 Q895.379 62.8336 890.559 62.8336 Q884.847 62.8336 881.485 66.7224 Q878.122 70.5708 878.122 77.1738 L878.122 102.816 L870.628 102.816 L870.628 57.4459 L878.122 57.4459 L878.122 64.4944 Q880.674 60.322 884.239 58.3371 Q887.804 56.3521 892.706 56.3521 Q897.648 56.3521 901.091 58.8637 Q904.575 61.3752 906.236 66.1553 Z" fill="#000000" fill-rule="nonzero" fill-opacity="1" /><path clip-path="url(#clip540)" d="M958.938 96.0105 L958.938 120.073 L951.444 120.073 L951.444 57.4459 L958.938 57.4459 L958.938 64.3324 Q961.287 60.2815 964.852 58.3371 Q968.458 56.3521 973.44 56.3521 Q981.704 56.3521 986.849 62.9146 Q992.034 69.4771 992.034 80.1714 Q992.034 90.8658 986.849 97.4283 Q981.704 103.991 973.44 103.991 Q968.458 103.991 964.852 102.046 Q961.287 100.061 958.938 96.0105 M984.297 80.1714 Q984.297 71.9481 980.894 67.2896 Q977.532 62.5905 971.617 62.5905 Q965.703 62.5905 962.3 67.2896 Q958.938 71.9481 958.938 80.1714 Q958.938 88.3948 962.3 93.0938 Q965.703 97.7524 971.617 97.7524 Q977.532 97.7524 980.894 93.0938 Q984.297 88.3948 984.297 80.1714 Z" fill="#000000" fill-rule="nonzero" fill-opacity="1" /><path clip-path="url(#clip540)" d="M1004.39 39.7839 L1011.84 39.7839 L1011.84 102.816 L1004.39 102.816 L1004.39 39.7839 Z" fill="#000000" fill-rule="nonzero" fill-opacity="1" /><path clip-path="url(#clip540)" d="M1066.25 78.2675 L1066.25 81.9133 L1031.98 81.9133 Q1032.46 89.6101 1036.59 93.661 Q1040.77 97.6714 1048.18 97.6714 Q1052.47 97.6714 1056.48 96.6181 Q1060.53 95.5649 1064.5 93.4584 L1064.5 100.507 Q1060.49 102.208 1056.28 103.1 Q1052.07 103.991 1047.73 103.991 Q1036.88 103.991 1030.52 97.6714 Q1024.2 91.3519 1024.2 80.5765 Q1024.2 69.4365 1030.19 62.9146 Q1036.23 56.3521 1046.44 56.3521 Q1055.59 56.3521 1060.9 62.2664 Q1066.25 68.1403 1066.25 78.2675 M1058.79 76.08 Q1058.71 69.9632 1055.35 66.3174 Q1052.03 62.6715 1046.52 62.6715 Q1040.28 62.6715 1036.51 66.1958 Q1032.79 69.7201 1032.22 76.1205 L1058.79 76.08 Z" fill="#000000" fill-rule="nonzero" fill-opacity="1" /><path clip-path="url(#clip540)" d="M1107.32 95.9295 L1120.69 95.9295 L1120.69 49.7897 L1106.15 52.7063 L1106.15 45.2527 L1120.61 42.336 L1128.79 42.336 L1128.79 95.9295 L1142.16 95.9295 L1142.16 102.816 L1107.32 102.816 L1107.32 95.9295 Z" fill="#000000" fill-rule="nonzero" fill-opacity="1" /><path clip-path="url(#clip540)" d="M1165.74 95.9295 L1194.3 95.9295 L1194.3 102.816 L1155.89 102.816 L1155.89 95.9295 Q1160.55 91.1089 1168.57 83.0071 Q1176.63 74.8648 1178.7 72.5152 Q1182.63 68.0998 1184.17 65.0616 Q1185.75 61.9829 1185.75 59.0257 Q1185.75 54.2051 1182.35 51.167 Q1178.98 48.1288 1173.55 48.1288 Q1169.71 48.1288 1165.41 49.4656 Q1161.16 50.8024 1156.3 53.5165 L1156.3 45.2527 Q1161.24 43.2677 1165.53 42.255 Q1169.83 41.2423 1173.39 41.2423 Q1182.79 41.2423 1188.38 45.9413 Q1193.97 50.6404 1193.97 58.4991 Q1193.97 62.2259 1192.55 65.5882 Q1191.18 68.9099 1187.49 73.4469 Q1186.48 74.6217 1181.05 80.2525 Q1175.62 85.8427 1165.74 95.9295 Z" fill="#000000" fill-rule="nonzero" fill-opacity="1" /><path clip-path="url(#clip540)" d="M1218.52 95.9295 L1247.08 95.9295 L1247.08 102.816 L1208.68 102.816 L1208.68 95.9295 Q1213.33 91.1089 1221.36 83.0071 Q1229.42 74.8648 1231.48 72.5152 Q1235.41 68.0998 1236.95 65.0616 Q1238.53 61.9829 1238.53 59.0257 Q1238.53 54.2051 1235.13 51.167 Q1231.77 48.1288 1226.34 48.1288 Q1222.49 48.1288 1218.2 49.4656 Q1213.94 50.8024 1209.08 53.5165 L1209.08 45.2527 Q1214.02 43.2677 1218.32 42.255 Q1222.61 41.2423 1226.18 41.2423 Q1235.57 41.2423 1241.16 45.9413 Q1246.75 50.6404 1246.75 58.4991 Q1246.75 62.2259 1245.34 65.5882 Q1243.96 68.9099 1240.27 73.4469 Q1239.26 74.6217 1233.83 80.2525 Q1228.4 85.8427 1218.52 95.9295 Z" fill="#000000" fill-rule="nonzero" fill-opacity="1" /><path clip-path="url(#clip540)" d="M1265.11 92.5267 L1273.65 92.5267 L1273.65 99.4943 L1267.01 112.457 L1261.78 112.457 L1265.11 99.4943 L1265.11 92.5267 Z" fill="#000000" fill-rule="nonzero" fill-opacity="1" /><path clip-path="url(#clip540)" d="M1361.56 46.9945 L1361.56 55.623 Q1357.43 51.7746 1352.73 49.8707 Q1348.07 47.9668 1342.8 47.9668 Q1332.43 47.9668 1326.92 54.3267 Q1321.41 60.6461 1321.41 72.6368 Q1321.41 84.5869 1326.92 90.9469 Q1332.43 97.2663 1342.8 97.2663 Q1348.07 97.2663 1352.73 95.3623 Q1357.43 93.4584 1361.56 89.6101 L1361.56 98.1575 Q1357.26 101.074 1352.44 102.532 Q1347.66 103.991 1342.32 103.991 Q1328.58 103.991 1320.68 95.6054 Q1312.78 87.1795 1312.78 72.6368 Q1312.78 58.0535 1320.68 49.6681 Q1328.58 41.2423 1342.32 41.2423 Q1347.74 41.2423 1352.52 42.7006 Q1357.34 44.1184 1361.56 46.9945 Z" fill="#000000" fill-rule="nonzero" fill-opacity="1" /><path clip-path="url(#clip540)" d="M1373.87 39.7839 L1381.33 39.7839 L1381.33 102.816 L1373.87 102.816 L1373.87 39.7839 Z" fill="#000000" fill-rule="nonzero" fill-opacity="1" /><path clip-path="url(#clip540)" d="M1417.54 80.0094 Q1408.51 80.0094 1405.02 82.0754 Q1401.54 84.1413 1401.54 89.1239 Q1401.54 93.0938 1404.13 95.4434 Q1406.77 97.7524 1411.26 97.7524 Q1417.46 97.7524 1421.19 93.3774 Q1424.95 88.9619 1424.95 81.6703 L1424.95 80.0094 L1417.54 80.0094 M1432.41 76.9307 L1432.41 102.816 L1424.95 102.816 L1424.95 95.9295 Q1422.4 100.061 1418.59 102.046 Q1414.79 103.991 1409.28 103.991 Q1402.31 103.991 1398.18 100.102 Q1394.09 96.1725 1394.09 89.6101 Q1394.09 81.9538 1399.19 78.065 Q1404.33 74.1761 1414.5 74.1761 L1424.95 74.1761 L1424.95 73.4469 Q1424.95 68.3023 1421.55 65.5072 Q1418.19 62.6715 1412.07 62.6715 Q1408.18 62.6715 1404.5 63.6032 Q1400.81 64.535 1397.41 66.3984 L1397.41 59.5118 Q1401.5 57.932 1405.35 57.1623 Q1409.2 56.3521 1412.84 56.3521 Q1422.69 56.3521 1427.55 61.4563 Q1432.41 66.5604 1432.41 76.9307 Z" fill="#000000" fill-rule="nonzero" fill-opacity="1" /><path clip-path="url(#clip540)" d="M1476.68 58.7827 L1476.68 65.8312 Q1473.52 64.2109 1470.12 63.4007 Q1466.72 62.5905 1463.07 62.5905 Q1457.52 62.5905 1454.73 64.2919 Q1451.97 65.9933 1451.97 69.396 Q1451.97 71.9886 1453.96 73.4875 Q1455.94 74.9458 1461.94 76.2826 L1464.49 76.8497 Q1472.43 78.5511 1475.75 81.6703 Q1479.11 84.749 1479.11 90.2987 Q1479.11 96.6181 1474.09 100.304 Q1469.11 103.991 1460.36 103.991 Q1456.71 103.991 1452.74 103.262 Q1448.81 102.573 1444.44 101.155 L1444.44 93.4584 Q1448.57 95.6054 1452.58 96.6991 Q1456.59 97.7524 1460.52 97.7524 Q1465.79 97.7524 1468.62 95.97 Q1471.46 94.1471 1471.46 90.8658 Q1471.46 87.8277 1469.39 86.2073 Q1467.37 84.5869 1460.44 83.0881 L1457.85 82.4805 Q1450.92 81.0221 1447.84 78.0245 Q1444.76 74.9863 1444.76 69.7201 Q1444.76 63.3197 1449.3 59.8359 Q1453.84 56.3521 1462.18 56.3521 Q1466.31 56.3521 1469.96 56.9598 Q1473.61 57.5674 1476.68 58.7827 Z" fill="#000000" fill-rule="nonzero" fill-opacity="1" /><path clip-path="url(#clip540)" d="M1519.91 58.7827 L1519.91 65.8312 Q1516.75 64.2109 1513.34 63.4007 Q1509.94 62.5905 1506.3 62.5905 Q1500.75 62.5905 1497.95 64.2919 Q1495.2 65.9933 1495.2 69.396 Q1495.2 71.9886 1497.18 73.4875 Q1499.17 74.9458 1505.16 76.2826 L1507.71 76.8497 Q1515.65 78.5511 1518.98 81.6703 Q1522.34 84.749 1522.34 90.2987 Q1522.34 96.6181 1517.31 100.304 Q1512.33 103.991 1503.58 103.991 Q1499.94 103.991 1495.97 103.262 Q1492.04 102.573 1487.66 101.155 L1487.66 93.4584 Q1491.79 95.6054 1495.8 96.6991 Q1499.81 97.7524 1503.74 97.7524 Q1509.01 97.7524 1511.85 95.97 Q1514.68 94.1471 1514.68 90.8658 Q1514.68 87.8277 1512.62 86.2073 Q1510.59 84.5869 1503.66 83.0881 L1501.07 82.4805 Q1494.14 81.0221 1491.06 78.0245 Q1487.99 74.9863 1487.99 69.7201 Q1487.99 63.3197 1492.52 59.8359 Q1497.06 56.3521 1505.4 56.3521 Q1509.54 56.3521 1513.18 56.9598 Q1516.83 57.5674 1519.91 58.7827 Z" fill="#000000" fill-rule="nonzero" fill-opacity="1" /><path clip-path="url(#clip540)" d="M1579.13 47.7237 Q1572.81 47.7237 1569.61 53.9621 Q1566.45 60.16 1566.45 72.6368 Q1566.45 85.073 1569.61 91.3114 Q1572.81 97.5093 1579.13 97.5093 Q1585.49 97.5093 1588.65 91.3114 Q1591.85 85.073 1591.85 72.6368 Q1591.85 60.16 1588.65 53.9621 Q1585.49 47.7237 1579.13 47.7237 M1579.13 41.2423 Q1589.3 41.2423 1594.65 49.3036 Q1600.03 57.3243 1600.03 72.6368 Q1600.03 87.9087 1594.65 95.97 Q1589.3 103.991 1579.13 103.991 Q1568.96 103.991 1563.58 95.97 Q1558.23 87.9087 1558.23 72.6368 Q1558.23 57.3243 1563.58 49.3036 Q1568.96 41.2423 1579.13 41.2423 Z" fill="#000000" fill-rule="nonzero" fill-opacity="1" /><path clip-path="url(#clip540)" d="M1615.27 92.5267 L1623.81 92.5267 L1623.81 99.4943 L1617.17 112.457 L1611.94 112.457 L1615.27 99.4943 L1615.27 92.5267 Z" fill="#000000" fill-rule="nonzero" fill-opacity="1" /><path clip-path="url(#clip540)" d="M1667.4 101.56 L1667.4 94.1066 Q1670.48 95.5649 1673.64 96.3346 Q1676.8 97.1042 1679.84 97.1042 Q1687.94 97.1042 1692.19 91.676 Q1696.49 86.2073 1697.09 75.1078 Q1694.74 78.5916 1691.14 80.455 Q1687.53 82.3184 1683.16 82.3184 Q1674.08 82.3184 1668.78 76.8497 Q1663.51 71.3405 1663.51 61.8208 Q1663.51 52.5038 1669.02 46.873 Q1674.53 41.2423 1683.69 41.2423 Q1694.18 41.2423 1699.69 49.3036 Q1705.24 57.3243 1705.24 72.6368 Q1705.24 86.9365 1698.43 95.4839 Q1691.67 103.991 1680.2 103.991 Q1677.12 103.991 1673.96 103.383 Q1670.8 102.775 1667.4 101.56 M1683.69 75.918 Q1689.19 75.918 1692.39 72.1507 Q1695.64 68.3833 1695.64 61.8208 Q1695.64 55.2989 1692.39 51.5316 Q1689.19 47.7237 1683.69 47.7237 Q1678.18 47.7237 1674.94 51.5316 Q1671.74 55.2989 1671.74 61.8208 Q1671.74 68.3833 1674.94 72.1507 Q1678.18 75.918 1683.69 75.918 Z" fill="#000000" fill-rule="nonzero" fill-opacity="1" /><path clip-path="url(#clip540)" d="M1742.42 49.4656 L1721.76 81.7513 L1742.42 81.7513 L1742.42 49.4656 M1740.28 42.336 L1750.57 42.336 L1750.57 81.7513 L1759.19 81.7513 L1759.19 88.5568 L1750.57 88.5568 L1750.57 102.816 L1742.42 102.816 L1742.42 88.5568 L1715.12 88.5568 L1715.12 80.6576 L1740.28 42.336 Z" fill="#000000" fill-rule="nonzero" fill-opacity="1" /><path clip-path="url(#clip540)" d="M1767.9 76.7687 L1789.74 76.7687 L1789.74 83.4122 L1767.9 83.4122 L1767.9 76.7687 Z" fill="#000000" fill-rule="nonzero" fill-opacity="1" /><path clip-path="url(#clip540)" d="M1830.53 58.7827 L1830.53 65.8312 Q1827.37 64.2109 1823.97 63.4007 Q1820.57 62.5905 1816.92 62.5905 Q1811.37 62.5905 1808.57 64.2919 Q1805.82 65.9933 1805.82 69.396 Q1805.82 71.9886 1807.8 73.4875 Q1809.79 74.9458 1815.79 76.2826 L1818.34 76.8497 Q1826.28 78.5511 1829.6 81.6703 Q1832.96 84.749 1832.96 90.2987 Q1832.96 96.6181 1827.94 100.304 Q1822.96 103.991 1814.21 103.991 Q1810.56 103.991 1806.59 103.262 Q1802.66 102.573 1798.29 101.155 L1798.29 93.4584 Q1802.42 95.6054 1806.43 96.6991 Q1810.44 97.7524 1814.37 97.7524 Q1819.63 97.7524 1822.47 95.97 Q1825.3 94.1471 1825.3 90.8658 Q1825.3 87.8277 1823.24 86.2073 Q1821.21 84.5869 1814.29 83.0881 L1811.69 82.4805 Q1804.77 81.0221 1801.69 78.0245 Q1798.61 74.9863 1798.61 69.7201 Q1798.61 63.3197 1803.15 59.8359 Q1807.68 56.3521 1816.03 56.3521 Q1820.16 56.3521 1823.81 56.9598 Q1827.45 57.5674 1830.53 58.7827 Z" fill="#000000" fill-rule="nonzero" fill-opacity="1" /><path clip-path="url(#clip540)" d="M1844.83 57.4459 L1852.28 57.4459 L1852.28 102.816 L1844.83 102.816 L1844.83 57.4459 M1844.83 39.7839 L1852.28 39.7839 L1852.28 49.2225 L1844.83 49.2225 L1844.83 39.7839 Z" fill="#000000" fill-rule="nonzero" fill-opacity="1" /><path clip-path="url(#clip540)" d="M1875.25 44.564 L1875.25 57.4459 L1890.61 57.4459 L1890.61 63.2387 L1875.25 63.2387 L1875.25 87.8682 Q1875.25 93.4179 1876.75 94.9978 Q1878.29 96.5776 1882.95 96.5776 L1890.61 96.5776 L1890.61 102.816 L1882.95 102.816 Q1874.32 102.816 1871.04 99.6158 Q1867.76 96.3751 1867.76 87.8682 L1867.76 63.2387 L1862.29 63.2387 L1862.29 57.4459 L1867.76 57.4459 L1867.76 44.564 L1875.25 44.564 Z" fill="#000000" fill-rule="nonzero" fill-opacity="1" /><path clip-path="url(#clip540)" d="M1939.22 78.2675 L1939.22 81.9133 L1904.95 81.9133 Q1905.43 89.6101 1909.56 93.661 Q1913.74 97.6714 1921.15 97.6714 Q1925.44 97.6714 1929.45 96.6181 Q1933.5 95.5649 1937.47 93.4584 L1937.47 100.507 Q1933.46 102.208 1929.25 103.1 Q1925.04 103.991 1920.7 103.991 Q1909.85 103.991 1903.49 97.6714 Q1897.17 91.3519 1897.17 80.5765 Q1897.17 69.4365 1903.16 62.9146 Q1909.2 56.3521 1919.41 56.3521 Q1928.56 56.3521 1933.87 62.2664 Q1939.22 68.1403 1939.22 78.2675 M1931.76 76.08 Q1931.68 69.9632 1928.32 66.3174 Q1925 62.6715 1919.49 62.6715 Q1913.25 62.6715 1909.48 66.1958 Q1905.76 69.7201 1905.19 76.1205 L1931.76 76.08 Z" fill="#000000" fill-rule="nonzero" fill-opacity="1" /><path clip-path="url(#clip540)" d="M1978.15 42.336 L1986.33 42.336 L1986.33 102.816 L1978.15 102.816 L1978.15 42.336 Z" fill="#000000" fill-rule="nonzero" fill-opacity="1" /><path clip-path="url(#clip540)" d="M2040 75.4319 L2040 102.816 L2032.55 102.816 L2032.55 75.6749 Q2032.55 69.234 2030.04 66.0338 Q2027.53 62.8336 2022.5 62.8336 Q2016.47 62.8336 2012.98 66.6819 Q2009.5 70.5303 2009.5 77.1738 L2009.5 102.816 L2002.01 102.816 L2002.01 57.4459 L2009.5 57.4459 L2009.5 64.4944 Q2012.17 60.403 2015.78 58.3776 Q2019.42 56.3521 2024.16 56.3521 Q2031.98 56.3521 2035.99 61.2132 Q2040 66.0338 2040 75.4319 Z" fill="#000000" fill-rule="nonzero" fill-opacity="1" /><path clip-path="url(#clip540)" d="M2062.24 44.564 L2062.24 57.4459 L2077.6 57.4459 L2077.6 63.2387 L2062.24 63.2387 L2062.24 87.8682 Q2062.24 93.4179 2063.74 94.9978 Q2065.28 96.5776 2069.94 96.5776 L2077.6 96.5776 L2077.6 102.816 L2069.94 102.816 Q2061.31 102.816 2058.03 99.6158 Q2054.75 96.3751 2054.75 87.8682 L2054.75 63.2387 L2049.28 63.2387 L2049.28 57.4459 L2054.75 57.4459 L2054.75 44.564 L2062.24 44.564 Z" fill="#000000" fill-rule="nonzero" fill-opacity="1" /><path clip-path="url(#clip540)" d="M2126.21 78.2675 L2126.21 81.9133 L2091.94 81.9133 Q2092.42 89.6101 2096.55 93.661 Q2100.73 97.6714 2108.14 97.6714 Q2112.43 97.6714 2116.44 96.6181 Q2120.49 95.5649 2124.46 93.4584 L2124.46 100.507 Q2120.45 102.208 2116.24 103.1 Q2112.03 103.991 2107.69 103.991 Q2096.84 103.991 2090.48 97.6714 Q2084.16 91.3519 2084.16 80.5765 Q2084.16 69.4365 2090.15 62.9146 Q2096.19 56.3521 2106.4 56.3521 Q2115.55 56.3521 2120.86 62.2664 Q2126.21 68.1403 2126.21 78.2675 M2118.75 76.08 Q2118.67 69.9632 2115.31 66.3174 Q2111.99 62.6715 2106.48 62.6715 Q2100.24 62.6715 2096.47 66.1958 Q2092.75 69.7201 2092.18 76.1205 L2118.75 76.08 Z" fill="#000000" fill-rule="nonzero" fill-opacity="1" /><path clip-path="url(#clip540)" d="M2164.73 64.4134 Q2163.47 63.6843 2161.98 63.3602 Q2160.52 62.9956 2158.73 62.9956 Q2152.42 62.9956 2149.01 67.1275 Q2145.65 71.2189 2145.65 78.9157 L2145.65 102.816 L2138.16 102.816 L2138.16 57.4459 L2145.65 57.4459 L2145.65 64.4944 Q2148 60.3625 2151.77 58.3776 Q2155.53 56.3521 2160.92 56.3521 Q2161.69 56.3521 2162.62 56.4737 Q2163.56 56.5547 2164.69 56.7572 L2164.73 64.4134 Z" fill="#000000" fill-rule="nonzero" fill-opacity="1" /><path clip-path="url(#clip540)" d="M2179.76 96.0105 L2179.76 120.073 L2172.26 120.073 L2172.26 57.4459 L2179.76 57.4459 L2179.76 64.3324 Q2182.11 60.2815 2185.67 58.3371 Q2189.28 56.3521 2194.26 56.3521 Q2202.52 56.3521 2207.67 62.9146 Q2212.85 69.4771 2212.85 80.1714 Q2212.85 90.8658 2207.67 97.4283 Q2202.52 103.991 2194.26 103.991 Q2189.28 103.991 2185.67 102.046 Q2182.11 100.061 2179.76 96.0105 M2205.12 80.1714 Q2205.12 71.9481 2201.71 67.2896 Q2198.35 62.5905 2192.44 62.5905 Q2186.52 62.5905 2183.12 67.2896 Q2179.76 71.9481 2179.76 80.1714 Q2179.76 88.3948 2183.12 93.0938 Q2186.52 97.7524 2192.44 97.7524 Q2198.35 97.7524 2201.71 93.0938 Q2205.12 88.3948 2205.12 80.1714 Z" fill="#000000" fill-rule="nonzero" fill-opacity="1" /><path clip-path="url(#clip540)" d="M2242.79 62.6715 Q2236.8 62.6715 2233.31 67.3706 Q2229.83 72.0291 2229.83 80.1714 Q2229.83 88.3138 2233.27 93.0128 Q2236.76 97.6714 2242.79 97.6714 Q2248.75 97.6714 2252.23 92.9723 Q2255.71 88.2733 2255.71 80.1714 Q2255.71 72.1101 2252.23 67.4111 Q2248.75 62.6715 2242.79 62.6715 M2242.79 56.3521 Q2252.51 56.3521 2258.06 62.6715 Q2263.61 68.9909 2263.61 80.1714 Q2263.61 91.3114 2258.06 97.6714 Q2252.51 103.991 2242.79 103.991 Q2233.03 103.991 2227.48 97.6714 Q2221.97 91.3114 2221.97 80.1714 Q2221.97 68.9909 2227.48 62.6715 Q2233.03 56.3521 2242.79 56.3521 Z" fill="#000000" fill-rule="nonzero" fill-opacity="1" /><path clip-path="url(#clip540)" d="M2275.97 39.7839 L2283.42 39.7839 L2283.42 102.816 L2275.97 102.816 L2275.97 39.7839 Z" fill="#000000" fill-rule="nonzero" fill-opacity="1" /><path clip-path="url(#clip540)" d="M2319.64 80.0094 Q2310.6 80.0094 2307.12 82.0754 Q2303.64 84.1413 2303.64 89.1239 Q2303.64 93.0938 2306.23 95.4434 Q2308.86 97.7524 2313.36 97.7524 Q2319.56 97.7524 2323.28 93.3774 Q2327.05 88.9619 2327.05 81.6703 L2327.05 80.0094 L2319.64 80.0094 M2334.5 76.9307 L2334.5 102.816 L2327.05 102.816 L2327.05 95.9295 Q2324.5 100.061 2320.69 102.046 Q2316.88 103.991 2311.37 103.991 Q2304.41 103.991 2300.27 100.102 Q2296.18 96.1725 2296.18 89.6101 Q2296.18 81.9538 2301.29 78.065 Q2306.43 74.1761 2316.6 74.1761 L2327.05 74.1761 L2327.05 73.4469 Q2327.05 68.3023 2323.65 65.5072 Q2320.28 62.6715 2314.17 62.6715 Q2310.28 62.6715 2306.59 63.6032 Q2302.91 64.535 2299.5 66.3984 L2299.5 59.5118 Q2303.6 57.932 2307.44 57.1623 Q2311.29 56.3521 2314.94 56.3521 Q2324.78 56.3521 2329.64 61.4563 Q2334.5 66.5604 2334.5 76.9307 Z" fill="#000000" fill-rule="nonzero" fill-opacity="1" /><path clip-path="url(#clip540)" d="M2357.23 44.564 L2357.23 57.4459 L2372.58 57.4459 L2372.58 63.2387 L2357.23 63.2387 L2357.23 87.8682 Q2357.23 93.4179 2358.73 94.9978 Q2360.27 96.5776 2364.93 96.5776 L2372.58 96.5776 L2372.58 102.816 L2364.93 102.816 Q2356.3 102.816 2353.02 99.6158 Q2349.73 96.3751 2349.73 87.8682 L2349.73 63.2387 L2344.27 63.2387 L2344.27 57.4459 L2349.73 57.4459 L2349.73 44.564 L2357.23 44.564 Z" fill="#000000" fill-rule="nonzero" fill-opacity="1" /><path clip-path="url(#clip540)" d="M2382.39 57.4459 L2389.84 57.4459 L2389.84 102.816 L2382.39 102.816 L2382.39 57.4459 M2382.39 39.7839 L2389.84 39.7839 L2389.84 49.2225 L2382.39 49.2225 L2382.39 39.7839 Z" fill="#000000" fill-rule="nonzero" fill-opacity="1" /><path clip-path="url(#clip540)" d="M2423.02 62.6715 Q2417.02 62.6715 2413.54 67.3706 Q2410.05 72.0291 2410.05 80.1714 Q2410.05 88.3138 2413.5 93.0128 Q2416.98 97.6714 2423.02 97.6714 Q2428.97 97.6714 2432.45 92.9723 Q2435.94 88.2733 2435.94 80.1714 Q2435.94 72.1101 2432.45 67.4111 Q2428.97 62.6715 2423.02 62.6715 M2423.02 56.3521 Q2432.74 56.3521 2438.29 62.6715 Q2443.84 68.9909 2443.84 80.1714 Q2443.84 91.3114 2438.29 97.6714 Q2432.74 103.991 2423.02 103.991 Q2413.25 103.991 2407.7 97.6714 Q2402.19 91.3114 2402.19 80.1714 Q2402.19 68.9909 2407.7 62.6715 Q2413.25 56.3521 2423.02 56.3521 Z" fill="#000000" fill-rule="nonzero" fill-opacity="1" /><path clip-path="url(#clip540)" d="M2493.91 75.4319 L2493.91 102.816 L2486.45 102.816 L2486.45 75.6749 Q2486.45 69.234 2483.94 66.0338 Q2481.43 62.8336 2476.41 62.8336 Q2470.37 62.8336 2466.89 66.6819 Q2463.4 70.5303 2463.4 77.1738 L2463.4 102.816 L2455.91 102.816 L2455.91 57.4459 L2463.4 57.4459 L2463.4 64.4944 Q2466.08 60.403 2469.68 58.3776 Q2473.33 56.3521 2478.07 56.3521 Q2485.89 56.3521 2489.9 61.2132 Q2493.91 66.0338 2493.91 75.4319 Z" fill="#000000" fill-rule="nonzero" fill-opacity="1" /><path clip-path="url(#clip540)" d="M2510.68 92.5267 L2519.22 92.5267 L2519.22 99.4943 L2512.58 112.457 L2507.36 112.457 L2510.68 99.4943 L2510.68 92.5267 Z" fill="#000000" fill-rule="nonzero" fill-opacity="1" /><path clip-path="url(#clip540)" d="M889.323 155.052 L889.323 130.504 L896.777 130.504 L896.777 193.536 L889.323 193.536 L889.323 186.73 Q886.974 190.781 883.368 192.766 Q879.803 194.711 874.78 194.711 Q866.557 194.711 861.372 188.148 Q856.227 181.586 856.227 170.891 Q856.227 160.197 861.372 153.635 Q866.557 147.072 874.78 147.072 Q879.803 147.072 883.368 149.057 Q886.974 151.002 889.323 155.052 M863.924 170.891 Q863.924 179.115 867.286 183.814 Q870.689 188.472 876.603 188.472 Q882.518 188.472 885.92 183.814 Q889.323 179.115 889.323 170.891 Q889.323 162.668 885.92 158.01 Q882.518 153.311 876.603 153.311 Q870.689 153.311 867.286 158.01 Q863.924 162.668 863.924 170.891 Z" fill="#000000" fill-rule="nonzero" fill-opacity="1" /><path clip-path="url(#clip540)" d="M939.473 155.863 L991.406 155.863 L991.406 162.668 L939.473 162.668 L939.473 155.863 M939.473 172.39 L991.406 172.39 L991.406 179.277 L939.473 179.277 L939.473 172.39 Z" fill="#000000" fill-rule="nonzero" fill-opacity="1" /><path clip-path="url(#clip540)" d="M1036.86 186.649 L1050.23 186.649 L1050.23 140.51 L1035.68 143.426 L1035.68 135.973 L1050.14 133.056 L1058.33 133.056 L1058.33 186.649 L1071.69 186.649 L1071.69 193.536 L1036.86 193.536 L1036.86 186.649 Z" fill="#000000" fill-rule="nonzero" fill-opacity="1" /><path clip-path="url(#clip540)" d="M1095.27 186.649 L1123.83 186.649 L1123.83 193.536 L1085.43 193.536 L1085.43 186.649 Q1090.09 181.829 1098.11 173.727 Q1106.17 165.585 1108.23 163.235 Q1112.16 158.82 1113.7 155.782 Q1115.28 152.703 1115.28 149.746 Q1115.28 144.925 1111.88 141.887 Q1108.52 138.849 1103.09 138.849 Q1099.24 138.849 1094.95 140.186 Q1090.69 141.522 1085.83 144.236 L1085.83 135.973 Q1090.77 133.988 1095.07 132.975 Q1099.36 131.962 1102.93 131.962 Q1112.33 131.962 1117.92 136.661 Q1123.51 141.36 1123.51 149.219 Q1123.51 152.946 1122.09 156.308 Q1120.71 159.63 1117.02 164.167 Q1116.01 165.342 1110.58 170.972 Q1105.16 176.563 1095.27 186.649 Z" fill="#000000" fill-rule="nonzero" fill-opacity="1" /><path clip-path="url(#clip540)" d="M1141.86 183.247 L1150.4 183.247 L1150.4 190.214 L1143.76 203.177 L1138.53 203.177 L1141.86 190.214 L1141.86 183.247 Z" fill="#000000" fill-rule="nonzero" fill-opacity="1" /><path clip-path="url(#clip540)" d="M1214.53 203.663 L1208.49 188.148 L1196.06 210.833 L1187.27 210.833 L1204.85 178.75 L1197.48 159.67 Q1195.49 154.566 1189.25 154.566 L1187.27 154.566 L1187.27 148.166 L1190.1 148.247 Q1200.55 148.53 1203.19 155.295 L1209.18 170.81 L1221.62 148.125 L1230.41 148.125 L1212.83 180.209 L1220.2 199.288 Q1222.19 204.392 1228.42 204.392 L1230.41 204.392 L1230.41 210.793 L1227.57 210.712 Q1217.12 210.428 1214.53 203.663 Z" fill="#000000" fill-rule="nonzero" fill-opacity="1" /><path clip-path="url(#clip540)" d="M1267.96 155.863 L1319.89 155.863 L1319.89 162.668 L1267.96 162.668 L1267.96 155.863 M1267.96 172.39 L1319.89 172.39 L1319.89 179.277 L1267.96 179.277 L1267.96 172.39 Z" fill="#000000" fill-rule="nonzero" fill-opacity="1" /><path clip-path="url(#clip540)" d="M1388.72 160.926 Q1394.59 162.182 1397.87 166.152 Q1401.2 170.122 1401.2 175.955 Q1401.2 184.908 1395.04 189.809 Q1388.88 194.711 1377.54 194.711 Q1373.73 194.711 1369.68 193.941 Q1365.67 193.212 1361.37 191.713 L1361.37 183.814 Q1364.78 185.799 1368.83 186.811 Q1372.88 187.824 1377.3 187.824 Q1384.99 187.824 1389 184.786 Q1393.05 181.748 1393.05 175.955 Q1393.05 170.608 1389.29 167.61 Q1385.56 164.572 1378.87 164.572 L1371.83 164.572 L1371.83 157.848 L1379.2 157.848 Q1385.23 157.848 1388.44 155.458 Q1391.64 153.027 1391.64 148.49 Q1391.64 143.831 1388.31 141.36 Q1385.03 138.849 1378.87 138.849 Q1375.51 138.849 1371.66 139.578 Q1367.82 140.307 1363.2 141.846 L1363.2 134.555 Q1367.86 133.259 1371.91 132.61 Q1376 131.962 1379.6 131.962 Q1388.92 131.962 1394.35 136.216 Q1399.78 140.429 1399.78 147.639 Q1399.78 152.662 1396.9 156.146 Q1394.03 159.589 1388.72 160.926 Z" fill="#000000" fill-rule="nonzero" fill-opacity="1" /><path clip-path="url(#clip540)" d="M1434.21 138.444 Q1427.89 138.444 1424.69 144.682 Q1421.53 150.88 1421.53 163.357 Q1421.53 175.793 1424.69 182.031 Q1427.89 188.229 1434.21 188.229 Q1440.57 188.229 1443.73 182.031 Q1446.93 175.793 1446.93 163.357 Q1446.93 150.88 1443.73 144.682 Q1440.57 138.444 1434.21 138.444 M1434.21 131.962 Q1444.38 131.962 1449.73 140.024 Q1455.11 148.044 1455.11 163.357 Q1455.11 178.629 1449.73 186.69 Q1444.38 194.711 1434.21 194.711 Q1424.04 194.711 1418.65 186.69 Q1413.31 178.629 1413.31 163.357 Q1413.31 148.044 1418.65 140.024 Q1424.04 131.962 1434.21 131.962 Z" fill="#000000" fill-rule="nonzero" fill-opacity="1" /><path clip-path="url(#clip540)" d="M1470.34 183.247 L1478.89 183.247 L1478.89 190.214 L1472.25 203.177 L1467.02 203.177 L1470.34 190.214 L1470.34 183.247 Z" fill="#000000" fill-rule="nonzero" fill-opacity="1" /><path clip-path="url(#clip540)" d="M1521.51 133.056 L1529.69 133.056 L1529.69 186.649 L1559.14 186.649 L1559.14 193.536 L1521.51 193.536 L1521.51 133.056 Z" fill="#000000" fill-rule="nonzero" fill-opacity="1" /><path clip-path="url(#clip540)" d="M1604.75 168.988 L1604.75 172.633 L1570.48 172.633 Q1570.97 180.33 1575.1 184.381 Q1579.27 188.391 1586.69 188.391 Q1590.98 188.391 1594.99 187.338 Q1599.04 186.285 1603.01 184.178 L1603.01 191.227 Q1599 192.928 1594.79 193.82 Q1590.58 194.711 1586.24 194.711 Q1575.38 194.711 1569.02 188.391 Q1562.7 182.072 1562.7 171.297 Q1562.7 160.157 1568.7 153.635 Q1574.74 147.072 1584.94 147.072 Q1594.1 147.072 1599.41 152.986 Q1604.75 158.86 1604.75 168.988 M1597.3 166.8 Q1597.22 160.683 1593.86 157.037 Q1590.53 153.392 1585.03 153.392 Q1578.79 153.392 1575.02 156.916 Q1571.29 160.44 1570.73 166.841 L1597.3 166.8 Z" fill="#000000" fill-rule="nonzero" fill-opacity="1" /><path clip-path="url(#clip540)" d="M1646.84 170.324 Q1646.84 162.223 1643.48 157.767 Q1640.16 153.311 1634.12 153.311 Q1628.13 153.311 1624.76 157.767 Q1621.44 162.223 1621.44 170.324 Q1621.44 178.386 1624.76 182.842 Q1628.13 187.298 1634.12 187.298 Q1640.16 187.298 1643.48 182.842 Q1646.84 178.386 1646.84 170.324 M1654.3 187.905 Q1654.3 199.491 1649.15 205.122 Q1644.01 210.793 1633.39 210.793 Q1629.46 210.793 1625.98 210.185 Q1622.5 209.618 1619.22 208.403 L1619.22 201.152 Q1622.5 202.934 1625.7 203.785 Q1628.9 204.635 1632.22 204.635 Q1639.55 204.635 1643.2 200.787 Q1646.84 196.979 1646.84 189.242 L1646.84 185.556 Q1644.53 189.566 1640.93 191.551 Q1637.32 193.536 1632.3 193.536 Q1623.95 193.536 1618.85 187.176 Q1613.75 180.816 1613.75 170.324 Q1613.75 159.792 1618.85 153.432 Q1623.95 147.072 1632.3 147.072 Q1637.32 147.072 1640.93 149.057 Q1644.53 151.042 1646.84 155.052 L1646.84 148.166 L1654.3 148.166 L1654.3 187.905 Z" fill="#000000" fill-rule="nonzero" fill-opacity="1" /><path clip-path="url(#clip540)" d="M1708.46 168.988 L1708.46 172.633 L1674.19 172.633 Q1674.67 180.33 1678.8 184.381 Q1682.98 188.391 1690.39 188.391 Q1694.68 188.391 1698.69 187.338 Q1702.74 186.285 1706.71 184.178 L1706.71 191.227 Q1702.7 192.928 1698.49 193.82 Q1694.28 194.711 1689.94 194.711 Q1679.09 194.711 1672.73 188.391 Q1666.41 182.072 1666.41 171.297 Q1666.41 160.157 1672.4 153.635 Q1678.44 147.072 1688.65 147.072 Q1697.8 147.072 1703.11 152.986 Q1708.46 158.86 1708.46 168.988 M1701 166.8 Q1700.92 160.683 1697.56 157.037 Q1694.24 153.392 1688.73 153.392 Q1682.49 153.392 1678.72 156.916 Q1675 160.44 1674.43 166.841 L1701 166.8 Z" fill="#000000" fill-rule="nonzero" fill-opacity="1" /><path clip-path="url(#clip540)" d="M1758.4 166.152 L1758.4 193.536 L1750.95 193.536 L1750.95 166.395 Q1750.95 159.954 1748.44 156.754 Q1745.93 153.554 1740.9 153.554 Q1734.87 153.554 1731.38 157.402 Q1727.9 161.25 1727.9 167.894 L1727.9 193.536 L1720.41 193.536 L1720.41 148.166 L1727.9 148.166 L1727.9 155.214 Q1730.57 151.123 1734.18 149.098 Q1737.83 147.072 1742.57 147.072 Q1750.38 147.072 1754.39 151.933 Q1758.4 156.754 1758.4 166.152 Z" fill="#000000" fill-rule="nonzero" fill-opacity="1" /><path clip-path="url(#clip540)" d="M1803.13 155.052 L1803.13 130.504 L1810.58 130.504 L1810.58 193.536 L1803.13 193.536 L1803.13 186.73 Q1800.78 190.781 1797.17 192.766 Q1793.61 194.711 1788.58 194.711 Q1780.36 194.711 1775.17 188.148 Q1770.03 181.586 1770.03 170.891 Q1770.03 160.197 1775.17 153.635 Q1780.36 147.072 1788.58 147.072 Q1793.61 147.072 1797.17 149.057 Q1800.78 151.002 1803.13 155.052 M1777.73 170.891 Q1777.73 179.115 1781.09 183.814 Q1784.49 188.472 1790.41 188.472 Q1796.32 188.472 1799.72 183.814 Q1803.13 179.115 1803.13 170.891 Q1803.13 162.668 1799.72 158.01 Q1796.32 153.311 1790.41 153.311 Q1784.49 153.311 1781.09 158.01 Q1777.73 162.668 1777.73 170.891 Z" fill="#000000" fill-rule="nonzero" fill-opacity="1" /><path clip-path="url(#clip540)" d="M1852.22 155.133 Q1850.97 154.404 1849.47 154.08 Q1848.01 153.716 1846.23 153.716 Q1839.91 153.716 1836.51 157.848 Q1833.14 161.939 1833.14 169.636 L1833.14 193.536 L1825.65 193.536 L1825.65 148.166 L1833.14 148.166 L1833.14 155.214 Q1835.49 151.083 1839.26 149.098 Q1843.03 147.072 1848.42 147.072 Q1849.18 147.072 1850.12 147.194 Q1851.05 147.275 1852.18 147.477 L1852.22 155.133 Z" fill="#000000" fill-rule="nonzero" fill-opacity="1" /><path clip-path="url(#clip540)" d="M1897.03 168.988 L1897.03 172.633 L1862.76 172.633 Q1863.24 180.33 1867.37 184.381 Q1871.55 188.391 1878.96 188.391 Q1883.25 188.391 1887.26 187.338 Q1891.31 186.285 1895.28 184.178 L1895.28 191.227 Q1891.27 192.928 1887.06 193.82 Q1882.85 194.711 1878.51 194.711 Q1867.66 194.711 1861.3 188.391 Q1854.98 182.072 1854.98 171.297 Q1854.98 160.157 1860.97 153.635 Q1867.01 147.072 1877.22 147.072 Q1886.37 147.072 1891.68 152.986 Q1897.03 158.86 1897.03 168.988 M1889.57 166.8 Q1889.49 160.683 1886.13 157.037 Q1882.81 153.392 1877.3 153.392 Q1871.06 153.392 1867.29 156.916 Q1863.57 160.44 1863 166.841 L1889.57 166.8 Z" fill="#000000" fill-rule="nonzero" fill-opacity="1" /><path clip-path="url(#clip540)" d="M1943.73 207.309 L1943.73 213.102 L1900.63 213.102 L1900.63 207.309 L1943.73 207.309 Z" fill="#000000" fill-rule="nonzero" fill-opacity="1" /><path clip-path="url(#clip540)" d="M1951.07 133.056 L1962.08 133.056 L1988.9 183.652 L1988.9 133.056 L1996.84 133.056 L1996.84 193.536 L1985.82 193.536 L1959 142.94 L1959 193.536 L1951.07 193.536 L1951.07 133.056 Z" fill="#000000" fill-rule="nonzero" fill-opacity="1" /><path clip-path="url(#clip540)" d="M2030.38 153.392 Q2024.39 153.392 2020.9 158.091 Q2017.42 162.749 2017.42 170.891 Q2017.42 179.034 2020.86 183.733 Q2024.35 188.391 2030.38 188.391 Q2036.34 188.391 2039.82 183.692 Q2043.3 178.993 2043.3 170.891 Q2043.3 162.83 2039.82 158.131 Q2036.34 153.392 2030.38 153.392 M2030.38 147.072 Q2040.1 147.072 2045.65 153.392 Q2051.2 159.711 2051.2 170.891 Q2051.2 182.031 2045.65 188.391 Q2040.1 194.711 2030.38 194.711 Q2020.62 194.711 2015.07 188.391 Q2009.56 182.031 2009.56 170.891 Q2009.56 159.711 2015.07 153.392 Q2020.62 147.072 2030.38 147.072 Z" fill="#000000" fill-rule="nonzero" fill-opacity="1" /><path clip-path="url(#clip540)" d="M2098.03 207.309 L2098.03 213.102 L2054.93 213.102 L2054.93 207.309 L2098.03 207.309 Z" fill="#000000" fill-rule="nonzero" fill-opacity="1" /><path clip-path="url(#clip540)" d="M2105.36 133.056 L2116.38 133.056 L2143.2 183.652 L2143.2 133.056 L2151.14 133.056 L2151.14 193.536 L2140.12 193.536 L2113.3 142.94 L2113.3 193.536 L2105.36 193.536 L2105.36 133.056 Z" fill="#000000" fill-rule="nonzero" fill-opacity="1" /><path clip-path="url(#clip540)" d="M2184.68 153.392 Q2178.69 153.392 2175.2 158.091 Q2171.72 162.749 2171.72 170.891 Q2171.72 179.034 2175.16 183.733 Q2178.64 188.391 2184.68 188.391 Q2190.64 188.391 2194.12 183.692 Q2197.6 178.993 2197.6 170.891 Q2197.6 162.83 2194.12 158.131 Q2190.64 153.392 2184.68 153.392 M2184.68 147.072 Q2194.4 147.072 2199.95 153.392 Q2205.5 159.711 2205.5 170.891 Q2205.5 182.031 2199.95 188.391 Q2194.4 194.711 2184.68 194.711 Q2174.92 194.711 2169.37 188.391 Q2163.86 182.031 2163.86 170.891 Q2163.86 159.711 2169.37 153.392 Q2174.92 147.072 2184.68 147.072 Z" fill="#000000" fill-rule="nonzero" fill-opacity="1" /><path clip-path="url(#clip540)" d="M2244.15 155.133 Q2242.89 154.404 2241.39 154.08 Q2239.94 153.716 2238.15 153.716 Q2231.83 153.716 2228.43 157.848 Q2225.07 161.939 2225.07 169.636 L2225.07 193.536 L2217.57 193.536 L2217.57 148.166 L2225.07 148.166 L2225.07 155.214 Q2227.42 151.083 2231.19 149.098 Q2234.95 147.072 2240.34 147.072 Q2241.11 147.072 2242.04 147.194 Q2242.97 147.275 2244.11 147.477 L2244.15 155.133 Z" fill="#000000" fill-rule="nonzero" fill-opacity="1" /><path clip-path="url(#clip540)" d="M2285.83 156.875 Q2288.63 151.852 2292.52 149.462 Q2296.4 147.072 2301.67 147.072 Q2308.76 147.072 2312.61 152.055 Q2316.46 156.997 2316.46 166.152 L2316.46 193.536 L2308.96 193.536 L2308.96 166.395 Q2308.96 159.873 2306.65 156.713 Q2304.34 153.554 2299.6 153.554 Q2293.81 153.554 2290.45 157.402 Q2287.09 161.25 2287.09 167.894 L2287.09 193.536 L2279.59 193.536 L2279.59 166.395 Q2279.59 159.832 2277.28 156.713 Q2274.98 153.554 2270.15 153.554 Q2264.44 153.554 2261.08 157.442 Q2257.72 161.291 2257.72 167.894 L2257.72 193.536 L2250.22 193.536 L2250.22 148.166 L2257.72 148.166 L2257.72 155.214 Q2260.27 151.042 2263.84 149.057 Q2267.4 147.072 2272.3 147.072 Q2277.24 147.072 2280.69 149.584 Q2284.17 152.095 2285.83 156.875 Z" fill="#000000" fill-rule="nonzero" fill-opacity="1" /><path clip-path="url(#clip540)" d="M2396.5 168.988 L2396.5 172.633 L2362.23 172.633 Q2362.72 180.33 2366.85 184.381 Q2371.02 188.391 2378.44 188.391 Q2382.73 188.391 2386.74 187.338 Q2390.79 186.285 2394.76 184.178 L2394.76 191.227 Q2390.75 192.928 2386.54 193.82 Q2382.32 194.711 2377.99 194.711 Q2367.13 194.711 2360.77 188.391 Q2354.45 182.072 2354.45 171.297 Q2354.45 160.157 2360.45 153.635 Q2366.49 147.072 2376.69 147.072 Q2385.85 147.072 2391.16 152.986 Q2396.5 158.86 2396.5 168.988 M2389.05 166.8 Q2388.97 160.683 2385.61 157.037 Q2382.28 153.392 2376.77 153.392 Q2370.54 153.392 2366.77 156.916 Q2363.04 160.44 2362.47 166.841 L2389.05 166.8 Z" fill="#000000" fill-rule="nonzero" fill-opacity="1" /><path clip-path="url(#clip540)" d="M2446.45 166.152 L2446.45 193.536 L2439 193.536 L2439 166.395 Q2439 159.954 2436.48 156.754 Q2433.97 153.554 2428.95 153.554 Q2422.91 153.554 2419.43 157.402 Q2415.95 161.25 2415.95 167.894 L2415.95 193.536 L2408.45 193.536 L2408.45 148.166 L2415.95 148.166 L2415.95 155.214 Q2418.62 151.123 2422.23 149.098 Q2425.87 147.072 2430.61 147.072 Q2438.43 147.072 2442.44 151.933 Q2446.45 156.754 2446.45 166.152 Z" fill="#000000" fill-rule="nonzero" fill-opacity="1" /><path clip-path="url(#clip540)" d="M2493.97 149.908 L2493.97 156.875 Q2490.81 155.133 2487.61 154.283 Q2484.45 153.392 2481.21 153.392 Q2473.96 153.392 2469.95 158.01 Q2465.94 162.587 2465.94 170.891 Q2465.94 179.196 2469.95 183.814 Q2473.96 188.391 2481.21 188.391 Q2484.45 188.391 2487.61 187.541 Q2490.81 186.649 2493.97 184.908 L2493.97 191.794 Q2490.85 193.252 2487.49 193.982 Q2484.16 194.711 2480.4 194.711 Q2470.15 194.711 2464.11 188.27 Q2458.08 181.829 2458.08 170.891 Q2458.08 159.792 2464.15 153.432 Q2470.27 147.072 2480.88 147.072 Q2484.33 147.072 2487.61 147.801 Q2490.89 148.49 2493.97 149.908 Z" fill="#000000" fill-rule="nonzero" fill-opacity="1" /><path clip-path="url(#clip540)" d="M2524.51 153.392 Q2518.52 153.392 2515.03 158.091 Q2511.55 162.749 2511.55 170.891 Q2511.55 179.034 2514.99 183.733 Q2518.48 188.391 2524.51 188.391 Q2530.47 188.391 2533.95 183.692 Q2537.43 178.993 2537.43 170.891 Q2537.43 162.83 2533.95 158.131 Q2530.47 153.392 2524.51 153.392 M2524.51 147.072 Q2534.23 147.072 2539.78 153.392 Q2545.33 159.711 2545.33 170.891 Q2545.33 182.031 2539.78 188.391 Q2534.23 194.711 2524.51 194.711 Q2514.75 194.711 2509.2 188.391 Q2503.69 182.031 2503.69 170.891 Q2503.69 159.711 2509.2 153.392 Q2514.75 147.072 2524.51 147.072 Z" fill="#000000" fill-rule="nonzero" fill-opacity="1" /><path clip-path="url(#clip540)" d="M2587.54 155.052 L2587.54 130.504 L2595 130.504 L2595 193.536 L2587.54 193.536 L2587.54 186.73 Q2585.19 190.781 2581.59 192.766 Q2578.02 194.711 2573 194.711 Q2564.78 194.711 2559.59 188.148 Q2554.45 181.586 2554.45 170.891 Q2554.45 160.197 2559.59 153.635 Q2564.78 147.072 2573 147.072 Q2578.02 147.072 2581.59 149.057 Q2585.19 151.002 2587.54 155.052 M2562.14 170.891 Q2562.14 179.115 2565.51 183.814 Q2568.91 188.472 2574.82 188.472 Q2580.74 188.472 2584.14 183.814 Q2587.54 179.115 2587.54 170.891 Q2587.54 162.668 2584.14 158.01 Q2580.74 153.311 2574.82 153.311 Q2568.91 153.311 2565.51 158.01 Q2562.14 162.668 2562.14 170.891 Z" fill="#000000" fill-rule="nonzero" fill-opacity="1" /><path clip-path="url(#clip540)" d="M2610.35 148.166 L2617.8 148.166 L2617.8 193.536 L2610.35 193.536 L2610.35 148.166 M2610.35 130.504 L2617.8 130.504 L2617.8 139.943 L2610.35 139.943 L2610.35 130.504 Z" fill="#000000" fill-rule="nonzero" fill-opacity="1" /><path clip-path="url(#clip540)" d="M2671.11 166.152 L2671.11 193.536 L2663.66 193.536 L2663.66 166.395 Q2663.66 159.954 2661.15 156.754 Q2658.64 153.554 2653.61 153.554 Q2647.58 153.554 2644.09 157.402 Q2640.61 161.25 2640.61 167.894 L2640.61 193.536 L2633.12 193.536 L2633.12 148.166 L2640.61 148.166 L2640.61 155.214 Q2643.28 151.123 2646.89 149.098 Q2650.53 147.072 2655.27 147.072 Q2663.09 147.072 2667.1 151.933 Q2671.11 156.754 2671.11 166.152 Z" fill="#000000" fill-rule="nonzero" fill-opacity="1" /><path clip-path="url(#clip540)" d="M2715.84 170.324 Q2715.84 162.223 2712.47 157.767 Q2709.15 153.311 2703.12 153.311 Q2697.12 153.311 2693.76 157.767 Q2690.44 162.223 2690.44 170.324 Q2690.44 178.386 2693.76 182.842 Q2697.12 187.298 2703.12 187.298 Q2709.15 187.298 2712.47 182.842 Q2715.84 178.386 2715.84 170.324 M2723.29 187.905 Q2723.29 199.491 2718.14 205.122 Q2713 210.793 2702.39 210.793 Q2698.46 210.793 2694.97 210.185 Q2691.49 209.618 2688.21 208.403 L2688.21 201.152 Q2691.49 202.934 2694.69 203.785 Q2697.89 204.635 2701.21 204.635 Q2708.54 204.635 2712.19 200.787 Q2715.84 196.979 2715.84 189.242 L2715.84 185.556 Q2713.53 189.566 2709.92 191.551 Q2706.32 193.536 2701.29 193.536 Q2692.95 193.536 2687.84 187.176 Q2682.74 180.816 2682.74 170.324 Q2682.74 159.792 2687.84 153.432 Q2692.95 147.072 2701.29 147.072 Q2706.32 147.072 2709.92 149.057 Q2713.53 151.042 2715.84 155.052 L2715.84 148.166 L2723.29 148.166 L2723.29 187.905 Z" fill="#000000" fill-rule="nonzero" fill-opacity="1" /><path clip-path="url(#clip540)" d="M2740.55 183.247 L2749.09 183.247 L2749.09 190.214 L2742.45 203.177 L2737.22 203.177 L2740.55 190.214 L2740.55 183.247 Z" fill="#000000" fill-rule="nonzero" fill-opacity="1" /><path clip-path="url(#clip540)" d="M1274.65 223.776 L1286.84 223.776 L1302.27 264.933 L1317.79 223.776 L1329.98 223.776 L1329.98 284.256 L1322 284.256 L1322 231.149 L1306.4 272.63 L1298.18 272.63 L1282.58 231.149 L1282.58 284.256 L1274.65 284.256 L1274.65 223.776 Z" fill="#000000" fill-rule="nonzero" fill-opacity="1" /><path clip-path="url(#clip540)" d="M1384.71 259.708 L1384.71 263.353 L1350.44 263.353 Q1350.92 271.05 1355.06 275.101 Q1359.23 279.111 1366.64 279.111 Q1370.94 279.111 1374.95 278.058 Q1379 277.005 1382.97 274.898 L1382.97 281.947 Q1378.96 283.648 1374.74 284.54 Q1370.53 285.431 1366.2 285.431 Q1355.34 285.431 1348.98 279.111 Q1342.66 272.792 1342.66 262.017 Q1342.66 250.877 1348.66 244.355 Q1354.69 237.792 1364.9 237.792 Q1374.05 237.792 1379.36 243.706 Q1384.71 249.58 1384.71 259.708 M1377.25 257.52 Q1377.17 251.403 1373.81 247.757 Q1370.49 244.112 1364.98 244.112 Q1358.74 244.112 1354.97 247.636 Q1351.25 251.16 1350.68 257.561 L1377.25 257.52 Z" fill="#000000" fill-rule="nonzero" fill-opacity="1" /><path clip-path="url(#clip540)" d="M1426.8 245.772 L1426.8 221.224 L1434.25 221.224 L1434.25 284.256 L1426.8 284.256 L1426.8 277.45 Q1424.45 281.501 1420.84 283.486 Q1417.28 285.431 1412.25 285.431 Q1404.03 285.431 1398.85 278.868 Q1393.7 272.306 1393.7 261.611 Q1393.7 250.917 1398.85 244.355 Q1404.03 237.792 1412.25 237.792 Q1417.28 237.792 1420.84 239.777 Q1424.45 241.722 1426.8 245.772 M1401.4 261.611 Q1401.4 269.835 1404.76 274.534 Q1408.16 279.192 1414.08 279.192 Q1419.99 279.192 1423.39 274.534 Q1426.8 269.835 1426.8 261.611 Q1426.8 253.388 1423.39 248.73 Q1419.99 244.031 1414.08 244.031 Q1408.16 244.031 1404.76 248.73 Q1401.4 253.388 1401.4 261.611 Z" fill="#000000" fill-rule="nonzero" fill-opacity="1" /><path clip-path="url(#clip540)" d="M1449.6 238.886 L1457.06 238.886 L1457.06 284.256 L1449.6 284.256 L1449.6 238.886 M1449.6 221.224 L1457.06 221.224 L1457.06 230.663 L1449.6 230.663 L1449.6 221.224 Z" fill="#000000" fill-rule="nonzero" fill-opacity="1" /><path clip-path="url(#clip540)" d="M1493.27 261.449 Q1484.24 261.449 1480.76 263.515 Q1477.27 265.581 1477.27 270.564 Q1477.27 274.534 1479.86 276.883 Q1482.5 279.192 1486.99 279.192 Q1493.19 279.192 1496.92 274.817 Q1500.69 270.402 1500.69 263.11 L1500.69 261.449 L1493.27 261.449 M1508.14 258.371 L1508.14 284.256 L1500.69 284.256 L1500.69 277.369 Q1498.13 281.501 1494.33 283.486 Q1490.52 285.431 1485.01 285.431 Q1478.04 285.431 1473.91 281.542 Q1469.82 277.613 1469.82 271.05 Q1469.82 263.394 1474.92 259.505 Q1480.07 255.616 1490.23 255.616 L1500.69 255.616 L1500.69 254.887 Q1500.69 249.742 1497.28 246.947 Q1493.92 244.112 1487.8 244.112 Q1483.91 244.112 1480.23 245.043 Q1476.54 245.975 1473.14 247.838 L1473.14 240.952 Q1477.23 239.372 1481.08 238.602 Q1484.93 237.792 1488.57 237.792 Q1498.42 237.792 1503.28 242.896 Q1508.14 248 1508.14 258.371 Z" fill="#000000" fill-rule="nonzero" fill-opacity="1" /><path clip-path="url(#clip540)" d="M1561.21 256.872 L1561.21 284.256 L1553.75 284.256 L1553.75 257.115 Q1553.75 250.674 1551.24 247.474 Q1548.73 244.274 1543.71 244.274 Q1537.67 244.274 1534.19 248.122 Q1530.7 251.97 1530.7 258.614 L1530.7 284.256 L1523.21 284.256 L1523.21 238.886 L1530.7 238.886 L1530.7 245.934 Q1533.38 241.843 1536.98 239.818 Q1540.63 237.792 1545.37 237.792 Q1553.19 237.792 1557.2 242.653 Q1561.21 247.474 1561.21 256.872 Z" fill="#000000" fill-rule="nonzero" fill-opacity="1" /><path clip-path="url(#clip540)" d="M1577.98 273.967 L1586.52 273.967 L1586.52 280.934 L1579.88 293.897 L1574.66 293.897 L1577.98 280.934 L1577.98 273.967 Z" fill="#000000" fill-rule="nonzero" fill-opacity="1" /><path clip-path="url(#clip540)" d="M1659.16 232.242 L1659.16 254.806 L1681.72 254.806 L1681.72 261.692 L1659.16 261.692 L1659.16 284.256 L1652.35 284.256 L1652.35 261.692 L1629.79 261.692 L1629.79 254.806 L1652.35 254.806 L1652.35 232.242 L1659.16 232.242 Z" fill="#000000" fill-rule="nonzero" fill-opacity="1" /><path clip-path="url(#clip540)" d="M1711.58 223.776 L1718.46 223.776 L1697.4 291.953 L1690.51 291.953 L1711.58 223.776 Z" fill="#000000" fill-rule="nonzero" fill-opacity="1" /><path clip-path="url(#clip540)" d="M1722.51 258.209 L1744.35 258.209 L1744.35 264.852 L1722.51 264.852 L1722.51 258.209 Z" fill="#000000" fill-rule="nonzero" fill-opacity="1" /><path clip-path="url(#clip540)" d="M1777.52 223.776 L1785.79 223.776 L1798.51 274.898 L1811.19 223.776 L1820.38 223.776 L1833.1 274.898 L1845.78 223.776 L1854.09 223.776 L1838.9 284.256 L1828.61 284.256 L1815.85 231.756 L1802.96 284.256 L1792.67 284.256 L1777.52 223.776 Z" fill="#000000" fill-rule="nonzero" fill-opacity="1" /><path clip-path="url(#clip540)" d="M1864.94 223.776 L1877.14 223.776 L1892.57 264.933 L1908.09 223.776 L1920.28 223.776 L1920.28 284.256 L1912.3 284.256 L1912.3 231.149 L1896.7 272.63 L1888.48 272.63 L1872.88 231.149 L1872.88 284.256 L1864.94 284.256 L1864.94 223.776 Z" fill="#000000" fill-rule="nonzero" fill-opacity="1" /><path clip-path="url(#clip540)" d="M1956.74 231.837 L1945.64 261.936 L1967.88 261.936 L1956.74 231.837 M1952.12 223.776 L1961.39 223.776 L1984.44 284.256 L1975.94 284.256 L1970.43 268.741 L1943.17 268.741 L1937.66 284.256 L1929.03 284.256 L1952.12 223.776 Z" fill="#000000" fill-rule="nonzero" fill-opacity="1" /><path clip-path="url(#clip540)" d="M2001.46 230.501 L2001.46 277.531 L2011.34 277.531 Q2023.86 277.531 2029.65 271.86 Q2035.49 266.189 2035.49 253.955 Q2035.49 241.803 2029.65 236.172 Q2023.86 230.501 2011.34 230.501 L2001.46 230.501 M1993.28 223.776 L2010.09 223.776 Q2027.67 223.776 2035.89 231.108 Q2044.11 238.4 2044.11 253.955 Q2044.11 269.592 2035.85 276.924 Q2027.59 284.256 2010.09 284.256 L1993.28 284.256 L1993.28 223.776 Z" fill="#000000" fill-rule="nonzero" fill-opacity="1" /><polyline clip-path="url(#clip542)" style="stroke:#000000; stroke-linecap:round; stroke-linejoin:round; stroke-width:8; stroke-opacity:1; fill:none" stroke-dasharray="4, 8" points="334.635,1627.23 361.397,1465.18 388.16,1438.19 "/>
<polyline clip-path="url(#clip542)" style="stroke:#000000; stroke-linecap:round; stroke-linejoin:round; stroke-width:8; stroke-opacity:1; fill:none" stroke-dasharray="4, 8" points="2930.6,916.5 2957.36,853.57 2984.12,836.842 "/>
<polyline clip-path="url(#clip542)" style="stroke:#000000; stroke-linecap:round; stroke-linejoin:round; stroke-width:8; stroke-opacity:0.3; fill:none" points="414.922,1252.87 441.685,1108.67 468.447,1228.5 495.21,1183.06 521.972,1124.43 548.735,1265.48 575.497,1179.05 602.26,1287.26 629.022,1315.76 655.785,1450.76 682.547,1574.74 709.31,1719.26 736.073,1548.88 762.835,1658.15 789.598,1721.25 816.36,1580.6 843.123,1536.16 869.885,1447.7 896.648,1262.98 923.41,1190.78 950.173,1089.09 976.935,1042.75 1003.7,943.558 1030.46,936.255 1057.22,816.352 1083.99,971.748 1110.75,993.024 1137.51,1089.51 1164.27,1152.46 1191.04,1351.19 1217.8,1488.14 1244.56,1389.8 1271.32,1516.19 1298.09,1500.79 1324.85,1370.02 1351.61,1348.7 1378.37,1234.11 1405.14,1333.76 1431.9,1117.17 1458.66,1022.35 1485.42,977.643 1512.19,864.9 1538.95,861.573 1565.71,794.895 1592.47,722.066 1619.24,832.122 1646,941.134 1672.76,958.903 1699.52,959.473 1726.29,1160.15 1753.05,1277.5 1779.81,1214.56 1806.57,1232.73 1833.34,1313.73 1860.1,1314.17 1886.86,1269.6 1913.62,1212.42 1940.39,1081.39 1967.15,953.711 1993.91,800.179 2020.67,734.961 2047.44,654.974 2074.2,697.44 2100.96,421.972 2127.72,575.161 2154.49,540.545 2181.25,599.02 2208.01,753.917 2234.77,949.41 2261.54,940.545 2288.3,1039.87 2315.06,1060.59 2341.82,1046.85 2368.59,1065.88 2395.35,1073.58 2422.11,981.081 2448.87,924.134 2475.64,788.576 2502.4,891.63 2529.16,632.002 2555.92,664.132 2582.69,478.362 2609.45,442.876 2636.21,304.565 2662.97,421.08 2689.74,440.433 2716.5,447.286 2743.26,520.424 2770.02,663.75 2796.79,809.914 2823.55,808.239 2850.31,806.338 2877.07,971.383 2903.84,911.192 "/>
<path clip-path="url(#clip542)" d="M414.922 1409.28 L441.685 1318.21 L468.447 1250.13 L495.21 1210.26 L521.972 1209.64 L548.735 1217.53 L575.497 1243.22 L602.26 1335.54 L629.022 1399.54 L655.785 1462.17 L682.547 1581.61 L709.31 1622.81 L736.073 1672.14 L762.835 1703.63 L789.598 1691.13 L816.36 1652.93 L843.123 1624.69 L869.885 1550.46 L896.648 1462.87 L923.41 1334.8 L950.173 1245.09 L976.935 1154.76 L1003.7 1092.96 L1030.46 1003.91 L1057.22 987.983 L1083.99 1030.9 L1110.75 1076.98 L1137.51 1115.36 L1164.27 1193.98 L1191.04 1282.09 L1217.8 1370.26 L1244.56 1422.69 L1271.32 1474.71 L1298.09 1516.14 L1324.85 1504.81 L1351.61 1520.55 L1378.37 1466.57 L1405.14 1383.11 L1431.9 1238.31 L1458.66 1196.23 L1485.42 1085.91 L1512.19 990.078 L1538.95 911.854 L1565.71 904.214 L1592.47 834.652 L1619.24 855.352 L1646 876.125 L1672.76 932.072 L1699.52 1015.81 L1726.29 1104.42 L1753.05 1188.3 L1779.81 1260.13 L1806.57 1303.92 L1833.34 1342.4 L1860.1 1367.94 L1886.86 1308.68 L1913.62 1235.81 L1940.39 1192.48 L1967.15 1011.65 L1993.91 962.196 L2020.67 869.339 L2047.44 755.59 L2074.2 674.083 L2100.96 678.502 L2127.72 644.409 L2154.49 647.251 L2181.25 696.229 L2208.01 772.634 L2234.77 877.14 L2261.54 922.642 L2288.3 1007.38 L2315.06 1103.95 L2341.82 1161.41 L2368.59 1181.56 L2395.35 1157.79 L2422.11 1141.77 L2448.87 1049.35 L2475.64 974.548 L2502.4 916.775 L2529.16 760.042 L2555.92 671.056 L2582.69 569.679 L2609.45 531.57 L2636.21 478.933 L2662.97 459.415 L2689.74 457.282 L2716.5 498.608 L2743.26 571.183 L2770.02 727.942 L2796.79 725.928 L2823.55 872.171 L2850.31 948.158 L2877.07 974.529 L2903.84 975.846 L2903.84 845.836 L2877.07 845.254 L2850.31 819.494 L2823.55 738.007 L2796.79 603.175 L2770.02 596.773 L2743.26 444.829 L2716.5 391.112 L2689.74 349.873 L2662.97 352.374 L2636.21 374.253 L2609.45 409.462 L2582.69 446.736 L2555.92 549.525 L2529.16 630.933 L2502.4 779.68 L2475.64 836.385 L2448.87 906.565 L2422.11 1007.19 L2395.35 1025.5 L2368.59 1047.83 L2341.82 1028.3 L2315.06 965.29 L2288.3 869.192 L2261.54 788.417 L2234.77 739.455 L2208.01 642.976 L2181.25 575.562 L2154.49 524.192 L2127.72 520.918 L2100.96 558.77 L2074.2 549.606 L2047.44 629.342 L2020.67 731.601 L1993.91 814.405 L1967.15 875.962 L1940.39 1062.92 L1913.62 1097.38 L1886.86 1170.83 L1860.1 1230.54 L1833.34 1206.73 L1806.57 1164.1 L1779.81 1123.78 L1753.05 1042.09 L1726.29 960.522 L1699.52 877.102 L1672.76 796.643 L1646 740.729 L1619.24 719.789 L1592.47 699.336 L1565.71 768.556 L1538.95 777.133 L1512.19 850.396 L1485.42 939.173 L1458.66 1062.66 L1431.9 1100.04 L1405.14 1255.38 L1378.37 1346.49 L1351.61 1396.45 L1324.85 1381.59 L1298.09 1392.58 L1271.32 1353.11 L1244.56 1302.08 L1217.8 1234.3 L1191.04 1144.25 L1164.27 1059.57 L1137.51 969.183 L1110.75 935.027 L1083.99 893.966 L1057.22 856.002 L1030.46 870.103 L1003.7 953.794 L976.935 1019.7 L950.173 1113.75 L923.41 1198.77 L896.648 1337.03 L869.885 1424.43 L843.123 1521.17 L816.36 1549.39 L789.598 1587.41 L762.835 1596.38 L736.073 1564.58 L709.31 1507.32 L682.547 1452.42 L655.785 1334.74 L629.022 1247.27 L602.26 1183.39 L575.497 1109.58 L548.735 1078.21 L521.972 1074.78 L495.21 1081.71 L468.447 1116.33 L441.685 1176.75 L414.922 1273.65  Z" fill="#ff0000" fill-rule="evenodd" fill-opacity="0.15"/>
<polyline clip-path="url(#clip542)" style="stroke:#ff0000; stroke-linecap:round; stroke-linejoin:round; stroke-width:8; stroke-opacity:0.8; fill:none" points="414.922,1341.47 441.685,1247.48 468.447,1183.23 495.21,1145.99 521.972,1142.21 548.735,1147.87 575.497,1176.4 602.26,1259.47 629.022,1323.4 655.785,1398.46 682.547,1517.01 709.31,1565.07 736.073,1618.36 762.835,1650 789.598,1639.27 816.36,1601.16 843.123,1572.93 869.885,1487.44 896.648,1399.95 923.41,1266.79 950.173,1179.42 976.935,1087.23 1003.7,1023.38 1030.46,937.007 1057.22,921.992 1083.99,962.433 1110.75,1006 1137.51,1042.27 1164.27,1126.78 1191.04,1213.17 1217.8,1302.28 1244.56,1362.38 1271.32,1413.91 1298.09,1454.36 1324.85,1443.2 1351.61,1458.5 1378.37,1406.53 1405.14,1319.24 1431.9,1169.17 1458.66,1129.45 1485.42,1012.54 1512.19,920.237 1538.95,844.493 1565.71,836.385 1592.47,766.994 1619.24,787.57 1646,808.427 1672.76,864.357 1699.52,946.454 1726.29,1032.47 1753.05,1115.19 1779.81,1191.95 1806.57,1234.01 1833.34,1274.57 1860.1,1299.24 1886.86,1239.75 1913.62,1166.59 1940.39,1127.7 1967.15,943.806 1993.91,888.301 2020.67,800.47 2047.44,692.466 2074.2,611.845 2100.96,618.636 2127.72,582.664 2154.49,585.721 2181.25,635.896 2208.01,707.805 2234.77,808.298 2261.54,855.53 2288.3,938.288 2315.06,1034.62 2341.82,1094.85 2368.59,1114.7 2395.35,1091.65 2422.11,1074.48 2448.87,977.958 2475.64,905.467 2502.4,848.227 2529.16,695.488 2555.92,610.29 2582.69,508.208 2609.45,470.516 2636.21,426.593 2662.97,405.895 2689.74,403.578 2716.5,444.86 2743.26,508.006 2770.02,662.357 2796.79,664.551 2823.55,805.089 2850.31,883.826 2877.07,909.891 2903.84,910.841 "/>
<path clip-path="url(#clip540)" d="M3186.86 519.48 L3952.76 519.48 L3952.76 312.12 L3186.86 312.12  Z" fill="#ffffff" fill-rule="evenodd" fill-opacity="1"/>
<polyline clip-path="url(#clip540)" style="stroke:#000000; stroke-linecap:round; stroke-linejoin:round; stroke-width:4; stroke-opacity:1; fill:none" points="3186.86,519.48 3952.76,519.48 3952.76,312.12 3186.86,312.12 3186.86,519.48 "/>
<polyline clip-path="url(#clip540)" style="stroke:#000000; stroke-linecap:round; stroke-linejoin:round; stroke-width:8; stroke-opacity:1; fill:none" stroke-dasharray="4, 8" points="3227.95,363.96 3474.45,363.96 "/>
<path clip-path="url(#clip540)" d="M3531.56 349.852 Q3526.47 349.852 3523.46 353.648 Q3520.47 357.444 3520.47 363.995 Q3520.47 370.523 3523.46 374.319 Q3526.47 378.115 3531.56 378.115 Q3536.65 378.115 3539.61 374.319 Q3542.6 370.523 3542.6 363.995 Q3542.6 357.444 3539.61 353.648 Q3536.65 349.852 3531.56 349.852 M3531.56 346.055 Q3538.83 346.055 3543.18 350.94 Q3547.53 355.801 3547.53 363.995 Q3547.53 372.166 3543.18 377.051 Q3538.83 381.912 3531.56 381.912 Q3524.27 381.912 3519.89 377.051 Q3515.54 372.189 3515.54 363.995 Q3515.54 355.801 3519.89 350.94 Q3524.27 346.055 3531.56 346.055 Z" fill="#000000" fill-rule="nonzero" fill-opacity="1" /><path clip-path="url(#clip540)" d="M3573.27 368.301 Q3573.27 363.602 3571.33 360.94 Q3569.4 358.254 3566.03 358.254 Q3562.65 358.254 3560.7 360.94 Q3558.78 363.602 3558.78 368.301 Q3558.78 373 3560.7 375.685 Q3562.65 378.347 3566.03 378.347 Q3569.4 378.347 3571.33 375.685 Q3573.27 373 3573.27 368.301 M3558.78 359.25 Q3560.12 356.935 3562.16 355.824 Q3564.22 354.69 3567.07 354.69 Q3571.79 354.69 3574.73 358.44 Q3577.69 362.19 3577.69 368.301 Q3577.69 374.412 3574.73 378.162 Q3571.79 381.912 3567.07 381.912 Q3564.22 381.912 3562.16 380.801 Q3560.12 379.666 3558.78 377.351 L3558.78 381.24 L3554.5 381.24 L3554.5 345.222 L3558.78 345.222 L3558.78 359.25 Z" fill="#000000" fill-rule="nonzero" fill-opacity="1" /><path clip-path="url(#clip540)" d="M3601.28 356.078 L3601.28 360.106 Q3599.47 359.18 3597.53 358.717 Q3595.59 358.254 3593.5 358.254 Q3590.33 358.254 3588.73 359.227 Q3587.16 360.199 3587.16 362.143 Q3587.16 363.625 3588.29 364.481 Q3589.43 365.315 3592.85 366.078 L3594.31 366.402 Q3598.85 367.375 3600.75 369.157 Q3602.67 370.916 3602.67 374.088 Q3602.67 377.699 3599.8 379.805 Q3596.95 381.912 3591.95 381.912 Q3589.87 381.912 3587.6 381.495 Q3585.35 381.101 3582.85 380.291 L3582.85 375.893 Q3585.21 377.12 3587.51 377.745 Q3589.8 378.347 3592.04 378.347 Q3595.05 378.347 3596.67 377.328 Q3598.29 376.287 3598.29 374.412 Q3598.29 372.676 3597.11 371.75 Q3595.96 370.824 3592 369.967 L3590.52 369.62 Q3586.56 368.787 3584.8 367.074 Q3583.04 365.338 3583.04 362.328 Q3583.04 358.671 3585.63 356.68 Q3588.22 354.69 3592.99 354.69 Q3595.35 354.69 3597.44 355.037 Q3599.52 355.384 3601.28 356.078 Z" fill="#000000" fill-rule="nonzero" fill-opacity="1" /><path clip-path="url(#clip540)" d="M3631.63 367.213 L3631.63 369.296 L3612.04 369.296 Q3612.32 373.694 3614.68 376.009 Q3617.07 378.301 3621.3 378.301 Q3623.76 378.301 3626.05 377.699 Q3628.36 377.097 3630.63 375.893 L3630.63 379.921 Q3628.34 380.893 3625.93 381.402 Q3623.52 381.912 3621.05 381.912 Q3614.84 381.912 3611.21 378.301 Q3607.6 374.689 3607.6 368.532 Q3607.6 362.166 3611.02 358.44 Q3614.47 354.69 3620.31 354.69 Q3625.54 354.69 3628.57 358.069 Q3631.63 361.426 3631.63 367.213 M3627.37 365.963 Q3627.32 362.467 3625.4 360.384 Q3623.5 358.301 3620.35 358.301 Q3616.79 358.301 3614.64 360.315 Q3612.51 362.328 3612.18 365.986 L3627.37 365.963 Z" fill="#000000" fill-rule="nonzero" fill-opacity="1" /><path clip-path="url(#clip540)" d="M3653.64 359.296 Q3652.92 358.879 3652.07 358.694 Q3651.23 358.486 3650.21 358.486 Q3646.6 358.486 3644.66 360.847 Q3642.74 363.185 3642.74 367.583 L3642.74 381.24 L3638.46 381.24 L3638.46 355.315 L3642.74 355.315 L3642.74 359.342 Q3644.08 356.981 3646.23 355.847 Q3648.39 354.69 3651.46 354.69 Q3651.9 354.69 3652.44 354.759 Q3652.97 354.805 3653.62 354.921 L3653.64 359.296 Z" fill="#000000" fill-rule="nonzero" fill-opacity="1" /><path clip-path="url(#clip540)" d="M3655.05 355.315 L3659.57 355.315 L3667.67 377.074 L3675.77 355.315 L3680.28 355.315 L3670.56 381.24 L3664.77 381.24 L3655.05 355.315 Z" fill="#000000" fill-rule="nonzero" fill-opacity="1" /><path clip-path="url(#clip540)" d="M3708.34 367.213 L3708.34 369.296 L3688.76 369.296 Q3689.03 373.694 3691.39 376.009 Q3693.78 378.301 3698.02 378.301 Q3700.47 378.301 3702.76 377.699 Q3705.08 377.097 3707.34 375.893 L3707.34 379.921 Q3705.05 380.893 3702.64 381.402 Q3700.24 381.912 3697.76 381.912 Q3691.56 381.912 3687.92 378.301 Q3684.31 374.689 3684.31 368.532 Q3684.31 362.166 3687.74 358.44 Q3691.19 354.69 3697.02 354.69 Q3702.25 354.69 3705.28 358.069 Q3708.34 361.426 3708.34 367.213 M3704.08 365.963 Q3704.03 362.467 3702.11 360.384 Q3700.21 358.301 3697.07 358.301 Q3693.5 358.301 3691.35 360.315 Q3689.22 362.328 3688.89 365.986 L3704.08 365.963 Z" fill="#000000" fill-rule="nonzero" fill-opacity="1" /><path clip-path="url(#clip540)" d="M3732.39 359.25 L3732.39 345.222 L3736.65 345.222 L3736.65 381.24 L3732.39 381.24 L3732.39 377.351 Q3731.05 379.666 3728.99 380.801 Q3726.95 381.912 3724.08 381.912 Q3719.38 381.912 3716.42 378.162 Q3713.48 374.412 3713.48 368.301 Q3713.48 362.19 3716.42 358.44 Q3719.38 354.69 3724.08 354.69 Q3726.95 354.69 3728.99 355.824 Q3731.05 356.935 3732.39 359.25 M3717.88 368.301 Q3717.88 373 3719.8 375.685 Q3721.74 378.347 3725.12 378.347 Q3728.5 378.347 3730.45 375.685 Q3732.39 373 3732.39 368.301 Q3732.39 363.602 3730.45 360.94 Q3728.5 358.254 3725.12 358.254 Q3721.74 358.254 3719.8 360.94 Q3717.88 363.602 3717.88 368.301 Z" fill="#000000" fill-rule="nonzero" fill-opacity="1" /><polyline clip-path="url(#clip540)" style="stroke:#000000; stroke-linecap:round; stroke-linejoin:round; stroke-width:8; stroke-opacity:0.3; fill:none" points="3227.95,415.8 3474.45,415.8 "/>
<path clip-path="url(#clip540)" d="M3541.09 428.15 L3541.09 418.867 L3533.46 418.867 L3533.46 415.025 L3545.72 415.025 L3545.72 429.863 Q3543.02 431.784 3539.75 432.779 Q3536.49 433.752 3532.78 433.752 Q3524.68 433.752 3520.1 429.029 Q3515.54 424.284 3515.54 415.835 Q3515.54 407.363 3520.1 402.641 Q3524.68 397.895 3532.78 397.895 Q3536.16 397.895 3539.2 398.729 Q3542.25 399.562 3544.82 401.182 L3544.82 406.159 Q3542.23 403.96 3539.31 402.849 Q3536.4 401.738 3533.18 401.738 Q3526.84 401.738 3523.64 405.28 Q3520.47 408.821 3520.47 415.835 Q3520.47 422.826 3523.64 426.367 Q3526.84 429.909 3533.18 429.909 Q3535.65 429.909 3537.6 429.492 Q3539.54 429.053 3541.09 428.15 Z" fill="#000000" fill-rule="nonzero" fill-opacity="1" /><path clip-path="url(#clip540)" d="M3569.1 411.136 Q3568.39 410.719 3567.53 410.534 Q3566.7 410.326 3565.68 410.326 Q3562.07 410.326 3560.12 412.687 Q3558.2 415.025 3558.2 419.423 L3558.2 433.08 L3553.92 433.08 L3553.92 407.155 L3558.2 407.155 L3558.2 411.182 Q3559.54 408.821 3561.7 407.687 Q3563.85 406.53 3566.93 406.53 Q3567.37 406.53 3567.9 406.599 Q3568.43 406.645 3569.08 406.761 L3569.1 411.136 Z" fill="#000000" fill-rule="nonzero" fill-opacity="1" /><path clip-path="url(#clip540)" d="M3582.58 410.141 Q3579.15 410.141 3577.16 412.826 Q3575.17 415.488 3575.17 420.141 Q3575.17 424.793 3577.14 427.479 Q3579.13 430.141 3582.58 430.141 Q3585.98 430.141 3587.97 427.455 Q3589.96 424.77 3589.96 420.141 Q3589.96 415.534 3587.97 412.849 Q3585.98 410.141 3582.58 410.141 M3582.58 406.53 Q3588.13 406.53 3591.3 410.141 Q3594.47 413.752 3594.47 420.141 Q3594.47 426.506 3591.3 430.141 Q3588.13 433.752 3582.58 433.752 Q3577 433.752 3573.83 430.141 Q3570.68 426.506 3570.68 420.141 Q3570.68 413.752 3573.83 410.141 Q3577 406.53 3582.58 406.53 Z" fill="#000000" fill-rule="nonzero" fill-opacity="1" /><path clip-path="url(#clip540)" d="M3601.09 422.849 L3601.09 407.155 L3605.35 407.155 L3605.35 422.687 Q3605.35 426.367 3606.79 428.219 Q3608.22 430.048 3611.09 430.048 Q3614.54 430.048 3616.53 427.849 Q3618.55 425.65 3618.55 421.854 L3618.55 407.155 L3622.81 407.155 L3622.81 433.08 L3618.55 433.08 L3618.55 429.099 Q3617 431.46 3614.94 432.617 Q3612.9 433.752 3610.19 433.752 Q3605.72 433.752 3603.41 430.974 Q3601.09 428.196 3601.09 422.849 M3611.81 406.53 L3611.81 406.53 Z" fill="#000000" fill-rule="nonzero" fill-opacity="1" /><path clip-path="url(#clip540)" d="M3653.13 417.432 L3653.13 433.08 L3648.87 433.08 L3648.87 417.571 Q3648.87 413.891 3647.44 412.062 Q3646 410.233 3643.13 410.233 Q3639.68 410.233 3637.69 412.432 Q3635.7 414.631 3635.7 418.428 L3635.7 433.08 L3631.42 433.08 L3631.42 407.155 L3635.7 407.155 L3635.7 411.182 Q3637.23 408.844 3639.29 407.687 Q3641.37 406.53 3644.08 406.53 Q3648.55 406.53 3650.84 409.307 Q3653.13 412.062 3653.13 417.432 Z" fill="#000000" fill-rule="nonzero" fill-opacity="1" /><path clip-path="url(#clip540)" d="M3678.69 411.09 L3678.69 397.062 L3682.95 397.062 L3682.95 433.08 L3678.69 433.08 L3678.69 429.191 Q3677.34 431.506 3675.28 432.641 Q3673.25 433.752 3670.38 433.752 Q3665.68 433.752 3662.71 430.002 Q3659.77 426.252 3659.77 420.141 Q3659.77 414.03 3662.71 410.28 Q3665.68 406.53 3670.38 406.53 Q3673.25 406.53 3675.28 407.664 Q3677.34 408.775 3678.69 411.09 M3664.17 420.141 Q3664.17 424.84 3666.09 427.525 Q3668.04 430.187 3671.42 430.187 Q3674.8 430.187 3676.74 427.525 Q3678.69 424.84 3678.69 420.141 Q3678.69 415.442 3676.74 412.78 Q3674.8 410.094 3671.42 410.094 Q3668.04 410.094 3666.09 412.78 Q3664.17 415.442 3664.17 420.141 Z" fill="#000000" fill-rule="nonzero" fill-opacity="1" /><path clip-path="url(#clip540)" d="M3711 399.794 L3711 407.155 L3719.77 407.155 L3719.77 410.465 L3711 410.465 L3711 424.539 Q3711 427.71 3711.86 428.613 Q3712.74 429.516 3715.4 429.516 L3719.77 429.516 L3719.77 433.08 L3715.4 433.08 Q3710.47 433.08 3708.59 431.252 Q3706.72 429.4 3706.72 424.539 L3706.72 410.465 L3703.59 410.465 L3703.59 407.155 L3706.72 407.155 L3706.72 399.794 L3711 399.794 Z" fill="#000000" fill-rule="nonzero" fill-opacity="1" /><path clip-path="url(#clip540)" d="M3740.4 411.136 Q3739.68 410.719 3738.83 410.534 Q3737.99 410.326 3736.97 410.326 Q3733.36 410.326 3731.42 412.687 Q3729.5 415.025 3729.5 419.423 L3729.5 433.08 L3725.21 433.08 L3725.21 407.155 L3729.5 407.155 L3729.5 411.182 Q3730.84 408.821 3732.99 407.687 Q3735.14 406.53 3738.22 406.53 Q3738.66 406.53 3739.2 406.599 Q3739.73 406.645 3740.38 406.761 L3740.4 411.136 Z" fill="#000000" fill-rule="nonzero" fill-opacity="1" /><path clip-path="url(#clip540)" d="M3744.43 422.849 L3744.43 407.155 L3748.69 407.155 L3748.69 422.687 Q3748.69 426.367 3750.12 428.219 Q3751.56 430.048 3754.43 430.048 Q3757.88 430.048 3759.87 427.849 Q3761.88 425.65 3761.88 421.854 L3761.88 407.155 L3766.14 407.155 L3766.14 433.08 L3761.88 433.08 L3761.88 429.099 Q3760.33 431.46 3758.27 432.617 Q3756.23 433.752 3753.52 433.752 Q3749.06 433.752 3746.74 430.974 Q3744.43 428.196 3744.43 422.849 M3755.14 406.53 L3755.14 406.53 Z" fill="#000000" fill-rule="nonzero" fill-opacity="1" /><path clip-path="url(#clip540)" d="M3779.13 399.794 L3779.13 407.155 L3787.9 407.155 L3787.9 410.465 L3779.13 410.465 L3779.13 424.539 Q3779.13 427.71 3779.98 428.613 Q3780.86 429.516 3783.52 429.516 L3787.9 429.516 L3787.9 433.08 L3783.52 433.08 Q3778.59 433.08 3776.72 431.252 Q3774.84 429.4 3774.84 424.539 L3774.84 410.465 L3771.72 410.465 L3771.72 407.155 L3774.84 407.155 L3774.84 399.794 L3779.13 399.794 Z" fill="#000000" fill-rule="nonzero" fill-opacity="1" /><path clip-path="url(#clip540)" d="M3815.05 417.432 L3815.05 433.08 L3810.79 433.08 L3810.79 417.571 Q3810.79 413.891 3809.36 412.062 Q3807.92 410.233 3805.05 410.233 Q3801.6 410.233 3799.61 412.432 Q3797.62 414.631 3797.62 418.428 L3797.62 433.08 L3793.34 433.08 L3793.34 397.062 L3797.62 397.062 L3797.62 411.182 Q3799.15 408.844 3801.21 407.687 Q3803.29 406.53 3806 406.53 Q3810.47 406.53 3812.76 409.307 Q3815.05 412.062 3815.05 417.432 Z" fill="#000000" fill-rule="nonzero" fill-opacity="1" /><polyline clip-path="url(#clip540)" style="stroke:#ff0000; stroke-linecap:round; stroke-linejoin:round; stroke-width:8; stroke-opacity:0.8; fill:none" points="3227.95,467.64 3474.45,467.64 "/>
<path clip-path="url(#clip540)" d="M3515.54 450.36 L3522.51 450.36 L3531.33 473.879 L3540.19 450.36 L3547.16 450.36 L3547.16 484.92 L3542.6 484.92 L3542.6 454.573 L3533.69 478.277 L3528.99 478.277 L3520.08 454.573 L3520.08 484.92 L3515.54 484.92 L3515.54 450.36 Z" fill="#000000" fill-rule="nonzero" fill-opacity="1" /><path clip-path="url(#clip540)" d="M3561.12 454.203 L3561.12 467.189 L3567 467.189 Q3570.26 467.189 3572.04 465.499 Q3573.83 463.809 3573.83 460.684 Q3573.83 457.583 3572.04 455.893 Q3570.26 454.203 3567 454.203 L3561.12 454.203 M3556.44 450.36 L3567 450.36 Q3572.81 450.36 3575.77 452.999 Q3578.76 455.615 3578.76 460.684 Q3578.76 465.8 3575.77 468.416 Q3572.81 471.032 3567 471.032 L3561.12 471.032 L3561.12 484.92 L3556.44 484.92 L3556.44 450.36 Z" fill="#000000" fill-rule="nonzero" fill-opacity="1" /><path clip-path="url(#clip540)" d="M3605.75 451.495 L3605.75 456.055 Q3603.09 454.782 3600.72 454.157 Q3598.36 453.532 3596.16 453.532 Q3592.34 453.532 3590.26 455.013 Q3588.2 456.495 3588.2 459.226 Q3588.2 461.518 3589.57 462.698 Q3590.96 463.856 3594.8 464.573 L3597.62 465.152 Q3602.85 466.147 3605.33 468.67 Q3607.83 471.17 3607.83 475.383 Q3607.83 480.407 3604.45 482.999 Q3601.09 485.592 3594.59 485.592 Q3592.14 485.592 3589.36 485.036 Q3586.6 484.481 3583.64 483.393 L3583.64 478.578 Q3586.49 480.175 3589.22 480.985 Q3591.95 481.795 3594.59 481.795 Q3598.59 481.795 3600.77 480.221 Q3602.95 478.647 3602.95 475.731 Q3602.95 473.184 3601.37 471.749 Q3599.82 470.314 3596.26 469.596 L3593.41 469.041 Q3588.18 467.999 3585.84 465.777 Q3583.5 463.555 3583.5 459.596 Q3583.5 455.013 3586.72 452.374 Q3589.96 449.735 3595.63 449.735 Q3598.06 449.735 3600.59 450.175 Q3603.11 450.615 3605.75 451.495 Z" fill="#000000" fill-rule="nonzero" fill-opacity="1" /><path clip-path="url(#clip540)" d="M3630.19 450.36 L3634.87 450.36 L3634.87 484.92 L3630.19 484.92 L3630.19 450.36 Z" fill="#000000" fill-rule="nonzero" fill-opacity="1" /><path clip-path="url(#clip540)" d="M3665.54 469.272 L3665.54 484.92 L3661.28 484.92 L3661.28 469.411 Q3661.28 465.731 3659.84 463.902 Q3658.41 462.073 3655.54 462.073 Q3652.09 462.073 3650.1 464.272 Q3648.11 466.471 3648.11 470.268 L3648.11 484.92 L3643.83 484.92 L3643.83 458.995 L3648.11 458.995 L3648.11 463.022 Q3649.64 460.684 3651.7 459.527 Q3653.78 458.37 3656.49 458.37 Q3660.96 458.37 3663.25 461.147 Q3665.54 463.902 3665.54 469.272 Z" fill="#000000" fill-rule="nonzero" fill-opacity="1" /><path clip-path="url(#clip540)" d="M3678.25 451.634 L3678.25 458.995 L3687.02 458.995 L3687.02 462.305 L3678.25 462.305 L3678.25 476.379 Q3678.25 479.55 3679.1 480.453 Q3679.98 481.356 3682.64 481.356 L3687.02 481.356 L3687.02 484.92 L3682.64 484.92 Q3677.71 484.92 3675.84 483.092 Q3673.96 481.24 3673.96 476.379 L3673.96 462.305 L3670.84 462.305 L3670.84 458.995 L3673.96 458.995 L3673.96 451.634 L3678.25 451.634 Z" fill="#000000" fill-rule="nonzero" fill-opacity="1" /><path clip-path="url(#clip540)" d="M3714.8 470.893 L3714.8 472.976 L3695.21 472.976 Q3695.49 477.374 3697.85 479.689 Q3700.24 481.981 3704.47 481.981 Q3706.93 481.981 3709.22 481.379 Q3711.53 480.777 3713.8 479.573 L3713.8 483.601 Q3711.51 484.573 3709.1 485.082 Q3706.7 485.592 3704.22 485.592 Q3698.02 485.592 3694.38 481.981 Q3690.77 478.369 3690.77 472.212 Q3690.77 465.846 3694.2 462.12 Q3697.64 458.37 3703.48 458.37 Q3708.71 458.37 3711.74 461.749 Q3714.8 465.106 3714.8 470.893 M3710.54 469.643 Q3710.49 466.147 3708.57 464.064 Q3706.67 461.981 3703.52 461.981 Q3699.96 461.981 3697.81 463.995 Q3695.68 466.008 3695.35 469.666 L3710.54 469.643 Z" fill="#000000" fill-rule="nonzero" fill-opacity="1" /><path clip-path="url(#clip540)" d="M3736.81 462.976 Q3736.09 462.559 3735.24 462.374 Q3734.4 462.166 3733.39 462.166 Q3729.77 462.166 3727.83 464.527 Q3725.91 466.865 3725.91 471.263 L3725.91 484.92 L3721.63 484.92 L3721.63 458.995 L3725.91 458.995 L3725.91 463.022 Q3727.25 460.661 3729.4 459.527 Q3731.56 458.37 3734.64 458.37 Q3735.08 458.37 3735.61 458.439 Q3736.14 458.485 3736.79 458.601 L3736.81 462.976 Z" fill="#000000" fill-rule="nonzero" fill-opacity="1" /><path clip-path="url(#clip540)" d="M3745.4 481.031 L3745.4 494.781 L3741.12 494.781 L3741.12 458.995 L3745.4 458.995 L3745.4 462.93 Q3746.74 460.615 3748.78 459.504 Q3750.84 458.37 3753.69 458.37 Q3758.41 458.37 3761.35 462.12 Q3764.31 465.87 3764.31 471.981 Q3764.31 478.092 3761.35 481.842 Q3758.41 485.592 3753.69 485.592 Q3750.84 485.592 3748.78 484.481 Q3746.74 483.346 3745.4 481.031 M3759.89 471.981 Q3759.89 467.282 3757.95 464.62 Q3756.02 461.934 3752.64 461.934 Q3749.26 461.934 3747.32 464.62 Q3745.4 467.282 3745.4 471.981 Q3745.4 476.68 3747.32 479.365 Q3749.26 482.027 3752.64 482.027 Q3756.02 482.027 3757.95 479.365 Q3759.89 476.68 3759.89 471.981 Z" fill="#000000" fill-rule="nonzero" fill-opacity="1" /><path clip-path="url(#clip540)" d="M3781.42 461.981 Q3777.99 461.981 3776 464.666 Q3774.01 467.328 3774.01 471.981 Q3774.01 476.633 3775.98 479.319 Q3777.97 481.981 3781.42 481.981 Q3784.82 481.981 3786.81 479.295 Q3788.8 476.61 3788.8 471.981 Q3788.8 467.374 3786.81 464.689 Q3784.82 461.981 3781.42 461.981 M3781.42 458.37 Q3786.97 458.37 3790.14 461.981 Q3793.32 465.592 3793.32 471.981 Q3793.32 478.346 3790.14 481.981 Q3786.97 485.592 3781.42 485.592 Q3775.84 485.592 3772.67 481.981 Q3769.52 478.346 3769.52 471.981 Q3769.52 465.592 3772.67 461.981 Q3775.84 458.37 3781.42 458.37 Z" fill="#000000" fill-rule="nonzero" fill-opacity="1" /><path clip-path="url(#clip540)" d="M3800.38 448.902 L3804.63 448.902 L3804.63 484.92 L3800.38 484.92 L3800.38 448.902 Z" fill="#000000" fill-rule="nonzero" fill-opacity="1" /><path clip-path="url(#clip540)" d="M3825.33 471.888 Q3820.17 471.888 3818.18 473.069 Q3816.19 474.249 3816.19 477.096 Q3816.19 479.365 3817.67 480.707 Q3819.17 482.027 3821.74 482.027 Q3825.28 482.027 3827.41 479.527 Q3829.57 477.004 3829.57 472.837 L3829.57 471.888 L3825.33 471.888 M3833.82 470.129 L3833.82 484.92 L3829.57 484.92 L3829.57 480.985 Q3828.11 483.346 3825.93 484.481 Q3823.76 485.592 3820.61 485.592 Q3816.63 485.592 3814.26 483.369 Q3811.93 481.124 3811.93 477.374 Q3811.93 472.999 3814.84 470.777 Q3817.78 468.555 3823.59 468.555 L3829.57 468.555 L3829.57 468.138 Q3829.57 465.198 3827.62 463.601 Q3825.7 461.981 3822.2 461.981 Q3819.98 461.981 3817.88 462.513 Q3815.77 463.045 3813.82 464.11 L3813.82 460.175 Q3816.16 459.272 3818.36 458.833 Q3820.56 458.37 3822.64 458.37 Q3828.27 458.37 3831.05 461.286 Q3833.82 464.203 3833.82 470.129 Z" fill="#000000" fill-rule="nonzero" fill-opacity="1" /><path clip-path="url(#clip540)" d="M3846.81 451.634 L3846.81 458.995 L3855.58 458.995 L3855.58 462.305 L3846.81 462.305 L3846.81 476.379 Q3846.81 479.55 3847.67 480.453 Q3848.55 481.356 3851.21 481.356 L3855.58 481.356 L3855.58 484.92 L3851.21 484.92 Q3846.28 484.92 3844.4 483.092 Q3842.53 481.24 3842.53 476.379 L3842.53 462.305 L3839.4 462.305 L3839.4 458.995 L3842.53 458.995 L3842.53 451.634 L3846.81 451.634 Z" fill="#000000" fill-rule="nonzero" fill-opacity="1" /><path clip-path="url(#clip540)" d="M3883.36 470.893 L3883.36 472.976 L3863.78 472.976 Q3864.06 477.374 3866.42 479.689 Q3868.8 481.981 3873.04 481.981 Q3875.49 481.981 3877.78 481.379 Q3880.1 480.777 3882.37 479.573 L3882.37 483.601 Q3880.07 484.573 3877.67 485.082 Q3875.26 485.592 3872.78 485.592 Q3866.58 485.592 3862.94 481.981 Q3859.33 478.369 3859.33 472.212 Q3859.33 465.846 3862.76 462.12 Q3866.21 458.37 3872.04 458.37 Q3877.27 458.37 3880.31 461.749 Q3883.36 465.106 3883.36 470.893 M3879.1 469.643 Q3879.06 466.147 3877.13 464.064 Q3875.24 461.981 3872.09 461.981 Q3868.52 461.981 3866.37 463.995 Q3864.24 466.008 3863.92 469.666 L3879.1 469.643 Z" fill="#000000" fill-rule="nonzero" fill-opacity="1" /><path clip-path="url(#clip540)" d="M3907.41 462.93 L3907.41 448.902 L3911.67 448.902 L3911.67 484.92 L3907.41 484.92 L3907.41 481.031 Q3906.07 483.346 3904.01 484.481 Q3901.97 485.592 3899.1 485.592 Q3894.4 485.592 3891.44 481.842 Q3888.5 478.092 3888.5 471.981 Q3888.5 465.87 3891.44 462.12 Q3894.4 458.37 3899.1 458.37 Q3901.97 458.37 3904.01 459.504 Q3906.07 460.615 3907.41 462.93 M3892.9 471.981 Q3892.9 476.68 3894.82 479.365 Q3896.76 482.027 3900.14 482.027 Q3903.52 482.027 3905.47 479.365 Q3907.41 476.68 3907.41 471.981 Q3907.41 467.282 3905.47 464.62 Q3903.52 461.934 3900.14 461.934 Q3896.76 461.934 3894.82 464.62 Q3892.9 467.282 3892.9 471.981 Z" fill="#000000" fill-rule="nonzero" fill-opacity="1" /></svg>
