<?xml version="1.0" encoding="utf-8"?>
<svg xmlns="http://www.w3.org/2000/svg" xmlns:xlink="http://www.w3.org/1999/xlink" width="600" height="400" viewBox="0 0 2400 1600">
<defs>
  <clipPath id="clip750">
    <rect x="0" y="0" width="2400" height="1600"/>
  </clipPath>
</defs>
<path clip-path="url(#clip750)" d="M0 1600 L2400 1600 L2400 8.88178e-14 L0 8.88178e-14  Z" fill="#ffffff" fill-rule="evenodd" fill-opacity="1"/>
<defs>
  <clipPath id="clip751">
    <rect x="480" y="0" width="1681" height="1600"/>
  </clipPath>
</defs>
<path clip-path="url(#clip750)" d="M249.542 1423.18 L2352.76 1423.18 L2352.76 47.2441 L249.542 47.2441  Z" fill="#ffffff" fill-rule="evenodd" fill-opacity="1"/>
<defs>
  <clipPath id="clip752">
    <rect x="249" y="47" width="2104" height="1377"/>
  </clipPath>
</defs>
<polyline clip-path="url(#clip752)" style="stroke:#000000; stroke-linecap:round; stroke-linejoin:round; stroke-width:2; stroke-opacity:0.1; fill:none" points="309.067,1423.18 309.067,47.2441 "/>
<polyline clip-path="url(#clip752)" style="stroke:#000000; stroke-linecap:round; stroke-linejoin:round; stroke-width:2; stroke-opacity:0.1; fill:none" points="545.277,1423.18 545.277,47.2441 "/>
<polyline clip-path="url(#clip752)" style="stroke:#000000; stroke-linecap:round; stroke-linejoin:round; stroke-width:2; stroke-opacity:0.1; fill:none" points="781.487,1423.18 781.487,47.2441 "/>
<polyline clip-path="url(#clip752)" style="stroke:#000000; stroke-linecap:round; stroke-linejoin:round; stroke-width:2; stroke-opacity:0.1; fill:none" points="1017.7,1423.18 1017.7,47.2441 "/>
<polyline clip-path="url(#clip752)" style="stroke:#000000; stroke-linecap:round; stroke-linejoin:round; stroke-width:2; stroke-opacity:0.1; fill:none" points="1253.91,1423.18 1253.91,47.2441 "/>
<polyline clip-path="url(#clip752)" style="stroke:#000000; stroke-linecap:round; stroke-linejoin:round; stroke-width:2; stroke-opacity:0.1; fill:none" points="1490.12,1423.18 1490.12,47.2441 "/>
<polyline clip-path="url(#clip752)" style="stroke:#000000; stroke-linecap:round; stroke-linejoin:round; stroke-width:2; stroke-opacity:0.1; fill:none" points="1726.33,1423.18 1726.33,47.2441 "/>
<polyline clip-path="url(#clip752)" style="stroke:#000000; stroke-linecap:round; stroke-linejoin:round; stroke-width:2; stroke-opacity:0.1; fill:none" points="1962.54,1423.18 1962.54,47.2441 "/>
<polyline clip-path="url(#clip752)" style="stroke:#000000; stroke-linecap:round; stroke-linejoin:round; stroke-width:2; stroke-opacity:0.1; fill:none" points="2198.75,1423.18 2198.75,47.2441 "/>
<polyline clip-path="url(#clip752)" style="stroke:#000000; stroke-linecap:round; stroke-linejoin:round; stroke-width:2; stroke-opacity:0.1; fill:none" points="2352.76,1205.1 249.542,1205.1 "/>
<polyline clip-path="url(#clip752)" style="stroke:#000000; stroke-linecap:round; stroke-linejoin:round; stroke-width:2; stroke-opacity:0.1; fill:none" points="2352.76,857.985 249.542,857.985 "/>
<polyline clip-path="url(#clip752)" style="stroke:#000000; stroke-linecap:round; stroke-linejoin:round; stroke-width:2; stroke-opacity:0.1; fill:none" points="2352.76,510.874 249.542,510.874 "/>
<polyline clip-path="url(#clip752)" style="stroke:#000000; stroke-linecap:round; stroke-linejoin:round; stroke-width:2; stroke-opacity:0.1; fill:none" points="2352.76,163.763 249.542,163.763 "/>
<polyline clip-path="url(#clip750)" style="stroke:#000000; stroke-linecap:round; stroke-linejoin:round; stroke-width:4; stroke-opacity:1; fill:none" points="2352.76,1423.18 249.542,1423.18 "/>
<polyline clip-path="url(#clip750)" style="stroke:#000000; stroke-linecap:round; stroke-linejoin:round; stroke-width:4; stroke-opacity:1; fill:none" points="309.067,1423.18 309.067,1404.28 "/>
<polyline clip-path="url(#clip750)" style="stroke:#000000; stroke-linecap:round; stroke-linejoin:round; stroke-width:4; stroke-opacity:1; fill:none" points="545.277,1423.18 545.277,1404.28 "/>
<polyline clip-path="url(#clip750)" style="stroke:#000000; stroke-linecap:round; stroke-linejoin:round; stroke-width:4; stroke-opacity:1; fill:none" points="781.487,1423.18 781.487,1404.28 "/>
<polyline clip-path="url(#clip750)" style="stroke:#000000; stroke-linecap:round; stroke-linejoin:round; stroke-width:4; stroke-opacity:1; fill:none" points="1017.7,1423.18 1017.7,1404.28 "/>
<polyline clip-path="url(#clip750)" style="stroke:#000000; stroke-linecap:round; stroke-linejoin:round; stroke-width:4; stroke-opacity:1; fill:none" points="1253.91,1423.18 1253.91,1404.28 "/>
<polyline clip-path="url(#clip750)" style="stroke:#000000; stroke-linecap:round; stroke-linejoin:round; stroke-width:4; stroke-opacity:1; fill:none" points="1490.12,1423.18 1490.12,1404.28 "/>
<polyline clip-path="url(#clip750)" style="stroke:#000000; stroke-linecap:round; stroke-linejoin:round; stroke-width:4; stroke-opacity:1; fill:none" points="1726.33,1423.18 1726.33,1404.28 "/>
<polyline clip-path="url(#clip750)" style="stroke:#000000; stroke-linecap:round; stroke-linejoin:round; stroke-width:4; stroke-opacity:1; fill:none" points="1962.54,1423.18 1962.54,1404.28 "/>
<polyline clip-path="url(#clip750)" style="stroke:#000000; stroke-linecap:round; stroke-linejoin:round; stroke-width:4; stroke-opacity:1; fill:none" points="2198.75,1423.18 2198.75,1404.28 "/>
<path clip-path="url(#clip750)" d="M284.194 1484.86 L284.194 1480.6 Q285.954 1481.44 287.759 1481.88 Q289.565 1482.32 291.301 1482.32 Q295.93 1482.32 298.361 1479.21 Q300.815 1476.09 301.162 1469.75 Q299.819 1471.74 297.759 1472.8 Q295.699 1473.87 293.199 1473.87 Q288.014 1473.87 284.981 1470.74 Q281.972 1467.59 281.972 1462.15 Q281.972 1456.83 285.12 1453.61 Q288.268 1450.39 293.5 1450.39 Q299.495 1450.39 302.643 1455 Q305.815 1459.58 305.815 1468.33 Q305.815 1476.51 301.926 1481.39 Q298.06 1486.25 291.509 1486.25 Q289.75 1486.25 287.944 1485.9 Q286.139 1485.56 284.194 1484.86 M293.5 1470.21 Q296.648 1470.21 298.477 1468.06 Q300.329 1465.9 300.329 1462.15 Q300.329 1458.43 298.477 1456.27 Q296.648 1454.1 293.5 1454.1 Q290.352 1454.1 288.5 1456.27 Q286.671 1458.43 286.671 1462.15 Q286.671 1465.9 288.5 1468.06 Q290.352 1470.21 293.5 1470.21 Z" fill="#000000" fill-rule="nonzero" fill-opacity="1" /><path clip-path="url(#clip750)" d="M324.217 1454.1 Q320.606 1454.1 318.778 1457.66 Q316.972 1461.2 316.972 1468.33 Q316.972 1475.44 318.778 1479.01 Q320.606 1482.55 324.217 1482.55 Q327.852 1482.55 329.657 1479.01 Q331.486 1475.44 331.486 1468.33 Q331.486 1461.2 329.657 1457.66 Q327.852 1454.1 324.217 1454.1 M324.217 1450.39 Q330.027 1450.39 333.083 1455 Q336.162 1459.58 336.162 1468.33 Q336.162 1477.06 333.083 1481.67 Q330.027 1486.25 324.217 1486.25 Q318.407 1486.25 315.328 1481.67 Q312.273 1477.06 312.273 1468.33 Q312.273 1459.58 315.328 1455 Q318.407 1450.39 324.217 1450.39 Z" fill="#000000" fill-rule="nonzero" fill-opacity="1" /><path clip-path="url(#clip750)" d="M530.15 1469.17 Q526.816 1469.17 524.895 1470.95 Q522.997 1472.73 522.997 1475.86 Q522.997 1478.98 524.895 1480.77 Q526.816 1482.55 530.15 1482.55 Q533.483 1482.55 535.404 1480.77 Q537.326 1478.96 537.326 1475.86 Q537.326 1472.73 535.404 1470.95 Q533.506 1469.17 530.15 1469.17 M525.474 1467.18 Q522.465 1466.44 520.775 1464.38 Q519.108 1462.32 519.108 1459.35 Q519.108 1455.21 522.048 1452.8 Q525.011 1450.39 530.15 1450.39 Q535.312 1450.39 538.252 1452.8 Q541.191 1455.21 541.191 1459.35 Q541.191 1462.32 539.502 1464.38 Q537.835 1466.44 534.849 1467.18 Q538.228 1467.96 540.103 1470.26 Q542.002 1472.55 542.002 1475.86 Q542.002 1480.88 538.923 1483.57 Q535.867 1486.25 530.15 1486.25 Q524.432 1486.25 521.353 1483.57 Q518.298 1480.88 518.298 1475.86 Q518.298 1472.55 520.196 1470.26 Q522.094 1467.96 525.474 1467.18 M523.761 1459.79 Q523.761 1462.48 525.428 1463.98 Q527.117 1465.49 530.15 1465.49 Q533.159 1465.49 534.849 1463.98 Q536.562 1462.48 536.562 1459.79 Q536.562 1457.11 534.849 1455.6 Q533.159 1454.1 530.15 1454.1 Q527.117 1454.1 525.428 1455.6 Q523.761 1457.11 523.761 1459.79 Z" fill="#000000" fill-rule="nonzero" fill-opacity="1" /><path clip-path="url(#clip750)" d="M560.312 1454.1 Q556.701 1454.1 554.872 1457.66 Q553.066 1461.2 553.066 1468.33 Q553.066 1475.44 554.872 1479.01 Q556.701 1482.55 560.312 1482.55 Q563.946 1482.55 565.751 1479.01 Q567.58 1475.44 567.58 1468.33 Q567.58 1461.2 565.751 1457.66 Q563.946 1454.1 560.312 1454.1 M560.312 1450.39 Q566.122 1450.39 569.177 1455 Q572.256 1459.58 572.256 1468.33 Q572.256 1477.06 569.177 1481.67 Q566.122 1486.25 560.312 1486.25 Q554.501 1486.25 551.423 1481.67 Q548.367 1477.06 548.367 1468.33 Q548.367 1459.58 551.423 1455 Q554.501 1450.39 560.312 1450.39 Z" fill="#000000" fill-rule="nonzero" fill-opacity="1" /><path clip-path="url(#clip750)" d="M754.844 1451.02 L777.066 1451.02 L777.066 1453.01 L764.519 1485.58 L759.635 1485.58 L771.441 1454.96 L754.844 1454.96 L754.844 1451.02 Z" fill="#000000" fill-rule="nonzero" fill-opacity="1" /><path clip-path="url(#clip750)" d="M796.186 1454.1 Q792.575 1454.1 790.746 1457.66 Q788.941 1461.2 788.941 1468.33 Q788.941 1475.44 790.746 1479.01 Q792.575 1482.55 796.186 1482.55 Q799.82 1482.55 801.626 1479.01 Q803.454 1475.44 803.454 1468.33 Q803.454 1461.2 801.626 1457.66 Q799.82 1454.1 796.186 1454.1 M796.186 1450.39 Q801.996 1450.39 805.052 1455 Q808.13 1459.58 808.13 1468.33 Q808.13 1477.06 805.052 1481.67 Q801.996 1486.25 796.186 1486.25 Q790.376 1486.25 787.297 1481.67 Q784.242 1477.06 784.242 1468.33 Q784.242 1459.58 787.297 1455 Q790.376 1450.39 796.186 1450.39 Z" fill="#000000" fill-rule="nonzero" fill-opacity="1" /><path clip-path="url(#clip750)" d="M1003.1 1466.44 Q999.954 1466.44 998.102 1468.59 Q996.273 1470.74 996.273 1474.49 Q996.273 1478.22 998.102 1480.39 Q999.954 1482.55 1003.1 1482.55 Q1006.25 1482.55 1008.08 1480.39 Q1009.93 1478.22 1009.93 1474.49 Q1009.93 1470.74 1008.08 1468.59 Q1006.25 1466.44 1003.1 1466.44 M1012.38 1451.78 L1012.38 1456.04 Q1010.63 1455.21 1008.82 1454.77 Q1007.04 1454.33 1005.28 1454.33 Q1000.65 1454.33 998.195 1457.45 Q995.764 1460.58 995.417 1466.9 Q996.783 1464.89 998.843 1463.82 Q1000.9 1462.73 1003.38 1462.73 Q1008.59 1462.73 1011.6 1465.9 Q1014.63 1469.05 1014.63 1474.49 Q1014.63 1479.82 1011.48 1483.03 Q1008.33 1486.25 1003.1 1486.25 Q997.107 1486.25 993.936 1481.67 Q990.764 1477.06 990.764 1468.33 Q990.764 1460.14 994.653 1455.28 Q998.542 1450.39 1005.09 1450.39 Q1006.85 1450.39 1008.63 1450.74 Q1010.44 1451.09 1012.38 1451.78 Z" fill="#000000" fill-rule="nonzero" fill-opacity="1" /><path clip-path="url(#clip750)" d="M1032.69 1454.1 Q1029.07 1454.1 1027.25 1457.66 Q1025.44 1461.2 1025.44 1468.33 Q1025.44 1475.44 1027.25 1479.01 Q1029.07 1482.55 1032.69 1482.55 Q1036.32 1482.55 1038.13 1479.01 Q1039.95 1475.44 1039.95 1468.33 Q1039.95 1461.2 1038.13 1457.66 Q1036.32 1454.1 1032.69 1454.1 M1032.69 1450.39 Q1038.5 1450.39 1041.55 1455 Q1044.63 1459.58 1044.63 1468.33 Q1044.63 1477.06 1041.55 1481.67 Q1038.5 1486.25 1032.69 1486.25 Q1026.88 1486.25 1023.8 1481.67 Q1020.74 1477.06 1020.74 1468.33 Q1020.74 1459.58 1023.8 1455 Q1026.88 1450.39 1032.69 1450.39 Z" fill="#000000" fill-rule="nonzero" fill-opacity="1" /><path clip-path="url(#clip750)" d="M1228.61 1451.02 L1246.96 1451.02 L1246.96 1454.96 L1232.89 1454.96 L1232.89 1463.43 Q1233.91 1463.08 1234.93 1462.92 Q1235.94 1462.73 1236.96 1462.73 Q1242.75 1462.73 1246.13 1465.9 Q1249.51 1469.08 1249.51 1474.49 Q1249.51 1480.07 1246.04 1483.17 Q1242.56 1486.25 1236.25 1486.25 Q1234.07 1486.25 1231.8 1485.88 Q1229.56 1485.51 1227.15 1484.77 L1227.15 1480.07 Q1229.23 1481.2 1231.45 1481.76 Q1233.68 1482.32 1236.15 1482.32 Q1240.16 1482.32 1242.49 1480.21 Q1244.83 1478.1 1244.83 1474.49 Q1244.83 1470.88 1242.49 1468.77 Q1240.16 1466.67 1236.15 1466.67 Q1234.28 1466.67 1232.4 1467.08 Q1230.55 1467.5 1228.61 1468.38 L1228.61 1451.02 Z" fill="#000000" fill-rule="nonzero" fill-opacity="1" /><path clip-path="url(#clip750)" d="M1268.72 1454.1 Q1265.11 1454.1 1263.28 1457.66 Q1261.48 1461.2 1261.48 1468.33 Q1261.48 1475.44 1263.28 1479.01 Q1265.11 1482.55 1268.72 1482.55 Q1272.36 1482.55 1274.16 1479.01 Q1275.99 1475.44 1275.99 1468.33 Q1275.99 1461.2 1274.16 1457.66 Q1272.36 1454.1 1268.72 1454.1 M1268.72 1450.39 Q1274.53 1450.39 1277.59 1455 Q1280.67 1459.58 1280.67 1468.33 Q1280.67 1477.06 1277.59 1481.67 Q1274.53 1486.25 1268.72 1486.25 Q1262.91 1486.25 1259.83 1481.67 Q1256.78 1477.06 1256.78 1468.33 Q1256.78 1459.58 1259.83 1455 Q1262.91 1450.39 1268.72 1450.39 Z" fill="#000000" fill-rule="nonzero" fill-opacity="1" /><path clip-path="url(#clip750)" d="M1478.29 1455.09 L1466.48 1473.54 L1478.29 1473.54 L1478.29 1455.09 M1477.06 1451.02 L1482.94 1451.02 L1482.94 1473.54 L1487.87 1473.54 L1487.87 1477.43 L1482.94 1477.43 L1482.94 1485.58 L1478.29 1485.58 L1478.29 1477.43 L1462.69 1477.43 L1462.69 1472.92 L1477.06 1451.02 Z" fill="#000000" fill-rule="nonzero" fill-opacity="1" /><path clip-path="url(#clip750)" d="M1505.6 1454.1 Q1501.99 1454.1 1500.16 1457.66 Q1498.36 1461.2 1498.36 1468.33 Q1498.36 1475.44 1500.16 1479.01 Q1501.99 1482.55 1505.6 1482.55 Q1509.24 1482.55 1511.04 1479.01 Q1512.87 1475.44 1512.87 1468.33 Q1512.87 1461.2 1511.04 1457.66 Q1509.24 1454.1 1505.6 1454.1 M1505.6 1450.39 Q1511.41 1450.39 1514.47 1455 Q1517.55 1459.58 1517.55 1468.33 Q1517.55 1477.06 1514.47 1481.67 Q1511.41 1486.25 1505.6 1486.25 Q1499.79 1486.25 1496.71 1481.67 Q1493.66 1477.06 1493.66 1468.33 Q1493.66 1459.58 1496.71 1455 Q1499.79 1450.39 1505.6 1450.39 Z" fill="#000000" fill-rule="nonzero" fill-opacity="1" /><path clip-path="url(#clip750)" d="M1715.17 1466.95 Q1718.53 1467.66 1720.4 1469.93 Q1722.3 1472.2 1722.3 1475.53 Q1722.3 1480.65 1718.78 1483.45 Q1715.26 1486.25 1708.78 1486.25 Q1706.6 1486.25 1704.29 1485.81 Q1702 1485.39 1699.54 1484.54 L1699.54 1480.02 Q1701.49 1481.16 1703.8 1481.74 Q1706.12 1482.32 1708.64 1482.32 Q1713.04 1482.32 1715.33 1480.58 Q1717.65 1478.84 1717.65 1475.53 Q1717.65 1472.48 1715.49 1470.77 Q1713.36 1469.03 1709.54 1469.03 L1705.52 1469.03 L1705.52 1465.19 L1709.73 1465.19 Q1713.18 1465.19 1715.01 1463.82 Q1716.84 1462.43 1716.84 1459.84 Q1716.84 1457.18 1714.94 1455.77 Q1713.06 1454.33 1709.54 1454.33 Q1707.62 1454.33 1705.42 1454.75 Q1703.23 1455.16 1700.59 1456.04 L1700.59 1451.88 Q1703.25 1451.14 1705.56 1450.77 Q1707.9 1450.39 1709.96 1450.39 Q1715.29 1450.39 1718.39 1452.83 Q1721.49 1455.23 1721.49 1459.35 Q1721.49 1462.22 1719.85 1464.21 Q1718.2 1466.18 1715.17 1466.95 Z" fill="#000000" fill-rule="nonzero" fill-opacity="1" /><path clip-path="url(#clip750)" d="M1741.16 1454.1 Q1737.55 1454.1 1735.73 1457.66 Q1733.92 1461.2 1733.92 1468.33 Q1733.92 1475.44 1735.73 1479.01 Q1737.55 1482.55 1741.16 1482.55 Q1744.8 1482.55 1746.6 1479.01 Q1748.43 1475.44 1748.43 1468.33 Q1748.43 1461.2 1746.6 1457.66 Q1744.8 1454.1 1741.16 1454.1 M1741.16 1450.39 Q1746.98 1450.39 1750.03 1455 Q1753.11 1459.58 1753.11 1468.33 Q1753.11 1477.06 1750.03 1481.67 Q1746.98 1486.25 1741.16 1486.25 Q1735.35 1486.25 1732.28 1481.67 Q1729.22 1477.06 1729.22 1468.33 Q1729.22 1459.58 1732.28 1455 Q1735.35 1450.39 1741.16 1450.39 Z" fill="#000000" fill-rule="nonzero" fill-opacity="1" /><path clip-path="url(#clip750)" d="M1941.31 1481.64 L1957.63 1481.64 L1957.63 1485.58 L1935.69 1485.58 L1935.69 1481.64 Q1938.35 1478.89 1942.93 1474.26 Q1947.54 1469.61 1948.72 1468.27 Q1950.96 1465.74 1951.84 1464.01 Q1952.75 1462.25 1952.75 1460.56 Q1952.75 1457.8 1950.8 1456.07 Q1948.88 1454.33 1945.78 1454.33 Q1943.58 1454.33 1941.13 1455.09 Q1938.69 1455.86 1935.92 1457.41 L1935.92 1452.69 Q1938.74 1451.55 1941.19 1450.97 Q1943.65 1450.39 1945.69 1450.39 Q1951.06 1450.39 1954.25 1453.08 Q1957.44 1455.77 1957.44 1460.26 Q1957.44 1462.39 1956.63 1464.31 Q1955.85 1466.2 1953.74 1468.8 Q1953.16 1469.47 1950.06 1472.69 Q1946.96 1475.88 1941.31 1481.64 Z" fill="#000000" fill-rule="nonzero" fill-opacity="1" /><path clip-path="url(#clip750)" d="M1977.44 1454.1 Q1973.83 1454.1 1972 1457.66 Q1970.2 1461.2 1970.2 1468.33 Q1970.2 1475.44 1972 1479.01 Q1973.83 1482.55 1977.44 1482.55 Q1981.08 1482.55 1982.88 1479.01 Q1984.71 1475.44 1984.71 1468.33 Q1984.71 1461.2 1982.88 1457.66 Q1981.08 1454.1 1977.44 1454.1 M1977.44 1450.39 Q1983.25 1450.39 1986.31 1455 Q1989.39 1459.58 1989.39 1468.33 Q1989.39 1477.06 1986.31 1481.67 Q1983.25 1486.25 1977.44 1486.25 Q1971.63 1486.25 1968.56 1481.67 Q1965.5 1477.06 1965.5 1468.33 Q1965.5 1459.58 1968.56 1455 Q1971.63 1450.39 1977.44 1450.39 Z" fill="#000000" fill-rule="nonzero" fill-opacity="1" /><path clip-path="url(#clip750)" d="M2173.43 1481.64 L2181.07 1481.64 L2181.07 1455.28 L2172.76 1456.95 L2172.76 1452.69 L2181.03 1451.02 L2185.7 1451.02 L2185.7 1481.64 L2193.34 1481.64 L2193.34 1485.58 L2173.43 1485.58 L2173.43 1481.64 Z" fill="#000000" fill-rule="nonzero" fill-opacity="1" /><path clip-path="url(#clip750)" d="M2212.79 1454.1 Q2209.18 1454.1 2207.35 1457.66 Q2205.54 1461.2 2205.54 1468.33 Q2205.54 1475.44 2207.35 1479.01 Q2209.18 1482.55 2212.79 1482.55 Q2216.42 1482.55 2218.23 1479.01 Q2220.05 1475.44 2220.05 1468.33 Q2220.05 1461.2 2218.23 1457.66 Q2216.42 1454.1 2212.79 1454.1 M2212.79 1450.39 Q2218.6 1450.39 2221.65 1455 Q2224.73 1459.58 2224.73 1468.33 Q2224.73 1477.06 2221.65 1481.67 Q2218.6 1486.25 2212.79 1486.25 Q2206.98 1486.25 2203.9 1481.67 Q2200.84 1477.06 2200.84 1468.33 Q2200.84 1459.58 2203.9 1455 Q2206.98 1450.39 2212.79 1450.39 Z" fill="#000000" fill-rule="nonzero" fill-opacity="1" /><path clip-path="url(#clip750)" d="M1099.44 1547.13 Q1096.67 1547.13 1095.08 1549.49 Q1093.52 1551.84 1093.52 1556.04 Q1093.52 1560.18 1095.08 1562.57 Q1096.67 1564.92 1099.44 1564.92 Q1102.14 1564.92 1103.7 1562.57 Q1105.29 1560.18 1105.29 1556.04 Q1105.29 1551.87 1103.7 1549.52 Q1102.14 1547.13 1099.44 1547.13 M1099.44 1543.09 Q1104.46 1543.09 1107.42 1546.59 Q1110.38 1550.09 1110.38 1556.04 Q1110.38 1562 1107.39 1565.5 Q1104.43 1568.97 1099.44 1568.97 Q1094.34 1568.97 1091.38 1565.5 Q1088.42 1562 1088.42 1556.04 Q1088.42 1550.06 1091.38 1546.59 Q1094.37 1543.09 1099.44 1543.09 M1066.59 1523.71 Q1063.85 1523.71 1062.26 1526.09 Q1060.7 1528.45 1060.7 1532.59 Q1060.7 1536.79 1062.26 1539.14 Q1063.82 1541.5 1066.59 1541.5 Q1069.36 1541.5 1070.92 1539.14 Q1072.51 1536.79 1072.51 1532.59 Q1072.51 1528.48 1070.92 1526.09 Q1069.33 1523.71 1066.59 1523.71 M1095.33 1519.66 L1100.42 1519.66 L1070.69 1568.97 L1065.6 1568.97 L1095.33 1519.66 M1066.59 1519.66 Q1071.62 1519.66 1074.61 1523.17 Q1077.6 1526.63 1077.6 1532.59 Q1077.6 1538.6 1074.61 1542.07 Q1071.65 1545.54 1066.59 1545.54 Q1061.53 1545.54 1058.57 1542.07 Q1055.64 1538.57 1055.64 1532.59 Q1055.64 1526.67 1058.6 1523.17 Q1061.56 1519.66 1066.59 1519.66 Z" fill="#000000" fill-rule="nonzero" fill-opacity="1" /><path clip-path="url(#clip750)" d="M1168.6 1539.24 Q1170.8 1535.29 1173.85 1533.41 Q1176.91 1531.54 1181.04 1531.54 Q1186.61 1531.54 1189.64 1535.45 Q1192.66 1539.33 1192.66 1546.53 L1192.66 1568.04 L1186.77 1568.04 L1186.77 1546.72 Q1186.77 1541.59 1184.96 1539.11 Q1183.14 1536.63 1179.42 1536.63 Q1174.87 1536.63 1172.23 1539.65 Q1169.59 1542.68 1169.59 1547.9 L1169.59 1568.04 L1163.7 1568.04 L1163.7 1546.72 Q1163.7 1541.56 1161.88 1539.11 Q1160.07 1536.63 1156.28 1536.63 Q1151.79 1536.63 1149.15 1539.68 Q1146.51 1542.71 1146.51 1547.9 L1146.51 1568.04 L1140.62 1568.04 L1140.62 1532.4 L1146.51 1532.4 L1146.51 1537.93 Q1148.52 1534.66 1151.32 1533.1 Q1154.12 1531.54 1157.97 1531.54 Q1161.85 1531.54 1164.56 1533.51 Q1167.29 1535.48 1168.6 1539.24 Z" fill="#000000" fill-rule="nonzero" fill-opacity="1" /><path clip-path="url(#clip750)" d="M1204.34 1532.4 L1210.2 1532.4 L1210.2 1568.04 L1204.34 1568.04 L1204.34 1532.4 M1204.34 1518.52 L1210.2 1518.52 L1210.2 1525.93 L1204.34 1525.93 L1204.34 1518.52 Z" fill="#000000" fill-rule="nonzero" fill-opacity="1" /><path clip-path="url(#clip750)" d="M1245.18 1533.45 L1245.18 1538.98 Q1242.7 1537.71 1240.02 1537.07 Q1237.35 1536.44 1234.48 1536.44 Q1230.12 1536.44 1227.93 1537.77 Q1225.76 1539.11 1225.76 1541.79 Q1225.76 1543.82 1227.32 1545 Q1228.88 1546.15 1233.59 1547.2 L1235.6 1547.64 Q1241.84 1548.98 1244.45 1551.43 Q1247.09 1553.85 1247.09 1558.21 Q1247.09 1563.17 1243.14 1566.07 Q1239.23 1568.97 1232.35 1568.97 Q1229.49 1568.97 1226.37 1568.39 Q1223.28 1567.85 1219.84 1566.74 L1219.84 1560.69 Q1223.09 1562.38 1226.24 1563.24 Q1229.39 1564.07 1232.48 1564.07 Q1236.62 1564.07 1238.84 1562.66 Q1241.07 1561.23 1241.07 1558.65 Q1241.07 1556.27 1239.45 1554.99 Q1237.86 1553.72 1232.42 1552.54 L1230.38 1552.07 Q1224.94 1550.92 1222.52 1548.56 Q1220.1 1546.18 1220.1 1542.04 Q1220.1 1537.01 1223.66 1534.27 Q1227.23 1531.54 1233.78 1531.54 Q1237.03 1531.54 1239.89 1532.01 Q1242.76 1532.49 1245.18 1533.45 Z" fill="#000000" fill-rule="nonzero" fill-opacity="1" /><path clip-path="url(#clip750)" d="M1279.14 1533.45 L1279.14 1538.98 Q1276.66 1537.71 1273.98 1537.07 Q1271.31 1536.44 1268.45 1536.44 Q1264.08 1536.44 1261.89 1537.77 Q1259.72 1539.11 1259.72 1541.79 Q1259.72 1543.82 1261.28 1545 Q1262.84 1546.15 1267.55 1547.2 L1269.56 1547.64 Q1275.8 1548.98 1278.41 1551.43 Q1281.05 1553.85 1281.05 1558.21 Q1281.05 1563.17 1277.1 1566.07 Q1273.19 1568.97 1266.31 1568.97 Q1263.45 1568.97 1260.33 1568.39 Q1257.24 1567.85 1253.8 1566.74 L1253.8 1560.69 Q1257.05 1562.38 1260.2 1563.24 Q1263.35 1564.07 1266.44 1564.07 Q1270.58 1564.07 1272.81 1562.66 Q1275.03 1561.23 1275.03 1558.65 Q1275.03 1556.27 1273.41 1554.99 Q1271.82 1553.72 1266.38 1552.54 L1264.34 1552.07 Q1258.9 1550.92 1256.48 1548.56 Q1254.06 1546.18 1254.06 1542.04 Q1254.06 1537.01 1257.62 1534.27 Q1261.19 1531.54 1267.74 1531.54 Q1270.99 1531.54 1273.86 1532.01 Q1276.72 1532.49 1279.14 1533.45 Z" fill="#000000" fill-rule="nonzero" fill-opacity="1" /><path clip-path="url(#clip750)" d="M1290.38 1532.4 L1296.23 1532.4 L1296.23 1568.04 L1290.38 1568.04 L1290.38 1532.4 M1290.38 1518.52 L1296.23 1518.52 L1296.23 1525.93 L1290.38 1525.93 L1290.38 1518.52 Z" fill="#000000" fill-rule="nonzero" fill-opacity="1" /><path clip-path="url(#clip750)" d="M1338.12 1546.53 L1338.12 1568.04 L1332.26 1568.04 L1332.26 1546.72 Q1332.26 1541.66 1330.29 1539.14 Q1328.31 1536.63 1324.37 1536.63 Q1319.63 1536.63 1316.89 1539.65 Q1314.15 1542.68 1314.15 1547.9 L1314.15 1568.04 L1308.26 1568.04 L1308.26 1532.4 L1314.15 1532.4 L1314.15 1537.93 Q1316.25 1534.72 1319.08 1533.13 Q1321.95 1531.54 1325.67 1531.54 Q1331.82 1531.54 1334.97 1535.36 Q1338.12 1539.14 1338.12 1546.53 Z" fill="#000000" fill-rule="nonzero" fill-opacity="1" /><path clip-path="url(#clip750)" d="M1373.26 1549.81 Q1373.26 1543.44 1370.61 1539.94 Q1368 1536.44 1363.26 1536.44 Q1358.55 1536.44 1355.91 1539.94 Q1353.3 1543.44 1353.3 1549.81 Q1353.3 1556.14 1355.91 1559.64 Q1358.55 1563.14 1363.26 1563.14 Q1368 1563.14 1370.61 1559.64 Q1373.26 1556.14 1373.26 1549.81 M1379.11 1563.62 Q1379.11 1572.72 1375.07 1577.15 Q1371.03 1581.6 1362.69 1581.6 Q1359.6 1581.6 1356.86 1581.13 Q1354.13 1580.68 1351.55 1579.72 L1351.55 1574.03 Q1354.13 1575.43 1356.64 1576.1 Q1359.16 1576.76 1361.77 1576.76 Q1367.53 1576.76 1370.39 1573.74 Q1373.26 1570.75 1373.26 1564.67 L1373.26 1561.77 Q1371.44 1564.92 1368.61 1566.48 Q1365.78 1568.04 1361.83 1568.04 Q1355.27 1568.04 1351.26 1563.05 Q1347.25 1558.05 1347.25 1549.81 Q1347.25 1541.53 1351.26 1536.53 Q1355.27 1531.54 1361.83 1531.54 Q1365.78 1531.54 1368.61 1533.1 Q1371.44 1534.66 1373.26 1537.81 L1373.26 1532.4 L1379.11 1532.4 L1379.11 1563.62 Z" fill="#000000" fill-rule="nonzero" fill-opacity="1" /><path clip-path="url(#clip750)" d="M1435.35 1537.81 L1435.35 1518.52 L1441.21 1518.52 L1441.21 1568.04 L1435.35 1568.04 L1435.35 1562.7 Q1433.51 1565.88 1430.68 1567.44 Q1427.87 1568.97 1423.93 1568.97 Q1417.47 1568.97 1413.39 1563.81 Q1409.35 1558.65 1409.35 1550.25 Q1409.35 1541.85 1413.39 1536.69 Q1417.47 1531.54 1423.93 1531.54 Q1427.87 1531.54 1430.68 1533.1 Q1433.51 1534.62 1435.35 1537.81 M1415.4 1550.25 Q1415.4 1556.71 1418.04 1560.4 Q1420.71 1564.07 1425.36 1564.07 Q1430.01 1564.07 1432.68 1560.4 Q1435.35 1556.71 1435.35 1550.25 Q1435.35 1543.79 1432.68 1540.13 Q1430.01 1536.44 1425.36 1536.44 Q1420.71 1536.44 1418.04 1540.13 Q1415.4 1543.79 1415.4 1550.25 Z" fill="#000000" fill-rule="nonzero" fill-opacity="1" /><path clip-path="url(#clip750)" d="M1469.47 1550.12 Q1462.38 1550.12 1459.64 1551.75 Q1456.9 1553.37 1456.9 1557.29 Q1456.9 1560.4 1458.94 1562.25 Q1461.01 1564.07 1464.54 1564.07 Q1469.41 1564.07 1472.34 1560.63 Q1475.3 1557.16 1475.3 1551.43 L1475.3 1550.12 L1469.47 1550.12 M1481.16 1547.71 L1481.16 1568.04 L1475.3 1568.04 L1475.3 1562.63 Q1473.29 1565.88 1470.3 1567.44 Q1467.31 1568.97 1462.98 1568.97 Q1457.51 1568.97 1454.26 1565.91 Q1451.05 1562.82 1451.05 1557.67 Q1451.05 1551.65 1455.06 1548.6 Q1459.1 1545.54 1467.09 1545.54 L1475.3 1545.54 L1475.3 1544.97 Q1475.3 1540.93 1472.63 1538.73 Q1469.98 1536.5 1465.18 1536.5 Q1462.12 1536.5 1459.23 1537.23 Q1456.33 1537.97 1453.66 1539.43 L1453.66 1534.02 Q1456.87 1532.78 1459.89 1532.17 Q1462.92 1531.54 1465.78 1531.54 Q1473.52 1531.54 1477.34 1535.55 Q1481.16 1539.56 1481.16 1547.71 Z" fill="#000000" fill-rule="nonzero" fill-opacity="1" /><path clip-path="url(#clip750)" d="M1499.01 1522.27 L1499.01 1532.4 L1511.07 1532.4 L1511.07 1536.95 L1499.01 1536.95 L1499.01 1556.3 Q1499.01 1560.66 1500.19 1561.9 Q1501.4 1563.14 1505.06 1563.14 L1511.07 1563.14 L1511.07 1568.04 L1505.06 1568.04 Q1498.28 1568.04 1495.7 1565.53 Q1493.12 1562.98 1493.12 1556.3 L1493.12 1536.95 L1488.83 1536.95 L1488.83 1532.4 L1493.12 1532.4 L1493.12 1522.27 L1499.01 1522.27 Z" fill="#000000" fill-rule="nonzero" fill-opacity="1" /><path clip-path="url(#clip750)" d="M1534.98 1550.12 Q1527.88 1550.12 1525.14 1551.75 Q1522.41 1553.37 1522.41 1557.29 Q1522.41 1560.4 1524.44 1562.25 Q1526.51 1564.07 1530.04 1564.07 Q1534.91 1564.07 1537.84 1560.63 Q1540.8 1557.16 1540.8 1551.43 L1540.8 1550.12 L1534.98 1550.12 M1546.66 1547.71 L1546.66 1568.04 L1540.8 1568.04 L1540.8 1562.63 Q1538.8 1565.88 1535.8 1567.44 Q1532.81 1568.97 1528.48 1568.97 Q1523.01 1568.97 1519.76 1565.91 Q1516.55 1562.82 1516.55 1557.67 Q1516.55 1551.65 1520.56 1548.6 Q1524.6 1545.54 1532.59 1545.54 L1540.8 1545.54 L1540.8 1544.97 Q1540.8 1540.93 1538.13 1538.73 Q1535.49 1536.5 1530.68 1536.5 Q1527.62 1536.5 1524.73 1537.23 Q1521.83 1537.97 1519.16 1539.43 L1519.16 1534.02 Q1522.37 1532.78 1525.4 1532.17 Q1528.42 1531.54 1531.29 1531.54 Q1539.02 1531.54 1542.84 1535.55 Q1546.66 1539.56 1546.66 1547.71 Z" fill="#000000" fill-rule="nonzero" fill-opacity="1" /><polyline clip-path="url(#clip750)" style="stroke:#000000; stroke-linecap:round; stroke-linejoin:round; stroke-width:4; stroke-opacity:1; fill:none" points="249.542,1423.18 249.542,47.2441 "/>
<polyline clip-path="url(#clip750)" style="stroke:#000000; stroke-linecap:round; stroke-linejoin:round; stroke-width:4; stroke-opacity:1; fill:none" points="249.542,1205.1 268.44,1205.1 "/>
<polyline clip-path="url(#clip750)" style="stroke:#000000; stroke-linecap:round; stroke-linejoin:round; stroke-width:4; stroke-opacity:1; fill:none" points="249.542,857.985 268.44,857.985 "/>
<polyline clip-path="url(#clip750)" style="stroke:#000000; stroke-linecap:round; stroke-linejoin:round; stroke-width:4; stroke-opacity:1; fill:none" points="249.542,510.874 268.44,510.874 "/>
<polyline clip-path="url(#clip750)" style="stroke:#000000; stroke-linecap:round; stroke-linejoin:round; stroke-width:4; stroke-opacity:1; fill:none" points="249.542,163.763 268.44,163.763 "/>
<path clip-path="url(#clip750)" d="M126.205 1190.89 Q122.593 1190.89 120.765 1194.46 Q118.959 1198 118.959 1205.13 Q118.959 1212.24 120.765 1215.8 Q122.593 1219.34 126.205 1219.34 Q129.839 1219.34 131.644 1215.8 Q133.473 1212.24 133.473 1205.13 Q133.473 1198 131.644 1194.46 Q129.839 1190.89 126.205 1190.89 M126.205 1187.19 Q132.015 1187.19 135.07 1191.8 Q138.149 1196.38 138.149 1205.13 Q138.149 1213.86 135.07 1218.46 Q132.015 1223.05 126.205 1223.05 Q120.394 1223.05 117.316 1218.46 Q114.26 1213.86 114.26 1205.13 Q114.26 1196.38 117.316 1191.8 Q120.394 1187.19 126.205 1187.19 Z" fill="#000000" fill-rule="nonzero" fill-opacity="1" /><path clip-path="url(#clip750)" d="M146.366 1216.5 L151.251 1216.5 L151.251 1222.38 L146.366 1222.38 L146.366 1216.5 Z" fill="#000000" fill-rule="nonzero" fill-opacity="1" /><path clip-path="url(#clip750)" d="M165.464 1218.44 L181.783 1218.44 L181.783 1222.38 L159.839 1222.38 L159.839 1218.44 Q162.501 1215.69 167.084 1211.06 Q171.69 1206.4 172.871 1205.06 Q175.116 1202.54 175.996 1200.8 Q176.899 1199.04 176.899 1197.35 Q176.899 1194.6 174.954 1192.86 Q173.033 1191.13 169.931 1191.13 Q167.732 1191.13 165.278 1191.89 Q162.848 1192.65 160.07 1194.2 L160.07 1189.48 Q162.894 1188.35 165.348 1187.77 Q167.802 1187.19 169.839 1187.19 Q175.209 1187.19 178.403 1189.88 Q181.598 1192.56 181.598 1197.05 Q181.598 1199.18 180.788 1201.1 Q180.001 1203 177.894 1205.59 Q177.315 1206.26 174.214 1209.48 Q171.112 1212.68 165.464 1218.44 Z" fill="#000000" fill-rule="nonzero" fill-opacity="1" /><path clip-path="url(#clip750)" d="M201.598 1190.89 Q197.987 1190.89 196.158 1194.46 Q194.352 1198 194.352 1205.13 Q194.352 1212.24 196.158 1215.8 Q197.987 1219.34 201.598 1219.34 Q205.232 1219.34 207.037 1215.8 Q208.866 1212.24 208.866 1205.13 Q208.866 1198 207.037 1194.46 Q205.232 1190.89 201.598 1190.89 M201.598 1187.19 Q207.408 1187.19 210.463 1191.8 Q213.542 1196.38 213.542 1205.13 Q213.542 1213.86 210.463 1218.46 Q207.408 1223.05 201.598 1223.05 Q195.787 1223.05 192.709 1218.46 Q189.653 1213.86 189.653 1205.13 Q189.653 1196.38 192.709 1191.8 Q195.787 1187.19 201.598 1187.19 Z" fill="#000000" fill-rule="nonzero" fill-opacity="1" /><path clip-path="url(#clip750)" d="M127.2 843.784 Q123.589 843.784 121.76 847.348 Q119.955 850.89 119.955 858.02 Q119.955 865.126 121.76 868.691 Q123.589 872.232 127.2 872.232 Q130.834 872.232 132.64 868.691 Q134.468 865.126 134.468 858.02 Q134.468 850.89 132.64 847.348 Q130.834 843.784 127.2 843.784 M127.2 840.08 Q133.01 840.08 136.066 844.686 Q139.144 849.27 139.144 858.02 Q139.144 866.746 136.066 871.353 Q133.01 875.936 127.2 875.936 Q121.39 875.936 118.311 871.353 Q115.256 866.746 115.256 858.02 Q115.256 849.27 118.311 844.686 Q121.39 840.08 127.2 840.08 Z" fill="#000000" fill-rule="nonzero" fill-opacity="1" /><path clip-path="url(#clip750)" d="M147.362 869.385 L152.246 869.385 L152.246 875.265 L147.362 875.265 L147.362 869.385 Z" fill="#000000" fill-rule="nonzero" fill-opacity="1" /><path clip-path="url(#clip750)" d="M166.459 871.33 L182.778 871.33 L182.778 875.265 L160.834 875.265 L160.834 871.33 Q163.496 868.575 168.079 863.945 Q172.686 859.293 173.866 857.95 Q176.112 855.427 176.991 853.691 Q177.894 851.932 177.894 850.242 Q177.894 847.487 175.95 845.751 Q174.028 844.015 170.927 844.015 Q168.727 844.015 166.274 844.779 Q163.843 845.543 161.065 847.094 L161.065 842.372 Q163.89 841.237 166.343 840.659 Q168.797 840.08 170.834 840.08 Q176.204 840.08 179.399 842.765 Q182.593 845.45 182.593 849.941 Q182.593 852.071 181.783 853.992 Q180.996 855.89 178.889 858.483 Q178.311 859.154 175.209 862.371 Q172.107 865.566 166.459 871.33 Z" fill="#000000" fill-rule="nonzero" fill-opacity="1" /><path clip-path="url(#clip750)" d="M192.639 840.705 L210.996 840.705 L210.996 844.64 L196.922 844.64 L196.922 853.112 Q197.94 852.765 198.959 852.603 Q199.977 852.418 200.996 852.418 Q206.783 852.418 210.162 855.589 Q213.542 858.76 213.542 864.177 Q213.542 869.756 210.07 872.857 Q206.598 875.936 200.278 875.936 Q198.102 875.936 195.834 875.566 Q193.588 875.195 191.181 874.455 L191.181 869.756 Q193.264 870.89 195.487 871.445 Q197.709 872.001 200.186 872.001 Q204.19 872.001 206.528 869.895 Q208.866 867.788 208.866 864.177 Q208.866 860.566 206.528 858.459 Q204.19 856.353 200.186 856.353 Q198.311 856.353 196.436 856.77 Q194.584 857.186 192.639 858.066 L192.639 840.705 Z" fill="#000000" fill-rule="nonzero" fill-opacity="1" /><path clip-path="url(#clip750)" d="M126.205 496.672 Q122.593 496.672 120.765 500.237 Q118.959 503.779 118.959 510.909 Q118.959 518.015 120.765 521.58 Q122.593 525.121 126.205 525.121 Q129.839 525.121 131.644 521.58 Q133.473 518.015 133.473 510.909 Q133.473 503.779 131.644 500.237 Q129.839 496.672 126.205 496.672 M126.205 492.969 Q132.015 492.969 135.07 497.575 Q138.149 502.159 138.149 510.909 Q138.149 519.635 135.07 524.242 Q132.015 528.825 126.205 528.825 Q120.394 528.825 117.316 524.242 Q114.26 519.635 114.26 510.909 Q114.26 502.159 117.316 497.575 Q120.394 492.969 126.205 492.969 Z" fill="#000000" fill-rule="nonzero" fill-opacity="1" /><path clip-path="url(#clip750)" d="M146.366 522.274 L151.251 522.274 L151.251 528.154 L146.366 528.154 L146.366 522.274 Z" fill="#000000" fill-rule="nonzero" fill-opacity="1" /><path clip-path="url(#clip750)" d="M175.602 509.52 Q178.959 510.237 180.834 512.506 Q182.732 514.774 182.732 518.108 Q182.732 523.223 179.214 526.024 Q175.695 528.825 169.214 528.825 Q167.038 528.825 164.723 528.385 Q162.431 527.969 159.978 527.112 L159.978 522.598 Q161.922 523.733 164.237 524.311 Q166.552 524.89 169.075 524.89 Q173.473 524.89 175.764 523.154 Q178.079 521.418 178.079 518.108 Q178.079 515.052 175.926 513.339 Q173.797 511.603 169.977 511.603 L165.95 511.603 L165.95 507.76 L170.163 507.76 Q173.612 507.76 175.44 506.395 Q177.269 505.006 177.269 502.413 Q177.269 499.751 175.371 498.339 Q173.496 496.904 169.977 496.904 Q168.056 496.904 165.857 497.321 Q163.658 497.737 161.019 498.617 L161.019 494.45 Q163.681 493.71 165.996 493.339 Q168.334 492.969 170.394 492.969 Q175.718 492.969 178.82 495.399 Q181.922 497.807 181.922 501.927 Q181.922 504.797 180.278 506.788 Q178.635 508.756 175.602 509.52 Z" fill="#000000" fill-rule="nonzero" fill-opacity="1" /><path clip-path="url(#clip750)" d="M201.598 496.672 Q197.987 496.672 196.158 500.237 Q194.352 503.779 194.352 510.909 Q194.352 518.015 196.158 521.58 Q197.987 525.121 201.598 525.121 Q205.232 525.121 207.037 521.58 Q208.866 518.015 208.866 510.909 Q208.866 503.779 207.037 500.237 Q205.232 496.672 201.598 496.672 M201.598 492.969 Q207.408 492.969 210.463 497.575 Q213.542 502.159 213.542 510.909 Q213.542 519.635 210.463 524.242 Q207.408 528.825 201.598 528.825 Q195.787 528.825 192.709 524.242 Q189.653 519.635 189.653 510.909 Q189.653 502.159 192.709 497.575 Q195.787 492.969 201.598 492.969 Z" fill="#000000" fill-rule="nonzero" fill-opacity="1" /><path clip-path="url(#clip750)" d="M127.2 149.561 Q123.589 149.561 121.76 153.126 Q119.955 156.668 119.955 163.797 Q119.955 170.904 121.76 174.469 Q123.589 178.01 127.2 178.01 Q130.834 178.01 132.64 174.469 Q134.468 170.904 134.468 163.797 Q134.468 156.668 132.64 153.126 Q130.834 149.561 127.2 149.561 M127.2 145.858 Q133.01 145.858 136.066 150.464 Q139.144 155.047 139.144 163.797 Q139.144 172.524 136.066 177.131 Q133.01 181.714 127.2 181.714 Q121.39 181.714 118.311 177.131 Q115.256 172.524 115.256 163.797 Q115.256 155.047 118.311 150.464 Q121.39 145.858 127.2 145.858 Z" fill="#000000" fill-rule="nonzero" fill-opacity="1" /><path clip-path="url(#clip750)" d="M147.362 175.163 L152.246 175.163 L152.246 181.043 L147.362 181.043 L147.362 175.163 Z" fill="#000000" fill-rule="nonzero" fill-opacity="1" /><path clip-path="url(#clip750)" d="M176.598 162.409 Q179.954 163.126 181.829 165.395 Q183.727 167.663 183.727 170.996 Q183.727 176.112 180.209 178.913 Q176.69 181.714 170.209 181.714 Q168.033 181.714 165.718 181.274 Q163.427 180.858 160.973 180.001 L160.973 175.487 Q162.917 176.621 165.232 177.2 Q167.547 177.779 170.07 177.779 Q174.468 177.779 176.76 176.043 Q179.075 174.307 179.075 170.996 Q179.075 167.941 176.922 166.228 Q174.792 164.492 170.973 164.492 L166.945 164.492 L166.945 160.649 L171.158 160.649 Q174.607 160.649 176.436 159.284 Q178.264 157.895 178.264 155.302 Q178.264 152.64 176.366 151.228 Q174.491 149.793 170.973 149.793 Q169.052 149.793 166.852 150.21 Q164.653 150.626 162.015 151.506 L162.015 147.339 Q164.677 146.598 166.991 146.228 Q169.329 145.858 171.389 145.858 Q176.714 145.858 179.815 148.288 Q182.917 150.696 182.917 154.816 Q182.917 157.686 181.274 159.677 Q179.63 161.645 176.598 162.409 Z" fill="#000000" fill-rule="nonzero" fill-opacity="1" /><path clip-path="url(#clip750)" d="M192.639 146.483 L210.996 146.483 L210.996 150.418 L196.922 150.418 L196.922 158.89 Q197.94 158.543 198.959 158.381 Q199.977 158.196 200.996 158.196 Q206.783 158.196 210.162 161.367 Q213.542 164.538 213.542 169.955 Q213.542 175.533 210.07 178.635 Q206.598 181.714 200.278 181.714 Q198.102 181.714 195.834 181.344 Q193.588 180.973 191.181 180.233 L191.181 175.533 Q193.264 176.668 195.487 177.223 Q197.709 177.779 200.186 177.779 Q204.19 177.779 206.528 175.672 Q208.866 173.566 208.866 169.955 Q208.866 166.344 206.528 164.237 Q204.19 162.131 200.186 162.131 Q198.311 162.131 196.436 162.547 Q194.584 162.964 192.639 163.844 L192.639 146.483 Z" fill="#000000" fill-rule="nonzero" fill-opacity="1" /><path clip-path="url(#clip750)" d="M33.7671 1012.71 L14.479 1012.71 L14.479 1006.85 L64.0042 1006.85 L64.0042 1012.71 L58.657 1012.71 Q61.8398 1014.56 63.3994 1017.39 Q64.9272 1020.19 64.9272 1024.14 Q64.9272 1030.6 59.771 1034.67 Q54.6147 1038.71 46.212 1038.71 Q37.8093 1038.71 32.6531 1034.67 Q27.4968 1030.6 27.4968 1024.14 Q27.4968 1020.19 29.0564 1017.39 Q30.5842 1014.56 33.7671 1012.71 M46.212 1032.67 Q52.6732 1032.67 56.3653 1030.02 Q60.0256 1027.35 60.0256 1022.7 Q60.0256 1018.06 56.3653 1015.38 Q52.6732 1012.71 46.212 1012.71 Q39.7508 1012.71 36.0905 1015.38 Q32.3984 1018.06 32.3984 1022.7 Q32.3984 1027.35 36.0905 1030.02 Q39.7508 1032.67 46.212 1032.67 Z" fill="#000000" fill-rule="nonzero" fill-opacity="1" /><path clip-path="url(#clip750)" d="M46.0847 978.589 Q46.0847 985.687 47.7079 988.424 Q49.3312 991.161 53.2461 991.161 Q56.3653 991.161 58.2114 989.124 Q60.0256 987.055 60.0256 983.522 Q60.0256 978.653 56.5881 975.724 Q53.1188 972.764 47.3897 972.764 L46.0847 972.764 L46.0847 978.589 M43.6657 966.908 L64.0042 966.908 L64.0042 972.764 L58.5933 972.764 Q61.8398 974.769 63.3994 977.761 Q64.9272 980.753 64.9272 985.082 Q64.9272 990.556 61.8716 993.803 Q58.7843 997.018 53.6281 997.018 Q47.6125 997.018 44.5569 993.007 Q41.5014 988.965 41.5014 980.976 L41.5014 972.764 L40.9285 972.764 Q36.8862 972.764 34.6901 975.438 Q32.4621 978.08 32.4621 982.886 Q32.4621 985.941 33.1941 988.838 Q33.9262 991.734 35.3903 994.408 L29.9795 994.408 Q28.7381 991.193 28.1334 988.169 Q27.4968 985.146 27.4968 982.281 Q27.4968 974.547 31.5072 970.727 Q35.5176 966.908 43.6657 966.908 Z" fill="#000000" fill-rule="nonzero" fill-opacity="1" /><path clip-path="url(#clip750)" d="M18.2347 949.052 L28.3562 949.052 L28.3562 936.989 L32.9077 936.989 L32.9077 949.052 L52.2594 949.052 Q56.6199 949.052 57.8613 947.874 Q59.1026 946.665 59.1026 943.005 L59.1026 936.989 L64.0042 936.989 L64.0042 943.005 Q64.0042 949.784 61.4897 952.362 Q58.9434 954.94 52.2594 954.94 L32.9077 954.94 L32.9077 959.237 L28.3562 959.237 L28.3562 954.94 L18.2347 954.94 L18.2347 949.052 Z" fill="#000000" fill-rule="nonzero" fill-opacity="1" /><path clip-path="url(#clip750)" d="M46.0847 913.086 Q46.0847 920.183 47.7079 922.921 Q49.3312 925.658 53.2461 925.658 Q56.3653 925.658 58.2114 923.621 Q60.0256 921.552 60.0256 918.019 Q60.0256 913.149 56.5881 910.221 Q53.1188 907.261 47.3897 907.261 L46.0847 907.261 L46.0847 913.086 M43.6657 901.405 L64.0042 901.405 L64.0042 907.261 L58.5933 907.261 Q61.8398 909.266 63.3994 912.258 Q64.9272 915.25 64.9272 919.579 Q64.9272 925.053 61.8716 928.3 Q58.7843 931.514 53.6281 931.514 Q47.6125 931.514 44.5569 927.504 Q41.5014 923.462 41.5014 915.473 L41.5014 907.261 L40.9285 907.261 Q36.8862 907.261 34.6901 909.935 Q32.4621 912.576 32.4621 917.383 Q32.4621 920.438 33.1941 923.335 Q33.9262 926.231 35.3903 928.905 L29.9795 928.905 Q28.7381 925.69 28.1334 922.666 Q27.4968 919.642 27.4968 916.778 Q27.4968 909.044 31.5072 905.224 Q35.5176 901.405 43.6657 901.405 Z" fill="#000000" fill-rule="nonzero" fill-opacity="1" /><path clip-path="url(#clip750)" d="M29.4065 866.616 L34.9447 866.616 Q33.6716 869.099 33.035 871.772 Q32.3984 874.446 32.3984 877.31 Q32.3984 881.671 33.7352 883.867 Q35.072 886.031 37.7456 886.031 Q39.7826 886.031 40.9603 884.472 Q42.1061 882.912 43.1565 878.202 L43.6021 876.196 Q44.9389 869.958 47.3897 867.348 Q49.8086 864.706 54.1691 864.706 Q59.1344 864.706 62.0308 868.653 Q64.9272 872.568 64.9272 879.443 Q64.9272 882.308 64.3543 885.427 Q63.8132 888.514 62.6992 891.952 L56.6518 891.952 Q58.3387 888.705 59.198 885.554 Q60.0256 882.403 60.0256 879.316 Q60.0256 875.178 58.6251 872.95 Q57.1929 870.722 54.6147 870.722 Q52.2276 870.722 50.9545 872.345 Q49.6813 873.937 48.5037 879.379 L48.0262 881.416 Q46.8804 886.859 44.5251 889.278 Q42.138 891.697 38.0002 891.697 Q32.9713 891.697 30.2341 888.132 Q27.4968 884.567 27.4968 878.011 Q27.4968 874.764 27.9743 871.9 Q28.4517 869.035 29.4065 866.616 Z" fill="#000000" fill-rule="nonzero" fill-opacity="1" /><path clip-path="url(#clip750)" d="M44.7161 824.889 L47.5806 824.889 L47.5806 851.816 Q53.6281 851.434 56.8109 848.187 Q59.9619 844.909 59.9619 839.084 Q59.9619 835.711 59.1344 832.56 Q58.3069 829.377 56.6518 826.257 L62.1899 826.257 Q63.5267 829.409 64.227 832.719 Q64.9272 836.029 64.9272 839.435 Q64.9272 847.965 59.9619 852.962 Q54.9967 857.927 46.5303 857.927 Q37.7774 857.927 32.6531 853.216 Q27.4968 848.474 27.4968 840.453 Q27.4968 833.26 32.1438 829.09 Q36.7589 824.889 44.7161 824.889 M42.9973 830.745 Q38.1912 830.809 35.3266 833.451 Q32.4621 836.061 32.4621 840.389 Q32.4621 845.291 35.2312 848.251 Q38.0002 851.179 43.0292 851.625 L42.9973 830.745 Z" fill="#000000" fill-rule="nonzero" fill-opacity="1" /><path clip-path="url(#clip750)" d="M18.2347 809.484 L28.3562 809.484 L28.3562 797.421 L32.9077 797.421 L32.9077 809.484 L52.2594 809.484 Q56.6199 809.484 57.8613 808.306 Q59.1026 807.097 59.1026 803.436 L59.1026 797.421 L64.0042 797.421 L64.0042 803.436 Q64.0042 810.216 61.4897 812.794 Q58.9434 815.372 52.2594 815.372 L32.9077 815.372 L32.9077 819.669 L28.3562 819.669 L28.3562 815.372 L18.2347 815.372 L18.2347 809.484 Z" fill="#000000" fill-rule="nonzero" fill-opacity="1" /><path clip-path="url(#clip750)" d="M35.1993 741.243 Q31.2526 739.047 29.3747 735.992 Q27.4968 732.936 27.4968 728.799 Q27.4968 723.229 31.4117 720.205 Q35.2948 717.181 42.4881 717.181 L64.0042 717.181 L64.0042 723.069 L42.679 723.069 Q37.5546 723.069 35.072 724.884 Q32.5894 726.698 32.5894 730.422 Q32.5894 734.973 35.6131 737.615 Q38.6368 740.257 43.8567 740.257 L64.0042 740.257 L64.0042 746.145 L42.679 746.145 Q37.5228 746.145 35.072 747.959 Q32.5894 749.774 32.5894 753.561 Q32.5894 758.049 35.6449 760.691 Q38.6686 763.332 43.8567 763.332 L64.0042 763.332 L64.0042 769.221 L28.3562 769.221 L28.3562 763.332 L33.8944 763.332 Q30.616 761.327 29.0564 758.526 Q27.4968 755.725 27.4968 751.874 Q27.4968 747.991 29.4702 745.286 Q31.4436 742.548 35.1993 741.243 Z" fill="#000000" fill-rule="nonzero" fill-opacity="1" /><path clip-path="url(#clip750)" d="M44.7161 675.008 L47.5806 675.008 L47.5806 701.935 Q53.6281 701.553 56.8109 698.307 Q59.9619 695.028 59.9619 689.204 Q59.9619 685.83 59.1344 682.679 Q58.3069 679.496 56.6518 676.377 L62.1899 676.377 Q63.5267 679.528 64.227 682.838 Q64.9272 686.148 64.9272 689.554 Q64.9272 698.084 59.9619 703.081 Q54.9967 708.046 46.5303 708.046 Q37.7774 708.046 32.6531 703.336 Q27.4968 698.593 27.4968 690.572 Q27.4968 683.379 32.1438 679.21 Q36.7589 675.008 44.7161 675.008 M42.9973 680.865 Q38.1912 680.928 35.3266 683.57 Q32.4621 686.18 32.4621 690.509 Q32.4621 695.41 35.2312 698.37 Q38.0002 701.299 43.0292 701.744 L42.9973 680.865 Z" fill="#000000" fill-rule="nonzero" fill-opacity="1" /><path clip-path="url(#clip750)" d="M46.0847 649.195 Q46.0847 656.293 47.7079 659.03 Q49.3312 661.768 53.2461 661.768 Q56.3653 661.768 58.2114 659.731 Q60.0256 657.662 60.0256 654.129 Q60.0256 649.259 56.5881 646.331 Q53.1188 643.371 47.3897 643.371 L46.0847 643.371 L46.0847 649.195 M43.6657 637.514 L64.0042 637.514 L64.0042 643.371 L58.5933 643.371 Q61.8398 645.376 63.3994 648.368 Q64.9272 651.36 64.9272 655.688 Q64.9272 661.163 61.8716 664.409 Q58.7843 667.624 53.6281 667.624 Q47.6125 667.624 44.5569 663.614 Q41.5014 659.571 41.5014 651.582 L41.5014 643.371 L40.9285 643.371 Q36.8862 643.371 34.6901 646.044 Q32.4621 648.686 32.4621 653.492 Q32.4621 656.548 33.1941 659.444 Q33.9262 662.341 35.3903 665.014 L29.9795 665.014 Q28.7381 661.799 28.1334 658.776 Q27.4968 655.752 27.4968 652.887 Q27.4968 645.153 31.5072 641.334 Q35.5176 637.514 43.6657 637.514 Z" fill="#000000" fill-rule="nonzero" fill-opacity="1" /><path clip-path="url(#clip750)" d="M42.4881 595.819 L64.0042 595.819 L64.0042 601.675 L42.679 601.675 Q37.6183 601.675 35.1038 603.649 Q32.5894 605.622 32.5894 609.569 Q32.5894 614.311 35.6131 617.049 Q38.6368 619.786 43.8567 619.786 L64.0042 619.786 L64.0042 625.674 L28.3562 625.674 L28.3562 619.786 L33.8944 619.786 Q30.6797 617.685 29.0883 614.852 Q27.4968 611.988 27.4968 608.264 Q27.4968 602.121 31.3163 598.97 Q35.1038 595.819 42.4881 595.819 Z" fill="#000000" fill-rule="nonzero" fill-opacity="1" /><path clip-path="url(#clip750)" d="M16.4842 563.163 L16.4842 553.582 L48.8219 541.456 L16.4842 529.265 L16.4842 519.685 L64.0042 519.685 L64.0042 525.955 L22.277 525.955 L54.8694 538.209 L54.8694 544.67 L22.277 556.924 L64.0042 556.924 L64.0042 563.163 L16.4842 563.163 Z" fill="#000000" fill-rule="nonzero" fill-opacity="1" /><path clip-path="url(#clip750)" d="M22.818 491.039 L46.4666 499.76 L46.4666 482.287 L22.818 491.039 M16.4842 494.668 L16.4842 487.379 L64.0042 469.269 L64.0042 475.953 L51.8138 480.281 L51.8138 501.702 L64.0042 506.031 L64.0042 512.81 L16.4842 494.668 Z" fill="#000000" fill-rule="nonzero" fill-opacity="1" /><path clip-path="url(#clip750)" d="M16.4842 462.33 L16.4842 432.284 L21.895 432.284 L21.895 455.901 L35.9632 455.901 L35.9632 433.271 L41.3741 433.271 L41.3741 455.901 L58.5933 455.901 L58.5933 431.711 L64.0042 431.711 L64.0042 462.33 L16.4842 462.33 Z" fill="#000000" fill-rule="nonzero" fill-opacity="1" /><polyline clip-path="url(#clip752)" style="stroke:#000000; stroke-linecap:round; stroke-linejoin:round; stroke-width:8; stroke-opacity:1; fill:none" stroke-dasharray="4, 8" points="309.067,86.1857 403.551,97.6872 498.035,126.849 592.519,149.44 687.003,148.38 781.487,164.588 875.971,151.26 970.455,170.309 1064.94,196.268 1159.42,203.505 1253.91,178.714 1348.39,187.673 1442.87,200.716 1537.36,204.239 1631.84,192.743 1726.33,191.98 1820.81,203.308 1915.29,199.119 2009.78,193.494 2104.26,198.521 2198.75,179.638 2293.23,153.285 "/>
<circle clip-path="url(#clip752)" cx="309.067" cy="86.1857" r="10.8" fill="#000000" fill-rule="evenodd" fill-opacity="1" stroke="none"/>
<circle clip-path="url(#clip752)" cx="403.551" cy="97.6872" r="10.8" fill="#000000" fill-rule="evenodd" fill-opacity="1" stroke="none"/>
<circle clip-path="url(#clip752)" cx="498.035" cy="126.849" r="10.8" fill="#000000" fill-rule="evenodd" fill-opacity="1" stroke="none"/>
<circle clip-path="url(#clip752)" cx="592.519" cy="149.44" r="10.8" fill="#000000" fill-rule="evenodd" fill-opacity="1" stroke="none"/>
<circle clip-path="url(#clip752)" cx="687.003" cy="148.38" r="10.8" fill="#000000" fill-rule="evenodd" fill-opacity="1" stroke="none"/>
<circle clip-path="url(#clip752)" cx="781.487" cy="164.588" r="10.8" fill="#000000" fill-rule="evenodd" fill-opacity="1" stroke="none"/>
<circle clip-path="url(#clip752)" cx="875.971" cy="151.26" r="10.8" fill="#000000" fill-rule="evenodd" fill-opacity="1" stroke="none"/>
<circle clip-path="url(#clip752)" cx="970.455" cy="170.309" r="10.8" fill="#000000" fill-rule="evenodd" fill-opacity="1" stroke="none"/>
<circle clip-path="url(#clip752)" cx="1064.94" cy="196.268" r="10.8" fill="#000000" fill-rule="evenodd" fill-opacity="1" stroke="none"/>
<circle clip-path="url(#clip752)" cx="1159.42" cy="203.505" r="10.8" fill="#000000" fill-rule="evenodd" fill-opacity="1" stroke="none"/>
<circle clip-path="url(#clip752)" cx="1253.91" cy="178.714" r="10.8" fill="#000000" fill-rule="evenodd" fill-opacity="1" stroke="none"/>
<circle clip-path="url(#clip752)" cx="1348.39" cy="187.673" r="10.8" fill="#000000" fill-rule="evenodd" fill-opacity="1" stroke="none"/>
<circle clip-path="url(#clip752)" cx="1442.87" cy="200.716" r="10.8" fill="#000000" fill-rule="evenodd" fill-opacity="1" stroke="none"/>
<circle clip-path="url(#clip752)" cx="1537.36" cy="204.239" r="10.8" fill="#000000" fill-rule="evenodd" fill-opacity="1" stroke="none"/>
<circle clip-path="url(#clip752)" cx="1631.84" cy="192.743" r="10.8" fill="#000000" fill-rule="evenodd" fill-opacity="1" stroke="none"/>
<circle clip-path="url(#clip752)" cx="1726.33" cy="191.98" r="10.8" fill="#000000" fill-rule="evenodd" fill-opacity="1" stroke="none"/>
<circle clip-path="url(#clip752)" cx="1820.81" cy="203.308" r="10.8" fill="#000000" fill-rule="evenodd" fill-opacity="1" stroke="none"/>
<circle clip-path="url(#clip752)" cx="1915.29" cy="199.119" r="10.8" fill="#000000" fill-rule="evenodd" fill-opacity="1" stroke="none"/>
<circle clip-path="url(#clip752)" cx="2009.78" cy="193.494" r="10.8" fill="#000000" fill-rule="evenodd" fill-opacity="1" stroke="none"/>
<circle clip-path="url(#clip752)" cx="2104.26" cy="198.521" r="10.8" fill="#000000" fill-rule="evenodd" fill-opacity="1" stroke="none"/>
<circle clip-path="url(#clip752)" cx="2198.75" cy="179.638" r="10.8" fill="#000000" fill-rule="evenodd" fill-opacity="1" stroke="none"/>
<circle clip-path="url(#clip752)" cx="2293.23" cy="153.285" r="10.8" fill="#000000" fill-rule="evenodd" fill-opacity="1" stroke="none"/>
<polyline clip-path="url(#clip752)" style="stroke:#1f77b4; stroke-linecap:round; stroke-linejoin:round; stroke-width:8; stroke-opacity:1; fill:none" points="309.067,998.704 403.551,979.92 498.035,1002.62 592.519,1049.13 687.003,1025.66 781.487,1067.54 875.971,1105.67 970.455,1147.82 1064.94,1142.27 1159.42,1150.72 1253.91,1171.58 1348.39,1185.42 1442.87,1200.26 1537.36,1219.09 1631.84,1216.97 1726.33,1242 1820.81,1268.47 1915.29,1263.7 2009.78,1294.13 2104.26,1316.02 2198.75,1319.89 2293.23,1318.15 "/>
<circle clip-path="url(#clip752)" cx="309.067" cy="998.704" r="10.8" fill="#1f77b4" fill-rule="evenodd" fill-opacity="1" stroke="none"/>
<circle clip-path="url(#clip752)" cx="403.551" cy="979.92" r="10.8" fill="#1f77b4" fill-rule="evenodd" fill-opacity="1" stroke="none"/>
<circle clip-path="url(#clip752)" cx="498.035" cy="1002.62" r="10.8" fill="#1f77b4" fill-rule="evenodd" fill-opacity="1" stroke="none"/>
<circle clip-path="url(#clip752)" cx="592.519" cy="1049.13" r="10.8" fill="#1f77b4" fill-rule="evenodd" fill-opacity="1" stroke="none"/>
<circle clip-path="url(#clip752)" cx="687.003" cy="1025.66" r="10.8" fill="#1f77b4" fill-rule="evenodd" fill-opacity="1" stroke="none"/>
<circle clip-path="url(#clip752)" cx="781.487" cy="1067.54" r="10.8" fill="#1f77b4" fill-rule="evenodd" fill-opacity="1" stroke="none"/>
<circle clip-path="url(#clip752)" cx="875.971" cy="1105.67" r="10.8" fill="#1f77b4" fill-rule="evenodd" fill-opacity="1" stroke="none"/>
<circle clip-path="url(#clip752)" cx="970.455" cy="1147.82" r="10.8" fill="#1f77b4" fill-rule="evenodd" fill-opacity="1" stroke="none"/>
<circle clip-path="url(#clip752)" cx="1064.94" cy="1142.27" r="10.8" fill="#1f77b4" fill-rule="evenodd" fill-opacity="1" stroke="none"/>
<circle clip-path="url(#clip752)" cx="1159.42" cy="1150.72" r="10.8" fill="#1f77b4" fill-rule="evenodd" fill-opacity="1" stroke="none"/>
<circle clip-path="url(#clip752)" cx="1253.91" cy="1171.58" r="10.8" fill="#1f77b4" fill-rule="evenodd" fill-opacity="1" stroke="none"/>
<circle clip-path="url(#clip752)" cx="1348.39" cy="1185.42" r="10.8" fill="#1f77b4" fill-rule="evenodd" fill-opacity="1" stroke="none"/>
<circle clip-path="url(#clip752)" cx="1442.87" cy="1200.26" r="10.8" fill="#1f77b4" fill-rule="evenodd" fill-opacity="1" stroke="none"/>
<circle clip-path="url(#clip752)" cx="1537.36" cy="1219.09" r="10.8" fill="#1f77b4" fill-rule="evenodd" fill-opacity="1" stroke="none"/>
<circle clip-path="url(#clip752)" cx="1631.84" cy="1216.97" r="10.8" fill="#1f77b4" fill-rule="evenodd" fill-opacity="1" stroke="none"/>
<circle clip-path="url(#clip752)" cx="1726.33" cy="1242" r="10.8" fill="#1f77b4" fill-rule="evenodd" fill-opacity="1" stroke="none"/>
<circle clip-path="url(#clip752)" cx="1820.81" cy="1268.47" r="10.8" fill="#1f77b4" fill-rule="evenodd" fill-opacity="1" stroke="none"/>
<circle clip-path="url(#clip752)" cx="1915.29" cy="1263.7" r="10.8" fill="#1f77b4" fill-rule="evenodd" fill-opacity="1" stroke="none"/>
<circle clip-path="url(#clip752)" cx="2009.78" cy="1294.13" r="10.8" fill="#1f77b4" fill-rule="evenodd" fill-opacity="1" stroke="none"/>
<circle clip-path="url(#clip752)" cx="2104.26" cy="1316.02" r="10.8" fill="#1f77b4" fill-rule="evenodd" fill-opacity="1" stroke="none"/>
<circle clip-path="url(#clip752)" cx="2198.75" cy="1319.89" r="10.8" fill="#1f77b4" fill-rule="evenodd" fill-opacity="1" stroke="none"/>
<circle clip-path="url(#clip752)" cx="2293.23" cy="1318.15" r="10.8" fill="#1f77b4" fill-rule="evenodd" fill-opacity="1" stroke="none"/>
<polyline clip-path="url(#clip752)" style="stroke:#ff7e0d; stroke-linecap:round; stroke-linejoin:round; stroke-width:8; stroke-opacity:1; fill:none" points="309.067,1182.94 403.551,1228.32 498.035,1240.01 592.519,1249.75 687.003,1243.98 781.487,1267.31 875.971,1285.59 970.455,1295.54 1064.94,1307.04 1159.42,1311.48 1253.91,1322.61 1348.39,1315.43 1442.87,1333.47 1537.36,1327.12 1631.84,1338.45 1726.33,1344.97 1820.81,1364.63 1915.29,1353.5 2009.78,1369.51 2104.26,1370 2198.75,1369.09 2293.23,1381.83 "/>
<circle clip-path="url(#clip752)" cx="309.067" cy="1182.94" r="10.8" fill="#ff7e0d" fill-rule="evenodd" fill-opacity="1" stroke="none"/>
<circle clip-path="url(#clip752)" cx="403.551" cy="1228.32" r="10.8" fill="#ff7e0d" fill-rule="evenodd" fill-opacity="1" stroke="none"/>
<circle clip-path="url(#clip752)" cx="498.035" cy="1240.01" r="10.8" fill="#ff7e0d" fill-rule="evenodd" fill-opacity="1" stroke="none"/>
<circle clip-path="url(#clip752)" cx="592.519" cy="1249.75" r="10.8" fill="#ff7e0d" fill-rule="evenodd" fill-opacity="1" stroke="none"/>
<circle clip-path="url(#clip752)" cx="687.003" cy="1243.98" r="10.8" fill="#ff7e0d" fill-rule="evenodd" fill-opacity="1" stroke="none"/>
<circle clip-path="url(#clip752)" cx="781.487" cy="1267.31" r="10.8" fill="#ff7e0d" fill-rule="evenodd" fill-opacity="1" stroke="none"/>
<circle clip-path="url(#clip752)" cx="875.971" cy="1285.59" r="10.8" fill="#ff7e0d" fill-rule="evenodd" fill-opacity="1" stroke="none"/>
<circle clip-path="url(#clip752)" cx="970.455" cy="1295.54" r="10.8" fill="#ff7e0d" fill-rule="evenodd" fill-opacity="1" stroke="none"/>
<circle clip-path="url(#clip752)" cx="1064.94" cy="1307.04" r="10.8" fill="#ff7e0d" fill-rule="evenodd" fill-opacity="1" stroke="none"/>
<circle clip-path="url(#clip752)" cx="1159.42" cy="1311.48" r="10.8" fill="#ff7e0d" fill-rule="evenodd" fill-opacity="1" stroke="none"/>
<circle clip-path="url(#clip752)" cx="1253.91" cy="1322.61" r="10.8" fill="#ff7e0d" fill-rule="evenodd" fill-opacity="1" stroke="none"/>
<circle clip-path="url(#clip752)" cx="1348.39" cy="1315.43" r="10.8" fill="#ff7e0d" fill-rule="evenodd" fill-opacity="1" stroke="none"/>
<circle clip-path="url(#clip752)" cx="1442.87" cy="1333.47" r="10.8" fill="#ff7e0d" fill-rule="evenodd" fill-opacity="1" stroke="none"/>
<circle clip-path="url(#clip752)" cx="1537.36" cy="1327.12" r="10.8" fill="#ff7e0d" fill-rule="evenodd" fill-opacity="1" stroke="none"/>
<circle clip-path="url(#clip752)" cx="1631.84" cy="1338.45" r="10.8" fill="#ff7e0d" fill-rule="evenodd" fill-opacity="1" stroke="none"/>
<circle clip-path="url(#clip752)" cx="1726.33" cy="1344.97" r="10.8" fill="#ff7e0d" fill-rule="evenodd" fill-opacity="1" stroke="none"/>
<circle clip-path="url(#clip752)" cx="1820.81" cy="1364.63" r="10.8" fill="#ff7e0d" fill-rule="evenodd" fill-opacity="1" stroke="none"/>
<circle clip-path="url(#clip752)" cx="1915.29" cy="1353.5" r="10.8" fill="#ff7e0d" fill-rule="evenodd" fill-opacity="1" stroke="none"/>
<circle clip-path="url(#clip752)" cx="2009.78" cy="1369.51" r="10.8" fill="#ff7e0d" fill-rule="evenodd" fill-opacity="1" stroke="none"/>
<circle clip-path="url(#clip752)" cx="2104.26" cy="1370" r="10.8" fill="#ff7e0d" fill-rule="evenodd" fill-opacity="1" stroke="none"/>
<circle clip-path="url(#clip752)" cx="2198.75" cy="1369.09" r="10.8" fill="#ff7e0d" fill-rule="evenodd" fill-opacity="1" stroke="none"/>
<circle clip-path="url(#clip752)" cx="2293.23" cy="1381.83" r="10.8" fill="#ff7e0d" fill-rule="evenodd" fill-opacity="1" stroke="none"/>
<polyline clip-path="url(#clip752)" style="stroke:#2ba02b; stroke-linecap:round; stroke-linejoin:round; stroke-width:8; stroke-opacity:1; fill:none" points="309.067,1208.44 403.551,1254.01 498.035,1254.93 592.519,1263.2 687.003,1259.93 781.487,1285.78 875.971,1311.25 970.455,1329.34 1064.94,1339.79 1159.42,1340.84 1253.91,1353.92 1348.39,1365.89 1442.87,1373.2 1537.36,1366.47 1631.84,1360.41 1726.33,1361.63 1820.81,1383.85 1915.29,1366.8 2009.78,1374.17 2104.26,1384.24 2198.75,1382.29 2293.23,1383.46 "/>
<circle clip-path="url(#clip752)" cx="309.067" cy="1208.44" r="10.8" fill="#2ba02b" fill-rule="evenodd" fill-opacity="1" stroke="none"/>
<circle clip-path="url(#clip752)" cx="403.551" cy="1254.01" r="10.8" fill="#2ba02b" fill-rule="evenodd" fill-opacity="1" stroke="none"/>
<circle clip-path="url(#clip752)" cx="498.035" cy="1254.93" r="10.8" fill="#2ba02b" fill-rule="evenodd" fill-opacity="1" stroke="none"/>
<circle clip-path="url(#clip752)" cx="592.519" cy="1263.2" r="10.8" fill="#2ba02b" fill-rule="evenodd" fill-opacity="1" stroke="none"/>
<circle clip-path="url(#clip752)" cx="687.003" cy="1259.93" r="10.8" fill="#2ba02b" fill-rule="evenodd" fill-opacity="1" stroke="none"/>
<circle clip-path="url(#clip752)" cx="781.487" cy="1285.78" r="10.8" fill="#2ba02b" fill-rule="evenodd" fill-opacity="1" stroke="none"/>
<circle clip-path="url(#clip752)" cx="875.971" cy="1311.25" r="10.8" fill="#2ba02b" fill-rule="evenodd" fill-opacity="1" stroke="none"/>
<circle clip-path="url(#clip752)" cx="970.455" cy="1329.34" r="10.8" fill="#2ba02b" fill-rule="evenodd" fill-opacity="1" stroke="none"/>
<circle clip-path="url(#clip752)" cx="1064.94" cy="1339.79" r="10.8" fill="#2ba02b" fill-rule="evenodd" fill-opacity="1" stroke="none"/>
<circle clip-path="url(#clip752)" cx="1159.42" cy="1340.84" r="10.8" fill="#2ba02b" fill-rule="evenodd" fill-opacity="1" stroke="none"/>
<circle clip-path="url(#clip752)" cx="1253.91" cy="1353.92" r="10.8" fill="#2ba02b" fill-rule="evenodd" fill-opacity="1" stroke="none"/>
<circle clip-path="url(#clip752)" cx="1348.39" cy="1365.89" r="10.8" fill="#2ba02b" fill-rule="evenodd" fill-opacity="1" stroke="none"/>
<circle clip-path="url(#clip752)" cx="1442.87" cy="1373.2" r="10.8" fill="#2ba02b" fill-rule="evenodd" fill-opacity="1" stroke="none"/>
<circle clip-path="url(#clip752)" cx="1537.36" cy="1366.47" r="10.8" fill="#2ba02b" fill-rule="evenodd" fill-opacity="1" stroke="none"/>
<circle clip-path="url(#clip752)" cx="1631.84" cy="1360.41" r="10.8" fill="#2ba02b" fill-rule="evenodd" fill-opacity="1" stroke="none"/>
<circle clip-path="url(#clip752)" cx="1726.33" cy="1361.63" r="10.8" fill="#2ba02b" fill-rule="evenodd" fill-opacity="1" stroke="none"/>
<circle clip-path="url(#clip752)" cx="1820.81" cy="1383.85" r="10.8" fill="#2ba02b" fill-rule="evenodd" fill-opacity="1" stroke="none"/>
<circle clip-path="url(#clip752)" cx="1915.29" cy="1366.8" r="10.8" fill="#2ba02b" fill-rule="evenodd" fill-opacity="1" stroke="none"/>
<circle clip-path="url(#clip752)" cx="2009.78" cy="1374.17" r="10.8" fill="#2ba02b" fill-rule="evenodd" fill-opacity="1" stroke="none"/>
<circle clip-path="url(#clip752)" cx="2104.26" cy="1384.24" r="10.8" fill="#2ba02b" fill-rule="evenodd" fill-opacity="1" stroke="none"/>
<circle clip-path="url(#clip752)" cx="2198.75" cy="1382.29" r="10.8" fill="#2ba02b" fill-rule="evenodd" fill-opacity="1" stroke="none"/>
<circle clip-path="url(#clip752)" cx="2293.23" cy="1383.46" r="10.8" fill="#2ba02b" fill-rule="evenodd" fill-opacity="1" stroke="none"/>
<path clip-path="url(#clip750)" d="M1056.24 352.309 L1546.05 352.309 L1546.05 93.1086 L1056.24 93.1086  Z" fill="#ffffff" fill-rule="evenodd" fill-opacity="1"/>
<polyline clip-path="url(#clip750)" style="stroke:#000000; stroke-linecap:round; stroke-linejoin:round; stroke-width:4; stroke-opacity:1; fill:none" points="1056.24,352.309 1546.05,352.309 1546.05,93.1086 1056.24,93.1086 1056.24,352.309 "/>
<polyline clip-path="url(#clip750)" style="stroke:#000000; stroke-linecap:round; stroke-linejoin:round; stroke-width:8; stroke-opacity:1; fill:none" stroke-dasharray="4, 8" points="1079.61,144.949 1219.83,144.949 "/>
<path clip-path="url(#clip750)" d="M1243.87 158.293 L1251.51 158.293 L1251.51 131.928 L1243.2 133.595 L1243.2 129.335 L1251.46 127.669 L1256.14 127.669 L1256.14 158.293 L1263.77 158.293 L1263.77 162.229 L1243.87 162.229 L1243.87 158.293 Z" fill="#000000" fill-rule="nonzero" fill-opacity="1" /><path clip-path="url(#clip750)" d="M1272.8 127.669 L1279.1 127.669 L1294.42 156.581 L1294.42 127.669 L1298.96 127.669 L1298.96 162.229 L1292.66 162.229 L1277.34 133.317 L1277.34 162.229 L1272.8 162.229 L1272.8 127.669 Z" fill="#000000" fill-rule="nonzero" fill-opacity="1" /><path clip-path="url(#clip750)" d="M1308.27 127.669 L1314.56 127.669 L1329.89 156.581 L1329.89 127.669 L1334.42 127.669 L1334.42 162.229 L1328.13 162.229 L1312.8 133.317 L1312.8 162.229 L1308.27 162.229 L1308.27 127.669 Z" fill="#000000" fill-rule="nonzero" fill-opacity="1" /><polyline clip-path="url(#clip750)" style="stroke:#1f77b4; stroke-linecap:round; stroke-linejoin:round; stroke-width:8; stroke-opacity:1; fill:none" points="1079.61,196.789 1219.83,196.789 "/>
<path clip-path="url(#clip750)" d="M1243.2 179.509 L1250.16 179.509 L1258.98 203.027 L1267.85 179.509 L1274.82 179.509 L1274.82 214.069 L1270.26 214.069 L1270.26 183.722 L1261.34 207.425 L1256.65 207.425 L1247.73 183.722 L1247.73 214.069 L1243.2 214.069 L1243.2 179.509 Z" fill="#000000" fill-rule="nonzero" fill-opacity="1" /><path clip-path="url(#clip750)" d="M1288.77 183.351 L1288.77 196.337 L1294.65 196.337 Q1297.92 196.337 1299.7 194.647 Q1301.48 192.958 1301.48 189.833 Q1301.48 186.731 1299.7 185.041 Q1297.92 183.351 1294.65 183.351 L1288.77 183.351 M1284.1 179.509 L1294.65 179.509 Q1300.46 179.509 1303.43 182.147 Q1306.41 184.763 1306.41 189.833 Q1306.41 194.948 1303.43 197.564 Q1300.46 200.18 1294.65 200.18 L1288.77 200.18 L1288.77 214.069 L1284.1 214.069 L1284.1 179.509 Z" fill="#000000" fill-rule="nonzero" fill-opacity="1" /><path clip-path="url(#clip750)" d="M1333.4 180.643 L1333.4 185.203 Q1330.74 183.93 1328.38 183.305 Q1326.02 182.68 1323.82 182.68 Q1320 182.68 1317.92 184.161 Q1315.86 185.643 1315.86 188.374 Q1315.86 190.666 1317.22 191.847 Q1318.61 193.004 1322.45 193.722 L1325.28 194.3 Q1330.51 195.296 1332.99 197.819 Q1335.49 200.319 1335.49 204.532 Q1335.49 209.555 1332.11 212.147 Q1328.75 214.74 1322.25 214.74 Q1319.79 214.74 1317.02 214.184 Q1314.26 213.629 1311.3 212.541 L1311.3 207.726 Q1314.14 209.323 1316.88 210.133 Q1319.61 210.944 1322.25 210.944 Q1326.25 210.944 1328.43 209.37 Q1330.6 207.796 1330.6 204.879 Q1330.6 202.333 1329.03 200.897 Q1327.48 199.462 1323.91 198.745 L1321.07 198.189 Q1315.83 197.147 1313.5 194.925 Q1311.16 192.703 1311.16 188.745 Q1311.16 184.161 1314.38 181.522 Q1317.62 178.884 1323.29 178.884 Q1325.72 178.884 1328.24 179.323 Q1330.76 179.763 1333.4 180.643 Z" fill="#000000" fill-rule="nonzero" fill-opacity="1" /><path clip-path="url(#clip750)" d="M1343.68 208.189 L1348.57 208.189 L1348.57 212.17 L1344.77 219.578 L1341.78 219.578 L1343.68 212.17 L1343.68 208.189 Z" fill="#000000" fill-rule="nonzero" fill-opacity="1" /><path clip-path="url(#clip750)" d="M1385.21 219.856 L1381.76 210.99 L1374.65 223.953 L1369.63 223.953 L1379.68 205.62 L1375.46 194.717 Q1374.33 191.8 1370.76 191.8 L1369.63 191.8 L1369.63 188.143 L1371.25 188.189 Q1377.22 188.351 1378.73 192.217 L1382.15 201.083 L1389.26 188.12 L1394.28 188.12 L1384.24 206.453 L1388.45 217.356 Q1389.58 220.272 1393.15 220.272 L1394.28 220.272 L1394.28 223.93 L1392.66 223.883 Q1386.69 223.721 1385.21 219.856 Z" fill="#000000" fill-rule="nonzero" fill-opacity="1" /><path clip-path="url(#clip750)" d="M1415.74 192.541 L1445.42 192.541 L1445.42 196.43 L1415.74 196.43 L1415.74 192.541 M1415.74 201.985 L1445.42 201.985 L1445.42 205.921 L1415.74 205.921 L1415.74 201.985 Z" fill="#000000" fill-rule="nonzero" fill-opacity="1" /><path clip-path="url(#clip750)" d="M1474.61 210.133 L1490.93 210.133 L1490.93 214.069 L1468.98 214.069 L1468.98 210.133 Q1471.64 207.379 1476.23 202.749 Q1480.83 198.096 1482.01 196.754 Q1484.26 194.231 1485.14 192.495 Q1486.04 190.735 1486.04 189.046 Q1486.04 186.291 1484.1 184.555 Q1482.18 182.819 1479.07 182.819 Q1476.88 182.819 1474.42 183.583 Q1471.99 184.347 1469.21 185.897 L1469.21 181.175 Q1472.04 180.041 1474.49 179.462 Q1476.94 178.884 1478.98 178.884 Q1484.35 178.884 1487.55 181.569 Q1490.74 184.254 1490.74 188.745 Q1490.74 190.874 1489.93 192.796 Q1489.14 194.694 1487.04 197.286 Q1486.46 197.958 1483.36 201.175 Q1480.25 204.37 1474.61 210.133 Z" fill="#000000" fill-rule="nonzero" fill-opacity="1" /><path clip-path="url(#clip750)" d="M1510.74 182.587 Q1507.13 182.587 1505.3 186.152 Q1503.5 189.694 1503.5 196.823 Q1503.5 203.93 1505.3 207.495 Q1507.13 211.036 1510.74 211.036 Q1514.38 211.036 1516.18 207.495 Q1518.01 203.93 1518.01 196.823 Q1518.01 189.694 1516.18 186.152 Q1514.38 182.587 1510.74 182.587 M1510.74 178.884 Q1516.55 178.884 1519.61 183.49 Q1522.69 188.073 1522.69 196.823 Q1522.69 205.55 1519.61 210.157 Q1516.55 214.74 1510.74 214.74 Q1504.93 214.74 1501.85 210.157 Q1498.8 205.55 1498.8 196.823 Q1498.8 188.073 1501.85 183.49 Q1504.93 178.884 1510.74 178.884 Z" fill="#000000" fill-rule="nonzero" fill-opacity="1" /><polyline clip-path="url(#clip750)" style="stroke:#ff7e0d; stroke-linecap:round; stroke-linejoin:round; stroke-width:8; stroke-opacity:1; fill:none" points="1079.61,248.629 1219.83,248.629 "/>
<path clip-path="url(#clip750)" d="M1243.2 231.349 L1250.16 231.349 L1258.98 254.867 L1267.85 231.349 L1274.82 231.349 L1274.82 265.909 L1270.26 265.909 L1270.26 235.562 L1261.34 259.265 L1256.65 259.265 L1247.73 235.562 L1247.73 265.909 L1243.2 265.909 L1243.2 231.349 Z" fill="#000000" fill-rule="nonzero" fill-opacity="1" /><path clip-path="url(#clip750)" d="M1288.77 235.191 L1288.77 248.177 L1294.65 248.177 Q1297.92 248.177 1299.7 246.487 Q1301.48 244.798 1301.48 241.673 Q1301.48 238.571 1299.7 236.881 Q1297.92 235.191 1294.65 235.191 L1288.77 235.191 M1284.1 231.349 L1294.65 231.349 Q1300.46 231.349 1303.43 233.987 Q1306.41 236.603 1306.41 241.673 Q1306.41 246.788 1303.43 249.404 Q1300.46 252.02 1294.65 252.02 L1288.77 252.02 L1288.77 265.909 L1284.1 265.909 L1284.1 231.349 Z" fill="#000000" fill-rule="nonzero" fill-opacity="1" /><path clip-path="url(#clip750)" d="M1333.4 232.483 L1333.4 237.043 Q1330.74 235.77 1328.38 235.145 Q1326.02 234.52 1323.82 234.52 Q1320 234.52 1317.92 236.001 Q1315.86 237.483 1315.86 240.214 Q1315.86 242.506 1317.22 243.687 Q1318.61 244.844 1322.45 245.562 L1325.28 246.14 Q1330.51 247.136 1332.99 249.659 Q1335.49 252.159 1335.49 256.372 Q1335.49 261.395 1332.11 263.987 Q1328.75 266.58 1322.25 266.58 Q1319.79 266.58 1317.02 266.024 Q1314.26 265.469 1311.3 264.381 L1311.3 259.566 Q1314.14 261.163 1316.88 261.973 Q1319.61 262.784 1322.25 262.784 Q1326.25 262.784 1328.43 261.21 Q1330.6 259.636 1330.6 256.719 Q1330.6 254.173 1329.03 252.737 Q1327.48 251.302 1323.91 250.585 L1321.07 250.029 Q1315.83 248.987 1313.5 246.765 Q1311.16 244.543 1311.16 240.585 Q1311.16 236.001 1314.38 233.362 Q1317.62 230.724 1323.29 230.724 Q1325.72 230.724 1328.24 231.163 Q1330.76 231.603 1333.4 232.483 Z" fill="#000000" fill-rule="nonzero" fill-opacity="1" /><path clip-path="url(#clip750)" d="M1343.68 260.029 L1348.57 260.029 L1348.57 264.01 L1344.77 271.418 L1341.78 271.418 L1343.68 264.01 L1343.68 260.029 Z" fill="#000000" fill-rule="nonzero" fill-opacity="1" /><path clip-path="url(#clip750)" d="M1385.21 271.696 L1381.76 262.83 L1374.65 275.793 L1369.63 275.793 L1379.68 257.46 L1375.46 246.557 Q1374.33 243.64 1370.76 243.64 L1369.63 243.64 L1369.63 239.983 L1371.25 240.029 Q1377.22 240.191 1378.73 244.057 L1382.15 252.923 L1389.26 239.96 L1394.28 239.96 L1384.24 258.293 L1388.45 269.196 Q1389.58 272.112 1393.15 272.112 L1394.28 272.112 L1394.28 275.77 L1392.66 275.723 Q1386.69 275.561 1385.21 271.696 Z" fill="#000000" fill-rule="nonzero" fill-opacity="1" /><path clip-path="url(#clip750)" d="M1415.74 244.381 L1445.42 244.381 L1445.42 248.27 L1415.74 248.27 L1415.74 244.381 M1415.74 253.825 L1445.42 253.825 L1445.42 257.761 L1415.74 257.761 L1415.74 253.825 Z" fill="#000000" fill-rule="nonzero" fill-opacity="1" /><path clip-path="url(#clip750)" d="M1484.75 247.274 Q1488.1 247.992 1489.98 250.261 Q1491.88 252.529 1491.88 255.862 Q1491.88 260.978 1488.36 263.779 Q1484.84 266.58 1478.36 266.58 Q1476.18 266.58 1473.87 266.14 Q1471.57 265.723 1469.12 264.867 L1469.12 260.353 Q1471.07 261.487 1473.38 262.066 Q1475.69 262.645 1478.22 262.645 Q1482.62 262.645 1484.91 260.909 Q1487.22 259.173 1487.22 255.862 Q1487.22 252.807 1485.07 251.094 Q1482.94 249.358 1479.12 249.358 L1475.09 249.358 L1475.09 245.515 L1479.31 245.515 Q1482.75 245.515 1484.58 244.149 Q1486.41 242.761 1486.41 240.168 Q1486.41 237.506 1484.51 236.094 Q1482.64 234.659 1479.12 234.659 Q1477.2 234.659 1475 235.075 Q1472.8 235.492 1470.16 236.372 L1470.16 232.205 Q1472.82 231.464 1475.14 231.094 Q1477.48 230.724 1479.54 230.724 Q1484.86 230.724 1487.96 233.154 Q1491.07 235.562 1491.07 239.682 Q1491.07 242.552 1489.42 244.543 Q1487.78 246.511 1484.75 247.274 Z" fill="#000000" fill-rule="nonzero" fill-opacity="1" /><path clip-path="url(#clip750)" d="M1510.74 234.427 Q1507.13 234.427 1505.3 237.992 Q1503.5 241.534 1503.5 248.663 Q1503.5 255.77 1505.3 259.335 Q1507.13 262.876 1510.74 262.876 Q1514.38 262.876 1516.18 259.335 Q1518.01 255.77 1518.01 248.663 Q1518.01 241.534 1516.18 237.992 Q1514.38 234.427 1510.74 234.427 M1510.74 230.724 Q1516.55 230.724 1519.61 235.33 Q1522.69 239.913 1522.69 248.663 Q1522.69 257.39 1519.61 261.997 Q1516.55 266.58 1510.74 266.58 Q1504.93 266.58 1501.85 261.997 Q1498.8 257.39 1498.8 248.663 Q1498.8 239.913 1501.85 235.33 Q1504.93 230.724 1510.74 230.724 Z" fill="#000000" fill-rule="nonzero" fill-opacity="1" /><polyline clip-path="url(#clip750)" style="stroke:#2ba02b; stroke-linecap:round; stroke-linejoin:round; stroke-width:8; stroke-opacity:1; fill:none" points="1079.61,300.469 1219.83,300.469 "/>
<path clip-path="url(#clip750)" d="M1243.2 283.189 L1250.16 283.189 L1258.98 306.707 L1267.85 283.189 L1274.82 283.189 L1274.82 317.749 L1270.26 317.749 L1270.26 287.402 L1261.34 311.105 L1256.65 311.105 L1247.73 287.402 L1247.73 317.749 L1243.2 317.749 L1243.2 283.189 Z" fill="#000000" fill-rule="nonzero" fill-opacity="1" /><path clip-path="url(#clip750)" d="M1288.77 287.031 L1288.77 300.017 L1294.65 300.017 Q1297.92 300.017 1299.7 298.327 Q1301.48 296.638 1301.48 293.513 Q1301.48 290.411 1299.7 288.721 Q1297.92 287.031 1294.65 287.031 L1288.77 287.031 M1284.1 283.189 L1294.65 283.189 Q1300.46 283.189 1303.43 285.827 Q1306.41 288.443 1306.41 293.513 Q1306.41 298.628 1303.43 301.244 Q1300.46 303.86 1294.65 303.86 L1288.77 303.86 L1288.77 317.749 L1284.1 317.749 L1284.1 283.189 Z" fill="#000000" fill-rule="nonzero" fill-opacity="1" /><path clip-path="url(#clip750)" d="M1333.4 284.323 L1333.4 288.883 Q1330.74 287.61 1328.38 286.985 Q1326.02 286.36 1323.82 286.36 Q1320 286.36 1317.92 287.841 Q1315.86 289.323 1315.86 292.054 Q1315.86 294.346 1317.22 295.527 Q1318.61 296.684 1322.45 297.402 L1325.28 297.98 Q1330.51 298.976 1332.99 301.499 Q1335.49 303.999 1335.49 308.212 Q1335.49 313.235 1332.11 315.827 Q1328.75 318.42 1322.25 318.42 Q1319.79 318.42 1317.02 317.864 Q1314.26 317.309 1311.3 316.221 L1311.3 311.406 Q1314.14 313.003 1316.88 313.813 Q1319.61 314.624 1322.25 314.624 Q1326.25 314.624 1328.43 313.05 Q1330.6 311.476 1330.6 308.559 Q1330.6 306.013 1329.03 304.577 Q1327.48 303.142 1323.91 302.425 L1321.07 301.869 Q1315.83 300.827 1313.5 298.605 Q1311.16 296.383 1311.16 292.425 Q1311.16 287.841 1314.38 285.202 Q1317.62 282.564 1323.29 282.564 Q1325.72 282.564 1328.24 283.003 Q1330.76 283.443 1333.4 284.323 Z" fill="#000000" fill-rule="nonzero" fill-opacity="1" /><path clip-path="url(#clip750)" d="M1343.68 311.869 L1348.57 311.869 L1348.57 315.85 L1344.77 323.258 L1341.78 323.258 L1343.68 315.85 L1343.68 311.869 Z" fill="#000000" fill-rule="nonzero" fill-opacity="1" /><path clip-path="url(#clip750)" d="M1385.21 323.536 L1381.76 314.67 L1374.65 327.633 L1369.63 327.633 L1379.68 309.3 L1375.46 298.397 Q1374.33 295.48 1370.76 295.48 L1369.63 295.48 L1369.63 291.823 L1371.25 291.869 Q1377.22 292.031 1378.73 295.897 L1382.15 304.763 L1389.26 291.8 L1394.28 291.8 L1384.24 310.133 L1388.45 321.036 Q1389.58 323.952 1393.15 323.952 L1394.28 323.952 L1394.28 327.61 L1392.66 327.563 Q1386.69 327.401 1385.21 323.536 Z" fill="#000000" fill-rule="nonzero" fill-opacity="1" /><path clip-path="url(#clip750)" d="M1415.74 296.221 L1445.42 296.221 L1445.42 300.11 L1415.74 300.11 L1415.74 296.221 M1415.74 305.665 L1445.42 305.665 L1445.42 309.601 L1415.74 309.601 L1415.74 305.665 Z" fill="#000000" fill-rule="nonzero" fill-opacity="1" /><path clip-path="url(#clip750)" d="M1483.43 287.263 L1471.62 305.712 L1483.43 305.712 L1483.43 287.263 M1482.2 283.189 L1488.08 283.189 L1488.08 305.712 L1493.01 305.712 L1493.01 309.601 L1488.08 309.601 L1488.08 317.749 L1483.43 317.749 L1483.43 309.601 L1467.82 309.601 L1467.82 305.087 L1482.2 283.189 Z" fill="#000000" fill-rule="nonzero" fill-opacity="1" /><path clip-path="url(#clip750)" d="M1510.74 286.267 Q1507.13 286.267 1505.3 289.832 Q1503.5 293.374 1503.5 300.503 Q1503.5 307.61 1505.3 311.175 Q1507.13 314.716 1510.74 314.716 Q1514.38 314.716 1516.18 311.175 Q1518.01 307.61 1518.01 300.503 Q1518.01 293.374 1516.18 289.832 Q1514.38 286.267 1510.74 286.267 M1510.74 282.564 Q1516.55 282.564 1519.61 287.17 Q1522.69 291.753 1522.69 300.503 Q1522.69 309.23 1519.61 313.837 Q1516.55 318.42 1510.74 318.42 Q1504.93 318.42 1501.85 313.837 Q1498.8 309.23 1498.8 300.503 Q1498.8 291.753 1501.85 287.17 Q1504.93 282.564 1510.74 282.564 Z" fill="#000000" fill-rule="nonzero" fill-opacity="1" /></svg>
