<?xml version="1.0" encoding="utf-8"?>
<svg xmlns="http://www.w3.org/2000/svg" xmlns:xlink="http://www.w3.org/1999/xlink" width="1000" height="500" viewBox="0 0 4000 2000">
<defs>
  <clipPath id="clip550">
    <rect x="0" y="0" width="4000" height="2000"/>
  </clipPath>
</defs>
<path clip-path="url(#clip550)" d="M0 2000 L4000 2000 L4000 0 L0 0  Z" fill="#ffffff" fill-rule="evenodd" fill-opacity="1"/>
<defs>
  <clipPath id="clip551">
    <rect x="800" y="0" width="2801" height="2000"/>
  </clipPath>
</defs>
<path clip-path="url(#clip550)" d="M308.101 1763.75 L3070.67 1763.75 L3070.67 262.064 L308.101 262.064  Z" fill="#ffffff" fill-rule="evenodd" fill-opacity="1"/>
<defs>
  <clipPath id="clip552">
    <rect x="308" y="262" width="2764" height="1503"/>
  </clipPath>
</defs>
<polyline clip-path="url(#clip552)" style="stroke:#000000; stroke-linecap:round; stroke-linejoin:round; stroke-width:2; stroke-opacity:0.1; fill:none" points="359.962,1763.75 359.962,262.064 "/>
<polyline clip-path="url(#clip552)" style="stroke:#000000; stroke-linecap:round; stroke-linejoin:round; stroke-width:2; stroke-opacity:0.1; fill:none" points="1018.09,1763.75 1018.09,262.064 "/>
<polyline clip-path="url(#clip552)" style="stroke:#000000; stroke-linecap:round; stroke-linejoin:round; stroke-width:2; stroke-opacity:0.1; fill:none" points="1676.22,1763.75 1676.22,262.064 "/>
<polyline clip-path="url(#clip552)" style="stroke:#000000; stroke-linecap:round; stroke-linejoin:round; stroke-width:2; stroke-opacity:0.1; fill:none" points="2334.35,1763.75 2334.35,262.064 "/>
<polyline clip-path="url(#clip552)" style="stroke:#000000; stroke-linecap:round; stroke-linejoin:round; stroke-width:2; stroke-opacity:0.1; fill:none" points="2992.48,1763.75 2992.48,262.064 "/>
<polyline clip-path="url(#clip552)" style="stroke:#000000; stroke-linecap:round; stroke-linejoin:round; stroke-width:2; stroke-opacity:0.1; fill:none" points="308.101,1708.45 3070.67,1708.45 "/>
<polyline clip-path="url(#clip552)" style="stroke:#000000; stroke-linecap:round; stroke-linejoin:round; stroke-width:2; stroke-opacity:0.1; fill:none" points="308.101,1427.84 3070.67,1427.84 "/>
<polyline clip-path="url(#clip552)" style="stroke:#000000; stroke-linecap:round; stroke-linejoin:round; stroke-width:2; stroke-opacity:0.1; fill:none" points="308.101,1147.22 3070.67,1147.22 "/>
<polyline clip-path="url(#clip552)" style="stroke:#000000; stroke-linecap:round; stroke-linejoin:round; stroke-width:2; stroke-opacity:0.1; fill:none" points="308.101,866.612 3070.67,866.612 "/>
<polyline clip-path="url(#clip552)" style="stroke:#000000; stroke-linecap:round; stroke-linejoin:round; stroke-width:2; stroke-opacity:0.1; fill:none" points="308.101,586 3070.67,586 "/>
<polyline clip-path="url(#clip552)" style="stroke:#000000; stroke-linecap:round; stroke-linejoin:round; stroke-width:2; stroke-opacity:0.1; fill:none" points="308.101,305.388 3070.67,305.388 "/>
<polyline clip-path="url(#clip550)" style="stroke:#000000; stroke-linecap:round; stroke-linejoin:round; stroke-width:4; stroke-opacity:1; fill:none" points="308.101,1763.75 3070.67,1763.75 "/>
<polyline clip-path="url(#clip550)" style="stroke:#000000; stroke-linecap:round; stroke-linejoin:round; stroke-width:4; stroke-opacity:1; fill:none" points="359.962,1763.75 359.962,1744.85 "/>
<polyline clip-path="url(#clip550)" style="stroke:#000000; stroke-linecap:round; stroke-linejoin:round; stroke-width:4; stroke-opacity:1; fill:none" points="1018.09,1763.75 1018.09,1744.85 "/>
<polyline clip-path="url(#clip550)" style="stroke:#000000; stroke-linecap:round; stroke-linejoin:round; stroke-width:4; stroke-opacity:1; fill:none" points="1676.22,1763.75 1676.22,1744.85 "/>
<polyline clip-path="url(#clip550)" style="stroke:#000000; stroke-linecap:round; stroke-linejoin:round; stroke-width:4; stroke-opacity:1; fill:none" points="2334.35,1763.75 2334.35,1744.85 "/>
<polyline clip-path="url(#clip550)" style="stroke:#000000; stroke-linecap:round; stroke-linejoin:round; stroke-width:4; stroke-opacity:1; fill:none" points="2992.48,1763.75 2992.48,1744.85 "/>
<path clip-path="url(#clip550)" d="M359.962 1813.33 Q354.545 1813.33 351.802 1818.67 Q349.094 1823.99 349.094 1834.68 Q349.094 1845.34 351.802 1850.69 Q354.545 1856 359.962 1856 Q365.413 1856 368.121 1850.69 Q370.864 1845.34 370.864 1834.68 Q370.864 1823.99 368.121 1818.67 Q365.413 1813.33 359.962 1813.33 M359.962 1807.77 Q368.677 1807.77 373.26 1814.68 Q377.878 1821.55 377.878 1834.68 Q377.878 1847.77 373.26 1854.68 Q368.677 1861.55 359.962 1861.55 Q351.246 1861.55 346.628 1854.68 Q342.045 1847.77 342.045 1834.68 Q342.045 1821.55 346.628 1814.68 Q351.246 1807.77 359.962 1807.77 Z" fill="#000000" fill-rule="nonzero" fill-opacity="1" /><path clip-path="url(#clip550)" d="M986.999 1854.64 L1011.48 1854.64 L1011.48 1860.55 L978.561 1860.55 L978.561 1854.64 Q982.554 1850.51 989.429 1843.57 Q996.339 1836.59 998.11 1834.58 Q1001.48 1830.79 1002.8 1828.19 Q1004.15 1825.55 1004.15 1823.01 Q1004.15 1818.88 1001.23 1816.28 Q998.353 1813.67 993.7 1813.67 Q990.401 1813.67 986.721 1814.82 Q983.075 1815.96 978.908 1818.29 L978.908 1811.21 Q983.144 1809.51 986.825 1808.64 Q990.506 1807.77 993.561 1807.77 Q1001.62 1807.77 1006.41 1811.8 Q1011.2 1815.83 1011.2 1822.56 Q1011.2 1825.76 1009.98 1828.64 Q1008.8 1831.49 1005.64 1835.37 Q1004.78 1836.38 1000.12 1841.21 Q995.471 1846 986.999 1854.64 Z" fill="#000000" fill-rule="nonzero" fill-opacity="1" /><path clip-path="url(#clip550)" d="M1026.27 1808.71 L1053.8 1808.71 L1053.8 1814.61 L1032.69 1814.61 L1032.69 1827.32 Q1034.22 1826.8 1035.75 1826.55 Q1037.28 1826.28 1038.8 1826.28 Q1047.48 1826.28 1052.55 1831.03 Q1057.62 1835.79 1057.62 1843.92 Q1057.62 1852.28 1052.41 1856.94 Q1047.21 1861.55 1037.73 1861.55 Q1034.46 1861.55 1031.06 1861 Q1027.69 1860.44 1024.08 1859.33 L1024.08 1852.28 Q1027.21 1853.99 1030.54 1854.82 Q1033.87 1855.65 1037.59 1855.65 Q1043.6 1855.65 1047.1 1852.49 Q1050.61 1849.33 1050.61 1843.92 Q1050.61 1838.5 1047.1 1835.34 Q1043.6 1832.18 1037.59 1832.18 Q1034.78 1832.18 1031.96 1832.8 Q1029.19 1833.43 1026.27 1834.75 L1026.27 1808.71 Z" fill="#000000" fill-rule="nonzero" fill-opacity="1" /><path clip-path="url(#clip550)" d="M1638.27 1808.71 L1665.81 1808.71 L1665.81 1814.61 L1644.7 1814.61 L1644.7 1827.32 Q1646.22 1826.8 1647.75 1826.55 Q1649.28 1826.28 1650.81 1826.28 Q1659.49 1826.28 1664.56 1831.03 Q1669.63 1835.79 1669.63 1843.92 Q1669.63 1852.28 1664.42 1856.94 Q1659.21 1861.55 1649.73 1861.55 Q1646.47 1861.55 1643.06 1861 Q1639.7 1860.44 1636.08 1859.33 L1636.08 1852.28 Q1639.21 1853.99 1642.54 1854.82 Q1645.88 1855.65 1649.59 1855.65 Q1655.6 1855.65 1659.1 1852.49 Q1662.61 1849.33 1662.61 1843.92 Q1662.61 1838.5 1659.1 1835.34 Q1655.6 1832.18 1649.59 1832.18 Q1646.78 1832.18 1643.97 1832.8 Q1641.19 1833.43 1638.27 1834.75 L1638.27 1808.71 Z" fill="#000000" fill-rule="nonzero" fill-opacity="1" /><path clip-path="url(#clip550)" d="M1698.44 1813.33 Q1693.03 1813.33 1690.29 1818.67 Q1687.58 1823.99 1687.58 1834.68 Q1687.58 1845.34 1690.29 1850.69 Q1693.03 1856 1698.44 1856 Q1703.9 1856 1706.6 1850.69 Q1709.35 1845.34 1709.35 1834.68 Q1709.35 1823.99 1706.6 1818.67 Q1703.9 1813.33 1698.44 1813.33 M1698.44 1807.77 Q1707.16 1807.77 1711.74 1814.68 Q1716.36 1821.55 1716.36 1834.68 Q1716.36 1847.77 1711.74 1854.68 Q1707.16 1861.55 1698.44 1861.55 Q1689.73 1861.55 1685.11 1854.68 Q1680.53 1847.77 1680.53 1834.68 Q1680.53 1821.55 1685.11 1814.68 Q1689.73 1807.77 1698.44 1807.77 Z" fill="#000000" fill-rule="nonzero" fill-opacity="1" /><path clip-path="url(#clip550)" d="M2295.13 1808.71 L2328.47 1808.71 L2328.47 1811.69 L2309.65 1860.55 L2302.32 1860.55 L2320.03 1814.61 L2295.13 1814.61 L2295.13 1808.71 Z" fill="#000000" fill-rule="nonzero" fill-opacity="1" /><path clip-path="url(#clip550)" d="M2342.22 1808.71 L2369.75 1808.71 L2369.75 1814.61 L2348.64 1814.61 L2348.64 1827.32 Q2350.17 1826.8 2351.7 1826.55 Q2353.22 1826.28 2354.75 1826.28 Q2363.43 1826.28 2368.5 1831.03 Q2373.57 1835.79 2373.57 1843.92 Q2373.57 1852.28 2368.36 1856.94 Q2363.16 1861.55 2353.68 1861.55 Q2350.41 1861.55 2347.01 1861 Q2343.64 1860.44 2340.03 1859.33 L2340.03 1852.28 Q2343.16 1853.99 2346.49 1854.82 Q2349.82 1855.65 2353.54 1855.65 Q2359.54 1855.65 2363.05 1852.49 Q2366.56 1849.33 2366.56 1843.92 Q2366.56 1838.5 2363.05 1835.34 Q2359.54 1832.18 2353.54 1832.18 Q2350.72 1832.18 2347.91 1832.8 Q2345.13 1833.43 2342.22 1834.75 L2342.22 1808.71 Z" fill="#000000" fill-rule="nonzero" fill-opacity="1" /><path clip-path="url(#clip550)" d="M2931.89 1854.64 L2943.35 1854.64 L2943.35 1815.1 L2930.89 1817.6 L2930.89 1811.21 L2943.28 1808.71 L2950.3 1808.71 L2950.3 1854.64 L2961.75 1854.64 L2961.75 1860.55 L2931.89 1860.55 L2931.89 1854.64 Z" fill="#000000" fill-rule="nonzero" fill-opacity="1" /><path clip-path="url(#clip550)" d="M2990.92 1813.33 Q2985.5 1813.33 2982.76 1818.67 Q2980.05 1823.99 2980.05 1834.68 Q2980.05 1845.34 2982.76 1850.69 Q2985.5 1856 2990.92 1856 Q2996.37 1856 2999.08 1850.69 Q3001.82 1845.34 3001.82 1834.68 Q3001.82 1823.99 2999.08 1818.67 Q2996.37 1813.33 2990.92 1813.33 M2990.92 1807.77 Q2999.64 1807.77 3004.22 1814.68 Q3008.84 1821.55 3008.84 1834.68 Q3008.84 1847.77 3004.22 1854.68 Q2999.64 1861.55 2990.92 1861.55 Q2982.21 1861.55 2977.59 1854.68 Q2973 1847.77 2973 1834.68 Q2973 1821.55 2977.59 1814.68 Q2982.21 1807.77 2990.92 1807.77 Z" fill="#000000" fill-rule="nonzero" fill-opacity="1" /><path clip-path="url(#clip550)" d="M3036.16 1813.33 Q3030.75 1813.33 3028 1818.67 Q3025.3 1823.99 3025.3 1834.68 Q3025.3 1845.34 3028 1850.69 Q3030.75 1856 3036.16 1856 Q3041.62 1856 3044.32 1850.69 Q3047.07 1845.34 3047.07 1834.68 Q3047.07 1823.99 3044.32 1818.67 Q3041.62 1813.33 3036.16 1813.33 M3036.16 1807.77 Q3044.88 1807.77 3049.46 1814.68 Q3054.08 1821.55 3054.08 1834.68 Q3054.08 1847.77 3049.46 1854.68 Q3044.88 1861.55 3036.16 1861.55 Q3027.45 1861.55 3022.83 1854.68 Q3018.25 1847.77 3018.25 1834.68 Q3018.25 1821.55 3022.83 1814.68 Q3027.45 1807.77 3036.16 1807.77 Z" fill="#000000" fill-rule="nonzero" fill-opacity="1" /><path clip-path="url(#clip550)" d="M1628.55 1912.76 L1628.55 1922.88 L1640.61 1922.88 L1640.61 1927.44 L1628.55 1927.44 L1628.55 1946.79 Q1628.55 1951.15 1629.72 1952.39 Q1630.93 1953.63 1634.59 1953.63 L1640.61 1953.63 L1640.61 1958.53 L1634.59 1958.53 Q1627.81 1958.53 1625.23 1956.02 Q1622.66 1953.47 1622.66 1946.79 L1622.66 1927.44 L1618.36 1927.44 L1618.36 1922.88 L1622.66 1922.88 L1622.66 1912.76 L1628.55 1912.76 Z" fill="#000000" fill-rule="nonzero" fill-opacity="1" /><path clip-path="url(#clip550)" d="M1648.31 1922.88 L1654.17 1922.88 L1654.17 1958.53 L1648.31 1958.53 L1648.31 1922.88 M1648.31 1909.01 L1654.17 1909.01 L1654.17 1916.42 L1648.31 1916.42 L1648.31 1909.01 Z" fill="#000000" fill-rule="nonzero" fill-opacity="1" /><path clip-path="url(#clip550)" d="M1694.18 1929.73 Q1696.37 1925.78 1699.43 1923.9 Q1702.48 1922.02 1706.62 1922.02 Q1712.19 1922.02 1715.21 1925.94 Q1718.24 1929.82 1718.24 1937.02 L1718.24 1958.53 L1712.35 1958.53 L1712.35 1937.21 Q1712.35 1932.08 1710.54 1929.6 Q1708.72 1927.12 1705 1927.12 Q1700.45 1927.12 1697.8 1930.14 Q1695.16 1933.16 1695.16 1938.38 L1695.16 1958.53 L1689.27 1958.53 L1689.27 1937.21 Q1689.27 1932.05 1687.46 1929.6 Q1685.65 1927.12 1681.86 1927.12 Q1677.37 1927.12 1674.73 1930.17 Q1672.09 1933.2 1672.09 1938.38 L1672.09 1958.53 L1666.2 1958.53 L1666.2 1922.88 L1672.09 1922.88 L1672.09 1928.42 Q1674.09 1925.14 1676.89 1923.58 Q1679.69 1922.02 1683.54 1922.02 Q1687.43 1922.02 1690.13 1924 Q1692.87 1925.97 1694.18 1929.73 Z" fill="#000000" fill-rule="nonzero" fill-opacity="1" /><path clip-path="url(#clip550)" d="M1760.41 1939.24 L1760.41 1942.11 L1733.48 1942.11 Q1733.87 1948.16 1737.11 1951.34 Q1740.39 1954.49 1746.22 1954.49 Q1749.59 1954.49 1752.74 1953.66 Q1755.92 1952.83 1759.04 1951.18 L1759.04 1956.72 Q1755.89 1958.05 1752.58 1958.75 Q1749.27 1959.45 1745.87 1959.45 Q1737.34 1959.45 1732.34 1954.49 Q1727.37 1949.52 1727.37 1941.06 Q1727.37 1932.31 1732.08 1927.18 Q1736.83 1922.02 1744.85 1922.02 Q1752.04 1922.02 1756.21 1926.67 Q1760.41 1931.29 1760.41 1939.24 M1754.55 1937.52 Q1754.49 1932.72 1751.85 1929.85 Q1749.24 1926.99 1744.91 1926.99 Q1740.01 1926.99 1737.05 1929.76 Q1734.12 1932.53 1733.67 1937.56 L1754.55 1937.52 Z" fill="#000000" fill-rule="nonzero" fill-opacity="1" /><polyline clip-path="url(#clip550)" style="stroke:#000000; stroke-linecap:round; stroke-linejoin:round; stroke-width:4; stroke-opacity:1; fill:none" points="308.101,1763.75 308.101,262.064 "/>
<polyline clip-path="url(#clip550)" style="stroke:#000000; stroke-linecap:round; stroke-linejoin:round; stroke-width:4; stroke-opacity:1; fill:none" points="308.101,1708.45 322.425,1708.45 "/>
<polyline clip-path="url(#clip550)" style="stroke:#000000; stroke-linecap:round; stroke-linejoin:round; stroke-width:4; stroke-opacity:1; fill:none" points="308.101,1427.84 322.425,1427.84 "/>
<polyline clip-path="url(#clip550)" style="stroke:#000000; stroke-linecap:round; stroke-linejoin:round; stroke-width:4; stroke-opacity:1; fill:none" points="308.101,1147.22 322.425,1147.22 "/>
<polyline clip-path="url(#clip550)" style="stroke:#000000; stroke-linecap:round; stroke-linejoin:round; stroke-width:4; stroke-opacity:1; fill:none" points="308.101,866.612 322.425,866.612 "/>
<polyline clip-path="url(#clip550)" style="stroke:#000000; stroke-linecap:round; stroke-linejoin:round; stroke-width:4; stroke-opacity:1; fill:none" points="308.101,586 322.425,586 "/>
<polyline clip-path="url(#clip550)" style="stroke:#000000; stroke-linecap:round; stroke-linejoin:round; stroke-width:4; stroke-opacity:1; fill:none" points="308.101,305.388 322.425,305.388 "/>
<path clip-path="url(#clip550)" d="M157.372 1709.13 L201.886 1709.13 L201.886 1715.03 L157.372 1715.03 L157.372 1709.13 Z" fill="#000000" fill-rule="nonzero" fill-opacity="1" /><path clip-path="url(#clip550)" d="M218.24 1728.47 L229.698 1728.47 L229.698 1688.92 L217.233 1691.42 L217.233 1685.03 L229.629 1682.53 L236.643 1682.53 L236.643 1728.47 L248.101 1728.47 L248.101 1734.37 L218.24 1734.37 L218.24 1728.47 Z" fill="#000000" fill-rule="nonzero" fill-opacity="1" /><path clip-path="url(#clip550)" d="M230.184 1406.53 Q224.768 1406.53 222.025 1411.88 Q219.316 1417.19 219.316 1427.89 Q219.316 1438.55 222.025 1443.9 Q224.768 1449.21 230.184 1449.21 Q235.636 1449.21 238.344 1443.9 Q241.087 1438.55 241.087 1427.89 Q241.087 1417.19 238.344 1411.88 Q235.636 1406.53 230.184 1406.53 M230.184 1400.98 Q238.9 1400.98 243.483 1407.89 Q248.101 1414.76 248.101 1427.89 Q248.101 1440.98 243.483 1447.89 Q238.9 1454.76 230.184 1454.76 Q221.469 1454.76 216.851 1447.89 Q212.268 1440.98 212.268 1427.89 Q212.268 1414.76 216.851 1407.89 Q221.469 1400.98 230.184 1400.98 Z" fill="#000000" fill-rule="nonzero" fill-opacity="1" /><path clip-path="url(#clip550)" d="M218.24 1167.24 L229.698 1167.24 L229.698 1127.69 L217.233 1130.19 L217.233 1123.8 L229.629 1121.3 L236.643 1121.3 L236.643 1167.24 L248.101 1167.24 L248.101 1173.14 L218.24 1173.14 L218.24 1167.24 Z" fill="#000000" fill-rule="nonzero" fill-opacity="1" /><path clip-path="url(#clip550)" d="M223.622 886.629 L248.101 886.629 L248.101 892.532 L215.184 892.532 L215.184 886.629 Q219.178 882.497 226.052 875.553 Q232.962 868.574 234.733 866.56 Q238.101 862.775 239.42 860.171 Q240.775 857.532 240.775 854.998 Q240.775 850.866 237.858 848.262 Q234.976 845.657 230.323 845.657 Q227.025 845.657 223.344 846.803 Q219.698 847.949 215.532 850.275 L215.532 843.192 Q219.768 841.491 223.448 840.623 Q227.129 839.755 230.184 839.755 Q238.24 839.755 243.032 843.782 Q247.823 847.81 247.823 854.546 Q247.823 857.741 246.608 860.623 Q245.427 863.47 242.268 867.359 Q241.4 868.366 236.747 873.192 Q232.094 877.984 223.622 886.629 Z" fill="#000000" fill-rule="nonzero" fill-opacity="1" /><path clip-path="url(#clip550)" d="M237.407 583.969 Q242.441 585.045 245.254 588.448 Q248.101 591.851 248.101 596.851 Q248.101 604.524 242.823 608.726 Q237.545 612.927 227.823 612.927 Q224.559 612.927 221.087 612.267 Q217.65 611.642 213.969 610.358 L213.969 603.587 Q216.886 605.288 220.358 606.156 Q223.83 607.024 227.615 607.024 Q234.212 607.024 237.65 604.42 Q241.122 601.816 241.122 596.851 Q241.122 592.267 237.893 589.698 Q234.698 587.094 228.969 587.094 L222.927 587.094 L222.927 581.33 L229.247 581.33 Q234.42 581.33 237.164 579.281 Q239.907 577.198 239.907 573.309 Q239.907 569.316 237.059 567.198 Q234.247 565.045 228.969 565.045 Q226.087 565.045 222.789 565.67 Q219.49 566.295 215.532 567.615 L215.532 561.365 Q219.525 560.254 222.997 559.698 Q226.504 559.143 229.594 559.143 Q237.58 559.143 242.233 562.788 Q246.886 566.399 246.886 572.58 Q246.886 576.885 244.42 579.872 Q241.955 582.823 237.407 583.969 Z" fill="#000000" fill-rule="nonzero" fill-opacity="1" /><path clip-path="url(#clip550)" d="M233.726 285.579 L216.018 313.252 L233.726 313.252 L233.726 285.579 M231.886 279.468 L240.705 279.468 L240.705 313.252 L248.101 313.252 L248.101 319.086 L240.705 319.086 L240.705 331.308 L233.726 331.308 L233.726 319.086 L210.323 319.086 L210.323 312.315 L231.886 279.468 Z" fill="#000000" fill-rule="nonzero" fill-opacity="1" /><path clip-path="url(#clip550)" d="M47.4683 996.291 L64.8149 1009.18 L83.1163 995.623 L83.1163 1002.53 L69.1117 1012.91 L83.1163 1023.28 L83.1163 1030.19 L64.4648 1016.34 L47.4683 1029.01 L47.4683 1022.1 L60.1679 1012.65 L47.4683 1003.2 L47.4683 996.291 Z" fill="#000000" fill-rule="nonzero" fill-opacity="1" /><path clip-path="url(#clip550)" d="M886.78 44.3209 L886.78 52.3012 Q882.121 50.0732 877.989 48.9795 Q873.857 47.8857 870.009 47.8857 Q863.325 47.8857 859.679 50.4783 Q856.074 53.0709 856.074 57.851 Q856.074 61.8614 858.464 63.9273 Q860.894 65.9528 867.619 67.2086 L872.561 68.2213 Q881.716 69.9632 886.051 74.3787 Q890.426 78.7536 890.426 86.1263 Q890.426 94.9167 884.511 99.4537 Q878.637 103.991 867.254 103.991 Q862.96 103.991 858.099 103.019 Q853.279 102.046 848.094 100.142 L848.094 91.7165 Q853.076 94.5116 857.856 95.9295 Q862.636 97.3473 867.254 97.3473 Q874.262 97.3473 878.07 94.5927 Q881.878 91.838 881.878 86.7339 Q881.878 82.2779 879.124 79.7664 Q876.409 77.2548 870.171 75.999 L865.188 75.0268 Q856.033 73.2039 851.942 69.315 Q847.851 65.4262 847.851 58.4991 Q847.851 50.4783 853.481 45.8603 Q859.153 41.2423 869.077 41.2423 Q873.331 41.2423 877.746 42.0119 Q882.162 42.7816 886.78 44.3209 Z" fill="#000000" fill-rule="nonzero" fill-opacity="1" /><path clip-path="url(#clip550)" d="M923.481 80.0094 Q914.447 80.0094 910.964 82.0754 Q907.48 84.1413 907.48 89.1239 Q907.48 93.0938 910.072 95.4434 Q912.706 97.7524 917.202 97.7524 Q923.4 97.7524 927.127 93.3774 Q930.894 88.9619 930.894 81.6703 L930.894 80.0094 L923.481 80.0094 M938.348 76.9307 L938.348 102.816 L930.894 102.816 L930.894 95.9295 Q928.342 100.061 924.534 102.046 Q920.726 103.991 915.217 103.991 Q908.25 103.991 904.118 100.102 Q900.026 96.1725 900.026 89.6101 Q900.026 81.9538 905.13 78.065 Q910.275 74.1761 920.443 74.1761 L930.894 74.1761 L930.894 73.4469 Q930.894 68.3023 927.491 65.5072 Q924.129 62.6715 918.012 62.6715 Q914.123 62.6715 910.437 63.6032 Q906.751 64.535 903.348 66.3984 L903.348 59.5118 Q907.439 57.932 911.288 57.1623 Q915.136 56.3521 918.782 56.3521 Q928.626 56.3521 933.487 61.4563 Q938.348 66.5604 938.348 76.9307 Z" fill="#000000" fill-rule="nonzero" fill-opacity="1" /><path clip-path="url(#clip550)" d="M989.025 66.1553 Q991.82 61.1322 995.709 58.7422 Q999.597 56.3521 1004.86 56.3521 Q1011.95 56.3521 1015.8 61.3347 Q1019.65 66.2768 1019.65 75.4319 L1019.65 102.816 L1012.16 102.816 L1012.16 75.6749 Q1012.16 69.153 1009.85 65.9933 Q1007.54 62.8336 1002.8 62.8336 Q997.005 62.8336 993.643 66.6819 Q990.28 70.5303 990.28 77.1738 L990.28 102.816 L982.786 102.816 L982.786 75.6749 Q982.786 69.1125 980.477 65.9933 Q978.168 62.8336 973.348 62.8336 Q967.636 62.8336 964.274 66.7224 Q960.911 70.5708 960.911 77.1738 L960.911 102.816 L953.417 102.816 L953.417 57.4459 L960.911 57.4459 L960.911 64.4944 Q963.463 60.322 967.028 58.3371 Q970.593 56.3521 975.495 56.3521 Q980.437 56.3521 983.88 58.8637 Q987.364 61.3752 989.025 66.1553 Z" fill="#000000" fill-rule="nonzero" fill-opacity="1" /><path clip-path="url(#clip550)" d="M1041.73 96.0105 L1041.73 120.073 L1034.23 120.073 L1034.23 57.4459 L1041.73 57.4459 L1041.73 64.3324 Q1044.08 60.2815 1047.64 58.3371 Q1051.25 56.3521 1056.23 56.3521 Q1064.49 56.3521 1069.64 62.9146 Q1074.82 69.4771 1074.82 80.1714 Q1074.82 90.8658 1069.64 97.4283 Q1064.49 103.991 1056.23 103.991 Q1051.25 103.991 1047.64 102.046 Q1044.08 100.061 1041.73 96.0105 M1067.09 80.1714 Q1067.09 71.9481 1063.68 67.2896 Q1060.32 62.5905 1054.41 62.5905 Q1048.49 62.5905 1045.09 67.2896 Q1041.73 71.9481 1041.73 80.1714 Q1041.73 88.3948 1045.09 93.0938 Q1048.49 97.7524 1054.41 97.7524 Q1060.32 97.7524 1063.68 93.0938 Q1067.09 88.3948 1067.09 80.1714 Z" fill="#000000" fill-rule="nonzero" fill-opacity="1" /><path clip-path="url(#clip550)" d="M1087.18 39.7839 L1094.63 39.7839 L1094.63 102.816 L1087.18 102.816 L1087.18 39.7839 Z" fill="#000000" fill-rule="nonzero" fill-opacity="1" /><path clip-path="url(#clip550)" d="M1149.04 78.2675 L1149.04 81.9133 L1114.76 81.9133 Q1115.25 89.6101 1119.38 93.661 Q1123.56 97.6714 1130.97 97.6714 Q1135.26 97.6714 1139.27 96.6181 Q1143.32 95.5649 1147.29 93.4584 L1147.29 100.507 Q1143.28 102.208 1139.07 103.1 Q1134.86 103.991 1130.52 103.991 Q1119.67 103.991 1113.31 97.6714 Q1106.99 91.3519 1106.99 80.5765 Q1106.99 69.4365 1112.98 62.9146 Q1119.02 56.3521 1129.23 56.3521 Q1138.38 56.3521 1143.69 62.2664 Q1149.04 68.1403 1149.04 78.2675 M1141.58 76.08 Q1141.5 69.9632 1138.14 66.3174 Q1134.82 62.6715 1129.31 62.6715 Q1123.07 62.6715 1119.3 66.1958 Q1115.57 69.7201 1115.01 76.1205 L1141.58 76.08 Z" fill="#000000" fill-rule="nonzero" fill-opacity="1" /><path clip-path="url(#clip550)" d="M1195.74 95.9295 L1224.3 95.9295 L1224.3 102.816 L1185.9 102.816 L1185.9 95.9295 Q1190.56 91.1089 1198.58 83.0071 Q1206.64 74.8648 1208.71 72.5152 Q1212.63 68.0998 1214.17 65.0616 Q1215.75 61.9829 1215.75 59.0257 Q1215.75 54.2051 1212.35 51.167 Q1208.99 48.1288 1203.56 48.1288 Q1199.71 48.1288 1195.42 49.4656 Q1191.16 50.8024 1186.3 53.5165 L1186.3 45.2527 Q1191.25 43.2677 1195.54 42.255 Q1199.83 41.2423 1203.4 41.2423 Q1212.8 41.2423 1218.39 45.9413 Q1223.98 50.6404 1223.98 58.4991 Q1223.98 62.2259 1222.56 65.5882 Q1221.18 68.9099 1217.5 73.4469 Q1216.48 74.6217 1211.05 80.2525 Q1205.63 85.8427 1195.74 95.9295 Z" fill="#000000" fill-rule="nonzero" fill-opacity="1" /><path clip-path="url(#clip550)" d="M1242.33 92.5267 L1250.87 92.5267 L1250.87 99.4943 L1244.23 112.457 L1239.01 112.457 L1242.33 99.4943 L1242.33 92.5267 Z" fill="#000000" fill-rule="nonzero" fill-opacity="1" /><path clip-path="url(#clip550)" d="M1338.78 46.9945 L1338.78 55.623 Q1334.65 51.7746 1329.95 49.8707 Q1325.29 47.9668 1320.02 47.9668 Q1309.65 47.9668 1304.14 54.3267 Q1298.64 60.6461 1298.64 72.6368 Q1298.64 84.5869 1304.14 90.9469 Q1309.65 97.2663 1320.02 97.2663 Q1325.29 97.2663 1329.95 95.3623 Q1334.65 93.4584 1338.78 89.6101 L1338.78 98.1575 Q1334.49 101.074 1329.67 102.532 Q1324.89 103.991 1319.54 103.991 Q1305.81 103.991 1297.91 95.6054 Q1290.01 87.1795 1290.01 72.6368 Q1290.01 58.0535 1297.91 49.6681 Q1305.81 41.2423 1319.54 41.2423 Q1324.97 41.2423 1329.75 42.7006 Q1334.57 44.1184 1338.78 46.9945 Z" fill="#000000" fill-rule="nonzero" fill-opacity="1" /><path clip-path="url(#clip550)" d="M1351.09 39.7839 L1358.55 39.7839 L1358.55 102.816 L1351.09 102.816 L1351.09 39.7839 Z" fill="#000000" fill-rule="nonzero" fill-opacity="1" /><path clip-path="url(#clip550)" d="M1394.76 80.0094 Q1385.73 80.0094 1382.25 82.0754 Q1378.76 84.1413 1378.76 89.1239 Q1378.76 93.0938 1381.35 95.4434 Q1383.99 97.7524 1388.48 97.7524 Q1394.68 97.7524 1398.41 93.3774 Q1402.18 88.9619 1402.18 81.6703 L1402.18 80.0094 L1394.76 80.0094 M1409.63 76.9307 L1409.63 102.816 L1402.18 102.816 L1402.18 95.9295 Q1399.62 100.061 1395.82 102.046 Q1392.01 103.991 1386.5 103.991 Q1379.53 103.991 1375.4 100.102 Q1371.31 96.1725 1371.31 89.6101 Q1371.31 81.9538 1376.41 78.065 Q1381.56 74.1761 1391.72 74.1761 L1402.18 74.1761 L1402.18 73.4469 Q1402.18 68.3023 1398.77 65.5072 Q1395.41 62.6715 1389.29 62.6715 Q1385.41 62.6715 1381.72 63.6032 Q1378.03 64.535 1374.63 66.3984 L1374.63 59.5118 Q1378.72 57.932 1382.57 57.1623 Q1386.42 56.3521 1390.06 56.3521 Q1399.91 56.3521 1404.77 61.4563 Q1409.63 66.5604 1409.63 76.9307 Z" fill="#000000" fill-rule="nonzero" fill-opacity="1" /><path clip-path="url(#clip550)" d="M1453.91 58.7827 L1453.91 65.8312 Q1450.75 64.2109 1447.34 63.4007 Q1443.94 62.5905 1440.3 62.5905 Q1434.75 62.5905 1431.95 64.2919 Q1429.2 65.9933 1429.2 69.396 Q1429.2 71.9886 1431.18 73.4875 Q1433.17 74.9458 1439.16 76.2826 L1441.71 76.8497 Q1449.65 78.5511 1452.97 81.6703 Q1456.34 84.749 1456.34 90.2987 Q1456.34 96.6181 1451.31 100.304 Q1446.33 103.991 1437.58 103.991 Q1433.94 103.991 1429.97 103.262 Q1426.04 102.573 1421.66 101.155 L1421.66 93.4584 Q1425.79 95.6054 1429.8 96.6991 Q1433.81 97.7524 1437.74 97.7524 Q1443.01 97.7524 1445.85 95.97 Q1448.68 94.1471 1448.68 90.8658 Q1448.68 87.8277 1446.61 86.2073 Q1444.59 84.5869 1437.66 83.0881 L1435.07 82.4805 Q1428.14 81.0221 1425.06 78.0245 Q1421.99 74.9863 1421.99 69.7201 Q1421.99 63.3197 1426.52 59.8359 Q1431.06 56.3521 1439.4 56.3521 Q1443.54 56.3521 1447.18 56.9598 Q1450.83 57.5674 1453.91 58.7827 Z" fill="#000000" fill-rule="nonzero" fill-opacity="1" /><path clip-path="url(#clip550)" d="M1497.13 58.7827 L1497.13 65.8312 Q1493.97 64.2109 1490.57 63.4007 Q1487.16 62.5905 1483.52 62.5905 Q1477.97 62.5905 1475.17 64.2919 Q1472.42 65.9933 1472.42 69.396 Q1472.42 71.9886 1474.4 73.4875 Q1476.39 74.9458 1482.38 76.2826 L1484.94 76.8497 Q1492.88 78.5511 1496.2 81.6703 Q1499.56 84.749 1499.56 90.2987 Q1499.56 96.6181 1494.54 100.304 Q1489.55 103.991 1480.8 103.991 Q1477.16 103.991 1473.19 103.262 Q1469.26 102.573 1464.88 101.155 L1464.88 93.4584 Q1469.02 95.6054 1473.03 96.6991 Q1477.04 97.7524 1480.97 97.7524 Q1486.23 97.7524 1489.07 95.97 Q1491.9 94.1471 1491.9 90.8658 Q1491.9 87.8277 1489.84 86.2073 Q1487.81 84.5869 1480.89 83.0881 L1478.29 82.4805 Q1471.37 81.0221 1468.29 78.0245 Q1465.21 74.9863 1465.21 69.7201 Q1465.21 63.3197 1469.75 59.8359 Q1474.28 56.3521 1482.63 56.3521 Q1486.76 56.3521 1490.4 56.9598 Q1494.05 57.5674 1497.13 58.7827 Z" fill="#000000" fill-rule="nonzero" fill-opacity="1" /><path clip-path="url(#clip550)" d="M1556.35 47.7237 Q1550.03 47.7237 1546.83 53.9621 Q1543.67 60.16 1543.67 72.6368 Q1543.67 85.073 1546.83 91.3114 Q1550.03 97.5093 1556.35 97.5093 Q1562.71 97.5093 1565.87 91.3114 Q1569.07 85.073 1569.07 72.6368 Q1569.07 60.16 1565.87 53.9621 Q1562.71 47.7237 1556.35 47.7237 M1556.35 41.2423 Q1566.52 41.2423 1571.87 49.3036 Q1577.26 57.3243 1577.26 72.6368 Q1577.26 87.9087 1571.87 95.97 Q1566.52 103.991 1556.35 103.991 Q1546.19 103.991 1540.8 95.97 Q1535.45 87.9087 1535.45 72.6368 Q1535.45 57.3243 1540.8 49.3036 Q1546.19 41.2423 1556.35 41.2423 Z" fill="#000000" fill-rule="nonzero" fill-opacity="1" /><path clip-path="url(#clip550)" d="M1592.49 92.5267 L1601.04 92.5267 L1601.04 99.4943 L1594.39 112.457 L1589.17 112.457 L1592.49 99.4943 L1592.49 92.5267 Z" fill="#000000" fill-rule="nonzero" fill-opacity="1" /><path clip-path="url(#clip550)" d="M1661.88 74.0951 Q1656.05 74.0951 1652.68 77.2143 Q1649.36 80.3335 1649.36 85.8022 Q1649.36 91.2709 1652.68 94.3901 Q1656.05 97.5093 1661.88 97.5093 Q1667.71 97.5093 1671.08 94.3901 Q1674.44 91.2304 1674.44 85.8022 Q1674.44 80.3335 1671.08 77.2143 Q1667.75 74.0951 1661.88 74.0951 M1653.7 70.6113 Q1648.43 69.315 1645.47 65.7097 Q1642.56 62.1044 1642.56 56.9193 Q1642.56 49.6681 1647.7 45.4552 Q1652.89 41.2423 1661.88 41.2423 Q1670.91 41.2423 1676.06 45.4552 Q1681.2 49.6681 1681.2 56.9193 Q1681.2 62.1044 1678.25 65.7097 Q1675.33 69.315 1670.1 70.6113 Q1676.02 71.9886 1679.3 75.999 Q1682.62 80.0094 1682.62 85.8022 Q1682.62 94.5927 1677.23 99.2917 Q1671.89 103.991 1661.88 103.991 Q1651.87 103.991 1646.49 99.2917 Q1641.14 94.5927 1641.14 85.8022 Q1641.14 80.0094 1644.46 75.999 Q1647.78 71.9886 1653.7 70.6113 M1650.7 57.6889 Q1650.7 62.388 1653.62 65.0211 Q1656.57 67.6542 1661.88 67.6542 Q1667.15 67.6542 1670.1 65.0211 Q1673.1 62.388 1673.1 57.6889 Q1673.1 52.9899 1670.1 50.3568 Q1667.15 47.7237 1661.88 47.7237 Q1656.57 47.7237 1653.62 50.3568 Q1650.7 52.9899 1650.7 57.6889 Z" fill="#000000" fill-rule="nonzero" fill-opacity="1" /><path clip-path="url(#clip550)" d="M1697.24 42.336 L1729.37 42.336 L1729.37 49.2225 L1704.74 49.2225 L1704.74 64.0488 Q1706.52 63.4412 1708.3 63.1576 Q1710.09 62.8336 1711.87 62.8336 Q1722 62.8336 1727.91 68.3833 Q1733.82 73.9331 1733.82 83.4122 Q1733.82 93.1748 1727.75 98.6031 Q1721.67 103.991 1710.61 103.991 Q1706.8 103.991 1702.83 103.343 Q1698.9 102.694 1694.69 101.398 L1694.69 93.1748 Q1698.34 95.1598 1702.23 96.132 Q1706.12 97.1042 1710.45 97.1042 Q1717.46 97.1042 1721.55 93.4179 Q1725.64 89.7316 1725.64 83.4122 Q1725.64 77.0928 1721.55 73.4064 Q1717.46 69.7201 1710.45 69.7201 Q1707.17 69.7201 1703.89 70.4493 Q1700.65 71.1784 1697.24 72.7178 L1697.24 42.336 Z" fill="#000000" fill-rule="nonzero" fill-opacity="1" /><path clip-path="url(#clip550)" d="M1745.13 76.7687 L1766.96 76.7687 L1766.96 83.4122 L1745.13 83.4122 L1745.13 76.7687 Z" fill="#000000" fill-rule="nonzero" fill-opacity="1" /><path clip-path="url(#clip550)" d="M1807.75 58.7827 L1807.75 65.8312 Q1804.59 64.2109 1801.19 63.4007 Q1797.79 62.5905 1794.14 62.5905 Q1788.59 62.5905 1785.8 64.2919 Q1783.04 65.9933 1783.04 69.396 Q1783.04 71.9886 1785.03 73.4875 Q1787.01 74.9458 1793.01 76.2826 L1795.56 76.8497 Q1803.5 78.5511 1806.82 81.6703 Q1810.18 84.749 1810.18 90.2987 Q1810.18 96.6181 1805.16 100.304 Q1800.18 103.991 1791.43 103.991 Q1787.78 103.991 1783.81 103.262 Q1779.88 102.573 1775.51 101.155 L1775.51 93.4584 Q1779.64 95.6054 1783.65 96.6991 Q1787.66 97.7524 1791.59 97.7524 Q1796.86 97.7524 1799.69 95.97 Q1802.53 94.1471 1802.53 90.8658 Q1802.53 87.8277 1800.46 86.2073 Q1798.44 84.5869 1791.51 83.0881 L1788.92 82.4805 Q1781.99 81.0221 1778.91 78.0245 Q1775.83 74.9863 1775.83 69.7201 Q1775.83 63.3197 1780.37 59.8359 Q1784.91 56.3521 1793.25 56.3521 Q1797.38 56.3521 1801.03 56.9598 Q1804.67 57.5674 1807.75 58.7827 Z" fill="#000000" fill-rule="nonzero" fill-opacity="1" /><path clip-path="url(#clip550)" d="M1822.05 57.4459 L1829.51 57.4459 L1829.51 102.816 L1822.05 102.816 L1822.05 57.4459 M1822.05 39.7839 L1829.51 39.7839 L1829.51 49.2225 L1822.05 49.2225 L1822.05 39.7839 Z" fill="#000000" fill-rule="nonzero" fill-opacity="1" /><path clip-path="url(#clip550)" d="M1852.47 44.564 L1852.47 57.4459 L1867.83 57.4459 L1867.83 63.2387 L1852.47 63.2387 L1852.47 87.8682 Q1852.47 93.4179 1853.97 94.9978 Q1855.51 96.5776 1860.17 96.5776 L1867.83 96.5776 L1867.83 102.816 L1860.17 102.816 Q1851.54 102.816 1848.26 99.6158 Q1844.98 96.3751 1844.98 87.8682 L1844.98 63.2387 L1839.51 63.2387 L1839.51 57.4459 L1844.98 57.4459 L1844.98 44.564 L1852.47 44.564 Z" fill="#000000" fill-rule="nonzero" fill-opacity="1" /><path clip-path="url(#clip550)" d="M1916.44 78.2675 L1916.44 81.9133 L1882.17 81.9133 Q1882.65 89.6101 1886.79 93.661 Q1890.96 97.6714 1898.37 97.6714 Q1902.67 97.6714 1906.68 96.6181 Q1910.73 95.5649 1914.7 93.4584 L1914.7 100.507 Q1910.69 102.208 1906.47 103.1 Q1902.26 103.991 1897.93 103.991 Q1887.07 103.991 1880.71 97.6714 Q1874.39 91.3519 1874.39 80.5765 Q1874.39 69.4365 1880.39 62.9146 Q1886.42 56.3521 1896.63 56.3521 Q1905.78 56.3521 1911.09 62.2664 Q1916.44 68.1403 1916.44 78.2675 M1908.98 76.08 Q1908.9 69.9632 1905.54 66.3174 Q1902.22 62.6715 1896.71 62.6715 Q1890.47 62.6715 1886.7 66.1958 Q1882.98 69.7201 1882.41 76.1205 L1908.98 76.08 Z" fill="#000000" fill-rule="nonzero" fill-opacity="1" /><path clip-path="url(#clip550)" d="M1955.37 42.336 L1963.55 42.336 L1963.55 102.816 L1955.37 102.816 L1955.37 42.336 Z" fill="#000000" fill-rule="nonzero" fill-opacity="1" /><path clip-path="url(#clip550)" d="M2017.23 75.4319 L2017.23 102.816 L2009.77 102.816 L2009.77 75.6749 Q2009.77 69.234 2007.26 66.0338 Q2004.75 62.8336 1999.73 62.8336 Q1993.69 62.8336 1990.21 66.6819 Q1986.72 70.5303 1986.72 77.1738 L1986.72 102.816 L1979.23 102.816 L1979.23 57.4459 L1986.72 57.4459 L1986.72 64.4944 Q1989.4 60.403 1993 58.3776 Q1996.65 56.3521 2001.39 56.3521 Q2009.2 56.3521 2013.21 61.2132 Q2017.23 66.0338 2017.23 75.4319 Z" fill="#000000" fill-rule="nonzero" fill-opacity="1" /><path clip-path="url(#clip550)" d="M2039.46 44.564 L2039.46 57.4459 L2054.82 57.4459 L2054.82 63.2387 L2039.46 63.2387 L2039.46 87.8682 Q2039.46 93.4179 2040.96 94.9978 Q2042.5 96.5776 2047.16 96.5776 L2054.82 96.5776 L2054.82 102.816 L2047.16 102.816 Q2038.53 102.816 2035.25 99.6158 Q2031.97 96.3751 2031.97 87.8682 L2031.97 63.2387 L2026.5 63.2387 L2026.5 57.4459 L2031.97 57.4459 L2031.97 44.564 L2039.46 44.564 Z" fill="#000000" fill-rule="nonzero" fill-opacity="1" /><path clip-path="url(#clip550)" d="M2103.43 78.2675 L2103.43 81.9133 L2069.16 81.9133 Q2069.64 89.6101 2073.78 93.661 Q2077.95 97.6714 2085.36 97.6714 Q2089.66 97.6714 2093.67 96.6181 Q2097.72 95.5649 2101.69 93.4584 L2101.69 100.507 Q2097.68 102.208 2093.46 103.1 Q2089.25 103.991 2084.92 103.991 Q2074.06 103.991 2067.7 97.6714 Q2061.38 91.3519 2061.38 80.5765 Q2061.38 69.4365 2067.38 62.9146 Q2073.41 56.3521 2083.62 56.3521 Q2092.77 56.3521 2098.08 62.2664 Q2103.43 68.1403 2103.43 78.2675 M2095.97 76.08 Q2095.89 69.9632 2092.53 66.3174 Q2089.21 62.6715 2083.7 62.6715 Q2077.46 62.6715 2073.69 66.1958 Q2069.97 69.7201 2069.4 76.1205 L2095.97 76.08 Z" fill="#000000" fill-rule="nonzero" fill-opacity="1" /><path clip-path="url(#clip550)" d="M2141.95 64.4134 Q2140.7 63.6843 2139.2 63.3602 Q2137.74 62.9956 2135.96 62.9956 Q2129.64 62.9956 2126.23 67.1275 Q2122.87 71.2189 2122.87 78.9157 L2122.87 102.816 L2115.38 102.816 L2115.38 57.4459 L2122.87 57.4459 L2122.87 64.4944 Q2125.22 60.3625 2128.99 58.3776 Q2132.76 56.3521 2138.14 56.3521 Q2138.91 56.3521 2139.85 56.4737 Q2140.78 56.5547 2141.91 56.7572 L2141.95 64.4134 Z" fill="#000000" fill-rule="nonzero" fill-opacity="1" /><path clip-path="url(#clip550)" d="M2156.98 96.0105 L2156.98 120.073 L2149.49 120.073 L2149.49 57.4459 L2156.98 57.4459 L2156.98 64.3324 Q2159.33 60.2815 2162.9 58.3371 Q2166.5 56.3521 2171.48 56.3521 Q2179.75 56.3521 2184.89 62.9146 Q2190.08 69.4771 2190.08 80.1714 Q2190.08 90.8658 2184.89 97.4283 Q2179.75 103.991 2171.48 103.991 Q2166.5 103.991 2162.9 102.046 Q2159.33 100.061 2156.98 96.0105 M2182.34 80.1714 Q2182.34 71.9481 2178.94 67.2896 Q2175.57 62.5905 2169.66 62.5905 Q2163.75 62.5905 2160.34 67.2896 Q2156.98 71.9481 2156.98 80.1714 Q2156.98 88.3948 2160.34 93.0938 Q2163.75 97.7524 2169.66 97.7524 Q2175.57 97.7524 2178.94 93.0938 Q2182.34 88.3948 2182.34 80.1714 Z" fill="#000000" fill-rule="nonzero" fill-opacity="1" /><path clip-path="url(#clip550)" d="M2220.01 62.6715 Q2214.02 62.6715 2210.53 67.3706 Q2207.05 72.0291 2207.05 80.1714 Q2207.05 88.3138 2210.49 93.0128 Q2213.98 97.6714 2220.01 97.6714 Q2225.97 97.6714 2229.45 92.9723 Q2232.94 88.2733 2232.94 80.1714 Q2232.94 72.1101 2229.45 67.4111 Q2225.97 62.6715 2220.01 62.6715 M2220.01 56.3521 Q2229.74 56.3521 2235.29 62.6715 Q2240.83 68.9909 2240.83 80.1714 Q2240.83 91.3114 2235.29 97.6714 Q2229.74 103.991 2220.01 103.991 Q2210.25 103.991 2204.7 97.6714 Q2199.19 91.3114 2199.19 80.1714 Q2199.19 68.9909 2204.7 62.6715 Q2210.25 56.3521 2220.01 56.3521 Z" fill="#000000" fill-rule="nonzero" fill-opacity="1" /><path clip-path="url(#clip550)" d="M2253.19 39.7839 L2260.64 39.7839 L2260.64 102.816 L2253.19 102.816 L2253.19 39.7839 Z" fill="#000000" fill-rule="nonzero" fill-opacity="1" /><path clip-path="url(#clip550)" d="M2296.86 80.0094 Q2287.83 80.0094 2284.34 82.0754 Q2280.86 84.1413 2280.86 89.1239 Q2280.86 93.0938 2283.45 95.4434 Q2286.08 97.7524 2290.58 97.7524 Q2296.78 97.7524 2300.5 93.3774 Q2304.27 88.9619 2304.27 81.6703 L2304.27 80.0094 L2296.86 80.0094 M2311.73 76.9307 L2311.73 102.816 L2304.27 102.816 L2304.27 95.9295 Q2301.72 100.061 2297.91 102.046 Q2294.1 103.991 2288.6 103.991 Q2281.63 103.991 2277.5 100.102 Q2273.4 96.1725 2273.4 89.6101 Q2273.4 81.9538 2278.51 78.065 Q2283.65 74.1761 2293.82 74.1761 L2304.27 74.1761 L2304.27 73.4469 Q2304.27 68.3023 2300.87 65.5072 Q2297.51 62.6715 2291.39 62.6715 Q2287.5 62.6715 2283.82 63.6032 Q2280.13 64.535 2276.73 66.3984 L2276.73 59.5118 Q2280.82 57.932 2284.67 57.1623 Q2288.51 56.3521 2292.16 56.3521 Q2302 56.3521 2306.86 61.4563 Q2311.73 66.5604 2311.73 76.9307 Z" fill="#000000" fill-rule="nonzero" fill-opacity="1" /><path clip-path="url(#clip550)" d="M2334.45 44.564 L2334.45 57.4459 L2349.8 57.4459 L2349.8 63.2387 L2334.45 63.2387 L2334.45 87.8682 Q2334.45 93.4179 2335.95 94.9978 Q2337.49 96.5776 2342.15 96.5776 L2349.8 96.5776 L2349.8 102.816 L2342.15 102.816 Q2333.52 102.816 2330.24 99.6158 Q2326.96 96.3751 2326.96 87.8682 L2326.96 63.2387 L2321.49 63.2387 L2321.49 57.4459 L2326.96 57.4459 L2326.96 44.564 L2334.45 44.564 Z" fill="#000000" fill-rule="nonzero" fill-opacity="1" /><path clip-path="url(#clip550)" d="M2359.61 57.4459 L2367.06 57.4459 L2367.06 102.816 L2359.61 102.816 L2359.61 57.4459 M2359.61 39.7839 L2367.06 39.7839 L2367.06 49.2225 L2359.61 49.2225 L2359.61 39.7839 Z" fill="#000000" fill-rule="nonzero" fill-opacity="1" /><path clip-path="url(#clip550)" d="M2400.24 62.6715 Q2394.24 62.6715 2390.76 67.3706 Q2387.28 72.0291 2387.28 80.1714 Q2387.28 88.3138 2390.72 93.0128 Q2394.2 97.6714 2400.24 97.6714 Q2406.19 97.6714 2409.68 92.9723 Q2413.16 88.2733 2413.16 80.1714 Q2413.16 72.1101 2409.68 67.4111 Q2406.19 62.6715 2400.24 62.6715 M2400.24 56.3521 Q2409.96 56.3521 2415.51 62.6715 Q2421.06 68.9909 2421.06 80.1714 Q2421.06 91.3114 2415.51 97.6714 Q2409.96 103.991 2400.24 103.991 Q2390.48 103.991 2384.93 97.6714 Q2379.42 91.3114 2379.42 80.1714 Q2379.42 68.9909 2384.93 62.6715 Q2390.48 56.3521 2400.24 56.3521 Z" fill="#000000" fill-rule="nonzero" fill-opacity="1" /><path clip-path="url(#clip550)" d="M2471.13 75.4319 L2471.13 102.816 L2463.68 102.816 L2463.68 75.6749 Q2463.68 69.234 2461.16 66.0338 Q2458.65 62.8336 2453.63 62.8336 Q2447.59 62.8336 2444.11 66.6819 Q2440.63 70.5303 2440.63 77.1738 L2440.63 102.816 L2433.13 102.816 L2433.13 57.4459 L2440.63 57.4459 L2440.63 64.4944 Q2443.3 60.403 2446.9 58.3776 Q2450.55 56.3521 2455.29 56.3521 Q2463.11 56.3521 2467.12 61.2132 Q2471.13 66.0338 2471.13 75.4319 Z" fill="#000000" fill-rule="nonzero" fill-opacity="1" /><path clip-path="url(#clip550)" d="M2487.9 92.5267 L2496.45 92.5267 L2496.45 99.4943 L2489.8 112.457 L2484.58 112.457 L2487.9 99.4943 L2487.9 92.5267 Z" fill="#000000" fill-rule="nonzero" fill-opacity="1" /><path clip-path="url(#clip550)" d="M919.329 155.052 L919.329 130.504 L926.782 130.504 L926.782 193.536 L919.329 193.536 L919.329 186.73 Q916.979 190.781 913.374 192.766 Q909.809 194.711 904.786 194.711 Q896.563 194.711 891.377 188.148 Q886.233 181.586 886.233 170.891 Q886.233 160.197 891.377 153.635 Q896.563 147.072 904.786 147.072 Q909.809 147.072 913.374 149.057 Q916.979 151.002 919.329 155.052 M893.93 170.891 Q893.93 179.115 897.292 183.814 Q900.695 188.472 906.609 188.472 Q912.523 188.472 915.926 183.814 Q919.329 179.115 919.329 170.891 Q919.329 162.668 915.926 158.01 Q912.523 153.311 906.609 153.311 Q900.695 153.311 897.292 158.01 Q893.93 162.668 893.93 170.891 Z" fill="#000000" fill-rule="nonzero" fill-opacity="1" /><path clip-path="url(#clip550)" d="M969.479 155.863 L1021.41 155.863 L1021.41 162.668 L969.479 162.668 L969.479 155.863 M969.479 172.39 L1021.41 172.39 L1021.41 179.277 L969.479 179.277 L969.479 172.39 Z" fill="#000000" fill-rule="nonzero" fill-opacity="1" /><path clip-path="url(#clip550)" d="M1066.86 186.649 L1080.23 186.649 L1080.23 140.51 L1065.69 143.426 L1065.69 135.973 L1080.15 133.056 L1088.33 133.056 L1088.33 186.649 L1101.7 186.649 L1101.7 193.536 L1066.86 193.536 L1066.86 186.649 Z" fill="#000000" fill-rule="nonzero" fill-opacity="1" /><path clip-path="url(#clip550)" d="M1125.28 186.649 L1153.84 186.649 L1153.84 193.536 L1115.43 193.536 L1115.43 186.649 Q1120.09 181.829 1128.11 173.727 Q1136.17 165.585 1138.24 163.235 Q1142.17 158.82 1143.71 155.782 Q1145.29 152.703 1145.29 149.746 Q1145.29 144.925 1141.89 141.887 Q1138.52 138.849 1133.09 138.849 Q1129.25 138.849 1124.95 140.186 Q1120.7 141.522 1115.84 144.236 L1115.84 135.973 Q1120.78 133.988 1125.07 132.975 Q1129.37 131.962 1132.93 131.962 Q1142.33 131.962 1147.92 136.661 Q1153.51 141.36 1153.51 149.219 Q1153.51 152.946 1152.09 156.308 Q1150.72 159.63 1147.03 164.167 Q1146.02 165.342 1140.59 170.972 Q1135.16 176.563 1125.28 186.649 Z" fill="#000000" fill-rule="nonzero" fill-opacity="1" /><path clip-path="url(#clip550)" d="M1171.86 183.247 L1180.41 183.247 L1180.41 190.214 L1173.77 203.177 L1168.54 203.177 L1171.86 190.214 L1171.86 183.247 Z" fill="#000000" fill-rule="nonzero" fill-opacity="1" /><path clip-path="url(#clip550)" d="M1244.54 203.663 L1238.5 188.148 L1226.06 210.833 L1217.27 210.833 L1234.85 178.75 L1227.48 159.67 Q1225.5 154.566 1219.26 154.566 L1217.27 154.566 L1217.27 148.166 L1220.11 148.247 Q1230.56 148.53 1233.19 155.295 L1239.19 170.81 L1251.62 148.125 L1260.41 148.125 L1242.83 180.209 L1250.21 199.288 Q1252.19 204.392 1258.43 204.392 L1260.41 204.392 L1260.41 210.793 L1257.58 210.712 Q1247.13 210.428 1244.54 203.663 Z" fill="#000000" fill-rule="nonzero" fill-opacity="1" /><path clip-path="url(#clip550)" d="M1297.97 155.863 L1349.9 155.863 L1349.9 162.668 L1297.97 162.668 L1297.97 155.863 M1297.97 172.39 L1349.9 172.39 L1349.9 179.277 L1297.97 179.277 L1297.97 172.39 Z" fill="#000000" fill-rule="nonzero" fill-opacity="1" /><path clip-path="url(#clip550)" d="M1412.45 160.035 Q1406.94 160.035 1403.7 163.802 Q1400.5 167.57 1400.5 174.132 Q1400.5 180.654 1403.7 184.462 Q1406.94 188.229 1412.45 188.229 Q1417.95 188.229 1421.15 184.462 Q1424.4 180.654 1424.4 174.132 Q1424.4 167.57 1421.15 163.802 Q1417.95 160.035 1412.45 160.035 M1428.69 134.393 L1428.69 141.846 Q1425.61 140.388 1422.45 139.618 Q1419.33 138.849 1416.25 138.849 Q1408.15 138.849 1403.86 144.318 Q1399.6 149.786 1399 160.845 Q1401.39 157.321 1404.99 155.458 Q1408.6 153.554 1412.93 153.554 Q1422.05 153.554 1427.31 159.103 Q1432.62 164.613 1432.62 174.132 Q1432.62 183.449 1427.11 189.08 Q1421.6 194.711 1412.45 194.711 Q1401.95 194.711 1396.4 186.69 Q1390.85 178.629 1390.85 163.357 Q1390.85 149.017 1397.66 140.51 Q1404.47 131.962 1415.93 131.962 Q1419.01 131.962 1422.13 132.57 Q1425.29 133.178 1428.69 134.393 Z" fill="#000000" fill-rule="nonzero" fill-opacity="1" /><path clip-path="url(#clip550)" d="M1464.22 138.444 Q1457.9 138.444 1454.7 144.682 Q1451.54 150.88 1451.54 163.357 Q1451.54 175.793 1454.7 182.031 Q1457.9 188.229 1464.22 188.229 Q1470.58 188.229 1473.74 182.031 Q1476.94 175.793 1476.94 163.357 Q1476.94 150.88 1473.74 144.682 Q1470.58 138.444 1464.22 138.444 M1464.22 131.962 Q1474.38 131.962 1479.73 140.024 Q1485.12 148.044 1485.12 163.357 Q1485.12 178.629 1479.73 186.69 Q1474.38 194.711 1464.22 194.711 Q1454.05 194.711 1448.66 186.69 Q1443.31 178.629 1443.31 163.357 Q1443.31 148.044 1448.66 140.024 Q1454.05 131.962 1464.22 131.962 Z" fill="#000000" fill-rule="nonzero" fill-opacity="1" /><path clip-path="url(#clip550)" d="M1500.35 183.247 L1508.9 183.247 L1508.9 190.214 L1502.25 203.177 L1497.03 203.177 L1500.35 190.214 L1500.35 183.247 Z" fill="#000000" fill-rule="nonzero" fill-opacity="1" /><path clip-path="url(#clip550)" d="M1551.51 133.056 L1559.7 133.056 L1559.7 186.649 L1589.15 186.649 L1589.15 193.536 L1551.51 193.536 L1551.51 133.056 Z" fill="#000000" fill-rule="nonzero" fill-opacity="1" /><path clip-path="url(#clip550)" d="M1634.76 168.988 L1634.76 172.633 L1600.49 172.633 Q1600.97 180.33 1605.11 184.381 Q1609.28 188.391 1616.69 188.391 Q1620.99 188.391 1625 187.338 Q1629.05 186.285 1633.02 184.178 L1633.02 191.227 Q1629.01 192.928 1624.79 193.82 Q1620.58 194.711 1616.25 194.711 Q1605.39 194.711 1599.03 188.391 Q1592.71 182.072 1592.71 171.297 Q1592.71 160.157 1598.71 153.635 Q1604.74 147.072 1614.95 147.072 Q1624.11 147.072 1629.41 152.986 Q1634.76 158.86 1634.76 168.988 M1627.31 166.8 Q1627.22 160.683 1623.86 157.037 Q1620.54 153.392 1615.03 153.392 Q1608.79 153.392 1605.03 156.916 Q1601.3 160.44 1600.73 166.841 L1627.31 166.8 Z" fill="#000000" fill-rule="nonzero" fill-opacity="1" /><path clip-path="url(#clip550)" d="M1676.85 170.324 Q1676.85 162.223 1673.49 157.767 Q1670.16 153.311 1664.13 153.311 Q1658.13 153.311 1654.77 157.767 Q1651.45 162.223 1651.45 170.324 Q1651.45 178.386 1654.77 182.842 Q1658.13 187.298 1664.13 187.298 Q1670.16 187.298 1673.49 182.842 Q1676.85 178.386 1676.85 170.324 M1684.3 187.905 Q1684.3 199.491 1679.16 205.122 Q1674.01 210.793 1663.4 210.793 Q1659.47 210.793 1655.99 210.185 Q1652.5 209.618 1649.22 208.403 L1649.22 201.152 Q1652.5 202.934 1655.7 203.785 Q1658.9 204.635 1662.22 204.635 Q1669.56 204.635 1673.2 200.787 Q1676.85 196.979 1676.85 189.242 L1676.85 185.556 Q1674.54 189.566 1670.93 191.551 Q1667.33 193.536 1662.31 193.536 Q1653.96 193.536 1648.86 187.176 Q1643.75 180.816 1643.75 170.324 Q1643.75 159.792 1648.86 153.432 Q1653.96 147.072 1662.31 147.072 Q1667.33 147.072 1670.93 149.057 Q1674.54 151.042 1676.85 155.052 L1676.85 148.166 L1684.3 148.166 L1684.3 187.905 Z" fill="#000000" fill-rule="nonzero" fill-opacity="1" /><path clip-path="url(#clip550)" d="M1738.46 168.988 L1738.46 172.633 L1704.19 172.633 Q1704.68 180.33 1708.81 184.381 Q1712.98 188.391 1720.4 188.391 Q1724.69 188.391 1728.7 187.338 Q1732.75 186.285 1736.72 184.178 L1736.72 191.227 Q1732.71 192.928 1728.5 193.82 Q1724.28 194.711 1719.95 194.711 Q1709.09 194.711 1702.73 188.391 Q1696.41 182.072 1696.41 171.297 Q1696.41 160.157 1702.41 153.635 Q1708.44 147.072 1718.65 147.072 Q1727.81 147.072 1733.11 152.986 Q1738.46 158.86 1738.46 168.988 M1731.01 166.8 Q1730.93 160.683 1727.57 157.037 Q1724.24 153.392 1718.73 153.392 Q1712.5 153.392 1708.73 156.916 Q1705 160.44 1704.43 166.841 L1731.01 166.8 Z" fill="#000000" fill-rule="nonzero" fill-opacity="1" /><path clip-path="url(#clip550)" d="M1788.41 166.152 L1788.41 193.536 L1780.96 193.536 L1780.96 166.395 Q1780.96 159.954 1778.44 156.754 Q1775.93 153.554 1770.91 153.554 Q1764.87 153.554 1761.39 157.402 Q1757.91 161.25 1757.91 167.894 L1757.91 193.536 L1750.41 193.536 L1750.41 148.166 L1757.91 148.166 L1757.91 155.214 Q1760.58 151.123 1764.19 149.098 Q1767.83 147.072 1772.57 147.072 Q1780.39 147.072 1784.4 151.933 Q1788.41 156.754 1788.41 166.152 Z" fill="#000000" fill-rule="nonzero" fill-opacity="1" /><path clip-path="url(#clip550)" d="M1833.13 155.052 L1833.13 130.504 L1840.59 130.504 L1840.59 193.536 L1833.13 193.536 L1833.13 186.73 Q1830.78 190.781 1827.18 192.766 Q1823.61 194.711 1818.59 194.711 Q1810.37 194.711 1805.18 188.148 Q1800.04 181.586 1800.04 170.891 Q1800.04 160.197 1805.18 153.635 Q1810.37 147.072 1818.59 147.072 Q1823.61 147.072 1827.18 149.057 Q1830.78 151.002 1833.13 155.052 M1807.73 170.891 Q1807.73 179.115 1811.09 183.814 Q1814.5 188.472 1820.41 188.472 Q1826.33 188.472 1829.73 183.814 Q1833.13 179.115 1833.13 170.891 Q1833.13 162.668 1829.73 158.01 Q1826.33 153.311 1820.41 153.311 Q1814.5 153.311 1811.09 158.01 Q1807.73 162.668 1807.73 170.891 Z" fill="#000000" fill-rule="nonzero" fill-opacity="1" /><path clip-path="url(#clip550)" d="M1882.23 155.133 Q1880.97 154.404 1879.47 154.08 Q1878.02 153.716 1876.23 153.716 Q1869.91 153.716 1866.51 157.848 Q1863.15 161.939 1863.15 169.636 L1863.15 193.536 L1855.65 193.536 L1855.65 148.166 L1863.15 148.166 L1863.15 155.214 Q1865.5 151.083 1869.27 149.098 Q1873.03 147.072 1878.42 147.072 Q1879.19 147.072 1880.12 147.194 Q1881.05 147.275 1882.19 147.477 L1882.23 155.133 Z" fill="#000000" fill-rule="nonzero" fill-opacity="1" /><path clip-path="url(#clip550)" d="M1927.03 168.988 L1927.03 172.633 L1892.76 172.633 Q1893.25 180.33 1897.38 184.381 Q1901.55 188.391 1908.96 188.391 Q1913.26 188.391 1917.27 187.338 Q1921.32 186.285 1925.29 184.178 L1925.29 191.227 Q1921.28 192.928 1917.07 193.82 Q1912.85 194.711 1908.52 194.711 Q1897.66 194.711 1891.3 188.391 Q1884.98 182.072 1884.98 171.297 Q1884.98 160.157 1890.98 153.635 Q1897.01 147.072 1907.22 147.072 Q1916.38 147.072 1921.68 152.986 Q1927.03 158.86 1927.03 168.988 M1919.58 166.8 Q1919.5 160.683 1916.13 157.037 Q1912.81 153.392 1907.3 153.392 Q1901.07 153.392 1897.3 156.916 Q1893.57 160.44 1893 166.841 L1919.58 166.8 Z" fill="#000000" fill-rule="nonzero" fill-opacity="1" /><path clip-path="url(#clip550)" d="M1973.74 207.309 L1973.74 213.102 L1930.64 213.102 L1930.64 207.309 L1973.74 207.309 Z" fill="#000000" fill-rule="nonzero" fill-opacity="1" /><path clip-path="url(#clip550)" d="M1981.07 133.056 L1992.09 133.056 L2018.91 183.652 L2018.91 133.056 L2026.85 133.056 L2026.85 193.536 L2015.83 193.536 L1989.01 142.94 L1989.01 193.536 L1981.07 193.536 L1981.07 133.056 Z" fill="#000000" fill-rule="nonzero" fill-opacity="1" /><path clip-path="url(#clip550)" d="M2060.39 153.392 Q2054.39 153.392 2050.91 158.091 Q2047.42 162.749 2047.42 170.891 Q2047.42 179.034 2050.87 183.733 Q2054.35 188.391 2060.39 188.391 Q2066.34 188.391 2069.83 183.692 Q2073.31 178.993 2073.31 170.891 Q2073.31 162.83 2069.83 158.131 Q2066.34 153.392 2060.39 153.392 M2060.39 147.072 Q2070.11 147.072 2075.66 153.392 Q2081.21 159.711 2081.21 170.891 Q2081.21 182.031 2075.66 188.391 Q2070.11 194.711 2060.39 194.711 Q2050.62 194.711 2045.08 188.391 Q2039.57 182.031 2039.57 170.891 Q2039.57 159.711 2045.08 153.392 Q2050.62 147.072 2060.39 147.072 Z" fill="#000000" fill-rule="nonzero" fill-opacity="1" /><path clip-path="url(#clip550)" d="M2128.04 207.309 L2128.04 213.102 L2084.94 213.102 L2084.94 207.309 L2128.04 207.309 Z" fill="#000000" fill-rule="nonzero" fill-opacity="1" /><path clip-path="url(#clip550)" d="M2135.37 133.056 L2146.39 133.056 L2173.21 183.652 L2173.21 133.056 L2181.14 133.056 L2181.14 193.536 L2170.13 193.536 L2143.31 142.94 L2143.31 193.536 L2135.37 193.536 L2135.37 133.056 Z" fill="#000000" fill-rule="nonzero" fill-opacity="1" /><path clip-path="url(#clip550)" d="M2214.69 153.392 Q2208.69 153.392 2205.21 158.091 Q2201.72 162.749 2201.72 170.891 Q2201.72 179.034 2205.17 183.733 Q2208.65 188.391 2214.69 188.391 Q2220.64 188.391 2224.12 183.692 Q2227.61 178.993 2227.61 170.891 Q2227.61 162.83 2224.12 158.131 Q2220.64 153.392 2214.69 153.392 M2214.69 147.072 Q2224.41 147.072 2229.96 153.392 Q2235.51 159.711 2235.51 170.891 Q2235.51 182.031 2229.96 188.391 Q2224.41 194.711 2214.69 194.711 Q2204.92 194.711 2199.37 188.391 Q2193.86 182.031 2193.86 170.891 Q2193.86 159.711 2199.37 153.392 Q2204.92 147.072 2214.69 147.072 Z" fill="#000000" fill-rule="nonzero" fill-opacity="1" /><path clip-path="url(#clip550)" d="M2274.15 155.133 Q2272.9 154.404 2271.4 154.08 Q2269.94 153.716 2268.16 153.716 Q2261.84 153.716 2258.44 157.848 Q2255.07 161.939 2255.07 169.636 L2255.07 193.536 L2247.58 193.536 L2247.58 148.166 L2255.07 148.166 L2255.07 155.214 Q2257.42 151.083 2261.19 149.098 Q2264.96 147.072 2270.35 147.072 Q2271.12 147.072 2272.05 147.194 Q2272.98 147.275 2274.11 147.477 L2274.15 155.133 Z" fill="#000000" fill-rule="nonzero" fill-opacity="1" /><path clip-path="url(#clip550)" d="M2315.84 156.875 Q2318.63 151.852 2322.52 149.462 Q2326.41 147.072 2331.68 147.072 Q2338.77 147.072 2342.61 152.055 Q2346.46 156.997 2346.46 166.152 L2346.46 193.536 L2338.97 193.536 L2338.97 166.395 Q2338.97 159.873 2336.66 156.713 Q2334.35 153.554 2329.61 153.554 Q2323.82 153.554 2320.46 157.402 Q2317.09 161.25 2317.09 167.894 L2317.09 193.536 L2309.6 193.536 L2309.6 166.395 Q2309.6 159.832 2307.29 156.713 Q2304.98 153.554 2300.16 153.554 Q2294.45 153.554 2291.09 157.442 Q2287.72 161.291 2287.72 167.894 L2287.72 193.536 L2280.23 193.536 L2280.23 148.166 L2287.72 148.166 L2287.72 155.214 Q2290.28 151.042 2293.84 149.057 Q2297.41 147.072 2302.31 147.072 Q2307.25 147.072 2310.69 149.584 Q2314.18 152.095 2315.84 156.875 Z" fill="#000000" fill-rule="nonzero" fill-opacity="1" /><path clip-path="url(#clip550)" d="M2426.51 168.988 L2426.51 172.633 L2392.24 172.633 Q2392.72 180.33 2396.86 184.381 Q2401.03 188.391 2408.44 188.391 Q2412.74 188.391 2416.75 187.338 Q2420.8 186.285 2424.77 184.178 L2424.77 191.227 Q2420.76 192.928 2416.54 193.82 Q2412.33 194.711 2408 194.711 Q2397.14 194.711 2390.78 188.391 Q2384.46 182.072 2384.46 171.297 Q2384.46 160.157 2390.46 153.635 Q2396.49 147.072 2406.7 147.072 Q2415.85 147.072 2421.16 152.986 Q2426.51 158.86 2426.51 168.988 M2419.05 166.8 Q2418.97 160.683 2415.61 157.037 Q2412.29 153.392 2406.78 153.392 Q2400.54 153.392 2396.77 156.916 Q2393.05 160.44 2392.48 166.841 L2419.05 166.8 Z" fill="#000000" fill-rule="nonzero" fill-opacity="1" /><path clip-path="url(#clip550)" d="M2476.46 166.152 L2476.46 193.536 L2469 193.536 L2469 166.395 Q2469 159.954 2466.49 156.754 Q2463.98 153.554 2458.96 153.554 Q2452.92 153.554 2449.44 157.402 Q2445.95 161.25 2445.95 167.894 L2445.95 193.536 L2438.46 193.536 L2438.46 148.166 L2445.95 148.166 L2445.95 155.214 Q2448.63 151.123 2452.23 149.098 Q2455.88 147.072 2460.62 147.072 Q2468.44 147.072 2472.45 151.933 Q2476.46 156.754 2476.46 166.152 Z" fill="#000000" fill-rule="nonzero" fill-opacity="1" /><path clip-path="url(#clip550)" d="M2523.97 149.908 L2523.97 156.875 Q2520.81 155.133 2517.61 154.283 Q2514.45 153.392 2511.21 153.392 Q2503.96 153.392 2499.95 158.01 Q2495.94 162.587 2495.94 170.891 Q2495.94 179.196 2499.95 183.814 Q2503.96 188.391 2511.21 188.391 Q2514.45 188.391 2517.61 187.541 Q2520.81 186.649 2523.97 184.908 L2523.97 191.794 Q2520.85 193.252 2517.49 193.982 Q2514.17 194.711 2510.4 194.711 Q2500.15 194.711 2494.12 188.27 Q2488.08 181.829 2488.08 170.891 Q2488.08 159.792 2494.16 153.432 Q2500.28 147.072 2510.89 147.072 Q2514.33 147.072 2517.61 147.801 Q2520.89 148.49 2523.97 149.908 Z" fill="#000000" fill-rule="nonzero" fill-opacity="1" /><path clip-path="url(#clip550)" d="M2554.52 153.392 Q2548.52 153.392 2545.04 158.091 Q2541.55 162.749 2541.55 170.891 Q2541.55 179.034 2545 183.733 Q2548.48 188.391 2554.52 188.391 Q2560.47 188.391 2563.96 183.692 Q2567.44 178.993 2567.44 170.891 Q2567.44 162.83 2563.96 158.131 Q2560.47 153.392 2554.52 153.392 M2554.52 147.072 Q2564.24 147.072 2569.79 153.392 Q2575.34 159.711 2575.34 170.891 Q2575.34 182.031 2569.79 188.391 Q2564.24 194.711 2554.52 194.711 Q2544.75 194.711 2539.2 188.391 Q2533.7 182.031 2533.7 170.891 Q2533.7 159.711 2539.2 153.392 Q2544.75 147.072 2554.52 147.072 Z" fill="#000000" fill-rule="nonzero" fill-opacity="1" /><path clip-path="url(#clip550)" d="M2617.55 155.052 L2617.55 130.504 L2625 130.504 L2625 193.536 L2617.55 193.536 L2617.55 186.73 Q2615.2 190.781 2611.59 192.766 Q2608.03 194.711 2603.01 194.711 Q2594.78 194.711 2589.6 188.148 Q2584.45 181.586 2584.45 170.891 Q2584.45 160.197 2589.6 153.635 Q2594.78 147.072 2603.01 147.072 Q2608.03 147.072 2611.59 149.057 Q2615.2 151.002 2617.55 155.052 M2592.15 170.891 Q2592.15 179.115 2595.51 183.814 Q2598.91 188.472 2604.83 188.472 Q2610.74 188.472 2614.15 183.814 Q2617.55 179.115 2617.55 170.891 Q2617.55 162.668 2614.15 158.01 Q2610.74 153.311 2604.83 153.311 Q2598.91 153.311 2595.51 158.01 Q2592.15 162.668 2592.15 170.891 Z" fill="#000000" fill-rule="nonzero" fill-opacity="1" /><path clip-path="url(#clip550)" d="M2640.36 148.166 L2647.81 148.166 L2647.81 193.536 L2640.36 193.536 L2640.36 148.166 M2640.36 130.504 L2647.81 130.504 L2647.81 139.943 L2640.36 139.943 L2640.36 130.504 Z" fill="#000000" fill-rule="nonzero" fill-opacity="1" /><path clip-path="url(#clip550)" d="M2701.12 166.152 L2701.12 193.536 L2693.67 193.536 L2693.67 166.395 Q2693.67 159.954 2691.15 156.754 Q2688.64 153.554 2683.62 153.554 Q2677.58 153.554 2674.1 157.402 Q2670.62 161.25 2670.62 167.894 L2670.62 193.536 L2663.12 193.536 L2663.12 148.166 L2670.62 148.166 L2670.62 155.214 Q2673.29 151.123 2676.89 149.098 Q2680.54 147.072 2685.28 147.072 Q2693.1 147.072 2697.11 151.933 Q2701.12 156.754 2701.12 166.152 Z" fill="#000000" fill-rule="nonzero" fill-opacity="1" /><path clip-path="url(#clip550)" d="M2745.84 170.324 Q2745.84 162.223 2742.48 157.767 Q2739.16 153.311 2733.12 153.311 Q2727.13 153.311 2723.76 157.767 Q2720.44 162.223 2720.44 170.324 Q2720.44 178.386 2723.76 182.842 Q2727.13 187.298 2733.12 187.298 Q2739.16 187.298 2742.48 182.842 Q2745.84 178.386 2745.84 170.324 M2753.29 187.905 Q2753.29 199.491 2748.15 205.122 Q2743.01 210.793 2732.39 210.793 Q2728.46 210.793 2724.98 210.185 Q2721.5 209.618 2718.21 208.403 L2718.21 201.152 Q2721.5 202.934 2724.7 203.785 Q2727.9 204.635 2731.22 204.635 Q2738.55 204.635 2742.2 200.787 Q2745.84 196.979 2745.84 189.242 L2745.84 185.556 Q2743.53 189.566 2739.93 191.551 Q2736.32 193.536 2731.3 193.536 Q2722.95 193.536 2717.85 187.176 Q2712.75 180.816 2712.75 170.324 Q2712.75 159.792 2717.85 153.432 Q2722.95 147.072 2731.3 147.072 Q2736.32 147.072 2739.93 149.057 Q2743.53 151.042 2745.84 155.052 L2745.84 148.166 L2753.29 148.166 L2753.29 187.905 Z" fill="#000000" fill-rule="nonzero" fill-opacity="1" /><path clip-path="url(#clip550)" d="M2770.55 183.247 L2779.1 183.247 L2779.1 190.214 L2772.46 203.177 L2767.23 203.177 L2770.55 190.214 L2770.55 183.247 Z" fill="#000000" fill-rule="nonzero" fill-opacity="1" /><path clip-path="url(#clip550)" d="M1304.65 223.776 L1316.84 223.776 L1332.28 264.933 L1347.79 223.776 L1359.99 223.776 L1359.99 284.256 L1352.01 284.256 L1352.01 231.149 L1336.41 272.63 L1328.19 272.63 L1312.59 231.149 L1312.59 284.256 L1304.65 284.256 L1304.65 223.776 Z" fill="#000000" fill-rule="nonzero" fill-opacity="1" /><path clip-path="url(#clip550)" d="M1414.71 259.708 L1414.71 263.353 L1380.44 263.353 Q1380.93 271.05 1385.06 275.101 Q1389.23 279.111 1396.65 279.111 Q1400.94 279.111 1404.95 278.058 Q1409 277.005 1412.97 274.898 L1412.97 281.947 Q1408.96 283.648 1404.75 284.54 Q1400.54 285.431 1396.2 285.431 Q1385.34 285.431 1378.98 279.111 Q1372.67 272.792 1372.67 262.017 Q1372.67 250.877 1378.66 244.355 Q1384.7 237.792 1394.9 237.792 Q1404.06 237.792 1409.37 243.706 Q1414.71 249.58 1414.71 259.708 M1407.26 257.52 Q1407.18 251.403 1403.82 247.757 Q1400.5 244.112 1394.99 244.112 Q1388.75 244.112 1384.98 247.636 Q1381.25 251.16 1380.69 257.561 L1407.26 257.52 Z" fill="#000000" fill-rule="nonzero" fill-opacity="1" /><path clip-path="url(#clip550)" d="M1456.8 245.772 L1456.8 221.224 L1464.26 221.224 L1464.26 284.256 L1456.8 284.256 L1456.8 277.45 Q1454.45 281.501 1450.85 283.486 Q1447.28 285.431 1442.26 285.431 Q1434.04 285.431 1428.85 278.868 Q1423.71 272.306 1423.71 261.611 Q1423.71 250.917 1428.85 244.355 Q1434.04 237.792 1442.26 237.792 Q1447.28 237.792 1450.85 239.777 Q1454.45 241.722 1456.8 245.772 M1431.4 261.611 Q1431.4 269.835 1434.77 274.534 Q1438.17 279.192 1444.08 279.192 Q1450 279.192 1453.4 274.534 Q1456.8 269.835 1456.8 261.611 Q1456.8 253.388 1453.4 248.73 Q1450 244.031 1444.08 244.031 Q1438.17 244.031 1434.77 248.73 Q1431.4 253.388 1431.4 261.611 Z" fill="#000000" fill-rule="nonzero" fill-opacity="1" /><path clip-path="url(#clip550)" d="M1479.61 238.886 L1487.06 238.886 L1487.06 284.256 L1479.61 284.256 L1479.61 238.886 M1479.61 221.224 L1487.06 221.224 L1487.06 230.663 L1479.61 230.663 L1479.61 221.224 Z" fill="#000000" fill-rule="nonzero" fill-opacity="1" /><path clip-path="url(#clip550)" d="M1523.28 261.449 Q1514.24 261.449 1510.76 263.515 Q1507.28 265.581 1507.28 270.564 Q1507.28 274.534 1509.87 276.883 Q1512.5 279.192 1517 279.192 Q1523.2 279.192 1526.92 274.817 Q1530.69 270.402 1530.69 263.11 L1530.69 261.449 L1523.28 261.449 M1538.14 258.371 L1538.14 284.256 L1530.69 284.256 L1530.69 277.369 Q1528.14 281.501 1524.33 283.486 Q1520.52 285.431 1515.01 285.431 Q1508.05 285.431 1503.91 281.542 Q1499.82 277.613 1499.82 271.05 Q1499.82 263.394 1504.93 259.505 Q1510.07 255.616 1520.24 255.616 L1530.69 255.616 L1530.69 254.887 Q1530.69 249.742 1527.29 246.947 Q1523.93 244.112 1517.81 244.112 Q1513.92 244.112 1510.23 245.043 Q1506.55 245.975 1503.15 247.838 L1503.15 240.952 Q1507.24 239.372 1511.08 238.602 Q1514.93 237.792 1518.58 237.792 Q1528.42 237.792 1533.28 242.896 Q1538.14 248 1538.14 258.371 Z" fill="#000000" fill-rule="nonzero" fill-opacity="1" /><path clip-path="url(#clip550)" d="M1591.21 256.872 L1591.21 284.256 L1583.76 284.256 L1583.76 257.115 Q1583.76 250.674 1581.25 247.474 Q1578.73 244.274 1573.71 244.274 Q1567.68 244.274 1564.19 248.122 Q1560.71 251.97 1560.71 258.614 L1560.71 284.256 L1553.21 284.256 L1553.21 238.886 L1560.71 238.886 L1560.71 245.934 Q1563.38 241.843 1566.99 239.818 Q1570.63 237.792 1575.37 237.792 Q1583.19 237.792 1587.2 242.653 Q1591.21 247.474 1591.21 256.872 Z" fill="#000000" fill-rule="nonzero" fill-opacity="1" /><path clip-path="url(#clip550)" d="M1607.98 273.967 L1616.53 273.967 L1616.53 280.934 L1609.89 293.897 L1604.66 293.897 L1607.98 280.934 L1607.98 273.967 Z" fill="#000000" fill-rule="nonzero" fill-opacity="1" /><path clip-path="url(#clip550)" d="M1689.16 232.242 L1689.16 254.806 L1711.73 254.806 L1711.73 261.692 L1689.16 261.692 L1689.16 284.256 L1682.36 284.256 L1682.36 261.692 L1659.79 261.692 L1659.79 254.806 L1682.36 254.806 L1682.36 232.242 L1689.16 232.242 Z" fill="#000000" fill-rule="nonzero" fill-opacity="1" /><path clip-path="url(#clip550)" d="M1741.58 223.776 L1748.47 223.776 L1727.4 291.953 L1720.52 291.953 L1741.58 223.776 Z" fill="#000000" fill-rule="nonzero" fill-opacity="1" /><path clip-path="url(#clip550)" d="M1752.52 258.209 L1774.35 258.209 L1774.35 264.852 L1752.52 264.852 L1752.52 258.209 Z" fill="#000000" fill-rule="nonzero" fill-opacity="1" /><path clip-path="url(#clip550)" d="M1807.53 223.776 L1815.79 223.776 L1828.51 274.898 L1841.19 223.776 L1850.39 223.776 L1863.11 274.898 L1875.79 223.776 L1884.09 223.776 L1868.9 284.256 L1858.61 284.256 L1845.85 231.756 L1832.97 284.256 L1822.68 284.256 L1807.53 223.776 Z" fill="#000000" fill-rule="nonzero" fill-opacity="1" /><path clip-path="url(#clip550)" d="M1894.95 223.776 L1907.14 223.776 L1922.58 264.933 L1938.09 223.776 L1950.28 223.776 L1950.28 284.256 L1942.3 284.256 L1942.3 231.149 L1926.71 272.63 L1918.48 272.63 L1902.89 231.149 L1902.89 284.256 L1894.95 284.256 L1894.95 223.776 Z" fill="#000000" fill-rule="nonzero" fill-opacity="1" /><path clip-path="url(#clip550)" d="M1986.74 231.837 L1975.64 261.936 L1997.88 261.936 L1986.74 231.837 M1982.12 223.776 L1991.4 223.776 L2014.45 284.256 L2005.94 284.256 L2000.43 268.741 L1973.17 268.741 L1967.66 284.256 L1959.03 284.256 L1982.12 223.776 Z" fill="#000000" fill-rule="nonzero" fill-opacity="1" /><path clip-path="url(#clip550)" d="M2031.46 230.501 L2031.46 277.531 L2041.35 277.531 Q2053.87 277.531 2059.66 271.86 Q2065.49 266.189 2065.49 253.955 Q2065.49 241.803 2059.66 236.172 Q2053.87 230.501 2041.35 230.501 L2031.46 230.501 M2023.28 223.776 L2040.09 223.776 Q2057.67 223.776 2065.9 231.108 Q2074.12 238.4 2074.12 253.955 Q2074.12 269.592 2065.86 276.924 Q2057.59 284.256 2040.09 284.256 L2023.28 284.256 L2023.28 223.776 Z" fill="#000000" fill-rule="nonzero" fill-opacity="1" /><polyline clip-path="url(#clip552)" style="stroke:#000000; stroke-linecap:round; stroke-linejoin:round; stroke-width:8; stroke-opacity:1; fill:none" stroke-dasharray="4, 8" points="386.287,1263.53 412.612,1270.9 438.937,1117.6 465.263,1460.28 491.588,1435.39 517.913,1383.85 544.238,1496.71 "/>
<polyline clip-path="url(#clip552)" style="stroke:#000000; stroke-linecap:round; stroke-linejoin:round; stroke-width:8; stroke-opacity:1; fill:none" stroke-dasharray="4, 8" points="2808.21,760.38 2834.53,620.608 2860.86,513.15 2887.18,503.194 2913.51,496.333 2939.83,360.306 2966.16,324.598 2992.48,304.565 "/>
<polyline clip-path="url(#clip552)" style="stroke:#000000; stroke-linecap:round; stroke-linejoin:round; stroke-width:8; stroke-opacity:0.3; fill:none" points="570.563,1562.39 596.889,1626.66 623.214,1531.98 649.539,1526.81 675.864,1721.25 702.19,1380.02 728.515,1376.96 754.84,1294.49 781.165,1210.71 807.49,1095.91 833.816,1028.13 860.141,979.841 886.466,1124.95 912.791,921.873 939.117,1074.06 965.442,1061.44 991.767,1177.17 1018.09,1275.01 1044.42,1273.32 1070.74,1395.18 1097.07,1690.79 1123.39,1360.56 1149.72,1350.92 1176.04,1490.85 1202.37,1571.12 1228.69,1298.1 1255.02,1368.38 1281.34,1085.21 1307.67,819.148 1333.99,867.671 1360.32,925.615 1386.65,783.675 1412.97,836.524 1439.3,932.937 1465.62,711.955 1491.95,852.394 1518.27,922.59 1544.6,922.997 1570.92,1189.9 1597.25,1195.03 1623.57,1186.14 1649.9,1265.47 1676.22,1386.62 1702.55,1276.72 1728.87,1379.41 1755.2,1110.11 1781.52,1020.04 1807.85,984.996 1834.17,858.714 1860.5,804.906 1886.82,635.524 1913.15,764.729 1939.47,697.328 1965.8,672.242 1992.13,875.322 2018.45,777.302 2044.78,791.446 2071.1,845.214 2097.43,948.047 2123.75,937.114 2150.08,954.41 2176.4,1076.34 2202.73,1059.79 2229.05,992.834 2255.38,1001.37 2281.7,1074.79 2308.03,857.364 2334.35,830.696 2360.68,778.171 2387,594.023 2413.33,461.908 2439.65,548.168 2465.98,446.35 2492.3,538.554 2518.63,444.206 2544.96,607.915 2571.28,678.826 2597.61,741.204 2623.93,748.944 2650.26,931.765 2676.58,954.21 2702.91,939.43 2729.23,897.034 2755.56,815.613 2781.88,944.596 "/>
<path clip-path="url(#clip552)" d="M570.563 1647.75 L596.889 1670.52 L623.214 1691.29 L649.539 1671.29 L675.864 1714.33 L702.19 1561.65 L728.515 1468.37 L754.84 1295.01 L781.165 1233.64 L807.49 1187.65 L833.816 1167.99 L860.141 1087.14 L886.466 1036.34 L912.791 1014.24 L939.117 1140.74 L965.442 1202.51 L991.767 1224.25 L1018.09 1416.22 L1044.42 1327.75 L1070.74 1414.67 L1097.07 1443.36 L1123.39 1567.36 L1149.72 1528.02 L1176.04 1449.49 L1202.37 1405.4 L1228.69 1352.91 L1255.02 1290.67 L1281.34 1188.62 L1307.67 1107.43 L1333.99 952.758 L1360.32 957.181 L1386.65 886.165 L1412.97 908.684 L1439.3 879.848 L1465.62 948.184 L1491.95 1020 L1518.27 1057.1 L1544.6 1194.23 L1570.92 1224.47 L1597.25 1316.51 L1623.57 1381.78 L1649.9 1340.59 L1676.22 1326.2 L1702.55 1339.62 L1728.87 1272 L1755.2 1200.6 L1781.52 1100.25 L1807.85 1004.9 L1834.17 897.55 L1860.5 856.019 L1886.82 771.601 L1913.15 741.647 L1939.47 725.581 L1965.8 784.658 L1992.13 803.804 L2018.45 867.558 L2044.78 968.033 L2071.1 1002.87 L2097.43 1081.91 L2123.75 1165.98 L2150.08 1240.68 L2176.4 1220.59 L2202.73 1242.57 L2229.05 1170.37 L2255.38 1075.43 L2281.7 1010.27 L2308.03 927.127 L2334.35 801.837 L2360.68 754.34 L2387 638.674 L2413.33 615.768 L2439.65 552.323 L2465.98 555.167 L2492.3 565.264 L2518.63 610.202 L2544.96 695.342 L2571.28 772.896 L2597.61 856.812 L2623.93 945.835 L2650.26 979.407 L2676.58 1027.87 L2702.91 976.391 L2729.23 1000.18 L2755.56 1034.72 L2781.88 970.956 L2781.88 846.313 L2755.56 897.742 L2729.23 872.827 L2702.91 851.229 L2676.58 897.22 L2650.26 851.87 L2623.93 817.389 L2597.61 719.413 L2571.28 649.643 L2544.96 558.199 L2518.63 489.723 L2492.3 445.735 L2465.98 437.691 L2439.65 433.825 L2413.33 488.205 L2387 504.229 L2360.68 618.315 L2334.35 670.684 L2308.03 778.508 L2281.7 880.097 L2255.38 924.057 L2229.05 1037.27 L2202.73 1093.7 L2176.4 1070.93 L2150.08 1096.69 L2123.75 1030.22 L2097.43 937.456 L2071.1 842.137 L2044.78 800.402 L2018.45 688.341 L1992.13 649.232 L1965.8 631.339 L1939.47 603.284 L1913.15 617.685 L1886.82 635.178 L1860.5 713.286 L1834.17 745.593 L1807.85 847.572 L1781.52 949.962 L1755.2 1049.1 L1728.87 1125.15 L1702.55 1190.5 L1676.22 1189.56 L1649.9 1199.54 L1623.57 1254 L1597.25 1175.2 L1570.92 1096.88 L1544.6 1048.71 L1518.27 890.87 L1491.95 880.09 L1465.62 809.857 L1439.3 731.231 L1412.97 764.536 L1386.65 748.461 L1360.32 810.357 L1333.99 818.759 L1307.67 969.922 L1281.34 1023.37 L1255.02 1140.43 L1228.69 1200.32 L1202.37 1277.55 L1176.04 1331.44 L1149.72 1403.67 L1123.39 1387.03 L1097.07 1317.51 L1070.74 1281.59 L1044.42 1153.92 L1018.09 1222.73 L991.767 1086.69 L965.442 1027.05 L939.117 983.384 L912.791 869.022 L886.466 902.281 L860.141 947.778 L833.816 1017.08 L807.49 1029.32 L781.165 1095.53 L754.84 1151.85 L728.515 1325.01 L702.19 1422.95 L675.864 1539.09 L649.539 1541.09 L623.214 1531.88 L596.889 1541.96 L570.563 1527.41  Z" fill="#ff0000" fill-rule="evenodd" fill-opacity="0.15"/>
<polyline clip-path="url(#clip552)" style="stroke:#ff0000; stroke-linecap:round; stroke-linejoin:round; stroke-width:8; stroke-opacity:0.8; fill:none" points="570.563,1587.58 596.889,1606.24 623.214,1611.58 649.539,1606.19 675.864,1626.71 702.19,1492.3 728.515,1396.69 754.84,1223.43 781.165,1164.58 807.49,1108.49 833.816,1092.54 860.141,1017.46 886.466,969.312 912.791,941.631 939.117,1062.06 965.442,1114.78 991.767,1155.47 1018.09,1319.47 1044.42,1240.84 1070.74,1348.13 1097.07,1380.43 1123.39,1477.19 1149.72,1465.84 1176.04,1390.47 1202.37,1341.47 1228.69,1276.61 1255.02,1215.55 1281.34,1106 1307.67,1038.67 1333.99,885.758 1360.32,883.769 1386.65,817.313 1412.97,836.61 1439.3,805.539 1465.62,879.02 1491.95,950.043 1518.27,973.984 1544.6,1121.47 1570.92,1160.67 1597.25,1245.85 1623.57,1317.89 1649.9,1270.07 1676.22,1257.88 1702.55,1265.06 1728.87,1198.57 1755.2,1124.85 1781.52,1025.11 1807.85,926.236 1834.17,821.572 1860.5,784.653 1886.82,703.39 1913.15,679.666 1939.47,664.432 1965.8,707.998 1992.13,726.518 2018.45,777.95 2044.78,884.218 2071.1,922.503 2097.43,1009.68 2123.75,1098.1 2150.08,1168.69 2176.4,1145.76 2202.73,1168.13 2229.05,1103.82 2255.38,999.745 2281.7,945.182 2308.03,852.818 2334.35,736.26 2360.68,686.327 2387,571.451 2413.33,551.987 2439.65,493.074 2465.98,496.429 2492.3,505.5 2518.63,549.962 2544.96,626.771 2571.28,711.269 2597.61,788.113 2623.93,881.612 2650.26,915.638 2676.58,962.546 2702.91,913.81 2729.23,936.504 2755.56,966.23 2781.88,908.634 "/>
<path clip-path="url(#clip550)" d="M3192.16 519.48 L3952.76 519.48 L3952.76 312.12 L3192.16 312.12  Z" fill="#ffffff" fill-rule="evenodd" fill-opacity="1"/>
<polyline clip-path="url(#clip550)" style="stroke:#000000; stroke-linecap:round; stroke-linejoin:round; stroke-width:4; stroke-opacity:1; fill:none" points="3192.16,519.48 3952.76,519.48 3952.76,312.12 3192.16,312.12 3192.16,519.48 "/>
<polyline clip-path="url(#clip550)" style="stroke:#000000; stroke-linecap:round; stroke-linejoin:round; stroke-width:8; stroke-opacity:1; fill:none" stroke-dasharray="4, 8" points="3232.65,363.96 3475.63,363.96 "/>
<path clip-path="url(#clip550)" d="M3532.15 349.852 Q3527.05 349.852 3524.04 353.648 Q3521.06 357.444 3521.06 363.995 Q3521.06 370.523 3524.04 374.319 Q3527.05 378.115 3532.15 378.115 Q3537.24 378.115 3540.2 374.319 Q3543.19 370.523 3543.19 363.995 Q3543.19 357.444 3540.2 353.648 Q3537.24 349.852 3532.15 349.852 M3532.15 346.055 Q3539.41 346.055 3543.77 350.94 Q3548.12 355.801 3548.12 363.995 Q3548.12 372.166 3543.77 377.051 Q3539.41 381.912 3532.15 381.912 Q3524.85 381.912 3520.48 377.051 Q3516.13 372.189 3516.13 363.995 Q3516.13 355.801 3520.48 350.94 Q3524.85 346.055 3532.15 346.055 Z" fill="#000000" fill-rule="nonzero" fill-opacity="1" /><path clip-path="url(#clip550)" d="M3573.86 368.301 Q3573.86 363.602 3571.91 360.94 Q3569.99 358.254 3566.61 358.254 Q3563.23 358.254 3561.29 360.94 Q3559.37 363.602 3559.37 368.301 Q3559.37 373 3561.29 375.685 Q3563.23 378.347 3566.61 378.347 Q3569.99 378.347 3571.91 375.685 Q3573.86 373 3573.86 368.301 M3559.37 359.25 Q3560.71 356.935 3562.75 355.824 Q3564.81 354.69 3567.66 354.69 Q3572.38 354.69 3575.32 358.44 Q3578.28 362.19 3578.28 368.301 Q3578.28 374.412 3575.32 378.162 Q3572.38 381.912 3567.66 381.912 Q3564.81 381.912 3562.75 380.801 Q3560.71 379.666 3559.37 377.351 L3559.37 381.24 L3555.09 381.24 L3555.09 345.222 L3559.37 345.222 L3559.37 359.25 Z" fill="#000000" fill-rule="nonzero" fill-opacity="1" /><path clip-path="url(#clip550)" d="M3601.87 356.078 L3601.87 360.106 Q3600.06 359.18 3598.12 358.717 Q3596.17 358.254 3594.09 358.254 Q3590.92 358.254 3589.32 359.227 Q3587.75 360.199 3587.75 362.143 Q3587.75 363.625 3588.88 364.481 Q3590.02 365.315 3593.44 366.078 L3594.9 366.402 Q3599.44 367.375 3601.34 369.157 Q3603.26 370.916 3603.26 374.088 Q3603.26 377.699 3600.39 379.805 Q3597.54 381.912 3592.54 381.912 Q3590.46 381.912 3588.19 381.495 Q3585.94 381.101 3583.44 380.291 L3583.44 375.893 Q3585.8 377.12 3588.09 377.745 Q3590.39 378.347 3592.63 378.347 Q3595.64 378.347 3597.26 377.328 Q3598.88 376.287 3598.88 374.412 Q3598.88 372.676 3597.7 371.75 Q3596.54 370.824 3592.59 369.967 L3591.1 369.62 Q3587.15 368.787 3585.39 367.074 Q3583.63 365.338 3583.63 362.328 Q3583.63 358.671 3586.22 356.68 Q3588.81 354.69 3593.58 354.69 Q3595.94 354.69 3598.03 355.037 Q3600.11 355.384 3601.87 356.078 Z" fill="#000000" fill-rule="nonzero" fill-opacity="1" /><path clip-path="url(#clip550)" d="M3632.21 367.213 L3632.21 369.296 L3612.63 369.296 Q3612.91 373.694 3615.27 376.009 Q3617.65 378.301 3621.89 378.301 Q3624.34 378.301 3626.64 377.699 Q3628.95 377.097 3631.22 375.893 L3631.22 379.921 Q3628.93 380.893 3626.52 381.402 Q3624.11 381.912 3621.64 381.912 Q3615.43 381.912 3611.8 378.301 Q3608.19 374.689 3608.19 368.532 Q3608.19 362.166 3611.61 358.44 Q3615.06 354.69 3620.9 354.69 Q3626.13 354.69 3629.16 358.069 Q3632.21 361.426 3632.21 367.213 M3627.96 365.963 Q3627.91 362.467 3625.99 360.384 Q3624.09 358.301 3620.94 358.301 Q3617.38 358.301 3615.22 360.315 Q3613.09 362.328 3612.77 365.986 L3627.96 365.963 Z" fill="#000000" fill-rule="nonzero" fill-opacity="1" /><path clip-path="url(#clip550)" d="M3654.23 359.296 Q3653.51 358.879 3652.65 358.694 Q3651.82 358.486 3650.8 358.486 Q3647.19 358.486 3645.25 360.847 Q3643.33 363.185 3643.33 367.583 L3643.33 381.24 L3639.04 381.24 L3639.04 355.315 L3643.33 355.315 L3643.33 359.342 Q3644.67 356.981 3646.82 355.847 Q3648.97 354.69 3652.05 354.69 Q3652.49 354.69 3653.03 354.759 Q3653.56 354.805 3654.21 354.921 L3654.23 359.296 Z" fill="#000000" fill-rule="nonzero" fill-opacity="1" /><path clip-path="url(#clip550)" d="M3655.64 355.315 L3660.15 355.315 L3668.26 377.074 L3676.36 355.315 L3680.87 355.315 L3671.15 381.24 L3665.36 381.24 L3655.64 355.315 Z" fill="#000000" fill-rule="nonzero" fill-opacity="1" /><path clip-path="url(#clip550)" d="M3708.93 367.213 L3708.93 369.296 L3689.34 369.296 Q3689.62 373.694 3691.98 376.009 Q3694.37 378.301 3698.6 378.301 Q3701.06 378.301 3703.35 377.699 Q3705.66 377.097 3707.93 375.893 L3707.93 379.921 Q3705.64 380.893 3703.23 381.402 Q3700.83 381.912 3698.35 381.912 Q3692.15 381.912 3688.51 378.301 Q3684.9 374.689 3684.9 368.532 Q3684.9 362.166 3688.33 358.44 Q3691.77 354.69 3697.61 354.69 Q3702.84 354.69 3705.87 358.069 Q3708.93 361.426 3708.93 367.213 M3704.67 365.963 Q3704.62 362.467 3702.7 360.384 Q3700.8 358.301 3697.65 358.301 Q3694.09 358.301 3691.94 360.315 Q3689.81 362.328 3689.48 365.986 L3704.67 365.963 Z" fill="#000000" fill-rule="nonzero" fill-opacity="1" /><path clip-path="url(#clip550)" d="M3732.98 359.25 L3732.98 345.222 L3737.24 345.222 L3737.24 381.24 L3732.98 381.24 L3732.98 377.351 Q3731.64 379.666 3729.58 380.801 Q3727.54 381.912 3724.67 381.912 Q3719.97 381.912 3717.01 378.162 Q3714.07 374.412 3714.07 368.301 Q3714.07 362.19 3717.01 358.44 Q3719.97 354.69 3724.67 354.69 Q3727.54 354.69 3729.58 355.824 Q3731.64 356.935 3732.98 359.25 M3718.46 368.301 Q3718.46 373 3720.39 375.685 Q3722.33 378.347 3725.71 378.347 Q3729.09 378.347 3731.03 375.685 Q3732.98 373 3732.98 368.301 Q3732.98 363.602 3731.03 360.94 Q3729.09 358.254 3725.71 358.254 Q3722.33 358.254 3720.39 360.94 Q3718.46 363.602 3718.46 368.301 Z" fill="#000000" fill-rule="nonzero" fill-opacity="1" /><polyline clip-path="url(#clip550)" style="stroke:#000000; stroke-linecap:round; stroke-linejoin:round; stroke-width:8; stroke-opacity:0.3; fill:none" points="3232.65,415.8 3475.63,415.8 "/>
<path clip-path="url(#clip550)" d="M3541.68 428.15 L3541.68 418.867 L3534.04 418.867 L3534.04 415.025 L3546.31 415.025 L3546.31 429.863 Q3543.6 431.784 3540.34 432.779 Q3537.08 433.752 3533.37 433.752 Q3525.27 433.752 3520.69 429.029 Q3516.13 424.284 3516.13 415.835 Q3516.13 407.363 3520.69 402.641 Q3525.27 397.895 3533.37 397.895 Q3536.75 397.895 3539.78 398.729 Q3542.84 399.562 3545.41 401.182 L3545.41 406.159 Q3542.82 403.96 3539.9 402.849 Q3536.98 401.738 3533.77 401.738 Q3527.42 401.738 3524.23 405.28 Q3521.06 408.821 3521.06 415.835 Q3521.06 422.826 3524.23 426.367 Q3527.42 429.909 3533.77 429.909 Q3536.24 429.909 3538.19 429.492 Q3540.13 429.053 3541.68 428.15 Z" fill="#000000" fill-rule="nonzero" fill-opacity="1" /><path clip-path="url(#clip550)" d="M3569.69 411.136 Q3568.97 410.719 3568.12 410.534 Q3567.28 410.326 3566.27 410.326 Q3562.66 410.326 3560.71 412.687 Q3558.79 415.025 3558.79 419.423 L3558.79 433.08 L3554.51 433.08 L3554.51 407.155 L3558.79 407.155 L3558.79 411.182 Q3560.13 408.821 3562.28 407.687 Q3564.44 406.53 3567.52 406.53 Q3567.96 406.53 3568.49 406.599 Q3569.02 406.645 3569.67 406.761 L3569.69 411.136 Z" fill="#000000" fill-rule="nonzero" fill-opacity="1" /><path clip-path="url(#clip550)" d="M3583.16 410.141 Q3579.74 410.141 3577.75 412.826 Q3575.76 415.488 3575.76 420.141 Q3575.76 424.793 3577.72 427.479 Q3579.72 430.141 3583.16 430.141 Q3586.57 430.141 3588.56 427.455 Q3590.55 424.77 3590.55 420.141 Q3590.55 415.534 3588.56 412.849 Q3586.57 410.141 3583.16 410.141 M3583.16 406.53 Q3588.72 406.53 3591.89 410.141 Q3595.06 413.752 3595.06 420.141 Q3595.06 426.506 3591.89 430.141 Q3588.72 433.752 3583.16 433.752 Q3577.59 433.752 3574.41 430.141 Q3571.27 426.506 3571.27 420.141 Q3571.27 413.752 3574.41 410.141 Q3577.59 406.53 3583.16 406.53 Z" fill="#000000" fill-rule="nonzero" fill-opacity="1" /><path clip-path="url(#clip550)" d="M3601.68 422.849 L3601.68 407.155 L3605.94 407.155 L3605.94 422.687 Q3605.94 426.367 3607.38 428.219 Q3608.81 430.048 3611.68 430.048 Q3615.13 430.048 3617.12 427.849 Q3619.14 425.65 3619.14 421.854 L3619.14 407.155 L3623.4 407.155 L3623.4 433.08 L3619.14 433.08 L3619.14 429.099 Q3617.59 431.46 3615.53 432.617 Q3613.49 433.752 3610.78 433.752 Q3606.31 433.752 3604 430.974 Q3601.68 428.196 3601.68 422.849 M3612.4 406.53 L3612.4 406.53 Z" fill="#000000" fill-rule="nonzero" fill-opacity="1" /><path clip-path="url(#clip550)" d="M3653.72 417.432 L3653.72 433.08 L3649.46 433.08 L3649.46 417.571 Q3649.46 413.891 3648.03 412.062 Q3646.59 410.233 3643.72 410.233 Q3640.27 410.233 3638.28 412.432 Q3636.29 414.631 3636.29 418.428 L3636.29 433.08 L3632.01 433.08 L3632.01 407.155 L3636.29 407.155 L3636.29 411.182 Q3637.82 408.844 3639.88 407.687 Q3641.96 406.53 3644.67 406.53 Q3649.14 406.53 3651.43 409.307 Q3653.72 412.062 3653.72 417.432 Z" fill="#000000" fill-rule="nonzero" fill-opacity="1" /><path clip-path="url(#clip550)" d="M3679.27 411.09 L3679.27 397.062 L3683.53 397.062 L3683.53 433.08 L3679.27 433.08 L3679.27 429.191 Q3677.93 431.506 3675.87 432.641 Q3673.84 433.752 3670.96 433.752 Q3666.27 433.752 3663.3 430.002 Q3660.36 426.252 3660.36 420.141 Q3660.36 414.03 3663.3 410.28 Q3666.27 406.53 3670.96 406.53 Q3673.84 406.53 3675.87 407.664 Q3677.93 408.775 3679.27 411.09 M3664.76 420.141 Q3664.76 424.84 3666.68 427.525 Q3668.63 430.187 3672.01 430.187 Q3675.39 430.187 3677.33 427.525 Q3679.27 424.84 3679.27 420.141 Q3679.27 415.442 3677.33 412.78 Q3675.39 410.094 3672.01 410.094 Q3668.63 410.094 3666.68 412.78 Q3664.76 415.442 3664.76 420.141 Z" fill="#000000" fill-rule="nonzero" fill-opacity="1" /><path clip-path="url(#clip550)" d="M3711.59 399.794 L3711.59 407.155 L3720.36 407.155 L3720.36 410.465 L3711.59 410.465 L3711.59 424.539 Q3711.59 427.71 3712.45 428.613 Q3713.33 429.516 3715.99 429.516 L3720.36 429.516 L3720.36 433.08 L3715.99 433.08 Q3711.06 433.08 3709.18 431.252 Q3707.31 429.4 3707.31 424.539 L3707.31 410.465 L3704.18 410.465 L3704.18 407.155 L3707.31 407.155 L3707.31 399.794 L3711.59 399.794 Z" fill="#000000" fill-rule="nonzero" fill-opacity="1" /><path clip-path="url(#clip550)" d="M3740.99 411.136 Q3740.27 410.719 3739.41 410.534 Q3738.58 410.326 3737.56 410.326 Q3733.95 410.326 3732.01 412.687 Q3730.08 415.025 3730.08 419.423 L3730.08 433.08 L3725.8 433.08 L3725.8 407.155 L3730.08 407.155 L3730.08 411.182 Q3731.43 408.821 3733.58 407.687 Q3735.73 406.53 3738.81 406.53 Q3739.25 406.53 3739.78 406.599 Q3740.32 406.645 3740.96 406.761 L3740.99 411.136 Z" fill="#000000" fill-rule="nonzero" fill-opacity="1" /><path clip-path="url(#clip550)" d="M3745.02 422.849 L3745.02 407.155 L3749.27 407.155 L3749.27 422.687 Q3749.27 426.367 3750.71 428.219 Q3752.14 430.048 3755.02 430.048 Q3758.46 430.048 3760.45 427.849 Q3762.47 425.65 3762.47 421.854 L3762.47 407.155 L3766.73 407.155 L3766.73 433.08 L3762.47 433.08 L3762.47 429.099 Q3760.92 431.46 3758.86 432.617 Q3756.82 433.752 3754.11 433.752 Q3749.64 433.752 3747.33 430.974 Q3745.02 428.196 3745.02 422.849 M3755.73 406.53 L3755.73 406.53 Z" fill="#000000" fill-rule="nonzero" fill-opacity="1" /><path clip-path="url(#clip550)" d="M3779.71 399.794 L3779.71 407.155 L3788.49 407.155 L3788.49 410.465 L3779.71 410.465 L3779.71 424.539 Q3779.71 427.71 3780.57 428.613 Q3781.45 429.516 3784.11 429.516 L3788.49 429.516 L3788.49 433.08 L3784.11 433.08 Q3779.18 433.08 3777.31 431.252 Q3775.43 429.4 3775.43 424.539 L3775.43 410.465 L3772.31 410.465 L3772.31 407.155 L3775.43 407.155 L3775.43 399.794 L3779.71 399.794 Z" fill="#000000" fill-rule="nonzero" fill-opacity="1" /><path clip-path="url(#clip550)" d="M3815.64 417.432 L3815.64 433.08 L3811.38 433.08 L3811.38 417.571 Q3811.38 413.891 3809.95 412.062 Q3808.51 410.233 3805.64 410.233 Q3802.19 410.233 3800.2 412.432 Q3798.21 414.631 3798.21 418.428 L3798.21 433.08 L3793.93 433.08 L3793.93 397.062 L3798.21 397.062 L3798.21 411.182 Q3799.74 408.844 3801.8 407.687 Q3803.88 406.53 3806.59 406.53 Q3811.06 406.53 3813.35 409.307 Q3815.64 412.062 3815.64 417.432 Z" fill="#000000" fill-rule="nonzero" fill-opacity="1" /><polyline clip-path="url(#clip550)" style="stroke:#ff0000; stroke-linecap:round; stroke-linejoin:round; stroke-width:8; stroke-opacity:0.8; fill:none" points="3232.65,467.64 3475.63,467.64 "/>
<path clip-path="url(#clip550)" d="M3516.13 450.36 L3523.1 450.36 L3531.91 473.879 L3540.78 450.36 L3547.75 450.36 L3547.75 484.92 L3543.19 484.92 L3543.19 454.573 L3534.28 478.277 L3529.58 478.277 L3520.66 454.573 L3520.66 484.92 L3516.13 484.92 L3516.13 450.36 Z" fill="#000000" fill-rule="nonzero" fill-opacity="1" /><path clip-path="url(#clip550)" d="M3561.71 454.203 L3561.71 467.189 L3567.59 467.189 Q3570.85 467.189 3572.63 465.499 Q3574.41 463.809 3574.41 460.684 Q3574.41 457.583 3572.63 455.893 Q3570.85 454.203 3567.59 454.203 L3561.71 454.203 M3557.03 450.36 L3567.59 450.36 Q3573.4 450.36 3576.36 452.999 Q3579.34 455.615 3579.34 460.684 Q3579.34 465.8 3576.36 468.416 Q3573.4 471.032 3567.59 471.032 L3561.71 471.032 L3561.71 484.92 L3557.03 484.92 L3557.03 450.36 Z" fill="#000000" fill-rule="nonzero" fill-opacity="1" /><path clip-path="url(#clip550)" d="M3606.34 451.495 L3606.34 456.055 Q3603.67 454.782 3601.31 454.157 Q3598.95 453.532 3596.75 453.532 Q3592.93 453.532 3590.85 455.013 Q3588.79 456.495 3588.79 459.226 Q3588.79 461.518 3590.15 462.698 Q3591.54 463.856 3595.39 464.573 L3598.21 465.152 Q3603.44 466.147 3605.92 468.67 Q3608.42 471.17 3608.42 475.383 Q3608.42 480.407 3605.04 482.999 Q3601.68 485.592 3595.18 485.592 Q3592.72 485.592 3589.95 485.036 Q3587.19 484.481 3584.23 483.393 L3584.23 478.578 Q3587.08 480.175 3589.81 480.985 Q3592.54 481.795 3595.18 481.795 Q3599.18 481.795 3601.36 480.221 Q3603.53 478.647 3603.53 475.731 Q3603.53 473.184 3601.96 471.749 Q3600.41 470.314 3596.84 469.596 L3594 469.041 Q3588.77 467.999 3586.43 465.777 Q3584.09 463.555 3584.09 459.596 Q3584.09 455.013 3587.31 452.374 Q3590.55 449.735 3596.22 449.735 Q3598.65 449.735 3601.17 450.175 Q3603.7 450.615 3606.34 451.495 Z" fill="#000000" fill-rule="nonzero" fill-opacity="1" /><path clip-path="url(#clip550)" d="M3630.78 450.36 L3635.46 450.36 L3635.46 484.92 L3630.78 484.92 L3630.78 450.36 Z" fill="#000000" fill-rule="nonzero" fill-opacity="1" /><path clip-path="url(#clip550)" d="M3666.13 469.272 L3666.13 484.92 L3661.87 484.92 L3661.87 469.411 Q3661.87 465.731 3660.43 463.902 Q3659 462.073 3656.13 462.073 Q3652.68 462.073 3650.69 464.272 Q3648.7 466.471 3648.7 470.268 L3648.7 484.92 L3644.41 484.92 L3644.41 458.995 L3648.7 458.995 L3648.7 463.022 Q3650.22 460.684 3652.28 459.527 Q3654.37 458.37 3657.08 458.37 Q3661.54 458.37 3663.84 461.147 Q3666.13 463.902 3666.13 469.272 Z" fill="#000000" fill-rule="nonzero" fill-opacity="1" /><path clip-path="url(#clip550)" d="M3678.84 451.634 L3678.84 458.995 L3687.61 458.995 L3687.61 462.305 L3678.84 462.305 L3678.84 476.379 Q3678.84 479.55 3679.69 480.453 Q3680.57 481.356 3683.23 481.356 L3687.61 481.356 L3687.61 484.92 L3683.23 484.92 Q3678.3 484.92 3676.43 483.092 Q3674.55 481.24 3674.55 476.379 L3674.55 462.305 L3671.43 462.305 L3671.43 458.995 L3674.55 458.995 L3674.55 451.634 L3678.84 451.634 Z" fill="#000000" fill-rule="nonzero" fill-opacity="1" /><path clip-path="url(#clip550)" d="M3715.39 470.893 L3715.39 472.976 L3695.8 472.976 Q3696.08 477.374 3698.44 479.689 Q3700.83 481.981 3705.06 481.981 Q3707.52 481.981 3709.81 481.379 Q3712.12 480.777 3714.39 479.573 L3714.39 483.601 Q3712.1 484.573 3709.69 485.082 Q3707.28 485.592 3704.81 485.592 Q3698.6 485.592 3694.97 481.981 Q3691.36 478.369 3691.36 472.212 Q3691.36 465.846 3694.78 462.12 Q3698.23 458.37 3704.07 458.37 Q3709.3 458.37 3712.33 461.749 Q3715.39 465.106 3715.39 470.893 M3711.13 469.643 Q3711.08 466.147 3709.16 464.064 Q3707.26 461.981 3704.11 461.981 Q3700.55 461.981 3698.4 463.995 Q3696.27 466.008 3695.94 469.666 L3711.13 469.643 Z" fill="#000000" fill-rule="nonzero" fill-opacity="1" /><path clip-path="url(#clip550)" d="M3737.4 462.976 Q3736.68 462.559 3735.83 462.374 Q3734.99 462.166 3733.97 462.166 Q3730.36 462.166 3728.42 464.527 Q3726.5 466.865 3726.5 471.263 L3726.5 484.92 L3722.21 484.92 L3722.21 458.995 L3726.5 458.995 L3726.5 463.022 Q3727.84 460.661 3729.99 459.527 Q3732.14 458.37 3735.22 458.37 Q3735.66 458.37 3736.2 458.439 Q3736.73 458.485 3737.38 458.601 L3737.4 462.976 Z" fill="#000000" fill-rule="nonzero" fill-opacity="1" /><path clip-path="url(#clip550)" d="M3745.99 481.031 L3745.99 494.781 L3741.71 494.781 L3741.71 458.995 L3745.99 458.995 L3745.99 462.93 Q3747.33 460.615 3749.37 459.504 Q3751.43 458.37 3754.27 458.37 Q3759 458.37 3761.94 462.12 Q3764.9 465.87 3764.9 471.981 Q3764.9 478.092 3761.94 481.842 Q3759 485.592 3754.27 485.592 Q3751.43 485.592 3749.37 484.481 Q3747.33 483.346 3745.99 481.031 M3760.48 471.981 Q3760.48 467.282 3758.53 464.62 Q3756.61 461.934 3753.23 461.934 Q3749.85 461.934 3747.91 464.62 Q3745.99 467.282 3745.99 471.981 Q3745.99 476.68 3747.91 479.365 Q3749.85 482.027 3753.23 482.027 Q3756.61 482.027 3758.53 479.365 Q3760.48 476.68 3760.48 471.981 Z" fill="#000000" fill-rule="nonzero" fill-opacity="1" /><path clip-path="url(#clip550)" d="M3782.01 461.981 Q3778.58 461.981 3776.59 464.666 Q3774.6 467.328 3774.6 471.981 Q3774.6 476.633 3776.57 479.319 Q3778.56 481.981 3782.01 481.981 Q3785.41 481.981 3787.4 479.295 Q3789.39 476.61 3789.39 471.981 Q3789.39 467.374 3787.4 464.689 Q3785.41 461.981 3782.01 461.981 M3782.01 458.37 Q3787.56 458.37 3790.73 461.981 Q3793.9 465.592 3793.9 471.981 Q3793.9 478.346 3790.73 481.981 Q3787.56 485.592 3782.01 485.592 Q3776.43 485.592 3773.26 481.981 Q3770.11 478.346 3770.11 471.981 Q3770.11 465.592 3773.26 461.981 Q3776.43 458.37 3782.01 458.37 Z" fill="#000000" fill-rule="nonzero" fill-opacity="1" /><path clip-path="url(#clip550)" d="M3800.96 448.902 L3805.22 448.902 L3805.22 484.92 L3800.96 484.92 L3800.96 448.902 Z" fill="#000000" fill-rule="nonzero" fill-opacity="1" /><path clip-path="url(#clip550)" d="M3825.92 471.888 Q3820.76 471.888 3818.76 473.069 Q3816.77 474.249 3816.77 477.096 Q3816.77 479.365 3818.26 480.707 Q3819.76 482.027 3822.33 482.027 Q3825.87 482.027 3828 479.527 Q3830.15 477.004 3830.15 472.837 L3830.15 471.888 L3825.92 471.888 M3834.41 470.129 L3834.41 484.92 L3830.15 484.92 L3830.15 480.985 Q3828.7 483.346 3826.52 484.481 Q3824.34 485.592 3821.2 485.592 Q3817.21 485.592 3814.85 483.369 Q3812.51 481.124 3812.51 477.374 Q3812.51 472.999 3815.43 470.777 Q3818.37 468.555 3824.18 468.555 L3830.15 468.555 L3830.15 468.138 Q3830.15 465.198 3828.21 463.601 Q3826.29 461.981 3822.79 461.981 Q3820.57 461.981 3818.46 462.513 Q3816.36 463.045 3814.41 464.11 L3814.41 460.175 Q3816.75 459.272 3818.95 458.833 Q3821.15 458.37 3823.23 458.37 Q3828.86 458.37 3831.64 461.286 Q3834.41 464.203 3834.41 470.129 Z" fill="#000000" fill-rule="nonzero" fill-opacity="1" /><path clip-path="url(#clip550)" d="M3847.4 451.634 L3847.4 458.995 L3856.17 458.995 L3856.17 462.305 L3847.4 462.305 L3847.4 476.379 Q3847.4 479.55 3848.26 480.453 Q3849.14 481.356 3851.8 481.356 L3856.17 481.356 L3856.17 484.92 L3851.8 484.92 Q3846.87 484.92 3844.99 483.092 Q3843.12 481.24 3843.12 476.379 L3843.12 462.305 L3839.99 462.305 L3839.99 458.995 L3843.12 458.995 L3843.12 451.634 L3847.4 451.634 Z" fill="#000000" fill-rule="nonzero" fill-opacity="1" /><path clip-path="url(#clip550)" d="M3883.95 470.893 L3883.95 472.976 L3864.37 472.976 Q3864.64 477.374 3867.01 479.689 Q3869.39 481.981 3873.63 481.981 Q3876.08 481.981 3878.37 481.379 Q3880.69 480.777 3882.95 479.573 L3882.95 483.601 Q3880.66 484.573 3878.26 485.082 Q3875.85 485.592 3873.37 485.592 Q3867.17 485.592 3863.53 481.981 Q3859.92 478.369 3859.92 472.212 Q3859.92 465.846 3863.35 462.12 Q3866.8 458.37 3872.63 458.37 Q3877.86 458.37 3880.89 461.749 Q3883.95 465.106 3883.95 470.893 M3879.69 469.643 Q3879.64 466.147 3877.72 464.064 Q3875.82 461.981 3872.68 461.981 Q3869.11 461.981 3866.96 463.995 Q3864.83 466.008 3864.51 469.666 L3879.69 469.643 Z" fill="#000000" fill-rule="nonzero" fill-opacity="1" /><path clip-path="url(#clip550)" d="M3908 462.93 L3908 448.902 L3912.26 448.902 L3912.26 484.92 L3908 484.92 L3908 481.031 Q3906.66 483.346 3904.6 484.481 Q3902.56 485.592 3899.69 485.592 Q3894.99 485.592 3892.03 481.842 Q3889.09 478.092 3889.09 471.981 Q3889.09 465.87 3892.03 462.12 Q3894.99 458.37 3899.69 458.37 Q3902.56 458.37 3904.6 459.504 Q3906.66 460.615 3908 462.93 M3893.49 471.981 Q3893.49 476.68 3895.41 479.365 Q3897.35 482.027 3900.73 482.027 Q3904.11 482.027 3906.06 479.365 Q3908 476.68 3908 471.981 Q3908 467.282 3906.06 464.62 Q3904.11 461.934 3900.73 461.934 Q3897.35 461.934 3895.41 464.62 Q3893.49 467.282 3893.49 471.981 Z" fill="#000000" fill-rule="nonzero" fill-opacity="1" /></svg>
