<?xml version="1.0" encoding="utf-8"?>
<svg xmlns="http://www.w3.org/2000/svg" xmlns:xlink="http://www.w3.org/1999/xlink" width="1000" height="500" viewBox="0 0 4000 2000">
<defs>
  <clipPath id="clip800">
    <rect x="0" y="0" width="4000" height="2000"/>
  </clipPath>
</defs>
<path clip-path="url(#clip800)" d="M0 2000 L4000 2000 L4000 0 L0 0  Z" fill="#ffffff" fill-rule="evenodd" fill-opacity="1"/>
<defs>
  <clipPath id="clip801">
    <rect x="800" y="0" width="2801" height="2000"/>
  </clipPath>
</defs>
<path clip-path="url(#clip800)" d="M308.101 1763.75 L3070.67 1763.75 L3070.67 262.064 L308.101 262.064  Z" fill="#ffffff" fill-rule="evenodd" fill-opacity="1"/>
<defs>
  <clipPath id="clip802">
    <rect x="308" y="262" width="2764" height="1503"/>
  </clipPath>
</defs>
<polyline clip-path="url(#clip802)" style="stroke:#000000; stroke-linecap:round; stroke-linejoin:round; stroke-width:2; stroke-opacity:0.1; fill:none" points="359.962,1763.75 359.962,262.064 "/>
<polyline clip-path="url(#clip802)" style="stroke:#000000; stroke-linecap:round; stroke-linejoin:round; stroke-width:2; stroke-opacity:0.1; fill:none" points="1018.09,1763.75 1018.09,262.064 "/>
<polyline clip-path="url(#clip802)" style="stroke:#000000; stroke-linecap:round; stroke-linejoin:round; stroke-width:2; stroke-opacity:0.1; fill:none" points="1676.22,1763.75 1676.22,262.064 "/>
<polyline clip-path="url(#clip802)" style="stroke:#000000; stroke-linecap:round; stroke-linejoin:round; stroke-width:2; stroke-opacity:0.1; fill:none" points="2334.35,1763.75 2334.35,262.064 "/>
<polyline clip-path="url(#clip802)" style="stroke:#000000; stroke-linecap:round; stroke-linejoin:round; stroke-width:2; stroke-opacity:0.1; fill:none" points="2992.48,1763.75 2992.48,262.064 "/>
<polyline clip-path="url(#clip802)" style="stroke:#000000; stroke-linecap:round; stroke-linejoin:round; stroke-width:2; stroke-opacity:0.1; fill:none" points="308.101,1644.7 3070.67,1644.7 "/>
<polyline clip-path="url(#clip802)" style="stroke:#000000; stroke-linecap:round; stroke-linejoin:round; stroke-width:2; stroke-opacity:0.1; fill:none" points="308.101,1388.63 3070.67,1388.63 "/>
<polyline clip-path="url(#clip802)" style="stroke:#000000; stroke-linecap:round; stroke-linejoin:round; stroke-width:2; stroke-opacity:0.1; fill:none" points="308.101,1132.57 3070.67,1132.57 "/>
<polyline clip-path="url(#clip802)" style="stroke:#000000; stroke-linecap:round; stroke-linejoin:round; stroke-width:2; stroke-opacity:0.1; fill:none" points="308.101,876.501 3070.67,876.501 "/>
<polyline clip-path="url(#clip802)" style="stroke:#000000; stroke-linecap:round; stroke-linejoin:round; stroke-width:2; stroke-opacity:0.1; fill:none" points="308.101,620.436 3070.67,620.436 "/>
<polyline clip-path="url(#clip802)" style="stroke:#000000; stroke-linecap:round; stroke-linejoin:round; stroke-width:2; stroke-opacity:0.1; fill:none" points="308.101,364.37 3070.67,364.37 "/>
<polyline clip-path="url(#clip800)" style="stroke:#000000; stroke-linecap:round; stroke-linejoin:round; stroke-width:4; stroke-opacity:1; fill:none" points="308.101,1763.75 3070.67,1763.75 "/>
<polyline clip-path="url(#clip800)" style="stroke:#000000; stroke-linecap:round; stroke-linejoin:round; stroke-width:4; stroke-opacity:1; fill:none" points="359.962,1763.75 359.962,1744.85 "/>
<polyline clip-path="url(#clip800)" style="stroke:#000000; stroke-linecap:round; stroke-linejoin:round; stroke-width:4; stroke-opacity:1; fill:none" points="1018.09,1763.75 1018.09,1744.85 "/>
<polyline clip-path="url(#clip800)" style="stroke:#000000; stroke-linecap:round; stroke-linejoin:round; stroke-width:4; stroke-opacity:1; fill:none" points="1676.22,1763.75 1676.22,1744.85 "/>
<polyline clip-path="url(#clip800)" style="stroke:#000000; stroke-linecap:round; stroke-linejoin:round; stroke-width:4; stroke-opacity:1; fill:none" points="2334.35,1763.75 2334.35,1744.85 "/>
<polyline clip-path="url(#clip800)" style="stroke:#000000; stroke-linecap:round; stroke-linejoin:round; stroke-width:4; stroke-opacity:1; fill:none" points="2992.48,1763.75 2992.48,1744.85 "/>
<path clip-path="url(#clip800)" d="M359.962 1813.33 Q354.545 1813.33 351.802 1818.67 Q349.094 1823.99 349.094 1834.68 Q349.094 1845.34 351.802 1850.69 Q354.545 1856 359.962 1856 Q365.413 1856 368.121 1850.69 Q370.864 1845.34 370.864 1834.68 Q370.864 1823.99 368.121 1818.67 Q365.413 1813.33 359.962 1813.33 M359.962 1807.77 Q368.677 1807.77 373.26 1814.68 Q377.878 1821.55 377.878 1834.68 Q377.878 1847.77 373.26 1854.68 Q368.677 1861.55 359.962 1861.55 Q351.246 1861.55 346.628 1854.68 Q342.045 1847.77 342.045 1834.68 Q342.045 1821.55 346.628 1814.68 Q351.246 1807.77 359.962 1807.77 Z" fill="#000000" fill-rule="nonzero" fill-opacity="1" /><path clip-path="url(#clip800)" d="M986.999 1854.64 L1011.48 1854.64 L1011.48 1860.55 L978.561 1860.55 L978.561 1854.64 Q982.554 1850.51 989.429 1843.57 Q996.339 1836.59 998.11 1834.58 Q1001.48 1830.79 1002.8 1828.19 Q1004.15 1825.55 1004.15 1823.01 Q1004.15 1818.88 1001.23 1816.28 Q998.353 1813.67 993.7 1813.67 Q990.401 1813.67 986.721 1814.82 Q983.075 1815.96 978.908 1818.29 L978.908 1811.21 Q983.144 1809.51 986.825 1808.64 Q990.506 1807.77 993.561 1807.77 Q1001.62 1807.77 1006.41 1811.8 Q1011.2 1815.83 1011.2 1822.56 Q1011.2 1825.76 1009.98 1828.64 Q1008.8 1831.49 1005.64 1835.37 Q1004.78 1836.38 1000.12 1841.21 Q995.471 1846 986.999 1854.64 Z" fill="#000000" fill-rule="nonzero" fill-opacity="1" /><path clip-path="url(#clip800)" d="M1026.27 1808.71 L1053.8 1808.71 L1053.8 1814.61 L1032.69 1814.61 L1032.69 1827.32 Q1034.22 1826.8 1035.75 1826.55 Q1037.28 1826.28 1038.8 1826.28 Q1047.48 1826.28 1052.55 1831.03 Q1057.62 1835.79 1057.62 1843.92 Q1057.62 1852.28 1052.41 1856.94 Q1047.21 1861.55 1037.73 1861.55 Q1034.46 1861.55 1031.06 1861 Q1027.69 1860.44 1024.08 1859.33 L1024.08 1852.28 Q1027.21 1853.99 1030.54 1854.82 Q1033.87 1855.65 1037.59 1855.65 Q1043.6 1855.65 1047.1 1852.49 Q1050.61 1849.33 1050.61 1843.92 Q1050.61 1838.5 1047.1 1835.34 Q1043.6 1832.18 1037.59 1832.18 Q1034.78 1832.18 1031.96 1832.8 Q1029.19 1833.43 1026.27 1834.75 L1026.27 1808.71 Z" fill="#000000" fill-rule="nonzero" fill-opacity="1" /><path clip-path="url(#clip800)" d="M1638.27 1808.71 L1665.81 1808.71 L1665.81 1814.61 L1644.7 1814.61 L1644.7 1827.32 Q1646.22 1826.8 1647.75 1826.55 Q1649.28 1826.28 1650.81 1826.28 Q1659.49 1826.28 1664.56 1831.03 Q1669.63 1835.79 1669.63 1843.92 Q1669.63 1852.28 1664.42 1856.94 Q1659.21 1861.55 1649.73 1861.55 Q1646.47 1861.55 1643.06 1861 Q1639.7 1860.44 1636.08 1859.33 L1636.08 1852.28 Q1639.21 1853.99 1642.54 1854.82 Q1645.88 1855.65 1649.59 1855.65 Q1655.6 1855.65 1659.1 1852.49 Q1662.61 1849.33 1662.61 1843.92 Q1662.61 1838.5 1659.1 1835.34 Q1655.6 1832.18 1649.59 1832.18 Q1646.78 1832.18 1643.97 1832.8 Q1641.19 1833.43 1638.27 1834.75 L1638.27 1808.71 Z" fill="#000000" fill-rule="nonzero" fill-opacity="1" /><path clip-path="url(#clip800)" d="M1698.44 1813.33 Q1693.03 1813.33 1690.29 1818.67 Q1687.58 1823.99 1687.58 1834.68 Q1687.58 1845.34 1690.29 1850.69 Q1693.03 1856 1698.44 1856 Q1703.9 1856 1706.6 1850.69 Q1709.35 1845.34 1709.35 1834.68 Q1709.35 1823.99 1706.6 1818.67 Q1703.9 1813.33 1698.44 1813.33 M1698.44 1807.77 Q1707.16 1807.77 1711.74 1814.68 Q1716.36 1821.55 1716.36 1834.68 Q1716.36 1847.77 1711.74 1854.68 Q1707.16 1861.55 1698.44 1861.55 Q1689.73 1861.55 1685.11 1854.68 Q1680.53 1847.77 1680.53 1834.68 Q1680.53 1821.55 1685.11 1814.68 Q1689.73 1807.77 1698.44 1807.77 Z" fill="#000000" fill-rule="nonzero" fill-opacity="1" /><path clip-path="url(#clip800)" d="M2295.13 1808.71 L2328.47 1808.71 L2328.47 1811.69 L2309.65 1860.55 L2302.32 1860.55 L2320.03 1814.61 L2295.13 1814.61 L2295.13 1808.71 Z" fill="#000000" fill-rule="nonzero" fill-opacity="1" /><path clip-path="url(#clip800)" d="M2342.22 1808.71 L2369.75 1808.71 L2369.75 1814.61 L2348.64 1814.61 L2348.64 1827.32 Q2350.17 1826.8 2351.7 1826.55 Q2353.22 1826.28 2354.75 1826.28 Q2363.43 1826.28 2368.5 1831.03 Q2373.57 1835.79 2373.57 1843.92 Q2373.57 1852.28 2368.36 1856.94 Q2363.16 1861.55 2353.68 1861.55 Q2350.41 1861.55 2347.01 1861 Q2343.64 1860.44 2340.03 1859.33 L2340.03 1852.28 Q2343.16 1853.99 2346.49 1854.82 Q2349.82 1855.65 2353.54 1855.65 Q2359.54 1855.65 2363.05 1852.49 Q2366.56 1849.33 2366.56 1843.92 Q2366.56 1838.5 2363.05 1835.34 Q2359.54 1832.18 2353.54 1832.18 Q2350.72 1832.18 2347.91 1832.8 Q2345.13 1833.43 2342.22 1834.75 L2342.22 1808.71 Z" fill="#000000" fill-rule="nonzero" fill-opacity="1" /><path clip-path="url(#clip800)" d="M2931.89 1854.64 L2943.35 1854.64 L2943.35 1815.1 L2930.89 1817.6 L2930.89 1811.21 L2943.28 1808.71 L2950.3 1808.71 L2950.3 1854.64 L2961.75 1854.64 L2961.75 1860.55 L2931.89 1860.55 L2931.89 1854.64 Z" fill="#000000" fill-rule="nonzero" fill-opacity="1" /><path clip-path="url(#clip800)" d="M2990.92 1813.33 Q2985.5 1813.33 2982.76 1818.67 Q2980.05 1823.99 2980.05 1834.68 Q2980.05 1845.34 2982.76 1850.69 Q2985.5 1856 2990.92 1856 Q2996.37 1856 2999.08 1850.69 Q3001.82 1845.34 3001.82 1834.68 Q3001.82 1823.99 2999.08 1818.67 Q2996.37 1813.33 2990.92 1813.33 M2990.92 1807.77 Q2999.64 1807.77 3004.22 1814.68 Q3008.84 1821.55 3008.84 1834.68 Q3008.84 1847.77 3004.22 1854.68 Q2999.64 1861.55 2990.92 1861.55 Q2982.21 1861.55 2977.59 1854.68 Q2973 1847.77 2973 1834.68 Q2973 1821.55 2977.59 1814.68 Q2982.21 1807.77 2990.92 1807.77 Z" fill="#000000" fill-rule="nonzero" fill-opacity="1" /><path clip-path="url(#clip800)" d="M3036.16 1813.33 Q3030.75 1813.33 3028 1818.67 Q3025.3 1823.99 3025.3 1834.68 Q3025.3 1845.34 3028 1850.69 Q3030.75 1856 3036.16 1856 Q3041.62 1856 3044.32 1850.69 Q3047.07 1845.34 3047.07 1834.68 Q3047.07 1823.99 3044.32 1818.67 Q3041.62 1813.33 3036.16 1813.33 M3036.16 1807.77 Q3044.88 1807.77 3049.46 1814.68 Q3054.08 1821.55 3054.08 1834.68 Q3054.08 1847.77 3049.46 1854.68 Q3044.88 1861.55 3036.16 1861.55 Q3027.45 1861.55 3022.83 1854.68 Q3018.25 1847.77 3018.25 1834.68 Q3018.25 1821.55 3022.83 1814.68 Q3027.45 1807.77 3036.16 1807.77 Z" fill="#000000" fill-rule="nonzero" fill-opacity="1" /><path clip-path="url(#clip800)" d="M1628.55 1912.76 L1628.55 1922.88 L1640.61 1922.88 L1640.61 1927.44 L1628.55 1927.44 L1628.55 1946.79 Q1628.55 1951.15 1629.72 1952.39 Q1630.93 1953.63 1634.59 1953.63 L1640.61 1953.63 L1640.61 1958.53 L1634.59 1958.53 Q1627.81 1958.53 1625.23 1956.02 Q1622.66 1953.47 1622.66 1946.79 L1622.66 1927.44 L1618.36 1927.44 L1618.36 1922.88 L1622.66 1922.88 L1622.66 1912.76 L1628.55 1912.76 Z" fill="#000000" fill-rule="nonzero" fill-opacity="1" /><path clip-path="url(#clip800)" d="M1648.31 1922.88 L1654.17 1922.88 L1654.17 1958.53 L1648.31 1958.53 L1648.31 1922.88 M1648.31 1909.01 L1654.17 1909.01 L1654.17 1916.42 L1648.31 1916.42 L1648.31 1909.01 Z" fill="#000000" fill-rule="nonzero" fill-opacity="1" /><path clip-path="url(#clip800)" d="M1694.18 1929.73 Q1696.37 1925.78 1699.43 1923.9 Q1702.48 1922.02 1706.62 1922.02 Q1712.19 1922.02 1715.21 1925.94 Q1718.24 1929.82 1718.24 1937.02 L1718.24 1958.53 L1712.35 1958.53 L1712.35 1937.21 Q1712.35 1932.08 1710.54 1929.6 Q1708.72 1927.12 1705 1927.12 Q1700.45 1927.12 1697.8 1930.14 Q1695.16 1933.16 1695.16 1938.38 L1695.16 1958.53 L1689.27 1958.53 L1689.27 1937.21 Q1689.27 1932.05 1687.46 1929.6 Q1685.65 1927.12 1681.86 1927.12 Q1677.37 1927.12 1674.73 1930.17 Q1672.09 1933.2 1672.09 1938.38 L1672.09 1958.53 L1666.2 1958.53 L1666.2 1922.88 L1672.09 1922.88 L1672.09 1928.42 Q1674.09 1925.14 1676.89 1923.58 Q1679.69 1922.02 1683.54 1922.02 Q1687.43 1922.02 1690.13 1924 Q1692.87 1925.97 1694.18 1929.73 Z" fill="#000000" fill-rule="nonzero" fill-opacity="1" /><path clip-path="url(#clip800)" d="M1760.41 1939.24 L1760.41 1942.11 L1733.48 1942.11 Q1733.87 1948.16 1737.11 1951.34 Q1740.39 1954.49 1746.22 1954.49 Q1749.59 1954.49 1752.74 1953.66 Q1755.92 1952.83 1759.04 1951.18 L1759.04 1956.72 Q1755.89 1958.05 1752.58 1958.75 Q1749.27 1959.45 1745.87 1959.45 Q1737.34 1959.45 1732.34 1954.49 Q1727.37 1949.52 1727.37 1941.06 Q1727.37 1932.31 1732.08 1927.18 Q1736.83 1922.02 1744.85 1922.02 Q1752.04 1922.02 1756.21 1926.67 Q1760.41 1931.29 1760.41 1939.24 M1754.55 1937.52 Q1754.49 1932.72 1751.85 1929.85 Q1749.24 1926.99 1744.91 1926.99 Q1740.01 1926.99 1737.05 1929.76 Q1734.12 1932.53 1733.67 1937.56 L1754.55 1937.52 Z" fill="#000000" fill-rule="nonzero" fill-opacity="1" /><polyline clip-path="url(#clip800)" style="stroke:#000000; stroke-linecap:round; stroke-linejoin:round; stroke-width:4; stroke-opacity:1; fill:none" points="308.101,1763.75 308.101,262.064 "/>
<polyline clip-path="url(#clip800)" style="stroke:#000000; stroke-linecap:round; stroke-linejoin:round; stroke-width:4; stroke-opacity:1; fill:none" points="308.101,1644.7 322.425,1644.7 "/>
<polyline clip-path="url(#clip800)" style="stroke:#000000; stroke-linecap:round; stroke-linejoin:round; stroke-width:4; stroke-opacity:1; fill:none" points="308.101,1388.63 322.425,1388.63 "/>
<polyline clip-path="url(#clip800)" style="stroke:#000000; stroke-linecap:round; stroke-linejoin:round; stroke-width:4; stroke-opacity:1; fill:none" points="308.101,1132.57 322.425,1132.57 "/>
<polyline clip-path="url(#clip800)" style="stroke:#000000; stroke-linecap:round; stroke-linejoin:round; stroke-width:4; stroke-opacity:1; fill:none" points="308.101,876.501 322.425,876.501 "/>
<polyline clip-path="url(#clip800)" style="stroke:#000000; stroke-linecap:round; stroke-linejoin:round; stroke-width:4; stroke-opacity:1; fill:none" points="308.101,620.436 322.425,620.436 "/>
<polyline clip-path="url(#clip800)" style="stroke:#000000; stroke-linecap:round; stroke-linejoin:round; stroke-width:4; stroke-opacity:1; fill:none" points="308.101,364.37 322.425,364.37 "/>
<path clip-path="url(#clip800)" d="M157.372 1645.37 L201.886 1645.37 L201.886 1651.28 L157.372 1651.28 L157.372 1645.37 Z" fill="#000000" fill-rule="nonzero" fill-opacity="1" /><path clip-path="url(#clip800)" d="M218.24 1664.71 L229.698 1664.71 L229.698 1625.17 L217.233 1627.67 L217.233 1621.28 L229.629 1618.78 L236.643 1618.78 L236.643 1664.71 L248.101 1664.71 L248.101 1670.62 L218.24 1670.62 L218.24 1664.71 Z" fill="#000000" fill-rule="nonzero" fill-opacity="1" /><path clip-path="url(#clip800)" d="M230.184 1367.33 Q224.768 1367.33 222.025 1372.68 Q219.316 1377.99 219.316 1388.68 Q219.316 1399.34 222.025 1404.69 Q224.768 1410 230.184 1410 Q235.636 1410 238.344 1404.69 Q241.087 1399.34 241.087 1388.68 Q241.087 1377.99 238.344 1372.68 Q235.636 1367.33 230.184 1367.33 M230.184 1361.77 Q238.9 1361.77 243.483 1368.68 Q248.101 1375.56 248.101 1388.68 Q248.101 1401.77 243.483 1408.68 Q238.9 1415.56 230.184 1415.56 Q221.469 1415.56 216.851 1408.68 Q212.268 1401.77 212.268 1388.68 Q212.268 1375.56 216.851 1368.68 Q221.469 1361.77 230.184 1361.77 Z" fill="#000000" fill-rule="nonzero" fill-opacity="1" /><path clip-path="url(#clip800)" d="M218.24 1152.58 L229.698 1152.58 L229.698 1113.04 L217.233 1115.54 L217.233 1109.15 L229.629 1106.65 L236.643 1106.65 L236.643 1152.58 L248.101 1152.58 L248.101 1158.49 L218.24 1158.49 L218.24 1152.58 Z" fill="#000000" fill-rule="nonzero" fill-opacity="1" /><path clip-path="url(#clip800)" d="M223.622 896.518 L248.101 896.518 L248.101 902.421 L215.184 902.421 L215.184 896.518 Q219.178 892.386 226.052 885.442 Q232.962 878.463 234.733 876.449 Q238.101 872.664 239.42 870.06 Q240.775 867.421 240.775 864.887 Q240.775 860.755 237.858 858.15 Q234.976 855.546 230.323 855.546 Q227.025 855.546 223.344 856.692 Q219.698 857.838 215.532 860.164 L215.532 853.081 Q219.768 851.38 223.448 850.512 Q227.129 849.644 230.184 849.644 Q238.24 849.644 243.032 853.671 Q247.823 857.699 247.823 864.435 Q247.823 867.63 246.608 870.511 Q245.427 873.359 242.268 877.248 Q241.4 878.255 236.747 883.081 Q232.094 887.873 223.622 896.518 Z" fill="#000000" fill-rule="nonzero" fill-opacity="1" /><path clip-path="url(#clip800)" d="M237.407 618.404 Q242.441 619.481 245.254 622.884 Q248.101 626.286 248.101 631.286 Q248.101 638.96 242.823 643.161 Q237.545 647.363 227.823 647.363 Q224.559 647.363 221.087 646.703 Q217.65 646.078 213.969 644.793 L213.969 638.022 Q216.886 639.724 220.358 640.592 Q223.83 641.46 227.615 641.46 Q234.212 641.46 237.65 638.856 Q241.122 636.252 241.122 631.286 Q241.122 626.703 237.893 624.134 Q234.698 621.529 228.969 621.529 L222.927 621.529 L222.927 615.766 L229.247 615.766 Q234.42 615.766 237.164 613.717 Q239.907 611.634 239.907 607.745 Q239.907 603.752 237.059 601.634 Q234.247 599.481 228.969 599.481 Q226.087 599.481 222.789 600.106 Q219.49 600.731 215.532 602.05 L215.532 595.8 Q219.525 594.689 222.997 594.134 Q226.504 593.578 229.594 593.578 Q237.58 593.578 242.233 597.224 Q246.886 600.835 246.886 607.016 Q246.886 611.321 244.42 614.307 Q241.955 617.259 237.407 618.404 Z" fill="#000000" fill-rule="nonzero" fill-opacity="1" /><path clip-path="url(#clip800)" d="M233.726 344.561 L216.018 372.235 L233.726 372.235 L233.726 344.561 M231.886 338.45 L240.705 338.45 L240.705 372.235 L248.101 372.235 L248.101 378.068 L240.705 378.068 L240.705 390.29 L233.726 390.29 L233.726 378.068 L210.323 378.068 L210.323 371.297 L231.886 338.45 Z" fill="#000000" fill-rule="nonzero" fill-opacity="1" /><path clip-path="url(#clip800)" d="M47.4683 996.291 L64.8149 1009.18 L83.1163 995.623 L83.1163 1002.53 L69.1117 1012.91 L83.1163 1023.28 L83.1163 1030.19 L64.4648 1016.34 L47.4683 1029.01 L47.4683 1022.1 L60.1679 1012.65 L47.4683 1003.2 L47.4683 996.291 Z" fill="#000000" fill-rule="nonzero" fill-opacity="1" /><path clip-path="url(#clip800)" d="M833.996 44.3209 L833.996 52.3012 Q829.338 50.0732 825.206 48.9795 Q821.074 47.8857 817.226 47.8857 Q810.542 47.8857 806.896 50.4783 Q803.291 53.0709 803.291 57.851 Q803.291 61.8614 805.681 63.9273 Q808.111 65.9528 814.836 67.2086 L819.778 68.2213 Q828.933 69.9632 833.267 74.3787 Q837.642 78.7536 837.642 86.1263 Q837.642 94.9167 831.728 99.4537 Q825.854 103.991 814.471 103.991 Q810.177 103.991 805.316 103.019 Q800.495 102.046 795.31 100.142 L795.31 91.7165 Q800.293 94.5116 805.073 95.9295 Q809.853 97.3473 814.471 97.3473 Q821.479 97.3473 825.287 94.5927 Q829.095 91.838 829.095 86.7339 Q829.095 82.2779 826.34 79.7664 Q823.626 77.2548 817.388 75.999 L812.405 75.0268 Q803.25 73.2039 799.159 69.315 Q795.067 65.4262 795.067 58.4991 Q795.067 50.4783 800.698 45.8603 Q806.369 41.2423 816.294 41.2423 Q820.547 41.2423 824.963 42.0119 Q829.378 42.7816 833.996 44.3209 Z" fill="#000000" fill-rule="nonzero" fill-opacity="1" /><path clip-path="url(#clip800)" d="M870.698 80.0094 Q861.664 80.0094 858.18 82.0754 Q854.697 84.1413 854.697 89.1239 Q854.697 93.0938 857.289 95.4434 Q859.922 97.7524 864.419 97.7524 Q870.617 97.7524 874.343 93.3774 Q878.111 88.9619 878.111 81.6703 L878.111 80.0094 L870.698 80.0094 M885.564 76.9307 L885.564 102.816 L878.111 102.816 L878.111 95.9295 Q875.559 100.061 871.751 102.046 Q867.943 103.991 862.434 103.991 Q855.466 103.991 851.334 100.102 Q847.243 96.1725 847.243 89.6101 Q847.243 81.9538 852.347 78.065 Q857.492 74.1761 867.659 74.1761 L878.111 74.1761 L878.111 73.4469 Q878.111 68.3023 874.708 65.5072 Q871.346 62.6715 865.229 62.6715 Q861.34 62.6715 857.654 63.6032 Q853.967 64.535 850.565 66.3984 L850.565 59.5118 Q854.656 57.932 858.504 57.1623 Q862.353 56.3521 865.999 56.3521 Q875.842 56.3521 880.703 61.4563 Q885.564 66.5604 885.564 76.9307 Z" fill="#000000" fill-rule="nonzero" fill-opacity="1" /><path clip-path="url(#clip800)" d="M936.241 66.1553 Q939.036 61.1322 942.925 58.7422 Q946.814 56.3521 952.08 56.3521 Q959.169 56.3521 963.018 61.3347 Q966.866 66.2768 966.866 75.4319 L966.866 102.816 L959.372 102.816 L959.372 75.6749 Q959.372 69.153 957.063 65.9933 Q954.754 62.8336 950.014 62.8336 Q944.222 62.8336 940.859 66.6819 Q937.497 70.5303 937.497 77.1738 L937.497 102.816 L930.003 102.816 L930.003 75.6749 Q930.003 69.1125 927.694 65.9933 Q925.385 62.8336 920.564 62.8336 Q914.852 62.8336 911.49 66.7224 Q908.128 70.5708 908.128 77.1738 L908.128 102.816 L900.634 102.816 L900.634 57.4459 L908.128 57.4459 L908.128 64.4944 Q910.68 60.322 914.245 58.3371 Q917.81 56.3521 922.711 56.3521 Q927.653 56.3521 931.097 58.8637 Q934.58 61.3752 936.241 66.1553 Z" fill="#000000" fill-rule="nonzero" fill-opacity="1" /><path clip-path="url(#clip800)" d="M988.944 96.0105 L988.944 120.073 L981.449 120.073 L981.449 57.4459 L988.944 57.4459 L988.944 64.3324 Q991.293 60.2815 994.858 58.3371 Q998.463 56.3521 1003.45 56.3521 Q1011.71 56.3521 1016.85 62.9146 Q1022.04 69.4771 1022.04 80.1714 Q1022.04 90.8658 1016.85 97.4283 Q1011.71 103.991 1003.45 103.991 Q998.463 103.991 994.858 102.046 Q991.293 100.061 988.944 96.0105 M1014.3 80.1714 Q1014.3 71.9481 1010.9 67.2896 Q1007.54 62.5905 1001.62 62.5905 Q995.709 62.5905 992.306 67.2896 Q988.944 71.9481 988.944 80.1714 Q988.944 88.3948 992.306 93.0938 Q995.709 97.7524 1001.62 97.7524 Q1007.54 97.7524 1010.9 93.0938 Q1014.3 88.3948 1014.3 80.1714 Z" fill="#000000" fill-rule="nonzero" fill-opacity="1" /><path clip-path="url(#clip800)" d="M1034.39 39.7839 L1041.85 39.7839 L1041.85 102.816 L1034.39 102.816 L1034.39 39.7839 Z" fill="#000000" fill-rule="nonzero" fill-opacity="1" /><path clip-path="url(#clip800)" d="M1096.25 78.2675 L1096.25 81.9133 L1061.98 81.9133 Q1062.47 89.6101 1066.6 93.661 Q1070.77 97.6714 1078.18 97.6714 Q1082.48 97.6714 1086.49 96.6181 Q1090.54 95.5649 1094.51 93.4584 L1094.51 100.507 Q1090.5 102.208 1086.29 103.1 Q1082.07 103.991 1077.74 103.991 Q1066.88 103.991 1060.52 97.6714 Q1054.2 91.3519 1054.2 80.5765 Q1054.2 69.4365 1060.2 62.9146 Q1066.23 56.3521 1076.44 56.3521 Q1085.6 56.3521 1090.9 62.2664 Q1096.25 68.1403 1096.25 78.2675 M1088.8 76.08 Q1088.72 69.9632 1085.36 66.3174 Q1082.03 62.6715 1076.52 62.6715 Q1070.29 62.6715 1066.52 66.1958 Q1062.79 69.7201 1062.22 76.1205 L1088.8 76.08 Z" fill="#000000" fill-rule="nonzero" fill-opacity="1" /><path clip-path="url(#clip800)" d="M1137.33 95.9295 L1150.7 95.9295 L1150.7 49.7897 L1136.15 52.7063 L1136.15 45.2527 L1150.62 42.336 L1158.8 42.336 L1158.8 95.9295 L1172.17 95.9295 L1172.17 102.816 L1137.33 102.816 L1137.33 95.9295 Z" fill="#000000" fill-rule="nonzero" fill-opacity="1" /><path clip-path="url(#clip800)" d="M1213.49 70.2062 Q1219.36 71.462 1222.64 75.4319 Q1225.96 79.4018 1225.96 85.2351 Q1225.96 94.1876 1219.8 99.0892 Q1213.65 103.991 1202.3 103.991 Q1198.5 103.991 1194.45 103.221 Q1190.44 102.492 1186.14 100.993 L1186.14 93.0938 Q1189.54 95.0788 1193.6 96.0915 Q1197.65 97.1042 1202.06 97.1042 Q1209.76 97.1042 1213.77 94.066 Q1217.82 91.0279 1217.82 85.2351 Q1217.82 79.8879 1214.05 76.8902 Q1210.33 73.852 1203.64 73.852 L1196.59 73.852 L1196.59 67.1275 L1203.97 67.1275 Q1210 67.1275 1213.2 64.7375 Q1216.4 62.307 1216.4 57.7699 Q1216.4 53.1114 1213.08 50.6404 Q1209.8 48.1288 1203.64 48.1288 Q1200.28 48.1288 1196.43 48.858 Q1192.58 49.5871 1187.96 51.1265 L1187.96 43.8348 Q1192.62 42.5385 1196.67 41.8904 Q1200.77 41.2423 1204.37 41.2423 Q1213.69 41.2423 1219.12 45.4957 Q1224.54 49.7086 1224.54 56.9193 Q1224.54 61.9424 1221.67 65.4262 Q1218.79 68.8694 1213.49 70.2062 Z" fill="#000000" fill-rule="nonzero" fill-opacity="1" /><path clip-path="url(#clip800)" d="M1266.27 70.2062 Q1272.14 71.462 1275.42 75.4319 Q1278.75 79.4018 1278.75 85.2351 Q1278.75 94.1876 1272.59 99.0892 Q1266.43 103.991 1255.09 103.991 Q1251.28 103.991 1247.23 103.221 Q1243.22 102.492 1238.92 100.993 L1238.92 93.0938 Q1242.33 95.0788 1246.38 96.0915 Q1250.43 97.1042 1254.84 97.1042 Q1262.54 97.1042 1266.55 94.066 Q1270.6 91.0279 1270.6 85.2351 Q1270.6 79.8879 1266.84 76.8902 Q1263.11 73.852 1256.42 73.852 L1249.38 73.852 L1249.38 67.1275 L1256.75 67.1275 Q1262.78 67.1275 1265.98 64.7375 Q1269.19 62.307 1269.19 57.7699 Q1269.19 53.1114 1265.86 50.6404 Q1262.58 48.1288 1256.42 48.1288 Q1253.06 48.1288 1249.21 48.858 Q1245.37 49.5871 1240.75 51.1265 L1240.75 43.8348 Q1245.41 42.5385 1249.46 41.8904 Q1253.55 41.2423 1257.15 41.2423 Q1266.47 41.2423 1271.9 45.4957 Q1277.33 49.7086 1277.33 56.9193 Q1277.33 61.9424 1274.45 65.4262 Q1271.58 68.8694 1266.27 70.2062 Z" fill="#000000" fill-rule="nonzero" fill-opacity="1" /><path clip-path="url(#clip800)" d="M1295.11 92.5267 L1303.66 92.5267 L1303.66 99.4943 L1297.01 112.457 L1291.79 112.457 L1295.11 99.4943 L1295.11 92.5267 Z" fill="#000000" fill-rule="nonzero" fill-opacity="1" /><path clip-path="url(#clip800)" d="M1391.56 46.9945 L1391.56 55.623 Q1387.43 51.7746 1382.73 49.8707 Q1378.07 47.9668 1372.81 47.9668 Q1362.44 47.9668 1356.93 54.3267 Q1351.42 60.6461 1351.42 72.6368 Q1351.42 84.5869 1356.93 90.9469 Q1362.44 97.2663 1372.81 97.2663 Q1378.07 97.2663 1382.73 95.3623 Q1387.43 93.4584 1391.56 89.6101 L1391.56 98.1575 Q1387.27 101.074 1382.45 102.532 Q1377.67 103.991 1372.32 103.991 Q1358.59 103.991 1350.69 95.6054 Q1342.79 87.1795 1342.79 72.6368 Q1342.79 58.0535 1350.69 49.6681 Q1358.59 41.2423 1372.32 41.2423 Q1377.75 41.2423 1382.53 42.7006 Q1387.35 44.1184 1391.56 46.9945 Z" fill="#000000" fill-rule="nonzero" fill-opacity="1" /><path clip-path="url(#clip800)" d="M1403.88 39.7839 L1411.33 39.7839 L1411.33 102.816 L1403.88 102.816 L1403.88 39.7839 Z" fill="#000000" fill-rule="nonzero" fill-opacity="1" /><path clip-path="url(#clip800)" d="M1447.55 80.0094 Q1438.51 80.0094 1435.03 82.0754 Q1431.55 84.1413 1431.55 89.1239 Q1431.55 93.0938 1434.14 95.4434 Q1436.77 97.7524 1441.27 97.7524 Q1447.47 97.7524 1451.19 93.3774 Q1454.96 88.9619 1454.96 81.6703 L1454.96 80.0094 L1447.55 80.0094 M1462.41 76.9307 L1462.41 102.816 L1454.96 102.816 L1454.96 95.9295 Q1452.41 100.061 1448.6 102.046 Q1444.79 103.991 1439.28 103.991 Q1432.31 103.991 1428.18 100.102 Q1424.09 96.1725 1424.09 89.6101 Q1424.09 81.9538 1429.2 78.065 Q1434.34 74.1761 1444.51 74.1761 L1454.96 74.1761 L1454.96 73.4469 Q1454.96 68.3023 1451.56 65.5072 Q1448.19 62.6715 1442.08 62.6715 Q1438.19 62.6715 1434.5 63.6032 Q1430.82 64.535 1427.41 66.3984 L1427.41 59.5118 Q1431.5 57.932 1435.35 57.1623 Q1439.2 56.3521 1442.85 56.3521 Q1452.69 56.3521 1457.55 61.4563 Q1462.41 66.5604 1462.41 76.9307 Z" fill="#000000" fill-rule="nonzero" fill-opacity="1" /><path clip-path="url(#clip800)" d="M1506.69 58.7827 L1506.69 65.8312 Q1503.53 64.2109 1500.13 63.4007 Q1496.72 62.5905 1493.08 62.5905 Q1487.53 62.5905 1484.73 64.2919 Q1481.98 65.9933 1481.98 69.396 Q1481.98 71.9886 1483.96 73.4875 Q1485.95 74.9458 1491.94 76.2826 L1494.5 76.8497 Q1502.44 78.5511 1505.76 81.6703 Q1509.12 84.749 1509.12 90.2987 Q1509.12 96.6181 1504.1 100.304 Q1499.11 103.991 1490.36 103.991 Q1486.72 103.991 1482.75 103.262 Q1478.82 102.573 1474.44 101.155 L1474.44 93.4584 Q1478.58 95.6054 1482.59 96.6991 Q1486.6 97.7524 1490.53 97.7524 Q1495.79 97.7524 1498.63 95.97 Q1501.46 94.1471 1501.46 90.8658 Q1501.46 87.8277 1499.4 86.2073 Q1497.37 84.5869 1490.45 83.0881 L1487.85 82.4805 Q1480.93 81.0221 1477.85 78.0245 Q1474.77 74.9863 1474.77 69.7201 Q1474.77 63.3197 1479.31 59.8359 Q1483.84 56.3521 1492.19 56.3521 Q1496.32 56.3521 1499.97 56.9598 Q1503.61 57.5674 1506.69 58.7827 Z" fill="#000000" fill-rule="nonzero" fill-opacity="1" /><path clip-path="url(#clip800)" d="M1549.91 58.7827 L1549.91 65.8312 Q1546.75 64.2109 1543.35 63.4007 Q1539.95 62.5905 1536.3 62.5905 Q1530.75 62.5905 1527.96 64.2919 Q1525.2 65.9933 1525.2 69.396 Q1525.2 71.9886 1527.19 73.4875 Q1529.17 74.9458 1535.17 76.2826 L1537.72 76.8497 Q1545.66 78.5511 1548.98 81.6703 Q1552.34 84.749 1552.34 90.2987 Q1552.34 96.6181 1547.32 100.304 Q1542.34 103.991 1533.59 103.991 Q1529.94 103.991 1525.97 103.262 Q1522.04 102.573 1517.67 101.155 L1517.67 93.4584 Q1521.8 95.6054 1525.81 96.6991 Q1529.82 97.7524 1533.75 97.7524 Q1539.02 97.7524 1541.85 95.97 Q1544.69 94.1471 1544.69 90.8658 Q1544.69 87.8277 1542.62 86.2073 Q1540.6 84.5869 1533.67 83.0881 L1531.08 82.4805 Q1524.15 81.0221 1521.07 78.0245 Q1517.99 74.9863 1517.99 69.7201 Q1517.99 63.3197 1522.53 59.8359 Q1527.07 56.3521 1535.41 56.3521 Q1539.54 56.3521 1543.19 56.9598 Q1546.83 57.5674 1549.91 58.7827 Z" fill="#000000" fill-rule="nonzero" fill-opacity="1" /><path clip-path="url(#clip800)" d="M1609.14 47.7237 Q1602.82 47.7237 1599.62 53.9621 Q1596.46 60.16 1596.46 72.6368 Q1596.46 85.073 1599.62 91.3114 Q1602.82 97.5093 1609.14 97.5093 Q1615.5 97.5093 1618.66 91.3114 Q1621.86 85.073 1621.86 72.6368 Q1621.86 60.16 1618.66 53.9621 Q1615.5 47.7237 1609.14 47.7237 M1609.14 41.2423 Q1619.3 41.2423 1624.65 49.3036 Q1630.04 57.3243 1630.04 72.6368 Q1630.04 87.9087 1624.65 95.97 Q1619.3 103.991 1609.14 103.991 Q1598.97 103.991 1593.58 95.97 Q1588.23 87.9087 1588.23 72.6368 Q1588.23 57.3243 1593.58 49.3036 Q1598.97 41.2423 1609.14 41.2423 Z" fill="#000000" fill-rule="nonzero" fill-opacity="1" /><path clip-path="url(#clip800)" d="M1645.27 92.5267 L1653.82 92.5267 L1653.82 99.4943 L1647.17 112.457 L1641.95 112.457 L1645.27 99.4943 L1645.27 92.5267 Z" fill="#000000" fill-rule="nonzero" fill-opacity="1" /><path clip-path="url(#clip800)" d="M1719.65 49.4656 L1698.99 81.7513 L1719.65 81.7513 L1719.65 49.4656 M1717.5 42.336 L1727.79 42.336 L1727.79 81.7513 L1736.42 81.7513 L1736.42 88.5568 L1727.79 88.5568 L1727.79 102.816 L1719.65 102.816 L1719.65 88.5568 L1692.34 88.5568 L1692.34 80.6576 L1717.5 42.336 Z" fill="#000000" fill-rule="nonzero" fill-opacity="1" /><path clip-path="url(#clip800)" d="M1750.03 42.336 L1782.15 42.336 L1782.15 49.2225 L1757.52 49.2225 L1757.52 64.0488 Q1759.3 63.4412 1761.09 63.1576 Q1762.87 62.8336 1764.65 62.8336 Q1774.78 62.8336 1780.69 68.3833 Q1786.61 73.9331 1786.61 83.4122 Q1786.61 93.1748 1780.53 98.6031 Q1774.45 103.991 1763.4 103.991 Q1759.59 103.991 1755.62 103.343 Q1751.69 102.694 1747.48 101.398 L1747.48 93.1748 Q1751.12 95.1598 1755.01 96.132 Q1758.9 97.1042 1763.23 97.1042 Q1770.24 97.1042 1774.33 93.4179 Q1778.42 89.7316 1778.42 83.4122 Q1778.42 77.0928 1774.33 73.4064 Q1770.24 69.7201 1763.23 69.7201 Q1759.95 69.7201 1756.67 70.4493 Q1753.43 71.1784 1750.03 72.7178 L1750.03 42.336 Z" fill="#000000" fill-rule="nonzero" fill-opacity="1" /><path clip-path="url(#clip800)" d="M1797.91 76.7687 L1819.74 76.7687 L1819.74 83.4122 L1797.91 83.4122 L1797.91 76.7687 Z" fill="#000000" fill-rule="nonzero" fill-opacity="1" /><path clip-path="url(#clip800)" d="M1860.54 58.7827 L1860.54 65.8312 Q1857.38 64.2109 1853.97 63.4007 Q1850.57 62.5905 1846.93 62.5905 Q1841.38 62.5905 1838.58 64.2919 Q1835.83 65.9933 1835.83 69.396 Q1835.83 71.9886 1837.81 73.4875 Q1839.8 74.9458 1845.79 76.2826 L1848.34 76.8497 Q1856.28 78.5511 1859.6 81.6703 Q1862.97 84.749 1862.97 90.2987 Q1862.97 96.6181 1857.94 100.304 Q1852.96 103.991 1844.21 103.991 Q1840.57 103.991 1836.6 103.262 Q1832.67 102.573 1828.29 101.155 L1828.29 93.4584 Q1832.42 95.6054 1836.43 96.6991 Q1840.44 97.7524 1844.37 97.7524 Q1849.64 97.7524 1852.47 95.97 Q1855.31 94.1471 1855.31 90.8658 Q1855.31 87.8277 1853.24 86.2073 Q1851.22 84.5869 1844.29 83.0881 L1841.7 82.4805 Q1834.77 81.0221 1831.69 78.0245 Q1828.61 74.9863 1828.61 69.7201 Q1828.61 63.3197 1833.15 59.8359 Q1837.69 56.3521 1846.03 56.3521 Q1850.17 56.3521 1853.81 56.9598 Q1857.46 57.5674 1860.54 58.7827 Z" fill="#000000" fill-rule="nonzero" fill-opacity="1" /><path clip-path="url(#clip800)" d="M1874.84 57.4459 L1882.29 57.4459 L1882.29 102.816 L1874.84 102.816 L1874.84 57.4459 M1874.84 39.7839 L1882.29 39.7839 L1882.29 49.2225 L1874.84 49.2225 L1874.84 39.7839 Z" fill="#000000" fill-rule="nonzero" fill-opacity="1" /><path clip-path="url(#clip800)" d="M1905.26 44.564 L1905.26 57.4459 L1920.61 57.4459 L1920.61 63.2387 L1905.26 63.2387 L1905.26 87.8682 Q1905.26 93.4179 1906.76 94.9978 Q1908.3 96.5776 1912.95 96.5776 L1920.61 96.5776 L1920.61 102.816 L1912.95 102.816 Q1904.33 102.816 1901.05 99.6158 Q1897.76 96.3751 1897.76 87.8682 L1897.76 63.2387 L1892.3 63.2387 L1892.3 57.4459 L1897.76 57.4459 L1897.76 44.564 L1905.26 44.564 Z" fill="#000000" fill-rule="nonzero" fill-opacity="1" /><path clip-path="url(#clip800)" d="M1969.22 78.2675 L1969.22 81.9133 L1934.95 81.9133 Q1935.44 89.6101 1939.57 93.661 Q1943.74 97.6714 1951.15 97.6714 Q1955.45 97.6714 1959.46 96.6181 Q1963.51 95.5649 1967.48 93.4584 L1967.48 100.507 Q1963.47 102.208 1959.26 103.1 Q1955.04 103.991 1950.71 103.991 Q1939.85 103.991 1933.49 97.6714 Q1927.17 91.3519 1927.17 80.5765 Q1927.17 69.4365 1933.17 62.9146 Q1939.2 56.3521 1949.41 56.3521 Q1958.57 56.3521 1963.87 62.2664 Q1969.22 68.1403 1969.22 78.2675 M1961.77 76.08 Q1961.69 69.9632 1958.32 66.3174 Q1955 62.6715 1949.49 62.6715 Q1943.26 62.6715 1939.49 66.1958 Q1935.76 69.7201 1935.19 76.1205 L1961.77 76.08 Z" fill="#000000" fill-rule="nonzero" fill-opacity="1" /><path clip-path="url(#clip800)" d="M2008.15 42.336 L2016.33 42.336 L2016.33 102.816 L2008.15 102.816 L2008.15 42.336 Z" fill="#000000" fill-rule="nonzero" fill-opacity="1" /><path clip-path="url(#clip800)" d="M2070.01 75.4319 L2070.01 102.816 L2062.55 102.816 L2062.55 75.6749 Q2062.55 69.234 2060.04 66.0338 Q2057.53 62.8336 2052.51 62.8336 Q2046.47 62.8336 2042.99 66.6819 Q2039.51 70.5303 2039.51 77.1738 L2039.51 102.816 L2032.01 102.816 L2032.01 57.4459 L2039.51 57.4459 L2039.51 64.4944 Q2042.18 60.403 2045.78 58.3776 Q2049.43 56.3521 2054.17 56.3521 Q2061.99 56.3521 2066 61.2132 Q2070.01 66.0338 2070.01 75.4319 Z" fill="#000000" fill-rule="nonzero" fill-opacity="1" /><path clip-path="url(#clip800)" d="M2092.25 44.564 L2092.25 57.4459 L2107.6 57.4459 L2107.6 63.2387 L2092.25 63.2387 L2092.25 87.8682 Q2092.25 93.4179 2093.75 94.9978 Q2095.29 96.5776 2099.94 96.5776 L2107.6 96.5776 L2107.6 102.816 L2099.94 102.816 Q2091.32 102.816 2088.03 99.6158 Q2084.75 96.3751 2084.75 87.8682 L2084.75 63.2387 L2079.28 63.2387 L2079.28 57.4459 L2084.75 57.4459 L2084.75 44.564 L2092.25 44.564 Z" fill="#000000" fill-rule="nonzero" fill-opacity="1" /><path clip-path="url(#clip800)" d="M2156.21 78.2675 L2156.21 81.9133 L2121.94 81.9133 Q2122.43 89.6101 2126.56 93.661 Q2130.73 97.6714 2138.14 97.6714 Q2142.44 97.6714 2146.45 96.6181 Q2150.5 95.5649 2154.47 93.4584 L2154.47 100.507 Q2150.46 102.208 2146.25 103.1 Q2142.03 103.991 2137.7 103.991 Q2126.84 103.991 2120.48 97.6714 Q2114.16 91.3519 2114.16 80.5765 Q2114.16 69.4365 2120.16 62.9146 Q2126.19 56.3521 2136.4 56.3521 Q2145.56 56.3521 2150.86 62.2664 Q2156.21 68.1403 2156.21 78.2675 M2148.76 76.08 Q2148.68 69.9632 2145.31 66.3174 Q2141.99 62.6715 2136.48 62.6715 Q2130.25 62.6715 2126.48 66.1958 Q2122.75 69.7201 2122.18 76.1205 L2148.76 76.08 Z" fill="#000000" fill-rule="nonzero" fill-opacity="1" /><path clip-path="url(#clip800)" d="M2194.74 64.4134 Q2193.48 63.6843 2191.98 63.3602 Q2190.52 62.9956 2188.74 62.9956 Q2182.42 62.9956 2179.02 67.1275 Q2175.66 71.2189 2175.66 78.9157 L2175.66 102.816 L2168.16 102.816 L2168.16 57.4459 L2175.66 57.4459 L2175.66 64.4944 Q2178.01 60.3625 2181.77 58.3776 Q2185.54 56.3521 2190.93 56.3521 Q2191.7 56.3521 2192.63 56.4737 Q2193.56 56.5547 2194.7 56.7572 L2194.74 64.4134 Z" fill="#000000" fill-rule="nonzero" fill-opacity="1" /><path clip-path="url(#clip800)" d="M2209.76 96.0105 L2209.76 120.073 L2202.27 120.073 L2202.27 57.4459 L2209.76 57.4459 L2209.76 64.3324 Q2212.11 60.2815 2215.68 58.3371 Q2219.28 56.3521 2224.27 56.3521 Q2232.53 56.3521 2237.68 62.9146 Q2242.86 69.4771 2242.86 80.1714 Q2242.86 90.8658 2237.68 97.4283 Q2232.53 103.991 2224.27 103.991 Q2219.28 103.991 2215.68 102.046 Q2212.11 100.061 2209.76 96.0105 M2235.12 80.1714 Q2235.12 71.9481 2231.72 67.2896 Q2228.36 62.5905 2222.44 62.5905 Q2216.53 62.5905 2213.13 67.2896 Q2209.76 71.9481 2209.76 80.1714 Q2209.76 88.3948 2213.13 93.0938 Q2216.53 97.7524 2222.44 97.7524 Q2228.36 97.7524 2231.72 93.0938 Q2235.12 88.3948 2235.12 80.1714 Z" fill="#000000" fill-rule="nonzero" fill-opacity="1" /><path clip-path="url(#clip800)" d="M2272.8 62.6715 Q2266.8 62.6715 2263.32 67.3706 Q2259.83 72.0291 2259.83 80.1714 Q2259.83 88.3138 2263.28 93.0128 Q2266.76 97.6714 2272.8 97.6714 Q2278.75 97.6714 2282.24 92.9723 Q2285.72 88.2733 2285.72 80.1714 Q2285.72 72.1101 2282.24 67.4111 Q2278.75 62.6715 2272.8 62.6715 M2272.8 56.3521 Q2282.52 56.3521 2288.07 62.6715 Q2293.62 68.9909 2293.62 80.1714 Q2293.62 91.3114 2288.07 97.6714 Q2282.52 103.991 2272.8 103.991 Q2263.03 103.991 2257.48 97.6714 Q2251.97 91.3114 2251.97 80.1714 Q2251.97 68.9909 2257.48 62.6715 Q2263.03 56.3521 2272.8 56.3521 Z" fill="#000000" fill-rule="nonzero" fill-opacity="1" /><path clip-path="url(#clip800)" d="M2305.97 39.7839 L2313.43 39.7839 L2313.43 102.816 L2305.97 102.816 L2305.97 39.7839 Z" fill="#000000" fill-rule="nonzero" fill-opacity="1" /><path clip-path="url(#clip800)" d="M2349.64 80.0094 Q2340.61 80.0094 2337.12 82.0754 Q2333.64 84.1413 2333.64 89.1239 Q2333.64 93.0938 2336.23 95.4434 Q2338.87 97.7524 2343.36 97.7524 Q2349.56 97.7524 2353.29 93.3774 Q2357.06 88.9619 2357.06 81.6703 L2357.06 80.0094 L2349.64 80.0094 M2364.51 76.9307 L2364.51 102.816 L2357.06 102.816 L2357.06 95.9295 Q2354.5 100.061 2350.7 102.046 Q2346.89 103.991 2341.38 103.991 Q2334.41 103.991 2330.28 100.102 Q2326.19 96.1725 2326.19 89.6101 Q2326.19 81.9538 2331.29 78.065 Q2336.44 74.1761 2346.6 74.1761 L2357.06 74.1761 L2357.06 73.4469 Q2357.06 68.3023 2353.65 65.5072 Q2350.29 62.6715 2344.17 62.6715 Q2340.28 62.6715 2336.6 63.6032 Q2332.91 64.535 2329.51 66.3984 L2329.51 59.5118 Q2333.6 57.932 2337.45 57.1623 Q2341.3 56.3521 2344.94 56.3521 Q2354.79 56.3521 2359.65 61.4563 Q2364.51 66.5604 2364.51 76.9307 Z" fill="#000000" fill-rule="nonzero" fill-opacity="1" /><path clip-path="url(#clip800)" d="M2387.23 44.564 L2387.23 57.4459 L2402.59 57.4459 L2402.59 63.2387 L2387.23 63.2387 L2387.23 87.8682 Q2387.23 93.4179 2388.73 94.9978 Q2390.27 96.5776 2394.93 96.5776 L2402.59 96.5776 L2402.59 102.816 L2394.93 102.816 Q2386.3 102.816 2383.02 99.6158 Q2379.74 96.3751 2379.74 87.8682 L2379.74 63.2387 L2374.27 63.2387 L2374.27 57.4459 L2379.74 57.4459 L2379.74 44.564 L2387.23 44.564 Z" fill="#000000" fill-rule="nonzero" fill-opacity="1" /><path clip-path="url(#clip800)" d="M2412.39 57.4459 L2419.84 57.4459 L2419.84 102.816 L2412.39 102.816 L2412.39 57.4459 M2412.39 39.7839 L2419.84 39.7839 L2419.84 49.2225 L2412.39 49.2225 L2412.39 39.7839 Z" fill="#000000" fill-rule="nonzero" fill-opacity="1" /><path clip-path="url(#clip800)" d="M2453.02 62.6715 Q2447.03 62.6715 2443.54 67.3706 Q2440.06 72.0291 2440.06 80.1714 Q2440.06 88.3138 2443.5 93.0128 Q2446.99 97.6714 2453.02 97.6714 Q2458.98 97.6714 2462.46 92.9723 Q2465.94 88.2733 2465.94 80.1714 Q2465.94 72.1101 2462.46 67.4111 Q2458.98 62.6715 2453.02 62.6715 M2453.02 56.3521 Q2462.74 56.3521 2468.29 62.6715 Q2473.84 68.9909 2473.84 80.1714 Q2473.84 91.3114 2468.29 97.6714 Q2462.74 103.991 2453.02 103.991 Q2443.26 103.991 2437.71 97.6714 Q2432.2 91.3114 2432.2 80.1714 Q2432.2 68.9909 2437.71 62.6715 Q2443.26 56.3521 2453.02 56.3521 Z" fill="#000000" fill-rule="nonzero" fill-opacity="1" /><path clip-path="url(#clip800)" d="M2523.91 75.4319 L2523.91 102.816 L2516.46 102.816 L2516.46 75.6749 Q2516.46 69.234 2513.95 66.0338 Q2511.44 62.8336 2506.41 62.8336 Q2500.38 62.8336 2496.89 66.6819 Q2493.41 70.5303 2493.41 77.1738 L2493.41 102.816 L2485.91 102.816 L2485.91 57.4459 L2493.41 57.4459 L2493.41 64.4944 Q2496.08 60.403 2499.69 58.3776 Q2503.33 56.3521 2508.07 56.3521 Q2515.89 56.3521 2519.9 61.2132 Q2523.91 66.0338 2523.91 75.4319 Z" fill="#000000" fill-rule="nonzero" fill-opacity="1" /><path clip-path="url(#clip800)" d="M2540.68 92.5267 L2549.23 92.5267 L2549.23 99.4943 L2542.59 112.457 L2537.36 112.457 L2540.68 99.4943 L2540.68 92.5267 Z" fill="#000000" fill-rule="nonzero" fill-opacity="1" /><path clip-path="url(#clip800)" d="M919.329 155.052 L919.329 130.504 L926.782 130.504 L926.782 193.536 L919.329 193.536 L919.329 186.73 Q916.979 190.781 913.374 192.766 Q909.809 194.711 904.786 194.711 Q896.563 194.711 891.377 188.148 Q886.233 181.586 886.233 170.891 Q886.233 160.197 891.377 153.635 Q896.563 147.072 904.786 147.072 Q909.809 147.072 913.374 149.057 Q916.979 151.002 919.329 155.052 M893.93 170.891 Q893.93 179.115 897.292 183.814 Q900.695 188.472 906.609 188.472 Q912.523 188.472 915.926 183.814 Q919.329 179.115 919.329 170.891 Q919.329 162.668 915.926 158.01 Q912.523 153.311 906.609 153.311 Q900.695 153.311 897.292 158.01 Q893.93 162.668 893.93 170.891 Z" fill="#000000" fill-rule="nonzero" fill-opacity="1" /><path clip-path="url(#clip800)" d="M969.479 155.863 L1021.41 155.863 L1021.41 162.668 L969.479 162.668 L969.479 155.863 M969.479 172.39 L1021.41 172.39 L1021.41 179.277 L969.479 179.277 L969.479 172.39 Z" fill="#000000" fill-rule="nonzero" fill-opacity="1" /><path clip-path="url(#clip800)" d="M1066.86 186.649 L1080.23 186.649 L1080.23 140.51 L1065.69 143.426 L1065.69 135.973 L1080.15 133.056 L1088.33 133.056 L1088.33 186.649 L1101.7 186.649 L1101.7 193.536 L1066.86 193.536 L1066.86 186.649 Z" fill="#000000" fill-rule="nonzero" fill-opacity="1" /><path clip-path="url(#clip800)" d="M1125.28 186.649 L1153.84 186.649 L1153.84 193.536 L1115.43 193.536 L1115.43 186.649 Q1120.09 181.829 1128.11 173.727 Q1136.17 165.585 1138.24 163.235 Q1142.17 158.82 1143.71 155.782 Q1145.29 152.703 1145.29 149.746 Q1145.29 144.925 1141.89 141.887 Q1138.52 138.849 1133.09 138.849 Q1129.25 138.849 1124.95 140.186 Q1120.7 141.522 1115.84 144.236 L1115.84 135.973 Q1120.78 133.988 1125.07 132.975 Q1129.37 131.962 1132.93 131.962 Q1142.33 131.962 1147.92 136.661 Q1153.51 141.36 1153.51 149.219 Q1153.51 152.946 1152.09 156.308 Q1150.72 159.63 1147.03 164.167 Q1146.02 165.342 1140.59 170.972 Q1135.16 176.563 1125.28 186.649 Z" fill="#000000" fill-rule="nonzero" fill-opacity="1" /><path clip-path="url(#clip800)" d="M1171.86 183.247 L1180.41 183.247 L1180.41 190.214 L1173.77 203.177 L1168.54 203.177 L1171.86 190.214 L1171.86 183.247 Z" fill="#000000" fill-rule="nonzero" fill-opacity="1" /><path clip-path="url(#clip800)" d="M1244.54 203.663 L1238.5 188.148 L1226.06 210.833 L1217.27 210.833 L1234.85 178.75 L1227.48 159.67 Q1225.5 154.566 1219.26 154.566 L1217.27 154.566 L1217.27 148.166 L1220.11 148.247 Q1230.56 148.53 1233.19 155.295 L1239.19 170.81 L1251.62 148.125 L1260.41 148.125 L1242.83 180.209 L1250.21 199.288 Q1252.19 204.392 1258.43 204.392 L1260.41 204.392 L1260.41 210.793 L1257.58 210.712 Q1247.13 210.428 1244.54 203.663 Z" fill="#000000" fill-rule="nonzero" fill-opacity="1" /><path clip-path="url(#clip800)" d="M1297.97 155.863 L1349.9 155.863 L1349.9 162.668 L1297.97 162.668 L1297.97 155.863 M1297.97 172.39 L1349.9 172.39 L1349.9 179.277 L1297.97 179.277 L1297.97 172.39 Z" fill="#000000" fill-rule="nonzero" fill-opacity="1" /><path clip-path="url(#clip800)" d="M1412.45 160.035 Q1406.94 160.035 1403.7 163.802 Q1400.5 167.57 1400.5 174.132 Q1400.5 180.654 1403.7 184.462 Q1406.94 188.229 1412.45 188.229 Q1417.95 188.229 1421.15 184.462 Q1424.4 180.654 1424.4 174.132 Q1424.4 167.57 1421.15 163.802 Q1417.95 160.035 1412.45 160.035 M1428.69 134.393 L1428.69 141.846 Q1425.61 140.388 1422.45 139.618 Q1419.33 138.849 1416.25 138.849 Q1408.15 138.849 1403.86 144.318 Q1399.6 149.786 1399 160.845 Q1401.39 157.321 1404.99 155.458 Q1408.6 153.554 1412.93 153.554 Q1422.05 153.554 1427.31 159.103 Q1432.62 164.613 1432.62 174.132 Q1432.62 183.449 1427.11 189.08 Q1421.6 194.711 1412.45 194.711 Q1401.95 194.711 1396.4 186.69 Q1390.85 178.629 1390.85 163.357 Q1390.85 149.017 1397.66 140.51 Q1404.47 131.962 1415.93 131.962 Q1419.01 131.962 1422.13 132.57 Q1425.29 133.178 1428.69 134.393 Z" fill="#000000" fill-rule="nonzero" fill-opacity="1" /><path clip-path="url(#clip800)" d="M1464.22 138.444 Q1457.9 138.444 1454.7 144.682 Q1451.54 150.88 1451.54 163.357 Q1451.54 175.793 1454.7 182.031 Q1457.9 188.229 1464.22 188.229 Q1470.58 188.229 1473.74 182.031 Q1476.94 175.793 1476.94 163.357 Q1476.94 150.88 1473.74 144.682 Q1470.58 138.444 1464.22 138.444 M1464.22 131.962 Q1474.38 131.962 1479.73 140.024 Q1485.12 148.044 1485.12 163.357 Q1485.12 178.629 1479.73 186.69 Q1474.38 194.711 1464.22 194.711 Q1454.05 194.711 1448.66 186.69 Q1443.31 178.629 1443.31 163.357 Q1443.31 148.044 1448.66 140.024 Q1454.05 131.962 1464.22 131.962 Z" fill="#000000" fill-rule="nonzero" fill-opacity="1" /><path clip-path="url(#clip800)" d="M1500.35 183.247 L1508.9 183.247 L1508.9 190.214 L1502.25 203.177 L1497.03 203.177 L1500.35 190.214 L1500.35 183.247 Z" fill="#000000" fill-rule="nonzero" fill-opacity="1" /><path clip-path="url(#clip800)" d="M1551.51 133.056 L1559.7 133.056 L1559.7 186.649 L1589.15 186.649 L1589.15 193.536 L1551.51 193.536 L1551.51 133.056 Z" fill="#000000" fill-rule="nonzero" fill-opacity="1" /><path clip-path="url(#clip800)" d="M1634.76 168.988 L1634.76 172.633 L1600.49 172.633 Q1600.97 180.33 1605.11 184.381 Q1609.28 188.391 1616.69 188.391 Q1620.99 188.391 1625 187.338 Q1629.05 186.285 1633.02 184.178 L1633.02 191.227 Q1629.01 192.928 1624.79 193.82 Q1620.58 194.711 1616.25 194.711 Q1605.39 194.711 1599.03 188.391 Q1592.71 182.072 1592.71 171.297 Q1592.71 160.157 1598.71 153.635 Q1604.74 147.072 1614.95 147.072 Q1624.11 147.072 1629.41 152.986 Q1634.76 158.86 1634.76 168.988 M1627.31 166.8 Q1627.22 160.683 1623.86 157.037 Q1620.54 153.392 1615.03 153.392 Q1608.79 153.392 1605.03 156.916 Q1601.3 160.44 1600.73 166.841 L1627.31 166.8 Z" fill="#000000" fill-rule="nonzero" fill-opacity="1" /><path clip-path="url(#clip800)" d="M1676.85 170.324 Q1676.85 162.223 1673.49 157.767 Q1670.16 153.311 1664.13 153.311 Q1658.13 153.311 1654.77 157.767 Q1651.45 162.223 1651.45 170.324 Q1651.45 178.386 1654.77 182.842 Q1658.13 187.298 1664.13 187.298 Q1670.16 187.298 1673.49 182.842 Q1676.85 178.386 1676.85 170.324 M1684.3 187.905 Q1684.3 199.491 1679.16 205.122 Q1674.01 210.793 1663.4 210.793 Q1659.47 210.793 1655.99 210.185 Q1652.5 209.618 1649.22 208.403 L1649.22 201.152 Q1652.5 202.934 1655.7 203.785 Q1658.9 204.635 1662.22 204.635 Q1669.56 204.635 1673.2 200.787 Q1676.85 196.979 1676.85 189.242 L1676.85 185.556 Q1674.54 189.566 1670.93 191.551 Q1667.33 193.536 1662.31 193.536 Q1653.96 193.536 1648.86 187.176 Q1643.75 180.816 1643.75 170.324 Q1643.75 159.792 1648.86 153.432 Q1653.96 147.072 1662.31 147.072 Q1667.33 147.072 1670.93 149.057 Q1674.54 151.042 1676.85 155.052 L1676.85 148.166 L1684.3 148.166 L1684.3 187.905 Z" fill="#000000" fill-rule="nonzero" fill-opacity="1" /><path clip-path="url(#clip800)" d="M1738.46 168.988 L1738.46 172.633 L1704.19 172.633 Q1704.68 180.33 1708.81 184.381 Q1712.98 188.391 1720.4 188.391 Q1724.69 188.391 1728.7 187.338 Q1732.75 186.285 1736.72 184.178 L1736.72 191.227 Q1732.71 192.928 1728.5 193.82 Q1724.28 194.711 1719.95 194.711 Q1709.09 194.711 1702.73 188.391 Q1696.41 182.072 1696.41 171.297 Q1696.41 160.157 1702.41 153.635 Q1708.44 147.072 1718.65 147.072 Q1727.81 147.072 1733.11 152.986 Q1738.46 158.86 1738.46 168.988 M1731.01 166.8 Q1730.93 160.683 1727.57 157.037 Q1724.24 153.392 1718.73 153.392 Q1712.5 153.392 1708.73 156.916 Q1705 160.44 1704.43 166.841 L1731.01 166.8 Z" fill="#000000" fill-rule="nonzero" fill-opacity="1" /><path clip-path="url(#clip800)" d="M1788.41 166.152 L1788.41 193.536 L1780.96 193.536 L1780.96 166.395 Q1780.96 159.954 1778.44 156.754 Q1775.93 153.554 1770.91 153.554 Q1764.87 153.554 1761.39 157.402 Q1757.91 161.25 1757.91 167.894 L1757.91 193.536 L1750.41 193.536 L1750.41 148.166 L1757.91 148.166 L1757.91 155.214 Q1760.58 151.123 1764.19 149.098 Q1767.83 147.072 1772.57 147.072 Q1780.39 147.072 1784.4 151.933 Q1788.41 156.754 1788.41 166.152 Z" fill="#000000" fill-rule="nonzero" fill-opacity="1" /><path clip-path="url(#clip800)" d="M1833.13 155.052 L1833.13 130.504 L1840.59 130.504 L1840.59 193.536 L1833.13 193.536 L1833.13 186.73 Q1830.78 190.781 1827.18 192.766 Q1823.61 194.711 1818.59 194.711 Q1810.37 194.711 1805.18 188.148 Q1800.04 181.586 1800.04 170.891 Q1800.04 160.197 1805.18 153.635 Q1810.37 147.072 1818.59 147.072 Q1823.61 147.072 1827.18 149.057 Q1830.78 151.002 1833.13 155.052 M1807.73 170.891 Q1807.73 179.115 1811.09 183.814 Q1814.5 188.472 1820.41 188.472 Q1826.33 188.472 1829.73 183.814 Q1833.13 179.115 1833.13 170.891 Q1833.13 162.668 1829.73 158.01 Q1826.33 153.311 1820.41 153.311 Q1814.5 153.311 1811.09 158.01 Q1807.73 162.668 1807.73 170.891 Z" fill="#000000" fill-rule="nonzero" fill-opacity="1" /><path clip-path="url(#clip800)" d="M1882.23 155.133 Q1880.97 154.404 1879.47 154.08 Q1878.02 153.716 1876.23 153.716 Q1869.91 153.716 1866.51 157.848 Q1863.15 161.939 1863.15 169.636 L1863.15 193.536 L1855.65 193.536 L1855.65 148.166 L1863.15 148.166 L1863.15 155.214 Q1865.5 151.083 1869.27 149.098 Q1873.03 147.072 1878.42 147.072 Q1879.19 147.072 1880.12 147.194 Q1881.05 147.275 1882.19 147.477 L1882.23 155.133 Z" fill="#000000" fill-rule="nonzero" fill-opacity="1" /><path clip-path="url(#clip800)" d="M1927.03 168.988 L1927.03 172.633 L1892.76 172.633 Q1893.25 180.33 1897.38 184.381 Q1901.55 188.391 1908.96 188.391 Q1913.26 188.391 1917.27 187.338 Q1921.32 186.285 1925.29 184.178 L1925.29 191.227 Q1921.28 192.928 1917.07 193.82 Q1912.85 194.711 1908.52 194.711 Q1897.66 194.711 1891.3 188.391 Q1884.98 182.072 1884.98 171.297 Q1884.98 160.157 1890.98 153.635 Q1897.01 147.072 1907.22 147.072 Q1916.38 147.072 1921.68 152.986 Q1927.03 158.86 1927.03 168.988 M1919.58 166.8 Q1919.5 160.683 1916.13 157.037 Q1912.81 153.392 1907.3 153.392 Q1901.07 153.392 1897.3 156.916 Q1893.57 160.44 1893 166.841 L1919.58 166.8 Z" fill="#000000" fill-rule="nonzero" fill-opacity="1" /><path clip-path="url(#clip800)" d="M1973.74 207.309 L1973.74 213.102 L1930.64 213.102 L1930.64 207.309 L1973.74 207.309 Z" fill="#000000" fill-rule="nonzero" fill-opacity="1" /><path clip-path="url(#clip800)" d="M1981.07 133.056 L1992.09 133.056 L2018.91 183.652 L2018.91 133.056 L2026.85 133.056 L2026.85 193.536 L2015.83 193.536 L1989.01 142.94 L1989.01 193.536 L1981.07 193.536 L1981.07 133.056 Z" fill="#000000" fill-rule="nonzero" fill-opacity="1" /><path clip-path="url(#clip800)" d="M2060.39 153.392 Q2054.39 153.392 2050.91 158.091 Q2047.42 162.749 2047.42 170.891 Q2047.42 179.034 2050.87 183.733 Q2054.35 188.391 2060.39 188.391 Q2066.34 188.391 2069.83 183.692 Q2073.31 178.993 2073.31 170.891 Q2073.31 162.83 2069.83 158.131 Q2066.34 153.392 2060.39 153.392 M2060.39 147.072 Q2070.11 147.072 2075.66 153.392 Q2081.21 159.711 2081.21 170.891 Q2081.21 182.031 2075.66 188.391 Q2070.11 194.711 2060.39 194.711 Q2050.62 194.711 2045.08 188.391 Q2039.57 182.031 2039.57 170.891 Q2039.57 159.711 2045.08 153.392 Q2050.62 147.072 2060.39 147.072 Z" fill="#000000" fill-rule="nonzero" fill-opacity="1" /><path clip-path="url(#clip800)" d="M2128.04 207.309 L2128.04 213.102 L2084.94 213.102 L2084.94 207.309 L2128.04 207.309 Z" fill="#000000" fill-rule="nonzero" fill-opacity="1" /><path clip-path="url(#clip800)" d="M2135.37 133.056 L2146.39 133.056 L2173.21 183.652 L2173.21 133.056 L2181.14 133.056 L2181.14 193.536 L2170.13 193.536 L2143.31 142.94 L2143.31 193.536 L2135.37 193.536 L2135.37 133.056 Z" fill="#000000" fill-rule="nonzero" fill-opacity="1" /><path clip-path="url(#clip800)" d="M2214.69 153.392 Q2208.69 153.392 2205.21 158.091 Q2201.72 162.749 2201.72 170.891 Q2201.72 179.034 2205.17 183.733 Q2208.65 188.391 2214.69 188.391 Q2220.64 188.391 2224.12 183.692 Q2227.61 178.993 2227.61 170.891 Q2227.61 162.83 2224.12 158.131 Q2220.64 153.392 2214.69 153.392 M2214.69 147.072 Q2224.41 147.072 2229.96 153.392 Q2235.51 159.711 2235.51 170.891 Q2235.51 182.031 2229.96 188.391 Q2224.41 194.711 2214.69 194.711 Q2204.92 194.711 2199.37 188.391 Q2193.86 182.031 2193.86 170.891 Q2193.86 159.711 2199.37 153.392 Q2204.92 147.072 2214.69 147.072 Z" fill="#000000" fill-rule="nonzero" fill-opacity="1" /><path clip-path="url(#clip800)" d="M2274.15 155.133 Q2272.9 154.404 2271.4 154.08 Q2269.94 153.716 2268.16 153.716 Q2261.84 153.716 2258.44 157.848 Q2255.07 161.939 2255.07 169.636 L2255.07 193.536 L2247.58 193.536 L2247.58 148.166 L2255.07 148.166 L2255.07 155.214 Q2257.42 151.083 2261.19 149.098 Q2264.96 147.072 2270.35 147.072 Q2271.12 147.072 2272.05 147.194 Q2272.98 147.275 2274.11 147.477 L2274.15 155.133 Z" fill="#000000" fill-rule="nonzero" fill-opacity="1" /><path clip-path="url(#clip800)" d="M2315.84 156.875 Q2318.63 151.852 2322.52 149.462 Q2326.41 147.072 2331.68 147.072 Q2338.77 147.072 2342.61 152.055 Q2346.46 156.997 2346.46 166.152 L2346.46 193.536 L2338.97 193.536 L2338.97 166.395 Q2338.97 159.873 2336.66 156.713 Q2334.35 153.554 2329.61 153.554 Q2323.82 153.554 2320.46 157.402 Q2317.09 161.25 2317.09 167.894 L2317.09 193.536 L2309.6 193.536 L2309.6 166.395 Q2309.6 159.832 2307.29 156.713 Q2304.98 153.554 2300.16 153.554 Q2294.45 153.554 2291.09 157.442 Q2287.72 161.291 2287.72 167.894 L2287.72 193.536 L2280.23 193.536 L2280.23 148.166 L2287.72 148.166 L2287.72 155.214 Q2290.28 151.042 2293.84 149.057 Q2297.41 147.072 2302.31 147.072 Q2307.25 147.072 2310.69 149.584 Q2314.18 152.095 2315.84 156.875 Z" fill="#000000" fill-rule="nonzero" fill-opacity="1" /><path clip-path="url(#clip800)" d="M2426.51 168.988 L2426.51 172.633 L2392.24 172.633 Q2392.72 180.33 2396.86 184.381 Q2401.03 188.391 2408.44 188.391 Q2412.74 188.391 2416.75 187.338 Q2420.8 186.285 2424.77 184.178 L2424.77 191.227 Q2420.76 192.928 2416.54 193.82 Q2412.33 194.711 2408 194.711 Q2397.14 194.711 2390.78 188.391 Q2384.46 182.072 2384.46 171.297 Q2384.46 160.157 2390.46 153.635 Q2396.49 147.072 2406.7 147.072 Q2415.85 147.072 2421.16 152.986 Q2426.51 158.86 2426.51 168.988 M2419.05 166.8 Q2418.97 160.683 2415.61 157.037 Q2412.29 153.392 2406.78 153.392 Q2400.54 153.392 2396.77 156.916 Q2393.05 160.44 2392.48 166.841 L2419.05 166.8 Z" fill="#000000" fill-rule="nonzero" fill-opacity="1" /><path clip-path="url(#clip800)" d="M2476.46 166.152 L2476.46 193.536 L2469 193.536 L2469 166.395 Q2469 159.954 2466.49 156.754 Q2463.98 153.554 2458.96 153.554 Q2452.92 153.554 2449.44 157.402 Q2445.95 161.25 2445.95 167.894 L2445.95 193.536 L2438.46 193.536 L2438.46 148.166 L2445.95 148.166 L2445.95 155.214 Q2448.63 151.123 2452.23 149.098 Q2455.88 147.072 2460.62 147.072 Q2468.44 147.072 2472.45 151.933 Q2476.46 156.754 2476.46 166.152 Z" fill="#000000" fill-rule="nonzero" fill-opacity="1" /><path clip-path="url(#clip800)" d="M2523.97 149.908 L2523.97 156.875 Q2520.81 155.133 2517.61 154.283 Q2514.45 153.392 2511.21 153.392 Q2503.96 153.392 2499.95 158.01 Q2495.94 162.587 2495.94 170.891 Q2495.94 179.196 2499.95 183.814 Q2503.96 188.391 2511.21 188.391 Q2514.45 188.391 2517.61 187.541 Q2520.81 186.649 2523.97 184.908 L2523.97 191.794 Q2520.85 193.252 2517.49 193.982 Q2514.17 194.711 2510.4 194.711 Q2500.15 194.711 2494.12 188.27 Q2488.08 181.829 2488.08 170.891 Q2488.08 159.792 2494.16 153.432 Q2500.28 147.072 2510.89 147.072 Q2514.33 147.072 2517.61 147.801 Q2520.89 148.49 2523.97 149.908 Z" fill="#000000" fill-rule="nonzero" fill-opacity="1" /><path clip-path="url(#clip800)" d="M2554.52 153.392 Q2548.52 153.392 2545.04 158.091 Q2541.55 162.749 2541.55 170.891 Q2541.55 179.034 2545 183.733 Q2548.48 188.391 2554.52 188.391 Q2560.47 188.391 2563.96 183.692 Q2567.44 178.993 2567.44 170.891 Q2567.44 162.83 2563.96 158.131 Q2560.47 153.392 2554.52 153.392 M2554.52 147.072 Q2564.24 147.072 2569.79 153.392 Q2575.34 159.711 2575.34 170.891 Q2575.34 182.031 2569.79 188.391 Q2564.24 194.711 2554.52 194.711 Q2544.75 194.711 2539.2 188.391 Q2533.7 182.031 2533.7 170.891 Q2533.7 159.711 2539.2 153.392 Q2544.75 147.072 2554.52 147.072 Z" fill="#000000" fill-rule="nonzero" fill-opacity="1" /><path clip-path="url(#clip800)" d="M2617.55 155.052 L2617.55 130.504 L2625 130.504 L2625 193.536 L2617.55 193.536 L2617.55 186.73 Q2615.2 190.781 2611.59 192.766 Q2608.03 194.711 2603.01 194.711 Q2594.78 194.711 2589.6 188.148 Q2584.45 181.586 2584.45 170.891 Q2584.45 160.197 2589.6 153.635 Q2594.78 147.072 2603.01 147.072 Q2608.03 147.072 2611.59 149.057 Q2615.2 151.002 2617.55 155.052 M2592.15 170.891 Q2592.15 179.115 2595.51 183.814 Q2598.91 188.472 2604.83 188.472 Q2610.74 188.472 2614.15 183.814 Q2617.55 179.115 2617.55 170.891 Q2617.55 162.668 2614.15 158.01 Q2610.74 153.311 2604.83 153.311 Q2598.91 153.311 2595.51 158.01 Q2592.15 162.668 2592.15 170.891 Z" fill="#000000" fill-rule="nonzero" fill-opacity="1" /><path clip-path="url(#clip800)" d="M2640.36 148.166 L2647.81 148.166 L2647.81 193.536 L2640.36 193.536 L2640.36 148.166 M2640.36 130.504 L2647.81 130.504 L2647.81 139.943 L2640.36 139.943 L2640.36 130.504 Z" fill="#000000" fill-rule="nonzero" fill-opacity="1" /><path clip-path="url(#clip800)" d="M2701.12 166.152 L2701.12 193.536 L2693.67 193.536 L2693.67 166.395 Q2693.67 159.954 2691.15 156.754 Q2688.64 153.554 2683.62 153.554 Q2677.58 153.554 2674.1 157.402 Q2670.62 161.25 2670.62 167.894 L2670.62 193.536 L2663.12 193.536 L2663.12 148.166 L2670.62 148.166 L2670.62 155.214 Q2673.29 151.123 2676.89 149.098 Q2680.54 147.072 2685.28 147.072 Q2693.1 147.072 2697.11 151.933 Q2701.12 156.754 2701.12 166.152 Z" fill="#000000" fill-rule="nonzero" fill-opacity="1" /><path clip-path="url(#clip800)" d="M2745.84 170.324 Q2745.84 162.223 2742.48 157.767 Q2739.16 153.311 2733.12 153.311 Q2727.13 153.311 2723.76 157.767 Q2720.44 162.223 2720.44 170.324 Q2720.44 178.386 2723.76 182.842 Q2727.13 187.298 2733.12 187.298 Q2739.16 187.298 2742.48 182.842 Q2745.84 178.386 2745.84 170.324 M2753.29 187.905 Q2753.29 199.491 2748.15 205.122 Q2743.01 210.793 2732.39 210.793 Q2728.46 210.793 2724.98 210.185 Q2721.5 209.618 2718.21 208.403 L2718.21 201.152 Q2721.5 202.934 2724.7 203.785 Q2727.9 204.635 2731.22 204.635 Q2738.55 204.635 2742.2 200.787 Q2745.84 196.979 2745.84 189.242 L2745.84 185.556 Q2743.53 189.566 2739.93 191.551 Q2736.32 193.536 2731.3 193.536 Q2722.95 193.536 2717.85 187.176 Q2712.75 180.816 2712.75 170.324 Q2712.75 159.792 2717.85 153.432 Q2722.95 147.072 2731.3 147.072 Q2736.32 147.072 2739.93 149.057 Q2743.53 151.042 2745.84 155.052 L2745.84 148.166 L2753.29 148.166 L2753.29 187.905 Z" fill="#000000" fill-rule="nonzero" fill-opacity="1" /><path clip-path="url(#clip800)" d="M2770.55 183.247 L2779.1 183.247 L2779.1 190.214 L2772.46 203.177 L2767.23 203.177 L2770.55 190.214 L2770.55 183.247 Z" fill="#000000" fill-rule="nonzero" fill-opacity="1" /><path clip-path="url(#clip800)" d="M1304.65 223.776 L1316.84 223.776 L1332.28 264.933 L1347.79 223.776 L1359.99 223.776 L1359.99 284.256 L1352.01 284.256 L1352.01 231.149 L1336.41 272.63 L1328.19 272.63 L1312.59 231.149 L1312.59 284.256 L1304.65 284.256 L1304.65 223.776 Z" fill="#000000" fill-rule="nonzero" fill-opacity="1" /><path clip-path="url(#clip800)" d="M1414.71 259.708 L1414.71 263.353 L1380.44 263.353 Q1380.93 271.05 1385.06 275.101 Q1389.23 279.111 1396.65 279.111 Q1400.94 279.111 1404.95 278.058 Q1409 277.005 1412.97 274.898 L1412.97 281.947 Q1408.96 283.648 1404.75 284.54 Q1400.54 285.431 1396.2 285.431 Q1385.34 285.431 1378.98 279.111 Q1372.67 272.792 1372.67 262.017 Q1372.67 250.877 1378.66 244.355 Q1384.7 237.792 1394.9 237.792 Q1404.06 237.792 1409.37 243.706 Q1414.71 249.58 1414.71 259.708 M1407.26 257.52 Q1407.18 251.403 1403.82 247.757 Q1400.5 244.112 1394.99 244.112 Q1388.75 244.112 1384.98 247.636 Q1381.25 251.16 1380.69 257.561 L1407.26 257.52 Z" fill="#000000" fill-rule="nonzero" fill-opacity="1" /><path clip-path="url(#clip800)" d="M1456.8 245.772 L1456.8 221.224 L1464.26 221.224 L1464.26 284.256 L1456.8 284.256 L1456.8 277.45 Q1454.45 281.501 1450.85 283.486 Q1447.28 285.431 1442.26 285.431 Q1434.04 285.431 1428.85 278.868 Q1423.71 272.306 1423.71 261.611 Q1423.71 250.917 1428.85 244.355 Q1434.04 237.792 1442.26 237.792 Q1447.28 237.792 1450.85 239.777 Q1454.45 241.722 1456.8 245.772 M1431.4 261.611 Q1431.4 269.835 1434.77 274.534 Q1438.17 279.192 1444.08 279.192 Q1450 279.192 1453.4 274.534 Q1456.8 269.835 1456.8 261.611 Q1456.8 253.388 1453.4 248.73 Q1450 244.031 1444.08 244.031 Q1438.17 244.031 1434.77 248.73 Q1431.4 253.388 1431.4 261.611 Z" fill="#000000" fill-rule="nonzero" fill-opacity="1" /><path clip-path="url(#clip800)" d="M1479.61 238.886 L1487.06 238.886 L1487.06 284.256 L1479.61 284.256 L1479.61 238.886 M1479.61 221.224 L1487.06 221.224 L1487.06 230.663 L1479.61 230.663 L1479.61 221.224 Z" fill="#000000" fill-rule="nonzero" fill-opacity="1" /><path clip-path="url(#clip800)" d="M1523.28 261.449 Q1514.24 261.449 1510.76 263.515 Q1507.28 265.581 1507.28 270.564 Q1507.28 274.534 1509.87 276.883 Q1512.5 279.192 1517 279.192 Q1523.2 279.192 1526.92 274.817 Q1530.69 270.402 1530.69 263.11 L1530.69 261.449 L1523.28 261.449 M1538.14 258.371 L1538.14 284.256 L1530.69 284.256 L1530.69 277.369 Q1528.14 281.501 1524.33 283.486 Q1520.52 285.431 1515.01 285.431 Q1508.05 285.431 1503.91 281.542 Q1499.82 277.613 1499.82 271.05 Q1499.82 263.394 1504.93 259.505 Q1510.07 255.616 1520.24 255.616 L1530.69 255.616 L1530.69 254.887 Q1530.69 249.742 1527.29 246.947 Q1523.93 244.112 1517.81 244.112 Q1513.92 244.112 1510.23 245.043 Q1506.55 245.975 1503.15 247.838 L1503.15 240.952 Q1507.24 239.372 1511.08 238.602 Q1514.93 237.792 1518.58 237.792 Q1528.42 237.792 1533.28 242.896 Q1538.14 248 1538.14 258.371 Z" fill="#000000" fill-rule="nonzero" fill-opacity="1" /><path clip-path="url(#clip800)" d="M1591.21 256.872 L1591.21 284.256 L1583.76 284.256 L1583.76 257.115 Q1583.76 250.674 1581.25 247.474 Q1578.73 244.274 1573.71 244.274 Q1567.68 244.274 1564.19 248.122 Q1560.71 251.97 1560.71 258.614 L1560.71 284.256 L1553.21 284.256 L1553.21 238.886 L1560.71 238.886 L1560.71 245.934 Q1563.38 241.843 1566.99 239.818 Q1570.63 237.792 1575.37 237.792 Q1583.19 237.792 1587.2 242.653 Q1591.21 247.474 1591.21 256.872 Z" fill="#000000" fill-rule="nonzero" fill-opacity="1" /><path clip-path="url(#clip800)" d="M1607.98 273.967 L1616.53 273.967 L1616.53 280.934 L1609.89 293.897 L1604.66 293.897 L1607.98 280.934 L1607.98 273.967 Z" fill="#000000" fill-rule="nonzero" fill-opacity="1" /><path clip-path="url(#clip800)" d="M1689.16 232.242 L1689.16 254.806 L1711.73 254.806 L1711.73 261.692 L1689.16 261.692 L1689.16 284.256 L1682.36 284.256 L1682.36 261.692 L1659.79 261.692 L1659.79 254.806 L1682.36 254.806 L1682.36 232.242 L1689.16 232.242 Z" fill="#000000" fill-rule="nonzero" fill-opacity="1" /><path clip-path="url(#clip800)" d="M1741.58 223.776 L1748.47 223.776 L1727.4 291.953 L1720.52 291.953 L1741.58 223.776 Z" fill="#000000" fill-rule="nonzero" fill-opacity="1" /><path clip-path="url(#clip800)" d="M1752.52 258.209 L1774.35 258.209 L1774.35 264.852 L1752.52 264.852 L1752.52 258.209 Z" fill="#000000" fill-rule="nonzero" fill-opacity="1" /><path clip-path="url(#clip800)" d="M1807.53 223.776 L1815.79 223.776 L1828.51 274.898 L1841.19 223.776 L1850.39 223.776 L1863.11 274.898 L1875.79 223.776 L1884.09 223.776 L1868.9 284.256 L1858.61 284.256 L1845.85 231.756 L1832.97 284.256 L1822.68 284.256 L1807.53 223.776 Z" fill="#000000" fill-rule="nonzero" fill-opacity="1" /><path clip-path="url(#clip800)" d="M1894.95 223.776 L1907.14 223.776 L1922.58 264.933 L1938.09 223.776 L1950.28 223.776 L1950.28 284.256 L1942.3 284.256 L1942.3 231.149 L1926.71 272.63 L1918.48 272.63 L1902.89 231.149 L1902.89 284.256 L1894.95 284.256 L1894.95 223.776 Z" fill="#000000" fill-rule="nonzero" fill-opacity="1" /><path clip-path="url(#clip800)" d="M1986.74 231.837 L1975.64 261.936 L1997.88 261.936 L1986.74 231.837 M1982.12 223.776 L1991.4 223.776 L2014.45 284.256 L2005.94 284.256 L2000.43 268.741 L1973.17 268.741 L1967.66 284.256 L1959.03 284.256 L1982.12 223.776 Z" fill="#000000" fill-rule="nonzero" fill-opacity="1" /><path clip-path="url(#clip800)" d="M2031.46 230.501 L2031.46 277.531 L2041.35 277.531 Q2053.87 277.531 2059.66 271.86 Q2065.49 266.189 2065.49 253.955 Q2065.49 241.803 2059.66 236.172 Q2053.87 230.501 2041.35 230.501 L2031.46 230.501 M2023.28 223.776 L2040.09 223.776 Q2057.67 223.776 2065.9 231.108 Q2074.12 238.4 2074.12 253.955 Q2074.12 269.592 2065.86 276.924 Q2057.59 284.256 2040.09 284.256 L2023.28 284.256 L2023.28 223.776 Z" fill="#000000" fill-rule="nonzero" fill-opacity="1" /><polyline clip-path="url(#clip802)" style="stroke:#000000; stroke-linecap:round; stroke-linejoin:round; stroke-width:8; stroke-opacity:1; fill:none" stroke-dasharray="4, 8" points="386.287,1274.73 412.612,1317.45 438.937,1410.8 465.263,1721.25 491.588,1601.98 517.913,1584.95 544.238,1559.17 570.563,1556.11 596.889,1654.57 623.214,1452.69 649.539,1270.7 675.864,1415.03 702.19,1231.2 728.515,1057.22 754.84,1024.91 781.165,856.89 807.49,1203.6 833.816,989.704 860.141,1086.13 886.466,1172.72 912.791,1293.54 939.117,1377.26 965.442,1254.91 991.767,1401.51 1018.09,1469.54 1044.42,1455.29 1070.74,1394.01 "/>
<polyline clip-path="url(#clip802)" style="stroke:#000000; stroke-linecap:round; stroke-linejoin:round; stroke-width:8; stroke-opacity:1; fill:none" stroke-dasharray="4, 8" points="2281.7,707.917 2308.03,758.015 2334.35,650.385 2360.68,500.042 2387,436.924 2413.33,607.196 2439.65,608.29 2465.98,630.978 2492.3,784.531 2518.63,815.349 2544.96,918.093 2571.28,954.2 2597.61,1020.61 2623.93,1075.19 2650.26,1021.73 2676.58,982.368 2702.91,1023.19 2729.23,821.486 2755.56,820.39 2781.88,586.516 2808.21,554.493 2834.53,518.611 2860.86,463.434 2887.18,403.679 2913.51,506.192 2939.83,304.565 2966.16,539.857 2992.48,398.914 "/>
<polyline clip-path="url(#clip802)" style="stroke:#000000; stroke-linecap:round; stroke-linejoin:round; stroke-width:8; stroke-opacity:0.3; fill:none" points="1097.07,1402.3 1123.39,1336.5 1149.72,1299.18 1176.04,1183.6 1202.37,1030.38 1228.69,1118.87 1255.02,945.051 1281.34,991.569 1307.67,995.048 1333.99,903.126 1360.32,973.339 1386.65,865.439 1412.97,789.381 1439.3,1017.53 1465.62,1123.48 1491.95,1143.21 1518.27,1209.31 1544.6,1396.08 1570.92,1258.96 1597.25,1284.98 1623.57,1256.8 1649.9,1158.04 1676.22,1087.47 1702.55,1153.54 1728.87,1040.66 1755.2,951.442 1781.52,710.207 1807.85,722.204 1834.17,668.079 1860.5,678.912 1886.82,739.682 1913.15,680.654 1939.47,930.909 1965.8,899.352 1992.13,1064.64 2018.45,1081.37 2044.78,1110.58 2071.1,1130.98 2097.43,1140.41 2123.75,1149.82 2150.08,1180.62 2176.4,1051.22 2202.73,1071.89 2229.05,768.39 2255.38,823.311 "/>
<path clip-path="url(#clip802)" d="M1097.07 1427.72 L1123.39 1422.64 L1149.72 1281.85 L1176.04 1255.15 L1202.37 1217.24 L1228.69 1040.54 L1255.02 1023.89 L1281.34 985.544 L1307.67 960.159 L1333.99 935.858 L1360.32 972.672 L1386.65 1009.5 L1412.97 1050.67 L1439.3 1141.59 L1465.62 1177.75 L1491.95 1266.41 L1518.27 1298.51 L1544.6 1397.65 L1570.92 1372.24 L1597.25 1323.4 L1623.57 1324.48 L1649.9 1275.92 L1676.22 1146.79 L1702.55 1024.54 L1728.87 977.726 L1755.2 932.565 L1781.52 860.333 L1807.85 788.434 L1834.17 768.181 L1860.5 790.633 L1886.82 778.372 L1913.15 832.953 L1939.47 865.552 L1965.8 962.109 L1992.13 983.364 L2018.45 1039.62 L2044.78 1079.57 L2071.1 1190.41 L2097.43 1180.05 L2123.75 1172.01 L2150.08 1193.3 L2176.4 1141.06 L2202.73 1122.78 L2229.05 988.694 L2255.38 932.284 L2255.38 813.975 L2229.05 872.855 L2202.73 993.795 L2176.4 983.714 L2150.08 1069.27 L2123.75 1052.11 L2097.43 1062.16 L2071.1 1075.66 L2044.78 933.923 L2018.45 909.772 L1992.13 860.775 L1965.8 839.743 L1939.47 740.517 L1913.15 710.785 L1886.82 659.382 L1860.5 678.886 L1834.17 657.595 L1807.85 664.174 L1781.52 726.241 L1755.2 795.031 L1728.87 844.9 L1702.55 901.861 L1676.22 983.404 L1649.9 1130.33 L1623.57 1184.77 L1597.25 1182.81 L1570.92 1251.6 L1544.6 1260.88 L1518.27 1169.28 L1491.95 1111.07 L1465.62 1037.47 L1439.3 967.173 L1412.97 918.83 L1386.65 885.513 L1360.32 842.833 L1333.99 800.124 L1307.67 830.355 L1281.34 838.117 L1255.02 894.017 L1228.69 910.414 L1202.37 1042.87 L1176.04 1116.08 L1149.72 1123.7 L1123.39 1274.41 L1097.07 1286.89  Z" fill="#ff0000" fill-rule="evenodd" fill-opacity="0.15"/>
<polyline clip-path="url(#clip802)" style="stroke:#ff0000; stroke-linecap:round; stroke-linejoin:round; stroke-width:8; stroke-opacity:0.8; fill:none" points="1097.07,1357.31 1123.39,1348.52 1149.72,1202.78 1176.04,1185.62 1202.37,1130.06 1228.69,975.477 1255.02,958.955 1281.34,911.83 1307.67,895.257 1333.99,867.991 1360.32,907.753 1386.65,947.508 1412.97,984.751 1439.3,1054.38 1465.62,1107.61 1491.95,1188.74 1518.27,1233.9 1544.6,1329.27 1570.92,1311.92 1597.25,1253.11 1623.57,1254.62 1649.9,1203.12 1676.22,1065.1 1702.55,963.199 1728.87,911.313 1755.2,863.798 1781.52,793.287 1807.85,726.304 1834.17,712.888 1860.5,734.76 1886.82,718.877 1913.15,771.869 1939.47,803.034 1965.8,900.926 1992.13,922.07 2018.45,974.697 2044.78,1006.74 2071.1,1133.03 2097.43,1121.1 2123.75,1112.06 2150.08,1131.28 2176.4,1062.39 2202.73,1058.29 2229.05,930.775 2255.38,873.13 "/>
<path clip-path="url(#clip800)" d="M3192.16 519.48 L3952.76 519.48 L3952.76 312.12 L3192.16 312.12  Z" fill="#ffffff" fill-rule="evenodd" fill-opacity="1"/>
<polyline clip-path="url(#clip800)" style="stroke:#000000; stroke-linecap:round; stroke-linejoin:round; stroke-width:4; stroke-opacity:1; fill:none" points="3192.16,519.48 3952.76,519.48 3952.76,312.12 3192.16,312.12 3192.16,519.48 "/>
<polyline clip-path="url(#clip800)" style="stroke:#000000; stroke-linecap:round; stroke-linejoin:round; stroke-width:8; stroke-opacity:1; fill:none" stroke-dasharray="4, 8" points="3232.65,363.96 3475.63,363.96 "/>
<path clip-path="url(#clip800)" d="M3532.15 349.852 Q3527.05 349.852 3524.04 353.648 Q3521.06 357.444 3521.06 363.995 Q3521.06 370.523 3524.04 374.319 Q3527.05 378.115 3532.15 378.115 Q3537.24 378.115 3540.2 374.319 Q3543.19 370.523 3543.19 363.995 Q3543.19 357.444 3540.2 353.648 Q3537.24 349.852 3532.15 349.852 M3532.15 346.055 Q3539.41 346.055 3543.77 350.94 Q3548.12 355.801 3548.12 363.995 Q3548.12 372.166 3543.77 377.051 Q3539.41 381.912 3532.15 381.912 Q3524.85 381.912 3520.48 377.051 Q3516.13 372.189 3516.13 363.995 Q3516.13 355.801 3520.48 350.94 Q3524.85 346.055 3532.15 346.055 Z" fill="#000000" fill-rule="nonzero" fill-opacity="1" /><path clip-path="url(#clip800)" d="M3573.86 368.301 Q3573.86 363.602 3571.91 360.94 Q3569.99 358.254 3566.61 358.254 Q3563.23 358.254 3561.29 360.94 Q3559.37 363.602 3559.37 368.301 Q3559.37 373 3561.29 375.685 Q3563.23 378.347 3566.61 378.347 Q3569.99 378.347 3571.91 375.685 Q3573.86 373 3573.86 368.301 M3559.37 359.25 Q3560.71 356.935 3562.75 355.824 Q3564.81 354.69 3567.66 354.69 Q3572.38 354.69 3575.32 358.44 Q3578.28 362.19 3578.28 368.301 Q3578.28 374.412 3575.32 378.162 Q3572.38 381.912 3567.66 381.912 Q3564.81 381.912 3562.75 380.801 Q3560.71 379.666 3559.37 377.351 L3559.37 381.24 L3555.09 381.24 L3555.09 345.222 L3559.37 345.222 L3559.37 359.25 Z" fill="#000000" fill-rule="nonzero" fill-opacity="1" /><path clip-path="url(#clip800)" d="M3601.87 356.078 L3601.87 360.106 Q3600.06 359.18 3598.12 358.717 Q3596.17 358.254 3594.09 358.254 Q3590.92 358.254 3589.32 359.227 Q3587.75 360.199 3587.75 362.143 Q3587.75 363.625 3588.88 364.481 Q3590.02 365.315 3593.44 366.078 L3594.9 366.402 Q3599.44 367.375 3601.34 369.157 Q3603.26 370.916 3603.26 374.088 Q3603.26 377.699 3600.39 379.805 Q3597.54 381.912 3592.54 381.912 Q3590.46 381.912 3588.19 381.495 Q3585.94 381.101 3583.44 380.291 L3583.44 375.893 Q3585.8 377.12 3588.09 377.745 Q3590.39 378.347 3592.63 378.347 Q3595.64 378.347 3597.26 377.328 Q3598.88 376.287 3598.88 374.412 Q3598.88 372.676 3597.7 371.75 Q3596.54 370.824 3592.59 369.967 L3591.1 369.62 Q3587.15 368.787 3585.39 367.074 Q3583.63 365.338 3583.63 362.328 Q3583.63 358.671 3586.22 356.68 Q3588.81 354.69 3593.58 354.69 Q3595.94 354.69 3598.03 355.037 Q3600.11 355.384 3601.87 356.078 Z" fill="#000000" fill-rule="nonzero" fill-opacity="1" /><path clip-path="url(#clip800)" d="M3632.21 367.213 L3632.21 369.296 L3612.63 369.296 Q3612.91 373.694 3615.27 376.009 Q3617.65 378.301 3621.89 378.301 Q3624.34 378.301 3626.64 377.699 Q3628.95 377.097 3631.22 375.893 L3631.22 379.921 Q3628.93 380.893 3626.52 381.402 Q3624.11 381.912 3621.64 381.912 Q3615.43 381.912 3611.8 378.301 Q3608.19 374.689 3608.19 368.532 Q3608.19 362.166 3611.61 358.44 Q3615.06 354.69 3620.9 354.69 Q3626.13 354.69 3629.16 358.069 Q3632.21 361.426 3632.21 367.213 M3627.96 365.963 Q3627.91 362.467 3625.99 360.384 Q3624.09 358.301 3620.94 358.301 Q3617.38 358.301 3615.22 360.315 Q3613.09 362.328 3612.77 365.986 L3627.96 365.963 Z" fill="#000000" fill-rule="nonzero" fill-opacity="1" /><path clip-path="url(#clip800)" d="M3654.23 359.296 Q3653.51 358.879 3652.65 358.694 Q3651.82 358.486 3650.8 358.486 Q3647.19 358.486 3645.25 360.847 Q3643.33 363.185 3643.33 367.583 L3643.33 381.24 L3639.04 381.24 L3639.04 355.315 L3643.33 355.315 L3643.33 359.342 Q3644.67 356.981 3646.82 355.847 Q3648.97 354.69 3652.05 354.69 Q3652.49 354.69 3653.03 354.759 Q3653.56 354.805 3654.21 354.921 L3654.23 359.296 Z" fill="#000000" fill-rule="nonzero" fill-opacity="1" /><path clip-path="url(#clip800)" d="M3655.64 355.315 L3660.15 355.315 L3668.26 377.074 L3676.36 355.315 L3680.87 355.315 L3671.15 381.24 L3665.36 381.24 L3655.64 355.315 Z" fill="#000000" fill-rule="nonzero" fill-opacity="1" /><path clip-path="url(#clip800)" d="M3708.93 367.213 L3708.93 369.296 L3689.34 369.296 Q3689.62 373.694 3691.98 376.009 Q3694.37 378.301 3698.6 378.301 Q3701.06 378.301 3703.35 377.699 Q3705.66 377.097 3707.93 375.893 L3707.93 379.921 Q3705.64 380.893 3703.23 381.402 Q3700.83 381.912 3698.35 381.912 Q3692.15 381.912 3688.51 378.301 Q3684.9 374.689 3684.9 368.532 Q3684.9 362.166 3688.33 358.44 Q3691.77 354.69 3697.61 354.69 Q3702.84 354.69 3705.87 358.069 Q3708.93 361.426 3708.93 367.213 M3704.67 365.963 Q3704.62 362.467 3702.7 360.384 Q3700.8 358.301 3697.65 358.301 Q3694.09 358.301 3691.94 360.315 Q3689.81 362.328 3689.48 365.986 L3704.67 365.963 Z" fill="#000000" fill-rule="nonzero" fill-opacity="1" /><path clip-path="url(#clip800)" d="M3732.98 359.25 L3732.98 345.222 L3737.24 345.222 L3737.24 381.24 L3732.98 381.24 L3732.98 377.351 Q3731.64 379.666 3729.58 380.801 Q3727.54 381.912 3724.67 381.912 Q3719.97 381.912 3717.01 378.162 Q3714.07 374.412 3714.07 368.301 Q3714.07 362.19 3717.01 358.44 Q3719.97 354.69 3724.67 354.69 Q3727.54 354.69 3729.58 355.824 Q3731.64 356.935 3732.98 359.25 M3718.46 368.301 Q3718.46 373 3720.39 375.685 Q3722.33 378.347 3725.71 378.347 Q3729.09 378.347 3731.03 375.685 Q3732.98 373 3732.98 368.301 Q3732.98 363.602 3731.03 360.94 Q3729.09 358.254 3725.71 358.254 Q3722.33 358.254 3720.39 360.94 Q3718.46 363.602 3718.46 368.301 Z" fill="#000000" fill-rule="nonzero" fill-opacity="1" /><polyline clip-path="url(#clip800)" style="stroke:#000000; stroke-linecap:round; stroke-linejoin:round; stroke-width:8; stroke-opacity:0.3; fill:none" points="3232.65,415.8 3475.63,415.8 "/>
<path clip-path="url(#clip800)" d="M3541.68 428.15 L3541.68 418.867 L3534.04 418.867 L3534.04 415.025 L3546.31 415.025 L3546.31 429.863 Q3543.6 431.784 3540.34 432.779 Q3537.08 433.752 3533.37 433.752 Q3525.27 433.752 3520.69 429.029 Q3516.13 424.284 3516.13 415.835 Q3516.13 407.363 3520.69 402.641 Q3525.27 397.895 3533.37 397.895 Q3536.75 397.895 3539.78 398.729 Q3542.84 399.562 3545.41 401.182 L3545.41 406.159 Q3542.82 403.96 3539.9 402.849 Q3536.98 401.738 3533.77 401.738 Q3527.42 401.738 3524.23 405.28 Q3521.06 408.821 3521.06 415.835 Q3521.06 422.826 3524.23 426.367 Q3527.42 429.909 3533.77 429.909 Q3536.24 429.909 3538.19 429.492 Q3540.13 429.053 3541.68 428.15 Z" fill="#000000" fill-rule="nonzero" fill-opacity="1" /><path clip-path="url(#clip800)" d="M3569.69 411.136 Q3568.97 410.719 3568.12 410.534 Q3567.28 410.326 3566.27 410.326 Q3562.66 410.326 3560.71 412.687 Q3558.79 415.025 3558.79 419.423 L3558.79 433.08 L3554.51 433.08 L3554.51 407.155 L3558.79 407.155 L3558.79 411.182 Q3560.13 408.821 3562.28 407.687 Q3564.44 406.53 3567.52 406.53 Q3567.96 406.53 3568.49 406.599 Q3569.02 406.645 3569.67 406.761 L3569.69 411.136 Z" fill="#000000" fill-rule="nonzero" fill-opacity="1" /><path clip-path="url(#clip800)" d="M3583.16 410.141 Q3579.74 410.141 3577.75 412.826 Q3575.76 415.488 3575.76 420.141 Q3575.76 424.793 3577.72 427.479 Q3579.72 430.141 3583.16 430.141 Q3586.57 430.141 3588.56 427.455 Q3590.55 424.77 3590.55 420.141 Q3590.55 415.534 3588.56 412.849 Q3586.57 410.141 3583.16 410.141 M3583.16 406.53 Q3588.72 406.53 3591.89 410.141 Q3595.06 413.752 3595.06 420.141 Q3595.06 426.506 3591.89 430.141 Q3588.72 433.752 3583.16 433.752 Q3577.59 433.752 3574.41 430.141 Q3571.27 426.506 3571.27 420.141 Q3571.27 413.752 3574.41 410.141 Q3577.59 406.53 3583.16 406.53 Z" fill="#000000" fill-rule="nonzero" fill-opacity="1" /><path clip-path="url(#clip800)" d="M3601.68 422.849 L3601.68 407.155 L3605.94 407.155 L3605.94 422.687 Q3605.94 426.367 3607.38 428.219 Q3608.81 430.048 3611.68 430.048 Q3615.13 430.048 3617.12 427.849 Q3619.14 425.65 3619.14 421.854 L3619.14 407.155 L3623.4 407.155 L3623.4 433.08 L3619.14 433.08 L3619.14 429.099 Q3617.59 431.46 3615.53 432.617 Q3613.49 433.752 3610.78 433.752 Q3606.31 433.752 3604 430.974 Q3601.68 428.196 3601.68 422.849 M3612.4 406.53 L3612.4 406.53 Z" fill="#000000" fill-rule="nonzero" fill-opacity="1" /><path clip-path="url(#clip800)" d="M3653.72 417.432 L3653.72 433.08 L3649.46 433.08 L3649.46 417.571 Q3649.46 413.891 3648.03 412.062 Q3646.59 410.233 3643.72 410.233 Q3640.27 410.233 3638.28 412.432 Q3636.29 414.631 3636.29 418.428 L3636.29 433.08 L3632.01 433.08 L3632.01 407.155 L3636.29 407.155 L3636.29 411.182 Q3637.82 408.844 3639.88 407.687 Q3641.96 406.53 3644.67 406.53 Q3649.14 406.53 3651.43 409.307 Q3653.72 412.062 3653.72 417.432 Z" fill="#000000" fill-rule="nonzero" fill-opacity="1" /><path clip-path="url(#clip800)" d="M3679.27 411.09 L3679.27 397.062 L3683.53 397.062 L3683.53 433.08 L3679.27 433.08 L3679.27 429.191 Q3677.93 431.506 3675.87 432.641 Q3673.84 433.752 3670.96 433.752 Q3666.27 433.752 3663.3 430.002 Q3660.36 426.252 3660.36 420.141 Q3660.36 414.03 3663.3 410.28 Q3666.27 406.53 3670.96 406.53 Q3673.84 406.53 3675.87 407.664 Q3677.93 408.775 3679.27 411.09 M3664.76 420.141 Q3664.76 424.84 3666.68 427.525 Q3668.63 430.187 3672.01 430.187 Q3675.39 430.187 3677.33 427.525 Q3679.27 424.84 3679.27 420.141 Q3679.27 415.442 3677.33 412.78 Q3675.39 410.094 3672.01 410.094 Q3668.63 410.094 3666.68 412.78 Q3664.76 415.442 3664.76 420.141 Z" fill="#000000" fill-rule="nonzero" fill-opacity="1" /><path clip-path="url(#clip800)" d="M3711.59 399.794 L3711.59 407.155 L3720.36 407.155 L3720.36 410.465 L3711.59 410.465 L3711.59 424.539 Q3711.59 427.71 3712.45 428.613 Q3713.33 429.516 3715.99 429.516 L3720.36 429.516 L3720.36 433.08 L3715.99 433.08 Q3711.06 433.08 3709.18 431.252 Q3707.31 429.4 3707.31 424.539 L3707.31 410.465 L3704.18 410.465 L3704.18 407.155 L3707.31 407.155 L3707.31 399.794 L3711.59 399.794 Z" fill="#000000" fill-rule="nonzero" fill-opacity="1" /><path clip-path="url(#clip800)" d="M3740.99 411.136 Q3740.27 410.719 3739.41 410.534 Q3738.58 410.326 3737.56 410.326 Q3733.95 410.326 3732.01 412.687 Q3730.08 415.025 3730.08 419.423 L3730.08 433.08 L3725.8 433.08 L3725.8 407.155 L3730.08 407.155 L3730.08 411.182 Q3731.43 408.821 3733.58 407.687 Q3735.73 406.53 3738.81 406.53 Q3739.25 406.53 3739.78 406.599 Q3740.32 406.645 3740.96 406.761 L3740.99 411.136 Z" fill="#000000" fill-rule="nonzero" fill-opacity="1" /><path clip-path="url(#clip800)" d="M3745.02 422.849 L3745.02 407.155 L3749.27 407.155 L3749.27 422.687 Q3749.27 426.367 3750.71 428.219 Q3752.14 430.048 3755.02 430.048 Q3758.46 430.048 3760.45 427.849 Q3762.47 425.65 3762.47 421.854 L3762.47 407.155 L3766.73 407.155 L3766.73 433.08 L3762.47 433.08 L3762.47 429.099 Q3760.92 431.46 3758.86 432.617 Q3756.82 433.752 3754.11 433.752 Q3749.64 433.752 3747.33 430.974 Q3745.02 428.196 3745.02 422.849 M3755.73 406.53 L3755.73 406.53 Z" fill="#000000" fill-rule="nonzero" fill-opacity="1" /><path clip-path="url(#clip800)" d="M3779.71 399.794 L3779.71 407.155 L3788.49 407.155 L3788.49 410.465 L3779.71 410.465 L3779.71 424.539 Q3779.71 427.71 3780.57 428.613 Q3781.45 429.516 3784.11 429.516 L3788.49 429.516 L3788.49 433.08 L3784.11 433.08 Q3779.18 433.08 3777.31 431.252 Q3775.43 429.4 3775.43 424.539 L3775.43 410.465 L3772.31 410.465 L3772.31 407.155 L3775.43 407.155 L3775.43 399.794 L3779.71 399.794 Z" fill="#000000" fill-rule="nonzero" fill-opacity="1" /><path clip-path="url(#clip800)" d="M3815.64 417.432 L3815.64 433.08 L3811.38 433.08 L3811.38 417.571 Q3811.38 413.891 3809.95 412.062 Q3808.51 410.233 3805.64 410.233 Q3802.19 410.233 3800.2 412.432 Q3798.21 414.631 3798.21 418.428 L3798.21 433.08 L3793.93 433.08 L3793.93 397.062 L3798.21 397.062 L3798.21 411.182 Q3799.74 408.844 3801.8 407.687 Q3803.88 406.53 3806.59 406.53 Q3811.06 406.53 3813.35 409.307 Q3815.64 412.062 3815.64 417.432 Z" fill="#000000" fill-rule="nonzero" fill-opacity="1" /><polyline clip-path="url(#clip800)" style="stroke:#ff0000; stroke-linecap:round; stroke-linejoin:round; stroke-width:8; stroke-opacity:0.8; fill:none" points="3232.65,467.64 3475.63,467.64 "/>
<path clip-path="url(#clip800)" d="M3516.13 450.36 L3523.1 450.36 L3531.91 473.879 L3540.78 450.36 L3547.75 450.36 L3547.75 484.92 L3543.19 484.92 L3543.19 454.573 L3534.28 478.277 L3529.58 478.277 L3520.66 454.573 L3520.66 484.92 L3516.13 484.92 L3516.13 450.36 Z" fill="#000000" fill-rule="nonzero" fill-opacity="1" /><path clip-path="url(#clip800)" d="M3561.71 454.203 L3561.71 467.189 L3567.59 467.189 Q3570.85 467.189 3572.63 465.499 Q3574.41 463.809 3574.41 460.684 Q3574.41 457.583 3572.63 455.893 Q3570.85 454.203 3567.59 454.203 L3561.71 454.203 M3557.03 450.36 L3567.59 450.36 Q3573.4 450.36 3576.36 452.999 Q3579.34 455.615 3579.34 460.684 Q3579.34 465.8 3576.36 468.416 Q3573.4 471.032 3567.59 471.032 L3561.71 471.032 L3561.71 484.92 L3557.03 484.92 L3557.03 450.36 Z" fill="#000000" fill-rule="nonzero" fill-opacity="1" /><path clip-path="url(#clip800)" d="M3606.34 451.495 L3606.34 456.055 Q3603.67 454.782 3601.31 454.157 Q3598.95 453.532 3596.75 453.532 Q3592.93 453.532 3590.85 455.013 Q3588.79 456.495 3588.79 459.226 Q3588.79 461.518 3590.15 462.698 Q3591.54 463.856 3595.39 464.573 L3598.21 465.152 Q3603.44 466.147 3605.92 468.67 Q3608.42 471.17 3608.42 475.383 Q3608.42 480.407 3605.04 482.999 Q3601.68 485.592 3595.18 485.592 Q3592.72 485.592 3589.95 485.036 Q3587.19 484.481 3584.23 483.393 L3584.23 478.578 Q3587.08 480.175 3589.81 480.985 Q3592.54 481.795 3595.18 481.795 Q3599.18 481.795 3601.36 480.221 Q3603.53 478.647 3603.53 475.731 Q3603.53 473.184 3601.96 471.749 Q3600.41 470.314 3596.84 469.596 L3594 469.041 Q3588.77 467.999 3586.43 465.777 Q3584.09 463.555 3584.09 459.596 Q3584.09 455.013 3587.31 452.374 Q3590.55 449.735 3596.22 449.735 Q3598.65 449.735 3601.17 450.175 Q3603.7 450.615 3606.34 451.495 Z" fill="#000000" fill-rule="nonzero" fill-opacity="1" /><path clip-path="url(#clip800)" d="M3630.78 450.36 L3635.46 450.36 L3635.46 484.92 L3630.78 484.92 L3630.78 450.36 Z" fill="#000000" fill-rule="nonzero" fill-opacity="1" /><path clip-path="url(#clip800)" d="M3666.13 469.272 L3666.13 484.92 L3661.87 484.92 L3661.87 469.411 Q3661.87 465.731 3660.43 463.902 Q3659 462.073 3656.13 462.073 Q3652.68 462.073 3650.69 464.272 Q3648.7 466.471 3648.7 470.268 L3648.7 484.92 L3644.41 484.92 L3644.41 458.995 L3648.7 458.995 L3648.7 463.022 Q3650.22 460.684 3652.28 459.527 Q3654.37 458.37 3657.08 458.37 Q3661.54 458.37 3663.84 461.147 Q3666.13 463.902 3666.13 469.272 Z" fill="#000000" fill-rule="nonzero" fill-opacity="1" /><path clip-path="url(#clip800)" d="M3678.84 451.634 L3678.84 458.995 L3687.61 458.995 L3687.61 462.305 L3678.84 462.305 L3678.84 476.379 Q3678.84 479.55 3679.69 480.453 Q3680.57 481.356 3683.23 481.356 L3687.61 481.356 L3687.61 484.92 L3683.23 484.92 Q3678.3 484.92 3676.43 483.092 Q3674.55 481.24 3674.55 476.379 L3674.55 462.305 L3671.43 462.305 L3671.43 458.995 L3674.55 458.995 L3674.55 451.634 L3678.84 451.634 Z" fill="#000000" fill-rule="nonzero" fill-opacity="1" /><path clip-path="url(#clip800)" d="M3715.39 470.893 L3715.39 472.976 L3695.8 472.976 Q3696.08 477.374 3698.44 479.689 Q3700.83 481.981 3705.06 481.981 Q3707.52 481.981 3709.81 481.379 Q3712.12 480.777 3714.39 479.573 L3714.39 483.601 Q3712.1 484.573 3709.69 485.082 Q3707.28 485.592 3704.81 485.592 Q3698.6 485.592 3694.97 481.981 Q3691.36 478.369 3691.36 472.212 Q3691.36 465.846 3694.78 462.12 Q3698.23 458.37 3704.07 458.37 Q3709.3 458.37 3712.33 461.749 Q3715.39 465.106 3715.39 470.893 M3711.13 469.643 Q3711.08 466.147 3709.16 464.064 Q3707.26 461.981 3704.11 461.981 Q3700.55 461.981 3698.4 463.995 Q3696.27 466.008 3695.94 469.666 L3711.13 469.643 Z" fill="#000000" fill-rule="nonzero" fill-opacity="1" /><path clip-path="url(#clip800)" d="M3737.4 462.976 Q3736.68 462.559 3735.83 462.374 Q3734.99 462.166 3733.97 462.166 Q3730.36 462.166 3728.42 464.527 Q3726.5 466.865 3726.5 471.263 L3726.5 484.92 L3722.21 484.92 L3722.21 458.995 L3726.5 458.995 L3726.5 463.022 Q3727.84 460.661 3729.99 459.527 Q3732.14 458.37 3735.22 458.37 Q3735.66 458.37 3736.2 458.439 Q3736.73 458.485 3737.38 458.601 L3737.4 462.976 Z" fill="#000000" fill-rule="nonzero" fill-opacity="1" /><path clip-path="url(#clip800)" d="M3745.99 481.031 L3745.99 494.781 L3741.71 494.781 L3741.71 458.995 L3745.99 458.995 L3745.99 462.93 Q3747.33 460.615 3749.37 459.504 Q3751.43 458.37 3754.27 458.37 Q3759 458.37 3761.94 462.12 Q3764.9 465.87 3764.9 471.981 Q3764.9 478.092 3761.94 481.842 Q3759 485.592 3754.27 485.592 Q3751.43 485.592 3749.37 484.481 Q3747.33 483.346 3745.99 481.031 M3760.48 471.981 Q3760.48 467.282 3758.53 464.62 Q3756.61 461.934 3753.23 461.934 Q3749.85 461.934 3747.91 464.62 Q3745.99 467.282 3745.99 471.981 Q3745.99 476.68 3747.91 479.365 Q3749.85 482.027 3753.23 482.027 Q3756.61 482.027 3758.53 479.365 Q3760.48 476.68 3760.48 471.981 Z" fill="#000000" fill-rule="nonzero" fill-opacity="1" /><path clip-path="url(#clip800)" d="M3782.01 461.981 Q3778.58 461.981 3776.59 464.666 Q3774.6 467.328 3774.6 471.981 Q3774.6 476.633 3776.57 479.319 Q3778.56 481.981 3782.01 481.981 Q3785.41 481.981 3787.4 479.295 Q3789.39 476.61 3789.39 471.981 Q3789.39 467.374 3787.4 464.689 Q3785.41 461.981 3782.01 461.981 M3782.01 458.37 Q3787.56 458.37 3790.73 461.981 Q3793.9 465.592 3793.9 471.981 Q3793.9 478.346 3790.73 481.981 Q3787.56 485.592 3782.01 485.592 Q3776.43 485.592 3773.26 481.981 Q3770.11 478.346 3770.11 471.981 Q3770.11 465.592 3773.26 461.981 Q3776.43 458.37 3782.01 458.37 Z" fill="#000000" fill-rule="nonzero" fill-opacity="1" /><path clip-path="url(#clip800)" d="M3800.96 448.902 L3805.22 448.902 L3805.22 484.92 L3800.96 484.92 L3800.96 448.902 Z" fill="#000000" fill-rule="nonzero" fill-opacity="1" /><path clip-path="url(#clip800)" d="M3825.92 471.888 Q3820.76 471.888 3818.76 473.069 Q3816.77 474.249 3816.77 477.096 Q3816.77 479.365 3818.26 480.707 Q3819.76 482.027 3822.33 482.027 Q3825.87 482.027 3828 479.527 Q3830.15 477.004 3830.15 472.837 L3830.15 471.888 L3825.92 471.888 M3834.41 470.129 L3834.41 484.92 L3830.15 484.92 L3830.15 480.985 Q3828.7 483.346 3826.52 484.481 Q3824.34 485.592 3821.2 485.592 Q3817.21 485.592 3814.85 483.369 Q3812.51 481.124 3812.51 477.374 Q3812.51 472.999 3815.43 470.777 Q3818.37 468.555 3824.18 468.555 L3830.15 468.555 L3830.15 468.138 Q3830.15 465.198 3828.21 463.601 Q3826.29 461.981 3822.79 461.981 Q3820.57 461.981 3818.46 462.513 Q3816.36 463.045 3814.41 464.11 L3814.41 460.175 Q3816.75 459.272 3818.95 458.833 Q3821.15 458.37 3823.23 458.37 Q3828.86 458.37 3831.64 461.286 Q3834.41 464.203 3834.41 470.129 Z" fill="#000000" fill-rule="nonzero" fill-opacity="1" /><path clip-path="url(#clip800)" d="M3847.4 451.634 L3847.4 458.995 L3856.17 458.995 L3856.17 462.305 L3847.4 462.305 L3847.4 476.379 Q3847.4 479.55 3848.26 480.453 Q3849.14 481.356 3851.8 481.356 L3856.17 481.356 L3856.17 484.92 L3851.8 484.92 Q3846.87 484.92 3844.99 483.092 Q3843.12 481.24 3843.12 476.379 L3843.12 462.305 L3839.99 462.305 L3839.99 458.995 L3843.12 458.995 L3843.12 451.634 L3847.4 451.634 Z" fill="#000000" fill-rule="nonzero" fill-opacity="1" /><path clip-path="url(#clip800)" d="M3883.95 470.893 L3883.95 472.976 L3864.37 472.976 Q3864.64 477.374 3867.01 479.689 Q3869.39 481.981 3873.63 481.981 Q3876.08 481.981 3878.37 481.379 Q3880.69 480.777 3882.95 479.573 L3882.95 483.601 Q3880.66 484.573 3878.26 485.082 Q3875.85 485.592 3873.37 485.592 Q3867.17 485.592 3863.53 481.981 Q3859.92 478.369 3859.92 472.212 Q3859.92 465.846 3863.35 462.12 Q3866.8 458.37 3872.63 458.37 Q3877.86 458.37 3880.89 461.749 Q3883.95 465.106 3883.95 470.893 M3879.69 469.643 Q3879.64 466.147 3877.72 464.064 Q3875.82 461.981 3872.68 461.981 Q3869.11 461.981 3866.96 463.995 Q3864.83 466.008 3864.51 469.666 L3879.69 469.643 Z" fill="#000000" fill-rule="nonzero" fill-opacity="1" /><path clip-path="url(#clip800)" d="M3908 462.93 L3908 448.902 L3912.26 448.902 L3912.26 484.92 L3908 484.92 L3908 481.031 Q3906.66 483.346 3904.6 484.481 Q3902.56 485.592 3899.69 485.592 Q3894.99 485.592 3892.03 481.842 Q3889.09 478.092 3889.09 471.981 Q3889.09 465.87 3892.03 462.12 Q3894.99 458.37 3899.69 458.37 Q3902.56 458.37 3904.6 459.504 Q3906.66 460.615 3908 462.93 M3893.49 471.981 Q3893.49 476.68 3895.41 479.365 Q3897.35 482.027 3900.73 482.027 Q3904.11 482.027 3906.06 479.365 Q3908 476.68 3908 471.981 Q3908 467.282 3906.06 464.62 Q3904.11 461.934 3900.73 461.934 Q3897.35 461.934 3895.41 464.62 Q3893.49 467.282 3893.49 471.981 Z" fill="#000000" fill-rule="nonzero" fill-opacity="1" /></svg>
