<?xml version="1.0" encoding="utf-8"?>
<svg xmlns="http://www.w3.org/2000/svg" xmlns:xlink="http://www.w3.org/1999/xlink" width="600" height="400" viewBox="0 0 2400 1600">
<defs>
  <clipPath id="clip980">
    <rect x="0" y="0" width="2400" height="1600"/>
  </clipPath>
</defs>
<path clip-path="url(#clip980)" d="M0 1600 L2400 1600 L2400 8.88178e-14 L0 8.88178e-14  Z" fill="#ffffff" fill-rule="evenodd" fill-opacity="1"/>
<defs>
  <clipPath id="clip981">
    <rect x="480" y="0" width="1681" height="1600"/>
  </clipPath>
</defs>
<path clip-path="url(#clip980)" d="M249.542 1423.18 L2352.76 1423.18 L2352.76 47.2441 L249.542 47.2441  Z" fill="#ffffff" fill-rule="evenodd" fill-opacity="1"/>
<defs>
  <clipPath id="clip982">
    <rect x="249" y="47" width="2104" height="1377"/>
  </clipPath>
</defs>
<polyline clip-path="url(#clip982)" style="stroke:#000000; stroke-linecap:round; stroke-linejoin:round; stroke-width:2; stroke-opacity:0.1; fill:none" points="309.067,1423.18 309.067,47.2441 "/>
<polyline clip-path="url(#clip982)" style="stroke:#000000; stroke-linecap:round; stroke-linejoin:round; stroke-width:2; stroke-opacity:0.1; fill:none" points="545.277,1423.18 545.277,47.2441 "/>
<polyline clip-path="url(#clip982)" style="stroke:#000000; stroke-linecap:round; stroke-linejoin:round; stroke-width:2; stroke-opacity:0.1; fill:none" points="781.487,1423.18 781.487,47.2441 "/>
<polyline clip-path="url(#clip982)" style="stroke:#000000; stroke-linecap:round; stroke-linejoin:round; stroke-width:2; stroke-opacity:0.1; fill:none" points="1017.7,1423.18 1017.7,47.2441 "/>
<polyline clip-path="url(#clip982)" style="stroke:#000000; stroke-linecap:round; stroke-linejoin:round; stroke-width:2; stroke-opacity:0.1; fill:none" points="1253.91,1423.18 1253.91,47.2441 "/>
<polyline clip-path="url(#clip982)" style="stroke:#000000; stroke-linecap:round; stroke-linejoin:round; stroke-width:2; stroke-opacity:0.1; fill:none" points="1490.12,1423.18 1490.12,47.2441 "/>
<polyline clip-path="url(#clip982)" style="stroke:#000000; stroke-linecap:round; stroke-linejoin:round; stroke-width:2; stroke-opacity:0.1; fill:none" points="1726.33,1423.18 1726.33,47.2441 "/>
<polyline clip-path="url(#clip982)" style="stroke:#000000; stroke-linecap:round; stroke-linejoin:round; stroke-width:2; stroke-opacity:0.1; fill:none" points="1962.54,1423.18 1962.54,47.2441 "/>
<polyline clip-path="url(#clip982)" style="stroke:#000000; stroke-linecap:round; stroke-linejoin:round; stroke-width:2; stroke-opacity:0.1; fill:none" points="2198.75,1423.18 2198.75,47.2441 "/>
<polyline clip-path="url(#clip982)" style="stroke:#000000; stroke-linecap:round; stroke-linejoin:round; stroke-width:2; stroke-opacity:0.1; fill:none" points="2352.76,1312.67 249.542,1312.67 "/>
<polyline clip-path="url(#clip982)" style="stroke:#000000; stroke-linecap:round; stroke-linejoin:round; stroke-width:2; stroke-opacity:0.1; fill:none" points="2352.76,932.851 249.542,932.851 "/>
<polyline clip-path="url(#clip982)" style="stroke:#000000; stroke-linecap:round; stroke-linejoin:round; stroke-width:2; stroke-opacity:0.1; fill:none" points="2352.76,553.036 249.542,553.036 "/>
<polyline clip-path="url(#clip982)" style="stroke:#000000; stroke-linecap:round; stroke-linejoin:round; stroke-width:2; stroke-opacity:0.1; fill:none" points="2352.76,173.22 249.542,173.22 "/>
<polyline clip-path="url(#clip980)" style="stroke:#000000; stroke-linecap:round; stroke-linejoin:round; stroke-width:4; stroke-opacity:1; fill:none" points="2352.76,1423.18 249.542,1423.18 "/>
<polyline clip-path="url(#clip980)" style="stroke:#000000; stroke-linecap:round; stroke-linejoin:round; stroke-width:4; stroke-opacity:1; fill:none" points="309.067,1423.18 309.067,1404.28 "/>
<polyline clip-path="url(#clip980)" style="stroke:#000000; stroke-linecap:round; stroke-linejoin:round; stroke-width:4; stroke-opacity:1; fill:none" points="545.277,1423.18 545.277,1404.28 "/>
<polyline clip-path="url(#clip980)" style="stroke:#000000; stroke-linecap:round; stroke-linejoin:round; stroke-width:4; stroke-opacity:1; fill:none" points="781.487,1423.18 781.487,1404.28 "/>
<polyline clip-path="url(#clip980)" style="stroke:#000000; stroke-linecap:round; stroke-linejoin:round; stroke-width:4; stroke-opacity:1; fill:none" points="1017.7,1423.18 1017.7,1404.28 "/>
<polyline clip-path="url(#clip980)" style="stroke:#000000; stroke-linecap:round; stroke-linejoin:round; stroke-width:4; stroke-opacity:1; fill:none" points="1253.91,1423.18 1253.91,1404.28 "/>
<polyline clip-path="url(#clip980)" style="stroke:#000000; stroke-linecap:round; stroke-linejoin:round; stroke-width:4; stroke-opacity:1; fill:none" points="1490.12,1423.18 1490.12,1404.28 "/>
<polyline clip-path="url(#clip980)" style="stroke:#000000; stroke-linecap:round; stroke-linejoin:round; stroke-width:4; stroke-opacity:1; fill:none" points="1726.33,1423.18 1726.33,1404.28 "/>
<polyline clip-path="url(#clip980)" style="stroke:#000000; stroke-linecap:round; stroke-linejoin:round; stroke-width:4; stroke-opacity:1; fill:none" points="1962.54,1423.18 1962.54,1404.28 "/>
<polyline clip-path="url(#clip980)" style="stroke:#000000; stroke-linecap:round; stroke-linejoin:round; stroke-width:4; stroke-opacity:1; fill:none" points="2198.75,1423.18 2198.75,1404.28 "/>
<path clip-path="url(#clip980)" d="M284.194 1484.86 L284.194 1480.6 Q285.954 1481.44 287.759 1481.88 Q289.565 1482.32 291.301 1482.32 Q295.93 1482.32 298.361 1479.21 Q300.815 1476.09 301.162 1469.75 Q299.819 1471.74 297.759 1472.8 Q295.699 1473.87 293.199 1473.87 Q288.014 1473.87 284.981 1470.74 Q281.972 1467.59 281.972 1462.15 Q281.972 1456.83 285.12 1453.61 Q288.268 1450.39 293.5 1450.39 Q299.495 1450.39 302.643 1455 Q305.815 1459.58 305.815 1468.33 Q305.815 1476.51 301.926 1481.39 Q298.06 1486.25 291.509 1486.25 Q289.75 1486.25 287.944 1485.9 Q286.139 1485.56 284.194 1484.86 M293.5 1470.21 Q296.648 1470.21 298.477 1468.06 Q300.329 1465.9 300.329 1462.15 Q300.329 1458.43 298.477 1456.27 Q296.648 1454.1 293.5 1454.1 Q290.352 1454.1 288.5 1456.27 Q286.671 1458.43 286.671 1462.15 Q286.671 1465.9 288.5 1468.06 Q290.352 1470.21 293.5 1470.21 Z" fill="#000000" fill-rule="nonzero" fill-opacity="1" /><path clip-path="url(#clip980)" d="M324.217 1454.1 Q320.606 1454.1 318.778 1457.66 Q316.972 1461.2 316.972 1468.33 Q316.972 1475.44 318.778 1479.01 Q320.606 1482.55 324.217 1482.55 Q327.852 1482.55 329.657 1479.01 Q331.486 1475.44 331.486 1468.33 Q331.486 1461.2 329.657 1457.66 Q327.852 1454.1 324.217 1454.1 M324.217 1450.39 Q330.027 1450.39 333.083 1455 Q336.162 1459.58 336.162 1468.33 Q336.162 1477.06 333.083 1481.67 Q330.027 1486.25 324.217 1486.25 Q318.407 1486.25 315.328 1481.67 Q312.273 1477.06 312.273 1468.33 Q312.273 1459.58 315.328 1455 Q318.407 1450.39 324.217 1450.39 Z" fill="#000000" fill-rule="nonzero" fill-opacity="1" /><path clip-path="url(#clip980)" d="M530.15 1469.17 Q526.816 1469.17 524.895 1470.95 Q522.997 1472.73 522.997 1475.86 Q522.997 1478.98 524.895 1480.77 Q526.816 1482.55 530.15 1482.55 Q533.483 1482.55 535.404 1480.77 Q537.326 1478.96 537.326 1475.86 Q537.326 1472.73 535.404 1470.95 Q533.506 1469.17 530.15 1469.17 M525.474 1467.18 Q522.465 1466.44 520.775 1464.38 Q519.108 1462.32 519.108 1459.35 Q519.108 1455.21 522.048 1452.8 Q525.011 1450.39 530.15 1450.39 Q535.312 1450.39 538.252 1452.8 Q541.191 1455.21 541.191 1459.35 Q541.191 1462.32 539.502 1464.38 Q537.835 1466.44 534.849 1467.18 Q538.228 1467.96 540.103 1470.26 Q542.002 1472.55 542.002 1475.86 Q542.002 1480.88 538.923 1483.57 Q535.867 1486.25 530.15 1486.25 Q524.432 1486.25 521.353 1483.57 Q518.298 1480.88 518.298 1475.86 Q518.298 1472.55 520.196 1470.26 Q522.094 1467.96 525.474 1467.18 M523.761 1459.79 Q523.761 1462.48 525.428 1463.98 Q527.117 1465.49 530.15 1465.49 Q533.159 1465.49 534.849 1463.98 Q536.562 1462.48 536.562 1459.79 Q536.562 1457.11 534.849 1455.6 Q533.159 1454.1 530.15 1454.1 Q527.117 1454.1 525.428 1455.6 Q523.761 1457.11 523.761 1459.79 Z" fill="#000000" fill-rule="nonzero" fill-opacity="1" /><path clip-path="url(#clip980)" d="M560.312 1454.1 Q556.701 1454.1 554.872 1457.66 Q553.066 1461.2 553.066 1468.33 Q553.066 1475.44 554.872 1479.01 Q556.701 1482.55 560.312 1482.55 Q563.946 1482.55 565.751 1479.01 Q567.58 1475.44 567.58 1468.33 Q567.58 1461.2 565.751 1457.66 Q563.946 1454.1 560.312 1454.1 M560.312 1450.39 Q566.122 1450.39 569.177 1455 Q572.256 1459.58 572.256 1468.33 Q572.256 1477.06 569.177 1481.67 Q566.122 1486.25 560.312 1486.25 Q554.501 1486.25 551.423 1481.67 Q548.367 1477.06 548.367 1468.33 Q548.367 1459.58 551.423 1455 Q554.501 1450.39 560.312 1450.39 Z" fill="#000000" fill-rule="nonzero" fill-opacity="1" /><path clip-path="url(#clip980)" d="M754.844 1451.02 L777.066 1451.02 L777.066 1453.01 L764.519 1485.58 L759.635 1485.58 L771.441 1454.96 L754.844 1454.96 L754.844 1451.02 Z" fill="#000000" fill-rule="nonzero" fill-opacity="1" /><path clip-path="url(#clip980)" d="M796.186 1454.1 Q792.575 1454.1 790.746 1457.66 Q788.941 1461.2 788.941 1468.33 Q788.941 1475.44 790.746 1479.01 Q792.575 1482.55 796.186 1482.55 Q799.82 1482.55 801.626 1479.01 Q803.454 1475.44 803.454 1468.33 Q803.454 1461.2 801.626 1457.66 Q799.82 1454.1 796.186 1454.1 M796.186 1450.39 Q801.996 1450.39 805.052 1455 Q808.13 1459.58 808.13 1468.33 Q808.13 1477.06 805.052 1481.67 Q801.996 1486.25 796.186 1486.25 Q790.376 1486.25 787.297 1481.67 Q784.242 1477.06 784.242 1468.33 Q784.242 1459.58 787.297 1455 Q790.376 1450.39 796.186 1450.39 Z" fill="#000000" fill-rule="nonzero" fill-opacity="1" /><path clip-path="url(#clip980)" d="M1003.1 1466.44 Q999.954 1466.44 998.102 1468.59 Q996.273 1470.74 996.273 1474.49 Q996.273 1478.22 998.102 1480.39 Q999.954 1482.55 1003.1 1482.55 Q1006.25 1482.55 1008.08 1480.39 Q1009.93 1478.22 1009.93 1474.49 Q1009.93 1470.74 1008.08 1468.59 Q1006.25 1466.44 1003.1 1466.44 M1012.38 1451.78 L1012.38 1456.04 Q1010.63 1455.21 1008.82 1454.77 Q1007.04 1454.33 1005.28 1454.33 Q1000.65 1454.33 998.195 1457.45 Q995.764 1460.58 995.417 1466.9 Q996.783 1464.89 998.843 1463.82 Q1000.9 1462.73 1003.38 1462.73 Q1008.59 1462.73 1011.6 1465.9 Q1014.63 1469.05 1014.63 1474.49 Q1014.63 1479.82 1011.48 1483.03 Q1008.33 1486.25 1003.1 1486.25 Q997.107 1486.25 993.936 1481.67 Q990.764 1477.06 990.764 1468.33 Q990.764 1460.14 994.653 1455.28 Q998.542 1450.39 1005.09 1450.39 Q1006.85 1450.39 1008.63 1450.74 Q1010.44 1451.09 1012.38 1451.78 Z" fill="#000000" fill-rule="nonzero" fill-opacity="1" /><path clip-path="url(#clip980)" d="M1032.69 1454.1 Q1029.07 1454.1 1027.25 1457.66 Q1025.44 1461.2 1025.44 1468.33 Q1025.44 1475.44 1027.25 1479.01 Q1029.07 1482.55 1032.69 1482.55 Q1036.32 1482.55 1038.13 1479.01 Q1039.95 1475.44 1039.95 1468.33 Q1039.95 1461.2 1038.13 1457.66 Q1036.32 1454.1 1032.69 1454.1 M1032.69 1450.39 Q1038.5 1450.39 1041.55 1455 Q1044.63 1459.58 1044.63 1468.33 Q1044.63 1477.06 1041.55 1481.67 Q1038.5 1486.25 1032.69 1486.25 Q1026.88 1486.25 1023.8 1481.67 Q1020.74 1477.06 1020.74 1468.33 Q1020.74 1459.58 1023.8 1455 Q1026.88 1450.39 1032.69 1450.39 Z" fill="#000000" fill-rule="nonzero" fill-opacity="1" /><path clip-path="url(#clip980)" d="M1228.61 1451.02 L1246.96 1451.02 L1246.96 1454.96 L1232.89 1454.96 L1232.89 1463.43 Q1233.91 1463.08 1234.93 1462.92 Q1235.94 1462.73 1236.96 1462.73 Q1242.75 1462.73 1246.13 1465.9 Q1249.51 1469.08 1249.51 1474.49 Q1249.51 1480.07 1246.04 1483.17 Q1242.56 1486.25 1236.25 1486.25 Q1234.07 1486.25 1231.8 1485.88 Q1229.56 1485.51 1227.15 1484.77 L1227.15 1480.07 Q1229.23 1481.2 1231.45 1481.76 Q1233.68 1482.32 1236.15 1482.32 Q1240.16 1482.32 1242.49 1480.21 Q1244.83 1478.1 1244.83 1474.49 Q1244.83 1470.88 1242.49 1468.77 Q1240.16 1466.67 1236.15 1466.67 Q1234.28 1466.67 1232.4 1467.08 Q1230.55 1467.5 1228.61 1468.38 L1228.61 1451.02 Z" fill="#000000" fill-rule="nonzero" fill-opacity="1" /><path clip-path="url(#clip980)" d="M1268.72 1454.1 Q1265.11 1454.1 1263.28 1457.66 Q1261.48 1461.2 1261.48 1468.33 Q1261.48 1475.44 1263.28 1479.01 Q1265.11 1482.55 1268.72 1482.55 Q1272.36 1482.55 1274.16 1479.01 Q1275.99 1475.44 1275.99 1468.33 Q1275.99 1461.2 1274.16 1457.66 Q1272.36 1454.1 1268.72 1454.1 M1268.72 1450.39 Q1274.53 1450.39 1277.59 1455 Q1280.67 1459.58 1280.67 1468.33 Q1280.67 1477.06 1277.59 1481.67 Q1274.53 1486.25 1268.72 1486.25 Q1262.91 1486.25 1259.83 1481.67 Q1256.78 1477.06 1256.78 1468.33 Q1256.78 1459.58 1259.83 1455 Q1262.91 1450.39 1268.72 1450.39 Z" fill="#000000" fill-rule="nonzero" fill-opacity="1" /><path clip-path="url(#clip980)" d="M1478.29 1455.09 L1466.48 1473.54 L1478.29 1473.54 L1478.29 1455.09 M1477.06 1451.02 L1482.94 1451.02 L1482.94 1473.54 L1487.87 1473.54 L1487.87 1477.43 L1482.94 1477.43 L1482.94 1485.58 L1478.29 1485.58 L1478.29 1477.43 L1462.69 1477.43 L1462.69 1472.92 L1477.06 1451.02 Z" fill="#000000" fill-rule="nonzero" fill-opacity="1" /><path clip-path="url(#clip980)" d="M1505.6 1454.1 Q1501.99 1454.1 1500.16 1457.66 Q1498.36 1461.2 1498.36 1468.33 Q1498.36 1475.44 1500.16 1479.01 Q1501.99 1482.55 1505.6 1482.55 Q1509.24 1482.55 1511.04 1479.01 Q1512.87 1475.44 1512.87 1468.33 Q1512.87 1461.2 1511.04 1457.66 Q1509.24 1454.1 1505.6 1454.1 M1505.6 1450.39 Q1511.41 1450.39 1514.47 1455 Q1517.55 1459.58 1517.55 1468.33 Q1517.55 1477.06 1514.47 1481.67 Q1511.41 1486.25 1505.6 1486.25 Q1499.79 1486.25 1496.71 1481.67 Q1493.66 1477.06 1493.66 1468.33 Q1493.66 1459.58 1496.71 1455 Q1499.79 1450.39 1505.6 1450.39 Z" fill="#000000" fill-rule="nonzero" fill-opacity="1" /><path clip-path="url(#clip980)" d="M1715.17 1466.95 Q1718.53 1467.66 1720.4 1469.93 Q1722.3 1472.2 1722.3 1475.53 Q1722.3 1480.65 1718.78 1483.45 Q1715.26 1486.25 1708.78 1486.25 Q1706.6 1486.25 1704.29 1485.81 Q1702 1485.39 1699.54 1484.54 L1699.54 1480.02 Q1701.49 1481.16 1703.8 1481.74 Q1706.12 1482.32 1708.64 1482.32 Q1713.04 1482.32 1715.33 1480.58 Q1717.65 1478.84 1717.65 1475.53 Q1717.65 1472.48 1715.49 1470.77 Q1713.36 1469.03 1709.54 1469.03 L1705.52 1469.03 L1705.52 1465.19 L1709.73 1465.19 Q1713.18 1465.19 1715.01 1463.82 Q1716.84 1462.43 1716.84 1459.84 Q1716.84 1457.18 1714.94 1455.77 Q1713.06 1454.33 1709.54 1454.33 Q1707.62 1454.33 1705.42 1454.75 Q1703.23 1455.16 1700.59 1456.04 L1700.59 1451.88 Q1703.25 1451.14 1705.56 1450.77 Q1707.9 1450.39 1709.96 1450.39 Q1715.29 1450.39 1718.39 1452.83 Q1721.49 1455.23 1721.49 1459.35 Q1721.49 1462.22 1719.85 1464.21 Q1718.2 1466.18 1715.17 1466.95 Z" fill="#000000" fill-rule="nonzero" fill-opacity="1" /><path clip-path="url(#clip980)" d="M1741.16 1454.1 Q1737.55 1454.1 1735.73 1457.66 Q1733.92 1461.2 1733.92 1468.33 Q1733.92 1475.44 1735.73 1479.01 Q1737.55 1482.55 1741.16 1482.55 Q1744.8 1482.55 1746.6 1479.01 Q1748.43 1475.44 1748.43 1468.33 Q1748.43 1461.2 1746.6 1457.66 Q1744.8 1454.1 1741.16 1454.1 M1741.16 1450.39 Q1746.98 1450.39 1750.03 1455 Q1753.11 1459.58 1753.11 1468.33 Q1753.11 1477.06 1750.03 1481.67 Q1746.98 1486.25 1741.16 1486.25 Q1735.35 1486.25 1732.28 1481.67 Q1729.22 1477.06 1729.22 1468.33 Q1729.22 1459.58 1732.28 1455 Q1735.35 1450.39 1741.16 1450.39 Z" fill="#000000" fill-rule="nonzero" fill-opacity="1" /><path clip-path="url(#clip980)" d="M1941.31 1481.64 L1957.63 1481.64 L1957.63 1485.58 L1935.69 1485.58 L1935.69 1481.64 Q1938.35 1478.89 1942.93 1474.26 Q1947.54 1469.61 1948.72 1468.27 Q1950.96 1465.74 1951.84 1464.01 Q1952.75 1462.25 1952.75 1460.56 Q1952.75 1457.8 1950.8 1456.07 Q1948.88 1454.33 1945.78 1454.33 Q1943.58 1454.33 1941.13 1455.09 Q1938.69 1455.86 1935.92 1457.41 L1935.92 1452.69 Q1938.74 1451.55 1941.19 1450.97 Q1943.65 1450.39 1945.69 1450.39 Q1951.06 1450.39 1954.25 1453.08 Q1957.44 1455.77 1957.44 1460.26 Q1957.44 1462.39 1956.63 1464.31 Q1955.85 1466.2 1953.74 1468.8 Q1953.16 1469.47 1950.06 1472.69 Q1946.96 1475.88 1941.31 1481.64 Z" fill="#000000" fill-rule="nonzero" fill-opacity="1" /><path clip-path="url(#clip980)" d="M1977.44 1454.1 Q1973.83 1454.1 1972 1457.66 Q1970.2 1461.2 1970.2 1468.33 Q1970.2 1475.44 1972 1479.01 Q1973.83 1482.55 1977.44 1482.55 Q1981.08 1482.55 1982.88 1479.01 Q1984.71 1475.44 1984.71 1468.33 Q1984.71 1461.2 1982.88 1457.66 Q1981.08 1454.1 1977.44 1454.1 M1977.44 1450.39 Q1983.25 1450.39 1986.31 1455 Q1989.39 1459.58 1989.39 1468.33 Q1989.39 1477.06 1986.31 1481.67 Q1983.25 1486.25 1977.44 1486.25 Q1971.63 1486.25 1968.56 1481.67 Q1965.5 1477.06 1965.5 1468.33 Q1965.5 1459.58 1968.56 1455 Q1971.63 1450.39 1977.44 1450.39 Z" fill="#000000" fill-rule="nonzero" fill-opacity="1" /><path clip-path="url(#clip980)" d="M2173.43 1481.64 L2181.07 1481.64 L2181.07 1455.28 L2172.76 1456.95 L2172.76 1452.69 L2181.03 1451.02 L2185.7 1451.02 L2185.7 1481.64 L2193.34 1481.64 L2193.34 1485.58 L2173.43 1485.58 L2173.43 1481.64 Z" fill="#000000" fill-rule="nonzero" fill-opacity="1" /><path clip-path="url(#clip980)" d="M2212.79 1454.1 Q2209.18 1454.1 2207.35 1457.66 Q2205.54 1461.2 2205.54 1468.33 Q2205.54 1475.44 2207.35 1479.01 Q2209.18 1482.55 2212.79 1482.55 Q2216.42 1482.55 2218.23 1479.01 Q2220.05 1475.44 2220.05 1468.33 Q2220.05 1461.2 2218.23 1457.66 Q2216.42 1454.1 2212.79 1454.1 M2212.79 1450.39 Q2218.6 1450.39 2221.65 1455 Q2224.73 1459.58 2224.73 1468.33 Q2224.73 1477.06 2221.65 1481.67 Q2218.6 1486.25 2212.79 1486.25 Q2206.98 1486.25 2203.9 1481.67 Q2200.84 1477.06 2200.84 1468.33 Q2200.84 1459.58 2203.9 1455 Q2206.98 1450.39 2212.79 1450.39 Z" fill="#000000" fill-rule="nonzero" fill-opacity="1" /><path clip-path="url(#clip980)" d="M1099.44 1547.13 Q1096.67 1547.13 1095.08 1549.49 Q1093.52 1551.84 1093.52 1556.04 Q1093.52 1560.18 1095.08 1562.57 Q1096.67 1564.92 1099.44 1564.92 Q1102.14 1564.92 1103.7 1562.57 Q1105.29 1560.18 1105.29 1556.04 Q1105.29 1551.87 1103.7 1549.52 Q1102.14 1547.13 1099.44 1547.13 M1099.44 1543.09 Q1104.46 1543.09 1107.42 1546.59 Q1110.38 1550.09 1110.38 1556.04 Q1110.38 1562 1107.39 1565.5 Q1104.43 1568.97 1099.44 1568.97 Q1094.34 1568.97 1091.38 1565.5 Q1088.42 1562 1088.42 1556.04 Q1088.42 1550.06 1091.38 1546.59 Q1094.37 1543.09 1099.44 1543.09 M1066.59 1523.71 Q1063.85 1523.71 1062.26 1526.09 Q1060.7 1528.45 1060.7 1532.59 Q1060.7 1536.79 1062.26 1539.14 Q1063.82 1541.5 1066.59 1541.5 Q1069.36 1541.5 1070.92 1539.14 Q1072.51 1536.79 1072.51 1532.59 Q1072.51 1528.48 1070.92 1526.09 Q1069.33 1523.71 1066.59 1523.71 M1095.33 1519.66 L1100.42 1519.66 L1070.69 1568.97 L1065.6 1568.97 L1095.33 1519.66 M1066.59 1519.66 Q1071.62 1519.66 1074.61 1523.17 Q1077.6 1526.63 1077.6 1532.59 Q1077.6 1538.6 1074.61 1542.07 Q1071.65 1545.54 1066.59 1545.54 Q1061.53 1545.54 1058.57 1542.07 Q1055.64 1538.57 1055.64 1532.59 Q1055.64 1526.67 1058.6 1523.17 Q1061.56 1519.66 1066.59 1519.66 Z" fill="#000000" fill-rule="nonzero" fill-opacity="1" /><path clip-path="url(#clip980)" d="M1168.6 1539.24 Q1170.8 1535.29 1173.85 1533.41 Q1176.91 1531.54 1181.04 1531.54 Q1186.61 1531.54 1189.64 1535.45 Q1192.66 1539.33 1192.66 1546.53 L1192.66 1568.04 L1186.77 1568.04 L1186.77 1546.72 Q1186.77 1541.59 1184.96 1539.11 Q1183.14 1536.63 1179.42 1536.63 Q1174.87 1536.63 1172.23 1539.65 Q1169.59 1542.68 1169.59 1547.9 L1169.59 1568.04 L1163.7 1568.04 L1163.7 1546.72 Q1163.7 1541.56 1161.88 1539.11 Q1160.07 1536.63 1156.28 1536.63 Q1151.79 1536.63 1149.15 1539.68 Q1146.51 1542.71 1146.51 1547.9 L1146.51 1568.04 L1140.62 1568.04 L1140.62 1532.4 L1146.51 1532.4 L1146.51 1537.93 Q1148.52 1534.66 1151.32 1533.1 Q1154.12 1531.54 1157.97 1531.54 Q1161.85 1531.54 1164.56 1533.51 Q1167.29 1535.48 1168.6 1539.24 Z" fill="#000000" fill-rule="nonzero" fill-opacity="1" /><path clip-path="url(#clip980)" d="M1204.34 1532.4 L1210.2 1532.4 L1210.2 1568.04 L1204.34 1568.04 L1204.34 1532.4 M1204.34 1518.52 L1210.2 1518.52 L1210.2 1525.93 L1204.34 1525.93 L1204.34 1518.52 Z" fill="#000000" fill-rule="nonzero" fill-opacity="1" /><path clip-path="url(#clip980)" d="M1245.18 1533.45 L1245.18 1538.98 Q1242.7 1537.71 1240.02 1537.07 Q1237.35 1536.44 1234.48 1536.44 Q1230.12 1536.44 1227.93 1537.77 Q1225.76 1539.11 1225.76 1541.79 Q1225.76 1543.82 1227.32 1545 Q1228.88 1546.15 1233.59 1547.2 L1235.6 1547.64 Q1241.84 1548.98 1244.45 1551.43 Q1247.09 1553.85 1247.09 1558.21 Q1247.09 1563.17 1243.14 1566.07 Q1239.23 1568.97 1232.35 1568.97 Q1229.49 1568.97 1226.37 1568.39 Q1223.28 1567.85 1219.84 1566.74 L1219.84 1560.69 Q1223.09 1562.38 1226.24 1563.24 Q1229.39 1564.07 1232.48 1564.07 Q1236.62 1564.07 1238.84 1562.66 Q1241.07 1561.23 1241.07 1558.65 Q1241.07 1556.27 1239.45 1554.99 Q1237.86 1553.72 1232.42 1552.54 L1230.38 1552.07 Q1224.94 1550.92 1222.52 1548.56 Q1220.1 1546.18 1220.1 1542.04 Q1220.1 1537.01 1223.66 1534.27 Q1227.23 1531.54 1233.78 1531.54 Q1237.03 1531.54 1239.89 1532.01 Q1242.76 1532.49 1245.18 1533.45 Z" fill="#000000" fill-rule="nonzero" fill-opacity="1" /><path clip-path="url(#clip980)" d="M1279.14 1533.45 L1279.14 1538.98 Q1276.66 1537.71 1273.98 1537.07 Q1271.31 1536.44 1268.45 1536.44 Q1264.08 1536.44 1261.89 1537.77 Q1259.72 1539.11 1259.72 1541.79 Q1259.72 1543.82 1261.28 1545 Q1262.84 1546.15 1267.55 1547.2 L1269.56 1547.64 Q1275.8 1548.98 1278.41 1551.43 Q1281.05 1553.85 1281.05 1558.21 Q1281.05 1563.17 1277.1 1566.07 Q1273.19 1568.97 1266.31 1568.97 Q1263.45 1568.97 1260.33 1568.39 Q1257.24 1567.85 1253.8 1566.74 L1253.8 1560.69 Q1257.05 1562.38 1260.2 1563.24 Q1263.35 1564.07 1266.44 1564.07 Q1270.58 1564.07 1272.81 1562.66 Q1275.03 1561.23 1275.03 1558.65 Q1275.03 1556.27 1273.41 1554.99 Q1271.82 1553.72 1266.38 1552.54 L1264.34 1552.07 Q1258.9 1550.92 1256.48 1548.56 Q1254.06 1546.18 1254.06 1542.04 Q1254.06 1537.01 1257.62 1534.27 Q1261.19 1531.54 1267.74 1531.54 Q1270.99 1531.54 1273.86 1532.01 Q1276.72 1532.49 1279.14 1533.45 Z" fill="#000000" fill-rule="nonzero" fill-opacity="1" /><path clip-path="url(#clip980)" d="M1290.38 1532.4 L1296.23 1532.4 L1296.23 1568.04 L1290.38 1568.04 L1290.38 1532.4 M1290.38 1518.52 L1296.23 1518.52 L1296.23 1525.93 L1290.38 1525.93 L1290.38 1518.52 Z" fill="#000000" fill-rule="nonzero" fill-opacity="1" /><path clip-path="url(#clip980)" d="M1338.12 1546.53 L1338.12 1568.04 L1332.26 1568.04 L1332.26 1546.72 Q1332.26 1541.66 1330.29 1539.14 Q1328.31 1536.63 1324.37 1536.63 Q1319.63 1536.63 1316.89 1539.65 Q1314.15 1542.68 1314.15 1547.9 L1314.15 1568.04 L1308.26 1568.04 L1308.26 1532.4 L1314.15 1532.4 L1314.15 1537.93 Q1316.25 1534.72 1319.08 1533.13 Q1321.95 1531.54 1325.67 1531.54 Q1331.82 1531.54 1334.97 1535.36 Q1338.12 1539.14 1338.12 1546.53 Z" fill="#000000" fill-rule="nonzero" fill-opacity="1" /><path clip-path="url(#clip980)" d="M1373.26 1549.81 Q1373.26 1543.44 1370.61 1539.94 Q1368 1536.44 1363.26 1536.44 Q1358.55 1536.44 1355.91 1539.94 Q1353.3 1543.44 1353.3 1549.81 Q1353.3 1556.14 1355.91 1559.64 Q1358.55 1563.14 1363.26 1563.14 Q1368 1563.14 1370.61 1559.64 Q1373.26 1556.14 1373.26 1549.81 M1379.11 1563.62 Q1379.11 1572.72 1375.07 1577.15 Q1371.03 1581.6 1362.69 1581.6 Q1359.6 1581.6 1356.86 1581.13 Q1354.13 1580.68 1351.55 1579.72 L1351.55 1574.03 Q1354.13 1575.43 1356.64 1576.1 Q1359.16 1576.76 1361.77 1576.76 Q1367.53 1576.76 1370.39 1573.74 Q1373.26 1570.75 1373.26 1564.67 L1373.26 1561.77 Q1371.44 1564.92 1368.61 1566.48 Q1365.78 1568.04 1361.83 1568.04 Q1355.27 1568.04 1351.26 1563.05 Q1347.25 1558.05 1347.25 1549.81 Q1347.25 1541.53 1351.26 1536.53 Q1355.27 1531.54 1361.83 1531.54 Q1365.78 1531.54 1368.61 1533.1 Q1371.44 1534.66 1373.26 1537.81 L1373.26 1532.4 L1379.11 1532.4 L1379.11 1563.62 Z" fill="#000000" fill-rule="nonzero" fill-opacity="1" /><path clip-path="url(#clip980)" d="M1435.35 1537.81 L1435.35 1518.52 L1441.21 1518.52 L1441.21 1568.04 L1435.35 1568.04 L1435.35 1562.7 Q1433.51 1565.88 1430.68 1567.44 Q1427.87 1568.97 1423.93 1568.97 Q1417.47 1568.97 1413.39 1563.81 Q1409.35 1558.65 1409.35 1550.25 Q1409.35 1541.85 1413.39 1536.69 Q1417.47 1531.54 1423.93 1531.54 Q1427.87 1531.54 1430.68 1533.1 Q1433.51 1534.62 1435.35 1537.81 M1415.4 1550.25 Q1415.4 1556.71 1418.04 1560.4 Q1420.71 1564.07 1425.36 1564.07 Q1430.01 1564.07 1432.68 1560.4 Q1435.35 1556.71 1435.35 1550.25 Q1435.35 1543.79 1432.68 1540.13 Q1430.01 1536.44 1425.36 1536.44 Q1420.71 1536.44 1418.04 1540.13 Q1415.4 1543.79 1415.4 1550.25 Z" fill="#000000" fill-rule="nonzero" fill-opacity="1" /><path clip-path="url(#clip980)" d="M1469.47 1550.12 Q1462.38 1550.12 1459.64 1551.75 Q1456.9 1553.37 1456.9 1557.29 Q1456.9 1560.4 1458.94 1562.25 Q1461.01 1564.07 1464.54 1564.07 Q1469.41 1564.07 1472.34 1560.63 Q1475.3 1557.16 1475.3 1551.43 L1475.3 1550.12 L1469.47 1550.12 M1481.16 1547.71 L1481.16 1568.04 L1475.3 1568.04 L1475.3 1562.63 Q1473.29 1565.88 1470.3 1567.44 Q1467.31 1568.97 1462.98 1568.97 Q1457.51 1568.97 1454.26 1565.91 Q1451.05 1562.82 1451.05 1557.67 Q1451.05 1551.65 1455.06 1548.6 Q1459.1 1545.54 1467.09 1545.54 L1475.3 1545.54 L1475.3 1544.97 Q1475.3 1540.93 1472.63 1538.73 Q1469.98 1536.5 1465.18 1536.5 Q1462.12 1536.5 1459.23 1537.23 Q1456.33 1537.97 1453.66 1539.43 L1453.66 1534.02 Q1456.87 1532.78 1459.89 1532.17 Q1462.92 1531.54 1465.78 1531.54 Q1473.52 1531.54 1477.34 1535.55 Q1481.16 1539.56 1481.16 1547.71 Z" fill="#000000" fill-rule="nonzero" fill-opacity="1" /><path clip-path="url(#clip980)" d="M1499.01 1522.27 L1499.01 1532.4 L1511.07 1532.4 L1511.07 1536.95 L1499.01 1536.95 L1499.01 1556.3 Q1499.01 1560.66 1500.19 1561.9 Q1501.4 1563.14 1505.06 1563.14 L1511.07 1563.14 L1511.07 1568.04 L1505.06 1568.04 Q1498.28 1568.04 1495.7 1565.53 Q1493.12 1562.98 1493.12 1556.3 L1493.12 1536.95 L1488.83 1536.95 L1488.83 1532.4 L1493.12 1532.4 L1493.12 1522.27 L1499.01 1522.27 Z" fill="#000000" fill-rule="nonzero" fill-opacity="1" /><path clip-path="url(#clip980)" d="M1534.98 1550.12 Q1527.88 1550.12 1525.14 1551.75 Q1522.41 1553.37 1522.41 1557.29 Q1522.41 1560.4 1524.44 1562.25 Q1526.51 1564.07 1530.04 1564.07 Q1534.91 1564.07 1537.84 1560.63 Q1540.8 1557.16 1540.8 1551.43 L1540.8 1550.12 L1534.98 1550.12 M1546.66 1547.71 L1546.66 1568.04 L1540.8 1568.04 L1540.8 1562.63 Q1538.8 1565.88 1535.8 1567.44 Q1532.81 1568.97 1528.48 1568.97 Q1523.01 1568.97 1519.76 1565.91 Q1516.55 1562.82 1516.55 1557.67 Q1516.55 1551.65 1520.56 1548.6 Q1524.6 1545.54 1532.59 1545.54 L1540.8 1545.54 L1540.8 1544.97 Q1540.8 1540.93 1538.13 1538.73 Q1535.49 1536.5 1530.68 1536.5 Q1527.62 1536.5 1524.73 1537.23 Q1521.83 1537.97 1519.16 1539.43 L1519.16 1534.02 Q1522.37 1532.78 1525.4 1532.17 Q1528.42 1531.54 1531.29 1531.54 Q1539.02 1531.54 1542.84 1535.55 Q1546.66 1539.56 1546.66 1547.71 Z" fill="#000000" fill-rule="nonzero" fill-opacity="1" /><polyline clip-path="url(#clip980)" style="stroke:#000000; stroke-linecap:round; stroke-linejoin:round; stroke-width:4; stroke-opacity:1; fill:none" points="249.542,1423.18 249.542,47.2441 "/>
<polyline clip-path="url(#clip980)" style="stroke:#000000; stroke-linecap:round; stroke-linejoin:round; stroke-width:4; stroke-opacity:1; fill:none" points="249.542,1312.67 268.44,1312.67 "/>
<polyline clip-path="url(#clip980)" style="stroke:#000000; stroke-linecap:round; stroke-linejoin:round; stroke-width:4; stroke-opacity:1; fill:none" points="249.542,932.851 268.44,932.851 "/>
<polyline clip-path="url(#clip980)" style="stroke:#000000; stroke-linecap:round; stroke-linejoin:round; stroke-width:4; stroke-opacity:1; fill:none" points="249.542,553.036 268.44,553.036 "/>
<polyline clip-path="url(#clip980)" style="stroke:#000000; stroke-linecap:round; stroke-linejoin:round; stroke-width:4; stroke-opacity:1; fill:none" points="249.542,173.22 268.44,173.22 "/>
<path clip-path="url(#clip980)" d="M126.39 1298.46 Q122.779 1298.46 120.95 1302.03 Q119.144 1305.57 119.144 1312.7 Q119.144 1319.81 120.95 1323.37 Q122.779 1326.91 126.39 1326.91 Q130.024 1326.91 131.83 1323.37 Q133.658 1319.81 133.658 1312.7 Q133.658 1305.57 131.83 1302.03 Q130.024 1298.46 126.39 1298.46 M126.39 1294.76 Q132.2 1294.76 135.255 1299.37 Q138.334 1303.95 138.334 1312.7 Q138.334 1321.43 135.255 1326.03 Q132.2 1330.62 126.39 1330.62 Q120.58 1330.62 117.501 1326.03 Q114.445 1321.43 114.445 1312.7 Q114.445 1303.95 117.501 1299.37 Q120.58 1294.76 126.39 1294.76 Z" fill="#000000" fill-rule="nonzero" fill-opacity="1" /><path clip-path="url(#clip980)" d="M146.552 1324.07 L151.436 1324.07 L151.436 1329.95 L146.552 1329.95 L146.552 1324.07 Z" fill="#000000" fill-rule="nonzero" fill-opacity="1" /><path clip-path="url(#clip980)" d="M171.621 1298.46 Q168.01 1298.46 166.181 1302.03 Q164.376 1305.57 164.376 1312.7 Q164.376 1319.81 166.181 1323.37 Q168.01 1326.91 171.621 1326.91 Q175.255 1326.91 177.061 1323.37 Q178.889 1319.81 178.889 1312.7 Q178.889 1305.57 177.061 1302.03 Q175.255 1298.46 171.621 1298.46 M171.621 1294.76 Q177.431 1294.76 180.487 1299.37 Q183.565 1303.95 183.565 1312.7 Q183.565 1321.43 180.487 1326.03 Q177.431 1330.62 171.621 1330.62 Q165.811 1330.62 162.732 1326.03 Q159.677 1321.43 159.677 1312.7 Q159.677 1303.95 162.732 1299.37 Q165.811 1294.76 171.621 1294.76 Z" fill="#000000" fill-rule="nonzero" fill-opacity="1" /><path clip-path="url(#clip980)" d="M191.922 1329.23 L191.922 1324.97 Q193.681 1325.8 195.487 1326.24 Q197.292 1326.68 199.028 1326.68 Q203.658 1326.68 206.088 1323.58 Q208.542 1320.46 208.889 1314.11 Q207.547 1316.1 205.487 1317.17 Q203.426 1318.23 200.926 1318.23 Q195.741 1318.23 192.709 1315.11 Q189.7 1311.96 189.7 1306.52 Q189.7 1301.2 192.848 1297.98 Q195.996 1294.76 201.227 1294.76 Q207.223 1294.76 210.371 1299.37 Q213.542 1303.95 213.542 1312.7 Q213.542 1320.87 209.653 1325.76 Q205.787 1330.62 199.237 1330.62 Q197.477 1330.62 195.672 1330.27 Q193.866 1329.92 191.922 1329.23 M201.227 1314.58 Q204.375 1314.58 206.204 1312.42 Q208.056 1310.27 208.056 1306.52 Q208.056 1302.79 206.204 1300.64 Q204.375 1298.46 201.227 1298.46 Q198.079 1298.46 196.227 1300.64 Q194.399 1302.79 194.399 1306.52 Q194.399 1310.27 196.227 1312.42 Q198.079 1314.58 201.227 1314.58 Z" fill="#000000" fill-rule="nonzero" fill-opacity="1" /><path clip-path="url(#clip980)" d="M126.205 918.65 Q122.593 918.65 120.765 922.214 Q118.959 925.756 118.959 932.886 Q118.959 939.992 120.765 943.557 Q122.593 947.098 126.205 947.098 Q129.839 947.098 131.644 943.557 Q133.473 939.992 133.473 932.886 Q133.473 925.756 131.644 922.214 Q129.839 918.65 126.205 918.65 M126.205 914.946 Q132.015 914.946 135.07 919.552 Q138.149 924.136 138.149 932.886 Q138.149 941.612 135.07 946.219 Q132.015 950.802 126.205 950.802 Q120.394 950.802 117.316 946.219 Q114.26 941.612 114.26 932.886 Q114.26 924.136 117.316 919.552 Q120.394 914.946 126.205 914.946 Z" fill="#000000" fill-rule="nonzero" fill-opacity="1" /><path clip-path="url(#clip980)" d="M146.366 944.251 L151.251 944.251 L151.251 950.131 L146.366 950.131 L146.366 944.251 Z" fill="#000000" fill-rule="nonzero" fill-opacity="1" /><path clip-path="url(#clip980)" d="M162.246 946.196 L169.885 946.196 L169.885 919.83 L161.575 921.497 L161.575 917.238 L169.839 915.571 L174.514 915.571 L174.514 946.196 L182.153 946.196 L182.153 950.131 L162.246 950.131 L162.246 946.196 Z" fill="#000000" fill-rule="nonzero" fill-opacity="1" /><path clip-path="url(#clip980)" d="M201.598 918.65 Q197.987 918.65 196.158 922.214 Q194.352 925.756 194.352 932.886 Q194.352 939.992 196.158 943.557 Q197.987 947.098 201.598 947.098 Q205.232 947.098 207.037 943.557 Q208.866 939.992 208.866 932.886 Q208.866 925.756 207.037 922.214 Q205.232 918.65 201.598 918.65 M201.598 914.946 Q207.408 914.946 210.463 919.552 Q213.542 924.136 213.542 932.886 Q213.542 941.612 210.463 946.219 Q207.408 950.802 201.598 950.802 Q195.787 950.802 192.709 946.219 Q189.653 941.612 189.653 932.886 Q189.653 924.136 192.709 919.552 Q195.787 914.946 201.598 914.946 Z" fill="#000000" fill-rule="nonzero" fill-opacity="1" /><path clip-path="url(#clip980)" d="M127.431 538.834 Q123.82 538.834 121.992 542.399 Q120.186 545.941 120.186 553.07 Q120.186 560.177 121.992 563.741 Q123.82 567.283 127.431 567.283 Q131.066 567.283 132.871 563.741 Q134.7 560.177 134.7 553.07 Q134.7 545.941 132.871 542.399 Q131.066 538.834 127.431 538.834 M127.431 535.131 Q133.242 535.131 136.297 539.737 Q139.376 544.32 139.376 553.07 Q139.376 561.797 136.297 566.404 Q133.242 570.987 127.431 570.987 Q121.621 570.987 118.543 566.404 Q115.487 561.797 115.487 553.07 Q115.487 544.32 118.543 539.737 Q121.621 535.131 127.431 535.131 Z" fill="#000000" fill-rule="nonzero" fill-opacity="1" /><path clip-path="url(#clip980)" d="M147.593 564.436 L152.478 564.436 L152.478 570.316 L147.593 570.316 L147.593 564.436 Z" fill="#000000" fill-rule="nonzero" fill-opacity="1" /><path clip-path="url(#clip980)" d="M163.473 566.38 L171.112 566.38 L171.112 540.015 L162.802 541.681 L162.802 537.422 L171.065 535.756 L175.741 535.756 L175.741 566.38 L183.38 566.38 L183.38 570.316 L163.473 570.316 L163.473 566.38 Z" fill="#000000" fill-rule="nonzero" fill-opacity="1" /><path clip-path="url(#clip980)" d="M193.635 566.38 L201.274 566.38 L201.274 540.015 L192.963 541.681 L192.963 537.422 L201.227 535.756 L205.903 535.756 L205.903 566.38 L213.542 566.38 L213.542 570.316 L193.635 570.316 L193.635 566.38 Z" fill="#000000" fill-rule="nonzero" fill-opacity="1" /><path clip-path="url(#clip980)" d="M127.802 159.019 Q124.191 159.019 122.362 162.584 Q120.556 166.125 120.556 173.255 Q120.556 180.361 122.362 183.926 Q124.191 187.468 127.802 187.468 Q131.436 187.468 133.242 183.926 Q135.07 180.361 135.07 173.255 Q135.07 166.125 133.242 162.584 Q131.436 159.019 127.802 159.019 M127.802 155.315 Q133.612 155.315 136.667 159.922 Q139.746 164.505 139.746 173.255 Q139.746 181.982 136.667 186.588 Q133.612 191.171 127.802 191.171 Q121.992 191.171 118.913 186.588 Q115.857 181.982 115.857 173.255 Q115.857 164.505 118.913 159.922 Q121.992 155.315 127.802 155.315 Z" fill="#000000" fill-rule="nonzero" fill-opacity="1" /><path clip-path="url(#clip980)" d="M147.964 184.621 L152.848 184.621 L152.848 190.5 L147.964 190.5 L147.964 184.621 Z" fill="#000000" fill-rule="nonzero" fill-opacity="1" /><path clip-path="url(#clip980)" d="M163.843 186.565 L171.482 186.565 L171.482 160.199 L163.172 161.866 L163.172 157.607 L171.436 155.94 L176.112 155.94 L176.112 186.565 L183.751 186.565 L183.751 190.5 L163.843 190.5 L163.843 186.565 Z" fill="#000000" fill-rule="nonzero" fill-opacity="1" /><path clip-path="url(#clip980)" d="M197.223 186.565 L213.542 186.565 L213.542 190.5 L191.598 190.5 L191.598 186.565 Q194.26 183.81 198.843 179.181 Q203.449 174.528 204.63 173.185 Q206.875 170.662 207.755 168.926 Q208.658 167.167 208.658 165.477 Q208.658 162.723 206.713 160.986 Q204.792 159.25 201.69 159.25 Q199.491 159.25 197.037 160.014 Q194.607 160.778 191.829 162.329 L191.829 157.607 Q194.653 156.473 197.107 155.894 Q199.561 155.315 201.598 155.315 Q206.968 155.315 210.162 158 Q213.357 160.686 213.357 165.176 Q213.357 167.306 212.547 169.227 Q211.76 171.125 209.653 173.718 Q209.074 174.389 205.973 177.607 Q202.871 180.801 197.223 186.565 Z" fill="#000000" fill-rule="nonzero" fill-opacity="1" /><path clip-path="url(#clip980)" d="M33.7671 1012.71 L14.479 1012.71 L14.479 1006.85 L64.0042 1006.85 L64.0042 1012.71 L58.657 1012.71 Q61.8398 1014.56 63.3994 1017.39 Q64.9272 1020.19 64.9272 1024.14 Q64.9272 1030.6 59.771 1034.67 Q54.6147 1038.71 46.212 1038.71 Q37.8093 1038.71 32.6531 1034.67 Q27.4968 1030.6 27.4968 1024.14 Q27.4968 1020.19 29.0564 1017.39 Q30.5842 1014.56 33.7671 1012.71 M46.212 1032.67 Q52.6732 1032.67 56.3653 1030.02 Q60.0256 1027.35 60.0256 1022.7 Q60.0256 1018.06 56.3653 1015.38 Q52.6732 1012.71 46.212 1012.71 Q39.7508 1012.71 36.0905 1015.38 Q32.3984 1018.06 32.3984 1022.7 Q32.3984 1027.35 36.0905 1030.02 Q39.7508 1032.67 46.212 1032.67 Z" fill="#000000" fill-rule="nonzero" fill-opacity="1" /><path clip-path="url(#clip980)" d="M46.0847 978.589 Q46.0847 985.687 47.7079 988.424 Q49.3312 991.161 53.2461 991.161 Q56.3653 991.161 58.2114 989.124 Q60.0256 987.055 60.0256 983.522 Q60.0256 978.653 56.5881 975.724 Q53.1188 972.764 47.3897 972.764 L46.0847 972.764 L46.0847 978.589 M43.6657 966.908 L64.0042 966.908 L64.0042 972.764 L58.5933 972.764 Q61.8398 974.769 63.3994 977.761 Q64.9272 980.753 64.9272 985.082 Q64.9272 990.556 61.8716 993.803 Q58.7843 997.018 53.6281 997.018 Q47.6125 997.018 44.5569 993.007 Q41.5014 988.965 41.5014 980.976 L41.5014 972.764 L40.9285 972.764 Q36.8862 972.764 34.6901 975.438 Q32.4621 978.08 32.4621 982.886 Q32.4621 985.941 33.1941 988.838 Q33.9262 991.734 35.3903 994.408 L29.9795 994.408 Q28.7381 991.193 28.1334 988.169 Q27.4968 985.146 27.4968 982.281 Q27.4968 974.547 31.5072 970.727 Q35.5176 966.908 43.6657 966.908 Z" fill="#000000" fill-rule="nonzero" fill-opacity="1" /><path clip-path="url(#clip980)" d="M18.2347 949.052 L28.3562 949.052 L28.3562 936.989 L32.9077 936.989 L32.9077 949.052 L52.2594 949.052 Q56.6199 949.052 57.8613 947.874 Q59.1026 946.665 59.1026 943.005 L59.1026 936.989 L64.0042 936.989 L64.0042 943.005 Q64.0042 949.784 61.4897 952.362 Q58.9434 954.94 52.2594 954.94 L32.9077 954.94 L32.9077 959.237 L28.3562 959.237 L28.3562 954.94 L18.2347 954.94 L18.2347 949.052 Z" fill="#000000" fill-rule="nonzero" fill-opacity="1" /><path clip-path="url(#clip980)" d="M46.0847 913.086 Q46.0847 920.183 47.7079 922.921 Q49.3312 925.658 53.2461 925.658 Q56.3653 925.658 58.2114 923.621 Q60.0256 921.552 60.0256 918.019 Q60.0256 913.149 56.5881 910.221 Q53.1188 907.261 47.3897 907.261 L46.0847 907.261 L46.0847 913.086 M43.6657 901.405 L64.0042 901.405 L64.0042 907.261 L58.5933 907.261 Q61.8398 909.266 63.3994 912.258 Q64.9272 915.25 64.9272 919.579 Q64.9272 925.053 61.8716 928.3 Q58.7843 931.514 53.6281 931.514 Q47.6125 931.514 44.5569 927.504 Q41.5014 923.462 41.5014 915.473 L41.5014 907.261 L40.9285 907.261 Q36.8862 907.261 34.6901 909.935 Q32.4621 912.576 32.4621 917.383 Q32.4621 920.438 33.1941 923.335 Q33.9262 926.231 35.3903 928.905 L29.9795 928.905 Q28.7381 925.69 28.1334 922.666 Q27.4968 919.642 27.4968 916.778 Q27.4968 909.044 31.5072 905.224 Q35.5176 901.405 43.6657 901.405 Z" fill="#000000" fill-rule="nonzero" fill-opacity="1" /><path clip-path="url(#clip980)" d="M29.4065 866.616 L34.9447 866.616 Q33.6716 869.099 33.035 871.772 Q32.3984 874.446 32.3984 877.31 Q32.3984 881.671 33.7352 883.867 Q35.072 886.031 37.7456 886.031 Q39.7826 886.031 40.9603 884.472 Q42.1061 882.912 43.1565 878.202 L43.6021 876.196 Q44.9389 869.958 47.3897 867.348 Q49.8086 864.706 54.1691 864.706 Q59.1344 864.706 62.0308 868.653 Q64.9272 872.568 64.9272 879.443 Q64.9272 882.308 64.3543 885.427 Q63.8132 888.514 62.6992 891.952 L56.6518 891.952 Q58.3387 888.705 59.198 885.554 Q60.0256 882.403 60.0256 879.316 Q60.0256 875.178 58.6251 872.95 Q57.1929 870.722 54.6147 870.722 Q52.2276 870.722 50.9545 872.345 Q49.6813 873.937 48.5037 879.379 L48.0262 881.416 Q46.8804 886.859 44.5251 889.278 Q42.138 891.697 38.0002 891.697 Q32.9713 891.697 30.2341 888.132 Q27.4968 884.567 27.4968 878.011 Q27.4968 874.764 27.9743 871.9 Q28.4517 869.035 29.4065 866.616 Z" fill="#000000" fill-rule="nonzero" fill-opacity="1" /><path clip-path="url(#clip980)" d="M44.7161 824.889 L47.5806 824.889 L47.5806 851.816 Q53.6281 851.434 56.8109 848.187 Q59.9619 844.909 59.9619 839.084 Q59.9619 835.711 59.1344 832.56 Q58.3069 829.377 56.6518 826.257 L62.1899 826.257 Q63.5267 829.409 64.227 832.719 Q64.9272 836.029 64.9272 839.435 Q64.9272 847.965 59.9619 852.962 Q54.9967 857.927 46.5303 857.927 Q37.7774 857.927 32.6531 853.216 Q27.4968 848.474 27.4968 840.453 Q27.4968 833.26 32.1438 829.09 Q36.7589 824.889 44.7161 824.889 M42.9973 830.745 Q38.1912 830.809 35.3266 833.451 Q32.4621 836.061 32.4621 840.389 Q32.4621 845.291 35.2312 848.251 Q38.0002 851.179 43.0292 851.625 L42.9973 830.745 Z" fill="#000000" fill-rule="nonzero" fill-opacity="1" /><path clip-path="url(#clip980)" d="M18.2347 809.484 L28.3562 809.484 L28.3562 797.421 L32.9077 797.421 L32.9077 809.484 L52.2594 809.484 Q56.6199 809.484 57.8613 808.306 Q59.1026 807.097 59.1026 803.436 L59.1026 797.421 L64.0042 797.421 L64.0042 803.436 Q64.0042 810.216 61.4897 812.794 Q58.9434 815.372 52.2594 815.372 L32.9077 815.372 L32.9077 819.669 L28.3562 819.669 L28.3562 815.372 L18.2347 815.372 L18.2347 809.484 Z" fill="#000000" fill-rule="nonzero" fill-opacity="1" /><path clip-path="url(#clip980)" d="M35.1993 741.243 Q31.2526 739.047 29.3747 735.992 Q27.4968 732.936 27.4968 728.799 Q27.4968 723.229 31.4117 720.205 Q35.2948 717.181 42.4881 717.181 L64.0042 717.181 L64.0042 723.069 L42.679 723.069 Q37.5546 723.069 35.072 724.884 Q32.5894 726.698 32.5894 730.422 Q32.5894 734.973 35.6131 737.615 Q38.6368 740.257 43.8567 740.257 L64.0042 740.257 L64.0042 746.145 L42.679 746.145 Q37.5228 746.145 35.072 747.959 Q32.5894 749.774 32.5894 753.561 Q32.5894 758.049 35.6449 760.691 Q38.6686 763.332 43.8567 763.332 L64.0042 763.332 L64.0042 769.221 L28.3562 769.221 L28.3562 763.332 L33.8944 763.332 Q30.616 761.327 29.0564 758.526 Q27.4968 755.725 27.4968 751.874 Q27.4968 747.991 29.4702 745.286 Q31.4436 742.548 35.1993 741.243 Z" fill="#000000" fill-rule="nonzero" fill-opacity="1" /><path clip-path="url(#clip980)" d="M44.7161 675.008 L47.5806 675.008 L47.5806 701.935 Q53.6281 701.553 56.8109 698.307 Q59.9619 695.028 59.9619 689.204 Q59.9619 685.83 59.1344 682.679 Q58.3069 679.496 56.6518 676.377 L62.1899 676.377 Q63.5267 679.528 64.227 682.838 Q64.9272 686.148 64.9272 689.554 Q64.9272 698.084 59.9619 703.081 Q54.9967 708.046 46.5303 708.046 Q37.7774 708.046 32.6531 703.336 Q27.4968 698.593 27.4968 690.572 Q27.4968 683.379 32.1438 679.21 Q36.7589 675.008 44.7161 675.008 M42.9973 680.865 Q38.1912 680.928 35.3266 683.57 Q32.4621 686.18 32.4621 690.509 Q32.4621 695.41 35.2312 698.37 Q38.0002 701.299 43.0292 701.744 L42.9973 680.865 Z" fill="#000000" fill-rule="nonzero" fill-opacity="1" /><path clip-path="url(#clip980)" d="M46.0847 649.195 Q46.0847 656.293 47.7079 659.03 Q49.3312 661.768 53.2461 661.768 Q56.3653 661.768 58.2114 659.731 Q60.0256 657.662 60.0256 654.129 Q60.0256 649.259 56.5881 646.331 Q53.1188 643.371 47.3897 643.371 L46.0847 643.371 L46.0847 649.195 M43.6657 637.514 L64.0042 637.514 L64.0042 643.371 L58.5933 643.371 Q61.8398 645.376 63.3994 648.368 Q64.9272 651.36 64.9272 655.688 Q64.9272 661.163 61.8716 664.409 Q58.7843 667.624 53.6281 667.624 Q47.6125 667.624 44.5569 663.614 Q41.5014 659.571 41.5014 651.582 L41.5014 643.371 L40.9285 643.371 Q36.8862 643.371 34.6901 646.044 Q32.4621 648.686 32.4621 653.492 Q32.4621 656.548 33.1941 659.444 Q33.9262 662.341 35.3903 665.014 L29.9795 665.014 Q28.7381 661.799 28.1334 658.776 Q27.4968 655.752 27.4968 652.887 Q27.4968 645.153 31.5072 641.334 Q35.5176 637.514 43.6657 637.514 Z" fill="#000000" fill-rule="nonzero" fill-opacity="1" /><path clip-path="url(#clip980)" d="M42.4881 595.819 L64.0042 595.819 L64.0042 601.675 L42.679 601.675 Q37.6183 601.675 35.1038 603.649 Q32.5894 605.622 32.5894 609.569 Q32.5894 614.311 35.6131 617.049 Q38.6368 619.786 43.8567 619.786 L64.0042 619.786 L64.0042 625.674 L28.3562 625.674 L28.3562 619.786 L33.8944 619.786 Q30.6797 617.685 29.0883 614.852 Q27.4968 611.988 27.4968 608.264 Q27.4968 602.121 31.3163 598.97 Q35.1038 595.819 42.4881 595.819 Z" fill="#000000" fill-rule="nonzero" fill-opacity="1" /><path clip-path="url(#clip980)" d="M16.4842 563.163 L16.4842 553.582 L48.8219 541.456 L16.4842 529.265 L16.4842 519.685 L64.0042 519.685 L64.0042 525.955 L22.277 525.955 L54.8694 538.209 L54.8694 544.67 L22.277 556.924 L64.0042 556.924 L64.0042 563.163 L16.4842 563.163 Z" fill="#000000" fill-rule="nonzero" fill-opacity="1" /><path clip-path="url(#clip980)" d="M22.818 491.039 L46.4666 499.76 L46.4666 482.287 L22.818 491.039 M16.4842 494.668 L16.4842 487.379 L64.0042 469.269 L64.0042 475.953 L51.8138 480.281 L51.8138 501.702 L64.0042 506.031 L64.0042 512.81 L16.4842 494.668 Z" fill="#000000" fill-rule="nonzero" fill-opacity="1" /><path clip-path="url(#clip980)" d="M16.4842 462.33 L16.4842 432.284 L21.895 432.284 L21.895 455.901 L35.9632 455.901 L35.9632 433.271 L41.3741 433.271 L41.3741 455.901 L58.5933 455.901 L58.5933 431.711 L64.0042 431.711 L64.0042 462.33 L16.4842 462.33 Z" fill="#000000" fill-rule="nonzero" fill-opacity="1" /><polyline clip-path="url(#clip982)" style="stroke:#000000; stroke-linecap:round; stroke-linejoin:round; stroke-width:8; stroke-opacity:1; fill:none" stroke-dasharray="4, 8" points="309.067,86.1857 403.551,175.843 498.035,202.207 592.519,260.547 687.003,249.602 781.487,258.799 875.971,243.891 970.455,264.435 1064.94,300.934 1159.42,319.885 1253.91,317.35 1348.39,325.989 1442.87,300.869 1537.36,258.585 1631.84,236.897 1726.33,166.843 1820.81,143.311 1915.29,169.62 2009.78,245.427 2104.26,260.556 2198.75,256.403 2293.23,303.191 "/>
<circle clip-path="url(#clip982)" cx="309.067" cy="86.1857" r="14.4" fill="#000000" fill-rule="evenodd" fill-opacity="1" stroke="none"/>
<circle clip-path="url(#clip982)" cx="403.551" cy="175.843" r="14.4" fill="#000000" fill-rule="evenodd" fill-opacity="1" stroke="none"/>
<circle clip-path="url(#clip982)" cx="498.035" cy="202.207" r="14.4" fill="#000000" fill-rule="evenodd" fill-opacity="1" stroke="none"/>
<circle clip-path="url(#clip982)" cx="592.519" cy="260.547" r="14.4" fill="#000000" fill-rule="evenodd" fill-opacity="1" stroke="none"/>
<circle clip-path="url(#clip982)" cx="687.003" cy="249.602" r="14.4" fill="#000000" fill-rule="evenodd" fill-opacity="1" stroke="none"/>
<circle clip-path="url(#clip982)" cx="781.487" cy="258.799" r="14.4" fill="#000000" fill-rule="evenodd" fill-opacity="1" stroke="none"/>
<circle clip-path="url(#clip982)" cx="875.971" cy="243.891" r="14.4" fill="#000000" fill-rule="evenodd" fill-opacity="1" stroke="none"/>
<circle clip-path="url(#clip982)" cx="970.455" cy="264.435" r="14.4" fill="#000000" fill-rule="evenodd" fill-opacity="1" stroke="none"/>
<circle clip-path="url(#clip982)" cx="1064.94" cy="300.934" r="14.4" fill="#000000" fill-rule="evenodd" fill-opacity="1" stroke="none"/>
<circle clip-path="url(#clip982)" cx="1159.42" cy="319.885" r="14.4" fill="#000000" fill-rule="evenodd" fill-opacity="1" stroke="none"/>
<circle clip-path="url(#clip982)" cx="1253.91" cy="317.35" r="14.4" fill="#000000" fill-rule="evenodd" fill-opacity="1" stroke="none"/>
<circle clip-path="url(#clip982)" cx="1348.39" cy="325.989" r="14.4" fill="#000000" fill-rule="evenodd" fill-opacity="1" stroke="none"/>
<circle clip-path="url(#clip982)" cx="1442.87" cy="300.869" r="14.4" fill="#000000" fill-rule="evenodd" fill-opacity="1" stroke="none"/>
<circle clip-path="url(#clip982)" cx="1537.36" cy="258.585" r="14.4" fill="#000000" fill-rule="evenodd" fill-opacity="1" stroke="none"/>
<circle clip-path="url(#clip982)" cx="1631.84" cy="236.897" r="14.4" fill="#000000" fill-rule="evenodd" fill-opacity="1" stroke="none"/>
<circle clip-path="url(#clip982)" cx="1726.33" cy="166.843" r="14.4" fill="#000000" fill-rule="evenodd" fill-opacity="1" stroke="none"/>
<circle clip-path="url(#clip982)" cx="1820.81" cy="143.311" r="14.4" fill="#000000" fill-rule="evenodd" fill-opacity="1" stroke="none"/>
<circle clip-path="url(#clip982)" cx="1915.29" cy="169.62" r="14.4" fill="#000000" fill-rule="evenodd" fill-opacity="1" stroke="none"/>
<circle clip-path="url(#clip982)" cx="2009.78" cy="245.427" r="14.4" fill="#000000" fill-rule="evenodd" fill-opacity="1" stroke="none"/>
<circle clip-path="url(#clip982)" cx="2104.26" cy="260.556" r="14.4" fill="#000000" fill-rule="evenodd" fill-opacity="1" stroke="none"/>
<circle clip-path="url(#clip982)" cx="2198.75" cy="256.403" r="14.4" fill="#000000" fill-rule="evenodd" fill-opacity="1" stroke="none"/>
<circle clip-path="url(#clip982)" cx="2293.23" cy="303.191" r="14.4" fill="#000000" fill-rule="evenodd" fill-opacity="1" stroke="none"/>
<polyline clip-path="url(#clip982)" style="stroke:#1f77b4; stroke-linecap:round; stroke-linejoin:round; stroke-width:8; stroke-opacity:1; fill:none" points="309.067,238.351 403.551,358.87 498.035,453.156 592.519,493.881 687.003,515.556 781.487,537.303 875.971,522.733 970.455,594.012 1064.94,644.101 1159.42,664.467 1253.91,635.743 1348.39,678.293 1442.87,700.051 1537.36,708.762 1631.84,692.824 1726.33,684.706 1820.81,669.66 1915.29,706.525 2009.78,771.373 2104.26,797.476 2198.75,803.206 2293.23,861.551 "/>
<circle clip-path="url(#clip982)" cx="309.067" cy="238.351" r="14.4" fill="#1f77b4" fill-rule="evenodd" fill-opacity="1" stroke="#000000" stroke-opacity="1" stroke-width="3.2"/>
<circle clip-path="url(#clip982)" cx="403.551" cy="358.87" r="14.4" fill="#1f77b4" fill-rule="evenodd" fill-opacity="1" stroke="#000000" stroke-opacity="1" stroke-width="3.2"/>
<circle clip-path="url(#clip982)" cx="498.035" cy="453.156" r="14.4" fill="#1f77b4" fill-rule="evenodd" fill-opacity="1" stroke="#000000" stroke-opacity="1" stroke-width="3.2"/>
<circle clip-path="url(#clip982)" cx="592.519" cy="493.881" r="14.4" fill="#1f77b4" fill-rule="evenodd" fill-opacity="1" stroke="#000000" stroke-opacity="1" stroke-width="3.2"/>
<circle clip-path="url(#clip982)" cx="687.003" cy="515.556" r="14.4" fill="#1f77b4" fill-rule="evenodd" fill-opacity="1" stroke="#000000" stroke-opacity="1" stroke-width="3.2"/>
<circle clip-path="url(#clip982)" cx="781.487" cy="537.303" r="14.4" fill="#1f77b4" fill-rule="evenodd" fill-opacity="1" stroke="#000000" stroke-opacity="1" stroke-width="3.2"/>
<circle clip-path="url(#clip982)" cx="875.971" cy="522.733" r="14.4" fill="#1f77b4" fill-rule="evenodd" fill-opacity="1" stroke="#000000" stroke-opacity="1" stroke-width="3.2"/>
<circle clip-path="url(#clip982)" cx="970.455" cy="594.012" r="14.4" fill="#1f77b4" fill-rule="evenodd" fill-opacity="1" stroke="#000000" stroke-opacity="1" stroke-width="3.2"/>
<circle clip-path="url(#clip982)" cx="1064.94" cy="644.101" r="14.4" fill="#1f77b4" fill-rule="evenodd" fill-opacity="1" stroke="#000000" stroke-opacity="1" stroke-width="3.2"/>
<circle clip-path="url(#clip982)" cx="1159.42" cy="664.467" r="14.4" fill="#1f77b4" fill-rule="evenodd" fill-opacity="1" stroke="#000000" stroke-opacity="1" stroke-width="3.2"/>
<circle clip-path="url(#clip982)" cx="1253.91" cy="635.743" r="14.4" fill="#1f77b4" fill-rule="evenodd" fill-opacity="1" stroke="#000000" stroke-opacity="1" stroke-width="3.2"/>
<circle clip-path="url(#clip982)" cx="1348.39" cy="678.293" r="14.4" fill="#1f77b4" fill-rule="evenodd" fill-opacity="1" stroke="#000000" stroke-opacity="1" stroke-width="3.2"/>
<circle clip-path="url(#clip982)" cx="1442.87" cy="700.051" r="14.4" fill="#1f77b4" fill-rule="evenodd" fill-opacity="1" stroke="#000000" stroke-opacity="1" stroke-width="3.2"/>
<circle clip-path="url(#clip982)" cx="1537.36" cy="708.762" r="14.4" fill="#1f77b4" fill-rule="evenodd" fill-opacity="1" stroke="#000000" stroke-opacity="1" stroke-width="3.2"/>
<circle clip-path="url(#clip982)" cx="1631.84" cy="692.824" r="14.4" fill="#1f77b4" fill-rule="evenodd" fill-opacity="1" stroke="#000000" stroke-opacity="1" stroke-width="3.2"/>
<circle clip-path="url(#clip982)" cx="1726.33" cy="684.706" r="14.4" fill="#1f77b4" fill-rule="evenodd" fill-opacity="1" stroke="#000000" stroke-opacity="1" stroke-width="3.2"/>
<circle clip-path="url(#clip982)" cx="1820.81" cy="669.66" r="14.4" fill="#1f77b4" fill-rule="evenodd" fill-opacity="1" stroke="#000000" stroke-opacity="1" stroke-width="3.2"/>
<circle clip-path="url(#clip982)" cx="1915.29" cy="706.525" r="14.4" fill="#1f77b4" fill-rule="evenodd" fill-opacity="1" stroke="#000000" stroke-opacity="1" stroke-width="3.2"/>
<circle clip-path="url(#clip982)" cx="2009.78" cy="771.373" r="14.4" fill="#1f77b4" fill-rule="evenodd" fill-opacity="1" stroke="#000000" stroke-opacity="1" stroke-width="3.2"/>
<circle clip-path="url(#clip982)" cx="2104.26" cy="797.476" r="14.4" fill="#1f77b4" fill-rule="evenodd" fill-opacity="1" stroke="#000000" stroke-opacity="1" stroke-width="3.2"/>
<circle clip-path="url(#clip982)" cx="2198.75" cy="803.206" r="14.4" fill="#1f77b4" fill-rule="evenodd" fill-opacity="1" stroke="#000000" stroke-opacity="1" stroke-width="3.2"/>
<circle clip-path="url(#clip982)" cx="2293.23" cy="861.551" r="14.4" fill="#1f77b4" fill-rule="evenodd" fill-opacity="1" stroke="#000000" stroke-opacity="1" stroke-width="3.2"/>
<polyline clip-path="url(#clip982)" style="stroke:#ff7e0d; stroke-linecap:round; stroke-linejoin:round; stroke-width:8; stroke-opacity:1; fill:none" points="309.067,882.371 403.551,906.019 498.035,978.58 592.519,1009.6 687.003,979.568 781.487,989.258 875.971,1015.37 970.455,1061.71 1064.94,1061.74 1159.42,1086.2 1253.91,1099.64 1348.39,1143.39 1442.87,1188.85 1537.36,1191.63 1631.84,1192.38 1726.33,1201.64 1820.81,1215.96 1915.29,1261.72 2009.78,1303.84 2104.26,1307.94 2198.75,1310.63 2293.23,1384.24 "/>
<circle clip-path="url(#clip982)" cx="309.067" cy="882.371" r="14.4" fill="#ff7e0d" fill-rule="evenodd" fill-opacity="1" stroke="#000000" stroke-opacity="1" stroke-width="3.2"/>
<circle clip-path="url(#clip982)" cx="403.551" cy="906.019" r="14.4" fill="#ff7e0d" fill-rule="evenodd" fill-opacity="1" stroke="#000000" stroke-opacity="1" stroke-width="3.2"/>
<circle clip-path="url(#clip982)" cx="498.035" cy="978.58" r="14.4" fill="#ff7e0d" fill-rule="evenodd" fill-opacity="1" stroke="#000000" stroke-opacity="1" stroke-width="3.2"/>
<circle clip-path="url(#clip982)" cx="592.519" cy="1009.6" r="14.4" fill="#ff7e0d" fill-rule="evenodd" fill-opacity="1" stroke="#000000" stroke-opacity="1" stroke-width="3.2"/>
<circle clip-path="url(#clip982)" cx="687.003" cy="979.568" r="14.4" fill="#ff7e0d" fill-rule="evenodd" fill-opacity="1" stroke="#000000" stroke-opacity="1" stroke-width="3.2"/>
<circle clip-path="url(#clip982)" cx="781.487" cy="989.258" r="14.4" fill="#ff7e0d" fill-rule="evenodd" fill-opacity="1" stroke="#000000" stroke-opacity="1" stroke-width="3.2"/>
<circle clip-path="url(#clip982)" cx="875.971" cy="1015.37" r="14.4" fill="#ff7e0d" fill-rule="evenodd" fill-opacity="1" stroke="#000000" stroke-opacity="1" stroke-width="3.2"/>
<circle clip-path="url(#clip982)" cx="970.455" cy="1061.71" r="14.4" fill="#ff7e0d" fill-rule="evenodd" fill-opacity="1" stroke="#000000" stroke-opacity="1" stroke-width="3.2"/>
<circle clip-path="url(#clip982)" cx="1064.94" cy="1061.74" r="14.4" fill="#ff7e0d" fill-rule="evenodd" fill-opacity="1" stroke="#000000" stroke-opacity="1" stroke-width="3.2"/>
<circle clip-path="url(#clip982)" cx="1159.42" cy="1086.2" r="14.4" fill="#ff7e0d" fill-rule="evenodd" fill-opacity="1" stroke="#000000" stroke-opacity="1" stroke-width="3.2"/>
<circle clip-path="url(#clip982)" cx="1253.91" cy="1099.64" r="14.4" fill="#ff7e0d" fill-rule="evenodd" fill-opacity="1" stroke="#000000" stroke-opacity="1" stroke-width="3.2"/>
<circle clip-path="url(#clip982)" cx="1348.39" cy="1143.39" r="14.4" fill="#ff7e0d" fill-rule="evenodd" fill-opacity="1" stroke="#000000" stroke-opacity="1" stroke-width="3.2"/>
<circle clip-path="url(#clip982)" cx="1442.87" cy="1188.85" r="14.4" fill="#ff7e0d" fill-rule="evenodd" fill-opacity="1" stroke="#000000" stroke-opacity="1" stroke-width="3.2"/>
<circle clip-path="url(#clip982)" cx="1537.36" cy="1191.63" r="14.4" fill="#ff7e0d" fill-rule="evenodd" fill-opacity="1" stroke="#000000" stroke-opacity="1" stroke-width="3.2"/>
<circle clip-path="url(#clip982)" cx="1631.84" cy="1192.38" r="14.4" fill="#ff7e0d" fill-rule="evenodd" fill-opacity="1" stroke="#000000" stroke-opacity="1" stroke-width="3.2"/>
<circle clip-path="url(#clip982)" cx="1726.33" cy="1201.64" r="14.4" fill="#ff7e0d" fill-rule="evenodd" fill-opacity="1" stroke="#000000" stroke-opacity="1" stroke-width="3.2"/>
<circle clip-path="url(#clip982)" cx="1820.81" cy="1215.96" r="14.4" fill="#ff7e0d" fill-rule="evenodd" fill-opacity="1" stroke="#000000" stroke-opacity="1" stroke-width="3.2"/>
<circle clip-path="url(#clip982)" cx="1915.29" cy="1261.72" r="14.4" fill="#ff7e0d" fill-rule="evenodd" fill-opacity="1" stroke="#000000" stroke-opacity="1" stroke-width="3.2"/>
<circle clip-path="url(#clip982)" cx="2009.78" cy="1303.84" r="14.4" fill="#ff7e0d" fill-rule="evenodd" fill-opacity="1" stroke="#000000" stroke-opacity="1" stroke-width="3.2"/>
<circle clip-path="url(#clip982)" cx="2104.26" cy="1307.94" r="14.4" fill="#ff7e0d" fill-rule="evenodd" fill-opacity="1" stroke="#000000" stroke-opacity="1" stroke-width="3.2"/>
<circle clip-path="url(#clip982)" cx="2198.75" cy="1310.63" r="14.4" fill="#ff7e0d" fill-rule="evenodd" fill-opacity="1" stroke="#000000" stroke-opacity="1" stroke-width="3.2"/>
<circle clip-path="url(#clip982)" cx="2293.23" cy="1384.24" r="14.4" fill="#ff7e0d" fill-rule="evenodd" fill-opacity="1" stroke="#000000" stroke-opacity="1" stroke-width="3.2"/>
<polyline clip-path="url(#clip982)" style="stroke:#2ba02b; stroke-linecap:round; stroke-linejoin:round; stroke-width:8; stroke-opacity:1; fill:none" points="309.067,976.56 403.551,1044.17 498.035,1086.97 592.519,1107.78 687.003,1131.4 781.487,1137.46 875.971,1157.22 970.455,1195.26 1064.94,1211.04 1159.42,1217.15 1253.91,1213.51 1348.39,1231.77 1442.87,1242.84 1537.36,1248.26 1631.84,1244.25 1726.33,1241.73 1820.81,1250.61 1915.29,1287.26 2009.78,1299.66 2104.26,1297.53 2198.75,1315.6 2293.23,1352.83 "/>
<circle clip-path="url(#clip982)" cx="309.067" cy="976.56" r="14.4" fill="#2ba02b" fill-rule="evenodd" fill-opacity="1" stroke="#000000" stroke-opacity="1" stroke-width="3.2"/>
<circle clip-path="url(#clip982)" cx="403.551" cy="1044.17" r="14.4" fill="#2ba02b" fill-rule="evenodd" fill-opacity="1" stroke="#000000" stroke-opacity="1" stroke-width="3.2"/>
<circle clip-path="url(#clip982)" cx="498.035" cy="1086.97" r="14.4" fill="#2ba02b" fill-rule="evenodd" fill-opacity="1" stroke="#000000" stroke-opacity="1" stroke-width="3.2"/>
<circle clip-path="url(#clip982)" cx="592.519" cy="1107.78" r="14.4" fill="#2ba02b" fill-rule="evenodd" fill-opacity="1" stroke="#000000" stroke-opacity="1" stroke-width="3.2"/>
<circle clip-path="url(#clip982)" cx="687.003" cy="1131.4" r="14.4" fill="#2ba02b" fill-rule="evenodd" fill-opacity="1" stroke="#000000" stroke-opacity="1" stroke-width="3.2"/>
<circle clip-path="url(#clip982)" cx="781.487" cy="1137.46" r="14.4" fill="#2ba02b" fill-rule="evenodd" fill-opacity="1" stroke="#000000" stroke-opacity="1" stroke-width="3.2"/>
<circle clip-path="url(#clip982)" cx="875.971" cy="1157.22" r="14.4" fill="#2ba02b" fill-rule="evenodd" fill-opacity="1" stroke="#000000" stroke-opacity="1" stroke-width="3.2"/>
<circle clip-path="url(#clip982)" cx="970.455" cy="1195.26" r="14.4" fill="#2ba02b" fill-rule="evenodd" fill-opacity="1" stroke="#000000" stroke-opacity="1" stroke-width="3.2"/>
<circle clip-path="url(#clip982)" cx="1064.94" cy="1211.04" r="14.4" fill="#2ba02b" fill-rule="evenodd" fill-opacity="1" stroke="#000000" stroke-opacity="1" stroke-width="3.2"/>
<circle clip-path="url(#clip982)" cx="1159.42" cy="1217.15" r="14.4" fill="#2ba02b" fill-rule="evenodd" fill-opacity="1" stroke="#000000" stroke-opacity="1" stroke-width="3.2"/>
<circle clip-path="url(#clip982)" cx="1253.91" cy="1213.51" r="14.4" fill="#2ba02b" fill-rule="evenodd" fill-opacity="1" stroke="#000000" stroke-opacity="1" stroke-width="3.2"/>
<circle clip-path="url(#clip982)" cx="1348.39" cy="1231.77" r="14.4" fill="#2ba02b" fill-rule="evenodd" fill-opacity="1" stroke="#000000" stroke-opacity="1" stroke-width="3.2"/>
<circle clip-path="url(#clip982)" cx="1442.87" cy="1242.84" r="14.4" fill="#2ba02b" fill-rule="evenodd" fill-opacity="1" stroke="#000000" stroke-opacity="1" stroke-width="3.2"/>
<circle clip-path="url(#clip982)" cx="1537.36" cy="1248.26" r="14.4" fill="#2ba02b" fill-rule="evenodd" fill-opacity="1" stroke="#000000" stroke-opacity="1" stroke-width="3.2"/>
<circle clip-path="url(#clip982)" cx="1631.84" cy="1244.25" r="14.4" fill="#2ba02b" fill-rule="evenodd" fill-opacity="1" stroke="#000000" stroke-opacity="1" stroke-width="3.2"/>
<circle clip-path="url(#clip982)" cx="1726.33" cy="1241.73" r="14.4" fill="#2ba02b" fill-rule="evenodd" fill-opacity="1" stroke="#000000" stroke-opacity="1" stroke-width="3.2"/>
<circle clip-path="url(#clip982)" cx="1820.81" cy="1250.61" r="14.4" fill="#2ba02b" fill-rule="evenodd" fill-opacity="1" stroke="#000000" stroke-opacity="1" stroke-width="3.2"/>
<circle clip-path="url(#clip982)" cx="1915.29" cy="1287.26" r="14.4" fill="#2ba02b" fill-rule="evenodd" fill-opacity="1" stroke="#000000" stroke-opacity="1" stroke-width="3.2"/>
<circle clip-path="url(#clip982)" cx="2009.78" cy="1299.66" r="14.4" fill="#2ba02b" fill-rule="evenodd" fill-opacity="1" stroke="#000000" stroke-opacity="1" stroke-width="3.2"/>
<circle clip-path="url(#clip982)" cx="2104.26" cy="1297.53" r="14.4" fill="#2ba02b" fill-rule="evenodd" fill-opacity="1" stroke="#000000" stroke-opacity="1" stroke-width="3.2"/>
<circle clip-path="url(#clip982)" cx="2198.75" cy="1315.6" r="14.4" fill="#2ba02b" fill-rule="evenodd" fill-opacity="1" stroke="#000000" stroke-opacity="1" stroke-width="3.2"/>
<circle clip-path="url(#clip982)" cx="2293.23" cy="1352.83" r="14.4" fill="#2ba02b" fill-rule="evenodd" fill-opacity="1" stroke="#000000" stroke-opacity="1" stroke-width="3.2"/>
<path clip-path="url(#clip980)" d="M1792.84 1377.32 L2282.65 1377.32 L2282.65 1118.12 L1792.84 1118.12  Z" fill="#ffffff" fill-rule="evenodd" fill-opacity="1"/>
<polyline clip-path="url(#clip980)" style="stroke:#000000; stroke-linecap:round; stroke-linejoin:round; stroke-width:4; stroke-opacity:1; fill:none" points="1792.84,1377.32 2282.65,1377.32 2282.65,1118.12 1792.84,1118.12 1792.84,1377.32 "/>
<polyline clip-path="url(#clip980)" style="stroke:#000000; stroke-linecap:round; stroke-linejoin:round; stroke-width:8; stroke-opacity:1; fill:none" stroke-dasharray="4, 8" points="1816.21,1169.96 1956.42,1169.96 "/>
<path clip-path="url(#clip980)" d="M1980.46 1183.3 L1988.1 1183.3 L1988.1 1156.93 L1979.79 1158.6 L1979.79 1154.34 L1988.05 1152.68 L1992.73 1152.68 L1992.73 1183.3 L2000.37 1183.3 L2000.37 1187.24 L1980.46 1187.24 L1980.46 1183.3 Z" fill="#000000" fill-rule="nonzero" fill-opacity="1" /><path clip-path="url(#clip980)" d="M2009.4 1152.68 L2015.69 1152.68 L2031.02 1181.59 L2031.02 1152.68 L2035.55 1152.68 L2035.55 1187.24 L2029.26 1187.24 L2013.93 1158.32 L2013.93 1187.24 L2009.4 1187.24 L2009.4 1152.68 Z" fill="#000000" fill-rule="nonzero" fill-opacity="1" /><path clip-path="url(#clip980)" d="M2044.86 1152.68 L2051.16 1152.68 L2066.48 1181.59 L2066.48 1152.68 L2071.02 1152.68 L2071.02 1187.24 L2064.72 1187.24 L2049.4 1158.32 L2049.4 1187.24 L2044.86 1187.24 L2044.86 1152.68 Z" fill="#000000" fill-rule="nonzero" fill-opacity="1" /><polyline clip-path="url(#clip980)" style="stroke:#1f77b4; stroke-linecap:round; stroke-linejoin:round; stroke-width:8; stroke-opacity:1; fill:none" points="1816.21,1221.8 1956.42,1221.8 "/>
<path clip-path="url(#clip980)" d="M1979.79 1204.52 L1986.76 1204.52 L1995.58 1228.03 L2004.44 1204.52 L2011.41 1204.52 L2011.41 1239.08 L2006.85 1239.08 L2006.85 1208.73 L1997.94 1232.43 L1993.24 1232.43 L1984.33 1208.73 L1984.33 1239.08 L1979.79 1239.08 L1979.79 1204.52 Z" fill="#000000" fill-rule="nonzero" fill-opacity="1" /><path clip-path="url(#clip980)" d="M2025.37 1208.36 L2025.37 1221.34 L2031.25 1221.34 Q2034.51 1221.34 2036.29 1219.65 Q2038.08 1217.96 2038.08 1214.84 Q2038.08 1211.74 2036.29 1210.05 Q2034.51 1208.36 2031.25 1208.36 L2025.37 1208.36 M2020.69 1204.52 L2031.25 1204.52 Q2037.06 1204.52 2040.02 1207.15 Q2043.01 1209.77 2043.01 1214.84 Q2043.01 1219.96 2040.02 1222.57 Q2037.06 1225.19 2031.25 1225.19 L2025.37 1225.19 L2025.37 1239.08 L2020.69 1239.08 L2020.69 1204.52 Z" fill="#000000" fill-rule="nonzero" fill-opacity="1" /><path clip-path="url(#clip980)" d="M2070 1205.65 L2070 1210.21 Q2067.34 1208.94 2064.98 1208.31 Q2062.61 1207.69 2060.42 1207.69 Q2056.6 1207.69 2054.51 1209.17 Q2052.45 1210.65 2052.45 1213.38 Q2052.45 1215.67 2053.82 1216.85 Q2055.21 1218.01 2059.05 1218.73 L2061.87 1219.31 Q2067.1 1220.3 2069.58 1222.83 Q2072.08 1225.33 2072.08 1229.54 Q2072.08 1234.56 2068.7 1237.15 Q2065.35 1239.75 2058.84 1239.75 Q2056.39 1239.75 2053.61 1239.19 Q2050.85 1238.64 2047.89 1237.55 L2047.89 1232.73 Q2050.74 1234.33 2053.47 1235.14 Q2056.2 1235.95 2058.84 1235.95 Q2062.85 1235.95 2065.02 1234.38 Q2067.2 1232.8 2067.2 1229.89 Q2067.2 1227.34 2065.62 1225.9 Q2064.07 1224.47 2060.51 1223.75 L2057.66 1223.2 Q2052.43 1222.15 2050.09 1219.93 Q2047.75 1217.71 2047.75 1213.75 Q2047.75 1209.17 2050.97 1206.53 Q2054.21 1203.89 2059.88 1203.89 Q2062.31 1203.89 2064.84 1204.33 Q2067.36 1204.77 2070 1205.65 Z" fill="#000000" fill-rule="nonzero" fill-opacity="1" /><path clip-path="url(#clip980)" d="M2080.28 1233.2 L2085.16 1233.2 L2085.16 1237.18 L2081.36 1244.58 L2078.38 1244.58 L2080.28 1237.18 L2080.28 1233.2 Z" fill="#000000" fill-rule="nonzero" fill-opacity="1" /><path clip-path="url(#clip980)" d="M2121.8 1244.86 L2118.35 1236 L2111.25 1248.96 L2106.22 1248.96 L2116.27 1230.63 L2112.06 1219.72 Q2110.92 1216.81 2107.36 1216.81 L2106.22 1216.81 L2106.22 1213.15 L2107.85 1213.2 Q2113.82 1213.36 2115.32 1217.22 L2118.75 1226.09 L2125.85 1213.13 L2130.88 1213.13 L2120.83 1231.46 L2125.04 1242.36 Q2126.18 1245.28 2129.74 1245.28 L2130.88 1245.28 L2130.88 1248.94 L2129.26 1248.89 Q2123.29 1248.73 2121.8 1244.86 Z" fill="#000000" fill-rule="nonzero" fill-opacity="1" /><path clip-path="url(#clip980)" d="M2152.34 1217.55 L2182.01 1217.55 L2182.01 1221.44 L2152.34 1221.44 L2152.34 1217.55 M2152.34 1226.99 L2182.01 1226.99 L2182.01 1230.93 L2152.34 1230.93 L2152.34 1226.99 Z" fill="#000000" fill-rule="nonzero" fill-opacity="1" /><path clip-path="url(#clip980)" d="M2211.2 1235.14 L2227.52 1235.14 L2227.52 1239.08 L2205.58 1239.08 L2205.58 1235.14 Q2208.24 1232.39 2212.82 1227.76 Q2217.43 1223.1 2218.61 1221.76 Q2220.85 1219.24 2221.73 1217.5 Q2222.64 1215.74 2222.64 1214.05 Q2222.64 1211.3 2220.69 1209.56 Q2218.77 1207.83 2215.67 1207.83 Q2213.47 1207.83 2211.02 1208.59 Q2208.59 1209.35 2205.81 1210.9 L2205.81 1206.18 Q2208.63 1205.05 2211.09 1204.47 Q2213.54 1203.89 2215.58 1203.89 Q2220.95 1203.89 2224.14 1206.58 Q2227.34 1209.26 2227.34 1213.75 Q2227.34 1215.88 2226.53 1217.8 Q2225.74 1219.7 2223.63 1222.29 Q2223.05 1222.96 2219.95 1226.18 Q2216.85 1229.38 2211.2 1235.14 Z" fill="#000000" fill-rule="nonzero" fill-opacity="1" /><path clip-path="url(#clip980)" d="M2247.34 1207.59 Q2243.72 1207.59 2241.9 1211.16 Q2240.09 1214.7 2240.09 1221.83 Q2240.09 1228.94 2241.9 1232.5 Q2243.72 1236.04 2247.34 1236.04 Q2250.97 1236.04 2252.78 1232.5 Q2254.6 1228.94 2254.6 1221.83 Q2254.6 1214.7 2252.78 1211.16 Q2250.97 1207.59 2247.34 1207.59 M2247.34 1203.89 Q2253.15 1203.89 2256.2 1208.5 Q2259.28 1213.08 2259.28 1221.83 Q2259.28 1230.56 2256.2 1235.16 Q2253.15 1239.75 2247.34 1239.75 Q2241.53 1239.75 2238.45 1235.16 Q2235.39 1230.56 2235.39 1221.83 Q2235.39 1213.08 2238.45 1208.5 Q2241.53 1203.89 2247.34 1203.89 Z" fill="#000000" fill-rule="nonzero" fill-opacity="1" /><polyline clip-path="url(#clip980)" style="stroke:#ff7e0d; stroke-linecap:round; stroke-linejoin:round; stroke-width:8; stroke-opacity:1; fill:none" points="1816.21,1273.64 1956.42,1273.64 "/>
<path clip-path="url(#clip980)" d="M1979.79 1256.36 L1986.76 1256.36 L1995.58 1279.87 L2004.44 1256.36 L2011.41 1256.36 L2011.41 1290.92 L2006.85 1290.92 L2006.85 1260.57 L1997.94 1284.27 L1993.24 1284.27 L1984.33 1260.57 L1984.33 1290.92 L1979.79 1290.92 L1979.79 1256.36 Z" fill="#000000" fill-rule="nonzero" fill-opacity="1" /><path clip-path="url(#clip980)" d="M2025.37 1260.2 L2025.37 1273.18 L2031.25 1273.18 Q2034.51 1273.18 2036.29 1271.49 Q2038.08 1269.8 2038.08 1266.68 Q2038.08 1263.58 2036.29 1261.89 Q2034.51 1260.2 2031.25 1260.2 L2025.37 1260.2 M2020.69 1256.36 L2031.25 1256.36 Q2037.06 1256.36 2040.02 1258.99 Q2043.01 1261.61 2043.01 1266.68 Q2043.01 1271.8 2040.02 1274.41 Q2037.06 1277.03 2031.25 1277.03 L2025.37 1277.03 L2025.37 1290.92 L2020.69 1290.92 L2020.69 1256.36 Z" fill="#000000" fill-rule="nonzero" fill-opacity="1" /><path clip-path="url(#clip980)" d="M2070 1257.49 L2070 1262.05 Q2067.34 1260.78 2064.98 1260.15 Q2062.61 1259.53 2060.42 1259.53 Q2056.6 1259.53 2054.51 1261.01 Q2052.45 1262.49 2052.45 1265.22 Q2052.45 1267.51 2053.82 1268.69 Q2055.21 1269.85 2059.05 1270.57 L2061.87 1271.15 Q2067.1 1272.14 2069.58 1274.67 Q2072.08 1277.17 2072.08 1281.38 Q2072.08 1286.4 2068.7 1288.99 Q2065.35 1291.59 2058.84 1291.59 Q2056.39 1291.59 2053.61 1291.03 Q2050.85 1290.48 2047.89 1289.39 L2047.89 1284.57 Q2050.74 1286.17 2053.47 1286.98 Q2056.2 1287.79 2058.84 1287.79 Q2062.85 1287.79 2065.02 1286.22 Q2067.2 1284.64 2067.2 1281.73 Q2067.2 1279.18 2065.62 1277.74 Q2064.07 1276.31 2060.51 1275.59 L2057.66 1275.04 Q2052.43 1273.99 2050.09 1271.77 Q2047.75 1269.55 2047.75 1265.59 Q2047.75 1261.01 2050.97 1258.37 Q2054.21 1255.73 2059.88 1255.73 Q2062.31 1255.73 2064.84 1256.17 Q2067.36 1256.61 2070 1257.49 Z" fill="#000000" fill-rule="nonzero" fill-opacity="1" /><path clip-path="url(#clip980)" d="M2080.28 1285.04 L2085.16 1285.04 L2085.16 1289.02 L2081.36 1296.42 L2078.38 1296.42 L2080.28 1289.02 L2080.28 1285.04 Z" fill="#000000" fill-rule="nonzero" fill-opacity="1" /><path clip-path="url(#clip980)" d="M2121.8 1296.7 L2118.35 1287.84 L2111.25 1300.8 L2106.22 1300.8 L2116.27 1282.47 L2112.06 1271.56 Q2110.92 1268.65 2107.36 1268.65 L2106.22 1268.65 L2106.22 1264.99 L2107.85 1265.04 Q2113.82 1265.2 2115.32 1269.06 L2118.75 1277.93 L2125.85 1264.97 L2130.88 1264.97 L2120.83 1283.3 L2125.04 1294.2 Q2126.18 1297.12 2129.74 1297.12 L2130.88 1297.12 L2130.88 1300.78 L2129.26 1300.73 Q2123.29 1300.57 2121.8 1296.7 Z" fill="#000000" fill-rule="nonzero" fill-opacity="1" /><path clip-path="url(#clip980)" d="M2152.34 1269.39 L2182.01 1269.39 L2182.01 1273.28 L2152.34 1273.28 L2152.34 1269.39 M2152.34 1278.83 L2182.01 1278.83 L2182.01 1282.77 L2152.34 1282.77 L2152.34 1278.83 Z" fill="#000000" fill-rule="nonzero" fill-opacity="1" /><path clip-path="url(#clip980)" d="M2221.34 1272.28 Q2224.7 1273 2226.57 1275.27 Q2228.47 1277.54 2228.47 1280.87 Q2228.47 1285.98 2224.95 1288.79 Q2221.43 1291.59 2214.95 1291.59 Q2212.78 1291.59 2210.46 1291.15 Q2208.17 1290.73 2205.72 1289.87 L2205.72 1285.36 Q2207.66 1286.49 2209.97 1287.07 Q2212.29 1287.65 2214.81 1287.65 Q2219.21 1287.65 2221.5 1285.92 Q2223.82 1284.18 2223.82 1280.87 Q2223.82 1277.81 2221.66 1276.1 Q2219.53 1274.36 2215.72 1274.36 L2211.69 1274.36 L2211.69 1270.52 L2215.9 1270.52 Q2219.35 1270.52 2221.18 1269.16 Q2223.01 1267.77 2223.01 1265.17 Q2223.01 1262.51 2221.11 1261.1 Q2219.23 1259.67 2215.72 1259.67 Q2213.79 1259.67 2211.59 1260.08 Q2209.4 1260.5 2206.76 1261.38 L2206.76 1257.21 Q2209.42 1256.47 2211.73 1256.1 Q2214.07 1255.73 2216.13 1255.73 Q2221.46 1255.73 2224.56 1258.16 Q2227.66 1260.57 2227.66 1264.69 Q2227.66 1267.56 2226.02 1269.55 Q2224.37 1271.52 2221.34 1272.28 Z" fill="#000000" fill-rule="nonzero" fill-opacity="1" /><path clip-path="url(#clip980)" d="M2247.34 1259.43 Q2243.72 1259.43 2241.9 1263 Q2240.09 1266.54 2240.09 1273.67 Q2240.09 1280.78 2241.9 1284.34 Q2243.72 1287.88 2247.34 1287.88 Q2250.97 1287.88 2252.78 1284.34 Q2254.6 1280.78 2254.6 1273.67 Q2254.6 1266.54 2252.78 1263 Q2250.97 1259.43 2247.34 1259.43 M2247.34 1255.73 Q2253.15 1255.73 2256.2 1260.34 Q2259.28 1264.92 2259.28 1273.67 Q2259.28 1282.4 2256.2 1287 Q2253.15 1291.59 2247.34 1291.59 Q2241.53 1291.59 2238.45 1287 Q2235.39 1282.4 2235.39 1273.67 Q2235.39 1264.92 2238.45 1260.34 Q2241.53 1255.73 2247.34 1255.73 Z" fill="#000000" fill-rule="nonzero" fill-opacity="1" /><polyline clip-path="url(#clip980)" style="stroke:#2ba02b; stroke-linecap:round; stroke-linejoin:round; stroke-width:8; stroke-opacity:1; fill:none" points="1816.21,1325.48 1956.42,1325.48 "/>
<path clip-path="url(#clip980)" d="M1979.79 1308.2 L1986.76 1308.2 L1995.58 1331.71 L2004.44 1308.2 L2011.41 1308.2 L2011.41 1342.76 L2006.85 1342.76 L2006.85 1312.41 L1997.94 1336.11 L1993.24 1336.11 L1984.33 1312.41 L1984.33 1342.76 L1979.79 1342.76 L1979.79 1308.2 Z" fill="#000000" fill-rule="nonzero" fill-opacity="1" /><path clip-path="url(#clip980)" d="M2025.37 1312.04 L2025.37 1325.02 L2031.25 1325.02 Q2034.51 1325.02 2036.29 1323.33 Q2038.08 1321.64 2038.08 1318.52 Q2038.08 1315.42 2036.29 1313.73 Q2034.51 1312.04 2031.25 1312.04 L2025.37 1312.04 M2020.69 1308.2 L2031.25 1308.2 Q2037.06 1308.2 2040.02 1310.83 Q2043.01 1313.45 2043.01 1318.52 Q2043.01 1323.64 2040.02 1326.25 Q2037.06 1328.87 2031.25 1328.87 L2025.37 1328.87 L2025.37 1342.76 L2020.69 1342.76 L2020.69 1308.2 Z" fill="#000000" fill-rule="nonzero" fill-opacity="1" /><path clip-path="url(#clip980)" d="M2070 1309.33 L2070 1313.89 Q2067.34 1312.62 2064.98 1311.99 Q2062.61 1311.37 2060.42 1311.37 Q2056.6 1311.37 2054.51 1312.85 Q2052.45 1314.33 2052.45 1317.06 Q2052.45 1319.35 2053.82 1320.53 Q2055.21 1321.69 2059.05 1322.41 L2061.87 1322.99 Q2067.1 1323.98 2069.58 1326.51 Q2072.08 1329.01 2072.08 1333.22 Q2072.08 1338.24 2068.7 1340.83 Q2065.35 1343.43 2058.84 1343.43 Q2056.39 1343.43 2053.61 1342.87 Q2050.85 1342.32 2047.89 1341.23 L2047.89 1336.41 Q2050.74 1338.01 2053.47 1338.82 Q2056.2 1339.63 2058.84 1339.63 Q2062.85 1339.63 2065.02 1338.06 Q2067.2 1336.48 2067.2 1333.57 Q2067.2 1331.02 2065.62 1329.58 Q2064.07 1328.15 2060.51 1327.43 L2057.66 1326.88 Q2052.43 1325.83 2050.09 1323.61 Q2047.75 1321.39 2047.75 1317.43 Q2047.75 1312.85 2050.97 1310.21 Q2054.21 1307.57 2059.88 1307.57 Q2062.31 1307.57 2064.84 1308.01 Q2067.36 1308.45 2070 1309.33 Z" fill="#000000" fill-rule="nonzero" fill-opacity="1" /><path clip-path="url(#clip980)" d="M2080.28 1336.88 L2085.16 1336.88 L2085.16 1340.86 L2081.36 1348.26 L2078.38 1348.26 L2080.28 1340.86 L2080.28 1336.88 Z" fill="#000000" fill-rule="nonzero" fill-opacity="1" /><path clip-path="url(#clip980)" d="M2121.8 1348.54 L2118.35 1339.68 L2111.25 1352.64 L2106.22 1352.64 L2116.27 1334.31 L2112.06 1323.4 Q2110.92 1320.49 2107.36 1320.49 L2106.22 1320.49 L2106.22 1316.83 L2107.85 1316.88 Q2113.82 1317.04 2115.32 1320.9 L2118.75 1329.77 L2125.85 1316.81 L2130.88 1316.81 L2120.83 1335.14 L2125.04 1346.04 Q2126.18 1348.96 2129.74 1348.96 L2130.88 1348.96 L2130.88 1352.62 L2129.26 1352.57 Q2123.29 1352.41 2121.8 1348.54 Z" fill="#000000" fill-rule="nonzero" fill-opacity="1" /><path clip-path="url(#clip980)" d="M2152.34 1321.23 L2182.01 1321.23 L2182.01 1325.12 L2152.34 1325.12 L2152.34 1321.23 M2152.34 1330.67 L2182.01 1330.67 L2182.01 1334.61 L2152.34 1334.61 L2152.34 1330.67 Z" fill="#000000" fill-rule="nonzero" fill-opacity="1" /><path clip-path="url(#clip980)" d="M2220.02 1312.27 L2208.22 1330.72 L2220.02 1330.72 L2220.02 1312.27 M2218.79 1308.2 L2224.67 1308.2 L2224.67 1330.72 L2229.6 1330.72 L2229.6 1334.61 L2224.67 1334.61 L2224.67 1342.76 L2220.02 1342.76 L2220.02 1334.61 L2204.42 1334.61 L2204.42 1330.09 L2218.79 1308.2 Z" fill="#000000" fill-rule="nonzero" fill-opacity="1" /><path clip-path="url(#clip980)" d="M2247.34 1311.27 Q2243.72 1311.27 2241.9 1314.84 Q2240.09 1318.38 2240.09 1325.51 Q2240.09 1332.62 2241.9 1336.18 Q2243.72 1339.72 2247.34 1339.72 Q2250.97 1339.72 2252.78 1336.18 Q2254.6 1332.62 2254.6 1325.51 Q2254.6 1318.38 2252.78 1314.84 Q2250.97 1311.27 2247.34 1311.27 M2247.34 1307.57 Q2253.15 1307.57 2256.2 1312.18 Q2259.28 1316.76 2259.28 1325.51 Q2259.28 1334.24 2256.2 1338.84 Q2253.15 1343.43 2247.34 1343.43 Q2241.53 1343.43 2238.45 1338.84 Q2235.39 1334.24 2235.39 1325.51 Q2235.39 1316.76 2238.45 1312.18 Q2241.53 1307.57 2247.34 1307.57 Z" fill="#000000" fill-rule="nonzero" fill-opacity="1" /></svg>
