<?xml version="1.0" encoding="utf-8"?>
<svg xmlns="http://www.w3.org/2000/svg" xmlns:xlink="http://www.w3.org/1999/xlink" width="600" height="400" viewBox="0 0 2400 1600">
<defs>
  <clipPath id="clip790">
    <rect x="0" y="0" width="2400" height="1600"/>
  </clipPath>
</defs>
<path clip-path="url(#clip790)" d="M0 1600 L2400 1600 L2400 8.88178e-14 L0 8.88178e-14  Z" fill="#ffffff" fill-rule="evenodd" fill-opacity="1"/>
<defs>
  <clipPath id="clip791">
    <rect x="480" y="0" width="1681" height="1600"/>
  </clipPath>
</defs>
<path clip-path="url(#clip790)" d="M279.704 1423.18 L2352.76 1423.18 L2352.76 123.472 L279.704 123.472  Z" fill="#ffffff" fill-rule="evenodd" fill-opacity="1"/>
<defs>
  <clipPath id="clip792">
    <rect x="279" y="123" width="2074" height="1301"/>
  </clipPath>
</defs>
<polyline clip-path="url(#clip792)" style="stroke:#000000; stroke-linecap:round; stroke-linejoin:round; stroke-width:2; stroke-opacity:0.1; fill:none" points="440.975,1423.18 440.975,123.472 "/>
<polyline clip-path="url(#clip792)" style="stroke:#000000; stroke-linecap:round; stroke-linejoin:round; stroke-width:2; stroke-opacity:0.1; fill:none" points="635.476,1423.18 635.476,123.472 "/>
<polyline clip-path="url(#clip792)" style="stroke:#000000; stroke-linecap:round; stroke-linejoin:round; stroke-width:2; stroke-opacity:0.1; fill:none" points="829.977,1423.18 829.977,123.472 "/>
<polyline clip-path="url(#clip792)" style="stroke:#000000; stroke-linecap:round; stroke-linejoin:round; stroke-width:2; stroke-opacity:0.1; fill:none" points="1024.48,1423.18 1024.48,123.472 "/>
<polyline clip-path="url(#clip792)" style="stroke:#000000; stroke-linecap:round; stroke-linejoin:round; stroke-width:2; stroke-opacity:0.1; fill:none" points="1218.98,1423.18 1218.98,123.472 "/>
<polyline clip-path="url(#clip792)" style="stroke:#000000; stroke-linecap:round; stroke-linejoin:round; stroke-width:2; stroke-opacity:0.1; fill:none" points="1413.48,1423.18 1413.48,123.472 "/>
<polyline clip-path="url(#clip792)" style="stroke:#000000; stroke-linecap:round; stroke-linejoin:round; stroke-width:2; stroke-opacity:0.1; fill:none" points="1607.98,1423.18 1607.98,123.472 "/>
<polyline clip-path="url(#clip792)" style="stroke:#000000; stroke-linecap:round; stroke-linejoin:round; stroke-width:2; stroke-opacity:0.1; fill:none" points="1802.48,1423.18 1802.48,123.472 "/>
<polyline clip-path="url(#clip792)" style="stroke:#000000; stroke-linecap:round; stroke-linejoin:round; stroke-width:2; stroke-opacity:0.1; fill:none" points="1996.98,1423.18 1996.98,123.472 "/>
<polyline clip-path="url(#clip792)" style="stroke:#000000; stroke-linecap:round; stroke-linejoin:round; stroke-width:2; stroke-opacity:0.1; fill:none" points="2191.49,1423.18 2191.49,123.472 "/>
<polyline clip-path="url(#clip792)" style="stroke:#000000; stroke-linecap:round; stroke-linejoin:round; stroke-width:2; stroke-opacity:0.1; fill:none" points="279.704,1423.18 2352.76,1423.18 "/>
<polyline clip-path="url(#clip792)" style="stroke:#000000; stroke-linecap:round; stroke-linejoin:round; stroke-width:2; stroke-opacity:0.1; fill:none" points="279.704,1160.95 2352.76,1160.95 "/>
<polyline clip-path="url(#clip792)" style="stroke:#000000; stroke-linecap:round; stroke-linejoin:round; stroke-width:2; stroke-opacity:0.1; fill:none" points="279.704,898.719 2352.76,898.719 "/>
<polyline clip-path="url(#clip792)" style="stroke:#000000; stroke-linecap:round; stroke-linejoin:round; stroke-width:2; stroke-opacity:0.1; fill:none" points="279.704,636.488 2352.76,636.488 "/>
<polyline clip-path="url(#clip792)" style="stroke:#000000; stroke-linecap:round; stroke-linejoin:round; stroke-width:2; stroke-opacity:0.1; fill:none" points="279.704,374.258 2352.76,374.258 "/>
<polyline clip-path="url(#clip790)" style="stroke:#000000; stroke-linecap:round; stroke-linejoin:round; stroke-width:4; stroke-opacity:1; fill:none" points="279.704,1423.18 2352.76,1423.18 "/>
<polyline clip-path="url(#clip790)" style="stroke:#000000; stroke-linecap:round; stroke-linejoin:round; stroke-width:4; stroke-opacity:1; fill:none" points="440.975,1423.18 440.975,1404.28 "/>
<polyline clip-path="url(#clip790)" style="stroke:#000000; stroke-linecap:round; stroke-linejoin:round; stroke-width:4; stroke-opacity:1; fill:none" points="635.476,1423.18 635.476,1404.28 "/>
<polyline clip-path="url(#clip790)" style="stroke:#000000; stroke-linecap:round; stroke-linejoin:round; stroke-width:4; stroke-opacity:1; fill:none" points="829.977,1423.18 829.977,1404.28 "/>
<polyline clip-path="url(#clip790)" style="stroke:#000000; stroke-linecap:round; stroke-linejoin:round; stroke-width:4; stroke-opacity:1; fill:none" points="1024.48,1423.18 1024.48,1404.28 "/>
<polyline clip-path="url(#clip790)" style="stroke:#000000; stroke-linecap:round; stroke-linejoin:round; stroke-width:4; stroke-opacity:1; fill:none" points="1218.98,1423.18 1218.98,1404.28 "/>
<polyline clip-path="url(#clip790)" style="stroke:#000000; stroke-linecap:round; stroke-linejoin:round; stroke-width:4; stroke-opacity:1; fill:none" points="1413.48,1423.18 1413.48,1404.28 "/>
<polyline clip-path="url(#clip790)" style="stroke:#000000; stroke-linecap:round; stroke-linejoin:round; stroke-width:4; stroke-opacity:1; fill:none" points="1607.98,1423.18 1607.98,1404.28 "/>
<polyline clip-path="url(#clip790)" style="stroke:#000000; stroke-linecap:round; stroke-linejoin:round; stroke-width:4; stroke-opacity:1; fill:none" points="1802.48,1423.18 1802.48,1404.28 "/>
<polyline clip-path="url(#clip790)" style="stroke:#000000; stroke-linecap:round; stroke-linejoin:round; stroke-width:4; stroke-opacity:1; fill:none" points="1996.98,1423.18 1996.98,1404.28 "/>
<polyline clip-path="url(#clip790)" style="stroke:#000000; stroke-linecap:round; stroke-linejoin:round; stroke-width:4; stroke-opacity:1; fill:none" points="2191.49,1423.18 2191.49,1404.28 "/>
<path clip-path="url(#clip790)" d="M416.6 1484.86 L416.6 1480.6 Q418.359 1481.44 420.164 1481.88 Q421.97 1482.32 423.706 1482.32 Q428.336 1482.32 430.766 1479.21 Q433.22 1476.09 433.567 1469.75 Q432.225 1471.74 430.164 1472.8 Q428.104 1473.87 425.604 1473.87 Q420.419 1473.87 417.387 1470.74 Q414.377 1467.59 414.377 1462.15 Q414.377 1456.83 417.526 1453.61 Q420.674 1450.39 425.905 1450.39 Q431.901 1450.39 435.049 1455 Q438.22 1459.58 438.22 1468.33 Q438.22 1476.51 434.331 1481.39 Q430.465 1486.25 423.914 1486.25 Q422.155 1486.25 420.35 1485.9 Q418.544 1485.56 416.6 1484.86 M425.905 1470.21 Q429.053 1470.21 430.882 1468.06 Q432.734 1465.9 432.734 1462.15 Q432.734 1458.43 430.882 1456.27 Q429.053 1454.1 425.905 1454.1 Q422.757 1454.1 420.905 1456.27 Q419.077 1458.43 419.077 1462.15 Q419.077 1465.9 420.905 1468.06 Q422.757 1470.21 425.905 1470.21 Z" fill="#000000" fill-rule="nonzero" fill-opacity="1" /><path clip-path="url(#clip790)" d="M446.669 1451.02 L465.025 1451.02 L465.025 1454.96 L450.951 1454.96 L450.951 1463.43 Q451.97 1463.08 452.988 1462.92 Q454.007 1462.73 455.025 1462.73 Q460.812 1462.73 464.192 1465.9 Q467.572 1469.08 467.572 1474.49 Q467.572 1480.07 464.099 1483.17 Q460.627 1486.25 454.308 1486.25 Q452.132 1486.25 449.863 1485.88 Q447.618 1485.51 445.211 1484.77 L445.211 1480.07 Q447.294 1481.2 449.516 1481.76 Q451.738 1482.32 454.215 1482.32 Q458.22 1482.32 460.558 1480.21 Q462.896 1478.1 462.896 1474.49 Q462.896 1470.88 460.558 1468.77 Q458.22 1466.67 454.215 1466.67 Q452.34 1466.67 450.465 1467.08 Q448.613 1467.5 446.669 1468.38 L446.669 1451.02 Z" fill="#000000" fill-rule="nonzero" fill-opacity="1" /><path clip-path="url(#clip790)" d="M620.846 1469.17 Q617.513 1469.17 615.592 1470.95 Q613.693 1472.73 613.693 1475.86 Q613.693 1478.98 615.592 1480.77 Q617.513 1482.55 620.846 1482.55 Q624.18 1482.55 626.101 1480.77 Q628.022 1478.96 628.022 1475.86 Q628.022 1472.73 626.101 1470.95 Q624.203 1469.17 620.846 1469.17 M616.17 1467.18 Q613.161 1466.44 611.471 1464.38 Q609.805 1462.32 609.805 1459.35 Q609.805 1455.21 612.744 1452.8 Q615.707 1450.39 620.846 1450.39 Q626.008 1450.39 628.948 1452.8 Q631.888 1455.21 631.888 1459.35 Q631.888 1462.32 630.198 1464.38 Q628.531 1466.44 625.545 1467.18 Q628.925 1467.96 630.8 1470.26 Q632.698 1472.55 632.698 1475.86 Q632.698 1480.88 629.619 1483.57 Q626.564 1486.25 620.846 1486.25 Q615.129 1486.25 612.05 1483.57 Q608.994 1480.88 608.994 1475.86 Q608.994 1472.55 610.893 1470.26 Q612.791 1467.96 616.17 1467.18 M614.457 1459.79 Q614.457 1462.48 616.124 1463.98 Q617.814 1465.49 620.846 1465.49 Q623.855 1465.49 625.545 1463.98 Q627.258 1462.48 627.258 1459.79 Q627.258 1457.11 625.545 1455.6 Q623.855 1454.1 620.846 1454.1 Q617.814 1454.1 616.124 1455.6 Q614.457 1457.11 614.457 1459.79 Z" fill="#000000" fill-rule="nonzero" fill-opacity="1" /><path clip-path="url(#clip790)" d="M641.054 1451.02 L659.411 1451.02 L659.411 1454.96 L645.337 1454.96 L645.337 1463.43 Q646.355 1463.08 647.374 1462.92 Q648.392 1462.73 649.411 1462.73 Q655.198 1462.73 658.577 1465.9 Q661.957 1469.08 661.957 1474.49 Q661.957 1480.07 658.485 1483.17 Q655.013 1486.25 648.693 1486.25 Q646.517 1486.25 644.249 1485.88 Q642.003 1485.51 639.596 1484.77 L639.596 1480.07 Q641.679 1481.2 643.902 1481.76 Q646.124 1482.32 648.601 1482.32 Q652.605 1482.32 654.943 1480.21 Q657.281 1478.1 657.281 1474.49 Q657.281 1470.88 654.943 1468.77 Q652.605 1466.67 648.601 1466.67 Q646.726 1466.67 644.851 1467.08 Q642.999 1467.5 641.054 1468.38 L641.054 1451.02 Z" fill="#000000" fill-rule="nonzero" fill-opacity="1" /><path clip-path="url(#clip790)" d="M803.831 1451.02 L826.053 1451.02 L826.053 1453.01 L813.507 1485.58 L808.623 1485.58 L820.428 1454.96 L803.831 1454.96 L803.831 1451.02 Z" fill="#000000" fill-rule="nonzero" fill-opacity="1" /><path clip-path="url(#clip790)" d="M835.22 1451.02 L853.576 1451.02 L853.576 1454.96 L839.502 1454.96 L839.502 1463.43 Q840.521 1463.08 841.539 1462.92 Q842.558 1462.73 843.576 1462.73 Q849.363 1462.73 852.743 1465.9 Q856.123 1469.08 856.123 1474.49 Q856.123 1480.07 852.65 1483.17 Q849.178 1486.25 842.859 1486.25 Q840.683 1486.25 838.414 1485.88 Q836.169 1485.51 833.762 1484.77 L833.762 1480.07 Q835.845 1481.2 838.067 1481.76 Q840.289 1482.32 842.766 1482.32 Q846.771 1482.32 849.109 1480.21 Q851.447 1478.1 851.447 1474.49 Q851.447 1470.88 849.109 1468.77 Q846.771 1466.67 842.766 1466.67 Q840.891 1466.67 839.016 1467.08 Q837.164 1467.5 835.22 1468.38 L835.22 1451.02 Z" fill="#000000" fill-rule="nonzero" fill-opacity="1" /><path clip-path="url(#clip790)" d="M1010.38 1466.44 Q1007.23 1466.44 1005.38 1468.59 Q1003.55 1470.74 1003.55 1474.49 Q1003.55 1478.22 1005.38 1480.39 Q1007.23 1482.55 1010.38 1482.55 Q1013.53 1482.55 1015.36 1480.39 Q1017.21 1478.22 1017.21 1474.49 Q1017.21 1470.74 1015.36 1468.59 Q1013.53 1466.44 1010.38 1466.44 M1019.66 1451.78 L1019.66 1456.04 Q1017.9 1455.21 1016.1 1454.77 Q1014.32 1454.33 1012.56 1454.33 Q1007.93 1454.33 1005.47 1457.45 Q1003.04 1460.58 1002.7 1466.9 Q1004.06 1464.89 1006.12 1463.82 Q1008.18 1462.73 1010.66 1462.73 Q1015.87 1462.73 1018.88 1465.9 Q1021.91 1469.05 1021.91 1474.49 Q1021.91 1479.82 1018.76 1483.03 Q1015.61 1486.25 1010.38 1486.25 Q1004.39 1486.25 1001.21 1481.67 Q998.043 1477.06 998.043 1468.33 Q998.043 1460.14 1001.93 1455.28 Q1005.82 1450.39 1012.37 1450.39 Q1014.13 1450.39 1015.91 1450.74 Q1017.72 1451.09 1019.66 1451.78 Z" fill="#000000" fill-rule="nonzero" fill-opacity="1" /><path clip-path="url(#clip790)" d="M1030.01 1451.02 L1048.37 1451.02 L1048.37 1454.96 L1034.29 1454.96 L1034.29 1463.43 Q1035.31 1463.08 1036.33 1462.92 Q1037.35 1462.73 1038.37 1462.73 Q1044.15 1462.73 1047.53 1465.9 Q1050.91 1469.08 1050.91 1474.49 Q1050.91 1480.07 1047.44 1483.17 Q1043.97 1486.25 1037.65 1486.25 Q1035.47 1486.25 1033.2 1485.88 Q1030.96 1485.51 1028.55 1484.77 L1028.55 1480.07 Q1030.64 1481.2 1032.86 1481.76 Q1035.08 1482.32 1037.56 1482.32 Q1041.56 1482.32 1043.9 1480.21 Q1046.24 1478.1 1046.24 1474.49 Q1046.24 1470.88 1043.9 1468.77 Q1041.56 1466.67 1037.56 1466.67 Q1035.68 1466.67 1033.81 1467.08 Q1031.95 1467.5 1030.01 1468.38 L1030.01 1451.02 Z" fill="#000000" fill-rule="nonzero" fill-opacity="1" /><path clip-path="url(#clip790)" d="M1194.18 1451.02 L1212.53 1451.02 L1212.53 1454.96 L1198.46 1454.96 L1198.46 1463.43 Q1199.48 1463.08 1200.5 1462.92 Q1201.51 1462.73 1202.53 1462.73 Q1208.32 1462.73 1211.7 1465.9 Q1215.08 1469.08 1215.08 1474.49 Q1215.08 1480.07 1211.61 1483.17 Q1208.13 1486.25 1201.82 1486.25 Q1199.64 1486.25 1197.37 1485.88 Q1195.13 1485.51 1192.72 1484.77 L1192.72 1480.07 Q1194.8 1481.2 1197.02 1481.76 Q1199.25 1482.32 1201.72 1482.32 Q1205.73 1482.32 1208.07 1480.21 Q1210.4 1478.1 1210.4 1474.49 Q1210.4 1470.88 1208.07 1468.77 Q1205.73 1466.67 1201.72 1466.67 Q1199.85 1466.67 1197.97 1467.08 Q1196.12 1467.5 1194.18 1468.38 L1194.18 1451.02 Z" fill="#000000" fill-rule="nonzero" fill-opacity="1" /><path clip-path="url(#clip790)" d="M1224.34 1451.02 L1242.69 1451.02 L1242.69 1454.96 L1228.62 1454.96 L1228.62 1463.43 Q1229.64 1463.08 1230.66 1462.92 Q1231.68 1462.73 1232.69 1462.73 Q1238.48 1462.73 1241.86 1465.9 Q1245.24 1469.08 1245.24 1474.49 Q1245.24 1480.07 1241.77 1483.17 Q1238.3 1486.25 1231.98 1486.25 Q1229.8 1486.25 1227.53 1485.88 Q1225.29 1485.51 1222.88 1484.77 L1222.88 1480.07 Q1224.96 1481.2 1227.19 1481.76 Q1229.41 1482.32 1231.88 1482.32 Q1235.89 1482.32 1238.23 1480.21 Q1240.56 1478.1 1240.56 1474.49 Q1240.56 1470.88 1238.23 1468.77 Q1235.89 1466.67 1231.88 1466.67 Q1230.01 1466.67 1228.13 1467.08 Q1226.28 1467.5 1224.34 1468.38 L1224.34 1451.02 Z" fill="#000000" fill-rule="nonzero" fill-opacity="1" /><path clip-path="url(#clip790)" d="M1402.15 1455.09 L1390.34 1473.54 L1402.15 1473.54 L1402.15 1455.09 M1400.92 1451.02 L1406.8 1451.02 L1406.8 1473.54 L1411.73 1473.54 L1411.73 1477.43 L1406.8 1477.43 L1406.8 1485.58 L1402.15 1485.58 L1402.15 1477.43 L1386.55 1477.43 L1386.55 1472.92 L1400.92 1451.02 Z" fill="#000000" fill-rule="nonzero" fill-opacity="1" /><path clip-path="url(#clip790)" d="M1419.51 1451.02 L1437.87 1451.02 L1437.87 1454.96 L1423.79 1454.96 L1423.79 1463.43 Q1424.81 1463.08 1425.83 1462.92 Q1426.85 1462.73 1427.87 1462.73 Q1433.65 1462.73 1437.03 1465.9 Q1440.41 1469.08 1440.41 1474.49 Q1440.41 1480.07 1436.94 1483.17 Q1433.47 1486.25 1427.15 1486.25 Q1424.97 1486.25 1422.7 1485.88 Q1420.46 1485.51 1418.05 1484.77 L1418.05 1480.07 Q1420.14 1481.2 1422.36 1481.76 Q1424.58 1482.32 1427.06 1482.32 Q1431.06 1482.32 1433.4 1480.21 Q1435.74 1478.1 1435.74 1474.49 Q1435.74 1470.88 1433.4 1468.77 Q1431.06 1466.67 1427.06 1466.67 Q1425.18 1466.67 1423.31 1467.08 Q1421.45 1467.5 1419.51 1468.38 L1419.51 1451.02 Z" fill="#000000" fill-rule="nonzero" fill-opacity="1" /><path clip-path="url(#clip790)" d="M1597.32 1466.95 Q1600.68 1467.66 1602.55 1469.93 Q1604.45 1472.2 1604.45 1475.53 Q1604.45 1480.65 1600.93 1483.45 Q1597.41 1486.25 1590.93 1486.25 Q1588.76 1486.25 1586.44 1485.81 Q1584.15 1485.39 1581.7 1484.54 L1581.7 1480.02 Q1583.64 1481.16 1585.96 1481.74 Q1588.27 1482.32 1590.79 1482.32 Q1595.19 1482.32 1597.48 1480.58 Q1599.8 1478.84 1599.8 1475.53 Q1599.8 1472.48 1597.65 1470.77 Q1595.52 1469.03 1591.7 1469.03 L1587.67 1469.03 L1587.67 1465.19 L1591.88 1465.19 Q1595.33 1465.19 1597.16 1463.82 Q1598.99 1462.43 1598.99 1459.84 Q1598.99 1457.18 1597.09 1455.77 Q1595.22 1454.33 1591.7 1454.33 Q1589.78 1454.33 1587.58 1454.75 Q1585.38 1455.16 1582.74 1456.04 L1582.74 1451.88 Q1585.4 1451.14 1587.72 1450.77 Q1590.05 1450.39 1592.11 1450.39 Q1597.44 1450.39 1600.54 1452.83 Q1603.64 1455.23 1603.64 1459.35 Q1603.64 1462.22 1602 1464.21 Q1600.35 1466.18 1597.32 1466.95 Z" fill="#000000" fill-rule="nonzero" fill-opacity="1" /><path clip-path="url(#clip790)" d="M1613.36 1451.02 L1631.72 1451.02 L1631.72 1454.96 L1617.65 1454.96 L1617.65 1463.43 Q1618.66 1463.08 1619.68 1462.92 Q1620.7 1462.73 1621.72 1462.73 Q1627.51 1462.73 1630.89 1465.9 Q1634.27 1469.08 1634.27 1474.49 Q1634.27 1480.07 1630.79 1483.17 Q1627.32 1486.25 1621 1486.25 Q1618.83 1486.25 1616.56 1485.88 Q1614.31 1485.51 1611.91 1484.77 L1611.91 1480.07 Q1613.99 1481.2 1616.21 1481.76 Q1618.43 1482.32 1620.91 1482.32 Q1624.91 1482.32 1627.25 1480.21 Q1629.59 1478.1 1629.59 1474.49 Q1629.59 1470.88 1627.25 1468.77 Q1624.91 1466.67 1620.91 1466.67 Q1619.03 1466.67 1617.16 1467.08 Q1615.31 1467.5 1613.36 1468.38 L1613.36 1451.02 Z" fill="#000000" fill-rule="nonzero" fill-opacity="1" /><path clip-path="url(#clip790)" d="M1781.75 1481.64 L1798.07 1481.64 L1798.07 1485.58 L1776.13 1485.58 L1776.13 1481.64 Q1778.79 1478.89 1783.37 1474.26 Q1787.98 1469.61 1789.16 1468.27 Q1791.41 1465.74 1792.29 1464.01 Q1793.19 1462.25 1793.19 1460.56 Q1793.19 1457.8 1791.24 1456.07 Q1789.32 1454.33 1786.22 1454.33 Q1784.02 1454.33 1781.57 1455.09 Q1779.14 1455.86 1776.36 1457.41 L1776.36 1452.69 Q1779.18 1451.55 1781.64 1450.97 Q1784.09 1450.39 1786.13 1450.39 Q1791.5 1450.39 1794.69 1453.08 Q1797.89 1455.77 1797.89 1460.26 Q1797.89 1462.39 1797.08 1464.31 Q1796.29 1466.2 1794.18 1468.8 Q1793.61 1469.47 1790.5 1472.69 Q1787.4 1475.88 1781.75 1481.64 Z" fill="#000000" fill-rule="nonzero" fill-opacity="1" /><path clip-path="url(#clip790)" d="M1807.93 1451.02 L1826.29 1451.02 L1826.29 1454.96 L1812.22 1454.96 L1812.22 1463.43 Q1813.24 1463.08 1814.25 1462.92 Q1815.27 1462.73 1816.29 1462.73 Q1822.08 1462.73 1825.46 1465.9 Q1828.84 1469.08 1828.84 1474.49 Q1828.84 1480.07 1825.36 1483.17 Q1821.89 1486.25 1815.57 1486.25 Q1813.4 1486.25 1811.13 1485.88 Q1808.88 1485.51 1806.48 1484.77 L1806.48 1480.07 Q1808.56 1481.2 1810.78 1481.76 Q1813 1482.32 1815.48 1482.32 Q1819.49 1482.32 1821.82 1480.21 Q1824.16 1478.1 1824.16 1474.49 Q1824.16 1470.88 1821.82 1468.77 Q1819.49 1466.67 1815.48 1466.67 Q1813.61 1466.67 1811.73 1467.08 Q1809.88 1467.5 1807.93 1468.38 L1807.93 1451.02 Z" fill="#000000" fill-rule="nonzero" fill-opacity="1" /><path clip-path="url(#clip790)" d="M1972.17 1481.64 L1979.81 1481.64 L1979.81 1455.28 L1971.5 1456.95 L1971.5 1452.69 L1979.76 1451.02 L1984.44 1451.02 L1984.44 1481.64 L1992.08 1481.64 L1992.08 1485.58 L1972.17 1485.58 L1972.17 1481.64 Z" fill="#000000" fill-rule="nonzero" fill-opacity="1" /><path clip-path="url(#clip790)" d="M2001.57 1451.02 L2019.92 1451.02 L2019.92 1454.96 L2005.85 1454.96 L2005.85 1463.43 Q2006.87 1463.08 2007.89 1462.92 Q2008.91 1462.73 2009.92 1462.73 Q2015.71 1462.73 2019.09 1465.9 Q2022.47 1469.08 2022.47 1474.49 Q2022.47 1480.07 2019 1483.17 Q2015.53 1486.25 2009.21 1486.25 Q2007.03 1486.25 2004.76 1485.88 Q2002.52 1485.51 2000.11 1484.77 L2000.11 1480.07 Q2002.19 1481.2 2004.41 1481.76 Q2006.64 1482.32 2009.11 1482.32 Q2013.12 1482.32 2015.46 1480.21 Q2017.79 1478.1 2017.79 1474.49 Q2017.79 1470.88 2015.46 1468.77 Q2013.12 1466.67 2009.11 1466.67 Q2007.24 1466.67 2005.36 1467.08 Q2003.51 1467.5 2001.57 1468.38 L2001.57 1451.02 Z" fill="#000000" fill-rule="nonzero" fill-opacity="1" /><path clip-path="url(#clip790)" d="M2181.76 1451.02 L2200.12 1451.02 L2200.12 1454.96 L2186.05 1454.96 L2186.05 1463.43 Q2187.06 1463.08 2188.08 1462.92 Q2189.1 1462.73 2190.12 1462.73 Q2195.91 1462.73 2199.29 1465.9 Q2202.67 1469.08 2202.67 1474.49 Q2202.67 1480.07 2199.19 1483.17 Q2195.72 1486.25 2189.4 1486.25 Q2187.23 1486.25 2184.96 1485.88 Q2182.71 1485.51 2180.3 1484.77 L2180.3 1480.07 Q2182.39 1481.2 2184.61 1481.76 Q2186.83 1482.32 2189.31 1482.32 Q2193.31 1482.32 2195.65 1480.21 Q2197.99 1478.1 2197.99 1474.49 Q2197.99 1470.88 2195.65 1468.77 Q2193.31 1466.67 2189.31 1466.67 Q2187.43 1466.67 2185.56 1467.08 Q2183.71 1467.5 2181.76 1468.38 L2181.76 1451.02 Z" fill="#000000" fill-rule="nonzero" fill-opacity="1" /><path clip-path="url(#clip790)" d="M1114.52 1547.13 Q1111.75 1547.13 1110.16 1549.49 Q1108.6 1551.84 1108.6 1556.04 Q1108.6 1560.18 1110.16 1562.57 Q1111.75 1564.92 1114.52 1564.92 Q1117.22 1564.92 1118.78 1562.57 Q1120.37 1560.18 1120.37 1556.04 Q1120.37 1551.87 1118.78 1549.52 Q1117.22 1547.13 1114.52 1547.13 M1114.52 1543.09 Q1119.55 1543.09 1122.51 1546.59 Q1125.47 1550.09 1125.47 1556.04 Q1125.47 1562 1122.47 1565.5 Q1119.51 1568.97 1114.52 1568.97 Q1109.42 1568.97 1106.46 1565.5 Q1103.5 1562 1103.5 1556.04 Q1103.5 1550.06 1106.46 1546.59 Q1109.46 1543.09 1114.52 1543.09 M1081.67 1523.71 Q1078.93 1523.71 1077.34 1526.09 Q1075.78 1528.45 1075.78 1532.59 Q1075.78 1536.79 1077.34 1539.14 Q1078.9 1541.5 1081.67 1541.5 Q1084.44 1541.5 1086 1539.14 Q1087.59 1536.79 1087.59 1532.59 Q1087.59 1528.48 1086 1526.09 Q1084.41 1523.71 1081.67 1523.71 M1110.41 1519.66 L1115.5 1519.66 L1085.78 1568.97 L1080.68 1568.97 L1110.41 1519.66 M1081.67 1519.66 Q1086.7 1519.66 1089.69 1523.17 Q1092.68 1526.63 1092.68 1532.59 Q1092.68 1538.6 1089.69 1542.07 Q1086.73 1545.54 1081.67 1545.54 Q1076.61 1545.54 1073.65 1542.07 Q1070.72 1538.57 1070.72 1532.59 Q1070.72 1526.67 1073.68 1523.17 Q1076.64 1519.66 1081.67 1519.66 Z" fill="#000000" fill-rule="nonzero" fill-opacity="1" /><path clip-path="url(#clip790)" d="M1179.38 1537.81 L1179.38 1518.52 L1185.24 1518.52 L1185.24 1568.04 L1179.38 1568.04 L1179.38 1562.7 Q1177.54 1565.88 1174.7 1567.44 Q1171.9 1568.97 1167.96 1568.97 Q1161.5 1568.97 1157.42 1563.81 Q1153.38 1558.65 1153.38 1550.25 Q1153.38 1541.85 1157.42 1536.69 Q1161.5 1531.54 1167.96 1531.54 Q1171.9 1531.54 1174.7 1533.1 Q1177.54 1534.62 1179.38 1537.81 M1159.43 1550.25 Q1159.43 1556.71 1162.07 1560.4 Q1164.74 1564.07 1169.39 1564.07 Q1174.04 1564.07 1176.71 1560.4 Q1179.38 1556.71 1179.38 1550.25 Q1179.38 1543.79 1176.71 1540.13 Q1174.04 1536.44 1169.39 1536.44 Q1164.74 1536.44 1162.07 1540.13 Q1159.43 1543.79 1159.43 1550.25 Z" fill="#000000" fill-rule="nonzero" fill-opacity="1" /><path clip-path="url(#clip790)" d="M1213.5 1550.12 Q1206.41 1550.12 1203.67 1551.75 Q1200.93 1553.37 1200.93 1557.29 Q1200.93 1560.4 1202.97 1562.25 Q1205.04 1564.07 1208.57 1564.07 Q1213.44 1564.07 1216.37 1560.63 Q1219.33 1557.16 1219.33 1551.43 L1219.33 1550.12 L1213.5 1550.12 M1225.18 1547.71 L1225.18 1568.04 L1219.33 1568.04 L1219.33 1562.63 Q1217.32 1565.88 1214.33 1567.44 Q1211.34 1568.97 1207.01 1568.97 Q1201.54 1568.97 1198.29 1565.91 Q1195.07 1562.82 1195.07 1557.67 Q1195.07 1551.65 1199.08 1548.6 Q1203.13 1545.54 1211.12 1545.54 L1219.33 1545.54 L1219.33 1544.97 Q1219.33 1540.93 1216.65 1538.73 Q1214.01 1536.5 1209.21 1536.5 Q1206.15 1536.5 1203.25 1537.23 Q1200.36 1537.97 1197.68 1539.43 L1197.68 1534.02 Q1200.9 1532.78 1203.92 1532.17 Q1206.95 1531.54 1209.81 1531.54 Q1217.55 1531.54 1221.36 1535.55 Q1225.18 1539.56 1225.18 1547.71 Z" fill="#000000" fill-rule="nonzero" fill-opacity="1" /><path clip-path="url(#clip790)" d="M1243.04 1522.27 L1243.04 1532.4 L1255.1 1532.4 L1255.1 1536.95 L1243.04 1536.95 L1243.04 1556.3 Q1243.04 1560.66 1244.22 1561.9 Q1245.43 1563.14 1249.09 1563.14 L1255.1 1563.14 L1255.1 1568.04 L1249.09 1568.04 Q1242.31 1568.04 1239.73 1565.53 Q1237.15 1562.98 1237.15 1556.3 L1237.15 1536.95 L1232.86 1536.95 L1232.86 1532.4 L1237.15 1532.4 L1237.15 1522.27 L1243.04 1522.27 Z" fill="#000000" fill-rule="nonzero" fill-opacity="1" /><path clip-path="url(#clip790)" d="M1279.01 1550.12 Q1271.91 1550.12 1269.17 1551.75 Q1266.43 1553.37 1266.43 1557.29 Q1266.43 1560.4 1268.47 1562.25 Q1270.54 1564.07 1274.07 1564.07 Q1278.94 1564.07 1281.87 1560.63 Q1284.83 1557.16 1284.83 1551.43 L1284.83 1550.12 L1279.01 1550.12 M1290.69 1547.71 L1290.69 1568.04 L1284.83 1568.04 L1284.83 1562.63 Q1282.83 1565.88 1279.83 1567.44 Q1276.84 1568.97 1272.51 1568.97 Q1267.04 1568.97 1263.79 1565.91 Q1260.58 1562.82 1260.58 1557.67 Q1260.58 1551.65 1264.59 1548.6 Q1268.63 1545.54 1276.62 1545.54 L1284.83 1545.54 L1284.83 1544.97 Q1284.83 1540.93 1282.16 1538.73 Q1279.52 1536.5 1274.71 1536.5 Q1271.65 1536.5 1268.76 1537.23 Q1265.86 1537.97 1263.19 1539.43 L1263.19 1534.02 Q1266.4 1532.78 1269.43 1532.17 Q1272.45 1531.54 1275.31 1531.54 Q1283.05 1531.54 1286.87 1535.55 Q1290.69 1539.56 1290.69 1547.71 Z" fill="#000000" fill-rule="nonzero" fill-opacity="1" /><path clip-path="url(#clip790)" d="M1351.23 1539.24 Q1353.42 1535.29 1356.48 1533.41 Q1359.53 1531.54 1363.67 1531.54 Q1369.24 1531.54 1372.26 1535.45 Q1375.29 1539.33 1375.29 1546.53 L1375.29 1568.04 L1369.4 1568.04 L1369.4 1546.72 Q1369.4 1541.59 1367.59 1539.11 Q1365.77 1536.63 1362.05 1536.63 Q1357.5 1536.63 1354.85 1539.65 Q1352.21 1542.68 1352.21 1547.9 L1352.21 1568.04 L1346.32 1568.04 L1346.32 1546.72 Q1346.32 1541.56 1344.51 1539.11 Q1342.7 1536.63 1338.91 1536.63 Q1334.42 1536.63 1331.78 1539.68 Q1329.14 1542.71 1329.14 1547.9 L1329.14 1568.04 L1323.25 1568.04 L1323.25 1532.4 L1329.14 1532.4 L1329.14 1537.93 Q1331.14 1534.66 1333.94 1533.1 Q1336.74 1531.54 1340.59 1531.54 Q1344.48 1531.54 1347.18 1533.51 Q1349.92 1535.48 1351.23 1539.24 Z" fill="#000000" fill-rule="nonzero" fill-opacity="1" /><path clip-path="url(#clip790)" d="M1386.97 1532.4 L1392.83 1532.4 L1392.83 1568.04 L1386.97 1568.04 L1386.97 1532.4 M1386.97 1518.52 L1392.83 1518.52 L1392.83 1525.93 L1386.97 1525.93 L1386.97 1518.52 Z" fill="#000000" fill-rule="nonzero" fill-opacity="1" /><path clip-path="url(#clip790)" d="M1427.8 1533.45 L1427.8 1538.98 Q1425.32 1537.71 1422.65 1537.07 Q1419.98 1536.44 1417.11 1536.44 Q1412.75 1536.44 1410.55 1537.77 Q1408.39 1539.11 1408.39 1541.79 Q1408.39 1543.82 1409.95 1545 Q1411.51 1546.15 1416.22 1547.2 L1418.22 1547.64 Q1424.46 1548.98 1427.07 1551.43 Q1429.71 1553.85 1429.71 1558.21 Q1429.71 1563.17 1425.77 1566.07 Q1421.85 1568.97 1414.98 1568.97 Q1412.11 1568.97 1408.99 1568.39 Q1405.91 1567.85 1402.47 1566.74 L1402.47 1560.69 Q1405.72 1562.38 1408.87 1563.24 Q1412.02 1564.07 1415.11 1564.07 Q1419.24 1564.07 1421.47 1562.66 Q1423.7 1561.23 1423.7 1558.65 Q1423.7 1556.27 1422.08 1554.99 Q1420.48 1553.72 1415.04 1552.54 L1413 1552.07 Q1407.56 1550.92 1405.14 1548.56 Q1402.72 1546.18 1402.72 1542.04 Q1402.72 1537.01 1406.29 1534.27 Q1409.85 1531.54 1416.41 1531.54 Q1419.66 1531.54 1422.52 1532.01 Q1425.39 1532.49 1427.8 1533.45 Z" fill="#000000" fill-rule="nonzero" fill-opacity="1" /><path clip-path="url(#clip790)" d="M1461.77 1533.45 L1461.77 1538.98 Q1459.28 1537.71 1456.61 1537.07 Q1453.94 1536.44 1451.07 1536.44 Q1446.71 1536.44 1444.51 1537.77 Q1442.35 1539.11 1442.35 1541.79 Q1442.35 1543.82 1443.91 1545 Q1445.47 1546.15 1450.18 1547.2 L1452.19 1547.64 Q1458.42 1548.98 1461.03 1551.43 Q1463.68 1553.85 1463.68 1558.21 Q1463.68 1563.17 1459.73 1566.07 Q1455.81 1568.97 1448.94 1568.97 Q1446.07 1568.97 1442.96 1568.39 Q1439.87 1567.85 1436.43 1566.74 L1436.43 1560.69 Q1439.68 1562.38 1442.83 1563.24 Q1445.98 1564.07 1449.07 1564.07 Q1453.2 1564.07 1455.43 1562.66 Q1457.66 1561.23 1457.66 1558.65 Q1457.66 1556.27 1456.04 1554.99 Q1454.45 1553.72 1449 1552.54 L1446.97 1552.07 Q1441.52 1550.92 1439.1 1548.56 Q1436.68 1546.18 1436.68 1542.04 Q1436.68 1537.01 1440.25 1534.27 Q1443.81 1531.54 1450.37 1531.54 Q1453.62 1531.54 1456.48 1532.01 Q1459.35 1532.49 1461.77 1533.45 Z" fill="#000000" fill-rule="nonzero" fill-opacity="1" /><path clip-path="url(#clip790)" d="M1473 1532.4 L1478.86 1532.4 L1478.86 1568.04 L1473 1568.04 L1473 1532.4 M1473 1518.52 L1478.86 1518.52 L1478.86 1525.93 L1473 1525.93 L1473 1518.52 Z" fill="#000000" fill-rule="nonzero" fill-opacity="1" /><path clip-path="url(#clip790)" d="M1520.74 1546.53 L1520.74 1568.04 L1514.89 1568.04 L1514.89 1546.72 Q1514.89 1541.66 1512.91 1539.14 Q1510.94 1536.63 1506.99 1536.63 Q1502.25 1536.63 1499.51 1539.65 Q1496.78 1542.68 1496.78 1547.9 L1496.78 1568.04 L1490.89 1568.04 L1490.89 1532.4 L1496.78 1532.4 L1496.78 1537.93 Q1498.88 1534.72 1501.71 1533.13 Q1504.58 1531.54 1508.3 1531.54 Q1514.44 1531.54 1517.59 1535.36 Q1520.74 1539.14 1520.74 1546.53 Z" fill="#000000" fill-rule="nonzero" fill-opacity="1" /><path clip-path="url(#clip790)" d="M1555.88 1549.81 Q1555.88 1543.44 1553.24 1539.94 Q1550.63 1536.44 1545.89 1536.44 Q1541.18 1536.44 1538.54 1539.94 Q1535.93 1543.44 1535.93 1549.81 Q1535.93 1556.14 1538.54 1559.64 Q1541.18 1563.14 1545.89 1563.14 Q1550.63 1563.14 1553.24 1559.64 Q1555.88 1556.14 1555.88 1549.81 M1561.74 1563.62 Q1561.74 1572.72 1557.7 1577.15 Q1553.65 1581.6 1545.32 1581.6 Q1542.23 1581.6 1539.49 1581.13 Q1536.75 1580.68 1534.18 1579.72 L1534.18 1574.03 Q1536.75 1575.43 1539.27 1576.1 Q1541.78 1576.76 1544.39 1576.76 Q1550.15 1576.76 1553.02 1573.74 Q1555.88 1570.75 1555.88 1564.67 L1555.88 1561.77 Q1554.07 1564.92 1551.24 1566.48 Q1548.4 1568.04 1544.46 1568.04 Q1537.9 1568.04 1533.89 1563.05 Q1529.88 1558.05 1529.88 1549.81 Q1529.88 1541.53 1533.89 1536.53 Q1537.9 1531.54 1544.46 1531.54 Q1548.4 1531.54 1551.24 1533.1 Q1554.07 1534.66 1555.88 1537.81 L1555.88 1532.4 L1561.74 1532.4 L1561.74 1563.62 Z" fill="#000000" fill-rule="nonzero" fill-opacity="1" /><polyline clip-path="url(#clip790)" style="stroke:#000000; stroke-linecap:round; stroke-linejoin:round; stroke-width:4; stroke-opacity:1; fill:none" points="279.704,1423.18 279.704,123.472 "/>
<polyline clip-path="url(#clip790)" style="stroke:#000000; stroke-linecap:round; stroke-linejoin:round; stroke-width:4; stroke-opacity:1; fill:none" points="279.704,1423.18 298.602,1423.18 "/>
<polyline clip-path="url(#clip790)" style="stroke:#000000; stroke-linecap:round; stroke-linejoin:round; stroke-width:4; stroke-opacity:1; fill:none" points="279.704,1160.95 298.602,1160.95 "/>
<polyline clip-path="url(#clip790)" style="stroke:#000000; stroke-linecap:round; stroke-linejoin:round; stroke-width:4; stroke-opacity:1; fill:none" points="279.704,898.719 298.602,898.719 "/>
<polyline clip-path="url(#clip790)" style="stroke:#000000; stroke-linecap:round; stroke-linejoin:round; stroke-width:4; stroke-opacity:1; fill:none" points="279.704,636.488 298.602,636.488 "/>
<polyline clip-path="url(#clip790)" style="stroke:#000000; stroke-linecap:round; stroke-linejoin:round; stroke-width:4; stroke-opacity:1; fill:none" points="279.704,374.258 298.602,374.258 "/>
<path clip-path="url(#clip790)" d="M126.205 1408.98 Q122.593 1408.98 120.765 1412.54 Q118.959 1416.08 118.959 1423.21 Q118.959 1430.32 120.765 1433.89 Q122.593 1437.43 126.205 1437.43 Q129.839 1437.43 131.644 1433.89 Q133.473 1430.32 133.473 1423.21 Q133.473 1416.08 131.644 1412.54 Q129.839 1408.98 126.205 1408.98 M126.205 1405.27 Q132.015 1405.27 135.07 1409.88 Q138.149 1414.46 138.149 1423.21 Q138.149 1431.94 135.07 1436.55 Q132.015 1441.13 126.205 1441.13 Q120.394 1441.13 117.316 1436.55 Q114.26 1431.94 114.26 1423.21 Q114.26 1414.46 117.316 1409.88 Q120.394 1405.27 126.205 1405.27 Z" fill="#000000" fill-rule="nonzero" fill-opacity="1" /><path clip-path="url(#clip790)" d="M146.366 1434.58 L151.251 1434.58 L151.251 1440.46 L146.366 1440.46 L146.366 1434.58 Z" fill="#000000" fill-rule="nonzero" fill-opacity="1" /><path clip-path="url(#clip790)" d="M171.436 1408.98 Q167.825 1408.98 165.996 1412.54 Q164.19 1416.08 164.19 1423.21 Q164.19 1430.32 165.996 1433.89 Q167.825 1437.43 171.436 1437.43 Q175.07 1437.43 176.876 1433.89 Q178.704 1430.32 178.704 1423.21 Q178.704 1416.08 176.876 1412.54 Q175.07 1408.98 171.436 1408.98 M171.436 1405.27 Q177.246 1405.27 180.301 1409.88 Q183.38 1414.46 183.38 1423.21 Q183.38 1431.94 180.301 1436.55 Q177.246 1441.13 171.436 1441.13 Q165.626 1441.13 162.547 1436.55 Q159.491 1431.94 159.491 1423.21 Q159.491 1414.46 162.547 1409.88 Q165.626 1405.27 171.436 1405.27 Z" fill="#000000" fill-rule="nonzero" fill-opacity="1" /><path clip-path="url(#clip790)" d="M201.598 1408.98 Q197.987 1408.98 196.158 1412.54 Q194.352 1416.08 194.352 1423.21 Q194.352 1430.32 196.158 1433.89 Q197.987 1437.43 201.598 1437.43 Q205.232 1437.43 207.037 1433.89 Q208.866 1430.32 208.866 1423.21 Q208.866 1416.08 207.037 1412.54 Q205.232 1408.98 201.598 1408.98 M201.598 1405.27 Q207.408 1405.27 210.463 1409.88 Q213.542 1414.46 213.542 1423.21 Q213.542 1431.94 210.463 1436.55 Q207.408 1441.13 201.598 1441.13 Q195.787 1441.13 192.709 1436.55 Q189.653 1431.94 189.653 1423.21 Q189.653 1414.46 192.709 1409.88 Q195.787 1405.27 201.598 1405.27 Z" fill="#000000" fill-rule="nonzero" fill-opacity="1" /><path clip-path="url(#clip790)" d="M231.76 1408.98 Q228.148 1408.98 226.32 1412.54 Q224.514 1416.08 224.514 1423.21 Q224.514 1430.32 226.32 1433.89 Q228.148 1437.43 231.76 1437.43 Q235.394 1437.43 237.199 1433.89 Q239.028 1430.32 239.028 1423.21 Q239.028 1416.08 237.199 1412.54 Q235.394 1408.98 231.76 1408.98 M231.76 1405.27 Q237.57 1405.27 240.625 1409.88 Q243.704 1414.46 243.704 1423.21 Q243.704 1431.94 240.625 1436.55 Q237.57 1441.13 231.76 1441.13 Q225.949 1441.13 222.871 1436.55 Q219.815 1431.94 219.815 1423.21 Q219.815 1414.46 222.871 1409.88 Q225.949 1405.27 231.76 1405.27 Z" fill="#000000" fill-rule="nonzero" fill-opacity="1" /><path clip-path="url(#clip790)" d="M127.2 1146.75 Q123.589 1146.75 121.76 1150.31 Q119.955 1153.85 119.955 1160.98 Q119.955 1168.09 121.76 1171.66 Q123.589 1175.2 127.2 1175.2 Q130.834 1175.2 132.64 1171.66 Q134.468 1168.09 134.468 1160.98 Q134.468 1153.85 132.64 1150.31 Q130.834 1146.75 127.2 1146.75 M127.2 1143.04 Q133.01 1143.04 136.066 1147.65 Q139.144 1152.23 139.144 1160.98 Q139.144 1169.71 136.066 1174.32 Q133.01 1178.9 127.2 1178.9 Q121.39 1178.9 118.311 1174.32 Q115.256 1169.71 115.256 1160.98 Q115.256 1152.23 118.311 1147.65 Q121.39 1143.04 127.2 1143.04 Z" fill="#000000" fill-rule="nonzero" fill-opacity="1" /><path clip-path="url(#clip790)" d="M147.362 1172.35 L152.246 1172.35 L152.246 1178.23 L147.362 1178.23 L147.362 1172.35 Z" fill="#000000" fill-rule="nonzero" fill-opacity="1" /><path clip-path="url(#clip790)" d="M172.431 1146.75 Q168.82 1146.75 166.991 1150.31 Q165.186 1153.85 165.186 1160.98 Q165.186 1168.09 166.991 1171.66 Q168.82 1175.2 172.431 1175.2 Q176.065 1175.2 177.871 1171.66 Q179.7 1168.09 179.7 1160.98 Q179.7 1153.85 177.871 1150.31 Q176.065 1146.75 172.431 1146.75 M172.431 1143.04 Q178.241 1143.04 181.297 1147.65 Q184.376 1152.23 184.376 1160.98 Q184.376 1169.71 181.297 1174.32 Q178.241 1178.9 172.431 1178.9 Q166.621 1178.9 163.542 1174.32 Q160.487 1169.71 160.487 1160.98 Q160.487 1152.23 163.542 1147.65 Q166.621 1143.04 172.431 1143.04 Z" fill="#000000" fill-rule="nonzero" fill-opacity="1" /><path clip-path="url(#clip790)" d="M196.621 1174.29 L212.94 1174.29 L212.94 1178.23 L190.996 1178.23 L190.996 1174.29 Q193.658 1171.54 198.241 1166.91 Q202.848 1162.26 204.028 1160.91 Q206.274 1158.39 207.153 1156.66 Q208.056 1154.9 208.056 1153.21 Q208.056 1150.45 206.112 1148.72 Q204.19 1146.98 201.088 1146.98 Q198.889 1146.98 196.436 1147.74 Q194.005 1148.51 191.227 1150.06 L191.227 1145.34 Q194.051 1144.2 196.505 1143.62 Q198.959 1143.04 200.996 1143.04 Q206.366 1143.04 209.561 1145.73 Q212.755 1148.41 212.755 1152.91 Q212.755 1155.03 211.945 1156.96 Q211.158 1158.85 209.051 1161.45 Q208.473 1162.12 205.371 1165.34 Q202.269 1168.53 196.621 1174.29 Z" fill="#000000" fill-rule="nonzero" fill-opacity="1" /><path clip-path="url(#clip790)" d="M222.801 1143.67 L241.158 1143.67 L241.158 1147.6 L227.084 1147.6 L227.084 1156.08 Q228.102 1155.73 229.121 1155.57 Q230.139 1155.38 231.158 1155.38 Q236.945 1155.38 240.324 1158.55 Q243.704 1161.72 243.704 1167.14 Q243.704 1172.72 240.232 1175.82 Q236.76 1178.9 230.44 1178.9 Q228.264 1178.9 225.996 1178.53 Q223.75 1178.16 221.343 1177.42 L221.343 1172.72 Q223.426 1173.85 225.648 1174.41 Q227.871 1174.97 230.347 1174.97 Q234.352 1174.97 236.69 1172.86 Q239.028 1170.75 239.028 1167.14 Q239.028 1163.53 236.69 1161.42 Q234.352 1159.32 230.347 1159.32 Q228.473 1159.32 226.598 1159.73 Q224.746 1160.15 222.801 1161.03 L222.801 1143.67 Z" fill="#000000" fill-rule="nonzero" fill-opacity="1" /><path clip-path="url(#clip790)" d="M126.205 884.517 Q122.593 884.517 120.765 888.082 Q118.959 891.624 118.959 898.753 Q118.959 905.86 120.765 909.425 Q122.593 912.966 126.205 912.966 Q129.839 912.966 131.644 909.425 Q133.473 905.86 133.473 898.753 Q133.473 891.624 131.644 888.082 Q129.839 884.517 126.205 884.517 M126.205 880.814 Q132.015 880.814 135.07 885.42 Q138.149 890.004 138.149 898.753 Q138.149 907.48 135.07 912.087 Q132.015 916.67 126.205 916.67 Q120.394 916.67 117.316 912.087 Q114.26 907.48 114.26 898.753 Q114.26 890.004 117.316 885.42 Q120.394 880.814 126.205 880.814 Z" fill="#000000" fill-rule="nonzero" fill-opacity="1" /><path clip-path="url(#clip790)" d="M146.366 910.119 L151.251 910.119 L151.251 915.999 L146.366 915.999 L146.366 910.119 Z" fill="#000000" fill-rule="nonzero" fill-opacity="1" /><path clip-path="url(#clip790)" d="M171.436 884.517 Q167.825 884.517 165.996 888.082 Q164.19 891.624 164.19 898.753 Q164.19 905.86 165.996 909.425 Q167.825 912.966 171.436 912.966 Q175.07 912.966 176.876 909.425 Q178.704 905.86 178.704 898.753 Q178.704 891.624 176.876 888.082 Q175.07 884.517 171.436 884.517 M171.436 880.814 Q177.246 880.814 180.301 885.42 Q183.38 890.004 183.38 898.753 Q183.38 907.48 180.301 912.087 Q177.246 916.67 171.436 916.67 Q165.626 916.67 162.547 912.087 Q159.491 907.48 159.491 898.753 Q159.491 890.004 162.547 885.42 Q165.626 880.814 171.436 880.814 Z" fill="#000000" fill-rule="nonzero" fill-opacity="1" /><path clip-path="url(#clip790)" d="M191.644 881.439 L210 881.439 L210 885.374 L195.926 885.374 L195.926 893.846 Q196.945 893.499 197.963 893.337 Q198.982 893.152 200 893.152 Q205.787 893.152 209.167 896.323 Q212.547 899.494 212.547 904.911 Q212.547 910.49 209.074 913.591 Q205.602 916.67 199.283 916.67 Q197.107 916.67 194.838 916.3 Q192.593 915.929 190.186 915.189 L190.186 910.49 Q192.269 911.624 194.491 912.179 Q196.713 912.735 199.19 912.735 Q203.195 912.735 205.533 910.628 Q207.871 908.522 207.871 904.911 Q207.871 901.3 205.533 899.193 Q203.195 897.087 199.19 897.087 Q197.315 897.087 195.44 897.503 Q193.588 897.92 191.644 898.8 L191.644 881.439 Z" fill="#000000" fill-rule="nonzero" fill-opacity="1" /><path clip-path="url(#clip790)" d="M231.76 884.517 Q228.148 884.517 226.32 888.082 Q224.514 891.624 224.514 898.753 Q224.514 905.86 226.32 909.425 Q228.148 912.966 231.76 912.966 Q235.394 912.966 237.199 909.425 Q239.028 905.86 239.028 898.753 Q239.028 891.624 237.199 888.082 Q235.394 884.517 231.76 884.517 M231.76 880.814 Q237.57 880.814 240.625 885.42 Q243.704 890.004 243.704 898.753 Q243.704 907.48 240.625 912.087 Q237.57 916.67 231.76 916.67 Q225.949 916.67 222.871 912.087 Q219.815 907.48 219.815 898.753 Q219.815 890.004 222.871 885.42 Q225.949 880.814 231.76 880.814 Z" fill="#000000" fill-rule="nonzero" fill-opacity="1" /><path clip-path="url(#clip790)" d="M127.2 622.287 Q123.589 622.287 121.76 625.852 Q119.955 629.393 119.955 636.523 Q119.955 643.629 121.76 647.194 Q123.589 650.736 127.2 650.736 Q130.834 650.736 132.64 647.194 Q134.468 643.629 134.468 636.523 Q134.468 629.393 132.64 625.852 Q130.834 622.287 127.2 622.287 M127.2 618.583 Q133.01 618.583 136.066 623.19 Q139.144 627.773 139.144 636.523 Q139.144 645.25 136.066 649.856 Q133.01 654.44 127.2 654.44 Q121.39 654.44 118.311 649.856 Q115.256 645.25 115.256 636.523 Q115.256 627.773 118.311 623.19 Q121.39 618.583 127.2 618.583 Z" fill="#000000" fill-rule="nonzero" fill-opacity="1" /><path clip-path="url(#clip790)" d="M147.362 647.889 L152.246 647.889 L152.246 653.768 L147.362 653.768 L147.362 647.889 Z" fill="#000000" fill-rule="nonzero" fill-opacity="1" /><path clip-path="url(#clip790)" d="M172.431 622.287 Q168.82 622.287 166.991 625.852 Q165.186 629.393 165.186 636.523 Q165.186 643.629 166.991 647.194 Q168.82 650.736 172.431 650.736 Q176.065 650.736 177.871 647.194 Q179.7 643.629 179.7 636.523 Q179.7 629.393 177.871 625.852 Q176.065 622.287 172.431 622.287 M172.431 618.583 Q178.241 618.583 181.297 623.19 Q184.376 627.773 184.376 636.523 Q184.376 645.25 181.297 649.856 Q178.241 654.44 172.431 654.44 Q166.621 654.44 163.542 649.856 Q160.487 645.25 160.487 636.523 Q160.487 627.773 163.542 623.19 Q166.621 618.583 172.431 618.583 Z" fill="#000000" fill-rule="nonzero" fill-opacity="1" /><path clip-path="url(#clip790)" d="M191.413 619.208 L213.635 619.208 L213.635 621.199 L201.088 653.768 L196.204 653.768 L208.01 623.143 L191.413 623.143 L191.413 619.208 Z" fill="#000000" fill-rule="nonzero" fill-opacity="1" /><path clip-path="url(#clip790)" d="M222.801 619.208 L241.158 619.208 L241.158 623.143 L227.084 623.143 L227.084 631.616 Q228.102 631.268 229.121 631.106 Q230.139 630.921 231.158 630.921 Q236.945 630.921 240.324 634.092 Q243.704 637.264 243.704 642.68 Q243.704 648.259 240.232 651.361 Q236.76 654.44 230.44 654.44 Q228.264 654.44 225.996 654.069 Q223.75 653.699 221.343 652.958 L221.343 648.259 Q223.426 649.393 225.648 649.949 Q227.871 650.504 230.347 650.504 Q234.352 650.504 236.69 648.398 Q239.028 646.291 239.028 642.68 Q239.028 639.069 236.69 636.963 Q234.352 634.856 230.347 634.856 Q228.473 634.856 226.598 635.273 Q224.746 635.69 222.801 636.569 L222.801 619.208 Z" fill="#000000" fill-rule="nonzero" fill-opacity="1" /><path clip-path="url(#clip790)" d="M126.205 360.056 Q122.593 360.056 120.765 363.621 Q118.959 367.163 118.959 374.292 Q118.959 381.399 120.765 384.964 Q122.593 388.505 126.205 388.505 Q129.839 388.505 131.644 384.964 Q133.473 381.399 133.473 374.292 Q133.473 367.163 131.644 363.621 Q129.839 360.056 126.205 360.056 M126.205 356.353 Q132.015 356.353 135.07 360.959 Q138.149 365.542 138.149 374.292 Q138.149 383.019 135.07 387.626 Q132.015 392.209 126.205 392.209 Q120.394 392.209 117.316 387.626 Q114.26 383.019 114.26 374.292 Q114.26 365.542 117.316 360.959 Q120.394 356.353 126.205 356.353 Z" fill="#000000" fill-rule="nonzero" fill-opacity="1" /><path clip-path="url(#clip790)" d="M146.366 385.658 L151.251 385.658 L151.251 391.538 L146.366 391.538 L146.366 385.658 Z" fill="#000000" fill-rule="nonzero" fill-opacity="1" /><path clip-path="url(#clip790)" d="M162.246 387.603 L169.885 387.603 L169.885 361.237 L161.575 362.904 L161.575 358.644 L169.839 356.978 L174.514 356.978 L174.514 387.603 L182.153 387.603 L182.153 391.538 L162.246 391.538 L162.246 387.603 Z" fill="#000000" fill-rule="nonzero" fill-opacity="1" /><path clip-path="url(#clip790)" d="M201.598 360.056 Q197.987 360.056 196.158 363.621 Q194.352 367.163 194.352 374.292 Q194.352 381.399 196.158 384.964 Q197.987 388.505 201.598 388.505 Q205.232 388.505 207.037 384.964 Q208.866 381.399 208.866 374.292 Q208.866 367.163 207.037 363.621 Q205.232 360.056 201.598 360.056 M201.598 356.353 Q207.408 356.353 210.463 360.959 Q213.542 365.542 213.542 374.292 Q213.542 383.019 210.463 387.626 Q207.408 392.209 201.598 392.209 Q195.787 392.209 192.709 387.626 Q189.653 383.019 189.653 374.292 Q189.653 365.542 192.709 360.959 Q195.787 356.353 201.598 356.353 Z" fill="#000000" fill-rule="nonzero" fill-opacity="1" /><path clip-path="url(#clip790)" d="M231.76 360.056 Q228.148 360.056 226.32 363.621 Q224.514 367.163 224.514 374.292 Q224.514 381.399 226.32 384.964 Q228.148 388.505 231.76 388.505 Q235.394 388.505 237.199 384.964 Q239.028 381.399 239.028 374.292 Q239.028 367.163 237.199 363.621 Q235.394 360.056 231.76 360.056 M231.76 356.353 Q237.57 356.353 240.625 360.959 Q243.704 365.542 243.704 374.292 Q243.704 383.019 240.625 387.626 Q237.57 392.209 231.76 392.209 Q225.949 392.209 222.871 387.626 Q219.815 383.019 219.815 374.292 Q219.815 365.542 222.871 360.959 Q225.949 356.353 231.76 356.353 Z" fill="#000000" fill-rule="nonzero" fill-opacity="1" /><path clip-path="url(#clip790)" d="M33.7671 1050.82 L14.479 1050.82 L14.479 1044.97 L64.0042 1044.97 L64.0042 1050.82 L58.657 1050.82 Q61.8398 1052.67 63.3994 1055.5 Q64.9272 1058.3 64.9272 1062.25 Q64.9272 1068.71 59.771 1072.78 Q54.6147 1076.83 46.212 1076.83 Q37.8093 1076.83 32.6531 1072.78 Q27.4968 1068.71 27.4968 1062.25 Q27.4968 1058.3 29.0564 1055.5 Q30.5842 1052.67 33.7671 1050.82 M46.212 1070.78 Q52.6732 1070.78 56.3653 1068.14 Q60.0256 1065.46 60.0256 1060.82 Q60.0256 1056.17 56.3653 1053.5 Q52.6732 1050.82 46.212 1050.82 Q39.7508 1050.82 36.0905 1053.5 Q32.3984 1056.17 32.3984 1060.82 Q32.3984 1065.46 36.0905 1068.14 Q39.7508 1070.78 46.212 1070.78 Z" fill="#000000" fill-rule="nonzero" fill-opacity="1" /><path clip-path="url(#clip790)" d="M46.0847 1016.7 Q46.0847 1023.8 47.7079 1026.54 Q49.3312 1029.28 53.2461 1029.28 Q56.3653 1029.28 58.2114 1027.24 Q60.0256 1025.17 60.0256 1021.64 Q60.0256 1016.77 56.5881 1013.84 Q53.1188 1010.88 47.3897 1010.88 L46.0847 1010.88 L46.0847 1016.7 M43.6657 1005.02 L64.0042 1005.02 L64.0042 1010.88 L58.5933 1010.88 Q61.8398 1012.88 63.3994 1015.88 Q64.9272 1018.87 64.9272 1023.2 Q64.9272 1028.67 61.8716 1031.92 Q58.7843 1035.13 53.6281 1035.13 Q47.6125 1035.13 44.5569 1031.12 Q41.5014 1027.08 41.5014 1019.09 L41.5014 1010.88 L40.9285 1010.88 Q36.8862 1010.88 34.6901 1013.55 Q32.4621 1016.19 32.4621 1021 Q32.4621 1024.06 33.1941 1026.95 Q33.9262 1029.85 35.3903 1032.52 L29.9795 1032.52 Q28.7381 1029.31 28.1334 1026.28 Q27.4968 1023.26 27.4968 1020.39 Q27.4968 1012.66 31.5072 1008.84 Q35.5176 1005.02 43.6657 1005.02 Z" fill="#000000" fill-rule="nonzero" fill-opacity="1" /><path clip-path="url(#clip790)" d="M18.2347 987.166 L28.3562 987.166 L28.3562 975.103 L32.9077 975.103 L32.9077 987.166 L52.2594 987.166 Q56.6199 987.166 57.8613 985.988 Q59.1026 984.779 59.1026 981.119 L59.1026 975.103 L64.0042 975.103 L64.0042 981.119 Q64.0042 987.898 61.4897 990.476 Q58.9434 993.054 52.2594 993.054 L32.9077 993.054 L32.9077 997.351 L28.3562 997.351 L28.3562 993.054 L18.2347 993.054 L18.2347 987.166 Z" fill="#000000" fill-rule="nonzero" fill-opacity="1" /><path clip-path="url(#clip790)" d="M46.0847 951.2 Q46.0847 958.298 47.7079 961.035 Q49.3312 963.772 53.2461 963.772 Q56.3653 963.772 58.2114 961.735 Q60.0256 959.666 60.0256 956.133 Q60.0256 951.263 56.5881 948.335 Q53.1188 945.375 47.3897 945.375 L46.0847 945.375 L46.0847 951.2 M43.6657 939.519 L64.0042 939.519 L64.0042 945.375 L58.5933 945.375 Q61.8398 947.38 63.3994 950.372 Q64.9272 953.364 64.9272 957.693 Q64.9272 963.167 61.8716 966.414 Q58.7843 969.628 53.6281 969.628 Q47.6125 969.628 44.5569 965.618 Q41.5014 961.576 41.5014 953.587 L41.5014 945.375 L40.9285 945.375 Q36.8862 945.375 34.6901 948.049 Q32.4621 950.69 32.4621 955.497 Q32.4621 958.552 33.1941 961.449 Q33.9262 964.345 35.3903 967.019 L29.9795 967.019 Q28.7381 963.804 28.1334 960.78 Q27.4968 957.756 27.4968 954.892 Q27.4968 947.158 31.5072 943.338 Q35.5176 939.519 43.6657 939.519 Z" fill="#000000" fill-rule="nonzero" fill-opacity="1" /><path clip-path="url(#clip790)" d="M29.4065 904.73 L34.9447 904.73 Q33.6716 907.213 33.035 909.886 Q32.3984 912.56 32.3984 915.424 Q32.3984 919.785 33.7352 921.981 Q35.072 924.145 37.7456 924.145 Q39.7826 924.145 40.9603 922.586 Q42.1061 921.026 43.1565 916.316 L43.6021 914.31 Q44.9389 908.072 47.3897 905.462 Q49.8086 902.82 54.1691 902.82 Q59.1344 902.82 62.0308 906.767 Q64.9272 910.682 64.9272 917.557 Q64.9272 920.422 64.3543 923.541 Q63.8132 926.628 62.6992 930.066 L56.6518 930.066 Q58.3387 926.819 59.198 923.668 Q60.0256 920.517 60.0256 917.43 Q60.0256 913.292 58.6251 911.064 Q57.1929 908.836 54.6147 908.836 Q52.2276 908.836 50.9545 910.459 Q49.6813 912.051 48.5037 917.493 L48.0262 919.53 Q46.8804 924.973 44.5251 927.392 Q42.138 929.811 38.0002 929.811 Q32.9713 929.811 30.2341 926.246 Q27.4968 922.681 27.4968 916.125 Q27.4968 912.878 27.9743 910.014 Q28.4517 907.149 29.4065 904.73 Z" fill="#000000" fill-rule="nonzero" fill-opacity="1" /><path clip-path="url(#clip790)" d="M44.7161 863.003 L47.5806 863.003 L47.5806 889.93 Q53.6281 889.548 56.8109 886.301 Q59.9619 883.023 59.9619 877.198 Q59.9619 873.825 59.1344 870.674 Q58.3069 867.491 56.6518 864.372 L62.1899 864.372 Q63.5267 867.523 64.227 870.833 Q64.9272 874.143 64.9272 877.549 Q64.9272 886.079 59.9619 891.076 Q54.9967 896.041 46.5303 896.041 Q37.7774 896.041 32.6531 891.33 Q27.4968 886.588 27.4968 878.567 Q27.4968 871.374 32.1438 867.204 Q36.7589 863.003 44.7161 863.003 M42.9973 868.859 Q38.1912 868.923 35.3266 871.565 Q32.4621 874.175 32.4621 878.503 Q32.4621 883.405 35.2312 886.365 Q38.0002 889.293 43.0292 889.739 L42.9973 868.859 Z" fill="#000000" fill-rule="nonzero" fill-opacity="1" /><path clip-path="url(#clip790)" d="M18.2347 847.598 L28.3562 847.598 L28.3562 835.535 L32.9077 835.535 L32.9077 847.598 L52.2594 847.598 Q56.6199 847.598 57.8613 846.42 Q59.1026 845.211 59.1026 841.55 L59.1026 835.535 L64.0042 835.535 L64.0042 841.55 Q64.0042 848.33 61.4897 850.908 Q58.9434 853.486 52.2594 853.486 L32.9077 853.486 L32.9077 857.783 L28.3562 857.783 L28.3562 853.486 L18.2347 853.486 L18.2347 847.598 Z" fill="#000000" fill-rule="nonzero" fill-opacity="1" /><path clip-path="url(#clip790)" d="M35.1993 779.357 Q31.2526 777.161 29.3747 774.106 Q27.4968 771.05 27.4968 766.913 Q27.4968 761.343 31.4117 758.319 Q35.2948 755.295 42.4881 755.295 L64.0042 755.295 L64.0042 761.183 L42.679 761.183 Q37.5546 761.183 35.072 762.998 Q32.5894 764.812 32.5894 768.536 Q32.5894 773.087 35.6131 775.729 Q38.6368 778.371 43.8567 778.371 L64.0042 778.371 L64.0042 784.259 L42.679 784.259 Q37.5228 784.259 35.072 786.073 Q32.5894 787.888 32.5894 791.675 Q32.5894 796.163 35.6449 798.805 Q38.6686 801.446 43.8567 801.446 L64.0042 801.446 L64.0042 807.335 L28.3562 807.335 L28.3562 801.446 L33.8944 801.446 Q30.616 799.441 29.0564 796.64 Q27.4968 793.839 27.4968 789.988 Q27.4968 786.105 29.4702 783.4 Q31.4436 780.662 35.1993 779.357 Z" fill="#000000" fill-rule="nonzero" fill-opacity="1" /><path clip-path="url(#clip790)" d="M44.7161 713.122 L47.5806 713.122 L47.5806 740.049 Q53.6281 739.667 56.8109 736.421 Q59.9619 733.142 59.9619 727.318 Q59.9619 723.944 59.1344 720.793 Q58.3069 717.61 56.6518 714.491 L62.1899 714.491 Q63.5267 717.642 64.227 720.952 Q64.9272 724.262 64.9272 727.668 Q64.9272 736.198 59.9619 741.195 Q54.9967 746.16 46.5303 746.16 Q37.7774 746.16 32.6531 741.45 Q27.4968 736.707 27.4968 728.686 Q27.4968 721.493 32.1438 717.324 Q36.7589 713.122 44.7161 713.122 M42.9973 718.979 Q38.1912 719.042 35.3266 721.684 Q32.4621 724.294 32.4621 728.623 Q32.4621 733.524 35.2312 736.484 Q38.0002 739.413 43.0292 739.858 L42.9973 718.979 Z" fill="#000000" fill-rule="nonzero" fill-opacity="1" /><path clip-path="url(#clip790)" d="M46.0847 687.309 Q46.0847 694.407 47.7079 697.144 Q49.3312 699.882 53.2461 699.882 Q56.3653 699.882 58.2114 697.845 Q60.0256 695.776 60.0256 692.243 Q60.0256 687.373 56.5881 684.445 Q53.1188 681.485 47.3897 681.485 L46.0847 681.485 L46.0847 687.309 M43.6657 675.628 L64.0042 675.628 L64.0042 681.485 L58.5933 681.485 Q61.8398 683.49 63.3994 686.482 Q64.9272 689.474 64.9272 693.802 Q64.9272 699.277 61.8716 702.523 Q58.7843 705.738 53.6281 705.738 Q47.6125 705.738 44.5569 701.728 Q41.5014 697.685 41.5014 689.697 L41.5014 681.485 L40.9285 681.485 Q36.8862 681.485 34.6901 684.158 Q32.4621 686.8 32.4621 691.606 Q32.4621 694.662 33.1941 697.558 Q33.9262 700.455 35.3903 703.128 L29.9795 703.128 Q28.7381 699.913 28.1334 696.89 Q27.4968 693.866 27.4968 691.001 Q27.4968 683.267 31.5072 679.448 Q35.5176 675.628 43.6657 675.628 Z" fill="#000000" fill-rule="nonzero" fill-opacity="1" /><path clip-path="url(#clip790)" d="M42.4881 633.933 L64.0042 633.933 L64.0042 639.789 L42.679 639.789 Q37.6183 639.789 35.1038 641.763 Q32.5894 643.736 32.5894 647.683 Q32.5894 652.425 35.6131 655.163 Q38.6368 657.9 43.8567 657.9 L64.0042 657.9 L64.0042 663.788 L28.3562 663.788 L28.3562 657.9 L33.8944 657.9 Q30.6797 655.799 29.0883 652.966 Q27.4968 650.102 27.4968 646.378 Q27.4968 640.235 31.3163 637.084 Q35.1038 633.933 42.4881 633.933 Z" fill="#000000" fill-rule="nonzero" fill-opacity="1" /><path clip-path="url(#clip790)" d="M16.4842 601.277 L16.4842 591.696 L48.8219 579.57 L16.4842 567.379 L16.4842 557.799 L64.0042 557.799 L64.0042 564.069 L22.277 564.069 L54.8694 576.323 L54.8694 582.784 L22.277 595.038 L64.0042 595.038 L64.0042 601.277 L16.4842 601.277 Z" fill="#000000" fill-rule="nonzero" fill-opacity="1" /><path clip-path="url(#clip790)" d="M22.818 529.153 L46.4666 537.874 L46.4666 520.401 L22.818 529.153 M16.4842 532.782 L16.4842 525.493 L64.0042 507.383 L64.0042 514.067 L51.8138 518.395 L51.8138 539.816 L64.0042 544.145 L64.0042 550.924 L16.4842 532.782 Z" fill="#000000" fill-rule="nonzero" fill-opacity="1" /><path clip-path="url(#clip790)" d="M16.4842 500.444 L16.4842 470.398 L21.895 470.398 L21.895 494.015 L35.9632 494.015 L35.9632 471.385 L41.3741 471.385 L41.3741 494.015 L58.5933 494.015 L58.5933 469.825 L64.0042 469.825 L64.0042 500.444 L16.4842 500.444 Z" fill="#000000" fill-rule="nonzero" fill-opacity="1" /><path clip-path="url(#clip790)" d="M953.978 65.6895 L967.346 65.6895 L967.346 19.5497 L952.803 22.4663 L952.803 15.0127 L967.265 12.096 L975.448 12.096 L975.448 65.6895 L988.816 65.6895 L988.816 72.576 L953.978 72.576 L953.978 65.6895 Z" fill="#000000" fill-rule="nonzero" fill-opacity="1" /><path clip-path="url(#clip790)" d="M1022.6 12.096 L1073.76 12.096 L1073.76 18.9825 L1052.29 18.9825 L1052.29 72.576 L1044.07 72.576 L1044.07 18.9825 L1022.6 18.9825 L1022.6 12.096 Z" fill="#000000" fill-rule="nonzero" fill-opacity="1" /><path clip-path="url(#clip790)" d="M1095.44 34.1734 Q1094.18 33.4443 1092.68 33.1202 Q1091.22 32.7556 1089.44 32.7556 Q1083.12 32.7556 1079.72 36.8875 Q1076.36 40.9789 1076.36 48.6757 L1076.36 72.576 L1068.86 72.576 L1068.86 27.2059 L1076.36 27.2059 L1076.36 34.2544 Q1078.71 30.1225 1082.47 28.1376 Q1086.24 26.1121 1091.63 26.1121 Q1092.4 26.1121 1093.33 26.2337 Q1094.26 26.3147 1095.39 26.5172 L1095.44 34.1734 Z" fill="#000000" fill-rule="nonzero" fill-opacity="1" /><path clip-path="url(#clip790)" d="M1140.24 48.0275 L1140.24 51.6733 L1105.97 51.6733 Q1106.45 59.3701 1110.59 63.421 Q1114.76 67.4314 1122.17 67.4314 Q1126.47 67.4314 1130.48 66.3781 Q1134.53 65.3249 1138.5 63.2184 L1138.5 70.267 Q1134.49 71.9684 1130.27 72.8596 Q1126.06 73.7508 1121.73 73.7508 Q1110.87 73.7508 1104.51 67.4314 Q1098.19 61.1119 1098.19 50.3365 Q1098.19 39.1965 1104.19 32.6746 Q1110.22 26.1121 1120.43 26.1121 Q1129.58 26.1121 1134.89 32.0264 Q1140.24 37.9003 1140.24 48.0275 M1132.78 45.84 Q1132.7 39.7232 1129.34 36.0774 Q1126.02 32.4315 1120.51 32.4315 Q1114.27 32.4315 1110.5 35.9558 Q1106.78 39.4801 1106.21 45.8805 L1132.78 45.84 Z" fill="#000000" fill-rule="nonzero" fill-opacity="1" /><path clip-path="url(#clip790)" d="M1190.19 45.1919 L1190.19 72.576 L1182.73 72.576 L1182.73 45.4349 Q1182.73 38.994 1180.22 35.7938 Q1177.71 32.5936 1172.69 32.5936 Q1166.65 32.5936 1163.17 36.4419 Q1159.68 40.2903 1159.68 46.9338 L1159.68 72.576 L1152.19 72.576 L1152.19 27.2059 L1159.68 27.2059 L1159.68 34.2544 Q1162.36 30.163 1165.96 28.1376 Q1169.61 26.1121 1174.35 26.1121 Q1182.17 26.1121 1186.18 30.9732 Q1190.19 35.7938 1190.19 45.1919 Z" fill="#000000" fill-rule="nonzero" fill-opacity="1" /><path clip-path="url(#clip790)" d="M1234.91 34.0924 L1234.91 9.54393 L1242.36 9.54393 L1242.36 72.576 L1234.91 72.576 L1234.91 65.7705 Q1232.56 69.8214 1228.95 71.8063 Q1225.39 73.7508 1220.37 73.7508 Q1212.14 73.7508 1206.96 67.1883 Q1201.81 60.6258 1201.81 49.9314 Q1201.81 39.2371 1206.96 32.6746 Q1212.14 26.1121 1220.37 26.1121 Q1225.39 26.1121 1228.95 28.0971 Q1232.56 30.0415 1234.91 34.0924 M1209.51 49.9314 Q1209.51 58.1548 1212.87 62.8538 Q1216.27 67.5124 1222.19 67.5124 Q1228.1 67.5124 1231.51 62.8538 Q1234.91 58.1548 1234.91 49.9314 Q1234.91 41.7081 1231.51 37.0496 Q1228.1 32.3505 1222.19 32.3505 Q1216.27 32.3505 1212.87 37.0496 Q1209.51 41.7081 1209.51 49.9314 Z" fill="#000000" fill-rule="nonzero" fill-opacity="1" /><path clip-path="url(#clip790)" d="M1259.62 62.2867 L1268.17 62.2867 L1268.17 69.2543 L1261.52 82.2172 L1256.3 82.2172 L1259.62 69.2543 L1259.62 62.2867 Z" fill="#000000" fill-rule="nonzero" fill-opacity="1" /><path clip-path="url(#clip790)" d="M1336.3 39.9662 Q1342.18 41.222 1345.46 45.1919 Q1348.78 49.1618 1348.78 54.9951 Q1348.78 63.9476 1342.62 68.8492 Q1336.46 73.7508 1325.12 73.7508 Q1321.31 73.7508 1317.26 72.9811 Q1313.25 72.2519 1308.96 70.7531 L1308.96 62.8538 Q1312.36 64.8388 1316.41 65.8515 Q1320.46 66.8642 1324.88 66.8642 Q1332.58 66.8642 1336.59 63.826 Q1340.64 60.7879 1340.64 54.9951 Q1340.64 49.6479 1336.87 46.6502 Q1333.14 43.612 1326.46 43.612 L1319.41 43.612 L1319.41 36.8875 L1326.78 36.8875 Q1332.82 36.8875 1336.02 34.4975 Q1339.22 32.067 1339.22 27.5299 Q1339.22 22.8714 1335.9 20.4004 Q1332.62 17.8888 1326.46 17.8888 Q1323.1 17.8888 1319.25 18.618 Q1315.4 19.3471 1310.78 20.8865 L1310.78 13.5948 Q1315.44 12.2985 1319.49 11.6504 Q1323.58 11.0023 1327.19 11.0023 Q1336.5 11.0023 1341.93 15.2557 Q1347.36 19.4686 1347.36 26.6793 Q1347.36 31.7024 1344.48 35.1862 Q1341.61 38.6294 1336.3 39.9662 Z" fill="#000000" fill-rule="nonzero" fill-opacity="1" /><path clip-path="url(#clip790)" d="M1398.12 18.8205 L1398.12 41.5461 L1408.41 41.5461 Q1414.12 41.5461 1417.24 38.5889 Q1420.36 35.6318 1420.36 30.163 Q1420.36 24.7348 1417.24 21.7777 Q1414.12 18.8205 1408.41 18.8205 L1398.12 18.8205 M1389.94 12.096 L1408.41 12.096 Q1418.58 12.096 1423.76 16.714 Q1428.99 21.2916 1428.99 30.163 Q1428.99 39.1155 1423.76 43.6931 Q1418.58 48.2706 1408.41 48.2706 L1398.12 48.2706 L1398.12 72.576 L1389.94 72.576 L1389.94 12.096 Z" fill="#000000" fill-rule="nonzero" fill-opacity="1" /><path clip-path="url(#clip790)" d="M1475.49 48.0275 L1475.49 51.6733 L1441.22 51.6733 Q1441.71 59.3701 1445.84 63.421 Q1450.01 67.4314 1457.42 67.4314 Q1461.72 67.4314 1465.73 66.3781 Q1469.78 65.3249 1473.75 63.2184 L1473.75 70.267 Q1469.74 71.9684 1465.53 72.8596 Q1461.31 73.7508 1456.98 73.7508 Q1446.12 73.7508 1439.76 67.4314 Q1433.44 61.1119 1433.44 50.3365 Q1433.44 39.1965 1439.44 32.6746 Q1445.47 26.1121 1455.68 26.1121 Q1464.84 26.1121 1470.14 32.0264 Q1475.49 37.9003 1475.49 48.0275 M1468.04 45.84 Q1467.96 39.7232 1464.59 36.0774 Q1461.27 32.4315 1455.76 32.4315 Q1449.52 32.4315 1445.76 35.9558 Q1442.03 39.4801 1441.46 45.8805 L1468.04 45.84 Z" fill="#000000" fill-rule="nonzero" fill-opacity="1" /><path clip-path="url(#clip790)" d="M1514.02 34.1734 Q1512.76 33.4443 1511.26 33.1202 Q1509.8 32.7556 1508.02 32.7556 Q1501.7 32.7556 1498.3 36.8875 Q1494.94 40.9789 1494.94 48.6757 L1494.94 72.576 L1487.44 72.576 L1487.44 27.2059 L1494.94 27.2059 L1494.94 34.2544 Q1497.29 30.1225 1501.05 28.1376 Q1504.82 26.1121 1510.21 26.1121 Q1510.98 26.1121 1511.91 26.2337 Q1512.84 26.3147 1513.97 26.5172 L1514.02 34.1734 Z" fill="#000000" fill-rule="nonzero" fill-opacity="1" /><path clip-path="url(#clip790)" d="M1521.83 27.2059 L1529.29 27.2059 L1529.29 72.576 L1521.83 72.576 L1521.83 27.2059 M1521.83 9.54393 L1529.29 9.54393 L1529.29 18.9825 L1521.83 18.9825 L1521.83 9.54393 Z" fill="#000000" fill-rule="nonzero" fill-opacity="1" /><path clip-path="url(#clip790)" d="M1562.46 32.4315 Q1556.47 32.4315 1552.99 37.1306 Q1549.5 41.7891 1549.5 49.9314 Q1549.5 58.0738 1552.94 62.7728 Q1556.43 67.4314 1562.46 67.4314 Q1568.42 67.4314 1571.9 62.7323 Q1575.39 58.0333 1575.39 49.9314 Q1575.39 41.8701 1571.9 37.1711 Q1568.42 32.4315 1562.46 32.4315 M1562.46 26.1121 Q1572.19 26.1121 1577.74 32.4315 Q1583.29 38.7509 1583.29 49.9314 Q1583.29 61.0714 1577.74 67.4314 Q1572.19 73.7508 1562.46 73.7508 Q1552.7 73.7508 1547.15 67.4314 Q1541.64 61.0714 1541.64 49.9314 Q1541.64 38.7509 1547.15 32.4315 Q1552.7 26.1121 1562.46 26.1121 Z" fill="#000000" fill-rule="nonzero" fill-opacity="1" /><path clip-path="url(#clip790)" d="M1625.5 34.0924 L1625.5 9.54393 L1632.95 9.54393 L1632.95 72.576 L1625.5 72.576 L1625.5 65.7705 Q1623.15 69.8214 1619.54 71.8063 Q1615.98 73.7508 1610.95 73.7508 Q1602.73 73.7508 1597.54 67.1883 Q1592.4 60.6258 1592.4 49.9314 Q1592.4 39.2371 1597.54 32.6746 Q1602.73 26.1121 1610.95 26.1121 Q1615.98 26.1121 1619.54 28.0971 Q1623.15 30.0415 1625.5 34.0924 M1600.1 49.9314 Q1600.1 58.1548 1603.46 62.8538 Q1606.86 67.5124 1612.78 67.5124 Q1618.69 67.5124 1622.09 62.8538 Q1625.5 58.1548 1625.5 49.9314 Q1625.5 41.7081 1622.09 37.0496 Q1618.69 32.3505 1612.78 32.3505 Q1606.86 32.3505 1603.46 37.0496 Q1600.1 41.7081 1600.1 49.9314 Z" fill="#000000" fill-rule="nonzero" fill-opacity="1" /><path clip-path="url(#clip790)" d="M1677.23 28.5427 L1677.23 35.5912 Q1674.07 33.9709 1670.66 33.1607 Q1667.26 32.3505 1663.62 32.3505 Q1658.07 32.3505 1655.27 34.0519 Q1652.52 35.7533 1652.52 39.156 Q1652.52 41.7486 1654.5 43.2475 Q1656.49 44.7058 1662.48 46.0426 L1665.03 46.6097 Q1672.97 48.3111 1676.29 51.4303 Q1679.66 54.509 1679.66 60.0587 Q1679.66 66.3781 1674.63 70.0644 Q1669.65 73.7508 1660.9 73.7508 Q1657.26 73.7508 1653.29 73.0216 Q1649.36 72.3329 1644.98 70.9151 L1644.98 63.2184 Q1649.11 65.3654 1653.12 66.4591 Q1657.13 67.5124 1661.06 67.5124 Q1666.33 67.5124 1669.16 65.73 Q1672 63.9071 1672 60.6258 Q1672 57.5877 1669.93 55.9673 Q1667.91 54.3469 1660.98 52.8481 L1658.39 52.2405 Q1651.46 50.7821 1648.38 47.7845 Q1645.31 44.7463 1645.31 39.4801 Q1645.31 33.0797 1649.84 29.5959 Q1654.38 26.1121 1662.72 26.1121 Q1666.86 26.1121 1670.5 26.7198 Q1674.15 27.3274 1677.23 28.5427 Z" fill="#000000" fill-rule="nonzero" fill-opacity="1" /><path clip-path="url(#clip792)" d="M392.349 123.472 L392.349 1423.18 L440.975 1423.18 L440.975 123.472 L392.349 123.472 L392.349 123.472  Z" fill="#009af9" fill-rule="evenodd" fill-opacity="1"/>
<polyline clip-path="url(#clip792)" style="stroke:#000000; stroke-linecap:round; stroke-linejoin:round; stroke-width:4; stroke-opacity:1; fill:none" points="392.349,123.472 392.349,1423.18 440.975,1423.18 440.975,123.472 392.349,123.472 "/>
<path clip-path="url(#clip792)" d="M586.85 176.692 L586.85 1423.18 L635.476 1423.18 L635.476 176.692 L586.85 176.692 L586.85 176.692  Z" fill="#009af9" fill-rule="evenodd" fill-opacity="1"/>
<polyline clip-path="url(#clip792)" style="stroke:#000000; stroke-linecap:round; stroke-linejoin:round; stroke-width:4; stroke-opacity:1; fill:none" points="586.85,176.692 586.85,1423.18 635.476,1423.18 635.476,176.692 586.85,176.692 "/>
<path clip-path="url(#clip792)" d="M781.352 189.12 L781.352 1423.18 L829.977 1423.18 L829.977 189.12 L781.352 189.12 L781.352 189.12  Z" fill="#009af9" fill-rule="evenodd" fill-opacity="1"/>
<polyline clip-path="url(#clip792)" style="stroke:#000000; stroke-linecap:round; stroke-linejoin:round; stroke-width:4; stroke-opacity:1; fill:none" points="781.352,189.12 781.352,1423.18 829.977,1423.18 829.977,189.12 781.352,189.12 "/>
<path clip-path="url(#clip792)" d="M975.853 185.953 L975.853 1423.18 L1024.48 1423.18 L1024.48 185.953 L975.853 185.953 L975.853 185.953  Z" fill="#009af9" fill-rule="evenodd" fill-opacity="1"/>
<polyline clip-path="url(#clip792)" style="stroke:#000000; stroke-linecap:round; stroke-linejoin:round; stroke-width:4; stroke-opacity:1; fill:none" points="975.853,185.953 975.853,1423.18 1024.48,1423.18 1024.48,185.953 975.853,185.953 "/>
<path clip-path="url(#clip792)" d="M1170.35 183.159 L1170.35 1423.18 L1218.98 1423.18 L1218.98 183.159 L1170.35 183.159 L1170.35 183.159  Z" fill="#009af9" fill-rule="evenodd" fill-opacity="1"/>
<polyline clip-path="url(#clip792)" style="stroke:#000000; stroke-linecap:round; stroke-linejoin:round; stroke-width:4; stroke-opacity:1; fill:none" points="1170.35,183.159 1170.35,1423.18 1218.98,1423.18 1218.98,183.159 1170.35,183.159 "/>
<path clip-path="url(#clip792)" d="M1364.86 193.943 L1364.86 1423.18 L1413.48 1423.18 L1413.48 193.943 L1364.86 193.943 L1364.86 193.943  Z" fill="#009af9" fill-rule="evenodd" fill-opacity="1"/>
<polyline clip-path="url(#clip792)" style="stroke:#000000; stroke-linecap:round; stroke-linejoin:round; stroke-width:4; stroke-opacity:1; fill:none" points="1364.86,193.943 1364.86,1423.18 1413.48,1423.18 1413.48,193.943 1364.86,193.943 "/>
<path clip-path="url(#clip792)" d="M1559.36 205.464 L1559.36 1423.18 L1607.98 1423.18 L1607.98 205.464 L1559.36 205.464 L1559.36 205.464  Z" fill="#009af9" fill-rule="evenodd" fill-opacity="1"/>
<polyline clip-path="url(#clip792)" style="stroke:#000000; stroke-linecap:round; stroke-linejoin:round; stroke-width:4; stroke-opacity:1; fill:none" points="1559.36,205.464 1559.36,1423.18 1607.98,1423.18 1607.98,205.464 1559.36,205.464 "/>
<path clip-path="url(#clip792)" d="M1753.86 219.76 L1753.86 1423.18 L1802.48 1423.18 L1802.48 219.76 L1753.86 219.76 L1753.86 219.76  Z" fill="#009af9" fill-rule="evenodd" fill-opacity="1"/>
<polyline clip-path="url(#clip792)" style="stroke:#000000; stroke-linecap:round; stroke-linejoin:round; stroke-width:4; stroke-opacity:1; fill:none" points="1753.86,219.76 1753.86,1423.18 1802.48,1423.18 1802.48,219.76 1753.86,219.76 "/>
<path clip-path="url(#clip792)" d="M1948.36 260.518 L1948.36 1423.18 L1996.98 1423.18 L1996.98 260.518 L1948.36 260.518 L1948.36 260.518  Z" fill="#009af9" fill-rule="evenodd" fill-opacity="1"/>
<polyline clip-path="url(#clip792)" style="stroke:#000000; stroke-linecap:round; stroke-linejoin:round; stroke-width:4; stroke-opacity:1; fill:none" points="1948.36,260.518 1948.36,1423.18 1996.98,1423.18 1996.98,260.518 1948.36,260.518 "/>
<path clip-path="url(#clip792)" d="M2142.86 270.214 L2142.86 1423.18 L2191.49 1423.18 L2191.49 270.214 L2142.86 270.214 L2142.86 270.214  Z" fill="#009af9" fill-rule="evenodd" fill-opacity="1"/>
<polyline clip-path="url(#clip792)" style="stroke:#000000; stroke-linecap:round; stroke-linejoin:round; stroke-width:4; stroke-opacity:1; fill:none" points="2142.86,270.214 2142.86,1423.18 2191.49,1423.18 2191.49,270.214 2142.86,270.214 "/>
<circle clip-path="url(#clip792)" style="fill:#009af9; stroke:none; fill-opacity:0" cx="416.662" cy="123.472" r="2"/>
<circle clip-path="url(#clip792)" style="fill:#009af9; stroke:none; fill-opacity:0" cx="611.163" cy="176.692" r="2"/>
<circle clip-path="url(#clip792)" style="fill:#009af9; stroke:none; fill-opacity:0" cx="805.664" cy="189.12" r="2"/>
<circle clip-path="url(#clip792)" style="fill:#009af9; stroke:none; fill-opacity:0" cx="1000.17" cy="185.953" r="2"/>
<circle clip-path="url(#clip792)" style="fill:#009af9; stroke:none; fill-opacity:0" cx="1194.67" cy="183.159" r="2"/>
<circle clip-path="url(#clip792)" style="fill:#009af9; stroke:none; fill-opacity:0" cx="1389.17" cy="193.943" r="2"/>
<circle clip-path="url(#clip792)" style="fill:#009af9; stroke:none; fill-opacity:0" cx="1583.67" cy="205.464" r="2"/>
<circle clip-path="url(#clip792)" style="fill:#009af9; stroke:none; fill-opacity:0" cx="1778.17" cy="219.76" r="2"/>
<circle clip-path="url(#clip792)" style="fill:#009af9; stroke:none; fill-opacity:0" cx="1972.67" cy="260.518" r="2"/>
<circle clip-path="url(#clip792)" style="fill:#009af9; stroke:none; fill-opacity:0" cx="2167.17" cy="270.214" r="2"/>
<path clip-path="url(#clip792)" d="M440.975 213.729 L440.975 1423.18 L489.6 1423.18 L489.6 213.729 L440.975 213.729 L440.975 213.729  Z" fill="#e26f46" fill-rule="evenodd" fill-opacity="1"/>
<polyline clip-path="url(#clip792)" style="stroke:#000000; stroke-linecap:round; stroke-linejoin:round; stroke-width:4; stroke-opacity:1; fill:none" points="440.975,213.729 440.975,1423.18 489.6,1423.18 489.6,213.729 440.975,213.729 "/>
<path clip-path="url(#clip792)" d="M635.476 338.072 L635.476 1423.18 L684.101 1423.18 L684.101 338.072 L635.476 338.072 L635.476 338.072  Z" fill="#e26f46" fill-rule="evenodd" fill-opacity="1"/>
<polyline clip-path="url(#clip792)" style="stroke:#000000; stroke-linecap:round; stroke-linejoin:round; stroke-width:4; stroke-opacity:1; fill:none" points="635.476,338.072 635.476,1423.18 684.101,1423.18 684.101,338.072 635.476,338.072 "/>
<path clip-path="url(#clip792)" d="M829.977 371.649 L829.977 1423.18 L878.602 1423.18 L878.602 371.649 L829.977 371.649 L829.977 371.649  Z" fill="#e26f46" fill-rule="evenodd" fill-opacity="1"/>
<polyline clip-path="url(#clip792)" style="stroke:#000000; stroke-linecap:round; stroke-linejoin:round; stroke-width:4; stroke-opacity:1; fill:none" points="829.977,371.649 829.977,1423.18 878.602,1423.18 878.602,371.649 829.977,371.649 "/>
<path clip-path="url(#clip792)" d="M1024.48 381.398 L1024.48 1423.18 L1073.1 1423.18 L1073.1 381.398 L1024.48 381.398 L1024.48 381.398  Z" fill="#e26f46" fill-rule="evenodd" fill-opacity="1"/>
<polyline clip-path="url(#clip792)" style="stroke:#000000; stroke-linecap:round; stroke-linejoin:round; stroke-width:4; stroke-opacity:1; fill:none" points="1024.48,381.398 1024.48,1423.18 1073.1,1423.18 1073.1,381.398 1024.48,381.398 "/>
<path clip-path="url(#clip792)" d="M1218.98 388.54 L1218.98 1423.18 L1267.6 1423.18 L1267.6 388.54 L1218.98 388.54 L1218.98 388.54  Z" fill="#e26f46" fill-rule="evenodd" fill-opacity="1"/>
<polyline clip-path="url(#clip792)" style="stroke:#000000; stroke-linecap:round; stroke-linejoin:round; stroke-width:4; stroke-opacity:1; fill:none" points="1218.98,388.54 1218.98,1423.18 1267.6,1423.18 1267.6,388.54 1218.98,388.54 "/>
<path clip-path="url(#clip792)" d="M1413.48 410.486 L1413.48 1423.18 L1462.11 1423.18 L1462.11 410.486 L1413.48 410.486 L1413.48 410.486  Z" fill="#e26f46" fill-rule="evenodd" fill-opacity="1"/>
<polyline clip-path="url(#clip792)" style="stroke:#000000; stroke-linecap:round; stroke-linejoin:round; stroke-width:4; stroke-opacity:1; fill:none" points="1413.48,410.486 1413.48,1423.18 1462.11,1423.18 1462.11,410.486 1413.48,410.486 "/>
<path clip-path="url(#clip792)" d="M1607.98 416.483 L1607.98 1423.18 L1656.61 1423.18 L1656.61 416.483 L1607.98 416.483 L1607.98 416.483  Z" fill="#e26f46" fill-rule="evenodd" fill-opacity="1"/>
<polyline clip-path="url(#clip792)" style="stroke:#000000; stroke-linecap:round; stroke-linejoin:round; stroke-width:4; stroke-opacity:1; fill:none" points="1607.98,416.483 1607.98,1423.18 1656.61,1423.18 1656.61,416.483 1607.98,416.483 "/>
<path clip-path="url(#clip792)" d="M1802.48 411.739 L1802.48 1423.18 L1851.11 1423.18 L1851.11 411.739 L1802.48 411.739 L1802.48 411.739  Z" fill="#e26f46" fill-rule="evenodd" fill-opacity="1"/>
<polyline clip-path="url(#clip792)" style="stroke:#000000; stroke-linecap:round; stroke-linejoin:round; stroke-width:4; stroke-opacity:1; fill:none" points="1802.48,411.739 1802.48,1423.18 1851.11,1423.18 1851.11,411.739 1802.48,411.739 "/>
<path clip-path="url(#clip792)" d="M1996.98 424.975 L1996.98 1423.18 L2045.61 1423.18 L2045.61 424.975 L1996.98 424.975 L1996.98 424.975  Z" fill="#e26f46" fill-rule="evenodd" fill-opacity="1"/>
<polyline clip-path="url(#clip792)" style="stroke:#000000; stroke-linecap:round; stroke-linejoin:round; stroke-width:4; stroke-opacity:1; fill:none" points="1996.98,424.975 1996.98,1423.18 2045.61,1423.18 2045.61,424.975 1996.98,424.975 "/>
<path clip-path="url(#clip792)" d="M2191.49 438.414 L2191.49 1423.18 L2240.11 1423.18 L2240.11 438.414 L2191.49 438.414 L2191.49 438.414  Z" fill="#e26f46" fill-rule="evenodd" fill-opacity="1"/>
<polyline clip-path="url(#clip792)" style="stroke:#000000; stroke-linecap:round; stroke-linejoin:round; stroke-width:4; stroke-opacity:1; fill:none" points="2191.49,438.414 2191.49,1423.18 2240.11,1423.18 2240.11,438.414 2191.49,438.414 "/>
<circle clip-path="url(#clip792)" style="fill:#e26f46; stroke:none; fill-opacity:0" cx="465.287" cy="213.729" r="2"/>
<circle clip-path="url(#clip792)" style="fill:#e26f46; stroke:none; fill-opacity:0" cx="659.788" cy="338.072" r="2"/>
<circle clip-path="url(#clip792)" style="fill:#e26f46; stroke:none; fill-opacity:0" cx="854.29" cy="371.649" r="2"/>
<circle clip-path="url(#clip792)" style="fill:#e26f46; stroke:none; fill-opacity:0" cx="1048.79" cy="381.398" r="2"/>
<circle clip-path="url(#clip792)" style="fill:#e26f46; stroke:none; fill-opacity:0" cx="1243.29" cy="388.54" r="2"/>
<circle clip-path="url(#clip792)" style="fill:#e26f46; stroke:none; fill-opacity:0" cx="1437.79" cy="410.486" r="2"/>
<circle clip-path="url(#clip792)" style="fill:#e26f46; stroke:none; fill-opacity:0" cx="1632.29" cy="416.483" r="2"/>
<circle clip-path="url(#clip792)" style="fill:#e26f46; stroke:none; fill-opacity:0" cx="1826.8" cy="411.739" r="2"/>
<circle clip-path="url(#clip792)" style="fill:#e26f46; stroke:none; fill-opacity:0" cx="2021.3" cy="424.975" r="2"/>
<circle clip-path="url(#clip792)" style="fill:#e26f46; stroke:none; fill-opacity:0" cx="2215.8" cy="438.414" r="2"/>
</svg>
