<?xml version="1.0" encoding="utf-8"?>
<svg xmlns="http://www.w3.org/2000/svg" xmlns:xlink="http://www.w3.org/1999/xlink" width="600" height="400" viewBox="0 0 2400 1600">
<defs>
  <clipPath id="clip810">
    <rect x="0" y="0" width="2400" height="1600"/>
  </clipPath>
</defs>
<path clip-path="url(#clip810)" d="M0 1600 L2400 1600 L2400 8.88178e-14 L0 8.88178e-14  Z" fill="#ffffff" fill-rule="evenodd" fill-opacity="1"/>
<defs>
  <clipPath id="clip811">
    <rect x="480" y="0" width="1681" height="1600"/>
  </clipPath>
</defs>
<path clip-path="url(#clip810)" d="M279.704 1423.18 L2352.76 1423.18 L2352.76 123.472 L279.704 123.472  Z" fill="#ffffff" fill-rule="evenodd" fill-opacity="1"/>
<defs>
  <clipPath id="clip812">
    <rect x="279" y="123" width="2074" height="1301"/>
  </clipPath>
</defs>
<polyline clip-path="url(#clip812)" style="stroke:#000000; stroke-linecap:round; stroke-linejoin:round; stroke-width:2; stroke-opacity:0.1; fill:none" points="338.375,1423.18 338.375,123.472 "/>
<polyline clip-path="url(#clip812)" style="stroke:#000000; stroke-linecap:round; stroke-linejoin:round; stroke-width:2; stroke-opacity:0.1; fill:none" points="555.676,1423.18 555.676,123.472 "/>
<polyline clip-path="url(#clip812)" style="stroke:#000000; stroke-linecap:round; stroke-linejoin:round; stroke-width:2; stroke-opacity:0.1; fill:none" points="772.977,1423.18 772.977,123.472 "/>
<polyline clip-path="url(#clip812)" style="stroke:#000000; stroke-linecap:round; stroke-linejoin:round; stroke-width:2; stroke-opacity:0.1; fill:none" points="990.278,1423.18 990.278,123.472 "/>
<polyline clip-path="url(#clip812)" style="stroke:#000000; stroke-linecap:round; stroke-linejoin:round; stroke-width:2; stroke-opacity:0.1; fill:none" points="1207.58,1423.18 1207.58,123.472 "/>
<polyline clip-path="url(#clip812)" style="stroke:#000000; stroke-linecap:round; stroke-linejoin:round; stroke-width:2; stroke-opacity:0.1; fill:none" points="1424.88,1423.18 1424.88,123.472 "/>
<polyline clip-path="url(#clip812)" style="stroke:#000000; stroke-linecap:round; stroke-linejoin:round; stroke-width:2; stroke-opacity:0.1; fill:none" points="1642.18,1423.18 1642.18,123.472 "/>
<polyline clip-path="url(#clip812)" style="stroke:#000000; stroke-linecap:round; stroke-linejoin:round; stroke-width:2; stroke-opacity:0.1; fill:none" points="1859.48,1423.18 1859.48,123.472 "/>
<polyline clip-path="url(#clip812)" style="stroke:#000000; stroke-linecap:round; stroke-linejoin:round; stroke-width:2; stroke-opacity:0.1; fill:none" points="2076.78,1423.18 2076.78,123.472 "/>
<polyline clip-path="url(#clip812)" style="stroke:#000000; stroke-linecap:round; stroke-linejoin:round; stroke-width:2; stroke-opacity:0.1; fill:none" points="2294.08,1423.18 2294.08,123.472 "/>
<polyline clip-path="url(#clip812)" style="stroke:#000000; stroke-linecap:round; stroke-linejoin:round; stroke-width:2; stroke-opacity:0.1; fill:none" points="2352.76,1268.87 279.704,1268.87 "/>
<polyline clip-path="url(#clip812)" style="stroke:#000000; stroke-linecap:round; stroke-linejoin:round; stroke-width:2; stroke-opacity:0.1; fill:none" points="2352.76,1069.27 279.704,1069.27 "/>
<polyline clip-path="url(#clip812)" style="stroke:#000000; stroke-linecap:round; stroke-linejoin:round; stroke-width:2; stroke-opacity:0.1; fill:none" points="2352.76,869.659 279.704,869.659 "/>
<polyline clip-path="url(#clip812)" style="stroke:#000000; stroke-linecap:round; stroke-linejoin:round; stroke-width:2; stroke-opacity:0.1; fill:none" points="2352.76,670.052 279.704,670.052 "/>
<polyline clip-path="url(#clip812)" style="stroke:#000000; stroke-linecap:round; stroke-linejoin:round; stroke-width:2; stroke-opacity:0.1; fill:none" points="2352.76,470.444 279.704,470.444 "/>
<polyline clip-path="url(#clip812)" style="stroke:#000000; stroke-linecap:round; stroke-linejoin:round; stroke-width:2; stroke-opacity:0.1; fill:none" points="2352.76,270.837 279.704,270.837 "/>
<polyline clip-path="url(#clip810)" style="stroke:#000000; stroke-linecap:round; stroke-linejoin:round; stroke-width:4; stroke-opacity:1; fill:none" points="2352.76,1423.18 279.704,1423.18 "/>
<polyline clip-path="url(#clip810)" style="stroke:#000000; stroke-linecap:round; stroke-linejoin:round; stroke-width:4; stroke-opacity:1; fill:none" points="338.375,1423.18 338.375,1404.28 "/>
<polyline clip-path="url(#clip810)" style="stroke:#000000; stroke-linecap:round; stroke-linejoin:round; stroke-width:4; stroke-opacity:1; fill:none" points="555.676,1423.18 555.676,1404.28 "/>
<polyline clip-path="url(#clip810)" style="stroke:#000000; stroke-linecap:round; stroke-linejoin:round; stroke-width:4; stroke-opacity:1; fill:none" points="772.977,1423.18 772.977,1404.28 "/>
<polyline clip-path="url(#clip810)" style="stroke:#000000; stroke-linecap:round; stroke-linejoin:round; stroke-width:4; stroke-opacity:1; fill:none" points="990.278,1423.18 990.278,1404.28 "/>
<polyline clip-path="url(#clip810)" style="stroke:#000000; stroke-linecap:round; stroke-linejoin:round; stroke-width:4; stroke-opacity:1; fill:none" points="1207.58,1423.18 1207.58,1404.28 "/>
<polyline clip-path="url(#clip810)" style="stroke:#000000; stroke-linecap:round; stroke-linejoin:round; stroke-width:4; stroke-opacity:1; fill:none" points="1424.88,1423.18 1424.88,1404.28 "/>
<polyline clip-path="url(#clip810)" style="stroke:#000000; stroke-linecap:round; stroke-linejoin:round; stroke-width:4; stroke-opacity:1; fill:none" points="1642.18,1423.18 1642.18,1404.28 "/>
<polyline clip-path="url(#clip810)" style="stroke:#000000; stroke-linecap:round; stroke-linejoin:round; stroke-width:4; stroke-opacity:1; fill:none" points="1859.48,1423.18 1859.48,1404.28 "/>
<polyline clip-path="url(#clip810)" style="stroke:#000000; stroke-linecap:round; stroke-linejoin:round; stroke-width:4; stroke-opacity:1; fill:none" points="2076.78,1423.18 2076.78,1404.28 "/>
<polyline clip-path="url(#clip810)" style="stroke:#000000; stroke-linecap:round; stroke-linejoin:round; stroke-width:4; stroke-opacity:1; fill:none" points="2294.08,1423.18 2294.08,1404.28 "/>
<path clip-path="url(#clip810)" d="M314 1484.86 L314 1480.6 Q315.76 1481.44 317.565 1481.88 Q319.371 1482.32 321.107 1482.32 Q325.736 1482.32 328.167 1479.21 Q330.621 1476.09 330.968 1469.75 Q329.625 1471.74 327.565 1472.8 Q325.505 1473.87 323.005 1473.87 Q317.82 1473.87 314.787 1470.74 Q311.778 1467.59 311.778 1462.15 Q311.778 1456.83 314.926 1453.61 Q318.074 1450.39 323.306 1450.39 Q329.301 1450.39 332.449 1455 Q335.621 1459.58 335.621 1468.33 Q335.621 1476.51 331.732 1481.39 Q327.866 1486.25 321.315 1486.25 Q319.556 1486.25 317.75 1485.9 Q315.945 1485.56 314 1484.86 M323.306 1470.21 Q326.454 1470.21 328.283 1468.06 Q330.134 1465.9 330.134 1462.15 Q330.134 1458.43 328.283 1456.27 Q326.454 1454.1 323.306 1454.1 Q320.158 1454.1 318.306 1456.27 Q316.477 1458.43 316.477 1462.15 Q316.477 1465.9 318.306 1468.06 Q320.158 1470.21 323.306 1470.21 Z" fill="#000000" fill-rule="nonzero" fill-opacity="1" /><path clip-path="url(#clip810)" d="M344.07 1451.02 L362.426 1451.02 L362.426 1454.96 L348.352 1454.96 L348.352 1463.43 Q349.371 1463.08 350.389 1462.92 Q351.408 1462.73 352.426 1462.73 Q358.213 1462.73 361.593 1465.9 Q364.972 1469.08 364.972 1474.49 Q364.972 1480.07 361.5 1483.17 Q358.028 1486.25 351.708 1486.25 Q349.533 1486.25 347.264 1485.88 Q345.019 1485.51 342.611 1484.77 L342.611 1480.07 Q344.695 1481.2 346.917 1481.76 Q349.139 1482.32 351.616 1482.32 Q355.62 1482.32 357.958 1480.21 Q360.296 1478.1 360.296 1474.49 Q360.296 1470.88 357.958 1468.77 Q355.62 1466.67 351.616 1466.67 Q349.741 1466.67 347.866 1467.08 Q346.014 1467.5 344.07 1468.38 L344.07 1451.02 Z" fill="#000000" fill-rule="nonzero" fill-opacity="1" /><path clip-path="url(#clip810)" d="M541.047 1469.17 Q537.713 1469.17 535.792 1470.95 Q533.894 1472.73 533.894 1475.86 Q533.894 1478.98 535.792 1480.77 Q537.713 1482.55 541.047 1482.55 Q544.38 1482.55 546.301 1480.77 Q548.223 1478.96 548.223 1475.86 Q548.223 1472.73 546.301 1470.95 Q544.403 1469.17 541.047 1469.17 M536.371 1467.18 Q533.362 1466.44 531.672 1464.38 Q530.005 1462.32 530.005 1459.35 Q530.005 1455.21 532.945 1452.8 Q535.908 1450.39 541.047 1450.39 Q546.209 1450.39 549.148 1452.8 Q552.088 1455.21 552.088 1459.35 Q552.088 1462.32 550.398 1464.38 Q548.732 1466.44 545.746 1467.18 Q549.125 1467.96 551 1470.26 Q552.898 1472.55 552.898 1475.86 Q552.898 1480.88 549.82 1483.57 Q546.764 1486.25 541.047 1486.25 Q535.329 1486.25 532.25 1483.57 Q529.195 1480.88 529.195 1475.86 Q529.195 1472.55 531.093 1470.26 Q532.991 1467.96 536.371 1467.18 M534.658 1459.79 Q534.658 1462.48 536.324 1463.98 Q538.014 1465.49 541.047 1465.49 Q544.056 1465.49 545.746 1463.98 Q547.459 1462.48 547.459 1459.79 Q547.459 1457.11 545.746 1455.6 Q544.056 1454.1 541.047 1454.1 Q538.014 1454.1 536.324 1455.6 Q534.658 1457.11 534.658 1459.79 Z" fill="#000000" fill-rule="nonzero" fill-opacity="1" /><path clip-path="url(#clip810)" d="M561.255 1451.02 L579.611 1451.02 L579.611 1454.96 L565.537 1454.96 L565.537 1463.43 Q566.556 1463.08 567.574 1462.92 Q568.593 1462.73 569.611 1462.73 Q575.398 1462.73 578.778 1465.9 Q582.158 1469.08 582.158 1474.49 Q582.158 1480.07 578.685 1483.17 Q575.213 1486.25 568.894 1486.25 Q566.718 1486.25 564.449 1485.88 Q562.204 1485.51 559.797 1484.77 L559.797 1480.07 Q561.88 1481.2 564.102 1481.76 Q566.324 1482.32 568.801 1482.32 Q572.806 1482.32 575.144 1480.21 Q577.482 1478.1 577.482 1474.49 Q577.482 1470.88 575.144 1468.77 Q572.806 1466.67 568.801 1466.67 Q566.926 1466.67 565.051 1467.08 Q563.199 1467.5 561.255 1468.38 L561.255 1451.02 Z" fill="#000000" fill-rule="nonzero" fill-opacity="1" /><path clip-path="url(#clip810)" d="M746.832 1451.02 L769.054 1451.02 L769.054 1453.01 L756.507 1485.58 L751.623 1485.58 L763.429 1454.96 L746.832 1454.96 L746.832 1451.02 Z" fill="#000000" fill-rule="nonzero" fill-opacity="1" /><path clip-path="url(#clip810)" d="M778.22 1451.02 L796.577 1451.02 L796.577 1454.96 L782.503 1454.96 L782.503 1463.43 Q783.521 1463.08 784.54 1462.92 Q785.558 1462.73 786.577 1462.73 Q792.364 1462.73 795.743 1465.9 Q799.123 1469.08 799.123 1474.49 Q799.123 1480.07 795.651 1483.17 Q792.179 1486.25 785.859 1486.25 Q783.683 1486.25 781.415 1485.88 Q779.169 1485.51 776.762 1484.77 L776.762 1480.07 Q778.845 1481.2 781.068 1481.76 Q783.29 1482.32 785.767 1482.32 Q789.771 1482.32 792.109 1480.21 Q794.447 1478.1 794.447 1474.49 Q794.447 1470.88 792.109 1468.77 Q789.771 1466.67 785.767 1466.67 Q783.892 1466.67 782.017 1467.08 Q780.165 1467.5 778.22 1468.38 L778.22 1451.02 Z" fill="#000000" fill-rule="nonzero" fill-opacity="1" /><path clip-path="url(#clip810)" d="M976.181 1466.44 Q973.033 1466.44 971.181 1468.59 Q969.353 1470.74 969.353 1474.49 Q969.353 1478.22 971.181 1480.39 Q973.033 1482.55 976.181 1482.55 Q979.329 1482.55 981.158 1480.39 Q983.01 1478.22 983.01 1474.49 Q983.01 1470.74 981.158 1468.59 Q979.329 1466.44 976.181 1466.44 M985.464 1451.78 L985.464 1456.04 Q983.704 1455.21 981.899 1454.77 Q980.116 1454.33 978.357 1454.33 Q973.727 1454.33 971.274 1457.45 Q968.843 1460.58 968.496 1466.9 Q969.862 1464.89 971.922 1463.82 Q973.982 1462.73 976.459 1462.73 Q981.667 1462.73 984.677 1465.9 Q987.709 1469.05 987.709 1474.49 Q987.709 1479.82 984.561 1483.03 Q981.413 1486.25 976.181 1486.25 Q970.186 1486.25 967.015 1481.67 Q963.843 1477.06 963.843 1468.33 Q963.843 1460.14 967.732 1455.28 Q971.621 1450.39 978.172 1450.39 Q979.931 1450.39 981.714 1450.74 Q983.519 1451.09 985.464 1451.78 Z" fill="#000000" fill-rule="nonzero" fill-opacity="1" /><path clip-path="url(#clip810)" d="M995.811 1451.02 L1014.17 1451.02 L1014.17 1454.96 L1000.09 1454.96 L1000.09 1463.43 Q1001.11 1463.08 1002.13 1462.92 Q1003.15 1462.73 1004.17 1462.73 Q1009.95 1462.73 1013.33 1465.9 Q1016.71 1469.08 1016.71 1474.49 Q1016.71 1480.07 1013.24 1483.17 Q1009.77 1486.25 1003.45 1486.25 Q1001.27 1486.25 999.005 1485.88 Q996.76 1485.51 994.352 1484.77 L994.352 1480.07 Q996.436 1481.2 998.658 1481.76 Q1000.88 1482.32 1003.36 1482.32 Q1007.36 1482.32 1009.7 1480.21 Q1012.04 1478.1 1012.04 1474.49 Q1012.04 1470.88 1009.7 1468.77 Q1007.36 1466.67 1003.36 1466.67 Q1001.48 1466.67 999.607 1467.08 Q997.755 1467.5 995.811 1468.38 L995.811 1451.02 Z" fill="#000000" fill-rule="nonzero" fill-opacity="1" /><path clip-path="url(#clip810)" d="M1182.78 1451.02 L1201.13 1451.02 L1201.13 1454.96 L1187.06 1454.96 L1187.06 1463.43 Q1188.08 1463.08 1189.1 1462.92 Q1190.11 1462.73 1191.13 1462.73 Q1196.92 1462.73 1200.3 1465.9 Q1203.68 1469.08 1203.68 1474.49 Q1203.68 1480.07 1200.21 1483.17 Q1196.73 1486.25 1190.42 1486.25 Q1188.24 1486.25 1185.97 1485.88 Q1183.73 1485.51 1181.32 1484.77 L1181.32 1480.07 Q1183.4 1481.2 1185.62 1481.76 Q1187.85 1482.32 1190.32 1482.32 Q1194.33 1482.32 1196.67 1480.21 Q1199 1478.1 1199 1474.49 Q1199 1470.88 1196.67 1468.77 Q1194.33 1466.67 1190.32 1466.67 Q1188.45 1466.67 1186.57 1467.08 Q1184.72 1467.5 1182.78 1468.38 L1182.78 1451.02 Z" fill="#000000" fill-rule="nonzero" fill-opacity="1" /><path clip-path="url(#clip810)" d="M1212.94 1451.02 L1231.29 1451.02 L1231.29 1454.96 L1217.22 1454.96 L1217.22 1463.43 Q1218.24 1463.08 1219.26 1462.92 Q1220.28 1462.73 1221.29 1462.73 Q1227.08 1462.73 1230.46 1465.9 Q1233.84 1469.08 1233.84 1474.49 Q1233.84 1480.07 1230.37 1483.17 Q1226.9 1486.25 1220.58 1486.25 Q1218.4 1486.25 1216.13 1485.88 Q1213.89 1485.51 1211.48 1484.77 L1211.48 1480.07 Q1213.56 1481.2 1215.79 1481.76 Q1218.01 1482.32 1220.48 1482.32 Q1224.49 1482.32 1226.83 1480.21 Q1229.16 1478.1 1229.16 1474.49 Q1229.16 1470.88 1226.83 1468.77 Q1224.49 1466.67 1220.48 1466.67 Q1218.61 1466.67 1216.73 1467.08 Q1214.88 1467.5 1212.94 1468.38 L1212.94 1451.02 Z" fill="#000000" fill-rule="nonzero" fill-opacity="1" /><path clip-path="url(#clip810)" d="M1413.55 1455.09 L1401.74 1473.54 L1413.55 1473.54 L1413.55 1455.09 M1412.32 1451.02 L1418.2 1451.02 L1418.2 1473.54 L1423.13 1473.54 L1423.13 1477.43 L1418.2 1477.43 L1418.2 1485.58 L1413.55 1485.58 L1413.55 1477.43 L1397.95 1477.43 L1397.95 1472.92 L1412.32 1451.02 Z" fill="#000000" fill-rule="nonzero" fill-opacity="1" /><path clip-path="url(#clip810)" d="M1430.91 1451.02 L1449.27 1451.02 L1449.27 1454.96 L1435.19 1454.96 L1435.19 1463.43 Q1436.21 1463.08 1437.23 1462.92 Q1438.25 1462.73 1439.27 1462.73 Q1445.05 1462.73 1448.43 1465.9 Q1451.81 1469.08 1451.81 1474.49 Q1451.81 1480.07 1448.34 1483.17 Q1444.87 1486.25 1438.55 1486.25 Q1436.37 1486.25 1434.1 1485.88 Q1431.86 1485.51 1429.45 1484.77 L1429.45 1480.07 Q1431.54 1481.2 1433.76 1481.76 Q1435.98 1482.32 1438.46 1482.32 Q1442.46 1482.32 1444.8 1480.21 Q1447.14 1478.1 1447.14 1474.49 Q1447.14 1470.88 1444.8 1468.77 Q1442.46 1466.67 1438.46 1466.67 Q1436.58 1466.67 1434.71 1467.08 Q1432.85 1467.5 1430.91 1468.38 L1430.91 1451.02 Z" fill="#000000" fill-rule="nonzero" fill-opacity="1" /><path clip-path="url(#clip810)" d="M1631.52 1466.95 Q1634.88 1467.66 1636.75 1469.93 Q1638.65 1472.2 1638.65 1475.53 Q1638.65 1480.65 1635.13 1483.45 Q1631.61 1486.25 1625.13 1486.25 Q1622.96 1486.25 1620.64 1485.81 Q1618.35 1485.39 1615.9 1484.54 L1615.9 1480.02 Q1617.84 1481.16 1620.16 1481.74 Q1622.47 1482.32 1624.99 1482.32 Q1629.39 1482.32 1631.68 1480.58 Q1634 1478.84 1634 1475.53 Q1634 1472.48 1631.85 1470.77 Q1629.72 1469.03 1625.9 1469.03 L1621.87 1469.03 L1621.87 1465.19 L1626.08 1465.19 Q1629.53 1465.19 1631.36 1463.82 Q1633.19 1462.43 1633.19 1459.84 Q1633.19 1457.18 1631.29 1455.77 Q1629.42 1454.33 1625.9 1454.33 Q1623.98 1454.33 1621.78 1454.75 Q1619.58 1455.16 1616.94 1456.04 L1616.94 1451.88 Q1619.6 1451.14 1621.92 1450.77 Q1624.25 1450.39 1626.31 1450.39 Q1631.64 1450.39 1634.74 1452.83 Q1637.84 1455.23 1637.84 1459.35 Q1637.84 1462.22 1636.2 1464.21 Q1634.55 1466.18 1631.52 1466.95 Z" fill="#000000" fill-rule="nonzero" fill-opacity="1" /><path clip-path="url(#clip810)" d="M1647.56 1451.02 L1665.92 1451.02 L1665.92 1454.96 L1651.85 1454.96 L1651.85 1463.43 Q1652.86 1463.08 1653.88 1462.92 Q1654.9 1462.73 1655.92 1462.73 Q1661.71 1462.73 1665.09 1465.9 Q1668.47 1469.08 1668.47 1474.49 Q1668.47 1480.07 1664.99 1483.17 Q1661.52 1486.25 1655.2 1486.25 Q1653.03 1486.25 1650.76 1485.88 Q1648.51 1485.51 1646.11 1484.77 L1646.11 1480.07 Q1648.19 1481.2 1650.41 1481.76 Q1652.63 1482.32 1655.11 1482.32 Q1659.11 1482.32 1661.45 1480.21 Q1663.79 1478.1 1663.79 1474.49 Q1663.79 1470.88 1661.45 1468.77 Q1659.11 1466.67 1655.11 1466.67 Q1653.23 1466.67 1651.36 1467.08 Q1649.51 1467.5 1647.56 1468.38 L1647.56 1451.02 Z" fill="#000000" fill-rule="nonzero" fill-opacity="1" /><path clip-path="url(#clip810)" d="M1838.75 1481.64 L1855.07 1481.64 L1855.07 1485.58 L1833.13 1485.58 L1833.13 1481.64 Q1835.79 1478.89 1840.37 1474.26 Q1844.98 1469.61 1846.16 1468.27 Q1848.41 1465.74 1849.29 1464.01 Q1850.19 1462.25 1850.19 1460.56 Q1850.19 1457.8 1848.24 1456.07 Q1846.32 1454.33 1843.22 1454.33 Q1841.02 1454.33 1838.57 1455.09 Q1836.14 1455.86 1833.36 1457.41 L1833.36 1452.69 Q1836.18 1451.55 1838.64 1450.97 Q1841.09 1450.39 1843.13 1450.39 Q1848.5 1450.39 1851.69 1453.08 Q1854.89 1455.77 1854.89 1460.26 Q1854.89 1462.39 1854.08 1464.31 Q1853.29 1466.2 1851.18 1468.8 Q1850.61 1469.47 1847.5 1472.69 Q1844.4 1475.88 1838.75 1481.64 Z" fill="#000000" fill-rule="nonzero" fill-opacity="1" /><path clip-path="url(#clip810)" d="M1864.93 1451.02 L1883.29 1451.02 L1883.29 1454.96 L1869.22 1454.96 L1869.22 1463.43 Q1870.23 1463.08 1871.25 1462.92 Q1872.27 1462.73 1873.29 1462.73 Q1879.08 1462.73 1882.46 1465.9 Q1885.84 1469.08 1885.84 1474.49 Q1885.84 1480.07 1882.36 1483.17 Q1878.89 1486.25 1872.57 1486.25 Q1870.4 1486.25 1868.13 1485.88 Q1865.88 1485.51 1863.48 1484.77 L1863.48 1480.07 Q1865.56 1481.2 1867.78 1481.76 Q1870 1482.32 1872.48 1482.32 Q1876.48 1482.32 1878.82 1480.21 Q1881.16 1478.1 1881.16 1474.49 Q1881.16 1470.88 1878.82 1468.77 Q1876.48 1466.67 1872.48 1466.67 Q1870.61 1466.67 1868.73 1467.08 Q1866.88 1467.5 1864.93 1468.38 L1864.93 1451.02 Z" fill="#000000" fill-rule="nonzero" fill-opacity="1" /><path clip-path="url(#clip810)" d="M2051.97 1481.64 L2059.61 1481.64 L2059.61 1455.28 L2051.3 1456.95 L2051.3 1452.69 L2059.56 1451.02 L2064.24 1451.02 L2064.24 1481.64 L2071.88 1481.64 L2071.88 1485.58 L2051.97 1485.58 L2051.97 1481.64 Z" fill="#000000" fill-rule="nonzero" fill-opacity="1" /><path clip-path="url(#clip810)" d="M2081.37 1451.02 L2099.72 1451.02 L2099.72 1454.96 L2085.65 1454.96 L2085.65 1463.43 Q2086.67 1463.08 2087.69 1462.92 Q2088.7 1462.73 2089.72 1462.73 Q2095.51 1462.73 2098.89 1465.9 Q2102.27 1469.08 2102.27 1474.49 Q2102.27 1480.07 2098.8 1483.17 Q2095.33 1486.25 2089.01 1486.25 Q2086.83 1486.25 2084.56 1485.88 Q2082.32 1485.51 2079.91 1484.77 L2079.91 1480.07 Q2081.99 1481.2 2084.21 1481.76 Q2086.44 1482.32 2088.91 1482.32 Q2092.92 1482.32 2095.26 1480.21 Q2097.59 1478.1 2097.59 1474.49 Q2097.59 1470.88 2095.26 1468.77 Q2092.92 1466.67 2088.91 1466.67 Q2087.04 1466.67 2085.16 1467.08 Q2083.31 1467.5 2081.37 1468.38 L2081.37 1451.02 Z" fill="#000000" fill-rule="nonzero" fill-opacity="1" /><path clip-path="url(#clip810)" d="M2284.36 1451.02 L2302.72 1451.02 L2302.72 1454.96 L2288.64 1454.96 L2288.64 1463.43 Q2289.66 1463.08 2290.68 1462.92 Q2291.7 1462.73 2292.72 1462.73 Q2298.51 1462.73 2301.89 1465.9 Q2305.27 1469.08 2305.27 1474.49 Q2305.27 1480.07 2301.79 1483.17 Q2298.32 1486.25 2292 1486.25 Q2289.83 1486.25 2287.56 1485.88 Q2285.31 1485.51 2282.9 1484.77 L2282.9 1480.07 Q2284.99 1481.2 2287.21 1481.76 Q2289.43 1482.32 2291.91 1482.32 Q2295.91 1482.32 2298.25 1480.21 Q2300.59 1478.1 2300.59 1474.49 Q2300.59 1470.88 2298.25 1468.77 Q2295.91 1466.67 2291.91 1466.67 Q2290.03 1466.67 2288.16 1467.08 Q2286.31 1467.5 2284.36 1468.38 L2284.36 1451.02 Z" fill="#000000" fill-rule="nonzero" fill-opacity="1" /><path clip-path="url(#clip810)" d="M1114.52 1547.13 Q1111.75 1547.13 1110.16 1549.49 Q1108.6 1551.84 1108.6 1556.04 Q1108.6 1560.18 1110.16 1562.57 Q1111.75 1564.92 1114.52 1564.92 Q1117.22 1564.92 1118.78 1562.57 Q1120.37 1560.18 1120.37 1556.04 Q1120.37 1551.87 1118.78 1549.52 Q1117.22 1547.13 1114.52 1547.13 M1114.52 1543.09 Q1119.55 1543.09 1122.51 1546.59 Q1125.47 1550.09 1125.47 1556.04 Q1125.47 1562 1122.47 1565.5 Q1119.51 1568.97 1114.52 1568.97 Q1109.42 1568.97 1106.46 1565.5 Q1103.5 1562 1103.5 1556.04 Q1103.5 1550.06 1106.46 1546.59 Q1109.46 1543.09 1114.52 1543.09 M1081.67 1523.71 Q1078.93 1523.71 1077.34 1526.09 Q1075.78 1528.45 1075.78 1532.59 Q1075.78 1536.79 1077.34 1539.14 Q1078.9 1541.5 1081.67 1541.5 Q1084.44 1541.5 1086 1539.14 Q1087.59 1536.79 1087.59 1532.59 Q1087.59 1528.48 1086 1526.09 Q1084.41 1523.71 1081.67 1523.71 M1110.41 1519.66 L1115.5 1519.66 L1085.78 1568.97 L1080.68 1568.97 L1110.41 1519.66 M1081.67 1519.66 Q1086.7 1519.66 1089.69 1523.17 Q1092.68 1526.63 1092.68 1532.59 Q1092.68 1538.6 1089.69 1542.07 Q1086.73 1545.54 1081.67 1545.54 Q1076.61 1545.54 1073.65 1542.07 Q1070.72 1538.57 1070.72 1532.59 Q1070.72 1526.67 1073.68 1523.17 Q1076.64 1519.66 1081.67 1519.66 Z" fill="#000000" fill-rule="nonzero" fill-opacity="1" /><path clip-path="url(#clip810)" d="M1179.38 1537.81 L1179.38 1518.52 L1185.24 1518.52 L1185.24 1568.04 L1179.38 1568.04 L1179.38 1562.7 Q1177.54 1565.88 1174.7 1567.44 Q1171.9 1568.97 1167.96 1568.97 Q1161.5 1568.97 1157.42 1563.81 Q1153.38 1558.65 1153.38 1550.25 Q1153.38 1541.85 1157.42 1536.69 Q1161.5 1531.54 1167.96 1531.54 Q1171.9 1531.54 1174.7 1533.1 Q1177.54 1534.62 1179.38 1537.81 M1159.43 1550.25 Q1159.43 1556.71 1162.07 1560.4 Q1164.74 1564.07 1169.39 1564.07 Q1174.04 1564.07 1176.71 1560.4 Q1179.38 1556.71 1179.38 1550.25 Q1179.38 1543.79 1176.71 1540.13 Q1174.04 1536.44 1169.39 1536.44 Q1164.74 1536.44 1162.07 1540.13 Q1159.43 1543.79 1159.43 1550.25 Z" fill="#000000" fill-rule="nonzero" fill-opacity="1" /><path clip-path="url(#clip810)" d="M1213.5 1550.12 Q1206.41 1550.12 1203.67 1551.75 Q1200.93 1553.37 1200.93 1557.29 Q1200.93 1560.4 1202.97 1562.25 Q1205.04 1564.07 1208.57 1564.07 Q1213.44 1564.07 1216.37 1560.63 Q1219.33 1557.16 1219.33 1551.43 L1219.33 1550.12 L1213.5 1550.12 M1225.18 1547.71 L1225.18 1568.04 L1219.33 1568.04 L1219.33 1562.63 Q1217.32 1565.88 1214.33 1567.44 Q1211.34 1568.97 1207.01 1568.97 Q1201.54 1568.97 1198.29 1565.91 Q1195.07 1562.82 1195.07 1557.67 Q1195.07 1551.65 1199.08 1548.6 Q1203.13 1545.54 1211.12 1545.54 L1219.33 1545.54 L1219.33 1544.97 Q1219.33 1540.93 1216.65 1538.73 Q1214.01 1536.5 1209.21 1536.5 Q1206.15 1536.5 1203.25 1537.23 Q1200.36 1537.97 1197.68 1539.43 L1197.68 1534.02 Q1200.9 1532.78 1203.92 1532.17 Q1206.95 1531.54 1209.81 1531.54 Q1217.55 1531.54 1221.36 1535.55 Q1225.18 1539.56 1225.18 1547.71 Z" fill="#000000" fill-rule="nonzero" fill-opacity="1" /><path clip-path="url(#clip810)" d="M1243.04 1522.27 L1243.04 1532.4 L1255.1 1532.4 L1255.1 1536.95 L1243.04 1536.95 L1243.04 1556.3 Q1243.04 1560.66 1244.22 1561.9 Q1245.43 1563.14 1249.09 1563.14 L1255.1 1563.14 L1255.1 1568.04 L1249.09 1568.04 Q1242.31 1568.04 1239.73 1565.53 Q1237.15 1562.98 1237.15 1556.3 L1237.15 1536.95 L1232.86 1536.95 L1232.86 1532.4 L1237.15 1532.4 L1237.15 1522.27 L1243.04 1522.27 Z" fill="#000000" fill-rule="nonzero" fill-opacity="1" /><path clip-path="url(#clip810)" d="M1279.01 1550.12 Q1271.91 1550.12 1269.17 1551.75 Q1266.43 1553.37 1266.43 1557.29 Q1266.43 1560.4 1268.47 1562.25 Q1270.54 1564.07 1274.07 1564.07 Q1278.94 1564.07 1281.87 1560.63 Q1284.83 1557.16 1284.83 1551.43 L1284.83 1550.12 L1279.01 1550.12 M1290.69 1547.71 L1290.69 1568.04 L1284.83 1568.04 L1284.83 1562.63 Q1282.83 1565.88 1279.83 1567.44 Q1276.84 1568.97 1272.51 1568.97 Q1267.04 1568.97 1263.79 1565.91 Q1260.58 1562.82 1260.58 1557.67 Q1260.58 1551.65 1264.59 1548.6 Q1268.63 1545.54 1276.62 1545.54 L1284.83 1545.54 L1284.83 1544.97 Q1284.83 1540.93 1282.16 1538.73 Q1279.52 1536.5 1274.71 1536.5 Q1271.65 1536.5 1268.76 1537.23 Q1265.86 1537.97 1263.19 1539.43 L1263.19 1534.02 Q1266.4 1532.78 1269.43 1532.17 Q1272.45 1531.54 1275.31 1531.54 Q1283.05 1531.54 1286.87 1535.55 Q1290.69 1539.56 1290.69 1547.71 Z" fill="#000000" fill-rule="nonzero" fill-opacity="1" /><path clip-path="url(#clip810)" d="M1351.23 1539.24 Q1353.42 1535.29 1356.48 1533.41 Q1359.53 1531.54 1363.67 1531.54 Q1369.24 1531.54 1372.26 1535.45 Q1375.29 1539.33 1375.29 1546.53 L1375.29 1568.04 L1369.4 1568.04 L1369.4 1546.72 Q1369.4 1541.59 1367.59 1539.11 Q1365.77 1536.63 1362.05 1536.63 Q1357.5 1536.63 1354.85 1539.65 Q1352.21 1542.68 1352.21 1547.9 L1352.21 1568.04 L1346.32 1568.04 L1346.32 1546.72 Q1346.32 1541.56 1344.51 1539.11 Q1342.7 1536.63 1338.91 1536.63 Q1334.42 1536.63 1331.78 1539.68 Q1329.14 1542.71 1329.14 1547.9 L1329.14 1568.04 L1323.25 1568.04 L1323.25 1532.4 L1329.14 1532.4 L1329.14 1537.93 Q1331.14 1534.66 1333.94 1533.1 Q1336.74 1531.54 1340.59 1531.54 Q1344.48 1531.54 1347.18 1533.51 Q1349.92 1535.48 1351.23 1539.24 Z" fill="#000000" fill-rule="nonzero" fill-opacity="1" /><path clip-path="url(#clip810)" d="M1386.97 1532.4 L1392.83 1532.4 L1392.83 1568.04 L1386.97 1568.04 L1386.97 1532.4 M1386.97 1518.52 L1392.83 1518.52 L1392.83 1525.93 L1386.97 1525.93 L1386.97 1518.52 Z" fill="#000000" fill-rule="nonzero" fill-opacity="1" /><path clip-path="url(#clip810)" d="M1427.8 1533.45 L1427.8 1538.98 Q1425.32 1537.71 1422.65 1537.07 Q1419.98 1536.44 1417.11 1536.44 Q1412.75 1536.44 1410.55 1537.77 Q1408.39 1539.11 1408.39 1541.79 Q1408.39 1543.82 1409.95 1545 Q1411.51 1546.15 1416.22 1547.2 L1418.22 1547.64 Q1424.46 1548.98 1427.07 1551.43 Q1429.71 1553.85 1429.71 1558.21 Q1429.71 1563.17 1425.77 1566.07 Q1421.85 1568.97 1414.98 1568.97 Q1412.11 1568.97 1408.99 1568.39 Q1405.91 1567.85 1402.47 1566.74 L1402.47 1560.69 Q1405.72 1562.38 1408.87 1563.24 Q1412.02 1564.07 1415.11 1564.07 Q1419.24 1564.07 1421.47 1562.66 Q1423.7 1561.23 1423.7 1558.65 Q1423.7 1556.27 1422.08 1554.99 Q1420.48 1553.72 1415.04 1552.54 L1413 1552.07 Q1407.56 1550.92 1405.14 1548.56 Q1402.72 1546.18 1402.72 1542.04 Q1402.72 1537.01 1406.29 1534.27 Q1409.85 1531.54 1416.41 1531.54 Q1419.66 1531.54 1422.52 1532.01 Q1425.39 1532.49 1427.8 1533.45 Z" fill="#000000" fill-rule="nonzero" fill-opacity="1" /><path clip-path="url(#clip810)" d="M1461.77 1533.45 L1461.77 1538.98 Q1459.28 1537.71 1456.61 1537.07 Q1453.94 1536.44 1451.07 1536.44 Q1446.71 1536.44 1444.51 1537.77 Q1442.35 1539.11 1442.35 1541.79 Q1442.35 1543.82 1443.91 1545 Q1445.47 1546.15 1450.18 1547.2 L1452.19 1547.64 Q1458.42 1548.98 1461.03 1551.43 Q1463.68 1553.85 1463.68 1558.21 Q1463.68 1563.17 1459.73 1566.07 Q1455.81 1568.97 1448.94 1568.97 Q1446.07 1568.97 1442.96 1568.39 Q1439.87 1567.85 1436.43 1566.74 L1436.43 1560.69 Q1439.68 1562.38 1442.83 1563.24 Q1445.98 1564.07 1449.07 1564.07 Q1453.2 1564.07 1455.43 1562.66 Q1457.66 1561.23 1457.66 1558.65 Q1457.66 1556.27 1456.04 1554.99 Q1454.45 1553.72 1449 1552.54 L1446.97 1552.07 Q1441.52 1550.92 1439.1 1548.56 Q1436.68 1546.18 1436.68 1542.04 Q1436.68 1537.01 1440.25 1534.27 Q1443.81 1531.54 1450.37 1531.54 Q1453.62 1531.54 1456.48 1532.01 Q1459.35 1532.49 1461.77 1533.45 Z" fill="#000000" fill-rule="nonzero" fill-opacity="1" /><path clip-path="url(#clip810)" d="M1473 1532.4 L1478.86 1532.4 L1478.86 1568.04 L1473 1568.04 L1473 1532.4 M1473 1518.52 L1478.86 1518.52 L1478.86 1525.93 L1473 1525.93 L1473 1518.52 Z" fill="#000000" fill-rule="nonzero" fill-opacity="1" /><path clip-path="url(#clip810)" d="M1520.74 1546.53 L1520.74 1568.04 L1514.89 1568.04 L1514.89 1546.72 Q1514.89 1541.66 1512.91 1539.14 Q1510.94 1536.63 1506.99 1536.63 Q1502.25 1536.63 1499.51 1539.65 Q1496.78 1542.68 1496.78 1547.9 L1496.78 1568.04 L1490.89 1568.04 L1490.89 1532.4 L1496.78 1532.4 L1496.78 1537.93 Q1498.88 1534.72 1501.71 1533.13 Q1504.58 1531.54 1508.3 1531.54 Q1514.44 1531.54 1517.59 1535.36 Q1520.74 1539.14 1520.74 1546.53 Z" fill="#000000" fill-rule="nonzero" fill-opacity="1" /><path clip-path="url(#clip810)" d="M1555.88 1549.81 Q1555.88 1543.44 1553.24 1539.94 Q1550.63 1536.44 1545.89 1536.44 Q1541.18 1536.44 1538.54 1539.94 Q1535.93 1543.44 1535.93 1549.81 Q1535.93 1556.14 1538.54 1559.64 Q1541.18 1563.14 1545.89 1563.14 Q1550.63 1563.14 1553.24 1559.64 Q1555.88 1556.14 1555.88 1549.81 M1561.74 1563.62 Q1561.74 1572.72 1557.7 1577.15 Q1553.65 1581.6 1545.32 1581.6 Q1542.23 1581.6 1539.49 1581.13 Q1536.75 1580.68 1534.18 1579.72 L1534.18 1574.03 Q1536.75 1575.43 1539.27 1576.1 Q1541.78 1576.76 1544.39 1576.76 Q1550.15 1576.76 1553.02 1573.74 Q1555.88 1570.75 1555.88 1564.67 L1555.88 1561.77 Q1554.07 1564.92 1551.24 1566.48 Q1548.4 1568.04 1544.46 1568.04 Q1537.9 1568.04 1533.89 1563.05 Q1529.88 1558.05 1529.88 1549.81 Q1529.88 1541.53 1533.89 1536.53 Q1537.9 1531.54 1544.46 1531.54 Q1548.4 1531.54 1551.24 1533.1 Q1554.07 1534.66 1555.88 1537.81 L1555.88 1532.4 L1561.74 1532.4 L1561.74 1563.62 Z" fill="#000000" fill-rule="nonzero" fill-opacity="1" /><polyline clip-path="url(#clip810)" style="stroke:#000000; stroke-linecap:round; stroke-linejoin:round; stroke-width:4; stroke-opacity:1; fill:none" points="279.704,1423.18 279.704,123.472 "/>
<polyline clip-path="url(#clip810)" style="stroke:#000000; stroke-linecap:round; stroke-linejoin:round; stroke-width:4; stroke-opacity:1; fill:none" points="279.704,1268.87 298.602,1268.87 "/>
<polyline clip-path="url(#clip810)" style="stroke:#000000; stroke-linecap:round; stroke-linejoin:round; stroke-width:4; stroke-opacity:1; fill:none" points="279.704,1069.27 298.602,1069.27 "/>
<polyline clip-path="url(#clip810)" style="stroke:#000000; stroke-linecap:round; stroke-linejoin:round; stroke-width:4; stroke-opacity:1; fill:none" points="279.704,869.659 298.602,869.659 "/>
<polyline clip-path="url(#clip810)" style="stroke:#000000; stroke-linecap:round; stroke-linejoin:round; stroke-width:4; stroke-opacity:1; fill:none" points="279.704,670.052 298.602,670.052 "/>
<polyline clip-path="url(#clip810)" style="stroke:#000000; stroke-linecap:round; stroke-linejoin:round; stroke-width:4; stroke-opacity:1; fill:none" points="279.704,470.444 298.602,470.444 "/>
<polyline clip-path="url(#clip810)" style="stroke:#000000; stroke-linecap:round; stroke-linejoin:round; stroke-width:4; stroke-opacity:1; fill:none" points="279.704,270.837 298.602,270.837 "/>
<path clip-path="url(#clip810)" d="M127.2 1254.67 Q123.589 1254.67 121.76 1258.24 Q119.955 1261.78 119.955 1268.91 Q119.955 1276.01 121.76 1279.58 Q123.589 1283.12 127.2 1283.12 Q130.834 1283.12 132.64 1279.58 Q134.468 1276.01 134.468 1268.91 Q134.468 1261.78 132.64 1258.24 Q130.834 1254.67 127.2 1254.67 M127.2 1250.97 Q133.01 1250.97 136.066 1255.57 Q139.144 1260.16 139.144 1268.91 Q139.144 1277.63 136.066 1282.24 Q133.01 1286.82 127.2 1286.82 Q121.39 1286.82 118.311 1282.24 Q115.256 1277.63 115.256 1268.91 Q115.256 1260.16 118.311 1255.57 Q121.39 1250.97 127.2 1250.97 Z" fill="#000000" fill-rule="nonzero" fill-opacity="1" /><path clip-path="url(#clip810)" d="M147.362 1280.27 L152.246 1280.27 L152.246 1286.15 L147.362 1286.15 L147.362 1280.27 Z" fill="#000000" fill-rule="nonzero" fill-opacity="1" /><path clip-path="url(#clip810)" d="M172.431 1254.67 Q168.82 1254.67 166.991 1258.24 Q165.186 1261.78 165.186 1268.91 Q165.186 1276.01 166.991 1279.58 Q168.82 1283.12 172.431 1283.12 Q176.065 1283.12 177.871 1279.58 Q179.7 1276.01 179.7 1268.91 Q179.7 1261.78 177.871 1258.24 Q176.065 1254.67 172.431 1254.67 M172.431 1250.97 Q178.241 1250.97 181.297 1255.57 Q184.376 1260.16 184.376 1268.91 Q184.376 1277.63 181.297 1282.24 Q178.241 1286.82 172.431 1286.82 Q166.621 1286.82 163.542 1282.24 Q160.487 1277.63 160.487 1268.91 Q160.487 1260.16 163.542 1255.57 Q166.621 1250.97 172.431 1250.97 Z" fill="#000000" fill-rule="nonzero" fill-opacity="1" /><path clip-path="url(#clip810)" d="M192.732 1285.44 L192.732 1281.18 Q194.491 1282.01 196.297 1282.45 Q198.102 1282.89 199.838 1282.89 Q204.468 1282.89 206.899 1279.79 Q209.352 1276.66 209.699 1270.32 Q208.357 1272.31 206.297 1273.38 Q204.237 1274.44 201.737 1274.44 Q196.551 1274.44 193.519 1271.32 Q190.51 1268.17 190.51 1262.73 Q190.51 1257.4 193.658 1254.19 Q196.806 1250.97 202.037 1250.97 Q208.033 1250.97 211.181 1255.57 Q214.352 1260.16 214.352 1268.91 Q214.352 1277.08 210.463 1281.96 Q206.598 1286.82 200.047 1286.82 Q198.287 1286.82 196.482 1286.48 Q194.676 1286.13 192.732 1285.44 M202.037 1270.78 Q205.186 1270.78 207.014 1268.63 Q208.866 1266.48 208.866 1262.73 Q208.866 1259 207.014 1256.85 Q205.186 1254.67 202.037 1254.67 Q198.889 1254.67 197.037 1256.85 Q195.209 1259 195.209 1262.73 Q195.209 1266.48 197.037 1268.63 Q198.889 1270.78 202.037 1270.78 Z" fill="#000000" fill-rule="nonzero" fill-opacity="1" /><path clip-path="url(#clip810)" d="M222.801 1251.59 L241.158 1251.59 L241.158 1255.53 L227.084 1255.53 L227.084 1264 Q228.102 1263.65 229.121 1263.49 Q230.139 1263.31 231.158 1263.31 Q236.945 1263.31 240.324 1266.48 Q243.704 1269.65 243.704 1275.07 Q243.704 1280.64 240.232 1283.75 Q236.76 1286.82 230.44 1286.82 Q228.264 1286.82 225.996 1286.45 Q223.75 1286.08 221.343 1285.34 L221.343 1280.64 Q223.426 1281.78 225.648 1282.33 Q227.871 1282.89 230.347 1282.89 Q234.352 1282.89 236.69 1280.78 Q239.028 1278.68 239.028 1275.07 Q239.028 1271.45 236.69 1269.35 Q234.352 1267.24 230.347 1267.24 Q228.473 1267.24 226.598 1267.66 Q224.746 1268.07 222.801 1268.95 L222.801 1251.59 Z" fill="#000000" fill-rule="nonzero" fill-opacity="1" /><path clip-path="url(#clip810)" d="M126.205 1055.06 Q122.593 1055.06 120.765 1058.63 Q118.959 1062.17 118.959 1069.3 Q118.959 1076.41 120.765 1079.97 Q122.593 1083.51 126.205 1083.51 Q129.839 1083.51 131.644 1079.97 Q133.473 1076.41 133.473 1069.3 Q133.473 1062.17 131.644 1058.63 Q129.839 1055.06 126.205 1055.06 M126.205 1051.36 Q132.015 1051.36 135.07 1055.97 Q138.149 1060.55 138.149 1069.3 Q138.149 1078.03 135.07 1082.63 Q132.015 1087.22 126.205 1087.22 Q120.394 1087.22 117.316 1082.63 Q114.26 1078.03 114.26 1069.3 Q114.26 1060.55 117.316 1055.97 Q120.394 1051.36 126.205 1051.36 Z" fill="#000000" fill-rule="nonzero" fill-opacity="1" /><path clip-path="url(#clip810)" d="M146.366 1080.67 L151.251 1080.67 L151.251 1086.55 L146.366 1086.55 L146.366 1080.67 Z" fill="#000000" fill-rule="nonzero" fill-opacity="1" /><path clip-path="url(#clip810)" d="M162.246 1082.61 L169.885 1082.61 L169.885 1056.25 L161.575 1057.91 L161.575 1053.65 L169.839 1051.99 L174.514 1051.99 L174.514 1082.61 L182.153 1082.61 L182.153 1086.55 L162.246 1086.55 L162.246 1082.61 Z" fill="#000000" fill-rule="nonzero" fill-opacity="1" /><path clip-path="url(#clip810)" d="M201.598 1055.06 Q197.987 1055.06 196.158 1058.63 Q194.352 1062.17 194.352 1069.3 Q194.352 1076.41 196.158 1079.97 Q197.987 1083.51 201.598 1083.51 Q205.232 1083.51 207.037 1079.97 Q208.866 1076.41 208.866 1069.3 Q208.866 1062.17 207.037 1058.63 Q205.232 1055.06 201.598 1055.06 M201.598 1051.36 Q207.408 1051.36 210.463 1055.97 Q213.542 1060.55 213.542 1069.3 Q213.542 1078.03 210.463 1082.63 Q207.408 1087.22 201.598 1087.22 Q195.787 1087.22 192.709 1082.63 Q189.653 1078.03 189.653 1069.3 Q189.653 1060.55 192.709 1055.97 Q195.787 1051.36 201.598 1051.36 Z" fill="#000000" fill-rule="nonzero" fill-opacity="1" /><path clip-path="url(#clip810)" d="M231.76 1055.06 Q228.148 1055.06 226.32 1058.63 Q224.514 1062.17 224.514 1069.3 Q224.514 1076.41 226.32 1079.97 Q228.148 1083.51 231.76 1083.51 Q235.394 1083.51 237.199 1079.97 Q239.028 1076.41 239.028 1069.3 Q239.028 1062.17 237.199 1058.63 Q235.394 1055.06 231.76 1055.06 M231.76 1051.36 Q237.57 1051.36 240.625 1055.97 Q243.704 1060.55 243.704 1069.3 Q243.704 1078.03 240.625 1082.63 Q237.57 1087.22 231.76 1087.22 Q225.949 1087.22 222.871 1082.63 Q219.815 1078.03 219.815 1069.3 Q219.815 1060.55 222.871 1055.97 Q225.949 1051.36 231.76 1051.36 Z" fill="#000000" fill-rule="nonzero" fill-opacity="1" /><path clip-path="url(#clip810)" d="M127.2 855.458 Q123.589 855.458 121.76 859.022 Q119.955 862.564 119.955 869.694 Q119.955 876.8 121.76 880.365 Q123.589 883.906 127.2 883.906 Q130.834 883.906 132.64 880.365 Q134.468 876.8 134.468 869.694 Q134.468 862.564 132.64 859.022 Q130.834 855.458 127.2 855.458 M127.2 851.754 Q133.01 851.754 136.066 856.36 Q139.144 860.944 139.144 869.694 Q139.144 878.42 136.066 883.027 Q133.01 887.61 127.2 887.61 Q121.39 887.61 118.311 883.027 Q115.256 878.42 115.256 869.694 Q115.256 860.944 118.311 856.36 Q121.39 851.754 127.2 851.754 Z" fill="#000000" fill-rule="nonzero" fill-opacity="1" /><path clip-path="url(#clip810)" d="M147.362 881.059 L152.246 881.059 L152.246 886.939 L147.362 886.939 L147.362 881.059 Z" fill="#000000" fill-rule="nonzero" fill-opacity="1" /><path clip-path="url(#clip810)" d="M163.241 883.004 L170.88 883.004 L170.88 856.638 L162.57 858.305 L162.57 854.046 L170.834 852.379 L175.51 852.379 L175.51 883.004 L183.149 883.004 L183.149 886.939 L163.241 886.939 L163.241 883.004 Z" fill="#000000" fill-rule="nonzero" fill-opacity="1" /><path clip-path="url(#clip810)" d="M202.593 855.458 Q198.982 855.458 197.153 859.022 Q195.348 862.564 195.348 869.694 Q195.348 876.8 197.153 880.365 Q198.982 883.906 202.593 883.906 Q206.227 883.906 208.033 880.365 Q209.861 876.8 209.861 869.694 Q209.861 862.564 208.033 859.022 Q206.227 855.458 202.593 855.458 M202.593 851.754 Q208.403 851.754 211.459 856.36 Q214.537 860.944 214.537 869.694 Q214.537 878.42 211.459 883.027 Q208.403 887.61 202.593 887.61 Q196.783 887.61 193.704 883.027 Q190.649 878.42 190.649 869.694 Q190.649 860.944 193.704 856.36 Q196.783 851.754 202.593 851.754 Z" fill="#000000" fill-rule="nonzero" fill-opacity="1" /><path clip-path="url(#clip810)" d="M222.801 852.379 L241.158 852.379 L241.158 856.314 L227.084 856.314 L227.084 864.786 Q228.102 864.439 229.121 864.277 Q230.139 864.092 231.158 864.092 Q236.945 864.092 240.324 867.263 Q243.704 870.434 243.704 875.851 Q243.704 881.43 240.232 884.531 Q236.76 887.61 230.44 887.61 Q228.264 887.61 225.996 887.24 Q223.75 886.869 221.343 886.129 L221.343 881.43 Q223.426 882.564 225.648 883.119 Q227.871 883.675 230.347 883.675 Q234.352 883.675 236.69 881.569 Q239.028 879.462 239.028 875.851 Q239.028 872.24 236.69 870.133 Q234.352 868.027 230.347 868.027 Q228.473 868.027 226.598 868.444 Q224.746 868.86 222.801 869.74 L222.801 852.379 Z" fill="#000000" fill-rule="nonzero" fill-opacity="1" /><path clip-path="url(#clip810)" d="M126.205 655.85 Q122.593 655.85 120.765 659.415 Q118.959 662.957 118.959 670.086 Q118.959 677.193 120.765 680.758 Q122.593 684.299 126.205 684.299 Q129.839 684.299 131.644 680.758 Q133.473 677.193 133.473 670.086 Q133.473 662.957 131.644 659.415 Q129.839 655.85 126.205 655.85 M126.205 652.147 Q132.015 652.147 135.07 656.753 Q138.149 661.336 138.149 670.086 Q138.149 678.813 135.07 683.42 Q132.015 688.003 126.205 688.003 Q120.394 688.003 117.316 683.42 Q114.26 678.813 114.26 670.086 Q114.26 661.336 117.316 656.753 Q120.394 652.147 126.205 652.147 Z" fill="#000000" fill-rule="nonzero" fill-opacity="1" /><path clip-path="url(#clip810)" d="M146.366 681.452 L151.251 681.452 L151.251 687.332 L146.366 687.332 L146.366 681.452 Z" fill="#000000" fill-rule="nonzero" fill-opacity="1" /><path clip-path="url(#clip810)" d="M162.246 683.396 L169.885 683.396 L169.885 657.031 L161.575 658.697 L161.575 654.438 L169.839 652.772 L174.514 652.772 L174.514 683.396 L182.153 683.396 L182.153 687.332 L162.246 687.332 L162.246 683.396 Z" fill="#000000" fill-rule="nonzero" fill-opacity="1" /><path clip-path="url(#clip810)" d="M192.408 683.396 L200.047 683.396 L200.047 657.031 L191.737 658.697 L191.737 654.438 L200 652.772 L204.676 652.772 L204.676 683.396 L212.315 683.396 L212.315 687.332 L192.408 687.332 L192.408 683.396 Z" fill="#000000" fill-rule="nonzero" fill-opacity="1" /><path clip-path="url(#clip810)" d="M231.76 655.85 Q228.148 655.85 226.32 659.415 Q224.514 662.957 224.514 670.086 Q224.514 677.193 226.32 680.758 Q228.148 684.299 231.76 684.299 Q235.394 684.299 237.199 680.758 Q239.028 677.193 239.028 670.086 Q239.028 662.957 237.199 659.415 Q235.394 655.85 231.76 655.85 M231.76 652.147 Q237.57 652.147 240.625 656.753 Q243.704 661.336 243.704 670.086 Q243.704 678.813 240.625 683.42 Q237.57 688.003 231.76 688.003 Q225.949 688.003 222.871 683.42 Q219.815 678.813 219.815 670.086 Q219.815 661.336 222.871 656.753 Q225.949 652.147 231.76 652.147 Z" fill="#000000" fill-rule="nonzero" fill-opacity="1" /><path clip-path="url(#clip810)" d="M127.2 456.243 Q123.589 456.243 121.76 459.808 Q119.955 463.349 119.955 470.479 Q119.955 477.585 121.76 481.15 Q123.589 484.692 127.2 484.692 Q130.834 484.692 132.64 481.15 Q134.468 477.585 134.468 470.479 Q134.468 463.349 132.64 459.808 Q130.834 456.243 127.2 456.243 M127.2 452.539 Q133.01 452.539 136.066 457.146 Q139.144 461.729 139.144 470.479 Q139.144 479.206 136.066 483.812 Q133.01 488.396 127.2 488.396 Q121.39 488.396 118.311 483.812 Q115.256 479.206 115.256 470.479 Q115.256 461.729 118.311 457.146 Q121.39 452.539 127.2 452.539 Z" fill="#000000" fill-rule="nonzero" fill-opacity="1" /><path clip-path="url(#clip810)" d="M147.362 481.845 L152.246 481.845 L152.246 487.724 L147.362 487.724 L147.362 481.845 Z" fill="#000000" fill-rule="nonzero" fill-opacity="1" /><path clip-path="url(#clip810)" d="M163.241 483.789 L170.88 483.789 L170.88 457.424 L162.57 459.09 L162.57 454.831 L170.834 453.164 L175.51 453.164 L175.51 483.789 L183.149 483.789 L183.149 487.724 L163.241 487.724 L163.241 483.789 Z" fill="#000000" fill-rule="nonzero" fill-opacity="1" /><path clip-path="url(#clip810)" d="M193.403 483.789 L201.042 483.789 L201.042 457.424 L192.732 459.09 L192.732 454.831 L200.996 453.164 L205.672 453.164 L205.672 483.789 L213.311 483.789 L213.311 487.724 L193.403 487.724 L193.403 483.789 Z" fill="#000000" fill-rule="nonzero" fill-opacity="1" /><path clip-path="url(#clip810)" d="M222.801 453.164 L241.158 453.164 L241.158 457.099 L227.084 457.099 L227.084 465.572 Q228.102 465.224 229.121 465.062 Q230.139 464.877 231.158 464.877 Q236.945 464.877 240.324 468.048 Q243.704 471.22 243.704 476.636 Q243.704 482.215 240.232 485.317 Q236.76 488.396 230.44 488.396 Q228.264 488.396 225.996 488.025 Q223.75 487.655 221.343 486.914 L221.343 482.215 Q223.426 483.349 225.648 483.905 Q227.871 484.46 230.347 484.46 Q234.352 484.46 236.69 482.354 Q239.028 480.247 239.028 476.636 Q239.028 473.025 236.69 470.919 Q234.352 468.812 230.347 468.812 Q228.473 468.812 226.598 469.229 Q224.746 469.646 222.801 470.525 L222.801 453.164 Z" fill="#000000" fill-rule="nonzero" fill-opacity="1" /><path clip-path="url(#clip810)" d="M126.205 256.636 Q122.593 256.636 120.765 260.2 Q118.959 263.742 118.959 270.872 Q118.959 277.978 120.765 281.543 Q122.593 285.085 126.205 285.085 Q129.839 285.085 131.644 281.543 Q133.473 277.978 133.473 270.872 Q133.473 263.742 131.644 260.2 Q129.839 256.636 126.205 256.636 M126.205 252.932 Q132.015 252.932 135.07 257.538 Q138.149 262.122 138.149 270.872 Q138.149 279.599 135.07 284.205 Q132.015 288.788 126.205 288.788 Q120.394 288.788 117.316 284.205 Q114.26 279.599 114.26 270.872 Q114.26 262.122 117.316 257.538 Q120.394 252.932 126.205 252.932 Z" fill="#000000" fill-rule="nonzero" fill-opacity="1" /><path clip-path="url(#clip810)" d="M146.366 282.237 L151.251 282.237 L151.251 288.117 L146.366 288.117 L146.366 282.237 Z" fill="#000000" fill-rule="nonzero" fill-opacity="1" /><path clip-path="url(#clip810)" d="M162.246 284.182 L169.885 284.182 L169.885 257.816 L161.575 259.483 L161.575 255.224 L169.839 253.557 L174.514 253.557 L174.514 284.182 L182.153 284.182 L182.153 288.117 L162.246 288.117 L162.246 284.182 Z" fill="#000000" fill-rule="nonzero" fill-opacity="1" /><path clip-path="url(#clip810)" d="M195.625 284.182 L211.945 284.182 L211.945 288.117 L190 288.117 L190 284.182 Q192.663 281.427 197.246 276.798 Q201.852 272.145 203.033 270.802 Q205.278 268.279 206.158 266.543 Q207.061 264.784 207.061 263.094 Q207.061 260.339 205.116 258.603 Q203.195 256.867 200.093 256.867 Q197.894 256.867 195.44 257.631 Q193.01 258.395 190.232 259.946 L190.232 255.224 Q193.056 254.089 195.51 253.511 Q197.963 252.932 200 252.932 Q205.371 252.932 208.565 255.617 Q211.76 258.302 211.76 262.793 Q211.76 264.923 210.949 266.844 Q210.162 268.742 208.056 271.335 Q207.477 272.006 204.375 275.224 Q201.274 278.418 195.625 284.182 Z" fill="#000000" fill-rule="nonzero" fill-opacity="1" /><path clip-path="url(#clip810)" d="M231.76 256.636 Q228.148 256.636 226.32 260.2 Q224.514 263.742 224.514 270.872 Q224.514 277.978 226.32 281.543 Q228.148 285.085 231.76 285.085 Q235.394 285.085 237.199 281.543 Q239.028 277.978 239.028 270.872 Q239.028 263.742 237.199 260.2 Q235.394 256.636 231.76 256.636 M231.76 252.932 Q237.57 252.932 240.625 257.538 Q243.704 262.122 243.704 270.872 Q243.704 279.599 240.625 284.205 Q237.57 288.788 231.76 288.788 Q225.949 288.788 222.871 284.205 Q219.815 279.599 219.815 270.872 Q219.815 262.122 222.871 257.538 Q225.949 252.932 231.76 252.932 Z" fill="#000000" fill-rule="nonzero" fill-opacity="1" /><path clip-path="url(#clip810)" d="M33.7671 1080.57 L14.479 1080.57 L14.479 1074.71 L64.0042 1074.71 L64.0042 1080.57 L58.657 1080.57 Q61.8398 1082.41 63.3994 1085.25 Q64.9272 1088.05 64.9272 1091.99 Q64.9272 1098.45 59.771 1102.53 Q54.6147 1106.57 46.212 1106.57 Q37.8093 1106.57 32.6531 1102.53 Q27.4968 1098.45 27.4968 1091.99 Q27.4968 1088.05 29.0564 1085.25 Q30.5842 1082.41 33.7671 1080.57 M46.212 1100.52 Q52.6732 1100.52 56.3653 1097.88 Q60.0256 1095.21 60.0256 1090.56 Q60.0256 1085.91 56.3653 1083.24 Q52.6732 1080.57 46.212 1080.57 Q39.7508 1080.57 36.0905 1083.24 Q32.3984 1085.91 32.3984 1090.56 Q32.3984 1095.21 36.0905 1097.88 Q39.7508 1100.52 46.212 1100.52 Z" fill="#000000" fill-rule="nonzero" fill-opacity="1" /><path clip-path="url(#clip810)" d="M46.0847 1046.45 Q46.0847 1053.54 47.7079 1056.28 Q49.3312 1059.02 53.2461 1059.02 Q56.3653 1059.02 58.2114 1056.98 Q60.0256 1054.91 60.0256 1051.38 Q60.0256 1046.51 56.5881 1043.58 Q53.1188 1040.62 47.3897 1040.62 L46.0847 1040.62 L46.0847 1046.45 M43.6657 1034.77 L64.0042 1034.77 L64.0042 1040.62 L58.5933 1040.62 Q61.8398 1042.63 63.3994 1045.62 Q64.9272 1048.61 64.9272 1052.94 Q64.9272 1058.41 61.8716 1061.66 Q58.7843 1064.88 53.6281 1064.88 Q47.6125 1064.88 44.5569 1060.86 Q41.5014 1056.82 41.5014 1048.83 L41.5014 1040.62 L40.9285 1040.62 Q36.8862 1040.62 34.6901 1043.3 Q32.4621 1045.94 32.4621 1050.74 Q32.4621 1053.8 33.1941 1056.7 Q33.9262 1059.59 35.3903 1062.27 L29.9795 1062.27 Q28.7381 1059.05 28.1334 1056.03 Q27.4968 1053 27.4968 1050.14 Q27.4968 1042.4 31.5072 1038.58 Q35.5176 1034.77 43.6657 1034.77 Z" fill="#000000" fill-rule="nonzero" fill-opacity="1" /><path clip-path="url(#clip810)" d="M18.2347 1016.91 L28.3562 1016.91 L28.3562 1004.85 L32.9077 1004.85 L32.9077 1016.91 L52.2594 1016.91 Q56.6199 1016.91 57.8613 1015.73 Q59.1026 1014.52 59.1026 1010.86 L59.1026 1004.85 L64.0042 1004.85 L64.0042 1010.86 Q64.0042 1017.64 61.4897 1020.22 Q58.9434 1022.8 52.2594 1022.8 L32.9077 1022.8 L32.9077 1027.09 L28.3562 1027.09 L28.3562 1022.8 L18.2347 1022.8 L18.2347 1016.91 Z" fill="#000000" fill-rule="nonzero" fill-opacity="1" /><path clip-path="url(#clip810)" d="M46.0847 980.944 Q46.0847 988.041 47.7079 990.779 Q49.3312 993.516 53.2461 993.516 Q56.3653 993.516 58.2114 991.479 Q60.0256 989.41 60.0256 985.877 Q60.0256 981.007 56.5881 978.079 Q53.1188 975.119 47.3897 975.119 L46.0847 975.119 L46.0847 980.944 M43.6657 969.262 L64.0042 969.262 L64.0042 975.119 L58.5933 975.119 Q61.8398 977.124 63.3994 980.116 Q64.9272 983.108 64.9272 987.437 Q64.9272 992.911 61.8716 996.158 Q58.7843 999.372 53.6281 999.372 Q47.6125 999.372 44.5569 995.362 Q41.5014 991.32 41.5014 983.331 L41.5014 975.119 L40.9285 975.119 Q36.8862 975.119 34.6901 977.792 Q32.4621 980.434 32.4621 985.24 Q32.4621 988.296 33.1941 991.192 Q33.9262 994.089 35.3903 996.762 L29.9795 996.762 Q28.7381 993.548 28.1334 990.524 Q27.4968 987.5 27.4968 984.636 Q27.4968 976.901 31.5072 973.082 Q35.5176 969.262 43.6657 969.262 Z" fill="#000000" fill-rule="nonzero" fill-opacity="1" /><path clip-path="url(#clip810)" d="M29.4065 934.474 L34.9447 934.474 Q33.6716 936.956 33.035 939.63 Q32.3984 942.304 32.3984 945.168 Q32.3984 949.529 33.7352 951.725 Q35.072 953.889 37.7456 953.889 Q39.7826 953.889 40.9603 952.33 Q42.1061 950.77 43.1565 946.059 L43.6021 944.054 Q44.9389 937.816 47.3897 935.206 Q49.8086 932.564 54.1691 932.564 Q59.1344 932.564 62.0308 936.511 Q64.9272 940.426 64.9272 947.301 Q64.9272 950.165 64.3543 953.285 Q63.8132 956.372 62.6992 959.809 L56.6518 959.809 Q58.3387 956.563 59.198 953.412 Q60.0256 950.261 60.0256 947.173 Q60.0256 943.036 58.6251 940.808 Q57.1929 938.58 54.6147 938.58 Q52.2276 938.58 50.9545 940.203 Q49.6813 941.794 48.5037 947.237 L48.0262 949.274 Q46.8804 954.717 44.5251 957.136 Q42.138 959.555 38.0002 959.555 Q32.9713 959.555 30.2341 955.99 Q27.4968 952.425 27.4968 945.868 Q27.4968 942.622 27.9743 939.757 Q28.4517 936.893 29.4065 934.474 Z" fill="#000000" fill-rule="nonzero" fill-opacity="1" /><path clip-path="url(#clip810)" d="M44.7161 892.747 L47.5806 892.747 L47.5806 919.674 Q53.6281 919.292 56.8109 916.045 Q59.9619 912.767 59.9619 906.942 Q59.9619 903.568 59.1344 900.417 Q58.3069 897.234 56.6518 894.115 L62.1899 894.115 Q63.5267 897.266 64.227 900.576 Q64.9272 903.887 64.9272 907.292 Q64.9272 915.822 59.9619 920.819 Q54.9967 925.785 46.5303 925.785 Q37.7774 925.785 32.6531 921.074 Q27.4968 916.332 27.4968 908.311 Q27.4968 901.118 32.1438 896.948 Q36.7589 892.747 44.7161 892.747 M42.9973 898.603 Q38.1912 898.667 35.3266 901.309 Q32.4621 903.918 32.4621 908.247 Q32.4621 913.149 35.2312 916.109 Q38.0002 919.037 43.0292 919.483 L42.9973 898.603 Z" fill="#000000" fill-rule="nonzero" fill-opacity="1" /><path clip-path="url(#clip810)" d="M18.2347 877.342 L28.3562 877.342 L28.3562 865.279 L32.9077 865.279 L32.9077 877.342 L52.2594 877.342 Q56.6199 877.342 57.8613 876.164 Q59.1026 874.954 59.1026 871.294 L59.1026 865.279 L64.0042 865.279 L64.0042 871.294 Q64.0042 878.074 61.4897 880.652 Q58.9434 883.23 52.2594 883.23 L32.9077 883.23 L32.9077 887.527 L28.3562 887.527 L28.3562 883.23 L18.2347 883.23 L18.2347 877.342 Z" fill="#000000" fill-rule="nonzero" fill-opacity="1" /><path clip-path="url(#clip810)" d="M35.1993 809.101 Q31.2526 806.905 29.3747 803.85 Q27.4968 800.794 27.4968 796.656 Q27.4968 791.086 31.4117 788.063 Q35.2948 785.039 42.4881 785.039 L64.0042 785.039 L64.0042 790.927 L42.679 790.927 Q37.5546 790.927 35.072 792.741 Q32.5894 794.556 32.5894 798.28 Q32.5894 802.831 35.6131 805.473 Q38.6368 808.115 43.8567 808.115 L64.0042 808.115 L64.0042 814.003 L42.679 814.003 Q37.5228 814.003 35.072 815.817 Q32.5894 817.631 32.5894 821.419 Q32.5894 825.907 35.6449 828.548 Q38.6686 831.19 43.8567 831.19 L64.0042 831.19 L64.0042 837.079 L28.3562 837.079 L28.3562 831.19 L33.8944 831.19 Q30.616 829.185 29.0564 826.384 Q27.4968 823.583 27.4968 819.732 Q27.4968 815.849 29.4702 813.143 Q31.4436 810.406 35.1993 809.101 Z" fill="#000000" fill-rule="nonzero" fill-opacity="1" /><path clip-path="url(#clip810)" d="M44.7161 742.866 L47.5806 742.866 L47.5806 769.793 Q53.6281 769.411 56.8109 766.165 Q59.9619 762.886 59.9619 757.062 Q59.9619 753.688 59.1344 750.537 Q58.3069 747.354 56.6518 744.235 L62.1899 744.235 Q63.5267 747.386 64.227 750.696 Q64.9272 754.006 64.9272 757.412 Q64.9272 765.942 59.9619 770.939 Q54.9967 775.904 46.5303 775.904 Q37.7774 775.904 32.6531 771.193 Q27.4968 766.451 27.4968 758.43 Q27.4968 751.237 32.1438 747.067 Q36.7589 742.866 44.7161 742.866 M42.9973 748.723 Q38.1912 748.786 35.3266 751.428 Q32.4621 754.038 32.4621 758.367 Q32.4621 763.268 35.2312 766.228 Q38.0002 769.156 43.0292 769.602 L42.9973 748.723 Z" fill="#000000" fill-rule="nonzero" fill-opacity="1" /><path clip-path="url(#clip810)" d="M33.7671 709.796 L14.479 709.796 L14.479 703.94 L64.0042 703.94 L64.0042 709.796 L58.657 709.796 Q61.8398 711.642 63.3994 714.475 Q64.9272 717.276 64.9272 721.223 Q64.9272 727.684 59.771 731.758 Q54.6147 735.8 46.212 735.8 Q37.8093 735.8 32.6531 731.758 Q27.4968 727.684 27.4968 721.223 Q27.4968 717.276 29.0564 714.475 Q30.5842 711.642 33.7671 709.796 M46.212 729.753 Q52.6732 729.753 56.3653 727.111 Q60.0256 724.437 60.0256 719.79 Q60.0256 715.143 56.3653 712.47 Q52.6732 709.796 46.212 709.796 Q39.7508 709.796 36.0905 712.47 Q32.3984 715.143 32.3984 719.79 Q32.3984 724.437 36.0905 727.111 Q39.7508 729.753 46.212 729.753 Z" fill="#000000" fill-rule="nonzero" fill-opacity="1" /><path clip-path="url(#clip810)" d="M28.3562 691.877 L28.3562 686.02 L64.0042 686.02 L64.0042 691.877 L28.3562 691.877 M14.479 691.877 L14.479 686.02 L21.895 686.02 L21.895 691.877 L14.479 691.877 Z" fill="#000000" fill-rule="nonzero" fill-opacity="1" /><path clip-path="url(#clip810)" d="M46.0847 657.566 Q46.0847 664.663 47.7079 667.401 Q49.3312 670.138 53.2461 670.138 Q56.3653 670.138 58.2114 668.101 Q60.0256 666.032 60.0256 662.499 Q60.0256 657.629 56.5881 654.701 Q53.1188 651.741 47.3897 651.741 L46.0847 651.741 L46.0847 657.566 M43.6657 645.885 L64.0042 645.885 L64.0042 651.741 L58.5933 651.741 Q61.8398 653.746 63.3994 656.738 Q64.9272 659.73 64.9272 664.059 Q64.9272 669.533 61.8716 672.78 Q58.7843 675.994 53.6281 675.994 Q47.6125 675.994 44.5569 671.984 Q41.5014 667.942 41.5014 659.953 L41.5014 651.741 L40.9285 651.741 Q36.8862 651.741 34.6901 654.415 Q32.4621 657.056 32.4621 661.862 Q32.4621 664.918 33.1941 667.814 Q33.9262 670.711 35.3903 673.384 L29.9795 673.384 Q28.7381 670.17 28.1334 667.146 Q27.4968 664.122 27.4968 661.258 Q27.4968 653.523 31.5072 649.704 Q35.5176 645.885 43.6657 645.885 Z" fill="#000000" fill-rule="nonzero" fill-opacity="1" /><path clip-path="url(#clip810)" d="M42.4881 604.189 L64.0042 604.189 L64.0042 610.046 L42.679 610.046 Q37.6183 610.046 35.1038 612.019 Q32.5894 613.992 32.5894 617.939 Q32.5894 622.682 35.6131 625.419 Q38.6368 628.156 43.8567 628.156 L64.0042 628.156 L64.0042 634.044 L28.3562 634.044 L28.3562 628.156 L33.8944 628.156 Q30.6797 626.055 29.0883 623.223 Q27.4968 620.358 27.4968 616.634 Q27.4968 610.491 31.3163 607.34 Q35.1038 604.189 42.4881 604.189 Z" fill="#000000" fill-rule="nonzero" fill-opacity="1" /><path clip-path="url(#clip810)" d="M16.4842 571.533 L16.4842 561.953 L48.8219 549.826 L16.4842 537.636 L16.4842 528.055 L64.0042 528.055 L64.0042 534.326 L22.277 534.326 L54.8694 546.58 L54.8694 553.041 L22.277 565.295 L64.0042 565.295 L64.0042 571.533 L16.4842 571.533 Z" fill="#000000" fill-rule="nonzero" fill-opacity="1" /><path clip-path="url(#clip810)" d="M22.818 499.41 L46.4666 508.131 L46.4666 490.657 L22.818 499.41 M16.4842 503.038 L16.4842 495.749 L64.0042 477.639 L64.0042 484.323 L51.8138 488.652 L51.8138 510.072 L64.0042 514.401 L64.0042 521.18 L16.4842 503.038 Z" fill="#000000" fill-rule="nonzero" fill-opacity="1" /><path clip-path="url(#clip810)" d="M16.4842 470.7 L16.4842 440.654 L21.895 440.654 L21.895 464.271 L35.9632 464.271 L35.9632 441.641 L41.3741 441.641 L41.3741 464.271 L58.5933 464.271 L58.5933 440.081 L64.0042 440.081 L64.0042 470.7 L16.4842 470.7 Z" fill="#000000" fill-rule="nonzero" fill-opacity="1" /><path clip-path="url(#clip810)" d="M939.516 65.6895 L968.075 65.6895 L968.075 72.576 L929.672 72.576 L929.672 65.6895 Q934.331 60.8689 942.352 52.7671 Q950.413 44.6248 952.479 42.2752 Q956.408 37.8598 957.948 34.8216 Q959.528 31.7429 959.528 28.7857 Q959.528 23.9651 956.125 20.927 Q952.763 17.8888 947.334 17.8888 Q943.486 17.8888 939.192 19.2256 Q934.939 20.5624 930.077 23.2765 L930.077 15.0127 Q935.02 13.0277 939.314 12.015 Q943.607 11.0023 947.172 11.0023 Q956.57 11.0023 962.161 15.7013 Q967.751 20.4004 967.751 28.2591 Q967.751 31.9859 966.333 35.3482 Q964.956 38.6699 961.269 43.2069 Q960.257 44.3817 954.828 50.0125 Q949.4 55.6027 939.516 65.6895 Z" fill="#000000" fill-rule="nonzero" fill-opacity="1" /><path clip-path="url(#clip810)" d="M1002.51 12.096 L1053.67 12.096 L1053.67 18.9825 L1032.2 18.9825 L1032.2 72.576 L1023.98 72.576 L1023.98 18.9825 L1002.51 18.9825 L1002.51 12.096 Z" fill="#000000" fill-rule="nonzero" fill-opacity="1" /><path clip-path="url(#clip810)" d="M1075.34 34.1734 Q1074.09 33.4443 1072.59 33.1202 Q1071.13 32.7556 1069.35 32.7556 Q1063.03 32.7556 1059.63 36.8875 Q1056.26 40.9789 1056.26 48.6757 L1056.26 72.576 L1048.77 72.576 L1048.77 27.2059 L1056.26 27.2059 L1056.26 34.2544 Q1058.61 30.1225 1062.38 28.1376 Q1066.15 26.1121 1071.54 26.1121 Q1072.3 26.1121 1073.24 26.2337 Q1074.17 26.3147 1075.3 26.5172 L1075.34 34.1734 Z" fill="#000000" fill-rule="nonzero" fill-opacity="1" /><path clip-path="url(#clip810)" d="M1120.15 48.0275 L1120.15 51.6733 L1085.88 51.6733 Q1086.36 59.3701 1090.49 63.421 Q1094.67 67.4314 1102.08 67.4314 Q1106.37 67.4314 1110.38 66.3781 Q1114.43 65.3249 1118.4 63.2184 L1118.4 70.267 Q1114.39 71.9684 1110.18 72.8596 Q1105.97 73.7508 1101.63 73.7508 Q1090.78 73.7508 1084.42 67.4314 Q1078.1 61.1119 1078.1 50.3365 Q1078.1 39.1965 1084.09 32.6746 Q1090.13 26.1121 1100.34 26.1121 Q1109.49 26.1121 1114.8 32.0264 Q1120.15 37.9003 1120.15 48.0275 M1112.69 45.84 Q1112.61 39.7232 1109.25 36.0774 Q1105.93 32.4315 1100.42 32.4315 Q1094.18 32.4315 1090.41 35.9558 Q1086.69 39.4801 1086.12 45.8805 L1112.69 45.84 Z" fill="#000000" fill-rule="nonzero" fill-opacity="1" /><path clip-path="url(#clip810)" d="M1170.09 45.1919 L1170.09 72.576 L1162.64 72.576 L1162.64 45.4349 Q1162.64 38.994 1160.13 35.7938 Q1157.62 32.5936 1152.59 32.5936 Q1146.56 32.5936 1143.07 36.4419 Q1139.59 40.2903 1139.59 46.9338 L1139.59 72.576 L1132.1 72.576 L1132.1 27.2059 L1139.59 27.2059 L1139.59 34.2544 Q1142.26 30.163 1145.87 28.1376 Q1149.51 26.1121 1154.25 26.1121 Q1162.07 26.1121 1166.08 30.9732 Q1170.09 35.7938 1170.09 45.1919 Z" fill="#000000" fill-rule="nonzero" fill-opacity="1" /><path clip-path="url(#clip810)" d="M1214.82 34.0924 L1214.82 9.54393 L1222.27 9.54393 L1222.27 72.576 L1214.82 72.576 L1214.82 65.7705 Q1212.47 69.8214 1208.86 71.8063 Q1205.3 73.7508 1200.27 73.7508 Q1192.05 73.7508 1186.86 67.1883 Q1181.72 60.6258 1181.72 49.9314 Q1181.72 39.2371 1186.86 32.6746 Q1192.05 26.1121 1200.27 26.1121 Q1205.3 26.1121 1208.86 28.0971 Q1212.47 30.0415 1214.82 34.0924 M1189.42 49.9314 Q1189.42 58.1548 1192.78 62.8538 Q1196.18 67.5124 1202.1 67.5124 Q1208.01 67.5124 1211.41 62.8538 Q1214.82 58.1548 1214.82 49.9314 Q1214.82 41.7081 1211.41 37.0496 Q1208.01 32.3505 1202.1 32.3505 Q1196.18 32.3505 1192.78 37.0496 Q1189.42 41.7081 1189.42 49.9314 Z" fill="#000000" fill-rule="nonzero" fill-opacity="1" /><path clip-path="url(#clip810)" d="M1266.55 28.5427 L1266.55 35.5912 Q1263.39 33.9709 1259.98 33.1607 Q1256.58 32.3505 1252.93 32.3505 Q1247.38 32.3505 1244.59 34.0519 Q1241.84 35.7533 1241.84 39.156 Q1241.84 41.7486 1243.82 43.2475 Q1245.8 44.7058 1251.8 46.0426 L1254.35 46.6097 Q1262.29 48.3111 1265.61 51.4303 Q1268.98 54.509 1268.98 60.0587 Q1268.98 66.3781 1263.95 70.0644 Q1258.97 73.7508 1250.22 73.7508 Q1246.57 73.7508 1242.6 73.0216 Q1238.68 72.3329 1234.3 70.9151 L1234.3 63.2184 Q1238.43 65.3654 1242.44 66.4591 Q1246.45 67.5124 1250.38 67.5124 Q1255.65 67.5124 1258.48 65.73 Q1261.32 63.9071 1261.32 60.6258 Q1261.32 57.5877 1259.25 55.9673 Q1257.23 54.3469 1250.3 52.8481 L1247.71 52.2405 Q1240.78 50.7821 1237.7 47.7845 Q1234.62 44.7463 1234.62 39.4801 Q1234.62 33.0797 1239.16 29.5959 Q1243.7 26.1121 1252.04 26.1121 Q1256.18 26.1121 1259.82 26.7198 Q1263.47 27.3274 1266.55 28.5427 Z" fill="#000000" fill-rule="nonzero" fill-opacity="1" /><path clip-path="url(#clip810)" d="M1282.75 62.2867 L1291.3 62.2867 L1291.3 69.2543 L1284.65 82.2172 L1279.43 82.2172 L1282.75 69.2543 L1282.75 62.2867 Z" fill="#000000" fill-rule="nonzero" fill-opacity="1" /><path clip-path="url(#clip810)" d="M1341.69 65.6895 L1370.25 65.6895 L1370.25 72.576 L1331.85 72.576 L1331.85 65.6895 Q1336.5 60.8689 1344.53 52.7671 Q1352.59 44.6248 1354.65 42.2752 Q1358.58 37.8598 1360.12 34.8216 Q1361.7 31.7429 1361.7 28.7857 Q1361.7 23.9651 1358.3 20.927 Q1354.94 17.8888 1349.51 17.8888 Q1345.66 17.8888 1341.37 19.2256 Q1337.11 20.5624 1332.25 23.2765 L1332.25 15.0127 Q1337.19 13.0277 1341.49 12.015 Q1345.78 11.0023 1349.35 11.0023 Q1358.74 11.0023 1364.33 15.7013 Q1369.92 20.4004 1369.92 28.2591 Q1369.92 31.9859 1368.51 35.3482 Q1367.13 38.6699 1363.44 43.2069 Q1362.43 44.3817 1357 50.0125 Q1351.57 55.6027 1341.69 65.6895 Z" fill="#000000" fill-rule="nonzero" fill-opacity="1" /><path clip-path="url(#clip810)" d="M1421.25 18.8205 L1421.25 41.5461 L1431.54 41.5461 Q1437.25 41.5461 1440.37 38.5889 Q1443.49 35.6318 1443.49 30.163 Q1443.49 24.7348 1440.37 21.7777 Q1437.25 18.8205 1431.54 18.8205 L1421.25 18.8205 M1413.07 12.096 L1431.54 12.096 Q1441.71 12.096 1446.89 16.714 Q1452.12 21.2916 1452.12 30.163 Q1452.12 39.1155 1446.89 43.6931 Q1441.71 48.2706 1431.54 48.2706 L1421.25 48.2706 L1421.25 72.576 L1413.07 72.576 L1413.07 12.096 Z" fill="#000000" fill-rule="nonzero" fill-opacity="1" /><path clip-path="url(#clip810)" d="M1498.62 48.0275 L1498.62 51.6733 L1464.35 51.6733 Q1464.84 59.3701 1468.97 63.421 Q1473.14 67.4314 1480.55 67.4314 Q1484.85 67.4314 1488.86 66.3781 Q1492.91 65.3249 1496.88 63.2184 L1496.88 70.267 Q1492.87 71.9684 1488.66 72.8596 Q1484.44 73.7508 1480.11 73.7508 Q1469.25 73.7508 1462.89 67.4314 Q1456.57 61.1119 1456.57 50.3365 Q1456.57 39.1965 1462.57 32.6746 Q1468.6 26.1121 1478.81 26.1121 Q1487.97 26.1121 1493.27 32.0264 Q1498.62 37.9003 1498.62 48.0275 M1491.17 45.84 Q1491.09 39.7232 1487.72 36.0774 Q1484.4 32.4315 1478.89 32.4315 Q1472.66 32.4315 1468.89 35.9558 Q1465.16 39.4801 1464.59 45.8805 L1491.17 45.84 Z" fill="#000000" fill-rule="nonzero" fill-opacity="1" /><path clip-path="url(#clip810)" d="M1537.15 34.1734 Q1535.89 33.4443 1534.39 33.1202 Q1532.93 32.7556 1531.15 32.7556 Q1524.83 32.7556 1521.43 36.8875 Q1518.07 40.9789 1518.07 48.6757 L1518.07 72.576 L1510.57 72.576 L1510.57 27.2059 L1518.07 27.2059 L1518.07 34.2544 Q1520.42 30.1225 1524.18 28.1376 Q1527.95 26.1121 1533.34 26.1121 Q1534.11 26.1121 1535.04 26.2337 Q1535.97 26.3147 1537.11 26.5172 L1537.15 34.1734 Z" fill="#000000" fill-rule="nonzero" fill-opacity="1" /><path clip-path="url(#clip810)" d="M1544.96 27.2059 L1552.42 27.2059 L1552.42 72.576 L1544.96 72.576 L1544.96 27.2059 M1544.96 9.54393 L1552.42 9.54393 L1552.42 18.9825 L1544.96 18.9825 L1544.96 9.54393 Z" fill="#000000" fill-rule="nonzero" fill-opacity="1" /><path clip-path="url(#clip810)" d="M1585.59 32.4315 Q1579.6 32.4315 1576.12 37.1306 Q1572.63 41.7891 1572.63 49.9314 Q1572.63 58.0738 1576.08 62.7728 Q1579.56 67.4314 1585.59 67.4314 Q1591.55 67.4314 1595.03 62.7323 Q1598.52 58.0333 1598.52 49.9314 Q1598.52 41.8701 1595.03 37.1711 Q1591.55 32.4315 1585.59 32.4315 M1585.59 26.1121 Q1595.32 26.1121 1600.87 32.4315 Q1606.42 38.7509 1606.42 49.9314 Q1606.42 61.0714 1600.87 67.4314 Q1595.32 73.7508 1585.59 73.7508 Q1575.83 73.7508 1570.28 67.4314 Q1564.77 61.0714 1564.77 49.9314 Q1564.77 38.7509 1570.28 32.4315 Q1575.83 26.1121 1585.59 26.1121 Z" fill="#000000" fill-rule="nonzero" fill-opacity="1" /><path clip-path="url(#clip810)" d="M1648.63 34.0924 L1648.63 9.54393 L1656.08 9.54393 L1656.08 72.576 L1648.63 72.576 L1648.63 65.7705 Q1646.28 69.8214 1642.67 71.8063 Q1639.11 73.7508 1634.08 73.7508 Q1625.86 73.7508 1620.68 67.1883 Q1615.53 60.6258 1615.53 49.9314 Q1615.53 39.2371 1620.68 32.6746 Q1625.86 26.1121 1634.08 26.1121 Q1639.11 26.1121 1642.67 28.0971 Q1646.28 30.0415 1648.63 34.0924 M1623.23 49.9314 Q1623.23 58.1548 1626.59 62.8538 Q1629.99 67.5124 1635.91 67.5124 Q1641.82 67.5124 1645.22 62.8538 Q1648.63 58.1548 1648.63 49.9314 Q1648.63 41.7081 1645.22 37.0496 Q1641.82 32.3505 1635.91 32.3505 Q1629.99 32.3505 1626.59 37.0496 Q1623.23 41.7081 1623.23 49.9314 Z" fill="#000000" fill-rule="nonzero" fill-opacity="1" /><path clip-path="url(#clip810)" d="M1700.36 28.5427 L1700.36 35.5912 Q1697.2 33.9709 1693.79 33.1607 Q1690.39 32.3505 1686.75 32.3505 Q1681.2 32.3505 1678.4 34.0519 Q1675.65 35.7533 1675.65 39.156 Q1675.65 41.7486 1677.63 43.2475 Q1679.62 44.7058 1685.61 46.0426 L1688.16 46.6097 Q1696.1 48.3111 1699.43 51.4303 Q1702.79 54.509 1702.79 60.0587 Q1702.79 66.3781 1697.76 70.0644 Q1692.78 73.7508 1684.03 73.7508 Q1680.39 73.7508 1676.42 73.0216 Q1672.49 72.3329 1668.11 70.9151 L1668.11 63.2184 Q1672.24 65.3654 1676.25 66.4591 Q1680.26 67.5124 1684.19 67.5124 Q1689.46 67.5124 1692.3 65.73 Q1695.13 63.9071 1695.13 60.6258 Q1695.13 57.5877 1693.07 55.9673 Q1691.04 54.3469 1684.11 52.8481 L1681.52 52.2405 Q1674.59 50.7821 1671.51 47.7845 Q1668.44 44.7463 1668.44 39.4801 Q1668.44 33.0797 1672.97 29.5959 Q1677.51 26.1121 1685.85 26.1121 Q1689.99 26.1121 1693.63 26.7198 Q1697.28 27.3274 1700.36 28.5427 Z" fill="#000000" fill-rule="nonzero" fill-opacity="1" /><circle clip-path="url(#clip812)" cx="338.375" cy="160.256" r="14.4" fill="#1f77b4" fill-rule="evenodd" fill-opacity="1" stroke="none"/>
<circle clip-path="url(#clip812)" cx="555.676" cy="383.428" r="14.4" fill="#1f77b4" fill-rule="evenodd" fill-opacity="1" stroke="none"/>
<circle clip-path="url(#clip812)" cx="772.977" cy="466.692" r="14.4" fill="#1f77b4" fill-rule="evenodd" fill-opacity="1" stroke="none"/>
<circle clip-path="url(#clip812)" cx="990.278" cy="470.015" r="14.4" fill="#1f77b4" fill-rule="evenodd" fill-opacity="1" stroke="none"/>
<circle clip-path="url(#clip812)" cx="1207.58" cy="463.283" r="14.4" fill="#1f77b4" fill-rule="evenodd" fill-opacity="1" stroke="none"/>
<circle clip-path="url(#clip812)" cx="1424.88" cy="418.991" r="14.4" fill="#1f77b4" fill-rule="evenodd" fill-opacity="1" stroke="none"/>
<circle clip-path="url(#clip812)" cx="1642.18" cy="491.924" r="14.4" fill="#1f77b4" fill-rule="evenodd" fill-opacity="1" stroke="none"/>
<circle clip-path="url(#clip812)" cx="1859.48" cy="472.449" r="14.4" fill="#1f77b4" fill-rule="evenodd" fill-opacity="1" stroke="none"/>
<circle clip-path="url(#clip812)" cx="2076.78" cy="497.207" r="14.4" fill="#1f77b4" fill-rule="evenodd" fill-opacity="1" stroke="none"/>
<circle clip-path="url(#clip812)" cx="2294.08" cy="580.474" r="14.4" fill="#1f77b4" fill-rule="evenodd" fill-opacity="1" stroke="none"/>
<polyline clip-path="url(#clip812)" style="stroke:#1f77b4; stroke-linecap:round; stroke-linejoin:round; stroke-width:8; stroke-opacity:1; fill:none" points="338.375,160.256 555.676,383.428 772.977,466.692 990.278,470.015 1207.58,463.283 1424.88,418.991 1642.18,491.924 1859.48,472.449 2076.78,497.207 2294.08,580.474 "/>
<circle clip-path="url(#clip812)" cx="338.375" cy="1009.46" r="14.4" fill="#ff7e0d" fill-rule="evenodd" fill-opacity="1" stroke="none"/>
<circle clip-path="url(#clip812)" cx="555.676" cy="1243.58" r="14.4" fill="#ff7e0d" fill-rule="evenodd" fill-opacity="1" stroke="none"/>
<circle clip-path="url(#clip812)" cx="772.977" cy="1303.07" r="14.4" fill="#ff7e0d" fill-rule="evenodd" fill-opacity="1" stroke="none"/>
<circle clip-path="url(#clip812)" cx="990.278" cy="1253.09" r="14.4" fill="#ff7e0d" fill-rule="evenodd" fill-opacity="1" stroke="none"/>
<circle clip-path="url(#clip812)" cx="1207.58" cy="1229.34" r="14.4" fill="#ff7e0d" fill-rule="evenodd" fill-opacity="1" stroke="none"/>
<circle clip-path="url(#clip812)" cx="1424.88" cy="1258.77" r="14.4" fill="#ff7e0d" fill-rule="evenodd" fill-opacity="1" stroke="none"/>
<circle clip-path="url(#clip812)" cx="1642.18" cy="1271.96" r="14.4" fill="#ff7e0d" fill-rule="evenodd" fill-opacity="1" stroke="none"/>
<circle clip-path="url(#clip812)" cx="1859.48" cy="1328.97" r="14.4" fill="#ff7e0d" fill-rule="evenodd" fill-opacity="1" stroke="none"/>
<circle clip-path="url(#clip812)" cx="2076.78" cy="1298.38" r="14.4" fill="#ff7e0d" fill-rule="evenodd" fill-opacity="1" stroke="none"/>
<circle clip-path="url(#clip812)" cx="2294.08" cy="1386.4" r="14.4" fill="#ff7e0d" fill-rule="evenodd" fill-opacity="1" stroke="none"/>
<polyline clip-path="url(#clip812)" style="stroke:#ff7e0d; stroke-linecap:round; stroke-linejoin:round; stroke-width:8; stroke-opacity:1; fill:none" points="338.375,1009.46 555.676,1243.58 772.977,1303.07 990.278,1253.09 1207.58,1229.34 1424.88,1258.77 1642.18,1271.96 1859.48,1328.97 2076.78,1298.38 2294.08,1386.4 "/>
<path clip-path="url(#clip810)" d="M1984.06 322.316 L2283.65 322.316 L2283.65 166.796 L1984.06 166.796  Z" fill="#ffffff" fill-rule="evenodd" fill-opacity="1"/>
<polyline clip-path="url(#clip810)" style="stroke:#000000; stroke-linecap:round; stroke-linejoin:round; stroke-width:4; stroke-opacity:1; fill:none" points="1984.06,322.316 2283.65,322.316 2283.65,166.796 1984.06,166.796 1984.06,322.316 "/>
<circle clip-path="url(#clip810)" cx="2076.19" cy="218.636" r="23.04" fill="#1f77b4" fill-rule="evenodd" fill-opacity="1" stroke="none"/>
<path clip-path="url(#clip810)" d="M2169 231.981 L2176.64 231.981 L2176.64 205.615 L2168.33 207.282 L2168.33 203.022 L2176.59 201.356 L2181.27 201.356 L2181.27 231.981 L2188.91 231.981 L2188.91 235.916 L2169 235.916 L2169 231.981 Z" fill="#000000" fill-rule="nonzero" fill-opacity="1" /><path clip-path="url(#clip810)" d="M2197.94 201.356 L2204.23 201.356 L2219.56 230.268 L2219.56 201.356 L2224.09 201.356 L2224.09 235.916 L2217.8 235.916 L2202.47 207.004 L2202.47 235.916 L2197.94 235.916 L2197.94 201.356 Z" fill="#000000" fill-rule="nonzero" fill-opacity="1" /><path clip-path="url(#clip810)" d="M2233.4 201.356 L2239.69 201.356 L2255.02 230.268 L2255.02 201.356 L2259.56 201.356 L2259.56 235.916 L2253.26 235.916 L2237.94 207.004 L2237.94 235.916 L2233.4 235.916 L2233.4 201.356 Z" fill="#000000" fill-rule="nonzero" fill-opacity="1" /><circle clip-path="url(#clip810)" cx="2076.19" cy="270.476" r="23.04" fill="#ff7e0d" fill-rule="evenodd" fill-opacity="1" stroke="none"/>
<path clip-path="url(#clip810)" d="M2168.33 253.196 L2175.3 253.196 L2184.12 276.714 L2192.98 253.196 L2199.95 253.196 L2199.95 287.756 L2195.39 287.756 L2195.39 257.409 L2186.48 281.112 L2181.78 281.112 L2172.87 257.409 L2172.87 287.756 L2168.33 287.756 L2168.33 253.196 Z" fill="#000000" fill-rule="nonzero" fill-opacity="1" /><path clip-path="url(#clip810)" d="M2213.91 257.038 L2213.91 270.024 L2219.79 270.024 Q2223.05 270.024 2224.83 268.335 Q2226.62 266.645 2226.62 263.52 Q2226.62 260.418 2224.83 258.728 Q2223.05 257.038 2219.79 257.038 L2213.91 257.038 M2209.23 253.196 L2219.79 253.196 Q2225.6 253.196 2228.56 255.835 Q2231.55 258.45 2231.55 263.52 Q2231.55 268.635 2228.56 271.251 Q2225.6 273.867 2219.79 273.867 L2213.91 273.867 L2213.91 287.756 L2209.23 287.756 L2209.23 253.196 Z" fill="#000000" fill-rule="nonzero" fill-opacity="1" /><path clip-path="url(#clip810)" d="M2258.54 254.33 L2258.54 258.89 Q2255.87 257.617 2253.51 256.992 Q2251.15 256.367 2248.95 256.367 Q2245.13 256.367 2243.05 257.848 Q2240.99 259.33 2240.99 262.061 Q2240.99 264.353 2242.36 265.534 Q2243.75 266.691 2247.59 267.409 L2250.41 267.987 Q2255.64 268.983 2258.12 271.506 Q2260.62 274.006 2260.62 278.219 Q2260.62 283.242 2257.24 285.834 Q2253.88 288.427 2247.38 288.427 Q2244.93 288.427 2242.15 287.871 Q2239.39 287.316 2236.43 286.228 L2236.43 281.413 Q2239.28 283.01 2242.01 283.821 Q2244.74 284.631 2247.38 284.631 Q2251.38 284.631 2253.56 283.057 Q2255.74 281.483 2255.74 278.566 Q2255.74 276.02 2254.16 274.584 Q2252.61 273.149 2249.05 272.432 L2246.2 271.876 Q2240.97 270.835 2238.63 268.612 Q2236.29 266.39 2236.29 262.432 Q2236.29 257.848 2239.51 255.21 Q2242.75 252.571 2248.42 252.571 Q2250.85 252.571 2253.37 253.011 Q2255.9 253.45 2258.54 254.33 Z" fill="#000000" fill-rule="nonzero" fill-opacity="1" /></svg>
