<?xml version="1.0" encoding="utf-8"?>
<svg xmlns="http://www.w3.org/2000/svg" xmlns:xlink="http://www.w3.org/1999/xlink" width="600" height="400" viewBox="0 0 2400 1600">
<defs>
  <clipPath id="clip120">
    <rect x="0" y="0" width="2400" height="1600"/>
  </clipPath>
</defs>
<path clip-path="url(#clip120)" d="M0 1600 L2400 1600 L2400 8.88178e-14 L0 8.88178e-14  Z" fill="#ffffff" fill-rule="evenodd" fill-opacity="1"/>
<defs>
  <clipPath id="clip121">
    <rect x="480" y="0" width="1681" height="1600"/>
  </clipPath>
</defs>
<path clip-path="url(#clip120)" d="M279.704 1423.18 L2352.76 1423.18 L2352.76 123.472 L279.704 123.472  Z" fill="#ffffff" fill-rule="evenodd" fill-opacity="1"/>
<defs>
  <clipPath id="clip122">
    <rect x="279" y="123" width="2074" height="1301"/>
  </clipPath>
</defs>
<polyline clip-path="url(#clip122)" style="stroke:#000000; stroke-linecap:round; stroke-linejoin:round; stroke-width:2; stroke-opacity:0.1; fill:none" points="440.975,1423.18 440.975,123.472 "/>
<polyline clip-path="url(#clip122)" style="stroke:#000000; stroke-linecap:round; stroke-linejoin:round; stroke-width:2; stroke-opacity:0.1; fill:none" points="635.476,1423.18 635.476,123.472 "/>
<polyline clip-path="url(#clip122)" style="stroke:#000000; stroke-linecap:round; stroke-linejoin:round; stroke-width:2; stroke-opacity:0.1; fill:none" points="829.977,1423.18 829.977,123.472 "/>
<polyline clip-path="url(#clip122)" style="stroke:#000000; stroke-linecap:round; stroke-linejoin:round; stroke-width:2; stroke-opacity:0.1; fill:none" points="1024.48,1423.18 1024.48,123.472 "/>
<polyline clip-path="url(#clip122)" style="stroke:#000000; stroke-linecap:round; stroke-linejoin:round; stroke-width:2; stroke-opacity:0.1; fill:none" points="1218.98,1423.18 1218.98,123.472 "/>
<polyline clip-path="url(#clip122)" style="stroke:#000000; stroke-linecap:round; stroke-linejoin:round; stroke-width:2; stroke-opacity:0.1; fill:none" points="1413.48,1423.18 1413.48,123.472 "/>
<polyline clip-path="url(#clip122)" style="stroke:#000000; stroke-linecap:round; stroke-linejoin:round; stroke-width:2; stroke-opacity:0.1; fill:none" points="1607.98,1423.18 1607.98,123.472 "/>
<polyline clip-path="url(#clip122)" style="stroke:#000000; stroke-linecap:round; stroke-linejoin:round; stroke-width:2; stroke-opacity:0.1; fill:none" points="1802.48,1423.18 1802.48,123.472 "/>
<polyline clip-path="url(#clip122)" style="stroke:#000000; stroke-linecap:round; stroke-linejoin:round; stroke-width:2; stroke-opacity:0.1; fill:none" points="1996.98,1423.18 1996.98,123.472 "/>
<polyline clip-path="url(#clip122)" style="stroke:#000000; stroke-linecap:round; stroke-linejoin:round; stroke-width:2; stroke-opacity:0.1; fill:none" points="2191.49,1423.18 2191.49,123.472 "/>
<polyline clip-path="url(#clip122)" style="stroke:#000000; stroke-linecap:round; stroke-linejoin:round; stroke-width:2; stroke-opacity:0.1; fill:none" points="279.704,1423.18 2352.76,1423.18 "/>
<polyline clip-path="url(#clip122)" style="stroke:#000000; stroke-linecap:round; stroke-linejoin:round; stroke-width:2; stroke-opacity:0.1; fill:none" points="279.704,1158.52 2352.76,1158.52 "/>
<polyline clip-path="url(#clip122)" style="stroke:#000000; stroke-linecap:round; stroke-linejoin:round; stroke-width:2; stroke-opacity:0.1; fill:none" points="279.704,893.853 2352.76,893.853 "/>
<polyline clip-path="url(#clip122)" style="stroke:#000000; stroke-linecap:round; stroke-linejoin:round; stroke-width:2; stroke-opacity:0.1; fill:none" points="279.704,629.19 2352.76,629.19 "/>
<polyline clip-path="url(#clip122)" style="stroke:#000000; stroke-linecap:round; stroke-linejoin:round; stroke-width:2; stroke-opacity:0.1; fill:none" points="279.704,364.527 2352.76,364.527 "/>
<polyline clip-path="url(#clip120)" style="stroke:#000000; stroke-linecap:round; stroke-linejoin:round; stroke-width:4; stroke-opacity:1; fill:none" points="279.704,1423.18 2352.76,1423.18 "/>
<polyline clip-path="url(#clip120)" style="stroke:#000000; stroke-linecap:round; stroke-linejoin:round; stroke-width:4; stroke-opacity:1; fill:none" points="440.975,1423.18 440.975,1404.28 "/>
<polyline clip-path="url(#clip120)" style="stroke:#000000; stroke-linecap:round; stroke-linejoin:round; stroke-width:4; stroke-opacity:1; fill:none" points="635.476,1423.18 635.476,1404.28 "/>
<polyline clip-path="url(#clip120)" style="stroke:#000000; stroke-linecap:round; stroke-linejoin:round; stroke-width:4; stroke-opacity:1; fill:none" points="829.977,1423.18 829.977,1404.28 "/>
<polyline clip-path="url(#clip120)" style="stroke:#000000; stroke-linecap:round; stroke-linejoin:round; stroke-width:4; stroke-opacity:1; fill:none" points="1024.48,1423.18 1024.48,1404.28 "/>
<polyline clip-path="url(#clip120)" style="stroke:#000000; stroke-linecap:round; stroke-linejoin:round; stroke-width:4; stroke-opacity:1; fill:none" points="1218.98,1423.18 1218.98,1404.28 "/>
<polyline clip-path="url(#clip120)" style="stroke:#000000; stroke-linecap:round; stroke-linejoin:round; stroke-width:4; stroke-opacity:1; fill:none" points="1413.48,1423.18 1413.48,1404.28 "/>
<polyline clip-path="url(#clip120)" style="stroke:#000000; stroke-linecap:round; stroke-linejoin:round; stroke-width:4; stroke-opacity:1; fill:none" points="1607.98,1423.18 1607.98,1404.28 "/>
<polyline clip-path="url(#clip120)" style="stroke:#000000; stroke-linecap:round; stroke-linejoin:round; stroke-width:4; stroke-opacity:1; fill:none" points="1802.48,1423.18 1802.48,1404.28 "/>
<polyline clip-path="url(#clip120)" style="stroke:#000000; stroke-linecap:round; stroke-linejoin:round; stroke-width:4; stroke-opacity:1; fill:none" points="1996.98,1423.18 1996.98,1404.28 "/>
<polyline clip-path="url(#clip120)" style="stroke:#000000; stroke-linecap:round; stroke-linejoin:round; stroke-width:4; stroke-opacity:1; fill:none" points="2191.49,1423.18 2191.49,1404.28 "/>
<path clip-path="url(#clip120)" d="M416.6 1484.86 L416.6 1480.6 Q418.359 1481.44 420.164 1481.88 Q421.97 1482.32 423.706 1482.32 Q428.336 1482.32 430.766 1479.21 Q433.22 1476.09 433.567 1469.75 Q432.225 1471.74 430.164 1472.8 Q428.104 1473.87 425.604 1473.87 Q420.419 1473.87 417.387 1470.74 Q414.377 1467.59 414.377 1462.15 Q414.377 1456.83 417.526 1453.61 Q420.674 1450.39 425.905 1450.39 Q431.901 1450.39 435.049 1455 Q438.22 1459.58 438.22 1468.33 Q438.22 1476.51 434.331 1481.39 Q430.465 1486.25 423.914 1486.25 Q422.155 1486.25 420.35 1485.9 Q418.544 1485.56 416.6 1484.86 M425.905 1470.21 Q429.053 1470.21 430.882 1468.06 Q432.734 1465.9 432.734 1462.15 Q432.734 1458.43 430.882 1456.27 Q429.053 1454.1 425.905 1454.1 Q422.757 1454.1 420.905 1456.27 Q419.077 1458.43 419.077 1462.15 Q419.077 1465.9 420.905 1468.06 Q422.757 1470.21 425.905 1470.21 Z" fill="#000000" fill-rule="nonzero" fill-opacity="1" /><path clip-path="url(#clip120)" d="M446.669 1451.02 L465.025 1451.02 L465.025 1454.96 L450.951 1454.96 L450.951 1463.43 Q451.97 1463.08 452.988 1462.92 Q454.007 1462.73 455.025 1462.73 Q460.812 1462.73 464.192 1465.9 Q467.572 1469.08 467.572 1474.49 Q467.572 1480.07 464.099 1483.17 Q460.627 1486.25 454.308 1486.25 Q452.132 1486.25 449.863 1485.88 Q447.618 1485.51 445.211 1484.77 L445.211 1480.07 Q447.294 1481.2 449.516 1481.76 Q451.738 1482.32 454.215 1482.32 Q458.22 1482.32 460.558 1480.21 Q462.896 1478.1 462.896 1474.49 Q462.896 1470.88 460.558 1468.77 Q458.22 1466.67 454.215 1466.67 Q452.34 1466.67 450.465 1467.08 Q448.613 1467.5 446.669 1468.38 L446.669 1451.02 Z" fill="#000000" fill-rule="nonzero" fill-opacity="1" /><path clip-path="url(#clip120)" d="M620.846 1469.17 Q617.513 1469.17 615.592 1470.95 Q613.693 1472.73 613.693 1475.86 Q613.693 1478.98 615.592 1480.77 Q617.513 1482.55 620.846 1482.55 Q624.18 1482.55 626.101 1480.77 Q628.022 1478.96 628.022 1475.86 Q628.022 1472.73 626.101 1470.95 Q624.203 1469.17 620.846 1469.17 M616.17 1467.18 Q613.161 1466.44 611.471 1464.38 Q609.805 1462.32 609.805 1459.35 Q609.805 1455.21 612.744 1452.8 Q615.707 1450.39 620.846 1450.39 Q626.008 1450.39 628.948 1452.8 Q631.888 1455.21 631.888 1459.35 Q631.888 1462.32 630.198 1464.38 Q628.531 1466.44 625.545 1467.18 Q628.925 1467.96 630.8 1470.26 Q632.698 1472.55 632.698 1475.86 Q632.698 1480.88 629.619 1483.57 Q626.564 1486.25 620.846 1486.25 Q615.129 1486.25 612.05 1483.57 Q608.994 1480.88 608.994 1475.86 Q608.994 1472.55 610.893 1470.26 Q612.791 1467.96 616.17 1467.18 M614.457 1459.79 Q614.457 1462.48 616.124 1463.98 Q617.814 1465.49 620.846 1465.49 Q623.855 1465.49 625.545 1463.98 Q627.258 1462.48 627.258 1459.79 Q627.258 1457.11 625.545 1455.6 Q623.855 1454.1 620.846 1454.1 Q617.814 1454.1 616.124 1455.6 Q614.457 1457.11 614.457 1459.79 Z" fill="#000000" fill-rule="nonzero" fill-opacity="1" /><path clip-path="url(#clip120)" d="M641.054 1451.02 L659.411 1451.02 L659.411 1454.96 L645.337 1454.96 L645.337 1463.43 Q646.355 1463.08 647.374 1462.92 Q648.392 1462.73 649.411 1462.73 Q655.198 1462.73 658.577 1465.9 Q661.957 1469.08 661.957 1474.49 Q661.957 1480.07 658.485 1483.17 Q655.013 1486.25 648.693 1486.25 Q646.517 1486.25 644.249 1485.88 Q642.003 1485.51 639.596 1484.77 L639.596 1480.07 Q641.679 1481.2 643.902 1481.76 Q646.124 1482.32 648.601 1482.32 Q652.605 1482.32 654.943 1480.21 Q657.281 1478.1 657.281 1474.49 Q657.281 1470.88 654.943 1468.77 Q652.605 1466.67 648.601 1466.67 Q646.726 1466.67 644.851 1467.08 Q642.999 1467.5 641.054 1468.38 L641.054 1451.02 Z" fill="#000000" fill-rule="nonzero" fill-opacity="1" /><path clip-path="url(#clip120)" d="M803.831 1451.02 L826.053 1451.02 L826.053 1453.01 L813.507 1485.58 L808.623 1485.58 L820.428 1454.96 L803.831 1454.96 L803.831 1451.02 Z" fill="#000000" fill-rule="nonzero" fill-opacity="1" /><path clip-path="url(#clip120)" d="M835.22 1451.02 L853.576 1451.02 L853.576 1454.96 L839.502 1454.96 L839.502 1463.43 Q840.521 1463.08 841.539 1462.92 Q842.558 1462.73 843.576 1462.73 Q849.363 1462.73 852.743 1465.9 Q856.123 1469.08 856.123 1474.49 Q856.123 1480.07 852.65 1483.17 Q849.178 1486.25 842.859 1486.25 Q840.683 1486.25 838.414 1485.88 Q836.169 1485.51 833.762 1484.77 L833.762 1480.07 Q835.845 1481.2 838.067 1481.76 Q840.289 1482.32 842.766 1482.32 Q846.771 1482.32 849.109 1480.21 Q851.447 1478.1 851.447 1474.49 Q851.447 1470.88 849.109 1468.77 Q846.771 1466.67 842.766 1466.67 Q840.891 1466.67 839.016 1467.08 Q837.164 1467.5 835.22 1468.38 L835.22 1451.02 Z" fill="#000000" fill-rule="nonzero" fill-opacity="1" /><path clip-path="url(#clip120)" d="M1010.38 1466.44 Q1007.23 1466.44 1005.38 1468.59 Q1003.55 1470.74 1003.55 1474.49 Q1003.55 1478.22 1005.38 1480.39 Q1007.23 1482.55 1010.38 1482.55 Q1013.53 1482.55 1015.36 1480.39 Q1017.21 1478.22 1017.21 1474.49 Q1017.21 1470.74 1015.36 1468.59 Q1013.53 1466.44 1010.38 1466.44 M1019.66 1451.78 L1019.66 1456.04 Q1017.9 1455.21 1016.1 1454.77 Q1014.32 1454.33 1012.56 1454.33 Q1007.93 1454.33 1005.47 1457.45 Q1003.04 1460.58 1002.7 1466.9 Q1004.06 1464.89 1006.12 1463.82 Q1008.18 1462.73 1010.66 1462.73 Q1015.87 1462.73 1018.88 1465.9 Q1021.91 1469.05 1021.91 1474.49 Q1021.91 1479.82 1018.76 1483.03 Q1015.61 1486.25 1010.38 1486.25 Q1004.39 1486.25 1001.21 1481.67 Q998.043 1477.06 998.043 1468.33 Q998.043 1460.14 1001.93 1455.28 Q1005.82 1450.39 1012.37 1450.39 Q1014.13 1450.39 1015.91 1450.74 Q1017.72 1451.09 1019.66 1451.78 Z" fill="#000000" fill-rule="nonzero" fill-opacity="1" /><path clip-path="url(#clip120)" d="M1030.01 1451.02 L1048.37 1451.02 L1048.37 1454.96 L1034.29 1454.96 L1034.29 1463.43 Q1035.31 1463.08 1036.33 1462.92 Q1037.35 1462.73 1038.37 1462.73 Q1044.15 1462.73 1047.53 1465.9 Q1050.91 1469.08 1050.91 1474.49 Q1050.91 1480.07 1047.44 1483.17 Q1043.97 1486.25 1037.65 1486.25 Q1035.47 1486.25 1033.2 1485.88 Q1030.96 1485.51 1028.55 1484.77 L1028.55 1480.07 Q1030.64 1481.2 1032.86 1481.76 Q1035.08 1482.32 1037.56 1482.32 Q1041.56 1482.32 1043.9 1480.21 Q1046.24 1478.1 1046.24 1474.49 Q1046.24 1470.88 1043.9 1468.77 Q1041.56 1466.67 1037.56 1466.67 Q1035.68 1466.67 1033.81 1467.08 Q1031.95 1467.5 1030.01 1468.38 L1030.01 1451.02 Z" fill="#000000" fill-rule="nonzero" fill-opacity="1" /><path clip-path="url(#clip120)" d="M1194.18 1451.02 L1212.53 1451.02 L1212.53 1454.96 L1198.46 1454.96 L1198.46 1463.43 Q1199.48 1463.08 1200.5 1462.92 Q1201.51 1462.73 1202.53 1462.73 Q1208.32 1462.73 1211.7 1465.9 Q1215.08 1469.08 1215.08 1474.49 Q1215.08 1480.07 1211.61 1483.17 Q1208.13 1486.25 1201.82 1486.25 Q1199.64 1486.25 1197.37 1485.88 Q1195.13 1485.51 1192.72 1484.77 L1192.72 1480.07 Q1194.8 1481.2 1197.02 1481.76 Q1199.25 1482.32 1201.72 1482.32 Q1205.73 1482.32 1208.07 1480.21 Q1210.4 1478.1 1210.4 1474.49 Q1210.4 1470.88 1208.07 1468.77 Q1205.73 1466.67 1201.72 1466.67 Q1199.85 1466.67 1197.97 1467.08 Q1196.12 1467.5 1194.18 1468.38 L1194.18 1451.02 Z" fill="#000000" fill-rule="nonzero" fill-opacity="1" /><path clip-path="url(#clip120)" d="M1224.34 1451.02 L1242.69 1451.02 L1242.69 1454.96 L1228.62 1454.96 L1228.62 1463.43 Q1229.64 1463.08 1230.66 1462.92 Q1231.68 1462.73 1232.69 1462.73 Q1238.48 1462.73 1241.86 1465.9 Q1245.24 1469.08 1245.24 1474.49 Q1245.24 1480.07 1241.77 1483.17 Q1238.3 1486.25 1231.98 1486.25 Q1229.8 1486.25 1227.53 1485.88 Q1225.29 1485.51 1222.88 1484.77 L1222.88 1480.07 Q1224.96 1481.2 1227.19 1481.76 Q1229.41 1482.32 1231.88 1482.32 Q1235.89 1482.32 1238.23 1480.21 Q1240.56 1478.1 1240.56 1474.49 Q1240.56 1470.88 1238.23 1468.77 Q1235.89 1466.67 1231.88 1466.67 Q1230.01 1466.67 1228.13 1467.08 Q1226.28 1467.5 1224.34 1468.38 L1224.34 1451.02 Z" fill="#000000" fill-rule="nonzero" fill-opacity="1" /><path clip-path="url(#clip120)" d="M1402.15 1455.09 L1390.34 1473.54 L1402.15 1473.54 L1402.15 1455.09 M1400.92 1451.02 L1406.8 1451.02 L1406.8 1473.54 L1411.73 1473.54 L1411.73 1477.43 L1406.8 1477.43 L1406.8 1485.58 L1402.15 1485.58 L1402.15 1477.43 L1386.55 1477.43 L1386.55 1472.92 L1400.92 1451.02 Z" fill="#000000" fill-rule="nonzero" fill-opacity="1" /><path clip-path="url(#clip120)" d="M1419.51 1451.02 L1437.87 1451.02 L1437.87 1454.96 L1423.79 1454.96 L1423.79 1463.43 Q1424.81 1463.08 1425.83 1462.92 Q1426.85 1462.73 1427.87 1462.73 Q1433.65 1462.73 1437.03 1465.9 Q1440.41 1469.08 1440.41 1474.49 Q1440.41 1480.07 1436.94 1483.17 Q1433.47 1486.25 1427.15 1486.25 Q1424.97 1486.25 1422.7 1485.88 Q1420.46 1485.51 1418.05 1484.77 L1418.05 1480.07 Q1420.14 1481.2 1422.36 1481.76 Q1424.58 1482.32 1427.06 1482.32 Q1431.06 1482.32 1433.4 1480.21 Q1435.74 1478.1 1435.74 1474.49 Q1435.74 1470.88 1433.4 1468.77 Q1431.06 1466.67 1427.06 1466.67 Q1425.18 1466.67 1423.31 1467.08 Q1421.45 1467.5 1419.51 1468.38 L1419.51 1451.02 Z" fill="#000000" fill-rule="nonzero" fill-opacity="1" /><path clip-path="url(#clip120)" d="M1597.32 1466.95 Q1600.68 1467.66 1602.55 1469.93 Q1604.45 1472.2 1604.45 1475.53 Q1604.45 1480.65 1600.93 1483.45 Q1597.41 1486.25 1590.93 1486.25 Q1588.76 1486.25 1586.44 1485.81 Q1584.15 1485.39 1581.7 1484.54 L1581.7 1480.02 Q1583.64 1481.16 1585.96 1481.74 Q1588.27 1482.32 1590.79 1482.32 Q1595.19 1482.32 1597.48 1480.58 Q1599.8 1478.84 1599.8 1475.53 Q1599.8 1472.48 1597.65 1470.77 Q1595.52 1469.03 1591.7 1469.03 L1587.67 1469.03 L1587.67 1465.19 L1591.88 1465.19 Q1595.33 1465.19 1597.16 1463.82 Q1598.99 1462.43 1598.99 1459.84 Q1598.99 1457.18 1597.09 1455.77 Q1595.22 1454.33 1591.7 1454.33 Q1589.78 1454.33 1587.58 1454.75 Q1585.38 1455.16 1582.74 1456.04 L1582.74 1451.88 Q1585.4 1451.14 1587.72 1450.77 Q1590.05 1450.39 1592.11 1450.39 Q1597.44 1450.39 1600.54 1452.83 Q1603.64 1455.23 1603.64 1459.35 Q1603.64 1462.22 1602 1464.21 Q1600.35 1466.18 1597.32 1466.95 Z" fill="#000000" fill-rule="nonzero" fill-opacity="1" /><path clip-path="url(#clip120)" d="M1613.36 1451.02 L1631.72 1451.02 L1631.72 1454.96 L1617.65 1454.96 L1617.65 1463.43 Q1618.66 1463.08 1619.68 1462.92 Q1620.7 1462.73 1621.72 1462.73 Q1627.51 1462.73 1630.89 1465.9 Q1634.27 1469.08 1634.27 1474.49 Q1634.27 1480.07 1630.79 1483.17 Q1627.32 1486.25 1621 1486.25 Q1618.83 1486.25 1616.56 1485.88 Q1614.31 1485.51 1611.91 1484.77 L1611.91 1480.07 Q1613.99 1481.2 1616.21 1481.76 Q1618.43 1482.32 1620.91 1482.32 Q1624.91 1482.32 1627.25 1480.21 Q1629.59 1478.1 1629.59 1474.49 Q1629.59 1470.88 1627.25 1468.77 Q1624.91 1466.67 1620.91 1466.67 Q1619.03 1466.67 1617.16 1467.08 Q1615.31 1467.5 1613.36 1468.38 L1613.36 1451.02 Z" fill="#000000" fill-rule="nonzero" fill-opacity="1" /><path clip-path="url(#clip120)" d="M1781.75 1481.64 L1798.07 1481.64 L1798.07 1485.58 L1776.13 1485.58 L1776.13 1481.64 Q1778.79 1478.89 1783.37 1474.26 Q1787.98 1469.61 1789.16 1468.27 Q1791.41 1465.74 1792.29 1464.01 Q1793.19 1462.25 1793.19 1460.56 Q1793.19 1457.8 1791.24 1456.07 Q1789.32 1454.33 1786.22 1454.33 Q1784.02 1454.33 1781.57 1455.09 Q1779.14 1455.86 1776.36 1457.41 L1776.36 1452.69 Q1779.18 1451.55 1781.64 1450.97 Q1784.09 1450.39 1786.13 1450.39 Q1791.5 1450.39 1794.69 1453.08 Q1797.89 1455.77 1797.89 1460.26 Q1797.89 1462.39 1797.08 1464.31 Q1796.29 1466.2 1794.18 1468.8 Q1793.61 1469.47 1790.5 1472.69 Q1787.4 1475.88 1781.75 1481.64 Z" fill="#000000" fill-rule="nonzero" fill-opacity="1" /><path clip-path="url(#clip120)" d="M1807.93 1451.02 L1826.29 1451.02 L1826.29 1454.96 L1812.22 1454.96 L1812.22 1463.43 Q1813.24 1463.08 1814.25 1462.92 Q1815.27 1462.73 1816.29 1462.73 Q1822.08 1462.73 1825.46 1465.9 Q1828.84 1469.08 1828.84 1474.49 Q1828.84 1480.07 1825.36 1483.17 Q1821.89 1486.25 1815.57 1486.25 Q1813.4 1486.25 1811.13 1485.88 Q1808.88 1485.51 1806.48 1484.77 L1806.48 1480.07 Q1808.56 1481.2 1810.78 1481.76 Q1813 1482.32 1815.48 1482.32 Q1819.49 1482.32 1821.82 1480.21 Q1824.16 1478.1 1824.16 1474.49 Q1824.16 1470.88 1821.82 1468.77 Q1819.49 1466.67 1815.48 1466.67 Q1813.61 1466.67 1811.73 1467.08 Q1809.88 1467.5 1807.93 1468.38 L1807.93 1451.02 Z" fill="#000000" fill-rule="nonzero" fill-opacity="1" /><path clip-path="url(#clip120)" d="M1972.17 1481.64 L1979.81 1481.64 L1979.81 1455.28 L1971.5 1456.95 L1971.5 1452.69 L1979.76 1451.02 L1984.44 1451.02 L1984.44 1481.64 L1992.08 1481.64 L1992.08 1485.58 L1972.17 1485.58 L1972.17 1481.64 Z" fill="#000000" fill-rule="nonzero" fill-opacity="1" /><path clip-path="url(#clip120)" d="M2001.57 1451.02 L2019.92 1451.02 L2019.92 1454.96 L2005.85 1454.96 L2005.85 1463.43 Q2006.87 1463.08 2007.89 1462.92 Q2008.91 1462.73 2009.92 1462.73 Q2015.71 1462.73 2019.09 1465.9 Q2022.47 1469.08 2022.47 1474.49 Q2022.47 1480.07 2019 1483.17 Q2015.53 1486.25 2009.21 1486.25 Q2007.03 1486.25 2004.76 1485.88 Q2002.52 1485.51 2000.11 1484.77 L2000.11 1480.07 Q2002.19 1481.2 2004.41 1481.76 Q2006.64 1482.32 2009.11 1482.32 Q2013.12 1482.32 2015.46 1480.21 Q2017.79 1478.1 2017.79 1474.49 Q2017.79 1470.88 2015.46 1468.77 Q2013.12 1466.67 2009.11 1466.67 Q2007.24 1466.67 2005.36 1467.08 Q2003.51 1467.5 2001.57 1468.38 L2001.57 1451.02 Z" fill="#000000" fill-rule="nonzero" fill-opacity="1" /><path clip-path="url(#clip120)" d="M2181.76 1451.02 L2200.12 1451.02 L2200.12 1454.96 L2186.05 1454.96 L2186.05 1463.43 Q2187.06 1463.08 2188.08 1462.92 Q2189.1 1462.73 2190.12 1462.73 Q2195.91 1462.73 2199.29 1465.9 Q2202.67 1469.08 2202.67 1474.49 Q2202.67 1480.07 2199.19 1483.17 Q2195.72 1486.25 2189.4 1486.25 Q2187.23 1486.25 2184.96 1485.88 Q2182.71 1485.51 2180.3 1484.77 L2180.3 1480.07 Q2182.39 1481.2 2184.61 1481.76 Q2186.83 1482.32 2189.31 1482.32 Q2193.31 1482.32 2195.65 1480.21 Q2197.99 1478.1 2197.99 1474.49 Q2197.99 1470.88 2195.65 1468.77 Q2193.31 1466.67 2189.31 1466.67 Q2187.43 1466.67 2185.56 1467.08 Q2183.71 1467.5 2181.76 1468.38 L2181.76 1451.02 Z" fill="#000000" fill-rule="nonzero" fill-opacity="1" /><path clip-path="url(#clip120)" d="M1114.52 1547.13 Q1111.75 1547.13 1110.16 1549.49 Q1108.6 1551.84 1108.6 1556.04 Q1108.6 1560.18 1110.16 1562.57 Q1111.75 1564.92 1114.52 1564.92 Q1117.22 1564.92 1118.78 1562.57 Q1120.37 1560.18 1120.37 1556.04 Q1120.37 1551.87 1118.78 1549.52 Q1117.22 1547.13 1114.52 1547.13 M1114.52 1543.09 Q1119.55 1543.09 1122.51 1546.59 Q1125.47 1550.09 1125.47 1556.04 Q1125.47 1562 1122.47 1565.5 Q1119.51 1568.97 1114.52 1568.97 Q1109.42 1568.97 1106.46 1565.5 Q1103.5 1562 1103.5 1556.04 Q1103.5 1550.06 1106.46 1546.59 Q1109.46 1543.09 1114.52 1543.09 M1081.67 1523.71 Q1078.93 1523.71 1077.34 1526.09 Q1075.78 1528.45 1075.78 1532.59 Q1075.78 1536.79 1077.34 1539.14 Q1078.9 1541.5 1081.67 1541.5 Q1084.44 1541.5 1086 1539.14 Q1087.59 1536.79 1087.59 1532.59 Q1087.59 1528.48 1086 1526.09 Q1084.41 1523.71 1081.67 1523.71 M1110.41 1519.66 L1115.5 1519.66 L1085.78 1568.97 L1080.68 1568.97 L1110.41 1519.66 M1081.67 1519.66 Q1086.7 1519.66 1089.69 1523.17 Q1092.68 1526.63 1092.68 1532.59 Q1092.68 1538.6 1089.69 1542.07 Q1086.73 1545.54 1081.67 1545.54 Q1076.61 1545.54 1073.65 1542.07 Q1070.72 1538.57 1070.72 1532.59 Q1070.72 1526.67 1073.68 1523.17 Q1076.64 1519.66 1081.67 1519.66 Z" fill="#000000" fill-rule="nonzero" fill-opacity="1" /><path clip-path="url(#clip120)" d="M1179.38 1537.81 L1179.38 1518.52 L1185.24 1518.52 L1185.24 1568.04 L1179.38 1568.04 L1179.38 1562.7 Q1177.54 1565.88 1174.7 1567.44 Q1171.9 1568.97 1167.96 1568.97 Q1161.5 1568.97 1157.42 1563.81 Q1153.38 1558.65 1153.38 1550.25 Q1153.38 1541.85 1157.42 1536.69 Q1161.5 1531.54 1167.96 1531.54 Q1171.9 1531.54 1174.7 1533.1 Q1177.54 1534.62 1179.38 1537.81 M1159.43 1550.25 Q1159.43 1556.71 1162.07 1560.4 Q1164.74 1564.07 1169.39 1564.07 Q1174.04 1564.07 1176.71 1560.4 Q1179.38 1556.71 1179.38 1550.25 Q1179.38 1543.79 1176.71 1540.13 Q1174.04 1536.44 1169.39 1536.44 Q1164.74 1536.44 1162.07 1540.13 Q1159.43 1543.79 1159.43 1550.25 Z" fill="#000000" fill-rule="nonzero" fill-opacity="1" /><path clip-path="url(#clip120)" d="M1213.5 1550.12 Q1206.41 1550.12 1203.67 1551.75 Q1200.93 1553.37 1200.93 1557.29 Q1200.93 1560.4 1202.97 1562.25 Q1205.04 1564.07 1208.57 1564.07 Q1213.44 1564.07 1216.37 1560.63 Q1219.33 1557.16 1219.33 1551.43 L1219.33 1550.12 L1213.5 1550.12 M1225.18 1547.71 L1225.18 1568.04 L1219.33 1568.04 L1219.33 1562.63 Q1217.32 1565.88 1214.33 1567.44 Q1211.34 1568.97 1207.01 1568.97 Q1201.54 1568.97 1198.29 1565.91 Q1195.07 1562.82 1195.07 1557.67 Q1195.07 1551.65 1199.08 1548.6 Q1203.13 1545.54 1211.12 1545.54 L1219.33 1545.54 L1219.33 1544.97 Q1219.33 1540.93 1216.65 1538.73 Q1214.01 1536.5 1209.21 1536.5 Q1206.15 1536.5 1203.25 1537.23 Q1200.36 1537.97 1197.68 1539.43 L1197.68 1534.02 Q1200.9 1532.78 1203.92 1532.17 Q1206.95 1531.54 1209.81 1531.54 Q1217.55 1531.54 1221.36 1535.55 Q1225.18 1539.56 1225.18 1547.71 Z" fill="#000000" fill-rule="nonzero" fill-opacity="1" /><path clip-path="url(#clip120)" d="M1243.04 1522.27 L1243.04 1532.4 L1255.1 1532.4 L1255.1 1536.95 L1243.04 1536.95 L1243.04 1556.3 Q1243.04 1560.66 1244.22 1561.9 Q1245.43 1563.14 1249.09 1563.14 L1255.1 1563.14 L1255.1 1568.04 L1249.09 1568.04 Q1242.31 1568.04 1239.73 1565.53 Q1237.15 1562.98 1237.15 1556.3 L1237.15 1536.95 L1232.86 1536.95 L1232.86 1532.4 L1237.15 1532.4 L1237.15 1522.27 L1243.04 1522.27 Z" fill="#000000" fill-rule="nonzero" fill-opacity="1" /><path clip-path="url(#clip120)" d="M1279.01 1550.12 Q1271.91 1550.12 1269.17 1551.75 Q1266.43 1553.37 1266.43 1557.29 Q1266.43 1560.4 1268.47 1562.25 Q1270.54 1564.07 1274.07 1564.07 Q1278.94 1564.07 1281.87 1560.63 Q1284.83 1557.16 1284.83 1551.43 L1284.83 1550.12 L1279.01 1550.12 M1290.69 1547.71 L1290.69 1568.04 L1284.83 1568.04 L1284.83 1562.63 Q1282.83 1565.88 1279.83 1567.44 Q1276.84 1568.97 1272.51 1568.97 Q1267.04 1568.97 1263.79 1565.91 Q1260.58 1562.82 1260.58 1557.67 Q1260.58 1551.65 1264.59 1548.6 Q1268.63 1545.54 1276.62 1545.54 L1284.83 1545.54 L1284.83 1544.97 Q1284.83 1540.93 1282.16 1538.73 Q1279.52 1536.5 1274.71 1536.5 Q1271.65 1536.5 1268.76 1537.23 Q1265.86 1537.97 1263.19 1539.43 L1263.19 1534.02 Q1266.4 1532.78 1269.43 1532.17 Q1272.45 1531.54 1275.31 1531.54 Q1283.05 1531.54 1286.87 1535.55 Q1290.69 1539.56 1290.69 1547.71 Z" fill="#000000" fill-rule="nonzero" fill-opacity="1" /><path clip-path="url(#clip120)" d="M1351.23 1539.24 Q1353.42 1535.29 1356.48 1533.41 Q1359.53 1531.54 1363.67 1531.54 Q1369.24 1531.54 1372.26 1535.45 Q1375.29 1539.33 1375.29 1546.53 L1375.29 1568.04 L1369.4 1568.04 L1369.4 1546.72 Q1369.4 1541.59 1367.59 1539.11 Q1365.77 1536.63 1362.05 1536.63 Q1357.5 1536.63 1354.85 1539.65 Q1352.21 1542.68 1352.21 1547.9 L1352.21 1568.04 L1346.32 1568.04 L1346.32 1546.72 Q1346.32 1541.56 1344.51 1539.11 Q1342.7 1536.63 1338.91 1536.63 Q1334.42 1536.63 1331.78 1539.68 Q1329.14 1542.71 1329.14 1547.9 L1329.14 1568.04 L1323.25 1568.04 L1323.25 1532.4 L1329.14 1532.4 L1329.14 1537.93 Q1331.14 1534.66 1333.94 1533.1 Q1336.74 1531.54 1340.59 1531.54 Q1344.48 1531.54 1347.18 1533.51 Q1349.92 1535.48 1351.23 1539.24 Z" fill="#000000" fill-rule="nonzero" fill-opacity="1" /><path clip-path="url(#clip120)" d="M1386.97 1532.4 L1392.83 1532.4 L1392.83 1568.04 L1386.97 1568.04 L1386.97 1532.4 M1386.97 1518.52 L1392.83 1518.52 L1392.83 1525.93 L1386.97 1525.93 L1386.97 1518.52 Z" fill="#000000" fill-rule="nonzero" fill-opacity="1" /><path clip-path="url(#clip120)" d="M1427.8 1533.45 L1427.8 1538.98 Q1425.32 1537.71 1422.65 1537.07 Q1419.98 1536.44 1417.11 1536.44 Q1412.75 1536.44 1410.55 1537.77 Q1408.39 1539.11 1408.39 1541.79 Q1408.39 1543.82 1409.95 1545 Q1411.51 1546.15 1416.22 1547.2 L1418.22 1547.64 Q1424.46 1548.98 1427.07 1551.43 Q1429.71 1553.85 1429.71 1558.21 Q1429.71 1563.17 1425.77 1566.07 Q1421.85 1568.97 1414.98 1568.97 Q1412.11 1568.97 1408.99 1568.39 Q1405.91 1567.85 1402.47 1566.74 L1402.47 1560.69 Q1405.72 1562.38 1408.87 1563.24 Q1412.02 1564.07 1415.11 1564.07 Q1419.24 1564.07 1421.47 1562.66 Q1423.7 1561.23 1423.7 1558.65 Q1423.7 1556.27 1422.08 1554.99 Q1420.48 1553.72 1415.04 1552.54 L1413 1552.07 Q1407.56 1550.92 1405.14 1548.56 Q1402.72 1546.18 1402.72 1542.04 Q1402.72 1537.01 1406.29 1534.27 Q1409.85 1531.54 1416.41 1531.54 Q1419.66 1531.54 1422.52 1532.01 Q1425.39 1532.49 1427.8 1533.45 Z" fill="#000000" fill-rule="nonzero" fill-opacity="1" /><path clip-path="url(#clip120)" d="M1461.77 1533.45 L1461.77 1538.98 Q1459.28 1537.71 1456.61 1537.07 Q1453.94 1536.44 1451.07 1536.44 Q1446.71 1536.44 1444.51 1537.77 Q1442.35 1539.11 1442.35 1541.79 Q1442.35 1543.82 1443.91 1545 Q1445.47 1546.15 1450.18 1547.2 L1452.19 1547.64 Q1458.42 1548.98 1461.03 1551.43 Q1463.68 1553.85 1463.68 1558.21 Q1463.68 1563.17 1459.73 1566.07 Q1455.81 1568.97 1448.94 1568.97 Q1446.07 1568.97 1442.96 1568.39 Q1439.87 1567.85 1436.43 1566.74 L1436.43 1560.69 Q1439.68 1562.38 1442.83 1563.24 Q1445.98 1564.07 1449.07 1564.07 Q1453.2 1564.07 1455.43 1562.66 Q1457.66 1561.23 1457.66 1558.65 Q1457.66 1556.27 1456.04 1554.99 Q1454.45 1553.72 1449 1552.54 L1446.97 1552.07 Q1441.52 1550.92 1439.1 1548.56 Q1436.68 1546.18 1436.68 1542.04 Q1436.68 1537.01 1440.25 1534.27 Q1443.81 1531.54 1450.37 1531.54 Q1453.62 1531.54 1456.48 1532.01 Q1459.35 1532.49 1461.77 1533.45 Z" fill="#000000" fill-rule="nonzero" fill-opacity="1" /><path clip-path="url(#clip120)" d="M1473 1532.4 L1478.86 1532.4 L1478.86 1568.04 L1473 1568.04 L1473 1532.4 M1473 1518.52 L1478.86 1518.52 L1478.86 1525.93 L1473 1525.93 L1473 1518.52 Z" fill="#000000" fill-rule="nonzero" fill-opacity="1" /><path clip-path="url(#clip120)" d="M1520.74 1546.53 L1520.74 1568.04 L1514.89 1568.04 L1514.89 1546.72 Q1514.89 1541.66 1512.91 1539.14 Q1510.94 1536.63 1506.99 1536.63 Q1502.25 1536.63 1499.51 1539.65 Q1496.78 1542.68 1496.78 1547.9 L1496.78 1568.04 L1490.89 1568.04 L1490.89 1532.4 L1496.78 1532.4 L1496.78 1537.93 Q1498.88 1534.72 1501.71 1533.13 Q1504.58 1531.54 1508.3 1531.54 Q1514.44 1531.54 1517.59 1535.36 Q1520.74 1539.14 1520.74 1546.53 Z" fill="#000000" fill-rule="nonzero" fill-opacity="1" /><path clip-path="url(#clip120)" d="M1555.88 1549.81 Q1555.88 1543.44 1553.24 1539.94 Q1550.63 1536.44 1545.89 1536.44 Q1541.18 1536.44 1538.54 1539.94 Q1535.93 1543.44 1535.93 1549.81 Q1535.93 1556.14 1538.54 1559.64 Q1541.18 1563.14 1545.89 1563.14 Q1550.63 1563.14 1553.24 1559.64 Q1555.88 1556.14 1555.88 1549.81 M1561.74 1563.62 Q1561.74 1572.72 1557.7 1577.15 Q1553.65 1581.6 1545.32 1581.6 Q1542.23 1581.6 1539.49 1581.13 Q1536.75 1580.68 1534.18 1579.72 L1534.18 1574.03 Q1536.75 1575.43 1539.27 1576.1 Q1541.78 1576.76 1544.39 1576.76 Q1550.15 1576.76 1553.02 1573.74 Q1555.88 1570.75 1555.88 1564.67 L1555.88 1561.77 Q1554.07 1564.92 1551.24 1566.48 Q1548.4 1568.04 1544.46 1568.04 Q1537.9 1568.04 1533.89 1563.05 Q1529.88 1558.05 1529.88 1549.81 Q1529.88 1541.53 1533.89 1536.53 Q1537.9 1531.54 1544.46 1531.54 Q1548.4 1531.54 1551.24 1533.1 Q1554.07 1534.66 1555.88 1537.81 L1555.88 1532.4 L1561.74 1532.4 L1561.74 1563.62 Z" fill="#000000" fill-rule="nonzero" fill-opacity="1" /><polyline clip-path="url(#clip120)" style="stroke:#000000; stroke-linecap:round; stroke-linejoin:round; stroke-width:4; stroke-opacity:1; fill:none" points="279.704,1423.18 279.704,123.472 "/>
<polyline clip-path="url(#clip120)" style="stroke:#000000; stroke-linecap:round; stroke-linejoin:round; stroke-width:4; stroke-opacity:1; fill:none" points="279.704,1423.18 298.602,1423.18 "/>
<polyline clip-path="url(#clip120)" style="stroke:#000000; stroke-linecap:round; stroke-linejoin:round; stroke-width:4; stroke-opacity:1; fill:none" points="279.704,1158.52 298.602,1158.52 "/>
<polyline clip-path="url(#clip120)" style="stroke:#000000; stroke-linecap:round; stroke-linejoin:round; stroke-width:4; stroke-opacity:1; fill:none" points="279.704,893.853 298.602,893.853 "/>
<polyline clip-path="url(#clip120)" style="stroke:#000000; stroke-linecap:round; stroke-linejoin:round; stroke-width:4; stroke-opacity:1; fill:none" points="279.704,629.19 298.602,629.19 "/>
<polyline clip-path="url(#clip120)" style="stroke:#000000; stroke-linecap:round; stroke-linejoin:round; stroke-width:4; stroke-opacity:1; fill:none" points="279.704,364.527 298.602,364.527 "/>
<path clip-path="url(#clip120)" d="M126.205 1408.98 Q122.593 1408.98 120.765 1412.54 Q118.959 1416.08 118.959 1423.21 Q118.959 1430.32 120.765 1433.89 Q122.593 1437.43 126.205 1437.43 Q129.839 1437.43 131.644 1433.89 Q133.473 1430.32 133.473 1423.21 Q133.473 1416.08 131.644 1412.54 Q129.839 1408.98 126.205 1408.98 M126.205 1405.27 Q132.015 1405.27 135.07 1409.88 Q138.149 1414.46 138.149 1423.21 Q138.149 1431.94 135.07 1436.55 Q132.015 1441.13 126.205 1441.13 Q120.394 1441.13 117.316 1436.55 Q114.26 1431.94 114.26 1423.21 Q114.26 1414.46 117.316 1409.88 Q120.394 1405.27 126.205 1405.27 Z" fill="#000000" fill-rule="nonzero" fill-opacity="1" /><path clip-path="url(#clip120)" d="M146.366 1434.58 L151.251 1434.58 L151.251 1440.46 L146.366 1440.46 L146.366 1434.58 Z" fill="#000000" fill-rule="nonzero" fill-opacity="1" /><path clip-path="url(#clip120)" d="M171.436 1408.98 Q167.825 1408.98 165.996 1412.54 Q164.19 1416.08 164.19 1423.21 Q164.19 1430.32 165.996 1433.89 Q167.825 1437.43 171.436 1437.43 Q175.07 1437.43 176.876 1433.89 Q178.704 1430.32 178.704 1423.21 Q178.704 1416.08 176.876 1412.54 Q175.07 1408.98 171.436 1408.98 M171.436 1405.27 Q177.246 1405.27 180.301 1409.88 Q183.38 1414.46 183.38 1423.21 Q183.38 1431.94 180.301 1436.55 Q177.246 1441.13 171.436 1441.13 Q165.626 1441.13 162.547 1436.55 Q159.491 1431.94 159.491 1423.21 Q159.491 1414.46 162.547 1409.88 Q165.626 1405.27 171.436 1405.27 Z" fill="#000000" fill-rule="nonzero" fill-opacity="1" /><path clip-path="url(#clip120)" d="M201.598 1408.98 Q197.987 1408.98 196.158 1412.54 Q194.352 1416.08 194.352 1423.21 Q194.352 1430.32 196.158 1433.89 Q197.987 1437.43 201.598 1437.43 Q205.232 1437.43 207.037 1433.89 Q208.866 1430.32 208.866 1423.21 Q208.866 1416.08 207.037 1412.54 Q205.232 1408.98 201.598 1408.98 M201.598 1405.27 Q207.408 1405.27 210.463 1409.88 Q213.542 1414.46 213.542 1423.21 Q213.542 1431.94 210.463 1436.55 Q207.408 1441.13 201.598 1441.13 Q195.787 1441.13 192.709 1436.55 Q189.653 1431.94 189.653 1423.21 Q189.653 1414.46 192.709 1409.88 Q195.787 1405.27 201.598 1405.27 Z" fill="#000000" fill-rule="nonzero" fill-opacity="1" /><path clip-path="url(#clip120)" d="M231.76 1408.98 Q228.148 1408.98 226.32 1412.54 Q224.514 1416.08 224.514 1423.21 Q224.514 1430.32 226.32 1433.89 Q228.148 1437.43 231.76 1437.43 Q235.394 1437.43 237.199 1433.89 Q239.028 1430.32 239.028 1423.21 Q239.028 1416.08 237.199 1412.54 Q235.394 1408.98 231.76 1408.98 M231.76 1405.27 Q237.57 1405.27 240.625 1409.88 Q243.704 1414.46 243.704 1423.21 Q243.704 1431.94 240.625 1436.55 Q237.57 1441.13 231.76 1441.13 Q225.949 1441.13 222.871 1436.55 Q219.815 1431.94 219.815 1423.21 Q219.815 1414.46 222.871 1409.88 Q225.949 1405.27 231.76 1405.27 Z" fill="#000000" fill-rule="nonzero" fill-opacity="1" /><path clip-path="url(#clip120)" d="M127.2 1144.32 Q123.589 1144.32 121.76 1147.88 Q119.955 1151.42 119.955 1158.55 Q119.955 1165.66 121.76 1169.22 Q123.589 1172.76 127.2 1172.76 Q130.834 1172.76 132.64 1169.22 Q134.468 1165.66 134.468 1158.55 Q134.468 1151.42 132.64 1147.88 Q130.834 1144.32 127.2 1144.32 M127.2 1140.61 Q133.01 1140.61 136.066 1145.22 Q139.144 1149.8 139.144 1158.55 Q139.144 1167.28 136.066 1171.88 Q133.01 1176.47 127.2 1176.47 Q121.39 1176.47 118.311 1171.88 Q115.256 1167.28 115.256 1158.55 Q115.256 1149.8 118.311 1145.22 Q121.39 1140.61 127.2 1140.61 Z" fill="#000000" fill-rule="nonzero" fill-opacity="1" /><path clip-path="url(#clip120)" d="M147.362 1169.92 L152.246 1169.92 L152.246 1175.8 L147.362 1175.8 L147.362 1169.92 Z" fill="#000000" fill-rule="nonzero" fill-opacity="1" /><path clip-path="url(#clip120)" d="M172.431 1144.32 Q168.82 1144.32 166.991 1147.88 Q165.186 1151.42 165.186 1158.55 Q165.186 1165.66 166.991 1169.22 Q168.82 1172.76 172.431 1172.76 Q176.065 1172.76 177.871 1169.22 Q179.7 1165.66 179.7 1158.55 Q179.7 1151.42 177.871 1147.88 Q176.065 1144.32 172.431 1144.32 M172.431 1140.61 Q178.241 1140.61 181.297 1145.22 Q184.376 1149.8 184.376 1158.55 Q184.376 1167.28 181.297 1171.88 Q178.241 1176.47 172.431 1176.47 Q166.621 1176.47 163.542 1171.88 Q160.487 1167.28 160.487 1158.55 Q160.487 1149.8 163.542 1145.22 Q166.621 1140.61 172.431 1140.61 Z" fill="#000000" fill-rule="nonzero" fill-opacity="1" /><path clip-path="url(#clip120)" d="M196.621 1171.86 L212.94 1171.86 L212.94 1175.8 L190.996 1175.8 L190.996 1171.86 Q193.658 1169.11 198.241 1164.48 Q202.848 1159.82 204.028 1158.48 Q206.274 1155.96 207.153 1154.22 Q208.056 1152.46 208.056 1150.77 Q208.056 1148.02 206.112 1146.28 Q204.19 1144.55 201.088 1144.55 Q198.889 1144.55 196.436 1145.31 Q194.005 1146.07 191.227 1147.63 L191.227 1142.9 Q194.051 1141.77 196.505 1141.19 Q198.959 1140.61 200.996 1140.61 Q206.366 1140.61 209.561 1143.3 Q212.755 1145.98 212.755 1150.47 Q212.755 1152.6 211.945 1154.52 Q211.158 1156.42 209.051 1159.01 Q208.473 1159.69 205.371 1162.9 Q202.269 1166.1 196.621 1171.86 Z" fill="#000000" fill-rule="nonzero" fill-opacity="1" /><path clip-path="url(#clip120)" d="M222.801 1141.24 L241.158 1141.24 L241.158 1145.17 L227.084 1145.17 L227.084 1153.64 Q228.102 1153.3 229.121 1153.13 Q230.139 1152.95 231.158 1152.95 Q236.945 1152.95 240.324 1156.12 Q243.704 1159.29 243.704 1164.71 Q243.704 1170.29 240.232 1173.39 Q236.76 1176.47 230.44 1176.47 Q228.264 1176.47 225.996 1176.1 Q223.75 1175.73 221.343 1174.99 L221.343 1170.29 Q223.426 1171.42 225.648 1171.98 Q227.871 1172.53 230.347 1172.53 Q234.352 1172.53 236.69 1170.43 Q239.028 1168.32 239.028 1164.71 Q239.028 1161.1 236.69 1158.99 Q234.352 1156.88 230.347 1156.88 Q228.473 1156.88 226.598 1157.3 Q224.746 1157.72 222.801 1158.6 L222.801 1141.24 Z" fill="#000000" fill-rule="nonzero" fill-opacity="1" /><path clip-path="url(#clip120)" d="M126.205 879.652 Q122.593 879.652 120.765 883.217 Q118.959 886.759 118.959 893.888 Q118.959 900.995 120.765 904.559 Q122.593 908.101 126.205 908.101 Q129.839 908.101 131.644 904.559 Q133.473 900.995 133.473 893.888 Q133.473 886.759 131.644 883.217 Q129.839 879.652 126.205 879.652 M126.205 875.948 Q132.015 875.948 135.07 880.555 Q138.149 885.138 138.149 893.888 Q138.149 902.615 135.07 907.221 Q132.015 911.805 126.205 911.805 Q120.394 911.805 117.316 907.221 Q114.26 902.615 114.26 893.888 Q114.26 885.138 117.316 880.555 Q120.394 875.948 126.205 875.948 Z" fill="#000000" fill-rule="nonzero" fill-opacity="1" /><path clip-path="url(#clip120)" d="M146.366 905.254 L151.251 905.254 L151.251 911.133 L146.366 911.133 L146.366 905.254 Z" fill="#000000" fill-rule="nonzero" fill-opacity="1" /><path clip-path="url(#clip120)" d="M171.436 879.652 Q167.825 879.652 165.996 883.217 Q164.19 886.759 164.19 893.888 Q164.19 900.995 165.996 904.559 Q167.825 908.101 171.436 908.101 Q175.07 908.101 176.876 904.559 Q178.704 900.995 178.704 893.888 Q178.704 886.759 176.876 883.217 Q175.07 879.652 171.436 879.652 M171.436 875.948 Q177.246 875.948 180.301 880.555 Q183.38 885.138 183.38 893.888 Q183.38 902.615 180.301 907.221 Q177.246 911.805 171.436 911.805 Q165.626 911.805 162.547 907.221 Q159.491 902.615 159.491 893.888 Q159.491 885.138 162.547 880.555 Q165.626 875.948 171.436 875.948 Z" fill="#000000" fill-rule="nonzero" fill-opacity="1" /><path clip-path="url(#clip120)" d="M191.644 876.573 L210 876.573 L210 880.509 L195.926 880.509 L195.926 888.981 Q196.945 888.634 197.963 888.471 Q198.982 888.286 200 888.286 Q205.787 888.286 209.167 891.458 Q212.547 894.629 212.547 900.045 Q212.547 905.624 209.074 908.726 Q205.602 911.805 199.283 911.805 Q197.107 911.805 194.838 911.434 Q192.593 911.064 190.186 910.323 L190.186 905.624 Q192.269 906.758 194.491 907.314 Q196.713 907.87 199.19 907.87 Q203.195 907.87 205.533 905.763 Q207.871 903.657 207.871 900.045 Q207.871 896.434 205.533 894.328 Q203.195 892.221 199.19 892.221 Q197.315 892.221 195.44 892.638 Q193.588 893.055 191.644 893.934 L191.644 876.573 Z" fill="#000000" fill-rule="nonzero" fill-opacity="1" /><path clip-path="url(#clip120)" d="M231.76 879.652 Q228.148 879.652 226.32 883.217 Q224.514 886.759 224.514 893.888 Q224.514 900.995 226.32 904.559 Q228.148 908.101 231.76 908.101 Q235.394 908.101 237.199 904.559 Q239.028 900.995 239.028 893.888 Q239.028 886.759 237.199 883.217 Q235.394 879.652 231.76 879.652 M231.76 875.948 Q237.57 875.948 240.625 880.555 Q243.704 885.138 243.704 893.888 Q243.704 902.615 240.625 907.221 Q237.57 911.805 231.76 911.805 Q225.949 911.805 222.871 907.221 Q219.815 902.615 219.815 893.888 Q219.815 885.138 222.871 880.555 Q225.949 875.948 231.76 875.948 Z" fill="#000000" fill-rule="nonzero" fill-opacity="1" /><path clip-path="url(#clip120)" d="M127.2 614.989 Q123.589 614.989 121.76 618.554 Q119.955 622.095 119.955 629.225 Q119.955 636.331 121.76 639.896 Q123.589 643.438 127.2 643.438 Q130.834 643.438 132.64 639.896 Q134.468 636.331 134.468 629.225 Q134.468 622.095 132.64 618.554 Q130.834 614.989 127.2 614.989 M127.2 611.285 Q133.01 611.285 136.066 615.892 Q139.144 620.475 139.144 629.225 Q139.144 637.952 136.066 642.558 Q133.01 647.141 127.2 647.141 Q121.39 647.141 118.311 642.558 Q115.256 637.952 115.256 629.225 Q115.256 620.475 118.311 615.892 Q121.39 611.285 127.2 611.285 Z" fill="#000000" fill-rule="nonzero" fill-opacity="1" /><path clip-path="url(#clip120)" d="M147.362 640.591 L152.246 640.591 L152.246 646.47 L147.362 646.47 L147.362 640.591 Z" fill="#000000" fill-rule="nonzero" fill-opacity="1" /><path clip-path="url(#clip120)" d="M172.431 614.989 Q168.82 614.989 166.991 618.554 Q165.186 622.095 165.186 629.225 Q165.186 636.331 166.991 639.896 Q168.82 643.438 172.431 643.438 Q176.065 643.438 177.871 639.896 Q179.7 636.331 179.7 629.225 Q179.7 622.095 177.871 618.554 Q176.065 614.989 172.431 614.989 M172.431 611.285 Q178.241 611.285 181.297 615.892 Q184.376 620.475 184.376 629.225 Q184.376 637.952 181.297 642.558 Q178.241 647.141 172.431 647.141 Q166.621 647.141 163.542 642.558 Q160.487 637.952 160.487 629.225 Q160.487 620.475 163.542 615.892 Q166.621 611.285 172.431 611.285 Z" fill="#000000" fill-rule="nonzero" fill-opacity="1" /><path clip-path="url(#clip120)" d="M191.413 611.91 L213.635 611.91 L213.635 613.901 L201.088 646.47 L196.204 646.47 L208.01 615.845 L191.413 615.845 L191.413 611.91 Z" fill="#000000" fill-rule="nonzero" fill-opacity="1" /><path clip-path="url(#clip120)" d="M222.801 611.91 L241.158 611.91 L241.158 615.845 L227.084 615.845 L227.084 624.317 Q228.102 623.97 229.121 623.808 Q230.139 623.623 231.158 623.623 Q236.945 623.623 240.324 626.794 Q243.704 629.966 243.704 635.382 Q243.704 640.961 240.232 644.063 Q236.76 647.141 230.44 647.141 Q228.264 647.141 225.996 646.771 Q223.75 646.401 221.343 645.66 L221.343 640.961 Q223.426 642.095 225.648 642.651 Q227.871 643.206 230.347 643.206 Q234.352 643.206 236.69 641.1 Q239.028 638.993 239.028 635.382 Q239.028 631.771 236.69 629.665 Q234.352 627.558 230.347 627.558 Q228.473 627.558 226.598 627.975 Q224.746 628.392 222.801 629.271 L222.801 611.91 Z" fill="#000000" fill-rule="nonzero" fill-opacity="1" /><path clip-path="url(#clip120)" d="M126.205 350.326 Q122.593 350.326 120.765 353.89 Q118.959 357.432 118.959 364.562 Q118.959 371.668 120.765 375.233 Q122.593 378.775 126.205 378.775 Q129.839 378.775 131.644 375.233 Q133.473 371.668 133.473 364.562 Q133.473 357.432 131.644 353.89 Q129.839 350.326 126.205 350.326 M126.205 346.622 Q132.015 346.622 135.07 351.228 Q138.149 355.812 138.149 364.562 Q138.149 373.288 135.07 377.895 Q132.015 382.478 126.205 382.478 Q120.394 382.478 117.316 377.895 Q114.26 373.288 114.26 364.562 Q114.26 355.812 117.316 351.228 Q120.394 346.622 126.205 346.622 Z" fill="#000000" fill-rule="nonzero" fill-opacity="1" /><path clip-path="url(#clip120)" d="M146.366 375.927 L151.251 375.927 L151.251 381.807 L146.366 381.807 L146.366 375.927 Z" fill="#000000" fill-rule="nonzero" fill-opacity="1" /><path clip-path="url(#clip120)" d="M162.246 377.872 L169.885 377.872 L169.885 351.506 L161.575 353.173 L161.575 348.914 L169.839 347.247 L174.514 347.247 L174.514 377.872 L182.153 377.872 L182.153 381.807 L162.246 381.807 L162.246 377.872 Z" fill="#000000" fill-rule="nonzero" fill-opacity="1" /><path clip-path="url(#clip120)" d="M201.598 350.326 Q197.987 350.326 196.158 353.89 Q194.352 357.432 194.352 364.562 Q194.352 371.668 196.158 375.233 Q197.987 378.775 201.598 378.775 Q205.232 378.775 207.037 375.233 Q208.866 371.668 208.866 364.562 Q208.866 357.432 207.037 353.89 Q205.232 350.326 201.598 350.326 M201.598 346.622 Q207.408 346.622 210.463 351.228 Q213.542 355.812 213.542 364.562 Q213.542 373.288 210.463 377.895 Q207.408 382.478 201.598 382.478 Q195.787 382.478 192.709 377.895 Q189.653 373.288 189.653 364.562 Q189.653 355.812 192.709 351.228 Q195.787 346.622 201.598 346.622 Z" fill="#000000" fill-rule="nonzero" fill-opacity="1" /><path clip-path="url(#clip120)" d="M231.76 350.326 Q228.148 350.326 226.32 353.89 Q224.514 357.432 224.514 364.562 Q224.514 371.668 226.32 375.233 Q228.148 378.775 231.76 378.775 Q235.394 378.775 237.199 375.233 Q239.028 371.668 239.028 364.562 Q239.028 357.432 237.199 353.89 Q235.394 350.326 231.76 350.326 M231.76 346.622 Q237.57 346.622 240.625 351.228 Q243.704 355.812 243.704 364.562 Q243.704 373.288 240.625 377.895 Q237.57 382.478 231.76 382.478 Q225.949 382.478 222.871 377.895 Q219.815 373.288 219.815 364.562 Q219.815 355.812 222.871 351.228 Q225.949 346.622 231.76 346.622 Z" fill="#000000" fill-rule="nonzero" fill-opacity="1" /><path clip-path="url(#clip120)" d="M33.7671 1080.57 L14.479 1080.57 L14.479 1074.71 L64.0042 1074.71 L64.0042 1080.57 L58.657 1080.57 Q61.8398 1082.41 63.3994 1085.25 Q64.9272 1088.05 64.9272 1091.99 Q64.9272 1098.45 59.771 1102.53 Q54.6147 1106.57 46.212 1106.57 Q37.8093 1106.57 32.6531 1102.53 Q27.4968 1098.45 27.4968 1091.99 Q27.4968 1088.05 29.0564 1085.25 Q30.5842 1082.41 33.7671 1080.57 M46.212 1100.52 Q52.6732 1100.52 56.3653 1097.88 Q60.0256 1095.21 60.0256 1090.56 Q60.0256 1085.91 56.3653 1083.24 Q52.6732 1080.57 46.212 1080.57 Q39.7508 1080.57 36.0905 1083.24 Q32.3984 1085.91 32.3984 1090.56 Q32.3984 1095.21 36.0905 1097.88 Q39.7508 1100.52 46.212 1100.52 Z" fill="#000000" fill-rule="nonzero" fill-opacity="1" /><path clip-path="url(#clip120)" d="M46.0847 1046.45 Q46.0847 1053.54 47.7079 1056.28 Q49.3312 1059.02 53.2461 1059.02 Q56.3653 1059.02 58.2114 1056.98 Q60.0256 1054.91 60.0256 1051.38 Q60.0256 1046.51 56.5881 1043.58 Q53.1188 1040.62 47.3897 1040.62 L46.0847 1040.62 L46.0847 1046.45 M43.6657 1034.77 L64.0042 1034.77 L64.0042 1040.62 L58.5933 1040.62 Q61.8398 1042.63 63.3994 1045.62 Q64.9272 1048.61 64.9272 1052.94 Q64.9272 1058.41 61.8716 1061.66 Q58.7843 1064.88 53.6281 1064.88 Q47.6125 1064.88 44.5569 1060.86 Q41.5014 1056.82 41.5014 1048.83 L41.5014 1040.62 L40.9285 1040.62 Q36.8862 1040.62 34.6901 1043.3 Q32.4621 1045.94 32.4621 1050.74 Q32.4621 1053.8 33.1941 1056.7 Q33.9262 1059.59 35.3903 1062.27 L29.9795 1062.27 Q28.7381 1059.05 28.1334 1056.03 Q27.4968 1053 27.4968 1050.14 Q27.4968 1042.4 31.5072 1038.58 Q35.5176 1034.77 43.6657 1034.77 Z" fill="#000000" fill-rule="nonzero" fill-opacity="1" /><path clip-path="url(#clip120)" d="M18.2347 1016.91 L28.3562 1016.91 L28.3562 1004.85 L32.9077 1004.85 L32.9077 1016.91 L52.2594 1016.91 Q56.6199 1016.91 57.8613 1015.73 Q59.1026 1014.52 59.1026 1010.86 L59.1026 1004.85 L64.0042 1004.85 L64.0042 1010.86 Q64.0042 1017.64 61.4897 1020.22 Q58.9434 1022.8 52.2594 1022.8 L32.9077 1022.8 L32.9077 1027.09 L28.3562 1027.09 L28.3562 1022.8 L18.2347 1022.8 L18.2347 1016.91 Z" fill="#000000" fill-rule="nonzero" fill-opacity="1" /><path clip-path="url(#clip120)" d="M46.0847 980.944 Q46.0847 988.041 47.7079 990.779 Q49.3312 993.516 53.2461 993.516 Q56.3653 993.516 58.2114 991.479 Q60.0256 989.41 60.0256 985.877 Q60.0256 981.007 56.5881 978.079 Q53.1188 975.119 47.3897 975.119 L46.0847 975.119 L46.0847 980.944 M43.6657 969.262 L64.0042 969.262 L64.0042 975.119 L58.5933 975.119 Q61.8398 977.124 63.3994 980.116 Q64.9272 983.108 64.9272 987.437 Q64.9272 992.911 61.8716 996.158 Q58.7843 999.372 53.6281 999.372 Q47.6125 999.372 44.5569 995.362 Q41.5014 991.32 41.5014 983.331 L41.5014 975.119 L40.9285 975.119 Q36.8862 975.119 34.6901 977.792 Q32.4621 980.434 32.4621 985.24 Q32.4621 988.296 33.1941 991.192 Q33.9262 994.089 35.3903 996.762 L29.9795 996.762 Q28.7381 993.548 28.1334 990.524 Q27.4968 987.5 27.4968 984.636 Q27.4968 976.901 31.5072 973.082 Q35.5176 969.262 43.6657 969.262 Z" fill="#000000" fill-rule="nonzero" fill-opacity="1" /><path clip-path="url(#clip120)" d="M29.4065 934.474 L34.9447 934.474 Q33.6716 936.956 33.035 939.63 Q32.3984 942.304 32.3984 945.168 Q32.3984 949.529 33.7352 951.725 Q35.072 953.889 37.7456 953.889 Q39.7826 953.889 40.9603 952.33 Q42.1061 950.77 43.1565 946.059 L43.6021 944.054 Q44.9389 937.816 47.3897 935.206 Q49.8086 932.564 54.1691 932.564 Q59.1344 932.564 62.0308 936.511 Q64.9272 940.426 64.9272 947.301 Q64.9272 950.165 64.3543 953.285 Q63.8132 956.372 62.6992 959.809 L56.6518 959.809 Q58.3387 956.563 59.198 953.412 Q60.0256 950.261 60.0256 947.173 Q60.0256 943.036 58.6251 940.808 Q57.1929 938.58 54.6147 938.58 Q52.2276 938.58 50.9545 940.203 Q49.6813 941.794 48.5037 947.237 L48.0262 949.274 Q46.8804 954.717 44.5251 957.136 Q42.138 959.555 38.0002 959.555 Q32.9713 959.555 30.2341 955.99 Q27.4968 952.425 27.4968 945.868 Q27.4968 942.622 27.9743 939.757 Q28.4517 936.893 29.4065 934.474 Z" fill="#000000" fill-rule="nonzero" fill-opacity="1" /><path clip-path="url(#clip120)" d="M44.7161 892.747 L47.5806 892.747 L47.5806 919.674 Q53.6281 919.292 56.8109 916.045 Q59.9619 912.767 59.9619 906.942 Q59.9619 903.568 59.1344 900.417 Q58.3069 897.234 56.6518 894.115 L62.1899 894.115 Q63.5267 897.266 64.227 900.576 Q64.9272 903.887 64.9272 907.292 Q64.9272 915.822 59.9619 920.819 Q54.9967 925.785 46.5303 925.785 Q37.7774 925.785 32.6531 921.074 Q27.4968 916.332 27.4968 908.311 Q27.4968 901.118 32.1438 896.948 Q36.7589 892.747 44.7161 892.747 M42.9973 898.603 Q38.1912 898.667 35.3266 901.309 Q32.4621 903.918 32.4621 908.247 Q32.4621 913.149 35.2312 916.109 Q38.0002 919.037 43.0292 919.483 L42.9973 898.603 Z" fill="#000000" fill-rule="nonzero" fill-opacity="1" /><path clip-path="url(#clip120)" d="M18.2347 877.342 L28.3562 877.342 L28.3562 865.279 L32.9077 865.279 L32.9077 877.342 L52.2594 877.342 Q56.6199 877.342 57.8613 876.164 Q59.1026 874.954 59.1026 871.294 L59.1026 865.279 L64.0042 865.279 L64.0042 871.294 Q64.0042 878.074 61.4897 880.652 Q58.9434 883.23 52.2594 883.23 L32.9077 883.23 L32.9077 887.527 L28.3562 887.527 L28.3562 883.23 L18.2347 883.23 L18.2347 877.342 Z" fill="#000000" fill-rule="nonzero" fill-opacity="1" /><path clip-path="url(#clip120)" d="M35.1993 809.101 Q31.2526 806.905 29.3747 803.85 Q27.4968 800.794 27.4968 796.656 Q27.4968 791.086 31.4117 788.063 Q35.2948 785.039 42.4881 785.039 L64.0042 785.039 L64.0042 790.927 L42.679 790.927 Q37.5546 790.927 35.072 792.741 Q32.5894 794.556 32.5894 798.28 Q32.5894 802.831 35.6131 805.473 Q38.6368 808.115 43.8567 808.115 L64.0042 808.115 L64.0042 814.003 L42.679 814.003 Q37.5228 814.003 35.072 815.817 Q32.5894 817.631 32.5894 821.419 Q32.5894 825.907 35.6449 828.548 Q38.6686 831.19 43.8567 831.19 L64.0042 831.19 L64.0042 837.079 L28.3562 837.079 L28.3562 831.19 L33.8944 831.19 Q30.616 829.185 29.0564 826.384 Q27.4968 823.583 27.4968 819.732 Q27.4968 815.849 29.4702 813.143 Q31.4436 810.406 35.1993 809.101 Z" fill="#000000" fill-rule="nonzero" fill-opacity="1" /><path clip-path="url(#clip120)" d="M44.7161 742.866 L47.5806 742.866 L47.5806 769.793 Q53.6281 769.411 56.8109 766.165 Q59.9619 762.886 59.9619 757.062 Q59.9619 753.688 59.1344 750.537 Q58.3069 747.354 56.6518 744.235 L62.1899 744.235 Q63.5267 747.386 64.227 750.696 Q64.9272 754.006 64.9272 757.412 Q64.9272 765.942 59.9619 770.939 Q54.9967 775.904 46.5303 775.904 Q37.7774 775.904 32.6531 771.193 Q27.4968 766.451 27.4968 758.43 Q27.4968 751.237 32.1438 747.067 Q36.7589 742.866 44.7161 742.866 M42.9973 748.723 Q38.1912 748.786 35.3266 751.428 Q32.4621 754.038 32.4621 758.367 Q32.4621 763.268 35.2312 766.228 Q38.0002 769.156 43.0292 769.602 L42.9973 748.723 Z" fill="#000000" fill-rule="nonzero" fill-opacity="1" /><path clip-path="url(#clip120)" d="M33.7671 709.796 L14.479 709.796 L14.479 703.94 L64.0042 703.94 L64.0042 709.796 L58.657 709.796 Q61.8398 711.642 63.3994 714.475 Q64.9272 717.276 64.9272 721.223 Q64.9272 727.684 59.771 731.758 Q54.6147 735.8 46.212 735.8 Q37.8093 735.8 32.6531 731.758 Q27.4968 727.684 27.4968 721.223 Q27.4968 717.276 29.0564 714.475 Q30.5842 711.642 33.7671 709.796 M46.212 729.753 Q52.6732 729.753 56.3653 727.111 Q60.0256 724.437 60.0256 719.79 Q60.0256 715.143 56.3653 712.47 Q52.6732 709.796 46.212 709.796 Q39.7508 709.796 36.0905 712.47 Q32.3984 715.143 32.3984 719.79 Q32.3984 724.437 36.0905 727.111 Q39.7508 729.753 46.212 729.753 Z" fill="#000000" fill-rule="nonzero" fill-opacity="1" /><path clip-path="url(#clip120)" d="M28.3562 691.877 L28.3562 686.02 L64.0042 686.02 L64.0042 691.877 L28.3562 691.877 M14.479 691.877 L14.479 686.02 L21.895 686.02 L21.895 691.877 L14.479 691.877 Z" fill="#000000" fill-rule="nonzero" fill-opacity="1" /><path clip-path="url(#clip120)" d="M46.0847 657.566 Q46.0847 664.663 47.7079 667.401 Q49.3312 670.138 53.2461 670.138 Q56.3653 670.138 58.2114 668.101 Q60.0256 666.032 60.0256 662.499 Q60.0256 657.629 56.5881 654.701 Q53.1188 651.741 47.3897 651.741 L46.0847 651.741 L46.0847 657.566 M43.6657 645.885 L64.0042 645.885 L64.0042 651.741 L58.5933 651.741 Q61.8398 653.746 63.3994 656.738 Q64.9272 659.73 64.9272 664.059 Q64.9272 669.533 61.8716 672.78 Q58.7843 675.994 53.6281 675.994 Q47.6125 675.994 44.5569 671.984 Q41.5014 667.942 41.5014 659.953 L41.5014 651.741 L40.9285 651.741 Q36.8862 651.741 34.6901 654.415 Q32.4621 657.056 32.4621 661.862 Q32.4621 664.918 33.1941 667.814 Q33.9262 670.711 35.3903 673.384 L29.9795 673.384 Q28.7381 670.17 28.1334 667.146 Q27.4968 664.122 27.4968 661.258 Q27.4968 653.523 31.5072 649.704 Q35.5176 645.885 43.6657 645.885 Z" fill="#000000" fill-rule="nonzero" fill-opacity="1" /><path clip-path="url(#clip120)" d="M42.4881 604.189 L64.0042 604.189 L64.0042 610.046 L42.679 610.046 Q37.6183 610.046 35.1038 612.019 Q32.5894 613.992 32.5894 617.939 Q32.5894 622.682 35.6131 625.419 Q38.6368 628.156 43.8567 628.156 L64.0042 628.156 L64.0042 634.044 L28.3562 634.044 L28.3562 628.156 L33.8944 628.156 Q30.6797 626.055 29.0883 623.223 Q27.4968 620.358 27.4968 616.634 Q27.4968 610.491 31.3163 607.34 Q35.1038 604.189 42.4881 604.189 Z" fill="#000000" fill-rule="nonzero" fill-opacity="1" /><path clip-path="url(#clip120)" d="M16.4842 571.533 L16.4842 561.953 L48.8219 549.826 L16.4842 537.636 L16.4842 528.055 L64.0042 528.055 L64.0042 534.326 L22.277 534.326 L54.8694 546.58 L54.8694 553.041 L22.277 565.295 L64.0042 565.295 L64.0042 571.533 L16.4842 571.533 Z" fill="#000000" fill-rule="nonzero" fill-opacity="1" /><path clip-path="url(#clip120)" d="M22.818 499.41 L46.4666 508.131 L46.4666 490.657 L22.818 499.41 M16.4842 503.038 L16.4842 495.749 L64.0042 477.639 L64.0042 484.323 L51.8138 488.652 L51.8138 510.072 L64.0042 514.401 L64.0042 521.18 L16.4842 503.038 Z" fill="#000000" fill-rule="nonzero" fill-opacity="1" /><path clip-path="url(#clip120)" d="M16.4842 470.7 L16.4842 440.654 L21.895 440.654 L21.895 464.271 L35.9632 464.271 L35.9632 441.641 L41.3741 441.641 L41.3741 464.271 L58.5933 464.271 L58.5933 440.081 L64.0042 440.081 L64.0042 470.7 L16.4842 470.7 Z" fill="#000000" fill-rule="nonzero" fill-opacity="1" /><path clip-path="url(#clip120)" d="M939.516 65.6895 L968.075 65.6895 L968.075 72.576 L929.672 72.576 L929.672 65.6895 Q934.331 60.8689 942.352 52.7671 Q950.413 44.6248 952.479 42.2752 Q956.408 37.8598 957.948 34.8216 Q959.528 31.7429 959.528 28.7857 Q959.528 23.9651 956.125 20.927 Q952.763 17.8888 947.334 17.8888 Q943.486 17.8888 939.192 19.2256 Q934.939 20.5624 930.077 23.2765 L930.077 15.0127 Q935.02 13.0277 939.314 12.015 Q943.607 11.0023 947.172 11.0023 Q956.57 11.0023 962.161 15.7013 Q967.751 20.4004 967.751 28.2591 Q967.751 31.9859 966.333 35.3482 Q964.956 38.6699 961.269 43.2069 Q960.257 44.3817 954.828 50.0125 Q949.4 55.6027 939.516 65.6895 Z" fill="#000000" fill-rule="nonzero" fill-opacity="1" /><path clip-path="url(#clip120)" d="M1002.51 12.096 L1053.67 12.096 L1053.67 18.9825 L1032.2 18.9825 L1032.2 72.576 L1023.98 72.576 L1023.98 18.9825 L1002.51 18.9825 L1002.51 12.096 Z" fill="#000000" fill-rule="nonzero" fill-opacity="1" /><path clip-path="url(#clip120)" d="M1075.34 34.1734 Q1074.09 33.4443 1072.59 33.1202 Q1071.13 32.7556 1069.35 32.7556 Q1063.03 32.7556 1059.63 36.8875 Q1056.26 40.9789 1056.26 48.6757 L1056.26 72.576 L1048.77 72.576 L1048.77 27.2059 L1056.26 27.2059 L1056.26 34.2544 Q1058.61 30.1225 1062.38 28.1376 Q1066.15 26.1121 1071.54 26.1121 Q1072.3 26.1121 1073.24 26.2337 Q1074.17 26.3147 1075.3 26.5172 L1075.34 34.1734 Z" fill="#000000" fill-rule="nonzero" fill-opacity="1" /><path clip-path="url(#clip120)" d="M1120.15 48.0275 L1120.15 51.6733 L1085.88 51.6733 Q1086.36 59.3701 1090.49 63.421 Q1094.67 67.4314 1102.08 67.4314 Q1106.37 67.4314 1110.38 66.3781 Q1114.43 65.3249 1118.4 63.2184 L1118.4 70.267 Q1114.39 71.9684 1110.18 72.8596 Q1105.97 73.7508 1101.63 73.7508 Q1090.78 73.7508 1084.42 67.4314 Q1078.1 61.1119 1078.1 50.3365 Q1078.1 39.1965 1084.09 32.6746 Q1090.13 26.1121 1100.34 26.1121 Q1109.49 26.1121 1114.8 32.0264 Q1120.15 37.9003 1120.15 48.0275 M1112.69 45.84 Q1112.61 39.7232 1109.25 36.0774 Q1105.93 32.4315 1100.42 32.4315 Q1094.18 32.4315 1090.41 35.9558 Q1086.69 39.4801 1086.12 45.8805 L1112.69 45.84 Z" fill="#000000" fill-rule="nonzero" fill-opacity="1" /><path clip-path="url(#clip120)" d="M1170.09 45.1919 L1170.09 72.576 L1162.64 72.576 L1162.64 45.4349 Q1162.64 38.994 1160.13 35.7938 Q1157.62 32.5936 1152.59 32.5936 Q1146.56 32.5936 1143.07 36.4419 Q1139.59 40.2903 1139.59 46.9338 L1139.59 72.576 L1132.1 72.576 L1132.1 27.2059 L1139.59 27.2059 L1139.59 34.2544 Q1142.26 30.163 1145.87 28.1376 Q1149.51 26.1121 1154.25 26.1121 Q1162.07 26.1121 1166.08 30.9732 Q1170.09 35.7938 1170.09 45.1919 Z" fill="#000000" fill-rule="nonzero" fill-opacity="1" /><path clip-path="url(#clip120)" d="M1214.82 34.0924 L1214.82 9.54393 L1222.27 9.54393 L1222.27 72.576 L1214.82 72.576 L1214.82 65.7705 Q1212.47 69.8214 1208.86 71.8063 Q1205.3 73.7508 1200.27 73.7508 Q1192.05 73.7508 1186.86 67.1883 Q1181.72 60.6258 1181.72 49.9314 Q1181.72 39.2371 1186.86 32.6746 Q1192.05 26.1121 1200.27 26.1121 Q1205.3 26.1121 1208.86 28.0971 Q1212.47 30.0415 1214.82 34.0924 M1189.42 49.9314 Q1189.42 58.1548 1192.78 62.8538 Q1196.18 67.5124 1202.1 67.5124 Q1208.01 67.5124 1211.41 62.8538 Q1214.82 58.1548 1214.82 49.9314 Q1214.82 41.7081 1211.41 37.0496 Q1208.01 32.3505 1202.1 32.3505 Q1196.18 32.3505 1192.78 37.0496 Q1189.42 41.7081 1189.42 49.9314 Z" fill="#000000" fill-rule="nonzero" fill-opacity="1" /><path clip-path="url(#clip120)" d="M1266.55 28.5427 L1266.55 35.5912 Q1263.39 33.9709 1259.98 33.1607 Q1256.58 32.3505 1252.93 32.3505 Q1247.38 32.3505 1244.59 34.0519 Q1241.84 35.7533 1241.84 39.156 Q1241.84 41.7486 1243.82 43.2475 Q1245.8 44.7058 1251.8 46.0426 L1254.35 46.6097 Q1262.29 48.3111 1265.61 51.4303 Q1268.98 54.509 1268.98 60.0587 Q1268.98 66.3781 1263.95 70.0644 Q1258.97 73.7508 1250.22 73.7508 Q1246.57 73.7508 1242.6 73.0216 Q1238.68 72.3329 1234.3 70.9151 L1234.3 63.2184 Q1238.43 65.3654 1242.44 66.4591 Q1246.45 67.5124 1250.38 67.5124 Q1255.65 67.5124 1258.48 65.73 Q1261.32 63.9071 1261.32 60.6258 Q1261.32 57.5877 1259.25 55.9673 Q1257.23 54.3469 1250.3 52.8481 L1247.71 52.2405 Q1240.78 50.7821 1237.7 47.7845 Q1234.62 44.7463 1234.62 39.4801 Q1234.62 33.0797 1239.16 29.5959 Q1243.7 26.1121 1252.04 26.1121 Q1256.18 26.1121 1259.82 26.7198 Q1263.47 27.3274 1266.55 28.5427 Z" fill="#000000" fill-rule="nonzero" fill-opacity="1" /><path clip-path="url(#clip120)" d="M1282.75 62.2867 L1291.3 62.2867 L1291.3 69.2543 L1284.65 82.2172 L1279.43 82.2172 L1282.75 69.2543 L1282.75 62.2867 Z" fill="#000000" fill-rule="nonzero" fill-opacity="1" /><path clip-path="url(#clip120)" d="M1341.69 65.6895 L1370.25 65.6895 L1370.25 72.576 L1331.85 72.576 L1331.85 65.6895 Q1336.5 60.8689 1344.53 52.7671 Q1352.59 44.6248 1354.65 42.2752 Q1358.58 37.8598 1360.12 34.8216 Q1361.7 31.7429 1361.7 28.7857 Q1361.7 23.9651 1358.3 20.927 Q1354.94 17.8888 1349.51 17.8888 Q1345.66 17.8888 1341.37 19.2256 Q1337.11 20.5624 1332.25 23.2765 L1332.25 15.0127 Q1337.19 13.0277 1341.49 12.015 Q1345.78 11.0023 1349.35 11.0023 Q1358.74 11.0023 1364.33 15.7013 Q1369.92 20.4004 1369.92 28.2591 Q1369.92 31.9859 1368.51 35.3482 Q1367.13 38.6699 1363.44 43.2069 Q1362.43 44.3817 1357 50.0125 Q1351.57 55.6027 1341.69 65.6895 Z" fill="#000000" fill-rule="nonzero" fill-opacity="1" /><path clip-path="url(#clip120)" d="M1421.25 18.8205 L1421.25 41.5461 L1431.54 41.5461 Q1437.25 41.5461 1440.37 38.5889 Q1443.49 35.6318 1443.49 30.163 Q1443.49 24.7348 1440.37 21.7777 Q1437.25 18.8205 1431.54 18.8205 L1421.25 18.8205 M1413.07 12.096 L1431.54 12.096 Q1441.71 12.096 1446.89 16.714 Q1452.12 21.2916 1452.12 30.163 Q1452.12 39.1155 1446.89 43.6931 Q1441.71 48.2706 1431.54 48.2706 L1421.25 48.2706 L1421.25 72.576 L1413.07 72.576 L1413.07 12.096 Z" fill="#000000" fill-rule="nonzero" fill-opacity="1" /><path clip-path="url(#clip120)" d="M1498.62 48.0275 L1498.62 51.6733 L1464.35 51.6733 Q1464.84 59.3701 1468.97 63.421 Q1473.14 67.4314 1480.55 67.4314 Q1484.85 67.4314 1488.86 66.3781 Q1492.91 65.3249 1496.88 63.2184 L1496.88 70.267 Q1492.87 71.9684 1488.66 72.8596 Q1484.44 73.7508 1480.11 73.7508 Q1469.25 73.7508 1462.89 67.4314 Q1456.57 61.1119 1456.57 50.3365 Q1456.57 39.1965 1462.57 32.6746 Q1468.6 26.1121 1478.81 26.1121 Q1487.97 26.1121 1493.27 32.0264 Q1498.62 37.9003 1498.62 48.0275 M1491.17 45.84 Q1491.09 39.7232 1487.72 36.0774 Q1484.4 32.4315 1478.89 32.4315 Q1472.66 32.4315 1468.89 35.9558 Q1465.16 39.4801 1464.59 45.8805 L1491.17 45.84 Z" fill="#000000" fill-rule="nonzero" fill-opacity="1" /><path clip-path="url(#clip120)" d="M1537.15 34.1734 Q1535.89 33.4443 1534.39 33.1202 Q1532.93 32.7556 1531.15 32.7556 Q1524.83 32.7556 1521.43 36.8875 Q1518.07 40.9789 1518.07 48.6757 L1518.07 72.576 L1510.57 72.576 L1510.57 27.2059 L1518.07 27.2059 L1518.07 34.2544 Q1520.42 30.1225 1524.18 28.1376 Q1527.95 26.1121 1533.34 26.1121 Q1534.11 26.1121 1535.04 26.2337 Q1535.97 26.3147 1537.11 26.5172 L1537.15 34.1734 Z" fill="#000000" fill-rule="nonzero" fill-opacity="1" /><path clip-path="url(#clip120)" d="M1544.96 27.2059 L1552.42 27.2059 L1552.42 72.576 L1544.96 72.576 L1544.96 27.2059 M1544.96 9.54393 L1552.42 9.54393 L1552.42 18.9825 L1544.96 18.9825 L1544.96 9.54393 Z" fill="#000000" fill-rule="nonzero" fill-opacity="1" /><path clip-path="url(#clip120)" d="M1585.59 32.4315 Q1579.6 32.4315 1576.12 37.1306 Q1572.63 41.7891 1572.63 49.9314 Q1572.63 58.0738 1576.08 62.7728 Q1579.56 67.4314 1585.59 67.4314 Q1591.55 67.4314 1595.03 62.7323 Q1598.52 58.0333 1598.52 49.9314 Q1598.52 41.8701 1595.03 37.1711 Q1591.55 32.4315 1585.59 32.4315 M1585.59 26.1121 Q1595.32 26.1121 1600.87 32.4315 Q1606.42 38.7509 1606.42 49.9314 Q1606.42 61.0714 1600.87 67.4314 Q1595.32 73.7508 1585.59 73.7508 Q1575.83 73.7508 1570.28 67.4314 Q1564.77 61.0714 1564.77 49.9314 Q1564.77 38.7509 1570.28 32.4315 Q1575.83 26.1121 1585.59 26.1121 Z" fill="#000000" fill-rule="nonzero" fill-opacity="1" /><path clip-path="url(#clip120)" d="M1648.63 34.0924 L1648.63 9.54393 L1656.08 9.54393 L1656.08 72.576 L1648.63 72.576 L1648.63 65.7705 Q1646.28 69.8214 1642.67 71.8063 Q1639.11 73.7508 1634.08 73.7508 Q1625.86 73.7508 1620.68 67.1883 Q1615.53 60.6258 1615.53 49.9314 Q1615.53 39.2371 1620.68 32.6746 Q1625.86 26.1121 1634.08 26.1121 Q1639.11 26.1121 1642.67 28.0971 Q1646.28 30.0415 1648.63 34.0924 M1623.23 49.9314 Q1623.23 58.1548 1626.59 62.8538 Q1629.99 67.5124 1635.91 67.5124 Q1641.82 67.5124 1645.22 62.8538 Q1648.63 58.1548 1648.63 49.9314 Q1648.63 41.7081 1645.22 37.0496 Q1641.82 32.3505 1635.91 32.3505 Q1629.99 32.3505 1626.59 37.0496 Q1623.23 41.7081 1623.23 49.9314 Z" fill="#000000" fill-rule="nonzero" fill-opacity="1" /><path clip-path="url(#clip120)" d="M1700.36 28.5427 L1700.36 35.5912 Q1697.2 33.9709 1693.79 33.1607 Q1690.39 32.3505 1686.75 32.3505 Q1681.2 32.3505 1678.4 34.0519 Q1675.65 35.7533 1675.65 39.156 Q1675.65 41.7486 1677.63 43.2475 Q1679.62 44.7058 1685.61 46.0426 L1688.16 46.6097 Q1696.1 48.3111 1699.43 51.4303 Q1702.79 54.509 1702.79 60.0587 Q1702.79 66.3781 1697.76 70.0644 Q1692.78 73.7508 1684.03 73.7508 Q1680.39 73.7508 1676.42 73.0216 Q1672.49 72.3329 1668.11 70.9151 L1668.11 63.2184 Q1672.24 65.3654 1676.25 66.4591 Q1680.26 67.5124 1684.19 67.5124 Q1689.46 67.5124 1692.3 65.73 Q1695.13 63.9071 1695.13 60.6258 Q1695.13 57.5877 1693.07 55.9673 Q1691.04 54.3469 1684.11 52.8481 L1681.52 52.2405 Q1674.59 50.7821 1671.51 47.7845 Q1668.44 44.7463 1668.44 39.4801 Q1668.44 33.0797 1672.97 29.5959 Q1677.51 26.1121 1685.85 26.1121 Q1689.99 26.1121 1693.63 26.7198 Q1697.28 27.3274 1700.36 28.5427 Z" fill="#000000" fill-rule="nonzero" fill-opacity="1" /><path clip-path="url(#clip122)" d="M392.349 123.472 L392.349 1423.18 L440.975 1423.18 L440.975 123.472 L392.349 123.472 L392.349 123.472  Z" fill="#009af9" fill-rule="evenodd" fill-opacity="1"/>
<polyline clip-path="url(#clip122)" style="stroke:#000000; stroke-linecap:round; stroke-linejoin:round; stroke-width:4; stroke-opacity:1; fill:none" points="392.349,123.472 392.349,1423.18 440.975,1423.18 440.975,123.472 392.349,123.472 "/>
<path clip-path="url(#clip122)" d="M586.85 182.654 L586.85 1423.18 L635.476 1423.18 L635.476 182.654 L586.85 182.654 L586.85 182.654  Z" fill="#009af9" fill-rule="evenodd" fill-opacity="1"/>
<polyline clip-path="url(#clip122)" style="stroke:#000000; stroke-linecap:round; stroke-linejoin:round; stroke-width:4; stroke-opacity:1; fill:none" points="586.85,182.654 586.85,1423.18 635.476,1423.18 635.476,182.654 586.85,182.654 "/>
<path clip-path="url(#clip122)" d="M781.352 204.734 L781.352 1423.18 L829.977 1423.18 L829.977 204.734 L781.352 204.734 L781.352 204.734  Z" fill="#009af9" fill-rule="evenodd" fill-opacity="1"/>
<polyline clip-path="url(#clip122)" style="stroke:#000000; stroke-linecap:round; stroke-linejoin:round; stroke-width:4; stroke-opacity:1; fill:none" points="781.352,204.734 781.352,1423.18 829.977,1423.18 829.977,204.734 781.352,204.734 "/>
<path clip-path="url(#clip122)" d="M975.853 205.615 L975.853 1423.18 L1024.48 1423.18 L1024.48 205.615 L975.853 205.615 L975.853 205.615  Z" fill="#009af9" fill-rule="evenodd" fill-opacity="1"/>
<polyline clip-path="url(#clip122)" style="stroke:#000000; stroke-linecap:round; stroke-linejoin:round; stroke-width:4; stroke-opacity:1; fill:none" points="975.853,205.615 975.853,1423.18 1024.48,1423.18 1024.48,205.615 975.853,205.615 "/>
<path clip-path="url(#clip122)" d="M1170.35 203.83 L1170.35 1423.18 L1218.98 1423.18 L1218.98 203.83 L1170.35 203.83 L1170.35 203.83  Z" fill="#009af9" fill-rule="evenodd" fill-opacity="1"/>
<polyline clip-path="url(#clip122)" style="stroke:#000000; stroke-linecap:round; stroke-linejoin:round; stroke-width:4; stroke-opacity:1; fill:none" points="1170.35,203.83 1170.35,1423.18 1218.98,1423.18 1218.98,203.83 1170.35,203.83 "/>
<path clip-path="url(#clip122)" d="M1364.86 192.084 L1364.86 1423.18 L1413.48 1423.18 L1413.48 192.084 L1364.86 192.084 L1364.86 192.084  Z" fill="#009af9" fill-rule="evenodd" fill-opacity="1"/>
<polyline clip-path="url(#clip122)" style="stroke:#000000; stroke-linecap:round; stroke-linejoin:round; stroke-width:4; stroke-opacity:1; fill:none" points="1364.86,192.084 1364.86,1423.18 1413.48,1423.18 1413.48,192.084 1364.86,192.084 "/>
<path clip-path="url(#clip122)" d="M1559.36 211.425 L1559.36 1423.18 L1607.98 1423.18 L1607.98 211.425 L1559.36 211.425 L1559.36 211.425  Z" fill="#009af9" fill-rule="evenodd" fill-opacity="1"/>
<polyline clip-path="url(#clip122)" style="stroke:#000000; stroke-linecap:round; stroke-linejoin:round; stroke-width:4; stroke-opacity:1; fill:none" points="1559.36,211.425 1559.36,1423.18 1607.98,1423.18 1607.98,211.425 1559.36,211.425 "/>
<path clip-path="url(#clip122)" d="M1753.86 206.261 L1753.86 1423.18 L1802.48 1423.18 L1802.48 206.261 L1753.86 206.261 L1753.86 206.261  Z" fill="#009af9" fill-rule="evenodd" fill-opacity="1"/>
<polyline clip-path="url(#clip122)" style="stroke:#000000; stroke-linecap:round; stroke-linejoin:round; stroke-width:4; stroke-opacity:1; fill:none" points="1753.86,206.261 1753.86,1423.18 1802.48,1423.18 1802.48,206.261 1753.86,206.261 "/>
<path clip-path="url(#clip122)" d="M1948.36 212.826 L1948.36 1423.18 L1996.98 1423.18 L1996.98 212.826 L1948.36 212.826 L1948.36 212.826  Z" fill="#009af9" fill-rule="evenodd" fill-opacity="1"/>
<polyline clip-path="url(#clip122)" style="stroke:#000000; stroke-linecap:round; stroke-linejoin:round; stroke-width:4; stroke-opacity:1; fill:none" points="1948.36,212.826 1948.36,1423.18 1996.98,1423.18 1996.98,212.826 1948.36,212.826 "/>
<path clip-path="url(#clip122)" d="M2142.86 234.907 L2142.86 1423.18 L2191.49 1423.18 L2191.49 234.907 L2142.86 234.907 L2142.86 234.907  Z" fill="#009af9" fill-rule="evenodd" fill-opacity="1"/>
<polyline clip-path="url(#clip122)" style="stroke:#000000; stroke-linecap:round; stroke-linejoin:round; stroke-width:4; stroke-opacity:1; fill:none" points="2142.86,234.907 2142.86,1423.18 2191.49,1423.18 2191.49,234.907 2142.86,234.907 "/>
<circle clip-path="url(#clip122)" style="fill:#009af9; stroke:none; fill-opacity:0" cx="416.662" cy="123.472" r="2"/>
<circle clip-path="url(#clip122)" style="fill:#009af9; stroke:none; fill-opacity:0" cx="611.163" cy="182.654" r="2"/>
<circle clip-path="url(#clip122)" style="fill:#009af9; stroke:none; fill-opacity:0" cx="805.664" cy="204.734" r="2"/>
<circle clip-path="url(#clip122)" style="fill:#009af9; stroke:none; fill-opacity:0" cx="1000.17" cy="205.615" r="2"/>
<circle clip-path="url(#clip122)" style="fill:#009af9; stroke:none; fill-opacity:0" cx="1194.67" cy="203.83" r="2"/>
<circle clip-path="url(#clip122)" style="fill:#009af9; stroke:none; fill-opacity:0" cx="1389.17" cy="192.084" r="2"/>
<circle clip-path="url(#clip122)" style="fill:#009af9; stroke:none; fill-opacity:0" cx="1583.67" cy="211.425" r="2"/>
<circle clip-path="url(#clip122)" style="fill:#009af9; stroke:none; fill-opacity:0" cx="1778.17" cy="206.261" r="2"/>
<circle clip-path="url(#clip122)" style="fill:#009af9; stroke:none; fill-opacity:0" cx="1972.67" cy="212.826" r="2"/>
<circle clip-path="url(#clip122)" style="fill:#009af9; stroke:none; fill-opacity:0" cx="2167.17" cy="234.907" r="2"/>
<path clip-path="url(#clip122)" d="M440.975 348.667 L440.975 1423.18 L489.6 1423.18 L489.6 348.667 L440.975 348.667 L440.975 348.667  Z" fill="#e26f46" fill-rule="evenodd" fill-opacity="1"/>
<polyline clip-path="url(#clip122)" style="stroke:#000000; stroke-linecap:round; stroke-linejoin:round; stroke-width:4; stroke-opacity:1; fill:none" points="440.975,348.667 440.975,1423.18 489.6,1423.18 489.6,348.667 440.975,348.667 "/>
<path clip-path="url(#clip122)" d="M635.476 410.751 L635.476 1423.18 L684.101 1423.18 L684.101 410.751 L635.476 410.751 L635.476 410.751  Z" fill="#e26f46" fill-rule="evenodd" fill-opacity="1"/>
<polyline clip-path="url(#clip122)" style="stroke:#000000; stroke-linecap:round; stroke-linejoin:round; stroke-width:4; stroke-opacity:1; fill:none" points="635.476,410.751 635.476,1423.18 684.101,1423.18 684.101,410.751 635.476,410.751 "/>
<path clip-path="url(#clip122)" d="M829.977 426.529 L829.977 1423.18 L878.602 1423.18 L878.602 426.529 L829.977 426.529 L829.977 426.529  Z" fill="#e26f46" fill-rule="evenodd" fill-opacity="1"/>
<polyline clip-path="url(#clip122)" style="stroke:#000000; stroke-linecap:round; stroke-linejoin:round; stroke-width:4; stroke-opacity:1; fill:none" points="829.977,426.529 829.977,1423.18 878.602,1423.18 878.602,426.529 829.977,426.529 "/>
<path clip-path="url(#clip122)" d="M1024.48 413.274 L1024.48 1423.18 L1073.1 1423.18 L1073.1 413.274 L1024.48 413.274 L1024.48 413.274  Z" fill="#e26f46" fill-rule="evenodd" fill-opacity="1"/>
<polyline clip-path="url(#clip122)" style="stroke:#000000; stroke-linecap:round; stroke-linejoin:round; stroke-width:4; stroke-opacity:1; fill:none" points="1024.48,413.274 1024.48,1423.18 1073.1,1423.18 1073.1,413.274 1024.48,413.274 "/>
<path clip-path="url(#clip122)" d="M1218.98 406.977 L1218.98 1423.18 L1267.6 1423.18 L1267.6 406.977 L1218.98 406.977 L1218.98 406.977  Z" fill="#e26f46" fill-rule="evenodd" fill-opacity="1"/>
<polyline clip-path="url(#clip122)" style="stroke:#000000; stroke-linecap:round; stroke-linejoin:round; stroke-width:4; stroke-opacity:1; fill:none" points="1218.98,406.977 1218.98,1423.18 1267.6,1423.18 1267.6,406.977 1218.98,406.977 "/>
<path clip-path="url(#clip122)" d="M1413.48 414.779 L1413.48 1423.18 L1462.11 1423.18 L1462.11 414.779 L1413.48 414.779 L1413.48 414.779  Z" fill="#e26f46" fill-rule="evenodd" fill-opacity="1"/>
<polyline clip-path="url(#clip122)" style="stroke:#000000; stroke-linecap:round; stroke-linejoin:round; stroke-width:4; stroke-opacity:1; fill:none" points="1413.48,414.779 1413.48,1423.18 1462.11,1423.18 1462.11,414.779 1413.48,414.779 "/>
<path clip-path="url(#clip122)" d="M1607.98 418.279 L1607.98 1423.18 L1656.61 1423.18 L1656.61 418.279 L1607.98 418.279 L1607.98 418.279  Z" fill="#e26f46" fill-rule="evenodd" fill-opacity="1"/>
<polyline clip-path="url(#clip122)" style="stroke:#000000; stroke-linecap:round; stroke-linejoin:round; stroke-width:4; stroke-opacity:1; fill:none" points="1607.98,418.279 1607.98,1423.18 1656.61,1423.18 1656.61,418.279 1607.98,418.279 "/>
<path clip-path="url(#clip122)" d="M1802.48 433.395 L1802.48 1423.18 L1851.11 1423.18 L1851.11 433.395 L1802.48 433.395 L1802.48 433.395  Z" fill="#e26f46" fill-rule="evenodd" fill-opacity="1"/>
<polyline clip-path="url(#clip122)" style="stroke:#000000; stroke-linecap:round; stroke-linejoin:round; stroke-width:4; stroke-opacity:1; fill:none" points="1802.48,433.395 1802.48,1423.18 1851.11,1423.18 1851.11,433.395 1802.48,433.395 "/>
<path clip-path="url(#clip122)" d="M1996.98 425.284 L1996.98 1423.18 L2045.61 1423.18 L2045.61 425.284 L1996.98 425.284 L1996.98 425.284  Z" fill="#e26f46" fill-rule="evenodd" fill-opacity="1"/>
<polyline clip-path="url(#clip122)" style="stroke:#000000; stroke-linecap:round; stroke-linejoin:round; stroke-width:4; stroke-opacity:1; fill:none" points="1996.98,425.284 1996.98,1423.18 2045.61,1423.18 2045.61,425.284 1996.98,425.284 "/>
<path clip-path="url(#clip122)" d="M2191.49 448.625 L2191.49 1423.18 L2240.11 1423.18 L2240.11 448.625 L2191.49 448.625 L2191.49 448.625  Z" fill="#e26f46" fill-rule="evenodd" fill-opacity="1"/>
<polyline clip-path="url(#clip122)" style="stroke:#000000; stroke-linecap:round; stroke-linejoin:round; stroke-width:4; stroke-opacity:1; fill:none" points="2191.49,448.625 2191.49,1423.18 2240.11,1423.18 2240.11,448.625 2191.49,448.625 "/>
<circle clip-path="url(#clip122)" style="fill:#e26f46; stroke:none; fill-opacity:0" cx="465.287" cy="348.667" r="2"/>
<circle clip-path="url(#clip122)" style="fill:#e26f46; stroke:none; fill-opacity:0" cx="659.788" cy="410.751" r="2"/>
<circle clip-path="url(#clip122)" style="fill:#e26f46; stroke:none; fill-opacity:0" cx="854.29" cy="426.529" r="2"/>
<circle clip-path="url(#clip122)" style="fill:#e26f46; stroke:none; fill-opacity:0" cx="1048.79" cy="413.274" r="2"/>
<circle clip-path="url(#clip122)" style="fill:#e26f46; stroke:none; fill-opacity:0" cx="1243.29" cy="406.977" r="2"/>
<circle clip-path="url(#clip122)" style="fill:#e26f46; stroke:none; fill-opacity:0" cx="1437.79" cy="414.779" r="2"/>
<circle clip-path="url(#clip122)" style="fill:#e26f46; stroke:none; fill-opacity:0" cx="1632.29" cy="418.279" r="2"/>
<circle clip-path="url(#clip122)" style="fill:#e26f46; stroke:none; fill-opacity:0" cx="1826.8" cy="433.395" r="2"/>
<circle clip-path="url(#clip122)" style="fill:#e26f46; stroke:none; fill-opacity:0" cx="2021.3" cy="425.284" r="2"/>
<circle clip-path="url(#clip122)" style="fill:#e26f46; stroke:none; fill-opacity:0" cx="2215.8" cy="448.625" r="2"/>
</svg>
