<?xml version="1.0" encoding="utf-8"?>
<svg xmlns="http://www.w3.org/2000/svg" xmlns:xlink="http://www.w3.org/1999/xlink" width="600" height="400" viewBox="0 0 2400 1600">
<defs>
  <clipPath id="clip010">
    <rect x="0" y="0" width="2400" height="1600"/>
  </clipPath>
</defs>
<path clip-path="url(#clip010)" d="M0 1600 L2400 1600 L2400 8.88178e-14 L0 8.88178e-14  Z" fill="#ffffff" fill-rule="evenodd" fill-opacity="1"/>
<defs>
  <clipPath id="clip011">
    <rect x="480" y="0" width="1681" height="1600"/>
  </clipPath>
</defs>
<path clip-path="url(#clip010)" d="M250.028 1423.18 L2352.76 1423.18 L2352.76 123.472 L250.028 123.472  Z" fill="#ffffff" fill-rule="evenodd" fill-opacity="1"/>
<defs>
  <clipPath id="clip012">
    <rect x="250" y="123" width="2104" height="1301"/>
  </clipPath>
</defs>
<polyline clip-path="url(#clip012)" style="stroke:#000000; stroke-linecap:round; stroke-linejoin:round; stroke-width:2; stroke-opacity:0.1; fill:none" points="413.607,1423.18 413.607,123.472 "/>
<polyline clip-path="url(#clip012)" style="stroke:#000000; stroke-linecap:round; stroke-linejoin:round; stroke-width:2; stroke-opacity:0.1; fill:none" points="610.893,1423.18 610.893,123.472 "/>
<polyline clip-path="url(#clip012)" style="stroke:#000000; stroke-linecap:round; stroke-linejoin:round; stroke-width:2; stroke-opacity:0.1; fill:none" points="808.178,1423.18 808.178,123.472 "/>
<polyline clip-path="url(#clip012)" style="stroke:#000000; stroke-linecap:round; stroke-linejoin:round; stroke-width:2; stroke-opacity:0.1; fill:none" points="1005.46,1423.18 1005.46,123.472 "/>
<polyline clip-path="url(#clip012)" style="stroke:#000000; stroke-linecap:round; stroke-linejoin:round; stroke-width:2; stroke-opacity:0.1; fill:none" points="1202.75,1423.18 1202.75,123.472 "/>
<polyline clip-path="url(#clip012)" style="stroke:#000000; stroke-linecap:round; stroke-linejoin:round; stroke-width:2; stroke-opacity:0.1; fill:none" points="1400.03,1423.18 1400.03,123.472 "/>
<polyline clip-path="url(#clip012)" style="stroke:#000000; stroke-linecap:round; stroke-linejoin:round; stroke-width:2; stroke-opacity:0.1; fill:none" points="1597.32,1423.18 1597.32,123.472 "/>
<polyline clip-path="url(#clip012)" style="stroke:#000000; stroke-linecap:round; stroke-linejoin:round; stroke-width:2; stroke-opacity:0.1; fill:none" points="1794.61,1423.18 1794.61,123.472 "/>
<polyline clip-path="url(#clip012)" style="stroke:#000000; stroke-linecap:round; stroke-linejoin:round; stroke-width:2; stroke-opacity:0.1; fill:none" points="1991.89,1423.18 1991.89,123.472 "/>
<polyline clip-path="url(#clip012)" style="stroke:#000000; stroke-linecap:round; stroke-linejoin:round; stroke-width:2; stroke-opacity:0.1; fill:none" points="2189.18,1423.18 2189.18,123.472 "/>
<polyline clip-path="url(#clip012)" style="stroke:#000000; stroke-linecap:round; stroke-linejoin:round; stroke-width:2; stroke-opacity:0.1; fill:none" points="250.028,1423.18 2352.76,1423.18 "/>
<polyline clip-path="url(#clip012)" style="stroke:#000000; stroke-linecap:round; stroke-linejoin:round; stroke-width:2; stroke-opacity:0.1; fill:none" points="250.028,1232.93 2352.76,1232.93 "/>
<polyline clip-path="url(#clip012)" style="stroke:#000000; stroke-linecap:round; stroke-linejoin:round; stroke-width:2; stroke-opacity:0.1; fill:none" points="250.028,1042.67 2352.76,1042.67 "/>
<polyline clip-path="url(#clip012)" style="stroke:#000000; stroke-linecap:round; stroke-linejoin:round; stroke-width:2; stroke-opacity:0.1; fill:none" points="250.028,852.419 2352.76,852.419 "/>
<polyline clip-path="url(#clip012)" style="stroke:#000000; stroke-linecap:round; stroke-linejoin:round; stroke-width:2; stroke-opacity:0.1; fill:none" points="250.028,662.165 2352.76,662.165 "/>
<polyline clip-path="url(#clip012)" style="stroke:#000000; stroke-linecap:round; stroke-linejoin:round; stroke-width:2; stroke-opacity:0.1; fill:none" points="250.028,471.912 2352.76,471.912 "/>
<polyline clip-path="url(#clip012)" style="stroke:#000000; stroke-linecap:round; stroke-linejoin:round; stroke-width:2; stroke-opacity:0.1; fill:none" points="250.028,281.658 2352.76,281.658 "/>
<polyline clip-path="url(#clip010)" style="stroke:#000000; stroke-linecap:round; stroke-linejoin:round; stroke-width:4; stroke-opacity:1; fill:none" points="250.028,1423.18 2352.76,1423.18 "/>
<polyline clip-path="url(#clip010)" style="stroke:#000000; stroke-linecap:round; stroke-linejoin:round; stroke-width:4; stroke-opacity:1; fill:none" points="413.607,1423.18 413.607,1404.28 "/>
<polyline clip-path="url(#clip010)" style="stroke:#000000; stroke-linecap:round; stroke-linejoin:round; stroke-width:4; stroke-opacity:1; fill:none" points="610.893,1423.18 610.893,1404.28 "/>
<polyline clip-path="url(#clip010)" style="stroke:#000000; stroke-linecap:round; stroke-linejoin:round; stroke-width:4; stroke-opacity:1; fill:none" points="808.178,1423.18 808.178,1404.28 "/>
<polyline clip-path="url(#clip010)" style="stroke:#000000; stroke-linecap:round; stroke-linejoin:round; stroke-width:4; stroke-opacity:1; fill:none" points="1005.46,1423.18 1005.46,1404.28 "/>
<polyline clip-path="url(#clip010)" style="stroke:#000000; stroke-linecap:round; stroke-linejoin:round; stroke-width:4; stroke-opacity:1; fill:none" points="1202.75,1423.18 1202.75,1404.28 "/>
<polyline clip-path="url(#clip010)" style="stroke:#000000; stroke-linecap:round; stroke-linejoin:round; stroke-width:4; stroke-opacity:1; fill:none" points="1400.03,1423.18 1400.03,1404.28 "/>
<polyline clip-path="url(#clip010)" style="stroke:#000000; stroke-linecap:round; stroke-linejoin:round; stroke-width:4; stroke-opacity:1; fill:none" points="1597.32,1423.18 1597.32,1404.28 "/>
<polyline clip-path="url(#clip010)" style="stroke:#000000; stroke-linecap:round; stroke-linejoin:round; stroke-width:4; stroke-opacity:1; fill:none" points="1794.61,1423.18 1794.61,1404.28 "/>
<polyline clip-path="url(#clip010)" style="stroke:#000000; stroke-linecap:round; stroke-linejoin:round; stroke-width:4; stroke-opacity:1; fill:none" points="1991.89,1423.18 1991.89,1404.28 "/>
<polyline clip-path="url(#clip010)" style="stroke:#000000; stroke-linecap:round; stroke-linejoin:round; stroke-width:4; stroke-opacity:1; fill:none" points="2189.18,1423.18 2189.18,1404.28 "/>
<path clip-path="url(#clip010)" d="M389.233 1484.86 L389.233 1480.6 Q390.992 1481.44 392.797 1481.88 Q394.603 1482.32 396.339 1482.32 Q400.969 1482.32 403.399 1479.21 Q405.853 1476.09 406.2 1469.75 Q404.857 1471.74 402.797 1472.8 Q400.737 1473.87 398.237 1473.87 Q393.052 1473.87 390.02 1470.74 Q387.01 1467.59 387.01 1462.15 Q387.01 1456.83 390.158 1453.61 Q393.307 1450.39 398.538 1450.39 Q404.533 1450.39 407.681 1455 Q410.853 1459.58 410.853 1468.33 Q410.853 1476.51 406.964 1481.39 Q403.098 1486.25 396.547 1486.25 Q394.788 1486.25 392.983 1485.9 Q391.177 1485.56 389.233 1484.86 M398.538 1470.21 Q401.686 1470.21 403.515 1468.06 Q405.367 1465.9 405.367 1462.15 Q405.367 1458.43 403.515 1456.27 Q401.686 1454.1 398.538 1454.1 Q395.39 1454.1 393.538 1456.27 Q391.709 1458.43 391.709 1462.15 Q391.709 1465.9 393.538 1468.06 Q395.39 1470.21 398.538 1470.21 Z" fill="#000000" fill-rule="nonzero" fill-opacity="1" /><path clip-path="url(#clip010)" d="M419.302 1451.02 L437.658 1451.02 L437.658 1454.96 L423.584 1454.96 L423.584 1463.43 Q424.603 1463.08 425.621 1462.92 Q426.64 1462.73 427.658 1462.73 Q433.445 1462.73 436.825 1465.9 Q440.204 1469.08 440.204 1474.49 Q440.204 1480.07 436.732 1483.17 Q433.26 1486.25 426.941 1486.25 Q424.765 1486.25 422.496 1485.88 Q420.251 1485.51 417.843 1484.77 L417.843 1480.07 Q419.927 1481.2 422.149 1481.76 Q424.371 1482.32 426.848 1482.32 Q430.853 1482.32 433.191 1480.21 Q435.529 1478.1 435.529 1474.49 Q435.529 1470.88 433.191 1468.77 Q430.853 1466.67 426.848 1466.67 Q424.973 1466.67 423.098 1467.08 Q421.246 1467.5 419.302 1468.38 L419.302 1451.02 Z" fill="#000000" fill-rule="nonzero" fill-opacity="1" /><path clip-path="url(#clip010)" d="M596.263 1469.17 Q592.93 1469.17 591.009 1470.95 Q589.111 1472.73 589.111 1475.86 Q589.111 1478.98 591.009 1480.77 Q592.93 1482.55 596.263 1482.55 Q599.597 1482.55 601.518 1480.77 Q603.439 1478.96 603.439 1475.86 Q603.439 1472.73 601.518 1470.95 Q599.62 1469.17 596.263 1469.17 M591.587 1467.18 Q588.578 1466.44 586.888 1464.38 Q585.222 1462.32 585.222 1459.35 Q585.222 1455.21 588.162 1452.8 Q591.124 1450.39 596.263 1450.39 Q601.425 1450.39 604.365 1452.8 Q607.305 1455.21 607.305 1459.35 Q607.305 1462.32 605.615 1464.38 Q603.948 1466.44 600.962 1467.18 Q604.342 1467.96 606.217 1470.26 Q608.115 1472.55 608.115 1475.86 Q608.115 1480.88 605.036 1483.57 Q601.981 1486.25 596.263 1486.25 Q590.546 1486.25 587.467 1483.57 Q584.412 1480.88 584.412 1475.86 Q584.412 1472.55 586.31 1470.26 Q588.208 1467.96 591.587 1467.18 M589.874 1459.79 Q589.874 1462.48 591.541 1463.98 Q593.231 1465.49 596.263 1465.49 Q599.273 1465.49 600.962 1463.98 Q602.675 1462.48 602.675 1459.79 Q602.675 1457.11 600.962 1455.6 Q599.273 1454.1 596.263 1454.1 Q593.231 1454.1 591.541 1455.6 Q589.874 1457.11 589.874 1459.79 Z" fill="#000000" fill-rule="nonzero" fill-opacity="1" /><path clip-path="url(#clip010)" d="M616.472 1451.02 L634.828 1451.02 L634.828 1454.96 L620.754 1454.96 L620.754 1463.43 Q621.772 1463.08 622.791 1462.92 Q623.809 1462.73 624.828 1462.73 Q630.615 1462.73 633.995 1465.9 Q637.374 1469.08 637.374 1474.49 Q637.374 1480.07 633.902 1483.17 Q630.43 1486.25 624.11 1486.25 Q621.934 1486.25 619.666 1485.88 Q617.421 1485.51 615.013 1484.77 L615.013 1480.07 Q617.097 1481.2 619.319 1481.76 Q621.541 1482.32 624.018 1482.32 Q628.022 1482.32 630.36 1480.21 Q632.698 1478.1 632.698 1474.49 Q632.698 1470.88 630.36 1468.77 Q628.022 1466.67 624.018 1466.67 Q622.143 1466.67 620.268 1467.08 Q618.416 1467.5 616.472 1468.38 L616.472 1451.02 Z" fill="#000000" fill-rule="nonzero" fill-opacity="1" /><path clip-path="url(#clip010)" d="M782.033 1451.02 L804.255 1451.02 L804.255 1453.01 L791.709 1485.58 L786.824 1485.58 L798.63 1454.96 L782.033 1454.96 L782.033 1451.02 Z" fill="#000000" fill-rule="nonzero" fill-opacity="1" /><path clip-path="url(#clip010)" d="M813.421 1451.02 L831.778 1451.02 L831.778 1454.96 L817.704 1454.96 L817.704 1463.43 Q818.722 1463.08 819.741 1462.92 Q820.759 1462.73 821.778 1462.73 Q827.565 1462.73 830.944 1465.9 Q834.324 1469.08 834.324 1474.49 Q834.324 1480.07 830.852 1483.17 Q827.38 1486.25 821.06 1486.25 Q818.884 1486.25 816.616 1485.88 Q814.37 1485.51 811.963 1484.77 L811.963 1480.07 Q814.046 1481.2 816.269 1481.76 Q818.491 1482.32 820.968 1482.32 Q824.972 1482.32 827.31 1480.21 Q829.648 1478.1 829.648 1474.49 Q829.648 1470.88 827.31 1468.77 Q824.972 1466.67 820.968 1466.67 Q819.093 1466.67 817.218 1467.08 Q815.366 1467.5 813.421 1468.38 L813.421 1451.02 Z" fill="#000000" fill-rule="nonzero" fill-opacity="1" /><path clip-path="url(#clip010)" d="M991.367 1466.44 Q988.219 1466.44 986.367 1468.59 Q984.538 1470.74 984.538 1474.49 Q984.538 1478.22 986.367 1480.39 Q988.219 1482.55 991.367 1482.55 Q994.515 1482.55 996.343 1480.39 Q998.195 1478.22 998.195 1474.49 Q998.195 1470.74 996.343 1468.59 Q994.515 1466.44 991.367 1466.44 M1000.65 1451.78 L1000.65 1456.04 Q998.89 1455.21 997.084 1454.77 Q995.302 1454.33 993.543 1454.33 Q988.913 1454.33 986.459 1457.45 Q984.029 1460.58 983.682 1466.9 Q985.047 1464.89 987.107 1463.82 Q989.168 1462.73 991.644 1462.73 Q996.853 1462.73 999.862 1465.9 Q1002.89 1469.05 1002.89 1474.49 Q1002.89 1479.82 999.746 1483.03 Q996.598 1486.25 991.367 1486.25 Q985.371 1486.25 982.2 1481.67 Q979.029 1477.06 979.029 1468.33 Q979.029 1460.14 982.918 1455.28 Q986.807 1450.39 993.357 1450.39 Q995.117 1450.39 996.899 1450.74 Q998.705 1451.09 1000.65 1451.78 Z" fill="#000000" fill-rule="nonzero" fill-opacity="1" /><path clip-path="url(#clip010)" d="M1011 1451.02 L1029.35 1451.02 L1029.35 1454.96 L1015.28 1454.96 L1015.28 1463.43 Q1016.3 1463.08 1017.32 1462.92 Q1018.33 1462.73 1019.35 1462.73 Q1025.14 1462.73 1028.52 1465.9 Q1031.9 1469.08 1031.9 1474.49 Q1031.9 1480.07 1028.43 1483.17 Q1024.95 1486.25 1018.64 1486.25 Q1016.46 1486.25 1014.19 1485.88 Q1011.95 1485.51 1009.54 1484.77 L1009.54 1480.07 Q1011.62 1481.2 1013.84 1481.76 Q1016.07 1482.32 1018.54 1482.32 Q1022.55 1482.32 1024.89 1480.21 Q1027.22 1478.1 1027.22 1474.49 Q1027.22 1470.88 1024.89 1468.77 Q1022.55 1466.67 1018.54 1466.67 Q1016.67 1466.67 1014.79 1467.08 Q1012.94 1467.5 1011 1468.38 L1011 1451.02 Z" fill="#000000" fill-rule="nonzero" fill-opacity="1" /><path clip-path="url(#clip010)" d="M1177.95 1451.02 L1196.3 1451.02 L1196.3 1454.96 L1182.23 1454.96 L1182.23 1463.43 Q1183.25 1463.08 1184.27 1462.92 Q1185.28 1462.73 1186.3 1462.73 Q1192.09 1462.73 1195.47 1465.9 Q1198.85 1469.08 1198.85 1474.49 Q1198.85 1480.07 1195.38 1483.17 Q1191.9 1486.25 1185.59 1486.25 Q1183.41 1486.25 1181.14 1485.88 Q1178.9 1485.51 1176.49 1484.77 L1176.49 1480.07 Q1178.57 1481.2 1180.79 1481.76 Q1183.02 1482.32 1185.49 1482.32 Q1189.5 1482.32 1191.83 1480.21 Q1194.17 1478.1 1194.17 1474.49 Q1194.17 1470.88 1191.83 1468.77 Q1189.5 1466.67 1185.49 1466.67 Q1183.62 1466.67 1181.74 1467.08 Q1179.89 1467.5 1177.95 1468.38 L1177.95 1451.02 Z" fill="#000000" fill-rule="nonzero" fill-opacity="1" /><path clip-path="url(#clip010)" d="M1208.11 1451.02 L1226.46 1451.02 L1226.46 1454.96 L1212.39 1454.96 L1212.39 1463.43 Q1213.41 1463.08 1214.43 1462.92 Q1215.45 1462.73 1216.46 1462.73 Q1222.25 1462.73 1225.63 1465.9 Q1229.01 1469.08 1229.01 1474.49 Q1229.01 1480.07 1225.54 1483.17 Q1222.07 1486.25 1215.75 1486.25 Q1213.57 1486.25 1211.3 1485.88 Q1209.06 1485.51 1206.65 1484.77 L1206.65 1480.07 Q1208.73 1481.2 1210.96 1481.76 Q1213.18 1482.32 1215.65 1482.32 Q1219.66 1482.32 1222 1480.21 Q1224.33 1478.1 1224.33 1474.49 Q1224.33 1470.88 1222 1468.77 Q1219.66 1466.67 1215.65 1466.67 Q1213.78 1466.67 1211.9 1467.08 Q1210.05 1467.5 1208.11 1468.38 L1208.11 1451.02 Z" fill="#000000" fill-rule="nonzero" fill-opacity="1" /><path clip-path="url(#clip010)" d="M1388.7 1455.09 L1376.9 1473.54 L1388.7 1473.54 L1388.7 1455.09 M1387.48 1451.02 L1393.36 1451.02 L1393.36 1473.54 L1398.29 1473.54 L1398.29 1477.43 L1393.36 1477.43 L1393.36 1485.58 L1388.7 1485.58 L1388.7 1477.43 L1373.1 1477.43 L1373.1 1472.92 L1387.48 1451.02 Z" fill="#000000" fill-rule="nonzero" fill-opacity="1" /><path clip-path="url(#clip010)" d="M1406.06 1451.02 L1424.42 1451.02 L1424.42 1454.96 L1410.35 1454.96 L1410.35 1463.43 Q1411.37 1463.08 1412.38 1462.92 Q1413.4 1462.73 1414.42 1462.73 Q1420.21 1462.73 1423.59 1465.9 Q1426.97 1469.08 1426.97 1474.49 Q1426.97 1480.07 1423.5 1483.17 Q1420.02 1486.25 1413.7 1486.25 Q1411.53 1486.25 1409.26 1485.88 Q1407.01 1485.51 1404.61 1484.77 L1404.61 1480.07 Q1406.69 1481.2 1408.91 1481.76 Q1411.13 1482.32 1413.61 1482.32 Q1417.62 1482.32 1419.95 1480.21 Q1422.29 1478.1 1422.29 1474.49 Q1422.29 1470.88 1419.95 1468.77 Q1417.62 1466.67 1413.61 1466.67 Q1411.74 1466.67 1409.86 1467.08 Q1408.01 1467.5 1406.06 1468.38 L1406.06 1451.02 Z" fill="#000000" fill-rule="nonzero" fill-opacity="1" /><path clip-path="url(#clip010)" d="M1586.66 1466.95 Q1590.02 1467.66 1591.89 1469.93 Q1593.79 1472.2 1593.79 1475.53 Q1593.79 1480.65 1590.27 1483.45 Q1586.75 1486.25 1580.27 1486.25 Q1578.1 1486.25 1575.78 1485.81 Q1573.49 1485.39 1571.04 1484.54 L1571.04 1480.02 Q1572.98 1481.16 1575.29 1481.74 Q1577.61 1482.32 1580.13 1482.32 Q1584.53 1482.32 1586.82 1480.58 Q1589.14 1478.84 1589.14 1475.53 Q1589.14 1472.48 1586.98 1470.77 Q1584.86 1469.03 1581.04 1469.03 L1577.01 1469.03 L1577.01 1465.19 L1581.22 1465.19 Q1584.67 1465.19 1586.5 1463.82 Q1588.33 1462.43 1588.33 1459.84 Q1588.33 1457.18 1586.43 1455.77 Q1584.55 1454.33 1581.04 1454.33 Q1579.11 1454.33 1576.92 1454.75 Q1574.72 1455.16 1572.08 1456.04 L1572.08 1451.88 Q1574.74 1451.14 1577.05 1450.77 Q1579.39 1450.39 1581.45 1450.39 Q1586.78 1450.39 1589.88 1452.83 Q1592.98 1455.23 1592.98 1459.35 Q1592.98 1462.22 1591.34 1464.21 Q1589.69 1466.18 1586.66 1466.95 Z" fill="#000000" fill-rule="nonzero" fill-opacity="1" /><path clip-path="url(#clip010)" d="M1602.7 1451.02 L1621.06 1451.02 L1621.06 1454.96 L1606.98 1454.96 L1606.98 1463.43 Q1608 1463.08 1609.02 1462.92 Q1610.04 1462.73 1611.06 1462.73 Q1616.85 1462.73 1620.23 1465.9 Q1623.6 1469.08 1623.6 1474.49 Q1623.6 1480.07 1620.13 1483.17 Q1616.66 1486.25 1610.34 1486.25 Q1608.17 1486.25 1605.9 1485.88 Q1603.65 1485.51 1601.24 1484.77 L1601.24 1480.07 Q1603.33 1481.2 1605.55 1481.76 Q1607.77 1482.32 1610.25 1482.32 Q1614.25 1482.32 1616.59 1480.21 Q1618.93 1478.1 1618.93 1474.49 Q1618.93 1470.88 1616.59 1468.77 Q1614.25 1466.67 1610.25 1466.67 Q1608.37 1466.67 1606.5 1467.08 Q1604.65 1467.5 1602.7 1468.38 L1602.7 1451.02 Z" fill="#000000" fill-rule="nonzero" fill-opacity="1" /><path clip-path="url(#clip010)" d="M1773.88 1481.64 L1790.2 1481.64 L1790.2 1485.58 L1768.25 1485.58 L1768.25 1481.64 Q1770.91 1478.89 1775.5 1474.26 Q1780.1 1469.61 1781.28 1468.27 Q1783.53 1465.74 1784.41 1464.01 Q1785.31 1462.25 1785.31 1460.56 Q1785.31 1457.8 1783.37 1456.07 Q1781.45 1454.33 1778.34 1454.33 Q1776.15 1454.33 1773.69 1455.09 Q1771.26 1455.86 1768.48 1457.41 L1768.48 1452.69 Q1771.31 1451.55 1773.76 1450.97 Q1776.21 1450.39 1778.25 1450.39 Q1783.62 1450.39 1786.82 1453.08 Q1790.01 1455.77 1790.01 1460.26 Q1790.01 1462.39 1789.2 1464.31 Q1788.41 1466.2 1786.31 1468.8 Q1785.73 1469.47 1782.63 1472.69 Q1779.52 1475.88 1773.88 1481.64 Z" fill="#000000" fill-rule="nonzero" fill-opacity="1" /><path clip-path="url(#clip010)" d="M1800.06 1451.02 L1818.41 1451.02 L1818.41 1454.96 L1804.34 1454.96 L1804.34 1463.43 Q1805.36 1463.08 1806.38 1462.92 Q1807.39 1462.73 1808.41 1462.73 Q1814.2 1462.73 1817.58 1465.9 Q1820.96 1469.08 1820.96 1474.49 Q1820.96 1480.07 1817.49 1483.17 Q1814.02 1486.25 1807.7 1486.25 Q1805.52 1486.25 1803.25 1485.88 Q1801.01 1485.51 1798.6 1484.77 L1798.6 1480.07 Q1800.68 1481.2 1802.9 1481.76 Q1805.13 1482.32 1807.6 1482.32 Q1811.61 1482.32 1813.95 1480.21 Q1816.28 1478.1 1816.28 1474.49 Q1816.28 1470.88 1813.95 1468.77 Q1811.61 1466.67 1807.6 1466.67 Q1805.73 1466.67 1803.85 1467.08 Q1802 1467.5 1800.06 1468.38 L1800.06 1451.02 Z" fill="#000000" fill-rule="nonzero" fill-opacity="1" /><path clip-path="url(#clip010)" d="M1967.08 1481.64 L1974.72 1481.64 L1974.72 1455.28 L1966.41 1456.95 L1966.41 1452.69 L1974.67 1451.02 L1979.34 1451.02 L1979.34 1481.64 L1986.98 1481.64 L1986.98 1485.58 L1967.08 1485.58 L1967.08 1481.64 Z" fill="#000000" fill-rule="nonzero" fill-opacity="1" /><path clip-path="url(#clip010)" d="M1996.47 1451.02 L2014.83 1451.02 L2014.83 1454.96 L2000.76 1454.96 L2000.76 1463.43 Q2001.78 1463.08 2002.79 1462.92 Q2003.81 1462.73 2004.83 1462.73 Q2010.62 1462.73 2014 1465.9 Q2017.38 1469.08 2017.38 1474.49 Q2017.38 1480.07 2013.9 1483.17 Q2010.43 1486.25 2004.11 1486.25 Q2001.94 1486.25 1999.67 1485.88 Q1997.42 1485.51 1995.02 1484.77 L1995.02 1480.07 Q1997.1 1481.2 1999.32 1481.76 Q2001.54 1482.32 2004.02 1482.32 Q2008.03 1482.32 2010.36 1480.21 Q2012.7 1478.1 2012.7 1474.49 Q2012.7 1470.88 2010.36 1468.77 Q2008.03 1466.67 2004.02 1466.67 Q2002.15 1466.67 2000.27 1467.08 Q1998.42 1467.5 1996.47 1468.38 L1996.47 1451.02 Z" fill="#000000" fill-rule="nonzero" fill-opacity="1" /><path clip-path="url(#clip010)" d="M2179.45 1451.02 L2197.81 1451.02 L2197.81 1454.96 L2183.74 1454.96 L2183.74 1463.43 Q2184.76 1463.08 2185.77 1462.92 Q2186.79 1462.73 2187.81 1462.73 Q2193.6 1462.73 2196.98 1465.9 Q2200.36 1469.08 2200.36 1474.49 Q2200.36 1480.07 2196.88 1483.17 Q2193.41 1486.25 2187.09 1486.25 Q2184.92 1486.25 2182.65 1485.88 Q2180.4 1485.51 2178 1484.77 L2178 1480.07 Q2180.08 1481.2 2182.3 1481.76 Q2184.52 1482.32 2187 1482.32 Q2191.01 1482.32 2193.34 1480.21 Q2195.68 1478.1 2195.68 1474.49 Q2195.68 1470.88 2193.34 1468.77 Q2191.01 1466.67 2187 1466.67 Q2185.13 1466.67 2183.25 1467.08 Q2181.4 1467.5 2179.45 1468.38 L2179.45 1451.02 Z" fill="#000000" fill-rule="nonzero" fill-opacity="1" /><path clip-path="url(#clip010)" d="M1099.68 1547.13 Q1096.91 1547.13 1095.32 1549.49 Q1093.76 1551.84 1093.76 1556.04 Q1093.76 1560.18 1095.32 1562.57 Q1096.91 1564.92 1099.68 1564.92 Q1102.38 1564.92 1103.94 1562.57 Q1105.54 1560.18 1105.54 1556.04 Q1105.54 1551.87 1103.94 1549.52 Q1102.38 1547.13 1099.68 1547.13 M1099.68 1543.09 Q1104.71 1543.09 1107.67 1546.59 Q1110.63 1550.09 1110.63 1556.04 Q1110.63 1562 1107.64 1565.5 Q1104.68 1568.97 1099.68 1568.97 Q1094.59 1568.97 1091.63 1565.5 Q1088.67 1562 1088.67 1556.04 Q1088.67 1550.06 1091.63 1546.59 Q1094.62 1543.09 1099.68 1543.09 M1066.83 1523.71 Q1064.09 1523.71 1062.5 1526.09 Q1060.94 1528.45 1060.94 1532.59 Q1060.94 1536.79 1062.5 1539.14 Q1064.06 1541.5 1066.83 1541.5 Q1069.6 1541.5 1071.16 1539.14 Q1072.75 1536.79 1072.75 1532.59 Q1072.75 1528.48 1071.16 1526.09 Q1069.57 1523.71 1066.83 1523.71 M1095.57 1519.66 L1100.67 1519.66 L1070.94 1568.97 L1065.84 1568.97 L1095.57 1519.66 M1066.83 1519.66 Q1071.86 1519.66 1074.85 1523.17 Q1077.84 1526.63 1077.84 1532.59 Q1077.84 1538.6 1074.85 1542.07 Q1071.89 1545.54 1066.83 1545.54 Q1061.77 1545.54 1058.81 1542.07 Q1055.88 1538.57 1055.88 1532.59 Q1055.88 1526.67 1058.84 1523.17 Q1061.8 1519.66 1066.83 1519.66 Z" fill="#000000" fill-rule="nonzero" fill-opacity="1" /><path clip-path="url(#clip010)" d="M1164.55 1537.81 L1164.55 1518.52 L1170.4 1518.52 L1170.4 1568.04 L1164.55 1568.04 L1164.55 1562.7 Q1162.7 1565.88 1159.87 1567.44 Q1157.07 1568.97 1153.12 1568.97 Q1146.66 1568.97 1142.58 1563.81 Q1138.54 1558.65 1138.54 1550.25 Q1138.54 1541.85 1142.58 1536.69 Q1146.66 1531.54 1153.12 1531.54 Q1157.07 1531.54 1159.87 1533.1 Q1162.7 1534.62 1164.55 1537.81 M1144.59 1550.25 Q1144.59 1556.71 1147.23 1560.4 Q1149.9 1564.07 1154.55 1564.07 Q1159.2 1564.07 1161.87 1560.4 Q1164.55 1556.71 1164.55 1550.25 Q1164.55 1543.79 1161.87 1540.13 Q1159.2 1536.44 1154.55 1536.44 Q1149.9 1536.44 1147.23 1540.13 Q1144.59 1543.79 1144.59 1550.25 Z" fill="#000000" fill-rule="nonzero" fill-opacity="1" /><path clip-path="url(#clip010)" d="M1198.67 1550.12 Q1191.57 1550.12 1188.83 1551.75 Q1186.09 1553.37 1186.09 1557.29 Q1186.09 1560.4 1188.13 1562.25 Q1190.2 1564.07 1193.73 1564.07 Q1198.6 1564.07 1201.53 1560.63 Q1204.49 1557.16 1204.49 1551.43 L1204.49 1550.12 L1198.67 1550.12 M1210.35 1547.71 L1210.35 1568.04 L1204.49 1568.04 L1204.49 1562.63 Q1202.48 1565.88 1199.49 1567.44 Q1196.5 1568.97 1192.17 1568.97 Q1186.7 1568.97 1183.45 1565.91 Q1180.24 1562.82 1180.24 1557.67 Q1180.24 1551.65 1184.25 1548.6 Q1188.29 1545.54 1196.28 1545.54 L1204.49 1545.54 L1204.49 1544.97 Q1204.49 1540.93 1201.82 1538.73 Q1199.17 1536.5 1194.37 1536.5 Q1191.31 1536.5 1188.42 1537.23 Q1185.52 1537.97 1182.85 1539.43 L1182.85 1534.02 Q1186.06 1532.78 1189.09 1532.17 Q1192.11 1531.54 1194.97 1531.54 Q1202.71 1531.54 1206.53 1535.55 Q1210.35 1539.56 1210.35 1547.71 Z" fill="#000000" fill-rule="nonzero" fill-opacity="1" /><path clip-path="url(#clip010)" d="M1228.2 1522.27 L1228.2 1532.4 L1240.27 1532.4 L1240.27 1536.95 L1228.2 1536.95 L1228.2 1556.3 Q1228.2 1560.66 1229.38 1561.9 Q1230.59 1563.14 1234.25 1563.14 L1240.27 1563.14 L1240.27 1568.04 L1234.25 1568.04 Q1227.47 1568.04 1224.89 1565.53 Q1222.31 1562.98 1222.31 1556.3 L1222.31 1536.95 L1218.02 1536.95 L1218.02 1532.4 L1222.31 1532.4 L1222.31 1522.27 L1228.2 1522.27 Z" fill="#000000" fill-rule="nonzero" fill-opacity="1" /><path clip-path="url(#clip010)" d="M1264.17 1550.12 Q1257.07 1550.12 1254.33 1551.75 Q1251.6 1553.37 1251.6 1557.29 Q1251.6 1560.4 1253.63 1562.25 Q1255.7 1564.07 1259.24 1564.07 Q1264.1 1564.07 1267.03 1560.63 Q1269.99 1557.16 1269.99 1551.43 L1269.99 1550.12 L1264.17 1550.12 M1275.85 1547.71 L1275.85 1568.04 L1269.99 1568.04 L1269.99 1562.63 Q1267.99 1565.88 1265 1567.44 Q1262 1568.97 1257.68 1568.97 Q1252.2 1568.97 1248.95 1565.91 Q1245.74 1562.82 1245.74 1557.67 Q1245.74 1551.65 1249.75 1548.6 Q1253.79 1545.54 1261.78 1545.54 L1269.99 1545.54 L1269.99 1544.97 Q1269.99 1540.93 1267.32 1538.73 Q1264.68 1536.5 1259.87 1536.5 Q1256.82 1536.5 1253.92 1537.23 Q1251.02 1537.97 1248.35 1539.43 L1248.35 1534.02 Q1251.56 1532.78 1254.59 1532.17 Q1257.61 1531.54 1260.48 1531.54 Q1268.21 1531.54 1272.03 1535.55 Q1275.85 1539.56 1275.85 1547.71 Z" fill="#000000" fill-rule="nonzero" fill-opacity="1" /><path clip-path="url(#clip010)" d="M1336.39 1539.24 Q1338.58 1535.29 1341.64 1533.41 Q1344.69 1531.54 1348.83 1531.54 Q1354.4 1531.54 1357.43 1535.45 Q1360.45 1539.33 1360.45 1546.53 L1360.45 1568.04 L1354.56 1568.04 L1354.56 1546.72 Q1354.56 1541.59 1352.75 1539.11 Q1350.93 1536.63 1347.21 1536.63 Q1342.66 1536.63 1340.02 1539.65 Q1337.37 1542.68 1337.37 1547.9 L1337.37 1568.04 L1331.49 1568.04 L1331.49 1546.72 Q1331.49 1541.56 1329.67 1539.11 Q1327.86 1536.63 1324.07 1536.63 Q1319.58 1536.63 1316.94 1539.68 Q1314.3 1542.71 1314.3 1547.9 L1314.3 1568.04 L1308.41 1568.04 L1308.41 1532.4 L1314.3 1532.4 L1314.3 1537.93 Q1316.3 1534.66 1319.1 1533.1 Q1321.91 1531.54 1325.76 1531.54 Q1329.64 1531.54 1332.35 1533.51 Q1335.08 1535.48 1336.39 1539.24 Z" fill="#000000" fill-rule="nonzero" fill-opacity="1" /><path clip-path="url(#clip010)" d="M1372.13 1532.4 L1377.99 1532.4 L1377.99 1568.04 L1372.13 1568.04 L1372.13 1532.4 M1372.13 1518.52 L1377.99 1518.52 L1377.99 1525.93 L1372.13 1525.93 L1372.13 1518.52 Z" fill="#000000" fill-rule="nonzero" fill-opacity="1" /><path clip-path="url(#clip010)" d="M1412.97 1533.45 L1412.97 1538.98 Q1410.48 1537.71 1407.81 1537.07 Q1405.14 1536.44 1402.27 1536.44 Q1397.91 1536.44 1395.72 1537.77 Q1393.55 1539.11 1393.55 1541.79 Q1393.55 1543.82 1395.11 1545 Q1396.67 1546.15 1401.38 1547.2 L1403.39 1547.64 Q1409.62 1548.98 1412.23 1551.43 Q1414.88 1553.85 1414.88 1558.21 Q1414.88 1563.17 1410.93 1566.07 Q1407.02 1568.97 1400.14 1568.97 Q1397.28 1568.97 1394.16 1568.39 Q1391.07 1567.85 1387.63 1566.74 L1387.63 1560.69 Q1390.88 1562.38 1394.03 1563.24 Q1397.18 1564.07 1400.27 1564.07 Q1404.41 1564.07 1406.63 1562.66 Q1408.86 1561.23 1408.86 1558.65 Q1408.86 1556.27 1407.24 1554.99 Q1405.65 1553.72 1400.2 1552.54 L1398.17 1552.07 Q1392.72 1550.92 1390.31 1548.56 Q1387.89 1546.18 1387.89 1542.04 Q1387.89 1537.01 1391.45 1534.27 Q1395.02 1531.54 1401.57 1531.54 Q1404.82 1531.54 1407.68 1532.01 Q1410.55 1532.49 1412.97 1533.45 Z" fill="#000000" fill-rule="nonzero" fill-opacity="1" /><path clip-path="url(#clip010)" d="M1446.93 1533.45 L1446.93 1538.98 Q1444.45 1537.71 1441.77 1537.07 Q1439.1 1536.44 1436.23 1536.44 Q1431.87 1536.44 1429.68 1537.77 Q1427.51 1539.11 1427.51 1541.79 Q1427.51 1543.82 1429.07 1545 Q1430.63 1546.15 1435.34 1547.2 L1437.35 1547.64 Q1443.59 1548.98 1446.2 1551.43 Q1448.84 1553.85 1448.84 1558.21 Q1448.84 1563.17 1444.89 1566.07 Q1440.98 1568.97 1434.1 1568.97 Q1431.24 1568.97 1428.12 1568.39 Q1425.03 1567.85 1421.59 1566.74 L1421.59 1560.69 Q1424.84 1562.38 1427.99 1563.24 Q1431.14 1564.07 1434.23 1564.07 Q1438.37 1564.07 1440.59 1562.66 Q1442.82 1561.23 1442.82 1558.65 Q1442.82 1556.27 1441.2 1554.99 Q1439.61 1553.72 1434.16 1552.54 L1432.13 1552.07 Q1426.69 1550.92 1424.27 1548.56 Q1421.85 1546.18 1421.85 1542.04 Q1421.85 1537.01 1425.41 1534.27 Q1428.98 1531.54 1435.53 1531.54 Q1438.78 1531.54 1441.64 1532.01 Q1444.51 1532.49 1446.93 1533.45 Z" fill="#000000" fill-rule="nonzero" fill-opacity="1" /><path clip-path="url(#clip010)" d="M1458.16 1532.4 L1464.02 1532.4 L1464.02 1568.04 L1458.16 1568.04 L1458.16 1532.4 M1458.16 1518.52 L1464.02 1518.52 L1464.02 1525.93 L1458.16 1525.93 L1458.16 1518.52 Z" fill="#000000" fill-rule="nonzero" fill-opacity="1" /><path clip-path="url(#clip010)" d="M1505.91 1546.53 L1505.91 1568.04 L1500.05 1568.04 L1500.05 1546.72 Q1500.05 1541.66 1498.08 1539.14 Q1496.1 1536.63 1492.16 1536.63 Q1487.41 1536.63 1484.68 1539.65 Q1481.94 1542.68 1481.94 1547.9 L1481.94 1568.04 L1476.05 1568.04 L1476.05 1532.4 L1481.94 1532.4 L1481.94 1537.93 Q1484.04 1534.72 1486.87 1533.13 Q1489.74 1531.54 1493.46 1531.54 Q1499.6 1531.54 1502.76 1535.36 Q1505.91 1539.14 1505.91 1546.53 Z" fill="#000000" fill-rule="nonzero" fill-opacity="1" /><path clip-path="url(#clip010)" d="M1541.04 1549.81 Q1541.04 1543.44 1538.4 1539.94 Q1535.79 1536.44 1531.05 1536.44 Q1526.34 1536.44 1523.7 1539.94 Q1521.09 1543.44 1521.09 1549.81 Q1521.09 1556.14 1523.7 1559.64 Q1526.34 1563.14 1531.05 1563.14 Q1535.79 1563.14 1538.4 1559.64 Q1541.04 1556.14 1541.04 1549.81 M1546.9 1563.62 Q1546.9 1572.72 1542.86 1577.15 Q1538.82 1581.6 1530.48 1581.6 Q1527.39 1581.6 1524.65 1581.13 Q1521.92 1580.68 1519.34 1579.72 L1519.34 1574.03 Q1521.92 1575.43 1524.43 1576.1 Q1526.94 1576.76 1529.55 1576.76 Q1535.32 1576.76 1538.18 1573.74 Q1541.04 1570.75 1541.04 1564.67 L1541.04 1561.77 Q1539.23 1564.92 1536.4 1566.48 Q1533.57 1568.04 1529.62 1568.04 Q1523.06 1568.04 1519.05 1563.05 Q1515.04 1558.05 1515.04 1549.81 Q1515.04 1541.53 1519.05 1536.53 Q1523.06 1531.54 1529.62 1531.54 Q1533.57 1531.54 1536.4 1533.1 Q1539.23 1534.66 1541.04 1537.81 L1541.04 1532.4 L1546.9 1532.4 L1546.9 1563.62 Z" fill="#000000" fill-rule="nonzero" fill-opacity="1" /><polyline clip-path="url(#clip010)" style="stroke:#000000; stroke-linecap:round; stroke-linejoin:round; stroke-width:4; stroke-opacity:1; fill:none" points="250.028,1423.18 250.028,123.472 "/>
<polyline clip-path="url(#clip010)" style="stroke:#000000; stroke-linecap:round; stroke-linejoin:round; stroke-width:4; stroke-opacity:1; fill:none" points="250.028,1423.18 268.926,1423.18 "/>
<polyline clip-path="url(#clip010)" style="stroke:#000000; stroke-linecap:round; stroke-linejoin:round; stroke-width:4; stroke-opacity:1; fill:none" points="250.028,1232.93 268.926,1232.93 "/>
<polyline clip-path="url(#clip010)" style="stroke:#000000; stroke-linecap:round; stroke-linejoin:round; stroke-width:4; stroke-opacity:1; fill:none" points="250.028,1042.67 268.926,1042.67 "/>
<polyline clip-path="url(#clip010)" style="stroke:#000000; stroke-linecap:round; stroke-linejoin:round; stroke-width:4; stroke-opacity:1; fill:none" points="250.028,852.419 268.926,852.419 "/>
<polyline clip-path="url(#clip010)" style="stroke:#000000; stroke-linecap:round; stroke-linejoin:round; stroke-width:4; stroke-opacity:1; fill:none" points="250.028,662.165 268.926,662.165 "/>
<polyline clip-path="url(#clip010)" style="stroke:#000000; stroke-linecap:round; stroke-linejoin:round; stroke-width:4; stroke-opacity:1; fill:none" points="250.028,471.912 268.926,471.912 "/>
<polyline clip-path="url(#clip010)" style="stroke:#000000; stroke-linecap:round; stroke-linejoin:round; stroke-width:4; stroke-opacity:1; fill:none" points="250.028,281.658 268.926,281.658 "/>
<path clip-path="url(#clip010)" d="M126.691 1408.98 Q123.08 1408.98 121.251 1412.54 Q119.445 1416.08 119.445 1423.21 Q119.445 1430.32 121.251 1433.89 Q123.08 1437.43 126.691 1437.43 Q130.325 1437.43 132.13 1433.89 Q133.959 1430.32 133.959 1423.21 Q133.959 1416.08 132.13 1412.54 Q130.325 1408.98 126.691 1408.98 M126.691 1405.27 Q132.501 1405.27 135.556 1409.88 Q138.635 1414.46 138.635 1423.21 Q138.635 1431.94 135.556 1436.55 Q132.501 1441.13 126.691 1441.13 Q120.88 1441.13 117.802 1436.55 Q114.746 1431.94 114.746 1423.21 Q114.746 1414.46 117.802 1409.88 Q120.88 1405.27 126.691 1405.27 Z" fill="#000000" fill-rule="nonzero" fill-opacity="1" /><path clip-path="url(#clip010)" d="M146.853 1434.58 L151.737 1434.58 L151.737 1440.46 L146.853 1440.46 L146.853 1434.58 Z" fill="#000000" fill-rule="nonzero" fill-opacity="1" /><path clip-path="url(#clip010)" d="M171.922 1408.98 Q168.311 1408.98 166.482 1412.54 Q164.677 1416.08 164.677 1423.21 Q164.677 1430.32 166.482 1433.89 Q168.311 1437.43 171.922 1437.43 Q175.556 1437.43 177.362 1433.89 Q179.19 1430.32 179.19 1423.21 Q179.19 1416.08 177.362 1412.54 Q175.556 1408.98 171.922 1408.98 M171.922 1405.27 Q177.732 1405.27 180.788 1409.88 Q183.866 1414.46 183.866 1423.21 Q183.866 1431.94 180.788 1436.55 Q177.732 1441.13 171.922 1441.13 Q166.112 1441.13 163.033 1436.55 Q159.978 1431.94 159.978 1423.21 Q159.978 1414.46 163.033 1409.88 Q166.112 1405.27 171.922 1405.27 Z" fill="#000000" fill-rule="nonzero" fill-opacity="1" /><path clip-path="url(#clip010)" d="M202.084 1408.98 Q198.473 1408.98 196.644 1412.54 Q194.838 1416.08 194.838 1423.21 Q194.838 1430.32 196.644 1433.89 Q198.473 1437.43 202.084 1437.43 Q205.718 1437.43 207.524 1433.89 Q209.352 1430.32 209.352 1423.21 Q209.352 1416.08 207.524 1412.54 Q205.718 1408.98 202.084 1408.98 M202.084 1405.27 Q207.894 1405.27 210.949 1409.88 Q214.028 1414.46 214.028 1423.21 Q214.028 1431.94 210.949 1436.55 Q207.894 1441.13 202.084 1441.13 Q196.274 1441.13 193.195 1436.55 Q190.139 1431.94 190.139 1423.21 Q190.139 1414.46 193.195 1409.88 Q196.274 1405.27 202.084 1405.27 Z" fill="#000000" fill-rule="nonzero" fill-opacity="1" /><path clip-path="url(#clip010)" d="M128.288 1218.72 Q124.677 1218.72 122.848 1222.29 Q121.043 1225.83 121.043 1232.96 Q121.043 1240.07 122.848 1243.63 Q124.677 1247.17 128.288 1247.17 Q131.922 1247.17 133.728 1243.63 Q135.556 1240.07 135.556 1232.96 Q135.556 1225.83 133.728 1222.29 Q131.922 1218.72 128.288 1218.72 M128.288 1215.02 Q134.098 1215.02 137.154 1219.63 Q140.232 1224.21 140.232 1232.96 Q140.232 1241.69 137.154 1246.29 Q134.098 1250.88 128.288 1250.88 Q122.478 1250.88 119.399 1246.29 Q116.343 1241.69 116.343 1232.96 Q116.343 1224.21 119.399 1219.63 Q122.478 1215.02 128.288 1215.02 Z" fill="#000000" fill-rule="nonzero" fill-opacity="1" /><path clip-path="url(#clip010)" d="M148.45 1244.33 L153.334 1244.33 L153.334 1250.21 L148.45 1250.21 L148.45 1244.33 Z" fill="#000000" fill-rule="nonzero" fill-opacity="1" /><path clip-path="url(#clip010)" d="M173.519 1218.72 Q169.908 1218.72 168.079 1222.29 Q166.274 1225.83 166.274 1232.96 Q166.274 1240.07 168.079 1243.63 Q169.908 1247.17 173.519 1247.17 Q177.153 1247.17 178.959 1243.63 Q180.788 1240.07 180.788 1232.96 Q180.788 1225.83 178.959 1222.29 Q177.153 1218.72 173.519 1218.72 M173.519 1215.02 Q179.329 1215.02 182.385 1219.63 Q185.463 1224.21 185.463 1232.96 Q185.463 1241.69 182.385 1246.29 Q179.329 1250.88 173.519 1250.88 Q167.709 1250.88 164.63 1246.29 Q161.575 1241.69 161.575 1232.96 Q161.575 1224.21 164.63 1219.63 Q167.709 1215.02 173.519 1215.02 Z" fill="#000000" fill-rule="nonzero" fill-opacity="1" /><path clip-path="url(#clip010)" d="M197.709 1246.27 L214.028 1246.27 L214.028 1250.21 L192.084 1250.21 L192.084 1246.27 Q194.746 1243.52 199.329 1238.89 Q203.936 1234.23 205.116 1232.89 Q207.362 1230.37 208.241 1228.63 Q209.144 1226.87 209.144 1225.18 Q209.144 1222.43 207.199 1220.69 Q205.278 1218.96 202.176 1218.96 Q199.977 1218.96 197.524 1219.72 Q195.093 1220.48 192.315 1222.04 L192.315 1217.31 Q195.139 1216.18 197.593 1215.6 Q200.047 1215.02 202.084 1215.02 Q207.454 1215.02 210.649 1217.71 Q213.843 1220.39 213.843 1224.88 Q213.843 1227.01 213.033 1228.93 Q212.246 1230.83 210.139 1233.42 Q209.561 1234.1 206.459 1237.31 Q203.357 1240.51 197.709 1246.27 Z" fill="#000000" fill-rule="nonzero" fill-opacity="1" /><path clip-path="url(#clip010)" d="M126.205 1028.47 Q122.593 1028.47 120.765 1032.04 Q118.959 1035.58 118.959 1042.71 Q118.959 1049.81 120.765 1053.38 Q122.593 1056.92 126.205 1056.92 Q129.839 1056.92 131.644 1053.38 Q133.473 1049.81 133.473 1042.71 Q133.473 1035.58 131.644 1032.04 Q129.839 1028.47 126.205 1028.47 M126.205 1024.77 Q132.015 1024.77 135.07 1029.37 Q138.149 1033.96 138.149 1042.71 Q138.149 1051.43 135.07 1056.04 Q132.015 1060.62 126.205 1060.62 Q120.394 1060.62 117.316 1056.04 Q114.26 1051.43 114.26 1042.71 Q114.26 1033.96 117.316 1029.37 Q120.394 1024.77 126.205 1024.77 Z" fill="#000000" fill-rule="nonzero" fill-opacity="1" /><path clip-path="url(#clip010)" d="M146.366 1054.07 L151.251 1054.07 L151.251 1059.95 L146.366 1059.95 L146.366 1054.07 Z" fill="#000000" fill-rule="nonzero" fill-opacity="1" /><path clip-path="url(#clip010)" d="M171.436 1028.47 Q167.825 1028.47 165.996 1032.04 Q164.19 1035.58 164.19 1042.71 Q164.19 1049.81 165.996 1053.38 Q167.825 1056.92 171.436 1056.92 Q175.07 1056.92 176.876 1053.38 Q178.704 1049.81 178.704 1042.71 Q178.704 1035.58 176.876 1032.04 Q175.07 1028.47 171.436 1028.47 M171.436 1024.77 Q177.246 1024.77 180.301 1029.37 Q183.38 1033.96 183.38 1042.71 Q183.38 1051.43 180.301 1056.04 Q177.246 1060.62 171.436 1060.62 Q165.626 1060.62 162.547 1056.04 Q159.491 1051.43 159.491 1042.71 Q159.491 1033.96 162.547 1029.37 Q165.626 1024.77 171.436 1024.77 Z" fill="#000000" fill-rule="nonzero" fill-opacity="1" /><path clip-path="url(#clip010)" d="M204.445 1029.47 L192.639 1047.92 L204.445 1047.92 L204.445 1029.47 M203.218 1025.39 L209.098 1025.39 L209.098 1047.92 L214.028 1047.92 L214.028 1051.8 L209.098 1051.8 L209.098 1059.95 L204.445 1059.95 L204.445 1051.8 L188.843 1051.8 L188.843 1047.29 L203.218 1025.39 Z" fill="#000000" fill-rule="nonzero" fill-opacity="1" /><path clip-path="url(#clip010)" d="M126.529 838.218 Q122.918 838.218 121.089 841.782 Q119.283 845.324 119.283 852.454 Q119.283 859.56 121.089 863.125 Q122.918 866.666 126.529 866.666 Q130.163 866.666 131.968 863.125 Q133.797 859.56 133.797 852.454 Q133.797 845.324 131.968 841.782 Q130.163 838.218 126.529 838.218 M126.529 834.514 Q132.339 834.514 135.394 839.12 Q138.473 843.704 138.473 852.454 Q138.473 861.18 135.394 865.787 Q132.339 870.37 126.529 870.37 Q120.718 870.37 117.64 865.787 Q114.584 861.18 114.584 852.454 Q114.584 843.704 117.64 839.12 Q120.718 834.514 126.529 834.514 Z" fill="#000000" fill-rule="nonzero" fill-opacity="1" /><path clip-path="url(#clip010)" d="M146.691 863.819 L151.575 863.819 L151.575 869.699 L146.691 869.699 L146.691 863.819 Z" fill="#000000" fill-rule="nonzero" fill-opacity="1" /><path clip-path="url(#clip010)" d="M171.76 838.218 Q168.149 838.218 166.32 841.782 Q164.515 845.324 164.515 852.454 Q164.515 859.56 166.32 863.125 Q168.149 866.666 171.76 866.666 Q175.394 866.666 177.2 863.125 Q179.028 859.56 179.028 852.454 Q179.028 845.324 177.2 841.782 Q175.394 838.218 171.76 838.218 M171.76 834.514 Q177.57 834.514 180.626 839.12 Q183.704 843.704 183.704 852.454 Q183.704 861.18 180.626 865.787 Q177.57 870.37 171.76 870.37 Q165.95 870.37 162.871 865.787 Q159.815 861.18 159.815 852.454 Q159.815 843.704 162.871 839.12 Q165.95 834.514 171.76 834.514 Z" fill="#000000" fill-rule="nonzero" fill-opacity="1" /><path clip-path="url(#clip010)" d="M202.5 850.555 Q199.352 850.555 197.5 852.708 Q195.672 854.861 195.672 858.611 Q195.672 862.338 197.5 864.514 Q199.352 866.666 202.5 866.666 Q205.649 866.666 207.477 864.514 Q209.329 862.338 209.329 858.611 Q209.329 854.861 207.477 852.708 Q205.649 850.555 202.5 850.555 M211.783 835.903 L211.783 840.162 Q210.024 839.329 208.218 838.889 Q206.436 838.449 204.676 838.449 Q200.047 838.449 197.593 841.574 Q195.163 844.699 194.815 851.018 Q196.181 849.005 198.241 847.94 Q200.301 846.852 202.778 846.852 Q207.987 846.852 210.996 850.023 Q214.028 853.171 214.028 858.611 Q214.028 863.935 210.88 867.153 Q207.732 870.37 202.5 870.37 Q196.505 870.37 193.334 865.787 Q190.163 861.18 190.163 852.454 Q190.163 844.259 194.051 839.398 Q197.94 834.514 204.491 834.514 Q206.25 834.514 208.033 834.861 Q209.838 835.208 211.783 835.903 Z" fill="#000000" fill-rule="nonzero" fill-opacity="1" /><path clip-path="url(#clip010)" d="M126.783 647.964 Q123.172 647.964 121.343 651.529 Q119.538 655.07 119.538 662.2 Q119.538 669.306 121.343 672.871 Q123.172 676.413 126.783 676.413 Q130.417 676.413 132.223 672.871 Q134.052 669.306 134.052 662.2 Q134.052 655.07 132.223 651.529 Q130.417 647.964 126.783 647.964 M126.783 644.26 Q132.593 644.26 135.649 648.867 Q138.728 653.45 138.728 662.2 Q138.728 670.927 135.649 675.533 Q132.593 680.116 126.783 680.116 Q120.973 680.116 117.894 675.533 Q114.839 670.927 114.839 662.2 Q114.839 653.45 117.894 648.867 Q120.973 644.26 126.783 644.26 Z" fill="#000000" fill-rule="nonzero" fill-opacity="1" /><path clip-path="url(#clip010)" d="M146.945 673.566 L151.829 673.566 L151.829 679.445 L146.945 679.445 L146.945 673.566 Z" fill="#000000" fill-rule="nonzero" fill-opacity="1" /><path clip-path="url(#clip010)" d="M172.014 647.964 Q168.403 647.964 166.575 651.529 Q164.769 655.07 164.769 662.2 Q164.769 669.306 166.575 672.871 Q168.403 676.413 172.014 676.413 Q175.649 676.413 177.454 672.871 Q179.283 669.306 179.283 662.2 Q179.283 655.07 177.454 651.529 Q175.649 647.964 172.014 647.964 M172.014 644.26 Q177.825 644.26 180.88 648.867 Q183.959 653.45 183.959 662.2 Q183.959 670.927 180.88 675.533 Q177.825 680.116 172.014 680.116 Q166.204 680.116 163.126 675.533 Q160.07 670.927 160.07 662.2 Q160.07 653.45 163.126 648.867 Q166.204 644.26 172.014 644.26 Z" fill="#000000" fill-rule="nonzero" fill-opacity="1" /><path clip-path="url(#clip010)" d="M202.176 663.033 Q198.843 663.033 196.922 664.816 Q195.024 666.598 195.024 669.723 Q195.024 672.848 196.922 674.63 Q198.843 676.413 202.176 676.413 Q205.51 676.413 207.431 674.63 Q209.352 672.825 209.352 669.723 Q209.352 666.598 207.431 664.816 Q205.533 663.033 202.176 663.033 M197.5 661.042 Q194.491 660.302 192.801 658.242 Q191.135 656.181 191.135 653.218 Q191.135 649.075 194.075 646.668 Q197.037 644.26 202.176 644.26 Q207.338 644.26 210.278 646.668 Q213.218 649.075 213.218 653.218 Q213.218 656.181 211.528 658.242 Q209.861 660.302 206.875 661.042 Q210.255 661.83 212.13 664.121 Q214.028 666.413 214.028 669.723 Q214.028 674.746 210.949 677.431 Q207.894 680.116 202.176 680.116 Q196.459 680.116 193.38 677.431 Q190.325 674.746 190.325 669.723 Q190.325 666.413 192.223 664.121 Q194.121 661.83 197.5 661.042 M195.787 653.658 Q195.787 656.343 197.454 657.848 Q199.144 659.353 202.176 659.353 Q205.186 659.353 206.875 657.848 Q208.588 656.343 208.588 653.658 Q208.588 650.973 206.875 649.468 Q205.186 647.964 202.176 647.964 Q199.144 647.964 197.454 649.468 Q195.787 650.973 195.787 653.658 Z" fill="#000000" fill-rule="nonzero" fill-opacity="1" /><path clip-path="url(#clip010)" d="M126.691 457.71 Q123.08 457.71 121.251 461.275 Q119.445 464.817 119.445 471.946 Q119.445 479.053 121.251 482.617 Q123.08 486.159 126.691 486.159 Q130.325 486.159 132.13 482.617 Q133.959 479.053 133.959 471.946 Q133.959 464.817 132.13 461.275 Q130.325 457.71 126.691 457.71 M126.691 454.007 Q132.501 454.007 135.556 458.613 Q138.635 463.196 138.635 471.946 Q138.635 480.673 135.556 485.279 Q132.501 489.863 126.691 489.863 Q120.88 489.863 117.802 485.279 Q114.746 480.673 114.746 471.946 Q114.746 463.196 117.802 458.613 Q120.88 454.007 126.691 454.007 Z" fill="#000000" fill-rule="nonzero" fill-opacity="1" /><path clip-path="url(#clip010)" d="M146.853 483.312 L151.737 483.312 L151.737 489.192 L146.853 489.192 L146.853 483.312 Z" fill="#000000" fill-rule="nonzero" fill-opacity="1" /><path clip-path="url(#clip010)" d="M162.732 485.256 L170.371 485.256 L170.371 458.891 L162.061 460.557 L162.061 456.298 L170.325 454.632 L175.001 454.632 L175.001 485.256 L182.639 485.256 L182.639 489.192 L162.732 489.192 L162.732 485.256 Z" fill="#000000" fill-rule="nonzero" fill-opacity="1" /><path clip-path="url(#clip010)" d="M202.084 457.71 Q198.473 457.71 196.644 461.275 Q194.838 464.817 194.838 471.946 Q194.838 479.053 196.644 482.617 Q198.473 486.159 202.084 486.159 Q205.718 486.159 207.524 482.617 Q209.352 479.053 209.352 471.946 Q209.352 464.817 207.524 461.275 Q205.718 457.71 202.084 457.71 M202.084 454.007 Q207.894 454.007 210.949 458.613 Q214.028 463.196 214.028 471.946 Q214.028 480.673 210.949 485.279 Q207.894 489.863 202.084 489.863 Q196.274 489.863 193.195 485.279 Q190.139 480.673 190.139 471.946 Q190.139 463.196 193.195 458.613 Q196.274 454.007 202.084 454.007 Z" fill="#000000" fill-rule="nonzero" fill-opacity="1" /><path clip-path="url(#clip010)" d="M128.288 267.457 Q124.677 267.457 122.848 271.021 Q121.043 274.563 121.043 281.693 Q121.043 288.799 122.848 292.364 Q124.677 295.905 128.288 295.905 Q131.922 295.905 133.728 292.364 Q135.556 288.799 135.556 281.693 Q135.556 274.563 133.728 271.021 Q131.922 267.457 128.288 267.457 M128.288 263.753 Q134.098 263.753 137.154 268.359 Q140.232 272.943 140.232 281.693 Q140.232 290.419 137.154 295.026 Q134.098 299.609 128.288 299.609 Q122.478 299.609 119.399 295.026 Q116.343 290.419 116.343 281.693 Q116.343 272.943 119.399 268.359 Q122.478 263.753 128.288 263.753 Z" fill="#000000" fill-rule="nonzero" fill-opacity="1" /><path clip-path="url(#clip010)" d="M148.45 293.058 L153.334 293.058 L153.334 298.938 L148.45 298.938 L148.45 293.058 Z" fill="#000000" fill-rule="nonzero" fill-opacity="1" /><path clip-path="url(#clip010)" d="M164.329 295.003 L171.968 295.003 L171.968 268.637 L163.658 270.304 L163.658 266.045 L171.922 264.378 L176.598 264.378 L176.598 295.003 L184.237 295.003 L184.237 298.938 L164.329 298.938 L164.329 295.003 Z" fill="#000000" fill-rule="nonzero" fill-opacity="1" /><path clip-path="url(#clip010)" d="M197.709 295.003 L214.028 295.003 L214.028 298.938 L192.084 298.938 L192.084 295.003 Q194.746 292.248 199.329 287.618 Q203.936 282.966 205.116 281.623 Q207.362 279.1 208.241 277.364 Q209.144 275.605 209.144 273.915 Q209.144 271.16 207.199 269.424 Q205.278 267.688 202.176 267.688 Q199.977 267.688 197.524 268.452 Q195.093 269.216 192.315 270.767 L192.315 266.045 Q195.139 264.91 197.593 264.332 Q200.047 263.753 202.084 263.753 Q207.454 263.753 210.649 266.438 Q213.843 269.123 213.843 273.614 Q213.843 275.744 213.033 277.665 Q212.246 279.563 210.139 282.156 Q209.561 282.827 206.459 286.044 Q203.357 289.239 197.709 295.003 Z" fill="#000000" fill-rule="nonzero" fill-opacity="1" /><path clip-path="url(#clip010)" d="M33.7671 1080.57 L14.479 1080.57 L14.479 1074.71 L64.0042 1074.71 L64.0042 1080.57 L58.657 1080.57 Q61.8398 1082.41 63.3994 1085.25 Q64.9272 1088.05 64.9272 1091.99 Q64.9272 1098.45 59.771 1102.53 Q54.6147 1106.57 46.212 1106.57 Q37.8093 1106.57 32.6531 1102.53 Q27.4968 1098.45 27.4968 1091.99 Q27.4968 1088.05 29.0564 1085.25 Q30.5842 1082.41 33.7671 1080.57 M46.212 1100.52 Q52.6732 1100.52 56.3653 1097.88 Q60.0256 1095.21 60.0256 1090.56 Q60.0256 1085.91 56.3653 1083.24 Q52.6732 1080.57 46.212 1080.57 Q39.7508 1080.57 36.0905 1083.24 Q32.3984 1085.91 32.3984 1090.56 Q32.3984 1095.21 36.0905 1097.88 Q39.7508 1100.52 46.212 1100.52 Z" fill="#000000" fill-rule="nonzero" fill-opacity="1" /><path clip-path="url(#clip010)" d="M46.0847 1046.45 Q46.0847 1053.54 47.7079 1056.28 Q49.3312 1059.02 53.2461 1059.02 Q56.3653 1059.02 58.2114 1056.98 Q60.0256 1054.91 60.0256 1051.38 Q60.0256 1046.51 56.5881 1043.58 Q53.1188 1040.62 47.3897 1040.62 L46.0847 1040.62 L46.0847 1046.45 M43.6657 1034.77 L64.0042 1034.77 L64.0042 1040.62 L58.5933 1040.62 Q61.8398 1042.63 63.3994 1045.62 Q64.9272 1048.61 64.9272 1052.94 Q64.9272 1058.41 61.8716 1061.66 Q58.7843 1064.88 53.6281 1064.88 Q47.6125 1064.88 44.5569 1060.86 Q41.5014 1056.82 41.5014 1048.83 L41.5014 1040.62 L40.9285 1040.62 Q36.8862 1040.62 34.6901 1043.3 Q32.4621 1045.94 32.4621 1050.74 Q32.4621 1053.8 33.1941 1056.7 Q33.9262 1059.59 35.3903 1062.27 L29.9795 1062.27 Q28.7381 1059.05 28.1334 1056.03 Q27.4968 1053 27.4968 1050.14 Q27.4968 1042.4 31.5072 1038.58 Q35.5176 1034.77 43.6657 1034.77 Z" fill="#000000" fill-rule="nonzero" fill-opacity="1" /><path clip-path="url(#clip010)" d="M18.2347 1016.91 L28.3562 1016.91 L28.3562 1004.85 L32.9077 1004.85 L32.9077 1016.91 L52.2594 1016.91 Q56.6199 1016.91 57.8613 1015.73 Q59.1026 1014.52 59.1026 1010.86 L59.1026 1004.85 L64.0042 1004.85 L64.0042 1010.86 Q64.0042 1017.64 61.4897 1020.22 Q58.9434 1022.8 52.2594 1022.8 L32.9077 1022.8 L32.9077 1027.09 L28.3562 1027.09 L28.3562 1022.8 L18.2347 1022.8 L18.2347 1016.91 Z" fill="#000000" fill-rule="nonzero" fill-opacity="1" /><path clip-path="url(#clip010)" d="M46.0847 980.944 Q46.0847 988.041 47.7079 990.779 Q49.3312 993.516 53.2461 993.516 Q56.3653 993.516 58.2114 991.479 Q60.0256 989.41 60.0256 985.877 Q60.0256 981.007 56.5881 978.079 Q53.1188 975.119 47.3897 975.119 L46.0847 975.119 L46.0847 980.944 M43.6657 969.262 L64.0042 969.262 L64.0042 975.119 L58.5933 975.119 Q61.8398 977.124 63.3994 980.116 Q64.9272 983.108 64.9272 987.437 Q64.9272 992.911 61.8716 996.158 Q58.7843 999.372 53.6281 999.372 Q47.6125 999.372 44.5569 995.362 Q41.5014 991.32 41.5014 983.331 L41.5014 975.119 L40.9285 975.119 Q36.8862 975.119 34.6901 977.792 Q32.4621 980.434 32.4621 985.24 Q32.4621 988.296 33.1941 991.192 Q33.9262 994.089 35.3903 996.762 L29.9795 996.762 Q28.7381 993.548 28.1334 990.524 Q27.4968 987.5 27.4968 984.636 Q27.4968 976.901 31.5072 973.082 Q35.5176 969.262 43.6657 969.262 Z" fill="#000000" fill-rule="nonzero" fill-opacity="1" /><path clip-path="url(#clip010)" d="M29.4065 934.474 L34.9447 934.474 Q33.6716 936.956 33.035 939.63 Q32.3984 942.304 32.3984 945.168 Q32.3984 949.529 33.7352 951.725 Q35.072 953.889 37.7456 953.889 Q39.7826 953.889 40.9603 952.33 Q42.1061 950.77 43.1565 946.059 L43.6021 944.054 Q44.9389 937.816 47.3897 935.206 Q49.8086 932.564 54.1691 932.564 Q59.1344 932.564 62.0308 936.511 Q64.9272 940.426 64.9272 947.301 Q64.9272 950.165 64.3543 953.285 Q63.8132 956.372 62.6992 959.809 L56.6518 959.809 Q58.3387 956.563 59.198 953.412 Q60.0256 950.261 60.0256 947.173 Q60.0256 943.036 58.6251 940.808 Q57.1929 938.58 54.6147 938.58 Q52.2276 938.58 50.9545 940.203 Q49.6813 941.794 48.5037 947.237 L48.0262 949.274 Q46.8804 954.717 44.5251 957.136 Q42.138 959.555 38.0002 959.555 Q32.9713 959.555 30.2341 955.99 Q27.4968 952.425 27.4968 945.868 Q27.4968 942.622 27.9743 939.757 Q28.4517 936.893 29.4065 934.474 Z" fill="#000000" fill-rule="nonzero" fill-opacity="1" /><path clip-path="url(#clip010)" d="M44.7161 892.747 L47.5806 892.747 L47.5806 919.674 Q53.6281 919.292 56.8109 916.045 Q59.9619 912.767 59.9619 906.942 Q59.9619 903.568 59.1344 900.417 Q58.3069 897.234 56.6518 894.115 L62.1899 894.115 Q63.5267 897.266 64.227 900.576 Q64.9272 903.887 64.9272 907.292 Q64.9272 915.822 59.9619 920.819 Q54.9967 925.785 46.5303 925.785 Q37.7774 925.785 32.6531 921.074 Q27.4968 916.332 27.4968 908.311 Q27.4968 901.118 32.1438 896.948 Q36.7589 892.747 44.7161 892.747 M42.9973 898.603 Q38.1912 898.667 35.3266 901.309 Q32.4621 903.918 32.4621 908.247 Q32.4621 913.149 35.2312 916.109 Q38.0002 919.037 43.0292 919.483 L42.9973 898.603 Z" fill="#000000" fill-rule="nonzero" fill-opacity="1" /><path clip-path="url(#clip010)" d="M18.2347 877.342 L28.3562 877.342 L28.3562 865.279 L32.9077 865.279 L32.9077 877.342 L52.2594 877.342 Q56.6199 877.342 57.8613 876.164 Q59.1026 874.954 59.1026 871.294 L59.1026 865.279 L64.0042 865.279 L64.0042 871.294 Q64.0042 878.074 61.4897 880.652 Q58.9434 883.23 52.2594 883.23 L32.9077 883.23 L32.9077 887.527 L28.3562 887.527 L28.3562 883.23 L18.2347 883.23 L18.2347 877.342 Z" fill="#000000" fill-rule="nonzero" fill-opacity="1" /><path clip-path="url(#clip010)" d="M35.1993 809.101 Q31.2526 806.905 29.3747 803.85 Q27.4968 800.794 27.4968 796.656 Q27.4968 791.086 31.4117 788.063 Q35.2948 785.039 42.4881 785.039 L64.0042 785.039 L64.0042 790.927 L42.679 790.927 Q37.5546 790.927 35.072 792.741 Q32.5894 794.556 32.5894 798.28 Q32.5894 802.831 35.6131 805.473 Q38.6368 808.115 43.8567 808.115 L64.0042 808.115 L64.0042 814.003 L42.679 814.003 Q37.5228 814.003 35.072 815.817 Q32.5894 817.631 32.5894 821.419 Q32.5894 825.907 35.6449 828.548 Q38.6686 831.19 43.8567 831.19 L64.0042 831.19 L64.0042 837.079 L28.3562 837.079 L28.3562 831.19 L33.8944 831.19 Q30.616 829.185 29.0564 826.384 Q27.4968 823.583 27.4968 819.732 Q27.4968 815.849 29.4702 813.143 Q31.4436 810.406 35.1993 809.101 Z" fill="#000000" fill-rule="nonzero" fill-opacity="1" /><path clip-path="url(#clip010)" d="M44.7161 742.866 L47.5806 742.866 L47.5806 769.793 Q53.6281 769.411 56.8109 766.165 Q59.9619 762.886 59.9619 757.062 Q59.9619 753.688 59.1344 750.537 Q58.3069 747.354 56.6518 744.235 L62.1899 744.235 Q63.5267 747.386 64.227 750.696 Q64.9272 754.006 64.9272 757.412 Q64.9272 765.942 59.9619 770.939 Q54.9967 775.904 46.5303 775.904 Q37.7774 775.904 32.6531 771.193 Q27.4968 766.451 27.4968 758.43 Q27.4968 751.237 32.1438 747.067 Q36.7589 742.866 44.7161 742.866 M42.9973 748.723 Q38.1912 748.786 35.3266 751.428 Q32.4621 754.038 32.4621 758.367 Q32.4621 763.268 35.2312 766.228 Q38.0002 769.156 43.0292 769.602 L42.9973 748.723 Z" fill="#000000" fill-rule="nonzero" fill-opacity="1" /><path clip-path="url(#clip010)" d="M33.7671 709.796 L14.479 709.796 L14.479 703.94 L64.0042 703.94 L64.0042 709.796 L58.657 709.796 Q61.8398 711.642 63.3994 714.475 Q64.9272 717.276 64.9272 721.223 Q64.9272 727.684 59.771 731.758 Q54.6147 735.8 46.212 735.8 Q37.8093 735.8 32.6531 731.758 Q27.4968 727.684 27.4968 721.223 Q27.4968 717.276 29.0564 714.475 Q30.5842 711.642 33.7671 709.796 M46.212 729.753 Q52.6732 729.753 56.3653 727.111 Q60.0256 724.437 60.0256 719.79 Q60.0256 715.143 56.3653 712.47 Q52.6732 709.796 46.212 709.796 Q39.7508 709.796 36.0905 712.47 Q32.3984 715.143 32.3984 719.79 Q32.3984 724.437 36.0905 727.111 Q39.7508 729.753 46.212 729.753 Z" fill="#000000" fill-rule="nonzero" fill-opacity="1" /><path clip-path="url(#clip010)" d="M28.3562 691.877 L28.3562 686.02 L64.0042 686.02 L64.0042 691.877 L28.3562 691.877 M14.479 691.877 L14.479 686.02 L21.895 686.02 L21.895 691.877 L14.479 691.877 Z" fill="#000000" fill-rule="nonzero" fill-opacity="1" /><path clip-path="url(#clip010)" d="M46.0847 657.566 Q46.0847 664.663 47.7079 667.401 Q49.3312 670.138 53.2461 670.138 Q56.3653 670.138 58.2114 668.101 Q60.0256 666.032 60.0256 662.499 Q60.0256 657.629 56.5881 654.701 Q53.1188 651.741 47.3897 651.741 L46.0847 651.741 L46.0847 657.566 M43.6657 645.885 L64.0042 645.885 L64.0042 651.741 L58.5933 651.741 Q61.8398 653.746 63.3994 656.738 Q64.9272 659.73 64.9272 664.059 Q64.9272 669.533 61.8716 672.78 Q58.7843 675.994 53.6281 675.994 Q47.6125 675.994 44.5569 671.984 Q41.5014 667.942 41.5014 659.953 L41.5014 651.741 L40.9285 651.741 Q36.8862 651.741 34.6901 654.415 Q32.4621 657.056 32.4621 661.862 Q32.4621 664.918 33.1941 667.814 Q33.9262 670.711 35.3903 673.384 L29.9795 673.384 Q28.7381 670.17 28.1334 667.146 Q27.4968 664.122 27.4968 661.258 Q27.4968 653.523 31.5072 649.704 Q35.5176 645.885 43.6657 645.885 Z" fill="#000000" fill-rule="nonzero" fill-opacity="1" /><path clip-path="url(#clip010)" d="M42.4881 604.189 L64.0042 604.189 L64.0042 610.046 L42.679 610.046 Q37.6183 610.046 35.1038 612.019 Q32.5894 613.992 32.5894 617.939 Q32.5894 622.682 35.6131 625.419 Q38.6368 628.156 43.8567 628.156 L64.0042 628.156 L64.0042 634.044 L28.3562 634.044 L28.3562 628.156 L33.8944 628.156 Q30.6797 626.055 29.0883 623.223 Q27.4968 620.358 27.4968 616.634 Q27.4968 610.491 31.3163 607.34 Q35.1038 604.189 42.4881 604.189 Z" fill="#000000" fill-rule="nonzero" fill-opacity="1" /><path clip-path="url(#clip010)" d="M16.4842 571.533 L16.4842 561.953 L48.8219 549.826 L16.4842 537.636 L16.4842 528.055 L64.0042 528.055 L64.0042 534.326 L22.277 534.326 L54.8694 546.58 L54.8694 553.041 L22.277 565.295 L64.0042 565.295 L64.0042 571.533 L16.4842 571.533 Z" fill="#000000" fill-rule="nonzero" fill-opacity="1" /><path clip-path="url(#clip010)" d="M22.818 499.41 L46.4666 508.131 L46.4666 490.657 L22.818 499.41 M16.4842 503.038 L16.4842 495.749 L64.0042 477.639 L64.0042 484.323 L51.8138 488.652 L51.8138 510.072 L64.0042 514.401 L64.0042 521.18 L16.4842 503.038 Z" fill="#000000" fill-rule="nonzero" fill-opacity="1" /><path clip-path="url(#clip010)" d="M16.4842 470.7 L16.4842 440.654 L21.895 440.654 L21.895 464.271 L35.9632 464.271 L35.9632 441.641 L41.3741 441.641 L41.3741 464.271 L58.5933 464.271 L58.5933 440.081 L64.0042 440.081 L64.0042 470.7 L16.4842 470.7 Z" fill="#000000" fill-rule="nonzero" fill-opacity="1" /><path clip-path="url(#clip010)" d="M942.3 39.9662 Q948.173 41.222 951.455 45.1919 Q954.776 49.1618 954.776 54.9951 Q954.776 63.9476 948.619 68.8492 Q942.462 73.7508 931.119 73.7508 Q927.311 73.7508 923.26 72.9811 Q919.25 72.2519 914.956 70.7531 L914.956 62.8538 Q918.359 64.8388 922.41 65.8515 Q926.461 66.8642 930.876 66.8642 Q938.573 66.8642 942.583 63.826 Q946.634 60.7879 946.634 54.9951 Q946.634 49.6479 942.867 46.6502 Q939.14 43.612 932.456 43.612 L925.407 43.612 L925.407 36.8875 L932.78 36.8875 Q938.816 36.8875 942.016 34.4975 Q945.216 32.067 945.216 27.5299 Q945.216 22.8714 941.895 20.4004 Q938.613 17.8888 932.456 17.8888 Q929.094 17.8888 925.245 18.618 Q921.397 19.3471 916.779 20.8865 L916.779 13.5948 Q921.437 12.2985 925.488 11.6504 Q929.58 11.0023 933.185 11.0023 Q942.502 11.0023 947.93 15.2557 Q953.359 19.4686 953.359 26.6793 Q953.359 31.7024 950.482 35.1862 Q947.606 38.6294 942.3 39.9662 Z" fill="#000000" fill-rule="nonzero" fill-opacity="1" /><path clip-path="url(#clip010)" d="M987.548 12.096 L1038.71 12.096 L1038.71 18.9825 L1017.24 18.9825 L1017.24 72.576 L1009.02 72.576 L1009.02 18.9825 L987.548 18.9825 L987.548 12.096 Z" fill="#000000" fill-rule="nonzero" fill-opacity="1" /><path clip-path="url(#clip010)" d="M1060.38 34.1734 Q1059.13 33.4443 1057.63 33.1202 Q1056.17 32.7556 1054.39 32.7556 Q1048.07 32.7556 1044.67 36.8875 Q1041.3 40.9789 1041.3 48.6757 L1041.3 72.576 L1033.81 72.576 L1033.81 27.2059 L1041.3 27.2059 L1041.3 34.2544 Q1043.65 30.1225 1047.42 28.1376 Q1051.19 26.1121 1056.58 26.1121 Q1057.35 26.1121 1058.28 26.2337 Q1059.21 26.3147 1060.34 26.5172 L1060.38 34.1734 Z" fill="#000000" fill-rule="nonzero" fill-opacity="1" /><path clip-path="url(#clip010)" d="M1105.19 48.0275 L1105.19 51.6733 L1070.92 51.6733 Q1071.4 59.3701 1075.53 63.421 Q1079.71 67.4314 1087.12 67.4314 Q1091.41 67.4314 1095.42 66.3781 Q1099.47 65.3249 1103.44 63.2184 L1103.44 70.267 Q1099.43 71.9684 1095.22 72.8596 Q1091.01 73.7508 1086.67 73.7508 Q1075.82 73.7508 1069.46 67.4314 Q1063.14 61.1119 1063.14 50.3365 Q1063.14 39.1965 1069.13 32.6746 Q1075.17 26.1121 1085.38 26.1121 Q1094.53 26.1121 1099.84 32.0264 Q1105.19 37.9003 1105.19 48.0275 M1097.73 45.84 Q1097.65 39.7232 1094.29 36.0774 Q1090.97 32.4315 1085.46 32.4315 Q1079.22 32.4315 1075.45 35.9558 Q1071.73 39.4801 1071.16 45.8805 L1097.73 45.84 Z" fill="#000000" fill-rule="nonzero" fill-opacity="1" /><path clip-path="url(#clip010)" d="M1155.13 45.1919 L1155.13 72.576 L1147.68 72.576 L1147.68 45.4349 Q1147.68 38.994 1145.17 35.7938 Q1142.66 32.5936 1137.63 32.5936 Q1131.6 32.5936 1128.11 36.4419 Q1124.63 40.2903 1124.63 46.9338 L1124.63 72.576 L1117.14 72.576 L1117.14 27.2059 L1124.63 27.2059 L1124.63 34.2544 Q1127.3 30.163 1130.91 28.1376 Q1134.56 26.1121 1139.3 26.1121 Q1147.11 26.1121 1151.12 30.9732 Q1155.13 35.7938 1155.13 45.1919 Z" fill="#000000" fill-rule="nonzero" fill-opacity="1" /><path clip-path="url(#clip010)" d="M1199.86 34.0924 L1199.86 9.54393 L1207.31 9.54393 L1207.31 72.576 L1199.86 72.576 L1199.86 65.7705 Q1197.51 69.8214 1193.9 71.8063 Q1190.34 73.7508 1185.31 73.7508 Q1177.09 73.7508 1171.9 67.1883 Q1166.76 60.6258 1166.76 49.9314 Q1166.76 39.2371 1171.9 32.6746 Q1177.09 26.1121 1185.31 26.1121 Q1190.34 26.1121 1193.9 28.0971 Q1197.51 30.0415 1199.86 34.0924 M1174.46 49.9314 Q1174.46 58.1548 1177.82 62.8538 Q1181.22 67.5124 1187.14 67.5124 Q1193.05 67.5124 1196.45 62.8538 Q1199.86 58.1548 1199.86 49.9314 Q1199.86 41.7081 1196.45 37.0496 Q1193.05 32.3505 1187.14 32.3505 Q1181.22 32.3505 1177.82 37.0496 Q1174.46 41.7081 1174.46 49.9314 Z" fill="#000000" fill-rule="nonzero" fill-opacity="1" /><path clip-path="url(#clip010)" d="M1251.59 28.5427 L1251.59 35.5912 Q1248.43 33.9709 1245.02 33.1607 Q1241.62 32.3505 1237.98 32.3505 Q1232.43 32.3505 1229.63 34.0519 Q1226.88 35.7533 1226.88 39.156 Q1226.88 41.7486 1228.86 43.2475 Q1230.85 44.7058 1236.84 46.0426 L1239.39 46.6097 Q1247.33 48.3111 1250.65 51.4303 Q1254.02 54.509 1254.02 60.0587 Q1254.02 66.3781 1248.99 70.0644 Q1244.01 73.7508 1235.26 73.7508 Q1231.62 73.7508 1227.65 73.0216 Q1223.72 72.3329 1219.34 70.9151 L1219.34 63.2184 Q1223.47 65.3654 1227.48 66.4591 Q1231.49 67.5124 1235.42 67.5124 Q1240.69 67.5124 1243.52 65.73 Q1246.36 63.9071 1246.36 60.6258 Q1246.36 57.5877 1244.29 55.9673 Q1242.27 54.3469 1235.34 52.8481 L1232.75 52.2405 Q1225.82 50.7821 1222.74 47.7845 Q1219.67 44.7463 1219.67 39.4801 Q1219.67 33.0797 1224.2 29.5959 Q1228.74 26.1121 1237.08 26.1121 Q1241.22 26.1121 1244.86 26.7198 Q1248.51 27.3274 1251.59 28.5427 Z" fill="#000000" fill-rule="nonzero" fill-opacity="1" /><path clip-path="url(#clip010)" d="M1267.79 62.2867 L1276.34 62.2867 L1276.34 69.2543 L1269.69 82.2172 L1264.47 82.2172 L1267.79 69.2543 L1267.79 62.2867 Z" fill="#000000" fill-rule="nonzero" fill-opacity="1" /><path clip-path="url(#clip010)" d="M1344.47 39.9662 Q1350.35 41.222 1353.63 45.1919 Q1356.95 49.1618 1356.95 54.9951 Q1356.95 63.9476 1350.79 68.8492 Q1344.64 73.7508 1333.29 73.7508 Q1329.49 73.7508 1325.43 72.9811 Q1321.42 72.2519 1317.13 70.7531 L1317.13 62.8538 Q1320.53 64.8388 1324.58 65.8515 Q1328.63 66.8642 1333.05 66.8642 Q1340.75 66.8642 1344.76 63.826 Q1348.81 60.7879 1348.81 54.9951 Q1348.81 49.6479 1345.04 46.6502 Q1341.31 43.612 1334.63 43.612 L1327.58 43.612 L1327.58 36.8875 L1334.95 36.8875 Q1340.99 36.8875 1344.19 34.4975 Q1347.39 32.067 1347.39 27.5299 Q1347.39 22.8714 1344.07 20.4004 Q1340.79 17.8888 1334.63 17.8888 Q1331.27 17.8888 1327.42 18.618 Q1323.57 19.3471 1318.95 20.8865 L1318.95 13.5948 Q1323.61 12.2985 1327.66 11.6504 Q1331.75 11.0023 1335.36 11.0023 Q1344.68 11.0023 1350.1 15.2557 Q1355.53 19.4686 1355.53 26.6793 Q1355.53 31.7024 1352.66 35.1862 Q1349.78 38.6294 1344.47 39.9662 Z" fill="#000000" fill-rule="nonzero" fill-opacity="1" /><path clip-path="url(#clip010)" d="M1406.29 18.8205 L1406.29 41.5461 L1416.58 41.5461 Q1422.29 41.5461 1425.41 38.5889 Q1428.53 35.6318 1428.53 30.163 Q1428.53 24.7348 1425.41 21.7777 Q1422.29 18.8205 1416.58 18.8205 L1406.29 18.8205 M1398.11 12.096 L1416.58 12.096 Q1426.75 12.096 1431.93 16.714 Q1437.16 21.2916 1437.16 30.163 Q1437.16 39.1155 1431.93 43.6931 Q1426.75 48.2706 1416.58 48.2706 L1406.29 48.2706 L1406.29 72.576 L1398.11 72.576 L1398.11 12.096 Z" fill="#000000" fill-rule="nonzero" fill-opacity="1" /><path clip-path="url(#clip010)" d="M1483.66 48.0275 L1483.66 51.6733 L1449.39 51.6733 Q1449.88 59.3701 1454.01 63.421 Q1458.18 67.4314 1465.6 67.4314 Q1469.89 67.4314 1473.9 66.3781 Q1477.95 65.3249 1481.92 63.2184 L1481.92 70.267 Q1477.91 71.9684 1473.7 72.8596 Q1469.48 73.7508 1465.15 73.7508 Q1454.29 73.7508 1447.93 67.4314 Q1441.61 61.1119 1441.61 50.3365 Q1441.61 39.1965 1447.61 32.6746 Q1453.65 26.1121 1463.85 26.1121 Q1473.01 26.1121 1478.32 32.0264 Q1483.66 37.9003 1483.66 48.0275 M1476.21 45.84 Q1476.13 39.7232 1472.77 36.0774 Q1469.44 32.4315 1463.93 32.4315 Q1457.7 32.4315 1453.93 35.9558 Q1450.2 39.4801 1449.63 45.8805 L1476.21 45.84 Z" fill="#000000" fill-rule="nonzero" fill-opacity="1" /><path clip-path="url(#clip010)" d="M1522.19 34.1734 Q1520.93 33.4443 1519.43 33.1202 Q1517.97 32.7556 1516.19 32.7556 Q1509.87 32.7556 1506.47 36.8875 Q1503.11 40.9789 1503.11 48.6757 L1503.11 72.576 L1495.61 72.576 L1495.61 27.2059 L1503.11 27.2059 L1503.11 34.2544 Q1505.46 30.1225 1509.22 28.1376 Q1512.99 26.1121 1518.38 26.1121 Q1519.15 26.1121 1520.08 26.2337 Q1521.01 26.3147 1522.15 26.5172 L1522.19 34.1734 Z" fill="#000000" fill-rule="nonzero" fill-opacity="1" /><path clip-path="url(#clip010)" d="M1530 27.2059 L1537.46 27.2059 L1537.46 72.576 L1530 72.576 L1530 27.2059 M1530 9.54393 L1537.46 9.54393 L1537.46 18.9825 L1530 18.9825 L1530 9.54393 Z" fill="#000000" fill-rule="nonzero" fill-opacity="1" /><path clip-path="url(#clip010)" d="M1570.64 32.4315 Q1564.64 32.4315 1561.16 37.1306 Q1557.67 41.7891 1557.67 49.9314 Q1557.67 58.0738 1561.12 62.7728 Q1564.6 67.4314 1570.64 67.4314 Q1576.59 67.4314 1580.07 62.7323 Q1583.56 58.0333 1583.56 49.9314 Q1583.56 41.8701 1580.07 37.1711 Q1576.59 32.4315 1570.64 32.4315 M1570.64 26.1121 Q1580.36 26.1121 1585.91 32.4315 Q1591.46 38.7509 1591.46 49.9314 Q1591.46 61.0714 1585.91 67.4314 Q1580.36 73.7508 1570.64 73.7508 Q1560.87 73.7508 1555.32 67.4314 Q1549.81 61.0714 1549.81 49.9314 Q1549.81 38.7509 1555.32 32.4315 Q1560.87 26.1121 1570.64 26.1121 Z" fill="#000000" fill-rule="nonzero" fill-opacity="1" /><path clip-path="url(#clip010)" d="M1633.67 34.0924 L1633.67 9.54393 L1641.12 9.54393 L1641.12 72.576 L1633.67 72.576 L1633.67 65.7705 Q1631.32 69.8214 1627.71 71.8063 Q1624.15 73.7508 1619.12 73.7508 Q1610.9 73.7508 1605.72 67.1883 Q1600.57 60.6258 1600.57 49.9314 Q1600.57 39.2371 1605.72 32.6746 Q1610.9 26.1121 1619.12 26.1121 Q1624.15 26.1121 1627.71 28.0971 Q1631.32 30.0415 1633.67 34.0924 M1608.27 49.9314 Q1608.27 58.1548 1611.63 62.8538 Q1615.03 67.5124 1620.95 67.5124 Q1626.86 67.5124 1630.26 62.8538 Q1633.67 58.1548 1633.67 49.9314 Q1633.67 41.7081 1630.26 37.0496 Q1626.86 32.3505 1620.95 32.3505 Q1615.03 32.3505 1611.63 37.0496 Q1608.27 41.7081 1608.27 49.9314 Z" fill="#000000" fill-rule="nonzero" fill-opacity="1" /><path clip-path="url(#clip010)" d="M1685.4 28.5427 L1685.4 35.5912 Q1682.24 33.9709 1678.84 33.1607 Q1675.43 32.3505 1671.79 32.3505 Q1666.24 32.3505 1663.44 34.0519 Q1660.69 35.7533 1660.69 39.156 Q1660.69 41.7486 1662.67 43.2475 Q1664.66 44.7058 1670.65 46.0426 L1673.2 46.6097 Q1681.14 48.3111 1684.47 51.4303 Q1687.83 54.509 1687.83 60.0587 Q1687.83 66.3781 1682.8 70.0644 Q1677.82 73.7508 1669.07 73.7508 Q1665.43 73.7508 1661.46 73.0216 Q1657.53 72.3329 1653.15 70.9151 L1653.15 63.2184 Q1657.28 65.3654 1661.29 66.4591 Q1665.31 67.5124 1669.23 67.5124 Q1674.5 67.5124 1677.34 65.73 Q1680.17 63.9071 1680.17 60.6258 Q1680.17 57.5877 1678.11 55.9673 Q1676.08 54.3469 1669.15 52.8481 L1666.56 52.2405 Q1659.63 50.7821 1656.56 47.7845 Q1653.48 44.7463 1653.48 39.4801 Q1653.48 33.0797 1658.01 29.5959 Q1662.55 26.1121 1670.9 26.1121 Q1675.03 26.1121 1678.67 26.7198 Q1682.32 27.3274 1685.4 28.5427 Z" fill="#000000" fill-rule="nonzero" fill-opacity="1" /><path clip-path="url(#clip012)" d="M364.286 123.472 L364.286 1423.18 L413.607 1423.18 L413.607 123.472 L364.286 123.472 L364.286 123.472  Z" fill="#009af9" fill-rule="evenodd" fill-opacity="1"/>
<polyline clip-path="url(#clip012)" style="stroke:#000000; stroke-linecap:round; stroke-linejoin:round; stroke-width:4; stroke-opacity:1; fill:none" points="364.286,123.472 364.286,1423.18 413.607,1423.18 413.607,123.472 364.286,123.472 "/>
<path clip-path="url(#clip012)" d="M561.571 201.855 L561.571 1423.18 L610.893 1423.18 L610.893 201.855 L561.571 201.855 L561.571 201.855  Z" fill="#009af9" fill-rule="evenodd" fill-opacity="1"/>
<polyline clip-path="url(#clip012)" style="stroke:#000000; stroke-linecap:round; stroke-linejoin:round; stroke-width:4; stroke-opacity:1; fill:none" points="561.571,201.855 561.571,1423.18 610.893,1423.18 610.893,201.855 561.571,201.855 "/>
<path clip-path="url(#clip012)" d="M758.857 204.708 L758.857 1423.18 L808.178 1423.18 L808.178 204.708 L758.857 204.708 L758.857 204.708  Z" fill="#009af9" fill-rule="evenodd" fill-opacity="1"/>
<polyline clip-path="url(#clip012)" style="stroke:#000000; stroke-linecap:round; stroke-linejoin:round; stroke-width:4; stroke-opacity:1; fill:none" points="758.857,204.708 758.857,1423.18 808.178,1423.18 808.178,204.708 758.857,204.708 "/>
<path clip-path="url(#clip012)" d="M956.142 193.797 L956.142 1423.18 L1005.46 1423.18 L1005.46 193.797 L956.142 193.797 L956.142 193.797  Z" fill="#009af9" fill-rule="evenodd" fill-opacity="1"/>
<polyline clip-path="url(#clip012)" style="stroke:#000000; stroke-linecap:round; stroke-linejoin:round; stroke-width:4; stroke-opacity:1; fill:none" points="956.142,193.797 956.142,1423.18 1005.46,1423.18 1005.46,193.797 956.142,193.797 "/>
<path clip-path="url(#clip012)" d="M1153.43 209.052 L1153.43 1423.18 L1202.75 1423.18 L1202.75 209.052 L1153.43 209.052 L1153.43 209.052  Z" fill="#009af9" fill-rule="evenodd" fill-opacity="1"/>
<polyline clip-path="url(#clip012)" style="stroke:#000000; stroke-linecap:round; stroke-linejoin:round; stroke-width:4; stroke-opacity:1; fill:none" points="1153.43,209.052 1153.43,1423.18 1202.75,1423.18 1202.75,209.052 1153.43,209.052 "/>
<path clip-path="url(#clip012)" d="M1350.71 215.288 L1350.71 1423.18 L1400.03 1423.18 L1400.03 215.288 L1350.71 215.288 L1350.71 215.288  Z" fill="#009af9" fill-rule="evenodd" fill-opacity="1"/>
<polyline clip-path="url(#clip012)" style="stroke:#000000; stroke-linecap:round; stroke-linejoin:round; stroke-width:4; stroke-opacity:1; fill:none" points="1350.71,215.288 1350.71,1423.18 1400.03,1423.18 1400.03,215.288 1350.71,215.288 "/>
<path clip-path="url(#clip012)" d="M1548 198.805 L1548 1423.18 L1597.32 1423.18 L1597.32 198.805 L1548 198.805 L1548 198.805  Z" fill="#009af9" fill-rule="evenodd" fill-opacity="1"/>
<polyline clip-path="url(#clip012)" style="stroke:#000000; stroke-linecap:round; stroke-linejoin:round; stroke-width:4; stroke-opacity:1; fill:none" points="1548,198.805 1548,1423.18 1597.32,1423.18 1597.32,198.805 1548,198.805 "/>
<path clip-path="url(#clip012)" d="M1745.28 196.297 L1745.28 1423.18 L1794.61 1423.18 L1794.61 196.297 L1745.28 196.297 L1745.28 196.297  Z" fill="#009af9" fill-rule="evenodd" fill-opacity="1"/>
<polyline clip-path="url(#clip012)" style="stroke:#000000; stroke-linecap:round; stroke-linejoin:round; stroke-width:4; stroke-opacity:1; fill:none" points="1745.28,196.297 1745.28,1423.18 1794.61,1423.18 1794.61,196.297 1745.28,196.297 "/>
<path clip-path="url(#clip012)" d="M1942.57 197.621 L1942.57 1423.18 L1991.89 1423.18 L1991.89 197.621 L1942.57 197.621 L1942.57 197.621  Z" fill="#009af9" fill-rule="evenodd" fill-opacity="1"/>
<polyline clip-path="url(#clip012)" style="stroke:#000000; stroke-linecap:round; stroke-linejoin:round; stroke-width:4; stroke-opacity:1; fill:none" points="1942.57,197.621 1942.57,1423.18 1991.89,1423.18 1991.89,197.621 1942.57,197.621 "/>
<path clip-path="url(#clip012)" d="M2139.86 180.477 L2139.86 1423.18 L2189.18 1423.18 L2189.18 180.477 L2139.86 180.477 L2139.86 180.477  Z" fill="#009af9" fill-rule="evenodd" fill-opacity="1"/>
<polyline clip-path="url(#clip012)" style="stroke:#000000; stroke-linecap:round; stroke-linejoin:round; stroke-width:4; stroke-opacity:1; fill:none" points="2139.86,180.477 2139.86,1423.18 2189.18,1423.18 2189.18,180.477 2139.86,180.477 "/>
<circle clip-path="url(#clip012)" style="fill:#009af9; stroke:none; fill-opacity:0" cx="388.947" cy="123.472" r="2"/>
<circle clip-path="url(#clip012)" style="fill:#009af9; stroke:none; fill-opacity:0" cx="586.232" cy="201.855" r="2"/>
<circle clip-path="url(#clip012)" style="fill:#009af9; stroke:none; fill-opacity:0" cx="783.518" cy="204.708" r="2"/>
<circle clip-path="url(#clip012)" style="fill:#009af9; stroke:none; fill-opacity:0" cx="980.803" cy="193.797" r="2"/>
<circle clip-path="url(#clip012)" style="fill:#009af9; stroke:none; fill-opacity:0" cx="1178.09" cy="209.052" r="2"/>
<circle clip-path="url(#clip012)" style="fill:#009af9; stroke:none; fill-opacity:0" cx="1375.37" cy="215.288" r="2"/>
<circle clip-path="url(#clip012)" style="fill:#009af9; stroke:none; fill-opacity:0" cx="1572.66" cy="198.805" r="2"/>
<circle clip-path="url(#clip012)" style="fill:#009af9; stroke:none; fill-opacity:0" cx="1769.95" cy="196.297" r="2"/>
<circle clip-path="url(#clip012)" style="fill:#009af9; stroke:none; fill-opacity:0" cx="1967.23" cy="197.621" r="2"/>
<circle clip-path="url(#clip012)" style="fill:#009af9; stroke:none; fill-opacity:0" cx="2164.52" cy="180.477" r="2"/>
<path clip-path="url(#clip012)" d="M413.607 400.75 L413.607 1423.18 L462.929 1423.18 L462.929 400.75 L413.607 400.75 L413.607 400.75  Z" fill="#e26f46" fill-rule="evenodd" fill-opacity="1"/>
<polyline clip-path="url(#clip012)" style="stroke:#000000; stroke-linecap:round; stroke-linejoin:round; stroke-width:4; stroke-opacity:1; fill:none" points="413.607,400.75 413.607,1423.18 462.929,1423.18 462.929,400.75 413.607,400.75 "/>
<path clip-path="url(#clip012)" d="M610.893 635.684 L610.893 1423.18 L660.214 1423.18 L660.214 635.684 L610.893 635.684 L610.893 635.684  Z" fill="#e26f46" fill-rule="evenodd" fill-opacity="1"/>
<polyline clip-path="url(#clip012)" style="stroke:#000000; stroke-linecap:round; stroke-linejoin:round; stroke-width:4; stroke-opacity:1; fill:none" points="610.893,635.684 610.893,1423.18 660.214,1423.18 660.214,635.684 610.893,635.684 "/>
<path clip-path="url(#clip012)" d="M808.178 657.195 L808.178 1423.18 L857.5 1423.18 L857.5 657.195 L808.178 657.195 L808.178 657.195  Z" fill="#e26f46" fill-rule="evenodd" fill-opacity="1"/>
<polyline clip-path="url(#clip012)" style="stroke:#000000; stroke-linecap:round; stroke-linejoin:round; stroke-width:4; stroke-opacity:1; fill:none" points="808.178,657.195 808.178,1423.18 857.5,1423.18 857.5,657.195 808.178,657.195 "/>
<path clip-path="url(#clip012)" d="M1005.46 671.621 L1005.46 1423.18 L1054.79 1423.18 L1054.79 671.621 L1005.46 671.621 L1005.46 671.621  Z" fill="#e26f46" fill-rule="evenodd" fill-opacity="1"/>
<polyline clip-path="url(#clip012)" style="stroke:#000000; stroke-linecap:round; stroke-linejoin:round; stroke-width:4; stroke-opacity:1; fill:none" points="1005.46,671.621 1005.46,1423.18 1054.79,1423.18 1054.79,671.621 1005.46,671.621 "/>
<path clip-path="url(#clip012)" d="M1202.75 680.07 L1202.75 1423.18 L1252.07 1423.18 L1252.07 680.07 L1202.75 680.07 L1202.75 680.07  Z" fill="#e26f46" fill-rule="evenodd" fill-opacity="1"/>
<polyline clip-path="url(#clip012)" style="stroke:#000000; stroke-linecap:round; stroke-linejoin:round; stroke-width:4; stroke-opacity:1; fill:none" points="1202.75,680.07 1202.75,1423.18 1252.07,1423.18 1252.07,680.07 1202.75,680.07 "/>
<path clip-path="url(#clip012)" d="M1400.03 690.674 L1400.03 1423.18 L1449.36 1423.18 L1449.36 690.674 L1400.03 690.674 L1400.03 690.674  Z" fill="#e26f46" fill-rule="evenodd" fill-opacity="1"/>
<polyline clip-path="url(#clip012)" style="stroke:#000000; stroke-linecap:round; stroke-linejoin:round; stroke-width:4; stroke-opacity:1; fill:none" points="1400.03,690.674 1400.03,1423.18 1449.36,1423.18 1449.36,690.674 1400.03,690.674 "/>
<path clip-path="url(#clip012)" d="M1597.32 696.736 L1597.32 1423.18 L1646.64 1423.18 L1646.64 696.736 L1597.32 696.736 L1597.32 696.736  Z" fill="#e26f46" fill-rule="evenodd" fill-opacity="1"/>
<polyline clip-path="url(#clip012)" style="stroke:#000000; stroke-linecap:round; stroke-linejoin:round; stroke-width:4; stroke-opacity:1; fill:none" points="1597.32,696.736 1597.32,1423.18 1646.64,1423.18 1646.64,696.736 1597.32,696.736 "/>
<path clip-path="url(#clip012)" d="M1794.61 703.695 L1794.61 1423.18 L1843.93 1423.18 L1843.93 703.695 L1794.61 703.695 L1794.61 703.695  Z" fill="#e26f46" fill-rule="evenodd" fill-opacity="1"/>
<polyline clip-path="url(#clip012)" style="stroke:#000000; stroke-linecap:round; stroke-linejoin:round; stroke-width:4; stroke-opacity:1; fill:none" points="1794.61,703.695 1794.61,1423.18 1843.93,1423.18 1843.93,703.695 1794.61,703.695 "/>
<path clip-path="url(#clip012)" d="M1991.89 717.743 L1991.89 1423.18 L2041.21 1423.18 L2041.21 717.743 L1991.89 717.743 L1991.89 717.743  Z" fill="#e26f46" fill-rule="evenodd" fill-opacity="1"/>
<polyline clip-path="url(#clip012)" style="stroke:#000000; stroke-linecap:round; stroke-linejoin:round; stroke-width:4; stroke-opacity:1; fill:none" points="1991.89,717.743 1991.89,1423.18 2041.21,1423.18 2041.21,717.743 1991.89,717.743 "/>
<path clip-path="url(#clip012)" d="M2189.18 726.821 L2189.18 1423.18 L2238.5 1423.18 L2238.5 726.821 L2189.18 726.821 L2189.18 726.821  Z" fill="#e26f46" fill-rule="evenodd" fill-opacity="1"/>
<polyline clip-path="url(#clip012)" style="stroke:#000000; stroke-linecap:round; stroke-linejoin:round; stroke-width:4; stroke-opacity:1; fill:none" points="2189.18,726.821 2189.18,1423.18 2238.5,1423.18 2238.5,726.821 2189.18,726.821 "/>
<circle clip-path="url(#clip012)" style="fill:#e26f46; stroke:none; fill-opacity:0" cx="438.268" cy="400.75" r="2"/>
<circle clip-path="url(#clip012)" style="fill:#e26f46; stroke:none; fill-opacity:0" cx="635.554" cy="635.684" r="2"/>
<circle clip-path="url(#clip012)" style="fill:#e26f46; stroke:none; fill-opacity:0" cx="832.839" cy="657.195" r="2"/>
<circle clip-path="url(#clip012)" style="fill:#e26f46; stroke:none; fill-opacity:0" cx="1030.12" cy="671.621" r="2"/>
<circle clip-path="url(#clip012)" style="fill:#e26f46; stroke:none; fill-opacity:0" cx="1227.41" cy="680.07" r="2"/>
<circle clip-path="url(#clip012)" style="fill:#e26f46; stroke:none; fill-opacity:0" cx="1424.7" cy="690.674" r="2"/>
<circle clip-path="url(#clip012)" style="fill:#e26f46; stroke:none; fill-opacity:0" cx="1621.98" cy="696.736" r="2"/>
<circle clip-path="url(#clip012)" style="fill:#e26f46; stroke:none; fill-opacity:0" cx="1819.27" cy="703.695" r="2"/>
<circle clip-path="url(#clip012)" style="fill:#e26f46; stroke:none; fill-opacity:0" cx="2016.55" cy="717.743" r="2"/>
<circle clip-path="url(#clip012)" style="fill:#e26f46; stroke:none; fill-opacity:0" cx="2213.84" cy="726.821" r="2"/>
</svg>
