<?xml version="1.0" encoding="utf-8"?>
<svg xmlns="http://www.w3.org/2000/svg" xmlns:xlink="http://www.w3.org/1999/xlink" width="600" height="400" viewBox="0 0 2400 1600">
<defs>
  <clipPath id="clip880">
    <rect x="0" y="0" width="2400" height="1600"/>
  </clipPath>
</defs>
<path clip-path="url(#clip880)" d="M0 1600 L2400 1600 L2400 8.88178e-14 L0 8.88178e-14  Z" fill="#ffffff" fill-rule="evenodd" fill-opacity="1"/>
<defs>
  <clipPath id="clip881">
    <rect x="480" y="0" width="1681" height="1600"/>
  </clipPath>
</defs>
<path clip-path="url(#clip880)" d="M249.542 1423.18 L2352.76 1423.18 L2352.76 123.472 L249.542 123.472  Z" fill="#ffffff" fill-rule="evenodd" fill-opacity="1"/>
<defs>
  <clipPath id="clip882">
    <rect x="249" y="123" width="2104" height="1301"/>
  </clipPath>
</defs>
<polyline clip-path="url(#clip882)" style="stroke:#000000; stroke-linecap:round; stroke-linejoin:round; stroke-width:2; stroke-opacity:0.1; fill:none" points="309.067,1423.18 309.067,123.472 "/>
<polyline clip-path="url(#clip882)" style="stroke:#000000; stroke-linecap:round; stroke-linejoin:round; stroke-width:2; stroke-opacity:0.1; fill:none" points="529.53,1423.18 529.53,123.472 "/>
<polyline clip-path="url(#clip882)" style="stroke:#000000; stroke-linecap:round; stroke-linejoin:round; stroke-width:2; stroke-opacity:0.1; fill:none" points="749.992,1423.18 749.992,123.472 "/>
<polyline clip-path="url(#clip882)" style="stroke:#000000; stroke-linecap:round; stroke-linejoin:round; stroke-width:2; stroke-opacity:0.1; fill:none" points="970.455,1423.18 970.455,123.472 "/>
<polyline clip-path="url(#clip882)" style="stroke:#000000; stroke-linecap:round; stroke-linejoin:round; stroke-width:2; stroke-opacity:0.1; fill:none" points="1190.92,1423.18 1190.92,123.472 "/>
<polyline clip-path="url(#clip882)" style="stroke:#000000; stroke-linecap:round; stroke-linejoin:round; stroke-width:2; stroke-opacity:0.1; fill:none" points="1411.38,1423.18 1411.38,123.472 "/>
<polyline clip-path="url(#clip882)" style="stroke:#000000; stroke-linecap:round; stroke-linejoin:round; stroke-width:2; stroke-opacity:0.1; fill:none" points="1631.84,1423.18 1631.84,123.472 "/>
<polyline clip-path="url(#clip882)" style="stroke:#000000; stroke-linecap:round; stroke-linejoin:round; stroke-width:2; stroke-opacity:0.1; fill:none" points="1852.31,1423.18 1852.31,123.472 "/>
<polyline clip-path="url(#clip882)" style="stroke:#000000; stroke-linecap:round; stroke-linejoin:round; stroke-width:2; stroke-opacity:0.1; fill:none" points="2072.77,1423.18 2072.77,123.472 "/>
<polyline clip-path="url(#clip882)" style="stroke:#000000; stroke-linecap:round; stroke-linejoin:round; stroke-width:2; stroke-opacity:0.1; fill:none" points="2293.23,1423.18 2293.23,123.472 "/>
<polyline clip-path="url(#clip882)" style="stroke:#000000; stroke-linecap:round; stroke-linejoin:round; stroke-width:2; stroke-opacity:0.1; fill:none" points="2352.76,1255 249.542,1255 "/>
<polyline clip-path="url(#clip882)" style="stroke:#000000; stroke-linecap:round; stroke-linejoin:round; stroke-width:2; stroke-opacity:0.1; fill:none" points="2352.76,1061.68 249.542,1061.68 "/>
<polyline clip-path="url(#clip882)" style="stroke:#000000; stroke-linecap:round; stroke-linejoin:round; stroke-width:2; stroke-opacity:0.1; fill:none" points="2352.76,868.363 249.542,868.363 "/>
<polyline clip-path="url(#clip882)" style="stroke:#000000; stroke-linecap:round; stroke-linejoin:round; stroke-width:2; stroke-opacity:0.1; fill:none" points="2352.76,675.044 249.542,675.044 "/>
<polyline clip-path="url(#clip882)" style="stroke:#000000; stroke-linecap:round; stroke-linejoin:round; stroke-width:2; stroke-opacity:0.1; fill:none" points="2352.76,481.725 249.542,481.725 "/>
<polyline clip-path="url(#clip882)" style="stroke:#000000; stroke-linecap:round; stroke-linejoin:round; stroke-width:2; stroke-opacity:0.1; fill:none" points="2352.76,288.406 249.542,288.406 "/>
<polyline clip-path="url(#clip880)" style="stroke:#000000; stroke-linecap:round; stroke-linejoin:round; stroke-width:4; stroke-opacity:1; fill:none" points="2352.76,1423.18 249.542,1423.18 "/>
<polyline clip-path="url(#clip880)" style="stroke:#000000; stroke-linecap:round; stroke-linejoin:round; stroke-width:4; stroke-opacity:1; fill:none" points="309.067,1423.18 309.067,1404.28 "/>
<polyline clip-path="url(#clip880)" style="stroke:#000000; stroke-linecap:round; stroke-linejoin:round; stroke-width:4; stroke-opacity:1; fill:none" points="529.53,1423.18 529.53,1404.28 "/>
<polyline clip-path="url(#clip880)" style="stroke:#000000; stroke-linecap:round; stroke-linejoin:round; stroke-width:4; stroke-opacity:1; fill:none" points="749.992,1423.18 749.992,1404.28 "/>
<polyline clip-path="url(#clip880)" style="stroke:#000000; stroke-linecap:round; stroke-linejoin:round; stroke-width:4; stroke-opacity:1; fill:none" points="970.455,1423.18 970.455,1404.28 "/>
<polyline clip-path="url(#clip880)" style="stroke:#000000; stroke-linecap:round; stroke-linejoin:round; stroke-width:4; stroke-opacity:1; fill:none" points="1190.92,1423.18 1190.92,1404.28 "/>
<polyline clip-path="url(#clip880)" style="stroke:#000000; stroke-linecap:round; stroke-linejoin:round; stroke-width:4; stroke-opacity:1; fill:none" points="1411.38,1423.18 1411.38,1404.28 "/>
<polyline clip-path="url(#clip880)" style="stroke:#000000; stroke-linecap:round; stroke-linejoin:round; stroke-width:4; stroke-opacity:1; fill:none" points="1631.84,1423.18 1631.84,1404.28 "/>
<polyline clip-path="url(#clip880)" style="stroke:#000000; stroke-linecap:round; stroke-linejoin:round; stroke-width:4; stroke-opacity:1; fill:none" points="1852.31,1423.18 1852.31,1404.28 "/>
<polyline clip-path="url(#clip880)" style="stroke:#000000; stroke-linecap:round; stroke-linejoin:round; stroke-width:4; stroke-opacity:1; fill:none" points="2072.77,1423.18 2072.77,1404.28 "/>
<polyline clip-path="url(#clip880)" style="stroke:#000000; stroke-linecap:round; stroke-linejoin:round; stroke-width:4; stroke-opacity:1; fill:none" points="2293.23,1423.18 2293.23,1404.28 "/>
<path clip-path="url(#clip880)" d="M284.692 1484.86 L284.692 1480.6 Q286.451 1481.44 288.257 1481.88 Q290.062 1482.32 291.799 1482.32 Q296.428 1482.32 298.859 1479.21 Q301.312 1476.09 301.66 1469.75 Q300.317 1471.74 298.257 1472.8 Q296.197 1473.87 293.697 1473.87 Q288.512 1473.87 285.479 1470.74 Q282.47 1467.59 282.47 1462.15 Q282.47 1456.83 285.618 1453.61 Q288.766 1450.39 293.998 1450.39 Q299.993 1450.39 303.141 1455 Q306.312 1459.58 306.312 1468.33 Q306.312 1476.51 302.423 1481.39 Q298.558 1486.25 292.007 1486.25 Q290.248 1486.25 288.442 1485.9 Q286.637 1485.56 284.692 1484.86 M293.998 1470.21 Q297.146 1470.21 298.974 1468.06 Q300.826 1465.9 300.826 1462.15 Q300.826 1458.43 298.974 1456.27 Q297.146 1454.1 293.998 1454.1 Q290.849 1454.1 288.998 1456.27 Q287.169 1458.43 287.169 1462.15 Q287.169 1465.9 288.998 1468.06 Q290.849 1470.21 293.998 1470.21 Z" fill="#000000" fill-rule="nonzero" fill-opacity="1" /><path clip-path="url(#clip880)" d="M314.761 1451.02 L333.118 1451.02 L333.118 1454.96 L319.044 1454.96 L319.044 1463.43 Q320.062 1463.08 321.081 1462.92 Q322.099 1462.73 323.118 1462.73 Q328.905 1462.73 332.284 1465.9 Q335.664 1469.08 335.664 1474.49 Q335.664 1480.07 332.192 1483.17 Q328.72 1486.25 322.4 1486.25 Q320.224 1486.25 317.956 1485.88 Q315.71 1485.51 313.303 1484.77 L313.303 1480.07 Q315.386 1481.2 317.609 1481.76 Q319.831 1482.32 322.308 1482.32 Q326.312 1482.32 328.65 1480.21 Q330.988 1478.1 330.988 1474.49 Q330.988 1470.88 328.65 1468.77 Q326.312 1466.67 322.308 1466.67 Q320.433 1466.67 318.558 1467.08 Q316.706 1467.5 314.761 1468.38 L314.761 1451.02 Z" fill="#000000" fill-rule="nonzero" fill-opacity="1" /><path clip-path="url(#clip880)" d="M514.9 1469.17 Q511.567 1469.17 509.645 1470.95 Q507.747 1472.73 507.747 1475.86 Q507.747 1478.98 509.645 1480.77 Q511.567 1482.55 514.9 1482.55 Q518.233 1482.55 520.155 1480.77 Q522.076 1478.96 522.076 1475.86 Q522.076 1472.73 520.155 1470.95 Q518.257 1469.17 514.9 1469.17 M510.224 1467.18 Q507.215 1466.44 505.525 1464.38 Q503.858 1462.32 503.858 1459.35 Q503.858 1455.21 506.798 1452.8 Q509.761 1450.39 514.9 1450.39 Q520.062 1450.39 523.002 1452.8 Q525.942 1455.21 525.942 1459.35 Q525.942 1462.32 524.252 1464.38 Q522.585 1466.44 519.599 1467.18 Q522.979 1467.96 524.854 1470.26 Q526.752 1472.55 526.752 1475.86 Q526.752 1480.88 523.673 1483.57 Q520.618 1486.25 514.9 1486.25 Q509.183 1486.25 506.104 1483.57 Q503.048 1480.88 503.048 1475.86 Q503.048 1472.55 504.946 1470.26 Q506.845 1467.96 510.224 1467.18 M508.511 1459.79 Q508.511 1462.48 510.178 1463.98 Q511.868 1465.49 514.9 1465.49 Q517.909 1465.49 519.599 1463.98 Q521.312 1462.48 521.312 1459.79 Q521.312 1457.11 519.599 1455.6 Q517.909 1454.1 514.9 1454.1 Q511.868 1454.1 510.178 1455.6 Q508.511 1457.11 508.511 1459.79 Z" fill="#000000" fill-rule="nonzero" fill-opacity="1" /><path clip-path="url(#clip880)" d="M535.108 1451.02 L553.465 1451.02 L553.465 1454.96 L539.391 1454.96 L539.391 1463.43 Q540.409 1463.08 541.428 1462.92 Q542.446 1462.73 543.465 1462.73 Q549.252 1462.73 552.631 1465.9 Q556.011 1469.08 556.011 1474.49 Q556.011 1480.07 552.539 1483.17 Q549.067 1486.25 542.747 1486.25 Q540.571 1486.25 538.303 1485.88 Q536.057 1485.51 533.65 1484.77 L533.65 1480.07 Q535.733 1481.2 537.956 1481.76 Q540.178 1482.32 542.655 1482.32 Q546.659 1482.32 548.997 1480.21 Q551.335 1478.1 551.335 1474.49 Q551.335 1470.88 548.997 1468.77 Q546.659 1466.67 542.655 1466.67 Q540.78 1466.67 538.905 1467.08 Q537.053 1467.5 535.108 1468.38 L535.108 1451.02 Z" fill="#000000" fill-rule="nonzero" fill-opacity="1" /><path clip-path="url(#clip880)" d="M723.847 1451.02 L746.069 1451.02 L746.069 1453.01 L733.522 1485.58 L728.638 1485.58 L740.444 1454.96 L723.847 1454.96 L723.847 1451.02 Z" fill="#000000" fill-rule="nonzero" fill-opacity="1" /><path clip-path="url(#clip880)" d="M755.235 1451.02 L773.592 1451.02 L773.592 1454.96 L759.518 1454.96 L759.518 1463.43 Q760.536 1463.08 761.555 1462.92 Q762.573 1462.73 763.592 1462.73 Q769.379 1462.73 772.758 1465.9 Q776.138 1469.08 776.138 1474.49 Q776.138 1480.07 772.666 1483.17 Q769.194 1486.25 762.874 1486.25 Q760.698 1486.25 758.43 1485.88 Q756.184 1485.51 753.777 1484.77 L753.777 1480.07 Q755.86 1481.2 758.083 1481.76 Q760.305 1482.32 762.782 1482.32 Q766.786 1482.32 769.124 1480.21 Q771.462 1478.1 771.462 1474.49 Q771.462 1470.88 769.124 1468.77 Q766.786 1466.67 762.782 1466.67 Q760.907 1466.67 759.032 1467.08 Q757.18 1467.5 755.235 1468.38 L755.235 1451.02 Z" fill="#000000" fill-rule="nonzero" fill-opacity="1" /><path clip-path="url(#clip880)" d="M956.358 1466.44 Q953.21 1466.44 951.358 1468.59 Q949.529 1470.74 949.529 1474.49 Q949.529 1478.22 951.358 1480.39 Q953.21 1482.55 956.358 1482.55 Q959.506 1482.55 961.335 1480.39 Q963.186 1478.22 963.186 1474.49 Q963.186 1470.74 961.335 1468.59 Q959.506 1466.44 956.358 1466.44 M965.64 1451.78 L965.64 1456.04 Q963.881 1455.21 962.075 1454.77 Q960.293 1454.33 958.534 1454.33 Q953.904 1454.33 951.45 1457.45 Q949.02 1460.58 948.673 1466.9 Q950.038 1464.89 952.099 1463.82 Q954.159 1462.73 956.636 1462.73 Q961.844 1462.73 964.853 1465.9 Q967.886 1469.05 967.886 1474.49 Q967.886 1479.82 964.737 1483.03 Q961.589 1486.25 956.358 1486.25 Q950.362 1486.25 947.191 1481.67 Q944.02 1477.06 944.02 1468.33 Q944.02 1460.14 947.909 1455.28 Q951.798 1450.39 958.349 1450.39 Q960.108 1450.39 961.89 1450.74 Q963.696 1451.09 965.64 1451.78 Z" fill="#000000" fill-rule="nonzero" fill-opacity="1" /><path clip-path="url(#clip880)" d="M975.987 1451.02 L994.344 1451.02 L994.344 1454.96 L980.27 1454.96 L980.27 1463.43 Q981.288 1463.08 982.307 1462.92 Q983.325 1462.73 984.344 1462.73 Q990.131 1462.73 993.51 1465.9 Q996.89 1469.08 996.89 1474.49 Q996.89 1480.07 993.418 1483.17 Q989.946 1486.25 983.626 1486.25 Q981.45 1486.25 979.182 1485.88 Q976.936 1485.51 974.529 1484.77 L974.529 1480.07 Q976.612 1481.2 978.835 1481.76 Q981.057 1482.32 983.534 1482.32 Q987.538 1482.32 989.876 1480.21 Q992.214 1478.1 992.214 1474.49 Q992.214 1470.88 989.876 1468.77 Q987.538 1466.67 983.534 1466.67 Q981.659 1466.67 979.784 1467.08 Q977.932 1467.5 975.987 1468.38 L975.987 1451.02 Z" fill="#000000" fill-rule="nonzero" fill-opacity="1" /><path clip-path="url(#clip880)" d="M1166.11 1451.02 L1184.47 1451.02 L1184.47 1454.96 L1170.4 1454.96 L1170.4 1463.43 Q1171.42 1463.08 1172.43 1462.92 Q1173.45 1462.73 1174.47 1462.73 Q1180.26 1462.73 1183.64 1465.9 Q1187.02 1469.08 1187.02 1474.49 Q1187.02 1480.07 1183.54 1483.17 Q1180.07 1486.25 1173.75 1486.25 Q1171.58 1486.25 1169.31 1485.88 Q1167.06 1485.51 1164.66 1484.77 L1164.66 1480.07 Q1166.74 1481.2 1168.96 1481.76 Q1171.18 1482.32 1173.66 1482.32 Q1177.67 1482.32 1180 1480.21 Q1182.34 1478.1 1182.34 1474.49 Q1182.34 1470.88 1180 1468.77 Q1177.67 1466.67 1173.66 1466.67 Q1171.79 1466.67 1169.91 1467.08 Q1168.06 1467.5 1166.11 1468.38 L1166.11 1451.02 Z" fill="#000000" fill-rule="nonzero" fill-opacity="1" /><path clip-path="url(#clip880)" d="M1196.28 1451.02 L1214.63 1451.02 L1214.63 1454.96 L1200.56 1454.96 L1200.56 1463.43 Q1201.58 1463.08 1202.6 1462.92 Q1203.61 1462.73 1204.63 1462.73 Q1210.42 1462.73 1213.8 1465.9 Q1217.18 1469.08 1217.18 1474.49 Q1217.18 1480.07 1213.71 1483.17 Q1210.23 1486.25 1203.92 1486.25 Q1201.74 1486.25 1199.47 1485.88 Q1197.23 1485.51 1194.82 1484.77 L1194.82 1480.07 Q1196.9 1481.2 1199.12 1481.76 Q1201.35 1482.32 1203.82 1482.32 Q1207.83 1482.32 1210.17 1480.21 Q1212.5 1478.1 1212.5 1474.49 Q1212.5 1470.88 1210.17 1468.77 Q1207.83 1466.67 1203.82 1466.67 Q1201.95 1466.67 1200.07 1467.08 Q1198.22 1467.5 1196.28 1468.38 L1196.28 1451.02 Z" fill="#000000" fill-rule="nonzero" fill-opacity="1" /><path clip-path="url(#clip880)" d="M1400.05 1455.09 L1388.24 1473.54 L1400.05 1473.54 L1400.05 1455.09 M1398.82 1451.02 L1404.7 1451.02 L1404.7 1473.54 L1409.63 1473.54 L1409.63 1477.43 L1404.7 1477.43 L1404.7 1485.58 L1400.05 1485.58 L1400.05 1477.43 L1384.45 1477.43 L1384.45 1472.92 L1398.82 1451.02 Z" fill="#000000" fill-rule="nonzero" fill-opacity="1" /><path clip-path="url(#clip880)" d="M1417.41 1451.02 L1435.77 1451.02 L1435.77 1454.96 L1421.69 1454.96 L1421.69 1463.43 Q1422.71 1463.08 1423.73 1462.92 Q1424.75 1462.73 1425.77 1462.73 Q1431.55 1462.73 1434.93 1465.9 Q1438.31 1469.08 1438.31 1474.49 Q1438.31 1480.07 1434.84 1483.17 Q1431.37 1486.25 1425.05 1486.25 Q1422.87 1486.25 1420.6 1485.88 Q1418.36 1485.51 1415.95 1484.77 L1415.95 1480.07 Q1418.04 1481.2 1420.26 1481.76 Q1422.48 1482.32 1424.96 1482.32 Q1428.96 1482.32 1431.3 1480.21 Q1433.64 1478.1 1433.64 1474.49 Q1433.64 1470.88 1431.3 1468.77 Q1428.96 1466.67 1424.96 1466.67 Q1423.08 1466.67 1421.21 1467.08 Q1419.35 1467.5 1417.41 1468.38 L1417.41 1451.02 Z" fill="#000000" fill-rule="nonzero" fill-opacity="1" /><path clip-path="url(#clip880)" d="M1621.18 1466.95 Q1624.54 1467.66 1626.41 1469.93 Q1628.31 1472.2 1628.31 1475.53 Q1628.31 1480.65 1624.79 1483.45 Q1621.28 1486.25 1614.79 1486.25 Q1612.62 1486.25 1610.3 1485.81 Q1608.01 1485.39 1605.56 1484.54 L1605.56 1480.02 Q1607.5 1481.16 1609.82 1481.74 Q1612.13 1482.32 1614.66 1482.32 Q1619.05 1482.32 1621.35 1480.58 Q1623.66 1478.84 1623.66 1475.53 Q1623.66 1472.48 1621.51 1470.77 Q1619.38 1469.03 1615.56 1469.03 L1611.53 1469.03 L1611.53 1465.19 L1615.74 1465.19 Q1619.19 1465.19 1621.02 1463.82 Q1622.85 1462.43 1622.85 1459.84 Q1622.85 1457.18 1620.95 1455.77 Q1619.08 1454.33 1615.56 1454.33 Q1613.64 1454.33 1611.44 1454.75 Q1609.24 1455.16 1606.6 1456.04 L1606.6 1451.88 Q1609.26 1451.14 1611.58 1450.77 Q1613.91 1450.39 1615.98 1450.39 Q1621.3 1450.39 1624.4 1452.83 Q1627.5 1455.23 1627.5 1459.35 Q1627.5 1462.22 1625.86 1464.21 Q1624.22 1466.18 1621.18 1466.95 Z" fill="#000000" fill-rule="nonzero" fill-opacity="1" /><path clip-path="url(#clip880)" d="M1637.22 1451.02 L1655.58 1451.02 L1655.58 1454.96 L1641.51 1454.96 L1641.51 1463.43 Q1642.53 1463.08 1643.54 1462.92 Q1644.56 1462.73 1645.58 1462.73 Q1651.37 1462.73 1654.75 1465.9 Q1658.13 1469.08 1658.13 1474.49 Q1658.13 1480.07 1654.66 1483.17 Q1651.18 1486.25 1644.86 1486.25 Q1642.69 1486.25 1640.42 1485.88 Q1638.17 1485.51 1635.77 1484.77 L1635.77 1480.07 Q1637.85 1481.2 1640.07 1481.76 Q1642.29 1482.32 1644.77 1482.32 Q1648.78 1482.32 1651.11 1480.21 Q1653.45 1478.1 1653.45 1474.49 Q1653.45 1470.88 1651.11 1468.77 Q1648.78 1466.67 1644.77 1466.67 Q1642.9 1466.67 1641.02 1467.08 Q1639.17 1467.5 1637.22 1468.38 L1637.22 1451.02 Z" fill="#000000" fill-rule="nonzero" fill-opacity="1" /><path clip-path="url(#clip880)" d="M1831.58 1481.64 L1847.9 1481.64 L1847.9 1485.58 L1825.95 1485.58 L1825.95 1481.64 Q1828.61 1478.89 1833.2 1474.26 Q1837.8 1469.61 1838.98 1468.27 Q1841.23 1465.74 1842.11 1464.01 Q1843.01 1462.25 1843.01 1460.56 Q1843.01 1457.8 1841.07 1456.07 Q1839.15 1454.33 1836.04 1454.33 Q1833.85 1454.33 1831.39 1455.09 Q1828.96 1455.86 1826.18 1457.41 L1826.18 1452.69 Q1829.01 1451.55 1831.46 1450.97 Q1833.91 1450.39 1835.95 1450.39 Q1841.32 1450.39 1844.52 1453.08 Q1847.71 1455.77 1847.71 1460.26 Q1847.71 1462.39 1846.9 1464.31 Q1846.11 1466.2 1844.01 1468.8 Q1843.43 1469.47 1840.33 1472.69 Q1837.22 1475.88 1831.58 1481.64 Z" fill="#000000" fill-rule="nonzero" fill-opacity="1" /><path clip-path="url(#clip880)" d="M1857.76 1451.02 L1876.11 1451.02 L1876.11 1454.96 L1862.04 1454.96 L1862.04 1463.43 Q1863.06 1463.08 1864.08 1462.92 Q1865.09 1462.73 1866.11 1462.73 Q1871.9 1462.73 1875.28 1465.9 Q1878.66 1469.08 1878.66 1474.49 Q1878.66 1480.07 1875.19 1483.17 Q1871.72 1486.25 1865.4 1486.25 Q1863.22 1486.25 1860.95 1485.88 Q1858.71 1485.51 1856.3 1484.77 L1856.3 1480.07 Q1858.38 1481.2 1860.6 1481.76 Q1862.83 1482.32 1865.3 1482.32 Q1869.31 1482.32 1871.65 1480.21 Q1873.98 1478.1 1873.98 1474.49 Q1873.98 1470.88 1871.65 1468.77 Q1869.31 1466.67 1865.3 1466.67 Q1863.43 1466.67 1861.55 1467.08 Q1859.7 1467.5 1857.76 1468.38 L1857.76 1451.02 Z" fill="#000000" fill-rule="nonzero" fill-opacity="1" /><path clip-path="url(#clip880)" d="M2047.95 1481.64 L2055.59 1481.64 L2055.59 1455.28 L2047.28 1456.95 L2047.28 1452.69 L2055.55 1451.02 L2060.22 1451.02 L2060.22 1481.64 L2067.86 1481.64 L2067.86 1485.58 L2047.95 1485.58 L2047.95 1481.64 Z" fill="#000000" fill-rule="nonzero" fill-opacity="1" /><path clip-path="url(#clip880)" d="M2077.35 1451.02 L2095.71 1451.02 L2095.71 1454.96 L2081.63 1454.96 L2081.63 1463.43 Q2082.65 1463.08 2083.67 1462.92 Q2084.69 1462.73 2085.71 1462.73 Q2091.5 1462.73 2094.87 1465.9 Q2098.25 1469.08 2098.25 1474.49 Q2098.25 1480.07 2094.78 1483.17 Q2091.31 1486.25 2084.99 1486.25 Q2082.81 1486.25 2080.55 1485.88 Q2078.3 1485.51 2075.89 1484.77 L2075.89 1480.07 Q2077.98 1481.2 2080.2 1481.76 Q2082.42 1482.32 2084.9 1482.32 Q2088.9 1482.32 2091.24 1480.21 Q2093.58 1478.1 2093.58 1474.49 Q2093.58 1470.88 2091.24 1468.77 Q2088.9 1466.67 2084.9 1466.67 Q2083.02 1466.67 2081.15 1467.08 Q2079.3 1467.5 2077.35 1468.38 L2077.35 1451.02 Z" fill="#000000" fill-rule="nonzero" fill-opacity="1" /><path clip-path="url(#clip880)" d="M2283.51 1451.02 L2301.87 1451.02 L2301.87 1454.96 L2287.79 1454.96 L2287.79 1463.43 Q2288.81 1463.08 2289.83 1462.92 Q2290.85 1462.73 2291.87 1462.73 Q2297.65 1462.73 2301.03 1465.9 Q2304.41 1469.08 2304.41 1474.49 Q2304.41 1480.07 2300.94 1483.17 Q2297.47 1486.25 2291.15 1486.25 Q2288.97 1486.25 2286.7 1485.88 Q2284.46 1485.51 2282.05 1484.77 L2282.05 1480.07 Q2284.13 1481.2 2286.36 1481.76 Q2288.58 1482.32 2291.06 1482.32 Q2295.06 1482.32 2297.4 1480.21 Q2299.74 1478.1 2299.74 1474.49 Q2299.74 1470.88 2297.4 1468.77 Q2295.06 1466.67 2291.06 1466.67 Q2289.18 1466.67 2287.31 1467.08 Q2285.45 1467.5 2283.51 1468.38 L2283.51 1451.02 Z" fill="#000000" fill-rule="nonzero" fill-opacity="1" /><path clip-path="url(#clip880)" d="M1099.44 1547.13 Q1096.67 1547.13 1095.08 1549.49 Q1093.52 1551.84 1093.52 1556.04 Q1093.52 1560.18 1095.08 1562.57 Q1096.67 1564.92 1099.44 1564.92 Q1102.14 1564.92 1103.7 1562.57 Q1105.29 1560.18 1105.29 1556.04 Q1105.29 1551.87 1103.7 1549.52 Q1102.14 1547.13 1099.44 1547.13 M1099.44 1543.09 Q1104.46 1543.09 1107.42 1546.59 Q1110.38 1550.09 1110.38 1556.04 Q1110.38 1562 1107.39 1565.5 Q1104.43 1568.97 1099.44 1568.97 Q1094.34 1568.97 1091.38 1565.5 Q1088.42 1562 1088.42 1556.04 Q1088.42 1550.06 1091.38 1546.59 Q1094.37 1543.09 1099.44 1543.09 M1066.59 1523.71 Q1063.85 1523.71 1062.26 1526.09 Q1060.7 1528.45 1060.7 1532.59 Q1060.7 1536.79 1062.26 1539.14 Q1063.82 1541.5 1066.59 1541.5 Q1069.36 1541.5 1070.92 1539.14 Q1072.51 1536.79 1072.51 1532.59 Q1072.51 1528.48 1070.92 1526.09 Q1069.33 1523.71 1066.59 1523.71 M1095.33 1519.66 L1100.42 1519.66 L1070.69 1568.97 L1065.6 1568.97 L1095.33 1519.66 M1066.59 1519.66 Q1071.62 1519.66 1074.61 1523.17 Q1077.6 1526.63 1077.6 1532.59 Q1077.6 1538.6 1074.61 1542.07 Q1071.65 1545.54 1066.59 1545.54 Q1061.53 1545.54 1058.57 1542.07 Q1055.64 1538.57 1055.64 1532.59 Q1055.64 1526.67 1058.6 1523.17 Q1061.56 1519.66 1066.59 1519.66 Z" fill="#000000" fill-rule="nonzero" fill-opacity="1" /><path clip-path="url(#clip880)" d="M1164.3 1537.81 L1164.3 1518.52 L1170.16 1518.52 L1170.16 1568.04 L1164.3 1568.04 L1164.3 1562.7 Q1162.46 1565.88 1159.62 1567.44 Q1156.82 1568.97 1152.88 1568.97 Q1146.41 1568.97 1142.34 1563.81 Q1138.3 1558.65 1138.3 1550.25 Q1138.3 1541.85 1142.34 1536.69 Q1146.41 1531.54 1152.88 1531.54 Q1156.82 1531.54 1159.62 1533.1 Q1162.46 1534.62 1164.3 1537.81 M1144.35 1550.25 Q1144.35 1556.71 1146.99 1560.4 Q1149.66 1564.07 1154.31 1564.07 Q1158.95 1564.07 1161.63 1560.4 Q1164.3 1556.71 1164.3 1550.25 Q1164.3 1543.79 1161.63 1540.13 Q1158.95 1536.44 1154.31 1536.44 Q1149.66 1536.44 1146.99 1540.13 Q1144.35 1543.79 1144.35 1550.25 Z" fill="#000000" fill-rule="nonzero" fill-opacity="1" /><path clip-path="url(#clip880)" d="M1198.42 1550.12 Q1191.32 1550.12 1188.59 1551.75 Q1185.85 1553.37 1185.85 1557.29 Q1185.85 1560.4 1187.89 1562.25 Q1189.96 1564.07 1193.49 1564.07 Q1198.36 1564.07 1201.29 1560.63 Q1204.25 1557.16 1204.25 1551.43 L1204.25 1550.12 L1198.42 1550.12 M1210.1 1547.71 L1210.1 1568.04 L1204.25 1568.04 L1204.25 1562.63 Q1202.24 1565.88 1199.25 1567.44 Q1196.26 1568.97 1191.93 1568.97 Q1186.45 1568.97 1183.21 1565.91 Q1179.99 1562.82 1179.99 1557.67 Q1179.99 1551.65 1184 1548.6 Q1188.05 1545.54 1196.04 1545.54 L1204.25 1545.54 L1204.25 1544.97 Q1204.25 1540.93 1201.57 1538.73 Q1198.93 1536.5 1194.13 1536.5 Q1191.07 1536.5 1188.17 1537.23 Q1185.28 1537.97 1182.6 1539.43 L1182.6 1534.02 Q1185.82 1532.78 1188.84 1532.17 Q1191.87 1531.54 1194.73 1531.54 Q1202.46 1531.54 1206.28 1535.55 Q1210.1 1539.56 1210.1 1547.71 Z" fill="#000000" fill-rule="nonzero" fill-opacity="1" /><path clip-path="url(#clip880)" d="M1227.96 1522.27 L1227.96 1532.4 L1240.02 1532.4 L1240.02 1536.95 L1227.96 1536.95 L1227.96 1556.3 Q1227.96 1560.66 1229.14 1561.9 Q1230.35 1563.14 1234.01 1563.14 L1240.02 1563.14 L1240.02 1568.04 L1234.01 1568.04 Q1227.23 1568.04 1224.65 1565.53 Q1222.07 1562.98 1222.07 1556.3 L1222.07 1536.95 L1217.77 1536.95 L1217.77 1532.4 L1222.07 1532.4 L1222.07 1522.27 L1227.96 1522.27 Z" fill="#000000" fill-rule="nonzero" fill-opacity="1" /><path clip-path="url(#clip880)" d="M1263.93 1550.12 Q1256.83 1550.12 1254.09 1551.75 Q1251.35 1553.37 1251.35 1557.29 Q1251.35 1560.4 1253.39 1562.25 Q1255.46 1564.07 1258.99 1564.07 Q1263.86 1564.07 1266.79 1560.63 Q1269.75 1557.16 1269.75 1551.43 L1269.75 1550.12 L1263.93 1550.12 M1275.61 1547.71 L1275.61 1568.04 L1269.75 1568.04 L1269.75 1562.63 Q1267.74 1565.88 1264.75 1567.44 Q1261.76 1568.97 1257.43 1568.97 Q1251.96 1568.97 1248.71 1565.91 Q1245.5 1562.82 1245.5 1557.67 Q1245.5 1551.65 1249.51 1548.6 Q1253.55 1545.54 1261.54 1545.54 L1269.75 1545.54 L1269.75 1544.97 Q1269.75 1540.93 1267.08 1538.73 Q1264.43 1536.5 1259.63 1536.5 Q1256.57 1536.5 1253.68 1537.23 Q1250.78 1537.97 1248.11 1539.43 L1248.11 1534.02 Q1251.32 1532.78 1254.35 1532.17 Q1257.37 1531.54 1260.23 1531.54 Q1267.97 1531.54 1271.79 1535.55 Q1275.61 1539.56 1275.61 1547.71 Z" fill="#000000" fill-rule="nonzero" fill-opacity="1" /><path clip-path="url(#clip880)" d="M1336.14 1539.24 Q1338.34 1535.29 1341.4 1533.41 Q1344.45 1531.54 1348.59 1531.54 Q1354.16 1531.54 1357.18 1535.45 Q1360.21 1539.33 1360.21 1546.53 L1360.21 1568.04 L1354.32 1568.04 L1354.32 1546.72 Q1354.32 1541.59 1352.5 1539.11 Q1350.69 1536.63 1346.97 1536.63 Q1342.41 1536.63 1339.77 1539.65 Q1337.13 1542.68 1337.13 1547.9 L1337.13 1568.04 L1331.24 1568.04 L1331.24 1546.72 Q1331.24 1541.56 1329.43 1539.11 Q1327.61 1536.63 1323.83 1536.63 Q1319.34 1536.63 1316.7 1539.68 Q1314.06 1542.71 1314.06 1547.9 L1314.06 1568.04 L1308.17 1568.04 L1308.17 1532.4 L1314.06 1532.4 L1314.06 1537.93 Q1316.06 1534.66 1318.86 1533.1 Q1321.66 1531.54 1325.51 1531.54 Q1329.4 1531.54 1332.1 1533.51 Q1334.84 1535.48 1336.14 1539.24 Z" fill="#000000" fill-rule="nonzero" fill-opacity="1" /><path clip-path="url(#clip880)" d="M1371.89 1532.4 L1377.74 1532.4 L1377.74 1568.04 L1371.89 1568.04 L1371.89 1532.4 M1371.89 1518.52 L1377.74 1518.52 L1377.74 1525.93 L1371.89 1525.93 L1371.89 1518.52 Z" fill="#000000" fill-rule="nonzero" fill-opacity="1" /><path clip-path="url(#clip880)" d="M1412.72 1533.45 L1412.72 1538.98 Q1410.24 1537.71 1407.57 1537.07 Q1404.89 1536.44 1402.03 1536.44 Q1397.67 1536.44 1395.47 1537.77 Q1393.31 1539.11 1393.31 1541.79 Q1393.31 1543.82 1394.87 1545 Q1396.43 1546.15 1401.14 1547.2 L1403.14 1547.64 Q1409.38 1548.98 1411.99 1551.43 Q1414.63 1553.85 1414.63 1558.21 Q1414.63 1563.17 1410.69 1566.07 Q1406.77 1568.97 1399.9 1568.97 Q1397.03 1568.97 1393.91 1568.39 Q1390.83 1567.85 1387.39 1566.74 L1387.39 1560.69 Q1390.63 1562.38 1393.79 1563.24 Q1396.94 1564.07 1400.02 1564.07 Q1404.16 1564.07 1406.39 1562.66 Q1408.62 1561.23 1408.62 1558.65 Q1408.62 1556.27 1406.99 1554.99 Q1405.4 1553.72 1399.96 1552.54 L1397.92 1552.07 Q1392.48 1550.92 1390.06 1548.56 Q1387.64 1546.18 1387.64 1542.04 Q1387.64 1537.01 1391.21 1534.27 Q1394.77 1531.54 1401.33 1531.54 Q1404.58 1531.54 1407.44 1532.01 Q1410.3 1532.49 1412.72 1533.45 Z" fill="#000000" fill-rule="nonzero" fill-opacity="1" /><path clip-path="url(#clip880)" d="M1446.68 1533.45 L1446.68 1538.98 Q1444.2 1537.71 1441.53 1537.07 Q1438.86 1536.44 1435.99 1536.44 Q1431.63 1536.44 1429.43 1537.77 Q1427.27 1539.11 1427.27 1541.79 Q1427.27 1543.82 1428.83 1545 Q1430.39 1546.15 1435.1 1547.2 L1437.1 1547.64 Q1443.34 1548.98 1445.95 1551.43 Q1448.59 1553.85 1448.59 1558.21 Q1448.59 1563.17 1444.65 1566.07 Q1440.73 1568.97 1433.86 1568.97 Q1430.99 1568.97 1427.87 1568.39 Q1424.79 1567.85 1421.35 1566.74 L1421.35 1560.69 Q1424.6 1562.38 1427.75 1563.24 Q1430.9 1564.07 1433.99 1564.07 Q1438.12 1564.07 1440.35 1562.66 Q1442.58 1561.23 1442.58 1558.65 Q1442.58 1556.27 1440.96 1554.99 Q1439.36 1553.72 1433.92 1552.54 L1431.88 1552.07 Q1426.44 1550.92 1424.02 1548.56 Q1421.6 1546.18 1421.6 1542.04 Q1421.6 1537.01 1425.17 1534.27 Q1428.73 1531.54 1435.29 1531.54 Q1438.54 1531.54 1441.4 1532.01 Q1444.27 1532.49 1446.68 1533.45 Z" fill="#000000" fill-rule="nonzero" fill-opacity="1" /><path clip-path="url(#clip880)" d="M1457.92 1532.4 L1463.78 1532.4 L1463.78 1568.04 L1457.92 1568.04 L1457.92 1532.4 M1457.92 1518.52 L1463.78 1518.52 L1463.78 1525.93 L1457.92 1525.93 L1457.92 1518.52 Z" fill="#000000" fill-rule="nonzero" fill-opacity="1" /><path clip-path="url(#clip880)" d="M1505.66 1546.53 L1505.66 1568.04 L1499.81 1568.04 L1499.81 1546.72 Q1499.81 1541.66 1497.83 1539.14 Q1495.86 1536.63 1491.91 1536.63 Q1487.17 1536.63 1484.43 1539.65 Q1481.7 1542.68 1481.7 1547.9 L1481.7 1568.04 L1475.81 1568.04 L1475.81 1532.4 L1481.7 1532.4 L1481.7 1537.93 Q1483.8 1534.72 1486.63 1533.13 Q1489.49 1531.54 1493.22 1531.54 Q1499.36 1531.54 1502.51 1535.36 Q1505.66 1539.14 1505.66 1546.53 Z" fill="#000000" fill-rule="nonzero" fill-opacity="1" /><path clip-path="url(#clip880)" d="M1540.8 1549.81 Q1540.8 1543.44 1538.16 1539.94 Q1535.55 1536.44 1530.81 1536.44 Q1526.1 1536.44 1523.46 1539.94 Q1520.85 1543.44 1520.85 1549.81 Q1520.85 1556.14 1523.46 1559.64 Q1526.1 1563.14 1530.81 1563.14 Q1535.55 1563.14 1538.16 1559.64 Q1540.8 1556.14 1540.8 1549.81 M1546.66 1563.62 Q1546.66 1572.72 1542.62 1577.15 Q1538.57 1581.6 1530.23 1581.6 Q1527.15 1581.6 1524.41 1581.13 Q1521.67 1580.68 1519.09 1579.72 L1519.09 1574.03 Q1521.67 1575.43 1524.19 1576.1 Q1526.7 1576.76 1529.31 1576.76 Q1535.07 1576.76 1537.94 1573.74 Q1540.8 1570.75 1540.8 1564.67 L1540.8 1561.77 Q1538.99 1564.92 1536.15 1566.48 Q1533.32 1568.04 1529.38 1568.04 Q1522.82 1568.04 1518.81 1563.05 Q1514.8 1558.05 1514.8 1549.81 Q1514.8 1541.53 1518.81 1536.53 Q1522.82 1531.54 1529.38 1531.54 Q1533.32 1531.54 1536.15 1533.1 Q1538.99 1534.66 1540.8 1537.81 L1540.8 1532.4 L1546.66 1532.4 L1546.66 1563.62 Z" fill="#000000" fill-rule="nonzero" fill-opacity="1" /><polyline clip-path="url(#clip880)" style="stroke:#000000; stroke-linecap:round; stroke-linejoin:round; stroke-width:4; stroke-opacity:1; fill:none" points="249.542,1423.18 249.542,123.472 "/>
<polyline clip-path="url(#clip880)" style="stroke:#000000; stroke-linecap:round; stroke-linejoin:round; stroke-width:4; stroke-opacity:1; fill:none" points="249.542,1255 268.44,1255 "/>
<polyline clip-path="url(#clip880)" style="stroke:#000000; stroke-linecap:round; stroke-linejoin:round; stroke-width:4; stroke-opacity:1; fill:none" points="249.542,1061.68 268.44,1061.68 "/>
<polyline clip-path="url(#clip880)" style="stroke:#000000; stroke-linecap:round; stroke-linejoin:round; stroke-width:4; stroke-opacity:1; fill:none" points="249.542,868.363 268.44,868.363 "/>
<polyline clip-path="url(#clip880)" style="stroke:#000000; stroke-linecap:round; stroke-linejoin:round; stroke-width:4; stroke-opacity:1; fill:none" points="249.542,675.044 268.44,675.044 "/>
<polyline clip-path="url(#clip880)" style="stroke:#000000; stroke-linecap:round; stroke-linejoin:round; stroke-width:4; stroke-opacity:1; fill:none" points="249.542,481.725 268.44,481.725 "/>
<polyline clip-path="url(#clip880)" style="stroke:#000000; stroke-linecap:round; stroke-linejoin:round; stroke-width:4; stroke-opacity:1; fill:none" points="249.542,288.406 268.44,288.406 "/>
<path clip-path="url(#clip880)" d="M126.297 1240.8 Q122.686 1240.8 120.857 1244.36 Q119.052 1247.91 119.052 1255.04 Q119.052 1262.14 120.857 1265.71 Q122.686 1269.25 126.297 1269.25 Q129.931 1269.25 131.737 1265.71 Q133.566 1262.14 133.566 1255.04 Q133.566 1247.91 131.737 1244.36 Q129.931 1240.8 126.297 1240.8 M126.297 1237.1 Q132.107 1237.1 135.163 1241.7 Q138.242 1246.29 138.242 1255.04 Q138.242 1263.76 135.163 1268.37 Q132.107 1272.95 126.297 1272.95 Q120.487 1272.95 117.408 1268.37 Q114.353 1263.76 114.353 1255.04 Q114.353 1246.29 117.408 1241.7 Q120.487 1237.1 126.297 1237.1 Z" fill="#000000" fill-rule="nonzero" fill-opacity="1" /><path clip-path="url(#clip880)" d="M146.459 1266.4 L151.343 1266.4 L151.343 1272.28 L146.459 1272.28 L146.459 1266.4 Z" fill="#000000" fill-rule="nonzero" fill-opacity="1" /><path clip-path="url(#clip880)" d="M171.528 1240.8 Q167.917 1240.8 166.089 1244.36 Q164.283 1247.91 164.283 1255.04 Q164.283 1262.14 166.089 1265.71 Q167.917 1269.25 171.528 1269.25 Q175.163 1269.25 176.968 1265.71 Q178.797 1262.14 178.797 1255.04 Q178.797 1247.91 176.968 1244.36 Q175.163 1240.8 171.528 1240.8 M171.528 1237.1 Q177.339 1237.1 180.394 1241.7 Q183.473 1246.29 183.473 1255.04 Q183.473 1263.76 180.394 1268.37 Q177.339 1272.95 171.528 1272.95 Q165.718 1272.95 162.64 1268.37 Q159.584 1263.76 159.584 1255.04 Q159.584 1246.29 162.64 1241.7 Q165.718 1237.1 171.528 1237.1 Z" fill="#000000" fill-rule="nonzero" fill-opacity="1" /><path clip-path="url(#clip880)" d="M201.69 1255.87 Q198.357 1255.87 196.436 1257.65 Q194.538 1259.43 194.538 1262.56 Q194.538 1265.68 196.436 1267.47 Q198.357 1269.25 201.69 1269.25 Q205.024 1269.25 206.945 1267.47 Q208.866 1265.66 208.866 1262.56 Q208.866 1259.43 206.945 1257.65 Q205.047 1255.87 201.69 1255.87 M197.014 1253.88 Q194.005 1253.14 192.315 1251.08 Q190.649 1249.02 190.649 1246.05 Q190.649 1241.91 193.588 1239.5 Q196.551 1237.1 201.69 1237.1 Q206.852 1237.1 209.792 1239.5 Q212.732 1241.91 212.732 1246.05 Q212.732 1249.02 211.042 1251.08 Q209.375 1253.14 206.389 1253.88 Q209.769 1254.66 211.644 1256.96 Q213.542 1259.25 213.542 1262.56 Q213.542 1267.58 210.463 1270.27 Q207.408 1272.95 201.69 1272.95 Q195.973 1272.95 192.894 1270.27 Q189.838 1267.58 189.838 1262.56 Q189.838 1259.25 191.737 1256.96 Q193.635 1254.66 197.014 1253.88 M195.301 1246.49 Q195.301 1249.18 196.968 1250.68 Q198.658 1252.19 201.69 1252.19 Q204.699 1252.19 206.389 1250.68 Q208.102 1249.18 208.102 1246.49 Q208.102 1243.81 206.389 1242.3 Q204.699 1240.8 201.69 1240.8 Q198.658 1240.8 196.968 1242.3 Q195.301 1243.81 195.301 1246.49 Z" fill="#000000" fill-rule="nonzero" fill-opacity="1" /><path clip-path="url(#clip880)" d="M126.39 1047.48 Q122.779 1047.48 120.95 1051.04 Q119.144 1054.59 119.144 1061.72 Q119.144 1068.82 120.95 1072.39 Q122.779 1075.93 126.39 1075.93 Q130.024 1075.93 131.83 1072.39 Q133.658 1068.82 133.658 1061.72 Q133.658 1054.59 131.83 1051.04 Q130.024 1047.48 126.39 1047.48 M126.39 1043.78 Q132.2 1043.78 135.255 1048.38 Q138.334 1052.97 138.334 1061.72 Q138.334 1070.44 135.255 1075.05 Q132.2 1079.63 126.39 1079.63 Q120.58 1079.63 117.501 1075.05 Q114.445 1070.44 114.445 1061.72 Q114.445 1052.97 117.501 1048.38 Q120.58 1043.78 126.39 1043.78 Z" fill="#000000" fill-rule="nonzero" fill-opacity="1" /><path clip-path="url(#clip880)" d="M146.552 1073.08 L151.436 1073.08 L151.436 1078.96 L146.552 1078.96 L146.552 1073.08 Z" fill="#000000" fill-rule="nonzero" fill-opacity="1" /><path clip-path="url(#clip880)" d="M171.621 1047.48 Q168.01 1047.48 166.181 1051.04 Q164.376 1054.59 164.376 1061.72 Q164.376 1068.82 166.181 1072.39 Q168.01 1075.93 171.621 1075.93 Q175.255 1075.93 177.061 1072.39 Q178.889 1068.82 178.889 1061.72 Q178.889 1054.59 177.061 1051.04 Q175.255 1047.48 171.621 1047.48 M171.621 1043.78 Q177.431 1043.78 180.487 1048.38 Q183.565 1052.97 183.565 1061.72 Q183.565 1070.44 180.487 1075.05 Q177.431 1079.63 171.621 1079.63 Q165.811 1079.63 162.732 1075.05 Q159.677 1070.44 159.677 1061.72 Q159.677 1052.97 162.732 1048.38 Q165.811 1043.78 171.621 1043.78 Z" fill="#000000" fill-rule="nonzero" fill-opacity="1" /><path clip-path="url(#clip880)" d="M191.922 1078.24 L191.922 1073.98 Q193.681 1074.82 195.487 1075.26 Q197.292 1075.7 199.028 1075.7 Q203.658 1075.7 206.088 1072.6 Q208.542 1069.47 208.889 1063.13 Q207.547 1065.12 205.487 1066.18 Q203.426 1067.25 200.926 1067.25 Q195.741 1067.25 192.709 1064.12 Q189.7 1060.98 189.7 1055.54 Q189.7 1050.21 192.848 1046.99 Q195.996 1043.78 201.227 1043.78 Q207.223 1043.78 210.371 1048.38 Q213.542 1052.97 213.542 1061.72 Q213.542 1069.89 209.653 1074.77 Q205.787 1079.63 199.237 1079.63 Q197.477 1079.63 195.672 1079.29 Q193.866 1078.94 191.922 1078.24 M201.227 1063.59 Q204.375 1063.59 206.204 1061.44 Q208.056 1059.29 208.056 1055.54 Q208.056 1051.81 206.204 1049.66 Q204.375 1047.48 201.227 1047.48 Q198.079 1047.48 196.227 1049.66 Q194.399 1051.81 194.399 1055.54 Q194.399 1059.29 196.227 1061.44 Q198.079 1063.59 201.227 1063.59 Z" fill="#000000" fill-rule="nonzero" fill-opacity="1" /><path clip-path="url(#clip880)" d="M126.205 854.161 Q122.593 854.161 120.765 857.726 Q118.959 861.268 118.959 868.397 Q118.959 875.504 120.765 879.069 Q122.593 882.61 126.205 882.61 Q129.839 882.61 131.644 879.069 Q133.473 875.504 133.473 868.397 Q133.473 861.268 131.644 857.726 Q129.839 854.161 126.205 854.161 M126.205 850.458 Q132.015 850.458 135.07 855.064 Q138.149 859.647 138.149 868.397 Q138.149 877.124 135.07 881.731 Q132.015 886.314 126.205 886.314 Q120.394 886.314 117.316 881.731 Q114.26 877.124 114.26 868.397 Q114.26 859.647 117.316 855.064 Q120.394 850.458 126.205 850.458 Z" fill="#000000" fill-rule="nonzero" fill-opacity="1" /><path clip-path="url(#clip880)" d="M146.366 879.763 L151.251 879.763 L151.251 885.643 L146.366 885.643 L146.366 879.763 Z" fill="#000000" fill-rule="nonzero" fill-opacity="1" /><path clip-path="url(#clip880)" d="M162.246 881.707 L169.885 881.707 L169.885 855.342 L161.575 857.008 L161.575 852.749 L169.839 851.083 L174.514 851.083 L174.514 881.707 L182.153 881.707 L182.153 885.643 L162.246 885.643 L162.246 881.707 Z" fill="#000000" fill-rule="nonzero" fill-opacity="1" /><path clip-path="url(#clip880)" d="M201.598 854.161 Q197.987 854.161 196.158 857.726 Q194.352 861.268 194.352 868.397 Q194.352 875.504 196.158 879.069 Q197.987 882.61 201.598 882.61 Q205.232 882.61 207.037 879.069 Q208.866 875.504 208.866 868.397 Q208.866 861.268 207.037 857.726 Q205.232 854.161 201.598 854.161 M201.598 850.458 Q207.408 850.458 210.463 855.064 Q213.542 859.647 213.542 868.397 Q213.542 877.124 210.463 881.731 Q207.408 886.314 201.598 886.314 Q195.787 886.314 192.709 881.731 Q189.653 877.124 189.653 868.397 Q189.653 859.647 192.709 855.064 Q195.787 850.458 201.598 850.458 Z" fill="#000000" fill-rule="nonzero" fill-opacity="1" /><path clip-path="url(#clip880)" d="M127.431 660.842 Q123.82 660.842 121.992 664.407 Q120.186 667.949 120.186 675.078 Q120.186 682.185 121.992 685.75 Q123.82 689.291 127.431 689.291 Q131.066 689.291 132.871 685.75 Q134.7 682.185 134.7 675.078 Q134.7 667.949 132.871 664.407 Q131.066 660.842 127.431 660.842 M127.431 657.139 Q133.242 657.139 136.297 661.745 Q139.376 666.328 139.376 675.078 Q139.376 683.805 136.297 688.412 Q133.242 692.995 127.431 692.995 Q121.621 692.995 118.543 688.412 Q115.487 683.805 115.487 675.078 Q115.487 666.328 118.543 661.745 Q121.621 657.139 127.431 657.139 Z" fill="#000000" fill-rule="nonzero" fill-opacity="1" /><path clip-path="url(#clip880)" d="M147.593 686.444 L152.478 686.444 L152.478 692.324 L147.593 692.324 L147.593 686.444 Z" fill="#000000" fill-rule="nonzero" fill-opacity="1" /><path clip-path="url(#clip880)" d="M163.473 688.389 L171.112 688.389 L171.112 662.023 L162.802 663.69 L162.802 659.43 L171.065 657.764 L175.741 657.764 L175.741 688.389 L183.38 688.389 L183.38 692.324 L163.473 692.324 L163.473 688.389 Z" fill="#000000" fill-rule="nonzero" fill-opacity="1" /><path clip-path="url(#clip880)" d="M193.635 688.389 L201.274 688.389 L201.274 662.023 L192.963 663.69 L192.963 659.43 L201.227 657.764 L205.903 657.764 L205.903 688.389 L213.542 688.389 L213.542 692.324 L193.635 692.324 L193.635 688.389 Z" fill="#000000" fill-rule="nonzero" fill-opacity="1" /><path clip-path="url(#clip880)" d="M127.802 467.524 Q124.191 467.524 122.362 471.088 Q120.556 474.63 120.556 481.76 Q120.556 488.866 122.362 492.431 Q124.191 495.972 127.802 495.972 Q131.436 495.972 133.242 492.431 Q135.07 488.866 135.07 481.76 Q135.07 474.63 133.242 471.088 Q131.436 467.524 127.802 467.524 M127.802 463.82 Q133.612 463.82 136.667 468.426 Q139.746 473.01 139.746 481.76 Q139.746 490.486 136.667 495.093 Q133.612 499.676 127.802 499.676 Q121.992 499.676 118.913 495.093 Q115.857 490.486 115.857 481.76 Q115.857 473.01 118.913 468.426 Q121.992 463.82 127.802 463.82 Z" fill="#000000" fill-rule="nonzero" fill-opacity="1" /><path clip-path="url(#clip880)" d="M147.964 493.125 L152.848 493.125 L152.848 499.005 L147.964 499.005 L147.964 493.125 Z" fill="#000000" fill-rule="nonzero" fill-opacity="1" /><path clip-path="url(#clip880)" d="M163.843 495.07 L171.482 495.07 L171.482 468.704 L163.172 470.371 L163.172 466.111 L171.436 464.445 L176.112 464.445 L176.112 495.07 L183.751 495.07 L183.751 499.005 L163.843 499.005 L163.843 495.07 Z" fill="#000000" fill-rule="nonzero" fill-opacity="1" /><path clip-path="url(#clip880)" d="M197.223 495.07 L213.542 495.07 L213.542 499.005 L191.598 499.005 L191.598 495.07 Q194.26 492.315 198.843 487.685 Q203.449 483.033 204.63 481.69 Q206.875 479.167 207.755 477.431 Q208.658 475.672 208.658 473.982 Q208.658 471.227 206.713 469.491 Q204.792 467.755 201.69 467.755 Q199.491 467.755 197.037 468.519 Q194.607 469.283 191.829 470.834 L191.829 466.111 Q194.653 464.977 197.107 464.399 Q199.561 463.82 201.598 463.82 Q206.968 463.82 210.162 466.505 Q213.357 469.19 213.357 473.681 Q213.357 475.811 212.547 477.732 Q211.76 479.63 209.653 482.223 Q209.074 482.894 205.973 486.111 Q202.871 489.306 197.223 495.07 Z" fill="#000000" fill-rule="nonzero" fill-opacity="1" /><path clip-path="url(#clip880)" d="M126.853 274.205 Q123.242 274.205 121.413 277.769 Q119.607 281.311 119.607 288.441 Q119.607 295.547 121.413 299.112 Q123.242 302.654 126.853 302.654 Q130.487 302.654 132.292 299.112 Q134.121 295.547 134.121 288.441 Q134.121 281.311 132.292 277.769 Q130.487 274.205 126.853 274.205 M126.853 270.501 Q132.663 270.501 135.718 275.107 Q138.797 279.691 138.797 288.441 Q138.797 297.167 135.718 301.774 Q132.663 306.357 126.853 306.357 Q121.043 306.357 117.964 301.774 Q114.908 297.167 114.908 288.441 Q114.908 279.691 117.964 275.107 Q121.043 270.501 126.853 270.501 Z" fill="#000000" fill-rule="nonzero" fill-opacity="1" /><path clip-path="url(#clip880)" d="M147.015 299.806 L151.899 299.806 L151.899 305.686 L147.015 305.686 L147.015 299.806 Z" fill="#000000" fill-rule="nonzero" fill-opacity="1" /><path clip-path="url(#clip880)" d="M162.894 301.751 L170.533 301.751 L170.533 275.385 L162.223 277.052 L162.223 272.793 L170.487 271.126 L175.163 271.126 L175.163 301.751 L182.801 301.751 L182.801 305.686 L162.894 305.686 L162.894 301.751 Z" fill="#000000" fill-rule="nonzero" fill-opacity="1" /><path clip-path="url(#clip880)" d="M206.412 287.052 Q209.769 287.769 211.644 290.038 Q213.542 292.306 213.542 295.64 Q213.542 300.755 210.024 303.556 Q206.505 306.357 200.024 306.357 Q197.848 306.357 195.533 305.917 Q193.241 305.501 190.788 304.644 L190.788 300.13 Q192.732 301.265 195.047 301.843 Q197.362 302.422 199.885 302.422 Q204.283 302.422 206.574 300.686 Q208.889 298.95 208.889 295.64 Q208.889 292.584 206.737 290.871 Q204.607 289.135 200.787 289.135 L196.76 289.135 L196.76 285.293 L200.973 285.293 Q204.422 285.293 206.25 283.927 Q208.079 282.538 208.079 279.945 Q208.079 277.283 206.181 275.871 Q204.306 274.436 200.787 274.436 Q198.866 274.436 196.667 274.853 Q194.468 275.269 191.829 276.149 L191.829 271.982 Q194.491 271.242 196.806 270.871 Q199.144 270.501 201.204 270.501 Q206.528 270.501 209.63 272.932 Q212.732 275.339 212.732 279.459 Q212.732 282.33 211.088 284.32 Q209.445 286.288 206.412 287.052 Z" fill="#000000" fill-rule="nonzero" fill-opacity="1" /><path clip-path="url(#clip880)" d="M33.7671 1080.57 L14.479 1080.57 L14.479 1074.71 L64.0042 1074.71 L64.0042 1080.57 L58.657 1080.57 Q61.8398 1082.41 63.3994 1085.25 Q64.9272 1088.05 64.9272 1091.99 Q64.9272 1098.45 59.771 1102.53 Q54.6147 1106.57 46.212 1106.57 Q37.8093 1106.57 32.6531 1102.53 Q27.4968 1098.45 27.4968 1091.99 Q27.4968 1088.05 29.0564 1085.25 Q30.5842 1082.41 33.7671 1080.57 M46.212 1100.52 Q52.6732 1100.52 56.3653 1097.88 Q60.0256 1095.21 60.0256 1090.56 Q60.0256 1085.91 56.3653 1083.24 Q52.6732 1080.57 46.212 1080.57 Q39.7508 1080.57 36.0905 1083.24 Q32.3984 1085.91 32.3984 1090.56 Q32.3984 1095.21 36.0905 1097.88 Q39.7508 1100.52 46.212 1100.52 Z" fill="#000000" fill-rule="nonzero" fill-opacity="1" /><path clip-path="url(#clip880)" d="M46.0847 1046.45 Q46.0847 1053.54 47.7079 1056.28 Q49.3312 1059.02 53.2461 1059.02 Q56.3653 1059.02 58.2114 1056.98 Q60.0256 1054.91 60.0256 1051.38 Q60.0256 1046.51 56.5881 1043.58 Q53.1188 1040.62 47.3897 1040.62 L46.0847 1040.62 L46.0847 1046.45 M43.6657 1034.77 L64.0042 1034.77 L64.0042 1040.62 L58.5933 1040.62 Q61.8398 1042.63 63.3994 1045.62 Q64.9272 1048.61 64.9272 1052.94 Q64.9272 1058.41 61.8716 1061.66 Q58.7843 1064.88 53.6281 1064.88 Q47.6125 1064.88 44.5569 1060.86 Q41.5014 1056.82 41.5014 1048.83 L41.5014 1040.62 L40.9285 1040.62 Q36.8862 1040.62 34.6901 1043.3 Q32.4621 1045.94 32.4621 1050.74 Q32.4621 1053.8 33.1941 1056.7 Q33.9262 1059.59 35.3903 1062.27 L29.9795 1062.27 Q28.7381 1059.05 28.1334 1056.03 Q27.4968 1053 27.4968 1050.14 Q27.4968 1042.4 31.5072 1038.58 Q35.5176 1034.77 43.6657 1034.77 Z" fill="#000000" fill-rule="nonzero" fill-opacity="1" /><path clip-path="url(#clip880)" d="M18.2347 1016.91 L28.3562 1016.91 L28.3562 1004.85 L32.9077 1004.85 L32.9077 1016.91 L52.2594 1016.91 Q56.6199 1016.91 57.8613 1015.73 Q59.1026 1014.52 59.1026 1010.86 L59.1026 1004.85 L64.0042 1004.85 L64.0042 1010.86 Q64.0042 1017.64 61.4897 1020.22 Q58.9434 1022.8 52.2594 1022.8 L32.9077 1022.8 L32.9077 1027.09 L28.3562 1027.09 L28.3562 1022.8 L18.2347 1022.8 L18.2347 1016.91 Z" fill="#000000" fill-rule="nonzero" fill-opacity="1" /><path clip-path="url(#clip880)" d="M46.0847 980.944 Q46.0847 988.041 47.7079 990.779 Q49.3312 993.516 53.2461 993.516 Q56.3653 993.516 58.2114 991.479 Q60.0256 989.41 60.0256 985.877 Q60.0256 981.007 56.5881 978.079 Q53.1188 975.119 47.3897 975.119 L46.0847 975.119 L46.0847 980.944 M43.6657 969.262 L64.0042 969.262 L64.0042 975.119 L58.5933 975.119 Q61.8398 977.124 63.3994 980.116 Q64.9272 983.108 64.9272 987.437 Q64.9272 992.911 61.8716 996.158 Q58.7843 999.372 53.6281 999.372 Q47.6125 999.372 44.5569 995.362 Q41.5014 991.32 41.5014 983.331 L41.5014 975.119 L40.9285 975.119 Q36.8862 975.119 34.6901 977.792 Q32.4621 980.434 32.4621 985.24 Q32.4621 988.296 33.1941 991.192 Q33.9262 994.089 35.3903 996.762 L29.9795 996.762 Q28.7381 993.548 28.1334 990.524 Q27.4968 987.5 27.4968 984.636 Q27.4968 976.901 31.5072 973.082 Q35.5176 969.262 43.6657 969.262 Z" fill="#000000" fill-rule="nonzero" fill-opacity="1" /><path clip-path="url(#clip880)" d="M29.4065 934.474 L34.9447 934.474 Q33.6716 936.956 33.035 939.63 Q32.3984 942.304 32.3984 945.168 Q32.3984 949.529 33.7352 951.725 Q35.072 953.889 37.7456 953.889 Q39.7826 953.889 40.9603 952.33 Q42.1061 950.77 43.1565 946.059 L43.6021 944.054 Q44.9389 937.816 47.3897 935.206 Q49.8086 932.564 54.1691 932.564 Q59.1344 932.564 62.0308 936.511 Q64.9272 940.426 64.9272 947.301 Q64.9272 950.165 64.3543 953.285 Q63.8132 956.372 62.6992 959.809 L56.6518 959.809 Q58.3387 956.563 59.198 953.412 Q60.0256 950.261 60.0256 947.173 Q60.0256 943.036 58.6251 940.808 Q57.1929 938.58 54.6147 938.58 Q52.2276 938.58 50.9545 940.203 Q49.6813 941.794 48.5037 947.237 L48.0262 949.274 Q46.8804 954.717 44.5251 957.136 Q42.138 959.555 38.0002 959.555 Q32.9713 959.555 30.2341 955.99 Q27.4968 952.425 27.4968 945.868 Q27.4968 942.622 27.9743 939.757 Q28.4517 936.893 29.4065 934.474 Z" fill="#000000" fill-rule="nonzero" fill-opacity="1" /><path clip-path="url(#clip880)" d="M44.7161 892.747 L47.5806 892.747 L47.5806 919.674 Q53.6281 919.292 56.8109 916.045 Q59.9619 912.767 59.9619 906.942 Q59.9619 903.568 59.1344 900.417 Q58.3069 897.234 56.6518 894.115 L62.1899 894.115 Q63.5267 897.266 64.227 900.576 Q64.9272 903.887 64.9272 907.292 Q64.9272 915.822 59.9619 920.819 Q54.9967 925.785 46.5303 925.785 Q37.7774 925.785 32.6531 921.074 Q27.4968 916.332 27.4968 908.311 Q27.4968 901.118 32.1438 896.948 Q36.7589 892.747 44.7161 892.747 M42.9973 898.603 Q38.1912 898.667 35.3266 901.309 Q32.4621 903.918 32.4621 908.247 Q32.4621 913.149 35.2312 916.109 Q38.0002 919.037 43.0292 919.483 L42.9973 898.603 Z" fill="#000000" fill-rule="nonzero" fill-opacity="1" /><path clip-path="url(#clip880)" d="M18.2347 877.342 L28.3562 877.342 L28.3562 865.279 L32.9077 865.279 L32.9077 877.342 L52.2594 877.342 Q56.6199 877.342 57.8613 876.164 Q59.1026 874.954 59.1026 871.294 L59.1026 865.279 L64.0042 865.279 L64.0042 871.294 Q64.0042 878.074 61.4897 880.652 Q58.9434 883.23 52.2594 883.23 L32.9077 883.23 L32.9077 887.527 L28.3562 887.527 L28.3562 883.23 L18.2347 883.23 L18.2347 877.342 Z" fill="#000000" fill-rule="nonzero" fill-opacity="1" /><path clip-path="url(#clip880)" d="M35.1993 809.101 Q31.2526 806.905 29.3747 803.85 Q27.4968 800.794 27.4968 796.656 Q27.4968 791.086 31.4117 788.063 Q35.2948 785.039 42.4881 785.039 L64.0042 785.039 L64.0042 790.927 L42.679 790.927 Q37.5546 790.927 35.072 792.741 Q32.5894 794.556 32.5894 798.28 Q32.5894 802.831 35.6131 805.473 Q38.6368 808.115 43.8567 808.115 L64.0042 808.115 L64.0042 814.003 L42.679 814.003 Q37.5228 814.003 35.072 815.817 Q32.5894 817.631 32.5894 821.419 Q32.5894 825.907 35.6449 828.548 Q38.6686 831.19 43.8567 831.19 L64.0042 831.19 L64.0042 837.079 L28.3562 837.079 L28.3562 831.19 L33.8944 831.19 Q30.616 829.185 29.0564 826.384 Q27.4968 823.583 27.4968 819.732 Q27.4968 815.849 29.4702 813.143 Q31.4436 810.406 35.1993 809.101 Z" fill="#000000" fill-rule="nonzero" fill-opacity="1" /><path clip-path="url(#clip880)" d="M44.7161 742.866 L47.5806 742.866 L47.5806 769.793 Q53.6281 769.411 56.8109 766.165 Q59.9619 762.886 59.9619 757.062 Q59.9619 753.688 59.1344 750.537 Q58.3069 747.354 56.6518 744.235 L62.1899 744.235 Q63.5267 747.386 64.227 750.696 Q64.9272 754.006 64.9272 757.412 Q64.9272 765.942 59.9619 770.939 Q54.9967 775.904 46.5303 775.904 Q37.7774 775.904 32.6531 771.193 Q27.4968 766.451 27.4968 758.43 Q27.4968 751.237 32.1438 747.067 Q36.7589 742.866 44.7161 742.866 M42.9973 748.723 Q38.1912 748.786 35.3266 751.428 Q32.4621 754.038 32.4621 758.367 Q32.4621 763.268 35.2312 766.228 Q38.0002 769.156 43.0292 769.602 L42.9973 748.723 Z" fill="#000000" fill-rule="nonzero" fill-opacity="1" /><path clip-path="url(#clip880)" d="M33.7671 709.796 L14.479 709.796 L14.479 703.94 L64.0042 703.94 L64.0042 709.796 L58.657 709.796 Q61.8398 711.642 63.3994 714.475 Q64.9272 717.276 64.9272 721.223 Q64.9272 727.684 59.771 731.758 Q54.6147 735.8 46.212 735.8 Q37.8093 735.8 32.6531 731.758 Q27.4968 727.684 27.4968 721.223 Q27.4968 717.276 29.0564 714.475 Q30.5842 711.642 33.7671 709.796 M46.212 729.753 Q52.6732 729.753 56.3653 727.111 Q60.0256 724.437 60.0256 719.79 Q60.0256 715.143 56.3653 712.47 Q52.6732 709.796 46.212 709.796 Q39.7508 709.796 36.0905 712.47 Q32.3984 715.143 32.3984 719.79 Q32.3984 724.437 36.0905 727.111 Q39.7508 729.753 46.212 729.753 Z" fill="#000000" fill-rule="nonzero" fill-opacity="1" /><path clip-path="url(#clip880)" d="M28.3562 691.877 L28.3562 686.02 L64.0042 686.02 L64.0042 691.877 L28.3562 691.877 M14.479 691.877 L14.479 686.02 L21.895 686.02 L21.895 691.877 L14.479 691.877 Z" fill="#000000" fill-rule="nonzero" fill-opacity="1" /><path clip-path="url(#clip880)" d="M46.0847 657.566 Q46.0847 664.663 47.7079 667.401 Q49.3312 670.138 53.2461 670.138 Q56.3653 670.138 58.2114 668.101 Q60.0256 666.032 60.0256 662.499 Q60.0256 657.629 56.5881 654.701 Q53.1188 651.741 47.3897 651.741 L46.0847 651.741 L46.0847 657.566 M43.6657 645.885 L64.0042 645.885 L64.0042 651.741 L58.5933 651.741 Q61.8398 653.746 63.3994 656.738 Q64.9272 659.73 64.9272 664.059 Q64.9272 669.533 61.8716 672.78 Q58.7843 675.994 53.6281 675.994 Q47.6125 675.994 44.5569 671.984 Q41.5014 667.942 41.5014 659.953 L41.5014 651.741 L40.9285 651.741 Q36.8862 651.741 34.6901 654.415 Q32.4621 657.056 32.4621 661.862 Q32.4621 664.918 33.1941 667.814 Q33.9262 670.711 35.3903 673.384 L29.9795 673.384 Q28.7381 670.17 28.1334 667.146 Q27.4968 664.122 27.4968 661.258 Q27.4968 653.523 31.5072 649.704 Q35.5176 645.885 43.6657 645.885 Z" fill="#000000" fill-rule="nonzero" fill-opacity="1" /><path clip-path="url(#clip880)" d="M42.4881 604.189 L64.0042 604.189 L64.0042 610.046 L42.679 610.046 Q37.6183 610.046 35.1038 612.019 Q32.5894 613.992 32.5894 617.939 Q32.5894 622.682 35.6131 625.419 Q38.6368 628.156 43.8567 628.156 L64.0042 628.156 L64.0042 634.044 L28.3562 634.044 L28.3562 628.156 L33.8944 628.156 Q30.6797 626.055 29.0883 623.223 Q27.4968 620.358 27.4968 616.634 Q27.4968 610.491 31.3163 607.34 Q35.1038 604.189 42.4881 604.189 Z" fill="#000000" fill-rule="nonzero" fill-opacity="1" /><path clip-path="url(#clip880)" d="M16.4842 571.533 L16.4842 561.953 L48.8219 549.826 L16.4842 537.636 L16.4842 528.055 L64.0042 528.055 L64.0042 534.326 L22.277 534.326 L54.8694 546.58 L54.8694 553.041 L22.277 565.295 L64.0042 565.295 L64.0042 571.533 L16.4842 571.533 Z" fill="#000000" fill-rule="nonzero" fill-opacity="1" /><path clip-path="url(#clip880)" d="M22.818 499.41 L46.4666 508.131 L46.4666 490.657 L22.818 499.41 M16.4842 503.038 L16.4842 495.749 L64.0042 477.639 L64.0042 484.323 L51.8138 488.652 L51.8138 510.072 L64.0042 514.401 L64.0042 521.18 L16.4842 503.038 Z" fill="#000000" fill-rule="nonzero" fill-opacity="1" /><path clip-path="url(#clip880)" d="M16.4842 470.7 L16.4842 440.654 L21.895 440.654 L21.895 464.271 L35.9632 464.271 L35.9632 441.641 L41.3741 441.641 L41.3741 464.271 L58.5933 464.271 L58.5933 440.081 L64.0042 440.081 L64.0042 470.7 L16.4842 470.7 Z" fill="#000000" fill-rule="nonzero" fill-opacity="1" /><path clip-path="url(#clip880)" d="M942.057 39.9662 Q947.93 41.222 951.212 45.1919 Q954.533 49.1618 954.533 54.9951 Q954.533 63.9476 948.376 68.8492 Q942.219 73.7508 930.876 73.7508 Q927.068 73.7508 923.017 72.9811 Q919.007 72.2519 914.713 70.7531 L914.713 62.8538 Q918.116 64.8388 922.167 65.8515 Q926.218 66.8642 930.633 66.8642 Q938.33 66.8642 942.34 63.826 Q946.391 60.7879 946.391 54.9951 Q946.391 49.6479 942.624 46.6502 Q938.897 43.612 932.213 43.612 L925.164 43.612 L925.164 36.8875 L932.537 36.8875 Q938.573 36.8875 941.773 34.4975 Q944.973 32.067 944.973 27.5299 Q944.973 22.8714 941.651 20.4004 Q938.37 17.8888 932.213 17.8888 Q928.851 17.8888 925.002 18.618 Q921.154 19.3471 916.536 20.8865 L916.536 13.5948 Q921.194 12.2985 925.245 11.6504 Q929.337 11.0023 932.942 11.0023 Q942.259 11.0023 947.687 15.2557 Q953.116 19.4686 953.116 26.6793 Q953.116 31.7024 950.239 35.1862 Q947.363 38.6294 942.057 39.9662 Z" fill="#000000" fill-rule="nonzero" fill-opacity="1" /><path clip-path="url(#clip880)" d="M987.305 12.096 L1038.47 12.096 L1038.47 18.9825 L1017 18.9825 L1017 72.576 L1008.77 72.576 L1008.77 18.9825 L987.305 18.9825 L987.305 12.096 Z" fill="#000000" fill-rule="nonzero" fill-opacity="1" /><path clip-path="url(#clip880)" d="M1060.14 34.1734 Q1058.88 33.4443 1057.39 33.1202 Q1055.93 32.7556 1054.15 32.7556 Q1047.83 32.7556 1044.42 36.8875 Q1041.06 40.9789 1041.06 48.6757 L1041.06 72.576 L1033.57 72.576 L1033.57 27.2059 L1041.06 27.2059 L1041.06 34.2544 Q1043.41 30.1225 1047.18 28.1376 Q1050.94 26.1121 1056.33 26.1121 Q1057.1 26.1121 1058.03 26.2337 Q1058.97 26.3147 1060.1 26.5172 L1060.14 34.1734 Z" fill="#000000" fill-rule="nonzero" fill-opacity="1" /><path clip-path="url(#clip880)" d="M1104.94 48.0275 L1104.94 51.6733 L1070.67 51.6733 Q1071.16 59.3701 1075.29 63.421 Q1079.46 67.4314 1086.88 67.4314 Q1091.17 67.4314 1095.18 66.3781 Q1099.23 65.3249 1103.2 63.2184 L1103.2 70.267 Q1099.19 71.9684 1094.98 72.8596 Q1090.77 73.7508 1086.43 73.7508 Q1075.57 73.7508 1069.21 67.4314 Q1062.9 61.1119 1062.9 50.3365 Q1062.9 39.1965 1068.89 32.6746 Q1074.93 26.1121 1085.13 26.1121 Q1094.29 26.1121 1099.6 32.0264 Q1104.94 37.9003 1104.94 48.0275 M1097.49 45.84 Q1097.41 39.7232 1094.05 36.0774 Q1090.72 32.4315 1085.22 32.4315 Q1078.98 32.4315 1075.21 35.9558 Q1071.48 39.4801 1070.92 45.8805 L1097.49 45.84 Z" fill="#000000" fill-rule="nonzero" fill-opacity="1" /><path clip-path="url(#clip880)" d="M1154.89 45.1919 L1154.89 72.576 L1147.44 72.576 L1147.44 45.4349 Q1147.44 38.994 1144.93 35.7938 Q1142.41 32.5936 1137.39 32.5936 Q1131.36 32.5936 1127.87 36.4419 Q1124.39 40.2903 1124.39 46.9338 L1124.39 72.576 L1116.89 72.576 L1116.89 27.2059 L1124.39 27.2059 L1124.39 34.2544 Q1127.06 30.163 1130.67 28.1376 Q1134.31 26.1121 1139.05 26.1121 Q1146.87 26.1121 1150.88 30.9732 Q1154.89 35.7938 1154.89 45.1919 Z" fill="#000000" fill-rule="nonzero" fill-opacity="1" /><path clip-path="url(#clip880)" d="M1199.61 34.0924 L1199.61 9.54393 L1207.07 9.54393 L1207.07 72.576 L1199.61 72.576 L1199.61 65.7705 Q1197.26 69.8214 1193.66 71.8063 Q1190.09 73.7508 1185.07 73.7508 Q1176.85 73.7508 1171.66 67.1883 Q1166.52 60.6258 1166.52 49.9314 Q1166.52 39.2371 1171.66 32.6746 Q1176.85 26.1121 1185.07 26.1121 Q1190.09 26.1121 1193.66 28.0971 Q1197.26 30.0415 1199.61 34.0924 M1174.21 49.9314 Q1174.21 58.1548 1177.58 62.8538 Q1180.98 67.5124 1186.89 67.5124 Q1192.81 67.5124 1196.21 62.8538 Q1199.61 58.1548 1199.61 49.9314 Q1199.61 41.7081 1196.21 37.0496 Q1192.81 32.3505 1186.89 32.3505 Q1180.98 32.3505 1177.58 37.0496 Q1174.21 41.7081 1174.21 49.9314 Z" fill="#000000" fill-rule="nonzero" fill-opacity="1" /><path clip-path="url(#clip880)" d="M1251.34 28.5427 L1251.34 35.5912 Q1248.18 33.9709 1244.78 33.1607 Q1241.38 32.3505 1237.73 32.3505 Q1232.18 32.3505 1229.39 34.0519 Q1226.63 35.7533 1226.63 39.156 Q1226.63 41.7486 1228.62 43.2475 Q1230.6 44.7058 1236.6 46.0426 L1239.15 46.6097 Q1247.09 48.3111 1250.41 51.4303 Q1253.77 54.509 1253.77 60.0587 Q1253.77 66.3781 1248.75 70.0644 Q1243.77 73.7508 1235.02 73.7508 Q1231.37 73.7508 1227.4 73.0216 Q1223.47 72.3329 1219.1 70.9151 L1219.1 63.2184 Q1223.23 65.3654 1227.24 66.4591 Q1231.25 67.5124 1235.18 67.5124 Q1240.45 67.5124 1243.28 65.73 Q1246.12 63.9071 1246.12 60.6258 Q1246.12 57.5877 1244.05 55.9673 Q1242.03 54.3469 1235.1 52.8481 L1232.51 52.2405 Q1225.58 50.7821 1222.5 47.7845 Q1219.42 44.7463 1219.42 39.4801 Q1219.42 33.0797 1223.96 29.5959 Q1228.5 26.1121 1236.84 26.1121 Q1240.97 26.1121 1244.62 26.7198 Q1248.26 27.3274 1251.34 28.5427 Z" fill="#000000" fill-rule="nonzero" fill-opacity="1" /><path clip-path="url(#clip880)" d="M1267.55 62.2867 L1276.09 62.2867 L1276.09 69.2543 L1269.45 82.2172 L1264.22 82.2172 L1267.55 69.2543 L1267.55 62.2867 Z" fill="#000000" fill-rule="nonzero" fill-opacity="1" /><path clip-path="url(#clip880)" d="M1344.23 39.9662 Q1350.1 41.222 1353.39 45.1919 Q1356.71 49.1618 1356.71 54.9951 Q1356.71 63.9476 1350.55 68.8492 Q1344.39 73.7508 1333.05 73.7508 Q1329.24 73.7508 1325.19 72.9811 Q1321.18 72.2519 1316.89 70.7531 L1316.89 62.8538 Q1320.29 64.8388 1324.34 65.8515 Q1328.39 66.8642 1332.81 66.8642 Q1340.5 66.8642 1344.51 63.826 Q1348.56 60.7879 1348.56 54.9951 Q1348.56 49.6479 1344.8 46.6502 Q1341.07 43.612 1334.39 43.612 L1327.34 43.612 L1327.34 36.8875 L1334.71 36.8875 Q1340.75 36.8875 1343.95 34.4975 Q1347.15 32.067 1347.15 27.5299 Q1347.15 22.8714 1343.83 20.4004 Q1340.54 17.8888 1334.39 17.8888 Q1331.02 17.8888 1327.18 18.618 Q1323.33 19.3471 1318.71 20.8865 L1318.71 13.5948 Q1323.37 12.2985 1327.42 11.6504 Q1331.51 11.0023 1335.12 11.0023 Q1344.43 11.0023 1349.86 15.2557 Q1355.29 19.4686 1355.29 26.6793 Q1355.29 31.7024 1352.41 35.1862 Q1349.54 38.6294 1344.23 39.9662 Z" fill="#000000" fill-rule="nonzero" fill-opacity="1" /><path clip-path="url(#clip880)" d="M1406.05 18.8205 L1406.05 41.5461 L1416.34 41.5461 Q1422.05 41.5461 1425.17 38.5889 Q1428.29 35.6318 1428.29 30.163 Q1428.29 24.7348 1425.17 21.7777 Q1422.05 18.8205 1416.34 18.8205 L1406.05 18.8205 M1397.86 12.096 L1416.34 12.096 Q1426.5 12.096 1431.69 16.714 Q1436.92 21.2916 1436.92 30.163 Q1436.92 39.1155 1431.69 43.6931 Q1426.5 48.2706 1416.34 48.2706 L1406.05 48.2706 L1406.05 72.576 L1397.86 72.576 L1397.86 12.096 Z" fill="#000000" fill-rule="nonzero" fill-opacity="1" /><path clip-path="url(#clip880)" d="M1483.42 48.0275 L1483.42 51.6733 L1449.15 51.6733 Q1449.63 59.3701 1453.77 63.421 Q1457.94 67.4314 1465.35 67.4314 Q1469.65 67.4314 1473.66 66.3781 Q1477.71 65.3249 1481.68 63.2184 L1481.68 70.267 Q1477.67 71.9684 1473.45 72.8596 Q1469.24 73.7508 1464.91 73.7508 Q1454.05 73.7508 1447.69 67.4314 Q1441.37 61.1119 1441.37 50.3365 Q1441.37 39.1965 1447.37 32.6746 Q1453.4 26.1121 1463.61 26.1121 Q1472.77 26.1121 1478.07 32.0264 Q1483.42 37.9003 1483.42 48.0275 M1475.97 45.84 Q1475.88 39.7232 1472.52 36.0774 Q1469.2 32.4315 1463.69 32.4315 Q1457.45 32.4315 1453.69 35.9558 Q1449.96 39.4801 1449.39 45.8805 L1475.97 45.84 Z" fill="#000000" fill-rule="nonzero" fill-opacity="1" /><path clip-path="url(#clip880)" d="M1521.94 34.1734 Q1520.69 33.4443 1519.19 33.1202 Q1517.73 32.7556 1515.95 32.7556 Q1509.63 32.7556 1506.23 36.8875 Q1502.86 40.9789 1502.86 48.6757 L1502.86 72.576 L1495.37 72.576 L1495.37 27.2059 L1502.86 27.2059 L1502.86 34.2544 Q1505.21 30.1225 1508.98 28.1376 Q1512.75 26.1121 1518.14 26.1121 Q1518.91 26.1121 1519.84 26.2337 Q1520.77 26.3147 1521.9 26.5172 L1521.94 34.1734 Z" fill="#000000" fill-rule="nonzero" fill-opacity="1" /><path clip-path="url(#clip880)" d="M1529.76 27.2059 L1537.22 27.2059 L1537.22 72.576 L1529.76 72.576 L1529.76 27.2059 M1529.76 9.54393 L1537.22 9.54393 L1537.22 18.9825 L1529.76 18.9825 L1529.76 9.54393 Z" fill="#000000" fill-rule="nonzero" fill-opacity="1" /><path clip-path="url(#clip880)" d="M1570.39 32.4315 Q1564.4 32.4315 1560.91 37.1306 Q1557.43 41.7891 1557.43 49.9314 Q1557.43 58.0738 1560.87 62.7728 Q1564.36 67.4314 1570.39 67.4314 Q1576.35 67.4314 1579.83 62.7323 Q1583.31 58.0333 1583.31 49.9314 Q1583.31 41.8701 1579.83 37.1711 Q1576.35 32.4315 1570.39 32.4315 M1570.39 26.1121 Q1580.11 26.1121 1585.66 32.4315 Q1591.21 38.7509 1591.21 49.9314 Q1591.21 61.0714 1585.66 67.4314 Q1580.11 73.7508 1570.39 73.7508 Q1560.63 73.7508 1555.08 67.4314 Q1549.57 61.0714 1549.57 49.9314 Q1549.57 38.7509 1555.08 32.4315 Q1560.63 26.1121 1570.39 26.1121 Z" fill="#000000" fill-rule="nonzero" fill-opacity="1" /><path clip-path="url(#clip880)" d="M1633.42 34.0924 L1633.42 9.54393 L1640.88 9.54393 L1640.88 72.576 L1633.42 72.576 L1633.42 65.7705 Q1631.07 69.8214 1627.47 71.8063 Q1623.9 73.7508 1618.88 73.7508 Q1610.66 73.7508 1605.47 67.1883 Q1600.33 60.6258 1600.33 49.9314 Q1600.33 39.2371 1605.47 32.6746 Q1610.66 26.1121 1618.88 26.1121 Q1623.9 26.1121 1627.47 28.0971 Q1631.07 30.0415 1633.42 34.0924 M1608.03 49.9314 Q1608.03 58.1548 1611.39 62.8538 Q1614.79 67.5124 1620.7 67.5124 Q1626.62 67.5124 1630.02 62.8538 Q1633.42 58.1548 1633.42 49.9314 Q1633.42 41.7081 1630.02 37.0496 Q1626.62 32.3505 1620.7 32.3505 Q1614.79 32.3505 1611.39 37.0496 Q1608.03 41.7081 1608.03 49.9314 Z" fill="#000000" fill-rule="nonzero" fill-opacity="1" /><path clip-path="url(#clip880)" d="M1685.15 28.5427 L1685.15 35.5912 Q1681.99 33.9709 1678.59 33.1607 Q1675.19 32.3505 1671.54 32.3505 Q1665.99 32.3505 1663.2 34.0519 Q1660.44 35.7533 1660.44 39.156 Q1660.44 41.7486 1662.43 43.2475 Q1664.41 44.7058 1670.41 46.0426 L1672.96 46.6097 Q1680.9 48.3111 1684.22 51.4303 Q1687.58 54.509 1687.58 60.0587 Q1687.58 66.3781 1682.56 70.0644 Q1677.58 73.7508 1668.83 73.7508 Q1665.18 73.7508 1661.21 73.0216 Q1657.28 72.3329 1652.91 70.9151 L1652.91 63.2184 Q1657.04 65.3654 1661.05 66.4591 Q1665.06 67.5124 1668.99 67.5124 Q1674.26 67.5124 1677.09 65.73 Q1679.93 63.9071 1679.93 60.6258 Q1679.93 57.5877 1677.86 55.9673 Q1675.84 54.3469 1668.91 52.8481 L1666.32 52.2405 Q1659.39 50.7821 1656.31 47.7845 Q1653.23 44.7463 1653.23 39.4801 Q1653.23 33.0797 1657.77 29.5959 Q1662.31 26.1121 1670.65 26.1121 Q1674.78 26.1121 1678.43 26.7198 Q1682.08 27.3274 1685.15 28.5427 Z" fill="#000000" fill-rule="nonzero" fill-opacity="1" /><circle clip-path="url(#clip882)" cx="309.067" cy="160.256" r="14.4" fill="#1f77b4" fill-rule="evenodd" fill-opacity="1" stroke="none"/>
<circle clip-path="url(#clip882)" cx="529.53" cy="319.547" r="14.4" fill="#1f77b4" fill-rule="evenodd" fill-opacity="1" stroke="none"/>
<circle clip-path="url(#clip882)" cx="749.992" cy="325.345" r="14.4" fill="#1f77b4" fill-rule="evenodd" fill-opacity="1" stroke="none"/>
<circle clip-path="url(#clip882)" cx="970.455" cy="303.171" r="14.4" fill="#1f77b4" fill-rule="evenodd" fill-opacity="1" stroke="none"/>
<circle clip-path="url(#clip882)" cx="1190.92" cy="334.174" r="14.4" fill="#1f77b4" fill-rule="evenodd" fill-opacity="1" stroke="none"/>
<circle clip-path="url(#clip882)" cx="1411.38" cy="346.846" r="14.4" fill="#1f77b4" fill-rule="evenodd" fill-opacity="1" stroke="none"/>
<circle clip-path="url(#clip882)" cx="1631.84" cy="313.35" r="14.4" fill="#1f77b4" fill-rule="evenodd" fill-opacity="1" stroke="none"/>
<circle clip-path="url(#clip882)" cx="1852.31" cy="308.252" r="14.4" fill="#1f77b4" fill-rule="evenodd" fill-opacity="1" stroke="none"/>
<circle clip-path="url(#clip882)" cx="2072.77" cy="310.943" r="14.4" fill="#1f77b4" fill-rule="evenodd" fill-opacity="1" stroke="none"/>
<circle clip-path="url(#clip882)" cx="2293.23" cy="276.102" r="14.4" fill="#1f77b4" fill-rule="evenodd" fill-opacity="1" stroke="none"/>
<polyline clip-path="url(#clip882)" style="stroke:#1f77b4; stroke-linecap:round; stroke-linejoin:round; stroke-width:8; stroke-opacity:1; fill:none" points="309.067,160.256 529.53,319.547 749.992,325.345 970.455,303.171 1190.92,334.174 1411.38,346.846 1631.84,313.35 1852.31,308.252 2072.77,310.943 2293.23,276.102 "/>
<circle clip-path="url(#clip882)" cx="309.067" cy="723.746" r="14.4" fill="#ff7e0d" fill-rule="evenodd" fill-opacity="1" stroke="none"/>
<circle clip-path="url(#clip882)" cx="529.53" cy="1201.18" r="14.4" fill="#ff7e0d" fill-rule="evenodd" fill-opacity="1" stroke="none"/>
<circle clip-path="url(#clip882)" cx="749.992" cy="1244.9" r="14.4" fill="#ff7e0d" fill-rule="evenodd" fill-opacity="1" stroke="none"/>
<circle clip-path="url(#clip882)" cx="970.455" cy="1274.22" r="14.4" fill="#ff7e0d" fill-rule="evenodd" fill-opacity="1" stroke="none"/>
<circle clip-path="url(#clip882)" cx="1190.92" cy="1291.39" r="14.4" fill="#ff7e0d" fill-rule="evenodd" fill-opacity="1" stroke="none"/>
<circle clip-path="url(#clip882)" cx="1411.38" cy="1312.94" r="14.4" fill="#ff7e0d" fill-rule="evenodd" fill-opacity="1" stroke="none"/>
<circle clip-path="url(#clip882)" cx="1631.84" cy="1325.26" r="14.4" fill="#ff7e0d" fill-rule="evenodd" fill-opacity="1" stroke="none"/>
<circle clip-path="url(#clip882)" cx="1852.31" cy="1339.4" r="14.4" fill="#ff7e0d" fill-rule="evenodd" fill-opacity="1" stroke="none"/>
<circle clip-path="url(#clip882)" cx="2072.77" cy="1367.95" r="14.4" fill="#ff7e0d" fill-rule="evenodd" fill-opacity="1" stroke="none"/>
<circle clip-path="url(#clip882)" cx="2293.23" cy="1386.4" r="14.4" fill="#ff7e0d" fill-rule="evenodd" fill-opacity="1" stroke="none"/>
<polyline clip-path="url(#clip882)" style="stroke:#ff7e0d; stroke-linecap:round; stroke-linejoin:round; stroke-width:8; stroke-opacity:1; fill:none" points="309.067,723.746 529.53,1201.18 749.992,1244.9 970.455,1274.22 1190.92,1291.39 1411.38,1312.94 1631.84,1325.26 1852.31,1339.4 2072.77,1367.95 2293.23,1386.4 "/>
<path clip-path="url(#clip880)" d="M1980.04 868.49 L2282.65 868.49 L2282.65 712.97 L1980.04 712.97  Z" fill="#ffffff" fill-rule="evenodd" fill-opacity="1"/>
<polyline clip-path="url(#clip880)" style="stroke:#000000; stroke-linecap:round; stroke-linejoin:round; stroke-width:4; stroke-opacity:1; fill:none" points="1980.04,868.49 2282.65,868.49 2282.65,712.97 1980.04,712.97 1980.04,868.49 "/>
<circle clip-path="url(#clip880)" cx="2073.51" cy="764.81" r="23.04" fill="#1f77b4" fill-rule="evenodd" fill-opacity="1" stroke="none"/>
<path clip-path="url(#clip880)" d="M2167.66 778.154 L2175.3 778.154 L2175.3 751.789 L2166.99 753.455 L2166.99 749.196 L2175.25 747.53 L2179.93 747.53 L2179.93 778.154 L2187.57 778.154 L2187.57 782.09 L2167.66 782.09 L2167.66 778.154 Z" fill="#000000" fill-rule="nonzero" fill-opacity="1" /><path clip-path="url(#clip880)" d="M2196.59 747.53 L2202.89 747.53 L2218.22 776.441 L2218.22 747.53 L2222.75 747.53 L2222.75 782.09 L2216.46 782.09 L2201.13 753.178 L2201.13 782.09 L2196.59 782.09 L2196.59 747.53 Z" fill="#000000" fill-rule="nonzero" fill-opacity="1" /><path clip-path="url(#clip880)" d="M2232.06 747.53 L2238.35 747.53 L2253.68 776.441 L2253.68 747.53 L2258.21 747.53 L2258.21 782.09 L2251.92 782.09 L2236.59 753.178 L2236.59 782.09 L2232.06 782.09 L2232.06 747.53 Z" fill="#000000" fill-rule="nonzero" fill-opacity="1" /><circle clip-path="url(#clip880)" cx="2073.51" cy="816.65" r="23.04" fill="#ff7e0d" fill-rule="evenodd" fill-opacity="1" stroke="none"/>
<path clip-path="url(#clip880)" d="M2166.99 799.37 L2173.96 799.37 L2182.78 822.888 L2191.64 799.37 L2198.61 799.37 L2198.61 833.93 L2194.05 833.93 L2194.05 803.583 L2185.14 827.286 L2180.44 827.286 L2171.53 803.583 L2171.53 833.93 L2166.99 833.93 L2166.99 799.37 Z" fill="#000000" fill-rule="nonzero" fill-opacity="1" /><path clip-path="url(#clip880)" d="M2212.57 803.212 L2212.57 816.198 L2218.45 816.198 Q2221.71 816.198 2223.49 814.508 Q2225.28 812.819 2225.28 809.694 Q2225.28 806.592 2223.49 804.902 Q2221.71 803.212 2218.45 803.212 L2212.57 803.212 M2207.89 799.37 L2218.45 799.37 Q2224.26 799.37 2227.22 802.008 Q2230.21 804.624 2230.21 809.694 Q2230.21 814.809 2227.22 817.425 Q2224.26 820.041 2218.45 820.041 L2212.57 820.041 L2212.57 833.93 L2207.89 833.93 L2207.89 799.37 Z" fill="#000000" fill-rule="nonzero" fill-opacity="1" /><path clip-path="url(#clip880)" d="M2257.2 800.504 L2257.2 805.064 Q2254.53 803.791 2252.17 803.166 Q2249.81 802.541 2247.61 802.541 Q2243.79 802.541 2241.71 804.022 Q2239.65 805.504 2239.65 808.235 Q2239.65 810.527 2241.02 811.707 Q2242.4 812.865 2246.25 813.582 L2249.07 814.161 Q2254.3 815.157 2256.78 817.68 Q2259.28 820.18 2259.28 824.393 Q2259.28 829.416 2255.9 832.008 Q2252.54 834.601 2246.04 834.601 Q2243.59 834.601 2240.81 834.045 Q2238.05 833.49 2235.09 832.402 L2235.09 827.587 Q2237.94 829.184 2240.67 829.994 Q2243.4 830.805 2246.04 830.805 Q2250.04 830.805 2252.22 829.231 Q2254.4 827.656 2254.4 824.74 Q2254.4 822.194 2252.82 820.758 Q2251.27 819.323 2247.71 818.606 L2244.86 818.05 Q2239.63 817.008 2237.29 814.786 Q2234.95 812.564 2234.95 808.606 Q2234.95 804.022 2238.17 801.383 Q2241.41 798.745 2247.08 798.745 Q2249.51 798.745 2252.03 799.184 Q2254.56 799.624 2257.2 800.504 Z" fill="#000000" fill-rule="nonzero" fill-opacity="1" /></svg>
