<?xml version="1.0" encoding="utf-8"?>
<svg xmlns="http://www.w3.org/2000/svg" xmlns:xlink="http://www.w3.org/1999/xlink" width="1000" height="500" viewBox="0 0 4000 2000">
<defs>
  <clipPath id="clip580">
    <rect x="0" y="0" width="4000" height="2000"/>
  </clipPath>
</defs>
<path clip-path="url(#clip580)" d="M0 2000 L4000 2000 L4000 0 L0 0  Z" fill="#ffffff" fill-rule="evenodd" fill-opacity="1"/>
<defs>
  <clipPath id="clip581">
    <rect x="800" y="0" width="2801" height="2000"/>
  </clipPath>
</defs>
<path clip-path="url(#clip580)" d="M596.932 1676.27 L3109.18 1676.27 L3109.18 206.984 L596.932 206.984  Z" fill="#ffffff" fill-rule="evenodd" fill-opacity="1"/>
<defs>
  <clipPath id="clip582">
    <rect x="596" y="206" width="2513" height="1470"/>
  </clipPath>
</defs>
<polyline clip-path="url(#clip582)" style="stroke:#000000; stroke-linecap:round; stroke-linejoin:round; stroke-width:2; stroke-opacity:0.1; fill:none" points="644.093,1676.27 644.093,206.984 "/>
<polyline clip-path="url(#clip582)" style="stroke:#000000; stroke-linecap:round; stroke-linejoin:round; stroke-width:2; stroke-opacity:0.1; fill:none" points="1242.59,1676.27 1242.59,206.984 "/>
<polyline clip-path="url(#clip582)" style="stroke:#000000; stroke-linecap:round; stroke-linejoin:round; stroke-width:2; stroke-opacity:0.1; fill:none" points="1841.09,1676.27 1841.09,206.984 "/>
<polyline clip-path="url(#clip582)" style="stroke:#000000; stroke-linecap:round; stroke-linejoin:round; stroke-width:2; stroke-opacity:0.1; fill:none" points="2439.58,1676.27 2439.58,206.984 "/>
<polyline clip-path="url(#clip582)" style="stroke:#000000; stroke-linecap:round; stroke-linejoin:round; stroke-width:2; stroke-opacity:0.1; fill:none" points="3038.08,1676.27 3038.08,206.984 "/>
<polyline clip-path="url(#clip582)" style="stroke:#000000; stroke-linecap:round; stroke-linejoin:round; stroke-width:2; stroke-opacity:0.1; fill:none" points="596.932,1527.91 3109.18,1527.91 "/>
<polyline clip-path="url(#clip582)" style="stroke:#000000; stroke-linecap:round; stroke-linejoin:round; stroke-width:2; stroke-opacity:0.1; fill:none" points="596.932,1234.82 3109.18,1234.82 "/>
<polyline clip-path="url(#clip582)" style="stroke:#000000; stroke-linecap:round; stroke-linejoin:round; stroke-width:2; stroke-opacity:0.1; fill:none" points="596.932,941.731 3109.18,941.731 "/>
<polyline clip-path="url(#clip582)" style="stroke:#000000; stroke-linecap:round; stroke-linejoin:round; stroke-width:2; stroke-opacity:0.1; fill:none" points="596.932,648.639 3109.18,648.639 "/>
<polyline clip-path="url(#clip582)" style="stroke:#000000; stroke-linecap:round; stroke-linejoin:round; stroke-width:2; stroke-opacity:0.1; fill:none" points="596.932,355.547 3109.18,355.547 "/>
<polyline clip-path="url(#clip580)" style="stroke:#000000; stroke-linecap:round; stroke-linejoin:round; stroke-width:4; stroke-opacity:1; fill:none" points="596.932,1676.27 3109.18,1676.27 "/>
<polyline clip-path="url(#clip580)" style="stroke:#000000; stroke-linecap:round; stroke-linejoin:round; stroke-width:4; stroke-opacity:1; fill:none" points="644.093,1676.27 644.093,1657.37 "/>
<polyline clip-path="url(#clip580)" style="stroke:#000000; stroke-linecap:round; stroke-linejoin:round; stroke-width:4; stroke-opacity:1; fill:none" points="1242.59,1676.27 1242.59,1657.37 "/>
<polyline clip-path="url(#clip580)" style="stroke:#000000; stroke-linecap:round; stroke-linejoin:round; stroke-width:4; stroke-opacity:1; fill:none" points="1841.09,1676.27 1841.09,1657.37 "/>
<polyline clip-path="url(#clip580)" style="stroke:#000000; stroke-linecap:round; stroke-linejoin:round; stroke-width:4; stroke-opacity:1; fill:none" points="2439.58,1676.27 2439.58,1657.37 "/>
<polyline clip-path="url(#clip580)" style="stroke:#000000; stroke-linecap:round; stroke-linejoin:round; stroke-width:4; stroke-opacity:1; fill:none" points="3038.08,1676.27 3038.08,1657.37 "/>
<path clip-path="url(#clip580)" d="M644.093 1744.89 Q632.809 1744.89 627.094 1756.03 Q621.452 1767.1 621.452 1789.38 Q621.452 1811.58 627.094 1822.72 Q632.809 1833.79 644.093 1833.79 Q655.45 1833.79 661.093 1822.72 Q666.807 1811.58 666.807 1789.38 Q666.807 1767.1 661.093 1756.03 Q655.45 1744.89 644.093 1744.89 M644.093 1733.31 Q662.25 1733.31 671.799 1747.71 Q681.42 1762.03 681.42 1789.38 Q681.42 1816.65 671.799 1831.04 Q662.25 1845.37 644.093 1845.37 Q625.937 1845.37 616.316 1831.04 Q606.767 1816.65 606.767 1789.38 Q606.767 1762.03 616.316 1747.71 Q625.937 1733.31 644.093 1733.31 Z" fill="#000000" fill-rule="nonzero" fill-opacity="1" /><path clip-path="url(#clip580)" d="M1177.81 1830.97 L1228.81 1830.97 L1228.81 1843.27 L1160.23 1843.27 L1160.23 1830.97 Q1168.55 1822.36 1182.88 1807.89 Q1197.27 1793.35 1200.96 1789.16 Q1207.98 1781.27 1210.73 1775.85 Q1213.55 1770.35 1213.55 1765.07 Q1213.55 1756.46 1207.47 1751.04 Q1201.47 1745.61 1191.77 1745.61 Q1184.9 1745.61 1177.23 1748 Q1169.64 1750.39 1160.96 1755.23 L1160.96 1740.48 Q1169.78 1736.93 1177.45 1735.12 Q1185.12 1733.31 1191.48 1733.31 Q1208.27 1733.31 1218.25 1741.71 Q1228.23 1750.1 1228.23 1764.13 Q1228.23 1770.79 1225.7 1776.79 Q1223.24 1782.72 1216.66 1790.82 Q1214.85 1792.92 1205.16 1802.98 Q1195.46 1812.96 1177.81 1830.97 Z" fill="#000000" fill-rule="nonzero" fill-opacity="1" /><path clip-path="url(#clip580)" d="M1259.63 1735.27 L1316.99 1735.27 L1316.99 1747.57 L1273.01 1747.57 L1273.01 1774.04 Q1276.19 1772.96 1279.37 1772.45 Q1282.56 1771.87 1285.74 1771.87 Q1303.82 1771.87 1314.38 1781.78 Q1324.95 1791.69 1324.95 1808.62 Q1324.95 1826.05 1314.1 1835.74 Q1303.24 1845.37 1283.5 1845.37 Q1276.7 1845.37 1269.61 1844.21 Q1262.59 1843.05 1255.07 1840.74 L1255.07 1826.05 Q1261.58 1829.6 1268.52 1831.33 Q1275.47 1833.07 1283.21 1833.07 Q1295.72 1833.07 1303.03 1826.49 Q1310.33 1819.9 1310.33 1808.62 Q1310.33 1797.33 1303.03 1790.75 Q1295.72 1784.17 1283.21 1784.17 Q1277.35 1784.17 1271.49 1785.47 Q1265.7 1786.77 1259.63 1789.52 L1259.63 1735.27 Z" fill="#000000" fill-rule="nonzero" fill-opacity="1" /><path clip-path="url(#clip580)" d="M1762.02 1735.27 L1819.39 1735.27 L1819.39 1747.57 L1775.4 1747.57 L1775.4 1774.04 Q1778.59 1772.96 1781.77 1772.45 Q1784.95 1771.87 1788.14 1771.87 Q1806.22 1771.87 1816.78 1781.78 Q1827.34 1791.69 1827.34 1808.62 Q1827.34 1826.05 1816.49 1835.74 Q1805.64 1845.37 1785.89 1845.37 Q1779.09 1845.37 1772 1844.21 Q1764.99 1843.05 1757.46 1840.74 L1757.46 1826.05 Q1763.97 1829.6 1770.92 1831.33 Q1777.86 1833.07 1785.6 1833.07 Q1798.12 1833.07 1805.42 1826.49 Q1812.73 1819.9 1812.73 1808.62 Q1812.73 1797.33 1805.42 1790.75 Q1798.12 1784.17 1785.6 1784.17 Q1779.74 1784.17 1773.88 1785.47 Q1768.1 1786.77 1762.02 1789.52 L1762.02 1735.27 Z" fill="#000000" fill-rule="nonzero" fill-opacity="1" /><path clip-path="url(#clip580)" d="M1887.38 1744.89 Q1876.1 1744.89 1870.38 1756.03 Q1864.74 1767.1 1864.74 1789.38 Q1864.74 1811.58 1870.38 1822.72 Q1876.1 1833.79 1887.38 1833.79 Q1898.74 1833.79 1904.38 1822.72 Q1910.1 1811.58 1910.1 1789.38 Q1910.1 1767.1 1904.38 1756.03 Q1898.74 1744.89 1887.38 1744.89 M1887.38 1733.31 Q1905.54 1733.31 1915.09 1747.71 Q1924.71 1762.03 1924.71 1789.38 Q1924.71 1816.65 1915.09 1831.04 Q1905.54 1845.37 1887.38 1845.37 Q1869.23 1845.37 1859.6 1831.04 Q1850.06 1816.65 1850.06 1789.38 Q1850.06 1762.03 1859.6 1747.71 Q1869.23 1733.31 1887.38 1733.31 Z" fill="#000000" fill-rule="nonzero" fill-opacity="1" /><path clip-path="url(#clip580)" d="M2357.88 1735.27 L2427.32 1735.27 L2427.32 1741.49 L2388.11 1843.27 L2372.85 1843.27 L2409.74 1747.57 L2357.88 1747.57 L2357.88 1735.27 Z" fill="#000000" fill-rule="nonzero" fill-opacity="1" /><path clip-path="url(#clip580)" d="M2455.97 1735.27 L2513.33 1735.27 L2513.33 1747.57 L2469.35 1747.57 L2469.35 1774.04 Q2472.53 1772.96 2475.72 1772.45 Q2478.9 1771.87 2482.08 1771.87 Q2500.17 1771.87 2510.73 1781.78 Q2521.29 1791.69 2521.29 1808.62 Q2521.29 1826.05 2510.44 1835.74 Q2499.59 1845.37 2479.84 1845.37 Q2473.04 1845.37 2465.95 1844.21 Q2458.93 1843.05 2451.41 1840.74 L2451.41 1826.05 Q2457.92 1829.6 2464.86 1831.33 Q2471.81 1833.07 2479.55 1833.07 Q2492.06 1833.07 2499.37 1826.49 Q2506.68 1819.9 2506.68 1808.62 Q2506.68 1797.33 2499.37 1790.75 Q2492.06 1784.17 2479.55 1784.17 Q2473.69 1784.17 2467.83 1785.47 Q2462.04 1786.77 2455.97 1789.52 L2455.97 1735.27 Z" fill="#000000" fill-rule="nonzero" fill-opacity="1" /><path clip-path="url(#clip580)" d="M2911.85 1830.97 L2935.72 1830.97 L2935.72 1748.58 L2909.75 1753.79 L2909.75 1740.48 L2935.58 1735.27 L2950.19 1735.27 L2950.19 1830.97 L2974.06 1830.97 L2974.06 1843.27 L2911.85 1843.27 L2911.85 1830.97 Z" fill="#000000" fill-rule="nonzero" fill-opacity="1" /><path clip-path="url(#clip580)" d="M3034.82 1744.89 Q3023.54 1744.89 3017.82 1756.03 Q3012.18 1767.1 3012.18 1789.38 Q3012.18 1811.58 3017.82 1822.72 Q3023.54 1833.79 3034.82 1833.79 Q3046.18 1833.79 3051.82 1822.72 Q3057.54 1811.58 3057.54 1789.38 Q3057.54 1767.1 3051.82 1756.03 Q3046.18 1744.89 3034.82 1744.89 M3034.82 1733.31 Q3052.98 1733.31 3062.53 1747.71 Q3072.15 1762.03 3072.15 1789.38 Q3072.15 1816.65 3062.53 1831.04 Q3052.98 1845.37 3034.82 1845.37 Q3016.67 1845.37 3007.05 1831.04 Q2997.5 1816.65 2997.5 1789.38 Q2997.5 1762.03 3007.05 1747.71 Q3016.67 1733.31 3034.82 1733.31 Z" fill="#000000" fill-rule="nonzero" fill-opacity="1" /><path clip-path="url(#clip580)" d="M3129.08 1744.89 Q3117.8 1744.89 3112.08 1756.03 Q3106.44 1767.1 3106.44 1789.38 Q3106.44 1811.58 3112.08 1822.72 Q3117.8 1833.79 3129.08 1833.79 Q3140.44 1833.79 3146.08 1822.72 Q3151.79 1811.58 3151.79 1789.38 Q3151.79 1767.1 3146.08 1756.03 Q3140.44 1744.89 3129.08 1744.89 M3129.08 1733.31 Q3147.24 1733.31 3156.79 1747.71 Q3166.41 1762.03 3166.41 1789.38 Q3166.41 1816.65 3156.79 1831.04 Q3147.24 1845.37 3129.08 1845.37 Q3110.92 1845.37 3101.3 1831.04 Q3091.75 1816.65 3091.75 1789.38 Q3091.75 1762.03 3101.3 1747.71 Q3110.92 1733.31 3129.08 1733.31 Z" fill="#000000" fill-rule="nonzero" fill-opacity="1" /><path clip-path="url(#clip580)" d="M1850.92 1923.85 L1850.92 1946.85 L1878.34 1946.85 L1878.34 1957.19 L1850.92 1957.19 L1850.92 2001.18 Q1850.92 2011.09 1853.6 2013.91 Q1856.35 2016.73 1864.67 2016.73 L1878.34 2016.73 L1878.34 2027.87 L1864.67 2027.87 Q1849.26 2027.87 1843.4 2022.15 Q1837.54 2016.37 1837.54 2001.18 L1837.54 1957.19 L1827.77 1957.19 L1827.77 1946.85 L1837.54 1946.85 L1837.54 1923.85 L1850.92 1923.85 Z" fill="#000000" fill-rule="nonzero" fill-opacity="1" /><polyline clip-path="url(#clip580)" style="stroke:#000000; stroke-linecap:round; stroke-linejoin:round; stroke-width:4; stroke-opacity:1; fill:none" points="596.932,1676.27 596.932,206.984 "/>
<polyline clip-path="url(#clip580)" style="stroke:#000000; stroke-linecap:round; stroke-linejoin:round; stroke-width:4; stroke-opacity:1; fill:none" points="596.932,1527.91 611.079,1527.91 "/>
<polyline clip-path="url(#clip580)" style="stroke:#000000; stroke-linecap:round; stroke-linejoin:round; stroke-width:4; stroke-opacity:1; fill:none" points="596.932,1234.82 611.079,1234.82 "/>
<polyline clip-path="url(#clip580)" style="stroke:#000000; stroke-linecap:round; stroke-linejoin:round; stroke-width:4; stroke-opacity:1; fill:none" points="596.932,941.731 611.079,941.731 "/>
<polyline clip-path="url(#clip580)" style="stroke:#000000; stroke-linecap:round; stroke-linejoin:round; stroke-width:4; stroke-opacity:1; fill:none" points="596.932,648.639 611.079,648.639 "/>
<polyline clip-path="url(#clip580)" style="stroke:#000000; stroke-linecap:round; stroke-linejoin:round; stroke-width:4; stroke-opacity:1; fill:none" points="596.932,355.547 611.079,355.547 "/>
<path clip-path="url(#clip580)" d="M202.732 1529.33 L295.469 1529.33 L295.469 1541.62 L202.732 1541.62 L202.732 1529.33 Z" fill="#000000" fill-rule="nonzero" fill-opacity="1" /><path clip-path="url(#clip580)" d="M329.54 1569.62 L353.411 1569.62 L353.411 1487.22 L327.442 1492.43 L327.442 1479.12 L353.267 1473.91 L367.879 1473.91 L367.879 1569.62 L391.75 1569.62 L391.75 1581.91 L329.54 1581.91 L329.54 1569.62 Z" fill="#000000" fill-rule="nonzero" fill-opacity="1" /><path clip-path="url(#clip580)" d="M421.264 1563.54 L436.527 1563.54 L436.527 1581.91 L421.264 1581.91 L421.264 1563.54 Z" fill="#000000" fill-rule="nonzero" fill-opacity="1" /><path clip-path="url(#clip580)" d="M499.606 1483.54 Q488.321 1483.54 482.606 1494.68 Q476.964 1505.74 476.964 1528.02 Q476.964 1550.23 482.606 1561.37 Q488.321 1572.44 499.606 1572.44 Q510.963 1572.44 516.605 1561.37 Q522.32 1550.23 522.32 1528.02 Q522.32 1505.74 516.605 1494.68 Q510.963 1483.54 499.606 1483.54 M499.606 1471.96 Q517.762 1471.96 527.311 1486.36 Q536.932 1500.68 536.932 1528.02 Q536.932 1555.29 527.311 1569.69 Q517.762 1584.01 499.606 1584.01 Q481.449 1584.01 471.828 1569.69 Q462.28 1555.29 462.28 1528.02 Q462.28 1500.68 471.828 1486.36 Q481.449 1471.96 499.606 1471.96 Z" fill="#000000" fill-rule="nonzero" fill-opacity="1" /><path clip-path="url(#clip580)" d="M205.843 1236.23 L298.58 1236.23 L298.58 1248.53 L205.843 1248.53 L205.843 1236.23 Z" fill="#000000" fill-rule="nonzero" fill-opacity="1" /><path clip-path="url(#clip580)" d="M361.369 1190.44 Q350.084 1190.44 344.369 1201.58 Q338.727 1212.65 338.727 1234.93 Q338.727 1257.14 344.369 1268.28 Q350.084 1279.35 361.369 1279.35 Q372.726 1279.35 378.368 1268.28 Q384.083 1257.14 384.083 1234.93 Q384.083 1212.65 378.368 1201.58 Q372.726 1190.44 361.369 1190.44 M361.369 1178.87 Q379.525 1178.87 389.074 1193.26 Q398.695 1207.59 398.695 1234.93 Q398.695 1262.2 389.074 1276.6 Q379.525 1290.92 361.369 1290.92 Q343.212 1290.92 333.591 1276.6 Q324.042 1262.2 324.042 1234.93 Q324.042 1207.59 333.591 1193.26 Q343.212 1178.87 361.369 1178.87 Z" fill="#000000" fill-rule="nonzero" fill-opacity="1" /><path clip-path="url(#clip580)" d="M424.375 1270.45 L439.638 1270.45 L439.638 1288.82 L424.375 1288.82 L424.375 1270.45 Z" fill="#000000" fill-rule="nonzero" fill-opacity="1" /><path clip-path="url(#clip580)" d="M471.611 1180.82 L528.975 1180.82 L528.975 1193.12 L484.994 1193.12 L484.994 1219.6 Q488.176 1218.51 491.359 1218 Q494.542 1217.43 497.725 1217.43 Q515.809 1217.43 526.371 1227.34 Q536.932 1237.25 536.932 1254.17 Q536.932 1271.61 526.081 1281.3 Q515.231 1290.92 495.482 1290.92 Q488.683 1290.92 481.594 1289.76 Q474.577 1288.61 467.054 1286.29 L467.054 1271.61 Q473.564 1275.15 480.509 1276.89 Q487.453 1278.62 495.193 1278.62 Q507.708 1278.62 515.014 1272.04 Q522.32 1265.46 522.32 1254.17 Q522.32 1242.89 515.014 1236.31 Q507.708 1229.72 495.193 1229.72 Q489.334 1229.72 483.474 1231.02 Q477.687 1232.33 471.611 1235.08 L471.611 1180.82 Z" fill="#000000" fill-rule="nonzero" fill-opacity="1" /><path clip-path="url(#clip580)" d="M358.258 897.352 Q346.973 897.352 341.259 908.492 Q335.616 919.559 335.616 941.839 Q335.616 964.047 341.259 975.187 Q346.973 986.255 358.258 986.255 Q369.615 986.255 375.257 975.187 Q380.972 964.047 380.972 941.839 Q380.972 919.559 375.257 908.492 Q369.615 897.352 358.258 897.352 M358.258 885.778 Q376.415 885.778 385.963 900.173 Q395.584 914.496 395.584 941.839 Q395.584 969.111 385.963 983.506 Q376.415 997.829 358.258 997.829 Q340.101 997.829 330.48 983.506 Q320.932 969.111 320.932 941.839 Q320.932 914.496 330.48 900.173 Q340.101 885.778 358.258 885.778 Z" fill="#000000" fill-rule="nonzero" fill-opacity="1" /><path clip-path="url(#clip580)" d="M421.264 977.357 L436.527 977.357 L436.527 995.731 L421.264 995.731 L421.264 977.357 Z" fill="#000000" fill-rule="nonzero" fill-opacity="1" /><path clip-path="url(#clip580)" d="M499.606 897.352 Q488.321 897.352 482.606 908.492 Q476.964 919.559 476.964 941.839 Q476.964 964.047 482.606 975.187 Q488.321 986.255 499.606 986.255 Q510.963 986.255 516.605 975.187 Q522.32 964.047 522.32 941.839 Q522.32 919.559 516.605 908.492 Q510.963 897.352 499.606 897.352 M499.606 885.778 Q517.762 885.778 527.311 900.173 Q536.932 914.496 536.932 941.839 Q536.932 969.111 527.311 983.506 Q517.762 997.829 499.606 997.829 Q481.449 997.829 471.828 983.506 Q462.28 969.111 462.28 941.839 Q462.28 914.496 471.828 900.173 Q481.449 885.778 499.606 885.778 Z" fill="#000000" fill-rule="nonzero" fill-opacity="1" /><path clip-path="url(#clip580)" d="M361.369 604.26 Q350.084 604.26 344.369 615.4 Q338.727 626.467 338.727 648.747 Q338.727 670.955 344.369 682.095 Q350.084 693.163 361.369 693.163 Q372.726 693.163 378.368 682.095 Q384.083 670.955 384.083 648.747 Q384.083 626.467 378.368 615.4 Q372.726 604.26 361.369 604.26 M361.369 592.686 Q379.525 592.686 389.074 607.081 Q398.695 621.404 398.695 648.747 Q398.695 676.019 389.074 690.414 Q379.525 704.737 361.369 704.737 Q343.212 704.737 333.591 690.414 Q324.042 676.019 324.042 648.747 Q324.042 621.404 333.591 607.081 Q343.212 592.686 361.369 592.686 Z" fill="#000000" fill-rule="nonzero" fill-opacity="1" /><path clip-path="url(#clip580)" d="M424.375 684.265 L439.638 684.265 L439.638 702.639 L424.375 702.639 L424.375 684.265 Z" fill="#000000" fill-rule="nonzero" fill-opacity="1" /><path clip-path="url(#clip580)" d="M471.611 594.639 L528.975 594.639 L528.975 606.936 L484.994 606.936 L484.994 633.412 Q488.176 632.327 491.359 631.82 Q494.542 631.242 497.725 631.242 Q515.809 631.242 526.371 641.152 Q536.932 651.062 536.932 667.989 Q536.932 685.423 526.081 695.116 Q515.231 704.737 495.482 704.737 Q488.683 704.737 481.594 703.579 Q474.577 702.422 467.054 700.107 L467.054 685.423 Q473.564 688.967 480.509 690.703 Q487.453 692.439 495.193 692.439 Q507.708 692.439 515.014 685.857 Q522.32 679.274 522.32 667.989 Q522.32 656.705 515.014 650.122 Q507.708 643.539 495.193 643.539 Q489.334 643.539 483.474 644.841 Q477.687 646.143 471.611 648.892 L471.611 594.639 Z" fill="#000000" fill-rule="nonzero" fill-opacity="1" /><path clip-path="url(#clip580)" d="M329.54 397.25 L353.411 397.25 L353.411 314.857 L327.442 320.065 L327.442 306.755 L353.267 301.547 L367.879 301.547 L367.879 397.25 L391.75 397.25 L391.75 409.547 L329.54 409.547 L329.54 397.25 Z" fill="#000000" fill-rule="nonzero" fill-opacity="1" /><path clip-path="url(#clip580)" d="M421.264 391.173 L436.527 391.173 L436.527 409.547 L421.264 409.547 L421.264 391.173 Z" fill="#000000" fill-rule="nonzero" fill-opacity="1" /><path clip-path="url(#clip580)" d="M499.606 311.168 Q488.321 311.168 482.606 322.308 Q476.964 333.376 476.964 355.656 Q476.964 377.863 482.606 389.003 Q488.321 400.071 499.606 400.071 Q510.963 400.071 516.605 389.003 Q522.32 377.863 522.32 355.656 Q522.32 333.376 516.605 322.308 Q510.963 311.168 499.606 311.168 M499.606 299.594 Q517.762 299.594 527.311 313.989 Q536.932 328.312 536.932 355.656 Q536.932 382.927 527.311 397.322 Q517.762 411.645 499.606 411.645 Q481.449 411.645 471.828 397.322 Q462.28 382.927 462.28 355.656 Q462.28 328.312 471.828 313.989 Q481.449 299.594 499.606 299.594 Z" fill="#000000" fill-rule="nonzero" fill-opacity="1" /><path clip-path="url(#clip580)" d="M29.3142 903.866 L68.7382 933.162 L110.332 902.347 L110.332 918.044 L78.5038 941.626 L110.332 965.208 L110.332 980.905 L67.9425 949.438 L29.3142 978.229 L29.3142 962.532 L58.1769 941.047 L29.3142 919.563 L29.3142 903.866 Z" fill="#000000" fill-rule="nonzero" fill-opacity="1" /><path clip-path="url(#clip580)" d="M1736.23 69.7768 Q1726.39 69.7768 1720.61 76.5042 Q1714.89 83.2316 1714.89 94.9503 Q1714.89 106.597 1720.61 113.396 Q1726.39 120.124 1736.23 120.124 Q1746.07 120.124 1751.78 113.396 Q1757.57 106.597 1757.57 94.9503 Q1757.57 83.2316 1751.78 76.5042 Q1746.07 69.7768 1736.23 69.7768 M1765.24 23.9871 L1765.24 37.2973 Q1759.74 34.6931 1754.1 33.3187 Q1748.53 31.9443 1743.03 31.9443 Q1728.56 31.9443 1720.9 41.7098 Q1713.3 51.4754 1712.21 71.2236 Q1716.48 64.9302 1722.92 61.6027 Q1729.36 58.2028 1737.1 58.2028 Q1753.38 58.2028 1762.78 68.1131 Q1772.26 77.951 1772.26 94.9503 Q1772.26 111.588 1762.42 121.643 Q1752.58 131.698 1736.23 131.698 Q1717.5 131.698 1707.59 117.375 Q1697.68 102.98 1697.68 75.7085 Q1697.68 50.101 1709.83 34.9101 Q1721.98 19.6469 1742.45 19.6469 Q1747.95 19.6469 1753.52 20.7319 Q1759.16 21.817 1765.24 23.9871 Z" fill="#000000" fill-rule="nonzero" fill-opacity="1" /><path clip-path="url(#clip580)" d="M1797.57 21.6 L1854.94 21.6 L1854.94 33.8974 L1810.96 33.8974 L1810.96 60.3729 Q1814.14 59.2879 1817.32 58.7815 Q1820.5 58.2028 1823.69 58.2028 Q1841.77 58.2028 1852.33 68.1131 Q1862.89 78.0233 1862.89 94.9503 Q1862.89 112.384 1852.04 122.077 Q1841.19 131.698 1821.44 131.698 Q1814.64 131.698 1807.56 130.54 Q1800.54 129.383 1793.02 127.068 L1793.02 112.384 Q1799.53 115.928 1806.47 117.664 Q1813.42 119.4 1821.16 119.4 Q1833.67 119.4 1840.98 112.818 Q1848.28 106.235 1848.28 94.9503 Q1848.28 83.6656 1840.98 77.0829 Q1833.67 70.5002 1821.16 70.5002 Q1815.3 70.5002 1809.44 71.8023 Q1803.65 73.1044 1797.57 75.8532 L1797.57 21.6 Z" fill="#000000" fill-rule="nonzero" fill-opacity="1" /><path clip-path="url(#clip580)" d="M1983.55 82.0742 Q1977.26 82.0742 1973.64 87.4272 Q1970.1 92.7802 1970.1 102.329 Q1970.1 111.733 1973.64 117.158 Q1977.26 122.511 1983.55 122.511 Q1989.7 122.511 1993.25 117.158 Q1996.86 111.733 1996.86 102.329 Q1996.86 92.8525 1993.25 87.4995 Q1989.7 82.0742 1983.55 82.0742 M1983.55 72.8873 Q1994.98 72.8873 2001.71 80.8445 Q2008.44 88.8016 2008.44 102.329 Q2008.44 115.856 2001.64 123.813 Q1994.91 131.698 1983.55 131.698 Q1971.98 131.698 1965.25 123.813 Q1958.52 115.856 1958.52 102.329 Q1958.52 88.7293 1965.25 80.8445 Q1972.05 72.8873 1983.55 72.8873 M1908.9 28.8338 Q1902.68 28.8338 1899.06 34.2591 Q1895.52 39.6121 1895.52 49.0159 Q1895.52 58.5645 1899.06 63.9175 Q1902.61 69.2705 1908.9 69.2705 Q1915.19 69.2705 1918.74 63.9175 Q1922.36 58.5645 1922.36 49.0159 Q1922.36 39.6844 1918.74 34.2591 Q1915.12 28.8338 1908.9 28.8338 M1974.22 19.6469 L1985.8 19.6469 L1918.23 131.698 L1906.66 131.698 L1974.22 19.6469 M1908.9 19.6469 Q1920.33 19.6469 1927.13 27.604 Q1933.93 35.4888 1933.93 49.0159 Q1933.93 62.6877 1927.13 70.5725 Q1920.4 78.4573 1908.9 78.4573 Q1897.4 78.4573 1890.67 70.5725 Q1884.02 62.6154 1884.02 49.0159 Q1884.02 35.5612 1890.74 27.604 Q1897.47 19.6469 1908.9 19.6469 Z" fill="#000000" fill-rule="nonzero" fill-opacity="1" /><polyline clip-path="url(#clip582)" style="stroke:#000000; stroke-linecap:round; stroke-linejoin:round; stroke-width:8; stroke-opacity:1; fill:none" stroke-dasharray="4, 8" points="668.033,734.484 691.973,767.463 715.913,871.175 739.853,885.826 763.793,1014.63 787.733,1190.13 811.672,1294.68 835.612,1397.35 859.552,1336.19 883.492,1397.21 907.432,1506.17 931.372,1455.95 955.312,1557.3 979.251,1568.11 1003.19,1571.01 1027.13,1562.15 1051.07,1382.9 "/>
<polyline clip-path="url(#clip582)" style="stroke:#000000; stroke-linecap:round; stroke-linejoin:round; stroke-width:8; stroke-opacity:1; fill:none" stroke-dasharray="4, 8" points="2631.1,870.56 2655.04,992.75 2678.98,995.538 2702.92,1130.62 2726.86,1262.37 2750.8,1297.08 2774.74,1293.62 2798.68,1433.66 2822.62,1445.34 2846.56,1530.33 2870.5,1609.78 2894.44,1446.34 2918.38,1450.73 2942.32,1563.62 2966.26,1435.81 2990.2,1458.42 3014.14,1444.2 3038.08,1296.83 "/>
<polyline clip-path="url(#clip582)" style="stroke:#000000; stroke-linecap:round; stroke-linejoin:round; stroke-width:8; stroke-opacity:0.3; fill:none" points="1075.01,1471.09 1098.95,1327.89 1122.89,1257.47 1146.83,1277.66 1170.77,1136.09 1194.71,974.451 1218.65,882.238 1242.59,789.117 1266.53,863.227 1290.47,684.064 1314.41,626.389 1338.35,523.463 1362.29,480.201 1386.23,316.241 1410.17,318.901 1434.11,449.743 1458.05,319.078 1481.99,405.101 1505.93,456.04 1529.87,368.745 1553.81,518.687 1577.75,511.126 1601.69,539.32 1625.63,781.61 1649.57,736.512 1673.51,898.639 1697.45,828.677 1721.39,962.966 1745.33,1066.84 1769.27,1269.05 1793.21,1324.92 1817.15,1267.93 1841.09,1381.83 1865.03,1430.23 1888.97,1516.73 1912.91,1471.07 1936.85,1508.29 1960.79,1558.53 1984.73,1483.32 2008.67,1456.16 2032.61,1383.95 2056.55,1380.23 2080.48,1272.96 2104.42,1135.39 2128.36,1166.06 2152.3,968.879 2176.24,899.103 2200.18,856.611 2224.12,817.975 2248.06,639.235 2272,630.154 2295.94,507.101 2319.88,573.346 2343.82,435.938 2367.76,465.872 2391.7,334.914 2415.64,369.067 2439.58,306.334 2463.52,393.694 2487.46,353.497 2511.4,550.478 2535.34,577.929 2559.28,686.478 2583.22,723.899 2607.16,630.535 "/>
<path clip-path="url(#clip582)" d="M1075.01 1564.52 L1098.95 1452.33 L1122.89 1345.08 L1146.83 1307.96 L1170.77 1234.28 L1194.71 1108.87 L1218.65 1007.66 L1242.59 929.657 L1266.53 861.285 L1290.47 797.801 L1314.41 673.3 L1338.35 586.231 L1362.29 519.326 L1386.23 482.504 L1410.17 495.211 L1434.11 485.346 L1458.05 446.311 L1481.99 483.762 L1505.93 506.573 L1529.87 510.245 L1553.81 544.994 L1577.75 656.802 L1601.69 737.025 L1625.63 825.52 L1649.57 890.896 L1673.51 1011.32 L1697.45 1075.72 L1721.39 1195.51 L1745.33 1240.82 L1769.27 1322.29 L1793.21 1387.63 L1817.15 1418.68 L1841.09 1511.27 L1865.03 1559.97 L1888.97 1615.09 L1912.91 1580.71 L1936.85 1630.94 L1960.79 1634.68 L1984.73 1582.42 L2008.67 1550.14 L2032.61 1514.29 L2056.55 1431.29 L2080.48 1352.59 L2104.42 1299.68 L2128.36 1214.37 L2152.3 1142.14 L2176.24 1014.16 L2200.18 956.53 L2224.12 865.831 L2248.06 738.456 L2272 655.826 L2295.94 599.76 L2319.88 578.907 L2343.82 522.411 L2367.76 472.018 L2391.7 472.599 L2415.64 468.531 L2439.58 452.496 L2463.52 501.994 L2487.46 516.148 L2511.4 759.815 L2535.34 681.619 L2559.28 759.749 L2583.22 912.343 L2607.16 879.692 L2607.16 666.288 L2583.22 693.092 L2559.28 547.927 L2535.34 467.226 L2511.4 462.391 L2487.46 309.86 L2463.52 297.51 L2439.58 252.692 L2415.64 266.721 L2391.7 273.599 L2367.76 273.43 L2343.82 320.578 L2319.88 369.195 L2295.94 390.628 L2272 444.473 L2248.06 528.548 L2224.12 661.743 L2200.18 747.57 L2176.24 799.812 L2152.3 931.136 L2128.36 1010.01 L2104.42 1093.96 L2080.48 1143.54 L2056.55 1219.73 L2032.61 1307.78 L2008.67 1346.34 L1984.73 1381.51 L1960.79 1436.49 L1936.85 1433.03 L1912.91 1381.11 L1888.97 1416.46 L1865.03 1356.98 L1841.09 1302.9 L1817.15 1207.26 L1793.21 1176.83 L1769.27 1114.79 L1745.33 1036.11 L1721.39 986.356 L1697.45 847.719 L1673.51 798.228 L1649.57 686.648 L1625.63 619.733 L1601.69 526.604 L1577.75 445.521 L1553.81 342.192 L1529.87 310.589 L1505.93 306.914 L1481.99 285.49 L1458.05 248.568 L1434.11 287.767 L1410.17 296.383 L1386.23 283.9 L1362.29 318.115 L1338.35 379.377 L1314.41 461.524 L1290.47 592.459 L1266.53 657.705 L1242.59 721.099 L1218.65 794.278 L1194.71 895.241 L1170.77 1030.73 L1146.83 1101.72 L1122.89 1136.27 L1098.95 1241.01 L1075.01 1362.22  Z" fill="#ff0000" fill-rule="evenodd" fill-opacity="0.15"/>
<polyline clip-path="url(#clip582)" style="stroke:#ff0000; stroke-linecap:round; stroke-linejoin:round; stroke-width:8; stroke-opacity:0.8; fill:none" points="1075.01,1463.37 1098.95,1346.67 1122.89,1240.68 1146.83,1204.84 1170.77,1132.51 1194.71,1002.05 1218.65,900.97 1242.59,825.378 1266.53,759.495 1290.47,695.13 1314.41,567.412 1338.35,482.804 1362.29,418.721 1386.23,383.202 1410.17,395.797 1434.11,386.557 1458.05,347.439 1481.99,384.626 1505.93,406.743 1529.87,410.417 1553.81,443.593 1577.75,551.162 1601.69,631.815 1625.63,722.627 1649.57,788.772 1673.51,904.775 1697.45,961.718 1721.39,1090.94 1745.33,1138.47 1769.27,1218.54 1793.21,1282.23 1817.15,1312.97 1841.09,1407.08 1865.03,1458.48 1888.97,1515.77 1912.91,1480.91 1936.85,1531.99 1960.79,1535.59 1984.73,1481.96 2008.67,1448.24 2032.61,1411.04 2056.55,1325.51 2080.48,1248.06 2104.42,1196.82 2128.36,1112.19 2152.3,1036.64 2176.24,906.987 2200.18,852.05 2224.12,763.787 2248.06,633.502 2272,550.149 2295.94,495.194 2319.88,474.051 2343.82,421.495 2367.76,372.724 2391.7,373.099 2415.64,367.626 2439.58,352.594 2463.52,399.752 2487.46,413.004 2511.4,611.103 2535.34,574.422 2559.28,653.838 2583.22,802.717 2607.16,772.99 "/>
<path clip-path="url(#clip580)" d="M3221.04 463.32 L3952.76 463.32 L3952.76 255.96 L3221.04 255.96  Z" fill="#ffffff" fill-rule="evenodd" fill-opacity="1"/>
<polyline clip-path="url(#clip580)" style="stroke:#000000; stroke-linecap:round; stroke-linejoin:round; stroke-width:4; stroke-opacity:1; fill:none" points="3221.04,463.32 3952.76,463.32 3952.76,255.96 3221.04,255.96 3221.04,463.32 "/>
<polyline clip-path="url(#clip580)" style="stroke:#000000; stroke-linecap:round; stroke-linejoin:round; stroke-width:8; stroke-opacity:1; fill:none" stroke-dasharray="4, 8" points="3258.33,307.8 3482.05,307.8 "/>
<path clip-path="url(#clip580)" d="M3535.36 293.692 Q3530.26 293.692 3527.25 297.488 Q3524.27 301.284 3524.27 307.835 Q3524.27 314.363 3527.25 318.159 Q3530.26 321.955 3535.36 321.955 Q3540.45 321.955 3543.41 318.159 Q3546.4 314.363 3546.4 307.835 Q3546.4 301.284 3543.41 297.488 Q3540.45 293.692 3535.36 293.692 M3535.36 289.895 Q3542.62 289.895 3546.98 294.78 Q3551.33 299.641 3551.33 307.835 Q3551.33 316.006 3546.98 320.891 Q3542.62 325.752 3535.36 325.752 Q3528.06 325.752 3523.69 320.891 Q3519.34 316.029 3519.34 307.835 Q3519.34 299.641 3523.69 294.78 Q3528.06 289.895 3535.36 289.895 Z" fill="#000000" fill-rule="nonzero" fill-opacity="1" /><path clip-path="url(#clip580)" d="M3577.07 312.141 Q3577.07 307.442 3575.12 304.78 Q3573.2 302.094 3569.82 302.094 Q3566.44 302.094 3564.5 304.78 Q3562.58 307.442 3562.58 312.141 Q3562.58 316.84 3564.5 319.525 Q3566.44 322.187 3569.82 322.187 Q3573.2 322.187 3575.12 319.525 Q3577.07 316.84 3577.07 312.141 M3562.58 303.09 Q3563.92 300.775 3565.96 299.664 Q3568.02 298.53 3570.86 298.53 Q3575.59 298.53 3578.53 302.28 Q3581.49 306.03 3581.49 312.141 Q3581.49 318.252 3578.53 322.002 Q3575.59 325.752 3570.86 325.752 Q3568.02 325.752 3565.96 324.641 Q3563.92 323.506 3562.58 321.191 L3562.58 325.08 L3558.29 325.08 L3558.29 289.062 L3562.58 289.062 L3562.58 303.09 Z" fill="#000000" fill-rule="nonzero" fill-opacity="1" /><path clip-path="url(#clip580)" d="M3605.08 299.918 L3605.08 303.946 Q3603.27 303.02 3601.33 302.557 Q3599.38 302.094 3597.3 302.094 Q3594.13 302.094 3592.53 303.067 Q3590.96 304.039 3590.96 305.983 Q3590.96 307.465 3592.09 308.321 Q3593.23 309.155 3596.65 309.918 L3598.11 310.242 Q3602.65 311.215 3604.54 312.997 Q3606.47 314.756 3606.47 317.928 Q3606.47 321.539 3603.6 323.645 Q3600.75 325.752 3595.75 325.752 Q3593.67 325.752 3591.4 325.335 Q3589.15 324.941 3586.65 324.131 L3586.65 319.733 Q3589.01 320.96 3591.3 321.585 Q3593.6 322.187 3595.84 322.187 Q3598.85 322.187 3600.47 321.168 Q3602.09 320.127 3602.09 318.252 Q3602.09 316.516 3600.91 315.59 Q3599.75 314.664 3595.79 313.807 L3594.31 313.46 Q3590.35 312.627 3588.6 310.914 Q3586.84 309.178 3586.84 306.168 Q3586.84 302.511 3589.43 300.52 Q3592.02 298.53 3596.79 298.53 Q3599.15 298.53 3601.23 298.877 Q3603.32 299.224 3605.08 299.918 Z" fill="#000000" fill-rule="nonzero" fill-opacity="1" /><path clip-path="url(#clip580)" d="M3635.42 311.053 L3635.42 313.136 L3615.84 313.136 Q3616.12 317.534 3618.48 319.849 Q3620.86 322.141 3625.1 322.141 Q3627.55 322.141 3629.85 321.539 Q3632.16 320.937 3634.43 319.733 L3634.43 323.761 Q3632.14 324.733 3629.73 325.242 Q3627.32 325.752 3624.85 325.752 Q3618.64 325.752 3615.01 322.141 Q3611.4 318.529 3611.4 312.372 Q3611.4 306.006 3614.82 302.28 Q3618.27 298.53 3624.1 298.53 Q3629.34 298.53 3632.37 301.909 Q3635.42 305.266 3635.42 311.053 M3631.16 309.803 Q3631.12 306.307 3629.2 304.224 Q3627.3 302.141 3624.15 302.141 Q3620.59 302.141 3618.43 304.155 Q3616.3 306.168 3615.98 309.826 L3631.16 309.803 Z" fill="#000000" fill-rule="nonzero" fill-opacity="1" /><path clip-path="url(#clip580)" d="M3657.44 303.136 Q3656.72 302.719 3655.86 302.534 Q3655.03 302.326 3654.01 302.326 Q3650.4 302.326 3648.46 304.687 Q3646.54 307.025 3646.54 311.423 L3646.54 325.08 L3642.25 325.08 L3642.25 299.155 L3646.54 299.155 L3646.54 303.182 Q3647.88 300.821 3650.03 299.687 Q3652.18 298.53 3655.26 298.53 Q3655.7 298.53 3656.23 298.599 Q3656.77 298.645 3657.41 298.761 L3657.44 303.136 Z" fill="#000000" fill-rule="nonzero" fill-opacity="1" /><path clip-path="url(#clip580)" d="M3658.85 299.155 L3663.36 299.155 L3671.47 320.914 L3679.57 299.155 L3684.08 299.155 L3674.36 325.08 L3668.57 325.08 L3658.85 299.155 Z" fill="#000000" fill-rule="nonzero" fill-opacity="1" /><path clip-path="url(#clip580)" d="M3712.14 311.053 L3712.14 313.136 L3692.55 313.136 Q3692.83 317.534 3695.19 319.849 Q3697.58 322.141 3701.81 322.141 Q3704.27 322.141 3706.56 321.539 Q3708.87 320.937 3711.14 319.733 L3711.14 323.761 Q3708.85 324.733 3706.44 325.242 Q3704.03 325.752 3701.56 325.752 Q3695.35 325.752 3691.72 322.141 Q3688.11 318.529 3688.11 312.372 Q3688.11 306.006 3691.53 302.28 Q3694.98 298.53 3700.82 298.53 Q3706.05 298.53 3709.08 301.909 Q3712.14 305.266 3712.14 311.053 M3707.88 309.803 Q3707.83 306.307 3705.91 304.224 Q3704.01 302.141 3700.86 302.141 Q3697.3 302.141 3695.15 304.155 Q3693.02 306.168 3692.69 309.826 L3707.88 309.803 Z" fill="#000000" fill-rule="nonzero" fill-opacity="1" /><path clip-path="url(#clip580)" d="M3736.19 303.09 L3736.19 289.062 L3740.45 289.062 L3740.45 325.08 L3736.19 325.08 L3736.19 321.191 Q3734.84 323.506 3732.78 324.641 Q3730.75 325.752 3727.88 325.752 Q3723.18 325.752 3720.22 322.002 Q3717.28 318.252 3717.28 312.141 Q3717.28 306.03 3720.22 302.28 Q3723.18 298.53 3727.88 298.53 Q3730.75 298.53 3732.78 299.664 Q3734.84 300.775 3736.19 303.09 M3721.67 312.141 Q3721.67 316.84 3723.6 319.525 Q3725.54 322.187 3728.92 322.187 Q3732.3 322.187 3734.24 319.525 Q3736.19 316.84 3736.19 312.141 Q3736.19 307.442 3734.24 304.78 Q3732.3 302.094 3728.92 302.094 Q3725.54 302.094 3723.6 304.78 Q3721.67 307.442 3721.67 312.141 Z" fill="#000000" fill-rule="nonzero" fill-opacity="1" /><polyline clip-path="url(#clip580)" style="stroke:#000000; stroke-linecap:round; stroke-linejoin:round; stroke-width:8; stroke-opacity:0.3; fill:none" points="3258.33,359.64 3482.05,359.64 "/>
<path clip-path="url(#clip580)" d="M3544.89 371.99 L3544.89 362.707 L3537.25 362.707 L3537.25 358.865 L3549.52 358.865 L3549.52 373.703 Q3546.81 375.624 3543.55 376.619 Q3540.29 377.592 3536.58 377.592 Q3528.48 377.592 3523.9 372.869 Q3519.34 368.124 3519.34 359.675 Q3519.34 351.203 3523.9 346.481 Q3528.48 341.735 3536.58 341.735 Q3539.96 341.735 3542.99 342.569 Q3546.05 343.402 3548.62 345.022 L3548.62 349.999 Q3546.03 347.8 3543.11 346.689 Q3540.19 345.578 3536.98 345.578 Q3530.63 345.578 3527.44 349.12 Q3524.27 352.661 3524.27 359.675 Q3524.27 366.666 3527.44 370.207 Q3530.63 373.749 3536.98 373.749 Q3539.45 373.749 3541.4 373.332 Q3543.34 372.893 3544.89 371.99 Z" fill="#000000" fill-rule="nonzero" fill-opacity="1" /><path clip-path="url(#clip580)" d="M3572.9 354.976 Q3572.18 354.559 3571.33 354.374 Q3570.49 354.166 3569.48 354.166 Q3565.86 354.166 3563.92 356.527 Q3562 358.865 3562 363.263 L3562 376.92 L3557.72 376.92 L3557.72 350.995 L3562 350.995 L3562 355.022 Q3563.34 352.661 3565.49 351.527 Q3567.65 350.37 3570.73 350.37 Q3571.17 350.37 3571.7 350.439 Q3572.23 350.485 3572.88 350.601 L3572.9 354.976 Z" fill="#000000" fill-rule="nonzero" fill-opacity="1" /><path clip-path="url(#clip580)" d="M3586.37 353.981 Q3582.95 353.981 3580.96 356.666 Q3578.97 359.328 3578.97 363.981 Q3578.97 368.633 3580.93 371.319 Q3582.92 373.981 3586.37 373.981 Q3589.78 373.981 3591.77 371.295 Q3593.76 368.61 3593.76 363.981 Q3593.76 359.374 3591.77 356.689 Q3589.78 353.981 3586.37 353.981 M3586.37 350.37 Q3591.93 350.37 3595.1 353.981 Q3598.27 357.592 3598.27 363.981 Q3598.27 370.346 3595.1 373.981 Q3591.93 377.592 3586.37 377.592 Q3580.79 377.592 3577.62 373.981 Q3574.48 370.346 3574.48 363.981 Q3574.48 357.592 3577.62 353.981 Q3580.79 350.37 3586.37 350.37 Z" fill="#000000" fill-rule="nonzero" fill-opacity="1" /><path clip-path="url(#clip580)" d="M3604.89 366.689 L3604.89 350.995 L3609.15 350.995 L3609.15 366.527 Q3609.15 370.207 3610.59 372.059 Q3612.02 373.888 3614.89 373.888 Q3618.34 373.888 3620.33 371.689 Q3622.35 369.49 3622.35 365.694 L3622.35 350.995 L3626.6 350.995 L3626.6 376.92 L3622.35 376.92 L3622.35 372.939 Q3620.79 375.3 3618.73 376.457 Q3616.7 377.592 3613.99 377.592 Q3609.52 377.592 3607.21 374.814 Q3604.89 372.036 3604.89 366.689 M3615.61 350.37 L3615.61 350.37 Z" fill="#000000" fill-rule="nonzero" fill-opacity="1" /><path clip-path="url(#clip580)" d="M3656.93 361.272 L3656.93 376.92 L3652.67 376.92 L3652.67 361.411 Q3652.67 357.731 3651.23 355.902 Q3649.8 354.073 3646.93 354.073 Q3643.48 354.073 3641.49 356.272 Q3639.5 358.471 3639.5 362.268 L3639.5 376.92 L3635.22 376.92 L3635.22 350.995 L3639.5 350.995 L3639.5 355.022 Q3641.03 352.684 3643.09 351.527 Q3645.17 350.37 3647.88 350.37 Q3652.35 350.37 3654.64 353.147 Q3656.93 355.902 3656.93 361.272 Z" fill="#000000" fill-rule="nonzero" fill-opacity="1" /><path clip-path="url(#clip580)" d="M3682.48 354.93 L3682.48 340.902 L3686.74 340.902 L3686.74 376.92 L3682.48 376.92 L3682.48 373.031 Q3681.14 375.346 3679.08 376.481 Q3677.04 377.592 3674.17 377.592 Q3669.47 377.592 3666.51 373.842 Q3663.57 370.092 3663.57 363.981 Q3663.57 357.87 3666.51 354.12 Q3669.47 350.37 3674.17 350.37 Q3677.04 350.37 3679.08 351.504 Q3681.14 352.615 3682.48 354.93 M3667.97 363.981 Q3667.97 368.68 3669.89 371.365 Q3671.84 374.027 3675.22 374.027 Q3678.6 374.027 3680.54 371.365 Q3682.48 368.68 3682.48 363.981 Q3682.48 359.282 3680.54 356.62 Q3678.6 353.934 3675.22 353.934 Q3671.84 353.934 3669.89 356.62 Q3667.97 359.282 3667.97 363.981 Z" fill="#000000" fill-rule="nonzero" fill-opacity="1" /><path clip-path="url(#clip580)" d="M3714.8 343.634 L3714.8 350.995 L3723.57 350.995 L3723.57 354.305 L3714.8 354.305 L3714.8 368.379 Q3714.8 371.55 3715.66 372.453 Q3716.53 373.356 3719.2 373.356 L3723.57 373.356 L3723.57 376.92 L3719.2 376.92 Q3714.27 376.92 3712.39 375.092 Q3710.52 373.24 3710.52 368.379 L3710.52 354.305 L3707.39 354.305 L3707.39 350.995 L3710.52 350.995 L3710.52 343.634 L3714.8 343.634 Z" fill="#000000" fill-rule="nonzero" fill-opacity="1" /><path clip-path="url(#clip580)" d="M3744.2 354.976 Q3743.48 354.559 3742.62 354.374 Q3741.79 354.166 3740.77 354.166 Q3737.16 354.166 3735.22 356.527 Q3733.29 358.865 3733.29 363.263 L3733.29 376.92 L3729.01 376.92 L3729.01 350.995 L3733.29 350.995 L3733.29 355.022 Q3734.64 352.661 3736.79 351.527 Q3738.94 350.37 3742.02 350.37 Q3742.46 350.37 3742.99 350.439 Q3743.53 350.485 3744.17 350.601 L3744.2 354.976 Z" fill="#000000" fill-rule="nonzero" fill-opacity="1" /><path clip-path="url(#clip580)" d="M3748.22 366.689 L3748.22 350.995 L3752.48 350.995 L3752.48 366.527 Q3752.48 370.207 3753.92 372.059 Q3755.35 373.888 3758.22 373.888 Q3761.67 373.888 3763.66 371.689 Q3765.68 369.49 3765.68 365.694 L3765.68 350.995 L3769.94 350.995 L3769.94 376.92 L3765.68 376.92 L3765.68 372.939 Q3764.13 375.3 3762.07 376.457 Q3760.03 377.592 3757.32 377.592 Q3752.85 377.592 3750.54 374.814 Q3748.22 372.036 3748.22 366.689 M3758.94 350.37 L3758.94 350.37 Z" fill="#000000" fill-rule="nonzero" fill-opacity="1" /><path clip-path="url(#clip580)" d="M3782.92 343.634 L3782.92 350.995 L3791.7 350.995 L3791.7 354.305 L3782.92 354.305 L3782.92 368.379 Q3782.92 371.55 3783.78 372.453 Q3784.66 373.356 3787.32 373.356 L3791.7 373.356 L3791.7 376.92 L3787.32 376.92 Q3782.39 376.92 3780.52 375.092 Q3778.64 373.24 3778.64 368.379 L3778.64 354.305 L3775.52 354.305 L3775.52 350.995 L3778.64 350.995 L3778.64 343.634 L3782.92 343.634 Z" fill="#000000" fill-rule="nonzero" fill-opacity="1" /><path clip-path="url(#clip580)" d="M3818.85 361.272 L3818.85 376.92 L3814.59 376.92 L3814.59 361.411 Q3814.59 357.731 3813.15 355.902 Q3811.72 354.073 3808.85 354.073 Q3805.4 354.073 3803.41 356.272 Q3801.42 358.471 3801.42 362.268 L3801.42 376.92 L3797.14 376.92 L3797.14 340.902 L3801.42 340.902 L3801.42 355.022 Q3802.95 352.684 3805.01 351.527 Q3807.09 350.37 3809.8 350.37 Q3814.27 350.37 3816.56 353.147 Q3818.85 355.902 3818.85 361.272 Z" fill="#000000" fill-rule="nonzero" fill-opacity="1" /><polyline clip-path="url(#clip580)" style="stroke:#ff0000; stroke-linecap:round; stroke-linejoin:round; stroke-width:8; stroke-opacity:0.8; fill:none" points="3258.33,411.48 3482.05,411.48 "/>
<path clip-path="url(#clip580)" d="M3519.34 394.2 L3526.3 394.2 L3535.12 417.719 L3543.99 394.2 L3550.96 394.2 L3550.96 428.76 L3546.4 428.76 L3546.4 398.413 L3537.48 422.117 L3532.79 422.117 L3523.87 398.413 L3523.87 428.76 L3519.34 428.76 L3519.34 394.2 Z" fill="#000000" fill-rule="nonzero" fill-opacity="1" /><path clip-path="url(#clip580)" d="M3564.92 398.043 L3564.92 411.029 L3570.79 411.029 Q3574.06 411.029 3575.84 409.339 Q3577.62 407.649 3577.62 404.524 Q3577.62 401.423 3575.84 399.733 Q3574.06 398.043 3570.79 398.043 L3564.92 398.043 M3560.24 394.2 L3570.79 394.2 Q3576.61 394.2 3579.57 396.839 Q3582.55 399.455 3582.55 404.524 Q3582.55 409.64 3579.57 412.256 Q3576.61 414.872 3570.79 414.872 L3564.92 414.872 L3564.92 428.76 L3560.24 428.76 L3560.24 394.2 Z" fill="#000000" fill-rule="nonzero" fill-opacity="1" /><path clip-path="url(#clip580)" d="M3609.54 395.335 L3609.54 399.895 Q3606.88 398.622 3604.52 397.997 Q3602.16 397.372 3599.96 397.372 Q3596.14 397.372 3594.06 398.853 Q3592 400.335 3592 403.066 Q3592 405.358 3593.36 406.538 Q3594.75 407.696 3598.6 408.413 L3601.42 408.992 Q3606.65 409.987 3609.13 412.51 Q3611.63 415.01 3611.63 419.223 Q3611.63 424.247 3608.25 426.839 Q3604.89 429.432 3598.39 429.432 Q3595.93 429.432 3593.16 428.876 Q3590.4 428.321 3587.44 427.233 L3587.44 422.418 Q3590.29 424.015 3593.02 424.825 Q3595.75 425.635 3598.39 425.635 Q3602.39 425.635 3604.57 424.061 Q3606.74 422.487 3606.74 419.571 Q3606.74 417.024 3605.17 415.589 Q3603.62 414.154 3600.05 413.436 L3597.21 412.881 Q3591.98 411.839 3589.64 409.617 Q3587.3 407.395 3587.3 403.436 Q3587.3 398.853 3590.52 396.214 Q3593.76 393.575 3599.43 393.575 Q3601.86 393.575 3604.38 394.015 Q3606.91 394.455 3609.54 395.335 Z" fill="#000000" fill-rule="nonzero" fill-opacity="1" /><path clip-path="url(#clip580)" d="M3633.99 394.2 L3638.66 394.2 L3638.66 428.76 L3633.99 428.76 L3633.99 394.2 Z" fill="#000000" fill-rule="nonzero" fill-opacity="1" /><path clip-path="url(#clip580)" d="M3669.34 413.112 L3669.34 428.76 L3665.08 428.76 L3665.08 413.251 Q3665.08 409.571 3663.64 407.742 Q3662.21 405.913 3659.34 405.913 Q3655.89 405.913 3653.9 408.112 Q3651.91 410.311 3651.91 414.108 L3651.91 428.76 L3647.62 428.76 L3647.62 402.835 L3651.91 402.835 L3651.91 406.862 Q3653.43 404.524 3655.49 403.367 Q3657.58 402.21 3660.29 402.21 Q3664.75 402.21 3667.04 404.987 Q3669.34 407.742 3669.34 413.112 Z" fill="#000000" fill-rule="nonzero" fill-opacity="1" /><path clip-path="url(#clip580)" d="M3682.04 395.474 L3682.04 402.835 L3690.82 402.835 L3690.82 406.145 L3682.04 406.145 L3682.04 420.219 Q3682.04 423.39 3682.9 424.293 Q3683.78 425.196 3686.44 425.196 L3690.82 425.196 L3690.82 428.76 L3686.44 428.76 Q3681.51 428.76 3679.64 426.932 Q3677.76 425.08 3677.76 420.219 L3677.76 406.145 L3674.64 406.145 L3674.64 402.835 L3677.76 402.835 L3677.76 395.474 L3682.04 395.474 Z" fill="#000000" fill-rule="nonzero" fill-opacity="1" /><path clip-path="url(#clip580)" d="M3718.6 414.733 L3718.6 416.816 L3699.01 416.816 Q3699.29 421.214 3701.65 423.529 Q3704.03 425.821 3708.27 425.821 Q3710.72 425.821 3713.02 425.219 Q3715.33 424.617 3717.6 423.413 L3717.6 427.441 Q3715.31 428.413 3712.9 428.922 Q3710.49 429.432 3708.02 429.432 Q3701.81 429.432 3698.18 425.821 Q3694.57 422.209 3694.57 416.052 Q3694.57 409.686 3697.99 405.96 Q3701.44 402.21 3707.28 402.21 Q3712.51 402.21 3715.54 405.589 Q3718.6 408.946 3718.6 414.733 M3714.34 413.483 Q3714.29 409.987 3712.37 407.904 Q3710.47 405.821 3707.32 405.821 Q3703.76 405.821 3701.6 407.835 Q3699.47 409.848 3699.15 413.506 L3714.34 413.483 Z" fill="#000000" fill-rule="nonzero" fill-opacity="1" /><path clip-path="url(#clip580)" d="M3740.61 406.816 Q3739.89 406.399 3739.03 406.214 Q3738.2 406.006 3737.18 406.006 Q3733.57 406.006 3731.63 408.367 Q3729.71 410.705 3729.71 415.103 L3729.71 428.76 L3725.42 428.76 L3725.42 402.835 L3729.71 402.835 L3729.71 406.862 Q3731.05 404.501 3733.2 403.367 Q3735.35 402.21 3738.43 402.21 Q3738.87 402.21 3739.41 402.279 Q3739.94 402.325 3740.59 402.441 L3740.61 406.816 Z" fill="#000000" fill-rule="nonzero" fill-opacity="1" /><path clip-path="url(#clip580)" d="M3749.2 424.871 L3749.2 438.621 L3744.91 438.621 L3744.91 402.835 L3749.2 402.835 L3749.2 406.77 Q3750.54 404.455 3752.58 403.344 Q3754.64 402.21 3757.48 402.21 Q3762.21 402.21 3765.15 405.96 Q3768.11 409.71 3768.11 415.821 Q3768.11 421.932 3765.15 425.682 Q3762.21 429.432 3757.48 429.432 Q3754.64 429.432 3752.58 428.321 Q3750.54 427.186 3749.2 424.871 M3763.69 415.821 Q3763.69 411.122 3761.74 408.46 Q3759.82 405.774 3756.44 405.774 Q3753.06 405.774 3751.12 408.46 Q3749.2 411.122 3749.2 415.821 Q3749.2 420.52 3751.12 423.205 Q3753.06 425.867 3756.44 425.867 Q3759.82 425.867 3761.74 423.205 Q3763.69 420.52 3763.69 415.821 Z" fill="#000000" fill-rule="nonzero" fill-opacity="1" /><path clip-path="url(#clip580)" d="M3785.22 405.821 Q3781.79 405.821 3779.8 408.506 Q3777.81 411.168 3777.81 415.821 Q3777.81 420.473 3779.78 423.159 Q3781.77 425.821 3785.22 425.821 Q3788.62 425.821 3790.61 423.135 Q3792.6 420.45 3792.6 415.821 Q3792.6 411.214 3790.61 408.529 Q3788.62 405.821 3785.22 405.821 M3785.22 402.21 Q3790.77 402.21 3793.94 405.821 Q3797.11 409.432 3797.11 415.821 Q3797.11 422.186 3793.94 425.821 Q3790.77 429.432 3785.22 429.432 Q3779.64 429.432 3776.47 425.821 Q3773.32 422.186 3773.32 415.821 Q3773.32 409.432 3776.47 405.821 Q3779.64 402.21 3785.22 402.21 Z" fill="#000000" fill-rule="nonzero" fill-opacity="1" /><path clip-path="url(#clip580)" d="M3804.17 392.742 L3808.43 392.742 L3808.43 428.76 L3804.17 428.76 L3804.17 392.742 Z" fill="#000000" fill-rule="nonzero" fill-opacity="1" /><path clip-path="url(#clip580)" d="M3829.13 415.728 Q3823.96 415.728 3821.97 416.909 Q3819.98 418.089 3819.98 420.936 Q3819.98 423.205 3821.46 424.547 Q3822.97 425.867 3825.54 425.867 Q3829.08 425.867 3831.21 423.367 Q3833.36 420.844 3833.36 416.677 L3833.36 415.728 L3829.13 415.728 M3837.62 413.969 L3837.62 428.76 L3833.36 428.76 L3833.36 424.825 Q3831.9 427.186 3829.73 428.321 Q3827.55 429.432 3824.4 429.432 Q3820.42 429.432 3818.06 427.209 Q3815.72 424.964 3815.72 421.214 Q3815.72 416.839 3818.64 414.617 Q3821.58 412.395 3827.39 412.395 L3833.36 412.395 L3833.36 411.978 Q3833.36 409.038 3831.42 407.441 Q3829.5 405.821 3826 405.821 Q3823.78 405.821 3821.67 406.353 Q3819.57 406.885 3817.62 407.95 L3817.62 404.015 Q3819.96 403.112 3822.16 402.673 Q3824.36 402.21 3826.44 402.21 Q3832.07 402.21 3834.84 405.126 Q3837.62 408.043 3837.62 413.969 Z" fill="#000000" fill-rule="nonzero" fill-opacity="1" /><path clip-path="url(#clip580)" d="M3850.61 395.474 L3850.61 402.835 L3859.38 402.835 L3859.38 406.145 L3850.61 406.145 L3850.61 420.219 Q3850.61 423.39 3851.46 424.293 Q3852.34 425.196 3855.01 425.196 L3859.38 425.196 L3859.38 428.76 L3855.01 428.76 Q3850.08 428.76 3848.2 426.932 Q3846.33 425.08 3846.33 420.219 L3846.33 406.145 L3843.2 406.145 L3843.2 402.835 L3846.33 402.835 L3846.33 395.474 L3850.61 395.474 Z" fill="#000000" fill-rule="nonzero" fill-opacity="1" /><path clip-path="url(#clip580)" d="M3887.16 414.733 L3887.16 416.816 L3867.58 416.816 Q3867.85 421.214 3870.21 423.529 Q3872.6 425.821 3876.83 425.821 Q3879.29 425.821 3881.58 425.219 Q3883.9 424.617 3886.16 423.413 L3886.16 427.441 Q3883.87 428.413 3881.46 428.922 Q3879.06 429.432 3876.58 429.432 Q3870.38 429.432 3866.74 425.821 Q3863.13 422.209 3863.13 416.052 Q3863.13 409.686 3866.56 405.96 Q3870.01 402.21 3875.84 402.21 Q3881.07 402.21 3884.1 405.589 Q3887.16 408.946 3887.16 414.733 M3882.9 413.483 Q3882.85 409.987 3880.93 407.904 Q3879.03 405.821 3875.89 405.821 Q3872.32 405.821 3870.17 407.835 Q3868.04 409.848 3867.71 413.506 L3882.9 413.483 Z" fill="#000000" fill-rule="nonzero" fill-opacity="1" /><path clip-path="url(#clip580)" d="M3911.21 406.77 L3911.21 392.742 L3915.47 392.742 L3915.47 428.76 L3911.21 428.76 L3911.21 424.871 Q3909.87 427.186 3907.81 428.321 Q3905.77 429.432 3902.9 429.432 Q3898.2 429.432 3895.24 425.682 Q3892.3 421.932 3892.3 415.821 Q3892.3 409.71 3895.24 405.96 Q3898.2 402.21 3902.9 402.21 Q3905.77 402.21 3907.81 403.344 Q3909.87 404.455 3911.21 406.77 M3896.7 415.821 Q3896.7 420.52 3898.62 423.205 Q3900.56 425.867 3903.94 425.867 Q3907.32 425.867 3909.27 423.205 Q3911.21 420.52 3911.21 415.821 Q3911.21 411.122 3909.27 408.46 Q3907.32 405.774 3903.94 405.774 Q3900.56 405.774 3898.62 408.46 Q3896.7 411.122 3896.7 415.821 Z" fill="#000000" fill-rule="nonzero" fill-opacity="1" /></svg>
