<?xml version="1.0" encoding="utf-8"?>
<svg xmlns="http://www.w3.org/2000/svg" xmlns:xlink="http://www.w3.org/1999/xlink" width="1000" height="500" viewBox="0 0 4000 2000">
<defs>
  <clipPath id="clip590">
    <rect x="0" y="0" width="4000" height="2000"/>
  </clipPath>
</defs>
<path clip-path="url(#clip590)" d="M0 2000 L4000 2000 L4000 0 L0 0  Z" fill="#ffffff" fill-rule="evenodd" fill-opacity="1"/>
<defs>
  <clipPath id="clip591">
    <rect x="800" y="0" width="2801" height="2000"/>
  </clipPath>
</defs>
<path clip-path="url(#clip590)" d="M406.098 1697.02 L3083.74 1697.02 L3083.74 337.863 L406.098 337.863  Z" fill="#ffffff" fill-rule="evenodd" fill-opacity="1"/>
<defs>
  <clipPath id="clip592">
    <rect x="406" y="337" width="2679" height="1360"/>
  </clipPath>
</defs>
<polyline clip-path="url(#clip592)" style="stroke:#000000; stroke-linecap:round; stroke-linejoin:round; stroke-width:2; stroke-opacity:0.1; fill:none" points="456.364,1697.02 456.364,337.863 "/>
<polyline clip-path="url(#clip592)" style="stroke:#000000; stroke-linecap:round; stroke-linejoin:round; stroke-width:2; stroke-opacity:0.1; fill:none" points="1094.26,1697.02 1094.26,337.863 "/>
<polyline clip-path="url(#clip592)" style="stroke:#000000; stroke-linecap:round; stroke-linejoin:round; stroke-width:2; stroke-opacity:0.1; fill:none" points="1732.16,1697.02 1732.16,337.863 "/>
<polyline clip-path="url(#clip592)" style="stroke:#000000; stroke-linecap:round; stroke-linejoin:round; stroke-width:2; stroke-opacity:0.1; fill:none" points="2370.06,1697.02 2370.06,337.863 "/>
<polyline clip-path="url(#clip592)" style="stroke:#000000; stroke-linecap:round; stroke-linejoin:round; stroke-width:2; stroke-opacity:0.1; fill:none" points="3007.95,1697.02 3007.95,337.863 "/>
<polyline clip-path="url(#clip592)" style="stroke:#000000; stroke-linecap:round; stroke-linejoin:round; stroke-width:2; stroke-opacity:0.1; fill:none" points="406.098,1433.69 3083.74,1433.69 "/>
<polyline clip-path="url(#clip592)" style="stroke:#000000; stroke-linecap:round; stroke-linejoin:round; stroke-width:2; stroke-opacity:0.1; fill:none" points="406.098,1147.28 3083.74,1147.28 "/>
<polyline clip-path="url(#clip592)" style="stroke:#000000; stroke-linecap:round; stroke-linejoin:round; stroke-width:2; stroke-opacity:0.1; fill:none" points="406.098,860.872 3083.74,860.872 "/>
<polyline clip-path="url(#clip592)" style="stroke:#000000; stroke-linecap:round; stroke-linejoin:round; stroke-width:2; stroke-opacity:0.1; fill:none" points="406.098,574.464 3083.74,574.464 "/>
<polyline clip-path="url(#clip590)" style="stroke:#000000; stroke-linecap:round; stroke-linejoin:round; stroke-width:4; stroke-opacity:1; fill:none" points="406.098,1697.02 3083.74,1697.02 "/>
<polyline clip-path="url(#clip590)" style="stroke:#000000; stroke-linecap:round; stroke-linejoin:round; stroke-width:4; stroke-opacity:1; fill:none" points="456.364,1697.02 456.364,1678.12 "/>
<polyline clip-path="url(#clip590)" style="stroke:#000000; stroke-linecap:round; stroke-linejoin:round; stroke-width:4; stroke-opacity:1; fill:none" points="1094.26,1697.02 1094.26,1678.12 "/>
<polyline clip-path="url(#clip590)" style="stroke:#000000; stroke-linecap:round; stroke-linejoin:round; stroke-width:4; stroke-opacity:1; fill:none" points="1732.16,1697.02 1732.16,1678.12 "/>
<polyline clip-path="url(#clip590)" style="stroke:#000000; stroke-linecap:round; stroke-linejoin:round; stroke-width:4; stroke-opacity:1; fill:none" points="2370.06,1697.02 2370.06,1678.12 "/>
<polyline clip-path="url(#clip590)" style="stroke:#000000; stroke-linecap:round; stroke-linejoin:round; stroke-width:4; stroke-opacity:1; fill:none" points="3007.95,1697.02 3007.95,1678.12 "/>
<g clip-path="url(#clip590)">
<text style="fill:#000000; fill-opacity:1; font-family:Century Gothic,CenturyGothic,AppleGothic,sans-serif; font-size:134px; text-anchor:middle;" transform="rotate(0, 456.364, 1849.14)" x="456.364" y="1849.14">0</text>
</g>
<g clip-path="url(#clip590)">
<text style="fill:#000000; fill-opacity:1; font-family:Century Gothic,CenturyGothic,AppleGothic,sans-serif; font-size:134px; text-anchor:middle;" transform="rotate(0, 1094.26, 1849.14)" x="1094.26" y="1849.14">25</text>
</g>
<g clip-path="url(#clip590)">
<text style="fill:#000000; fill-opacity:1; font-family:Century Gothic,CenturyGothic,AppleGothic,sans-serif; font-size:134px; text-anchor:middle;" transform="rotate(0, 1732.16, 1849.14)" x="1732.16" y="1849.14">50</text>
</g>
<g clip-path="url(#clip590)">
<text style="fill:#000000; fill-opacity:1; font-family:Century Gothic,CenturyGothic,AppleGothic,sans-serif; font-size:134px; text-anchor:middle;" transform="rotate(0, 2370.06, 1849.14)" x="2370.06" y="1849.14">75</text>
</g>
<g clip-path="url(#clip590)">
<text style="fill:#000000; fill-opacity:1; font-family:Century Gothic,CenturyGothic,AppleGothic,sans-serif; font-size:134px; text-anchor:middle;" transform="rotate(0, 3007.95, 1849.14)" x="3007.95" y="1849.14">100</text>
</g>
<g clip-path="url(#clip590)">
<text style="fill:#000000; fill-opacity:1; font-family:Century Gothic,CenturyGothic,AppleGothic,sans-serif; font-size:134px; text-anchor:middle;" transform="rotate(0, 1744.92, 2019.72)" x="1744.92" y="2019.72">t</text>
</g>
<polyline clip-path="url(#clip590)" style="stroke:#000000; stroke-linecap:round; stroke-linejoin:round; stroke-width:4; stroke-opacity:1; fill:none" points="406.098,1697.02 406.098,337.863 "/>
<polyline clip-path="url(#clip590)" style="stroke:#000000; stroke-linecap:round; stroke-linejoin:round; stroke-width:4; stroke-opacity:1; fill:none" points="406.098,1433.69 420.365,1433.69 "/>
<polyline clip-path="url(#clip590)" style="stroke:#000000; stroke-linecap:round; stroke-linejoin:round; stroke-width:4; stroke-opacity:1; fill:none" points="406.098,1147.28 420.365,1147.28 "/>
<polyline clip-path="url(#clip590)" style="stroke:#000000; stroke-linecap:round; stroke-linejoin:round; stroke-width:4; stroke-opacity:1; fill:none" points="406.098,860.872 420.365,860.872 "/>
<polyline clip-path="url(#clip590)" style="stroke:#000000; stroke-linecap:round; stroke-linejoin:round; stroke-width:4; stroke-opacity:1; fill:none" points="406.098,574.464 420.365,574.464 "/>
<g clip-path="url(#clip590)">
<text style="fill:#000000; fill-opacity:1; font-family:Century Gothic,CenturyGothic,AppleGothic,sans-serif; font-size:134px; text-anchor:middle;" transform="rotate(0, 269.228, 1483.19)" x="269.228" y="1483.19">−3</text>
</g>
<g clip-path="url(#clip590)">
<text style="fill:#000000; fill-opacity:1; font-family:Century Gothic,CenturyGothic,AppleGothic,sans-serif; font-size:134px; text-anchor:middle;" transform="rotate(0, 269.228, 1196.78)" x="269.228" y="1196.78">−2</text>
</g>
<g clip-path="url(#clip590)">
<text style="fill:#000000; fill-opacity:1; font-family:Century Gothic,CenturyGothic,AppleGothic,sans-serif; font-size:134px; text-anchor:middle;" transform="rotate(0, 269.228, 910.372)" x="269.228" y="910.372">−1</text>
</g>
<g clip-path="url(#clip590)">
<text style="fill:#000000; fill-opacity:1; font-family:Century Gothic,CenturyGothic,AppleGothic,sans-serif; font-size:134px; text-anchor:middle;" transform="rotate(0, 308.905, 623.964)" x="308.905" y="623.964">0</text>
</g>
<g clip-path="url(#clip590)">
<text style="fill:#000000; fill-opacity:1; font-family:Century Gothic,CenturyGothic,AppleGothic,sans-serif; font-size:134px; text-anchor:middle;" transform="rotate(-90, 109.906, 1017.44)" x="109.906" y="1017.44">x</text>
</g>
<g clip-path="url(#clip590)">
<text style="fill:#000000; fill-opacity:1; font-family:Century Gothic,CenturyGothic,AppleGothic,sans-serif; font-size:134px; text-anchor:start;" transform="rotate(0, 458.272, 162.502)" x="458.272" y="162.502">Sample 1, Class 0, 75-site Interpolation, </text>
</g>
<g clip-path="url(#clip590)">
<text style="fill:#000000; fill-opacity:1; font-family:Century Gothic,CenturyGothic,AppleGothic,sans-serif; font-size:134px; text-anchor:start;" transform="rotate(0, -5.22887, 303.754)" x="-5.22887" y="303.754">            d = 20, χ = 150, Legendre_No_Norm encoding, </text>
</g>
<g clip-path="url(#clip590)">
<text style="fill:#000000; fill-opacity:1; font-family:Century Gothic,CenturyGothic,AppleGothic,sans-serif; font-size:134px; text-anchor:start;" transform="rotate(0, 1101.09, 445.007)" x="1101.09" y="445.007">Median, +/- WMAD</text>
</g>
<polyline clip-path="url(#clip592)" style="stroke:#000000; stroke-linecap:round; stroke-linejoin:round; stroke-width:8; stroke-opacity:1; fill:none" stroke-dasharray="4, 8" points="481.88,791.746 507.396,822.313 532.912,886.549 558.428,868.685 583.944,890.127 609.46,925.511 634.975,880.76 660.491,853.584 686.007,774.794 711.523,767.392 737.039,765.505 762.555,664.263 "/>
<polyline clip-path="url(#clip592)" style="stroke:#000000; stroke-linecap:round; stroke-linejoin:round; stroke-width:8; stroke-opacity:1; fill:none" stroke-dasharray="4, 8" points="2701.76,1425.12 2727.28,1459.16 2752.79,1528.59 2778.31,1591.93 2803.83,1603.07 2829.34,1649.38 2854.86,1625.66 2880.37,1653.74 2905.89,1658.55 2931.41,1621.09 2956.92,1604.74 2982.44,1581.31 3007.95,1541.37 "/>
<polyline clip-path="url(#clip592)" style="stroke:#000000; stroke-linecap:round; stroke-linejoin:round; stroke-width:8; stroke-opacity:0.3; fill:none" points="788.071,600.812 813.587,564.187 839.103,527.042 864.619,408.728 890.134,466.959 915.65,444.297 941.166,404.208 966.682,468.725 992.198,479.414 1017.71,506.528 1043.23,564.103 1068.75,635.541 1094.26,677.54 1119.78,748.176 1145.29,865.737 1170.81,898.346 1196.33,946.709 1221.84,1038.89 1247.36,1037.48 1272.87,1090.26 1298.39,1117.52 1323.9,1178.52 1349.42,1168.14 1374.94,1095.87 1400.45,1138.52 1425.97,1071.82 1451.48,1090.75 1477,932.924 1502.52,912.355 1528.03,950.241 1553.55,857.269 1579.06,864.039 1604.58,810.646 1630.1,714.033 1655.61,674.603 1681.13,688.287 1706.64,667.709 1732.16,706.598 1757.67,710.9 1783.19,790.746 1808.71,905.185 1834.22,878.292 1859.74,963.927 1885.25,1022.32 1910.77,1035.44 1936.29,1121.89 1961.8,1237.9 1987.32,1270 2012.83,1341.24 2038.35,1391.39 2063.87,1423.81 2089.38,1457.84 2114.9,1450.08 2140.41,1389.06 2165.93,1316.17 2191.45,1347.86 2216.96,1364.83 2242.48,1258.13 2267.99,1198.31 2293.51,1198.7 2319.02,1109.7 2344.54,1053.91 2370.06,997.361 2395.57,1043.7 2421.09,969.415 2446.6,966.726 2472.12,924.696 2497.64,987.963 2523.15,929.226 2548.67,1018.03 2574.18,1080.44 2599.7,1113.32 2625.22,1194.09 2650.73,1246.56 2676.25,1345 "/>
<path clip-path="url(#clip592)" d="M788.071 691.465 L813.587 657.178 L839.103 585.53 L864.619 532.76 L890.134 531.106 L915.65 506.76 L941.166 479.274 L966.682 515.62 L992.198 538.244 L1017.71 548.505 L1043.23 585.861 L1068.75 652.022 L1094.26 705.41 L1119.78 771.27 L1145.29 858.769 L1170.81 919.085 L1196.33 970.238 L1221.84 1063.55 L1247.36 1095.52 L1272.87 1126.82 L1298.39 1174.81 L1323.9 1189.12 L1349.42 1202.16 L1374.94 1195.01 L1400.45 1171.12 L1425.97 1132.11 L1451.48 1096.77 L1477 1036.73 L1502.52 991.276 L1528.03 938.061 L1553.55 910.075 L1579.06 873.226 L1604.58 831.419 L1630.1 785.888 L1655.61 774.387 L1681.13 752.911 L1706.64 740.214 L1732.16 762.809 L1757.67 759.682 L1783.19 842.044 L1808.71 904.323 L1834.22 946.405 L1859.74 1004.81 L1885.25 1067.78 L1910.77 1130.99 L1936.29 1173.85 L1961.8 1277.56 L1987.32 1308.57 L2012.83 1379.04 L2038.35 1393.12 L2063.87 1459.43 L2089.38 1467.32 L2114.9 1461.6 L2140.41 1428.38 L2165.93 1393.28 L2191.45 1371.69 L2216.96 1358.29 L2242.48 1270.74 L2267.99 1238.81 L2293.51 1190.47 L2319.02 1158.87 L2344.54 1096.65 L2370.06 1054.8 L2395.57 1041.17 L2421.09 1019.02 L2446.6 1003.88 L2472.12 993.168 L2497.64 1040.63 L2523.15 1032.49 L2548.67 1078.88 L2574.18 1110.83 L2599.7 1177.2 L2625.22 1253.99 L2650.73 1324.6 L2676.25 1400.61 L2676.25 1325.95 L2650.73 1238.7 L2625.22 1169.9 L2599.7 1084.54 L2574.18 1018.46 L2548.67 987.224 L2523.15 934.8 L2497.64 944.306 L2472.12 893.077 L2446.6 904.397 L2421.09 920.409 L2395.57 944.178 L2370.06 960.131 L2344.54 1004.31 L2319.02 1064.43 L2293.51 1098.27 L2267.99 1153.26 L2242.48 1186.44 L2216.96 1275.5 L2191.45 1290.76 L2165.93 1313.78 L2140.41 1352.9 L2114.9 1386.67 L2089.38 1392.23 L2063.87 1383.28 L2038.35 1316.21 L2012.83 1301.88 L1987.32 1222.27 L1961.8 1191.45 L1936.29 1080.56 L1910.77 1035.18 L1885.25 972.024 L1859.74 901.287 L1834.22 846.922 L1808.71 803.469 L1783.19 738.69 L1757.67 658.68 L1732.16 661.451 L1706.64 640.564 L1681.13 652.374 L1655.61 672.146 L1630.1 682.99 L1604.58 728.233 L1579.06 773.647 L1553.55 813.322 L1528.03 839.313 L1502.52 890.408 L1477 937.908 L1451.48 1003.61 L1425.97 1038.11 L1400.45 1077.47 L1374.94 1101.76 L1349.42 1110.94 L1323.9 1096.69 L1298.39 1081.49 L1272.87 1033.67 L1247.36 1003.76 L1221.84 969.191 L1196.33 869.685 L1170.81 818.287 L1145.29 748.486 L1119.78 664.804 L1094.26 603.497 L1068.75 545.615 L1043.23 482.135 L1017.71 448.534 L992.198 437.824 L966.682 415.628 L941.166 376.329 L915.65 405.935 L890.134 429.979 L864.619 429.387 L839.103 479.792 L813.587 545.092 L788.071 581.67  Z" fill="#ff0000" fill-rule="evenodd" fill-opacity="0.15"/>
<polyline clip-path="url(#clip592)" style="stroke:#ff0000; stroke-linecap:round; stroke-linejoin:round; stroke-width:8; stroke-opacity:0.8; fill:none" points="788.071,636.568 813.587,601.135 839.103,532.661 864.619,481.074 890.134,480.543 915.65,456.347 941.166,427.802 966.682,465.624 992.198,488.034 1017.71,498.52 1043.23,533.998 1068.75,598.818 1094.26,654.453 1119.78,718.037 1145.29,803.628 1170.81,868.686 1196.33,919.962 1221.84,1016.37 1247.36,1049.64 1272.87,1080.25 1298.39,1128.15 1323.9,1142.9 1349.42,1156.55 1374.94,1148.38 1400.45,1124.3 1425.97,1085.11 1451.48,1050.19 1477,987.319 1502.52,940.842 1528.03,888.687 1553.55,861.699 1579.06,823.436 1604.58,779.826 1630.1,734.439 1655.61,723.266 1681.13,702.643 1706.64,690.389 1732.16,712.13 1757.67,709.181 1783.19,790.367 1808.71,853.896 1834.22,896.664 1859.74,953.05 1885.25,1019.9 1910.77,1083.08 1936.29,1127.21 1961.8,1234.5 1987.32,1265.42 2012.83,1340.46 2038.35,1354.66 2063.87,1421.35 2089.38,1429.78 2114.9,1424.14 2140.41,1390.64 2165.93,1353.53 2191.45,1331.23 2216.96,1316.9 2242.48,1228.59 2267.99,1196.04 2293.51,1144.37 2319.02,1111.65 2344.54,1050.48 2370.06,1007.47 2395.57,992.676 2421.09,969.717 2446.6,954.139 2472.12,943.122 2497.64,992.466 2523.15,983.647 2548.67,1033.05 2574.18,1064.65 2599.7,1130.87 2625.22,1211.95 2650.73,1281.65 2676.25,1363.28 "/>
<path clip-path="url(#clip590)" d="M3201.96 590.528 L3952.76 590.528 L3952.76 383.168 L3201.96 383.168  Z" fill="#ffffff" fill-rule="evenodd" fill-opacity="1"/>
<polyline clip-path="url(#clip590)" style="stroke:#000000; stroke-linecap:round; stroke-linejoin:round; stroke-width:4; stroke-opacity:1; fill:none" points="3201.96,590.528 3952.76,590.528 3952.76,383.168 3201.96,383.168 3201.96,590.528 "/>
<polyline clip-path="url(#clip590)" style="stroke:#000000; stroke-linecap:round; stroke-linejoin:round; stroke-width:8; stroke-opacity:1; fill:none" stroke-dasharray="4, 8" points="3241.37,435.008 3477.81,435.008 "/>
<path clip-path="url(#clip590)" d="M3533.23 420.899 Q3528.14 420.899 3525.13 424.695 Q3522.15 428.492 3522.15 435.043 Q3522.15 441.57 3525.13 445.367 Q3528.14 449.163 3533.23 449.163 Q3538.33 449.163 3541.29 445.367 Q3544.28 441.57 3544.28 435.043 Q3544.28 428.492 3541.29 424.695 Q3538.33 420.899 3533.23 420.899 M3533.23 417.103 Q3540.5 417.103 3544.86 421.987 Q3549.21 426.848 3549.21 435.043 Q3549.21 443.214 3544.86 448.098 Q3540.5 452.959 3533.23 452.959 Q3525.94 452.959 3521.57 448.098 Q3517.22 443.237 3517.22 435.043 Q3517.22 426.848 3521.57 421.987 Q3525.94 417.103 3533.23 417.103 Z" fill="#000000" fill-rule="nonzero" fill-opacity="1" /><path clip-path="url(#clip590)" d="M3574.95 439.348 Q3574.95 434.649 3573 431.987 Q3571.08 429.302 3567.7 429.302 Q3564.32 429.302 3562.38 431.987 Q3560.46 434.649 3560.46 439.348 Q3560.46 444.047 3562.38 446.732 Q3564.32 449.394 3567.7 449.394 Q3571.08 449.394 3573 446.732 Q3574.95 444.047 3574.95 439.348 M3560.46 430.297 Q3561.8 427.982 3563.84 426.871 Q3565.9 425.737 3568.74 425.737 Q3573.47 425.737 3576.41 429.487 Q3579.37 433.237 3579.37 439.348 Q3579.37 445.459 3576.41 449.209 Q3573.47 452.959 3568.74 452.959 Q3565.9 452.959 3563.84 451.848 Q3561.8 450.714 3560.46 448.399 L3560.46 452.288 L3556.17 452.288 L3556.17 416.27 L3560.46 416.27 L3560.46 430.297 Z" fill="#000000" fill-rule="nonzero" fill-opacity="1" /><path clip-path="url(#clip590)" d="M3602.96 427.126 L3602.96 431.154 Q3601.15 430.228 3599.21 429.765 Q3597.26 429.302 3595.18 429.302 Q3592.01 429.302 3590.41 430.274 Q3588.84 431.246 3588.84 433.191 Q3588.84 434.672 3589.97 435.529 Q3591.1 436.362 3594.53 437.126 L3595.99 437.45 Q3600.53 438.422 3602.42 440.205 Q3604.35 441.964 3604.35 445.135 Q3604.35 448.746 3601.48 450.853 Q3598.63 452.959 3593.63 452.959 Q3591.54 452.959 3589.28 452.542 Q3587.03 452.149 3584.53 451.339 L3584.53 446.941 Q3586.89 448.167 3589.18 448.792 Q3591.48 449.394 3593.72 449.394 Q3596.73 449.394 3598.35 448.376 Q3599.97 447.334 3599.97 445.459 Q3599.97 443.723 3598.79 442.797 Q3597.63 441.871 3593.67 441.015 L3592.19 440.668 Q3588.23 439.834 3586.48 438.121 Q3584.72 436.385 3584.72 433.376 Q3584.72 429.719 3587.31 427.728 Q3589.9 425.737 3594.67 425.737 Q3597.03 425.737 3599.11 426.084 Q3601.2 426.431 3602.96 427.126 Z" fill="#000000" fill-rule="nonzero" fill-opacity="1" /><path clip-path="url(#clip590)" d="M3633.3 438.26 L3633.3 440.343 L3613.72 440.343 Q3614 444.742 3616.36 447.056 Q3618.74 449.348 3622.98 449.348 Q3625.43 449.348 3627.73 448.746 Q3630.04 448.144 3632.31 446.941 L3632.31 450.968 Q3630.02 451.941 3627.61 452.45 Q3625.2 452.959 3622.73 452.959 Q3616.52 452.959 3612.89 449.348 Q3609.28 445.737 3609.28 439.58 Q3609.28 433.214 3612.7 429.487 Q3616.15 425.737 3621.98 425.737 Q3627.22 425.737 3630.25 429.117 Q3633.3 432.473 3633.3 438.26 M3629.04 437.01 Q3629 433.515 3627.08 431.431 Q3625.18 429.348 3622.03 429.348 Q3618.47 429.348 3616.31 431.362 Q3614.18 433.376 3613.86 437.033 L3629.04 437.01 Z" fill="#000000" fill-rule="nonzero" fill-opacity="1" /><path clip-path="url(#clip590)" d="M3655.32 430.344 Q3654.6 429.927 3653.74 429.742 Q3652.91 429.533 3651.89 429.533 Q3648.28 429.533 3646.34 431.894 Q3644.41 434.232 3644.41 438.63 L3644.41 452.288 L3640.13 452.288 L3640.13 426.362 L3644.41 426.362 L3644.41 430.39 Q3645.76 428.029 3647.91 426.894 Q3650.06 425.737 3653.14 425.737 Q3653.58 425.737 3654.11 425.806 Q3654.65 425.853 3655.29 425.969 L3655.32 430.344 Z" fill="#000000" fill-rule="nonzero" fill-opacity="1" /><path clip-path="url(#clip590)" d="M3656.73 426.362 L3661.24 426.362 L3669.35 448.121 L3677.45 426.362 L3681.96 426.362 L3672.24 452.288 L3666.45 452.288 L3656.73 426.362 Z" fill="#000000" fill-rule="nonzero" fill-opacity="1" /><path clip-path="url(#clip590)" d="M3710.02 438.26 L3710.02 440.343 L3690.43 440.343 Q3690.71 444.742 3693.07 447.056 Q3695.46 449.348 3699.69 449.348 Q3702.15 449.348 3704.44 448.746 Q3706.75 448.144 3709.02 446.941 L3709.02 450.968 Q3706.73 451.941 3704.32 452.45 Q3701.91 452.959 3699.44 452.959 Q3693.23 452.959 3689.6 449.348 Q3685.99 445.737 3685.99 439.58 Q3685.99 433.214 3689.41 429.487 Q3692.86 425.737 3698.7 425.737 Q3703.93 425.737 3706.96 429.117 Q3710.02 432.473 3710.02 438.26 M3705.76 437.01 Q3705.71 433.515 3703.79 431.431 Q3701.89 429.348 3698.74 429.348 Q3695.18 429.348 3693.03 431.362 Q3690.9 433.376 3690.57 437.033 L3705.76 437.01 Z" fill="#000000" fill-rule="nonzero" fill-opacity="1" /><path clip-path="url(#clip590)" d="M3734.07 430.297 L3734.07 416.27 L3738.33 416.27 L3738.33 452.288 L3734.07 452.288 L3734.07 448.399 Q3732.72 450.714 3730.66 451.848 Q3728.63 452.959 3725.76 452.959 Q3721.06 452.959 3718.1 449.209 Q3715.16 445.459 3715.16 439.348 Q3715.16 433.237 3718.1 429.487 Q3721.06 425.737 3725.76 425.737 Q3728.63 425.737 3730.66 426.871 Q3732.72 427.982 3734.07 430.297 M3719.55 439.348 Q3719.55 444.047 3721.47 446.732 Q3723.42 449.394 3726.8 449.394 Q3730.18 449.394 3732.12 446.732 Q3734.07 444.047 3734.07 439.348 Q3734.07 434.649 3732.12 431.987 Q3730.18 429.302 3726.8 429.302 Q3723.42 429.302 3721.47 431.987 Q3719.55 434.649 3719.55 439.348 Z" fill="#000000" fill-rule="nonzero" fill-opacity="1" /><polyline clip-path="url(#clip590)" style="stroke:#000000; stroke-linecap:round; stroke-linejoin:round; stroke-width:8; stroke-opacity:0.3; fill:none" points="3241.37,486.848 3477.81,486.848 "/>
<path clip-path="url(#clip590)" d="M3542.77 499.197 L3542.77 489.915 L3535.13 489.915 L3535.13 486.072 L3547.4 486.072 L3547.4 500.91 Q3544.69 502.832 3541.43 503.827 Q3538.17 504.799 3534.46 504.799 Q3526.36 504.799 3521.78 500.077 Q3517.22 495.332 3517.22 486.883 Q3517.22 478.41 3521.78 473.688 Q3526.36 468.943 3534.46 468.943 Q3537.84 468.943 3540.87 469.776 Q3543.93 470.609 3546.5 472.23 L3546.5 477.207 Q3543.91 475.008 3540.99 473.897 Q3538.07 472.785 3534.86 472.785 Q3528.51 472.785 3525.32 476.327 Q3522.15 479.869 3522.15 486.883 Q3522.15 493.873 3525.32 497.415 Q3528.51 500.957 3534.86 500.957 Q3537.33 500.957 3539.28 500.54 Q3541.22 500.1 3542.77 499.197 Z" fill="#000000" fill-rule="nonzero" fill-opacity="1" /><path clip-path="url(#clip590)" d="M3570.78 482.184 Q3570.06 481.767 3569.21 481.582 Q3568.37 481.373 3567.36 481.373 Q3563.74 481.373 3561.8 483.734 Q3559.88 486.072 3559.88 490.47 L3559.88 504.128 L3555.6 504.128 L3555.6 478.202 L3559.88 478.202 L3559.88 482.23 Q3561.22 479.869 3563.37 478.734 Q3565.53 477.577 3568.61 477.577 Q3569.04 477.577 3569.58 477.646 Q3570.11 477.693 3570.76 477.809 L3570.78 482.184 Z" fill="#000000" fill-rule="nonzero" fill-opacity="1" /><path clip-path="url(#clip590)" d="M3584.25 481.188 Q3580.83 481.188 3578.84 483.873 Q3576.85 486.535 3576.85 491.188 Q3576.85 495.841 3578.81 498.526 Q3580.8 501.188 3584.25 501.188 Q3587.66 501.188 3589.65 498.503 Q3591.64 495.818 3591.64 491.188 Q3591.64 486.582 3589.65 483.896 Q3587.66 481.188 3584.25 481.188 M3584.25 477.577 Q3589.81 477.577 3592.98 481.188 Q3596.15 484.799 3596.15 491.188 Q3596.15 497.554 3592.98 501.188 Q3589.81 504.799 3584.25 504.799 Q3578.67 504.799 3575.5 501.188 Q3572.36 497.554 3572.36 491.188 Q3572.36 484.799 3575.5 481.188 Q3578.67 477.577 3584.25 477.577 Z" fill="#000000" fill-rule="nonzero" fill-opacity="1" /><path clip-path="url(#clip590)" d="M3602.77 493.896 L3602.77 478.202 L3607.03 478.202 L3607.03 493.734 Q3607.03 497.415 3608.47 499.267 Q3609.9 501.095 3612.77 501.095 Q3616.22 501.095 3618.21 498.896 Q3620.23 496.697 3620.23 492.901 L3620.23 478.202 L3624.48 478.202 L3624.48 504.128 L3620.23 504.128 L3620.23 500.146 Q3618.67 502.507 3616.61 503.665 Q3614.58 504.799 3611.87 504.799 Q3607.4 504.799 3605.09 502.021 Q3602.77 499.244 3602.77 493.896 M3613.49 477.577 L3613.49 477.577 Z" fill="#000000" fill-rule="nonzero" fill-opacity="1" /><path clip-path="url(#clip590)" d="M3654.81 488.48 L3654.81 504.128 L3650.55 504.128 L3650.55 488.619 Q3650.55 484.938 3649.11 483.109 Q3647.68 481.281 3644.81 481.281 Q3641.36 481.281 3639.37 483.48 Q3637.38 485.679 3637.38 489.475 L3637.38 504.128 L3633.1 504.128 L3633.1 478.202 L3637.38 478.202 L3637.38 482.23 Q3638.91 479.892 3640.97 478.734 Q3643.05 477.577 3645.76 477.577 Q3650.23 477.577 3652.52 480.355 Q3654.81 483.109 3654.81 488.48 Z" fill="#000000" fill-rule="nonzero" fill-opacity="1" /><path clip-path="url(#clip590)" d="M3680.36 482.137 L3680.36 468.11 L3684.62 468.11 L3684.62 504.128 L3680.36 504.128 L3680.36 500.239 Q3679.02 502.554 3676.96 503.688 Q3674.92 504.799 3672.05 504.799 Q3667.35 504.799 3664.39 501.049 Q3661.45 497.299 3661.45 491.188 Q3661.45 485.077 3664.39 481.327 Q3667.35 477.577 3672.05 477.577 Q3674.92 477.577 3676.96 478.711 Q3679.02 479.822 3680.36 482.137 M3665.85 491.188 Q3665.85 495.887 3667.77 498.572 Q3669.72 501.234 3673.1 501.234 Q3676.47 501.234 3678.42 498.572 Q3680.36 495.887 3680.36 491.188 Q3680.36 486.489 3678.42 483.827 Q3676.47 481.142 3673.1 481.142 Q3669.72 481.142 3667.77 483.827 Q3665.85 486.489 3665.85 491.188 Z" fill="#000000" fill-rule="nonzero" fill-opacity="1" /><path clip-path="url(#clip590)" d="M3712.68 470.841 L3712.68 478.202 L3721.45 478.202 L3721.45 481.512 L3712.68 481.512 L3712.68 495.586 Q3712.68 498.757 3713.53 499.66 Q3714.41 500.563 3717.08 500.563 L3721.45 500.563 L3721.45 504.128 L3717.08 504.128 Q3712.15 504.128 3710.27 502.299 Q3708.4 500.447 3708.4 495.586 L3708.4 481.512 L3705.27 481.512 L3705.27 478.202 L3708.4 478.202 L3708.4 470.841 L3712.68 470.841 Z" fill="#000000" fill-rule="nonzero" fill-opacity="1" /><path clip-path="url(#clip590)" d="M3742.08 482.184 Q3741.36 481.767 3740.5 481.582 Q3739.67 481.373 3738.65 481.373 Q3735.04 481.373 3733.09 483.734 Q3731.17 486.072 3731.17 490.47 L3731.17 504.128 L3726.89 504.128 L3726.89 478.202 L3731.17 478.202 L3731.17 482.23 Q3732.52 479.869 3734.67 478.734 Q3736.82 477.577 3739.9 477.577 Q3740.34 477.577 3740.87 477.646 Q3741.41 477.693 3742.05 477.809 L3742.08 482.184 Z" fill="#000000" fill-rule="nonzero" fill-opacity="1" /><path clip-path="url(#clip590)" d="M3746.1 493.896 L3746.1 478.202 L3750.36 478.202 L3750.36 493.734 Q3750.36 497.415 3751.8 499.267 Q3753.23 501.095 3756.1 501.095 Q3759.55 501.095 3761.54 498.896 Q3763.56 496.697 3763.56 492.901 L3763.56 478.202 L3767.82 478.202 L3767.82 504.128 L3763.56 504.128 L3763.56 500.146 Q3762.01 502.507 3759.95 503.665 Q3757.91 504.799 3755.2 504.799 Q3750.73 504.799 3748.42 502.021 Q3746.1 499.244 3746.1 493.896 M3756.82 477.577 L3756.82 477.577 Z" fill="#000000" fill-rule="nonzero" fill-opacity="1" /><path clip-path="url(#clip590)" d="M3780.8 470.841 L3780.8 478.202 L3789.58 478.202 L3789.58 481.512 L3780.8 481.512 L3780.8 495.586 Q3780.8 498.757 3781.66 499.66 Q3782.54 500.563 3785.2 500.563 L3789.58 500.563 L3789.58 504.128 L3785.2 504.128 Q3780.27 504.128 3778.4 502.299 Q3776.52 500.447 3776.52 495.586 L3776.52 481.512 L3773.4 481.512 L3773.4 478.202 L3776.52 478.202 L3776.52 470.841 L3780.8 470.841 Z" fill="#000000" fill-rule="nonzero" fill-opacity="1" /><path clip-path="url(#clip590)" d="M3816.73 488.48 L3816.73 504.128 L3812.47 504.128 L3812.47 488.619 Q3812.47 484.938 3811.03 483.109 Q3809.6 481.281 3806.73 481.281 Q3803.28 481.281 3801.29 483.48 Q3799.3 485.679 3799.3 489.475 L3799.3 504.128 L3795.02 504.128 L3795.02 468.11 L3799.3 468.11 L3799.3 482.23 Q3800.83 479.892 3802.89 478.734 Q3804.97 477.577 3807.68 477.577 Q3812.15 477.577 3814.44 480.355 Q3816.73 483.109 3816.73 488.48 Z" fill="#000000" fill-rule="nonzero" fill-opacity="1" /><polyline clip-path="url(#clip590)" style="stroke:#ff0000; stroke-linecap:round; stroke-linejoin:round; stroke-width:8; stroke-opacity:0.8; fill:none" points="3241.37,538.688 3477.81,538.688 "/>
<path clip-path="url(#clip590)" d="M3517.22 521.408 L3524.18 521.408 L3533 544.926 L3541.87 521.408 L3548.84 521.408 L3548.84 555.968 L3544.28 555.968 L3544.28 525.621 L3535.36 549.324 L3530.67 549.324 L3521.75 525.621 L3521.75 555.968 L3517.22 555.968 L3517.22 521.408 Z" fill="#000000" fill-rule="nonzero" fill-opacity="1" /><path clip-path="url(#clip590)" d="M3562.79 525.25 L3562.79 538.236 L3568.67 538.236 Q3571.94 538.236 3573.72 536.547 Q3575.5 534.857 3575.5 531.732 Q3575.5 528.63 3573.72 526.94 Q3571.94 525.25 3568.67 525.25 L3562.79 525.25 M3558.12 521.408 L3568.67 521.408 Q3574.48 521.408 3577.45 524.047 Q3580.43 526.662 3580.43 531.732 Q3580.43 536.848 3577.45 539.463 Q3574.48 542.079 3568.67 542.079 L3562.79 542.079 L3562.79 555.968 L3558.12 555.968 L3558.12 521.408 Z" fill="#000000" fill-rule="nonzero" fill-opacity="1" /><path clip-path="url(#clip590)" d="M3607.42 522.542 L3607.42 527.102 Q3604.76 525.829 3602.4 525.204 Q3600.04 524.579 3597.84 524.579 Q3594.02 524.579 3591.94 526.061 Q3589.88 527.542 3589.88 530.274 Q3589.88 532.565 3591.24 533.746 Q3592.63 534.903 3596.48 535.621 L3599.3 536.199 Q3604.53 537.195 3607.01 539.718 Q3609.51 542.218 3609.51 546.431 Q3609.51 551.454 3606.13 554.047 Q3602.77 556.639 3596.27 556.639 Q3593.81 556.639 3591.04 556.084 Q3588.28 555.528 3585.32 554.44 L3585.32 549.625 Q3588.17 551.222 3590.9 552.033 Q3593.63 552.843 3596.27 552.843 Q3600.27 552.843 3602.45 551.269 Q3604.62 549.695 3604.62 546.778 Q3604.62 544.232 3603.05 542.797 Q3601.5 541.361 3597.93 540.644 L3595.09 540.088 Q3589.85 539.047 3587.52 536.824 Q3585.18 534.602 3585.18 530.644 Q3585.18 526.061 3588.4 523.422 Q3591.64 520.783 3597.31 520.783 Q3599.74 520.783 3602.26 521.223 Q3604.79 521.662 3607.42 522.542 Z" fill="#000000" fill-rule="nonzero" fill-opacity="1" /><path clip-path="url(#clip590)" d="M3631.87 521.408 L3636.54 521.408 L3636.54 555.968 L3631.87 555.968 L3631.87 521.408 Z" fill="#000000" fill-rule="nonzero" fill-opacity="1" /><path clip-path="url(#clip590)" d="M3667.22 540.32 L3667.22 555.968 L3662.96 555.968 L3662.96 540.459 Q3662.96 536.778 3661.52 534.949 Q3660.09 533.121 3657.22 533.121 Q3653.77 533.121 3651.78 535.32 Q3649.79 537.519 3649.79 541.315 L3649.79 555.968 L3645.5 555.968 L3645.5 530.042 L3649.79 530.042 L3649.79 534.07 Q3651.31 531.732 3653.37 530.574 Q3655.46 529.417 3658.16 529.417 Q3662.63 529.417 3664.92 532.195 Q3667.22 534.949 3667.22 540.32 Z" fill="#000000" fill-rule="nonzero" fill-opacity="1" /><path clip-path="url(#clip590)" d="M3679.92 522.681 L3679.92 530.042 L3688.7 530.042 L3688.7 533.352 L3679.92 533.352 L3679.92 547.426 Q3679.92 550.597 3680.78 551.5 Q3681.66 552.403 3684.32 552.403 L3688.7 552.403 L3688.7 555.968 L3684.32 555.968 Q3679.39 555.968 3677.52 554.139 Q3675.64 552.287 3675.64 547.426 L3675.64 533.352 L3672.52 533.352 L3672.52 530.042 L3675.64 530.042 L3675.64 522.681 L3679.92 522.681 Z" fill="#000000" fill-rule="nonzero" fill-opacity="1" /><path clip-path="url(#clip590)" d="M3716.47 541.94 L3716.47 544.023 L3696.89 544.023 Q3697.17 548.422 3699.53 550.736 Q3701.91 553.028 3706.15 553.028 Q3708.6 553.028 3710.9 552.426 Q3713.21 551.824 3715.48 550.621 L3715.48 554.648 Q3713.19 555.621 3710.78 556.13 Q3708.37 556.639 3705.9 556.639 Q3699.69 556.639 3696.06 553.028 Q3692.45 549.417 3692.45 543.26 Q3692.45 536.894 3695.87 533.167 Q3699.32 529.417 3705.16 529.417 Q3710.39 529.417 3713.42 532.797 Q3716.47 536.153 3716.47 541.94 M3712.22 540.69 Q3712.17 537.195 3710.25 535.111 Q3708.35 533.028 3705.2 533.028 Q3701.64 533.028 3699.48 535.042 Q3697.35 537.056 3697.03 540.713 L3712.22 540.69 Z" fill="#000000" fill-rule="nonzero" fill-opacity="1" /><path clip-path="url(#clip590)" d="M3738.49 534.024 Q3737.77 533.607 3736.91 533.422 Q3736.08 533.213 3735.06 533.213 Q3731.45 533.213 3729.51 535.574 Q3727.59 537.912 3727.59 542.31 L3727.59 555.968 L3723.3 555.968 L3723.3 530.042 L3727.59 530.042 L3727.59 534.07 Q3728.93 531.709 3731.08 530.574 Q3733.23 529.417 3736.31 529.417 Q3736.75 529.417 3737.28 529.486 Q3737.82 529.533 3738.47 529.649 L3738.49 534.024 Z" fill="#000000" fill-rule="nonzero" fill-opacity="1" /><path clip-path="url(#clip590)" d="M3747.08 552.079 L3747.08 565.829 L3742.79 565.829 L3742.79 530.042 L3747.08 530.042 L3747.08 533.977 Q3748.42 531.662 3750.46 530.551 Q3752.52 529.417 3755.36 529.417 Q3760.09 529.417 3763.03 533.167 Q3765.99 536.917 3765.99 543.028 Q3765.99 549.139 3763.03 552.889 Q3760.09 556.639 3755.36 556.639 Q3752.52 556.639 3750.46 555.528 Q3748.42 554.394 3747.08 552.079 M3761.57 543.028 Q3761.57 538.329 3759.62 535.667 Q3757.7 532.982 3754.32 532.982 Q3750.94 532.982 3749 535.667 Q3747.08 538.329 3747.08 543.028 Q3747.08 547.727 3749 550.412 Q3750.94 553.074 3754.32 553.074 Q3757.7 553.074 3759.62 550.412 Q3761.57 547.727 3761.57 543.028 Z" fill="#000000" fill-rule="nonzero" fill-opacity="1" /><path clip-path="url(#clip590)" d="M3783.09 533.028 Q3779.67 533.028 3777.68 535.713 Q3775.69 538.375 3775.69 543.028 Q3775.69 547.681 3777.65 550.366 Q3779.65 553.028 3783.09 553.028 Q3786.5 553.028 3788.49 550.343 Q3790.48 547.658 3790.48 543.028 Q3790.48 538.422 3788.49 535.736 Q3786.5 533.028 3783.09 533.028 M3783.09 529.417 Q3788.65 529.417 3791.82 533.028 Q3794.99 536.639 3794.99 543.028 Q3794.99 549.394 3791.82 553.028 Q3788.65 556.639 3783.09 556.639 Q3777.52 556.639 3774.34 553.028 Q3771.2 549.394 3771.2 543.028 Q3771.2 536.639 3774.34 533.028 Q3777.52 529.417 3783.09 529.417 Z" fill="#000000" fill-rule="nonzero" fill-opacity="1" /><path clip-path="url(#clip590)" d="M3802.05 519.95 L3806.31 519.95 L3806.31 555.968 L3802.05 555.968 L3802.05 519.95 Z" fill="#000000" fill-rule="nonzero" fill-opacity="1" /><path clip-path="url(#clip590)" d="M3827.01 542.935 Q3821.84 542.935 3819.85 544.116 Q3817.86 545.297 3817.86 548.144 Q3817.86 550.412 3819.34 551.755 Q3820.85 553.074 3823.42 553.074 Q3826.96 553.074 3829.09 550.574 Q3831.24 548.051 3831.24 543.885 L3831.24 542.935 L3827.01 542.935 M3835.5 541.176 L3835.5 555.968 L3831.24 555.968 L3831.24 552.033 Q3829.78 554.394 3827.61 555.528 Q3825.43 556.639 3822.28 556.639 Q3818.3 556.639 3815.94 554.417 Q3813.6 552.172 3813.6 548.422 Q3813.6 544.047 3816.52 541.824 Q3819.46 539.602 3825.27 539.602 L3831.24 539.602 L3831.24 539.186 Q3831.24 536.246 3829.3 534.648 Q3827.38 533.028 3823.88 533.028 Q3821.66 533.028 3819.55 533.561 Q3817.45 534.093 3815.5 535.158 L3815.5 531.223 Q3817.84 530.32 3820.04 529.88 Q3822.24 529.417 3824.32 529.417 Q3829.95 529.417 3832.72 532.334 Q3835.5 535.25 3835.5 541.176 Z" fill="#000000" fill-rule="nonzero" fill-opacity="1" /><path clip-path="url(#clip590)" d="M3848.49 522.681 L3848.49 530.042 L3857.26 530.042 L3857.26 533.352 L3848.49 533.352 L3848.49 547.426 Q3848.49 550.597 3849.34 551.5 Q3850.22 552.403 3852.89 552.403 L3857.26 552.403 L3857.26 555.968 L3852.89 555.968 Q3847.96 555.968 3846.08 554.139 Q3844.21 552.287 3844.21 547.426 L3844.21 533.352 L3841.08 533.352 L3841.08 530.042 L3844.21 530.042 L3844.21 522.681 L3848.49 522.681 Z" fill="#000000" fill-rule="nonzero" fill-opacity="1" /><path clip-path="url(#clip590)" d="M3885.04 541.94 L3885.04 544.023 L3865.46 544.023 Q3865.73 548.422 3868.09 550.736 Q3870.48 553.028 3874.71 553.028 Q3877.17 553.028 3879.46 552.426 Q3881.77 551.824 3884.04 550.621 L3884.04 554.648 Q3881.75 555.621 3879.34 556.13 Q3876.94 556.639 3874.46 556.639 Q3868.26 556.639 3864.62 553.028 Q3861.01 549.417 3861.01 543.26 Q3861.01 536.894 3864.44 533.167 Q3867.89 529.417 3873.72 529.417 Q3878.95 529.417 3881.98 532.797 Q3885.04 536.153 3885.04 541.94 M3880.78 540.69 Q3880.73 537.195 3878.81 535.111 Q3876.91 533.028 3873.77 533.028 Q3870.2 533.028 3868.05 535.042 Q3865.92 537.056 3865.59 540.713 L3880.78 540.69 Z" fill="#000000" fill-rule="nonzero" fill-opacity="1" /><path clip-path="url(#clip590)" d="M3909.09 533.977 L3909.09 519.95 L3913.35 519.95 L3913.35 555.968 L3909.09 555.968 L3909.09 552.079 Q3907.75 554.394 3905.69 555.528 Q3903.65 556.639 3900.78 556.639 Q3896.08 556.639 3893.12 552.889 Q3890.18 549.139 3890.18 543.028 Q3890.18 536.917 3893.12 533.167 Q3896.08 529.417 3900.78 529.417 Q3903.65 529.417 3905.69 530.551 Q3907.75 531.662 3909.09 533.977 M3894.58 543.028 Q3894.58 547.727 3896.5 550.412 Q3898.44 553.074 3901.82 553.074 Q3905.2 553.074 3907.14 550.412 Q3909.09 547.727 3909.09 543.028 Q3909.09 538.329 3907.14 535.667 Q3905.2 532.982 3901.82 532.982 Q3898.44 532.982 3896.5 535.667 Q3894.58 538.329 3894.58 543.028 Z" fill="#000000" fill-rule="nonzero" fill-opacity="1" /></svg>
