<?xml version="1.0" encoding="utf-8"?>
<svg xmlns="http://www.w3.org/2000/svg" xmlns:xlink="http://www.w3.org/1999/xlink" width="1000" height="500" viewBox="0 0 4000 2000">
<defs>
  <clipPath id="clip490">
    <rect x="0" y="0" width="4000" height="2000"/>
  </clipPath>
</defs>
<path clip-path="url(#clip490)" d="M0 2000 L4000 2000 L4000 0 L0 0  Z" fill="#ffffff" fill-rule="evenodd" fill-opacity="1"/>
<defs>
  <clipPath id="clip491">
    <rect x="800" y="0" width="2801" height="2000"/>
  </clipPath>
</defs>
<path clip-path="url(#clip490)" d="M255.15 1763.75 L3063.61 1763.75 L3063.61 262.064 L255.15 262.064  Z" fill="#ffffff" fill-rule="evenodd" fill-opacity="1"/>
<defs>
  <clipPath id="clip492">
    <rect x="255" y="262" width="2809" height="1503"/>
  </clipPath>
</defs>
<polyline clip-path="url(#clip492)" style="stroke:#000000; stroke-linecap:round; stroke-linejoin:round; stroke-width:2; stroke-opacity:0.1; fill:none" points="307.872,1763.75 307.872,262.064 "/>
<polyline clip-path="url(#clip492)" style="stroke:#000000; stroke-linecap:round; stroke-linejoin:round; stroke-width:2; stroke-opacity:0.1; fill:none" points="976.935,1763.75 976.935,262.064 "/>
<polyline clip-path="url(#clip492)" style="stroke:#000000; stroke-linecap:round; stroke-linejoin:round; stroke-width:2; stroke-opacity:0.1; fill:none" points="1646,1763.75 1646,262.064 "/>
<polyline clip-path="url(#clip492)" style="stroke:#000000; stroke-linecap:round; stroke-linejoin:round; stroke-width:2; stroke-opacity:0.1; fill:none" points="2315.06,1763.75 2315.06,262.064 "/>
<polyline clip-path="url(#clip492)" style="stroke:#000000; stroke-linecap:round; stroke-linejoin:round; stroke-width:2; stroke-opacity:0.1; fill:none" points="2984.12,1763.75 2984.12,262.064 "/>
<polyline clip-path="url(#clip492)" style="stroke:#000000; stroke-linecap:round; stroke-linejoin:round; stroke-width:2; stroke-opacity:0.1; fill:none" points="255.15,1533.51 3063.61,1533.51 "/>
<polyline clip-path="url(#clip492)" style="stroke:#000000; stroke-linecap:round; stroke-linejoin:round; stroke-width:2; stroke-opacity:0.1; fill:none" points="255.15,1220.36 3063.61,1220.36 "/>
<polyline clip-path="url(#clip492)" style="stroke:#000000; stroke-linecap:round; stroke-linejoin:round; stroke-width:2; stroke-opacity:0.1; fill:none" points="255.15,907.203 3063.61,907.203 "/>
<polyline clip-path="url(#clip492)" style="stroke:#000000; stroke-linecap:round; stroke-linejoin:round; stroke-width:2; stroke-opacity:0.1; fill:none" points="255.15,594.047 3063.61,594.047 "/>
<polyline clip-path="url(#clip492)" style="stroke:#000000; stroke-linecap:round; stroke-linejoin:round; stroke-width:2; stroke-opacity:0.1; fill:none" points="255.15,280.892 3063.61,280.892 "/>
<polyline clip-path="url(#clip490)" style="stroke:#000000; stroke-linecap:round; stroke-linejoin:round; stroke-width:4; stroke-opacity:1; fill:none" points="255.15,1763.75 3063.61,1763.75 "/>
<polyline clip-path="url(#clip490)" style="stroke:#000000; stroke-linecap:round; stroke-linejoin:round; stroke-width:4; stroke-opacity:1; fill:none" points="307.872,1763.75 307.872,1744.85 "/>
<polyline clip-path="url(#clip490)" style="stroke:#000000; stroke-linecap:round; stroke-linejoin:round; stroke-width:4; stroke-opacity:1; fill:none" points="976.935,1763.75 976.935,1744.85 "/>
<polyline clip-path="url(#clip490)" style="stroke:#000000; stroke-linecap:round; stroke-linejoin:round; stroke-width:4; stroke-opacity:1; fill:none" points="1646,1763.75 1646,1744.85 "/>
<polyline clip-path="url(#clip490)" style="stroke:#000000; stroke-linecap:round; stroke-linejoin:round; stroke-width:4; stroke-opacity:1; fill:none" points="2315.06,1763.75 2315.06,1744.85 "/>
<polyline clip-path="url(#clip490)" style="stroke:#000000; stroke-linecap:round; stroke-linejoin:round; stroke-width:4; stroke-opacity:1; fill:none" points="2984.12,1763.75 2984.12,1744.85 "/>
<path clip-path="url(#clip490)" d="M307.872 1813.33 Q302.455 1813.33 299.712 1818.67 Q297.004 1823.99 297.004 1834.68 Q297.004 1845.34 299.712 1850.69 Q302.455 1856 307.872 1856 Q313.323 1856 316.032 1850.69 Q318.775 1845.34 318.775 1834.68 Q318.775 1823.99 316.032 1818.67 Q313.323 1813.33 307.872 1813.33 M307.872 1807.77 Q316.587 1807.77 321.171 1814.68 Q325.789 1821.55 325.789 1834.68 Q325.789 1847.77 321.171 1854.68 Q316.587 1861.55 307.872 1861.55 Q299.157 1861.55 294.539 1854.68 Q289.955 1847.77 289.955 1834.68 Q289.955 1821.55 294.539 1814.68 Q299.157 1807.77 307.872 1807.77 Z" fill="#000000" fill-rule="nonzero" fill-opacity="1" /><path clip-path="url(#clip490)" d="M945.842 1854.64 L970.321 1854.64 L970.321 1860.55 L937.404 1860.55 L937.404 1854.64 Q941.397 1850.51 948.272 1843.57 Q955.182 1836.59 956.953 1834.58 Q960.321 1830.79 961.64 1828.19 Q962.994 1825.55 962.994 1823.01 Q962.994 1818.88 960.078 1816.28 Q957.196 1813.67 952.543 1813.67 Q949.244 1813.67 945.564 1814.82 Q941.918 1815.96 937.751 1818.29 L937.751 1811.21 Q941.988 1809.51 945.668 1808.64 Q949.349 1807.77 952.404 1807.77 Q960.46 1807.77 965.251 1811.8 Q970.043 1815.83 970.043 1822.56 Q970.043 1825.76 968.828 1828.64 Q967.647 1831.49 964.487 1835.37 Q963.619 1836.38 958.967 1841.21 Q954.314 1846 945.842 1854.64 Z" fill="#000000" fill-rule="nonzero" fill-opacity="1" /><path clip-path="url(#clip490)" d="M985.112 1808.71 L1012.65 1808.71 L1012.65 1814.61 L991.536 1814.61 L991.536 1827.32 Q993.064 1826.8 994.591 1826.55 Q996.119 1826.28 997.647 1826.28 Q1006.33 1826.28 1011.4 1831.03 Q1016.47 1835.79 1016.47 1843.92 Q1016.47 1852.28 1011.26 1856.94 Q1006.05 1861.55 996.571 1861.55 Q993.307 1861.55 989.904 1861 Q986.536 1860.44 982.925 1859.33 L982.925 1852.28 Q986.05 1853.99 989.383 1854.82 Q992.716 1855.65 996.432 1855.65 Q1002.44 1855.65 1005.95 1852.49 Q1009.45 1849.33 1009.45 1843.92 Q1009.45 1838.5 1005.95 1835.34 Q1002.44 1832.18 996.432 1832.18 Q993.619 1832.18 990.807 1832.8 Q988.029 1833.43 985.112 1834.75 L985.112 1808.71 Z" fill="#000000" fill-rule="nonzero" fill-opacity="1" /><path clip-path="url(#clip490)" d="M1608.05 1808.71 L1635.58 1808.71 L1635.58 1814.61 L1614.47 1814.61 L1614.47 1827.32 Q1616 1826.8 1617.53 1826.55 Q1619.05 1826.28 1620.58 1826.28 Q1629.26 1826.28 1634.33 1831.03 Q1639.4 1835.79 1639.4 1843.92 Q1639.4 1852.28 1634.19 1856.94 Q1628.98 1861.55 1619.51 1861.55 Q1616.24 1861.55 1612.84 1861 Q1609.47 1860.44 1605.86 1859.33 L1605.86 1852.28 Q1608.98 1853.99 1612.32 1854.82 Q1615.65 1855.65 1619.37 1855.65 Q1625.37 1855.65 1628.88 1852.49 Q1632.39 1849.33 1632.39 1843.92 Q1632.39 1838.5 1628.88 1835.34 Q1625.37 1832.18 1619.37 1832.18 Q1616.55 1832.18 1613.74 1832.8 Q1610.96 1833.43 1608.05 1834.75 L1608.05 1808.71 Z" fill="#000000" fill-rule="nonzero" fill-opacity="1" /><path clip-path="url(#clip490)" d="M1668.22 1813.33 Q1662.8 1813.33 1660.06 1818.67 Q1657.35 1823.99 1657.35 1834.68 Q1657.35 1845.34 1660.06 1850.69 Q1662.8 1856 1668.22 1856 Q1673.67 1856 1676.38 1850.69 Q1679.12 1845.34 1679.12 1834.68 Q1679.12 1823.99 1676.38 1818.67 Q1673.67 1813.33 1668.22 1813.33 M1668.22 1807.77 Q1676.94 1807.77 1681.52 1814.68 Q1686.14 1821.55 1686.14 1834.68 Q1686.14 1847.77 1681.52 1854.68 Q1676.94 1861.55 1668.22 1861.55 Q1659.51 1861.55 1654.89 1854.68 Q1650.3 1847.77 1650.3 1834.68 Q1650.3 1821.55 1654.89 1814.68 Q1659.51 1807.77 1668.22 1807.77 Z" fill="#000000" fill-rule="nonzero" fill-opacity="1" /><path clip-path="url(#clip490)" d="M2275.84 1808.71 L2309.18 1808.71 L2309.18 1811.69 L2290.36 1860.55 L2283.03 1860.55 L2300.74 1814.61 L2275.84 1814.61 L2275.84 1808.71 Z" fill="#000000" fill-rule="nonzero" fill-opacity="1" /><path clip-path="url(#clip490)" d="M2322.93 1808.71 L2350.46 1808.71 L2350.46 1814.61 L2329.35 1814.61 L2329.35 1827.32 Q2330.88 1826.8 2332.41 1826.55 Q2333.93 1826.28 2335.46 1826.28 Q2344.14 1826.28 2349.21 1831.03 Q2354.28 1835.79 2354.28 1843.92 Q2354.28 1852.28 2349.07 1856.94 Q2343.86 1861.55 2334.38 1861.55 Q2331.12 1861.55 2327.72 1861 Q2324.35 1860.44 2320.74 1859.33 L2320.74 1852.28 Q2323.86 1853.99 2327.2 1854.82 Q2330.53 1855.65 2334.25 1855.65 Q2340.25 1855.65 2343.76 1852.49 Q2347.27 1849.33 2347.27 1843.92 Q2347.27 1838.5 2343.76 1835.34 Q2340.25 1832.18 2334.25 1832.18 Q2331.43 1832.18 2328.62 1832.8 Q2325.84 1833.43 2322.93 1834.75 L2322.93 1808.71 Z" fill="#000000" fill-rule="nonzero" fill-opacity="1" /><path clip-path="url(#clip490)" d="M2923.53 1854.64 L2934.99 1854.64 L2934.99 1815.1 L2922.53 1817.6 L2922.53 1811.21 L2934.92 1808.71 L2941.94 1808.71 L2941.94 1854.64 L2953.4 1854.64 L2953.4 1860.55 L2923.53 1860.55 L2923.53 1854.64 Z" fill="#000000" fill-rule="nonzero" fill-opacity="1" /><path clip-path="url(#clip490)" d="M2982.56 1813.33 Q2977.15 1813.33 2974.4 1818.67 Q2971.69 1823.99 2971.69 1834.68 Q2971.69 1845.34 2974.4 1850.69 Q2977.15 1856 2982.56 1856 Q2988.01 1856 2990.72 1850.69 Q2993.47 1845.34 2993.47 1834.68 Q2993.47 1823.99 2990.72 1818.67 Q2988.01 1813.33 2982.56 1813.33 M2982.56 1807.77 Q2991.28 1807.77 2995.86 1814.68 Q3000.48 1821.55 3000.48 1834.68 Q3000.48 1847.77 2995.86 1854.68 Q2991.28 1861.55 2982.56 1861.55 Q2973.85 1861.55 2969.23 1854.68 Q2964.65 1847.77 2964.65 1834.68 Q2964.65 1821.55 2969.23 1814.68 Q2973.85 1807.77 2982.56 1807.77 Z" fill="#000000" fill-rule="nonzero" fill-opacity="1" /><path clip-path="url(#clip490)" d="M3027.81 1813.33 Q3022.39 1813.33 3019.65 1818.67 Q3016.94 1823.99 3016.94 1834.68 Q3016.94 1845.34 3019.65 1850.69 Q3022.39 1856 3027.81 1856 Q3033.26 1856 3035.96 1850.69 Q3038.71 1845.34 3038.71 1834.68 Q3038.71 1823.99 3035.96 1818.67 Q3033.26 1813.33 3027.81 1813.33 M3027.81 1807.77 Q3036.52 1807.77 3041.1 1814.68 Q3045.72 1821.55 3045.72 1834.68 Q3045.72 1847.77 3041.1 1854.68 Q3036.52 1861.55 3027.81 1861.55 Q3019.09 1861.55 3014.47 1854.68 Q3009.89 1847.77 3009.89 1834.68 Q3009.89 1821.55 3014.47 1814.68 Q3019.09 1807.77 3027.81 1807.77 Z" fill="#000000" fill-rule="nonzero" fill-opacity="1" /><path clip-path="url(#clip490)" d="M1598.54 1912.76 L1598.54 1922.88 L1610.6 1922.88 L1610.6 1927.44 L1598.54 1927.44 L1598.54 1946.79 Q1598.54 1951.15 1599.72 1952.39 Q1600.93 1953.63 1604.59 1953.63 L1610.6 1953.63 L1610.6 1958.53 L1604.59 1958.53 Q1597.81 1958.53 1595.23 1956.02 Q1592.65 1953.47 1592.65 1946.79 L1592.65 1927.44 L1588.35 1927.44 L1588.35 1922.88 L1592.65 1922.88 L1592.65 1912.76 L1598.54 1912.76 Z" fill="#000000" fill-rule="nonzero" fill-opacity="1" /><path clip-path="url(#clip490)" d="M1618.31 1922.88 L1624.16 1922.88 L1624.16 1958.53 L1618.31 1958.53 L1618.31 1922.88 M1618.31 1909.01 L1624.16 1909.01 L1624.16 1916.42 L1618.31 1916.42 L1618.31 1909.01 Z" fill="#000000" fill-rule="nonzero" fill-opacity="1" /><path clip-path="url(#clip490)" d="M1664.17 1929.73 Q1666.37 1925.78 1669.42 1923.9 Q1672.48 1922.02 1676.61 1922.02 Q1682.18 1922.02 1685.21 1925.94 Q1688.23 1929.82 1688.23 1937.02 L1688.23 1958.53 L1682.34 1958.53 L1682.34 1937.21 Q1682.34 1932.08 1680.53 1929.6 Q1678.72 1927.12 1674.99 1927.12 Q1670.44 1927.12 1667.8 1930.14 Q1665.16 1933.16 1665.16 1938.38 L1665.16 1958.53 L1659.27 1958.53 L1659.27 1937.21 Q1659.27 1932.05 1657.45 1929.6 Q1655.64 1927.12 1651.85 1927.12 Q1647.36 1927.12 1644.72 1930.17 Q1642.08 1933.2 1642.08 1938.38 L1642.08 1958.53 L1636.19 1958.53 L1636.19 1922.88 L1642.08 1922.88 L1642.08 1928.42 Q1644.09 1925.14 1646.89 1923.58 Q1649.69 1922.02 1653.54 1922.02 Q1657.42 1922.02 1660.13 1924 Q1662.86 1925.97 1664.17 1929.73 Z" fill="#000000" fill-rule="nonzero" fill-opacity="1" /><path clip-path="url(#clip490)" d="M1730.41 1939.24 L1730.41 1942.11 L1703.48 1942.11 Q1703.86 1948.16 1707.11 1951.34 Q1710.38 1954.49 1716.21 1954.49 Q1719.58 1954.49 1722.73 1953.66 Q1725.92 1952.83 1729.04 1951.18 L1729.04 1956.72 Q1725.89 1958.05 1722.58 1958.75 Q1719.27 1959.45 1715.86 1959.45 Q1707.33 1959.45 1702.33 1954.49 Q1697.37 1949.52 1697.37 1941.06 Q1697.37 1932.31 1702.08 1927.18 Q1706.82 1922.02 1714.84 1922.02 Q1722.03 1922.02 1726.2 1926.67 Q1730.41 1931.29 1730.41 1939.24 M1724.55 1937.52 Q1724.49 1932.72 1721.84 1929.85 Q1719.23 1926.99 1714.9 1926.99 Q1710 1926.99 1707.04 1929.76 Q1704.11 1932.53 1703.67 1937.56 L1724.55 1937.52 Z" fill="#000000" fill-rule="nonzero" fill-opacity="1" /><polyline clip-path="url(#clip490)" style="stroke:#000000; stroke-linecap:round; stroke-linejoin:round; stroke-width:4; stroke-opacity:1; fill:none" points="255.15,1763.75 255.15,262.064 "/>
<polyline clip-path="url(#clip490)" style="stroke:#000000; stroke-linecap:round; stroke-linejoin:round; stroke-width:4; stroke-opacity:1; fill:none" points="255.15,1533.51 269.503,1533.51 "/>
<polyline clip-path="url(#clip490)" style="stroke:#000000; stroke-linecap:round; stroke-linejoin:round; stroke-width:4; stroke-opacity:1; fill:none" points="255.15,1220.36 269.503,1220.36 "/>
<polyline clip-path="url(#clip490)" style="stroke:#000000; stroke-linecap:round; stroke-linejoin:round; stroke-width:4; stroke-opacity:1; fill:none" points="255.15,907.203 269.503,907.203 "/>
<polyline clip-path="url(#clip490)" style="stroke:#000000; stroke-linecap:round; stroke-linejoin:round; stroke-width:4; stroke-opacity:1; fill:none" points="255.15,594.047 269.503,594.047 "/>
<polyline clip-path="url(#clip490)" style="stroke:#000000; stroke-linecap:round; stroke-linejoin:round; stroke-width:4; stroke-opacity:1; fill:none" points="255.15,280.892 269.503,280.892 "/>
<path clip-path="url(#clip490)" d="M177.233 1512.21 Q171.817 1512.21 169.074 1517.56 Q166.365 1522.87 166.365 1533.57 Q166.365 1544.23 169.074 1549.57 Q171.817 1554.89 177.233 1554.89 Q182.685 1554.89 185.393 1549.57 Q188.136 1544.23 188.136 1533.57 Q188.136 1522.87 185.393 1517.56 Q182.685 1512.21 177.233 1512.21 M177.233 1506.66 Q185.949 1506.66 190.532 1513.57 Q195.15 1520.44 195.15 1533.57 Q195.15 1546.66 190.532 1553.57 Q185.949 1560.44 177.233 1560.44 Q168.518 1560.44 163.9 1553.57 Q159.317 1546.66 159.317 1533.57 Q159.317 1520.44 163.9 1513.57 Q168.518 1506.66 177.233 1506.66 Z" fill="#000000" fill-rule="nonzero" fill-opacity="1" /><path clip-path="url(#clip490)" d="M165.289 1240.38 L176.747 1240.38 L176.747 1200.83 L164.282 1203.33 L164.282 1196.94 L176.678 1194.44 L183.692 1194.44 L183.692 1240.38 L195.15 1240.38 L195.15 1246.28 L165.289 1246.28 L165.289 1240.38 Z" fill="#000000" fill-rule="nonzero" fill-opacity="1" /><path clip-path="url(#clip490)" d="M170.671 927.22 L195.15 927.22 L195.15 933.123 L162.233 933.123 L162.233 927.22 Q166.226 923.088 173.101 916.144 Q180.011 909.165 181.782 907.151 Q185.15 903.366 186.469 900.762 Q187.824 898.123 187.824 895.588 Q187.824 891.456 184.907 888.852 Q182.025 886.248 177.372 886.248 Q174.074 886.248 170.393 887.394 Q166.747 888.54 162.581 890.866 L162.581 883.783 Q166.817 882.082 170.497 881.213 Q174.178 880.345 177.233 880.345 Q185.289 880.345 190.08 884.373 Q194.872 888.401 194.872 895.137 Q194.872 898.331 193.657 901.213 Q192.476 904.061 189.317 907.949 Q188.449 908.956 183.796 913.783 Q179.143 918.574 170.671 927.22 Z" fill="#000000" fill-rule="nonzero" fill-opacity="1" /><path clip-path="url(#clip490)" d="M184.455 592.016 Q189.49 593.092 192.303 596.495 Q195.15 599.898 195.15 604.898 Q195.15 612.571 189.872 616.773 Q184.594 620.974 174.872 620.974 Q171.608 620.974 168.136 620.315 Q164.699 619.69 161.018 618.405 L161.018 611.634 Q163.935 613.335 167.407 614.203 Q170.879 615.071 174.664 615.071 Q181.261 615.071 184.699 612.467 Q188.171 609.863 188.171 604.898 Q188.171 600.315 184.942 597.745 Q181.747 595.141 176.018 595.141 L169.976 595.141 L169.976 589.377 L176.296 589.377 Q181.469 589.377 184.212 587.329 Q186.955 585.245 186.955 581.356 Q186.955 577.363 184.108 575.245 Q181.296 573.093 176.018 573.093 Q173.136 573.093 169.837 573.718 Q166.539 574.343 162.581 575.662 L162.581 569.412 Q166.574 568.301 170.046 567.745 Q173.553 567.19 176.643 567.19 Q184.629 567.19 189.282 570.836 Q193.935 574.447 193.935 580.627 Q193.935 584.933 191.469 587.919 Q189.004 590.87 184.455 592.016 Z" fill="#000000" fill-rule="nonzero" fill-opacity="1" /><path clip-path="url(#clip490)" d="M180.775 261.083 L163.067 288.756 L180.775 288.756 L180.775 261.083 M178.935 254.972 L187.754 254.972 L187.754 288.756 L195.15 288.756 L195.15 294.589 L187.754 294.589 L187.754 306.812 L180.775 306.812 L180.775 294.589 L157.372 294.589 L157.372 287.819 L178.935 254.972 Z" fill="#000000" fill-rule="nonzero" fill-opacity="1" /><path clip-path="url(#clip490)" d="M47.4683 996.291 L64.8149 1009.18 L83.1163 995.623 L83.1163 1002.53 L69.1117 1012.91 L83.1163 1023.28 L83.1163 1030.19 L64.4648 1016.34 L47.4683 1029.01 L47.4683 1022.1 L60.1679 1012.65 L47.4683 1003.2 L47.4683 996.291 Z" fill="#000000" fill-rule="nonzero" fill-opacity="1" /><path clip-path="url(#clip490)" d="M803.991 44.3209 L803.991 52.3012 Q799.332 50.0732 795.2 48.9795 Q791.068 47.8857 787.22 47.8857 Q780.536 47.8857 776.89 50.4783 Q773.285 53.0709 773.285 57.851 Q773.285 61.8614 775.675 63.9273 Q778.106 65.9528 784.83 67.2086 L789.772 68.2213 Q798.927 69.9632 803.262 74.3787 Q807.637 78.7536 807.637 86.1263 Q807.637 94.9167 801.722 99.4537 Q795.848 103.991 784.465 103.991 Q780.171 103.991 775.31 103.019 Q770.49 102.046 765.305 100.142 L765.305 91.7165 Q770.287 94.5116 775.067 95.9295 Q779.847 97.3473 784.465 97.3473 Q791.474 97.3473 795.281 94.5927 Q799.089 91.838 799.089 86.7339 Q799.089 82.2779 796.335 79.7664 Q793.62 77.2548 787.382 75.999 L782.399 75.0268 Q773.244 73.2039 769.153 69.315 Q765.062 65.4262 765.062 58.4991 Q765.062 50.4783 770.692 45.8603 Q776.364 41.2423 786.288 41.2423 Q790.542 41.2423 794.957 42.0119 Q799.373 42.7816 803.991 44.3209 Z" fill="#000000" fill-rule="nonzero" fill-opacity="1" /><path clip-path="url(#clip490)" d="M840.692 80.0094 Q831.658 80.0094 828.175 82.0754 Q824.691 84.1413 824.691 89.1239 Q824.691 93.0938 827.284 95.4434 Q829.917 97.7524 834.413 97.7524 Q840.611 97.7524 844.338 93.3774 Q848.105 88.9619 848.105 81.6703 L848.105 80.0094 L840.692 80.0094 M855.559 76.9307 L855.559 102.816 L848.105 102.816 L848.105 95.9295 Q845.553 100.061 841.745 102.046 Q837.937 103.991 832.428 103.991 Q825.461 103.991 821.329 100.102 Q817.237 96.1725 817.237 89.6101 Q817.237 81.9538 822.341 78.065 Q827.486 74.1761 837.654 74.1761 L848.105 74.1761 L848.105 73.4469 Q848.105 68.3023 844.702 65.5072 Q841.34 62.6715 835.223 62.6715 Q831.334 62.6715 827.648 63.6032 Q823.962 64.535 820.559 66.3984 L820.559 59.5118 Q824.65 57.932 828.499 57.1623 Q832.347 56.3521 835.993 56.3521 Q845.837 56.3521 850.698 61.4563 Q855.559 66.5604 855.559 76.9307 Z" fill="#000000" fill-rule="nonzero" fill-opacity="1" /><path clip-path="url(#clip490)" d="M906.236 66.1553 Q909.031 61.1322 912.92 58.7422 Q916.808 56.3521 922.075 56.3521 Q929.164 56.3521 933.012 61.3347 Q936.86 66.2768 936.86 75.4319 L936.86 102.816 L929.366 102.816 L929.366 75.6749 Q929.366 69.153 927.057 65.9933 Q924.748 62.8336 920.009 62.8336 Q914.216 62.8336 910.854 66.6819 Q907.491 70.5303 907.491 77.1738 L907.491 102.816 L899.997 102.816 L899.997 75.6749 Q899.997 69.1125 897.688 65.9933 Q895.379 62.8336 890.559 62.8336 Q884.847 62.8336 881.485 66.7224 Q878.122 70.5708 878.122 77.1738 L878.122 102.816 L870.628 102.816 L870.628 57.4459 L878.122 57.4459 L878.122 64.4944 Q880.674 60.322 884.239 58.3371 Q887.804 56.3521 892.706 56.3521 Q897.648 56.3521 901.091 58.8637 Q904.575 61.3752 906.236 66.1553 Z" fill="#000000" fill-rule="nonzero" fill-opacity="1" /><path clip-path="url(#clip490)" d="M958.938 96.0105 L958.938 120.073 L951.444 120.073 L951.444 57.4459 L958.938 57.4459 L958.938 64.3324 Q961.287 60.2815 964.852 58.3371 Q968.458 56.3521 973.44 56.3521 Q981.704 56.3521 986.849 62.9146 Q992.034 69.4771 992.034 80.1714 Q992.034 90.8658 986.849 97.4283 Q981.704 103.991 973.44 103.991 Q968.458 103.991 964.852 102.046 Q961.287 100.061 958.938 96.0105 M984.297 80.1714 Q984.297 71.9481 980.894 67.2896 Q977.532 62.5905 971.617 62.5905 Q965.703 62.5905 962.3 67.2896 Q958.938 71.9481 958.938 80.1714 Q958.938 88.3948 962.3 93.0938 Q965.703 97.7524 971.617 97.7524 Q977.532 97.7524 980.894 93.0938 Q984.297 88.3948 984.297 80.1714 Z" fill="#000000" fill-rule="nonzero" fill-opacity="1" /><path clip-path="url(#clip490)" d="M1004.39 39.7839 L1011.84 39.7839 L1011.84 102.816 L1004.39 102.816 L1004.39 39.7839 Z" fill="#000000" fill-rule="nonzero" fill-opacity="1" /><path clip-path="url(#clip490)" d="M1066.25 78.2675 L1066.25 81.9133 L1031.98 81.9133 Q1032.46 89.6101 1036.59 93.661 Q1040.77 97.6714 1048.18 97.6714 Q1052.47 97.6714 1056.48 96.6181 Q1060.53 95.5649 1064.5 93.4584 L1064.5 100.507 Q1060.49 102.208 1056.28 103.1 Q1052.07 103.991 1047.73 103.991 Q1036.88 103.991 1030.52 97.6714 Q1024.2 91.3519 1024.2 80.5765 Q1024.2 69.4365 1030.19 62.9146 Q1036.23 56.3521 1046.44 56.3521 Q1055.59 56.3521 1060.9 62.2664 Q1066.25 68.1403 1066.25 78.2675 M1058.79 76.08 Q1058.71 69.9632 1055.35 66.3174 Q1052.03 62.6715 1046.52 62.6715 Q1040.28 62.6715 1036.51 66.1958 Q1032.79 69.7201 1032.22 76.1205 L1058.79 76.08 Z" fill="#000000" fill-rule="nonzero" fill-opacity="1" /><path clip-path="url(#clip490)" d="M1107.32 95.9295 L1120.69 95.9295 L1120.69 49.7897 L1106.15 52.7063 L1106.15 45.2527 L1120.61 42.336 L1128.79 42.336 L1128.79 95.9295 L1142.16 95.9295 L1142.16 102.816 L1107.32 102.816 L1107.32 95.9295 Z" fill="#000000" fill-rule="nonzero" fill-opacity="1" /><path clip-path="url(#clip490)" d="M1183.48 70.2062 Q1189.35 71.462 1192.63 75.4319 Q1195.96 79.4018 1195.96 85.2351 Q1195.96 94.1876 1189.8 99.0892 Q1183.64 103.991 1172.3 103.991 Q1168.49 103.991 1164.44 103.221 Q1160.43 102.492 1156.14 100.993 L1156.14 93.0938 Q1159.54 95.0788 1163.59 96.0915 Q1167.64 97.1042 1172.06 97.1042 Q1179.75 97.1042 1183.76 94.066 Q1187.81 91.0279 1187.81 85.2351 Q1187.81 79.8879 1184.05 76.8902 Q1180.32 73.852 1173.64 73.852 L1166.59 73.852 L1166.59 67.1275 L1173.96 67.1275 Q1180 67.1275 1183.2 64.7375 Q1186.4 62.307 1186.4 57.7699 Q1186.4 53.1114 1183.07 50.6404 Q1179.79 48.1288 1173.64 48.1288 Q1170.27 48.1288 1166.43 48.858 Q1162.58 49.5871 1157.96 51.1265 L1157.96 43.8348 Q1162.62 42.5385 1166.67 41.8904 Q1170.76 41.2423 1174.36 41.2423 Q1183.68 41.2423 1189.11 45.4957 Q1194.54 49.7086 1194.54 56.9193 Q1194.54 61.9424 1191.66 65.4262 Q1188.79 68.8694 1183.48 70.2062 Z" fill="#000000" fill-rule="nonzero" fill-opacity="1" /><path clip-path="url(#clip490)" d="M1211.55 42.336 L1243.68 42.336 L1243.68 49.2225 L1219.05 49.2225 L1219.05 64.0488 Q1220.83 63.4412 1222.61 63.1576 Q1224.39 62.8336 1226.18 62.8336 Q1236.3 62.8336 1242.22 68.3833 Q1248.13 73.9331 1248.13 83.4122 Q1248.13 93.1748 1242.06 98.6031 Q1235.98 103.991 1224.92 103.991 Q1221.11 103.991 1217.14 103.343 Q1213.21 102.694 1209 101.398 L1209 93.1748 Q1212.65 95.1598 1216.53 96.132 Q1220.42 97.1042 1224.76 97.1042 Q1231.77 97.1042 1235.86 93.4179 Q1239.95 89.7316 1239.95 83.4122 Q1239.95 77.0928 1235.86 73.4064 Q1231.77 69.7201 1224.76 69.7201 Q1221.48 69.7201 1218.2 70.4493 Q1214.96 71.1784 1211.55 72.7178 L1211.55 42.336 Z" fill="#000000" fill-rule="nonzero" fill-opacity="1" /><path clip-path="url(#clip490)" d="M1265.11 92.5267 L1273.65 92.5267 L1273.65 99.4943 L1267.01 112.457 L1261.78 112.457 L1265.11 99.4943 L1265.11 92.5267 Z" fill="#000000" fill-rule="nonzero" fill-opacity="1" /><path clip-path="url(#clip490)" d="M1361.56 46.9945 L1361.56 55.623 Q1357.43 51.7746 1352.73 49.8707 Q1348.07 47.9668 1342.8 47.9668 Q1332.43 47.9668 1326.92 54.3267 Q1321.41 60.6461 1321.41 72.6368 Q1321.41 84.5869 1326.92 90.9469 Q1332.43 97.2663 1342.8 97.2663 Q1348.07 97.2663 1352.73 95.3623 Q1357.43 93.4584 1361.56 89.6101 L1361.56 98.1575 Q1357.26 101.074 1352.44 102.532 Q1347.66 103.991 1342.32 103.991 Q1328.58 103.991 1320.68 95.6054 Q1312.78 87.1795 1312.78 72.6368 Q1312.78 58.0535 1320.68 49.6681 Q1328.58 41.2423 1342.32 41.2423 Q1347.74 41.2423 1352.52 42.7006 Q1357.34 44.1184 1361.56 46.9945 Z" fill="#000000" fill-rule="nonzero" fill-opacity="1" /><path clip-path="url(#clip490)" d="M1373.87 39.7839 L1381.33 39.7839 L1381.33 102.816 L1373.87 102.816 L1373.87 39.7839 Z" fill="#000000" fill-rule="nonzero" fill-opacity="1" /><path clip-path="url(#clip490)" d="M1417.54 80.0094 Q1408.51 80.0094 1405.02 82.0754 Q1401.54 84.1413 1401.54 89.1239 Q1401.54 93.0938 1404.13 95.4434 Q1406.77 97.7524 1411.26 97.7524 Q1417.46 97.7524 1421.19 93.3774 Q1424.95 88.9619 1424.95 81.6703 L1424.95 80.0094 L1417.54 80.0094 M1432.41 76.9307 L1432.41 102.816 L1424.95 102.816 L1424.95 95.9295 Q1422.4 100.061 1418.59 102.046 Q1414.79 103.991 1409.28 103.991 Q1402.31 103.991 1398.18 100.102 Q1394.09 96.1725 1394.09 89.6101 Q1394.09 81.9538 1399.19 78.065 Q1404.33 74.1761 1414.5 74.1761 L1424.95 74.1761 L1424.95 73.4469 Q1424.95 68.3023 1421.55 65.5072 Q1418.19 62.6715 1412.07 62.6715 Q1408.18 62.6715 1404.5 63.6032 Q1400.81 64.535 1397.41 66.3984 L1397.41 59.5118 Q1401.5 57.932 1405.35 57.1623 Q1409.2 56.3521 1412.84 56.3521 Q1422.69 56.3521 1427.55 61.4563 Q1432.41 66.5604 1432.41 76.9307 Z" fill="#000000" fill-rule="nonzero" fill-opacity="1" /><path clip-path="url(#clip490)" d="M1476.68 58.7827 L1476.68 65.8312 Q1473.52 64.2109 1470.12 63.4007 Q1466.72 62.5905 1463.07 62.5905 Q1457.52 62.5905 1454.73 64.2919 Q1451.97 65.9933 1451.97 69.396 Q1451.97 71.9886 1453.96 73.4875 Q1455.94 74.9458 1461.94 76.2826 L1464.49 76.8497 Q1472.43 78.5511 1475.75 81.6703 Q1479.11 84.749 1479.11 90.2987 Q1479.11 96.6181 1474.09 100.304 Q1469.11 103.991 1460.36 103.991 Q1456.71 103.991 1452.74 103.262 Q1448.81 102.573 1444.44 101.155 L1444.44 93.4584 Q1448.57 95.6054 1452.58 96.6991 Q1456.59 97.7524 1460.52 97.7524 Q1465.79 97.7524 1468.62 95.97 Q1471.46 94.1471 1471.46 90.8658 Q1471.46 87.8277 1469.39 86.2073 Q1467.37 84.5869 1460.44 83.0881 L1457.85 82.4805 Q1450.92 81.0221 1447.84 78.0245 Q1444.76 74.9863 1444.76 69.7201 Q1444.76 63.3197 1449.3 59.8359 Q1453.84 56.3521 1462.18 56.3521 Q1466.31 56.3521 1469.96 56.9598 Q1473.61 57.5674 1476.68 58.7827 Z" fill="#000000" fill-rule="nonzero" fill-opacity="1" /><path clip-path="url(#clip490)" d="M1519.91 58.7827 L1519.91 65.8312 Q1516.75 64.2109 1513.34 63.4007 Q1509.94 62.5905 1506.3 62.5905 Q1500.75 62.5905 1497.95 64.2919 Q1495.2 65.9933 1495.2 69.396 Q1495.2 71.9886 1497.18 73.4875 Q1499.17 74.9458 1505.16 76.2826 L1507.71 76.8497 Q1515.65 78.5511 1518.98 81.6703 Q1522.34 84.749 1522.34 90.2987 Q1522.34 96.6181 1517.31 100.304 Q1512.33 103.991 1503.58 103.991 Q1499.94 103.991 1495.97 103.262 Q1492.04 102.573 1487.66 101.155 L1487.66 93.4584 Q1491.79 95.6054 1495.8 96.6991 Q1499.81 97.7524 1503.74 97.7524 Q1509.01 97.7524 1511.85 95.97 Q1514.68 94.1471 1514.68 90.8658 Q1514.68 87.8277 1512.62 86.2073 Q1510.59 84.5869 1503.66 83.0881 L1501.07 82.4805 Q1494.14 81.0221 1491.06 78.0245 Q1487.99 74.9863 1487.99 69.7201 Q1487.99 63.3197 1492.52 59.8359 Q1497.06 56.3521 1505.4 56.3521 Q1509.54 56.3521 1513.18 56.9598 Q1516.83 57.5674 1519.91 58.7827 Z" fill="#000000" fill-rule="nonzero" fill-opacity="1" /><path clip-path="url(#clip490)" d="M1579.13 47.7237 Q1572.81 47.7237 1569.61 53.9621 Q1566.45 60.16 1566.45 72.6368 Q1566.45 85.073 1569.61 91.3114 Q1572.81 97.5093 1579.13 97.5093 Q1585.49 97.5093 1588.65 91.3114 Q1591.85 85.073 1591.85 72.6368 Q1591.85 60.16 1588.65 53.9621 Q1585.49 47.7237 1579.13 47.7237 M1579.13 41.2423 Q1589.3 41.2423 1594.65 49.3036 Q1600.03 57.3243 1600.03 72.6368 Q1600.03 87.9087 1594.65 95.97 Q1589.3 103.991 1579.13 103.991 Q1568.96 103.991 1563.58 95.97 Q1558.23 87.9087 1558.23 72.6368 Q1558.23 57.3243 1563.58 49.3036 Q1568.96 41.2423 1579.13 41.2423 Z" fill="#000000" fill-rule="nonzero" fill-opacity="1" /><path clip-path="url(#clip490)" d="M1615.27 92.5267 L1623.81 92.5267 L1623.81 99.4943 L1617.17 112.457 L1611.94 112.457 L1615.27 99.4943 L1615.27 92.5267 Z" fill="#000000" fill-rule="nonzero" fill-opacity="1" /><path clip-path="url(#clip490)" d="M1689.64 49.4656 L1668.98 81.7513 L1689.64 81.7513 L1689.64 49.4656 M1687.49 42.336 L1697.78 42.336 L1697.78 81.7513 L1706.41 81.7513 L1706.41 88.5568 L1697.78 88.5568 L1697.78 102.816 L1689.64 102.816 L1689.64 88.5568 L1662.34 88.5568 L1662.34 80.6576 L1687.49 42.336 Z" fill="#000000" fill-rule="nonzero" fill-opacity="1" /><path clip-path="url(#clip490)" d="M1720.02 42.336 L1752.15 42.336 L1752.15 49.2225 L1727.52 49.2225 L1727.52 64.0488 Q1729.3 63.4412 1731.08 63.1576 Q1732.86 62.8336 1734.65 62.8336 Q1744.77 62.8336 1750.69 68.3833 Q1756.6 73.9331 1756.6 83.4122 Q1756.6 93.1748 1750.53 98.6031 Q1744.45 103.991 1733.39 103.991 Q1729.58 103.991 1725.61 103.343 Q1721.68 102.694 1717.47 101.398 L1717.47 93.1748 Q1721.12 95.1598 1725 96.132 Q1728.89 97.1042 1733.23 97.1042 Q1740.24 97.1042 1744.33 93.4179 Q1748.42 89.7316 1748.42 83.4122 Q1748.42 77.0928 1744.33 73.4064 Q1740.24 69.7201 1733.23 69.7201 Q1729.95 69.7201 1726.67 70.4493 Q1723.42 71.1784 1720.02 72.7178 L1720.02 42.336 Z" fill="#000000" fill-rule="nonzero" fill-opacity="1" /><path clip-path="url(#clip490)" d="M1767.9 76.7687 L1789.74 76.7687 L1789.74 83.4122 L1767.9 83.4122 L1767.9 76.7687 Z" fill="#000000" fill-rule="nonzero" fill-opacity="1" /><path clip-path="url(#clip490)" d="M1830.53 58.7827 L1830.53 65.8312 Q1827.37 64.2109 1823.97 63.4007 Q1820.57 62.5905 1816.92 62.5905 Q1811.37 62.5905 1808.57 64.2919 Q1805.82 65.9933 1805.82 69.396 Q1805.82 71.9886 1807.8 73.4875 Q1809.79 74.9458 1815.79 76.2826 L1818.34 76.8497 Q1826.28 78.5511 1829.6 81.6703 Q1832.96 84.749 1832.96 90.2987 Q1832.96 96.6181 1827.94 100.304 Q1822.96 103.991 1814.21 103.991 Q1810.56 103.991 1806.59 103.262 Q1802.66 102.573 1798.29 101.155 L1798.29 93.4584 Q1802.42 95.6054 1806.43 96.6991 Q1810.44 97.7524 1814.37 97.7524 Q1819.63 97.7524 1822.47 95.97 Q1825.3 94.1471 1825.3 90.8658 Q1825.3 87.8277 1823.24 86.2073 Q1821.21 84.5869 1814.29 83.0881 L1811.69 82.4805 Q1804.77 81.0221 1801.69 78.0245 Q1798.61 74.9863 1798.61 69.7201 Q1798.61 63.3197 1803.15 59.8359 Q1807.68 56.3521 1816.03 56.3521 Q1820.16 56.3521 1823.81 56.9598 Q1827.45 57.5674 1830.53 58.7827 Z" fill="#000000" fill-rule="nonzero" fill-opacity="1" /><path clip-path="url(#clip490)" d="M1844.83 57.4459 L1852.28 57.4459 L1852.28 102.816 L1844.83 102.816 L1844.83 57.4459 M1844.83 39.7839 L1852.28 39.7839 L1852.28 49.2225 L1844.83 49.2225 L1844.83 39.7839 Z" fill="#000000" fill-rule="nonzero" fill-opacity="1" /><path clip-path="url(#clip490)" d="M1875.25 44.564 L1875.25 57.4459 L1890.61 57.4459 L1890.61 63.2387 L1875.25 63.2387 L1875.25 87.8682 Q1875.25 93.4179 1876.75 94.9978 Q1878.29 96.5776 1882.95 96.5776 L1890.61 96.5776 L1890.61 102.816 L1882.95 102.816 Q1874.32 102.816 1871.04 99.6158 Q1867.76 96.3751 1867.76 87.8682 L1867.76 63.2387 L1862.29 63.2387 L1862.29 57.4459 L1867.76 57.4459 L1867.76 44.564 L1875.25 44.564 Z" fill="#000000" fill-rule="nonzero" fill-opacity="1" /><path clip-path="url(#clip490)" d="M1939.22 78.2675 L1939.22 81.9133 L1904.95 81.9133 Q1905.43 89.6101 1909.56 93.661 Q1913.74 97.6714 1921.15 97.6714 Q1925.44 97.6714 1929.45 96.6181 Q1933.5 95.5649 1937.47 93.4584 L1937.47 100.507 Q1933.46 102.208 1929.25 103.1 Q1925.04 103.991 1920.7 103.991 Q1909.85 103.991 1903.49 97.6714 Q1897.17 91.3519 1897.17 80.5765 Q1897.17 69.4365 1903.16 62.9146 Q1909.2 56.3521 1919.41 56.3521 Q1928.56 56.3521 1933.87 62.2664 Q1939.22 68.1403 1939.22 78.2675 M1931.76 76.08 Q1931.68 69.9632 1928.32 66.3174 Q1925 62.6715 1919.49 62.6715 Q1913.25 62.6715 1909.48 66.1958 Q1905.76 69.7201 1905.19 76.1205 L1931.76 76.08 Z" fill="#000000" fill-rule="nonzero" fill-opacity="1" /><path clip-path="url(#clip490)" d="M1978.15 42.336 L1986.33 42.336 L1986.33 102.816 L1978.15 102.816 L1978.15 42.336 Z" fill="#000000" fill-rule="nonzero" fill-opacity="1" /><path clip-path="url(#clip490)" d="M2040 75.4319 L2040 102.816 L2032.55 102.816 L2032.55 75.6749 Q2032.55 69.234 2030.04 66.0338 Q2027.53 62.8336 2022.5 62.8336 Q2016.47 62.8336 2012.98 66.6819 Q2009.5 70.5303 2009.5 77.1738 L2009.5 102.816 L2002.01 102.816 L2002.01 57.4459 L2009.5 57.4459 L2009.5 64.4944 Q2012.17 60.403 2015.78 58.3776 Q2019.42 56.3521 2024.16 56.3521 Q2031.98 56.3521 2035.99 61.2132 Q2040 66.0338 2040 75.4319 Z" fill="#000000" fill-rule="nonzero" fill-opacity="1" /><path clip-path="url(#clip490)" d="M2062.24 44.564 L2062.24 57.4459 L2077.6 57.4459 L2077.6 63.2387 L2062.24 63.2387 L2062.24 87.8682 Q2062.24 93.4179 2063.74 94.9978 Q2065.28 96.5776 2069.94 96.5776 L2077.6 96.5776 L2077.6 102.816 L2069.94 102.816 Q2061.31 102.816 2058.03 99.6158 Q2054.75 96.3751 2054.75 87.8682 L2054.75 63.2387 L2049.28 63.2387 L2049.28 57.4459 L2054.75 57.4459 L2054.75 44.564 L2062.24 44.564 Z" fill="#000000" fill-rule="nonzero" fill-opacity="1" /><path clip-path="url(#clip490)" d="M2126.21 78.2675 L2126.21 81.9133 L2091.94 81.9133 Q2092.42 89.6101 2096.55 93.661 Q2100.73 97.6714 2108.14 97.6714 Q2112.43 97.6714 2116.44 96.6181 Q2120.49 95.5649 2124.46 93.4584 L2124.46 100.507 Q2120.45 102.208 2116.24 103.1 Q2112.03 103.991 2107.69 103.991 Q2096.84 103.991 2090.48 97.6714 Q2084.16 91.3519 2084.16 80.5765 Q2084.16 69.4365 2090.15 62.9146 Q2096.19 56.3521 2106.4 56.3521 Q2115.55 56.3521 2120.86 62.2664 Q2126.21 68.1403 2126.21 78.2675 M2118.75 76.08 Q2118.67 69.9632 2115.31 66.3174 Q2111.99 62.6715 2106.48 62.6715 Q2100.24 62.6715 2096.47 66.1958 Q2092.75 69.7201 2092.18 76.1205 L2118.75 76.08 Z" fill="#000000" fill-rule="nonzero" fill-opacity="1" /><path clip-path="url(#clip490)" d="M2164.73 64.4134 Q2163.47 63.6843 2161.98 63.3602 Q2160.52 62.9956 2158.73 62.9956 Q2152.42 62.9956 2149.01 67.1275 Q2145.65 71.2189 2145.65 78.9157 L2145.65 102.816 L2138.16 102.816 L2138.16 57.4459 L2145.65 57.4459 L2145.65 64.4944 Q2148 60.3625 2151.77 58.3776 Q2155.53 56.3521 2160.92 56.3521 Q2161.69 56.3521 2162.62 56.4737 Q2163.56 56.5547 2164.69 56.7572 L2164.73 64.4134 Z" fill="#000000" fill-rule="nonzero" fill-opacity="1" /><path clip-path="url(#clip490)" d="M2179.76 96.0105 L2179.76 120.073 L2172.26 120.073 L2172.26 57.4459 L2179.76 57.4459 L2179.76 64.3324 Q2182.11 60.2815 2185.67 58.3371 Q2189.28 56.3521 2194.26 56.3521 Q2202.52 56.3521 2207.67 62.9146 Q2212.85 69.4771 2212.85 80.1714 Q2212.85 90.8658 2207.67 97.4283 Q2202.52 103.991 2194.26 103.991 Q2189.28 103.991 2185.67 102.046 Q2182.11 100.061 2179.76 96.0105 M2205.12 80.1714 Q2205.12 71.9481 2201.71 67.2896 Q2198.35 62.5905 2192.44 62.5905 Q2186.52 62.5905 2183.12 67.2896 Q2179.76 71.9481 2179.76 80.1714 Q2179.76 88.3948 2183.12 93.0938 Q2186.52 97.7524 2192.44 97.7524 Q2198.35 97.7524 2201.71 93.0938 Q2205.12 88.3948 2205.12 80.1714 Z" fill="#000000" fill-rule="nonzero" fill-opacity="1" /><path clip-path="url(#clip490)" d="M2242.79 62.6715 Q2236.8 62.6715 2233.31 67.3706 Q2229.83 72.0291 2229.83 80.1714 Q2229.83 88.3138 2233.27 93.0128 Q2236.76 97.6714 2242.79 97.6714 Q2248.75 97.6714 2252.23 92.9723 Q2255.71 88.2733 2255.71 80.1714 Q2255.71 72.1101 2252.23 67.4111 Q2248.75 62.6715 2242.79 62.6715 M2242.79 56.3521 Q2252.51 56.3521 2258.06 62.6715 Q2263.61 68.9909 2263.61 80.1714 Q2263.61 91.3114 2258.06 97.6714 Q2252.51 103.991 2242.79 103.991 Q2233.03 103.991 2227.48 97.6714 Q2221.97 91.3114 2221.97 80.1714 Q2221.97 68.9909 2227.48 62.6715 Q2233.03 56.3521 2242.79 56.3521 Z" fill="#000000" fill-rule="nonzero" fill-opacity="1" /><path clip-path="url(#clip490)" d="M2275.97 39.7839 L2283.42 39.7839 L2283.42 102.816 L2275.97 102.816 L2275.97 39.7839 Z" fill="#000000" fill-rule="nonzero" fill-opacity="1" /><path clip-path="url(#clip490)" d="M2319.64 80.0094 Q2310.6 80.0094 2307.12 82.0754 Q2303.64 84.1413 2303.64 89.1239 Q2303.64 93.0938 2306.23 95.4434 Q2308.86 97.7524 2313.36 97.7524 Q2319.56 97.7524 2323.28 93.3774 Q2327.05 88.9619 2327.05 81.6703 L2327.05 80.0094 L2319.64 80.0094 M2334.5 76.9307 L2334.5 102.816 L2327.05 102.816 L2327.05 95.9295 Q2324.5 100.061 2320.69 102.046 Q2316.88 103.991 2311.37 103.991 Q2304.41 103.991 2300.27 100.102 Q2296.18 96.1725 2296.18 89.6101 Q2296.18 81.9538 2301.29 78.065 Q2306.43 74.1761 2316.6 74.1761 L2327.05 74.1761 L2327.05 73.4469 Q2327.05 68.3023 2323.65 65.5072 Q2320.28 62.6715 2314.17 62.6715 Q2310.28 62.6715 2306.59 63.6032 Q2302.91 64.535 2299.5 66.3984 L2299.5 59.5118 Q2303.6 57.932 2307.44 57.1623 Q2311.29 56.3521 2314.94 56.3521 Q2324.78 56.3521 2329.64 61.4563 Q2334.5 66.5604 2334.5 76.9307 Z" fill="#000000" fill-rule="nonzero" fill-opacity="1" /><path clip-path="url(#clip490)" d="M2357.23 44.564 L2357.23 57.4459 L2372.58 57.4459 L2372.58 63.2387 L2357.23 63.2387 L2357.23 87.8682 Q2357.23 93.4179 2358.73 94.9978 Q2360.27 96.5776 2364.93 96.5776 L2372.58 96.5776 L2372.58 102.816 L2364.93 102.816 Q2356.3 102.816 2353.02 99.6158 Q2349.73 96.3751 2349.73 87.8682 L2349.73 63.2387 L2344.27 63.2387 L2344.27 57.4459 L2349.73 57.4459 L2349.73 44.564 L2357.23 44.564 Z" fill="#000000" fill-rule="nonzero" fill-opacity="1" /><path clip-path="url(#clip490)" d="M2382.39 57.4459 L2389.84 57.4459 L2389.84 102.816 L2382.39 102.816 L2382.39 57.4459 M2382.39 39.7839 L2389.84 39.7839 L2389.84 49.2225 L2382.39 49.2225 L2382.39 39.7839 Z" fill="#000000" fill-rule="nonzero" fill-opacity="1" /><path clip-path="url(#clip490)" d="M2423.02 62.6715 Q2417.02 62.6715 2413.54 67.3706 Q2410.05 72.0291 2410.05 80.1714 Q2410.05 88.3138 2413.5 93.0128 Q2416.98 97.6714 2423.02 97.6714 Q2428.97 97.6714 2432.45 92.9723 Q2435.94 88.2733 2435.94 80.1714 Q2435.94 72.1101 2432.45 67.4111 Q2428.97 62.6715 2423.02 62.6715 M2423.02 56.3521 Q2432.74 56.3521 2438.29 62.6715 Q2443.84 68.9909 2443.84 80.1714 Q2443.84 91.3114 2438.29 97.6714 Q2432.74 103.991 2423.02 103.991 Q2413.25 103.991 2407.7 97.6714 Q2402.19 91.3114 2402.19 80.1714 Q2402.19 68.9909 2407.7 62.6715 Q2413.25 56.3521 2423.02 56.3521 Z" fill="#000000" fill-rule="nonzero" fill-opacity="1" /><path clip-path="url(#clip490)" d="M2493.91 75.4319 L2493.91 102.816 L2486.45 102.816 L2486.45 75.6749 Q2486.45 69.234 2483.94 66.0338 Q2481.43 62.8336 2476.41 62.8336 Q2470.37 62.8336 2466.89 66.6819 Q2463.4 70.5303 2463.4 77.1738 L2463.4 102.816 L2455.91 102.816 L2455.91 57.4459 L2463.4 57.4459 L2463.4 64.4944 Q2466.08 60.403 2469.68 58.3776 Q2473.33 56.3521 2478.07 56.3521 Q2485.89 56.3521 2489.9 61.2132 Q2493.91 66.0338 2493.91 75.4319 Z" fill="#000000" fill-rule="nonzero" fill-opacity="1" /><path clip-path="url(#clip490)" d="M2510.68 92.5267 L2519.22 92.5267 L2519.22 99.4943 L2512.58 112.457 L2507.36 112.457 L2510.68 99.4943 L2510.68 92.5267 Z" fill="#000000" fill-rule="nonzero" fill-opacity="1" /><path clip-path="url(#clip490)" d="M862.931 155.052 L862.931 130.504 L870.385 130.504 L870.385 193.536 L862.931 193.536 L862.931 186.73 Q860.582 190.781 856.977 192.766 Q853.412 194.711 848.389 194.711 Q840.165 194.711 834.98 188.148 Q829.836 181.586 829.836 170.891 Q829.836 160.197 834.98 153.635 Q840.165 147.072 848.389 147.072 Q853.412 147.072 856.977 149.057 Q860.582 151.002 862.931 155.052 M837.532 170.891 Q837.532 179.115 840.895 183.814 Q844.297 188.472 850.212 188.472 Q856.126 188.472 859.529 183.814 Q862.931 179.115 862.931 170.891 Q862.931 162.668 859.529 158.01 Q856.126 153.311 850.212 153.311 Q844.297 153.311 840.895 158.01 Q837.532 162.668 837.532 170.891 Z" fill="#000000" fill-rule="nonzero" fill-opacity="1" /><path clip-path="url(#clip490)" d="M913.082 155.863 L965.014 155.863 L965.014 162.668 L913.082 162.668 L913.082 155.863 M913.082 172.39 L965.014 172.39 L965.014 179.277 L913.082 179.277 L913.082 172.39 Z" fill="#000000" fill-rule="nonzero" fill-opacity="1" /><path clip-path="url(#clip490)" d="M1016.1 186.649 L1044.66 186.649 L1044.66 193.536 L1006.25 193.536 L1006.25 186.649 Q1010.91 181.829 1018.93 173.727 Q1026.99 165.585 1029.06 163.235 Q1032.99 158.82 1034.53 155.782 Q1036.11 152.703 1036.11 149.746 Q1036.11 144.925 1032.7 141.887 Q1029.34 138.849 1023.91 138.849 Q1020.07 138.849 1015.77 140.186 Q1011.52 141.522 1006.66 144.236 L1006.66 135.973 Q1011.6 133.988 1015.89 132.975 Q1020.19 131.962 1023.75 131.962 Q1033.15 131.962 1038.74 136.661 Q1044.33 141.36 1044.33 149.219 Q1044.33 152.946 1042.91 156.308 Q1041.54 159.63 1037.85 164.167 Q1036.84 165.342 1031.41 170.972 Q1025.98 176.563 1016.1 186.649 Z" fill="#000000" fill-rule="nonzero" fill-opacity="1" /><path clip-path="url(#clip490)" d="M1079.33 138.444 Q1073.01 138.444 1069.81 144.682 Q1066.65 150.88 1066.65 163.357 Q1066.65 175.793 1069.81 182.031 Q1073.01 188.229 1079.33 188.229 Q1085.69 188.229 1088.85 182.031 Q1092.05 175.793 1092.05 163.357 Q1092.05 150.88 1088.85 144.682 Q1085.69 138.444 1079.33 138.444 M1079.33 131.962 Q1089.5 131.962 1094.85 140.024 Q1100.23 148.044 1100.23 163.357 Q1100.23 178.629 1094.85 186.69 Q1089.5 194.711 1079.33 194.711 Q1069.16 194.711 1063.78 186.69 Q1058.43 178.629 1058.43 163.357 Q1058.43 148.044 1063.78 140.024 Q1069.16 131.962 1079.33 131.962 Z" fill="#000000" fill-rule="nonzero" fill-opacity="1" /><path clip-path="url(#clip490)" d="M1115.46 183.247 L1124.01 183.247 L1124.01 190.214 L1117.37 203.177 L1112.14 203.177 L1115.46 190.214 L1115.46 183.247 Z" fill="#000000" fill-rule="nonzero" fill-opacity="1" /><path clip-path="url(#clip490)" d="M1188.14 203.663 L1182.1 188.148 L1169.67 210.833 L1160.88 210.833 L1178.46 178.75 L1171.08 159.67 Q1169.1 154.566 1162.86 154.566 L1160.88 154.566 L1160.88 148.166 L1163.71 148.247 Q1174.16 148.53 1176.8 155.295 L1182.79 170.81 L1195.23 148.125 L1204.02 148.125 L1186.44 180.209 L1193.81 199.288 Q1195.79 204.392 1202.03 204.392 L1204.02 204.392 L1204.02 210.793 L1201.18 210.712 Q1190.73 210.428 1188.14 203.663 Z" fill="#000000" fill-rule="nonzero" fill-opacity="1" /><path clip-path="url(#clip490)" d="M1241.57 155.863 L1293.5 155.863 L1293.5 162.668 L1241.57 162.668 L1241.57 155.863 M1241.57 172.39 L1293.5 172.39 L1293.5 179.277 L1241.57 179.277 L1241.57 172.39 Z" fill="#000000" fill-rule="nonzero" fill-opacity="1" /><path clip-path="url(#clip490)" d="M1338.95 186.649 L1352.32 186.649 L1352.32 140.51 L1337.78 143.426 L1337.78 135.973 L1352.24 133.056 L1360.42 133.056 L1360.42 186.649 L1373.79 186.649 L1373.79 193.536 L1338.95 193.536 L1338.95 186.649 Z" fill="#000000" fill-rule="nonzero" fill-opacity="1" /><path clip-path="url(#clip490)" d="M1390.4 133.056 L1422.52 133.056 L1422.52 139.943 L1397.89 139.943 L1397.89 154.769 Q1399.68 154.161 1401.46 153.878 Q1403.24 153.554 1405.02 153.554 Q1415.15 153.554 1421.07 159.103 Q1426.98 164.653 1426.98 174.132 Q1426.98 183.895 1420.9 189.323 Q1414.83 194.711 1403.77 194.711 Q1399.96 194.711 1395.99 194.063 Q1392.06 193.414 1387.85 192.118 L1387.85 183.895 Q1391.49 185.88 1395.38 186.852 Q1399.27 187.824 1403.61 187.824 Q1410.61 187.824 1414.71 184.138 Q1418.8 180.452 1418.8 174.132 Q1418.8 167.813 1414.71 164.126 Q1410.61 160.44 1403.61 160.44 Q1400.32 160.44 1397.04 161.169 Q1393.8 161.898 1390.4 163.438 L1390.4 133.056 Z" fill="#000000" fill-rule="nonzero" fill-opacity="1" /><path clip-path="url(#clip490)" d="M1460.6 138.444 Q1454.28 138.444 1451.08 144.682 Q1447.92 150.88 1447.92 163.357 Q1447.92 175.793 1451.08 182.031 Q1454.28 188.229 1460.6 188.229 Q1466.96 188.229 1470.12 182.031 Q1473.32 175.793 1473.32 163.357 Q1473.32 150.88 1470.12 144.682 Q1466.96 138.444 1460.6 138.444 M1460.6 131.962 Q1470.77 131.962 1476.12 140.024 Q1481.5 148.044 1481.5 163.357 Q1481.5 178.629 1476.12 186.69 Q1470.77 194.711 1460.6 194.711 Q1450.43 194.711 1445.05 186.69 Q1439.7 178.629 1439.7 163.357 Q1439.7 148.044 1445.05 140.024 Q1450.43 131.962 1460.6 131.962 Z" fill="#000000" fill-rule="nonzero" fill-opacity="1" /><path clip-path="url(#clip490)" d="M1496.74 183.247 L1505.28 183.247 L1505.28 190.214 L1498.64 203.177 L1493.41 203.177 L1496.74 190.214 L1496.74 183.247 Z" fill="#000000" fill-rule="nonzero" fill-opacity="1" /><path clip-path="url(#clip490)" d="M1547.9 133.056 L1556.08 133.056 L1556.08 186.649 L1585.53 186.649 L1585.53 193.536 L1547.9 193.536 L1547.9 133.056 Z" fill="#000000" fill-rule="nonzero" fill-opacity="1" /><path clip-path="url(#clip490)" d="M1631.14 168.988 L1631.14 172.633 L1596.87 172.633 Q1597.36 180.33 1601.49 184.381 Q1605.66 188.391 1613.08 188.391 Q1617.37 188.391 1621.38 187.338 Q1625.43 186.285 1629.4 184.178 L1629.4 191.227 Q1625.39 192.928 1621.18 193.82 Q1616.97 194.711 1612.63 194.711 Q1601.78 194.711 1595.42 188.391 Q1589.1 182.072 1589.1 171.297 Q1589.1 160.157 1595.09 153.635 Q1601.13 147.072 1611.34 147.072 Q1620.49 147.072 1625.8 152.986 Q1631.14 158.86 1631.14 168.988 M1623.69 166.8 Q1623.61 160.683 1620.25 157.037 Q1616.93 153.392 1611.42 153.392 Q1605.18 153.392 1601.41 156.916 Q1597.68 160.44 1597.12 166.841 L1623.69 166.8 Z" fill="#000000" fill-rule="nonzero" fill-opacity="1" /><path clip-path="url(#clip490)" d="M1673.23 170.324 Q1673.23 162.223 1669.87 157.767 Q1666.55 153.311 1660.51 153.311 Q1654.52 153.311 1651.16 157.767 Q1647.83 162.223 1647.83 170.324 Q1647.83 178.386 1651.16 182.842 Q1654.52 187.298 1660.51 187.298 Q1666.55 187.298 1669.87 182.842 Q1673.23 178.386 1673.23 170.324 M1680.69 187.905 Q1680.69 199.491 1675.54 205.122 Q1670.4 210.793 1659.78 210.793 Q1655.86 210.793 1652.37 210.185 Q1648.89 209.618 1645.61 208.403 L1645.61 201.152 Q1648.89 202.934 1652.09 203.785 Q1655.29 204.635 1658.61 204.635 Q1665.94 204.635 1669.59 200.787 Q1673.23 196.979 1673.23 189.242 L1673.23 185.556 Q1670.92 189.566 1667.32 191.551 Q1663.71 193.536 1658.69 193.536 Q1650.35 193.536 1645.24 187.176 Q1640.14 180.816 1640.14 170.324 Q1640.14 159.792 1645.24 153.432 Q1650.35 147.072 1658.69 147.072 Q1663.71 147.072 1667.32 149.057 Q1670.92 151.042 1673.23 155.052 L1673.23 148.166 L1680.69 148.166 L1680.69 187.905 Z" fill="#000000" fill-rule="nonzero" fill-opacity="1" /><path clip-path="url(#clip490)" d="M1734.85 168.988 L1734.85 172.633 L1700.58 172.633 Q1701.06 180.33 1705.2 184.381 Q1709.37 188.391 1716.78 188.391 Q1721.08 188.391 1725.09 187.338 Q1729.14 186.285 1733.11 184.178 L1733.11 191.227 Q1729.1 192.928 1724.88 193.82 Q1720.67 194.711 1716.34 194.711 Q1705.48 194.711 1699.12 188.391 Q1692.8 182.072 1692.8 171.297 Q1692.8 160.157 1698.8 153.635 Q1704.83 147.072 1715.04 147.072 Q1724.19 147.072 1729.5 152.986 Q1734.85 158.86 1734.85 168.988 M1727.39 166.8 Q1727.31 160.683 1723.95 157.037 Q1720.63 153.392 1715.12 153.392 Q1708.88 153.392 1705.11 156.916 Q1701.39 160.44 1700.82 166.841 L1727.39 166.8 Z" fill="#000000" fill-rule="nonzero" fill-opacity="1" /><path clip-path="url(#clip490)" d="M1784.8 166.152 L1784.8 193.536 L1777.34 193.536 L1777.34 166.395 Q1777.34 159.954 1774.83 156.754 Q1772.32 153.554 1767.3 153.554 Q1761.26 153.554 1757.78 157.402 Q1754.29 161.25 1754.29 167.894 L1754.29 193.536 L1746.8 193.536 L1746.8 148.166 L1754.29 148.166 L1754.29 155.214 Q1756.97 151.123 1760.57 149.098 Q1764.22 147.072 1768.96 147.072 Q1776.77 147.072 1780.79 151.933 Q1784.8 156.754 1784.8 166.152 Z" fill="#000000" fill-rule="nonzero" fill-opacity="1" /><path clip-path="url(#clip490)" d="M1829.52 155.052 L1829.52 130.504 L1836.97 130.504 L1836.97 193.536 L1829.52 193.536 L1829.52 186.73 Q1827.17 190.781 1823.56 192.766 Q1820 194.711 1814.97 194.711 Q1806.75 194.711 1801.57 188.148 Q1796.42 181.586 1796.42 170.891 Q1796.42 160.197 1801.57 153.635 Q1806.75 147.072 1814.97 147.072 Q1820 147.072 1823.56 149.057 Q1827.17 151.002 1829.52 155.052 M1804.12 170.891 Q1804.12 179.115 1807.48 183.814 Q1810.88 188.472 1816.8 188.472 Q1822.71 188.472 1826.11 183.814 Q1829.52 179.115 1829.52 170.891 Q1829.52 162.668 1826.11 158.01 Q1822.71 153.311 1816.8 153.311 Q1810.88 153.311 1807.48 158.01 Q1804.12 162.668 1804.12 170.891 Z" fill="#000000" fill-rule="nonzero" fill-opacity="1" /><path clip-path="url(#clip490)" d="M1878.61 155.133 Q1877.36 154.404 1875.86 154.08 Q1874.4 153.716 1872.62 153.716 Q1866.3 153.716 1862.9 157.848 Q1859.53 161.939 1859.53 169.636 L1859.53 193.536 L1852.04 193.536 L1852.04 148.166 L1859.53 148.166 L1859.53 155.214 Q1861.88 151.083 1865.65 149.098 Q1869.42 147.072 1874.81 147.072 Q1875.58 147.072 1876.51 147.194 Q1877.44 147.275 1878.57 147.477 L1878.61 155.133 Z" fill="#000000" fill-rule="nonzero" fill-opacity="1" /><path clip-path="url(#clip490)" d="M1923.42 168.988 L1923.42 172.633 L1889.15 172.633 Q1889.63 180.33 1893.77 184.381 Q1897.94 188.391 1905.35 188.391 Q1909.64 188.391 1913.66 187.338 Q1917.71 186.285 1921.68 184.178 L1921.68 191.227 Q1917.67 192.928 1913.45 193.82 Q1909.24 194.711 1904.91 194.711 Q1894.05 194.711 1887.69 188.391 Q1881.37 182.072 1881.37 171.297 Q1881.37 160.157 1887.36 153.635 Q1893.4 147.072 1903.61 147.072 Q1912.76 147.072 1918.07 152.986 Q1923.42 158.86 1923.42 168.988 M1915.96 166.8 Q1915.88 160.683 1912.52 157.037 Q1909.2 153.392 1903.69 153.392 Q1897.45 153.392 1893.68 156.916 Q1889.96 160.44 1889.39 166.841 L1915.96 166.8 Z" fill="#000000" fill-rule="nonzero" fill-opacity="1" /><path clip-path="url(#clip490)" d="M1970.12 207.309 L1970.12 213.102 L1927.02 213.102 L1927.02 207.309 L1970.12 207.309 Z" fill="#000000" fill-rule="nonzero" fill-opacity="1" /><path clip-path="url(#clip490)" d="M1977.46 133.056 L1988.48 133.056 L2015.29 183.652 L2015.29 133.056 L2023.23 133.056 L2023.23 193.536 L2012.21 193.536 L1985.4 142.94 L1985.4 193.536 L1977.46 193.536 L1977.46 133.056 Z" fill="#000000" fill-rule="nonzero" fill-opacity="1" /><path clip-path="url(#clip490)" d="M2056.77 153.392 Q2050.78 153.392 2047.29 158.091 Q2043.81 162.749 2043.81 170.891 Q2043.81 179.034 2047.25 183.733 Q2050.74 188.391 2056.77 188.391 Q2062.73 188.391 2066.21 183.692 Q2069.7 178.993 2069.7 170.891 Q2069.7 162.83 2066.21 158.131 Q2062.73 153.392 2056.77 153.392 M2056.77 147.072 Q2066.5 147.072 2072.05 153.392 Q2077.6 159.711 2077.6 170.891 Q2077.6 182.031 2072.05 188.391 Q2066.5 194.711 2056.77 194.711 Q2047.01 194.711 2041.46 188.391 Q2035.95 182.031 2035.95 170.891 Q2035.95 159.711 2041.46 153.392 Q2047.01 147.072 2056.77 147.072 Z" fill="#000000" fill-rule="nonzero" fill-opacity="1" /><path clip-path="url(#clip490)" d="M2124.42 207.309 L2124.42 213.102 L2081.32 213.102 L2081.32 207.309 L2124.42 207.309 Z" fill="#000000" fill-rule="nonzero" fill-opacity="1" /><path clip-path="url(#clip490)" d="M2131.76 133.056 L2142.77 133.056 L2169.59 183.652 L2169.59 133.056 L2177.53 133.056 L2177.53 193.536 L2166.51 193.536 L2139.7 142.94 L2139.7 193.536 L2131.76 193.536 L2131.76 133.056 Z" fill="#000000" fill-rule="nonzero" fill-opacity="1" /><path clip-path="url(#clip490)" d="M2211.07 153.392 Q2205.08 153.392 2201.59 158.091 Q2198.11 162.749 2198.11 170.891 Q2198.11 179.034 2201.55 183.733 Q2205.04 188.391 2211.07 188.391 Q2217.03 188.391 2220.51 183.692 Q2223.99 178.993 2223.99 170.891 Q2223.99 162.83 2220.51 158.131 Q2217.03 153.392 2211.07 153.392 M2211.07 147.072 Q2220.79 147.072 2226.34 153.392 Q2231.89 159.711 2231.89 170.891 Q2231.89 182.031 2226.34 188.391 Q2220.79 194.711 2211.07 194.711 Q2201.31 194.711 2195.76 188.391 Q2190.25 182.031 2190.25 170.891 Q2190.25 159.711 2195.76 153.392 Q2201.31 147.072 2211.07 147.072 Z" fill="#000000" fill-rule="nonzero" fill-opacity="1" /><path clip-path="url(#clip490)" d="M2270.54 155.133 Q2269.28 154.404 2267.79 154.08 Q2266.33 153.716 2264.54 153.716 Q2258.22 153.716 2254.82 157.848 Q2251.46 161.939 2251.46 169.636 L2251.46 193.536 L2243.97 193.536 L2243.97 148.166 L2251.46 148.166 L2251.46 155.214 Q2253.81 151.083 2257.58 149.098 Q2261.34 147.072 2266.73 147.072 Q2267.5 147.072 2268.43 147.194 Q2269.36 147.275 2270.5 147.477 L2270.54 155.133 Z" fill="#000000" fill-rule="nonzero" fill-opacity="1" /><path clip-path="url(#clip490)" d="M2312.22 156.875 Q2315.02 151.852 2318.91 149.462 Q2322.8 147.072 2328.06 147.072 Q2335.15 147.072 2339 152.055 Q2342.85 156.997 2342.85 166.152 L2342.85 193.536 L2335.35 193.536 L2335.35 166.395 Q2335.35 159.873 2333.05 156.713 Q2330.74 153.554 2326 153.554 Q2320.2 153.554 2316.84 157.402 Q2313.48 161.25 2313.48 167.894 L2313.48 193.536 L2305.99 193.536 L2305.99 166.395 Q2305.99 159.832 2303.68 156.713 Q2301.37 153.554 2296.55 153.554 Q2290.83 153.554 2287.47 157.442 Q2284.11 161.291 2284.11 167.894 L2284.11 193.536 L2276.62 193.536 L2276.62 148.166 L2284.11 148.166 L2284.11 155.214 Q2286.66 151.042 2290.23 149.057 Q2293.79 147.072 2298.69 147.072 Q2303.64 147.072 2307.08 149.584 Q2310.56 152.095 2312.22 156.875 Z" fill="#000000" fill-rule="nonzero" fill-opacity="1" /><path clip-path="url(#clip490)" d="M2422.89 168.988 L2422.89 172.633 L2388.62 172.633 Q2389.11 180.33 2393.24 184.381 Q2397.41 188.391 2404.83 188.391 Q2409.12 188.391 2413.13 187.338 Q2417.18 186.285 2421.15 184.178 L2421.15 191.227 Q2417.14 192.928 2412.93 193.82 Q2408.72 194.711 2404.38 194.711 Q2393.53 194.711 2387.17 188.391 Q2380.85 182.072 2380.85 171.297 Q2380.85 160.157 2386.84 153.635 Q2392.88 147.072 2403.09 147.072 Q2412.24 147.072 2417.55 152.986 Q2422.89 158.86 2422.89 168.988 M2415.44 166.8 Q2415.36 160.683 2412 157.037 Q2408.68 153.392 2403.17 153.392 Q2396.93 153.392 2393.16 156.916 Q2389.43 160.44 2388.87 166.841 L2415.44 166.8 Z" fill="#000000" fill-rule="nonzero" fill-opacity="1" /><path clip-path="url(#clip490)" d="M2472.84 166.152 L2472.84 193.536 L2465.39 193.536 L2465.39 166.395 Q2465.39 159.954 2462.88 156.754 Q2460.37 153.554 2455.34 153.554 Q2449.31 153.554 2445.82 157.402 Q2442.34 161.25 2442.34 167.894 L2442.34 193.536 L2434.84 193.536 L2434.84 148.166 L2442.34 148.166 L2442.34 155.214 Q2445.01 151.123 2448.62 149.098 Q2452.26 147.072 2457 147.072 Q2464.82 147.072 2468.83 151.933 Q2472.84 156.754 2472.84 166.152 Z" fill="#000000" fill-rule="nonzero" fill-opacity="1" /><path clip-path="url(#clip490)" d="M2520.36 149.908 L2520.36 156.875 Q2517.2 155.133 2514 154.283 Q2510.84 153.392 2507.6 153.392 Q2500.35 153.392 2496.34 158.01 Q2492.33 162.587 2492.33 170.891 Q2492.33 179.196 2496.34 183.814 Q2500.35 188.391 2507.6 188.391 Q2510.84 188.391 2514 187.541 Q2517.2 186.649 2520.36 184.908 L2520.36 191.794 Q2517.24 193.252 2513.88 193.982 Q2510.56 194.711 2506.79 194.711 Q2496.54 194.711 2490.5 188.27 Q2484.47 181.829 2484.47 170.891 Q2484.47 159.792 2490.54 153.432 Q2496.66 147.072 2507.27 147.072 Q2510.72 147.072 2514 147.801 Q2517.28 148.49 2520.36 149.908 Z" fill="#000000" fill-rule="nonzero" fill-opacity="1" /><path clip-path="url(#clip490)" d="M2550.9 153.392 Q2544.91 153.392 2541.42 158.091 Q2537.94 162.749 2537.94 170.891 Q2537.94 179.034 2541.38 183.733 Q2544.87 188.391 2550.9 188.391 Q2556.86 188.391 2560.34 183.692 Q2563.83 178.993 2563.83 170.891 Q2563.83 162.83 2560.34 158.131 Q2556.86 153.392 2550.9 153.392 M2550.9 147.072 Q2560.62 147.072 2566.17 153.392 Q2571.72 159.711 2571.72 170.891 Q2571.72 182.031 2566.17 188.391 Q2560.62 194.711 2550.9 194.711 Q2541.14 194.711 2535.59 188.391 Q2530.08 182.031 2530.08 170.891 Q2530.08 159.711 2535.59 153.392 Q2541.14 147.072 2550.9 147.072 Z" fill="#000000" fill-rule="nonzero" fill-opacity="1" /><path clip-path="url(#clip490)" d="M2613.93 155.052 L2613.93 130.504 L2621.39 130.504 L2621.39 193.536 L2613.93 193.536 L2613.93 186.73 Q2611.59 190.781 2607.98 192.766 Q2604.42 194.711 2599.39 194.711 Q2591.17 194.711 2585.98 188.148 Q2580.84 181.586 2580.84 170.891 Q2580.84 160.197 2585.98 153.635 Q2591.17 147.072 2599.39 147.072 Q2604.42 147.072 2607.98 149.057 Q2611.59 151.002 2613.93 155.052 M2588.54 170.891 Q2588.54 179.115 2591.9 183.814 Q2595.3 188.472 2601.21 188.472 Q2607.13 188.472 2610.53 183.814 Q2613.93 179.115 2613.93 170.891 Q2613.93 162.668 2610.53 158.01 Q2607.13 153.311 2601.21 153.311 Q2595.3 153.311 2591.9 158.01 Q2588.54 162.668 2588.54 170.891 Z" fill="#000000" fill-rule="nonzero" fill-opacity="1" /><path clip-path="url(#clip490)" d="M2636.74 148.166 L2644.2 148.166 L2644.2 193.536 L2636.74 193.536 L2636.74 148.166 M2636.74 130.504 L2644.2 130.504 L2644.2 139.943 L2636.74 139.943 L2636.74 130.504 Z" fill="#000000" fill-rule="nonzero" fill-opacity="1" /><path clip-path="url(#clip490)" d="M2697.5 166.152 L2697.5 193.536 L2690.05 193.536 L2690.05 166.395 Q2690.05 159.954 2687.54 156.754 Q2685.03 153.554 2680.01 153.554 Q2673.97 153.554 2670.49 157.402 Q2667 161.25 2667 167.894 L2667 193.536 L2659.51 193.536 L2659.51 148.166 L2667 148.166 L2667 155.214 Q2669.68 151.123 2673.28 149.098 Q2676.93 147.072 2681.67 147.072 Q2689.48 147.072 2693.49 151.933 Q2697.5 156.754 2697.5 166.152 Z" fill="#000000" fill-rule="nonzero" fill-opacity="1" /><path clip-path="url(#clip490)" d="M2742.23 170.324 Q2742.23 162.223 2738.86 157.767 Q2735.54 153.311 2729.51 153.311 Q2723.51 153.311 2720.15 157.767 Q2716.83 162.223 2716.83 170.324 Q2716.83 178.386 2720.15 182.842 Q2723.51 187.298 2729.51 187.298 Q2735.54 187.298 2738.86 182.842 Q2742.23 178.386 2742.23 170.324 M2749.68 187.905 Q2749.68 199.491 2744.54 205.122 Q2739.39 210.793 2728.78 210.793 Q2724.85 210.793 2721.36 210.185 Q2717.88 209.618 2714.6 208.403 L2714.6 201.152 Q2717.88 202.934 2721.08 203.785 Q2724.28 204.635 2727.6 204.635 Q2734.94 204.635 2738.58 200.787 Q2742.23 196.979 2742.23 189.242 L2742.23 185.556 Q2739.92 189.566 2736.31 191.551 Q2732.71 193.536 2727.68 193.536 Q2719.34 193.536 2714.24 187.176 Q2709.13 180.816 2709.13 170.324 Q2709.13 159.792 2714.24 153.432 Q2719.34 147.072 2727.68 147.072 Q2732.71 147.072 2736.31 149.057 Q2739.92 151.042 2742.23 155.052 L2742.23 148.166 L2749.68 148.166 L2749.68 187.905 Z" fill="#000000" fill-rule="nonzero" fill-opacity="1" /><path clip-path="url(#clip490)" d="M2766.94 183.247 L2775.48 183.247 L2775.48 190.214 L2768.84 203.177 L2763.62 203.177 L2766.94 190.214 L2766.94 183.247 Z" fill="#000000" fill-rule="nonzero" fill-opacity="1" /><path clip-path="url(#clip490)" d="M1274.65 223.776 L1286.84 223.776 L1302.27 264.933 L1317.79 223.776 L1329.98 223.776 L1329.98 284.256 L1322 284.256 L1322 231.149 L1306.4 272.63 L1298.18 272.63 L1282.58 231.149 L1282.58 284.256 L1274.65 284.256 L1274.65 223.776 Z" fill="#000000" fill-rule="nonzero" fill-opacity="1" /><path clip-path="url(#clip490)" d="M1384.71 259.708 L1384.71 263.353 L1350.44 263.353 Q1350.92 271.05 1355.06 275.101 Q1359.23 279.111 1366.64 279.111 Q1370.94 279.111 1374.95 278.058 Q1379 277.005 1382.97 274.898 L1382.97 281.947 Q1378.96 283.648 1374.74 284.54 Q1370.53 285.431 1366.2 285.431 Q1355.34 285.431 1348.98 279.111 Q1342.66 272.792 1342.66 262.017 Q1342.66 250.877 1348.66 244.355 Q1354.69 237.792 1364.9 237.792 Q1374.05 237.792 1379.36 243.706 Q1384.71 249.58 1384.71 259.708 M1377.25 257.52 Q1377.17 251.403 1373.81 247.757 Q1370.49 244.112 1364.98 244.112 Q1358.74 244.112 1354.97 247.636 Q1351.25 251.16 1350.68 257.561 L1377.25 257.52 Z" fill="#000000" fill-rule="nonzero" fill-opacity="1" /><path clip-path="url(#clip490)" d="M1426.8 245.772 L1426.8 221.224 L1434.25 221.224 L1434.25 284.256 L1426.8 284.256 L1426.8 277.45 Q1424.45 281.501 1420.84 283.486 Q1417.28 285.431 1412.25 285.431 Q1404.03 285.431 1398.85 278.868 Q1393.7 272.306 1393.7 261.611 Q1393.7 250.917 1398.85 244.355 Q1404.03 237.792 1412.25 237.792 Q1417.28 237.792 1420.84 239.777 Q1424.45 241.722 1426.8 245.772 M1401.4 261.611 Q1401.4 269.835 1404.76 274.534 Q1408.16 279.192 1414.08 279.192 Q1419.99 279.192 1423.39 274.534 Q1426.8 269.835 1426.8 261.611 Q1426.8 253.388 1423.39 248.73 Q1419.99 244.031 1414.08 244.031 Q1408.16 244.031 1404.76 248.73 Q1401.4 253.388 1401.4 261.611 Z" fill="#000000" fill-rule="nonzero" fill-opacity="1" /><path clip-path="url(#clip490)" d="M1449.6 238.886 L1457.06 238.886 L1457.06 284.256 L1449.6 284.256 L1449.6 238.886 M1449.6 221.224 L1457.06 221.224 L1457.06 230.663 L1449.6 230.663 L1449.6 221.224 Z" fill="#000000" fill-rule="nonzero" fill-opacity="1" /><path clip-path="url(#clip490)" d="M1493.27 261.449 Q1484.24 261.449 1480.76 263.515 Q1477.27 265.581 1477.27 270.564 Q1477.27 274.534 1479.86 276.883 Q1482.5 279.192 1486.99 279.192 Q1493.19 279.192 1496.92 274.817 Q1500.69 270.402 1500.69 263.11 L1500.69 261.449 L1493.27 261.449 M1508.14 258.371 L1508.14 284.256 L1500.69 284.256 L1500.69 277.369 Q1498.13 281.501 1494.33 283.486 Q1490.52 285.431 1485.01 285.431 Q1478.04 285.431 1473.91 281.542 Q1469.82 277.613 1469.82 271.05 Q1469.82 263.394 1474.92 259.505 Q1480.07 255.616 1490.23 255.616 L1500.69 255.616 L1500.69 254.887 Q1500.69 249.742 1497.28 246.947 Q1493.92 244.112 1487.8 244.112 Q1483.91 244.112 1480.23 245.043 Q1476.54 245.975 1473.14 247.838 L1473.14 240.952 Q1477.23 239.372 1481.08 238.602 Q1484.93 237.792 1488.57 237.792 Q1498.42 237.792 1503.28 242.896 Q1508.14 248 1508.14 258.371 Z" fill="#000000" fill-rule="nonzero" fill-opacity="1" /><path clip-path="url(#clip490)" d="M1561.21 256.872 L1561.21 284.256 L1553.75 284.256 L1553.75 257.115 Q1553.75 250.674 1551.24 247.474 Q1548.73 244.274 1543.71 244.274 Q1537.67 244.274 1534.19 248.122 Q1530.7 251.97 1530.7 258.614 L1530.7 284.256 L1523.21 284.256 L1523.21 238.886 L1530.7 238.886 L1530.7 245.934 Q1533.38 241.843 1536.98 239.818 Q1540.63 237.792 1545.37 237.792 Q1553.19 237.792 1557.2 242.653 Q1561.21 247.474 1561.21 256.872 Z" fill="#000000" fill-rule="nonzero" fill-opacity="1" /><path clip-path="url(#clip490)" d="M1577.98 273.967 L1586.52 273.967 L1586.52 280.934 L1579.88 293.897 L1574.66 293.897 L1577.98 280.934 L1577.98 273.967 Z" fill="#000000" fill-rule="nonzero" fill-opacity="1" /><path clip-path="url(#clip490)" d="M1659.16 232.242 L1659.16 254.806 L1681.72 254.806 L1681.72 261.692 L1659.16 261.692 L1659.16 284.256 L1652.35 284.256 L1652.35 261.692 L1629.79 261.692 L1629.79 254.806 L1652.35 254.806 L1652.35 232.242 L1659.16 232.242 Z" fill="#000000" fill-rule="nonzero" fill-opacity="1" /><path clip-path="url(#clip490)" d="M1711.58 223.776 L1718.46 223.776 L1697.4 291.953 L1690.51 291.953 L1711.58 223.776 Z" fill="#000000" fill-rule="nonzero" fill-opacity="1" /><path clip-path="url(#clip490)" d="M1722.51 258.209 L1744.35 258.209 L1744.35 264.852 L1722.51 264.852 L1722.51 258.209 Z" fill="#000000" fill-rule="nonzero" fill-opacity="1" /><path clip-path="url(#clip490)" d="M1777.52 223.776 L1785.79 223.776 L1798.51 274.898 L1811.19 223.776 L1820.38 223.776 L1833.1 274.898 L1845.78 223.776 L1854.09 223.776 L1838.9 284.256 L1828.61 284.256 L1815.85 231.756 L1802.96 284.256 L1792.67 284.256 L1777.52 223.776 Z" fill="#000000" fill-rule="nonzero" fill-opacity="1" /><path clip-path="url(#clip490)" d="M1864.94 223.776 L1877.14 223.776 L1892.57 264.933 L1908.09 223.776 L1920.28 223.776 L1920.28 284.256 L1912.3 284.256 L1912.3 231.149 L1896.7 272.63 L1888.48 272.63 L1872.88 231.149 L1872.88 284.256 L1864.94 284.256 L1864.94 223.776 Z" fill="#000000" fill-rule="nonzero" fill-opacity="1" /><path clip-path="url(#clip490)" d="M1956.74 231.837 L1945.64 261.936 L1967.88 261.936 L1956.74 231.837 M1952.12 223.776 L1961.39 223.776 L1984.44 284.256 L1975.94 284.256 L1970.43 268.741 L1943.17 268.741 L1937.66 284.256 L1929.03 284.256 L1952.12 223.776 Z" fill="#000000" fill-rule="nonzero" fill-opacity="1" /><path clip-path="url(#clip490)" d="M2001.46 230.501 L2001.46 277.531 L2011.34 277.531 Q2023.86 277.531 2029.65 271.86 Q2035.49 266.189 2035.49 253.955 Q2035.49 241.803 2029.65 236.172 Q2023.86 230.501 2011.34 230.501 L2001.46 230.501 M1993.28 223.776 L2010.09 223.776 Q2027.67 223.776 2035.89 231.108 Q2044.11 238.4 2044.11 253.955 Q2044.11 269.592 2035.85 276.924 Q2027.59 284.256 2010.09 284.256 L1993.28 284.256 L1993.28 223.776 Z" fill="#000000" fill-rule="nonzero" fill-opacity="1" /><polyline clip-path="url(#clip492)" style="stroke:#000000; stroke-linecap:round; stroke-linejoin:round; stroke-width:8; stroke-opacity:1; fill:none" stroke-dasharray="4, 8" points="334.635,1721.25 361.397,1662.06 388.16,1597.71 414.922,1571.03 441.685,1500.03 468.447,1453.49 495.21,1400.95 521.972,1354.39 548.735,1312.96 575.497,1287.31 602.26,1219.01 629.022,1133.95 655.785,1131.57 682.547,1017.08 709.31,1080.46 736.073,1048.59 762.835,1074.83 789.598,1090.05 816.36,1078.83 843.123,1101.92 869.885,1136.29 896.648,1138.01 923.41,1230.29 950.173,1324.33 976.935,1285.27 1003.7,1384.96 1030.46,1377.4 "/>
<polyline clip-path="url(#clip492)" style="stroke:#000000; stroke-linecap:round; stroke-linejoin:round; stroke-width:8; stroke-opacity:1; fill:none" stroke-dasharray="4, 8" points="2261.54,1148.34 2288.3,1169.18 2315.06,1120.99 2341.82,1163.97 2368.59,1122.25 2395.35,1111.59 2422.11,1024.88 2448.87,982.031 2475.64,999.636 2502.4,921.077 2529.16,883.782 2555.92,823.172 2582.69,778.887 2609.45,647.391 2636.21,607.762 2662.97,598.382 2689.74,576.246 2716.5,463.611 2743.26,514.221 2770.02,382.658 2796.79,400.277 2823.55,318.187 2850.31,325.221 2877.07,329.119 2903.84,380.635 2930.6,304.565 2957.36,363.158 2984.12,361.719 "/>
<polyline clip-path="url(#clip492)" style="stroke:#000000; stroke-linecap:round; stroke-linejoin:round; stroke-width:8; stroke-opacity:0.3; fill:none" points="1057.22,1447.09 1083.99,1488.64 1110.75,1445.68 1137.51,1461.65 1164.27,1473.61 1191.04,1578.53 1217.8,1547.9 1244.56,1577.03 1271.32,1507.16 1298.09,1519.96 1324.85,1495.81 1351.61,1415.14 1378.37,1389.02 1405.14,1325.92 1431.9,1301.17 1458.66,1256.8 1485.42,1172.03 1512.19,1172.47 1538.95,1102.42 1565.71,1056.9 1592.47,994.369 1619.24,912.407 1646,864.512 1672.76,850.495 1699.52,760.985 1726.29,739.666 1753.05,764.136 1779.81,752.489 1806.57,671.805 1833.34,762.264 1860.1,673.134 1886.86,773.919 1913.62,756.376 1940.39,760.092 1967.15,767.918 1993.91,846.652 2020.67,875.723 2047.44,959.118 2074.2,992.697 2100.96,1020.22 2127.72,1008.44 2154.49,1017.1 2181.25,1100.88 2208.01,1167.77 2234.77,1125.44 "/>
<path clip-path="url(#clip492)" d="M1057.22 1469.53 L1083.99 1500.88 L1110.75 1501.95 L1137.51 1532.18 L1164.27 1566.07 L1191.04 1600.34 L1217.8 1595.82 L1244.56 1588.9 L1271.32 1574.09 L1298.09 1573.97 L1324.85 1515.22 L1351.61 1493.41 L1378.37 1459.66 L1405.14 1414.6 L1431.9 1348.69 L1458.66 1307.86 L1485.42 1247.75 L1512.19 1210.81 L1538.95 1130.31 L1565.71 1072.78 L1592.47 1012.52 L1619.24 975.513 L1646 900.08 L1672.76 893.055 L1699.52 818.586 L1726.29 793.153 L1753.05 766.633 L1779.81 768.552 L1806.57 729.115 L1833.34 753.011 L1860.1 745.713 L1886.86 780.834 L1913.62 781.389 L1940.39 826.357 L1967.15 865.228 L1993.91 921.211 L2020.67 922.136 L2047.44 981.823 L2074.2 1043.7 L2100.96 1063.83 L2127.72 1070.4 L2154.49 1101.89 L2181.25 1156.69 L2208.01 1208.82 L2234.77 1225.19 L2234.77 1116.71 L2208.01 1099.59 L2181.25 1049.19 L2154.49 1000.73 L2127.72 969.797 L2100.96 963.209 L2074.2 941.585 L2047.44 879.836 L2020.67 826.754 L1993.91 825.155 L1967.15 772.054 L1940.39 732.961 L1913.62 690.874 L1886.86 690.808 L1860.1 660.522 L1833.34 667.383 L1806.57 646.62 L1779.81 680.52 L1753.05 678.875 L1726.29 700.358 L1699.52 725.191 L1672.76 800.561 L1646 807.134 L1619.24 874.03 L1592.47 908.88 L1565.71 971.804 L1538.95 1025.54 L1512.19 1101.79 L1485.42 1140.79 L1458.66 1200.31 L1431.9 1237.57 L1405.14 1301.77 L1378.37 1349.72 L1351.61 1384.9 L1324.85 1405.14 L1298.09 1459.55 L1271.32 1459.94 L1244.56 1474.59 L1217.8 1481.33 L1191.04 1485.78 L1164.27 1452.14 L1137.51 1420.66 L1110.75 1393.02 L1083.99 1391.93 L1057.22 1360.53  Z" fill="#ff0000" fill-rule="evenodd" fill-opacity="0.15"/>
<polyline clip-path="url(#clip492)" style="stroke:#ff0000; stroke-linecap:round; stroke-linejoin:round; stroke-width:8; stroke-opacity:0.8; fill:none" points="1057.22,1415.03 1083.99,1446.4 1110.75,1447.48 1137.51,1476.42 1164.27,1509.11 1191.04,1543.06 1217.8,1538.57 1244.56,1531.75 1271.32,1517.02 1298.09,1516.76 1324.85,1460.18 1351.61,1439.15 1378.37,1404.69 1405.14,1358.19 1431.9,1293.13 1458.66,1254.09 1485.42,1194.27 1512.19,1156.3 1538.95,1077.92 1565.71,1022.29 1592.47,960.699 1619.24,924.771 1646,853.607 1672.76,846.808 1699.52,771.889 1726.29,746.755 1753.05,722.754 1779.81,724.536 1806.57,687.867 1833.34,710.197 1860.1,703.118 1886.86,735.821 1913.62,736.131 1940.39,779.659 1967.15,818.641 1993.91,873.183 2020.67,874.445 2047.44,930.829 2074.2,992.641 2100.96,1013.52 2127.72,1020.1 2154.49,1051.31 2181.25,1102.94 2208.01,1154.21 2234.77,1170.95 "/>
<path clip-path="url(#clip490)" d="M3186.86 519.48 L3952.76 519.48 L3952.76 312.12 L3186.86 312.12  Z" fill="#ffffff" fill-rule="evenodd" fill-opacity="1"/>
<polyline clip-path="url(#clip490)" style="stroke:#000000; stroke-linecap:round; stroke-linejoin:round; stroke-width:4; stroke-opacity:1; fill:none" points="3186.86,519.48 3952.76,519.48 3952.76,312.12 3186.86,312.12 3186.86,519.48 "/>
<polyline clip-path="url(#clip490)" style="stroke:#000000; stroke-linecap:round; stroke-linejoin:round; stroke-width:8; stroke-opacity:1; fill:none" stroke-dasharray="4, 8" points="3227.95,363.96 3474.45,363.96 "/>
<path clip-path="url(#clip490)" d="M3531.56 349.852 Q3526.47 349.852 3523.46 353.648 Q3520.47 357.444 3520.47 363.995 Q3520.47 370.523 3523.46 374.319 Q3526.47 378.115 3531.56 378.115 Q3536.65 378.115 3539.61 374.319 Q3542.6 370.523 3542.6 363.995 Q3542.6 357.444 3539.61 353.648 Q3536.65 349.852 3531.56 349.852 M3531.56 346.055 Q3538.83 346.055 3543.18 350.94 Q3547.53 355.801 3547.53 363.995 Q3547.53 372.166 3543.18 377.051 Q3538.83 381.912 3531.56 381.912 Q3524.27 381.912 3519.89 377.051 Q3515.54 372.189 3515.54 363.995 Q3515.54 355.801 3519.89 350.94 Q3524.27 346.055 3531.56 346.055 Z" fill="#000000" fill-rule="nonzero" fill-opacity="1" /><path clip-path="url(#clip490)" d="M3573.27 368.301 Q3573.27 363.602 3571.33 360.94 Q3569.4 358.254 3566.03 358.254 Q3562.65 358.254 3560.7 360.94 Q3558.78 363.602 3558.78 368.301 Q3558.78 373 3560.7 375.685 Q3562.65 378.347 3566.03 378.347 Q3569.4 378.347 3571.33 375.685 Q3573.27 373 3573.27 368.301 M3558.78 359.25 Q3560.12 356.935 3562.16 355.824 Q3564.22 354.69 3567.07 354.69 Q3571.79 354.69 3574.73 358.44 Q3577.69 362.19 3577.69 368.301 Q3577.69 374.412 3574.73 378.162 Q3571.79 381.912 3567.07 381.912 Q3564.22 381.912 3562.16 380.801 Q3560.12 379.666 3558.78 377.351 L3558.78 381.24 L3554.5 381.24 L3554.5 345.222 L3558.78 345.222 L3558.78 359.25 Z" fill="#000000" fill-rule="nonzero" fill-opacity="1" /><path clip-path="url(#clip490)" d="M3601.28 356.078 L3601.28 360.106 Q3599.47 359.18 3597.53 358.717 Q3595.59 358.254 3593.5 358.254 Q3590.33 358.254 3588.73 359.227 Q3587.16 360.199 3587.16 362.143 Q3587.16 363.625 3588.29 364.481 Q3589.43 365.315 3592.85 366.078 L3594.31 366.402 Q3598.85 367.375 3600.75 369.157 Q3602.67 370.916 3602.67 374.088 Q3602.67 377.699 3599.8 379.805 Q3596.95 381.912 3591.95 381.912 Q3589.87 381.912 3587.6 381.495 Q3585.35 381.101 3582.85 380.291 L3582.85 375.893 Q3585.21 377.12 3587.51 377.745 Q3589.8 378.347 3592.04 378.347 Q3595.05 378.347 3596.67 377.328 Q3598.29 376.287 3598.29 374.412 Q3598.29 372.676 3597.11 371.75 Q3595.96 370.824 3592 369.967 L3590.52 369.62 Q3586.56 368.787 3584.8 367.074 Q3583.04 365.338 3583.04 362.328 Q3583.04 358.671 3585.63 356.68 Q3588.22 354.69 3592.99 354.69 Q3595.35 354.69 3597.44 355.037 Q3599.52 355.384 3601.28 356.078 Z" fill="#000000" fill-rule="nonzero" fill-opacity="1" /><path clip-path="url(#clip490)" d="M3631.63 367.213 L3631.63 369.296 L3612.04 369.296 Q3612.32 373.694 3614.68 376.009 Q3617.07 378.301 3621.3 378.301 Q3623.76 378.301 3626.05 377.699 Q3628.36 377.097 3630.63 375.893 L3630.63 379.921 Q3628.34 380.893 3625.93 381.402 Q3623.52 381.912 3621.05 381.912 Q3614.84 381.912 3611.21 378.301 Q3607.6 374.689 3607.6 368.532 Q3607.6 362.166 3611.02 358.44 Q3614.47 354.69 3620.31 354.69 Q3625.54 354.69 3628.57 358.069 Q3631.63 361.426 3631.63 367.213 M3627.37 365.963 Q3627.32 362.467 3625.4 360.384 Q3623.5 358.301 3620.35 358.301 Q3616.79 358.301 3614.64 360.315 Q3612.51 362.328 3612.18 365.986 L3627.37 365.963 Z" fill="#000000" fill-rule="nonzero" fill-opacity="1" /><path clip-path="url(#clip490)" d="M3653.64 359.296 Q3652.92 358.879 3652.07 358.694 Q3651.23 358.486 3650.21 358.486 Q3646.6 358.486 3644.66 360.847 Q3642.74 363.185 3642.74 367.583 L3642.74 381.24 L3638.46 381.24 L3638.46 355.315 L3642.74 355.315 L3642.74 359.342 Q3644.08 356.981 3646.23 355.847 Q3648.39 354.69 3651.46 354.69 Q3651.9 354.69 3652.44 354.759 Q3652.97 354.805 3653.62 354.921 L3653.64 359.296 Z" fill="#000000" fill-rule="nonzero" fill-opacity="1" /><path clip-path="url(#clip490)" d="M3655.05 355.315 L3659.57 355.315 L3667.67 377.074 L3675.77 355.315 L3680.28 355.315 L3670.56 381.24 L3664.77 381.24 L3655.05 355.315 Z" fill="#000000" fill-rule="nonzero" fill-opacity="1" /><path clip-path="url(#clip490)" d="M3708.34 367.213 L3708.34 369.296 L3688.76 369.296 Q3689.03 373.694 3691.39 376.009 Q3693.78 378.301 3698.02 378.301 Q3700.47 378.301 3702.76 377.699 Q3705.08 377.097 3707.34 375.893 L3707.34 379.921 Q3705.05 380.893 3702.64 381.402 Q3700.24 381.912 3697.76 381.912 Q3691.56 381.912 3687.92 378.301 Q3684.31 374.689 3684.31 368.532 Q3684.31 362.166 3687.74 358.44 Q3691.19 354.69 3697.02 354.69 Q3702.25 354.69 3705.28 358.069 Q3708.34 361.426 3708.34 367.213 M3704.08 365.963 Q3704.03 362.467 3702.11 360.384 Q3700.21 358.301 3697.07 358.301 Q3693.5 358.301 3691.35 360.315 Q3689.22 362.328 3688.89 365.986 L3704.08 365.963 Z" fill="#000000" fill-rule="nonzero" fill-opacity="1" /><path clip-path="url(#clip490)" d="M3732.39 359.25 L3732.39 345.222 L3736.65 345.222 L3736.65 381.24 L3732.39 381.24 L3732.39 377.351 Q3731.05 379.666 3728.99 380.801 Q3726.95 381.912 3724.08 381.912 Q3719.38 381.912 3716.42 378.162 Q3713.48 374.412 3713.48 368.301 Q3713.48 362.19 3716.42 358.44 Q3719.38 354.69 3724.08 354.69 Q3726.95 354.69 3728.99 355.824 Q3731.05 356.935 3732.39 359.25 M3717.88 368.301 Q3717.88 373 3719.8 375.685 Q3721.74 378.347 3725.12 378.347 Q3728.5 378.347 3730.45 375.685 Q3732.39 373 3732.39 368.301 Q3732.39 363.602 3730.45 360.94 Q3728.5 358.254 3725.12 358.254 Q3721.74 358.254 3719.8 360.94 Q3717.88 363.602 3717.88 368.301 Z" fill="#000000" fill-rule="nonzero" fill-opacity="1" /><polyline clip-path="url(#clip490)" style="stroke:#000000; stroke-linecap:round; stroke-linejoin:round; stroke-width:8; stroke-opacity:0.3; fill:none" points="3227.95,415.8 3474.45,415.8 "/>
<path clip-path="url(#clip490)" d="M3541.09 428.15 L3541.09 418.867 L3533.46 418.867 L3533.46 415.025 L3545.72 415.025 L3545.72 429.863 Q3543.02 431.784 3539.75 432.779 Q3536.49 433.752 3532.78 433.752 Q3524.68 433.752 3520.1 429.029 Q3515.54 424.284 3515.54 415.835 Q3515.54 407.363 3520.1 402.641 Q3524.68 397.895 3532.78 397.895 Q3536.16 397.895 3539.2 398.729 Q3542.25 399.562 3544.82 401.182 L3544.82 406.159 Q3542.23 403.96 3539.31 402.849 Q3536.4 401.738 3533.18 401.738 Q3526.84 401.738 3523.64 405.28 Q3520.47 408.821 3520.47 415.835 Q3520.47 422.826 3523.64 426.367 Q3526.84 429.909 3533.18 429.909 Q3535.65 429.909 3537.6 429.492 Q3539.54 429.053 3541.09 428.15 Z" fill="#000000" fill-rule="nonzero" fill-opacity="1" /><path clip-path="url(#clip490)" d="M3569.1 411.136 Q3568.39 410.719 3567.53 410.534 Q3566.7 410.326 3565.68 410.326 Q3562.07 410.326 3560.12 412.687 Q3558.2 415.025 3558.2 419.423 L3558.2 433.08 L3553.92 433.08 L3553.92 407.155 L3558.2 407.155 L3558.2 411.182 Q3559.54 408.821 3561.7 407.687 Q3563.85 406.53 3566.93 406.53 Q3567.37 406.53 3567.9 406.599 Q3568.43 406.645 3569.08 406.761 L3569.1 411.136 Z" fill="#000000" fill-rule="nonzero" fill-opacity="1" /><path clip-path="url(#clip490)" d="M3582.58 410.141 Q3579.15 410.141 3577.16 412.826 Q3575.17 415.488 3575.17 420.141 Q3575.17 424.793 3577.14 427.479 Q3579.13 430.141 3582.58 430.141 Q3585.98 430.141 3587.97 427.455 Q3589.96 424.77 3589.96 420.141 Q3589.96 415.534 3587.97 412.849 Q3585.98 410.141 3582.58 410.141 M3582.58 406.53 Q3588.13 406.53 3591.3 410.141 Q3594.47 413.752 3594.47 420.141 Q3594.47 426.506 3591.3 430.141 Q3588.13 433.752 3582.58 433.752 Q3577 433.752 3573.83 430.141 Q3570.68 426.506 3570.68 420.141 Q3570.68 413.752 3573.83 410.141 Q3577 406.53 3582.58 406.53 Z" fill="#000000" fill-rule="nonzero" fill-opacity="1" /><path clip-path="url(#clip490)" d="M3601.09 422.849 L3601.09 407.155 L3605.35 407.155 L3605.35 422.687 Q3605.35 426.367 3606.79 428.219 Q3608.22 430.048 3611.09 430.048 Q3614.54 430.048 3616.53 427.849 Q3618.55 425.65 3618.55 421.854 L3618.55 407.155 L3622.81 407.155 L3622.81 433.08 L3618.55 433.08 L3618.55 429.099 Q3617 431.46 3614.94 432.617 Q3612.9 433.752 3610.19 433.752 Q3605.72 433.752 3603.41 430.974 Q3601.09 428.196 3601.09 422.849 M3611.81 406.53 L3611.81 406.53 Z" fill="#000000" fill-rule="nonzero" fill-opacity="1" /><path clip-path="url(#clip490)" d="M3653.13 417.432 L3653.13 433.08 L3648.87 433.08 L3648.87 417.571 Q3648.87 413.891 3647.44 412.062 Q3646 410.233 3643.13 410.233 Q3639.68 410.233 3637.69 412.432 Q3635.7 414.631 3635.7 418.428 L3635.7 433.08 L3631.42 433.08 L3631.42 407.155 L3635.7 407.155 L3635.7 411.182 Q3637.23 408.844 3639.29 407.687 Q3641.37 406.53 3644.08 406.53 Q3648.55 406.53 3650.84 409.307 Q3653.13 412.062 3653.13 417.432 Z" fill="#000000" fill-rule="nonzero" fill-opacity="1" /><path clip-path="url(#clip490)" d="M3678.69 411.09 L3678.69 397.062 L3682.95 397.062 L3682.95 433.08 L3678.69 433.08 L3678.69 429.191 Q3677.34 431.506 3675.28 432.641 Q3673.25 433.752 3670.38 433.752 Q3665.68 433.752 3662.71 430.002 Q3659.77 426.252 3659.77 420.141 Q3659.77 414.03 3662.71 410.28 Q3665.68 406.53 3670.38 406.53 Q3673.25 406.53 3675.28 407.664 Q3677.34 408.775 3678.69 411.09 M3664.17 420.141 Q3664.17 424.84 3666.09 427.525 Q3668.04 430.187 3671.42 430.187 Q3674.8 430.187 3676.74 427.525 Q3678.69 424.84 3678.69 420.141 Q3678.69 415.442 3676.74 412.78 Q3674.8 410.094 3671.42 410.094 Q3668.04 410.094 3666.09 412.78 Q3664.17 415.442 3664.17 420.141 Z" fill="#000000" fill-rule="nonzero" fill-opacity="1" /><path clip-path="url(#clip490)" d="M3711 399.794 L3711 407.155 L3719.77 407.155 L3719.77 410.465 L3711 410.465 L3711 424.539 Q3711 427.71 3711.86 428.613 Q3712.74 429.516 3715.4 429.516 L3719.77 429.516 L3719.77 433.08 L3715.4 433.08 Q3710.47 433.08 3708.59 431.252 Q3706.72 429.4 3706.72 424.539 L3706.72 410.465 L3703.59 410.465 L3703.59 407.155 L3706.72 407.155 L3706.72 399.794 L3711 399.794 Z" fill="#000000" fill-rule="nonzero" fill-opacity="1" /><path clip-path="url(#clip490)" d="M3740.4 411.136 Q3739.68 410.719 3738.83 410.534 Q3737.99 410.326 3736.97 410.326 Q3733.36 410.326 3731.42 412.687 Q3729.5 415.025 3729.5 419.423 L3729.5 433.08 L3725.21 433.08 L3725.21 407.155 L3729.5 407.155 L3729.5 411.182 Q3730.84 408.821 3732.99 407.687 Q3735.14 406.53 3738.22 406.53 Q3738.66 406.53 3739.2 406.599 Q3739.73 406.645 3740.38 406.761 L3740.4 411.136 Z" fill="#000000" fill-rule="nonzero" fill-opacity="1" /><path clip-path="url(#clip490)" d="M3744.43 422.849 L3744.43 407.155 L3748.69 407.155 L3748.69 422.687 Q3748.69 426.367 3750.12 428.219 Q3751.56 430.048 3754.43 430.048 Q3757.88 430.048 3759.87 427.849 Q3761.88 425.65 3761.88 421.854 L3761.88 407.155 L3766.14 407.155 L3766.14 433.08 L3761.88 433.08 L3761.88 429.099 Q3760.33 431.46 3758.27 432.617 Q3756.23 433.752 3753.52 433.752 Q3749.06 433.752 3746.74 430.974 Q3744.43 428.196 3744.43 422.849 M3755.14 406.53 L3755.14 406.53 Z" fill="#000000" fill-rule="nonzero" fill-opacity="1" /><path clip-path="url(#clip490)" d="M3779.13 399.794 L3779.13 407.155 L3787.9 407.155 L3787.9 410.465 L3779.13 410.465 L3779.13 424.539 Q3779.13 427.71 3779.98 428.613 Q3780.86 429.516 3783.52 429.516 L3787.9 429.516 L3787.9 433.08 L3783.52 433.08 Q3778.59 433.08 3776.72 431.252 Q3774.84 429.4 3774.84 424.539 L3774.84 410.465 L3771.72 410.465 L3771.72 407.155 L3774.84 407.155 L3774.84 399.794 L3779.13 399.794 Z" fill="#000000" fill-rule="nonzero" fill-opacity="1" /><path clip-path="url(#clip490)" d="M3815.05 417.432 L3815.05 433.08 L3810.79 433.08 L3810.79 417.571 Q3810.79 413.891 3809.36 412.062 Q3807.92 410.233 3805.05 410.233 Q3801.6 410.233 3799.61 412.432 Q3797.62 414.631 3797.62 418.428 L3797.62 433.08 L3793.34 433.08 L3793.34 397.062 L3797.62 397.062 L3797.62 411.182 Q3799.15 408.844 3801.21 407.687 Q3803.29 406.53 3806 406.53 Q3810.47 406.53 3812.76 409.307 Q3815.05 412.062 3815.05 417.432 Z" fill="#000000" fill-rule="nonzero" fill-opacity="1" /><polyline clip-path="url(#clip490)" style="stroke:#ff0000; stroke-linecap:round; stroke-linejoin:round; stroke-width:8; stroke-opacity:0.8; fill:none" points="3227.95,467.64 3474.45,467.64 "/>
<path clip-path="url(#clip490)" d="M3515.54 450.36 L3522.51 450.36 L3531.33 473.879 L3540.19 450.36 L3547.16 450.36 L3547.16 484.92 L3542.6 484.92 L3542.6 454.573 L3533.69 478.277 L3528.99 478.277 L3520.08 454.573 L3520.08 484.92 L3515.54 484.92 L3515.54 450.36 Z" fill="#000000" fill-rule="nonzero" fill-opacity="1" /><path clip-path="url(#clip490)" d="M3561.12 454.203 L3561.12 467.189 L3567 467.189 Q3570.26 467.189 3572.04 465.499 Q3573.83 463.809 3573.83 460.684 Q3573.83 457.583 3572.04 455.893 Q3570.26 454.203 3567 454.203 L3561.12 454.203 M3556.44 450.36 L3567 450.36 Q3572.81 450.36 3575.77 452.999 Q3578.76 455.615 3578.76 460.684 Q3578.76 465.8 3575.77 468.416 Q3572.81 471.032 3567 471.032 L3561.12 471.032 L3561.12 484.92 L3556.44 484.92 L3556.44 450.36 Z" fill="#000000" fill-rule="nonzero" fill-opacity="1" /><path clip-path="url(#clip490)" d="M3605.75 451.495 L3605.75 456.055 Q3603.09 454.782 3600.72 454.157 Q3598.36 453.532 3596.16 453.532 Q3592.34 453.532 3590.26 455.013 Q3588.2 456.495 3588.2 459.226 Q3588.2 461.518 3589.57 462.698 Q3590.96 463.856 3594.8 464.573 L3597.62 465.152 Q3602.85 466.147 3605.33 468.67 Q3607.83 471.17 3607.83 475.383 Q3607.83 480.407 3604.45 482.999 Q3601.09 485.592 3594.59 485.592 Q3592.14 485.592 3589.36 485.036 Q3586.6 484.481 3583.64 483.393 L3583.64 478.578 Q3586.49 480.175 3589.22 480.985 Q3591.95 481.795 3594.59 481.795 Q3598.59 481.795 3600.77 480.221 Q3602.95 478.647 3602.95 475.731 Q3602.95 473.184 3601.37 471.749 Q3599.82 470.314 3596.26 469.596 L3593.41 469.041 Q3588.18 467.999 3585.84 465.777 Q3583.5 463.555 3583.5 459.596 Q3583.5 455.013 3586.72 452.374 Q3589.96 449.735 3595.63 449.735 Q3598.06 449.735 3600.59 450.175 Q3603.11 450.615 3605.75 451.495 Z" fill="#000000" fill-rule="nonzero" fill-opacity="1" /><path clip-path="url(#clip490)" d="M3630.19 450.36 L3634.87 450.36 L3634.87 484.92 L3630.19 484.92 L3630.19 450.36 Z" fill="#000000" fill-rule="nonzero" fill-opacity="1" /><path clip-path="url(#clip490)" d="M3665.54 469.272 L3665.54 484.92 L3661.28 484.92 L3661.28 469.411 Q3661.28 465.731 3659.84 463.902 Q3658.41 462.073 3655.54 462.073 Q3652.09 462.073 3650.1 464.272 Q3648.11 466.471 3648.11 470.268 L3648.11 484.92 L3643.83 484.92 L3643.83 458.995 L3648.11 458.995 L3648.11 463.022 Q3649.64 460.684 3651.7 459.527 Q3653.78 458.37 3656.49 458.37 Q3660.96 458.37 3663.25 461.147 Q3665.54 463.902 3665.54 469.272 Z" fill="#000000" fill-rule="nonzero" fill-opacity="1" /><path clip-path="url(#clip490)" d="M3678.25 451.634 L3678.25 458.995 L3687.02 458.995 L3687.02 462.305 L3678.25 462.305 L3678.25 476.379 Q3678.25 479.55 3679.1 480.453 Q3679.98 481.356 3682.64 481.356 L3687.02 481.356 L3687.02 484.92 L3682.64 484.92 Q3677.71 484.92 3675.84 483.092 Q3673.96 481.24 3673.96 476.379 L3673.96 462.305 L3670.84 462.305 L3670.84 458.995 L3673.96 458.995 L3673.96 451.634 L3678.25 451.634 Z" fill="#000000" fill-rule="nonzero" fill-opacity="1" /><path clip-path="url(#clip490)" d="M3714.8 470.893 L3714.8 472.976 L3695.21 472.976 Q3695.49 477.374 3697.85 479.689 Q3700.24 481.981 3704.47 481.981 Q3706.93 481.981 3709.22 481.379 Q3711.53 480.777 3713.8 479.573 L3713.8 483.601 Q3711.51 484.573 3709.1 485.082 Q3706.7 485.592 3704.22 485.592 Q3698.02 485.592 3694.38 481.981 Q3690.77 478.369 3690.77 472.212 Q3690.77 465.846 3694.2 462.12 Q3697.64 458.37 3703.48 458.37 Q3708.71 458.37 3711.74 461.749 Q3714.8 465.106 3714.8 470.893 M3710.54 469.643 Q3710.49 466.147 3708.57 464.064 Q3706.67 461.981 3703.52 461.981 Q3699.96 461.981 3697.81 463.995 Q3695.68 466.008 3695.35 469.666 L3710.54 469.643 Z" fill="#000000" fill-rule="nonzero" fill-opacity="1" /><path clip-path="url(#clip490)" d="M3736.81 462.976 Q3736.09 462.559 3735.24 462.374 Q3734.4 462.166 3733.39 462.166 Q3729.77 462.166 3727.83 464.527 Q3725.91 466.865 3725.91 471.263 L3725.91 484.92 L3721.63 484.92 L3721.63 458.995 L3725.91 458.995 L3725.91 463.022 Q3727.25 460.661 3729.4 459.527 Q3731.56 458.37 3734.64 458.37 Q3735.08 458.37 3735.61 458.439 Q3736.14 458.485 3736.79 458.601 L3736.81 462.976 Z" fill="#000000" fill-rule="nonzero" fill-opacity="1" /><path clip-path="url(#clip490)" d="M3745.4 481.031 L3745.4 494.781 L3741.12 494.781 L3741.12 458.995 L3745.4 458.995 L3745.4 462.93 Q3746.74 460.615 3748.78 459.504 Q3750.84 458.37 3753.69 458.37 Q3758.41 458.37 3761.35 462.12 Q3764.31 465.87 3764.31 471.981 Q3764.31 478.092 3761.35 481.842 Q3758.41 485.592 3753.69 485.592 Q3750.84 485.592 3748.78 484.481 Q3746.74 483.346 3745.4 481.031 M3759.89 471.981 Q3759.89 467.282 3757.95 464.62 Q3756.02 461.934 3752.64 461.934 Q3749.26 461.934 3747.32 464.62 Q3745.4 467.282 3745.4 471.981 Q3745.4 476.68 3747.32 479.365 Q3749.26 482.027 3752.64 482.027 Q3756.02 482.027 3757.95 479.365 Q3759.89 476.68 3759.89 471.981 Z" fill="#000000" fill-rule="nonzero" fill-opacity="1" /><path clip-path="url(#clip490)" d="M3781.42 461.981 Q3777.99 461.981 3776 464.666 Q3774.01 467.328 3774.01 471.981 Q3774.01 476.633 3775.98 479.319 Q3777.97 481.981 3781.42 481.981 Q3784.82 481.981 3786.81 479.295 Q3788.8 476.61 3788.8 471.981 Q3788.8 467.374 3786.81 464.689 Q3784.82 461.981 3781.42 461.981 M3781.42 458.37 Q3786.97 458.37 3790.14 461.981 Q3793.32 465.592 3793.32 471.981 Q3793.32 478.346 3790.14 481.981 Q3786.97 485.592 3781.42 485.592 Q3775.84 485.592 3772.67 481.981 Q3769.52 478.346 3769.52 471.981 Q3769.52 465.592 3772.67 461.981 Q3775.84 458.37 3781.42 458.37 Z" fill="#000000" fill-rule="nonzero" fill-opacity="1" /><path clip-path="url(#clip490)" d="M3800.38 448.902 L3804.63 448.902 L3804.63 484.92 L3800.38 484.92 L3800.38 448.902 Z" fill="#000000" fill-rule="nonzero" fill-opacity="1" /><path clip-path="url(#clip490)" d="M3825.33 471.888 Q3820.17 471.888 3818.18 473.069 Q3816.19 474.249 3816.19 477.096 Q3816.19 479.365 3817.67 480.707 Q3819.17 482.027 3821.74 482.027 Q3825.28 482.027 3827.41 479.527 Q3829.57 477.004 3829.57 472.837 L3829.57 471.888 L3825.33 471.888 M3833.82 470.129 L3833.82 484.92 L3829.57 484.92 L3829.57 480.985 Q3828.11 483.346 3825.93 484.481 Q3823.76 485.592 3820.61 485.592 Q3816.63 485.592 3814.26 483.369 Q3811.93 481.124 3811.93 477.374 Q3811.93 472.999 3814.84 470.777 Q3817.78 468.555 3823.59 468.555 L3829.57 468.555 L3829.57 468.138 Q3829.57 465.198 3827.62 463.601 Q3825.7 461.981 3822.2 461.981 Q3819.98 461.981 3817.88 462.513 Q3815.77 463.045 3813.82 464.11 L3813.82 460.175 Q3816.16 459.272 3818.36 458.833 Q3820.56 458.37 3822.64 458.37 Q3828.27 458.37 3831.05 461.286 Q3833.82 464.203 3833.82 470.129 Z" fill="#000000" fill-rule="nonzero" fill-opacity="1" /><path clip-path="url(#clip490)" d="M3846.81 451.634 L3846.81 458.995 L3855.58 458.995 L3855.58 462.305 L3846.81 462.305 L3846.81 476.379 Q3846.81 479.55 3847.67 480.453 Q3848.55 481.356 3851.21 481.356 L3855.58 481.356 L3855.58 484.92 L3851.21 484.92 Q3846.28 484.92 3844.4 483.092 Q3842.53 481.24 3842.53 476.379 L3842.53 462.305 L3839.4 462.305 L3839.4 458.995 L3842.53 458.995 L3842.53 451.634 L3846.81 451.634 Z" fill="#000000" fill-rule="nonzero" fill-opacity="1" /><path clip-path="url(#clip490)" d="M3883.36 470.893 L3883.36 472.976 L3863.78 472.976 Q3864.06 477.374 3866.42 479.689 Q3868.8 481.981 3873.04 481.981 Q3875.49 481.981 3877.78 481.379 Q3880.1 480.777 3882.37 479.573 L3882.37 483.601 Q3880.07 484.573 3877.67 485.082 Q3875.26 485.592 3872.78 485.592 Q3866.58 485.592 3862.94 481.981 Q3859.33 478.369 3859.33 472.212 Q3859.33 465.846 3862.76 462.12 Q3866.21 458.37 3872.04 458.37 Q3877.27 458.37 3880.31 461.749 Q3883.36 465.106 3883.36 470.893 M3879.1 469.643 Q3879.06 466.147 3877.13 464.064 Q3875.24 461.981 3872.09 461.981 Q3868.52 461.981 3866.37 463.995 Q3864.24 466.008 3863.92 469.666 L3879.1 469.643 Z" fill="#000000" fill-rule="nonzero" fill-opacity="1" /><path clip-path="url(#clip490)" d="M3907.41 462.93 L3907.41 448.902 L3911.67 448.902 L3911.67 484.92 L3907.41 484.92 L3907.41 481.031 Q3906.07 483.346 3904.01 484.481 Q3901.97 485.592 3899.1 485.592 Q3894.4 485.592 3891.44 481.842 Q3888.5 478.092 3888.5 471.981 Q3888.5 465.87 3891.44 462.12 Q3894.4 458.37 3899.1 458.37 Q3901.97 458.37 3904.01 459.504 Q3906.07 460.615 3907.41 462.93 M3892.9 471.981 Q3892.9 476.68 3894.82 479.365 Q3896.76 482.027 3900.14 482.027 Q3903.52 482.027 3905.47 479.365 Q3907.41 476.68 3907.41 471.981 Q3907.41 467.282 3905.47 464.62 Q3903.52 461.934 3900.14 461.934 Q3896.76 461.934 3894.82 464.62 Q3892.9 467.282 3892.9 471.981 Z" fill="#000000" fill-rule="nonzero" fill-opacity="1" /></svg>
