<?xml version="1.0" encoding="utf-8"?>
<svg xmlns="http://www.w3.org/2000/svg" xmlns:xlink="http://www.w3.org/1999/xlink" width="1000" height="500" viewBox="0 0 4000 2000">
<defs>
  <clipPath id="clip710">
    <rect x="0" y="0" width="4000" height="2000"/>
  </clipPath>
</defs>
<path clip-path="url(#clip710)" d="M0 2000 L4000 2000 L4000 0 L0 0  Z" fill="#ffffff" fill-rule="evenodd" fill-opacity="1"/>
<defs>
  <clipPath id="clip711">
    <rect x="800" y="0" width="2801" height="2000"/>
  </clipPath>
</defs>
<path clip-path="url(#clip710)" d="M453.559 1676.27 L3090.06 1676.27 L3090.06 206.984 L453.559 206.984  Z" fill="#ffffff" fill-rule="evenodd" fill-opacity="1"/>
<defs>
  <clipPath id="clip712">
    <rect x="453" y="206" width="2638" height="1470"/>
  </clipPath>
</defs>
<polyline clip-path="url(#clip712)" style="stroke:#000000; stroke-linecap:round; stroke-linejoin:round; stroke-width:2; stroke-opacity:0.1; fill:none" points="503.053,1676.27 503.053,206.984 "/>
<polyline clip-path="url(#clip712)" style="stroke:#000000; stroke-linecap:round; stroke-linejoin:round; stroke-width:2; stroke-opacity:0.1; fill:none" points="1131.15,1676.27 1131.15,206.984 "/>
<polyline clip-path="url(#clip712)" style="stroke:#000000; stroke-linecap:round; stroke-linejoin:round; stroke-width:2; stroke-opacity:0.1; fill:none" points="1759.25,1676.27 1759.25,206.984 "/>
<polyline clip-path="url(#clip712)" style="stroke:#000000; stroke-linecap:round; stroke-linejoin:round; stroke-width:2; stroke-opacity:0.1; fill:none" points="2387.35,1676.27 2387.35,206.984 "/>
<polyline clip-path="url(#clip712)" style="stroke:#000000; stroke-linecap:round; stroke-linejoin:round; stroke-width:2; stroke-opacity:0.1; fill:none" points="3015.45,1676.27 3015.45,206.984 "/>
<polyline clip-path="url(#clip712)" style="stroke:#000000; stroke-linecap:round; stroke-linejoin:round; stroke-width:2; stroke-opacity:0.1; fill:none" points="453.559,1558.9 3090.06,1558.9 "/>
<polyline clip-path="url(#clip712)" style="stroke:#000000; stroke-linecap:round; stroke-linejoin:round; stroke-width:2; stroke-opacity:0.1; fill:none" points="453.559,1218.51 3090.06,1218.51 "/>
<polyline clip-path="url(#clip712)" style="stroke:#000000; stroke-linecap:round; stroke-linejoin:round; stroke-width:2; stroke-opacity:0.1; fill:none" points="453.559,878.114 3090.06,878.114 "/>
<polyline clip-path="url(#clip712)" style="stroke:#000000; stroke-linecap:round; stroke-linejoin:round; stroke-width:2; stroke-opacity:0.1; fill:none" points="453.559,537.719 3090.06,537.719 "/>
<polyline clip-path="url(#clip710)" style="stroke:#000000; stroke-linecap:round; stroke-linejoin:round; stroke-width:4; stroke-opacity:1; fill:none" points="453.559,1676.27 3090.06,1676.27 "/>
<polyline clip-path="url(#clip710)" style="stroke:#000000; stroke-linecap:round; stroke-linejoin:round; stroke-width:4; stroke-opacity:1; fill:none" points="503.053,1676.27 503.053,1657.37 "/>
<polyline clip-path="url(#clip710)" style="stroke:#000000; stroke-linecap:round; stroke-linejoin:round; stroke-width:4; stroke-opacity:1; fill:none" points="1131.15,1676.27 1131.15,1657.37 "/>
<polyline clip-path="url(#clip710)" style="stroke:#000000; stroke-linecap:round; stroke-linejoin:round; stroke-width:4; stroke-opacity:1; fill:none" points="1759.25,1676.27 1759.25,1657.37 "/>
<polyline clip-path="url(#clip710)" style="stroke:#000000; stroke-linecap:round; stroke-linejoin:round; stroke-width:4; stroke-opacity:1; fill:none" points="2387.35,1676.27 2387.35,1657.37 "/>
<polyline clip-path="url(#clip710)" style="stroke:#000000; stroke-linecap:round; stroke-linejoin:round; stroke-width:4; stroke-opacity:1; fill:none" points="3015.45,1676.27 3015.45,1657.37 "/>
<path clip-path="url(#clip710)" d="M503.053 1744.89 Q491.768 1744.89 486.054 1756.03 Q480.411 1767.1 480.411 1789.38 Q480.411 1811.58 486.054 1822.72 Q491.768 1833.79 503.053 1833.79 Q514.41 1833.79 520.052 1822.72 Q525.767 1811.58 525.767 1789.38 Q525.767 1767.1 520.052 1756.03 Q514.41 1744.89 503.053 1744.89 M503.053 1733.31 Q521.21 1733.31 530.758 1747.71 Q540.379 1762.03 540.379 1789.38 Q540.379 1816.65 530.758 1831.04 Q521.21 1845.37 503.053 1845.37 Q484.896 1845.37 475.275 1831.04 Q465.727 1816.65 465.727 1789.38 Q465.727 1762.03 475.275 1747.71 Q484.896 1733.31 503.053 1733.31 Z" fill="#000000" fill-rule="nonzero" fill-opacity="1" /><path clip-path="url(#clip710)" d="M1066.37 1830.97 L1117.37 1830.97 L1117.37 1843.27 L1048.79 1843.27 L1048.79 1830.97 Q1057.11 1822.36 1071.44 1807.89 Q1085.83 1793.35 1089.52 1789.16 Q1096.54 1781.27 1099.29 1775.85 Q1102.11 1770.35 1102.11 1765.07 Q1102.11 1756.46 1096.03 1751.04 Q1090.03 1745.61 1080.33 1745.61 Q1073.46 1745.61 1065.79 1748 Q1058.2 1750.39 1049.52 1755.23 L1049.52 1740.48 Q1058.34 1736.93 1066.01 1735.12 Q1073.68 1733.31 1080.04 1733.31 Q1096.83 1733.31 1106.81 1741.71 Q1116.79 1750.1 1116.79 1764.13 Q1116.79 1770.79 1114.26 1776.79 Q1111.8 1782.72 1105.22 1790.82 Q1103.41 1792.92 1093.72 1802.98 Q1084.02 1812.96 1066.37 1830.97 Z" fill="#000000" fill-rule="nonzero" fill-opacity="1" /><path clip-path="url(#clip710)" d="M1148.19 1735.27 L1205.55 1735.27 L1205.55 1747.57 L1161.57 1747.57 L1161.57 1774.04 Q1164.75 1772.96 1167.93 1772.45 Q1171.12 1771.87 1174.3 1771.87 Q1192.38 1771.87 1202.95 1781.78 Q1213.51 1791.69 1213.51 1808.62 Q1213.51 1826.05 1202.66 1835.74 Q1191.81 1845.37 1172.06 1845.37 Q1165.26 1845.37 1158.17 1844.21 Q1151.15 1843.05 1143.63 1840.74 L1143.63 1826.05 Q1150.14 1829.6 1157.08 1831.33 Q1164.03 1833.07 1171.77 1833.07 Q1184.28 1833.07 1191.59 1826.49 Q1198.9 1819.9 1198.9 1808.62 Q1198.9 1797.33 1191.59 1790.75 Q1184.28 1784.17 1171.77 1784.17 Q1165.91 1784.17 1160.05 1785.47 Q1154.26 1786.77 1148.19 1789.52 L1148.19 1735.27 Z" fill="#000000" fill-rule="nonzero" fill-opacity="1" /><path clip-path="url(#clip710)" d="M1680.18 1735.27 L1737.55 1735.27 L1737.55 1747.57 L1693.57 1747.57 L1693.57 1774.04 Q1696.75 1772.96 1699.93 1772.45 Q1703.12 1771.87 1706.3 1771.87 Q1724.38 1771.87 1734.94 1781.78 Q1745.51 1791.69 1745.51 1808.62 Q1745.51 1826.05 1734.65 1835.74 Q1723.8 1845.37 1704.06 1845.37 Q1697.26 1845.37 1690.17 1844.21 Q1683.15 1843.05 1675.63 1840.74 L1675.63 1826.05 Q1682.14 1829.6 1689.08 1831.33 Q1696.03 1833.07 1703.77 1833.07 Q1716.28 1833.07 1723.59 1826.49 Q1730.89 1819.9 1730.89 1808.62 Q1730.89 1797.33 1723.59 1790.75 Q1716.28 1784.17 1703.77 1784.17 Q1697.91 1784.17 1692.05 1785.47 Q1686.26 1786.77 1680.18 1789.52 L1680.18 1735.27 Z" fill="#000000" fill-rule="nonzero" fill-opacity="1" /><path clip-path="url(#clip710)" d="M1805.55 1744.89 Q1794.26 1744.89 1788.55 1756.03 Q1782.9 1767.1 1782.9 1789.38 Q1782.9 1811.58 1788.55 1822.72 Q1794.26 1833.79 1805.55 1833.79 Q1816.9 1833.79 1822.54 1822.72 Q1828.26 1811.58 1828.26 1789.38 Q1828.26 1767.1 1822.54 1756.03 Q1816.9 1744.89 1805.55 1744.89 M1805.55 1733.31 Q1823.7 1733.31 1833.25 1747.71 Q1842.87 1762.03 1842.87 1789.38 Q1842.87 1816.65 1833.25 1831.04 Q1823.7 1845.37 1805.55 1845.37 Q1787.39 1845.37 1777.77 1831.04 Q1768.22 1816.65 1768.22 1789.38 Q1768.22 1762.03 1777.77 1747.71 Q1787.39 1733.31 1805.55 1733.31 Z" fill="#000000" fill-rule="nonzero" fill-opacity="1" /><path clip-path="url(#clip710)" d="M2305.64 1735.27 L2375.09 1735.27 L2375.09 1741.49 L2335.88 1843.27 L2320.62 1843.27 L2357.51 1747.57 L2305.64 1747.57 L2305.64 1735.27 Z" fill="#000000" fill-rule="nonzero" fill-opacity="1" /><path clip-path="url(#clip710)" d="M2403.73 1735.27 L2461.1 1735.27 L2461.1 1747.57 L2417.11 1747.57 L2417.11 1774.04 Q2420.3 1772.96 2423.48 1772.45 Q2426.66 1771.87 2429.85 1771.87 Q2447.93 1771.87 2458.49 1781.78 Q2469.05 1791.69 2469.05 1808.62 Q2469.05 1826.05 2458.2 1835.74 Q2447.35 1845.37 2427.6 1845.37 Q2420.8 1845.37 2413.71 1844.21 Q2406.7 1843.05 2399.17 1840.74 L2399.17 1826.05 Q2405.69 1829.6 2412.63 1831.33 Q2419.57 1833.07 2427.31 1833.07 Q2439.83 1833.07 2447.13 1826.49 Q2454.44 1819.9 2454.44 1808.62 Q2454.44 1797.33 2447.13 1790.75 Q2439.83 1784.17 2427.31 1784.17 Q2421.45 1784.17 2415.6 1785.47 Q2409.81 1786.77 2403.73 1789.52 L2403.73 1735.27 Z" fill="#000000" fill-rule="nonzero" fill-opacity="1" /><path clip-path="url(#clip710)" d="M2889.22 1830.97 L2913.09 1830.97 L2913.09 1748.58 L2887.12 1753.79 L2887.12 1740.48 L2912.94 1735.27 L2927.56 1735.27 L2927.56 1830.97 L2951.43 1830.97 L2951.43 1843.27 L2889.22 1843.27 L2889.22 1830.97 Z" fill="#000000" fill-rule="nonzero" fill-opacity="1" /><path clip-path="url(#clip710)" d="M3012.19 1744.89 Q3000.91 1744.89 2995.19 1756.03 Q2989.55 1767.1 2989.55 1789.38 Q2989.55 1811.58 2995.19 1822.72 Q3000.91 1833.79 3012.19 1833.79 Q3023.55 1833.79 3029.19 1822.72 Q3034.9 1811.58 3034.9 1789.38 Q3034.9 1767.1 3029.19 1756.03 Q3023.55 1744.89 3012.19 1744.89 M3012.19 1733.31 Q3030.35 1733.31 3039.9 1747.71 Q3049.52 1762.03 3049.52 1789.38 Q3049.52 1816.65 3039.9 1831.04 Q3030.35 1845.37 3012.19 1845.37 Q2994.03 1845.37 2984.41 1831.04 Q2974.86 1816.65 2974.86 1789.38 Q2974.86 1762.03 2984.41 1747.71 Q2994.03 1733.31 3012.19 1733.31 Z" fill="#000000" fill-rule="nonzero" fill-opacity="1" /><path clip-path="url(#clip710)" d="M3106.45 1744.89 Q3095.16 1744.89 3089.45 1756.03 Q3083.81 1767.1 3083.81 1789.38 Q3083.81 1811.58 3089.45 1822.72 Q3095.16 1833.79 3106.45 1833.79 Q3117.8 1833.79 3123.45 1822.72 Q3129.16 1811.58 3129.16 1789.38 Q3129.16 1767.1 3123.45 1756.03 Q3117.8 1744.89 3106.45 1744.89 M3106.45 1733.31 Q3124.6 1733.31 3134.15 1747.71 Q3143.77 1762.03 3143.77 1789.38 Q3143.77 1816.65 3134.15 1831.04 Q3124.6 1845.37 3106.45 1845.37 Q3088.29 1845.37 3078.67 1831.04 Q3069.12 1816.65 3069.12 1789.38 Q3069.12 1762.03 3078.67 1747.71 Q3088.29 1733.31 3106.45 1733.31 Z" fill="#000000" fill-rule="nonzero" fill-opacity="1" /><path clip-path="url(#clip710)" d="M1769.68 1923.85 L1769.68 1946.85 L1797.09 1946.85 L1797.09 1957.19 L1769.68 1957.19 L1769.68 2001.18 Q1769.68 2011.09 1772.35 2013.91 Q1775.1 2016.73 1783.42 2016.73 L1797.09 2016.73 L1797.09 2027.87 L1783.42 2027.87 Q1768.01 2027.87 1762.15 2022.15 Q1756.3 2016.37 1756.3 2001.18 L1756.3 1957.19 L1746.53 1957.19 L1746.53 1946.85 L1756.3 1946.85 L1756.3 1923.85 L1769.68 1923.85 Z" fill="#000000" fill-rule="nonzero" fill-opacity="1" /><polyline clip-path="url(#clip710)" style="stroke:#000000; stroke-linecap:round; stroke-linejoin:round; stroke-width:4; stroke-opacity:1; fill:none" points="453.559,1676.27 453.559,206.984 "/>
<polyline clip-path="url(#clip710)" style="stroke:#000000; stroke-linecap:round; stroke-linejoin:round; stroke-width:4; stroke-opacity:1; fill:none" points="453.559,1558.9 467.797,1558.9 "/>
<polyline clip-path="url(#clip710)" style="stroke:#000000; stroke-linecap:round; stroke-linejoin:round; stroke-width:4; stroke-opacity:1; fill:none" points="453.559,1218.51 467.797,1218.51 "/>
<polyline clip-path="url(#clip710)" style="stroke:#000000; stroke-linecap:round; stroke-linejoin:round; stroke-width:4; stroke-opacity:1; fill:none" points="453.559,878.114 467.797,878.114 "/>
<polyline clip-path="url(#clip710)" style="stroke:#000000; stroke-linecap:round; stroke-linejoin:round; stroke-width:4; stroke-opacity:1; fill:none" points="453.559,537.719 467.797,537.719 "/>
<path clip-path="url(#clip710)" d="M202.732 1560.32 L295.469 1560.32 L295.469 1572.61 L202.732 1572.61 L202.732 1560.32 Z" fill="#000000" fill-rule="nonzero" fill-opacity="1" /><path clip-path="url(#clip710)" d="M371.279 1554.67 Q381.768 1556.92 387.627 1564 Q393.559 1571.09 393.559 1581.51 Q393.559 1597.5 382.563 1606.25 Q371.568 1615 351.314 1615 Q344.514 1615 337.28 1613.63 Q330.119 1612.33 322.451 1609.65 L322.451 1595.54 Q328.527 1599.09 335.761 1600.9 Q342.995 1602.7 350.88 1602.7 Q364.624 1602.7 371.785 1597.28 Q379.019 1591.85 379.019 1581.51 Q379.019 1571.96 372.292 1566.61 Q365.637 1561.18 353.701 1561.18 L341.114 1561.18 L341.114 1549.18 L354.28 1549.18 Q365.058 1549.18 370.772 1544.91 Q376.487 1540.57 376.487 1532.47 Q376.487 1524.15 370.555 1519.73 Q364.696 1515.25 353.701 1515.25 Q347.697 1515.25 340.825 1516.55 Q333.953 1517.85 325.706 1520.6 L325.706 1507.58 Q334.025 1505.27 341.259 1504.11 Q348.565 1502.95 355.003 1502.95 Q371.641 1502.95 381.334 1510.55 Q391.027 1518.07 391.027 1530.95 Q391.027 1539.92 385.891 1546.14 Q380.755 1552.29 371.279 1554.67 Z" fill="#000000" fill-rule="nonzero" fill-opacity="1" /><path clip-path="url(#clip710)" d="M205.698 1219.92 L298.435 1219.92 L298.435 1232.22 L205.698 1232.22 L205.698 1219.92 Z" fill="#000000" fill-rule="nonzero" fill-opacity="1" /><path clip-path="url(#clip710)" d="M342.561 1260.21 L393.559 1260.21 L393.559 1272.51 L324.983 1272.51 L324.983 1260.21 Q333.302 1251.6 347.624 1237.14 Q362.02 1222.6 365.709 1218.4 Q372.726 1210.52 375.474 1205.09 Q378.296 1199.59 378.296 1194.31 Q378.296 1185.7 372.219 1180.28 Q366.215 1174.85 356.522 1174.85 Q349.65 1174.85 341.982 1177.24 Q334.387 1179.63 325.706 1184.47 L325.706 1169.72 Q334.531 1166.17 342.199 1164.36 Q349.867 1162.56 356.233 1162.56 Q373.015 1162.56 382.998 1170.95 Q392.98 1179.34 392.98 1193.37 Q392.98 1200.03 390.448 1206.03 Q387.989 1211.96 381.406 1220.06 Q379.598 1222.16 369.904 1232.22 Q360.211 1242.2 342.561 1260.21 Z" fill="#000000" fill-rule="nonzero" fill-opacity="1" /><path clip-path="url(#clip710)" d="M204.541 879.525 L297.277 879.525 L297.277 891.822 L204.541 891.822 L204.541 879.525 Z" fill="#000000" fill-rule="nonzero" fill-opacity="1" /><path clip-path="url(#clip710)" d="M331.348 919.817 L355.22 919.817 L355.22 837.424 L329.251 842.633 L329.251 829.323 L355.075 824.114 L369.687 824.114 L369.687 919.817 L393.559 919.817 L393.559 932.114 L331.348 932.114 L331.348 919.817 Z" fill="#000000" fill-rule="nonzero" fill-opacity="1" /><path clip-path="url(#clip710)" d="M356.233 493.34 Q344.948 493.34 339.233 504.48 Q333.591 515.548 333.591 537.828 Q333.591 560.035 339.233 571.175 Q344.948 582.243 356.233 582.243 Q367.59 582.243 373.232 571.175 Q378.947 560.035 378.947 537.828 Q378.947 515.548 373.232 504.48 Q367.59 493.34 356.233 493.34 M356.233 481.766 Q374.389 481.766 383.938 496.161 Q393.559 510.484 393.559 537.828 Q393.559 565.099 383.938 579.494 Q374.389 593.817 356.233 593.817 Q338.076 593.817 328.455 579.494 Q318.906 565.099 318.906 537.828 Q318.906 510.484 328.455 496.161 Q338.076 481.766 356.233 481.766 Z" fill="#000000" fill-rule="nonzero" fill-opacity="1" /><path clip-path="url(#clip710)" d="M29.3142 903.866 L68.7382 933.162 L110.332 902.347 L110.332 918.044 L78.5038 941.626 L110.332 965.208 L110.332 980.905 L67.9425 949.438 L29.3142 978.229 L29.3142 962.532 L58.1769 941.047 L29.3142 919.563 L29.3142 903.866 Z" fill="#000000" fill-rule="nonzero" fill-opacity="1" /><path clip-path="url(#clip710)" d="M1663.63 34.3314 L1626.74 91.9845 L1663.63 91.9845 L1663.63 34.3314 M1659.8 21.6 L1678.17 21.6 L1678.17 91.9845 L1693.58 91.9845 L1693.58 104.137 L1678.17 104.137 L1678.17 129.6 L1663.63 129.6 L1663.63 104.137 L1614.88 104.137 L1614.88 90.0313 L1659.8 21.6 Z" fill="#000000" fill-rule="nonzero" fill-opacity="1" /><path clip-path="url(#clip710)" d="M1717.88 21.6 L1775.25 21.6 L1775.25 33.8974 L1731.27 33.8974 L1731.27 60.3729 Q1734.45 59.2879 1737.63 58.7815 Q1740.81 58.2028 1744 58.2028 Q1762.08 58.2028 1772.64 68.1131 Q1783.2 78.0233 1783.2 94.9503 Q1783.2 112.384 1772.35 122.077 Q1761.5 131.698 1741.76 131.698 Q1734.96 131.698 1727.87 130.54 Q1720.85 129.383 1713.33 127.068 L1713.33 112.384 Q1719.84 115.928 1726.78 117.664 Q1733.73 119.4 1741.47 119.4 Q1753.98 119.4 1761.29 112.818 Q1768.59 106.235 1768.59 94.9503 Q1768.59 83.6656 1761.29 77.0829 Q1753.98 70.5002 1741.47 70.5002 Q1735.61 70.5002 1729.75 71.8023 Q1723.96 73.1044 1717.88 75.8532 L1717.88 21.6 Z" fill="#000000" fill-rule="nonzero" fill-opacity="1" /><path clip-path="url(#clip710)" d="M1903.86 82.0742 Q1897.57 82.0742 1893.95 87.4272 Q1890.41 92.7802 1890.41 102.329 Q1890.41 111.733 1893.95 117.158 Q1897.57 122.511 1903.86 122.511 Q1910.01 122.511 1913.56 117.158 Q1917.17 111.733 1917.17 102.329 Q1917.17 92.8525 1913.56 87.4995 Q1910.01 82.0742 1903.86 82.0742 M1903.86 72.8873 Q1915.29 72.8873 1922.02 80.8445 Q1928.75 88.8016 1928.75 102.329 Q1928.75 115.856 1921.95 123.813 Q1915.22 131.698 1903.86 131.698 Q1892.29 131.698 1885.56 123.813 Q1878.83 115.856 1878.83 102.329 Q1878.83 88.7293 1885.56 80.8445 Q1892.36 72.8873 1903.86 72.8873 M1829.21 28.8338 Q1822.99 28.8338 1819.37 34.2591 Q1815.83 39.6121 1815.83 49.0159 Q1815.83 58.5645 1819.37 63.9175 Q1822.92 69.2705 1829.21 69.2705 Q1835.5 69.2705 1839.05 63.9175 Q1842.67 58.5645 1842.67 49.0159 Q1842.67 39.6844 1839.05 34.2591 Q1835.43 28.8338 1829.21 28.8338 M1894.53 19.6469 L1906.11 19.6469 L1838.54 131.698 L1826.97 131.698 L1894.53 19.6469 M1829.21 19.6469 Q1840.64 19.6469 1847.44 27.604 Q1854.24 35.4888 1854.24 49.0159 Q1854.24 62.6877 1847.44 70.5725 Q1840.71 78.4573 1829.21 78.4573 Q1817.71 78.4573 1810.98 70.5725 Q1804.33 62.6154 1804.33 49.0159 Q1804.33 35.5612 1811.05 27.604 Q1817.78 19.6469 1829.21 19.6469 Z" fill="#000000" fill-rule="nonzero" fill-opacity="1" /><polyline clip-path="url(#clip712)" style="stroke:#000000; stroke-linecap:round; stroke-linejoin:round; stroke-width:8; stroke-opacity:1; fill:none" stroke-dasharray="4, 8" points="528.177,474.296 553.301,421.411 578.425,402.973 603.549,353.355 628.673,361.97 653.797,309.993 678.92,320.888 704.044,248.568 729.168,266.589 754.292,345.037 779.416,283.648 804.54,355.074 829.664,409.998 854.788,411.312 879.912,399.604 905.036,552.09 930.16,532.54 955.284,583.758 980.408,658.392 1005.53,700.399 1030.66,775.159 1055.78,891.397 1080.9,866.588 1106.03,994.875 1131.15,1067.52 1156.28,1075.19 1181.4,1050.88 "/>
<polyline clip-path="url(#clip712)" style="stroke:#000000; stroke-linecap:round; stroke-linejoin:round; stroke-width:8; stroke-opacity:1; fill:none" stroke-dasharray="4, 8" points="2337.1,1547.11 2362.22,1554.77 2387.35,1490.25 2412.47,1535.02 2437.6,1470.15 2462.72,1499.81 2487.84,1390.39 2512.97,1334.77 2538.09,1346.27 2563.22,1234.36 2588.34,1205.57 2613.46,1238.84 2638.59,1163.9 2663.71,1160.72 2688.83,1132.02 2713.96,1121.71 2739.08,1123.99 2764.21,1100.46 2789.33,1086.33 2814.45,1111.12 2839.58,1193.99 2864.7,1169.02 2889.83,1335.86 2914.95,1319.78 2940.07,1382.31 2965.2,1448.88 2990.32,1551.32 3015.45,1508.89 "/>
<polyline clip-path="url(#clip712)" style="stroke:#000000; stroke-linecap:round; stroke-linejoin:round; stroke-width:8; stroke-opacity:0.3; fill:none" points="1206.52,1206.43 1231.65,1159.48 1256.77,1152.7 1281.89,1133.91 1307.02,1122.34 1332.14,1141.48 1357.27,1133.29 1382.39,1160.73 1407.51,1080.44 1432.64,1037.36 1457.76,1077.58 1482.89,938.6 1508.01,930.864 1533.13,831.428 1558.26,823.276 1583.38,849.903 1608.51,788.761 1633.63,697.685 1658.75,704.603 1683.88,691.468 1709,738.181 1734.13,722.314 1759.25,723.281 1784.37,647.956 1809.5,728.923 1834.62,797.625 1859.75,796.501 1884.87,895.725 1909.99,863.213 1935.12,922.394 1960.24,1022.44 1985.36,1107.36 2010.49,1180.05 2035.61,1207.69 2060.74,1257.89 2085.86,1360.84 2110.98,1399.39 2136.11,1447 2161.23,1463.3 2186.36,1574.46 2211.48,1481.78 2236.6,1542.47 2261.73,1584.58 2286.85,1560 2311.98,1593.15 "/>
<path clip-path="url(#clip712)" d="M1206.52 1187.17 L1231.65 1200.92 L1256.77 1224.94 L1281.89 1226.77 L1307.02 1232.24 L1332.14 1234.98 L1357.27 1241.22 L1382.39 1197.94 L1407.51 1167.28 L1432.64 1105.56 L1457.76 1112.59 L1482.89 1046.76 L1508.01 1002.14 L1533.13 940.079 L1558.26 920.748 L1583.38 900.245 L1608.51 855.777 L1633.63 810.244 L1658.75 778.519 L1683.88 763.403 L1709 751.944 L1734.13 738.775 L1759.25 758.926 L1784.37 762.488 L1809.5 774.262 L1834.62 802.871 L1859.75 850.283 L1884.87 899.933 L1909.99 934.073 L1935.12 988.415 L1960.24 1058.19 L1985.36 1122.62 L2010.49 1176.1 L2035.61 1243.57 L2060.74 1299.03 L2085.86 1384.66 L2110.98 1452.66 L2136.11 1472.64 L2161.23 1525.05 L2186.36 1570.07 L2211.48 1568.02 L2236.6 1593.16 L2261.73 1631.22 L2286.85 1624.82 L2311.98 1634.68 L2311.98 1552.02 L2286.85 1540.12 L2261.73 1547.95 L2236.6 1503.49 L2211.48 1477.11 L2186.36 1475.08 L2161.23 1430.85 L2136.11 1369.02 L2110.98 1345.35 L2085.86 1262.21 L2060.74 1186.58 L2035.61 1090.25 L2010.49 1059.92 L1985.36 1002.96 L1960.24 918.405 L1935.12 870.85 L1909.99 818.244 L1884.87 782.441 L1859.75 727.82 L1834.62 679.886 L1809.5 652.746 L1784.37 641.967 L1759.25 639.064 L1734.13 619.989 L1709 632.223 L1683.88 643.338 L1658.75 656.478 L1633.63 687.555 L1608.51 733.646 L1583.38 783.174 L1558.26 805.011 L1533.13 824.928 L1508.01 884.139 L1482.89 927.794 L1457.76 1000.45 L1432.64 992.03 L1407.51 1055.52 L1382.39 1086.4 L1357.27 1129.49 L1332.14 1122.89 L1307.02 1120.73 L1281.89 1115.25 L1256.77 1113.19 L1231.65 1089.75 L1206.52 1077.08  Z" fill="#ff0000" fill-rule="evenodd" fill-opacity="0.15"/>
<polyline clip-path="url(#clip712)" style="stroke:#ff0000; stroke-linecap:round; stroke-linejoin:round; stroke-width:8; stroke-opacity:0.8; fill:none" points="1206.52,1132.12 1231.65,1145.34 1256.77,1169.06 1281.89,1171.01 1307.02,1176.49 1332.14,1178.94 1357.27,1185.36 1382.39,1142.17 1407.51,1111.4 1432.64,1048.79 1457.76,1056.52 1482.89,987.276 1508.01,943.14 1533.13,882.504 1558.26,862.879 1583.38,841.71 1608.51,794.711 1633.63,748.899 1658.75,717.498 1683.88,703.371 1709,692.084 1734.13,679.382 1759.25,698.995 1784.37,702.228 1809.5,713.504 1834.62,741.378 1859.75,789.051 1884.87,841.187 1909.99,876.158 1935.12,929.633 1960.24,988.299 1985.36,1062.79 2010.49,1118.01 2035.61,1166.91 2060.74,1242.81 2085.86,1323.44 2110.98,1399.01 2136.11,1420.83 2161.23,1477.95 2186.36,1522.57 2211.48,1522.56 2236.6,1548.33 2261.73,1589.59 2286.85,1582.47 2311.98,1593.35 "/>
<path clip-path="url(#clip710)" d="M3206.7 463.32 L3952.76 463.32 L3952.76 255.96 L3206.7 255.96  Z" fill="#ffffff" fill-rule="evenodd" fill-opacity="1"/>
<polyline clip-path="url(#clip710)" style="stroke:#000000; stroke-linecap:round; stroke-linejoin:round; stroke-width:4; stroke-opacity:1; fill:none" points="3206.7,463.32 3952.76,463.32 3952.76,255.96 3206.7,255.96 3206.7,463.32 "/>
<polyline clip-path="url(#clip710)" style="stroke:#000000; stroke-linecap:round; stroke-linejoin:round; stroke-width:8; stroke-opacity:1; fill:none" stroke-dasharray="4, 8" points="3245.58,307.8 3478.86,307.8 "/>
<path clip-path="url(#clip710)" d="M3533.76 293.692 Q3528.67 293.692 3525.66 297.488 Q3522.67 301.284 3522.67 307.835 Q3522.67 314.363 3525.66 318.159 Q3528.67 321.955 3533.76 321.955 Q3538.85 321.955 3541.82 318.159 Q3544.8 314.363 3544.8 307.835 Q3544.8 301.284 3541.82 297.488 Q3538.85 293.692 3533.76 293.692 M3533.76 289.895 Q3541.03 289.895 3545.38 294.78 Q3549.73 299.641 3549.73 307.835 Q3549.73 316.006 3545.38 320.891 Q3541.03 325.752 3533.76 325.752 Q3526.47 325.752 3522.1 320.891 Q3517.74 316.029 3517.74 307.835 Q3517.74 299.641 3522.1 294.78 Q3526.47 289.895 3533.76 289.895 Z" fill="#000000" fill-rule="nonzero" fill-opacity="1" /><path clip-path="url(#clip710)" d="M3575.47 312.141 Q3575.47 307.442 3573.53 304.78 Q3571.61 302.094 3568.23 302.094 Q3564.85 302.094 3562.91 304.78 Q3560.98 307.442 3560.98 312.141 Q3560.98 316.84 3562.91 319.525 Q3564.85 322.187 3568.23 322.187 Q3571.61 322.187 3573.53 319.525 Q3575.47 316.84 3575.47 312.141 M3560.98 303.09 Q3562.33 300.775 3564.36 299.664 Q3566.42 298.53 3569.27 298.53 Q3573.99 298.53 3576.93 302.28 Q3579.9 306.03 3579.9 312.141 Q3579.9 318.252 3576.93 322.002 Q3573.99 325.752 3569.27 325.752 Q3566.42 325.752 3564.36 324.641 Q3562.33 323.506 3560.98 321.191 L3560.98 325.08 L3556.7 325.08 L3556.7 289.062 L3560.98 289.062 L3560.98 303.09 Z" fill="#000000" fill-rule="nonzero" fill-opacity="1" /><path clip-path="url(#clip710)" d="M3603.48 299.918 L3603.48 303.946 Q3601.68 303.02 3599.73 302.557 Q3597.79 302.094 3595.71 302.094 Q3592.54 302.094 3590.94 303.067 Q3589.36 304.039 3589.36 305.983 Q3589.36 307.465 3590.5 308.321 Q3591.63 309.155 3595.06 309.918 L3596.52 310.242 Q3601.05 311.215 3602.95 312.997 Q3604.87 314.756 3604.87 317.928 Q3604.87 321.539 3602 323.645 Q3599.16 325.752 3594.16 325.752 Q3592.07 325.752 3589.8 325.335 Q3587.56 324.941 3585.06 324.131 L3585.06 319.733 Q3587.42 320.96 3589.71 321.585 Q3592 322.187 3594.25 322.187 Q3597.26 322.187 3598.88 321.168 Q3600.5 320.127 3600.5 318.252 Q3600.5 316.516 3599.32 315.59 Q3598.16 314.664 3594.2 313.807 L3592.72 313.46 Q3588.76 312.627 3587 310.914 Q3585.24 309.178 3585.24 306.168 Q3585.24 302.511 3587.84 300.52 Q3590.43 298.53 3595.2 298.53 Q3597.56 298.53 3599.64 298.877 Q3601.72 299.224 3603.48 299.918 Z" fill="#000000" fill-rule="nonzero" fill-opacity="1" /><path clip-path="url(#clip710)" d="M3633.83 311.053 L3633.83 313.136 L3614.25 313.136 Q3614.53 317.534 3616.89 319.849 Q3619.27 322.141 3623.51 322.141 Q3625.96 322.141 3628.25 321.539 Q3630.57 320.937 3632.84 319.733 L3632.84 323.761 Q3630.54 324.733 3628.14 325.242 Q3625.73 325.752 3623.25 325.752 Q3617.05 325.752 3613.41 322.141 Q3609.8 318.529 3609.8 312.372 Q3609.8 306.006 3613.23 302.28 Q3616.68 298.53 3622.51 298.53 Q3627.74 298.53 3630.78 301.909 Q3633.83 305.266 3633.83 311.053 M3629.57 309.803 Q3629.53 306.307 3627.6 304.224 Q3625.71 302.141 3622.56 302.141 Q3618.99 302.141 3616.84 304.155 Q3614.71 306.168 3614.39 309.826 L3629.57 309.803 Z" fill="#000000" fill-rule="nonzero" fill-opacity="1" /><path clip-path="url(#clip710)" d="M3655.84 303.136 Q3655.13 302.719 3654.27 302.534 Q3653.44 302.326 3652.42 302.326 Q3648.81 302.326 3646.86 304.687 Q3644.94 307.025 3644.94 311.423 L3644.94 325.08 L3640.66 325.08 L3640.66 299.155 L3644.94 299.155 L3644.94 303.182 Q3646.28 300.821 3648.44 299.687 Q3650.59 298.53 3653.67 298.53 Q3654.11 298.53 3654.64 298.599 Q3655.17 298.645 3655.82 298.761 L3655.84 303.136 Z" fill="#000000" fill-rule="nonzero" fill-opacity="1" /><path clip-path="url(#clip710)" d="M3657.26 299.155 L3661.77 299.155 L3669.87 320.914 L3677.97 299.155 L3682.49 299.155 L3672.77 325.08 L3666.98 325.08 L3657.26 299.155 Z" fill="#000000" fill-rule="nonzero" fill-opacity="1" /><path clip-path="url(#clip710)" d="M3710.54 311.053 L3710.54 313.136 L3690.96 313.136 Q3691.24 317.534 3693.6 319.849 Q3695.98 322.141 3700.22 322.141 Q3702.67 322.141 3704.97 321.539 Q3707.28 320.937 3709.55 319.733 L3709.55 323.761 Q3707.26 324.733 3704.85 325.242 Q3702.44 325.752 3699.97 325.752 Q3693.76 325.752 3690.13 322.141 Q3686.52 318.529 3686.52 312.372 Q3686.52 306.006 3689.94 302.28 Q3693.39 298.53 3699.22 298.53 Q3704.46 298.53 3707.49 301.909 Q3710.54 305.266 3710.54 311.053 M3706.28 309.803 Q3706.24 306.307 3704.32 304.224 Q3702.42 302.141 3699.27 302.141 Q3695.71 302.141 3693.55 304.155 Q3691.42 306.168 3691.1 309.826 L3706.28 309.803 Z" fill="#000000" fill-rule="nonzero" fill-opacity="1" /><path clip-path="url(#clip710)" d="M3734.59 303.09 L3734.59 289.062 L3738.85 289.062 L3738.85 325.08 L3734.59 325.08 L3734.59 321.191 Q3733.25 323.506 3731.19 324.641 Q3729.15 325.752 3726.28 325.752 Q3721.59 325.752 3718.62 322.002 Q3715.68 318.252 3715.68 312.141 Q3715.68 306.03 3718.62 302.28 Q3721.59 298.53 3726.28 298.53 Q3729.15 298.53 3731.19 299.664 Q3733.25 300.775 3734.59 303.09 M3720.08 312.141 Q3720.08 316.84 3722 319.525 Q3723.95 322.187 3727.33 322.187 Q3730.71 322.187 3732.65 319.525 Q3734.59 316.84 3734.59 312.141 Q3734.59 307.442 3732.65 304.78 Q3730.71 302.094 3727.33 302.094 Q3723.95 302.094 3722 304.78 Q3720.08 307.442 3720.08 312.141 Z" fill="#000000" fill-rule="nonzero" fill-opacity="1" /><polyline clip-path="url(#clip710)" style="stroke:#000000; stroke-linecap:round; stroke-linejoin:round; stroke-width:8; stroke-opacity:0.3; fill:none" points="3245.58,359.64 3478.86,359.64 "/>
<path clip-path="url(#clip710)" d="M3543.3 371.99 L3543.3 362.707 L3535.66 362.707 L3535.66 358.865 L3547.93 358.865 L3547.93 373.703 Q3545.22 375.624 3541.96 376.619 Q3538.69 377.592 3534.99 377.592 Q3526.89 377.592 3522.3 372.869 Q3517.74 368.124 3517.74 359.675 Q3517.74 351.203 3522.3 346.481 Q3526.89 341.735 3534.99 341.735 Q3538.37 341.735 3541.4 342.569 Q3544.46 343.402 3547.03 345.022 L3547.03 349.999 Q3544.43 347.8 3541.52 346.689 Q3538.6 345.578 3535.38 345.578 Q3529.04 345.578 3525.85 349.12 Q3522.67 352.661 3522.67 359.675 Q3522.67 366.666 3525.85 370.207 Q3529.04 373.749 3535.38 373.749 Q3537.86 373.749 3539.8 373.332 Q3541.75 372.893 3543.3 371.99 Z" fill="#000000" fill-rule="nonzero" fill-opacity="1" /><path clip-path="url(#clip710)" d="M3571.31 354.976 Q3570.59 354.559 3569.73 354.374 Q3568.9 354.166 3567.88 354.166 Q3564.27 354.166 3562.33 356.527 Q3560.41 358.865 3560.41 363.263 L3560.41 376.92 L3556.12 376.92 L3556.12 350.995 L3560.41 350.995 L3560.41 355.022 Q3561.75 352.661 3563.9 351.527 Q3566.05 350.37 3569.13 350.37 Q3569.57 350.37 3570.1 350.439 Q3570.64 350.485 3571.29 350.601 L3571.31 354.976 Z" fill="#000000" fill-rule="nonzero" fill-opacity="1" /><path clip-path="url(#clip710)" d="M3584.78 353.981 Q3581.35 353.981 3579.36 356.666 Q3577.37 359.328 3577.37 363.981 Q3577.37 368.633 3579.34 371.319 Q3581.33 373.981 3584.78 373.981 Q3588.18 373.981 3590.17 371.295 Q3592.16 368.61 3592.16 363.981 Q3592.16 359.374 3590.17 356.689 Q3588.18 353.981 3584.78 353.981 M3584.78 350.37 Q3590.34 350.37 3593.51 353.981 Q3596.68 357.592 3596.68 363.981 Q3596.68 370.346 3593.51 373.981 Q3590.34 377.592 3584.78 377.592 Q3579.2 377.592 3576.03 373.981 Q3572.88 370.346 3572.88 363.981 Q3572.88 357.592 3576.03 353.981 Q3579.2 350.37 3584.78 350.37 Z" fill="#000000" fill-rule="nonzero" fill-opacity="1" /><path clip-path="url(#clip710)" d="M3603.3 366.689 L3603.3 350.995 L3607.56 350.995 L3607.56 366.527 Q3607.56 370.207 3608.99 372.059 Q3610.43 373.888 3613.3 373.888 Q3616.75 373.888 3618.74 371.689 Q3620.75 369.49 3620.75 365.694 L3620.75 350.995 L3625.01 350.995 L3625.01 376.92 L3620.75 376.92 L3620.75 372.939 Q3619.2 375.3 3617.14 376.457 Q3615.1 377.592 3612.4 377.592 Q3607.93 377.592 3605.61 374.814 Q3603.3 372.036 3603.3 366.689 M3614.02 350.37 L3614.02 350.37 Z" fill="#000000" fill-rule="nonzero" fill-opacity="1" /><path clip-path="url(#clip710)" d="M3655.34 361.272 L3655.34 376.92 L3651.08 376.92 L3651.08 361.411 Q3651.08 357.731 3649.64 355.902 Q3648.21 354.073 3645.34 354.073 Q3641.89 354.073 3639.9 356.272 Q3637.91 358.471 3637.91 362.268 L3637.91 376.92 L3633.62 376.92 L3633.62 350.995 L3637.91 350.995 L3637.91 355.022 Q3639.43 352.684 3641.49 351.527 Q3643.58 350.37 3646.28 350.37 Q3650.75 350.37 3653.04 353.147 Q3655.34 355.902 3655.34 361.272 Z" fill="#000000" fill-rule="nonzero" fill-opacity="1" /><path clip-path="url(#clip710)" d="M3680.89 354.93 L3680.89 340.902 L3685.15 340.902 L3685.15 376.92 L3680.89 376.92 L3680.89 373.031 Q3679.55 375.346 3677.49 376.481 Q3675.45 377.592 3672.58 377.592 Q3667.88 377.592 3664.92 373.842 Q3661.98 370.092 3661.98 363.981 Q3661.98 357.87 3664.92 354.12 Q3667.88 350.37 3672.58 350.37 Q3675.45 350.37 3677.49 351.504 Q3679.55 352.615 3680.89 354.93 M3666.38 363.981 Q3666.38 368.68 3668.3 371.365 Q3670.24 374.027 3673.62 374.027 Q3677 374.027 3678.95 371.365 Q3680.89 368.68 3680.89 363.981 Q3680.89 359.282 3678.95 356.62 Q3677 353.934 3673.62 353.934 Q3670.24 353.934 3668.3 356.62 Q3666.38 359.282 3666.38 363.981 Z" fill="#000000" fill-rule="nonzero" fill-opacity="1" /><path clip-path="url(#clip710)" d="M3713.21 343.634 L3713.21 350.995 L3721.98 350.995 L3721.98 354.305 L3713.21 354.305 L3713.21 368.379 Q3713.21 371.55 3714.06 372.453 Q3714.94 373.356 3717.6 373.356 L3721.98 373.356 L3721.98 376.92 L3717.6 376.92 Q3712.67 376.92 3710.8 375.092 Q3708.92 373.24 3708.92 368.379 L3708.92 354.305 L3705.8 354.305 L3705.8 350.995 L3708.92 350.995 L3708.92 343.634 L3713.21 343.634 Z" fill="#000000" fill-rule="nonzero" fill-opacity="1" /><path clip-path="url(#clip710)" d="M3742.6 354.976 Q3741.89 354.559 3741.03 354.374 Q3740.2 354.166 3739.18 354.166 Q3735.57 354.166 3733.62 356.527 Q3731.7 358.865 3731.7 363.263 L3731.7 376.92 L3727.42 376.92 L3727.42 350.995 L3731.7 350.995 L3731.7 355.022 Q3733.04 352.661 3735.2 351.527 Q3737.35 350.37 3740.43 350.37 Q3740.87 350.37 3741.4 350.439 Q3741.93 350.485 3742.58 350.601 L3742.6 354.976 Z" fill="#000000" fill-rule="nonzero" fill-opacity="1" /><path clip-path="url(#clip710)" d="M3746.63 366.689 L3746.63 350.995 L3750.89 350.995 L3750.89 366.527 Q3750.89 370.207 3752.33 372.059 Q3753.76 373.888 3756.63 373.888 Q3760.08 373.888 3762.07 371.689 Q3764.09 369.49 3764.09 365.694 L3764.09 350.995 L3768.34 350.995 L3768.34 376.92 L3764.09 376.92 L3764.09 372.939 Q3762.53 375.3 3760.47 376.457 Q3758.44 377.592 3755.73 377.592 Q3751.26 377.592 3748.95 374.814 Q3746.63 372.036 3746.63 366.689 M3757.35 350.37 L3757.35 350.37 Z" fill="#000000" fill-rule="nonzero" fill-opacity="1" /><path clip-path="url(#clip710)" d="M3781.33 343.634 L3781.33 350.995 L3790.1 350.995 L3790.1 354.305 L3781.33 354.305 L3781.33 368.379 Q3781.33 371.55 3782.19 372.453 Q3783.07 373.356 3785.73 373.356 L3790.1 373.356 L3790.1 376.92 L3785.73 376.92 Q3780.8 376.92 3778.92 375.092 Q3777.05 373.24 3777.05 368.379 L3777.05 354.305 L3773.92 354.305 L3773.92 350.995 L3777.05 350.995 L3777.05 343.634 L3781.33 343.634 Z" fill="#000000" fill-rule="nonzero" fill-opacity="1" /><path clip-path="url(#clip710)" d="M3817.26 361.272 L3817.26 376.92 L3813 376.92 L3813 361.411 Q3813 357.731 3811.56 355.902 Q3810.13 354.073 3807.26 354.073 Q3803.81 354.073 3801.82 356.272 Q3799.83 358.471 3799.83 362.268 L3799.83 376.92 L3795.54 376.92 L3795.54 340.902 L3799.83 340.902 L3799.83 355.022 Q3801.35 352.684 3803.41 351.527 Q3805.5 350.37 3808.21 350.37 Q3812.67 350.37 3814.96 353.147 Q3817.26 355.902 3817.26 361.272 Z" fill="#000000" fill-rule="nonzero" fill-opacity="1" /><polyline clip-path="url(#clip710)" style="stroke:#ff0000; stroke-linecap:round; stroke-linejoin:round; stroke-width:8; stroke-opacity:0.8; fill:none" points="3245.58,411.48 3478.86,411.48 "/>
<path clip-path="url(#clip710)" d="M3517.74 394.2 L3524.71 394.2 L3533.53 417.719 L3542.4 394.2 L3549.36 394.2 L3549.36 428.76 L3544.8 428.76 L3544.8 398.413 L3535.89 422.117 L3531.19 422.117 L3522.28 398.413 L3522.28 428.76 L3517.74 428.76 L3517.74 394.2 Z" fill="#000000" fill-rule="nonzero" fill-opacity="1" /><path clip-path="url(#clip710)" d="M3563.32 398.043 L3563.32 411.029 L3569.2 411.029 Q3572.47 411.029 3574.25 409.339 Q3576.03 407.649 3576.03 404.524 Q3576.03 401.423 3574.25 399.733 Q3572.47 398.043 3569.2 398.043 L3563.32 398.043 M3558.65 394.2 L3569.2 394.2 Q3575.01 394.2 3577.97 396.839 Q3580.96 399.455 3580.96 404.524 Q3580.96 409.64 3577.97 412.256 Q3575.01 414.872 3569.2 414.872 L3563.32 414.872 L3563.32 428.76 L3558.65 428.76 L3558.65 394.2 Z" fill="#000000" fill-rule="nonzero" fill-opacity="1" /><path clip-path="url(#clip710)" d="M3607.95 395.335 L3607.95 399.895 Q3605.29 398.622 3602.93 397.997 Q3600.57 397.372 3598.37 397.372 Q3594.55 397.372 3592.47 398.853 Q3590.41 400.335 3590.41 403.066 Q3590.41 405.358 3591.77 406.538 Q3593.16 407.696 3597 408.413 L3599.83 408.992 Q3605.06 409.987 3607.53 412.51 Q3610.03 415.01 3610.03 419.223 Q3610.03 424.247 3606.66 426.839 Q3603.3 429.432 3596.79 429.432 Q3594.34 429.432 3591.56 428.876 Q3588.81 428.321 3585.85 427.233 L3585.85 422.418 Q3588.69 424.015 3591.42 424.825 Q3594.16 425.635 3596.79 425.635 Q3600.8 425.635 3602.97 424.061 Q3605.15 422.487 3605.15 419.571 Q3605.15 417.024 3603.58 415.589 Q3602.03 414.154 3598.46 413.436 L3595.61 412.881 Q3590.38 411.839 3588.04 409.617 Q3585.71 407.395 3585.71 403.436 Q3585.71 398.853 3588.92 396.214 Q3592.16 393.575 3597.84 393.575 Q3600.27 393.575 3602.79 394.015 Q3605.31 394.455 3607.95 395.335 Z" fill="#000000" fill-rule="nonzero" fill-opacity="1" /><path clip-path="url(#clip710)" d="M3632.4 394.2 L3637.07 394.2 L3637.07 428.76 L3632.4 428.76 L3632.4 394.2 Z" fill="#000000" fill-rule="nonzero" fill-opacity="1" /><path clip-path="url(#clip710)" d="M3667.74 413.112 L3667.74 428.76 L3663.48 428.76 L3663.48 413.251 Q3663.48 409.571 3662.05 407.742 Q3660.61 405.913 3657.74 405.913 Q3654.29 405.913 3652.3 408.112 Q3650.31 410.311 3650.31 414.108 L3650.31 428.76 L3646.03 428.76 L3646.03 402.835 L3650.31 402.835 L3650.31 406.862 Q3651.84 404.524 3653.9 403.367 Q3655.98 402.21 3658.69 402.21 Q3663.16 402.21 3665.45 404.987 Q3667.74 407.742 3667.74 413.112 Z" fill="#000000" fill-rule="nonzero" fill-opacity="1" /><path clip-path="url(#clip710)" d="M3680.45 395.474 L3680.45 402.835 L3689.22 402.835 L3689.22 406.145 L3680.45 406.145 L3680.45 420.219 Q3680.45 423.39 3681.31 424.293 Q3682.19 425.196 3684.85 425.196 L3689.22 425.196 L3689.22 428.76 L3684.85 428.76 Q3679.92 428.76 3678.04 426.932 Q3676.17 425.08 3676.17 420.219 L3676.17 406.145 L3673.04 406.145 L3673.04 402.835 L3676.17 402.835 L3676.17 395.474 L3680.45 395.474 Z" fill="#000000" fill-rule="nonzero" fill-opacity="1" /><path clip-path="url(#clip710)" d="M3717 414.733 L3717 416.816 L3697.42 416.816 Q3697.7 421.214 3700.06 423.529 Q3702.44 425.821 3706.68 425.821 Q3709.13 425.821 3711.42 425.219 Q3713.74 424.617 3716.01 423.413 L3716.01 427.441 Q3713.71 428.413 3711.31 428.922 Q3708.9 429.432 3706.42 429.432 Q3700.22 429.432 3696.59 425.821 Q3692.97 422.209 3692.97 416.052 Q3692.97 409.686 3696.4 405.96 Q3699.85 402.21 3705.68 402.21 Q3710.91 402.21 3713.95 405.589 Q3717 408.946 3717 414.733 M3712.74 413.483 Q3712.7 409.987 3710.78 407.904 Q3708.88 405.821 3705.73 405.821 Q3702.16 405.821 3700.01 407.835 Q3697.88 409.848 3697.56 413.506 L3712.74 413.483 Z" fill="#000000" fill-rule="nonzero" fill-opacity="1" /><path clip-path="url(#clip710)" d="M3739.02 406.816 Q3738.3 406.399 3737.44 406.214 Q3736.61 406.006 3735.59 406.006 Q3731.98 406.006 3730.03 408.367 Q3728.11 410.705 3728.11 415.103 L3728.11 428.76 L3723.83 428.76 L3723.83 402.835 L3728.11 402.835 L3728.11 406.862 Q3729.46 404.501 3731.61 403.367 Q3733.76 402.21 3736.84 402.21 Q3737.28 402.21 3737.81 402.279 Q3738.34 402.325 3738.99 402.441 L3739.02 406.816 Z" fill="#000000" fill-rule="nonzero" fill-opacity="1" /><path clip-path="url(#clip710)" d="M3747.6 424.871 L3747.6 438.621 L3743.32 438.621 L3743.32 402.835 L3747.6 402.835 L3747.6 406.77 Q3748.95 404.455 3750.98 403.344 Q3753.04 402.21 3755.89 402.21 Q3760.61 402.21 3763.55 405.96 Q3766.52 409.71 3766.52 415.821 Q3766.52 421.932 3763.55 425.682 Q3760.61 429.432 3755.89 429.432 Q3753.04 429.432 3750.98 428.321 Q3748.95 427.186 3747.6 424.871 M3762.09 415.821 Q3762.09 411.122 3760.15 408.46 Q3758.23 405.774 3754.85 405.774 Q3751.47 405.774 3749.52 408.46 Q3747.6 411.122 3747.6 415.821 Q3747.6 420.52 3749.52 423.205 Q3751.47 425.867 3754.85 425.867 Q3758.23 425.867 3760.15 423.205 Q3762.09 420.52 3762.09 415.821 Z" fill="#000000" fill-rule="nonzero" fill-opacity="1" /><path clip-path="url(#clip710)" d="M3783.62 405.821 Q3780.2 405.821 3778.21 408.506 Q3776.21 411.168 3776.21 415.821 Q3776.21 420.473 3778.18 423.159 Q3780.17 425.821 3783.62 425.821 Q3787.02 425.821 3789.02 423.135 Q3791.01 420.45 3791.01 415.821 Q3791.01 411.214 3789.02 408.529 Q3787.02 405.821 3783.62 405.821 M3783.62 402.21 Q3789.18 402.21 3792.35 405.821 Q3795.52 409.432 3795.52 415.821 Q3795.52 422.186 3792.35 425.821 Q3789.18 429.432 3783.62 429.432 Q3778.04 429.432 3774.87 425.821 Q3771.72 422.186 3771.72 415.821 Q3771.72 409.432 3774.87 405.821 Q3778.04 402.21 3783.62 402.21 Z" fill="#000000" fill-rule="nonzero" fill-opacity="1" /><path clip-path="url(#clip710)" d="M3802.58 392.742 L3806.84 392.742 L3806.84 428.76 L3802.58 428.76 L3802.58 392.742 Z" fill="#000000" fill-rule="nonzero" fill-opacity="1" /><path clip-path="url(#clip710)" d="M3827.53 415.728 Q3822.37 415.728 3820.38 416.909 Q3818.39 418.089 3818.39 420.936 Q3818.39 423.205 3819.87 424.547 Q3821.38 425.867 3823.95 425.867 Q3827.49 425.867 3829.62 423.367 Q3831.77 420.844 3831.77 416.677 L3831.77 415.728 L3827.53 415.728 M3836.03 413.969 L3836.03 428.76 L3831.77 428.76 L3831.77 424.825 Q3830.31 427.186 3828.14 428.321 Q3825.96 429.432 3822.81 429.432 Q3818.83 429.432 3816.47 427.209 Q3814.13 424.964 3814.13 421.214 Q3814.13 416.839 3817.05 414.617 Q3819.99 412.395 3825.8 412.395 L3831.77 412.395 L3831.77 411.978 Q3831.77 409.038 3829.83 407.441 Q3827.9 405.821 3824.41 405.821 Q3822.19 405.821 3820.08 406.353 Q3817.97 406.885 3816.03 407.95 L3816.03 404.015 Q3818.37 403.112 3820.57 402.673 Q3822.77 402.21 3824.85 402.21 Q3830.47 402.21 3833.25 405.126 Q3836.03 408.043 3836.03 413.969 Z" fill="#000000" fill-rule="nonzero" fill-opacity="1" /><path clip-path="url(#clip710)" d="M3849.02 395.474 L3849.02 402.835 L3857.79 402.835 L3857.79 406.145 L3849.02 406.145 L3849.02 420.219 Q3849.02 423.39 3849.87 424.293 Q3850.75 425.196 3853.41 425.196 L3857.79 425.196 L3857.79 428.76 L3853.41 428.76 Q3848.48 428.76 3846.61 426.932 Q3844.73 425.08 3844.73 420.219 L3844.73 406.145 L3841.61 406.145 L3841.61 402.835 L3844.73 402.835 L3844.73 395.474 L3849.02 395.474 Z" fill="#000000" fill-rule="nonzero" fill-opacity="1" /><path clip-path="url(#clip710)" d="M3885.57 414.733 L3885.57 416.816 L3865.98 416.816 Q3866.26 421.214 3868.62 423.529 Q3871.01 425.821 3875.24 425.821 Q3877.7 425.821 3879.99 425.219 Q3882.3 424.617 3884.57 423.413 L3884.57 427.441 Q3882.28 428.413 3879.87 428.922 Q3877.46 429.432 3874.99 429.432 Q3868.78 429.432 3865.15 425.821 Q3861.54 422.209 3861.54 416.052 Q3861.54 409.686 3864.96 405.96 Q3868.41 402.21 3874.25 402.21 Q3879.48 402.21 3882.51 405.589 Q3885.57 408.946 3885.57 414.733 M3881.31 413.483 Q3881.26 409.987 3879.34 407.904 Q3877.44 405.821 3874.29 405.821 Q3870.73 405.821 3868.58 407.835 Q3866.45 409.848 3866.12 413.506 L3881.31 413.483 Z" fill="#000000" fill-rule="nonzero" fill-opacity="1" /><path clip-path="url(#clip710)" d="M3909.62 406.77 L3909.62 392.742 L3913.88 392.742 L3913.88 428.76 L3909.62 428.76 L3909.62 424.871 Q3908.27 427.186 3906.21 428.321 Q3904.18 429.432 3901.31 429.432 Q3896.61 429.432 3893.64 425.682 Q3890.7 421.932 3890.7 415.821 Q3890.7 409.71 3893.64 405.96 Q3896.61 402.21 3901.31 402.21 Q3904.18 402.21 3906.21 403.344 Q3908.27 404.455 3909.62 406.77 M3895.1 415.821 Q3895.1 420.52 3897.02 423.205 Q3898.97 425.867 3902.35 425.867 Q3905.73 425.867 3907.67 423.205 Q3909.62 420.52 3909.62 415.821 Q3909.62 411.122 3907.67 408.46 Q3905.73 405.774 3902.35 405.774 Q3898.97 405.774 3897.02 408.46 Q3895.1 411.122 3895.1 415.821 Z" fill="#000000" fill-rule="nonzero" fill-opacity="1" /></svg>
