<?xml version="1.0" encoding="utf-8"?>
<svg xmlns="http://www.w3.org/2000/svg" xmlns:xlink="http://www.w3.org/1999/xlink" width="1000" height="500" viewBox="0 0 4000 2000">
<defs>
  <clipPath id="clip810">
    <rect x="0" y="0" width="4000" height="2000"/>
  </clipPath>
</defs>
<path clip-path="url(#clip810)" d="M0 2000 L4000 2000 L4000 0 L0 0  Z" fill="#ffffff" fill-rule="evenodd" fill-opacity="1"/>
<defs>
  <clipPath id="clip811">
    <rect x="800" y="0" width="2801" height="2000"/>
  </clipPath>
</defs>
<path clip-path="url(#clip810)" d="M308.101 1763.75 L3070.67 1763.75 L3070.67 262.064 L308.101 262.064  Z" fill="#ffffff" fill-rule="evenodd" fill-opacity="1"/>
<defs>
  <clipPath id="clip812">
    <rect x="308" y="262" width="2764" height="1503"/>
  </clipPath>
</defs>
<polyline clip-path="url(#clip812)" style="stroke:#000000; stroke-linecap:round; stroke-linejoin:round; stroke-width:2; stroke-opacity:0.1; fill:none" points="359.962,1763.75 359.962,262.064 "/>
<polyline clip-path="url(#clip812)" style="stroke:#000000; stroke-linecap:round; stroke-linejoin:round; stroke-width:2; stroke-opacity:0.1; fill:none" points="1018.09,1763.75 1018.09,262.064 "/>
<polyline clip-path="url(#clip812)" style="stroke:#000000; stroke-linecap:round; stroke-linejoin:round; stroke-width:2; stroke-opacity:0.1; fill:none" points="1676.22,1763.75 1676.22,262.064 "/>
<polyline clip-path="url(#clip812)" style="stroke:#000000; stroke-linecap:round; stroke-linejoin:round; stroke-width:2; stroke-opacity:0.1; fill:none" points="2334.35,1763.75 2334.35,262.064 "/>
<polyline clip-path="url(#clip812)" style="stroke:#000000; stroke-linecap:round; stroke-linejoin:round; stroke-width:2; stroke-opacity:0.1; fill:none" points="2992.48,1763.75 2992.48,262.064 "/>
<polyline clip-path="url(#clip812)" style="stroke:#000000; stroke-linecap:round; stroke-linejoin:round; stroke-width:2; stroke-opacity:0.1; fill:none" points="308.101,1707.69 3070.67,1707.69 "/>
<polyline clip-path="url(#clip812)" style="stroke:#000000; stroke-linecap:round; stroke-linejoin:round; stroke-width:2; stroke-opacity:0.1; fill:none" points="308.101,1389.91 3070.67,1389.91 "/>
<polyline clip-path="url(#clip812)" style="stroke:#000000; stroke-linecap:round; stroke-linejoin:round; stroke-width:2; stroke-opacity:0.1; fill:none" points="308.101,1072.14 3070.67,1072.14 "/>
<polyline clip-path="url(#clip812)" style="stroke:#000000; stroke-linecap:round; stroke-linejoin:round; stroke-width:2; stroke-opacity:0.1; fill:none" points="308.101,754.357 3070.67,754.357 "/>
<polyline clip-path="url(#clip812)" style="stroke:#000000; stroke-linecap:round; stroke-linejoin:round; stroke-width:2; stroke-opacity:0.1; fill:none" points="308.101,436.578 3070.67,436.578 "/>
<polyline clip-path="url(#clip810)" style="stroke:#000000; stroke-linecap:round; stroke-linejoin:round; stroke-width:4; stroke-opacity:1; fill:none" points="308.101,1763.75 3070.67,1763.75 "/>
<polyline clip-path="url(#clip810)" style="stroke:#000000; stroke-linecap:round; stroke-linejoin:round; stroke-width:4; stroke-opacity:1; fill:none" points="359.962,1763.75 359.962,1744.85 "/>
<polyline clip-path="url(#clip810)" style="stroke:#000000; stroke-linecap:round; stroke-linejoin:round; stroke-width:4; stroke-opacity:1; fill:none" points="1018.09,1763.75 1018.09,1744.85 "/>
<polyline clip-path="url(#clip810)" style="stroke:#000000; stroke-linecap:round; stroke-linejoin:round; stroke-width:4; stroke-opacity:1; fill:none" points="1676.22,1763.75 1676.22,1744.85 "/>
<polyline clip-path="url(#clip810)" style="stroke:#000000; stroke-linecap:round; stroke-linejoin:round; stroke-width:4; stroke-opacity:1; fill:none" points="2334.35,1763.75 2334.35,1744.85 "/>
<polyline clip-path="url(#clip810)" style="stroke:#000000; stroke-linecap:round; stroke-linejoin:round; stroke-width:4; stroke-opacity:1; fill:none" points="2992.48,1763.75 2992.48,1744.85 "/>
<path clip-path="url(#clip810)" d="M359.962 1813.33 Q354.545 1813.33 351.802 1818.67 Q349.094 1823.99 349.094 1834.68 Q349.094 1845.34 351.802 1850.69 Q354.545 1856 359.962 1856 Q365.413 1856 368.121 1850.69 Q370.864 1845.34 370.864 1834.68 Q370.864 1823.99 368.121 1818.67 Q365.413 1813.33 359.962 1813.33 M359.962 1807.77 Q368.677 1807.77 373.26 1814.68 Q377.878 1821.55 377.878 1834.68 Q377.878 1847.77 373.26 1854.68 Q368.677 1861.55 359.962 1861.55 Q351.246 1861.55 346.628 1854.68 Q342.045 1847.77 342.045 1834.68 Q342.045 1821.55 346.628 1814.68 Q351.246 1807.77 359.962 1807.77 Z" fill="#000000" fill-rule="nonzero" fill-opacity="1" /><path clip-path="url(#clip810)" d="M986.999 1854.64 L1011.48 1854.64 L1011.48 1860.55 L978.561 1860.55 L978.561 1854.64 Q982.554 1850.51 989.429 1843.57 Q996.339 1836.59 998.11 1834.58 Q1001.48 1830.79 1002.8 1828.19 Q1004.15 1825.55 1004.15 1823.01 Q1004.15 1818.88 1001.23 1816.28 Q998.353 1813.67 993.7 1813.67 Q990.401 1813.67 986.721 1814.82 Q983.075 1815.96 978.908 1818.29 L978.908 1811.21 Q983.144 1809.51 986.825 1808.64 Q990.506 1807.77 993.561 1807.77 Q1001.62 1807.77 1006.41 1811.8 Q1011.2 1815.83 1011.2 1822.56 Q1011.2 1825.76 1009.98 1828.64 Q1008.8 1831.49 1005.64 1835.37 Q1004.78 1836.38 1000.12 1841.21 Q995.471 1846 986.999 1854.64 Z" fill="#000000" fill-rule="nonzero" fill-opacity="1" /><path clip-path="url(#clip810)" d="M1026.27 1808.71 L1053.8 1808.71 L1053.8 1814.61 L1032.69 1814.61 L1032.69 1827.32 Q1034.22 1826.8 1035.75 1826.55 Q1037.28 1826.28 1038.8 1826.28 Q1047.48 1826.28 1052.55 1831.03 Q1057.62 1835.79 1057.62 1843.92 Q1057.62 1852.28 1052.41 1856.94 Q1047.21 1861.55 1037.73 1861.55 Q1034.46 1861.55 1031.06 1861 Q1027.69 1860.44 1024.08 1859.33 L1024.08 1852.28 Q1027.21 1853.99 1030.54 1854.82 Q1033.87 1855.65 1037.59 1855.65 Q1043.6 1855.65 1047.1 1852.49 Q1050.61 1849.33 1050.61 1843.92 Q1050.61 1838.5 1047.1 1835.34 Q1043.6 1832.18 1037.59 1832.18 Q1034.78 1832.18 1031.96 1832.8 Q1029.19 1833.43 1026.27 1834.75 L1026.27 1808.71 Z" fill="#000000" fill-rule="nonzero" fill-opacity="1" /><path clip-path="url(#clip810)" d="M1638.27 1808.71 L1665.81 1808.71 L1665.81 1814.61 L1644.7 1814.61 L1644.7 1827.32 Q1646.22 1826.8 1647.75 1826.55 Q1649.28 1826.28 1650.81 1826.28 Q1659.49 1826.28 1664.56 1831.03 Q1669.63 1835.79 1669.63 1843.92 Q1669.63 1852.28 1664.42 1856.94 Q1659.21 1861.55 1649.73 1861.55 Q1646.47 1861.55 1643.06 1861 Q1639.7 1860.44 1636.08 1859.33 L1636.08 1852.28 Q1639.21 1853.99 1642.54 1854.82 Q1645.88 1855.65 1649.59 1855.65 Q1655.6 1855.65 1659.1 1852.49 Q1662.61 1849.33 1662.61 1843.92 Q1662.61 1838.5 1659.1 1835.34 Q1655.6 1832.18 1649.59 1832.18 Q1646.78 1832.18 1643.97 1832.8 Q1641.19 1833.43 1638.27 1834.75 L1638.27 1808.71 Z" fill="#000000" fill-rule="nonzero" fill-opacity="1" /><path clip-path="url(#clip810)" d="M1698.44 1813.33 Q1693.03 1813.33 1690.29 1818.67 Q1687.58 1823.99 1687.58 1834.68 Q1687.58 1845.34 1690.29 1850.69 Q1693.03 1856 1698.44 1856 Q1703.9 1856 1706.6 1850.69 Q1709.35 1845.34 1709.35 1834.68 Q1709.35 1823.99 1706.6 1818.67 Q1703.9 1813.33 1698.44 1813.33 M1698.44 1807.77 Q1707.16 1807.77 1711.74 1814.68 Q1716.36 1821.55 1716.36 1834.68 Q1716.36 1847.77 1711.74 1854.68 Q1707.16 1861.55 1698.44 1861.55 Q1689.73 1861.55 1685.11 1854.68 Q1680.53 1847.77 1680.53 1834.68 Q1680.53 1821.55 1685.11 1814.68 Q1689.73 1807.77 1698.44 1807.77 Z" fill="#000000" fill-rule="nonzero" fill-opacity="1" /><path clip-path="url(#clip810)" d="M2295.13 1808.71 L2328.47 1808.71 L2328.47 1811.69 L2309.65 1860.55 L2302.32 1860.55 L2320.03 1814.61 L2295.13 1814.61 L2295.13 1808.71 Z" fill="#000000" fill-rule="nonzero" fill-opacity="1" /><path clip-path="url(#clip810)" d="M2342.22 1808.71 L2369.75 1808.71 L2369.75 1814.61 L2348.64 1814.61 L2348.64 1827.32 Q2350.17 1826.8 2351.7 1826.55 Q2353.22 1826.28 2354.75 1826.28 Q2363.43 1826.28 2368.5 1831.03 Q2373.57 1835.79 2373.57 1843.92 Q2373.57 1852.28 2368.36 1856.94 Q2363.16 1861.55 2353.68 1861.55 Q2350.41 1861.55 2347.01 1861 Q2343.64 1860.44 2340.03 1859.33 L2340.03 1852.28 Q2343.16 1853.99 2346.49 1854.82 Q2349.82 1855.65 2353.54 1855.65 Q2359.54 1855.65 2363.05 1852.49 Q2366.56 1849.33 2366.56 1843.92 Q2366.56 1838.5 2363.05 1835.34 Q2359.54 1832.18 2353.54 1832.18 Q2350.72 1832.18 2347.91 1832.8 Q2345.13 1833.43 2342.22 1834.75 L2342.22 1808.71 Z" fill="#000000" fill-rule="nonzero" fill-opacity="1" /><path clip-path="url(#clip810)" d="M2931.89 1854.64 L2943.35 1854.64 L2943.35 1815.1 L2930.89 1817.6 L2930.89 1811.21 L2943.28 1808.71 L2950.3 1808.71 L2950.3 1854.64 L2961.75 1854.64 L2961.75 1860.55 L2931.89 1860.55 L2931.89 1854.64 Z" fill="#000000" fill-rule="nonzero" fill-opacity="1" /><path clip-path="url(#clip810)" d="M2990.92 1813.33 Q2985.5 1813.33 2982.76 1818.67 Q2980.05 1823.99 2980.05 1834.68 Q2980.05 1845.34 2982.76 1850.69 Q2985.5 1856 2990.92 1856 Q2996.37 1856 2999.08 1850.69 Q3001.82 1845.34 3001.82 1834.68 Q3001.82 1823.99 2999.08 1818.67 Q2996.37 1813.33 2990.92 1813.33 M2990.92 1807.77 Q2999.64 1807.77 3004.22 1814.68 Q3008.84 1821.55 3008.84 1834.68 Q3008.84 1847.77 3004.22 1854.68 Q2999.64 1861.55 2990.92 1861.55 Q2982.21 1861.55 2977.59 1854.68 Q2973 1847.77 2973 1834.68 Q2973 1821.55 2977.59 1814.68 Q2982.21 1807.77 2990.92 1807.77 Z" fill="#000000" fill-rule="nonzero" fill-opacity="1" /><path clip-path="url(#clip810)" d="M3036.16 1813.33 Q3030.75 1813.33 3028 1818.67 Q3025.3 1823.99 3025.3 1834.68 Q3025.3 1845.34 3028 1850.69 Q3030.75 1856 3036.16 1856 Q3041.62 1856 3044.32 1850.69 Q3047.07 1845.34 3047.07 1834.68 Q3047.07 1823.99 3044.32 1818.67 Q3041.62 1813.33 3036.16 1813.33 M3036.16 1807.77 Q3044.88 1807.77 3049.46 1814.68 Q3054.08 1821.55 3054.08 1834.68 Q3054.08 1847.77 3049.46 1854.68 Q3044.88 1861.55 3036.16 1861.55 Q3027.45 1861.55 3022.83 1854.68 Q3018.25 1847.77 3018.25 1834.68 Q3018.25 1821.55 3022.83 1814.68 Q3027.45 1807.77 3036.16 1807.77 Z" fill="#000000" fill-rule="nonzero" fill-opacity="1" /><path clip-path="url(#clip810)" d="M1628.55 1912.76 L1628.55 1922.88 L1640.61 1922.88 L1640.61 1927.44 L1628.55 1927.44 L1628.55 1946.79 Q1628.55 1951.15 1629.72 1952.39 Q1630.93 1953.63 1634.59 1953.63 L1640.61 1953.63 L1640.61 1958.53 L1634.59 1958.53 Q1627.81 1958.53 1625.23 1956.02 Q1622.66 1953.47 1622.66 1946.79 L1622.66 1927.44 L1618.36 1927.44 L1618.36 1922.88 L1622.66 1922.88 L1622.66 1912.76 L1628.55 1912.76 Z" fill="#000000" fill-rule="nonzero" fill-opacity="1" /><path clip-path="url(#clip810)" d="M1648.31 1922.88 L1654.17 1922.88 L1654.17 1958.53 L1648.31 1958.53 L1648.31 1922.88 M1648.31 1909.01 L1654.17 1909.01 L1654.17 1916.42 L1648.31 1916.42 L1648.31 1909.01 Z" fill="#000000" fill-rule="nonzero" fill-opacity="1" /><path clip-path="url(#clip810)" d="M1694.18 1929.73 Q1696.37 1925.78 1699.43 1923.9 Q1702.48 1922.02 1706.62 1922.02 Q1712.19 1922.02 1715.21 1925.94 Q1718.24 1929.82 1718.24 1937.02 L1718.24 1958.53 L1712.35 1958.53 L1712.35 1937.21 Q1712.35 1932.08 1710.54 1929.6 Q1708.72 1927.12 1705 1927.12 Q1700.45 1927.12 1697.8 1930.14 Q1695.16 1933.16 1695.16 1938.38 L1695.16 1958.53 L1689.27 1958.53 L1689.27 1937.21 Q1689.27 1932.05 1687.46 1929.6 Q1685.65 1927.12 1681.86 1927.12 Q1677.37 1927.12 1674.73 1930.17 Q1672.09 1933.2 1672.09 1938.38 L1672.09 1958.53 L1666.2 1958.53 L1666.2 1922.88 L1672.09 1922.88 L1672.09 1928.42 Q1674.09 1925.14 1676.89 1923.58 Q1679.69 1922.02 1683.54 1922.02 Q1687.43 1922.02 1690.13 1924 Q1692.87 1925.97 1694.18 1929.73 Z" fill="#000000" fill-rule="nonzero" fill-opacity="1" /><path clip-path="url(#clip810)" d="M1760.41 1939.24 L1760.41 1942.11 L1733.48 1942.11 Q1733.87 1948.16 1737.11 1951.34 Q1740.39 1954.49 1746.22 1954.49 Q1749.59 1954.49 1752.74 1953.66 Q1755.92 1952.83 1759.04 1951.18 L1759.04 1956.72 Q1755.89 1958.05 1752.58 1958.75 Q1749.27 1959.45 1745.87 1959.45 Q1737.34 1959.45 1732.34 1954.49 Q1727.37 1949.52 1727.37 1941.06 Q1727.37 1932.31 1732.08 1927.18 Q1736.83 1922.02 1744.85 1922.02 Q1752.04 1922.02 1756.21 1926.67 Q1760.41 1931.29 1760.41 1939.24 M1754.55 1937.52 Q1754.49 1932.72 1751.85 1929.85 Q1749.24 1926.99 1744.91 1926.99 Q1740.01 1926.99 1737.05 1929.76 Q1734.12 1932.53 1733.67 1937.56 L1754.55 1937.52 Z" fill="#000000" fill-rule="nonzero" fill-opacity="1" /><polyline clip-path="url(#clip810)" style="stroke:#000000; stroke-linecap:round; stroke-linejoin:round; stroke-width:4; stroke-opacity:1; fill:none" points="308.101,1763.75 308.101,262.064 "/>
<polyline clip-path="url(#clip810)" style="stroke:#000000; stroke-linecap:round; stroke-linejoin:round; stroke-width:4; stroke-opacity:1; fill:none" points="308.101,1707.69 322.425,1707.69 "/>
<polyline clip-path="url(#clip810)" style="stroke:#000000; stroke-linecap:round; stroke-linejoin:round; stroke-width:4; stroke-opacity:1; fill:none" points="308.101,1389.91 322.425,1389.91 "/>
<polyline clip-path="url(#clip810)" style="stroke:#000000; stroke-linecap:round; stroke-linejoin:round; stroke-width:4; stroke-opacity:1; fill:none" points="308.101,1072.14 322.425,1072.14 "/>
<polyline clip-path="url(#clip810)" style="stroke:#000000; stroke-linecap:round; stroke-linejoin:round; stroke-width:4; stroke-opacity:1; fill:none" points="308.101,754.357 322.425,754.357 "/>
<polyline clip-path="url(#clip810)" style="stroke:#000000; stroke-linecap:round; stroke-linejoin:round; stroke-width:4; stroke-opacity:1; fill:none" points="308.101,436.578 322.425,436.578 "/>
<path clip-path="url(#clip810)" d="M157.372 1708.37 L201.886 1708.37 L201.886 1714.27 L157.372 1714.27 L157.372 1708.37 Z" fill="#000000" fill-rule="nonzero" fill-opacity="1" /><path clip-path="url(#clip810)" d="M218.24 1727.71 L229.698 1727.71 L229.698 1688.16 L217.233 1690.66 L217.233 1684.27 L229.629 1681.77 L236.643 1681.77 L236.643 1727.71 L248.101 1727.71 L248.101 1733.61 L218.24 1733.61 L218.24 1727.71 Z" fill="#000000" fill-rule="nonzero" fill-opacity="1" /><path clip-path="url(#clip810)" d="M230.184 1368.61 Q224.768 1368.61 222.025 1373.96 Q219.316 1379.27 219.316 1389.97 Q219.316 1400.63 222.025 1405.97 Q224.768 1411.29 230.184 1411.29 Q235.636 1411.29 238.344 1405.97 Q241.087 1400.63 241.087 1389.97 Q241.087 1379.27 238.344 1373.96 Q235.636 1368.61 230.184 1368.61 M230.184 1363.06 Q238.9 1363.06 243.483 1369.97 Q248.101 1376.84 248.101 1389.97 Q248.101 1403.06 243.483 1409.97 Q238.9 1416.84 230.184 1416.84 Q221.469 1416.84 216.851 1409.97 Q212.268 1403.06 212.268 1389.97 Q212.268 1376.84 216.851 1369.97 Q221.469 1363.06 230.184 1363.06 Z" fill="#000000" fill-rule="nonzero" fill-opacity="1" /><path clip-path="url(#clip810)" d="M218.24 1092.15 L229.698 1092.15 L229.698 1052.6 L217.233 1055.1 L217.233 1048.72 L229.629 1046.22 L236.643 1046.22 L236.643 1092.15 L248.101 1092.15 L248.101 1098.06 L218.24 1098.06 L218.24 1092.15 Z" fill="#000000" fill-rule="nonzero" fill-opacity="1" /><path clip-path="url(#clip810)" d="M223.622 774.374 L248.101 774.374 L248.101 780.277 L215.184 780.277 L215.184 774.374 Q219.178 770.242 226.052 763.298 Q232.962 756.319 234.733 754.305 Q238.101 750.52 239.42 747.916 Q240.775 745.277 240.775 742.742 Q240.775 738.61 237.858 736.006 Q234.976 733.402 230.323 733.402 Q227.025 733.402 223.344 734.548 Q219.698 735.694 215.532 738.02 L215.532 730.937 Q219.768 729.235 223.448 728.367 Q227.129 727.499 230.184 727.499 Q238.24 727.499 243.032 731.527 Q247.823 735.555 247.823 742.291 Q247.823 745.485 246.608 748.367 Q245.427 751.215 242.268 755.103 Q241.4 756.11 236.747 760.937 Q232.094 765.728 223.622 774.374 Z" fill="#000000" fill-rule="nonzero" fill-opacity="1" /><path clip-path="url(#clip810)" d="M237.407 434.547 Q242.441 435.623 245.254 439.026 Q248.101 442.429 248.101 447.429 Q248.101 455.102 242.823 459.304 Q237.545 463.505 227.823 463.505 Q224.559 463.505 221.087 462.845 Q217.65 462.22 213.969 460.936 L213.969 454.165 Q216.886 455.866 220.358 456.734 Q223.83 457.602 227.615 457.602 Q234.212 457.602 237.65 454.998 Q241.122 452.394 241.122 447.429 Q241.122 442.845 237.893 440.276 Q234.698 437.672 228.969 437.672 L222.927 437.672 L222.927 431.908 L229.247 431.908 Q234.42 431.908 237.164 429.859 Q239.907 427.776 239.907 423.887 Q239.907 419.894 237.059 417.776 Q234.247 415.623 228.969 415.623 Q226.087 415.623 222.789 416.248 Q219.49 416.873 215.532 418.193 L215.532 411.943 Q219.525 410.832 222.997 410.276 Q226.504 409.721 229.594 409.721 Q237.58 409.721 242.233 413.366 Q246.886 416.977 246.886 423.158 Q246.886 427.464 244.42 430.45 Q241.955 433.401 237.407 434.547 Z" fill="#000000" fill-rule="nonzero" fill-opacity="1" /><path clip-path="url(#clip810)" d="M47.4683 996.291 L64.8149 1009.18 L83.1163 995.623 L83.1163 1002.53 L69.1117 1012.91 L83.1163 1023.28 L83.1163 1030.19 L64.4648 1016.34 L47.4683 1029.01 L47.4683 1022.1 L60.1679 1012.65 L47.4683 1003.2 L47.4683 996.291 Z" fill="#000000" fill-rule="nonzero" fill-opacity="1" /><path clip-path="url(#clip810)" d="M860.388 44.3209 L860.388 52.3012 Q855.73 50.0732 851.598 48.9795 Q847.466 47.8857 843.617 47.8857 Q836.933 47.8857 833.288 50.4783 Q829.682 53.0709 829.682 57.851 Q829.682 61.8614 832.072 63.9273 Q834.503 65.9528 841.227 67.2086 L846.169 68.2213 Q855.324 69.9632 859.659 74.3787 Q864.034 78.7536 864.034 86.1263 Q864.034 94.9167 858.12 99.4537 Q852.246 103.991 840.863 103.991 Q836.569 103.991 831.708 103.019 Q826.887 102.046 821.702 100.142 L821.702 91.7165 Q826.685 94.5116 831.465 95.9295 Q836.245 97.3473 840.863 97.3473 Q847.871 97.3473 851.679 94.5927 Q855.486 91.838 855.486 86.7339 Q855.486 82.2779 852.732 79.7664 Q850.018 77.2548 843.779 75.999 L838.797 75.0268 Q829.642 73.2039 825.55 69.315 Q821.459 65.4262 821.459 58.4991 Q821.459 50.4783 827.09 45.8603 Q832.761 41.2423 842.686 41.2423 Q846.939 41.2423 851.355 42.0119 Q855.77 42.7816 860.388 44.3209 Z" fill="#000000" fill-rule="nonzero" fill-opacity="1" /><path clip-path="url(#clip810)" d="M897.089 80.0094 Q888.056 80.0094 884.572 82.0754 Q881.088 84.1413 881.088 89.1239 Q881.088 93.0938 883.681 95.4434 Q886.314 97.7524 890.81 97.7524 Q897.008 97.7524 900.735 93.3774 Q904.502 88.9619 904.502 81.6703 L904.502 80.0094 L897.089 80.0094 M911.956 76.9307 L911.956 102.816 L904.502 102.816 L904.502 95.9295 Q901.95 100.061 898.143 102.046 Q894.335 103.991 888.825 103.991 Q881.858 103.991 877.726 100.102 Q873.635 96.1725 873.635 89.6101 Q873.635 81.9538 878.739 78.065 Q883.883 74.1761 894.051 74.1761 L904.502 74.1761 L904.502 73.4469 Q904.502 68.3023 901.1 65.5072 Q897.737 62.6715 891.621 62.6715 Q887.732 62.6715 884.045 63.6032 Q880.359 64.535 876.956 66.3984 L876.956 59.5118 Q881.048 57.932 884.896 57.1623 Q888.744 56.3521 892.39 56.3521 Q902.234 56.3521 907.095 61.4563 Q911.956 66.5604 911.956 76.9307 Z" fill="#000000" fill-rule="nonzero" fill-opacity="1" /><path clip-path="url(#clip810)" d="M962.633 66.1553 Q965.428 61.1322 969.317 58.7422 Q973.206 56.3521 978.472 56.3521 Q985.561 56.3521 989.409 61.3347 Q993.258 66.2768 993.258 75.4319 L993.258 102.816 L985.764 102.816 L985.764 75.6749 Q985.764 69.153 983.455 65.9933 Q981.146 62.8336 976.406 62.8336 Q970.613 62.8336 967.251 66.6819 Q963.889 70.5303 963.889 77.1738 L963.889 102.816 L956.395 102.816 L956.395 75.6749 Q956.395 69.1125 954.085 65.9933 Q951.776 62.8336 946.956 62.8336 Q941.244 62.8336 937.882 66.7224 Q934.52 70.5708 934.52 77.1738 L934.52 102.816 L927.025 102.816 L927.025 57.4459 L934.52 57.4459 L934.52 64.4944 Q937.072 60.322 940.636 58.3371 Q944.201 56.3521 949.103 56.3521 Q954.045 56.3521 957.488 58.8637 Q960.972 61.3752 962.633 66.1553 Z" fill="#000000" fill-rule="nonzero" fill-opacity="1" /><path clip-path="url(#clip810)" d="M1015.34 96.0105 L1015.34 120.073 L1007.84 120.073 L1007.84 57.4459 L1015.34 57.4459 L1015.34 64.3324 Q1017.68 60.2815 1021.25 58.3371 Q1024.85 56.3521 1029.84 56.3521 Q1038.1 56.3521 1043.25 62.9146 Q1048.43 69.4771 1048.43 80.1714 Q1048.43 90.8658 1043.25 97.4283 Q1038.1 103.991 1029.84 103.991 Q1024.85 103.991 1021.25 102.046 Q1017.68 100.061 1015.34 96.0105 M1040.69 80.1714 Q1040.69 71.9481 1037.29 67.2896 Q1033.93 62.5905 1028.01 62.5905 Q1022.1 62.5905 1018.7 67.2896 Q1015.34 71.9481 1015.34 80.1714 Q1015.34 88.3948 1018.7 93.0938 Q1022.1 97.7524 1028.01 97.7524 Q1033.93 97.7524 1037.29 93.0938 Q1040.69 88.3948 1040.69 80.1714 Z" fill="#000000" fill-rule="nonzero" fill-opacity="1" /><path clip-path="url(#clip810)" d="M1060.79 39.7839 L1068.24 39.7839 L1068.24 102.816 L1060.79 102.816 L1060.79 39.7839 Z" fill="#000000" fill-rule="nonzero" fill-opacity="1" /><path clip-path="url(#clip810)" d="M1122.64 78.2675 L1122.64 81.9133 L1088.37 81.9133 Q1088.86 89.6101 1092.99 93.661 Q1097.16 97.6714 1104.58 97.6714 Q1108.87 97.6714 1112.88 96.6181 Q1116.93 95.5649 1120.9 93.4584 L1120.9 100.507 Q1116.89 102.208 1112.68 103.1 Q1108.47 103.991 1104.13 103.991 Q1093.27 103.991 1086.91 97.6714 Q1080.6 91.3519 1080.6 80.5765 Q1080.6 69.4365 1086.59 62.9146 Q1092.63 56.3521 1102.83 56.3521 Q1111.99 56.3521 1117.3 62.2664 Q1122.64 68.1403 1122.64 78.2675 M1115.19 76.08 Q1115.11 69.9632 1111.75 66.3174 Q1108.42 62.6715 1102.92 62.6715 Q1096.68 62.6715 1092.91 66.1958 Q1089.18 69.7201 1088.62 76.1205 L1115.19 76.08 Z" fill="#000000" fill-rule="nonzero" fill-opacity="1" /><path clip-path="url(#clip810)" d="M1162.38 42.336 L1194.51 42.336 L1194.51 49.2225 L1169.88 49.2225 L1169.88 64.0488 Q1171.66 63.4412 1173.44 63.1576 Q1175.22 62.8336 1177.01 62.8336 Q1187.13 62.8336 1193.05 68.3833 Q1198.96 73.9331 1198.96 83.4122 Q1198.96 93.1748 1192.89 98.6031 Q1186.81 103.991 1175.75 103.991 Q1171.94 103.991 1167.97 103.343 Q1164.04 102.694 1159.83 101.398 L1159.83 93.1748 Q1163.48 95.1598 1167.37 96.132 Q1171.25 97.1042 1175.59 97.1042 Q1182.6 97.1042 1186.69 93.4179 Q1190.78 89.7316 1190.78 83.4122 Q1190.78 77.0928 1186.69 73.4064 Q1182.6 69.7201 1175.59 69.7201 Q1172.31 69.7201 1169.03 70.4493 Q1165.79 71.1784 1162.38 72.7178 L1162.38 42.336 Z" fill="#000000" fill-rule="nonzero" fill-opacity="1" /><path clip-path="url(#clip810)" d="M1233.6 69.315 Q1228.09 69.315 1224.85 73.0824 Q1221.65 76.8497 1221.65 83.4122 Q1221.65 89.9341 1224.85 93.742 Q1228.09 97.5093 1233.6 97.5093 Q1239.11 97.5093 1242.31 93.742 Q1245.55 89.9341 1245.55 83.4122 Q1245.55 76.8497 1242.31 73.0824 Q1239.11 69.315 1233.6 69.315 M1249.84 43.6728 L1249.84 51.1265 Q1246.76 49.6681 1243.6 48.8985 Q1240.48 48.1288 1237.41 48.1288 Q1229.3 48.1288 1225.01 53.5975 Q1220.76 59.0662 1220.15 70.1252 Q1222.54 66.6009 1226.14 64.7375 Q1229.75 62.8336 1234.08 62.8336 Q1243.2 62.8336 1248.46 68.3833 Q1253.77 73.8925 1253.77 83.4122 Q1253.77 92.7292 1248.26 98.36 Q1242.75 103.991 1233.6 103.991 Q1223.11 103.991 1217.56 95.97 Q1212.01 87.9087 1212.01 72.6368 Q1212.01 58.2966 1218.81 49.7897 Q1225.62 41.2423 1237.08 41.2423 Q1240.16 41.2423 1243.28 41.8499 Q1246.44 42.4575 1249.84 43.6728 Z" fill="#000000" fill-rule="nonzero" fill-opacity="1" /><path clip-path="url(#clip810)" d="M1268.72 92.5267 L1277.27 92.5267 L1277.27 99.4943 L1270.62 112.457 L1265.4 112.457 L1268.72 99.4943 L1268.72 92.5267 Z" fill="#000000" fill-rule="nonzero" fill-opacity="1" /><path clip-path="url(#clip810)" d="M1365.17 46.9945 L1365.17 55.623 Q1361.04 51.7746 1356.34 49.8707 Q1351.68 47.9668 1346.42 47.9668 Q1336.05 47.9668 1330.54 54.3267 Q1325.03 60.6461 1325.03 72.6368 Q1325.03 84.5869 1330.54 90.9469 Q1336.05 97.2663 1346.42 97.2663 Q1351.68 97.2663 1356.34 95.3623 Q1361.04 93.4584 1365.17 89.6101 L1365.17 98.1575 Q1360.88 101.074 1356.06 102.532 Q1351.28 103.991 1345.93 103.991 Q1332.2 103.991 1324.3 95.6054 Q1316.4 87.1795 1316.4 72.6368 Q1316.4 58.0535 1324.3 49.6681 Q1332.2 41.2423 1345.93 41.2423 Q1351.36 41.2423 1356.14 42.7006 Q1360.96 44.1184 1365.17 46.9945 Z" fill="#000000" fill-rule="nonzero" fill-opacity="1" /><path clip-path="url(#clip810)" d="M1377.49 39.7839 L1384.94 39.7839 L1384.94 102.816 L1377.49 102.816 L1377.49 39.7839 Z" fill="#000000" fill-rule="nonzero" fill-opacity="1" /><path clip-path="url(#clip810)" d="M1421.15 80.0094 Q1412.12 80.0094 1408.64 82.0754 Q1405.15 84.1413 1405.15 89.1239 Q1405.15 93.0938 1407.75 95.4434 Q1410.38 97.7524 1414.88 97.7524 Q1421.07 97.7524 1424.8 93.3774 Q1428.57 88.9619 1428.57 81.6703 L1428.57 80.0094 L1421.15 80.0094 M1436.02 76.9307 L1436.02 102.816 L1428.57 102.816 L1428.57 95.9295 Q1426.02 100.061 1422.21 102.046 Q1418.4 103.991 1412.89 103.991 Q1405.92 103.991 1401.79 100.102 Q1397.7 96.1725 1397.7 89.6101 Q1397.7 81.9538 1402.8 78.065 Q1407.95 74.1761 1418.12 74.1761 L1428.57 74.1761 L1428.57 73.4469 Q1428.57 68.3023 1425.17 65.5072 Q1421.8 62.6715 1415.69 62.6715 Q1411.8 62.6715 1408.11 63.6032 Q1404.42 64.535 1401.02 66.3984 L1401.02 59.5118 Q1405.11 57.932 1408.96 57.1623 Q1412.81 56.3521 1416.46 56.3521 Q1426.3 56.3521 1431.16 61.4563 Q1436.02 66.5604 1436.02 76.9307 Z" fill="#000000" fill-rule="nonzero" fill-opacity="1" /><path clip-path="url(#clip810)" d="M1480.3 58.7827 L1480.3 65.8312 Q1477.14 64.2109 1473.74 63.4007 Q1470.33 62.5905 1466.69 62.5905 Q1461.14 62.5905 1458.34 64.2919 Q1455.59 65.9933 1455.59 69.396 Q1455.59 71.9886 1457.57 73.4875 Q1459.56 74.9458 1465.55 76.2826 L1468.1 76.8497 Q1476.04 78.5511 1479.37 81.6703 Q1482.73 84.749 1482.73 90.2987 Q1482.73 96.6181 1477.71 100.304 Q1472.72 103.991 1463.97 103.991 Q1460.33 103.991 1456.36 103.262 Q1452.43 102.573 1448.05 101.155 L1448.05 93.4584 Q1452.18 95.6054 1456.2 96.6991 Q1460.21 97.7524 1464.13 97.7524 Q1469.4 97.7524 1472.24 95.97 Q1475.07 94.1471 1475.07 90.8658 Q1475.07 87.8277 1473.01 86.2073 Q1470.98 84.5869 1464.05 83.0881 L1461.46 82.4805 Q1454.53 81.0221 1451.46 78.0245 Q1448.38 74.9863 1448.38 69.7201 Q1448.38 63.3197 1452.91 59.8359 Q1457.45 56.3521 1465.8 56.3521 Q1469.93 56.3521 1473.57 56.9598 Q1477.22 57.5674 1480.3 58.7827 Z" fill="#000000" fill-rule="nonzero" fill-opacity="1" /><path clip-path="url(#clip810)" d="M1523.52 58.7827 L1523.52 65.8312 Q1520.36 64.2109 1516.96 63.4007 Q1513.56 62.5905 1509.91 62.5905 Q1504.36 62.5905 1501.57 64.2919 Q1498.81 65.9933 1498.81 69.396 Q1498.81 71.9886 1500.8 73.4875 Q1502.78 74.9458 1508.78 76.2826 L1511.33 76.8497 Q1519.27 78.5511 1522.59 81.6703 Q1525.95 84.749 1525.95 90.2987 Q1525.95 96.6181 1520.93 100.304 Q1515.95 103.991 1507.2 103.991 Q1503.55 103.991 1499.58 103.262 Q1495.65 102.573 1491.28 101.155 L1491.28 93.4584 Q1495.41 95.6054 1499.42 96.6991 Q1503.43 97.7524 1507.36 97.7524 Q1512.62 97.7524 1515.46 95.97 Q1518.3 94.1471 1518.3 90.8658 Q1518.3 87.8277 1516.23 86.2073 Q1514.2 84.5869 1507.28 83.0881 L1504.68 82.4805 Q1497.76 81.0221 1494.68 78.0245 Q1491.6 74.9863 1491.6 69.7201 Q1491.6 63.3197 1496.14 59.8359 Q1500.67 56.3521 1509.02 56.3521 Q1513.15 56.3521 1516.8 56.9598 Q1520.44 57.5674 1523.52 58.7827 Z" fill="#000000" fill-rule="nonzero" fill-opacity="1" /><path clip-path="url(#clip810)" d="M1582.75 47.7237 Q1576.43 47.7237 1573.23 53.9621 Q1570.07 60.16 1570.07 72.6368 Q1570.07 85.073 1573.23 91.3114 Q1576.43 97.5093 1582.75 97.5093 Q1589.11 97.5093 1592.26 91.3114 Q1595.47 85.073 1595.47 72.6368 Q1595.47 60.16 1592.26 53.9621 Q1589.11 47.7237 1582.75 47.7237 M1582.75 41.2423 Q1592.91 41.2423 1598.26 49.3036 Q1603.65 57.3243 1603.65 72.6368 Q1603.65 87.9087 1598.26 95.97 Q1592.91 103.991 1582.75 103.991 Q1572.58 103.991 1567.19 95.97 Q1561.84 87.9087 1561.84 72.6368 Q1561.84 57.3243 1567.19 49.3036 Q1572.58 41.2423 1582.75 41.2423 Z" fill="#000000" fill-rule="nonzero" fill-opacity="1" /><path clip-path="url(#clip810)" d="M1618.88 92.5267 L1627.43 92.5267 L1627.43 99.4943 L1620.78 112.457 L1615.56 112.457 L1618.88 99.4943 L1618.88 92.5267 Z" fill="#000000" fill-rule="nonzero" fill-opacity="1" /><path clip-path="url(#clip810)" d="M1670.85 42.336 L1702.98 42.336 L1702.98 49.2225 L1678.35 49.2225 L1678.35 64.0488 Q1680.13 63.4412 1681.91 63.1576 Q1683.69 62.8336 1685.48 62.8336 Q1695.6 62.8336 1701.52 68.3833 Q1707.43 73.9331 1707.43 83.4122 Q1707.43 93.1748 1701.36 98.6031 Q1695.28 103.991 1684.22 103.991 Q1680.41 103.991 1676.44 103.343 Q1672.51 102.694 1668.3 101.398 L1668.3 93.1748 Q1671.95 95.1598 1675.84 96.132 Q1679.72 97.1042 1684.06 97.1042 Q1691.07 97.1042 1695.16 93.4179 Q1699.25 89.7316 1699.25 83.4122 Q1699.25 77.0928 1695.16 73.4064 Q1691.07 69.7201 1684.06 69.7201 Q1680.78 69.7201 1677.5 70.4493 Q1674.26 71.1784 1670.85 72.7178 L1670.85 42.336 Z" fill="#000000" fill-rule="nonzero" fill-opacity="1" /><path clip-path="url(#clip810)" d="M1723.64 42.336 L1755.76 42.336 L1755.76 49.2225 L1731.13 49.2225 L1731.13 64.0488 Q1732.91 63.4412 1734.69 63.1576 Q1736.48 62.8336 1738.26 62.8336 Q1748.39 62.8336 1754.3 68.3833 Q1760.22 73.9331 1760.22 83.4122 Q1760.22 93.1748 1754.14 98.6031 Q1748.06 103.991 1737 103.991 Q1733.2 103.991 1729.23 103.343 Q1725.3 102.694 1721.08 101.398 L1721.08 93.1748 Q1724.73 95.1598 1728.62 96.132 Q1732.51 97.1042 1736.84 97.1042 Q1743.85 97.1042 1747.94 93.4179 Q1752.03 89.7316 1752.03 83.4122 Q1752.03 77.0928 1747.94 73.4064 Q1743.85 69.7201 1736.84 69.7201 Q1733.56 69.7201 1730.28 70.4493 Q1727.04 71.1784 1723.64 72.7178 L1723.64 42.336 Z" fill="#000000" fill-rule="nonzero" fill-opacity="1" /><path clip-path="url(#clip810)" d="M1771.52 76.7687 L1793.35 76.7687 L1793.35 83.4122 L1771.52 83.4122 L1771.52 76.7687 Z" fill="#000000" fill-rule="nonzero" fill-opacity="1" /><path clip-path="url(#clip810)" d="M1834.14 58.7827 L1834.14 65.8312 Q1830.98 64.2109 1827.58 63.4007 Q1824.18 62.5905 1820.53 62.5905 Q1814.98 62.5905 1812.19 64.2919 Q1809.43 65.9933 1809.43 69.396 Q1809.43 71.9886 1811.42 73.4875 Q1813.4 74.9458 1819.4 76.2826 L1821.95 76.8497 Q1829.89 78.5511 1833.21 81.6703 Q1836.57 84.749 1836.57 90.2987 Q1836.57 96.6181 1831.55 100.304 Q1826.57 103.991 1817.82 103.991 Q1814.17 103.991 1810.2 103.262 Q1806.27 102.573 1801.9 101.155 L1801.9 93.4584 Q1806.03 95.6054 1810.04 96.6991 Q1814.05 97.7524 1817.98 97.7524 Q1823.25 97.7524 1826.08 95.97 Q1828.92 94.1471 1828.92 90.8658 Q1828.92 87.8277 1826.85 86.2073 Q1824.83 84.5869 1817.9 83.0881 L1815.31 82.4805 Q1808.38 81.0221 1805.3 78.0245 Q1802.22 74.9863 1802.22 69.7201 Q1802.22 63.3197 1806.76 59.8359 Q1811.3 56.3521 1819.64 56.3521 Q1823.77 56.3521 1827.42 56.9598 Q1831.07 57.5674 1834.14 58.7827 Z" fill="#000000" fill-rule="nonzero" fill-opacity="1" /><path clip-path="url(#clip810)" d="M1848.44 57.4459 L1855.9 57.4459 L1855.9 102.816 L1848.44 102.816 L1848.44 57.4459 M1848.44 39.7839 L1855.9 39.7839 L1855.9 49.2225 L1848.44 49.2225 L1848.44 39.7839 Z" fill="#000000" fill-rule="nonzero" fill-opacity="1" /><path clip-path="url(#clip810)" d="M1878.87 44.564 L1878.87 57.4459 L1894.22 57.4459 L1894.22 63.2387 L1878.87 63.2387 L1878.87 87.8682 Q1878.87 93.4179 1880.37 94.9978 Q1881.9 96.5776 1886.56 96.5776 L1894.22 96.5776 L1894.22 102.816 L1886.56 102.816 Q1877.93 102.816 1874.65 99.6158 Q1871.37 96.3751 1871.37 87.8682 L1871.37 63.2387 L1865.9 63.2387 L1865.9 57.4459 L1871.37 57.4459 L1871.37 44.564 L1878.87 44.564 Z" fill="#000000" fill-rule="nonzero" fill-opacity="1" /><path clip-path="url(#clip810)" d="M1942.83 78.2675 L1942.83 81.9133 L1908.56 81.9133 Q1909.05 89.6101 1913.18 93.661 Q1917.35 97.6714 1924.76 97.6714 Q1929.06 97.6714 1933.07 96.6181 Q1937.12 95.5649 1941.09 93.4584 L1941.09 100.507 Q1937.08 102.208 1932.86 103.1 Q1928.65 103.991 1924.32 103.991 Q1913.46 103.991 1907.1 97.6714 Q1900.78 91.3519 1900.78 80.5765 Q1900.78 69.4365 1906.78 62.9146 Q1912.81 56.3521 1923.02 56.3521 Q1932.18 56.3521 1937.48 62.2664 Q1942.83 68.1403 1942.83 78.2675 M1935.38 76.08 Q1935.3 69.9632 1931.93 66.3174 Q1928.61 62.6715 1923.1 62.6715 Q1916.86 62.6715 1913.1 66.1958 Q1909.37 69.7201 1908.8 76.1205 L1935.38 76.08 Z" fill="#000000" fill-rule="nonzero" fill-opacity="1" /><path clip-path="url(#clip810)" d="M1981.76 42.336 L1989.94 42.336 L1989.94 102.816 L1981.76 102.816 L1981.76 42.336 Z" fill="#000000" fill-rule="nonzero" fill-opacity="1" /><path clip-path="url(#clip810)" d="M2043.62 75.4319 L2043.62 102.816 L2036.16 102.816 L2036.16 75.6749 Q2036.16 69.234 2033.65 66.0338 Q2031.14 62.8336 2026.12 62.8336 Q2020.08 62.8336 2016.6 66.6819 Q2013.11 70.5303 2013.11 77.1738 L2013.11 102.816 L2005.62 102.816 L2005.62 57.4459 L2013.11 57.4459 L2013.11 64.4944 Q2015.79 60.403 2019.39 58.3776 Q2023.04 56.3521 2027.78 56.3521 Q2035.6 56.3521 2039.61 61.2132 Q2043.62 66.0338 2043.62 75.4319 Z" fill="#000000" fill-rule="nonzero" fill-opacity="1" /><path clip-path="url(#clip810)" d="M2065.86 44.564 L2065.86 57.4459 L2081.21 57.4459 L2081.21 63.2387 L2065.86 63.2387 L2065.86 87.8682 Q2065.86 93.4179 2067.35 94.9978 Q2068.89 96.5776 2073.55 96.5776 L2081.21 96.5776 L2081.21 102.816 L2073.55 102.816 Q2064.92 102.816 2061.64 99.6158 Q2058.36 96.3751 2058.36 87.8682 L2058.36 63.2387 L2052.89 63.2387 L2052.89 57.4459 L2058.36 57.4459 L2058.36 44.564 L2065.86 44.564 Z" fill="#000000" fill-rule="nonzero" fill-opacity="1" /><path clip-path="url(#clip810)" d="M2129.82 78.2675 L2129.82 81.9133 L2095.55 81.9133 Q2096.04 89.6101 2100.17 93.661 Q2104.34 97.6714 2111.75 97.6714 Q2116.05 97.6714 2120.06 96.6181 Q2124.11 95.5649 2128.08 93.4584 L2128.08 100.507 Q2124.07 102.208 2119.85 103.1 Q2115.64 103.991 2111.31 103.991 Q2100.45 103.991 2094.09 97.6714 Q2087.77 91.3519 2087.77 80.5765 Q2087.77 69.4365 2093.77 62.9146 Q2099.8 56.3521 2110.01 56.3521 Q2119.17 56.3521 2124.47 62.2664 Q2129.82 68.1403 2129.82 78.2675 M2122.37 76.08 Q2122.29 69.9632 2118.92 66.3174 Q2115.6 62.6715 2110.09 62.6715 Q2103.85 62.6715 2100.09 66.1958 Q2096.36 69.7201 2095.79 76.1205 L2122.37 76.08 Z" fill="#000000" fill-rule="nonzero" fill-opacity="1" /><path clip-path="url(#clip810)" d="M2168.34 64.4134 Q2167.09 63.6843 2165.59 63.3602 Q2164.13 62.9956 2162.35 62.9956 Q2156.03 62.9956 2152.63 67.1275 Q2149.26 71.2189 2149.26 78.9157 L2149.26 102.816 L2141.77 102.816 L2141.77 57.4459 L2149.26 57.4459 L2149.26 64.4944 Q2151.61 60.3625 2155.38 58.3776 Q2159.15 56.3521 2164.54 56.3521 Q2165.31 56.3521 2166.24 56.4737 Q2167.17 56.5547 2168.3 56.7572 L2168.34 64.4134 Z" fill="#000000" fill-rule="nonzero" fill-opacity="1" /><path clip-path="url(#clip810)" d="M2183.37 96.0105 L2183.37 120.073 L2175.88 120.073 L2175.88 57.4459 L2183.37 57.4459 L2183.37 64.3324 Q2185.72 60.2815 2189.29 58.3371 Q2192.89 56.3521 2197.88 56.3521 Q2206.14 56.3521 2211.28 62.9146 Q2216.47 69.4771 2216.47 80.1714 Q2216.47 90.8658 2211.28 97.4283 Q2206.14 103.991 2197.88 103.991 Q2192.89 103.991 2189.29 102.046 Q2185.72 100.061 2183.37 96.0105 M2208.73 80.1714 Q2208.73 71.9481 2205.33 67.2896 Q2201.97 62.5905 2196.05 62.5905 Q2190.14 62.5905 2186.74 67.2896 Q2183.37 71.9481 2183.37 80.1714 Q2183.37 88.3948 2186.74 93.0938 Q2190.14 97.7524 2196.05 97.7524 Q2201.97 97.7524 2205.33 93.0938 Q2208.73 88.3948 2208.73 80.1714 Z" fill="#000000" fill-rule="nonzero" fill-opacity="1" /><path clip-path="url(#clip810)" d="M2246.4 62.6715 Q2240.41 62.6715 2236.93 67.3706 Q2233.44 72.0291 2233.44 80.1714 Q2233.44 88.3138 2236.89 93.0128 Q2240.37 97.6714 2246.4 97.6714 Q2252.36 97.6714 2255.84 92.9723 Q2259.33 88.2733 2259.33 80.1714 Q2259.33 72.1101 2255.84 67.4111 Q2252.36 62.6715 2246.4 62.6715 M2246.4 56.3521 Q2256.13 56.3521 2261.68 62.6715 Q2267.23 68.9909 2267.23 80.1714 Q2267.23 91.3114 2261.68 97.6714 Q2256.13 103.991 2246.4 103.991 Q2236.64 103.991 2231.09 97.6714 Q2225.58 91.3114 2225.58 80.1714 Q2225.58 68.9909 2231.09 62.6715 Q2236.64 56.3521 2246.4 56.3521 Z" fill="#000000" fill-rule="nonzero" fill-opacity="1" /><path clip-path="url(#clip810)" d="M2279.58 39.7839 L2287.04 39.7839 L2287.04 102.816 L2279.58 102.816 L2279.58 39.7839 Z" fill="#000000" fill-rule="nonzero" fill-opacity="1" /><path clip-path="url(#clip810)" d="M2323.25 80.0094 Q2314.22 80.0094 2310.73 82.0754 Q2307.25 84.1413 2307.25 89.1239 Q2307.25 93.0938 2309.84 95.4434 Q2312.48 97.7524 2316.97 97.7524 Q2323.17 97.7524 2326.9 93.3774 Q2330.66 88.9619 2330.66 81.6703 L2330.66 80.0094 L2323.25 80.0094 M2338.12 76.9307 L2338.12 102.816 L2330.66 102.816 L2330.66 95.9295 Q2328.11 100.061 2324.3 102.046 Q2320.5 103.991 2314.99 103.991 Q2308.02 103.991 2303.89 100.102 Q2299.8 96.1725 2299.8 89.6101 Q2299.8 81.9538 2304.9 78.065 Q2310.04 74.1761 2320.21 74.1761 L2330.66 74.1761 L2330.66 73.4469 Q2330.66 68.3023 2327.26 65.5072 Q2323.9 62.6715 2317.78 62.6715 Q2313.89 62.6715 2310.21 63.6032 Q2306.52 64.535 2303.12 66.3984 L2303.12 59.5118 Q2307.21 57.932 2311.06 57.1623 Q2314.91 56.3521 2318.55 56.3521 Q2328.4 56.3521 2333.26 61.4563 Q2338.12 66.5604 2338.12 76.9307 Z" fill="#000000" fill-rule="nonzero" fill-opacity="1" /><path clip-path="url(#clip810)" d="M2360.84 44.564 L2360.84 57.4459 L2376.2 57.4459 L2376.2 63.2387 L2360.84 63.2387 L2360.84 87.8682 Q2360.84 93.4179 2362.34 94.9978 Q2363.88 96.5776 2368.54 96.5776 L2376.2 96.5776 L2376.2 102.816 L2368.54 102.816 Q2359.91 102.816 2356.63 99.6158 Q2353.35 96.3751 2353.35 87.8682 L2353.35 63.2387 L2347.88 63.2387 L2347.88 57.4459 L2353.35 57.4459 L2353.35 44.564 L2360.84 44.564 Z" fill="#000000" fill-rule="nonzero" fill-opacity="1" /><path clip-path="url(#clip810)" d="M2386 57.4459 L2393.45 57.4459 L2393.45 102.816 L2386 102.816 L2386 57.4459 M2386 39.7839 L2393.45 39.7839 L2393.45 49.2225 L2386 49.2225 L2386 39.7839 Z" fill="#000000" fill-rule="nonzero" fill-opacity="1" /><path clip-path="url(#clip810)" d="M2426.63 62.6715 Q2420.63 62.6715 2417.15 67.3706 Q2413.67 72.0291 2413.67 80.1714 Q2413.67 88.3138 2417.11 93.0128 Q2420.59 97.6714 2426.63 97.6714 Q2432.58 97.6714 2436.07 92.9723 Q2439.55 88.2733 2439.55 80.1714 Q2439.55 72.1101 2436.07 67.4111 Q2432.58 62.6715 2426.63 62.6715 M2426.63 56.3521 Q2436.35 56.3521 2441.9 62.6715 Q2447.45 68.9909 2447.45 80.1714 Q2447.45 91.3114 2441.9 97.6714 Q2436.35 103.991 2426.63 103.991 Q2416.87 103.991 2411.32 97.6714 Q2405.81 91.3114 2405.81 80.1714 Q2405.81 68.9909 2411.32 62.6715 Q2416.87 56.3521 2426.63 56.3521 Z" fill="#000000" fill-rule="nonzero" fill-opacity="1" /><path clip-path="url(#clip810)" d="M2497.52 75.4319 L2497.52 102.816 L2490.07 102.816 L2490.07 75.6749 Q2490.07 69.234 2487.56 66.0338 Q2485.04 62.8336 2480.02 62.8336 Q2473.98 62.8336 2470.5 66.6819 Q2467.02 70.5303 2467.02 77.1738 L2467.02 102.816 L2459.52 102.816 L2459.52 57.4459 L2467.02 57.4459 L2467.02 64.4944 Q2469.69 60.403 2473.3 58.3776 Q2476.94 56.3521 2481.68 56.3521 Q2489.5 56.3521 2493.51 61.2132 Q2497.52 66.0338 2497.52 75.4319 Z" fill="#000000" fill-rule="nonzero" fill-opacity="1" /><path clip-path="url(#clip810)" d="M2514.29 92.5267 L2522.84 92.5267 L2522.84 99.4943 L2516.2 112.457 L2510.97 112.457 L2514.29 99.4943 L2514.29 92.5267 Z" fill="#000000" fill-rule="nonzero" fill-opacity="1" /><path clip-path="url(#clip810)" d="M892.937 155.052 L892.937 130.504 L900.391 130.504 L900.391 193.536 L892.937 193.536 L892.937 186.73 Q890.588 190.781 886.982 192.766 Q883.417 194.711 878.394 194.711 Q870.171 194.711 864.986 188.148 Q859.841 181.586 859.841 170.891 Q859.841 160.197 864.986 153.635 Q870.171 147.072 878.394 147.072 Q883.417 147.072 886.982 149.057 Q890.588 151.002 892.937 155.052 M867.538 170.891 Q867.538 179.115 870.9 183.814 Q874.303 188.472 880.217 188.472 Q886.132 188.472 889.534 183.814 Q892.937 179.115 892.937 170.891 Q892.937 162.668 889.534 158.01 Q886.132 153.311 880.217 153.311 Q874.303 153.311 870.9 158.01 Q867.538 162.668 867.538 170.891 Z" fill="#000000" fill-rule="nonzero" fill-opacity="1" /><path clip-path="url(#clip810)" d="M943.087 155.863 L995.02 155.863 L995.02 162.668 L943.087 162.668 L943.087 155.863 M943.087 172.39 L995.02 172.39 L995.02 179.277 L943.087 179.277 L943.087 172.39 Z" fill="#000000" fill-rule="nonzero" fill-opacity="1" /><path clip-path="url(#clip810)" d="M1046.1 186.649 L1074.66 186.649 L1074.66 193.536 L1036.26 193.536 L1036.26 186.649 Q1040.92 181.829 1048.94 173.727 Q1057 165.585 1059.06 163.235 Q1062.99 158.82 1064.53 155.782 Q1066.11 152.703 1066.11 149.746 Q1066.11 144.925 1062.71 141.887 Q1059.35 138.849 1053.92 138.849 Q1050.07 138.849 1045.78 140.186 Q1041.52 141.522 1036.66 144.236 L1036.66 135.973 Q1041.61 133.988 1045.9 132.975 Q1050.19 131.962 1053.76 131.962 Q1063.16 131.962 1068.75 136.661 Q1074.34 141.36 1074.34 149.219 Q1074.34 152.946 1072.92 156.308 Q1071.54 159.63 1067.86 164.167 Q1066.84 165.342 1061.41 170.972 Q1055.99 176.563 1046.1 186.649 Z" fill="#000000" fill-rule="nonzero" fill-opacity="1" /><path clip-path="url(#clip810)" d="M1109.34 138.444 Q1103.02 138.444 1099.82 144.682 Q1096.66 150.88 1096.66 163.357 Q1096.66 175.793 1099.82 182.031 Q1103.02 188.229 1109.34 188.229 Q1115.7 188.229 1118.86 182.031 Q1122.06 175.793 1122.06 163.357 Q1122.06 150.88 1118.86 144.682 Q1115.7 138.444 1109.34 138.444 M1109.34 131.962 Q1119.5 131.962 1124.85 140.024 Q1130.24 148.044 1130.24 163.357 Q1130.24 178.629 1124.85 186.69 Q1119.5 194.711 1109.34 194.711 Q1099.17 194.711 1093.78 186.69 Q1088.43 178.629 1088.43 163.357 Q1088.43 148.044 1093.78 140.024 Q1099.17 131.962 1109.34 131.962 Z" fill="#000000" fill-rule="nonzero" fill-opacity="1" /><path clip-path="url(#clip810)" d="M1145.47 183.247 L1154.02 183.247 L1154.02 190.214 L1147.37 203.177 L1142.15 203.177 L1145.47 190.214 L1145.47 183.247 Z" fill="#000000" fill-rule="nonzero" fill-opacity="1" /><path clip-path="url(#clip810)" d="M1218.14 203.663 L1212.11 188.148 L1199.67 210.833 L1190.88 210.833 L1208.46 178.75 L1201.09 159.67 Q1199.1 154.566 1192.87 154.566 L1190.88 154.566 L1190.88 148.166 L1193.72 148.247 Q1204.17 148.53 1206.8 155.295 L1212.8 170.81 L1225.23 148.125 L1234.02 148.125 L1216.44 180.209 L1223.81 199.288 Q1225.8 204.392 1232.04 204.392 L1234.02 204.392 L1234.02 210.793 L1231.19 210.712 Q1220.74 210.428 1218.14 203.663 Z" fill="#000000" fill-rule="nonzero" fill-opacity="1" /><path clip-path="url(#clip810)" d="M1271.58 155.863 L1323.51 155.863 L1323.51 162.668 L1271.58 162.668 L1271.58 155.863 M1271.58 172.39 L1323.51 172.39 L1323.51 179.277 L1271.58 179.277 L1271.58 172.39 Z" fill="#000000" fill-rule="nonzero" fill-opacity="1" /><path clip-path="url(#clip810)" d="M1368.96 186.649 L1382.33 186.649 L1382.33 140.51 L1367.78 143.426 L1367.78 135.973 L1382.25 133.056 L1390.43 133.056 L1390.43 186.649 L1403.8 186.649 L1403.8 193.536 L1368.96 193.536 L1368.96 186.649 Z" fill="#000000" fill-rule="nonzero" fill-opacity="1" /><path clip-path="url(#clip810)" d="M1420.41 133.056 L1452.53 133.056 L1452.53 139.943 L1427.9 139.943 L1427.9 154.769 Q1429.68 154.161 1431.46 153.878 Q1433.25 153.554 1435.03 153.554 Q1445.16 153.554 1451.07 159.103 Q1456.98 164.653 1456.98 174.132 Q1456.98 183.895 1450.91 189.323 Q1444.83 194.711 1433.77 194.711 Q1429.97 194.711 1426 194.063 Q1422.07 193.414 1417.85 192.118 L1417.85 183.895 Q1421.5 185.88 1425.39 186.852 Q1429.28 187.824 1433.61 187.824 Q1440.62 187.824 1444.71 184.138 Q1448.8 180.452 1448.8 174.132 Q1448.8 167.813 1444.71 164.126 Q1440.62 160.44 1433.61 160.44 Q1430.33 160.44 1427.05 161.169 Q1423.81 161.898 1420.41 163.438 L1420.41 133.056 Z" fill="#000000" fill-rule="nonzero" fill-opacity="1" /><path clip-path="url(#clip810)" d="M1490.61 138.444 Q1484.29 138.444 1481.09 144.682 Q1477.93 150.88 1477.93 163.357 Q1477.93 175.793 1481.09 182.031 Q1484.29 188.229 1490.61 188.229 Q1496.97 188.229 1500.13 182.031 Q1503.33 175.793 1503.33 163.357 Q1503.33 150.88 1500.13 144.682 Q1496.97 138.444 1490.61 138.444 M1490.61 131.962 Q1500.78 131.962 1506.12 140.024 Q1511.51 148.044 1511.51 163.357 Q1511.51 178.629 1506.12 186.69 Q1500.78 194.711 1490.61 194.711 Q1480.44 194.711 1475.05 186.69 Q1469.7 178.629 1469.7 163.357 Q1469.7 148.044 1475.05 140.024 Q1480.44 131.962 1490.61 131.962 Z" fill="#000000" fill-rule="nonzero" fill-opacity="1" /><path clip-path="url(#clip810)" d="M1526.74 183.247 L1535.29 183.247 L1535.29 190.214 L1528.65 203.177 L1523.42 203.177 L1526.74 190.214 L1526.74 183.247 Z" fill="#000000" fill-rule="nonzero" fill-opacity="1" /><path clip-path="url(#clip810)" d="M1577.9 133.056 L1586.09 133.056 L1586.09 186.649 L1615.54 186.649 L1615.54 193.536 L1577.9 193.536 L1577.9 133.056 Z" fill="#000000" fill-rule="nonzero" fill-opacity="1" /><path clip-path="url(#clip810)" d="M1661.15 168.988 L1661.15 172.633 L1626.88 172.633 Q1627.37 180.33 1631.5 184.381 Q1635.67 188.391 1643.08 188.391 Q1647.38 188.391 1651.39 187.338 Q1655.44 186.285 1659.41 184.178 L1659.41 191.227 Q1655.4 192.928 1651.19 193.82 Q1646.97 194.711 1642.64 194.711 Q1631.78 194.711 1625.42 188.391 Q1619.1 182.072 1619.1 171.297 Q1619.1 160.157 1625.1 153.635 Q1631.13 147.072 1641.34 147.072 Q1650.5 147.072 1655.8 152.986 Q1661.15 158.86 1661.15 168.988 M1653.7 166.8 Q1653.62 160.683 1650.25 157.037 Q1646.93 153.392 1641.42 153.392 Q1635.18 153.392 1631.42 156.916 Q1627.69 160.44 1627.12 166.841 L1653.7 166.8 Z" fill="#000000" fill-rule="nonzero" fill-opacity="1" /><path clip-path="url(#clip810)" d="M1703.24 170.324 Q1703.24 162.223 1699.88 157.767 Q1696.56 153.311 1690.52 153.311 Q1684.52 153.311 1681.16 157.767 Q1677.84 162.223 1677.84 170.324 Q1677.84 178.386 1681.16 182.842 Q1684.52 187.298 1690.52 187.298 Q1696.56 187.298 1699.88 182.842 Q1703.24 178.386 1703.24 170.324 M1710.69 187.905 Q1710.69 199.491 1705.55 205.122 Q1700.4 210.793 1689.79 210.793 Q1685.86 210.793 1682.38 210.185 Q1678.89 209.618 1675.61 208.403 L1675.61 201.152 Q1678.89 202.934 1682.09 203.785 Q1685.29 204.635 1688.62 204.635 Q1695.95 204.635 1699.59 200.787 Q1703.24 196.979 1703.24 189.242 L1703.24 185.556 Q1700.93 189.566 1697.33 191.551 Q1693.72 193.536 1688.7 193.536 Q1680.35 193.536 1675.25 187.176 Q1670.14 180.816 1670.14 170.324 Q1670.14 159.792 1675.25 153.432 Q1680.35 147.072 1688.7 147.072 Q1693.72 147.072 1697.33 149.057 Q1700.93 151.042 1703.24 155.052 L1703.24 148.166 L1710.69 148.166 L1710.69 187.905 Z" fill="#000000" fill-rule="nonzero" fill-opacity="1" /><path clip-path="url(#clip810)" d="M1764.85 168.988 L1764.85 172.633 L1730.58 172.633 Q1731.07 180.33 1735.2 184.381 Q1739.37 188.391 1746.79 188.391 Q1751.08 188.391 1755.09 187.338 Q1759.14 186.285 1763.11 184.178 L1763.11 191.227 Q1759.1 192.928 1754.89 193.82 Q1750.68 194.711 1746.34 194.711 Q1735.48 194.711 1729.12 188.391 Q1722.81 182.072 1722.81 171.297 Q1722.81 160.157 1728.8 153.635 Q1734.84 147.072 1745.04 147.072 Q1754.2 147.072 1759.51 152.986 Q1764.85 158.86 1764.85 168.988 M1757.4 166.8 Q1757.32 160.683 1753.96 157.037 Q1750.64 153.392 1745.13 153.392 Q1738.89 153.392 1735.12 156.916 Q1731.39 160.44 1730.83 166.841 L1757.4 166.8 Z" fill="#000000" fill-rule="nonzero" fill-opacity="1" /><path clip-path="url(#clip810)" d="M1814.8 166.152 L1814.8 193.536 L1807.35 193.536 L1807.35 166.395 Q1807.35 159.954 1804.84 156.754 Q1802.32 153.554 1797.3 153.554 Q1791.27 153.554 1787.78 157.402 Q1784.3 161.25 1784.3 167.894 L1784.3 193.536 L1776.8 193.536 L1776.8 148.166 L1784.3 148.166 L1784.3 155.214 Q1786.97 151.123 1790.58 149.098 Q1794.22 147.072 1798.96 147.072 Q1806.78 147.072 1810.79 151.933 Q1814.8 156.754 1814.8 166.152 Z" fill="#000000" fill-rule="nonzero" fill-opacity="1" /><path clip-path="url(#clip810)" d="M1859.52 155.052 L1859.52 130.504 L1866.98 130.504 L1866.98 193.536 L1859.52 193.536 L1859.52 186.73 Q1857.17 190.781 1853.57 192.766 Q1850 194.711 1844.98 194.711 Q1836.76 194.711 1831.57 188.148 Q1826.43 181.586 1826.43 170.891 Q1826.43 160.197 1831.57 153.635 Q1836.76 147.072 1844.98 147.072 Q1850 147.072 1853.57 149.057 Q1857.17 151.002 1859.52 155.052 M1834.12 170.891 Q1834.12 179.115 1837.49 183.814 Q1840.89 188.472 1846.8 188.472 Q1852.72 188.472 1856.12 183.814 Q1859.52 179.115 1859.52 170.891 Q1859.52 162.668 1856.12 158.01 Q1852.72 153.311 1846.8 153.311 Q1840.89 153.311 1837.49 158.01 Q1834.12 162.668 1834.12 170.891 Z" fill="#000000" fill-rule="nonzero" fill-opacity="1" /><path clip-path="url(#clip810)" d="M1908.62 155.133 Q1907.36 154.404 1905.87 154.08 Q1904.41 153.716 1902.62 153.716 Q1896.31 153.716 1892.9 157.848 Q1889.54 161.939 1889.54 169.636 L1889.54 193.536 L1882.05 193.536 L1882.05 148.166 L1889.54 148.166 L1889.54 155.214 Q1891.89 151.083 1895.66 149.098 Q1899.42 147.072 1904.81 147.072 Q1905.58 147.072 1906.51 147.194 Q1907.45 147.275 1908.58 147.477 L1908.62 155.133 Z" fill="#000000" fill-rule="nonzero" fill-opacity="1" /><path clip-path="url(#clip810)" d="M1953.42 168.988 L1953.42 172.633 L1919.15 172.633 Q1919.64 180.33 1923.77 184.381 Q1927.94 188.391 1935.36 188.391 Q1939.65 188.391 1943.66 187.338 Q1947.71 186.285 1951.68 184.178 L1951.68 191.227 Q1947.67 192.928 1943.46 193.82 Q1939.25 194.711 1934.91 194.711 Q1924.05 194.711 1917.69 188.391 Q1911.37 182.072 1911.37 171.297 Q1911.37 160.157 1917.37 153.635 Q1923.41 147.072 1933.61 147.072 Q1942.77 147.072 1948.08 152.986 Q1953.42 158.86 1953.42 168.988 M1945.97 166.8 Q1945.89 160.683 1942.53 157.037 Q1939.2 153.392 1933.7 153.392 Q1927.46 153.392 1923.69 156.916 Q1919.96 160.44 1919.4 166.841 L1945.97 166.8 Z" fill="#000000" fill-rule="nonzero" fill-opacity="1" /><path clip-path="url(#clip810)" d="M2000.13 207.309 L2000.13 213.102 L1957.03 213.102 L1957.03 207.309 L2000.13 207.309 Z" fill="#000000" fill-rule="nonzero" fill-opacity="1" /><path clip-path="url(#clip810)" d="M2007.46 133.056 L2018.48 133.056 L2045.3 183.652 L2045.3 133.056 L2053.24 133.056 L2053.24 193.536 L2042.22 193.536 L2015.4 142.94 L2015.4 193.536 L2007.46 193.536 L2007.46 133.056 Z" fill="#000000" fill-rule="nonzero" fill-opacity="1" /><path clip-path="url(#clip810)" d="M2086.78 153.392 Q2080.78 153.392 2077.3 158.091 Q2073.82 162.749 2073.82 170.891 Q2073.82 179.034 2077.26 183.733 Q2080.74 188.391 2086.78 188.391 Q2092.73 188.391 2096.22 183.692 Q2099.7 178.993 2099.7 170.891 Q2099.7 162.83 2096.22 158.131 Q2092.73 153.392 2086.78 153.392 M2086.78 147.072 Q2096.5 147.072 2102.05 153.392 Q2107.6 159.711 2107.6 170.891 Q2107.6 182.031 2102.05 188.391 Q2096.5 194.711 2086.78 194.711 Q2077.02 194.711 2071.47 188.391 Q2065.96 182.031 2065.96 170.891 Q2065.96 159.711 2071.47 153.392 Q2077.02 147.072 2086.78 147.072 Z" fill="#000000" fill-rule="nonzero" fill-opacity="1" /><path clip-path="url(#clip810)" d="M2154.43 207.309 L2154.43 213.102 L2111.33 213.102 L2111.33 207.309 L2154.43 207.309 Z" fill="#000000" fill-rule="nonzero" fill-opacity="1" /><path clip-path="url(#clip810)" d="M2161.76 133.056 L2172.78 133.056 L2199.6 183.652 L2199.6 133.056 L2207.54 133.056 L2207.54 193.536 L2196.52 193.536 L2169.7 142.94 L2169.7 193.536 L2161.76 193.536 L2161.76 133.056 Z" fill="#000000" fill-rule="nonzero" fill-opacity="1" /><path clip-path="url(#clip810)" d="M2241.08 153.392 Q2235.08 153.392 2231.6 158.091 Q2228.12 162.749 2228.12 170.891 Q2228.12 179.034 2231.56 183.733 Q2235.04 188.391 2241.08 188.391 Q2247.03 188.391 2250.52 183.692 Q2254 178.993 2254 170.891 Q2254 162.83 2250.52 158.131 Q2247.03 153.392 2241.08 153.392 M2241.08 147.072 Q2250.8 147.072 2256.35 153.392 Q2261.9 159.711 2261.9 170.891 Q2261.9 182.031 2256.35 188.391 Q2250.8 194.711 2241.08 194.711 Q2231.32 194.711 2225.77 188.391 Q2220.26 182.031 2220.26 170.891 Q2220.26 159.711 2225.77 153.392 Q2231.32 147.072 2241.08 147.072 Z" fill="#000000" fill-rule="nonzero" fill-opacity="1" /><path clip-path="url(#clip810)" d="M2300.55 155.133 Q2299.29 154.404 2297.79 154.08 Q2296.33 153.716 2294.55 153.716 Q2288.23 153.716 2284.83 157.848 Q2281.47 161.939 2281.47 169.636 L2281.47 193.536 L2273.97 193.536 L2273.97 148.166 L2281.47 148.166 L2281.47 155.214 Q2283.82 151.083 2287.58 149.098 Q2291.35 147.072 2296.74 147.072 Q2297.51 147.072 2298.44 147.194 Q2299.37 147.275 2300.5 147.477 L2300.55 155.133 Z" fill="#000000" fill-rule="nonzero" fill-opacity="1" /><path clip-path="url(#clip810)" d="M2342.23 156.875 Q2345.02 151.852 2348.91 149.462 Q2352.8 147.072 2358.07 147.072 Q2365.16 147.072 2369.01 152.055 Q2372.85 156.997 2372.85 166.152 L2372.85 193.536 L2365.36 193.536 L2365.36 166.395 Q2365.36 159.873 2363.05 156.713 Q2360.74 153.554 2356 153.554 Q2350.21 153.554 2346.85 157.402 Q2343.48 161.25 2343.48 167.894 L2343.48 193.536 L2335.99 193.536 L2335.99 166.395 Q2335.99 159.832 2333.68 156.713 Q2331.37 153.554 2326.55 153.554 Q2320.84 153.554 2317.48 157.442 Q2314.12 161.291 2314.12 167.894 L2314.12 193.536 L2306.62 193.536 L2306.62 148.166 L2314.12 148.166 L2314.12 155.214 Q2316.67 151.042 2320.23 149.057 Q2323.8 147.072 2328.7 147.072 Q2333.64 147.072 2337.08 149.584 Q2340.57 152.095 2342.23 156.875 Z" fill="#000000" fill-rule="nonzero" fill-opacity="1" /><path clip-path="url(#clip810)" d="M2452.9 168.988 L2452.9 172.633 L2418.63 172.633 Q2419.12 180.33 2423.25 184.381 Q2427.42 188.391 2434.83 188.391 Q2439.13 188.391 2443.14 187.338 Q2447.19 186.285 2451.16 184.178 L2451.16 191.227 Q2447.15 192.928 2442.93 193.82 Q2438.72 194.711 2434.39 194.711 Q2423.53 194.711 2417.17 188.391 Q2410.85 182.072 2410.85 171.297 Q2410.85 160.157 2416.85 153.635 Q2422.88 147.072 2433.09 147.072 Q2442.25 147.072 2447.55 152.986 Q2452.9 158.86 2452.9 168.988 M2445.45 166.8 Q2445.37 160.683 2442 157.037 Q2438.68 153.392 2433.17 153.392 Q2426.93 153.392 2423.17 156.916 Q2419.44 160.44 2418.87 166.841 L2445.45 166.8 Z" fill="#000000" fill-rule="nonzero" fill-opacity="1" /><path clip-path="url(#clip810)" d="M2502.85 166.152 L2502.85 193.536 L2495.39 193.536 L2495.39 166.395 Q2495.39 159.954 2492.88 156.754 Q2490.37 153.554 2485.35 153.554 Q2479.31 153.554 2475.83 157.402 Q2472.34 161.25 2472.34 167.894 L2472.34 193.536 L2464.85 193.536 L2464.85 148.166 L2472.34 148.166 L2472.34 155.214 Q2475.02 151.123 2478.62 149.098 Q2482.27 147.072 2487.01 147.072 Q2494.83 147.072 2498.84 151.933 Q2502.85 156.754 2502.85 166.152 Z" fill="#000000" fill-rule="nonzero" fill-opacity="1" /><path clip-path="url(#clip810)" d="M2550.36 149.908 L2550.36 156.875 Q2547.2 155.133 2544 154.283 Q2540.84 153.392 2537.6 153.392 Q2530.35 153.392 2526.34 158.01 Q2522.33 162.587 2522.33 170.891 Q2522.33 179.196 2526.34 183.814 Q2530.35 188.391 2537.6 188.391 Q2540.84 188.391 2544 187.541 Q2547.2 186.649 2550.36 184.908 L2550.36 191.794 Q2547.25 193.252 2543.88 193.982 Q2540.56 194.711 2536.79 194.711 Q2526.55 194.711 2520.51 188.27 Q2514.47 181.829 2514.47 170.891 Q2514.47 159.792 2520.55 153.432 Q2526.67 147.072 2537.28 147.072 Q2540.72 147.072 2544 147.801 Q2547.29 148.49 2550.36 149.908 Z" fill="#000000" fill-rule="nonzero" fill-opacity="1" /><path clip-path="url(#clip810)" d="M2580.91 153.392 Q2574.91 153.392 2571.43 158.091 Q2567.95 162.749 2567.95 170.891 Q2567.95 179.034 2571.39 183.733 Q2574.87 188.391 2580.91 188.391 Q2586.86 188.391 2590.35 183.692 Q2593.83 178.993 2593.83 170.891 Q2593.83 162.83 2590.35 158.131 Q2586.86 153.392 2580.91 153.392 M2580.91 147.072 Q2590.63 147.072 2596.18 153.392 Q2601.73 159.711 2601.73 170.891 Q2601.73 182.031 2596.18 188.391 Q2590.63 194.711 2580.91 194.711 Q2571.15 194.711 2565.6 188.391 Q2560.09 182.031 2560.09 170.891 Q2560.09 159.711 2565.6 153.392 Q2571.15 147.072 2580.91 147.072 Z" fill="#000000" fill-rule="nonzero" fill-opacity="1" /><path clip-path="url(#clip810)" d="M2643.94 155.052 L2643.94 130.504 L2651.39 130.504 L2651.39 193.536 L2643.94 193.536 L2643.94 186.73 Q2641.59 190.781 2637.99 192.766 Q2634.42 194.711 2629.4 194.711 Q2621.17 194.711 2615.99 188.148 Q2610.84 181.586 2610.84 170.891 Q2610.84 160.197 2615.99 153.635 Q2621.17 147.072 2629.4 147.072 Q2634.42 147.072 2637.99 149.057 Q2641.59 151.002 2643.94 155.052 M2618.54 170.891 Q2618.54 179.115 2621.9 183.814 Q2625.31 188.472 2631.22 188.472 Q2637.13 188.472 2640.54 183.814 Q2643.94 179.115 2643.94 170.891 Q2643.94 162.668 2640.54 158.01 Q2637.13 153.311 2631.22 153.311 Q2625.31 153.311 2621.9 158.01 Q2618.54 162.668 2618.54 170.891 Z" fill="#000000" fill-rule="nonzero" fill-opacity="1" /><path clip-path="url(#clip810)" d="M2666.75 148.166 L2674.2 148.166 L2674.2 193.536 L2666.75 193.536 L2666.75 148.166 M2666.75 130.504 L2674.2 130.504 L2674.2 139.943 L2666.75 139.943 L2666.75 130.504 Z" fill="#000000" fill-rule="nonzero" fill-opacity="1" /><path clip-path="url(#clip810)" d="M2727.51 166.152 L2727.51 193.536 L2720.06 193.536 L2720.06 166.395 Q2720.06 159.954 2717.55 156.754 Q2715.03 153.554 2710.01 153.554 Q2703.97 153.554 2700.49 157.402 Q2697.01 161.25 2697.01 167.894 L2697.01 193.536 L2689.51 193.536 L2689.51 148.166 L2697.01 148.166 L2697.01 155.214 Q2699.68 151.123 2703.29 149.098 Q2706.93 147.072 2711.67 147.072 Q2719.49 147.072 2723.5 151.933 Q2727.51 156.754 2727.51 166.152 Z" fill="#000000" fill-rule="nonzero" fill-opacity="1" /><path clip-path="url(#clip810)" d="M2772.23 170.324 Q2772.23 162.223 2768.87 157.767 Q2765.55 153.311 2759.51 153.311 Q2753.52 153.311 2750.16 157.767 Q2746.83 162.223 2746.83 170.324 Q2746.83 178.386 2750.16 182.842 Q2753.52 187.298 2759.51 187.298 Q2765.55 187.298 2768.87 182.842 Q2772.23 178.386 2772.23 170.324 M2779.69 187.905 Q2779.69 199.491 2774.54 205.122 Q2769.4 210.793 2758.78 210.793 Q2754.85 210.793 2751.37 210.185 Q2747.89 209.618 2744.61 208.403 L2744.61 201.152 Q2747.89 202.934 2751.09 203.785 Q2754.29 204.635 2757.61 204.635 Q2764.94 204.635 2768.59 200.787 Q2772.23 196.979 2772.23 189.242 L2772.23 185.556 Q2769.92 189.566 2766.32 191.551 Q2762.71 193.536 2757.69 193.536 Q2749.34 193.536 2744.24 187.176 Q2739.14 180.816 2739.14 170.324 Q2739.14 159.792 2744.24 153.432 Q2749.34 147.072 2757.69 147.072 Q2762.71 147.072 2766.32 149.057 Q2769.92 151.042 2772.23 155.052 L2772.23 148.166 L2779.69 148.166 L2779.69 187.905 Z" fill="#000000" fill-rule="nonzero" fill-opacity="1" /><path clip-path="url(#clip810)" d="M2796.94 183.247 L2805.49 183.247 L2805.49 190.214 L2798.85 203.177 L2793.62 203.177 L2796.94 190.214 L2796.94 183.247 Z" fill="#000000" fill-rule="nonzero" fill-opacity="1" /><path clip-path="url(#clip810)" d="M1304.65 223.776 L1316.84 223.776 L1332.28 264.933 L1347.79 223.776 L1359.99 223.776 L1359.99 284.256 L1352.01 284.256 L1352.01 231.149 L1336.41 272.63 L1328.19 272.63 L1312.59 231.149 L1312.59 284.256 L1304.65 284.256 L1304.65 223.776 Z" fill="#000000" fill-rule="nonzero" fill-opacity="1" /><path clip-path="url(#clip810)" d="M1414.71 259.708 L1414.71 263.353 L1380.44 263.353 Q1380.93 271.05 1385.06 275.101 Q1389.23 279.111 1396.65 279.111 Q1400.94 279.111 1404.95 278.058 Q1409 277.005 1412.97 274.898 L1412.97 281.947 Q1408.96 283.648 1404.75 284.54 Q1400.54 285.431 1396.2 285.431 Q1385.34 285.431 1378.98 279.111 Q1372.67 272.792 1372.67 262.017 Q1372.67 250.877 1378.66 244.355 Q1384.7 237.792 1394.9 237.792 Q1404.06 237.792 1409.37 243.706 Q1414.71 249.58 1414.71 259.708 M1407.26 257.52 Q1407.18 251.403 1403.82 247.757 Q1400.5 244.112 1394.99 244.112 Q1388.75 244.112 1384.98 247.636 Q1381.25 251.16 1380.69 257.561 L1407.26 257.52 Z" fill="#000000" fill-rule="nonzero" fill-opacity="1" /><path clip-path="url(#clip810)" d="M1456.8 245.772 L1456.8 221.224 L1464.26 221.224 L1464.26 284.256 L1456.8 284.256 L1456.8 277.45 Q1454.45 281.501 1450.85 283.486 Q1447.28 285.431 1442.26 285.431 Q1434.04 285.431 1428.85 278.868 Q1423.71 272.306 1423.71 261.611 Q1423.71 250.917 1428.85 244.355 Q1434.04 237.792 1442.26 237.792 Q1447.28 237.792 1450.85 239.777 Q1454.45 241.722 1456.8 245.772 M1431.4 261.611 Q1431.4 269.835 1434.77 274.534 Q1438.17 279.192 1444.08 279.192 Q1450 279.192 1453.4 274.534 Q1456.8 269.835 1456.8 261.611 Q1456.8 253.388 1453.4 248.73 Q1450 244.031 1444.08 244.031 Q1438.17 244.031 1434.77 248.73 Q1431.4 253.388 1431.4 261.611 Z" fill="#000000" fill-rule="nonzero" fill-opacity="1" /><path clip-path="url(#clip810)" d="M1479.61 238.886 L1487.06 238.886 L1487.06 284.256 L1479.61 284.256 L1479.61 238.886 M1479.61 221.224 L1487.06 221.224 L1487.06 230.663 L1479.61 230.663 L1479.61 221.224 Z" fill="#000000" fill-rule="nonzero" fill-opacity="1" /><path clip-path="url(#clip810)" d="M1523.28 261.449 Q1514.24 261.449 1510.76 263.515 Q1507.28 265.581 1507.28 270.564 Q1507.28 274.534 1509.87 276.883 Q1512.5 279.192 1517 279.192 Q1523.2 279.192 1526.92 274.817 Q1530.69 270.402 1530.69 263.11 L1530.69 261.449 L1523.28 261.449 M1538.14 258.371 L1538.14 284.256 L1530.69 284.256 L1530.69 277.369 Q1528.14 281.501 1524.33 283.486 Q1520.52 285.431 1515.01 285.431 Q1508.05 285.431 1503.91 281.542 Q1499.82 277.613 1499.82 271.05 Q1499.82 263.394 1504.93 259.505 Q1510.07 255.616 1520.24 255.616 L1530.69 255.616 L1530.69 254.887 Q1530.69 249.742 1527.29 246.947 Q1523.93 244.112 1517.81 244.112 Q1513.92 244.112 1510.23 245.043 Q1506.55 245.975 1503.15 247.838 L1503.15 240.952 Q1507.24 239.372 1511.08 238.602 Q1514.93 237.792 1518.58 237.792 Q1528.42 237.792 1533.28 242.896 Q1538.14 248 1538.14 258.371 Z" fill="#000000" fill-rule="nonzero" fill-opacity="1" /><path clip-path="url(#clip810)" d="M1591.21 256.872 L1591.21 284.256 L1583.76 284.256 L1583.76 257.115 Q1583.76 250.674 1581.25 247.474 Q1578.73 244.274 1573.71 244.274 Q1567.68 244.274 1564.19 248.122 Q1560.71 251.97 1560.71 258.614 L1560.71 284.256 L1553.21 284.256 L1553.21 238.886 L1560.71 238.886 L1560.71 245.934 Q1563.38 241.843 1566.99 239.818 Q1570.63 237.792 1575.37 237.792 Q1583.19 237.792 1587.2 242.653 Q1591.21 247.474 1591.21 256.872 Z" fill="#000000" fill-rule="nonzero" fill-opacity="1" /><path clip-path="url(#clip810)" d="M1607.98 273.967 L1616.53 273.967 L1616.53 280.934 L1609.89 293.897 L1604.66 293.897 L1607.98 280.934 L1607.98 273.967 Z" fill="#000000" fill-rule="nonzero" fill-opacity="1" /><path clip-path="url(#clip810)" d="M1689.16 232.242 L1689.16 254.806 L1711.73 254.806 L1711.73 261.692 L1689.16 261.692 L1689.16 284.256 L1682.36 284.256 L1682.36 261.692 L1659.79 261.692 L1659.79 254.806 L1682.36 254.806 L1682.36 232.242 L1689.16 232.242 Z" fill="#000000" fill-rule="nonzero" fill-opacity="1" /><path clip-path="url(#clip810)" d="M1741.58 223.776 L1748.47 223.776 L1727.4 291.953 L1720.52 291.953 L1741.58 223.776 Z" fill="#000000" fill-rule="nonzero" fill-opacity="1" /><path clip-path="url(#clip810)" d="M1752.52 258.209 L1774.35 258.209 L1774.35 264.852 L1752.52 264.852 L1752.52 258.209 Z" fill="#000000" fill-rule="nonzero" fill-opacity="1" /><path clip-path="url(#clip810)" d="M1807.53 223.776 L1815.79 223.776 L1828.51 274.898 L1841.19 223.776 L1850.39 223.776 L1863.11 274.898 L1875.79 223.776 L1884.09 223.776 L1868.9 284.256 L1858.61 284.256 L1845.85 231.756 L1832.97 284.256 L1822.68 284.256 L1807.53 223.776 Z" fill="#000000" fill-rule="nonzero" fill-opacity="1" /><path clip-path="url(#clip810)" d="M1894.95 223.776 L1907.14 223.776 L1922.58 264.933 L1938.09 223.776 L1950.28 223.776 L1950.28 284.256 L1942.3 284.256 L1942.3 231.149 L1926.71 272.63 L1918.48 272.63 L1902.89 231.149 L1902.89 284.256 L1894.95 284.256 L1894.95 223.776 Z" fill="#000000" fill-rule="nonzero" fill-opacity="1" /><path clip-path="url(#clip810)" d="M1986.74 231.837 L1975.64 261.936 L1997.88 261.936 L1986.74 231.837 M1982.12 223.776 L1991.4 223.776 L2014.45 284.256 L2005.94 284.256 L2000.43 268.741 L1973.17 268.741 L1967.66 284.256 L1959.03 284.256 L1982.12 223.776 Z" fill="#000000" fill-rule="nonzero" fill-opacity="1" /><path clip-path="url(#clip810)" d="M2031.46 230.501 L2031.46 277.531 L2041.35 277.531 Q2053.87 277.531 2059.66 271.86 Q2065.49 266.189 2065.49 253.955 Q2065.49 241.803 2059.66 236.172 Q2053.87 230.501 2041.35 230.501 L2031.46 230.501 M2023.28 223.776 L2040.09 223.776 Q2057.67 223.776 2065.9 231.108 Q2074.12 238.4 2074.12 253.955 Q2074.12 269.592 2065.86 276.924 Q2057.59 284.256 2040.09 284.256 L2023.28 284.256 L2023.28 223.776 Z" fill="#000000" fill-rule="nonzero" fill-opacity="1" /><polyline clip-path="url(#clip812)" style="stroke:#000000; stroke-linecap:round; stroke-linejoin:round; stroke-width:8; stroke-opacity:1; fill:none" stroke-dasharray="4, 8" points="386.287,1675.77 412.612,1721.25 438.937,1696.41 465.263,1631.89 491.588,1606.66 517.913,1587.99 544.238,1522.52 570.563,1421.38 596.889,1336.11 623.214,1270.9 649.539,1231.26 675.864,1131.42 702.19,1093.89 728.515,966.685 754.84,991.007 781.165,943.471 807.49,868.695 833.816,913.337 860.141,875.233 886.466,931.947 912.791,999.168 939.117,1041.81 "/>
<polyline clip-path="url(#clip812)" style="stroke:#000000; stroke-linecap:round; stroke-linejoin:round; stroke-width:8; stroke-opacity:1; fill:none" stroke-dasharray="4, 8" points="2413.33,317.108 2439.65,304.565 2465.98,390.844 2492.3,389.931 2518.63,497.519 2544.96,554.901 2571.28,605.313 2597.61,639.349 2623.93,734.46 2650.26,776.318 2676.58,730.154 2702.91,841.043 2729.23,833.997 2755.56,878.787 2781.88,871.271 2808.21,796.028 2834.53,793.272 2860.86,679.084 2887.18,698.873 2913.51,623.362 2939.83,571.204 2966.16,490.034 2992.48,406.407 "/>
<polyline clip-path="url(#clip812)" style="stroke:#000000; stroke-linecap:round; stroke-linejoin:round; stroke-width:8; stroke-opacity:0.3; fill:none" points="965.442,1054.92 991.767,1126.04 1018.09,1161.22 1044.42,1258.43 1070.74,1280.87 1097.07,1362.59 1123.39,1398.91 1149.72,1409.61 1176.04,1416.95 1202.37,1426.51 1228.69,1370.53 1255.02,1360.84 1281.34,1324.76 1307.67,1292.57 1333.99,1140.52 1360.32,1156.86 1386.65,1071.85 1412.97,1026.94 1439.3,878.929 1465.62,912.216 1491.95,770.374 1518.27,743.45 1544.6,604.73 1570.92,664.676 1597.25,643.745 1623.57,629.18 1649.9,609.607 1676.22,661.35 1702.55,704.671 1728.87,741.044 1755.2,781.146 1781.52,843.289 1807.85,901.646 1834.17,956.708 1860.5,988.3 1886.82,1077.1 1913.15,1130.44 1939.47,1108.6 1965.8,1122.05 1992.13,1086.69 2018.45,1098.35 2044.78,1114.07 2071.1,1017.11 2097.43,972.153 2123.75,869.55 2150.08,831.388 2176.4,744.103 2202.73,681.108 2229.05,612.165 2255.38,562.958 2281.7,523.385 2308.03,426.84 2334.35,375.294 2360.68,409.404 2387,311.668 "/>
<path clip-path="url(#clip812)" d="M965.442 1138.24 L991.767 1196.51 L1018.09 1270.58 L1044.42 1310.07 L1070.74 1369.15 L1097.07 1421.57 L1123.39 1456.78 L1149.72 1474.97 L1176.04 1470.38 L1202.37 1455.33 L1228.69 1446.98 L1255.02 1402 L1281.34 1354.28 L1307.67 1313.13 L1333.99 1268.16 L1360.32 1171.42 L1386.65 1118.44 L1412.97 1073.33 L1439.3 928.761 L1465.62 921.073 L1491.95 849.976 L1518.27 779.565 L1544.6 703.996 L1570.92 704.516 L1597.25 674.731 L1623.57 696.656 L1649.9 667.983 L1676.22 699.213 L1702.55 757.628 L1728.87 785.068 L1755.2 848.892 L1781.52 915.958 L1807.85 972.059 L1834.17 1028.09 L1860.5 1063.2 L1886.82 1126.97 L1913.15 1143.63 L1939.47 1168.67 L1965.8 1171.46 L1992.13 1176.71 L2018.45 1167.51 L2044.78 1128.38 L2071.1 1077.81 L2097.43 1019.63 L2123.75 934.052 L2150.08 901.306 L2176.4 819.528 L2202.73 737.315 L2229.05 635.321 L2255.38 570.655 L2281.7 538.948 L2308.03 453.897 L2334.35 422.13 L2360.68 391.619 L2387 377.224 L2387 306.298 L2360.68 320.191 L2334.35 350.951 L2308.03 376.615 L2281.7 453.714 L2255.38 486.591 L2229.05 540.627 L2202.73 642.12 L2176.4 714.66 L2150.08 797.125 L2123.75 831.707 L2097.43 909.129 L2071.1 965.2 L2044.78 1021.02 L2018.45 1058.28 L1992.13 1066.25 L1965.8 1061.9 L1939.47 1059.28 L1913.15 1035.93 L1886.82 1019.16 L1860.5 952.608 L1834.17 918.086 L1807.85 866.9 L1781.52 813.486 L1755.2 744.82 L1728.87 686.609 L1702.55 662.878 L1676.22 604.399 L1649.9 572.996 L1623.57 601.734 L1597.25 579.742 L1570.92 609.949 L1544.6 609.208 L1518.27 681.707 L1491.95 745.869 L1465.62 818.877 L1439.3 825.943 L1412.97 963.142 L1386.65 1010.89 L1360.32 1061.67 L1333.99 1153.66 L1307.67 1201.95 L1281.34 1244.04 L1255.02 1288.54 L1228.69 1330.93 L1202.37 1339.4 L1176.04 1354.66 L1149.72 1359.19 L1123.39 1340.82 L1097.07 1306.04 L1070.74 1258.09 L1044.42 1198.22 L1018.09 1156.5 L991.767 1084.09 L965.442 1030.41  Z" fill="#ff0000" fill-rule="evenodd" fill-opacity="0.15"/>
<polyline clip-path="url(#clip812)" style="stroke:#ff0000; stroke-linecap:round; stroke-linejoin:round; stroke-width:8; stroke-opacity:0.8; fill:none" points="965.442,1084.32 991.767,1140.3 1018.09,1213.54 1044.42,1254.15 1070.74,1313.62 1097.07,1363.8 1123.39,1398.8 1149.72,1417.08 1176.04,1412.52 1202.37,1397.37 1228.69,1388.95 1255.02,1345.27 1281.34,1299.16 1307.67,1257.54 1333.99,1210.91 1360.32,1116.54 1386.65,1064.66 1412.97,1018.24 1439.3,877.352 1465.62,869.975 1491.95,797.923 1518.27,730.636 1544.6,656.602 1570.92,657.232 1597.25,627.237 1623.57,649.195 1649.9,620.49 1676.22,651.806 1702.55,710.253 1728.87,735.838 1755.2,796.856 1781.52,864.722 1807.85,919.48 1834.17,973.09 1860.5,1007.9 1886.82,1073.06 1913.15,1089.78 1939.47,1113.97 1965.8,1116.68 1992.13,1121.48 2018.45,1112.9 2044.78,1074.7 2071.1,1021.51 2097.43,964.382 2123.75,882.88 2150.08,849.216 2176.4,767.094 2202.73,689.717 2229.05,587.974 2255.38,528.623 2281.7,496.331 2308.03,415.256 2334.35,386.541 2360.68,355.905 2387,341.761 "/>
<path clip-path="url(#clip810)" d="M3192.16 519.48 L3952.76 519.48 L3952.76 312.12 L3192.16 312.12  Z" fill="#ffffff" fill-rule="evenodd" fill-opacity="1"/>
<polyline clip-path="url(#clip810)" style="stroke:#000000; stroke-linecap:round; stroke-linejoin:round; stroke-width:4; stroke-opacity:1; fill:none" points="3192.16,519.48 3952.76,519.48 3952.76,312.12 3192.16,312.12 3192.16,519.48 "/>
<polyline clip-path="url(#clip810)" style="stroke:#000000; stroke-linecap:round; stroke-linejoin:round; stroke-width:8; stroke-opacity:1; fill:none" stroke-dasharray="4, 8" points="3232.65,363.96 3475.63,363.96 "/>
<path clip-path="url(#clip810)" d="M3532.15 349.852 Q3527.05 349.852 3524.04 353.648 Q3521.06 357.444 3521.06 363.995 Q3521.06 370.523 3524.04 374.319 Q3527.05 378.115 3532.15 378.115 Q3537.24 378.115 3540.2 374.319 Q3543.19 370.523 3543.19 363.995 Q3543.19 357.444 3540.2 353.648 Q3537.24 349.852 3532.15 349.852 M3532.15 346.055 Q3539.41 346.055 3543.77 350.94 Q3548.12 355.801 3548.12 363.995 Q3548.12 372.166 3543.77 377.051 Q3539.41 381.912 3532.15 381.912 Q3524.85 381.912 3520.48 377.051 Q3516.13 372.189 3516.13 363.995 Q3516.13 355.801 3520.48 350.94 Q3524.85 346.055 3532.15 346.055 Z" fill="#000000" fill-rule="nonzero" fill-opacity="1" /><path clip-path="url(#clip810)" d="M3573.86 368.301 Q3573.86 363.602 3571.91 360.94 Q3569.99 358.254 3566.61 358.254 Q3563.23 358.254 3561.29 360.94 Q3559.37 363.602 3559.37 368.301 Q3559.37 373 3561.29 375.685 Q3563.23 378.347 3566.61 378.347 Q3569.99 378.347 3571.91 375.685 Q3573.86 373 3573.86 368.301 M3559.37 359.25 Q3560.71 356.935 3562.75 355.824 Q3564.81 354.69 3567.66 354.69 Q3572.38 354.69 3575.32 358.44 Q3578.28 362.19 3578.28 368.301 Q3578.28 374.412 3575.32 378.162 Q3572.38 381.912 3567.66 381.912 Q3564.81 381.912 3562.75 380.801 Q3560.71 379.666 3559.37 377.351 L3559.37 381.24 L3555.09 381.24 L3555.09 345.222 L3559.37 345.222 L3559.37 359.25 Z" fill="#000000" fill-rule="nonzero" fill-opacity="1" /><path clip-path="url(#clip810)" d="M3601.87 356.078 L3601.87 360.106 Q3600.06 359.18 3598.12 358.717 Q3596.17 358.254 3594.09 358.254 Q3590.92 358.254 3589.32 359.227 Q3587.75 360.199 3587.75 362.143 Q3587.75 363.625 3588.88 364.481 Q3590.02 365.315 3593.44 366.078 L3594.9 366.402 Q3599.44 367.375 3601.34 369.157 Q3603.26 370.916 3603.26 374.088 Q3603.26 377.699 3600.39 379.805 Q3597.54 381.912 3592.54 381.912 Q3590.46 381.912 3588.19 381.495 Q3585.94 381.101 3583.44 380.291 L3583.44 375.893 Q3585.8 377.12 3588.09 377.745 Q3590.39 378.347 3592.63 378.347 Q3595.64 378.347 3597.26 377.328 Q3598.88 376.287 3598.88 374.412 Q3598.88 372.676 3597.7 371.75 Q3596.54 370.824 3592.59 369.967 L3591.1 369.62 Q3587.15 368.787 3585.39 367.074 Q3583.63 365.338 3583.63 362.328 Q3583.63 358.671 3586.22 356.68 Q3588.81 354.69 3593.58 354.69 Q3595.94 354.69 3598.03 355.037 Q3600.11 355.384 3601.87 356.078 Z" fill="#000000" fill-rule="nonzero" fill-opacity="1" /><path clip-path="url(#clip810)" d="M3632.21 367.213 L3632.21 369.296 L3612.63 369.296 Q3612.91 373.694 3615.27 376.009 Q3617.65 378.301 3621.89 378.301 Q3624.34 378.301 3626.64 377.699 Q3628.95 377.097 3631.22 375.893 L3631.22 379.921 Q3628.93 380.893 3626.52 381.402 Q3624.11 381.912 3621.64 381.912 Q3615.43 381.912 3611.8 378.301 Q3608.19 374.689 3608.19 368.532 Q3608.19 362.166 3611.61 358.44 Q3615.06 354.69 3620.9 354.69 Q3626.13 354.69 3629.16 358.069 Q3632.21 361.426 3632.21 367.213 M3627.96 365.963 Q3627.91 362.467 3625.99 360.384 Q3624.09 358.301 3620.94 358.301 Q3617.38 358.301 3615.22 360.315 Q3613.09 362.328 3612.77 365.986 L3627.96 365.963 Z" fill="#000000" fill-rule="nonzero" fill-opacity="1" /><path clip-path="url(#clip810)" d="M3654.23 359.296 Q3653.51 358.879 3652.65 358.694 Q3651.82 358.486 3650.8 358.486 Q3647.19 358.486 3645.25 360.847 Q3643.33 363.185 3643.33 367.583 L3643.33 381.24 L3639.04 381.24 L3639.04 355.315 L3643.33 355.315 L3643.33 359.342 Q3644.67 356.981 3646.82 355.847 Q3648.97 354.69 3652.05 354.69 Q3652.49 354.69 3653.03 354.759 Q3653.56 354.805 3654.21 354.921 L3654.23 359.296 Z" fill="#000000" fill-rule="nonzero" fill-opacity="1" /><path clip-path="url(#clip810)" d="M3655.64 355.315 L3660.15 355.315 L3668.26 377.074 L3676.36 355.315 L3680.87 355.315 L3671.15 381.24 L3665.36 381.24 L3655.64 355.315 Z" fill="#000000" fill-rule="nonzero" fill-opacity="1" /><path clip-path="url(#clip810)" d="M3708.93 367.213 L3708.93 369.296 L3689.34 369.296 Q3689.62 373.694 3691.98 376.009 Q3694.37 378.301 3698.6 378.301 Q3701.06 378.301 3703.35 377.699 Q3705.66 377.097 3707.93 375.893 L3707.93 379.921 Q3705.64 380.893 3703.23 381.402 Q3700.83 381.912 3698.35 381.912 Q3692.15 381.912 3688.51 378.301 Q3684.9 374.689 3684.9 368.532 Q3684.9 362.166 3688.33 358.44 Q3691.77 354.69 3697.61 354.69 Q3702.84 354.69 3705.87 358.069 Q3708.93 361.426 3708.93 367.213 M3704.67 365.963 Q3704.62 362.467 3702.7 360.384 Q3700.8 358.301 3697.65 358.301 Q3694.09 358.301 3691.94 360.315 Q3689.81 362.328 3689.48 365.986 L3704.67 365.963 Z" fill="#000000" fill-rule="nonzero" fill-opacity="1" /><path clip-path="url(#clip810)" d="M3732.98 359.25 L3732.98 345.222 L3737.24 345.222 L3737.24 381.24 L3732.98 381.24 L3732.98 377.351 Q3731.64 379.666 3729.58 380.801 Q3727.54 381.912 3724.67 381.912 Q3719.97 381.912 3717.01 378.162 Q3714.07 374.412 3714.07 368.301 Q3714.07 362.19 3717.01 358.44 Q3719.97 354.69 3724.67 354.69 Q3727.54 354.69 3729.58 355.824 Q3731.64 356.935 3732.98 359.25 M3718.46 368.301 Q3718.46 373 3720.39 375.685 Q3722.33 378.347 3725.71 378.347 Q3729.09 378.347 3731.03 375.685 Q3732.98 373 3732.98 368.301 Q3732.98 363.602 3731.03 360.94 Q3729.09 358.254 3725.71 358.254 Q3722.33 358.254 3720.39 360.94 Q3718.46 363.602 3718.46 368.301 Z" fill="#000000" fill-rule="nonzero" fill-opacity="1" /><polyline clip-path="url(#clip810)" style="stroke:#000000; stroke-linecap:round; stroke-linejoin:round; stroke-width:8; stroke-opacity:0.3; fill:none" points="3232.65,415.8 3475.63,415.8 "/>
<path clip-path="url(#clip810)" d="M3541.68 428.15 L3541.68 418.867 L3534.04 418.867 L3534.04 415.025 L3546.31 415.025 L3546.31 429.863 Q3543.6 431.784 3540.34 432.779 Q3537.08 433.752 3533.37 433.752 Q3525.27 433.752 3520.69 429.029 Q3516.13 424.284 3516.13 415.835 Q3516.13 407.363 3520.69 402.641 Q3525.27 397.895 3533.37 397.895 Q3536.75 397.895 3539.78 398.729 Q3542.84 399.562 3545.41 401.182 L3545.41 406.159 Q3542.82 403.96 3539.9 402.849 Q3536.98 401.738 3533.77 401.738 Q3527.42 401.738 3524.23 405.28 Q3521.06 408.821 3521.06 415.835 Q3521.06 422.826 3524.23 426.367 Q3527.42 429.909 3533.77 429.909 Q3536.24 429.909 3538.19 429.492 Q3540.13 429.053 3541.68 428.15 Z" fill="#000000" fill-rule="nonzero" fill-opacity="1" /><path clip-path="url(#clip810)" d="M3569.69 411.136 Q3568.97 410.719 3568.12 410.534 Q3567.28 410.326 3566.27 410.326 Q3562.66 410.326 3560.71 412.687 Q3558.79 415.025 3558.79 419.423 L3558.79 433.08 L3554.51 433.08 L3554.51 407.155 L3558.79 407.155 L3558.79 411.182 Q3560.13 408.821 3562.28 407.687 Q3564.44 406.53 3567.52 406.53 Q3567.96 406.53 3568.49 406.599 Q3569.02 406.645 3569.67 406.761 L3569.69 411.136 Z" fill="#000000" fill-rule="nonzero" fill-opacity="1" /><path clip-path="url(#clip810)" d="M3583.16 410.141 Q3579.74 410.141 3577.75 412.826 Q3575.76 415.488 3575.76 420.141 Q3575.76 424.793 3577.72 427.479 Q3579.72 430.141 3583.16 430.141 Q3586.57 430.141 3588.56 427.455 Q3590.55 424.77 3590.55 420.141 Q3590.55 415.534 3588.56 412.849 Q3586.57 410.141 3583.16 410.141 M3583.16 406.53 Q3588.72 406.53 3591.89 410.141 Q3595.06 413.752 3595.06 420.141 Q3595.06 426.506 3591.89 430.141 Q3588.72 433.752 3583.16 433.752 Q3577.59 433.752 3574.41 430.141 Q3571.27 426.506 3571.27 420.141 Q3571.27 413.752 3574.41 410.141 Q3577.59 406.53 3583.16 406.53 Z" fill="#000000" fill-rule="nonzero" fill-opacity="1" /><path clip-path="url(#clip810)" d="M3601.68 422.849 L3601.68 407.155 L3605.94 407.155 L3605.94 422.687 Q3605.94 426.367 3607.38 428.219 Q3608.81 430.048 3611.68 430.048 Q3615.13 430.048 3617.12 427.849 Q3619.14 425.65 3619.14 421.854 L3619.14 407.155 L3623.4 407.155 L3623.4 433.08 L3619.14 433.08 L3619.14 429.099 Q3617.59 431.46 3615.53 432.617 Q3613.49 433.752 3610.78 433.752 Q3606.31 433.752 3604 430.974 Q3601.68 428.196 3601.68 422.849 M3612.4 406.53 L3612.4 406.53 Z" fill="#000000" fill-rule="nonzero" fill-opacity="1" /><path clip-path="url(#clip810)" d="M3653.72 417.432 L3653.72 433.08 L3649.46 433.08 L3649.46 417.571 Q3649.46 413.891 3648.03 412.062 Q3646.59 410.233 3643.72 410.233 Q3640.27 410.233 3638.28 412.432 Q3636.29 414.631 3636.29 418.428 L3636.29 433.08 L3632.01 433.08 L3632.01 407.155 L3636.29 407.155 L3636.29 411.182 Q3637.82 408.844 3639.88 407.687 Q3641.96 406.53 3644.67 406.53 Q3649.14 406.53 3651.43 409.307 Q3653.72 412.062 3653.72 417.432 Z" fill="#000000" fill-rule="nonzero" fill-opacity="1" /><path clip-path="url(#clip810)" d="M3679.27 411.09 L3679.27 397.062 L3683.53 397.062 L3683.53 433.08 L3679.27 433.08 L3679.27 429.191 Q3677.93 431.506 3675.87 432.641 Q3673.84 433.752 3670.96 433.752 Q3666.27 433.752 3663.3 430.002 Q3660.36 426.252 3660.36 420.141 Q3660.36 414.03 3663.3 410.28 Q3666.27 406.53 3670.96 406.53 Q3673.84 406.53 3675.87 407.664 Q3677.93 408.775 3679.27 411.09 M3664.76 420.141 Q3664.76 424.84 3666.68 427.525 Q3668.63 430.187 3672.01 430.187 Q3675.39 430.187 3677.33 427.525 Q3679.27 424.84 3679.27 420.141 Q3679.27 415.442 3677.33 412.78 Q3675.39 410.094 3672.01 410.094 Q3668.63 410.094 3666.68 412.78 Q3664.76 415.442 3664.76 420.141 Z" fill="#000000" fill-rule="nonzero" fill-opacity="1" /><path clip-path="url(#clip810)" d="M3711.59 399.794 L3711.59 407.155 L3720.36 407.155 L3720.36 410.465 L3711.59 410.465 L3711.59 424.539 Q3711.59 427.71 3712.45 428.613 Q3713.33 429.516 3715.99 429.516 L3720.36 429.516 L3720.36 433.08 L3715.99 433.08 Q3711.06 433.08 3709.18 431.252 Q3707.31 429.4 3707.31 424.539 L3707.31 410.465 L3704.18 410.465 L3704.18 407.155 L3707.31 407.155 L3707.31 399.794 L3711.59 399.794 Z" fill="#000000" fill-rule="nonzero" fill-opacity="1" /><path clip-path="url(#clip810)" d="M3740.99 411.136 Q3740.27 410.719 3739.41 410.534 Q3738.58 410.326 3737.56 410.326 Q3733.95 410.326 3732.01 412.687 Q3730.08 415.025 3730.08 419.423 L3730.08 433.08 L3725.8 433.08 L3725.8 407.155 L3730.08 407.155 L3730.08 411.182 Q3731.43 408.821 3733.58 407.687 Q3735.73 406.53 3738.81 406.53 Q3739.25 406.53 3739.78 406.599 Q3740.32 406.645 3740.96 406.761 L3740.99 411.136 Z" fill="#000000" fill-rule="nonzero" fill-opacity="1" /><path clip-path="url(#clip810)" d="M3745.02 422.849 L3745.02 407.155 L3749.27 407.155 L3749.27 422.687 Q3749.27 426.367 3750.71 428.219 Q3752.14 430.048 3755.02 430.048 Q3758.46 430.048 3760.45 427.849 Q3762.47 425.65 3762.47 421.854 L3762.47 407.155 L3766.73 407.155 L3766.73 433.08 L3762.47 433.08 L3762.47 429.099 Q3760.92 431.46 3758.86 432.617 Q3756.82 433.752 3754.11 433.752 Q3749.64 433.752 3747.33 430.974 Q3745.02 428.196 3745.02 422.849 M3755.73 406.53 L3755.73 406.53 Z" fill="#000000" fill-rule="nonzero" fill-opacity="1" /><path clip-path="url(#clip810)" d="M3779.71 399.794 L3779.71 407.155 L3788.49 407.155 L3788.49 410.465 L3779.71 410.465 L3779.71 424.539 Q3779.71 427.71 3780.57 428.613 Q3781.45 429.516 3784.11 429.516 L3788.49 429.516 L3788.49 433.08 L3784.11 433.08 Q3779.18 433.08 3777.31 431.252 Q3775.43 429.4 3775.43 424.539 L3775.43 410.465 L3772.31 410.465 L3772.31 407.155 L3775.43 407.155 L3775.43 399.794 L3779.71 399.794 Z" fill="#000000" fill-rule="nonzero" fill-opacity="1" /><path clip-path="url(#clip810)" d="M3815.64 417.432 L3815.64 433.08 L3811.38 433.08 L3811.38 417.571 Q3811.38 413.891 3809.95 412.062 Q3808.51 410.233 3805.64 410.233 Q3802.19 410.233 3800.2 412.432 Q3798.21 414.631 3798.21 418.428 L3798.21 433.08 L3793.93 433.08 L3793.93 397.062 L3798.21 397.062 L3798.21 411.182 Q3799.74 408.844 3801.8 407.687 Q3803.88 406.53 3806.59 406.53 Q3811.06 406.53 3813.35 409.307 Q3815.64 412.062 3815.64 417.432 Z" fill="#000000" fill-rule="nonzero" fill-opacity="1" /><polyline clip-path="url(#clip810)" style="stroke:#ff0000; stroke-linecap:round; stroke-linejoin:round; stroke-width:8; stroke-opacity:0.8; fill:none" points="3232.65,467.64 3475.63,467.64 "/>
<path clip-path="url(#clip810)" d="M3516.13 450.36 L3523.1 450.36 L3531.91 473.879 L3540.78 450.36 L3547.75 450.36 L3547.75 484.92 L3543.19 484.92 L3543.19 454.573 L3534.28 478.277 L3529.58 478.277 L3520.66 454.573 L3520.66 484.92 L3516.13 484.92 L3516.13 450.36 Z" fill="#000000" fill-rule="nonzero" fill-opacity="1" /><path clip-path="url(#clip810)" d="M3561.71 454.203 L3561.71 467.189 L3567.59 467.189 Q3570.85 467.189 3572.63 465.499 Q3574.41 463.809 3574.41 460.684 Q3574.41 457.583 3572.63 455.893 Q3570.85 454.203 3567.59 454.203 L3561.71 454.203 M3557.03 450.36 L3567.59 450.36 Q3573.4 450.36 3576.36 452.999 Q3579.34 455.615 3579.34 460.684 Q3579.34 465.8 3576.36 468.416 Q3573.4 471.032 3567.59 471.032 L3561.71 471.032 L3561.71 484.92 L3557.03 484.92 L3557.03 450.36 Z" fill="#000000" fill-rule="nonzero" fill-opacity="1" /><path clip-path="url(#clip810)" d="M3606.34 451.495 L3606.34 456.055 Q3603.67 454.782 3601.31 454.157 Q3598.95 453.532 3596.75 453.532 Q3592.93 453.532 3590.85 455.013 Q3588.79 456.495 3588.79 459.226 Q3588.79 461.518 3590.15 462.698 Q3591.54 463.856 3595.39 464.573 L3598.21 465.152 Q3603.44 466.147 3605.92 468.67 Q3608.42 471.17 3608.42 475.383 Q3608.42 480.407 3605.04 482.999 Q3601.68 485.592 3595.18 485.592 Q3592.72 485.592 3589.95 485.036 Q3587.19 484.481 3584.23 483.393 L3584.23 478.578 Q3587.08 480.175 3589.81 480.985 Q3592.54 481.795 3595.18 481.795 Q3599.18 481.795 3601.36 480.221 Q3603.53 478.647 3603.53 475.731 Q3603.53 473.184 3601.96 471.749 Q3600.41 470.314 3596.84 469.596 L3594 469.041 Q3588.77 467.999 3586.43 465.777 Q3584.09 463.555 3584.09 459.596 Q3584.09 455.013 3587.31 452.374 Q3590.55 449.735 3596.22 449.735 Q3598.65 449.735 3601.17 450.175 Q3603.7 450.615 3606.34 451.495 Z" fill="#000000" fill-rule="nonzero" fill-opacity="1" /><path clip-path="url(#clip810)" d="M3630.78 450.36 L3635.46 450.36 L3635.46 484.92 L3630.78 484.92 L3630.78 450.36 Z" fill="#000000" fill-rule="nonzero" fill-opacity="1" /><path clip-path="url(#clip810)" d="M3666.13 469.272 L3666.13 484.92 L3661.87 484.92 L3661.87 469.411 Q3661.87 465.731 3660.43 463.902 Q3659 462.073 3656.13 462.073 Q3652.68 462.073 3650.69 464.272 Q3648.7 466.471 3648.7 470.268 L3648.7 484.92 L3644.41 484.92 L3644.41 458.995 L3648.7 458.995 L3648.7 463.022 Q3650.22 460.684 3652.28 459.527 Q3654.37 458.37 3657.08 458.37 Q3661.54 458.37 3663.84 461.147 Q3666.13 463.902 3666.13 469.272 Z" fill="#000000" fill-rule="nonzero" fill-opacity="1" /><path clip-path="url(#clip810)" d="M3678.84 451.634 L3678.84 458.995 L3687.61 458.995 L3687.61 462.305 L3678.84 462.305 L3678.84 476.379 Q3678.84 479.55 3679.69 480.453 Q3680.57 481.356 3683.23 481.356 L3687.61 481.356 L3687.61 484.92 L3683.23 484.92 Q3678.3 484.92 3676.43 483.092 Q3674.55 481.24 3674.55 476.379 L3674.55 462.305 L3671.43 462.305 L3671.43 458.995 L3674.55 458.995 L3674.55 451.634 L3678.84 451.634 Z" fill="#000000" fill-rule="nonzero" fill-opacity="1" /><path clip-path="url(#clip810)" d="M3715.39 470.893 L3715.39 472.976 L3695.8 472.976 Q3696.08 477.374 3698.44 479.689 Q3700.83 481.981 3705.06 481.981 Q3707.52 481.981 3709.81 481.379 Q3712.12 480.777 3714.39 479.573 L3714.39 483.601 Q3712.1 484.573 3709.69 485.082 Q3707.28 485.592 3704.81 485.592 Q3698.6 485.592 3694.97 481.981 Q3691.36 478.369 3691.36 472.212 Q3691.36 465.846 3694.78 462.12 Q3698.23 458.37 3704.07 458.37 Q3709.3 458.37 3712.33 461.749 Q3715.39 465.106 3715.39 470.893 M3711.13 469.643 Q3711.08 466.147 3709.16 464.064 Q3707.26 461.981 3704.11 461.981 Q3700.55 461.981 3698.4 463.995 Q3696.27 466.008 3695.94 469.666 L3711.13 469.643 Z" fill="#000000" fill-rule="nonzero" fill-opacity="1" /><path clip-path="url(#clip810)" d="M3737.4 462.976 Q3736.68 462.559 3735.83 462.374 Q3734.99 462.166 3733.97 462.166 Q3730.36 462.166 3728.42 464.527 Q3726.5 466.865 3726.5 471.263 L3726.5 484.92 L3722.21 484.92 L3722.21 458.995 L3726.5 458.995 L3726.5 463.022 Q3727.84 460.661 3729.99 459.527 Q3732.14 458.37 3735.22 458.37 Q3735.66 458.37 3736.2 458.439 Q3736.73 458.485 3737.38 458.601 L3737.4 462.976 Z" fill="#000000" fill-rule="nonzero" fill-opacity="1" /><path clip-path="url(#clip810)" d="M3745.99 481.031 L3745.99 494.781 L3741.71 494.781 L3741.71 458.995 L3745.99 458.995 L3745.99 462.93 Q3747.33 460.615 3749.37 459.504 Q3751.43 458.37 3754.27 458.37 Q3759 458.37 3761.94 462.12 Q3764.9 465.87 3764.9 471.981 Q3764.9 478.092 3761.94 481.842 Q3759 485.592 3754.27 485.592 Q3751.43 485.592 3749.37 484.481 Q3747.33 483.346 3745.99 481.031 M3760.48 471.981 Q3760.48 467.282 3758.53 464.62 Q3756.61 461.934 3753.23 461.934 Q3749.85 461.934 3747.91 464.62 Q3745.99 467.282 3745.99 471.981 Q3745.99 476.68 3747.91 479.365 Q3749.85 482.027 3753.23 482.027 Q3756.61 482.027 3758.53 479.365 Q3760.48 476.68 3760.48 471.981 Z" fill="#000000" fill-rule="nonzero" fill-opacity="1" /><path clip-path="url(#clip810)" d="M3782.01 461.981 Q3778.58 461.981 3776.59 464.666 Q3774.6 467.328 3774.6 471.981 Q3774.6 476.633 3776.57 479.319 Q3778.56 481.981 3782.01 481.981 Q3785.41 481.981 3787.4 479.295 Q3789.39 476.61 3789.39 471.981 Q3789.39 467.374 3787.4 464.689 Q3785.41 461.981 3782.01 461.981 M3782.01 458.37 Q3787.56 458.37 3790.73 461.981 Q3793.9 465.592 3793.9 471.981 Q3793.9 478.346 3790.73 481.981 Q3787.56 485.592 3782.01 485.592 Q3776.43 485.592 3773.26 481.981 Q3770.11 478.346 3770.11 471.981 Q3770.11 465.592 3773.26 461.981 Q3776.43 458.37 3782.01 458.37 Z" fill="#000000" fill-rule="nonzero" fill-opacity="1" /><path clip-path="url(#clip810)" d="M3800.96 448.902 L3805.22 448.902 L3805.22 484.92 L3800.96 484.92 L3800.96 448.902 Z" fill="#000000" fill-rule="nonzero" fill-opacity="1" /><path clip-path="url(#clip810)" d="M3825.92 471.888 Q3820.76 471.888 3818.76 473.069 Q3816.77 474.249 3816.77 477.096 Q3816.77 479.365 3818.26 480.707 Q3819.76 482.027 3822.33 482.027 Q3825.87 482.027 3828 479.527 Q3830.15 477.004 3830.15 472.837 L3830.15 471.888 L3825.92 471.888 M3834.41 470.129 L3834.41 484.92 L3830.15 484.92 L3830.15 480.985 Q3828.7 483.346 3826.52 484.481 Q3824.34 485.592 3821.2 485.592 Q3817.21 485.592 3814.85 483.369 Q3812.51 481.124 3812.51 477.374 Q3812.51 472.999 3815.43 470.777 Q3818.37 468.555 3824.18 468.555 L3830.15 468.555 L3830.15 468.138 Q3830.15 465.198 3828.21 463.601 Q3826.29 461.981 3822.79 461.981 Q3820.57 461.981 3818.46 462.513 Q3816.36 463.045 3814.41 464.11 L3814.41 460.175 Q3816.75 459.272 3818.95 458.833 Q3821.15 458.37 3823.23 458.37 Q3828.86 458.37 3831.64 461.286 Q3834.41 464.203 3834.41 470.129 Z" fill="#000000" fill-rule="nonzero" fill-opacity="1" /><path clip-path="url(#clip810)" d="M3847.4 451.634 L3847.4 458.995 L3856.17 458.995 L3856.17 462.305 L3847.4 462.305 L3847.4 476.379 Q3847.4 479.55 3848.26 480.453 Q3849.14 481.356 3851.8 481.356 L3856.17 481.356 L3856.17 484.92 L3851.8 484.92 Q3846.87 484.92 3844.99 483.092 Q3843.12 481.24 3843.12 476.379 L3843.12 462.305 L3839.99 462.305 L3839.99 458.995 L3843.12 458.995 L3843.12 451.634 L3847.4 451.634 Z" fill="#000000" fill-rule="nonzero" fill-opacity="1" /><path clip-path="url(#clip810)" d="M3883.95 470.893 L3883.95 472.976 L3864.37 472.976 Q3864.64 477.374 3867.01 479.689 Q3869.39 481.981 3873.63 481.981 Q3876.08 481.981 3878.37 481.379 Q3880.69 480.777 3882.95 479.573 L3882.95 483.601 Q3880.66 484.573 3878.26 485.082 Q3875.85 485.592 3873.37 485.592 Q3867.17 485.592 3863.53 481.981 Q3859.92 478.369 3859.92 472.212 Q3859.92 465.846 3863.35 462.12 Q3866.8 458.37 3872.63 458.37 Q3877.86 458.37 3880.89 461.749 Q3883.95 465.106 3883.95 470.893 M3879.69 469.643 Q3879.64 466.147 3877.72 464.064 Q3875.82 461.981 3872.68 461.981 Q3869.11 461.981 3866.96 463.995 Q3864.83 466.008 3864.51 469.666 L3879.69 469.643 Z" fill="#000000" fill-rule="nonzero" fill-opacity="1" /><path clip-path="url(#clip810)" d="M3908 462.93 L3908 448.902 L3912.26 448.902 L3912.26 484.92 L3908 484.92 L3908 481.031 Q3906.66 483.346 3904.6 484.481 Q3902.56 485.592 3899.69 485.592 Q3894.99 485.592 3892.03 481.842 Q3889.09 478.092 3889.09 471.981 Q3889.09 465.87 3892.03 462.12 Q3894.99 458.37 3899.69 458.37 Q3902.56 458.37 3904.6 459.504 Q3906.66 460.615 3908 462.93 M3893.49 471.981 Q3893.49 476.68 3895.41 479.365 Q3897.35 482.027 3900.73 482.027 Q3904.11 482.027 3906.06 479.365 Q3908 476.68 3908 471.981 Q3908 467.282 3906.06 464.62 Q3904.11 461.934 3900.73 461.934 Q3897.35 461.934 3895.41 464.62 Q3893.49 467.282 3893.49 471.981 Z" fill="#000000" fill-rule="nonzero" fill-opacity="1" /></svg>
