<?xml version="1.0" encoding="utf-8"?>
<svg xmlns="http://www.w3.org/2000/svg" xmlns:xlink="http://www.w3.org/1999/xlink" width="1000" height="500" viewBox="0 0 4000 2000">
<defs>
  <clipPath id="clip420">
    <rect x="0" y="0" width="4000" height="2000"/>
  </clipPath>
</defs>
<path clip-path="url(#clip420)" d="M0 2000 L4000 2000 L4000 0 L0 0  Z" fill="#ffffff" fill-rule="evenodd" fill-opacity="1"/>
<defs>
  <clipPath id="clip421">
    <rect x="800" y="0" width="2801" height="2000"/>
  </clipPath>
</defs>
<path clip-path="url(#clip420)" d="M341.436 1676.27 L3075.11 1676.27 L3075.11 206.984 L341.436 206.984  Z" fill="#ffffff" fill-rule="evenodd" fill-opacity="1"/>
<defs>
  <clipPath id="clip422">
    <rect x="341" y="206" width="2735" height="1470"/>
  </clipPath>
</defs>
<polyline clip-path="url(#clip422)" style="stroke:#000000; stroke-linecap:round; stroke-linejoin:round; stroke-width:2; stroke-opacity:0.1; fill:none" points="392.754,1676.27 392.754,206.984 "/>
<polyline clip-path="url(#clip422)" style="stroke:#000000; stroke-linecap:round; stroke-linejoin:round; stroke-width:2; stroke-opacity:0.1; fill:none" points="1044,1676.27 1044,206.984 "/>
<polyline clip-path="url(#clip422)" style="stroke:#000000; stroke-linecap:round; stroke-linejoin:round; stroke-width:2; stroke-opacity:0.1; fill:none" points="1695.25,1676.27 1695.25,206.984 "/>
<polyline clip-path="url(#clip422)" style="stroke:#000000; stroke-linecap:round; stroke-linejoin:round; stroke-width:2; stroke-opacity:0.1; fill:none" points="2346.5,1676.27 2346.5,206.984 "/>
<polyline clip-path="url(#clip422)" style="stroke:#000000; stroke-linecap:round; stroke-linejoin:round; stroke-width:2; stroke-opacity:0.1; fill:none" points="2997.75,1676.27 2997.75,206.984 "/>
<polyline clip-path="url(#clip422)" style="stroke:#000000; stroke-linecap:round; stroke-linejoin:round; stroke-width:2; stroke-opacity:0.1; fill:none" points="341.436,1429.49 3075.11,1429.49 "/>
<polyline clip-path="url(#clip422)" style="stroke:#000000; stroke-linecap:round; stroke-linejoin:round; stroke-width:2; stroke-opacity:0.1; fill:none" points="341.436,1135.63 3075.11,1135.63 "/>
<polyline clip-path="url(#clip422)" style="stroke:#000000; stroke-linecap:round; stroke-linejoin:round; stroke-width:2; stroke-opacity:0.1; fill:none" points="341.436,841.76 3075.11,841.76 "/>
<polyline clip-path="url(#clip422)" style="stroke:#000000; stroke-linecap:round; stroke-linejoin:round; stroke-width:2; stroke-opacity:0.1; fill:none" points="341.436,547.895 3075.11,547.895 "/>
<polyline clip-path="url(#clip422)" style="stroke:#000000; stroke-linecap:round; stroke-linejoin:round; stroke-width:2; stroke-opacity:0.1; fill:none" points="341.436,254.029 3075.11,254.029 "/>
<polyline clip-path="url(#clip420)" style="stroke:#000000; stroke-linecap:round; stroke-linejoin:round; stroke-width:4; stroke-opacity:1; fill:none" points="341.436,1676.27 3075.11,1676.27 "/>
<polyline clip-path="url(#clip420)" style="stroke:#000000; stroke-linecap:round; stroke-linejoin:round; stroke-width:4; stroke-opacity:1; fill:none" points="392.754,1676.27 392.754,1657.37 "/>
<polyline clip-path="url(#clip420)" style="stroke:#000000; stroke-linecap:round; stroke-linejoin:round; stroke-width:4; stroke-opacity:1; fill:none" points="1044,1676.27 1044,1657.37 "/>
<polyline clip-path="url(#clip420)" style="stroke:#000000; stroke-linecap:round; stroke-linejoin:round; stroke-width:4; stroke-opacity:1; fill:none" points="1695.25,1676.27 1695.25,1657.37 "/>
<polyline clip-path="url(#clip420)" style="stroke:#000000; stroke-linecap:round; stroke-linejoin:round; stroke-width:4; stroke-opacity:1; fill:none" points="2346.5,1676.27 2346.5,1657.37 "/>
<polyline clip-path="url(#clip420)" style="stroke:#000000; stroke-linecap:round; stroke-linejoin:round; stroke-width:4; stroke-opacity:1; fill:none" points="2997.75,1676.27 2997.75,1657.37 "/>
<path clip-path="url(#clip420)" d="M392.754 1744.89 Q381.469 1744.89 375.755 1756.03 Q370.112 1767.1 370.112 1789.38 Q370.112 1811.58 375.755 1822.72 Q381.469 1833.79 392.754 1833.79 Q404.111 1833.79 409.753 1822.72 Q415.468 1811.58 415.468 1789.38 Q415.468 1767.1 409.753 1756.03 Q404.111 1744.89 392.754 1744.89 M392.754 1733.31 Q410.911 1733.31 420.459 1747.71 Q430.08 1762.03 430.08 1789.38 Q430.08 1816.65 420.459 1831.04 Q410.911 1845.37 392.754 1845.37 Q374.597 1845.37 364.976 1831.04 Q355.428 1816.65 355.428 1789.38 Q355.428 1762.03 364.976 1747.71 Q374.597 1733.31 392.754 1733.31 Z" fill="#000000" fill-rule="nonzero" fill-opacity="1" /><path clip-path="url(#clip420)" d="M979.224 1830.97 L1030.22 1830.97 L1030.22 1843.27 L961.646 1843.27 L961.646 1830.97 Q969.964 1822.36 984.287 1807.89 Q998.682 1793.35 1002.37 1789.16 Q1009.39 1781.27 1012.14 1775.85 Q1014.96 1770.35 1014.96 1765.07 Q1014.96 1756.46 1008.88 1751.04 Q1002.88 1745.61 993.185 1745.61 Q986.313 1745.61 978.645 1748 Q971.05 1750.39 962.369 1755.23 L962.369 1740.48 Q971.194 1736.93 978.862 1735.12 Q986.53 1733.31 992.895 1733.31 Q1009.68 1733.31 1019.66 1741.71 Q1029.64 1750.1 1029.64 1764.13 Q1029.64 1770.79 1027.11 1776.79 Q1024.65 1782.72 1018.07 1790.82 Q1016.26 1792.92 1006.57 1802.98 Q996.874 1812.96 979.224 1830.97 Z" fill="#000000" fill-rule="nonzero" fill-opacity="1" /><path clip-path="url(#clip420)" d="M1061.04 1735.27 L1118.4 1735.27 L1118.4 1747.57 L1074.42 1747.57 L1074.42 1774.04 Q1077.6 1772.96 1080.79 1772.45 Q1083.97 1771.87 1087.15 1771.87 Q1105.24 1771.87 1115.8 1781.78 Q1126.36 1791.69 1126.36 1808.62 Q1126.36 1826.05 1115.51 1835.74 Q1104.66 1845.37 1084.91 1845.37 Q1078.11 1845.37 1071.02 1844.21 Q1064 1843.05 1056.48 1840.74 L1056.48 1826.05 Q1062.99 1829.6 1069.93 1831.33 Q1076.88 1833.07 1084.62 1833.07 Q1097.13 1833.07 1104.44 1826.49 Q1111.75 1819.9 1111.75 1808.62 Q1111.75 1797.33 1104.44 1790.75 Q1097.13 1784.17 1084.62 1784.17 Q1078.76 1784.17 1072.9 1785.47 Q1067.11 1786.77 1061.04 1789.52 L1061.04 1735.27 Z" fill="#000000" fill-rule="nonzero" fill-opacity="1" /><path clip-path="url(#clip420)" d="M1616.19 1735.27 L1673.55 1735.27 L1673.55 1747.57 L1629.57 1747.57 L1629.57 1774.04 Q1632.75 1772.96 1635.93 1772.45 Q1639.12 1771.87 1642.3 1771.87 Q1660.38 1771.87 1670.94 1781.78 Q1681.51 1791.69 1681.51 1808.62 Q1681.51 1826.05 1670.66 1835.74 Q1659.8 1845.37 1640.06 1845.37 Q1633.26 1845.37 1626.17 1844.21 Q1619.15 1843.05 1611.63 1840.74 L1611.63 1826.05 Q1618.14 1829.6 1625.08 1831.33 Q1632.03 1833.07 1639.77 1833.07 Q1652.28 1833.07 1659.59 1826.49 Q1666.89 1819.9 1666.89 1808.62 Q1666.89 1797.33 1659.59 1790.75 Q1652.28 1784.17 1639.77 1784.17 Q1633.91 1784.17 1628.05 1785.47 Q1622.26 1786.77 1616.19 1789.52 L1616.19 1735.27 Z" fill="#000000" fill-rule="nonzero" fill-opacity="1" /><path clip-path="url(#clip420)" d="M1741.55 1744.89 Q1730.26 1744.89 1724.55 1756.03 Q1718.9 1767.1 1718.9 1789.38 Q1718.9 1811.58 1724.55 1822.72 Q1730.26 1833.79 1741.55 1833.79 Q1752.9 1833.79 1758.55 1822.72 Q1764.26 1811.58 1764.26 1789.38 Q1764.26 1767.1 1758.55 1756.03 Q1752.9 1744.89 1741.55 1744.89 M1741.55 1733.31 Q1759.7 1733.31 1769.25 1747.71 Q1778.87 1762.03 1778.87 1789.38 Q1778.87 1816.65 1769.25 1831.04 Q1759.7 1845.37 1741.55 1845.37 Q1723.39 1845.37 1713.77 1831.04 Q1704.22 1816.65 1704.22 1789.38 Q1704.22 1762.03 1713.77 1747.71 Q1723.39 1733.31 1741.55 1733.31 Z" fill="#000000" fill-rule="nonzero" fill-opacity="1" /><path clip-path="url(#clip420)" d="M2264.79 1735.27 L2334.24 1735.27 L2334.24 1741.49 L2295.03 1843.27 L2279.77 1843.27 L2316.66 1747.57 L2264.79 1747.57 L2264.79 1735.27 Z" fill="#000000" fill-rule="nonzero" fill-opacity="1" /><path clip-path="url(#clip420)" d="M2362.88 1735.27 L2420.25 1735.27 L2420.25 1747.57 L2376.26 1747.57 L2376.26 1774.04 Q2379.45 1772.96 2382.63 1772.45 Q2385.81 1771.87 2389 1771.87 Q2407.08 1771.87 2417.64 1781.78 Q2428.2 1791.69 2428.2 1808.62 Q2428.2 1826.05 2417.35 1835.74 Q2406.5 1845.37 2386.75 1845.37 Q2379.95 1845.37 2372.87 1844.21 Q2365.85 1843.05 2358.33 1840.74 L2358.33 1826.05 Q2364.84 1829.6 2371.78 1831.33 Q2378.72 1833.07 2386.46 1833.07 Q2398.98 1833.07 2406.29 1826.49 Q2413.59 1819.9 2413.59 1808.62 Q2413.59 1797.33 2406.29 1790.75 Q2398.98 1784.17 2386.46 1784.17 Q2380.61 1784.17 2374.75 1785.47 Q2368.96 1786.77 2362.88 1789.52 L2362.88 1735.27 Z" fill="#000000" fill-rule="nonzero" fill-opacity="1" /><path clip-path="url(#clip420)" d="M2871.52 1830.97 L2895.39 1830.97 L2895.39 1748.58 L2869.42 1753.79 L2869.42 1740.48 L2895.24 1735.27 L2909.86 1735.27 L2909.86 1830.97 L2933.73 1830.97 L2933.73 1843.27 L2871.52 1843.27 L2871.52 1830.97 Z" fill="#000000" fill-rule="nonzero" fill-opacity="1" /><path clip-path="url(#clip420)" d="M2994.49 1744.89 Q2983.21 1744.89 2977.49 1756.03 Q2971.85 1767.1 2971.85 1789.38 Q2971.85 1811.58 2977.49 1822.72 Q2983.21 1833.79 2994.49 1833.79 Q3005.85 1833.79 3011.49 1822.72 Q3017.2 1811.58 3017.2 1789.38 Q3017.2 1767.1 3011.49 1756.03 Q3005.85 1744.89 2994.49 1744.89 M2994.49 1733.31 Q3012.65 1733.31 3022.2 1747.71 Q3031.82 1762.03 3031.82 1789.38 Q3031.82 1816.65 3022.2 1831.04 Q3012.65 1845.37 2994.49 1845.37 Q2976.33 1845.37 2966.71 1831.04 Q2957.16 1816.65 2957.16 1789.38 Q2957.16 1762.03 2966.71 1747.71 Q2976.33 1733.31 2994.49 1733.31 Z" fill="#000000" fill-rule="nonzero" fill-opacity="1" /><path clip-path="url(#clip420)" d="M3088.75 1744.89 Q3077.46 1744.89 3071.75 1756.03 Q3066.11 1767.1 3066.11 1789.38 Q3066.11 1811.58 3071.75 1822.72 Q3077.46 1833.79 3088.75 1833.79 Q3100.1 1833.79 3105.75 1822.72 Q3111.46 1811.58 3111.46 1789.38 Q3111.46 1767.1 3105.75 1756.03 Q3100.1 1744.89 3088.75 1744.89 M3088.75 1733.31 Q3106.9 1733.31 3116.45 1747.71 Q3126.07 1762.03 3126.07 1789.38 Q3126.07 1816.65 3116.45 1831.04 Q3106.9 1845.37 3088.75 1845.37 Q3070.59 1845.37 3060.97 1831.04 Q3051.42 1816.65 3051.42 1789.38 Q3051.42 1762.03 3060.97 1747.71 Q3070.59 1733.31 3088.75 1733.31 Z" fill="#000000" fill-rule="nonzero" fill-opacity="1" /><path clip-path="url(#clip420)" d="M1706.14 1923.85 L1706.14 1946.85 L1733.56 1946.85 L1733.56 1957.19 L1706.14 1957.19 L1706.14 2001.18 Q1706.14 2011.09 1708.82 2013.91 Q1711.57 2016.73 1719.89 2016.73 L1733.56 2016.73 L1733.56 2027.87 L1719.89 2027.87 Q1704.48 2027.87 1698.62 2022.15 Q1692.76 2016.37 1692.76 2001.18 L1692.76 1957.19 L1682.99 1957.19 L1682.99 1946.85 L1692.76 1946.85 L1692.76 1923.85 L1706.14 1923.85 Z" fill="#000000" fill-rule="nonzero" fill-opacity="1" /><polyline clip-path="url(#clip420)" style="stroke:#000000; stroke-linecap:round; stroke-linejoin:round; stroke-width:4; stroke-opacity:1; fill:none" points="341.436,1676.27 341.436,206.984 "/>
<polyline clip-path="url(#clip420)" style="stroke:#000000; stroke-linecap:round; stroke-linejoin:round; stroke-width:4; stroke-opacity:1; fill:none" points="341.436,1429.49 355.741,1429.49 "/>
<polyline clip-path="url(#clip420)" style="stroke:#000000; stroke-linecap:round; stroke-linejoin:round; stroke-width:4; stroke-opacity:1; fill:none" points="341.436,1135.63 355.741,1135.63 "/>
<polyline clip-path="url(#clip420)" style="stroke:#000000; stroke-linecap:round; stroke-linejoin:round; stroke-width:4; stroke-opacity:1; fill:none" points="341.436,841.76 355.741,841.76 "/>
<polyline clip-path="url(#clip420)" style="stroke:#000000; stroke-linecap:round; stroke-linejoin:round; stroke-width:4; stroke-opacity:1; fill:none" points="341.436,547.895 355.741,547.895 "/>
<polyline clip-path="url(#clip420)" style="stroke:#000000; stroke-linecap:round; stroke-linejoin:round; stroke-width:4; stroke-opacity:1; fill:none" points="341.436,254.029 355.741,254.029 "/>
<path clip-path="url(#clip420)" d="M244.109 1385.11 Q232.825 1385.11 227.11 1396.25 Q221.468 1407.32 221.468 1429.6 Q221.468 1451.81 227.11 1462.95 Q232.825 1474.02 244.109 1474.02 Q255.466 1474.02 261.109 1462.95 Q266.823 1451.81 266.823 1429.6 Q266.823 1407.32 261.109 1396.25 Q255.466 1385.11 244.109 1385.11 M244.109 1373.54 Q262.266 1373.54 271.815 1387.93 Q281.436 1402.26 281.436 1429.6 Q281.436 1456.87 271.815 1471.27 Q262.266 1485.59 244.109 1485.59 Q225.953 1485.59 216.332 1471.27 Q206.783 1456.87 206.783 1429.6 Q206.783 1402.26 216.332 1387.93 Q225.953 1373.54 244.109 1373.54 Z" fill="#000000" fill-rule="nonzero" fill-opacity="1" /><path clip-path="url(#clip420)" d="M219.225 1177.33 L243.097 1177.33 L243.097 1094.94 L217.127 1100.14 L217.127 1086.83 L242.952 1081.63 L257.564 1081.63 L257.564 1177.33 L281.436 1177.33 L281.436 1189.63 L219.225 1189.63 L219.225 1177.33 Z" fill="#000000" fill-rule="nonzero" fill-opacity="1" /><path clip-path="url(#clip420)" d="M230.438 883.463 L281.436 883.463 L281.436 895.76 L212.86 895.76 L212.86 883.463 Q221.178 874.855 235.501 860.387 Q249.896 845.847 253.586 841.652 Q260.602 833.767 263.351 828.342 Q266.172 822.844 266.172 817.563 Q266.172 808.955 260.096 803.53 Q254.092 798.105 244.399 798.105 Q237.527 798.105 229.859 800.492 Q222.263 802.879 213.583 807.725 L213.583 792.969 Q222.408 789.424 230.076 787.616 Q237.744 785.807 244.109 785.807 Q260.892 785.807 270.874 794.198 Q280.857 802.589 280.857 816.623 Q280.857 823.278 278.325 829.282 Q275.866 835.214 269.283 843.316 Q267.474 845.413 257.781 855.468 Q248.088 865.451 230.438 883.463 Z" fill="#000000" fill-rule="nonzero" fill-opacity="1" /><path clip-path="url(#clip420)" d="M259.156 543.663 Q269.645 545.905 275.504 552.995 Q281.436 560.084 281.436 570.5 Q281.436 586.487 270.44 595.24 Q259.445 603.993 239.19 603.993 Q232.391 603.993 225.157 602.618 Q217.996 601.316 210.328 598.64 L210.328 584.534 Q216.404 588.078 223.638 589.887 Q230.872 591.695 238.756 591.695 Q252.501 591.695 259.662 586.27 Q266.896 580.845 266.896 570.5 Q266.896 560.952 260.168 555.599 Q253.513 550.173 241.578 550.173 L228.991 550.173 L228.991 538.165 L242.156 538.165 Q252.935 538.165 258.649 533.897 Q264.364 529.557 264.364 521.455 Q264.364 513.137 258.432 508.724 Q252.573 504.239 241.578 504.239 Q235.574 504.239 228.701 505.541 Q221.829 506.843 213.583 509.592 L213.583 496.571 Q221.902 494.256 229.135 493.099 Q236.442 491.942 242.88 491.942 Q259.517 491.942 269.211 499.537 Q278.904 507.06 278.904 519.936 Q278.904 528.906 273.768 535.127 Q268.632 541.276 259.156 543.663 Z" fill="#000000" fill-rule="nonzero" fill-opacity="1" /><path clip-path="url(#clip420)" d="M251.488 212.761 L214.596 270.414 L251.488 270.414 L251.488 212.761 M247.654 200.029 L266.028 200.029 L266.028 270.414 L281.436 270.414 L281.436 282.566 L266.028 282.566 L266.028 308.029 L251.488 308.029 L251.488 282.566 L202.732 282.566 L202.732 268.461 L247.654 200.029 Z" fill="#000000" fill-rule="nonzero" fill-opacity="1" /><path clip-path="url(#clip420)" d="M29.3142 903.866 L68.7382 933.162 L110.332 902.347 L110.332 918.044 L78.5038 941.626 L110.332 965.208 L110.332 980.905 L67.9425 949.438 L29.3142 978.229 L29.3142 962.532 L58.1769 941.047 L29.3142 919.563 L29.3142 903.866 Z" fill="#000000" fill-rule="nonzero" fill-opacity="1" /><path clip-path="url(#clip420)" d="M1553.8 21.6 L1623.24 21.6 L1623.24 27.821 L1584.04 129.6 L1568.77 129.6 L1605.66 33.8974 L1553.8 33.8974 L1553.8 21.6 Z" fill="#000000" fill-rule="nonzero" fill-opacity="1" /><path clip-path="url(#clip420)" d="M1651.89 21.6 L1709.25 21.6 L1709.25 33.8974 L1665.27 33.8974 L1665.27 60.3729 Q1668.45 59.2879 1671.64 58.7815 Q1674.82 58.2028 1678 58.2028 Q1696.09 58.2028 1706.65 68.1131 Q1717.21 78.0233 1717.21 94.9503 Q1717.21 112.384 1706.36 122.077 Q1695.51 131.698 1675.76 131.698 Q1668.96 131.698 1661.87 130.54 Q1654.85 129.383 1647.33 127.068 L1647.33 112.384 Q1653.84 115.928 1660.79 117.664 Q1667.73 119.4 1675.47 119.4 Q1687.98 119.4 1695.29 112.818 Q1702.6 106.235 1702.6 94.9503 Q1702.6 83.6656 1695.29 77.0829 Q1687.98 70.5002 1675.47 70.5002 Q1669.61 70.5002 1663.75 71.8023 Q1657.96 73.1044 1651.89 75.8532 L1651.89 21.6 Z" fill="#000000" fill-rule="nonzero" fill-opacity="1" /><path clip-path="url(#clip420)" d="M1837.87 82.0742 Q1831.57 82.0742 1827.96 87.4272 Q1824.41 92.7802 1824.41 102.329 Q1824.41 111.733 1827.96 117.158 Q1831.57 122.511 1837.87 122.511 Q1844.02 122.511 1847.56 117.158 Q1851.18 111.733 1851.18 102.329 Q1851.18 92.8525 1847.56 87.4995 Q1844.02 82.0742 1837.87 82.0742 M1837.87 72.8873 Q1849.3 72.8873 1856.02 80.8445 Q1862.75 88.8016 1862.75 102.329 Q1862.75 115.856 1855.95 123.813 Q1849.22 131.698 1837.87 131.698 Q1826.29 131.698 1819.57 123.813 Q1812.84 115.856 1812.84 102.329 Q1812.84 88.7293 1819.57 80.8445 Q1826.37 72.8873 1837.87 72.8873 M1763.22 28.8338 Q1756.99 28.8338 1753.38 34.2591 Q1749.83 39.6121 1749.83 49.0159 Q1749.83 58.5645 1753.38 63.9175 Q1756.92 69.2705 1763.22 69.2705 Q1769.51 69.2705 1773.05 63.9175 Q1776.67 58.5645 1776.67 49.0159 Q1776.67 39.6844 1773.05 34.2591 Q1769.44 28.8338 1763.22 28.8338 M1828.54 19.6469 L1840.11 19.6469 L1772.55 131.698 L1760.97 131.698 L1828.54 19.6469 M1763.22 19.6469 Q1774.64 19.6469 1781.44 27.604 Q1788.24 35.4888 1788.24 49.0159 Q1788.24 62.6877 1781.44 70.5725 Q1774.72 78.4573 1763.22 78.4573 Q1751.71 78.4573 1744.99 70.5725 Q1738.33 62.6154 1738.33 49.0159 Q1738.33 35.5612 1745.06 27.604 Q1751.79 19.6469 1763.22 19.6469 Z" fill="#000000" fill-rule="nonzero" fill-opacity="1" /><polyline clip-path="url(#clip422)" style="stroke:#000000; stroke-linecap:round; stroke-linejoin:round; stroke-width:8; stroke-opacity:1; fill:none" stroke-dasharray="4, 8" points="418.804,1130.61 444.854,1162.76 470.904,1171.64 496.954,1240.03 523.004,1279.54 549.053,1412.35 575.103,1475.73 601.153,1579.63 627.203,1591.37 653.253,1607.42 679.303,1628.05 705.353,1634.68 "/>
<polyline clip-path="url(#clip422)" style="stroke:#000000; stroke-linecap:round; stroke-linejoin:round; stroke-width:8; stroke-opacity:1; fill:none" stroke-dasharray="4, 8" points="2685.15,790.984 2711.2,893.514 2737.25,881.482 2763.3,938.556 2789.35,894.248 2815.4,827.353 2841.45,799.176 2867.5,637.088 2893.55,639.94 2919.6,451.936 2945.65,434.278 2971.7,289.962 2997.75,248.568 "/>
<polyline clip-path="url(#clip422)" style="stroke:#000000; stroke-linecap:round; stroke-linejoin:round; stroke-width:8; stroke-opacity:0.3; fill:none" points="731.403,1532.71 757.453,1505.8 783.503,1400.61 809.553,1282.72 835.603,1151.73 861.653,1089.28 887.702,1007.31 913.752,958.659 939.802,935.42 965.852,978.138 991.902,1057.9 1017.95,1079.64 1044,1161.4 1070.05,1243.2 1096.1,1290.77 1122.15,1383.58 1148.2,1436.75 1174.25,1460.19 1200.3,1459.85 1226.35,1482.64 1252.4,1350.38 1278.45,1222.3 1304.5,1208.95 1330.55,1070.81 1356.6,995.17 1382.65,942.86 1408.7,861.979 1434.75,813.38 1460.8,785.985 1486.85,783.366 1512.9,823.553 1538.95,853.814 1565,1011.83 1591.05,1050.83 1617.1,1115.07 1643.15,1176.28 1669.2,1234.74 1695.25,1314.35 1721.3,1255.89 1747.35,1215.02 1773.4,1161.18 1799.45,1124.81 1825.5,992.957 1851.55,929.938 1877.6,805.002 1903.65,771.291 1929.7,684.453 1955.75,639.142 1981.8,600.566 2007.85,636.577 2033.9,626.426 2059.95,720.465 2086,748.425 2112.05,883.183 2138.1,950.928 2164.15,992.049 2190.2,1116.15 2216.25,1109.36 2242.3,1073.52 2268.35,1089.98 2294.4,1025.68 2320.45,944.563 2346.5,887.243 2372.55,730.457 2398.6,570.021 2424.65,549.855 2450.7,496.405 2476.75,477.731 2502.8,437.098 2528.85,447.199 2554.9,448.58 2580.95,544.403 2607,620.992 2633.05,728.998 2659.1,745.27 "/>
<path clip-path="url(#clip422)" d="M731.403 1592.08 L757.453 1552.03 L783.503 1442.15 L809.553 1354.53 L835.603 1255.34 L861.653 1160.3 L887.702 1044.43 L913.752 1022.22 L939.802 992.66 L965.852 1016.44 L991.902 1081.79 L1017.95 1136.93 L1044 1200.56 L1070.05 1290.15 L1096.1 1361.77 L1122.15 1432.52 L1148.2 1489.1 L1174.25 1536.47 L1200.3 1512.11 L1226.35 1505.12 L1252.4 1394.86 L1278.45 1322.86 L1304.5 1236.38 L1330.55 1145.17 L1356.6 1049.69 L1382.65 981.726 L1408.7 883.537 L1434.75 847.986 L1460.8 840.392 L1486.85 823.465 L1512.9 850.418 L1538.95 947.72 L1565 1010.76 L1591.05 1085.8 L1617.1 1168.45 L1643.15 1230.16 L1669.2 1308.48 L1695.25 1349.21 L1721.3 1342.45 L1747.35 1312.63 L1773.4 1235.03 L1799.45 1169.96 L1825.5 1043.17 L1851.55 978.337 L1877.6 885.178 L1903.65 817.359 L1929.7 722.871 L1955.75 675.982 L1981.8 660.447 L2007.85 669.226 L2033.9 688.184 L2059.95 750.717 L2086 845.763 L2112.05 915.232 L2138.1 1003.14 L2164.15 1078.23 L2190.2 1137.96 L2216.25 1180.39 L2242.3 1152.99 L2268.35 1153.49 L2294.4 1092.17 L2320.45 993.582 L2346.5 918.758 L2372.55 797.918 L2398.6 677.054 L2424.65 596.759 L2450.7 534.265 L2476.75 486.745 L2502.8 483.275 L2528.85 465.26 L2554.9 512.303 L2580.95 563.897 L2607 648.685 L2633.05 740.075 L2659.1 810.023 L2659.1 723.389 L2633.05 653.781 L2607 571.111 L2580.95 492.476 L2554.9 447.456 L2528.85 401.342 L2502.8 417.737 L2476.75 421.296 L2450.7 468.322 L2424.65 520.371 L2398.6 596.979 L2372.55 710.481 L2346.5 823.106 L2320.45 899.113 L2294.4 990.294 L2268.35 1052.5 L2242.3 1051.99 L2216.25 1080.85 L2190.2 1036.42 L2164.15 977.38 L2138.1 908.684 L2112.05 819.734 L2086 757.108 L2059.95 663.379 L2033.9 609.34 L2007.85 591.989 L1981.8 583.592 L1955.75 598.464 L1929.7 638.85 L1903.65 730.956 L1877.6 792.301 L1851.55 883.143 L1825.5 945.747 L1799.45 1070.05 L1773.4 1132.81 L1747.35 1206.71 L1721.3 1238.41 L1695.25 1245.17 L1669.2 1202.33 L1643.15 1128.8 L1617.1 1068.66 L1591.05 983.647 L1565 915.929 L1538.95 850.541 L1512.9 760.534 L1486.85 736.821 L1460.8 753.158 L1434.75 759.64 L1408.7 790.804 L1382.65 886.632 L1356.6 948.263 L1330.55 1041.86 L1304.5 1134.09 L1278.45 1217.42 L1252.4 1292.71 L1226.35 1398.23 L1200.3 1405.64 L1174.25 1431.48 L1148.2 1381.65 L1122.15 1327.79 L1096.1 1258.8 L1070.05 1184.17 L1044 1101.07 L1017.95 1034.96 L991.902 980.309 L965.852 921.867 L939.802 898.701 L913.752 927.197 L887.702 946.888 L861.653 1059.73 L835.603 1150.96 L809.553 1250.58 L783.503 1336.8 L757.453 1447.96 L731.403 1488.63  Z" fill="#ff0000" fill-rule="evenodd" fill-opacity="0.15"/>
<polyline clip-path="url(#clip422)" style="stroke:#ff0000; stroke-linecap:round; stroke-linejoin:round; stroke-width:8; stroke-opacity:0.8; fill:none" points="731.403,1540.35 757.453,1500 783.503,1389.48 809.553,1302.56 835.603,1203.15 861.653,1110.02 887.702,995.66 913.752,974.706 939.802,945.68 965.852,969.153 991.902,1031.05 1017.95,1085.94 1044,1150.81 1070.05,1237.16 1096.1,1310.28 1122.15,1380.15 1148.2,1435.38 1174.25,1483.98 1200.3,1458.88 1226.35,1451.68 1252.4,1343.79 1278.45,1270.14 1304.5,1185.23 1330.55,1093.51 1356.6,998.977 1382.65,934.179 1408.7,837.17 1434.75,803.813 1460.8,796.775 1486.85,780.143 1512.9,805.476 1538.95,899.13 1565,963.346 1591.05,1034.72 1617.1,1118.56 1643.15,1179.48 1669.2,1255.41 1695.25,1297.19 1721.3,1290.43 1747.35,1259.67 1773.4,1183.92 1799.45,1120 1825.5,994.457 1851.55,930.74 1877.6,838.739 1903.65,774.158 1929.7,680.86 1955.75,637.223 1981.8,622.02 2007.85,630.608 2033.9,648.762 2059.95,707.048 2086,801.435 2112.05,867.483 2138.1,955.913 2164.15,1027.81 2190.2,1087.19 2216.25,1130.62 2242.3,1102.49 2268.35,1103 2294.4,1041.23 2320.45,946.348 2346.5,870.932 2372.55,754.199 2398.6,637.016 2424.65,558.565 2450.7,501.294 2476.75,454.02 2502.8,450.506 2528.85,433.301 2554.9,479.879 2580.95,528.186 2607,609.898 2633.05,696.928 2659.1,766.706 "/>
<path clip-path="url(#clip420)" d="M3195.49 463.32 L3952.76 463.32 L3952.76 255.96 L3195.49 255.96  Z" fill="#ffffff" fill-rule="evenodd" fill-opacity="1"/>
<polyline clip-path="url(#clip420)" style="stroke:#000000; stroke-linecap:round; stroke-linejoin:round; stroke-width:4; stroke-opacity:1; fill:none" points="3195.49,463.32 3952.76,463.32 3952.76,255.96 3195.49,255.96 3195.49,463.32 "/>
<polyline clip-path="url(#clip420)" style="stroke:#000000; stroke-linecap:round; stroke-linejoin:round; stroke-width:8; stroke-opacity:1; fill:none" stroke-dasharray="4, 8" points="3235.62,307.8 3476.37,307.8 "/>
<path clip-path="url(#clip420)" d="M3532.52 293.692 Q3527.42 293.692 3524.41 297.488 Q3521.43 301.284 3521.43 307.835 Q3521.43 314.363 3524.41 318.159 Q3527.42 321.955 3532.52 321.955 Q3537.61 321.955 3540.57 318.159 Q3543.56 314.363 3543.56 307.835 Q3543.56 301.284 3540.57 297.488 Q3537.61 293.692 3532.52 293.692 M3532.52 289.895 Q3539.78 289.895 3544.14 294.78 Q3548.49 299.641 3548.49 307.835 Q3548.49 316.006 3544.14 320.891 Q3539.78 325.752 3532.52 325.752 Q3525.22 325.752 3520.85 320.891 Q3516.5 316.029 3516.5 307.835 Q3516.5 299.641 3520.85 294.78 Q3525.22 289.895 3532.52 289.895 Z" fill="#000000" fill-rule="nonzero" fill-opacity="1" /><path clip-path="url(#clip420)" d="M3574.23 312.141 Q3574.23 307.442 3572.28 304.78 Q3570.36 302.094 3566.98 302.094 Q3563.6 302.094 3561.66 304.78 Q3559.74 307.442 3559.74 312.141 Q3559.74 316.84 3561.66 319.525 Q3563.6 322.187 3566.98 322.187 Q3570.36 322.187 3572.28 319.525 Q3574.23 316.84 3574.23 312.141 M3559.74 303.09 Q3561.08 300.775 3563.12 299.664 Q3565.18 298.53 3568.03 298.53 Q3572.75 298.53 3575.69 302.28 Q3578.65 306.03 3578.65 312.141 Q3578.65 318.252 3575.69 322.002 Q3572.75 325.752 3568.03 325.752 Q3565.18 325.752 3563.12 324.641 Q3561.08 323.506 3559.74 321.191 L3559.74 325.08 L3555.46 325.08 L3555.46 289.062 L3559.74 289.062 L3559.74 303.09 Z" fill="#000000" fill-rule="nonzero" fill-opacity="1" /><path clip-path="url(#clip420)" d="M3602.24 299.918 L3602.24 303.946 Q3600.43 303.02 3598.49 302.557 Q3596.54 302.094 3594.46 302.094 Q3591.29 302.094 3589.69 303.067 Q3588.12 304.039 3588.12 305.983 Q3588.12 307.465 3589.25 308.321 Q3590.39 309.155 3593.81 309.918 L3595.27 310.242 Q3599.81 311.215 3601.71 312.997 Q3603.63 314.756 3603.63 317.928 Q3603.63 321.539 3600.76 323.645 Q3597.91 325.752 3592.91 325.752 Q3590.83 325.752 3588.56 325.335 Q3586.31 324.941 3583.81 324.131 L3583.81 319.733 Q3586.17 320.96 3588.47 321.585 Q3590.76 322.187 3593 322.187 Q3596.01 322.187 3597.63 321.168 Q3599.25 320.127 3599.25 318.252 Q3599.25 316.516 3598.07 315.59 Q3596.91 314.664 3592.96 313.807 L3591.47 313.46 Q3587.52 312.627 3585.76 310.914 Q3584 309.178 3584 306.168 Q3584 302.511 3586.59 300.52 Q3589.18 298.53 3593.95 298.53 Q3596.31 298.53 3598.4 298.877 Q3600.48 299.224 3602.24 299.918 Z" fill="#000000" fill-rule="nonzero" fill-opacity="1" /><path clip-path="url(#clip420)" d="M3632.59 311.053 L3632.59 313.136 L3613 313.136 Q3613.28 317.534 3615.64 319.849 Q3618.03 322.141 3622.26 322.141 Q3624.72 322.141 3627.01 321.539 Q3629.32 320.937 3631.59 319.733 L3631.59 323.761 Q3629.3 324.733 3626.89 325.242 Q3624.48 325.752 3622.01 325.752 Q3615.8 325.752 3612.17 322.141 Q3608.56 318.529 3608.56 312.372 Q3608.56 306.006 3611.98 302.28 Q3615.43 298.53 3621.27 298.53 Q3626.5 298.53 3629.53 301.909 Q3632.59 305.266 3632.59 311.053 M3628.33 309.803 Q3628.28 306.307 3626.36 304.224 Q3624.46 302.141 3621.31 302.141 Q3617.75 302.141 3615.59 304.155 Q3613.47 306.168 3613.14 309.826 L3628.33 309.803 Z" fill="#000000" fill-rule="nonzero" fill-opacity="1" /><path clip-path="url(#clip420)" d="M3654.6 303.136 Q3653.88 302.719 3653.03 302.534 Q3652.19 302.326 3651.17 302.326 Q3647.56 302.326 3645.62 304.687 Q3643.7 307.025 3643.7 311.423 L3643.7 325.08 L3639.41 325.08 L3639.41 299.155 L3643.7 299.155 L3643.7 303.182 Q3645.04 300.821 3647.19 299.687 Q3649.34 298.53 3652.42 298.53 Q3652.86 298.53 3653.4 298.599 Q3653.93 298.645 3654.58 298.761 L3654.6 303.136 Z" fill="#000000" fill-rule="nonzero" fill-opacity="1" /><path clip-path="url(#clip420)" d="M3656.01 299.155 L3660.52 299.155 L3668.63 320.914 L3676.73 299.155 L3681.24 299.155 L3671.52 325.08 L3665.73 325.08 L3656.01 299.155 Z" fill="#000000" fill-rule="nonzero" fill-opacity="1" /><path clip-path="url(#clip420)" d="M3709.3 311.053 L3709.3 313.136 L3689.71 313.136 Q3689.99 317.534 3692.35 319.849 Q3694.74 322.141 3698.97 322.141 Q3701.43 322.141 3703.72 321.539 Q3706.03 320.937 3708.3 319.733 L3708.3 323.761 Q3706.01 324.733 3703.6 325.242 Q3701.2 325.752 3698.72 325.752 Q3692.52 325.752 3688.88 322.141 Q3685.27 318.529 3685.27 312.372 Q3685.27 306.006 3688.7 302.28 Q3692.15 298.53 3697.98 298.53 Q3703.21 298.53 3706.24 301.909 Q3709.3 305.266 3709.3 311.053 M3705.04 309.803 Q3704.99 306.307 3703.07 304.224 Q3701.17 302.141 3698.02 302.141 Q3694.46 302.141 3692.31 304.155 Q3690.18 306.168 3689.85 309.826 L3705.04 309.803 Z" fill="#000000" fill-rule="nonzero" fill-opacity="1" /><path clip-path="url(#clip420)" d="M3733.35 303.09 L3733.35 289.062 L3737.61 289.062 L3737.61 325.08 L3733.35 325.08 L3733.35 321.191 Q3732.01 323.506 3729.95 324.641 Q3727.91 325.752 3725.04 325.752 Q3720.34 325.752 3717.38 322.002 Q3714.44 318.252 3714.44 312.141 Q3714.44 306.03 3717.38 302.28 Q3720.34 298.53 3725.04 298.53 Q3727.91 298.53 3729.95 299.664 Q3732.01 300.775 3733.35 303.09 M3718.83 312.141 Q3718.83 316.84 3720.76 319.525 Q3722.7 322.187 3726.08 322.187 Q3729.46 322.187 3731.4 319.525 Q3733.35 316.84 3733.35 312.141 Q3733.35 307.442 3731.4 304.78 Q3729.46 302.094 3726.08 302.094 Q3722.7 302.094 3720.76 304.78 Q3718.83 307.442 3718.83 312.141 Z" fill="#000000" fill-rule="nonzero" fill-opacity="1" /><polyline clip-path="url(#clip420)" style="stroke:#000000; stroke-linecap:round; stroke-linejoin:round; stroke-width:8; stroke-opacity:0.3; fill:none" points="3235.62,359.64 3476.37,359.64 "/>
<path clip-path="url(#clip420)" d="M3542.05 371.99 L3542.05 362.707 L3534.41 362.707 L3534.41 358.865 L3546.68 358.865 L3546.68 373.703 Q3543.97 375.624 3540.71 376.619 Q3537.45 377.592 3533.74 377.592 Q3525.64 377.592 3521.06 372.869 Q3516.5 368.124 3516.5 359.675 Q3516.5 351.203 3521.06 346.481 Q3525.64 341.735 3533.74 341.735 Q3537.12 341.735 3540.16 342.569 Q3543.21 343.402 3545.78 345.022 L3545.78 349.999 Q3543.19 347.8 3540.27 346.689 Q3537.35 345.578 3534.14 345.578 Q3527.79 345.578 3524.6 349.12 Q3521.43 352.661 3521.43 359.675 Q3521.43 366.666 3524.6 370.207 Q3527.79 373.749 3534.14 373.749 Q3536.61 373.749 3538.56 373.332 Q3540.5 372.893 3542.05 371.99 Z" fill="#000000" fill-rule="nonzero" fill-opacity="1" /><path clip-path="url(#clip420)" d="M3570.06 354.976 Q3569.34 354.559 3568.49 354.374 Q3567.66 354.166 3566.64 354.166 Q3563.03 354.166 3561.08 356.527 Q3559.16 358.865 3559.16 363.263 L3559.16 376.92 L3554.88 376.92 L3554.88 350.995 L3559.16 350.995 L3559.16 355.022 Q3560.5 352.661 3562.66 351.527 Q3564.81 350.37 3567.89 350.37 Q3568.33 350.37 3568.86 350.439 Q3569.39 350.485 3570.04 350.601 L3570.06 354.976 Z" fill="#000000" fill-rule="nonzero" fill-opacity="1" /><path clip-path="url(#clip420)" d="M3583.53 353.981 Q3580.11 353.981 3578.12 356.666 Q3576.13 359.328 3576.13 363.981 Q3576.13 368.633 3578.09 371.319 Q3580.09 373.981 3583.53 373.981 Q3586.94 373.981 3588.93 371.295 Q3590.92 368.61 3590.92 363.981 Q3590.92 359.374 3588.93 356.689 Q3586.94 353.981 3583.53 353.981 M3583.53 350.37 Q3589.09 350.37 3592.26 353.981 Q3595.43 357.592 3595.43 363.981 Q3595.43 370.346 3592.26 373.981 Q3589.09 377.592 3583.53 377.592 Q3577.96 377.592 3574.78 373.981 Q3571.64 370.346 3571.64 363.981 Q3571.64 357.592 3574.78 353.981 Q3577.96 350.37 3583.53 350.37 Z" fill="#000000" fill-rule="nonzero" fill-opacity="1" /><path clip-path="url(#clip420)" d="M3602.05 366.689 L3602.05 350.995 L3606.31 350.995 L3606.31 366.527 Q3606.31 370.207 3607.75 372.059 Q3609.18 373.888 3612.05 373.888 Q3615.5 373.888 3617.49 371.689 Q3619.51 369.49 3619.51 365.694 L3619.51 350.995 L3623.77 350.995 L3623.77 376.92 L3619.51 376.92 L3619.51 372.939 Q3617.96 375.3 3615.9 376.457 Q3613.86 377.592 3611.15 377.592 Q3606.68 377.592 3604.37 374.814 Q3602.05 372.036 3602.05 366.689 M3612.77 350.37 L3612.77 350.37 Z" fill="#000000" fill-rule="nonzero" fill-opacity="1" /><path clip-path="url(#clip420)" d="M3654.09 361.272 L3654.09 376.92 L3649.83 376.92 L3649.83 361.411 Q3649.83 357.731 3648.4 355.902 Q3646.96 354.073 3644.09 354.073 Q3640.64 354.073 3638.65 356.272 Q3636.66 358.471 3636.66 362.268 L3636.66 376.92 L3632.38 376.92 L3632.38 350.995 L3636.66 350.995 L3636.66 355.022 Q3638.19 352.684 3640.25 351.527 Q3642.33 350.37 3645.04 350.37 Q3649.51 350.37 3651.8 353.147 Q3654.09 355.902 3654.09 361.272 Z" fill="#000000" fill-rule="nonzero" fill-opacity="1" /><path clip-path="url(#clip420)" d="M3679.65 354.93 L3679.65 340.902 L3683.9 340.902 L3683.9 376.92 L3679.65 376.92 L3679.65 373.031 Q3678.3 375.346 3676.24 376.481 Q3674.21 377.592 3671.34 377.592 Q3666.64 377.592 3663.67 373.842 Q3660.73 370.092 3660.73 363.981 Q3660.73 357.87 3663.67 354.12 Q3666.64 350.37 3671.34 350.37 Q3674.21 350.37 3676.24 351.504 Q3678.3 352.615 3679.65 354.93 M3665.13 363.981 Q3665.13 368.68 3667.05 371.365 Q3669 374.027 3672.38 374.027 Q3675.76 374.027 3677.7 371.365 Q3679.65 368.68 3679.65 363.981 Q3679.65 359.282 3677.7 356.62 Q3675.76 353.934 3672.38 353.934 Q3669 353.934 3667.05 356.62 Q3665.13 359.282 3665.13 363.981 Z" fill="#000000" fill-rule="nonzero" fill-opacity="1" /><path clip-path="url(#clip420)" d="M3711.96 343.634 L3711.96 350.995 L3720.73 350.995 L3720.73 354.305 L3711.96 354.305 L3711.96 368.379 Q3711.96 371.55 3712.82 372.453 Q3713.7 373.356 3716.36 373.356 L3720.73 373.356 L3720.73 376.92 L3716.36 376.92 Q3711.43 376.92 3709.55 375.092 Q3707.68 373.24 3707.68 368.379 L3707.68 354.305 L3704.55 354.305 L3704.55 350.995 L3707.68 350.995 L3707.68 343.634 L3711.96 343.634 Z" fill="#000000" fill-rule="nonzero" fill-opacity="1" /><path clip-path="url(#clip420)" d="M3741.36 354.976 Q3740.64 354.559 3739.78 354.374 Q3738.95 354.166 3737.93 354.166 Q3734.32 354.166 3732.38 356.527 Q3730.46 358.865 3730.46 363.263 L3730.46 376.92 L3726.17 376.92 L3726.17 350.995 L3730.46 350.995 L3730.46 355.022 Q3731.8 352.661 3733.95 351.527 Q3736.1 350.37 3739.18 350.37 Q3739.62 350.37 3740.15 350.439 Q3740.69 350.485 3741.33 350.601 L3741.36 354.976 Z" fill="#000000" fill-rule="nonzero" fill-opacity="1" /><path clip-path="url(#clip420)" d="M3745.39 366.689 L3745.39 350.995 L3749.64 350.995 L3749.64 366.527 Q3749.64 370.207 3751.08 372.059 Q3752.52 373.888 3755.39 373.888 Q3758.83 373.888 3760.83 371.689 Q3762.84 369.49 3762.84 365.694 L3762.84 350.995 L3767.1 350.995 L3767.1 376.92 L3762.84 376.92 L3762.84 372.939 Q3761.29 375.3 3759.23 376.457 Q3757.19 377.592 3754.48 377.592 Q3750.02 377.592 3747.7 374.814 Q3745.39 372.036 3745.39 366.689 M3756.1 350.37 L3756.1 350.37 Z" fill="#000000" fill-rule="nonzero" fill-opacity="1" /><path clip-path="url(#clip420)" d="M3780.08 343.634 L3780.08 350.995 L3788.86 350.995 L3788.86 354.305 L3780.08 354.305 L3780.08 368.379 Q3780.08 371.55 3780.94 372.453 Q3781.82 373.356 3784.48 373.356 L3788.86 373.356 L3788.86 376.92 L3784.48 376.92 Q3779.55 376.92 3777.68 375.092 Q3775.8 373.24 3775.8 368.379 L3775.8 354.305 L3772.68 354.305 L3772.68 350.995 L3775.8 350.995 L3775.8 343.634 L3780.08 343.634 Z" fill="#000000" fill-rule="nonzero" fill-opacity="1" /><path clip-path="url(#clip420)" d="M3816.01 361.272 L3816.01 376.92 L3811.75 376.92 L3811.75 361.411 Q3811.75 357.731 3810.32 355.902 Q3808.88 354.073 3806.01 354.073 Q3802.56 354.073 3800.57 356.272 Q3798.58 358.471 3798.58 362.268 L3798.58 376.92 L3794.3 376.92 L3794.3 340.902 L3798.58 340.902 L3798.58 355.022 Q3800.11 352.684 3802.17 351.527 Q3804.25 350.37 3806.96 350.37 Q3811.43 350.37 3813.72 353.147 Q3816.01 355.902 3816.01 361.272 Z" fill="#000000" fill-rule="nonzero" fill-opacity="1" /><polyline clip-path="url(#clip420)" style="stroke:#ff0000; stroke-linecap:round; stroke-linejoin:round; stroke-width:8; stroke-opacity:0.8; fill:none" points="3235.62,411.48 3476.37,411.48 "/>
<path clip-path="url(#clip420)" d="M3516.5 394.2 L3523.47 394.2 L3532.28 417.719 L3541.15 394.2 L3548.12 394.2 L3548.12 428.76 L3543.56 428.76 L3543.56 398.413 L3534.65 422.117 L3529.95 422.117 L3521.04 398.413 L3521.04 428.76 L3516.5 428.76 L3516.5 394.2 Z" fill="#000000" fill-rule="nonzero" fill-opacity="1" /><path clip-path="url(#clip420)" d="M3562.08 398.043 L3562.08 411.029 L3567.96 411.029 Q3571.22 411.029 3573 409.339 Q3574.78 407.649 3574.78 404.524 Q3574.78 401.423 3573 399.733 Q3571.22 398.043 3567.96 398.043 L3562.08 398.043 M3557.4 394.2 L3567.96 394.2 Q3573.77 394.2 3576.73 396.839 Q3579.72 399.455 3579.72 404.524 Q3579.72 409.64 3576.73 412.256 Q3573.77 414.872 3567.96 414.872 L3562.08 414.872 L3562.08 428.76 L3557.4 428.76 L3557.4 394.2 Z" fill="#000000" fill-rule="nonzero" fill-opacity="1" /><path clip-path="url(#clip420)" d="M3606.71 395.335 L3606.71 399.895 Q3604.04 398.622 3601.68 397.997 Q3599.32 397.372 3597.12 397.372 Q3593.3 397.372 3591.22 398.853 Q3589.16 400.335 3589.16 403.066 Q3589.16 405.358 3590.53 406.538 Q3591.91 407.696 3595.76 408.413 L3598.58 408.992 Q3603.81 409.987 3606.29 412.51 Q3608.79 415.01 3608.79 419.223 Q3608.79 424.247 3605.41 426.839 Q3602.05 429.432 3595.55 429.432 Q3593.09 429.432 3590.32 428.876 Q3587.56 428.321 3584.6 427.233 L3584.6 422.418 Q3587.45 424.015 3590.18 424.825 Q3592.91 425.635 3595.55 425.635 Q3599.55 425.635 3601.73 424.061 Q3603.9 422.487 3603.9 419.571 Q3603.9 417.024 3602.33 415.589 Q3600.78 414.154 3597.22 413.436 L3594.37 412.881 Q3589.14 411.839 3586.8 409.617 Q3584.46 407.395 3584.46 403.436 Q3584.46 398.853 3587.68 396.214 Q3590.92 393.575 3596.59 393.575 Q3599.02 393.575 3601.54 394.015 Q3604.07 394.455 3606.71 395.335 Z" fill="#000000" fill-rule="nonzero" fill-opacity="1" /><path clip-path="url(#clip420)" d="M3631.15 394.2 L3635.83 394.2 L3635.83 428.76 L3631.15 428.76 L3631.15 394.2 Z" fill="#000000" fill-rule="nonzero" fill-opacity="1" /><path clip-path="url(#clip420)" d="M3666.5 413.112 L3666.5 428.76 L3662.24 428.76 L3662.24 413.251 Q3662.24 409.571 3660.8 407.742 Q3659.37 405.913 3656.5 405.913 Q3653.05 405.913 3651.06 408.112 Q3649.07 410.311 3649.07 414.108 L3649.07 428.76 L3644.78 428.76 L3644.78 402.835 L3649.07 402.835 L3649.07 406.862 Q3650.59 404.524 3652.65 403.367 Q3654.74 402.21 3657.45 402.21 Q3661.91 402.21 3664.21 404.987 Q3666.5 407.742 3666.5 413.112 Z" fill="#000000" fill-rule="nonzero" fill-opacity="1" /><path clip-path="url(#clip420)" d="M3679.21 395.474 L3679.21 402.835 L3687.98 402.835 L3687.98 406.145 L3679.21 406.145 L3679.21 420.219 Q3679.21 423.39 3680.06 424.293 Q3680.94 425.196 3683.6 425.196 L3687.98 425.196 L3687.98 428.76 L3683.6 428.76 Q3678.67 428.76 3676.8 426.932 Q3674.92 425.08 3674.92 420.219 L3674.92 406.145 L3671.8 406.145 L3671.8 402.835 L3674.92 402.835 L3674.92 395.474 L3679.21 395.474 Z" fill="#000000" fill-rule="nonzero" fill-opacity="1" /><path clip-path="url(#clip420)" d="M3715.76 414.733 L3715.76 416.816 L3696.17 416.816 Q3696.45 421.214 3698.81 423.529 Q3701.2 425.821 3705.43 425.821 Q3707.89 425.821 3710.18 425.219 Q3712.49 424.617 3714.76 423.413 L3714.76 427.441 Q3712.47 428.413 3710.06 428.922 Q3707.65 429.432 3705.18 429.432 Q3698.97 429.432 3695.34 425.821 Q3691.73 422.209 3691.73 416.052 Q3691.73 409.686 3695.15 405.96 Q3698.6 402.21 3704.44 402.21 Q3709.67 402.21 3712.7 405.589 Q3715.76 408.946 3715.76 414.733 M3711.5 413.483 Q3711.45 409.987 3709.53 407.904 Q3707.63 405.821 3704.48 405.821 Q3700.92 405.821 3698.77 407.835 Q3696.64 409.848 3696.31 413.506 L3711.5 413.483 Z" fill="#000000" fill-rule="nonzero" fill-opacity="1" /><path clip-path="url(#clip420)" d="M3737.77 406.816 Q3737.05 406.399 3736.2 406.214 Q3735.36 406.006 3734.34 406.006 Q3730.73 406.006 3728.79 408.367 Q3726.87 410.705 3726.87 415.103 L3726.87 428.76 L3722.58 428.76 L3722.58 402.835 L3726.87 402.835 L3726.87 406.862 Q3728.21 404.501 3730.36 403.367 Q3732.52 402.21 3735.59 402.21 Q3736.03 402.21 3736.57 402.279 Q3737.1 402.325 3737.75 402.441 L3737.77 406.816 Z" fill="#000000" fill-rule="nonzero" fill-opacity="1" /><path clip-path="url(#clip420)" d="M3746.36 424.871 L3746.36 438.621 L3742.08 438.621 L3742.08 402.835 L3746.36 402.835 L3746.36 406.77 Q3747.7 404.455 3749.74 403.344 Q3751.8 402.21 3754.64 402.21 Q3759.37 402.21 3762.31 405.96 Q3765.27 409.71 3765.27 415.821 Q3765.27 421.932 3762.31 425.682 Q3759.37 429.432 3754.64 429.432 Q3751.8 429.432 3749.74 428.321 Q3747.7 427.186 3746.36 424.871 M3760.85 415.821 Q3760.85 411.122 3758.9 408.46 Q3756.98 405.774 3753.6 405.774 Q3750.22 405.774 3748.28 408.46 Q3746.36 411.122 3746.36 415.821 Q3746.36 420.52 3748.28 423.205 Q3750.22 425.867 3753.6 425.867 Q3756.98 425.867 3758.9 423.205 Q3760.85 420.52 3760.85 415.821 Z" fill="#000000" fill-rule="nonzero" fill-opacity="1" /><path clip-path="url(#clip420)" d="M3782.38 405.821 Q3778.95 405.821 3776.96 408.506 Q3774.97 411.168 3774.97 415.821 Q3774.97 420.473 3776.94 423.159 Q3778.93 425.821 3782.38 425.821 Q3785.78 425.821 3787.77 423.135 Q3789.76 420.45 3789.76 415.821 Q3789.76 411.214 3787.77 408.529 Q3785.78 405.821 3782.38 405.821 M3782.38 402.21 Q3787.93 402.21 3791.1 405.821 Q3794.27 409.432 3794.27 415.821 Q3794.27 422.186 3791.1 425.821 Q3787.93 429.432 3782.38 429.432 Q3776.8 429.432 3773.63 425.821 Q3770.48 422.186 3770.48 415.821 Q3770.48 409.432 3773.63 405.821 Q3776.8 402.21 3782.38 402.21 Z" fill="#000000" fill-rule="nonzero" fill-opacity="1" /><path clip-path="url(#clip420)" d="M3801.33 392.742 L3805.59 392.742 L3805.59 428.76 L3801.33 428.76 L3801.33 392.742 Z" fill="#000000" fill-rule="nonzero" fill-opacity="1" /><path clip-path="url(#clip420)" d="M3826.29 415.728 Q3821.13 415.728 3819.14 416.909 Q3817.14 418.089 3817.14 420.936 Q3817.14 423.205 3818.63 424.547 Q3820.13 425.867 3822.7 425.867 Q3826.24 425.867 3828.37 423.367 Q3830.52 420.844 3830.52 416.677 L3830.52 415.728 L3826.29 415.728 M3834.78 413.969 L3834.78 428.76 L3830.52 428.76 L3830.52 424.825 Q3829.07 427.186 3826.89 428.321 Q3824.71 429.432 3821.57 429.432 Q3817.58 429.432 3815.22 427.209 Q3812.89 424.964 3812.89 421.214 Q3812.89 416.839 3815.8 414.617 Q3818.74 412.395 3824.55 412.395 L3830.52 412.395 L3830.52 411.978 Q3830.52 409.038 3828.58 407.441 Q3826.66 405.821 3823.16 405.821 Q3820.94 405.821 3818.83 406.353 Q3816.73 406.885 3814.78 407.95 L3814.78 404.015 Q3817.12 403.112 3819.32 402.673 Q3821.52 402.21 3823.6 402.21 Q3829.23 402.21 3832.01 405.126 Q3834.78 408.043 3834.78 413.969 Z" fill="#000000" fill-rule="nonzero" fill-opacity="1" /><path clip-path="url(#clip420)" d="M3847.77 395.474 L3847.77 402.835 L3856.54 402.835 L3856.54 406.145 L3847.77 406.145 L3847.77 420.219 Q3847.77 423.39 3848.63 424.293 Q3849.51 425.196 3852.17 425.196 L3856.54 425.196 L3856.54 428.76 L3852.17 428.76 Q3847.24 428.76 3845.36 426.932 Q3843.49 425.08 3843.49 420.219 L3843.49 406.145 L3840.36 406.145 L3840.36 402.835 L3843.49 402.835 L3843.49 395.474 L3847.77 395.474 Z" fill="#000000" fill-rule="nonzero" fill-opacity="1" /><path clip-path="url(#clip420)" d="M3884.32 414.733 L3884.32 416.816 L3864.74 416.816 Q3865.01 421.214 3867.38 423.529 Q3869.76 425.821 3874 425.821 Q3876.45 425.821 3878.74 425.219 Q3881.06 424.617 3883.32 423.413 L3883.32 427.441 Q3881.03 428.413 3878.63 428.922 Q3876.22 429.432 3873.74 429.432 Q3867.54 429.432 3863.9 425.821 Q3860.29 422.209 3860.29 416.052 Q3860.29 409.686 3863.72 405.96 Q3867.17 402.21 3873 402.21 Q3878.23 402.21 3881.26 405.589 Q3884.32 408.946 3884.32 414.733 M3880.06 413.483 Q3880.01 409.987 3878.09 407.904 Q3876.2 405.821 3873.05 405.821 Q3869.48 405.821 3867.33 407.835 Q3865.2 409.848 3864.88 413.506 L3880.06 413.483 Z" fill="#000000" fill-rule="nonzero" fill-opacity="1" /><path clip-path="url(#clip420)" d="M3908.37 406.77 L3908.37 392.742 L3912.63 392.742 L3912.63 428.76 L3908.37 428.76 L3908.37 424.871 Q3907.03 427.186 3904.97 428.321 Q3902.93 429.432 3900.06 429.432 Q3895.36 429.432 3892.4 425.682 Q3889.46 421.932 3889.46 415.821 Q3889.46 409.71 3892.4 405.96 Q3895.36 402.21 3900.06 402.21 Q3902.93 402.21 3904.97 403.344 Q3907.03 404.455 3908.37 406.77 M3893.86 415.821 Q3893.86 420.52 3895.78 423.205 Q3897.72 425.867 3901.1 425.867 Q3904.48 425.867 3906.43 423.205 Q3908.37 420.52 3908.37 415.821 Q3908.37 411.122 3906.43 408.46 Q3904.48 405.774 3901.1 405.774 Q3897.72 405.774 3895.78 408.46 Q3893.86 411.122 3893.86 415.821 Z" fill="#000000" fill-rule="nonzero" fill-opacity="1" /></svg>
