<?xml version="1.0" encoding="utf-8"?>
<svg xmlns="http://www.w3.org/2000/svg" xmlns:xlink="http://www.w3.org/1999/xlink" width="600" height="400" viewBox="0 0 2400 1600">
<defs>
  <clipPath id="clip940">
    <rect x="0" y="0" width="2400" height="1600"/>
  </clipPath>
</defs>
<path clip-path="url(#clip940)" d="M0 1600 L2400 1600 L2400 0 L0 0  Z" fill="#ffffff" fill-rule="evenodd" fill-opacity="1"/>
<defs>
  <clipPath id="clip941">
    <rect x="480" y="0" width="1681" height="1600"/>
  </clipPath>
</defs>
<path clip-path="url(#clip940)" d="M186.76 1486.45 L2352.76 1486.45 L2352.76 123.472 L186.76 123.472  Z" fill="#ffffff" fill-rule="evenodd" fill-opacity="1"/>
<defs>
  <clipPath id="clip942">
    <rect x="186" y="123" width="2167" height="1364"/>
  </clipPath>
</defs>
<polyline clip-path="url(#clip942)" style="stroke:#000000; stroke-linecap:round; stroke-linejoin:round; stroke-width:2; stroke-opacity:0.1; fill:none" points="508.813,1486.45 508.813,123.472 "/>
<polyline clip-path="url(#clip942)" style="stroke:#000000; stroke-linecap:round; stroke-linejoin:round; stroke-width:2; stroke-opacity:0.1; fill:none" points="1016.11,1486.45 1016.11,123.472 "/>
<polyline clip-path="url(#clip942)" style="stroke:#000000; stroke-linecap:round; stroke-linejoin:round; stroke-width:2; stroke-opacity:0.1; fill:none" points="1523.41,1486.45 1523.41,123.472 "/>
<polyline clip-path="url(#clip942)" style="stroke:#000000; stroke-linecap:round; stroke-linejoin:round; stroke-width:2; stroke-opacity:0.1; fill:none" points="2030.7,1486.45 2030.7,123.472 "/>
<polyline clip-path="url(#clip940)" style="stroke:#000000; stroke-linecap:round; stroke-linejoin:round; stroke-width:4; stroke-opacity:1; fill:none" points="186.76,1486.45 2352.76,1486.45 "/>
<polyline clip-path="url(#clip940)" style="stroke:#000000; stroke-linecap:round; stroke-linejoin:round; stroke-width:4; stroke-opacity:1; fill:none" points="508.813,1486.45 508.813,1467.55 "/>
<polyline clip-path="url(#clip940)" style="stroke:#000000; stroke-linecap:round; stroke-linejoin:round; stroke-width:4; stroke-opacity:1; fill:none" points="1016.11,1486.45 1016.11,1467.55 "/>
<polyline clip-path="url(#clip940)" style="stroke:#000000; stroke-linecap:round; stroke-linejoin:round; stroke-width:4; stroke-opacity:1; fill:none" points="1523.41,1486.45 1523.41,1467.55 "/>
<polyline clip-path="url(#clip940)" style="stroke:#000000; stroke-linecap:round; stroke-linejoin:round; stroke-width:4; stroke-opacity:1; fill:none" points="2030.7,1486.45 2030.7,1467.55 "/>
<path clip-path="url(#clip940)" d="M463.871 1544.91 L471.509 1544.91 L471.509 1518.55 L463.199 1520.21 L463.199 1515.95 L471.463 1514.29 L476.139 1514.29 L476.139 1544.91 L483.778 1544.91 L483.778 1548.85 L463.871 1548.85 L463.871 1544.91 Z" fill="#000000" fill-rule="nonzero" fill-opacity="1" /><path clip-path="url(#clip940)" d="M492.806 1514.29 L499.102 1514.29 L514.426 1543.2 L514.426 1514.29 L518.963 1514.29 L518.963 1548.85 L512.667 1548.85 L497.343 1519.94 L497.343 1548.85 L492.806 1548.85 L492.806 1514.29 Z" fill="#000000" fill-rule="nonzero" fill-opacity="1" /><path clip-path="url(#clip940)" d="M528.268 1514.29 L534.565 1514.29 L549.889 1543.2 L549.889 1514.29 L554.426 1514.29 L554.426 1548.85 L548.129 1548.85 L532.805 1519.94 L532.805 1548.85 L528.268 1548.85 L528.268 1514.29 Z" fill="#000000" fill-rule="nonzero" fill-opacity="1" /><path clip-path="url(#clip940)" d="M969.964 1514.29 L976.931 1514.29 L985.751 1537.81 L994.617 1514.29 L1001.58 1514.29 L1001.58 1548.85 L997.024 1548.85 L997.024 1518.5 L988.112 1542.2 L983.413 1542.2 L974.501 1518.5 L974.501 1548.85 L969.964 1548.85 L969.964 1514.29 Z" fill="#000000" fill-rule="nonzero" fill-opacity="1" /><path clip-path="url(#clip940)" d="M1015.54 1518.13 L1015.54 1531.12 L1021.42 1531.12 Q1024.69 1531.12 1026.47 1529.43 Q1028.25 1527.74 1028.25 1524.61 Q1028.25 1521.51 1026.47 1519.82 Q1024.69 1518.13 1021.42 1518.13 L1015.54 1518.13 M1010.87 1514.29 L1021.42 1514.29 Q1027.23 1514.29 1030.2 1516.93 Q1033.18 1519.54 1033.18 1524.61 Q1033.18 1529.73 1030.2 1532.34 Q1027.23 1534.96 1021.42 1534.96 L1015.54 1534.96 L1015.54 1548.85 L1010.87 1548.85 L1010.87 1514.29 Z" fill="#000000" fill-rule="nonzero" fill-opacity="1" /><path clip-path="url(#clip940)" d="M1060.17 1515.42 L1060.17 1519.98 Q1057.51 1518.71 1055.15 1518.08 Q1052.79 1517.46 1050.59 1517.46 Q1046.77 1517.46 1044.69 1518.94 Q1042.63 1520.42 1042.63 1523.15 Q1042.63 1525.45 1043.99 1526.63 Q1045.38 1527.78 1049.22 1528.5 L1052.05 1529.08 Q1057.28 1530.07 1059.76 1532.6 Q1062.26 1535.1 1062.26 1539.31 Q1062.26 1544.33 1058.88 1546.93 Q1055.52 1549.52 1049.01 1549.52 Q1046.56 1549.52 1043.78 1548.96 Q1041.03 1548.41 1038.07 1547.32 L1038.07 1542.51 Q1040.91 1544.1 1043.64 1544.91 Q1046.38 1545.72 1049.01 1545.72 Q1053.02 1545.72 1055.19 1544.15 Q1057.37 1542.57 1057.37 1539.66 Q1057.37 1537.11 1055.8 1535.68 Q1054.25 1534.24 1050.68 1533.52 L1047.83 1532.97 Q1042.6 1531.93 1040.26 1529.7 Q1037.93 1527.48 1037.93 1523.52 Q1037.93 1518.94 1041.14 1516.3 Q1044.38 1513.66 1050.06 1513.66 Q1052.49 1513.66 1055.01 1514.1 Q1057.53 1514.54 1060.17 1515.42 Z" fill="#000000" fill-rule="nonzero" fill-opacity="1" /><path clip-path="url(#clip940)" d="M1478.65 1514.29 L1483.33 1514.29 L1483.33 1528.45 L1500.32 1528.45 L1500.32 1514.29 L1504.99 1514.29 L1504.99 1548.85 L1500.32 1548.85 L1500.32 1532.39 L1483.33 1532.39 L1483.33 1548.85 L1478.65 1548.85 L1478.65 1514.29 Z" fill="#000000" fill-rule="nonzero" fill-opacity="1" /><path clip-path="url(#clip940)" d="M1540.18 1516.95 L1540.18 1521.88 Q1537.82 1519.68 1535.13 1518.59 Q1532.47 1517.51 1529.46 1517.51 Q1523.53 1517.51 1520.39 1521.14 Q1517.24 1524.75 1517.24 1531.6 Q1517.24 1538.43 1520.39 1542.07 Q1523.53 1545.68 1529.46 1545.68 Q1532.47 1545.68 1535.13 1544.59 Q1537.82 1543.5 1540.18 1541.3 L1540.18 1546.19 Q1537.72 1547.85 1534.97 1548.69 Q1532.24 1549.52 1529.18 1549.52 Q1521.33 1549.52 1516.82 1544.73 Q1512.31 1539.91 1512.31 1531.6 Q1512.31 1523.27 1516.82 1518.48 Q1521.33 1513.66 1529.18 1513.66 Q1532.28 1513.66 1535.02 1514.5 Q1537.77 1515.31 1540.18 1516.95 Z" fill="#000000" fill-rule="nonzero" fill-opacity="1" /><path clip-path="url(#clip940)" d="M1551.84 1544.91 L1568.16 1544.91 L1568.16 1548.85 L1546.22 1548.85 L1546.22 1544.91 Q1548.88 1542.16 1553.46 1537.53 Q1558.07 1532.88 1559.25 1531.53 Q1561.5 1529.01 1562.38 1527.27 Q1563.28 1525.51 1563.28 1523.82 Q1563.28 1521.07 1561.33 1519.33 Q1559.41 1517.6 1556.31 1517.6 Q1554.11 1517.6 1551.66 1518.36 Q1549.23 1519.13 1546.45 1520.68 L1546.45 1515.95 Q1549.27 1514.82 1551.73 1514.24 Q1554.18 1513.66 1556.22 1513.66 Q1561.59 1513.66 1564.78 1516.35 Q1567.98 1519.03 1567.98 1523.52 Q1567.98 1525.65 1567.17 1527.57 Q1566.38 1529.47 1564.27 1532.07 Q1563.7 1532.74 1560.59 1535.95 Q1557.49 1539.15 1551.84 1544.91 Z" fill="#000000" fill-rule="nonzero" fill-opacity="1" /><path clip-path="url(#clip940)" d="M1866.2 1514.29 L1870.88 1514.29 L1870.88 1548.85 L1866.2 1548.85 L1866.2 1514.29 Z" fill="#000000" fill-rule="nonzero" fill-opacity="1" /><path clip-path="url(#clip940)" d="M1901.55 1533.2 L1901.55 1548.85 L1897.29 1548.85 L1897.29 1533.34 Q1897.29 1529.66 1895.85 1527.83 Q1894.42 1526 1891.55 1526 Q1888.1 1526 1886.11 1528.2 Q1884.12 1530.4 1884.12 1534.2 L1884.12 1548.85 L1879.84 1548.85 L1879.84 1522.92 L1884.12 1522.92 L1884.12 1526.95 Q1885.65 1524.61 1887.71 1523.45 Q1889.79 1522.3 1892.5 1522.3 Q1896.97 1522.3 1899.26 1525.07 Q1901.55 1527.83 1901.55 1533.2 Z" fill="#000000" fill-rule="nonzero" fill-opacity="1" /><path clip-path="url(#clip940)" d="M1928.7 1523.92 L1928.7 1527.9 Q1926.9 1526.9 1925.07 1526.42 Q1923.26 1525.91 1921.41 1525.91 Q1917.27 1525.91 1914.97 1528.55 Q1912.68 1531.16 1912.68 1535.91 Q1912.68 1540.65 1914.97 1543.29 Q1917.27 1545.91 1921.41 1545.91 Q1923.26 1545.91 1925.07 1545.42 Q1926.9 1544.91 1928.7 1543.92 L1928.7 1547.85 Q1926.92 1548.69 1925 1549.1 Q1923.1 1549.52 1920.95 1549.52 Q1915.09 1549.52 1911.64 1545.84 Q1908.19 1542.16 1908.19 1535.91 Q1908.19 1529.57 1911.66 1525.93 Q1915.16 1522.3 1921.22 1522.3 Q1923.19 1522.3 1925.07 1522.71 Q1926.94 1523.11 1928.7 1523.92 Z" fill="#000000" fill-rule="nonzero" fill-opacity="1" /><path clip-path="url(#clip940)" d="M1958.28 1534.82 L1958.28 1536.9 L1938.7 1536.9 Q1938.98 1541.3 1941.34 1543.62 Q1943.72 1545.91 1947.96 1545.91 Q1950.41 1545.91 1952.71 1545.31 Q1955.02 1544.7 1957.29 1543.5 L1957.29 1547.53 Q1955 1548.5 1952.59 1549.01 Q1950.18 1549.52 1947.71 1549.52 Q1941.5 1549.52 1937.87 1545.91 Q1934.26 1542.3 1934.26 1536.14 Q1934.26 1529.77 1937.68 1526.05 Q1941.13 1522.3 1946.97 1522.3 Q1952.2 1522.3 1955.23 1525.68 Q1958.28 1529.03 1958.28 1534.82 M1954.03 1533.57 Q1953.98 1530.07 1952.06 1527.99 Q1950.16 1525.91 1947.01 1525.91 Q1943.45 1525.91 1941.29 1527.92 Q1939.16 1529.94 1938.84 1533.59 L1954.03 1533.57 Z" fill="#000000" fill-rule="nonzero" fill-opacity="1" /><path clip-path="url(#clip940)" d="M1969.4 1544.96 L1969.4 1558.71 L1965.11 1558.71 L1965.11 1522.92 L1969.4 1522.92 L1969.4 1526.86 Q1970.74 1524.54 1972.78 1523.43 Q1974.84 1522.3 1977.68 1522.3 Q1982.41 1522.3 1985.34 1526.05 Q1988.31 1529.8 1988.31 1535.91 Q1988.31 1542.02 1985.34 1545.77 Q1982.41 1549.52 1977.68 1549.52 Q1974.84 1549.52 1972.78 1548.41 Q1970.74 1547.27 1969.4 1544.96 M1983.89 1535.91 Q1983.89 1531.21 1981.94 1528.55 Q1980.02 1525.86 1976.64 1525.86 Q1973.26 1525.86 1971.32 1528.55 Q1969.4 1531.21 1969.4 1535.91 Q1969.4 1540.61 1971.32 1543.29 Q1973.26 1545.95 1976.64 1545.95 Q1980.02 1545.95 1981.94 1543.29 Q1983.89 1540.61 1983.89 1535.91 Z" fill="#000000" fill-rule="nonzero" fill-opacity="1" /><path clip-path="url(#clip940)" d="M1999.58 1515.56 L1999.58 1522.92 L2008.35 1522.92 L2008.35 1526.23 L1999.58 1526.23 L1999.58 1540.31 Q1999.58 1543.48 2000.44 1544.38 Q2001.32 1545.28 2003.98 1545.28 L2008.35 1545.28 L2008.35 1548.85 L2003.98 1548.85 Q1999.05 1548.85 1997.17 1547.02 Q1995.3 1545.17 1995.3 1540.31 L1995.3 1526.23 L1992.17 1526.23 L1992.17 1522.92 L1995.3 1522.92 L1995.3 1515.56 L1999.58 1515.56 Z" fill="#000000" fill-rule="nonzero" fill-opacity="1" /><path clip-path="url(#clip940)" d="M2013.96 1522.92 L2018.22 1522.92 L2018.22 1548.85 L2013.96 1548.85 L2013.96 1522.92 M2013.96 1512.83 L2018.22 1512.83 L2018.22 1518.22 L2013.96 1518.22 L2013.96 1512.83 Z" fill="#000000" fill-rule="nonzero" fill-opacity="1" /><path clip-path="url(#clip940)" d="M2037.17 1525.91 Q2033.75 1525.91 2031.76 1528.59 Q2029.77 1531.26 2029.77 1535.91 Q2029.77 1540.56 2031.73 1543.25 Q2033.72 1545.91 2037.17 1545.91 Q2040.58 1545.91 2042.57 1543.22 Q2044.56 1540.54 2044.56 1535.91 Q2044.56 1531.3 2042.57 1528.62 Q2040.58 1525.91 2037.17 1525.91 M2037.17 1522.3 Q2042.73 1522.3 2045.9 1525.91 Q2049.07 1529.52 2049.07 1535.91 Q2049.07 1542.27 2045.9 1545.91 Q2042.73 1549.52 2037.17 1549.52 Q2031.59 1549.52 2028.42 1545.91 Q2025.28 1542.27 2025.28 1535.91 Q2025.28 1529.52 2028.42 1525.91 Q2031.59 1522.3 2037.17 1522.3 Z" fill="#000000" fill-rule="nonzero" fill-opacity="1" /><path clip-path="url(#clip940)" d="M2077.68 1533.2 L2077.68 1548.85 L2073.42 1548.85 L2073.42 1533.34 Q2073.42 1529.66 2071.99 1527.83 Q2070.55 1526 2067.68 1526 Q2064.23 1526 2062.24 1528.2 Q2060.25 1530.4 2060.25 1534.2 L2060.25 1548.85 L2055.97 1548.85 L2055.97 1522.92 L2060.25 1522.92 L2060.25 1526.95 Q2061.78 1524.61 2063.84 1523.45 Q2065.92 1522.3 2068.63 1522.3 Q2073.1 1522.3 2075.39 1525.07 Q2077.68 1527.83 2077.68 1533.2 Z" fill="#000000" fill-rule="nonzero" fill-opacity="1" /><path clip-path="url(#clip940)" d="M2081.57 1514.29 L2110.81 1514.29 L2110.81 1518.22 L2098.54 1518.22 L2098.54 1548.85 L2093.84 1548.85 L2093.84 1518.22 L2081.57 1518.22 L2081.57 1514.29 Z" fill="#000000" fill-rule="nonzero" fill-opacity="1" /><path clip-path="url(#clip940)" d="M2113.68 1522.92 L2117.94 1522.92 L2117.94 1548.85 L2113.68 1548.85 L2113.68 1522.92 M2113.68 1512.83 L2117.94 1512.83 L2117.94 1518.22 L2113.68 1518.22 L2113.68 1512.83 Z" fill="#000000" fill-rule="nonzero" fill-opacity="1" /><path clip-path="url(#clip940)" d="M2147.03 1527.9 Q2148.63 1525.03 2150.85 1523.66 Q2153.08 1522.3 2156.08 1522.3 Q2160.14 1522.3 2162.33 1525.14 Q2164.53 1527.97 2164.53 1533.2 L2164.53 1548.85 L2160.25 1548.85 L2160.25 1533.34 Q2160.25 1529.61 2158.93 1527.81 Q2157.61 1526 2154.9 1526 Q2151.59 1526 2149.67 1528.2 Q2147.75 1530.4 2147.75 1534.2 L2147.75 1548.85 L2143.47 1548.85 L2143.47 1533.34 Q2143.47 1529.59 2142.15 1527.81 Q2140.83 1526 2138.08 1526 Q2134.81 1526 2132.89 1528.22 Q2130.97 1530.42 2130.97 1534.2 L2130.97 1548.85 L2126.69 1548.85 L2126.69 1522.92 L2130.97 1522.92 L2130.97 1526.95 Q2132.43 1524.57 2134.46 1523.43 Q2136.5 1522.3 2139.3 1522.3 Q2142.13 1522.3 2144.09 1523.73 Q2146.08 1525.17 2147.03 1527.9 Z" fill="#000000" fill-rule="nonzero" fill-opacity="1" /><path clip-path="url(#clip940)" d="M2195.2 1534.82 L2195.2 1536.9 L2175.62 1536.9 Q2175.9 1541.3 2178.26 1543.62 Q2180.64 1545.91 2184.88 1545.91 Q2187.33 1545.91 2189.63 1545.31 Q2191.94 1544.7 2194.21 1543.5 L2194.21 1547.53 Q2191.92 1548.5 2189.51 1549.01 Q2187.1 1549.52 2184.63 1549.52 Q2178.42 1549.52 2174.79 1545.91 Q2171.18 1542.3 2171.18 1536.14 Q2171.18 1529.77 2174.6 1526.05 Q2178.05 1522.3 2183.89 1522.3 Q2189.12 1522.3 2192.15 1525.68 Q2195.2 1529.03 2195.2 1534.82 M2190.95 1533.57 Q2190.9 1530.07 2188.98 1527.99 Q2187.08 1525.91 2183.93 1525.91 Q2180.37 1525.91 2178.21 1527.92 Q2176.08 1529.94 2175.76 1533.59 L2190.95 1533.57 Z" fill="#000000" fill-rule="nonzero" fill-opacity="1" /><polyline clip-path="url(#clip942)" style="stroke:#000000; stroke-linecap:round; stroke-linejoin:round; stroke-width:2; stroke-opacity:0.1; fill:none" points="186.76,1486.45 2352.76,1486.45 "/>
<polyline clip-path="url(#clip942)" style="stroke:#000000; stroke-linecap:round; stroke-linejoin:round; stroke-width:2; stroke-opacity:0.1; fill:none" points="186.76,1259.29 2352.76,1259.29 "/>
<polyline clip-path="url(#clip942)" style="stroke:#000000; stroke-linecap:round; stroke-linejoin:round; stroke-width:2; stroke-opacity:0.1; fill:none" points="186.76,1032.12 2352.76,1032.12 "/>
<polyline clip-path="url(#clip942)" style="stroke:#000000; stroke-linecap:round; stroke-linejoin:round; stroke-width:2; stroke-opacity:0.1; fill:none" points="186.76,804.96 2352.76,804.96 "/>
<polyline clip-path="url(#clip942)" style="stroke:#000000; stroke-linecap:round; stroke-linejoin:round; stroke-width:2; stroke-opacity:0.1; fill:none" points="186.76,577.797 2352.76,577.797 "/>
<polyline clip-path="url(#clip942)" style="stroke:#000000; stroke-linecap:round; stroke-linejoin:round; stroke-width:2; stroke-opacity:0.1; fill:none" points="186.76,350.635 2352.76,350.635 "/>
<polyline clip-path="url(#clip942)" style="stroke:#000000; stroke-linecap:round; stroke-linejoin:round; stroke-width:2; stroke-opacity:0.1; fill:none" points="186.76,123.472 2352.76,123.472 "/>
<polyline clip-path="url(#clip940)" style="stroke:#000000; stroke-linecap:round; stroke-linejoin:round; stroke-width:4; stroke-opacity:1; fill:none" points="186.76,1486.45 186.76,123.472 "/>
<polyline clip-path="url(#clip940)" style="stroke:#000000; stroke-linecap:round; stroke-linejoin:round; stroke-width:4; stroke-opacity:1; fill:none" points="186.76,1486.45 205.658,1486.45 "/>
<polyline clip-path="url(#clip940)" style="stroke:#000000; stroke-linecap:round; stroke-linejoin:round; stroke-width:4; stroke-opacity:1; fill:none" points="186.76,1259.29 205.658,1259.29 "/>
<polyline clip-path="url(#clip940)" style="stroke:#000000; stroke-linecap:round; stroke-linejoin:round; stroke-width:4; stroke-opacity:1; fill:none" points="186.76,1032.12 205.658,1032.12 "/>
<polyline clip-path="url(#clip940)" style="stroke:#000000; stroke-linecap:round; stroke-linejoin:round; stroke-width:4; stroke-opacity:1; fill:none" points="186.76,804.96 205.658,804.96 "/>
<polyline clip-path="url(#clip940)" style="stroke:#000000; stroke-linecap:round; stroke-linejoin:round; stroke-width:4; stroke-opacity:1; fill:none" points="186.76,577.797 205.658,577.797 "/>
<polyline clip-path="url(#clip940)" style="stroke:#000000; stroke-linecap:round; stroke-linejoin:round; stroke-width:4; stroke-opacity:1; fill:none" points="186.76,350.635 205.658,350.635 "/>
<polyline clip-path="url(#clip940)" style="stroke:#000000; stroke-linecap:round; stroke-linejoin:round; stroke-width:4; stroke-opacity:1; fill:none" points="186.76,123.472 205.658,123.472 "/>
<path clip-path="url(#clip940)" d="M63.4226 1472.25 Q59.8115 1472.25 57.9828 1475.81 Q56.1773 1479.35 56.1773 1486.48 Q56.1773 1493.59 57.9828 1497.15 Q59.8115 1500.7 63.4226 1500.7 Q67.0569 1500.7 68.8624 1497.15 Q70.6911 1493.59 70.6911 1486.48 Q70.6911 1479.35 68.8624 1475.81 Q67.0569 1472.25 63.4226 1472.25 M63.4226 1468.54 Q69.2328 1468.54 72.2883 1473.15 Q75.367 1477.73 75.367 1486.48 Q75.367 1495.21 72.2883 1499.82 Q69.2328 1504.4 63.4226 1504.4 Q57.6125 1504.4 54.5338 1499.82 Q51.4782 1495.21 51.4782 1486.48 Q51.4782 1477.73 54.5338 1473.15 Q57.6125 1468.54 63.4226 1468.54 Z" fill="#000000" fill-rule="nonzero" fill-opacity="1" /><path clip-path="url(#clip940)" d="M83.5845 1497.85 L88.4688 1497.85 L88.4688 1503.73 L83.5845 1503.73 L83.5845 1497.85 Z" fill="#000000" fill-rule="nonzero" fill-opacity="1" /><path clip-path="url(#clip940)" d="M108.654 1487.32 Q105.321 1487.32 103.399 1489.1 Q101.501 1490.88 101.501 1494.01 Q101.501 1497.13 103.399 1498.91 Q105.321 1500.7 108.654 1500.7 Q111.987 1500.7 113.908 1498.91 Q115.83 1497.11 115.83 1494.01 Q115.83 1490.88 113.908 1489.1 Q112.01 1487.32 108.654 1487.32 M103.978 1485.33 Q100.969 1484.58 99.2789 1482.52 Q97.6122 1480.46 97.6122 1477.5 Q97.6122 1473.36 100.552 1470.95 Q103.515 1468.54 108.654 1468.54 Q113.816 1468.54 116.756 1470.95 Q119.695 1473.36 119.695 1477.5 Q119.695 1480.46 118.006 1482.52 Q116.339 1484.58 113.353 1485.33 Q116.733 1486.11 118.608 1488.4 Q120.506 1490.7 120.506 1494.01 Q120.506 1499.03 117.427 1501.71 Q114.371 1504.4 108.654 1504.4 Q102.936 1504.4 99.8576 1501.71 Q96.8021 1499.03 96.8021 1494.01 Q96.8021 1490.7 98.7002 1488.4 Q100.598 1486.11 103.978 1485.33 M102.265 1477.94 Q102.265 1480.63 103.932 1482.13 Q105.621 1483.64 108.654 1483.64 Q111.663 1483.64 113.353 1482.13 Q115.066 1480.63 115.066 1477.94 Q115.066 1475.26 113.353 1473.75 Q111.663 1472.25 108.654 1472.25 Q105.621 1472.25 103.932 1473.75 Q102.265 1475.26 102.265 1477.94 Z" fill="#000000" fill-rule="nonzero" fill-opacity="1" /><path clip-path="url(#clip940)" d="M138.816 1472.25 Q135.205 1472.25 133.376 1475.81 Q131.57 1479.35 131.57 1486.48 Q131.57 1493.59 133.376 1497.15 Q135.205 1500.7 138.816 1500.7 Q142.45 1500.7 144.256 1497.15 Q146.084 1493.59 146.084 1486.48 Q146.084 1479.35 144.256 1475.81 Q142.45 1472.25 138.816 1472.25 M138.816 1468.54 Q144.626 1468.54 147.681 1473.15 Q150.76 1477.73 150.76 1486.48 Q150.76 1495.21 147.681 1499.82 Q144.626 1504.4 138.816 1504.4 Q133.006 1504.4 129.927 1499.82 Q126.871 1495.21 126.871 1486.48 Q126.871 1477.73 129.927 1473.15 Q133.006 1468.54 138.816 1468.54 Z" fill="#000000" fill-rule="nonzero" fill-opacity="1" /><path clip-path="url(#clip940)" d="M65.0198 1245.08 Q61.4087 1245.08 59.58 1248.65 Q57.7745 1252.19 57.7745 1259.32 Q57.7745 1266.43 59.58 1269.99 Q61.4087 1273.53 65.0198 1273.53 Q68.6541 1273.53 70.4596 1269.99 Q72.2883 1266.43 72.2883 1259.32 Q72.2883 1252.19 70.4596 1248.65 Q68.6541 1245.08 65.0198 1245.08 M65.0198 1241.38 Q70.83 1241.38 73.8855 1245.99 Q76.9642 1250.57 76.9642 1259.32 Q76.9642 1268.05 73.8855 1272.65 Q70.83 1277.24 65.0198 1277.24 Q59.2097 1277.24 56.131 1272.65 Q53.0754 1268.05 53.0754 1259.32 Q53.0754 1250.57 56.131 1245.99 Q59.2097 1241.38 65.0198 1241.38 Z" fill="#000000" fill-rule="nonzero" fill-opacity="1" /><path clip-path="url(#clip940)" d="M85.1818 1270.69 L90.066 1270.69 L90.066 1276.57 L85.1818 1276.57 L85.1818 1270.69 Z" fill="#000000" fill-rule="nonzero" fill-opacity="1" /><path clip-path="url(#clip940)" d="M110.251 1260.15 Q106.918 1260.15 104.996 1261.94 Q103.098 1263.72 103.098 1266.84 Q103.098 1269.97 104.996 1271.75 Q106.918 1273.53 110.251 1273.53 Q113.584 1273.53 115.506 1271.75 Q117.427 1269.94 117.427 1266.84 Q117.427 1263.72 115.506 1261.94 Q113.608 1260.15 110.251 1260.15 M105.575 1258.16 Q102.566 1257.42 100.876 1255.36 Q99.2095 1253.3 99.2095 1250.34 Q99.2095 1246.2 102.149 1243.79 Q105.112 1241.38 110.251 1241.38 Q115.413 1241.38 118.353 1243.79 Q121.293 1246.2 121.293 1250.34 Q121.293 1253.3 119.603 1255.36 Q117.936 1257.42 114.95 1258.16 Q118.33 1258.95 120.205 1261.24 Q122.103 1263.53 122.103 1266.84 Q122.103 1271.87 119.024 1274.55 Q115.969 1277.24 110.251 1277.24 Q104.534 1277.24 101.455 1274.55 Q98.3993 1271.87 98.3993 1266.84 Q98.3993 1263.53 100.297 1261.24 Q102.196 1258.95 105.575 1258.16 M103.862 1250.78 Q103.862 1253.46 105.529 1254.97 Q107.219 1256.47 110.251 1256.47 Q113.26 1256.47 114.95 1254.97 Q116.663 1253.46 116.663 1250.78 Q116.663 1248.09 114.95 1246.59 Q113.26 1245.08 110.251 1245.08 Q107.219 1245.08 105.529 1246.59 Q103.862 1248.09 103.862 1250.78 Z" fill="#000000" fill-rule="nonzero" fill-opacity="1" /><path clip-path="url(#clip940)" d="M134.441 1272.63 L150.76 1272.63 L150.76 1276.57 L128.816 1276.57 L128.816 1272.63 Q131.478 1269.88 136.061 1265.25 Q140.668 1260.59 141.848 1259.25 Q144.093 1256.73 144.973 1254.99 Q145.876 1253.23 145.876 1251.54 Q145.876 1248.79 143.931 1247.05 Q142.01 1245.32 138.908 1245.32 Q136.709 1245.32 134.256 1246.08 Q131.825 1246.84 129.047 1248.39 L129.047 1243.67 Q131.871 1242.54 134.325 1241.96 Q136.779 1241.38 138.816 1241.38 Q144.186 1241.38 147.38 1244.07 Q150.575 1246.75 150.575 1251.24 Q150.575 1253.37 149.765 1255.29 Q148.978 1257.19 146.871 1259.78 Q146.293 1260.45 143.191 1263.67 Q140.089 1266.87 134.441 1272.63 Z" fill="#000000" fill-rule="nonzero" fill-opacity="1" /><path clip-path="url(#clip940)" d="M62.9365 1017.92 Q59.3254 1017.92 57.4967 1021.49 Q55.6912 1025.03 55.6912 1032.16 Q55.6912 1039.26 57.4967 1042.83 Q59.3254 1046.37 62.9365 1046.37 Q66.5707 1046.37 68.3763 1042.83 Q70.205 1039.26 70.205 1032.16 Q70.205 1025.03 68.3763 1021.49 Q66.5707 1017.92 62.9365 1017.92 M62.9365 1014.22 Q68.7467 1014.22 71.8022 1018.82 Q74.8809 1023.41 74.8809 1032.16 Q74.8809 1040.88 71.8022 1045.49 Q68.7467 1050.07 62.9365 1050.07 Q57.1264 1050.07 54.0477 1045.49 Q50.9921 1040.88 50.9921 1032.16 Q50.9921 1023.41 54.0477 1018.82 Q57.1264 1014.22 62.9365 1014.22 Z" fill="#000000" fill-rule="nonzero" fill-opacity="1" /><path clip-path="url(#clip940)" d="M83.0984 1043.52 L87.9827 1043.52 L87.9827 1049.4 L83.0984 1049.4 L83.0984 1043.52 Z" fill="#000000" fill-rule="nonzero" fill-opacity="1" /><path clip-path="url(#clip940)" d="M108.168 1032.99 Q104.834 1032.99 102.913 1034.77 Q101.015 1036.56 101.015 1039.68 Q101.015 1042.81 102.913 1044.59 Q104.834 1046.37 108.168 1046.37 Q111.501 1046.37 113.422 1044.59 Q115.344 1042.78 115.344 1039.68 Q115.344 1036.56 113.422 1034.77 Q111.524 1032.99 108.168 1032.99 M103.492 1031 Q100.483 1030.26 98.7928 1028.2 Q97.1261 1026.14 97.1261 1023.18 Q97.1261 1019.03 100.066 1016.63 Q103.029 1014.22 108.168 1014.22 Q113.33 1014.22 116.27 1016.63 Q119.209 1019.03 119.209 1023.18 Q119.209 1026.14 117.52 1028.2 Q115.853 1030.26 112.867 1031 Q116.246 1031.79 118.121 1034.08 Q120.02 1036.37 120.02 1039.68 Q120.02 1044.7 116.941 1047.39 Q113.885 1050.07 108.168 1050.07 Q102.45 1050.07 99.3715 1047.39 Q96.316 1044.7 96.316 1039.68 Q96.316 1036.37 98.2141 1034.08 Q100.112 1031.79 103.492 1031 M101.779 1023.62 Q101.779 1026.3 103.446 1027.81 Q105.135 1029.31 108.168 1029.31 Q111.177 1029.31 112.867 1027.81 Q114.58 1026.3 114.58 1023.62 Q114.58 1020.93 112.867 1019.43 Q111.177 1017.92 108.168 1017.92 Q105.135 1017.92 103.446 1019.43 Q101.779 1020.93 101.779 1023.62 Z" fill="#000000" fill-rule="nonzero" fill-opacity="1" /><path clip-path="url(#clip940)" d="M141.177 1018.92 L129.371 1037.37 L141.177 1037.37 L141.177 1018.92 M139.95 1014.84 L145.83 1014.84 L145.83 1037.37 L150.76 1037.37 L150.76 1041.25 L145.83 1041.25 L145.83 1049.4 L141.177 1049.4 L141.177 1041.25 L125.575 1041.25 L125.575 1036.74 L139.95 1014.84 Z" fill="#000000" fill-rule="nonzero" fill-opacity="1" /><path clip-path="url(#clip940)" d="M63.2606 790.759 Q59.6495 790.759 57.8208 794.323 Q56.0152 797.865 56.0152 804.995 Q56.0152 812.101 57.8208 815.666 Q59.6495 819.208 63.2606 819.208 Q66.8948 819.208 68.7004 815.666 Q70.5291 812.101 70.5291 804.995 Q70.5291 797.865 68.7004 794.323 Q66.8948 790.759 63.2606 790.759 M63.2606 787.055 Q69.0707 787.055 72.1263 791.661 Q75.205 796.245 75.205 804.995 Q75.205 813.722 72.1263 818.328 Q69.0707 822.911 63.2606 822.911 Q57.4504 822.911 54.3717 818.328 Q51.3162 813.722 51.3162 804.995 Q51.3162 796.245 54.3717 791.661 Q57.4504 787.055 63.2606 787.055 Z" fill="#000000" fill-rule="nonzero" fill-opacity="1" /><path clip-path="url(#clip940)" d="M83.4225 816.36 L88.3067 816.36 L88.3067 822.24 L83.4225 822.24 L83.4225 816.36 Z" fill="#000000" fill-rule="nonzero" fill-opacity="1" /><path clip-path="url(#clip940)" d="M108.492 805.828 Q105.159 805.828 103.237 807.61 Q101.339 809.393 101.339 812.518 Q101.339 815.643 103.237 817.425 Q105.159 819.208 108.492 819.208 Q111.825 819.208 113.746 817.425 Q115.668 815.62 115.668 812.518 Q115.668 809.393 113.746 807.61 Q111.848 805.828 108.492 805.828 M103.816 803.837 Q100.807 803.097 99.1169 801.036 Q97.4502 798.976 97.4502 796.013 Q97.4502 791.87 100.39 789.462 Q103.353 787.055 108.492 787.055 Q113.654 787.055 116.594 789.462 Q119.533 791.87 119.533 796.013 Q119.533 798.976 117.844 801.036 Q116.177 803.097 113.191 803.837 Q116.57 804.624 118.445 806.916 Q120.344 809.208 120.344 812.518 Q120.344 817.541 117.265 820.226 Q114.209 822.911 108.492 822.911 Q102.774 822.911 99.6956 820.226 Q96.64 817.541 96.64 812.518 Q96.64 809.208 98.5382 806.916 Q100.436 804.624 103.816 803.837 M102.103 796.453 Q102.103 799.138 103.77 800.643 Q105.459 802.148 108.492 802.148 Q111.501 802.148 113.191 800.643 Q114.904 799.138 114.904 796.453 Q114.904 793.768 113.191 792.263 Q111.501 790.759 108.492 790.759 Q105.459 790.759 103.77 792.263 Q102.103 793.768 102.103 796.453 Z" fill="#000000" fill-rule="nonzero" fill-opacity="1" /><path clip-path="url(#clip940)" d="M139.232 803.097 Q136.084 803.097 134.232 805.249 Q132.404 807.402 132.404 811.152 Q132.404 814.879 134.232 817.055 Q136.084 819.208 139.232 819.208 Q142.381 819.208 144.209 817.055 Q146.061 814.879 146.061 811.152 Q146.061 807.402 144.209 805.249 Q142.381 803.097 139.232 803.097 M148.515 788.444 L148.515 792.703 Q146.756 791.87 144.95 791.43 Q143.168 790.99 141.408 790.99 Q136.779 790.99 134.325 794.115 Q131.894 797.24 131.547 803.56 Q132.913 801.546 134.973 800.481 Q137.033 799.393 139.51 799.393 Q144.718 799.393 147.728 802.564 Q150.76 805.712 150.76 811.152 Q150.76 816.476 147.612 819.694 Q144.464 822.911 139.232 822.911 Q133.237 822.911 130.066 818.328 Q126.894 813.722 126.894 804.995 Q126.894 796.8 130.783 791.939 Q134.672 787.055 141.223 787.055 Q142.982 787.055 144.765 787.402 Q146.57 787.749 148.515 788.444 Z" fill="#000000" fill-rule="nonzero" fill-opacity="1" /><path clip-path="url(#clip940)" d="M63.5152 563.596 Q59.9041 563.596 58.0754 567.161 Q56.2699 570.703 56.2699 577.832 Q56.2699 584.939 58.0754 588.503 Q59.9041 592.045 63.5152 592.045 Q67.1494 592.045 68.955 588.503 Q70.7837 584.939 70.7837 577.832 Q70.7837 570.703 68.955 567.161 Q67.1494 563.596 63.5152 563.596 M63.5152 559.892 Q69.3254 559.892 72.3809 564.499 Q75.4596 569.082 75.4596 577.832 Q75.4596 586.559 72.3809 591.165 Q69.3254 595.749 63.5152 595.749 Q57.7051 595.749 54.6264 591.165 Q51.5708 586.559 51.5708 577.832 Q51.5708 569.082 54.6264 564.499 Q57.7051 559.892 63.5152 559.892 Z" fill="#000000" fill-rule="nonzero" fill-opacity="1" /><path clip-path="url(#clip940)" d="M83.6771 589.198 L88.5614 589.198 L88.5614 595.077 L83.6771 595.077 L83.6771 589.198 Z" fill="#000000" fill-rule="nonzero" fill-opacity="1" /><path clip-path="url(#clip940)" d="M108.746 578.665 Q105.413 578.665 103.492 580.448 Q101.594 582.23 101.594 585.355 Q101.594 588.48 103.492 590.263 Q105.413 592.045 108.746 592.045 Q112.08 592.045 114.001 590.263 Q115.922 588.457 115.922 585.355 Q115.922 582.23 114.001 580.448 Q112.103 578.665 108.746 578.665 M104.071 576.675 Q101.061 575.934 99.3715 573.874 Q97.7048 571.814 97.7048 568.851 Q97.7048 564.707 100.645 562.3 Q103.608 559.892 108.746 559.892 Q113.908 559.892 116.848 562.3 Q119.788 564.707 119.788 568.851 Q119.788 571.814 118.098 573.874 Q116.432 575.934 113.445 576.675 Q116.825 577.462 118.7 579.753 Q120.598 582.045 120.598 585.355 Q120.598 590.378 117.52 593.063 Q114.464 595.749 108.746 595.749 Q103.029 595.749 99.9502 593.063 Q96.8947 590.378 96.8947 585.355 Q96.8947 582.045 98.7928 579.753 Q100.691 577.462 104.071 576.675 M102.358 569.29 Q102.358 571.976 104.024 573.48 Q105.714 574.985 108.746 574.985 Q111.756 574.985 113.445 573.48 Q115.158 571.976 115.158 569.29 Q115.158 566.605 113.445 565.101 Q111.756 563.596 108.746 563.596 Q105.714 563.596 104.024 565.101 Q102.358 566.605 102.358 569.29 Z" fill="#000000" fill-rule="nonzero" fill-opacity="1" /><path clip-path="url(#clip940)" d="M138.908 578.665 Q135.575 578.665 133.654 580.448 Q131.756 582.23 131.756 585.355 Q131.756 588.48 133.654 590.263 Q135.575 592.045 138.908 592.045 Q142.242 592.045 144.163 590.263 Q146.084 588.457 146.084 585.355 Q146.084 582.23 144.163 580.448 Q142.265 578.665 138.908 578.665 M134.232 576.675 Q131.223 575.934 129.533 573.874 Q127.867 571.814 127.867 568.851 Q127.867 564.707 130.807 562.3 Q133.769 559.892 138.908 559.892 Q144.07 559.892 147.01 562.3 Q149.95 564.707 149.95 568.851 Q149.95 571.814 148.26 573.874 Q146.593 575.934 143.607 576.675 Q146.987 577.462 148.862 579.753 Q150.76 582.045 150.76 585.355 Q150.76 590.378 147.681 593.063 Q144.626 595.749 138.908 595.749 Q133.191 595.749 130.112 593.063 Q127.057 590.378 127.057 585.355 Q127.057 582.045 128.955 579.753 Q130.853 577.462 134.232 576.675 M132.519 569.29 Q132.519 571.976 134.186 573.48 Q135.876 574.985 138.908 574.985 Q141.918 574.985 143.607 573.48 Q145.32 571.976 145.32 569.29 Q145.32 566.605 143.607 565.101 Q141.918 563.596 138.908 563.596 Q135.876 563.596 134.186 565.101 Q132.519 566.605 132.519 569.29 Z" fill="#000000" fill-rule="nonzero" fill-opacity="1" /><path clip-path="url(#clip940)" d="M63.4226 336.433 Q59.8115 336.433 57.9828 339.998 Q56.1773 343.54 56.1773 350.669 Q56.1773 357.776 57.9828 361.341 Q59.8115 364.882 63.4226 364.882 Q67.0569 364.882 68.8624 361.341 Q70.6911 357.776 70.6911 350.669 Q70.6911 343.54 68.8624 339.998 Q67.0569 336.433 63.4226 336.433 M63.4226 332.73 Q69.2328 332.73 72.2883 337.336 Q75.367 341.92 75.367 350.669 Q75.367 359.396 72.2883 364.003 Q69.2328 368.586 63.4226 368.586 Q57.6125 368.586 54.5338 364.003 Q51.4782 359.396 51.4782 350.669 Q51.4782 341.92 54.5338 337.336 Q57.6125 332.73 63.4226 332.73 Z" fill="#000000" fill-rule="nonzero" fill-opacity="1" /><path clip-path="url(#clip940)" d="M83.5845 362.035 L88.4688 362.035 L88.4688 367.915 L83.5845 367.915 L83.5845 362.035 Z" fill="#000000" fill-rule="nonzero" fill-opacity="1" /><path clip-path="url(#clip940)" d="M98.7928 367.197 L98.7928 362.938 Q100.552 363.771 102.358 364.211 Q104.163 364.651 105.899 364.651 Q110.529 364.651 112.959 361.549 Q115.413 358.424 115.76 352.082 Q114.418 354.072 112.358 355.137 Q110.297 356.202 107.797 356.202 Q102.612 356.202 99.5798 353.077 Q96.5706 349.929 96.5706 344.489 Q96.5706 339.165 99.7187 335.947 Q102.867 332.73 108.098 332.73 Q114.094 332.73 117.242 337.336 Q120.413 341.92 120.413 350.669 Q120.413 358.841 116.524 363.725 Q112.658 368.586 106.108 368.586 Q104.348 368.586 102.543 368.239 Q100.737 367.892 98.7928 367.197 M108.098 352.544 Q111.246 352.544 113.075 350.392 Q114.927 348.239 114.927 344.489 Q114.927 340.762 113.075 338.609 Q111.246 336.433 108.098 336.433 Q104.95 336.433 103.098 338.609 Q101.27 340.762 101.27 344.489 Q101.27 348.239 103.098 350.392 Q104.95 352.544 108.098 352.544 Z" fill="#000000" fill-rule="nonzero" fill-opacity="1" /><path clip-path="url(#clip940)" d="M138.816 336.433 Q135.205 336.433 133.376 339.998 Q131.57 343.54 131.57 350.669 Q131.57 357.776 133.376 361.341 Q135.205 364.882 138.816 364.882 Q142.45 364.882 144.256 361.341 Q146.084 357.776 146.084 350.669 Q146.084 343.54 144.256 339.998 Q142.45 336.433 138.816 336.433 M138.816 332.73 Q144.626 332.73 147.681 337.336 Q150.76 341.92 150.76 350.669 Q150.76 359.396 147.681 364.003 Q144.626 368.586 138.816 368.586 Q133.006 368.586 129.927 364.003 Q126.871 359.396 126.871 350.669 Q126.871 341.92 129.927 337.336 Q133.006 332.73 138.816 332.73 Z" fill="#000000" fill-rule="nonzero" fill-opacity="1" /><path clip-path="url(#clip940)" d="M65.0198 109.271 Q61.4087 109.271 59.58 112.836 Q57.7745 116.377 57.7745 123.507 Q57.7745 130.613 59.58 134.178 Q61.4087 137.72 65.0198 137.72 Q68.6541 137.72 70.4596 134.178 Q72.2883 130.613 72.2883 123.507 Q72.2883 116.377 70.4596 112.836 Q68.6541 109.271 65.0198 109.271 M65.0198 105.567 Q70.83 105.567 73.8855 110.174 Q76.9642 114.757 76.9642 123.507 Q76.9642 132.234 73.8855 136.84 Q70.83 141.423 65.0198 141.423 Q59.2097 141.423 56.131 136.84 Q53.0754 132.234 53.0754 123.507 Q53.0754 114.757 56.131 110.174 Q59.2097 105.567 65.0198 105.567 Z" fill="#000000" fill-rule="nonzero" fill-opacity="1" /><path clip-path="url(#clip940)" d="M85.1818 134.873 L90.066 134.873 L90.066 140.752 L85.1818 140.752 L85.1818 134.873 Z" fill="#000000" fill-rule="nonzero" fill-opacity="1" /><path clip-path="url(#clip940)" d="M100.39 140.035 L100.39 135.775 Q102.149 136.609 103.955 137.048 Q105.76 137.488 107.496 137.488 Q112.126 137.488 114.557 134.386 Q117.01 131.261 117.358 124.919 Q116.015 126.91 113.955 127.974 Q111.895 129.039 109.395 129.039 Q104.209 129.039 101.177 125.914 Q98.1678 122.766 98.1678 117.326 Q98.1678 112.002 101.316 108.785 Q104.464 105.567 109.696 105.567 Q115.691 105.567 118.839 110.174 Q122.01 114.757 122.01 123.507 Q122.01 131.678 118.121 136.562 Q114.256 141.423 107.705 141.423 Q105.946 141.423 104.14 141.076 Q102.334 140.729 100.39 140.035 M109.696 125.382 Q112.844 125.382 114.672 123.229 Q116.524 121.076 116.524 117.326 Q116.524 113.599 114.672 111.447 Q112.844 109.271 109.696 109.271 Q106.547 109.271 104.696 111.447 Q102.867 113.599 102.867 117.326 Q102.867 121.076 104.696 123.229 Q106.547 125.382 109.696 125.382 Z" fill="#000000" fill-rule="nonzero" fill-opacity="1" /><path clip-path="url(#clip940)" d="M134.441 136.817 L150.76 136.817 L150.76 140.752 L128.816 140.752 L128.816 136.817 Q131.478 134.062 136.061 129.433 Q140.668 124.78 141.848 123.437 Q144.093 120.914 144.973 119.178 Q145.876 117.419 145.876 115.729 Q145.876 112.974 143.931 111.238 Q142.01 109.502 138.908 109.502 Q136.709 109.502 134.256 110.266 Q131.825 111.03 129.047 112.581 L129.047 107.859 Q131.871 106.725 134.325 106.146 Q136.779 105.567 138.816 105.567 Q144.186 105.567 147.38 108.252 Q150.575 110.937 150.575 115.428 Q150.575 117.558 149.765 119.479 Q148.978 121.377 146.871 123.97 Q146.293 124.641 143.191 127.859 Q140.089 131.053 134.441 136.817 Z" fill="#000000" fill-rule="nonzero" fill-opacity="1" /><path clip-path="url(#clip940)" d="M906.007 12.096 L944.248 12.096 L944.248 18.9825 L914.19 18.9825 L914.19 36.8875 L942.992 36.8875 L942.992 43.7741 L914.19 43.7741 L914.19 65.6895 L944.977 65.6895 L944.977 72.576 L906.007 72.576 L906.007 12.096 Z" fill="#000000" fill-rule="nonzero" fill-opacity="1" /><path clip-path="url(#clip940)" d="M1003.71 16.7545 L1003.71 25.383 Q999.583 21.5346 994.884 19.6307 Q990.225 17.7268 984.959 17.7268 Q974.589 17.7268 969.08 24.0867 Q963.57 30.4061 963.57 42.3968 Q963.57 54.3469 969.08 60.7069 Q974.589 67.0263 984.959 67.0263 Q990.225 67.0263 994.884 65.1223 Q999.583 63.2184 1003.71 59.3701 L1003.71 67.9175 Q999.421 70.8341 994.6 72.2924 Q989.82 73.7508 984.473 73.7508 Q970.741 73.7508 962.841 65.3654 Q954.942 56.9395 954.942 42.3968 Q954.942 27.8135 962.841 19.4281 Q970.741 11.0023 984.473 11.0023 Q989.901 11.0023 994.681 12.4606 Q999.502 13.8784 1003.71 16.7545 Z" fill="#000000" fill-rule="nonzero" fill-opacity="1" /><path clip-path="url(#clip940)" d="M1057.59 63.9476 L1057.59 47.7034 L1044.22 47.7034 L1044.22 40.9789 L1065.69 40.9789 L1065.69 66.9452 Q1060.95 70.3075 1055.24 72.0494 Q1049.53 73.7508 1043.05 73.7508 Q1028.87 73.7508 1020.85 65.4869 Q1012.87 57.1826 1012.87 42.3968 Q1012.87 27.5705 1020.85 19.3066 Q1028.87 11.0023 1043.05 11.0023 Q1048.96 11.0023 1054.27 12.4606 Q1059.62 13.9189 1064.11 16.7545 L1064.11 25.464 Q1059.58 21.6156 1054.47 19.6712 Q1049.37 17.7268 1043.74 17.7268 Q1032.64 17.7268 1027.05 23.9246 Q1021.5 30.1225 1021.5 42.3968 Q1021.5 54.6305 1027.05 60.8284 Q1032.64 67.0263 1043.74 67.0263 Q1048.07 67.0263 1051.48 66.2971 Q1054.88 65.5274 1057.59 63.9476 Z" fill="#000000" fill-rule="nonzero" fill-opacity="1" /><path clip-path="url(#clip940)" d="M1088.42 65.6895 L1116.98 65.6895 L1116.98 72.576 L1078.58 72.576 L1078.58 65.6895 Q1083.23 60.8689 1091.25 52.7671 Q1099.32 44.6248 1101.38 42.2752 Q1105.31 37.8598 1106.85 34.8216 Q1108.43 31.7429 1108.43 28.7857 Q1108.43 23.9651 1105.03 20.927 Q1101.67 17.8888 1096.24 17.8888 Q1092.39 17.8888 1088.1 19.2256 Q1083.84 20.5624 1078.98 23.2765 L1078.98 15.0127 Q1083.92 13.0277 1088.22 12.015 Q1092.51 11.0023 1096.08 11.0023 Q1105.47 11.0023 1111.06 15.7013 Q1116.65 20.4004 1116.65 28.2591 Q1116.65 31.9859 1115.24 35.3482 Q1113.86 38.6699 1110.17 43.2069 Q1109.16 44.3817 1103.73 50.0125 Q1098.3 55.6027 1088.42 65.6895 Z" fill="#000000" fill-rule="nonzero" fill-opacity="1" /><path clip-path="url(#clip940)" d="M1151.65 17.4837 Q1145.33 17.4837 1142.13 23.7221 Q1138.97 29.92 1138.97 42.3968 Q1138.97 54.833 1142.13 61.0714 Q1145.33 67.2693 1151.65 67.2693 Q1158.01 67.2693 1161.17 61.0714 Q1164.37 54.833 1164.37 42.3968 Q1164.37 29.92 1161.17 23.7221 Q1158.01 17.4837 1151.65 17.4837 M1151.65 11.0023 Q1161.82 11.0023 1167.17 19.0636 Q1172.56 27.0843 1172.56 42.3968 Q1172.56 57.6687 1167.17 65.73 Q1161.82 73.7508 1151.65 73.7508 Q1141.49 73.7508 1136.1 65.73 Q1130.75 57.6687 1130.75 42.3968 Q1130.75 27.0843 1136.1 19.0636 Q1141.49 11.0023 1151.65 11.0023 Z" fill="#000000" fill-rule="nonzero" fill-opacity="1" /><path clip-path="url(#clip940)" d="M1204.44 17.4837 Q1198.12 17.4837 1194.92 23.7221 Q1191.76 29.92 1191.76 42.3968 Q1191.76 54.833 1194.92 61.0714 Q1198.12 67.2693 1204.44 67.2693 Q1210.8 67.2693 1213.96 61.0714 Q1217.16 54.833 1217.16 42.3968 Q1217.16 29.92 1213.96 23.7221 Q1210.8 17.4837 1204.44 17.4837 M1204.44 11.0023 Q1214.6 11.0023 1219.95 19.0636 Q1225.34 27.0843 1225.34 42.3968 Q1225.34 57.6687 1219.95 65.73 Q1214.6 73.7508 1204.44 73.7508 Q1194.27 73.7508 1188.88 65.73 Q1183.53 57.6687 1183.53 42.3968 Q1183.53 27.0843 1188.88 19.0636 Q1194.27 11.0023 1204.44 11.0023 Z" fill="#000000" fill-rule="nonzero" fill-opacity="1" /><path clip-path="url(#clip940)" d="M1285.58 20.1573 L1274.48 50.2555 L1296.72 50.2555 L1285.58 20.1573 M1280.96 12.096 L1290.24 12.096 L1313.28 72.576 L1304.78 72.576 L1299.27 57.061 L1272.01 57.061 L1266.5 72.576 L1257.87 72.576 L1280.96 12.096 Z" fill="#000000" fill-rule="nonzero" fill-opacity="1" /><path clip-path="url(#clip940)" d="M1352.98 28.9478 L1352.98 35.9153 Q1349.82 34.1734 1346.62 33.3227 Q1343.46 32.4315 1340.22 32.4315 Q1332.97 32.4315 1328.96 37.0496 Q1324.95 41.6271 1324.95 49.9314 Q1324.95 58.2358 1328.96 62.8538 Q1332.97 67.4314 1340.22 67.4314 Q1343.46 67.4314 1346.62 66.5807 Q1349.82 65.6895 1352.98 63.9476 L1352.98 70.8341 Q1349.86 72.2924 1346.5 73.0216 Q1343.18 73.7508 1339.41 73.7508 Q1329.16 73.7508 1323.13 67.3098 Q1317.09 60.8689 1317.09 49.9314 Q1317.09 38.832 1323.17 32.472 Q1329.29 26.1121 1339.9 26.1121 Q1343.34 26.1121 1346.62 26.8413 Q1349.91 27.5299 1352.98 28.9478 Z" fill="#000000" fill-rule="nonzero" fill-opacity="1" /><path clip-path="url(#clip940)" d="M1398.6 28.9478 L1398.6 35.9153 Q1395.44 34.1734 1392.24 33.3227 Q1389.08 32.4315 1385.84 32.4315 Q1378.59 32.4315 1374.58 37.0496 Q1370.56 41.6271 1370.56 49.9314 Q1370.56 58.2358 1374.58 62.8538 Q1378.59 67.4314 1385.84 67.4314 Q1389.08 67.4314 1392.24 66.5807 Q1395.44 65.6895 1398.6 63.9476 L1398.6 70.8341 Q1395.48 72.2924 1392.12 73.0216 Q1388.79 73.7508 1385.03 73.7508 Q1374.78 73.7508 1368.74 67.3098 Q1362.71 60.8689 1362.71 49.9314 Q1362.71 38.832 1368.78 32.472 Q1374.9 26.1121 1385.51 26.1121 Q1388.96 26.1121 1392.24 26.8413 Q1395.52 27.5299 1398.6 28.9478 Z" fill="#000000" fill-rule="nonzero" fill-opacity="1" /><path clip-path="url(#clip940)" d="M1410.79 54.671 L1410.79 27.2059 L1418.24 27.2059 L1418.24 54.3874 Q1418.24 60.8284 1420.76 64.0691 Q1423.27 67.2693 1428.29 67.2693 Q1434.33 67.2693 1437.81 63.421 Q1441.33 59.5726 1441.33 52.9291 L1441.33 27.2059 L1448.79 27.2059 L1448.79 72.576 L1441.33 72.576 L1441.33 65.6084 Q1438.62 69.7404 1435.01 71.7658 Q1431.45 73.7508 1426.71 73.7508 Q1418.89 73.7508 1414.84 68.8897 Q1410.79 64.0286 1410.79 54.671 M1429.55 26.1121 L1429.55 26.1121 Z" fill="#000000" fill-rule="nonzero" fill-opacity="1" /><path clip-path="url(#clip940)" d="M1490.43 34.1734 Q1489.18 33.4443 1487.68 33.1202 Q1486.22 32.7556 1484.44 32.7556 Q1478.12 32.7556 1474.71 36.8875 Q1471.35 40.9789 1471.35 48.6757 L1471.35 72.576 L1463.86 72.576 L1463.86 27.2059 L1471.35 27.2059 L1471.35 34.2544 Q1473.7 30.1225 1477.47 28.1376 Q1481.24 26.1121 1486.62 26.1121 Q1487.39 26.1121 1488.32 26.2337 Q1489.26 26.3147 1490.39 26.5172 L1490.43 34.1734 Z" fill="#000000" fill-rule="nonzero" fill-opacity="1" /><path clip-path="url(#clip940)" d="M1518.87 49.7694 Q1509.83 49.7694 1506.35 51.8354 Q1502.87 53.9013 1502.87 58.8839 Q1502.87 62.8538 1505.46 65.2034 Q1508.09 67.5124 1512.59 67.5124 Q1518.79 67.5124 1522.51 63.1374 Q1526.28 58.7219 1526.28 51.4303 L1526.28 49.7694 L1518.87 49.7694 M1533.74 46.6907 L1533.74 72.576 L1526.28 72.576 L1526.28 65.6895 Q1523.73 69.8214 1519.92 71.8063 Q1516.11 73.7508 1510.6 73.7508 Q1503.64 73.7508 1499.51 69.8619 Q1495.41 65.9325 1495.41 59.3701 Q1495.41 51.7138 1500.52 47.825 Q1505.66 43.9361 1515.83 43.9361 L1526.28 43.9361 L1526.28 43.2069 Q1526.28 38.0623 1522.88 35.2672 Q1519.52 32.4315 1513.4 32.4315 Q1509.51 32.4315 1505.82 33.3632 Q1502.14 34.295 1498.74 36.1584 L1498.74 29.2718 Q1502.83 27.692 1506.68 26.9223 Q1510.52 26.1121 1514.17 26.1121 Q1524.01 26.1121 1528.87 31.2163 Q1533.74 36.3204 1533.74 46.6907 Z" fill="#000000" fill-rule="nonzero" fill-opacity="1" /><path clip-path="url(#clip940)" d="M1581.74 28.9478 L1581.74 35.9153 Q1578.58 34.1734 1575.38 33.3227 Q1572.22 32.4315 1568.98 32.4315 Q1561.73 32.4315 1557.72 37.0496 Q1553.71 41.6271 1553.71 49.9314 Q1553.71 58.2358 1557.72 62.8538 Q1561.73 67.4314 1568.98 67.4314 Q1572.22 67.4314 1575.38 66.5807 Q1578.58 65.6895 1581.74 63.9476 L1581.74 70.8341 Q1578.62 72.2924 1575.26 73.0216 Q1571.94 73.7508 1568.17 73.7508 Q1557.92 73.7508 1551.88 67.3098 Q1545.85 60.8689 1545.85 49.9314 Q1545.85 38.832 1551.92 32.472 Q1558.04 26.1121 1568.65 26.1121 Q1572.1 26.1121 1575.38 26.8413 Q1578.66 27.5299 1581.74 28.9478 Z" fill="#000000" fill-rule="nonzero" fill-opacity="1" /><path clip-path="url(#clip940)" d="M1613.58 76.7889 Q1610.42 84.8907 1607.42 87.3618 Q1604.42 89.8329 1599.4 89.8329 L1593.45 89.8329 L1593.45 83.5945 L1597.82 83.5945 Q1600.9 83.5945 1602.6 82.1361 Q1604.3 80.6778 1606.37 75.2496 L1607.7 71.8468 L1589.35 27.2059 L1597.25 27.2059 L1611.43 62.6918 L1625.61 27.2059 L1633.51 27.2059 L1613.58 76.7889 Z" fill="#000000" fill-rule="nonzero" fill-opacity="1" /><path clip-path="url(#clip942)" d="M305.894 577.797 L305.894 10573 L711.731 10573 L711.731 577.797 L305.894 577.797 L305.894 577.797  Z" fill="#009af9" fill-rule="evenodd" fill-opacity="1"/>
<polyline clip-path="url(#clip942)" style="stroke:#000000; stroke-linecap:round; stroke-linejoin:round; stroke-width:4; stroke-opacity:1; fill:none" points="305.894,577.797 305.894,10573 711.731,10573 711.731,577.797 305.894,577.797 "/>
<path clip-path="url(#clip942)" d="M813.191 498.29 L813.191 10573 L1219.03 10573 L1219.03 498.29 L813.191 498.29 L813.191 498.29  Z" fill="#009af9" fill-rule="evenodd" fill-opacity="1"/>
<polyline clip-path="url(#clip942)" style="stroke:#000000; stroke-linecap:round; stroke-linejoin:round; stroke-width:4; stroke-opacity:1; fill:none" points="813.191,498.29 813.191,10573 1219.03,10573 1219.03,498.29 813.191,498.29 "/>
<path clip-path="url(#clip942)" d="M1320.49 475.574 L1320.49 10573 L1726.33 10573 L1726.33 475.574 L1320.49 475.574 L1320.49 475.574  Z" fill="#009af9" fill-rule="evenodd" fill-opacity="1"/>
<polyline clip-path="url(#clip942)" style="stroke:#000000; stroke-linecap:round; stroke-linejoin:round; stroke-width:4; stroke-opacity:1; fill:none" points="1320.49,475.574 1320.49,10573 1726.33,10573 1726.33,475.574 1320.49,475.574 "/>
<path clip-path="url(#clip942)" d="M1827.78 384.709 L1827.78 10573 L2233.62 10573 L2233.62 384.709 L1827.78 384.709 L1827.78 384.709  Z" fill="#009af9" fill-rule="evenodd" fill-opacity="1"/>
<polyline clip-path="url(#clip942)" style="stroke:#000000; stroke-linecap:round; stroke-linejoin:round; stroke-width:4; stroke-opacity:1; fill:none" points="1827.78,384.709 1827.78,10573 2233.62,10573 2233.62,384.709 1827.78,384.709 "/>
<circle clip-path="url(#clip942)" style="fill:#009af9; stroke:none; fill-opacity:0" cx="508.813" cy="577.797" r="2"/>
<circle clip-path="url(#clip942)" style="fill:#009af9; stroke:none; fill-opacity:0" cx="1016.11" cy="498.29" r="2"/>
<circle clip-path="url(#clip942)" style="fill:#009af9; stroke:none; fill-opacity:0" cx="1523.41" cy="475.574" r="2"/>
<circle clip-path="url(#clip942)" style="fill:#009af9; stroke:none; fill-opacity:0" cx="2030.7" cy="384.709" r="2"/>
<polyline clip-path="url(#clip942)" style="stroke:#000000; stroke-linecap:round; stroke-linejoin:round; stroke-width:4; stroke-opacity:1; fill:none" points="508.813,577.797 508.813,577.797 "/>
<polyline clip-path="url(#clip942)" style="stroke:#000000; stroke-linecap:round; stroke-linejoin:round; stroke-width:4; stroke-opacity:1; fill:none" points="1016.11,560.502 1016.11,436.079 "/>
<polyline clip-path="url(#clip942)" style="stroke:#000000; stroke-linecap:round; stroke-linejoin:round; stroke-width:4; stroke-opacity:1; fill:none" points="1523.41,475.574 1523.41,475.574 "/>
<polyline clip-path="url(#clip942)" style="stroke:#000000; stroke-linecap:round; stroke-linejoin:round; stroke-width:4; stroke-opacity:1; fill:none" points="2030.7,384.709 2030.7,384.709 "/>
<line clip-path="url(#clip942)" x1="524.813" y1="577.797" x2="492.813" y2="577.797" style="stroke:#000000; stroke-width:4; stroke-opacity:1"/>
<line clip-path="url(#clip942)" x1="524.813" y1="577.797" x2="492.813" y2="577.797" style="stroke:#000000; stroke-width:4; stroke-opacity:1"/>
<line clip-path="url(#clip942)" x1="1032.11" y1="560.502" x2="1000.11" y2="560.502" style="stroke:#000000; stroke-width:4; stroke-opacity:1"/>
<line clip-path="url(#clip942)" x1="1032.11" y1="436.079" x2="1000.11" y2="436.079" style="stroke:#000000; stroke-width:4; stroke-opacity:1"/>
<line clip-path="url(#clip942)" x1="1539.41" y1="475.574" x2="1507.41" y2="475.574" style="stroke:#000000; stroke-width:4; stroke-opacity:1"/>
<line clip-path="url(#clip942)" x1="1539.41" y1="475.574" x2="1507.41" y2="475.574" style="stroke:#000000; stroke-width:4; stroke-opacity:1"/>
<line clip-path="url(#clip942)" x1="2046.7" y1="384.709" x2="2014.7" y2="384.709" style="stroke:#000000; stroke-width:4; stroke-opacity:1"/>
<line clip-path="url(#clip942)" x1="2046.7" y1="384.709" x2="2014.7" y2="384.709" style="stroke:#000000; stroke-width:4; stroke-opacity:1"/>
</svg>
