<?xml version="1.0" encoding="utf-8"?>
<svg xmlns="http://www.w3.org/2000/svg" xmlns:xlink="http://www.w3.org/1999/xlink" width="600" height="400" viewBox="0 0 2400 1600">
<defs>
  <clipPath id="clip680">
    <rect x="0" y="0" width="2400" height="1600"/>
  </clipPath>
</defs>
<path clip-path="url(#clip680)" d="M0 1600 L2400 1600 L2400 0 L0 0  Z" fill="#ffffff" fill-rule="evenodd" fill-opacity="1"/>
<defs>
  <clipPath id="clip681">
    <rect x="480" y="0" width="1681" height="1600"/>
  </clipPath>
</defs>
<path clip-path="url(#clip680)" d="M186.76 1486.45 L2352.76 1486.45 L2352.76 123.472 L186.76 123.472  Z" fill="#ffffff" fill-rule="evenodd" fill-opacity="1"/>
<defs>
  <clipPath id="clip682">
    <rect x="186" y="123" width="2167" height="1364"/>
  </clipPath>
</defs>
<polyline clip-path="url(#clip682)" style="stroke:#000000; stroke-linecap:round; stroke-linejoin:round; stroke-width:2; stroke-opacity:0.1; fill:none" points="508.813,1486.45 508.813,123.472 "/>
<polyline clip-path="url(#clip682)" style="stroke:#000000; stroke-linecap:round; stroke-linejoin:round; stroke-width:2; stroke-opacity:0.1; fill:none" points="1016.11,1486.45 1016.11,123.472 "/>
<polyline clip-path="url(#clip682)" style="stroke:#000000; stroke-linecap:round; stroke-linejoin:round; stroke-width:2; stroke-opacity:0.1; fill:none" points="1523.41,1486.45 1523.41,123.472 "/>
<polyline clip-path="url(#clip682)" style="stroke:#000000; stroke-linecap:round; stroke-linejoin:round; stroke-width:2; stroke-opacity:0.1; fill:none" points="2030.7,1486.45 2030.7,123.472 "/>
<polyline clip-path="url(#clip680)" style="stroke:#000000; stroke-linecap:round; stroke-linejoin:round; stroke-width:4; stroke-opacity:1; fill:none" points="186.76,1486.45 2352.76,1486.45 "/>
<polyline clip-path="url(#clip680)" style="stroke:#000000; stroke-linecap:round; stroke-linejoin:round; stroke-width:4; stroke-opacity:1; fill:none" points="508.813,1486.45 508.813,1467.55 "/>
<polyline clip-path="url(#clip680)" style="stroke:#000000; stroke-linecap:round; stroke-linejoin:round; stroke-width:4; stroke-opacity:1; fill:none" points="1016.11,1486.45 1016.11,1467.55 "/>
<polyline clip-path="url(#clip680)" style="stroke:#000000; stroke-linecap:round; stroke-linejoin:round; stroke-width:4; stroke-opacity:1; fill:none" points="1523.41,1486.45 1523.41,1467.55 "/>
<polyline clip-path="url(#clip680)" style="stroke:#000000; stroke-linecap:round; stroke-linejoin:round; stroke-width:4; stroke-opacity:1; fill:none" points="2030.7,1486.45 2030.7,1467.55 "/>
<path clip-path="url(#clip680)" d="M463.871 1544.91 L471.509 1544.91 L471.509 1518.55 L463.199 1520.21 L463.199 1515.95 L471.463 1514.29 L476.139 1514.29 L476.139 1544.91 L483.778 1544.91 L483.778 1548.85 L463.871 1548.85 L463.871 1544.91 Z" fill="#000000" fill-rule="nonzero" fill-opacity="1" /><path clip-path="url(#clip680)" d="M492.806 1514.29 L499.102 1514.29 L514.426 1543.2 L514.426 1514.29 L518.963 1514.29 L518.963 1548.85 L512.667 1548.85 L497.343 1519.94 L497.343 1548.85 L492.806 1548.85 L492.806 1514.29 Z" fill="#000000" fill-rule="nonzero" fill-opacity="1" /><path clip-path="url(#clip680)" d="M528.268 1514.29 L534.565 1514.29 L549.889 1543.2 L549.889 1514.29 L554.426 1514.29 L554.426 1548.85 L548.129 1548.85 L532.805 1519.94 L532.805 1548.85 L528.268 1548.85 L528.268 1514.29 Z" fill="#000000" fill-rule="nonzero" fill-opacity="1" /><path clip-path="url(#clip680)" d="M851.608 1514.29 L856.284 1514.29 L856.284 1548.85 L851.608 1548.85 L851.608 1514.29 Z" fill="#000000" fill-rule="nonzero" fill-opacity="1" /><path clip-path="url(#clip680)" d="M886.955 1533.2 L886.955 1548.85 L882.696 1548.85 L882.696 1533.34 Q882.696 1529.66 881.261 1527.83 Q879.826 1526 876.955 1526 Q873.506 1526 871.515 1528.2 Q869.525 1530.4 869.525 1534.2 L869.525 1548.85 L865.242 1548.85 L865.242 1522.92 L869.525 1522.92 L869.525 1526.95 Q871.052 1524.61 873.113 1523.45 Q875.196 1522.3 877.904 1522.3 Q882.372 1522.3 884.663 1525.07 Q886.955 1527.83 886.955 1533.2 Z" fill="#000000" fill-rule="nonzero" fill-opacity="1" /><path clip-path="url(#clip680)" d="M914.108 1523.92 L914.108 1527.9 Q912.302 1526.9 910.474 1526.42 Q908.668 1525.91 906.816 1525.91 Q902.673 1525.91 900.381 1528.55 Q898.089 1531.16 898.089 1535.91 Q898.089 1540.65 900.381 1543.29 Q902.673 1545.91 906.816 1545.91 Q908.668 1545.91 910.474 1545.42 Q912.302 1544.91 914.108 1543.92 L914.108 1547.85 Q912.325 1548.69 910.404 1549.1 Q908.506 1549.52 906.353 1549.52 Q900.497 1549.52 897.048 1545.84 Q893.599 1542.16 893.599 1535.91 Q893.599 1529.57 897.071 1525.93 Q900.566 1522.3 906.631 1522.3 Q908.599 1522.3 910.474 1522.71 Q912.348 1523.11 914.108 1523.92 Z" fill="#000000" fill-rule="nonzero" fill-opacity="1" /><path clip-path="url(#clip680)" d="M943.691 1534.82 L943.691 1536.9 L924.108 1536.9 Q924.385 1541.3 926.747 1543.62 Q929.131 1545.91 933.367 1545.91 Q935.821 1545.91 938.112 1545.31 Q940.427 1544.7 942.696 1543.5 L942.696 1547.53 Q940.404 1548.5 937.997 1549.01 Q935.589 1549.52 933.112 1549.52 Q926.909 1549.52 923.274 1545.91 Q919.663 1542.3 919.663 1536.14 Q919.663 1529.77 923.089 1526.05 Q926.538 1522.3 932.372 1522.3 Q937.603 1522.3 940.635 1525.68 Q943.691 1529.03 943.691 1534.82 M939.432 1533.57 Q939.385 1530.07 937.464 1527.99 Q935.566 1525.91 932.418 1525.91 Q928.853 1525.91 926.7 1527.92 Q924.571 1529.94 924.247 1533.59 L939.432 1533.57 Z" fill="#000000" fill-rule="nonzero" fill-opacity="1" /><path clip-path="url(#clip680)" d="M954.802 1544.96 L954.802 1558.71 L950.52 1558.71 L950.52 1522.92 L954.802 1522.92 L954.802 1526.86 Q956.145 1524.54 958.182 1523.43 Q960.242 1522.3 963.089 1522.3 Q967.811 1522.3 970.751 1526.05 Q973.714 1529.8 973.714 1535.91 Q973.714 1542.02 970.751 1545.77 Q967.811 1549.52 963.089 1549.52 Q960.242 1549.52 958.182 1548.41 Q956.145 1547.27 954.802 1544.96 M969.293 1535.91 Q969.293 1531.21 967.348 1528.55 Q965.427 1525.86 962.047 1525.86 Q958.668 1525.86 956.723 1528.55 Q954.802 1531.21 954.802 1535.91 Q954.802 1540.61 956.723 1543.29 Q958.668 1545.95 962.047 1545.95 Q965.427 1545.95 967.348 1543.29 Q969.293 1540.61 969.293 1535.91 Z" fill="#000000" fill-rule="nonzero" fill-opacity="1" /><path clip-path="url(#clip680)" d="M984.987 1515.56 L984.987 1522.92 L993.76 1522.92 L993.76 1526.23 L984.987 1526.23 L984.987 1540.31 Q984.987 1543.48 985.843 1544.38 Q986.723 1545.28 989.385 1545.28 L993.76 1545.28 L993.76 1548.85 L989.385 1548.85 Q984.455 1548.85 982.58 1547.02 Q980.705 1545.17 980.705 1540.31 L980.705 1526.23 L977.58 1526.23 L977.58 1522.92 L980.705 1522.92 L980.705 1515.56 L984.987 1515.56 Z" fill="#000000" fill-rule="nonzero" fill-opacity="1" /><path clip-path="url(#clip680)" d="M999.362 1522.92 L1003.62 1522.92 L1003.62 1548.85 L999.362 1548.85 L999.362 1522.92 M999.362 1512.83 L1003.62 1512.83 L1003.62 1518.22 L999.362 1518.22 L999.362 1512.83 Z" fill="#000000" fill-rule="nonzero" fill-opacity="1" /><path clip-path="url(#clip680)" d="M1022.58 1525.91 Q1019.15 1525.91 1017.16 1528.59 Q1015.17 1531.26 1015.17 1535.91 Q1015.17 1540.56 1017.14 1543.25 Q1019.13 1545.91 1022.58 1545.91 Q1025.98 1545.91 1027.97 1543.22 Q1029.96 1540.54 1029.96 1535.91 Q1029.96 1531.3 1027.97 1528.62 Q1025.98 1525.91 1022.58 1525.91 M1022.58 1522.3 Q1028.13 1522.3 1031.31 1525.91 Q1034.48 1529.52 1034.48 1535.91 Q1034.48 1542.27 1031.31 1545.91 Q1028.13 1549.52 1022.58 1549.52 Q1017 1549.52 1013.83 1545.91 Q1010.68 1542.27 1010.68 1535.91 Q1010.68 1529.52 1013.83 1525.91 Q1017 1522.3 1022.58 1522.3 Z" fill="#000000" fill-rule="nonzero" fill-opacity="1" /><path clip-path="url(#clip680)" d="M1063.09 1533.2 L1063.09 1548.85 L1058.83 1548.85 L1058.83 1533.34 Q1058.83 1529.66 1057.39 1527.83 Q1055.96 1526 1053.09 1526 Q1049.64 1526 1047.65 1528.2 Q1045.66 1530.4 1045.66 1534.2 L1045.66 1548.85 L1041.38 1548.85 L1041.38 1522.92 L1045.66 1522.92 L1045.66 1526.95 Q1047.19 1524.61 1049.25 1523.45 Q1051.33 1522.3 1054.04 1522.3 Q1058.51 1522.3 1060.8 1525.07 Q1063.09 1527.83 1063.09 1533.2 Z" fill="#000000" fill-rule="nonzero" fill-opacity="1" /><path clip-path="url(#clip680)" d="M1066.98 1514.29 L1096.21 1514.29 L1096.21 1518.22 L1083.94 1518.22 L1083.94 1548.85 L1079.25 1548.85 L1079.25 1518.22 L1066.98 1518.22 L1066.98 1514.29 Z" fill="#000000" fill-rule="nonzero" fill-opacity="1" /><path clip-path="url(#clip680)" d="M1099.08 1522.92 L1103.34 1522.92 L1103.34 1548.85 L1099.08 1548.85 L1099.08 1522.92 M1099.08 1512.83 L1103.34 1512.83 L1103.34 1518.22 L1099.08 1518.22 L1099.08 1512.83 Z" fill="#000000" fill-rule="nonzero" fill-opacity="1" /><path clip-path="url(#clip680)" d="M1132.44 1527.9 Q1134.04 1525.03 1136.26 1523.66 Q1138.48 1522.3 1141.49 1522.3 Q1145.54 1522.3 1147.74 1525.14 Q1149.94 1527.97 1149.94 1533.2 L1149.94 1548.85 L1145.66 1548.85 L1145.66 1533.34 Q1145.66 1529.61 1144.34 1527.81 Q1143.02 1526 1140.31 1526 Q1137 1526 1135.08 1528.2 Q1133.16 1530.4 1133.16 1534.2 L1133.16 1548.85 L1128.88 1548.85 L1128.88 1533.34 Q1128.88 1529.59 1127.56 1527.81 Q1126.24 1526 1123.48 1526 Q1120.22 1526 1118.3 1528.22 Q1116.38 1530.42 1116.38 1534.2 L1116.38 1548.85 L1112.09 1548.85 L1112.09 1522.92 L1116.38 1522.92 L1116.38 1526.95 Q1117.83 1524.57 1119.87 1523.43 Q1121.91 1522.3 1124.71 1522.3 Q1127.53 1522.3 1129.5 1523.73 Q1131.49 1525.17 1132.44 1527.9 Z" fill="#000000" fill-rule="nonzero" fill-opacity="1" /><path clip-path="url(#clip680)" d="M1180.61 1534.82 L1180.61 1536.9 L1161.03 1536.9 Q1161.31 1541.3 1163.67 1543.62 Q1166.05 1545.91 1170.29 1545.91 Q1172.74 1545.91 1175.03 1545.31 Q1177.35 1544.7 1179.62 1543.5 L1179.62 1547.53 Q1177.32 1548.5 1174.92 1549.01 Q1172.51 1549.52 1170.03 1549.52 Q1163.83 1549.52 1160.19 1545.91 Q1156.58 1542.3 1156.58 1536.14 Q1156.58 1529.77 1160.01 1526.05 Q1163.46 1522.3 1169.29 1522.3 Q1174.52 1522.3 1177.56 1525.68 Q1180.61 1529.03 1180.61 1534.82 M1176.35 1533.57 Q1176.31 1530.07 1174.38 1527.99 Q1172.49 1525.91 1169.34 1525.91 Q1165.77 1525.91 1163.62 1527.92 Q1161.49 1529.94 1161.17 1533.59 L1176.35 1533.57 Z" fill="#000000" fill-rule="nonzero" fill-opacity="1" /><path clip-path="url(#clip680)" d="M1478.65 1514.29 L1483.33 1514.29 L1483.33 1528.45 L1500.32 1528.45 L1500.32 1514.29 L1504.99 1514.29 L1504.99 1548.85 L1500.32 1548.85 L1500.32 1532.39 L1483.33 1532.39 L1483.33 1548.85 L1478.65 1548.85 L1478.65 1514.29 Z" fill="#000000" fill-rule="nonzero" fill-opacity="1" /><path clip-path="url(#clip680)" d="M1540.18 1516.95 L1540.18 1521.88 Q1537.82 1519.68 1535.13 1518.59 Q1532.47 1517.51 1529.46 1517.51 Q1523.53 1517.51 1520.39 1521.14 Q1517.24 1524.75 1517.24 1531.6 Q1517.24 1538.43 1520.39 1542.07 Q1523.53 1545.68 1529.46 1545.68 Q1532.47 1545.68 1535.13 1544.59 Q1537.82 1543.5 1540.18 1541.3 L1540.18 1546.19 Q1537.72 1547.85 1534.97 1548.69 Q1532.24 1549.52 1529.18 1549.52 Q1521.33 1549.52 1516.82 1544.73 Q1512.31 1539.91 1512.31 1531.6 Q1512.31 1523.27 1516.82 1518.48 Q1521.33 1513.66 1529.18 1513.66 Q1532.28 1513.66 1535.02 1514.5 Q1537.77 1515.31 1540.18 1516.95 Z" fill="#000000" fill-rule="nonzero" fill-opacity="1" /><path clip-path="url(#clip680)" d="M1551.84 1544.91 L1568.16 1544.91 L1568.16 1548.85 L1546.22 1548.85 L1546.22 1544.91 Q1548.88 1542.16 1553.46 1537.53 Q1558.07 1532.88 1559.25 1531.53 Q1561.5 1529.01 1562.38 1527.27 Q1563.28 1525.51 1563.28 1523.82 Q1563.28 1521.07 1561.33 1519.33 Q1559.41 1517.6 1556.31 1517.6 Q1554.11 1517.6 1551.66 1518.36 Q1549.23 1519.13 1546.45 1520.68 L1546.45 1515.95 Q1549.27 1514.82 1551.73 1514.24 Q1554.18 1513.66 1556.22 1513.66 Q1561.59 1513.66 1564.78 1516.35 Q1567.98 1519.03 1567.98 1523.52 Q1567.98 1525.65 1567.17 1527.57 Q1566.38 1529.47 1564.27 1532.07 Q1563.7 1532.74 1560.59 1535.95 Q1557.49 1539.15 1551.84 1544.91 Z" fill="#000000" fill-rule="nonzero" fill-opacity="1" /><path clip-path="url(#clip680)" d="M1984.56 1514.29 L1991.53 1514.29 L2000.34 1537.81 L2009.21 1514.29 L2016.18 1514.29 L2016.18 1548.85 L2011.62 1548.85 L2011.62 1518.5 L2002.71 1542.2 L1998.01 1542.2 L1989.09 1518.5 L1989.09 1548.85 L1984.56 1548.85 L1984.56 1514.29 Z" fill="#000000" fill-rule="nonzero" fill-opacity="1" /><path clip-path="url(#clip680)" d="M2030.14 1518.13 L2030.14 1531.12 L2036.02 1531.12 Q2039.28 1531.12 2041.06 1529.43 Q2042.84 1527.74 2042.84 1524.61 Q2042.84 1521.51 2041.06 1519.82 Q2039.28 1518.13 2036.02 1518.13 L2030.14 1518.13 M2025.46 1514.29 L2036.02 1514.29 Q2041.83 1514.29 2044.79 1516.93 Q2047.78 1519.54 2047.78 1524.61 Q2047.78 1529.73 2044.79 1532.34 Q2041.83 1534.96 2036.02 1534.96 L2030.14 1534.96 L2030.14 1548.85 L2025.46 1548.85 L2025.46 1514.29 Z" fill="#000000" fill-rule="nonzero" fill-opacity="1" /><path clip-path="url(#clip680)" d="M2074.77 1515.42 L2074.77 1519.98 Q2072.1 1518.71 2069.74 1518.08 Q2067.38 1517.46 2065.18 1517.46 Q2061.36 1517.46 2059.28 1518.94 Q2057.22 1520.42 2057.22 1523.15 Q2057.22 1525.45 2058.59 1526.63 Q2059.97 1527.78 2063.82 1528.5 L2066.64 1529.08 Q2071.87 1530.07 2074.35 1532.6 Q2076.85 1535.1 2076.85 1539.31 Q2076.85 1544.33 2073.47 1546.93 Q2070.11 1549.52 2063.61 1549.52 Q2061.15 1549.52 2058.38 1548.96 Q2055.62 1548.41 2052.66 1547.32 L2052.66 1542.51 Q2055.51 1544.1 2058.24 1544.91 Q2060.97 1545.72 2063.61 1545.72 Q2067.61 1545.72 2069.79 1544.15 Q2071.96 1542.57 2071.96 1539.66 Q2071.96 1537.11 2070.39 1535.68 Q2068.84 1534.24 2065.28 1533.52 L2062.43 1532.97 Q2057.2 1531.93 2054.86 1529.7 Q2052.52 1527.48 2052.52 1523.52 Q2052.52 1518.94 2055.74 1516.3 Q2058.98 1513.66 2064.65 1513.66 Q2067.08 1513.66 2069.6 1514.1 Q2072.13 1514.54 2074.77 1515.42 Z" fill="#000000" fill-rule="nonzero" fill-opacity="1" /><polyline clip-path="url(#clip682)" style="stroke:#000000; stroke-linecap:round; stroke-linejoin:round; stroke-width:2; stroke-opacity:0.1; fill:none" points="186.76,1486.45 2352.76,1486.45 "/>
<polyline clip-path="url(#clip682)" style="stroke:#000000; stroke-linecap:round; stroke-linejoin:round; stroke-width:2; stroke-opacity:0.1; fill:none" points="186.76,1213.85 2352.76,1213.85 "/>
<polyline clip-path="url(#clip682)" style="stroke:#000000; stroke-linecap:round; stroke-linejoin:round; stroke-width:2; stroke-opacity:0.1; fill:none" points="186.76,941.258 2352.76,941.258 "/>
<polyline clip-path="url(#clip682)" style="stroke:#000000; stroke-linecap:round; stroke-linejoin:round; stroke-width:2; stroke-opacity:0.1; fill:none" points="186.76,668.662 2352.76,668.662 "/>
<polyline clip-path="url(#clip682)" style="stroke:#000000; stroke-linecap:round; stroke-linejoin:round; stroke-width:2; stroke-opacity:0.1; fill:none" points="186.76,396.067 2352.76,396.067 "/>
<polyline clip-path="url(#clip680)" style="stroke:#000000; stroke-linecap:round; stroke-linejoin:round; stroke-width:4; stroke-opacity:1; fill:none" points="186.76,1486.45 186.76,123.472 "/>
<polyline clip-path="url(#clip680)" style="stroke:#000000; stroke-linecap:round; stroke-linejoin:round; stroke-width:4; stroke-opacity:1; fill:none" points="186.76,1486.45 205.658,1486.45 "/>
<polyline clip-path="url(#clip680)" style="stroke:#000000; stroke-linecap:round; stroke-linejoin:round; stroke-width:4; stroke-opacity:1; fill:none" points="186.76,1213.85 205.658,1213.85 "/>
<polyline clip-path="url(#clip680)" style="stroke:#000000; stroke-linecap:round; stroke-linejoin:round; stroke-width:4; stroke-opacity:1; fill:none" points="186.76,941.258 205.658,941.258 "/>
<polyline clip-path="url(#clip680)" style="stroke:#000000; stroke-linecap:round; stroke-linejoin:round; stroke-width:4; stroke-opacity:1; fill:none" points="186.76,668.662 205.658,668.662 "/>
<polyline clip-path="url(#clip680)" style="stroke:#000000; stroke-linecap:round; stroke-linejoin:round; stroke-width:4; stroke-opacity:1; fill:none" points="186.76,396.067 205.658,396.067 "/>
<path clip-path="url(#clip680)" d="M63.4226 1472.25 Q59.8115 1472.25 57.9828 1475.81 Q56.1773 1479.35 56.1773 1486.48 Q56.1773 1493.59 57.9828 1497.15 Q59.8115 1500.7 63.4226 1500.7 Q67.0569 1500.7 68.8624 1497.15 Q70.6911 1493.59 70.6911 1486.48 Q70.6911 1479.35 68.8624 1475.81 Q67.0569 1472.25 63.4226 1472.25 M63.4226 1468.54 Q69.2328 1468.54 72.2883 1473.15 Q75.367 1477.73 75.367 1486.48 Q75.367 1495.21 72.2883 1499.82 Q69.2328 1504.4 63.4226 1504.4 Q57.6125 1504.4 54.5338 1499.82 Q51.4782 1495.21 51.4782 1486.48 Q51.4782 1477.73 54.5338 1473.15 Q57.6125 1468.54 63.4226 1468.54 Z" fill="#000000" fill-rule="nonzero" fill-opacity="1" /><path clip-path="url(#clip680)" d="M83.5845 1497.85 L88.4688 1497.85 L88.4688 1503.73 L83.5845 1503.73 L83.5845 1497.85 Z" fill="#000000" fill-rule="nonzero" fill-opacity="1" /><path clip-path="url(#clip680)" d="M98.7928 1503.01 L98.7928 1498.75 Q100.552 1499.58 102.358 1500.02 Q104.163 1500.46 105.899 1500.46 Q110.529 1500.46 112.959 1497.36 Q115.413 1494.24 115.76 1487.89 Q114.418 1489.89 112.358 1490.95 Q110.297 1492.01 107.797 1492.01 Q102.612 1492.01 99.5798 1488.89 Q96.5706 1485.74 96.5706 1480.3 Q96.5706 1474.98 99.7187 1471.76 Q102.867 1468.54 108.098 1468.54 Q114.094 1468.54 117.242 1473.15 Q120.413 1477.73 120.413 1486.48 Q120.413 1494.65 116.524 1499.54 Q112.658 1504.4 106.108 1504.4 Q104.348 1504.4 102.543 1504.05 Q100.737 1503.7 98.7928 1503.01 M108.098 1488.36 Q111.246 1488.36 113.075 1486.2 Q114.927 1484.05 114.927 1480.3 Q114.927 1476.58 113.075 1474.42 Q111.246 1472.25 108.098 1472.25 Q104.95 1472.25 103.098 1474.42 Q101.27 1476.58 101.27 1480.3 Q101.27 1484.05 103.098 1486.2 Q104.95 1488.36 108.098 1488.36 Z" fill="#000000" fill-rule="nonzero" fill-opacity="1" /><path clip-path="url(#clip680)" d="M138.816 1472.25 Q135.205 1472.25 133.376 1475.81 Q131.57 1479.35 131.57 1486.48 Q131.57 1493.59 133.376 1497.15 Q135.205 1500.7 138.816 1500.7 Q142.45 1500.7 144.256 1497.15 Q146.084 1493.59 146.084 1486.48 Q146.084 1479.35 144.256 1475.81 Q142.45 1472.25 138.816 1472.25 M138.816 1468.54 Q144.626 1468.54 147.681 1473.15 Q150.76 1477.73 150.76 1486.48 Q150.76 1495.21 147.681 1499.82 Q144.626 1504.4 138.816 1504.4 Q133.006 1504.4 129.927 1499.82 Q126.871 1495.21 126.871 1486.48 Q126.871 1477.73 129.927 1473.15 Q133.006 1468.54 138.816 1468.54 Z" fill="#000000" fill-rule="nonzero" fill-opacity="1" /><path clip-path="url(#clip680)" d="M65.0198 1199.65 Q61.4087 1199.65 59.58 1203.22 Q57.7745 1206.76 57.7745 1213.89 Q57.7745 1220.99 59.58 1224.56 Q61.4087 1228.1 65.0198 1228.1 Q68.6541 1228.1 70.4596 1224.56 Q72.2883 1220.99 72.2883 1213.89 Q72.2883 1206.76 70.4596 1203.22 Q68.6541 1199.65 65.0198 1199.65 M65.0198 1195.95 Q70.83 1195.95 73.8855 1200.55 Q76.9642 1205.14 76.9642 1213.89 Q76.9642 1222.61 73.8855 1227.22 Q70.83 1231.8 65.0198 1231.8 Q59.2097 1231.8 56.131 1227.22 Q53.0754 1222.61 53.0754 1213.89 Q53.0754 1205.14 56.131 1200.55 Q59.2097 1195.95 65.0198 1195.95 Z" fill="#000000" fill-rule="nonzero" fill-opacity="1" /><path clip-path="url(#clip680)" d="M85.1818 1225.25 L90.066 1225.25 L90.066 1231.13 L85.1818 1231.13 L85.1818 1225.25 Z" fill="#000000" fill-rule="nonzero" fill-opacity="1" /><path clip-path="url(#clip680)" d="M100.39 1230.42 L100.39 1226.16 Q102.149 1226.99 103.955 1227.43 Q105.76 1227.87 107.496 1227.87 Q112.126 1227.87 114.557 1224.77 Q117.01 1221.64 117.358 1215.3 Q116.015 1217.29 113.955 1218.36 Q111.895 1219.42 109.395 1219.42 Q104.209 1219.42 101.177 1216.29 Q98.1678 1213.15 98.1678 1207.71 Q98.1678 1202.38 101.316 1199.17 Q104.464 1195.95 109.696 1195.95 Q115.691 1195.95 118.839 1200.55 Q122.01 1205.14 122.01 1213.89 Q122.01 1222.06 118.121 1226.94 Q114.256 1231.8 107.705 1231.8 Q105.946 1231.8 104.14 1231.46 Q102.334 1231.11 100.39 1230.42 M109.696 1215.76 Q112.844 1215.76 114.672 1213.61 Q116.524 1211.46 116.524 1207.71 Q116.524 1203.98 114.672 1201.83 Q112.844 1199.65 109.696 1199.65 Q106.547 1199.65 104.696 1201.83 Q102.867 1203.98 102.867 1207.71 Q102.867 1211.46 104.696 1213.61 Q106.547 1215.76 109.696 1215.76 Z" fill="#000000" fill-rule="nonzero" fill-opacity="1" /><path clip-path="url(#clip680)" d="M134.441 1227.2 L150.76 1227.2 L150.76 1231.13 L128.816 1231.13 L128.816 1227.2 Q131.478 1224.44 136.061 1219.81 Q140.668 1215.16 141.848 1213.82 Q144.093 1211.29 144.973 1209.56 Q145.876 1207.8 145.876 1206.11 Q145.876 1203.36 143.931 1201.62 Q142.01 1199.88 138.908 1199.88 Q136.709 1199.88 134.256 1200.65 Q131.825 1201.41 129.047 1202.96 L129.047 1198.24 Q131.871 1197.11 134.325 1196.53 Q136.779 1195.95 138.816 1195.95 Q144.186 1195.95 147.38 1198.63 Q150.575 1201.32 150.575 1205.81 Q150.575 1207.94 149.765 1209.86 Q148.978 1211.76 146.871 1214.35 Q146.293 1215.02 143.191 1218.24 Q140.089 1221.43 134.441 1227.2 Z" fill="#000000" fill-rule="nonzero" fill-opacity="1" /><path clip-path="url(#clip680)" d="M62.9365 927.056 Q59.3254 927.056 57.4967 930.621 Q55.6912 934.163 55.6912 941.292 Q55.6912 948.399 57.4967 951.964 Q59.3254 955.505 62.9365 955.505 Q66.5707 955.505 68.3763 951.964 Q70.205 948.399 70.205 941.292 Q70.205 934.163 68.3763 930.621 Q66.5707 927.056 62.9365 927.056 M62.9365 923.353 Q68.7467 923.353 71.8022 927.959 Q74.8809 932.542 74.8809 941.292 Q74.8809 950.019 71.8022 954.626 Q68.7467 959.209 62.9365 959.209 Q57.1264 959.209 54.0477 954.626 Q50.9921 950.019 50.9921 941.292 Q50.9921 932.542 54.0477 927.959 Q57.1264 923.353 62.9365 923.353 Z" fill="#000000" fill-rule="nonzero" fill-opacity="1" /><path clip-path="url(#clip680)" d="M83.0984 952.658 L87.9827 952.658 L87.9827 958.538 L83.0984 958.538 L83.0984 952.658 Z" fill="#000000" fill-rule="nonzero" fill-opacity="1" /><path clip-path="url(#clip680)" d="M98.3067 957.82 L98.3067 953.561 Q100.066 954.394 101.871 954.834 Q103.677 955.274 105.413 955.274 Q110.043 955.274 112.473 952.172 Q114.927 949.047 115.274 942.704 Q113.932 944.695 111.871 945.76 Q109.811 946.825 107.311 946.825 Q102.126 946.825 99.0937 943.7 Q96.0845 940.552 96.0845 935.112 Q96.0845 929.788 99.2326 926.57 Q102.381 923.353 107.612 923.353 Q113.608 923.353 116.756 927.959 Q119.927 932.542 119.927 941.292 Q119.927 949.464 116.038 954.348 Q112.172 959.209 105.621 959.209 Q103.862 959.209 102.057 958.862 Q100.251 958.514 98.3067 957.82 M107.612 943.167 Q110.76 943.167 112.589 941.015 Q114.441 938.862 114.441 935.112 Q114.441 931.385 112.589 929.232 Q110.76 927.056 107.612 927.056 Q104.464 927.056 102.612 929.232 Q100.784 931.385 100.784 935.112 Q100.784 938.862 102.612 941.015 Q104.464 943.167 107.612 943.167 Z" fill="#000000" fill-rule="nonzero" fill-opacity="1" /><path clip-path="url(#clip680)" d="M141.177 928.052 L129.371 946.501 L141.177 946.501 L141.177 928.052 M139.95 923.978 L145.83 923.978 L145.83 946.501 L150.76 946.501 L150.76 950.389 L145.83 950.389 L145.83 958.538 L141.177 958.538 L141.177 950.389 L125.575 950.389 L125.575 945.876 L139.95 923.978 Z" fill="#000000" fill-rule="nonzero" fill-opacity="1" /><path clip-path="url(#clip680)" d="M63.2606 654.461 Q59.6495 654.461 57.8208 658.026 Q56.0152 661.568 56.0152 668.697 Q56.0152 675.804 57.8208 679.368 Q59.6495 682.91 63.2606 682.91 Q66.8948 682.91 68.7004 679.368 Q70.5291 675.804 70.5291 668.697 Q70.5291 661.568 68.7004 658.026 Q66.8948 654.461 63.2606 654.461 M63.2606 650.757 Q69.0707 650.757 72.1263 655.364 Q75.205 659.947 75.205 668.697 Q75.205 677.424 72.1263 682.03 Q69.0707 686.614 63.2606 686.614 Q57.4504 686.614 54.3717 682.03 Q51.3162 677.424 51.3162 668.697 Q51.3162 659.947 54.3717 655.364 Q57.4504 650.757 63.2606 650.757 Z" fill="#000000" fill-rule="nonzero" fill-opacity="1" /><path clip-path="url(#clip680)" d="M83.4225 680.063 L88.3067 680.063 L88.3067 685.942 L83.4225 685.942 L83.4225 680.063 Z" fill="#000000" fill-rule="nonzero" fill-opacity="1" /><path clip-path="url(#clip680)" d="M98.6308 685.225 L98.6308 680.966 Q100.39 681.799 102.196 682.239 Q104.001 682.679 105.737 682.679 Q110.367 682.679 112.797 679.577 Q115.251 676.452 115.598 670.109 Q114.256 672.1 112.196 673.165 Q110.135 674.23 107.635 674.23 Q102.45 674.23 99.4178 671.105 Q96.4085 667.956 96.4085 662.517 Q96.4085 657.193 99.5567 653.975 Q102.705 650.757 107.936 650.757 Q113.932 650.757 117.08 655.364 Q120.251 659.947 120.251 668.697 Q120.251 676.868 116.362 681.753 Q112.496 686.614 105.946 686.614 Q104.186 686.614 102.381 686.266 Q100.575 685.919 98.6308 685.225 M107.936 670.572 Q111.084 670.572 112.913 668.419 Q114.765 666.267 114.765 662.517 Q114.765 658.79 112.913 656.637 Q111.084 654.461 107.936 654.461 Q104.788 654.461 102.936 656.637 Q101.108 658.79 101.108 662.517 Q101.108 666.267 102.936 668.419 Q104.788 670.572 107.936 670.572 Z" fill="#000000" fill-rule="nonzero" fill-opacity="1" /><path clip-path="url(#clip680)" d="M139.232 666.799 Q136.084 666.799 134.232 668.952 Q132.404 671.105 132.404 674.855 Q132.404 678.581 134.232 680.757 Q136.084 682.91 139.232 682.91 Q142.381 682.91 144.209 680.757 Q146.061 678.581 146.061 674.855 Q146.061 671.105 144.209 668.952 Q142.381 666.799 139.232 666.799 M148.515 652.146 L148.515 656.406 Q146.756 655.572 144.95 655.132 Q143.168 654.693 141.408 654.693 Q136.779 654.693 134.325 657.818 Q131.894 660.943 131.547 667.262 Q132.913 665.248 134.973 664.183 Q137.033 663.095 139.51 663.095 Q144.718 663.095 147.728 666.267 Q150.76 669.415 150.76 674.855 Q150.76 680.179 147.612 683.396 Q144.464 686.614 139.232 686.614 Q133.237 686.614 130.066 682.03 Q126.894 677.424 126.894 668.697 Q126.894 660.503 130.783 655.642 Q134.672 650.757 141.223 650.757 Q142.982 650.757 144.765 651.105 Q146.57 651.452 148.515 652.146 Z" fill="#000000" fill-rule="nonzero" fill-opacity="1" /><path clip-path="url(#clip680)" d="M63.5152 381.866 Q59.9041 381.866 58.0754 385.431 Q56.2699 388.972 56.2699 396.102 Q56.2699 403.208 58.0754 406.773 Q59.9041 410.315 63.5152 410.315 Q67.1494 410.315 68.955 406.773 Q70.7837 403.208 70.7837 396.102 Q70.7837 388.972 68.955 385.431 Q67.1494 381.866 63.5152 381.866 M63.5152 378.162 Q69.3254 378.162 72.3809 382.769 Q75.4596 387.352 75.4596 396.102 Q75.4596 404.829 72.3809 409.435 Q69.3254 414.019 63.5152 414.019 Q57.7051 414.019 54.6264 409.435 Q51.5708 404.829 51.5708 396.102 Q51.5708 387.352 54.6264 382.769 Q57.7051 378.162 63.5152 378.162 Z" fill="#000000" fill-rule="nonzero" fill-opacity="1" /><path clip-path="url(#clip680)" d="M83.6771 407.468 L88.5614 407.468 L88.5614 413.347 L83.6771 413.347 L83.6771 407.468 Z" fill="#000000" fill-rule="nonzero" fill-opacity="1" /><path clip-path="url(#clip680)" d="M98.8854 412.63 L98.8854 408.37 Q100.645 409.204 102.45 409.644 Q104.256 410.083 105.992 410.083 Q110.621 410.083 113.052 406.982 Q115.506 403.857 115.853 397.514 Q114.51 399.505 112.45 400.57 Q110.39 401.634 107.89 401.634 Q102.705 401.634 99.6724 398.509 Q96.6632 395.361 96.6632 389.921 Q96.6632 384.597 99.8113 381.38 Q102.959 378.162 108.191 378.162 Q114.186 378.162 117.334 382.769 Q120.506 387.352 120.506 396.102 Q120.506 404.273 116.617 409.157 Q112.751 414.019 106.2 414.019 Q104.441 414.019 102.635 413.671 Q100.83 413.324 98.8854 412.63 M108.191 397.977 Q111.339 397.977 113.168 395.824 Q115.02 393.671 115.02 389.921 Q115.02 386.195 113.168 384.042 Q111.339 381.866 108.191 381.866 Q105.043 381.866 103.191 384.042 Q101.362 386.195 101.362 389.921 Q101.362 393.671 103.191 395.824 Q105.043 397.977 108.191 397.977 Z" fill="#000000" fill-rule="nonzero" fill-opacity="1" /><path clip-path="url(#clip680)" d="M138.908 396.935 Q135.575 396.935 133.654 398.718 Q131.756 400.5 131.756 403.625 Q131.756 406.75 133.654 408.532 Q135.575 410.315 138.908 410.315 Q142.242 410.315 144.163 408.532 Q146.084 406.727 146.084 403.625 Q146.084 400.5 144.163 398.718 Q142.265 396.935 138.908 396.935 M134.232 394.945 Q131.223 394.204 129.533 392.144 Q127.867 390.084 127.867 387.121 Q127.867 382.977 130.807 380.57 Q133.769 378.162 138.908 378.162 Q144.07 378.162 147.01 380.57 Q149.95 382.977 149.95 387.121 Q149.95 390.084 148.26 392.144 Q146.593 394.204 143.607 394.945 Q146.987 395.732 148.862 398.023 Q150.76 400.315 150.76 403.625 Q150.76 408.648 147.681 411.333 Q144.626 414.019 138.908 414.019 Q133.191 414.019 130.112 411.333 Q127.057 408.648 127.057 403.625 Q127.057 400.315 128.955 398.023 Q130.853 395.732 134.232 394.945 M132.519 387.56 Q132.519 390.246 134.186 391.75 Q135.876 393.255 138.908 393.255 Q141.918 393.255 143.607 391.75 Q145.32 390.246 145.32 387.56 Q145.32 384.875 143.607 383.371 Q141.918 381.866 138.908 381.866 Q135.876 381.866 134.186 383.371 Q132.519 384.875 132.519 387.56 Z" fill="#000000" fill-rule="nonzero" fill-opacity="1" /><path clip-path="url(#clip680)" d="M681.182 12.096 L689.365 12.096 L689.365 72.576 L681.182 72.576 L681.182 12.096 Z" fill="#000000" fill-rule="nonzero" fill-opacity="1" /><path clip-path="url(#clip680)" d="M712.698 14.324 L712.698 27.2059 L728.051 27.2059 L728.051 32.9987 L712.698 32.9987 L712.698 57.6282 Q712.698 63.1779 714.197 64.7578 Q715.736 66.3376 720.395 66.3376 L728.051 66.3376 L728.051 72.576 L720.395 72.576 Q711.766 72.576 708.485 69.3758 Q705.204 66.1351 705.204 57.6282 L705.204 32.9987 L699.735 32.9987 L699.735 27.2059 L705.204 27.2059 L705.204 14.324 L712.698 14.324 Z" fill="#000000" fill-rule="nonzero" fill-opacity="1" /><path clip-path="url(#clip680)" d="M758.473 49.7694 Q749.44 49.7694 745.956 51.8354 Q742.472 53.9013 742.472 58.8839 Q742.472 62.8538 745.065 65.2034 Q747.698 67.5124 752.194 67.5124 Q758.392 67.5124 762.119 63.1374 Q765.886 58.7219 765.886 51.4303 L765.886 49.7694 L758.473 49.7694 M773.34 46.6907 L773.34 72.576 L765.886 72.576 L765.886 65.6895 Q763.334 69.8214 759.526 71.8063 Q755.719 73.7508 750.209 73.7508 Q743.242 73.7508 739.11 69.8619 Q735.018 65.9325 735.018 59.3701 Q735.018 51.7138 740.123 47.825 Q745.267 43.9361 755.435 43.9361 L765.886 43.9361 L765.886 43.2069 Q765.886 38.0623 762.484 35.2672 Q759.121 32.4315 753.004 32.4315 Q749.116 32.4315 745.429 33.3632 Q741.743 34.295 738.34 36.1584 L738.34 29.2718 Q742.432 27.692 746.28 26.9223 Q750.128 26.1121 753.774 26.1121 Q763.618 26.1121 768.479 31.2163 Q773.34 36.3204 773.34 46.6907 Z" fill="#000000" fill-rule="nonzero" fill-opacity="1" /><path clip-path="url(#clip680)" d="M788.693 9.54393 L796.147 9.54393 L796.147 72.576 L788.693 72.576 L788.693 9.54393 Z" fill="#000000" fill-rule="nonzero" fill-opacity="1" /><path clip-path="url(#clip680)" d="M830.62 76.7889 Q827.46 84.8907 824.462 87.3618 Q821.465 89.8329 816.442 89.8329 L810.487 89.8329 L810.487 83.5945 L814.862 83.5945 Q817.94 83.5945 819.642 82.1361 Q821.343 80.6778 823.409 75.2496 L824.746 71.8468 L806.395 27.2059 L814.295 27.2059 L828.473 62.6918 L842.651 27.2059 L850.55 27.2059 L830.62 76.7889 Z" fill="#000000" fill-rule="nonzero" fill-opacity="1" /><path clip-path="url(#clip680)" d="M869.346 18.8205 L869.346 41.5461 L879.636 41.5461 Q885.347 41.5461 888.467 38.5889 Q891.586 35.6318 891.586 30.163 Q891.586 24.7348 888.467 21.7777 Q885.347 18.8205 879.636 18.8205 L869.346 18.8205 M861.164 12.096 L879.636 12.096 Q889.803 12.096 894.989 16.714 Q900.214 21.2916 900.214 30.163 Q900.214 39.1155 894.989 43.6931 Q889.803 48.2706 879.636 48.2706 L869.346 48.2706 L869.346 72.576 L861.164 72.576 L861.164 12.096 Z" fill="#000000" fill-rule="nonzero" fill-opacity="1" /><path clip-path="url(#clip680)" d="M925.492 32.4315 Q919.497 32.4315 916.013 37.1306 Q912.529 41.7891 912.529 49.9314 Q912.529 58.0738 915.972 62.7728 Q919.456 67.4314 925.492 67.4314 Q931.447 67.4314 934.931 62.7323 Q938.414 58.0333 938.414 49.9314 Q938.414 41.8701 934.931 37.1711 Q931.447 32.4315 925.492 32.4315 M925.492 26.1121 Q935.214 26.1121 940.764 32.4315 Q946.314 38.7509 946.314 49.9314 Q946.314 61.0714 940.764 67.4314 Q935.214 73.7508 925.492 73.7508 Q915.729 73.7508 910.179 67.4314 Q904.67 61.0714 904.67 49.9314 Q904.67 38.7509 910.179 32.4315 Q915.729 26.1121 925.492 26.1121 Z" fill="#000000" fill-rule="nonzero" fill-opacity="1" /><path clip-path="url(#clip680)" d="M954.334 27.2059 L961.788 27.2059 L971.105 62.6108 L980.382 27.2059 L989.172 27.2059 L998.489 62.6108 L1007.77 27.2059 L1015.22 27.2059 L1003.35 72.576 L994.56 72.576 L984.797 35.3887 L974.994 72.576 L966.204 72.576 L954.334 27.2059 Z" fill="#000000" fill-rule="nonzero" fill-opacity="1" /><path clip-path="url(#clip680)" d="M1065.33 48.0275 L1065.33 51.6733 L1031.06 51.6733 Q1031.54 59.3701 1035.68 63.421 Q1039.85 67.4314 1047.26 67.4314 Q1051.56 67.4314 1055.57 66.3781 Q1059.62 65.3249 1063.59 63.2184 L1063.59 70.267 Q1059.58 71.9684 1055.36 72.8596 Q1051.15 73.7508 1046.82 73.7508 Q1035.96 73.7508 1029.6 67.4314 Q1023.28 61.1119 1023.28 50.3365 Q1023.28 39.1965 1029.28 32.6746 Q1035.31 26.1121 1045.52 26.1121 Q1054.68 26.1121 1059.98 32.0264 Q1065.33 37.9003 1065.33 48.0275 M1057.88 45.84 Q1057.79 39.7232 1054.43 36.0774 Q1051.11 32.4315 1045.6 32.4315 Q1039.36 32.4315 1035.6 35.9558 Q1031.87 39.4801 1031.3 45.8805 L1057.88 45.84 Z" fill="#000000" fill-rule="nonzero" fill-opacity="1" /><path clip-path="url(#clip680)" d="M1103.85 34.1734 Q1102.6 33.4443 1101.1 33.1202 Q1099.64 32.7556 1097.86 32.7556 Q1091.54 32.7556 1088.14 36.8875 Q1084.77 40.9789 1084.77 48.6757 L1084.77 72.576 L1077.28 72.576 L1077.28 27.2059 L1084.77 27.2059 L1084.77 34.2544 Q1087.12 30.1225 1090.89 28.1376 Q1094.66 26.1121 1100.05 26.1121 Q1100.82 26.1121 1101.75 26.2337 Q1102.68 26.3147 1103.81 26.5172 L1103.85 34.1734 Z" fill="#000000" fill-rule="nonzero" fill-opacity="1" /><path clip-path="url(#clip680)" d="M1120.18 18.8205 L1120.18 65.8515 L1130.06 65.8515 Q1142.58 65.8515 1148.37 60.1802 Q1154.21 54.509 1154.21 42.2752 Q1154.21 30.1225 1148.37 24.4918 Q1142.58 18.8205 1130.06 18.8205 L1120.18 18.8205 M1112 12.096 L1128.81 12.096 Q1146.39 12.096 1154.61 19.4281 Q1162.83 26.7198 1162.83 42.2752 Q1162.83 57.9117 1154.57 65.2439 Q1146.31 72.576 1128.81 72.576 L1112 72.576 L1112 12.096 Z" fill="#000000" fill-rule="nonzero" fill-opacity="1" /><path clip-path="url(#clip680)" d="M1214.36 48.0275 L1214.36 51.6733 L1180.09 51.6733 Q1180.58 59.3701 1184.71 63.421 Q1188.88 67.4314 1196.29 67.4314 Q1200.59 67.4314 1204.6 66.3781 Q1208.65 65.3249 1212.62 63.2184 L1212.62 70.267 Q1208.61 71.9684 1204.4 72.8596 Q1200.18 73.7508 1195.85 73.7508 Q1184.99 73.7508 1178.63 67.4314 Q1172.31 61.1119 1172.31 50.3365 Q1172.31 39.1965 1178.31 32.6746 Q1184.34 26.1121 1194.55 26.1121 Q1203.71 26.1121 1209.01 32.0264 Q1214.36 37.9003 1214.36 48.0275 M1206.91 45.84 Q1206.83 39.7232 1203.46 36.0774 Q1200.14 32.4315 1194.63 32.4315 Q1188.4 32.4315 1184.63 35.9558 Q1180.9 39.4801 1180.33 45.8805 L1206.91 45.84 Z" fill="#000000" fill-rule="nonzero" fill-opacity="1" /><path clip-path="url(#clip680)" d="M1261.92 35.9153 Q1264.71 30.8922 1268.6 28.5022 Q1272.49 26.1121 1277.76 26.1121 Q1284.85 26.1121 1288.7 31.0947 Q1292.54 36.0368 1292.54 45.1919 L1292.54 72.576 L1285.05 72.576 L1285.05 45.4349 Q1285.05 38.913 1282.74 35.7533 Q1280.43 32.5936 1275.69 32.5936 Q1269.9 32.5936 1266.54 36.4419 Q1263.18 40.2903 1263.18 46.9338 L1263.18 72.576 L1255.68 72.576 L1255.68 45.4349 Q1255.68 38.8725 1253.37 35.7533 Q1251.06 32.5936 1246.24 32.5936 Q1240.53 32.5936 1237.17 36.4824 Q1233.81 40.3308 1233.81 46.9338 L1233.81 72.576 L1226.31 72.576 L1226.31 27.2059 L1233.81 27.2059 L1233.81 34.2544 Q1236.36 30.082 1239.92 28.0971 Q1243.49 26.1121 1248.39 26.1121 Q1253.33 26.1121 1256.77 28.6237 Q1260.26 31.1352 1261.92 35.9153 Z" fill="#000000" fill-rule="nonzero" fill-opacity="1" /><path clip-path="url(#clip680)" d="M1328.03 49.7694 Q1319 49.7694 1315.51 51.8354 Q1312.03 53.9013 1312.03 58.8839 Q1312.03 62.8538 1314.62 65.2034 Q1317.25 67.5124 1321.75 67.5124 Q1327.95 67.5124 1331.68 63.1374 Q1335.44 58.7219 1335.44 51.4303 L1335.44 49.7694 L1328.03 49.7694 M1342.9 46.6907 L1342.9 72.576 L1335.44 72.576 L1335.44 65.6895 Q1332.89 69.8214 1329.08 71.8063 Q1325.28 73.7508 1319.77 73.7508 Q1312.8 73.7508 1308.67 69.8619 Q1304.58 65.9325 1304.58 59.3701 Q1304.58 51.7138 1309.68 47.825 Q1314.82 43.9361 1324.99 43.9361 L1335.44 43.9361 L1335.44 43.2069 Q1335.44 38.0623 1332.04 35.2672 Q1328.68 32.4315 1322.56 32.4315 Q1318.67 32.4315 1314.99 33.3632 Q1311.3 34.295 1307.9 36.1584 L1307.9 29.2718 Q1311.99 27.692 1315.84 26.9223 Q1319.69 26.1121 1323.33 26.1121 Q1333.17 26.1121 1338.04 31.2163 Q1342.9 36.3204 1342.9 46.6907 Z" fill="#000000" fill-rule="nonzero" fill-opacity="1" /><path clip-path="url(#clip680)" d="M1395.96 45.1919 L1395.96 72.576 L1388.51 72.576 L1388.51 45.4349 Q1388.51 38.994 1386 35.7938 Q1383.49 32.5936 1378.46 32.5936 Q1372.43 32.5936 1368.94 36.4419 Q1365.46 40.2903 1365.46 46.9338 L1365.46 72.576 L1357.97 72.576 L1357.97 27.2059 L1365.46 27.2059 L1365.46 34.2544 Q1368.13 30.163 1371.74 28.1376 Q1375.39 26.1121 1380.12 26.1121 Q1387.94 26.1121 1391.95 30.9732 Q1395.96 35.7938 1395.96 45.1919 Z" fill="#000000" fill-rule="nonzero" fill-opacity="1" /><path clip-path="url(#clip680)" d="M1440.69 34.0924 L1440.69 9.54393 L1448.14 9.54393 L1448.14 72.576 L1440.69 72.576 L1440.69 65.7705 Q1438.34 69.8214 1434.73 71.8063 Q1431.17 73.7508 1426.14 73.7508 Q1417.92 73.7508 1412.73 67.1883 Q1407.59 60.6258 1407.59 49.9314 Q1407.59 39.2371 1412.73 32.6746 Q1417.92 26.1121 1426.14 26.1121 Q1431.17 26.1121 1434.73 28.0971 Q1438.34 30.0415 1440.69 34.0924 M1415.29 49.9314 Q1415.29 58.1548 1418.65 62.8538 Q1422.05 67.5124 1427.97 67.5124 Q1433.88 67.5124 1437.28 62.8538 Q1440.69 58.1548 1440.69 49.9314 Q1440.69 41.7081 1437.28 37.0496 Q1433.88 32.3505 1427.97 32.3505 Q1422.05 32.3505 1418.65 37.0496 Q1415.29 41.7081 1415.29 49.9314 Z" fill="#000000" fill-rule="nonzero" fill-opacity="1" /><path clip-path="url(#clip680)" d="M1510.4 20.1573 L1499.3 50.2555 L1521.54 50.2555 L1510.4 20.1573 M1505.78 12.096 L1515.06 12.096 L1538.11 72.576 L1529.6 72.576 L1524.09 57.061 L1496.83 57.061 L1491.32 72.576 L1482.69 72.576 L1505.78 12.096 Z" fill="#000000" fill-rule="nonzero" fill-opacity="1" /><path clip-path="url(#clip680)" d="M1577.81 28.9478 L1577.81 35.9153 Q1574.65 34.1734 1571.45 33.3227 Q1568.29 32.4315 1565.05 32.4315 Q1557.8 32.4315 1553.79 37.0496 Q1549.78 41.6271 1549.78 49.9314 Q1549.78 58.2358 1553.79 62.8538 Q1557.8 67.4314 1565.05 67.4314 Q1568.29 67.4314 1571.45 66.5807 Q1574.65 65.6895 1577.81 63.9476 L1577.81 70.8341 Q1574.69 72.2924 1571.33 73.0216 Q1568.01 73.7508 1564.24 73.7508 Q1553.99 73.7508 1547.95 67.3098 Q1541.92 60.8689 1541.92 49.9314 Q1541.92 38.832 1547.99 32.472 Q1554.11 26.1121 1564.72 26.1121 Q1568.17 26.1121 1571.45 26.8413 Q1574.73 27.5299 1577.81 28.9478 Z" fill="#000000" fill-rule="nonzero" fill-opacity="1" /><path clip-path="url(#clip680)" d="M1623.42 28.9478 L1623.42 35.9153 Q1620.26 34.1734 1617.06 33.3227 Q1613.9 32.4315 1610.66 32.4315 Q1603.41 32.4315 1599.4 37.0496 Q1595.39 41.6271 1595.39 49.9314 Q1595.39 58.2358 1599.4 62.8538 Q1603.41 67.4314 1610.66 67.4314 Q1613.9 67.4314 1617.06 66.5807 Q1620.26 65.6895 1623.42 63.9476 L1623.42 70.8341 Q1620.3 72.2924 1616.94 73.0216 Q1613.62 73.7508 1609.85 73.7508 Q1599.6 73.7508 1593.57 67.3098 Q1587.53 60.8689 1587.53 49.9314 Q1587.53 38.832 1593.61 32.472 Q1599.72 26.1121 1610.34 26.1121 Q1613.78 26.1121 1617.06 26.8413 Q1620.34 27.5299 1623.42 28.9478 Z" fill="#000000" fill-rule="nonzero" fill-opacity="1" /><path clip-path="url(#clip680)" d="M1635.62 54.671 L1635.62 27.2059 L1643.07 27.2059 L1643.07 54.3874 Q1643.07 60.8284 1645.58 64.0691 Q1648.09 67.2693 1653.12 67.2693 Q1659.15 67.2693 1662.63 63.421 Q1666.16 59.5726 1666.16 52.9291 L1666.16 27.2059 L1673.61 27.2059 L1673.61 72.576 L1666.16 72.576 L1666.16 65.6084 Q1663.45 69.7404 1659.84 71.7658 Q1656.28 73.7508 1651.54 73.7508 Q1643.72 73.7508 1639.67 68.8897 Q1635.62 64.0286 1635.62 54.671 M1654.37 26.1121 L1654.37 26.1121 Z" fill="#000000" fill-rule="nonzero" fill-opacity="1" /><path clip-path="url(#clip680)" d="M1715.26 34.1734 Q1714 33.4443 1712.5 33.1202 Q1711.04 32.7556 1709.26 32.7556 Q1702.94 32.7556 1699.54 36.8875 Q1696.18 40.9789 1696.18 48.6757 L1696.18 72.576 L1688.68 72.576 L1688.68 27.2059 L1696.18 27.2059 L1696.18 34.2544 Q1698.53 30.1225 1702.29 28.1376 Q1706.06 26.1121 1711.45 26.1121 Q1712.22 26.1121 1713.15 26.2337 Q1714.08 26.3147 1715.22 26.5172 L1715.26 34.1734 Z" fill="#000000" fill-rule="nonzero" fill-opacity="1" /><path clip-path="url(#clip680)" d="M1743.69 49.7694 Q1734.66 49.7694 1731.18 51.8354 Q1727.69 53.9013 1727.69 58.8839 Q1727.69 62.8538 1730.29 65.2034 Q1732.92 67.5124 1737.41 67.5124 Q1743.61 67.5124 1747.34 63.1374 Q1751.11 58.7219 1751.11 51.4303 L1751.11 49.7694 L1743.69 49.7694 M1758.56 46.6907 L1758.56 72.576 L1751.11 72.576 L1751.11 65.6895 Q1748.55 69.8214 1744.75 71.8063 Q1740.94 73.7508 1735.43 73.7508 Q1728.46 73.7508 1724.33 69.8619 Q1720.24 65.9325 1720.24 59.3701 Q1720.24 51.7138 1725.34 47.825 Q1730.49 43.9361 1740.66 43.9361 L1751.11 43.9361 L1751.11 43.2069 Q1751.11 38.0623 1747.7 35.2672 Q1744.34 32.4315 1738.22 32.4315 Q1734.34 32.4315 1730.65 33.3632 Q1726.96 34.295 1723.56 36.1584 L1723.56 29.2718 Q1727.65 27.692 1731.5 26.9223 Q1735.35 26.1121 1738.99 26.1121 Q1748.84 26.1121 1753.7 31.2163 Q1758.56 36.3204 1758.56 46.6907 Z" fill="#000000" fill-rule="nonzero" fill-opacity="1" /><path clip-path="url(#clip680)" d="M1806.56 28.9478 L1806.56 35.9153 Q1803.4 34.1734 1800.2 33.3227 Q1797.04 32.4315 1793.8 32.4315 Q1786.55 32.4315 1782.54 37.0496 Q1778.53 41.6271 1778.53 49.9314 Q1778.53 58.2358 1782.54 62.8538 Q1786.55 67.4314 1793.8 67.4314 Q1797.04 67.4314 1800.2 66.5807 Q1803.4 65.6895 1806.56 63.9476 L1806.56 70.8341 Q1803.44 72.2924 1800.08 73.0216 Q1796.76 73.7508 1792.99 73.7508 Q1782.74 73.7508 1776.71 67.3098 Q1770.67 60.8689 1770.67 49.9314 Q1770.67 38.832 1776.75 32.472 Q1782.87 26.1121 1793.48 26.1121 Q1796.92 26.1121 1800.2 26.8413 Q1803.48 27.5299 1806.56 28.9478 Z" fill="#000000" fill-rule="nonzero" fill-opacity="1" /><path clip-path="url(#clip680)" d="M1838.4 76.7889 Q1835.24 84.8907 1832.25 87.3618 Q1829.25 89.8329 1824.23 89.8329 L1818.27 89.8329 L1818.27 83.5945 L1822.65 83.5945 Q1825.72 83.5945 1827.43 82.1361 Q1829.13 80.6778 1831.19 75.2496 L1832.53 71.8468 L1814.18 27.2059 L1822.08 27.2059 L1836.26 62.6918 L1850.43 27.2059 L1858.33 27.2059 L1838.4 76.7889 Z" fill="#000000" fill-rule="nonzero" fill-opacity="1" /><path clip-path="url(#clip682)" d="M305.894 736.811 L305.894 13753.2 L711.731 13753.2 L711.731 736.811 L305.894 736.811 L305.894 736.811  Z" fill="#009af9" fill-rule="evenodd" fill-opacity="1"/>
<polyline clip-path="url(#clip682)" style="stroke:#000000; stroke-linecap:round; stroke-linejoin:round; stroke-width:4; stroke-opacity:1; fill:none" points="305.894,736.811 305.894,13753.2 711.731,13753.2 711.731,736.811 305.894,736.811 "/>
<path clip-path="url(#clip682)" d="M813.191 668.662 L813.191 13753.2 L1219.03 13753.2 L1219.03 668.662 L813.191 668.662 L813.191 668.662  Z" fill="#009af9" fill-rule="evenodd" fill-opacity="1"/>
<polyline clip-path="url(#clip682)" style="stroke:#000000; stroke-linecap:round; stroke-linejoin:round; stroke-width:4; stroke-opacity:1; fill:none" points="813.191,668.662 813.191,13753.2 1219.03,13753.2 1219.03,668.662 813.191,668.662 "/>
<path clip-path="url(#clip682)" d="M1320.49 641.403 L1320.49 13753.2 L1726.33 13753.2 L1726.33 641.403 L1320.49 641.403 L1320.49 641.403  Z" fill="#009af9" fill-rule="evenodd" fill-opacity="1"/>
<polyline clip-path="url(#clip682)" style="stroke:#000000; stroke-linecap:round; stroke-linejoin:round; stroke-width:4; stroke-opacity:1; fill:none" points="1320.49,641.403 1320.49,13753.2 1726.33,13753.2 1726.33,641.403 1320.49,641.403 "/>
<path clip-path="url(#clip682)" d="M1827.78 614.143 L1827.78 13753.2 L2233.62 13753.2 L2233.62 614.143 L1827.78 614.143 L1827.78 614.143  Z" fill="#009af9" fill-rule="evenodd" fill-opacity="1"/>
<polyline clip-path="url(#clip682)" style="stroke:#000000; stroke-linecap:round; stroke-linejoin:round; stroke-width:4; stroke-opacity:1; fill:none" points="1827.78,614.143 1827.78,13753.2 2233.62,13753.2 2233.62,614.143 1827.78,614.143 "/>
<circle clip-path="url(#clip682)" style="fill:#009af9; stroke:none; fill-opacity:0" cx="508.813" cy="736.811" r="2"/>
<circle clip-path="url(#clip682)" style="fill:#009af9; stroke:none; fill-opacity:0" cx="1016.11" cy="668.662" r="2"/>
<circle clip-path="url(#clip682)" style="fill:#009af9; stroke:none; fill-opacity:0" cx="1523.41" cy="641.403" r="2"/>
<circle clip-path="url(#clip682)" style="fill:#009af9; stroke:none; fill-opacity:0" cx="2030.7" cy="614.143" r="2"/>
<polyline clip-path="url(#clip682)" style="stroke:#000000; stroke-linecap:round; stroke-linejoin:round; stroke-width:4; stroke-opacity:1; fill:none" points="508.813,736.811 508.813,736.811 "/>
<polyline clip-path="url(#clip682)" style="stroke:#000000; stroke-linecap:round; stroke-linejoin:round; stroke-width:4; stroke-opacity:1; fill:none" points="1016.11,668.662 1016.11,668.662 "/>
<polyline clip-path="url(#clip682)" style="stroke:#000000; stroke-linecap:round; stroke-linejoin:round; stroke-width:4; stroke-opacity:1; fill:none" points="1523.41,641.403 1523.41,641.403 "/>
<polyline clip-path="url(#clip682)" style="stroke:#000000; stroke-linecap:round; stroke-linejoin:round; stroke-width:4; stroke-opacity:1; fill:none" points="2030.7,656.447 2030.7,571.84 "/>
<line clip-path="url(#clip682)" x1="524.813" y1="736.811" x2="492.813" y2="736.811" style="stroke:#000000; stroke-width:4; stroke-opacity:1"/>
<line clip-path="url(#clip682)" x1="524.813" y1="736.811" x2="492.813" y2="736.811" style="stroke:#000000; stroke-width:4; stroke-opacity:1"/>
<line clip-path="url(#clip682)" x1="1032.11" y1="668.662" x2="1000.11" y2="668.662" style="stroke:#000000; stroke-width:4; stroke-opacity:1"/>
<line clip-path="url(#clip682)" x1="1032.11" y1="668.662" x2="1000.11" y2="668.662" style="stroke:#000000; stroke-width:4; stroke-opacity:1"/>
<line clip-path="url(#clip682)" x1="1539.41" y1="641.403" x2="1507.41" y2="641.403" style="stroke:#000000; stroke-width:4; stroke-opacity:1"/>
<line clip-path="url(#clip682)" x1="1539.41" y1="641.403" x2="1507.41" y2="641.403" style="stroke:#000000; stroke-width:4; stroke-opacity:1"/>
<line clip-path="url(#clip682)" x1="2046.7" y1="656.447" x2="2014.7" y2="656.447" style="stroke:#000000; stroke-width:4; stroke-opacity:1"/>
<line clip-path="url(#clip682)" x1="2046.7" y1="571.84" x2="2014.7" y2="571.84" style="stroke:#000000; stroke-width:4; stroke-opacity:1"/>
</svg>
