<?xml version="1.0" encoding="UTF-8" standalone="no"?>
<svg
   width="600"
   height="400"
   viewBox="0 0 2400 1600"
   version="1.1"
   id="svg153325"
   sodipodi:docname="compare_mean_mode_meanmode_avg_domain_err.svg"
   inkscape:version="1.2.1 (9c6d41e, 2022-07-14)"
   xmlns:inkscape="http://www.inkscape.org/namespaces/inkscape"
   xmlns:sodipodi="http://sodipodi.sourceforge.net/DTD/sodipodi-0.dtd"
   xmlns="http://www.w3.org/2000/svg"
   xmlns:svg="http://www.w3.org/2000/svg">
  <sodipodi:namedview
     id="namedview153327"
     pagecolor="#ffffff"
     bordercolor="#000000"
     borderopacity="0.25"
     inkscape:showpageshadow="2"
     inkscape:pageopacity="0.0"
     inkscape:pagecheckerboard="0"
     inkscape:deskcolor="#d1d1d1"
     showgrid="false"
     inkscape:zoom="1.18"
     inkscape:cx="383.47458"
     inkscape:cy="151.27119"
     inkscape:window-width="1920"
     inkscape:window-height="1027"
     inkscape:window-x="-1"
     inkscape:window-y="25"
     inkscape:window-maximized="0"
     inkscape:current-layer="svg153325" />
  <defs
     id="defs153001">
    <clipPath
       id="clip240">
      <rect
         x="0"
         y="0"
         width="2400"
         height="1600"
         id="rect152998" />
    </clipPath>
  </defs>
  <path
     clip-path="url(#clip240)"
     d="M0 1600 L2400 1600 L2400 8.88178e-14 L0 8.88178e-14  Z"
     fill="#ffffff"
     fill-rule="evenodd"
     fill-opacity="1"
     id="path153003" />
  <defs
     id="defs153008">
    <clipPath
       id="clip241">
      <rect
         x="480"
         y="0"
         width="1681"
         height="1600"
         id="rect153005" />
    </clipPath>
  </defs>
  <path
     clip-path="url(#clip240)"
     d="M303.503 1401.58 L2352.76 1401.58 L2352.76 47.2441 L303.503 47.2441  Z"
     fill="#ffffff"
     fill-rule="evenodd"
     fill-opacity="1"
     id="path153010" />
  <defs
     id="defs153015">
    <clipPath
       id="clip242">
      <rect
         x="303"
         y="47"
         width="2050"
         height="1355"
         id="rect153012" />
    </clipPath>
  </defs>
  <polyline
     clip-path="url(#clip242)"
     style="stroke:#000000; stroke-linecap:round; stroke-linejoin:round; stroke-width:2; stroke-opacity:0.1; fill:none"
     points="475.222,1401.58 475.222,47.2441 "
     id="polyline153017" />
  <polyline
     clip-path="url(#clip242)"
     style="stroke:#000000; stroke-linecap:round; stroke-linejoin:round; stroke-width:2; stroke-opacity:0.1; fill:none"
     points="702.664,1401.58 702.664,47.2441 "
     id="polyline153019" />
  <polyline
     clip-path="url(#clip242)"
     style="stroke:#000000; stroke-linecap:round; stroke-linejoin:round; stroke-width:2; stroke-opacity:0.1; fill:none"
     points="930.106,1401.58 930.106,47.2441 "
     id="polyline153021" />
  <polyline
     clip-path="url(#clip242)"
     style="stroke:#000000; stroke-linecap:round; stroke-linejoin:round; stroke-width:2; stroke-opacity:0.1; fill:none"
     points="1157.55,1401.58 1157.55,47.2441 "
     id="polyline153023" />
  <polyline
     clip-path="url(#clip242)"
     style="stroke:#000000; stroke-linecap:round; stroke-linejoin:round; stroke-width:2; stroke-opacity:0.1; fill:none"
     points="1384.99,1401.58 1384.99,47.2441 "
     id="polyline153025" />
  <polyline
     clip-path="url(#clip242)"
     style="stroke:#000000; stroke-linecap:round; stroke-linejoin:round; stroke-width:2; stroke-opacity:0.1; fill:none"
     points="1612.43,1401.58 1612.43,47.2441 "
     id="polyline153027" />
  <polyline
     clip-path="url(#clip242)"
     style="stroke:#000000; stroke-linecap:round; stroke-linejoin:round; stroke-width:2; stroke-opacity:0.1; fill:none"
     points="1839.87,1401.58 1839.87,47.2441 "
     id="polyline153029" />
  <polyline
     clip-path="url(#clip242)"
     style="stroke:#000000; stroke-linecap:round; stroke-linejoin:round; stroke-width:2; stroke-opacity:0.1; fill:none"
     points="2067.32,1401.58 2067.32,47.2441 "
     id="polyline153031" />
  <polyline
     clip-path="url(#clip242)"
     style="stroke:#000000; stroke-linecap:round; stroke-linejoin:round; stroke-width:2; stroke-opacity:0.1; fill:none"
     points="2294.76,1401.58 2294.76,47.2441 "
     id="polyline153033" />
  <polyline
     clip-path="url(#clip242)"
     style="stroke:#000000; stroke-linecap:round; stroke-linejoin:round; stroke-width:2; stroke-opacity:0.1; fill:none"
     points="303.503,1381.99 2352.76,1381.99 "
     id="polyline153035" />
  <polyline
     clip-path="url(#clip242)"
     style="stroke:#000000; stroke-linecap:round; stroke-linejoin:round; stroke-width:2; stroke-opacity:0.1; fill:none"
     points="303.503,997.612 2352.76,997.612 "
     id="polyline153037" />
  <polyline
     clip-path="url(#clip242)"
     style="stroke:#000000; stroke-linecap:round; stroke-linejoin:round; stroke-width:2; stroke-opacity:0.1; fill:none"
     points="303.503,613.24 2352.76,613.24 "
     id="polyline153039" />
  <polyline
     clip-path="url(#clip242)"
     style="stroke:#000000; stroke-linecap:round; stroke-linejoin:round; stroke-width:2; stroke-opacity:0.1; fill:none"
     points="303.503,228.867 2352.76,228.867 "
     id="polyline153041" />
  <polyline
     clip-path="url(#clip240)"
     style="stroke:#000000; stroke-linecap:round; stroke-linejoin:round; stroke-width:4; stroke-opacity:1; fill:none"
     points="303.503,1401.58 2352.76,1401.58 "
     id="polyline153043" />
  <polyline
     clip-path="url(#clip240)"
     style="stroke:#000000; stroke-linecap:round; stroke-linejoin:round; stroke-width:4; stroke-opacity:1; fill:none"
     points="475.222,1401.58 475.222,1382.68 "
     id="polyline153045" />
  <polyline
     clip-path="url(#clip240)"
     style="stroke:#000000; stroke-linecap:round; stroke-linejoin:round; stroke-width:4; stroke-opacity:1; fill:none"
     points="702.664,1401.58 702.664,1382.68 "
     id="polyline153047" />
  <polyline
     clip-path="url(#clip240)"
     style="stroke:#000000; stroke-linecap:round; stroke-linejoin:round; stroke-width:4; stroke-opacity:1; fill:none"
     points="930.106,1401.58 930.106,1382.68 "
     id="polyline153049" />
  <polyline
     clip-path="url(#clip240)"
     style="stroke:#000000; stroke-linecap:round; stroke-linejoin:round; stroke-width:4; stroke-opacity:1; fill:none"
     points="1157.55,1401.58 1157.55,1382.68 "
     id="polyline153051" />
  <polyline
     clip-path="url(#clip240)"
     style="stroke:#000000; stroke-linecap:round; stroke-linejoin:round; stroke-width:4; stroke-opacity:1; fill:none"
     points="1384.99,1401.58 1384.99,1382.68 "
     id="polyline153053" />
  <polyline
     clip-path="url(#clip240)"
     style="stroke:#000000; stroke-linecap:round; stroke-linejoin:round; stroke-width:4; stroke-opacity:1; fill:none"
     points="1612.43,1401.58 1612.43,1382.68 "
     id="polyline153055" />
  <polyline
     clip-path="url(#clip240)"
     style="stroke:#000000; stroke-linecap:round; stroke-linejoin:round; stroke-width:4; stroke-opacity:1; fill:none"
     points="1839.87,1401.58 1839.87,1382.68 "
     id="polyline153057" />
  <polyline
     clip-path="url(#clip240)"
     style="stroke:#000000; stroke-linecap:round; stroke-linejoin:round; stroke-width:4; stroke-opacity:1; fill:none"
     points="2067.32,1401.58 2067.32,1382.68 "
     id="polyline153059" />
  <polyline
     clip-path="url(#clip240)"
     style="stroke:#000000; stroke-linecap:round; stroke-linejoin:round; stroke-width:4; stroke-opacity:1; fill:none"
     points="2294.76,1401.58 2294.76,1382.68 "
     id="polyline153061" />
  <path
     clip-path="url(#clip240)"
     d="M479.736 1439.85 L462.027 1467.52 L479.736 1467.52 L479.736 1439.85 M477.895 1433.74 L486.715 1433.74 L486.715 1467.52 L494.111 1467.52 L494.111 1473.36 L486.715 1473.36 L486.715 1485.58 L479.736 1485.58 L479.736 1473.36 L456.333 1473.36 L456.333 1466.59 L477.895 1433.74 Z"
     fill="#000000"
     fill-rule="nonzero"
     fill-opacity="1"
     id="path153063" />
  <path
     clip-path="url(#clip240)"
     d="M703.271 1456.86 Q698.549 1456.86 695.771 1460.09 Q693.028 1463.32 693.028 1468.95 Q693.028 1474.54 695.771 1477.8 Q698.549 1481.03 703.271 1481.03 Q707.994 1481.03 710.737 1477.8 Q713.514 1474.54 713.514 1468.95 Q713.514 1463.32 710.737 1460.09 Q707.994 1456.86 703.271 1456.86 M717.195 1434.89 L717.195 1441.27 Q714.556 1440.02 711.848 1439.36 Q709.174 1438.71 706.535 1438.71 Q699.591 1438.71 695.91 1443.39 Q692.265 1448.08 691.744 1457.56 Q693.792 1454.54 696.883 1452.94 Q699.973 1451.31 703.688 1451.31 Q711.501 1451.31 716.014 1456.07 Q720.563 1460.79 720.563 1468.95 Q720.563 1476.93 715.841 1481.76 Q711.119 1486.59 703.271 1486.59 Q694.278 1486.59 689.521 1479.71 Q684.765 1472.8 684.765 1459.71 Q684.765 1447.42 690.598 1440.13 Q696.431 1432.8 706.258 1432.8 Q708.896 1432.8 711.57 1433.32 Q714.278 1433.84 717.195 1434.89 Z"
     fill="#000000"
     fill-rule="nonzero"
     fill-opacity="1"
     id="path153065" />
  <path
     clip-path="url(#clip240)"
     d="M930.106 1460.96 Q925.106 1460.96 922.224 1463.64 Q919.377 1466.31 919.377 1471 Q919.377 1475.68 922.224 1478.36 Q925.106 1481.03 930.106 1481.03 Q935.106 1481.03 937.988 1478.36 Q940.87 1475.65 940.87 1471 Q940.87 1466.31 937.988 1463.64 Q935.141 1460.96 930.106 1460.96 M923.092 1457.98 Q918.578 1456.86 916.043 1453.77 Q913.543 1450.68 913.543 1446.24 Q913.543 1440.02 917.953 1436.41 Q922.398 1432.8 930.106 1432.8 Q937.849 1432.8 942.259 1436.41 Q946.668 1440.02 946.668 1446.24 Q946.668 1450.68 944.134 1453.77 Q941.634 1456.86 937.154 1457.98 Q942.224 1459.16 945.036 1462.59 Q947.884 1466.03 947.884 1471 Q947.884 1478.53 943.265 1482.56 Q938.682 1486.59 930.106 1486.59 Q921.529 1486.59 916.911 1482.56 Q912.328 1478.53 912.328 1471 Q912.328 1466.03 915.175 1462.59 Q918.023 1459.16 923.092 1457.98 M920.523 1446.9 Q920.523 1450.93 923.023 1453.18 Q925.557 1455.44 930.106 1455.44 Q934.62 1455.44 937.154 1453.18 Q939.724 1450.93 939.724 1446.9 Q939.724 1442.87 937.154 1440.61 Q934.62 1438.36 930.106 1438.36 Q925.557 1438.36 923.023 1440.61 Q920.523 1442.87 920.523 1446.9 Z"
     fill="#000000"
     fill-rule="nonzero"
     fill-opacity="1"
     id="path153067" />
  <path
     clip-path="url(#clip240)"
     d="M1119.58 1479.68 L1131.04 1479.68 L1131.04 1440.13 L1118.57 1442.63 L1118.57 1436.24 L1130.97 1433.74 L1137.98 1433.74 L1137.98 1479.68 L1149.44 1479.68 L1149.44 1485.58 L1119.58 1485.58 L1119.58 1479.68 Z"
     fill="#000000"
     fill-rule="nonzero"
     fill-opacity="1"
     id="path153069" />
  <path
     clip-path="url(#clip240)"
     d="M1178.61 1438.36 Q1173.19 1438.36 1170.45 1443.71 Q1167.74 1449.02 1167.74 1459.71 Q1167.74 1470.37 1170.45 1475.72 Q1173.19 1481.03 1178.61 1481.03 Q1184.06 1481.03 1186.77 1475.72 Q1189.51 1470.37 1189.51 1459.71 Q1189.51 1449.02 1186.77 1443.71 Q1184.06 1438.36 1178.61 1438.36 M1178.61 1432.8 Q1187.32 1432.8 1191.91 1439.71 Q1196.52 1446.59 1196.52 1459.71 Q1196.52 1472.8 1191.91 1479.71 Q1187.32 1486.59 1178.61 1486.59 Q1169.89 1486.59 1165.27 1479.71 Q1160.69 1472.8 1160.69 1459.71 Q1160.69 1446.59 1165.27 1439.71 Q1169.89 1432.8 1178.61 1432.8 Z"
     fill="#000000"
     fill-rule="nonzero"
     fill-opacity="1"
     id="path153071" />
  <path
     clip-path="url(#clip240)"
     d="M1348.22 1479.68 L1359.68 1479.68 L1359.68 1440.13 L1347.21 1442.63 L1347.21 1436.24 L1359.61 1433.74 L1366.62 1433.74 L1366.62 1479.68 L1378.08 1479.68 L1378.08 1485.58 L1348.22 1485.58 L1348.22 1479.68 Z"
     fill="#000000"
     fill-rule="nonzero"
     fill-opacity="1"
     id="path153073" />
  <path
     clip-path="url(#clip240)"
     d="M1398.29 1479.68 L1422.77 1479.68 L1422.77 1485.58 L1389.85 1485.58 L1389.85 1479.68 Q1393.84 1475.55 1400.72 1468.6 Q1407.63 1461.62 1409.4 1459.61 Q1412.77 1455.82 1414.09 1453.22 Q1415.44 1450.58 1415.44 1448.05 Q1415.44 1443.91 1412.52 1441.31 Q1409.64 1438.71 1404.99 1438.71 Q1401.69 1438.71 1398.01 1439.85 Q1394.36 1441 1390.2 1443.32 L1390.2 1436.24 Q1394.43 1434.54 1398.11 1433.67 Q1401.8 1432.8 1404.85 1432.8 Q1412.91 1432.8 1417.7 1436.83 Q1422.49 1440.86 1422.49 1447.59 Q1422.49 1450.79 1421.27 1453.67 Q1420.09 1456.52 1416.93 1460.41 Q1416.07 1461.41 1411.41 1466.24 Q1406.76 1471.03 1398.29 1479.68 Z"
     fill="#000000"
     fill-rule="nonzero"
     fill-opacity="1"
     id="path153075" />
  <path
     clip-path="url(#clip240)"
     d="M1574.1 1479.68 L1585.56 1479.68 L1585.56 1440.13 L1573.09 1442.63 L1573.09 1436.24 L1585.49 1433.74 L1592.5 1433.74 L1592.5 1479.68 L1603.96 1479.68 L1603.96 1485.58 L1574.1 1485.58 L1574.1 1479.68 Z"
     fill="#000000"
     fill-rule="nonzero"
     fill-opacity="1"
     id="path153077" />
  <path
     clip-path="url(#clip240)"
     d="M1637.4 1439.85 L1619.69 1467.52 L1637.4 1467.52 L1637.4 1439.85 M1635.56 1433.74 L1644.38 1433.74 L1644.38 1467.52 L1651.77 1467.52 L1651.77 1473.36 L1644.38 1473.36 L1644.38 1485.58 L1637.4 1485.58 L1637.4 1473.36 L1613.99 1473.36 L1613.99 1466.59 L1635.56 1433.74 Z"
     fill="#000000"
     fill-rule="nonzero"
     fill-opacity="1"
     id="path153079" />
  <path
     clip-path="url(#clip240)"
     d="M1801.78 1479.68 L1813.24 1479.68 L1813.24 1440.13 L1800.78 1442.63 L1800.78 1436.24 L1813.17 1433.74 L1820.19 1433.74 L1820.19 1479.68 L1831.64 1479.68 L1831.64 1485.58 L1801.78 1485.58 L1801.78 1479.68 Z"
     fill="#000000"
     fill-rule="nonzero"
     fill-opacity="1"
     id="path153081" />
  <path
     clip-path="url(#clip240)"
     d="M1861.68 1456.86 Q1856.96 1456.86 1854.18 1460.09 Q1851.44 1463.32 1851.44 1468.95 Q1851.44 1474.54 1854.18 1477.8 Q1856.96 1481.03 1861.68 1481.03 Q1866.4 1481.03 1869.14 1477.8 Q1871.92 1474.54 1871.92 1468.95 Q1871.92 1463.32 1869.14 1460.09 Q1866.4 1456.86 1861.68 1456.86 M1875.6 1434.89 L1875.6 1441.27 Q1872.96 1440.02 1870.26 1439.36 Q1867.58 1438.71 1864.94 1438.71 Q1858 1438.71 1854.32 1443.39 Q1850.67 1448.08 1850.15 1457.56 Q1852.2 1454.54 1855.29 1452.94 Q1858.38 1451.31 1862.1 1451.31 Q1869.91 1451.31 1874.42 1456.07 Q1878.97 1460.79 1878.97 1468.95 Q1878.97 1476.93 1874.25 1481.76 Q1869.53 1486.59 1861.68 1486.59 Q1852.69 1486.59 1847.93 1479.71 Q1843.17 1472.8 1843.17 1459.71 Q1843.17 1447.42 1849.01 1440.13 Q1854.84 1432.8 1864.67 1432.8 Q1867.3 1432.8 1869.98 1433.32 Q1872.69 1433.84 1875.6 1434.89 Z"
     fill="#000000"
     fill-rule="nonzero"
     fill-opacity="1"
     id="path153083" />
  <path
     clip-path="url(#clip240)"
     d="M2029.42 1479.68 L2040.88 1479.68 L2040.88 1440.13 L2028.41 1442.63 L2028.41 1436.24 L2040.81 1433.74 L2047.82 1433.74 L2047.82 1479.68 L2059.28 1479.68 L2059.28 1485.58 L2029.42 1485.58 L2029.42 1479.68 Z"
     fill="#000000"
     fill-rule="nonzero"
     fill-opacity="1"
     id="path153085" />
  <path
     clip-path="url(#clip240)"
     d="M2088.44 1460.96 Q2083.44 1460.96 2080.56 1463.64 Q2077.72 1466.31 2077.72 1471 Q2077.72 1475.68 2080.56 1478.36 Q2083.44 1481.03 2088.44 1481.03 Q2093.44 1481.03 2096.33 1478.36 Q2099.21 1475.65 2099.21 1471 Q2099.21 1466.31 2096.33 1463.64 Q2093.48 1460.96 2088.44 1460.96 M2081.43 1457.98 Q2076.92 1456.86 2074.38 1453.77 Q2071.88 1450.68 2071.88 1446.24 Q2071.88 1440.02 2076.29 1436.41 Q2080.74 1432.8 2088.44 1432.8 Q2096.19 1432.8 2100.6 1436.41 Q2105.01 1440.02 2105.01 1446.24 Q2105.01 1450.68 2102.47 1453.77 Q2099.97 1456.86 2095.49 1457.98 Q2100.56 1459.16 2103.37 1462.59 Q2106.22 1466.03 2106.22 1471 Q2106.22 1478.53 2101.6 1482.56 Q2097.02 1486.59 2088.44 1486.59 Q2079.87 1486.59 2075.25 1482.56 Q2070.67 1478.53 2070.67 1471 Q2070.67 1466.03 2073.51 1462.59 Q2076.36 1459.16 2081.43 1457.98 M2078.86 1446.9 Q2078.86 1450.93 2081.36 1453.18 Q2083.9 1455.44 2088.44 1455.44 Q2092.96 1455.44 2095.49 1453.18 Q2098.06 1450.93 2098.06 1446.9 Q2098.06 1442.87 2095.49 1440.61 Q2092.96 1438.36 2088.44 1438.36 Q2083.9 1438.36 2081.36 1440.61 Q2078.86 1442.87 2078.86 1446.9 Z"
     fill="#000000"
     fill-rule="nonzero"
     fill-opacity="1"
     id="path153087" />
  <path
     clip-path="url(#clip240)"
     d="M2262.92 1479.68 L2287.4 1479.68 L2287.4 1485.58 L2254.48 1485.58 L2254.48 1479.68 Q2258.47 1475.55 2265.35 1468.6 Q2272.26 1461.62 2274.03 1459.61 Q2277.4 1455.82 2278.72 1453.22 Q2280.07 1450.58 2280.07 1448.05 Q2280.07 1443.91 2277.15 1441.31 Q2274.27 1438.71 2269.62 1438.71 Q2266.32 1438.71 2262.64 1439.85 Q2258.99 1441 2254.83 1443.32 L2254.83 1436.24 Q2259.06 1434.54 2262.74 1433.67 Q2266.42 1432.8 2269.48 1432.8 Q2277.54 1432.8 2282.33 1436.83 Q2287.12 1440.86 2287.12 1447.59 Q2287.12 1450.79 2285.9 1453.67 Q2284.72 1456.52 2281.56 1460.41 Q2280.7 1461.41 2276.04 1466.24 Q2271.39 1471.03 2262.92 1479.68 Z"
     fill="#000000"
     fill-rule="nonzero"
     fill-opacity="1"
     id="path153089" />
  <path
     clip-path="url(#clip240)"
     d="M2317.12 1438.36 Q2311.7 1438.36 2308.96 1443.71 Q2306.25 1449.02 2306.25 1459.71 Q2306.25 1470.37 2308.96 1475.72 Q2311.7 1481.03 2317.12 1481.03 Q2322.57 1481.03 2325.28 1475.72 Q2328.02 1470.37 2328.02 1459.71 Q2328.02 1449.02 2325.28 1443.71 Q2322.57 1438.36 2317.12 1438.36 M2317.12 1432.8 Q2325.83 1432.8 2330.42 1439.71 Q2335.04 1446.59 2335.04 1459.71 Q2335.04 1472.8 2330.42 1479.71 Q2325.83 1486.59 2317.12 1486.59 Q2308.4 1486.59 2303.79 1479.71 Q2299.2 1472.8 2299.2 1459.71 Q2299.2 1446.59 2303.79 1439.71 Q2308.4 1432.8 2317.12 1432.8 Z"
     fill="#000000"
     fill-rule="nonzero"
     fill-opacity="1"
     id="path153091" />
  <path
     clip-path="url(#clip240)"
     d="M1339.12 1544.56 L1339.12 1523.52 L1345.51 1523.52 L1345.51 1577.55 L1339.12 1577.55 L1339.12 1571.71 Q1337.11 1575.19 1334.01 1576.89 Q1330.96 1578.55 1326.65 1578.55 Q1319.61 1578.55 1315.16 1572.93 Q1310.75 1567.3 1310.75 1558.14 Q1310.75 1548.97 1315.16 1543.35 Q1319.61 1537.72 1326.65 1537.72 Q1330.96 1537.72 1334.01 1539.42 Q1337.11 1541.09 1339.12 1544.56 M1317.35 1558.14 Q1317.35 1565.19 1320.23 1569.21 Q1323.15 1573.21 1328.22 1573.21 Q1333.29 1573.21 1336.2 1569.21 Q1339.12 1565.19 1339.12 1558.14 Q1339.12 1551.09 1336.2 1547.1 Q1333.29 1543.07 1328.22 1543.07 Q1323.15 1543.07 1320.23 1547.1 Q1317.35 1551.09 1317.35 1558.14 Z"
     fill="#000000"
     fill-rule="nonzero"
     fill-opacity="1"
     id="path153093" />
  <polyline
     clip-path="url(#clip240)"
     style="stroke:#000000; stroke-linecap:round; stroke-linejoin:round; stroke-width:4; stroke-opacity:1; fill:none"
     points="303.503,1401.58 303.503,47.2441 "
     id="polyline153095" />
  <polyline
     clip-path="url(#clip240)"
     style="stroke:#000000; stroke-linecap:round; stroke-linejoin:round; stroke-width:4; stroke-opacity:1; fill:none"
     points="303.503,1381.99 322.401,1381.99 "
     id="polyline153097" />
  <polyline
     clip-path="url(#clip240)"
     style="stroke:#000000; stroke-linecap:round; stroke-linejoin:round; stroke-width:4; stroke-opacity:1; fill:none"
     points="303.503,997.612 322.401,997.612 "
     id="polyline153099" />
  <polyline
     clip-path="url(#clip240)"
     style="stroke:#000000; stroke-linecap:round; stroke-linejoin:round; stroke-width:4; stroke-opacity:1; fill:none"
     points="303.503,613.24 322.401,613.24 "
     id="polyline153101" />
  <polyline
     clip-path="url(#clip240)"
     style="stroke:#000000; stroke-linecap:round; stroke-linejoin:round; stroke-width:4; stroke-opacity:1; fill:none"
     points="303.503,228.867 322.401,228.867 "
     id="polyline153103" />
  <path
     clip-path="url(#clip240)"
     d="M136.497 1360.68 Q131.08 1360.68 128.337 1366.03 Q125.629 1371.34 125.629 1382.04 Q125.629 1392.7 128.337 1398.04 Q131.08 1403.36 136.497 1403.36 Q141.948 1403.36 144.656 1398.04 Q147.399 1392.7 147.399 1382.04 Q147.399 1371.34 144.656 1366.03 Q141.948 1360.68 136.497 1360.68 M136.497 1355.13 Q145.212 1355.13 149.795 1362.04 Q154.413 1368.91 154.413 1382.04 Q154.413 1395.13 149.795 1402.04 Q145.212 1408.91 136.497 1408.91 Q127.781 1408.91 123.163 1402.04 Q118.58 1395.13 118.58 1382.04 Q118.58 1368.91 123.163 1362.04 Q127.781 1355.13 136.497 1355.13 Z"
     fill="#000000"
     fill-rule="nonzero"
     fill-opacity="1"
     id="path153105" />
  <path
     clip-path="url(#clip240)"
     d="M166.74 1399.09 L174.066 1399.09 L174.066 1407.91 L166.74 1407.91 L166.74 1399.09 Z"
     fill="#000000"
     fill-rule="nonzero"
     fill-opacity="1"
     id="path153107" />
  <path
     clip-path="url(#clip240)"
     d="M204.344 1360.68 Q198.927 1360.68 196.184 1366.03 Q193.476 1371.34 193.476 1382.04 Q193.476 1392.7 196.184 1398.04 Q198.927 1403.36 204.344 1403.36 Q209.795 1403.36 212.503 1398.04 Q215.246 1392.7 215.246 1382.04 Q215.246 1371.34 212.503 1366.03 Q209.795 1360.68 204.344 1360.68 M204.344 1355.13 Q213.059 1355.13 217.642 1362.04 Q222.26 1368.91 222.26 1382.04 Q222.26 1395.13 217.642 1402.04 Q213.059 1408.91 204.344 1408.91 Q195.628 1408.91 191.01 1402.04 Q186.427 1395.13 186.427 1382.04 Q186.427 1368.91 191.01 1362.04 Q195.628 1355.13 204.344 1355.13 Z"
     fill="#000000"
     fill-rule="nonzero"
     fill-opacity="1"
     id="path153109" />
  <path
     clip-path="url(#clip240)"
     d="M249.586 1360.68 Q244.17 1360.68 241.427 1366.03 Q238.718 1371.34 238.718 1382.04 Q238.718 1392.7 241.427 1398.04 Q244.17 1403.36 249.586 1403.36 Q255.038 1403.36 257.746 1398.04 Q260.489 1392.7 260.489 1382.04 Q260.489 1371.34 257.746 1366.03 Q255.038 1360.68 249.586 1360.68 M249.586 1355.13 Q258.302 1355.13 262.885 1362.04 Q267.503 1368.91 267.503 1382.04 Q267.503 1395.13 262.885 1402.04 Q258.302 1408.91 249.586 1408.91 Q240.871 1408.91 236.253 1402.04 Q231.67 1395.13 231.67 1382.04 Q231.67 1368.91 236.253 1362.04 Q240.871 1355.13 249.586 1355.13 Z"
     fill="#000000"
     fill-rule="nonzero"
     fill-opacity="1"
     id="path153111" />
  <path
     clip-path="url(#clip240)"
     d="M137.99 976.31 Q132.573 976.31 129.83 981.657 Q127.122 986.97 127.122 997.664 Q127.122 1008.32 129.83 1013.67 Q132.573 1018.98 137.99 1018.98 Q143.441 1018.98 146.149 1013.67 Q148.892 1008.32 148.892 997.664 Q148.892 986.97 146.149 981.657 Q143.441 976.31 137.99 976.31 M137.99 970.755 Q146.705 970.755 151.288 977.664 Q155.906 984.539 155.906 997.664 Q155.906 1010.75 151.288 1017.66 Q146.705 1024.54 137.99 1024.54 Q129.275 1024.54 124.657 1017.66 Q120.073 1010.75 120.073 997.664 Q120.073 984.539 124.657 977.664 Q129.275 970.755 137.99 970.755 Z"
     fill="#000000"
     fill-rule="nonzero"
     fill-opacity="1"
     id="path153113" />
  <path
     clip-path="url(#clip240)"
     d="M168.233 1014.71 L175.559 1014.71 L175.559 1023.53 L168.233 1023.53 L168.233 1014.71 Z"
     fill="#000000"
     fill-rule="nonzero"
     fill-opacity="1"
     id="path153115" />
  <path
     clip-path="url(#clip240)"
     d="M205.837 976.31 Q200.42 976.31 197.677 981.657 Q194.969 986.97 194.969 997.664 Q194.969 1008.32 197.677 1013.67 Q200.42 1018.98 205.837 1018.98 Q211.288 1018.98 213.996 1013.67 Q216.739 1008.32 216.739 997.664 Q216.739 986.97 213.996 981.657 Q211.288 976.31 205.837 976.31 M205.837 970.755 Q214.552 970.755 219.135 977.664 Q223.753 984.539 223.753 997.664 Q223.753 1010.75 219.135 1017.66 Q214.552 1024.54 205.837 1024.54 Q197.121 1024.54 192.503 1017.66 Q187.92 1010.75 187.92 997.664 Q187.92 984.539 192.503 977.664 Q197.121 970.755 205.837 970.755 Z"
     fill="#000000"
     fill-rule="nonzero"
     fill-opacity="1"
     id="path153117" />
  <path
     clip-path="url(#clip240)"
     d="M236.149 971.692 L263.684 971.692 L263.684 977.595 L242.573 977.595 L242.573 990.303 Q244.1 989.782 245.628 989.539 Q247.156 989.262 248.684 989.262 Q257.364 989.262 262.434 994.019 Q267.503 998.775 267.503 1006.9 Q267.503 1015.27 262.295 1019.92 Q257.086 1024.54 247.607 1024.54 Q244.343 1024.54 240.941 1023.98 Q237.573 1023.43 233.961 1022.32 L233.961 1015.27 Q237.086 1016.97 240.42 1017.8 Q243.753 1018.64 247.468 1018.64 Q253.475 1018.64 256.982 1015.48 Q260.489 1012.32 260.489 1006.9 Q260.489 1001.48 256.982 998.324 Q253.475 995.164 247.468 995.164 Q244.656 995.164 241.843 995.789 Q239.066 996.414 236.149 997.734 L236.149 971.692 Z"
     fill="#000000"
     fill-rule="nonzero"
     fill-opacity="1"
     id="path153119" />
  <path
     clip-path="url(#clip240)"
     d="M136.497 591.938 Q131.08 591.938 128.337 597.285 Q125.629 602.597 125.629 613.292 Q125.629 623.951 128.337 629.298 Q131.08 634.611 136.497 634.611 Q141.948 634.611 144.656 629.298 Q147.399 623.951 147.399 613.292 Q147.399 602.597 144.656 597.285 Q141.948 591.938 136.497 591.938 M136.497 586.382 Q145.212 586.382 149.795 593.292 Q154.413 600.167 154.413 613.292 Q154.413 626.382 149.795 633.291 Q145.212 640.166 136.497 640.166 Q127.781 640.166 123.163 633.291 Q118.58 626.382 118.58 613.292 Q118.58 600.167 123.163 593.292 Q127.781 586.382 136.497 586.382 Z"
     fill="#000000"
     fill-rule="nonzero"
     fill-opacity="1"
     id="path153121" />
  <path
     clip-path="url(#clip240)"
     d="M166.74 630.34 L174.066 630.34 L174.066 639.16 L166.74 639.16 L166.74 630.34 Z"
     fill="#000000"
     fill-rule="nonzero"
     fill-opacity="1"
     id="path153123" />
  <path
     clip-path="url(#clip240)"
     d="M190.559 633.257 L202.017 633.257 L202.017 593.708 L189.552 596.208 L189.552 589.819 L201.948 587.32 L208.962 587.32 L208.962 633.257 L220.42 633.257 L220.42 639.16 L190.559 639.16 L190.559 633.257 Z"
     fill="#000000"
     fill-rule="nonzero"
     fill-opacity="1"
     id="path153125" />
  <path
     clip-path="url(#clip240)"
     d="M249.586 591.938 Q244.17 591.938 241.427 597.285 Q238.718 602.597 238.718 613.292 Q238.718 623.951 241.427 629.298 Q244.17 634.611 249.586 634.611 Q255.038 634.611 257.746 629.298 Q260.489 623.951 260.489 613.292 Q260.489 602.597 257.746 597.285 Q255.038 591.938 249.586 591.938 M249.586 586.382 Q258.302 586.382 262.885 593.292 Q267.503 600.167 267.503 613.292 Q267.503 626.382 262.885 633.291 Q258.302 640.166 249.586 640.166 Q240.871 640.166 236.253 633.291 Q231.67 626.382 231.67 613.292 Q231.67 600.167 236.253 593.292 Q240.871 586.382 249.586 586.382 Z"
     fill="#000000"
     fill-rule="nonzero"
     fill-opacity="1"
     id="path153127" />
  <path
     clip-path="url(#clip240)"
     d="M137.99 207.565 Q132.573 207.565 129.83 212.912 Q127.122 218.224 127.122 228.919 Q127.122 239.578 129.83 244.926 Q132.573 250.238 137.99 250.238 Q143.441 250.238 146.149 244.926 Q148.892 239.578 148.892 228.919 Q148.892 218.224 146.149 212.912 Q143.441 207.565 137.99 207.565 M137.99 202.009 Q146.705 202.009 151.288 208.919 Q155.906 215.794 155.906 228.919 Q155.906 242.009 151.288 248.919 Q146.705 255.794 137.99 255.794 Q129.275 255.794 124.657 248.919 Q120.073 242.009 120.073 228.919 Q120.073 215.794 124.657 208.919 Q129.275 202.009 137.99 202.009 Z"
     fill="#000000"
     fill-rule="nonzero"
     fill-opacity="1"
     id="path153129" />
  <path
     clip-path="url(#clip240)"
     d="M168.233 245.967 L175.559 245.967 L175.559 254.787 L168.233 254.787 L168.233 245.967 Z"
     fill="#000000"
     fill-rule="nonzero"
     fill-opacity="1"
     id="path153131" />
  <path
     clip-path="url(#clip240)"
     d="M192.052 248.884 L203.51 248.884 L203.51 209.336 L191.045 211.836 L191.045 205.447 L203.441 202.947 L210.455 202.947 L210.455 248.884 L221.913 248.884 L221.913 254.787 L192.052 254.787 L192.052 248.884 Z"
     fill="#000000"
     fill-rule="nonzero"
     fill-opacity="1"
     id="path153133" />
  <path
     clip-path="url(#clip240)"
     d="M236.149 202.947 L263.684 202.947 L263.684 208.849 L242.573 208.849 L242.573 221.558 Q244.1 221.037 245.628 220.794 Q247.156 220.516 248.684 220.516 Q257.364 220.516 262.434 225.273 Q267.503 230.03 267.503 238.155 Q267.503 246.523 262.295 251.176 Q257.086 255.794 247.607 255.794 Q244.343 255.794 240.941 255.238 Q237.573 254.683 233.961 253.571 L233.961 246.523 Q237.086 248.224 240.42 249.058 Q243.753 249.891 247.468 249.891 Q253.475 249.891 256.982 246.731 Q260.489 243.572 260.489 238.155 Q260.489 232.738 256.982 229.579 Q253.475 226.419 247.468 226.419 Q244.656 226.419 241.843 227.044 Q239.066 227.669 236.149 228.988 L236.149 202.947 Z"
     fill="#000000"
     fill-rule="nonzero"
     fill-opacity="1"
     id="path153135" />
  <path
     clip-path="url(#clip240)"
     d="M15.1882 1047.15 L15.1882 1036.7 L50.4657 1023.47 L15.1882 1010.17 L15.1882 999.723 L67.0282 999.723 L67.0282 1006.56 L21.5076 1006.56 L57.0629 1019.93 L57.0629 1026.98 L21.5076 1040.35 L67.0282 1040.35 L67.0282 1047.15 L15.1882 1047.15 Z"
     fill="#000000"
     fill-rule="nonzero"
     fill-opacity="1"
     id="path153137" />
  <path
     clip-path="url(#clip240)"
     d="M45.9866 952.814 L49.1116 952.814 L49.1116 982.188 Q55.7088 981.772 59.181 978.23 Q62.6185 974.654 62.6185 968.3 Q62.6185 964.619 61.7157 961.182 Q60.8129 957.709 59.0074 954.307 L65.049 954.307 Q66.5073 957.744 67.2712 961.355 Q68.0351 964.966 68.0351 968.681 Q68.0351 977.987 62.6185 983.438 Q57.2018 988.855 47.9658 988.855 Q38.4172 988.855 32.827 983.716 Q27.202 978.543 27.202 969.793 Q27.202 961.945 32.2714 957.397 Q37.3061 952.814 45.9866 952.814 M44.1116 959.202 Q38.8686 959.272 35.7436 962.154 Q32.6186 965.001 32.6186 969.723 Q32.6186 975.07 35.6394 978.299 Q38.6603 981.494 44.1463 981.98 L44.1116 959.202 Z"
     fill="#000000"
     fill-rule="nonzero"
     fill-opacity="1"
     id="path153139" />
  <path
     clip-path="url(#clip240)"
     d="M47.4797 924.654 Q47.4797 932.397 49.2505 935.383 Q51.0213 938.369 55.2921 938.369 Q58.6949 938.369 60.7087 936.147 Q62.6879 933.89 62.6879 930.036 Q62.6879 924.723 58.9379 921.529 Q55.1532 918.3 48.9033 918.3 L47.4797 918.3 L47.4797 924.654 M44.8408 911.911 L67.0282 911.911 L67.0282 918.3 L61.1254 918.3 Q64.6671 920.487 66.3684 923.751 Q68.0351 927.015 68.0351 931.737 Q68.0351 937.709 64.7018 941.251 Q61.3337 944.758 55.7088 944.758 Q49.1463 944.758 45.813 940.383 Q42.4797 935.973 42.4797 927.258 L42.4797 918.3 L41.8547 918.3 Q37.445 918.3 35.0492 921.216 Q32.6186 924.098 32.6186 929.341 Q32.6186 932.675 33.4172 935.834 Q34.2158 938.994 35.813 941.911 L29.9103 941.911 Q28.5561 938.404 27.8964 935.105 Q27.202 931.807 27.202 928.682 Q27.202 920.244 31.577 916.078 Q35.9519 911.911 44.8408 911.911 Z"
     fill="#000000"
     fill-rule="nonzero"
     fill-opacity="1"
     id="path153141" />
  <path
     clip-path="url(#clip240)"
     d="M43.5561 866.425 L67.0282 866.425 L67.0282 872.814 L43.7644 872.814 Q38.2436 872.814 35.5005 874.967 Q32.7575 877.119 32.7575 881.425 Q32.7575 886.599 36.0561 889.585 Q39.3547 892.571 45.0491 892.571 L67.0282 892.571 L67.0282 898.994 L28.1395 898.994 L28.1395 892.571 L34.1811 892.571 Q30.6742 890.279 28.9381 887.189 Q27.202 884.064 27.202 880.001 Q27.202 873.3 31.3686 869.863 Q35.5005 866.425 43.5561 866.425 Z"
     fill="#000000"
     fill-rule="nonzero"
     fill-opacity="1"
     id="path153143" />
  <path
     clip-path="url(#clip240)"
     d="M15.1882 830.8 L15.1882 798.023 L21.0909 798.023 L21.0909 823.786 L36.438 823.786 L36.438 799.099 L42.3408 799.099 L42.3408 823.786 L61.1254 823.786 L61.1254 797.398 L67.0282 797.398 L67.0282 830.8 L15.1882 830.8 Z"
     fill="#000000"
     fill-rule="nonzero"
     fill-opacity="1"
     id="path153145" />
  <path
     clip-path="url(#clip240)"
     d="M34.1117 763.613 Q33.4867 764.69 33.2089 765.974 Q32.8964 767.224 32.8964 768.752 Q32.8964 774.169 36.438 777.085 Q39.945 779.967 46.5422 779.967 L67.0282 779.967 L67.0282 786.391 L28.1395 786.391 L28.1395 779.967 L34.1811 779.967 Q30.6395 777.953 28.9381 774.724 Q27.202 771.495 27.202 766.877 Q27.202 766.217 27.3061 765.419 Q27.3756 764.62 27.5492 763.648 L34.1117 763.613 Z"
     fill="#000000"
     fill-rule="nonzero"
     fill-opacity="1"
     id="path153147" />
  <path
     clip-path="url(#clip240)"
     d="M34.1117 735.627 Q33.4867 736.704 33.2089 737.988 Q32.8964 739.238 32.8964 740.766 Q32.8964 746.183 36.438 749.099 Q39.945 751.981 46.5422 751.981 L67.0282 751.981 L67.0282 758.405 L28.1395 758.405 L28.1395 751.981 L34.1811 751.981 Q30.6395 749.967 28.9381 746.738 Q27.202 743.509 27.202 738.891 Q27.202 738.231 27.3061 737.433 Q27.3756 736.634 27.5492 735.662 L34.1117 735.627 Z"
     fill="#000000"
     fill-rule="nonzero"
     fill-opacity="1"
     id="path153149" />
  <path
     clip-path="url(#clip240)"
     d="M58.2088 734.551 L58.2088 727.224 L67.0282 727.224 L67.0282 734.551 L58.2088 734.551 Z"
     fill="#000000"
     fill-rule="nonzero"
     fill-opacity="1"
     id="path153151" />
  <path
     clip-path="url(#clip240)"
     d="M45.2574 685.037 Q47.8269 684.794 51.9935 682.607 Q56.8199 680.037 59.5282 675.176 Q62.1671 670.419 62.2018 665.28 L62.2018 641.079 L67.7226 641.079 L67.7226 665.28 Q67.7226 671.947 64.2851 678.127 Q60.8476 684.273 54.7366 687.572 Q48.6255 690.87 42.1325 690.87 Q35.7089 690.87 29.5978 687.572 Q23.4867 684.273 20.0145 678.127 Q16.5423 671.947 16.5423 665.28 L16.5423 641.079 L22.0631 641.079 L22.0631 665.28 Q22.0978 670.419 24.7714 675.176 Q27.5145 680.002 32.3061 682.607 Q36.4728 684.829 39.7019 685.141 L39.7019 641.079 L45.2574 641.079 L45.2574 685.037 Z"
     fill="#000000"
     fill-rule="nonzero"
     fill-opacity="1"
     id="path153153" />
  <path
     clip-path="url(#clip240)"
     d="M13.0007 606.288 L13.0007 591.565 L17.9659 591.565 L17.9659 599.899 L71.4379 599.899 L71.4379 591.565 L76.4031 591.565 L76.4031 606.288 L13.0007 606.288 Z"
     fill="#000000"
     fill-rule="nonzero"
     fill-opacity="1"
     id="path153155" />
  <path
     clip-path="url(#clip240)"
     d="M44.7019 581.184 L44.7019 562.468 L50.3963 562.468 L50.3963 581.184 L44.7019 581.184 Z"
     fill="#000000"
     fill-rule="nonzero"
     fill-opacity="1"
     id="path153157" />
  <path
     clip-path="url(#clip240)"
     d="M61.1254 550.177 L61.1254 538.719 L21.577 538.719 L24.077 551.184 L17.6881 551.184 L15.1882 538.788 L15.1882 531.774 L61.1254 531.774 L61.1254 520.316 L67.0282 520.316 L67.0282 550.177 L61.1254 550.177 Z"
     fill="#000000"
     fill-rule="nonzero"
     fill-opacity="1"
     id="path153159" />
  <path
     clip-path="url(#clip240)"
     d="M58.2088 505.42 L58.2088 498.094 L64.181 498.094 L75.292 503.788 L75.292 508.267 L64.181 505.42 L58.2088 505.42 Z"
     fill="#000000"
     fill-rule="nonzero"
     fill-opacity="1"
     id="path153161" />
  <path
     clip-path="url(#clip240)"
     d="M61.1254 459.726 L61.1254 448.268 L21.577 448.268 L24.077 460.733 L17.6881 460.733 L15.1882 448.337 L15.1882 441.323 L61.1254 441.323 L61.1254 429.865 L67.0282 429.865 L67.0282 459.726 L61.1254 459.726 Z"
     fill="#000000"
     fill-rule="nonzero"
     fill-opacity="1"
     id="path153163" />
  <path
     clip-path="url(#clip240)"
     d="M13.0007 401.671 L76.4031 401.671 L76.4031 416.393 L71.4379 416.393 L71.4379 408.094 L17.9659 408.094 L17.9659 416.393 L13.0007 416.393 L13.0007 401.671 Z"
     fill="#000000"
     fill-rule="nonzero"
     fill-opacity="1"
     id="path153165" />
  <polyline
     clip-path="url(#clip242)"
     style="stroke:#1f77b4; stroke-linecap:round; stroke-linejoin:round; stroke-width:8; stroke-opacity:1; fill:none"
     points="361.501,866.342 475.222,1049.87 588.943,1167.71 702.664,1218.39 816.385,1255.72 930.106,1282.72 1043.83,1301.77 1157.55,1315.44 1271.27,1325.77 1384.99,1333.89 1498.71,1340.44 1612.43,1345.78 1726.15,1350.16 1839.87,1353.65 1953.6,1356.72 2067.32,1359.23 2181.04,1361.34 2294.76,1363.25 "
     id="polyline153167" />
  <circle
     clip-path="url(#clip242)"
     cx="361.501"
     cy="866.342"
     r="14.4"
     fill="#1f77b4"
     fill-rule="evenodd"
     fill-opacity="1"
     stroke="#000000"
     stroke-opacity="1"
     stroke-width="3.2"
     id="circle153169" />
  <circle
     clip-path="url(#clip242)"
     cx="475.222"
     cy="1049.87"
     r="14.4"
     fill="#1f77b4"
     fill-rule="evenodd"
     fill-opacity="1"
     stroke="#000000"
     stroke-opacity="1"
     stroke-width="3.2"
     id="circle153171" />
  <circle
     clip-path="url(#clip242)"
     cx="588.943"
     cy="1167.71"
     r="14.4"
     fill="#1f77b4"
     fill-rule="evenodd"
     fill-opacity="1"
     stroke="#000000"
     stroke-opacity="1"
     stroke-width="3.2"
     id="circle153173" />
  <circle
     clip-path="url(#clip242)"
     cx="702.664"
     cy="1218.39"
     r="14.4"
     fill="#1f77b4"
     fill-rule="evenodd"
     fill-opacity="1"
     stroke="#000000"
     stroke-opacity="1"
     stroke-width="3.2"
     id="circle153175" />
  <circle
     clip-path="url(#clip242)"
     cx="816.385"
     cy="1255.72"
     r="14.4"
     fill="#1f77b4"
     fill-rule="evenodd"
     fill-opacity="1"
     stroke="#000000"
     stroke-opacity="1"
     stroke-width="3.2"
     id="circle153177" />
  <circle
     clip-path="url(#clip242)"
     cx="930.106"
     cy="1282.72"
     r="14.4"
     fill="#1f77b4"
     fill-rule="evenodd"
     fill-opacity="1"
     stroke="#000000"
     stroke-opacity="1"
     stroke-width="3.2"
     id="circle153179" />
  <circle
     clip-path="url(#clip242)"
     cx="1043.83"
     cy="1301.77"
     r="14.4"
     fill="#1f77b4"
     fill-rule="evenodd"
     fill-opacity="1"
     stroke="#000000"
     stroke-opacity="1"
     stroke-width="3.2"
     id="circle153181" />
  <circle
     clip-path="url(#clip242)"
     cx="1157.55"
     cy="1315.44"
     r="14.4"
     fill="#1f77b4"
     fill-rule="evenodd"
     fill-opacity="1"
     stroke="#000000"
     stroke-opacity="1"
     stroke-width="3.2"
     id="circle153183" />
  <circle
     clip-path="url(#clip242)"
     cx="1271.27"
     cy="1325.77"
     r="14.4"
     fill="#1f77b4"
     fill-rule="evenodd"
     fill-opacity="1"
     stroke="#000000"
     stroke-opacity="1"
     stroke-width="3.2"
     id="circle153185" />
  <circle
     clip-path="url(#clip242)"
     cx="1384.99"
     cy="1333.89"
     r="14.4"
     fill="#1f77b4"
     fill-rule="evenodd"
     fill-opacity="1"
     stroke="#000000"
     stroke-opacity="1"
     stroke-width="3.2"
     id="circle153187" />
  <circle
     clip-path="url(#clip242)"
     cx="1498.71"
     cy="1340.44"
     r="14.4"
     fill="#1f77b4"
     fill-rule="evenodd"
     fill-opacity="1"
     stroke="#000000"
     stroke-opacity="1"
     stroke-width="3.2"
     id="circle153189" />
  <circle
     clip-path="url(#clip242)"
     cx="1612.43"
     cy="1345.78"
     r="14.4"
     fill="#1f77b4"
     fill-rule="evenodd"
     fill-opacity="1"
     stroke="#000000"
     stroke-opacity="1"
     stroke-width="3.2"
     id="circle153191" />
  <circle
     clip-path="url(#clip242)"
     cx="1726.15"
     cy="1350.16"
     r="14.4"
     fill="#1f77b4"
     fill-rule="evenodd"
     fill-opacity="1"
     stroke="#000000"
     stroke-opacity="1"
     stroke-width="3.2"
     id="circle153193" />
  <circle
     clip-path="url(#clip242)"
     cx="1839.87"
     cy="1353.65"
     r="14.4"
     fill="#1f77b4"
     fill-rule="evenodd"
     fill-opacity="1"
     stroke="#000000"
     stroke-opacity="1"
     stroke-width="3.2"
     id="circle153195" />
  <circle
     clip-path="url(#clip242)"
     cx="1953.6"
     cy="1356.72"
     r="14.4"
     fill="#1f77b4"
     fill-rule="evenodd"
     fill-opacity="1"
     stroke="#000000"
     stroke-opacity="1"
     stroke-width="3.2"
     id="circle153197" />
  <circle
     clip-path="url(#clip242)"
     cx="2067.32"
     cy="1359.23"
     r="14.4"
     fill="#1f77b4"
     fill-rule="evenodd"
     fill-opacity="1"
     stroke="#000000"
     stroke-opacity="1"
     stroke-width="3.2"
     id="circle153199" />
  <circle
     clip-path="url(#clip242)"
     cx="2181.04"
     cy="1361.34"
     r="14.4"
     fill="#1f77b4"
     fill-rule="evenodd"
     fill-opacity="1"
     stroke="#000000"
     stroke-opacity="1"
     stroke-width="3.2"
     id="circle153201" />
  <circle
     clip-path="url(#clip242)"
     cx="2294.76"
     cy="1363.25"
     r="14.4"
     fill="#1f77b4"
     fill-rule="evenodd"
     fill-opacity="1"
     stroke="#000000"
     stroke-opacity="1"
     stroke-width="3.2"
     id="circle153203" />
  <polyline
     clip-path="url(#clip242)"
     style="stroke:#ff7e0d; stroke-linecap:round; stroke-linejoin:round; stroke-width:8; stroke-opacity:1; fill:none"
     points="361.501,85.5744 475.222,727.691 588.943,986.749 702.664,1116.85 816.385,1191.53 930.106,1238.41 1043.83,1269.84 1157.55,1290.07 1271.27,1303.38 1384.99,1315.31 1498.71,1325.78 1612.43,1334.01 1726.15,1340.6 1839.87,1345.61 1953.6,1349.87 2067.32,1353.58 2181.04,1356.66 2294.76,1359.21 "
     id="polyline153205" />
  <circle
     clip-path="url(#clip242)"
     cx="361.501"
     cy="85.5744"
     r="14.4"
     fill="#ff7e0d"
     fill-rule="evenodd"
     fill-opacity="1"
     stroke="#000000"
     stroke-opacity="1"
     stroke-width="3.2"
     id="circle153207" />
  <circle
     clip-path="url(#clip242)"
     cx="475.222"
     cy="727.691"
     r="14.4"
     fill="#ff7e0d"
     fill-rule="evenodd"
     fill-opacity="1"
     stroke="#000000"
     stroke-opacity="1"
     stroke-width="3.2"
     id="circle153209" />
  <circle
     clip-path="url(#clip242)"
     cx="588.943"
     cy="986.749"
     r="14.4"
     fill="#ff7e0d"
     fill-rule="evenodd"
     fill-opacity="1"
     stroke="#000000"
     stroke-opacity="1"
     stroke-width="3.2"
     id="circle153211" />
  <circle
     clip-path="url(#clip242)"
     cx="702.664"
     cy="1116.85"
     r="14.4"
     fill="#ff7e0d"
     fill-rule="evenodd"
     fill-opacity="1"
     stroke="#000000"
     stroke-opacity="1"
     stroke-width="3.2"
     id="circle153213" />
  <circle
     clip-path="url(#clip242)"
     cx="816.385"
     cy="1191.53"
     r="14.4"
     fill="#ff7e0d"
     fill-rule="evenodd"
     fill-opacity="1"
     stroke="#000000"
     stroke-opacity="1"
     stroke-width="3.2"
     id="circle153215" />
  <circle
     clip-path="url(#clip242)"
     cx="930.106"
     cy="1238.41"
     r="14.4"
     fill="#ff7e0d"
     fill-rule="evenodd"
     fill-opacity="1"
     stroke="#000000"
     stroke-opacity="1"
     stroke-width="3.2"
     id="circle153217" />
  <circle
     clip-path="url(#clip242)"
     cx="1043.83"
     cy="1269.84"
     r="14.4"
     fill="#ff7e0d"
     fill-rule="evenodd"
     fill-opacity="1"
     stroke="#000000"
     stroke-opacity="1"
     stroke-width="3.2"
     id="circle153219" />
  <circle
     clip-path="url(#clip242)"
     cx="1157.55"
     cy="1290.07"
     r="14.4"
     fill="#ff7e0d"
     fill-rule="evenodd"
     fill-opacity="1"
     stroke="#000000"
     stroke-opacity="1"
     stroke-width="3.2"
     id="circle153221" />
  <circle
     clip-path="url(#clip242)"
     cx="1271.27"
     cy="1303.38"
     r="14.4"
     fill="#ff7e0d"
     fill-rule="evenodd"
     fill-opacity="1"
     stroke="#000000"
     stroke-opacity="1"
     stroke-width="3.2"
     id="circle153223" />
  <circle
     clip-path="url(#clip242)"
     cx="1384.99"
     cy="1315.31"
     r="14.4"
     fill="#ff7e0d"
     fill-rule="evenodd"
     fill-opacity="1"
     stroke="#000000"
     stroke-opacity="1"
     stroke-width="3.2"
     id="circle153225" />
  <circle
     clip-path="url(#clip242)"
     cx="1498.71"
     cy="1325.78"
     r="14.4"
     fill="#ff7e0d"
     fill-rule="evenodd"
     fill-opacity="1"
     stroke="#000000"
     stroke-opacity="1"
     stroke-width="3.2"
     id="circle153227" />
  <circle
     clip-path="url(#clip242)"
     cx="1612.43"
     cy="1334.01"
     r="14.4"
     fill="#ff7e0d"
     fill-rule="evenodd"
     fill-opacity="1"
     stroke="#000000"
     stroke-opacity="1"
     stroke-width="3.2"
     id="circle153229" />
  <circle
     clip-path="url(#clip242)"
     cx="1726.15"
     cy="1340.6"
     r="14.4"
     fill="#ff7e0d"
     fill-rule="evenodd"
     fill-opacity="1"
     stroke="#000000"
     stroke-opacity="1"
     stroke-width="3.2"
     id="circle153231" />
  <circle
     clip-path="url(#clip242)"
     cx="1839.87"
     cy="1345.61"
     r="14.4"
     fill="#ff7e0d"
     fill-rule="evenodd"
     fill-opacity="1"
     stroke="#000000"
     stroke-opacity="1"
     stroke-width="3.2"
     id="circle153233" />
  <circle
     clip-path="url(#clip242)"
     cx="1953.6"
     cy="1349.87"
     r="14.4"
     fill="#ff7e0d"
     fill-rule="evenodd"
     fill-opacity="1"
     stroke="#000000"
     stroke-opacity="1"
     stroke-width="3.2"
     id="circle153235" />
  <circle
     clip-path="url(#clip242)"
     cx="2067.32"
     cy="1353.58"
     r="14.4"
     fill="#ff7e0d"
     fill-rule="evenodd"
     fill-opacity="1"
     stroke="#000000"
     stroke-opacity="1"
     stroke-width="3.2"
     id="circle153237" />
  <circle
     clip-path="url(#clip242)"
     cx="2181.04"
     cy="1356.66"
     r="14.4"
     fill="#ff7e0d"
     fill-rule="evenodd"
     fill-opacity="1"
     stroke="#000000"
     stroke-opacity="1"
     stroke-width="3.2"
     id="circle153239" />
  <circle
     clip-path="url(#clip242)"
     cx="2294.76"
     cy="1359.21"
     r="14.4"
     fill="#ff7e0d"
     fill-rule="evenodd"
     fill-opacity="1"
     stroke="#000000"
     stroke-opacity="1"
     stroke-width="3.2"
     id="circle153241" />
  <polyline
     clip-path="url(#clip242)"
     style="stroke:#2ba02b; stroke-linecap:round; stroke-linejoin:round; stroke-width:8; stroke-opacity:1; fill:none"
     points="361.501,463.351 475.222,680.475 588.943,815.993 702.664,908.064 816.385,974.566 930.106,1024.8 1043.83,1064.07 1157.55,1095.6 1271.27,1121.47 1384.99,1143.06 1498.71,1161.37 1612.43,1177.07 1726.15,1190.7 1839.87,1202.62 1953.6,1213.16 2067.32,1222.52 2181.04,1230.9 2294.76,1238.44 "
     id="polyline153243" />
  <circle
     clip-path="url(#clip242)"
     cx="361.501"
     cy="463.351"
     r="14.4"
     fill="#2ba02b"
     fill-rule="evenodd"
     fill-opacity="1"
     stroke="#000000"
     stroke-opacity="1"
     stroke-width="3.2"
     id="circle153245" />
  <circle
     clip-path="url(#clip242)"
     cx="475.222"
     cy="680.475"
     r="14.4"
     fill="#2ba02b"
     fill-rule="evenodd"
     fill-opacity="1"
     stroke="#000000"
     stroke-opacity="1"
     stroke-width="3.2"
     id="circle153247" />
  <circle
     clip-path="url(#clip242)"
     cx="588.943"
     cy="815.993"
     r="14.4"
     fill="#2ba02b"
     fill-rule="evenodd"
     fill-opacity="1"
     stroke="#000000"
     stroke-opacity="1"
     stroke-width="3.2"
     id="circle153249" />
  <circle
     clip-path="url(#clip242)"
     cx="702.664"
     cy="908.064"
     r="14.4"
     fill="#2ba02b"
     fill-rule="evenodd"
     fill-opacity="1"
     stroke="#000000"
     stroke-opacity="1"
     stroke-width="3.2"
     id="circle153251" />
  <circle
     clip-path="url(#clip242)"
     cx="816.385"
     cy="974.566"
     r="14.4"
     fill="#2ba02b"
     fill-rule="evenodd"
     fill-opacity="1"
     stroke="#000000"
     stroke-opacity="1"
     stroke-width="3.2"
     id="circle153253" />
  <circle
     clip-path="url(#clip242)"
     cx="930.106"
     cy="1024.8"
     r="14.4"
     fill="#2ba02b"
     fill-rule="evenodd"
     fill-opacity="1"
     stroke="#000000"
     stroke-opacity="1"
     stroke-width="3.2"
     id="circle153255" />
  <circle
     clip-path="url(#clip242)"
     cx="1043.83"
     cy="1064.07"
     r="14.4"
     fill="#2ba02b"
     fill-rule="evenodd"
     fill-opacity="1"
     stroke="#000000"
     stroke-opacity="1"
     stroke-width="3.2"
     id="circle153257" />
  <circle
     clip-path="url(#clip242)"
     cx="1157.55"
     cy="1095.6"
     r="14.4"
     fill="#2ba02b"
     fill-rule="evenodd"
     fill-opacity="1"
     stroke="#000000"
     stroke-opacity="1"
     stroke-width="3.2"
     id="circle153259" />
  <circle
     clip-path="url(#clip242)"
     cx="1271.27"
     cy="1121.47"
     r="14.4"
     fill="#2ba02b"
     fill-rule="evenodd"
     fill-opacity="1"
     stroke="#000000"
     stroke-opacity="1"
     stroke-width="3.2"
     id="circle153261" />
  <circle
     clip-path="url(#clip242)"
     cx="1384.99"
     cy="1143.06"
     r="14.4"
     fill="#2ba02b"
     fill-rule="evenodd"
     fill-opacity="1"
     stroke="#000000"
     stroke-opacity="1"
     stroke-width="3.2"
     id="circle153263" />
  <circle
     clip-path="url(#clip242)"
     cx="1498.71"
     cy="1161.37"
     r="14.4"
     fill="#2ba02b"
     fill-rule="evenodd"
     fill-opacity="1"
     stroke="#000000"
     stroke-opacity="1"
     stroke-width="3.2"
     id="circle153265" />
  <circle
     clip-path="url(#clip242)"
     cx="1612.43"
     cy="1177.07"
     r="14.4"
     fill="#2ba02b"
     fill-rule="evenodd"
     fill-opacity="1"
     stroke="#000000"
     stroke-opacity="1"
     stroke-width="3.2"
     id="circle153267" />
  <circle
     clip-path="url(#clip242)"
     cx="1726.15"
     cy="1190.7"
     r="14.4"
     fill="#2ba02b"
     fill-rule="evenodd"
     fill-opacity="1"
     stroke="#000000"
     stroke-opacity="1"
     stroke-width="3.2"
     id="circle153269" />
  <circle
     clip-path="url(#clip242)"
     cx="1839.87"
     cy="1202.62"
     r="14.4"
     fill="#2ba02b"
     fill-rule="evenodd"
     fill-opacity="1"
     stroke="#000000"
     stroke-opacity="1"
     stroke-width="3.2"
     id="circle153271" />
  <circle
     clip-path="url(#clip242)"
     cx="1953.6"
     cy="1213.16"
     r="14.4"
     fill="#2ba02b"
     fill-rule="evenodd"
     fill-opacity="1"
     stroke="#000000"
     stroke-opacity="1"
     stroke-width="3.2"
     id="circle153273" />
  <circle
     clip-path="url(#clip242)"
     cx="2067.32"
     cy="1222.52"
     r="14.4"
     fill="#2ba02b"
     fill-rule="evenodd"
     fill-opacity="1"
     stroke="#000000"
     stroke-opacity="1"
     stroke-width="3.2"
     id="circle153275" />
  <circle
     clip-path="url(#clip242)"
     cx="2181.04"
     cy="1230.9"
     r="14.4"
     fill="#2ba02b"
     fill-rule="evenodd"
     fill-opacity="1"
     stroke="#000000"
     stroke-opacity="1"
     stroke-width="3.2"
     id="circle153277" />
  <circle
     clip-path="url(#clip242)"
     cx="2294.76"
     cy="1238.44"
     r="14.4"
     fill="#2ba02b"
     fill-rule="evenodd"
     fill-opacity="1"
     stroke="#000000"
     stroke-opacity="1"
     stroke-width="3.2"
     id="circle153279" />
  <polyline
     clip-path="url(#clip240)"
     style="fill:none;stroke:#1f77b4;stroke-width:10;stroke-linecap:round;stroke-linejoin:round;stroke-opacity:1"
     points="1766.96,157.189 1903.58,157.189 "
     id="polyline153285"
     transform="translate(0,142.37288)" />
  <path
     clip-path="url(#clip240)"
     d="m 1926.35,135.589 h 8.71 l 11.02,29.398 11.09,-29.398 h 8.71 v 43.2 h -5.71 v -37.934 l -11.14,29.629 h -5.87 l -11.14,-29.629 v 37.934 h -5.67 z"
     fill="#000000"
     fill-rule="nonzero"
     fill-opacity="1"
     id="path153287"
     transform="translate(0,142.37288)" />
  <path
     clip-path="url(#clip240)"
     d="m 2004.97,161.254 v 2.604 h -24.48 q 0.34,5.498 3.3,8.391 2.98,2.865 8.27,2.865 3.07,0 5.93,-0.752 2.9,-0.753 5.73,-2.257 v 5.034 q -2.86,1.216 -5.87,1.852 -3.01,0.637 -6.11,0.637 -7.75,0 -12.29,-4.514 -4.52,-4.514 -4.52,-12.211 0,-7.957 4.28,-12.615 4.32,-4.688 11.61,-4.688 6.54,0 10.33,4.225 3.82,4.195 3.82,11.429 m -5.33,-1.563 q -0.06,-4.369 -2.46,-6.973 -2.37,-2.604 -6.3,-2.604 -4.46,0 -7.15,2.517 -2.66,2.518 -3.07,7.089 z"
     fill="#000000"
     fill-rule="nonzero"
     fill-opacity="1"
     id="path153289"
     transform="translate(0,142.37288)" />
  <path
     clip-path="url(#clip240)"
     d="m 2028.43,162.498 q -6.45,0 -8.94,1.476 -2.49,1.476 -2.49,5.035 0,2.835 1.86,4.513 1.88,1.65 5.09,1.65 4.42,0 7.09,-3.125 2.69,-3.154 2.69,-8.362 v -1.187 h -5.3 m 10.62,-2.199 v 18.49 h -5.32 v -4.919 q -1.83,2.951 -4.54,4.369 -2.72,1.389 -6.66,1.389 -4.98,0 -7.93,-2.778 -2.92,-2.807 -2.92,-7.494 0,-5.469 3.65,-8.247 3.67,-2.777 10.93,-2.777 h 7.47 v -0.521 q 0,-3.675 -2.43,-5.672 -2.4,-2.025 -6.77,-2.025 -2.78,0 -5.41,0.666 -2.64,0.665 -5.07,1.996 v -4.919 q 2.92,-1.128 5.67,-1.678 2.75,-0.579 5.36,-0.579 7.03,0 10.5,3.646 3.47,3.646 3.47,11.053 z"
     fill="#000000"
     fill-rule="nonzero"
     fill-opacity="1"
     id="path153291"
     transform="translate(0,142.37288)" />
  <path
     clip-path="url(#clip240)"
     d="m 2076.96,159.229 v 19.56 h -5.33 v -19.387 q 0,-4.601 -1.79,-6.886 -1.8,-2.286 -5.38,-2.286 -4.31,0 -6.8,2.749 -2.49,2.748 -2.49,7.494 v 18.316 h -5.35 v -32.408 h 5.35 v 5.035 q 1.91,-2.922 4.48,-4.369 2.61,-1.447 5.99,-1.447 5.59,0 8.45,3.472 2.87,3.444 2.87,10.157 z"
     fill="#000000"
     fill-rule="nonzero"
     fill-opacity="1"
     id="path153293"
     transform="translate(0,142.37288)" />
  <path
     clip-path="url(#clip240)"
     d="m 2084.88,160.183 h 15.6 v 4.746 h -15.6 z"
     fill="#000000"
     fill-rule="nonzero"
     fill-opacity="1"
     id="path153295"
     transform="translate(0,142.37288)" />
  <path
     clip-path="url(#clip240)"
     d="m 2109.19,135.589 h 8.71 l 11.02,29.398 11.09,-29.398 h 8.71 v 43.2 h -5.7 v -37.934 l -11.14,29.629 H 2126 l -11.14,-29.629 v 37.934 h -5.67 z"
     fill="#000000"
     fill-rule="nonzero"
     fill-opacity="1"
     id="path153297"
     transform="translate(0,142.37288)" />
  <path
     clip-path="url(#clip240)"
     d="m 2172.64,150.114 q -4.28,0 -6.77,3.356 -2.48,3.328 -2.48,9.144 0,5.816 2.46,9.172 2.48,3.328 6.79,3.328 4.26,0 6.75,-3.357 2.49,-3.356 2.49,-9.143 0,-5.758 -2.49,-9.115 -2.49,-3.385 -6.75,-3.385 m 0,-4.514 q 6.95,0 10.91,4.514 3.97,4.514 3.97,12.5 0,7.957 -3.97,12.5 -3.96,4.514 -10.91,4.514 -6.97,0 -10.93,-4.514 -3.94,-4.543 -3.94,-12.5 0,-7.986 3.94,-12.5 3.96,-4.514 10.93,-4.514 z"
     fill="#000000"
     fill-rule="nonzero"
     fill-opacity="1"
     id="path153299"
     transform="translate(0,142.37288)" />
  <path
     clip-path="url(#clip240)"
     d="m 2217.67,151.3 v -17.534 h 5.32 v 45.023 h -5.32 v -4.861 q -1.68,2.893 -4.26,4.311 -2.54,1.389 -6.13,1.389 -5.87,0 -9.58,-4.688 -3.67,-4.687 -3.67,-12.326 0,-7.639 3.67,-12.326 3.71,-4.688 9.58,-4.688 3.59,0 6.13,1.418 2.58,1.389 4.26,4.282 m -18.14,11.314 q 0,5.874 2.4,9.23 2.43,3.328 6.65,3.328 4.23,0 6.66,-3.328 2.43,-3.356 2.43,-9.23 0,-5.874 -2.43,-9.201 -2.43,-3.357 -6.66,-3.357 -4.22,0 -6.65,3.357 -2.4,3.327 -2.4,9.201 z"
     fill="#000000"
     fill-rule="nonzero"
     fill-opacity="1"
     id="path153301"
     transform="translate(0,142.37288)" />
  <path
     clip-path="url(#clip240)"
     d="m 2261.68,161.254 v 2.604 h -24.48 q 0.35,5.498 3.3,8.391 2.98,2.865 8.27,2.865 3.07,0 5.93,-0.752 2.9,-0.753 5.73,-2.257 v 5.034 q -2.86,1.216 -5.87,1.852 -3.01,0.637 -6.11,0.637 -7.75,0 -12.29,-4.514 -4.52,-4.514 -4.52,-12.211 0,-7.957 4.29,-12.615 4.31,-4.688 11.6,-4.688 6.54,0 10.33,4.225 3.82,4.195 3.82,11.429 m -5.33,-1.563 q -0.05,-4.369 -2.46,-6.973 -2.37,-2.604 -6.3,-2.604 -4.46,0 -7.15,2.517 -2.66,2.518 -3.07,7.089 z"
     fill="#000000"
     fill-rule="nonzero"
     fill-opacity="1"
     id="path153303"
     transform="translate(0,142.37288)" />
  <polyline
     clip-path="url(#clip240)"
     style="stroke:#ff7e0d; stroke-linecap:round; stroke-linejoin:round; stroke-width:10; stroke-opacity:1; fill:none"
     points="1766.96,221.989 1903.58,221.989 "
     id="polyline153305" />
  <path
     clip-path="url(#clip240)"
     d="M1926.35 200.389 L1935.06 200.389 L1946.08 229.787 L1957.17 200.389 L1965.88 200.389 L1965.88 243.589 L1960.17 243.589 L1960.17 205.655 L1949.03 235.284 L1943.16 235.284 L1932.02 205.655 L1932.02 243.589 L1926.35 243.589 L1926.35 200.389 Z"
     fill="#000000"
     fill-rule="nonzero"
     fill-opacity="1"
     id="path153307" />
  <path
     clip-path="url(#clip240)"
     d="M1989.8 214.914 Q1985.52 214.914 1983.03 218.27 Q1980.55 221.598 1980.55 227.414 Q1980.55 233.23 1983 236.586 Q1985.49 239.914 1989.8 239.914 Q1994.06 239.914 1996.55 236.557 Q1999.03 233.201 1999.03 227.414 Q1999.03 221.656 1996.55 218.299 Q1994.06 214.914 1989.8 214.914 M1989.8 210.4 Q1996.75 210.4 2000.71 214.914 Q2004.68 219.428 2004.68 227.414 Q2004.68 235.371 2000.71 239.914 Q1996.75 244.428 1989.8 244.428 Q1982.83 244.428 1978.87 239.914 Q1974.93 235.371 1974.93 227.414 Q1974.93 219.428 1978.87 214.914 Q1982.83 210.4 1989.8 210.4 Z"
     fill="#000000"
     fill-rule="nonzero"
     fill-opacity="1"
     id="path153309" />
  <path
     clip-path="url(#clip240)"
     d="M2034.83 216.1 L2034.83 198.566 L2040.15 198.566 L2040.15 243.589 L2034.83 243.589 L2034.83 238.728 Q2033.15 241.621 2030.57 243.039 Q2028.03 244.428 2024.44 244.428 Q2018.57 244.428 2014.86 239.74 Q2011.19 235.053 2011.19 227.414 Q2011.19 219.775 2014.86 215.088 Q2018.57 210.4 2024.44 210.4 Q2028.03 210.4 2030.57 211.818 Q2033.15 213.207 2034.83 216.1 M2016.69 227.414 Q2016.69 233.288 2019.09 236.644 Q2021.52 239.972 2025.74 239.972 Q2029.97 239.972 2032.4 236.644 Q2034.83 233.288 2034.83 227.414 Q2034.83 221.54 2032.4 218.213 Q2029.97 214.856 2025.74 214.856 Q2021.52 214.856 2019.09 218.213 Q2016.69 221.54 2016.69 227.414 Z"
     fill="#000000"
     fill-rule="nonzero"
     fill-opacity="1"
     id="path153311" />
  <path
     clip-path="url(#clip240)"
     d="M2078.84 226.054 L2078.84 228.658 L2054.36 228.658 Q2054.71 234.156 2057.66 237.049 Q2060.64 239.914 2065.93 239.914 Q2069 239.914 2071.86 239.162 Q2074.76 238.409 2077.59 236.905 L2077.59 241.939 Q2074.73 243.155 2071.72 243.791 Q2068.71 244.428 2065.61 244.428 Q2057.86 244.428 2053.32 239.914 Q2048.8 235.4 2048.8 227.703 Q2048.8 219.746 2053.09 215.088 Q2057.4 210.4 2064.69 210.4 Q2071.23 210.4 2075.02 214.625 Q2078.84 218.82 2078.84 226.054 M2073.51 224.491 Q2073.46 220.122 2071.05 217.518 Q2068.68 214.914 2064.75 214.914 Q2060.29 214.914 2057.6 217.431 Q2054.94 219.949 2054.53 224.52 L2073.51 224.491 Z"
     fill="#000000"
     fill-rule="nonzero"
     fill-opacity="1"
     id="path153313" />
  <polyline
     clip-path="url(#clip240)"
     style="fill:none;stroke:#2ba02b;stroke-width:17.2;stroke-linecap:round;stroke-linejoin:round;stroke-opacity:1;stroke-dasharray:none"
     points="1766.96,286.789 1903.58,286.789 "
     id="polyline153315"
     transform="translate(0,-141.42136)" />
  <path
     clip-path="url(#clip240)"
     d="m 1926.35,265.189 h 8.71 l 11.02,29.398 11.09,-29.398 h 8.71 v 43.2 h -5.71 v -37.934 l -11.14,29.629 h -5.87 l -11.14,-29.629 v 37.934 h -5.67 z"
     fill="#000000"
     fill-rule="nonzero"
     fill-opacity="1"
     id="path153317"
     transform="translate(0,-141.42136)" />
  <path
     clip-path="url(#clip240)"
     d="m 2004.97,290.854 v 2.604 h -24.48 q 0.34,5.498 3.3,8.391 2.98,2.865 8.27,2.865 3.07,0 5.93,-0.752 2.9,-0.753 5.73,-2.257 v 5.034 q -2.86,1.216 -5.87,1.852 -3.01,0.637 -6.11,0.637 -7.75,0 -12.29,-4.514 -4.52,-4.514 -4.52,-12.211 0,-7.957 4.28,-12.615 4.32,-4.688 11.61,-4.688 6.54,0 10.33,4.225 3.82,4.195 3.82,11.429 m -5.33,-1.563 q -0.06,-4.369 -2.46,-6.973 -2.37,-2.604 -6.3,-2.604 -4.46,0 -7.15,2.517 -2.66,2.518 -3.07,7.089 z"
     fill="#000000"
     fill-rule="nonzero"
     fill-opacity="1"
     id="path153319"
     transform="translate(0,-141.42136)" />
  <path
     clip-path="url(#clip240)"
     d="m 2028.43,292.098 q -6.45,0 -8.94,1.476 -2.49,1.476 -2.49,5.035 0,2.835 1.86,4.513 1.88,1.65 5.09,1.65 4.42,0 7.09,-3.125 2.69,-3.154 2.69,-8.362 v -1.187 h -5.3 m 10.62,-2.199 v 18.49 h -5.32 v -4.919 q -1.83,2.951 -4.54,4.369 -2.72,1.389 -6.66,1.389 -4.98,0 -7.93,-2.778 -2.92,-2.807 -2.92,-7.494 0,-5.469 3.65,-8.247 3.67,-2.777 10.93,-2.777 h 7.47 v -0.521 q 0,-3.675 -2.43,-5.672 -2.4,-2.025 -6.77,-2.025 -2.78,0 -5.41,0.666 -2.64,0.665 -5.07,1.996 v -4.919 q 2.92,-1.128 5.67,-1.678 2.75,-0.579 5.36,-0.579 7.03,0 10.5,3.646 3.47,3.646 3.47,11.053 z"
     fill="#000000"
     fill-rule="nonzero"
     fill-opacity="1"
     id="path153321"
     transform="translate(0,-141.42136)" />
  <path
     clip-path="url(#clip240)"
     d="m 2076.96,288.829 v 19.56 h -5.33 v -19.387 q 0,-4.601 -1.79,-6.886 -1.8,-2.286 -5.38,-2.286 -4.31,0 -6.8,2.749 -2.49,2.748 -2.49,7.494 v 18.316 h -5.35 v -32.408 h 5.35 v 5.035 q 1.91,-2.922 4.48,-4.369 2.61,-1.447 5.99,-1.447 5.59,0 8.45,3.472 2.87,3.444 2.87,10.157 z"
     fill="#000000"
     fill-rule="nonzero"
     fill-opacity="1"
     id="path153323"
     transform="translate(0,-141.42136)" />
</svg>
