<?xml version="1.0" encoding="utf-8"?>
<svg xmlns="http://www.w3.org/2000/svg" xmlns:xlink="http://www.w3.org/1999/xlink" width="600" height="400" viewBox="0 0 2400 1600">
<defs>
  <clipPath id="clip690">
    <rect x="0" y="0" width="2400" height="1600"/>
  </clipPath>
</defs>
<path clip-path="url(#clip690)" d="M0 1600 L2400 1600 L2400 8.88178e-14 L0 8.88178e-14  Z" fill="#ffffff" fill-rule="evenodd" fill-opacity="1"/>
<defs>
  <clipPath id="clip691">
    <rect x="480" y="0" width="1681" height="1600"/>
  </clipPath>
</defs>
<path clip-path="url(#clip690)" d="M219.866 1423.18 L2352.76 1423.18 L2352.76 123.472 L219.866 123.472  Z" fill="#ffffff" fill-rule="evenodd" fill-opacity="1"/>
<defs>
  <clipPath id="clip692">
    <rect x="219" y="123" width="2134" height="1301"/>
  </clipPath>
</defs>
<polyline clip-path="url(#clip692)" style="stroke:#000000; stroke-linecap:round; stroke-linejoin:round; stroke-width:2; stroke-opacity:0.1; fill:none" points="398.593,1423.18 398.593,123.472 "/>
<polyline clip-path="url(#clip692)" style="stroke:#000000; stroke-linecap:round; stroke-linejoin:round; stroke-width:2; stroke-opacity:0.1; fill:none" points="635.318,1423.18 635.318,123.472 "/>
<polyline clip-path="url(#clip692)" style="stroke:#000000; stroke-linecap:round; stroke-linejoin:round; stroke-width:2; stroke-opacity:0.1; fill:none" points="872.043,1423.18 872.043,123.472 "/>
<polyline clip-path="url(#clip692)" style="stroke:#000000; stroke-linecap:round; stroke-linejoin:round; stroke-width:2; stroke-opacity:0.1; fill:none" points="1108.77,1423.18 1108.77,123.472 "/>
<polyline clip-path="url(#clip692)" style="stroke:#000000; stroke-linecap:round; stroke-linejoin:round; stroke-width:2; stroke-opacity:0.1; fill:none" points="1345.49,1423.18 1345.49,123.472 "/>
<polyline clip-path="url(#clip692)" style="stroke:#000000; stroke-linecap:round; stroke-linejoin:round; stroke-width:2; stroke-opacity:0.1; fill:none" points="1582.22,1423.18 1582.22,123.472 "/>
<polyline clip-path="url(#clip692)" style="stroke:#000000; stroke-linecap:round; stroke-linejoin:round; stroke-width:2; stroke-opacity:0.1; fill:none" points="1818.94,1423.18 1818.94,123.472 "/>
<polyline clip-path="url(#clip692)" style="stroke:#000000; stroke-linecap:round; stroke-linejoin:round; stroke-width:2; stroke-opacity:0.1; fill:none" points="2055.67,1423.18 2055.67,123.472 "/>
<polyline clip-path="url(#clip692)" style="stroke:#000000; stroke-linecap:round; stroke-linejoin:round; stroke-width:2; stroke-opacity:0.1; fill:none" points="2292.39,1423.18 2292.39,123.472 "/>
<polyline clip-path="url(#clip692)" style="stroke:#000000; stroke-linecap:round; stroke-linejoin:round; stroke-width:2; stroke-opacity:0.1; fill:none" points="219.866,1402.63 2352.76,1402.63 "/>
<polyline clip-path="url(#clip692)" style="stroke:#000000; stroke-linecap:round; stroke-linejoin:round; stroke-width:2; stroke-opacity:0.1; fill:none" points="219.866,1146.73 2352.76,1146.73 "/>
<polyline clip-path="url(#clip692)" style="stroke:#000000; stroke-linecap:round; stroke-linejoin:round; stroke-width:2; stroke-opacity:0.1; fill:none" points="219.866,890.831 2352.76,890.831 "/>
<polyline clip-path="url(#clip692)" style="stroke:#000000; stroke-linecap:round; stroke-linejoin:round; stroke-width:2; stroke-opacity:0.1; fill:none" points="219.866,634.933 2352.76,634.933 "/>
<polyline clip-path="url(#clip692)" style="stroke:#000000; stroke-linecap:round; stroke-linejoin:round; stroke-width:2; stroke-opacity:0.1; fill:none" points="219.866,379.036 2352.76,379.036 "/>
<polyline clip-path="url(#clip690)" style="stroke:#000000; stroke-linecap:round; stroke-linejoin:round; stroke-width:4; stroke-opacity:1; fill:none" points="219.866,1423.18 2352.76,1423.18 "/>
<polyline clip-path="url(#clip690)" style="stroke:#000000; stroke-linecap:round; stroke-linejoin:round; stroke-width:4; stroke-opacity:1; fill:none" points="398.593,1423.18 398.593,1404.28 "/>
<polyline clip-path="url(#clip690)" style="stroke:#000000; stroke-linecap:round; stroke-linejoin:round; stroke-width:4; stroke-opacity:1; fill:none" points="635.318,1423.18 635.318,1404.28 "/>
<polyline clip-path="url(#clip690)" style="stroke:#000000; stroke-linecap:round; stroke-linejoin:round; stroke-width:4; stroke-opacity:1; fill:none" points="872.043,1423.18 872.043,1404.28 "/>
<polyline clip-path="url(#clip690)" style="stroke:#000000; stroke-linecap:round; stroke-linejoin:round; stroke-width:4; stroke-opacity:1; fill:none" points="1108.77,1423.18 1108.77,1404.28 "/>
<polyline clip-path="url(#clip690)" style="stroke:#000000; stroke-linecap:round; stroke-linejoin:round; stroke-width:4; stroke-opacity:1; fill:none" points="1345.49,1423.18 1345.49,1404.28 "/>
<polyline clip-path="url(#clip690)" style="stroke:#000000; stroke-linecap:round; stroke-linejoin:round; stroke-width:4; stroke-opacity:1; fill:none" points="1582.22,1423.18 1582.22,1404.28 "/>
<polyline clip-path="url(#clip690)" style="stroke:#000000; stroke-linecap:round; stroke-linejoin:round; stroke-width:4; stroke-opacity:1; fill:none" points="1818.94,1423.18 1818.94,1404.28 "/>
<polyline clip-path="url(#clip690)" style="stroke:#000000; stroke-linecap:round; stroke-linejoin:round; stroke-width:4; stroke-opacity:1; fill:none" points="2055.67,1423.18 2055.67,1404.28 "/>
<polyline clip-path="url(#clip690)" style="stroke:#000000; stroke-linecap:round; stroke-linejoin:round; stroke-width:4; stroke-opacity:1; fill:none" points="2292.39,1423.18 2292.39,1404.28 "/>
<path clip-path="url(#clip690)" d="M401.603 1455.09 L389.797 1473.54 L401.603 1473.54 L401.603 1455.09 M400.376 1451.02 L406.255 1451.02 L406.255 1473.54 L411.186 1473.54 L411.186 1477.43 L406.255 1477.43 L406.255 1485.58 L401.603 1485.58 L401.603 1477.43 L386.001 1477.43 L386.001 1472.92 L400.376 1451.02 Z" fill="#000000" fill-rule="nonzero" fill-opacity="1" /><path clip-path="url(#clip690)" d="M635.723 1466.44 Q632.575 1466.44 630.723 1468.59 Q628.895 1470.74 628.895 1474.49 Q628.895 1478.22 630.723 1480.39 Q632.575 1482.55 635.723 1482.55 Q638.871 1482.55 640.7 1480.39 Q642.552 1478.22 642.552 1474.49 Q642.552 1470.74 640.7 1468.59 Q638.871 1466.44 635.723 1466.44 M645.006 1451.78 L645.006 1456.04 Q643.246 1455.21 641.441 1454.77 Q639.658 1454.33 637.899 1454.33 Q633.27 1454.33 630.816 1457.45 Q628.385 1460.58 628.038 1466.9 Q629.404 1464.89 631.464 1463.82 Q633.524 1462.73 636.001 1462.73 Q641.209 1462.73 644.219 1465.9 Q647.251 1469.05 647.251 1474.49 Q647.251 1479.82 644.103 1483.03 Q640.955 1486.25 635.723 1486.25 Q629.728 1486.25 626.557 1481.67 Q623.385 1477.06 623.385 1468.33 Q623.385 1460.14 627.274 1455.28 Q631.163 1450.39 637.714 1450.39 Q639.473 1450.39 641.256 1450.74 Q643.061 1451.09 645.006 1451.78 Z" fill="#000000" fill-rule="nonzero" fill-opacity="1" /><path clip-path="url(#clip690)" d="M872.043 1469.17 Q868.71 1469.17 866.788 1470.95 Q864.89 1472.73 864.89 1475.86 Q864.89 1478.98 866.788 1480.77 Q868.71 1482.55 872.043 1482.55 Q875.376 1482.55 877.297 1480.77 Q879.219 1478.96 879.219 1475.86 Q879.219 1472.73 877.297 1470.95 Q875.399 1469.17 872.043 1469.17 M867.367 1467.18 Q864.358 1466.44 862.668 1464.38 Q861.001 1462.32 861.001 1459.35 Q861.001 1455.21 863.941 1452.8 Q866.904 1450.39 872.043 1450.39 Q877.205 1450.39 880.145 1452.8 Q883.084 1455.21 883.084 1459.35 Q883.084 1462.32 881.395 1464.38 Q879.728 1466.44 876.742 1467.18 Q880.122 1467.96 881.996 1470.26 Q883.895 1472.55 883.895 1475.86 Q883.895 1480.88 880.816 1483.57 Q877.76 1486.25 872.043 1486.25 Q866.325 1486.25 863.247 1483.57 Q860.191 1480.88 860.191 1475.86 Q860.191 1472.55 862.089 1470.26 Q863.987 1467.96 867.367 1467.18 M865.654 1459.79 Q865.654 1462.48 867.321 1463.98 Q869.01 1465.49 872.043 1465.49 Q875.052 1465.49 876.742 1463.98 Q878.455 1462.48 878.455 1459.79 Q878.455 1457.11 876.742 1455.6 Q875.052 1454.1 872.043 1454.1 Q869.01 1454.1 867.321 1455.6 Q865.654 1457.11 865.654 1459.79 Z" fill="#000000" fill-rule="nonzero" fill-opacity="1" /><path clip-path="url(#clip690)" d="M1083.46 1481.64 L1091.09 1481.64 L1091.09 1455.28 L1082.78 1456.95 L1082.78 1452.69 L1091.05 1451.02 L1095.72 1451.02 L1095.72 1481.64 L1103.36 1481.64 L1103.36 1485.58 L1083.46 1485.58 L1083.46 1481.64 Z" fill="#000000" fill-rule="nonzero" fill-opacity="1" /><path clip-path="url(#clip690)" d="M1122.81 1454.1 Q1119.2 1454.1 1117.37 1457.66 Q1115.56 1461.2 1115.56 1468.33 Q1115.56 1475.44 1117.37 1479.01 Q1119.2 1482.55 1122.81 1482.55 Q1126.44 1482.55 1128.25 1479.01 Q1130.08 1475.44 1130.08 1468.33 Q1130.08 1461.2 1128.25 1457.66 Q1126.44 1454.1 1122.81 1454.1 M1122.81 1450.39 Q1128.62 1450.39 1131.67 1455 Q1134.75 1459.58 1134.75 1468.33 Q1134.75 1477.06 1131.67 1481.67 Q1128.62 1486.25 1122.81 1486.25 Q1117 1486.25 1113.92 1481.67 Q1110.86 1477.06 1110.86 1468.33 Q1110.86 1459.58 1113.92 1455 Q1117 1450.39 1122.81 1450.39 Z" fill="#000000" fill-rule="nonzero" fill-opacity="1" /><path clip-path="url(#clip690)" d="M1320.98 1481.64 L1328.62 1481.64 L1328.62 1455.28 L1320.31 1456.95 L1320.31 1452.69 L1328.57 1451.02 L1333.25 1451.02 L1333.25 1481.64 L1340.89 1481.64 L1340.89 1485.58 L1320.98 1485.58 L1320.98 1481.64 Z" fill="#000000" fill-rule="nonzero" fill-opacity="1" /><path clip-path="url(#clip690)" d="M1354.36 1481.64 L1370.68 1481.64 L1370.68 1485.58 L1348.73 1485.58 L1348.73 1481.64 Q1351.4 1478.89 1355.98 1474.26 Q1360.58 1469.61 1361.77 1468.27 Q1364.01 1465.74 1364.89 1464.01 Q1365.79 1462.25 1365.79 1460.56 Q1365.79 1457.8 1363.85 1456.07 Q1361.93 1454.33 1358.83 1454.33 Q1356.63 1454.33 1354.17 1455.09 Q1351.74 1455.86 1348.96 1457.41 L1348.96 1452.69 Q1351.79 1451.55 1354.24 1450.97 Q1356.7 1450.39 1358.73 1450.39 Q1364.1 1450.39 1367.3 1453.08 Q1370.49 1455.77 1370.49 1460.26 Q1370.49 1462.39 1369.68 1464.31 Q1368.89 1466.2 1366.79 1468.8 Q1366.21 1469.47 1363.11 1472.69 Q1360.01 1475.88 1354.36 1481.64 Z" fill="#000000" fill-rule="nonzero" fill-opacity="1" /><path clip-path="url(#clip690)" d="M1556.66 1481.64 L1564.3 1481.64 L1564.3 1455.28 L1555.99 1456.95 L1555.99 1452.69 L1564.25 1451.02 L1568.93 1451.02 L1568.93 1481.64 L1576.57 1481.64 L1576.57 1485.58 L1556.66 1485.58 L1556.66 1481.64 Z" fill="#000000" fill-rule="nonzero" fill-opacity="1" /><path clip-path="url(#clip690)" d="M1598.86 1455.09 L1587.05 1473.54 L1598.86 1473.54 L1598.86 1455.09 M1597.63 1451.02 L1603.51 1451.02 L1603.51 1473.54 L1608.44 1473.54 L1608.44 1477.43 L1603.51 1477.43 L1603.51 1485.58 L1598.86 1485.58 L1598.86 1477.43 L1583.26 1477.43 L1583.26 1472.92 L1597.63 1451.02 Z" fill="#000000" fill-rule="nonzero" fill-opacity="1" /><path clip-path="url(#clip690)" d="M1793.55 1481.64 L1801.19 1481.64 L1801.19 1455.28 L1792.88 1456.95 L1792.88 1452.69 L1801.14 1451.02 L1805.82 1451.02 L1805.82 1481.64 L1813.46 1481.64 L1813.46 1485.58 L1793.55 1485.58 L1793.55 1481.64 Z" fill="#000000" fill-rule="nonzero" fill-opacity="1" /><path clip-path="url(#clip690)" d="M1833.48 1466.44 Q1830.33 1466.44 1828.48 1468.59 Q1826.65 1470.74 1826.65 1474.49 Q1826.65 1478.22 1828.48 1480.39 Q1830.33 1482.55 1833.48 1482.55 Q1836.63 1482.55 1838.46 1480.39 Q1840.31 1478.22 1840.31 1474.49 Q1840.31 1470.74 1838.46 1468.59 Q1836.63 1466.44 1833.48 1466.44 M1842.76 1451.78 L1842.76 1456.04 Q1841 1455.21 1839.2 1454.77 Q1837.41 1454.33 1835.65 1454.33 Q1831.02 1454.33 1828.57 1457.45 Q1826.14 1460.58 1825.79 1466.9 Q1827.16 1464.89 1829.22 1463.82 Q1831.28 1462.73 1833.76 1462.73 Q1838.96 1462.73 1841.97 1465.9 Q1845.01 1469.05 1845.01 1474.49 Q1845.01 1479.82 1841.86 1483.03 Q1838.71 1486.25 1833.48 1486.25 Q1827.48 1486.25 1824.31 1481.67 Q1821.14 1477.06 1821.14 1468.33 Q1821.14 1460.14 1825.03 1455.28 Q1828.92 1450.39 1835.47 1450.39 Q1837.23 1450.39 1839.01 1450.74 Q1840.82 1451.09 1842.76 1451.78 Z" fill="#000000" fill-rule="nonzero" fill-opacity="1" /><path clip-path="url(#clip690)" d="M2030.4 1481.64 L2038.04 1481.64 L2038.04 1455.28 L2029.73 1456.95 L2029.73 1452.69 L2037.99 1451.02 L2042.67 1451.02 L2042.67 1481.64 L2050.31 1481.64 L2050.31 1485.58 L2030.4 1485.58 L2030.4 1481.64 Z" fill="#000000" fill-rule="nonzero" fill-opacity="1" /><path clip-path="url(#clip690)" d="M2069.75 1469.17 Q2066.42 1469.17 2064.5 1470.95 Q2062.6 1472.73 2062.6 1475.86 Q2062.6 1478.98 2064.5 1480.77 Q2066.42 1482.55 2069.75 1482.55 Q2073.09 1482.55 2075.01 1480.77 Q2076.93 1478.96 2076.93 1475.86 Q2076.93 1472.73 2075.01 1470.95 Q2073.11 1469.17 2069.75 1469.17 M2065.08 1467.18 Q2062.07 1466.44 2060.38 1464.38 Q2058.71 1462.32 2058.71 1459.35 Q2058.71 1455.21 2061.65 1452.8 Q2064.61 1450.39 2069.75 1450.39 Q2074.91 1450.39 2077.85 1452.8 Q2080.79 1455.21 2080.79 1459.35 Q2080.79 1462.32 2079.1 1464.38 Q2077.44 1466.44 2074.45 1467.18 Q2077.83 1467.96 2079.71 1470.26 Q2081.6 1472.55 2081.6 1475.86 Q2081.6 1480.88 2078.53 1483.57 Q2075.47 1486.25 2069.75 1486.25 Q2064.03 1486.25 2060.96 1483.57 Q2057.9 1480.88 2057.9 1475.86 Q2057.9 1472.55 2059.8 1470.26 Q2061.7 1467.96 2065.08 1467.18 M2063.36 1459.79 Q2063.36 1462.48 2065.03 1463.98 Q2066.72 1465.49 2069.75 1465.49 Q2072.76 1465.49 2074.45 1463.98 Q2076.16 1462.48 2076.16 1459.79 Q2076.16 1457.11 2074.45 1455.6 Q2072.76 1454.1 2069.75 1454.1 Q2066.72 1454.1 2065.03 1455.6 Q2063.36 1457.11 2063.36 1459.79 Z" fill="#000000" fill-rule="nonzero" fill-opacity="1" /><path clip-path="url(#clip690)" d="M2271.16 1481.64 L2287.48 1481.64 L2287.48 1485.58 L2265.54 1485.58 L2265.54 1481.64 Q2268.2 1478.89 2272.78 1474.26 Q2277.39 1469.61 2278.57 1468.27 Q2280.82 1465.74 2281.7 1464.01 Q2282.6 1462.25 2282.6 1460.56 Q2282.6 1457.8 2280.66 1456.07 Q2278.73 1454.33 2275.63 1454.33 Q2273.43 1454.33 2270.98 1455.09 Q2268.55 1455.86 2265.77 1457.41 L2265.77 1452.69 Q2268.59 1451.55 2271.05 1450.97 Q2273.5 1450.39 2275.54 1450.39 Q2280.91 1450.39 2284.1 1453.08 Q2287.3 1455.77 2287.3 1460.26 Q2287.3 1462.39 2286.49 1464.31 Q2285.7 1466.2 2283.59 1468.8 Q2283.02 1469.47 2279.91 1472.69 Q2276.81 1475.88 2271.16 1481.64 Z" fill="#000000" fill-rule="nonzero" fill-opacity="1" /><path clip-path="url(#clip690)" d="M2307.3 1454.1 Q2303.69 1454.1 2301.86 1457.66 Q2300.05 1461.2 2300.05 1468.33 Q2300.05 1475.44 2301.86 1479.01 Q2303.69 1482.55 2307.3 1482.55 Q2310.93 1482.55 2312.74 1479.01 Q2314.57 1475.44 2314.57 1468.33 Q2314.57 1461.2 2312.74 1457.66 Q2310.93 1454.1 2307.3 1454.1 M2307.3 1450.39 Q2313.11 1450.39 2316.16 1455 Q2319.24 1459.58 2319.24 1468.33 Q2319.24 1477.06 2316.16 1481.67 Q2313.11 1486.25 2307.3 1486.25 Q2301.49 1486.25 2298.41 1481.67 Q2295.35 1477.06 2295.35 1468.33 Q2295.35 1459.58 2298.41 1455 Q2301.49 1450.39 2307.3 1450.39 Z" fill="#000000" fill-rule="nonzero" fill-opacity="1" /><path clip-path="url(#clip690)" d="M1296.38 1537.81 L1296.38 1518.52 L1302.24 1518.52 L1302.24 1568.04 L1296.38 1568.04 L1296.38 1562.7 Q1294.54 1565.88 1291.71 1567.44 Q1288.91 1568.97 1284.96 1568.97 Q1278.5 1568.97 1274.42 1563.81 Q1270.38 1558.65 1270.38 1550.25 Q1270.38 1541.85 1274.42 1536.69 Q1278.5 1531.54 1284.96 1531.54 Q1288.91 1531.54 1291.71 1533.1 Q1294.54 1534.62 1296.38 1537.81 M1276.43 1550.25 Q1276.43 1556.71 1279.07 1560.4 Q1281.74 1564.07 1286.39 1564.07 Q1291.04 1564.07 1293.71 1560.4 Q1296.38 1556.71 1296.38 1550.25 Q1296.38 1543.79 1293.71 1540.13 Q1291.04 1536.44 1286.39 1536.44 Q1281.74 1536.44 1279.07 1540.13 Q1276.43 1543.79 1276.43 1550.25 Z" fill="#000000" fill-rule="nonzero" fill-opacity="1" /><polyline clip-path="url(#clip690)" style="stroke:#000000; stroke-linecap:round; stroke-linejoin:round; stroke-width:4; stroke-opacity:1; fill:none" points="219.866,1423.18 219.866,123.472 "/>
<polyline clip-path="url(#clip690)" style="stroke:#000000; stroke-linecap:round; stroke-linejoin:round; stroke-width:4; stroke-opacity:1; fill:none" points="219.866,1402.63 238.764,1402.63 "/>
<polyline clip-path="url(#clip690)" style="stroke:#000000; stroke-linecap:round; stroke-linejoin:round; stroke-width:4; stroke-opacity:1; fill:none" points="219.866,1146.73 238.764,1146.73 "/>
<polyline clip-path="url(#clip690)" style="stroke:#000000; stroke-linecap:round; stroke-linejoin:round; stroke-width:4; stroke-opacity:1; fill:none" points="219.866,890.831 238.764,890.831 "/>
<polyline clip-path="url(#clip690)" style="stroke:#000000; stroke-linecap:round; stroke-linejoin:round; stroke-width:4; stroke-opacity:1; fill:none" points="219.866,634.933 238.764,634.933 "/>
<polyline clip-path="url(#clip690)" style="stroke:#000000; stroke-linecap:round; stroke-linejoin:round; stroke-width:4; stroke-opacity:1; fill:none" points="219.866,379.036 238.764,379.036 "/>
<path clip-path="url(#clip690)" d="M126.691 1388.42 Q123.08 1388.42 121.251 1391.99 Q119.445 1395.53 119.445 1402.66 Q119.445 1409.77 121.251 1413.33 Q123.08 1416.87 126.691 1416.87 Q130.325 1416.87 132.13 1413.33 Q133.959 1409.77 133.959 1402.66 Q133.959 1395.53 132.13 1391.99 Q130.325 1388.42 126.691 1388.42 M126.691 1384.72 Q132.501 1384.72 135.556 1389.33 Q138.635 1393.91 138.635 1402.66 Q138.635 1411.39 135.556 1415.99 Q132.501 1420.58 126.691 1420.58 Q120.88 1420.58 117.802 1415.99 Q114.746 1411.39 114.746 1402.66 Q114.746 1393.91 117.802 1389.33 Q120.88 1384.72 126.691 1384.72 Z" fill="#000000" fill-rule="nonzero" fill-opacity="1" /><path clip-path="url(#clip690)" d="M146.853 1414.03 L151.737 1414.03 L151.737 1419.91 L146.853 1419.91 L146.853 1414.03 Z" fill="#000000" fill-rule="nonzero" fill-opacity="1" /><path clip-path="url(#clip690)" d="M171.922 1388.42 Q168.311 1388.42 166.482 1391.99 Q164.677 1395.53 164.677 1402.66 Q164.677 1409.77 166.482 1413.33 Q168.311 1416.87 171.922 1416.87 Q175.556 1416.87 177.362 1413.33 Q179.19 1409.77 179.19 1402.66 Q179.19 1395.53 177.362 1391.99 Q175.556 1388.42 171.922 1388.42 M171.922 1384.72 Q177.732 1384.72 180.788 1389.33 Q183.866 1393.91 183.866 1402.66 Q183.866 1411.39 180.788 1415.99 Q177.732 1420.58 171.922 1420.58 Q166.112 1420.58 163.033 1415.99 Q159.978 1411.39 159.978 1402.66 Q159.978 1393.91 163.033 1389.33 Q166.112 1384.72 171.922 1384.72 Z" fill="#000000" fill-rule="nonzero" fill-opacity="1" /><path clip-path="url(#clip690)" d="M127.917 1132.53 Q124.306 1132.53 122.478 1136.09 Q120.672 1139.63 120.672 1146.76 Q120.672 1153.87 122.478 1157.43 Q124.306 1160.98 127.917 1160.98 Q131.552 1160.98 133.357 1157.43 Q135.186 1153.87 135.186 1146.76 Q135.186 1139.63 133.357 1136.09 Q131.552 1132.53 127.917 1132.53 M127.917 1128.82 Q133.728 1128.82 136.783 1133.43 Q139.862 1138.01 139.862 1146.76 Q139.862 1155.49 136.783 1160.1 Q133.728 1164.68 127.917 1164.68 Q122.107 1164.68 119.029 1160.1 Q115.973 1155.49 115.973 1146.76 Q115.973 1138.01 119.029 1133.43 Q122.107 1128.82 127.917 1128.82 Z" fill="#000000" fill-rule="nonzero" fill-opacity="1" /><path clip-path="url(#clip690)" d="M148.079 1158.13 L152.964 1158.13 L152.964 1164.01 L148.079 1164.01 L148.079 1158.13 Z" fill="#000000" fill-rule="nonzero" fill-opacity="1" /><path clip-path="url(#clip690)" d="M163.959 1160.07 L171.598 1160.07 L171.598 1133.71 L163.288 1135.37 L163.288 1131.11 L171.552 1129.45 L176.227 1129.45 L176.227 1160.07 L183.866 1160.07 L183.866 1164.01 L163.959 1164.01 L163.959 1160.07 Z" fill="#000000" fill-rule="nonzero" fill-opacity="1" /><path clip-path="url(#clip690)" d="M128.288 876.629 Q124.677 876.629 122.848 880.194 Q121.043 883.736 121.043 890.865 Q121.043 897.972 122.848 901.537 Q124.677 905.078 128.288 905.078 Q131.922 905.078 133.728 901.537 Q135.556 897.972 135.556 890.865 Q135.556 883.736 133.728 880.194 Q131.922 876.629 128.288 876.629 M128.288 872.926 Q134.098 872.926 137.154 877.532 Q140.232 882.115 140.232 890.865 Q140.232 899.592 137.154 904.199 Q134.098 908.782 128.288 908.782 Q122.478 908.782 119.399 904.199 Q116.343 899.592 116.343 890.865 Q116.343 882.115 119.399 877.532 Q122.478 872.926 128.288 872.926 Z" fill="#000000" fill-rule="nonzero" fill-opacity="1" /><path clip-path="url(#clip690)" d="M148.45 902.231 L153.334 902.231 L153.334 908.111 L148.45 908.111 L148.45 902.231 Z" fill="#000000" fill-rule="nonzero" fill-opacity="1" /><path clip-path="url(#clip690)" d="M167.547 904.176 L183.866 904.176 L183.866 908.111 L161.922 908.111 L161.922 904.176 Q164.584 901.421 169.167 896.791 Q173.774 892.139 174.954 890.796 Q177.2 888.273 178.079 886.537 Q178.982 884.778 178.982 883.088 Q178.982 880.333 177.038 878.597 Q175.116 876.861 172.014 876.861 Q169.815 876.861 167.362 877.625 Q164.931 878.389 162.153 879.94 L162.153 875.217 Q164.977 874.083 167.431 873.504 Q169.885 872.926 171.922 872.926 Q177.292 872.926 180.487 875.611 Q183.681 878.296 183.681 882.787 Q183.681 884.916 182.871 886.838 Q182.084 888.736 179.977 891.328 Q179.399 892 176.297 895.217 Q173.195 898.412 167.547 904.176 Z" fill="#000000" fill-rule="nonzero" fill-opacity="1" /><path clip-path="url(#clip690)" d="M127.339 620.732 Q123.728 620.732 121.899 624.297 Q120.093 627.839 120.093 634.968 Q120.093 642.075 121.899 645.639 Q123.728 649.181 127.339 649.181 Q130.973 649.181 132.779 645.639 Q134.607 642.075 134.607 634.968 Q134.607 627.839 132.779 624.297 Q130.973 620.732 127.339 620.732 M127.339 617.028 Q133.149 617.028 136.204 621.635 Q139.283 626.218 139.283 634.968 Q139.283 643.695 136.204 648.301 Q133.149 652.885 127.339 652.885 Q121.529 652.885 118.45 648.301 Q115.394 643.695 115.394 634.968 Q115.394 626.218 118.45 621.635 Q121.529 617.028 127.339 617.028 Z" fill="#000000" fill-rule="nonzero" fill-opacity="1" /><path clip-path="url(#clip690)" d="M147.501 646.334 L152.385 646.334 L152.385 652.213 L147.501 652.213 L147.501 646.334 Z" fill="#000000" fill-rule="nonzero" fill-opacity="1" /><path clip-path="url(#clip690)" d="M176.737 633.579 Q180.093 634.297 181.968 636.565 Q183.866 638.834 183.866 642.167 Q183.866 647.283 180.348 650.084 Q176.829 652.885 170.348 652.885 Q168.172 652.885 165.857 652.445 Q163.565 652.028 161.112 651.172 L161.112 646.658 Q163.056 647.792 165.371 648.371 Q167.686 648.95 170.209 648.95 Q174.607 648.95 176.899 647.213 Q179.214 645.477 179.214 642.167 Q179.214 639.112 177.061 637.399 Q174.931 635.663 171.112 635.663 L167.084 635.663 L167.084 631.82 L171.297 631.82 Q174.746 631.82 176.575 630.454 Q178.403 629.065 178.403 626.473 Q178.403 623.811 176.505 622.399 Q174.63 620.964 171.112 620.964 Q169.19 620.964 166.991 621.38 Q164.792 621.797 162.153 622.677 L162.153 618.51 Q164.815 617.769 167.13 617.399 Q169.468 617.028 171.528 617.028 Q176.852 617.028 179.954 619.459 Q183.056 621.866 183.056 625.987 Q183.056 628.857 181.413 630.848 Q179.769 632.815 176.737 633.579 Z" fill="#000000" fill-rule="nonzero" fill-opacity="1" /><path clip-path="url(#clip690)" d="M126.205 364.835 Q122.593 364.835 120.765 368.4 Q118.959 371.941 118.959 379.071 Q118.959 386.177 120.765 389.742 Q122.593 393.284 126.205 393.284 Q129.839 393.284 131.644 389.742 Q133.473 386.177 133.473 379.071 Q133.473 371.941 131.644 368.4 Q129.839 364.835 126.205 364.835 M126.205 361.131 Q132.015 361.131 135.07 365.738 Q138.149 370.321 138.149 379.071 Q138.149 387.798 135.07 392.404 Q132.015 396.987 126.205 396.987 Q120.394 396.987 117.316 392.404 Q114.26 387.798 114.26 379.071 Q114.26 370.321 117.316 365.738 Q120.394 361.131 126.205 361.131 Z" fill="#000000" fill-rule="nonzero" fill-opacity="1" /><path clip-path="url(#clip690)" d="M146.366 390.437 L151.251 390.437 L151.251 396.316 L146.366 396.316 L146.366 390.437 Z" fill="#000000" fill-rule="nonzero" fill-opacity="1" /><path clip-path="url(#clip690)" d="M174.283 365.83 L162.477 384.279 L174.283 384.279 L174.283 365.83 M173.056 361.756 L178.936 361.756 L178.936 384.279 L183.866 384.279 L183.866 388.168 L178.936 388.168 L178.936 396.316 L174.283 396.316 L174.283 388.168 L158.681 388.168 L158.681 383.654 L173.056 361.756 Z" fill="#000000" fill-rule="nonzero" fill-opacity="1" /><path clip-path="url(#clip690)" d="M16.4842 939.582 L16.4842 930.002 L48.8219 917.875 L16.4842 905.685 L16.4842 896.105 L64.0042 896.105 L64.0042 902.375 L22.277 902.375 L54.8694 914.629 L54.8694 921.09 L22.277 933.344 L64.0042 933.344 L64.0042 939.582 L16.4842 939.582 Z" fill="#000000" fill-rule="nonzero" fill-opacity="1" /><path clip-path="url(#clip690)" d="M46.0847 867.395 Q46.0847 874.493 47.7079 877.23 Q49.3312 879.967 53.2461 879.967 Q56.3653 879.967 58.2114 877.93 Q60.0256 875.862 60.0256 872.329 Q60.0256 867.459 56.5881 864.531 Q53.1188 861.571 47.3897 861.571 L46.0847 861.571 L46.0847 867.395 M43.6657 855.714 L64.0042 855.714 L64.0042 861.571 L58.5933 861.571 Q61.8398 863.576 63.3994 866.568 Q64.9272 869.56 64.9272 873.888 Q64.9272 879.363 61.8716 882.609 Q58.7843 885.824 53.6281 885.824 Q47.6125 885.824 44.5569 881.814 Q41.5014 877.771 41.5014 869.782 L41.5014 861.571 L40.9285 861.571 Q36.8862 861.571 34.6901 864.244 Q32.4621 866.886 32.4621 871.692 Q32.4621 874.748 33.1941 877.644 Q33.9262 880.54 35.3903 883.214 L29.9795 883.214 Q28.7381 879.999 28.1334 876.976 Q27.4968 873.952 27.4968 871.087 Q27.4968 863.353 31.5072 859.534 Q35.5176 855.714 43.6657 855.714 Z" fill="#000000" fill-rule="nonzero" fill-opacity="1" /><path clip-path="url(#clip690)" d="M28.3562 814.019 L45.7028 826.909 L64.0042 813.35 L64.0042 820.257 L49.9996 830.633 L64.0042 841.009 L64.0042 847.916 L45.3526 834.071 L28.3562 846.738 L28.3562 839.832 L41.0558 830.379 L28.3562 820.926 L28.3562 814.019 Z" fill="#000000" fill-rule="nonzero" fill-opacity="1" /><path clip-path="url(#clip690)" d="M14.5426 791.007 Q21.8632 795.272 29.0246 797.341 Q36.186 799.409 43.5384 799.409 Q50.8908 799.409 58.1159 797.341 Q65.3091 795.24 72.5979 791.007 L72.5979 796.099 Q65.1182 800.874 57.8931 803.261 Q50.668 805.616 43.5384 805.616 Q36.4406 805.616 29.2474 803.261 Q22.0542 800.905 14.5426 796.099 L14.5426 791.007 Z" fill="#000000" fill-rule="nonzero" fill-opacity="1" /><path clip-path="url(#clip690)" d="M16.4842 779.389 L16.4842 749.343 L21.895 749.343 L21.895 772.96 L35.9632 772.96 L35.9632 750.33 L41.3741 750.33 L41.3741 772.96 L58.5933 772.96 L58.5933 748.77 L64.0042 748.77 L64.0042 779.389 L16.4842 779.389 Z" fill="#000000" fill-rule="nonzero" fill-opacity="1" /><path clip-path="url(#clip690)" d="M33.8307 717.801 Q33.2578 718.788 33.0032 719.965 Q32.7167 721.111 32.7167 722.512 Q32.7167 727.477 35.9632 730.151 Q39.1779 732.792 45.2253 732.792 L64.0042 732.792 L64.0042 738.681 L28.3562 738.681 L28.3562 732.792 L33.8944 732.792 Q30.6479 730.946 29.0883 727.986 Q27.4968 725.026 27.4968 720.793 Q27.4968 720.188 27.5923 719.456 Q27.656 718.724 27.8151 717.833 L33.8307 717.801 Z" fill="#000000" fill-rule="nonzero" fill-opacity="1" /><path clip-path="url(#clip690)" d="M33.8307 692.147 Q33.2578 693.134 33.0032 694.312 Q32.7167 695.457 32.7167 696.858 Q32.7167 701.823 35.9632 704.497 Q39.1779 707.139 45.2253 707.139 L64.0042 707.139 L64.0042 713.027 L28.3562 713.027 L28.3562 707.139 L33.8944 707.139 Q30.6479 705.292 29.0883 702.332 Q27.4968 699.372 27.4968 695.139 Q27.4968 694.534 27.5923 693.802 Q27.656 693.07 27.8151 692.179 L33.8307 692.147 Z" fill="#000000" fill-rule="nonzero" fill-opacity="1" /><path clip-path="url(#clip690)" d="M32.4621 673.623 Q32.4621 678.334 36.1542 681.071 Q39.8145 683.808 46.212 683.808 Q52.6095 683.808 56.3017 681.103 Q59.9619 678.366 59.9619 673.623 Q59.9619 668.944 56.2698 666.207 Q52.5777 663.47 46.212 663.47 Q39.8781 663.47 36.186 666.207 Q32.4621 668.944 32.4621 673.623 M27.4968 673.623 Q27.4968 665.984 32.4621 661.624 Q37.4273 657.263 46.212 657.263 Q54.9649 657.263 59.9619 661.624 Q64.9272 665.984 64.9272 673.623 Q64.9272 681.294 59.9619 685.654 Q54.9649 689.983 46.212 689.983 Q37.4273 689.983 32.4621 685.654 Q27.4968 681.294 27.4968 673.623 Z" fill="#000000" fill-rule="nonzero" fill-opacity="1" /><path clip-path="url(#clip690)" d="M33.8307 626.899 Q33.2578 627.886 33.0032 629.063 Q32.7167 630.209 32.7167 631.609 Q32.7167 636.575 35.9632 639.248 Q39.1779 641.89 45.2253 641.89 L64.0042 641.89 L64.0042 647.778 L28.3562 647.778 L28.3562 641.89 L33.8944 641.89 Q30.6479 640.044 29.0883 637.084 Q27.4968 634.124 27.4968 629.891 Q27.4968 629.286 27.5923 628.554 Q27.656 627.822 27.8151 626.931 L33.8307 626.899 Z" fill="#000000" fill-rule="nonzero" fill-opacity="1" /><path clip-path="url(#clip690)" d="M14.5426 621.679 L14.5426 616.586 Q22.0542 611.812 29.2474 609.457 Q36.4406 607.07 43.5384 607.07 Q50.668 607.07 57.8931 609.457 Q65.1182 611.812 72.5979 616.586 L72.5979 621.679 Q65.3091 617.446 58.1159 615.377 Q50.8908 613.276 43.5384 613.276 Q36.186 613.276 29.0246 615.377 Q21.8632 617.446 14.5426 621.679 Z" fill="#000000" fill-rule="nonzero" fill-opacity="1" /><path clip-path="url(#clip690)" d="M708.956 12.096 L717.139 12.096 L717.139 65.6895 L746.589 65.6895 L746.589 72.576 L708.956 72.576 L708.956 12.096 Z" fill="#000000" fill-rule="nonzero" fill-opacity="1" /><path clip-path="url(#clip690)" d="M792.202 48.0275 L792.202 51.6733 L757.931 51.6733 Q758.418 59.3701 762.549 63.421 Q766.722 67.4314 774.135 67.4314 Q778.429 67.4314 782.439 66.3781 Q786.49 65.3249 790.46 63.2184 L790.46 70.267 Q786.45 71.9684 782.237 72.8596 Q778.024 73.7508 773.689 73.7508 Q762.833 73.7508 756.473 67.4314 Q750.154 61.1119 750.154 50.3365 Q750.154 39.1965 756.149 32.6746 Q762.185 26.1121 772.393 26.1121 Q781.548 26.1121 786.855 32.0264 Q792.202 37.9003 792.202 48.0275 M784.748 45.84 Q784.667 39.7232 781.305 36.0774 Q777.983 32.4315 772.474 32.4315 Q766.236 32.4315 762.468 35.9558 Q758.742 39.4801 758.174 45.8805 L784.748 45.84 Z" fill="#000000" fill-rule="nonzero" fill-opacity="1" /><path clip-path="url(#clip690)" d="M834.291 49.3643 Q834.291 41.2625 830.929 36.8065 Q827.607 32.3505 821.571 32.3505 Q815.576 32.3505 812.214 36.8065 Q808.892 41.2625 808.892 49.3643 Q808.892 57.4256 812.214 61.8816 Q815.576 66.3376 821.571 66.3376 Q827.607 66.3376 830.929 61.8816 Q834.291 57.4256 834.291 49.3643 M841.745 66.9452 Q841.745 78.5308 836.6 84.1616 Q831.455 89.8329 820.842 89.8329 Q816.913 89.8329 813.429 89.2252 Q809.945 88.6581 806.664 87.4428 L806.664 80.1917 Q809.945 81.9741 813.145 82.8248 Q816.345 83.6755 819.667 83.6755 Q826.999 83.6755 830.645 79.8271 Q834.291 76.0193 834.291 68.282 L834.291 64.5957 Q831.982 68.6061 828.377 70.5911 Q824.771 72.576 819.748 72.576 Q811.403 72.576 806.299 66.2161 Q801.195 59.8562 801.195 49.3643 Q801.195 38.832 806.299 32.472 Q811.403 26.1121 819.748 26.1121 Q824.771 26.1121 828.377 28.0971 Q831.982 30.082 834.291 34.0924 L834.291 27.2059 L841.745 27.2059 L841.745 66.9452 Z" fill="#000000" fill-rule="nonzero" fill-opacity="1" /><path clip-path="url(#clip690)" d="M895.905 48.0275 L895.905 51.6733 L861.635 51.6733 Q862.121 59.3701 866.253 63.421 Q870.425 67.4314 877.838 67.4314 Q882.132 67.4314 886.143 66.3781 Q890.193 65.3249 894.163 63.2184 L894.163 70.267 Q890.153 71.9684 885.94 72.8596 Q881.727 73.7508 877.393 73.7508 Q866.536 73.7508 860.176 67.4314 Q853.857 61.1119 853.857 50.3365 Q853.857 39.1965 859.852 32.6746 Q865.888 26.1121 876.096 26.1121 Q885.251 26.1121 890.558 32.0264 Q895.905 37.9003 895.905 48.0275 M888.452 45.84 Q888.371 39.7232 885.008 36.0774 Q881.687 32.4315 876.177 32.4315 Q869.939 32.4315 866.172 35.9558 Q862.445 39.4801 861.878 45.8805 L888.452 45.84 Z" fill="#000000" fill-rule="nonzero" fill-opacity="1" /><path clip-path="url(#clip690)" d="M945.853 45.1919 L945.853 72.576 L938.399 72.576 L938.399 45.4349 Q938.399 38.994 935.888 35.7938 Q933.376 32.5936 928.353 32.5936 Q922.317 32.5936 918.833 36.4419 Q915.35 40.2903 915.35 46.9338 L915.35 72.576 L907.855 72.576 L907.855 27.2059 L915.35 27.2059 L915.35 34.2544 Q918.023 30.163 921.628 28.1376 Q925.274 26.1121 930.014 26.1121 Q937.832 26.1121 941.842 30.9732 Q945.853 35.7938 945.853 45.1919 Z" fill="#000000" fill-rule="nonzero" fill-opacity="1" /><path clip-path="url(#clip690)" d="M990.575 34.0924 L990.575 9.54393 L998.028 9.54393 L998.028 72.576 L990.575 72.576 L990.575 65.7705 Q988.225 69.8214 984.62 71.8063 Q981.055 73.7508 976.032 73.7508 Q967.809 73.7508 962.624 67.1883 Q957.479 60.6258 957.479 49.9314 Q957.479 39.2371 962.624 32.6746 Q967.809 26.1121 976.032 26.1121 Q981.055 26.1121 984.62 28.0971 Q988.225 30.0415 990.575 34.0924 M965.176 49.9314 Q965.176 58.1548 968.538 62.8538 Q971.941 67.5124 977.855 67.5124 Q983.769 67.5124 987.172 62.8538 Q990.575 58.1548 990.575 49.9314 Q990.575 41.7081 987.172 37.0496 Q983.769 32.3505 977.855 32.3505 Q971.941 32.3505 968.538 37.0496 Q965.176 41.7081 965.176 49.9314 Z" fill="#000000" fill-rule="nonzero" fill-opacity="1" /><path clip-path="url(#clip690)" d="M1039.67 34.1734 Q1038.42 33.4443 1036.92 33.1202 Q1035.46 32.7556 1033.68 32.7556 Q1027.36 32.7556 1023.95 36.8875 Q1020.59 40.9789 1020.59 48.6757 L1020.59 72.576 L1013.1 72.576 L1013.1 27.2059 L1020.59 27.2059 L1020.59 34.2544 Q1022.94 30.1225 1026.71 28.1376 Q1030.48 26.1121 1035.86 26.1121 Q1036.63 26.1121 1037.57 26.2337 Q1038.5 26.3147 1039.63 26.5172 L1039.67 34.1734 Z" fill="#000000" fill-rule="nonzero" fill-opacity="1" /><path clip-path="url(#clip690)" d="M1084.47 48.0275 L1084.47 51.6733 L1050.2 51.6733 Q1050.69 59.3701 1054.82 63.421 Q1058.99 67.4314 1066.41 67.4314 Q1070.7 67.4314 1074.71 66.3781 Q1078.76 65.3249 1082.73 63.2184 L1082.73 70.267 Q1078.72 71.9684 1074.51 72.8596 Q1070.3 73.7508 1065.96 73.7508 Q1055.11 73.7508 1048.75 67.4314 Q1042.43 61.1119 1042.43 50.3365 Q1042.43 39.1965 1048.42 32.6746 Q1054.46 26.1121 1064.67 26.1121 Q1073.82 26.1121 1079.13 32.0264 Q1084.47 37.9003 1084.47 48.0275 M1077.02 45.84 Q1076.94 39.7232 1073.58 36.0774 Q1070.26 32.4315 1064.75 32.4315 Q1058.51 32.4315 1054.74 35.9558 Q1051.01 39.4801 1050.45 45.8805 L1077.02 45.84 Z" fill="#000000" fill-rule="nonzero" fill-opacity="1" /><path clip-path="url(#clip690)" d="M1131.59 18.8205 L1131.59 65.8515 L1141.47 65.8515 Q1153.99 65.8515 1159.78 60.1802 Q1165.61 54.509 1165.61 42.2752 Q1165.61 30.1225 1159.78 24.4918 Q1153.99 18.8205 1141.47 18.8205 L1131.59 18.8205 M1123.4 12.096 L1140.22 12.096 Q1157.8 12.096 1166.02 19.4281 Q1174.24 26.7198 1174.24 42.2752 Q1174.24 57.9117 1165.98 65.2439 Q1157.72 72.576 1140.22 72.576 L1123.4 72.576 L1123.4 12.096 Z" fill="#000000" fill-rule="nonzero" fill-opacity="1" /><path clip-path="url(#clip690)" d="M1204.54 32.4315 Q1198.55 32.4315 1195.06 37.1306 Q1191.58 41.7891 1191.58 49.9314 Q1191.58 58.0738 1195.02 62.7728 Q1198.51 67.4314 1204.54 67.4314 Q1210.5 67.4314 1213.98 62.7323 Q1217.47 58.0333 1217.47 49.9314 Q1217.47 41.8701 1213.98 37.1711 Q1210.5 32.4315 1204.54 32.4315 M1204.54 26.1121 Q1214.27 26.1121 1219.82 32.4315 Q1225.37 38.7509 1225.37 49.9314 Q1225.37 61.0714 1219.82 67.4314 Q1214.27 73.7508 1204.54 73.7508 Q1194.78 73.7508 1189.23 67.4314 Q1183.72 61.0714 1183.72 49.9314 Q1183.72 38.7509 1189.23 32.4315 Q1194.78 26.1121 1204.54 26.1121 Z" fill="#000000" fill-rule="nonzero" fill-opacity="1" /><path clip-path="url(#clip690)" d="M1273.04 35.9153 Q1275.84 30.8922 1279.73 28.5022 Q1283.62 26.1121 1288.88 26.1121 Q1295.97 26.1121 1299.82 31.0947 Q1303.67 36.0368 1303.67 45.1919 L1303.67 72.576 L1296.18 72.576 L1296.18 45.4349 Q1296.18 38.913 1293.87 35.7533 Q1291.56 32.5936 1286.82 32.5936 Q1281.02 32.5936 1277.66 36.4419 Q1274.3 40.2903 1274.3 46.9338 L1274.3 72.576 L1266.81 72.576 L1266.81 45.4349 Q1266.81 38.8725 1264.5 35.7533 Q1262.19 32.5936 1257.37 32.5936 Q1251.66 32.5936 1248.29 36.4824 Q1244.93 40.3308 1244.93 46.9338 L1244.93 72.576 L1237.44 72.576 L1237.44 27.2059 L1244.93 27.2059 L1244.93 34.2544 Q1247.48 30.082 1251.05 28.0971 Q1254.61 26.1121 1259.51 26.1121 Q1264.46 26.1121 1267.9 28.6237 Q1271.38 31.1352 1273.04 35.9153 Z" fill="#000000" fill-rule="nonzero" fill-opacity="1" /><path clip-path="url(#clip690)" d="M1339.16 49.7694 Q1330.12 49.7694 1326.64 51.8354 Q1323.15 53.9013 1323.15 58.8839 Q1323.15 62.8538 1325.75 65.2034 Q1328.38 67.5124 1332.88 67.5124 Q1339.07 67.5124 1342.8 63.1374 Q1346.57 58.7219 1346.57 51.4303 L1346.57 49.7694 L1339.16 49.7694 M1354.02 46.6907 L1354.02 72.576 L1346.57 72.576 L1346.57 65.6895 Q1344.02 69.8214 1340.21 71.8063 Q1336.4 73.7508 1330.89 73.7508 Q1323.92 73.7508 1319.79 69.8619 Q1315.7 65.9325 1315.7 59.3701 Q1315.7 51.7138 1320.8 47.825 Q1325.95 43.9361 1336.12 43.9361 L1346.57 43.9361 L1346.57 43.2069 Q1346.57 38.0623 1343.17 35.2672 Q1339.8 32.4315 1333.69 32.4315 Q1329.8 32.4315 1326.11 33.3632 Q1322.42 34.295 1319.02 36.1584 L1319.02 29.2718 Q1323.11 27.692 1326.96 26.9223 Q1330.81 26.1121 1334.46 26.1121 Q1344.3 26.1121 1349.16 31.2163 Q1354.02 36.3204 1354.02 46.6907 Z" fill="#000000" fill-rule="nonzero" fill-opacity="1" /><path clip-path="url(#clip690)" d="M1369.37 27.2059 L1376.83 27.2059 L1376.83 72.576 L1369.37 72.576 L1369.37 27.2059 M1369.37 9.54393 L1376.83 9.54393 L1376.83 18.9825 L1369.37 18.9825 L1369.37 9.54393 Z" fill="#000000" fill-rule="nonzero" fill-opacity="1" /><path clip-path="url(#clip690)" d="M1430.14 45.1919 L1430.14 72.576 L1422.68 72.576 L1422.68 45.4349 Q1422.68 38.994 1420.17 35.7938 Q1417.66 32.5936 1412.64 32.5936 Q1406.6 32.5936 1403.12 36.4419 Q1399.64 40.2903 1399.64 46.9338 L1399.64 72.576 L1392.14 72.576 L1392.14 27.2059 L1399.64 27.2059 L1399.64 34.2544 Q1402.31 30.163 1405.91 28.1376 Q1409.56 26.1121 1414.3 26.1121 Q1422.12 26.1121 1426.13 30.9732 Q1430.14 35.7938 1430.14 45.1919 Z" fill="#000000" fill-rule="nonzero" fill-opacity="1" /><path clip-path="url(#clip690)" d="M1471.7 12.096 L1483.89 12.096 L1499.33 53.2532 L1514.84 12.096 L1527.04 12.096 L1527.04 72.576 L1519.06 72.576 L1519.06 19.4686 L1503.46 60.9499 L1495.24 60.9499 L1479.64 19.4686 L1479.64 72.576 L1471.7 72.576 L1471.7 12.096 Z" fill="#000000" fill-rule="nonzero" fill-opacity="1" /><path clip-path="url(#clip690)" d="M1563.58 49.7694 Q1554.54 49.7694 1551.06 51.8354 Q1547.57 53.9013 1547.57 58.8839 Q1547.57 62.8538 1550.17 65.2034 Q1552.8 67.5124 1557.3 67.5124 Q1563.49 67.5124 1567.22 63.1374 Q1570.99 58.7219 1570.99 51.4303 L1570.99 49.7694 L1563.58 49.7694 M1578.44 46.6907 L1578.44 72.576 L1570.99 72.576 L1570.99 65.6895 Q1568.44 69.8214 1564.63 71.8063 Q1560.82 73.7508 1555.31 73.7508 Q1548.34 73.7508 1544.21 69.8619 Q1540.12 65.9325 1540.12 59.3701 Q1540.12 51.7138 1545.22 47.825 Q1550.37 43.9361 1560.54 43.9361 L1570.99 43.9361 L1570.99 43.2069 Q1570.99 38.0623 1567.59 35.2672 Q1564.22 32.4315 1558.11 32.4315 Q1554.22 32.4315 1550.53 33.3632 Q1546.84 34.295 1543.44 36.1584 L1543.44 29.2718 Q1547.53 27.692 1551.38 26.9223 Q1555.23 26.1121 1558.88 26.1121 Q1568.72 26.1121 1573.58 31.2163 Q1578.44 36.3204 1578.44 46.6907 Z" fill="#000000" fill-rule="nonzero" fill-opacity="1" /><path clip-path="url(#clip690)" d="M1631.51 27.2059 L1615.1 49.2833 L1632.36 72.576 L1623.57 72.576 L1610.36 54.752 L1597.16 72.576 L1588.37 72.576 L1605.99 48.8377 L1589.87 27.2059 L1598.66 27.2059 L1610.69 43.369 L1622.72 27.2059 L1631.51 27.2059 Z" fill="#000000" fill-rule="nonzero" fill-opacity="1" /><path clip-path="url(#clip690)" d="M1669.59 12.096 L1707.83 12.096 L1707.83 18.9825 L1677.77 18.9825 L1677.77 36.8875 L1706.57 36.8875 L1706.57 43.7741 L1677.77 43.7741 L1677.77 65.6895 L1708.56 65.6895 L1708.56 72.576 L1669.59 72.576 L1669.59 12.096 Z" fill="#000000" fill-rule="nonzero" fill-opacity="1" /><path clip-path="url(#clip690)" d="M1747.97 34.1734 Q1746.72 33.4443 1745.22 33.1202 Q1743.76 32.7556 1741.98 32.7556 Q1735.66 32.7556 1732.25 36.8875 Q1728.89 40.9789 1728.89 48.6757 L1728.89 72.576 L1721.4 72.576 L1721.4 27.2059 L1728.89 27.2059 L1728.89 34.2544 Q1731.24 30.1225 1735.01 28.1376 Q1738.78 26.1121 1744.16 26.1121 Q1744.93 26.1121 1745.87 26.2337 Q1746.8 26.3147 1747.93 26.5172 L1747.97 34.1734 Z" fill="#000000" fill-rule="nonzero" fill-opacity="1" /><path clip-path="url(#clip690)" d="M1780.62 34.1734 Q1779.37 33.4443 1777.87 33.1202 Q1776.41 32.7556 1774.63 32.7556 Q1768.31 32.7556 1764.91 36.8875 Q1761.54 40.9789 1761.54 48.6757 L1761.54 72.576 L1754.05 72.576 L1754.05 27.2059 L1761.54 27.2059 L1761.54 34.2544 Q1763.89 30.1225 1767.66 28.1376 Q1771.43 26.1121 1776.81 26.1121 Q1777.58 26.1121 1778.52 26.2337 Q1779.45 26.3147 1780.58 26.5172 L1780.62 34.1734 Z" fill="#000000" fill-rule="nonzero" fill-opacity="1" /><path clip-path="url(#clip690)" d="M1804.2 32.4315 Q1798.2 32.4315 1794.72 37.1306 Q1791.24 41.7891 1791.24 49.9314 Q1791.24 58.0738 1794.68 62.7728 Q1798.16 67.4314 1804.2 67.4314 Q1810.15 67.4314 1813.64 62.7323 Q1817.12 58.0333 1817.12 49.9314 Q1817.12 41.8701 1813.64 37.1711 Q1810.15 32.4315 1804.2 32.4315 M1804.2 26.1121 Q1813.92 26.1121 1819.47 32.4315 Q1825.02 38.7509 1825.02 49.9314 Q1825.02 61.0714 1819.47 67.4314 Q1813.92 73.7508 1804.2 73.7508 Q1794.44 73.7508 1788.89 67.4314 Q1783.38 61.0714 1783.38 49.9314 Q1783.38 38.7509 1788.89 32.4315 Q1794.44 26.1121 1804.2 26.1121 Z" fill="#000000" fill-rule="nonzero" fill-opacity="1" /><path clip-path="url(#clip690)" d="M1863.67 34.1734 Q1862.41 33.4443 1860.91 33.1202 Q1859.45 32.7556 1857.67 32.7556 Q1851.35 32.7556 1847.95 36.8875 Q1844.59 40.9789 1844.59 48.6757 L1844.59 72.576 L1837.09 72.576 L1837.09 27.2059 L1844.59 27.2059 L1844.59 34.2544 Q1846.94 30.1225 1850.7 28.1376 Q1854.47 26.1121 1859.86 26.1121 Q1860.63 26.1121 1861.56 26.2337 Q1862.49 26.3147 1863.63 26.5172 L1863.67 34.1734 Z" fill="#000000" fill-rule="nonzero" fill-opacity="1" /><polyline clip-path="url(#clip692)" style="stroke:#1f77b4; stroke-linecap:round; stroke-linejoin:round; stroke-width:8; stroke-opacity:1; fill:none" points="280.231,550.146 398.593,763.842 516.956,892.366 635.318,978.37 753.68,1040.13 872.043,1086.79 990.405,1123.42 1108.77,1153.07 1227.13,1176.91 1345.49,1194.72 1463.85,1210 1582.22,1223.2 1700.58,1234.78 1818.94,1244.93 1937.3,1253.94 2055.67,1262.02 2174.03,1269.31 2292.39,1275.89 "/>
<circle clip-path="url(#clip692)" cx="280.231" cy="550.146" r="14.4" fill="#1f77b4" fill-rule="evenodd" fill-opacity="1" stroke="#000000" stroke-opacity="1" stroke-width="3.2"/>
<circle clip-path="url(#clip692)" cx="398.593" cy="763.842" r="14.4" fill="#1f77b4" fill-rule="evenodd" fill-opacity="1" stroke="#000000" stroke-opacity="1" stroke-width="3.2"/>
<circle clip-path="url(#clip692)" cx="516.956" cy="892.366" r="14.4" fill="#1f77b4" fill-rule="evenodd" fill-opacity="1" stroke="#000000" stroke-opacity="1" stroke-width="3.2"/>
<circle clip-path="url(#clip692)" cx="635.318" cy="978.37" r="14.4" fill="#1f77b4" fill-rule="evenodd" fill-opacity="1" stroke="#000000" stroke-opacity="1" stroke-width="3.2"/>
<circle clip-path="url(#clip692)" cx="753.68" cy="1040.13" r="14.4" fill="#1f77b4" fill-rule="evenodd" fill-opacity="1" stroke="#000000" stroke-opacity="1" stroke-width="3.2"/>
<circle clip-path="url(#clip692)" cx="872.043" cy="1086.79" r="14.4" fill="#1f77b4" fill-rule="evenodd" fill-opacity="1" stroke="#000000" stroke-opacity="1" stroke-width="3.2"/>
<circle clip-path="url(#clip692)" cx="990.405" cy="1123.42" r="14.4" fill="#1f77b4" fill-rule="evenodd" fill-opacity="1" stroke="#000000" stroke-opacity="1" stroke-width="3.2"/>
<circle clip-path="url(#clip692)" cx="1108.77" cy="1153.07" r="14.4" fill="#1f77b4" fill-rule="evenodd" fill-opacity="1" stroke="#000000" stroke-opacity="1" stroke-width="3.2"/>
<circle clip-path="url(#clip692)" cx="1227.13" cy="1176.91" r="14.4" fill="#1f77b4" fill-rule="evenodd" fill-opacity="1" stroke="#000000" stroke-opacity="1" stroke-width="3.2"/>
<circle clip-path="url(#clip692)" cx="1345.49" cy="1194.72" r="14.4" fill="#1f77b4" fill-rule="evenodd" fill-opacity="1" stroke="#000000" stroke-opacity="1" stroke-width="3.2"/>
<circle clip-path="url(#clip692)" cx="1463.85" cy="1210" r="14.4" fill="#1f77b4" fill-rule="evenodd" fill-opacity="1" stroke="#000000" stroke-opacity="1" stroke-width="3.2"/>
<circle clip-path="url(#clip692)" cx="1582.22" cy="1223.2" r="14.4" fill="#1f77b4" fill-rule="evenodd" fill-opacity="1" stroke="#000000" stroke-opacity="1" stroke-width="3.2"/>
<circle clip-path="url(#clip692)" cx="1700.58" cy="1234.78" r="14.4" fill="#1f77b4" fill-rule="evenodd" fill-opacity="1" stroke="#000000" stroke-opacity="1" stroke-width="3.2"/>
<circle clip-path="url(#clip692)" cx="1818.94" cy="1244.93" r="14.4" fill="#1f77b4" fill-rule="evenodd" fill-opacity="1" stroke="#000000" stroke-opacity="1" stroke-width="3.2"/>
<circle clip-path="url(#clip692)" cx="1937.3" cy="1253.94" r="14.4" fill="#1f77b4" fill-rule="evenodd" fill-opacity="1" stroke="#000000" stroke-opacity="1" stroke-width="3.2"/>
<circle clip-path="url(#clip692)" cx="2055.67" cy="1262.02" r="14.4" fill="#1f77b4" fill-rule="evenodd" fill-opacity="1" stroke="#000000" stroke-opacity="1" stroke-width="3.2"/>
<circle clip-path="url(#clip692)" cx="2174.03" cy="1269.31" r="14.4" fill="#1f77b4" fill-rule="evenodd" fill-opacity="1" stroke="#000000" stroke-opacity="1" stroke-width="3.2"/>
<circle clip-path="url(#clip692)" cx="2292.39" cy="1275.89" r="14.4" fill="#1f77b4" fill-rule="evenodd" fill-opacity="1" stroke="#000000" stroke-opacity="1" stroke-width="3.2"/>
<polyline clip-path="url(#clip692)" style="stroke:#ff7e0d; stroke-linecap:round; stroke-linejoin:round; stroke-width:8; stroke-opacity:1; fill:none" points="280.231,160.256 398.593,684.167 516.956,936.737 635.318,1076.67 753.68,1162 872.043,1218.32 990.405,1257.57 1108.77,1020.36 1227.13,1080.09 1345.49,1127.87 1463.85,1167.12 1582.22,1199.55 1700.58,1225.14 1818.94,1245.62 1937.3,1262.69 2055.67,1278.05 2174.03,1291.7 2292.39,1301.94 "/>
<circle clip-path="url(#clip692)" cx="280.231" cy="160.256" r="14.4" fill="#ff7e0d" fill-rule="evenodd" fill-opacity="1" stroke="#000000" stroke-opacity="1" stroke-width="3.2"/>
<circle clip-path="url(#clip692)" cx="398.593" cy="684.167" r="14.4" fill="#ff7e0d" fill-rule="evenodd" fill-opacity="1" stroke="#000000" stroke-opacity="1" stroke-width="3.2"/>
<circle clip-path="url(#clip692)" cx="516.956" cy="936.737" r="14.4" fill="#ff7e0d" fill-rule="evenodd" fill-opacity="1" stroke="#000000" stroke-opacity="1" stroke-width="3.2"/>
<circle clip-path="url(#clip692)" cx="635.318" cy="1076.67" r="14.4" fill="#ff7e0d" fill-rule="evenodd" fill-opacity="1" stroke="#000000" stroke-opacity="1" stroke-width="3.2"/>
<circle clip-path="url(#clip692)" cx="753.68" cy="1162" r="14.4" fill="#ff7e0d" fill-rule="evenodd" fill-opacity="1" stroke="#000000" stroke-opacity="1" stroke-width="3.2"/>
<circle clip-path="url(#clip692)" cx="872.043" cy="1218.32" r="14.4" fill="#ff7e0d" fill-rule="evenodd" fill-opacity="1" stroke="#000000" stroke-opacity="1" stroke-width="3.2"/>
<circle clip-path="url(#clip692)" cx="990.405" cy="1257.57" r="14.4" fill="#ff7e0d" fill-rule="evenodd" fill-opacity="1" stroke="#000000" stroke-opacity="1" stroke-width="3.2"/>
<circle clip-path="url(#clip692)" cx="1108.77" cy="1020.36" r="14.4" fill="#ff7e0d" fill-rule="evenodd" fill-opacity="1" stroke="#000000" stroke-opacity="1" stroke-width="3.2"/>
<circle clip-path="url(#clip692)" cx="1227.13" cy="1080.09" r="14.4" fill="#ff7e0d" fill-rule="evenodd" fill-opacity="1" stroke="#000000" stroke-opacity="1" stroke-width="3.2"/>
<circle clip-path="url(#clip692)" cx="1345.49" cy="1127.87" r="14.4" fill="#ff7e0d" fill-rule="evenodd" fill-opacity="1" stroke="#000000" stroke-opacity="1" stroke-width="3.2"/>
<circle clip-path="url(#clip692)" cx="1463.85" cy="1167.12" r="14.4" fill="#ff7e0d" fill-rule="evenodd" fill-opacity="1" stroke="#000000" stroke-opacity="1" stroke-width="3.2"/>
<circle clip-path="url(#clip692)" cx="1582.22" cy="1199.55" r="14.4" fill="#ff7e0d" fill-rule="evenodd" fill-opacity="1" stroke="#000000" stroke-opacity="1" stroke-width="3.2"/>
<circle clip-path="url(#clip692)" cx="1700.58" cy="1225.14" r="14.4" fill="#ff7e0d" fill-rule="evenodd" fill-opacity="1" stroke="#000000" stroke-opacity="1" stroke-width="3.2"/>
<circle clip-path="url(#clip692)" cx="1818.94" cy="1245.62" r="14.4" fill="#ff7e0d" fill-rule="evenodd" fill-opacity="1" stroke="#000000" stroke-opacity="1" stroke-width="3.2"/>
<circle clip-path="url(#clip692)" cx="1937.3" cy="1262.69" r="14.4" fill="#ff7e0d" fill-rule="evenodd" fill-opacity="1" stroke="#000000" stroke-opacity="1" stroke-width="3.2"/>
<circle clip-path="url(#clip692)" cx="2055.67" cy="1278.05" r="14.4" fill="#ff7e0d" fill-rule="evenodd" fill-opacity="1" stroke="#000000" stroke-opacity="1" stroke-width="3.2"/>
<circle clip-path="url(#clip692)" cx="2174.03" cy="1291.7" r="14.4" fill="#ff7e0d" fill-rule="evenodd" fill-opacity="1" stroke="#000000" stroke-opacity="1" stroke-width="3.2"/>
<circle clip-path="url(#clip692)" cx="2292.39" cy="1301.94" r="14.4" fill="#ff7e0d" fill-rule="evenodd" fill-opacity="1" stroke="#000000" stroke-opacity="1" stroke-width="3.2"/>
<polyline clip-path="url(#clip692)" style="stroke:#2ba02b; stroke-linecap:round; stroke-linejoin:round; stroke-width:8; stroke-opacity:1; fill:none" points="280.231,961.526 398.593,1126.16 516.956,1217.04 635.318,1265.38 753.68,1297.69 872.043,1319.93 990.405,1335.1 1108.77,1346.65 1227.13,1355.36 1345.49,1362.08 1463.85,1367.52 1582.22,1371.84 1700.58,1375.41 1818.94,1378.41 1937.3,1380.88 2055.67,1383.01 2174.03,1384.84 2292.39,1386.4 "/>
<circle clip-path="url(#clip692)" cx="280.231" cy="961.526" r="14.4" fill="#2ba02b" fill-rule="evenodd" fill-opacity="1" stroke="#000000" stroke-opacity="1" stroke-width="3.2"/>
<circle clip-path="url(#clip692)" cx="398.593" cy="1126.16" r="14.4" fill="#2ba02b" fill-rule="evenodd" fill-opacity="1" stroke="#000000" stroke-opacity="1" stroke-width="3.2"/>
<circle clip-path="url(#clip692)" cx="516.956" cy="1217.04" r="14.4" fill="#2ba02b" fill-rule="evenodd" fill-opacity="1" stroke="#000000" stroke-opacity="1" stroke-width="3.2"/>
<circle clip-path="url(#clip692)" cx="635.318" cy="1265.38" r="14.4" fill="#2ba02b" fill-rule="evenodd" fill-opacity="1" stroke="#000000" stroke-opacity="1" stroke-width="3.2"/>
<circle clip-path="url(#clip692)" cx="753.68" cy="1297.69" r="14.4" fill="#2ba02b" fill-rule="evenodd" fill-opacity="1" stroke="#000000" stroke-opacity="1" stroke-width="3.2"/>
<circle clip-path="url(#clip692)" cx="872.043" cy="1319.93" r="14.4" fill="#2ba02b" fill-rule="evenodd" fill-opacity="1" stroke="#000000" stroke-opacity="1" stroke-width="3.2"/>
<circle clip-path="url(#clip692)" cx="990.405" cy="1335.1" r="14.4" fill="#2ba02b" fill-rule="evenodd" fill-opacity="1" stroke="#000000" stroke-opacity="1" stroke-width="3.2"/>
<circle clip-path="url(#clip692)" cx="1108.77" cy="1346.65" r="14.4" fill="#2ba02b" fill-rule="evenodd" fill-opacity="1" stroke="#000000" stroke-opacity="1" stroke-width="3.2"/>
<circle clip-path="url(#clip692)" cx="1227.13" cy="1355.36" r="14.4" fill="#2ba02b" fill-rule="evenodd" fill-opacity="1" stroke="#000000" stroke-opacity="1" stroke-width="3.2"/>
<circle clip-path="url(#clip692)" cx="1345.49" cy="1362.08" r="14.4" fill="#2ba02b" fill-rule="evenodd" fill-opacity="1" stroke="#000000" stroke-opacity="1" stroke-width="3.2"/>
<circle clip-path="url(#clip692)" cx="1463.85" cy="1367.52" r="14.4" fill="#2ba02b" fill-rule="evenodd" fill-opacity="1" stroke="#000000" stroke-opacity="1" stroke-width="3.2"/>
<circle clip-path="url(#clip692)" cx="1582.22" cy="1371.84" r="14.4" fill="#2ba02b" fill-rule="evenodd" fill-opacity="1" stroke="#000000" stroke-opacity="1" stroke-width="3.2"/>
<circle clip-path="url(#clip692)" cx="1700.58" cy="1375.41" r="14.4" fill="#2ba02b" fill-rule="evenodd" fill-opacity="1" stroke="#000000" stroke-opacity="1" stroke-width="3.2"/>
<circle clip-path="url(#clip692)" cx="1818.94" cy="1378.41" r="14.4" fill="#2ba02b" fill-rule="evenodd" fill-opacity="1" stroke="#000000" stroke-opacity="1" stroke-width="3.2"/>
<circle clip-path="url(#clip692)" cx="1937.3" cy="1380.88" r="14.4" fill="#2ba02b" fill-rule="evenodd" fill-opacity="1" stroke="#000000" stroke-opacity="1" stroke-width="3.2"/>
<circle clip-path="url(#clip692)" cx="2055.67" cy="1383.01" r="14.4" fill="#2ba02b" fill-rule="evenodd" fill-opacity="1" stroke="#000000" stroke-opacity="1" stroke-width="3.2"/>
<circle clip-path="url(#clip692)" cx="2174.03" cy="1384.84" r="14.4" fill="#2ba02b" fill-rule="evenodd" fill-opacity="1" stroke="#000000" stroke-opacity="1" stroke-width="3.2"/>
<circle clip-path="url(#clip692)" cx="2292.39" cy="1386.4" r="14.4" fill="#2ba02b" fill-rule="evenodd" fill-opacity="1" stroke="#000000" stroke-opacity="1" stroke-width="3.2"/>
<path clip-path="url(#clip690)" d="M1795.27 374.156 L2281.66 374.156 L2281.66 166.796 L1795.27 166.796  Z" fill="#ffffff" fill-rule="evenodd" fill-opacity="1"/>
<polyline clip-path="url(#clip690)" style="stroke:#000000; stroke-linecap:round; stroke-linejoin:round; stroke-width:4; stroke-opacity:1; fill:none" points="1795.27,374.156 2281.66,374.156 2281.66,166.796 1795.27,166.796 1795.27,374.156 "/>
<polyline clip-path="url(#clip690)" style="stroke:#1f77b4; stroke-linecap:round; stroke-linejoin:round; stroke-width:8; stroke-opacity:1; fill:none" points="1818.97,218.636 1961.16,218.636 "/>
<path clip-path="url(#clip690)" d="M1984.86 201.356 L2006.71 201.356 L2006.71 205.291 L1989.54 205.291 L1989.54 215.522 L2005.99 215.522 L2005.99 219.457 L1989.54 219.457 L1989.54 231.981 L2007.13 231.981 L2007.13 235.916 L1984.86 235.916 L1984.86 201.356 Z" fill="#000000" fill-rule="nonzero" fill-opacity="1" /><path clip-path="url(#clip690)" d="M2036.18 209.99 L2026.8 222.606 L2036.67 235.916 L2031.64 235.916 L2024.1 225.731 L2016.55 235.916 L2011.53 235.916 L2021.6 222.351 L2012.38 209.99 L2017.41 209.99 L2024.28 219.226 L2031.16 209.99 L2036.18 209.99 Z" fill="#000000" fill-rule="nonzero" fill-opacity="1" /><path clip-path="url(#clip690)" d="M2046.8 232.027 L2046.8 245.777 L2042.52 245.777 L2042.52 209.99 L2046.8 209.99 L2046.8 213.925 Q2048.15 211.61 2050.18 210.499 Q2052.24 209.365 2055.09 209.365 Q2059.81 209.365 2062.75 213.115 Q2065.72 216.865 2065.72 222.976 Q2065.72 229.087 2062.75 232.837 Q2059.81 236.587 2055.09 236.587 Q2052.24 236.587 2050.18 235.476 Q2048.15 234.342 2046.8 232.027 M2061.3 222.976 Q2061.3 218.277 2059.35 215.615 Q2057.43 212.93 2054.05 212.93 Q2050.67 212.93 2048.73 215.615 Q2046.8 218.277 2046.8 222.976 Q2046.8 227.675 2048.73 230.36 Q2050.67 233.022 2054.05 233.022 Q2057.43 233.022 2059.35 230.36 Q2061.3 227.675 2061.3 222.976 Z" fill="#000000" fill-rule="nonzero" fill-opacity="1" /><path clip-path="url(#clip690)" d="M2094.95 221.888 L2094.95 223.971 L2075.37 223.971 Q2075.65 228.369 2078.01 230.684 Q2080.39 232.976 2084.63 232.976 Q2087.08 232.976 2089.37 232.374 Q2091.69 231.772 2093.96 230.569 L2093.96 234.596 Q2091.67 235.568 2089.26 236.078 Q2086.85 236.587 2084.37 236.587 Q2078.17 236.587 2074.54 232.976 Q2070.92 229.365 2070.92 223.207 Q2070.92 216.842 2074.35 213.115 Q2077.8 209.365 2083.63 209.365 Q2088.86 209.365 2091.9 212.745 Q2094.95 216.101 2094.95 221.888 M2090.69 220.638 Q2090.65 217.143 2088.73 215.059 Q2086.83 212.976 2083.68 212.976 Q2080.11 212.976 2077.96 214.99 Q2075.83 217.004 2075.51 220.661 L2090.69 220.638 Z" fill="#000000" fill-rule="nonzero" fill-opacity="1" /><path clip-path="url(#clip690)" d="M2120.6 210.985 L2120.6 214.967 Q2118.79 213.971 2116.97 213.485 Q2115.16 212.976 2113.31 212.976 Q2109.17 212.976 2106.87 215.615 Q2104.58 218.231 2104.58 222.976 Q2104.58 227.721 2106.87 230.36 Q2109.17 232.976 2113.31 232.976 Q2115.16 232.976 2116.97 232.49 Q2118.79 231.981 2120.6 230.985 L2120.6 234.92 Q2118.82 235.754 2116.9 236.17 Q2115 236.587 2112.85 236.587 Q2106.99 236.587 2103.54 232.906 Q2100.09 229.226 2100.09 222.976 Q2100.09 216.633 2103.56 212.999 Q2107.06 209.365 2113.12 209.365 Q2115.09 209.365 2116.97 209.782 Q2118.84 210.175 2120.6 210.985 Z" fill="#000000" fill-rule="nonzero" fill-opacity="1" /><path clip-path="url(#clip690)" d="M2132.22 202.629 L2132.22 209.99 L2140.99 209.99 L2140.99 213.3 L2132.22 213.3 L2132.22 227.374 Q2132.22 230.545 2133.08 231.448 Q2133.96 232.351 2136.62 232.351 L2140.99 232.351 L2140.99 235.916 L2136.62 235.916 Q2131.69 235.916 2129.81 234.087 Q2127.94 232.235 2127.94 227.374 L2127.94 213.3 L2124.81 213.3 L2124.81 209.99 L2127.94 209.99 L2127.94 202.629 L2132.22 202.629 Z" fill="#000000" fill-rule="nonzero" fill-opacity="1" /><path clip-path="url(#clip690)" d="M2158.38 222.883 Q2153.22 222.883 2151.23 224.064 Q2149.23 225.244 2149.23 228.092 Q2149.23 230.36 2150.72 231.703 Q2152.22 233.022 2154.79 233.022 Q2158.33 233.022 2160.46 230.522 Q2162.61 227.999 2162.61 223.832 L2162.61 222.883 L2158.38 222.883 M2166.87 221.124 L2166.87 235.916 L2162.61 235.916 L2162.61 231.981 Q2161.16 234.342 2158.98 235.476 Q2156.8 236.587 2153.66 236.587 Q2149.67 236.587 2147.31 234.365 Q2144.98 232.119 2144.98 228.369 Q2144.98 223.994 2147.89 221.772 Q2150.83 219.55 2156.64 219.55 L2162.61 219.55 L2162.61 219.133 Q2162.61 216.194 2160.67 214.596 Q2158.75 212.976 2155.25 212.976 Q2153.03 212.976 2150.92 213.508 Q2148.82 214.041 2146.87 215.106 L2146.87 211.17 Q2149.21 210.268 2151.41 209.828 Q2153.61 209.365 2155.69 209.365 Q2161.32 209.365 2164.1 212.282 Q2166.87 215.198 2166.87 221.124 Z" fill="#000000" fill-rule="nonzero" fill-opacity="1" /><path clip-path="url(#clip690)" d="M2179.86 202.629 L2179.86 209.99 L2188.63 209.99 L2188.63 213.3 L2179.86 213.3 L2179.86 227.374 Q2179.86 230.545 2180.72 231.448 Q2181.6 232.351 2184.26 232.351 L2188.63 232.351 L2188.63 235.916 L2184.26 235.916 Q2179.33 235.916 2177.45 234.087 Q2175.58 232.235 2175.58 227.374 L2175.58 213.3 L2172.45 213.3 L2172.45 209.99 L2175.58 209.99 L2175.58 202.629 L2179.86 202.629 Z" fill="#000000" fill-rule="nonzero" fill-opacity="1" /><path clip-path="url(#clip690)" d="M2194.23 209.99 L2198.49 209.99 L2198.49 235.916 L2194.23 235.916 L2194.23 209.99 M2194.23 199.897 L2198.49 199.897 L2198.49 205.291 L2194.23 205.291 L2194.23 199.897 Z" fill="#000000" fill-rule="nonzero" fill-opacity="1" /><path clip-path="url(#clip690)" d="M2217.45 212.976 Q2214.03 212.976 2212.04 215.661 Q2210.04 218.323 2210.04 222.976 Q2210.04 227.629 2212.01 230.314 Q2214 232.976 2217.45 232.976 Q2220.85 232.976 2222.85 230.291 Q2224.84 227.606 2224.84 222.976 Q2224.84 218.37 2222.85 215.684 Q2220.85 212.976 2217.45 212.976 M2217.45 209.365 Q2223.01 209.365 2226.18 212.976 Q2229.35 216.587 2229.35 222.976 Q2229.35 229.342 2226.18 232.976 Q2223.01 236.587 2217.45 236.587 Q2211.87 236.587 2208.7 232.976 Q2205.55 229.342 2205.55 222.976 Q2205.55 216.587 2208.7 212.976 Q2211.87 209.365 2217.45 209.365 Z" fill="#000000" fill-rule="nonzero" fill-opacity="1" /><path clip-path="url(#clip690)" d="M2257.96 220.268 L2257.96 235.916 L2253.7 235.916 L2253.7 220.407 Q2253.7 216.726 2252.27 214.897 Q2250.83 213.069 2247.96 213.069 Q2244.51 213.069 2242.52 215.268 Q2240.53 217.467 2240.53 221.263 L2240.53 235.916 L2236.25 235.916 L2236.25 209.99 L2240.53 209.99 L2240.53 214.018 Q2242.06 211.68 2244.12 210.522 Q2246.2 209.365 2248.91 209.365 Q2253.38 209.365 2255.67 212.143 Q2257.96 214.897 2257.96 220.268 Z" fill="#000000" fill-rule="nonzero" fill-opacity="1" /><polyline clip-path="url(#clip690)" style="stroke:#ff7e0d; stroke-linecap:round; stroke-linejoin:round; stroke-width:8; stroke-opacity:1; fill:none" points="1818.97,270.476 1961.16,270.476 "/>
<path clip-path="url(#clip690)" d="M1984.86 253.196 L1991.83 253.196 L2000.65 276.714 L2009.51 253.196 L2016.48 253.196 L2016.48 287.756 L2011.92 287.756 L2011.92 257.409 L2003.01 281.112 L1998.31 281.112 L1989.4 257.409 L1989.4 287.756 L1984.86 287.756 L1984.86 253.196 Z" fill="#000000" fill-rule="nonzero" fill-opacity="1" /><path clip-path="url(#clip690)" d="M2035.62 264.816 Q2032.2 264.816 2030.21 267.501 Q2028.22 270.163 2028.22 274.816 Q2028.22 279.469 2030.18 282.154 Q2032.17 284.816 2035.62 284.816 Q2039.03 284.816 2041.02 282.131 Q2043.01 279.446 2043.01 274.816 Q2043.01 270.21 2041.02 267.524 Q2039.03 264.816 2035.62 264.816 M2035.62 261.205 Q2041.18 261.205 2044.35 264.816 Q2047.52 268.427 2047.52 274.816 Q2047.52 281.182 2044.35 284.816 Q2041.18 288.427 2035.62 288.427 Q2030.05 288.427 2026.87 284.816 Q2023.73 281.182 2023.73 274.816 Q2023.73 268.427 2026.87 264.816 Q2030.05 261.205 2035.62 261.205 Z" fill="#000000" fill-rule="nonzero" fill-opacity="1" /><path clip-path="url(#clip690)" d="M2071.64 265.765 L2071.64 251.737 L2075.9 251.737 L2075.9 287.756 L2071.64 287.756 L2071.64 283.867 Q2070.3 286.182 2068.24 287.316 Q2066.2 288.427 2063.33 288.427 Q2058.63 288.427 2055.67 284.677 Q2052.73 280.927 2052.73 274.816 Q2052.73 268.705 2055.67 264.955 Q2058.63 261.205 2063.33 261.205 Q2066.2 261.205 2068.24 262.339 Q2070.3 263.45 2071.64 265.765 M2057.13 274.816 Q2057.13 279.515 2059.05 282.2 Q2060.99 284.862 2064.37 284.862 Q2067.75 284.862 2069.7 282.2 Q2071.64 279.515 2071.64 274.816 Q2071.64 270.117 2069.7 267.455 Q2067.75 264.77 2064.37 264.77 Q2060.99 264.77 2059.05 267.455 Q2057.13 270.117 2057.13 274.816 Z" fill="#000000" fill-rule="nonzero" fill-opacity="1" /><path clip-path="url(#clip690)" d="M2106.85 273.728 L2106.85 275.811 L2087.27 275.811 Q2087.55 280.209 2089.91 282.524 Q2092.29 284.816 2096.53 284.816 Q2098.98 284.816 2101.27 284.214 Q2103.59 283.612 2105.86 282.409 L2105.86 286.436 Q2103.56 287.408 2101.16 287.918 Q2098.75 288.427 2096.27 288.427 Q2090.07 288.427 2086.43 284.816 Q2082.82 281.205 2082.82 275.047 Q2082.82 268.682 2086.25 264.955 Q2089.7 261.205 2095.53 261.205 Q2100.76 261.205 2103.79 264.585 Q2106.85 267.941 2106.85 273.728 M2102.59 272.478 Q2102.54 268.983 2100.62 266.899 Q2098.73 264.816 2095.58 264.816 Q2092.01 264.816 2089.86 266.83 Q2087.73 268.844 2087.41 272.501 L2102.59 272.478 Z" fill="#000000" fill-rule="nonzero" fill-opacity="1" /><polyline clip-path="url(#clip690)" style="stroke:#2ba02b; stroke-linecap:round; stroke-linejoin:round; stroke-width:8; stroke-opacity:1; fill:none" points="1818.97,322.316 1961.16,322.316 "/>
<path clip-path="url(#clip690)" d="M1984.86 305.036 L1991.83 305.036 L2000.65 328.554 L2009.51 305.036 L2016.48 305.036 L2016.48 339.596 L2011.92 339.596 L2011.92 309.249 L2003.01 332.952 L1998.31 332.952 L1989.4 309.249 L1989.4 339.596 L1984.86 339.596 L1984.86 305.036 Z" fill="#000000" fill-rule="nonzero" fill-opacity="1" /><path clip-path="url(#clip690)" d="M2047.75 325.568 L2047.75 327.651 L2028.17 327.651 Q2028.45 332.049 2030.81 334.364 Q2033.19 336.656 2037.43 336.656 Q2039.88 336.656 2042.17 336.054 Q2044.49 335.452 2046.76 334.249 L2046.76 338.276 Q2044.47 339.248 2042.06 339.758 Q2039.65 340.267 2037.17 340.267 Q2030.97 340.267 2027.34 336.656 Q2023.73 333.045 2023.73 326.887 Q2023.73 320.522 2027.15 316.795 Q2030.6 313.045 2036.43 313.045 Q2041.67 313.045 2044.7 316.425 Q2047.75 319.781 2047.75 325.568 M2043.49 324.318 Q2043.45 320.823 2041.53 318.739 Q2039.63 316.656 2036.48 316.656 Q2032.92 316.656 2030.76 318.67 Q2028.63 320.684 2028.31 324.341 L2043.49 324.318 Z" fill="#000000" fill-rule="nonzero" fill-opacity="1" /><path clip-path="url(#clip690)" d="M2071.8 317.605 L2071.8 303.577 L2076.06 303.577 L2076.06 339.596 L2071.8 339.596 L2071.8 335.707 Q2070.46 338.022 2068.4 339.156 Q2066.36 340.267 2063.49 340.267 Q2058.8 340.267 2055.83 336.517 Q2052.89 332.767 2052.89 326.656 Q2052.89 320.545 2055.83 316.795 Q2058.8 313.045 2063.49 313.045 Q2066.36 313.045 2068.4 314.179 Q2070.46 315.29 2071.8 317.605 M2057.29 326.656 Q2057.29 331.355 2059.21 334.04 Q2061.16 336.702 2064.54 336.702 Q2067.92 336.702 2069.86 334.04 Q2071.8 331.355 2071.8 326.656 Q2071.8 321.957 2069.86 319.295 Q2067.92 316.61 2064.54 316.61 Q2061.16 316.61 2059.21 319.295 Q2057.29 321.957 2057.29 326.656 Z" fill="#000000" fill-rule="nonzero" fill-opacity="1" /><path clip-path="url(#clip690)" d="M2084.84 313.67 L2089.1 313.67 L2089.1 339.596 L2084.84 339.596 L2084.84 313.67 M2084.84 303.577 L2089.1 303.577 L2089.1 308.971 L2084.84 308.971 L2084.84 303.577 Z" fill="#000000" fill-rule="nonzero" fill-opacity="1" /><path clip-path="url(#clip690)" d="M2109.79 326.563 Q2104.63 326.563 2102.64 327.744 Q2100.65 328.924 2100.65 331.772 Q2100.65 334.04 2102.13 335.383 Q2103.63 336.702 2106.2 336.702 Q2109.74 336.702 2111.87 334.202 Q2114.03 331.679 2114.03 327.512 L2114.03 326.563 L2109.79 326.563 M2118.29 324.804 L2118.29 339.596 L2114.03 339.596 L2114.03 335.661 Q2112.57 338.022 2110.39 339.156 Q2108.22 340.267 2105.07 340.267 Q2101.09 340.267 2098.73 338.045 Q2096.39 335.799 2096.39 332.049 Q2096.39 327.674 2099.3 325.452 Q2102.24 323.23 2108.05 323.23 L2114.03 323.23 L2114.03 322.813 Q2114.03 319.874 2112.08 318.276 Q2110.16 316.656 2106.67 316.656 Q2104.44 316.656 2102.34 317.188 Q2100.23 317.721 2098.29 318.786 L2098.29 314.85 Q2100.62 313.948 2102.82 313.508 Q2105.02 313.045 2107.11 313.045 Q2112.73 313.045 2115.51 315.962 Q2118.29 318.878 2118.29 324.804 Z" fill="#000000" fill-rule="nonzero" fill-opacity="1" /><path clip-path="url(#clip690)" d="M2148.61 323.948 L2148.61 339.596 L2144.35 339.596 L2144.35 324.087 Q2144.35 320.406 2142.92 318.577 Q2141.48 316.749 2138.61 316.749 Q2135.16 316.749 2133.17 318.948 Q2131.18 321.147 2131.18 324.943 L2131.18 339.596 L2126.9 339.596 L2126.9 313.67 L2131.18 313.67 L2131.18 317.698 Q2132.71 315.36 2134.77 314.202 Q2136.85 313.045 2139.56 313.045 Q2144.03 313.045 2146.32 315.823 Q2148.61 318.577 2148.61 323.948 Z" fill="#000000" fill-rule="nonzero" fill-opacity="1" /></svg>
