<?xml version="1.0" encoding="utf-8"?>
<svg xmlns="http://www.w3.org/2000/svg" xmlns:xlink="http://www.w3.org/1999/xlink" width="600" height="400" viewBox="0 0 2400 1600">
<defs>
  <clipPath id="clip900">
    <rect x="0" y="0" width="2400" height="1600"/>
  </clipPath>
</defs>
<path clip-path="url(#clip900)" d="M0 1600 L2400 1600 L2400 8.88178e-14 L0 8.88178e-14  Z" fill="#ffffff" fill-rule="evenodd" fill-opacity="1"/>
<defs>
  <clipPath id="clip901">
    <rect x="480" y="0" width="1681" height="1600"/>
  </clipPath>
</defs>
<path clip-path="url(#clip900)" d="M250.028 1423.18 L2352.76 1423.18 L2352.76 47.2441 L250.028 47.2441  Z" fill="#ffffff" fill-rule="evenodd" fill-opacity="1"/>
<defs>
  <clipPath id="clip902">
    <rect x="250" y="47" width="2104" height="1377"/>
  </clipPath>
</defs>
<polyline clip-path="url(#clip902)" style="stroke:#000000; stroke-linecap:round; stroke-linejoin:round; stroke-width:2; stroke-opacity:0.1; fill:none" points="426.228,1423.18 426.228,47.2441 "/>
<polyline clip-path="url(#clip902)" style="stroke:#000000; stroke-linecap:round; stroke-linejoin:round; stroke-width:2; stroke-opacity:0.1; fill:none" points="659.605,1423.18 659.605,47.2441 "/>
<polyline clip-path="url(#clip902)" style="stroke:#000000; stroke-linecap:round; stroke-linejoin:round; stroke-width:2; stroke-opacity:0.1; fill:none" points="892.982,1423.18 892.982,47.2441 "/>
<polyline clip-path="url(#clip902)" style="stroke:#000000; stroke-linecap:round; stroke-linejoin:round; stroke-width:2; stroke-opacity:0.1; fill:none" points="1126.36,1423.18 1126.36,47.2441 "/>
<polyline clip-path="url(#clip902)" style="stroke:#000000; stroke-linecap:round; stroke-linejoin:round; stroke-width:2; stroke-opacity:0.1; fill:none" points="1359.74,1423.18 1359.74,47.2441 "/>
<polyline clip-path="url(#clip902)" style="stroke:#000000; stroke-linecap:round; stroke-linejoin:round; stroke-width:2; stroke-opacity:0.1; fill:none" points="1593.11,1423.18 1593.11,47.2441 "/>
<polyline clip-path="url(#clip902)" style="stroke:#000000; stroke-linecap:round; stroke-linejoin:round; stroke-width:2; stroke-opacity:0.1; fill:none" points="1826.49,1423.18 1826.49,47.2441 "/>
<polyline clip-path="url(#clip902)" style="stroke:#000000; stroke-linecap:round; stroke-linejoin:round; stroke-width:2; stroke-opacity:0.1; fill:none" points="2059.87,1423.18 2059.87,47.2441 "/>
<polyline clip-path="url(#clip902)" style="stroke:#000000; stroke-linecap:round; stroke-linejoin:round; stroke-width:2; stroke-opacity:0.1; fill:none" points="2293.24,1423.18 2293.24,47.2441 "/>
<polyline clip-path="url(#clip902)" style="stroke:#000000; stroke-linecap:round; stroke-linejoin:round; stroke-width:2; stroke-opacity:0.1; fill:none" points="250.028,1411.62 2352.76,1411.62 "/>
<polyline clip-path="url(#clip902)" style="stroke:#000000; stroke-linecap:round; stroke-linejoin:round; stroke-width:2; stroke-opacity:0.1; fill:none" points="250.028,1136.33 2352.76,1136.33 "/>
<polyline clip-path="url(#clip902)" style="stroke:#000000; stroke-linecap:round; stroke-linejoin:round; stroke-width:2; stroke-opacity:0.1; fill:none" points="250.028,861.032 2352.76,861.032 "/>
<polyline clip-path="url(#clip902)" style="stroke:#000000; stroke-linecap:round; stroke-linejoin:round; stroke-width:2; stroke-opacity:0.1; fill:none" points="250.028,585.736 2352.76,585.736 "/>
<polyline clip-path="url(#clip902)" style="stroke:#000000; stroke-linecap:round; stroke-linejoin:round; stroke-width:2; stroke-opacity:0.1; fill:none" points="250.028,310.44 2352.76,310.44 "/>
<polyline clip-path="url(#clip900)" style="stroke:#000000; stroke-linecap:round; stroke-linejoin:round; stroke-width:4; stroke-opacity:1; fill:none" points="250.028,1423.18 2352.76,1423.18 "/>
<polyline clip-path="url(#clip900)" style="stroke:#000000; stroke-linecap:round; stroke-linejoin:round; stroke-width:4; stroke-opacity:1; fill:none" points="426.228,1423.18 426.228,1404.28 "/>
<polyline clip-path="url(#clip900)" style="stroke:#000000; stroke-linecap:round; stroke-linejoin:round; stroke-width:4; stroke-opacity:1; fill:none" points="659.605,1423.18 659.605,1404.28 "/>
<polyline clip-path="url(#clip900)" style="stroke:#000000; stroke-linecap:round; stroke-linejoin:round; stroke-width:4; stroke-opacity:1; fill:none" points="892.982,1423.18 892.982,1404.28 "/>
<polyline clip-path="url(#clip900)" style="stroke:#000000; stroke-linecap:round; stroke-linejoin:round; stroke-width:4; stroke-opacity:1; fill:none" points="1126.36,1423.18 1126.36,1404.28 "/>
<polyline clip-path="url(#clip900)" style="stroke:#000000; stroke-linecap:round; stroke-linejoin:round; stroke-width:4; stroke-opacity:1; fill:none" points="1359.74,1423.18 1359.74,1404.28 "/>
<polyline clip-path="url(#clip900)" style="stroke:#000000; stroke-linecap:round; stroke-linejoin:round; stroke-width:4; stroke-opacity:1; fill:none" points="1593.11,1423.18 1593.11,1404.28 "/>
<polyline clip-path="url(#clip900)" style="stroke:#000000; stroke-linecap:round; stroke-linejoin:round; stroke-width:4; stroke-opacity:1; fill:none" points="1826.49,1423.18 1826.49,1404.28 "/>
<polyline clip-path="url(#clip900)" style="stroke:#000000; stroke-linecap:round; stroke-linejoin:round; stroke-width:4; stroke-opacity:1; fill:none" points="2059.87,1423.18 2059.87,1404.28 "/>
<polyline clip-path="url(#clip900)" style="stroke:#000000; stroke-linecap:round; stroke-linejoin:round; stroke-width:4; stroke-opacity:1; fill:none" points="2293.24,1423.18 2293.24,1404.28 "/>
<path clip-path="url(#clip900)" d="M429.237 1455.09 L417.432 1473.54 L429.237 1473.54 L429.237 1455.09 M428.01 1451.02 L433.89 1451.02 L433.89 1473.54 L438.82 1473.54 L438.82 1477.43 L433.89 1477.43 L433.89 1485.58 L429.237 1485.58 L429.237 1477.43 L413.635 1477.43 L413.635 1472.92 L428.01 1451.02 Z" fill="#000000" fill-rule="nonzero" fill-opacity="1" /><path clip-path="url(#clip900)" d="M660.01 1466.44 Q656.862 1466.44 655.01 1468.59 Q653.181 1470.74 653.181 1474.49 Q653.181 1478.22 655.01 1480.39 Q656.862 1482.55 660.01 1482.55 Q663.158 1482.55 664.987 1480.39 Q666.839 1478.22 666.839 1474.49 Q666.839 1470.74 664.987 1468.59 Q663.158 1466.44 660.01 1466.44 M669.292 1451.78 L669.292 1456.04 Q667.533 1455.21 665.728 1454.77 Q663.945 1454.33 662.186 1454.33 Q657.556 1454.33 655.103 1457.45 Q652.672 1460.58 652.325 1466.9 Q653.691 1464.89 655.751 1463.82 Q657.811 1462.73 660.288 1462.73 Q665.496 1462.73 668.505 1465.9 Q671.538 1469.05 671.538 1474.49 Q671.538 1479.82 668.39 1483.03 Q665.242 1486.25 660.01 1486.25 Q654.015 1486.25 650.843 1481.67 Q647.672 1477.06 647.672 1468.33 Q647.672 1460.14 651.561 1455.28 Q655.45 1450.39 662.001 1450.39 Q663.76 1450.39 665.542 1450.74 Q667.348 1451.09 669.292 1451.78 Z" fill="#000000" fill-rule="nonzero" fill-opacity="1" /><path clip-path="url(#clip900)" d="M892.982 1469.17 Q889.649 1469.17 887.727 1470.95 Q885.829 1472.73 885.829 1475.86 Q885.829 1478.98 887.727 1480.77 Q889.649 1482.55 892.982 1482.55 Q896.315 1482.55 898.237 1480.77 Q900.158 1478.96 900.158 1475.86 Q900.158 1472.73 898.237 1470.95 Q896.339 1469.17 892.982 1469.17 M888.306 1467.18 Q885.297 1466.44 883.607 1464.38 Q881.94 1462.32 881.94 1459.35 Q881.94 1455.21 884.88 1452.8 Q887.843 1450.39 892.982 1450.39 Q898.144 1450.39 901.084 1452.8 Q904.024 1455.21 904.024 1459.35 Q904.024 1462.32 902.334 1464.38 Q900.667 1466.44 897.681 1467.18 Q901.061 1467.96 902.936 1470.26 Q904.834 1472.55 904.834 1475.86 Q904.834 1480.88 901.755 1483.57 Q898.7 1486.25 892.982 1486.25 Q887.265 1486.25 884.186 1483.57 Q881.13 1480.88 881.13 1475.86 Q881.13 1472.55 883.028 1470.26 Q884.927 1467.96 888.306 1467.18 M886.593 1459.79 Q886.593 1462.48 888.26 1463.98 Q889.95 1465.49 892.982 1465.49 Q895.991 1465.49 897.681 1463.98 Q899.394 1462.48 899.394 1459.79 Q899.394 1457.11 897.681 1455.6 Q895.991 1454.1 892.982 1454.1 Q889.95 1454.1 888.26 1455.6 Q886.593 1457.11 886.593 1459.79 Z" fill="#000000" fill-rule="nonzero" fill-opacity="1" /><path clip-path="url(#clip900)" d="M1101.05 1481.64 L1108.69 1481.64 L1108.69 1455.28 L1100.38 1456.95 L1100.38 1452.69 L1108.64 1451.02 L1113.32 1451.02 L1113.32 1481.64 L1120.95 1481.64 L1120.95 1485.58 L1101.05 1485.58 L1101.05 1481.64 Z" fill="#000000" fill-rule="nonzero" fill-opacity="1" /><path clip-path="url(#clip900)" d="M1140.4 1454.1 Q1136.79 1454.1 1134.96 1457.66 Q1133.15 1461.2 1133.15 1468.33 Q1133.15 1475.44 1134.96 1479.01 Q1136.79 1482.55 1140.4 1482.55 Q1144.03 1482.55 1145.84 1479.01 Q1147.67 1475.44 1147.67 1468.33 Q1147.67 1461.2 1145.84 1457.66 Q1144.03 1454.1 1140.4 1454.1 M1140.4 1450.39 Q1146.21 1450.39 1149.26 1455 Q1152.34 1459.58 1152.34 1468.33 Q1152.34 1477.06 1149.26 1481.67 Q1146.21 1486.25 1140.4 1486.25 Q1134.59 1486.25 1131.51 1481.67 Q1128.45 1477.06 1128.45 1468.33 Q1128.45 1459.58 1131.51 1455 Q1134.59 1450.39 1140.4 1450.39 Z" fill="#000000" fill-rule="nonzero" fill-opacity="1" /><path clip-path="url(#clip900)" d="M1335.22 1481.64 L1342.86 1481.64 L1342.86 1455.28 L1334.55 1456.95 L1334.55 1452.69 L1342.82 1451.02 L1347.49 1451.02 L1347.49 1481.64 L1355.13 1481.64 L1355.13 1485.58 L1335.22 1485.58 L1335.22 1481.64 Z" fill="#000000" fill-rule="nonzero" fill-opacity="1" /><path clip-path="url(#clip900)" d="M1368.6 1481.64 L1384.92 1481.64 L1384.92 1485.58 L1362.98 1485.58 L1362.98 1481.64 Q1365.64 1478.89 1370.22 1474.26 Q1374.83 1469.61 1376.01 1468.27 Q1378.25 1465.74 1379.13 1464.01 Q1380.04 1462.25 1380.04 1460.56 Q1380.04 1457.8 1378.09 1456.07 Q1376.17 1454.33 1373.07 1454.33 Q1370.87 1454.33 1368.42 1455.09 Q1365.99 1455.86 1363.21 1457.41 L1363.21 1452.69 Q1366.03 1451.55 1368.49 1450.97 Q1370.94 1450.39 1372.98 1450.39 Q1378.35 1450.39 1381.54 1453.08 Q1384.74 1455.77 1384.74 1460.26 Q1384.74 1462.39 1383.93 1464.31 Q1383.14 1466.2 1381.03 1468.8 Q1380.45 1469.47 1377.35 1472.69 Q1374.25 1475.88 1368.6 1481.64 Z" fill="#000000" fill-rule="nonzero" fill-opacity="1" /><path clip-path="url(#clip900)" d="M1567.56 1481.64 L1575.2 1481.64 L1575.2 1455.28 L1566.89 1456.95 L1566.89 1452.69 L1575.15 1451.02 L1579.83 1451.02 L1579.83 1481.64 L1587.47 1481.64 L1587.47 1485.58 L1567.56 1485.58 L1567.56 1481.64 Z" fill="#000000" fill-rule="nonzero" fill-opacity="1" /><path clip-path="url(#clip900)" d="M1609.76 1455.09 L1597.95 1473.54 L1609.76 1473.54 L1609.76 1455.09 M1608.53 1451.02 L1614.41 1451.02 L1614.41 1473.54 L1619.34 1473.54 L1619.34 1477.43 L1614.41 1477.43 L1614.41 1485.58 L1609.76 1485.58 L1609.76 1477.43 L1594.16 1477.43 L1594.16 1472.92 L1608.53 1451.02 Z" fill="#000000" fill-rule="nonzero" fill-opacity="1" /><path clip-path="url(#clip900)" d="M1801.1 1481.64 L1808.74 1481.64 L1808.74 1455.28 L1800.43 1456.95 L1800.43 1452.69 L1808.69 1451.02 L1813.37 1451.02 L1813.37 1481.64 L1821 1481.64 L1821 1485.58 L1801.1 1485.58 L1801.1 1481.64 Z" fill="#000000" fill-rule="nonzero" fill-opacity="1" /><path clip-path="url(#clip900)" d="M1841.03 1466.44 Q1837.88 1466.44 1836.03 1468.59 Q1834.2 1470.74 1834.2 1474.49 Q1834.2 1478.22 1836.03 1480.39 Q1837.88 1482.55 1841.03 1482.55 Q1844.18 1482.55 1846 1480.39 Q1847.86 1478.22 1847.86 1474.49 Q1847.86 1470.74 1846 1468.59 Q1844.18 1466.44 1841.03 1466.44 M1850.31 1451.78 L1850.31 1456.04 Q1848.55 1455.21 1846.75 1454.77 Q1844.96 1454.33 1843.2 1454.33 Q1838.57 1454.33 1836.12 1457.45 Q1833.69 1460.58 1833.34 1466.9 Q1834.71 1464.89 1836.77 1463.82 Q1838.83 1462.73 1841.31 1462.73 Q1846.51 1462.73 1849.52 1465.9 Q1852.56 1469.05 1852.56 1474.49 Q1852.56 1479.82 1849.41 1483.03 Q1846.26 1486.25 1841.03 1486.25 Q1835.03 1486.25 1831.86 1481.67 Q1828.69 1477.06 1828.69 1468.33 Q1828.69 1460.14 1832.58 1455.28 Q1836.47 1450.39 1843.02 1450.39 Q1844.78 1450.39 1846.56 1450.74 Q1848.37 1451.09 1850.31 1451.78 Z" fill="#000000" fill-rule="nonzero" fill-opacity="1" /><path clip-path="url(#clip900)" d="M2034.6 1481.64 L2042.24 1481.64 L2042.24 1455.28 L2033.93 1456.95 L2033.93 1452.69 L2042.19 1451.02 L2046.87 1451.02 L2046.87 1481.64 L2054.51 1481.64 L2054.51 1485.58 L2034.6 1485.58 L2034.6 1481.64 Z" fill="#000000" fill-rule="nonzero" fill-opacity="1" /><path clip-path="url(#clip900)" d="M2073.95 1469.17 Q2070.62 1469.17 2068.7 1470.95 Q2066.8 1472.73 2066.8 1475.86 Q2066.8 1478.98 2068.7 1480.77 Q2070.62 1482.55 2073.95 1482.55 Q2077.29 1482.55 2079.21 1480.77 Q2081.13 1478.96 2081.13 1475.86 Q2081.13 1472.73 2079.21 1470.95 Q2077.31 1469.17 2073.95 1469.17 M2069.28 1467.18 Q2066.27 1466.44 2064.58 1464.38 Q2062.91 1462.32 2062.91 1459.35 Q2062.91 1455.21 2065.85 1452.8 Q2068.81 1450.39 2073.95 1450.39 Q2079.12 1450.39 2082.06 1452.8 Q2084.99 1455.21 2084.99 1459.35 Q2084.99 1462.32 2083.31 1464.38 Q2081.64 1466.44 2078.65 1467.18 Q2082.03 1467.96 2083.91 1470.26 Q2085.8 1472.55 2085.8 1475.86 Q2085.8 1480.88 2082.73 1483.57 Q2079.67 1486.25 2073.95 1486.25 Q2068.24 1486.25 2065.16 1483.57 Q2062.1 1480.88 2062.1 1475.86 Q2062.1 1472.55 2064 1470.26 Q2065.9 1467.96 2069.28 1467.18 M2067.56 1459.79 Q2067.56 1462.48 2069.23 1463.98 Q2070.92 1465.49 2073.95 1465.49 Q2076.96 1465.49 2078.65 1463.98 Q2080.37 1462.48 2080.37 1459.79 Q2080.37 1457.11 2078.65 1455.6 Q2076.96 1454.1 2073.95 1454.1 Q2070.92 1454.1 2069.23 1455.6 Q2067.56 1457.11 2067.56 1459.79 Z" fill="#000000" fill-rule="nonzero" fill-opacity="1" /><path clip-path="url(#clip900)" d="M2272.02 1481.64 L2288.34 1481.64 L2288.34 1485.58 L2266.39 1485.58 L2266.39 1481.64 Q2269.06 1478.89 2273.64 1474.26 Q2278.24 1469.61 2279.43 1468.27 Q2281.67 1465.74 2282.55 1464.01 Q2283.45 1462.25 2283.45 1460.56 Q2283.45 1457.8 2281.51 1456.07 Q2279.59 1454.33 2276.49 1454.33 Q2274.29 1454.33 2271.83 1455.09 Q2269.4 1455.86 2266.62 1457.41 L2266.62 1452.69 Q2269.45 1451.55 2271.9 1450.97 Q2274.36 1450.39 2276.39 1450.39 Q2281.76 1450.39 2284.96 1453.08 Q2288.15 1455.77 2288.15 1460.26 Q2288.15 1462.39 2287.34 1464.31 Q2286.55 1466.2 2284.45 1468.8 Q2283.87 1469.47 2280.77 1472.69 Q2277.67 1475.88 2272.02 1481.64 Z" fill="#000000" fill-rule="nonzero" fill-opacity="1" /><path clip-path="url(#clip900)" d="M2308.15 1454.1 Q2304.54 1454.1 2302.71 1457.66 Q2300.91 1461.2 2300.91 1468.33 Q2300.91 1475.44 2302.71 1479.01 Q2304.54 1482.55 2308.15 1482.55 Q2311.79 1482.55 2313.59 1479.01 Q2315.42 1475.44 2315.42 1468.33 Q2315.42 1461.2 2313.59 1457.66 Q2311.79 1454.1 2308.15 1454.1 M2308.15 1450.39 Q2313.96 1450.39 2317.02 1455 Q2320.1 1459.58 2320.1 1468.33 Q2320.1 1477.06 2317.02 1481.67 Q2313.96 1486.25 2308.15 1486.25 Q2302.34 1486.25 2299.26 1481.67 Q2296.21 1477.06 2296.21 1468.33 Q2296.21 1459.58 2299.26 1455 Q2302.34 1450.39 2308.15 1450.39 Z" fill="#000000" fill-rule="nonzero" fill-opacity="1" /><path clip-path="url(#clip900)" d="M1311.47 1537.81 L1311.47 1518.52 L1317.32 1518.52 L1317.32 1568.04 L1311.47 1568.04 L1311.47 1562.7 Q1309.62 1565.88 1306.79 1567.44 Q1303.99 1568.97 1300.04 1568.97 Q1293.58 1568.97 1289.5 1563.81 Q1285.46 1558.65 1285.46 1550.25 Q1285.46 1541.85 1289.5 1536.69 Q1293.58 1531.54 1300.04 1531.54 Q1303.99 1531.54 1306.79 1533.1 Q1309.62 1534.62 1311.47 1537.81 M1291.51 1550.25 Q1291.51 1556.71 1294.15 1560.4 Q1296.82 1564.07 1301.47 1564.07 Q1306.12 1564.07 1308.79 1560.4 Q1311.47 1556.71 1311.47 1550.25 Q1311.47 1543.79 1308.79 1540.13 Q1306.12 1536.44 1301.47 1536.44 Q1296.82 1536.44 1294.15 1540.13 Q1291.51 1543.79 1291.51 1550.25 Z" fill="#000000" fill-rule="nonzero" fill-opacity="1" /><polyline clip-path="url(#clip900)" style="stroke:#000000; stroke-linecap:round; stroke-linejoin:round; stroke-width:4; stroke-opacity:1; fill:none" points="250.028,1423.18 250.028,47.2441 "/>
<polyline clip-path="url(#clip900)" style="stroke:#000000; stroke-linecap:round; stroke-linejoin:round; stroke-width:4; stroke-opacity:1; fill:none" points="250.028,1411.62 268.926,1411.62 "/>
<polyline clip-path="url(#clip900)" style="stroke:#000000; stroke-linecap:round; stroke-linejoin:round; stroke-width:4; stroke-opacity:1; fill:none" points="250.028,1136.33 268.926,1136.33 "/>
<polyline clip-path="url(#clip900)" style="stroke:#000000; stroke-linecap:round; stroke-linejoin:round; stroke-width:4; stroke-opacity:1; fill:none" points="250.028,861.032 268.926,861.032 "/>
<polyline clip-path="url(#clip900)" style="stroke:#000000; stroke-linecap:round; stroke-linejoin:round; stroke-width:4; stroke-opacity:1; fill:none" points="250.028,585.736 268.926,585.736 "/>
<polyline clip-path="url(#clip900)" style="stroke:#000000; stroke-linecap:round; stroke-linejoin:round; stroke-width:4; stroke-opacity:1; fill:none" points="250.028,310.44 268.926,310.44 "/>
<path clip-path="url(#clip900)" d="M126.691 1397.42 Q123.08 1397.42 121.251 1400.99 Q119.445 1404.53 119.445 1411.66 Q119.445 1418.76 121.251 1422.33 Q123.08 1425.87 126.691 1425.87 Q130.325 1425.87 132.13 1422.33 Q133.959 1418.76 133.959 1411.66 Q133.959 1404.53 132.13 1400.99 Q130.325 1397.42 126.691 1397.42 M126.691 1393.72 Q132.501 1393.72 135.556 1398.33 Q138.635 1402.91 138.635 1411.66 Q138.635 1420.39 135.556 1424.99 Q132.501 1429.58 126.691 1429.58 Q120.88 1429.58 117.802 1424.99 Q114.746 1420.39 114.746 1411.66 Q114.746 1402.91 117.802 1398.33 Q120.88 1393.72 126.691 1393.72 Z" fill="#000000" fill-rule="nonzero" fill-opacity="1" /><path clip-path="url(#clip900)" d="M146.853 1423.02 L151.737 1423.02 L151.737 1428.9 L146.853 1428.9 L146.853 1423.02 Z" fill="#000000" fill-rule="nonzero" fill-opacity="1" /><path clip-path="url(#clip900)" d="M171.922 1397.42 Q168.311 1397.42 166.482 1400.99 Q164.677 1404.53 164.677 1411.66 Q164.677 1418.76 166.482 1422.33 Q168.311 1425.87 171.922 1425.87 Q175.556 1425.87 177.362 1422.33 Q179.19 1418.76 179.19 1411.66 Q179.19 1404.53 177.362 1400.99 Q175.556 1397.42 171.922 1397.42 M171.922 1393.72 Q177.732 1393.72 180.788 1398.33 Q183.866 1402.91 183.866 1411.66 Q183.866 1420.39 180.788 1424.99 Q177.732 1429.58 171.922 1429.58 Q166.112 1429.58 163.033 1424.99 Q159.978 1420.39 159.978 1411.66 Q159.978 1402.91 163.033 1398.33 Q166.112 1393.72 171.922 1393.72 Z" fill="#000000" fill-rule="nonzero" fill-opacity="1" /><path clip-path="url(#clip900)" d="M202.084 1397.42 Q198.473 1397.42 196.644 1400.99 Q194.838 1404.53 194.838 1411.66 Q194.838 1418.76 196.644 1422.33 Q198.473 1425.87 202.084 1425.87 Q205.718 1425.87 207.524 1422.33 Q209.352 1418.76 209.352 1411.66 Q209.352 1404.53 207.524 1400.99 Q205.718 1397.42 202.084 1397.42 M202.084 1393.72 Q207.894 1393.72 210.949 1398.33 Q214.028 1402.91 214.028 1411.66 Q214.028 1420.39 210.949 1424.99 Q207.894 1429.58 202.084 1429.58 Q196.274 1429.58 193.195 1424.99 Q190.139 1420.39 190.139 1411.66 Q190.139 1402.91 193.195 1398.33 Q196.274 1393.72 202.084 1393.72 Z" fill="#000000" fill-rule="nonzero" fill-opacity="1" /><path clip-path="url(#clip900)" d="M128.288 1122.13 Q124.677 1122.13 122.848 1125.69 Q121.043 1129.23 121.043 1136.36 Q121.043 1143.47 122.848 1147.03 Q124.677 1150.58 128.288 1150.58 Q131.922 1150.58 133.728 1147.03 Q135.556 1143.47 135.556 1136.36 Q135.556 1129.23 133.728 1125.69 Q131.922 1122.13 128.288 1122.13 M128.288 1118.42 Q134.098 1118.42 137.154 1123.03 Q140.232 1127.61 140.232 1136.36 Q140.232 1145.09 137.154 1149.7 Q134.098 1154.28 128.288 1154.28 Q122.478 1154.28 119.399 1149.7 Q116.343 1145.09 116.343 1136.36 Q116.343 1127.61 119.399 1123.03 Q122.478 1118.42 128.288 1118.42 Z" fill="#000000" fill-rule="nonzero" fill-opacity="1" /><path clip-path="url(#clip900)" d="M148.45 1147.73 L153.334 1147.73 L153.334 1153.61 L148.45 1153.61 L148.45 1147.73 Z" fill="#000000" fill-rule="nonzero" fill-opacity="1" /><path clip-path="url(#clip900)" d="M173.519 1122.13 Q169.908 1122.13 168.079 1125.69 Q166.274 1129.23 166.274 1136.36 Q166.274 1143.47 168.079 1147.03 Q169.908 1150.58 173.519 1150.58 Q177.153 1150.58 178.959 1147.03 Q180.788 1143.47 180.788 1136.36 Q180.788 1129.23 178.959 1125.69 Q177.153 1122.13 173.519 1122.13 M173.519 1118.42 Q179.329 1118.42 182.385 1123.03 Q185.463 1127.61 185.463 1136.36 Q185.463 1145.09 182.385 1149.7 Q179.329 1154.28 173.519 1154.28 Q167.709 1154.28 164.63 1149.7 Q161.575 1145.09 161.575 1136.36 Q161.575 1127.61 164.63 1123.03 Q167.709 1118.42 173.519 1118.42 Z" fill="#000000" fill-rule="nonzero" fill-opacity="1" /><path clip-path="url(#clip900)" d="M197.709 1149.67 L214.028 1149.67 L214.028 1153.61 L192.084 1153.61 L192.084 1149.67 Q194.746 1146.92 199.329 1142.29 Q203.936 1137.64 205.116 1136.29 Q207.362 1133.77 208.241 1132.03 Q209.144 1130.27 209.144 1128.58 Q209.144 1125.83 207.199 1124.09 Q205.278 1122.36 202.176 1122.36 Q199.977 1122.36 197.524 1123.12 Q195.093 1123.89 192.315 1125.44 L192.315 1120.71 Q195.139 1119.58 197.593 1119 Q200.047 1118.42 202.084 1118.42 Q207.454 1118.42 210.649 1121.11 Q213.843 1123.79 213.843 1128.28 Q213.843 1130.41 213.033 1132.33 Q212.246 1134.23 210.139 1136.83 Q209.561 1137.5 206.459 1140.71 Q203.357 1143.91 197.709 1149.67 Z" fill="#000000" fill-rule="nonzero" fill-opacity="1" /><path clip-path="url(#clip900)" d="M126.205 846.83 Q122.593 846.83 120.765 850.395 Q118.959 853.937 118.959 861.066 Q118.959 868.173 120.765 871.738 Q122.593 875.279 126.205 875.279 Q129.839 875.279 131.644 871.738 Q133.473 868.173 133.473 861.066 Q133.473 853.937 131.644 850.395 Q129.839 846.83 126.205 846.83 M126.205 843.127 Q132.015 843.127 135.07 847.733 Q138.149 852.316 138.149 861.066 Q138.149 869.793 135.07 874.4 Q132.015 878.983 126.205 878.983 Q120.394 878.983 117.316 874.4 Q114.26 869.793 114.26 861.066 Q114.26 852.316 117.316 847.733 Q120.394 843.127 126.205 843.127 Z" fill="#000000" fill-rule="nonzero" fill-opacity="1" /><path clip-path="url(#clip900)" d="M146.366 872.432 L151.251 872.432 L151.251 878.312 L146.366 878.312 L146.366 872.432 Z" fill="#000000" fill-rule="nonzero" fill-opacity="1" /><path clip-path="url(#clip900)" d="M171.436 846.83 Q167.825 846.83 165.996 850.395 Q164.19 853.937 164.19 861.066 Q164.19 868.173 165.996 871.738 Q167.825 875.279 171.436 875.279 Q175.07 875.279 176.876 871.738 Q178.704 868.173 178.704 861.066 Q178.704 853.937 176.876 850.395 Q175.07 846.83 171.436 846.83 M171.436 843.127 Q177.246 843.127 180.301 847.733 Q183.38 852.316 183.38 861.066 Q183.38 869.793 180.301 874.4 Q177.246 878.983 171.436 878.983 Q165.626 878.983 162.547 874.4 Q159.491 869.793 159.491 861.066 Q159.491 852.316 162.547 847.733 Q165.626 843.127 171.436 843.127 Z" fill="#000000" fill-rule="nonzero" fill-opacity="1" /><path clip-path="url(#clip900)" d="M204.445 847.826 L192.639 866.275 L204.445 866.275 L204.445 847.826 M203.218 843.752 L209.098 843.752 L209.098 866.275 L214.028 866.275 L214.028 870.164 L209.098 870.164 L209.098 878.312 L204.445 878.312 L204.445 870.164 L188.843 870.164 L188.843 865.65 L203.218 843.752 Z" fill="#000000" fill-rule="nonzero" fill-opacity="1" /><path clip-path="url(#clip900)" d="M126.529 571.534 Q122.918 571.534 121.089 575.099 Q119.283 578.641 119.283 585.77 Q119.283 592.877 121.089 596.442 Q122.918 599.983 126.529 599.983 Q130.163 599.983 131.968 596.442 Q133.797 592.877 133.797 585.77 Q133.797 578.641 131.968 575.099 Q130.163 571.534 126.529 571.534 M126.529 567.831 Q132.339 567.831 135.394 572.437 Q138.473 577.02 138.473 585.77 Q138.473 594.497 135.394 599.104 Q132.339 603.687 126.529 603.687 Q120.718 603.687 117.64 599.104 Q114.584 594.497 114.584 585.77 Q114.584 577.02 117.64 572.437 Q120.718 567.831 126.529 567.831 Z" fill="#000000" fill-rule="nonzero" fill-opacity="1" /><path clip-path="url(#clip900)" d="M146.691 597.136 L151.575 597.136 L151.575 603.016 L146.691 603.016 L146.691 597.136 Z" fill="#000000" fill-rule="nonzero" fill-opacity="1" /><path clip-path="url(#clip900)" d="M171.76 571.534 Q168.149 571.534 166.32 575.099 Q164.515 578.641 164.515 585.77 Q164.515 592.877 166.32 596.442 Q168.149 599.983 171.76 599.983 Q175.394 599.983 177.2 596.442 Q179.028 592.877 179.028 585.77 Q179.028 578.641 177.2 575.099 Q175.394 571.534 171.76 571.534 M171.76 567.831 Q177.57 567.831 180.626 572.437 Q183.704 577.02 183.704 585.77 Q183.704 594.497 180.626 599.104 Q177.57 603.687 171.76 603.687 Q165.95 603.687 162.871 599.104 Q159.815 594.497 159.815 585.77 Q159.815 577.02 162.871 572.437 Q165.95 567.831 171.76 567.831 Z" fill="#000000" fill-rule="nonzero" fill-opacity="1" /><path clip-path="url(#clip900)" d="M202.5 583.872 Q199.352 583.872 197.5 586.025 Q195.672 588.178 195.672 591.928 Q195.672 595.655 197.5 597.83 Q199.352 599.983 202.5 599.983 Q205.649 599.983 207.477 597.83 Q209.329 595.655 209.329 591.928 Q209.329 588.178 207.477 586.025 Q205.649 583.872 202.5 583.872 M211.783 569.22 L211.783 573.479 Q210.024 572.645 208.218 572.206 Q206.436 571.766 204.676 571.766 Q200.047 571.766 197.593 574.891 Q195.163 578.016 194.815 584.335 Q196.181 582.321 198.241 581.256 Q200.301 580.169 202.778 580.169 Q207.987 580.169 210.996 583.34 Q214.028 586.488 214.028 591.928 Q214.028 597.252 210.88 600.469 Q207.732 603.687 202.5 603.687 Q196.505 603.687 193.334 599.104 Q190.163 594.497 190.163 585.77 Q190.163 577.576 194.051 572.715 Q197.94 567.831 204.491 567.831 Q206.25 567.831 208.033 568.178 Q209.838 568.525 211.783 569.22 Z" fill="#000000" fill-rule="nonzero" fill-opacity="1" /><path clip-path="url(#clip900)" d="M126.783 296.238 Q123.172 296.238 121.343 299.803 Q119.538 303.345 119.538 310.474 Q119.538 317.581 121.343 321.146 Q123.172 324.687 126.783 324.687 Q130.417 324.687 132.223 321.146 Q134.052 317.581 134.052 310.474 Q134.052 303.345 132.223 299.803 Q130.417 296.238 126.783 296.238 M126.783 292.535 Q132.593 292.535 135.649 297.141 Q138.728 301.724 138.728 310.474 Q138.728 319.201 135.649 323.808 Q132.593 328.391 126.783 328.391 Q120.973 328.391 117.894 323.808 Q114.839 319.201 114.839 310.474 Q114.839 301.724 117.894 297.141 Q120.973 292.535 126.783 292.535 Z" fill="#000000" fill-rule="nonzero" fill-opacity="1" /><path clip-path="url(#clip900)" d="M146.945 321.84 L151.829 321.84 L151.829 327.72 L146.945 327.72 L146.945 321.84 Z" fill="#000000" fill-rule="nonzero" fill-opacity="1" /><path clip-path="url(#clip900)" d="M172.014 296.238 Q168.403 296.238 166.575 299.803 Q164.769 303.345 164.769 310.474 Q164.769 317.581 166.575 321.146 Q168.403 324.687 172.014 324.687 Q175.649 324.687 177.454 321.146 Q179.283 317.581 179.283 310.474 Q179.283 303.345 177.454 299.803 Q175.649 296.238 172.014 296.238 M172.014 292.535 Q177.825 292.535 180.88 297.141 Q183.959 301.724 183.959 310.474 Q183.959 319.201 180.88 323.808 Q177.825 328.391 172.014 328.391 Q166.204 328.391 163.126 323.808 Q160.07 319.201 160.07 310.474 Q160.07 301.724 163.126 297.141 Q166.204 292.535 172.014 292.535 Z" fill="#000000" fill-rule="nonzero" fill-opacity="1" /><path clip-path="url(#clip900)" d="M202.176 311.308 Q198.843 311.308 196.922 313.09 Q195.024 314.872 195.024 317.997 Q195.024 321.122 196.922 322.905 Q198.843 324.687 202.176 324.687 Q205.51 324.687 207.431 322.905 Q209.352 321.099 209.352 317.997 Q209.352 314.872 207.431 313.09 Q205.533 311.308 202.176 311.308 M197.5 309.317 Q194.491 308.576 192.801 306.516 Q191.135 304.456 191.135 301.493 Q191.135 297.349 194.075 294.942 Q197.037 292.535 202.176 292.535 Q207.338 292.535 210.278 294.942 Q213.218 297.349 213.218 301.493 Q213.218 304.456 211.528 306.516 Q209.861 308.576 206.875 309.317 Q210.255 310.104 212.13 312.396 Q214.028 314.687 214.028 317.997 Q214.028 323.021 210.949 325.706 Q207.894 328.391 202.176 328.391 Q196.459 328.391 193.38 325.706 Q190.325 323.021 190.325 317.997 Q190.325 314.687 192.223 312.396 Q194.121 310.104 197.5 309.317 M195.787 301.933 Q195.787 304.618 197.454 306.122 Q199.144 307.627 202.176 307.627 Q205.186 307.627 206.875 306.122 Q208.588 304.618 208.588 301.933 Q208.588 299.248 206.875 297.743 Q205.186 296.238 202.176 296.238 Q199.144 296.238 197.454 297.743 Q195.787 299.248 195.787 301.933 Z" fill="#000000" fill-rule="nonzero" fill-opacity="1" /><path clip-path="url(#clip900)" d="M16.4842 1060.8 L16.4842 1051.22 L48.8219 1039.09 L16.4842 1026.9 L16.4842 1017.32 L64.0042 1017.32 L64.0042 1023.59 L22.277 1023.59 L54.8694 1035.85 L54.8694 1042.31 L22.277 1054.56 L64.0042 1054.56 L64.0042 1060.8 L16.4842 1060.8 Z" fill="#000000" fill-rule="nonzero" fill-opacity="1" /><path clip-path="url(#clip900)" d="M44.7161 974.324 L47.5806 974.324 L47.5806 1001.25 Q53.6281 1000.87 56.8109 997.622 Q59.9619 994.344 59.9619 988.519 Q59.9619 985.146 59.1344 981.995 Q58.3069 978.812 56.6518 975.692 L62.1899 975.692 Q63.5267 978.843 64.227 982.154 Q64.9272 985.464 64.9272 988.869 Q64.9272 997.4 59.9619 1002.4 Q54.9967 1007.36 46.5303 1007.36 Q37.7774 1007.36 32.6531 1002.65 Q27.4968 997.909 27.4968 989.888 Q27.4968 982.695 32.1438 978.525 Q36.7589 974.324 44.7161 974.324 M42.9973 980.18 Q38.1912 980.244 35.3266 982.886 Q32.4621 985.496 32.4621 989.824 Q32.4621 994.726 35.2312 997.686 Q38.0002 1000.61 43.0292 1001.06 L42.9973 980.18 Z" fill="#000000" fill-rule="nonzero" fill-opacity="1" /><path clip-path="url(#clip900)" d="M33.7671 941.254 L14.479 941.254 L14.479 935.398 L64.0042 935.398 L64.0042 941.254 L58.657 941.254 Q61.8398 943.1 63.3994 945.933 Q64.9272 948.734 64.9272 952.68 Q64.9272 959.142 59.771 963.216 Q54.6147 967.258 46.212 967.258 Q37.8093 967.258 32.6531 963.216 Q27.4968 959.142 27.4968 952.68 Q27.4968 948.734 29.0564 945.933 Q30.5842 943.1 33.7671 941.254 M46.212 961.21 Q52.6732 961.21 56.3653 958.569 Q60.0256 955.895 60.0256 951.248 Q60.0256 946.601 56.3653 943.928 Q52.6732 941.254 46.212 941.254 Q39.7508 941.254 36.0905 943.928 Q32.3984 946.601 32.3984 951.248 Q32.3984 955.895 36.0905 958.569 Q39.7508 961.21 46.212 961.21 Z" fill="#000000" fill-rule="nonzero" fill-opacity="1" /><path clip-path="url(#clip900)" d="M28.3562 923.335 L28.3562 917.478 L64.0042 917.478 L64.0042 923.335 L28.3562 923.335 M14.479 923.335 L14.479 917.478 L21.895 917.478 L21.895 923.335 L14.479 923.335 Z" fill="#000000" fill-rule="nonzero" fill-opacity="1" /><path clip-path="url(#clip900)" d="M46.0847 889.023 Q46.0847 896.121 47.7079 898.858 Q49.3312 901.596 53.2461 901.596 Q56.3653 901.596 58.2114 899.559 Q60.0256 897.49 60.0256 893.957 Q60.0256 889.087 56.5881 886.159 Q53.1188 883.199 47.3897 883.199 L46.0847 883.199 L46.0847 889.023 M43.6657 877.342 L64.0042 877.342 L64.0042 883.199 L58.5933 883.199 Q61.8398 885.204 63.3994 888.196 Q64.9272 891.188 64.9272 895.516 Q64.9272 900.991 61.8716 904.237 Q58.7843 907.452 53.6281 907.452 Q47.6125 907.452 44.5569 903.442 Q41.5014 899.399 41.5014 891.41 L41.5014 883.199 L40.9285 883.199 Q36.8862 883.199 34.6901 885.872 Q32.4621 888.514 32.4621 893.32 Q32.4621 896.376 33.1941 899.272 Q33.9262 902.169 35.3903 904.842 L29.9795 904.842 Q28.7381 901.627 28.1334 898.604 Q27.4968 895.58 27.4968 892.715 Q27.4968 884.981 31.5072 881.162 Q35.5176 877.342 43.6657 877.342 Z" fill="#000000" fill-rule="nonzero" fill-opacity="1" /><path clip-path="url(#clip900)" d="M42.4881 835.647 L64.0042 835.647 L64.0042 841.503 L42.679 841.503 Q37.6183 841.503 35.1038 843.477 Q32.5894 845.45 32.5894 849.397 Q32.5894 854.139 35.6131 856.877 Q38.6368 859.614 43.8567 859.614 L64.0042 859.614 L64.0042 865.502 L28.3562 865.502 L28.3562 859.614 L33.8944 859.614 Q30.6797 857.513 29.0883 854.68 Q27.4968 851.816 27.4968 848.092 Q27.4968 841.949 31.3163 838.798 Q35.1038 835.647 42.4881 835.647 Z" fill="#000000" fill-rule="nonzero" fill-opacity="1" /><path clip-path="url(#clip900)" d="M16.4842 802.991 L16.4842 772.945 L21.895 772.945 L21.895 796.561 L35.9632 796.561 L35.9632 773.931 L41.3741 773.931 L41.3741 796.561 L58.5933 796.561 L58.5933 772.372 L64.0042 772.372 L64.0042 802.991 L16.4842 802.991 Z" fill="#000000" fill-rule="nonzero" fill-opacity="1" /><path clip-path="url(#clip900)" d="M33.8307 741.403 Q33.2578 742.389 33.0032 743.567 Q32.7167 744.713 32.7167 746.113 Q32.7167 751.078 35.9632 753.752 Q39.1779 756.394 45.2253 756.394 L64.0042 756.394 L64.0042 762.282 L28.3562 762.282 L28.3562 756.394 L33.8944 756.394 Q30.6479 754.548 29.0883 751.588 Q27.4968 748.628 27.4968 744.395 Q27.4968 743.79 27.5923 743.058 Q27.656 742.326 27.8151 741.434 L33.8307 741.403 Z" fill="#000000" fill-rule="nonzero" fill-opacity="1" /><path clip-path="url(#clip900)" d="M33.8307 715.749 Q33.2578 716.736 33.0032 717.913 Q32.7167 719.059 32.7167 720.459 Q32.7167 725.425 35.9632 728.098 Q39.1779 730.74 45.2253 730.74 L64.0042 730.74 L64.0042 736.628 L28.3562 736.628 L28.3562 730.74 L33.8944 730.74 Q30.6479 728.894 29.0883 725.934 Q27.4968 722.974 27.4968 718.741 Q27.4968 718.136 27.5923 717.404 Q27.656 716.672 27.8151 715.781 L33.8307 715.749 Z" fill="#000000" fill-rule="nonzero" fill-opacity="1" /><path clip-path="url(#clip900)" d="M55.9197 714.762 L55.9197 708.046 L64.0042 708.046 L64.0042 714.762 L55.9197 714.762 Z" fill="#000000" fill-rule="nonzero" fill-opacity="1" /><path clip-path="url(#clip900)" d="M44.0477 669.375 Q46.403 669.152 50.2224 667.147 Q54.6466 664.791 57.1292 660.335 Q59.5482 655.975 59.58 651.264 L59.58 629.08 L64.6407 629.08 L64.6407 651.264 Q64.6407 657.375 61.4897 663.041 Q58.3387 668.674 52.7369 671.698 Q47.135 674.722 41.1831 674.722 Q35.2948 674.722 29.693 671.698 Q24.0912 668.674 20.9083 663.041 Q17.7255 657.375 17.7255 651.264 L17.7255 629.08 L22.7862 629.08 L22.7862 651.264 Q22.818 655.975 25.2688 660.335 Q27.7833 664.76 32.1756 667.147 Q35.995 669.184 38.9551 669.47 L38.9551 629.08 L44.0477 629.08 L44.0477 669.375 Z" fill="#000000" fill-rule="nonzero" fill-opacity="1" /><path clip-path="url(#clip900)" d="M14.479 597.188 L14.479 583.692 L19.0304 583.692 L19.0304 591.331 L68.0464 591.331 L68.0464 583.692 L72.5979 583.692 L72.5979 597.188 L14.479 597.188 Z" fill="#000000" fill-rule="nonzero" fill-opacity="1" /><path clip-path="url(#clip900)" d="M43.5384 574.176 L43.5384 557.02 L48.7583 557.02 L48.7583 574.176 L43.5384 574.176 Z" fill="#000000" fill-rule="nonzero" fill-opacity="1" /><path clip-path="url(#clip900)" d="M58.5933 545.753 L58.5933 535.249 L22.3406 535.249 L24.6323 546.676 L18.7758 546.676 L16.4842 535.313 L16.4842 528.884 L58.5933 528.884 L58.5933 518.38 L64.0042 518.38 L64.0042 545.753 L58.5933 545.753 Z" fill="#000000" fill-rule="nonzero" fill-opacity="1" /><path clip-path="url(#clip900)" d="M55.9197 504.726 L55.9197 498.01 L61.3942 498.01 L71.5793 503.23 L71.5793 507.336 L61.3942 504.726 L55.9197 504.726 Z" fill="#000000" fill-rule="nonzero" fill-opacity="1" /><path clip-path="url(#clip900)" d="M58.5933 462.839 L58.5933 452.336 L22.3406 452.336 L24.6323 463.762 L18.7758 463.762 L16.4842 452.4 L16.4842 445.97 L58.5933 445.97 L58.5933 435.467 L64.0042 435.467 L64.0042 462.839 L58.5933 462.839 Z" fill="#000000" fill-rule="nonzero" fill-opacity="1" /><path clip-path="url(#clip900)" d="M14.479 409.622 L72.5979 409.622 L72.5979 423.117 L68.0464 423.117 L68.0464 415.51 L19.0304 415.51 L19.0304 423.117 L14.479 423.117 L14.479 409.622 Z" fill="#000000" fill-rule="nonzero" fill-opacity="1" /><polyline clip-path="url(#clip902)" style="stroke:#8b564a; stroke-linecap:round; stroke-linejoin:round; stroke-width:8; stroke-opacity:1; fill:none" points="309.539,429.655 426.228,897.566 542.916,1078.13 659.605,1160.92 776.294,1228.03 892.982,1272.39 1009.67,1295.66 1126.36,1319.83 1243.05,1336.48 1359.74,1347.37 1476.42,1356.55 1593.11,1365.56 1709.8,1365.73 1826.49,1374.91 1943.18,1374.94 2059.87,1384.04 2176.56,1384.08 2293.24,1384.24 "/>
<circle clip-path="url(#clip902)" cx="309.539" cy="429.655" r="14.4" fill="#8b564a" fill-rule="evenodd" fill-opacity="1" stroke="#000000" stroke-opacity="1" stroke-width="3.2"/>
<circle clip-path="url(#clip902)" cx="426.228" cy="897.566" r="14.4" fill="#8b564a" fill-rule="evenodd" fill-opacity="1" stroke="#000000" stroke-opacity="1" stroke-width="3.2"/>
<circle clip-path="url(#clip902)" cx="542.916" cy="1078.13" r="14.4" fill="#8b564a" fill-rule="evenodd" fill-opacity="1" stroke="#000000" stroke-opacity="1" stroke-width="3.2"/>
<circle clip-path="url(#clip902)" cx="659.605" cy="1160.92" r="14.4" fill="#8b564a" fill-rule="evenodd" fill-opacity="1" stroke="#000000" stroke-opacity="1" stroke-width="3.2"/>
<circle clip-path="url(#clip902)" cx="776.294" cy="1228.03" r="14.4" fill="#8b564a" fill-rule="evenodd" fill-opacity="1" stroke="#000000" stroke-opacity="1" stroke-width="3.2"/>
<circle clip-path="url(#clip902)" cx="892.982" cy="1272.39" r="14.4" fill="#8b564a" fill-rule="evenodd" fill-opacity="1" stroke="#000000" stroke-opacity="1" stroke-width="3.2"/>
<circle clip-path="url(#clip902)" cx="1009.67" cy="1295.66" r="14.4" fill="#8b564a" fill-rule="evenodd" fill-opacity="1" stroke="#000000" stroke-opacity="1" stroke-width="3.2"/>
<circle clip-path="url(#clip902)" cx="1126.36" cy="1319.83" r="14.4" fill="#8b564a" fill-rule="evenodd" fill-opacity="1" stroke="#000000" stroke-opacity="1" stroke-width="3.2"/>
<circle clip-path="url(#clip902)" cx="1243.05" cy="1336.48" r="14.4" fill="#8b564a" fill-rule="evenodd" fill-opacity="1" stroke="#000000" stroke-opacity="1" stroke-width="3.2"/>
<circle clip-path="url(#clip902)" cx="1359.74" cy="1347.37" r="14.4" fill="#8b564a" fill-rule="evenodd" fill-opacity="1" stroke="#000000" stroke-opacity="1" stroke-width="3.2"/>
<circle clip-path="url(#clip902)" cx="1476.42" cy="1356.55" r="14.4" fill="#8b564a" fill-rule="evenodd" fill-opacity="1" stroke="#000000" stroke-opacity="1" stroke-width="3.2"/>
<circle clip-path="url(#clip902)" cx="1593.11" cy="1365.56" r="14.4" fill="#8b564a" fill-rule="evenodd" fill-opacity="1" stroke="#000000" stroke-opacity="1" stroke-width="3.2"/>
<circle clip-path="url(#clip902)" cx="1709.8" cy="1365.73" r="14.4" fill="#8b564a" fill-rule="evenodd" fill-opacity="1" stroke="#000000" stroke-opacity="1" stroke-width="3.2"/>
<circle clip-path="url(#clip902)" cx="1826.49" cy="1374.91" r="14.4" fill="#8b564a" fill-rule="evenodd" fill-opacity="1" stroke="#000000" stroke-opacity="1" stroke-width="3.2"/>
<circle clip-path="url(#clip902)" cx="1943.18" cy="1374.94" r="14.4" fill="#8b564a" fill-rule="evenodd" fill-opacity="1" stroke="#000000" stroke-opacity="1" stroke-width="3.2"/>
<circle clip-path="url(#clip902)" cx="2059.87" cy="1384.04" r="14.4" fill="#8b564a" fill-rule="evenodd" fill-opacity="1" stroke="#000000" stroke-opacity="1" stroke-width="3.2"/>
<circle clip-path="url(#clip902)" cx="2176.56" cy="1384.08" r="14.4" fill="#8b564a" fill-rule="evenodd" fill-opacity="1" stroke="#000000" stroke-opacity="1" stroke-width="3.2"/>
<circle clip-path="url(#clip902)" cx="2293.24" cy="1384.24" r="14.4" fill="#8b564a" fill-rule="evenodd" fill-opacity="1" stroke="#000000" stroke-opacity="1" stroke-width="3.2"/>
<polyline clip-path="url(#clip902)" style="stroke:#2ba02b; stroke-linecap:round; stroke-linejoin:round; stroke-width:8; stroke-opacity:1; fill:none" points="309.539,86.1857 426.228,578.03 542.916,839.986 659.605,984.142 776.294,1076.07 892.982,1141.52 1009.67,1189.89 1126.36,1226.4 1243.05,1254.28 1359.74,1276.22 1476.42,1293.94 1593.11,1308.12 1709.8,1319.91 1826.49,1329.92 1943.18,1338.4 2059.87,1345.39 2176.56,1351.49 2293.24,1356.47 "/>
<circle clip-path="url(#clip902)" cx="309.539" cy="86.1857" r="14.4" fill="#2ba02b" fill-rule="evenodd" fill-opacity="1" stroke="#000000" stroke-opacity="1" stroke-width="3.2"/>
<circle clip-path="url(#clip902)" cx="426.228" cy="578.03" r="14.4" fill="#2ba02b" fill-rule="evenodd" fill-opacity="1" stroke="#000000" stroke-opacity="1" stroke-width="3.2"/>
<circle clip-path="url(#clip902)" cx="542.916" cy="839.986" r="14.4" fill="#2ba02b" fill-rule="evenodd" fill-opacity="1" stroke="#000000" stroke-opacity="1" stroke-width="3.2"/>
<circle clip-path="url(#clip902)" cx="659.605" cy="984.142" r="14.4" fill="#2ba02b" fill-rule="evenodd" fill-opacity="1" stroke="#000000" stroke-opacity="1" stroke-width="3.2"/>
<circle clip-path="url(#clip902)" cx="776.294" cy="1076.07" r="14.4" fill="#2ba02b" fill-rule="evenodd" fill-opacity="1" stroke="#000000" stroke-opacity="1" stroke-width="3.2"/>
<circle clip-path="url(#clip902)" cx="892.982" cy="1141.52" r="14.4" fill="#2ba02b" fill-rule="evenodd" fill-opacity="1" stroke="#000000" stroke-opacity="1" stroke-width="3.2"/>
<circle clip-path="url(#clip902)" cx="1009.67" cy="1189.89" r="14.4" fill="#2ba02b" fill-rule="evenodd" fill-opacity="1" stroke="#000000" stroke-opacity="1" stroke-width="3.2"/>
<circle clip-path="url(#clip902)" cx="1126.36" cy="1226.4" r="14.4" fill="#2ba02b" fill-rule="evenodd" fill-opacity="1" stroke="#000000" stroke-opacity="1" stroke-width="3.2"/>
<circle clip-path="url(#clip902)" cx="1243.05" cy="1254.28" r="14.4" fill="#2ba02b" fill-rule="evenodd" fill-opacity="1" stroke="#000000" stroke-opacity="1" stroke-width="3.2"/>
<circle clip-path="url(#clip902)" cx="1359.74" cy="1276.22" r="14.4" fill="#2ba02b" fill-rule="evenodd" fill-opacity="1" stroke="#000000" stroke-opacity="1" stroke-width="3.2"/>
<circle clip-path="url(#clip902)" cx="1476.42" cy="1293.94" r="14.4" fill="#2ba02b" fill-rule="evenodd" fill-opacity="1" stroke="#000000" stroke-opacity="1" stroke-width="3.2"/>
<circle clip-path="url(#clip902)" cx="1593.11" cy="1308.12" r="14.4" fill="#2ba02b" fill-rule="evenodd" fill-opacity="1" stroke="#000000" stroke-opacity="1" stroke-width="3.2"/>
<circle clip-path="url(#clip902)" cx="1709.8" cy="1319.91" r="14.4" fill="#2ba02b" fill-rule="evenodd" fill-opacity="1" stroke="#000000" stroke-opacity="1" stroke-width="3.2"/>
<circle clip-path="url(#clip902)" cx="1826.49" cy="1329.92" r="14.4" fill="#2ba02b" fill-rule="evenodd" fill-opacity="1" stroke="#000000" stroke-opacity="1" stroke-width="3.2"/>
<circle clip-path="url(#clip902)" cx="1943.18" cy="1338.4" r="14.4" fill="#2ba02b" fill-rule="evenodd" fill-opacity="1" stroke="#000000" stroke-opacity="1" stroke-width="3.2"/>
<circle clip-path="url(#clip902)" cx="2059.87" cy="1345.39" r="14.4" fill="#2ba02b" fill-rule="evenodd" fill-opacity="1" stroke="#000000" stroke-opacity="1" stroke-width="3.2"/>
<circle clip-path="url(#clip902)" cx="2176.56" cy="1351.49" r="14.4" fill="#2ba02b" fill-rule="evenodd" fill-opacity="1" stroke="#000000" stroke-opacity="1" stroke-width="3.2"/>
<circle clip-path="url(#clip902)" cx="2293.24" cy="1356.47" r="14.4" fill="#2ba02b" fill-rule="evenodd" fill-opacity="1" stroke="#000000" stroke-opacity="1" stroke-width="3.2"/>
<path clip-path="url(#clip900)" d="M1762.37 248.629 L2282.66 248.629 L2282.66 93.1086 L1762.37 93.1086  Z" fill="#ffffff" fill-rule="evenodd" fill-opacity="1"/>
<polyline clip-path="url(#clip900)" style="stroke:#000000; stroke-linecap:round; stroke-linejoin:round; stroke-width:4; stroke-opacity:1; fill:none" points="1762.37,248.629 2282.66,248.629 2282.66,93.1086 1762.37,93.1086 1762.37,248.629 "/>
<polyline clip-path="url(#clip900)" style="stroke:#8b564a; stroke-linecap:round; stroke-linejoin:round; stroke-width:8; stroke-opacity:1; fill:none" points="1785.73,144.949 1925.92,144.949 "/>
<path clip-path="url(#clip900)" d="M1949.28 127.669 L1956.25 127.669 L1965.07 151.187 L1973.93 127.669 L1980.9 127.669 L1980.9 162.229 L1976.34 162.229 L1976.34 131.882 L1967.43 155.585 L1962.73 155.585 L1953.82 131.882 L1953.82 162.229 L1949.28 162.229 L1949.28 127.669 Z" fill="#000000" fill-rule="nonzero" fill-opacity="1" /><path clip-path="url(#clip900)" d="M2000.04 139.289 Q1996.62 139.289 1994.63 141.974 Q1992.64 144.636 1992.64 149.289 Q1992.64 153.942 1994.6 156.627 Q1996.59 159.289 2000.04 159.289 Q2003.45 159.289 2005.44 156.604 Q2007.43 153.918 2007.43 149.289 Q2007.43 144.682 2005.44 141.997 Q2003.45 139.289 2000.04 139.289 M2000.04 135.678 Q2005.6 135.678 2008.77 139.289 Q2011.94 142.9 2011.94 149.289 Q2011.94 155.655 2008.77 159.289 Q2005.6 162.9 2000.04 162.9 Q1994.46 162.9 1991.29 159.289 Q1988.15 155.655 1988.15 149.289 Q1988.15 142.9 1991.29 139.289 Q1994.46 135.678 2000.04 135.678 Z" fill="#000000" fill-rule="nonzero" fill-opacity="1" /><path clip-path="url(#clip900)" d="M2036.06 140.238 L2036.06 126.21 L2040.32 126.21 L2040.32 162.229 L2036.06 162.229 L2036.06 158.34 Q2034.72 160.655 2032.66 161.789 Q2030.62 162.9 2027.75 162.9 Q2023.05 162.9 2020.09 159.15 Q2017.15 155.4 2017.15 149.289 Q2017.15 143.178 2020.09 139.428 Q2023.05 135.678 2027.75 135.678 Q2030.62 135.678 2032.66 136.812 Q2034.72 137.923 2036.06 140.238 M2021.55 149.289 Q2021.55 153.988 2023.47 156.673 Q2025.41 159.335 2028.79 159.335 Q2032.17 159.335 2034.12 156.673 Q2036.06 153.988 2036.06 149.289 Q2036.06 144.59 2034.12 141.928 Q2032.17 139.243 2028.79 139.243 Q2025.41 139.243 2023.47 141.928 Q2021.55 144.59 2021.55 149.289 Z" fill="#000000" fill-rule="nonzero" fill-opacity="1" /><path clip-path="url(#clip900)" d="M2071.27 148.201 L2071.27 150.284 L2051.69 150.284 Q2051.96 154.682 2054.33 156.997 Q2056.71 159.289 2060.95 159.289 Q2063.4 159.289 2065.69 158.687 Q2068.01 158.085 2070.27 156.881 L2070.27 160.909 Q2067.98 161.881 2065.58 162.391 Q2063.17 162.9 2060.69 162.9 Q2054.49 162.9 2050.85 159.289 Q2047.24 155.678 2047.24 149.52 Q2047.24 143.155 2050.67 139.428 Q2054.12 135.678 2059.95 135.678 Q2065.18 135.678 2068.21 139.057 Q2071.27 142.414 2071.27 148.201 M2067.01 146.951 Q2066.96 143.456 2065.04 141.372 Q2063.14 139.289 2060 139.289 Q2056.43 139.289 2054.28 141.303 Q2052.15 143.317 2051.83 146.974 L2067.01 146.951 Z" fill="#000000" fill-rule="nonzero" fill-opacity="1" /><path clip-path="url(#clip900)" d="M2076.11 147.344 L2088.58 147.344 L2088.58 151.141 L2076.11 151.141 L2076.11 147.344 Z" fill="#000000" fill-rule="nonzero" fill-opacity="1" /><path clip-path="url(#clip900)" d="M2095.55 127.669 L2102.52 127.669 L2111.34 151.187 L2120.2 127.669 L2127.17 127.669 L2127.17 162.229 L2122.61 162.229 L2122.61 131.882 L2113.7 155.585 L2109 155.585 L2100.09 131.882 L2100.09 162.229 L2095.55 162.229 L2095.55 127.669 Z" fill="#000000" fill-rule="nonzero" fill-opacity="1" /><path clip-path="url(#clip900)" d="M2158.45 148.201 L2158.45 150.284 L2138.86 150.284 Q2139.14 154.682 2141.5 156.997 Q2143.89 159.289 2148.12 159.289 Q2150.58 159.289 2152.87 158.687 Q2155.18 158.085 2157.45 156.881 L2157.45 160.909 Q2155.16 161.881 2152.75 162.391 Q2150.34 162.9 2147.87 162.9 Q2141.66 162.9 2138.03 159.289 Q2134.42 155.678 2134.42 149.52 Q2134.42 143.155 2137.84 139.428 Q2141.29 135.678 2147.13 135.678 Q2152.36 135.678 2155.39 139.057 Q2158.45 142.414 2158.45 148.201 M2154.19 146.951 Q2154.14 143.456 2152.22 141.372 Q2150.32 139.289 2147.17 139.289 Q2143.61 139.289 2141.45 141.303 Q2139.33 143.317 2139 146.974 L2154.19 146.951 Z" fill="#000000" fill-rule="nonzero" fill-opacity="1" /><path clip-path="url(#clip900)" d="M2182.5 140.238 L2182.5 126.21 L2186.76 126.21 L2186.76 162.229 L2182.5 162.229 L2182.5 158.34 Q2181.15 160.655 2179.09 161.789 Q2177.06 162.9 2174.19 162.9 Q2169.49 162.9 2166.52 159.15 Q2163.58 155.4 2163.58 149.289 Q2163.58 143.178 2166.52 139.428 Q2169.49 135.678 2174.19 135.678 Q2177.06 135.678 2179.09 136.812 Q2181.15 137.923 2182.5 140.238 M2167.98 149.289 Q2167.98 153.988 2169.9 156.673 Q2171.85 159.335 2175.23 159.335 Q2178.61 159.335 2180.55 156.673 Q2182.5 153.988 2182.5 149.289 Q2182.5 144.59 2180.55 141.928 Q2178.61 139.243 2175.23 139.243 Q2171.85 139.243 2169.9 141.928 Q2167.98 144.59 2167.98 149.289 Z" fill="#000000" fill-rule="nonzero" fill-opacity="1" /><path clip-path="url(#clip900)" d="M2195.53 136.303 L2199.79 136.303 L2199.79 162.229 L2195.53 162.229 L2195.53 136.303 M2195.53 126.21 L2199.79 126.21 L2199.79 131.604 L2195.53 131.604 L2195.53 126.21 Z" fill="#000000" fill-rule="nonzero" fill-opacity="1" /><path clip-path="url(#clip900)" d="M2220.48 149.196 Q2215.32 149.196 2213.33 150.377 Q2211.34 151.557 2211.34 154.405 Q2211.34 156.673 2212.82 158.016 Q2214.32 159.335 2216.89 159.335 Q2220.44 159.335 2222.57 156.835 Q2224.72 154.312 2224.72 150.145 L2224.72 149.196 L2220.48 149.196 M2228.98 147.437 L2228.98 162.229 L2224.72 162.229 L2224.72 158.293 Q2223.26 160.655 2221.08 161.789 Q2218.91 162.9 2215.76 162.9 Q2211.78 162.9 2209.42 160.678 Q2207.08 158.432 2207.08 154.682 Q2207.08 150.307 2210 148.085 Q2212.94 145.863 2218.75 145.863 L2224.72 145.863 L2224.72 145.446 Q2224.72 142.507 2222.77 140.909 Q2220.85 139.289 2217.36 139.289 Q2215.13 139.289 2213.03 139.821 Q2210.92 140.354 2208.98 141.419 L2208.98 137.483 Q2211.32 136.581 2213.51 136.141 Q2215.71 135.678 2217.8 135.678 Q2223.42 135.678 2226.2 138.594 Q2228.98 141.511 2228.98 147.437 Z" fill="#000000" fill-rule="nonzero" fill-opacity="1" /><path clip-path="url(#clip900)" d="M2259.3 146.581 L2259.3 162.229 L2255.04 162.229 L2255.04 146.719 Q2255.04 143.039 2253.61 141.21 Q2252.17 139.382 2249.3 139.382 Q2245.85 139.382 2243.86 141.581 Q2241.87 143.78 2241.87 147.576 L2241.87 162.229 L2237.59 162.229 L2237.59 136.303 L2241.87 136.303 L2241.87 140.331 Q2243.4 137.993 2245.46 136.835 Q2247.54 135.678 2250.25 135.678 Q2254.72 135.678 2257.01 138.456 Q2259.3 141.21 2259.3 146.581 Z" fill="#000000" fill-rule="nonzero" fill-opacity="1" /><polyline clip-path="url(#clip900)" style="stroke:#2ba02b; stroke-linecap:round; stroke-linejoin:round; stroke-width:8; stroke-opacity:1; fill:none" points="1785.73,196.789 1925.92,196.789 "/>
<path clip-path="url(#clip900)" d="M1949.28 179.509 L1956.25 179.509 L1965.07 203.027 L1973.93 179.509 L1980.9 179.509 L1980.9 214.069 L1976.34 214.069 L1976.34 183.722 L1967.43 207.425 L1962.73 207.425 L1953.82 183.722 L1953.82 214.069 L1949.28 214.069 L1949.28 179.509 Z" fill="#000000" fill-rule="nonzero" fill-opacity="1" /><path clip-path="url(#clip900)" d="M2012.17 200.041 L2012.17 202.124 L1992.59 202.124 Q1992.87 206.522 1995.23 208.837 Q1997.61 211.129 2001.85 211.129 Q2004.3 211.129 2006.59 210.527 Q2008.91 209.925 2011.18 208.721 L2011.18 212.749 Q2008.89 213.721 2006.48 214.231 Q2004.07 214.74 2001.59 214.74 Q1995.39 214.74 1991.76 211.129 Q1988.15 207.518 1988.15 201.36 Q1988.15 194.995 1991.57 191.268 Q1995.02 187.518 2000.85 187.518 Q2006.09 187.518 2009.12 190.897 Q2012.17 194.254 2012.17 200.041 M2007.91 198.791 Q2007.87 195.296 2005.95 193.212 Q2004.05 191.129 2000.9 191.129 Q1997.34 191.129 1995.18 193.143 Q1993.05 195.157 1992.73 198.814 L2007.91 198.791 Z" fill="#000000" fill-rule="nonzero" fill-opacity="1" /><path clip-path="url(#clip900)" d="M2036.22 192.078 L2036.22 178.05 L2040.48 178.05 L2040.48 214.069 L2036.22 214.069 L2036.22 210.18 Q2034.88 212.495 2032.82 213.629 Q2030.78 214.74 2027.91 214.74 Q2023.21 214.74 2020.25 210.99 Q2017.31 207.24 2017.31 201.129 Q2017.31 195.018 2020.25 191.268 Q2023.21 187.518 2027.91 187.518 Q2030.78 187.518 2032.82 188.652 Q2034.88 189.763 2036.22 192.078 M2021.71 201.129 Q2021.71 205.828 2023.63 208.513 Q2025.58 211.175 2028.96 211.175 Q2032.33 211.175 2034.28 208.513 Q2036.22 205.828 2036.22 201.129 Q2036.22 196.43 2034.28 193.768 Q2032.33 191.083 2028.96 191.083 Q2025.58 191.083 2023.63 193.768 Q2021.71 196.43 2021.71 201.129 Z" fill="#000000" fill-rule="nonzero" fill-opacity="1" /><path clip-path="url(#clip900)" d="M2049.26 188.143 L2053.52 188.143 L2053.52 214.069 L2049.26 214.069 L2049.26 188.143 M2049.26 178.05 L2053.52 178.05 L2053.52 183.444 L2049.26 183.444 L2049.26 178.05 Z" fill="#000000" fill-rule="nonzero" fill-opacity="1" /><path clip-path="url(#clip900)" d="M2074.21 201.036 Q2069.05 201.036 2067.06 202.217 Q2065.07 203.397 2065.07 206.245 Q2065.07 208.513 2066.55 209.856 Q2068.05 211.175 2070.62 211.175 Q2074.16 211.175 2076.29 208.675 Q2078.45 206.152 2078.45 201.985 L2078.45 201.036 L2074.21 201.036 M2082.71 199.277 L2082.71 214.069 L2078.45 214.069 L2078.45 210.133 Q2076.99 212.495 2074.81 213.629 Q2072.64 214.74 2069.49 214.74 Q2065.51 214.74 2063.14 212.518 Q2060.81 210.272 2060.81 206.522 Q2060.81 202.147 2063.72 199.925 Q2066.66 197.703 2072.47 197.703 L2078.45 197.703 L2078.45 197.286 Q2078.45 194.347 2076.5 192.749 Q2074.58 191.129 2071.08 191.129 Q2068.86 191.129 2066.76 191.661 Q2064.65 192.194 2062.71 193.259 L2062.71 189.323 Q2065.04 188.421 2067.24 187.981 Q2069.44 187.518 2071.52 187.518 Q2077.15 187.518 2079.93 190.434 Q2082.71 193.351 2082.71 199.277 Z" fill="#000000" fill-rule="nonzero" fill-opacity="1" /><path clip-path="url(#clip900)" d="M2113.03 198.421 L2113.03 214.069 L2108.77 214.069 L2108.77 198.559 Q2108.77 194.879 2107.33 193.05 Q2105.9 191.222 2103.03 191.222 Q2099.58 191.222 2097.59 193.421 Q2095.6 195.62 2095.6 199.416 L2095.6 214.069 L2091.32 214.069 L2091.32 188.143 L2095.6 188.143 L2095.6 192.171 Q2097.13 189.833 2099.19 188.675 Q2101.27 187.518 2103.98 187.518 Q2108.45 187.518 2110.74 190.296 Q2113.03 193.05 2113.03 198.421 Z" fill="#000000" fill-rule="nonzero" fill-opacity="1" /></svg>
