<?xml version="1.0" encoding="utf-8"?>
<svg xmlns="http://www.w3.org/2000/svg" xmlns:xlink="http://www.w3.org/1999/xlink" width="600" height="400" viewBox="0 0 2400 1600">
<defs>
  <clipPath id="clip770">
    <rect x="0" y="0" width="2400" height="1600"/>
  </clipPath>
</defs>
<path clip-path="url(#clip770)" d="M0 1600 L2400 1600 L2400 8.88178e-14 L0 8.88178e-14  Z" fill="#ffffff" fill-rule="evenodd" fill-opacity="1"/>
<defs>
  <clipPath id="clip771">
    <rect x="480" y="0" width="1681" height="1600"/>
  </clipPath>
</defs>
<path clip-path="url(#clip770)" d="M249.704 1423.18 L2352.76 1423.18 L2352.76 47.2441 L249.704 47.2441  Z" fill="#ffffff" fill-rule="evenodd" fill-opacity="1"/>
<defs>
  <clipPath id="clip772">
    <rect x="249" y="47" width="2104" height="1377"/>
  </clipPath>
</defs>
<polyline clip-path="url(#clip772)" style="stroke:#000000; stroke-linecap:round; stroke-linejoin:round; stroke-width:2; stroke-opacity:0.1; fill:none" points="425.931,1423.18 425.931,47.2441 "/>
<polyline clip-path="url(#clip772)" style="stroke:#000000; stroke-linecap:round; stroke-linejoin:round; stroke-width:2; stroke-opacity:0.1; fill:none" points="659.344,1423.18 659.344,47.2441 "/>
<polyline clip-path="url(#clip772)" style="stroke:#000000; stroke-linecap:round; stroke-linejoin:round; stroke-width:2; stroke-opacity:0.1; fill:none" points="892.757,1423.18 892.757,47.2441 "/>
<polyline clip-path="url(#clip772)" style="stroke:#000000; stroke-linecap:round; stroke-linejoin:round; stroke-width:2; stroke-opacity:0.1; fill:none" points="1126.17,1423.18 1126.17,47.2441 "/>
<polyline clip-path="url(#clip772)" style="stroke:#000000; stroke-linecap:round; stroke-linejoin:round; stroke-width:2; stroke-opacity:0.1; fill:none" points="1359.58,1423.18 1359.58,47.2441 "/>
<polyline clip-path="url(#clip772)" style="stroke:#000000; stroke-linecap:round; stroke-linejoin:round; stroke-width:2; stroke-opacity:0.1; fill:none" points="1593,1423.18 1593,47.2441 "/>
<polyline clip-path="url(#clip772)" style="stroke:#000000; stroke-linecap:round; stroke-linejoin:round; stroke-width:2; stroke-opacity:0.1; fill:none" points="1826.41,1423.18 1826.41,47.2441 "/>
<polyline clip-path="url(#clip772)" style="stroke:#000000; stroke-linecap:round; stroke-linejoin:round; stroke-width:2; stroke-opacity:0.1; fill:none" points="2059.82,1423.18 2059.82,47.2441 "/>
<polyline clip-path="url(#clip772)" style="stroke:#000000; stroke-linecap:round; stroke-linejoin:round; stroke-width:2; stroke-opacity:0.1; fill:none" points="2293.24,1423.18 2293.24,47.2441 "/>
<polyline clip-path="url(#clip772)" style="stroke:#000000; stroke-linecap:round; stroke-linejoin:round; stroke-width:2; stroke-opacity:0.1; fill:none" points="249.704,1192.46 2352.76,1192.46 "/>
<polyline clip-path="url(#clip772)" style="stroke:#000000; stroke-linecap:round; stroke-linejoin:round; stroke-width:2; stroke-opacity:0.1; fill:none" points="249.704,959.209 2352.76,959.209 "/>
<polyline clip-path="url(#clip772)" style="stroke:#000000; stroke-linecap:round; stroke-linejoin:round; stroke-width:2; stroke-opacity:0.1; fill:none" points="249.704,725.954 2352.76,725.954 "/>
<polyline clip-path="url(#clip772)" style="stroke:#000000; stroke-linecap:round; stroke-linejoin:round; stroke-width:2; stroke-opacity:0.1; fill:none" points="249.704,492.699 2352.76,492.699 "/>
<polyline clip-path="url(#clip772)" style="stroke:#000000; stroke-linecap:round; stroke-linejoin:round; stroke-width:2; stroke-opacity:0.1; fill:none" points="249.704,259.444 2352.76,259.444 "/>
<polyline clip-path="url(#clip770)" style="stroke:#000000; stroke-linecap:round; stroke-linejoin:round; stroke-width:4; stroke-opacity:1; fill:none" points="249.704,1423.18 2352.76,1423.18 "/>
<polyline clip-path="url(#clip770)" style="stroke:#000000; stroke-linecap:round; stroke-linejoin:round; stroke-width:4; stroke-opacity:1; fill:none" points="425.931,1423.18 425.931,1404.28 "/>
<polyline clip-path="url(#clip770)" style="stroke:#000000; stroke-linecap:round; stroke-linejoin:round; stroke-width:4; stroke-opacity:1; fill:none" points="659.344,1423.18 659.344,1404.28 "/>
<polyline clip-path="url(#clip770)" style="stroke:#000000; stroke-linecap:round; stroke-linejoin:round; stroke-width:4; stroke-opacity:1; fill:none" points="892.757,1423.18 892.757,1404.28 "/>
<polyline clip-path="url(#clip770)" style="stroke:#000000; stroke-linecap:round; stroke-linejoin:round; stroke-width:4; stroke-opacity:1; fill:none" points="1126.17,1423.18 1126.17,1404.28 "/>
<polyline clip-path="url(#clip770)" style="stroke:#000000; stroke-linecap:round; stroke-linejoin:round; stroke-width:4; stroke-opacity:1; fill:none" points="1359.58,1423.18 1359.58,1404.28 "/>
<polyline clip-path="url(#clip770)" style="stroke:#000000; stroke-linecap:round; stroke-linejoin:round; stroke-width:4; stroke-opacity:1; fill:none" points="1593,1423.18 1593,1404.28 "/>
<polyline clip-path="url(#clip770)" style="stroke:#000000; stroke-linecap:round; stroke-linejoin:round; stroke-width:4; stroke-opacity:1; fill:none" points="1826.41,1423.18 1826.41,1404.28 "/>
<polyline clip-path="url(#clip770)" style="stroke:#000000; stroke-linecap:round; stroke-linejoin:round; stroke-width:4; stroke-opacity:1; fill:none" points="2059.82,1423.18 2059.82,1404.28 "/>
<polyline clip-path="url(#clip770)" style="stroke:#000000; stroke-linecap:round; stroke-linejoin:round; stroke-width:4; stroke-opacity:1; fill:none" points="2293.24,1423.18 2293.24,1404.28 "/>
<path clip-path="url(#clip770)" d="M428.94 1455.09 L417.135 1473.54 L428.94 1473.54 L428.94 1455.09 M427.713 1451.02 L433.593 1451.02 L433.593 1473.54 L438.523 1473.54 L438.523 1477.43 L433.593 1477.43 L433.593 1485.58 L428.94 1485.58 L428.94 1477.43 L413.338 1477.43 L413.338 1472.92 L427.713 1451.02 Z" fill="#000000" fill-rule="nonzero" fill-opacity="1" /><path clip-path="url(#clip770)" d="M659.749 1466.44 Q656.601 1466.44 654.749 1468.59 Q652.92 1470.74 652.92 1474.49 Q652.92 1478.22 654.749 1480.39 Q656.601 1482.55 659.749 1482.55 Q662.897 1482.55 664.726 1480.39 Q666.578 1478.22 666.578 1474.49 Q666.578 1470.74 664.726 1468.59 Q662.897 1466.44 659.749 1466.44 M669.031 1451.78 L669.031 1456.04 Q667.272 1455.21 665.467 1454.77 Q663.684 1454.33 661.925 1454.33 Q657.295 1454.33 654.842 1457.45 Q652.411 1460.58 652.064 1466.9 Q653.43 1464.89 655.49 1463.82 Q657.55 1462.73 660.027 1462.73 Q665.235 1462.73 668.244 1465.9 Q671.277 1469.05 671.277 1474.49 Q671.277 1479.82 668.129 1483.03 Q664.981 1486.25 659.749 1486.25 Q653.754 1486.25 650.582 1481.67 Q647.411 1477.06 647.411 1468.33 Q647.411 1460.14 651.3 1455.28 Q655.189 1450.39 661.74 1450.39 Q663.499 1450.39 665.281 1450.74 Q667.087 1451.09 669.031 1451.78 Z" fill="#000000" fill-rule="nonzero" fill-opacity="1" /><path clip-path="url(#clip770)" d="M892.757 1469.17 Q889.424 1469.17 887.502 1470.95 Q885.604 1472.73 885.604 1475.86 Q885.604 1478.98 887.502 1480.77 Q889.424 1482.55 892.757 1482.55 Q896.09 1482.55 898.012 1480.77 Q899.933 1478.96 899.933 1475.86 Q899.933 1472.73 898.012 1470.95 Q896.114 1469.17 892.757 1469.17 M888.081 1467.18 Q885.072 1466.44 883.382 1464.38 Q881.715 1462.32 881.715 1459.35 Q881.715 1455.21 884.655 1452.8 Q887.618 1450.39 892.757 1450.39 Q897.919 1450.39 900.859 1452.8 Q903.799 1455.21 903.799 1459.35 Q903.799 1462.32 902.109 1464.38 Q900.442 1466.44 897.456 1467.18 Q900.836 1467.96 902.711 1470.26 Q904.609 1472.55 904.609 1475.86 Q904.609 1480.88 901.53 1483.57 Q898.475 1486.25 892.757 1486.25 Q887.04 1486.25 883.961 1483.57 Q880.905 1480.88 880.905 1475.86 Q880.905 1472.55 882.803 1470.26 Q884.702 1467.96 888.081 1467.18 M886.368 1459.79 Q886.368 1462.48 888.035 1463.98 Q889.725 1465.49 892.757 1465.49 Q895.766 1465.49 897.456 1463.98 Q899.169 1462.48 899.169 1459.79 Q899.169 1457.11 897.456 1455.6 Q895.766 1454.1 892.757 1454.1 Q889.725 1454.1 888.035 1455.6 Q886.368 1457.11 886.368 1459.79 Z" fill="#000000" fill-rule="nonzero" fill-opacity="1" /><path clip-path="url(#clip770)" d="M1100.86 1481.64 L1108.5 1481.64 L1108.5 1455.28 L1100.19 1456.95 L1100.19 1452.69 L1108.45 1451.02 L1113.13 1451.02 L1113.13 1481.64 L1120.77 1481.64 L1120.77 1485.58 L1100.86 1485.58 L1100.86 1481.64 Z" fill="#000000" fill-rule="nonzero" fill-opacity="1" /><path clip-path="url(#clip770)" d="M1140.21 1454.1 Q1136.6 1454.1 1134.77 1457.66 Q1132.96 1461.2 1132.96 1468.33 Q1132.96 1475.44 1134.77 1479.01 Q1136.6 1482.55 1140.21 1482.55 Q1143.84 1482.55 1145.65 1479.01 Q1147.48 1475.44 1147.48 1468.33 Q1147.48 1461.2 1145.65 1457.66 Q1143.84 1454.1 1140.21 1454.1 M1140.21 1450.39 Q1146.02 1450.39 1149.08 1455 Q1152.15 1459.58 1152.15 1468.33 Q1152.15 1477.06 1149.08 1481.67 Q1146.02 1486.25 1140.21 1486.25 Q1134.4 1486.25 1131.32 1481.67 Q1128.27 1477.06 1128.27 1468.33 Q1128.27 1459.58 1131.32 1455 Q1134.4 1450.39 1140.21 1450.39 Z" fill="#000000" fill-rule="nonzero" fill-opacity="1" /><path clip-path="url(#clip770)" d="M1335.07 1481.64 L1342.71 1481.64 L1342.71 1455.28 L1334.4 1456.95 L1334.4 1452.69 L1342.66 1451.02 L1347.34 1451.02 L1347.34 1481.64 L1354.98 1481.64 L1354.98 1485.58 L1335.07 1485.58 L1335.07 1481.64 Z" fill="#000000" fill-rule="nonzero" fill-opacity="1" /><path clip-path="url(#clip770)" d="M1368.45 1481.64 L1384.77 1481.64 L1384.77 1485.58 L1362.82 1485.58 L1362.82 1481.64 Q1365.49 1478.89 1370.07 1474.26 Q1374.68 1469.61 1375.86 1468.27 Q1378.1 1465.74 1378.98 1464.01 Q1379.88 1462.25 1379.88 1460.56 Q1379.88 1457.8 1377.94 1456.07 Q1376.02 1454.33 1372.92 1454.33 Q1370.72 1454.33 1368.26 1455.09 Q1365.83 1455.86 1363.06 1457.41 L1363.06 1452.69 Q1365.88 1451.55 1368.33 1450.97 Q1370.79 1450.39 1372.82 1450.39 Q1378.19 1450.39 1381.39 1453.08 Q1384.58 1455.77 1384.58 1460.26 Q1384.58 1462.39 1383.77 1464.31 Q1382.99 1466.2 1380.88 1468.8 Q1380.3 1469.47 1377.2 1472.69 Q1374.1 1475.88 1368.45 1481.64 Z" fill="#000000" fill-rule="nonzero" fill-opacity="1" /><path clip-path="url(#clip770)" d="M1567.44 1481.64 L1575.08 1481.64 L1575.08 1455.28 L1566.77 1456.95 L1566.77 1452.69 L1575.03 1451.02 L1579.71 1451.02 L1579.71 1481.64 L1587.35 1481.64 L1587.35 1485.58 L1567.44 1485.58 L1567.44 1481.64 Z" fill="#000000" fill-rule="nonzero" fill-opacity="1" /><path clip-path="url(#clip770)" d="M1609.64 1455.09 L1597.83 1473.54 L1609.64 1473.54 L1609.64 1455.09 M1608.41 1451.02 L1614.29 1451.02 L1614.29 1473.54 L1619.22 1473.54 L1619.22 1477.43 L1614.29 1477.43 L1614.29 1485.58 L1609.64 1485.58 L1609.64 1477.43 L1594.04 1477.43 L1594.04 1472.92 L1608.41 1451.02 Z" fill="#000000" fill-rule="nonzero" fill-opacity="1" /><path clip-path="url(#clip770)" d="M1801.02 1481.64 L1808.65 1481.64 L1808.65 1455.28 L1800.34 1456.95 L1800.34 1452.69 L1808.61 1451.02 L1813.28 1451.02 L1813.28 1481.64 L1820.92 1481.64 L1820.92 1485.58 L1801.02 1485.58 L1801.02 1481.64 Z" fill="#000000" fill-rule="nonzero" fill-opacity="1" /><path clip-path="url(#clip770)" d="M1840.95 1466.44 Q1837.8 1466.44 1835.95 1468.59 Q1834.12 1470.74 1834.12 1474.49 Q1834.12 1478.22 1835.95 1480.39 Q1837.8 1482.55 1840.95 1482.55 Q1844.09 1482.55 1845.92 1480.39 Q1847.78 1478.22 1847.78 1474.49 Q1847.78 1470.74 1845.92 1468.59 Q1844.09 1466.44 1840.95 1466.44 M1850.23 1451.78 L1850.23 1456.04 Q1848.47 1455.21 1846.66 1454.77 Q1844.88 1454.33 1843.12 1454.33 Q1838.49 1454.33 1836.04 1457.45 Q1833.61 1460.58 1833.26 1466.9 Q1834.63 1464.89 1836.69 1463.82 Q1838.75 1462.73 1841.22 1462.73 Q1846.43 1462.73 1849.44 1465.9 Q1852.47 1469.05 1852.47 1474.49 Q1852.47 1479.82 1849.33 1483.03 Q1846.18 1486.25 1840.95 1486.25 Q1834.95 1486.25 1831.78 1481.67 Q1828.61 1477.06 1828.61 1468.33 Q1828.61 1460.14 1832.5 1455.28 Q1836.39 1450.39 1842.94 1450.39 Q1844.7 1450.39 1846.48 1450.74 Q1848.28 1451.09 1850.23 1451.78 Z" fill="#000000" fill-rule="nonzero" fill-opacity="1" /><path clip-path="url(#clip770)" d="M2034.56 1481.64 L2042.2 1481.64 L2042.2 1455.28 L2033.89 1456.95 L2033.89 1452.69 L2042.15 1451.02 L2046.82 1451.02 L2046.82 1481.64 L2054.46 1481.64 L2054.46 1485.58 L2034.56 1485.58 L2034.56 1481.64 Z" fill="#000000" fill-rule="nonzero" fill-opacity="1" /><path clip-path="url(#clip770)" d="M2073.91 1469.17 Q2070.57 1469.17 2068.65 1470.95 Q2066.76 1472.73 2066.76 1475.86 Q2066.76 1478.98 2068.65 1480.77 Q2070.57 1482.55 2073.91 1482.55 Q2077.24 1482.55 2079.16 1480.77 Q2081.08 1478.96 2081.08 1475.86 Q2081.08 1472.73 2079.16 1470.95 Q2077.26 1469.17 2073.91 1469.17 M2069.23 1467.18 Q2066.22 1466.44 2064.53 1464.38 Q2062.87 1462.32 2062.87 1459.35 Q2062.87 1455.21 2065.81 1452.8 Q2068.77 1450.39 2073.91 1450.39 Q2079.07 1450.39 2082.01 1452.8 Q2084.95 1455.21 2084.95 1459.35 Q2084.95 1462.32 2083.26 1464.38 Q2081.59 1466.44 2078.61 1467.18 Q2081.99 1467.96 2083.86 1470.26 Q2085.76 1472.55 2085.76 1475.86 Q2085.76 1480.88 2082.68 1483.57 Q2079.63 1486.25 2073.91 1486.25 Q2068.19 1486.25 2065.11 1483.57 Q2062.06 1480.88 2062.06 1475.86 Q2062.06 1472.55 2063.95 1470.26 Q2065.85 1467.96 2069.23 1467.18 M2067.52 1459.79 Q2067.52 1462.48 2069.19 1463.98 Q2070.88 1465.49 2073.91 1465.49 Q2076.92 1465.49 2078.61 1463.98 Q2080.32 1462.48 2080.32 1459.79 Q2080.32 1457.11 2078.61 1455.6 Q2076.92 1454.1 2073.91 1454.1 Q2070.88 1454.1 2069.19 1455.6 Q2067.52 1457.11 2067.52 1459.79 Z" fill="#000000" fill-rule="nonzero" fill-opacity="1" /><path clip-path="url(#clip770)" d="M2272.01 1481.64 L2288.33 1481.64 L2288.33 1485.58 L2266.38 1485.58 L2266.38 1481.64 Q2269.05 1478.89 2273.63 1474.26 Q2278.24 1469.61 2279.42 1468.27 Q2281.66 1465.74 2282.54 1464.01 Q2283.44 1462.25 2283.44 1460.56 Q2283.44 1457.8 2281.5 1456.07 Q2279.58 1454.33 2276.48 1454.33 Q2274.28 1454.33 2271.82 1455.09 Q2269.39 1455.86 2266.62 1457.41 L2266.62 1452.69 Q2269.44 1451.55 2271.89 1450.97 Q2274.35 1450.39 2276.38 1450.39 Q2281.75 1450.39 2284.95 1453.08 Q2288.14 1455.77 2288.14 1460.26 Q2288.14 1462.39 2287.33 1464.31 Q2286.55 1466.2 2284.44 1468.8 Q2283.86 1469.47 2280.76 1472.69 Q2277.66 1475.88 2272.01 1481.64 Z" fill="#000000" fill-rule="nonzero" fill-opacity="1" /><path clip-path="url(#clip770)" d="M2308.14 1454.1 Q2304.53 1454.1 2302.7 1457.66 Q2300.9 1461.2 2300.9 1468.33 Q2300.9 1475.44 2302.7 1479.01 Q2304.53 1482.55 2308.14 1482.55 Q2311.78 1482.55 2313.58 1479.01 Q2315.41 1475.44 2315.41 1468.33 Q2315.41 1461.2 2313.58 1457.66 Q2311.78 1454.1 2308.14 1454.1 M2308.14 1450.39 Q2313.95 1450.39 2317.01 1455 Q2320.09 1459.58 2320.09 1468.33 Q2320.09 1477.06 2317.01 1481.67 Q2313.95 1486.25 2308.14 1486.25 Q2302.33 1486.25 2299.25 1481.67 Q2296.2 1477.06 2296.2 1468.33 Q2296.2 1459.58 2299.25 1455 Q2302.33 1450.39 2308.14 1450.39 Z" fill="#000000" fill-rule="nonzero" fill-opacity="1" /><path clip-path="url(#clip770)" d="M1311.3 1537.81 L1311.3 1518.52 L1317.16 1518.52 L1317.16 1568.04 L1311.3 1568.04 L1311.3 1562.7 Q1309.46 1565.88 1306.62 1567.44 Q1303.82 1568.97 1299.88 1568.97 Q1293.42 1568.97 1289.34 1563.81 Q1285.3 1558.65 1285.3 1550.25 Q1285.3 1541.85 1289.34 1536.69 Q1293.42 1531.54 1299.88 1531.54 Q1303.82 1531.54 1306.62 1533.1 Q1309.46 1534.62 1311.3 1537.81 M1291.35 1550.25 Q1291.35 1556.71 1293.99 1560.4 Q1296.66 1564.07 1301.31 1564.07 Q1305.96 1564.07 1308.63 1560.4 Q1311.3 1556.71 1311.3 1550.25 Q1311.3 1543.79 1308.63 1540.13 Q1305.96 1536.44 1301.31 1536.44 Q1296.66 1536.44 1293.99 1540.13 Q1291.35 1543.79 1291.35 1550.25 Z" fill="#000000" fill-rule="nonzero" fill-opacity="1" /><polyline clip-path="url(#clip770)" style="stroke:#000000; stroke-linecap:round; stroke-linejoin:round; stroke-width:4; stroke-opacity:1; fill:none" points="249.704,1423.18 249.704,47.2441 "/>
<polyline clip-path="url(#clip770)" style="stroke:#000000; stroke-linecap:round; stroke-linejoin:round; stroke-width:4; stroke-opacity:1; fill:none" points="249.704,1192.46 268.602,1192.46 "/>
<polyline clip-path="url(#clip770)" style="stroke:#000000; stroke-linecap:round; stroke-linejoin:round; stroke-width:4; stroke-opacity:1; fill:none" points="249.704,959.209 268.602,959.209 "/>
<polyline clip-path="url(#clip770)" style="stroke:#000000; stroke-linecap:round; stroke-linejoin:round; stroke-width:4; stroke-opacity:1; fill:none" points="249.704,725.954 268.602,725.954 "/>
<polyline clip-path="url(#clip770)" style="stroke:#000000; stroke-linecap:round; stroke-linejoin:round; stroke-width:4; stroke-opacity:1; fill:none" points="249.704,492.699 268.602,492.699 "/>
<polyline clip-path="url(#clip770)" style="stroke:#000000; stroke-linecap:round; stroke-linejoin:round; stroke-width:4; stroke-opacity:1; fill:none" points="249.704,259.444 268.602,259.444 "/>
<path clip-path="url(#clip770)" d="M127.015 1178.26 Q123.404 1178.26 121.575 1181.83 Q119.769 1185.37 119.769 1192.5 Q119.769 1199.61 121.575 1203.17 Q123.404 1206.71 127.015 1206.71 Q130.649 1206.71 132.455 1203.17 Q134.283 1199.61 134.283 1192.5 Q134.283 1185.37 132.455 1181.83 Q130.649 1178.26 127.015 1178.26 M127.015 1174.56 Q132.825 1174.56 135.88 1179.17 Q138.959 1183.75 138.959 1192.5 Q138.959 1201.23 135.88 1205.83 Q132.825 1210.42 127.015 1210.42 Q121.205 1210.42 118.126 1205.83 Q115.07 1201.23 115.07 1192.5 Q115.07 1183.75 118.126 1179.17 Q121.205 1174.56 127.015 1174.56 Z" fill="#000000" fill-rule="nonzero" fill-opacity="1" /><path clip-path="url(#clip770)" d="M147.177 1203.86 L152.061 1203.86 L152.061 1209.74 L147.177 1209.74 L147.177 1203.86 Z" fill="#000000" fill-rule="nonzero" fill-opacity="1" /><path clip-path="url(#clip770)" d="M172.246 1178.26 Q168.635 1178.26 166.806 1181.83 Q165.001 1185.37 165.001 1192.5 Q165.001 1199.61 166.806 1203.17 Q168.635 1206.71 172.246 1206.71 Q175.88 1206.71 177.686 1203.17 Q179.514 1199.61 179.514 1192.5 Q179.514 1185.37 177.686 1181.83 Q175.88 1178.26 172.246 1178.26 M172.246 1174.56 Q178.056 1174.56 181.112 1179.17 Q184.19 1183.75 184.19 1192.5 Q184.19 1201.23 181.112 1205.83 Q178.056 1210.42 172.246 1210.42 Q166.436 1210.42 163.357 1205.83 Q160.302 1201.23 160.302 1192.5 Q160.302 1183.75 163.357 1179.17 Q166.436 1174.56 172.246 1174.56 Z" fill="#000000" fill-rule="nonzero" fill-opacity="1" /><path clip-path="url(#clip770)" d="M206.574 1191.11 Q209.931 1191.83 211.806 1194.1 Q213.704 1196.36 213.704 1199.7 Q213.704 1204.81 210.186 1207.61 Q206.667 1210.42 200.186 1210.42 Q198.01 1210.42 195.695 1209.98 Q193.403 1209.56 190.95 1208.7 L190.95 1204.19 Q192.894 1205.32 195.209 1205.9 Q197.524 1206.48 200.047 1206.48 Q204.445 1206.48 206.737 1204.74 Q209.051 1203.01 209.051 1199.7 Q209.051 1196.64 206.899 1194.93 Q204.769 1193.19 200.95 1193.19 L196.922 1193.19 L196.922 1189.35 L201.135 1189.35 Q204.584 1189.35 206.412 1187.99 Q208.241 1186.6 208.241 1184 Q208.241 1181.34 206.343 1179.93 Q204.468 1178.49 200.95 1178.49 Q199.028 1178.49 196.829 1178.91 Q194.63 1179.33 191.991 1180.21 L191.991 1176.04 Q194.653 1175.3 196.968 1174.93 Q199.306 1174.56 201.366 1174.56 Q206.69 1174.56 209.792 1176.99 Q212.894 1179.4 212.894 1183.52 Q212.894 1186.39 211.25 1188.38 Q209.607 1190.35 206.574 1191.11 Z" fill="#000000" fill-rule="nonzero" fill-opacity="1" /><path clip-path="url(#clip770)" d="M126.205 945.008 Q122.593 945.008 120.765 948.573 Q118.959 952.115 118.959 959.244 Q118.959 966.351 120.765 969.915 Q122.593 973.457 126.205 973.457 Q129.839 973.457 131.644 969.915 Q133.473 966.351 133.473 959.244 Q133.473 952.115 131.644 948.573 Q129.839 945.008 126.205 945.008 M126.205 941.304 Q132.015 941.304 135.07 945.911 Q138.149 950.494 138.149 959.244 Q138.149 967.971 135.07 972.577 Q132.015 977.161 126.205 977.161 Q120.394 977.161 117.316 972.577 Q114.26 967.971 114.26 959.244 Q114.26 950.494 117.316 945.911 Q120.394 941.304 126.205 941.304 Z" fill="#000000" fill-rule="nonzero" fill-opacity="1" /><path clip-path="url(#clip770)" d="M146.366 970.61 L151.251 970.61 L151.251 976.489 L146.366 976.489 L146.366 970.61 Z" fill="#000000" fill-rule="nonzero" fill-opacity="1" /><path clip-path="url(#clip770)" d="M171.436 945.008 Q167.825 945.008 165.996 948.573 Q164.19 952.115 164.19 959.244 Q164.19 966.351 165.996 969.915 Q167.825 973.457 171.436 973.457 Q175.07 973.457 176.876 969.915 Q178.704 966.351 178.704 959.244 Q178.704 952.115 176.876 948.573 Q175.07 945.008 171.436 945.008 M171.436 941.304 Q177.246 941.304 180.301 945.911 Q183.38 950.494 183.38 959.244 Q183.38 967.971 180.301 972.577 Q177.246 977.161 171.436 977.161 Q165.626 977.161 162.547 972.577 Q159.491 967.971 159.491 959.244 Q159.491 950.494 162.547 945.911 Q165.626 941.304 171.436 941.304 Z" fill="#000000" fill-rule="nonzero" fill-opacity="1" /><path clip-path="url(#clip770)" d="M202.176 957.346 Q199.028 957.346 197.176 959.499 Q195.348 961.652 195.348 965.402 Q195.348 969.128 197.176 971.304 Q199.028 973.457 202.176 973.457 Q205.324 973.457 207.153 971.304 Q209.005 969.128 209.005 965.402 Q209.005 961.652 207.153 959.499 Q205.324 957.346 202.176 957.346 M211.459 942.693 L211.459 946.953 Q209.699 946.119 207.894 945.679 Q206.112 945.24 204.352 945.24 Q199.723 945.24 197.269 948.365 Q194.838 951.49 194.491 957.809 Q195.857 955.795 197.917 954.73 Q199.977 953.642 202.454 953.642 Q207.662 953.642 210.672 956.814 Q213.704 959.962 213.704 965.402 Q213.704 970.726 210.556 973.943 Q207.408 977.161 202.176 977.161 Q196.181 977.161 193.01 972.577 Q189.838 967.971 189.838 959.244 Q189.838 951.05 193.727 946.189 Q197.616 941.304 204.167 941.304 Q205.926 941.304 207.709 941.652 Q209.514 941.999 211.459 942.693 Z" fill="#000000" fill-rule="nonzero" fill-opacity="1" /><path clip-path="url(#clip770)" d="M126.552 711.753 Q122.941 711.753 121.112 715.318 Q119.306 718.859 119.306 725.989 Q119.306 733.095 121.112 736.66 Q122.941 740.202 126.552 740.202 Q130.186 740.202 131.992 736.66 Q133.82 733.095 133.82 725.989 Q133.82 718.859 131.992 715.318 Q130.186 711.753 126.552 711.753 M126.552 708.049 Q132.362 708.049 135.417 712.656 Q138.496 717.239 138.496 725.989 Q138.496 734.716 135.417 739.322 Q132.362 743.906 126.552 743.906 Q120.742 743.906 117.663 739.322 Q114.607 734.716 114.607 725.989 Q114.607 717.239 117.663 712.656 Q120.742 708.049 126.552 708.049 Z" fill="#000000" fill-rule="nonzero" fill-opacity="1" /><path clip-path="url(#clip770)" d="M146.714 737.355 L151.598 737.355 L151.598 743.234 L146.714 743.234 L146.714 737.355 Z" fill="#000000" fill-rule="nonzero" fill-opacity="1" /><path clip-path="url(#clip770)" d="M171.783 711.753 Q168.172 711.753 166.343 715.318 Q164.538 718.859 164.538 725.989 Q164.538 733.095 166.343 736.66 Q168.172 740.202 171.783 740.202 Q175.417 740.202 177.223 736.66 Q179.051 733.095 179.051 725.989 Q179.051 718.859 177.223 715.318 Q175.417 711.753 171.783 711.753 M171.783 708.049 Q177.593 708.049 180.649 712.656 Q183.727 717.239 183.727 725.989 Q183.727 734.716 180.649 739.322 Q177.593 743.906 171.783 743.906 Q165.973 743.906 162.894 739.322 Q159.839 734.716 159.839 725.989 Q159.839 717.239 162.894 712.656 Q165.973 708.049 171.783 708.049 Z" fill="#000000" fill-rule="nonzero" fill-opacity="1" /><path clip-path="url(#clip770)" d="M192.084 742.517 L192.084 738.257 Q193.843 739.091 195.649 739.531 Q197.454 739.97 199.19 739.97 Q203.82 739.97 206.25 736.869 Q208.704 733.744 209.051 727.401 Q207.709 729.392 205.649 730.457 Q203.588 731.521 201.088 731.521 Q195.903 731.521 192.871 728.396 Q189.862 725.248 189.862 719.808 Q189.862 714.484 193.01 711.267 Q196.158 708.049 201.389 708.049 Q207.385 708.049 210.533 712.656 Q213.704 717.239 213.704 725.989 Q213.704 734.16 209.815 739.044 Q205.949 743.906 199.399 743.906 Q197.639 743.906 195.834 743.558 Q194.028 743.211 192.084 742.517 M201.389 727.864 Q204.537 727.864 206.366 725.711 Q208.218 723.558 208.218 719.808 Q208.218 716.082 206.366 713.929 Q204.537 711.753 201.389 711.753 Q198.241 711.753 196.389 713.929 Q194.561 716.082 194.561 719.808 Q194.561 723.558 196.389 725.711 Q198.241 727.864 201.389 727.864 Z" fill="#000000" fill-rule="nonzero" fill-opacity="1" /><path clip-path="url(#clip770)" d="M127.964 478.498 Q124.353 478.498 122.524 482.063 Q120.718 485.604 120.718 492.734 Q120.718 499.84 122.524 503.405 Q124.353 506.947 127.964 506.947 Q131.598 506.947 133.404 503.405 Q135.232 499.84 135.232 492.734 Q135.232 485.604 133.404 482.063 Q131.598 478.498 127.964 478.498 M127.964 474.794 Q133.774 474.794 136.829 479.401 Q139.908 483.984 139.908 492.734 Q139.908 501.461 136.829 506.067 Q133.774 510.65 127.964 510.65 Q122.154 510.65 119.075 506.067 Q116.019 501.461 116.019 492.734 Q116.019 483.984 119.075 479.401 Q122.154 474.794 127.964 474.794 Z" fill="#000000" fill-rule="nonzero" fill-opacity="1" /><path clip-path="url(#clip770)" d="M148.126 504.1 L153.01 504.1 L153.01 509.979 L148.126 509.979 L148.126 504.1 Z" fill="#000000" fill-rule="nonzero" fill-opacity="1" /><path clip-path="url(#clip770)" d="M164.005 506.044 L171.644 506.044 L171.644 479.678 L163.334 481.345 L163.334 477.086 L171.598 475.419 L176.274 475.419 L176.274 506.044 L183.913 506.044 L183.913 509.979 L164.005 509.979 L164.005 506.044 Z" fill="#000000" fill-rule="nonzero" fill-opacity="1" /><path clip-path="url(#clip770)" d="M197.385 506.044 L213.704 506.044 L213.704 509.979 L191.76 509.979 L191.76 506.044 Q194.422 503.289 199.005 498.66 Q203.612 494.007 204.792 492.664 Q207.037 490.141 207.917 488.405 Q208.82 486.646 208.82 484.956 Q208.82 482.202 206.875 480.465 Q204.954 478.729 201.852 478.729 Q199.653 478.729 197.2 479.493 Q194.769 480.257 191.991 481.808 L191.991 477.086 Q194.815 475.952 197.269 475.373 Q199.723 474.794 201.76 474.794 Q207.13 474.794 210.324 477.479 Q213.519 480.164 213.519 484.655 Q213.519 486.785 212.709 488.706 Q211.922 490.604 209.815 493.197 Q209.237 493.868 206.135 497.086 Q203.033 500.28 197.385 506.044 Z" fill="#000000" fill-rule="nonzero" fill-opacity="1" /><path clip-path="url(#clip770)" d="M127.362 245.243 Q123.751 245.243 121.922 248.808 Q120.117 252.349 120.117 259.479 Q120.117 266.585 121.922 270.15 Q123.751 273.692 127.362 273.692 Q130.996 273.692 132.802 270.15 Q134.63 266.585 134.63 259.479 Q134.63 252.349 132.802 248.808 Q130.996 245.243 127.362 245.243 M127.362 241.539 Q133.172 241.539 136.228 246.145 Q139.306 250.729 139.306 259.479 Q139.306 268.206 136.228 272.812 Q133.172 277.395 127.362 277.395 Q121.552 277.395 118.473 272.812 Q115.418 268.206 115.418 259.479 Q115.418 250.729 118.473 246.145 Q121.552 241.539 127.362 241.539 Z" fill="#000000" fill-rule="nonzero" fill-opacity="1" /><path clip-path="url(#clip770)" d="M147.524 270.844 L152.408 270.844 L152.408 276.724 L147.524 276.724 L147.524 270.844 Z" fill="#000000" fill-rule="nonzero" fill-opacity="1" /><path clip-path="url(#clip770)" d="M163.403 272.789 L171.042 272.789 L171.042 246.423 L162.732 248.09 L162.732 243.831 L170.996 242.164 L175.672 242.164 L175.672 272.789 L183.311 272.789 L183.311 276.724 L163.403 276.724 L163.403 272.789 Z" fill="#000000" fill-rule="nonzero" fill-opacity="1" /><path clip-path="url(#clip770)" d="M192.801 242.164 L211.158 242.164 L211.158 246.099 L197.084 246.099 L197.084 254.571 Q198.102 254.224 199.121 254.062 Q200.139 253.877 201.158 253.877 Q206.945 253.877 210.324 257.048 Q213.704 260.219 213.704 265.636 Q213.704 271.215 210.232 274.317 Q206.76 277.395 200.44 277.395 Q198.264 277.395 195.996 277.025 Q193.75 276.655 191.343 275.914 L191.343 271.215 Q193.426 272.349 195.649 272.905 Q197.871 273.46 200.348 273.46 Q204.352 273.46 206.69 271.354 Q209.028 269.247 209.028 265.636 Q209.028 262.025 206.69 259.919 Q204.352 257.812 200.348 257.812 Q198.473 257.812 196.598 258.229 Q194.746 258.645 192.801 259.525 L192.801 242.164 Z" fill="#000000" fill-rule="nonzero" fill-opacity="1" /><path clip-path="url(#clip770)" d="M63.0175 1186.41 L57.161 1186.41 Q58.3069 1183.99 58.9116 1181.51 Q59.5163 1179.03 59.5163 1176.64 Q59.5163 1170.28 55.2513 1166.93 Q50.9545 1163.56 42.2334 1163.08 Q44.9707 1164.93 46.4348 1167.76 Q47.8989 1170.59 47.8989 1174.03 Q47.8989 1181.16 43.6021 1185.33 Q39.2734 1189.47 31.7937 1189.47 Q24.4731 1189.47 20.049 1185.14 Q15.6248 1180.81 15.6248 1173.62 Q15.6248 1165.37 21.9587 1161.05 Q28.2607 1156.69 40.2919 1156.69 Q51.5274 1156.69 58.2432 1162.03 Q64.9272 1167.35 64.9272 1176.36 Q64.9272 1178.77 64.4498 1181.26 Q63.9723 1183.74 63.0175 1186.41 M42.87 1173.62 Q42.87 1169.29 39.91 1166.78 Q36.9499 1164.23 31.7937 1164.23 Q26.6693 1164.23 23.7092 1166.78 Q20.7174 1169.29 20.7174 1173.62 Q20.7174 1177.95 23.7092 1180.49 Q26.6693 1183.01 31.7937 1183.01 Q36.9499 1183.01 39.91 1180.49 Q42.87 1177.95 42.87 1173.62 Z" fill="#000000" fill-rule="nonzero" fill-opacity="1" /><path clip-path="url(#clip770)" d="M63.0175 1144.94 L57.161 1144.94 Q58.3069 1142.52 58.9116 1140.04 Q59.5163 1137.56 59.5163 1135.17 Q59.5163 1128.8 55.2513 1125.46 Q50.9545 1122.09 42.2334 1121.61 Q44.9707 1123.46 46.4348 1126.29 Q47.8989 1129.12 47.8989 1132.56 Q47.8989 1139.69 43.6021 1143.86 Q39.2734 1148 31.7937 1148 Q24.4731 1148 20.049 1143.67 Q15.6248 1139.34 15.6248 1132.15 Q15.6248 1123.9 21.9587 1119.57 Q28.2607 1115.21 40.2919 1115.21 Q51.5274 1115.21 58.2432 1120.56 Q64.9272 1125.88 64.9272 1134.88 Q64.9272 1137.3 64.4498 1139.78 Q63.9723 1142.27 63.0175 1144.94 M42.87 1132.15 Q42.87 1127.82 39.91 1125.3 Q36.9499 1122.76 31.7937 1122.76 Q26.6693 1122.76 23.7092 1125.3 Q20.7174 1127.82 20.7174 1132.15 Q20.7174 1136.47 23.7092 1139.02 Q26.6693 1141.54 31.7937 1141.54 Q36.9499 1141.54 39.91 1139.02 Q42.87 1136.47 42.87 1132.15 Z" fill="#000000" fill-rule="nonzero" fill-opacity="1" /><path clip-path="url(#clip770)" d="M18.2347 1098.69 L28.3562 1098.69 L28.3562 1086.63 L32.9077 1086.63 L32.9077 1098.69 L52.2594 1098.69 Q56.6199 1098.69 57.8613 1097.52 Q59.1026 1096.31 59.1026 1092.65 L59.1026 1086.63 L64.0042 1086.63 L64.0042 1092.65 Q64.0042 1099.43 61.4897 1102 Q58.9434 1104.58 52.2594 1104.58 L32.9077 1104.58 L32.9077 1108.88 L28.3562 1108.88 L28.3562 1104.58 L18.2347 1104.58 L18.2347 1098.69 Z" fill="#000000" fill-rule="nonzero" fill-opacity="1" /><path clip-path="url(#clip770)" d="M42.4881 1049.3 L64.0042 1049.3 L64.0042 1055.15 L42.679 1055.15 Q37.6183 1055.15 35.1038 1057.13 Q32.5894 1059.1 32.5894 1063.05 Q32.5894 1067.79 35.6131 1070.53 Q38.6368 1073.26 43.8567 1073.26 L64.0042 1073.26 L64.0042 1079.15 L14.479 1079.15 L14.479 1073.26 L33.8944 1073.26 Q30.6797 1071.16 29.0883 1068.33 Q27.4968 1065.46 27.4968 1061.74 Q27.4968 1055.6 31.3163 1052.45 Q35.1038 1049.3 42.4881 1049.3 Z" fill="#000000" fill-rule="nonzero" fill-opacity="1" /><path clip-path="url(#clip770)" d="M21.7677 1010.21 L39.6235 1010.21 L39.6235 1002.13 Q39.6235 997.638 37.3 995.187 Q34.9765 992.737 30.6797 992.737 Q26.4147 992.737 24.0912 995.187 Q21.7677 997.638 21.7677 1002.13 L21.7677 1010.21 M16.4842 1016.64 L16.4842 1002.13 Q16.4842 994.137 20.1126 990.063 Q23.7092 985.957 30.6797 985.957 Q37.7138 985.957 41.3104 990.063 Q44.907 994.137 44.907 1002.13 L44.907 1010.21 L64.0042 1010.21 L64.0042 1016.64 L16.4842 1016.64 Z" fill="#000000" fill-rule="nonzero" fill-opacity="1" /><path clip-path="url(#clip770)" d="M44.7161 949.418 L47.5806 949.418 L47.5806 976.345 Q53.6281 975.963 56.8109 972.716 Q59.9619 969.438 59.9619 963.614 Q59.9619 960.24 59.1344 957.089 Q58.3069 953.906 56.6518 950.787 L62.1899 950.787 Q63.5267 953.938 64.227 957.248 Q64.9272 960.558 64.9272 963.964 Q64.9272 972.494 59.9619 977.491 Q54.9967 982.456 46.5303 982.456 Q37.7774 982.456 32.6531 977.745 Q27.4968 973.003 27.4968 964.982 Q27.4968 957.789 32.1438 953.619 Q36.7589 949.418 44.7161 949.418 M42.9973 955.274 Q38.1912 955.338 35.3266 957.98 Q32.4621 960.59 32.4621 964.918 Q32.4621 969.82 35.2312 972.78 Q38.0002 975.708 43.0292 976.154 L42.9973 955.274 Z" fill="#000000" fill-rule="nonzero" fill-opacity="1" /><path clip-path="url(#clip770)" d="M33.8307 919.149 Q33.2578 920.136 33.0032 921.313 Q32.7167 922.459 32.7167 923.86 Q32.7167 928.825 35.9632 931.499 Q39.1779 934.14 45.2253 934.14 L64.0042 934.14 L64.0042 940.029 L28.3562 940.029 L28.3562 934.14 L33.8944 934.14 Q30.6479 932.294 29.0883 929.334 Q27.4968 926.374 27.4968 922.141 Q27.4968 921.536 27.5923 920.804 Q27.656 920.072 27.8151 919.181 L33.8307 919.149 Z" fill="#000000" fill-rule="nonzero" fill-opacity="1" /><path clip-path="url(#clip770)" d="M29.7248 888.785 L35.1993 888.785 Q33.8307 891.267 33.1623 893.782 Q32.4621 896.264 32.4621 898.811 Q32.4621 904.508 36.0905 907.659 Q39.6872 910.81 46.212 910.81 Q52.7369 910.81 56.3653 907.659 Q59.9619 904.508 59.9619 898.811 Q59.9619 896.264 59.2935 893.782 Q58.5933 891.267 57.2247 888.785 L62.6355 888.785 Q63.7814 891.235 64.3543 893.877 Q64.9272 896.487 64.9272 899.447 Q64.9272 907.5 59.8664 912.242 Q54.8057 916.985 46.212 916.985 Q37.491 916.985 32.4939 912.21 Q27.4968 907.404 27.4968 899.065 Q27.4968 896.36 28.0697 893.782 Q28.6108 891.204 29.7248 888.785 Z" fill="#000000" fill-rule="nonzero" fill-opacity="1" /><path clip-path="url(#clip770)" d="M44.7161 848.108 L47.5806 848.108 L47.5806 875.035 Q53.6281 874.653 56.8109 871.406 Q59.9619 868.128 59.9619 862.303 Q59.9619 858.929 59.1344 855.778 Q58.3069 852.596 56.6518 849.476 L62.1899 849.476 Q63.5267 852.627 64.227 855.938 Q64.9272 859.248 64.9272 862.653 Q64.9272 871.183 59.9619 876.181 Q54.9967 881.146 46.5303 881.146 Q37.7774 881.146 32.6531 876.435 Q27.4968 871.693 27.4968 863.672 Q27.4968 856.479 32.1438 852.309 Q36.7589 848.108 44.7161 848.108 M42.9973 853.964 Q38.1912 854.028 35.3266 856.67 Q32.4621 859.28 32.4621 863.608 Q32.4621 868.51 35.2312 871.47 Q38.0002 874.398 43.0292 874.844 L42.9973 853.964 Z" fill="#000000" fill-rule="nonzero" fill-opacity="1" /><path clip-path="url(#clip770)" d="M42.4881 808.863 L64.0042 808.863 L64.0042 814.72 L42.679 814.72 Q37.6183 814.72 35.1038 816.693 Q32.5894 818.666 32.5894 822.613 Q32.5894 827.356 35.6131 830.093 Q38.6368 832.83 43.8567 832.83 L64.0042 832.83 L64.0042 838.718 L28.3562 838.718 L28.3562 832.83 L33.8944 832.83 Q30.6797 830.729 29.0883 827.897 Q27.4968 825.032 27.4968 821.308 Q27.4968 815.165 31.3163 812.014 Q35.1038 808.863 42.4881 808.863 Z" fill="#000000" fill-rule="nonzero" fill-opacity="1" /><path clip-path="url(#clip770)" d="M18.2347 791.389 L28.3562 791.389 L28.3562 779.326 L32.9077 779.326 L32.9077 791.389 L52.2594 791.389 Q56.6199 791.389 57.8613 790.212 Q59.1026 789.002 59.1026 785.342 L59.1026 779.326 L64.0042 779.326 L64.0042 785.342 Q64.0042 792.121 61.4897 794.699 Q58.9434 797.278 52.2594 797.278 L32.9077 797.278 L32.9077 801.574 L28.3562 801.574 L28.3562 797.278 L18.2347 797.278 L18.2347 791.389 Z" fill="#000000" fill-rule="nonzero" fill-opacity="1" /><path clip-path="url(#clip770)" d="M28.3562 771.624 L28.3562 765.767 L64.0042 765.767 L64.0042 771.624 L28.3562 771.624 M14.479 771.624 L14.479 765.767 L21.895 765.767 L21.895 771.624 L14.479 771.624 Z" fill="#000000" fill-rule="nonzero" fill-opacity="1" /><path clip-path="url(#clip770)" d="M14.479 753.513 L14.479 747.657 L64.0042 747.657 L64.0042 753.513 L14.479 753.513 Z" fill="#000000" fill-rule="nonzero" fill-opacity="1" /><path clip-path="url(#clip770)" d="M44.7161 704.911 L47.5806 704.911 L47.5806 731.838 Q53.6281 731.456 56.8109 728.21 Q59.9619 724.931 59.9619 719.107 Q59.9619 715.733 59.1344 712.582 Q58.3069 709.399 56.6518 706.28 L62.1899 706.28 Q63.5267 709.431 64.227 712.741 Q64.9272 716.051 64.9272 719.457 Q64.9272 727.987 59.9619 732.984 Q54.9967 737.949 46.5303 737.949 Q37.7774 737.949 32.6531 733.239 Q27.4968 728.496 27.4968 720.475 Q27.4968 713.282 32.1438 709.113 Q36.7589 704.911 44.7161 704.911 M42.9973 710.768 Q38.1912 710.831 35.3266 713.473 Q32.4621 716.083 32.4621 720.412 Q32.4621 725.313 35.2312 728.273 Q38.0002 731.202 43.0292 731.647 L42.9973 710.768 Z" fill="#000000" fill-rule="nonzero" fill-opacity="1" /><path clip-path="url(#clip770)" d="M16.4842 674.324 L16.4842 644.278 L21.895 644.278 L21.895 667.895 L35.9632 667.895 L35.9632 645.265 L41.3741 645.265 L41.3741 667.895 L58.5933 667.895 L58.5933 643.705 L64.0042 643.705 L64.0042 674.324 L16.4842 674.324 Z" fill="#000000" fill-rule="nonzero" fill-opacity="1" /><path clip-path="url(#clip770)" d="M33.8307 612.736 Q33.2578 613.722 33.0032 614.9 Q32.7167 616.046 32.7167 617.446 Q32.7167 622.412 35.9632 625.085 Q39.1779 627.727 45.2253 627.727 L64.0042 627.727 L64.0042 633.615 L28.3562 633.615 L28.3562 627.727 L33.8944 627.727 Q30.6479 625.881 29.0883 622.921 Q27.4968 619.961 27.4968 615.728 Q27.4968 615.123 27.5923 614.391 Q27.656 613.659 27.8151 612.768 L33.8307 612.736 Z" fill="#000000" fill-rule="nonzero" fill-opacity="1" /><path clip-path="url(#clip770)" d="M33.8307 587.082 Q33.2578 588.069 33.0032 589.246 Q32.7167 590.392 32.7167 591.793 Q32.7167 596.758 35.9632 599.431 Q39.1779 602.073 45.2253 602.073 L64.0042 602.073 L64.0042 607.961 L28.3562 607.961 L28.3562 602.073 L33.8944 602.073 Q30.6479 600.227 29.0883 597.267 Q27.4968 594.307 27.4968 590.074 Q27.4968 589.469 27.5923 588.737 Q27.656 588.005 27.8151 587.114 L33.8307 587.082 Z" fill="#000000" fill-rule="nonzero" fill-opacity="1" /><path clip-path="url(#clip770)" d="M55.9197 586.095 L55.9197 579.379 L64.0042 579.379 L64.0042 586.095 L55.9197 586.095 Z" fill="#000000" fill-rule="nonzero" fill-opacity="1" /><path clip-path="url(#clip770)" d="M44.0477 540.708 Q46.403 540.485 50.2224 538.48 Q54.6466 536.124 57.1292 531.668 Q59.5482 527.308 59.58 522.597 L59.58 500.413 L64.6407 500.413 L64.6407 522.597 Q64.6407 528.708 61.4897 534.374 Q58.3387 540.008 52.7369 543.031 Q47.135 546.055 41.1831 546.055 Q35.2948 546.055 29.693 543.031 Q24.0912 540.008 20.9083 534.374 Q17.7255 528.708 17.7255 522.597 L17.7255 500.413 L22.7862 500.413 L22.7862 522.597 Q22.818 527.308 25.2688 531.668 Q27.7833 536.093 32.1756 538.48 Q35.995 540.517 38.9551 540.803 L38.9551 500.413 L44.0477 500.413 L44.0477 540.708 Z" fill="#000000" fill-rule="nonzero" fill-opacity="1" /><path clip-path="url(#clip770)" d="M14.479 468.521 L14.479 455.025 L19.0304 455.025 L19.0304 462.664 L68.0464 462.664 L68.0464 455.025 L72.5979 455.025 L72.5979 468.521 L14.479 468.521 Z" fill="#000000" fill-rule="nonzero" fill-opacity="1" /><path clip-path="url(#clip770)" d="M43.5384 445.509 L43.5384 428.353 L48.7583 428.353 L48.7583 445.509 L43.5384 445.509 Z" fill="#000000" fill-rule="nonzero" fill-opacity="1" /><path clip-path="url(#clip770)" d="M58.5933 417.086 L58.5933 406.582 L22.3406 406.582 L24.6323 418.009 L18.7758 418.009 L16.4842 406.646 L16.4842 400.217 L58.5933 400.217 L58.5933 389.713 L64.0042 389.713 L64.0042 417.086 L58.5933 417.086 Z" fill="#000000" fill-rule="nonzero" fill-opacity="1" /><path clip-path="url(#clip770)" d="M55.9197 376.059 L55.9197 369.343 L61.3942 369.343 L71.5793 374.563 L71.5793 378.669 L61.3942 376.059 L55.9197 376.059 Z" fill="#000000" fill-rule="nonzero" fill-opacity="1" /><path clip-path="url(#clip770)" d="M58.5933 334.172 L58.5933 323.669 L22.3406 323.669 L24.6323 335.095 L18.7758 335.095 L16.4842 323.733 L16.4842 317.303 L58.5933 317.303 L58.5933 306.8 L64.0042 306.8 L64.0042 334.172 L58.5933 334.172 Z" fill="#000000" fill-rule="nonzero" fill-opacity="1" /><path clip-path="url(#clip770)" d="M14.479 280.955 L72.5979 280.955 L72.5979 294.45 L68.0464 294.45 L68.0464 286.843 L19.0304 286.843 L19.0304 294.45 L14.479 294.45 L14.479 280.955 Z" fill="#000000" fill-rule="nonzero" fill-opacity="1" /><polyline clip-path="url(#clip772)" style="stroke:#8b564a; stroke-linecap:round; stroke-linejoin:round; stroke-width:8; stroke-opacity:1; fill:none" points="309.224,373.077 425.931,662.818 542.637,939.712 659.344,1047.2 776.051,1138.19 892.757,1206.42 1009.46,1244.24 1126.17,1272.66 1242.88,1299.66 1359.58,1316.83 1476.29,1330.04 1593,1343.54 1709.7,1353.13 1826.41,1362.03 1943.12,1368.68 2059.82,1373.87 2176.53,1379.05 2293.24,1384.24 "/>
<circle clip-path="url(#clip772)" cx="309.224" cy="373.077" r="14.4" fill="#8b564a" fill-rule="evenodd" fill-opacity="1" stroke="#000000" stroke-opacity="1" stroke-width="3.2"/>
<circle clip-path="url(#clip772)" cx="425.931" cy="662.818" r="14.4" fill="#8b564a" fill-rule="evenodd" fill-opacity="1" stroke="#000000" stroke-opacity="1" stroke-width="3.2"/>
<circle clip-path="url(#clip772)" cx="542.637" cy="939.712" r="14.4" fill="#8b564a" fill-rule="evenodd" fill-opacity="1" stroke="#000000" stroke-opacity="1" stroke-width="3.2"/>
<circle clip-path="url(#clip772)" cx="659.344" cy="1047.2" r="14.4" fill="#8b564a" fill-rule="evenodd" fill-opacity="1" stroke="#000000" stroke-opacity="1" stroke-width="3.2"/>
<circle clip-path="url(#clip772)" cx="776.051" cy="1138.19" r="14.4" fill="#8b564a" fill-rule="evenodd" fill-opacity="1" stroke="#000000" stroke-opacity="1" stroke-width="3.2"/>
<circle clip-path="url(#clip772)" cx="892.757" cy="1206.42" r="14.4" fill="#8b564a" fill-rule="evenodd" fill-opacity="1" stroke="#000000" stroke-opacity="1" stroke-width="3.2"/>
<circle clip-path="url(#clip772)" cx="1009.46" cy="1244.24" r="14.4" fill="#8b564a" fill-rule="evenodd" fill-opacity="1" stroke="#000000" stroke-opacity="1" stroke-width="3.2"/>
<circle clip-path="url(#clip772)" cx="1126.17" cy="1272.66" r="14.4" fill="#8b564a" fill-rule="evenodd" fill-opacity="1" stroke="#000000" stroke-opacity="1" stroke-width="3.2"/>
<circle clip-path="url(#clip772)" cx="1242.88" cy="1299.66" r="14.4" fill="#8b564a" fill-rule="evenodd" fill-opacity="1" stroke="#000000" stroke-opacity="1" stroke-width="3.2"/>
<circle clip-path="url(#clip772)" cx="1359.58" cy="1316.83" r="14.4" fill="#8b564a" fill-rule="evenodd" fill-opacity="1" stroke="#000000" stroke-opacity="1" stroke-width="3.2"/>
<circle clip-path="url(#clip772)" cx="1476.29" cy="1330.04" r="14.4" fill="#8b564a" fill-rule="evenodd" fill-opacity="1" stroke="#000000" stroke-opacity="1" stroke-width="3.2"/>
<circle clip-path="url(#clip772)" cx="1593" cy="1343.54" r="14.4" fill="#8b564a" fill-rule="evenodd" fill-opacity="1" stroke="#000000" stroke-opacity="1" stroke-width="3.2"/>
<circle clip-path="url(#clip772)" cx="1709.7" cy="1353.13" r="14.4" fill="#8b564a" fill-rule="evenodd" fill-opacity="1" stroke="#000000" stroke-opacity="1" stroke-width="3.2"/>
<circle clip-path="url(#clip772)" cx="1826.41" cy="1362.03" r="14.4" fill="#8b564a" fill-rule="evenodd" fill-opacity="1" stroke="#000000" stroke-opacity="1" stroke-width="3.2"/>
<circle clip-path="url(#clip772)" cx="1943.12" cy="1368.68" r="14.4" fill="#8b564a" fill-rule="evenodd" fill-opacity="1" stroke="#000000" stroke-opacity="1" stroke-width="3.2"/>
<circle clip-path="url(#clip772)" cx="2059.82" cy="1373.87" r="14.4" fill="#8b564a" fill-rule="evenodd" fill-opacity="1" stroke="#000000" stroke-opacity="1" stroke-width="3.2"/>
<circle clip-path="url(#clip772)" cx="2176.53" cy="1379.05" r="14.4" fill="#8b564a" fill-rule="evenodd" fill-opacity="1" stroke="#000000" stroke-opacity="1" stroke-width="3.2"/>
<circle clip-path="url(#clip772)" cx="2293.24" cy="1384.24" r="14.4" fill="#8b564a" fill-rule="evenodd" fill-opacity="1" stroke="#000000" stroke-opacity="1" stroke-width="3.2"/>
<polyline clip-path="url(#clip772)" style="stroke:#2ba02b; stroke-linecap:round; stroke-linejoin:round; stroke-width:8; stroke-opacity:1; fill:none" points="309.224,86.1857 425.931,586.776 542.637,863.205 659.344,1009.6 776.051,1107.98 892.757,1175.35 1009.46,1221.54 1126.17,1256.7 1242.88,1282.8 1359.58,1303.62 1476.29,1319.42 1593,1332.72 1709.7,1343.53 1826.41,1352.5 1943.12,1360.06 2059.82,1366.47 2176.53,1372.01 2293.24,1376.68 "/>
<circle clip-path="url(#clip772)" cx="309.224" cy="86.1857" r="14.4" fill="#2ba02b" fill-rule="evenodd" fill-opacity="1" stroke="#000000" stroke-opacity="1" stroke-width="3.2"/>
<circle clip-path="url(#clip772)" cx="425.931" cy="586.776" r="14.4" fill="#2ba02b" fill-rule="evenodd" fill-opacity="1" stroke="#000000" stroke-opacity="1" stroke-width="3.2"/>
<circle clip-path="url(#clip772)" cx="542.637" cy="863.205" r="14.4" fill="#2ba02b" fill-rule="evenodd" fill-opacity="1" stroke="#000000" stroke-opacity="1" stroke-width="3.2"/>
<circle clip-path="url(#clip772)" cx="659.344" cy="1009.6" r="14.4" fill="#2ba02b" fill-rule="evenodd" fill-opacity="1" stroke="#000000" stroke-opacity="1" stroke-width="3.2"/>
<circle clip-path="url(#clip772)" cx="776.051" cy="1107.98" r="14.4" fill="#2ba02b" fill-rule="evenodd" fill-opacity="1" stroke="#000000" stroke-opacity="1" stroke-width="3.2"/>
<circle clip-path="url(#clip772)" cx="892.757" cy="1175.35" r="14.4" fill="#2ba02b" fill-rule="evenodd" fill-opacity="1" stroke="#000000" stroke-opacity="1" stroke-width="3.2"/>
<circle clip-path="url(#clip772)" cx="1009.46" cy="1221.54" r="14.4" fill="#2ba02b" fill-rule="evenodd" fill-opacity="1" stroke="#000000" stroke-opacity="1" stroke-width="3.2"/>
<circle clip-path="url(#clip772)" cx="1126.17" cy="1256.7" r="14.4" fill="#2ba02b" fill-rule="evenodd" fill-opacity="1" stroke="#000000" stroke-opacity="1" stroke-width="3.2"/>
<circle clip-path="url(#clip772)" cx="1242.88" cy="1282.8" r="14.4" fill="#2ba02b" fill-rule="evenodd" fill-opacity="1" stroke="#000000" stroke-opacity="1" stroke-width="3.2"/>
<circle clip-path="url(#clip772)" cx="1359.58" cy="1303.62" r="14.4" fill="#2ba02b" fill-rule="evenodd" fill-opacity="1" stroke="#000000" stroke-opacity="1" stroke-width="3.2"/>
<circle clip-path="url(#clip772)" cx="1476.29" cy="1319.42" r="14.4" fill="#2ba02b" fill-rule="evenodd" fill-opacity="1" stroke="#000000" stroke-opacity="1" stroke-width="3.2"/>
<circle clip-path="url(#clip772)" cx="1593" cy="1332.72" r="14.4" fill="#2ba02b" fill-rule="evenodd" fill-opacity="1" stroke="#000000" stroke-opacity="1" stroke-width="3.2"/>
<circle clip-path="url(#clip772)" cx="1709.7" cy="1343.53" r="14.4" fill="#2ba02b" fill-rule="evenodd" fill-opacity="1" stroke="#000000" stroke-opacity="1" stroke-width="3.2"/>
<circle clip-path="url(#clip772)" cx="1826.41" cy="1352.5" r="14.4" fill="#2ba02b" fill-rule="evenodd" fill-opacity="1" stroke="#000000" stroke-opacity="1" stroke-width="3.2"/>
<circle clip-path="url(#clip772)" cx="1943.12" cy="1360.06" r="14.4" fill="#2ba02b" fill-rule="evenodd" fill-opacity="1" stroke="#000000" stroke-opacity="1" stroke-width="3.2"/>
<circle clip-path="url(#clip772)" cx="2059.82" cy="1366.47" r="14.4" fill="#2ba02b" fill-rule="evenodd" fill-opacity="1" stroke="#000000" stroke-opacity="1" stroke-width="3.2"/>
<circle clip-path="url(#clip772)" cx="2176.53" cy="1372.01" r="14.4" fill="#2ba02b" fill-rule="evenodd" fill-opacity="1" stroke="#000000" stroke-opacity="1" stroke-width="3.2"/>
<circle clip-path="url(#clip772)" cx="2293.24" cy="1376.68" r="14.4" fill="#2ba02b" fill-rule="evenodd" fill-opacity="1" stroke="#000000" stroke-opacity="1" stroke-width="3.2"/>
<path clip-path="url(#clip770)" d="M1762.33 248.629 L2282.65 248.629 L2282.65 93.1086 L1762.33 93.1086  Z" fill="#ffffff" fill-rule="evenodd" fill-opacity="1"/>
<polyline clip-path="url(#clip770)" style="stroke:#000000; stroke-linecap:round; stroke-linejoin:round; stroke-width:4; stroke-opacity:1; fill:none" points="1762.33,248.629 2282.65,248.629 2282.65,93.1086 1762.33,93.1086 1762.33,248.629 "/>
<polyline clip-path="url(#clip770)" style="stroke:#8b564a; stroke-linecap:round; stroke-linejoin:round; stroke-width:8; stroke-opacity:1; fill:none" points="1785.69,144.949 1925.9,144.949 "/>
<path clip-path="url(#clip770)" d="M1949.27 127.669 L1956.23 127.669 L1965.05 151.187 L1973.92 127.669 L1980.89 127.669 L1980.89 162.229 L1976.33 162.229 L1976.33 131.882 L1967.41 155.585 L1962.71 155.585 L1953.8 131.882 L1953.8 162.229 L1949.27 162.229 L1949.27 127.669 Z" fill="#000000" fill-rule="nonzero" fill-opacity="1" /><path clip-path="url(#clip770)" d="M2000.03 139.289 Q1996.6 139.289 1994.61 141.974 Q1992.62 144.636 1992.62 149.289 Q1992.62 153.942 1994.59 156.627 Q1996.58 159.289 2000.03 159.289 Q2003.43 159.289 2005.42 156.604 Q2007.41 153.918 2007.41 149.289 Q2007.41 144.682 2005.42 141.997 Q2003.43 139.289 2000.03 139.289 M2000.03 135.678 Q2005.58 135.678 2008.76 139.289 Q2011.93 142.9 2011.93 149.289 Q2011.93 155.655 2008.76 159.289 Q2005.58 162.9 2000.03 162.9 Q1994.45 162.9 1991.28 159.289 Q1988.13 155.655 1988.13 149.289 Q1988.13 142.9 1991.28 139.289 Q1994.45 135.678 2000.03 135.678 Z" fill="#000000" fill-rule="nonzero" fill-opacity="1" /><path clip-path="url(#clip770)" d="M2036.05 140.238 L2036.05 126.21 L2040.31 126.21 L2040.31 162.229 L2036.05 162.229 L2036.05 158.34 Q2034.7 160.655 2032.64 161.789 Q2030.61 162.9 2027.74 162.9 Q2023.04 162.9 2020.08 159.15 Q2017.14 155.4 2017.14 149.289 Q2017.14 143.178 2020.08 139.428 Q2023.04 135.678 2027.74 135.678 Q2030.61 135.678 2032.64 136.812 Q2034.7 137.923 2036.05 140.238 M2021.53 149.289 Q2021.53 153.988 2023.45 156.673 Q2025.4 159.335 2028.78 159.335 Q2032.16 159.335 2034.1 156.673 Q2036.05 153.988 2036.05 149.289 Q2036.05 144.59 2034.1 141.928 Q2032.16 139.243 2028.78 139.243 Q2025.4 139.243 2023.45 141.928 Q2021.53 144.59 2021.53 149.289 Z" fill="#000000" fill-rule="nonzero" fill-opacity="1" /><path clip-path="url(#clip770)" d="M2071.26 148.201 L2071.26 150.284 L2051.67 150.284 Q2051.95 154.682 2054.31 156.997 Q2056.7 159.289 2060.93 159.289 Q2063.39 159.289 2065.68 158.687 Q2067.99 158.085 2070.26 156.881 L2070.26 160.909 Q2067.97 161.881 2065.56 162.391 Q2063.15 162.9 2060.68 162.9 Q2054.47 162.9 2050.84 159.289 Q2047.23 155.678 2047.23 149.52 Q2047.23 143.155 2050.65 139.428 Q2054.1 135.678 2059.94 135.678 Q2065.17 135.678 2068.2 139.057 Q2071.26 142.414 2071.26 148.201 M2067 146.951 Q2066.95 143.456 2065.03 141.372 Q2063.13 139.289 2059.98 139.289 Q2056.42 139.289 2054.26 141.303 Q2052.14 143.317 2051.81 146.974 L2067 146.951 Z" fill="#000000" fill-rule="nonzero" fill-opacity="1" /><path clip-path="url(#clip770)" d="M2076.09 147.344 L2088.57 147.344 L2088.57 151.141 L2076.09 151.141 L2076.09 147.344 Z" fill="#000000" fill-rule="nonzero" fill-opacity="1" /><path clip-path="url(#clip770)" d="M2095.54 127.669 L2102.51 127.669 L2111.32 151.187 L2120.19 127.669 L2127.16 127.669 L2127.16 162.229 L2122.6 162.229 L2122.6 131.882 L2113.69 155.585 L2108.99 155.585 L2100.07 131.882 L2100.07 162.229 L2095.54 162.229 L2095.54 127.669 Z" fill="#000000" fill-rule="nonzero" fill-opacity="1" /><path clip-path="url(#clip770)" d="M2158.43 148.201 L2158.43 150.284 L2138.85 150.284 Q2139.13 154.682 2141.49 156.997 Q2143.87 159.289 2148.11 159.289 Q2150.56 159.289 2152.85 158.687 Q2155.17 158.085 2157.44 156.881 L2157.44 160.909 Q2155.14 161.881 2152.74 162.391 Q2150.33 162.9 2147.85 162.9 Q2141.65 162.9 2138.01 159.289 Q2134.4 155.678 2134.4 149.52 Q2134.4 143.155 2137.83 139.428 Q2141.28 135.678 2147.11 135.678 Q2152.34 135.678 2155.38 139.057 Q2158.43 142.414 2158.43 148.201 M2154.17 146.951 Q2154.13 143.456 2152.2 141.372 Q2150.31 139.289 2147.16 139.289 Q2143.59 139.289 2141.44 141.303 Q2139.31 143.317 2138.99 146.974 L2154.17 146.951 Z" fill="#000000" fill-rule="nonzero" fill-opacity="1" /><path clip-path="url(#clip770)" d="M2182.48 140.238 L2182.48 126.21 L2186.74 126.21 L2186.74 162.229 L2182.48 162.229 L2182.48 158.34 Q2181.14 160.655 2179.08 161.789 Q2177.04 162.9 2174.17 162.9 Q2169.47 162.9 2166.51 159.15 Q2163.57 155.4 2163.57 149.289 Q2163.57 143.178 2166.51 139.428 Q2169.47 135.678 2174.17 135.678 Q2177.04 135.678 2179.08 136.812 Q2181.14 137.923 2182.48 140.238 M2167.97 149.289 Q2167.97 153.988 2169.89 156.673 Q2171.83 159.335 2175.21 159.335 Q2178.59 159.335 2180.54 156.673 Q2182.48 153.988 2182.48 149.289 Q2182.48 144.59 2180.54 141.928 Q2178.59 139.243 2175.21 139.243 Q2171.83 139.243 2169.89 141.928 Q2167.97 144.59 2167.97 149.289 Z" fill="#000000" fill-rule="nonzero" fill-opacity="1" /><path clip-path="url(#clip770)" d="M2195.51 136.303 L2199.77 136.303 L2199.77 162.229 L2195.51 162.229 L2195.51 136.303 M2195.51 126.21 L2199.77 126.21 L2199.77 131.604 L2195.51 131.604 L2195.51 126.21 Z" fill="#000000" fill-rule="nonzero" fill-opacity="1" /><path clip-path="url(#clip770)" d="M2220.47 149.196 Q2215.31 149.196 2213.31 150.377 Q2211.32 151.557 2211.32 154.405 Q2211.32 156.673 2212.81 158.016 Q2214.31 159.335 2216.88 159.335 Q2220.42 159.335 2222.55 156.835 Q2224.7 154.312 2224.7 150.145 L2224.7 149.196 L2220.47 149.196 M2228.96 147.437 L2228.96 162.229 L2224.7 162.229 L2224.7 158.293 Q2223.25 160.655 2221.07 161.789 Q2218.89 162.9 2215.75 162.9 Q2211.76 162.9 2209.4 160.678 Q2207.06 158.432 2207.06 154.682 Q2207.06 150.307 2209.98 148.085 Q2212.92 145.863 2218.73 145.863 L2224.7 145.863 L2224.7 145.446 Q2224.7 142.507 2222.76 140.909 Q2220.84 139.289 2217.34 139.289 Q2215.12 139.289 2213.01 139.821 Q2210.91 140.354 2208.96 141.419 L2208.96 137.483 Q2211.3 136.581 2213.5 136.141 Q2215.7 135.678 2217.78 135.678 Q2223.41 135.678 2226.19 138.594 Q2228.96 141.511 2228.96 147.437 Z" fill="#000000" fill-rule="nonzero" fill-opacity="1" /><path clip-path="url(#clip770)" d="M2259.29 146.581 L2259.29 162.229 L2255.03 162.229 L2255.03 146.719 Q2255.03 143.039 2253.59 141.21 Q2252.16 139.382 2249.29 139.382 Q2245.84 139.382 2243.85 141.581 Q2241.86 143.78 2241.86 147.576 L2241.86 162.229 L2237.57 162.229 L2237.57 136.303 L2241.86 136.303 L2241.86 140.331 Q2243.38 137.993 2245.44 136.835 Q2247.53 135.678 2250.24 135.678 Q2254.7 135.678 2257 138.456 Q2259.29 141.21 2259.29 146.581 Z" fill="#000000" fill-rule="nonzero" fill-opacity="1" /><polyline clip-path="url(#clip770)" style="stroke:#2ba02b; stroke-linecap:round; stroke-linejoin:round; stroke-width:8; stroke-opacity:1; fill:none" points="1785.69,196.789 1925.9,196.789 "/>
<path clip-path="url(#clip770)" d="M1949.27 179.509 L1956.23 179.509 L1965.05 203.027 L1973.92 179.509 L1980.89 179.509 L1980.89 214.069 L1976.33 214.069 L1976.33 183.722 L1967.41 207.425 L1962.71 207.425 L1953.8 183.722 L1953.8 214.069 L1949.27 214.069 L1949.27 179.509 Z" fill="#000000" fill-rule="nonzero" fill-opacity="1" /><path clip-path="url(#clip770)" d="M2012.16 200.041 L2012.16 202.124 L1992.58 202.124 Q1992.85 206.522 1995.21 208.837 Q1997.6 211.129 2001.83 211.129 Q2004.29 211.129 2006.58 210.527 Q2008.89 209.925 2011.16 208.721 L2011.16 212.749 Q2008.87 213.721 2006.46 214.231 Q2004.06 214.74 2001.58 214.74 Q1995.38 214.74 1991.74 211.129 Q1988.13 207.518 1988.13 201.36 Q1988.13 194.995 1991.56 191.268 Q1995.01 187.518 2000.84 187.518 Q2006.07 187.518 2009.1 190.897 Q2012.16 194.254 2012.16 200.041 M2007.9 198.791 Q2007.85 195.296 2005.93 193.212 Q2004.03 191.129 2000.89 191.129 Q1997.32 191.129 1995.17 193.143 Q1993.04 195.157 1992.71 198.814 L2007.9 198.791 Z" fill="#000000" fill-rule="nonzero" fill-opacity="1" /><path clip-path="url(#clip770)" d="M2036.21 192.078 L2036.21 178.05 L2040.47 178.05 L2040.47 214.069 L2036.21 214.069 L2036.21 210.18 Q2034.87 212.495 2032.81 213.629 Q2030.77 214.74 2027.9 214.74 Q2023.2 214.74 2020.24 210.99 Q2017.3 207.24 2017.3 201.129 Q2017.3 195.018 2020.24 191.268 Q2023.2 187.518 2027.9 187.518 Q2030.77 187.518 2032.81 188.652 Q2034.87 189.763 2036.21 192.078 M2021.7 201.129 Q2021.7 205.828 2023.62 208.513 Q2025.56 211.175 2028.94 211.175 Q2032.32 211.175 2034.26 208.513 Q2036.21 205.828 2036.21 201.129 Q2036.21 196.43 2034.26 193.768 Q2032.32 191.083 2028.94 191.083 Q2025.56 191.083 2023.62 193.768 Q2021.7 196.43 2021.7 201.129 Z" fill="#000000" fill-rule="nonzero" fill-opacity="1" /><path clip-path="url(#clip770)" d="M2049.24 188.143 L2053.5 188.143 L2053.5 214.069 L2049.24 214.069 L2049.24 188.143 M2049.24 178.05 L2053.5 178.05 L2053.5 183.444 L2049.24 183.444 L2049.24 178.05 Z" fill="#000000" fill-rule="nonzero" fill-opacity="1" /><path clip-path="url(#clip770)" d="M2074.2 201.036 Q2069.03 201.036 2067.04 202.217 Q2065.05 203.397 2065.05 206.245 Q2065.05 208.513 2066.53 209.856 Q2068.04 211.175 2070.61 211.175 Q2074.15 211.175 2076.28 208.675 Q2078.43 206.152 2078.43 201.985 L2078.43 201.036 L2074.2 201.036 M2082.69 199.277 L2082.69 214.069 L2078.43 214.069 L2078.43 210.133 Q2076.97 212.495 2074.8 213.629 Q2072.62 214.74 2069.47 214.74 Q2065.49 214.74 2063.13 212.518 Q2060.79 210.272 2060.79 206.522 Q2060.79 202.147 2063.71 199.925 Q2066.65 197.703 2072.46 197.703 L2078.43 197.703 L2078.43 197.286 Q2078.43 194.347 2076.49 192.749 Q2074.57 191.129 2071.07 191.129 Q2068.85 191.129 2066.74 191.661 Q2064.64 192.194 2062.69 193.259 L2062.69 189.323 Q2065.03 188.421 2067.23 187.981 Q2069.43 187.518 2071.51 187.518 Q2077.14 187.518 2079.91 190.434 Q2082.69 193.351 2082.69 199.277 Z" fill="#000000" fill-rule="nonzero" fill-opacity="1" /><path clip-path="url(#clip770)" d="M2113.01 198.421 L2113.01 214.069 L2108.76 214.069 L2108.76 198.559 Q2108.76 194.879 2107.32 193.05 Q2105.88 191.222 2103.01 191.222 Q2099.57 191.222 2097.57 193.421 Q2095.58 195.62 2095.58 199.416 L2095.58 214.069 L2091.3 214.069 L2091.3 188.143 L2095.58 188.143 L2095.58 192.171 Q2097.11 189.833 2099.17 188.675 Q2101.26 187.518 2103.96 187.518 Q2108.43 187.518 2110.72 190.296 Q2113.01 193.05 2113.01 198.421 Z" fill="#000000" fill-rule="nonzero" fill-opacity="1" /></svg>
