<?xml version="1.0" encoding="utf-8"?>
<svg xmlns="http://www.w3.org/2000/svg" xmlns:xlink="http://www.w3.org/1999/xlink" width="600" height="400" viewBox="0 0 2400 1600">
<defs>
  <clipPath id="clip160">
    <rect x="0" y="0" width="2400" height="1600"/>
  </clipPath>
</defs>
<path clip-path="url(#clip160)" d="M0 1600 L2400 1600 L2400 8.88178e-14 L0 8.88178e-14  Z" fill="#ffffff" fill-rule="evenodd" fill-opacity="1"/>
<defs>
  <clipPath id="clip161">
    <rect x="480" y="0" width="1681" height="1600"/>
  </clipPath>
</defs>
<path clip-path="url(#clip160)" d="M250.028 1423.18 L2352.76 1423.18 L2352.76 47.2441 L250.028 47.2441  Z" fill="#ffffff" fill-rule="evenodd" fill-opacity="1"/>
<defs>
  <clipPath id="clip162">
    <rect x="250" y="47" width="2104" height="1377"/>
  </clipPath>
</defs>
<polyline clip-path="url(#clip162)" style="stroke:#000000; stroke-linecap:round; stroke-linejoin:round; stroke-width:2; stroke-opacity:0.1; fill:none" points="426.228,1423.18 426.228,47.2441 "/>
<polyline clip-path="url(#clip162)" style="stroke:#000000; stroke-linecap:round; stroke-linejoin:round; stroke-width:2; stroke-opacity:0.1; fill:none" points="659.605,1423.18 659.605,47.2441 "/>
<polyline clip-path="url(#clip162)" style="stroke:#000000; stroke-linecap:round; stroke-linejoin:round; stroke-width:2; stroke-opacity:0.1; fill:none" points="892.982,1423.18 892.982,47.2441 "/>
<polyline clip-path="url(#clip162)" style="stroke:#000000; stroke-linecap:round; stroke-linejoin:round; stroke-width:2; stroke-opacity:0.1; fill:none" points="1126.36,1423.18 1126.36,47.2441 "/>
<polyline clip-path="url(#clip162)" style="stroke:#000000; stroke-linecap:round; stroke-linejoin:round; stroke-width:2; stroke-opacity:0.1; fill:none" points="1359.74,1423.18 1359.74,47.2441 "/>
<polyline clip-path="url(#clip162)" style="stroke:#000000; stroke-linecap:round; stroke-linejoin:round; stroke-width:2; stroke-opacity:0.1; fill:none" points="1593.11,1423.18 1593.11,47.2441 "/>
<polyline clip-path="url(#clip162)" style="stroke:#000000; stroke-linecap:round; stroke-linejoin:round; stroke-width:2; stroke-opacity:0.1; fill:none" points="1826.49,1423.18 1826.49,47.2441 "/>
<polyline clip-path="url(#clip162)" style="stroke:#000000; stroke-linecap:round; stroke-linejoin:round; stroke-width:2; stroke-opacity:0.1; fill:none" points="2059.87,1423.18 2059.87,47.2441 "/>
<polyline clip-path="url(#clip162)" style="stroke:#000000; stroke-linecap:round; stroke-linejoin:round; stroke-width:2; stroke-opacity:0.1; fill:none" points="2293.24,1423.18 2293.24,47.2441 "/>
<polyline clip-path="url(#clip162)" style="stroke:#000000; stroke-linecap:round; stroke-linejoin:round; stroke-width:2; stroke-opacity:0.1; fill:none" points="250.028,1415.26 2352.76,1415.26 "/>
<polyline clip-path="url(#clip162)" style="stroke:#000000; stroke-linecap:round; stroke-linejoin:round; stroke-width:2; stroke-opacity:0.1; fill:none" points="250.028,1127.05 2352.76,1127.05 "/>
<polyline clip-path="url(#clip162)" style="stroke:#000000; stroke-linecap:round; stroke-linejoin:round; stroke-width:2; stroke-opacity:0.1; fill:none" points="250.028,838.832 2352.76,838.832 "/>
<polyline clip-path="url(#clip162)" style="stroke:#000000; stroke-linecap:round; stroke-linejoin:round; stroke-width:2; stroke-opacity:0.1; fill:none" points="250.028,550.616 2352.76,550.616 "/>
<polyline clip-path="url(#clip162)" style="stroke:#000000; stroke-linecap:round; stroke-linejoin:round; stroke-width:2; stroke-opacity:0.1; fill:none" points="250.028,262.4 2352.76,262.4 "/>
<polyline clip-path="url(#clip160)" style="stroke:#000000; stroke-linecap:round; stroke-linejoin:round; stroke-width:4; stroke-opacity:1; fill:none" points="250.028,1423.18 2352.76,1423.18 "/>
<polyline clip-path="url(#clip160)" style="stroke:#000000; stroke-linecap:round; stroke-linejoin:round; stroke-width:4; stroke-opacity:1; fill:none" points="426.228,1423.18 426.228,1404.28 "/>
<polyline clip-path="url(#clip160)" style="stroke:#000000; stroke-linecap:round; stroke-linejoin:round; stroke-width:4; stroke-opacity:1; fill:none" points="659.605,1423.18 659.605,1404.28 "/>
<polyline clip-path="url(#clip160)" style="stroke:#000000; stroke-linecap:round; stroke-linejoin:round; stroke-width:4; stroke-opacity:1; fill:none" points="892.982,1423.18 892.982,1404.28 "/>
<polyline clip-path="url(#clip160)" style="stroke:#000000; stroke-linecap:round; stroke-linejoin:round; stroke-width:4; stroke-opacity:1; fill:none" points="1126.36,1423.18 1126.36,1404.28 "/>
<polyline clip-path="url(#clip160)" style="stroke:#000000; stroke-linecap:round; stroke-linejoin:round; stroke-width:4; stroke-opacity:1; fill:none" points="1359.74,1423.18 1359.74,1404.28 "/>
<polyline clip-path="url(#clip160)" style="stroke:#000000; stroke-linecap:round; stroke-linejoin:round; stroke-width:4; stroke-opacity:1; fill:none" points="1593.11,1423.18 1593.11,1404.28 "/>
<polyline clip-path="url(#clip160)" style="stroke:#000000; stroke-linecap:round; stroke-linejoin:round; stroke-width:4; stroke-opacity:1; fill:none" points="1826.49,1423.18 1826.49,1404.28 "/>
<polyline clip-path="url(#clip160)" style="stroke:#000000; stroke-linecap:round; stroke-linejoin:round; stroke-width:4; stroke-opacity:1; fill:none" points="2059.87,1423.18 2059.87,1404.28 "/>
<polyline clip-path="url(#clip160)" style="stroke:#000000; stroke-linecap:round; stroke-linejoin:round; stroke-width:4; stroke-opacity:1; fill:none" points="2293.24,1423.18 2293.24,1404.28 "/>
<path clip-path="url(#clip160)" d="M429.237 1455.09 L417.432 1473.54 L429.237 1473.54 L429.237 1455.09 M428.01 1451.02 L433.89 1451.02 L433.89 1473.54 L438.82 1473.54 L438.82 1477.43 L433.89 1477.43 L433.89 1485.58 L429.237 1485.58 L429.237 1477.43 L413.635 1477.43 L413.635 1472.92 L428.01 1451.02 Z" fill="#000000" fill-rule="nonzero" fill-opacity="1" /><path clip-path="url(#clip160)" d="M660.01 1466.44 Q656.862 1466.44 655.01 1468.59 Q653.181 1470.74 653.181 1474.49 Q653.181 1478.22 655.01 1480.39 Q656.862 1482.55 660.01 1482.55 Q663.158 1482.55 664.987 1480.39 Q666.839 1478.22 666.839 1474.49 Q666.839 1470.74 664.987 1468.59 Q663.158 1466.44 660.01 1466.44 M669.292 1451.78 L669.292 1456.04 Q667.533 1455.21 665.728 1454.77 Q663.945 1454.33 662.186 1454.33 Q657.556 1454.33 655.103 1457.45 Q652.672 1460.58 652.325 1466.9 Q653.691 1464.89 655.751 1463.82 Q657.811 1462.73 660.288 1462.73 Q665.496 1462.73 668.505 1465.9 Q671.538 1469.05 671.538 1474.49 Q671.538 1479.82 668.39 1483.03 Q665.242 1486.25 660.01 1486.25 Q654.015 1486.25 650.843 1481.67 Q647.672 1477.06 647.672 1468.33 Q647.672 1460.14 651.561 1455.28 Q655.45 1450.39 662.001 1450.39 Q663.76 1450.39 665.542 1450.74 Q667.348 1451.09 669.292 1451.78 Z" fill="#000000" fill-rule="nonzero" fill-opacity="1" /><path clip-path="url(#clip160)" d="M892.982 1469.17 Q889.649 1469.17 887.727 1470.95 Q885.829 1472.73 885.829 1475.86 Q885.829 1478.98 887.727 1480.77 Q889.649 1482.55 892.982 1482.55 Q896.315 1482.55 898.237 1480.77 Q900.158 1478.96 900.158 1475.86 Q900.158 1472.73 898.237 1470.95 Q896.339 1469.17 892.982 1469.17 M888.306 1467.18 Q885.297 1466.44 883.607 1464.38 Q881.94 1462.32 881.94 1459.35 Q881.94 1455.21 884.88 1452.8 Q887.843 1450.39 892.982 1450.39 Q898.144 1450.39 901.084 1452.8 Q904.024 1455.21 904.024 1459.35 Q904.024 1462.32 902.334 1464.38 Q900.667 1466.44 897.681 1467.18 Q901.061 1467.96 902.936 1470.26 Q904.834 1472.55 904.834 1475.86 Q904.834 1480.88 901.755 1483.57 Q898.7 1486.25 892.982 1486.25 Q887.265 1486.25 884.186 1483.57 Q881.13 1480.88 881.13 1475.86 Q881.13 1472.55 883.028 1470.26 Q884.927 1467.96 888.306 1467.18 M886.593 1459.79 Q886.593 1462.48 888.26 1463.98 Q889.95 1465.49 892.982 1465.49 Q895.991 1465.49 897.681 1463.98 Q899.394 1462.48 899.394 1459.79 Q899.394 1457.11 897.681 1455.6 Q895.991 1454.1 892.982 1454.1 Q889.95 1454.1 888.26 1455.6 Q886.593 1457.11 886.593 1459.79 Z" fill="#000000" fill-rule="nonzero" fill-opacity="1" /><path clip-path="url(#clip160)" d="M1101.05 1481.64 L1108.69 1481.64 L1108.69 1455.28 L1100.38 1456.95 L1100.38 1452.69 L1108.64 1451.02 L1113.32 1451.02 L1113.32 1481.64 L1120.95 1481.64 L1120.95 1485.58 L1101.05 1485.58 L1101.05 1481.64 Z" fill="#000000" fill-rule="nonzero" fill-opacity="1" /><path clip-path="url(#clip160)" d="M1140.4 1454.1 Q1136.79 1454.1 1134.96 1457.66 Q1133.15 1461.2 1133.15 1468.33 Q1133.15 1475.44 1134.96 1479.01 Q1136.79 1482.55 1140.4 1482.55 Q1144.03 1482.55 1145.84 1479.01 Q1147.67 1475.44 1147.67 1468.33 Q1147.67 1461.2 1145.84 1457.66 Q1144.03 1454.1 1140.4 1454.1 M1140.4 1450.39 Q1146.21 1450.39 1149.26 1455 Q1152.34 1459.58 1152.34 1468.33 Q1152.34 1477.06 1149.26 1481.67 Q1146.21 1486.25 1140.4 1486.25 Q1134.59 1486.25 1131.51 1481.67 Q1128.45 1477.06 1128.45 1468.33 Q1128.45 1459.58 1131.51 1455 Q1134.59 1450.39 1140.4 1450.39 Z" fill="#000000" fill-rule="nonzero" fill-opacity="1" /><path clip-path="url(#clip160)" d="M1335.22 1481.64 L1342.86 1481.64 L1342.86 1455.28 L1334.55 1456.95 L1334.55 1452.69 L1342.82 1451.02 L1347.49 1451.02 L1347.49 1481.64 L1355.13 1481.64 L1355.13 1485.58 L1335.22 1485.58 L1335.22 1481.64 Z" fill="#000000" fill-rule="nonzero" fill-opacity="1" /><path clip-path="url(#clip160)" d="M1368.6 1481.64 L1384.92 1481.64 L1384.92 1485.58 L1362.98 1485.58 L1362.98 1481.64 Q1365.64 1478.89 1370.22 1474.26 Q1374.83 1469.61 1376.01 1468.27 Q1378.25 1465.74 1379.13 1464.01 Q1380.04 1462.25 1380.04 1460.56 Q1380.04 1457.8 1378.09 1456.07 Q1376.17 1454.33 1373.07 1454.33 Q1370.87 1454.33 1368.42 1455.09 Q1365.99 1455.86 1363.21 1457.41 L1363.21 1452.69 Q1366.03 1451.55 1368.49 1450.97 Q1370.94 1450.39 1372.98 1450.39 Q1378.35 1450.39 1381.54 1453.08 Q1384.74 1455.77 1384.74 1460.26 Q1384.74 1462.39 1383.93 1464.31 Q1383.14 1466.2 1381.03 1468.8 Q1380.45 1469.47 1377.35 1472.69 Q1374.25 1475.88 1368.6 1481.64 Z" fill="#000000" fill-rule="nonzero" fill-opacity="1" /><path clip-path="url(#clip160)" d="M1567.56 1481.64 L1575.2 1481.64 L1575.2 1455.28 L1566.89 1456.95 L1566.89 1452.69 L1575.15 1451.02 L1579.83 1451.02 L1579.83 1481.64 L1587.47 1481.64 L1587.47 1485.58 L1567.56 1485.58 L1567.56 1481.64 Z" fill="#000000" fill-rule="nonzero" fill-opacity="1" /><path clip-path="url(#clip160)" d="M1609.76 1455.09 L1597.95 1473.54 L1609.76 1473.54 L1609.76 1455.09 M1608.53 1451.02 L1614.41 1451.02 L1614.41 1473.54 L1619.34 1473.54 L1619.34 1477.43 L1614.41 1477.43 L1614.41 1485.58 L1609.76 1485.58 L1609.76 1477.43 L1594.16 1477.43 L1594.16 1472.92 L1608.53 1451.02 Z" fill="#000000" fill-rule="nonzero" fill-opacity="1" /><path clip-path="url(#clip160)" d="M1801.1 1481.64 L1808.74 1481.64 L1808.74 1455.28 L1800.43 1456.95 L1800.43 1452.69 L1808.69 1451.02 L1813.37 1451.02 L1813.37 1481.64 L1821 1481.64 L1821 1485.58 L1801.1 1485.58 L1801.1 1481.64 Z" fill="#000000" fill-rule="nonzero" fill-opacity="1" /><path clip-path="url(#clip160)" d="M1841.03 1466.44 Q1837.88 1466.44 1836.03 1468.59 Q1834.2 1470.74 1834.2 1474.49 Q1834.2 1478.22 1836.03 1480.39 Q1837.88 1482.55 1841.03 1482.55 Q1844.18 1482.55 1846 1480.39 Q1847.86 1478.22 1847.86 1474.49 Q1847.86 1470.74 1846 1468.59 Q1844.18 1466.44 1841.03 1466.44 M1850.31 1451.78 L1850.31 1456.04 Q1848.55 1455.21 1846.75 1454.77 Q1844.96 1454.33 1843.2 1454.33 Q1838.57 1454.33 1836.12 1457.45 Q1833.69 1460.58 1833.34 1466.9 Q1834.71 1464.89 1836.77 1463.82 Q1838.83 1462.73 1841.31 1462.73 Q1846.51 1462.73 1849.52 1465.9 Q1852.56 1469.05 1852.56 1474.49 Q1852.56 1479.82 1849.41 1483.03 Q1846.26 1486.25 1841.03 1486.25 Q1835.03 1486.25 1831.86 1481.67 Q1828.69 1477.06 1828.69 1468.33 Q1828.69 1460.14 1832.58 1455.28 Q1836.47 1450.39 1843.02 1450.39 Q1844.78 1450.39 1846.56 1450.74 Q1848.37 1451.09 1850.31 1451.78 Z" fill="#000000" fill-rule="nonzero" fill-opacity="1" /><path clip-path="url(#clip160)" d="M2034.6 1481.64 L2042.24 1481.64 L2042.24 1455.28 L2033.93 1456.95 L2033.93 1452.69 L2042.19 1451.02 L2046.87 1451.02 L2046.87 1481.64 L2054.51 1481.64 L2054.51 1485.58 L2034.6 1485.58 L2034.6 1481.64 Z" fill="#000000" fill-rule="nonzero" fill-opacity="1" /><path clip-path="url(#clip160)" d="M2073.95 1469.17 Q2070.62 1469.17 2068.7 1470.95 Q2066.8 1472.73 2066.8 1475.86 Q2066.8 1478.98 2068.7 1480.77 Q2070.62 1482.55 2073.95 1482.55 Q2077.29 1482.55 2079.21 1480.77 Q2081.13 1478.96 2081.13 1475.86 Q2081.13 1472.73 2079.21 1470.95 Q2077.31 1469.17 2073.95 1469.17 M2069.28 1467.18 Q2066.27 1466.44 2064.58 1464.38 Q2062.91 1462.32 2062.91 1459.35 Q2062.91 1455.21 2065.85 1452.8 Q2068.81 1450.39 2073.95 1450.39 Q2079.12 1450.39 2082.06 1452.8 Q2084.99 1455.21 2084.99 1459.35 Q2084.99 1462.32 2083.31 1464.38 Q2081.64 1466.44 2078.65 1467.18 Q2082.03 1467.96 2083.91 1470.26 Q2085.8 1472.55 2085.8 1475.86 Q2085.8 1480.88 2082.73 1483.57 Q2079.67 1486.25 2073.95 1486.25 Q2068.24 1486.25 2065.16 1483.57 Q2062.1 1480.88 2062.1 1475.86 Q2062.1 1472.55 2064 1470.26 Q2065.9 1467.96 2069.28 1467.18 M2067.56 1459.79 Q2067.56 1462.48 2069.23 1463.98 Q2070.92 1465.49 2073.95 1465.49 Q2076.96 1465.49 2078.65 1463.98 Q2080.37 1462.48 2080.37 1459.79 Q2080.37 1457.11 2078.65 1455.6 Q2076.96 1454.1 2073.95 1454.1 Q2070.92 1454.1 2069.23 1455.6 Q2067.56 1457.11 2067.56 1459.79 Z" fill="#000000" fill-rule="nonzero" fill-opacity="1" /><path clip-path="url(#clip160)" d="M2272.02 1481.64 L2288.34 1481.64 L2288.34 1485.58 L2266.39 1485.58 L2266.39 1481.64 Q2269.06 1478.89 2273.64 1474.26 Q2278.24 1469.61 2279.43 1468.27 Q2281.67 1465.74 2282.55 1464.01 Q2283.45 1462.25 2283.45 1460.56 Q2283.45 1457.8 2281.51 1456.07 Q2279.59 1454.33 2276.49 1454.33 Q2274.29 1454.33 2271.83 1455.09 Q2269.4 1455.86 2266.62 1457.41 L2266.62 1452.69 Q2269.45 1451.55 2271.9 1450.97 Q2274.36 1450.39 2276.39 1450.39 Q2281.76 1450.39 2284.96 1453.08 Q2288.15 1455.77 2288.15 1460.26 Q2288.15 1462.39 2287.34 1464.31 Q2286.55 1466.2 2284.45 1468.8 Q2283.87 1469.47 2280.77 1472.69 Q2277.67 1475.88 2272.02 1481.64 Z" fill="#000000" fill-rule="nonzero" fill-opacity="1" /><path clip-path="url(#clip160)" d="M2308.15 1454.1 Q2304.54 1454.1 2302.71 1457.66 Q2300.91 1461.2 2300.91 1468.33 Q2300.91 1475.44 2302.71 1479.01 Q2304.54 1482.55 2308.15 1482.55 Q2311.79 1482.55 2313.59 1479.01 Q2315.42 1475.44 2315.42 1468.33 Q2315.42 1461.2 2313.59 1457.66 Q2311.79 1454.1 2308.15 1454.1 M2308.15 1450.39 Q2313.96 1450.39 2317.02 1455 Q2320.1 1459.58 2320.1 1468.33 Q2320.1 1477.06 2317.02 1481.67 Q2313.96 1486.25 2308.15 1486.25 Q2302.34 1486.25 2299.26 1481.67 Q2296.21 1477.06 2296.21 1468.33 Q2296.21 1459.58 2299.26 1455 Q2302.34 1450.39 2308.15 1450.39 Z" fill="#000000" fill-rule="nonzero" fill-opacity="1" /><path clip-path="url(#clip160)" d="M1311.47 1537.81 L1311.47 1518.52 L1317.32 1518.52 L1317.32 1568.04 L1311.47 1568.04 L1311.47 1562.7 Q1309.62 1565.88 1306.79 1567.44 Q1303.99 1568.97 1300.04 1568.97 Q1293.58 1568.97 1289.5 1563.81 Q1285.46 1558.65 1285.46 1550.25 Q1285.46 1541.85 1289.5 1536.69 Q1293.58 1531.54 1300.04 1531.54 Q1303.99 1531.54 1306.79 1533.1 Q1309.62 1534.62 1311.47 1537.81 M1291.51 1550.25 Q1291.51 1556.71 1294.15 1560.4 Q1296.82 1564.07 1301.47 1564.07 Q1306.12 1564.07 1308.79 1560.4 Q1311.47 1556.71 1311.47 1550.25 Q1311.47 1543.79 1308.79 1540.13 Q1306.12 1536.44 1301.47 1536.44 Q1296.82 1536.44 1294.15 1540.13 Q1291.51 1543.79 1291.51 1550.25 Z" fill="#000000" fill-rule="nonzero" fill-opacity="1" /><polyline clip-path="url(#clip160)" style="stroke:#000000; stroke-linecap:round; stroke-linejoin:round; stroke-width:4; stroke-opacity:1; fill:none" points="250.028,1423.18 250.028,47.2441 "/>
<polyline clip-path="url(#clip160)" style="stroke:#000000; stroke-linecap:round; stroke-linejoin:round; stroke-width:4; stroke-opacity:1; fill:none" points="250.028,1415.26 268.926,1415.26 "/>
<polyline clip-path="url(#clip160)" style="stroke:#000000; stroke-linecap:round; stroke-linejoin:round; stroke-width:4; stroke-opacity:1; fill:none" points="250.028,1127.05 268.926,1127.05 "/>
<polyline clip-path="url(#clip160)" style="stroke:#000000; stroke-linecap:round; stroke-linejoin:round; stroke-width:4; stroke-opacity:1; fill:none" points="250.028,838.832 268.926,838.832 "/>
<polyline clip-path="url(#clip160)" style="stroke:#000000; stroke-linecap:round; stroke-linejoin:round; stroke-width:4; stroke-opacity:1; fill:none" points="250.028,550.616 268.926,550.616 "/>
<polyline clip-path="url(#clip160)" style="stroke:#000000; stroke-linecap:round; stroke-linejoin:round; stroke-width:4; stroke-opacity:1; fill:none" points="250.028,262.4 268.926,262.4 "/>
<path clip-path="url(#clip160)" d="M126.691 1401.06 Q123.08 1401.06 121.251 1404.63 Q119.445 1408.17 119.445 1415.3 Q119.445 1422.4 121.251 1425.97 Q123.08 1429.51 126.691 1429.51 Q130.325 1429.51 132.13 1425.97 Q133.959 1422.4 133.959 1415.3 Q133.959 1408.17 132.13 1404.63 Q130.325 1401.06 126.691 1401.06 M126.691 1397.36 Q132.501 1397.36 135.556 1401.96 Q138.635 1406.55 138.635 1415.3 Q138.635 1424.02 135.556 1428.63 Q132.501 1433.21 126.691 1433.21 Q120.88 1433.21 117.802 1428.63 Q114.746 1424.02 114.746 1415.3 Q114.746 1406.55 117.802 1401.96 Q120.88 1397.36 126.691 1397.36 Z" fill="#000000" fill-rule="nonzero" fill-opacity="1" /><path clip-path="url(#clip160)" d="M146.853 1426.66 L151.737 1426.66 L151.737 1432.54 L146.853 1432.54 L146.853 1426.66 Z" fill="#000000" fill-rule="nonzero" fill-opacity="1" /><path clip-path="url(#clip160)" d="M171.922 1401.06 Q168.311 1401.06 166.482 1404.63 Q164.677 1408.17 164.677 1415.3 Q164.677 1422.4 166.482 1425.97 Q168.311 1429.51 171.922 1429.51 Q175.556 1429.51 177.362 1425.97 Q179.19 1422.4 179.19 1415.3 Q179.19 1408.17 177.362 1404.63 Q175.556 1401.06 171.922 1401.06 M171.922 1397.36 Q177.732 1397.36 180.788 1401.96 Q183.866 1406.55 183.866 1415.3 Q183.866 1424.02 180.788 1428.63 Q177.732 1433.21 171.922 1433.21 Q166.112 1433.21 163.033 1428.63 Q159.978 1424.02 159.978 1415.3 Q159.978 1406.55 163.033 1401.96 Q166.112 1397.36 171.922 1397.36 Z" fill="#000000" fill-rule="nonzero" fill-opacity="1" /><path clip-path="url(#clip160)" d="M202.084 1401.06 Q198.473 1401.06 196.644 1404.63 Q194.838 1408.17 194.838 1415.3 Q194.838 1422.4 196.644 1425.97 Q198.473 1429.51 202.084 1429.51 Q205.718 1429.51 207.524 1425.97 Q209.352 1422.4 209.352 1415.3 Q209.352 1408.17 207.524 1404.63 Q205.718 1401.06 202.084 1401.06 M202.084 1397.36 Q207.894 1397.36 210.949 1401.96 Q214.028 1406.55 214.028 1415.3 Q214.028 1424.02 210.949 1428.63 Q207.894 1433.21 202.084 1433.21 Q196.274 1433.21 193.195 1428.63 Q190.139 1424.02 190.139 1415.3 Q190.139 1406.55 193.195 1401.96 Q196.274 1397.36 202.084 1397.36 Z" fill="#000000" fill-rule="nonzero" fill-opacity="1" /><path clip-path="url(#clip160)" d="M128.288 1112.85 Q124.677 1112.85 122.848 1116.41 Q121.043 1119.95 121.043 1127.08 Q121.043 1134.19 122.848 1137.75 Q124.677 1141.29 128.288 1141.29 Q131.922 1141.29 133.728 1137.75 Q135.556 1134.19 135.556 1127.08 Q135.556 1119.95 133.728 1116.41 Q131.922 1112.85 128.288 1112.85 M128.288 1109.14 Q134.098 1109.14 137.154 1113.75 Q140.232 1118.33 140.232 1127.08 Q140.232 1135.81 137.154 1140.42 Q134.098 1145 128.288 1145 Q122.478 1145 119.399 1140.42 Q116.343 1135.81 116.343 1127.08 Q116.343 1118.33 119.399 1113.75 Q122.478 1109.14 128.288 1109.14 Z" fill="#000000" fill-rule="nonzero" fill-opacity="1" /><path clip-path="url(#clip160)" d="M148.45 1138.45 L153.334 1138.45 L153.334 1144.33 L148.45 1144.33 L148.45 1138.45 Z" fill="#000000" fill-rule="nonzero" fill-opacity="1" /><path clip-path="url(#clip160)" d="M173.519 1112.85 Q169.908 1112.85 168.079 1116.41 Q166.274 1119.95 166.274 1127.08 Q166.274 1134.19 168.079 1137.75 Q169.908 1141.29 173.519 1141.29 Q177.153 1141.29 178.959 1137.75 Q180.788 1134.19 180.788 1127.08 Q180.788 1119.95 178.959 1116.41 Q177.153 1112.85 173.519 1112.85 M173.519 1109.14 Q179.329 1109.14 182.385 1113.75 Q185.463 1118.33 185.463 1127.08 Q185.463 1135.81 182.385 1140.42 Q179.329 1145 173.519 1145 Q167.709 1145 164.63 1140.42 Q161.575 1135.81 161.575 1127.08 Q161.575 1118.33 164.63 1113.75 Q167.709 1109.14 173.519 1109.14 Z" fill="#000000" fill-rule="nonzero" fill-opacity="1" /><path clip-path="url(#clip160)" d="M197.709 1140.39 L214.028 1140.39 L214.028 1144.33 L192.084 1144.33 L192.084 1140.39 Q194.746 1137.64 199.329 1133.01 Q203.936 1128.36 205.116 1127.01 Q207.362 1124.49 208.241 1122.75 Q209.144 1120.99 209.144 1119.3 Q209.144 1116.55 207.199 1114.81 Q205.278 1113.08 202.176 1113.08 Q199.977 1113.08 197.524 1113.84 Q195.093 1114.61 192.315 1116.16 L192.315 1111.43 Q195.139 1110.3 197.593 1109.72 Q200.047 1109.14 202.084 1109.14 Q207.454 1109.14 210.649 1111.83 Q213.843 1114.51 213.843 1119 Q213.843 1121.13 213.033 1123.05 Q212.246 1124.95 210.139 1127.54 Q209.561 1128.22 206.459 1131.43 Q203.357 1134.63 197.709 1140.39 Z" fill="#000000" fill-rule="nonzero" fill-opacity="1" /><path clip-path="url(#clip160)" d="M126.205 824.63 Q122.593 824.63 120.765 828.195 Q118.959 831.737 118.959 838.866 Q118.959 845.973 120.765 849.537 Q122.593 853.079 126.205 853.079 Q129.839 853.079 131.644 849.537 Q133.473 845.973 133.473 838.866 Q133.473 831.737 131.644 828.195 Q129.839 824.63 126.205 824.63 M126.205 820.927 Q132.015 820.927 135.07 825.533 Q138.149 830.116 138.149 838.866 Q138.149 847.593 135.07 852.199 Q132.015 856.783 126.205 856.783 Q120.394 856.783 117.316 852.199 Q114.26 847.593 114.26 838.866 Q114.26 830.116 117.316 825.533 Q120.394 820.927 126.205 820.927 Z" fill="#000000" fill-rule="nonzero" fill-opacity="1" /><path clip-path="url(#clip160)" d="M146.366 850.232 L151.251 850.232 L151.251 856.112 L146.366 856.112 L146.366 850.232 Z" fill="#000000" fill-rule="nonzero" fill-opacity="1" /><path clip-path="url(#clip160)" d="M171.436 824.63 Q167.825 824.63 165.996 828.195 Q164.19 831.737 164.19 838.866 Q164.19 845.973 165.996 849.537 Q167.825 853.079 171.436 853.079 Q175.07 853.079 176.876 849.537 Q178.704 845.973 178.704 838.866 Q178.704 831.737 176.876 828.195 Q175.07 824.63 171.436 824.63 M171.436 820.927 Q177.246 820.927 180.301 825.533 Q183.38 830.116 183.38 838.866 Q183.38 847.593 180.301 852.199 Q177.246 856.783 171.436 856.783 Q165.626 856.783 162.547 852.199 Q159.491 847.593 159.491 838.866 Q159.491 830.116 162.547 825.533 Q165.626 820.927 171.436 820.927 Z" fill="#000000" fill-rule="nonzero" fill-opacity="1" /><path clip-path="url(#clip160)" d="M204.445 825.626 L192.639 844.075 L204.445 844.075 L204.445 825.626 M203.218 821.552 L209.098 821.552 L209.098 844.075 L214.028 844.075 L214.028 847.963 L209.098 847.963 L209.098 856.112 L204.445 856.112 L204.445 847.963 L188.843 847.963 L188.843 843.45 L203.218 821.552 Z" fill="#000000" fill-rule="nonzero" fill-opacity="1" /><path clip-path="url(#clip160)" d="M126.529 536.414 Q122.918 536.414 121.089 539.979 Q119.283 543.521 119.283 550.651 Q119.283 557.757 121.089 561.322 Q122.918 564.863 126.529 564.863 Q130.163 564.863 131.968 561.322 Q133.797 557.757 133.797 550.651 Q133.797 543.521 131.968 539.979 Q130.163 536.414 126.529 536.414 M126.529 532.711 Q132.339 532.711 135.394 537.317 Q138.473 541.901 138.473 550.651 Q138.473 559.377 135.394 563.984 Q132.339 568.567 126.529 568.567 Q120.718 568.567 117.64 563.984 Q114.584 559.377 114.584 550.651 Q114.584 541.901 117.64 537.317 Q120.718 532.711 126.529 532.711 Z" fill="#000000" fill-rule="nonzero" fill-opacity="1" /><path clip-path="url(#clip160)" d="M146.691 562.016 L151.575 562.016 L151.575 567.896 L146.691 567.896 L146.691 562.016 Z" fill="#000000" fill-rule="nonzero" fill-opacity="1" /><path clip-path="url(#clip160)" d="M171.76 536.414 Q168.149 536.414 166.32 539.979 Q164.515 543.521 164.515 550.651 Q164.515 557.757 166.32 561.322 Q168.149 564.863 171.76 564.863 Q175.394 564.863 177.2 561.322 Q179.028 557.757 179.028 550.651 Q179.028 543.521 177.2 539.979 Q175.394 536.414 171.76 536.414 M171.76 532.711 Q177.57 532.711 180.626 537.317 Q183.704 541.901 183.704 550.651 Q183.704 559.377 180.626 563.984 Q177.57 568.567 171.76 568.567 Q165.95 568.567 162.871 563.984 Q159.815 559.377 159.815 550.651 Q159.815 541.901 162.871 537.317 Q165.95 532.711 171.76 532.711 Z" fill="#000000" fill-rule="nonzero" fill-opacity="1" /><path clip-path="url(#clip160)" d="M202.5 548.752 Q199.352 548.752 197.5 550.905 Q195.672 553.058 195.672 556.808 Q195.672 560.535 197.5 562.711 Q199.352 564.863 202.5 564.863 Q205.649 564.863 207.477 562.711 Q209.329 560.535 209.329 556.808 Q209.329 553.058 207.477 550.905 Q205.649 548.752 202.5 548.752 M211.783 534.1 L211.783 538.359 Q210.024 537.526 208.218 537.086 Q206.436 536.646 204.676 536.646 Q200.047 536.646 197.593 539.771 Q195.163 542.896 194.815 549.215 Q196.181 547.201 198.241 546.137 Q200.301 545.049 202.778 545.049 Q207.987 545.049 210.996 548.22 Q214.028 551.368 214.028 556.808 Q214.028 562.132 210.88 565.35 Q207.732 568.567 202.5 568.567 Q196.505 568.567 193.334 563.984 Q190.163 559.377 190.163 550.651 Q190.163 542.456 194.051 537.595 Q197.94 532.711 204.491 532.711 Q206.25 532.711 208.033 533.058 Q209.838 533.405 211.783 534.1 Z" fill="#000000" fill-rule="nonzero" fill-opacity="1" /><path clip-path="url(#clip160)" d="M126.783 248.199 Q123.172 248.199 121.343 251.764 Q119.538 255.305 119.538 262.435 Q119.538 269.541 121.343 273.106 Q123.172 276.648 126.783 276.648 Q130.417 276.648 132.223 273.106 Q134.052 269.541 134.052 262.435 Q134.052 255.305 132.223 251.764 Q130.417 248.199 126.783 248.199 M126.783 244.495 Q132.593 244.495 135.649 249.102 Q138.728 253.685 138.728 262.435 Q138.728 271.162 135.649 275.768 Q132.593 280.351 126.783 280.351 Q120.973 280.351 117.894 275.768 Q114.839 271.162 114.839 262.435 Q114.839 253.685 117.894 249.102 Q120.973 244.495 126.783 244.495 Z" fill="#000000" fill-rule="nonzero" fill-opacity="1" /><path clip-path="url(#clip160)" d="M146.945 273.8 L151.829 273.8 L151.829 279.68 L146.945 279.68 L146.945 273.8 Z" fill="#000000" fill-rule="nonzero" fill-opacity="1" /><path clip-path="url(#clip160)" d="M172.014 248.199 Q168.403 248.199 166.575 251.764 Q164.769 255.305 164.769 262.435 Q164.769 269.541 166.575 273.106 Q168.403 276.648 172.014 276.648 Q175.649 276.648 177.454 273.106 Q179.283 269.541 179.283 262.435 Q179.283 255.305 177.454 251.764 Q175.649 248.199 172.014 248.199 M172.014 244.495 Q177.825 244.495 180.88 249.102 Q183.959 253.685 183.959 262.435 Q183.959 271.162 180.88 275.768 Q177.825 280.351 172.014 280.351 Q166.204 280.351 163.126 275.768 Q160.07 271.162 160.07 262.435 Q160.07 253.685 163.126 249.102 Q166.204 244.495 172.014 244.495 Z" fill="#000000" fill-rule="nonzero" fill-opacity="1" /><path clip-path="url(#clip160)" d="M202.176 263.268 Q198.843 263.268 196.922 265.051 Q195.024 266.833 195.024 269.958 Q195.024 273.083 196.922 274.865 Q198.843 276.648 202.176 276.648 Q205.51 276.648 207.431 274.865 Q209.352 273.06 209.352 269.958 Q209.352 266.833 207.431 265.051 Q205.533 263.268 202.176 263.268 M197.5 261.277 Q194.491 260.537 192.801 258.477 Q191.135 256.416 191.135 253.453 Q191.135 249.31 194.075 246.902 Q197.037 244.495 202.176 244.495 Q207.338 244.495 210.278 246.902 Q213.218 249.31 213.218 253.453 Q213.218 256.416 211.528 258.477 Q209.861 260.537 206.875 261.277 Q210.255 262.064 212.13 264.356 Q214.028 266.648 214.028 269.958 Q214.028 274.981 210.949 277.666 Q207.894 280.351 202.176 280.351 Q196.459 280.351 193.38 277.666 Q190.325 274.981 190.325 269.958 Q190.325 266.648 192.223 264.356 Q194.121 262.064 197.5 261.277 M195.787 253.893 Q195.787 256.578 197.454 258.083 Q199.144 259.588 202.176 259.588 Q205.186 259.588 206.875 258.083 Q208.588 256.578 208.588 253.893 Q208.588 251.208 206.875 249.703 Q205.186 248.199 202.176 248.199 Q199.144 248.199 197.454 249.703 Q195.787 251.208 195.787 253.893 Z" fill="#000000" fill-rule="nonzero" fill-opacity="1" /><path clip-path="url(#clip160)" d="M16.4842 1031.06 L16.4842 1021.48 L48.8219 1009.35 L16.4842 997.161 L16.4842 987.58 L64.0042 987.58 L64.0042 993.851 L22.277 993.851 L54.8694 1006.1 L54.8694 1012.57 L22.277 1024.82 L64.0042 1024.82 L64.0042 1031.06 L16.4842 1031.06 Z" fill="#000000" fill-rule="nonzero" fill-opacity="1" /><path clip-path="url(#clip160)" d="M44.7161 944.58 L47.5806 944.58 L47.5806 971.507 Q53.6281 971.125 56.8109 967.879 Q59.9619 964.6 59.9619 958.776 Q59.9619 955.402 59.1344 952.251 Q58.3069 949.068 56.6518 945.949 L62.1899 945.949 Q63.5267 949.1 64.227 952.41 Q64.9272 955.72 64.9272 959.126 Q64.9272 967.656 59.9619 972.653 Q54.9967 977.618 46.5303 977.618 Q37.7774 977.618 32.6531 972.907 Q27.4968 968.165 27.4968 960.144 Q27.4968 952.951 32.1438 948.781 Q36.7589 944.58 44.7161 944.58 M42.9973 950.437 Q38.1912 950.5 35.3266 953.142 Q32.4621 955.752 32.4621 960.081 Q32.4621 964.982 35.2312 967.942 Q38.0002 970.87 43.0292 971.316 L42.9973 950.437 Z" fill="#000000" fill-rule="nonzero" fill-opacity="1" /><path clip-path="url(#clip160)" d="M46.0847 918.767 Q46.0847 925.865 47.7079 928.602 Q49.3312 931.339 53.2461 931.339 Q56.3653 931.339 58.2114 929.302 Q60.0256 927.234 60.0256 923.701 Q60.0256 918.831 56.5881 915.903 Q53.1188 912.942 47.3897 912.942 L46.0847 912.942 L46.0847 918.767 M43.6657 907.086 L64.0042 907.086 L64.0042 912.942 L58.5933 912.942 Q61.8398 914.948 63.3994 917.94 Q64.9272 920.931 64.9272 925.26 Q64.9272 930.735 61.8716 933.981 Q58.7843 937.196 53.6281 937.196 Q47.6125 937.196 44.5569 933.185 Q41.5014 929.143 41.5014 921.154 L41.5014 912.942 L40.9285 912.942 Q36.8862 912.942 34.6901 915.616 Q32.4621 918.258 32.4621 923.064 Q32.4621 926.12 33.1941 929.016 Q33.9262 931.912 35.3903 934.586 L29.9795 934.586 Q28.7381 931.371 28.1334 928.348 Q27.4968 925.324 27.4968 922.459 Q27.4968 914.725 31.5072 910.905 Q35.5176 907.086 43.6657 907.086 Z" fill="#000000" fill-rule="nonzero" fill-opacity="1" /><path clip-path="url(#clip160)" d="M42.4881 865.391 L64.0042 865.391 L64.0042 871.247 L42.679 871.247 Q37.6183 871.247 35.1038 873.22 Q32.5894 875.194 32.5894 879.141 Q32.5894 883.883 35.6131 886.62 Q38.6368 889.358 43.8567 889.358 L64.0042 889.358 L64.0042 895.246 L28.3562 895.246 L28.3562 889.358 L33.8944 889.358 Q30.6797 887.257 29.0883 884.424 Q27.4968 881.56 27.4968 877.836 Q27.4968 871.693 31.3163 868.542 Q35.1038 865.391 42.4881 865.391 Z" fill="#000000" fill-rule="nonzero" fill-opacity="1" /><path clip-path="url(#clip160)" d="M16.4842 832.735 L16.4842 802.688 L21.895 802.688 L21.895 826.305 L35.9632 826.305 L35.9632 803.675 L41.3741 803.675 L41.3741 826.305 L58.5933 826.305 L58.5933 802.116 L64.0042 802.116 L64.0042 832.735 L16.4842 832.735 Z" fill="#000000" fill-rule="nonzero" fill-opacity="1" /><path clip-path="url(#clip160)" d="M33.8307 771.146 Q33.2578 772.133 33.0032 773.311 Q32.7167 774.457 32.7167 775.857 Q32.7167 780.822 35.9632 783.496 Q39.1779 786.138 45.2253 786.138 L64.0042 786.138 L64.0042 792.026 L28.3562 792.026 L28.3562 786.138 L33.8944 786.138 Q30.6479 784.292 29.0883 781.332 Q27.4968 778.371 27.4968 774.138 Q27.4968 773.534 27.5923 772.801 Q27.656 772.069 27.8151 771.178 L33.8307 771.146 Z" fill="#000000" fill-rule="nonzero" fill-opacity="1" /><path clip-path="url(#clip160)" d="M33.8307 745.493 Q33.2578 746.479 33.0032 747.657 Q32.7167 748.803 32.7167 750.203 Q32.7167 755.168 35.9632 757.842 Q39.1779 760.484 45.2253 760.484 L64.0042 760.484 L64.0042 766.372 L28.3562 766.372 L28.3562 760.484 L33.8944 760.484 Q30.6479 758.638 29.0883 755.678 Q27.4968 752.718 27.4968 748.484 Q27.4968 747.88 27.5923 747.148 Q27.656 746.416 27.8151 745.524 L33.8307 745.493 Z" fill="#000000" fill-rule="nonzero" fill-opacity="1" /><path clip-path="url(#clip160)" d="M55.9197 744.506 L55.9197 737.79 L64.0042 737.79 L64.0042 744.506 L55.9197 744.506 Z" fill="#000000" fill-rule="nonzero" fill-opacity="1" /><path clip-path="url(#clip160)" d="M44.0477 699.118 Q46.403 698.896 50.2224 696.89 Q54.6466 694.535 57.1292 690.079 Q59.5482 685.719 59.58 681.008 L59.58 658.823 L64.6407 658.823 L64.6407 681.008 Q64.6407 687.119 61.4897 692.785 Q58.3387 698.418 52.7369 701.442 Q47.135 704.466 41.1831 704.466 Q35.2948 704.466 29.693 701.442 Q24.0912 698.418 20.9083 692.785 Q17.7255 687.119 17.7255 681.008 L17.7255 658.823 L22.7862 658.823 L22.7862 681.008 Q22.818 685.719 25.2688 690.079 Q27.7833 694.503 32.1756 696.89 Q35.995 698.927 38.9551 699.214 L38.9551 658.823 L44.0477 658.823 L44.0477 699.118 Z" fill="#000000" fill-rule="nonzero" fill-opacity="1" /><path clip-path="url(#clip160)" d="M14.479 626.931 L14.479 613.436 L19.0304 613.436 L19.0304 621.075 L68.0464 621.075 L68.0464 613.436 L72.5979 613.436 L72.5979 626.931 L14.479 626.931 Z" fill="#000000" fill-rule="nonzero" fill-opacity="1" /><path clip-path="url(#clip160)" d="M43.5384 603.919 L43.5384 586.764 L48.7583 586.764 L48.7583 603.919 L43.5384 603.919 Z" fill="#000000" fill-rule="nonzero" fill-opacity="1" /><path clip-path="url(#clip160)" d="M58.5933 575.496 L58.5933 564.993 L22.3406 564.993 L24.6323 576.419 L18.7758 576.419 L16.4842 565.057 L16.4842 558.627 L58.5933 558.627 L58.5933 548.124 L64.0042 548.124 L64.0042 575.496 L58.5933 575.496 Z" fill="#000000" fill-rule="nonzero" fill-opacity="1" /><path clip-path="url(#clip160)" d="M55.9197 534.469 L55.9197 527.754 L61.3942 527.754 L71.5793 532.973 L71.5793 537.079 L61.3942 534.469 L55.9197 534.469 Z" fill="#000000" fill-rule="nonzero" fill-opacity="1" /><path clip-path="url(#clip160)" d="M58.5933 492.583 L58.5933 482.08 L22.3406 482.08 L24.6323 493.506 L18.7758 493.506 L16.4842 482.143 L16.4842 475.714 L58.5933 475.714 L58.5933 465.211 L64.0042 465.211 L64.0042 492.583 L58.5933 492.583 Z" fill="#000000" fill-rule="nonzero" fill-opacity="1" /><path clip-path="url(#clip160)" d="M14.479 439.366 L72.5979 439.366 L72.5979 452.861 L68.0464 452.861 L68.0464 445.254 L19.0304 445.254 L19.0304 452.861 L14.479 452.861 L14.479 439.366 Z" fill="#000000" fill-rule="nonzero" fill-opacity="1" /><polyline clip-path="url(#clip162)" style="stroke:#8b564a; stroke-linecap:round; stroke-linejoin:round; stroke-width:8; stroke-opacity:1; fill:none" points="309.539,375.511 426.228,814.107 542.916,1017.55 659.605,1120.38 776.294,1197.85 892.982,1243.99 1009.67,1276.95 1126.36,1301.86 1243.05,1320.17 1359.74,1334.18 1476.42,1345.51 1593.11,1354.53 1709.8,1361.98 1826.49,1367.89 1943.18,1373.15 2059.87,1377.42 2176.56,1381.02 2293.24,1384.24 "/>
<circle clip-path="url(#clip162)" cx="309.539" cy="375.511" r="14.4" fill="#8b564a" fill-rule="evenodd" fill-opacity="1" stroke="#000000" stroke-opacity="1" stroke-width="3.2"/>
<circle clip-path="url(#clip162)" cx="426.228" cy="814.107" r="14.4" fill="#8b564a" fill-rule="evenodd" fill-opacity="1" stroke="#000000" stroke-opacity="1" stroke-width="3.2"/>
<circle clip-path="url(#clip162)" cx="542.916" cy="1017.55" r="14.4" fill="#8b564a" fill-rule="evenodd" fill-opacity="1" stroke="#000000" stroke-opacity="1" stroke-width="3.2"/>
<circle clip-path="url(#clip162)" cx="659.605" cy="1120.38" r="14.4" fill="#8b564a" fill-rule="evenodd" fill-opacity="1" stroke="#000000" stroke-opacity="1" stroke-width="3.2"/>
<circle clip-path="url(#clip162)" cx="776.294" cy="1197.85" r="14.4" fill="#8b564a" fill-rule="evenodd" fill-opacity="1" stroke="#000000" stroke-opacity="1" stroke-width="3.2"/>
<circle clip-path="url(#clip162)" cx="892.982" cy="1243.99" r="14.4" fill="#8b564a" fill-rule="evenodd" fill-opacity="1" stroke="#000000" stroke-opacity="1" stroke-width="3.2"/>
<circle clip-path="url(#clip162)" cx="1009.67" cy="1276.95" r="14.4" fill="#8b564a" fill-rule="evenodd" fill-opacity="1" stroke="#000000" stroke-opacity="1" stroke-width="3.2"/>
<circle clip-path="url(#clip162)" cx="1126.36" cy="1301.86" r="14.4" fill="#8b564a" fill-rule="evenodd" fill-opacity="1" stroke="#000000" stroke-opacity="1" stroke-width="3.2"/>
<circle clip-path="url(#clip162)" cx="1243.05" cy="1320.17" r="14.4" fill="#8b564a" fill-rule="evenodd" fill-opacity="1" stroke="#000000" stroke-opacity="1" stroke-width="3.2"/>
<circle clip-path="url(#clip162)" cx="1359.74" cy="1334.18" r="14.4" fill="#8b564a" fill-rule="evenodd" fill-opacity="1" stroke="#000000" stroke-opacity="1" stroke-width="3.2"/>
<circle clip-path="url(#clip162)" cx="1476.42" cy="1345.51" r="14.4" fill="#8b564a" fill-rule="evenodd" fill-opacity="1" stroke="#000000" stroke-opacity="1" stroke-width="3.2"/>
<circle clip-path="url(#clip162)" cx="1593.11" cy="1354.53" r="14.4" fill="#8b564a" fill-rule="evenodd" fill-opacity="1" stroke="#000000" stroke-opacity="1" stroke-width="3.2"/>
<circle clip-path="url(#clip162)" cx="1709.8" cy="1361.98" r="14.4" fill="#8b564a" fill-rule="evenodd" fill-opacity="1" stroke="#000000" stroke-opacity="1" stroke-width="3.2"/>
<circle clip-path="url(#clip162)" cx="1826.49" cy="1367.89" r="14.4" fill="#8b564a" fill-rule="evenodd" fill-opacity="1" stroke="#000000" stroke-opacity="1" stroke-width="3.2"/>
<circle clip-path="url(#clip162)" cx="1943.18" cy="1373.15" r="14.4" fill="#8b564a" fill-rule="evenodd" fill-opacity="1" stroke="#000000" stroke-opacity="1" stroke-width="3.2"/>
<circle clip-path="url(#clip162)" cx="2059.87" cy="1377.42" r="14.4" fill="#8b564a" fill-rule="evenodd" fill-opacity="1" stroke="#000000" stroke-opacity="1" stroke-width="3.2"/>
<circle clip-path="url(#clip162)" cx="2176.56" cy="1381.02" r="14.4" fill="#8b564a" fill-rule="evenodd" fill-opacity="1" stroke="#000000" stroke-opacity="1" stroke-width="3.2"/>
<circle clip-path="url(#clip162)" cx="2293.24" cy="1384.24" r="14.4" fill="#8b564a" fill-rule="evenodd" fill-opacity="1" stroke="#000000" stroke-opacity="1" stroke-width="3.2"/>
<polyline clip-path="url(#clip162)" style="stroke:#2ba02b; stroke-linecap:round; stroke-linejoin:round; stroke-width:8; stroke-opacity:1; fill:none" points="309.539,86.1857 426.228,570.904 542.916,828.691 659.605,982.397 776.294,1081.67 892.982,1149.66 1009.67,1198.37 1126.36,1234.53 1243.05,1262.14 1359.74,1283.73 1476.42,1300.95 1593.11,1314.91 1709.8,1326.4 1826.49,1335.98 1943.18,1344.05 2059.87,1350.92 2176.56,1356.82 2293.24,1361.92 "/>
<circle clip-path="url(#clip162)" cx="309.539" cy="86.1857" r="14.4" fill="#2ba02b" fill-rule="evenodd" fill-opacity="1" stroke="#000000" stroke-opacity="1" stroke-width="3.2"/>
<circle clip-path="url(#clip162)" cx="426.228" cy="570.904" r="14.4" fill="#2ba02b" fill-rule="evenodd" fill-opacity="1" stroke="#000000" stroke-opacity="1" stroke-width="3.2"/>
<circle clip-path="url(#clip162)" cx="542.916" cy="828.691" r="14.4" fill="#2ba02b" fill-rule="evenodd" fill-opacity="1" stroke="#000000" stroke-opacity="1" stroke-width="3.2"/>
<circle clip-path="url(#clip162)" cx="659.605" cy="982.397" r="14.4" fill="#2ba02b" fill-rule="evenodd" fill-opacity="1" stroke="#000000" stroke-opacity="1" stroke-width="3.2"/>
<circle clip-path="url(#clip162)" cx="776.294" cy="1081.67" r="14.4" fill="#2ba02b" fill-rule="evenodd" fill-opacity="1" stroke="#000000" stroke-opacity="1" stroke-width="3.2"/>
<circle clip-path="url(#clip162)" cx="892.982" cy="1149.66" r="14.4" fill="#2ba02b" fill-rule="evenodd" fill-opacity="1" stroke="#000000" stroke-opacity="1" stroke-width="3.2"/>
<circle clip-path="url(#clip162)" cx="1009.67" cy="1198.37" r="14.4" fill="#2ba02b" fill-rule="evenodd" fill-opacity="1" stroke="#000000" stroke-opacity="1" stroke-width="3.2"/>
<circle clip-path="url(#clip162)" cx="1126.36" cy="1234.53" r="14.4" fill="#2ba02b" fill-rule="evenodd" fill-opacity="1" stroke="#000000" stroke-opacity="1" stroke-width="3.2"/>
<circle clip-path="url(#clip162)" cx="1243.05" cy="1262.14" r="14.4" fill="#2ba02b" fill-rule="evenodd" fill-opacity="1" stroke="#000000" stroke-opacity="1" stroke-width="3.2"/>
<circle clip-path="url(#clip162)" cx="1359.74" cy="1283.73" r="14.4" fill="#2ba02b" fill-rule="evenodd" fill-opacity="1" stroke="#000000" stroke-opacity="1" stroke-width="3.2"/>
<circle clip-path="url(#clip162)" cx="1476.42" cy="1300.95" r="14.4" fill="#2ba02b" fill-rule="evenodd" fill-opacity="1" stroke="#000000" stroke-opacity="1" stroke-width="3.2"/>
<circle clip-path="url(#clip162)" cx="1593.11" cy="1314.91" r="14.4" fill="#2ba02b" fill-rule="evenodd" fill-opacity="1" stroke="#000000" stroke-opacity="1" stroke-width="3.2"/>
<circle clip-path="url(#clip162)" cx="1709.8" cy="1326.4" r="14.4" fill="#2ba02b" fill-rule="evenodd" fill-opacity="1" stroke="#000000" stroke-opacity="1" stroke-width="3.2"/>
<circle clip-path="url(#clip162)" cx="1826.49" cy="1335.98" r="14.4" fill="#2ba02b" fill-rule="evenodd" fill-opacity="1" stroke="#000000" stroke-opacity="1" stroke-width="3.2"/>
<circle clip-path="url(#clip162)" cx="1943.18" cy="1344.05" r="14.4" fill="#2ba02b" fill-rule="evenodd" fill-opacity="1" stroke="#000000" stroke-opacity="1" stroke-width="3.2"/>
<circle clip-path="url(#clip162)" cx="2059.87" cy="1350.92" r="14.4" fill="#2ba02b" fill-rule="evenodd" fill-opacity="1" stroke="#000000" stroke-opacity="1" stroke-width="3.2"/>
<circle clip-path="url(#clip162)" cx="2176.56" cy="1356.82" r="14.4" fill="#2ba02b" fill-rule="evenodd" fill-opacity="1" stroke="#000000" stroke-opacity="1" stroke-width="3.2"/>
<circle clip-path="url(#clip162)" cx="2293.24" cy="1361.92" r="14.4" fill="#2ba02b" fill-rule="evenodd" fill-opacity="1" stroke="#000000" stroke-opacity="1" stroke-width="3.2"/>
<path clip-path="url(#clip160)" d="M1762.37 248.629 L2282.66 248.629 L2282.66 93.1086 L1762.37 93.1086  Z" fill="#ffffff" fill-rule="evenodd" fill-opacity="1"/>
<polyline clip-path="url(#clip160)" style="stroke:#000000; stroke-linecap:round; stroke-linejoin:round; stroke-width:4; stroke-opacity:1; fill:none" points="1762.37,248.629 2282.66,248.629 2282.66,93.1086 1762.37,93.1086 1762.37,248.629 "/>
<polyline clip-path="url(#clip160)" style="stroke:#8b564a; stroke-linecap:round; stroke-linejoin:round; stroke-width:8; stroke-opacity:1; fill:none" points="1785.73,144.949 1925.92,144.949 "/>
<path clip-path="url(#clip160)" d="M1949.28 127.669 L1956.25 127.669 L1965.07 151.187 L1973.93 127.669 L1980.9 127.669 L1980.9 162.229 L1976.34 162.229 L1976.34 131.882 L1967.43 155.585 L1962.73 155.585 L1953.82 131.882 L1953.82 162.229 L1949.28 162.229 L1949.28 127.669 Z" fill="#000000" fill-rule="nonzero" fill-opacity="1" /><path clip-path="url(#clip160)" d="M2000.04 139.289 Q1996.62 139.289 1994.63 141.974 Q1992.64 144.636 1992.64 149.289 Q1992.64 153.942 1994.6 156.627 Q1996.59 159.289 2000.04 159.289 Q2003.45 159.289 2005.44 156.604 Q2007.43 153.918 2007.43 149.289 Q2007.43 144.682 2005.44 141.997 Q2003.45 139.289 2000.04 139.289 M2000.04 135.678 Q2005.6 135.678 2008.77 139.289 Q2011.94 142.9 2011.94 149.289 Q2011.94 155.655 2008.77 159.289 Q2005.6 162.9 2000.04 162.9 Q1994.46 162.9 1991.29 159.289 Q1988.15 155.655 1988.15 149.289 Q1988.15 142.9 1991.29 139.289 Q1994.46 135.678 2000.04 135.678 Z" fill="#000000" fill-rule="nonzero" fill-opacity="1" /><path clip-path="url(#clip160)" d="M2036.06 140.238 L2036.06 126.21 L2040.32 126.21 L2040.32 162.229 L2036.06 162.229 L2036.06 158.34 Q2034.72 160.655 2032.66 161.789 Q2030.62 162.9 2027.75 162.9 Q2023.05 162.9 2020.09 159.15 Q2017.15 155.4 2017.15 149.289 Q2017.15 143.178 2020.09 139.428 Q2023.05 135.678 2027.75 135.678 Q2030.62 135.678 2032.66 136.812 Q2034.72 137.923 2036.06 140.238 M2021.55 149.289 Q2021.55 153.988 2023.47 156.673 Q2025.41 159.335 2028.79 159.335 Q2032.17 159.335 2034.12 156.673 Q2036.06 153.988 2036.06 149.289 Q2036.06 144.59 2034.12 141.928 Q2032.17 139.243 2028.79 139.243 Q2025.41 139.243 2023.47 141.928 Q2021.55 144.59 2021.55 149.289 Z" fill="#000000" fill-rule="nonzero" fill-opacity="1" /><path clip-path="url(#clip160)" d="M2071.27 148.201 L2071.27 150.284 L2051.69 150.284 Q2051.96 154.682 2054.33 156.997 Q2056.71 159.289 2060.95 159.289 Q2063.4 159.289 2065.69 158.687 Q2068.01 158.085 2070.27 156.881 L2070.27 160.909 Q2067.98 161.881 2065.58 162.391 Q2063.17 162.9 2060.69 162.9 Q2054.49 162.9 2050.85 159.289 Q2047.24 155.678 2047.24 149.52 Q2047.24 143.155 2050.67 139.428 Q2054.12 135.678 2059.95 135.678 Q2065.18 135.678 2068.21 139.057 Q2071.27 142.414 2071.27 148.201 M2067.01 146.951 Q2066.96 143.456 2065.04 141.372 Q2063.14 139.289 2060 139.289 Q2056.43 139.289 2054.28 141.303 Q2052.15 143.317 2051.83 146.974 L2067.01 146.951 Z" fill="#000000" fill-rule="nonzero" fill-opacity="1" /><path clip-path="url(#clip160)" d="M2076.11 147.344 L2088.58 147.344 L2088.58 151.141 L2076.11 151.141 L2076.11 147.344 Z" fill="#000000" fill-rule="nonzero" fill-opacity="1" /><path clip-path="url(#clip160)" d="M2095.55 127.669 L2102.52 127.669 L2111.34 151.187 L2120.2 127.669 L2127.17 127.669 L2127.17 162.229 L2122.61 162.229 L2122.61 131.882 L2113.7 155.585 L2109 155.585 L2100.09 131.882 L2100.09 162.229 L2095.55 162.229 L2095.55 127.669 Z" fill="#000000" fill-rule="nonzero" fill-opacity="1" /><path clip-path="url(#clip160)" d="M2158.45 148.201 L2158.45 150.284 L2138.86 150.284 Q2139.14 154.682 2141.5 156.997 Q2143.89 159.289 2148.12 159.289 Q2150.58 159.289 2152.87 158.687 Q2155.18 158.085 2157.45 156.881 L2157.45 160.909 Q2155.16 161.881 2152.75 162.391 Q2150.34 162.9 2147.87 162.9 Q2141.66 162.9 2138.03 159.289 Q2134.42 155.678 2134.42 149.52 Q2134.42 143.155 2137.84 139.428 Q2141.29 135.678 2147.13 135.678 Q2152.36 135.678 2155.39 139.057 Q2158.45 142.414 2158.45 148.201 M2154.19 146.951 Q2154.14 143.456 2152.22 141.372 Q2150.32 139.289 2147.17 139.289 Q2143.61 139.289 2141.45 141.303 Q2139.33 143.317 2139 146.974 L2154.19 146.951 Z" fill="#000000" fill-rule="nonzero" fill-opacity="1" /><path clip-path="url(#clip160)" d="M2182.5 140.238 L2182.5 126.21 L2186.76 126.21 L2186.76 162.229 L2182.5 162.229 L2182.5 158.34 Q2181.15 160.655 2179.09 161.789 Q2177.06 162.9 2174.19 162.9 Q2169.49 162.9 2166.52 159.15 Q2163.58 155.4 2163.58 149.289 Q2163.58 143.178 2166.52 139.428 Q2169.49 135.678 2174.19 135.678 Q2177.06 135.678 2179.09 136.812 Q2181.15 137.923 2182.5 140.238 M2167.98 149.289 Q2167.98 153.988 2169.9 156.673 Q2171.85 159.335 2175.23 159.335 Q2178.61 159.335 2180.55 156.673 Q2182.5 153.988 2182.5 149.289 Q2182.5 144.59 2180.55 141.928 Q2178.61 139.243 2175.23 139.243 Q2171.85 139.243 2169.9 141.928 Q2167.98 144.59 2167.98 149.289 Z" fill="#000000" fill-rule="nonzero" fill-opacity="1" /><path clip-path="url(#clip160)" d="M2195.53 136.303 L2199.79 136.303 L2199.79 162.229 L2195.53 162.229 L2195.53 136.303 M2195.53 126.21 L2199.79 126.21 L2199.79 131.604 L2195.53 131.604 L2195.53 126.21 Z" fill="#000000" fill-rule="nonzero" fill-opacity="1" /><path clip-path="url(#clip160)" d="M2220.48 149.196 Q2215.32 149.196 2213.33 150.377 Q2211.34 151.557 2211.34 154.405 Q2211.34 156.673 2212.82 158.016 Q2214.32 159.335 2216.89 159.335 Q2220.44 159.335 2222.57 156.835 Q2224.72 154.312 2224.72 150.145 L2224.72 149.196 L2220.48 149.196 M2228.98 147.437 L2228.98 162.229 L2224.72 162.229 L2224.72 158.293 Q2223.26 160.655 2221.08 161.789 Q2218.91 162.9 2215.76 162.9 Q2211.78 162.9 2209.42 160.678 Q2207.08 158.432 2207.08 154.682 Q2207.08 150.307 2210 148.085 Q2212.94 145.863 2218.75 145.863 L2224.72 145.863 L2224.72 145.446 Q2224.72 142.507 2222.77 140.909 Q2220.85 139.289 2217.36 139.289 Q2215.13 139.289 2213.03 139.821 Q2210.92 140.354 2208.98 141.419 L2208.98 137.483 Q2211.32 136.581 2213.51 136.141 Q2215.71 135.678 2217.8 135.678 Q2223.42 135.678 2226.2 138.594 Q2228.98 141.511 2228.98 147.437 Z" fill="#000000" fill-rule="nonzero" fill-opacity="1" /><path clip-path="url(#clip160)" d="M2259.3 146.581 L2259.3 162.229 L2255.04 162.229 L2255.04 146.719 Q2255.04 143.039 2253.61 141.21 Q2252.17 139.382 2249.3 139.382 Q2245.85 139.382 2243.86 141.581 Q2241.87 143.78 2241.87 147.576 L2241.87 162.229 L2237.59 162.229 L2237.59 136.303 L2241.87 136.303 L2241.87 140.331 Q2243.4 137.993 2245.46 136.835 Q2247.54 135.678 2250.25 135.678 Q2254.72 135.678 2257.01 138.456 Q2259.3 141.21 2259.3 146.581 Z" fill="#000000" fill-rule="nonzero" fill-opacity="1" /><polyline clip-path="url(#clip160)" style="stroke:#2ba02b; stroke-linecap:round; stroke-linejoin:round; stroke-width:8; stroke-opacity:1; fill:none" points="1785.73,196.789 1925.92,196.789 "/>
<path clip-path="url(#clip160)" d="M1949.28 179.509 L1956.25 179.509 L1965.07 203.027 L1973.93 179.509 L1980.9 179.509 L1980.9 214.069 L1976.34 214.069 L1976.34 183.722 L1967.43 207.425 L1962.73 207.425 L1953.82 183.722 L1953.82 214.069 L1949.28 214.069 L1949.28 179.509 Z" fill="#000000" fill-rule="nonzero" fill-opacity="1" /><path clip-path="url(#clip160)" d="M2012.17 200.041 L2012.17 202.124 L1992.59 202.124 Q1992.87 206.522 1995.23 208.837 Q1997.61 211.129 2001.85 211.129 Q2004.3 211.129 2006.59 210.527 Q2008.91 209.925 2011.18 208.721 L2011.18 212.749 Q2008.89 213.721 2006.48 214.231 Q2004.07 214.74 2001.59 214.74 Q1995.39 214.74 1991.76 211.129 Q1988.15 207.518 1988.15 201.36 Q1988.15 194.995 1991.57 191.268 Q1995.02 187.518 2000.85 187.518 Q2006.09 187.518 2009.12 190.897 Q2012.17 194.254 2012.17 200.041 M2007.91 198.791 Q2007.87 195.296 2005.95 193.212 Q2004.05 191.129 2000.9 191.129 Q1997.34 191.129 1995.18 193.143 Q1993.05 195.157 1992.73 198.814 L2007.91 198.791 Z" fill="#000000" fill-rule="nonzero" fill-opacity="1" /><path clip-path="url(#clip160)" d="M2036.22 192.078 L2036.22 178.05 L2040.48 178.05 L2040.48 214.069 L2036.22 214.069 L2036.22 210.18 Q2034.88 212.495 2032.82 213.629 Q2030.78 214.74 2027.91 214.74 Q2023.21 214.74 2020.25 210.99 Q2017.31 207.24 2017.31 201.129 Q2017.31 195.018 2020.25 191.268 Q2023.21 187.518 2027.91 187.518 Q2030.78 187.518 2032.82 188.652 Q2034.88 189.763 2036.22 192.078 M2021.71 201.129 Q2021.71 205.828 2023.63 208.513 Q2025.58 211.175 2028.96 211.175 Q2032.33 211.175 2034.28 208.513 Q2036.22 205.828 2036.22 201.129 Q2036.22 196.43 2034.28 193.768 Q2032.33 191.083 2028.96 191.083 Q2025.58 191.083 2023.63 193.768 Q2021.71 196.43 2021.71 201.129 Z" fill="#000000" fill-rule="nonzero" fill-opacity="1" /><path clip-path="url(#clip160)" d="M2049.26 188.143 L2053.52 188.143 L2053.52 214.069 L2049.26 214.069 L2049.26 188.143 M2049.26 178.05 L2053.52 178.05 L2053.52 183.444 L2049.26 183.444 L2049.26 178.05 Z" fill="#000000" fill-rule="nonzero" fill-opacity="1" /><path clip-path="url(#clip160)" d="M2074.21 201.036 Q2069.05 201.036 2067.06 202.217 Q2065.07 203.397 2065.07 206.245 Q2065.07 208.513 2066.55 209.856 Q2068.05 211.175 2070.62 211.175 Q2074.16 211.175 2076.29 208.675 Q2078.45 206.152 2078.45 201.985 L2078.45 201.036 L2074.21 201.036 M2082.71 199.277 L2082.71 214.069 L2078.45 214.069 L2078.45 210.133 Q2076.99 212.495 2074.81 213.629 Q2072.64 214.74 2069.49 214.74 Q2065.51 214.74 2063.14 212.518 Q2060.81 210.272 2060.81 206.522 Q2060.81 202.147 2063.72 199.925 Q2066.66 197.703 2072.47 197.703 L2078.45 197.703 L2078.45 197.286 Q2078.45 194.347 2076.5 192.749 Q2074.58 191.129 2071.08 191.129 Q2068.86 191.129 2066.76 191.661 Q2064.65 192.194 2062.71 193.259 L2062.71 189.323 Q2065.04 188.421 2067.24 187.981 Q2069.44 187.518 2071.52 187.518 Q2077.15 187.518 2079.93 190.434 Q2082.71 193.351 2082.71 199.277 Z" fill="#000000" fill-rule="nonzero" fill-opacity="1" /><path clip-path="url(#clip160)" d="M2113.03 198.421 L2113.03 214.069 L2108.77 214.069 L2108.77 198.559 Q2108.77 194.879 2107.33 193.05 Q2105.9 191.222 2103.03 191.222 Q2099.58 191.222 2097.59 193.421 Q2095.6 195.62 2095.6 199.416 L2095.6 214.069 L2091.32 214.069 L2091.32 188.143 L2095.6 188.143 L2095.6 192.171 Q2097.13 189.833 2099.19 188.675 Q2101.27 187.518 2103.98 187.518 Q2108.45 187.518 2110.74 190.296 Q2113.03 193.05 2113.03 198.421 Z" fill="#000000" fill-rule="nonzero" fill-opacity="1" /></svg>
