<?xml version="1.0" encoding="utf-8"?>
<svg xmlns="http://www.w3.org/2000/svg" xmlns:xlink="http://www.w3.org/1999/xlink" width="600" height="400" viewBox="0 0 2400 1600">
<defs>
  <clipPath id="clip970">
    <rect x="0" y="0" width="2400" height="1600"/>
  </clipPath>
</defs>
<path clip-path="url(#clip970)" d="M0 1600 L2400 1600 L2400 8.88178e-14 L0 8.88178e-14  Z" fill="#ffffff" fill-rule="evenodd" fill-opacity="1"/>
<defs>
  <clipPath id="clip971">
    <rect x="480" y="0" width="1681" height="1600"/>
  </clipPath>
</defs>
<path clip-path="url(#clip970)" d="M249.704 1423.18 L2352.76 1423.18 L2352.76 123.472 L249.704 123.472  Z" fill="#ffffff" fill-rule="evenodd" fill-opacity="1"/>
<defs>
  <clipPath id="clip972">
    <rect x="249" y="123" width="2104" height="1301"/>
  </clipPath>
</defs>
<polyline clip-path="url(#clip972)" style="stroke:#000000; stroke-linecap:round; stroke-linejoin:round; stroke-width:2; stroke-opacity:0.1; fill:none" points="425.931,1423.18 425.931,123.472 "/>
<polyline clip-path="url(#clip972)" style="stroke:#000000; stroke-linecap:round; stroke-linejoin:round; stroke-width:2; stroke-opacity:0.1; fill:none" points="659.344,1423.18 659.344,123.472 "/>
<polyline clip-path="url(#clip972)" style="stroke:#000000; stroke-linecap:round; stroke-linejoin:round; stroke-width:2; stroke-opacity:0.1; fill:none" points="892.757,1423.18 892.757,123.472 "/>
<polyline clip-path="url(#clip972)" style="stroke:#000000; stroke-linecap:round; stroke-linejoin:round; stroke-width:2; stroke-opacity:0.1; fill:none" points="1126.17,1423.18 1126.17,123.472 "/>
<polyline clip-path="url(#clip972)" style="stroke:#000000; stroke-linecap:round; stroke-linejoin:round; stroke-width:2; stroke-opacity:0.1; fill:none" points="1359.58,1423.18 1359.58,123.472 "/>
<polyline clip-path="url(#clip972)" style="stroke:#000000; stroke-linecap:round; stroke-linejoin:round; stroke-width:2; stroke-opacity:0.1; fill:none" points="1593,1423.18 1593,123.472 "/>
<polyline clip-path="url(#clip972)" style="stroke:#000000; stroke-linecap:round; stroke-linejoin:round; stroke-width:2; stroke-opacity:0.1; fill:none" points="1826.41,1423.18 1826.41,123.472 "/>
<polyline clip-path="url(#clip972)" style="stroke:#000000; stroke-linecap:round; stroke-linejoin:round; stroke-width:2; stroke-opacity:0.1; fill:none" points="2059.82,1423.18 2059.82,123.472 "/>
<polyline clip-path="url(#clip972)" style="stroke:#000000; stroke-linecap:round; stroke-linejoin:round; stroke-width:2; stroke-opacity:0.1; fill:none" points="2293.24,1423.18 2293.24,123.472 "/>
<polyline clip-path="url(#clip972)" style="stroke:#000000; stroke-linecap:round; stroke-linejoin:round; stroke-width:2; stroke-opacity:0.1; fill:none" points="249.704,1206.29 2352.76,1206.29 "/>
<polyline clip-path="url(#clip972)" style="stroke:#000000; stroke-linecap:round; stroke-linejoin:round; stroke-width:2; stroke-opacity:0.1; fill:none" points="249.704,985.879 2352.76,985.879 "/>
<polyline clip-path="url(#clip972)" style="stroke:#000000; stroke-linecap:round; stroke-linejoin:round; stroke-width:2; stroke-opacity:0.1; fill:none" points="249.704,765.465 2352.76,765.465 "/>
<polyline clip-path="url(#clip972)" style="stroke:#000000; stroke-linecap:round; stroke-linejoin:round; stroke-width:2; stroke-opacity:0.1; fill:none" points="249.704,545.051 2352.76,545.051 "/>
<polyline clip-path="url(#clip972)" style="stroke:#000000; stroke-linecap:round; stroke-linejoin:round; stroke-width:2; stroke-opacity:0.1; fill:none" points="249.704,324.637 2352.76,324.637 "/>
<polyline clip-path="url(#clip970)" style="stroke:#000000; stroke-linecap:round; stroke-linejoin:round; stroke-width:4; stroke-opacity:1; fill:none" points="249.704,1423.18 2352.76,1423.18 "/>
<polyline clip-path="url(#clip970)" style="stroke:#000000; stroke-linecap:round; stroke-linejoin:round; stroke-width:4; stroke-opacity:1; fill:none" points="425.931,1423.18 425.931,1404.28 "/>
<polyline clip-path="url(#clip970)" style="stroke:#000000; stroke-linecap:round; stroke-linejoin:round; stroke-width:4; stroke-opacity:1; fill:none" points="659.344,1423.18 659.344,1404.28 "/>
<polyline clip-path="url(#clip970)" style="stroke:#000000; stroke-linecap:round; stroke-linejoin:round; stroke-width:4; stroke-opacity:1; fill:none" points="892.757,1423.18 892.757,1404.28 "/>
<polyline clip-path="url(#clip970)" style="stroke:#000000; stroke-linecap:round; stroke-linejoin:round; stroke-width:4; stroke-opacity:1; fill:none" points="1126.17,1423.18 1126.17,1404.28 "/>
<polyline clip-path="url(#clip970)" style="stroke:#000000; stroke-linecap:round; stroke-linejoin:round; stroke-width:4; stroke-opacity:1; fill:none" points="1359.58,1423.18 1359.58,1404.28 "/>
<polyline clip-path="url(#clip970)" style="stroke:#000000; stroke-linecap:round; stroke-linejoin:round; stroke-width:4; stroke-opacity:1; fill:none" points="1593,1423.18 1593,1404.28 "/>
<polyline clip-path="url(#clip970)" style="stroke:#000000; stroke-linecap:round; stroke-linejoin:round; stroke-width:4; stroke-opacity:1; fill:none" points="1826.41,1423.18 1826.41,1404.28 "/>
<polyline clip-path="url(#clip970)" style="stroke:#000000; stroke-linecap:round; stroke-linejoin:round; stroke-width:4; stroke-opacity:1; fill:none" points="2059.82,1423.18 2059.82,1404.28 "/>
<polyline clip-path="url(#clip970)" style="stroke:#000000; stroke-linecap:round; stroke-linejoin:round; stroke-width:4; stroke-opacity:1; fill:none" points="2293.24,1423.18 2293.24,1404.28 "/>
<path clip-path="url(#clip970)" d="M428.94 1455.09 L417.135 1473.54 L428.94 1473.54 L428.94 1455.09 M427.713 1451.02 L433.593 1451.02 L433.593 1473.54 L438.523 1473.54 L438.523 1477.43 L433.593 1477.43 L433.593 1485.58 L428.94 1485.58 L428.94 1477.43 L413.338 1477.43 L413.338 1472.92 L427.713 1451.02 Z" fill="#000000" fill-rule="nonzero" fill-opacity="1" /><path clip-path="url(#clip970)" d="M659.749 1466.44 Q656.601 1466.44 654.749 1468.59 Q652.92 1470.74 652.92 1474.49 Q652.92 1478.22 654.749 1480.39 Q656.601 1482.55 659.749 1482.55 Q662.897 1482.55 664.726 1480.39 Q666.578 1478.22 666.578 1474.49 Q666.578 1470.74 664.726 1468.59 Q662.897 1466.44 659.749 1466.44 M669.031 1451.78 L669.031 1456.04 Q667.272 1455.21 665.467 1454.77 Q663.684 1454.33 661.925 1454.33 Q657.295 1454.33 654.842 1457.45 Q652.411 1460.58 652.064 1466.9 Q653.43 1464.89 655.49 1463.82 Q657.55 1462.73 660.027 1462.73 Q665.235 1462.73 668.244 1465.9 Q671.277 1469.05 671.277 1474.49 Q671.277 1479.82 668.129 1483.03 Q664.981 1486.25 659.749 1486.25 Q653.754 1486.25 650.582 1481.67 Q647.411 1477.06 647.411 1468.33 Q647.411 1460.14 651.3 1455.28 Q655.189 1450.39 661.74 1450.39 Q663.499 1450.39 665.281 1450.74 Q667.087 1451.09 669.031 1451.78 Z" fill="#000000" fill-rule="nonzero" fill-opacity="1" /><path clip-path="url(#clip970)" d="M892.757 1469.17 Q889.424 1469.17 887.502 1470.95 Q885.604 1472.73 885.604 1475.86 Q885.604 1478.98 887.502 1480.77 Q889.424 1482.55 892.757 1482.55 Q896.09 1482.55 898.012 1480.77 Q899.933 1478.96 899.933 1475.86 Q899.933 1472.73 898.012 1470.95 Q896.114 1469.17 892.757 1469.17 M888.081 1467.18 Q885.072 1466.44 883.382 1464.38 Q881.715 1462.32 881.715 1459.35 Q881.715 1455.21 884.655 1452.8 Q887.618 1450.39 892.757 1450.39 Q897.919 1450.39 900.859 1452.8 Q903.799 1455.21 903.799 1459.35 Q903.799 1462.32 902.109 1464.38 Q900.442 1466.44 897.456 1467.18 Q900.836 1467.96 902.711 1470.26 Q904.609 1472.55 904.609 1475.86 Q904.609 1480.88 901.53 1483.57 Q898.475 1486.25 892.757 1486.25 Q887.04 1486.25 883.961 1483.57 Q880.905 1480.88 880.905 1475.86 Q880.905 1472.55 882.803 1470.26 Q884.702 1467.96 888.081 1467.18 M886.368 1459.79 Q886.368 1462.48 888.035 1463.98 Q889.725 1465.49 892.757 1465.49 Q895.766 1465.49 897.456 1463.98 Q899.169 1462.48 899.169 1459.79 Q899.169 1457.11 897.456 1455.6 Q895.766 1454.1 892.757 1454.1 Q889.725 1454.1 888.035 1455.6 Q886.368 1457.11 886.368 1459.79 Z" fill="#000000" fill-rule="nonzero" fill-opacity="1" /><path clip-path="url(#clip970)" d="M1100.86 1481.64 L1108.5 1481.64 L1108.5 1455.28 L1100.19 1456.95 L1100.19 1452.69 L1108.45 1451.02 L1113.13 1451.02 L1113.13 1481.64 L1120.77 1481.64 L1120.77 1485.58 L1100.86 1485.58 L1100.86 1481.64 Z" fill="#000000" fill-rule="nonzero" fill-opacity="1" /><path clip-path="url(#clip970)" d="M1140.21 1454.1 Q1136.6 1454.1 1134.77 1457.66 Q1132.96 1461.2 1132.96 1468.33 Q1132.96 1475.44 1134.77 1479.01 Q1136.6 1482.55 1140.21 1482.55 Q1143.84 1482.55 1145.65 1479.01 Q1147.48 1475.44 1147.48 1468.33 Q1147.48 1461.2 1145.65 1457.66 Q1143.84 1454.1 1140.21 1454.1 M1140.21 1450.39 Q1146.02 1450.39 1149.08 1455 Q1152.15 1459.58 1152.15 1468.33 Q1152.15 1477.06 1149.08 1481.67 Q1146.02 1486.25 1140.21 1486.25 Q1134.4 1486.25 1131.32 1481.67 Q1128.27 1477.06 1128.27 1468.33 Q1128.27 1459.58 1131.32 1455 Q1134.4 1450.39 1140.21 1450.39 Z" fill="#000000" fill-rule="nonzero" fill-opacity="1" /><path clip-path="url(#clip970)" d="M1335.07 1481.64 L1342.71 1481.64 L1342.71 1455.28 L1334.4 1456.95 L1334.4 1452.69 L1342.66 1451.02 L1347.34 1451.02 L1347.34 1481.64 L1354.98 1481.64 L1354.98 1485.58 L1335.07 1485.58 L1335.07 1481.64 Z" fill="#000000" fill-rule="nonzero" fill-opacity="1" /><path clip-path="url(#clip970)" d="M1368.45 1481.64 L1384.77 1481.64 L1384.77 1485.58 L1362.82 1485.58 L1362.82 1481.64 Q1365.49 1478.89 1370.07 1474.26 Q1374.68 1469.61 1375.86 1468.27 Q1378.1 1465.74 1378.98 1464.01 Q1379.88 1462.25 1379.88 1460.56 Q1379.88 1457.8 1377.94 1456.07 Q1376.02 1454.33 1372.92 1454.33 Q1370.72 1454.33 1368.26 1455.09 Q1365.83 1455.86 1363.06 1457.41 L1363.06 1452.69 Q1365.88 1451.55 1368.33 1450.97 Q1370.79 1450.39 1372.82 1450.39 Q1378.19 1450.39 1381.39 1453.08 Q1384.58 1455.77 1384.58 1460.26 Q1384.58 1462.39 1383.77 1464.31 Q1382.99 1466.2 1380.88 1468.8 Q1380.3 1469.47 1377.2 1472.69 Q1374.1 1475.88 1368.45 1481.64 Z" fill="#000000" fill-rule="nonzero" fill-opacity="1" /><path clip-path="url(#clip970)" d="M1567.44 1481.64 L1575.08 1481.64 L1575.08 1455.28 L1566.77 1456.95 L1566.77 1452.69 L1575.03 1451.02 L1579.71 1451.02 L1579.71 1481.64 L1587.35 1481.64 L1587.35 1485.58 L1567.44 1485.58 L1567.44 1481.64 Z" fill="#000000" fill-rule="nonzero" fill-opacity="1" /><path clip-path="url(#clip970)" d="M1609.64 1455.09 L1597.83 1473.54 L1609.64 1473.54 L1609.64 1455.09 M1608.41 1451.02 L1614.29 1451.02 L1614.29 1473.54 L1619.22 1473.54 L1619.22 1477.43 L1614.29 1477.43 L1614.29 1485.58 L1609.64 1485.58 L1609.64 1477.43 L1594.04 1477.43 L1594.04 1472.92 L1608.41 1451.02 Z" fill="#000000" fill-rule="nonzero" fill-opacity="1" /><path clip-path="url(#clip970)" d="M1801.02 1481.64 L1808.65 1481.64 L1808.65 1455.28 L1800.34 1456.95 L1800.34 1452.69 L1808.61 1451.02 L1813.28 1451.02 L1813.28 1481.64 L1820.92 1481.64 L1820.92 1485.58 L1801.02 1485.58 L1801.02 1481.64 Z" fill="#000000" fill-rule="nonzero" fill-opacity="1" /><path clip-path="url(#clip970)" d="M1840.95 1466.44 Q1837.8 1466.44 1835.95 1468.59 Q1834.12 1470.74 1834.12 1474.49 Q1834.12 1478.22 1835.95 1480.39 Q1837.8 1482.55 1840.95 1482.55 Q1844.09 1482.55 1845.92 1480.39 Q1847.78 1478.22 1847.78 1474.49 Q1847.78 1470.74 1845.92 1468.59 Q1844.09 1466.44 1840.95 1466.44 M1850.23 1451.78 L1850.23 1456.04 Q1848.47 1455.21 1846.66 1454.77 Q1844.88 1454.33 1843.12 1454.33 Q1838.49 1454.33 1836.04 1457.45 Q1833.61 1460.58 1833.26 1466.9 Q1834.63 1464.89 1836.69 1463.82 Q1838.75 1462.73 1841.22 1462.73 Q1846.43 1462.73 1849.44 1465.9 Q1852.47 1469.05 1852.47 1474.49 Q1852.47 1479.82 1849.33 1483.03 Q1846.18 1486.25 1840.95 1486.25 Q1834.95 1486.25 1831.78 1481.67 Q1828.61 1477.06 1828.61 1468.33 Q1828.61 1460.14 1832.5 1455.28 Q1836.39 1450.39 1842.94 1450.39 Q1844.7 1450.39 1846.48 1450.74 Q1848.28 1451.09 1850.23 1451.78 Z" fill="#000000" fill-rule="nonzero" fill-opacity="1" /><path clip-path="url(#clip970)" d="M2034.56 1481.64 L2042.2 1481.64 L2042.2 1455.28 L2033.89 1456.95 L2033.89 1452.69 L2042.15 1451.02 L2046.82 1451.02 L2046.82 1481.64 L2054.46 1481.64 L2054.46 1485.58 L2034.56 1485.58 L2034.56 1481.64 Z" fill="#000000" fill-rule="nonzero" fill-opacity="1" /><path clip-path="url(#clip970)" d="M2073.91 1469.17 Q2070.57 1469.17 2068.65 1470.95 Q2066.76 1472.73 2066.76 1475.86 Q2066.76 1478.98 2068.65 1480.77 Q2070.57 1482.55 2073.91 1482.55 Q2077.24 1482.55 2079.16 1480.77 Q2081.08 1478.96 2081.08 1475.86 Q2081.08 1472.73 2079.16 1470.95 Q2077.26 1469.17 2073.91 1469.17 M2069.23 1467.18 Q2066.22 1466.44 2064.53 1464.38 Q2062.87 1462.32 2062.87 1459.35 Q2062.87 1455.21 2065.81 1452.8 Q2068.77 1450.39 2073.91 1450.39 Q2079.07 1450.39 2082.01 1452.8 Q2084.95 1455.21 2084.95 1459.35 Q2084.95 1462.32 2083.26 1464.38 Q2081.59 1466.44 2078.61 1467.18 Q2081.99 1467.96 2083.86 1470.26 Q2085.76 1472.55 2085.76 1475.86 Q2085.76 1480.88 2082.68 1483.57 Q2079.63 1486.25 2073.91 1486.25 Q2068.19 1486.25 2065.11 1483.57 Q2062.06 1480.88 2062.06 1475.86 Q2062.06 1472.55 2063.95 1470.26 Q2065.85 1467.96 2069.23 1467.18 M2067.52 1459.79 Q2067.52 1462.48 2069.19 1463.98 Q2070.88 1465.49 2073.91 1465.49 Q2076.92 1465.49 2078.61 1463.98 Q2080.32 1462.48 2080.32 1459.79 Q2080.32 1457.11 2078.61 1455.6 Q2076.92 1454.1 2073.91 1454.1 Q2070.88 1454.1 2069.19 1455.6 Q2067.52 1457.11 2067.52 1459.79 Z" fill="#000000" fill-rule="nonzero" fill-opacity="1" /><path clip-path="url(#clip970)" d="M2272.01 1481.64 L2288.33 1481.64 L2288.33 1485.58 L2266.38 1485.58 L2266.38 1481.64 Q2269.05 1478.89 2273.63 1474.26 Q2278.24 1469.61 2279.42 1468.27 Q2281.66 1465.74 2282.54 1464.01 Q2283.44 1462.25 2283.44 1460.56 Q2283.44 1457.8 2281.5 1456.07 Q2279.58 1454.33 2276.48 1454.33 Q2274.28 1454.33 2271.82 1455.09 Q2269.39 1455.86 2266.62 1457.41 L2266.62 1452.69 Q2269.44 1451.55 2271.89 1450.97 Q2274.35 1450.39 2276.38 1450.39 Q2281.75 1450.39 2284.95 1453.08 Q2288.14 1455.77 2288.14 1460.26 Q2288.14 1462.39 2287.33 1464.31 Q2286.55 1466.2 2284.44 1468.8 Q2283.86 1469.47 2280.76 1472.69 Q2277.66 1475.88 2272.01 1481.64 Z" fill="#000000" fill-rule="nonzero" fill-opacity="1" /><path clip-path="url(#clip970)" d="M2308.14 1454.1 Q2304.53 1454.1 2302.7 1457.66 Q2300.9 1461.2 2300.9 1468.33 Q2300.9 1475.44 2302.7 1479.01 Q2304.53 1482.55 2308.14 1482.55 Q2311.78 1482.55 2313.58 1479.01 Q2315.41 1475.44 2315.41 1468.33 Q2315.41 1461.2 2313.58 1457.66 Q2311.78 1454.1 2308.14 1454.1 M2308.14 1450.39 Q2313.95 1450.39 2317.01 1455 Q2320.09 1459.58 2320.09 1468.33 Q2320.09 1477.06 2317.01 1481.67 Q2313.95 1486.25 2308.14 1486.25 Q2302.33 1486.25 2299.25 1481.67 Q2296.2 1477.06 2296.2 1468.33 Q2296.2 1459.58 2299.25 1455 Q2302.33 1450.39 2308.14 1450.39 Z" fill="#000000" fill-rule="nonzero" fill-opacity="1" /><path clip-path="url(#clip970)" d="M1311.3 1537.81 L1311.3 1518.52 L1317.16 1518.52 L1317.16 1568.04 L1311.3 1568.04 L1311.3 1562.7 Q1309.46 1565.88 1306.62 1567.44 Q1303.82 1568.97 1299.88 1568.97 Q1293.42 1568.97 1289.34 1563.81 Q1285.3 1558.65 1285.3 1550.25 Q1285.3 1541.85 1289.34 1536.69 Q1293.42 1531.54 1299.88 1531.54 Q1303.82 1531.54 1306.62 1533.1 Q1309.46 1534.62 1311.3 1537.81 M1291.35 1550.25 Q1291.35 1556.71 1293.99 1560.4 Q1296.66 1564.07 1301.31 1564.07 Q1305.96 1564.07 1308.63 1560.4 Q1311.3 1556.71 1311.3 1550.25 Q1311.3 1543.79 1308.63 1540.13 Q1305.96 1536.44 1301.31 1536.44 Q1296.66 1536.44 1293.99 1540.13 Q1291.35 1543.79 1291.35 1550.25 Z" fill="#000000" fill-rule="nonzero" fill-opacity="1" /><polyline clip-path="url(#clip970)" style="stroke:#000000; stroke-linecap:round; stroke-linejoin:round; stroke-width:4; stroke-opacity:1; fill:none" points="249.704,1423.18 249.704,123.472 "/>
<polyline clip-path="url(#clip970)" style="stroke:#000000; stroke-linecap:round; stroke-linejoin:round; stroke-width:4; stroke-opacity:1; fill:none" points="249.704,1206.29 268.602,1206.29 "/>
<polyline clip-path="url(#clip970)" style="stroke:#000000; stroke-linecap:round; stroke-linejoin:round; stroke-width:4; stroke-opacity:1; fill:none" points="249.704,985.879 268.602,985.879 "/>
<polyline clip-path="url(#clip970)" style="stroke:#000000; stroke-linecap:round; stroke-linejoin:round; stroke-width:4; stroke-opacity:1; fill:none" points="249.704,765.465 268.602,765.465 "/>
<polyline clip-path="url(#clip970)" style="stroke:#000000; stroke-linecap:round; stroke-linejoin:round; stroke-width:4; stroke-opacity:1; fill:none" points="249.704,545.051 268.602,545.051 "/>
<polyline clip-path="url(#clip970)" style="stroke:#000000; stroke-linecap:round; stroke-linejoin:round; stroke-width:4; stroke-opacity:1; fill:none" points="249.704,324.637 268.602,324.637 "/>
<path clip-path="url(#clip970)" d="M127.015 1192.09 Q123.404 1192.09 121.575 1195.66 Q119.769 1199.2 119.769 1206.33 Q119.769 1213.43 121.575 1217 Q123.404 1220.54 127.015 1220.54 Q130.649 1220.54 132.455 1217 Q134.283 1213.43 134.283 1206.33 Q134.283 1199.2 132.455 1195.66 Q130.649 1192.09 127.015 1192.09 M127.015 1188.39 Q132.825 1188.39 135.88 1192.99 Q138.959 1197.58 138.959 1206.33 Q138.959 1215.05 135.88 1219.66 Q132.825 1224.24 127.015 1224.24 Q121.205 1224.24 118.126 1219.66 Q115.07 1215.05 115.07 1206.33 Q115.07 1197.58 118.126 1192.99 Q121.205 1188.39 127.015 1188.39 Z" fill="#000000" fill-rule="nonzero" fill-opacity="1" /><path clip-path="url(#clip970)" d="M147.177 1217.69 L152.061 1217.69 L152.061 1223.57 L147.177 1223.57 L147.177 1217.69 Z" fill="#000000" fill-rule="nonzero" fill-opacity="1" /><path clip-path="url(#clip970)" d="M172.246 1192.09 Q168.635 1192.09 166.806 1195.66 Q165.001 1199.2 165.001 1206.33 Q165.001 1213.43 166.806 1217 Q168.635 1220.54 172.246 1220.54 Q175.88 1220.54 177.686 1217 Q179.514 1213.43 179.514 1206.33 Q179.514 1199.2 177.686 1195.66 Q175.88 1192.09 172.246 1192.09 M172.246 1188.39 Q178.056 1188.39 181.112 1192.99 Q184.19 1197.58 184.19 1206.33 Q184.19 1215.05 181.112 1219.66 Q178.056 1224.24 172.246 1224.24 Q166.436 1224.24 163.357 1219.66 Q160.302 1215.05 160.302 1206.33 Q160.302 1197.58 163.357 1192.99 Q166.436 1188.39 172.246 1188.39 Z" fill="#000000" fill-rule="nonzero" fill-opacity="1" /><path clip-path="url(#clip970)" d="M206.574 1204.94 Q209.931 1205.66 211.806 1207.92 Q213.704 1210.19 213.704 1213.53 Q213.704 1218.64 210.186 1221.44 Q206.667 1224.24 200.186 1224.24 Q198.01 1224.24 195.695 1223.8 Q193.403 1223.39 190.95 1222.53 L190.95 1218.02 Q192.894 1219.15 195.209 1219.73 Q197.524 1220.31 200.047 1220.31 Q204.445 1220.31 206.737 1218.57 Q209.051 1216.84 209.051 1213.53 Q209.051 1210.47 206.899 1208.76 Q204.769 1207.02 200.95 1207.02 L196.922 1207.02 L196.922 1203.18 L201.135 1203.18 Q204.584 1203.18 206.412 1201.81 Q208.241 1200.42 208.241 1197.83 Q208.241 1195.17 206.343 1193.76 Q204.468 1192.32 200.95 1192.32 Q199.028 1192.32 196.829 1192.74 Q194.63 1193.16 191.991 1194.04 L191.991 1189.87 Q194.653 1189.13 196.968 1188.76 Q199.306 1188.39 201.366 1188.39 Q206.69 1188.39 209.792 1190.82 Q212.894 1193.23 212.894 1197.35 Q212.894 1200.22 211.25 1202.21 Q209.607 1204.17 206.574 1204.94 Z" fill="#000000" fill-rule="nonzero" fill-opacity="1" /><path clip-path="url(#clip970)" d="M126.205 971.677 Q122.593 971.677 120.765 975.242 Q118.959 978.784 118.959 985.914 Q118.959 993.02 120.765 996.585 Q122.593 1000.13 126.205 1000.13 Q129.839 1000.13 131.644 996.585 Q133.473 993.02 133.473 985.914 Q133.473 978.784 131.644 975.242 Q129.839 971.677 126.205 971.677 M126.205 967.974 Q132.015 967.974 135.07 972.58 Q138.149 977.164 138.149 985.914 Q138.149 994.64 135.07 999.247 Q132.015 1003.83 126.205 1003.83 Q120.394 1003.83 117.316 999.247 Q114.26 994.64 114.26 985.914 Q114.26 977.164 117.316 972.58 Q120.394 967.974 126.205 967.974 Z" fill="#000000" fill-rule="nonzero" fill-opacity="1" /><path clip-path="url(#clip970)" d="M146.366 997.279 L151.251 997.279 L151.251 1003.16 L146.366 1003.16 L146.366 997.279 Z" fill="#000000" fill-rule="nonzero" fill-opacity="1" /><path clip-path="url(#clip970)" d="M171.436 971.677 Q167.825 971.677 165.996 975.242 Q164.19 978.784 164.19 985.914 Q164.19 993.02 165.996 996.585 Q167.825 1000.13 171.436 1000.13 Q175.07 1000.13 176.876 996.585 Q178.704 993.02 178.704 985.914 Q178.704 978.784 176.876 975.242 Q175.07 971.677 171.436 971.677 M171.436 967.974 Q177.246 967.974 180.301 972.58 Q183.38 977.164 183.38 985.914 Q183.38 994.64 180.301 999.247 Q177.246 1003.83 171.436 1003.83 Q165.626 1003.83 162.547 999.247 Q159.491 994.64 159.491 985.914 Q159.491 977.164 162.547 972.58 Q165.626 967.974 171.436 967.974 Z" fill="#000000" fill-rule="nonzero" fill-opacity="1" /><path clip-path="url(#clip970)" d="M202.176 984.015 Q199.028 984.015 197.176 986.168 Q195.348 988.321 195.348 992.071 Q195.348 995.798 197.176 997.974 Q199.028 1000.13 202.176 1000.13 Q205.324 1000.13 207.153 997.974 Q209.005 995.798 209.005 992.071 Q209.005 988.321 207.153 986.168 Q205.324 984.015 202.176 984.015 M211.459 969.363 L211.459 973.622 Q209.699 972.789 207.894 972.349 Q206.112 971.909 204.352 971.909 Q199.723 971.909 197.269 975.034 Q194.838 978.159 194.491 984.478 Q195.857 982.464 197.917 981.4 Q199.977 980.312 202.454 980.312 Q207.662 980.312 210.672 983.483 Q213.704 986.631 213.704 992.071 Q213.704 997.395 210.556 1000.61 Q207.408 1003.83 202.176 1003.83 Q196.181 1003.83 193.01 999.247 Q189.838 994.64 189.838 985.914 Q189.838 977.719 193.727 972.858 Q197.616 967.974 204.167 967.974 Q205.926 967.974 207.709 968.321 Q209.514 968.668 211.459 969.363 Z" fill="#000000" fill-rule="nonzero" fill-opacity="1" /><path clip-path="url(#clip970)" d="M126.552 751.264 Q122.941 751.264 121.112 754.828 Q119.306 758.37 119.306 765.5 Q119.306 772.606 121.112 776.171 Q122.941 779.712 126.552 779.712 Q130.186 779.712 131.992 776.171 Q133.82 772.606 133.82 765.5 Q133.82 758.37 131.992 754.828 Q130.186 751.264 126.552 751.264 M126.552 747.56 Q132.362 747.56 135.417 752.166 Q138.496 756.75 138.496 765.5 Q138.496 774.226 135.417 778.833 Q132.362 783.416 126.552 783.416 Q120.742 783.416 117.663 778.833 Q114.607 774.226 114.607 765.5 Q114.607 756.75 117.663 752.166 Q120.742 747.56 126.552 747.56 Z" fill="#000000" fill-rule="nonzero" fill-opacity="1" /><path clip-path="url(#clip970)" d="M146.714 776.865 L151.598 776.865 L151.598 782.745 L146.714 782.745 L146.714 776.865 Z" fill="#000000" fill-rule="nonzero" fill-opacity="1" /><path clip-path="url(#clip970)" d="M171.783 751.264 Q168.172 751.264 166.343 754.828 Q164.538 758.37 164.538 765.5 Q164.538 772.606 166.343 776.171 Q168.172 779.712 171.783 779.712 Q175.417 779.712 177.223 776.171 Q179.051 772.606 179.051 765.5 Q179.051 758.37 177.223 754.828 Q175.417 751.264 171.783 751.264 M171.783 747.56 Q177.593 747.56 180.649 752.166 Q183.727 756.75 183.727 765.5 Q183.727 774.226 180.649 778.833 Q177.593 783.416 171.783 783.416 Q165.973 783.416 162.894 778.833 Q159.839 774.226 159.839 765.5 Q159.839 756.75 162.894 752.166 Q165.973 747.56 171.783 747.56 Z" fill="#000000" fill-rule="nonzero" fill-opacity="1" /><path clip-path="url(#clip970)" d="M192.084 782.027 L192.084 777.768 Q193.843 778.601 195.649 779.041 Q197.454 779.481 199.19 779.481 Q203.82 779.481 206.25 776.379 Q208.704 773.254 209.051 766.912 Q207.709 768.902 205.649 769.967 Q203.588 771.032 201.088 771.032 Q195.903 771.032 192.871 767.907 Q189.862 764.759 189.862 759.319 Q189.862 753.995 193.01 750.777 Q196.158 747.56 201.389 747.56 Q207.385 747.56 210.533 752.166 Q213.704 756.75 213.704 765.5 Q213.704 773.671 209.815 778.555 Q205.949 783.416 199.399 783.416 Q197.639 783.416 195.834 783.069 Q194.028 782.722 192.084 782.027 M201.389 767.375 Q204.537 767.375 206.366 765.222 Q208.218 763.069 208.218 759.319 Q208.218 755.592 206.366 753.439 Q204.537 751.264 201.389 751.264 Q198.241 751.264 196.389 753.439 Q194.561 755.592 194.561 759.319 Q194.561 763.069 196.389 765.222 Q198.241 767.375 201.389 767.375 Z" fill="#000000" fill-rule="nonzero" fill-opacity="1" /><path clip-path="url(#clip970)" d="M127.964 530.85 Q124.353 530.85 122.524 534.414 Q120.718 537.956 120.718 545.086 Q120.718 552.192 122.524 555.757 Q124.353 559.299 127.964 559.299 Q131.598 559.299 133.404 555.757 Q135.232 552.192 135.232 545.086 Q135.232 537.956 133.404 534.414 Q131.598 530.85 127.964 530.85 M127.964 527.146 Q133.774 527.146 136.829 531.752 Q139.908 536.336 139.908 545.086 Q139.908 553.812 136.829 558.419 Q133.774 563.002 127.964 563.002 Q122.154 563.002 119.075 558.419 Q116.019 553.812 116.019 545.086 Q116.019 536.336 119.075 531.752 Q122.154 527.146 127.964 527.146 Z" fill="#000000" fill-rule="nonzero" fill-opacity="1" /><path clip-path="url(#clip970)" d="M148.126 556.451 L153.01 556.451 L153.01 562.331 L148.126 562.331 L148.126 556.451 Z" fill="#000000" fill-rule="nonzero" fill-opacity="1" /><path clip-path="url(#clip970)" d="M164.005 558.396 L171.644 558.396 L171.644 532.03 L163.334 533.697 L163.334 529.438 L171.598 527.771 L176.274 527.771 L176.274 558.396 L183.913 558.396 L183.913 562.331 L164.005 562.331 L164.005 558.396 Z" fill="#000000" fill-rule="nonzero" fill-opacity="1" /><path clip-path="url(#clip970)" d="M197.385 558.396 L213.704 558.396 L213.704 562.331 L191.76 562.331 L191.76 558.396 Q194.422 555.641 199.005 551.012 Q203.612 546.359 204.792 545.016 Q207.037 542.493 207.917 540.757 Q208.82 538.998 208.82 537.308 Q208.82 534.553 206.875 532.817 Q204.954 531.081 201.852 531.081 Q199.653 531.081 197.2 531.845 Q194.769 532.609 191.991 534.16 L191.991 529.438 Q194.815 528.303 197.269 527.725 Q199.723 527.146 201.76 527.146 Q207.13 527.146 210.324 529.831 Q213.519 532.516 213.519 537.007 Q213.519 539.137 212.709 541.058 Q211.922 542.956 209.815 545.549 Q209.237 546.22 206.135 549.437 Q203.033 552.632 197.385 558.396 Z" fill="#000000" fill-rule="nonzero" fill-opacity="1" /><path clip-path="url(#clip970)" d="M127.362 310.436 Q123.751 310.436 121.922 314 Q120.117 317.542 120.117 324.672 Q120.117 331.778 121.922 335.343 Q123.751 338.885 127.362 338.885 Q130.996 338.885 132.802 335.343 Q134.63 331.778 134.63 324.672 Q134.63 317.542 132.802 314 Q130.996 310.436 127.362 310.436 M127.362 306.732 Q133.172 306.732 136.228 311.338 Q139.306 315.922 139.306 324.672 Q139.306 333.398 136.228 338.005 Q133.172 342.588 127.362 342.588 Q121.552 342.588 118.473 338.005 Q115.418 333.398 115.418 324.672 Q115.418 315.922 118.473 311.338 Q121.552 306.732 127.362 306.732 Z" fill="#000000" fill-rule="nonzero" fill-opacity="1" /><path clip-path="url(#clip970)" d="M147.524 336.037 L152.408 336.037 L152.408 341.917 L147.524 341.917 L147.524 336.037 Z" fill="#000000" fill-rule="nonzero" fill-opacity="1" /><path clip-path="url(#clip970)" d="M163.403 337.982 L171.042 337.982 L171.042 311.616 L162.732 313.283 L162.732 309.024 L170.996 307.357 L175.672 307.357 L175.672 337.982 L183.311 337.982 L183.311 341.917 L163.403 341.917 L163.403 337.982 Z" fill="#000000" fill-rule="nonzero" fill-opacity="1" /><path clip-path="url(#clip970)" d="M192.801 307.357 L211.158 307.357 L211.158 311.292 L197.084 311.292 L197.084 319.764 Q198.102 319.417 199.121 319.255 Q200.139 319.07 201.158 319.07 Q206.945 319.07 210.324 322.241 Q213.704 325.412 213.704 330.829 Q213.704 336.408 210.232 339.51 Q206.76 342.588 200.44 342.588 Q198.264 342.588 195.996 342.218 Q193.75 341.847 191.343 341.107 L191.343 336.408 Q193.426 337.542 195.649 338.098 Q197.871 338.653 200.348 338.653 Q204.352 338.653 206.69 336.547 Q209.028 334.44 209.028 330.829 Q209.028 327.218 206.69 325.111 Q204.352 323.005 200.348 323.005 Q198.473 323.005 196.598 323.422 Q194.746 323.838 192.801 324.718 L192.801 307.357 Z" fill="#000000" fill-rule="nonzero" fill-opacity="1" /><path clip-path="url(#clip970)" d="M16.4842 939.582 L16.4842 930.002 L48.8219 917.875 L16.4842 905.685 L16.4842 896.105 L64.0042 896.105 L64.0042 902.375 L22.277 902.375 L54.8694 914.629 L54.8694 921.09 L22.277 933.344 L64.0042 933.344 L64.0042 939.582 L16.4842 939.582 Z" fill="#000000" fill-rule="nonzero" fill-opacity="1" /><path clip-path="url(#clip970)" d="M46.0847 867.395 Q46.0847 874.493 47.7079 877.23 Q49.3312 879.967 53.2461 879.967 Q56.3653 879.967 58.2114 877.93 Q60.0256 875.862 60.0256 872.329 Q60.0256 867.459 56.5881 864.531 Q53.1188 861.571 47.3897 861.571 L46.0847 861.571 L46.0847 867.395 M43.6657 855.714 L64.0042 855.714 L64.0042 861.571 L58.5933 861.571 Q61.8398 863.576 63.3994 866.568 Q64.9272 869.56 64.9272 873.888 Q64.9272 879.363 61.8716 882.609 Q58.7843 885.824 53.6281 885.824 Q47.6125 885.824 44.5569 881.814 Q41.5014 877.771 41.5014 869.782 L41.5014 861.571 L40.9285 861.571 Q36.8862 861.571 34.6901 864.244 Q32.4621 866.886 32.4621 871.692 Q32.4621 874.748 33.1941 877.644 Q33.9262 880.54 35.3903 883.214 L29.9795 883.214 Q28.7381 879.999 28.1334 876.976 Q27.4968 873.952 27.4968 871.087 Q27.4968 863.353 31.5072 859.534 Q35.5176 855.714 43.6657 855.714 Z" fill="#000000" fill-rule="nonzero" fill-opacity="1" /><path clip-path="url(#clip970)" d="M28.3562 814.019 L45.7028 826.909 L64.0042 813.35 L64.0042 820.257 L49.9996 830.633 L64.0042 841.009 L64.0042 847.916 L45.3526 834.071 L28.3562 846.738 L28.3562 839.832 L41.0558 830.379 L28.3562 820.926 L28.3562 814.019 Z" fill="#000000" fill-rule="nonzero" fill-opacity="1" /><path clip-path="url(#clip970)" d="M14.5426 791.007 Q21.8632 795.272 29.0246 797.341 Q36.186 799.409 43.5384 799.409 Q50.8908 799.409 58.1159 797.341 Q65.3091 795.24 72.5979 791.007 L72.5979 796.099 Q65.1182 800.874 57.8931 803.261 Q50.668 805.616 43.5384 805.616 Q36.4406 805.616 29.2474 803.261 Q22.0542 800.905 14.5426 796.099 L14.5426 791.007 Z" fill="#000000" fill-rule="nonzero" fill-opacity="1" /><path clip-path="url(#clip970)" d="M16.4842 779.389 L16.4842 749.343 L21.895 749.343 L21.895 772.96 L35.9632 772.96 L35.9632 750.33 L41.3741 750.33 L41.3741 772.96 L58.5933 772.96 L58.5933 748.77 L64.0042 748.77 L64.0042 779.389 L16.4842 779.389 Z" fill="#000000" fill-rule="nonzero" fill-opacity="1" /><path clip-path="url(#clip970)" d="M33.8307 717.801 Q33.2578 718.788 33.0032 719.965 Q32.7167 721.111 32.7167 722.512 Q32.7167 727.477 35.9632 730.151 Q39.1779 732.792 45.2253 732.792 L64.0042 732.792 L64.0042 738.681 L28.3562 738.681 L28.3562 732.792 L33.8944 732.792 Q30.6479 730.946 29.0883 727.986 Q27.4968 725.026 27.4968 720.793 Q27.4968 720.188 27.5923 719.456 Q27.656 718.724 27.8151 717.833 L33.8307 717.801 Z" fill="#000000" fill-rule="nonzero" fill-opacity="1" /><path clip-path="url(#clip970)" d="M33.8307 692.147 Q33.2578 693.134 33.0032 694.312 Q32.7167 695.457 32.7167 696.858 Q32.7167 701.823 35.9632 704.497 Q39.1779 707.139 45.2253 707.139 L64.0042 707.139 L64.0042 713.027 L28.3562 713.027 L28.3562 707.139 L33.8944 707.139 Q30.6479 705.292 29.0883 702.332 Q27.4968 699.372 27.4968 695.139 Q27.4968 694.534 27.5923 693.802 Q27.656 693.07 27.8151 692.179 L33.8307 692.147 Z" fill="#000000" fill-rule="nonzero" fill-opacity="1" /><path clip-path="url(#clip970)" d="M32.4621 673.623 Q32.4621 678.334 36.1542 681.071 Q39.8145 683.808 46.212 683.808 Q52.6095 683.808 56.3017 681.103 Q59.9619 678.366 59.9619 673.623 Q59.9619 668.944 56.2698 666.207 Q52.5777 663.47 46.212 663.47 Q39.8781 663.47 36.186 666.207 Q32.4621 668.944 32.4621 673.623 M27.4968 673.623 Q27.4968 665.984 32.4621 661.624 Q37.4273 657.263 46.212 657.263 Q54.9649 657.263 59.9619 661.624 Q64.9272 665.984 64.9272 673.623 Q64.9272 681.294 59.9619 685.654 Q54.9649 689.983 46.212 689.983 Q37.4273 689.983 32.4621 685.654 Q27.4968 681.294 27.4968 673.623 Z" fill="#000000" fill-rule="nonzero" fill-opacity="1" /><path clip-path="url(#clip970)" d="M33.8307 626.899 Q33.2578 627.886 33.0032 629.063 Q32.7167 630.209 32.7167 631.609 Q32.7167 636.575 35.9632 639.248 Q39.1779 641.89 45.2253 641.89 L64.0042 641.89 L64.0042 647.778 L28.3562 647.778 L28.3562 641.89 L33.8944 641.89 Q30.6479 640.044 29.0883 637.084 Q27.4968 634.124 27.4968 629.891 Q27.4968 629.286 27.5923 628.554 Q27.656 627.822 27.8151 626.931 L33.8307 626.899 Z" fill="#000000" fill-rule="nonzero" fill-opacity="1" /><path clip-path="url(#clip970)" d="M14.5426 621.679 L14.5426 616.586 Q22.0542 611.812 29.2474 609.457 Q36.4406 607.07 43.5384 607.07 Q50.668 607.07 57.8931 609.457 Q65.1182 611.812 72.5979 616.586 L72.5979 621.679 Q65.3091 617.446 58.1159 615.377 Q50.8908 613.276 43.5384 613.276 Q36.186 613.276 29.0246 615.377 Q21.8632 617.446 14.5426 621.679 Z" fill="#000000" fill-rule="nonzero" fill-opacity="1" /><path clip-path="url(#clip970)" d="M723.875 12.096 L732.058 12.096 L732.058 65.6895 L761.508 65.6895 L761.508 72.576 L723.875 72.576 L723.875 12.096 Z" fill="#000000" fill-rule="nonzero" fill-opacity="1" /><path clip-path="url(#clip970)" d="M807.121 48.0275 L807.121 51.6733 L772.85 51.6733 Q773.336 59.3701 777.468 63.421 Q781.641 67.4314 789.054 67.4314 Q793.348 67.4314 797.358 66.3781 Q801.409 65.3249 805.379 63.2184 L805.379 70.267 Q801.369 71.9684 797.156 72.8596 Q792.943 73.7508 788.608 73.7508 Q777.752 73.7508 771.392 67.4314 Q765.073 61.1119 765.073 50.3365 Q765.073 39.1965 771.068 32.6746 Q777.104 26.1121 787.312 26.1121 Q796.467 26.1121 801.774 32.0264 Q807.121 37.9003 807.121 48.0275 M799.667 45.84 Q799.586 39.7232 796.224 36.0774 Q792.902 32.4315 787.393 32.4315 Q781.155 32.4315 777.387 35.9558 Q773.66 39.4801 773.093 45.8805 L799.667 45.84 Z" fill="#000000" fill-rule="nonzero" fill-opacity="1" /><path clip-path="url(#clip970)" d="M849.21 49.3643 Q849.21 41.2625 845.848 36.8065 Q842.526 32.3505 836.49 32.3505 Q830.495 32.3505 827.132 36.8065 Q823.811 41.2625 823.811 49.3643 Q823.811 57.4256 827.132 61.8816 Q830.495 66.3376 836.49 66.3376 Q842.526 66.3376 845.848 61.8816 Q849.21 57.4256 849.21 49.3643 M856.664 66.9452 Q856.664 78.5308 851.519 84.1616 Q846.374 89.8329 835.761 89.8329 Q831.831 89.8329 828.348 89.2252 Q824.864 88.6581 821.583 87.4428 L821.583 80.1917 Q824.864 81.9741 828.064 82.8248 Q831.264 83.6755 834.586 83.6755 Q841.918 83.6755 845.564 79.8271 Q849.21 76.0193 849.21 68.282 L849.21 64.5957 Q846.901 68.6061 843.296 70.5911 Q839.69 72.576 834.667 72.576 Q826.322 72.576 821.218 66.2161 Q816.114 59.8562 816.114 49.3643 Q816.114 38.832 821.218 32.472 Q826.322 26.1121 834.667 26.1121 Q839.69 26.1121 843.296 28.0971 Q846.901 30.082 849.21 34.0924 L849.21 27.2059 L856.664 27.2059 L856.664 66.9452 Z" fill="#000000" fill-rule="nonzero" fill-opacity="1" /><path clip-path="url(#clip970)" d="M910.824 48.0275 L910.824 51.6733 L876.553 51.6733 Q877.04 59.3701 881.171 63.421 Q885.344 67.4314 892.757 67.4314 Q897.051 67.4314 901.061 66.3781 Q905.112 65.3249 909.082 63.2184 L909.082 70.267 Q905.072 71.9684 900.859 72.8596 Q896.646 73.7508 892.311 73.7508 Q881.455 73.7508 875.095 67.4314 Q868.776 61.1119 868.776 50.3365 Q868.776 39.1965 874.771 32.6746 Q880.807 26.1121 891.015 26.1121 Q900.17 26.1121 905.477 32.0264 Q910.824 37.9003 910.824 48.0275 M903.37 45.84 Q903.289 39.7232 899.927 36.0774 Q896.605 32.4315 891.096 32.4315 Q884.858 32.4315 881.09 35.9558 Q877.364 39.4801 876.796 45.8805 L903.37 45.84 Z" fill="#000000" fill-rule="nonzero" fill-opacity="1" /><path clip-path="url(#clip970)" d="M960.772 45.1919 L960.772 72.576 L953.318 72.576 L953.318 45.4349 Q953.318 38.994 950.807 35.7938 Q948.295 32.5936 943.272 32.5936 Q937.236 32.5936 933.752 36.4419 Q930.268 40.2903 930.268 46.9338 L930.268 72.576 L922.774 72.576 L922.774 27.2059 L930.268 27.2059 L930.268 34.2544 Q932.942 30.163 936.547 28.1376 Q940.193 26.1121 944.933 26.1121 Q952.751 26.1121 956.761 30.9732 Q960.772 35.7938 960.772 45.1919 Z" fill="#000000" fill-rule="nonzero" fill-opacity="1" /><path clip-path="url(#clip970)" d="M1005.49 34.0924 L1005.49 9.54393 L1012.95 9.54393 L1012.95 72.576 L1005.49 72.576 L1005.49 65.7705 Q1003.14 69.8214 999.539 71.8063 Q995.974 73.7508 990.951 73.7508 Q982.728 73.7508 977.542 67.1883 Q972.398 60.6258 972.398 49.9314 Q972.398 39.2371 977.542 32.6746 Q982.728 26.1121 990.951 26.1121 Q995.974 26.1121 999.539 28.0971 Q1003.14 30.0415 1005.49 34.0924 M980.095 49.9314 Q980.095 58.1548 983.457 62.8538 Q986.86 67.5124 992.774 67.5124 Q998.688 67.5124 1002.09 62.8538 Q1005.49 58.1548 1005.49 49.9314 Q1005.49 41.7081 1002.09 37.0496 Q998.688 32.3505 992.774 32.3505 Q986.86 32.3505 983.457 37.0496 Q980.095 41.7081 980.095 49.9314 Z" fill="#000000" fill-rule="nonzero" fill-opacity="1" /><path clip-path="url(#clip970)" d="M1054.59 34.1734 Q1053.33 33.4443 1051.84 33.1202 Q1050.38 32.7556 1048.6 32.7556 Q1042.28 32.7556 1038.87 36.8875 Q1035.51 40.9789 1035.51 48.6757 L1035.51 72.576 L1028.02 72.576 L1028.02 27.2059 L1035.51 27.2059 L1035.51 34.2544 Q1037.86 30.1225 1041.63 28.1376 Q1045.4 26.1121 1050.78 26.1121 Q1051.55 26.1121 1052.48 26.2337 Q1053.42 26.3147 1054.55 26.5172 L1054.59 34.1734 Z" fill="#000000" fill-rule="nonzero" fill-opacity="1" /><path clip-path="url(#clip970)" d="M1099.39 48.0275 L1099.39 51.6733 L1065.12 51.6733 Q1065.61 59.3701 1069.74 63.421 Q1073.91 67.4314 1081.33 67.4314 Q1085.62 67.4314 1089.63 66.3781 Q1093.68 65.3249 1097.65 63.2184 L1097.65 70.267 Q1093.64 71.9684 1089.43 72.8596 Q1085.22 73.7508 1080.88 73.7508 Q1070.02 73.7508 1063.66 67.4314 Q1057.35 61.1119 1057.35 50.3365 Q1057.35 39.1965 1063.34 32.6746 Q1069.38 26.1121 1079.58 26.1121 Q1088.74 26.1121 1094.05 32.0264 Q1099.39 37.9003 1099.39 48.0275 M1091.94 45.84 Q1091.86 39.7232 1088.5 36.0774 Q1085.18 32.4315 1079.67 32.4315 Q1073.43 32.4315 1069.66 35.9558 Q1065.93 39.4801 1065.37 45.8805 L1091.94 45.84 Z" fill="#000000" fill-rule="nonzero" fill-opacity="1" /><path clip-path="url(#clip970)" d="M1146.51 18.8205 L1146.51 65.8515 L1156.39 65.8515 Q1168.91 65.8515 1174.7 60.1802 Q1180.53 54.509 1180.53 42.2752 Q1180.53 30.1225 1174.7 24.4918 Q1168.91 18.8205 1156.39 18.8205 L1146.51 18.8205 M1138.32 12.096 L1155.13 12.096 Q1172.72 12.096 1180.94 19.4281 Q1189.16 26.7198 1189.16 42.2752 Q1189.16 57.9117 1180.9 65.2439 Q1172.63 72.576 1155.13 72.576 L1138.32 72.576 L1138.32 12.096 Z" fill="#000000" fill-rule="nonzero" fill-opacity="1" /><path clip-path="url(#clip970)" d="M1219.46 32.4315 Q1213.47 32.4315 1209.98 37.1306 Q1206.5 41.7891 1206.5 49.9314 Q1206.5 58.0738 1209.94 62.7728 Q1213.43 67.4314 1219.46 67.4314 Q1225.42 67.4314 1228.9 62.7323 Q1232.38 58.0333 1232.38 49.9314 Q1232.38 41.8701 1228.9 37.1711 Q1225.42 32.4315 1219.46 32.4315 M1219.46 26.1121 Q1229.18 26.1121 1234.73 32.4315 Q1240.28 38.7509 1240.28 49.9314 Q1240.28 61.0714 1234.73 67.4314 Q1229.18 73.7508 1219.46 73.7508 Q1209.7 73.7508 1204.15 67.4314 Q1198.64 61.0714 1198.64 49.9314 Q1198.64 38.7509 1204.15 32.4315 Q1209.7 26.1121 1219.46 26.1121 Z" fill="#000000" fill-rule="nonzero" fill-opacity="1" /><path clip-path="url(#clip970)" d="M1287.96 35.9153 Q1290.76 30.8922 1294.65 28.5022 Q1298.54 26.1121 1303.8 26.1121 Q1310.89 26.1121 1314.74 31.0947 Q1318.59 36.0368 1318.59 45.1919 L1318.59 72.576 L1311.09 72.576 L1311.09 45.4349 Q1311.09 38.913 1308.78 35.7533 Q1306.48 32.5936 1301.74 32.5936 Q1295.94 32.5936 1292.58 36.4419 Q1289.22 40.2903 1289.22 46.9338 L1289.22 72.576 L1281.72 72.576 L1281.72 45.4349 Q1281.72 38.8725 1279.42 35.7533 Q1277.11 32.5936 1272.29 32.5936 Q1266.57 32.5936 1263.21 36.4824 Q1259.85 40.3308 1259.85 46.9338 L1259.85 72.576 L1252.36 72.576 L1252.36 27.2059 L1259.85 27.2059 L1259.85 34.2544 Q1262.4 30.082 1265.97 28.0971 Q1269.53 26.1121 1274.43 26.1121 Q1279.38 26.1121 1282.82 28.6237 Q1286.3 31.1352 1287.96 35.9153 Z" fill="#000000" fill-rule="nonzero" fill-opacity="1" /><path clip-path="url(#clip970)" d="M1354.07 49.7694 Q1345.04 49.7694 1341.56 51.8354 Q1338.07 53.9013 1338.07 58.8839 Q1338.07 62.8538 1340.67 65.2034 Q1343.3 67.5124 1347.8 67.5124 Q1353.99 67.5124 1357.72 63.1374 Q1361.49 58.7219 1361.49 51.4303 L1361.49 49.7694 L1354.07 49.7694 M1368.94 46.6907 L1368.94 72.576 L1361.49 72.576 L1361.49 65.6895 Q1358.94 69.8214 1355.13 71.8063 Q1351.32 73.7508 1345.81 73.7508 Q1338.84 73.7508 1334.71 69.8619 Q1330.62 65.9325 1330.62 59.3701 Q1330.62 51.7138 1335.72 47.825 Q1340.87 43.9361 1351.04 43.9361 L1361.49 43.9361 L1361.49 43.2069 Q1361.49 38.0623 1358.08 35.2672 Q1354.72 32.4315 1348.61 32.4315 Q1344.72 32.4315 1341.03 33.3632 Q1337.34 34.295 1333.94 36.1584 L1333.94 29.2718 Q1338.03 27.692 1341.88 26.9223 Q1345.73 26.1121 1349.37 26.1121 Q1359.22 26.1121 1364.08 31.2163 Q1368.94 36.3204 1368.94 46.6907 Z" fill="#000000" fill-rule="nonzero" fill-opacity="1" /><path clip-path="url(#clip970)" d="M1384.29 27.2059 L1391.75 27.2059 L1391.75 72.576 L1384.29 72.576 L1384.29 27.2059 M1384.29 9.54393 L1391.75 9.54393 L1391.75 18.9825 L1384.29 18.9825 L1384.29 9.54393 Z" fill="#000000" fill-rule="nonzero" fill-opacity="1" /><path clip-path="url(#clip970)" d="M1445.06 45.1919 L1445.06 72.576 L1437.6 72.576 L1437.6 45.4349 Q1437.6 38.994 1435.09 35.7938 Q1432.58 32.5936 1427.56 32.5936 Q1421.52 32.5936 1418.04 36.4419 Q1414.55 40.2903 1414.55 46.9338 L1414.55 72.576 L1407.06 72.576 L1407.06 27.2059 L1414.55 27.2059 L1414.55 34.2544 Q1417.23 30.163 1420.83 28.1376 Q1424.48 26.1121 1429.22 26.1121 Q1437.04 26.1121 1441.05 30.9732 Q1445.06 35.7938 1445.06 45.1919 Z" fill="#000000" fill-rule="nonzero" fill-opacity="1" /><path clip-path="url(#clip970)" d="M1486.62 12.096 L1498.81 12.096 L1514.25 53.2532 L1529.76 12.096 L1541.95 12.096 L1541.95 72.576 L1533.97 72.576 L1533.97 19.4686 L1518.38 60.9499 L1510.16 60.9499 L1494.56 19.4686 L1494.56 72.576 L1486.62 72.576 L1486.62 12.096 Z" fill="#000000" fill-rule="nonzero" fill-opacity="1" /><path clip-path="url(#clip970)" d="M1578.49 49.7694 Q1569.46 49.7694 1565.98 51.8354 Q1562.49 53.9013 1562.49 58.8839 Q1562.49 62.8538 1565.09 65.2034 Q1567.72 67.5124 1572.22 67.5124 Q1578.41 67.5124 1582.14 63.1374 Q1585.91 58.7219 1585.91 51.4303 L1585.91 49.7694 L1578.49 49.7694 M1593.36 46.6907 L1593.36 72.576 L1585.91 72.576 L1585.91 65.6895 Q1583.36 69.8214 1579.55 71.8063 Q1575.74 73.7508 1570.23 73.7508 Q1563.26 73.7508 1559.13 69.8619 Q1555.04 65.9325 1555.04 59.3701 Q1555.04 51.7138 1560.14 47.825 Q1565.29 43.9361 1575.46 43.9361 L1585.91 43.9361 L1585.91 43.2069 Q1585.91 38.0623 1582.5 35.2672 Q1579.14 32.4315 1573.03 32.4315 Q1569.14 32.4315 1565.45 33.3632 Q1561.76 34.295 1558.36 36.1584 L1558.36 29.2718 Q1562.45 27.692 1566.3 26.9223 Q1570.15 26.1121 1573.8 26.1121 Q1583.64 26.1121 1588.5 31.2163 Q1593.36 36.3204 1593.36 46.6907 Z" fill="#000000" fill-rule="nonzero" fill-opacity="1" /><path clip-path="url(#clip970)" d="M1646.43 27.2059 L1630.02 49.2833 L1647.28 72.576 L1638.49 72.576 L1625.28 54.752 L1612.08 72.576 L1603.29 72.576 L1620.91 48.8377 L1604.78 27.2059 L1613.57 27.2059 L1625.61 43.369 L1637.64 27.2059 L1646.43 27.2059 Z" fill="#000000" fill-rule="nonzero" fill-opacity="1" /><path clip-path="url(#clip970)" d="M1684.51 12.096 L1722.75 12.096 L1722.75 18.9825 L1692.69 18.9825 L1692.69 36.8875 L1721.49 36.8875 L1721.49 43.7741 L1692.69 43.7741 L1692.69 65.6895 L1723.48 65.6895 L1723.48 72.576 L1684.51 72.576 L1684.51 12.096 Z" fill="#000000" fill-rule="nonzero" fill-opacity="1" /><path clip-path="url(#clip970)" d="M1762.89 34.1734 Q1761.64 33.4443 1760.14 33.1202 Q1758.68 32.7556 1756.9 32.7556 Q1750.58 32.7556 1747.17 36.8875 Q1743.81 40.9789 1743.81 48.6757 L1743.81 72.576 L1736.32 72.576 L1736.32 27.2059 L1743.81 27.2059 L1743.81 34.2544 Q1746.16 30.1225 1749.93 28.1376 Q1753.7 26.1121 1759.08 26.1121 Q1759.85 26.1121 1760.78 26.2337 Q1761.72 26.3147 1762.85 26.5172 L1762.89 34.1734 Z" fill="#000000" fill-rule="nonzero" fill-opacity="1" /><path clip-path="url(#clip970)" d="M1795.54 34.1734 Q1794.29 33.4443 1792.79 33.1202 Q1791.33 32.7556 1789.55 32.7556 Q1783.23 32.7556 1779.82 36.8875 Q1776.46 40.9789 1776.46 48.6757 L1776.46 72.576 L1768.97 72.576 L1768.97 27.2059 L1776.46 27.2059 L1776.46 34.2544 Q1778.81 30.1225 1782.58 28.1376 Q1786.35 26.1121 1791.73 26.1121 Q1792.5 26.1121 1793.44 26.2337 Q1794.37 26.3147 1795.5 26.5172 L1795.54 34.1734 Z" fill="#000000" fill-rule="nonzero" fill-opacity="1" /><path clip-path="url(#clip970)" d="M1819.12 32.4315 Q1813.12 32.4315 1809.64 37.1306 Q1806.15 41.7891 1806.15 49.9314 Q1806.15 58.0738 1809.6 62.7728 Q1813.08 67.4314 1819.12 67.4314 Q1825.07 67.4314 1828.56 62.7323 Q1832.04 58.0333 1832.04 49.9314 Q1832.04 41.8701 1828.56 37.1711 Q1825.07 32.4315 1819.12 32.4315 M1819.12 26.1121 Q1828.84 26.1121 1834.39 32.4315 Q1839.94 38.7509 1839.94 49.9314 Q1839.94 61.0714 1834.39 67.4314 Q1828.84 73.7508 1819.12 73.7508 Q1809.36 73.7508 1803.81 67.4314 Q1798.3 61.0714 1798.3 49.9314 Q1798.3 38.7509 1803.81 32.4315 Q1809.36 26.1121 1819.12 26.1121 Z" fill="#000000" fill-rule="nonzero" fill-opacity="1" /><path clip-path="url(#clip970)" d="M1878.59 34.1734 Q1877.33 33.4443 1875.83 33.1202 Q1874.37 32.7556 1872.59 32.7556 Q1866.27 32.7556 1862.87 36.8875 Q1859.51 40.9789 1859.51 48.6757 L1859.51 72.576 L1852.01 72.576 L1852.01 27.2059 L1859.51 27.2059 L1859.51 34.2544 Q1861.85 30.1225 1865.62 28.1376 Q1869.39 26.1121 1874.78 26.1121 Q1875.55 26.1121 1876.48 26.2337 Q1877.41 26.3147 1878.54 26.5172 L1878.59 34.1734 Z" fill="#000000" fill-rule="nonzero" fill-opacity="1" /><polyline clip-path="url(#clip972)" style="stroke:#d52628; stroke-linecap:round; stroke-linejoin:round; stroke-width:8; stroke-opacity:1; fill:none" points="309.224,427.164 425.931,603.554 542.637,730.946 659.344,848.908 776.051,942.495 892.757,1020.03 1009.46,1077.28 1126.17,1120.39 1242.88,1162.12 1359.58,1191.52 1476.29,1225.82 1593,1255.22 1709.7,1274.82 1826.41,1294.41 1943.12,1309.11 2059.82,1323.81 2176.53,1333.61 2293.24,1343.41 "/>
<circle clip-path="url(#clip972)" cx="309.224" cy="427.164" r="14.4" fill="#d52628" fill-rule="evenodd" fill-opacity="1" stroke="#000000" stroke-opacity="1" stroke-width="3.2"/>
<circle clip-path="url(#clip972)" cx="425.931" cy="603.554" r="14.4" fill="#d52628" fill-rule="evenodd" fill-opacity="1" stroke="#000000" stroke-opacity="1" stroke-width="3.2"/>
<circle clip-path="url(#clip972)" cx="542.637" cy="730.946" r="14.4" fill="#d52628" fill-rule="evenodd" fill-opacity="1" stroke="#000000" stroke-opacity="1" stroke-width="3.2"/>
<circle clip-path="url(#clip972)" cx="659.344" cy="848.908" r="14.4" fill="#d52628" fill-rule="evenodd" fill-opacity="1" stroke="#000000" stroke-opacity="1" stroke-width="3.2"/>
<circle clip-path="url(#clip972)" cx="776.051" cy="942.495" r="14.4" fill="#d52628" fill-rule="evenodd" fill-opacity="1" stroke="#000000" stroke-opacity="1" stroke-width="3.2"/>
<circle clip-path="url(#clip972)" cx="892.757" cy="1020.03" r="14.4" fill="#d52628" fill-rule="evenodd" fill-opacity="1" stroke="#000000" stroke-opacity="1" stroke-width="3.2"/>
<circle clip-path="url(#clip972)" cx="1009.46" cy="1077.28" r="14.4" fill="#d52628" fill-rule="evenodd" fill-opacity="1" stroke="#000000" stroke-opacity="1" stroke-width="3.2"/>
<circle clip-path="url(#clip972)" cx="1126.17" cy="1120.39" r="14.4" fill="#d52628" fill-rule="evenodd" fill-opacity="1" stroke="#000000" stroke-opacity="1" stroke-width="3.2"/>
<circle clip-path="url(#clip972)" cx="1242.88" cy="1162.12" r="14.4" fill="#d52628" fill-rule="evenodd" fill-opacity="1" stroke="#000000" stroke-opacity="1" stroke-width="3.2"/>
<circle clip-path="url(#clip972)" cx="1359.58" cy="1191.52" r="14.4" fill="#d52628" fill-rule="evenodd" fill-opacity="1" stroke="#000000" stroke-opacity="1" stroke-width="3.2"/>
<circle clip-path="url(#clip972)" cx="1476.29" cy="1225.82" r="14.4" fill="#d52628" fill-rule="evenodd" fill-opacity="1" stroke="#000000" stroke-opacity="1" stroke-width="3.2"/>
<circle clip-path="url(#clip972)" cx="1593" cy="1255.22" r="14.4" fill="#d52628" fill-rule="evenodd" fill-opacity="1" stroke="#000000" stroke-opacity="1" stroke-width="3.2"/>
<circle clip-path="url(#clip972)" cx="1709.7" cy="1274.82" r="14.4" fill="#d52628" fill-rule="evenodd" fill-opacity="1" stroke="#000000" stroke-opacity="1" stroke-width="3.2"/>
<circle clip-path="url(#clip972)" cx="1826.41" cy="1294.41" r="14.4" fill="#d52628" fill-rule="evenodd" fill-opacity="1" stroke="#000000" stroke-opacity="1" stroke-width="3.2"/>
<circle clip-path="url(#clip972)" cx="1943.12" cy="1309.11" r="14.4" fill="#d52628" fill-rule="evenodd" fill-opacity="1" stroke="#000000" stroke-opacity="1" stroke-width="3.2"/>
<circle clip-path="url(#clip972)" cx="2059.82" cy="1323.81" r="14.4" fill="#d52628" fill-rule="evenodd" fill-opacity="1" stroke="#000000" stroke-opacity="1" stroke-width="3.2"/>
<circle clip-path="url(#clip972)" cx="2176.53" cy="1333.61" r="14.4" fill="#d52628" fill-rule="evenodd" fill-opacity="1" stroke="#000000" stroke-opacity="1" stroke-width="3.2"/>
<circle clip-path="url(#clip972)" cx="2293.24" cy="1343.41" r="14.4" fill="#d52628" fill-rule="evenodd" fill-opacity="1" stroke="#000000" stroke-opacity="1" stroke-width="3.2"/>
<polyline clip-path="url(#clip972)" style="stroke:#9466bd; stroke-linecap:round; stroke-linejoin:round; stroke-width:8; stroke-opacity:1; fill:none" points="309.224,160.256 425.931,632.936 542.637,893.856 659.344,1032.66 776.051,1125.44 892.757,1189.27 1009.46,1232.84 1126.17,1265.99 1242.88,1291.01 1359.58,1310.3 1476.29,1325.92 1593,1338.33 1709.7,1348.57 1826.41,1357.19 1943.12,1364.29 2059.82,1370.38 2176.53,1375.63 2293.24,1380.11 "/>
<circle clip-path="url(#clip972)" cx="309.224" cy="160.256" r="14.4" fill="#9466bd" fill-rule="evenodd" fill-opacity="1" stroke="#000000" stroke-opacity="1" stroke-width="3.2"/>
<circle clip-path="url(#clip972)" cx="425.931" cy="632.936" r="14.4" fill="#9466bd" fill-rule="evenodd" fill-opacity="1" stroke="#000000" stroke-opacity="1" stroke-width="3.2"/>
<circle clip-path="url(#clip972)" cx="542.637" cy="893.856" r="14.4" fill="#9466bd" fill-rule="evenodd" fill-opacity="1" stroke="#000000" stroke-opacity="1" stroke-width="3.2"/>
<circle clip-path="url(#clip972)" cx="659.344" cy="1032.66" r="14.4" fill="#9466bd" fill-rule="evenodd" fill-opacity="1" stroke="#000000" stroke-opacity="1" stroke-width="3.2"/>
<circle clip-path="url(#clip972)" cx="776.051" cy="1125.44" r="14.4" fill="#9466bd" fill-rule="evenodd" fill-opacity="1" stroke="#000000" stroke-opacity="1" stroke-width="3.2"/>
<circle clip-path="url(#clip972)" cx="892.757" cy="1189.27" r="14.4" fill="#9466bd" fill-rule="evenodd" fill-opacity="1" stroke="#000000" stroke-opacity="1" stroke-width="3.2"/>
<circle clip-path="url(#clip972)" cx="1009.46" cy="1232.84" r="14.4" fill="#9466bd" fill-rule="evenodd" fill-opacity="1" stroke="#000000" stroke-opacity="1" stroke-width="3.2"/>
<circle clip-path="url(#clip972)" cx="1126.17" cy="1265.99" r="14.4" fill="#9466bd" fill-rule="evenodd" fill-opacity="1" stroke="#000000" stroke-opacity="1" stroke-width="3.2"/>
<circle clip-path="url(#clip972)" cx="1242.88" cy="1291.01" r="14.4" fill="#9466bd" fill-rule="evenodd" fill-opacity="1" stroke="#000000" stroke-opacity="1" stroke-width="3.2"/>
<circle clip-path="url(#clip972)" cx="1359.58" cy="1310.3" r="14.4" fill="#9466bd" fill-rule="evenodd" fill-opacity="1" stroke="#000000" stroke-opacity="1" stroke-width="3.2"/>
<circle clip-path="url(#clip972)" cx="1476.29" cy="1325.92" r="14.4" fill="#9466bd" fill-rule="evenodd" fill-opacity="1" stroke="#000000" stroke-opacity="1" stroke-width="3.2"/>
<circle clip-path="url(#clip972)" cx="1593" cy="1338.33" r="14.4" fill="#9466bd" fill-rule="evenodd" fill-opacity="1" stroke="#000000" stroke-opacity="1" stroke-width="3.2"/>
<circle clip-path="url(#clip972)" cx="1709.7" cy="1348.57" r="14.4" fill="#9466bd" fill-rule="evenodd" fill-opacity="1" stroke="#000000" stroke-opacity="1" stroke-width="3.2"/>
<circle clip-path="url(#clip972)" cx="1826.41" cy="1357.19" r="14.4" fill="#9466bd" fill-rule="evenodd" fill-opacity="1" stroke="#000000" stroke-opacity="1" stroke-width="3.2"/>
<circle clip-path="url(#clip972)" cx="1943.12" cy="1364.29" r="14.4" fill="#9466bd" fill-rule="evenodd" fill-opacity="1" stroke="#000000" stroke-opacity="1" stroke-width="3.2"/>
<circle clip-path="url(#clip972)" cx="2059.82" cy="1370.38" r="14.4" fill="#9466bd" fill-rule="evenodd" fill-opacity="1" stroke="#000000" stroke-opacity="1" stroke-width="3.2"/>
<circle clip-path="url(#clip972)" cx="2176.53" cy="1375.63" r="14.4" fill="#9466bd" fill-rule="evenodd" fill-opacity="1" stroke="#000000" stroke-opacity="1" stroke-width="3.2"/>
<circle clip-path="url(#clip972)" cx="2293.24" cy="1380.11" r="14.4" fill="#9466bd" fill-rule="evenodd" fill-opacity="1" stroke="#000000" stroke-opacity="1" stroke-width="3.2"/>
<polyline clip-path="url(#clip972)" style="stroke:#8b564a; stroke-linecap:round; stroke-linejoin:round; stroke-width:8; stroke-opacity:1; fill:none" points="309.224,427.164 425.931,705.132 542.637,966.605 659.344,1069.03 776.051,1154.2 892.757,1218.51 1009.46,1255.22 1126.17,1281.15 1242.88,1306.58 1359.58,1323.81 1476.29,1335.25 1593,1347.93 1709.7,1358.11 1826.41,1363.51 1943.12,1370.77 2059.82,1376.86 2176.53,1382.01 2293.24,1386.4 "/>
<circle clip-path="url(#clip972)" cx="309.224" cy="427.164" r="14.4" fill="#8b564a" fill-rule="evenodd" fill-opacity="1" stroke="#000000" stroke-opacity="1" stroke-width="3.2"/>
<circle clip-path="url(#clip972)" cx="425.931" cy="705.132" r="14.4" fill="#8b564a" fill-rule="evenodd" fill-opacity="1" stroke="#000000" stroke-opacity="1" stroke-width="3.2"/>
<circle clip-path="url(#clip972)" cx="542.637" cy="966.605" r="14.4" fill="#8b564a" fill-rule="evenodd" fill-opacity="1" stroke="#000000" stroke-opacity="1" stroke-width="3.2"/>
<circle clip-path="url(#clip972)" cx="659.344" cy="1069.03" r="14.4" fill="#8b564a" fill-rule="evenodd" fill-opacity="1" stroke="#000000" stroke-opacity="1" stroke-width="3.2"/>
<circle clip-path="url(#clip972)" cx="776.051" cy="1154.2" r="14.4" fill="#8b564a" fill-rule="evenodd" fill-opacity="1" stroke="#000000" stroke-opacity="1" stroke-width="3.2"/>
<circle clip-path="url(#clip972)" cx="892.757" cy="1218.51" r="14.4" fill="#8b564a" fill-rule="evenodd" fill-opacity="1" stroke="#000000" stroke-opacity="1" stroke-width="3.2"/>
<circle clip-path="url(#clip972)" cx="1009.46" cy="1255.22" r="14.4" fill="#8b564a" fill-rule="evenodd" fill-opacity="1" stroke="#000000" stroke-opacity="1" stroke-width="3.2"/>
<circle clip-path="url(#clip972)" cx="1126.17" cy="1281.15" r="14.4" fill="#8b564a" fill-rule="evenodd" fill-opacity="1" stroke="#000000" stroke-opacity="1" stroke-width="3.2"/>
<circle clip-path="url(#clip972)" cx="1242.88" cy="1306.58" r="14.4" fill="#8b564a" fill-rule="evenodd" fill-opacity="1" stroke="#000000" stroke-opacity="1" stroke-width="3.2"/>
<circle clip-path="url(#clip972)" cx="1359.58" cy="1323.81" r="14.4" fill="#8b564a" fill-rule="evenodd" fill-opacity="1" stroke="#000000" stroke-opacity="1" stroke-width="3.2"/>
<circle clip-path="url(#clip972)" cx="1476.29" cy="1335.25" r="14.4" fill="#8b564a" fill-rule="evenodd" fill-opacity="1" stroke="#000000" stroke-opacity="1" stroke-width="3.2"/>
<circle clip-path="url(#clip972)" cx="1593" cy="1347.93" r="14.4" fill="#8b564a" fill-rule="evenodd" fill-opacity="1" stroke="#000000" stroke-opacity="1" stroke-width="3.2"/>
<circle clip-path="url(#clip972)" cx="1709.7" cy="1358.11" r="14.4" fill="#8b564a" fill-rule="evenodd" fill-opacity="1" stroke="#000000" stroke-opacity="1" stroke-width="3.2"/>
<circle clip-path="url(#clip972)" cx="1826.41" cy="1363.51" r="14.4" fill="#8b564a" fill-rule="evenodd" fill-opacity="1" stroke="#000000" stroke-opacity="1" stroke-width="3.2"/>
<circle clip-path="url(#clip972)" cx="1943.12" cy="1370.77" r="14.4" fill="#8b564a" fill-rule="evenodd" fill-opacity="1" stroke="#000000" stroke-opacity="1" stroke-width="3.2"/>
<circle clip-path="url(#clip972)" cx="2059.82" cy="1376.86" r="14.4" fill="#8b564a" fill-rule="evenodd" fill-opacity="1" stroke="#000000" stroke-opacity="1" stroke-width="3.2"/>
<circle clip-path="url(#clip972)" cx="2176.53" cy="1382.01" r="14.4" fill="#8b564a" fill-rule="evenodd" fill-opacity="1" stroke="#000000" stroke-opacity="1" stroke-width="3.2"/>
<circle clip-path="url(#clip972)" cx="2293.24" cy="1386.4" r="14.4" fill="#8b564a" fill-rule="evenodd" fill-opacity="1" stroke="#000000" stroke-opacity="1" stroke-width="3.2"/>
<path clip-path="url(#clip970)" d="M1762.33 374.156 L2282.65 374.156 L2282.65 166.796 L1762.33 166.796  Z" fill="#ffffff" fill-rule="evenodd" fill-opacity="1"/>
<polyline clip-path="url(#clip970)" style="stroke:#000000; stroke-linecap:round; stroke-linejoin:round; stroke-width:4; stroke-opacity:1; fill:none" points="1762.33,374.156 2282.65,374.156 2282.65,166.796 1762.33,166.796 1762.33,374.156 "/>
<polyline clip-path="url(#clip970)" style="stroke:#d52628; stroke-linecap:round; stroke-linejoin:round; stroke-width:8; stroke-opacity:1; fill:none" points="1785.69,218.636 1925.9,218.636 "/>
<path clip-path="url(#clip970)" d="M1949.27 201.356 L1956.23 201.356 L1965.05 224.874 L1973.92 201.356 L1980.89 201.356 L1980.89 235.916 L1976.33 235.916 L1976.33 205.569 L1967.41 229.272 L1962.71 229.272 L1953.8 205.569 L1953.8 235.916 L1949.27 235.916 L1949.27 201.356 Z" fill="#000000" fill-rule="nonzero" fill-opacity="1" /><path clip-path="url(#clip970)" d="M2012.16 221.888 L2012.16 223.971 L1992.58 223.971 Q1992.85 228.369 1995.21 230.684 Q1997.6 232.976 2001.83 232.976 Q2004.29 232.976 2006.58 232.374 Q2008.89 231.772 2011.16 230.569 L2011.16 234.596 Q2008.87 235.568 2006.46 236.078 Q2004.06 236.587 2001.58 236.587 Q1995.38 236.587 1991.74 232.976 Q1988.13 229.365 1988.13 223.207 Q1988.13 216.842 1991.56 213.115 Q1995.01 209.365 2000.84 209.365 Q2006.07 209.365 2009.1 212.745 Q2012.16 216.101 2012.16 221.888 M2007.9 220.638 Q2007.85 217.143 2005.93 215.059 Q2004.03 212.976 2000.89 212.976 Q1997.32 212.976 1995.17 214.99 Q1993.04 217.004 1992.71 220.661 L2007.9 220.638 Z" fill="#000000" fill-rule="nonzero" fill-opacity="1" /><path clip-path="url(#clip970)" d="M2030.93 222.883 Q2025.77 222.883 2023.78 224.064 Q2021.79 225.244 2021.79 228.092 Q2021.79 230.36 2023.27 231.703 Q2024.77 233.022 2027.34 233.022 Q2030.89 233.022 2033.01 230.522 Q2035.17 227.999 2035.17 223.832 L2035.17 222.883 L2030.93 222.883 M2039.43 221.124 L2039.43 235.916 L2035.17 235.916 L2035.17 231.981 Q2033.71 234.342 2031.53 235.476 Q2029.36 236.587 2026.21 236.587 Q2022.23 236.587 2019.87 234.365 Q2017.53 232.119 2017.53 228.369 Q2017.53 223.994 2020.45 221.772 Q2023.39 219.55 2029.2 219.55 L2035.17 219.55 L2035.17 219.133 Q2035.17 216.194 2033.22 214.596 Q2031.3 212.976 2027.81 212.976 Q2025.58 212.976 2023.48 213.508 Q2021.37 214.041 2019.43 215.106 L2019.43 211.17 Q2021.77 210.268 2023.96 209.828 Q2026.16 209.365 2028.25 209.365 Q2033.87 209.365 2036.65 212.282 Q2039.43 215.198 2039.43 221.124 Z" fill="#000000" fill-rule="nonzero" fill-opacity="1" /><path clip-path="url(#clip970)" d="M2069.75 220.268 L2069.75 235.916 L2065.49 235.916 L2065.49 220.407 Q2065.49 216.726 2064.06 214.897 Q2062.62 213.069 2059.75 213.069 Q2056.3 213.069 2054.31 215.268 Q2052.32 217.467 2052.32 221.263 L2052.32 235.916 L2048.04 235.916 L2048.04 209.99 L2052.32 209.99 L2052.32 214.018 Q2053.85 211.68 2055.91 210.522 Q2057.99 209.365 2060.7 209.365 Q2065.17 209.365 2067.46 212.143 Q2069.75 214.897 2069.75 220.268 Z" fill="#000000" fill-rule="nonzero" fill-opacity="1" /><path clip-path="url(#clip970)" d="M2076.09 221.032 L2088.57 221.032 L2088.57 224.828 L2076.09 224.828 L2076.09 221.032 Z" fill="#000000" fill-rule="nonzero" fill-opacity="1" /><path clip-path="url(#clip970)" d="M2095.54 201.356 L2102.51 201.356 L2111.32 224.874 L2120.19 201.356 L2127.16 201.356 L2127.16 235.916 L2122.6 235.916 L2122.6 205.569 L2113.69 229.272 L2108.99 229.272 L2100.07 205.569 L2100.07 235.916 L2095.54 235.916 L2095.54 201.356 Z" fill="#000000" fill-rule="nonzero" fill-opacity="1" /><path clip-path="url(#clip970)" d="M2146.3 212.976 Q2142.88 212.976 2140.88 215.661 Q2138.89 218.323 2138.89 222.976 Q2138.89 227.629 2140.86 230.314 Q2142.85 232.976 2146.3 232.976 Q2149.7 232.976 2151.69 230.291 Q2153.69 227.606 2153.69 222.976 Q2153.69 218.37 2151.69 215.684 Q2149.7 212.976 2146.3 212.976 M2146.3 209.365 Q2151.86 209.365 2155.03 212.976 Q2158.2 216.587 2158.2 222.976 Q2158.2 229.342 2155.03 232.976 Q2151.86 236.587 2146.3 236.587 Q2140.72 236.587 2137.55 232.976 Q2134.4 229.342 2134.4 222.976 Q2134.4 216.587 2137.55 212.976 Q2140.72 209.365 2146.3 209.365 Z" fill="#000000" fill-rule="nonzero" fill-opacity="1" /><path clip-path="url(#clip970)" d="M2182.32 213.925 L2182.32 199.897 L2186.58 199.897 L2186.58 235.916 L2182.32 235.916 L2182.32 232.027 Q2180.98 234.342 2178.92 235.476 Q2176.88 236.587 2174.01 236.587 Q2169.31 236.587 2166.35 232.837 Q2163.41 229.087 2163.41 222.976 Q2163.41 216.865 2166.35 213.115 Q2169.31 209.365 2174.01 209.365 Q2176.88 209.365 2178.92 210.499 Q2180.98 211.61 2182.32 213.925 M2167.81 222.976 Q2167.81 227.675 2169.73 230.36 Q2171.67 233.022 2175.05 233.022 Q2178.43 233.022 2180.38 230.36 Q2182.32 227.675 2182.32 222.976 Q2182.32 218.277 2180.38 215.615 Q2178.43 212.93 2175.05 212.93 Q2171.67 212.93 2169.73 215.615 Q2167.81 218.277 2167.81 222.976 Z" fill="#000000" fill-rule="nonzero" fill-opacity="1" /><path clip-path="url(#clip970)" d="M2217.53 221.888 L2217.53 223.971 L2197.94 223.971 Q2198.22 228.369 2200.58 230.684 Q2202.97 232.976 2207.2 232.976 Q2209.66 232.976 2211.95 232.374 Q2214.26 231.772 2216.53 230.569 L2216.53 234.596 Q2214.24 235.568 2211.83 236.078 Q2209.43 236.587 2206.95 236.587 Q2200.75 236.587 2197.11 232.976 Q2193.5 229.365 2193.5 223.207 Q2193.5 216.842 2196.93 213.115 Q2200.38 209.365 2206.21 209.365 Q2211.44 209.365 2214.47 212.745 Q2217.53 216.101 2217.53 221.888 M2213.27 220.638 Q2213.22 217.143 2211.3 215.059 Q2209.4 212.976 2206.25 212.976 Q2202.69 212.976 2200.54 214.99 Q2198.41 217.004 2198.08 220.661 L2213.27 220.638 Z" fill="#000000" fill-rule="nonzero" fill-opacity="1" /><polyline clip-path="url(#clip970)" style="stroke:#9466bd; stroke-linecap:round; stroke-linejoin:round; stroke-width:8; stroke-opacity:1; fill:none" points="1785.69,270.476 1925.9,270.476 "/>
<path clip-path="url(#clip970)" d="M1949.27 253.196 L1956.23 253.196 L1965.05 276.714 L1973.92 253.196 L1980.89 253.196 L1980.89 287.756 L1976.33 287.756 L1976.33 257.409 L1967.41 281.112 L1962.71 281.112 L1953.8 257.409 L1953.8 287.756 L1949.27 287.756 L1949.27 253.196 Z" fill="#000000" fill-rule="nonzero" fill-opacity="1" /><path clip-path="url(#clip970)" d="M2012.16 273.728 L2012.16 275.811 L1992.58 275.811 Q1992.85 280.209 1995.21 282.524 Q1997.6 284.816 2001.83 284.816 Q2004.29 284.816 2006.58 284.214 Q2008.89 283.612 2011.16 282.409 L2011.16 286.436 Q2008.87 287.408 2006.46 287.918 Q2004.06 288.427 2001.58 288.427 Q1995.38 288.427 1991.74 284.816 Q1988.13 281.205 1988.13 275.047 Q1988.13 268.682 1991.56 264.955 Q1995.01 261.205 2000.84 261.205 Q2006.07 261.205 2009.1 264.585 Q2012.16 267.941 2012.16 273.728 M2007.9 272.478 Q2007.85 268.983 2005.93 266.899 Q2004.03 264.816 2000.89 264.816 Q1997.32 264.816 1995.17 266.83 Q1993.04 268.844 1992.71 272.501 L2007.9 272.478 Z" fill="#000000" fill-rule="nonzero" fill-opacity="1" /><path clip-path="url(#clip970)" d="M2030.93 274.723 Q2025.77 274.723 2023.78 275.904 Q2021.79 277.084 2021.79 279.932 Q2021.79 282.2 2023.27 283.543 Q2024.77 284.862 2027.34 284.862 Q2030.89 284.862 2033.01 282.362 Q2035.17 279.839 2035.17 275.672 L2035.17 274.723 L2030.93 274.723 M2039.43 272.964 L2039.43 287.756 L2035.17 287.756 L2035.17 283.821 Q2033.71 286.182 2031.53 287.316 Q2029.36 288.427 2026.21 288.427 Q2022.23 288.427 2019.87 286.205 Q2017.53 283.959 2017.53 280.209 Q2017.53 275.834 2020.45 273.612 Q2023.39 271.39 2029.2 271.39 L2035.17 271.39 L2035.17 270.973 Q2035.17 268.034 2033.22 266.436 Q2031.3 264.816 2027.81 264.816 Q2025.58 264.816 2023.48 265.348 Q2021.37 265.881 2019.43 266.946 L2019.43 263.01 Q2021.77 262.108 2023.96 261.668 Q2026.16 261.205 2028.25 261.205 Q2033.87 261.205 2036.65 264.122 Q2039.43 267.038 2039.43 272.964 Z" fill="#000000" fill-rule="nonzero" fill-opacity="1" /><path clip-path="url(#clip970)" d="M2069.75 272.108 L2069.75 287.756 L2065.49 287.756 L2065.49 272.247 Q2065.49 268.566 2064.06 266.737 Q2062.62 264.909 2059.75 264.909 Q2056.3 264.909 2054.31 267.108 Q2052.32 269.307 2052.32 273.103 L2052.32 287.756 L2048.04 287.756 L2048.04 261.83 L2052.32 261.83 L2052.32 265.858 Q2053.85 263.52 2055.91 262.362 Q2057.99 261.205 2060.7 261.205 Q2065.17 261.205 2067.46 263.983 Q2069.75 266.737 2069.75 272.108 Z" fill="#000000" fill-rule="nonzero" fill-opacity="1" /><path clip-path="url(#clip970)" d="M2076.09 272.872 L2088.57 272.872 L2088.57 276.668 L2076.09 276.668 L2076.09 272.872 Z" fill="#000000" fill-rule="nonzero" fill-opacity="1" /><path clip-path="url(#clip970)" d="M2095.54 253.196 L2102.51 253.196 L2111.32 276.714 L2120.19 253.196 L2127.16 253.196 L2127.16 287.756 L2122.6 287.756 L2122.6 257.409 L2113.69 281.112 L2108.99 281.112 L2100.07 257.409 L2100.07 287.756 L2095.54 287.756 L2095.54 253.196 Z" fill="#000000" fill-rule="nonzero" fill-opacity="1" /><path clip-path="url(#clip970)" d="M2158.43 273.728 L2158.43 275.811 L2138.85 275.811 Q2139.13 280.209 2141.49 282.524 Q2143.87 284.816 2148.11 284.816 Q2150.56 284.816 2152.85 284.214 Q2155.17 283.612 2157.44 282.409 L2157.44 286.436 Q2155.14 287.408 2152.74 287.918 Q2150.33 288.427 2147.85 288.427 Q2141.65 288.427 2138.01 284.816 Q2134.4 281.205 2134.4 275.047 Q2134.4 268.682 2137.83 264.955 Q2141.28 261.205 2147.11 261.205 Q2152.34 261.205 2155.38 264.585 Q2158.43 267.941 2158.43 273.728 M2154.17 272.478 Q2154.13 268.983 2152.2 266.899 Q2150.31 264.816 2147.16 264.816 Q2143.59 264.816 2141.44 266.83 Q2139.31 268.844 2138.99 272.501 L2154.17 272.478 Z" fill="#000000" fill-rule="nonzero" fill-opacity="1" /><path clip-path="url(#clip970)" d="M2182.48 265.765 L2182.48 251.737 L2186.74 251.737 L2186.74 287.756 L2182.48 287.756 L2182.48 283.867 Q2181.14 286.182 2179.08 287.316 Q2177.04 288.427 2174.17 288.427 Q2169.47 288.427 2166.51 284.677 Q2163.57 280.927 2163.57 274.816 Q2163.57 268.705 2166.51 264.955 Q2169.47 261.205 2174.17 261.205 Q2177.04 261.205 2179.08 262.339 Q2181.14 263.45 2182.48 265.765 M2167.97 274.816 Q2167.97 279.515 2169.89 282.2 Q2171.83 284.862 2175.21 284.862 Q2178.59 284.862 2180.54 282.2 Q2182.48 279.515 2182.48 274.816 Q2182.48 270.117 2180.54 267.455 Q2178.59 264.77 2175.21 264.77 Q2171.83 264.77 2169.89 267.455 Q2167.97 270.117 2167.97 274.816 Z" fill="#000000" fill-rule="nonzero" fill-opacity="1" /><path clip-path="url(#clip970)" d="M2195.51 261.83 L2199.77 261.83 L2199.77 287.756 L2195.51 287.756 L2195.51 261.83 M2195.51 251.737 L2199.77 251.737 L2199.77 257.131 L2195.51 257.131 L2195.51 251.737 Z" fill="#000000" fill-rule="nonzero" fill-opacity="1" /><path clip-path="url(#clip970)" d="M2220.47 274.723 Q2215.31 274.723 2213.31 275.904 Q2211.32 277.084 2211.32 279.932 Q2211.32 282.2 2212.81 283.543 Q2214.31 284.862 2216.88 284.862 Q2220.42 284.862 2222.55 282.362 Q2224.7 279.839 2224.7 275.672 L2224.7 274.723 L2220.47 274.723 M2228.96 272.964 L2228.96 287.756 L2224.7 287.756 L2224.7 283.821 Q2223.25 286.182 2221.07 287.316 Q2218.89 288.427 2215.75 288.427 Q2211.76 288.427 2209.4 286.205 Q2207.06 283.959 2207.06 280.209 Q2207.06 275.834 2209.98 273.612 Q2212.92 271.39 2218.73 271.39 L2224.7 271.39 L2224.7 270.973 Q2224.7 268.034 2222.76 266.436 Q2220.84 264.816 2217.34 264.816 Q2215.12 264.816 2213.01 265.348 Q2210.91 265.881 2208.96 266.946 L2208.96 263.01 Q2211.3 262.108 2213.5 261.668 Q2215.7 261.205 2217.78 261.205 Q2223.41 261.205 2226.19 264.122 Q2228.96 267.038 2228.96 272.964 Z" fill="#000000" fill-rule="nonzero" fill-opacity="1" /><path clip-path="url(#clip970)" d="M2259.29 272.108 L2259.29 287.756 L2255.03 287.756 L2255.03 272.247 Q2255.03 268.566 2253.59 266.737 Q2252.16 264.909 2249.29 264.909 Q2245.84 264.909 2243.85 267.108 Q2241.86 269.307 2241.86 273.103 L2241.86 287.756 L2237.57 287.756 L2237.57 261.83 L2241.86 261.83 L2241.86 265.858 Q2243.38 263.52 2245.44 262.362 Q2247.53 261.205 2250.24 261.205 Q2254.7 261.205 2257 263.983 Q2259.29 266.737 2259.29 272.108 Z" fill="#000000" fill-rule="nonzero" fill-opacity="1" /><polyline clip-path="url(#clip970)" style="stroke:#8b564a; stroke-linecap:round; stroke-linejoin:round; stroke-width:8; stroke-opacity:1; fill:none" points="1785.69,322.316 1925.9,322.316 "/>
<path clip-path="url(#clip970)" d="M1949.27 305.036 L1956.23 305.036 L1965.05 328.554 L1973.92 305.036 L1980.89 305.036 L1980.89 339.596 L1976.33 339.596 L1976.33 309.249 L1967.41 332.952 L1962.71 332.952 L1953.8 309.249 L1953.8 339.596 L1949.27 339.596 L1949.27 305.036 Z" fill="#000000" fill-rule="nonzero" fill-opacity="1" /><path clip-path="url(#clip970)" d="M2000.03 316.656 Q1996.6 316.656 1994.61 319.341 Q1992.62 322.003 1992.62 326.656 Q1992.62 331.309 1994.59 333.994 Q1996.58 336.656 2000.03 336.656 Q2003.43 336.656 2005.42 333.971 Q2007.41 331.286 2007.41 326.656 Q2007.41 322.05 2005.42 319.364 Q2003.43 316.656 2000.03 316.656 M2000.03 313.045 Q2005.58 313.045 2008.76 316.656 Q2011.93 320.267 2011.93 326.656 Q2011.93 333.022 2008.76 336.656 Q2005.58 340.267 2000.03 340.267 Q1994.45 340.267 1991.28 336.656 Q1988.13 333.022 1988.13 326.656 Q1988.13 320.267 1991.28 316.656 Q1994.45 313.045 2000.03 313.045 Z" fill="#000000" fill-rule="nonzero" fill-opacity="1" /><path clip-path="url(#clip970)" d="M2036.05 317.605 L2036.05 303.577 L2040.31 303.577 L2040.31 339.596 L2036.05 339.596 L2036.05 335.707 Q2034.7 338.022 2032.64 339.156 Q2030.61 340.267 2027.74 340.267 Q2023.04 340.267 2020.08 336.517 Q2017.14 332.767 2017.14 326.656 Q2017.14 320.545 2020.08 316.795 Q2023.04 313.045 2027.74 313.045 Q2030.61 313.045 2032.64 314.179 Q2034.7 315.29 2036.05 317.605 M2021.53 326.656 Q2021.53 331.355 2023.45 334.04 Q2025.4 336.702 2028.78 336.702 Q2032.16 336.702 2034.1 334.04 Q2036.05 331.355 2036.05 326.656 Q2036.05 321.957 2034.1 319.295 Q2032.16 316.61 2028.78 316.61 Q2025.4 316.61 2023.45 319.295 Q2021.53 321.957 2021.53 326.656 Z" fill="#000000" fill-rule="nonzero" fill-opacity="1" /><path clip-path="url(#clip970)" d="M2071.26 325.568 L2071.26 327.651 L2051.67 327.651 Q2051.95 332.049 2054.31 334.364 Q2056.7 336.656 2060.93 336.656 Q2063.39 336.656 2065.68 336.054 Q2067.99 335.452 2070.26 334.249 L2070.26 338.276 Q2067.97 339.248 2065.56 339.758 Q2063.15 340.267 2060.68 340.267 Q2054.47 340.267 2050.84 336.656 Q2047.23 333.045 2047.23 326.887 Q2047.23 320.522 2050.65 316.795 Q2054.1 313.045 2059.94 313.045 Q2065.17 313.045 2068.2 316.425 Q2071.26 319.781 2071.26 325.568 M2067 324.318 Q2066.95 320.823 2065.03 318.739 Q2063.13 316.656 2059.98 316.656 Q2056.42 316.656 2054.26 318.67 Q2052.14 320.684 2051.81 324.341 L2067 324.318 Z" fill="#000000" fill-rule="nonzero" fill-opacity="1" /><path clip-path="url(#clip970)" d="M2076.09 324.712 L2088.57 324.712 L2088.57 328.508 L2076.09 328.508 L2076.09 324.712 Z" fill="#000000" fill-rule="nonzero" fill-opacity="1" /><path clip-path="url(#clip970)" d="M2095.54 305.036 L2102.51 305.036 L2111.32 328.554 L2120.19 305.036 L2127.16 305.036 L2127.16 339.596 L2122.6 339.596 L2122.6 309.249 L2113.69 332.952 L2108.99 332.952 L2100.07 309.249 L2100.07 339.596 L2095.54 339.596 L2095.54 305.036 Z" fill="#000000" fill-rule="nonzero" fill-opacity="1" /><path clip-path="url(#clip970)" d="M2158.43 325.568 L2158.43 327.651 L2138.85 327.651 Q2139.13 332.049 2141.49 334.364 Q2143.87 336.656 2148.11 336.656 Q2150.56 336.656 2152.85 336.054 Q2155.17 335.452 2157.44 334.249 L2157.44 338.276 Q2155.14 339.248 2152.74 339.758 Q2150.33 340.267 2147.85 340.267 Q2141.65 340.267 2138.01 336.656 Q2134.4 333.045 2134.4 326.887 Q2134.4 320.522 2137.83 316.795 Q2141.28 313.045 2147.11 313.045 Q2152.34 313.045 2155.38 316.425 Q2158.43 319.781 2158.43 325.568 M2154.17 324.318 Q2154.13 320.823 2152.2 318.739 Q2150.31 316.656 2147.16 316.656 Q2143.59 316.656 2141.44 318.67 Q2139.31 320.684 2138.99 324.341 L2154.17 324.318 Z" fill="#000000" fill-rule="nonzero" fill-opacity="1" /><path clip-path="url(#clip970)" d="M2182.48 317.605 L2182.48 303.577 L2186.74 303.577 L2186.74 339.596 L2182.48 339.596 L2182.48 335.707 Q2181.14 338.022 2179.08 339.156 Q2177.04 340.267 2174.17 340.267 Q2169.47 340.267 2166.51 336.517 Q2163.57 332.767 2163.57 326.656 Q2163.57 320.545 2166.51 316.795 Q2169.47 313.045 2174.17 313.045 Q2177.04 313.045 2179.08 314.179 Q2181.14 315.29 2182.48 317.605 M2167.97 326.656 Q2167.97 331.355 2169.89 334.04 Q2171.83 336.702 2175.21 336.702 Q2178.59 336.702 2180.54 334.04 Q2182.48 331.355 2182.48 326.656 Q2182.48 321.957 2180.54 319.295 Q2178.59 316.61 2175.21 316.61 Q2171.83 316.61 2169.89 319.295 Q2167.97 321.957 2167.97 326.656 Z" fill="#000000" fill-rule="nonzero" fill-opacity="1" /><path clip-path="url(#clip970)" d="M2195.51 313.67 L2199.77 313.67 L2199.77 339.596 L2195.51 339.596 L2195.51 313.67 M2195.51 303.577 L2199.77 303.577 L2199.77 308.971 L2195.51 308.971 L2195.51 303.577 Z" fill="#000000" fill-rule="nonzero" fill-opacity="1" /><path clip-path="url(#clip970)" d="M2220.47 326.563 Q2215.31 326.563 2213.31 327.744 Q2211.32 328.924 2211.32 331.772 Q2211.32 334.04 2212.81 335.383 Q2214.31 336.702 2216.88 336.702 Q2220.42 336.702 2222.55 334.202 Q2224.7 331.679 2224.7 327.512 L2224.7 326.563 L2220.47 326.563 M2228.96 324.804 L2228.96 339.596 L2224.7 339.596 L2224.7 335.661 Q2223.25 338.022 2221.07 339.156 Q2218.89 340.267 2215.75 340.267 Q2211.76 340.267 2209.4 338.045 Q2207.06 335.799 2207.06 332.049 Q2207.06 327.674 2209.98 325.452 Q2212.92 323.23 2218.73 323.23 L2224.7 323.23 L2224.7 322.813 Q2224.7 319.874 2222.76 318.276 Q2220.84 316.656 2217.34 316.656 Q2215.12 316.656 2213.01 317.188 Q2210.91 317.721 2208.96 318.786 L2208.96 314.85 Q2211.3 313.948 2213.5 313.508 Q2215.7 313.045 2217.78 313.045 Q2223.41 313.045 2226.19 315.962 Q2228.96 318.878 2228.96 324.804 Z" fill="#000000" fill-rule="nonzero" fill-opacity="1" /><path clip-path="url(#clip970)" d="M2259.29 323.948 L2259.29 339.596 L2255.03 339.596 L2255.03 324.087 Q2255.03 320.406 2253.59 318.577 Q2252.16 316.749 2249.29 316.749 Q2245.84 316.749 2243.85 318.948 Q2241.86 321.147 2241.86 324.943 L2241.86 339.596 L2237.57 339.596 L2237.57 313.67 L2241.86 313.67 L2241.86 317.698 Q2243.38 315.36 2245.44 314.202 Q2247.53 313.045 2250.24 313.045 Q2254.7 313.045 2257 315.823 Q2259.29 318.577 2259.29 323.948 Z" fill="#000000" fill-rule="nonzero" fill-opacity="1" /></svg>
