<?xml version="1.0" encoding="utf-8"?>
<svg xmlns="http://www.w3.org/2000/svg" xmlns:xlink="http://www.w3.org/1999/xlink" width="600" height="400" viewBox="0 0 2400 1600">
<defs>
  <clipPath id="clip840">
    <rect x="0" y="0" width="2400" height="1600"/>
  </clipPath>
</defs>
<path clip-path="url(#clip840)" d="M0 1600 L2400 1600 L2400 8.88178e-14 L0 8.88178e-14  Z" fill="#ffffff" fill-rule="evenodd" fill-opacity="1"/>
<defs>
  <clipPath id="clip841">
    <rect x="480" y="0" width="1681" height="1600"/>
  </clipPath>
</defs>
<path clip-path="url(#clip840)" d="M250.028 1423.18 L2352.76 1423.18 L2352.76 47.2441 L250.028 47.2441  Z" fill="#ffffff" fill-rule="evenodd" fill-opacity="1"/>
<defs>
  <clipPath id="clip842">
    <rect x="250" y="47" width="2104" height="1377"/>
  </clipPath>
</defs>
<polyline clip-path="url(#clip842)" style="stroke:#000000; stroke-linecap:round; stroke-linejoin:round; stroke-width:2; stroke-opacity:0.1; fill:none" points="426.228,1423.18 426.228,47.2441 "/>
<polyline clip-path="url(#clip842)" style="stroke:#000000; stroke-linecap:round; stroke-linejoin:round; stroke-width:2; stroke-opacity:0.1; fill:none" points="659.605,1423.18 659.605,47.2441 "/>
<polyline clip-path="url(#clip842)" style="stroke:#000000; stroke-linecap:round; stroke-linejoin:round; stroke-width:2; stroke-opacity:0.1; fill:none" points="892.982,1423.18 892.982,47.2441 "/>
<polyline clip-path="url(#clip842)" style="stroke:#000000; stroke-linecap:round; stroke-linejoin:round; stroke-width:2; stroke-opacity:0.1; fill:none" points="1126.36,1423.18 1126.36,47.2441 "/>
<polyline clip-path="url(#clip842)" style="stroke:#000000; stroke-linecap:round; stroke-linejoin:round; stroke-width:2; stroke-opacity:0.1; fill:none" points="1359.74,1423.18 1359.74,47.2441 "/>
<polyline clip-path="url(#clip842)" style="stroke:#000000; stroke-linecap:round; stroke-linejoin:round; stroke-width:2; stroke-opacity:0.1; fill:none" points="1593.11,1423.18 1593.11,47.2441 "/>
<polyline clip-path="url(#clip842)" style="stroke:#000000; stroke-linecap:round; stroke-linejoin:round; stroke-width:2; stroke-opacity:0.1; fill:none" points="1826.49,1423.18 1826.49,47.2441 "/>
<polyline clip-path="url(#clip842)" style="stroke:#000000; stroke-linecap:round; stroke-linejoin:round; stroke-width:2; stroke-opacity:0.1; fill:none" points="2059.87,1423.18 2059.87,47.2441 "/>
<polyline clip-path="url(#clip842)" style="stroke:#000000; stroke-linecap:round; stroke-linejoin:round; stroke-width:2; stroke-opacity:0.1; fill:none" points="2293.24,1423.18 2293.24,47.2441 "/>
<polyline clip-path="url(#clip842)" style="stroke:#000000; stroke-linecap:round; stroke-linejoin:round; stroke-width:2; stroke-opacity:0.1; fill:none" points="250.028,1421.48 2352.76,1421.48 "/>
<polyline clip-path="url(#clip842)" style="stroke:#000000; stroke-linecap:round; stroke-linejoin:round; stroke-width:2; stroke-opacity:0.1; fill:none" points="250.028,1047.13 2352.76,1047.13 "/>
<polyline clip-path="url(#clip842)" style="stroke:#000000; stroke-linecap:round; stroke-linejoin:round; stroke-width:2; stroke-opacity:0.1; fill:none" points="250.028,672.776 2352.76,672.776 "/>
<polyline clip-path="url(#clip842)" style="stroke:#000000; stroke-linecap:round; stroke-linejoin:round; stroke-width:2; stroke-opacity:0.1; fill:none" points="250.028,298.426 2352.76,298.426 "/>
<polyline clip-path="url(#clip840)" style="stroke:#000000; stroke-linecap:round; stroke-linejoin:round; stroke-width:4; stroke-opacity:1; fill:none" points="250.028,1423.18 2352.76,1423.18 "/>
<polyline clip-path="url(#clip840)" style="stroke:#000000; stroke-linecap:round; stroke-linejoin:round; stroke-width:4; stroke-opacity:1; fill:none" points="426.228,1423.18 426.228,1404.28 "/>
<polyline clip-path="url(#clip840)" style="stroke:#000000; stroke-linecap:round; stroke-linejoin:round; stroke-width:4; stroke-opacity:1; fill:none" points="659.605,1423.18 659.605,1404.28 "/>
<polyline clip-path="url(#clip840)" style="stroke:#000000; stroke-linecap:round; stroke-linejoin:round; stroke-width:4; stroke-opacity:1; fill:none" points="892.982,1423.18 892.982,1404.28 "/>
<polyline clip-path="url(#clip840)" style="stroke:#000000; stroke-linecap:round; stroke-linejoin:round; stroke-width:4; stroke-opacity:1; fill:none" points="1126.36,1423.18 1126.36,1404.28 "/>
<polyline clip-path="url(#clip840)" style="stroke:#000000; stroke-linecap:round; stroke-linejoin:round; stroke-width:4; stroke-opacity:1; fill:none" points="1359.74,1423.18 1359.74,1404.28 "/>
<polyline clip-path="url(#clip840)" style="stroke:#000000; stroke-linecap:round; stroke-linejoin:round; stroke-width:4; stroke-opacity:1; fill:none" points="1593.11,1423.18 1593.11,1404.28 "/>
<polyline clip-path="url(#clip840)" style="stroke:#000000; stroke-linecap:round; stroke-linejoin:round; stroke-width:4; stroke-opacity:1; fill:none" points="1826.49,1423.18 1826.49,1404.28 "/>
<polyline clip-path="url(#clip840)" style="stroke:#000000; stroke-linecap:round; stroke-linejoin:round; stroke-width:4; stroke-opacity:1; fill:none" points="2059.87,1423.18 2059.87,1404.28 "/>
<polyline clip-path="url(#clip840)" style="stroke:#000000; stroke-linecap:round; stroke-linejoin:round; stroke-width:4; stroke-opacity:1; fill:none" points="2293.24,1423.18 2293.24,1404.28 "/>
<path clip-path="url(#clip840)" d="M429.237 1455.09 L417.432 1473.54 L429.237 1473.54 L429.237 1455.09 M428.01 1451.02 L433.89 1451.02 L433.89 1473.54 L438.82 1473.54 L438.82 1477.43 L433.89 1477.43 L433.89 1485.58 L429.237 1485.58 L429.237 1477.43 L413.635 1477.43 L413.635 1472.92 L428.01 1451.02 Z" fill="#000000" fill-rule="nonzero" fill-opacity="1" /><path clip-path="url(#clip840)" d="M660.01 1466.44 Q656.862 1466.44 655.01 1468.59 Q653.181 1470.74 653.181 1474.49 Q653.181 1478.22 655.01 1480.39 Q656.862 1482.55 660.01 1482.55 Q663.158 1482.55 664.987 1480.39 Q666.839 1478.22 666.839 1474.49 Q666.839 1470.74 664.987 1468.59 Q663.158 1466.44 660.01 1466.44 M669.292 1451.78 L669.292 1456.04 Q667.533 1455.21 665.728 1454.77 Q663.945 1454.33 662.186 1454.33 Q657.556 1454.33 655.103 1457.45 Q652.672 1460.58 652.325 1466.9 Q653.691 1464.89 655.751 1463.82 Q657.811 1462.73 660.288 1462.73 Q665.496 1462.73 668.505 1465.9 Q671.538 1469.05 671.538 1474.49 Q671.538 1479.82 668.39 1483.03 Q665.242 1486.25 660.01 1486.25 Q654.015 1486.25 650.843 1481.67 Q647.672 1477.06 647.672 1468.33 Q647.672 1460.14 651.561 1455.28 Q655.45 1450.39 662.001 1450.39 Q663.76 1450.39 665.542 1450.74 Q667.348 1451.09 669.292 1451.78 Z" fill="#000000" fill-rule="nonzero" fill-opacity="1" /><path clip-path="url(#clip840)" d="M892.982 1469.17 Q889.649 1469.17 887.727 1470.95 Q885.829 1472.73 885.829 1475.86 Q885.829 1478.98 887.727 1480.77 Q889.649 1482.55 892.982 1482.55 Q896.315 1482.55 898.237 1480.77 Q900.158 1478.96 900.158 1475.86 Q900.158 1472.73 898.237 1470.95 Q896.339 1469.17 892.982 1469.17 M888.306 1467.18 Q885.297 1466.44 883.607 1464.38 Q881.94 1462.32 881.94 1459.35 Q881.94 1455.21 884.88 1452.8 Q887.843 1450.39 892.982 1450.39 Q898.144 1450.39 901.084 1452.8 Q904.024 1455.21 904.024 1459.35 Q904.024 1462.32 902.334 1464.38 Q900.667 1466.44 897.681 1467.18 Q901.061 1467.96 902.936 1470.26 Q904.834 1472.55 904.834 1475.86 Q904.834 1480.88 901.755 1483.57 Q898.7 1486.25 892.982 1486.25 Q887.265 1486.25 884.186 1483.57 Q881.13 1480.88 881.13 1475.86 Q881.13 1472.55 883.028 1470.26 Q884.927 1467.96 888.306 1467.18 M886.593 1459.79 Q886.593 1462.48 888.26 1463.98 Q889.95 1465.49 892.982 1465.49 Q895.991 1465.49 897.681 1463.98 Q899.394 1462.48 899.394 1459.79 Q899.394 1457.11 897.681 1455.6 Q895.991 1454.1 892.982 1454.1 Q889.95 1454.1 888.26 1455.6 Q886.593 1457.11 886.593 1459.79 Z" fill="#000000" fill-rule="nonzero" fill-opacity="1" /><path clip-path="url(#clip840)" d="M1101.05 1481.64 L1108.69 1481.64 L1108.69 1455.28 L1100.38 1456.95 L1100.38 1452.69 L1108.64 1451.02 L1113.32 1451.02 L1113.32 1481.64 L1120.95 1481.64 L1120.95 1485.58 L1101.05 1485.58 L1101.05 1481.64 Z" fill="#000000" fill-rule="nonzero" fill-opacity="1" /><path clip-path="url(#clip840)" d="M1140.4 1454.1 Q1136.79 1454.1 1134.96 1457.66 Q1133.15 1461.2 1133.15 1468.33 Q1133.15 1475.44 1134.96 1479.01 Q1136.79 1482.55 1140.4 1482.55 Q1144.03 1482.55 1145.84 1479.01 Q1147.67 1475.44 1147.67 1468.33 Q1147.67 1461.2 1145.84 1457.66 Q1144.03 1454.1 1140.4 1454.1 M1140.4 1450.39 Q1146.21 1450.39 1149.26 1455 Q1152.34 1459.58 1152.34 1468.33 Q1152.34 1477.06 1149.26 1481.67 Q1146.21 1486.25 1140.4 1486.25 Q1134.59 1486.25 1131.51 1481.67 Q1128.45 1477.06 1128.45 1468.33 Q1128.45 1459.58 1131.51 1455 Q1134.59 1450.39 1140.4 1450.39 Z" fill="#000000" fill-rule="nonzero" fill-opacity="1" /><path clip-path="url(#clip840)" d="M1335.22 1481.64 L1342.86 1481.64 L1342.86 1455.28 L1334.55 1456.95 L1334.55 1452.69 L1342.82 1451.02 L1347.49 1451.02 L1347.49 1481.64 L1355.13 1481.64 L1355.13 1485.58 L1335.22 1485.58 L1335.22 1481.64 Z" fill="#000000" fill-rule="nonzero" fill-opacity="1" /><path clip-path="url(#clip840)" d="M1368.6 1481.64 L1384.92 1481.64 L1384.92 1485.58 L1362.98 1485.58 L1362.98 1481.64 Q1365.64 1478.89 1370.22 1474.26 Q1374.83 1469.61 1376.01 1468.27 Q1378.25 1465.74 1379.13 1464.01 Q1380.04 1462.25 1380.04 1460.56 Q1380.04 1457.8 1378.09 1456.07 Q1376.17 1454.33 1373.07 1454.33 Q1370.87 1454.33 1368.42 1455.09 Q1365.99 1455.86 1363.21 1457.41 L1363.21 1452.69 Q1366.03 1451.55 1368.49 1450.97 Q1370.94 1450.39 1372.98 1450.39 Q1378.35 1450.39 1381.54 1453.08 Q1384.74 1455.77 1384.74 1460.26 Q1384.74 1462.39 1383.93 1464.31 Q1383.14 1466.2 1381.03 1468.8 Q1380.45 1469.47 1377.35 1472.69 Q1374.25 1475.88 1368.6 1481.64 Z" fill="#000000" fill-rule="nonzero" fill-opacity="1" /><path clip-path="url(#clip840)" d="M1567.56 1481.64 L1575.2 1481.64 L1575.2 1455.28 L1566.89 1456.95 L1566.89 1452.69 L1575.15 1451.02 L1579.83 1451.02 L1579.83 1481.64 L1587.47 1481.64 L1587.47 1485.58 L1567.56 1485.58 L1567.56 1481.64 Z" fill="#000000" fill-rule="nonzero" fill-opacity="1" /><path clip-path="url(#clip840)" d="M1609.76 1455.09 L1597.95 1473.54 L1609.76 1473.54 L1609.76 1455.09 M1608.53 1451.02 L1614.41 1451.02 L1614.41 1473.54 L1619.34 1473.54 L1619.34 1477.43 L1614.41 1477.43 L1614.41 1485.58 L1609.76 1485.58 L1609.76 1477.43 L1594.16 1477.43 L1594.16 1472.92 L1608.53 1451.02 Z" fill="#000000" fill-rule="nonzero" fill-opacity="1" /><path clip-path="url(#clip840)" d="M1801.1 1481.64 L1808.74 1481.64 L1808.74 1455.28 L1800.43 1456.95 L1800.43 1452.69 L1808.69 1451.02 L1813.37 1451.02 L1813.37 1481.64 L1821 1481.64 L1821 1485.58 L1801.1 1485.58 L1801.1 1481.64 Z" fill="#000000" fill-rule="nonzero" fill-opacity="1" /><path clip-path="url(#clip840)" d="M1841.03 1466.44 Q1837.88 1466.44 1836.03 1468.59 Q1834.2 1470.74 1834.2 1474.49 Q1834.2 1478.22 1836.03 1480.39 Q1837.88 1482.55 1841.03 1482.55 Q1844.18 1482.55 1846 1480.39 Q1847.86 1478.22 1847.86 1474.49 Q1847.86 1470.74 1846 1468.59 Q1844.18 1466.44 1841.03 1466.44 M1850.31 1451.78 L1850.31 1456.04 Q1848.55 1455.21 1846.75 1454.77 Q1844.96 1454.33 1843.2 1454.33 Q1838.57 1454.33 1836.12 1457.45 Q1833.69 1460.58 1833.34 1466.9 Q1834.71 1464.89 1836.77 1463.82 Q1838.83 1462.73 1841.31 1462.73 Q1846.51 1462.73 1849.52 1465.9 Q1852.56 1469.05 1852.56 1474.49 Q1852.56 1479.82 1849.41 1483.03 Q1846.26 1486.25 1841.03 1486.25 Q1835.03 1486.25 1831.86 1481.67 Q1828.69 1477.06 1828.69 1468.33 Q1828.69 1460.14 1832.58 1455.28 Q1836.47 1450.39 1843.02 1450.39 Q1844.78 1450.39 1846.56 1450.74 Q1848.37 1451.09 1850.31 1451.78 Z" fill="#000000" fill-rule="nonzero" fill-opacity="1" /><path clip-path="url(#clip840)" d="M2034.6 1481.64 L2042.24 1481.64 L2042.24 1455.28 L2033.93 1456.95 L2033.93 1452.69 L2042.19 1451.02 L2046.87 1451.02 L2046.87 1481.64 L2054.51 1481.64 L2054.51 1485.58 L2034.6 1485.58 L2034.6 1481.64 Z" fill="#000000" fill-rule="nonzero" fill-opacity="1" /><path clip-path="url(#clip840)" d="M2073.95 1469.17 Q2070.62 1469.17 2068.7 1470.95 Q2066.8 1472.73 2066.8 1475.86 Q2066.8 1478.98 2068.7 1480.77 Q2070.62 1482.55 2073.95 1482.55 Q2077.29 1482.55 2079.21 1480.77 Q2081.13 1478.96 2081.13 1475.86 Q2081.13 1472.73 2079.21 1470.95 Q2077.31 1469.17 2073.95 1469.17 M2069.28 1467.18 Q2066.27 1466.44 2064.58 1464.38 Q2062.91 1462.32 2062.91 1459.35 Q2062.91 1455.21 2065.85 1452.8 Q2068.81 1450.39 2073.95 1450.39 Q2079.12 1450.39 2082.06 1452.8 Q2084.99 1455.21 2084.99 1459.35 Q2084.99 1462.32 2083.31 1464.38 Q2081.64 1466.44 2078.65 1467.18 Q2082.03 1467.96 2083.91 1470.26 Q2085.8 1472.55 2085.8 1475.86 Q2085.8 1480.88 2082.73 1483.57 Q2079.67 1486.25 2073.95 1486.25 Q2068.24 1486.25 2065.16 1483.57 Q2062.1 1480.88 2062.1 1475.86 Q2062.1 1472.55 2064 1470.26 Q2065.9 1467.96 2069.28 1467.18 M2067.56 1459.79 Q2067.56 1462.48 2069.23 1463.98 Q2070.92 1465.49 2073.95 1465.49 Q2076.96 1465.49 2078.65 1463.98 Q2080.37 1462.48 2080.37 1459.79 Q2080.37 1457.11 2078.65 1455.6 Q2076.96 1454.1 2073.95 1454.1 Q2070.92 1454.1 2069.23 1455.6 Q2067.56 1457.11 2067.56 1459.79 Z" fill="#000000" fill-rule="nonzero" fill-opacity="1" /><path clip-path="url(#clip840)" d="M2272.02 1481.64 L2288.34 1481.64 L2288.34 1485.58 L2266.39 1485.58 L2266.39 1481.64 Q2269.06 1478.89 2273.64 1474.26 Q2278.24 1469.61 2279.43 1468.27 Q2281.67 1465.74 2282.55 1464.01 Q2283.45 1462.25 2283.45 1460.56 Q2283.45 1457.8 2281.51 1456.07 Q2279.59 1454.33 2276.49 1454.33 Q2274.29 1454.33 2271.83 1455.09 Q2269.4 1455.86 2266.62 1457.41 L2266.62 1452.69 Q2269.45 1451.55 2271.9 1450.97 Q2274.36 1450.39 2276.39 1450.39 Q2281.76 1450.39 2284.96 1453.08 Q2288.15 1455.77 2288.15 1460.26 Q2288.15 1462.39 2287.34 1464.31 Q2286.55 1466.2 2284.45 1468.8 Q2283.87 1469.47 2280.77 1472.69 Q2277.67 1475.88 2272.02 1481.64 Z" fill="#000000" fill-rule="nonzero" fill-opacity="1" /><path clip-path="url(#clip840)" d="M2308.15 1454.1 Q2304.54 1454.1 2302.71 1457.66 Q2300.91 1461.2 2300.91 1468.33 Q2300.91 1475.44 2302.71 1479.01 Q2304.54 1482.55 2308.15 1482.55 Q2311.79 1482.55 2313.59 1479.01 Q2315.42 1475.44 2315.42 1468.33 Q2315.42 1461.2 2313.59 1457.66 Q2311.79 1454.1 2308.15 1454.1 M2308.15 1450.39 Q2313.96 1450.39 2317.02 1455 Q2320.1 1459.58 2320.1 1468.33 Q2320.1 1477.06 2317.02 1481.67 Q2313.96 1486.25 2308.15 1486.25 Q2302.34 1486.25 2299.26 1481.67 Q2296.21 1477.06 2296.21 1468.33 Q2296.21 1459.58 2299.26 1455 Q2302.34 1450.39 2308.15 1450.39 Z" fill="#000000" fill-rule="nonzero" fill-opacity="1" /><path clip-path="url(#clip840)" d="M1311.47 1537.81 L1311.47 1518.52 L1317.32 1518.52 L1317.32 1568.04 L1311.47 1568.04 L1311.47 1562.7 Q1309.62 1565.88 1306.79 1567.44 Q1303.99 1568.97 1300.04 1568.97 Q1293.58 1568.97 1289.5 1563.81 Q1285.46 1558.65 1285.46 1550.25 Q1285.46 1541.85 1289.5 1536.69 Q1293.58 1531.54 1300.04 1531.54 Q1303.99 1531.54 1306.79 1533.1 Q1309.62 1534.62 1311.47 1537.81 M1291.51 1550.25 Q1291.51 1556.71 1294.15 1560.4 Q1296.82 1564.07 1301.47 1564.07 Q1306.12 1564.07 1308.79 1560.4 Q1311.47 1556.71 1311.47 1550.25 Q1311.47 1543.79 1308.79 1540.13 Q1306.12 1536.44 1301.47 1536.44 Q1296.82 1536.44 1294.15 1540.13 Q1291.51 1543.79 1291.51 1550.25 Z" fill="#000000" fill-rule="nonzero" fill-opacity="1" /><polyline clip-path="url(#clip840)" style="stroke:#000000; stroke-linecap:round; stroke-linejoin:round; stroke-width:4; stroke-opacity:1; fill:none" points="250.028,1423.18 250.028,47.2441 "/>
<polyline clip-path="url(#clip840)" style="stroke:#000000; stroke-linecap:round; stroke-linejoin:round; stroke-width:4; stroke-opacity:1; fill:none" points="250.028,1421.48 268.926,1421.48 "/>
<polyline clip-path="url(#clip840)" style="stroke:#000000; stroke-linecap:round; stroke-linejoin:round; stroke-width:4; stroke-opacity:1; fill:none" points="250.028,1047.13 268.926,1047.13 "/>
<polyline clip-path="url(#clip840)" style="stroke:#000000; stroke-linecap:round; stroke-linejoin:round; stroke-width:4; stroke-opacity:1; fill:none" points="250.028,672.776 268.926,672.776 "/>
<polyline clip-path="url(#clip840)" style="stroke:#000000; stroke-linecap:round; stroke-linejoin:round; stroke-width:4; stroke-opacity:1; fill:none" points="250.028,298.426 268.926,298.426 "/>
<path clip-path="url(#clip840)" d="M126.691 1407.28 Q123.08 1407.28 121.251 1410.84 Q119.445 1414.38 119.445 1421.51 Q119.445 1428.62 121.251 1432.18 Q123.08 1435.72 126.691 1435.72 Q130.325 1435.72 132.13 1432.18 Q133.959 1428.62 133.959 1421.51 Q133.959 1414.38 132.13 1410.84 Q130.325 1407.28 126.691 1407.28 M126.691 1403.57 Q132.501 1403.57 135.556 1408.18 Q138.635 1412.76 138.635 1421.51 Q138.635 1430.24 135.556 1434.85 Q132.501 1439.43 126.691 1439.43 Q120.88 1439.43 117.802 1434.85 Q114.746 1430.24 114.746 1421.51 Q114.746 1412.76 117.802 1408.18 Q120.88 1403.57 126.691 1403.57 Z" fill="#000000" fill-rule="nonzero" fill-opacity="1" /><path clip-path="url(#clip840)" d="M146.853 1432.88 L151.737 1432.88 L151.737 1438.76 L146.853 1438.76 L146.853 1432.88 Z" fill="#000000" fill-rule="nonzero" fill-opacity="1" /><path clip-path="url(#clip840)" d="M171.922 1407.28 Q168.311 1407.28 166.482 1410.84 Q164.677 1414.38 164.677 1421.51 Q164.677 1428.62 166.482 1432.18 Q168.311 1435.72 171.922 1435.72 Q175.556 1435.72 177.362 1432.18 Q179.19 1428.62 179.19 1421.51 Q179.19 1414.38 177.362 1410.84 Q175.556 1407.28 171.922 1407.28 M171.922 1403.57 Q177.732 1403.57 180.788 1408.18 Q183.866 1412.76 183.866 1421.51 Q183.866 1430.24 180.788 1434.85 Q177.732 1439.43 171.922 1439.43 Q166.112 1439.43 163.033 1434.85 Q159.978 1430.24 159.978 1421.51 Q159.978 1412.76 163.033 1408.18 Q166.112 1403.57 171.922 1403.57 Z" fill="#000000" fill-rule="nonzero" fill-opacity="1" /><path clip-path="url(#clip840)" d="M202.084 1407.28 Q198.473 1407.28 196.644 1410.84 Q194.838 1414.38 194.838 1421.51 Q194.838 1428.62 196.644 1432.18 Q198.473 1435.72 202.084 1435.72 Q205.718 1435.72 207.524 1432.18 Q209.352 1428.62 209.352 1421.51 Q209.352 1414.38 207.524 1410.84 Q205.718 1407.28 202.084 1407.28 M202.084 1403.57 Q207.894 1403.57 210.949 1408.18 Q214.028 1412.76 214.028 1421.51 Q214.028 1430.24 210.949 1434.85 Q207.894 1439.43 202.084 1439.43 Q196.274 1439.43 193.195 1434.85 Q190.139 1430.24 190.139 1421.51 Q190.139 1412.76 193.195 1408.18 Q196.274 1403.57 202.084 1403.57 Z" fill="#000000" fill-rule="nonzero" fill-opacity="1" /><path clip-path="url(#clip840)" d="M128.288 1032.93 Q124.677 1032.93 122.848 1036.49 Q121.043 1040.03 121.043 1047.16 Q121.043 1054.27 122.848 1057.83 Q124.677 1061.37 128.288 1061.37 Q131.922 1061.37 133.728 1057.83 Q135.556 1054.27 135.556 1047.16 Q135.556 1040.03 133.728 1036.49 Q131.922 1032.93 128.288 1032.93 M128.288 1029.22 Q134.098 1029.22 137.154 1033.83 Q140.232 1038.41 140.232 1047.16 Q140.232 1055.89 137.154 1060.49 Q134.098 1065.08 128.288 1065.08 Q122.478 1065.08 119.399 1060.49 Q116.343 1055.89 116.343 1047.16 Q116.343 1038.41 119.399 1033.83 Q122.478 1029.22 128.288 1029.22 Z" fill="#000000" fill-rule="nonzero" fill-opacity="1" /><path clip-path="url(#clip840)" d="M148.45 1058.53 L153.334 1058.53 L153.334 1064.41 L148.45 1064.41 L148.45 1058.53 Z" fill="#000000" fill-rule="nonzero" fill-opacity="1" /><path clip-path="url(#clip840)" d="M173.519 1032.93 Q169.908 1032.93 168.079 1036.49 Q166.274 1040.03 166.274 1047.16 Q166.274 1054.27 168.079 1057.83 Q169.908 1061.37 173.519 1061.37 Q177.153 1061.37 178.959 1057.83 Q180.788 1054.27 180.788 1047.16 Q180.788 1040.03 178.959 1036.49 Q177.153 1032.93 173.519 1032.93 M173.519 1029.22 Q179.329 1029.22 182.385 1033.83 Q185.463 1038.41 185.463 1047.16 Q185.463 1055.89 182.385 1060.49 Q179.329 1065.08 173.519 1065.08 Q167.709 1065.08 164.63 1060.49 Q161.575 1055.89 161.575 1047.16 Q161.575 1038.41 164.63 1033.83 Q167.709 1029.22 173.519 1029.22 Z" fill="#000000" fill-rule="nonzero" fill-opacity="1" /><path clip-path="url(#clip840)" d="M197.709 1060.47 L214.028 1060.47 L214.028 1064.41 L192.084 1064.41 L192.084 1060.47 Q194.746 1057.72 199.329 1053.09 Q203.936 1048.43 205.116 1047.09 Q207.362 1044.57 208.241 1042.83 Q209.144 1041.07 209.144 1039.38 Q209.144 1036.63 207.199 1034.89 Q205.278 1033.16 202.176 1033.16 Q199.977 1033.16 197.524 1033.92 Q195.093 1034.68 192.315 1036.24 L192.315 1031.51 Q195.139 1030.38 197.593 1029.8 Q200.047 1029.22 202.084 1029.22 Q207.454 1029.22 210.649 1031.91 Q213.843 1034.59 213.843 1039.08 Q213.843 1041.21 213.033 1043.13 Q212.246 1045.03 210.139 1047.62 Q209.561 1048.3 206.459 1051.51 Q203.357 1054.71 197.709 1060.47 Z" fill="#000000" fill-rule="nonzero" fill-opacity="1" /><path clip-path="url(#clip840)" d="M126.205 658.575 Q122.593 658.575 120.765 662.14 Q118.959 665.682 118.959 672.811 Q118.959 679.918 120.765 683.482 Q122.593 687.024 126.205 687.024 Q129.839 687.024 131.644 683.482 Q133.473 679.918 133.473 672.811 Q133.473 665.682 131.644 662.14 Q129.839 658.575 126.205 658.575 M126.205 654.872 Q132.015 654.872 135.07 659.478 Q138.149 664.061 138.149 672.811 Q138.149 681.538 135.07 686.144 Q132.015 690.728 126.205 690.728 Q120.394 690.728 117.316 686.144 Q114.26 681.538 114.26 672.811 Q114.26 664.061 117.316 659.478 Q120.394 654.872 126.205 654.872 Z" fill="#000000" fill-rule="nonzero" fill-opacity="1" /><path clip-path="url(#clip840)" d="M146.366 684.177 L151.251 684.177 L151.251 690.056 L146.366 690.056 L146.366 684.177 Z" fill="#000000" fill-rule="nonzero" fill-opacity="1" /><path clip-path="url(#clip840)" d="M171.436 658.575 Q167.825 658.575 165.996 662.14 Q164.19 665.682 164.19 672.811 Q164.19 679.918 165.996 683.482 Q167.825 687.024 171.436 687.024 Q175.07 687.024 176.876 683.482 Q178.704 679.918 178.704 672.811 Q178.704 665.682 176.876 662.14 Q175.07 658.575 171.436 658.575 M171.436 654.872 Q177.246 654.872 180.301 659.478 Q183.38 664.061 183.38 672.811 Q183.38 681.538 180.301 686.144 Q177.246 690.728 171.436 690.728 Q165.626 690.728 162.547 686.144 Q159.491 681.538 159.491 672.811 Q159.491 664.061 162.547 659.478 Q165.626 654.872 171.436 654.872 Z" fill="#000000" fill-rule="nonzero" fill-opacity="1" /><path clip-path="url(#clip840)" d="M204.445 659.571 L192.639 678.02 L204.445 678.02 L204.445 659.571 M203.218 655.496 L209.098 655.496 L209.098 678.02 L214.028 678.02 L214.028 681.908 L209.098 681.908 L209.098 690.056 L204.445 690.056 L204.445 681.908 L188.843 681.908 L188.843 677.395 L203.218 655.496 Z" fill="#000000" fill-rule="nonzero" fill-opacity="1" /><path clip-path="url(#clip840)" d="M126.529 284.225 Q122.918 284.225 121.089 287.79 Q119.283 291.331 119.283 298.461 Q119.283 305.567 121.089 309.132 Q122.918 312.674 126.529 312.674 Q130.163 312.674 131.968 309.132 Q133.797 305.567 133.797 298.461 Q133.797 291.331 131.968 287.79 Q130.163 284.225 126.529 284.225 M126.529 280.521 Q132.339 280.521 135.394 285.128 Q138.473 289.711 138.473 298.461 Q138.473 307.188 135.394 311.794 Q132.339 316.377 126.529 316.377 Q120.718 316.377 117.64 311.794 Q114.584 307.188 114.584 298.461 Q114.584 289.711 117.64 285.128 Q120.718 280.521 126.529 280.521 Z" fill="#000000" fill-rule="nonzero" fill-opacity="1" /><path clip-path="url(#clip840)" d="M146.691 309.826 L151.575 309.826 L151.575 315.706 L146.691 315.706 L146.691 309.826 Z" fill="#000000" fill-rule="nonzero" fill-opacity="1" /><path clip-path="url(#clip840)" d="M171.76 284.225 Q168.149 284.225 166.32 287.79 Q164.515 291.331 164.515 298.461 Q164.515 305.567 166.32 309.132 Q168.149 312.674 171.76 312.674 Q175.394 312.674 177.2 309.132 Q179.028 305.567 179.028 298.461 Q179.028 291.331 177.2 287.79 Q175.394 284.225 171.76 284.225 M171.76 280.521 Q177.57 280.521 180.626 285.128 Q183.704 289.711 183.704 298.461 Q183.704 307.188 180.626 311.794 Q177.57 316.377 171.76 316.377 Q165.95 316.377 162.871 311.794 Q159.815 307.188 159.815 298.461 Q159.815 289.711 162.871 285.128 Q165.95 280.521 171.76 280.521 Z" fill="#000000" fill-rule="nonzero" fill-opacity="1" /><path clip-path="url(#clip840)" d="M202.5 296.563 Q199.352 296.563 197.5 298.715 Q195.672 300.868 195.672 304.618 Q195.672 308.345 197.5 310.521 Q199.352 312.674 202.5 312.674 Q205.649 312.674 207.477 310.521 Q209.329 308.345 209.329 304.618 Q209.329 300.868 207.477 298.715 Q205.649 296.563 202.5 296.563 M211.783 281.91 L211.783 286.169 Q210.024 285.336 208.218 284.896 Q206.436 284.456 204.676 284.456 Q200.047 284.456 197.593 287.581 Q195.163 290.706 194.815 297.026 Q196.181 295.012 198.241 293.947 Q200.301 292.859 202.778 292.859 Q207.987 292.859 210.996 296.03 Q214.028 299.178 214.028 304.618 Q214.028 309.942 210.88 313.16 Q207.732 316.377 202.5 316.377 Q196.505 316.377 193.334 311.794 Q190.163 307.188 190.163 298.461 Q190.163 290.266 194.051 285.405 Q197.94 280.521 204.491 280.521 Q206.25 280.521 208.033 280.868 Q209.838 281.216 211.783 281.91 Z" fill="#000000" fill-rule="nonzero" fill-opacity="1" /><path clip-path="url(#clip840)" d="M16.4842 1124.67 L16.4842 1115.09 L48.8219 1102.96 L16.4842 1090.77 L16.4842 1081.19 L64.0042 1081.19 L64.0042 1087.46 L22.277 1087.46 L54.8694 1099.71 L54.8694 1106.17 L22.277 1118.43 L64.0042 1118.43 L64.0042 1124.67 L16.4842 1124.67 Z" fill="#000000" fill-rule="nonzero" fill-opacity="1" /><path clip-path="url(#clip840)" d="M44.7161 1038.19 L47.5806 1038.19 L47.5806 1065.11 Q53.6281 1064.73 56.8109 1061.49 Q59.9619 1058.21 59.9619 1052.38 Q59.9619 1049.01 59.1344 1045.86 Q58.3069 1042.68 56.6518 1039.56 L62.1899 1039.56 Q63.5267 1042.71 64.227 1046.02 Q64.9272 1049.33 64.9272 1052.73 Q64.9272 1061.26 59.9619 1066.26 Q54.9967 1071.23 46.5303 1071.23 Q37.7774 1071.23 32.6531 1066.52 Q27.4968 1061.77 27.4968 1053.75 Q27.4968 1046.56 32.1438 1042.39 Q36.7589 1038.19 44.7161 1038.19 M42.9973 1044.04 Q38.1912 1044.11 35.3266 1046.75 Q32.4621 1049.36 32.4621 1053.69 Q32.4621 1058.59 35.2312 1061.55 Q38.0002 1064.48 43.0292 1064.92 L42.9973 1044.04 Z" fill="#000000" fill-rule="nonzero" fill-opacity="1" /><path clip-path="url(#clip840)" d="M33.7671 1005.12 L14.479 1005.12 L14.479 999.261 L64.0042 999.261 L64.0042 1005.12 L58.657 1005.12 Q61.8398 1006.96 63.3994 1009.8 Q64.9272 1012.6 64.9272 1016.54 Q64.9272 1023.01 59.771 1027.08 Q54.6147 1031.12 46.212 1031.12 Q37.8093 1031.12 32.6531 1027.08 Q27.4968 1023.01 27.4968 1016.54 Q27.4968 1012.6 29.0564 1009.8 Q30.5842 1006.96 33.7671 1005.12 M46.212 1025.07 Q52.6732 1025.07 56.3653 1022.43 Q60.0256 1019.76 60.0256 1015.11 Q60.0256 1010.47 56.3653 1007.79 Q52.6732 1005.12 46.212 1005.12 Q39.7508 1005.12 36.0905 1007.79 Q32.3984 1010.47 32.3984 1015.11 Q32.3984 1019.76 36.0905 1022.43 Q39.7508 1025.07 46.212 1025.07 Z" fill="#000000" fill-rule="nonzero" fill-opacity="1" /><path clip-path="url(#clip840)" d="M28.3562 987.198 L28.3562 981.342 L64.0042 981.342 L64.0042 987.198 L28.3562 987.198 M14.479 987.198 L14.479 981.342 L21.895 981.342 L21.895 987.198 L14.479 987.198 Z" fill="#000000" fill-rule="nonzero" fill-opacity="1" /><path clip-path="url(#clip840)" d="M46.0847 952.887 Q46.0847 959.985 47.7079 962.722 Q49.3312 965.46 53.2461 965.46 Q56.3653 965.46 58.2114 963.423 Q60.0256 961.354 60.0256 957.821 Q60.0256 952.951 56.5881 950.023 Q53.1188 947.063 47.3897 947.063 L46.0847 947.063 L46.0847 952.887 M43.6657 941.206 L64.0042 941.206 L64.0042 947.063 L58.5933 947.063 Q61.8398 949.068 63.3994 952.06 Q64.9272 955.052 64.9272 959.38 Q64.9272 964.855 61.8716 968.101 Q58.7843 971.316 53.6281 971.316 Q47.6125 971.316 44.5569 967.306 Q41.5014 963.263 41.5014 955.274 L41.5014 947.063 L40.9285 947.063 Q36.8862 947.063 34.6901 949.736 Q32.4621 952.378 32.4621 957.184 Q32.4621 960.24 33.1941 963.136 Q33.9262 966.032 35.3903 968.706 L29.9795 968.706 Q28.7381 965.491 28.1334 962.468 Q27.4968 959.444 27.4968 956.579 Q27.4968 948.845 31.5072 945.026 Q35.5176 941.206 43.6657 941.206 Z" fill="#000000" fill-rule="nonzero" fill-opacity="1" /><path clip-path="url(#clip840)" d="M42.4881 899.511 L64.0042 899.511 L64.0042 905.367 L42.679 905.367 Q37.6183 905.367 35.1038 907.341 Q32.5894 909.314 32.5894 913.261 Q32.5894 918.003 35.6131 920.74 Q38.6368 923.478 43.8567 923.478 L64.0042 923.478 L64.0042 929.366 L28.3562 929.366 L28.3562 923.478 L33.8944 923.478 Q30.6797 921.377 29.0883 918.544 Q27.4968 915.68 27.4968 911.956 Q27.4968 905.813 31.3163 902.662 Q35.1038 899.511 42.4881 899.511 Z" fill="#000000" fill-rule="nonzero" fill-opacity="1" /><path clip-path="url(#clip840)" d="M16.4842 866.855 L16.4842 836.809 L21.895 836.809 L21.895 860.425 L35.9632 860.425 L35.9632 837.795 L41.3741 837.795 L41.3741 860.425 L58.5933 860.425 L58.5933 836.236 L64.0042 836.236 L64.0042 866.855 L16.4842 866.855 Z" fill="#000000" fill-rule="nonzero" fill-opacity="1" /><path clip-path="url(#clip840)" d="M33.8307 805.267 Q33.2578 806.253 33.0032 807.431 Q32.7167 808.577 32.7167 809.977 Q32.7167 814.942 35.9632 817.616 Q39.1779 820.258 45.2253 820.258 L64.0042 820.258 L64.0042 826.146 L28.3562 826.146 L28.3562 820.258 L33.8944 820.258 Q30.6479 818.412 29.0883 815.452 Q27.4968 812.492 27.4968 808.258 Q27.4968 807.654 27.5923 806.922 Q27.656 806.19 27.8151 805.298 L33.8307 805.267 Z" fill="#000000" fill-rule="nonzero" fill-opacity="1" /><path clip-path="url(#clip840)" d="M33.8307 779.613 Q33.2578 780.599 33.0032 781.777 Q32.7167 782.923 32.7167 784.323 Q32.7167 789.289 35.9632 791.962 Q39.1779 794.604 45.2253 794.604 L64.0042 794.604 L64.0042 800.492 L28.3562 800.492 L28.3562 794.604 L33.8944 794.604 Q30.6479 792.758 29.0883 789.798 Q27.4968 786.838 27.4968 782.605 Q27.4968 782 27.5923 781.268 Q27.656 780.536 27.8151 779.645 L33.8307 779.613 Z" fill="#000000" fill-rule="nonzero" fill-opacity="1" /><path clip-path="url(#clip840)" d="M32.4621 761.089 Q32.4621 765.799 36.1542 768.536 Q39.8145 771.274 46.212 771.274 Q52.6095 771.274 56.3017 768.568 Q59.9619 765.831 59.9619 761.089 Q59.9619 756.41 56.2698 753.673 Q52.5777 750.935 46.212 750.935 Q39.8781 750.935 36.186 753.673 Q32.4621 756.41 32.4621 761.089 M27.4968 761.089 Q27.4968 753.45 32.4621 749.089 Q37.4273 744.729 46.212 744.729 Q54.9649 744.729 59.9619 749.089 Q64.9272 753.45 64.9272 761.089 Q64.9272 768.759 59.9619 773.12 Q54.9649 777.448 46.212 777.448 Q37.4273 777.448 32.4621 773.12 Q27.4968 768.759 27.4968 761.089 Z" fill="#000000" fill-rule="nonzero" fill-opacity="1" /><path clip-path="url(#clip840)" d="M33.8307 714.364 Q33.2578 715.351 33.0032 716.529 Q32.7167 717.674 32.7167 719.075 Q32.7167 724.04 35.9632 726.714 Q39.1779 729.356 45.2253 729.356 L64.0042 729.356 L64.0042 735.244 L28.3562 735.244 L28.3562 729.356 L33.8944 729.356 Q30.6479 727.509 29.0883 724.549 Q27.4968 721.589 27.4968 717.356 Q27.4968 716.751 27.5923 716.019 Q27.656 715.287 27.8151 714.396 L33.8307 714.364 Z" fill="#000000" fill-rule="nonzero" fill-opacity="1" /><path clip-path="url(#clip840)" d="M28.3562 657.869 L45.7028 670.759 L64.0042 657.2 L64.0042 664.107 L49.9996 674.483 L64.0042 684.859 L64.0042 691.766 L45.3526 677.921 L28.3562 690.588 L28.3562 683.682 L41.0558 674.228 L28.3562 664.775 L28.3562 657.869 Z" fill="#000000" fill-rule="nonzero" fill-opacity="1" /><path clip-path="url(#clip840)" d="M16.4842 643.387 L34.149 643.387 L34.149 648.798 L16.4842 648.798 L16.4842 643.387 Z" fill="#000000" fill-rule="nonzero" fill-opacity="1" /><path clip-path="url(#clip840)" d="M44.0477 605.511 Q46.403 605.288 50.2224 603.283 Q54.6466 600.927 57.1292 596.471 Q59.5482 592.111 59.58 587.4 L59.58 565.216 L64.6407 565.216 L64.6407 587.4 Q64.6407 593.511 61.4897 599.177 Q58.3387 604.81 52.7369 607.834 Q47.135 610.858 41.1831 610.858 Q35.2948 610.858 29.693 607.834 Q24.0912 604.81 20.9083 599.177 Q17.7255 593.511 17.7255 587.4 L17.7255 565.216 L22.7862 565.216 L22.7862 587.4 Q22.818 592.111 25.2688 596.471 Q27.7833 600.896 32.1756 603.283 Q35.995 605.32 38.9551 605.606 L38.9551 565.216 L44.0477 565.216 L44.0477 605.511 Z" fill="#000000" fill-rule="nonzero" fill-opacity="1" /><path clip-path="url(#clip840)" d="M14.479 533.324 L14.479 519.828 L19.0304 519.828 L19.0304 527.467 L68.0464 527.467 L68.0464 519.828 L72.5979 519.828 L72.5979 533.324 L14.479 533.324 Z" fill="#000000" fill-rule="nonzero" fill-opacity="1" /><path clip-path="url(#clip840)" d="M43.5384 510.312 L43.5384 493.156 L48.7583 493.156 L48.7583 510.312 L43.5384 510.312 Z" fill="#000000" fill-rule="nonzero" fill-opacity="1" /><path clip-path="url(#clip840)" d="M58.5933 481.889 L58.5933 471.385 L22.3406 471.385 L24.6323 482.812 L18.7758 482.812 L16.4842 471.449 L16.4842 465.02 L58.5933 465.02 L58.5933 454.516 L64.0042 454.516 L64.0042 481.889 L58.5933 481.889 Z" fill="#000000" fill-rule="nonzero" fill-opacity="1" /><path clip-path="url(#clip840)" d="M55.9197 440.862 L55.9197 434.146 L61.3942 434.146 L71.5793 439.366 L71.5793 443.472 L61.3942 440.862 L55.9197 440.862 Z" fill="#000000" fill-rule="nonzero" fill-opacity="1" /><path clip-path="url(#clip840)" d="M58.5933 398.975 L58.5933 388.472 L22.3406 388.472 L24.6323 399.898 L18.7758 399.898 L16.4842 388.536 L16.4842 382.106 L58.5933 382.106 L58.5933 371.603 L64.0042 371.603 L64.0042 398.975 L58.5933 398.975 Z" fill="#000000" fill-rule="nonzero" fill-opacity="1" /><path clip-path="url(#clip840)" d="M14.479 345.758 L72.5979 345.758 L72.5979 359.253 L68.0464 359.253 L68.0464 351.646 L19.0304 351.646 L19.0304 359.253 L14.479 359.253 L14.479 345.758 Z" fill="#000000" fill-rule="nonzero" fill-opacity="1" /><polyline clip-path="url(#clip842)" style="stroke:#d52628; stroke-linecap:round; stroke-linejoin:round; stroke-width:6; stroke-opacity:1; fill:none" points="309.539,323.017 426.228,755.981 542.916,958.642 659.605,1047 776.294,1159.34 892.982,1206.22 1009.67,1246.72 1126.36,1284.17 1243.05,1296.65 1359.74,1321.62 1476.42,1334.1 1593.11,1346.58 1709.8,1359.06 1826.49,1359.06 1943.18,1371.55 2059.87,1371.55 2176.56,1371.55 2293.24,1384.03 "/>
<circle clip-path="url(#clip842)" cx="309.539" cy="323.017" r="14.4" fill="#d52628" fill-rule="evenodd" fill-opacity="1" stroke="#000000" stroke-opacity="1" stroke-width="3.2"/>
<circle clip-path="url(#clip842)" cx="426.228" cy="755.981" r="14.4" fill="#d52628" fill-rule="evenodd" fill-opacity="1" stroke="#000000" stroke-opacity="1" stroke-width="3.2"/>
<circle clip-path="url(#clip842)" cx="542.916" cy="958.642" r="14.4" fill="#d52628" fill-rule="evenodd" fill-opacity="1" stroke="#000000" stroke-opacity="1" stroke-width="3.2"/>
<circle clip-path="url(#clip842)" cx="659.605" cy="1047" r="14.4" fill="#d52628" fill-rule="evenodd" fill-opacity="1" stroke="#000000" stroke-opacity="1" stroke-width="3.2"/>
<circle clip-path="url(#clip842)" cx="776.294" cy="1159.34" r="14.4" fill="#d52628" fill-rule="evenodd" fill-opacity="1" stroke="#000000" stroke-opacity="1" stroke-width="3.2"/>
<circle clip-path="url(#clip842)" cx="892.982" cy="1206.22" r="14.4" fill="#d52628" fill-rule="evenodd" fill-opacity="1" stroke="#000000" stroke-opacity="1" stroke-width="3.2"/>
<circle clip-path="url(#clip842)" cx="1009.67" cy="1246.72" r="14.4" fill="#d52628" fill-rule="evenodd" fill-opacity="1" stroke="#000000" stroke-opacity="1" stroke-width="3.2"/>
<circle clip-path="url(#clip842)" cx="1126.36" cy="1284.17" r="14.4" fill="#d52628" fill-rule="evenodd" fill-opacity="1" stroke="#000000" stroke-opacity="1" stroke-width="3.2"/>
<circle clip-path="url(#clip842)" cx="1243.05" cy="1296.65" r="14.4" fill="#d52628" fill-rule="evenodd" fill-opacity="1" stroke="#000000" stroke-opacity="1" stroke-width="3.2"/>
<circle clip-path="url(#clip842)" cx="1359.74" cy="1321.62" r="14.4" fill="#d52628" fill-rule="evenodd" fill-opacity="1" stroke="#000000" stroke-opacity="1" stroke-width="3.2"/>
<circle clip-path="url(#clip842)" cx="1476.42" cy="1334.1" r="14.4" fill="#d52628" fill-rule="evenodd" fill-opacity="1" stroke="#000000" stroke-opacity="1" stroke-width="3.2"/>
<circle clip-path="url(#clip842)" cx="1593.11" cy="1346.58" r="14.4" fill="#d52628" fill-rule="evenodd" fill-opacity="1" stroke="#000000" stroke-opacity="1" stroke-width="3.2"/>
<circle clip-path="url(#clip842)" cx="1709.8" cy="1359.06" r="14.4" fill="#d52628" fill-rule="evenodd" fill-opacity="1" stroke="#000000" stroke-opacity="1" stroke-width="3.2"/>
<circle clip-path="url(#clip842)" cx="1826.49" cy="1359.06" r="14.4" fill="#d52628" fill-rule="evenodd" fill-opacity="1" stroke="#000000" stroke-opacity="1" stroke-width="3.2"/>
<circle clip-path="url(#clip842)" cx="1943.18" cy="1371.55" r="14.4" fill="#d52628" fill-rule="evenodd" fill-opacity="1" stroke="#000000" stroke-opacity="1" stroke-width="3.2"/>
<circle clip-path="url(#clip842)" cx="2059.87" cy="1371.55" r="14.4" fill="#d52628" fill-rule="evenodd" fill-opacity="1" stroke="#000000" stroke-opacity="1" stroke-width="3.2"/>
<circle clip-path="url(#clip842)" cx="2176.56" cy="1371.55" r="14.4" fill="#d52628" fill-rule="evenodd" fill-opacity="1" stroke="#000000" stroke-opacity="1" stroke-width="3.2"/>
<circle clip-path="url(#clip842)" cx="2293.24" cy="1384.03" r="14.4" fill="#d52628" fill-rule="evenodd" fill-opacity="1" stroke="#000000" stroke-opacity="1" stroke-width="3.2"/>
<polyline clip-path="url(#clip842)" style="stroke:#9466bd; stroke-linecap:round; stroke-linejoin:round; stroke-width:6; stroke-opacity:1; fill:none" points="309.539,423.472 426.228,483.966 542.916,756.727 659.605,916.372 776.294,1033.04 892.982,1109.85 1009.67,1157.05 1126.36,1194.34 1243.05,1228.74 1359.74,1254.07 1476.42,1275.24 1593.11,1293.14 1709.8,1307.12 1826.49,1318.46 1943.18,1328.65 2059.87,1337.07 2176.56,1344.76 2293.24,1350.38 "/>
<circle clip-path="url(#clip842)" cx="309.539" cy="423.472" r="14.4" fill="#9466bd" fill-rule="evenodd" fill-opacity="1" stroke="#000000" stroke-opacity="1" stroke-width="3.2"/>
<circle clip-path="url(#clip842)" cx="426.228" cy="483.966" r="14.4" fill="#9466bd" fill-rule="evenodd" fill-opacity="1" stroke="#000000" stroke-opacity="1" stroke-width="3.2"/>
<circle clip-path="url(#clip842)" cx="542.916" cy="756.727" r="14.4" fill="#9466bd" fill-rule="evenodd" fill-opacity="1" stroke="#000000" stroke-opacity="1" stroke-width="3.2"/>
<circle clip-path="url(#clip842)" cx="659.605" cy="916.372" r="14.4" fill="#9466bd" fill-rule="evenodd" fill-opacity="1" stroke="#000000" stroke-opacity="1" stroke-width="3.2"/>
<circle clip-path="url(#clip842)" cx="776.294" cy="1033.04" r="14.4" fill="#9466bd" fill-rule="evenodd" fill-opacity="1" stroke="#000000" stroke-opacity="1" stroke-width="3.2"/>
<circle clip-path="url(#clip842)" cx="892.982" cy="1109.85" r="14.4" fill="#9466bd" fill-rule="evenodd" fill-opacity="1" stroke="#000000" stroke-opacity="1" stroke-width="3.2"/>
<circle clip-path="url(#clip842)" cx="1009.67" cy="1157.05" r="14.4" fill="#9466bd" fill-rule="evenodd" fill-opacity="1" stroke="#000000" stroke-opacity="1" stroke-width="3.2"/>
<circle clip-path="url(#clip842)" cx="1126.36" cy="1194.34" r="14.4" fill="#9466bd" fill-rule="evenodd" fill-opacity="1" stroke="#000000" stroke-opacity="1" stroke-width="3.2"/>
<circle clip-path="url(#clip842)" cx="1243.05" cy="1228.74" r="14.4" fill="#9466bd" fill-rule="evenodd" fill-opacity="1" stroke="#000000" stroke-opacity="1" stroke-width="3.2"/>
<circle clip-path="url(#clip842)" cx="1359.74" cy="1254.07" r="14.4" fill="#9466bd" fill-rule="evenodd" fill-opacity="1" stroke="#000000" stroke-opacity="1" stroke-width="3.2"/>
<circle clip-path="url(#clip842)" cx="1476.42" cy="1275.24" r="14.4" fill="#9466bd" fill-rule="evenodd" fill-opacity="1" stroke="#000000" stroke-opacity="1" stroke-width="3.2"/>
<circle clip-path="url(#clip842)" cx="1593.11" cy="1293.14" r="14.4" fill="#9466bd" fill-rule="evenodd" fill-opacity="1" stroke="#000000" stroke-opacity="1" stroke-width="3.2"/>
<circle clip-path="url(#clip842)" cx="1709.8" cy="1307.12" r="14.4" fill="#9466bd" fill-rule="evenodd" fill-opacity="1" stroke="#000000" stroke-opacity="1" stroke-width="3.2"/>
<circle clip-path="url(#clip842)" cx="1826.49" cy="1318.46" r="14.4" fill="#9466bd" fill-rule="evenodd" fill-opacity="1" stroke="#000000" stroke-opacity="1" stroke-width="3.2"/>
<circle clip-path="url(#clip842)" cx="1943.18" cy="1328.65" r="14.4" fill="#9466bd" fill-rule="evenodd" fill-opacity="1" stroke="#000000" stroke-opacity="1" stroke-width="3.2"/>
<circle clip-path="url(#clip842)" cx="2059.87" cy="1337.07" r="14.4" fill="#9466bd" fill-rule="evenodd" fill-opacity="1" stroke="#000000" stroke-opacity="1" stroke-width="3.2"/>
<circle clip-path="url(#clip842)" cx="2176.56" cy="1344.76" r="14.4" fill="#9466bd" fill-rule="evenodd" fill-opacity="1" stroke="#000000" stroke-opacity="1" stroke-width="3.2"/>
<circle clip-path="url(#clip842)" cx="2293.24" cy="1350.38" r="14.4" fill="#9466bd" fill-rule="evenodd" fill-opacity="1" stroke="#000000" stroke-opacity="1" stroke-width="3.2"/>
<polyline clip-path="url(#clip842)" style="stroke:#8b564a; stroke-linecap:round; stroke-linejoin:round; stroke-width:6; stroke-opacity:1; fill:none" points="309.539,86.1857 426.228,722.457 542.916,967.987 659.605,1080.57 776.294,1171.83 892.982,1232.15 1009.67,1263.79 1126.36,1296.65 1243.05,1319.3 1359.74,1334.1 1476.42,1346.58 1593.11,1358.83 1709.8,1359.06 1826.49,1371.55 1943.18,1371.6 2059.87,1383.97 2176.56,1384.03 2293.24,1384.24 "/>
<circle clip-path="url(#clip842)" cx="309.539" cy="86.1857" r="14.4" fill="#8b564a" fill-rule="evenodd" fill-opacity="1" stroke="#000000" stroke-opacity="1" stroke-width="3.2"/>
<circle clip-path="url(#clip842)" cx="426.228" cy="722.457" r="14.4" fill="#8b564a" fill-rule="evenodd" fill-opacity="1" stroke="#000000" stroke-opacity="1" stroke-width="3.2"/>
<circle clip-path="url(#clip842)" cx="542.916" cy="967.987" r="14.4" fill="#8b564a" fill-rule="evenodd" fill-opacity="1" stroke="#000000" stroke-opacity="1" stroke-width="3.2"/>
<circle clip-path="url(#clip842)" cx="659.605" cy="1080.57" r="14.4" fill="#8b564a" fill-rule="evenodd" fill-opacity="1" stroke="#000000" stroke-opacity="1" stroke-width="3.2"/>
<circle clip-path="url(#clip842)" cx="776.294" cy="1171.83" r="14.4" fill="#8b564a" fill-rule="evenodd" fill-opacity="1" stroke="#000000" stroke-opacity="1" stroke-width="3.2"/>
<circle clip-path="url(#clip842)" cx="892.982" cy="1232.15" r="14.4" fill="#8b564a" fill-rule="evenodd" fill-opacity="1" stroke="#000000" stroke-opacity="1" stroke-width="3.2"/>
<circle clip-path="url(#clip842)" cx="1009.67" cy="1263.79" r="14.4" fill="#8b564a" fill-rule="evenodd" fill-opacity="1" stroke="#000000" stroke-opacity="1" stroke-width="3.2"/>
<circle clip-path="url(#clip842)" cx="1126.36" cy="1296.65" r="14.4" fill="#8b564a" fill-rule="evenodd" fill-opacity="1" stroke="#000000" stroke-opacity="1" stroke-width="3.2"/>
<circle clip-path="url(#clip842)" cx="1243.05" cy="1319.3" r="14.4" fill="#8b564a" fill-rule="evenodd" fill-opacity="1" stroke="#000000" stroke-opacity="1" stroke-width="3.2"/>
<circle clip-path="url(#clip842)" cx="1359.74" cy="1334.1" r="14.4" fill="#8b564a" fill-rule="evenodd" fill-opacity="1" stroke="#000000" stroke-opacity="1" stroke-width="3.2"/>
<circle clip-path="url(#clip842)" cx="1476.42" cy="1346.58" r="14.4" fill="#8b564a" fill-rule="evenodd" fill-opacity="1" stroke="#000000" stroke-opacity="1" stroke-width="3.2"/>
<circle clip-path="url(#clip842)" cx="1593.11" cy="1358.83" r="14.4" fill="#8b564a" fill-rule="evenodd" fill-opacity="1" stroke="#000000" stroke-opacity="1" stroke-width="3.2"/>
<circle clip-path="url(#clip842)" cx="1709.8" cy="1359.06" r="14.4" fill="#8b564a" fill-rule="evenodd" fill-opacity="1" stroke="#000000" stroke-opacity="1" stroke-width="3.2"/>
<circle clip-path="url(#clip842)" cx="1826.49" cy="1371.55" r="14.4" fill="#8b564a" fill-rule="evenodd" fill-opacity="1" stroke="#000000" stroke-opacity="1" stroke-width="3.2"/>
<circle clip-path="url(#clip842)" cx="1943.18" cy="1371.6" r="14.4" fill="#8b564a" fill-rule="evenodd" fill-opacity="1" stroke="#000000" stroke-opacity="1" stroke-width="3.2"/>
<circle clip-path="url(#clip842)" cx="2059.87" cy="1383.97" r="14.4" fill="#8b564a" fill-rule="evenodd" fill-opacity="1" stroke="#000000" stroke-opacity="1" stroke-width="3.2"/>
<circle clip-path="url(#clip842)" cx="2176.56" cy="1384.03" r="14.4" fill="#8b564a" fill-rule="evenodd" fill-opacity="1" stroke="#000000" stroke-opacity="1" stroke-width="3.2"/>
<circle clip-path="url(#clip842)" cx="2293.24" cy="1384.24" r="14.4" fill="#8b564a" fill-rule="evenodd" fill-opacity="1" stroke="#000000" stroke-opacity="1" stroke-width="3.2"/>
<path clip-path="url(#clip840)" d="M1762.37 300.469 L2282.66 300.469 L2282.66 93.1086 L1762.37 93.1086  Z" fill="#ffffff" fill-rule="evenodd" fill-opacity="1"/>
<polyline clip-path="url(#clip840)" style="stroke:#000000; stroke-linecap:round; stroke-linejoin:round; stroke-width:4; stroke-opacity:1; fill:none" points="1762.37,300.469 2282.66,300.469 2282.66,93.1086 1762.37,93.1086 1762.37,300.469 "/>
<polyline clip-path="url(#clip840)" style="stroke:#d52628; stroke-linecap:round; stroke-linejoin:round; stroke-width:6; stroke-opacity:1; fill:none" points="1785.73,144.949 1925.92,144.949 "/>
<path clip-path="url(#clip840)" d="M1949.28 127.669 L1956.25 127.669 L1965.07 151.187 L1973.93 127.669 L1980.9 127.669 L1980.9 162.229 L1976.34 162.229 L1976.34 131.882 L1967.43 155.585 L1962.73 155.585 L1953.82 131.882 L1953.82 162.229 L1949.28 162.229 L1949.28 127.669 Z" fill="#000000" fill-rule="nonzero" fill-opacity="1" /><path clip-path="url(#clip840)" d="M2012.17 148.201 L2012.17 150.284 L1992.59 150.284 Q1992.87 154.682 1995.23 156.997 Q1997.61 159.289 2001.85 159.289 Q2004.3 159.289 2006.59 158.687 Q2008.91 158.085 2011.18 156.881 L2011.18 160.909 Q2008.89 161.881 2006.48 162.391 Q2004.07 162.9 2001.59 162.9 Q1995.39 162.9 1991.76 159.289 Q1988.15 155.678 1988.15 149.52 Q1988.15 143.155 1991.57 139.428 Q1995.02 135.678 2000.85 135.678 Q2006.09 135.678 2009.12 139.057 Q2012.17 142.414 2012.17 148.201 M2007.91 146.951 Q2007.87 143.456 2005.95 141.372 Q2004.05 139.289 2000.9 139.289 Q1997.34 139.289 1995.18 141.303 Q1993.05 143.317 1992.73 146.974 L2007.91 146.951 Z" fill="#000000" fill-rule="nonzero" fill-opacity="1" /><path clip-path="url(#clip840)" d="M2030.95 149.196 Q2025.78 149.196 2023.79 150.377 Q2021.8 151.557 2021.8 154.405 Q2021.8 156.673 2023.28 158.016 Q2024.79 159.335 2027.36 159.335 Q2030.9 159.335 2033.03 156.835 Q2035.18 154.312 2035.18 150.145 L2035.18 149.196 L2030.95 149.196 M2039.44 147.437 L2039.44 162.229 L2035.18 162.229 L2035.18 158.293 Q2033.72 160.655 2031.55 161.789 Q2029.37 162.9 2026.22 162.9 Q2022.24 162.9 2019.88 160.678 Q2017.54 158.432 2017.54 154.682 Q2017.54 150.307 2020.46 148.085 Q2023.4 145.863 2029.21 145.863 L2035.18 145.863 L2035.18 145.446 Q2035.18 142.507 2033.24 140.909 Q2031.32 139.289 2027.82 139.289 Q2025.6 139.289 2023.49 139.821 Q2021.39 140.354 2019.44 141.419 L2019.44 137.483 Q2021.78 136.581 2023.98 136.141 Q2026.18 135.678 2028.26 135.678 Q2033.89 135.678 2036.66 138.594 Q2039.44 141.511 2039.44 147.437 Z" fill="#000000" fill-rule="nonzero" fill-opacity="1" /><path clip-path="url(#clip840)" d="M2069.77 146.581 L2069.77 162.229 L2065.51 162.229 L2065.51 146.719 Q2065.51 143.039 2064.07 141.21 Q2062.64 139.382 2059.77 139.382 Q2056.32 139.382 2054.33 141.581 Q2052.33 143.78 2052.33 147.576 L2052.33 162.229 L2048.05 162.229 L2048.05 136.303 L2052.33 136.303 L2052.33 140.331 Q2053.86 137.993 2055.92 136.835 Q2058.01 135.678 2060.71 135.678 Q2065.18 135.678 2067.47 138.456 Q2069.77 141.21 2069.77 146.581 Z" fill="#000000" fill-rule="nonzero" fill-opacity="1" /><path clip-path="url(#clip840)" d="M2076.11 147.344 L2088.58 147.344 L2088.58 151.141 L2076.11 151.141 L2076.11 147.344 Z" fill="#000000" fill-rule="nonzero" fill-opacity="1" /><path clip-path="url(#clip840)" d="M2095.55 127.669 L2102.52 127.669 L2111.34 151.187 L2120.2 127.669 L2127.17 127.669 L2127.17 162.229 L2122.61 162.229 L2122.61 131.882 L2113.7 155.585 L2109 155.585 L2100.09 131.882 L2100.09 162.229 L2095.55 162.229 L2095.55 127.669 Z" fill="#000000" fill-rule="nonzero" fill-opacity="1" /><path clip-path="url(#clip840)" d="M2146.32 139.289 Q2142.89 139.289 2140.9 141.974 Q2138.91 144.636 2138.91 149.289 Q2138.91 153.942 2140.88 156.627 Q2142.87 159.289 2146.32 159.289 Q2149.72 159.289 2151.71 156.604 Q2153.7 153.918 2153.7 149.289 Q2153.7 144.682 2151.71 141.997 Q2149.72 139.289 2146.32 139.289 M2146.32 135.678 Q2151.87 135.678 2155.04 139.289 Q2158.21 142.9 2158.21 149.289 Q2158.21 155.655 2155.04 159.289 Q2151.87 162.9 2146.32 162.9 Q2140.74 162.9 2137.57 159.289 Q2134.42 155.655 2134.42 149.289 Q2134.42 142.9 2137.57 139.289 Q2140.74 135.678 2146.32 135.678 Z" fill="#000000" fill-rule="nonzero" fill-opacity="1" /><path clip-path="url(#clip840)" d="M2182.33 140.238 L2182.33 126.21 L2186.59 126.21 L2186.59 162.229 L2182.33 162.229 L2182.33 158.34 Q2180.99 160.655 2178.93 161.789 Q2176.89 162.9 2174.02 162.9 Q2169.32 162.9 2166.36 159.15 Q2163.42 155.4 2163.42 149.289 Q2163.42 143.178 2166.36 139.428 Q2169.32 135.678 2174.02 135.678 Q2176.89 135.678 2178.93 136.812 Q2180.99 137.923 2182.33 140.238 M2167.82 149.289 Q2167.82 153.988 2169.74 156.673 Q2171.69 159.335 2175.07 159.335 Q2178.45 159.335 2180.39 156.673 Q2182.33 153.988 2182.33 149.289 Q2182.33 144.59 2180.39 141.928 Q2178.45 139.243 2175.07 139.243 Q2171.69 139.243 2169.74 141.928 Q2167.82 144.59 2167.82 149.289 Z" fill="#000000" fill-rule="nonzero" fill-opacity="1" /><path clip-path="url(#clip840)" d="M2217.54 148.201 L2217.54 150.284 L2197.96 150.284 Q2198.24 154.682 2200.6 156.997 Q2202.98 159.289 2207.22 159.289 Q2209.67 159.289 2211.96 158.687 Q2214.28 158.085 2216.55 156.881 L2216.55 160.909 Q2214.26 161.881 2211.85 162.391 Q2209.44 162.9 2206.96 162.9 Q2200.76 162.9 2197.13 159.289 Q2193.51 155.678 2193.51 149.52 Q2193.51 143.155 2196.94 139.428 Q2200.39 135.678 2206.22 135.678 Q2211.45 135.678 2214.49 139.057 Q2217.54 142.414 2217.54 148.201 M2213.28 146.951 Q2213.24 143.456 2211.32 141.372 Q2209.42 139.289 2206.27 139.289 Q2202.7 139.289 2200.55 141.303 Q2198.42 143.317 2198.1 146.974 L2213.28 146.951 Z" fill="#000000" fill-rule="nonzero" fill-opacity="1" /><polyline clip-path="url(#clip840)" style="stroke:#9466bd; stroke-linecap:round; stroke-linejoin:round; stroke-width:6; stroke-opacity:1; fill:none" points="1785.73,196.789 1925.92,196.789 "/>
<path clip-path="url(#clip840)" d="M1949.28 179.509 L1956.25 179.509 L1965.07 203.027 L1973.93 179.509 L1980.9 179.509 L1980.9 214.069 L1976.34 214.069 L1976.34 183.722 L1967.43 207.425 L1962.73 207.425 L1953.82 183.722 L1953.82 214.069 L1949.28 214.069 L1949.28 179.509 Z" fill="#000000" fill-rule="nonzero" fill-opacity="1" /><path clip-path="url(#clip840)" d="M2012.17 200.041 L2012.17 202.124 L1992.59 202.124 Q1992.87 206.522 1995.23 208.837 Q1997.61 211.129 2001.85 211.129 Q2004.3 211.129 2006.59 210.527 Q2008.91 209.925 2011.18 208.721 L2011.18 212.749 Q2008.89 213.721 2006.48 214.231 Q2004.07 214.74 2001.59 214.74 Q1995.39 214.74 1991.76 211.129 Q1988.15 207.518 1988.15 201.36 Q1988.15 194.995 1991.57 191.268 Q1995.02 187.518 2000.85 187.518 Q2006.09 187.518 2009.12 190.897 Q2012.17 194.254 2012.17 200.041 M2007.91 198.791 Q2007.87 195.296 2005.95 193.212 Q2004.05 191.129 2000.9 191.129 Q1997.34 191.129 1995.18 193.143 Q1993.05 195.157 1992.73 198.814 L2007.91 198.791 Z" fill="#000000" fill-rule="nonzero" fill-opacity="1" /><path clip-path="url(#clip840)" d="M2030.95 201.036 Q2025.78 201.036 2023.79 202.217 Q2021.8 203.397 2021.8 206.245 Q2021.8 208.513 2023.28 209.856 Q2024.79 211.175 2027.36 211.175 Q2030.9 211.175 2033.03 208.675 Q2035.18 206.152 2035.18 201.985 L2035.18 201.036 L2030.95 201.036 M2039.44 199.277 L2039.44 214.069 L2035.18 214.069 L2035.18 210.133 Q2033.72 212.495 2031.55 213.629 Q2029.37 214.74 2026.22 214.74 Q2022.24 214.74 2019.88 212.518 Q2017.54 210.272 2017.54 206.522 Q2017.54 202.147 2020.46 199.925 Q2023.4 197.703 2029.21 197.703 L2035.18 197.703 L2035.18 197.286 Q2035.18 194.347 2033.24 192.749 Q2031.32 191.129 2027.82 191.129 Q2025.6 191.129 2023.49 191.661 Q2021.39 192.194 2019.44 193.259 L2019.44 189.323 Q2021.78 188.421 2023.98 187.981 Q2026.18 187.518 2028.26 187.518 Q2033.89 187.518 2036.66 190.434 Q2039.44 193.351 2039.44 199.277 Z" fill="#000000" fill-rule="nonzero" fill-opacity="1" /><path clip-path="url(#clip840)" d="M2069.77 198.421 L2069.77 214.069 L2065.51 214.069 L2065.51 198.559 Q2065.51 194.879 2064.07 193.05 Q2062.64 191.222 2059.77 191.222 Q2056.32 191.222 2054.33 193.421 Q2052.33 195.62 2052.33 199.416 L2052.33 214.069 L2048.05 214.069 L2048.05 188.143 L2052.33 188.143 L2052.33 192.171 Q2053.86 189.833 2055.92 188.675 Q2058.01 187.518 2060.71 187.518 Q2065.18 187.518 2067.47 190.296 Q2069.77 193.05 2069.77 198.421 Z" fill="#000000" fill-rule="nonzero" fill-opacity="1" /><path clip-path="url(#clip840)" d="M2076.11 199.184 L2088.58 199.184 L2088.58 202.981 L2076.11 202.981 L2076.11 199.184 Z" fill="#000000" fill-rule="nonzero" fill-opacity="1" /><path clip-path="url(#clip840)" d="M2095.55 179.509 L2102.52 179.509 L2111.34 203.027 L2120.2 179.509 L2127.17 179.509 L2127.17 214.069 L2122.61 214.069 L2122.61 183.722 L2113.7 207.425 L2109 207.425 L2100.09 183.722 L2100.09 214.069 L2095.55 214.069 L2095.55 179.509 Z" fill="#000000" fill-rule="nonzero" fill-opacity="1" /><path clip-path="url(#clip840)" d="M2158.45 200.041 L2158.45 202.124 L2138.86 202.124 Q2139.14 206.522 2141.5 208.837 Q2143.89 211.129 2148.12 211.129 Q2150.58 211.129 2152.87 210.527 Q2155.18 209.925 2157.45 208.721 L2157.45 212.749 Q2155.16 213.721 2152.75 214.231 Q2150.34 214.74 2147.87 214.74 Q2141.66 214.74 2138.03 211.129 Q2134.42 207.518 2134.42 201.36 Q2134.42 194.995 2137.84 191.268 Q2141.29 187.518 2147.13 187.518 Q2152.36 187.518 2155.39 190.897 Q2158.45 194.254 2158.45 200.041 M2154.19 198.791 Q2154.14 195.296 2152.22 193.212 Q2150.32 191.129 2147.17 191.129 Q2143.61 191.129 2141.45 193.143 Q2139.33 195.157 2139 198.814 L2154.19 198.791 Z" fill="#000000" fill-rule="nonzero" fill-opacity="1" /><path clip-path="url(#clip840)" d="M2182.5 192.078 L2182.5 178.05 L2186.76 178.05 L2186.76 214.069 L2182.5 214.069 L2182.5 210.18 Q2181.15 212.495 2179.09 213.629 Q2177.06 214.74 2174.19 214.74 Q2169.49 214.74 2166.52 210.99 Q2163.58 207.24 2163.58 201.129 Q2163.58 195.018 2166.52 191.268 Q2169.49 187.518 2174.19 187.518 Q2177.06 187.518 2179.09 188.652 Q2181.15 189.763 2182.5 192.078 M2167.98 201.129 Q2167.98 205.828 2169.9 208.513 Q2171.85 211.175 2175.23 211.175 Q2178.61 211.175 2180.55 208.513 Q2182.5 205.828 2182.5 201.129 Q2182.5 196.43 2180.55 193.768 Q2178.61 191.083 2175.23 191.083 Q2171.85 191.083 2169.9 193.768 Q2167.98 196.43 2167.98 201.129 Z" fill="#000000" fill-rule="nonzero" fill-opacity="1" /><path clip-path="url(#clip840)" d="M2195.53 188.143 L2199.79 188.143 L2199.79 214.069 L2195.53 214.069 L2195.53 188.143 M2195.53 178.05 L2199.79 178.05 L2199.79 183.444 L2195.53 183.444 L2195.53 178.05 Z" fill="#000000" fill-rule="nonzero" fill-opacity="1" /><path clip-path="url(#clip840)" d="M2220.48 201.036 Q2215.32 201.036 2213.33 202.217 Q2211.34 203.397 2211.34 206.245 Q2211.34 208.513 2212.82 209.856 Q2214.32 211.175 2216.89 211.175 Q2220.44 211.175 2222.57 208.675 Q2224.72 206.152 2224.72 201.985 L2224.72 201.036 L2220.48 201.036 M2228.98 199.277 L2228.98 214.069 L2224.72 214.069 L2224.72 210.133 Q2223.26 212.495 2221.08 213.629 Q2218.91 214.74 2215.76 214.74 Q2211.78 214.74 2209.42 212.518 Q2207.08 210.272 2207.08 206.522 Q2207.08 202.147 2210 199.925 Q2212.94 197.703 2218.75 197.703 L2224.72 197.703 L2224.72 197.286 Q2224.72 194.347 2222.77 192.749 Q2220.85 191.129 2217.36 191.129 Q2215.13 191.129 2213.03 191.661 Q2210.92 192.194 2208.98 193.259 L2208.98 189.323 Q2211.32 188.421 2213.51 187.981 Q2215.71 187.518 2217.8 187.518 Q2223.42 187.518 2226.2 190.434 Q2228.98 193.351 2228.98 199.277 Z" fill="#000000" fill-rule="nonzero" fill-opacity="1" /><path clip-path="url(#clip840)" d="M2259.3 198.421 L2259.3 214.069 L2255.04 214.069 L2255.04 198.559 Q2255.04 194.879 2253.61 193.05 Q2252.17 191.222 2249.3 191.222 Q2245.85 191.222 2243.86 193.421 Q2241.87 195.62 2241.87 199.416 L2241.87 214.069 L2237.59 214.069 L2237.59 188.143 L2241.87 188.143 L2241.87 192.171 Q2243.4 189.833 2245.46 188.675 Q2247.54 187.518 2250.25 187.518 Q2254.72 187.518 2257.01 190.296 Q2259.3 193.05 2259.3 198.421 Z" fill="#000000" fill-rule="nonzero" fill-opacity="1" /><polyline clip-path="url(#clip840)" style="stroke:#8b564a; stroke-linecap:round; stroke-linejoin:round; stroke-width:6; stroke-opacity:1; fill:none" points="1785.73,248.629 1925.92,248.629 "/>
<path clip-path="url(#clip840)" d="M1949.28 231.349 L1956.25 231.349 L1965.07 254.867 L1973.93 231.349 L1980.9 231.349 L1980.9 265.909 L1976.34 265.909 L1976.34 235.562 L1967.43 259.265 L1962.73 259.265 L1953.82 235.562 L1953.82 265.909 L1949.28 265.909 L1949.28 231.349 Z" fill="#000000" fill-rule="nonzero" fill-opacity="1" /><path clip-path="url(#clip840)" d="M2000.04 242.969 Q1996.62 242.969 1994.63 245.654 Q1992.64 248.316 1992.64 252.969 Q1992.64 257.622 1994.6 260.307 Q1996.59 262.969 2000.04 262.969 Q2003.45 262.969 2005.44 260.284 Q2007.43 257.598 2007.43 252.969 Q2007.43 248.362 2005.44 245.677 Q2003.45 242.969 2000.04 242.969 M2000.04 239.358 Q2005.6 239.358 2008.77 242.969 Q2011.94 246.58 2011.94 252.969 Q2011.94 259.335 2008.77 262.969 Q2005.6 266.58 2000.04 266.58 Q1994.46 266.58 1991.29 262.969 Q1988.15 259.335 1988.15 252.969 Q1988.15 246.58 1991.29 242.969 Q1994.46 239.358 2000.04 239.358 Z" fill="#000000" fill-rule="nonzero" fill-opacity="1" /><path clip-path="url(#clip840)" d="M2036.06 243.918 L2036.06 229.89 L2040.32 229.89 L2040.32 265.909 L2036.06 265.909 L2036.06 262.02 Q2034.72 264.335 2032.66 265.469 Q2030.62 266.58 2027.75 266.58 Q2023.05 266.58 2020.09 262.83 Q2017.15 259.08 2017.15 252.969 Q2017.15 246.858 2020.09 243.108 Q2023.05 239.358 2027.75 239.358 Q2030.62 239.358 2032.66 240.492 Q2034.72 241.603 2036.06 243.918 M2021.55 252.969 Q2021.55 257.668 2023.47 260.353 Q2025.41 263.015 2028.79 263.015 Q2032.17 263.015 2034.12 260.353 Q2036.06 257.668 2036.06 252.969 Q2036.06 248.27 2034.12 245.608 Q2032.17 242.923 2028.79 242.923 Q2025.41 242.923 2023.47 245.608 Q2021.55 248.27 2021.55 252.969 Z" fill="#000000" fill-rule="nonzero" fill-opacity="1" /><path clip-path="url(#clip840)" d="M2071.27 251.881 L2071.27 253.964 L2051.69 253.964 Q2051.96 258.362 2054.33 260.677 Q2056.71 262.969 2060.95 262.969 Q2063.4 262.969 2065.69 262.367 Q2068.01 261.765 2070.27 260.561 L2070.27 264.589 Q2067.98 265.561 2065.58 266.071 Q2063.17 266.58 2060.69 266.58 Q2054.49 266.58 2050.85 262.969 Q2047.24 259.358 2047.24 253.2 Q2047.24 246.835 2050.67 243.108 Q2054.12 239.358 2059.95 239.358 Q2065.18 239.358 2068.21 242.737 Q2071.27 246.094 2071.27 251.881 M2067.01 250.631 Q2066.96 247.136 2065.04 245.052 Q2063.14 242.969 2060 242.969 Q2056.43 242.969 2054.28 244.983 Q2052.15 246.997 2051.83 250.654 L2067.01 250.631 Z" fill="#000000" fill-rule="nonzero" fill-opacity="1" /><path clip-path="url(#clip840)" d="M2076.11 251.024 L2088.58 251.024 L2088.58 254.821 L2076.11 254.821 L2076.11 251.024 Z" fill="#000000" fill-rule="nonzero" fill-opacity="1" /><path clip-path="url(#clip840)" d="M2095.55 231.349 L2102.52 231.349 L2111.34 254.867 L2120.2 231.349 L2127.17 231.349 L2127.17 265.909 L2122.61 265.909 L2122.61 235.562 L2113.7 259.265 L2109 259.265 L2100.09 235.562 L2100.09 265.909 L2095.55 265.909 L2095.55 231.349 Z" fill="#000000" fill-rule="nonzero" fill-opacity="1" /><path clip-path="url(#clip840)" d="M2158.45 251.881 L2158.45 253.964 L2138.86 253.964 Q2139.14 258.362 2141.5 260.677 Q2143.89 262.969 2148.12 262.969 Q2150.58 262.969 2152.87 262.367 Q2155.18 261.765 2157.45 260.561 L2157.45 264.589 Q2155.16 265.561 2152.75 266.071 Q2150.34 266.58 2147.87 266.58 Q2141.66 266.58 2138.03 262.969 Q2134.42 259.358 2134.42 253.2 Q2134.42 246.835 2137.84 243.108 Q2141.29 239.358 2147.13 239.358 Q2152.36 239.358 2155.39 242.737 Q2158.45 246.094 2158.45 251.881 M2154.19 250.631 Q2154.14 247.136 2152.22 245.052 Q2150.32 242.969 2147.17 242.969 Q2143.61 242.969 2141.45 244.983 Q2139.33 246.997 2139 250.654 L2154.19 250.631 Z" fill="#000000" fill-rule="nonzero" fill-opacity="1" /><path clip-path="url(#clip840)" d="M2182.5 243.918 L2182.5 229.89 L2186.76 229.89 L2186.76 265.909 L2182.5 265.909 L2182.5 262.02 Q2181.15 264.335 2179.09 265.469 Q2177.06 266.58 2174.19 266.58 Q2169.49 266.58 2166.52 262.83 Q2163.58 259.08 2163.58 252.969 Q2163.58 246.858 2166.52 243.108 Q2169.49 239.358 2174.19 239.358 Q2177.06 239.358 2179.09 240.492 Q2181.15 241.603 2182.5 243.918 M2167.98 252.969 Q2167.98 257.668 2169.9 260.353 Q2171.85 263.015 2175.23 263.015 Q2178.61 263.015 2180.55 260.353 Q2182.5 257.668 2182.5 252.969 Q2182.5 248.27 2180.55 245.608 Q2178.61 242.923 2175.23 242.923 Q2171.85 242.923 2169.9 245.608 Q2167.98 248.27 2167.98 252.969 Z" fill="#000000" fill-rule="nonzero" fill-opacity="1" /><path clip-path="url(#clip840)" d="M2195.53 239.983 L2199.79 239.983 L2199.79 265.909 L2195.53 265.909 L2195.53 239.983 M2195.53 229.89 L2199.79 229.89 L2199.79 235.284 L2195.53 235.284 L2195.53 229.89 Z" fill="#000000" fill-rule="nonzero" fill-opacity="1" /><path clip-path="url(#clip840)" d="M2220.48 252.876 Q2215.32 252.876 2213.33 254.057 Q2211.34 255.237 2211.34 258.085 Q2211.34 260.353 2212.82 261.696 Q2214.32 263.015 2216.89 263.015 Q2220.44 263.015 2222.57 260.515 Q2224.72 257.992 2224.72 253.825 L2224.72 252.876 L2220.48 252.876 M2228.98 251.117 L2228.98 265.909 L2224.72 265.909 L2224.72 261.973 Q2223.26 264.335 2221.08 265.469 Q2218.91 266.58 2215.76 266.58 Q2211.78 266.58 2209.42 264.358 Q2207.08 262.112 2207.08 258.362 Q2207.08 253.987 2210 251.765 Q2212.94 249.543 2218.75 249.543 L2224.72 249.543 L2224.72 249.126 Q2224.72 246.187 2222.77 244.589 Q2220.85 242.969 2217.36 242.969 Q2215.13 242.969 2213.03 243.501 Q2210.92 244.034 2208.98 245.099 L2208.98 241.163 Q2211.32 240.261 2213.51 239.821 Q2215.71 239.358 2217.8 239.358 Q2223.42 239.358 2226.2 242.274 Q2228.98 245.191 2228.98 251.117 Z" fill="#000000" fill-rule="nonzero" fill-opacity="1" /><path clip-path="url(#clip840)" d="M2259.3 250.261 L2259.3 265.909 L2255.04 265.909 L2255.04 250.399 Q2255.04 246.719 2253.61 244.89 Q2252.17 243.062 2249.3 243.062 Q2245.85 243.062 2243.86 245.261 Q2241.87 247.46 2241.87 251.256 L2241.87 265.909 L2237.59 265.909 L2237.59 239.983 L2241.87 239.983 L2241.87 244.011 Q2243.4 241.673 2245.46 240.515 Q2247.54 239.358 2250.25 239.358 Q2254.72 239.358 2257.01 242.136 Q2259.3 244.89 2259.3 250.261 Z" fill="#000000" fill-rule="nonzero" fill-opacity="1" /></svg>
