<?xml version="1.0" encoding="utf-8"?>
<svg xmlns="http://www.w3.org/2000/svg" xmlns:xlink="http://www.w3.org/1999/xlink" width="600" height="400" viewBox="0 0 2400 1600">
<defs>
  <clipPath id="clip710">
    <rect x="0" y="0" width="2400" height="1600"/>
  </clipPath>
</defs>
<path clip-path="url(#clip710)" d="M0 1600 L2400 1600 L2400 8.88178e-14 L0 8.88178e-14  Z" fill="#ffffff" fill-rule="evenodd" fill-opacity="1"/>
<defs>
  <clipPath id="clip711">
    <rect x="480" y="0" width="1681" height="1600"/>
  </clipPath>
</defs>
<path clip-path="url(#clip710)" d="M250.028 1423.18 L2352.76 1423.18 L2352.76 47.2441 L250.028 47.2441  Z" fill="#ffffff" fill-rule="evenodd" fill-opacity="1"/>
<defs>
  <clipPath id="clip712">
    <rect x="250" y="47" width="2104" height="1377"/>
  </clipPath>
</defs>
<polyline clip-path="url(#clip712)" style="stroke:#000000; stroke-linecap:round; stroke-linejoin:round; stroke-width:2; stroke-opacity:0.1; fill:none" points="426.228,1423.18 426.228,47.2441 "/>
<polyline clip-path="url(#clip712)" style="stroke:#000000; stroke-linecap:round; stroke-linejoin:round; stroke-width:2; stroke-opacity:0.1; fill:none" points="659.605,1423.18 659.605,47.2441 "/>
<polyline clip-path="url(#clip712)" style="stroke:#000000; stroke-linecap:round; stroke-linejoin:round; stroke-width:2; stroke-opacity:0.1; fill:none" points="892.982,1423.18 892.982,47.2441 "/>
<polyline clip-path="url(#clip712)" style="stroke:#000000; stroke-linecap:round; stroke-linejoin:round; stroke-width:2; stroke-opacity:0.1; fill:none" points="1126.36,1423.18 1126.36,47.2441 "/>
<polyline clip-path="url(#clip712)" style="stroke:#000000; stroke-linecap:round; stroke-linejoin:round; stroke-width:2; stroke-opacity:0.1; fill:none" points="1359.74,1423.18 1359.74,47.2441 "/>
<polyline clip-path="url(#clip712)" style="stroke:#000000; stroke-linecap:round; stroke-linejoin:round; stroke-width:2; stroke-opacity:0.1; fill:none" points="1593.11,1423.18 1593.11,47.2441 "/>
<polyline clip-path="url(#clip712)" style="stroke:#000000; stroke-linecap:round; stroke-linejoin:round; stroke-width:2; stroke-opacity:0.1; fill:none" points="1826.49,1423.18 1826.49,47.2441 "/>
<polyline clip-path="url(#clip712)" style="stroke:#000000; stroke-linecap:round; stroke-linejoin:round; stroke-width:2; stroke-opacity:0.1; fill:none" points="2059.87,1423.18 2059.87,47.2441 "/>
<polyline clip-path="url(#clip712)" style="stroke:#000000; stroke-linecap:round; stroke-linejoin:round; stroke-width:2; stroke-opacity:0.1; fill:none" points="2293.24,1423.18 2293.24,47.2441 "/>
<polyline clip-path="url(#clip712)" style="stroke:#000000; stroke-linecap:round; stroke-linejoin:round; stroke-width:2; stroke-opacity:0.1; fill:none" points="250.028,1421.96 2352.76,1421.96 "/>
<polyline clip-path="url(#clip712)" style="stroke:#000000; stroke-linecap:round; stroke-linejoin:round; stroke-width:2; stroke-opacity:0.1; fill:none" points="250.028,1071.54 2352.76,1071.54 "/>
<polyline clip-path="url(#clip712)" style="stroke:#000000; stroke-linecap:round; stroke-linejoin:round; stroke-width:2; stroke-opacity:0.1; fill:none" points="250.028,721.13 2352.76,721.13 "/>
<polyline clip-path="url(#clip712)" style="stroke:#000000; stroke-linecap:round; stroke-linejoin:round; stroke-width:2; stroke-opacity:0.1; fill:none" points="250.028,370.716 2352.76,370.716 "/>
<polyline clip-path="url(#clip710)" style="stroke:#000000; stroke-linecap:round; stroke-linejoin:round; stroke-width:4; stroke-opacity:1; fill:none" points="250.028,1423.18 2352.76,1423.18 "/>
<polyline clip-path="url(#clip710)" style="stroke:#000000; stroke-linecap:round; stroke-linejoin:round; stroke-width:4; stroke-opacity:1; fill:none" points="426.228,1423.18 426.228,1404.28 "/>
<polyline clip-path="url(#clip710)" style="stroke:#000000; stroke-linecap:round; stroke-linejoin:round; stroke-width:4; stroke-opacity:1; fill:none" points="659.605,1423.18 659.605,1404.28 "/>
<polyline clip-path="url(#clip710)" style="stroke:#000000; stroke-linecap:round; stroke-linejoin:round; stroke-width:4; stroke-opacity:1; fill:none" points="892.982,1423.18 892.982,1404.28 "/>
<polyline clip-path="url(#clip710)" style="stroke:#000000; stroke-linecap:round; stroke-linejoin:round; stroke-width:4; stroke-opacity:1; fill:none" points="1126.36,1423.18 1126.36,1404.28 "/>
<polyline clip-path="url(#clip710)" style="stroke:#000000; stroke-linecap:round; stroke-linejoin:round; stroke-width:4; stroke-opacity:1; fill:none" points="1359.74,1423.18 1359.74,1404.28 "/>
<polyline clip-path="url(#clip710)" style="stroke:#000000; stroke-linecap:round; stroke-linejoin:round; stroke-width:4; stroke-opacity:1; fill:none" points="1593.11,1423.18 1593.11,1404.28 "/>
<polyline clip-path="url(#clip710)" style="stroke:#000000; stroke-linecap:round; stroke-linejoin:round; stroke-width:4; stroke-opacity:1; fill:none" points="1826.49,1423.18 1826.49,1404.28 "/>
<polyline clip-path="url(#clip710)" style="stroke:#000000; stroke-linecap:round; stroke-linejoin:round; stroke-width:4; stroke-opacity:1; fill:none" points="2059.87,1423.18 2059.87,1404.28 "/>
<polyline clip-path="url(#clip710)" style="stroke:#000000; stroke-linecap:round; stroke-linejoin:round; stroke-width:4; stroke-opacity:1; fill:none" points="2293.24,1423.18 2293.24,1404.28 "/>
<path clip-path="url(#clip710)" d="M429.237 1455.09 L417.432 1473.54 L429.237 1473.54 L429.237 1455.09 M428.01 1451.02 L433.89 1451.02 L433.89 1473.54 L438.82 1473.54 L438.82 1477.43 L433.89 1477.43 L433.89 1485.58 L429.237 1485.58 L429.237 1477.43 L413.635 1477.43 L413.635 1472.92 L428.01 1451.02 Z" fill="#000000" fill-rule="nonzero" fill-opacity="1" /><path clip-path="url(#clip710)" d="M660.01 1466.44 Q656.862 1466.44 655.01 1468.59 Q653.181 1470.74 653.181 1474.49 Q653.181 1478.22 655.01 1480.39 Q656.862 1482.55 660.01 1482.55 Q663.158 1482.55 664.987 1480.39 Q666.839 1478.22 666.839 1474.49 Q666.839 1470.74 664.987 1468.59 Q663.158 1466.44 660.01 1466.44 M669.292 1451.78 L669.292 1456.04 Q667.533 1455.21 665.728 1454.77 Q663.945 1454.33 662.186 1454.33 Q657.556 1454.33 655.103 1457.45 Q652.672 1460.58 652.325 1466.9 Q653.691 1464.89 655.751 1463.82 Q657.811 1462.73 660.288 1462.73 Q665.496 1462.73 668.505 1465.9 Q671.538 1469.05 671.538 1474.49 Q671.538 1479.82 668.39 1483.03 Q665.242 1486.25 660.01 1486.25 Q654.015 1486.25 650.843 1481.67 Q647.672 1477.06 647.672 1468.33 Q647.672 1460.14 651.561 1455.28 Q655.45 1450.39 662.001 1450.39 Q663.76 1450.39 665.542 1450.74 Q667.348 1451.09 669.292 1451.78 Z" fill="#000000" fill-rule="nonzero" fill-opacity="1" /><path clip-path="url(#clip710)" d="M892.982 1469.17 Q889.649 1469.17 887.727 1470.95 Q885.829 1472.73 885.829 1475.86 Q885.829 1478.98 887.727 1480.77 Q889.649 1482.55 892.982 1482.55 Q896.315 1482.55 898.237 1480.77 Q900.158 1478.96 900.158 1475.86 Q900.158 1472.73 898.237 1470.95 Q896.339 1469.17 892.982 1469.17 M888.306 1467.18 Q885.297 1466.44 883.607 1464.38 Q881.94 1462.32 881.94 1459.35 Q881.94 1455.21 884.88 1452.8 Q887.843 1450.39 892.982 1450.39 Q898.144 1450.39 901.084 1452.8 Q904.024 1455.21 904.024 1459.35 Q904.024 1462.32 902.334 1464.38 Q900.667 1466.44 897.681 1467.18 Q901.061 1467.96 902.936 1470.26 Q904.834 1472.55 904.834 1475.86 Q904.834 1480.88 901.755 1483.57 Q898.7 1486.25 892.982 1486.25 Q887.265 1486.25 884.186 1483.57 Q881.13 1480.88 881.13 1475.86 Q881.13 1472.55 883.028 1470.26 Q884.927 1467.96 888.306 1467.18 M886.593 1459.79 Q886.593 1462.48 888.26 1463.98 Q889.95 1465.49 892.982 1465.49 Q895.991 1465.49 897.681 1463.98 Q899.394 1462.48 899.394 1459.79 Q899.394 1457.11 897.681 1455.6 Q895.991 1454.1 892.982 1454.1 Q889.95 1454.1 888.26 1455.6 Q886.593 1457.11 886.593 1459.79 Z" fill="#000000" fill-rule="nonzero" fill-opacity="1" /><path clip-path="url(#clip710)" d="M1101.05 1481.64 L1108.69 1481.64 L1108.69 1455.28 L1100.38 1456.95 L1100.38 1452.69 L1108.64 1451.02 L1113.32 1451.02 L1113.32 1481.64 L1120.95 1481.64 L1120.95 1485.58 L1101.05 1485.58 L1101.05 1481.64 Z" fill="#000000" fill-rule="nonzero" fill-opacity="1" /><path clip-path="url(#clip710)" d="M1140.4 1454.1 Q1136.79 1454.1 1134.96 1457.66 Q1133.15 1461.2 1133.15 1468.33 Q1133.15 1475.44 1134.96 1479.01 Q1136.79 1482.55 1140.4 1482.55 Q1144.03 1482.55 1145.84 1479.01 Q1147.67 1475.44 1147.67 1468.33 Q1147.67 1461.2 1145.84 1457.66 Q1144.03 1454.1 1140.4 1454.1 M1140.4 1450.39 Q1146.21 1450.39 1149.26 1455 Q1152.34 1459.58 1152.34 1468.33 Q1152.34 1477.06 1149.26 1481.67 Q1146.21 1486.25 1140.4 1486.25 Q1134.59 1486.25 1131.51 1481.67 Q1128.45 1477.06 1128.45 1468.33 Q1128.45 1459.58 1131.51 1455 Q1134.59 1450.39 1140.4 1450.39 Z" fill="#000000" fill-rule="nonzero" fill-opacity="1" /><path clip-path="url(#clip710)" d="M1335.22 1481.64 L1342.86 1481.64 L1342.86 1455.28 L1334.55 1456.95 L1334.55 1452.69 L1342.82 1451.02 L1347.49 1451.02 L1347.49 1481.64 L1355.13 1481.64 L1355.13 1485.58 L1335.22 1485.58 L1335.22 1481.64 Z" fill="#000000" fill-rule="nonzero" fill-opacity="1" /><path clip-path="url(#clip710)" d="M1368.6 1481.64 L1384.92 1481.64 L1384.92 1485.58 L1362.98 1485.58 L1362.98 1481.64 Q1365.64 1478.89 1370.22 1474.26 Q1374.83 1469.61 1376.01 1468.27 Q1378.25 1465.74 1379.13 1464.01 Q1380.04 1462.25 1380.04 1460.56 Q1380.04 1457.8 1378.09 1456.07 Q1376.17 1454.33 1373.07 1454.33 Q1370.87 1454.33 1368.42 1455.09 Q1365.99 1455.86 1363.21 1457.41 L1363.21 1452.69 Q1366.03 1451.55 1368.49 1450.97 Q1370.94 1450.39 1372.98 1450.39 Q1378.35 1450.39 1381.54 1453.08 Q1384.74 1455.77 1384.74 1460.26 Q1384.74 1462.39 1383.93 1464.31 Q1383.14 1466.2 1381.03 1468.8 Q1380.45 1469.47 1377.35 1472.69 Q1374.25 1475.88 1368.6 1481.64 Z" fill="#000000" fill-rule="nonzero" fill-opacity="1" /><path clip-path="url(#clip710)" d="M1567.56 1481.64 L1575.2 1481.64 L1575.2 1455.28 L1566.89 1456.95 L1566.89 1452.69 L1575.15 1451.02 L1579.83 1451.02 L1579.83 1481.64 L1587.47 1481.64 L1587.47 1485.58 L1567.56 1485.58 L1567.56 1481.64 Z" fill="#000000" fill-rule="nonzero" fill-opacity="1" /><path clip-path="url(#clip710)" d="M1609.76 1455.09 L1597.95 1473.54 L1609.76 1473.54 L1609.76 1455.09 M1608.53 1451.02 L1614.41 1451.02 L1614.41 1473.54 L1619.34 1473.54 L1619.34 1477.43 L1614.41 1477.43 L1614.41 1485.58 L1609.76 1485.58 L1609.76 1477.43 L1594.16 1477.43 L1594.16 1472.92 L1608.53 1451.02 Z" fill="#000000" fill-rule="nonzero" fill-opacity="1" /><path clip-path="url(#clip710)" d="M1801.1 1481.64 L1808.74 1481.64 L1808.74 1455.28 L1800.43 1456.95 L1800.43 1452.69 L1808.69 1451.02 L1813.37 1451.02 L1813.37 1481.64 L1821 1481.64 L1821 1485.58 L1801.1 1485.58 L1801.1 1481.64 Z" fill="#000000" fill-rule="nonzero" fill-opacity="1" /><path clip-path="url(#clip710)" d="M1841.03 1466.44 Q1837.88 1466.44 1836.03 1468.59 Q1834.2 1470.74 1834.2 1474.49 Q1834.2 1478.22 1836.03 1480.39 Q1837.88 1482.55 1841.03 1482.55 Q1844.18 1482.55 1846 1480.39 Q1847.86 1478.22 1847.86 1474.49 Q1847.86 1470.74 1846 1468.59 Q1844.18 1466.44 1841.03 1466.44 M1850.31 1451.78 L1850.31 1456.04 Q1848.55 1455.21 1846.75 1454.77 Q1844.96 1454.33 1843.2 1454.33 Q1838.57 1454.33 1836.12 1457.45 Q1833.69 1460.58 1833.34 1466.9 Q1834.71 1464.89 1836.77 1463.82 Q1838.83 1462.73 1841.31 1462.73 Q1846.51 1462.73 1849.52 1465.9 Q1852.56 1469.05 1852.56 1474.49 Q1852.56 1479.82 1849.41 1483.03 Q1846.26 1486.25 1841.03 1486.25 Q1835.03 1486.25 1831.86 1481.67 Q1828.69 1477.06 1828.69 1468.33 Q1828.69 1460.14 1832.58 1455.28 Q1836.47 1450.39 1843.02 1450.39 Q1844.78 1450.39 1846.56 1450.74 Q1848.37 1451.09 1850.31 1451.78 Z" fill="#000000" fill-rule="nonzero" fill-opacity="1" /><path clip-path="url(#clip710)" d="M2034.6 1481.64 L2042.24 1481.64 L2042.24 1455.28 L2033.93 1456.95 L2033.93 1452.69 L2042.19 1451.02 L2046.87 1451.02 L2046.87 1481.64 L2054.51 1481.64 L2054.51 1485.58 L2034.6 1485.58 L2034.6 1481.64 Z" fill="#000000" fill-rule="nonzero" fill-opacity="1" /><path clip-path="url(#clip710)" d="M2073.95 1469.17 Q2070.62 1469.17 2068.7 1470.95 Q2066.8 1472.73 2066.8 1475.86 Q2066.8 1478.98 2068.7 1480.77 Q2070.62 1482.55 2073.95 1482.55 Q2077.29 1482.55 2079.21 1480.77 Q2081.13 1478.96 2081.13 1475.86 Q2081.13 1472.73 2079.21 1470.95 Q2077.31 1469.17 2073.95 1469.17 M2069.28 1467.18 Q2066.27 1466.44 2064.58 1464.38 Q2062.91 1462.32 2062.91 1459.35 Q2062.91 1455.21 2065.85 1452.8 Q2068.81 1450.39 2073.95 1450.39 Q2079.12 1450.39 2082.06 1452.8 Q2084.99 1455.21 2084.99 1459.35 Q2084.99 1462.32 2083.31 1464.38 Q2081.64 1466.44 2078.65 1467.18 Q2082.03 1467.96 2083.91 1470.26 Q2085.8 1472.55 2085.8 1475.86 Q2085.8 1480.88 2082.73 1483.57 Q2079.67 1486.25 2073.95 1486.25 Q2068.24 1486.25 2065.16 1483.57 Q2062.1 1480.88 2062.1 1475.86 Q2062.1 1472.55 2064 1470.26 Q2065.9 1467.96 2069.28 1467.18 M2067.56 1459.79 Q2067.56 1462.48 2069.23 1463.98 Q2070.92 1465.49 2073.95 1465.49 Q2076.96 1465.49 2078.65 1463.98 Q2080.37 1462.48 2080.37 1459.79 Q2080.37 1457.11 2078.65 1455.6 Q2076.96 1454.1 2073.95 1454.1 Q2070.92 1454.1 2069.23 1455.6 Q2067.56 1457.11 2067.56 1459.79 Z" fill="#000000" fill-rule="nonzero" fill-opacity="1" /><path clip-path="url(#clip710)" d="M2272.02 1481.64 L2288.34 1481.64 L2288.34 1485.58 L2266.39 1485.58 L2266.39 1481.64 Q2269.06 1478.89 2273.64 1474.26 Q2278.24 1469.61 2279.43 1468.27 Q2281.67 1465.74 2282.55 1464.01 Q2283.45 1462.25 2283.45 1460.56 Q2283.45 1457.8 2281.51 1456.07 Q2279.59 1454.33 2276.49 1454.33 Q2274.29 1454.33 2271.83 1455.09 Q2269.4 1455.86 2266.62 1457.41 L2266.62 1452.69 Q2269.45 1451.55 2271.9 1450.97 Q2274.36 1450.39 2276.39 1450.39 Q2281.76 1450.39 2284.96 1453.08 Q2288.15 1455.77 2288.15 1460.26 Q2288.15 1462.39 2287.34 1464.31 Q2286.55 1466.2 2284.45 1468.8 Q2283.87 1469.47 2280.77 1472.69 Q2277.67 1475.88 2272.02 1481.64 Z" fill="#000000" fill-rule="nonzero" fill-opacity="1" /><path clip-path="url(#clip710)" d="M2308.15 1454.1 Q2304.54 1454.1 2302.71 1457.66 Q2300.91 1461.2 2300.91 1468.33 Q2300.91 1475.44 2302.71 1479.01 Q2304.54 1482.55 2308.15 1482.55 Q2311.79 1482.55 2313.59 1479.01 Q2315.42 1475.44 2315.42 1468.33 Q2315.42 1461.2 2313.59 1457.66 Q2311.79 1454.1 2308.15 1454.1 M2308.15 1450.39 Q2313.96 1450.39 2317.02 1455 Q2320.1 1459.58 2320.1 1468.33 Q2320.1 1477.06 2317.02 1481.67 Q2313.96 1486.25 2308.15 1486.25 Q2302.34 1486.25 2299.26 1481.67 Q2296.21 1477.06 2296.21 1468.33 Q2296.21 1459.58 2299.26 1455 Q2302.34 1450.39 2308.15 1450.39 Z" fill="#000000" fill-rule="nonzero" fill-opacity="1" /><path clip-path="url(#clip710)" d="M1311.47 1537.81 L1311.47 1518.52 L1317.32 1518.52 L1317.32 1568.04 L1311.47 1568.04 L1311.47 1562.7 Q1309.62 1565.88 1306.79 1567.44 Q1303.99 1568.97 1300.04 1568.97 Q1293.58 1568.97 1289.5 1563.81 Q1285.46 1558.65 1285.46 1550.25 Q1285.46 1541.85 1289.5 1536.69 Q1293.58 1531.54 1300.04 1531.54 Q1303.99 1531.54 1306.79 1533.1 Q1309.62 1534.62 1311.47 1537.81 M1291.51 1550.25 Q1291.51 1556.71 1294.15 1560.4 Q1296.82 1564.07 1301.47 1564.07 Q1306.12 1564.07 1308.79 1560.4 Q1311.47 1556.71 1311.47 1550.25 Q1311.47 1543.79 1308.79 1540.13 Q1306.12 1536.44 1301.47 1536.44 Q1296.82 1536.44 1294.15 1540.13 Q1291.51 1543.79 1291.51 1550.25 Z" fill="#000000" fill-rule="nonzero" fill-opacity="1" /><polyline clip-path="url(#clip710)" style="stroke:#000000; stroke-linecap:round; stroke-linejoin:round; stroke-width:4; stroke-opacity:1; fill:none" points="250.028,1423.18 250.028,47.2441 "/>
<polyline clip-path="url(#clip710)" style="stroke:#000000; stroke-linecap:round; stroke-linejoin:round; stroke-width:4; stroke-opacity:1; fill:none" points="250.028,1421.96 268.926,1421.96 "/>
<polyline clip-path="url(#clip710)" style="stroke:#000000; stroke-linecap:round; stroke-linejoin:round; stroke-width:4; stroke-opacity:1; fill:none" points="250.028,1071.54 268.926,1071.54 "/>
<polyline clip-path="url(#clip710)" style="stroke:#000000; stroke-linecap:round; stroke-linejoin:round; stroke-width:4; stroke-opacity:1; fill:none" points="250.028,721.13 268.926,721.13 "/>
<polyline clip-path="url(#clip710)" style="stroke:#000000; stroke-linecap:round; stroke-linejoin:round; stroke-width:4; stroke-opacity:1; fill:none" points="250.028,370.716 268.926,370.716 "/>
<path clip-path="url(#clip710)" d="M126.691 1407.76 Q123.08 1407.76 121.251 1411.32 Q119.445 1414.86 119.445 1421.99 Q119.445 1429.1 121.251 1432.66 Q123.08 1436.21 126.691 1436.21 Q130.325 1436.21 132.13 1432.66 Q133.959 1429.1 133.959 1421.99 Q133.959 1414.86 132.13 1411.32 Q130.325 1407.76 126.691 1407.76 M126.691 1404.05 Q132.501 1404.05 135.556 1408.66 Q138.635 1413.24 138.635 1421.99 Q138.635 1430.72 135.556 1435.33 Q132.501 1439.91 126.691 1439.91 Q120.88 1439.91 117.802 1435.33 Q114.746 1430.72 114.746 1421.99 Q114.746 1413.24 117.802 1408.66 Q120.88 1404.05 126.691 1404.05 Z" fill="#000000" fill-rule="nonzero" fill-opacity="1" /><path clip-path="url(#clip710)" d="M146.853 1433.36 L151.737 1433.36 L151.737 1439.24 L146.853 1439.24 L146.853 1433.36 Z" fill="#000000" fill-rule="nonzero" fill-opacity="1" /><path clip-path="url(#clip710)" d="M171.922 1407.76 Q168.311 1407.76 166.482 1411.32 Q164.677 1414.86 164.677 1421.99 Q164.677 1429.1 166.482 1432.66 Q168.311 1436.21 171.922 1436.21 Q175.556 1436.21 177.362 1432.66 Q179.19 1429.1 179.19 1421.99 Q179.19 1414.86 177.362 1411.32 Q175.556 1407.76 171.922 1407.76 M171.922 1404.05 Q177.732 1404.05 180.788 1408.66 Q183.866 1413.24 183.866 1421.99 Q183.866 1430.72 180.788 1435.33 Q177.732 1439.91 171.922 1439.91 Q166.112 1439.91 163.033 1435.33 Q159.978 1430.72 159.978 1421.99 Q159.978 1413.24 163.033 1408.66 Q166.112 1404.05 171.922 1404.05 Z" fill="#000000" fill-rule="nonzero" fill-opacity="1" /><path clip-path="url(#clip710)" d="M202.084 1407.76 Q198.473 1407.76 196.644 1411.32 Q194.838 1414.86 194.838 1421.99 Q194.838 1429.1 196.644 1432.66 Q198.473 1436.21 202.084 1436.21 Q205.718 1436.21 207.524 1432.66 Q209.352 1429.1 209.352 1421.99 Q209.352 1414.86 207.524 1411.32 Q205.718 1407.76 202.084 1407.76 M202.084 1404.05 Q207.894 1404.05 210.949 1408.66 Q214.028 1413.24 214.028 1421.99 Q214.028 1430.72 210.949 1435.33 Q207.894 1439.91 202.084 1439.91 Q196.274 1439.91 193.195 1435.33 Q190.139 1430.72 190.139 1421.99 Q190.139 1413.24 193.195 1408.66 Q196.274 1404.05 202.084 1404.05 Z" fill="#000000" fill-rule="nonzero" fill-opacity="1" /><path clip-path="url(#clip710)" d="M128.288 1057.34 Q124.677 1057.34 122.848 1060.91 Q121.043 1064.45 121.043 1071.58 Q121.043 1078.69 122.848 1082.25 Q124.677 1085.79 128.288 1085.79 Q131.922 1085.79 133.728 1082.25 Q135.556 1078.69 135.556 1071.58 Q135.556 1064.45 133.728 1060.91 Q131.922 1057.34 128.288 1057.34 M128.288 1053.64 Q134.098 1053.64 137.154 1058.25 Q140.232 1062.83 140.232 1071.58 Q140.232 1080.31 137.154 1084.91 Q134.098 1089.5 128.288 1089.5 Q122.478 1089.5 119.399 1084.91 Q116.343 1080.31 116.343 1071.58 Q116.343 1062.83 119.399 1058.25 Q122.478 1053.64 128.288 1053.64 Z" fill="#000000" fill-rule="nonzero" fill-opacity="1" /><path clip-path="url(#clip710)" d="M148.45 1082.94 L153.334 1082.94 L153.334 1088.82 L148.45 1088.82 L148.45 1082.94 Z" fill="#000000" fill-rule="nonzero" fill-opacity="1" /><path clip-path="url(#clip710)" d="M173.519 1057.34 Q169.908 1057.34 168.079 1060.91 Q166.274 1064.45 166.274 1071.58 Q166.274 1078.69 168.079 1082.25 Q169.908 1085.79 173.519 1085.79 Q177.153 1085.79 178.959 1082.25 Q180.788 1078.69 180.788 1071.58 Q180.788 1064.45 178.959 1060.91 Q177.153 1057.34 173.519 1057.34 M173.519 1053.64 Q179.329 1053.64 182.385 1058.25 Q185.463 1062.83 185.463 1071.58 Q185.463 1080.31 182.385 1084.91 Q179.329 1089.5 173.519 1089.5 Q167.709 1089.5 164.63 1084.91 Q161.575 1080.31 161.575 1071.58 Q161.575 1062.83 164.63 1058.25 Q167.709 1053.64 173.519 1053.64 Z" fill="#000000" fill-rule="nonzero" fill-opacity="1" /><path clip-path="url(#clip710)" d="M197.709 1084.89 L214.028 1084.89 L214.028 1088.82 L192.084 1088.82 L192.084 1084.89 Q194.746 1082.13 199.329 1077.5 Q203.936 1072.85 205.116 1071.51 Q207.362 1068.99 208.241 1067.25 Q209.144 1065.49 209.144 1063.8 Q209.144 1061.05 207.199 1059.31 Q205.278 1057.57 202.176 1057.57 Q199.977 1057.57 197.524 1058.34 Q195.093 1059.1 192.315 1060.65 L192.315 1055.93 Q195.139 1054.8 197.593 1054.22 Q200.047 1053.64 202.084 1053.64 Q207.454 1053.64 210.649 1056.32 Q213.843 1059.01 213.843 1063.5 Q213.843 1065.63 213.033 1067.55 Q212.246 1069.45 210.139 1072.04 Q209.561 1072.71 206.459 1075.93 Q203.357 1079.13 197.709 1084.89 Z" fill="#000000" fill-rule="nonzero" fill-opacity="1" /><path clip-path="url(#clip710)" d="M126.205 706.929 Q122.593 706.929 120.765 710.494 Q118.959 714.035 118.959 721.165 Q118.959 728.272 120.765 731.836 Q122.593 735.378 126.205 735.378 Q129.839 735.378 131.644 731.836 Q133.473 728.272 133.473 721.165 Q133.473 714.035 131.644 710.494 Q129.839 706.929 126.205 706.929 M126.205 703.225 Q132.015 703.225 135.07 707.832 Q138.149 712.415 138.149 721.165 Q138.149 729.892 135.07 734.498 Q132.015 739.082 126.205 739.082 Q120.394 739.082 117.316 734.498 Q114.26 729.892 114.26 721.165 Q114.26 712.415 117.316 707.832 Q120.394 703.225 126.205 703.225 Z" fill="#000000" fill-rule="nonzero" fill-opacity="1" /><path clip-path="url(#clip710)" d="M146.366 732.531 L151.251 732.531 L151.251 738.41 L146.366 738.41 L146.366 732.531 Z" fill="#000000" fill-rule="nonzero" fill-opacity="1" /><path clip-path="url(#clip710)" d="M171.436 706.929 Q167.825 706.929 165.996 710.494 Q164.19 714.035 164.19 721.165 Q164.19 728.272 165.996 731.836 Q167.825 735.378 171.436 735.378 Q175.07 735.378 176.876 731.836 Q178.704 728.272 178.704 721.165 Q178.704 714.035 176.876 710.494 Q175.07 706.929 171.436 706.929 M171.436 703.225 Q177.246 703.225 180.301 707.832 Q183.38 712.415 183.38 721.165 Q183.38 729.892 180.301 734.498 Q177.246 739.082 171.436 739.082 Q165.626 739.082 162.547 734.498 Q159.491 729.892 159.491 721.165 Q159.491 712.415 162.547 707.832 Q165.626 703.225 171.436 703.225 Z" fill="#000000" fill-rule="nonzero" fill-opacity="1" /><path clip-path="url(#clip710)" d="M204.445 707.924 L192.639 726.373 L204.445 726.373 L204.445 707.924 M203.218 703.85 L209.098 703.85 L209.098 726.373 L214.028 726.373 L214.028 730.262 L209.098 730.262 L209.098 738.41 L204.445 738.41 L204.445 730.262 L188.843 730.262 L188.843 725.748 L203.218 703.85 Z" fill="#000000" fill-rule="nonzero" fill-opacity="1" /><path clip-path="url(#clip710)" d="M126.529 356.515 Q122.918 356.515 121.089 360.08 Q119.283 363.622 119.283 370.751 Q119.283 377.858 121.089 381.422 Q122.918 384.964 126.529 384.964 Q130.163 384.964 131.968 381.422 Q133.797 377.858 133.797 370.751 Q133.797 363.622 131.968 360.08 Q130.163 356.515 126.529 356.515 M126.529 352.811 Q132.339 352.811 135.394 357.418 Q138.473 362.001 138.473 370.751 Q138.473 379.478 135.394 384.084 Q132.339 388.668 126.529 388.668 Q120.718 388.668 117.64 384.084 Q114.584 379.478 114.584 370.751 Q114.584 362.001 117.64 357.418 Q120.718 352.811 126.529 352.811 Z" fill="#000000" fill-rule="nonzero" fill-opacity="1" /><path clip-path="url(#clip710)" d="M146.691 382.117 L151.575 382.117 L151.575 387.996 L146.691 387.996 L146.691 382.117 Z" fill="#000000" fill-rule="nonzero" fill-opacity="1" /><path clip-path="url(#clip710)" d="M171.76 356.515 Q168.149 356.515 166.32 360.08 Q164.515 363.622 164.515 370.751 Q164.515 377.858 166.32 381.422 Q168.149 384.964 171.76 384.964 Q175.394 384.964 177.2 381.422 Q179.028 377.858 179.028 370.751 Q179.028 363.622 177.2 360.08 Q175.394 356.515 171.76 356.515 M171.76 352.811 Q177.57 352.811 180.626 357.418 Q183.704 362.001 183.704 370.751 Q183.704 379.478 180.626 384.084 Q177.57 388.668 171.76 388.668 Q165.95 388.668 162.871 384.084 Q159.815 379.478 159.815 370.751 Q159.815 362.001 162.871 357.418 Q165.95 352.811 171.76 352.811 Z" fill="#000000" fill-rule="nonzero" fill-opacity="1" /><path clip-path="url(#clip710)" d="M202.5 368.853 Q199.352 368.853 197.5 371.006 Q195.672 373.159 195.672 376.909 Q195.672 380.635 197.5 382.811 Q199.352 384.964 202.5 384.964 Q205.649 384.964 207.477 382.811 Q209.329 380.635 209.329 376.909 Q209.329 373.159 207.477 371.006 Q205.649 368.853 202.5 368.853 M211.783 354.2 L211.783 358.46 Q210.024 357.626 208.218 357.186 Q206.436 356.747 204.676 356.747 Q200.047 356.747 197.593 359.872 Q195.163 362.997 194.815 369.316 Q196.181 367.302 198.241 366.237 Q200.301 365.149 202.778 365.149 Q207.987 365.149 210.996 368.321 Q214.028 371.469 214.028 376.909 Q214.028 382.233 210.88 385.45 Q207.732 388.668 202.5 388.668 Q196.505 388.668 193.334 384.084 Q190.163 379.478 190.163 370.751 Q190.163 362.557 194.051 357.696 Q197.94 352.811 204.491 352.811 Q206.25 352.811 208.033 353.159 Q209.838 353.506 211.783 354.2 Z" fill="#000000" fill-rule="nonzero" fill-opacity="1" /><path clip-path="url(#clip710)" d="M16.4842 1094.92 L16.4842 1085.34 L48.8219 1073.22 L16.4842 1061.02 L16.4842 1051.44 L64.0042 1051.44 L64.0042 1057.71 L22.277 1057.71 L54.8694 1069.97 L54.8694 1076.43 L22.277 1088.68 L64.0042 1088.68 L64.0042 1094.92 L16.4842 1094.92 Z" fill="#000000" fill-rule="nonzero" fill-opacity="1" /><path clip-path="url(#clip710)" d="M44.7161 1008.44 L47.5806 1008.44 L47.5806 1035.37 Q53.6281 1034.99 56.8109 1031.74 Q59.9619 1028.46 59.9619 1022.64 Q59.9619 1019.27 59.1344 1016.11 Q58.3069 1012.93 56.6518 1009.81 L62.1899 1009.81 Q63.5267 1012.96 64.227 1016.27 Q64.9272 1019.58 64.9272 1022.99 Q64.9272 1031.52 59.9619 1036.52 Q54.9967 1041.48 46.5303 1041.48 Q37.7774 1041.48 32.6531 1036.77 Q27.4968 1032.03 27.4968 1024.01 Q27.4968 1016.81 32.1438 1012.65 Q36.7589 1008.44 44.7161 1008.44 M42.9973 1014.3 Q38.1912 1014.36 35.3266 1017.01 Q32.4621 1019.62 32.4621 1023.94 Q32.4621 1028.85 35.2312 1031.81 Q38.0002 1034.73 43.0292 1035.18 L42.9973 1014.3 Z" fill="#000000" fill-rule="nonzero" fill-opacity="1" /><path clip-path="url(#clip710)" d="M46.0847 982.631 Q46.0847 989.729 47.7079 992.466 Q49.3312 995.203 53.2461 995.203 Q56.3653 995.203 58.2114 993.166 Q60.0256 991.097 60.0256 987.564 Q60.0256 982.695 56.5881 979.767 Q53.1188 976.806 47.3897 976.806 L46.0847 976.806 L46.0847 982.631 M43.6657 970.95 L64.0042 970.95 L64.0042 976.806 L58.5933 976.806 Q61.8398 978.812 63.3994 981.804 Q64.9272 984.795 64.9272 989.124 Q64.9272 994.599 61.8716 997.845 Q58.7843 1001.06 53.6281 1001.06 Q47.6125 1001.06 44.5569 997.049 Q41.5014 993.007 41.5014 985.018 L41.5014 976.806 L40.9285 976.806 Q36.8862 976.806 34.6901 979.48 Q32.4621 982.122 32.4621 986.928 Q32.4621 989.983 33.1941 992.88 Q33.9262 995.776 35.3903 998.45 L29.9795 998.45 Q28.7381 995.235 28.1334 992.211 Q27.4968 989.188 27.4968 986.323 Q27.4968 978.589 31.5072 974.769 Q35.5176 970.95 43.6657 970.95 Z" fill="#000000" fill-rule="nonzero" fill-opacity="1" /><path clip-path="url(#clip710)" d="M42.4881 929.255 L64.0042 929.255 L64.0042 935.111 L42.679 935.111 Q37.6183 935.111 35.1038 937.084 Q32.5894 939.058 32.5894 943.005 Q32.5894 947.747 35.6131 950.484 Q38.6368 953.222 43.8567 953.222 L64.0042 953.222 L64.0042 959.11 L28.3562 959.11 L28.3562 953.222 L33.8944 953.222 Q30.6797 951.121 29.0883 948.288 Q27.4968 945.424 27.4968 941.7 Q27.4968 935.557 31.3163 932.406 Q35.1038 929.255 42.4881 929.255 Z" fill="#000000" fill-rule="nonzero" fill-opacity="1" /><path clip-path="url(#clip710)" d="M16.4842 896.599 L16.4842 866.552 L21.895 866.552 L21.895 890.169 L35.9632 890.169 L35.9632 867.539 L41.3741 867.539 L41.3741 890.169 L58.5933 890.169 L58.5933 865.979 L64.0042 865.979 L64.0042 896.599 L16.4842 896.599 Z" fill="#000000" fill-rule="nonzero" fill-opacity="1" /><path clip-path="url(#clip710)" d="M33.8307 835.01 Q33.2578 835.997 33.0032 837.175 Q32.7167 838.321 32.7167 839.721 Q32.7167 844.686 35.9632 847.36 Q39.1779 850.002 45.2253 850.002 L64.0042 850.002 L64.0042 855.89 L28.3562 855.89 L28.3562 850.002 L33.8944 850.002 Q30.6479 848.156 29.0883 845.195 Q27.4968 842.235 27.4968 838.002 Q27.4968 837.397 27.5923 836.665 Q27.656 835.933 27.8151 835.042 L33.8307 835.01 Z" fill="#000000" fill-rule="nonzero" fill-opacity="1" /><path clip-path="url(#clip710)" d="M33.8307 809.357 Q33.2578 810.343 33.0032 811.521 Q32.7167 812.667 32.7167 814.067 Q32.7167 819.032 35.9632 821.706 Q39.1779 824.348 45.2253 824.348 L64.0042 824.348 L64.0042 830.236 L28.3562 830.236 L28.3562 824.348 L33.8944 824.348 Q30.6479 822.502 29.0883 819.542 Q27.4968 816.582 27.4968 812.348 Q27.4968 811.744 27.5923 811.012 Q27.656 810.28 27.8151 809.388 L33.8307 809.357 Z" fill="#000000" fill-rule="nonzero" fill-opacity="1" /><path clip-path="url(#clip710)" d="M32.4621 790.832 Q32.4621 795.543 36.1542 798.28 Q39.8145 801.017 46.212 801.017 Q52.6095 801.017 56.3017 798.312 Q59.9619 795.575 59.9619 790.832 Q59.9619 786.154 56.2698 783.416 Q52.5777 780.679 46.212 780.679 Q39.8781 780.679 36.186 783.416 Q32.4621 786.154 32.4621 790.832 M27.4968 790.832 Q27.4968 783.193 32.4621 778.833 Q37.4273 774.472 46.212 774.472 Q54.9649 774.472 59.9619 778.833 Q64.9272 783.193 64.9272 790.832 Q64.9272 798.503 59.9619 802.864 Q54.9649 807.192 46.212 807.192 Q37.4273 807.192 32.4621 802.864 Q27.4968 798.503 27.4968 790.832 Z" fill="#000000" fill-rule="nonzero" fill-opacity="1" /><path clip-path="url(#clip710)" d="M33.8307 744.108 Q33.2578 745.095 33.0032 746.272 Q32.7167 747.418 32.7167 748.819 Q32.7167 753.784 35.9632 756.458 Q39.1779 759.099 45.2253 759.099 L64.0042 759.099 L64.0042 764.988 L28.3562 764.988 L28.3562 759.099 L33.8944 759.099 Q30.6479 757.253 29.0883 754.293 Q27.4968 751.333 27.4968 747.1 Q27.4968 746.495 27.5923 745.763 Q27.656 745.031 27.8151 744.14 L33.8307 744.108 Z" fill="#000000" fill-rule="nonzero" fill-opacity="1" /><path clip-path="url(#clip710)" d="M28.3562 687.612 L45.7028 700.503 L64.0042 686.944 L64.0042 693.851 L49.9996 704.227 L64.0042 714.603 L64.0042 721.51 L45.3526 707.664 L28.3562 720.332 L28.3562 713.425 L41.0558 703.972 L28.3562 694.519 L28.3562 687.612 Z" fill="#000000" fill-rule="nonzero" fill-opacity="1" /><path clip-path="url(#clip710)" d="M16.4842 673.13 L34.149 673.13 L34.149 678.541 L16.4842 678.541 L16.4842 673.13 Z" fill="#000000" fill-rule="nonzero" fill-opacity="1" /><path clip-path="url(#clip710)" d="M44.0477 635.254 Q46.403 635.032 50.2224 633.026 Q54.6466 630.671 57.1292 626.215 Q59.5482 621.855 59.58 617.144 L59.58 594.96 L64.6407 594.96 L64.6407 617.144 Q64.6407 623.255 61.4897 628.921 Q58.3387 634.554 52.7369 637.578 Q47.135 640.602 41.1831 640.602 Q35.2948 640.602 29.693 637.578 Q24.0912 634.554 20.9083 628.921 Q17.7255 623.255 17.7255 617.144 L17.7255 594.96 L22.7862 594.96 L22.7862 617.144 Q22.818 621.855 25.2688 626.215 Q27.7833 630.639 32.1756 633.026 Q35.995 635.063 38.9551 635.35 L38.9551 594.96 L44.0477 594.96 L44.0477 635.254 Z" fill="#000000" fill-rule="nonzero" fill-opacity="1" /><path clip-path="url(#clip710)" d="M14.479 563.067 L14.479 549.572 L19.0304 549.572 L19.0304 557.211 L68.0464 557.211 L68.0464 549.572 L72.5979 549.572 L72.5979 563.067 L14.479 563.067 Z" fill="#000000" fill-rule="nonzero" fill-opacity="1" /><path clip-path="url(#clip710)" d="M43.5384 540.055 L43.5384 522.9 L48.7583 522.9 L48.7583 540.055 L43.5384 540.055 Z" fill="#000000" fill-rule="nonzero" fill-opacity="1" /><path clip-path="url(#clip710)" d="M58.5933 511.632 L58.5933 501.129 L22.3406 501.129 L24.6323 512.555 L18.7758 512.555 L16.4842 501.193 L16.4842 494.763 L58.5933 494.763 L58.5933 484.26 L64.0042 484.26 L64.0042 511.632 L58.5933 511.632 Z" fill="#000000" fill-rule="nonzero" fill-opacity="1" /><path clip-path="url(#clip710)" d="M55.9197 470.605 L55.9197 463.89 L61.3942 463.89 L71.5793 469.11 L71.5793 473.215 L61.3942 470.605 L55.9197 470.605 Z" fill="#000000" fill-rule="nonzero" fill-opacity="1" /><path clip-path="url(#clip710)" d="M58.5933 428.719 L58.5933 418.216 L22.3406 418.216 L24.6323 429.642 L18.7758 429.642 L16.4842 418.279 L16.4842 411.85 L58.5933 411.85 L58.5933 401.347 L64.0042 401.347 L64.0042 428.719 L58.5933 428.719 Z" fill="#000000" fill-rule="nonzero" fill-opacity="1" /><path clip-path="url(#clip710)" d="M14.479 375.502 L72.5979 375.502 L72.5979 388.997 L68.0464 388.997 L68.0464 381.39 L19.0304 381.39 L19.0304 388.997 L14.479 388.997 L14.479 375.502 Z" fill="#000000" fill-rule="nonzero" fill-opacity="1" /><polyline clip-path="url(#clip712)" style="stroke:#d52628; stroke-linecap:round; stroke-linejoin:round; stroke-width:6; stroke-opacity:1; fill:none" points="309.539,246.743 426.228,665.023 542.916,933.599 659.605,1049.11 776.294,1134.18 892.982,1195.71 1009.67,1239.14 1126.36,1270.3 1243.05,1293.84 1359.74,1312.34 1476.42,1327.27 1593.11,1339.44 1709.8,1349.44 1826.49,1357.37 1943.18,1364.37 2059.87,1370.09 2176.56,1374.9 2293.24,1379.26 "/>
<circle clip-path="url(#clip712)" cx="309.539" cy="246.743" r="14.4" fill="#d52628" fill-rule="evenodd" fill-opacity="1" stroke="#000000" stroke-opacity="1" stroke-width="3.2"/>
<circle clip-path="url(#clip712)" cx="426.228" cy="665.023" r="14.4" fill="#d52628" fill-rule="evenodd" fill-opacity="1" stroke="#000000" stroke-opacity="1" stroke-width="3.2"/>
<circle clip-path="url(#clip712)" cx="542.916" cy="933.599" r="14.4" fill="#d52628" fill-rule="evenodd" fill-opacity="1" stroke="#000000" stroke-opacity="1" stroke-width="3.2"/>
<circle clip-path="url(#clip712)" cx="659.605" cy="1049.11" r="14.4" fill="#d52628" fill-rule="evenodd" fill-opacity="1" stroke="#000000" stroke-opacity="1" stroke-width="3.2"/>
<circle clip-path="url(#clip712)" cx="776.294" cy="1134.18" r="14.4" fill="#d52628" fill-rule="evenodd" fill-opacity="1" stroke="#000000" stroke-opacity="1" stroke-width="3.2"/>
<circle clip-path="url(#clip712)" cx="892.982" cy="1195.71" r="14.4" fill="#d52628" fill-rule="evenodd" fill-opacity="1" stroke="#000000" stroke-opacity="1" stroke-width="3.2"/>
<circle clip-path="url(#clip712)" cx="1009.67" cy="1239.14" r="14.4" fill="#d52628" fill-rule="evenodd" fill-opacity="1" stroke="#000000" stroke-opacity="1" stroke-width="3.2"/>
<circle clip-path="url(#clip712)" cx="1126.36" cy="1270.3" r="14.4" fill="#d52628" fill-rule="evenodd" fill-opacity="1" stroke="#000000" stroke-opacity="1" stroke-width="3.2"/>
<circle clip-path="url(#clip712)" cx="1243.05" cy="1293.84" r="14.4" fill="#d52628" fill-rule="evenodd" fill-opacity="1" stroke="#000000" stroke-opacity="1" stroke-width="3.2"/>
<circle clip-path="url(#clip712)" cx="1359.74" cy="1312.34" r="14.4" fill="#d52628" fill-rule="evenodd" fill-opacity="1" stroke="#000000" stroke-opacity="1" stroke-width="3.2"/>
<circle clip-path="url(#clip712)" cx="1476.42" cy="1327.27" r="14.4" fill="#d52628" fill-rule="evenodd" fill-opacity="1" stroke="#000000" stroke-opacity="1" stroke-width="3.2"/>
<circle clip-path="url(#clip712)" cx="1593.11" cy="1339.44" r="14.4" fill="#d52628" fill-rule="evenodd" fill-opacity="1" stroke="#000000" stroke-opacity="1" stroke-width="3.2"/>
<circle clip-path="url(#clip712)" cx="1709.8" cy="1349.44" r="14.4" fill="#d52628" fill-rule="evenodd" fill-opacity="1" stroke="#000000" stroke-opacity="1" stroke-width="3.2"/>
<circle clip-path="url(#clip712)" cx="1826.49" cy="1357.37" r="14.4" fill="#d52628" fill-rule="evenodd" fill-opacity="1" stroke="#000000" stroke-opacity="1" stroke-width="3.2"/>
<circle clip-path="url(#clip712)" cx="1943.18" cy="1364.37" r="14.4" fill="#d52628" fill-rule="evenodd" fill-opacity="1" stroke="#000000" stroke-opacity="1" stroke-width="3.2"/>
<circle clip-path="url(#clip712)" cx="2059.87" cy="1370.09" r="14.4" fill="#d52628" fill-rule="evenodd" fill-opacity="1" stroke="#000000" stroke-opacity="1" stroke-width="3.2"/>
<circle clip-path="url(#clip712)" cx="2176.56" cy="1374.9" r="14.4" fill="#d52628" fill-rule="evenodd" fill-opacity="1" stroke="#000000" stroke-opacity="1" stroke-width="3.2"/>
<circle clip-path="url(#clip712)" cx="2293.24" cy="1379.26" r="14.4" fill="#d52628" fill-rule="evenodd" fill-opacity="1" stroke="#000000" stroke-opacity="1" stroke-width="3.2"/>
<polyline clip-path="url(#clip712)" style="stroke:#9466bd; stroke-linecap:round; stroke-linejoin:round; stroke-width:6; stroke-opacity:1; fill:none" points="309.539,86.1857 426.228,509.175 542.916,797.31 659.605,952.802 776.294,1055.39 892.982,1127.1 1009.67,1179.39 1126.36,1218.82 1243.05,1249.14 1359.74,1272.84 1476.42,1291.8 1593.11,1307.25 1709.8,1320.03 1826.49,1330.73 1943.18,1339.82 2059.87,1347.58 2176.56,1354.27 2293.24,1360.05 "/>
<circle clip-path="url(#clip712)" cx="309.539" cy="86.1857" r="14.4" fill="#9466bd" fill-rule="evenodd" fill-opacity="1" stroke="#000000" stroke-opacity="1" stroke-width="3.2"/>
<circle clip-path="url(#clip712)" cx="426.228" cy="509.175" r="14.4" fill="#9466bd" fill-rule="evenodd" fill-opacity="1" stroke="#000000" stroke-opacity="1" stroke-width="3.2"/>
<circle clip-path="url(#clip712)" cx="542.916" cy="797.31" r="14.4" fill="#9466bd" fill-rule="evenodd" fill-opacity="1" stroke="#000000" stroke-opacity="1" stroke-width="3.2"/>
<circle clip-path="url(#clip712)" cx="659.605" cy="952.802" r="14.4" fill="#9466bd" fill-rule="evenodd" fill-opacity="1" stroke="#000000" stroke-opacity="1" stroke-width="3.2"/>
<circle clip-path="url(#clip712)" cx="776.294" cy="1055.39" r="14.4" fill="#9466bd" fill-rule="evenodd" fill-opacity="1" stroke="#000000" stroke-opacity="1" stroke-width="3.2"/>
<circle clip-path="url(#clip712)" cx="892.982" cy="1127.1" r="14.4" fill="#9466bd" fill-rule="evenodd" fill-opacity="1" stroke="#000000" stroke-opacity="1" stroke-width="3.2"/>
<circle clip-path="url(#clip712)" cx="1009.67" cy="1179.39" r="14.4" fill="#9466bd" fill-rule="evenodd" fill-opacity="1" stroke="#000000" stroke-opacity="1" stroke-width="3.2"/>
<circle clip-path="url(#clip712)" cx="1126.36" cy="1218.82" r="14.4" fill="#9466bd" fill-rule="evenodd" fill-opacity="1" stroke="#000000" stroke-opacity="1" stroke-width="3.2"/>
<circle clip-path="url(#clip712)" cx="1243.05" cy="1249.14" r="14.4" fill="#9466bd" fill-rule="evenodd" fill-opacity="1" stroke="#000000" stroke-opacity="1" stroke-width="3.2"/>
<circle clip-path="url(#clip712)" cx="1359.74" cy="1272.84" r="14.4" fill="#9466bd" fill-rule="evenodd" fill-opacity="1" stroke="#000000" stroke-opacity="1" stroke-width="3.2"/>
<circle clip-path="url(#clip712)" cx="1476.42" cy="1291.8" r="14.4" fill="#9466bd" fill-rule="evenodd" fill-opacity="1" stroke="#000000" stroke-opacity="1" stroke-width="3.2"/>
<circle clip-path="url(#clip712)" cx="1593.11" cy="1307.25" r="14.4" fill="#9466bd" fill-rule="evenodd" fill-opacity="1" stroke="#000000" stroke-opacity="1" stroke-width="3.2"/>
<circle clip-path="url(#clip712)" cx="1709.8" cy="1320.03" r="14.4" fill="#9466bd" fill-rule="evenodd" fill-opacity="1" stroke="#000000" stroke-opacity="1" stroke-width="3.2"/>
<circle clip-path="url(#clip712)" cx="1826.49" cy="1330.73" r="14.4" fill="#9466bd" fill-rule="evenodd" fill-opacity="1" stroke="#000000" stroke-opacity="1" stroke-width="3.2"/>
<circle clip-path="url(#clip712)" cx="1943.18" cy="1339.82" r="14.4" fill="#9466bd" fill-rule="evenodd" fill-opacity="1" stroke="#000000" stroke-opacity="1" stroke-width="3.2"/>
<circle clip-path="url(#clip712)" cx="2059.87" cy="1347.58" r="14.4" fill="#9466bd" fill-rule="evenodd" fill-opacity="1" stroke="#000000" stroke-opacity="1" stroke-width="3.2"/>
<circle clip-path="url(#clip712)" cx="2176.56" cy="1354.27" r="14.4" fill="#9466bd" fill-rule="evenodd" fill-opacity="1" stroke="#000000" stroke-opacity="1" stroke-width="3.2"/>
<circle clip-path="url(#clip712)" cx="2293.24" cy="1360.05" r="14.4" fill="#9466bd" fill-rule="evenodd" fill-opacity="1" stroke="#000000" stroke-opacity="1" stroke-width="3.2"/>
<polyline clip-path="url(#clip712)" style="stroke:#8b564a; stroke-linecap:round; stroke-linejoin:round; stroke-width:6; stroke-opacity:1; fill:none" points="309.539,157.823 426.228,691.07 542.916,938.419 659.605,1063.44 776.294,1157.63 892.982,1213.73 1009.67,1253.79 1126.36,1284.08 1243.05,1306.34 1359.74,1323.37 1476.42,1337.15 1593.11,1348.12 1709.8,1357.18 1826.49,1364.36 1943.18,1370.76 2059.87,1375.95 2176.56,1380.32 2293.24,1384.24 "/>
<circle clip-path="url(#clip712)" cx="309.539" cy="157.823" r="14.4" fill="#8b564a" fill-rule="evenodd" fill-opacity="1" stroke="#000000" stroke-opacity="1" stroke-width="3.2"/>
<circle clip-path="url(#clip712)" cx="426.228" cy="691.07" r="14.4" fill="#8b564a" fill-rule="evenodd" fill-opacity="1" stroke="#000000" stroke-opacity="1" stroke-width="3.2"/>
<circle clip-path="url(#clip712)" cx="542.916" cy="938.419" r="14.4" fill="#8b564a" fill-rule="evenodd" fill-opacity="1" stroke="#000000" stroke-opacity="1" stroke-width="3.2"/>
<circle clip-path="url(#clip712)" cx="659.605" cy="1063.44" r="14.4" fill="#8b564a" fill-rule="evenodd" fill-opacity="1" stroke="#000000" stroke-opacity="1" stroke-width="3.2"/>
<circle clip-path="url(#clip712)" cx="776.294" cy="1157.63" r="14.4" fill="#8b564a" fill-rule="evenodd" fill-opacity="1" stroke="#000000" stroke-opacity="1" stroke-width="3.2"/>
<circle clip-path="url(#clip712)" cx="892.982" cy="1213.73" r="14.4" fill="#8b564a" fill-rule="evenodd" fill-opacity="1" stroke="#000000" stroke-opacity="1" stroke-width="3.2"/>
<circle clip-path="url(#clip712)" cx="1009.67" cy="1253.79" r="14.4" fill="#8b564a" fill-rule="evenodd" fill-opacity="1" stroke="#000000" stroke-opacity="1" stroke-width="3.2"/>
<circle clip-path="url(#clip712)" cx="1126.36" cy="1284.08" r="14.4" fill="#8b564a" fill-rule="evenodd" fill-opacity="1" stroke="#000000" stroke-opacity="1" stroke-width="3.2"/>
<circle clip-path="url(#clip712)" cx="1243.05" cy="1306.34" r="14.4" fill="#8b564a" fill-rule="evenodd" fill-opacity="1" stroke="#000000" stroke-opacity="1" stroke-width="3.2"/>
<circle clip-path="url(#clip712)" cx="1359.74" cy="1323.37" r="14.4" fill="#8b564a" fill-rule="evenodd" fill-opacity="1" stroke="#000000" stroke-opacity="1" stroke-width="3.2"/>
<circle clip-path="url(#clip712)" cx="1476.42" cy="1337.15" r="14.4" fill="#8b564a" fill-rule="evenodd" fill-opacity="1" stroke="#000000" stroke-opacity="1" stroke-width="3.2"/>
<circle clip-path="url(#clip712)" cx="1593.11" cy="1348.12" r="14.4" fill="#8b564a" fill-rule="evenodd" fill-opacity="1" stroke="#000000" stroke-opacity="1" stroke-width="3.2"/>
<circle clip-path="url(#clip712)" cx="1709.8" cy="1357.18" r="14.4" fill="#8b564a" fill-rule="evenodd" fill-opacity="1" stroke="#000000" stroke-opacity="1" stroke-width="3.2"/>
<circle clip-path="url(#clip712)" cx="1826.49" cy="1364.36" r="14.4" fill="#8b564a" fill-rule="evenodd" fill-opacity="1" stroke="#000000" stroke-opacity="1" stroke-width="3.2"/>
<circle clip-path="url(#clip712)" cx="1943.18" cy="1370.76" r="14.4" fill="#8b564a" fill-rule="evenodd" fill-opacity="1" stroke="#000000" stroke-opacity="1" stroke-width="3.2"/>
<circle clip-path="url(#clip712)" cx="2059.87" cy="1375.95" r="14.4" fill="#8b564a" fill-rule="evenodd" fill-opacity="1" stroke="#000000" stroke-opacity="1" stroke-width="3.2"/>
<circle clip-path="url(#clip712)" cx="2176.56" cy="1380.32" r="14.4" fill="#8b564a" fill-rule="evenodd" fill-opacity="1" stroke="#000000" stroke-opacity="1" stroke-width="3.2"/>
<circle clip-path="url(#clip712)" cx="2293.24" cy="1384.24" r="14.4" fill="#8b564a" fill-rule="evenodd" fill-opacity="1" stroke="#000000" stroke-opacity="1" stroke-width="3.2"/>
<path clip-path="url(#clip710)" d="M1762.37 300.469 L2282.66 300.469 L2282.66 93.1086 L1762.37 93.1086  Z" fill="#ffffff" fill-rule="evenodd" fill-opacity="1"/>
<polyline clip-path="url(#clip710)" style="stroke:#000000; stroke-linecap:round; stroke-linejoin:round; stroke-width:4; stroke-opacity:1; fill:none" points="1762.37,300.469 2282.66,300.469 2282.66,93.1086 1762.37,93.1086 1762.37,300.469 "/>
<polyline clip-path="url(#clip710)" style="stroke:#d52628; stroke-linecap:round; stroke-linejoin:round; stroke-width:6; stroke-opacity:1; fill:none" points="1785.73,144.949 1925.92,144.949 "/>
<path clip-path="url(#clip710)" d="M1949.28 127.669 L1956.25 127.669 L1965.07 151.187 L1973.93 127.669 L1980.9 127.669 L1980.9 162.229 L1976.34 162.229 L1976.34 131.882 L1967.43 155.585 L1962.73 155.585 L1953.82 131.882 L1953.82 162.229 L1949.28 162.229 L1949.28 127.669 Z" fill="#000000" fill-rule="nonzero" fill-opacity="1" /><path clip-path="url(#clip710)" d="M2012.17 148.201 L2012.17 150.284 L1992.59 150.284 Q1992.87 154.682 1995.23 156.997 Q1997.61 159.289 2001.85 159.289 Q2004.3 159.289 2006.59 158.687 Q2008.91 158.085 2011.18 156.881 L2011.18 160.909 Q2008.89 161.881 2006.48 162.391 Q2004.07 162.9 2001.59 162.9 Q1995.39 162.9 1991.76 159.289 Q1988.15 155.678 1988.15 149.52 Q1988.15 143.155 1991.57 139.428 Q1995.02 135.678 2000.85 135.678 Q2006.09 135.678 2009.12 139.057 Q2012.17 142.414 2012.17 148.201 M2007.91 146.951 Q2007.87 143.456 2005.95 141.372 Q2004.05 139.289 2000.9 139.289 Q1997.34 139.289 1995.18 141.303 Q1993.05 143.317 1992.73 146.974 L2007.91 146.951 Z" fill="#000000" fill-rule="nonzero" fill-opacity="1" /><path clip-path="url(#clip710)" d="M2030.95 149.196 Q2025.78 149.196 2023.79 150.377 Q2021.8 151.557 2021.8 154.405 Q2021.8 156.673 2023.28 158.016 Q2024.79 159.335 2027.36 159.335 Q2030.9 159.335 2033.03 156.835 Q2035.18 154.312 2035.18 150.145 L2035.18 149.196 L2030.95 149.196 M2039.44 147.437 L2039.44 162.229 L2035.18 162.229 L2035.18 158.293 Q2033.72 160.655 2031.55 161.789 Q2029.37 162.9 2026.22 162.9 Q2022.24 162.9 2019.88 160.678 Q2017.54 158.432 2017.54 154.682 Q2017.54 150.307 2020.46 148.085 Q2023.4 145.863 2029.21 145.863 L2035.18 145.863 L2035.18 145.446 Q2035.18 142.507 2033.24 140.909 Q2031.32 139.289 2027.82 139.289 Q2025.6 139.289 2023.49 139.821 Q2021.39 140.354 2019.44 141.419 L2019.44 137.483 Q2021.78 136.581 2023.98 136.141 Q2026.18 135.678 2028.26 135.678 Q2033.89 135.678 2036.66 138.594 Q2039.44 141.511 2039.44 147.437 Z" fill="#000000" fill-rule="nonzero" fill-opacity="1" /><path clip-path="url(#clip710)" d="M2069.77 146.581 L2069.77 162.229 L2065.51 162.229 L2065.51 146.719 Q2065.51 143.039 2064.07 141.21 Q2062.64 139.382 2059.77 139.382 Q2056.32 139.382 2054.33 141.581 Q2052.33 143.78 2052.33 147.576 L2052.33 162.229 L2048.05 162.229 L2048.05 136.303 L2052.33 136.303 L2052.33 140.331 Q2053.86 137.993 2055.92 136.835 Q2058.01 135.678 2060.71 135.678 Q2065.18 135.678 2067.47 138.456 Q2069.77 141.21 2069.77 146.581 Z" fill="#000000" fill-rule="nonzero" fill-opacity="1" /><path clip-path="url(#clip710)" d="M2076.11 147.344 L2088.58 147.344 L2088.58 151.141 L2076.11 151.141 L2076.11 147.344 Z" fill="#000000" fill-rule="nonzero" fill-opacity="1" /><path clip-path="url(#clip710)" d="M2095.55 127.669 L2102.52 127.669 L2111.34 151.187 L2120.2 127.669 L2127.17 127.669 L2127.17 162.229 L2122.61 162.229 L2122.61 131.882 L2113.7 155.585 L2109 155.585 L2100.09 131.882 L2100.09 162.229 L2095.55 162.229 L2095.55 127.669 Z" fill="#000000" fill-rule="nonzero" fill-opacity="1" /><path clip-path="url(#clip710)" d="M2146.32 139.289 Q2142.89 139.289 2140.9 141.974 Q2138.91 144.636 2138.91 149.289 Q2138.91 153.942 2140.88 156.627 Q2142.87 159.289 2146.32 159.289 Q2149.72 159.289 2151.71 156.604 Q2153.7 153.918 2153.7 149.289 Q2153.7 144.682 2151.71 141.997 Q2149.72 139.289 2146.32 139.289 M2146.32 135.678 Q2151.87 135.678 2155.04 139.289 Q2158.21 142.9 2158.21 149.289 Q2158.21 155.655 2155.04 159.289 Q2151.87 162.9 2146.32 162.9 Q2140.74 162.9 2137.57 159.289 Q2134.42 155.655 2134.42 149.289 Q2134.42 142.9 2137.57 139.289 Q2140.74 135.678 2146.32 135.678 Z" fill="#000000" fill-rule="nonzero" fill-opacity="1" /><path clip-path="url(#clip710)" d="M2182.33 140.238 L2182.33 126.21 L2186.59 126.21 L2186.59 162.229 L2182.33 162.229 L2182.33 158.34 Q2180.99 160.655 2178.93 161.789 Q2176.89 162.9 2174.02 162.9 Q2169.32 162.9 2166.36 159.15 Q2163.42 155.4 2163.42 149.289 Q2163.42 143.178 2166.36 139.428 Q2169.32 135.678 2174.02 135.678 Q2176.89 135.678 2178.93 136.812 Q2180.99 137.923 2182.33 140.238 M2167.82 149.289 Q2167.82 153.988 2169.74 156.673 Q2171.69 159.335 2175.07 159.335 Q2178.45 159.335 2180.39 156.673 Q2182.33 153.988 2182.33 149.289 Q2182.33 144.59 2180.39 141.928 Q2178.45 139.243 2175.07 139.243 Q2171.69 139.243 2169.74 141.928 Q2167.82 144.59 2167.82 149.289 Z" fill="#000000" fill-rule="nonzero" fill-opacity="1" /><path clip-path="url(#clip710)" d="M2217.54 148.201 L2217.54 150.284 L2197.96 150.284 Q2198.24 154.682 2200.6 156.997 Q2202.98 159.289 2207.22 159.289 Q2209.67 159.289 2211.96 158.687 Q2214.28 158.085 2216.55 156.881 L2216.55 160.909 Q2214.26 161.881 2211.85 162.391 Q2209.44 162.9 2206.96 162.9 Q2200.76 162.9 2197.13 159.289 Q2193.51 155.678 2193.51 149.52 Q2193.51 143.155 2196.94 139.428 Q2200.39 135.678 2206.22 135.678 Q2211.45 135.678 2214.49 139.057 Q2217.54 142.414 2217.54 148.201 M2213.28 146.951 Q2213.24 143.456 2211.32 141.372 Q2209.42 139.289 2206.27 139.289 Q2202.7 139.289 2200.55 141.303 Q2198.42 143.317 2198.1 146.974 L2213.28 146.951 Z" fill="#000000" fill-rule="nonzero" fill-opacity="1" /><polyline clip-path="url(#clip710)" style="stroke:#9466bd; stroke-linecap:round; stroke-linejoin:round; stroke-width:6; stroke-opacity:1; fill:none" points="1785.73,196.789 1925.92,196.789 "/>
<path clip-path="url(#clip710)" d="M1949.28 179.509 L1956.25 179.509 L1965.07 203.027 L1973.93 179.509 L1980.9 179.509 L1980.9 214.069 L1976.34 214.069 L1976.34 183.722 L1967.43 207.425 L1962.73 207.425 L1953.82 183.722 L1953.82 214.069 L1949.28 214.069 L1949.28 179.509 Z" fill="#000000" fill-rule="nonzero" fill-opacity="1" /><path clip-path="url(#clip710)" d="M2012.17 200.041 L2012.17 202.124 L1992.59 202.124 Q1992.87 206.522 1995.23 208.837 Q1997.61 211.129 2001.85 211.129 Q2004.3 211.129 2006.59 210.527 Q2008.91 209.925 2011.18 208.721 L2011.18 212.749 Q2008.89 213.721 2006.48 214.231 Q2004.07 214.74 2001.59 214.74 Q1995.39 214.74 1991.76 211.129 Q1988.15 207.518 1988.15 201.36 Q1988.15 194.995 1991.57 191.268 Q1995.02 187.518 2000.85 187.518 Q2006.09 187.518 2009.12 190.897 Q2012.17 194.254 2012.17 200.041 M2007.91 198.791 Q2007.87 195.296 2005.95 193.212 Q2004.05 191.129 2000.9 191.129 Q1997.34 191.129 1995.18 193.143 Q1993.05 195.157 1992.73 198.814 L2007.91 198.791 Z" fill="#000000" fill-rule="nonzero" fill-opacity="1" /><path clip-path="url(#clip710)" d="M2030.95 201.036 Q2025.78 201.036 2023.79 202.217 Q2021.8 203.397 2021.8 206.245 Q2021.8 208.513 2023.28 209.856 Q2024.79 211.175 2027.36 211.175 Q2030.9 211.175 2033.03 208.675 Q2035.18 206.152 2035.18 201.985 L2035.18 201.036 L2030.95 201.036 M2039.44 199.277 L2039.44 214.069 L2035.18 214.069 L2035.18 210.133 Q2033.72 212.495 2031.55 213.629 Q2029.37 214.74 2026.22 214.74 Q2022.24 214.74 2019.88 212.518 Q2017.54 210.272 2017.54 206.522 Q2017.54 202.147 2020.46 199.925 Q2023.4 197.703 2029.21 197.703 L2035.18 197.703 L2035.18 197.286 Q2035.18 194.347 2033.24 192.749 Q2031.32 191.129 2027.82 191.129 Q2025.6 191.129 2023.49 191.661 Q2021.39 192.194 2019.44 193.259 L2019.44 189.323 Q2021.78 188.421 2023.98 187.981 Q2026.18 187.518 2028.26 187.518 Q2033.89 187.518 2036.66 190.434 Q2039.44 193.351 2039.44 199.277 Z" fill="#000000" fill-rule="nonzero" fill-opacity="1" /><path clip-path="url(#clip710)" d="M2069.77 198.421 L2069.77 214.069 L2065.51 214.069 L2065.51 198.559 Q2065.51 194.879 2064.07 193.05 Q2062.64 191.222 2059.77 191.222 Q2056.32 191.222 2054.33 193.421 Q2052.33 195.62 2052.33 199.416 L2052.33 214.069 L2048.05 214.069 L2048.05 188.143 L2052.33 188.143 L2052.33 192.171 Q2053.86 189.833 2055.92 188.675 Q2058.01 187.518 2060.71 187.518 Q2065.18 187.518 2067.47 190.296 Q2069.77 193.05 2069.77 198.421 Z" fill="#000000" fill-rule="nonzero" fill-opacity="1" /><path clip-path="url(#clip710)" d="M2076.11 199.184 L2088.58 199.184 L2088.58 202.981 L2076.11 202.981 L2076.11 199.184 Z" fill="#000000" fill-rule="nonzero" fill-opacity="1" /><path clip-path="url(#clip710)" d="M2095.55 179.509 L2102.52 179.509 L2111.34 203.027 L2120.2 179.509 L2127.17 179.509 L2127.17 214.069 L2122.61 214.069 L2122.61 183.722 L2113.7 207.425 L2109 207.425 L2100.09 183.722 L2100.09 214.069 L2095.55 214.069 L2095.55 179.509 Z" fill="#000000" fill-rule="nonzero" fill-opacity="1" /><path clip-path="url(#clip710)" d="M2158.45 200.041 L2158.45 202.124 L2138.86 202.124 Q2139.14 206.522 2141.5 208.837 Q2143.89 211.129 2148.12 211.129 Q2150.58 211.129 2152.87 210.527 Q2155.18 209.925 2157.45 208.721 L2157.45 212.749 Q2155.16 213.721 2152.75 214.231 Q2150.34 214.74 2147.87 214.74 Q2141.66 214.74 2138.03 211.129 Q2134.42 207.518 2134.42 201.36 Q2134.42 194.995 2137.84 191.268 Q2141.29 187.518 2147.13 187.518 Q2152.36 187.518 2155.39 190.897 Q2158.45 194.254 2158.45 200.041 M2154.19 198.791 Q2154.14 195.296 2152.22 193.212 Q2150.32 191.129 2147.17 191.129 Q2143.61 191.129 2141.45 193.143 Q2139.33 195.157 2139 198.814 L2154.19 198.791 Z" fill="#000000" fill-rule="nonzero" fill-opacity="1" /><path clip-path="url(#clip710)" d="M2182.5 192.078 L2182.5 178.05 L2186.76 178.05 L2186.76 214.069 L2182.5 214.069 L2182.5 210.18 Q2181.15 212.495 2179.09 213.629 Q2177.06 214.74 2174.19 214.74 Q2169.49 214.74 2166.52 210.99 Q2163.58 207.24 2163.58 201.129 Q2163.58 195.018 2166.52 191.268 Q2169.49 187.518 2174.19 187.518 Q2177.06 187.518 2179.09 188.652 Q2181.15 189.763 2182.5 192.078 M2167.98 201.129 Q2167.98 205.828 2169.9 208.513 Q2171.85 211.175 2175.23 211.175 Q2178.61 211.175 2180.55 208.513 Q2182.5 205.828 2182.5 201.129 Q2182.5 196.43 2180.55 193.768 Q2178.61 191.083 2175.23 191.083 Q2171.85 191.083 2169.9 193.768 Q2167.98 196.43 2167.98 201.129 Z" fill="#000000" fill-rule="nonzero" fill-opacity="1" /><path clip-path="url(#clip710)" d="M2195.53 188.143 L2199.79 188.143 L2199.79 214.069 L2195.53 214.069 L2195.53 188.143 M2195.53 178.05 L2199.79 178.05 L2199.79 183.444 L2195.53 183.444 L2195.53 178.05 Z" fill="#000000" fill-rule="nonzero" fill-opacity="1" /><path clip-path="url(#clip710)" d="M2220.48 201.036 Q2215.32 201.036 2213.33 202.217 Q2211.34 203.397 2211.34 206.245 Q2211.34 208.513 2212.82 209.856 Q2214.32 211.175 2216.89 211.175 Q2220.44 211.175 2222.57 208.675 Q2224.72 206.152 2224.72 201.985 L2224.72 201.036 L2220.48 201.036 M2228.98 199.277 L2228.98 214.069 L2224.72 214.069 L2224.72 210.133 Q2223.26 212.495 2221.08 213.629 Q2218.91 214.74 2215.76 214.74 Q2211.78 214.74 2209.42 212.518 Q2207.08 210.272 2207.08 206.522 Q2207.08 202.147 2210 199.925 Q2212.94 197.703 2218.75 197.703 L2224.72 197.703 L2224.72 197.286 Q2224.72 194.347 2222.77 192.749 Q2220.85 191.129 2217.36 191.129 Q2215.13 191.129 2213.03 191.661 Q2210.92 192.194 2208.98 193.259 L2208.98 189.323 Q2211.32 188.421 2213.51 187.981 Q2215.71 187.518 2217.8 187.518 Q2223.42 187.518 2226.2 190.434 Q2228.98 193.351 2228.98 199.277 Z" fill="#000000" fill-rule="nonzero" fill-opacity="1" /><path clip-path="url(#clip710)" d="M2259.3 198.421 L2259.3 214.069 L2255.04 214.069 L2255.04 198.559 Q2255.04 194.879 2253.61 193.05 Q2252.17 191.222 2249.3 191.222 Q2245.85 191.222 2243.86 193.421 Q2241.87 195.62 2241.87 199.416 L2241.87 214.069 L2237.59 214.069 L2237.59 188.143 L2241.87 188.143 L2241.87 192.171 Q2243.4 189.833 2245.46 188.675 Q2247.54 187.518 2250.25 187.518 Q2254.72 187.518 2257.01 190.296 Q2259.3 193.05 2259.3 198.421 Z" fill="#000000" fill-rule="nonzero" fill-opacity="1" /><polyline clip-path="url(#clip710)" style="stroke:#8b564a; stroke-linecap:round; stroke-linejoin:round; stroke-width:6; stroke-opacity:1; fill:none" points="1785.73,248.629 1925.92,248.629 "/>
<path clip-path="url(#clip710)" d="M1949.28 231.349 L1956.25 231.349 L1965.07 254.867 L1973.93 231.349 L1980.9 231.349 L1980.9 265.909 L1976.34 265.909 L1976.34 235.562 L1967.43 259.265 L1962.73 259.265 L1953.82 235.562 L1953.82 265.909 L1949.28 265.909 L1949.28 231.349 Z" fill="#000000" fill-rule="nonzero" fill-opacity="1" /><path clip-path="url(#clip710)" d="M2000.04 242.969 Q1996.62 242.969 1994.63 245.654 Q1992.64 248.316 1992.64 252.969 Q1992.64 257.622 1994.6 260.307 Q1996.59 262.969 2000.04 262.969 Q2003.45 262.969 2005.44 260.284 Q2007.43 257.598 2007.43 252.969 Q2007.43 248.362 2005.44 245.677 Q2003.45 242.969 2000.04 242.969 M2000.04 239.358 Q2005.6 239.358 2008.77 242.969 Q2011.94 246.58 2011.94 252.969 Q2011.94 259.335 2008.77 262.969 Q2005.6 266.58 2000.04 266.58 Q1994.46 266.58 1991.29 262.969 Q1988.15 259.335 1988.15 252.969 Q1988.15 246.58 1991.29 242.969 Q1994.46 239.358 2000.04 239.358 Z" fill="#000000" fill-rule="nonzero" fill-opacity="1" /><path clip-path="url(#clip710)" d="M2036.06 243.918 L2036.06 229.89 L2040.32 229.89 L2040.32 265.909 L2036.06 265.909 L2036.06 262.02 Q2034.72 264.335 2032.66 265.469 Q2030.62 266.58 2027.75 266.58 Q2023.05 266.58 2020.09 262.83 Q2017.15 259.08 2017.15 252.969 Q2017.15 246.858 2020.09 243.108 Q2023.05 239.358 2027.75 239.358 Q2030.62 239.358 2032.66 240.492 Q2034.72 241.603 2036.06 243.918 M2021.55 252.969 Q2021.55 257.668 2023.47 260.353 Q2025.41 263.015 2028.79 263.015 Q2032.17 263.015 2034.12 260.353 Q2036.06 257.668 2036.06 252.969 Q2036.06 248.27 2034.12 245.608 Q2032.17 242.923 2028.79 242.923 Q2025.41 242.923 2023.47 245.608 Q2021.55 248.27 2021.55 252.969 Z" fill="#000000" fill-rule="nonzero" fill-opacity="1" /><path clip-path="url(#clip710)" d="M2071.27 251.881 L2071.27 253.964 L2051.69 253.964 Q2051.96 258.362 2054.33 260.677 Q2056.71 262.969 2060.95 262.969 Q2063.4 262.969 2065.69 262.367 Q2068.01 261.765 2070.27 260.561 L2070.27 264.589 Q2067.98 265.561 2065.58 266.071 Q2063.17 266.58 2060.69 266.58 Q2054.49 266.58 2050.85 262.969 Q2047.24 259.358 2047.24 253.2 Q2047.24 246.835 2050.67 243.108 Q2054.12 239.358 2059.95 239.358 Q2065.18 239.358 2068.21 242.737 Q2071.27 246.094 2071.27 251.881 M2067.01 250.631 Q2066.96 247.136 2065.04 245.052 Q2063.14 242.969 2060 242.969 Q2056.43 242.969 2054.28 244.983 Q2052.15 246.997 2051.83 250.654 L2067.01 250.631 Z" fill="#000000" fill-rule="nonzero" fill-opacity="1" /><path clip-path="url(#clip710)" d="M2076.11 251.024 L2088.58 251.024 L2088.58 254.821 L2076.11 254.821 L2076.11 251.024 Z" fill="#000000" fill-rule="nonzero" fill-opacity="1" /><path clip-path="url(#clip710)" d="M2095.55 231.349 L2102.52 231.349 L2111.34 254.867 L2120.2 231.349 L2127.17 231.349 L2127.17 265.909 L2122.61 265.909 L2122.61 235.562 L2113.7 259.265 L2109 259.265 L2100.09 235.562 L2100.09 265.909 L2095.55 265.909 L2095.55 231.349 Z" fill="#000000" fill-rule="nonzero" fill-opacity="1" /><path clip-path="url(#clip710)" d="M2158.45 251.881 L2158.45 253.964 L2138.86 253.964 Q2139.14 258.362 2141.5 260.677 Q2143.89 262.969 2148.12 262.969 Q2150.58 262.969 2152.87 262.367 Q2155.18 261.765 2157.45 260.561 L2157.45 264.589 Q2155.16 265.561 2152.75 266.071 Q2150.34 266.58 2147.87 266.58 Q2141.66 266.58 2138.03 262.969 Q2134.42 259.358 2134.42 253.2 Q2134.42 246.835 2137.84 243.108 Q2141.29 239.358 2147.13 239.358 Q2152.36 239.358 2155.39 242.737 Q2158.45 246.094 2158.45 251.881 M2154.19 250.631 Q2154.14 247.136 2152.22 245.052 Q2150.32 242.969 2147.17 242.969 Q2143.61 242.969 2141.45 244.983 Q2139.33 246.997 2139 250.654 L2154.19 250.631 Z" fill="#000000" fill-rule="nonzero" fill-opacity="1" /><path clip-path="url(#clip710)" d="M2182.5 243.918 L2182.5 229.89 L2186.76 229.89 L2186.76 265.909 L2182.5 265.909 L2182.5 262.02 Q2181.15 264.335 2179.09 265.469 Q2177.06 266.58 2174.19 266.58 Q2169.49 266.58 2166.52 262.83 Q2163.58 259.08 2163.58 252.969 Q2163.58 246.858 2166.52 243.108 Q2169.49 239.358 2174.19 239.358 Q2177.06 239.358 2179.09 240.492 Q2181.15 241.603 2182.5 243.918 M2167.98 252.969 Q2167.98 257.668 2169.9 260.353 Q2171.85 263.015 2175.23 263.015 Q2178.61 263.015 2180.55 260.353 Q2182.5 257.668 2182.5 252.969 Q2182.5 248.27 2180.55 245.608 Q2178.61 242.923 2175.23 242.923 Q2171.85 242.923 2169.9 245.608 Q2167.98 248.27 2167.98 252.969 Z" fill="#000000" fill-rule="nonzero" fill-opacity="1" /><path clip-path="url(#clip710)" d="M2195.53 239.983 L2199.79 239.983 L2199.79 265.909 L2195.53 265.909 L2195.53 239.983 M2195.53 229.89 L2199.79 229.89 L2199.79 235.284 L2195.53 235.284 L2195.53 229.89 Z" fill="#000000" fill-rule="nonzero" fill-opacity="1" /><path clip-path="url(#clip710)" d="M2220.48 252.876 Q2215.32 252.876 2213.33 254.057 Q2211.34 255.237 2211.34 258.085 Q2211.34 260.353 2212.82 261.696 Q2214.32 263.015 2216.89 263.015 Q2220.44 263.015 2222.57 260.515 Q2224.72 257.992 2224.72 253.825 L2224.72 252.876 L2220.48 252.876 M2228.98 251.117 L2228.98 265.909 L2224.72 265.909 L2224.72 261.973 Q2223.26 264.335 2221.08 265.469 Q2218.91 266.58 2215.76 266.58 Q2211.78 266.58 2209.42 264.358 Q2207.08 262.112 2207.08 258.362 Q2207.08 253.987 2210 251.765 Q2212.94 249.543 2218.75 249.543 L2224.72 249.543 L2224.72 249.126 Q2224.72 246.187 2222.77 244.589 Q2220.85 242.969 2217.36 242.969 Q2215.13 242.969 2213.03 243.501 Q2210.92 244.034 2208.98 245.099 L2208.98 241.163 Q2211.32 240.261 2213.51 239.821 Q2215.71 239.358 2217.8 239.358 Q2223.42 239.358 2226.2 242.274 Q2228.98 245.191 2228.98 251.117 Z" fill="#000000" fill-rule="nonzero" fill-opacity="1" /><path clip-path="url(#clip710)" d="M2259.3 250.261 L2259.3 265.909 L2255.04 265.909 L2255.04 250.399 Q2255.04 246.719 2253.61 244.89 Q2252.17 243.062 2249.3 243.062 Q2245.85 243.062 2243.86 245.261 Q2241.87 247.46 2241.87 251.256 L2241.87 265.909 L2237.59 265.909 L2237.59 239.983 L2241.87 239.983 L2241.87 244.011 Q2243.4 241.673 2245.46 240.515 Q2247.54 239.358 2250.25 239.358 Q2254.72 239.358 2257.01 242.136 Q2259.3 244.89 2259.3 250.261 Z" fill="#000000" fill-rule="nonzero" fill-opacity="1" /></svg>
