<?xml version="1.0" encoding="utf-8"?>
<svg xmlns="http://www.w3.org/2000/svg" xmlns:xlink="http://www.w3.org/1999/xlink" width="600" height="400" viewBox="0 0 2400 1600">
<defs>
  <clipPath id="clip700">
    <rect x="0" y="0" width="2400" height="1600"/>
  </clipPath>
</defs>
<path clip-path="url(#clip700)" d="M0 1600 L2400 1600 L2400 8.88178e-14 L0 8.88178e-14  Z" fill="#ffffff" fill-rule="evenodd" fill-opacity="1"/>
<defs>
  <clipPath id="clip701">
    <rect x="480" y="0" width="1681" height="1600"/>
  </clipPath>
</defs>
<path clip-path="url(#clip700)" d="M250.028 1423.18 L2352.76 1423.18 L2352.76 123.472 L250.028 123.472  Z" fill="#ffffff" fill-rule="evenodd" fill-opacity="1"/>
<defs>
  <clipPath id="clip702">
    <rect x="250" y="123" width="2104" height="1301"/>
  </clipPath>
</defs>
<polyline clip-path="url(#clip702)" style="stroke:#000000; stroke-linecap:round; stroke-linejoin:round; stroke-width:2; stroke-opacity:0.1; fill:none" points="426.228,1423.18 426.228,123.472 "/>
<polyline clip-path="url(#clip702)" style="stroke:#000000; stroke-linecap:round; stroke-linejoin:round; stroke-width:2; stroke-opacity:0.1; fill:none" points="659.605,1423.18 659.605,123.472 "/>
<polyline clip-path="url(#clip702)" style="stroke:#000000; stroke-linecap:round; stroke-linejoin:round; stroke-width:2; stroke-opacity:0.1; fill:none" points="892.982,1423.18 892.982,123.472 "/>
<polyline clip-path="url(#clip702)" style="stroke:#000000; stroke-linecap:round; stroke-linejoin:round; stroke-width:2; stroke-opacity:0.1; fill:none" points="1126.36,1423.18 1126.36,123.472 "/>
<polyline clip-path="url(#clip702)" style="stroke:#000000; stroke-linecap:round; stroke-linejoin:round; stroke-width:2; stroke-opacity:0.1; fill:none" points="1359.74,1423.18 1359.74,123.472 "/>
<polyline clip-path="url(#clip702)" style="stroke:#000000; stroke-linecap:round; stroke-linejoin:round; stroke-width:2; stroke-opacity:0.1; fill:none" points="1593.11,1423.18 1593.11,123.472 "/>
<polyline clip-path="url(#clip702)" style="stroke:#000000; stroke-linecap:round; stroke-linejoin:round; stroke-width:2; stroke-opacity:0.1; fill:none" points="1826.49,1423.18 1826.49,123.472 "/>
<polyline clip-path="url(#clip702)" style="stroke:#000000; stroke-linecap:round; stroke-linejoin:round; stroke-width:2; stroke-opacity:0.1; fill:none" points="2059.87,1423.18 2059.87,123.472 "/>
<polyline clip-path="url(#clip702)" style="stroke:#000000; stroke-linecap:round; stroke-linejoin:round; stroke-width:2; stroke-opacity:0.1; fill:none" points="2293.24,1423.18 2293.24,123.472 "/>
<polyline clip-path="url(#clip702)" style="stroke:#000000; stroke-linecap:round; stroke-linejoin:round; stroke-width:2; stroke-opacity:0.1; fill:none" points="250.028,1412.76 2352.76,1412.76 "/>
<polyline clip-path="url(#clip702)" style="stroke:#000000; stroke-linecap:round; stroke-linejoin:round; stroke-width:2; stroke-opacity:0.1; fill:none" points="250.028,1215.07 2352.76,1215.07 "/>
<polyline clip-path="url(#clip702)" style="stroke:#000000; stroke-linecap:round; stroke-linejoin:round; stroke-width:2; stroke-opacity:0.1; fill:none" points="250.028,1017.37 2352.76,1017.37 "/>
<polyline clip-path="url(#clip702)" style="stroke:#000000; stroke-linecap:round; stroke-linejoin:round; stroke-width:2; stroke-opacity:0.1; fill:none" points="250.028,819.669 2352.76,819.669 "/>
<polyline clip-path="url(#clip702)" style="stroke:#000000; stroke-linecap:round; stroke-linejoin:round; stroke-width:2; stroke-opacity:0.1; fill:none" points="250.028,621.97 2352.76,621.97 "/>
<polyline clip-path="url(#clip702)" style="stroke:#000000; stroke-linecap:round; stroke-linejoin:round; stroke-width:2; stroke-opacity:0.1; fill:none" points="250.028,424.272 2352.76,424.272 "/>
<polyline clip-path="url(#clip702)" style="stroke:#000000; stroke-linecap:round; stroke-linejoin:round; stroke-width:2; stroke-opacity:0.1; fill:none" points="250.028,226.573 2352.76,226.573 "/>
<polyline clip-path="url(#clip700)" style="stroke:#000000; stroke-linecap:round; stroke-linejoin:round; stroke-width:4; stroke-opacity:1; fill:none" points="250.028,1423.18 2352.76,1423.18 "/>
<polyline clip-path="url(#clip700)" style="stroke:#000000; stroke-linecap:round; stroke-linejoin:round; stroke-width:4; stroke-opacity:1; fill:none" points="426.228,1423.18 426.228,1404.28 "/>
<polyline clip-path="url(#clip700)" style="stroke:#000000; stroke-linecap:round; stroke-linejoin:round; stroke-width:4; stroke-opacity:1; fill:none" points="659.605,1423.18 659.605,1404.28 "/>
<polyline clip-path="url(#clip700)" style="stroke:#000000; stroke-linecap:round; stroke-linejoin:round; stroke-width:4; stroke-opacity:1; fill:none" points="892.982,1423.18 892.982,1404.28 "/>
<polyline clip-path="url(#clip700)" style="stroke:#000000; stroke-linecap:round; stroke-linejoin:round; stroke-width:4; stroke-opacity:1; fill:none" points="1126.36,1423.18 1126.36,1404.28 "/>
<polyline clip-path="url(#clip700)" style="stroke:#000000; stroke-linecap:round; stroke-linejoin:round; stroke-width:4; stroke-opacity:1; fill:none" points="1359.74,1423.18 1359.74,1404.28 "/>
<polyline clip-path="url(#clip700)" style="stroke:#000000; stroke-linecap:round; stroke-linejoin:round; stroke-width:4; stroke-opacity:1; fill:none" points="1593.11,1423.18 1593.11,1404.28 "/>
<polyline clip-path="url(#clip700)" style="stroke:#000000; stroke-linecap:round; stroke-linejoin:round; stroke-width:4; stroke-opacity:1; fill:none" points="1826.49,1423.18 1826.49,1404.28 "/>
<polyline clip-path="url(#clip700)" style="stroke:#000000; stroke-linecap:round; stroke-linejoin:round; stroke-width:4; stroke-opacity:1; fill:none" points="2059.87,1423.18 2059.87,1404.28 "/>
<polyline clip-path="url(#clip700)" style="stroke:#000000; stroke-linecap:round; stroke-linejoin:round; stroke-width:4; stroke-opacity:1; fill:none" points="2293.24,1423.18 2293.24,1404.28 "/>
<path clip-path="url(#clip700)" d="M429.237 1455.09 L417.432 1473.54 L429.237 1473.54 L429.237 1455.09 M428.01 1451.02 L433.89 1451.02 L433.89 1473.54 L438.82 1473.54 L438.82 1477.43 L433.89 1477.43 L433.89 1485.58 L429.237 1485.58 L429.237 1477.43 L413.635 1477.43 L413.635 1472.92 L428.01 1451.02 Z" fill="#000000" fill-rule="nonzero" fill-opacity="1" /><path clip-path="url(#clip700)" d="M660.01 1466.44 Q656.862 1466.44 655.01 1468.59 Q653.181 1470.74 653.181 1474.49 Q653.181 1478.22 655.01 1480.39 Q656.862 1482.55 660.01 1482.55 Q663.158 1482.55 664.987 1480.39 Q666.839 1478.22 666.839 1474.49 Q666.839 1470.74 664.987 1468.59 Q663.158 1466.44 660.01 1466.44 M669.292 1451.78 L669.292 1456.04 Q667.533 1455.21 665.728 1454.77 Q663.945 1454.33 662.186 1454.33 Q657.556 1454.33 655.103 1457.45 Q652.672 1460.58 652.325 1466.9 Q653.691 1464.89 655.751 1463.82 Q657.811 1462.73 660.288 1462.73 Q665.496 1462.73 668.505 1465.9 Q671.538 1469.05 671.538 1474.49 Q671.538 1479.82 668.39 1483.03 Q665.242 1486.25 660.01 1486.25 Q654.015 1486.25 650.843 1481.67 Q647.672 1477.06 647.672 1468.33 Q647.672 1460.14 651.561 1455.28 Q655.45 1450.39 662.001 1450.39 Q663.76 1450.39 665.542 1450.74 Q667.348 1451.09 669.292 1451.78 Z" fill="#000000" fill-rule="nonzero" fill-opacity="1" /><path clip-path="url(#clip700)" d="M892.982 1469.17 Q889.649 1469.17 887.727 1470.95 Q885.829 1472.73 885.829 1475.86 Q885.829 1478.98 887.727 1480.77 Q889.649 1482.55 892.982 1482.55 Q896.315 1482.55 898.237 1480.77 Q900.158 1478.96 900.158 1475.86 Q900.158 1472.73 898.237 1470.95 Q896.339 1469.17 892.982 1469.17 M888.306 1467.18 Q885.297 1466.44 883.607 1464.38 Q881.94 1462.32 881.94 1459.35 Q881.94 1455.21 884.88 1452.8 Q887.843 1450.39 892.982 1450.39 Q898.144 1450.39 901.084 1452.8 Q904.024 1455.21 904.024 1459.35 Q904.024 1462.32 902.334 1464.38 Q900.667 1466.44 897.681 1467.18 Q901.061 1467.96 902.936 1470.26 Q904.834 1472.55 904.834 1475.86 Q904.834 1480.88 901.755 1483.57 Q898.7 1486.25 892.982 1486.25 Q887.265 1486.25 884.186 1483.57 Q881.13 1480.88 881.13 1475.86 Q881.13 1472.55 883.028 1470.26 Q884.927 1467.96 888.306 1467.18 M886.593 1459.79 Q886.593 1462.48 888.26 1463.98 Q889.95 1465.49 892.982 1465.49 Q895.991 1465.49 897.681 1463.98 Q899.394 1462.48 899.394 1459.79 Q899.394 1457.11 897.681 1455.6 Q895.991 1454.1 892.982 1454.1 Q889.95 1454.1 888.26 1455.6 Q886.593 1457.11 886.593 1459.79 Z" fill="#000000" fill-rule="nonzero" fill-opacity="1" /><path clip-path="url(#clip700)" d="M1101.05 1481.64 L1108.69 1481.64 L1108.69 1455.28 L1100.38 1456.95 L1100.38 1452.69 L1108.64 1451.02 L1113.32 1451.02 L1113.32 1481.64 L1120.95 1481.64 L1120.95 1485.58 L1101.05 1485.58 L1101.05 1481.64 Z" fill="#000000" fill-rule="nonzero" fill-opacity="1" /><path clip-path="url(#clip700)" d="M1140.4 1454.1 Q1136.79 1454.1 1134.96 1457.66 Q1133.15 1461.2 1133.15 1468.33 Q1133.15 1475.44 1134.96 1479.01 Q1136.79 1482.55 1140.4 1482.55 Q1144.03 1482.55 1145.84 1479.01 Q1147.67 1475.44 1147.67 1468.33 Q1147.67 1461.2 1145.84 1457.66 Q1144.03 1454.1 1140.4 1454.1 M1140.4 1450.39 Q1146.21 1450.39 1149.26 1455 Q1152.34 1459.58 1152.34 1468.33 Q1152.34 1477.06 1149.26 1481.67 Q1146.21 1486.25 1140.4 1486.25 Q1134.59 1486.25 1131.51 1481.67 Q1128.45 1477.06 1128.45 1468.33 Q1128.45 1459.58 1131.51 1455 Q1134.59 1450.39 1140.4 1450.39 Z" fill="#000000" fill-rule="nonzero" fill-opacity="1" /><path clip-path="url(#clip700)" d="M1335.22 1481.64 L1342.86 1481.64 L1342.86 1455.28 L1334.55 1456.95 L1334.55 1452.69 L1342.82 1451.02 L1347.49 1451.02 L1347.49 1481.64 L1355.13 1481.64 L1355.13 1485.58 L1335.22 1485.58 L1335.22 1481.64 Z" fill="#000000" fill-rule="nonzero" fill-opacity="1" /><path clip-path="url(#clip700)" d="M1368.6 1481.64 L1384.92 1481.64 L1384.92 1485.58 L1362.98 1485.58 L1362.98 1481.64 Q1365.64 1478.89 1370.22 1474.26 Q1374.83 1469.61 1376.01 1468.27 Q1378.25 1465.74 1379.13 1464.01 Q1380.04 1462.25 1380.04 1460.56 Q1380.04 1457.8 1378.09 1456.07 Q1376.17 1454.33 1373.07 1454.33 Q1370.87 1454.33 1368.42 1455.09 Q1365.99 1455.86 1363.21 1457.41 L1363.21 1452.69 Q1366.03 1451.55 1368.49 1450.97 Q1370.94 1450.39 1372.98 1450.39 Q1378.35 1450.39 1381.54 1453.08 Q1384.74 1455.77 1384.74 1460.26 Q1384.74 1462.39 1383.93 1464.31 Q1383.14 1466.2 1381.03 1468.8 Q1380.45 1469.47 1377.35 1472.69 Q1374.25 1475.88 1368.6 1481.64 Z" fill="#000000" fill-rule="nonzero" fill-opacity="1" /><path clip-path="url(#clip700)" d="M1567.56 1481.64 L1575.2 1481.64 L1575.2 1455.28 L1566.89 1456.95 L1566.89 1452.69 L1575.15 1451.02 L1579.83 1451.02 L1579.83 1481.64 L1587.47 1481.64 L1587.47 1485.58 L1567.56 1485.58 L1567.56 1481.64 Z" fill="#000000" fill-rule="nonzero" fill-opacity="1" /><path clip-path="url(#clip700)" d="M1609.76 1455.09 L1597.95 1473.54 L1609.76 1473.54 L1609.76 1455.09 M1608.53 1451.02 L1614.41 1451.02 L1614.41 1473.54 L1619.34 1473.54 L1619.34 1477.43 L1614.41 1477.43 L1614.41 1485.58 L1609.76 1485.58 L1609.76 1477.43 L1594.16 1477.43 L1594.16 1472.92 L1608.53 1451.02 Z" fill="#000000" fill-rule="nonzero" fill-opacity="1" /><path clip-path="url(#clip700)" d="M1801.1 1481.64 L1808.74 1481.64 L1808.74 1455.28 L1800.43 1456.95 L1800.43 1452.69 L1808.69 1451.02 L1813.37 1451.02 L1813.37 1481.64 L1821 1481.64 L1821 1485.58 L1801.1 1485.58 L1801.1 1481.64 Z" fill="#000000" fill-rule="nonzero" fill-opacity="1" /><path clip-path="url(#clip700)" d="M1841.03 1466.44 Q1837.88 1466.44 1836.03 1468.59 Q1834.2 1470.74 1834.2 1474.49 Q1834.2 1478.22 1836.03 1480.39 Q1837.88 1482.55 1841.03 1482.55 Q1844.18 1482.55 1846 1480.39 Q1847.86 1478.22 1847.86 1474.49 Q1847.86 1470.74 1846 1468.59 Q1844.18 1466.44 1841.03 1466.44 M1850.31 1451.78 L1850.31 1456.04 Q1848.55 1455.21 1846.75 1454.77 Q1844.96 1454.33 1843.2 1454.33 Q1838.57 1454.33 1836.12 1457.45 Q1833.69 1460.58 1833.34 1466.9 Q1834.71 1464.89 1836.77 1463.82 Q1838.83 1462.73 1841.31 1462.73 Q1846.51 1462.73 1849.52 1465.9 Q1852.56 1469.05 1852.56 1474.49 Q1852.56 1479.82 1849.41 1483.03 Q1846.26 1486.25 1841.03 1486.25 Q1835.03 1486.25 1831.86 1481.67 Q1828.69 1477.06 1828.69 1468.33 Q1828.69 1460.14 1832.58 1455.28 Q1836.47 1450.39 1843.02 1450.39 Q1844.78 1450.39 1846.56 1450.74 Q1848.37 1451.09 1850.31 1451.78 Z" fill="#000000" fill-rule="nonzero" fill-opacity="1" /><path clip-path="url(#clip700)" d="M2034.6 1481.64 L2042.24 1481.64 L2042.24 1455.28 L2033.93 1456.95 L2033.93 1452.69 L2042.19 1451.02 L2046.87 1451.02 L2046.87 1481.64 L2054.51 1481.64 L2054.51 1485.58 L2034.6 1485.58 L2034.6 1481.64 Z" fill="#000000" fill-rule="nonzero" fill-opacity="1" /><path clip-path="url(#clip700)" d="M2073.95 1469.17 Q2070.62 1469.17 2068.7 1470.95 Q2066.8 1472.73 2066.8 1475.86 Q2066.8 1478.98 2068.7 1480.77 Q2070.62 1482.55 2073.95 1482.55 Q2077.29 1482.55 2079.21 1480.77 Q2081.13 1478.96 2081.13 1475.86 Q2081.13 1472.73 2079.21 1470.95 Q2077.31 1469.17 2073.95 1469.17 M2069.28 1467.18 Q2066.27 1466.44 2064.58 1464.38 Q2062.91 1462.32 2062.91 1459.35 Q2062.91 1455.21 2065.85 1452.8 Q2068.81 1450.39 2073.95 1450.39 Q2079.12 1450.39 2082.06 1452.8 Q2084.99 1455.21 2084.99 1459.35 Q2084.99 1462.32 2083.31 1464.38 Q2081.64 1466.44 2078.65 1467.18 Q2082.03 1467.96 2083.91 1470.26 Q2085.8 1472.55 2085.8 1475.86 Q2085.8 1480.88 2082.73 1483.57 Q2079.67 1486.25 2073.95 1486.25 Q2068.24 1486.25 2065.16 1483.57 Q2062.1 1480.88 2062.1 1475.86 Q2062.1 1472.55 2064 1470.26 Q2065.9 1467.96 2069.28 1467.18 M2067.56 1459.79 Q2067.56 1462.48 2069.23 1463.98 Q2070.92 1465.49 2073.95 1465.49 Q2076.96 1465.49 2078.65 1463.98 Q2080.37 1462.48 2080.37 1459.79 Q2080.37 1457.11 2078.65 1455.6 Q2076.96 1454.1 2073.95 1454.1 Q2070.92 1454.1 2069.23 1455.6 Q2067.56 1457.11 2067.56 1459.79 Z" fill="#000000" fill-rule="nonzero" fill-opacity="1" /><path clip-path="url(#clip700)" d="M2272.02 1481.64 L2288.34 1481.64 L2288.34 1485.58 L2266.39 1485.58 L2266.39 1481.64 Q2269.06 1478.89 2273.64 1474.26 Q2278.24 1469.61 2279.43 1468.27 Q2281.67 1465.74 2282.55 1464.01 Q2283.45 1462.25 2283.45 1460.56 Q2283.45 1457.8 2281.51 1456.07 Q2279.59 1454.33 2276.49 1454.33 Q2274.29 1454.33 2271.83 1455.09 Q2269.4 1455.86 2266.62 1457.41 L2266.62 1452.69 Q2269.45 1451.55 2271.9 1450.97 Q2274.36 1450.39 2276.39 1450.39 Q2281.76 1450.39 2284.96 1453.08 Q2288.15 1455.77 2288.15 1460.26 Q2288.15 1462.39 2287.34 1464.31 Q2286.55 1466.2 2284.45 1468.8 Q2283.87 1469.47 2280.77 1472.69 Q2277.67 1475.88 2272.02 1481.64 Z" fill="#000000" fill-rule="nonzero" fill-opacity="1" /><path clip-path="url(#clip700)" d="M2308.15 1454.1 Q2304.54 1454.1 2302.71 1457.66 Q2300.91 1461.2 2300.91 1468.33 Q2300.91 1475.44 2302.71 1479.01 Q2304.54 1482.55 2308.15 1482.55 Q2311.79 1482.55 2313.59 1479.01 Q2315.42 1475.44 2315.42 1468.33 Q2315.42 1461.2 2313.59 1457.66 Q2311.79 1454.1 2308.15 1454.1 M2308.15 1450.39 Q2313.96 1450.39 2317.02 1455 Q2320.1 1459.58 2320.1 1468.33 Q2320.1 1477.06 2317.02 1481.67 Q2313.96 1486.25 2308.15 1486.25 Q2302.34 1486.25 2299.26 1481.67 Q2296.21 1477.06 2296.21 1468.33 Q2296.21 1459.58 2299.26 1455 Q2302.34 1450.39 2308.15 1450.39 Z" fill="#000000" fill-rule="nonzero" fill-opacity="1" /><path clip-path="url(#clip700)" d="M1311.47 1537.81 L1311.47 1518.52 L1317.32 1518.52 L1317.32 1568.04 L1311.47 1568.04 L1311.47 1562.7 Q1309.62 1565.88 1306.79 1567.44 Q1303.99 1568.97 1300.04 1568.97 Q1293.58 1568.97 1289.5 1563.81 Q1285.46 1558.65 1285.46 1550.25 Q1285.46 1541.85 1289.5 1536.69 Q1293.58 1531.54 1300.04 1531.54 Q1303.99 1531.54 1306.79 1533.1 Q1309.62 1534.62 1311.47 1537.81 M1291.51 1550.25 Q1291.51 1556.71 1294.15 1560.4 Q1296.82 1564.07 1301.47 1564.07 Q1306.12 1564.07 1308.79 1560.4 Q1311.47 1556.71 1311.47 1550.25 Q1311.47 1543.79 1308.79 1540.13 Q1306.12 1536.44 1301.47 1536.44 Q1296.82 1536.44 1294.15 1540.13 Q1291.51 1543.79 1291.51 1550.25 Z" fill="#000000" fill-rule="nonzero" fill-opacity="1" /><polyline clip-path="url(#clip700)" style="stroke:#000000; stroke-linecap:round; stroke-linejoin:round; stroke-width:4; stroke-opacity:1; fill:none" points="250.028,1423.18 250.028,123.472 "/>
<polyline clip-path="url(#clip700)" style="stroke:#000000; stroke-linecap:round; stroke-linejoin:round; stroke-width:4; stroke-opacity:1; fill:none" points="250.028,1412.76 268.926,1412.76 "/>
<polyline clip-path="url(#clip700)" style="stroke:#000000; stroke-linecap:round; stroke-linejoin:round; stroke-width:4; stroke-opacity:1; fill:none" points="250.028,1215.07 268.926,1215.07 "/>
<polyline clip-path="url(#clip700)" style="stroke:#000000; stroke-linecap:round; stroke-linejoin:round; stroke-width:4; stroke-opacity:1; fill:none" points="250.028,1017.37 268.926,1017.37 "/>
<polyline clip-path="url(#clip700)" style="stroke:#000000; stroke-linecap:round; stroke-linejoin:round; stroke-width:4; stroke-opacity:1; fill:none" points="250.028,819.669 268.926,819.669 "/>
<polyline clip-path="url(#clip700)" style="stroke:#000000; stroke-linecap:round; stroke-linejoin:round; stroke-width:4; stroke-opacity:1; fill:none" points="250.028,621.97 268.926,621.97 "/>
<polyline clip-path="url(#clip700)" style="stroke:#000000; stroke-linecap:round; stroke-linejoin:round; stroke-width:4; stroke-opacity:1; fill:none" points="250.028,424.272 268.926,424.272 "/>
<polyline clip-path="url(#clip700)" style="stroke:#000000; stroke-linecap:round; stroke-linejoin:round; stroke-width:4; stroke-opacity:1; fill:none" points="250.028,226.573 268.926,226.573 "/>
<path clip-path="url(#clip700)" d="M126.691 1398.56 Q123.08 1398.56 121.251 1402.13 Q119.445 1405.67 119.445 1412.8 Q119.445 1419.91 121.251 1423.47 Q123.08 1427.01 126.691 1427.01 Q130.325 1427.01 132.13 1423.47 Q133.959 1419.91 133.959 1412.8 Q133.959 1405.67 132.13 1402.13 Q130.325 1398.56 126.691 1398.56 M126.691 1394.86 Q132.501 1394.86 135.556 1399.47 Q138.635 1404.05 138.635 1412.8 Q138.635 1421.53 135.556 1426.13 Q132.501 1430.72 126.691 1430.72 Q120.88 1430.72 117.802 1426.13 Q114.746 1421.53 114.746 1412.8 Q114.746 1404.05 117.802 1399.47 Q120.88 1394.86 126.691 1394.86 Z" fill="#000000" fill-rule="nonzero" fill-opacity="1" /><path clip-path="url(#clip700)" d="M146.853 1424.16 L151.737 1424.16 L151.737 1430.04 L146.853 1430.04 L146.853 1424.16 Z" fill="#000000" fill-rule="nonzero" fill-opacity="1" /><path clip-path="url(#clip700)" d="M171.922 1398.56 Q168.311 1398.56 166.482 1402.13 Q164.677 1405.67 164.677 1412.8 Q164.677 1419.91 166.482 1423.47 Q168.311 1427.01 171.922 1427.01 Q175.556 1427.01 177.362 1423.47 Q179.19 1419.91 179.19 1412.8 Q179.19 1405.67 177.362 1402.13 Q175.556 1398.56 171.922 1398.56 M171.922 1394.86 Q177.732 1394.86 180.788 1399.47 Q183.866 1404.05 183.866 1412.8 Q183.866 1421.53 180.788 1426.13 Q177.732 1430.72 171.922 1430.72 Q166.112 1430.72 163.033 1426.13 Q159.978 1421.53 159.978 1412.8 Q159.978 1404.05 163.033 1399.47 Q166.112 1394.86 171.922 1394.86 Z" fill="#000000" fill-rule="nonzero" fill-opacity="1" /><path clip-path="url(#clip700)" d="M202.084 1398.56 Q198.473 1398.56 196.644 1402.13 Q194.838 1405.67 194.838 1412.8 Q194.838 1419.91 196.644 1423.47 Q198.473 1427.01 202.084 1427.01 Q205.718 1427.01 207.524 1423.47 Q209.352 1419.91 209.352 1412.8 Q209.352 1405.67 207.524 1402.13 Q205.718 1398.56 202.084 1398.56 M202.084 1394.86 Q207.894 1394.86 210.949 1399.47 Q214.028 1404.05 214.028 1412.8 Q214.028 1421.53 210.949 1426.13 Q207.894 1430.72 202.084 1430.72 Q196.274 1430.72 193.195 1426.13 Q190.139 1421.53 190.139 1412.8 Q190.139 1404.05 193.195 1399.47 Q196.274 1394.86 202.084 1394.86 Z" fill="#000000" fill-rule="nonzero" fill-opacity="1" /><path clip-path="url(#clip700)" d="M128.288 1200.86 Q124.677 1200.86 122.848 1204.43 Q121.043 1207.97 121.043 1215.1 Q121.043 1222.21 122.848 1225.77 Q124.677 1229.31 128.288 1229.31 Q131.922 1229.31 133.728 1225.77 Q135.556 1222.21 135.556 1215.1 Q135.556 1207.97 133.728 1204.43 Q131.922 1200.86 128.288 1200.86 M128.288 1197.16 Q134.098 1197.16 137.154 1201.77 Q140.232 1206.35 140.232 1215.1 Q140.232 1223.83 137.154 1228.43 Q134.098 1233.02 128.288 1233.02 Q122.478 1233.02 119.399 1228.43 Q116.343 1223.83 116.343 1215.1 Q116.343 1206.35 119.399 1201.77 Q122.478 1197.16 128.288 1197.16 Z" fill="#000000" fill-rule="nonzero" fill-opacity="1" /><path clip-path="url(#clip700)" d="M148.45 1226.47 L153.334 1226.47 L153.334 1232.35 L148.45 1232.35 L148.45 1226.47 Z" fill="#000000" fill-rule="nonzero" fill-opacity="1" /><path clip-path="url(#clip700)" d="M173.519 1200.86 Q169.908 1200.86 168.079 1204.43 Q166.274 1207.97 166.274 1215.1 Q166.274 1222.21 168.079 1225.77 Q169.908 1229.31 173.519 1229.31 Q177.153 1229.31 178.959 1225.77 Q180.788 1222.21 180.788 1215.1 Q180.788 1207.97 178.959 1204.43 Q177.153 1200.86 173.519 1200.86 M173.519 1197.16 Q179.329 1197.16 182.385 1201.77 Q185.463 1206.35 185.463 1215.1 Q185.463 1223.83 182.385 1228.43 Q179.329 1233.02 173.519 1233.02 Q167.709 1233.02 164.63 1228.43 Q161.575 1223.83 161.575 1215.1 Q161.575 1206.35 164.63 1201.77 Q167.709 1197.16 173.519 1197.16 Z" fill="#000000" fill-rule="nonzero" fill-opacity="1" /><path clip-path="url(#clip700)" d="M197.709 1228.41 L214.028 1228.41 L214.028 1232.35 L192.084 1232.35 L192.084 1228.41 Q194.746 1225.66 199.329 1221.03 Q203.936 1216.37 205.116 1215.03 Q207.362 1212.51 208.241 1210.77 Q209.144 1209.01 209.144 1207.32 Q209.144 1204.57 207.199 1202.83 Q205.278 1201.1 202.176 1201.1 Q199.977 1201.1 197.524 1201.86 Q195.093 1202.62 192.315 1204.17 L192.315 1199.45 Q195.139 1198.32 197.593 1197.74 Q200.047 1197.16 202.084 1197.16 Q207.454 1197.16 210.649 1199.85 Q213.843 1202.53 213.843 1207.02 Q213.843 1209.15 213.033 1211.07 Q212.246 1212.97 210.139 1215.56 Q209.561 1216.23 206.459 1219.45 Q203.357 1222.65 197.709 1228.41 Z" fill="#000000" fill-rule="nonzero" fill-opacity="1" /><path clip-path="url(#clip700)" d="M126.205 1003.17 Q122.593 1003.17 120.765 1006.73 Q118.959 1010.27 118.959 1017.4 Q118.959 1024.51 120.765 1028.07 Q122.593 1031.61 126.205 1031.61 Q129.839 1031.61 131.644 1028.07 Q133.473 1024.51 133.473 1017.4 Q133.473 1010.27 131.644 1006.73 Q129.839 1003.17 126.205 1003.17 M126.205 999.462 Q132.015 999.462 135.07 1004.07 Q138.149 1008.65 138.149 1017.4 Q138.149 1026.13 135.07 1030.74 Q132.015 1035.32 126.205 1035.32 Q120.394 1035.32 117.316 1030.74 Q114.26 1026.13 114.26 1017.4 Q114.26 1008.65 117.316 1004.07 Q120.394 999.462 126.205 999.462 Z" fill="#000000" fill-rule="nonzero" fill-opacity="1" /><path clip-path="url(#clip700)" d="M146.366 1028.77 L151.251 1028.77 L151.251 1034.65 L146.366 1034.65 L146.366 1028.77 Z" fill="#000000" fill-rule="nonzero" fill-opacity="1" /><path clip-path="url(#clip700)" d="M171.436 1003.17 Q167.825 1003.17 165.996 1006.73 Q164.19 1010.27 164.19 1017.4 Q164.19 1024.51 165.996 1028.07 Q167.825 1031.61 171.436 1031.61 Q175.07 1031.61 176.876 1028.07 Q178.704 1024.51 178.704 1017.4 Q178.704 1010.27 176.876 1006.73 Q175.07 1003.17 171.436 1003.17 M171.436 999.462 Q177.246 999.462 180.301 1004.07 Q183.38 1008.65 183.38 1017.4 Q183.38 1026.13 180.301 1030.74 Q177.246 1035.32 171.436 1035.32 Q165.626 1035.32 162.547 1030.74 Q159.491 1026.13 159.491 1017.4 Q159.491 1008.65 162.547 1004.07 Q165.626 999.462 171.436 999.462 Z" fill="#000000" fill-rule="nonzero" fill-opacity="1" /><path clip-path="url(#clip700)" d="M204.445 1004.16 L192.639 1022.61 L204.445 1022.61 L204.445 1004.16 M203.218 1000.09 L209.098 1000.09 L209.098 1022.61 L214.028 1022.61 L214.028 1026.5 L209.098 1026.5 L209.098 1034.65 L204.445 1034.65 L204.445 1026.5 L188.843 1026.5 L188.843 1021.99 L203.218 1000.09 Z" fill="#000000" fill-rule="nonzero" fill-opacity="1" /><path clip-path="url(#clip700)" d="M126.529 805.467 Q122.918 805.467 121.089 809.032 Q119.283 812.574 119.283 819.704 Q119.283 826.81 121.089 830.375 Q122.918 833.916 126.529 833.916 Q130.163 833.916 131.968 830.375 Q133.797 826.81 133.797 819.704 Q133.797 812.574 131.968 809.032 Q130.163 805.467 126.529 805.467 M126.529 801.764 Q132.339 801.764 135.394 806.37 Q138.473 810.954 138.473 819.704 Q138.473 828.43 135.394 833.037 Q132.339 837.62 126.529 837.62 Q120.718 837.62 117.64 833.037 Q114.584 828.43 114.584 819.704 Q114.584 810.954 117.64 806.37 Q120.718 801.764 126.529 801.764 Z" fill="#000000" fill-rule="nonzero" fill-opacity="1" /><path clip-path="url(#clip700)" d="M146.691 831.069 L151.575 831.069 L151.575 836.949 L146.691 836.949 L146.691 831.069 Z" fill="#000000" fill-rule="nonzero" fill-opacity="1" /><path clip-path="url(#clip700)" d="M171.76 805.467 Q168.149 805.467 166.32 809.032 Q164.515 812.574 164.515 819.704 Q164.515 826.81 166.32 830.375 Q168.149 833.916 171.76 833.916 Q175.394 833.916 177.2 830.375 Q179.028 826.81 179.028 819.704 Q179.028 812.574 177.2 809.032 Q175.394 805.467 171.76 805.467 M171.76 801.764 Q177.57 801.764 180.626 806.37 Q183.704 810.954 183.704 819.704 Q183.704 828.43 180.626 833.037 Q177.57 837.62 171.76 837.62 Q165.95 837.62 162.871 833.037 Q159.815 828.43 159.815 819.704 Q159.815 810.954 162.871 806.37 Q165.95 801.764 171.76 801.764 Z" fill="#000000" fill-rule="nonzero" fill-opacity="1" /><path clip-path="url(#clip700)" d="M202.5 817.805 Q199.352 817.805 197.5 819.958 Q195.672 822.111 195.672 825.861 Q195.672 829.588 197.5 831.764 Q199.352 833.916 202.5 833.916 Q205.649 833.916 207.477 831.764 Q209.329 829.588 209.329 825.861 Q209.329 822.111 207.477 819.958 Q205.649 817.805 202.5 817.805 M211.783 803.153 L211.783 807.412 Q210.024 806.579 208.218 806.139 Q206.436 805.699 204.676 805.699 Q200.047 805.699 197.593 808.824 Q195.163 811.949 194.815 818.268 Q196.181 816.254 198.241 815.19 Q200.301 814.102 202.778 814.102 Q207.987 814.102 210.996 817.273 Q214.028 820.421 214.028 825.861 Q214.028 831.185 210.88 834.402 Q207.732 837.62 202.5 837.62 Q196.505 837.62 193.334 833.037 Q190.163 828.43 190.163 819.704 Q190.163 811.509 194.051 806.648 Q197.94 801.764 204.491 801.764 Q206.25 801.764 208.033 802.111 Q209.838 802.458 211.783 803.153 Z" fill="#000000" fill-rule="nonzero" fill-opacity="1" /><path clip-path="url(#clip700)" d="M126.783 607.769 Q123.172 607.769 121.343 611.334 Q119.538 614.875 119.538 622.005 Q119.538 629.111 121.343 632.676 Q123.172 636.218 126.783 636.218 Q130.417 636.218 132.223 632.676 Q134.052 629.111 134.052 622.005 Q134.052 614.875 132.223 611.334 Q130.417 607.769 126.783 607.769 M126.783 604.065 Q132.593 604.065 135.649 608.672 Q138.728 613.255 138.728 622.005 Q138.728 630.732 135.649 635.338 Q132.593 639.922 126.783 639.922 Q120.973 639.922 117.894 635.338 Q114.839 630.732 114.839 622.005 Q114.839 613.255 117.894 608.672 Q120.973 604.065 126.783 604.065 Z" fill="#000000" fill-rule="nonzero" fill-opacity="1" /><path clip-path="url(#clip700)" d="M146.945 633.371 L151.829 633.371 L151.829 639.25 L146.945 639.25 L146.945 633.371 Z" fill="#000000" fill-rule="nonzero" fill-opacity="1" /><path clip-path="url(#clip700)" d="M172.014 607.769 Q168.403 607.769 166.575 611.334 Q164.769 614.875 164.769 622.005 Q164.769 629.111 166.575 632.676 Q168.403 636.218 172.014 636.218 Q175.649 636.218 177.454 632.676 Q179.283 629.111 179.283 622.005 Q179.283 614.875 177.454 611.334 Q175.649 607.769 172.014 607.769 M172.014 604.065 Q177.825 604.065 180.88 608.672 Q183.959 613.255 183.959 622.005 Q183.959 630.732 180.88 635.338 Q177.825 639.922 172.014 639.922 Q166.204 639.922 163.126 635.338 Q160.07 630.732 160.07 622.005 Q160.07 613.255 163.126 608.672 Q166.204 604.065 172.014 604.065 Z" fill="#000000" fill-rule="nonzero" fill-opacity="1" /><path clip-path="url(#clip700)" d="M202.176 622.838 Q198.843 622.838 196.922 624.621 Q195.024 626.403 195.024 629.528 Q195.024 632.653 196.922 634.435 Q198.843 636.218 202.176 636.218 Q205.51 636.218 207.431 634.435 Q209.352 632.63 209.352 629.528 Q209.352 626.403 207.431 624.621 Q205.533 622.838 202.176 622.838 M197.5 620.848 Q194.491 620.107 192.801 618.047 Q191.135 615.987 191.135 613.024 Q191.135 608.88 194.075 606.473 Q197.037 604.065 202.176 604.065 Q207.338 604.065 210.278 606.473 Q213.218 608.88 213.218 613.024 Q213.218 615.987 211.528 618.047 Q209.861 620.107 206.875 620.848 Q210.255 621.635 212.13 623.926 Q214.028 626.218 214.028 629.528 Q214.028 634.551 210.949 637.236 Q207.894 639.922 202.176 639.922 Q196.459 639.922 193.38 637.236 Q190.325 634.551 190.325 629.528 Q190.325 626.218 192.223 623.926 Q194.121 621.635 197.5 620.848 M195.787 613.463 Q195.787 616.149 197.454 617.653 Q199.144 619.158 202.176 619.158 Q205.186 619.158 206.875 617.653 Q208.588 616.149 208.588 613.463 Q208.588 610.778 206.875 609.274 Q205.186 607.769 202.176 607.769 Q199.144 607.769 197.454 609.274 Q195.787 610.778 195.787 613.463 Z" fill="#000000" fill-rule="nonzero" fill-opacity="1" /><path clip-path="url(#clip700)" d="M126.691 410.07 Q123.08 410.07 121.251 413.635 Q119.445 417.177 119.445 424.307 Q119.445 431.413 121.251 434.978 Q123.08 438.519 126.691 438.519 Q130.325 438.519 132.13 434.978 Q133.959 431.413 133.959 424.307 Q133.959 417.177 132.13 413.635 Q130.325 410.07 126.691 410.07 M126.691 406.367 Q132.501 406.367 135.556 410.973 Q138.635 415.557 138.635 424.307 Q138.635 433.033 135.556 437.64 Q132.501 442.223 126.691 442.223 Q120.88 442.223 117.802 437.64 Q114.746 433.033 114.746 424.307 Q114.746 415.557 117.802 410.973 Q120.88 406.367 126.691 406.367 Z" fill="#000000" fill-rule="nonzero" fill-opacity="1" /><path clip-path="url(#clip700)" d="M146.853 435.672 L151.737 435.672 L151.737 441.552 L146.853 441.552 L146.853 435.672 Z" fill="#000000" fill-rule="nonzero" fill-opacity="1" /><path clip-path="url(#clip700)" d="M162.732 437.617 L170.371 437.617 L170.371 411.251 L162.061 412.918 L162.061 408.658 L170.325 406.992 L175.001 406.992 L175.001 437.617 L182.639 437.617 L182.639 441.552 L162.732 441.552 L162.732 437.617 Z" fill="#000000" fill-rule="nonzero" fill-opacity="1" /><path clip-path="url(#clip700)" d="M202.084 410.07 Q198.473 410.07 196.644 413.635 Q194.838 417.177 194.838 424.307 Q194.838 431.413 196.644 434.978 Q198.473 438.519 202.084 438.519 Q205.718 438.519 207.524 434.978 Q209.352 431.413 209.352 424.307 Q209.352 417.177 207.524 413.635 Q205.718 410.07 202.084 410.07 M202.084 406.367 Q207.894 406.367 210.949 410.973 Q214.028 415.557 214.028 424.307 Q214.028 433.033 210.949 437.64 Q207.894 442.223 202.084 442.223 Q196.274 442.223 193.195 437.64 Q190.139 433.033 190.139 424.307 Q190.139 415.557 193.195 410.973 Q196.274 406.367 202.084 406.367 Z" fill="#000000" fill-rule="nonzero" fill-opacity="1" /><path clip-path="url(#clip700)" d="M128.288 212.372 Q124.677 212.372 122.848 215.937 Q121.043 219.478 121.043 226.608 Q121.043 233.714 122.848 237.279 Q124.677 240.821 128.288 240.821 Q131.922 240.821 133.728 237.279 Q135.556 233.714 135.556 226.608 Q135.556 219.478 133.728 215.937 Q131.922 212.372 128.288 212.372 M128.288 208.668 Q134.098 208.668 137.154 213.275 Q140.232 217.858 140.232 226.608 Q140.232 235.335 137.154 239.941 Q134.098 244.525 128.288 244.525 Q122.478 244.525 119.399 239.941 Q116.343 235.335 116.343 226.608 Q116.343 217.858 119.399 213.275 Q122.478 208.668 128.288 208.668 Z" fill="#000000" fill-rule="nonzero" fill-opacity="1" /><path clip-path="url(#clip700)" d="M148.45 237.974 L153.334 237.974 L153.334 243.853 L148.45 243.853 L148.45 237.974 Z" fill="#000000" fill-rule="nonzero" fill-opacity="1" /><path clip-path="url(#clip700)" d="M164.329 239.918 L171.968 239.918 L171.968 213.553 L163.658 215.219 L163.658 210.96 L171.922 209.293 L176.598 209.293 L176.598 239.918 L184.237 239.918 L184.237 243.853 L164.329 243.853 L164.329 239.918 Z" fill="#000000" fill-rule="nonzero" fill-opacity="1" /><path clip-path="url(#clip700)" d="M197.709 239.918 L214.028 239.918 L214.028 243.853 L192.084 243.853 L192.084 239.918 Q194.746 237.164 199.329 232.534 Q203.936 227.881 205.116 226.539 Q207.362 224.015 208.241 222.279 Q209.144 220.52 209.144 218.83 Q209.144 216.076 207.199 214.34 Q205.278 212.603 202.176 212.603 Q199.977 212.603 197.524 213.367 Q195.093 214.131 192.315 215.682 L192.315 210.96 Q195.139 209.826 197.593 209.247 Q200.047 208.668 202.084 208.668 Q207.454 208.668 210.649 211.353 Q213.843 214.039 213.843 218.529 Q213.843 220.659 213.033 222.58 Q212.246 224.478 210.139 227.071 Q209.561 227.742 206.459 230.96 Q203.357 234.154 197.709 239.918 Z" fill="#000000" fill-rule="nonzero" fill-opacity="1" /><path clip-path="url(#clip700)" d="M16.4842 1162.78 L16.4842 1153.2 L48.8219 1141.07 L16.4842 1128.88 L16.4842 1119.3 L64.0042 1119.3 L64.0042 1125.57 L22.277 1125.57 L54.8694 1137.83 L54.8694 1144.29 L22.277 1156.54 L64.0042 1156.54 L64.0042 1162.78 L16.4842 1162.78 Z" fill="#000000" fill-rule="nonzero" fill-opacity="1" /><path clip-path="url(#clip700)" d="M44.7161 1076.3 L47.5806 1076.3 L47.5806 1103.23 Q53.6281 1102.85 56.8109 1099.6 Q59.9619 1096.32 59.9619 1090.5 Q59.9619 1087.12 59.1344 1083.97 Q58.3069 1080.79 56.6518 1077.67 L62.1899 1077.67 Q63.5267 1080.82 64.227 1084.13 Q64.9272 1087.44 64.9272 1090.85 Q64.9272 1099.38 59.9619 1104.37 Q54.9967 1109.34 46.5303 1109.34 Q37.7774 1109.34 32.6531 1104.63 Q27.4968 1099.89 27.4968 1091.87 Q27.4968 1084.67 32.1438 1080.5 Q36.7589 1076.3 44.7161 1076.3 M42.9973 1082.16 Q38.1912 1082.22 35.3266 1084.86 Q32.4621 1087.47 32.4621 1091.8 Q32.4621 1096.7 35.2312 1099.66 Q38.0002 1102.59 43.0292 1103.04 L42.9973 1082.16 Z" fill="#000000" fill-rule="nonzero" fill-opacity="1" /><path clip-path="url(#clip700)" d="M33.7671 1043.23 L14.479 1043.23 L14.479 1037.38 L64.0042 1037.38 L64.0042 1043.23 L58.657 1043.23 Q61.8398 1045.08 63.3994 1047.91 Q64.9272 1050.71 64.9272 1054.66 Q64.9272 1061.12 59.771 1065.19 Q54.6147 1069.24 46.212 1069.24 Q37.8093 1069.24 32.6531 1065.19 Q27.4968 1061.12 27.4968 1054.66 Q27.4968 1050.71 29.0564 1047.91 Q30.5842 1045.08 33.7671 1043.23 M46.212 1063.19 Q52.6732 1063.19 56.3653 1060.55 Q60.0256 1057.87 60.0256 1053.23 Q60.0256 1048.58 56.3653 1045.91 Q52.6732 1043.23 46.212 1043.23 Q39.7508 1043.23 36.0905 1045.91 Q32.3984 1048.58 32.3984 1053.23 Q32.3984 1057.87 36.0905 1060.55 Q39.7508 1063.19 46.212 1063.19 Z" fill="#000000" fill-rule="nonzero" fill-opacity="1" /><path clip-path="url(#clip700)" d="M28.3562 1025.31 L28.3562 1019.46 L64.0042 1019.46 L64.0042 1025.31 L28.3562 1025.31 M14.479 1025.31 L14.479 1019.46 L21.895 1019.46 L21.895 1025.31 L14.479 1025.31 Z" fill="#000000" fill-rule="nonzero" fill-opacity="1" /><path clip-path="url(#clip700)" d="M46.0847 991.001 Q46.0847 998.099 47.7079 1000.84 Q49.3312 1003.57 53.2461 1003.57 Q56.3653 1003.57 58.2114 1001.54 Q60.0256 999.468 60.0256 995.935 Q60.0256 991.065 56.5881 988.137 Q53.1188 985.177 47.3897 985.177 L46.0847 985.177 L46.0847 991.001 M43.6657 979.32 L64.0042 979.32 L64.0042 985.177 L58.5933 985.177 Q61.8398 987.182 63.3994 990.174 Q64.9272 993.166 64.9272 997.494 Q64.9272 1002.97 61.8716 1006.22 Q58.7843 1009.43 53.6281 1009.43 Q47.6125 1009.43 44.5569 1005.42 Q41.5014 1001.38 41.5014 993.388 L41.5014 985.177 L40.9285 985.177 Q36.8862 985.177 34.6901 987.85 Q32.4621 990.492 32.4621 995.298 Q32.4621 998.354 33.1941 1001.25 Q33.9262 1004.15 35.3903 1006.82 L29.9795 1006.82 Q28.7381 1003.61 28.1334 1000.58 Q27.4968 997.558 27.4968 994.693 Q27.4968 986.959 31.5072 983.14 Q35.5176 979.32 43.6657 979.32 Z" fill="#000000" fill-rule="nonzero" fill-opacity="1" /><path clip-path="url(#clip700)" d="M42.4881 937.625 L64.0042 937.625 L64.0042 943.481 L42.679 943.481 Q37.6183 943.481 35.1038 945.455 Q32.5894 947.428 32.5894 951.375 Q32.5894 956.117 35.6131 958.855 Q38.6368 961.592 43.8567 961.592 L64.0042 961.592 L64.0042 967.48 L28.3562 967.48 L28.3562 961.592 L33.8944 961.592 Q30.6797 959.491 29.0883 956.658 Q27.4968 953.794 27.4968 950.07 Q27.4968 943.927 31.3163 940.776 Q35.1038 937.625 42.4881 937.625 Z" fill="#000000" fill-rule="nonzero" fill-opacity="1" /><path clip-path="url(#clip700)" d="M16.4842 904.969 L16.4842 874.923 L21.895 874.923 L21.895 898.539 L35.9632 898.539 L35.9632 875.909 L41.3741 875.909 L41.3741 898.539 L58.5933 898.539 L58.5933 874.35 L64.0042 874.35 L64.0042 904.969 L16.4842 904.969 Z" fill="#000000" fill-rule="nonzero" fill-opacity="1" /><path clip-path="url(#clip700)" d="M33.8307 843.381 Q33.2578 844.367 33.0032 845.545 Q32.7167 846.691 32.7167 848.091 Q32.7167 853.056 35.9632 855.73 Q39.1779 858.372 45.2253 858.372 L64.0042 858.372 L64.0042 864.26 L28.3562 864.26 L28.3562 858.372 L33.8944 858.372 Q30.6479 856.526 29.0883 853.566 Q27.4968 850.606 27.4968 846.372 Q27.4968 845.768 27.5923 845.036 Q27.656 844.304 27.8151 843.412 L33.8307 843.381 Z" fill="#000000" fill-rule="nonzero" fill-opacity="1" /><path clip-path="url(#clip700)" d="M33.8307 817.727 Q33.2578 818.713 33.0032 819.891 Q32.7167 821.037 32.7167 822.437 Q32.7167 827.403 35.9632 830.076 Q39.1779 832.718 45.2253 832.718 L64.0042 832.718 L64.0042 838.606 L28.3562 838.606 L28.3562 832.718 L33.8944 832.718 Q30.6479 830.872 29.0883 827.912 Q27.4968 824.952 27.4968 820.719 Q27.4968 820.114 27.5923 819.382 Q27.656 818.65 27.8151 817.759 L33.8307 817.727 Z" fill="#000000" fill-rule="nonzero" fill-opacity="1" /><path clip-path="url(#clip700)" d="M32.4621 799.203 Q32.4621 803.913 36.1542 806.65 Q39.8145 809.388 46.212 809.388 Q52.6095 809.388 56.3017 806.682 Q59.9619 803.945 59.9619 799.203 Q59.9619 794.524 56.2698 791.787 Q52.5777 789.049 46.212 789.049 Q39.8781 789.049 36.186 791.787 Q32.4621 794.524 32.4621 799.203 M27.4968 799.203 Q27.4968 791.564 32.4621 787.203 Q37.4273 782.843 46.212 782.843 Q54.9649 782.843 59.9619 787.203 Q64.9272 791.564 64.9272 799.203 Q64.9272 806.873 59.9619 811.234 Q54.9649 815.562 46.212 815.562 Q37.4273 815.562 32.4621 811.234 Q27.4968 806.873 27.4968 799.203 Z" fill="#000000" fill-rule="nonzero" fill-opacity="1" /><path clip-path="url(#clip700)" d="M33.8307 752.478 Q33.2578 753.465 33.0032 754.643 Q32.7167 755.788 32.7167 757.189 Q32.7167 762.154 35.9632 764.828 Q39.1779 767.47 45.2253 767.47 L64.0042 767.47 L64.0042 773.358 L28.3562 773.358 L28.3562 767.47 L33.8944 767.47 Q30.6479 765.623 29.0883 762.663 Q27.4968 759.703 27.4968 755.47 Q27.4968 754.865 27.5923 754.133 Q27.656 753.401 27.8151 752.51 L33.8307 752.478 Z" fill="#000000" fill-rule="nonzero" fill-opacity="1" /><path clip-path="url(#clip700)" d="M28.3562 695.983 L45.7028 708.873 L64.0042 695.314 L64.0042 702.221 L49.9996 712.597 L64.0042 722.973 L64.0042 729.88 L45.3526 716.035 L28.3562 728.702 L28.3562 721.796 L41.0558 712.343 L28.3562 702.889 L28.3562 695.983 Z" fill="#000000" fill-rule="nonzero" fill-opacity="1" /><path clip-path="url(#clip700)" d="M16.4842 681.501 L34.149 681.501 L34.149 686.912 L16.4842 686.912 L16.4842 681.501 Z" fill="#000000" fill-rule="nonzero" fill-opacity="1" /><path clip-path="url(#clip700)" d="M44.0477 643.625 Q46.403 643.402 50.2224 641.397 Q54.6466 639.041 57.1292 634.585 Q59.5482 630.225 59.58 625.514 L59.58 603.33 L64.6407 603.33 L64.6407 625.514 Q64.6407 631.625 61.4897 637.291 Q58.3387 642.924 52.7369 645.948 Q47.135 648.972 41.1831 648.972 Q35.2948 648.972 29.693 645.948 Q24.0912 642.924 20.9083 637.291 Q17.7255 631.625 17.7255 625.514 L17.7255 603.33 L22.7862 603.33 L22.7862 625.514 Q22.818 630.225 25.2688 634.585 Q27.7833 639.01 32.1756 641.397 Q35.995 643.434 38.9551 643.72 L38.9551 603.33 L44.0477 603.33 L44.0477 643.625 Z" fill="#000000" fill-rule="nonzero" fill-opacity="1" /><path clip-path="url(#clip700)" d="M14.479 571.438 L14.479 557.942 L19.0304 557.942 L19.0304 565.581 L68.0464 565.581 L68.0464 557.942 L72.5979 557.942 L72.5979 571.438 L14.479 571.438 Z" fill="#000000" fill-rule="nonzero" fill-opacity="1" /><path clip-path="url(#clip700)" d="M43.5384 548.426 L43.5384 531.27 L48.7583 531.27 L48.7583 548.426 L43.5384 548.426 Z" fill="#000000" fill-rule="nonzero" fill-opacity="1" /><path clip-path="url(#clip700)" d="M58.5933 520.003 L58.5933 509.499 L22.3406 509.499 L24.6323 520.926 L18.7758 520.926 L16.4842 509.563 L16.4842 503.134 L58.5933 503.134 L58.5933 492.63 L64.0042 492.63 L64.0042 520.003 L58.5933 520.003 Z" fill="#000000" fill-rule="nonzero" fill-opacity="1" /><path clip-path="url(#clip700)" d="M55.9197 478.976 L55.9197 472.26 L61.3942 472.26 L71.5793 477.48 L71.5793 481.586 L61.3942 478.976 L55.9197 478.976 Z" fill="#000000" fill-rule="nonzero" fill-opacity="1" /><path clip-path="url(#clip700)" d="M58.5933 437.089 L58.5933 426.586 L22.3406 426.586 L24.6323 438.012 L18.7758 438.012 L16.4842 426.65 L16.4842 420.22 L58.5933 420.22 L58.5933 409.717 L64.0042 409.717 L64.0042 437.089 L58.5933 437.089 Z" fill="#000000" fill-rule="nonzero" fill-opacity="1" /><path clip-path="url(#clip700)" d="M14.479 383.872 L72.5979 383.872 L72.5979 397.367 L68.0464 397.367 L68.0464 389.76 L19.0304 389.76 L19.0304 397.367 L14.479 397.367 L14.479 383.872 Z" fill="#000000" fill-rule="nonzero" fill-opacity="1" /><path clip-path="url(#clip700)" d="M664.246 12.096 L672.428 12.096 L672.428 65.6895 L701.878 65.6895 L701.878 72.576 L664.246 72.576 L664.246 12.096 Z" fill="#000000" fill-rule="nonzero" fill-opacity="1" /><path clip-path="url(#clip700)" d="M747.492 48.0275 L747.492 51.6733 L713.221 51.6733 Q713.707 59.3701 717.839 63.421 Q722.011 67.4314 729.425 67.4314 Q733.719 67.4314 737.729 66.3781 Q741.78 65.3249 745.75 63.2184 L745.75 70.267 Q741.739 71.9684 737.526 72.8596 Q733.313 73.7508 728.979 73.7508 Q718.123 73.7508 711.763 67.4314 Q705.443 61.1119 705.443 50.3365 Q705.443 39.1965 711.439 32.6746 Q717.474 26.1121 727.683 26.1121 Q736.838 26.1121 742.144 32.0264 Q747.492 37.9003 747.492 48.0275 M740.038 45.84 Q739.957 39.7232 736.595 36.0774 Q733.273 32.4315 727.764 32.4315 Q721.525 32.4315 717.758 35.9558 Q714.031 39.4801 713.464 45.8805 L740.038 45.84 Z" fill="#000000" fill-rule="nonzero" fill-opacity="1" /><path clip-path="url(#clip700)" d="M789.581 49.3643 Q789.581 41.2625 786.218 36.8065 Q782.897 32.3505 776.861 32.3505 Q770.865 32.3505 767.503 36.8065 Q764.181 41.2625 764.181 49.3643 Q764.181 57.4256 767.503 61.8816 Q770.865 66.3376 776.861 66.3376 Q782.897 66.3376 786.218 61.8816 Q789.581 57.4256 789.581 49.3643 M797.034 66.9452 Q797.034 78.5308 791.89 84.1616 Q786.745 89.8329 776.132 89.8329 Q772.202 89.8329 768.718 89.2252 Q765.235 88.6581 761.953 87.4428 L761.953 80.1917 Q765.235 81.9741 768.435 82.8248 Q771.635 83.6755 774.957 83.6755 Q782.289 83.6755 785.935 79.8271 Q789.581 76.0193 789.581 68.282 L789.581 64.5957 Q787.272 68.6061 783.666 70.5911 Q780.061 72.576 775.038 72.576 Q766.693 72.576 761.589 66.2161 Q756.485 59.8562 756.485 49.3643 Q756.485 38.832 761.589 32.472 Q766.693 26.1121 775.038 26.1121 Q780.061 26.1121 783.666 28.0971 Q787.272 30.082 789.581 34.0924 L789.581 27.2059 L797.034 27.2059 L797.034 66.9452 Z" fill="#000000" fill-rule="nonzero" fill-opacity="1" /><path clip-path="url(#clip700)" d="M851.195 48.0275 L851.195 51.6733 L816.924 51.6733 Q817.41 59.3701 821.542 63.421 Q825.715 67.4314 833.128 67.4314 Q837.422 67.4314 841.432 66.3781 Q845.483 65.3249 849.453 63.2184 L849.453 70.267 Q845.442 71.9684 841.23 72.8596 Q837.017 73.7508 832.682 73.7508 Q821.826 73.7508 815.466 67.4314 Q809.146 61.1119 809.146 50.3365 Q809.146 39.1965 815.142 32.6746 Q821.178 26.1121 831.386 26.1121 Q840.541 26.1121 845.848 32.0264 Q851.195 37.9003 851.195 48.0275 M843.741 45.84 Q843.66 39.7232 840.298 36.0774 Q836.976 32.4315 831.467 32.4315 Q825.228 32.4315 821.461 35.9558 Q817.734 39.4801 817.167 45.8805 L843.741 45.84 Z" fill="#000000" fill-rule="nonzero" fill-opacity="1" /><path clip-path="url(#clip700)" d="M901.142 45.1919 L901.142 72.576 L893.689 72.576 L893.689 45.4349 Q893.689 38.994 891.177 35.7938 Q888.666 32.5936 883.643 32.5936 Q877.607 32.5936 874.123 36.4419 Q870.639 40.2903 870.639 46.9338 L870.639 72.576 L863.145 72.576 L863.145 27.2059 L870.639 27.2059 L870.639 34.2544 Q873.313 30.163 876.918 28.1376 Q880.564 26.1121 885.303 26.1121 Q893.122 26.1121 897.132 30.9732 Q901.142 35.7938 901.142 45.1919 Z" fill="#000000" fill-rule="nonzero" fill-opacity="1" /><path clip-path="url(#clip700)" d="M945.864 34.0924 L945.864 9.54393 L953.318 9.54393 L953.318 72.576 L945.864 72.576 L945.864 65.7705 Q943.515 69.8214 939.91 71.8063 Q936.345 73.7508 931.322 73.7508 Q923.098 73.7508 917.913 67.1883 Q912.769 60.6258 912.769 49.9314 Q912.769 39.2371 917.913 32.6746 Q923.098 26.1121 931.322 26.1121 Q936.345 26.1121 939.91 28.0971 Q943.515 30.0415 945.864 34.0924 M920.465 49.9314 Q920.465 58.1548 923.827 62.8538 Q927.23 67.5124 933.145 67.5124 Q939.059 67.5124 942.462 62.8538 Q945.864 58.1548 945.864 49.9314 Q945.864 41.7081 942.462 37.0496 Q939.059 32.3505 933.145 32.3505 Q927.23 32.3505 923.827 37.0496 Q920.465 41.7081 920.465 49.9314 Z" fill="#000000" fill-rule="nonzero" fill-opacity="1" /><path clip-path="url(#clip700)" d="M994.961 34.1734 Q993.706 33.4443 992.207 33.1202 Q990.748 32.7556 988.966 32.7556 Q982.647 32.7556 979.244 36.8875 Q975.882 40.9789 975.882 48.6757 L975.882 72.576 L968.387 72.576 L968.387 27.2059 L975.882 27.2059 L975.882 34.2544 Q978.231 30.1225 981.998 28.1376 Q985.766 26.1121 991.154 26.1121 Q991.923 26.1121 992.855 26.2337 Q993.787 26.3147 994.921 26.5172 L994.961 34.1734 Z" fill="#000000" fill-rule="nonzero" fill-opacity="1" /><path clip-path="url(#clip700)" d="M1039.76 48.0275 L1039.76 51.6733 L1005.49 51.6733 Q1005.98 59.3701 1010.11 63.421 Q1014.28 67.4314 1021.7 67.4314 Q1025.99 67.4314 1030 66.3781 Q1034.05 65.3249 1038.02 63.2184 L1038.02 70.267 Q1034.01 71.9684 1029.8 72.8596 Q1025.59 73.7508 1021.25 73.7508 Q1010.4 73.7508 1004.04 67.4314 Q997.716 61.1119 997.716 50.3365 Q997.716 39.1965 1003.71 32.6746 Q1009.75 26.1121 1019.96 26.1121 Q1029.11 26.1121 1034.42 32.0264 Q1039.76 37.9003 1039.76 48.0275 M1032.31 45.84 Q1032.23 39.7232 1028.87 36.0774 Q1025.55 32.4315 1020.04 32.4315 Q1013.8 32.4315 1010.03 35.9558 Q1006.3 39.4801 1005.74 45.8805 L1032.31 45.84 Z" fill="#000000" fill-rule="nonzero" fill-opacity="1" /><path clip-path="url(#clip700)" d="M1086.88 18.8205 L1086.88 65.8515 L1096.76 65.8515 Q1109.28 65.8515 1115.07 60.1802 Q1120.9 54.509 1120.9 42.2752 Q1120.9 30.1225 1115.07 24.4918 Q1109.28 18.8205 1096.76 18.8205 L1086.88 18.8205 M1078.69 12.096 L1095.5 12.096 Q1113.09 12.096 1121.31 19.4281 Q1129.53 26.7198 1129.53 42.2752 Q1129.53 57.9117 1121.27 65.2439 Q1113 72.576 1095.5 72.576 L1078.69 72.576 L1078.69 12.096 Z" fill="#000000" fill-rule="nonzero" fill-opacity="1" /><path clip-path="url(#clip700)" d="M1159.83 32.4315 Q1153.84 32.4315 1150.35 37.1306 Q1146.87 41.7891 1146.87 49.9314 Q1146.87 58.0738 1150.31 62.7728 Q1153.8 67.4314 1159.83 67.4314 Q1165.79 67.4314 1169.27 62.7323 Q1172.76 58.0333 1172.76 49.9314 Q1172.76 41.8701 1169.27 37.1711 Q1165.79 32.4315 1159.83 32.4315 M1159.83 26.1121 Q1169.56 26.1121 1175.11 32.4315 Q1180.65 38.7509 1180.65 49.9314 Q1180.65 61.0714 1175.11 67.4314 Q1169.56 73.7508 1159.83 73.7508 Q1150.07 73.7508 1144.52 67.4314 Q1139.01 61.0714 1139.01 49.9314 Q1139.01 38.7509 1144.52 32.4315 Q1150.07 26.1121 1159.83 26.1121 Z" fill="#000000" fill-rule="nonzero" fill-opacity="1" /><path clip-path="url(#clip700)" d="M1228.33 35.9153 Q1231.13 30.8922 1235.02 28.5022 Q1238.91 26.1121 1244.17 26.1121 Q1251.26 26.1121 1255.11 31.0947 Q1258.96 36.0368 1258.96 45.1919 L1258.96 72.576 L1251.46 72.576 L1251.46 45.4349 Q1251.46 38.913 1249.16 35.7533 Q1246.85 32.5936 1242.11 32.5936 Q1236.31 32.5936 1232.95 36.4419 Q1229.59 40.2903 1229.59 46.9338 L1229.59 72.576 L1222.1 72.576 L1222.1 45.4349 Q1222.1 38.8725 1219.79 35.7533 Q1217.48 32.5936 1212.66 32.5936 Q1206.95 32.5936 1203.58 36.4824 Q1200.22 40.3308 1200.22 46.9338 L1200.22 72.576 L1192.73 72.576 L1192.73 27.2059 L1200.22 27.2059 L1200.22 34.2544 Q1202.77 30.082 1206.34 28.0971 Q1209.9 26.1121 1214.8 26.1121 Q1219.75 26.1121 1223.19 28.6237 Q1226.67 31.1352 1228.33 35.9153 Z" fill="#000000" fill-rule="nonzero" fill-opacity="1" /><path clip-path="url(#clip700)" d="M1294.44 49.7694 Q1285.41 49.7694 1281.93 51.8354 Q1278.44 53.9013 1278.44 58.8839 Q1278.44 62.8538 1281.04 65.2034 Q1283.67 67.5124 1288.17 67.5124 Q1294.36 67.5124 1298.09 63.1374 Q1301.86 58.7219 1301.86 51.4303 L1301.86 49.7694 L1294.44 49.7694 M1309.31 46.6907 L1309.31 72.576 L1301.86 72.576 L1301.86 65.6895 Q1299.31 69.8214 1295.5 71.8063 Q1291.69 73.7508 1286.18 73.7508 Q1279.21 73.7508 1275.08 69.8619 Q1270.99 65.9325 1270.99 59.3701 Q1270.99 51.7138 1276.09 47.825 Q1281.24 43.9361 1291.41 43.9361 L1301.86 43.9361 L1301.86 43.2069 Q1301.86 38.0623 1298.46 35.2672 Q1295.09 32.4315 1288.98 32.4315 Q1285.09 32.4315 1281.4 33.3632 Q1277.71 34.295 1274.31 36.1584 L1274.31 29.2718 Q1278.4 27.692 1282.25 26.9223 Q1286.1 26.1121 1289.75 26.1121 Q1299.59 26.1121 1304.45 31.2163 Q1309.31 36.3204 1309.31 46.6907 Z" fill="#000000" fill-rule="nonzero" fill-opacity="1" /><path clip-path="url(#clip700)" d="M1324.66 27.2059 L1332.12 27.2059 L1332.12 72.576 L1324.66 72.576 L1324.66 27.2059 M1324.66 9.54393 L1332.12 9.54393 L1332.12 18.9825 L1324.66 18.9825 L1324.66 9.54393 Z" fill="#000000" fill-rule="nonzero" fill-opacity="1" /><path clip-path="url(#clip700)" d="M1385.43 45.1919 L1385.43 72.576 L1377.97 72.576 L1377.97 45.4349 Q1377.97 38.994 1375.46 35.7938 Q1372.95 32.5936 1367.93 32.5936 Q1361.89 32.5936 1358.41 36.4419 Q1354.92 40.2903 1354.92 46.9338 L1354.92 72.576 L1347.43 72.576 L1347.43 27.2059 L1354.92 27.2059 L1354.92 34.2544 Q1357.6 30.163 1361.2 28.1376 Q1364.85 26.1121 1369.59 26.1121 Q1377.41 26.1121 1381.42 30.9732 Q1385.43 35.7938 1385.43 45.1919 Z" fill="#000000" fill-rule="nonzero" fill-opacity="1" /><path clip-path="url(#clip700)" d="M1426.99 12.096 L1439.18 12.096 L1454.62 53.2532 L1470.13 12.096 L1482.33 12.096 L1482.33 72.576 L1474.35 72.576 L1474.35 19.4686 L1458.75 60.9499 L1450.53 60.9499 L1434.93 19.4686 L1434.93 72.576 L1426.99 72.576 L1426.99 12.096 Z" fill="#000000" fill-rule="nonzero" fill-opacity="1" /><path clip-path="url(#clip700)" d="M1518.86 49.7694 Q1509.83 49.7694 1506.35 51.8354 Q1502.86 53.9013 1502.86 58.8839 Q1502.86 62.8538 1505.46 65.2034 Q1508.09 67.5124 1512.59 67.5124 Q1518.78 67.5124 1522.51 63.1374 Q1526.28 58.7219 1526.28 51.4303 L1526.28 49.7694 L1518.86 49.7694 M1533.73 46.6907 L1533.73 72.576 L1526.28 72.576 L1526.28 65.6895 Q1523.73 69.8214 1519.92 71.8063 Q1516.11 73.7508 1510.6 73.7508 Q1503.63 73.7508 1499.5 69.8619 Q1495.41 65.9325 1495.41 59.3701 Q1495.41 51.7138 1500.51 47.825 Q1505.66 43.9361 1515.83 43.9361 L1526.28 43.9361 L1526.28 43.2069 Q1526.28 38.0623 1522.88 35.2672 Q1519.51 32.4315 1513.4 32.4315 Q1509.51 32.4315 1505.82 33.3632 Q1502.13 34.295 1498.73 36.1584 L1498.73 29.2718 Q1502.82 27.692 1506.67 26.9223 Q1510.52 26.1121 1514.17 26.1121 Q1524.01 26.1121 1528.87 31.2163 Q1533.73 36.3204 1533.73 46.6907 Z" fill="#000000" fill-rule="nonzero" fill-opacity="1" /><path clip-path="url(#clip700)" d="M1575.37 34.1734 Q1574.12 33.4443 1572.62 33.1202 Q1571.16 32.7556 1569.38 32.7556 Q1563.06 32.7556 1559.66 36.8875 Q1556.3 40.9789 1556.3 48.6757 L1556.3 72.576 L1548.8 72.576 L1548.8 27.2059 L1556.3 27.2059 L1556.3 34.2544 Q1558.64 30.1225 1562.41 28.1376 Q1566.18 26.1121 1571.57 26.1121 Q1572.34 26.1121 1573.27 26.2337 Q1574.2 26.3147 1575.33 26.5172 L1575.37 34.1734 Z" fill="#000000" fill-rule="nonzero" fill-opacity="1" /><path clip-path="url(#clip700)" d="M1611.59 49.3643 Q1611.59 41.2625 1608.23 36.8065 Q1604.91 32.3505 1598.87 32.3505 Q1592.87 32.3505 1589.51 36.8065 Q1586.19 41.2625 1586.19 49.3643 Q1586.19 57.4256 1589.51 61.8816 Q1592.87 66.3376 1598.87 66.3376 Q1604.91 66.3376 1608.23 61.8816 Q1611.59 57.4256 1611.59 49.3643 M1619.04 66.9452 Q1619.04 78.5308 1613.9 84.1616 Q1608.75 89.8329 1598.14 89.8329 Q1594.21 89.8329 1590.73 89.2252 Q1587.24 88.6581 1583.96 87.4428 L1583.96 80.1917 Q1587.24 81.9741 1590.44 82.8248 Q1593.64 83.6755 1596.97 83.6755 Q1604.3 83.6755 1607.94 79.8271 Q1611.59 76.0193 1611.59 68.282 L1611.59 64.5957 Q1609.28 68.6061 1605.68 70.5911 Q1602.07 72.576 1597.05 72.576 Q1588.7 72.576 1583.6 66.2161 Q1578.49 59.8562 1578.49 49.3643 Q1578.49 38.832 1583.6 32.472 Q1588.7 26.1121 1597.05 26.1121 Q1602.07 26.1121 1605.68 28.0971 Q1609.28 30.082 1611.59 34.0924 L1611.59 27.2059 L1619.04 27.2059 L1619.04 66.9452 Z" fill="#000000" fill-rule="nonzero" fill-opacity="1" /><path clip-path="url(#clip700)" d="M1634.4 27.2059 L1641.85 27.2059 L1641.85 72.576 L1634.4 72.576 L1634.4 27.2059 M1634.4 9.54393 L1641.85 9.54393 L1641.85 18.9825 L1634.4 18.9825 L1634.4 9.54393 Z" fill="#000000" fill-rule="nonzero" fill-opacity="1" /><path clip-path="url(#clip700)" d="M1695.16 45.1919 L1695.16 72.576 L1687.71 72.576 L1687.71 45.4349 Q1687.71 38.994 1685.19 35.7938 Q1682.68 32.5936 1677.66 32.5936 Q1671.62 32.5936 1668.14 36.4419 Q1664.66 40.2903 1664.66 46.9338 L1664.66 72.576 L1657.16 72.576 L1657.16 27.2059 L1664.66 27.2059 L1664.66 34.2544 Q1667.33 30.163 1670.94 28.1376 Q1674.58 26.1121 1679.32 26.1121 Q1687.14 26.1121 1691.15 30.9732 Q1695.16 35.7938 1695.16 45.1919 Z" fill="#000000" fill-rule="nonzero" fill-opacity="1" /><path clip-path="url(#clip700)" d="M1730.65 49.7694 Q1721.61 49.7694 1718.13 51.8354 Q1714.65 53.9013 1714.65 58.8839 Q1714.65 62.8538 1717.24 65.2034 Q1719.87 67.5124 1724.37 67.5124 Q1730.57 67.5124 1734.29 63.1374 Q1738.06 58.7219 1738.06 51.4303 L1738.06 49.7694 L1730.65 49.7694 M1745.51 46.6907 L1745.51 72.576 L1738.06 72.576 L1738.06 65.6895 Q1735.51 69.8214 1731.7 71.8063 Q1727.89 73.7508 1722.38 73.7508 Q1715.41 73.7508 1711.28 69.8619 Q1707.19 65.9325 1707.19 59.3701 Q1707.19 51.7138 1712.3 47.825 Q1717.44 43.9361 1727.61 43.9361 L1738.06 43.9361 L1738.06 43.2069 Q1738.06 38.0623 1734.66 35.2672 Q1731.29 32.4315 1725.18 32.4315 Q1721.29 32.4315 1717.6 33.3632 Q1713.92 34.295 1710.51 36.1584 L1710.51 29.2718 Q1714.6 27.692 1718.45 26.9223 Q1722.3 26.1121 1725.95 26.1121 Q1735.79 26.1121 1740.65 31.2163 Q1745.51 36.3204 1745.51 46.6907 Z" fill="#000000" fill-rule="nonzero" fill-opacity="1" /><path clip-path="url(#clip700)" d="M1760.87 9.54393 L1768.32 9.54393 L1768.32 72.576 L1760.87 72.576 L1760.87 9.54393 Z" fill="#000000" fill-rule="nonzero" fill-opacity="1" /><path clip-path="url(#clip700)" d="M1783.92 27.2059 L1791.37 27.2059 L1791.37 72.576 L1783.92 72.576 L1783.92 27.2059 M1783.92 9.54393 L1791.37 9.54393 L1791.37 18.9825 L1783.92 18.9825 L1783.92 9.54393 Z" fill="#000000" fill-rule="nonzero" fill-opacity="1" /><path clip-path="url(#clip700)" d="M1835.89 28.5427 L1835.89 35.5912 Q1832.73 33.9709 1829.33 33.1607 Q1825.92 32.3505 1822.28 32.3505 Q1816.73 32.3505 1813.93 34.0519 Q1811.18 35.7533 1811.18 39.156 Q1811.18 41.7486 1813.16 43.2475 Q1815.15 44.7058 1821.14 46.0426 L1823.7 46.6097 Q1831.64 48.3111 1834.96 51.4303 Q1838.32 54.509 1838.32 60.0587 Q1838.32 66.3781 1833.3 70.0644 Q1828.31 73.7508 1819.56 73.7508 Q1815.92 73.7508 1811.95 73.0216 Q1808.02 72.3329 1803.64 70.9151 L1803.64 63.2184 Q1807.78 65.3654 1811.79 66.4591 Q1815.8 67.5124 1819.73 67.5124 Q1824.99 67.5124 1827.83 65.73 Q1830.66 63.9071 1830.66 60.6258 Q1830.66 57.5877 1828.6 55.9673 Q1826.57 54.3469 1819.64 52.8481 L1817.05 52.2405 Q1810.12 50.7821 1807.05 47.7845 Q1803.97 44.7463 1803.97 39.4801 Q1803.97 33.0797 1808.5 29.5959 Q1813.04 26.1121 1821.39 26.1121 Q1825.52 26.1121 1829.16 26.7198 Q1832.81 27.3274 1835.89 28.5427 Z" fill="#000000" fill-rule="nonzero" fill-opacity="1" /><path clip-path="url(#clip700)" d="M1889 48.0275 L1889 51.6733 L1854.73 51.6733 Q1855.21 59.3701 1859.34 63.421 Q1863.52 67.4314 1870.93 67.4314 Q1875.22 67.4314 1879.23 66.3781 Q1883.28 65.3249 1887.25 63.2184 L1887.25 70.267 Q1883.24 71.9684 1879.03 72.8596 Q1874.82 73.7508 1870.48 73.7508 Q1859.63 73.7508 1853.27 67.4314 Q1846.95 61.1119 1846.95 50.3365 Q1846.95 39.1965 1852.94 32.6746 Q1858.98 26.1121 1869.19 26.1121 Q1878.34 26.1121 1883.65 32.0264 Q1889 37.9003 1889 48.0275 M1881.54 45.84 Q1881.46 39.7232 1878.1 36.0774 Q1874.78 32.4315 1869.27 32.4315 Q1863.03 32.4315 1859.26 35.9558 Q1855.54 39.4801 1854.97 45.8805 L1881.54 45.84 Z" fill="#000000" fill-rule="nonzero" fill-opacity="1" /><path clip-path="url(#clip700)" d="M1931.08 34.0924 L1931.08 9.54393 L1938.54 9.54393 L1938.54 72.576 L1931.08 72.576 L1931.08 65.7705 Q1928.74 69.8214 1925.13 71.8063 Q1921.57 73.7508 1916.54 73.7508 Q1908.32 73.7508 1903.13 67.1883 Q1897.99 60.6258 1897.99 49.9314 Q1897.99 39.2371 1903.13 32.6746 Q1908.32 26.1121 1916.54 26.1121 Q1921.57 26.1121 1925.13 28.0971 Q1928.74 30.0415 1931.08 34.0924 M1905.69 49.9314 Q1905.69 58.1548 1909.05 62.8538 Q1912.45 67.5124 1918.36 67.5124 Q1924.28 67.5124 1927.68 62.8538 Q1931.08 58.1548 1931.08 49.9314 Q1931.08 41.7081 1927.68 37.0496 Q1924.28 32.3505 1918.36 32.3505 Q1912.45 32.3505 1909.05 37.0496 Q1905.69 41.7081 1905.69 49.9314 Z" fill="#000000" fill-rule="nonzero" fill-opacity="1" /><polyline clip-path="url(#clip702)" style="stroke:#1f77b4; stroke-linecap:round; stroke-linejoin:round; stroke-width:8; stroke-opacity:1; fill:none" points="309.539,297.536 426.228,561.242 542.916,802.455 659.605,846.462 776.294,948.414 892.982,1000.17 1009.67,1040.68 1126.36,1090.53 1243.05,1109.26 1359.74,1138.67 1476.42,1158.43 1593.11,1174.97 1709.8,1196.4 1826.49,1205.52 1943.18,1218.26 2059.87,1229.41 2176.56,1237.79 2293.24,1250.14 "/>
<circle clip-path="url(#clip702)" cx="309.539" cy="297.536" r="14.4" fill="#1f77b4" fill-rule="evenodd" fill-opacity="1" stroke="#000000" stroke-opacity="1" stroke-width="3.2"/>
<circle clip-path="url(#clip702)" cx="426.228" cy="561.242" r="14.4" fill="#1f77b4" fill-rule="evenodd" fill-opacity="1" stroke="#000000" stroke-opacity="1" stroke-width="3.2"/>
<circle clip-path="url(#clip702)" cx="542.916" cy="802.455" r="14.4" fill="#1f77b4" fill-rule="evenodd" fill-opacity="1" stroke="#000000" stroke-opacity="1" stroke-width="3.2"/>
<circle clip-path="url(#clip702)" cx="659.605" cy="846.462" r="14.4" fill="#1f77b4" fill-rule="evenodd" fill-opacity="1" stroke="#000000" stroke-opacity="1" stroke-width="3.2"/>
<circle clip-path="url(#clip702)" cx="776.294" cy="948.414" r="14.4" fill="#1f77b4" fill-rule="evenodd" fill-opacity="1" stroke="#000000" stroke-opacity="1" stroke-width="3.2"/>
<circle clip-path="url(#clip702)" cx="892.982" cy="1000.17" r="14.4" fill="#1f77b4" fill-rule="evenodd" fill-opacity="1" stroke="#000000" stroke-opacity="1" stroke-width="3.2"/>
<circle clip-path="url(#clip702)" cx="1009.67" cy="1040.68" r="14.4" fill="#1f77b4" fill-rule="evenodd" fill-opacity="1" stroke="#000000" stroke-opacity="1" stroke-width="3.2"/>
<circle clip-path="url(#clip702)" cx="1126.36" cy="1090.53" r="14.4" fill="#1f77b4" fill-rule="evenodd" fill-opacity="1" stroke="#000000" stroke-opacity="1" stroke-width="3.2"/>
<circle clip-path="url(#clip702)" cx="1243.05" cy="1109.26" r="14.4" fill="#1f77b4" fill-rule="evenodd" fill-opacity="1" stroke="#000000" stroke-opacity="1" stroke-width="3.2"/>
<circle clip-path="url(#clip702)" cx="1359.74" cy="1138.67" r="14.4" fill="#1f77b4" fill-rule="evenodd" fill-opacity="1" stroke="#000000" stroke-opacity="1" stroke-width="3.2"/>
<circle clip-path="url(#clip702)" cx="1476.42" cy="1158.43" r="14.4" fill="#1f77b4" fill-rule="evenodd" fill-opacity="1" stroke="#000000" stroke-opacity="1" stroke-width="3.2"/>
<circle clip-path="url(#clip702)" cx="1593.11" cy="1174.97" r="14.4" fill="#1f77b4" fill-rule="evenodd" fill-opacity="1" stroke="#000000" stroke-opacity="1" stroke-width="3.2"/>
<circle clip-path="url(#clip702)" cx="1709.8" cy="1196.4" r="14.4" fill="#1f77b4" fill-rule="evenodd" fill-opacity="1" stroke="#000000" stroke-opacity="1" stroke-width="3.2"/>
<circle clip-path="url(#clip702)" cx="1826.49" cy="1205.52" r="14.4" fill="#1f77b4" fill-rule="evenodd" fill-opacity="1" stroke="#000000" stroke-opacity="1" stroke-width="3.2"/>
<circle clip-path="url(#clip702)" cx="1943.18" cy="1218.26" r="14.4" fill="#1f77b4" fill-rule="evenodd" fill-opacity="1" stroke="#000000" stroke-opacity="1" stroke-width="3.2"/>
<circle clip-path="url(#clip702)" cx="2059.87" cy="1229.41" r="14.4" fill="#1f77b4" fill-rule="evenodd" fill-opacity="1" stroke="#000000" stroke-opacity="1" stroke-width="3.2"/>
<circle clip-path="url(#clip702)" cx="2176.56" cy="1237.79" r="14.4" fill="#1f77b4" fill-rule="evenodd" fill-opacity="1" stroke="#000000" stroke-opacity="1" stroke-width="3.2"/>
<circle clip-path="url(#clip702)" cx="2293.24" cy="1250.14" r="14.4" fill="#1f77b4" fill-rule="evenodd" fill-opacity="1" stroke="#000000" stroke-opacity="1" stroke-width="3.2"/>
<polyline clip-path="url(#clip702)" style="stroke:#ff7e0d; stroke-linecap:round; stroke-linejoin:round; stroke-width:8; stroke-opacity:1; fill:none" points="309.539,160.256 426.228,704.108 542.916,971.09 659.605,1142.49 776.294,1195.22 892.982,1254.55 1009.67,1287.51 1126.36,1307.29 1243.05,1333.66 1359.74,1340.25 1476.42,1353.43 1593.11,1360.03 1709.8,1366.62 1826.49,1373.21 1943.18,1379.8 2059.87,1379.8 2176.56,1386.4 2293.24,1386.4 "/>
<circle clip-path="url(#clip702)" cx="309.539" cy="160.256" r="14.4" fill="#ff7e0d" fill-rule="evenodd" fill-opacity="1" stroke="#000000" stroke-opacity="1" stroke-width="3.2"/>
<circle clip-path="url(#clip702)" cx="426.228" cy="704.108" r="14.4" fill="#ff7e0d" fill-rule="evenodd" fill-opacity="1" stroke="#000000" stroke-opacity="1" stroke-width="3.2"/>
<circle clip-path="url(#clip702)" cx="542.916" cy="971.09" r="14.4" fill="#ff7e0d" fill-rule="evenodd" fill-opacity="1" stroke="#000000" stroke-opacity="1" stroke-width="3.2"/>
<circle clip-path="url(#clip702)" cx="659.605" cy="1142.49" r="14.4" fill="#ff7e0d" fill-rule="evenodd" fill-opacity="1" stroke="#000000" stroke-opacity="1" stroke-width="3.2"/>
<circle clip-path="url(#clip702)" cx="776.294" cy="1195.22" r="14.4" fill="#ff7e0d" fill-rule="evenodd" fill-opacity="1" stroke="#000000" stroke-opacity="1" stroke-width="3.2"/>
<circle clip-path="url(#clip702)" cx="892.982" cy="1254.55" r="14.4" fill="#ff7e0d" fill-rule="evenodd" fill-opacity="1" stroke="#000000" stroke-opacity="1" stroke-width="3.2"/>
<circle clip-path="url(#clip702)" cx="1009.67" cy="1287.51" r="14.4" fill="#ff7e0d" fill-rule="evenodd" fill-opacity="1" stroke="#000000" stroke-opacity="1" stroke-width="3.2"/>
<circle clip-path="url(#clip702)" cx="1126.36" cy="1307.29" r="14.4" fill="#ff7e0d" fill-rule="evenodd" fill-opacity="1" stroke="#000000" stroke-opacity="1" stroke-width="3.2"/>
<circle clip-path="url(#clip702)" cx="1243.05" cy="1333.66" r="14.4" fill="#ff7e0d" fill-rule="evenodd" fill-opacity="1" stroke="#000000" stroke-opacity="1" stroke-width="3.2"/>
<circle clip-path="url(#clip702)" cx="1359.74" cy="1340.25" r="14.4" fill="#ff7e0d" fill-rule="evenodd" fill-opacity="1" stroke="#000000" stroke-opacity="1" stroke-width="3.2"/>
<circle clip-path="url(#clip702)" cx="1476.42" cy="1353.43" r="14.4" fill="#ff7e0d" fill-rule="evenodd" fill-opacity="1" stroke="#000000" stroke-opacity="1" stroke-width="3.2"/>
<circle clip-path="url(#clip702)" cx="1593.11" cy="1360.03" r="14.4" fill="#ff7e0d" fill-rule="evenodd" fill-opacity="1" stroke="#000000" stroke-opacity="1" stroke-width="3.2"/>
<circle clip-path="url(#clip702)" cx="1709.8" cy="1366.62" r="14.4" fill="#ff7e0d" fill-rule="evenodd" fill-opacity="1" stroke="#000000" stroke-opacity="1" stroke-width="3.2"/>
<circle clip-path="url(#clip702)" cx="1826.49" cy="1373.21" r="14.4" fill="#ff7e0d" fill-rule="evenodd" fill-opacity="1" stroke="#000000" stroke-opacity="1" stroke-width="3.2"/>
<circle clip-path="url(#clip702)" cx="1943.18" cy="1379.8" r="14.4" fill="#ff7e0d" fill-rule="evenodd" fill-opacity="1" stroke="#000000" stroke-opacity="1" stroke-width="3.2"/>
<circle clip-path="url(#clip702)" cx="2059.87" cy="1379.8" r="14.4" fill="#ff7e0d" fill-rule="evenodd" fill-opacity="1" stroke="#000000" stroke-opacity="1" stroke-width="3.2"/>
<circle clip-path="url(#clip702)" cx="2176.56" cy="1386.4" r="14.4" fill="#ff7e0d" fill-rule="evenodd" fill-opacity="1" stroke="#000000" stroke-opacity="1" stroke-width="3.2"/>
<circle clip-path="url(#clip702)" cx="2293.24" cy="1386.4" r="14.4" fill="#ff7e0d" fill-rule="evenodd" fill-opacity="1" stroke="#000000" stroke-opacity="1" stroke-width="3.2"/>
<polyline clip-path="url(#clip702)" style="stroke:#2ba02b; stroke-linecap:round; stroke-linejoin:round; stroke-width:8; stroke-opacity:1; fill:none" points="309.539,460.927 426.228,814.135 542.916,1002.25 659.605,1105.78 776.294,1171.79 892.982,1218.8 1009.67,1253.53 1126.36,1279.75 1243.05,1299.77 1359.74,1315.53 1476.42,1328.26 1593.11,1338.43 1709.8,1346.9 1826.49,1354.09 1943.18,1360.18 2059.87,1365.2 2176.56,1369.58 2293.24,1373.15 "/>
<circle clip-path="url(#clip702)" cx="309.539" cy="460.927" r="14.4" fill="#2ba02b" fill-rule="evenodd" fill-opacity="1" stroke="#000000" stroke-opacity="1" stroke-width="3.2"/>
<circle clip-path="url(#clip702)" cx="426.228" cy="814.135" r="14.4" fill="#2ba02b" fill-rule="evenodd" fill-opacity="1" stroke="#000000" stroke-opacity="1" stroke-width="3.2"/>
<circle clip-path="url(#clip702)" cx="542.916" cy="1002.25" r="14.4" fill="#2ba02b" fill-rule="evenodd" fill-opacity="1" stroke="#000000" stroke-opacity="1" stroke-width="3.2"/>
<circle clip-path="url(#clip702)" cx="659.605" cy="1105.78" r="14.4" fill="#2ba02b" fill-rule="evenodd" fill-opacity="1" stroke="#000000" stroke-opacity="1" stroke-width="3.2"/>
<circle clip-path="url(#clip702)" cx="776.294" cy="1171.79" r="14.4" fill="#2ba02b" fill-rule="evenodd" fill-opacity="1" stroke="#000000" stroke-opacity="1" stroke-width="3.2"/>
<circle clip-path="url(#clip702)" cx="892.982" cy="1218.8" r="14.4" fill="#2ba02b" fill-rule="evenodd" fill-opacity="1" stroke="#000000" stroke-opacity="1" stroke-width="3.2"/>
<circle clip-path="url(#clip702)" cx="1009.67" cy="1253.53" r="14.4" fill="#2ba02b" fill-rule="evenodd" fill-opacity="1" stroke="#000000" stroke-opacity="1" stroke-width="3.2"/>
<circle clip-path="url(#clip702)" cx="1126.36" cy="1279.75" r="14.4" fill="#2ba02b" fill-rule="evenodd" fill-opacity="1" stroke="#000000" stroke-opacity="1" stroke-width="3.2"/>
<circle clip-path="url(#clip702)" cx="1243.05" cy="1299.77" r="14.4" fill="#2ba02b" fill-rule="evenodd" fill-opacity="1" stroke="#000000" stroke-opacity="1" stroke-width="3.2"/>
<circle clip-path="url(#clip702)" cx="1359.74" cy="1315.53" r="14.4" fill="#2ba02b" fill-rule="evenodd" fill-opacity="1" stroke="#000000" stroke-opacity="1" stroke-width="3.2"/>
<circle clip-path="url(#clip702)" cx="1476.42" cy="1328.26" r="14.4" fill="#2ba02b" fill-rule="evenodd" fill-opacity="1" stroke="#000000" stroke-opacity="1" stroke-width="3.2"/>
<circle clip-path="url(#clip702)" cx="1593.11" cy="1338.43" r="14.4" fill="#2ba02b" fill-rule="evenodd" fill-opacity="1" stroke="#000000" stroke-opacity="1" stroke-width="3.2"/>
<circle clip-path="url(#clip702)" cx="1709.8" cy="1346.9" r="14.4" fill="#2ba02b" fill-rule="evenodd" fill-opacity="1" stroke="#000000" stroke-opacity="1" stroke-width="3.2"/>
<circle clip-path="url(#clip702)" cx="1826.49" cy="1354.09" r="14.4" fill="#2ba02b" fill-rule="evenodd" fill-opacity="1" stroke="#000000" stroke-opacity="1" stroke-width="3.2"/>
<circle clip-path="url(#clip702)" cx="1943.18" cy="1360.18" r="14.4" fill="#2ba02b" fill-rule="evenodd" fill-opacity="1" stroke="#000000" stroke-opacity="1" stroke-width="3.2"/>
<circle clip-path="url(#clip702)" cx="2059.87" cy="1365.2" r="14.4" fill="#2ba02b" fill-rule="evenodd" fill-opacity="1" stroke="#000000" stroke-opacity="1" stroke-width="3.2"/>
<circle clip-path="url(#clip702)" cx="2176.56" cy="1369.58" r="14.4" fill="#2ba02b" fill-rule="evenodd" fill-opacity="1" stroke="#000000" stroke-opacity="1" stroke-width="3.2"/>
<circle clip-path="url(#clip702)" cx="2293.24" cy="1373.15" r="14.4" fill="#2ba02b" fill-rule="evenodd" fill-opacity="1" stroke="#000000" stroke-opacity="1" stroke-width="3.2"/>
<path clip-path="url(#clip700)" d="M1799.29 374.156 L2282.66 374.156 L2282.66 166.796 L1799.29 166.796  Z" fill="#ffffff" fill-rule="evenodd" fill-opacity="1"/>
<polyline clip-path="url(#clip700)" style="stroke:#000000; stroke-linecap:round; stroke-linejoin:round; stroke-width:4; stroke-opacity:1; fill:none" points="1799.29,374.156 2282.66,374.156 2282.66,166.796 1799.29,166.796 1799.29,374.156 "/>
<polyline clip-path="url(#clip700)" style="stroke:#1f77b4; stroke-linecap:round; stroke-linejoin:round; stroke-width:8; stroke-opacity:1; fill:none" points="1822.66,218.636 1962.84,218.636 "/>
<path clip-path="url(#clip700)" d="M1986.2 201.356 L2008.05 201.356 L2008.05 205.291 L1990.88 205.291 L1990.88 215.522 L2007.34 215.522 L2007.34 219.457 L1990.88 219.457 L1990.88 231.981 L2008.47 231.981 L2008.47 235.916 L1986.2 235.916 L1986.2 201.356 Z" fill="#000000" fill-rule="nonzero" fill-opacity="1" /><path clip-path="url(#clip700)" d="M2037.52 209.99 L2028.15 222.606 L2038.01 235.916 L2032.98 235.916 L2025.44 225.731 L2017.89 235.916 L2012.87 235.916 L2022.94 222.351 L2013.72 209.99 L2018.75 209.99 L2025.62 219.226 L2032.5 209.99 L2037.52 209.99 Z" fill="#000000" fill-rule="nonzero" fill-opacity="1" /><path clip-path="url(#clip700)" d="M2048.15 232.027 L2048.15 245.777 L2043.86 245.777 L2043.86 209.99 L2048.15 209.99 L2048.15 213.925 Q2049.49 211.61 2051.52 210.499 Q2053.58 209.365 2056.43 209.365 Q2061.15 209.365 2064.09 213.115 Q2067.06 216.865 2067.06 222.976 Q2067.06 229.087 2064.09 232.837 Q2061.15 236.587 2056.43 236.587 Q2053.58 236.587 2051.52 235.476 Q2049.49 234.342 2048.15 232.027 M2062.64 222.976 Q2062.64 218.277 2060.69 215.615 Q2058.77 212.93 2055.39 212.93 Q2052.01 212.93 2050.07 215.615 Q2048.15 218.277 2048.15 222.976 Q2048.15 227.675 2050.07 230.36 Q2052.01 233.022 2055.39 233.022 Q2058.77 233.022 2060.69 230.36 Q2062.64 227.675 2062.64 222.976 Z" fill="#000000" fill-rule="nonzero" fill-opacity="1" /><path clip-path="url(#clip700)" d="M2096.29 221.888 L2096.29 223.971 L2076.71 223.971 Q2076.99 228.369 2079.35 230.684 Q2081.73 232.976 2085.97 232.976 Q2088.42 232.976 2090.71 232.374 Q2093.03 231.772 2095.3 230.569 L2095.3 234.596 Q2093.01 235.568 2090.6 236.078 Q2088.19 236.587 2085.71 236.587 Q2079.51 236.587 2075.88 232.976 Q2072.27 229.365 2072.27 223.207 Q2072.27 216.842 2075.69 213.115 Q2079.14 209.365 2084.97 209.365 Q2090.21 209.365 2093.24 212.745 Q2096.29 216.101 2096.29 221.888 M2092.03 220.638 Q2091.99 217.143 2090.07 215.059 Q2088.17 212.976 2085.02 212.976 Q2081.46 212.976 2079.3 214.99 Q2077.17 217.004 2076.85 220.661 L2092.03 220.638 Z" fill="#000000" fill-rule="nonzero" fill-opacity="1" /><path clip-path="url(#clip700)" d="M2121.94 210.985 L2121.94 214.967 Q2120.14 213.971 2118.31 213.485 Q2116.5 212.976 2114.65 212.976 Q2110.51 212.976 2108.21 215.615 Q2105.92 218.231 2105.92 222.976 Q2105.92 227.721 2108.21 230.36 Q2110.51 232.976 2114.65 232.976 Q2116.5 232.976 2118.31 232.49 Q2120.14 231.981 2121.94 230.985 L2121.94 234.92 Q2120.16 235.754 2118.24 236.17 Q2116.34 236.587 2114.19 236.587 Q2108.33 236.587 2104.88 232.906 Q2101.43 229.226 2101.43 222.976 Q2101.43 216.633 2104.9 212.999 Q2108.4 209.365 2114.46 209.365 Q2116.43 209.365 2118.31 209.782 Q2120.18 210.175 2121.94 210.985 Z" fill="#000000" fill-rule="nonzero" fill-opacity="1" /><path clip-path="url(#clip700)" d="M2133.56 202.629 L2133.56 209.99 L2142.33 209.99 L2142.33 213.3 L2133.56 213.3 L2133.56 227.374 Q2133.56 230.545 2134.42 231.448 Q2135.3 232.351 2137.96 232.351 L2142.33 232.351 L2142.33 235.916 L2137.96 235.916 Q2133.03 235.916 2131.15 234.087 Q2129.28 232.235 2129.28 227.374 L2129.28 213.3 L2126.15 213.3 L2126.15 209.99 L2129.28 209.99 L2129.28 202.629 L2133.56 202.629 Z" fill="#000000" fill-rule="nonzero" fill-opacity="1" /><path clip-path="url(#clip700)" d="M2159.72 222.883 Q2154.56 222.883 2152.57 224.064 Q2150.58 225.244 2150.58 228.092 Q2150.58 230.36 2152.06 231.703 Q2153.56 233.022 2156.13 233.022 Q2159.67 233.022 2161.8 230.522 Q2163.95 227.999 2163.95 223.832 L2163.95 222.883 L2159.72 222.883 M2168.21 221.124 L2168.21 235.916 L2163.95 235.916 L2163.95 231.981 Q2162.5 234.342 2160.32 235.476 Q2158.14 236.587 2155 236.587 Q2151.01 236.587 2148.65 234.365 Q2146.32 232.119 2146.32 228.369 Q2146.32 223.994 2149.23 221.772 Q2152.17 219.55 2157.98 219.55 L2163.95 219.55 L2163.95 219.133 Q2163.95 216.194 2162.01 214.596 Q2160.09 212.976 2156.59 212.976 Q2154.37 212.976 2152.26 213.508 Q2150.16 214.041 2148.21 215.106 L2148.21 211.17 Q2150.55 210.268 2152.75 209.828 Q2154.95 209.365 2157.03 209.365 Q2162.66 209.365 2165.44 212.282 Q2168.21 215.198 2168.21 221.124 Z" fill="#000000" fill-rule="nonzero" fill-opacity="1" /><path clip-path="url(#clip700)" d="M2181.2 202.629 L2181.2 209.99 L2189.97 209.99 L2189.97 213.3 L2181.2 213.3 L2181.2 227.374 Q2181.2 230.545 2182.06 231.448 Q2182.94 232.351 2185.6 232.351 L2189.97 232.351 L2189.97 235.916 L2185.6 235.916 Q2180.67 235.916 2178.79 234.087 Q2176.92 232.235 2176.92 227.374 L2176.92 213.3 L2173.79 213.3 L2173.79 209.99 L2176.92 209.99 L2176.92 202.629 L2181.2 202.629 Z" fill="#000000" fill-rule="nonzero" fill-opacity="1" /><path clip-path="url(#clip700)" d="M2195.57 209.99 L2199.83 209.99 L2199.83 235.916 L2195.57 235.916 L2195.57 209.99 M2195.57 199.897 L2199.83 199.897 L2199.83 205.291 L2195.57 205.291 L2195.57 199.897 Z" fill="#000000" fill-rule="nonzero" fill-opacity="1" /><path clip-path="url(#clip700)" d="M2218.79 212.976 Q2215.37 212.976 2213.38 215.661 Q2211.38 218.323 2211.38 222.976 Q2211.38 227.629 2213.35 230.314 Q2215.34 232.976 2218.79 232.976 Q2222.2 232.976 2224.19 230.291 Q2226.18 227.606 2226.18 222.976 Q2226.18 218.37 2224.19 215.684 Q2222.2 212.976 2218.79 212.976 M2218.79 209.365 Q2224.35 209.365 2227.52 212.976 Q2230.69 216.587 2230.69 222.976 Q2230.69 229.342 2227.52 232.976 Q2224.35 236.587 2218.79 236.587 Q2213.21 236.587 2210.04 232.976 Q2206.89 229.342 2206.89 222.976 Q2206.89 216.587 2210.04 212.976 Q2213.21 209.365 2218.79 209.365 Z" fill="#000000" fill-rule="nonzero" fill-opacity="1" /><path clip-path="url(#clip700)" d="M2259.3 220.268 L2259.3 235.916 L2255.04 235.916 L2255.04 220.407 Q2255.04 216.726 2253.61 214.897 Q2252.17 213.069 2249.3 213.069 Q2245.85 213.069 2243.86 215.268 Q2241.87 217.467 2241.87 221.263 L2241.87 235.916 L2237.59 235.916 L2237.59 209.99 L2241.87 209.99 L2241.87 214.018 Q2243.4 211.68 2245.46 210.522 Q2247.54 209.365 2250.25 209.365 Q2254.72 209.365 2257.01 212.143 Q2259.3 214.897 2259.3 220.268 Z" fill="#000000" fill-rule="nonzero" fill-opacity="1" /><polyline clip-path="url(#clip700)" style="stroke:#ff7e0d; stroke-linecap:round; stroke-linejoin:round; stroke-width:8; stroke-opacity:1; fill:none" points="1822.66,270.476 1962.84,270.476 "/>
<path clip-path="url(#clip700)" d="M1986.2 253.196 L1993.17 253.196 L2001.99 276.714 L2010.85 253.196 L2017.82 253.196 L2017.82 287.756 L2013.26 287.756 L2013.26 257.409 L2004.35 281.112 L1999.65 281.112 L1990.74 257.409 L1990.74 287.756 L1986.2 287.756 L1986.2 253.196 Z" fill="#000000" fill-rule="nonzero" fill-opacity="1" /><path clip-path="url(#clip700)" d="M2036.96 264.816 Q2033.54 264.816 2031.55 267.501 Q2029.56 270.163 2029.56 274.816 Q2029.56 279.469 2031.52 282.154 Q2033.52 284.816 2036.96 284.816 Q2040.37 284.816 2042.36 282.131 Q2044.35 279.446 2044.35 274.816 Q2044.35 270.21 2042.36 267.524 Q2040.37 264.816 2036.96 264.816 M2036.96 261.205 Q2042.52 261.205 2045.69 264.816 Q2048.86 268.427 2048.86 274.816 Q2048.86 281.182 2045.69 284.816 Q2042.52 288.427 2036.96 288.427 Q2031.39 288.427 2028.21 284.816 Q2025.07 281.182 2025.07 274.816 Q2025.07 268.427 2028.21 264.816 Q2031.39 261.205 2036.96 261.205 Z" fill="#000000" fill-rule="nonzero" fill-opacity="1" /><path clip-path="url(#clip700)" d="M2072.98 265.765 L2072.98 251.737 L2077.24 251.737 L2077.24 287.756 L2072.98 287.756 L2072.98 283.867 Q2071.64 286.182 2069.58 287.316 Q2067.54 288.427 2064.67 288.427 Q2059.97 288.427 2057.01 284.677 Q2054.07 280.927 2054.07 274.816 Q2054.07 268.705 2057.01 264.955 Q2059.97 261.205 2064.67 261.205 Q2067.54 261.205 2069.58 262.339 Q2071.64 263.45 2072.98 265.765 M2058.47 274.816 Q2058.47 279.515 2060.39 282.2 Q2062.33 284.862 2065.71 284.862 Q2069.09 284.862 2071.04 282.2 Q2072.98 279.515 2072.98 274.816 Q2072.98 270.117 2071.04 267.455 Q2069.09 264.77 2065.71 264.77 Q2062.33 264.77 2060.39 267.455 Q2058.47 270.117 2058.47 274.816 Z" fill="#000000" fill-rule="nonzero" fill-opacity="1" /><path clip-path="url(#clip700)" d="M2108.19 273.728 L2108.19 275.811 L2088.61 275.811 Q2088.89 280.209 2091.25 282.524 Q2093.63 284.816 2097.87 284.816 Q2100.32 284.816 2102.61 284.214 Q2104.93 283.612 2107.2 282.409 L2107.2 286.436 Q2104.9 287.408 2102.5 287.918 Q2100.09 288.427 2097.61 288.427 Q2091.41 288.427 2087.77 284.816 Q2084.16 281.205 2084.16 275.047 Q2084.16 268.682 2087.59 264.955 Q2091.04 261.205 2096.87 261.205 Q2102.1 261.205 2105.14 264.585 Q2108.19 267.941 2108.19 273.728 M2103.93 272.478 Q2103.89 268.983 2101.96 266.899 Q2100.07 264.816 2096.92 264.816 Q2093.35 264.816 2091.2 266.83 Q2089.07 268.844 2088.75 272.501 L2103.93 272.478 Z" fill="#000000" fill-rule="nonzero" fill-opacity="1" /><polyline clip-path="url(#clip700)" style="stroke:#2ba02b; stroke-linecap:round; stroke-linejoin:round; stroke-width:8; stroke-opacity:1; fill:none" points="1822.66,322.316 1962.84,322.316 "/>
<path clip-path="url(#clip700)" d="M1986.2 305.036 L1993.17 305.036 L2001.99 328.554 L2010.85 305.036 L2017.82 305.036 L2017.82 339.596 L2013.26 339.596 L2013.26 309.249 L2004.35 332.952 L1999.65 332.952 L1990.74 309.249 L1990.74 339.596 L1986.2 339.596 L1986.2 305.036 Z" fill="#000000" fill-rule="nonzero" fill-opacity="1" /><path clip-path="url(#clip700)" d="M2049.09 325.568 L2049.09 327.651 L2029.51 327.651 Q2029.79 332.049 2032.15 334.364 Q2034.53 336.656 2038.77 336.656 Q2041.22 336.656 2043.52 336.054 Q2045.83 335.452 2048.1 334.249 L2048.1 338.276 Q2045.81 339.248 2043.4 339.758 Q2040.99 340.267 2038.52 340.267 Q2032.31 340.267 2028.68 336.656 Q2025.07 333.045 2025.07 326.887 Q2025.07 320.522 2028.49 316.795 Q2031.94 313.045 2037.77 313.045 Q2043.01 313.045 2046.04 316.425 Q2049.09 319.781 2049.09 325.568 M2044.83 324.318 Q2044.79 320.823 2042.87 318.739 Q2040.97 316.656 2037.82 316.656 Q2034.26 316.656 2032.1 318.67 Q2029.97 320.684 2029.65 324.341 L2044.83 324.318 Z" fill="#000000" fill-rule="nonzero" fill-opacity="1" /><path clip-path="url(#clip700)" d="M2073.14 317.605 L2073.14 303.577 L2077.4 303.577 L2077.4 339.596 L2073.14 339.596 L2073.14 335.707 Q2071.8 338.022 2069.74 339.156 Q2067.71 340.267 2064.83 340.267 Q2060.14 340.267 2057.17 336.517 Q2054.23 332.767 2054.23 326.656 Q2054.23 320.545 2057.17 316.795 Q2060.14 313.045 2064.83 313.045 Q2067.71 313.045 2069.74 314.179 Q2071.8 315.29 2073.14 317.605 M2058.63 326.656 Q2058.63 331.355 2060.55 334.04 Q2062.5 336.702 2065.88 336.702 Q2069.26 336.702 2071.2 334.04 Q2073.14 331.355 2073.14 326.656 Q2073.14 321.957 2071.2 319.295 Q2069.26 316.61 2065.88 316.61 Q2062.5 316.61 2060.55 319.295 Q2058.63 321.957 2058.63 326.656 Z" fill="#000000" fill-rule="nonzero" fill-opacity="1" /><path clip-path="url(#clip700)" d="M2086.18 313.67 L2090.44 313.67 L2090.44 339.596 L2086.18 339.596 L2086.18 313.67 M2086.18 303.577 L2090.44 303.577 L2090.44 308.971 L2086.18 308.971 L2086.18 303.577 Z" fill="#000000" fill-rule="nonzero" fill-opacity="1" /><path clip-path="url(#clip700)" d="M2111.13 326.563 Q2105.97 326.563 2103.98 327.744 Q2101.99 328.924 2101.99 331.772 Q2101.99 334.04 2103.47 335.383 Q2104.97 336.702 2107.54 336.702 Q2111.08 336.702 2113.21 334.202 Q2115.37 331.679 2115.37 327.512 L2115.37 326.563 L2111.13 326.563 M2119.63 324.804 L2119.63 339.596 L2115.37 339.596 L2115.37 335.661 Q2113.91 338.022 2111.73 339.156 Q2109.56 340.267 2106.41 340.267 Q2102.43 340.267 2100.07 338.045 Q2097.73 335.799 2097.73 332.049 Q2097.73 327.674 2100.64 325.452 Q2103.58 323.23 2109.39 323.23 L2115.37 323.23 L2115.37 322.813 Q2115.37 319.874 2113.42 318.276 Q2111.5 316.656 2108.01 316.656 Q2105.78 316.656 2103.68 317.188 Q2101.57 317.721 2099.63 318.786 L2099.63 314.85 Q2101.96 313.948 2104.16 313.508 Q2106.36 313.045 2108.45 313.045 Q2114.07 313.045 2116.85 315.962 Q2119.63 318.878 2119.63 324.804 Z" fill="#000000" fill-rule="nonzero" fill-opacity="1" /><path clip-path="url(#clip700)" d="M2149.95 323.948 L2149.95 339.596 L2145.69 339.596 L2145.69 324.087 Q2145.69 320.406 2144.26 318.577 Q2142.82 316.749 2139.95 316.749 Q2136.5 316.749 2134.51 318.948 Q2132.52 321.147 2132.52 324.943 L2132.52 339.596 L2128.24 339.596 L2128.24 313.67 L2132.52 313.67 L2132.52 317.698 Q2134.05 315.36 2136.11 314.202 Q2138.19 313.045 2140.9 313.045 Q2145.37 313.045 2147.66 315.823 Q2149.95 318.577 2149.95 323.948 Z" fill="#000000" fill-rule="nonzero" fill-opacity="1" /></svg>
