<?xml version="1.0" encoding="utf-8"?>
<svg xmlns="http://www.w3.org/2000/svg" xmlns:xlink="http://www.w3.org/1999/xlink" width="600" height="400" viewBox="0 0 2400 1600">
<defs>
  <clipPath id="clip990">
    <rect x="0" y="0" width="2400" height="1600"/>
  </clipPath>
</defs>
<path clip-path="url(#clip990)" d="M0 1600 L2400 1600 L2400 8.88178e-14 L0 8.88178e-14  Z" fill="#ffffff" fill-rule="evenodd" fill-opacity="1"/>
<defs>
  <clipPath id="clip991">
    <rect x="480" y="0" width="1681" height="1600"/>
  </clipPath>
</defs>
<path clip-path="url(#clip990)" d="M249.542 1423.18 L2352.76 1423.18 L2352.76 123.472 L249.542 123.472  Z" fill="#ffffff" fill-rule="evenodd" fill-opacity="1"/>
<defs>
  <clipPath id="clip992">
    <rect x="249" y="123" width="2104" height="1301"/>
  </clipPath>
</defs>
<polyline clip-path="url(#clip992)" style="stroke:#000000; stroke-linecap:round; stroke-linejoin:round; stroke-width:2; stroke-opacity:0.1; fill:none" points="425.782,1423.18 425.782,123.472 "/>
<polyline clip-path="url(#clip992)" style="stroke:#000000; stroke-linecap:round; stroke-linejoin:round; stroke-width:2; stroke-opacity:0.1; fill:none" points="659.214,1423.18 659.214,123.472 "/>
<polyline clip-path="url(#clip992)" style="stroke:#000000; stroke-linecap:round; stroke-linejoin:round; stroke-width:2; stroke-opacity:0.1; fill:none" points="892.645,1423.18 892.645,123.472 "/>
<polyline clip-path="url(#clip992)" style="stroke:#000000; stroke-linecap:round; stroke-linejoin:round; stroke-width:2; stroke-opacity:0.1; fill:none" points="1126.08,1423.18 1126.08,123.472 "/>
<polyline clip-path="url(#clip992)" style="stroke:#000000; stroke-linecap:round; stroke-linejoin:round; stroke-width:2; stroke-opacity:0.1; fill:none" points="1359.51,1423.18 1359.51,123.472 "/>
<polyline clip-path="url(#clip992)" style="stroke:#000000; stroke-linecap:round; stroke-linejoin:round; stroke-width:2; stroke-opacity:0.1; fill:none" points="1592.94,1423.18 1592.94,123.472 "/>
<polyline clip-path="url(#clip992)" style="stroke:#000000; stroke-linecap:round; stroke-linejoin:round; stroke-width:2; stroke-opacity:0.1; fill:none" points="1826.37,1423.18 1826.37,123.472 "/>
<polyline clip-path="url(#clip992)" style="stroke:#000000; stroke-linecap:round; stroke-linejoin:round; stroke-width:2; stroke-opacity:0.1; fill:none" points="2059.8,1423.18 2059.8,123.472 "/>
<polyline clip-path="url(#clip992)" style="stroke:#000000; stroke-linecap:round; stroke-linejoin:round; stroke-width:2; stroke-opacity:0.1; fill:none" points="2293.23,1423.18 2293.23,123.472 "/>
<polyline clip-path="url(#clip992)" style="stroke:#000000; stroke-linecap:round; stroke-linejoin:round; stroke-width:2; stroke-opacity:0.1; fill:none" points="249.542,1408.33 2352.76,1408.33 "/>
<polyline clip-path="url(#clip992)" style="stroke:#000000; stroke-linecap:round; stroke-linejoin:round; stroke-width:2; stroke-opacity:0.1; fill:none" points="249.542,1038.29 2352.76,1038.29 "/>
<polyline clip-path="url(#clip992)" style="stroke:#000000; stroke-linecap:round; stroke-linejoin:round; stroke-width:2; stroke-opacity:0.1; fill:none" points="249.542,668.246 2352.76,668.246 "/>
<polyline clip-path="url(#clip992)" style="stroke:#000000; stroke-linecap:round; stroke-linejoin:round; stroke-width:2; stroke-opacity:0.1; fill:none" points="249.542,298.206 2352.76,298.206 "/>
<polyline clip-path="url(#clip990)" style="stroke:#000000; stroke-linecap:round; stroke-linejoin:round; stroke-width:4; stroke-opacity:1; fill:none" points="249.542,1423.18 2352.76,1423.18 "/>
<polyline clip-path="url(#clip990)" style="stroke:#000000; stroke-linecap:round; stroke-linejoin:round; stroke-width:4; stroke-opacity:1; fill:none" points="425.782,1423.18 425.782,1404.28 "/>
<polyline clip-path="url(#clip990)" style="stroke:#000000; stroke-linecap:round; stroke-linejoin:round; stroke-width:4; stroke-opacity:1; fill:none" points="659.214,1423.18 659.214,1404.28 "/>
<polyline clip-path="url(#clip990)" style="stroke:#000000; stroke-linecap:round; stroke-linejoin:round; stroke-width:4; stroke-opacity:1; fill:none" points="892.645,1423.18 892.645,1404.28 "/>
<polyline clip-path="url(#clip990)" style="stroke:#000000; stroke-linecap:round; stroke-linejoin:round; stroke-width:4; stroke-opacity:1; fill:none" points="1126.08,1423.18 1126.08,1404.28 "/>
<polyline clip-path="url(#clip990)" style="stroke:#000000; stroke-linecap:round; stroke-linejoin:round; stroke-width:4; stroke-opacity:1; fill:none" points="1359.51,1423.18 1359.51,1404.28 "/>
<polyline clip-path="url(#clip990)" style="stroke:#000000; stroke-linecap:round; stroke-linejoin:round; stroke-width:4; stroke-opacity:1; fill:none" points="1592.94,1423.18 1592.94,1404.28 "/>
<polyline clip-path="url(#clip990)" style="stroke:#000000; stroke-linecap:round; stroke-linejoin:round; stroke-width:4; stroke-opacity:1; fill:none" points="1826.37,1423.18 1826.37,1404.28 "/>
<polyline clip-path="url(#clip990)" style="stroke:#000000; stroke-linecap:round; stroke-linejoin:round; stroke-width:4; stroke-opacity:1; fill:none" points="2059.8,1423.18 2059.8,1404.28 "/>
<polyline clip-path="url(#clip990)" style="stroke:#000000; stroke-linecap:round; stroke-linejoin:round; stroke-width:4; stroke-opacity:1; fill:none" points="2293.23,1423.18 2293.23,1404.28 "/>
<path clip-path="url(#clip990)" d="M428.792 1455.09 L416.986 1473.54 L428.792 1473.54 L428.792 1455.09 M427.565 1451.02 L433.444 1451.02 L433.444 1473.54 L438.375 1473.54 L438.375 1477.43 L433.444 1477.43 L433.444 1485.58 L428.792 1485.58 L428.792 1477.43 L413.19 1477.43 L413.19 1472.92 L427.565 1451.02 Z" fill="#000000" fill-rule="nonzero" fill-opacity="1" /><path clip-path="url(#clip990)" d="M659.619 1466.44 Q656.471 1466.44 654.619 1468.59 Q652.79 1470.74 652.79 1474.49 Q652.79 1478.22 654.619 1480.39 Q656.471 1482.55 659.619 1482.55 Q662.767 1482.55 664.595 1480.39 Q666.447 1478.22 666.447 1474.49 Q666.447 1470.74 664.595 1468.59 Q662.767 1466.44 659.619 1466.44 M668.901 1451.78 L668.901 1456.04 Q667.142 1455.21 665.336 1454.77 Q663.554 1454.33 661.795 1454.33 Q657.165 1454.33 654.711 1457.45 Q652.281 1460.58 651.933 1466.9 Q653.299 1464.89 655.359 1463.82 Q657.42 1462.73 659.896 1462.73 Q665.105 1462.73 668.114 1465.9 Q671.146 1469.05 671.146 1474.49 Q671.146 1479.82 667.998 1483.03 Q664.85 1486.25 659.619 1486.25 Q653.623 1486.25 650.452 1481.67 Q647.281 1477.06 647.281 1468.33 Q647.281 1460.14 651.17 1455.28 Q655.058 1450.39 661.609 1450.39 Q663.369 1450.39 665.151 1450.74 Q666.957 1451.09 668.901 1451.78 Z" fill="#000000" fill-rule="nonzero" fill-opacity="1" /><path clip-path="url(#clip990)" d="M892.645 1469.17 Q889.311 1469.17 887.39 1470.95 Q885.492 1472.73 885.492 1475.86 Q885.492 1478.98 887.39 1480.77 Q889.311 1482.55 892.645 1482.55 Q895.978 1482.55 897.899 1480.77 Q899.82 1478.96 899.82 1475.86 Q899.82 1472.73 897.899 1470.95 Q896.001 1469.17 892.645 1469.17 M887.969 1467.18 Q884.959 1466.44 883.27 1464.38 Q881.603 1462.32 881.603 1459.35 Q881.603 1455.21 884.543 1452.8 Q887.506 1450.39 892.645 1450.39 Q897.807 1450.39 900.746 1452.8 Q903.686 1455.21 903.686 1459.35 Q903.686 1462.32 901.996 1464.38 Q900.33 1466.44 897.344 1467.18 Q900.723 1467.96 902.598 1470.26 Q904.496 1472.55 904.496 1475.86 Q904.496 1480.88 901.418 1483.57 Q898.362 1486.25 892.645 1486.25 Q886.927 1486.25 883.848 1483.57 Q880.793 1480.88 880.793 1475.86 Q880.793 1472.55 882.691 1470.26 Q884.589 1467.96 887.969 1467.18 M886.256 1459.79 Q886.256 1462.48 887.922 1463.98 Q889.612 1465.49 892.645 1465.49 Q895.654 1465.49 897.344 1463.98 Q899.057 1462.48 899.057 1459.79 Q899.057 1457.11 897.344 1455.6 Q895.654 1454.1 892.645 1454.1 Q889.612 1454.1 887.922 1455.6 Q886.256 1457.11 886.256 1459.79 Z" fill="#000000" fill-rule="nonzero" fill-opacity="1" /><path clip-path="url(#clip990)" d="M1100.76 1481.64 L1108.4 1481.64 L1108.4 1455.28 L1100.09 1456.95 L1100.09 1452.69 L1108.36 1451.02 L1113.03 1451.02 L1113.03 1481.64 L1120.67 1481.64 L1120.67 1485.58 L1100.76 1485.58 L1100.76 1481.64 Z" fill="#000000" fill-rule="nonzero" fill-opacity="1" /><path clip-path="url(#clip990)" d="M1140.11 1454.1 Q1136.5 1454.1 1134.68 1457.66 Q1132.87 1461.2 1132.87 1468.33 Q1132.87 1475.44 1134.68 1479.01 Q1136.5 1482.55 1140.11 1482.55 Q1143.75 1482.55 1145.55 1479.01 Q1147.38 1475.44 1147.38 1468.33 Q1147.38 1461.2 1145.55 1457.66 Q1143.75 1454.1 1140.11 1454.1 M1140.11 1450.39 Q1145.93 1450.39 1148.98 1455 Q1152.06 1459.58 1152.06 1468.33 Q1152.06 1477.06 1148.98 1481.67 Q1145.93 1486.25 1140.11 1486.25 Q1134.3 1486.25 1131.23 1481.67 Q1128.17 1477.06 1128.17 1468.33 Q1128.17 1459.58 1131.23 1455 Q1134.3 1450.39 1140.11 1450.39 Z" fill="#000000" fill-rule="nonzero" fill-opacity="1" /><path clip-path="url(#clip990)" d="M1334.99 1481.64 L1342.63 1481.64 L1342.63 1455.28 L1334.32 1456.95 L1334.32 1452.69 L1342.59 1451.02 L1347.26 1451.02 L1347.26 1481.64 L1354.9 1481.64 L1354.9 1485.58 L1334.99 1485.58 L1334.99 1481.64 Z" fill="#000000" fill-rule="nonzero" fill-opacity="1" /><path clip-path="url(#clip990)" d="M1368.37 1481.64 L1384.69 1481.64 L1384.69 1485.58 L1362.75 1485.58 L1362.75 1481.64 Q1365.41 1478.89 1369.99 1474.26 Q1374.6 1469.61 1375.78 1468.27 Q1378.03 1465.74 1378.9 1464.01 Q1379.81 1462.25 1379.81 1460.56 Q1379.81 1457.8 1377.86 1456.07 Q1375.94 1454.33 1372.84 1454.33 Q1370.64 1454.33 1368.19 1455.09 Q1365.76 1455.86 1362.98 1457.41 L1362.98 1452.69 Q1365.8 1451.55 1368.26 1450.97 Q1370.71 1450.39 1372.75 1450.39 Q1378.12 1450.39 1381.31 1453.08 Q1384.51 1455.77 1384.51 1460.26 Q1384.51 1462.39 1383.7 1464.31 Q1382.91 1466.2 1380.8 1468.8 Q1380.22 1469.47 1377.12 1472.69 Q1374.02 1475.88 1368.37 1481.64 Z" fill="#000000" fill-rule="nonzero" fill-opacity="1" /><path clip-path="url(#clip990)" d="M1567.38 1481.64 L1575.02 1481.64 L1575.02 1455.28 L1566.71 1456.95 L1566.71 1452.69 L1574.97 1451.02 L1579.65 1451.02 L1579.65 1481.64 L1587.29 1481.64 L1587.29 1485.58 L1567.38 1485.58 L1567.38 1481.64 Z" fill="#000000" fill-rule="nonzero" fill-opacity="1" /><path clip-path="url(#clip990)" d="M1609.58 1455.09 L1597.78 1473.54 L1609.58 1473.54 L1609.58 1455.09 M1608.35 1451.02 L1614.23 1451.02 L1614.23 1473.54 L1619.16 1473.54 L1619.16 1477.43 L1614.23 1477.43 L1614.23 1485.58 L1609.58 1485.58 L1609.58 1477.43 L1593.98 1477.43 L1593.98 1472.92 L1608.35 1451.02 Z" fill="#000000" fill-rule="nonzero" fill-opacity="1" /><path clip-path="url(#clip990)" d="M1800.98 1481.64 L1808.61 1481.64 L1808.61 1455.28 L1800.3 1456.95 L1800.3 1452.69 L1808.57 1451.02 L1813.24 1451.02 L1813.24 1481.64 L1820.88 1481.64 L1820.88 1485.58 L1800.98 1485.58 L1800.98 1481.64 Z" fill="#000000" fill-rule="nonzero" fill-opacity="1" /><path clip-path="url(#clip990)" d="M1840.91 1466.44 Q1837.76 1466.44 1835.91 1468.59 Q1834.08 1470.74 1834.08 1474.49 Q1834.08 1478.22 1835.91 1480.39 Q1837.76 1482.55 1840.91 1482.55 Q1844.05 1482.55 1845.88 1480.39 Q1847.73 1478.22 1847.73 1474.49 Q1847.73 1470.74 1845.88 1468.59 Q1844.05 1466.44 1840.91 1466.44 M1850.19 1451.78 L1850.19 1456.04 Q1848.43 1455.21 1846.62 1454.77 Q1844.84 1454.33 1843.08 1454.33 Q1838.45 1454.33 1836 1457.45 Q1833.57 1460.58 1833.22 1466.9 Q1834.59 1464.89 1836.65 1463.82 Q1838.71 1462.73 1841.18 1462.73 Q1846.39 1462.73 1849.4 1465.9 Q1852.43 1469.05 1852.43 1474.49 Q1852.43 1479.82 1849.29 1483.03 Q1846.14 1486.25 1840.91 1486.25 Q1834.91 1486.25 1831.74 1481.67 Q1828.57 1477.06 1828.57 1468.33 Q1828.57 1460.14 1832.46 1455.28 Q1836.35 1450.39 1842.9 1450.39 Q1844.66 1450.39 1846.44 1450.74 Q1848.24 1451.09 1850.19 1451.78 Z" fill="#000000" fill-rule="nonzero" fill-opacity="1" /><path clip-path="url(#clip990)" d="M2034.53 1481.64 L2042.17 1481.64 L2042.17 1455.28 L2033.86 1456.95 L2033.86 1452.69 L2042.13 1451.02 L2046.8 1451.02 L2046.8 1481.64 L2054.44 1481.64 L2054.44 1485.58 L2034.53 1485.58 L2034.53 1481.64 Z" fill="#000000" fill-rule="nonzero" fill-opacity="1" /><path clip-path="url(#clip990)" d="M2073.89 1469.17 Q2070.55 1469.17 2068.63 1470.95 Q2066.73 1472.73 2066.73 1475.86 Q2066.73 1478.98 2068.63 1480.77 Q2070.55 1482.55 2073.89 1482.55 Q2077.22 1482.55 2079.14 1480.77 Q2081.06 1478.96 2081.06 1475.86 Q2081.06 1472.73 2079.14 1470.95 Q2077.24 1469.17 2073.89 1469.17 M2069.21 1467.18 Q2066.2 1466.44 2064.51 1464.38 Q2062.84 1462.32 2062.84 1459.35 Q2062.84 1455.21 2065.78 1452.8 Q2068.75 1450.39 2073.89 1450.39 Q2079.05 1450.39 2081.99 1452.8 Q2084.93 1455.21 2084.93 1459.35 Q2084.93 1462.32 2083.24 1464.38 Q2081.57 1466.44 2078.58 1467.18 Q2081.96 1467.96 2083.84 1470.26 Q2085.74 1472.55 2085.74 1475.86 Q2085.74 1480.88 2082.66 1483.57 Q2079.6 1486.25 2073.89 1486.25 Q2068.17 1486.25 2065.09 1483.57 Q2062.03 1480.88 2062.03 1475.86 Q2062.03 1472.55 2063.93 1470.26 Q2065.83 1467.96 2069.21 1467.18 M2067.5 1459.79 Q2067.5 1462.48 2069.16 1463.98 Q2070.85 1465.49 2073.89 1465.49 Q2076.89 1465.49 2078.58 1463.98 Q2080.3 1462.48 2080.3 1459.79 Q2080.3 1457.11 2078.58 1455.6 Q2076.89 1454.1 2073.89 1454.1 Q2070.85 1454.1 2069.16 1455.6 Q2067.5 1457.11 2067.5 1459.79 Z" fill="#000000" fill-rule="nonzero" fill-opacity="1" /><path clip-path="url(#clip990)" d="M2272 1481.64 L2288.32 1481.64 L2288.32 1485.58 L2266.38 1485.58 L2266.38 1481.64 Q2269.04 1478.89 2273.62 1474.26 Q2278.23 1469.61 2279.41 1468.27 Q2281.66 1465.74 2282.54 1464.01 Q2283.44 1462.25 2283.44 1460.56 Q2283.44 1457.8 2281.49 1456.07 Q2279.57 1454.33 2276.47 1454.33 Q2274.27 1454.33 2271.82 1455.09 Q2269.39 1455.86 2266.61 1457.41 L2266.61 1452.69 Q2269.43 1451.55 2271.89 1450.97 Q2274.34 1450.39 2276.38 1450.39 Q2281.75 1450.39 2284.94 1453.08 Q2288.14 1455.77 2288.14 1460.26 Q2288.14 1462.39 2287.33 1464.31 Q2286.54 1466.2 2284.43 1468.8 Q2283.86 1469.47 2280.75 1472.69 Q2277.65 1475.88 2272 1481.64 Z" fill="#000000" fill-rule="nonzero" fill-opacity="1" /><path clip-path="url(#clip990)" d="M2308.14 1454.1 Q2304.53 1454.1 2302.7 1457.66 Q2300.89 1461.2 2300.89 1468.33 Q2300.89 1475.44 2302.7 1479.01 Q2304.53 1482.55 2308.14 1482.55 Q2311.77 1482.55 2313.58 1479.01 Q2315.41 1475.44 2315.41 1468.33 Q2315.41 1461.2 2313.58 1457.66 Q2311.77 1454.1 2308.14 1454.1 M2308.14 1450.39 Q2313.95 1450.39 2317 1455 Q2320.08 1459.58 2320.08 1468.33 Q2320.08 1477.06 2317 1481.67 Q2313.95 1486.25 2308.14 1486.25 Q2302.33 1486.25 2299.25 1481.67 Q2296.19 1477.06 2296.19 1468.33 Q2296.19 1459.58 2299.25 1455 Q2302.33 1450.39 2308.14 1450.39 Z" fill="#000000" fill-rule="nonzero" fill-opacity="1" /><path clip-path="url(#clip990)" d="M1311.22 1537.81 L1311.22 1518.52 L1317.08 1518.52 L1317.08 1568.04 L1311.22 1568.04 L1311.22 1562.7 Q1309.38 1565.88 1306.54 1567.44 Q1303.74 1568.97 1299.8 1568.97 Q1293.34 1568.97 1289.26 1563.81 Q1285.22 1558.65 1285.22 1550.25 Q1285.22 1541.85 1289.26 1536.69 Q1293.34 1531.54 1299.8 1531.54 Q1303.74 1531.54 1306.54 1533.1 Q1309.38 1534.62 1311.22 1537.81 M1291.27 1550.25 Q1291.27 1556.71 1293.91 1560.4 Q1296.58 1564.07 1301.23 1564.07 Q1305.88 1564.07 1308.55 1560.4 Q1311.22 1556.71 1311.22 1550.25 Q1311.22 1543.79 1308.55 1540.13 Q1305.88 1536.44 1301.23 1536.44 Q1296.58 1536.44 1293.91 1540.13 Q1291.27 1543.79 1291.27 1550.25 Z" fill="#000000" fill-rule="nonzero" fill-opacity="1" /><polyline clip-path="url(#clip990)" style="stroke:#000000; stroke-linecap:round; stroke-linejoin:round; stroke-width:4; stroke-opacity:1; fill:none" points="249.542,1423.18 249.542,123.472 "/>
<polyline clip-path="url(#clip990)" style="stroke:#000000; stroke-linecap:round; stroke-linejoin:round; stroke-width:4; stroke-opacity:1; fill:none" points="249.542,1408.33 268.44,1408.33 "/>
<polyline clip-path="url(#clip990)" style="stroke:#000000; stroke-linecap:round; stroke-linejoin:round; stroke-width:4; stroke-opacity:1; fill:none" points="249.542,1038.29 268.44,1038.29 "/>
<polyline clip-path="url(#clip990)" style="stroke:#000000; stroke-linecap:round; stroke-linejoin:round; stroke-width:4; stroke-opacity:1; fill:none" points="249.542,668.246 268.44,668.246 "/>
<polyline clip-path="url(#clip990)" style="stroke:#000000; stroke-linecap:round; stroke-linejoin:round; stroke-width:4; stroke-opacity:1; fill:none" points="249.542,298.206 268.44,298.206 "/>
<path clip-path="url(#clip990)" d="M126.205 1394.12 Q122.593 1394.12 120.765 1397.69 Q118.959 1401.23 118.959 1408.36 Q118.959 1415.47 120.765 1419.03 Q122.593 1422.57 126.205 1422.57 Q129.839 1422.57 131.644 1419.03 Q133.473 1415.47 133.473 1408.36 Q133.473 1401.23 131.644 1397.69 Q129.839 1394.12 126.205 1394.12 M126.205 1390.42 Q132.015 1390.42 135.07 1395.03 Q138.149 1399.61 138.149 1408.36 Q138.149 1417.09 135.07 1421.69 Q132.015 1426.28 126.205 1426.28 Q120.394 1426.28 117.316 1421.69 Q114.26 1417.09 114.26 1408.36 Q114.26 1399.61 117.316 1395.03 Q120.394 1390.42 126.205 1390.42 Z" fill="#000000" fill-rule="nonzero" fill-opacity="1" /><path clip-path="url(#clip990)" d="M146.366 1419.73 L151.251 1419.73 L151.251 1425.61 L146.366 1425.61 L146.366 1419.73 Z" fill="#000000" fill-rule="nonzero" fill-opacity="1" /><path clip-path="url(#clip990)" d="M171.436 1394.12 Q167.825 1394.12 165.996 1397.69 Q164.19 1401.23 164.19 1408.36 Q164.19 1415.47 165.996 1419.03 Q167.825 1422.57 171.436 1422.57 Q175.07 1422.57 176.876 1419.03 Q178.704 1415.47 178.704 1408.36 Q178.704 1401.23 176.876 1397.69 Q175.07 1394.12 171.436 1394.12 M171.436 1390.42 Q177.246 1390.42 180.301 1395.03 Q183.38 1399.61 183.38 1408.36 Q183.38 1417.09 180.301 1421.69 Q177.246 1426.28 171.436 1426.28 Q165.626 1426.28 162.547 1421.69 Q159.491 1417.09 159.491 1408.36 Q159.491 1399.61 162.547 1395.03 Q165.626 1390.42 171.436 1390.42 Z" fill="#000000" fill-rule="nonzero" fill-opacity="1" /><path clip-path="url(#clip990)" d="M201.598 1394.12 Q197.987 1394.12 196.158 1397.69 Q194.352 1401.23 194.352 1408.36 Q194.352 1415.47 196.158 1419.03 Q197.987 1422.57 201.598 1422.57 Q205.232 1422.57 207.037 1419.03 Q208.866 1415.47 208.866 1408.36 Q208.866 1401.23 207.037 1397.69 Q205.232 1394.12 201.598 1394.12 M201.598 1390.42 Q207.408 1390.42 210.463 1395.03 Q213.542 1399.61 213.542 1408.36 Q213.542 1417.09 210.463 1421.69 Q207.408 1426.28 201.598 1426.28 Q195.787 1426.28 192.709 1421.69 Q189.653 1417.09 189.653 1408.36 Q189.653 1399.61 192.709 1395.03 Q195.787 1390.42 201.598 1390.42 Z" fill="#000000" fill-rule="nonzero" fill-opacity="1" /><path clip-path="url(#clip990)" d="M127.2 1024.08 Q123.589 1024.08 121.76 1027.65 Q119.955 1031.19 119.955 1038.32 Q119.955 1045.43 121.76 1048.99 Q123.589 1052.53 127.2 1052.53 Q130.834 1052.53 132.64 1048.99 Q134.468 1045.43 134.468 1038.32 Q134.468 1031.19 132.64 1027.65 Q130.834 1024.08 127.2 1024.08 M127.2 1020.38 Q133.01 1020.38 136.066 1024.99 Q139.144 1029.57 139.144 1038.32 Q139.144 1047.05 136.066 1051.65 Q133.01 1056.24 127.2 1056.24 Q121.39 1056.24 118.311 1051.65 Q115.256 1047.05 115.256 1038.32 Q115.256 1029.57 118.311 1024.99 Q121.39 1020.38 127.2 1020.38 Z" fill="#000000" fill-rule="nonzero" fill-opacity="1" /><path clip-path="url(#clip990)" d="M147.362 1049.69 L152.246 1049.69 L152.246 1055.57 L147.362 1055.57 L147.362 1049.69 Z" fill="#000000" fill-rule="nonzero" fill-opacity="1" /><path clip-path="url(#clip990)" d="M172.431 1024.08 Q168.82 1024.08 166.991 1027.65 Q165.186 1031.19 165.186 1038.32 Q165.186 1045.43 166.991 1048.99 Q168.82 1052.53 172.431 1052.53 Q176.065 1052.53 177.871 1048.99 Q179.7 1045.43 179.7 1038.32 Q179.7 1031.19 177.871 1027.65 Q176.065 1024.08 172.431 1024.08 M172.431 1020.38 Q178.241 1020.38 181.297 1024.99 Q184.376 1029.57 184.376 1038.32 Q184.376 1047.05 181.297 1051.65 Q178.241 1056.24 172.431 1056.24 Q166.621 1056.24 163.542 1051.65 Q160.487 1047.05 160.487 1038.32 Q160.487 1029.57 163.542 1024.99 Q166.621 1020.38 172.431 1020.38 Z" fill="#000000" fill-rule="nonzero" fill-opacity="1" /><path clip-path="url(#clip990)" d="M192.639 1021.01 L210.996 1021.01 L210.996 1024.94 L196.922 1024.94 L196.922 1033.41 Q197.94 1033.07 198.959 1032.9 Q199.977 1032.72 200.996 1032.72 Q206.783 1032.72 210.162 1035.89 Q213.542 1039.06 213.542 1044.48 Q213.542 1050.06 210.07 1053.16 Q206.598 1056.24 200.278 1056.24 Q198.102 1056.24 195.834 1055.87 Q193.588 1055.5 191.181 1054.76 L191.181 1050.06 Q193.264 1051.19 195.487 1051.75 Q197.709 1052.3 200.186 1052.3 Q204.19 1052.3 206.528 1050.2 Q208.866 1048.09 208.866 1044.48 Q208.866 1040.87 206.528 1038.76 Q204.19 1036.65 200.186 1036.65 Q198.311 1036.65 196.436 1037.07 Q194.584 1037.49 192.639 1038.37 L192.639 1021.01 Z" fill="#000000" fill-rule="nonzero" fill-opacity="1" /><path clip-path="url(#clip990)" d="M126.205 654.044 Q122.593 654.044 120.765 657.609 Q118.959 661.151 118.959 668.28 Q118.959 675.387 120.765 678.952 Q122.593 682.493 126.205 682.493 Q129.839 682.493 131.644 678.952 Q133.473 675.387 133.473 668.28 Q133.473 661.151 131.644 657.609 Q129.839 654.044 126.205 654.044 M126.205 650.341 Q132.015 650.341 135.07 654.947 Q138.149 659.53 138.149 668.28 Q138.149 677.007 135.07 681.614 Q132.015 686.197 126.205 686.197 Q120.394 686.197 117.316 681.614 Q114.26 677.007 114.26 668.28 Q114.26 659.53 117.316 654.947 Q120.394 650.341 126.205 650.341 Z" fill="#000000" fill-rule="nonzero" fill-opacity="1" /><path clip-path="url(#clip990)" d="M146.366 679.646 L151.251 679.646 L151.251 685.526 L146.366 685.526 L146.366 679.646 Z" fill="#000000" fill-rule="nonzero" fill-opacity="1" /><path clip-path="url(#clip990)" d="M162.246 681.59 L169.885 681.59 L169.885 655.225 L161.575 656.892 L161.575 652.632 L169.839 650.966 L174.514 650.966 L174.514 681.59 L182.153 681.59 L182.153 685.526 L162.246 685.526 L162.246 681.59 Z" fill="#000000" fill-rule="nonzero" fill-opacity="1" /><path clip-path="url(#clip990)" d="M201.598 654.044 Q197.987 654.044 196.158 657.609 Q194.352 661.151 194.352 668.28 Q194.352 675.387 196.158 678.952 Q197.987 682.493 201.598 682.493 Q205.232 682.493 207.037 678.952 Q208.866 675.387 208.866 668.28 Q208.866 661.151 207.037 657.609 Q205.232 654.044 201.598 654.044 M201.598 650.341 Q207.408 650.341 210.463 654.947 Q213.542 659.53 213.542 668.28 Q213.542 677.007 210.463 681.614 Q207.408 686.197 201.598 686.197 Q195.787 686.197 192.709 681.614 Q189.653 677.007 189.653 668.28 Q189.653 659.53 192.709 654.947 Q195.787 650.341 201.598 650.341 Z" fill="#000000" fill-rule="nonzero" fill-opacity="1" /><path clip-path="url(#clip990)" d="M127.2 284.004 Q123.589 284.004 121.76 287.569 Q119.955 291.111 119.955 298.24 Q119.955 305.347 121.76 308.912 Q123.589 312.453 127.2 312.453 Q130.834 312.453 132.64 308.912 Q134.468 305.347 134.468 298.24 Q134.468 291.111 132.64 287.569 Q130.834 284.004 127.2 284.004 M127.2 280.301 Q133.01 280.301 136.066 284.907 Q139.144 289.49 139.144 298.24 Q139.144 306.967 136.066 311.574 Q133.01 316.157 127.2 316.157 Q121.39 316.157 118.311 311.574 Q115.256 306.967 115.256 298.24 Q115.256 289.49 118.311 284.907 Q121.39 280.301 127.2 280.301 Z" fill="#000000" fill-rule="nonzero" fill-opacity="1" /><path clip-path="url(#clip990)" d="M147.362 309.606 L152.246 309.606 L152.246 315.486 L147.362 315.486 L147.362 309.606 Z" fill="#000000" fill-rule="nonzero" fill-opacity="1" /><path clip-path="url(#clip990)" d="M163.241 311.55 L170.88 311.55 L170.88 285.185 L162.57 286.851 L162.57 282.592 L170.834 280.926 L175.51 280.926 L175.51 311.55 L183.149 311.55 L183.149 315.486 L163.241 315.486 L163.241 311.55 Z" fill="#000000" fill-rule="nonzero" fill-opacity="1" /><path clip-path="url(#clip990)" d="M192.639 280.926 L210.996 280.926 L210.996 284.861 L196.922 284.861 L196.922 293.333 Q197.94 292.986 198.959 292.824 Q199.977 292.638 200.996 292.638 Q206.783 292.638 210.162 295.81 Q213.542 298.981 213.542 304.398 Q213.542 309.976 210.07 313.078 Q206.598 316.157 200.278 316.157 Q198.102 316.157 195.834 315.786 Q193.588 315.416 191.181 314.675 L191.181 309.976 Q193.264 311.111 195.487 311.666 Q197.709 312.222 200.186 312.222 Q204.19 312.222 206.528 310.115 Q208.866 308.009 208.866 304.398 Q208.866 300.787 206.528 298.68 Q204.19 296.574 200.186 296.574 Q198.311 296.574 196.436 296.99 Q194.584 297.407 192.639 298.287 L192.639 280.926 Z" fill="#000000" fill-rule="nonzero" fill-opacity="1" /><path clip-path="url(#clip990)" d="M16.4842 1133.04 L16.4842 1123.46 L48.8219 1111.33 L16.4842 1099.14 L16.4842 1089.56 L64.0042 1089.56 L64.0042 1095.83 L22.277 1095.83 L54.8694 1108.08 L54.8694 1114.54 L22.277 1126.8 L64.0042 1126.8 L64.0042 1133.04 L16.4842 1133.04 Z" fill="#000000" fill-rule="nonzero" fill-opacity="1" /><path clip-path="url(#clip990)" d="M44.7161 1046.56 L47.5806 1046.56 L47.5806 1073.48 Q53.6281 1073.1 56.8109 1069.86 Q59.9619 1066.58 59.9619 1060.75 Q59.9619 1057.38 59.1344 1054.23 Q58.3069 1051.05 56.6518 1047.93 L62.1899 1047.93 Q63.5267 1051.08 64.227 1054.39 Q64.9272 1057.7 64.9272 1061.1 Q64.9272 1069.63 59.9619 1074.63 Q54.9967 1079.6 46.5303 1079.6 Q37.7774 1079.6 32.6531 1074.89 Q27.4968 1070.14 27.4968 1062.12 Q27.4968 1054.93 32.1438 1050.76 Q36.7589 1046.56 44.7161 1046.56 M42.9973 1052.41 Q38.1912 1052.48 35.3266 1055.12 Q32.4621 1057.73 32.4621 1062.06 Q32.4621 1066.96 35.2312 1069.92 Q38.0002 1072.85 43.0292 1073.29 L42.9973 1052.41 Z" fill="#000000" fill-rule="nonzero" fill-opacity="1" /><path clip-path="url(#clip990)" d="M46.0847 1020.75 Q46.0847 1027.84 47.7079 1030.58 Q49.3312 1033.32 53.2461 1033.32 Q56.3653 1033.32 58.2114 1031.28 Q60.0256 1029.21 60.0256 1025.68 Q60.0256 1020.81 56.5881 1017.88 Q53.1188 1014.92 47.3897 1014.92 L46.0847 1014.92 L46.0847 1020.75 M43.6657 1009.06 L64.0042 1009.06 L64.0042 1014.92 L58.5933 1014.92 Q61.8398 1016.93 63.3994 1019.92 Q64.9272 1022.91 64.9272 1027.24 Q64.9272 1032.71 61.8716 1035.96 Q58.7843 1039.17 53.6281 1039.17 Q47.6125 1039.17 44.5569 1035.16 Q41.5014 1031.12 41.5014 1023.13 L41.5014 1014.92 L40.9285 1014.92 Q36.8862 1014.92 34.6901 1017.59 Q32.4621 1020.24 32.4621 1025.04 Q32.4621 1028.1 33.1941 1030.99 Q33.9262 1033.89 35.3903 1036.56 L29.9795 1036.56 Q28.7381 1033.35 28.1334 1030.33 Q27.4968 1027.3 27.4968 1024.44 Q27.4968 1016.7 31.5072 1012.88 Q35.5176 1009.06 43.6657 1009.06 Z" fill="#000000" fill-rule="nonzero" fill-opacity="1" /><path clip-path="url(#clip990)" d="M42.4881 967.369 L64.0042 967.369 L64.0042 973.225 L42.679 973.225 Q37.6183 973.225 35.1038 975.198 Q32.5894 977.172 32.5894 981.119 Q32.5894 985.861 35.6131 988.598 Q38.6368 991.336 43.8567 991.336 L64.0042 991.336 L64.0042 997.224 L28.3562 997.224 L28.3562 991.336 L33.8944 991.336 Q30.6797 989.235 29.0883 986.402 Q27.4968 983.538 27.4968 979.814 Q27.4968 973.671 31.3163 970.52 Q35.1038 967.369 42.4881 967.369 Z" fill="#000000" fill-rule="nonzero" fill-opacity="1" /><path clip-path="url(#clip990)" d="M16.4842 934.713 L16.4842 904.666 L21.895 904.666 L21.895 928.283 L35.9632 928.283 L35.9632 905.653 L41.3741 905.653 L41.3741 928.283 L58.5933 928.283 L58.5933 904.094 L64.0042 904.094 L64.0042 934.713 L16.4842 934.713 Z" fill="#000000" fill-rule="nonzero" fill-opacity="1" /><path clip-path="url(#clip990)" d="M33.8307 873.124 Q33.2578 874.111 33.0032 875.289 Q32.7167 876.435 32.7167 877.835 Q32.7167 882.8 35.9632 885.474 Q39.1779 888.116 45.2253 888.116 L64.0042 888.116 L64.0042 894.004 L28.3562 894.004 L28.3562 888.116 L33.8944 888.116 Q30.6479 886.27 29.0883 883.309 Q27.4968 880.349 27.4968 876.116 Q27.4968 875.511 27.5923 874.779 Q27.656 874.047 27.8151 873.156 L33.8307 873.124 Z" fill="#000000" fill-rule="nonzero" fill-opacity="1" /><path clip-path="url(#clip990)" d="M33.8307 847.471 Q33.2578 848.457 33.0032 849.635 Q32.7167 850.781 32.7167 852.181 Q32.7167 857.146 35.9632 859.82 Q39.1779 862.462 45.2253 862.462 L64.0042 862.462 L64.0042 868.35 L28.3562 868.35 L28.3562 862.462 L33.8944 862.462 Q30.6479 860.616 29.0883 857.656 Q27.4968 854.696 27.4968 850.462 Q27.4968 849.858 27.5923 849.126 Q27.656 848.394 27.8151 847.502 L33.8307 847.471 Z" fill="#000000" fill-rule="nonzero" fill-opacity="1" /><path clip-path="url(#clip990)" d="M32.4621 828.946 Q32.4621 833.657 36.1542 836.394 Q39.8145 839.131 46.212 839.131 Q52.6095 839.131 56.3017 836.426 Q59.9619 833.689 59.9619 828.946 Q59.9619 824.268 56.2698 821.53 Q52.5777 818.793 46.212 818.793 Q39.8781 818.793 36.186 821.53 Q32.4621 824.268 32.4621 828.946 M27.4968 828.946 Q27.4968 821.307 32.4621 816.947 Q37.4273 812.586 46.212 812.586 Q54.9649 812.586 59.9619 816.947 Q64.9272 821.307 64.9272 828.946 Q64.9272 836.617 59.9619 840.978 Q54.9649 845.306 46.212 845.306 Q37.4273 845.306 32.4621 840.978 Q27.4968 836.617 27.4968 828.946 Z" fill="#000000" fill-rule="nonzero" fill-opacity="1" /><path clip-path="url(#clip990)" d="M33.8307 782.222 Q33.2578 783.209 33.0032 784.386 Q32.7167 785.532 32.7167 786.933 Q32.7167 791.898 35.9632 794.572 Q39.1779 797.213 45.2253 797.213 L64.0042 797.213 L64.0042 803.102 L28.3562 803.102 L28.3562 797.213 L33.8944 797.213 Q30.6479 795.367 29.0883 792.407 Q27.4968 789.447 27.4968 785.214 Q27.4968 784.609 27.5923 783.877 Q27.656 783.145 27.8151 782.254 L33.8307 782.222 Z" fill="#000000" fill-rule="nonzero" fill-opacity="1" /><path clip-path="url(#clip990)" d="M28.3562 725.726 L45.7028 738.617 L64.0042 725.058 L64.0042 731.965 L49.9996 742.341 L64.0042 752.717 L64.0042 759.624 L45.3526 745.778 L28.3562 758.446 L28.3562 751.539 L41.0558 742.086 L28.3562 732.633 L28.3562 725.726 Z" fill="#000000" fill-rule="nonzero" fill-opacity="1" /><path clip-path="url(#clip990)" d="M16.4842 711.244 L34.149 711.244 L34.149 716.655 L16.4842 716.655 L16.4842 711.244 Z" fill="#000000" fill-rule="nonzero" fill-opacity="1" /><path clip-path="url(#clip990)" d="M44.0477 673.368 Q46.403 673.146 50.2224 671.14 Q54.6466 668.785 57.1292 664.329 Q59.5482 659.969 59.58 655.258 L59.58 633.074 L64.6407 633.074 L64.6407 655.258 Q64.6407 661.369 61.4897 667.035 Q58.3387 672.668 52.7369 675.692 Q47.135 678.716 41.1831 678.716 Q35.2948 678.716 29.693 675.692 Q24.0912 672.668 20.9083 667.035 Q17.7255 661.369 17.7255 655.258 L17.7255 633.074 L22.7862 633.074 L22.7862 655.258 Q22.818 659.969 25.2688 664.329 Q27.7833 668.753 32.1756 671.14 Q35.995 673.178 38.9551 673.464 L38.9551 633.074 L44.0477 633.074 L44.0477 673.368 Z" fill="#000000" fill-rule="nonzero" fill-opacity="1" /><path clip-path="url(#clip990)" d="M14.479 601.181 L14.479 587.686 L19.0304 587.686 L19.0304 595.325 L68.0464 595.325 L68.0464 587.686 L72.5979 587.686 L72.5979 601.181 L14.479 601.181 Z" fill="#000000" fill-rule="nonzero" fill-opacity="1" /><path clip-path="url(#clip990)" d="M43.5384 578.169 L43.5384 561.014 L48.7583 561.014 L48.7583 578.169 L43.5384 578.169 Z" fill="#000000" fill-rule="nonzero" fill-opacity="1" /><path clip-path="url(#clip990)" d="M58.5933 549.746 L58.5933 539.243 L22.3406 539.243 L24.6323 550.669 L18.7758 550.669 L16.4842 539.307 L16.4842 532.877 L58.5933 532.877 L58.5933 522.374 L64.0042 522.374 L64.0042 549.746 L58.5933 549.746 Z" fill="#000000" fill-rule="nonzero" fill-opacity="1" /><path clip-path="url(#clip990)" d="M55.9197 508.719 L55.9197 502.004 L61.3942 502.004 L71.5793 507.224 L71.5793 511.329 L61.3942 508.719 L55.9197 508.719 Z" fill="#000000" fill-rule="nonzero" fill-opacity="1" /><path clip-path="url(#clip990)" d="M58.5933 466.833 L58.5933 456.33 L22.3406 456.33 L24.6323 467.756 L18.7758 467.756 L16.4842 456.393 L16.4842 449.964 L58.5933 449.964 L58.5933 439.461 L64.0042 439.461 L64.0042 466.833 L58.5933 466.833 Z" fill="#000000" fill-rule="nonzero" fill-opacity="1" /><path clip-path="url(#clip990)" d="M14.479 413.616 L72.5979 413.616 L72.5979 427.111 L68.0464 427.111 L68.0464 419.504 L19.0304 419.504 L19.0304 427.111 L14.479 427.111 L14.479 413.616 Z" fill="#000000" fill-rule="nonzero" fill-opacity="1" /><path clip-path="url(#clip990)" d="M664.002 12.096 L672.185 12.096 L672.185 65.6895 L701.635 65.6895 L701.635 72.576 L664.002 72.576 L664.002 12.096 Z" fill="#000000" fill-rule="nonzero" fill-opacity="1" /><path clip-path="url(#clip990)" d="M747.249 48.0275 L747.249 51.6733 L712.978 51.6733 Q713.464 59.3701 717.596 63.421 Q721.768 67.4314 729.182 67.4314 Q733.476 67.4314 737.486 66.3781 Q741.537 65.3249 745.507 63.2184 L745.507 70.267 Q741.496 71.9684 737.283 72.8596 Q733.07 73.7508 728.736 73.7508 Q717.88 73.7508 711.52 67.4314 Q705.2 61.1119 705.2 50.3365 Q705.2 39.1965 711.196 32.6746 Q717.231 26.1121 727.44 26.1121 Q736.595 26.1121 741.901 32.0264 Q747.249 37.9003 747.249 48.0275 M739.795 45.84 Q739.714 39.7232 736.352 36.0774 Q733.03 32.4315 727.521 32.4315 Q721.282 32.4315 717.515 35.9558 Q713.788 39.4801 713.221 45.8805 L739.795 45.84 Z" fill="#000000" fill-rule="nonzero" fill-opacity="1" /><path clip-path="url(#clip990)" d="M789.337 49.3643 Q789.337 41.2625 785.975 36.8065 Q782.653 32.3505 776.618 32.3505 Q770.622 32.3505 767.26 36.8065 Q763.938 41.2625 763.938 49.3643 Q763.938 57.4256 767.26 61.8816 Q770.622 66.3376 776.618 66.3376 Q782.653 66.3376 785.975 61.8816 Q789.337 57.4256 789.337 49.3643 M796.791 66.9452 Q796.791 78.5308 791.646 84.1616 Q786.502 89.8329 775.888 89.8329 Q771.959 89.8329 768.475 89.2252 Q764.992 88.6581 761.71 87.4428 L761.71 80.1917 Q764.992 81.9741 768.192 82.8248 Q771.392 83.6755 774.714 83.6755 Q782.046 83.6755 785.692 79.8271 Q789.337 76.0193 789.337 68.282 L789.337 64.5957 Q787.028 68.6061 783.423 70.5911 Q779.818 72.576 774.795 72.576 Q766.45 72.576 761.346 66.2161 Q756.242 59.8562 756.242 49.3643 Q756.242 38.832 761.346 32.472 Q766.45 26.1121 774.795 26.1121 Q779.818 26.1121 783.423 28.0971 Q787.028 30.082 789.337 34.0924 L789.337 27.2059 L796.791 27.2059 L796.791 66.9452 Z" fill="#000000" fill-rule="nonzero" fill-opacity="1" /><path clip-path="url(#clip990)" d="M850.952 48.0275 L850.952 51.6733 L816.681 51.6733 Q817.167 59.3701 821.299 63.421 Q825.472 67.4314 832.885 67.4314 Q837.179 67.4314 841.189 66.3781 Q845.24 65.3249 849.21 63.2184 L849.21 70.267 Q845.199 71.9684 840.987 72.8596 Q836.774 73.7508 832.439 73.7508 Q821.583 73.7508 815.223 67.4314 Q808.903 61.1119 808.903 50.3365 Q808.903 39.1965 814.899 32.6746 Q820.935 26.1121 831.143 26.1121 Q840.298 26.1121 845.605 32.0264 Q850.952 37.9003 850.952 48.0275 M843.498 45.84 Q843.417 39.7232 840.055 36.0774 Q836.733 32.4315 831.224 32.4315 Q824.985 32.4315 821.218 35.9558 Q817.491 39.4801 816.924 45.8805 L843.498 45.84 Z" fill="#000000" fill-rule="nonzero" fill-opacity="1" /><path clip-path="url(#clip990)" d="M900.899 45.1919 L900.899 72.576 L893.446 72.576 L893.446 45.4349 Q893.446 38.994 890.934 35.7938 Q888.423 32.5936 883.399 32.5936 Q877.364 32.5936 873.88 36.4419 Q870.396 40.2903 870.396 46.9338 L870.396 72.576 L862.902 72.576 L862.902 27.2059 L870.396 27.2059 L870.396 34.2544 Q873.07 30.163 876.675 28.1376 Q880.321 26.1121 885.06 26.1121 Q892.879 26.1121 896.889 30.9732 Q900.899 35.7938 900.899 45.1919 Z" fill="#000000" fill-rule="nonzero" fill-opacity="1" /><path clip-path="url(#clip990)" d="M945.621 34.0924 L945.621 9.54393 L953.075 9.54393 L953.075 72.576 L945.621 72.576 L945.621 65.7705 Q943.272 69.8214 939.667 71.8063 Q936.102 73.7508 931.079 73.7508 Q922.855 73.7508 917.67 67.1883 Q912.525 60.6258 912.525 49.9314 Q912.525 39.2371 917.67 32.6746 Q922.855 26.1121 931.079 26.1121 Q936.102 26.1121 939.667 28.0971 Q943.272 30.0415 945.621 34.0924 M920.222 49.9314 Q920.222 58.1548 923.584 62.8538 Q926.987 67.5124 932.902 67.5124 Q938.816 67.5124 942.219 62.8538 Q945.621 58.1548 945.621 49.9314 Q945.621 41.7081 942.219 37.0496 Q938.816 32.3505 932.902 32.3505 Q926.987 32.3505 923.584 37.0496 Q920.222 41.7081 920.222 49.9314 Z" fill="#000000" fill-rule="nonzero" fill-opacity="1" /><path clip-path="url(#clip990)" d="M994.718 34.1734 Q993.463 33.4443 991.964 33.1202 Q990.505 32.7556 988.723 32.7556 Q982.404 32.7556 979.001 36.8875 Q975.639 40.9789 975.639 48.6757 L975.639 72.576 L968.144 72.576 L968.144 27.2059 L975.639 27.2059 L975.639 34.2544 Q977.988 30.1225 981.755 28.1376 Q985.523 26.1121 990.91 26.1121 Q991.68 26.1121 992.612 26.2337 Q993.544 26.3147 994.678 26.5172 L994.718 34.1734 Z" fill="#000000" fill-rule="nonzero" fill-opacity="1" /><path clip-path="url(#clip990)" d="M1039.52 48.0275 L1039.52 51.6733 L1005.25 51.6733 Q1005.74 59.3701 1009.87 63.421 Q1014.04 67.4314 1021.45 67.4314 Q1025.75 67.4314 1029.76 66.3781 Q1033.81 65.3249 1037.78 63.2184 L1037.78 70.267 Q1033.77 71.9684 1029.56 72.8596 Q1025.34 73.7508 1021.01 73.7508 Q1010.15 73.7508 1003.79 67.4314 Q997.473 61.1119 997.473 50.3365 Q997.473 39.1965 1003.47 32.6746 Q1009.5 26.1121 1019.71 26.1121 Q1028.87 26.1121 1034.17 32.0264 Q1039.52 37.9003 1039.52 48.0275 M1032.07 45.84 Q1031.99 39.7232 1028.62 36.0774 Q1025.3 32.4315 1019.79 32.4315 Q1013.56 32.4315 1009.79 35.9558 Q1006.06 39.4801 1005.49 45.8805 L1032.07 45.84 Z" fill="#000000" fill-rule="nonzero" fill-opacity="1" /><path clip-path="url(#clip990)" d="M1086.63 18.8205 L1086.63 65.8515 L1096.52 65.8515 Q1109.03 65.8515 1114.83 60.1802 Q1120.66 54.509 1120.66 42.2752 Q1120.66 30.1225 1114.83 24.4918 Q1109.03 18.8205 1096.52 18.8205 L1086.63 18.8205 M1078.45 12.096 L1095.26 12.096 Q1112.84 12.096 1121.07 19.4281 Q1129.29 26.7198 1129.29 42.2752 Q1129.29 57.9117 1121.03 65.2439 Q1112.76 72.576 1095.26 72.576 L1078.45 72.576 L1078.45 12.096 Z" fill="#000000" fill-rule="nonzero" fill-opacity="1" /><path clip-path="url(#clip990)" d="M1159.59 32.4315 Q1153.59 32.4315 1150.11 37.1306 Q1146.63 41.7891 1146.63 49.9314 Q1146.63 58.0738 1150.07 62.7728 Q1153.55 67.4314 1159.59 67.4314 Q1165.54 67.4314 1169.03 62.7323 Q1172.51 58.0333 1172.51 49.9314 Q1172.51 41.8701 1169.03 37.1711 Q1165.54 32.4315 1159.59 32.4315 M1159.59 26.1121 Q1169.31 26.1121 1174.86 32.4315 Q1180.41 38.7509 1180.41 49.9314 Q1180.41 61.0714 1174.86 67.4314 Q1169.31 73.7508 1159.59 73.7508 Q1149.83 73.7508 1144.28 67.4314 Q1138.77 61.0714 1138.77 49.9314 Q1138.77 38.7509 1144.28 32.4315 Q1149.83 26.1121 1159.59 26.1121 Z" fill="#000000" fill-rule="nonzero" fill-opacity="1" /><path clip-path="url(#clip990)" d="M1228.09 35.9153 Q1230.89 30.8922 1234.77 28.5022 Q1238.66 26.1121 1243.93 26.1121 Q1251.02 26.1121 1254.87 31.0947 Q1258.72 36.0368 1258.72 45.1919 L1258.72 72.576 L1251.22 72.576 L1251.22 45.4349 Q1251.22 38.913 1248.91 35.7533 Q1246.6 32.5936 1241.86 32.5936 Q1236.07 32.5936 1232.71 36.4419 Q1229.35 40.2903 1229.35 46.9338 L1229.35 72.576 L1221.85 72.576 L1221.85 45.4349 Q1221.85 38.8725 1219.54 35.7533 Q1217.23 32.5936 1212.41 32.5936 Q1206.7 32.5936 1203.34 36.4824 Q1199.98 40.3308 1199.98 46.9338 L1199.98 72.576 L1192.48 72.576 L1192.48 27.2059 L1199.98 27.2059 L1199.98 34.2544 Q1202.53 30.082 1206.09 28.0971 Q1209.66 26.1121 1214.56 26.1121 Q1219.5 26.1121 1222.95 28.6237 Q1226.43 31.1352 1228.09 35.9153 Z" fill="#000000" fill-rule="nonzero" fill-opacity="1" /><path clip-path="url(#clip990)" d="M1294.2 49.7694 Q1285.17 49.7694 1281.68 51.8354 Q1278.2 53.9013 1278.2 58.8839 Q1278.2 62.8538 1280.79 65.2034 Q1283.43 67.5124 1287.92 67.5124 Q1294.12 67.5124 1297.85 63.1374 Q1301.61 58.7219 1301.61 51.4303 L1301.61 49.7694 L1294.2 49.7694 M1309.07 46.6907 L1309.07 72.576 L1301.61 72.576 L1301.61 65.6895 Q1299.06 69.8214 1295.25 71.8063 Q1291.45 73.7508 1285.94 73.7508 Q1278.97 73.7508 1274.84 69.8619 Q1270.75 65.9325 1270.75 59.3701 Q1270.75 51.7138 1275.85 47.825 Q1281 43.9361 1291.16 43.9361 L1301.61 43.9361 L1301.61 43.2069 Q1301.61 38.0623 1298.21 35.2672 Q1294.85 32.4315 1288.73 32.4315 Q1284.84 32.4315 1281.16 33.3632 Q1277.47 34.295 1274.07 36.1584 L1274.07 29.2718 Q1278.16 27.692 1282.01 26.9223 Q1285.86 26.1121 1289.5 26.1121 Q1299.35 26.1121 1304.21 31.2163 Q1309.07 36.3204 1309.07 46.6907 Z" fill="#000000" fill-rule="nonzero" fill-opacity="1" /><path clip-path="url(#clip990)" d="M1324.42 27.2059 L1331.88 27.2059 L1331.88 72.576 L1324.42 72.576 L1324.42 27.2059 M1324.42 9.54393 L1331.88 9.54393 L1331.88 18.9825 L1324.42 18.9825 L1324.42 9.54393 Z" fill="#000000" fill-rule="nonzero" fill-opacity="1" /><path clip-path="url(#clip990)" d="M1385.18 45.1919 L1385.18 72.576 L1377.73 72.576 L1377.73 45.4349 Q1377.73 38.994 1375.22 35.7938 Q1372.71 32.5936 1367.69 32.5936 Q1361.65 32.5936 1358.17 36.4419 Q1354.68 40.2903 1354.68 46.9338 L1354.68 72.576 L1347.19 72.576 L1347.19 27.2059 L1354.68 27.2059 L1354.68 34.2544 Q1357.36 30.163 1360.96 28.1376 Q1364.61 26.1121 1369.35 26.1121 Q1377.16 26.1121 1381.17 30.9732 Q1385.18 35.7938 1385.18 45.1919 Z" fill="#000000" fill-rule="nonzero" fill-opacity="1" /><path clip-path="url(#clip990)" d="M1426.75 12.096 L1438.94 12.096 L1454.37 53.2532 L1469.89 12.096 L1482.08 12.096 L1482.08 72.576 L1474.1 72.576 L1474.1 19.4686 L1458.51 60.9499 L1450.28 60.9499 L1434.69 19.4686 L1434.69 72.576 L1426.75 72.576 L1426.75 12.096 Z" fill="#000000" fill-rule="nonzero" fill-opacity="1" /><path clip-path="url(#clip990)" d="M1518.62 49.7694 Q1509.59 49.7694 1506.1 51.8354 Q1502.62 53.9013 1502.62 58.8839 Q1502.62 62.8538 1505.21 65.2034 Q1507.85 67.5124 1512.34 67.5124 Q1518.54 67.5124 1522.27 63.1374 Q1526.03 58.7219 1526.03 51.4303 L1526.03 49.7694 L1518.62 49.7694 M1533.49 46.6907 L1533.49 72.576 L1526.03 72.576 L1526.03 65.6895 Q1523.48 69.8214 1519.67 71.8063 Q1515.87 73.7508 1510.36 73.7508 Q1503.39 73.7508 1499.26 69.8619 Q1495.17 65.9325 1495.17 59.3701 Q1495.17 51.7138 1500.27 47.825 Q1505.42 43.9361 1515.58 43.9361 L1526.03 43.9361 L1526.03 43.2069 Q1526.03 38.0623 1522.63 35.2672 Q1519.27 32.4315 1513.15 32.4315 Q1509.26 32.4315 1505.58 33.3632 Q1501.89 34.295 1498.49 36.1584 L1498.49 29.2718 Q1502.58 27.692 1506.43 26.9223 Q1510.28 26.1121 1513.92 26.1121 Q1523.77 26.1121 1528.63 31.2163 Q1533.49 36.3204 1533.49 46.6907 Z" fill="#000000" fill-rule="nonzero" fill-opacity="1" /><path clip-path="url(#clip990)" d="M1575.13 34.1734 Q1573.88 33.4443 1572.38 33.1202 Q1570.92 32.7556 1569.14 32.7556 Q1562.82 32.7556 1559.41 36.8875 Q1556.05 40.9789 1556.05 48.6757 L1556.05 72.576 L1548.56 72.576 L1548.56 27.2059 L1556.05 27.2059 L1556.05 34.2544 Q1558.4 30.1225 1562.17 28.1376 Q1565.94 26.1121 1571.32 26.1121 Q1572.09 26.1121 1573.03 26.2337 Q1573.96 26.3147 1575.09 26.5172 L1575.13 34.1734 Z" fill="#000000" fill-rule="nonzero" fill-opacity="1" /><path clip-path="url(#clip990)" d="M1611.35 49.3643 Q1611.35 41.2625 1607.98 36.8065 Q1604.66 32.3505 1598.63 32.3505 Q1592.63 32.3505 1589.27 36.8065 Q1585.95 41.2625 1585.95 49.3643 Q1585.95 57.4256 1589.27 61.8816 Q1592.63 66.3376 1598.63 66.3376 Q1604.66 66.3376 1607.98 61.8816 Q1611.35 57.4256 1611.35 49.3643 M1618.8 66.9452 Q1618.8 78.5308 1613.66 84.1616 Q1608.51 89.8329 1597.9 89.8329 Q1593.97 89.8329 1590.48 89.2252 Q1587 88.6581 1583.72 87.4428 L1583.72 80.1917 Q1587 81.9741 1590.2 82.8248 Q1593.4 83.6755 1596.72 83.6755 Q1604.06 83.6755 1607.7 79.8271 Q1611.35 76.0193 1611.35 68.282 L1611.35 64.5957 Q1609.04 68.6061 1605.43 70.5911 Q1601.83 72.576 1596.8 72.576 Q1588.46 72.576 1583.36 66.2161 Q1578.25 59.8562 1578.25 49.3643 Q1578.25 38.832 1583.36 32.472 Q1588.46 26.1121 1596.8 26.1121 Q1601.83 26.1121 1605.43 28.0971 Q1609.04 30.082 1611.35 34.0924 L1611.35 27.2059 L1618.8 27.2059 L1618.8 66.9452 Z" fill="#000000" fill-rule="nonzero" fill-opacity="1" /><path clip-path="url(#clip990)" d="M1634.15 27.2059 L1641.61 27.2059 L1641.61 72.576 L1634.15 72.576 L1634.15 27.2059 M1634.15 9.54393 L1641.61 9.54393 L1641.61 18.9825 L1634.15 18.9825 L1634.15 9.54393 Z" fill="#000000" fill-rule="nonzero" fill-opacity="1" /><path clip-path="url(#clip990)" d="M1694.92 45.1919 L1694.92 72.576 L1687.46 72.576 L1687.46 45.4349 Q1687.46 38.994 1684.95 35.7938 Q1682.44 32.5936 1677.42 32.5936 Q1671.38 32.5936 1667.9 36.4419 Q1664.41 40.2903 1664.41 46.9338 L1664.41 72.576 L1656.92 72.576 L1656.92 27.2059 L1664.41 27.2059 L1664.41 34.2544 Q1667.09 30.163 1670.69 28.1376 Q1674.34 26.1121 1679.08 26.1121 Q1686.9 26.1121 1690.91 30.9732 Q1694.92 35.7938 1694.92 45.1919 Z" fill="#000000" fill-rule="nonzero" fill-opacity="1" /><path clip-path="url(#clip990)" d="M1730.4 49.7694 Q1721.37 49.7694 1717.89 51.8354 Q1714.4 53.9013 1714.4 58.8839 Q1714.4 62.8538 1716.99 65.2034 Q1719.63 67.5124 1724.12 67.5124 Q1730.32 67.5124 1734.05 63.1374 Q1737.82 58.7219 1737.82 51.4303 L1737.82 49.7694 L1730.4 49.7694 M1745.27 46.6907 L1745.27 72.576 L1737.82 72.576 L1737.82 65.6895 Q1735.26 69.8214 1731.46 71.8063 Q1727.65 73.7508 1722.14 73.7508 Q1715.17 73.7508 1711.04 69.8619 Q1706.95 65.9325 1706.95 59.3701 Q1706.95 51.7138 1712.05 47.825 Q1717.2 43.9361 1727.36 43.9361 L1737.82 43.9361 L1737.82 43.2069 Q1737.82 38.0623 1734.41 35.2672 Q1731.05 32.4315 1724.93 32.4315 Q1721.05 32.4315 1717.36 33.3632 Q1713.67 34.295 1710.27 36.1584 L1710.27 29.2718 Q1714.36 27.692 1718.21 26.9223 Q1722.06 26.1121 1725.7 26.1121 Q1735.55 26.1121 1740.41 31.2163 Q1745.27 36.3204 1745.27 46.6907 Z" fill="#000000" fill-rule="nonzero" fill-opacity="1" /><path clip-path="url(#clip990)" d="M1760.62 9.54393 L1768.08 9.54393 L1768.08 72.576 L1760.62 72.576 L1760.62 9.54393 Z" fill="#000000" fill-rule="nonzero" fill-opacity="1" /><path clip-path="url(#clip990)" d="M1783.67 27.2059 L1791.13 27.2059 L1791.13 72.576 L1783.67 72.576 L1783.67 27.2059 M1783.67 9.54393 L1791.13 9.54393 L1791.13 18.9825 L1783.67 18.9825 L1783.67 9.54393 Z" fill="#000000" fill-rule="nonzero" fill-opacity="1" /><path clip-path="url(#clip990)" d="M1835.65 28.5427 L1835.65 35.5912 Q1832.49 33.9709 1829.08 33.1607 Q1825.68 32.3505 1822.03 32.3505 Q1816.48 32.3505 1813.69 34.0519 Q1810.94 35.7533 1810.94 39.156 Q1810.94 41.7486 1812.92 43.2475 Q1814.9 44.7058 1820.9 46.0426 L1823.45 46.6097 Q1831.39 48.3111 1834.71 51.4303 Q1838.08 54.509 1838.08 60.0587 Q1838.08 66.3781 1833.05 70.0644 Q1828.07 73.7508 1819.32 73.7508 Q1815.67 73.7508 1811.7 73.0216 Q1807.78 72.3329 1803.4 70.9151 L1803.4 63.2184 Q1807.53 65.3654 1811.54 66.4591 Q1815.55 67.5124 1819.48 67.5124 Q1824.75 67.5124 1827.58 65.73 Q1830.42 63.9071 1830.42 60.6258 Q1830.42 57.5877 1828.35 55.9673 Q1826.33 54.3469 1819.4 52.8481 L1816.81 52.2405 Q1809.88 50.7821 1806.8 47.7845 Q1803.72 44.7463 1803.72 39.4801 Q1803.72 33.0797 1808.26 29.5959 Q1812.8 26.1121 1821.14 26.1121 Q1825.28 26.1121 1828.92 26.7198 Q1832.57 27.3274 1835.65 28.5427 Z" fill="#000000" fill-rule="nonzero" fill-opacity="1" /><path clip-path="url(#clip990)" d="M1888.75 48.0275 L1888.75 51.6733 L1854.48 51.6733 Q1854.97 59.3701 1859.1 63.421 Q1863.27 67.4314 1870.69 67.4314 Q1874.98 67.4314 1878.99 66.3781 Q1883.04 65.3249 1887.01 63.2184 L1887.01 70.267 Q1883 71.9684 1878.79 72.8596 Q1874.57 73.7508 1870.24 73.7508 Q1859.38 73.7508 1853.02 67.4314 Q1846.7 61.1119 1846.7 50.3365 Q1846.7 39.1965 1852.7 32.6746 Q1858.74 26.1121 1868.94 26.1121 Q1878.1 26.1121 1883.41 32.0264 Q1888.75 37.9003 1888.75 48.0275 M1881.3 45.84 Q1881.22 39.7232 1877.86 36.0774 Q1874.53 32.4315 1869.02 32.4315 Q1862.79 32.4315 1859.02 35.9558 Q1855.29 39.4801 1854.73 45.8805 L1881.3 45.84 Z" fill="#000000" fill-rule="nonzero" fill-opacity="1" /><path clip-path="url(#clip990)" d="M1930.84 34.0924 L1930.84 9.54393 L1938.3 9.54393 L1938.3 72.576 L1930.84 72.576 L1930.84 65.7705 Q1928.49 69.8214 1924.89 71.8063 Q1921.32 73.7508 1916.3 73.7508 Q1908.08 73.7508 1902.89 67.1883 Q1897.75 60.6258 1897.75 49.9314 Q1897.75 39.2371 1902.89 32.6746 Q1908.08 26.1121 1916.3 26.1121 Q1921.32 26.1121 1924.89 28.0971 Q1928.49 30.0415 1930.84 34.0924 M1905.44 49.9314 Q1905.44 58.1548 1908.8 62.8538 Q1912.21 67.5124 1918.12 67.5124 Q1924.04 67.5124 1927.44 62.8538 Q1930.84 58.1548 1930.84 49.9314 Q1930.84 41.7081 1927.44 37.0496 Q1924.04 32.3505 1918.12 32.3505 Q1912.21 32.3505 1908.8 37.0496 Q1905.44 41.7081 1905.44 49.9314 Z" fill="#000000" fill-rule="nonzero" fill-opacity="1" /><polyline clip-path="url(#clip992)" style="stroke:#1f77b4; stroke-linecap:round; stroke-linejoin:round; stroke-width:8; stroke-opacity:1; fill:none" points="309.067,523.946 425.782,732.974 542.498,863.439 659.214,952.077 775.929,1016.1 892.645,1064.46 1009.36,1102.27 1126.08,1132.62 1242.79,1157.52 1359.51,1178.31 1476.22,1195.94 1592.94,1211.05 1709.65,1224.17 1826.37,1235.65 1943.08,1245.79 2059.8,1254.81 2176.52,1262.88 2293.23,1270.14 "/>
<circle clip-path="url(#clip992)" cx="309.067" cy="523.946" r="14.4" fill="#1f77b4" fill-rule="evenodd" fill-opacity="1" stroke="#000000" stroke-opacity="1" stroke-width="3.2"/>
<circle clip-path="url(#clip992)" cx="425.782" cy="732.974" r="14.4" fill="#1f77b4" fill-rule="evenodd" fill-opacity="1" stroke="#000000" stroke-opacity="1" stroke-width="3.2"/>
<circle clip-path="url(#clip992)" cx="542.498" cy="863.439" r="14.4" fill="#1f77b4" fill-rule="evenodd" fill-opacity="1" stroke="#000000" stroke-opacity="1" stroke-width="3.2"/>
<circle clip-path="url(#clip992)" cx="659.214" cy="952.077" r="14.4" fill="#1f77b4" fill-rule="evenodd" fill-opacity="1" stroke="#000000" stroke-opacity="1" stroke-width="3.2"/>
<circle clip-path="url(#clip992)" cx="775.929" cy="1016.1" r="14.4" fill="#1f77b4" fill-rule="evenodd" fill-opacity="1" stroke="#000000" stroke-opacity="1" stroke-width="3.2"/>
<circle clip-path="url(#clip992)" cx="892.645" cy="1064.46" r="14.4" fill="#1f77b4" fill-rule="evenodd" fill-opacity="1" stroke="#000000" stroke-opacity="1" stroke-width="3.2"/>
<circle clip-path="url(#clip992)" cx="1009.36" cy="1102.27" r="14.4" fill="#1f77b4" fill-rule="evenodd" fill-opacity="1" stroke="#000000" stroke-opacity="1" stroke-width="3.2"/>
<circle clip-path="url(#clip992)" cx="1126.08" cy="1132.62" r="14.4" fill="#1f77b4" fill-rule="evenodd" fill-opacity="1" stroke="#000000" stroke-opacity="1" stroke-width="3.2"/>
<circle clip-path="url(#clip992)" cx="1242.79" cy="1157.52" r="14.4" fill="#1f77b4" fill-rule="evenodd" fill-opacity="1" stroke="#000000" stroke-opacity="1" stroke-width="3.2"/>
<circle clip-path="url(#clip992)" cx="1359.51" cy="1178.31" r="14.4" fill="#1f77b4" fill-rule="evenodd" fill-opacity="1" stroke="#000000" stroke-opacity="1" stroke-width="3.2"/>
<circle clip-path="url(#clip992)" cx="1476.22" cy="1195.94" r="14.4" fill="#1f77b4" fill-rule="evenodd" fill-opacity="1" stroke="#000000" stroke-opacity="1" stroke-width="3.2"/>
<circle clip-path="url(#clip992)" cx="1592.94" cy="1211.05" r="14.4" fill="#1f77b4" fill-rule="evenodd" fill-opacity="1" stroke="#000000" stroke-opacity="1" stroke-width="3.2"/>
<circle clip-path="url(#clip992)" cx="1709.65" cy="1224.17" r="14.4" fill="#1f77b4" fill-rule="evenodd" fill-opacity="1" stroke="#000000" stroke-opacity="1" stroke-width="3.2"/>
<circle clip-path="url(#clip992)" cx="1826.37" cy="1235.65" r="14.4" fill="#1f77b4" fill-rule="evenodd" fill-opacity="1" stroke="#000000" stroke-opacity="1" stroke-width="3.2"/>
<circle clip-path="url(#clip992)" cx="1943.08" cy="1245.79" r="14.4" fill="#1f77b4" fill-rule="evenodd" fill-opacity="1" stroke="#000000" stroke-opacity="1" stroke-width="3.2"/>
<circle clip-path="url(#clip992)" cx="2059.8" cy="1254.81" r="14.4" fill="#1f77b4" fill-rule="evenodd" fill-opacity="1" stroke="#000000" stroke-opacity="1" stroke-width="3.2"/>
<circle clip-path="url(#clip992)" cx="2176.52" cy="1262.88" r="14.4" fill="#1f77b4" fill-rule="evenodd" fill-opacity="1" stroke="#000000" stroke-opacity="1" stroke-width="3.2"/>
<circle clip-path="url(#clip992)" cx="2293.23" cy="1270.14" r="14.4" fill="#1f77b4" fill-rule="evenodd" fill-opacity="1" stroke="#000000" stroke-opacity="1" stroke-width="3.2"/>
<polyline clip-path="url(#clip992)" style="stroke:#ff7e0d; stroke-linecap:round; stroke-linejoin:round; stroke-width:8; stroke-opacity:1; fill:none" points="309.067,160.256 425.782,778.429 542.498,1027.83 659.214,1153.07 775.929,1224.97 892.645,1270.11 1009.36,1300.36 1126.08,1319.84 1242.79,1332.65 1359.51,1344.14 1476.22,1354.22 1592.94,1362.14 1709.65,1368.49 1826.37,1373.3 1943.08,1377.41 2059.8,1380.98 2176.52,1383.94 2293.23,1386.4 "/>
<circle clip-path="url(#clip992)" cx="309.067" cy="160.256" r="14.4" fill="#ff7e0d" fill-rule="evenodd" fill-opacity="1" stroke="#000000" stroke-opacity="1" stroke-width="3.2"/>
<circle clip-path="url(#clip992)" cx="425.782" cy="778.429" r="14.4" fill="#ff7e0d" fill-rule="evenodd" fill-opacity="1" stroke="#000000" stroke-opacity="1" stroke-width="3.2"/>
<circle clip-path="url(#clip992)" cx="542.498" cy="1027.83" r="14.4" fill="#ff7e0d" fill-rule="evenodd" fill-opacity="1" stroke="#000000" stroke-opacity="1" stroke-width="3.2"/>
<circle clip-path="url(#clip992)" cx="659.214" cy="1153.07" r="14.4" fill="#ff7e0d" fill-rule="evenodd" fill-opacity="1" stroke="#000000" stroke-opacity="1" stroke-width="3.2"/>
<circle clip-path="url(#clip992)" cx="775.929" cy="1224.97" r="14.4" fill="#ff7e0d" fill-rule="evenodd" fill-opacity="1" stroke="#000000" stroke-opacity="1" stroke-width="3.2"/>
<circle clip-path="url(#clip992)" cx="892.645" cy="1270.11" r="14.4" fill="#ff7e0d" fill-rule="evenodd" fill-opacity="1" stroke="#000000" stroke-opacity="1" stroke-width="3.2"/>
<circle clip-path="url(#clip992)" cx="1009.36" cy="1300.36" r="14.4" fill="#ff7e0d" fill-rule="evenodd" fill-opacity="1" stroke="#000000" stroke-opacity="1" stroke-width="3.2"/>
<circle clip-path="url(#clip992)" cx="1126.08" cy="1319.84" r="14.4" fill="#ff7e0d" fill-rule="evenodd" fill-opacity="1" stroke="#000000" stroke-opacity="1" stroke-width="3.2"/>
<circle clip-path="url(#clip992)" cx="1242.79" cy="1332.65" r="14.4" fill="#ff7e0d" fill-rule="evenodd" fill-opacity="1" stroke="#000000" stroke-opacity="1" stroke-width="3.2"/>
<circle clip-path="url(#clip992)" cx="1359.51" cy="1344.14" r="14.4" fill="#ff7e0d" fill-rule="evenodd" fill-opacity="1" stroke="#000000" stroke-opacity="1" stroke-width="3.2"/>
<circle clip-path="url(#clip992)" cx="1476.22" cy="1354.22" r="14.4" fill="#ff7e0d" fill-rule="evenodd" fill-opacity="1" stroke="#000000" stroke-opacity="1" stroke-width="3.2"/>
<circle clip-path="url(#clip992)" cx="1592.94" cy="1362.14" r="14.4" fill="#ff7e0d" fill-rule="evenodd" fill-opacity="1" stroke="#000000" stroke-opacity="1" stroke-width="3.2"/>
<circle clip-path="url(#clip992)" cx="1709.65" cy="1368.49" r="14.4" fill="#ff7e0d" fill-rule="evenodd" fill-opacity="1" stroke="#000000" stroke-opacity="1" stroke-width="3.2"/>
<circle clip-path="url(#clip992)" cx="1826.37" cy="1373.3" r="14.4" fill="#ff7e0d" fill-rule="evenodd" fill-opacity="1" stroke="#000000" stroke-opacity="1" stroke-width="3.2"/>
<circle clip-path="url(#clip992)" cx="1943.08" cy="1377.41" r="14.4" fill="#ff7e0d" fill-rule="evenodd" fill-opacity="1" stroke="#000000" stroke-opacity="1" stroke-width="3.2"/>
<circle clip-path="url(#clip992)" cx="2059.8" cy="1380.98" r="14.4" fill="#ff7e0d" fill-rule="evenodd" fill-opacity="1" stroke="#000000" stroke-opacity="1" stroke-width="3.2"/>
<circle clip-path="url(#clip992)" cx="2176.52" cy="1383.94" r="14.4" fill="#ff7e0d" fill-rule="evenodd" fill-opacity="1" stroke="#000000" stroke-opacity="1" stroke-width="3.2"/>
<circle clip-path="url(#clip992)" cx="2293.23" cy="1386.4" r="14.4" fill="#ff7e0d" fill-rule="evenodd" fill-opacity="1" stroke="#000000" stroke-opacity="1" stroke-width="3.2"/>
<polyline clip-path="url(#clip992)" style="stroke:#2ba02b; stroke-linecap:round; stroke-linejoin:round; stroke-width:8; stroke-opacity:1; fill:none" points="309.067,725.765 425.782,974.697 542.498,1107.09 659.214,1186.02 775.929,1237 892.645,1271.92 1009.36,1296.94 1126.08,1315.51 1242.79,1329.69 1359.51,1340.77 1476.22,1349.62 1592.94,1356.79 1709.65,1362.69 1826.37,1367.61 1943.08,1371.76 2059.8,1375.28 2176.52,1378.31 2293.23,1380.93 "/>
<circle clip-path="url(#clip992)" cx="309.067" cy="725.765" r="14.4" fill="#2ba02b" fill-rule="evenodd" fill-opacity="1" stroke="#000000" stroke-opacity="1" stroke-width="3.2"/>
<circle clip-path="url(#clip992)" cx="425.782" cy="974.697" r="14.4" fill="#2ba02b" fill-rule="evenodd" fill-opacity="1" stroke="#000000" stroke-opacity="1" stroke-width="3.2"/>
<circle clip-path="url(#clip992)" cx="542.498" cy="1107.09" r="14.4" fill="#2ba02b" fill-rule="evenodd" fill-opacity="1" stroke="#000000" stroke-opacity="1" stroke-width="3.2"/>
<circle clip-path="url(#clip992)" cx="659.214" cy="1186.02" r="14.4" fill="#2ba02b" fill-rule="evenodd" fill-opacity="1" stroke="#000000" stroke-opacity="1" stroke-width="3.2"/>
<circle clip-path="url(#clip992)" cx="775.929" cy="1237" r="14.4" fill="#2ba02b" fill-rule="evenodd" fill-opacity="1" stroke="#000000" stroke-opacity="1" stroke-width="3.2"/>
<circle clip-path="url(#clip992)" cx="892.645" cy="1271.92" r="14.4" fill="#2ba02b" fill-rule="evenodd" fill-opacity="1" stroke="#000000" stroke-opacity="1" stroke-width="3.2"/>
<circle clip-path="url(#clip992)" cx="1009.36" cy="1296.94" r="14.4" fill="#2ba02b" fill-rule="evenodd" fill-opacity="1" stroke="#000000" stroke-opacity="1" stroke-width="3.2"/>
<circle clip-path="url(#clip992)" cx="1126.08" cy="1315.51" r="14.4" fill="#2ba02b" fill-rule="evenodd" fill-opacity="1" stroke="#000000" stroke-opacity="1" stroke-width="3.2"/>
<circle clip-path="url(#clip992)" cx="1242.79" cy="1329.69" r="14.4" fill="#2ba02b" fill-rule="evenodd" fill-opacity="1" stroke="#000000" stroke-opacity="1" stroke-width="3.2"/>
<circle clip-path="url(#clip992)" cx="1359.51" cy="1340.77" r="14.4" fill="#2ba02b" fill-rule="evenodd" fill-opacity="1" stroke="#000000" stroke-opacity="1" stroke-width="3.2"/>
<circle clip-path="url(#clip992)" cx="1476.22" cy="1349.62" r="14.4" fill="#2ba02b" fill-rule="evenodd" fill-opacity="1" stroke="#000000" stroke-opacity="1" stroke-width="3.2"/>
<circle clip-path="url(#clip992)" cx="1592.94" cy="1356.79" r="14.4" fill="#2ba02b" fill-rule="evenodd" fill-opacity="1" stroke="#000000" stroke-opacity="1" stroke-width="3.2"/>
<circle clip-path="url(#clip992)" cx="1709.65" cy="1362.69" r="14.4" fill="#2ba02b" fill-rule="evenodd" fill-opacity="1" stroke="#000000" stroke-opacity="1" stroke-width="3.2"/>
<circle clip-path="url(#clip992)" cx="1826.37" cy="1367.61" r="14.4" fill="#2ba02b" fill-rule="evenodd" fill-opacity="1" stroke="#000000" stroke-opacity="1" stroke-width="3.2"/>
<circle clip-path="url(#clip992)" cx="1943.08" cy="1371.76" r="14.4" fill="#2ba02b" fill-rule="evenodd" fill-opacity="1" stroke="#000000" stroke-opacity="1" stroke-width="3.2"/>
<circle clip-path="url(#clip992)" cx="2059.8" cy="1375.28" r="14.4" fill="#2ba02b" fill-rule="evenodd" fill-opacity="1" stroke="#000000" stroke-opacity="1" stroke-width="3.2"/>
<circle clip-path="url(#clip992)" cx="2176.52" cy="1378.31" r="14.4" fill="#2ba02b" fill-rule="evenodd" fill-opacity="1" stroke="#000000" stroke-opacity="1" stroke-width="3.2"/>
<circle clip-path="url(#clip992)" cx="2293.23" cy="1380.93" r="14.4" fill="#2ba02b" fill-rule="evenodd" fill-opacity="1" stroke="#000000" stroke-opacity="1" stroke-width="3.2"/>
<path clip-path="url(#clip990)" d="M1799.23 374.156 L2282.65 374.156 L2282.65 166.796 L1799.23 166.796  Z" fill="#ffffff" fill-rule="evenodd" fill-opacity="1"/>
<polyline clip-path="url(#clip990)" style="stroke:#000000; stroke-linecap:round; stroke-linejoin:round; stroke-width:4; stroke-opacity:1; fill:none" points="1799.23,374.156 2282.65,374.156 2282.65,166.796 1799.23,166.796 1799.23,374.156 "/>
<polyline clip-path="url(#clip990)" style="stroke:#1f77b4; stroke-linecap:round; stroke-linejoin:round; stroke-width:8; stroke-opacity:1; fill:none" points="1822.6,218.636 1962.81,218.636 "/>
<path clip-path="url(#clip990)" d="M1986.18 201.356 L2008.03 201.356 L2008.03 205.291 L1990.86 205.291 L1990.86 215.522 L2007.31 215.522 L2007.31 219.457 L1990.86 219.457 L1990.86 231.981 L2008.45 231.981 L2008.45 235.916 L1986.18 235.916 L1986.18 201.356 Z" fill="#000000" fill-rule="nonzero" fill-opacity="1" /><path clip-path="url(#clip990)" d="M2037.5 209.99 L2028.12 222.606 L2037.98 235.916 L2032.96 235.916 L2025.42 225.731 L2017.87 235.916 L2012.85 235.916 L2022.92 222.351 L2013.7 209.99 L2018.73 209.99 L2025.6 219.226 L2032.48 209.99 L2037.5 209.99 Z" fill="#000000" fill-rule="nonzero" fill-opacity="1" /><path clip-path="url(#clip990)" d="M2048.12 232.027 L2048.12 245.777 L2043.84 245.777 L2043.84 209.99 L2048.12 209.99 L2048.12 213.925 Q2049.47 211.61 2051.5 210.499 Q2053.56 209.365 2056.41 209.365 Q2061.13 209.365 2064.07 213.115 Q2067.04 216.865 2067.04 222.976 Q2067.04 229.087 2064.07 232.837 Q2061.13 236.587 2056.41 236.587 Q2053.56 236.587 2051.5 235.476 Q2049.47 234.342 2048.12 232.027 M2062.61 222.976 Q2062.61 218.277 2060.67 215.615 Q2058.75 212.93 2055.37 212.93 Q2051.99 212.93 2050.04 215.615 Q2048.12 218.277 2048.12 222.976 Q2048.12 227.675 2050.04 230.36 Q2051.99 233.022 2055.37 233.022 Q2058.75 233.022 2060.67 230.36 Q2062.61 227.675 2062.61 222.976 Z" fill="#000000" fill-rule="nonzero" fill-opacity="1" /><path clip-path="url(#clip990)" d="M2096.27 221.888 L2096.27 223.971 L2076.69 223.971 Q2076.97 228.369 2079.33 230.684 Q2081.71 232.976 2085.95 232.976 Q2088.4 232.976 2090.69 232.374 Q2093.01 231.772 2095.28 230.569 L2095.28 234.596 Q2092.98 235.568 2090.58 236.078 Q2088.17 236.587 2085.69 236.587 Q2079.49 236.587 2075.85 232.976 Q2072.24 229.365 2072.24 223.207 Q2072.24 216.842 2075.67 213.115 Q2079.12 209.365 2084.95 209.365 Q2090.18 209.365 2093.22 212.745 Q2096.27 216.101 2096.27 221.888 M2092.01 220.638 Q2091.97 217.143 2090.04 215.059 Q2088.15 212.976 2085 212.976 Q2081.43 212.976 2079.28 214.99 Q2077.15 217.004 2076.83 220.661 L2092.01 220.638 Z" fill="#000000" fill-rule="nonzero" fill-opacity="1" /><path clip-path="url(#clip990)" d="M2121.92 210.985 L2121.92 214.967 Q2120.11 213.971 2118.29 213.485 Q2116.48 212.976 2114.63 212.976 Q2110.48 212.976 2108.19 215.615 Q2105.9 218.231 2105.9 222.976 Q2105.9 227.721 2108.19 230.36 Q2110.48 232.976 2114.63 232.976 Q2116.48 232.976 2118.29 232.49 Q2120.11 231.981 2121.92 230.985 L2121.92 234.92 Q2120.14 235.754 2118.22 236.17 Q2116.32 236.587 2114.16 236.587 Q2108.31 236.587 2104.86 232.906 Q2101.41 229.226 2101.41 222.976 Q2101.41 216.633 2104.88 212.999 Q2108.38 209.365 2114.44 209.365 Q2116.41 209.365 2118.29 209.782 Q2120.16 210.175 2121.92 210.985 Z" fill="#000000" fill-rule="nonzero" fill-opacity="1" /><path clip-path="url(#clip990)" d="M2133.54 202.629 L2133.54 209.99 L2142.31 209.99 L2142.31 213.3 L2133.54 213.3 L2133.54 227.374 Q2133.54 230.545 2134.4 231.448 Q2135.28 232.351 2137.94 232.351 L2142.31 232.351 L2142.31 235.916 L2137.94 235.916 Q2133.01 235.916 2131.13 234.087 Q2129.26 232.235 2129.26 227.374 L2129.26 213.3 L2126.13 213.3 L2126.13 209.99 L2129.26 209.99 L2129.26 202.629 L2133.54 202.629 Z" fill="#000000" fill-rule="nonzero" fill-opacity="1" /><path clip-path="url(#clip990)" d="M2159.7 222.883 Q2154.53 222.883 2152.54 224.064 Q2150.55 225.244 2150.55 228.092 Q2150.55 230.36 2152.03 231.703 Q2153.54 233.022 2156.11 233.022 Q2159.65 233.022 2161.78 230.522 Q2163.93 227.999 2163.93 223.832 L2163.93 222.883 L2159.7 222.883 M2168.19 221.124 L2168.19 235.916 L2163.93 235.916 L2163.93 231.981 Q2162.47 234.342 2160.3 235.476 Q2158.12 236.587 2154.97 236.587 Q2150.99 236.587 2148.63 234.365 Q2146.29 232.119 2146.29 228.369 Q2146.29 223.994 2149.21 221.772 Q2152.15 219.55 2157.96 219.55 L2163.93 219.55 L2163.93 219.133 Q2163.93 216.194 2161.99 214.596 Q2160.07 212.976 2156.57 212.976 Q2154.35 212.976 2152.24 213.508 Q2150.14 214.041 2148.19 215.106 L2148.19 211.17 Q2150.53 210.268 2152.73 209.828 Q2154.93 209.365 2157.01 209.365 Q2162.64 209.365 2165.41 212.282 Q2168.19 215.198 2168.19 221.124 Z" fill="#000000" fill-rule="nonzero" fill-opacity="1" /><path clip-path="url(#clip990)" d="M2181.18 202.629 L2181.18 209.99 L2189.95 209.99 L2189.95 213.3 L2181.18 213.3 L2181.18 227.374 Q2181.18 230.545 2182.03 231.448 Q2182.91 232.351 2185.58 232.351 L2189.95 232.351 L2189.95 235.916 L2185.58 235.916 Q2180.65 235.916 2178.77 234.087 Q2176.9 232.235 2176.9 227.374 L2176.9 213.3 L2173.77 213.3 L2173.77 209.99 L2176.9 209.99 L2176.9 202.629 L2181.18 202.629 Z" fill="#000000" fill-rule="nonzero" fill-opacity="1" /><path clip-path="url(#clip990)" d="M2195.55 209.99 L2199.81 209.99 L2199.81 235.916 L2195.55 235.916 L2195.55 209.99 M2195.55 199.897 L2199.81 199.897 L2199.81 205.291 L2195.55 205.291 L2195.55 199.897 Z" fill="#000000" fill-rule="nonzero" fill-opacity="1" /><path clip-path="url(#clip990)" d="M2218.77 212.976 Q2215.34 212.976 2213.35 215.661 Q2211.36 218.323 2211.36 222.976 Q2211.36 227.629 2213.33 230.314 Q2215.32 232.976 2218.77 232.976 Q2222.17 232.976 2224.16 230.291 Q2226.15 227.606 2226.15 222.976 Q2226.15 218.37 2224.16 215.684 Q2222.17 212.976 2218.77 212.976 M2218.77 209.365 Q2224.33 209.365 2227.5 212.976 Q2230.67 216.587 2230.67 222.976 Q2230.67 229.342 2227.5 232.976 Q2224.33 236.587 2218.77 236.587 Q2213.19 236.587 2210.02 232.976 Q2206.87 229.342 2206.87 222.976 Q2206.87 216.587 2210.02 212.976 Q2213.19 209.365 2218.77 209.365 Z" fill="#000000" fill-rule="nonzero" fill-opacity="1" /><path clip-path="url(#clip990)" d="M2259.28 220.268 L2259.28 235.916 L2255.02 235.916 L2255.02 220.407 Q2255.02 216.726 2253.59 214.897 Q2252.15 213.069 2249.28 213.069 Q2245.83 213.069 2243.84 215.268 Q2241.85 217.467 2241.85 221.263 L2241.85 235.916 L2237.57 235.916 L2237.57 209.99 L2241.85 209.99 L2241.85 214.018 Q2243.38 211.68 2245.44 210.522 Q2247.52 209.365 2250.23 209.365 Q2254.7 209.365 2256.99 212.143 Q2259.28 214.897 2259.28 220.268 Z" fill="#000000" fill-rule="nonzero" fill-opacity="1" /><polyline clip-path="url(#clip990)" style="stroke:#ff7e0d; stroke-linecap:round; stroke-linejoin:round; stroke-width:8; stroke-opacity:1; fill:none" points="1822.6,270.476 1962.81,270.476 "/>
<path clip-path="url(#clip990)" d="M1986.18 253.196 L1993.15 253.196 L2001.97 276.714 L2010.83 253.196 L2017.8 253.196 L2017.8 287.756 L2013.24 287.756 L2013.24 257.409 L2004.33 281.112 L1999.63 281.112 L1990.72 257.409 L1990.72 287.756 L1986.18 287.756 L1986.18 253.196 Z" fill="#000000" fill-rule="nonzero" fill-opacity="1" /><path clip-path="url(#clip990)" d="M2036.94 264.816 Q2033.52 264.816 2031.53 267.501 Q2029.54 270.163 2029.54 274.816 Q2029.54 279.469 2031.5 282.154 Q2033.49 284.816 2036.94 284.816 Q2040.35 284.816 2042.34 282.131 Q2044.33 279.446 2044.33 274.816 Q2044.33 270.21 2042.34 267.524 Q2040.35 264.816 2036.94 264.816 M2036.94 261.205 Q2042.5 261.205 2045.67 264.816 Q2048.84 268.427 2048.84 274.816 Q2048.84 281.182 2045.67 284.816 Q2042.5 288.427 2036.94 288.427 Q2031.36 288.427 2028.19 284.816 Q2025.04 281.182 2025.04 274.816 Q2025.04 268.427 2028.19 264.816 Q2031.36 261.205 2036.94 261.205 Z" fill="#000000" fill-rule="nonzero" fill-opacity="1" /><path clip-path="url(#clip990)" d="M2072.96 265.765 L2072.96 251.737 L2077.22 251.737 L2077.22 287.756 L2072.96 287.756 L2072.96 283.867 Q2071.62 286.182 2069.56 287.316 Q2067.52 288.427 2064.65 288.427 Q2059.95 288.427 2056.99 284.677 Q2054.05 280.927 2054.05 274.816 Q2054.05 268.705 2056.99 264.955 Q2059.95 261.205 2064.65 261.205 Q2067.52 261.205 2069.56 262.339 Q2071.62 263.45 2072.96 265.765 M2058.45 274.816 Q2058.45 279.515 2060.37 282.2 Q2062.31 284.862 2065.69 284.862 Q2069.07 284.862 2071.02 282.2 Q2072.96 279.515 2072.96 274.816 Q2072.96 270.117 2071.02 267.455 Q2069.07 264.77 2065.69 264.77 Q2062.31 264.77 2060.37 267.455 Q2058.45 270.117 2058.45 274.816 Z" fill="#000000" fill-rule="nonzero" fill-opacity="1" /><path clip-path="url(#clip990)" d="M2108.17 273.728 L2108.17 275.811 L2088.59 275.811 Q2088.86 280.209 2091.23 282.524 Q2093.61 284.816 2097.85 284.816 Q2100.3 284.816 2102.59 284.214 Q2104.91 283.612 2107.17 282.409 L2107.17 286.436 Q2104.88 287.408 2102.48 287.918 Q2100.07 288.427 2097.59 288.427 Q2091.39 288.427 2087.75 284.816 Q2084.14 281.205 2084.14 275.047 Q2084.14 268.682 2087.57 264.955 Q2091.02 261.205 2096.85 261.205 Q2102.08 261.205 2105.11 264.585 Q2108.17 267.941 2108.17 273.728 M2103.91 272.478 Q2103.86 268.983 2101.94 266.899 Q2100.04 264.816 2096.9 264.816 Q2093.33 264.816 2091.18 266.83 Q2089.05 268.844 2088.73 272.501 L2103.91 272.478 Z" fill="#000000" fill-rule="nonzero" fill-opacity="1" /><polyline clip-path="url(#clip990)" style="stroke:#2ba02b; stroke-linecap:round; stroke-linejoin:round; stroke-width:8; stroke-opacity:1; fill:none" points="1822.6,322.316 1962.81,322.316 "/>
<path clip-path="url(#clip990)" d="M1986.18 305.036 L1993.15 305.036 L2001.97 328.554 L2010.83 305.036 L2017.8 305.036 L2017.8 339.596 L2013.24 339.596 L2013.24 309.249 L2004.33 332.952 L1999.63 332.952 L1990.72 309.249 L1990.72 339.596 L1986.18 339.596 L1986.18 305.036 Z" fill="#000000" fill-rule="nonzero" fill-opacity="1" /><path clip-path="url(#clip990)" d="M2049.07 325.568 L2049.07 327.651 L2029.49 327.651 Q2029.77 332.049 2032.13 334.364 Q2034.51 336.656 2038.75 336.656 Q2041.2 336.656 2043.49 336.054 Q2045.81 335.452 2048.08 334.249 L2048.08 338.276 Q2045.79 339.248 2043.38 339.758 Q2040.97 340.267 2038.49 340.267 Q2032.29 340.267 2028.66 336.656 Q2025.04 333.045 2025.04 326.887 Q2025.04 320.522 2028.47 316.795 Q2031.92 313.045 2037.75 313.045 Q2042.98 313.045 2046.02 316.425 Q2049.07 319.781 2049.07 325.568 M2044.81 324.318 Q2044.77 320.823 2042.85 318.739 Q2040.95 316.656 2037.8 316.656 Q2034.23 316.656 2032.08 318.67 Q2029.95 320.684 2029.63 324.341 L2044.81 324.318 Z" fill="#000000" fill-rule="nonzero" fill-opacity="1" /><path clip-path="url(#clip990)" d="M2073.12 317.605 L2073.12 303.577 L2077.38 303.577 L2077.38 339.596 L2073.12 339.596 L2073.12 335.707 Q2071.78 338.022 2069.72 339.156 Q2067.68 340.267 2064.81 340.267 Q2060.11 340.267 2057.15 336.517 Q2054.21 332.767 2054.21 326.656 Q2054.21 320.545 2057.15 316.795 Q2060.11 313.045 2064.81 313.045 Q2067.68 313.045 2069.72 314.179 Q2071.78 315.29 2073.12 317.605 M2058.61 326.656 Q2058.61 331.355 2060.53 334.04 Q2062.48 336.702 2065.85 336.702 Q2069.23 336.702 2071.18 334.04 Q2073.12 331.355 2073.12 326.656 Q2073.12 321.957 2071.18 319.295 Q2069.23 316.61 2065.85 316.61 Q2062.48 316.61 2060.53 319.295 Q2058.61 321.957 2058.61 326.656 Z" fill="#000000" fill-rule="nonzero" fill-opacity="1" /><path clip-path="url(#clip990)" d="M2086.16 313.67 L2090.41 313.67 L2090.41 339.596 L2086.16 339.596 L2086.16 313.67 M2086.16 303.577 L2090.41 303.577 L2090.41 308.971 L2086.16 308.971 L2086.16 303.577 Z" fill="#000000" fill-rule="nonzero" fill-opacity="1" /><path clip-path="url(#clip990)" d="M2111.11 326.563 Q2105.95 326.563 2103.96 327.744 Q2101.97 328.924 2101.97 331.772 Q2101.97 334.04 2103.45 335.383 Q2104.95 336.702 2107.52 336.702 Q2111.06 336.702 2113.19 334.202 Q2115.35 331.679 2115.35 327.512 L2115.35 326.563 L2111.11 326.563 M2119.6 324.804 L2119.6 339.596 L2115.35 339.596 L2115.35 335.661 Q2113.89 338.022 2111.71 339.156 Q2109.54 340.267 2106.39 340.267 Q2102.41 340.267 2100.04 338.045 Q2097.71 335.799 2097.71 332.049 Q2097.71 327.674 2100.62 325.452 Q2103.56 323.23 2109.37 323.23 L2115.35 323.23 L2115.35 322.813 Q2115.35 319.874 2113.4 318.276 Q2111.48 316.656 2107.98 316.656 Q2105.76 316.656 2103.66 317.188 Q2101.55 317.721 2099.6 318.786 L2099.6 314.85 Q2101.94 313.948 2104.14 313.508 Q2106.34 313.045 2108.42 313.045 Q2114.05 313.045 2116.83 315.962 Q2119.6 318.878 2119.6 324.804 Z" fill="#000000" fill-rule="nonzero" fill-opacity="1" /><path clip-path="url(#clip990)" d="M2149.93 323.948 L2149.93 339.596 L2145.67 339.596 L2145.67 324.087 Q2145.67 320.406 2144.23 318.577 Q2142.8 316.749 2139.93 316.749 Q2136.48 316.749 2134.49 318.948 Q2132.5 321.147 2132.5 324.943 L2132.5 339.596 L2128.22 339.596 L2128.22 313.67 L2132.5 313.67 L2132.5 317.698 Q2134.03 315.36 2136.09 314.202 Q2138.17 313.045 2140.88 313.045 Q2145.35 313.045 2147.64 315.823 Q2149.93 318.577 2149.93 323.948 Z" fill="#000000" fill-rule="nonzero" fill-opacity="1" /></svg>
