<?xml version="1.0" encoding="utf-8"?>
<svg xmlns="http://www.w3.org/2000/svg" xmlns:xlink="http://www.w3.org/1999/xlink" width="600" height="400" viewBox="0 0 2400 1600">
<defs>
  <clipPath id="clip990">
    <rect x="0" y="0" width="2400" height="1600"/>
  </clipPath>
</defs>
<path clip-path="url(#clip990)" d="M0 1600 L2400 1600 L2400 8.88178e-14 L0 8.88178e-14  Z" fill="#ffffff" fill-rule="evenodd" fill-opacity="1"/>
<defs>
  <clipPath id="clip991">
    <rect x="480" y="0" width="1681" height="1600"/>
  </clipPath>
</defs>
<path clip-path="url(#clip990)" d="M219.866 1423.18 L2352.76 1423.18 L2352.76 47.2441 L219.866 47.2441  Z" fill="#ffffff" fill-rule="evenodd" fill-opacity="1"/>
<defs>
  <clipPath id="clip992">
    <rect x="219" y="47" width="2134" height="1377"/>
  </clipPath>
</defs>
<polyline clip-path="url(#clip992)" style="stroke:#000000; stroke-linecap:round; stroke-linejoin:round; stroke-width:2; stroke-opacity:0.1; fill:none" points="398.593,1423.18 398.593,47.2441 "/>
<polyline clip-path="url(#clip992)" style="stroke:#000000; stroke-linecap:round; stroke-linejoin:round; stroke-width:2; stroke-opacity:0.1; fill:none" points="635.318,1423.18 635.318,47.2441 "/>
<polyline clip-path="url(#clip992)" style="stroke:#000000; stroke-linecap:round; stroke-linejoin:round; stroke-width:2; stroke-opacity:0.1; fill:none" points="872.043,1423.18 872.043,47.2441 "/>
<polyline clip-path="url(#clip992)" style="stroke:#000000; stroke-linecap:round; stroke-linejoin:round; stroke-width:2; stroke-opacity:0.1; fill:none" points="1108.77,1423.18 1108.77,47.2441 "/>
<polyline clip-path="url(#clip992)" style="stroke:#000000; stroke-linecap:round; stroke-linejoin:round; stroke-width:2; stroke-opacity:0.1; fill:none" points="1345.49,1423.18 1345.49,47.2441 "/>
<polyline clip-path="url(#clip992)" style="stroke:#000000; stroke-linecap:round; stroke-linejoin:round; stroke-width:2; stroke-opacity:0.1; fill:none" points="1582.22,1423.18 1582.22,47.2441 "/>
<polyline clip-path="url(#clip992)" style="stroke:#000000; stroke-linecap:round; stroke-linejoin:round; stroke-width:2; stroke-opacity:0.1; fill:none" points="1818.94,1423.18 1818.94,47.2441 "/>
<polyline clip-path="url(#clip992)" style="stroke:#000000; stroke-linecap:round; stroke-linejoin:round; stroke-width:2; stroke-opacity:0.1; fill:none" points="2055.67,1423.18 2055.67,47.2441 "/>
<polyline clip-path="url(#clip992)" style="stroke:#000000; stroke-linecap:round; stroke-linejoin:round; stroke-width:2; stroke-opacity:0.1; fill:none" points="2292.39,1423.18 2292.39,47.2441 "/>
<polyline clip-path="url(#clip992)" style="stroke:#000000; stroke-linecap:round; stroke-linejoin:round; stroke-width:2; stroke-opacity:0.1; fill:none" points="219.866,1401.69 2352.76,1401.69 "/>
<polyline clip-path="url(#clip992)" style="stroke:#000000; stroke-linecap:round; stroke-linejoin:round; stroke-width:2; stroke-opacity:0.1; fill:none" points="219.866,1125.03 2352.76,1125.03 "/>
<polyline clip-path="url(#clip992)" style="stroke:#000000; stroke-linecap:round; stroke-linejoin:round; stroke-width:2; stroke-opacity:0.1; fill:none" points="219.866,848.373 2352.76,848.373 "/>
<polyline clip-path="url(#clip992)" style="stroke:#000000; stroke-linecap:round; stroke-linejoin:round; stroke-width:2; stroke-opacity:0.1; fill:none" points="219.866,571.716 2352.76,571.716 "/>
<polyline clip-path="url(#clip992)" style="stroke:#000000; stroke-linecap:round; stroke-linejoin:round; stroke-width:2; stroke-opacity:0.1; fill:none" points="219.866,295.058 2352.76,295.058 "/>
<polyline clip-path="url(#clip990)" style="stroke:#000000; stroke-linecap:round; stroke-linejoin:round; stroke-width:4; stroke-opacity:1; fill:none" points="219.866,1423.18 2352.76,1423.18 "/>
<polyline clip-path="url(#clip990)" style="stroke:#000000; stroke-linecap:round; stroke-linejoin:round; stroke-width:4; stroke-opacity:1; fill:none" points="398.593,1423.18 398.593,1404.28 "/>
<polyline clip-path="url(#clip990)" style="stroke:#000000; stroke-linecap:round; stroke-linejoin:round; stroke-width:4; stroke-opacity:1; fill:none" points="635.318,1423.18 635.318,1404.28 "/>
<polyline clip-path="url(#clip990)" style="stroke:#000000; stroke-linecap:round; stroke-linejoin:round; stroke-width:4; stroke-opacity:1; fill:none" points="872.043,1423.18 872.043,1404.28 "/>
<polyline clip-path="url(#clip990)" style="stroke:#000000; stroke-linecap:round; stroke-linejoin:round; stroke-width:4; stroke-opacity:1; fill:none" points="1108.77,1423.18 1108.77,1404.28 "/>
<polyline clip-path="url(#clip990)" style="stroke:#000000; stroke-linecap:round; stroke-linejoin:round; stroke-width:4; stroke-opacity:1; fill:none" points="1345.49,1423.18 1345.49,1404.28 "/>
<polyline clip-path="url(#clip990)" style="stroke:#000000; stroke-linecap:round; stroke-linejoin:round; stroke-width:4; stroke-opacity:1; fill:none" points="1582.22,1423.18 1582.22,1404.28 "/>
<polyline clip-path="url(#clip990)" style="stroke:#000000; stroke-linecap:round; stroke-linejoin:round; stroke-width:4; stroke-opacity:1; fill:none" points="1818.94,1423.18 1818.94,1404.28 "/>
<polyline clip-path="url(#clip990)" style="stroke:#000000; stroke-linecap:round; stroke-linejoin:round; stroke-width:4; stroke-opacity:1; fill:none" points="2055.67,1423.18 2055.67,1404.28 "/>
<polyline clip-path="url(#clip990)" style="stroke:#000000; stroke-linecap:round; stroke-linejoin:round; stroke-width:4; stroke-opacity:1; fill:none" points="2292.39,1423.18 2292.39,1404.28 "/>
<path clip-path="url(#clip990)" d="M401.603 1455.09 L389.797 1473.54 L401.603 1473.54 L401.603 1455.09 M400.376 1451.02 L406.255 1451.02 L406.255 1473.54 L411.186 1473.54 L411.186 1477.43 L406.255 1477.43 L406.255 1485.58 L401.603 1485.58 L401.603 1477.43 L386.001 1477.43 L386.001 1472.92 L400.376 1451.02 Z" fill="#000000" fill-rule="nonzero" fill-opacity="1" /><path clip-path="url(#clip990)" d="M635.723 1466.44 Q632.575 1466.44 630.723 1468.59 Q628.895 1470.74 628.895 1474.49 Q628.895 1478.22 630.723 1480.39 Q632.575 1482.55 635.723 1482.55 Q638.871 1482.55 640.7 1480.39 Q642.552 1478.22 642.552 1474.49 Q642.552 1470.74 640.7 1468.59 Q638.871 1466.44 635.723 1466.44 M645.006 1451.78 L645.006 1456.04 Q643.246 1455.21 641.441 1454.77 Q639.658 1454.33 637.899 1454.33 Q633.27 1454.33 630.816 1457.45 Q628.385 1460.58 628.038 1466.9 Q629.404 1464.89 631.464 1463.82 Q633.524 1462.73 636.001 1462.73 Q641.209 1462.73 644.219 1465.9 Q647.251 1469.05 647.251 1474.49 Q647.251 1479.82 644.103 1483.03 Q640.955 1486.25 635.723 1486.25 Q629.728 1486.25 626.557 1481.67 Q623.385 1477.06 623.385 1468.33 Q623.385 1460.14 627.274 1455.28 Q631.163 1450.39 637.714 1450.39 Q639.473 1450.39 641.256 1450.74 Q643.061 1451.09 645.006 1451.78 Z" fill="#000000" fill-rule="nonzero" fill-opacity="1" /><path clip-path="url(#clip990)" d="M872.043 1469.17 Q868.71 1469.17 866.788 1470.95 Q864.89 1472.73 864.89 1475.86 Q864.89 1478.98 866.788 1480.77 Q868.71 1482.55 872.043 1482.55 Q875.376 1482.55 877.297 1480.77 Q879.219 1478.96 879.219 1475.86 Q879.219 1472.73 877.297 1470.95 Q875.399 1469.17 872.043 1469.17 M867.367 1467.18 Q864.358 1466.44 862.668 1464.38 Q861.001 1462.32 861.001 1459.35 Q861.001 1455.21 863.941 1452.8 Q866.904 1450.39 872.043 1450.39 Q877.205 1450.39 880.145 1452.8 Q883.084 1455.21 883.084 1459.35 Q883.084 1462.32 881.395 1464.38 Q879.728 1466.44 876.742 1467.18 Q880.122 1467.96 881.996 1470.26 Q883.895 1472.55 883.895 1475.86 Q883.895 1480.88 880.816 1483.57 Q877.76 1486.25 872.043 1486.25 Q866.325 1486.25 863.247 1483.57 Q860.191 1480.88 860.191 1475.86 Q860.191 1472.55 862.089 1470.26 Q863.987 1467.96 867.367 1467.18 M865.654 1459.79 Q865.654 1462.48 867.321 1463.98 Q869.01 1465.49 872.043 1465.49 Q875.052 1465.49 876.742 1463.98 Q878.455 1462.48 878.455 1459.79 Q878.455 1457.11 876.742 1455.6 Q875.052 1454.1 872.043 1454.1 Q869.01 1454.1 867.321 1455.6 Q865.654 1457.11 865.654 1459.79 Z" fill="#000000" fill-rule="nonzero" fill-opacity="1" /><path clip-path="url(#clip990)" d="M1083.46 1481.64 L1091.09 1481.64 L1091.09 1455.28 L1082.78 1456.95 L1082.78 1452.69 L1091.05 1451.02 L1095.72 1451.02 L1095.72 1481.64 L1103.36 1481.64 L1103.36 1485.58 L1083.46 1485.58 L1083.46 1481.64 Z" fill="#000000" fill-rule="nonzero" fill-opacity="1" /><path clip-path="url(#clip990)" d="M1122.81 1454.1 Q1119.2 1454.1 1117.37 1457.66 Q1115.56 1461.2 1115.56 1468.33 Q1115.56 1475.44 1117.37 1479.01 Q1119.2 1482.55 1122.81 1482.55 Q1126.44 1482.55 1128.25 1479.01 Q1130.08 1475.44 1130.08 1468.33 Q1130.08 1461.2 1128.25 1457.66 Q1126.44 1454.1 1122.81 1454.1 M1122.81 1450.39 Q1128.62 1450.39 1131.67 1455 Q1134.75 1459.58 1134.75 1468.33 Q1134.75 1477.06 1131.67 1481.67 Q1128.62 1486.25 1122.81 1486.25 Q1117 1486.25 1113.92 1481.67 Q1110.86 1477.06 1110.86 1468.33 Q1110.86 1459.58 1113.92 1455 Q1117 1450.39 1122.81 1450.39 Z" fill="#000000" fill-rule="nonzero" fill-opacity="1" /><path clip-path="url(#clip990)" d="M1320.98 1481.64 L1328.62 1481.64 L1328.62 1455.28 L1320.31 1456.95 L1320.31 1452.69 L1328.57 1451.02 L1333.25 1451.02 L1333.25 1481.64 L1340.89 1481.64 L1340.89 1485.58 L1320.98 1485.58 L1320.98 1481.64 Z" fill="#000000" fill-rule="nonzero" fill-opacity="1" /><path clip-path="url(#clip990)" d="M1354.36 1481.64 L1370.68 1481.64 L1370.68 1485.58 L1348.73 1485.58 L1348.73 1481.64 Q1351.4 1478.89 1355.98 1474.26 Q1360.58 1469.61 1361.77 1468.27 Q1364.01 1465.74 1364.89 1464.01 Q1365.79 1462.25 1365.79 1460.56 Q1365.79 1457.8 1363.85 1456.07 Q1361.93 1454.33 1358.83 1454.33 Q1356.63 1454.33 1354.17 1455.09 Q1351.74 1455.86 1348.96 1457.41 L1348.96 1452.69 Q1351.79 1451.55 1354.24 1450.97 Q1356.7 1450.39 1358.73 1450.39 Q1364.1 1450.39 1367.3 1453.08 Q1370.49 1455.77 1370.49 1460.26 Q1370.49 1462.39 1369.68 1464.31 Q1368.89 1466.2 1366.79 1468.8 Q1366.21 1469.47 1363.11 1472.69 Q1360.01 1475.88 1354.36 1481.64 Z" fill="#000000" fill-rule="nonzero" fill-opacity="1" /><path clip-path="url(#clip990)" d="M1556.66 1481.64 L1564.3 1481.64 L1564.3 1455.28 L1555.99 1456.95 L1555.99 1452.69 L1564.25 1451.02 L1568.93 1451.02 L1568.93 1481.64 L1576.57 1481.64 L1576.57 1485.58 L1556.66 1485.58 L1556.66 1481.64 Z" fill="#000000" fill-rule="nonzero" fill-opacity="1" /><path clip-path="url(#clip990)" d="M1598.86 1455.09 L1587.05 1473.54 L1598.86 1473.54 L1598.86 1455.09 M1597.63 1451.02 L1603.51 1451.02 L1603.51 1473.54 L1608.44 1473.54 L1608.44 1477.43 L1603.51 1477.43 L1603.51 1485.58 L1598.86 1485.58 L1598.86 1477.43 L1583.26 1477.43 L1583.26 1472.92 L1597.63 1451.02 Z" fill="#000000" fill-rule="nonzero" fill-opacity="1" /><path clip-path="url(#clip990)" d="M1793.55 1481.64 L1801.19 1481.64 L1801.19 1455.28 L1792.88 1456.95 L1792.88 1452.69 L1801.14 1451.02 L1805.82 1451.02 L1805.82 1481.64 L1813.46 1481.64 L1813.46 1485.58 L1793.55 1485.58 L1793.55 1481.64 Z" fill="#000000" fill-rule="nonzero" fill-opacity="1" /><path clip-path="url(#clip990)" d="M1833.48 1466.44 Q1830.33 1466.44 1828.48 1468.59 Q1826.65 1470.74 1826.65 1474.49 Q1826.65 1478.22 1828.48 1480.39 Q1830.33 1482.55 1833.48 1482.55 Q1836.63 1482.55 1838.46 1480.39 Q1840.31 1478.22 1840.31 1474.49 Q1840.31 1470.74 1838.46 1468.59 Q1836.63 1466.44 1833.48 1466.44 M1842.76 1451.78 L1842.76 1456.04 Q1841 1455.21 1839.2 1454.77 Q1837.41 1454.33 1835.65 1454.33 Q1831.02 1454.33 1828.57 1457.45 Q1826.14 1460.58 1825.79 1466.9 Q1827.16 1464.89 1829.22 1463.82 Q1831.28 1462.73 1833.76 1462.73 Q1838.96 1462.73 1841.97 1465.9 Q1845.01 1469.05 1845.01 1474.49 Q1845.01 1479.82 1841.86 1483.03 Q1838.71 1486.25 1833.48 1486.25 Q1827.48 1486.25 1824.31 1481.67 Q1821.14 1477.06 1821.14 1468.33 Q1821.14 1460.14 1825.03 1455.28 Q1828.92 1450.39 1835.47 1450.39 Q1837.23 1450.39 1839.01 1450.74 Q1840.82 1451.09 1842.76 1451.78 Z" fill="#000000" fill-rule="nonzero" fill-opacity="1" /><path clip-path="url(#clip990)" d="M2030.4 1481.64 L2038.04 1481.64 L2038.04 1455.28 L2029.73 1456.95 L2029.73 1452.69 L2037.99 1451.02 L2042.67 1451.02 L2042.67 1481.64 L2050.31 1481.64 L2050.31 1485.58 L2030.4 1485.58 L2030.4 1481.64 Z" fill="#000000" fill-rule="nonzero" fill-opacity="1" /><path clip-path="url(#clip990)" d="M2069.75 1469.17 Q2066.42 1469.17 2064.5 1470.95 Q2062.6 1472.73 2062.6 1475.86 Q2062.6 1478.98 2064.5 1480.77 Q2066.42 1482.55 2069.75 1482.55 Q2073.09 1482.55 2075.01 1480.77 Q2076.93 1478.96 2076.93 1475.86 Q2076.93 1472.73 2075.01 1470.95 Q2073.11 1469.17 2069.75 1469.17 M2065.08 1467.18 Q2062.07 1466.44 2060.38 1464.38 Q2058.71 1462.32 2058.71 1459.35 Q2058.71 1455.21 2061.65 1452.8 Q2064.61 1450.39 2069.75 1450.39 Q2074.91 1450.39 2077.85 1452.8 Q2080.79 1455.21 2080.79 1459.35 Q2080.79 1462.32 2079.1 1464.38 Q2077.44 1466.44 2074.45 1467.18 Q2077.83 1467.96 2079.71 1470.26 Q2081.6 1472.55 2081.6 1475.86 Q2081.6 1480.88 2078.53 1483.57 Q2075.47 1486.25 2069.75 1486.25 Q2064.03 1486.25 2060.96 1483.57 Q2057.9 1480.88 2057.9 1475.86 Q2057.9 1472.55 2059.8 1470.26 Q2061.7 1467.96 2065.08 1467.18 M2063.36 1459.79 Q2063.36 1462.48 2065.03 1463.98 Q2066.72 1465.49 2069.75 1465.49 Q2072.76 1465.49 2074.45 1463.98 Q2076.16 1462.48 2076.16 1459.79 Q2076.16 1457.11 2074.45 1455.6 Q2072.76 1454.1 2069.75 1454.1 Q2066.72 1454.1 2065.03 1455.6 Q2063.36 1457.11 2063.36 1459.79 Z" fill="#000000" fill-rule="nonzero" fill-opacity="1" /><path clip-path="url(#clip990)" d="M2271.16 1481.64 L2287.48 1481.64 L2287.48 1485.58 L2265.54 1485.58 L2265.54 1481.64 Q2268.2 1478.89 2272.78 1474.26 Q2277.39 1469.61 2278.57 1468.27 Q2280.82 1465.74 2281.7 1464.01 Q2282.6 1462.25 2282.6 1460.56 Q2282.6 1457.8 2280.66 1456.07 Q2278.73 1454.33 2275.63 1454.33 Q2273.43 1454.33 2270.98 1455.09 Q2268.55 1455.86 2265.77 1457.41 L2265.77 1452.69 Q2268.59 1451.55 2271.05 1450.97 Q2273.5 1450.39 2275.54 1450.39 Q2280.91 1450.39 2284.1 1453.08 Q2287.3 1455.77 2287.3 1460.26 Q2287.3 1462.39 2286.49 1464.31 Q2285.7 1466.2 2283.59 1468.8 Q2283.02 1469.47 2279.91 1472.69 Q2276.81 1475.88 2271.16 1481.64 Z" fill="#000000" fill-rule="nonzero" fill-opacity="1" /><path clip-path="url(#clip990)" d="M2307.3 1454.1 Q2303.69 1454.1 2301.86 1457.66 Q2300.05 1461.2 2300.05 1468.33 Q2300.05 1475.44 2301.86 1479.01 Q2303.69 1482.55 2307.3 1482.55 Q2310.93 1482.55 2312.74 1479.01 Q2314.57 1475.44 2314.57 1468.33 Q2314.57 1461.2 2312.74 1457.66 Q2310.93 1454.1 2307.3 1454.1 M2307.3 1450.39 Q2313.11 1450.39 2316.16 1455 Q2319.24 1459.58 2319.24 1468.33 Q2319.24 1477.06 2316.16 1481.67 Q2313.11 1486.25 2307.3 1486.25 Q2301.49 1486.25 2298.41 1481.67 Q2295.35 1477.06 2295.35 1468.33 Q2295.35 1459.58 2298.41 1455 Q2301.49 1450.39 2307.3 1450.39 Z" fill="#000000" fill-rule="nonzero" fill-opacity="1" /><path clip-path="url(#clip990)" d="M1296.38 1537.81 L1296.38 1518.52 L1302.24 1518.52 L1302.24 1568.04 L1296.38 1568.04 L1296.38 1562.7 Q1294.54 1565.88 1291.71 1567.44 Q1288.91 1568.97 1284.96 1568.97 Q1278.5 1568.97 1274.42 1563.81 Q1270.38 1558.65 1270.38 1550.25 Q1270.38 1541.85 1274.42 1536.69 Q1278.5 1531.54 1284.96 1531.54 Q1288.91 1531.54 1291.71 1533.1 Q1294.54 1534.62 1296.38 1537.81 M1276.43 1550.25 Q1276.43 1556.71 1279.07 1560.4 Q1281.74 1564.07 1286.39 1564.07 Q1291.04 1564.07 1293.71 1560.4 Q1296.38 1556.71 1296.38 1550.25 Q1296.38 1543.79 1293.71 1540.13 Q1291.04 1536.44 1286.39 1536.44 Q1281.74 1536.44 1279.07 1540.13 Q1276.43 1543.79 1276.43 1550.25 Z" fill="#000000" fill-rule="nonzero" fill-opacity="1" /><polyline clip-path="url(#clip990)" style="stroke:#000000; stroke-linecap:round; stroke-linejoin:round; stroke-width:4; stroke-opacity:1; fill:none" points="219.866,1423.18 219.866,47.2441 "/>
<polyline clip-path="url(#clip990)" style="stroke:#000000; stroke-linecap:round; stroke-linejoin:round; stroke-width:4; stroke-opacity:1; fill:none" points="219.866,1401.69 238.764,1401.69 "/>
<polyline clip-path="url(#clip990)" style="stroke:#000000; stroke-linecap:round; stroke-linejoin:round; stroke-width:4; stroke-opacity:1; fill:none" points="219.866,1125.03 238.764,1125.03 "/>
<polyline clip-path="url(#clip990)" style="stroke:#000000; stroke-linecap:round; stroke-linejoin:round; stroke-width:4; stroke-opacity:1; fill:none" points="219.866,848.373 238.764,848.373 "/>
<polyline clip-path="url(#clip990)" style="stroke:#000000; stroke-linecap:round; stroke-linejoin:round; stroke-width:4; stroke-opacity:1; fill:none" points="219.866,571.716 238.764,571.716 "/>
<polyline clip-path="url(#clip990)" style="stroke:#000000; stroke-linecap:round; stroke-linejoin:round; stroke-width:4; stroke-opacity:1; fill:none" points="219.866,295.058 238.764,295.058 "/>
<path clip-path="url(#clip990)" d="M126.691 1387.49 Q123.08 1387.49 121.251 1391.05 Q119.445 1394.59 119.445 1401.72 Q119.445 1408.83 121.251 1412.39 Q123.08 1415.94 126.691 1415.94 Q130.325 1415.94 132.13 1412.39 Q133.959 1408.83 133.959 1401.72 Q133.959 1394.59 132.13 1391.05 Q130.325 1387.49 126.691 1387.49 M126.691 1383.78 Q132.501 1383.78 135.556 1388.39 Q138.635 1392.97 138.635 1401.72 Q138.635 1410.45 135.556 1415.06 Q132.501 1419.64 126.691 1419.64 Q120.88 1419.64 117.802 1415.06 Q114.746 1410.45 114.746 1401.72 Q114.746 1392.97 117.802 1388.39 Q120.88 1383.78 126.691 1383.78 Z" fill="#000000" fill-rule="nonzero" fill-opacity="1" /><path clip-path="url(#clip990)" d="M146.853 1413.09 L151.737 1413.09 L151.737 1418.97 L146.853 1418.97 L146.853 1413.09 Z" fill="#000000" fill-rule="nonzero" fill-opacity="1" /><path clip-path="url(#clip990)" d="M171.922 1387.49 Q168.311 1387.49 166.482 1391.05 Q164.677 1394.59 164.677 1401.72 Q164.677 1408.83 166.482 1412.39 Q168.311 1415.94 171.922 1415.94 Q175.556 1415.94 177.362 1412.39 Q179.19 1408.83 179.19 1401.72 Q179.19 1394.59 177.362 1391.05 Q175.556 1387.49 171.922 1387.49 M171.922 1383.78 Q177.732 1383.78 180.788 1388.39 Q183.866 1392.97 183.866 1401.72 Q183.866 1410.45 180.788 1415.06 Q177.732 1419.64 171.922 1419.64 Q166.112 1419.64 163.033 1415.06 Q159.978 1410.45 159.978 1401.72 Q159.978 1392.97 163.033 1388.39 Q166.112 1383.78 171.922 1383.78 Z" fill="#000000" fill-rule="nonzero" fill-opacity="1" /><path clip-path="url(#clip990)" d="M127.917 1110.83 Q124.306 1110.83 122.478 1114.39 Q120.672 1117.94 120.672 1125.07 Q120.672 1132.17 122.478 1135.74 Q124.306 1139.28 127.917 1139.28 Q131.552 1139.28 133.357 1135.74 Q135.186 1132.17 135.186 1125.07 Q135.186 1117.94 133.357 1114.39 Q131.552 1110.83 127.917 1110.83 M127.917 1107.13 Q133.728 1107.13 136.783 1111.73 Q139.862 1116.32 139.862 1125.07 Q139.862 1133.79 136.783 1138.4 Q133.728 1142.98 127.917 1142.98 Q122.107 1142.98 119.029 1138.4 Q115.973 1133.79 115.973 1125.07 Q115.973 1116.32 119.029 1111.73 Q122.107 1107.13 127.917 1107.13 Z" fill="#000000" fill-rule="nonzero" fill-opacity="1" /><path clip-path="url(#clip990)" d="M148.079 1136.43 L152.964 1136.43 L152.964 1142.31 L148.079 1142.31 L148.079 1136.43 Z" fill="#000000" fill-rule="nonzero" fill-opacity="1" /><path clip-path="url(#clip990)" d="M163.959 1138.38 L171.598 1138.38 L171.598 1112.01 L163.288 1113.68 L163.288 1109.42 L171.552 1107.75 L176.227 1107.75 L176.227 1138.38 L183.866 1138.38 L183.866 1142.31 L163.959 1142.31 L163.959 1138.38 Z" fill="#000000" fill-rule="nonzero" fill-opacity="1" /><path clip-path="url(#clip990)" d="M128.288 834.172 Q124.677 834.172 122.848 837.737 Q121.043 841.278 121.043 848.408 Q121.043 855.514 122.848 859.079 Q124.677 862.621 128.288 862.621 Q131.922 862.621 133.728 859.079 Q135.556 855.514 135.556 848.408 Q135.556 841.278 133.728 837.737 Q131.922 834.172 128.288 834.172 M128.288 830.468 Q134.098 830.468 137.154 835.075 Q140.232 839.658 140.232 848.408 Q140.232 857.135 137.154 861.741 Q134.098 866.325 128.288 866.325 Q122.478 866.325 119.399 861.741 Q116.343 857.135 116.343 848.408 Q116.343 839.658 119.399 835.075 Q122.478 830.468 128.288 830.468 Z" fill="#000000" fill-rule="nonzero" fill-opacity="1" /><path clip-path="url(#clip990)" d="M148.45 859.774 L153.334 859.774 L153.334 865.653 L148.45 865.653 L148.45 859.774 Z" fill="#000000" fill-rule="nonzero" fill-opacity="1" /><path clip-path="url(#clip990)" d="M167.547 861.718 L183.866 861.718 L183.866 865.653 L161.922 865.653 L161.922 861.718 Q164.584 858.963 169.167 854.334 Q173.774 849.681 174.954 848.339 Q177.2 845.815 178.079 844.079 Q178.982 842.32 178.982 840.63 Q178.982 837.876 177.038 836.139 Q175.116 834.403 172.014 834.403 Q169.815 834.403 167.362 835.167 Q164.931 835.931 162.153 837.482 L162.153 832.76 Q164.977 831.626 167.431 831.047 Q169.885 830.468 171.922 830.468 Q177.292 830.468 180.487 833.153 Q183.681 835.839 183.681 840.329 Q183.681 842.459 182.871 844.38 Q182.084 846.278 179.977 848.871 Q179.399 849.542 176.297 852.76 Q173.195 855.954 167.547 861.718 Z" fill="#000000" fill-rule="nonzero" fill-opacity="1" /><path clip-path="url(#clip990)" d="M127.339 557.514 Q123.728 557.514 121.899 561.079 Q120.093 564.621 120.093 571.75 Q120.093 578.857 121.899 582.422 Q123.728 585.963 127.339 585.963 Q130.973 585.963 132.779 582.422 Q134.607 578.857 134.607 571.75 Q134.607 564.621 132.779 561.079 Q130.973 557.514 127.339 557.514 M127.339 553.811 Q133.149 553.811 136.204 558.417 Q139.283 563 139.283 571.75 Q139.283 580.477 136.204 585.084 Q133.149 589.667 127.339 589.667 Q121.529 589.667 118.45 585.084 Q115.394 580.477 115.394 571.75 Q115.394 563 118.45 558.417 Q121.529 553.811 127.339 553.811 Z" fill="#000000" fill-rule="nonzero" fill-opacity="1" /><path clip-path="url(#clip990)" d="M147.501 583.116 L152.385 583.116 L152.385 588.996 L147.501 588.996 L147.501 583.116 Z" fill="#000000" fill-rule="nonzero" fill-opacity="1" /><path clip-path="url(#clip990)" d="M176.737 570.361 Q180.093 571.079 181.968 573.348 Q183.866 575.616 183.866 578.949 Q183.866 584.065 180.348 586.866 Q176.829 589.667 170.348 589.667 Q168.172 589.667 165.857 589.227 Q163.565 588.81 161.112 587.954 L161.112 583.44 Q163.056 584.574 165.371 585.153 Q167.686 585.732 170.209 585.732 Q174.607 585.732 176.899 583.996 Q179.214 582.26 179.214 578.949 Q179.214 575.894 177.061 574.181 Q174.931 572.445 171.112 572.445 L167.084 572.445 L167.084 568.602 L171.297 568.602 Q174.746 568.602 176.575 567.236 Q178.403 565.848 178.403 563.255 Q178.403 560.593 176.505 559.181 Q174.63 557.746 171.112 557.746 Q169.19 557.746 166.991 558.162 Q164.792 558.579 162.153 559.459 L162.153 555.292 Q164.815 554.551 167.13 554.181 Q169.468 553.811 171.528 553.811 Q176.852 553.811 179.954 556.241 Q183.056 558.649 183.056 562.769 Q183.056 565.639 181.413 567.63 Q179.769 569.598 176.737 570.361 Z" fill="#000000" fill-rule="nonzero" fill-opacity="1" /><path clip-path="url(#clip990)" d="M126.205 280.857 Q122.593 280.857 120.765 284.421 Q118.959 287.963 118.959 295.093 Q118.959 302.199 120.765 305.764 Q122.593 309.306 126.205 309.306 Q129.839 309.306 131.644 305.764 Q133.473 302.199 133.473 295.093 Q133.473 287.963 131.644 284.421 Q129.839 280.857 126.205 280.857 M126.205 277.153 Q132.015 277.153 135.07 281.759 Q138.149 286.343 138.149 295.093 Q138.149 303.82 135.07 308.426 Q132.015 313.009 126.205 313.009 Q120.394 313.009 117.316 308.426 Q114.26 303.82 114.26 295.093 Q114.26 286.343 117.316 281.759 Q120.394 277.153 126.205 277.153 Z" fill="#000000" fill-rule="nonzero" fill-opacity="1" /><path clip-path="url(#clip990)" d="M146.366 306.458 L151.251 306.458 L151.251 312.338 L146.366 312.338 L146.366 306.458 Z" fill="#000000" fill-rule="nonzero" fill-opacity="1" /><path clip-path="url(#clip990)" d="M174.283 281.852 L162.477 300.301 L174.283 300.301 L174.283 281.852 M173.056 277.778 L178.936 277.778 L178.936 300.301 L183.866 300.301 L183.866 304.19 L178.936 304.19 L178.936 312.338 L174.283 312.338 L174.283 304.19 L158.681 304.19 L158.681 299.676 L173.056 277.778 Z" fill="#000000" fill-rule="nonzero" fill-opacity="1" /><path clip-path="url(#clip990)" d="M63.0175 1186.41 L57.161 1186.41 Q58.3069 1183.99 58.9116 1181.51 Q59.5163 1179.03 59.5163 1176.64 Q59.5163 1170.28 55.2513 1166.93 Q50.9545 1163.56 42.2334 1163.08 Q44.9707 1164.93 46.4348 1167.76 Q47.8989 1170.59 47.8989 1174.03 Q47.8989 1181.16 43.6021 1185.33 Q39.2734 1189.47 31.7937 1189.47 Q24.4731 1189.47 20.049 1185.14 Q15.6248 1180.81 15.6248 1173.62 Q15.6248 1165.37 21.9587 1161.05 Q28.2607 1156.69 40.2919 1156.69 Q51.5274 1156.69 58.2432 1162.03 Q64.9272 1167.35 64.9272 1176.36 Q64.9272 1178.77 64.4498 1181.26 Q63.9723 1183.74 63.0175 1186.41 M42.87 1173.62 Q42.87 1169.29 39.91 1166.78 Q36.9499 1164.23 31.7937 1164.23 Q26.6693 1164.23 23.7092 1166.78 Q20.7174 1169.29 20.7174 1173.62 Q20.7174 1177.95 23.7092 1180.49 Q26.6693 1183.01 31.7937 1183.01 Q36.9499 1183.01 39.91 1180.49 Q42.87 1177.95 42.87 1173.62 Z" fill="#000000" fill-rule="nonzero" fill-opacity="1" /><path clip-path="url(#clip990)" d="M63.0175 1144.94 L57.161 1144.94 Q58.3069 1142.52 58.9116 1140.04 Q59.5163 1137.56 59.5163 1135.17 Q59.5163 1128.8 55.2513 1125.46 Q50.9545 1122.09 42.2334 1121.61 Q44.9707 1123.46 46.4348 1126.29 Q47.8989 1129.12 47.8989 1132.56 Q47.8989 1139.69 43.6021 1143.86 Q39.2734 1148 31.7937 1148 Q24.4731 1148 20.049 1143.67 Q15.6248 1139.34 15.6248 1132.15 Q15.6248 1123.9 21.9587 1119.57 Q28.2607 1115.21 40.2919 1115.21 Q51.5274 1115.21 58.2432 1120.56 Q64.9272 1125.88 64.9272 1134.88 Q64.9272 1137.3 64.4498 1139.78 Q63.9723 1142.27 63.0175 1144.94 M42.87 1132.15 Q42.87 1127.82 39.91 1125.3 Q36.9499 1122.76 31.7937 1122.76 Q26.6693 1122.76 23.7092 1125.3 Q20.7174 1127.82 20.7174 1132.15 Q20.7174 1136.47 23.7092 1139.02 Q26.6693 1141.54 31.7937 1141.54 Q36.9499 1141.54 39.91 1139.02 Q42.87 1136.47 42.87 1132.15 Z" fill="#000000" fill-rule="nonzero" fill-opacity="1" /><path clip-path="url(#clip990)" d="M18.2347 1098.69 L28.3562 1098.69 L28.3562 1086.63 L32.9077 1086.63 L32.9077 1098.69 L52.2594 1098.69 Q56.6199 1098.69 57.8613 1097.52 Q59.1026 1096.31 59.1026 1092.65 L59.1026 1086.63 L64.0042 1086.63 L64.0042 1092.65 Q64.0042 1099.43 61.4897 1102 Q58.9434 1104.58 52.2594 1104.58 L32.9077 1104.58 L32.9077 1108.88 L28.3562 1108.88 L28.3562 1104.58 L18.2347 1104.58 L18.2347 1098.69 Z" fill="#000000" fill-rule="nonzero" fill-opacity="1" /><path clip-path="url(#clip990)" d="M42.4881 1049.3 L64.0042 1049.3 L64.0042 1055.15 L42.679 1055.15 Q37.6183 1055.15 35.1038 1057.13 Q32.5894 1059.1 32.5894 1063.05 Q32.5894 1067.79 35.6131 1070.53 Q38.6368 1073.26 43.8567 1073.26 L64.0042 1073.26 L64.0042 1079.15 L14.479 1079.15 L14.479 1073.26 L33.8944 1073.26 Q30.6797 1071.16 29.0883 1068.33 Q27.4968 1065.46 27.4968 1061.74 Q27.4968 1055.6 31.3163 1052.45 Q35.1038 1049.3 42.4881 1049.3 Z" fill="#000000" fill-rule="nonzero" fill-opacity="1" /><path clip-path="url(#clip990)" d="M21.7677 1010.21 L39.6235 1010.21 L39.6235 1002.13 Q39.6235 997.638 37.3 995.187 Q34.9765 992.737 30.6797 992.737 Q26.4147 992.737 24.0912 995.187 Q21.7677 997.638 21.7677 1002.13 L21.7677 1010.21 M16.4842 1016.64 L16.4842 1002.13 Q16.4842 994.137 20.1126 990.063 Q23.7092 985.957 30.6797 985.957 Q37.7138 985.957 41.3104 990.063 Q44.907 994.137 44.907 1002.13 L44.907 1010.21 L64.0042 1010.21 L64.0042 1016.64 L16.4842 1016.64 Z" fill="#000000" fill-rule="nonzero" fill-opacity="1" /><path clip-path="url(#clip990)" d="M44.7161 949.418 L47.5806 949.418 L47.5806 976.345 Q53.6281 975.963 56.8109 972.716 Q59.9619 969.438 59.9619 963.614 Q59.9619 960.24 59.1344 957.089 Q58.3069 953.906 56.6518 950.787 L62.1899 950.787 Q63.5267 953.938 64.227 957.248 Q64.9272 960.558 64.9272 963.964 Q64.9272 972.494 59.9619 977.491 Q54.9967 982.456 46.5303 982.456 Q37.7774 982.456 32.6531 977.745 Q27.4968 973.003 27.4968 964.982 Q27.4968 957.789 32.1438 953.619 Q36.7589 949.418 44.7161 949.418 M42.9973 955.274 Q38.1912 955.338 35.3266 957.98 Q32.4621 960.59 32.4621 964.918 Q32.4621 969.82 35.2312 972.78 Q38.0002 975.708 43.0292 976.154 L42.9973 955.274 Z" fill="#000000" fill-rule="nonzero" fill-opacity="1" /><path clip-path="url(#clip990)" d="M33.8307 919.149 Q33.2578 920.136 33.0032 921.313 Q32.7167 922.459 32.7167 923.86 Q32.7167 928.825 35.9632 931.499 Q39.1779 934.14 45.2253 934.14 L64.0042 934.14 L64.0042 940.029 L28.3562 940.029 L28.3562 934.14 L33.8944 934.14 Q30.6479 932.294 29.0883 929.334 Q27.4968 926.374 27.4968 922.141 Q27.4968 921.536 27.5923 920.804 Q27.656 920.072 27.8151 919.181 L33.8307 919.149 Z" fill="#000000" fill-rule="nonzero" fill-opacity="1" /><path clip-path="url(#clip990)" d="M29.7248 888.785 L35.1993 888.785 Q33.8307 891.267 33.1623 893.782 Q32.4621 896.264 32.4621 898.811 Q32.4621 904.508 36.0905 907.659 Q39.6872 910.81 46.212 910.81 Q52.7369 910.81 56.3653 907.659 Q59.9619 904.508 59.9619 898.811 Q59.9619 896.264 59.2935 893.782 Q58.5933 891.267 57.2247 888.785 L62.6355 888.785 Q63.7814 891.235 64.3543 893.877 Q64.9272 896.487 64.9272 899.447 Q64.9272 907.5 59.8664 912.242 Q54.8057 916.985 46.212 916.985 Q37.491 916.985 32.4939 912.21 Q27.4968 907.404 27.4968 899.065 Q27.4968 896.36 28.0697 893.782 Q28.6108 891.204 29.7248 888.785 Z" fill="#000000" fill-rule="nonzero" fill-opacity="1" /><path clip-path="url(#clip990)" d="M44.7161 848.108 L47.5806 848.108 L47.5806 875.035 Q53.6281 874.653 56.8109 871.406 Q59.9619 868.128 59.9619 862.303 Q59.9619 858.929 59.1344 855.778 Q58.3069 852.596 56.6518 849.476 L62.1899 849.476 Q63.5267 852.627 64.227 855.938 Q64.9272 859.248 64.9272 862.653 Q64.9272 871.183 59.9619 876.181 Q54.9967 881.146 46.5303 881.146 Q37.7774 881.146 32.6531 876.435 Q27.4968 871.693 27.4968 863.672 Q27.4968 856.479 32.1438 852.309 Q36.7589 848.108 44.7161 848.108 M42.9973 853.964 Q38.1912 854.028 35.3266 856.67 Q32.4621 859.28 32.4621 863.608 Q32.4621 868.51 35.2312 871.47 Q38.0002 874.398 43.0292 874.844 L42.9973 853.964 Z" fill="#000000" fill-rule="nonzero" fill-opacity="1" /><path clip-path="url(#clip990)" d="M42.4881 808.863 L64.0042 808.863 L64.0042 814.72 L42.679 814.72 Q37.6183 814.72 35.1038 816.693 Q32.5894 818.666 32.5894 822.613 Q32.5894 827.356 35.6131 830.093 Q38.6368 832.83 43.8567 832.83 L64.0042 832.83 L64.0042 838.718 L28.3562 838.718 L28.3562 832.83 L33.8944 832.83 Q30.6797 830.729 29.0883 827.897 Q27.4968 825.032 27.4968 821.308 Q27.4968 815.165 31.3163 812.014 Q35.1038 808.863 42.4881 808.863 Z" fill="#000000" fill-rule="nonzero" fill-opacity="1" /><path clip-path="url(#clip990)" d="M18.2347 791.389 L28.3562 791.389 L28.3562 779.326 L32.9077 779.326 L32.9077 791.389 L52.2594 791.389 Q56.6199 791.389 57.8613 790.212 Q59.1026 789.002 59.1026 785.342 L59.1026 779.326 L64.0042 779.326 L64.0042 785.342 Q64.0042 792.121 61.4897 794.699 Q58.9434 797.278 52.2594 797.278 L32.9077 797.278 L32.9077 801.574 L28.3562 801.574 L28.3562 797.278 L18.2347 797.278 L18.2347 791.389 Z" fill="#000000" fill-rule="nonzero" fill-opacity="1" /><path clip-path="url(#clip990)" d="M28.3562 771.624 L28.3562 765.767 L64.0042 765.767 L64.0042 771.624 L28.3562 771.624 M14.479 771.624 L14.479 765.767 L21.895 765.767 L21.895 771.624 L14.479 771.624 Z" fill="#000000" fill-rule="nonzero" fill-opacity="1" /><path clip-path="url(#clip990)" d="M14.479 753.513 L14.479 747.657 L64.0042 747.657 L64.0042 753.513 L14.479 753.513 Z" fill="#000000" fill-rule="nonzero" fill-opacity="1" /><path clip-path="url(#clip990)" d="M44.7161 704.911 L47.5806 704.911 L47.5806 731.838 Q53.6281 731.456 56.8109 728.21 Q59.9619 724.931 59.9619 719.107 Q59.9619 715.733 59.1344 712.582 Q58.3069 709.399 56.6518 706.28 L62.1899 706.28 Q63.5267 709.431 64.227 712.741 Q64.9272 716.051 64.9272 719.457 Q64.9272 727.987 59.9619 732.984 Q54.9967 737.949 46.5303 737.949 Q37.7774 737.949 32.6531 733.239 Q27.4968 728.496 27.4968 720.475 Q27.4968 713.282 32.1438 709.113 Q36.7589 704.911 44.7161 704.911 M42.9973 710.768 Q38.1912 710.831 35.3266 713.473 Q32.4621 716.083 32.4621 720.412 Q32.4621 725.313 35.2312 728.273 Q38.0002 731.202 43.0292 731.647 L42.9973 710.768 Z" fill="#000000" fill-rule="nonzero" fill-opacity="1" /><path clip-path="url(#clip990)" d="M16.4842 674.324 L16.4842 644.278 L21.895 644.278 L21.895 667.895 L35.9632 667.895 L35.9632 645.265 L41.3741 645.265 L41.3741 667.895 L58.5933 667.895 L58.5933 643.705 L64.0042 643.705 L64.0042 674.324 L16.4842 674.324 Z" fill="#000000" fill-rule="nonzero" fill-opacity="1" /><path clip-path="url(#clip990)" d="M33.8307 612.736 Q33.2578 613.722 33.0032 614.9 Q32.7167 616.046 32.7167 617.446 Q32.7167 622.412 35.9632 625.085 Q39.1779 627.727 45.2253 627.727 L64.0042 627.727 L64.0042 633.615 L28.3562 633.615 L28.3562 627.727 L33.8944 627.727 Q30.6479 625.881 29.0883 622.921 Q27.4968 619.961 27.4968 615.728 Q27.4968 615.123 27.5923 614.391 Q27.656 613.659 27.8151 612.768 L33.8307 612.736 Z" fill="#000000" fill-rule="nonzero" fill-opacity="1" /><path clip-path="url(#clip990)" d="M33.8307 587.082 Q33.2578 588.069 33.0032 589.246 Q32.7167 590.392 32.7167 591.793 Q32.7167 596.758 35.9632 599.431 Q39.1779 602.073 45.2253 602.073 L64.0042 602.073 L64.0042 607.961 L28.3562 607.961 L28.3562 602.073 L33.8944 602.073 Q30.6479 600.227 29.0883 597.267 Q27.4968 594.307 27.4968 590.074 Q27.4968 589.469 27.5923 588.737 Q27.656 588.005 27.8151 587.114 L33.8307 587.082 Z" fill="#000000" fill-rule="nonzero" fill-opacity="1" /><path clip-path="url(#clip990)" d="M55.9197 586.095 L55.9197 579.379 L64.0042 579.379 L64.0042 586.095 L55.9197 586.095 Z" fill="#000000" fill-rule="nonzero" fill-opacity="1" /><path clip-path="url(#clip990)" d="M44.0477 540.708 Q46.403 540.485 50.2224 538.48 Q54.6466 536.124 57.1292 531.668 Q59.5482 527.308 59.58 522.597 L59.58 500.413 L64.6407 500.413 L64.6407 522.597 Q64.6407 528.708 61.4897 534.374 Q58.3387 540.008 52.7369 543.031 Q47.135 546.055 41.1831 546.055 Q35.2948 546.055 29.693 543.031 Q24.0912 540.008 20.9083 534.374 Q17.7255 528.708 17.7255 522.597 L17.7255 500.413 L22.7862 500.413 L22.7862 522.597 Q22.818 527.308 25.2688 531.668 Q27.7833 536.093 32.1756 538.48 Q35.995 540.517 38.9551 540.803 L38.9551 500.413 L44.0477 500.413 L44.0477 540.708 Z" fill="#000000" fill-rule="nonzero" fill-opacity="1" /><path clip-path="url(#clip990)" d="M14.479 468.521 L14.479 455.025 L19.0304 455.025 L19.0304 462.664 L68.0464 462.664 L68.0464 455.025 L72.5979 455.025 L72.5979 468.521 L14.479 468.521 Z" fill="#000000" fill-rule="nonzero" fill-opacity="1" /><path clip-path="url(#clip990)" d="M43.5384 445.509 L43.5384 428.353 L48.7583 428.353 L48.7583 445.509 L43.5384 445.509 Z" fill="#000000" fill-rule="nonzero" fill-opacity="1" /><path clip-path="url(#clip990)" d="M58.5933 417.086 L58.5933 406.582 L22.3406 406.582 L24.6323 418.009 L18.7758 418.009 L16.4842 406.646 L16.4842 400.217 L58.5933 400.217 L58.5933 389.713 L64.0042 389.713 L64.0042 417.086 L58.5933 417.086 Z" fill="#000000" fill-rule="nonzero" fill-opacity="1" /><path clip-path="url(#clip990)" d="M55.9197 376.059 L55.9197 369.343 L61.3942 369.343 L71.5793 374.563 L71.5793 378.669 L61.3942 376.059 L55.9197 376.059 Z" fill="#000000" fill-rule="nonzero" fill-opacity="1" /><path clip-path="url(#clip990)" d="M58.5933 334.172 L58.5933 323.669 L22.3406 323.669 L24.6323 335.095 L18.7758 335.095 L16.4842 323.733 L16.4842 317.303 L58.5933 317.303 L58.5933 306.8 L64.0042 306.8 L64.0042 334.172 L58.5933 334.172 Z" fill="#000000" fill-rule="nonzero" fill-opacity="1" /><path clip-path="url(#clip990)" d="M14.479 280.955 L72.5979 280.955 L72.5979 294.45 L68.0464 294.45 L68.0464 286.843 L19.0304 286.843 L19.0304 294.45 L14.479 294.45 L14.479 280.955 Z" fill="#000000" fill-rule="nonzero" fill-opacity="1" /><polyline clip-path="url(#clip992)" style="stroke:#1f77b4; stroke-linecap:round; stroke-linejoin:round; stroke-width:8; stroke-opacity:1; fill:none" points="280.231,526.141 398.593,769.83 516.956,921.858 635.318,985.997 753.68,1036.13 872.043,1077.1 990.405,1110.91 1108.77,1139.94 1227.13,1163.45 1345.49,1184.56 1463.85,1203.07 1582.22,1216.25 1700.58,1227.75 1818.94,1238.13 1937.3,1247.54 2055.67,1256.64 2174.03,1264.63 2292.39,1272.04 "/>
<circle clip-path="url(#clip992)" cx="280.231" cy="526.141" r="14.4" fill="#1f77b4" fill-rule="evenodd" fill-opacity="1" stroke="#000000" stroke-opacity="1" stroke-width="3.2"/>
<circle clip-path="url(#clip992)" cx="398.593" cy="769.83" r="14.4" fill="#1f77b4" fill-rule="evenodd" fill-opacity="1" stroke="#000000" stroke-opacity="1" stroke-width="3.2"/>
<circle clip-path="url(#clip992)" cx="516.956" cy="921.858" r="14.4" fill="#1f77b4" fill-rule="evenodd" fill-opacity="1" stroke="#000000" stroke-opacity="1" stroke-width="3.2"/>
<circle clip-path="url(#clip992)" cx="635.318" cy="985.997" r="14.4" fill="#1f77b4" fill-rule="evenodd" fill-opacity="1" stroke="#000000" stroke-opacity="1" stroke-width="3.2"/>
<circle clip-path="url(#clip992)" cx="753.68" cy="1036.13" r="14.4" fill="#1f77b4" fill-rule="evenodd" fill-opacity="1" stroke="#000000" stroke-opacity="1" stroke-width="3.2"/>
<circle clip-path="url(#clip992)" cx="872.043" cy="1077.1" r="14.4" fill="#1f77b4" fill-rule="evenodd" fill-opacity="1" stroke="#000000" stroke-opacity="1" stroke-width="3.2"/>
<circle clip-path="url(#clip992)" cx="990.405" cy="1110.91" r="14.4" fill="#1f77b4" fill-rule="evenodd" fill-opacity="1" stroke="#000000" stroke-opacity="1" stroke-width="3.2"/>
<circle clip-path="url(#clip992)" cx="1108.77" cy="1139.94" r="14.4" fill="#1f77b4" fill-rule="evenodd" fill-opacity="1" stroke="#000000" stroke-opacity="1" stroke-width="3.2"/>
<circle clip-path="url(#clip992)" cx="1227.13" cy="1163.45" r="14.4" fill="#1f77b4" fill-rule="evenodd" fill-opacity="1" stroke="#000000" stroke-opacity="1" stroke-width="3.2"/>
<circle clip-path="url(#clip992)" cx="1345.49" cy="1184.56" r="14.4" fill="#1f77b4" fill-rule="evenodd" fill-opacity="1" stroke="#000000" stroke-opacity="1" stroke-width="3.2"/>
<circle clip-path="url(#clip992)" cx="1463.85" cy="1203.07" r="14.4" fill="#1f77b4" fill-rule="evenodd" fill-opacity="1" stroke="#000000" stroke-opacity="1" stroke-width="3.2"/>
<circle clip-path="url(#clip992)" cx="1582.22" cy="1216.25" r="14.4" fill="#1f77b4" fill-rule="evenodd" fill-opacity="1" stroke="#000000" stroke-opacity="1" stroke-width="3.2"/>
<circle clip-path="url(#clip992)" cx="1700.58" cy="1227.75" r="14.4" fill="#1f77b4" fill-rule="evenodd" fill-opacity="1" stroke="#000000" stroke-opacity="1" stroke-width="3.2"/>
<circle clip-path="url(#clip992)" cx="1818.94" cy="1238.13" r="14.4" fill="#1f77b4" fill-rule="evenodd" fill-opacity="1" stroke="#000000" stroke-opacity="1" stroke-width="3.2"/>
<circle clip-path="url(#clip992)" cx="1937.3" cy="1247.54" r="14.4" fill="#1f77b4" fill-rule="evenodd" fill-opacity="1" stroke="#000000" stroke-opacity="1" stroke-width="3.2"/>
<circle clip-path="url(#clip992)" cx="2055.67" cy="1256.64" r="14.4" fill="#1f77b4" fill-rule="evenodd" fill-opacity="1" stroke="#000000" stroke-opacity="1" stroke-width="3.2"/>
<circle clip-path="url(#clip992)" cx="2174.03" cy="1264.63" r="14.4" fill="#1f77b4" fill-rule="evenodd" fill-opacity="1" stroke="#000000" stroke-opacity="1" stroke-width="3.2"/>
<circle clip-path="url(#clip992)" cx="2292.39" cy="1272.04" r="14.4" fill="#1f77b4" fill-rule="evenodd" fill-opacity="1" stroke="#000000" stroke-opacity="1" stroke-width="3.2"/>
<polyline clip-path="url(#clip992)" style="stroke:#ff7e0d; stroke-linecap:round; stroke-linejoin:round; stroke-width:8; stroke-opacity:1; fill:none" points="280.231,86.1857 398.593,650.755 516.956,923.815 635.318,1075.11 753.68,1167.36 872.043,1226.4 990.405,1268.83 1108.77,1292.82 1227.13,1305.73 1345.49,1320.49 1463.85,1335.25 1582.22,1346.32 1700.58,1355.56 1818.94,1362.93 1937.3,1368.46 2055.67,1375.84 2174.03,1377.7 2292.39,1381.39 "/>
<circle clip-path="url(#clip992)" cx="280.231" cy="86.1857" r="14.4" fill="#ff7e0d" fill-rule="evenodd" fill-opacity="1" stroke="#000000" stroke-opacity="1" stroke-width="3.2"/>
<circle clip-path="url(#clip992)" cx="398.593" cy="650.755" r="14.4" fill="#ff7e0d" fill-rule="evenodd" fill-opacity="1" stroke="#000000" stroke-opacity="1" stroke-width="3.2"/>
<circle clip-path="url(#clip992)" cx="516.956" cy="923.815" r="14.4" fill="#ff7e0d" fill-rule="evenodd" fill-opacity="1" stroke="#000000" stroke-opacity="1" stroke-width="3.2"/>
<circle clip-path="url(#clip992)" cx="635.318" cy="1075.11" r="14.4" fill="#ff7e0d" fill-rule="evenodd" fill-opacity="1" stroke="#000000" stroke-opacity="1" stroke-width="3.2"/>
<circle clip-path="url(#clip992)" cx="753.68" cy="1167.36" r="14.4" fill="#ff7e0d" fill-rule="evenodd" fill-opacity="1" stroke="#000000" stroke-opacity="1" stroke-width="3.2"/>
<circle clip-path="url(#clip992)" cx="872.043" cy="1226.4" r="14.4" fill="#ff7e0d" fill-rule="evenodd" fill-opacity="1" stroke="#000000" stroke-opacity="1" stroke-width="3.2"/>
<circle clip-path="url(#clip992)" cx="990.405" cy="1268.83" r="14.4" fill="#ff7e0d" fill-rule="evenodd" fill-opacity="1" stroke="#000000" stroke-opacity="1" stroke-width="3.2"/>
<circle clip-path="url(#clip992)" cx="1108.77" cy="1292.82" r="14.4" fill="#ff7e0d" fill-rule="evenodd" fill-opacity="1" stroke="#000000" stroke-opacity="1" stroke-width="3.2"/>
<circle clip-path="url(#clip992)" cx="1227.13" cy="1305.73" r="14.4" fill="#ff7e0d" fill-rule="evenodd" fill-opacity="1" stroke="#000000" stroke-opacity="1" stroke-width="3.2"/>
<circle clip-path="url(#clip992)" cx="1345.49" cy="1320.49" r="14.4" fill="#ff7e0d" fill-rule="evenodd" fill-opacity="1" stroke="#000000" stroke-opacity="1" stroke-width="3.2"/>
<circle clip-path="url(#clip992)" cx="1463.85" cy="1335.25" r="14.4" fill="#ff7e0d" fill-rule="evenodd" fill-opacity="1" stroke="#000000" stroke-opacity="1" stroke-width="3.2"/>
<circle clip-path="url(#clip992)" cx="1582.22" cy="1346.32" r="14.4" fill="#ff7e0d" fill-rule="evenodd" fill-opacity="1" stroke="#000000" stroke-opacity="1" stroke-width="3.2"/>
<circle clip-path="url(#clip992)" cx="1700.58" cy="1355.56" r="14.4" fill="#ff7e0d" fill-rule="evenodd" fill-opacity="1" stroke="#000000" stroke-opacity="1" stroke-width="3.2"/>
<circle clip-path="url(#clip992)" cx="1818.94" cy="1362.93" r="14.4" fill="#ff7e0d" fill-rule="evenodd" fill-opacity="1" stroke="#000000" stroke-opacity="1" stroke-width="3.2"/>
<circle clip-path="url(#clip992)" cx="1937.3" cy="1368.46" r="14.4" fill="#ff7e0d" fill-rule="evenodd" fill-opacity="1" stroke="#000000" stroke-opacity="1" stroke-width="3.2"/>
<circle clip-path="url(#clip992)" cx="2055.67" cy="1375.84" r="14.4" fill="#ff7e0d" fill-rule="evenodd" fill-opacity="1" stroke="#000000" stroke-opacity="1" stroke-width="3.2"/>
<circle clip-path="url(#clip992)" cx="2174.03" cy="1377.7" r="14.4" fill="#ff7e0d" fill-rule="evenodd" fill-opacity="1" stroke="#000000" stroke-opacity="1" stroke-width="3.2"/>
<circle clip-path="url(#clip992)" cx="2292.39" cy="1381.39" r="14.4" fill="#ff7e0d" fill-rule="evenodd" fill-opacity="1" stroke="#000000" stroke-opacity="1" stroke-width="3.2"/>
<polyline clip-path="url(#clip992)" style="stroke:#2ba02b; stroke-linecap:round; stroke-linejoin:round; stroke-width:8; stroke-opacity:1; fill:none" points="280.231,925.053 398.593,1103.17 516.956,1201.53 635.318,1253.63 753.68,1288.63 872.043,1312.6 990.405,1329.04 1108.77,1341.55 1227.13,1350.84 1345.49,1358.24 1463.85,1363.87 1582.22,1368.6 1700.58,1372.45 1818.94,1375.63 1937.3,1378.32 2055.67,1380.61 2174.03,1382.58 2292.39,1384.24 "/>
<circle clip-path="url(#clip992)" cx="280.231" cy="925.053" r="14.4" fill="#2ba02b" fill-rule="evenodd" fill-opacity="1" stroke="#000000" stroke-opacity="1" stroke-width="3.2"/>
<circle clip-path="url(#clip992)" cx="398.593" cy="1103.17" r="14.4" fill="#2ba02b" fill-rule="evenodd" fill-opacity="1" stroke="#000000" stroke-opacity="1" stroke-width="3.2"/>
<circle clip-path="url(#clip992)" cx="516.956" cy="1201.53" r="14.4" fill="#2ba02b" fill-rule="evenodd" fill-opacity="1" stroke="#000000" stroke-opacity="1" stroke-width="3.2"/>
<circle clip-path="url(#clip992)" cx="635.318" cy="1253.63" r="14.4" fill="#2ba02b" fill-rule="evenodd" fill-opacity="1" stroke="#000000" stroke-opacity="1" stroke-width="3.2"/>
<circle clip-path="url(#clip992)" cx="753.68" cy="1288.63" r="14.4" fill="#2ba02b" fill-rule="evenodd" fill-opacity="1" stroke="#000000" stroke-opacity="1" stroke-width="3.2"/>
<circle clip-path="url(#clip992)" cx="872.043" cy="1312.6" r="14.4" fill="#2ba02b" fill-rule="evenodd" fill-opacity="1" stroke="#000000" stroke-opacity="1" stroke-width="3.2"/>
<circle clip-path="url(#clip992)" cx="990.405" cy="1329.04" r="14.4" fill="#2ba02b" fill-rule="evenodd" fill-opacity="1" stroke="#000000" stroke-opacity="1" stroke-width="3.2"/>
<circle clip-path="url(#clip992)" cx="1108.77" cy="1341.55" r="14.4" fill="#2ba02b" fill-rule="evenodd" fill-opacity="1" stroke="#000000" stroke-opacity="1" stroke-width="3.2"/>
<circle clip-path="url(#clip992)" cx="1227.13" cy="1350.84" r="14.4" fill="#2ba02b" fill-rule="evenodd" fill-opacity="1" stroke="#000000" stroke-opacity="1" stroke-width="3.2"/>
<circle clip-path="url(#clip992)" cx="1345.49" cy="1358.24" r="14.4" fill="#2ba02b" fill-rule="evenodd" fill-opacity="1" stroke="#000000" stroke-opacity="1" stroke-width="3.2"/>
<circle clip-path="url(#clip992)" cx="1463.85" cy="1363.87" r="14.4" fill="#2ba02b" fill-rule="evenodd" fill-opacity="1" stroke="#000000" stroke-opacity="1" stroke-width="3.2"/>
<circle clip-path="url(#clip992)" cx="1582.22" cy="1368.6" r="14.4" fill="#2ba02b" fill-rule="evenodd" fill-opacity="1" stroke="#000000" stroke-opacity="1" stroke-width="3.2"/>
<circle clip-path="url(#clip992)" cx="1700.58" cy="1372.45" r="14.4" fill="#2ba02b" fill-rule="evenodd" fill-opacity="1" stroke="#000000" stroke-opacity="1" stroke-width="3.2"/>
<circle clip-path="url(#clip992)" cx="1818.94" cy="1375.63" r="14.4" fill="#2ba02b" fill-rule="evenodd" fill-opacity="1" stroke="#000000" stroke-opacity="1" stroke-width="3.2"/>
<circle clip-path="url(#clip992)" cx="1937.3" cy="1378.32" r="14.4" fill="#2ba02b" fill-rule="evenodd" fill-opacity="1" stroke="#000000" stroke-opacity="1" stroke-width="3.2"/>
<circle clip-path="url(#clip992)" cx="2055.67" cy="1380.61" r="14.4" fill="#2ba02b" fill-rule="evenodd" fill-opacity="1" stroke="#000000" stroke-opacity="1" stroke-width="3.2"/>
<circle clip-path="url(#clip992)" cx="2174.03" cy="1382.58" r="14.4" fill="#2ba02b" fill-rule="evenodd" fill-opacity="1" stroke="#000000" stroke-opacity="1" stroke-width="3.2"/>
<circle clip-path="url(#clip992)" cx="2292.39" cy="1384.24" r="14.4" fill="#2ba02b" fill-rule="evenodd" fill-opacity="1" stroke="#000000" stroke-opacity="1" stroke-width="3.2"/>
<path clip-path="url(#clip990)" d="M1795.27 300.469 L2281.66 300.469 L2281.66 93.1086 L1795.27 93.1086  Z" fill="#ffffff" fill-rule="evenodd" fill-opacity="1"/>
<polyline clip-path="url(#clip990)" style="stroke:#000000; stroke-linecap:round; stroke-linejoin:round; stroke-width:4; stroke-opacity:1; fill:none" points="1795.27,300.469 2281.66,300.469 2281.66,93.1086 1795.27,93.1086 1795.27,300.469 "/>
<polyline clip-path="url(#clip990)" style="stroke:#1f77b4; stroke-linecap:round; stroke-linejoin:round; stroke-width:8; stroke-opacity:1; fill:none" points="1818.97,144.949 1961.16,144.949 "/>
<path clip-path="url(#clip990)" d="M1984.86 127.669 L2006.71 127.669 L2006.71 131.604 L1989.54 131.604 L1989.54 141.835 L2005.99 141.835 L2005.99 145.77 L1989.54 145.77 L1989.54 158.293 L2007.13 158.293 L2007.13 162.229 L1984.86 162.229 L1984.86 127.669 Z" fill="#000000" fill-rule="nonzero" fill-opacity="1" /><path clip-path="url(#clip990)" d="M2036.18 136.303 L2026.8 148.919 L2036.67 162.229 L2031.64 162.229 L2024.1 152.043 L2016.55 162.229 L2011.53 162.229 L2021.6 148.664 L2012.38 136.303 L2017.41 136.303 L2024.28 145.539 L2031.16 136.303 L2036.18 136.303 Z" fill="#000000" fill-rule="nonzero" fill-opacity="1" /><path clip-path="url(#clip990)" d="M2046.8 158.34 L2046.8 172.09 L2042.52 172.09 L2042.52 136.303 L2046.8 136.303 L2046.8 140.238 Q2048.15 137.923 2050.18 136.812 Q2052.24 135.678 2055.09 135.678 Q2059.81 135.678 2062.75 139.428 Q2065.72 143.178 2065.72 149.289 Q2065.72 155.4 2062.75 159.15 Q2059.81 162.9 2055.09 162.9 Q2052.24 162.9 2050.18 161.789 Q2048.15 160.655 2046.8 158.34 M2061.3 149.289 Q2061.3 144.59 2059.35 141.928 Q2057.43 139.243 2054.05 139.243 Q2050.67 139.243 2048.73 141.928 Q2046.8 144.59 2046.8 149.289 Q2046.8 153.988 2048.73 156.673 Q2050.67 159.335 2054.05 159.335 Q2057.43 159.335 2059.35 156.673 Q2061.3 153.988 2061.3 149.289 Z" fill="#000000" fill-rule="nonzero" fill-opacity="1" /><path clip-path="url(#clip990)" d="M2094.95 148.201 L2094.95 150.284 L2075.37 150.284 Q2075.65 154.682 2078.01 156.997 Q2080.39 159.289 2084.63 159.289 Q2087.08 159.289 2089.37 158.687 Q2091.69 158.085 2093.96 156.881 L2093.96 160.909 Q2091.67 161.881 2089.26 162.391 Q2086.85 162.9 2084.37 162.9 Q2078.17 162.9 2074.54 159.289 Q2070.92 155.678 2070.92 149.52 Q2070.92 143.155 2074.35 139.428 Q2077.8 135.678 2083.63 135.678 Q2088.86 135.678 2091.9 139.057 Q2094.95 142.414 2094.95 148.201 M2090.69 146.951 Q2090.65 143.456 2088.73 141.372 Q2086.83 139.289 2083.68 139.289 Q2080.11 139.289 2077.96 141.303 Q2075.83 143.317 2075.51 146.974 L2090.69 146.951 Z" fill="#000000" fill-rule="nonzero" fill-opacity="1" /><path clip-path="url(#clip990)" d="M2120.6 137.298 L2120.6 141.28 Q2118.79 140.284 2116.97 139.798 Q2115.16 139.289 2113.31 139.289 Q2109.17 139.289 2106.87 141.928 Q2104.58 144.544 2104.58 149.289 Q2104.58 154.034 2106.87 156.673 Q2109.17 159.289 2113.31 159.289 Q2115.16 159.289 2116.97 158.803 Q2118.79 158.293 2120.6 157.298 L2120.6 161.233 Q2118.82 162.067 2116.9 162.483 Q2115 162.9 2112.85 162.9 Q2106.99 162.9 2103.54 159.219 Q2100.09 155.539 2100.09 149.289 Q2100.09 142.946 2103.56 139.312 Q2107.06 135.678 2113.12 135.678 Q2115.09 135.678 2116.97 136.095 Q2118.84 136.488 2120.6 137.298 Z" fill="#000000" fill-rule="nonzero" fill-opacity="1" /><path clip-path="url(#clip990)" d="M2132.22 128.942 L2132.22 136.303 L2140.99 136.303 L2140.99 139.613 L2132.22 139.613 L2132.22 153.687 Q2132.22 156.858 2133.08 157.761 Q2133.96 158.664 2136.62 158.664 L2140.99 158.664 L2140.99 162.229 L2136.62 162.229 Q2131.69 162.229 2129.81 160.4 Q2127.94 158.548 2127.94 153.687 L2127.94 139.613 L2124.81 139.613 L2124.81 136.303 L2127.94 136.303 L2127.94 128.942 L2132.22 128.942 Z" fill="#000000" fill-rule="nonzero" fill-opacity="1" /><path clip-path="url(#clip990)" d="M2158.38 149.196 Q2153.22 149.196 2151.23 150.377 Q2149.23 151.557 2149.23 154.405 Q2149.23 156.673 2150.72 158.016 Q2152.22 159.335 2154.79 159.335 Q2158.33 159.335 2160.46 156.835 Q2162.61 154.312 2162.61 150.145 L2162.61 149.196 L2158.38 149.196 M2166.87 147.437 L2166.87 162.229 L2162.61 162.229 L2162.61 158.293 Q2161.16 160.655 2158.98 161.789 Q2156.8 162.9 2153.66 162.9 Q2149.67 162.9 2147.31 160.678 Q2144.98 158.432 2144.98 154.682 Q2144.98 150.307 2147.89 148.085 Q2150.83 145.863 2156.64 145.863 L2162.61 145.863 L2162.61 145.446 Q2162.61 142.507 2160.67 140.909 Q2158.75 139.289 2155.25 139.289 Q2153.03 139.289 2150.92 139.821 Q2148.82 140.354 2146.87 141.419 L2146.87 137.483 Q2149.21 136.581 2151.41 136.141 Q2153.61 135.678 2155.69 135.678 Q2161.32 135.678 2164.1 138.594 Q2166.87 141.511 2166.87 147.437 Z" fill="#000000" fill-rule="nonzero" fill-opacity="1" /><path clip-path="url(#clip990)" d="M2179.86 128.942 L2179.86 136.303 L2188.63 136.303 L2188.63 139.613 L2179.86 139.613 L2179.86 153.687 Q2179.86 156.858 2180.72 157.761 Q2181.6 158.664 2184.26 158.664 L2188.63 158.664 L2188.63 162.229 L2184.26 162.229 Q2179.33 162.229 2177.45 160.4 Q2175.58 158.548 2175.58 153.687 L2175.58 139.613 L2172.45 139.613 L2172.45 136.303 L2175.58 136.303 L2175.58 128.942 L2179.86 128.942 Z" fill="#000000" fill-rule="nonzero" fill-opacity="1" /><path clip-path="url(#clip990)" d="M2194.23 136.303 L2198.49 136.303 L2198.49 162.229 L2194.23 162.229 L2194.23 136.303 M2194.23 126.21 L2198.49 126.21 L2198.49 131.604 L2194.23 131.604 L2194.23 126.21 Z" fill="#000000" fill-rule="nonzero" fill-opacity="1" /><path clip-path="url(#clip990)" d="M2217.45 139.289 Q2214.03 139.289 2212.04 141.974 Q2210.04 144.636 2210.04 149.289 Q2210.04 153.942 2212.01 156.627 Q2214 159.289 2217.45 159.289 Q2220.85 159.289 2222.85 156.604 Q2224.84 153.918 2224.84 149.289 Q2224.84 144.682 2222.85 141.997 Q2220.85 139.289 2217.45 139.289 M2217.45 135.678 Q2223.01 135.678 2226.18 139.289 Q2229.35 142.9 2229.35 149.289 Q2229.35 155.655 2226.18 159.289 Q2223.01 162.9 2217.45 162.9 Q2211.87 162.9 2208.7 159.289 Q2205.55 155.655 2205.55 149.289 Q2205.55 142.9 2208.7 139.289 Q2211.87 135.678 2217.45 135.678 Z" fill="#000000" fill-rule="nonzero" fill-opacity="1" /><path clip-path="url(#clip990)" d="M2257.96 146.581 L2257.96 162.229 L2253.7 162.229 L2253.7 146.719 Q2253.7 143.039 2252.27 141.21 Q2250.83 139.382 2247.96 139.382 Q2244.51 139.382 2242.52 141.581 Q2240.53 143.78 2240.53 147.576 L2240.53 162.229 L2236.25 162.229 L2236.25 136.303 L2240.53 136.303 L2240.53 140.331 Q2242.06 137.993 2244.12 136.835 Q2246.2 135.678 2248.91 135.678 Q2253.38 135.678 2255.67 138.456 Q2257.96 141.21 2257.96 146.581 Z" fill="#000000" fill-rule="nonzero" fill-opacity="1" /><polyline clip-path="url(#clip990)" style="stroke:#ff7e0d; stroke-linecap:round; stroke-linejoin:round; stroke-width:8; stroke-opacity:1; fill:none" points="1818.97,196.789 1961.16,196.789 "/>
<path clip-path="url(#clip990)" d="M1984.86 179.509 L1991.83 179.509 L2000.65 203.027 L2009.51 179.509 L2016.48 179.509 L2016.48 214.069 L2011.92 214.069 L2011.92 183.722 L2003.01 207.425 L1998.31 207.425 L1989.4 183.722 L1989.4 214.069 L1984.86 214.069 L1984.86 179.509 Z" fill="#000000" fill-rule="nonzero" fill-opacity="1" /><path clip-path="url(#clip990)" d="M2035.62 191.129 Q2032.2 191.129 2030.21 193.814 Q2028.22 196.476 2028.22 201.129 Q2028.22 205.782 2030.18 208.467 Q2032.17 211.129 2035.62 211.129 Q2039.03 211.129 2041.02 208.444 Q2043.01 205.758 2043.01 201.129 Q2043.01 196.522 2041.02 193.837 Q2039.03 191.129 2035.62 191.129 M2035.62 187.518 Q2041.18 187.518 2044.35 191.129 Q2047.52 194.74 2047.52 201.129 Q2047.52 207.495 2044.35 211.129 Q2041.18 214.74 2035.62 214.74 Q2030.05 214.74 2026.87 211.129 Q2023.73 207.495 2023.73 201.129 Q2023.73 194.74 2026.87 191.129 Q2030.05 187.518 2035.62 187.518 Z" fill="#000000" fill-rule="nonzero" fill-opacity="1" /><path clip-path="url(#clip990)" d="M2071.64 192.078 L2071.64 178.05 L2075.9 178.05 L2075.9 214.069 L2071.64 214.069 L2071.64 210.18 Q2070.3 212.495 2068.24 213.629 Q2066.2 214.74 2063.33 214.74 Q2058.63 214.74 2055.67 210.99 Q2052.73 207.24 2052.73 201.129 Q2052.73 195.018 2055.67 191.268 Q2058.63 187.518 2063.33 187.518 Q2066.2 187.518 2068.24 188.652 Q2070.3 189.763 2071.64 192.078 M2057.13 201.129 Q2057.13 205.828 2059.05 208.513 Q2060.99 211.175 2064.37 211.175 Q2067.75 211.175 2069.7 208.513 Q2071.64 205.828 2071.64 201.129 Q2071.64 196.43 2069.7 193.768 Q2067.75 191.083 2064.37 191.083 Q2060.99 191.083 2059.05 193.768 Q2057.13 196.43 2057.13 201.129 Z" fill="#000000" fill-rule="nonzero" fill-opacity="1" /><path clip-path="url(#clip990)" d="M2106.85 200.041 L2106.85 202.124 L2087.27 202.124 Q2087.55 206.522 2089.91 208.837 Q2092.29 211.129 2096.53 211.129 Q2098.98 211.129 2101.27 210.527 Q2103.59 209.925 2105.86 208.721 L2105.86 212.749 Q2103.56 213.721 2101.16 214.231 Q2098.75 214.74 2096.27 214.74 Q2090.07 214.74 2086.43 211.129 Q2082.82 207.518 2082.82 201.36 Q2082.82 194.995 2086.25 191.268 Q2089.7 187.518 2095.53 187.518 Q2100.76 187.518 2103.79 190.897 Q2106.85 194.254 2106.85 200.041 M2102.59 198.791 Q2102.54 195.296 2100.62 193.212 Q2098.73 191.129 2095.58 191.129 Q2092.01 191.129 2089.86 193.143 Q2087.73 195.157 2087.41 198.814 L2102.59 198.791 Z" fill="#000000" fill-rule="nonzero" fill-opacity="1" /><polyline clip-path="url(#clip990)" style="stroke:#2ba02b; stroke-linecap:round; stroke-linejoin:round; stroke-width:8; stroke-opacity:1; fill:none" points="1818.97,248.629 1961.16,248.629 "/>
<path clip-path="url(#clip990)" d="M1984.86 231.349 L1991.83 231.349 L2000.65 254.867 L2009.51 231.349 L2016.48 231.349 L2016.48 265.909 L2011.92 265.909 L2011.92 235.562 L2003.01 259.265 L1998.31 259.265 L1989.4 235.562 L1989.4 265.909 L1984.86 265.909 L1984.86 231.349 Z" fill="#000000" fill-rule="nonzero" fill-opacity="1" /><path clip-path="url(#clip990)" d="M2047.75 251.881 L2047.75 253.964 L2028.17 253.964 Q2028.45 258.362 2030.81 260.677 Q2033.19 262.969 2037.43 262.969 Q2039.88 262.969 2042.17 262.367 Q2044.49 261.765 2046.76 260.561 L2046.76 264.589 Q2044.47 265.561 2042.06 266.071 Q2039.65 266.58 2037.17 266.58 Q2030.97 266.58 2027.34 262.969 Q2023.73 259.358 2023.73 253.2 Q2023.73 246.835 2027.15 243.108 Q2030.6 239.358 2036.43 239.358 Q2041.67 239.358 2044.7 242.737 Q2047.75 246.094 2047.75 251.881 M2043.49 250.631 Q2043.45 247.136 2041.53 245.052 Q2039.63 242.969 2036.48 242.969 Q2032.92 242.969 2030.76 244.983 Q2028.63 246.997 2028.31 250.654 L2043.49 250.631 Z" fill="#000000" fill-rule="nonzero" fill-opacity="1" /><path clip-path="url(#clip990)" d="M2071.8 243.918 L2071.8 229.89 L2076.06 229.89 L2076.06 265.909 L2071.8 265.909 L2071.8 262.02 Q2070.46 264.335 2068.4 265.469 Q2066.36 266.58 2063.49 266.58 Q2058.8 266.58 2055.83 262.83 Q2052.89 259.08 2052.89 252.969 Q2052.89 246.858 2055.83 243.108 Q2058.8 239.358 2063.49 239.358 Q2066.36 239.358 2068.4 240.492 Q2070.46 241.603 2071.8 243.918 M2057.29 252.969 Q2057.29 257.668 2059.21 260.353 Q2061.16 263.015 2064.54 263.015 Q2067.92 263.015 2069.86 260.353 Q2071.8 257.668 2071.8 252.969 Q2071.8 248.27 2069.86 245.608 Q2067.92 242.923 2064.54 242.923 Q2061.16 242.923 2059.21 245.608 Q2057.29 248.27 2057.29 252.969 Z" fill="#000000" fill-rule="nonzero" fill-opacity="1" /><path clip-path="url(#clip990)" d="M2084.84 239.983 L2089.1 239.983 L2089.1 265.909 L2084.84 265.909 L2084.84 239.983 M2084.84 229.89 L2089.1 229.89 L2089.1 235.284 L2084.84 235.284 L2084.84 229.89 Z" fill="#000000" fill-rule="nonzero" fill-opacity="1" /><path clip-path="url(#clip990)" d="M2109.79 252.876 Q2104.63 252.876 2102.64 254.057 Q2100.65 255.237 2100.65 258.085 Q2100.65 260.353 2102.13 261.696 Q2103.63 263.015 2106.2 263.015 Q2109.74 263.015 2111.87 260.515 Q2114.03 257.992 2114.03 253.825 L2114.03 252.876 L2109.79 252.876 M2118.29 251.117 L2118.29 265.909 L2114.03 265.909 L2114.03 261.973 Q2112.57 264.335 2110.39 265.469 Q2108.22 266.58 2105.07 266.58 Q2101.09 266.58 2098.73 264.358 Q2096.39 262.112 2096.39 258.362 Q2096.39 253.987 2099.3 251.765 Q2102.24 249.543 2108.05 249.543 L2114.03 249.543 L2114.03 249.126 Q2114.03 246.187 2112.08 244.589 Q2110.16 242.969 2106.67 242.969 Q2104.44 242.969 2102.34 243.501 Q2100.23 244.034 2098.29 245.099 L2098.29 241.163 Q2100.62 240.261 2102.82 239.821 Q2105.02 239.358 2107.11 239.358 Q2112.73 239.358 2115.51 242.274 Q2118.29 245.191 2118.29 251.117 Z" fill="#000000" fill-rule="nonzero" fill-opacity="1" /><path clip-path="url(#clip990)" d="M2148.61 250.261 L2148.61 265.909 L2144.35 265.909 L2144.35 250.399 Q2144.35 246.719 2142.92 244.89 Q2141.48 243.062 2138.61 243.062 Q2135.16 243.062 2133.17 245.261 Q2131.18 247.46 2131.18 251.256 L2131.18 265.909 L2126.9 265.909 L2126.9 239.983 L2131.18 239.983 L2131.18 244.011 Q2132.71 241.673 2134.77 240.515 Q2136.85 239.358 2139.56 239.358 Q2144.03 239.358 2146.32 242.136 Q2148.61 244.89 2148.61 250.261 Z" fill="#000000" fill-rule="nonzero" fill-opacity="1" /></svg>
