<?xml version="1.0" encoding="utf-8"?>
<svg xmlns="http://www.w3.org/2000/svg" xmlns:xlink="http://www.w3.org/1999/xlink" width="600" height="400" viewBox="0 0 2400 1600">
<defs>
  <clipPath id="clip970">
    <rect x="0" y="0" width="2400" height="1600"/>
  </clipPath>
</defs>
<path clip-path="url(#clip970)" d="M0 1600 L2400 1600 L2400 8.88178e-14 L0 8.88178e-14  Z" fill="#ffffff" fill-rule="evenodd" fill-opacity="1"/>
<defs>
  <clipPath id="clip971">
    <rect x="480" y="0" width="1681" height="1600"/>
  </clipPath>
</defs>
<path clip-path="url(#clip970)" d="M282.858 1423.18 L2352.76 1423.18 L2352.76 123.472 L282.858 123.472  Z" fill="#ffffff" fill-rule="evenodd" fill-opacity="1"/>
<defs>
  <clipPath id="clip972">
    <rect x="282" y="123" width="2071" height="1301"/>
  </clipPath>
</defs>
<polyline clip-path="url(#clip972)" style="stroke:#000000; stroke-linecap:round; stroke-linejoin:round; stroke-width:2; stroke-opacity:0.1; fill:none" points="321.515,1423.18 321.515,123.472 "/>
<polyline clip-path="url(#clip972)" style="stroke:#000000; stroke-linecap:round; stroke-linejoin:round; stroke-width:2; stroke-opacity:0.1; fill:none" points="819.661,1423.18 819.661,123.472 "/>
<polyline clip-path="url(#clip972)" style="stroke:#000000; stroke-linecap:round; stroke-linejoin:round; stroke-width:2; stroke-opacity:0.1; fill:none" points="1317.81,1423.18 1317.81,123.472 "/>
<polyline clip-path="url(#clip972)" style="stroke:#000000; stroke-linecap:round; stroke-linejoin:round; stroke-width:2; stroke-opacity:0.1; fill:none" points="1815.95,1423.18 1815.95,123.472 "/>
<polyline clip-path="url(#clip972)" style="stroke:#000000; stroke-linecap:round; stroke-linejoin:round; stroke-width:2; stroke-opacity:0.1; fill:none" points="2314.1,1423.18 2314.1,123.472 "/>
<polyline clip-path="url(#clip970)" style="stroke:#000000; stroke-linecap:round; stroke-linejoin:round; stroke-width:4; stroke-opacity:1; fill:none" points="282.858,1423.18 2352.76,1423.18 "/>
<polyline clip-path="url(#clip970)" style="stroke:#000000; stroke-linecap:round; stroke-linejoin:round; stroke-width:4; stroke-opacity:1; fill:none" points="321.515,1423.18 321.515,1404.28 "/>
<polyline clip-path="url(#clip970)" style="stroke:#000000; stroke-linecap:round; stroke-linejoin:round; stroke-width:4; stroke-opacity:1; fill:none" points="819.661,1423.18 819.661,1404.28 "/>
<polyline clip-path="url(#clip970)" style="stroke:#000000; stroke-linecap:round; stroke-linejoin:round; stroke-width:4; stroke-opacity:1; fill:none" points="1317.81,1423.18 1317.81,1404.28 "/>
<polyline clip-path="url(#clip970)" style="stroke:#000000; stroke-linecap:round; stroke-linejoin:round; stroke-width:4; stroke-opacity:1; fill:none" points="1815.95,1423.18 1815.95,1404.28 "/>
<polyline clip-path="url(#clip970)" style="stroke:#000000; stroke-linecap:round; stroke-linejoin:round; stroke-width:4; stroke-opacity:1; fill:none" points="2314.1,1423.18 2314.1,1404.28 "/>
<path clip-path="url(#clip970)" d="M321.515 1454.1 Q317.903 1454.1 316.075 1457.66 Q314.269 1461.2 314.269 1468.33 Q314.269 1475.44 316.075 1479.01 Q317.903 1482.55 321.515 1482.55 Q325.149 1482.55 326.954 1479.01 Q328.783 1475.44 328.783 1468.33 Q328.783 1461.2 326.954 1457.66 Q325.149 1454.1 321.515 1454.1 M321.515 1450.39 Q327.325 1450.39 330.38 1455 Q333.459 1459.58 333.459 1468.33 Q333.459 1477.06 330.38 1481.67 Q327.325 1486.25 321.515 1486.25 Q315.704 1486.25 312.626 1481.67 Q309.57 1477.06 309.57 1468.33 Q309.57 1459.58 312.626 1455 Q315.704 1450.39 321.515 1450.39 Z" fill="#000000" fill-rule="nonzero" fill-opacity="1" /><path clip-path="url(#clip970)" d="M798.932 1481.64 L815.251 1481.64 L815.251 1485.58 L793.307 1485.58 L793.307 1481.64 Q795.969 1478.89 800.552 1474.26 Q805.159 1469.61 806.339 1468.27 Q808.585 1465.74 809.464 1464.01 Q810.367 1462.25 810.367 1460.56 Q810.367 1457.8 808.422 1456.07 Q806.501 1454.33 803.399 1454.33 Q801.2 1454.33 798.747 1455.09 Q796.316 1455.86 793.538 1457.41 L793.538 1452.69 Q796.362 1451.55 798.816 1450.97 Q801.27 1450.39 803.307 1450.39 Q808.677 1450.39 811.872 1453.08 Q815.066 1455.77 815.066 1460.26 Q815.066 1462.39 814.256 1464.31 Q813.469 1466.2 811.362 1468.8 Q810.784 1469.47 807.682 1472.69 Q804.58 1475.88 798.932 1481.64 Z" fill="#000000" fill-rule="nonzero" fill-opacity="1" /><path clip-path="url(#clip970)" d="M825.112 1451.02 L843.469 1451.02 L843.469 1454.96 L829.395 1454.96 L829.395 1463.43 Q830.413 1463.08 831.432 1462.92 Q832.45 1462.73 833.469 1462.73 Q839.256 1462.73 842.635 1465.9 Q846.015 1469.08 846.015 1474.49 Q846.015 1480.07 842.543 1483.17 Q839.07 1486.25 832.751 1486.25 Q830.575 1486.25 828.307 1485.88 Q826.061 1485.51 823.654 1484.77 L823.654 1480.07 Q825.737 1481.2 827.959 1481.76 Q830.182 1482.32 832.658 1482.32 Q836.663 1482.32 839.001 1480.21 Q841.339 1478.1 841.339 1474.49 Q841.339 1470.88 839.001 1468.77 Q836.663 1466.67 832.658 1466.67 Q830.783 1466.67 828.908 1467.08 Q827.057 1467.5 825.112 1468.38 L825.112 1451.02 Z" fill="#000000" fill-rule="nonzero" fill-opacity="1" /><path clip-path="url(#clip970)" d="M1292.51 1451.02 L1310.86 1451.02 L1310.86 1454.96 L1296.79 1454.96 L1296.79 1463.43 Q1297.81 1463.08 1298.83 1462.92 Q1299.84 1462.73 1300.86 1462.73 Q1306.65 1462.73 1310.03 1465.9 Q1313.41 1469.08 1313.41 1474.49 Q1313.41 1480.07 1309.94 1483.17 Q1306.46 1486.25 1300.15 1486.25 Q1297.97 1486.25 1295.7 1485.88 Q1293.46 1485.51 1291.05 1484.77 L1291.05 1480.07 Q1293.13 1481.2 1295.35 1481.76 Q1297.58 1482.32 1300.05 1482.32 Q1304.06 1482.32 1306.4 1480.21 Q1308.73 1478.1 1308.73 1474.49 Q1308.73 1470.88 1306.4 1468.77 Q1304.06 1466.67 1300.05 1466.67 Q1298.18 1466.67 1296.3 1467.08 Q1294.45 1467.5 1292.51 1468.38 L1292.51 1451.02 Z" fill="#000000" fill-rule="nonzero" fill-opacity="1" /><path clip-path="url(#clip970)" d="M1332.62 1454.1 Q1329.01 1454.1 1327.18 1457.66 Q1325.38 1461.2 1325.38 1468.33 Q1325.38 1475.44 1327.18 1479.01 Q1329.01 1482.55 1332.62 1482.55 Q1336.26 1482.55 1338.06 1479.01 Q1339.89 1475.44 1339.89 1468.33 Q1339.89 1461.2 1338.06 1457.66 Q1336.26 1454.1 1332.62 1454.1 M1332.62 1450.39 Q1338.43 1450.39 1341.49 1455 Q1344.57 1459.58 1344.57 1468.33 Q1344.57 1477.06 1341.49 1481.67 Q1338.43 1486.25 1332.62 1486.25 Q1326.81 1486.25 1323.73 1481.67 Q1320.68 1477.06 1320.68 1468.33 Q1320.68 1459.58 1323.73 1455 Q1326.81 1450.39 1332.62 1450.39 Z" fill="#000000" fill-rule="nonzero" fill-opacity="1" /><path clip-path="url(#clip970)" d="M1789.81 1451.02 L1812.03 1451.02 L1812.03 1453.01 L1799.48 1485.58 L1794.6 1485.58 L1806.4 1454.96 L1789.81 1454.96 L1789.81 1451.02 Z" fill="#000000" fill-rule="nonzero" fill-opacity="1" /><path clip-path="url(#clip970)" d="M1821.2 1451.02 L1839.55 1451.02 L1839.55 1454.96 L1825.48 1454.96 L1825.48 1463.43 Q1826.5 1463.08 1827.52 1462.92 Q1828.53 1462.73 1829.55 1462.73 Q1835.34 1462.73 1838.72 1465.9 Q1842.1 1469.08 1842.1 1474.49 Q1842.1 1480.07 1838.63 1483.17 Q1835.15 1486.25 1828.84 1486.25 Q1826.66 1486.25 1824.39 1485.88 Q1822.15 1485.51 1819.74 1484.77 L1819.74 1480.07 Q1821.82 1481.2 1824.04 1481.76 Q1826.27 1482.32 1828.74 1482.32 Q1832.75 1482.32 1835.09 1480.21 Q1837.42 1478.1 1837.42 1474.49 Q1837.42 1470.88 1835.09 1468.77 Q1832.75 1466.67 1828.74 1466.67 Q1826.87 1466.67 1824.99 1467.08 Q1823.14 1467.5 1821.2 1468.38 L1821.2 1451.02 Z" fill="#000000" fill-rule="nonzero" fill-opacity="1" /><path clip-path="url(#clip970)" d="M2273.71 1481.64 L2281.35 1481.64 L2281.35 1455.28 L2273.04 1456.95 L2273.04 1452.69 L2281.3 1451.02 L2285.97 1451.02 L2285.97 1481.64 L2293.61 1481.64 L2293.61 1485.58 L2273.71 1485.58 L2273.71 1481.64 Z" fill="#000000" fill-rule="nonzero" fill-opacity="1" /><path clip-path="url(#clip970)" d="M2313.06 1454.1 Q2309.45 1454.1 2307.62 1457.66 Q2305.81 1461.2 2305.81 1468.33 Q2305.81 1475.44 2307.62 1479.01 Q2309.45 1482.55 2313.06 1482.55 Q2316.69 1482.55 2318.5 1479.01 Q2320.33 1475.44 2320.33 1468.33 Q2320.33 1461.2 2318.5 1457.66 Q2316.69 1454.1 2313.06 1454.1 M2313.06 1450.39 Q2318.87 1450.39 2321.92 1455 Q2325 1459.58 2325 1468.33 Q2325 1477.06 2321.92 1481.67 Q2318.87 1486.25 2313.06 1486.25 Q2307.25 1486.25 2304.17 1481.67 Q2301.11 1477.06 2301.11 1468.33 Q2301.11 1459.58 2304.17 1455 Q2307.25 1450.39 2313.06 1450.39 Z" fill="#000000" fill-rule="nonzero" fill-opacity="1" /><path clip-path="url(#clip970)" d="M2343.22 1454.1 Q2339.61 1454.1 2337.78 1457.66 Q2335.97 1461.2 2335.97 1468.33 Q2335.97 1475.44 2337.78 1479.01 Q2339.61 1482.55 2343.22 1482.55 Q2346.85 1482.55 2348.66 1479.01 Q2350.49 1475.44 2350.49 1468.33 Q2350.49 1461.2 2348.66 1457.66 Q2346.85 1454.1 2343.22 1454.1 M2343.22 1450.39 Q2349.03 1450.39 2352.09 1455 Q2355.16 1459.58 2355.16 1468.33 Q2355.16 1477.06 2352.09 1481.67 Q2349.03 1486.25 2343.22 1486.25 Q2337.41 1486.25 2334.33 1481.67 Q2331.28 1477.06 2331.28 1468.33 Q2331.28 1459.58 2334.33 1455 Q2337.41 1450.39 2343.22 1450.39 Z" fill="#000000" fill-rule="nonzero" fill-opacity="1" /><path clip-path="url(#clip970)" d="M1045.35 1524.18 L1045.35 1530.96 Q1042.11 1527.94 1038.42 1526.44 Q1034.76 1524.95 1030.62 1524.95 Q1022.47 1524.95 1018.14 1529.95 Q1013.81 1534.91 1013.81 1544.33 Q1013.81 1553.72 1018.14 1558.72 Q1022.47 1563.68 1030.62 1563.68 Q1034.76 1563.68 1038.42 1562.19 Q1042.11 1560.69 1045.35 1557.67 L1045.35 1564.38 Q1041.98 1566.68 1038.19 1567.82 Q1034.44 1568.97 1030.24 1568.97 Q1019.45 1568.97 1013.24 1562.38 Q1007.03 1555.76 1007.03 1544.33 Q1007.03 1532.87 1013.24 1526.28 Q1019.45 1519.66 1030.24 1519.66 Q1034.5 1519.66 1038.26 1520.81 Q1042.04 1521.92 1045.35 1524.18 Z" fill="#000000" fill-rule="nonzero" fill-opacity="1" /><path clip-path="url(#clip970)" d="M1068.84 1536.5 Q1064.13 1536.5 1061.4 1540.19 Q1058.66 1543.85 1058.66 1550.25 Q1058.66 1556.65 1061.36 1560.34 Q1064.1 1564 1068.84 1564 Q1073.52 1564 1076.26 1560.31 Q1079 1556.62 1079 1550.25 Q1079 1543.92 1076.26 1540.23 Q1073.52 1536.5 1068.84 1536.5 M1068.84 1531.54 Q1076.48 1531.54 1080.84 1536.5 Q1085.2 1541.47 1085.2 1550.25 Q1085.2 1559 1080.84 1564 Q1076.48 1568.97 1068.84 1568.97 Q1061.17 1568.97 1056.81 1564 Q1052.48 1559 1052.48 1550.25 Q1052.48 1541.47 1056.81 1536.5 Q1061.17 1531.54 1068.84 1531.54 Z" fill="#000000" fill-rule="nonzero" fill-opacity="1" /><path clip-path="url(#clip970)" d="M1124.54 1546.53 L1124.54 1568.04 L1118.69 1568.04 L1118.69 1546.72 Q1118.69 1541.66 1116.71 1539.14 Q1114.74 1536.63 1110.79 1536.63 Q1106.05 1536.63 1103.31 1539.65 Q1100.58 1542.68 1100.58 1547.9 L1100.58 1568.04 L1094.69 1568.04 L1094.69 1532.4 L1100.58 1532.4 L1100.58 1537.93 Q1102.68 1534.72 1105.51 1533.13 Q1108.38 1531.54 1112.1 1531.54 Q1118.24 1531.54 1121.39 1535.36 Q1124.54 1539.14 1124.54 1546.53 Z" fill="#000000" fill-rule="nonzero" fill-opacity="1" /><path clip-path="url(#clip970)" d="M1159.68 1537.81 L1159.68 1518.52 L1165.54 1518.52 L1165.54 1568.04 L1159.68 1568.04 L1159.68 1562.7 Q1157.84 1565.88 1155 1567.44 Q1152.2 1568.97 1148.26 1568.97 Q1141.8 1568.97 1137.72 1563.81 Q1133.68 1558.65 1133.68 1550.25 Q1133.68 1541.85 1137.72 1536.69 Q1141.8 1531.54 1148.26 1531.54 Q1152.2 1531.54 1155 1533.1 Q1157.84 1534.62 1159.68 1537.81 M1139.73 1550.25 Q1139.73 1556.71 1142.37 1560.4 Q1145.04 1564.07 1149.69 1564.07 Q1154.34 1564.07 1157.01 1560.4 Q1159.68 1556.71 1159.68 1550.25 Q1159.68 1543.79 1157.01 1540.13 Q1154.34 1536.44 1149.69 1536.44 Q1145.04 1536.44 1142.37 1540.13 Q1139.73 1543.79 1139.73 1550.25 Z" fill="#000000" fill-rule="nonzero" fill-opacity="1" /><path clip-path="url(#clip970)" d="M1177.6 1532.4 L1183.46 1532.4 L1183.46 1568.04 L1177.6 1568.04 L1177.6 1532.4 M1177.6 1518.52 L1183.46 1518.52 L1183.46 1525.93 L1177.6 1525.93 L1177.6 1518.52 Z" fill="#000000" fill-rule="nonzero" fill-opacity="1" /><path clip-path="url(#clip970)" d="M1201.51 1522.27 L1201.51 1532.4 L1213.57 1532.4 L1213.57 1536.95 L1201.51 1536.95 L1201.51 1556.3 Q1201.51 1560.66 1202.68 1561.9 Q1203.89 1563.14 1207.55 1563.14 L1213.57 1563.14 L1213.57 1568.04 L1207.55 1568.04 Q1200.77 1568.04 1198.2 1565.53 Q1195.62 1562.98 1195.62 1556.3 L1195.62 1536.95 L1191.32 1536.95 L1191.32 1532.4 L1195.62 1532.4 L1195.62 1522.27 L1201.51 1522.27 Z" fill="#000000" fill-rule="nonzero" fill-opacity="1" /><path clip-path="url(#clip970)" d="M1221.27 1532.4 L1227.13 1532.4 L1227.13 1568.04 L1221.27 1568.04 L1221.27 1532.4 M1221.27 1518.52 L1227.13 1518.52 L1227.13 1525.93 L1221.27 1525.93 L1221.27 1518.52 Z" fill="#000000" fill-rule="nonzero" fill-opacity="1" /><path clip-path="url(#clip970)" d="M1253.2 1536.5 Q1248.48 1536.5 1245.75 1540.19 Q1243.01 1543.85 1243.01 1550.25 Q1243.01 1556.65 1245.72 1560.34 Q1248.45 1564 1253.2 1564 Q1257.87 1564 1260.61 1560.31 Q1263.35 1556.62 1263.35 1550.25 Q1263.35 1543.92 1260.61 1540.23 Q1257.87 1536.5 1253.2 1536.5 M1253.2 1531.54 Q1260.83 1531.54 1265.19 1536.5 Q1269.56 1541.47 1269.56 1550.25 Q1269.56 1559 1265.19 1564 Q1260.83 1568.97 1253.2 1568.97 Q1245.52 1568.97 1241.16 1564 Q1236.84 1559 1236.84 1550.25 Q1236.84 1541.47 1241.16 1536.5 Q1245.52 1531.54 1253.2 1531.54 Z" fill="#000000" fill-rule="nonzero" fill-opacity="1" /><path clip-path="url(#clip970)" d="M1308.9 1546.53 L1308.9 1568.04 L1303.04 1568.04 L1303.04 1546.72 Q1303.04 1541.66 1301.07 1539.14 Q1299.09 1536.63 1295.15 1536.63 Q1290.4 1536.63 1287.67 1539.65 Q1284.93 1542.68 1284.93 1547.9 L1284.93 1568.04 L1279.04 1568.04 L1279.04 1532.4 L1284.93 1532.4 L1284.93 1537.93 Q1287.03 1534.72 1289.86 1533.13 Q1292.73 1531.54 1296.45 1531.54 Q1302.59 1531.54 1305.74 1535.36 Q1308.9 1539.14 1308.9 1546.53 Z" fill="#000000" fill-rule="nonzero" fill-opacity="1" /><path clip-path="url(#clip970)" d="M1320.58 1532.4 L1326.43 1532.4 L1326.43 1568.04 L1320.58 1568.04 L1320.58 1532.4 M1320.58 1518.52 L1326.43 1518.52 L1326.43 1525.93 L1320.58 1525.93 L1320.58 1518.52 Z" fill="#000000" fill-rule="nonzero" fill-opacity="1" /><path clip-path="url(#clip970)" d="M1368.32 1546.53 L1368.32 1568.04 L1362.46 1568.04 L1362.46 1546.72 Q1362.46 1541.66 1360.49 1539.14 Q1358.52 1536.63 1354.57 1536.63 Q1349.83 1536.63 1347.09 1539.65 Q1344.35 1542.68 1344.35 1547.9 L1344.35 1568.04 L1338.46 1568.04 L1338.46 1532.4 L1344.35 1532.4 L1344.35 1537.93 Q1346.45 1534.72 1349.29 1533.13 Q1352.15 1531.54 1355.87 1531.54 Q1362.02 1531.54 1365.17 1535.36 Q1368.32 1539.14 1368.32 1546.53 Z" fill="#000000" fill-rule="nonzero" fill-opacity="1" /><path clip-path="url(#clip970)" d="M1403.46 1549.81 Q1403.46 1543.44 1400.82 1539.94 Q1398.21 1536.44 1393.46 1536.44 Q1388.75 1536.44 1386.11 1539.94 Q1383.5 1543.44 1383.5 1549.81 Q1383.5 1556.14 1386.11 1559.64 Q1388.75 1563.14 1393.46 1563.14 Q1398.21 1563.14 1400.82 1559.64 Q1403.46 1556.14 1403.46 1549.81 M1409.31 1563.62 Q1409.31 1572.72 1405.27 1577.15 Q1401.23 1581.6 1392.89 1581.6 Q1389.8 1581.6 1387.07 1581.13 Q1384.33 1580.68 1381.75 1579.72 L1381.75 1574.03 Q1384.33 1575.43 1386.84 1576.1 Q1389.36 1576.76 1391.97 1576.76 Q1397.73 1576.76 1400.59 1573.74 Q1403.46 1570.75 1403.46 1564.67 L1403.46 1561.77 Q1401.64 1564.92 1398.81 1566.48 Q1395.98 1568.04 1392.03 1568.04 Q1385.47 1568.04 1381.46 1563.05 Q1377.45 1558.05 1377.45 1549.81 Q1377.45 1541.53 1381.46 1536.53 Q1385.47 1531.54 1392.03 1531.54 Q1395.98 1531.54 1398.81 1533.1 Q1401.64 1534.66 1403.46 1537.81 L1403.46 1532.4 L1409.31 1532.4 L1409.31 1563.62 Z" fill="#000000" fill-rule="nonzero" fill-opacity="1" /><path clip-path="url(#clip970)" d="M1448.78 1525.81 L1448.78 1543.66 L1456.87 1543.66 Q1461.35 1543.66 1463.8 1541.34 Q1466.26 1539.02 1466.26 1534.72 Q1466.26 1530.45 1463.8 1528.13 Q1461.35 1525.81 1456.87 1525.81 L1448.78 1525.81 M1442.35 1520.52 L1456.87 1520.52 Q1464.85 1520.52 1468.93 1524.15 Q1473.03 1527.75 1473.03 1534.72 Q1473.03 1541.75 1468.93 1545.35 Q1464.85 1548.95 1456.87 1548.95 L1448.78 1548.95 L1448.78 1568.04 L1442.35 1568.04 L1442.35 1520.52 Z" fill="#000000" fill-rule="nonzero" fill-opacity="1" /><path clip-path="url(#clip970)" d="M1492.9 1536.5 Q1488.19 1536.5 1485.45 1540.19 Q1482.71 1543.85 1482.71 1550.25 Q1482.71 1556.65 1485.42 1560.34 Q1488.15 1564 1492.9 1564 Q1497.57 1564 1500.31 1560.31 Q1503.05 1556.62 1503.05 1550.25 Q1503.05 1543.92 1500.31 1540.23 Q1497.57 1536.5 1492.9 1536.5 M1492.9 1531.54 Q1500.53 1531.54 1504.9 1536.5 Q1509.26 1541.47 1509.26 1550.25 Q1509.26 1559 1504.9 1564 Q1500.53 1568.97 1492.9 1568.97 Q1485.23 1568.97 1480.86 1564 Q1476.54 1559 1476.54 1550.25 Q1476.54 1541.47 1480.86 1536.5 Q1485.23 1531.54 1492.9 1531.54 Z" fill="#000000" fill-rule="nonzero" fill-opacity="1" /><path clip-path="url(#clip970)" d="M1518.96 1532.4 L1524.82 1532.4 L1524.82 1568.04 L1518.96 1568.04 L1518.96 1532.4 M1518.96 1518.52 L1524.82 1518.52 L1524.82 1525.93 L1518.96 1525.93 L1518.96 1518.52 Z" fill="#000000" fill-rule="nonzero" fill-opacity="1" /><path clip-path="url(#clip970)" d="M1566.71 1546.53 L1566.71 1568.04 L1560.85 1568.04 L1560.85 1546.72 Q1560.85 1541.66 1558.88 1539.14 Q1556.9 1536.63 1552.96 1536.63 Q1548.21 1536.63 1545.48 1539.65 Q1542.74 1542.68 1542.74 1547.9 L1542.74 1568.04 L1536.85 1568.04 L1536.85 1532.4 L1542.74 1532.4 L1542.74 1537.93 Q1544.84 1534.72 1547.67 1533.13 Q1550.54 1531.54 1554.26 1531.54 Q1560.4 1531.54 1563.56 1535.36 Q1566.71 1539.14 1566.71 1546.53 Z" fill="#000000" fill-rule="nonzero" fill-opacity="1" /><path clip-path="url(#clip970)" d="M1584.18 1522.27 L1584.18 1532.4 L1596.24 1532.4 L1596.24 1536.95 L1584.18 1536.95 L1584.18 1556.3 Q1584.18 1560.66 1585.36 1561.9 Q1586.57 1563.14 1590.23 1563.14 L1596.24 1563.14 L1596.24 1568.04 L1590.23 1568.04 Q1583.45 1568.04 1580.87 1565.53 Q1578.29 1562.98 1578.29 1556.3 L1578.29 1536.95 L1574 1536.95 L1574 1532.4 L1578.29 1532.4 L1578.29 1522.27 L1584.18 1522.27 Z" fill="#000000" fill-rule="nonzero" fill-opacity="1" /><path clip-path="url(#clip970)" d="M1626.67 1533.45 L1626.67 1538.98 Q1624.19 1537.71 1621.52 1537.07 Q1618.84 1536.44 1615.98 1536.44 Q1611.62 1536.44 1609.42 1537.77 Q1607.26 1539.11 1607.26 1541.79 Q1607.26 1543.82 1608.82 1545 Q1610.38 1546.15 1615.09 1547.2 L1617.09 1547.64 Q1623.33 1548.98 1625.94 1551.43 Q1628.58 1553.85 1628.58 1558.21 Q1628.58 1563.17 1624.63 1566.07 Q1620.72 1568.97 1613.84 1568.97 Q1610.98 1568.97 1607.86 1568.39 Q1604.77 1567.85 1601.34 1566.74 L1601.34 1560.69 Q1604.58 1562.38 1607.73 1563.24 Q1610.88 1564.07 1613.97 1564.07 Q1618.11 1564.07 1620.34 1562.66 Q1622.57 1561.23 1622.57 1558.65 Q1622.57 1556.27 1620.94 1554.99 Q1619.35 1553.72 1613.91 1552.54 L1611.87 1552.07 Q1606.43 1550.92 1604.01 1548.56 Q1601.59 1546.18 1601.59 1542.04 Q1601.59 1537.01 1605.16 1534.27 Q1608.72 1531.54 1615.28 1531.54 Q1618.52 1531.54 1621.39 1532.01 Q1624.25 1532.49 1626.67 1533.45 Z" fill="#000000" fill-rule="nonzero" fill-opacity="1" /><polyline clip-path="url(#clip972)" style="stroke:#000000; stroke-linecap:round; stroke-linejoin:round; stroke-width:2; stroke-opacity:0.1; fill:none" points="282.858,1311.3 2352.76,1311.3 "/>
<polyline clip-path="url(#clip972)" style="stroke:#000000; stroke-linecap:round; stroke-linejoin:round; stroke-width:2; stroke-opacity:0.1; fill:none" points="282.858,950.939 2352.76,950.939 "/>
<polyline clip-path="url(#clip972)" style="stroke:#000000; stroke-linecap:round; stroke-linejoin:round; stroke-width:2; stroke-opacity:0.1; fill:none" points="282.858,590.577 2352.76,590.577 "/>
<polyline clip-path="url(#clip972)" style="stroke:#000000; stroke-linecap:round; stroke-linejoin:round; stroke-width:2; stroke-opacity:0.1; fill:none" points="282.858,230.214 2352.76,230.214 "/>
<polyline clip-path="url(#clip970)" style="stroke:#000000; stroke-linecap:round; stroke-linejoin:round; stroke-width:4; stroke-opacity:1; fill:none" points="282.858,1423.18 282.858,123.472 "/>
<polyline clip-path="url(#clip970)" style="stroke:#000000; stroke-linecap:round; stroke-linejoin:round; stroke-width:4; stroke-opacity:1; fill:none" points="282.858,1311.3 301.756,1311.3 "/>
<polyline clip-path="url(#clip970)" style="stroke:#000000; stroke-linecap:round; stroke-linejoin:round; stroke-width:4; stroke-opacity:1; fill:none" points="282.858,950.939 301.756,950.939 "/>
<polyline clip-path="url(#clip970)" style="stroke:#000000; stroke-linecap:round; stroke-linejoin:round; stroke-width:4; stroke-opacity:1; fill:none" points="282.858,590.577 301.756,590.577 "/>
<polyline clip-path="url(#clip970)" style="stroke:#000000; stroke-linecap:round; stroke-linejoin:round; stroke-width:4; stroke-opacity:1; fill:none" points="282.858,230.214 301.756,230.214 "/>
<path clip-path="url(#clip970)" d="M190.91 1297.1 Q187.299 1297.1 185.47 1300.67 Q183.664 1304.21 183.664 1311.34 Q183.664 1318.44 185.47 1322.01 Q187.299 1325.55 190.91 1325.55 Q194.544 1325.55 196.349 1322.01 Q198.178 1318.44 198.178 1311.34 Q198.178 1304.21 196.349 1300.67 Q194.544 1297.1 190.91 1297.1 M190.91 1293.4 Q196.72 1293.4 199.775 1298 Q202.854 1302.59 202.854 1311.34 Q202.854 1320.06 199.775 1324.67 Q196.72 1329.25 190.91 1329.25 Q185.099 1329.25 182.021 1324.67 Q178.965 1320.06 178.965 1311.34 Q178.965 1302.59 182.021 1298 Q185.099 1293.4 190.91 1293.4 Z" fill="#000000" fill-rule="nonzero" fill-opacity="1" /><path clip-path="url(#clip970)" d="M211.072 1322.7 L215.956 1322.7 L215.956 1328.58 L211.072 1328.58 L211.072 1322.7 Z" fill="#000000" fill-rule="nonzero" fill-opacity="1" /><path clip-path="url(#clip970)" d="M226.951 1324.65 L234.59 1324.65 L234.59 1298.28 L226.28 1299.95 L226.28 1295.69 L234.544 1294.02 L239.22 1294.02 L239.22 1324.65 L246.858 1324.65 L246.858 1328.58 L226.951 1328.58 L226.951 1324.65 Z" fill="#000000" fill-rule="nonzero" fill-opacity="1" /><path clip-path="url(#clip970)" d="M191.28 936.738 Q187.669 936.738 185.84 940.303 Q184.035 943.845 184.035 950.974 Q184.035 958.081 185.84 961.645 Q187.669 965.187 191.28 965.187 Q194.914 965.187 196.72 961.645 Q198.548 958.081 198.548 950.974 Q198.548 943.845 196.72 940.303 Q194.914 936.738 191.28 936.738 M191.28 933.034 Q197.09 933.034 200.146 937.641 Q203.224 942.224 203.224 950.974 Q203.224 959.701 200.146 964.307 Q197.09 968.891 191.28 968.891 Q185.47 968.891 182.391 964.307 Q179.336 959.701 179.336 950.974 Q179.336 942.224 182.391 937.641 Q185.47 933.034 191.28 933.034 Z" fill="#000000" fill-rule="nonzero" fill-opacity="1" /><path clip-path="url(#clip970)" d="M211.442 962.34 L216.326 962.34 L216.326 968.219 L211.442 968.219 L211.442 962.34 Z" fill="#000000" fill-rule="nonzero" fill-opacity="1" /><path clip-path="url(#clip970)" d="M230.539 964.284 L246.858 964.284 L246.858 968.219 L224.914 968.219 L224.914 964.284 Q227.576 961.53 232.159 956.9 Q236.766 952.247 237.946 950.905 Q240.192 948.382 241.071 946.645 Q241.974 944.886 241.974 943.196 Q241.974 940.442 240.03 938.706 Q238.108 936.97 235.007 936.97 Q232.808 936.97 230.354 937.733 Q227.923 938.497 225.146 940.048 L225.146 935.326 Q227.97 934.192 230.423 933.613 Q232.877 933.034 234.914 933.034 Q240.284 933.034 243.479 935.72 Q246.673 938.405 246.673 942.895 Q246.673 945.025 245.863 946.946 Q245.076 948.845 242.97 951.437 Q242.391 952.108 239.289 955.326 Q236.187 958.52 230.539 964.284 Z" fill="#000000" fill-rule="nonzero" fill-opacity="1" /><path clip-path="url(#clip970)" d="M190.331 576.375 Q186.72 576.375 184.891 579.94 Q183.086 583.482 183.086 590.611 Q183.086 597.718 184.891 601.283 Q186.72 604.824 190.331 604.824 Q193.965 604.824 195.771 601.283 Q197.599 597.718 197.599 590.611 Q197.599 583.482 195.771 579.94 Q193.965 576.375 190.331 576.375 M190.331 572.672 Q196.141 572.672 199.197 577.278 Q202.275 581.861 202.275 590.611 Q202.275 599.338 199.197 603.945 Q196.141 608.528 190.331 608.528 Q184.521 608.528 181.442 603.945 Q178.387 599.338 178.387 590.611 Q178.387 581.861 181.442 577.278 Q184.521 572.672 190.331 572.672 Z" fill="#000000" fill-rule="nonzero" fill-opacity="1" /><path clip-path="url(#clip970)" d="M210.493 601.977 L215.377 601.977 L215.377 607.857 L210.493 607.857 L210.493 601.977 Z" fill="#000000" fill-rule="nonzero" fill-opacity="1" /><path clip-path="url(#clip970)" d="M239.729 589.222 Q243.085 589.94 244.96 592.209 Q246.858 594.477 246.858 597.81 Q246.858 602.926 243.34 605.727 Q239.821 608.528 233.34 608.528 Q231.164 608.528 228.849 608.088 Q226.558 607.671 224.104 606.815 L224.104 602.301 Q226.048 603.435 228.363 604.014 Q230.678 604.593 233.201 604.593 Q237.599 604.593 239.891 602.857 Q242.206 601.121 242.206 597.81 Q242.206 594.755 240.053 593.042 Q237.923 591.306 234.104 591.306 L230.076 591.306 L230.076 587.463 L234.289 587.463 Q237.738 587.463 239.567 586.097 Q241.395 584.709 241.395 582.116 Q241.395 579.454 239.497 578.042 Q237.622 576.607 234.104 576.607 Q232.183 576.607 229.983 577.023 Q227.784 577.44 225.146 578.32 L225.146 574.153 Q227.808 573.412 230.122 573.042 Q232.46 572.672 234.52 572.672 Q239.845 572.672 242.946 575.102 Q246.048 577.51 246.048 581.63 Q246.048 584.5 244.405 586.491 Q242.761 588.459 239.729 589.222 Z" fill="#000000" fill-rule="nonzero" fill-opacity="1" /><path clip-path="url(#clip970)" d="M189.197 216.013 Q185.586 216.013 183.757 219.577 Q181.951 223.119 181.951 230.249 Q181.951 237.355 183.757 240.92 Q185.586 244.461 189.197 244.461 Q192.831 244.461 194.636 240.92 Q196.465 237.355 196.465 230.249 Q196.465 223.119 194.636 219.577 Q192.831 216.013 189.197 216.013 M189.197 212.309 Q195.007 212.309 198.062 216.915 Q201.141 221.499 201.141 230.249 Q201.141 238.975 198.062 243.582 Q195.007 248.165 189.197 248.165 Q183.387 248.165 180.308 243.582 Q177.252 238.975 177.252 230.249 Q177.252 221.499 180.308 216.915 Q183.387 212.309 189.197 212.309 Z" fill="#000000" fill-rule="nonzero" fill-opacity="1" /><path clip-path="url(#clip970)" d="M209.359 241.614 L214.243 241.614 L214.243 247.494 L209.359 247.494 L209.359 241.614 Z" fill="#000000" fill-rule="nonzero" fill-opacity="1" /><path clip-path="url(#clip970)" d="M237.275 217.008 L225.47 235.457 L237.275 235.457 L237.275 217.008 M236.048 212.934 L241.928 212.934 L241.928 235.457 L246.858 235.457 L246.858 239.346 L241.928 239.346 L241.928 247.494 L237.275 247.494 L237.275 239.346 L221.673 239.346 L221.673 234.832 L236.048 212.934 Z" fill="#000000" fill-rule="nonzero" fill-opacity="1" /><path clip-path="url(#clip970)" d="M79.4763 839.052 L79.4763 829.472 L111.814 817.345 L79.4763 805.155 L79.4763 795.574 L126.996 795.574 L126.996 801.844 L85.2691 801.844 L117.861 814.098 L117.861 820.56 L85.2691 832.814 L126.996 832.814 L126.996 839.052 L79.4763 839.052 Z" fill="#000000" fill-rule="nonzero" fill-opacity="1" /><path clip-path="url(#clip970)" d="M85.8102 766.928 L109.459 775.649 L109.459 758.176 L85.8102 766.928 M79.4763 770.557 L79.4763 763.268 L126.996 745.158 L126.996 751.842 L114.806 756.17 L114.806 777.591 L126.996 781.92 L126.996 788.699 L79.4763 770.557 Z" fill="#000000" fill-rule="nonzero" fill-opacity="1" /><path clip-path="url(#clip970)" d="M79.4763 738.219 L79.4763 708.173 L84.8871 708.173 L84.8871 731.79 L98.9553 731.79 L98.9553 709.16 L104.366 709.16 L104.366 731.79 L121.585 731.79 L121.585 707.6 L126.996 707.6 L126.996 738.219 L79.4763 738.219 Z" fill="#000000" fill-rule="nonzero" fill-opacity="1" /><path clip-path="url(#clip970)" d="M1115.48 20.1573 L1104.39 50.2555 L1126.62 50.2555 L1115.48 20.1573 M1110.87 12.096 L1120.14 12.096 L1143.19 72.576 L1134.69 72.576 L1129.18 57.061 L1101.91 57.061 L1096.4 72.576 L1087.78 72.576 L1110.87 12.096 Z" fill="#000000" fill-rule="nonzero" fill-opacity="1" /><path clip-path="url(#clip970)" d="M1151.7 9.54393 L1159.15 9.54393 L1159.15 72.576 L1151.7 72.576 L1151.7 9.54393 Z" fill="#000000" fill-rule="nonzero" fill-opacity="1" /><path clip-path="url(#clip970)" d="M1174.75 9.54393 L1182.2 9.54393 L1182.2 72.576 L1174.75 72.576 L1174.75 9.54393 Z" fill="#000000" fill-rule="nonzero" fill-opacity="1" /><path clip-path="url(#clip970)" d="M1240.09 72.576 L1217 12.096 L1225.55 12.096 L1244.71 63.0159 L1263.91 12.096 L1272.42 12.096 L1249.37 72.576 L1240.09 72.576 Z" fill="#000000" fill-rule="nonzero" fill-opacity="1" /><path clip-path="url(#clip970)" d="M1295.1 49.7694 Q1286.07 49.7694 1282.58 51.8354 Q1279.1 53.9013 1279.1 58.8839 Q1279.1 62.8538 1281.69 65.2034 Q1284.33 67.5124 1288.82 67.5124 Q1295.02 67.5124 1298.75 63.1374 Q1302.51 58.7219 1302.51 51.4303 L1302.51 49.7694 L1295.1 49.7694 M1309.97 46.6907 L1309.97 72.576 L1302.51 72.576 L1302.51 65.6895 Q1299.96 69.8214 1296.16 71.8063 Q1292.35 73.7508 1286.84 73.7508 Q1279.87 73.7508 1275.74 69.8619 Q1271.65 65.9325 1271.65 59.3701 Q1271.65 51.7138 1276.75 47.825 Q1281.9 43.9361 1292.06 43.9361 L1302.51 43.9361 L1302.51 43.2069 Q1302.51 38.0623 1299.11 35.2672 Q1295.75 32.4315 1289.63 32.4315 Q1285.74 32.4315 1282.06 33.3632 Q1278.37 34.295 1274.97 36.1584 L1274.97 29.2718 Q1279.06 27.692 1282.91 26.9223 Q1286.76 26.1121 1290.4 26.1121 Q1300.25 26.1121 1305.11 31.2163 Q1309.97 36.3204 1309.97 46.6907 Z" fill="#000000" fill-rule="nonzero" fill-opacity="1" /><path clip-path="url(#clip970)" d="M1351.61 34.1734 Q1350.36 33.4443 1348.86 33.1202 Q1347.4 32.7556 1345.62 32.7556 Q1339.3 32.7556 1335.89 36.8875 Q1332.53 40.9789 1332.53 48.6757 L1332.53 72.576 L1325.04 72.576 L1325.04 27.2059 L1332.53 27.2059 L1332.53 34.2544 Q1334.88 30.1225 1338.65 28.1376 Q1342.42 26.1121 1347.8 26.1121 Q1348.57 26.1121 1349.51 26.2337 Q1350.44 26.3147 1351.57 26.5172 L1351.61 34.1734 Z" fill="#000000" fill-rule="nonzero" fill-opacity="1" /><path clip-path="url(#clip970)" d="M1359.43 27.2059 L1366.88 27.2059 L1366.88 72.576 L1359.43 72.576 L1359.43 27.2059 M1359.43 9.54393 L1366.88 9.54393 L1366.88 18.9825 L1359.43 18.9825 L1359.43 9.54393 Z" fill="#000000" fill-rule="nonzero" fill-opacity="1" /><path clip-path="url(#clip970)" d="M1403.1 49.7694 Q1394.07 49.7694 1390.58 51.8354 Q1387.1 53.9013 1387.1 58.8839 Q1387.1 62.8538 1389.69 65.2034 Q1392.32 67.5124 1396.82 67.5124 Q1403.02 67.5124 1406.74 63.1374 Q1410.51 58.7219 1410.51 51.4303 L1410.51 49.7694 L1403.1 49.7694 M1417.97 46.6907 L1417.97 72.576 L1410.51 72.576 L1410.51 65.6895 Q1407.96 69.8214 1404.15 71.8063 Q1400.34 73.7508 1394.84 73.7508 Q1387.87 73.7508 1383.74 69.8619 Q1379.64 65.9325 1379.64 59.3701 Q1379.64 51.7138 1384.75 47.825 Q1389.89 43.9361 1400.06 43.9361 L1410.51 43.9361 L1410.51 43.2069 Q1410.51 38.0623 1407.11 35.2672 Q1403.75 32.4315 1397.63 32.4315 Q1393.74 32.4315 1390.06 33.3632 Q1386.37 34.295 1382.97 36.1584 L1382.97 29.2718 Q1387.06 27.692 1390.91 26.9223 Q1394.75 26.1121 1398.4 26.1121 Q1408.24 26.1121 1413.1 31.2163 Q1417.97 36.3204 1417.97 46.6907 Z" fill="#000000" fill-rule="nonzero" fill-opacity="1" /><path clip-path="url(#clip970)" d="M1465.89 49.9314 Q1465.89 41.7081 1462.49 37.0496 Q1459.12 32.3505 1453.21 32.3505 Q1447.29 32.3505 1443.89 37.0496 Q1440.53 41.7081 1440.53 49.9314 Q1440.53 58.1548 1443.89 62.8538 Q1447.29 67.5124 1453.21 67.5124 Q1459.12 67.5124 1462.49 62.8538 Q1465.89 58.1548 1465.89 49.9314 M1440.53 34.0924 Q1442.88 30.0415 1446.44 28.0971 Q1450.05 26.1121 1455.03 26.1121 Q1463.3 26.1121 1468.44 32.6746 Q1473.63 39.2371 1473.63 49.9314 Q1473.63 60.6258 1468.44 67.1883 Q1463.3 73.7508 1455.03 73.7508 Q1450.05 73.7508 1446.44 71.8063 Q1442.88 69.8214 1440.53 65.7705 L1440.53 72.576 L1433.04 72.576 L1433.04 9.54393 L1440.53 9.54393 L1440.53 34.0924 Z" fill="#000000" fill-rule="nonzero" fill-opacity="1" /><path clip-path="url(#clip970)" d="M1485.98 9.54393 L1493.43 9.54393 L1493.43 72.576 L1485.98 72.576 L1485.98 9.54393 Z" fill="#000000" fill-rule="nonzero" fill-opacity="1" /><path clip-path="url(#clip970)" d="M1547.84 48.0275 L1547.84 51.6733 L1513.57 51.6733 Q1514.05 59.3701 1518.19 63.421 Q1522.36 67.4314 1529.77 67.4314 Q1534.06 67.4314 1538.08 66.3781 Q1542.13 65.3249 1546.1 63.2184 L1546.1 70.267 Q1542.09 71.9684 1537.87 72.8596 Q1533.66 73.7508 1529.33 73.7508 Q1518.47 73.7508 1512.11 67.4314 Q1505.79 61.1119 1505.79 50.3365 Q1505.79 39.1965 1511.78 32.6746 Q1517.82 26.1121 1528.03 26.1121 Q1537.18 26.1121 1542.49 32.0264 Q1547.84 37.9003 1547.84 48.0275 M1540.38 45.84 Q1540.3 39.7232 1536.94 36.0774 Q1533.62 32.4315 1528.11 32.4315 Q1521.87 32.4315 1518.1 35.9558 Q1514.38 39.4801 1513.81 45.8805 L1540.38 45.84 Z" fill="#000000" fill-rule="nonzero" fill-opacity="1" /><polyline clip-path="url(#clip972)" style="stroke:#009af9; stroke-linecap:round; stroke-linejoin:round; stroke-width:8; stroke-opacity:1; fill:none" points="341.44,160.256 381.292,189.393 421.144,223.719 460.996,251.836 500.847,283.654 540.699,286.808 580.551,275.999 620.402,328.938 660.254,346.056 700.106,349.836 739.957,322.389 779.809,342.068 819.661,360.492 859.513,340.367 899.364,380.131 939.216,356.627 979.068,347.982 1018.92,348.729 1058.77,334.172 1098.62,296.685 1138.47,317.429 1178.33,346.84 1218.18,324.396 1258.03,324.401 1297.88,343.917 1337.73,368.652 1377.58,397.401 1417.44,452.579 1457.29,427.771 1497.14,447.716 1536.99,432.488 1576.84,472.447 1616.69,451.133 1656.55,499.942 1696.4,467.461 1736.25,503.821 1776.1,434.647 1815.95,493.734 1855.81,552.995 1895.66,572.114 1935.51,634.298 1975.36,703.925 2015.21,740.663 2055.06,741.039 2094.92,825.721 2134.77,862.094 2174.62,932.037 2214.47,1087.2 2254.32,1213.72 2294.17,1386.4 "/>
</svg>
