<?xml version="1.0" encoding="utf-8"?>
<svg xmlns="http://www.w3.org/2000/svg" xmlns:xlink="http://www.w3.org/1999/xlink" width="1000" height="500" viewBox="0 0 4000 2000">
<defs>
  <clipPath id="clip490">
    <rect x="0" y="0" width="4000" height="2000"/>
  </clipPath>
</defs>
<path clip-path="url(#clip490)" d="M0 2000 L4000 2000 L4000 0 L0 0  Z" fill="#ffffff" fill-rule="evenodd" fill-opacity="1"/>
<defs>
  <clipPath id="clip491">
    <rect x="800" y="0" width="2801" height="2000"/>
  </clipPath>
</defs>
<path clip-path="url(#clip490)" d="M324.316 1776.71 L3072.83 1776.71 L3072.83 262.064 L324.316 262.064  Z" fill="#ffffff" fill-rule="evenodd" fill-opacity="1"/>
<defs>
  <clipPath id="clip492">
    <rect x="324" y="262" width="2750" height="1516"/>
  </clipPath>
</defs>
<polyline clip-path="url(#clip492)" style="stroke:#000000; stroke-linecap:round; stroke-linejoin:round; stroke-width:2; stroke-opacity:0.1; fill:none" points="375.913,1776.71 375.913,262.064 "/>
<polyline clip-path="url(#clip492)" style="stroke:#000000; stroke-linecap:round; stroke-linejoin:round; stroke-width:2; stroke-opacity:0.1; fill:none" points="1030.7,1776.71 1030.7,262.064 "/>
<polyline clip-path="url(#clip492)" style="stroke:#000000; stroke-linecap:round; stroke-linejoin:round; stroke-width:2; stroke-opacity:0.1; fill:none" points="1685.48,1776.71 1685.48,262.064 "/>
<polyline clip-path="url(#clip492)" style="stroke:#000000; stroke-linecap:round; stroke-linejoin:round; stroke-width:2; stroke-opacity:0.1; fill:none" points="2340.26,1776.71 2340.26,262.064 "/>
<polyline clip-path="url(#clip492)" style="stroke:#000000; stroke-linecap:round; stroke-linejoin:round; stroke-width:2; stroke-opacity:0.1; fill:none" points="2995.04,1776.71 2995.04,262.064 "/>
<polyline clip-path="url(#clip490)" style="stroke:#000000; stroke-linecap:round; stroke-linejoin:round; stroke-width:4; stroke-opacity:1; fill:none" points="324.316,1776.71 3072.83,1776.71 "/>
<polyline clip-path="url(#clip490)" style="stroke:#000000; stroke-linecap:round; stroke-linejoin:round; stroke-width:4; stroke-opacity:1; fill:none" points="375.913,1776.71 375.913,1757.81 "/>
<polyline clip-path="url(#clip490)" style="stroke:#000000; stroke-linecap:round; stroke-linejoin:round; stroke-width:4; stroke-opacity:1; fill:none" points="1030.7,1776.71 1030.7,1757.81 "/>
<polyline clip-path="url(#clip490)" style="stroke:#000000; stroke-linecap:round; stroke-linejoin:round; stroke-width:4; stroke-opacity:1; fill:none" points="1685.48,1776.71 1685.48,1757.81 "/>
<polyline clip-path="url(#clip490)" style="stroke:#000000; stroke-linecap:round; stroke-linejoin:round; stroke-width:4; stroke-opacity:1; fill:none" points="2340.26,1776.71 2340.26,1757.81 "/>
<polyline clip-path="url(#clip490)" style="stroke:#000000; stroke-linecap:round; stroke-linejoin:round; stroke-width:4; stroke-opacity:1; fill:none" points="2995.04,1776.71 2995.04,1757.81 "/>
<path clip-path="url(#clip490)" d="M375.913 1820.43 Q372.302 1820.43 370.473 1823.99 Q368.668 1827.53 368.668 1834.66 Q368.668 1841.77 370.473 1845.33 Q372.302 1848.88 375.913 1848.88 Q379.547 1848.88 381.353 1845.33 Q383.182 1841.77 383.182 1834.66 Q383.182 1827.53 381.353 1823.99 Q379.547 1820.43 375.913 1820.43 M375.913 1816.72 Q381.723 1816.72 384.779 1821.33 Q387.857 1825.91 387.857 1834.66 Q387.857 1843.39 384.779 1848 Q381.723 1852.58 375.913 1852.58 Q370.103 1852.58 367.024 1848 Q363.969 1843.39 363.969 1834.66 Q363.969 1825.91 367.024 1821.33 Q370.103 1816.72 375.913 1816.72 Z" fill="#000000" fill-rule="nonzero" fill-opacity="1" /><path clip-path="url(#clip490)" d="M1009.97 1847.97 L1026.29 1847.97 L1026.29 1851.91 L1004.34 1851.91 L1004.34 1847.97 Q1007 1845.22 1011.59 1840.59 Q1016.19 1835.94 1017.37 1834.59 Q1019.62 1832.07 1020.5 1830.33 Q1021.4 1828.57 1021.4 1826.88 Q1021.4 1824.13 1019.46 1822.39 Q1017.54 1820.66 1014.43 1820.66 Q1012.24 1820.66 1009.78 1821.42 Q1007.35 1822.19 1004.57 1823.74 L1004.57 1819.01 Q1007.4 1817.88 1009.85 1817.3 Q1012.3 1816.72 1014.34 1816.72 Q1019.71 1816.72 1022.91 1819.41 Q1026.1 1822.09 1026.1 1826.58 Q1026.1 1828.71 1025.29 1830.63 Q1024.5 1832.53 1022.4 1835.13 Q1021.82 1835.8 1018.72 1839.01 Q1015.61 1842.21 1009.97 1847.97 Z" fill="#000000" fill-rule="nonzero" fill-opacity="1" /><path clip-path="url(#clip490)" d="M1036.15 1817.35 L1054.5 1817.35 L1054.5 1821.28 L1040.43 1821.28 L1040.43 1829.76 Q1041.45 1829.41 1042.47 1829.25 Q1043.48 1829.06 1044.5 1829.06 Q1050.29 1829.06 1053.67 1832.23 Q1057.05 1835.4 1057.05 1840.82 Q1057.05 1846.4 1053.58 1849.5 Q1050.11 1852.58 1043.79 1852.58 Q1041.61 1852.58 1039.34 1852.21 Q1037.1 1851.84 1034.69 1851.1 L1034.69 1846.4 Q1036.77 1847.53 1038.99 1848.09 Q1041.22 1848.64 1043.69 1848.64 Q1047.7 1848.64 1050.04 1846.54 Q1052.37 1844.43 1052.37 1840.82 Q1052.37 1837.21 1050.04 1835.1 Q1047.7 1833 1043.69 1833 Q1041.82 1833 1039.94 1833.41 Q1038.09 1833.83 1036.15 1834.71 L1036.15 1817.35 Z" fill="#000000" fill-rule="nonzero" fill-opacity="1" /><path clip-path="url(#clip490)" d="M1660.18 1817.35 L1678.53 1817.35 L1678.53 1821.28 L1664.46 1821.28 L1664.46 1829.76 Q1665.48 1829.41 1666.5 1829.25 Q1667.52 1829.06 1668.53 1829.06 Q1674.32 1829.06 1677.7 1832.23 Q1681.08 1835.4 1681.08 1840.82 Q1681.08 1846.4 1677.61 1849.5 Q1674.14 1852.58 1667.82 1852.58 Q1665.64 1852.58 1663.37 1852.21 Q1661.13 1851.84 1658.72 1851.1 L1658.72 1846.4 Q1660.8 1847.53 1663.02 1848.09 Q1665.25 1848.64 1667.72 1848.64 Q1671.73 1848.64 1674.07 1846.54 Q1676.4 1844.43 1676.4 1840.82 Q1676.4 1837.21 1674.07 1835.1 Q1671.73 1833 1667.72 1833 Q1665.85 1833 1663.97 1833.41 Q1662.12 1833.83 1660.18 1834.71 L1660.18 1817.35 Z" fill="#000000" fill-rule="nonzero" fill-opacity="1" /><path clip-path="url(#clip490)" d="M1700.29 1820.43 Q1696.68 1820.43 1694.85 1823.99 Q1693.05 1827.53 1693.05 1834.66 Q1693.05 1841.77 1694.85 1845.33 Q1696.68 1848.88 1700.29 1848.88 Q1703.93 1848.88 1705.73 1845.33 Q1707.56 1841.77 1707.56 1834.66 Q1707.56 1827.53 1705.73 1823.99 Q1703.93 1820.43 1700.29 1820.43 M1700.29 1816.72 Q1706.1 1816.72 1709.16 1821.33 Q1712.24 1825.91 1712.24 1834.66 Q1712.24 1843.39 1709.16 1848 Q1706.1 1852.58 1700.29 1852.58 Q1694.48 1852.58 1691.4 1848 Q1688.35 1843.39 1688.35 1834.66 Q1688.35 1825.91 1691.4 1821.33 Q1694.48 1816.72 1700.29 1816.72 Z" fill="#000000" fill-rule="nonzero" fill-opacity="1" /><path clip-path="url(#clip490)" d="M2314.12 1817.35 L2336.34 1817.35 L2336.34 1819.34 L2323.79 1851.91 L2318.91 1851.91 L2330.71 1821.28 L2314.12 1821.28 L2314.12 1817.35 Z" fill="#000000" fill-rule="nonzero" fill-opacity="1" /><path clip-path="url(#clip490)" d="M2345.5 1817.35 L2363.86 1817.35 L2363.86 1821.28 L2349.79 1821.28 L2349.79 1829.76 Q2350.8 1829.41 2351.82 1829.25 Q2352.84 1829.06 2353.86 1829.06 Q2359.65 1829.06 2363.03 1832.23 Q2366.41 1835.4 2366.41 1840.82 Q2366.41 1846.4 2362.93 1849.5 Q2359.46 1852.58 2353.14 1852.58 Q2350.97 1852.58 2348.7 1852.21 Q2346.45 1851.84 2344.05 1851.1 L2344.05 1846.4 Q2346.13 1847.53 2348.35 1848.09 Q2350.57 1848.64 2353.05 1848.64 Q2357.05 1848.64 2359.39 1846.54 Q2361.73 1844.43 2361.73 1840.82 Q2361.73 1837.21 2359.39 1835.1 Q2357.05 1833 2353.05 1833 Q2351.18 1833 2349.3 1833.41 Q2347.45 1833.83 2345.5 1834.71 L2345.5 1817.35 Z" fill="#000000" fill-rule="nonzero" fill-opacity="1" /><path clip-path="url(#clip490)" d="M2954.65 1847.97 L2962.29 1847.97 L2962.29 1821.61 L2953.98 1823.27 L2953.98 1819.01 L2962.24 1817.35 L2966.92 1817.35 L2966.92 1847.97 L2974.56 1847.97 L2974.56 1851.91 L2954.65 1851.91 L2954.65 1847.97 Z" fill="#000000" fill-rule="nonzero" fill-opacity="1" /><path clip-path="url(#clip490)" d="M2994 1820.43 Q2990.39 1820.43 2988.56 1823.99 Q2986.76 1827.53 2986.76 1834.66 Q2986.76 1841.77 2988.56 1845.33 Q2990.39 1848.88 2994 1848.88 Q2997.64 1848.88 2999.44 1845.33 Q3001.27 1841.77 3001.27 1834.66 Q3001.27 1827.53 2999.44 1823.99 Q2997.64 1820.43 2994 1820.43 M2994 1816.72 Q2999.81 1816.72 3002.87 1821.33 Q3005.95 1825.91 3005.95 1834.66 Q3005.95 1843.39 3002.87 1848 Q2999.81 1852.58 2994 1852.58 Q2988.19 1852.58 2985.11 1848 Q2982.06 1843.39 2982.06 1834.66 Q2982.06 1825.91 2985.11 1821.33 Q2988.19 1816.72 2994 1816.72 Z" fill="#000000" fill-rule="nonzero" fill-opacity="1" /><path clip-path="url(#clip490)" d="M3024.16 1820.43 Q3020.55 1820.43 3018.72 1823.99 Q3016.92 1827.53 3016.92 1834.66 Q3016.92 1841.77 3018.72 1845.33 Q3020.55 1848.88 3024.16 1848.88 Q3027.8 1848.88 3029.6 1845.33 Q3031.43 1841.77 3031.43 1834.66 Q3031.43 1827.53 3029.6 1823.99 Q3027.8 1820.43 3024.16 1820.43 M3024.16 1816.72 Q3029.97 1816.72 3033.03 1821.33 Q3036.11 1825.91 3036.11 1834.66 Q3036.11 1843.39 3033.03 1848 Q3029.97 1852.58 3024.16 1852.58 Q3018.35 1852.58 3015.27 1848 Q3012.22 1843.39 3012.22 1834.66 Q3012.22 1825.91 3015.27 1821.33 Q3018.35 1816.72 3024.16 1816.72 Z" fill="#000000" fill-rule="nonzero" fill-opacity="1" /><path clip-path="url(#clip490)" d="M1637.73 1899.8 L1637.73 1909.92 L1649.8 1909.92 L1649.8 1914.48 L1637.73 1914.48 L1637.73 1933.83 Q1637.73 1938.19 1638.91 1939.43 Q1640.12 1940.67 1643.78 1940.67 L1649.8 1940.67 L1649.8 1945.57 L1643.78 1945.57 Q1637 1945.57 1634.42 1943.06 Q1631.85 1940.51 1631.85 1933.83 L1631.85 1914.48 L1627.55 1914.48 L1627.55 1909.92 L1631.85 1909.92 L1631.85 1899.8 L1637.73 1899.8 Z" fill="#000000" fill-rule="nonzero" fill-opacity="1" /><path clip-path="url(#clip490)" d="M1657.5 1909.92 L1663.36 1909.92 L1663.36 1945.57 L1657.5 1945.57 L1657.5 1909.92 M1657.5 1896.05 L1663.36 1896.05 L1663.36 1903.46 L1657.5 1903.46 L1657.5 1896.05 Z" fill="#000000" fill-rule="nonzero" fill-opacity="1" /><path clip-path="url(#clip490)" d="M1703.36 1916.77 Q1705.56 1912.82 1708.62 1910.94 Q1711.67 1909.06 1715.81 1909.06 Q1721.38 1909.06 1724.4 1912.98 Q1727.43 1916.86 1727.43 1924.06 L1727.43 1945.57 L1721.54 1945.57 L1721.54 1924.25 Q1721.54 1919.12 1719.72 1916.64 Q1717.91 1914.16 1714.19 1914.16 Q1709.63 1914.16 1706.99 1917.18 Q1704.35 1920.2 1704.35 1925.42 L1704.35 1945.57 L1698.46 1945.57 L1698.46 1924.25 Q1698.46 1919.09 1696.65 1916.64 Q1694.83 1914.16 1691.05 1914.16 Q1686.56 1914.16 1683.92 1917.21 Q1681.28 1920.24 1681.28 1925.42 L1681.28 1945.57 L1675.39 1945.57 L1675.39 1909.92 L1681.28 1909.92 L1681.28 1915.46 Q1683.28 1912.18 1686.08 1910.62 Q1688.88 1909.06 1692.73 1909.06 Q1696.62 1909.06 1699.32 1911.04 Q1702.06 1913.01 1703.36 1916.77 Z" fill="#000000" fill-rule="nonzero" fill-opacity="1" /><path clip-path="url(#clip490)" d="M1769.6 1926.28 L1769.6 1929.15 L1742.67 1929.15 Q1743.05 1935.2 1746.3 1938.38 Q1749.58 1941.53 1755.4 1941.53 Q1758.78 1941.53 1761.93 1940.7 Q1765.11 1939.87 1768.23 1938.22 L1768.23 1943.76 Q1765.08 1945.09 1761.77 1945.79 Q1758.46 1946.49 1755.05 1946.49 Q1746.52 1946.49 1741.53 1941.53 Q1736.56 1936.56 1736.56 1928.1 Q1736.56 1919.35 1741.27 1914.22 Q1746.01 1909.06 1754.04 1909.06 Q1761.23 1909.06 1765.4 1913.71 Q1769.6 1918.33 1769.6 1926.28 M1763.74 1924.56 Q1763.68 1919.76 1761.04 1916.89 Q1758.43 1914.03 1754.1 1914.03 Q1749.2 1914.03 1746.24 1916.8 Q1743.31 1919.57 1742.86 1924.6 L1763.74 1924.56 Z" fill="#000000" fill-rule="nonzero" fill-opacity="1" /><polyline clip-path="url(#clip492)" style="stroke:#000000; stroke-linecap:round; stroke-linejoin:round; stroke-width:2; stroke-opacity:0.1; fill:none" points="324.316,1645.03 3072.83,1645.03 "/>
<polyline clip-path="url(#clip492)" style="stroke:#000000; stroke-linecap:round; stroke-linejoin:round; stroke-width:2; stroke-opacity:0.1; fill:none" points="324.316,1332.12 3072.83,1332.12 "/>
<polyline clip-path="url(#clip492)" style="stroke:#000000; stroke-linecap:round; stroke-linejoin:round; stroke-width:2; stroke-opacity:0.1; fill:none" points="324.316,1019.2 3072.83,1019.2 "/>
<polyline clip-path="url(#clip492)" style="stroke:#000000; stroke-linecap:round; stroke-linejoin:round; stroke-width:2; stroke-opacity:0.1; fill:none" points="324.316,706.288 3072.83,706.288 "/>
<polyline clip-path="url(#clip492)" style="stroke:#000000; stroke-linecap:round; stroke-linejoin:round; stroke-width:2; stroke-opacity:0.1; fill:none" points="324.316,393.373 3072.83,393.373 "/>
<polyline clip-path="url(#clip490)" style="stroke:#000000; stroke-linecap:round; stroke-linejoin:round; stroke-width:4; stroke-opacity:1; fill:none" points="324.316,1776.71 324.316,262.064 "/>
<polyline clip-path="url(#clip490)" style="stroke:#000000; stroke-linecap:round; stroke-linejoin:round; stroke-width:4; stroke-opacity:1; fill:none" points="324.316,1645.03 338.631,1645.03 "/>
<polyline clip-path="url(#clip490)" style="stroke:#000000; stroke-linecap:round; stroke-linejoin:round; stroke-width:4; stroke-opacity:1; fill:none" points="324.316,1332.12 338.631,1332.12 "/>
<polyline clip-path="url(#clip490)" style="stroke:#000000; stroke-linecap:round; stroke-linejoin:round; stroke-width:4; stroke-opacity:1; fill:none" points="324.316,1019.2 338.631,1019.2 "/>
<polyline clip-path="url(#clip490)" style="stroke:#000000; stroke-linecap:round; stroke-linejoin:round; stroke-width:4; stroke-opacity:1; fill:none" points="324.316,706.288 338.631,706.288 "/>
<polyline clip-path="url(#clip490)" style="stroke:#000000; stroke-linecap:round; stroke-linejoin:round; stroke-width:4; stroke-opacity:1; fill:none" points="324.316,393.373 338.631,393.373 "/>
<path clip-path="url(#clip490)" d="M157.372 1645.48 L187.048 1645.48 L187.048 1649.42 L157.372 1649.42 L157.372 1645.48 Z" fill="#000000" fill-rule="nonzero" fill-opacity="1" /><path clip-path="url(#clip490)" d="M197.951 1658.38 L205.59 1658.38 L205.59 1632.01 L197.279 1633.68 L197.279 1629.42 L205.543 1627.75 L210.219 1627.75 L210.219 1658.38 L217.858 1658.38 L217.858 1662.31 L197.951 1662.31 L197.951 1658.38 Z" fill="#000000" fill-rule="nonzero" fill-opacity="1" /><path clip-path="url(#clip490)" d="M227.302 1656.43 L232.187 1656.43 L232.187 1662.31 L227.302 1662.31 L227.302 1656.43 Z" fill="#000000" fill-rule="nonzero" fill-opacity="1" /><path clip-path="url(#clip490)" d="M252.372 1630.83 Q248.761 1630.83 246.932 1634.4 Q245.126 1637.94 245.126 1645.07 Q245.126 1652.17 246.932 1655.74 Q248.761 1659.28 252.372 1659.28 Q256.006 1659.28 257.812 1655.74 Q259.64 1652.17 259.64 1645.07 Q259.64 1637.94 257.812 1634.4 Q256.006 1630.83 252.372 1630.83 M252.372 1627.13 Q258.182 1627.13 261.237 1631.73 Q264.316 1636.32 264.316 1645.07 Q264.316 1653.79 261.237 1658.4 Q258.182 1662.98 252.372 1662.98 Q246.562 1662.98 243.483 1658.4 Q240.427 1653.79 240.427 1645.07 Q240.427 1636.32 243.483 1631.73 Q246.562 1627.13 252.372 1627.13 Z" fill="#000000" fill-rule="nonzero" fill-opacity="1" /><path clip-path="url(#clip490)" d="M158.368 1332.57 L188.043 1332.57 L188.043 1336.5 L158.368 1336.5 L158.368 1332.57 Z" fill="#000000" fill-rule="nonzero" fill-opacity="1" /><path clip-path="url(#clip490)" d="M208.136 1317.92 Q204.525 1317.92 202.696 1321.48 Q200.891 1325.02 200.891 1332.15 Q200.891 1339.26 202.696 1342.82 Q204.525 1346.37 208.136 1346.37 Q211.77 1346.37 213.576 1342.82 Q215.404 1339.26 215.404 1332.15 Q215.404 1325.02 213.576 1321.48 Q211.77 1317.92 208.136 1317.92 M208.136 1314.21 Q213.946 1314.21 217.002 1318.82 Q220.08 1323.4 220.08 1332.15 Q220.08 1340.88 217.002 1345.49 Q213.946 1350.07 208.136 1350.07 Q202.326 1350.07 199.247 1345.49 Q196.192 1340.88 196.192 1332.15 Q196.192 1323.4 199.247 1318.82 Q202.326 1314.21 208.136 1314.21 Z" fill="#000000" fill-rule="nonzero" fill-opacity="1" /><path clip-path="url(#clip490)" d="M228.298 1343.52 L233.182 1343.52 L233.182 1349.4 L228.298 1349.4 L228.298 1343.52 Z" fill="#000000" fill-rule="nonzero" fill-opacity="1" /><path clip-path="url(#clip490)" d="M243.413 1314.84 L261.77 1314.84 L261.77 1318.77 L247.696 1318.77 L247.696 1327.25 Q248.714 1326.9 249.733 1326.74 Q250.751 1326.55 251.77 1326.55 Q257.557 1326.55 260.937 1329.72 Q264.316 1332.89 264.316 1338.31 Q264.316 1343.89 260.844 1346.99 Q257.372 1350.07 251.052 1350.07 Q248.876 1350.07 246.608 1349.7 Q244.363 1349.33 241.955 1348.59 L241.955 1343.89 Q244.038 1345.02 246.261 1345.58 Q248.483 1346.13 250.96 1346.13 Q254.964 1346.13 257.302 1344.03 Q259.64 1341.92 259.64 1338.31 Q259.64 1334.7 257.302 1332.59 Q254.964 1330.49 250.96 1330.49 Q249.085 1330.49 247.21 1330.9 Q245.358 1331.32 243.413 1332.2 L243.413 1314.84 Z" fill="#000000" fill-rule="nonzero" fill-opacity="1" /><path clip-path="url(#clip490)" d="M207.141 1005 Q203.529 1005 201.701 1008.57 Q199.895 1012.11 199.895 1019.24 Q199.895 1026.34 201.701 1029.91 Q203.529 1033.45 207.141 1033.45 Q210.775 1033.45 212.58 1029.91 Q214.409 1026.34 214.409 1019.24 Q214.409 1012.11 212.58 1008.57 Q210.775 1005 207.141 1005 M207.141 1001.3 Q212.951 1001.3 216.006 1005.9 Q219.085 1010.49 219.085 1019.24 Q219.085 1027.96 216.006 1032.57 Q212.951 1037.15 207.141 1037.15 Q201.33 1037.15 198.252 1032.57 Q195.196 1027.96 195.196 1019.24 Q195.196 1010.49 198.252 1005.9 Q201.33 1001.3 207.141 1001.3 Z" fill="#000000" fill-rule="nonzero" fill-opacity="1" /><path clip-path="url(#clip490)" d="M227.302 1030.6 L232.187 1030.6 L232.187 1036.48 L227.302 1036.48 L227.302 1030.6 Z" fill="#000000" fill-rule="nonzero" fill-opacity="1" /><path clip-path="url(#clip490)" d="M252.372 1005 Q248.761 1005 246.932 1008.57 Q245.126 1012.11 245.126 1019.24 Q245.126 1026.34 246.932 1029.91 Q248.761 1033.45 252.372 1033.45 Q256.006 1033.45 257.812 1029.91 Q259.64 1026.34 259.64 1019.24 Q259.64 1012.11 257.812 1008.57 Q256.006 1005 252.372 1005 M252.372 1001.3 Q258.182 1001.3 261.237 1005.9 Q264.316 1010.49 264.316 1019.24 Q264.316 1027.96 261.237 1032.57 Q258.182 1037.15 252.372 1037.15 Q246.562 1037.15 243.483 1032.57 Q240.427 1027.96 240.427 1019.24 Q240.427 1010.49 243.483 1005.9 Q246.562 1001.3 252.372 1001.3 Z" fill="#000000" fill-rule="nonzero" fill-opacity="1" /><path clip-path="url(#clip490)" d="M208.136 692.087 Q204.525 692.087 202.696 695.652 Q200.891 699.193 200.891 706.323 Q200.891 713.429 202.696 716.994 Q204.525 720.536 208.136 720.536 Q211.77 720.536 213.576 716.994 Q215.404 713.429 215.404 706.323 Q215.404 699.193 213.576 695.652 Q211.77 692.087 208.136 692.087 M208.136 688.383 Q213.946 688.383 217.002 692.99 Q220.08 697.573 220.08 706.323 Q220.08 715.05 217.002 719.656 Q213.946 724.24 208.136 724.24 Q202.326 724.24 199.247 719.656 Q196.192 715.05 196.192 706.323 Q196.192 697.573 199.247 692.99 Q202.326 688.383 208.136 688.383 Z" fill="#000000" fill-rule="nonzero" fill-opacity="1" /><path clip-path="url(#clip490)" d="M228.298 717.689 L233.182 717.689 L233.182 723.568 L228.298 723.568 L228.298 717.689 Z" fill="#000000" fill-rule="nonzero" fill-opacity="1" /><path clip-path="url(#clip490)" d="M243.413 689.008 L261.77 689.008 L261.77 692.943 L247.696 692.943 L247.696 701.416 Q248.714 701.068 249.733 700.906 Q250.751 700.721 251.77 700.721 Q257.557 700.721 260.937 703.892 Q264.316 707.064 264.316 712.48 Q264.316 718.059 260.844 721.161 Q257.372 724.24 251.052 724.24 Q248.876 724.24 246.608 723.869 Q244.363 723.499 241.955 722.758 L241.955 718.059 Q244.038 719.193 246.261 719.749 Q248.483 720.304 250.96 720.304 Q254.964 720.304 257.302 718.198 Q259.64 716.091 259.64 712.48 Q259.64 708.869 257.302 706.763 Q254.964 704.656 250.96 704.656 Q249.085 704.656 247.21 705.073 Q245.358 705.49 243.413 706.369 L243.413 689.008 Z" fill="#000000" fill-rule="nonzero" fill-opacity="1" /><path clip-path="url(#clip490)" d="M197.951 406.718 L205.59 406.718 L205.59 380.353 L197.279 382.019 L197.279 377.76 L205.543 376.093 L210.219 376.093 L210.219 406.718 L217.858 406.718 L217.858 410.653 L197.951 410.653 L197.951 406.718 Z" fill="#000000" fill-rule="nonzero" fill-opacity="1" /><path clip-path="url(#clip490)" d="M227.302 404.774 L232.187 404.774 L232.187 410.653 L227.302 410.653 L227.302 404.774 Z" fill="#000000" fill-rule="nonzero" fill-opacity="1" /><path clip-path="url(#clip490)" d="M252.372 379.172 Q248.761 379.172 246.932 382.737 Q245.126 386.278 245.126 393.408 Q245.126 400.514 246.932 404.079 Q248.761 407.621 252.372 407.621 Q256.006 407.621 257.812 404.079 Q259.64 400.514 259.64 393.408 Q259.64 386.278 257.812 382.737 Q256.006 379.172 252.372 379.172 M252.372 375.468 Q258.182 375.468 261.237 380.075 Q264.316 384.658 264.316 393.408 Q264.316 402.135 261.237 406.741 Q258.182 411.325 252.372 411.325 Q246.562 411.325 243.483 406.741 Q240.427 402.135 240.427 393.408 Q240.427 384.658 243.483 380.075 Q246.562 375.468 252.372 375.468 Z" fill="#000000" fill-rule="nonzero" fill-opacity="1" /><path clip-path="url(#clip490)" d="M47.4683 1002.77 L64.8149 1015.66 L83.1163 1002.1 L83.1163 1009.01 L69.1117 1019.39 L83.1163 1029.76 L83.1163 1036.67 L64.4648 1022.82 L47.4683 1035.49 L47.4683 1028.58 L60.1679 1019.13 L47.4683 1009.68 L47.4683 1002.77 Z" fill="#000000" fill-rule="nonzero" fill-opacity="1" /><path clip-path="url(#clip490)" d="M869.577 44.3209 L869.577 52.3012 Q864.918 50.0732 860.786 48.9795 Q856.654 47.8857 852.806 47.8857 Q846.122 47.8857 842.476 50.4783 Q838.871 53.0709 838.871 57.851 Q838.871 61.8614 841.261 63.9273 Q843.691 65.9528 850.416 67.2086 L855.358 68.2213 Q864.513 69.9632 868.848 74.3787 Q873.222 78.7536 873.222 86.1263 Q873.222 94.9167 867.308 99.4537 Q861.434 103.991 850.051 103.991 Q845.757 103.991 840.896 103.019 Q836.076 102.046 830.891 100.142 L830.891 91.7165 Q835.873 94.5116 840.653 95.9295 Q845.433 97.3473 850.051 97.3473 Q857.059 97.3473 860.867 94.5927 Q864.675 91.838 864.675 86.7339 Q864.675 82.2779 861.92 79.7664 Q859.206 77.2548 852.968 75.999 L847.985 75.0268 Q838.83 73.2039 834.739 69.315 Q830.647 65.4262 830.647 58.4991 Q830.647 50.4783 836.278 45.8603 Q841.95 41.2423 851.874 41.2423 Q856.128 41.2423 860.543 42.0119 Q864.959 42.7816 869.577 44.3209 Z" fill="#000000" fill-rule="nonzero" fill-opacity="1" /><path clip-path="url(#clip490)" d="M906.278 80.0094 Q897.244 80.0094 893.761 82.0754 Q890.277 84.1413 890.277 89.1239 Q890.277 93.0938 892.869 95.4434 Q895.502 97.7524 899.999 97.7524 Q906.197 97.7524 909.924 93.3774 Q913.691 88.9619 913.691 81.6703 L913.691 80.0094 L906.278 80.0094 M921.145 76.9307 L921.145 102.816 L913.691 102.816 L913.691 95.9295 Q911.139 100.061 907.331 102.046 Q903.523 103.991 898.014 103.991 Q891.046 103.991 886.915 100.102 Q882.823 96.1725 882.823 89.6101 Q882.823 81.9538 887.927 78.065 Q893.072 74.1761 903.24 74.1761 L913.691 74.1761 L913.691 73.4469 Q913.691 68.3023 910.288 65.5072 Q906.926 62.6715 900.809 62.6715 Q896.92 62.6715 893.234 63.6032 Q889.548 64.535 886.145 66.3984 L886.145 59.5118 Q890.236 57.932 894.085 57.1623 Q897.933 56.3521 901.579 56.3521 Q911.423 56.3521 916.284 61.4563 Q921.145 66.5604 921.145 76.9307 Z" fill="#000000" fill-rule="nonzero" fill-opacity="1" /><path clip-path="url(#clip490)" d="M971.822 66.1553 Q974.617 61.1322 978.505 58.7422 Q982.394 56.3521 987.661 56.3521 Q994.75 56.3521 998.598 61.3347 Q1002.45 66.2768 1002.45 75.4319 L1002.45 102.816 L994.952 102.816 L994.952 75.6749 Q994.952 69.153 992.643 65.9933 Q990.334 62.8336 985.595 62.8336 Q979.802 62.8336 976.44 66.6819 Q973.077 70.5303 973.077 77.1738 L973.077 102.816 L965.583 102.816 L965.583 75.6749 Q965.583 69.1125 963.274 65.9933 Q960.965 62.8336 956.145 62.8336 Q950.433 62.8336 947.07 66.7224 Q943.708 70.5708 943.708 77.1738 L943.708 102.816 L936.214 102.816 L936.214 57.4459 L943.708 57.4459 L943.708 64.4944 Q946.26 60.322 949.825 58.3371 Q953.39 56.3521 958.291 56.3521 Q963.234 56.3521 966.677 58.8637 Q970.161 61.3752 971.822 66.1553 Z" fill="#000000" fill-rule="nonzero" fill-opacity="1" /><path clip-path="url(#clip490)" d="M1024.52 96.0105 L1024.52 120.073 L1017.03 120.073 L1017.03 57.4459 L1024.52 57.4459 L1024.52 64.3324 Q1026.87 60.2815 1030.44 58.3371 Q1034.04 56.3521 1039.03 56.3521 Q1047.29 56.3521 1052.43 62.9146 Q1057.62 69.4771 1057.62 80.1714 Q1057.62 90.8658 1052.43 97.4283 Q1047.29 103.991 1039.03 103.991 Q1034.04 103.991 1030.44 102.046 Q1026.87 100.061 1024.52 96.0105 M1049.88 80.1714 Q1049.88 71.9481 1046.48 67.2896 Q1043.12 62.5905 1037.2 62.5905 Q1031.29 62.5905 1027.89 67.2896 Q1024.52 71.9481 1024.52 80.1714 Q1024.52 88.3948 1027.89 93.0938 Q1031.29 97.7524 1037.2 97.7524 Q1043.12 97.7524 1046.48 93.0938 Q1049.88 88.3948 1049.88 80.1714 Z" fill="#000000" fill-rule="nonzero" fill-opacity="1" /><path clip-path="url(#clip490)" d="M1069.97 39.7839 L1077.43 39.7839 L1077.43 102.816 L1069.97 102.816 L1069.97 39.7839 Z" fill="#000000" fill-rule="nonzero" fill-opacity="1" /><path clip-path="url(#clip490)" d="M1131.83 78.2675 L1131.83 81.9133 L1097.56 81.9133 Q1098.05 89.6101 1102.18 93.661 Q1106.35 97.6714 1113.77 97.6714 Q1118.06 97.6714 1122.07 96.6181 Q1126.12 95.5649 1130.09 93.4584 L1130.09 100.507 Q1126.08 102.208 1121.87 103.1 Q1117.65 103.991 1113.32 103.991 Q1102.46 103.991 1096.1 97.6714 Q1089.78 91.3519 1089.78 80.5765 Q1089.78 69.4365 1095.78 62.9146 Q1101.82 56.3521 1112.02 56.3521 Q1121.18 56.3521 1126.49 62.2664 Q1131.83 68.1403 1131.83 78.2675 M1124.38 76.08 Q1124.3 69.9632 1120.94 66.3174 Q1117.61 62.6715 1112.1 62.6715 Q1105.87 62.6715 1102.1 66.1958 Q1098.37 69.7201 1097.8 76.1205 L1124.38 76.08 Z" fill="#000000" fill-rule="nonzero" fill-opacity="1" /><path clip-path="url(#clip490)" d="M1172.91 95.9295 L1186.28 95.9295 L1186.28 49.7897 L1171.73 52.7063 L1171.73 45.2527 L1186.2 42.336 L1194.38 42.336 L1194.38 95.9295 L1207.75 95.9295 L1207.75 102.816 L1172.91 102.816 L1172.91 95.9295 Z" fill="#000000" fill-rule="nonzero" fill-opacity="1" /><path clip-path="url(#clip490)" d="M1225.69 95.9295 L1239.06 95.9295 L1239.06 49.7897 L1224.52 52.7063 L1224.52 45.2527 L1238.98 42.336 L1247.16 42.336 L1247.16 95.9295 L1260.53 95.9295 L1260.53 102.816 L1225.69 102.816 L1225.69 95.9295 Z" fill="#000000" fill-rule="nonzero" fill-opacity="1" /><path clip-path="url(#clip490)" d="M1277.91 92.5267 L1286.46 92.5267 L1286.46 99.4943 L1279.81 112.457 L1274.59 112.457 L1277.91 99.4943 L1277.91 92.5267 Z" fill="#000000" fill-rule="nonzero" fill-opacity="1" /><path clip-path="url(#clip490)" d="M1374.36 46.9945 L1374.36 55.623 Q1370.23 51.7746 1365.53 49.8707 Q1360.87 47.9668 1355.6 47.9668 Q1345.23 47.9668 1339.72 54.3267 Q1334.22 60.6461 1334.22 72.6368 Q1334.22 84.5869 1339.72 90.9469 Q1345.23 97.2663 1355.6 97.2663 Q1360.87 97.2663 1365.53 95.3623 Q1370.23 93.4584 1374.36 89.6101 L1374.36 98.1575 Q1370.07 101.074 1365.25 102.532 Q1360.47 103.991 1355.12 103.991 Q1341.39 103.991 1333.49 95.6054 Q1325.59 87.1795 1325.59 72.6368 Q1325.59 58.0535 1333.49 49.6681 Q1341.39 41.2423 1355.12 41.2423 Q1360.55 41.2423 1365.33 42.7006 Q1370.15 44.1184 1374.36 46.9945 Z" fill="#000000" fill-rule="nonzero" fill-opacity="1" /><path clip-path="url(#clip490)" d="M1386.67 39.7839 L1394.13 39.7839 L1394.13 102.816 L1386.67 102.816 L1386.67 39.7839 Z" fill="#000000" fill-rule="nonzero" fill-opacity="1" /><path clip-path="url(#clip490)" d="M1430.34 80.0094 Q1421.31 80.0094 1417.83 82.0754 Q1414.34 84.1413 1414.34 89.1239 Q1414.34 93.0938 1416.93 95.4434 Q1419.57 97.7524 1424.06 97.7524 Q1430.26 97.7524 1433.99 93.3774 Q1437.76 88.9619 1437.76 81.6703 L1437.76 80.0094 L1430.34 80.0094 M1445.21 76.9307 L1445.21 102.816 L1437.76 102.816 L1437.76 95.9295 Q1435.2 100.061 1431.4 102.046 Q1427.59 103.991 1422.08 103.991 Q1415.11 103.991 1410.98 100.102 Q1406.89 96.1725 1406.89 89.6101 Q1406.89 81.9538 1411.99 78.065 Q1417.14 74.1761 1427.31 74.1761 L1437.76 74.1761 L1437.76 73.4469 Q1437.76 68.3023 1434.35 65.5072 Q1430.99 62.6715 1424.87 62.6715 Q1420.99 62.6715 1417.3 63.6032 Q1413.61 64.535 1410.21 66.3984 L1410.21 59.5118 Q1414.3 57.932 1418.15 57.1623 Q1422 56.3521 1425.64 56.3521 Q1435.49 56.3521 1440.35 61.4563 Q1445.21 66.5604 1445.21 76.9307 Z" fill="#000000" fill-rule="nonzero" fill-opacity="1" /><path clip-path="url(#clip490)" d="M1489.49 58.7827 L1489.49 65.8312 Q1486.33 64.2109 1482.92 63.4007 Q1479.52 62.5905 1475.88 62.5905 Q1470.33 62.5905 1467.53 64.2919 Q1464.78 65.9933 1464.78 69.396 Q1464.78 71.9886 1466.76 73.4875 Q1468.75 74.9458 1474.74 76.2826 L1477.29 76.8497 Q1485.23 78.5511 1488.55 81.6703 Q1491.92 84.749 1491.92 90.2987 Q1491.92 96.6181 1486.89 100.304 Q1481.91 103.991 1473.16 103.991 Q1469.52 103.991 1465.55 103.262 Q1461.62 102.573 1457.24 101.155 L1457.24 93.4584 Q1461.37 95.6054 1465.38 96.6991 Q1469.39 97.7524 1473.32 97.7524 Q1478.59 97.7524 1481.43 95.97 Q1484.26 94.1471 1484.26 90.8658 Q1484.26 87.8277 1482.19 86.2073 Q1480.17 84.5869 1473.24 83.0881 L1470.65 82.4805 Q1463.72 81.0221 1460.64 78.0245 Q1457.57 74.9863 1457.57 69.7201 Q1457.57 63.3197 1462.1 59.8359 Q1466.64 56.3521 1474.98 56.3521 Q1479.12 56.3521 1482.76 56.9598 Q1486.41 57.5674 1489.49 58.7827 Z" fill="#000000" fill-rule="nonzero" fill-opacity="1" /><path clip-path="url(#clip490)" d="M1532.71 58.7827 L1532.71 65.8312 Q1529.55 64.2109 1526.15 63.4007 Q1522.74 62.5905 1519.1 62.5905 Q1513.55 62.5905 1510.75 64.2919 Q1508 65.9933 1508 69.396 Q1508 71.9886 1509.98 73.4875 Q1511.97 74.9458 1517.96 76.2826 L1520.52 76.8497 Q1528.46 78.5511 1531.78 81.6703 Q1535.14 84.749 1535.14 90.2987 Q1535.14 96.6181 1530.12 100.304 Q1525.13 103.991 1516.38 103.991 Q1512.74 103.991 1508.77 103.262 Q1504.84 102.573 1500.46 101.155 L1500.46 93.4584 Q1504.6 95.6054 1508.61 96.6991 Q1512.62 97.7524 1516.55 97.7524 Q1521.81 97.7524 1524.65 95.97 Q1527.48 94.1471 1527.48 90.8658 Q1527.48 87.8277 1525.42 86.2073 Q1523.39 84.5869 1516.47 83.0881 L1513.87 82.4805 Q1506.95 81.0221 1503.87 78.0245 Q1500.79 74.9863 1500.79 69.7201 Q1500.79 63.3197 1505.33 59.8359 Q1509.86 56.3521 1518.21 56.3521 Q1522.34 56.3521 1525.99 56.9598 Q1529.63 57.5674 1532.71 58.7827 Z" fill="#000000" fill-rule="nonzero" fill-opacity="1" /><path clip-path="url(#clip490)" d="M1591.93 47.7237 Q1585.61 47.7237 1582.41 53.9621 Q1579.25 60.16 1579.25 72.6368 Q1579.25 85.073 1582.41 91.3114 Q1585.61 97.5093 1591.93 97.5093 Q1598.29 97.5093 1601.45 91.3114 Q1604.65 85.073 1604.65 72.6368 Q1604.65 60.16 1601.45 53.9621 Q1598.29 47.7237 1591.93 47.7237 M1591.93 41.2423 Q1602.1 41.2423 1607.45 49.3036 Q1612.84 57.3243 1612.84 72.6368 Q1612.84 87.9087 1607.45 95.97 Q1602.1 103.991 1591.93 103.991 Q1581.77 103.991 1576.38 95.97 Q1571.03 87.9087 1571.03 72.6368 Q1571.03 57.3243 1576.38 49.3036 Q1581.77 41.2423 1591.93 41.2423 Z" fill="#000000" fill-rule="nonzero" fill-opacity="1" /><path clip-path="url(#clip490)" d="M1628.07 92.5267 L1636.62 92.5267 L1636.62 99.4943 L1629.97 112.457 L1624.75 112.457 L1628.07 99.4943 L1628.07 92.5267 Z" fill="#000000" fill-rule="nonzero" fill-opacity="1" /><path clip-path="url(#clip490)" d="M1680.04 42.336 L1712.16 42.336 L1712.16 49.2225 L1687.54 49.2225 L1687.54 64.0488 Q1689.32 63.4412 1691.1 63.1576 Q1692.88 62.8336 1694.66 62.8336 Q1704.79 62.8336 1710.71 68.3833 Q1716.62 73.9331 1716.62 83.4122 Q1716.62 93.1748 1710.54 98.6031 Q1704.47 103.991 1693.41 103.991 Q1689.6 103.991 1685.63 103.343 Q1681.7 102.694 1677.49 101.398 L1677.49 93.1748 Q1681.13 95.1598 1685.02 96.132 Q1688.91 97.1042 1693.25 97.1042 Q1700.26 97.1042 1704.35 93.4179 Q1708.44 89.7316 1708.44 83.4122 Q1708.44 77.0928 1704.35 73.4064 Q1700.26 69.7201 1693.25 69.7201 Q1689.97 69.7201 1686.68 70.4493 Q1683.44 71.1784 1680.04 72.7178 L1680.04 42.336 Z" fill="#000000" fill-rule="nonzero" fill-opacity="1" /><path clip-path="url(#clip490)" d="M1750.24 47.7237 Q1743.92 47.7237 1740.72 53.9621 Q1737.56 60.16 1737.56 72.6368 Q1737.56 85.073 1740.72 91.3114 Q1743.92 97.5093 1750.24 97.5093 Q1756.6 97.5093 1759.76 91.3114 Q1762.96 85.073 1762.96 72.6368 Q1762.96 60.16 1759.76 53.9621 Q1756.6 47.7237 1750.24 47.7237 M1750.24 41.2423 Q1760.41 41.2423 1765.76 49.3036 Q1771.15 57.3243 1771.15 72.6368 Q1771.15 87.9087 1765.76 95.97 Q1760.41 103.991 1750.24 103.991 Q1740.08 103.991 1734.69 95.97 Q1729.34 87.9087 1729.34 72.6368 Q1729.34 57.3243 1734.69 49.3036 Q1740.08 41.2423 1750.24 41.2423 Z" fill="#000000" fill-rule="nonzero" fill-opacity="1" /><path clip-path="url(#clip490)" d="M1780.71 76.7687 L1802.54 76.7687 L1802.54 83.4122 L1780.71 83.4122 L1780.71 76.7687 Z" fill="#000000" fill-rule="nonzero" fill-opacity="1" /><path clip-path="url(#clip490)" d="M1843.33 58.7827 L1843.33 65.8312 Q1840.17 64.2109 1836.77 63.4007 Q1833.37 62.5905 1829.72 62.5905 Q1824.17 62.5905 1821.38 64.2919 Q1818.62 65.9933 1818.62 69.396 Q1818.62 71.9886 1820.61 73.4875 Q1822.59 74.9458 1828.59 76.2826 L1831.14 76.8497 Q1839.08 78.5511 1842.4 81.6703 Q1845.76 84.749 1845.76 90.2987 Q1845.76 96.6181 1840.74 100.304 Q1835.76 103.991 1827.01 103.991 Q1823.36 103.991 1819.39 103.262 Q1815.46 102.573 1811.09 101.155 L1811.09 93.4584 Q1815.22 95.6054 1819.23 96.6991 Q1823.24 97.7524 1827.17 97.7524 Q1832.44 97.7524 1835.27 95.97 Q1838.11 94.1471 1838.11 90.8658 Q1838.11 87.8277 1836.04 86.2073 Q1834.02 84.5869 1827.09 83.0881 L1824.5 82.4805 Q1817.57 81.0221 1814.49 78.0245 Q1811.41 74.9863 1811.41 69.7201 Q1811.41 63.3197 1815.95 59.8359 Q1820.49 56.3521 1828.83 56.3521 Q1832.96 56.3521 1836.61 56.9598 Q1840.25 57.5674 1843.33 58.7827 Z" fill="#000000" fill-rule="nonzero" fill-opacity="1" /><path clip-path="url(#clip490)" d="M1857.63 57.4459 L1865.09 57.4459 L1865.09 102.816 L1857.63 102.816 L1857.63 57.4459 M1857.63 39.7839 L1865.09 39.7839 L1865.09 49.2225 L1857.63 49.2225 L1857.63 39.7839 Z" fill="#000000" fill-rule="nonzero" fill-opacity="1" /><path clip-path="url(#clip490)" d="M1888.06 44.564 L1888.06 57.4459 L1903.41 57.4459 L1903.41 63.2387 L1888.06 63.2387 L1888.06 87.8682 Q1888.06 93.4179 1889.55 94.9978 Q1891.09 96.5776 1895.75 96.5776 L1903.41 96.5776 L1903.41 102.816 L1895.75 102.816 Q1887.12 102.816 1883.84 99.6158 Q1880.56 96.3751 1880.56 87.8682 L1880.56 63.2387 L1875.09 63.2387 L1875.09 57.4459 L1880.56 57.4459 L1880.56 44.564 L1888.06 44.564 Z" fill="#000000" fill-rule="nonzero" fill-opacity="1" /><path clip-path="url(#clip490)" d="M1952.02 78.2675 L1952.02 81.9133 L1917.75 81.9133 Q1918.23 89.6101 1922.37 93.661 Q1926.54 97.6714 1933.95 97.6714 Q1938.25 97.6714 1942.26 96.6181 Q1946.31 95.5649 1950.28 93.4584 L1950.28 100.507 Q1946.27 102.208 1942.05 103.1 Q1937.84 103.991 1933.51 103.991 Q1922.65 103.991 1916.29 97.6714 Q1909.97 91.3519 1909.97 80.5765 Q1909.97 69.4365 1915.97 62.9146 Q1922 56.3521 1932.21 56.3521 Q1941.36 56.3521 1946.67 62.2664 Q1952.02 68.1403 1952.02 78.2675 M1944.57 76.08 Q1944.48 69.9632 1941.12 66.3174 Q1937.8 62.6715 1932.29 62.6715 Q1926.05 62.6715 1922.29 66.1958 Q1918.56 69.7201 1917.99 76.1205 L1944.57 76.08 Z" fill="#000000" fill-rule="nonzero" fill-opacity="1" /><path clip-path="url(#clip490)" d="M1990.95 42.336 L1999.13 42.336 L1999.13 102.816 L1990.95 102.816 L1990.95 42.336 Z" fill="#000000" fill-rule="nonzero" fill-opacity="1" /><path clip-path="url(#clip490)" d="M2052.81 75.4319 L2052.81 102.816 L2045.35 102.816 L2045.35 75.6749 Q2045.35 69.234 2042.84 66.0338 Q2040.33 62.8336 2035.31 62.8336 Q2029.27 62.8336 2025.79 66.6819 Q2022.3 70.5303 2022.3 77.1738 L2022.3 102.816 L2014.81 102.816 L2014.81 57.4459 L2022.3 57.4459 L2022.3 64.4944 Q2024.98 60.403 2028.58 58.3776 Q2032.23 56.3521 2036.97 56.3521 Q2044.78 56.3521 2048.79 61.2132 Q2052.81 66.0338 2052.81 75.4319 Z" fill="#000000" fill-rule="nonzero" fill-opacity="1" /><path clip-path="url(#clip490)" d="M2075.04 44.564 L2075.04 57.4459 L2090.4 57.4459 L2090.4 63.2387 L2075.04 63.2387 L2075.04 87.8682 Q2075.04 93.4179 2076.54 94.9978 Q2078.08 96.5776 2082.74 96.5776 L2090.4 96.5776 L2090.4 102.816 L2082.74 102.816 Q2074.11 102.816 2070.83 99.6158 Q2067.55 96.3751 2067.55 87.8682 L2067.55 63.2387 L2062.08 63.2387 L2062.08 57.4459 L2067.55 57.4459 L2067.55 44.564 L2075.04 44.564 Z" fill="#000000" fill-rule="nonzero" fill-opacity="1" /><path clip-path="url(#clip490)" d="M2139.01 78.2675 L2139.01 81.9133 L2104.74 81.9133 Q2105.22 89.6101 2109.36 93.661 Q2113.53 97.6714 2120.94 97.6714 Q2125.24 97.6714 2129.25 96.6181 Q2133.3 95.5649 2137.27 93.4584 L2137.27 100.507 Q2133.26 102.208 2129.04 103.1 Q2124.83 103.991 2120.5 103.991 Q2109.64 103.991 2103.28 97.6714 Q2096.96 91.3519 2096.96 80.5765 Q2096.96 69.4365 2102.96 62.9146 Q2108.99 56.3521 2119.2 56.3521 Q2128.35 56.3521 2133.66 62.2664 Q2139.01 68.1403 2139.01 78.2675 M2131.55 76.08 Q2131.47 69.9632 2128.11 66.3174 Q2124.79 62.6715 2119.28 62.6715 Q2113.04 62.6715 2109.27 66.1958 Q2105.55 69.7201 2104.98 76.1205 L2131.55 76.08 Z" fill="#000000" fill-rule="nonzero" fill-opacity="1" /><path clip-path="url(#clip490)" d="M2177.53 64.4134 Q2176.28 63.6843 2174.78 63.3602 Q2173.32 62.9956 2171.54 62.9956 Q2165.22 62.9956 2161.82 67.1275 Q2158.45 71.2189 2158.45 78.9157 L2158.45 102.816 L2150.96 102.816 L2150.96 57.4459 L2158.45 57.4459 L2158.45 64.4944 Q2160.8 60.3625 2164.57 58.3776 Q2168.34 56.3521 2173.72 56.3521 Q2174.49 56.3521 2175.43 56.4737 Q2176.36 56.5547 2177.49 56.7572 L2177.53 64.4134 Z" fill="#000000" fill-rule="nonzero" fill-opacity="1" /><path clip-path="url(#clip490)" d="M2192.56 96.0105 L2192.56 120.073 L2185.07 120.073 L2185.07 57.4459 L2192.56 57.4459 L2192.56 64.3324 Q2194.91 60.2815 2198.48 58.3371 Q2202.08 56.3521 2207.06 56.3521 Q2215.33 56.3521 2220.47 62.9146 Q2225.66 69.4771 2225.66 80.1714 Q2225.66 90.8658 2220.47 97.4283 Q2215.33 103.991 2207.06 103.991 Q2202.08 103.991 2198.48 102.046 Q2194.91 100.061 2192.56 96.0105 M2217.92 80.1714 Q2217.92 71.9481 2214.52 67.2896 Q2211.16 62.5905 2205.24 62.5905 Q2199.33 62.5905 2195.92 67.2896 Q2192.56 71.9481 2192.56 80.1714 Q2192.56 88.3948 2195.92 93.0938 Q2199.33 97.7524 2205.24 97.7524 Q2211.16 97.7524 2214.52 93.0938 Q2217.92 88.3948 2217.92 80.1714 Z" fill="#000000" fill-rule="nonzero" fill-opacity="1" /><path clip-path="url(#clip490)" d="M2255.59 62.6715 Q2249.6 62.6715 2246.11 67.3706 Q2242.63 72.0291 2242.63 80.1714 Q2242.63 88.3138 2246.07 93.0128 Q2249.56 97.6714 2255.59 97.6714 Q2261.55 97.6714 2265.03 92.9723 Q2268.52 88.2733 2268.52 80.1714 Q2268.52 72.1101 2265.03 67.4111 Q2261.55 62.6715 2255.59 62.6715 M2255.59 56.3521 Q2265.32 56.3521 2270.87 62.6715 Q2276.42 68.9909 2276.42 80.1714 Q2276.42 91.3114 2270.87 97.6714 Q2265.32 103.991 2255.59 103.991 Q2245.83 103.991 2240.28 97.6714 Q2234.77 91.3114 2234.77 80.1714 Q2234.77 68.9909 2240.28 62.6715 Q2245.83 56.3521 2255.59 56.3521 Z" fill="#000000" fill-rule="nonzero" fill-opacity="1" /><path clip-path="url(#clip490)" d="M2288.77 39.7839 L2296.22 39.7839 L2296.22 102.816 L2288.77 102.816 L2288.77 39.7839 Z" fill="#000000" fill-rule="nonzero" fill-opacity="1" /><path clip-path="url(#clip490)" d="M2332.44 80.0094 Q2323.41 80.0094 2319.92 82.0754 Q2316.44 84.1413 2316.44 89.1239 Q2316.44 93.0938 2319.03 95.4434 Q2321.66 97.7524 2326.16 97.7524 Q2332.36 97.7524 2336.09 93.3774 Q2339.85 88.9619 2339.85 81.6703 L2339.85 80.0094 L2332.44 80.0094 M2347.31 76.9307 L2347.31 102.816 L2339.85 102.816 L2339.85 95.9295 Q2337.3 100.061 2333.49 102.046 Q2329.68 103.991 2324.18 103.991 Q2317.21 103.991 2313.08 100.102 Q2308.98 96.1725 2308.98 89.6101 Q2308.98 81.9538 2314.09 78.065 Q2319.23 74.1761 2329.4 74.1761 L2339.85 74.1761 L2339.85 73.4469 Q2339.85 68.3023 2336.45 65.5072 Q2333.09 62.6715 2326.97 62.6715 Q2323.08 62.6715 2319.4 63.6032 Q2315.71 64.535 2312.31 66.3984 L2312.31 59.5118 Q2316.4 57.932 2320.25 57.1623 Q2324.09 56.3521 2327.74 56.3521 Q2337.58 56.3521 2342.44 61.4563 Q2347.31 66.5604 2347.31 76.9307 Z" fill="#000000" fill-rule="nonzero" fill-opacity="1" /><path clip-path="url(#clip490)" d="M2370.03 44.564 L2370.03 57.4459 L2385.38 57.4459 L2385.38 63.2387 L2370.03 63.2387 L2370.03 87.8682 Q2370.03 93.4179 2371.53 94.9978 Q2373.07 96.5776 2377.73 96.5776 L2385.38 96.5776 L2385.38 102.816 L2377.73 102.816 Q2369.1 102.816 2365.82 99.6158 Q2362.54 96.3751 2362.54 87.8682 L2362.54 63.2387 L2357.07 63.2387 L2357.07 57.4459 L2362.54 57.4459 L2362.54 44.564 L2370.03 44.564 Z" fill="#000000" fill-rule="nonzero" fill-opacity="1" /><path clip-path="url(#clip490)" d="M2395.19 57.4459 L2402.64 57.4459 L2402.64 102.816 L2395.19 102.816 L2395.19 57.4459 M2395.19 39.7839 L2402.64 39.7839 L2402.64 49.2225 L2395.19 49.2225 L2395.19 39.7839 Z" fill="#000000" fill-rule="nonzero" fill-opacity="1" /><path clip-path="url(#clip490)" d="M2435.82 62.6715 Q2429.82 62.6715 2426.34 67.3706 Q2422.86 72.0291 2422.86 80.1714 Q2422.86 88.3138 2426.3 93.0128 Q2429.78 97.6714 2435.82 97.6714 Q2441.77 97.6714 2445.26 92.9723 Q2448.74 88.2733 2448.74 80.1714 Q2448.74 72.1101 2445.26 67.4111 Q2441.77 62.6715 2435.82 62.6715 M2435.82 56.3521 Q2445.54 56.3521 2451.09 62.6715 Q2456.64 68.9909 2456.64 80.1714 Q2456.64 91.3114 2451.09 97.6714 Q2445.54 103.991 2435.82 103.991 Q2426.06 103.991 2420.51 97.6714 Q2415 91.3114 2415 80.1714 Q2415 68.9909 2420.51 62.6715 Q2426.06 56.3521 2435.82 56.3521 Z" fill="#000000" fill-rule="nonzero" fill-opacity="1" /><path clip-path="url(#clip490)" d="M2506.71 75.4319 L2506.71 102.816 L2499.26 102.816 L2499.26 75.6749 Q2499.26 69.234 2496.74 66.0338 Q2494.23 62.8336 2489.21 62.8336 Q2483.17 62.8336 2479.69 66.6819 Q2476.21 70.5303 2476.21 77.1738 L2476.21 102.816 L2468.71 102.816 L2468.71 57.4459 L2476.21 57.4459 L2476.21 64.4944 Q2478.88 60.403 2482.48 58.3776 Q2486.13 56.3521 2490.87 56.3521 Q2498.69 56.3521 2502.7 61.2132 Q2506.71 66.0338 2506.71 75.4319 Z" fill="#000000" fill-rule="nonzero" fill-opacity="1" /><path clip-path="url(#clip490)" d="M2523.48 92.5267 L2532.03 92.5267 L2532.03 99.4943 L2525.38 112.457 L2520.16 112.457 L2523.48 99.4943 L2523.48 92.5267 Z" fill="#000000" fill-rule="nonzero" fill-opacity="1" /><path clip-path="url(#clip490)" d="M875.775 155.052 L875.775 130.504 L883.228 130.504 L883.228 193.536 L875.775 193.536 L875.775 186.73 Q873.425 190.781 869.82 192.766 Q866.255 194.711 861.232 194.711 Q853.008 194.711 847.823 188.148 Q842.679 181.586 842.679 170.891 Q842.679 160.197 847.823 153.635 Q853.008 147.072 861.232 147.072 Q866.255 147.072 869.82 149.057 Q873.425 151.002 875.775 155.052 M850.375 170.891 Q850.375 179.115 853.738 183.814 Q857.14 188.472 863.055 188.472 Q868.969 188.472 872.372 183.814 Q875.775 179.115 875.775 170.891 Q875.775 162.668 872.372 158.01 Q868.969 153.311 863.055 153.311 Q857.14 153.311 853.738 158.01 Q850.375 162.668 850.375 170.891 Z" fill="#000000" fill-rule="nonzero" fill-opacity="1" /><path clip-path="url(#clip490)" d="M925.925 155.863 L977.857 155.863 L977.857 162.668 L925.925 162.668 L925.925 155.863 M925.925 172.39 L977.857 172.39 L977.857 179.277 L925.925 179.277 L925.925 172.39 Z" fill="#000000" fill-rule="nonzero" fill-opacity="1" /><path clip-path="url(#clip490)" d="M1023.31 186.649 L1036.68 186.649 L1036.68 140.51 L1022.13 143.426 L1022.13 135.973 L1036.6 133.056 L1044.78 133.056 L1044.78 186.649 L1058.15 186.649 L1058.15 193.536 L1023.31 193.536 L1023.31 186.649 Z" fill="#000000" fill-rule="nonzero" fill-opacity="1" /><path clip-path="url(#clip490)" d="M1081.72 186.649 L1110.28 186.649 L1110.28 193.536 L1071.88 193.536 L1071.88 186.649 Q1076.54 181.829 1084.56 173.727 Q1092.62 165.585 1094.69 163.235 Q1098.61 158.82 1100.15 155.782 Q1101.73 152.703 1101.73 149.746 Q1101.73 144.925 1098.33 141.887 Q1094.97 138.849 1089.54 138.849 Q1085.69 138.849 1081.4 140.186 Q1077.15 141.522 1072.28 144.236 L1072.28 135.973 Q1077.23 133.988 1081.52 132.975 Q1085.81 131.962 1089.38 131.962 Q1098.78 131.962 1104.37 136.661 Q1109.96 141.36 1109.96 149.219 Q1109.96 152.946 1108.54 156.308 Q1107.16 159.63 1103.48 164.167 Q1102.46 165.342 1097.03 170.972 Q1091.61 176.563 1081.72 186.649 Z" fill="#000000" fill-rule="nonzero" fill-opacity="1" /><path clip-path="url(#clip490)" d="M1128.31 183.247 L1136.86 183.247 L1136.86 190.214 L1130.21 203.177 L1124.99 203.177 L1128.31 190.214 L1128.31 183.247 Z" fill="#000000" fill-rule="nonzero" fill-opacity="1" /><path clip-path="url(#clip490)" d="M1200.98 203.663 L1194.95 188.148 L1182.51 210.833 L1173.72 210.833 L1191.3 178.75 L1183.93 159.67 Q1181.94 154.566 1175.7 154.566 L1173.72 154.566 L1173.72 148.166 L1176.55 148.247 Q1187.01 148.53 1189.64 155.295 L1195.63 170.81 L1208.07 148.125 L1216.86 148.125 L1199.28 180.209 L1206.65 199.288 Q1208.64 204.392 1214.88 204.392 L1216.86 204.392 L1216.86 210.793 L1214.03 210.712 Q1203.57 210.428 1200.98 203.663 Z" fill="#000000" fill-rule="nonzero" fill-opacity="1" /><path clip-path="url(#clip490)" d="M1254.41 155.863 L1306.35 155.863 L1306.35 162.668 L1254.41 162.668 L1254.41 155.863 M1254.41 172.39 L1306.35 172.39 L1306.35 179.277 L1254.41 179.277 L1254.41 172.39 Z" fill="#000000" fill-rule="nonzero" fill-opacity="1" /><path clip-path="url(#clip490)" d="M1375.17 160.926 Q1381.04 162.182 1384.33 166.152 Q1387.65 170.122 1387.65 175.955 Q1387.65 184.908 1381.49 189.809 Q1375.33 194.711 1363.99 194.711 Q1360.18 194.711 1356.13 193.941 Q1352.12 193.212 1347.83 191.713 L1347.83 183.814 Q1351.23 185.799 1355.28 186.811 Q1359.33 187.824 1363.75 187.824 Q1371.44 187.824 1375.45 184.786 Q1379.5 181.748 1379.5 175.955 Q1379.5 170.608 1375.74 167.61 Q1372.01 164.572 1365.33 164.572 L1358.28 164.572 L1358.28 157.848 L1365.65 157.848 Q1371.69 157.848 1374.89 155.458 Q1378.09 153.027 1378.09 148.49 Q1378.09 143.831 1374.76 141.36 Q1371.48 138.849 1365.33 138.849 Q1361.96 138.849 1358.12 139.578 Q1354.27 140.307 1349.65 141.846 L1349.65 134.555 Q1354.31 133.259 1358.36 132.61 Q1362.45 131.962 1366.06 131.962 Q1375.37 131.962 1380.8 136.216 Q1386.23 140.429 1386.23 147.639 Q1386.23 152.662 1383.35 156.146 Q1380.48 159.589 1375.17 160.926 Z" fill="#000000" fill-rule="nonzero" fill-opacity="1" /><path clip-path="url(#clip490)" d="M1403.24 133.056 L1435.37 133.056 L1435.37 139.943 L1410.74 139.943 L1410.74 154.769 Q1412.52 154.161 1414.3 153.878 Q1416.08 153.554 1417.87 153.554 Q1427.99 153.554 1433.91 159.103 Q1439.82 164.653 1439.82 174.132 Q1439.82 183.895 1433.75 189.323 Q1427.67 194.711 1416.61 194.711 Q1412.8 194.711 1408.83 194.063 Q1404.9 193.414 1400.69 192.118 L1400.69 183.895 Q1404.34 185.88 1408.23 186.852 Q1412.11 187.824 1416.45 187.824 Q1423.46 187.824 1427.55 184.138 Q1431.64 180.452 1431.64 174.132 Q1431.64 167.813 1427.55 164.126 Q1423.46 160.44 1416.45 160.44 Q1413.17 160.44 1409.89 161.169 Q1406.65 161.898 1403.24 163.438 L1403.24 133.056 Z" fill="#000000" fill-rule="nonzero" fill-opacity="1" /><path clip-path="url(#clip490)" d="M1456.8 183.247 L1465.34 183.247 L1465.34 190.214 L1458.7 203.177 L1453.47 203.177 L1456.8 190.214 L1456.8 183.247 Z" fill="#000000" fill-rule="nonzero" fill-opacity="1" /><path clip-path="url(#clip490)" d="M1507.96 133.056 L1516.14 133.056 L1516.14 186.649 L1545.59 186.649 L1545.59 193.536 L1507.96 193.536 L1507.96 133.056 Z" fill="#000000" fill-rule="nonzero" fill-opacity="1" /><path clip-path="url(#clip490)" d="M1591.2 168.988 L1591.2 172.633 L1556.93 172.633 Q1557.42 180.33 1561.55 184.381 Q1565.72 188.391 1573.14 188.391 Q1577.43 188.391 1581.44 187.338 Q1585.49 186.285 1589.46 184.178 L1589.46 191.227 Q1585.45 192.928 1581.24 193.82 Q1577.03 194.711 1572.69 194.711 Q1561.84 194.711 1555.48 188.391 Q1549.16 182.072 1549.16 171.297 Q1549.16 160.157 1555.15 153.635 Q1561.19 147.072 1571.4 147.072 Q1580.55 147.072 1585.86 152.986 Q1591.2 158.86 1591.2 168.988 M1583.75 166.8 Q1583.67 160.683 1580.31 157.037 Q1576.99 153.392 1571.48 153.392 Q1565.24 153.392 1561.47 156.916 Q1557.74 160.44 1557.18 166.841 L1583.75 166.8 Z" fill="#000000" fill-rule="nonzero" fill-opacity="1" /><path clip-path="url(#clip490)" d="M1633.29 170.324 Q1633.29 162.223 1629.93 157.767 Q1626.61 153.311 1620.57 153.311 Q1614.58 153.311 1611.22 157.767 Q1607.89 162.223 1607.89 170.324 Q1607.89 178.386 1611.22 182.842 Q1614.58 187.298 1620.57 187.298 Q1626.61 187.298 1629.93 182.842 Q1633.29 178.386 1633.29 170.324 M1640.75 187.905 Q1640.75 199.491 1635.6 205.122 Q1630.46 210.793 1619.84 210.793 Q1615.92 210.793 1612.43 210.185 Q1608.95 209.618 1605.67 208.403 L1605.67 201.152 Q1608.95 202.934 1612.15 203.785 Q1615.35 204.635 1618.67 204.635 Q1626 204.635 1629.65 200.787 Q1633.29 196.979 1633.29 189.242 L1633.29 185.556 Q1630.98 189.566 1627.38 191.551 Q1623.77 193.536 1618.75 193.536 Q1610.41 193.536 1605.3 187.176 Q1600.2 180.816 1600.2 170.324 Q1600.2 159.792 1605.3 153.432 Q1610.41 147.072 1618.75 147.072 Q1623.77 147.072 1627.38 149.057 Q1630.98 151.042 1633.29 155.052 L1633.29 148.166 L1640.75 148.166 L1640.75 187.905 Z" fill="#000000" fill-rule="nonzero" fill-opacity="1" /><path clip-path="url(#clip490)" d="M1694.91 168.988 L1694.91 172.633 L1660.64 172.633 Q1661.12 180.33 1665.26 184.381 Q1669.43 188.391 1676.84 188.391 Q1681.13 188.391 1685.15 187.338 Q1689.2 186.285 1693.17 184.178 L1693.17 191.227 Q1689.16 192.928 1684.94 193.82 Q1680.73 194.711 1676.4 194.711 Q1665.54 194.711 1659.18 188.391 Q1652.86 182.072 1652.86 171.297 Q1652.86 160.157 1658.85 153.635 Q1664.89 147.072 1675.1 147.072 Q1684.25 147.072 1689.56 152.986 Q1694.91 158.86 1694.91 168.988 M1687.45 166.8 Q1687.37 160.683 1684.01 157.037 Q1680.69 153.392 1675.18 153.392 Q1668.94 153.392 1665.17 156.916 Q1661.45 160.44 1660.88 166.841 L1687.45 166.8 Z" fill="#000000" fill-rule="nonzero" fill-opacity="1" /><path clip-path="url(#clip490)" d="M1744.86 166.152 L1744.86 193.536 L1737.4 193.536 L1737.4 166.395 Q1737.4 159.954 1734.89 156.754 Q1732.38 153.554 1727.36 153.554 Q1721.32 153.554 1717.84 157.402 Q1714.35 161.25 1714.35 167.894 L1714.35 193.536 L1706.86 193.536 L1706.86 148.166 L1714.35 148.166 L1714.35 155.214 Q1717.03 151.123 1720.63 149.098 Q1724.28 147.072 1729.02 147.072 Q1736.83 147.072 1740.85 151.933 Q1744.86 156.754 1744.86 166.152 Z" fill="#000000" fill-rule="nonzero" fill-opacity="1" /><path clip-path="url(#clip490)" d="M1789.58 155.052 L1789.58 130.504 L1797.03 130.504 L1797.03 193.536 L1789.58 193.536 L1789.58 186.73 Q1787.23 190.781 1783.62 192.766 Q1780.06 194.711 1775.03 194.711 Q1766.81 194.711 1761.63 188.148 Q1756.48 181.586 1756.48 170.891 Q1756.48 160.197 1761.63 153.635 Q1766.81 147.072 1775.03 147.072 Q1780.06 147.072 1783.62 149.057 Q1787.23 151.002 1789.58 155.052 M1764.18 170.891 Q1764.18 179.115 1767.54 183.814 Q1770.94 188.472 1776.86 188.472 Q1782.77 188.472 1786.17 183.814 Q1789.58 179.115 1789.58 170.891 Q1789.58 162.668 1786.17 158.01 Q1782.77 153.311 1776.86 153.311 Q1770.94 153.311 1767.54 158.01 Q1764.18 162.668 1764.18 170.891 Z" fill="#000000" fill-rule="nonzero" fill-opacity="1" /><path clip-path="url(#clip490)" d="M1838.67 155.133 Q1837.42 154.404 1835.92 154.08 Q1834.46 153.716 1832.68 153.716 Q1826.36 153.716 1822.96 157.848 Q1819.59 161.939 1819.59 169.636 L1819.59 193.536 L1812.1 193.536 L1812.1 148.166 L1819.59 148.166 L1819.59 155.214 Q1821.94 151.083 1825.71 149.098 Q1829.48 147.072 1834.87 147.072 Q1835.64 147.072 1836.57 147.194 Q1837.5 147.275 1838.63 147.477 L1838.67 155.133 Z" fill="#000000" fill-rule="nonzero" fill-opacity="1" /><path clip-path="url(#clip490)" d="M1883.48 168.988 L1883.48 172.633 L1849.21 172.633 Q1849.69 180.33 1853.82 184.381 Q1858 188.391 1865.41 188.391 Q1869.7 188.391 1873.71 187.338 Q1877.77 186.285 1881.74 184.178 L1881.74 191.227 Q1877.73 192.928 1873.51 193.82 Q1869.3 194.711 1864.96 194.711 Q1854.11 194.711 1847.75 188.391 Q1841.43 182.072 1841.43 171.297 Q1841.43 160.157 1847.42 153.635 Q1853.46 147.072 1863.67 147.072 Q1872.82 147.072 1878.13 152.986 Q1883.48 158.86 1883.48 168.988 M1876.02 166.8 Q1875.94 160.683 1872.58 157.037 Q1869.26 153.392 1863.75 153.392 Q1857.51 153.392 1853.74 156.916 Q1850.02 160.44 1849.45 166.841 L1876.02 166.8 Z" fill="#000000" fill-rule="nonzero" fill-opacity="1" /><path clip-path="url(#clip490)" d="M1930.18 207.309 L1930.18 213.102 L1887.08 213.102 L1887.08 207.309 L1930.18 207.309 Z" fill="#000000" fill-rule="nonzero" fill-opacity="1" /><path clip-path="url(#clip490)" d="M1937.52 133.056 L1948.54 133.056 L1975.35 183.652 L1975.35 133.056 L1983.29 133.056 L1983.29 193.536 L1972.27 193.536 L1945.46 142.94 L1945.46 193.536 L1937.52 193.536 L1937.52 133.056 Z" fill="#000000" fill-rule="nonzero" fill-opacity="1" /><path clip-path="url(#clip490)" d="M2016.83 153.392 Q2010.84 153.392 2007.35 158.091 Q2003.87 162.749 2003.87 170.891 Q2003.87 179.034 2007.31 183.733 Q2010.8 188.391 2016.83 188.391 Q2022.79 188.391 2026.27 183.692 Q2029.76 178.993 2029.76 170.891 Q2029.76 162.83 2026.27 158.131 Q2022.79 153.392 2016.83 153.392 M2016.83 147.072 Q2026.56 147.072 2032.11 153.392 Q2037.65 159.711 2037.65 170.891 Q2037.65 182.031 2032.11 188.391 Q2026.56 194.711 2016.83 194.711 Q2007.07 194.711 2001.52 188.391 Q1996.01 182.031 1996.01 170.891 Q1996.01 159.711 2001.52 153.392 Q2007.07 147.072 2016.83 147.072 Z" fill="#000000" fill-rule="nonzero" fill-opacity="1" /><path clip-path="url(#clip490)" d="M2084.48 207.309 L2084.48 213.102 L2041.38 213.102 L2041.38 207.309 L2084.48 207.309 Z" fill="#000000" fill-rule="nonzero" fill-opacity="1" /><path clip-path="url(#clip490)" d="M2091.82 133.056 L2102.83 133.056 L2129.65 183.652 L2129.65 133.056 L2137.59 133.056 L2137.59 193.536 L2126.57 193.536 L2099.76 142.94 L2099.76 193.536 L2091.82 193.536 L2091.82 133.056 Z" fill="#000000" fill-rule="nonzero" fill-opacity="1" /><path clip-path="url(#clip490)" d="M2171.13 153.392 Q2165.14 153.392 2161.65 158.091 Q2158.17 162.749 2158.17 170.891 Q2158.17 179.034 2161.61 183.733 Q2165.1 188.391 2171.13 188.391 Q2177.09 188.391 2180.57 183.692 Q2184.05 178.993 2184.05 170.891 Q2184.05 162.83 2180.57 158.131 Q2177.09 153.392 2171.13 153.392 M2171.13 147.072 Q2180.85 147.072 2186.4 153.392 Q2191.95 159.711 2191.95 170.891 Q2191.95 182.031 2186.4 188.391 Q2180.85 194.711 2171.13 194.711 Q2161.37 194.711 2155.82 188.391 Q2150.31 182.031 2150.31 170.891 Q2150.31 159.711 2155.82 153.392 Q2161.37 147.072 2171.13 147.072 Z" fill="#000000" fill-rule="nonzero" fill-opacity="1" /><path clip-path="url(#clip490)" d="M2230.6 155.133 Q2229.34 154.404 2227.84 154.08 Q2226.39 153.716 2224.6 153.716 Q2218.28 153.716 2214.88 157.848 Q2211.52 161.939 2211.52 169.636 L2211.52 193.536 L2204.03 193.536 L2204.03 148.166 L2211.52 148.166 L2211.52 155.214 Q2213.87 151.083 2217.64 149.098 Q2221.4 147.072 2226.79 147.072 Q2227.56 147.072 2228.49 147.194 Q2229.42 147.275 2230.56 147.477 L2230.6 155.133 Z" fill="#000000" fill-rule="nonzero" fill-opacity="1" /><path clip-path="url(#clip490)" d="M2272.28 156.875 Q2275.08 151.852 2278.97 149.462 Q2282.86 147.072 2288.12 147.072 Q2295.21 147.072 2299.06 152.055 Q2302.91 156.997 2302.91 166.152 L2302.91 193.536 L2295.41 193.536 L2295.41 166.395 Q2295.41 159.873 2293.1 156.713 Q2290.8 153.554 2286.06 153.554 Q2280.26 153.554 2276.9 157.402 Q2273.54 161.25 2273.54 167.894 L2273.54 193.536 L2266.04 193.536 L2266.04 166.395 Q2266.04 159.832 2263.74 156.713 Q2261.43 153.554 2256.61 153.554 Q2250.89 153.554 2247.53 157.442 Q2244.17 161.291 2244.17 167.894 L2244.17 193.536 L2236.68 193.536 L2236.68 148.166 L2244.17 148.166 L2244.17 155.214 Q2246.72 151.042 2250.29 149.057 Q2253.85 147.072 2258.75 147.072 Q2263.7 147.072 2267.14 149.584 Q2270.62 152.095 2272.28 156.875 Z" fill="#000000" fill-rule="nonzero" fill-opacity="1" /><path clip-path="url(#clip490)" d="M2382.95 168.988 L2382.95 172.633 L2348.68 172.633 Q2349.17 180.33 2353.3 184.381 Q2357.47 188.391 2364.89 188.391 Q2369.18 188.391 2373.19 187.338 Q2377.24 186.285 2381.21 184.178 L2381.21 191.227 Q2377.2 192.928 2372.99 193.82 Q2368.78 194.711 2364.44 194.711 Q2353.58 194.711 2347.23 188.391 Q2340.91 182.072 2340.91 171.297 Q2340.91 160.157 2346.9 153.635 Q2352.94 147.072 2363.15 147.072 Q2372.3 147.072 2377.61 152.986 Q2382.95 158.86 2382.95 168.988 M2375.5 166.8 Q2375.42 160.683 2372.06 157.037 Q2368.74 153.392 2363.23 153.392 Q2356.99 153.392 2353.22 156.916 Q2349.49 160.44 2348.93 166.841 L2375.5 166.8 Z" fill="#000000" fill-rule="nonzero" fill-opacity="1" /><path clip-path="url(#clip490)" d="M2432.9 166.152 L2432.9 193.536 L2425.45 193.536 L2425.45 166.395 Q2425.45 159.954 2422.94 156.754 Q2420.42 153.554 2415.4 153.554 Q2409.37 153.554 2405.88 157.402 Q2402.4 161.25 2402.4 167.894 L2402.4 193.536 L2394.9 193.536 L2394.9 148.166 L2402.4 148.166 L2402.4 155.214 Q2405.07 151.123 2408.68 149.098 Q2412.32 147.072 2417.06 147.072 Q2424.88 147.072 2428.89 151.933 Q2432.9 156.754 2432.9 166.152 Z" fill="#000000" fill-rule="nonzero" fill-opacity="1" /><path clip-path="url(#clip490)" d="M2480.42 149.908 L2480.42 156.875 Q2477.26 155.133 2474.06 154.283 Q2470.9 153.392 2467.66 153.392 Q2460.41 153.392 2456.4 158.01 Q2452.39 162.587 2452.39 170.891 Q2452.39 179.196 2456.4 183.814 Q2460.41 188.391 2467.66 188.391 Q2470.9 188.391 2474.06 187.541 Q2477.26 186.649 2480.42 184.908 L2480.42 191.794 Q2477.3 193.252 2473.94 193.982 Q2470.62 194.711 2466.85 194.711 Q2456.6 194.711 2450.56 188.27 Q2444.53 181.829 2444.53 170.891 Q2444.53 159.792 2450.6 153.432 Q2456.72 147.072 2467.33 147.072 Q2470.78 147.072 2474.06 147.801 Q2477.34 148.49 2480.42 149.908 Z" fill="#000000" fill-rule="nonzero" fill-opacity="1" /><path clip-path="url(#clip490)" d="M2510.96 153.392 Q2504.97 153.392 2501.48 158.091 Q2498 162.749 2498 170.891 Q2498 179.034 2501.44 183.733 Q2504.93 188.391 2510.96 188.391 Q2516.92 188.391 2520.4 183.692 Q2523.88 178.993 2523.88 170.891 Q2523.88 162.83 2520.4 158.131 Q2516.92 153.392 2510.96 153.392 M2510.96 147.072 Q2520.68 147.072 2526.23 153.392 Q2531.78 159.711 2531.78 170.891 Q2531.78 182.031 2526.23 188.391 Q2520.68 194.711 2510.96 194.711 Q2501.2 194.711 2495.65 188.391 Q2490.14 182.031 2490.14 170.891 Q2490.14 159.711 2495.65 153.392 Q2501.2 147.072 2510.96 147.072 Z" fill="#000000" fill-rule="nonzero" fill-opacity="1" /><path clip-path="url(#clip490)" d="M2573.99 155.052 L2573.99 130.504 L2581.45 130.504 L2581.45 193.536 L2573.99 193.536 L2573.99 186.73 Q2571.65 190.781 2568.04 192.766 Q2564.48 194.711 2559.45 194.711 Q2551.23 194.711 2546.04 188.148 Q2540.9 181.586 2540.9 170.891 Q2540.9 160.197 2546.04 153.635 Q2551.23 147.072 2559.45 147.072 Q2564.48 147.072 2568.04 149.057 Q2571.65 151.002 2573.99 155.052 M2548.6 170.891 Q2548.6 179.115 2551.96 183.814 Q2555.36 188.472 2561.27 188.472 Q2567.19 188.472 2570.59 183.814 Q2573.99 179.115 2573.99 170.891 Q2573.99 162.668 2570.59 158.01 Q2567.19 153.311 2561.27 153.311 Q2555.36 153.311 2551.96 158.01 Q2548.6 162.668 2548.6 170.891 Z" fill="#000000" fill-rule="nonzero" fill-opacity="1" /><path clip-path="url(#clip490)" d="M2596.8 148.166 L2604.25 148.166 L2604.25 193.536 L2596.8 193.536 L2596.8 148.166 M2596.8 130.504 L2604.25 130.504 L2604.25 139.943 L2596.8 139.943 L2596.8 130.504 Z" fill="#000000" fill-rule="nonzero" fill-opacity="1" /><path clip-path="url(#clip490)" d="M2657.56 166.152 L2657.56 193.536 L2650.11 193.536 L2650.11 166.395 Q2650.11 159.954 2647.6 156.754 Q2645.09 153.554 2640.06 153.554 Q2634.03 153.554 2630.55 157.402 Q2627.06 161.25 2627.06 167.894 L2627.06 193.536 L2619.57 193.536 L2619.57 148.166 L2627.06 148.166 L2627.06 155.214 Q2629.74 151.123 2633.34 149.098 Q2636.99 147.072 2641.73 147.072 Q2649.54 147.072 2653.55 151.933 Q2657.56 156.754 2657.56 166.152 Z" fill="#000000" fill-rule="nonzero" fill-opacity="1" /><path clip-path="url(#clip490)" d="M2702.29 170.324 Q2702.29 162.223 2698.92 157.767 Q2695.6 153.311 2689.57 153.311 Q2683.57 153.311 2680.21 157.767 Q2676.89 162.223 2676.89 170.324 Q2676.89 178.386 2680.21 182.842 Q2683.57 187.298 2689.57 187.298 Q2695.6 187.298 2698.92 182.842 Q2702.29 178.386 2702.29 170.324 M2709.74 187.905 Q2709.74 199.491 2704.6 205.122 Q2699.45 210.793 2688.84 210.793 Q2684.91 210.793 2681.42 210.185 Q2677.94 209.618 2674.66 208.403 L2674.66 201.152 Q2677.94 202.934 2681.14 203.785 Q2684.34 204.635 2687.66 204.635 Q2695 204.635 2698.64 200.787 Q2702.29 196.979 2702.29 189.242 L2702.29 185.556 Q2699.98 189.566 2696.37 191.551 Q2692.77 193.536 2687.74 193.536 Q2679.4 193.536 2674.3 187.176 Q2669.19 180.816 2669.19 170.324 Q2669.19 159.792 2674.3 153.432 Q2679.4 147.072 2687.74 147.072 Q2692.77 147.072 2696.37 149.057 Q2699.98 151.042 2702.29 155.052 L2702.29 148.166 L2709.74 148.166 L2709.74 187.905 Z" fill="#000000" fill-rule="nonzero" fill-opacity="1" /><path clip-path="url(#clip490)" d="M2727 183.247 L2735.54 183.247 L2735.54 190.214 L2728.9 203.177 L2723.68 203.177 L2727 190.214 L2727 183.247 Z" fill="#000000" fill-rule="nonzero" fill-opacity="1" /><path clip-path="url(#clip490)" d="M1569.17 223.776 L1607.41 223.776 L1607.41 230.663 L1577.35 230.663 L1577.35 248.568 L1606.15 248.568 L1606.15 255.454 L1577.35 255.454 L1577.35 277.369 L1608.14 277.369 L1608.14 284.256 L1569.17 284.256 L1569.17 223.776 Z" fill="#000000" fill-rule="nonzero" fill-opacity="1" /><path clip-path="url(#clip490)" d="M1658.98 238.886 L1642.57 260.963 L1659.83 284.256 L1651.04 284.256 L1637.83 266.432 L1624.62 284.256 L1615.83 284.256 L1633.46 260.518 L1617.33 238.886 L1626.12 238.886 L1638.15 255.049 L1650.19 238.886 L1658.98 238.886 Z" fill="#000000" fill-rule="nonzero" fill-opacity="1" /><path clip-path="url(#clip490)" d="M1677.57 277.45 L1677.57 301.513 L1670.08 301.513 L1670.08 238.886 L1677.57 238.886 L1677.57 245.772 Q1679.92 241.722 1683.48 239.777 Q1687.09 237.792 1692.07 237.792 Q1700.34 237.792 1705.48 244.355 Q1710.67 250.917 1710.67 261.611 Q1710.67 272.306 1705.48 278.868 Q1700.34 285.431 1692.07 285.431 Q1687.09 285.431 1683.48 283.486 Q1679.92 281.501 1677.57 277.45 M1702.93 261.611 Q1702.93 253.388 1699.53 248.73 Q1696.16 244.031 1690.25 244.031 Q1684.34 244.031 1680.93 248.73 Q1677.57 253.388 1677.57 261.611 Q1677.57 269.835 1680.93 274.534 Q1684.34 279.192 1690.25 279.192 Q1696.16 279.192 1699.53 274.534 Q1702.93 269.835 1702.93 261.611 Z" fill="#000000" fill-rule="nonzero" fill-opacity="1" /><path clip-path="url(#clip490)" d="M1761.83 259.708 L1761.83 263.353 L1727.56 263.353 Q1728.04 271.05 1732.18 275.101 Q1736.35 279.111 1743.76 279.111 Q1748.06 279.111 1752.07 278.058 Q1756.12 277.005 1760.09 274.898 L1760.09 281.947 Q1756.08 283.648 1751.86 284.54 Q1747.65 285.431 1743.32 285.431 Q1732.46 285.431 1726.1 279.111 Q1719.78 272.792 1719.78 262.017 Q1719.78 250.877 1725.78 244.355 Q1731.81 237.792 1742.02 237.792 Q1751.17 237.792 1756.48 243.706 Q1761.83 249.58 1761.83 259.708 M1754.38 257.52 Q1754.29 251.403 1750.93 247.757 Q1747.61 244.112 1742.1 244.112 Q1735.86 244.112 1732.1 247.636 Q1728.37 251.16 1727.8 257.561 L1754.38 257.52 Z" fill="#000000" fill-rule="nonzero" fill-opacity="1" /><path clip-path="url(#clip490)" d="M1806.71 240.628 L1806.71 247.595 Q1803.55 245.853 1800.35 245.003 Q1797.19 244.112 1793.95 244.112 Q1786.7 244.112 1782.69 248.73 Q1778.68 253.307 1778.68 261.611 Q1778.68 269.916 1782.69 274.534 Q1786.7 279.111 1793.95 279.111 Q1797.19 279.111 1800.35 278.261 Q1803.55 277.369 1806.71 275.628 L1806.71 282.514 Q1803.59 283.972 1800.23 284.702 Q1796.91 285.431 1793.14 285.431 Q1782.89 285.431 1776.86 278.99 Q1770.82 272.549 1770.82 261.611 Q1770.82 250.512 1776.9 244.152 Q1783.02 237.792 1793.63 237.792 Q1797.07 237.792 1800.35 238.521 Q1803.63 239.21 1806.71 240.628 Z" fill="#000000" fill-rule="nonzero" fill-opacity="1" /><path clip-path="url(#clip490)" d="M1827.05 226.004 L1827.05 238.886 L1842.4 238.886 L1842.4 244.679 L1827.05 244.679 L1827.05 269.308 Q1827.05 274.858 1828.55 276.438 Q1830.09 278.018 1834.75 278.018 L1842.4 278.018 L1842.4 284.256 L1834.75 284.256 Q1826.12 284.256 1822.84 281.056 Q1819.55 277.815 1819.55 269.308 L1819.55 244.679 L1814.09 244.679 L1814.09 238.886 L1819.55 238.886 L1819.55 226.004 L1827.05 226.004 Z" fill="#000000" fill-rule="nonzero" fill-opacity="1" /><path clip-path="url(#clip490)" d="M1872.82 261.449 Q1863.79 261.449 1860.31 263.515 Q1856.82 265.581 1856.82 270.564 Q1856.82 274.534 1859.42 276.883 Q1862.05 279.192 1866.54 279.192 Q1872.74 279.192 1876.47 274.817 Q1880.24 270.402 1880.24 263.11 L1880.24 261.449 L1872.82 261.449 M1887.69 258.371 L1887.69 284.256 L1880.24 284.256 L1880.24 277.369 Q1877.68 281.501 1873.88 283.486 Q1870.07 285.431 1864.56 285.431 Q1857.59 285.431 1853.46 281.542 Q1849.37 277.613 1849.37 271.05 Q1849.37 263.394 1854.47 259.505 Q1859.62 255.616 1869.79 255.616 L1880.24 255.616 L1880.24 254.887 Q1880.24 249.742 1876.83 246.947 Q1873.47 244.112 1867.35 244.112 Q1863.47 244.112 1859.78 245.043 Q1856.09 245.975 1852.69 247.838 L1852.69 240.952 Q1856.78 239.372 1860.63 238.602 Q1864.48 237.792 1868.12 237.792 Q1877.97 237.792 1882.83 242.896 Q1887.69 248 1887.69 258.371 Z" fill="#000000" fill-rule="nonzero" fill-opacity="1" /><path clip-path="url(#clip490)" d="M1910.42 226.004 L1910.42 238.886 L1925.77 238.886 L1925.77 244.679 L1910.42 244.679 L1910.42 269.308 Q1910.42 274.858 1911.91 276.438 Q1913.45 278.018 1918.11 278.018 L1925.77 278.018 L1925.77 284.256 L1918.11 284.256 Q1909.48 284.256 1906.2 281.056 Q1902.92 277.815 1902.92 269.308 L1902.92 244.679 L1897.45 244.679 L1897.45 238.886 L1902.92 238.886 L1902.92 226.004 L1910.42 226.004 Z" fill="#000000" fill-rule="nonzero" fill-opacity="1" /><path clip-path="url(#clip490)" d="M1935.57 238.886 L1943.03 238.886 L1943.03 284.256 L1935.57 284.256 L1935.57 238.886 M1935.57 221.224 L1943.03 221.224 L1943.03 230.663 L1935.57 230.663 L1935.57 221.224 Z" fill="#000000" fill-rule="nonzero" fill-opacity="1" /><path clip-path="url(#clip490)" d="M1976.2 244.112 Q1970.21 244.112 1966.72 248.811 Q1963.24 253.469 1963.24 261.611 Q1963.24 269.754 1966.68 274.453 Q1970.17 279.111 1976.2 279.111 Q1982.16 279.111 1985.64 274.412 Q1989.13 269.713 1989.13 261.611 Q1989.13 253.55 1985.64 248.851 Q1982.16 244.112 1976.2 244.112 M1976.2 237.792 Q1985.92 237.792 1991.47 244.112 Q1997.02 250.431 1997.02 261.611 Q1997.02 272.751 1991.47 279.111 Q1985.92 285.431 1976.2 285.431 Q1966.44 285.431 1960.89 279.111 Q1955.38 272.751 1955.38 261.611 Q1955.38 250.431 1960.89 244.112 Q1966.44 237.792 1976.2 237.792 Z" fill="#000000" fill-rule="nonzero" fill-opacity="1" /><path clip-path="url(#clip490)" d="M2047.09 256.872 L2047.09 284.256 L2039.64 284.256 L2039.64 257.115 Q2039.64 250.674 2037.13 247.474 Q2034.62 244.274 2029.59 244.274 Q2023.56 244.274 2020.07 248.122 Q2016.59 251.97 2016.59 258.614 L2016.59 284.256 L2009.1 284.256 L2009.1 238.886 L2016.59 238.886 L2016.59 245.934 Q2019.26 241.843 2022.87 239.818 Q2026.51 237.792 2031.25 237.792 Q2039.07 237.792 2043.08 242.653 Q2047.09 247.474 2047.09 256.872 Z" fill="#000000" fill-rule="nonzero" fill-opacity="1" /><path clip-path="url(#clip492)" d="M402.104 1377.08 L428.296 1246.27 L454.487 1126.17 L480.678 1028.71 L506.87 945.778 L533.061 869.826 L559.252 798.092 L585.443 725.04 L611.635 659.748 L637.826 592.521 L664.017 548.958 L690.209 524.635 L716.4 519.638 L742.591 520.866 L768.783 514.788 L794.974 508.746 L821.165 514.083 L847.357 451.132 L873.548 408.836 L899.739 555.534 L925.93 1236.06 L952.122 1645.03 L978.313 1574.66 L1004.5 1430.34 L1030.7 1320.13 L1056.89 1218.88 L1083.08 1094.65 L1109.27 1071.16 L1135.46 938.823 L1161.65 927.258 L1187.84 802.666 L1214.03 785.315 L1240.23 752.468 L1266.42 606.138 L1292.61 622.509 L1318.8 621.139 L1344.99 641.369 L1371.18 674.364 L1397.37 651.588 L1423.57 699.66 L1449.76 630.223 L1475.95 584.457 L1502.14 1081.66 L1528.33 1652.47 L1554.52 1731.36 L1580.71 1573.77 L1606.9 1436.69 L1633.1 1322.83 L1659.29 1219.44 L1685.48 1097.79 L1711.67 1070.85 L1737.86 953.291 L1764.05 922.092 L1790.24 836.043 L1816.43 784.33 L1842.63 749.811 L1868.82 604.154 L1895.01 628.917 L1921.2 627.802 L1947.39 625.685 L1973.58 664.481 L1999.77 645.228 L2025.97 699.179 L2052.16 637.57 L2078.35 554.687 L2104.54 984.491 L2130.73 1637.1 L2156.92 1733.84 L2183.11 1571.81 L2209.3 1435.67 L2235.5 1317.79 L2261.69 1218.31 L2287.88 1037.72 L2314.07 951.02 L2340.26 880.365 L2366.45 801.697 L2392.64 754.177 L2418.83 663.333 L2445.03 601.154 L2471.22 554.048 L2497.41 530.109 L2523.6 520.087 L2549.79 525.359 L2575.98 519.999 L2602.17 508.146 L2628.37 544.609 L2654.56 463.824 L2680.75 407.816 L2706.94 517.28 L2733.13 1155.86 L2759.32 1629.97 L2785.51 1553.94 L2811.7 1400.58 L2837.9 1261.24 L2864.09 1142.91 L2890.28 1039.7 L2916.47 946.787 L2942.66 873.807 L2968.85 802.658 L2995.04 738.463 L2995.04 738.463 L2968.85 802.658 L2942.66 873.807 L2916.47 946.787 L2890.28 1039.7 L2864.09 1142.91 L2837.9 1261.24 L2811.7 1400.58 L2785.51 1553.94 L2759.32 1629.97 L2733.13 1155.86 L2706.94 517.28 L2680.75 407.816 L2654.56 463.824 L2628.37 544.609 L2602.17 508.146 L2575.98 519.999 L2549.79 525.359 L2523.6 520.087 L2497.41 530.109 L2471.22 554.048 L2445.03 601.154 L2418.83 663.333 L2392.64 754.177 L2366.45 801.697 L2340.26 880.365 L2314.07 951.02 L2287.88 1037.72 L2261.69 975.643 L2235.5 1072.32 L2209.3 1150.05 L2183.11 1328.41 L2156.92 1392.57 L2130.73 1342.75 L2104.54 728.295 L2078.35 362.857 L2052.16 308.799 L2025.97 386.571 L1999.77 433.714 L1973.58 419.972 L1947.39 449.436 L1921.2 447.599 L1895.01 446.622 L1868.82 477.746 L1842.63 468.066 L1816.43 524.173 L1790.24 587.438 L1764.05 657.871 L1737.86 715.129 L1711.67 805.118 L1685.48 846.683 L1659.29 974.836 L1633.1 1080.35 L1606.9 1145.95 L1580.71 1328.88 L1554.52 1387.38 L1528.33 1384.91 L1502.14 774.003 L1475.95 357.916 L1449.76 304.932 L1423.57 374.374 L1397.37 428.976 L1371.18 413.373 L1344.99 437.44 L1318.8 453.889 L1292.61 455.047 L1266.42 476.801 L1240.23 469.188 L1214.03 521.771 L1187.84 579.71 L1161.65 651.309 L1135.46 709.114 L1109.27 805.153 L1083.08 844.194 L1056.89 974.752 L1030.7 1072.29 L1004.5 1133.35 L978.313 1304.8 L952.122 1645.03 L925.93 1236.06 L899.739 555.534 L873.548 408.836 L847.357 451.132 L821.165 514.083 L794.974 508.746 L768.783 514.788 L742.591 520.866 L716.4 519.638 L690.209 524.635 L664.017 548.958 L637.826 592.521 L611.635 659.748 L585.443 725.04 L559.252 798.092 L533.061 869.826 L506.87 945.778 L480.678 1028.71 L454.487 1126.17 L428.296 1246.27 L402.104 1377.08  Z" fill="#009af9" fill-rule="evenodd" fill-opacity="0.5"/>
<polyline clip-path="url(#clip492)" style="stroke:#009af9; stroke-linecap:round; stroke-linejoin:round; stroke-width:8; stroke-opacity:0.8; fill:none" stroke-dasharray="4, 8" points="402.104,1377.08 428.296,1246.27 454.487,1126.17 480.678,1028.71 506.87,945.778 533.061,869.826 559.252,798.092 585.443,725.04 611.635,659.748 637.826,592.521 664.017,548.958 690.209,524.635 716.4,519.638 742.591,520.866 768.783,514.788 794.974,508.746 821.165,514.083 847.357,451.132 873.548,408.836 899.739,555.534 925.93,1236.06 952.122,1645.03 978.313,1439.73 1004.5,1281.85 1030.7,1196.21 1056.89,1096.82 1083.08,969.42 1109.27,938.156 1135.46,823.968 1161.65,789.283 1187.84,691.188 1214.03,653.543 1240.23,610.828 1266.42,541.469 1292.61,538.778 1318.8,537.514 1344.99,539.404 1371.18,543.868 1397.37,540.282 1423.57,537.017 1449.76,467.577 1475.95,471.187 1502.14,927.831 1528.33,1518.69 1554.52,1559.37 1580.71,1451.32 1606.9,1291.32 1633.1,1201.59 1659.29,1097.14 1685.48,972.237 1711.67,937.986 1737.86,834.21 1764.05,789.982 1790.24,711.741 1816.43,654.251 1842.63,608.939 1868.82,540.95 1895.01,537.769 1921.2,537.7 1947.39,537.56 1973.58,542.227 1999.77,539.471 2025.97,542.875 2052.16,473.185 2078.35,458.772 2104.54,856.393 2130.73,1489.92 2156.92,1563.2 2183.11,1450.11 2209.3,1292.86 2235.5,1195.06 2261.69,1096.98 2287.88,1037.72 2314.07,951.02 2340.26,880.365 2366.45,801.697 2392.64,754.177 2418.83,663.333 2445.03,601.154 2471.22,554.048 2497.41,530.109 2523.6,520.087 2549.79,525.359 2575.98,519.999 2602.17,508.146 2628.37,544.609 2654.56,463.824 2680.75,407.816 2706.94,517.28 2733.13,1155.86 2759.32,1629.97 2785.51,1553.94 2811.7,1400.58 2837.9,1261.24 2864.09,1142.91 2890.28,1039.7 2916.47,946.787 2942.66,873.807 2968.85,802.658 2995.04,738.463 "/>
<polyline clip-path="url(#clip492)" style="stroke:#ffa500; stroke-linecap:round; stroke-linejoin:round; stroke-width:8; stroke-opacity:0.7; fill:none" points="402.104,1377.08 428.296,1246.27 454.487,1126.17 480.678,1028.71 506.87,945.778 533.061,869.826 559.252,798.092 585.443,725.04 611.635,659.748 637.826,592.521 664.017,548.958 690.209,524.635 716.4,519.638 742.591,520.866 768.783,514.788 794.974,508.746 821.165,514.083 847.357,451.132 873.548,408.836 899.739,555.534 925.93,1236.06 952.122,1645.03 978.313,1537.62 1004.5,824.583 1030.7,824.583 1056.89,824.583 1083.08,824.583 1109.27,824.583 1135.46,824.583 1161.65,824.583 1187.84,824.583 1214.03,824.583 1240.23,824.583 1266.42,824.583 1292.61,824.583 1318.8,824.583 1344.99,824.583 1371.18,824.583 1397.37,824.583 1423.57,824.583 1449.76,824.583 1475.95,824.583 1502.14,824.583 1528.33,824.583 1554.52,824.583 1580.71,824.583 1606.9,824.583 1633.1,824.583 1659.29,824.583 1685.48,824.583 1711.67,824.583 1737.86,824.583 1764.05,824.583 1790.24,824.583 1816.43,824.583 1842.63,824.583 1868.82,824.583 1895.01,824.583 1921.2,824.583 1947.39,824.583 1973.58,824.583 1999.77,824.583 2025.97,824.583 2052.16,824.583 2078.35,824.583 2104.54,824.583 2130.73,824.583 2156.92,824.583 2183.11,1547.21 2209.3,1401.85 2235.5,1255.1 2261.69,1137.16 2287.88,1037.72 2314.07,951.02 2340.26,880.365 2366.45,801.697 2392.64,754.177 2418.83,663.333 2445.03,601.154 2471.22,554.048 2497.41,530.109 2523.6,520.087 2549.79,525.359 2575.98,519.999 2602.17,508.146 2628.37,544.609 2654.56,463.824 2680.75,407.816 2706.94,517.28 2733.13,1155.86 2759.32,1629.97 2785.51,1553.94 2811.7,1400.58 2837.9,1261.24 2864.09,1142.91 2890.28,1039.7 2916.47,946.787 2942.66,873.807 2968.85,802.658 2995.04,738.463 "/>
<path clip-path="url(#clip490)" d="M3193.78 468.072 L3952.76 468.072 L3952.76 312.552 L3193.78 312.552  Z" fill="#ffffff" fill-rule="evenodd" fill-opacity="1"/>
<polyline clip-path="url(#clip490)" style="stroke:#000000; stroke-linecap:round; stroke-linejoin:round; stroke-width:4; stroke-opacity:1; fill:none" points="3193.78,468.072 3952.76,468.072 3952.76,312.552 3193.78,312.552 3193.78,468.072 "/>
<polyline clip-path="url(#clip490)" style="stroke:#009af9; stroke-linecap:round; stroke-linejoin:round; stroke-width:8; stroke-opacity:0.8; fill:none" stroke-dasharray="4, 8" points="3234.1,364.392 3475.99,364.392 "/>
<path clip-path="url(#clip490)" d="M3516.31 347.112 L3523.28 347.112 L3532.09 370.631 L3540.96 347.112 L3547.93 347.112 L3547.93 381.672 L3543.37 381.672 L3543.37 351.325 L3534.46 375.029 L3529.76 375.029 L3520.84 351.325 L3520.84 381.672 L3516.31 381.672 L3516.31 347.112 Z" fill="#000000" fill-rule="nonzero" fill-opacity="1" /><path clip-path="url(#clip490)" d="M3561.89 350.955 L3561.89 363.941 L3567.77 363.941 Q3571.03 363.941 3572.81 362.251 Q3574.59 360.561 3574.59 357.436 Q3574.59 354.335 3572.81 352.645 Q3571.03 350.955 3567.77 350.955 L3561.89 350.955 M3557.21 347.112 L3567.77 347.112 Q3573.58 347.112 3576.54 349.751 Q3579.53 352.367 3579.53 357.436 Q3579.53 362.552 3576.54 365.168 Q3573.58 367.784 3567.77 367.784 L3561.89 367.784 L3561.89 381.672 L3557.21 381.672 L3557.21 347.112 Z" fill="#000000" fill-rule="nonzero" fill-opacity="1" /><path clip-path="url(#clip490)" d="M3606.52 348.247 L3606.52 352.807 Q3603.85 351.534 3601.49 350.909 Q3599.13 350.284 3596.93 350.284 Q3593.11 350.284 3591.03 351.765 Q3588.97 353.247 3588.97 355.978 Q3588.97 358.27 3590.34 359.45 Q3591.72 360.608 3595.57 361.325 L3598.39 361.904 Q3603.62 362.899 3606.1 365.422 Q3608.6 367.922 3608.6 372.135 Q3608.6 377.159 3605.22 379.751 Q3601.86 382.344 3595.36 382.344 Q3592.9 382.344 3590.13 381.788 Q3587.37 381.233 3584.41 380.145 L3584.41 375.33 Q3587.26 376.927 3589.99 377.737 Q3592.72 378.547 3595.36 378.547 Q3599.36 378.547 3601.54 376.973 Q3603.71 375.399 3603.71 372.483 Q3603.71 369.936 3602.14 368.501 Q3600.59 367.066 3597.02 366.348 L3594.18 365.793 Q3588.95 364.751 3586.61 362.529 Q3584.27 360.307 3584.27 356.348 Q3584.27 351.765 3587.49 349.126 Q3590.73 346.487 3596.4 346.487 Q3598.83 346.487 3601.35 346.927 Q3603.88 347.367 3606.52 348.247 Z" fill="#000000" fill-rule="nonzero" fill-opacity="1" /><path clip-path="url(#clip490)" d="M3630.96 347.112 L3635.64 347.112 L3635.64 381.672 L3630.96 381.672 L3630.96 347.112 Z" fill="#000000" fill-rule="nonzero" fill-opacity="1" /><path clip-path="url(#clip490)" d="M3666.31 366.024 L3666.31 381.672 L3662.05 381.672 L3662.05 366.163 Q3662.05 362.483 3660.61 360.654 Q3659.18 358.825 3656.31 358.825 Q3652.86 358.825 3650.87 361.024 Q3648.88 363.223 3648.88 367.02 L3648.88 381.672 L3644.59 381.672 L3644.59 355.747 L3648.88 355.747 L3648.88 359.774 Q3650.4 357.436 3652.46 356.279 Q3654.55 355.122 3657.26 355.122 Q3661.72 355.122 3664.02 357.899 Q3666.31 360.654 3666.31 366.024 Z" fill="#000000" fill-rule="nonzero" fill-opacity="1" /><path clip-path="url(#clip490)" d="M3679.02 348.386 L3679.02 355.747 L3687.79 355.747 L3687.79 359.057 L3679.02 359.057 L3679.02 373.131 Q3679.02 376.302 3679.87 377.205 Q3680.75 378.108 3683.41 378.108 L3687.79 378.108 L3687.79 381.672 L3683.41 381.672 Q3678.48 381.672 3676.61 379.844 Q3674.73 377.992 3674.73 373.131 L3674.73 359.057 L3671.61 359.057 L3671.61 355.747 L3674.73 355.747 L3674.73 348.386 L3679.02 348.386 Z" fill="#000000" fill-rule="nonzero" fill-opacity="1" /><path clip-path="url(#clip490)" d="M3715.57 367.645 L3715.57 369.728 L3695.98 369.728 Q3696.26 374.126 3698.62 376.441 Q3701.01 378.733 3705.24 378.733 Q3707.7 378.733 3709.99 378.131 Q3712.3 377.529 3714.57 376.325 L3714.57 380.353 Q3712.28 381.325 3709.87 381.834 Q3707.46 382.344 3704.99 382.344 Q3698.78 382.344 3695.15 378.733 Q3691.54 375.121 3691.54 368.964 Q3691.54 362.598 3694.96 358.872 Q3698.41 355.122 3704.25 355.122 Q3709.48 355.122 3712.51 358.501 Q3715.57 361.858 3715.57 367.645 M3711.31 366.395 Q3711.26 362.899 3709.34 360.816 Q3707.44 358.733 3704.29 358.733 Q3700.73 358.733 3698.58 360.747 Q3696.45 362.76 3696.12 366.418 L3711.31 366.395 Z" fill="#000000" fill-rule="nonzero" fill-opacity="1" /><path clip-path="url(#clip490)" d="M3737.58 359.728 Q3736.86 359.311 3736.01 359.126 Q3735.17 358.918 3734.15 358.918 Q3730.54 358.918 3728.6 361.279 Q3726.68 363.617 3726.68 368.015 L3726.68 381.672 L3722.39 381.672 L3722.39 355.747 L3726.68 355.747 L3726.68 359.774 Q3728.02 357.413 3730.17 356.279 Q3732.33 355.122 3735.4 355.122 Q3735.84 355.122 3736.38 355.191 Q3736.91 355.237 3737.56 355.353 L3737.58 359.728 Z" fill="#000000" fill-rule="nonzero" fill-opacity="1" /><path clip-path="url(#clip490)" d="M3746.17 377.783 L3746.17 391.533 L3741.89 391.533 L3741.89 355.747 L3746.17 355.747 L3746.17 359.682 Q3747.51 357.367 3749.55 356.256 Q3751.61 355.122 3754.45 355.122 Q3759.18 355.122 3762.12 358.872 Q3765.08 362.622 3765.08 368.733 Q3765.08 374.844 3762.12 378.594 Q3759.18 382.344 3754.45 382.344 Q3751.61 382.344 3749.55 381.233 Q3747.51 380.098 3746.17 377.783 M3760.66 368.733 Q3760.66 364.034 3758.71 361.372 Q3756.79 358.686 3753.41 358.686 Q3750.03 358.686 3748.09 361.372 Q3746.17 364.034 3746.17 368.733 Q3746.17 373.432 3748.09 376.117 Q3750.03 378.779 3753.41 378.779 Q3756.79 378.779 3758.71 376.117 Q3760.66 373.432 3760.66 368.733 Z" fill="#000000" fill-rule="nonzero" fill-opacity="1" /><path clip-path="url(#clip490)" d="M3782.19 358.733 Q3778.76 358.733 3776.77 361.418 Q3774.78 364.08 3774.78 368.733 Q3774.78 373.385 3776.75 376.071 Q3778.74 378.733 3782.19 378.733 Q3785.59 378.733 3787.58 376.047 Q3789.57 373.362 3789.57 368.733 Q3789.57 364.126 3787.58 361.441 Q3785.59 358.733 3782.19 358.733 M3782.19 355.122 Q3787.74 355.122 3790.91 358.733 Q3794.08 362.344 3794.08 368.733 Q3794.08 375.098 3790.91 378.733 Q3787.74 382.344 3782.19 382.344 Q3776.61 382.344 3773.44 378.733 Q3770.29 375.098 3770.29 368.733 Q3770.29 362.344 3773.44 358.733 Q3776.61 355.122 3782.19 355.122 Z" fill="#000000" fill-rule="nonzero" fill-opacity="1" /><path clip-path="url(#clip490)" d="M3801.14 345.654 L3805.4 345.654 L3805.4 381.672 L3801.14 381.672 L3801.14 345.654 Z" fill="#000000" fill-rule="nonzero" fill-opacity="1" /><path clip-path="url(#clip490)" d="M3826.1 368.64 Q3820.94 368.64 3818.95 369.821 Q3816.95 371.001 3816.95 373.848 Q3816.95 376.117 3818.44 377.459 Q3819.94 378.779 3822.51 378.779 Q3826.05 378.779 3828.18 376.279 Q3830.33 373.756 3830.33 369.589 L3830.33 368.64 L3826.1 368.64 M3834.59 366.881 L3834.59 381.672 L3830.33 381.672 L3830.33 377.737 Q3828.88 380.098 3826.7 381.233 Q3824.52 382.344 3821.38 382.344 Q3817.39 382.344 3815.03 380.121 Q3812.7 377.876 3812.7 374.126 Q3812.7 369.751 3815.61 367.529 Q3818.55 365.307 3824.36 365.307 L3830.33 365.307 L3830.33 364.89 Q3830.33 361.95 3828.39 360.353 Q3826.47 358.733 3822.97 358.733 Q3820.75 358.733 3818.64 359.265 Q3816.54 359.797 3814.59 360.862 L3814.59 356.927 Q3816.93 356.024 3819.13 355.585 Q3821.33 355.122 3823.41 355.122 Q3829.04 355.122 3831.82 358.038 Q3834.59 360.955 3834.59 366.881 Z" fill="#000000" fill-rule="nonzero" fill-opacity="1" /><path clip-path="url(#clip490)" d="M3847.58 348.386 L3847.58 355.747 L3856.35 355.747 L3856.35 359.057 L3847.58 359.057 L3847.58 373.131 Q3847.58 376.302 3848.44 377.205 Q3849.32 378.108 3851.98 378.108 L3856.35 378.108 L3856.35 381.672 L3851.98 381.672 Q3847.05 381.672 3845.17 379.844 Q3843.3 377.992 3843.3 373.131 L3843.3 359.057 L3840.17 359.057 L3840.17 355.747 L3843.3 355.747 L3843.3 348.386 L3847.58 348.386 Z" fill="#000000" fill-rule="nonzero" fill-opacity="1" /><path clip-path="url(#clip490)" d="M3884.13 367.645 L3884.13 369.728 L3864.55 369.728 Q3864.82 374.126 3867.19 376.441 Q3869.57 378.733 3873.81 378.733 Q3876.26 378.733 3878.55 378.131 Q3880.87 377.529 3883.13 376.325 L3883.13 380.353 Q3880.84 381.325 3878.44 381.834 Q3876.03 382.344 3873.55 382.344 Q3867.35 382.344 3863.71 378.733 Q3860.1 375.121 3860.1 368.964 Q3860.1 362.598 3863.53 358.872 Q3866.98 355.122 3872.81 355.122 Q3878.04 355.122 3881.07 358.501 Q3884.13 361.858 3884.13 367.645 M3879.87 366.395 Q3879.82 362.899 3877.9 360.816 Q3876 358.733 3872.86 358.733 Q3869.29 358.733 3867.14 360.747 Q3865.01 362.76 3864.69 366.418 L3879.87 366.395 Z" fill="#000000" fill-rule="nonzero" fill-opacity="1" /><path clip-path="url(#clip490)" d="M3908.18 359.682 L3908.18 345.654 L3912.44 345.654 L3912.44 381.672 L3908.18 381.672 L3908.18 377.783 Q3906.84 380.098 3904.78 381.233 Q3902.74 382.344 3899.87 382.344 Q3895.17 382.344 3892.21 378.594 Q3889.27 374.844 3889.27 368.733 Q3889.27 362.622 3892.21 358.872 Q3895.17 355.122 3899.87 355.122 Q3902.74 355.122 3904.78 356.256 Q3906.84 357.367 3908.18 359.682 M3893.67 368.733 Q3893.67 373.432 3895.59 376.117 Q3897.53 378.779 3900.91 378.779 Q3904.29 378.779 3906.24 376.117 Q3908.18 373.432 3908.18 368.733 Q3908.18 364.034 3906.24 361.372 Q3904.29 358.686 3900.91 358.686 Q3897.53 358.686 3895.59 361.372 Q3893.67 364.034 3893.67 368.733 Z" fill="#000000" fill-rule="nonzero" fill-opacity="1" /><polyline clip-path="url(#clip490)" style="stroke:#ffa500; stroke-linecap:round; stroke-linejoin:round; stroke-width:8; stroke-opacity:0.7; fill:none" points="3234.1,416.232 3475.99,416.232 "/>
<path clip-path="url(#clip490)" d="M3541.86 428.582 L3541.86 419.299 L3534.22 419.299 L3534.22 415.457 L3546.49 415.457 L3546.49 430.295 Q3543.78 432.216 3540.52 433.211 Q3537.26 434.184 3533.55 434.184 Q3525.45 434.184 3520.87 429.461 Q3516.31 424.716 3516.31 416.267 Q3516.31 407.795 3520.87 403.073 Q3525.45 398.327 3533.55 398.327 Q3536.93 398.327 3539.97 399.161 Q3543.02 399.994 3545.59 401.614 L3545.59 406.591 Q3543 404.392 3540.08 403.281 Q3537.16 402.17 3533.95 402.17 Q3527.6 402.17 3524.41 405.712 Q3521.24 409.253 3521.24 416.267 Q3521.24 423.258 3524.41 426.799 Q3527.6 430.341 3533.95 430.341 Q3536.42 430.341 3538.37 429.924 Q3540.31 429.485 3541.86 428.582 Z" fill="#000000" fill-rule="nonzero" fill-opacity="1" /><path clip-path="url(#clip490)" d="M3569.87 411.568 Q3569.15 411.151 3568.3 410.966 Q3567.46 410.758 3566.45 410.758 Q3562.84 410.758 3560.89 413.119 Q3558.97 415.457 3558.97 419.855 L3558.97 433.512 L3554.69 433.512 L3554.69 407.587 L3558.97 407.587 L3558.97 411.614 Q3560.31 409.253 3562.46 408.119 Q3564.62 406.962 3567.7 406.962 Q3568.14 406.962 3568.67 407.031 Q3569.2 407.077 3569.85 407.193 L3569.87 411.568 Z" fill="#000000" fill-rule="nonzero" fill-opacity="1" /><path clip-path="url(#clip490)" d="M3583.34 410.573 Q3579.92 410.573 3577.93 413.258 Q3575.94 415.92 3575.94 420.573 Q3575.94 425.225 3577.9 427.911 Q3579.9 430.573 3583.34 430.573 Q3586.75 430.573 3588.74 427.887 Q3590.73 425.202 3590.73 420.573 Q3590.73 415.966 3588.74 413.281 Q3586.75 410.573 3583.34 410.573 M3583.34 406.962 Q3588.9 406.962 3592.07 410.573 Q3595.24 414.184 3595.24 420.573 Q3595.24 426.938 3592.07 430.573 Q3588.9 434.184 3583.34 434.184 Q3577.77 434.184 3574.59 430.573 Q3571.45 426.938 3571.45 420.573 Q3571.45 414.184 3574.59 410.573 Q3577.77 406.962 3583.34 406.962 Z" fill="#000000" fill-rule="nonzero" fill-opacity="1" /><path clip-path="url(#clip490)" d="M3601.86 423.281 L3601.86 407.587 L3606.12 407.587 L3606.12 423.119 Q3606.12 426.799 3607.56 428.651 Q3608.99 430.48 3611.86 430.48 Q3615.31 430.48 3617.3 428.281 Q3619.32 426.082 3619.32 422.286 L3619.32 407.587 L3623.58 407.587 L3623.58 433.512 L3619.32 433.512 L3619.32 429.531 Q3617.77 431.892 3615.71 433.049 Q3613.67 434.184 3610.96 434.184 Q3606.49 434.184 3604.18 431.406 Q3601.86 428.628 3601.86 423.281 M3612.58 406.962 L3612.58 406.962 Z" fill="#000000" fill-rule="nonzero" fill-opacity="1" /><path clip-path="url(#clip490)" d="M3653.9 417.864 L3653.9 433.512 L3649.64 433.512 L3649.64 418.003 Q3649.64 414.323 3648.21 412.494 Q3646.77 410.665 3643.9 410.665 Q3640.45 410.665 3638.46 412.864 Q3636.47 415.063 3636.47 418.86 L3636.47 433.512 L3632.19 433.512 L3632.19 407.587 L3636.47 407.587 L3636.47 411.614 Q3638 409.276 3640.06 408.119 Q3642.14 406.962 3644.85 406.962 Q3649.32 406.962 3651.61 409.739 Q3653.9 412.494 3653.9 417.864 Z" fill="#000000" fill-rule="nonzero" fill-opacity="1" /><path clip-path="url(#clip490)" d="M3679.46 411.522 L3679.46 397.494 L3683.71 397.494 L3683.71 433.512 L3679.46 433.512 L3679.46 429.623 Q3678.11 431.938 3676.05 433.073 Q3674.02 434.184 3671.14 434.184 Q3666.45 434.184 3663.48 430.434 Q3660.54 426.684 3660.54 420.573 Q3660.54 414.462 3663.48 410.712 Q3666.45 406.962 3671.14 406.962 Q3674.02 406.962 3676.05 408.096 Q3678.11 409.207 3679.46 411.522 M3664.94 420.573 Q3664.94 425.272 3666.86 427.957 Q3668.81 430.619 3672.19 430.619 Q3675.57 430.619 3677.51 427.957 Q3679.46 425.272 3679.46 420.573 Q3679.46 415.874 3677.51 413.212 Q3675.57 410.526 3672.19 410.526 Q3668.81 410.526 3666.86 413.212 Q3664.94 415.874 3664.94 420.573 Z" fill="#000000" fill-rule="nonzero" fill-opacity="1" /><path clip-path="url(#clip490)" d="M3702.95 398.952 L3732.19 398.952 L3732.19 402.888 L3719.92 402.888 L3719.92 433.512 L3715.22 433.512 L3715.22 402.888 L3702.95 402.888 L3702.95 398.952 Z" fill="#000000" fill-rule="nonzero" fill-opacity="1" /><path clip-path="url(#clip490)" d="M3744.57 411.568 Q3743.85 411.151 3743 410.966 Q3742.16 410.758 3741.14 410.758 Q3737.53 410.758 3735.59 413.119 Q3733.67 415.457 3733.67 419.855 L3733.67 433.512 L3729.39 433.512 L3729.39 407.587 L3733.67 407.587 L3733.67 411.614 Q3735.01 409.253 3737.16 408.119 Q3739.32 406.962 3742.39 406.962 Q3742.83 406.962 3743.37 407.031 Q3743.9 407.077 3744.55 407.193 L3744.57 411.568 Z" fill="#000000" fill-rule="nonzero" fill-opacity="1" /><path clip-path="url(#clip490)" d="M3748.6 423.281 L3748.6 407.587 L3752.86 407.587 L3752.86 423.119 Q3752.86 426.799 3754.29 428.651 Q3755.73 430.48 3758.6 430.48 Q3762.05 430.48 3764.04 428.281 Q3766.05 426.082 3766.05 422.286 L3766.05 407.587 L3770.31 407.587 L3770.31 433.512 L3766.05 433.512 L3766.05 429.531 Q3764.5 431.892 3762.44 433.049 Q3760.4 434.184 3757.7 434.184 Q3753.23 434.184 3750.91 431.406 Q3748.6 428.628 3748.6 423.281 M3759.32 406.962 L3759.32 406.962 Z" fill="#000000" fill-rule="nonzero" fill-opacity="1" /><path clip-path="url(#clip490)" d="M3783.3 400.226 L3783.3 407.587 L3792.07 407.587 L3792.07 410.897 L3783.3 410.897 L3783.3 424.971 Q3783.3 428.142 3784.15 429.045 Q3785.03 429.948 3787.7 429.948 L3792.07 429.948 L3792.07 433.512 L3787.7 433.512 Q3782.76 433.512 3780.89 431.684 Q3779.01 429.832 3779.01 424.971 L3779.01 410.897 L3775.89 410.897 L3775.89 407.587 L3779.01 407.587 L3779.01 400.226 L3783.3 400.226 Z" fill="#000000" fill-rule="nonzero" fill-opacity="1" /><path clip-path="url(#clip490)" d="M3819.22 417.864 L3819.22 433.512 L3814.96 433.512 L3814.96 418.003 Q3814.96 414.323 3813.53 412.494 Q3812.09 410.665 3809.22 410.665 Q3805.77 410.665 3803.78 412.864 Q3801.79 415.063 3801.79 418.86 L3801.79 433.512 L3797.51 433.512 L3797.51 397.494 L3801.79 397.494 L3801.79 411.614 Q3803.32 409.276 3805.38 408.119 Q3807.46 406.962 3810.17 406.962 Q3814.64 406.962 3816.93 409.739 Q3819.22 412.494 3819.22 417.864 Z" fill="#000000" fill-rule="nonzero" fill-opacity="1" /></svg>
