<?xml version="1.0" encoding="utf-8"?>
<svg xmlns="http://www.w3.org/2000/svg" xmlns:xlink="http://www.w3.org/1999/xlink" width="1000" height="500" viewBox="0 0 4000 2000">
<defs>
  <clipPath id="clip620">
    <rect x="0" y="0" width="4000" height="2000"/>
  </clipPath>
</defs>
<path clip-path="url(#clip620)" d="M0 2000 L4000 2000 L4000 0 L0 0  Z" fill="#ffffff" fill-rule="evenodd" fill-opacity="1"/>
<defs>
  <clipPath id="clip621">
    <rect x="800" y="0" width="2801" height="2000"/>
  </clipPath>
</defs>
<path clip-path="url(#clip620)" d="M324.316 1776.71 L3952.76 1776.71 L3952.76 110.236 L324.316 110.236  Z" fill="#ffffff" fill-rule="evenodd" fill-opacity="1"/>
<defs>
  <clipPath id="clip622">
    <rect x="324" y="110" width="3629" height="1667"/>
  </clipPath>
</defs>
<polyline clip-path="url(#clip622)" style="stroke:#000000; stroke-linecap:round; stroke-linejoin:round; stroke-width:2; stroke-opacity:0.1; fill:none" points="392.432,1776.71 392.432,110.236 "/>
<polyline clip-path="url(#clip622)" style="stroke:#000000; stroke-linecap:round; stroke-linejoin:round; stroke-width:2; stroke-opacity:0.1; fill:none" points="1256.84,1776.71 1256.84,110.236 "/>
<polyline clip-path="url(#clip622)" style="stroke:#000000; stroke-linecap:round; stroke-linejoin:round; stroke-width:2; stroke-opacity:0.1; fill:none" points="2121.25,1776.71 2121.25,110.236 "/>
<polyline clip-path="url(#clip622)" style="stroke:#000000; stroke-linecap:round; stroke-linejoin:round; stroke-width:2; stroke-opacity:0.1; fill:none" points="2985.66,1776.71 2985.66,110.236 "/>
<polyline clip-path="url(#clip622)" style="stroke:#000000; stroke-linecap:round; stroke-linejoin:round; stroke-width:2; stroke-opacity:0.1; fill:none" points="3850.06,1776.71 3850.06,110.236 "/>
<polyline clip-path="url(#clip620)" style="stroke:#000000; stroke-linecap:round; stroke-linejoin:round; stroke-width:4; stroke-opacity:1; fill:none" points="324.316,1776.71 3952.76,1776.71 "/>
<polyline clip-path="url(#clip620)" style="stroke:#000000; stroke-linecap:round; stroke-linejoin:round; stroke-width:4; stroke-opacity:1; fill:none" points="392.432,1776.71 392.432,1757.81 "/>
<polyline clip-path="url(#clip620)" style="stroke:#000000; stroke-linecap:round; stroke-linejoin:round; stroke-width:4; stroke-opacity:1; fill:none" points="1256.84,1776.71 1256.84,1757.81 "/>
<polyline clip-path="url(#clip620)" style="stroke:#000000; stroke-linecap:round; stroke-linejoin:round; stroke-width:4; stroke-opacity:1; fill:none" points="2121.25,1776.71 2121.25,1757.81 "/>
<polyline clip-path="url(#clip620)" style="stroke:#000000; stroke-linecap:round; stroke-linejoin:round; stroke-width:4; stroke-opacity:1; fill:none" points="2985.66,1776.71 2985.66,1757.81 "/>
<polyline clip-path="url(#clip620)" style="stroke:#000000; stroke-linecap:round; stroke-linejoin:round; stroke-width:4; stroke-opacity:1; fill:none" points="3850.06,1776.71 3850.06,1757.81 "/>
<path clip-path="url(#clip620)" d="M392.432 1820.43 Q388.82 1820.43 386.992 1823.99 Q385.186 1827.53 385.186 1834.66 Q385.186 1841.77 386.992 1845.33 Q388.82 1848.88 392.432 1848.88 Q396.066 1848.88 397.871 1845.33 Q399.7 1841.77 399.7 1834.66 Q399.7 1827.53 397.871 1823.99 Q396.066 1820.43 392.432 1820.43 M392.432 1816.72 Q398.242 1816.72 401.297 1821.33 Q404.376 1825.91 404.376 1834.66 Q404.376 1843.39 401.297 1848 Q398.242 1852.58 392.432 1852.58 Q386.621 1852.58 383.543 1848 Q380.487 1843.39 380.487 1834.66 Q380.487 1825.91 383.543 1821.33 Q386.621 1816.72 392.432 1816.72 Z" fill="#000000" fill-rule="nonzero" fill-opacity="1" /><path clip-path="url(#clip620)" d="M1236.11 1847.97 L1252.43 1847.97 L1252.43 1851.91 L1230.49 1851.91 L1230.49 1847.97 Q1233.15 1845.22 1237.73 1840.59 Q1242.34 1835.94 1243.52 1834.59 Q1245.76 1832.07 1246.64 1830.33 Q1247.55 1828.57 1247.55 1826.88 Q1247.55 1824.13 1245.6 1822.39 Q1243.68 1820.66 1240.58 1820.66 Q1238.38 1820.66 1235.93 1821.42 Q1233.49 1822.19 1230.72 1823.74 L1230.72 1819.01 Q1233.54 1817.88 1235.99 1817.3 Q1238.45 1816.72 1240.49 1816.72 Q1245.86 1816.72 1249.05 1819.41 Q1252.24 1822.09 1252.24 1826.58 Q1252.24 1828.71 1251.43 1830.63 Q1250.65 1832.53 1248.54 1835.13 Q1247.96 1835.8 1244.86 1839.01 Q1241.76 1842.21 1236.11 1847.97 Z" fill="#000000" fill-rule="nonzero" fill-opacity="1" /><path clip-path="url(#clip620)" d="M1262.29 1817.35 L1280.65 1817.35 L1280.65 1821.28 L1266.57 1821.28 L1266.57 1829.76 Q1267.59 1829.41 1268.61 1829.25 Q1269.63 1829.06 1270.65 1829.06 Q1276.43 1829.06 1279.81 1832.23 Q1283.19 1835.4 1283.19 1840.82 Q1283.19 1846.4 1279.72 1849.5 Q1276.25 1852.58 1269.93 1852.58 Q1267.75 1852.58 1265.49 1852.21 Q1263.24 1851.84 1260.83 1851.1 L1260.83 1846.4 Q1262.92 1847.53 1265.14 1848.09 Q1267.36 1848.64 1269.84 1848.64 Q1273.84 1848.64 1276.18 1846.54 Q1278.52 1844.43 1278.52 1840.82 Q1278.52 1837.21 1276.18 1835.1 Q1273.84 1833 1269.84 1833 Q1267.96 1833 1266.09 1833.41 Q1264.24 1833.83 1262.29 1834.71 L1262.29 1817.35 Z" fill="#000000" fill-rule="nonzero" fill-opacity="1" /><path clip-path="url(#clip620)" d="M2095.95 1817.35 L2114.3 1817.35 L2114.3 1821.28 L2100.23 1821.28 L2100.23 1829.76 Q2101.25 1829.41 2102.27 1829.25 Q2103.28 1829.06 2104.3 1829.06 Q2110.09 1829.06 2113.47 1832.23 Q2116.85 1835.4 2116.85 1840.82 Q2116.85 1846.4 2113.38 1849.5 Q2109.91 1852.58 2103.59 1852.58 Q2101.41 1852.58 2099.14 1852.21 Q2096.9 1851.84 2094.49 1851.1 L2094.49 1846.4 Q2096.57 1847.53 2098.79 1848.09 Q2101.02 1848.64 2103.49 1848.64 Q2107.5 1848.64 2109.84 1846.54 Q2112.17 1844.43 2112.17 1840.82 Q2112.17 1837.21 2109.84 1835.1 Q2107.5 1833 2103.49 1833 Q2101.62 1833 2099.74 1833.41 Q2097.89 1833.83 2095.95 1834.71 L2095.95 1817.35 Z" fill="#000000" fill-rule="nonzero" fill-opacity="1" /><path clip-path="url(#clip620)" d="M2136.06 1820.43 Q2132.45 1820.43 2130.62 1823.99 Q2128.82 1827.53 2128.82 1834.66 Q2128.82 1841.77 2130.62 1845.33 Q2132.45 1848.88 2136.06 1848.88 Q2139.7 1848.88 2141.5 1845.33 Q2143.33 1841.77 2143.33 1834.66 Q2143.33 1827.53 2141.5 1823.99 Q2139.7 1820.43 2136.06 1820.43 M2136.06 1816.72 Q2141.87 1816.72 2144.93 1821.33 Q2148.01 1825.91 2148.01 1834.66 Q2148.01 1843.39 2144.93 1848 Q2141.87 1852.58 2136.06 1852.58 Q2130.25 1852.58 2127.17 1848 Q2124.12 1843.39 2124.12 1834.66 Q2124.12 1825.91 2127.17 1821.33 Q2130.25 1816.72 2136.06 1816.72 Z" fill="#000000" fill-rule="nonzero" fill-opacity="1" /><path clip-path="url(#clip620)" d="M2959.51 1817.35 L2981.73 1817.35 L2981.73 1819.34 L2969.19 1851.91 L2964.3 1851.91 L2976.11 1821.28 L2959.51 1821.28 L2959.51 1817.35 Z" fill="#000000" fill-rule="nonzero" fill-opacity="1" /><path clip-path="url(#clip620)" d="M2990.9 1817.35 L3009.26 1817.35 L3009.26 1821.28 L2995.18 1821.28 L2995.18 1829.76 Q2996.2 1829.41 2997.22 1829.25 Q2998.24 1829.06 2999.26 1829.06 Q3005.04 1829.06 3008.42 1832.23 Q3011.8 1835.4 3011.8 1840.82 Q3011.8 1846.4 3008.33 1849.5 Q3004.86 1852.58 2998.54 1852.58 Q2996.36 1852.58 2994.09 1852.21 Q2991.85 1851.84 2989.44 1851.1 L2989.44 1846.4 Q2991.52 1847.53 2993.75 1848.09 Q2995.97 1848.64 2998.45 1848.64 Q3002.45 1848.64 3004.79 1846.54 Q3007.13 1844.43 3007.13 1840.82 Q3007.13 1837.21 3004.79 1835.1 Q3002.45 1833 2998.45 1833 Q2996.57 1833 2994.7 1833.41 Q2992.84 1833.83 2990.9 1834.71 L2990.9 1817.35 Z" fill="#000000" fill-rule="nonzero" fill-opacity="1" /><path clip-path="url(#clip620)" d="M3809.67 1847.97 L3817.31 1847.97 L3817.31 1821.61 L3809 1823.27 L3809 1819.01 L3817.26 1817.35 L3821.94 1817.35 L3821.94 1847.97 L3829.58 1847.97 L3829.58 1851.91 L3809.67 1851.91 L3809.67 1847.97 Z" fill="#000000" fill-rule="nonzero" fill-opacity="1" /><path clip-path="url(#clip620)" d="M3849.02 1820.43 Q3845.41 1820.43 3843.58 1823.99 Q3841.78 1827.53 3841.78 1834.66 Q3841.78 1841.77 3843.58 1845.33 Q3845.41 1848.88 3849.02 1848.88 Q3852.66 1848.88 3854.46 1845.33 Q3856.29 1841.77 3856.29 1834.66 Q3856.29 1827.53 3854.46 1823.99 Q3852.66 1820.43 3849.02 1820.43 M3849.02 1816.72 Q3854.83 1816.72 3857.89 1821.33 Q3860.97 1825.91 3860.97 1834.66 Q3860.97 1843.39 3857.89 1848 Q3854.83 1852.58 3849.02 1852.58 Q3843.21 1852.58 3840.13 1848 Q3837.08 1843.39 3837.08 1834.66 Q3837.08 1825.91 3840.13 1821.33 Q3843.21 1816.72 3849.02 1816.72 Z" fill="#000000" fill-rule="nonzero" fill-opacity="1" /><path clip-path="url(#clip620)" d="M3879.18 1820.43 Q3875.57 1820.43 3873.74 1823.99 Q3871.94 1827.53 3871.94 1834.66 Q3871.94 1841.77 3873.74 1845.33 Q3875.57 1848.88 3879.18 1848.88 Q3882.82 1848.88 3884.62 1845.33 Q3886.45 1841.77 3886.45 1834.66 Q3886.45 1827.53 3884.62 1823.99 Q3882.82 1820.43 3879.18 1820.43 M3879.18 1816.72 Q3884.99 1816.72 3888.05 1821.33 Q3891.13 1825.91 3891.13 1834.66 Q3891.13 1843.39 3888.05 1848 Q3884.99 1852.58 3879.18 1852.58 Q3873.37 1852.58 3870.3 1848 Q3867.24 1843.39 3867.24 1834.66 Q3867.24 1825.91 3870.3 1821.33 Q3873.37 1816.72 3879.18 1816.72 Z" fill="#000000" fill-rule="nonzero" fill-opacity="1" /><path clip-path="url(#clip620)" d="M2077.7 1899.8 L2077.7 1909.92 L2089.76 1909.92 L2089.76 1914.48 L2077.7 1914.48 L2077.7 1933.83 Q2077.7 1938.19 2078.87 1939.43 Q2080.08 1940.67 2083.74 1940.67 L2089.76 1940.67 L2089.76 1945.57 L2083.74 1945.57 Q2076.96 1945.57 2074.39 1943.06 Q2071.81 1940.51 2071.81 1933.83 L2071.81 1914.48 L2067.51 1914.48 L2067.51 1909.92 L2071.81 1909.92 L2071.81 1899.8 L2077.7 1899.8 Z" fill="#000000" fill-rule="nonzero" fill-opacity="1" /><path clip-path="url(#clip620)" d="M2097.46 1909.92 L2103.32 1909.92 L2103.32 1945.57 L2097.46 1945.57 L2097.46 1909.92 M2097.46 1896.05 L2103.32 1896.05 L2103.32 1903.46 L2097.46 1903.46 L2097.46 1896.05 Z" fill="#000000" fill-rule="nonzero" fill-opacity="1" /><path clip-path="url(#clip620)" d="M2143.33 1916.77 Q2145.52 1912.82 2148.58 1910.94 Q2151.63 1909.06 2155.77 1909.06 Q2161.34 1909.06 2164.36 1912.98 Q2167.39 1916.86 2167.39 1924.06 L2167.39 1945.57 L2161.5 1945.57 L2161.5 1924.25 Q2161.5 1919.12 2159.69 1916.64 Q2157.87 1914.16 2154.15 1914.16 Q2149.6 1914.16 2146.95 1917.18 Q2144.31 1920.2 2144.31 1925.42 L2144.31 1945.57 L2138.42 1945.57 L2138.42 1924.25 Q2138.42 1919.09 2136.61 1916.64 Q2134.8 1914.16 2131.01 1914.16 Q2126.52 1914.16 2123.88 1917.21 Q2121.24 1920.24 2121.24 1925.42 L2121.24 1945.57 L2115.35 1945.57 L2115.35 1909.92 L2121.24 1909.92 L2121.24 1915.46 Q2123.24 1912.18 2126.04 1910.62 Q2128.84 1909.06 2132.7 1909.06 Q2136.58 1909.06 2139.28 1911.04 Q2142.02 1913.01 2143.33 1916.77 Z" fill="#000000" fill-rule="nonzero" fill-opacity="1" /><path clip-path="url(#clip620)" d="M2209.56 1926.28 L2209.56 1929.15 L2182.63 1929.15 Q2183.02 1935.2 2186.26 1938.38 Q2189.54 1941.53 2195.37 1941.53 Q2198.74 1941.53 2201.89 1940.7 Q2205.07 1939.87 2208.19 1938.22 L2208.19 1943.76 Q2205.04 1945.09 2201.73 1945.79 Q2198.42 1946.49 2195.02 1946.49 Q2186.49 1946.49 2181.49 1941.53 Q2176.52 1936.56 2176.52 1928.1 Q2176.52 1919.35 2181.23 1914.22 Q2185.98 1909.06 2194 1909.06 Q2201.19 1909.06 2205.36 1913.71 Q2209.56 1918.33 2209.56 1926.28 M2203.7 1924.56 Q2203.64 1919.76 2201 1916.89 Q2198.39 1914.03 2194.06 1914.03 Q2189.16 1914.03 2186.2 1916.8 Q2183.27 1919.57 2182.83 1924.6 L2203.7 1924.56 Z" fill="#000000" fill-rule="nonzero" fill-opacity="1" /><polyline clip-path="url(#clip622)" style="stroke:#000000; stroke-linecap:round; stroke-linejoin:round; stroke-width:2; stroke-opacity:0.1; fill:none" points="324.316,1729.54 3952.76,1729.54 "/>
<polyline clip-path="url(#clip622)" style="stroke:#000000; stroke-linecap:round; stroke-linejoin:round; stroke-width:2; stroke-opacity:0.1; fill:none" points="324.316,1331.92 3952.76,1331.92 "/>
<polyline clip-path="url(#clip622)" style="stroke:#000000; stroke-linecap:round; stroke-linejoin:round; stroke-width:2; stroke-opacity:0.1; fill:none" points="324.316,934.296 3952.76,934.296 "/>
<polyline clip-path="url(#clip622)" style="stroke:#000000; stroke-linecap:round; stroke-linejoin:round; stroke-width:2; stroke-opacity:0.1; fill:none" points="324.316,536.672 3952.76,536.672 "/>
<polyline clip-path="url(#clip622)" style="stroke:#000000; stroke-linecap:round; stroke-linejoin:round; stroke-width:2; stroke-opacity:0.1; fill:none" points="324.316,139.048 3952.76,139.048 "/>
<polyline clip-path="url(#clip620)" style="stroke:#000000; stroke-linecap:round; stroke-linejoin:round; stroke-width:4; stroke-opacity:1; fill:none" points="324.316,1776.71 324.316,110.236 "/>
<polyline clip-path="url(#clip620)" style="stroke:#000000; stroke-linecap:round; stroke-linejoin:round; stroke-width:4; stroke-opacity:1; fill:none" points="324.316,1729.54 343.214,1729.54 "/>
<polyline clip-path="url(#clip620)" style="stroke:#000000; stroke-linecap:round; stroke-linejoin:round; stroke-width:4; stroke-opacity:1; fill:none" points="324.316,1331.92 343.214,1331.92 "/>
<polyline clip-path="url(#clip620)" style="stroke:#000000; stroke-linecap:round; stroke-linejoin:round; stroke-width:4; stroke-opacity:1; fill:none" points="324.316,934.296 343.214,934.296 "/>
<polyline clip-path="url(#clip620)" style="stroke:#000000; stroke-linecap:round; stroke-linejoin:round; stroke-width:4; stroke-opacity:1; fill:none" points="324.316,536.672 343.214,536.672 "/>
<polyline clip-path="url(#clip620)" style="stroke:#000000; stroke-linecap:round; stroke-linejoin:round; stroke-width:4; stroke-opacity:1; fill:none" points="324.316,139.048 343.214,139.048 "/>
<path clip-path="url(#clip620)" d="M157.372 1729.99 L187.048 1729.99 L187.048 1733.93 L157.372 1733.93 L157.372 1729.99 Z" fill="#000000" fill-rule="nonzero" fill-opacity="1" /><path clip-path="url(#clip620)" d="M197.951 1742.89 L205.59 1742.89 L205.59 1716.52 L197.279 1718.19 L197.279 1713.93 L205.543 1712.26 L210.219 1712.26 L210.219 1742.89 L217.858 1742.89 L217.858 1746.82 L197.951 1746.82 L197.951 1742.89 Z" fill="#000000" fill-rule="nonzero" fill-opacity="1" /><path clip-path="url(#clip620)" d="M227.302 1740.94 L232.187 1740.94 L232.187 1746.82 L227.302 1746.82 L227.302 1740.94 Z" fill="#000000" fill-rule="nonzero" fill-opacity="1" /><path clip-path="url(#clip620)" d="M252.372 1715.34 Q248.761 1715.34 246.932 1718.91 Q245.126 1722.45 245.126 1729.58 Q245.126 1736.68 246.932 1740.25 Q248.761 1743.79 252.372 1743.79 Q256.006 1743.79 257.812 1740.25 Q259.64 1736.68 259.64 1729.58 Q259.64 1722.45 257.812 1718.91 Q256.006 1715.34 252.372 1715.34 M252.372 1711.64 Q258.182 1711.64 261.237 1716.24 Q264.316 1720.83 264.316 1729.58 Q264.316 1738.3 261.237 1742.91 Q258.182 1747.49 252.372 1747.49 Q246.562 1747.49 243.483 1742.91 Q240.427 1738.3 240.427 1729.58 Q240.427 1720.83 243.483 1716.24 Q246.562 1711.64 252.372 1711.64 Z" fill="#000000" fill-rule="nonzero" fill-opacity="1" /><path clip-path="url(#clip620)" d="M158.368 1332.37 L188.043 1332.37 L188.043 1336.31 L158.368 1336.31 L158.368 1332.37 Z" fill="#000000" fill-rule="nonzero" fill-opacity="1" /><path clip-path="url(#clip620)" d="M208.136 1317.72 Q204.525 1317.72 202.696 1321.28 Q200.891 1324.82 200.891 1331.95 Q200.891 1339.06 202.696 1342.63 Q204.525 1346.17 208.136 1346.17 Q211.77 1346.17 213.576 1342.63 Q215.404 1339.06 215.404 1331.95 Q215.404 1324.82 213.576 1321.28 Q211.77 1317.72 208.136 1317.72 M208.136 1314.01 Q213.946 1314.01 217.002 1318.62 Q220.08 1323.2 220.08 1331.95 Q220.08 1340.68 217.002 1345.29 Q213.946 1349.87 208.136 1349.87 Q202.326 1349.87 199.247 1345.29 Q196.192 1340.68 196.192 1331.95 Q196.192 1323.2 199.247 1318.62 Q202.326 1314.01 208.136 1314.01 Z" fill="#000000" fill-rule="nonzero" fill-opacity="1" /><path clip-path="url(#clip620)" d="M228.298 1343.32 L233.182 1343.32 L233.182 1349.2 L228.298 1349.2 L228.298 1343.32 Z" fill="#000000" fill-rule="nonzero" fill-opacity="1" /><path clip-path="url(#clip620)" d="M243.413 1314.64 L261.77 1314.64 L261.77 1318.57 L247.696 1318.57 L247.696 1327.05 Q248.714 1326.7 249.733 1326.54 Q250.751 1326.35 251.77 1326.35 Q257.557 1326.35 260.937 1329.52 Q264.316 1332.69 264.316 1338.11 Q264.316 1343.69 260.844 1346.79 Q257.372 1349.87 251.052 1349.87 Q248.876 1349.87 246.608 1349.5 Q244.363 1349.13 241.955 1348.39 L241.955 1343.69 Q244.038 1344.82 246.261 1345.38 Q248.483 1345.94 250.96 1345.94 Q254.964 1345.94 257.302 1343.83 Q259.64 1341.72 259.64 1338.11 Q259.64 1334.5 257.302 1332.39 Q254.964 1330.29 250.96 1330.29 Q249.085 1330.29 247.21 1330.7 Q245.358 1331.12 243.413 1332 L243.413 1314.64 Z" fill="#000000" fill-rule="nonzero" fill-opacity="1" /><path clip-path="url(#clip620)" d="M207.141 920.094 Q203.529 920.094 201.701 923.659 Q199.895 927.201 199.895 934.33 Q199.895 941.437 201.701 945.001 Q203.529 948.543 207.141 948.543 Q210.775 948.543 212.58 945.001 Q214.409 941.437 214.409 934.33 Q214.409 927.201 212.58 923.659 Q210.775 920.094 207.141 920.094 M207.141 916.391 Q212.951 916.391 216.006 920.997 Q219.085 925.58 219.085 934.33 Q219.085 943.057 216.006 947.664 Q212.951 952.247 207.141 952.247 Q201.33 952.247 198.252 947.664 Q195.196 943.057 195.196 934.33 Q195.196 925.58 198.252 920.997 Q201.33 916.391 207.141 916.391 Z" fill="#000000" fill-rule="nonzero" fill-opacity="1" /><path clip-path="url(#clip620)" d="M227.302 945.696 L232.187 945.696 L232.187 951.576 L227.302 951.576 L227.302 945.696 Z" fill="#000000" fill-rule="nonzero" fill-opacity="1" /><path clip-path="url(#clip620)" d="M252.372 920.094 Q248.761 920.094 246.932 923.659 Q245.126 927.201 245.126 934.33 Q245.126 941.437 246.932 945.001 Q248.761 948.543 252.372 948.543 Q256.006 948.543 257.812 945.001 Q259.64 941.437 259.64 934.33 Q259.64 927.201 257.812 923.659 Q256.006 920.094 252.372 920.094 M252.372 916.391 Q258.182 916.391 261.237 920.997 Q264.316 925.58 264.316 934.33 Q264.316 943.057 261.237 947.664 Q258.182 952.247 252.372 952.247 Q246.562 952.247 243.483 947.664 Q240.427 943.057 240.427 934.33 Q240.427 925.58 243.483 920.997 Q246.562 916.391 252.372 916.391 Z" fill="#000000" fill-rule="nonzero" fill-opacity="1" /><path clip-path="url(#clip620)" d="M208.136 522.47 Q204.525 522.47 202.696 526.035 Q200.891 529.577 200.891 536.706 Q200.891 543.813 202.696 547.378 Q204.525 550.919 208.136 550.919 Q211.77 550.919 213.576 547.378 Q215.404 543.813 215.404 536.706 Q215.404 529.577 213.576 526.035 Q211.77 522.47 208.136 522.47 M208.136 518.767 Q213.946 518.767 217.002 523.373 Q220.08 527.956 220.08 536.706 Q220.08 545.433 217.002 550.04 Q213.946 554.623 208.136 554.623 Q202.326 554.623 199.247 550.04 Q196.192 545.433 196.192 536.706 Q196.192 527.956 199.247 523.373 Q202.326 518.767 208.136 518.767 Z" fill="#000000" fill-rule="nonzero" fill-opacity="1" /><path clip-path="url(#clip620)" d="M228.298 548.072 L233.182 548.072 L233.182 553.952 L228.298 553.952 L228.298 548.072 Z" fill="#000000" fill-rule="nonzero" fill-opacity="1" /><path clip-path="url(#clip620)" d="M243.413 519.392 L261.77 519.392 L261.77 523.327 L247.696 523.327 L247.696 531.799 Q248.714 531.452 249.733 531.29 Q250.751 531.104 251.77 531.104 Q257.557 531.104 260.937 534.276 Q264.316 537.447 264.316 542.864 Q264.316 548.442 260.844 551.544 Q257.372 554.623 251.052 554.623 Q248.876 554.623 246.608 554.253 Q244.363 553.882 241.955 553.141 L241.955 548.442 Q244.038 549.577 246.261 550.132 Q248.483 550.688 250.96 550.688 Q254.964 550.688 257.302 548.581 Q259.64 546.475 259.64 542.864 Q259.64 539.253 257.302 537.146 Q254.964 535.04 250.96 535.04 Q249.085 535.04 247.21 535.456 Q245.358 535.873 243.413 536.753 L243.413 519.392 Z" fill="#000000" fill-rule="nonzero" fill-opacity="1" /><path clip-path="url(#clip620)" d="M197.951 152.392 L205.59 152.392 L205.59 126.027 L197.279 127.694 L197.279 123.434 L205.543 121.768 L210.219 121.768 L210.219 152.392 L217.858 152.392 L217.858 156.328 L197.951 156.328 L197.951 152.392 Z" fill="#000000" fill-rule="nonzero" fill-opacity="1" /><path clip-path="url(#clip620)" d="M227.302 150.448 L232.187 150.448 L232.187 156.328 L227.302 156.328 L227.302 150.448 Z" fill="#000000" fill-rule="nonzero" fill-opacity="1" /><path clip-path="url(#clip620)" d="M252.372 124.846 Q248.761 124.846 246.932 128.411 Q245.126 131.953 245.126 139.082 Q245.126 146.189 246.932 149.754 Q248.761 153.295 252.372 153.295 Q256.006 153.295 257.812 149.754 Q259.64 146.189 259.64 139.082 Q259.64 131.953 257.812 128.411 Q256.006 124.846 252.372 124.846 M252.372 121.143 Q258.182 121.143 261.237 125.749 Q264.316 130.332 264.316 139.082 Q264.316 147.809 261.237 152.416 Q258.182 156.999 252.372 156.999 Q246.562 156.999 243.483 152.416 Q240.427 147.809 240.427 139.082 Q240.427 130.332 243.483 125.749 Q246.562 121.143 252.372 121.143 Z" fill="#000000" fill-rule="nonzero" fill-opacity="1" /><path clip-path="url(#clip620)" d="M47.4683 926.857 L64.8149 939.748 L83.1163 926.189 L83.1163 933.096 L69.1117 943.472 L83.1163 953.848 L83.1163 960.755 L64.4648 946.909 L47.4683 959.577 L47.4683 952.67 L60.1679 943.217 L47.4683 933.764 L47.4683 926.857 Z" fill="#000000" fill-rule="nonzero" fill-opacity="1" /><polyline clip-path="url(#clip622)" style="stroke:#009af9; stroke-linecap:round; stroke-linejoin:round; stroke-width:8; stroke-opacity:0.8; fill:none" stroke-dasharray="4, 8" points="427.008,1389.06 461.584,1222.83 496.16,1070.22 530.737,946.371 565.313,840.994 599.889,744.481 634.466,653.327 669.042,560.499 703.618,477.532 738.195,392.106 772.771,336.751 807.347,305.843 841.924,299.494 876.5,301.054 911.076,293.331 945.653,285.652 980.229,292.435 1014.81,212.443 1049.38,158.697 1083.96,345.107 1118.53,1209.86 1153.11,1729.54 1187.69,1502.02 1222.26,1305.6 1256.84,1158.32 1291.42,1020.98 1325.99,890.08 1360.57,803.398 1395.15,691.586 1429.72,611.584 1464.3,507.168 1498.87,438.856 1533.45,376.191 1568.03,319.728 1602.6,309.628 1637.18,308.515 1671.76,302.392 1706.33,294.28 1740.91,299.29 1775.48,270.264 1810.06,175.55 1844.64,202.986 1879.21,743.436 1913.79,1592.76 1948.37,1684.77 1982.94,1504.41 2017.52,1309.25 2052.1,1159.03 2086.67,1021.22 2121.25,891.432 2155.82,801.648 2190.4,699.141 2224.98,618.025 2259.55,523.55 2294.13,441.242 2328.71,375.634 2363.28,320.046 2397.86,306.527 2432.43,306.288 2467.01,306.845 2501.59,296.825 2536.16,301.596 2570.74,285.214 2605.32,183.82 2639.89,195.749 2674.47,712.819 2709.05,1578.37 2743.62,1689.54 2778.2,1605.24 2812.77,1420.53 2847.35,1234.05 2881.93,1084.19 2916.5,957.822 2951.08,847.655 2985.66,757.873 3020.23,657.908 3054.81,597.524 3089.39,482.087 3123.96,403.076 3158.54,343.219 3193.11,312.799 3227.69,300.064 3262.27,306.763 3296.84,299.952 3331.42,284.891 3366,331.224 3400.57,228.571 3435.15,157.401 3469.72,296.497 3504.3,1107.95 3538.88,1710.4 3573.45,1613.79 3608.03,1418.91 3642.61,1241.85 3677.18,1091.49 3711.76,960.34 3746.34,842.276 3780.91,749.54 3815.49,659.129 3850.06,577.556 "/>
<polyline clip-path="url(#clip622)" style="stroke:#ffa500; stroke-linecap:round; stroke-linejoin:round; stroke-width:8; stroke-opacity:0.7; fill:none" points="427.008,1389.06 461.584,1222.83 496.16,1070.22 530.737,946.371 565.313,840.994 599.889,744.481 634.466,653.327 669.042,560.499 703.618,477.532 738.195,392.106 772.771,336.751 807.347,305.843 841.924,299.494 876.5,301.054 911.076,293.331 945.653,285.652 980.229,292.435 1014.81,212.443 1049.38,158.697 1083.96,345.107 1118.53,1209.86 1153.11,1729.54 1187.69,1593.05 1222.26,686.99 1256.84,686.99 1291.42,686.99 1325.99,686.99 1360.57,686.99 1395.15,686.99 1429.72,686.99 1464.3,686.99 1498.87,686.99 1533.45,686.99 1568.03,686.99 1602.6,686.99 1637.18,686.99 1671.76,686.99 1706.33,686.99 1740.91,686.99 1775.48,686.99 1810.06,686.99 1844.64,686.99 1879.21,686.99 1913.79,686.99 1948.37,686.99 1982.94,686.99 2017.52,686.99 2052.1,686.99 2086.67,686.99 2121.25,686.99 2155.82,686.99 2190.4,686.99 2224.98,686.99 2259.55,686.99 2294.13,686.99 2328.71,686.99 2363.28,686.99 2397.86,686.99 2432.43,686.99 2467.01,686.99 2501.59,686.99 2536.16,686.99 2570.74,686.99 2605.32,686.99 2639.89,686.99 2674.47,686.99 2709.05,686.99 2743.62,686.99 2778.2,1605.24 2812.77,1420.53 2847.35,1234.05 2881.93,1084.19 2916.5,957.822 2951.08,847.655 2985.66,757.873 3020.23,657.908 3054.81,597.524 3089.39,482.087 3123.96,403.076 3158.54,343.219 3193.11,312.799 3227.69,300.064 3262.27,306.763 3296.84,299.952 3331.42,284.891 3366,331.224 3400.57,228.571 3435.15,157.401 3469.72,296.497 3504.3,1107.95 3538.88,1710.4 3573.45,1613.79 3608.03,1418.91 3642.61,1241.85 3677.18,1091.49 3711.76,960.34 3746.34,842.276 3780.91,749.54 3815.49,659.129 3850.06,577.556 "/>
<path clip-path="url(#clip620)" d="M445.264 1721.16 L1204.24 1721.16 L1204.24 1565.64 L445.264 1565.64  Z" fill="#ffffff" fill-rule="evenodd" fill-opacity="1"/>
<polyline clip-path="url(#clip620)" style="stroke:#000000; stroke-linecap:round; stroke-linejoin:round; stroke-width:4; stroke-opacity:1; fill:none" points="445.264,1721.16 1204.24,1721.16 1204.24,1565.64 445.264,1565.64 445.264,1721.16 "/>
<polyline clip-path="url(#clip620)" style="stroke:#009af9; stroke-linecap:round; stroke-linejoin:round; stroke-width:8; stroke-opacity:0.8; fill:none" stroke-dasharray="4, 8" points="485.58,1617.48 727.476,1617.48 "/>
<path clip-path="url(#clip620)" d="M767.792 1600.2 L774.76 1600.2 L783.579 1623.72 L792.445 1600.2 L799.412 1600.2 L799.412 1634.76 L794.852 1634.76 L794.852 1604.41 L785.94 1628.12 L781.241 1628.12 L772.329 1604.41 L772.329 1634.76 L767.792 1634.76 L767.792 1600.2 Z" fill="#000000" fill-rule="nonzero" fill-opacity="1" /><path clip-path="url(#clip620)" d="M813.371 1604.04 L813.371 1617.03 L819.25 1617.03 Q822.514 1617.03 824.296 1615.34 Q826.079 1613.65 826.079 1610.52 Q826.079 1607.42 824.296 1605.73 Q822.514 1604.04 819.25 1604.04 L813.371 1604.04 M808.695 1600.2 L819.25 1600.2 Q825.06 1600.2 828.023 1602.84 Q831.009 1605.45 831.009 1610.52 Q831.009 1615.64 828.023 1618.25 Q825.06 1620.87 819.25 1620.87 L813.371 1620.87 L813.371 1634.76 L808.695 1634.76 L808.695 1600.2 Z" fill="#000000" fill-rule="nonzero" fill-opacity="1" /><path clip-path="url(#clip620)" d="M858 1601.33 L858 1605.89 Q855.338 1604.62 852.977 1603.99 Q850.616 1603.37 848.417 1603.37 Q844.597 1603.37 842.514 1604.85 Q840.454 1606.33 840.454 1609.06 Q840.454 1611.36 841.82 1612.54 Q843.208 1613.69 847.051 1614.41 L849.875 1614.99 Q855.106 1615.99 857.583 1618.51 Q860.083 1621.01 860.083 1625.22 Q860.083 1630.24 856.704 1632.84 Q853.347 1635.43 846.843 1635.43 Q844.389 1635.43 841.611 1634.87 Q838.857 1634.32 835.894 1633.23 L835.894 1628.42 Q838.741 1630.01 841.472 1630.82 Q844.204 1631.63 846.843 1631.63 Q850.847 1631.63 853.023 1630.06 Q855.199 1628.49 855.199 1625.57 Q855.199 1623.02 853.625 1621.59 Q852.074 1620.15 848.509 1619.43 L845.662 1618.88 Q840.431 1617.84 838.093 1615.62 Q835.755 1613.39 835.755 1609.43 Q835.755 1604.85 838.972 1602.21 Q842.213 1599.57 847.884 1599.57 Q850.315 1599.57 852.838 1600.01 Q855.361 1600.45 858 1601.33 Z" fill="#000000" fill-rule="nonzero" fill-opacity="1" /><path clip-path="url(#clip620)" d="M882.444 1600.2 L887.12 1600.2 L887.12 1634.76 L882.444 1634.76 L882.444 1600.2 Z" fill="#000000" fill-rule="nonzero" fill-opacity="1" /><path clip-path="url(#clip620)" d="M917.791 1619.11 L917.791 1634.76 L913.532 1634.76 L913.532 1619.25 Q913.532 1615.57 912.097 1613.74 Q910.662 1611.91 907.791 1611.91 Q904.342 1611.91 902.352 1614.11 Q900.361 1616.31 900.361 1620.11 L900.361 1634.76 L896.078 1634.76 L896.078 1608.83 L900.361 1608.83 L900.361 1612.86 Q901.889 1610.52 903.949 1609.37 Q906.032 1608.21 908.74 1608.21 Q913.208 1608.21 915.5 1610.99 Q917.791 1613.74 917.791 1619.11 Z" fill="#000000" fill-rule="nonzero" fill-opacity="1" /><path clip-path="url(#clip620)" d="M930.5 1601.47 L930.5 1608.83 L939.273 1608.83 L939.273 1612.14 L930.5 1612.14 L930.5 1626.22 Q930.5 1629.39 931.356 1630.29 Q932.236 1631.19 934.898 1631.19 L939.273 1631.19 L939.273 1634.76 L934.898 1634.76 Q929.967 1634.76 928.092 1632.93 Q926.217 1631.08 926.217 1626.22 L926.217 1612.14 L923.092 1612.14 L923.092 1608.83 L926.217 1608.83 L926.217 1601.47 L930.5 1601.47 Z" fill="#000000" fill-rule="nonzero" fill-opacity="1" /><path clip-path="url(#clip620)" d="M967.05 1620.73 L967.05 1622.81 L947.467 1622.81 Q947.745 1627.21 950.106 1629.53 Q952.49 1631.82 956.726 1631.82 Q959.18 1631.82 961.472 1631.22 Q963.786 1630.62 966.055 1629.41 L966.055 1633.44 Q963.763 1634.41 961.356 1634.92 Q958.949 1635.43 956.472 1635.43 Q950.268 1635.43 946.634 1631.82 Q943.023 1628.21 943.023 1622.05 Q943.023 1615.68 946.449 1611.96 Q949.898 1608.21 955.731 1608.21 Q960.962 1608.21 963.995 1611.59 Q967.05 1614.94 967.05 1620.73 M962.791 1619.48 Q962.745 1615.99 960.823 1613.9 Q958.925 1611.82 955.777 1611.82 Q952.212 1611.82 950.06 1613.83 Q947.93 1615.85 947.606 1619.5 L962.791 1619.48 Z" fill="#000000" fill-rule="nonzero" fill-opacity="1" /><path clip-path="url(#clip620)" d="M989.064 1612.81 Q988.346 1612.4 987.49 1612.21 Q986.657 1612 985.638 1612 Q982.027 1612 980.083 1614.37 Q978.161 1616.7 978.161 1621.1 L978.161 1634.76 L973.879 1634.76 L973.879 1608.83 L978.161 1608.83 L978.161 1612.86 Q979.504 1610.5 981.657 1609.37 Q983.809 1608.21 986.888 1608.21 Q987.328 1608.21 987.86 1608.28 Q988.393 1608.32 989.041 1608.44 L989.064 1612.81 Z" fill="#000000" fill-rule="nonzero" fill-opacity="1" /><path clip-path="url(#clip620)" d="M997.652 1630.87 L997.652 1644.62 L993.37 1644.62 L993.37 1608.83 L997.652 1608.83 L997.652 1612.77 Q998.995 1610.45 1001.03 1609.34 Q1003.09 1608.21 1005.94 1608.21 Q1010.66 1608.21 1013.6 1611.96 Q1016.56 1615.71 1016.56 1621.82 Q1016.56 1627.93 1013.6 1631.68 Q1010.66 1635.43 1005.94 1635.43 Q1003.09 1635.43 1001.03 1634.32 Q998.995 1633.18 997.652 1630.87 M1012.14 1621.82 Q1012.14 1617.12 1010.2 1614.46 Q1008.28 1611.77 1004.9 1611.77 Q1001.52 1611.77 999.573 1614.46 Q997.652 1617.12 997.652 1621.82 Q997.652 1626.52 999.573 1629.2 Q1001.52 1631.87 1004.9 1631.87 Q1008.28 1631.87 1010.2 1629.2 Q1012.14 1626.52 1012.14 1621.82 Z" fill="#000000" fill-rule="nonzero" fill-opacity="1" /><path clip-path="url(#clip620)" d="M1033.67 1611.82 Q1030.24 1611.82 1028.25 1614.5 Q1026.26 1617.17 1026.26 1621.82 Q1026.26 1626.47 1028.23 1629.16 Q1030.22 1631.82 1033.67 1631.82 Q1037.07 1631.82 1039.06 1629.13 Q1041.05 1626.45 1041.05 1621.82 Q1041.05 1617.21 1039.06 1614.53 Q1037.07 1611.82 1033.67 1611.82 M1033.67 1608.21 Q1039.23 1608.21 1042.4 1611.82 Q1045.57 1615.43 1045.57 1621.82 Q1045.57 1628.18 1042.4 1631.82 Q1039.23 1635.43 1033.67 1635.43 Q1028.09 1635.43 1024.92 1631.82 Q1021.77 1628.18 1021.77 1621.82 Q1021.77 1615.43 1024.92 1611.82 Q1028.09 1608.21 1033.67 1608.21 Z" fill="#000000" fill-rule="nonzero" fill-opacity="1" /><path clip-path="url(#clip620)" d="M1052.63 1598.74 L1056.89 1598.74 L1056.89 1634.76 L1052.63 1634.76 L1052.63 1598.74 Z" fill="#000000" fill-rule="nonzero" fill-opacity="1" /><path clip-path="url(#clip620)" d="M1077.58 1621.73 Q1072.42 1621.73 1070.43 1622.91 Q1068.44 1624.09 1068.44 1626.93 Q1068.44 1629.2 1069.92 1630.55 Q1071.42 1631.87 1073.99 1631.87 Q1077.54 1631.87 1079.67 1629.37 Q1081.82 1626.84 1081.82 1622.68 L1081.82 1621.73 L1077.58 1621.73 M1086.08 1619.97 L1086.08 1634.76 L1081.82 1634.76 L1081.82 1630.82 Q1080.36 1633.18 1078.18 1634.32 Q1076.01 1635.43 1072.86 1635.43 Q1068.88 1635.43 1066.52 1633.21 Q1064.18 1630.96 1064.18 1627.21 Q1064.18 1622.84 1067.1 1620.62 Q1070.04 1618.39 1075.85 1618.39 L1081.82 1618.39 L1081.82 1617.98 Q1081.82 1615.04 1079.87 1613.44 Q1077.95 1611.82 1074.46 1611.82 Q1072.23 1611.82 1070.13 1612.35 Q1068.02 1612.88 1066.08 1613.95 L1066.08 1610.01 Q1068.42 1609.11 1070.61 1608.67 Q1072.81 1608.21 1074.9 1608.21 Q1080.52 1608.21 1083.3 1611.12 Q1086.08 1614.04 1086.08 1619.97 Z" fill="#000000" fill-rule="nonzero" fill-opacity="1" /><path clip-path="url(#clip620)" d="M1099.06 1601.47 L1099.06 1608.83 L1107.84 1608.83 L1107.84 1612.14 L1099.06 1612.14 L1099.06 1626.22 Q1099.06 1629.39 1099.92 1630.29 Q1100.8 1631.19 1103.46 1631.19 L1107.84 1631.19 L1107.84 1634.76 L1103.46 1634.76 Q1098.53 1634.76 1096.66 1632.93 Q1094.78 1631.08 1094.78 1626.22 L1094.78 1612.14 L1091.66 1612.14 L1091.66 1608.83 L1094.78 1608.83 L1094.78 1601.47 L1099.06 1601.47 Z" fill="#000000" fill-rule="nonzero" fill-opacity="1" /><path clip-path="url(#clip620)" d="M1135.61 1620.73 L1135.61 1622.81 L1116.03 1622.81 Q1116.31 1627.21 1118.67 1629.53 Q1121.05 1631.82 1125.29 1631.82 Q1127.74 1631.82 1130.04 1631.22 Q1132.35 1630.62 1134.62 1629.41 L1134.62 1633.44 Q1132.33 1634.41 1129.92 1634.92 Q1127.51 1635.43 1125.04 1635.43 Q1118.83 1635.43 1115.2 1631.82 Q1111.59 1628.21 1111.59 1622.05 Q1111.59 1615.68 1115.01 1611.96 Q1118.46 1608.21 1124.29 1608.21 Q1129.53 1608.21 1132.56 1611.59 Q1135.61 1614.94 1135.61 1620.73 M1131.35 1619.48 Q1131.31 1615.99 1129.39 1613.9 Q1127.49 1611.82 1124.34 1611.82 Q1120.78 1611.82 1118.62 1613.83 Q1116.49 1615.85 1116.17 1619.5 L1131.35 1619.48 Z" fill="#000000" fill-rule="nonzero" fill-opacity="1" /><path clip-path="url(#clip620)" d="M1159.67 1612.77 L1159.67 1598.74 L1163.92 1598.74 L1163.92 1634.76 L1159.67 1634.76 L1159.67 1630.87 Q1158.32 1633.18 1156.26 1634.32 Q1154.23 1635.43 1151.35 1635.43 Q1146.66 1635.43 1143.69 1631.68 Q1140.75 1627.93 1140.75 1621.82 Q1140.75 1615.71 1143.69 1611.96 Q1146.66 1608.21 1151.35 1608.21 Q1154.23 1608.21 1156.26 1609.34 Q1158.32 1610.45 1159.67 1612.77 M1145.15 1621.82 Q1145.15 1626.52 1147.07 1629.2 Q1149.02 1631.87 1152.4 1631.87 Q1155.78 1631.87 1157.72 1629.2 Q1159.67 1626.52 1159.67 1621.82 Q1159.67 1617.12 1157.72 1614.46 Q1155.78 1611.77 1152.4 1611.77 Q1149.02 1611.77 1147.07 1614.46 Q1145.15 1617.12 1145.15 1621.82 Z" fill="#000000" fill-rule="nonzero" fill-opacity="1" /><polyline clip-path="url(#clip620)" style="stroke:#ffa500; stroke-linecap:round; stroke-linejoin:round; stroke-width:8; stroke-opacity:0.7; fill:none" points="485.58,1669.32 727.476,1669.32 "/>
<path clip-path="url(#clip620)" d="M793.348 1681.67 L793.348 1672.39 L785.709 1672.39 L785.709 1668.54 L797.977 1668.54 L797.977 1683.38 Q795.269 1685.3 792.005 1686.3 Q788.741 1687.27 785.037 1687.27 Q776.936 1687.27 772.352 1682.55 Q767.792 1677.8 767.792 1669.35 Q767.792 1660.88 772.352 1656.16 Q776.936 1651.41 785.037 1651.41 Q788.417 1651.41 791.449 1652.25 Q794.505 1653.08 797.074 1654.7 L797.074 1659.68 Q794.482 1657.48 791.565 1656.37 Q788.648 1655.26 785.431 1655.26 Q779.088 1655.26 775.894 1658.8 Q772.723 1662.34 772.723 1669.35 Q772.723 1676.34 775.894 1679.89 Q779.088 1683.43 785.431 1683.43 Q787.908 1683.43 789.852 1683.01 Q791.797 1682.57 793.348 1681.67 Z" fill="#000000" fill-rule="nonzero" fill-opacity="1" /><path clip-path="url(#clip620)" d="M821.357 1664.65 Q820.639 1664.24 819.783 1664.05 Q818.949 1663.84 817.931 1663.84 Q814.32 1663.84 812.375 1666.21 Q810.454 1668.54 810.454 1672.94 L810.454 1686.6 L806.172 1686.6 L806.172 1660.67 L810.454 1660.67 L810.454 1664.7 Q811.797 1662.34 813.949 1661.21 Q816.102 1660.05 819.181 1660.05 Q819.621 1660.05 820.153 1660.12 Q820.685 1660.16 821.334 1660.28 L821.357 1664.65 Z" fill="#000000" fill-rule="nonzero" fill-opacity="1" /><path clip-path="url(#clip620)" d="M834.829 1663.66 Q831.403 1663.66 829.412 1666.34 Q827.421 1669.01 827.421 1673.66 Q827.421 1678.31 829.389 1681 Q831.38 1683.66 834.829 1683.66 Q838.232 1683.66 840.222 1680.97 Q842.213 1678.29 842.213 1673.66 Q842.213 1669.05 840.222 1666.37 Q838.232 1663.66 834.829 1663.66 M834.829 1660.05 Q840.384 1660.05 843.556 1663.66 Q846.727 1667.27 846.727 1673.66 Q846.727 1680.02 843.556 1683.66 Q840.384 1687.27 834.829 1687.27 Q829.25 1687.27 826.079 1683.66 Q822.931 1680.02 822.931 1673.66 Q822.931 1667.27 826.079 1663.66 Q829.25 1660.05 834.829 1660.05 Z" fill="#000000" fill-rule="nonzero" fill-opacity="1" /><path clip-path="url(#clip620)" d="M853.347 1676.37 L853.347 1660.67 L857.606 1660.67 L857.606 1676.21 Q857.606 1679.89 859.042 1681.74 Q860.477 1683.57 863.347 1683.57 Q866.796 1683.57 868.787 1681.37 Q870.801 1679.17 870.801 1675.37 L870.801 1660.67 L875.06 1660.67 L875.06 1686.6 L870.801 1686.6 L870.801 1682.62 Q869.25 1684.98 867.19 1686.14 Q865.153 1687.27 862.444 1687.27 Q857.977 1687.27 855.662 1684.49 Q853.347 1681.71 853.347 1676.37 M864.065 1660.05 L864.065 1660.05 Z" fill="#000000" fill-rule="nonzero" fill-opacity="1" /><path clip-path="url(#clip620)" d="M905.384 1670.95 L905.384 1686.6 L901.125 1686.6 L901.125 1671.09 Q901.125 1667.41 899.69 1665.58 Q898.254 1663.75 895.384 1663.75 Q891.935 1663.75 889.944 1665.95 Q887.954 1668.15 887.954 1671.95 L887.954 1686.6 L883.671 1686.6 L883.671 1660.67 L887.954 1660.67 L887.954 1664.7 Q889.481 1662.36 891.541 1661.21 Q893.625 1660.05 896.333 1660.05 Q900.801 1660.05 903.092 1662.83 Q905.384 1665.58 905.384 1670.95 Z" fill="#000000" fill-rule="nonzero" fill-opacity="1" /><path clip-path="url(#clip620)" d="M930.939 1664.61 L930.939 1650.58 L935.199 1650.58 L935.199 1686.6 L930.939 1686.6 L930.939 1682.71 Q929.597 1685.02 927.537 1686.16 Q925.5 1687.27 922.629 1687.27 Q917.93 1687.27 914.967 1683.52 Q912.027 1679.77 912.027 1673.66 Q912.027 1667.55 914.967 1663.8 Q917.93 1660.05 922.629 1660.05 Q925.5 1660.05 927.537 1661.18 Q929.597 1662.29 930.939 1664.61 M916.426 1673.66 Q916.426 1678.36 918.347 1681.04 Q920.291 1683.71 923.671 1683.71 Q927.051 1683.71 928.995 1681.04 Q930.939 1678.36 930.939 1673.66 Q930.939 1668.96 928.995 1666.3 Q927.051 1663.61 923.671 1663.61 Q920.291 1663.61 918.347 1666.3 Q916.426 1668.96 916.426 1673.66 Z" fill="#000000" fill-rule="nonzero" fill-opacity="1" /><path clip-path="url(#clip620)" d="M954.435 1652.04 L983.671 1652.04 L983.671 1655.97 L971.402 1655.97 L971.402 1686.6 L966.703 1686.6 L966.703 1655.97 L954.435 1655.97 L954.435 1652.04 Z" fill="#000000" fill-rule="nonzero" fill-opacity="1" /><path clip-path="url(#clip620)" d="M996.055 1664.65 Q995.337 1664.24 994.481 1664.05 Q993.647 1663.84 992.629 1663.84 Q989.018 1663.84 987.073 1666.21 Q985.152 1668.54 985.152 1672.94 L985.152 1686.6 L980.87 1686.6 L980.87 1660.67 L985.152 1660.67 L985.152 1664.7 Q986.495 1662.34 988.647 1661.21 Q990.8 1660.05 993.879 1660.05 Q994.319 1660.05 994.851 1660.12 Q995.383 1660.16 996.032 1660.28 L996.055 1664.65 Z" fill="#000000" fill-rule="nonzero" fill-opacity="1" /><path clip-path="url(#clip620)" d="M1000.08 1676.37 L1000.08 1660.67 L1004.34 1660.67 L1004.34 1676.21 Q1004.34 1679.89 1005.78 1681.74 Q1007.21 1683.57 1010.08 1683.57 Q1013.53 1683.57 1015.52 1681.37 Q1017.54 1679.17 1017.54 1675.37 L1017.54 1660.67 L1021.8 1660.67 L1021.8 1686.6 L1017.54 1686.6 L1017.54 1682.62 Q1015.99 1684.98 1013.93 1686.14 Q1011.89 1687.27 1009.18 1687.27 Q1004.71 1687.27 1002.4 1684.49 Q1000.08 1681.71 1000.08 1676.37 M1010.8 1660.05 L1010.8 1660.05 Z" fill="#000000" fill-rule="nonzero" fill-opacity="1" /><path clip-path="url(#clip620)" d="M1034.78 1653.31 L1034.78 1660.67 L1043.55 1660.67 L1043.55 1663.98 L1034.78 1663.98 L1034.78 1678.06 Q1034.78 1681.23 1035.64 1682.13 Q1036.52 1683.03 1039.18 1683.03 L1043.55 1683.03 L1043.55 1686.6 L1039.18 1686.6 Q1034.25 1686.6 1032.37 1684.77 Q1030.5 1682.92 1030.5 1678.06 L1030.5 1663.98 L1027.37 1663.98 L1027.37 1660.67 L1030.5 1660.67 L1030.5 1653.31 L1034.78 1653.31 Z" fill="#000000" fill-rule="nonzero" fill-opacity="1" /><path clip-path="url(#clip620)" d="M1070.71 1670.95 L1070.71 1686.6 L1066.45 1686.6 L1066.45 1671.09 Q1066.45 1667.41 1065.01 1665.58 Q1063.58 1663.75 1060.71 1663.75 Q1057.26 1663.75 1055.27 1665.95 Q1053.28 1668.15 1053.28 1671.95 L1053.28 1686.6 L1048.99 1686.6 L1048.99 1650.58 L1053.28 1650.58 L1053.28 1664.7 Q1054.8 1662.36 1056.86 1661.21 Q1058.95 1660.05 1061.66 1660.05 Q1066.12 1660.05 1068.42 1662.83 Q1070.71 1665.58 1070.71 1670.95 Z" fill="#000000" fill-rule="nonzero" fill-opacity="1" /></svg>
