<?xml version="1.0" encoding="utf-8"?>
<svg xmlns="http://www.w3.org/2000/svg" xmlns:xlink="http://www.w3.org/1999/xlink" width="1000" height="500" viewBox="0 0 4000 2000">
<defs>
  <clipPath id="clip990">
    <rect x="0" y="0" width="4000" height="2000"/>
  </clipPath>
</defs>
<path clip-path="url(#clip990)" d="M0 2000 L4000 2000 L4000 0 L0 0  Z" fill="#ffffff" fill-rule="evenodd" fill-opacity="1"/>
<defs>
  <clipPath id="clip991">
    <rect x="800" y="0" width="2801" height="2000"/>
  </clipPath>
</defs>
<path clip-path="url(#clip990)" d="M324.316 1776.71 L3952.76 1776.71 L3952.76 110.236 L324.316 110.236  Z" fill="#ffffff" fill-rule="evenodd" fill-opacity="1"/>
<defs>
  <clipPath id="clip992">
    <rect x="324" y="110" width="3629" height="1667"/>
  </clipPath>
</defs>
<polyline clip-path="url(#clip992)" style="stroke:#000000; stroke-linecap:round; stroke-linejoin:round; stroke-width:2; stroke-opacity:0.1; fill:none" points="392.432,1776.71 392.432,110.236 "/>
<polyline clip-path="url(#clip992)" style="stroke:#000000; stroke-linecap:round; stroke-linejoin:round; stroke-width:2; stroke-opacity:0.1; fill:none" points="1256.84,1776.71 1256.84,110.236 "/>
<polyline clip-path="url(#clip992)" style="stroke:#000000; stroke-linecap:round; stroke-linejoin:round; stroke-width:2; stroke-opacity:0.1; fill:none" points="2121.25,1776.71 2121.25,110.236 "/>
<polyline clip-path="url(#clip992)" style="stroke:#000000; stroke-linecap:round; stroke-linejoin:round; stroke-width:2; stroke-opacity:0.1; fill:none" points="2985.66,1776.71 2985.66,110.236 "/>
<polyline clip-path="url(#clip992)" style="stroke:#000000; stroke-linecap:round; stroke-linejoin:round; stroke-width:2; stroke-opacity:0.1; fill:none" points="3850.06,1776.71 3850.06,110.236 "/>
<polyline clip-path="url(#clip990)" style="stroke:#000000; stroke-linecap:round; stroke-linejoin:round; stroke-width:4; stroke-opacity:1; fill:none" points="324.316,1776.71 3952.76,1776.71 "/>
<polyline clip-path="url(#clip990)" style="stroke:#000000; stroke-linecap:round; stroke-linejoin:round; stroke-width:4; stroke-opacity:1; fill:none" points="392.432,1776.71 392.432,1757.81 "/>
<polyline clip-path="url(#clip990)" style="stroke:#000000; stroke-linecap:round; stroke-linejoin:round; stroke-width:4; stroke-opacity:1; fill:none" points="1256.84,1776.71 1256.84,1757.81 "/>
<polyline clip-path="url(#clip990)" style="stroke:#000000; stroke-linecap:round; stroke-linejoin:round; stroke-width:4; stroke-opacity:1; fill:none" points="2121.25,1776.71 2121.25,1757.81 "/>
<polyline clip-path="url(#clip990)" style="stroke:#000000; stroke-linecap:round; stroke-linejoin:round; stroke-width:4; stroke-opacity:1; fill:none" points="2985.66,1776.71 2985.66,1757.81 "/>
<polyline clip-path="url(#clip990)" style="stroke:#000000; stroke-linecap:round; stroke-linejoin:round; stroke-width:4; stroke-opacity:1; fill:none" points="3850.06,1776.71 3850.06,1757.81 "/>
<path clip-path="url(#clip990)" d="M392.432 1820.43 Q388.82 1820.43 386.992 1823.99 Q385.186 1827.53 385.186 1834.66 Q385.186 1841.77 386.992 1845.33 Q388.82 1848.88 392.432 1848.88 Q396.066 1848.88 397.871 1845.33 Q399.7 1841.77 399.7 1834.66 Q399.7 1827.53 397.871 1823.99 Q396.066 1820.43 392.432 1820.43 M392.432 1816.72 Q398.242 1816.72 401.297 1821.33 Q404.376 1825.91 404.376 1834.66 Q404.376 1843.39 401.297 1848 Q398.242 1852.58 392.432 1852.58 Q386.621 1852.58 383.543 1848 Q380.487 1843.39 380.487 1834.66 Q380.487 1825.91 383.543 1821.33 Q386.621 1816.72 392.432 1816.72 Z" fill="#000000" fill-rule="nonzero" fill-opacity="1" /><path clip-path="url(#clip990)" d="M1236.11 1847.97 L1252.43 1847.97 L1252.43 1851.91 L1230.49 1851.91 L1230.49 1847.97 Q1233.15 1845.22 1237.73 1840.59 Q1242.34 1835.94 1243.52 1834.59 Q1245.76 1832.07 1246.64 1830.33 Q1247.55 1828.57 1247.55 1826.88 Q1247.55 1824.13 1245.6 1822.39 Q1243.68 1820.66 1240.58 1820.66 Q1238.38 1820.66 1235.93 1821.42 Q1233.49 1822.19 1230.72 1823.74 L1230.72 1819.01 Q1233.54 1817.88 1235.99 1817.3 Q1238.45 1816.72 1240.49 1816.72 Q1245.86 1816.72 1249.05 1819.41 Q1252.24 1822.09 1252.24 1826.58 Q1252.24 1828.71 1251.43 1830.63 Q1250.65 1832.53 1248.54 1835.13 Q1247.96 1835.8 1244.86 1839.01 Q1241.76 1842.21 1236.11 1847.97 Z" fill="#000000" fill-rule="nonzero" fill-opacity="1" /><path clip-path="url(#clip990)" d="M1262.29 1817.35 L1280.65 1817.35 L1280.65 1821.28 L1266.57 1821.28 L1266.57 1829.76 Q1267.59 1829.41 1268.61 1829.25 Q1269.63 1829.06 1270.65 1829.06 Q1276.43 1829.06 1279.81 1832.23 Q1283.19 1835.4 1283.19 1840.82 Q1283.19 1846.4 1279.72 1849.5 Q1276.25 1852.58 1269.93 1852.58 Q1267.75 1852.58 1265.49 1852.21 Q1263.24 1851.84 1260.83 1851.1 L1260.83 1846.4 Q1262.92 1847.53 1265.14 1848.09 Q1267.36 1848.64 1269.84 1848.64 Q1273.84 1848.64 1276.18 1846.54 Q1278.52 1844.43 1278.52 1840.82 Q1278.52 1837.21 1276.18 1835.1 Q1273.84 1833 1269.84 1833 Q1267.96 1833 1266.09 1833.41 Q1264.24 1833.83 1262.29 1834.71 L1262.29 1817.35 Z" fill="#000000" fill-rule="nonzero" fill-opacity="1" /><path clip-path="url(#clip990)" d="M2095.95 1817.35 L2114.3 1817.35 L2114.3 1821.28 L2100.23 1821.28 L2100.23 1829.76 Q2101.25 1829.41 2102.27 1829.25 Q2103.28 1829.06 2104.3 1829.06 Q2110.09 1829.06 2113.47 1832.23 Q2116.85 1835.4 2116.85 1840.82 Q2116.85 1846.4 2113.38 1849.5 Q2109.91 1852.58 2103.59 1852.58 Q2101.41 1852.58 2099.14 1852.21 Q2096.9 1851.84 2094.49 1851.1 L2094.49 1846.4 Q2096.57 1847.53 2098.79 1848.09 Q2101.02 1848.64 2103.49 1848.64 Q2107.5 1848.64 2109.84 1846.54 Q2112.17 1844.43 2112.17 1840.82 Q2112.17 1837.21 2109.84 1835.1 Q2107.5 1833 2103.49 1833 Q2101.62 1833 2099.74 1833.41 Q2097.89 1833.83 2095.95 1834.71 L2095.95 1817.35 Z" fill="#000000" fill-rule="nonzero" fill-opacity="1" /><path clip-path="url(#clip990)" d="M2136.06 1820.43 Q2132.45 1820.43 2130.62 1823.99 Q2128.82 1827.53 2128.82 1834.66 Q2128.82 1841.77 2130.62 1845.33 Q2132.45 1848.88 2136.06 1848.88 Q2139.7 1848.88 2141.5 1845.33 Q2143.33 1841.77 2143.33 1834.66 Q2143.33 1827.53 2141.5 1823.99 Q2139.7 1820.43 2136.06 1820.43 M2136.06 1816.72 Q2141.87 1816.72 2144.93 1821.33 Q2148.01 1825.91 2148.01 1834.66 Q2148.01 1843.39 2144.93 1848 Q2141.87 1852.58 2136.06 1852.58 Q2130.25 1852.58 2127.17 1848 Q2124.12 1843.39 2124.12 1834.66 Q2124.12 1825.91 2127.17 1821.33 Q2130.25 1816.72 2136.06 1816.72 Z" fill="#000000" fill-rule="nonzero" fill-opacity="1" /><path clip-path="url(#clip990)" d="M2959.51 1817.35 L2981.73 1817.35 L2981.73 1819.34 L2969.19 1851.91 L2964.3 1851.91 L2976.11 1821.28 L2959.51 1821.28 L2959.51 1817.35 Z" fill="#000000" fill-rule="nonzero" fill-opacity="1" /><path clip-path="url(#clip990)" d="M2990.9 1817.35 L3009.26 1817.35 L3009.26 1821.28 L2995.18 1821.28 L2995.18 1829.76 Q2996.2 1829.41 2997.22 1829.25 Q2998.24 1829.06 2999.26 1829.06 Q3005.04 1829.06 3008.42 1832.23 Q3011.8 1835.4 3011.8 1840.82 Q3011.8 1846.4 3008.33 1849.5 Q3004.86 1852.58 2998.54 1852.58 Q2996.36 1852.58 2994.09 1852.21 Q2991.85 1851.84 2989.44 1851.1 L2989.44 1846.4 Q2991.52 1847.53 2993.75 1848.09 Q2995.97 1848.64 2998.45 1848.64 Q3002.45 1848.64 3004.79 1846.54 Q3007.13 1844.43 3007.13 1840.82 Q3007.13 1837.21 3004.79 1835.1 Q3002.45 1833 2998.45 1833 Q2996.57 1833 2994.7 1833.41 Q2992.84 1833.83 2990.9 1834.71 L2990.9 1817.35 Z" fill="#000000" fill-rule="nonzero" fill-opacity="1" /><path clip-path="url(#clip990)" d="M3809.67 1847.97 L3817.31 1847.97 L3817.31 1821.61 L3809 1823.27 L3809 1819.01 L3817.26 1817.35 L3821.94 1817.35 L3821.94 1847.97 L3829.58 1847.97 L3829.58 1851.91 L3809.67 1851.91 L3809.67 1847.97 Z" fill="#000000" fill-rule="nonzero" fill-opacity="1" /><path clip-path="url(#clip990)" d="M3849.02 1820.43 Q3845.41 1820.43 3843.58 1823.99 Q3841.78 1827.53 3841.78 1834.66 Q3841.78 1841.77 3843.58 1845.33 Q3845.41 1848.88 3849.02 1848.88 Q3852.66 1848.88 3854.46 1845.33 Q3856.29 1841.77 3856.29 1834.66 Q3856.29 1827.53 3854.46 1823.99 Q3852.66 1820.43 3849.02 1820.43 M3849.02 1816.72 Q3854.83 1816.72 3857.89 1821.33 Q3860.97 1825.91 3860.97 1834.66 Q3860.97 1843.39 3857.89 1848 Q3854.83 1852.58 3849.02 1852.58 Q3843.21 1852.58 3840.13 1848 Q3837.08 1843.39 3837.08 1834.66 Q3837.08 1825.91 3840.13 1821.33 Q3843.21 1816.72 3849.02 1816.72 Z" fill="#000000" fill-rule="nonzero" fill-opacity="1" /><path clip-path="url(#clip990)" d="M3879.18 1820.43 Q3875.57 1820.43 3873.74 1823.99 Q3871.94 1827.53 3871.94 1834.66 Q3871.94 1841.77 3873.74 1845.33 Q3875.57 1848.88 3879.18 1848.88 Q3882.82 1848.88 3884.62 1845.33 Q3886.45 1841.77 3886.45 1834.66 Q3886.45 1827.53 3884.62 1823.99 Q3882.82 1820.43 3879.18 1820.43 M3879.18 1816.72 Q3884.99 1816.72 3888.05 1821.33 Q3891.13 1825.91 3891.13 1834.66 Q3891.13 1843.39 3888.05 1848 Q3884.99 1852.58 3879.18 1852.58 Q3873.37 1852.58 3870.3 1848 Q3867.24 1843.39 3867.24 1834.66 Q3867.24 1825.91 3870.3 1821.33 Q3873.37 1816.72 3879.18 1816.72 Z" fill="#000000" fill-rule="nonzero" fill-opacity="1" /><path clip-path="url(#clip990)" d="M2077.7 1899.8 L2077.7 1909.92 L2089.76 1909.92 L2089.76 1914.48 L2077.7 1914.48 L2077.7 1933.83 Q2077.7 1938.19 2078.87 1939.43 Q2080.08 1940.67 2083.74 1940.67 L2089.76 1940.67 L2089.76 1945.57 L2083.74 1945.57 Q2076.96 1945.57 2074.39 1943.06 Q2071.81 1940.51 2071.81 1933.83 L2071.81 1914.48 L2067.51 1914.48 L2067.51 1909.92 L2071.81 1909.92 L2071.81 1899.8 L2077.7 1899.8 Z" fill="#000000" fill-rule="nonzero" fill-opacity="1" /><path clip-path="url(#clip990)" d="M2097.46 1909.92 L2103.32 1909.92 L2103.32 1945.57 L2097.46 1945.57 L2097.46 1909.92 M2097.46 1896.05 L2103.32 1896.05 L2103.32 1903.46 L2097.46 1903.46 L2097.46 1896.05 Z" fill="#000000" fill-rule="nonzero" fill-opacity="1" /><path clip-path="url(#clip990)" d="M2143.33 1916.77 Q2145.52 1912.82 2148.58 1910.94 Q2151.63 1909.06 2155.77 1909.06 Q2161.34 1909.06 2164.36 1912.98 Q2167.39 1916.86 2167.39 1924.06 L2167.39 1945.57 L2161.5 1945.57 L2161.5 1924.25 Q2161.5 1919.12 2159.69 1916.64 Q2157.87 1914.16 2154.15 1914.16 Q2149.6 1914.16 2146.95 1917.18 Q2144.31 1920.2 2144.31 1925.42 L2144.31 1945.57 L2138.42 1945.57 L2138.42 1924.25 Q2138.42 1919.09 2136.61 1916.64 Q2134.8 1914.16 2131.01 1914.16 Q2126.52 1914.16 2123.88 1917.21 Q2121.24 1920.24 2121.24 1925.42 L2121.24 1945.57 L2115.35 1945.57 L2115.35 1909.92 L2121.24 1909.92 L2121.24 1915.46 Q2123.24 1912.18 2126.04 1910.62 Q2128.84 1909.06 2132.7 1909.06 Q2136.58 1909.06 2139.28 1911.04 Q2142.02 1913.01 2143.33 1916.77 Z" fill="#000000" fill-rule="nonzero" fill-opacity="1" /><path clip-path="url(#clip990)" d="M2209.56 1926.28 L2209.56 1929.15 L2182.63 1929.15 Q2183.02 1935.2 2186.26 1938.38 Q2189.54 1941.53 2195.37 1941.53 Q2198.74 1941.53 2201.89 1940.7 Q2205.07 1939.87 2208.19 1938.22 L2208.19 1943.76 Q2205.04 1945.09 2201.73 1945.79 Q2198.42 1946.49 2195.02 1946.49 Q2186.49 1946.49 2181.49 1941.53 Q2176.52 1936.56 2176.52 1928.1 Q2176.52 1919.35 2181.23 1914.22 Q2185.98 1909.06 2194 1909.06 Q2201.19 1909.06 2205.36 1913.71 Q2209.56 1918.33 2209.56 1926.28 M2203.7 1924.56 Q2203.64 1919.76 2201 1916.89 Q2198.39 1914.03 2194.06 1914.03 Q2189.16 1914.03 2186.2 1916.8 Q2183.27 1919.57 2182.83 1924.6 L2203.7 1924.56 Z" fill="#000000" fill-rule="nonzero" fill-opacity="1" /><polyline clip-path="url(#clip992)" style="stroke:#000000; stroke-linecap:round; stroke-linejoin:round; stroke-width:2; stroke-opacity:0.1; fill:none" points="324.316,1729.54 3952.76,1729.54 "/>
<polyline clip-path="url(#clip992)" style="stroke:#000000; stroke-linecap:round; stroke-linejoin:round; stroke-width:2; stroke-opacity:0.1; fill:none" points="324.316,1331.92 3952.76,1331.92 "/>
<polyline clip-path="url(#clip992)" style="stroke:#000000; stroke-linecap:round; stroke-linejoin:round; stroke-width:2; stroke-opacity:0.1; fill:none" points="324.316,934.296 3952.76,934.296 "/>
<polyline clip-path="url(#clip992)" style="stroke:#000000; stroke-linecap:round; stroke-linejoin:round; stroke-width:2; stroke-opacity:0.1; fill:none" points="324.316,536.672 3952.76,536.672 "/>
<polyline clip-path="url(#clip992)" style="stroke:#000000; stroke-linecap:round; stroke-linejoin:round; stroke-width:2; stroke-opacity:0.1; fill:none" points="324.316,139.048 3952.76,139.048 "/>
<polyline clip-path="url(#clip990)" style="stroke:#000000; stroke-linecap:round; stroke-linejoin:round; stroke-width:4; stroke-opacity:1; fill:none" points="324.316,1776.71 324.316,110.236 "/>
<polyline clip-path="url(#clip990)" style="stroke:#000000; stroke-linecap:round; stroke-linejoin:round; stroke-width:4; stroke-opacity:1; fill:none" points="324.316,1729.54 343.214,1729.54 "/>
<polyline clip-path="url(#clip990)" style="stroke:#000000; stroke-linecap:round; stroke-linejoin:round; stroke-width:4; stroke-opacity:1; fill:none" points="324.316,1331.92 343.214,1331.92 "/>
<polyline clip-path="url(#clip990)" style="stroke:#000000; stroke-linecap:round; stroke-linejoin:round; stroke-width:4; stroke-opacity:1; fill:none" points="324.316,934.296 343.214,934.296 "/>
<polyline clip-path="url(#clip990)" style="stroke:#000000; stroke-linecap:round; stroke-linejoin:round; stroke-width:4; stroke-opacity:1; fill:none" points="324.316,536.672 343.214,536.672 "/>
<polyline clip-path="url(#clip990)" style="stroke:#000000; stroke-linecap:round; stroke-linejoin:round; stroke-width:4; stroke-opacity:1; fill:none" points="324.316,139.048 343.214,139.048 "/>
<path clip-path="url(#clip990)" d="M157.372 1729.99 L187.048 1729.99 L187.048 1733.93 L157.372 1733.93 L157.372 1729.99 Z" fill="#000000" fill-rule="nonzero" fill-opacity="1" /><path clip-path="url(#clip990)" d="M197.951 1742.89 L205.59 1742.89 L205.59 1716.52 L197.279 1718.19 L197.279 1713.93 L205.543 1712.26 L210.219 1712.26 L210.219 1742.89 L217.858 1742.89 L217.858 1746.82 L197.951 1746.82 L197.951 1742.89 Z" fill="#000000" fill-rule="nonzero" fill-opacity="1" /><path clip-path="url(#clip990)" d="M227.302 1740.94 L232.187 1740.94 L232.187 1746.82 L227.302 1746.82 L227.302 1740.94 Z" fill="#000000" fill-rule="nonzero" fill-opacity="1" /><path clip-path="url(#clip990)" d="M252.372 1715.34 Q248.761 1715.34 246.932 1718.91 Q245.126 1722.45 245.126 1729.58 Q245.126 1736.68 246.932 1740.25 Q248.761 1743.79 252.372 1743.79 Q256.006 1743.79 257.812 1740.25 Q259.64 1736.68 259.64 1729.58 Q259.64 1722.45 257.812 1718.91 Q256.006 1715.34 252.372 1715.34 M252.372 1711.64 Q258.182 1711.64 261.237 1716.24 Q264.316 1720.83 264.316 1729.58 Q264.316 1738.3 261.237 1742.91 Q258.182 1747.49 252.372 1747.49 Q246.562 1747.49 243.483 1742.91 Q240.427 1738.3 240.427 1729.58 Q240.427 1720.83 243.483 1716.24 Q246.562 1711.64 252.372 1711.64 Z" fill="#000000" fill-rule="nonzero" fill-opacity="1" /><path clip-path="url(#clip990)" d="M158.368 1332.37 L188.043 1332.37 L188.043 1336.31 L158.368 1336.31 L158.368 1332.37 Z" fill="#000000" fill-rule="nonzero" fill-opacity="1" /><path clip-path="url(#clip990)" d="M208.136 1317.72 Q204.525 1317.72 202.696 1321.28 Q200.891 1324.82 200.891 1331.95 Q200.891 1339.06 202.696 1342.63 Q204.525 1346.17 208.136 1346.17 Q211.77 1346.17 213.576 1342.63 Q215.404 1339.06 215.404 1331.95 Q215.404 1324.82 213.576 1321.28 Q211.77 1317.72 208.136 1317.72 M208.136 1314.01 Q213.946 1314.01 217.002 1318.62 Q220.08 1323.2 220.08 1331.95 Q220.08 1340.68 217.002 1345.29 Q213.946 1349.87 208.136 1349.87 Q202.326 1349.87 199.247 1345.29 Q196.192 1340.68 196.192 1331.95 Q196.192 1323.2 199.247 1318.62 Q202.326 1314.01 208.136 1314.01 Z" fill="#000000" fill-rule="nonzero" fill-opacity="1" /><path clip-path="url(#clip990)" d="M228.298 1343.32 L233.182 1343.32 L233.182 1349.2 L228.298 1349.2 L228.298 1343.32 Z" fill="#000000" fill-rule="nonzero" fill-opacity="1" /><path clip-path="url(#clip990)" d="M243.413 1314.64 L261.77 1314.64 L261.77 1318.57 L247.696 1318.57 L247.696 1327.05 Q248.714 1326.7 249.733 1326.54 Q250.751 1326.35 251.77 1326.35 Q257.557 1326.35 260.937 1329.52 Q264.316 1332.69 264.316 1338.11 Q264.316 1343.69 260.844 1346.79 Q257.372 1349.87 251.052 1349.87 Q248.876 1349.87 246.608 1349.5 Q244.363 1349.13 241.955 1348.39 L241.955 1343.69 Q244.038 1344.82 246.261 1345.38 Q248.483 1345.94 250.96 1345.94 Q254.964 1345.94 257.302 1343.83 Q259.64 1341.72 259.64 1338.11 Q259.64 1334.5 257.302 1332.39 Q254.964 1330.29 250.96 1330.29 Q249.085 1330.29 247.21 1330.7 Q245.358 1331.12 243.413 1332 L243.413 1314.64 Z" fill="#000000" fill-rule="nonzero" fill-opacity="1" /><path clip-path="url(#clip990)" d="M207.141 920.094 Q203.529 920.094 201.701 923.659 Q199.895 927.201 199.895 934.33 Q199.895 941.437 201.701 945.001 Q203.529 948.543 207.141 948.543 Q210.775 948.543 212.58 945.001 Q214.409 941.437 214.409 934.33 Q214.409 927.201 212.58 923.659 Q210.775 920.094 207.141 920.094 M207.141 916.391 Q212.951 916.391 216.006 920.997 Q219.085 925.58 219.085 934.33 Q219.085 943.057 216.006 947.664 Q212.951 952.247 207.141 952.247 Q201.33 952.247 198.252 947.664 Q195.196 943.057 195.196 934.33 Q195.196 925.58 198.252 920.997 Q201.33 916.391 207.141 916.391 Z" fill="#000000" fill-rule="nonzero" fill-opacity="1" /><path clip-path="url(#clip990)" d="M227.302 945.696 L232.187 945.696 L232.187 951.576 L227.302 951.576 L227.302 945.696 Z" fill="#000000" fill-rule="nonzero" fill-opacity="1" /><path clip-path="url(#clip990)" d="M252.372 920.094 Q248.761 920.094 246.932 923.659 Q245.126 927.201 245.126 934.33 Q245.126 941.437 246.932 945.001 Q248.761 948.543 252.372 948.543 Q256.006 948.543 257.812 945.001 Q259.64 941.437 259.64 934.33 Q259.64 927.201 257.812 923.659 Q256.006 920.094 252.372 920.094 M252.372 916.391 Q258.182 916.391 261.237 920.997 Q264.316 925.58 264.316 934.33 Q264.316 943.057 261.237 947.664 Q258.182 952.247 252.372 952.247 Q246.562 952.247 243.483 947.664 Q240.427 943.057 240.427 934.33 Q240.427 925.58 243.483 920.997 Q246.562 916.391 252.372 916.391 Z" fill="#000000" fill-rule="nonzero" fill-opacity="1" /><path clip-path="url(#clip990)" d="M208.136 522.47 Q204.525 522.47 202.696 526.035 Q200.891 529.577 200.891 536.706 Q200.891 543.813 202.696 547.378 Q204.525 550.919 208.136 550.919 Q211.77 550.919 213.576 547.378 Q215.404 543.813 215.404 536.706 Q215.404 529.577 213.576 526.035 Q211.77 522.47 208.136 522.47 M208.136 518.767 Q213.946 518.767 217.002 523.373 Q220.08 527.956 220.08 536.706 Q220.08 545.433 217.002 550.04 Q213.946 554.623 208.136 554.623 Q202.326 554.623 199.247 550.04 Q196.192 545.433 196.192 536.706 Q196.192 527.956 199.247 523.373 Q202.326 518.767 208.136 518.767 Z" fill="#000000" fill-rule="nonzero" fill-opacity="1" /><path clip-path="url(#clip990)" d="M228.298 548.072 L233.182 548.072 L233.182 553.952 L228.298 553.952 L228.298 548.072 Z" fill="#000000" fill-rule="nonzero" fill-opacity="1" /><path clip-path="url(#clip990)" d="M243.413 519.392 L261.77 519.392 L261.77 523.327 L247.696 523.327 L247.696 531.799 Q248.714 531.452 249.733 531.29 Q250.751 531.104 251.77 531.104 Q257.557 531.104 260.937 534.276 Q264.316 537.447 264.316 542.864 Q264.316 548.442 260.844 551.544 Q257.372 554.623 251.052 554.623 Q248.876 554.623 246.608 554.253 Q244.363 553.882 241.955 553.141 L241.955 548.442 Q244.038 549.577 246.261 550.132 Q248.483 550.688 250.96 550.688 Q254.964 550.688 257.302 548.581 Q259.64 546.475 259.64 542.864 Q259.64 539.253 257.302 537.146 Q254.964 535.04 250.96 535.04 Q249.085 535.04 247.21 535.456 Q245.358 535.873 243.413 536.753 L243.413 519.392 Z" fill="#000000" fill-rule="nonzero" fill-opacity="1" /><path clip-path="url(#clip990)" d="M197.951 152.392 L205.59 152.392 L205.59 126.027 L197.279 127.694 L197.279 123.434 L205.543 121.768 L210.219 121.768 L210.219 152.392 L217.858 152.392 L217.858 156.328 L197.951 156.328 L197.951 152.392 Z" fill="#000000" fill-rule="nonzero" fill-opacity="1" /><path clip-path="url(#clip990)" d="M227.302 150.448 L232.187 150.448 L232.187 156.328 L227.302 156.328 L227.302 150.448 Z" fill="#000000" fill-rule="nonzero" fill-opacity="1" /><path clip-path="url(#clip990)" d="M252.372 124.846 Q248.761 124.846 246.932 128.411 Q245.126 131.953 245.126 139.082 Q245.126 146.189 246.932 149.754 Q248.761 153.295 252.372 153.295 Q256.006 153.295 257.812 149.754 Q259.64 146.189 259.64 139.082 Q259.64 131.953 257.812 128.411 Q256.006 124.846 252.372 124.846 M252.372 121.143 Q258.182 121.143 261.237 125.749 Q264.316 130.332 264.316 139.082 Q264.316 147.809 261.237 152.416 Q258.182 156.999 252.372 156.999 Q246.562 156.999 243.483 152.416 Q240.427 147.809 240.427 139.082 Q240.427 130.332 243.483 125.749 Q246.562 121.143 252.372 121.143 Z" fill="#000000" fill-rule="nonzero" fill-opacity="1" /><path clip-path="url(#clip990)" d="M47.4683 926.857 L64.8149 939.748 L83.1163 926.189 L83.1163 933.096 L69.1117 943.472 L83.1163 953.848 L83.1163 960.755 L64.4648 946.909 L47.4683 959.577 L47.4683 952.67 L60.1679 943.217 L47.4683 933.764 L47.4683 926.857 Z" fill="#000000" fill-rule="nonzero" fill-opacity="1" /><polyline clip-path="url(#clip992)" style="stroke:#009af9; stroke-linecap:round; stroke-linejoin:round; stroke-width:8; stroke-opacity:0.8; fill:none" stroke-dasharray="4, 8" points="427.008,1389.06 461.584,1222.83 496.16,1070.22 530.737,946.371 565.313,840.994 599.889,744.481 634.466,653.327 669.042,560.499 703.618,477.532 738.195,392.106 772.771,336.751 807.347,305.843 841.924,299.494 876.5,301.054 911.076,293.331 945.653,285.652 980.229,292.435 1014.81,212.443 1049.38,158.697 1083.96,345.107 1118.53,1209.86 1153.11,1729.54 1187.69,1502.34 1222.26,1305.6 1256.84,1158.4 1291.42,1020.98 1325.99,890.159 1360.57,803.875 1395.15,697.709 1429.72,614.288 1464.3,525.856 1498.87,446.888 1533.45,383.03 1568.03,324.261 1602.6,310.105 1637.18,308.674 1671.76,300.085 1706.33,294.041 1740.91,299.052 1775.48,274.876 1810.06,178.89 1844.64,198.214 1879.21,743.357 1913.79,1592.52 1948.37,1684.69 1982.94,1504.33 2017.52,1309.25 2052.1,1158.95 2086.67,1021.14 2121.25,891.352 2155.82,801.569 2190.4,698.982 2224.98,618.662 2259.55,527.208 2294.13,444.979 2328.71,374.839 2363.28,320.762 2397.86,307.163 2432.43,306.606 2467.01,310.424 2501.59,294.598 2536.16,301.517 2570.74,275.194 2605.32,177.776 2639.89,202.111 2674.47,719.022 2709.05,1576.54 2743.62,1689.46 2778.2,1509.42 2812.77,1316.25 2847.35,1160.38 2881.93,1024.95 2916.5,895.408 2951.08,804.352 2985.66,699.459 3020.23,657.908 3054.81,597.524 3089.39,482.087 3123.96,403.076 3158.54,343.219 3193.11,312.799 3227.69,300.064 3262.27,306.763 3296.84,299.952 3331.42,284.891 3366,331.224 3400.57,228.571 3435.15,157.401 3469.72,296.497 3504.3,1107.95 3538.88,1710.4 3573.45,1613.79 3608.03,1418.91 3642.61,1241.85 3677.18,1091.49 3711.76,960.34 3746.34,842.276 3780.91,749.54 3815.49,659.129 3850.06,577.556 "/>
<polyline clip-path="url(#clip992)" style="stroke:#ffa500; stroke-linecap:round; stroke-linejoin:round; stroke-width:8; stroke-opacity:0.7; fill:none" points="427.008,1389.06 461.584,1222.83 496.16,1070.22 530.737,946.371 565.313,840.994 599.889,744.481 634.466,653.327 669.042,560.499 703.618,477.532 738.195,392.106 772.771,336.751 807.347,305.843 841.924,299.494 876.5,301.054 911.076,293.331 945.653,285.652 980.229,292.435 1014.81,212.443 1049.38,158.697 1083.96,345.107 1118.53,1209.86 1153.11,1729.54 1187.69,1593.05 1222.26,686.99 1256.84,686.99 1291.42,686.99 1325.99,686.99 1360.57,686.99 1395.15,686.99 1429.72,686.99 1464.3,686.99 1498.87,686.99 1533.45,686.99 1568.03,686.99 1602.6,686.99 1637.18,686.99 1671.76,686.99 1706.33,686.99 1740.91,686.99 1775.48,686.99 1810.06,686.99 1844.64,686.99 1879.21,686.99 1913.79,686.99 1948.37,686.99 1982.94,686.99 2017.52,686.99 2052.1,686.99 2086.67,686.99 2121.25,686.99 2155.82,686.99 2190.4,686.99 2224.98,686.99 2259.55,686.99 2294.13,686.99 2328.71,686.99 2363.28,686.99 2397.86,686.99 2432.43,686.99 2467.01,686.99 2501.59,686.99 2536.16,686.99 2570.74,686.99 2605.32,686.99 2639.89,686.99 2674.47,686.99 2709.05,686.99 2743.62,686.99 2778.2,1605.24 2812.77,1420.53 2847.35,1234.05 2881.93,1084.19 2916.5,957.822 2951.08,847.655 2985.66,757.873 3020.23,657.908 3054.81,597.524 3089.39,482.087 3123.96,403.076 3158.54,343.219 3193.11,312.799 3227.69,300.064 3262.27,306.763 3296.84,299.952 3331.42,284.891 3366,331.224 3400.57,228.571 3435.15,157.401 3469.72,296.497 3504.3,1107.95 3538.88,1710.4 3573.45,1613.79 3608.03,1418.91 3642.61,1241.85 3677.18,1091.49 3711.76,960.34 3746.34,842.276 3780.91,749.54 3815.49,659.129 3850.06,577.556 "/>
<polyline clip-path="url(#clip992)" style="stroke:#ff0000; stroke-linecap:round; stroke-linejoin:round; stroke-width:8; stroke-opacity:0.7; fill:none" points="427.008,1496.36 461.584,1309.85 496.16,1150.75 530.737,1017.92 565.313,895.428 599.889,797.363 634.466,708.461 669.042,625.928 703.618,539.374 738.195,456.889 772.771,387.626 807.347,339.886 841.924,322.682 876.5,325.528 911.076,322.408 945.653,302.035 980.229,308.847 1014.81,290.178 1049.38,194.329 1083.96,205.089 1118.53,693.685 1153.11,1562.79 1187.69,1691.99 1222.26,1503.52 1256.84,1318.31 1291.42,1157.63 1325.99,1017.13 1360.57,903.735 1395.15,799.986 1429.72,713.132 1464.3,627.601 1498.87,539.189 1533.45,461.179 1568.03,391.267 1602.6,345.593 1637.18,331.469 1671.76,327.42 1706.33,329.183 1740.91,308.296 1775.48,320.025 1810.06,290.647 1844.64,202.61 1879.21,201.682 1913.79,666.908 1948.37,1543.45 1982.94,1528.58 2017.52,1513.7 2052.1,1327.21 2086.67,1162.35 2121.25,1026.4 2155.82,903.663 2190.4,805.738 2224.98,717.896 2259.55,629.195 2294.13,540.238 2328.71,460.548 2363.28,395.058 2397.86,345.339 2432.43,323.166 2467.01,323.313 2501.59,325.032 2536.16,313.114 2570.74,318.442 2605.32,290.861 2639.89,200.769 2674.47,193.667 2709.05,637.785 2743.62,1526.44 2778.2,1704.83 2812.77,1518.91 2847.35,1332.04 2881.93,1169.99 2916.5,1027.93 2951.08,909.681 2985.66,808.967 3020.23,721.173 3054.81,629.18 3089.39,546.549 3123.96,464.84 3158.54,397.357 3193.11,345.871 3227.69,328.04 3262.27,329.729 3296.84,332.756 3331.42,315.196 3366,315.209 3400.57,298.368 3435.15,210.784 3469.72,195.819 3504.3,610.114 3538.88,1505.64 3573.45,1711.89 3608.03,1527.79 3642.61,1338.95 3677.18,1174.81 3711.76,1036.11 3746.34,914.969 3780.91,814.621 3815.49,725.805 3850.06,635.152 "/>
<path clip-path="url(#clip990)" d="M445.264 1721.16 L1240.81 1721.16 L1240.81 1513.8 L445.264 1513.8  Z" fill="#ffffff" fill-rule="evenodd" fill-opacity="1"/>
<polyline clip-path="url(#clip990)" style="stroke:#000000; stroke-linecap:round; stroke-linejoin:round; stroke-width:4; stroke-opacity:1; fill:none" points="445.264,1721.16 1240.81,1721.16 1240.81,1513.8 445.264,1513.8 445.264,1721.16 "/>
<polyline clip-path="url(#clip990)" style="stroke:#009af9; stroke-linecap:round; stroke-linejoin:round; stroke-width:8; stroke-opacity:0.8; fill:none" stroke-dasharray="4, 8" points="485.58,1565.64 727.476,1565.64 "/>
<path clip-path="url(#clip990)" d="M767.792 1548.36 L774.76 1548.36 L783.579 1571.88 L792.445 1548.36 L799.412 1548.36 L799.412 1582.92 L794.852 1582.92 L794.852 1552.57 L785.94 1576.28 L781.241 1576.28 L772.329 1552.57 L772.329 1582.92 L767.792 1582.92 L767.792 1548.36 Z" fill="#000000" fill-rule="nonzero" fill-opacity="1" /><path clip-path="url(#clip990)" d="M813.371 1552.2 L813.371 1565.19 L819.25 1565.19 Q822.514 1565.19 824.296 1563.5 Q826.079 1561.81 826.079 1558.68 Q826.079 1555.58 824.296 1553.89 Q822.514 1552.2 819.25 1552.2 L813.371 1552.2 M808.695 1548.36 L819.25 1548.36 Q825.06 1548.36 828.023 1551 Q831.009 1553.61 831.009 1558.68 Q831.009 1563.8 828.023 1566.41 Q825.06 1569.03 819.25 1569.03 L813.371 1569.03 L813.371 1582.92 L808.695 1582.92 L808.695 1548.36 Z" fill="#000000" fill-rule="nonzero" fill-opacity="1" /><path clip-path="url(#clip990)" d="M858 1549.49 L858 1554.05 Q855.338 1552.78 852.977 1552.15 Q850.616 1551.53 848.417 1551.53 Q844.597 1551.53 842.514 1553.01 Q840.454 1554.49 840.454 1557.22 Q840.454 1559.52 841.82 1560.7 Q843.208 1561.85 847.051 1562.57 L849.875 1563.15 Q855.106 1564.15 857.583 1566.67 Q860.083 1569.17 860.083 1573.38 Q860.083 1578.4 856.704 1581 Q853.347 1583.59 846.843 1583.59 Q844.389 1583.59 841.611 1583.03 Q838.857 1582.48 835.894 1581.39 L835.894 1576.58 Q838.741 1578.17 841.472 1578.98 Q844.204 1579.79 846.843 1579.79 Q850.847 1579.79 853.023 1578.22 Q855.199 1576.65 855.199 1573.73 Q855.199 1571.18 853.625 1569.75 Q852.074 1568.31 848.509 1567.59 L845.662 1567.04 Q840.431 1566 838.093 1563.78 Q835.755 1561.55 835.755 1557.59 Q835.755 1553.01 838.972 1550.37 Q842.213 1547.73 847.884 1547.73 Q850.315 1547.73 852.838 1548.17 Q855.361 1548.61 858 1549.49 Z" fill="#000000" fill-rule="nonzero" fill-opacity="1" /><path clip-path="url(#clip990)" d="M882.444 1548.36 L887.12 1548.36 L887.12 1582.92 L882.444 1582.92 L882.444 1548.36 Z" fill="#000000" fill-rule="nonzero" fill-opacity="1" /><path clip-path="url(#clip990)" d="M917.791 1567.27 L917.791 1582.92 L913.532 1582.92 L913.532 1567.41 Q913.532 1563.73 912.097 1561.9 Q910.662 1560.07 907.791 1560.07 Q904.342 1560.07 902.352 1562.27 Q900.361 1564.47 900.361 1568.27 L900.361 1582.92 L896.078 1582.92 L896.078 1556.99 L900.361 1556.99 L900.361 1561.02 Q901.889 1558.68 903.949 1557.53 Q906.032 1556.37 908.74 1556.37 Q913.208 1556.37 915.5 1559.15 Q917.791 1561.9 917.791 1567.27 Z" fill="#000000" fill-rule="nonzero" fill-opacity="1" /><path clip-path="url(#clip990)" d="M930.5 1549.63 L930.5 1556.99 L939.273 1556.99 L939.273 1560.3 L930.5 1560.3 L930.5 1574.38 Q930.5 1577.55 931.356 1578.45 Q932.236 1579.35 934.898 1579.35 L939.273 1579.35 L939.273 1582.92 L934.898 1582.92 Q929.967 1582.92 928.092 1581.09 Q926.217 1579.24 926.217 1574.38 L926.217 1560.3 L923.092 1560.3 L923.092 1556.99 L926.217 1556.99 L926.217 1549.63 L930.5 1549.63 Z" fill="#000000" fill-rule="nonzero" fill-opacity="1" /><path clip-path="url(#clip990)" d="M967.05 1568.89 L967.05 1570.97 L947.467 1570.97 Q947.745 1575.37 950.106 1577.69 Q952.49 1579.98 956.726 1579.98 Q959.18 1579.98 961.472 1579.38 Q963.786 1578.78 966.055 1577.57 L966.055 1581.6 Q963.763 1582.57 961.356 1583.08 Q958.949 1583.59 956.472 1583.59 Q950.268 1583.59 946.634 1579.98 Q943.023 1576.37 943.023 1570.21 Q943.023 1563.84 946.449 1560.12 Q949.898 1556.37 955.731 1556.37 Q960.962 1556.37 963.995 1559.75 Q967.05 1563.1 967.05 1568.89 M962.791 1567.64 Q962.745 1564.15 960.823 1562.06 Q958.925 1559.98 955.777 1559.98 Q952.212 1559.98 950.06 1561.99 Q947.93 1564.01 947.606 1567.66 L962.791 1567.64 Z" fill="#000000" fill-rule="nonzero" fill-opacity="1" /><path clip-path="url(#clip990)" d="M989.064 1560.97 Q988.346 1560.56 987.49 1560.37 Q986.657 1560.16 985.638 1560.16 Q982.027 1560.16 980.083 1562.53 Q978.161 1564.86 978.161 1569.26 L978.161 1582.92 L973.879 1582.92 L973.879 1556.99 L978.161 1556.99 L978.161 1561.02 Q979.504 1558.66 981.657 1557.53 Q983.809 1556.37 986.888 1556.37 Q987.328 1556.37 987.86 1556.44 Q988.393 1556.48 989.041 1556.6 L989.064 1560.97 Z" fill="#000000" fill-rule="nonzero" fill-opacity="1" /><path clip-path="url(#clip990)" d="M997.652 1579.03 L997.652 1592.78 L993.37 1592.78 L993.37 1556.99 L997.652 1556.99 L997.652 1560.93 Q998.995 1558.61 1001.03 1557.5 Q1003.09 1556.37 1005.94 1556.37 Q1010.66 1556.37 1013.6 1560.12 Q1016.56 1563.87 1016.56 1569.98 Q1016.56 1576.09 1013.6 1579.84 Q1010.66 1583.59 1005.94 1583.59 Q1003.09 1583.59 1001.03 1582.48 Q998.995 1581.34 997.652 1579.03 M1012.14 1569.98 Q1012.14 1565.28 1010.2 1562.62 Q1008.28 1559.93 1004.9 1559.93 Q1001.52 1559.93 999.573 1562.62 Q997.652 1565.28 997.652 1569.98 Q997.652 1574.68 999.573 1577.36 Q1001.52 1580.03 1004.9 1580.03 Q1008.28 1580.03 1010.2 1577.36 Q1012.14 1574.68 1012.14 1569.98 Z" fill="#000000" fill-rule="nonzero" fill-opacity="1" /><path clip-path="url(#clip990)" d="M1033.67 1559.98 Q1030.24 1559.98 1028.25 1562.66 Q1026.26 1565.33 1026.26 1569.98 Q1026.26 1574.63 1028.23 1577.32 Q1030.22 1579.98 1033.67 1579.98 Q1037.07 1579.98 1039.06 1577.29 Q1041.05 1574.61 1041.05 1569.98 Q1041.05 1565.37 1039.06 1562.69 Q1037.07 1559.98 1033.67 1559.98 M1033.67 1556.37 Q1039.23 1556.37 1042.4 1559.98 Q1045.57 1563.59 1045.57 1569.98 Q1045.57 1576.34 1042.4 1579.98 Q1039.23 1583.59 1033.67 1583.59 Q1028.09 1583.59 1024.92 1579.98 Q1021.77 1576.34 1021.77 1569.98 Q1021.77 1563.59 1024.92 1559.98 Q1028.09 1556.37 1033.67 1556.37 Z" fill="#000000" fill-rule="nonzero" fill-opacity="1" /><path clip-path="url(#clip990)" d="M1052.63 1546.9 L1056.89 1546.9 L1056.89 1582.92 L1052.63 1582.92 L1052.63 1546.9 Z" fill="#000000" fill-rule="nonzero" fill-opacity="1" /><path clip-path="url(#clip990)" d="M1077.58 1569.89 Q1072.42 1569.89 1070.43 1571.07 Q1068.44 1572.25 1068.44 1575.09 Q1068.44 1577.36 1069.92 1578.71 Q1071.42 1580.03 1073.99 1580.03 Q1077.54 1580.03 1079.67 1577.53 Q1081.82 1575 1081.82 1570.84 L1081.82 1569.89 L1077.58 1569.89 M1086.08 1568.13 L1086.08 1582.92 L1081.82 1582.92 L1081.82 1578.98 Q1080.36 1581.34 1078.18 1582.48 Q1076.01 1583.59 1072.86 1583.59 Q1068.88 1583.59 1066.52 1581.37 Q1064.18 1579.12 1064.18 1575.37 Q1064.18 1571 1067.1 1568.78 Q1070.04 1566.55 1075.85 1566.55 L1081.82 1566.55 L1081.82 1566.14 Q1081.82 1563.2 1079.87 1561.6 Q1077.95 1559.98 1074.46 1559.98 Q1072.23 1559.98 1070.13 1560.51 Q1068.02 1561.04 1066.08 1562.11 L1066.08 1558.17 Q1068.42 1557.27 1070.61 1556.83 Q1072.81 1556.37 1074.9 1556.37 Q1080.52 1556.37 1083.3 1559.28 Q1086.08 1562.2 1086.08 1568.13 Z" fill="#000000" fill-rule="nonzero" fill-opacity="1" /><path clip-path="url(#clip990)" d="M1099.06 1549.63 L1099.06 1556.99 L1107.84 1556.99 L1107.84 1560.3 L1099.06 1560.3 L1099.06 1574.38 Q1099.06 1577.55 1099.92 1578.45 Q1100.8 1579.35 1103.46 1579.35 L1107.84 1579.35 L1107.84 1582.92 L1103.46 1582.92 Q1098.53 1582.92 1096.66 1581.09 Q1094.78 1579.24 1094.78 1574.38 L1094.78 1560.3 L1091.66 1560.3 L1091.66 1556.99 L1094.78 1556.99 L1094.78 1549.63 L1099.06 1549.63 Z" fill="#000000" fill-rule="nonzero" fill-opacity="1" /><path clip-path="url(#clip990)" d="M1135.61 1568.89 L1135.61 1570.97 L1116.03 1570.97 Q1116.31 1575.37 1118.67 1577.69 Q1121.05 1579.98 1125.29 1579.98 Q1127.74 1579.98 1130.04 1579.38 Q1132.35 1578.78 1134.62 1577.57 L1134.62 1581.6 Q1132.33 1582.57 1129.92 1583.08 Q1127.51 1583.59 1125.04 1583.59 Q1118.83 1583.59 1115.2 1579.98 Q1111.59 1576.37 1111.59 1570.21 Q1111.59 1563.84 1115.01 1560.12 Q1118.46 1556.37 1124.29 1556.37 Q1129.53 1556.37 1132.56 1559.75 Q1135.61 1563.1 1135.61 1568.89 M1131.35 1567.64 Q1131.31 1564.15 1129.39 1562.06 Q1127.49 1559.98 1124.34 1559.98 Q1120.78 1559.98 1118.62 1561.99 Q1116.49 1564.01 1116.17 1567.66 L1131.35 1567.64 Z" fill="#000000" fill-rule="nonzero" fill-opacity="1" /><path clip-path="url(#clip990)" d="M1159.67 1560.93 L1159.67 1546.9 L1163.92 1546.9 L1163.92 1582.92 L1159.67 1582.92 L1159.67 1579.03 Q1158.32 1581.34 1156.26 1582.48 Q1154.23 1583.59 1151.35 1583.59 Q1146.66 1583.59 1143.69 1579.84 Q1140.75 1576.09 1140.75 1569.98 Q1140.75 1563.87 1143.69 1560.12 Q1146.66 1556.37 1151.35 1556.37 Q1154.23 1556.37 1156.26 1557.5 Q1158.32 1558.61 1159.67 1560.93 M1145.15 1569.98 Q1145.15 1574.68 1147.07 1577.36 Q1149.02 1580.03 1152.4 1580.03 Q1155.78 1580.03 1157.72 1577.36 Q1159.67 1574.68 1159.67 1569.98 Q1159.67 1565.28 1157.72 1562.62 Q1155.78 1559.93 1152.4 1559.93 Q1149.02 1559.93 1147.07 1562.62 Q1145.15 1565.28 1145.15 1569.98 Z" fill="#000000" fill-rule="nonzero" fill-opacity="1" /><polyline clip-path="url(#clip990)" style="stroke:#ffa500; stroke-linecap:round; stroke-linejoin:round; stroke-width:8; stroke-opacity:0.7; fill:none" points="485.58,1617.48 727.476,1617.48 "/>
<path clip-path="url(#clip990)" d="M793.348 1629.83 L793.348 1620.55 L785.709 1620.55 L785.709 1616.7 L797.977 1616.7 L797.977 1631.54 Q795.269 1633.46 792.005 1634.46 Q788.741 1635.43 785.037 1635.43 Q776.936 1635.43 772.352 1630.71 Q767.792 1625.96 767.792 1617.51 Q767.792 1609.04 772.352 1604.32 Q776.936 1599.57 785.037 1599.57 Q788.417 1599.57 791.449 1600.41 Q794.505 1601.24 797.074 1602.86 L797.074 1607.84 Q794.482 1605.64 791.565 1604.53 Q788.648 1603.42 785.431 1603.42 Q779.088 1603.42 775.894 1606.96 Q772.723 1610.5 772.723 1617.51 Q772.723 1624.5 775.894 1628.05 Q779.088 1631.59 785.431 1631.59 Q787.908 1631.59 789.852 1631.17 Q791.797 1630.73 793.348 1629.83 Z" fill="#000000" fill-rule="nonzero" fill-opacity="1" /><path clip-path="url(#clip990)" d="M821.357 1612.81 Q820.639 1612.4 819.783 1612.21 Q818.949 1612 817.931 1612 Q814.32 1612 812.375 1614.37 Q810.454 1616.7 810.454 1621.1 L810.454 1634.76 L806.172 1634.76 L806.172 1608.83 L810.454 1608.83 L810.454 1612.86 Q811.797 1610.5 813.949 1609.37 Q816.102 1608.21 819.181 1608.21 Q819.621 1608.21 820.153 1608.28 Q820.685 1608.32 821.334 1608.44 L821.357 1612.81 Z" fill="#000000" fill-rule="nonzero" fill-opacity="1" /><path clip-path="url(#clip990)" d="M834.829 1611.82 Q831.403 1611.82 829.412 1614.5 Q827.421 1617.17 827.421 1621.82 Q827.421 1626.47 829.389 1629.16 Q831.38 1631.82 834.829 1631.82 Q838.232 1631.82 840.222 1629.13 Q842.213 1626.45 842.213 1621.82 Q842.213 1617.21 840.222 1614.53 Q838.232 1611.82 834.829 1611.82 M834.829 1608.21 Q840.384 1608.21 843.556 1611.82 Q846.727 1615.43 846.727 1621.82 Q846.727 1628.18 843.556 1631.82 Q840.384 1635.43 834.829 1635.43 Q829.25 1635.43 826.079 1631.82 Q822.931 1628.18 822.931 1621.82 Q822.931 1615.43 826.079 1611.82 Q829.25 1608.21 834.829 1608.21 Z" fill="#000000" fill-rule="nonzero" fill-opacity="1" /><path clip-path="url(#clip990)" d="M853.347 1624.53 L853.347 1608.83 L857.606 1608.83 L857.606 1624.37 Q857.606 1628.05 859.042 1629.9 Q860.477 1631.73 863.347 1631.73 Q866.796 1631.73 868.787 1629.53 Q870.801 1627.33 870.801 1623.53 L870.801 1608.83 L875.06 1608.83 L875.06 1634.76 L870.801 1634.76 L870.801 1630.78 Q869.25 1633.14 867.19 1634.3 Q865.153 1635.43 862.444 1635.43 Q857.977 1635.43 855.662 1632.65 Q853.347 1629.87 853.347 1624.53 M864.065 1608.21 L864.065 1608.21 Z" fill="#000000" fill-rule="nonzero" fill-opacity="1" /><path clip-path="url(#clip990)" d="M905.384 1619.11 L905.384 1634.76 L901.125 1634.76 L901.125 1619.25 Q901.125 1615.57 899.69 1613.74 Q898.254 1611.91 895.384 1611.91 Q891.935 1611.91 889.944 1614.11 Q887.954 1616.31 887.954 1620.11 L887.954 1634.76 L883.671 1634.76 L883.671 1608.83 L887.954 1608.83 L887.954 1612.86 Q889.481 1610.52 891.541 1609.37 Q893.625 1608.21 896.333 1608.21 Q900.801 1608.21 903.092 1610.99 Q905.384 1613.74 905.384 1619.11 Z" fill="#000000" fill-rule="nonzero" fill-opacity="1" /><path clip-path="url(#clip990)" d="M930.939 1612.77 L930.939 1598.74 L935.199 1598.74 L935.199 1634.76 L930.939 1634.76 L930.939 1630.87 Q929.597 1633.18 927.537 1634.32 Q925.5 1635.43 922.629 1635.43 Q917.93 1635.43 914.967 1631.68 Q912.027 1627.93 912.027 1621.82 Q912.027 1615.71 914.967 1611.96 Q917.93 1608.21 922.629 1608.21 Q925.5 1608.21 927.537 1609.34 Q929.597 1610.45 930.939 1612.77 M916.426 1621.82 Q916.426 1626.52 918.347 1629.2 Q920.291 1631.87 923.671 1631.87 Q927.051 1631.87 928.995 1629.2 Q930.939 1626.52 930.939 1621.82 Q930.939 1617.12 928.995 1614.46 Q927.051 1611.77 923.671 1611.77 Q920.291 1611.77 918.347 1614.46 Q916.426 1617.12 916.426 1621.82 Z" fill="#000000" fill-rule="nonzero" fill-opacity="1" /><path clip-path="url(#clip990)" d="M954.435 1600.2 L983.671 1600.2 L983.671 1604.13 L971.402 1604.13 L971.402 1634.76 L966.703 1634.76 L966.703 1604.13 L954.435 1604.13 L954.435 1600.2 Z" fill="#000000" fill-rule="nonzero" fill-opacity="1" /><path clip-path="url(#clip990)" d="M996.055 1612.81 Q995.337 1612.4 994.481 1612.21 Q993.647 1612 992.629 1612 Q989.018 1612 987.073 1614.37 Q985.152 1616.7 985.152 1621.1 L985.152 1634.76 L980.87 1634.76 L980.87 1608.83 L985.152 1608.83 L985.152 1612.86 Q986.495 1610.5 988.647 1609.37 Q990.8 1608.21 993.879 1608.21 Q994.319 1608.21 994.851 1608.28 Q995.383 1608.32 996.032 1608.44 L996.055 1612.81 Z" fill="#000000" fill-rule="nonzero" fill-opacity="1" /><path clip-path="url(#clip990)" d="M1000.08 1624.53 L1000.08 1608.83 L1004.34 1608.83 L1004.34 1624.37 Q1004.34 1628.05 1005.78 1629.9 Q1007.21 1631.73 1010.08 1631.73 Q1013.53 1631.73 1015.52 1629.53 Q1017.54 1627.33 1017.54 1623.53 L1017.54 1608.83 L1021.8 1608.83 L1021.8 1634.76 L1017.54 1634.76 L1017.54 1630.78 Q1015.99 1633.14 1013.93 1634.3 Q1011.89 1635.43 1009.18 1635.43 Q1004.71 1635.43 1002.4 1632.65 Q1000.08 1629.87 1000.08 1624.53 M1010.8 1608.21 L1010.8 1608.21 Z" fill="#000000" fill-rule="nonzero" fill-opacity="1" /><path clip-path="url(#clip990)" d="M1034.78 1601.47 L1034.78 1608.83 L1043.55 1608.83 L1043.55 1612.14 L1034.78 1612.14 L1034.78 1626.22 Q1034.78 1629.39 1035.64 1630.29 Q1036.52 1631.19 1039.18 1631.19 L1043.55 1631.19 L1043.55 1634.76 L1039.18 1634.76 Q1034.25 1634.76 1032.37 1632.93 Q1030.5 1631.08 1030.5 1626.22 L1030.5 1612.14 L1027.37 1612.14 L1027.37 1608.83 L1030.5 1608.83 L1030.5 1601.47 L1034.78 1601.47 Z" fill="#000000" fill-rule="nonzero" fill-opacity="1" /><path clip-path="url(#clip990)" d="M1070.71 1619.11 L1070.71 1634.76 L1066.45 1634.76 L1066.45 1619.25 Q1066.45 1615.57 1065.01 1613.74 Q1063.58 1611.91 1060.71 1611.91 Q1057.26 1611.91 1055.27 1614.11 Q1053.28 1616.31 1053.28 1620.11 L1053.28 1634.76 L1048.99 1634.76 L1048.99 1598.74 L1053.28 1598.74 L1053.28 1612.86 Q1054.8 1610.52 1056.86 1609.37 Q1058.95 1608.21 1061.66 1608.21 Q1066.12 1608.21 1068.42 1610.99 Q1070.71 1613.74 1070.71 1619.11 Z" fill="#000000" fill-rule="nonzero" fill-opacity="1" /><polyline clip-path="url(#clip990)" style="stroke:#ff0000; stroke-linecap:round; stroke-linejoin:round; stroke-width:8; stroke-opacity:0.7; fill:none" points="485.58,1669.32 727.476,1669.32 "/>
<path clip-path="url(#clip990)" d="M767.792 1652.04 L774.088 1652.04 L789.412 1680.95 L789.412 1652.04 L793.949 1652.04 L793.949 1686.6 L787.653 1686.6 L772.329 1657.69 L772.329 1686.6 L767.792 1686.6 L767.792 1652.04 Z" fill="#000000" fill-rule="nonzero" fill-opacity="1" /><path clip-path="url(#clip990)" d="M825.246 1672.57 L825.246 1674.65 L805.662 1674.65 Q805.94 1679.05 808.301 1681.37 Q810.685 1683.66 814.922 1683.66 Q817.375 1683.66 819.667 1683.06 Q821.982 1682.46 824.25 1681.25 L824.25 1685.28 Q821.959 1686.25 819.551 1686.76 Q817.144 1687.27 814.667 1687.27 Q808.463 1687.27 804.829 1683.66 Q801.218 1680.05 801.218 1673.89 Q801.218 1667.52 804.644 1663.8 Q808.093 1660.05 813.926 1660.05 Q819.158 1660.05 822.19 1663.43 Q825.246 1666.78 825.246 1672.57 M820.986 1671.32 Q820.94 1667.83 819.019 1665.74 Q817.121 1663.66 813.972 1663.66 Q810.408 1663.66 808.255 1665.67 Q806.125 1667.69 805.801 1671.34 L820.986 1671.32 Z" fill="#000000" fill-rule="nonzero" fill-opacity="1" /><path clip-path="url(#clip990)" d="M844.019 1673.57 Q838.857 1673.57 836.866 1674.75 Q834.875 1675.93 834.875 1678.77 Q834.875 1681.04 836.357 1682.39 Q837.861 1683.71 840.431 1683.71 Q843.972 1683.71 846.102 1681.21 Q848.255 1678.68 848.255 1674.52 L848.255 1673.57 L844.019 1673.57 M852.514 1671.81 L852.514 1686.6 L848.255 1686.6 L848.255 1682.66 Q846.796 1685.02 844.62 1686.16 Q842.445 1687.27 839.296 1687.27 Q835.315 1687.27 832.954 1685.05 Q830.616 1682.8 830.616 1679.05 Q830.616 1674.68 833.533 1672.46 Q836.472 1670.23 842.282 1670.23 L848.255 1670.23 L848.255 1669.82 Q848.255 1666.88 846.31 1665.28 Q844.389 1663.66 840.894 1663.66 Q838.671 1663.66 836.565 1664.19 Q834.458 1664.72 832.514 1665.79 L832.514 1661.85 Q834.852 1660.95 837.051 1660.51 Q839.25 1660.05 841.333 1660.05 Q846.958 1660.05 849.736 1662.96 Q852.514 1665.88 852.514 1671.81 Z" fill="#000000" fill-rule="nonzero" fill-opacity="1" /><path clip-path="url(#clip990)" d="M876.31 1664.65 Q875.592 1664.24 874.736 1664.05 Q873.903 1663.84 872.884 1663.84 Q869.273 1663.84 867.329 1666.21 Q865.407 1668.54 865.407 1672.94 L865.407 1686.6 L861.125 1686.6 L861.125 1660.67 L865.407 1660.67 L865.407 1664.7 Q866.75 1662.34 868.903 1661.21 Q871.055 1660.05 874.134 1660.05 Q874.574 1660.05 875.106 1660.12 Q875.639 1660.16 876.287 1660.28 L876.31 1664.65 Z" fill="#000000" fill-rule="nonzero" fill-opacity="1" /><path clip-path="url(#clip990)" d="M901.912 1672.57 L901.912 1674.65 L882.329 1674.65 Q882.606 1679.05 884.967 1681.37 Q887.352 1683.66 891.588 1683.66 Q894.041 1683.66 896.333 1683.06 Q898.648 1682.46 900.916 1681.25 L900.916 1685.28 Q898.625 1686.25 896.217 1686.76 Q893.81 1687.27 891.333 1687.27 Q885.129 1687.27 881.495 1683.66 Q877.884 1680.05 877.884 1673.89 Q877.884 1667.52 881.31 1663.8 Q884.759 1660.05 890.592 1660.05 Q895.824 1660.05 898.856 1663.43 Q901.912 1666.78 901.912 1672.57 M897.653 1671.32 Q897.606 1667.83 895.685 1665.74 Q893.787 1663.66 890.639 1663.66 Q887.074 1663.66 884.921 1665.67 Q882.792 1667.69 882.467 1671.34 L897.653 1671.32 Z" fill="#000000" fill-rule="nonzero" fill-opacity="1" /><path clip-path="url(#clip990)" d="M925.43 1661.44 L925.43 1665.46 Q923.625 1664.54 921.68 1664.08 Q919.736 1663.61 917.652 1663.61 Q914.481 1663.61 912.884 1664.58 Q911.31 1665.56 911.31 1667.5 Q911.31 1668.98 912.444 1669.84 Q913.578 1670.67 917.004 1671.44 L918.463 1671.76 Q923 1672.73 924.898 1674.52 Q926.819 1676.27 926.819 1679.45 Q926.819 1683.06 923.949 1685.16 Q921.101 1687.27 916.102 1687.27 Q914.018 1687.27 911.75 1686.85 Q909.504 1686.46 907.004 1685.65 L907.004 1681.25 Q909.365 1682.48 911.657 1683.1 Q913.949 1683.71 916.194 1683.71 Q919.203 1683.71 920.824 1682.69 Q922.444 1681.64 922.444 1679.77 Q922.444 1678.03 921.264 1677.11 Q920.106 1676.18 916.148 1675.33 L914.666 1674.98 Q910.708 1674.15 908.949 1672.43 Q907.19 1670.7 907.19 1667.69 Q907.19 1664.03 909.782 1662.04 Q912.375 1660.05 917.143 1660.05 Q919.504 1660.05 921.588 1660.4 Q923.671 1660.74 925.43 1661.44 Z" fill="#000000" fill-rule="nonzero" fill-opacity="1" /><path clip-path="url(#clip990)" d="M937.814 1653.31 L937.814 1660.67 L946.587 1660.67 L946.587 1663.98 L937.814 1663.98 L937.814 1678.06 Q937.814 1681.23 938.671 1682.13 Q939.55 1683.03 942.212 1683.03 L946.587 1683.03 L946.587 1686.6 L942.212 1686.6 Q937.282 1686.6 935.407 1684.77 Q933.532 1682.92 933.532 1678.06 L933.532 1663.98 L930.407 1663.98 L930.407 1660.67 L933.532 1660.67 L933.532 1653.31 L937.814 1653.31 Z" fill="#000000" fill-rule="nonzero" fill-opacity="1" /><path clip-path="url(#clip990)" d="M962.652 1652.04 L991.888 1652.04 L991.888 1655.97 L979.62 1655.97 L979.62 1686.6 L974.921 1686.6 L974.921 1655.97 L962.652 1655.97 L962.652 1652.04 Z" fill="#000000" fill-rule="nonzero" fill-opacity="1" /><path clip-path="url(#clip990)" d="M1004.27 1664.65 Q1003.55 1664.24 1002.7 1664.05 Q1001.86 1663.84 1000.85 1663.84 Q997.235 1663.84 995.291 1666.21 Q993.37 1668.54 993.37 1672.94 L993.37 1686.6 L989.087 1686.6 L989.087 1660.67 L993.37 1660.67 L993.37 1664.7 Q994.712 1662.34 996.865 1661.21 Q999.018 1660.05 1002.1 1660.05 Q1002.54 1660.05 1003.07 1660.12 Q1003.6 1660.16 1004.25 1660.28 L1004.27 1664.65 Z" fill="#000000" fill-rule="nonzero" fill-opacity="1" /><path clip-path="url(#clip990)" d="M1020.52 1673.57 Q1015.36 1673.57 1013.37 1674.75 Q1011.38 1675.93 1011.38 1678.77 Q1011.38 1681.04 1012.86 1682.39 Q1014.36 1683.71 1016.93 1683.71 Q1020.48 1683.71 1022.61 1681.21 Q1024.76 1678.68 1024.76 1674.52 L1024.76 1673.57 L1020.52 1673.57 M1029.02 1671.81 L1029.02 1686.6 L1024.76 1686.6 L1024.76 1682.66 Q1023.3 1685.02 1021.12 1686.16 Q1018.95 1687.27 1015.8 1687.27 Q1011.82 1687.27 1009.46 1685.05 Q1007.12 1682.8 1007.12 1679.05 Q1007.12 1674.68 1010.04 1672.46 Q1012.98 1670.23 1018.79 1670.23 L1024.76 1670.23 L1024.76 1669.82 Q1024.76 1666.88 1022.81 1665.28 Q1020.89 1663.66 1017.4 1663.66 Q1015.18 1663.66 1013.07 1664.19 Q1010.96 1664.72 1009.02 1665.79 L1009.02 1661.85 Q1011.36 1660.95 1013.55 1660.51 Q1015.75 1660.05 1017.84 1660.05 Q1023.46 1660.05 1026.24 1662.96 Q1029.02 1665.88 1029.02 1671.81 Z" fill="#000000" fill-rule="nonzero" fill-opacity="1" /><path clip-path="url(#clip990)" d="M1037.79 1660.67 L1042.05 1660.67 L1042.05 1686.6 L1037.79 1686.6 L1037.79 1660.67 M1037.79 1650.58 L1042.05 1650.58 L1042.05 1655.97 L1037.79 1655.97 L1037.79 1650.58 Z" fill="#000000" fill-rule="nonzero" fill-opacity="1" /><path clip-path="url(#clip990)" d="M1072.51 1670.95 L1072.51 1686.6 L1068.25 1686.6 L1068.25 1671.09 Q1068.25 1667.41 1066.82 1665.58 Q1065.38 1663.75 1062.51 1663.75 Q1059.06 1663.75 1057.07 1665.95 Q1055.08 1668.15 1055.08 1671.95 L1055.08 1686.6 L1050.8 1686.6 L1050.8 1660.67 L1055.08 1660.67 L1055.08 1664.7 Q1056.61 1662.36 1058.67 1661.21 Q1060.75 1660.05 1063.46 1660.05 Q1067.93 1660.05 1070.22 1662.83 Q1072.51 1665.58 1072.51 1670.95 Z" fill="#000000" fill-rule="nonzero" fill-opacity="1" /><path clip-path="url(#clip990)" d="M1100.94 1655.88 L1100.94 1682.76 L1106.59 1682.76 Q1113.74 1682.76 1117.05 1679.52 Q1120.38 1676.27 1120.38 1669.28 Q1120.38 1662.34 1117.05 1659.12 Q1113.74 1655.88 1106.59 1655.88 L1100.94 1655.88 M1096.26 1652.04 L1105.87 1652.04 Q1115.92 1652.04 1120.61 1656.23 Q1125.31 1660.4 1125.31 1669.28 Q1125.31 1678.22 1120.59 1682.41 Q1115.87 1686.6 1105.87 1686.6 L1096.26 1686.6 L1096.26 1652.04 Z" fill="#000000" fill-rule="nonzero" fill-opacity="1" /><path clip-path="url(#clip990)" d="M1144.36 1673.57 Q1139.2 1673.57 1137.21 1674.75 Q1135.22 1675.93 1135.22 1678.77 Q1135.22 1681.04 1136.7 1682.39 Q1138.21 1683.71 1140.78 1683.71 Q1144.32 1683.71 1146.45 1681.21 Q1148.6 1678.68 1148.6 1674.52 L1148.6 1673.57 L1144.36 1673.57 M1152.86 1671.81 L1152.86 1686.6 L1148.6 1686.6 L1148.6 1682.66 Q1147.14 1685.02 1144.97 1686.16 Q1142.79 1687.27 1139.64 1687.27 Q1135.66 1687.27 1133.3 1685.05 Q1130.96 1682.8 1130.96 1679.05 Q1130.96 1674.68 1133.88 1672.46 Q1136.82 1670.23 1142.63 1670.23 L1148.6 1670.23 L1148.6 1669.82 Q1148.6 1666.88 1146.66 1665.28 Q1144.73 1663.66 1141.24 1663.66 Q1139.02 1663.66 1136.91 1664.19 Q1134.8 1664.72 1132.86 1665.79 L1132.86 1661.85 Q1135.2 1660.95 1137.4 1660.51 Q1139.6 1660.05 1141.68 1660.05 Q1147.3 1660.05 1150.08 1662.96 Q1152.86 1665.88 1152.86 1671.81 Z" fill="#000000" fill-rule="nonzero" fill-opacity="1" /><path clip-path="url(#clip990)" d="M1165.85 1653.31 L1165.85 1660.67 L1174.62 1660.67 L1174.62 1663.98 L1165.85 1663.98 L1165.85 1678.06 Q1165.85 1681.23 1166.7 1682.13 Q1167.58 1683.03 1170.24 1683.03 L1174.62 1683.03 L1174.62 1686.6 L1170.24 1686.6 Q1165.31 1686.6 1163.44 1684.77 Q1161.56 1682.92 1161.56 1678.06 L1161.56 1663.98 L1158.44 1663.98 L1158.44 1660.67 L1161.56 1660.67 L1161.56 1653.31 L1165.85 1653.31 Z" fill="#000000" fill-rule="nonzero" fill-opacity="1" /><path clip-path="url(#clip990)" d="M1192 1673.57 Q1186.84 1673.57 1184.85 1674.75 Q1182.86 1675.93 1182.86 1678.77 Q1182.86 1681.04 1184.34 1682.39 Q1185.85 1683.71 1188.41 1683.71 Q1191.96 1683.71 1194.09 1681.21 Q1196.24 1678.68 1196.24 1674.52 L1196.24 1673.57 L1192 1673.57 M1200.5 1671.81 L1200.5 1686.6 L1196.24 1686.6 L1196.24 1682.66 Q1194.78 1685.02 1192.6 1686.16 Q1190.43 1687.27 1187.28 1687.27 Q1183.3 1687.27 1180.94 1685.05 Q1178.6 1682.8 1178.6 1679.05 Q1178.6 1674.68 1181.52 1672.46 Q1184.46 1670.23 1190.27 1670.23 L1196.24 1670.23 L1196.24 1669.82 Q1196.24 1666.88 1194.29 1665.28 Q1192.37 1663.66 1188.88 1663.66 Q1186.66 1663.66 1184.55 1664.19 Q1182.44 1664.72 1180.5 1665.79 L1180.5 1661.85 Q1182.84 1660.95 1185.04 1660.51 Q1187.23 1660.05 1189.32 1660.05 Q1194.94 1660.05 1197.72 1662.96 Q1200.5 1665.88 1200.5 1671.81 Z" fill="#000000" fill-rule="nonzero" fill-opacity="1" /></svg>
