<?xml version="1.0" encoding="utf-8"?>
<svg xmlns="http://www.w3.org/2000/svg" xmlns:xlink="http://www.w3.org/1999/xlink" width="600" height="400" viewBox="0 0 2400 1600">
<defs>
  <clipPath id="clip780">
    <rect x="0" y="0" width="2400" height="1600"/>
  </clipPath>
</defs>
<path clip-path="url(#clip780)" d="M0 1600 L2400 1600 L2400 0 L0 0  Z" fill="#ffffff" fill-rule="evenodd" fill-opacity="1"/>
<defs>
  <clipPath id="clip781">
    <rect x="480" y="0" width="1681" height="1600"/>
  </clipPath>
</defs>
<path clip-path="url(#clip780)" d="M186.274 1486.45 L2352.76 1486.45 L2352.76 47.2441 L186.274 47.2441  Z" fill="#ffffff" fill-rule="evenodd" fill-opacity="1"/>
<defs>
  <clipPath id="clip782">
    <rect x="186" y="47" width="2167" height="1440"/>
  </clipPath>
</defs>
<polyline clip-path="url(#clip782)" style="stroke:#000000; stroke-linecap:round; stroke-linejoin:round; stroke-width:2; stroke-opacity:0.1; fill:none" points="226.075,1486.45 226.075,47.2441 "/>
<polyline clip-path="url(#clip782)" style="stroke:#000000; stroke-linecap:round; stroke-linejoin:round; stroke-width:2; stroke-opacity:0.1; fill:none" points="656.36,1486.45 656.36,47.2441 "/>
<polyline clip-path="url(#clip782)" style="stroke:#000000; stroke-linecap:round; stroke-linejoin:round; stroke-width:2; stroke-opacity:0.1; fill:none" points="1086.64,1486.45 1086.64,47.2441 "/>
<polyline clip-path="url(#clip782)" style="stroke:#000000; stroke-linecap:round; stroke-linejoin:round; stroke-width:2; stroke-opacity:0.1; fill:none" points="1516.93,1486.45 1516.93,47.2441 "/>
<polyline clip-path="url(#clip782)" style="stroke:#000000; stroke-linecap:round; stroke-linejoin:round; stroke-width:2; stroke-opacity:0.1; fill:none" points="1947.21,1486.45 1947.21,47.2441 "/>
<polyline clip-path="url(#clip780)" style="stroke:#000000; stroke-linecap:round; stroke-linejoin:round; stroke-width:4; stroke-opacity:1; fill:none" points="186.274,1486.45 2352.76,1486.45 "/>
<polyline clip-path="url(#clip780)" style="stroke:#000000; stroke-linecap:round; stroke-linejoin:round; stroke-width:4; stroke-opacity:1; fill:none" points="226.075,1486.45 226.075,1467.55 "/>
<polyline clip-path="url(#clip780)" style="stroke:#000000; stroke-linecap:round; stroke-linejoin:round; stroke-width:4; stroke-opacity:1; fill:none" points="656.36,1486.45 656.36,1467.55 "/>
<polyline clip-path="url(#clip780)" style="stroke:#000000; stroke-linecap:round; stroke-linejoin:round; stroke-width:4; stroke-opacity:1; fill:none" points="1086.64,1486.45 1086.64,1467.55 "/>
<polyline clip-path="url(#clip780)" style="stroke:#000000; stroke-linecap:round; stroke-linejoin:round; stroke-width:4; stroke-opacity:1; fill:none" points="1516.93,1486.45 1516.93,1467.55 "/>
<polyline clip-path="url(#clip780)" style="stroke:#000000; stroke-linecap:round; stroke-linejoin:round; stroke-width:4; stroke-opacity:1; fill:none" points="1947.21,1486.45 1947.21,1467.55 "/>
<path clip-path="url(#clip780)" d="M226.075 1517.37 Q222.464 1517.37 220.636 1520.93 Q218.83 1524.47 218.83 1531.6 Q218.83 1538.71 220.636 1542.27 Q222.464 1545.82 226.075 1545.82 Q229.71 1545.82 231.515 1542.27 Q233.344 1538.71 233.344 1531.6 Q233.344 1524.47 231.515 1520.93 Q229.71 1517.37 226.075 1517.37 M226.075 1513.66 Q231.885 1513.66 234.941 1518.27 Q238.02 1522.85 238.02 1531.6 Q238.02 1540.33 234.941 1544.94 Q231.885 1549.52 226.075 1549.52 Q220.265 1549.52 217.186 1544.94 Q214.131 1540.33 214.131 1531.6 Q214.131 1522.85 217.186 1518.27 Q220.265 1513.66 226.075 1513.66 Z" fill="#000000" fill-rule="nonzero" fill-opacity="1" /><path clip-path="url(#clip780)" d="M635.133 1544.91 L651.452 1544.91 L651.452 1548.85 L629.508 1548.85 L629.508 1544.91 Q632.17 1542.16 636.753 1537.53 Q641.36 1532.88 642.54 1531.53 Q644.786 1529.01 645.665 1527.27 Q646.568 1525.51 646.568 1523.82 Q646.568 1521.07 644.624 1519.33 Q642.702 1517.6 639.601 1517.6 Q637.401 1517.6 634.948 1518.36 Q632.517 1519.13 629.739 1520.68 L629.739 1515.95 Q632.564 1514.82 635.017 1514.24 Q637.471 1513.66 639.508 1513.66 Q644.878 1513.66 648.073 1516.35 Q651.267 1519.03 651.267 1523.52 Q651.267 1525.65 650.457 1527.57 Q649.67 1529.47 647.563 1532.07 Q646.985 1532.74 643.883 1535.95 Q640.781 1539.15 635.133 1544.91 Z" fill="#000000" fill-rule="nonzero" fill-opacity="1" /><path clip-path="url(#clip780)" d="M671.267 1517.37 Q667.656 1517.37 665.827 1520.93 Q664.022 1524.47 664.022 1531.6 Q664.022 1538.71 665.827 1542.27 Q667.656 1545.82 671.267 1545.82 Q674.901 1545.82 676.707 1542.27 Q678.536 1538.71 678.536 1531.6 Q678.536 1524.47 676.707 1520.93 Q674.901 1517.37 671.267 1517.37 M671.267 1513.66 Q677.077 1513.66 680.133 1518.27 Q683.211 1522.85 683.211 1531.6 Q683.211 1540.33 680.133 1544.94 Q677.077 1549.52 671.267 1549.52 Q665.457 1549.52 662.378 1544.94 Q659.323 1540.33 659.323 1531.6 Q659.323 1522.85 662.378 1518.27 Q665.457 1513.66 671.267 1513.66 Z" fill="#000000" fill-rule="nonzero" fill-opacity="1" /><path clip-path="url(#clip780)" d="M1074.82 1518.36 L1063.01 1536.81 L1074.82 1536.81 L1074.82 1518.36 M1073.59 1514.29 L1079.47 1514.29 L1079.47 1536.81 L1084.4 1536.81 L1084.4 1540.7 L1079.47 1540.7 L1079.47 1548.85 L1074.82 1548.85 L1074.82 1540.7 L1059.21 1540.7 L1059.21 1536.19 L1073.59 1514.29 Z" fill="#000000" fill-rule="nonzero" fill-opacity="1" /><path clip-path="url(#clip780)" d="M1102.13 1517.37 Q1098.52 1517.37 1096.69 1520.93 Q1094.88 1524.47 1094.88 1531.6 Q1094.88 1538.71 1096.69 1542.27 Q1098.52 1545.82 1102.13 1545.82 Q1105.76 1545.82 1107.57 1542.27 Q1109.4 1538.71 1109.4 1531.6 Q1109.4 1524.47 1107.57 1520.93 Q1105.76 1517.37 1102.13 1517.37 M1102.13 1513.66 Q1107.94 1513.66 1111 1518.27 Q1114.07 1522.85 1114.07 1531.6 Q1114.07 1540.33 1111 1544.94 Q1107.94 1549.52 1102.13 1549.52 Q1096.32 1549.52 1093.24 1544.94 Q1090.19 1540.33 1090.19 1531.6 Q1090.19 1522.85 1093.24 1518.27 Q1096.32 1513.66 1102.13 1513.66 Z" fill="#000000" fill-rule="nonzero" fill-opacity="1" /><path clip-path="url(#clip780)" d="M1502.33 1529.7 Q1499.19 1529.7 1497.33 1531.86 Q1495.5 1534.01 1495.5 1537.76 Q1495.5 1541.49 1497.33 1543.66 Q1499.19 1545.82 1502.33 1545.82 Q1505.48 1545.82 1507.31 1543.66 Q1509.16 1541.49 1509.16 1537.76 Q1509.16 1534.01 1507.31 1531.86 Q1505.48 1529.7 1502.33 1529.7 M1511.62 1515.05 L1511.62 1519.31 Q1509.86 1518.48 1508.05 1518.04 Q1506.27 1517.6 1504.51 1517.6 Q1499.88 1517.6 1497.43 1520.72 Q1495 1523.85 1494.65 1530.17 Q1496.01 1528.15 1498.07 1527.09 Q1500.13 1526 1502.61 1526 Q1507.82 1526 1510.83 1529.17 Q1513.86 1532.32 1513.86 1537.76 Q1513.86 1543.08 1510.71 1546.3 Q1507.57 1549.52 1502.33 1549.52 Q1496.34 1549.52 1493.17 1544.94 Q1490 1540.33 1490 1531.6 Q1490 1523.41 1493.88 1518.55 Q1497.77 1513.66 1504.32 1513.66 Q1506.08 1513.66 1507.87 1514.01 Q1509.67 1514.36 1511.62 1515.05 Z" fill="#000000" fill-rule="nonzero" fill-opacity="1" /><path clip-path="url(#clip780)" d="M1531.92 1517.37 Q1528.31 1517.37 1526.48 1520.93 Q1524.67 1524.47 1524.67 1531.6 Q1524.67 1538.71 1526.48 1542.27 Q1528.31 1545.82 1531.92 1545.82 Q1535.55 1545.82 1537.36 1542.27 Q1539.19 1538.71 1539.19 1531.6 Q1539.19 1524.47 1537.36 1520.93 Q1535.55 1517.37 1531.92 1517.37 M1531.92 1513.66 Q1537.73 1513.66 1540.78 1518.27 Q1543.86 1522.85 1543.86 1531.6 Q1543.86 1540.33 1540.78 1544.94 Q1537.73 1549.52 1531.92 1549.52 Q1526.11 1549.52 1523.03 1544.94 Q1519.97 1540.33 1519.97 1531.6 Q1519.97 1522.85 1523.03 1518.27 Q1526.11 1513.66 1531.92 1513.66 Z" fill="#000000" fill-rule="nonzero" fill-opacity="1" /><path clip-path="url(#clip780)" d="M1932.09 1532.44 Q1928.75 1532.44 1926.83 1534.22 Q1924.93 1536 1924.93 1539.13 Q1924.93 1542.25 1926.83 1544.03 Q1928.75 1545.82 1932.09 1545.82 Q1935.42 1545.82 1937.34 1544.03 Q1939.26 1542.23 1939.26 1539.13 Q1939.26 1536 1937.34 1534.22 Q1935.44 1532.44 1932.09 1532.44 M1927.41 1530.45 Q1924.4 1529.7 1922.71 1527.64 Q1921.04 1525.58 1921.04 1522.62 Q1921.04 1518.48 1923.98 1516.07 Q1926.95 1513.66 1932.09 1513.66 Q1937.25 1513.66 1940.19 1516.07 Q1943.13 1518.48 1943.13 1522.62 Q1943.13 1525.58 1941.44 1527.64 Q1939.77 1529.7 1936.78 1530.45 Q1940.16 1531.23 1942.04 1533.52 Q1943.94 1535.82 1943.94 1539.13 Q1943.94 1544.15 1940.86 1546.83 Q1937.8 1549.52 1932.09 1549.52 Q1926.37 1549.52 1923.29 1546.83 Q1920.23 1544.15 1920.23 1539.13 Q1920.23 1535.82 1922.13 1533.52 Q1924.03 1531.23 1927.41 1530.45 M1925.7 1523.06 Q1925.7 1525.75 1927.36 1527.25 Q1929.05 1528.76 1932.09 1528.76 Q1935.09 1528.76 1936.78 1527.25 Q1938.5 1525.75 1938.5 1523.06 Q1938.5 1520.38 1936.78 1518.87 Q1935.09 1517.37 1932.09 1517.37 Q1929.05 1517.37 1927.36 1518.87 Q1925.7 1520.38 1925.7 1523.06 Z" fill="#000000" fill-rule="nonzero" fill-opacity="1" /><path clip-path="url(#clip780)" d="M1962.25 1517.37 Q1958.64 1517.37 1956.81 1520.93 Q1955 1524.47 1955 1531.6 Q1955 1538.71 1956.81 1542.27 Q1958.64 1545.82 1962.25 1545.82 Q1965.88 1545.82 1967.69 1542.27 Q1969.52 1538.71 1969.52 1531.6 Q1969.52 1524.47 1967.69 1520.93 Q1965.88 1517.37 1962.25 1517.37 M1962.25 1513.66 Q1968.06 1513.66 1971.11 1518.27 Q1974.19 1522.85 1974.19 1531.6 Q1974.19 1540.33 1971.11 1544.94 Q1968.06 1549.52 1962.25 1549.52 Q1956.44 1549.52 1953.36 1544.94 Q1950.3 1540.33 1950.3 1531.6 Q1950.3 1522.85 1953.36 1518.27 Q1956.44 1513.66 1962.25 1513.66 Z" fill="#000000" fill-rule="nonzero" fill-opacity="1" /><polyline clip-path="url(#clip782)" style="stroke:#000000; stroke-linecap:round; stroke-linejoin:round; stroke-width:2; stroke-opacity:0.1; fill:none" points="186.274,1292.94 2352.76,1292.94 "/>
<polyline clip-path="url(#clip782)" style="stroke:#000000; stroke-linecap:round; stroke-linejoin:round; stroke-width:2; stroke-opacity:0.1; fill:none" points="186.274,1066.65 2352.76,1066.65 "/>
<polyline clip-path="url(#clip782)" style="stroke:#000000; stroke-linecap:round; stroke-linejoin:round; stroke-width:2; stroke-opacity:0.1; fill:none" points="186.274,840.37 2352.76,840.37 "/>
<polyline clip-path="url(#clip782)" style="stroke:#000000; stroke-linecap:round; stroke-linejoin:round; stroke-width:2; stroke-opacity:0.1; fill:none" points="186.274,614.088 2352.76,614.088 "/>
<polyline clip-path="url(#clip782)" style="stroke:#000000; stroke-linecap:round; stroke-linejoin:round; stroke-width:2; stroke-opacity:0.1; fill:none" points="186.274,387.805 2352.76,387.805 "/>
<polyline clip-path="url(#clip782)" style="stroke:#000000; stroke-linecap:round; stroke-linejoin:round; stroke-width:2; stroke-opacity:0.1; fill:none" points="186.274,161.523 2352.76,161.523 "/>
<polyline clip-path="url(#clip780)" style="stroke:#000000; stroke-linecap:round; stroke-linejoin:round; stroke-width:4; stroke-opacity:1; fill:none" points="186.274,1486.45 186.274,47.2441 "/>
<polyline clip-path="url(#clip780)" style="stroke:#000000; stroke-linecap:round; stroke-linejoin:round; stroke-width:4; stroke-opacity:1; fill:none" points="186.274,1292.94 205.172,1292.94 "/>
<polyline clip-path="url(#clip780)" style="stroke:#000000; stroke-linecap:round; stroke-linejoin:round; stroke-width:4; stroke-opacity:1; fill:none" points="186.274,1066.65 205.172,1066.65 "/>
<polyline clip-path="url(#clip780)" style="stroke:#000000; stroke-linecap:round; stroke-linejoin:round; stroke-width:4; stroke-opacity:1; fill:none" points="186.274,840.37 205.172,840.37 "/>
<polyline clip-path="url(#clip780)" style="stroke:#000000; stroke-linecap:round; stroke-linejoin:round; stroke-width:4; stroke-opacity:1; fill:none" points="186.274,614.088 205.172,614.088 "/>
<polyline clip-path="url(#clip780)" style="stroke:#000000; stroke-linecap:round; stroke-linejoin:round; stroke-width:4; stroke-opacity:1; fill:none" points="186.274,387.805 205.172,387.805 "/>
<polyline clip-path="url(#clip780)" style="stroke:#000000; stroke-linecap:round; stroke-linejoin:round; stroke-width:4; stroke-opacity:1; fill:none" points="186.274,161.523 205.172,161.523 "/>
<path clip-path="url(#clip780)" d="M63.9319 1278.73 Q60.3208 1278.73 58.4921 1282.3 Q56.6865 1285.84 56.6865 1292.97 Q56.6865 1300.08 58.4921 1303.64 Q60.3208 1307.18 63.9319 1307.18 Q67.5661 1307.18 69.3717 1303.64 Q71.2004 1300.08 71.2004 1292.97 Q71.2004 1285.84 69.3717 1282.3 Q67.5661 1278.73 63.9319 1278.73 M63.9319 1275.03 Q69.742 1275.03 72.7976 1279.64 Q75.8763 1284.22 75.8763 1292.97 Q75.8763 1301.7 72.7976 1306.3 Q69.742 1310.89 63.9319 1310.89 Q58.1217 1310.89 55.043 1306.3 Q51.9875 1301.7 51.9875 1292.97 Q51.9875 1284.22 55.043 1279.64 Q58.1217 1275.03 63.9319 1275.03 Z" fill="#000000" fill-rule="nonzero" fill-opacity="1" /><path clip-path="url(#clip780)" d="M84.0938 1304.34 L88.978 1304.34 L88.978 1310.22 L84.0938 1310.22 L84.0938 1304.34 Z" fill="#000000" fill-rule="nonzero" fill-opacity="1" /><path clip-path="url(#clip780)" d="M109.163 1278.73 Q105.552 1278.73 103.723 1282.3 Q101.918 1285.84 101.918 1292.97 Q101.918 1300.08 103.723 1303.64 Q105.552 1307.18 109.163 1307.18 Q112.797 1307.18 114.603 1303.64 Q116.432 1300.08 116.432 1292.97 Q116.432 1285.84 114.603 1282.3 Q112.797 1278.73 109.163 1278.73 M109.163 1275.03 Q114.973 1275.03 118.029 1279.64 Q121.107 1284.22 121.107 1292.97 Q121.107 1301.7 118.029 1306.3 Q114.973 1310.89 109.163 1310.89 Q103.353 1310.89 100.274 1306.3 Q97.2187 1301.7 97.2187 1292.97 Q97.2187 1284.22 100.274 1279.64 Q103.353 1275.03 109.163 1275.03 Z" fill="#000000" fill-rule="nonzero" fill-opacity="1" /><path clip-path="url(#clip780)" d="M129.371 1275.66 L147.728 1275.66 L147.728 1279.59 L133.654 1279.59 L133.654 1288.06 Q134.672 1287.72 135.691 1287.55 Q136.709 1287.37 137.728 1287.37 Q143.515 1287.37 146.894 1290.54 Q150.274 1293.71 150.274 1299.13 Q150.274 1304.71 146.802 1307.81 Q143.33 1310.89 137.01 1310.89 Q134.834 1310.89 132.566 1310.52 Q130.32 1310.15 127.913 1309.41 L127.913 1304.71 Q129.996 1305.84 132.219 1306.4 Q134.441 1306.95 136.918 1306.95 Q140.922 1306.95 143.26 1304.85 Q145.598 1302.74 145.598 1299.13 Q145.598 1295.52 143.26 1293.41 Q140.922 1291.3 136.918 1291.3 Q135.043 1291.3 133.168 1291.72 Q131.316 1292.14 129.371 1293.02 L129.371 1275.66 Z" fill="#000000" fill-rule="nonzero" fill-opacity="1" /><path clip-path="url(#clip780)" d="M62.9365 1052.45 Q59.3254 1052.45 57.4967 1056.02 Q55.6912 1059.56 55.6912 1066.69 Q55.6912 1073.79 57.4967 1077.36 Q59.3254 1080.9 62.9365 1080.9 Q66.5707 1080.9 68.3763 1077.36 Q70.205 1073.79 70.205 1066.69 Q70.205 1059.56 68.3763 1056.02 Q66.5707 1052.45 62.9365 1052.45 M62.9365 1048.75 Q68.7467 1048.75 71.8022 1053.35 Q74.8809 1057.94 74.8809 1066.69 Q74.8809 1075.41 71.8022 1080.02 Q68.7467 1084.6 62.9365 1084.6 Q57.1264 1084.6 54.0477 1080.02 Q50.9921 1075.41 50.9921 1066.69 Q50.9921 1057.94 54.0477 1053.35 Q57.1264 1048.75 62.9365 1048.75 Z" fill="#000000" fill-rule="nonzero" fill-opacity="1" /><path clip-path="url(#clip780)" d="M83.0984 1078.05 L87.9827 1078.05 L87.9827 1083.93 L83.0984 1083.93 L83.0984 1078.05 Z" fill="#000000" fill-rule="nonzero" fill-opacity="1" /><path clip-path="url(#clip780)" d="M98.978 1080 L106.617 1080 L106.617 1053.63 L98.3067 1055.3 L98.3067 1051.04 L106.571 1049.37 L111.246 1049.37 L111.246 1080 L118.885 1080 L118.885 1083.93 L98.978 1083.93 L98.978 1080 Z" fill="#000000" fill-rule="nonzero" fill-opacity="1" /><path clip-path="url(#clip780)" d="M138.33 1052.45 Q134.719 1052.45 132.89 1056.02 Q131.084 1059.56 131.084 1066.69 Q131.084 1073.79 132.89 1077.36 Q134.719 1080.9 138.33 1080.9 Q141.964 1080.9 143.769 1077.36 Q145.598 1073.79 145.598 1066.69 Q145.598 1059.56 143.769 1056.02 Q141.964 1052.45 138.33 1052.45 M138.33 1048.75 Q144.14 1048.75 147.195 1053.35 Q150.274 1057.94 150.274 1066.69 Q150.274 1075.41 147.195 1080.02 Q144.14 1084.6 138.33 1084.6 Q132.519 1084.6 129.441 1080.02 Q126.385 1075.41 126.385 1066.69 Q126.385 1057.94 129.441 1053.35 Q132.519 1048.75 138.33 1048.75 Z" fill="#000000" fill-rule="nonzero" fill-opacity="1" /><path clip-path="url(#clip780)" d="M63.9319 826.169 Q60.3208 826.169 58.4921 829.734 Q56.6865 833.276 56.6865 840.405 Q56.6865 847.512 58.4921 851.076 Q60.3208 854.618 63.9319 854.618 Q67.5661 854.618 69.3717 851.076 Q71.2004 847.512 71.2004 840.405 Q71.2004 833.276 69.3717 829.734 Q67.5661 826.169 63.9319 826.169 M63.9319 822.465 Q69.742 822.465 72.7976 827.072 Q75.8763 831.655 75.8763 840.405 Q75.8763 849.132 72.7976 853.738 Q69.742 858.322 63.9319 858.322 Q58.1217 858.322 55.043 853.738 Q51.9875 849.132 51.9875 840.405 Q51.9875 831.655 55.043 827.072 Q58.1217 822.465 63.9319 822.465 Z" fill="#000000" fill-rule="nonzero" fill-opacity="1" /><path clip-path="url(#clip780)" d="M84.0938 851.771 L88.978 851.771 L88.978 857.65 L84.0938 857.65 L84.0938 851.771 Z" fill="#000000" fill-rule="nonzero" fill-opacity="1" /><path clip-path="url(#clip780)" d="M99.9733 853.715 L107.612 853.715 L107.612 827.35 L99.3021 829.016 L99.3021 824.757 L107.566 823.09 L112.242 823.09 L112.242 853.715 L119.881 853.715 L119.881 857.65 L99.9733 857.65 L99.9733 853.715 Z" fill="#000000" fill-rule="nonzero" fill-opacity="1" /><path clip-path="url(#clip780)" d="M129.371 823.09 L147.728 823.09 L147.728 827.026 L133.654 827.026 L133.654 835.498 Q134.672 835.151 135.691 834.989 Q136.709 834.803 137.728 834.803 Q143.515 834.803 146.894 837.975 Q150.274 841.146 150.274 846.563 Q150.274 852.141 146.802 855.243 Q143.33 858.322 137.01 858.322 Q134.834 858.322 132.566 857.951 Q130.32 857.581 127.913 856.84 L127.913 852.141 Q129.996 853.275 132.219 853.831 Q134.441 854.387 136.918 854.387 Q140.922 854.387 143.26 852.28 Q145.598 850.174 145.598 846.563 Q145.598 842.951 143.26 840.845 Q140.922 838.739 136.918 838.739 Q135.043 838.739 133.168 839.155 Q131.316 839.572 129.371 840.451 L129.371 823.09 Z" fill="#000000" fill-rule="nonzero" fill-opacity="1" /><path clip-path="url(#clip780)" d="M62.9365 599.887 Q59.3254 599.887 57.4967 603.451 Q55.6912 606.993 55.6912 614.123 Q55.6912 621.229 57.4967 624.794 Q59.3254 628.335 62.9365 628.335 Q66.5707 628.335 68.3763 624.794 Q70.205 621.229 70.205 614.123 Q70.205 606.993 68.3763 603.451 Q66.5707 599.887 62.9365 599.887 M62.9365 596.183 Q68.7467 596.183 71.8022 600.789 Q74.8809 605.373 74.8809 614.123 Q74.8809 622.849 71.8022 627.456 Q68.7467 632.039 62.9365 632.039 Q57.1264 632.039 54.0477 627.456 Q50.9921 622.849 50.9921 614.123 Q50.9921 605.373 54.0477 600.789 Q57.1264 596.183 62.9365 596.183 Z" fill="#000000" fill-rule="nonzero" fill-opacity="1" /><path clip-path="url(#clip780)" d="M83.0984 625.488 L87.9827 625.488 L87.9827 631.368 L83.0984 631.368 L83.0984 625.488 Z" fill="#000000" fill-rule="nonzero" fill-opacity="1" /><path clip-path="url(#clip780)" d="M102.196 627.433 L118.515 627.433 L118.515 631.368 L96.5706 631.368 L96.5706 627.433 Q99.2326 624.678 103.816 620.048 Q108.422 615.396 109.603 614.053 Q111.848 611.53 112.728 609.794 Q113.631 608.035 113.631 606.345 Q113.631 603.59 111.686 601.854 Q109.765 600.118 106.663 600.118 Q104.464 600.118 102.01 600.882 Q99.5798 601.646 96.8021 603.197 L96.8021 598.474 Q99.6261 597.34 102.08 596.762 Q104.534 596.183 106.571 596.183 Q111.941 596.183 115.135 598.868 Q118.33 601.553 118.33 606.044 Q118.33 608.174 117.52 610.095 Q116.733 611.993 114.626 614.586 Q114.047 615.257 110.946 618.474 Q107.844 621.669 102.196 627.433 Z" fill="#000000" fill-rule="nonzero" fill-opacity="1" /><path clip-path="url(#clip780)" d="M138.33 599.887 Q134.719 599.887 132.89 603.451 Q131.084 606.993 131.084 614.123 Q131.084 621.229 132.89 624.794 Q134.719 628.335 138.33 628.335 Q141.964 628.335 143.769 624.794 Q145.598 621.229 145.598 614.123 Q145.598 606.993 143.769 603.451 Q141.964 599.887 138.33 599.887 M138.33 596.183 Q144.14 596.183 147.195 600.789 Q150.274 605.373 150.274 614.123 Q150.274 622.849 147.195 627.456 Q144.14 632.039 138.33 632.039 Q132.519 632.039 129.441 627.456 Q126.385 622.849 126.385 614.123 Q126.385 605.373 129.441 600.789 Q132.519 596.183 138.33 596.183 Z" fill="#000000" fill-rule="nonzero" fill-opacity="1" /><path clip-path="url(#clip780)" d="M63.9319 373.604 Q60.3208 373.604 58.4921 377.169 Q56.6865 380.71 56.6865 387.84 Q56.6865 394.946 58.4921 398.511 Q60.3208 402.053 63.9319 402.053 Q67.5661 402.053 69.3717 398.511 Q71.2004 394.946 71.2004 387.84 Q71.2004 380.71 69.3717 377.169 Q67.5661 373.604 63.9319 373.604 M63.9319 369.9 Q69.742 369.9 72.7976 374.507 Q75.8763 379.09 75.8763 387.84 Q75.8763 396.567 72.7976 401.173 Q69.742 405.756 63.9319 405.756 Q58.1217 405.756 55.043 401.173 Q51.9875 396.567 51.9875 387.84 Q51.9875 379.09 55.043 374.507 Q58.1217 369.9 63.9319 369.9 Z" fill="#000000" fill-rule="nonzero" fill-opacity="1" /><path clip-path="url(#clip780)" d="M84.0938 399.206 L88.978 399.206 L88.978 405.085 L84.0938 405.085 L84.0938 399.206 Z" fill="#000000" fill-rule="nonzero" fill-opacity="1" /><path clip-path="url(#clip780)" d="M103.191 401.15 L119.51 401.15 L119.51 405.085 L97.566 405.085 L97.566 401.15 Q100.228 398.395 104.811 393.766 Q109.418 389.113 110.598 387.77 Q112.844 385.247 113.723 383.511 Q114.626 381.752 114.626 380.062 Q114.626 377.308 112.682 375.571 Q110.76 373.835 107.658 373.835 Q105.459 373.835 103.006 374.599 Q100.575 375.363 97.7974 376.914 L97.7974 372.192 Q100.621 371.058 103.075 370.479 Q105.529 369.9 107.566 369.9 Q112.936 369.9 116.131 372.585 Q119.325 375.271 119.325 379.761 Q119.325 381.891 118.515 383.812 Q117.728 385.71 115.621 388.303 Q115.043 388.974 111.941 392.192 Q108.839 395.386 103.191 401.15 Z" fill="#000000" fill-rule="nonzero" fill-opacity="1" /><path clip-path="url(#clip780)" d="M129.371 370.525 L147.728 370.525 L147.728 374.46 L133.654 374.46 L133.654 382.933 Q134.672 382.585 135.691 382.423 Q136.709 382.238 137.728 382.238 Q143.515 382.238 146.894 385.409 Q150.274 388.581 150.274 393.997 Q150.274 399.576 146.802 402.678 Q143.33 405.756 137.01 405.756 Q134.834 405.756 132.566 405.386 Q130.32 405.016 127.913 404.275 L127.913 399.576 Q129.996 400.71 132.219 401.266 Q134.441 401.821 136.918 401.821 Q140.922 401.821 143.26 399.715 Q145.598 397.608 145.598 393.997 Q145.598 390.386 143.26 388.28 Q140.922 386.173 136.918 386.173 Q135.043 386.173 133.168 386.59 Q131.316 387.007 129.371 387.886 L129.371 370.525 Z" fill="#000000" fill-rule="nonzero" fill-opacity="1" /><path clip-path="url(#clip780)" d="M62.9365 147.321 Q59.3254 147.321 57.4967 150.886 Q55.6912 154.428 55.6912 161.557 Q55.6912 168.664 57.4967 172.229 Q59.3254 175.77 62.9365 175.77 Q66.5707 175.77 68.3763 172.229 Q70.205 168.664 70.205 161.557 Q70.205 154.428 68.3763 150.886 Q66.5707 147.321 62.9365 147.321 M62.9365 143.618 Q68.7467 143.618 71.8022 148.224 Q74.8809 152.807 74.8809 161.557 Q74.8809 170.284 71.8022 174.891 Q68.7467 179.474 62.9365 179.474 Q57.1264 179.474 54.0477 174.891 Q50.9921 170.284 50.9921 161.557 Q50.9921 152.807 54.0477 148.224 Q57.1264 143.618 62.9365 143.618 Z" fill="#000000" fill-rule="nonzero" fill-opacity="1" /><path clip-path="url(#clip780)" d="M83.0984 172.923 L87.9827 172.923 L87.9827 178.803 L83.0984 178.803 L83.0984 172.923 Z" fill="#000000" fill-rule="nonzero" fill-opacity="1" /><path clip-path="url(#clip780)" d="M112.334 160.168 Q115.691 160.886 117.566 163.154 Q119.464 165.423 119.464 168.756 Q119.464 173.872 115.945 176.673 Q112.427 179.474 105.946 179.474 Q103.77 179.474 101.455 179.034 Q99.1632 178.617 96.7095 177.761 L96.7095 173.247 Q98.6539 174.381 100.969 174.96 Q103.284 175.539 105.807 175.539 Q110.205 175.539 112.496 173.803 Q114.811 172.066 114.811 168.756 Q114.811 165.701 112.658 163.988 Q110.529 162.252 106.709 162.252 L102.682 162.252 L102.682 158.409 L106.895 158.409 Q110.344 158.409 112.172 157.043 Q114.001 155.655 114.001 153.062 Q114.001 150.4 112.103 148.988 Q110.228 147.553 106.709 147.553 Q104.788 147.553 102.589 147.969 Q100.39 148.386 97.7511 149.266 L97.7511 145.099 Q100.413 144.358 102.728 143.988 Q105.066 143.618 107.126 143.618 Q112.45 143.618 115.552 146.048 Q118.654 148.455 118.654 152.576 Q118.654 155.446 117.01 157.437 Q115.367 159.405 112.334 160.168 Z" fill="#000000" fill-rule="nonzero" fill-opacity="1" /><path clip-path="url(#clip780)" d="M138.33 147.321 Q134.719 147.321 132.89 150.886 Q131.084 154.428 131.084 161.557 Q131.084 168.664 132.89 172.229 Q134.719 175.77 138.33 175.77 Q141.964 175.77 143.769 172.229 Q145.598 168.664 145.598 161.557 Q145.598 154.428 143.769 150.886 Q141.964 147.321 138.33 147.321 M138.33 143.618 Q144.14 143.618 147.195 148.224 Q150.274 152.807 150.274 161.557 Q150.274 170.284 147.195 174.891 Q144.14 179.474 138.33 179.474 Q132.519 179.474 129.441 174.891 Q126.385 170.284 126.385 161.557 Q126.385 152.807 129.441 148.224 Q132.519 143.618 138.33 143.618 Z" fill="#000000" fill-rule="nonzero" fill-opacity="1" /><polyline clip-path="url(#clip782)" style="stroke:#009af9; stroke-linecap:round; stroke-linejoin:round; stroke-width:4; stroke-opacity:1; fill:none" points="247.59,1056.64 269.104,940.509 290.618,834.219 312.132,755.142 333.646,564.843 355.161,397.959 376.675,87.9763 398.189,441.85 419.703,699.371 441.218,731.748 462.732,923.208 484.246,1042.8 505.76,1095.47 527.274,1196.8 548.789,1243.34 570.303,1294.44 591.817,1345.68 613.331,1354.59 634.845,1359.34 656.36,1334.83 677.874,1299.19 699.388,1211.84 720.902,1177.69 742.417,1167.63 763.931,1175.58 785.445,1203.8 806.959,1193.99 828.473,1229.8 849.988,1215.65 871.502,1169.91 893.016,1174.45 914.53,1074.59 936.045,985.986 957.559,985.788 979.073,942.809 1000.59,873.369 1022.1,923.358 1043.62,937.759 1065.13,848.555 1086.64,814.104 1108.16,735.244 1129.67,671.326 1151.19,622.425 1172.7,613.371 1194.22,673.532 1215.73,749.38 1237.24,801.766 1258.76,895.459 1280.27,1000.95 1301.79,1086.31 1323.3,1150.25 1344.81,1217.12 1366.33,1271.04 1387.84,1301.17 1409.36,1312.73 1430.87,1363.87 1452.39,1377.44 1473.9,1397.84 1495.41,1404.87 1516.93,1415.84 1538.44,1427.85 1559.96,1427.06 1581.47,1429.24 1602.99,1432.26 1624.5,1445.72 1646.01,1439.08 1667.53,1428.81 1689.04,1419.7 1710.56,1419.73 1732.07,1431.76 1753.58,1418.23 1775.1,1415.02 1796.61,1395.87 1818.13,1384.39 1839.64,1373.64 1861.16,1359.29 1882.67,1389.52 1904.18,1400.36 1925.7,1395.52 1947.21,1374.03 1968.73,1333.6 1990.24,1327.5 2011.76,1294.72 2033.27,1274.03 2054.78,1302.84 2076.3,1328.91 2097.81,1320.99 2119.33,1271.87 2140.84,1212.68 2162.36,1053.46 2183.87,991.922 2205.38,966.772 2226.9,958.56 2248.41,1073.97 2269.93,1152.93 2291.44,1318.94 "/>
<path clip-path="url(#clip780)" d="M2011.46 198.898 L2280.54 198.898 L2280.54 95.2176 L2011.46 95.2176  Z" fill="#ffffff" fill-rule="evenodd" fill-opacity="1"/>
<polyline clip-path="url(#clip780)" style="stroke:#000000; stroke-linecap:round; stroke-linejoin:round; stroke-width:4; stroke-opacity:1; fill:none" points="2011.46,198.898 2280.54,198.898 2280.54,95.2176 2011.46,95.2176 2011.46,198.898 "/>
<polyline clip-path="url(#clip780)" style="stroke:#009af9; stroke-linecap:round; stroke-linejoin:round; stroke-width:4; stroke-opacity:1; fill:none" points="2035.53,147.058 2179.97,147.058 "/>
<path clip-path="url(#clip780)" d="M2217.88 166.745 Q2216.07 171.375 2214.36 172.787 Q2212.65 174.199 2209.78 174.199 L2206.38 174.199 L2206.38 170.634 L2208.88 170.634 Q2210.63 170.634 2211.61 169.8 Q2212.58 168.967 2213.76 165.865 L2214.52 163.921 L2204.04 138.412 L2208.55 138.412 L2216.65 158.689 L2224.76 138.412 L2229.27 138.412 L2217.88 166.745 Z" fill="#000000" fill-rule="nonzero" fill-opacity="1" /><path clip-path="url(#clip780)" d="M2236.56 160.402 L2244.2 160.402 L2244.2 134.037 L2235.89 135.703 L2235.89 131.444 L2244.15 129.778 L2248.83 129.778 L2248.83 160.402 L2256.47 160.402 L2256.47 164.338 L2236.56 164.338 L2236.56 160.402 Z" fill="#000000" fill-rule="nonzero" fill-opacity="1" /></svg>
